<?xml version="1.0" encoding="UTF-8" standalone="no"?>
<!DOCTYPE svg PUBLIC "-//W3C//DTD SVG 1.1//EN"
 "http://www.w3.org/Graphics/SVG/1.1/DTD/svg11.dtd">
<!-- Generated by graphviz version 2.46.1 (20210215.1649)
 -->
<!-- Title: include/ar/ARQ.h Pages: 1 -->
<svg width="6170pt" height="162pt"
 viewBox="0.00 0.00 6169.50 162.00" xmlns="http://www.w3.org/2000/svg" xmlns:xlink="http://www.w3.org/1999/xlink">
<g id="graph0" class="graph" transform="scale(1 1) rotate(0) translate(4 158)">
<title>include/ar/ARQ.h</title>
<polygon fill="white" stroke="transparent" points="-4,4 -4,-158 6165.5,-158 6165.5,4 -4,4"/>
<!-- Node1 -->
<g id="node1" class="node">
<title>Node1</title>
<g id="a_node1"><a xlink:title=" ">
<polygon fill="#bfbfbf" stroke="black" points="3075.5,-134.5 3075.5,-153.5 3165.5,-153.5 3165.5,-134.5 3075.5,-134.5"/>
<text text-anchor="middle" x="3120.5" y="-141.5" font-family="Helvetica,sans-Serif" font-size="10.00">include/ar/ARQ.h</text>
</a>
</g>
</g>
<!-- Node2 -->
<g id="node2" class="node">
<title>Node2</title>
<g id="a_node2"><a xlink:href="global_8h.html" target="_top" xlink:title=" ">
<polygon fill="white" stroke="red" points="3008,-73 3008,-92 3091,-92 3091,-73 3008,-73"/>
<text text-anchor="middle" x="3049.5" y="-80" font-family="Helvetica,sans-Serif" font-size="10.00">include/global.h</text>
</a>
</g>
</g>
<!-- Node1&#45;&gt;Node2 -->
<g id="edge1" class="edge">
<title>Node1&#45;&gt;Node2</title>
<path fill="none" stroke="midnightblue" d="M3102.57,-127.97C3088.99,-116.59 3070.82,-101.37 3059.65,-92.01"/>
<polygon fill="midnightblue" stroke="midnightblue" points="3100.41,-130.73 3110.33,-134.48 3104.91,-125.37 3100.41,-130.73"/>
</g>
<!-- Node346 -->
<g id="node50" class="node">
<title>Node346</title>
<g id="a_node50"><a xlink:href="JKRAramPiece_8h.html" target="_top" xlink:title=" ">
<polygon fill="white" stroke="red" points="3109.5,-67.5 3109.5,-97.5 3273.5,-97.5 3273.5,-67.5 3109.5,-67.5"/>
<text text-anchor="start" x="3117.5" y="-85.5" font-family="Helvetica,sans-Serif" font-size="10.00">include/JSystem/JKernel</text>
<text text-anchor="middle" x="3191.5" y="-74.5" font-family="Helvetica,sans-Serif" font-size="10.00">/JKRAramPiece/JKRAramPiece.h</text>
</a>
</g>
</g>
<!-- Node1&#45;&gt;Node346 -->
<g id="edge49" class="edge">
<title>Node1&#45;&gt;Node346</title>
<path fill="none" stroke="midnightblue" d="M3138.49,-127.92C3149.64,-118.58 3163.86,-106.66 3174.77,-97.52"/>
<polygon fill="midnightblue" stroke="midnightblue" points="3136.09,-125.37 3130.67,-134.48 3140.59,-130.73 3136.09,-125.37"/>
</g>
<!-- Node3 -->
<g id="node3" class="node">
<title>Node3</title>
<g id="a_node3"><a xlink:href="d__a__horse__static_8cpp.html" target="_top" xlink:title=" ">
<polygon fill="white" stroke="black" points="0,-0.5 0,-30.5 105,-30.5 105,-0.5 0,-0.5"/>
<text text-anchor="start" x="8" y="-18.5" font-family="Helvetica,sans-Serif" font-size="10.00">src/d/d_a/d_a_horse</text>
<text text-anchor="middle" x="52.5" y="-7.5" font-family="Helvetica,sans-Serif" font-size="10.00">_static.cpp</text>
</a>
</g>
</g>
<!-- Node2&#45;&gt;Node3 -->
<g id="edge2" class="edge">
<title>Node2&#45;&gt;Node3</title>
<path fill="none" stroke="midnightblue" d="M2997.71,-81.27C2629.28,-79.57 411.14,-67.81 114.5,-31 111.43,-30.62 108.29,-30.15 105.13,-29.61"/>
<polygon fill="midnightblue" stroke="midnightblue" points="2997.8,-84.77 3007.82,-81.32 2997.84,-77.77 2997.8,-84.77"/>
</g>
<!-- Node4 -->
<g id="node4" class="node">
<title>Node4</title>
<g id="a_node4"><a xlink:href="d__a__item__static_8cpp.html" target="_top" xlink:title=" ">
<polygon fill="white" stroke="black" points="123.5,-0.5 123.5,-30.5 223.5,-30.5 223.5,-0.5 123.5,-0.5"/>
<text text-anchor="start" x="131.5" y="-18.5" font-family="Helvetica,sans-Serif" font-size="10.00">src/d/d_a/d_a_item</text>
<text text-anchor="middle" x="173.5" y="-7.5" font-family="Helvetica,sans-Serif" font-size="10.00">_static.cpp</text>
</a>
</g>
</g>
<!-- Node2&#45;&gt;Node4 -->
<g id="edge3" class="edge">
<title>Node2&#45;&gt;Node4</title>
<path fill="none" stroke="midnightblue" d="M2997.83,-81.27C2638.35,-79.56 516.48,-67.97 232.5,-31 229.57,-30.62 226.58,-30.15 223.57,-29.61"/>
<polygon fill="midnightblue" stroke="midnightblue" points="2997.93,-84.77 3007.95,-81.32 2997.96,-77.77 2997.93,-84.77"/>
</g>
<!-- Node5 -->
<g id="node5" class="node">
<title>Node5</title>
<g id="a_node5"><a xlink:href="d__attention_8cpp.html" target="_top" xlink:title=" ">
<polygon fill="white" stroke="black" points="242,-6 242,-25 349,-25 349,-6 242,-6"/>
<text text-anchor="middle" x="295.5" y="-13" font-family="Helvetica,sans-Serif" font-size="10.00">src/d/d_attention.cpp</text>
</a>
</g>
</g>
<!-- Node2&#45;&gt;Node5 -->
<g id="edge4" class="edge">
<title>Node2&#45;&gt;Node5</title>
<path fill="none" stroke="midnightblue" d="M2997.67,-81.19C2647.07,-78.97 628.43,-64.84 357.5,-31 347.19,-29.71 336.09,-27.42 326.17,-25.02"/>
<polygon fill="midnightblue" stroke="midnightblue" points="2997.76,-84.69 3007.79,-81.25 2997.81,-77.69 2997.76,-84.69"/>
</g>
<!-- Node6 -->
<g id="node6" class="node">
<title>Node6</title>
<g id="a_node6"><a xlink:href="d__bg__s__poly__pass__chk_8cpp.html" target="_top" xlink:title=" ">
<polygon fill="white" stroke="black" points="367,-0.5 367,-30.5 486,-30.5 486,-0.5 367,-0.5"/>
<text text-anchor="start" x="375" y="-18.5" font-family="Helvetica,sans-Serif" font-size="10.00">src/d/d_bg/d_bg_s_poly</text>
<text text-anchor="middle" x="426.5" y="-7.5" font-family="Helvetica,sans-Serif" font-size="10.00">_pass_chk.cpp</text>
</a>
</g>
</g>
<!-- Node2&#45;&gt;Node6 -->
<g id="edge5" class="edge">
<title>Node2&#45;&gt;Node6</title>
<path fill="none" stroke="midnightblue" d="M2997.92,-81.07C2658.55,-78.17 751.32,-60.65 494.5,-31 491.74,-30.68 488.93,-30.3 486.1,-29.88"/>
<polygon fill="midnightblue" stroke="midnightblue" points="2997.93,-84.57 3007.96,-81.16 2997.99,-77.57 2997.93,-84.57"/>
</g>
<!-- Node7 -->
<g id="node7" class="node">
<title>Node7</title>
<g id="a_node7"><a xlink:href="d__com__inf__game_8cpp.html" target="_top" xlink:title=" ">
<polygon fill="white" stroke="black" points="504,-0.5 504,-30.5 623,-30.5 623,-0.5 504,-0.5"/>
<text text-anchor="start" x="512" y="-18.5" font-family="Helvetica,sans-Serif" font-size="10.00">src/d/d_com/d_com_inf</text>
<text text-anchor="middle" x="563.5" y="-7.5" font-family="Helvetica,sans-Serif" font-size="10.00">_game.cpp</text>
</a>
</g>
</g>
<!-- Node2&#45;&gt;Node7 -->
<g id="edge6" class="edge">
<title>Node2&#45;&gt;Node7</title>
<path fill="none" stroke="midnightblue" d="M2997.18,-81.75C2689.46,-83.04 1112.48,-86.79 631.5,-31 628.74,-30.68 625.93,-30.3 623.1,-29.87"/>
<polygon fill="midnightblue" stroke="midnightblue" points="2997.6,-85.25 3007.58,-81.71 2997.57,-78.25 2997.6,-85.25"/>
</g>
<!-- Node8 -->
<g id="node8" class="node">
<title>Node8</title>
<g id="a_node8"><a xlink:href="d__file__sel__info_8cpp.html" target="_top" xlink:title=" ">
<polygon fill="white" stroke="black" points="641,-0.5 641,-30.5 730,-30.5 730,-0.5 641,-0.5"/>
<text text-anchor="start" x="649" y="-18.5" font-family="Helvetica,sans-Serif" font-size="10.00">src/d/d_file/d_file</text>
<text text-anchor="middle" x="685.5" y="-7.5" font-family="Helvetica,sans-Serif" font-size="10.00">_sel_info.cpp</text>
</a>
</g>
</g>
<!-- Node2&#45;&gt;Node8 -->
<g id="edge7" class="edge">
<title>Node2&#45;&gt;Node8</title>
<path fill="none" stroke="midnightblue" d="M2997.38,-81.13C2675.9,-78.73 968.58,-64.47 738.5,-31 735.76,-30.6 732.96,-30.11 730.16,-29.54"/>
<polygon fill="midnightblue" stroke="midnightblue" points="2997.77,-84.63 3007.8,-81.2 2997.82,-77.63 2997.77,-84.63"/>
</g>
<!-- Node9 -->
<g id="node9" class="node">
<title>Node9</title>
<g id="a_node9"><a xlink:href="d__item_8cpp.html" target="_top" xlink:title=" ">
<polygon fill="white" stroke="black" points="748,-6 748,-25 869,-25 869,-6 748,-6"/>
<text text-anchor="middle" x="808.5" y="-13" font-family="Helvetica,sans-Serif" font-size="10.00">src/d/d_item/d_item.cpp</text>
</a>
</g>
</g>
<!-- Node2&#45;&gt;Node9 -->
<g id="edge8" class="edge">
<title>Node2&#45;&gt;Node9</title>
<path fill="none" stroke="midnightblue" d="M2997.53,-81.59C2709.56,-81.88 1307.06,-80.7 877.5,-31 866.19,-29.69 853.99,-27.42 843.04,-25.06"/>
<polygon fill="midnightblue" stroke="midnightblue" points="2997.7,-85.09 3007.7,-81.58 2997.69,-78.09 2997.7,-85.09"/>
</g>
<!-- Node10 -->
<g id="node10" class="node">
<title>Node10</title>
<g id="a_node10"><a xlink:href="d__kankyo__data_8cpp.html" target="_top" xlink:title=" ">
<polygon fill="white" stroke="black" points="887,-0.5 887,-30.5 1014,-30.5 1014,-0.5 887,-0.5"/>
<text text-anchor="start" x="895" y="-18.5" font-family="Helvetica,sans-Serif" font-size="10.00">src/d/d_kankyo/d_kankyo</text>
<text text-anchor="middle" x="950.5" y="-7.5" font-family="Helvetica,sans-Serif" font-size="10.00">_data.cpp</text>
</a>
</g>
</g>
<!-- Node2&#45;&gt;Node10 -->
<g id="edge9" class="edge">
<title>Node2&#45;&gt;Node10</title>
<path fill="none" stroke="midnightblue" d="M2997.52,-81.43C2721.15,-80.87 1421.84,-75.84 1022.5,-31 1019.71,-30.69 1016.87,-30.32 1014.01,-29.91"/>
<polygon fill="midnightblue" stroke="midnightblue" points="2997.66,-84.93 3007.67,-81.45 2997.67,-77.93 2997.66,-84.93"/>
</g>
<!-- Node11 -->
<g id="node11" class="node">
<title>Node11</title>
<g id="a_node11"><a xlink:href="d__kankyo__rain_8cpp.html" target="_top" xlink:title=" ">
<polygon fill="white" stroke="black" points="1032,-0.5 1032,-30.5 1159,-30.5 1159,-0.5 1032,-0.5"/>
<text text-anchor="start" x="1040" y="-18.5" font-family="Helvetica,sans-Serif" font-size="10.00">src/d/d_kankyo/d_kankyo</text>
<text text-anchor="middle" x="1095.5" y="-7.5" font-family="Helvetica,sans-Serif" font-size="10.00">_rain.cpp</text>
</a>
</g>
</g>
<!-- Node2&#45;&gt;Node11 -->
<g id="edge10" class="edge">
<title>Node2&#45;&gt;Node11</title>
<path fill="none" stroke="midnightblue" d="M2997.89,-81.32C2734.33,-80.19 1536.67,-72.81 1167.5,-31 1164.71,-30.68 1161.87,-30.32 1159.01,-29.91"/>
<polygon fill="midnightblue" stroke="midnightblue" points="2997.94,-84.82 3007.95,-81.36 2997.96,-77.82 2997.94,-84.82"/>
</g>
<!-- Node12 -->
<g id="node12" class="node">
<title>Node12</title>
<g id="a_node12"><a xlink:href="d__kankyo__wether_8cpp.html" target="_top" xlink:title=" ">
<polygon fill="white" stroke="black" points="1177,-0.5 1177,-30.5 1304,-30.5 1304,-0.5 1177,-0.5"/>
<text text-anchor="start" x="1185" y="-18.5" font-family="Helvetica,sans-Serif" font-size="10.00">src/d/d_kankyo/d_kankyo</text>
<text text-anchor="middle" x="1240.5" y="-7.5" font-family="Helvetica,sans-Serif" font-size="10.00">_wether.cpp</text>
</a>
</g>
</g>
<!-- Node2&#45;&gt;Node12 -->
<g id="edge11" class="edge">
<title>Node2&#45;&gt;Node12</title>
<path fill="none" stroke="midnightblue" d="M2997.5,-81.18C2745.66,-79.44 1651.21,-69.75 1312.5,-31 1309.71,-30.68 1306.87,-30.31 1304.01,-29.9"/>
<polygon fill="midnightblue" stroke="midnightblue" points="2997.8,-84.68 3007.82,-81.25 2997.84,-77.68 2997.8,-84.68"/>
</g>
<!-- Node13 -->
<g id="node13" class="node">
<title>Node13</title>
<g id="a_node13"><a xlink:href="d__kankyo_8cpp.html" target="_top" xlink:title=" ">
<polygon fill="white" stroke="black" points="1322,-6 1322,-25 1423,-25 1423,-6 1322,-6"/>
<text text-anchor="middle" x="1372.5" y="-13" font-family="Helvetica,sans-Serif" font-size="10.00">src/d/d_kankyo.cpp</text>
</a>
</g>
</g>
<!-- Node2&#45;&gt;Node13 -->
<g id="edge12" class="edge">
<title>Node2&#45;&gt;Node13</title>
<path fill="none" stroke="midnightblue" d="M2997.55,-81.34C2756.39,-80.39 1744.62,-73.88 1431.5,-31 1421.78,-29.67 1411.34,-27.39 1401.98,-25.03"/>
<polygon fill="midnightblue" stroke="midnightblue" points="2997.77,-84.84 3007.79,-81.38 2997.8,-77.84 2997.77,-84.84"/>
</g>
<!-- Node14 -->
<g id="node14" class="node">
<title>Node14</title>
<g id="a_node14"><a xlink:href="d__kantera__icon__meter_8cpp.html" target="_top" xlink:title=" ">
<polygon fill="white" stroke="black" points="1441,-0.5 1441,-30.5 1548,-30.5 1548,-0.5 1441,-0.5"/>
<text text-anchor="start" x="1449" y="-18.5" font-family="Helvetica,sans-Serif" font-size="10.00">src/d/d_kantera_icon</text>
<text text-anchor="middle" x="1494.5" y="-7.5" font-family="Helvetica,sans-Serif" font-size="10.00">_meter.cpp</text>
</a>
</g>
</g>
<!-- Node2&#45;&gt;Node14 -->
<g id="edge13" class="edge">
<title>Node2&#45;&gt;Node14</title>
<path fill="none" stroke="midnightblue" d="M2997.89,-81.11C2768.98,-79.18 1844.05,-69.11 1556.5,-31 1553.76,-30.64 1550.96,-30.21 1548.15,-29.73"/>
<polygon fill="midnightblue" stroke="midnightblue" points="2997.92,-84.61 3007.95,-81.19 2997.97,-77.61 2997.92,-84.61"/>
</g>
<!-- Node15 -->
<g id="node15" class="node">
<title>Node15</title>
<g id="a_node15"><a xlink:href="d__kyeff2_8cpp.html" target="_top" xlink:title=" ">
<polygon fill="white" stroke="black" points="1566,-6 1566,-25 1685,-25 1685,-6 1566,-6"/>
<text text-anchor="middle" x="1625.5" y="-13" font-family="Helvetica,sans-Serif" font-size="10.00">src/d/d_ky/d_kyeff2.cpp</text>
</a>
</g>
</g>
<!-- Node2&#45;&gt;Node15 -->
<g id="edge14" class="edge">
<title>Node2&#45;&gt;Node15</title>
<path fill="none" stroke="midnightblue" d="M2997.84,-80.75C2782.29,-77.44 1953.84,-62.85 1694.5,-31 1683.32,-29.63 1671.27,-27.37 1660.41,-25.04"/>
<polygon fill="midnightblue" stroke="midnightblue" points="2997.88,-84.25 3007.93,-80.9 2997.99,-77.25 2997.88,-84.25"/>
</g>
<!-- Node16 -->
<g id="node16" class="node">
<title>Node16</title>
<g id="a_node16"><a xlink:href="d__lib_8cpp.html" target="_top" xlink:title=" ">
<polygon fill="white" stroke="black" points="1703.5,-6 1703.5,-25 1783.5,-25 1783.5,-6 1703.5,-6"/>
<text text-anchor="middle" x="1743.5" y="-13" font-family="Helvetica,sans-Serif" font-size="10.00">src/d/d_lib.cpp</text>
</a>
</g>
</g>
<!-- Node2&#45;&gt;Node16 -->
<g id="edge15" class="edge">
<title>Node2&#45;&gt;Node16</title>
<path fill="none" stroke="midnightblue" d="M2997.51,-81.12C2791.22,-79.37 2030.11,-70.3 1792.5,-31 1784.36,-29.65 1775.67,-27.37 1767.9,-25.01"/>
<polygon fill="midnightblue" stroke="midnightblue" points="2997.73,-84.63 3007.76,-81.21 2997.79,-77.63 2997.73,-84.63"/>
</g>
<!-- Node17 -->
<g id="node17" class="node">
<title>Node17</title>
<g id="a_node17"><a xlink:href="d__meter__button_8cpp.html" target="_top" xlink:title=" ">
<polygon fill="white" stroke="black" points="1802,-0.5 1802,-30.5 1917,-30.5 1917,-0.5 1802,-0.5"/>
<text text-anchor="start" x="1810" y="-18.5" font-family="Helvetica,sans-Serif" font-size="10.00">src/d/d_meter/d_meter</text>
<text text-anchor="middle" x="1859.5" y="-7.5" font-family="Helvetica,sans-Serif" font-size="10.00">_button.cpp</text>
</a>
</g>
</g>
<!-- Node2&#45;&gt;Node17 -->
<g id="edge16" class="edge">
<title>Node2&#45;&gt;Node17</title>
<path fill="none" stroke="midnightblue" d="M2997.78,-80.35C2806.19,-75.93 2137.07,-58.78 1925.5,-31 1922.82,-30.65 1920.1,-30.24 1917.35,-29.8"/>
<polygon fill="midnightblue" stroke="midnightblue" points="2997.79,-83.86 3007.86,-80.59 2997.95,-76.86 2997.79,-83.86"/>
</g>
<!-- Node18 -->
<g id="node18" class="node">
<title>Node18</title>
<g id="a_node18"><a xlink:href="d__meter__haihai_8cpp.html" target="_top" xlink:title=" ">
<polygon fill="white" stroke="black" points="1935,-0.5 1935,-30.5 2050,-30.5 2050,-0.5 1935,-0.5"/>
<text text-anchor="start" x="1943" y="-18.5" font-family="Helvetica,sans-Serif" font-size="10.00">src/d/d_meter/d_meter</text>
<text text-anchor="middle" x="1992.5" y="-7.5" font-family="Helvetica,sans-Serif" font-size="10.00">_haihai.cpp</text>
</a>
</g>
</g>
<!-- Node2&#45;&gt;Node18 -->
<g id="edge17" class="edge">
<title>Node2&#45;&gt;Node18</title>
<path fill="none" stroke="midnightblue" d="M2997.61,-81.87C2849.98,-82.27 2415.31,-78.95 2058.5,-31 2055.83,-30.64 2053.1,-30.23 2050.35,-29.78"/>
<polygon fill="midnightblue" stroke="midnightblue" points="2997.75,-85.37 3007.73,-81.83 2997.72,-78.37 2997.75,-85.37"/>
</g>
<!-- Node19 -->
<g id="node19" class="node">
<title>Node19</title>
<g id="a_node19"><a xlink:href="d__meter__hakusha_8cpp.html" target="_top" xlink:title=" ">
<polygon fill="white" stroke="black" points="2068,-0.5 2068,-30.5 2183,-30.5 2183,-0.5 2068,-0.5"/>
<text text-anchor="start" x="2076" y="-18.5" font-family="Helvetica,sans-Serif" font-size="10.00">src/d/d_meter/d_meter</text>
<text text-anchor="middle" x="2125.5" y="-7.5" font-family="Helvetica,sans-Serif" font-size="10.00">_hakusha.cpp</text>
</a>
</g>
</g>
<!-- Node2&#45;&gt;Node19 -->
<g id="edge18" class="edge">
<title>Node2&#45;&gt;Node19</title>
<path fill="none" stroke="midnightblue" d="M2997.37,-81.28C2863.11,-80.11 2494.79,-72.98 2191.5,-31 2188.83,-30.63 2186.1,-30.21 2183.36,-29.75"/>
<polygon fill="midnightblue" stroke="midnightblue" points="2997.73,-84.79 3007.75,-81.37 2997.78,-77.79 2997.73,-84.79"/>
</g>
<!-- Node20 -->
<g id="node20" class="node">
<title>Node20</title>
<g id="a_node20"><a xlink:href="d__meter__HIO_8cpp.html" target="_top" xlink:title=" ">
<polygon fill="white" stroke="black" points="2201,-0.5 2201,-30.5 2316,-30.5 2316,-0.5 2201,-0.5"/>
<text text-anchor="start" x="2209" y="-18.5" font-family="Helvetica,sans-Serif" font-size="10.00">src/d/d_meter/d_meter</text>
<text text-anchor="middle" x="2258.5" y="-7.5" font-family="Helvetica,sans-Serif" font-size="10.00">_HIO.cpp</text>
</a>
</g>
</g>
<!-- Node2&#45;&gt;Node20 -->
<g id="edge19" class="edge">
<title>Node2&#45;&gt;Node20</title>
<path fill="none" stroke="midnightblue" d="M2997.7,-80.5C2878.37,-77.62 2575.14,-67.06 2324.5,-31 2321.71,-30.6 2318.87,-30.15 2316,-29.65"/>
<polygon fill="midnightblue" stroke="midnightblue" points="2997.92,-84 3007.99,-80.74 2998.08,-77 2997.92,-84"/>
</g>
<!-- Node21 -->
<g id="node21" class="node">
<title>Node21</title>
<g id="a_node21"><a xlink:href="d__meter__map_8cpp.html" target="_top" xlink:title=" ">
<polygon fill="white" stroke="black" points="2334,-0.5 2334,-30.5 2449,-30.5 2449,-0.5 2334,-0.5"/>
<text text-anchor="start" x="2342" y="-18.5" font-family="Helvetica,sans-Serif" font-size="10.00">src/d/d_meter/d_meter</text>
<text text-anchor="middle" x="2391.5" y="-7.5" font-family="Helvetica,sans-Serif" font-size="10.00">_map.cpp</text>
</a>
</g>
</g>
<!-- Node2&#45;&gt;Node21 -->
<g id="edge20" class="edge">
<title>Node2&#45;&gt;Node21</title>
<path fill="none" stroke="midnightblue" d="M2997.48,-79.36C2894.11,-74.6 2655.68,-61.09 2457.5,-31 2454.72,-30.58 2451.87,-30.11 2449.01,-29.6"/>
<polygon fill="midnightblue" stroke="midnightblue" points="2997.5,-82.86 3007.65,-79.82 2997.82,-75.87 2997.5,-82.86"/>
</g>
<!-- Node22 -->
<g id="node22" class="node">
<title>Node22</title>
<g id="a_node22"><a xlink:href="d__meter__string_8cpp.html" target="_top" xlink:title=" ">
<polygon fill="white" stroke="black" points="2467,-0.5 2467,-30.5 2582,-30.5 2582,-0.5 2467,-0.5"/>
<text text-anchor="start" x="2475" y="-18.5" font-family="Helvetica,sans-Serif" font-size="10.00">src/d/d_meter/d_meter</text>
<text text-anchor="middle" x="2524.5" y="-7.5" font-family="Helvetica,sans-Serif" font-size="10.00">_string.cpp</text>
</a>
</g>
</g>
<!-- Node2&#45;&gt;Node22 -->
<g id="edge21" class="edge">
<title>Node2&#45;&gt;Node22</title>
<path fill="none" stroke="midnightblue" d="M2997.65,-77.61C2912.35,-70.8 2737.25,-55.12 2590.5,-31 2587.72,-30.54 2584.88,-30.04 2582.02,-29.52"/>
<polygon fill="midnightblue" stroke="midnightblue" points="2997.6,-81.12 3007.84,-78.41 2998.15,-74.14 2997.6,-81.12"/>
</g>
<!-- Node23 -->
<g id="node23" class="node">
<title>Node23</title>
<g id="a_node23"><a xlink:href="d__meter_8cpp.html" target="_top" xlink:title=" ">
<polygon fill="white" stroke="black" points="2600,-6 2600,-25 2695,-25 2695,-6 2600,-6"/>
<text text-anchor="middle" x="2647.5" y="-13" font-family="Helvetica,sans-Serif" font-size="10.00">src/d/d_meter.cpp</text>
</a>
</g>
</g>
<!-- Node2&#45;&gt;Node23 -->
<g id="edge22" class="edge">
<title>Node2&#45;&gt;Node23</title>
<path fill="none" stroke="midnightblue" d="M2997.97,-75.75C2930.1,-67.77 2807.22,-51.93 2703.5,-31 2695.13,-29.31 2686.15,-27.15 2677.88,-25.01"/>
<polygon fill="midnightblue" stroke="midnightblue" points="2997.64,-79.23 3007.97,-76.91 2998.45,-72.28 2997.64,-79.23"/>
</g>
<!-- Node24 -->
<g id="node24" class="node">
<title>Node24</title>
<g id="a_node24"><a xlink:href="d__meter2__draw_8cpp.html" target="_top" xlink:title=" ">
<polygon fill="white" stroke="black" points="2713,-0.5 2713,-30.5 2838,-30.5 2838,-0.5 2713,-0.5"/>
<text text-anchor="start" x="2721" y="-18.5" font-family="Helvetica,sans-Serif" font-size="10.00">src/d/d_meter2/d_meter2</text>
<text text-anchor="middle" x="2775.5" y="-7.5" font-family="Helvetica,sans-Serif" font-size="10.00">_draw.cpp</text>
</a>
</g>
</g>
<!-- Node2&#45;&gt;Node24 -->
<g id="edge23" class="edge">
<title>Node2&#45;&gt;Node24</title>
<path fill="none" stroke="midnightblue" d="M3003.62,-70.62C2957.26,-59.62 2885.42,-42.58 2834.76,-30.56"/>
<polygon fill="midnightblue" stroke="midnightblue" points="3002.86,-74.03 3013.4,-72.94 3004.48,-67.22 3002.86,-74.03"/>
</g>
<!-- Node25 -->
<g id="node25" class="node">
<title>Node25</title>
<g id="a_node25"><a xlink:href="d__meter2__info_8cpp.html" target="_top" xlink:title=" ">
<polygon fill="white" stroke="black" points="2856,-0.5 2856,-30.5 2981,-30.5 2981,-0.5 2856,-0.5"/>
<text text-anchor="start" x="2864" y="-18.5" font-family="Helvetica,sans-Serif" font-size="10.00">src/d/d_meter2/d_meter2</text>
<text text-anchor="middle" x="2918.5" y="-7.5" font-family="Helvetica,sans-Serif" font-size="10.00">_info.cpp</text>
</a>
</g>
</g>
<!-- Node2&#45;&gt;Node25 -->
<g id="edge24" class="edge">
<title>Node2&#45;&gt;Node25</title>
<path fill="none" stroke="midnightblue" d="M3022.98,-68.34C3000.93,-57.4 2969.61,-41.86 2947.02,-30.65"/>
<polygon fill="midnightblue" stroke="midnightblue" points="3021.59,-71.56 3032.1,-72.87 3024.7,-65.29 3021.59,-71.56"/>
</g>
<!-- Node26 -->
<g id="node26" class="node">
<title>Node26</title>
<g id="a_node26"><a xlink:href="d__meter2_8cpp.html" target="_top" xlink:title=" ">
<polygon fill="white" stroke="black" points="2999.5,-6 2999.5,-25 3099.5,-25 3099.5,-6 2999.5,-6"/>
<text text-anchor="middle" x="3049.5" y="-13" font-family="Helvetica,sans-Serif" font-size="10.00">src/d/d_meter2.cpp</text>
</a>
</g>
</g>
<!-- Node2&#45;&gt;Node26 -->
<g id="edge25" class="edge">
<title>Node2&#45;&gt;Node26</title>
<path fill="none" stroke="midnightblue" d="M3049.5,-62.54C3049.5,-50.17 3049.5,-34.62 3049.5,-25.13"/>
<polygon fill="midnightblue" stroke="midnightblue" points="3046,-62.73 3049.5,-72.73 3053,-62.73 3046,-62.73"/>
</g>
<!-- Node27 -->
<g id="node27" class="node">
<title>Node27</title>
<g id="a_node27"><a xlink:href="d__save__HIO_8cpp.html" target="_top" xlink:title=" ">
<polygon fill="white" stroke="black" points="3118,-0.5 3118,-30.5 3225,-30.5 3225,-0.5 3118,-0.5"/>
<text text-anchor="start" x="3126" y="-18.5" font-family="Helvetica,sans-Serif" font-size="10.00">src/d/d_save/d_save</text>
<text text-anchor="middle" x="3171.5" y="-7.5" font-family="Helvetica,sans-Serif" font-size="10.00">_HIO.cpp</text>
</a>
</g>
</g>
<!-- Node2&#45;&gt;Node27 -->
<g id="edge26" class="edge">
<title>Node2&#45;&gt;Node27</title>
<path fill="none" stroke="midnightblue" d="M3074.75,-68.05C3095.26,-57.12 3124.09,-41.76 3144.94,-30.65"/>
<polygon fill="midnightblue" stroke="midnightblue" points="3072.88,-65.08 3065.7,-72.87 3076.17,-71.26 3072.88,-65.08"/>
</g>
<!-- Node28 -->
<g id="node28" class="node">
<title>Node28</title>
<g id="a_node28"><a xlink:href="d__stage_8cpp.html" target="_top" xlink:title=" ">
<polygon fill="white" stroke="black" points="3243.5,-6 3243.5,-25 3337.5,-25 3337.5,-6 3243.5,-6"/>
<text text-anchor="middle" x="3290.5" y="-13" font-family="Helvetica,sans-Serif" font-size="10.00">src/d/d_stage.cpp</text>
</a>
</g>
</g>
<!-- Node2&#45;&gt;Node28 -->
<g id="edge27" class="edge">
<title>Node2&#45;&gt;Node28</title>
<path fill="none" stroke="midnightblue" d="M3088.84,-70.24C3092.77,-69.14 3096.71,-68.04 3100.5,-67 3155.46,-51.88 3219.57,-35 3257.5,-25.09"/>
<polygon fill="midnightblue" stroke="midnightblue" points="3087.81,-66.89 3079.14,-72.98 3089.72,-73.63 3087.81,-66.89"/>
</g>
<!-- Node29 -->
<g id="node29" class="node">
<title>Node29</title>
<g id="a_node29"><a xlink:href="f__ap__game_8cpp.html" target="_top" xlink:title=" ">
<polygon fill="white" stroke="black" points="3356,-6 3356,-25 3461,-25 3461,-6 3356,-6"/>
<text text-anchor="middle" x="3408.5" y="-13" font-family="Helvetica,sans-Serif" font-size="10.00">src/f/f_ap_game.cpp</text>
</a>
</g>
</g>
<!-- Node2&#45;&gt;Node29 -->
<g id="edge28" class="edge">
<title>Node2&#45;&gt;Node29</title>
<path fill="none" stroke="midnightblue" d="M3086.92,-70.25C3091.47,-69.07 3096.08,-67.95 3100.5,-67 3208.54,-43.84 3237.94,-51.6 3346.5,-31 3355.51,-29.29 3365.2,-27.16 3374.18,-25.07"/>
<polygon fill="midnightblue" stroke="midnightblue" points="3085.85,-66.92 3077.13,-72.93 3087.69,-73.67 3085.85,-66.92"/>
</g>
<!-- Node30 -->
<g id="node30" class="node">
<title>Node30</title>
<g id="a_node30"><a xlink:href="f__op__actor__tag_8cpp.html" target="_top" xlink:title=" ">
<polygon fill="white" stroke="black" points="3479,-0.5 3479,-30.5 3586,-30.5 3586,-0.5 3479,-0.5"/>
<text text-anchor="start" x="3487" y="-18.5" font-family="Helvetica,sans-Serif" font-size="10.00">src/f/f_op/f_op_actor</text>
<text text-anchor="middle" x="3532.5" y="-7.5" font-family="Helvetica,sans-Serif" font-size="10.00">_tag.cpp</text>
</a>
</g>
</g>
<!-- Node2&#45;&gt;Node30 -->
<g id="edge29" class="edge">
<title>Node2&#45;&gt;Node30</title>
<path fill="none" stroke="midnightblue" d="M3085.85,-70.31C3090.74,-69.05 3095.72,-67.9 3100.5,-67 3262.84,-36.28 3307.48,-57.87 3470.5,-31 3473.23,-30.55 3476.01,-30.05 3478.82,-29.51"/>
<polygon fill="midnightblue" stroke="midnightblue" points="3084.75,-66.98 3076.02,-72.98 3086.59,-73.73 3084.75,-66.98"/>
</g>
<!-- Node31 -->
<g id="node31" class="node">
<title>Node31</title>
<g id="a_node31"><a xlink:href="f__op__camera_8cpp.html" target="_top" xlink:title=" ">
<polygon fill="white" stroke="black" points="3604,-6 3604,-25 3739,-25 3739,-6 3604,-6"/>
<text text-anchor="middle" x="3671.5" y="-13" font-family="Helvetica,sans-Serif" font-size="10.00">src/f/f_op/f_op_camera.cpp</text>
</a>
</g>
</g>
<!-- Node2&#45;&gt;Node31 -->
<g id="edge30" class="edge">
<title>Node2&#45;&gt;Node31</title>
<path fill="none" stroke="midnightblue" d="M3085.66,-70.24C3090.61,-68.99 3095.66,-67.86 3100.5,-67 3317.72,-28.64 3376.8,-59.72 3595.5,-31 3607.22,-29.46 3619.86,-27.27 3631.41,-25.05"/>
<polygon fill="midnightblue" stroke="midnightblue" points="3084.47,-66.94 3075.73,-72.93 3086.3,-73.69 3084.47,-66.94"/>
</g>
<!-- Node32 -->
<g id="node32" class="node">
<title>Node32</title>
<g id="a_node32"><a xlink:href="f__op__camera__mng_8cpp.html" target="_top" xlink:title=" ">
<polygon fill="white" stroke="black" points="3757,-0.5 3757,-30.5 3874,-30.5 3874,-0.5 3757,-0.5"/>
<text text-anchor="start" x="3765" y="-18.5" font-family="Helvetica,sans-Serif" font-size="10.00">src/f/f_op/f_op_camera</text>
<text text-anchor="middle" x="3815.5" y="-7.5" font-family="Helvetica,sans-Serif" font-size="10.00">_mng.cpp</text>
</a>
</g>
</g>
<!-- Node2&#45;&gt;Node32 -->
<g id="edge31" class="edge">
<title>Node2&#45;&gt;Node32</title>
<path fill="none" stroke="midnightblue" d="M3084.92,-70.34C3090.1,-69.03 3095.41,-67.85 3100.5,-67 3384.97,-19.27 3462.65,-69.63 3748.5,-31 3751.21,-30.63 3753.98,-30.22 3756.77,-29.76"/>
<polygon fill="midnightblue" stroke="midnightblue" points="3083.92,-66.99 3075.19,-73 3085.76,-73.74 3083.92,-66.99"/>
</g>
<!-- Node33 -->
<g id="node33" class="node">
<title>Node33</title>
<g id="a_node33"><a xlink:href="f__op__draw__iter_8cpp.html" target="_top" xlink:title=" ">
<polygon fill="white" stroke="black" points="3892.5,-0.5 3892.5,-30.5 3998.5,-30.5 3998.5,-0.5 3892.5,-0.5"/>
<text text-anchor="start" x="3900.5" y="-18.5" font-family="Helvetica,sans-Serif" font-size="10.00">src/f/f_op/f_op_draw</text>
<text text-anchor="middle" x="3945.5" y="-7.5" font-family="Helvetica,sans-Serif" font-size="10.00">_iter.cpp</text>
</a>
</g>
</g>
<!-- Node2&#45;&gt;Node33 -->
<g id="edge32" class="edge">
<title>Node2&#45;&gt;Node33</title>
<path fill="none" stroke="midnightblue" d="M3084.91,-70.3C3090.1,-68.99 3095.41,-67.83 3100.5,-67 3444.34,-10.99 3538.44,-78.87 3883.5,-31 3886.35,-30.61 3889.25,-30.14 3892.18,-29.63"/>
<polygon fill="midnightblue" stroke="midnightblue" points="3083.91,-66.94 3075.18,-72.95 3085.75,-73.7 3083.91,-66.94"/>
</g>
<!-- Node34 -->
<g id="node34" class="node">
<title>Node34</title>
<g id="a_node34"><a xlink:href="f__op__draw__tag_8cpp.html" target="_top" xlink:title=" ">
<polygon fill="white" stroke="black" points="4016.5,-0.5 4016.5,-30.5 4122.5,-30.5 4122.5,-0.5 4016.5,-0.5"/>
<text text-anchor="start" x="4024.5" y="-18.5" font-family="Helvetica,sans-Serif" font-size="10.00">src/f/f_op/f_op_draw</text>
<text text-anchor="middle" x="4069.5" y="-7.5" font-family="Helvetica,sans-Serif" font-size="10.00">_tag.cpp</text>
</a>
</g>
</g>
<!-- Node2&#45;&gt;Node34 -->
<g id="edge33" class="edge">
<title>Node2&#45;&gt;Node34</title>
<path fill="none" stroke="midnightblue" d="M3084.74,-70.31C3089.98,-68.99 3095.35,-67.82 3100.5,-67 3498.88,-3.39 3607.73,-85.18 4007.5,-31 4010.35,-30.61 4013.26,-30.16 4016.19,-29.65"/>
<polygon fill="midnightblue" stroke="midnightblue" points="3083.64,-66.98 3074.92,-72.99 3085.49,-73.74 3083.64,-66.98"/>
</g>
<!-- Node35 -->
<g id="node35" class="node">
<title>Node35</title>
<g id="a_node35"><a xlink:href="f__op__kankyo_8cpp.html" target="_top" xlink:title=" ">
<polygon fill="white" stroke="black" points="4140.5,-6 4140.5,-25 4274.5,-25 4274.5,-6 4140.5,-6"/>
<text text-anchor="middle" x="4207.5" y="-13" font-family="Helvetica,sans-Serif" font-size="10.00">src/f/f_op/f_op_kankyo.cpp</text>
</a>
</g>
</g>
<!-- Node2&#45;&gt;Node35 -->
<g id="edge34" class="edge">
<title>Node2&#45;&gt;Node35</title>
<path fill="none" stroke="midnightblue" d="M3084.74,-70.29C3089.98,-68.97 3095.35,-67.81 3100.5,-67 3553.44,4.22 3675.86,-82.11 4131.5,-31 4143.78,-29.62 4157.05,-27.36 4169.01,-25.03"/>
<polygon fill="midnightblue" stroke="midnightblue" points="3083.64,-66.96 3074.91,-72.97 3085.48,-73.72 3083.64,-66.96"/>
</g>
<!-- Node36 -->
<g id="node36" class="node">
<title>Node36</title>
<g id="a_node36"><a xlink:href="f__op__kankyo__mng_8cpp.html" target="_top" xlink:title=" ">
<polygon fill="white" stroke="black" points="4292.5,-0.5 4292.5,-30.5 4408.5,-30.5 4408.5,-0.5 4292.5,-0.5"/>
<text text-anchor="start" x="4300.5" y="-18.5" font-family="Helvetica,sans-Serif" font-size="10.00">src/f/f_op/f_op_kankyo</text>
<text text-anchor="middle" x="4350.5" y="-7.5" font-family="Helvetica,sans-Serif" font-size="10.00">_mng.cpp</text>
</a>
</g>
</g>
<!-- Node2&#45;&gt;Node36 -->
<g id="edge35" class="edge">
<title>Node2&#45;&gt;Node36</title>
<path fill="none" stroke="midnightblue" d="M3084.73,-70.27C3089.97,-68.95 3095.34,-67.8 3100.5,-67 3620.32,13.54 3761.37,-94.9 4283.5,-31 4286.34,-30.65 4289.23,-30.24 4292.14,-29.79"/>
<polygon fill="midnightblue" stroke="midnightblue" points="3083.64,-66.94 3074.91,-72.94 3085.48,-73.69 3083.64,-66.94"/>
</g>
<!-- Node37 -->
<g id="node37" class="node">
<title>Node37</title>
<g id="a_node37"><a xlink:href="f__op__msg_8cpp.html" target="_top" xlink:title=" ">
<polygon fill="white" stroke="black" points="4426.5,-6 4426.5,-25 4548.5,-25 4548.5,-6 4426.5,-6"/>
<text text-anchor="middle" x="4487.5" y="-13" font-family="Helvetica,sans-Serif" font-size="10.00">src/f/f_op/f_op_msg.cpp</text>
</a>
</g>
</g>
<!-- Node2&#45;&gt;Node37 -->
<g id="edge36" class="edge">
<title>Node2&#45;&gt;Node37</title>
<path fill="none" stroke="midnightblue" d="M3084.73,-70.26C3089.97,-68.94 3095.34,-67.79 3100.5,-67 3679.29,21.76 3835.87,-98.65 4417.5,-31 4428.96,-29.67 4441.34,-27.39 4452.45,-25.03"/>
<polygon fill="midnightblue" stroke="midnightblue" points="3083.64,-66.93 3074.91,-72.93 3085.47,-73.68 3083.64,-66.93"/>
</g>
<!-- Node38 -->
<g id="node38" class="node">
<title>Node38</title>
<g id="a_node38"><a xlink:href="f__op__msg__mng_8cpp.html" target="_top" xlink:title=" ">
<polygon fill="white" stroke="black" points="4566.5,-0.5 4566.5,-30.5 4670.5,-30.5 4670.5,-0.5 4566.5,-0.5"/>
<text text-anchor="start" x="4574.5" y="-18.5" font-family="Helvetica,sans-Serif" font-size="10.00">src/f/f_op/f_op_msg</text>
<text text-anchor="middle" x="4618.5" y="-7.5" font-family="Helvetica,sans-Serif" font-size="10.00">_mng.cpp</text>
</a>
</g>
</g>
<!-- Node2&#45;&gt;Node38 -->
<g id="edge37" class="edge">
<title>Node2&#45;&gt;Node38</title>
<path fill="none" stroke="midnightblue" d="M3084.56,-70.29C3089.85,-68.96 3095.29,-67.79 3100.5,-67 3740.9,30.35 3915.13,-114.35 4557.5,-31 4560.41,-30.62 4563.39,-30.16 4566.39,-29.64"/>
<polygon fill="midnightblue" stroke="midnightblue" points="3083.37,-66.98 3074.64,-72.99 3085.21,-73.73 3083.37,-66.98"/>
</g>
<!-- Node39 -->
<g id="node39" class="node">
<title>Node39</title>
<g id="a_node39"><a xlink:href="f__op__overlap_8cpp.html" target="_top" xlink:title=" ">
<polygon fill="white" stroke="black" points="4688.5,-6 4688.5,-25 4822.5,-25 4822.5,-6 4688.5,-6"/>
<text text-anchor="middle" x="4755.5" y="-13" font-family="Helvetica,sans-Serif" font-size="10.00">src/f/f_op/f_op_overlap.cpp</text>
</a>
</g>
</g>
<!-- Node2&#45;&gt;Node39 -->
<g id="edge38" class="edge">
<title>Node2&#45;&gt;Node39</title>
<path fill="none" stroke="midnightblue" d="M3084.56,-70.28C3089.85,-68.95 3095.29,-67.79 3100.5,-67 3447.54,-14.58 4330.48,-68.02 4679.5,-31 4691.92,-29.68 4705.35,-27.41 4717.41,-25.05"/>
<polygon fill="midnightblue" stroke="midnightblue" points="3083.37,-66.97 3074.64,-72.98 3085.21,-73.73 3083.37,-66.97"/>
</g>
<!-- Node40 -->
<g id="node40" class="node">
<title>Node40</title>
<g id="a_node40"><a xlink:href="f__op__overlap__mng_8cpp.html" target="_top" xlink:title=" ">
<polygon fill="white" stroke="black" points="4840.5,-0.5 4840.5,-30.5 4956.5,-30.5 4956.5,-0.5 4840.5,-0.5"/>
<text text-anchor="start" x="4848.5" y="-18.5" font-family="Helvetica,sans-Serif" font-size="10.00">src/f/f_op/f_op_overlap</text>
<text text-anchor="middle" x="4898.5" y="-7.5" font-family="Helvetica,sans-Serif" font-size="10.00">_mng.cpp</text>
</a>
</g>
</g>
<!-- Node2&#45;&gt;Node40 -->
<g id="edge39" class="edge">
<title>Node2&#45;&gt;Node40</title>
<path fill="none" stroke="midnightblue" d="M3084.56,-70.27C3089.85,-68.94 3095.29,-67.78 3100.5,-67 3480.99,-9.92 4449.38,-75.9 4831.5,-31 4834.34,-30.67 4837.23,-30.27 4840.15,-29.82"/>
<polygon fill="midnightblue" stroke="midnightblue" points="3083.37,-66.96 3074.64,-72.97 3085.21,-73.72 3083.37,-66.96"/>
</g>
<!-- Node41 -->
<g id="node41" class="node">
<title>Node41</title>
<g id="a_node41"><a xlink:href="f__op__scene_8cpp.html" target="_top" xlink:title=" ">
<polygon fill="white" stroke="black" points="4975,-6 4975,-25 5104,-25 5104,-6 4975,-6"/>
<text text-anchor="middle" x="5039.5" y="-13" font-family="Helvetica,sans-Serif" font-size="10.00">src/f/f_op/f_op_scene.cpp</text>
</a>
</g>
</g>
<!-- Node2&#45;&gt;Node41 -->
<g id="edge40" class="edge">
<title>Node2&#45;&gt;Node41</title>
<path fill="none" stroke="midnightblue" d="M3084.56,-70.26C3089.85,-68.93 3095.28,-67.78 3100.5,-67 3510.48,-5.81 4553.32,-75.02 4965.5,-31 4977.74,-29.69 4990.96,-27.39 5002.8,-25"/>
<polygon fill="midnightblue" stroke="midnightblue" points="3083.37,-66.96 3074.64,-72.96 3085.21,-73.71 3083.37,-66.96"/>
</g>
<!-- Node42 -->
<g id="node42" class="node">
<title>Node42</title>
<g id="a_node42"><a xlink:href="f__op__overlap__req_8cpp.html" target="_top" xlink:title=" ">
<polygon fill="white" stroke="black" points="5122.5,-0.5 5122.5,-30.5 5238.5,-30.5 5238.5,-0.5 5122.5,-0.5"/>
<text text-anchor="start" x="5130.5" y="-18.5" font-family="Helvetica,sans-Serif" font-size="10.00">src/f/f_op/f_op_overlap</text>
<text text-anchor="middle" x="5180.5" y="-7.5" font-family="Helvetica,sans-Serif" font-size="10.00">_req.cpp</text>
</a>
</g>
</g>
<!-- Node2&#45;&gt;Node42 -->
<g id="edge41" class="edge">
<title>Node2&#45;&gt;Node42</title>
<path fill="none" stroke="midnightblue" d="M3084.55,-70.25C3089.85,-68.93 3095.28,-67.77 3100.5,-67 3543.05,-1.27 4669.08,-82.56 5113.5,-31 5116.34,-30.67 5119.23,-30.28 5122.15,-29.83"/>
<polygon fill="midnightblue" stroke="midnightblue" points="3083.37,-66.95 3074.64,-72.96 3085.21,-73.7 3083.37,-66.95"/>
</g>
<!-- Node43 -->
<g id="node43" class="node">
<title>Node43</title>
<g id="a_node43"><a xlink:href="f__op__scene__iter_8cpp.html" target="_top" xlink:title=" ">
<polygon fill="white" stroke="black" points="5257,-0.5 5257,-30.5 5368,-30.5 5368,-0.5 5257,-0.5"/>
<text text-anchor="start" x="5265" y="-18.5" font-family="Helvetica,sans-Serif" font-size="10.00">src/f/f_op/f_op_scene</text>
<text text-anchor="middle" x="5312.5" y="-7.5" font-family="Helvetica,sans-Serif" font-size="10.00">_iter.cpp</text>
</a>
</g>
</g>
<!-- Node2&#45;&gt;Node43 -->
<g id="edge42" class="edge">
<title>Node2&#45;&gt;Node43</title>
<path fill="none" stroke="midnightblue" d="M3084.55,-70.25C3089.85,-68.92 3095.28,-67.77 3100.5,-67 3572.54,2.84 4773.65,-87.24 5247.5,-31 5250.6,-30.63 5253.77,-30.18 5256.96,-29.67"/>
<polygon fill="midnightblue" stroke="midnightblue" points="3083.37,-66.94 3074.64,-72.95 3085.21,-73.7 3083.37,-66.94"/>
</g>
<!-- Node44 -->
<g id="node44" class="node">
<title>Node44</title>
<g id="a_node44"><a xlink:href="f__op__scene__pause_8cpp.html" target="_top" xlink:title=" ">
<polygon fill="white" stroke="black" points="5386,-0.5 5386,-30.5 5497,-30.5 5497,-0.5 5386,-0.5"/>
<text text-anchor="start" x="5394" y="-18.5" font-family="Helvetica,sans-Serif" font-size="10.00">src/f/f_op/f_op_scene</text>
<text text-anchor="middle" x="5441.5" y="-7.5" font-family="Helvetica,sans-Serif" font-size="10.00">_pause.cpp</text>
</a>
</g>
</g>
<!-- Node2&#45;&gt;Node44 -->
<g id="edge43" class="edge">
<title>Node2&#45;&gt;Node44</title>
<path fill="none" stroke="midnightblue" d="M3084.55,-70.24C3089.85,-68.92 3095.28,-67.77 3100.5,-67 3601.15,6.83 4875.03,-91.23 5377.5,-31 5380.21,-30.67 5382.98,-30.28 5385.77,-29.84"/>
<polygon fill="midnightblue" stroke="midnightblue" points="3083.37,-66.94 3074.64,-72.95 3085.21,-73.69 3083.37,-66.94"/>
</g>
<!-- Node45 -->
<g id="node45" class="node">
<title>Node45</title>
<g id="a_node45"><a xlink:href="f__op__scene__mng_8cpp.html" target="_top" xlink:title=" ">
<polygon fill="white" stroke="black" points="5515,-0.5 5515,-30.5 5626,-30.5 5626,-0.5 5515,-0.5"/>
<text text-anchor="start" x="5523" y="-18.5" font-family="Helvetica,sans-Serif" font-size="10.00">src/f/f_op/f_op_scene</text>
<text text-anchor="middle" x="5570.5" y="-7.5" font-family="Helvetica,sans-Serif" font-size="10.00">_mng.cpp</text>
</a>
</g>
</g>
<!-- Node2&#45;&gt;Node45 -->
<g id="edge44" class="edge">
<title>Node2&#45;&gt;Node45</title>
<path fill="none" stroke="midnightblue" d="M3084.55,-70.24C3089.85,-68.92 3095.28,-67.77 3100.5,-67 3629.54,10.78 4975.55,-94.42 5506.5,-31 5509.21,-30.68 5511.98,-30.28 5514.77,-29.84"/>
<polygon fill="midnightblue" stroke="midnightblue" points="3083.36,-66.94 3074.64,-72.94 3085.21,-73.69 3083.36,-66.94"/>
</g>
<!-- Node46 -->
<g id="node46" class="node">
<title>Node46</title>
<g id="a_node46"><a xlink:href="f__op__scene__tag_8cpp.html" target="_top" xlink:title=" ">
<polygon fill="white" stroke="black" points="5644,-0.5 5644,-30.5 5755,-30.5 5755,-0.5 5644,-0.5"/>
<text text-anchor="start" x="5652" y="-18.5" font-family="Helvetica,sans-Serif" font-size="10.00">src/f/f_op/f_op_scene</text>
<text text-anchor="middle" x="5699.5" y="-7.5" font-family="Helvetica,sans-Serif" font-size="10.00">_tag.cpp</text>
</a>
</g>
</g>
<!-- Node2&#45;&gt;Node46 -->
<g id="edge45" class="edge">
<title>Node2&#45;&gt;Node46</title>
<path fill="none" stroke="midnightblue" d="M3084.55,-70.24C3089.85,-68.91 3095.28,-67.77 3100.5,-67 3657.93,14.74 5076.06,-97.61 5635.5,-31 5638.22,-30.68 5640.98,-30.29 5643.77,-29.85"/>
<polygon fill="midnightblue" stroke="midnightblue" points="3083.36,-66.93 3074.64,-72.94 3085.2,-73.69 3083.36,-66.93"/>
</g>
<!-- Node47 -->
<g id="node47" class="node">
<title>Node47</title>
<g id="a_node47"><a xlink:href="f__op__scene__req_8cpp.html" target="_top" xlink:title=" ">
<polygon fill="white" stroke="black" points="5773,-0.5 5773,-30.5 5884,-30.5 5884,-0.5 5773,-0.5"/>
<text text-anchor="start" x="5781" y="-18.5" font-family="Helvetica,sans-Serif" font-size="10.00">src/f/f_op/f_op_scene</text>
<text text-anchor="middle" x="5828.5" y="-7.5" font-family="Helvetica,sans-Serif" font-size="10.00">_req.cpp</text>
</a>
</g>
</g>
<!-- Node2&#45;&gt;Node47 -->
<g id="edge46" class="edge">
<title>Node2&#45;&gt;Node47</title>
<path fill="none" stroke="midnightblue" d="M3084.55,-70.23C3089.85,-68.91 3095.28,-67.76 3100.5,-67 3686.32,18.7 5176.57,-100.79 5764.5,-31 5767.22,-30.68 5769.98,-30.29 5772.77,-29.85"/>
<polygon fill="midnightblue" stroke="midnightblue" points="3083.36,-66.93 3074.64,-72.93 3085.2,-73.68 3083.36,-66.93"/>
</g>
<!-- Node48 -->
<g id="node48" class="node">
<title>Node48</title>
<g id="a_node48"><a xlink:href="f__op__view_8cpp.html" target="_top" xlink:title=" ">
<polygon fill="white" stroke="black" points="5902,-6 5902,-25 6025,-25 6025,-6 5902,-6"/>
<text text-anchor="middle" x="5963.5" y="-13" font-family="Helvetica,sans-Serif" font-size="10.00">src/f/f_op/f_op_view.cpp</text>
</a>
</g>
</g>
<!-- Node2&#45;&gt;Node48 -->
<g id="edge47" class="edge">
<title>Node2&#45;&gt;Node48</title>
<path fill="none" stroke="midnightblue" d="M3084.55,-70.23C3089.85,-68.91 3095.28,-67.76 3100.5,-67 3714.71,22.66 5276.44,-98.26 5893.5,-31 5905.1,-29.74 5917.62,-27.45 5928.82,-25.05"/>
<polygon fill="midnightblue" stroke="midnightblue" points="3083.36,-66.93 3074.64,-72.93 3085.2,-73.68 3083.36,-66.93"/>
</g>
<!-- Node49 -->
<g id="node49" class="node">
<title>Node49</title>
<g id="a_node49"><a xlink:href="f__pc__line_8cpp.html" target="_top" xlink:title=" ">
<polygon fill="white" stroke="black" points="6043.5,-6 6043.5,-25 6161.5,-25 6161.5,-6 6043.5,-6"/>
<text text-anchor="middle" x="6102.5" y="-13" font-family="Helvetica,sans-Serif" font-size="10.00">src/f/f_pc/f_pc_line.cpp</text>
</a>
</g>
</g>
<!-- Node2&#45;&gt;Node49 -->
<g id="edge48" class="edge">
<title>Node2&#45;&gt;Node49</title>
<path fill="none" stroke="midnightblue" d="M3084.55,-70.23C3089.85,-68.91 3095.28,-67.76 3100.5,-67 3745.74,26.98 5386.48,-103.34 6034.5,-31 6045.78,-29.74 6057.94,-27.45 6068.82,-25.06"/>
<polygon fill="midnightblue" stroke="midnightblue" points="3083.36,-66.92 3074.63,-72.93 3085.2,-73.68 3083.36,-66.92"/>
</g>
</g>
</svg>
