<?xml version="1.0" encoding="UTF-8" standalone="no"?>
<!DOCTYPE svg PUBLIC "-//W3C//DTD SVG 1.1//EN"
 "http://www.w3.org/Graphics/SVG/1.1/DTD/svg11.dtd">
<!-- Generated by graphviz version 2.46.0 (20210122.1329)
 -->
<!-- Title: libs/JSystem/JGadget/binary.cpp Pages: 1 -->
<!--zoomable 486 -->
<svg id="main" version="1.1" xmlns="http://www.w3.org/2000/svg" xmlns:xlink="http://www.w3.org/1999/xlink" xml:space="preserve" onload="init(evt)">
<style type="text/css"><![CDATA[
.edge:hover path { stroke: red; }
.edge:hover polygon { stroke: red; fill: red; }
]]></style>
<script type="text/javascript"><![CDATA[
var edges = document.getElementsByTagName('g');
if (edges && edges.length) {
  for (var i=0;i<edges.length;i++) {
    if (edges[i].id.substr(0,4)=='edge') {
      edges[i].setAttribute('class','edge');
    }
  }
}
]]></script>
        <defs>
                <circle id="rim" cx="0" cy="0" r="7"/>
                <circle id="rim2" cx="0" cy="0" r="3.5"/>
                <g id="zoomPlus">
                        <use xlink:href="#rim" fill="#404040">
                                <set attributeName="fill" to="#808080" begin="zoomplus.mouseover" end="zoomplus.mouseout"/>
                        </use>
                        <path d="M-4,0h8M0,-4v8" fill="none" stroke="white" stroke-width="1.5" pointer-events="none"/>
                </g>
                <g id="zoomMin">
                        <use xlink:href="#rim" fill="#404040">
                                <set attributeName="fill" to="#808080" begin="zoomminus.mouseover" end="zoomminus.mouseout"/>
                        </use>
                        <path d="M-4,0h8" fill="none" stroke="white" stroke-width="1.5" pointer-events="none"/>
                </g>
                <g id="dirArrow">
                        <path fill="none" stroke="white" stroke-width="1.5" d="M0,-3.0v7 M-2.5,-0.5L0,-3.0L2.5,-0.5"/>
                </g>
               <g id="resetDef">
                       <use xlink:href="#rim2" fill="#404040">
                               <set attributeName="fill" to="#808080" begin="reset.mouseover" end="reset.mouseout"/>
                       </use>
               </g>
        </defs>

<script type="text/javascript">
var viewWidth = 908;
var viewHeight = 486;
var sectionId = 'dynsection-0';
</script>
<script xlink:href="svgpan.js"/>
<svg id="graph" class="graph">
<g id="viewport">
<title>libs/JSystem/JGadget/binary.cpp</title>
<polygon fill="white" stroke="transparent" points="-4,4 -4,-482 903.5,-482 903.5,4 -4,4"/>
<!-- Node1 -->
<g id="node1" class="node">
<title>Node1</title>
<g id="a_node1"><a xlink:title=" ">
<polygon fill="#bfbfbf" stroke="black" points="600,-447.5 600,-477.5 713,-477.5 713,-447.5 600,-447.5"/>
<text text-anchor="start" x="608" y="-465.5" font-family="Helvetica,sans-Serif" font-size="10.00">libs/JSystem/JGadget</text>
<text text-anchor="middle" x="656.5" y="-454.5" font-family="Helvetica,sans-Serif" font-size="10.00">/binary.cpp</text>
</a>
</g>
</g>
<!-- Node2 -->
<g id="node2" class="node">
<title>Node2</title>
<g id="a_node2"><a xlink:href="binary_8h.html" target="_top" xlink:title=" ">
<polygon fill="white" stroke="black" points="0,-263 0,-282 131,-282 131,-263 0,-263"/>
<text text-anchor="middle" x="65.5" y="-270" font-family="Helvetica,sans-Serif" font-size="10.00">JSystem/JGadget/binary.h</text>
</a>
</g>
</g>
<!-- Node1&#45;&gt;Node2 -->
<g id="edge1" class="edge">
<title>Node1&#45;&gt;Node2</title>
<path fill="none" stroke="midnightblue" d="M599.69,-455.36C505.27,-443.57 311.68,-412.6 162.5,-344 131.5,-329.74 100.43,-304.85 82.09,-288.77"/>
<polygon fill="midnightblue" stroke="midnightblue" points="84.4,-286.14 74.61,-282.08 79.73,-291.36 84.4,-286.14"/>
</g>
<!-- Node4 -->
<g id="node4" class="node">
<title>Node4</title>
<g id="a_node4"><a xlink:href="global_8h.html" target="_top" xlink:title=" ">
<polygon fill="white" stroke="black" points="581.5,-386 581.5,-405 631.5,-405 631.5,-386 581.5,-386"/>
<text text-anchor="middle" x="606.5" y="-393" font-family="Helvetica,sans-Serif" font-size="10.00">global.h</text>
</a>
</g>
</g>
<!-- Node1&#45;&gt;Node4 -->
<g id="edge3" class="edge">
<title>Node1&#45;&gt;Node4</title>
<path fill="none" stroke="midnightblue" d="M645.65,-447.4C637.93,-437.36 627.53,-423.84 619.39,-413.25"/>
<polygon fill="midnightblue" stroke="midnightblue" points="622.06,-410.99 613.19,-405.19 616.51,-415.25 622.06,-410.99"/>
</g>
<!-- Node19 -->
<g id="node19" class="node">
<title>Node19</title>
<g id="a_node19"><a xlink:title=" ">
<polygon fill="white" stroke="#bfbfbf" points="649.5,-380.5 649.5,-410.5 765.5,-410.5 765.5,-380.5 649.5,-380.5"/>
<text text-anchor="start" x="657.5" y="-398.5" font-family="Helvetica,sans-Serif" font-size="10.00">JSystem/JGadget/asm</text>
<text text-anchor="middle" x="707.5" y="-387.5" font-family="Helvetica,sans-Serif" font-size="10.00">/func_802DC864.s</text>
</a>
</g>
</g>
<!-- Node1&#45;&gt;Node19 -->
<g id="edge33" class="edge">
<title>Node1&#45;&gt;Node19</title>
<path fill="none" stroke="midnightblue" d="M667.57,-447.4C674.18,-438.96 682.73,-428.07 690.22,-418.52"/>
<polygon fill="midnightblue" stroke="midnightblue" points="693.04,-420.6 696.46,-410.58 687.53,-416.28 693.04,-420.6"/>
</g>
<!-- Node20 -->
<g id="node20" class="node">
<title>Node20</title>
<g id="a_node20"><a xlink:title=" ">
<polygon fill="white" stroke="#bfbfbf" points="783.5,-380.5 783.5,-410.5 899.5,-410.5 899.5,-380.5 783.5,-380.5"/>
<text text-anchor="start" x="791.5" y="-398.5" font-family="Helvetica,sans-Serif" font-size="10.00">JSystem/JGadget/asm</text>
<text text-anchor="middle" x="841.5" y="-387.5" font-family="Helvetica,sans-Serif" font-size="10.00">/func_802DC910.s</text>
</a>
</g>
</g>
<!-- Node1&#45;&gt;Node20 -->
<g id="edge34" class="edge">
<title>Node1&#45;&gt;Node20</title>
<path fill="none" stroke="midnightblue" d="M696.64,-447.4C724.52,-437.6 761.86,-424.48 791.65,-414.02"/>
<polygon fill="midnightblue" stroke="midnightblue" points="793.16,-417.19 801.44,-410.58 790.84,-410.59 793.16,-417.19"/>
</g>
<!-- Node3 -->
<g id="node3" class="node">
<title>Node3</title>
<g id="a_node3"><a xlink:href="types_8h.html" target="_top" xlink:title=" ">
<polygon fill="white" stroke="black" points="362,-0.5 362,-19.5 443,-19.5 443,-0.5 362,-0.5"/>
<text text-anchor="middle" x="402.5" y="-7.5" font-family="Helvetica,sans-Serif" font-size="10.00">dolphin/types.h</text>
</a>
</g>
</g>
<!-- Node2&#45;&gt;Node3 -->
<g id="edge2" class="edge">
<title>Node2&#45;&gt;Node3</title>
<path fill="none" stroke="midnightblue" d="M62.66,-262.62C52.83,-230.05 23.87,-115.88 79.5,-56 115.39,-17.37 270.08,-11.13 351.67,-10.6"/>
<polygon fill="midnightblue" stroke="midnightblue" points="351.73,-14.1 361.72,-10.56 351.71,-7.1 351.73,-14.1"/>
</g>
<!-- Node4&#45;&gt;Node3 -->
<g id="edge4" class="edge">
<title>Node4&#45;&gt;Node3</title>
<path fill="none" stroke="midnightblue" d="M623,-385.88C643.52,-374.84 676.78,-355.72 684.5,-344 722.51,-286.32 736.58,-251.69 705.5,-190 655.28,-90.34 522.47,-41.77 450.49,-22.12"/>
<polygon fill="midnightblue" stroke="midnightblue" points="451.32,-18.72 440.75,-19.53 449.52,-25.48 451.32,-18.72"/>
</g>
<!-- Node5 -->
<g id="node5" class="node">
<title>Node5</title>
<g id="a_node5"><a xlink:href="AR_8h.html" target="_top" xlink:title=" ">
<polygon fill="white" stroke="black" points="738,-129 738,-148 787,-148 787,-129 738,-129"/>
<text text-anchor="middle" x="762.5" y="-136" font-family="Helvetica,sans-Serif" font-size="10.00">ar/AR.h</text>
</a>
</g>
</g>
<!-- Node4&#45;&gt;Node5 -->
<g id="edge5" class="edge">
<title>Node4&#45;&gt;Node5</title>
<path fill="none" stroke="midnightblue" d="M626.21,-385.89C630.87,-383.91 635.85,-381.85 640.5,-380 683.63,-362.89 709.77,-380.43 738.5,-344 782.22,-288.56 772.77,-196.94 766.16,-157.97"/>
<polygon fill="midnightblue" stroke="midnightblue" points="769.59,-157.26 764.34,-148.05 762.7,-158.52 769.59,-157.26"/>
</g>
<!-- Node6 -->
<g id="node6" class="node">
<title>Node6</title>
<g id="a_node6"><a xlink:href="ARQ_8h.html" target="_top" xlink:title=" ">
<polygon fill="white" stroke="black" points="784.5,-62 784.5,-81 840.5,-81 840.5,-62 784.5,-62"/>
<text text-anchor="middle" x="812.5" y="-69" font-family="Helvetica,sans-Serif" font-size="10.00">ar/ARQ.h</text>
</a>
</g>
</g>
<!-- Node4&#45;&gt;Node6 -->
<g id="edge7" class="edge">
<title>Node4&#45;&gt;Node6</title>
<path fill="none" stroke="midnightblue" d="M625.78,-385.86C630.55,-383.84 635.68,-381.76 640.5,-380 726,-348.71 815.5,-364.55 815.5,-273.5 815.5,-273.5 815.5,-273.5 815.5,-204.5 815.5,-164.15 814.08,-116.87 813.2,-91.28"/>
<polygon fill="midnightblue" stroke="midnightblue" points="816.69,-91.02 812.83,-81.15 809.69,-91.27 816.69,-91.02"/>
</g>
<!-- Node7 -->
<g id="node7" class="node">
<title>Node7</title>
<g id="a_node7"><a xlink:href="mwcc_8h.html" target="_top" xlink:title=" ">
<polygon fill="white" stroke="black" points="608.5,-324.5 608.5,-343.5 658.5,-343.5 658.5,-324.5 608.5,-324.5"/>
<text text-anchor="middle" x="633.5" y="-331.5" font-family="Helvetica,sans-Serif" font-size="10.00">mwcc.h</text>
</a>
</g>
</g>
<!-- Node4&#45;&gt;Node7 -->
<g id="edge9" class="edge">
<title>Node4&#45;&gt;Node7</title>
<path fill="none" stroke="midnightblue" d="M610.37,-385.98C614.3,-377.32 620.5,-363.65 625.49,-352.65"/>
<polygon fill="midnightblue" stroke="midnightblue" points="628.69,-354.06 629.64,-343.51 622.32,-351.17 628.69,-354.06"/>
</g>
<!-- Node8 -->
<g id="node8" class="node">
<title>Node8</title>
<g id="a_node8"><a xlink:href="OS_8h.html" target="_top" xlink:title=" ">
<polygon fill="white" stroke="black" points="92.5,-129 92.5,-148 144.5,-148 144.5,-129 92.5,-129"/>
<text text-anchor="middle" x="118.5" y="-136" font-family="Helvetica,sans-Serif" font-size="10.00">os/OS.h</text>
</a>
</g>
</g>
<!-- Node4&#45;&gt;Node8 -->
<g id="edge10" class="edge">
<title>Node4&#45;&gt;Node8</title>
<path fill="none" stroke="midnightblue" d="M581.28,-390.25C543.57,-383.39 470.68,-368.14 412.5,-344 312.95,-302.69 289.42,-286.07 203.5,-221 176.75,-200.74 149.36,-172.96 133.15,-155.62"/>
<polygon fill="midnightblue" stroke="midnightblue" points="135.49,-153.01 126.14,-148.03 130.35,-157.76 135.49,-153.01"/>
</g>
<!-- Node10 -->
<g id="node10" class="node">
<title>Node10</title>
<g id="a_node10"><a xlink:href="variables_8h.html" target="_top" xlink:title=" ">
<polygon fill="white" stroke="black" points="464,-324.5 464,-343.5 527,-343.5 527,-324.5 464,-324.5"/>
<text text-anchor="middle" x="495.5" y="-331.5" font-family="Helvetica,sans-Serif" font-size="10.00">variables.h</text>
</a>
</g>
</g>
<!-- Node4&#45;&gt;Node10 -->
<g id="edge14" class="edge">
<title>Node4&#45;&gt;Node10</title>
<path fill="none" stroke="midnightblue" d="M590.6,-385.98C572.22,-376.12 541.74,-359.79 520.26,-348.27"/>
<polygon fill="midnightblue" stroke="midnightblue" points="521.84,-345.15 511.37,-343.51 518.53,-351.32 521.84,-345.15"/>
</g>
<!-- Node5&#45;&gt;Node3 -->
<g id="edge6" class="edge">
<title>Node5&#45;&gt;Node3</title>
<path fill="none" stroke="midnightblue" d="M761.12,-128.9C757.89,-111.9 748.18,-74.07 723.5,-56 681.56,-25.3 533.04,-15.48 453.56,-12.38"/>
<polygon fill="midnightblue" stroke="midnightblue" points="453.41,-8.88 443.29,-12.01 453.16,-15.87 453.41,-8.88"/>
</g>
<!-- Node6&#45;&gt;Node3 -->
<g id="edge8" class="edge">
<title>Node6&#45;&gt;Node3</title>
<path fill="none" stroke="midnightblue" d="M788.91,-61.97C782.07,-59.76 774.55,-57.56 767.5,-56 656.82,-31.58 524.13,-19.39 453.17,-14.21"/>
<polygon fill="midnightblue" stroke="midnightblue" points="453.38,-10.71 443.16,-13.49 452.89,-17.7 453.38,-10.71"/>
</g>
<!-- Node8&#45;&gt;Node3 -->
<g id="edge11" class="edge">
<title>Node8&#45;&gt;Node3</title>
<path fill="none" stroke="midnightblue" d="M124.59,-128.76C136.86,-111.86 166.34,-74.69 200.5,-56 247.81,-30.1 309.1,-19.11 351.7,-14.44"/>
<polygon fill="midnightblue" stroke="midnightblue" points="352.25,-17.9 361.84,-13.41 351.54,-10.94 352.25,-17.9"/>
</g>
<!-- Node9 -->
<g id="node9" class="node">
<title>Node9</title>
<g id="a_node9"><a xlink:href="dvd_8h.html" target="_top" xlink:title=" ">
<polygon fill="white" stroke="black" points="89,-62 89,-81 148,-81 148,-62 89,-62"/>
<text text-anchor="middle" x="118.5" y="-69" font-family="Helvetica,sans-Serif" font-size="10.00">dvd/dvd.h</text>
</a>
</g>
</g>
<!-- Node8&#45;&gt;Node9 -->
<g id="edge12" class="edge">
<title>Node8&#45;&gt;Node9</title>
<path fill="none" stroke="midnightblue" d="M118.5,-128.73C118.5,-119.18 118.5,-103.62 118.5,-91.28"/>
<polygon fill="midnightblue" stroke="midnightblue" points="122,-91.13 118.5,-81.13 115,-91.13 122,-91.13"/>
</g>
<!-- Node9&#45;&gt;Node3 -->
<g id="edge13" class="edge">
<title>Node9&#45;&gt;Node3</title>
<path fill="none" stroke="midnightblue" d="M142.54,-61.94C148.97,-59.82 155.96,-57.68 162.5,-56 227.08,-39.38 302.92,-26.2 351.79,-18.5"/>
<polygon fill="midnightblue" stroke="midnightblue" points="352.46,-21.94 361.8,-16.94 351.38,-15.02 352.46,-21.94"/>
</g>
<!-- Node11 -->
<g id="node11" class="node">
<title>Node11</title>
<g id="a_node11"><a xlink:href="JSUList_8h.html" target="_top" xlink:title=" ">
<polygon fill="white" stroke="black" points="286.5,-56.5 286.5,-86.5 422.5,-86.5 422.5,-56.5 286.5,-56.5"/>
<text text-anchor="start" x="294.5" y="-74.5" font-family="Helvetica,sans-Serif" font-size="10.00">JSystem/JSupport/JSUList</text>
<text text-anchor="middle" x="354.5" y="-63.5" font-family="Helvetica,sans-Serif" font-size="10.00">/JSUList.h</text>
</a>
</g>
</g>
<!-- Node10&#45;&gt;Node11 -->
<g id="edge15" class="edge">
<title>Node10&#45;&gt;Node11</title>
<path fill="none" stroke="midnightblue" d="M463.62,-325.97C442.31,-319.61 415.37,-308.07 399.5,-288 387.63,-273 366.8,-149.66 358.29,-96.61"/>
<polygon fill="midnightblue" stroke="midnightblue" points="361.74,-96.03 356.71,-86.7 354.83,-97.13 361.74,-96.03"/>
</g>
<!-- Node12 -->
<g id="node12" class="node">
<title>Node12</title>
<g id="a_node12"><a xlink:href="JUTXfb_8h.html" target="_top" xlink:title=" ">
<polygon fill="white" stroke="black" points="408,-257.5 408,-287.5 533,-287.5 533,-257.5 408,-257.5"/>
<text text-anchor="start" x="416" y="-275.5" font-family="Helvetica,sans-Serif" font-size="10.00">JSystem/JUtility/JUTXfb</text>
<text text-anchor="middle" x="470.5" y="-264.5" font-family="Helvetica,sans-Serif" font-size="10.00">/JUTXfb.h</text>
</a>
</g>
</g>
<!-- Node10&#45;&gt;Node12 -->
<g id="edge17" class="edge">
<title>Node10&#45;&gt;Node12</title>
<path fill="none" stroke="midnightblue" d="M491.92,-324.48C488.88,-317.25 484.38,-306.53 480.28,-296.78"/>
<polygon fill="midnightblue" stroke="midnightblue" points="483.49,-295.39 476.39,-287.52 477.04,-298.1 483.49,-295.39"/>
</g>
<!-- Node16 -->
<g id="node16" class="node">
<title>Node16</title>
<g id="a_node16"><a xlink:href="c__xyz_8h.html" target="_top" xlink:title=" ">
<polygon fill="white" stroke="black" points="551,-263 551,-282 658,-282 658,-263 551,-263"/>
<text text-anchor="middle" x="604.5" y="-270" font-family="Helvetica,sans-Serif" font-size="10.00">SComponent/c_xyz.h</text>
</a>
</g>
</g>
<!-- Node10&#45;&gt;Node16 -->
<g id="edge27" class="edge">
<title>Node10&#45;&gt;Node16</title>
<path fill="none" stroke="midnightblue" d="M511.12,-324.48C529.09,-314.67 558.82,-298.43 579.91,-286.92"/>
<polygon fill="midnightblue" stroke="midnightblue" points="581.81,-289.87 588.91,-282.01 578.46,-283.73 581.81,-289.87"/>
</g>
<!-- Node11&#45;&gt;Node3 -->
<g id="edge16" class="edge">
<title>Node11&#45;&gt;Node3</title>
<path fill="none" stroke="midnightblue" d="M365.88,-56.4C372.85,-47.75 381.81,-36.64 389.13,-27.58"/>
<polygon fill="midnightblue" stroke="midnightblue" points="391.96,-29.64 395.52,-19.66 386.51,-25.24 391.96,-29.64"/>
</g>
<!-- Node12&#45;&gt;Node3 -->
<g id="edge24" class="edge">
<title>Node12&#45;&gt;Node3</title>
<path fill="none" stroke="midnightblue" d="M472.9,-257.34C478.3,-220.85 488,-121.86 447.5,-56 440.59,-44.76 430.33,-34.21 421.35,-26.16"/>
<polygon fill="midnightblue" stroke="midnightblue" points="423.47,-23.36 413.6,-19.51 418.92,-28.68 423.47,-23.36"/>
</g>
<!-- Node13 -->
<g id="node13" class="node">
<title>Node13</title>
<g id="a_node13"><a xlink:href="JKRHeap_8h.html" target="_top" xlink:title=" ">
<polygon fill="white" stroke="black" points="212.5,-190.5 212.5,-220.5 348.5,-220.5 348.5,-190.5 212.5,-190.5"/>
<text text-anchor="start" x="220.5" y="-208.5" font-family="Helvetica,sans-Serif" font-size="10.00">JSystem/JKernel/JKRHeap</text>
<text text-anchor="middle" x="280.5" y="-197.5" font-family="Helvetica,sans-Serif" font-size="10.00">/JKRHeap.h</text>
</a>
</g>
</g>
<!-- Node12&#45;&gt;Node13 -->
<g id="edge18" class="edge">
<title>Node12&#45;&gt;Node13</title>
<path fill="none" stroke="midnightblue" d="M429.27,-257.4C400.52,-247.56 361.96,-234.37 331.3,-223.88"/>
<polygon fill="midnightblue" stroke="midnightblue" points="332.24,-220.5 321.65,-220.58 329.98,-227.13 332.24,-220.5"/>
</g>
<!-- Node15 -->
<g id="node15" class="node">
<title>Node15</title>
<g id="a_node15"><a xlink:href="GX_8h.html" target="_top" xlink:title=" ">
<polygon fill="white" stroke="black" points="409,-129 409,-148 460,-148 460,-129 409,-129"/>
<text text-anchor="middle" x="434.5" y="-136" font-family="Helvetica,sans-Serif" font-size="10.00">gx/GX.h</text>
</a>
</g>
</g>
<!-- Node12&#45;&gt;Node15 -->
<g id="edge25" class="edge">
<title>Node12&#45;&gt;Node15</title>
<path fill="none" stroke="midnightblue" d="M466.65,-257.37C460.11,-233.4 446.84,-184.75 439.56,-158.06"/>
<polygon fill="midnightblue" stroke="midnightblue" points="442.85,-156.82 436.84,-148.1 436.1,-158.67 442.85,-156.82"/>
</g>
<!-- Node13&#45;&gt;Node3 -->
<g id="edge22" class="edge">
<title>Node13&#45;&gt;Node3</title>
<path fill="none" stroke="midnightblue" d="M236.27,-190.44C219.15,-182.59 201.33,-170.89 191.5,-154 184.57,-142.09 185.96,-135.61 191.5,-123 219.01,-60.4 298.61,-31.98 351.79,-19.68"/>
<polygon fill="midnightblue" stroke="midnightblue" points="352.7,-23.06 361.72,-17.49 351.2,-16.22 352.7,-23.06"/>
</g>
<!-- Node13&#45;&gt;Node4 -->
<g id="edge23" class="edge">
<title>Node13&#45;&gt;Node4</title>
<path fill="none" stroke="midnightblue" d="M293.54,-220.69C309.58,-237.73 338.05,-266.68 365.5,-288 402.7,-316.9 412.87,-323.95 455.5,-344 493.82,-362.02 540.34,-376.56 571.54,-385.33"/>
<polygon fill="midnightblue" stroke="midnightblue" points="570.92,-388.79 581.49,-388.08 572.78,-382.04 570.92,-388.79"/>
</g>
<!-- Node14 -->
<g id="node14" class="node">
<title>Node14</title>
<g id="a_node14"><a xlink:href="JKRDisposer_8h.html" target="_top" xlink:title=" ">
<polygon fill="white" stroke="black" points="201,-123.5 201,-153.5 352,-153.5 352,-123.5 201,-123.5"/>
<text text-anchor="start" x="209" y="-141.5" font-family="Helvetica,sans-Serif" font-size="10.00">JSystem/JKernel/JKRDisposer</text>
<text text-anchor="middle" x="276.5" y="-130.5" font-family="Helvetica,sans-Serif" font-size="10.00">/JKRDisposer.h</text>
</a>
</g>
</g>
<!-- Node13&#45;&gt;Node14 -->
<g id="edge19" class="edge">
<title>Node13&#45;&gt;Node14</title>
<path fill="none" stroke="midnightblue" d="M279.63,-190.4C279.15,-182.56 278.54,-172.6 277.98,-163.57"/>
<polygon fill="midnightblue" stroke="midnightblue" points="281.47,-163.34 277.37,-153.58 274.49,-163.77 281.47,-163.34"/>
</g>
<!-- Node14&#45;&gt;Node3 -->
<g id="edge21" class="edge">
<title>Node14&#45;&gt;Node3</title>
<path fill="none" stroke="midnightblue" d="M272.19,-123.34C267.78,-105.8 263.38,-75.83 277.5,-56 294.4,-32.26 325.07,-20.99 351.8,-15.67"/>
<polygon fill="midnightblue" stroke="midnightblue" points="352.57,-19.09 361.82,-13.9 351.36,-12.19 352.57,-19.09"/>
</g>
<!-- Node14&#45;&gt;Node11 -->
<g id="edge20" class="edge">
<title>Node14&#45;&gt;Node11</title>
<path fill="none" stroke="midnightblue" d="M293.42,-123.4C304.05,-114.54 317.95,-102.96 329.8,-93.09"/>
<polygon fill="midnightblue" stroke="midnightblue" points="332.17,-95.67 337.61,-86.58 327.69,-90.29 332.17,-95.67"/>
</g>
<!-- Node15&#45;&gt;Node3 -->
<g id="edge26" class="edge">
<title>Node15&#45;&gt;Node3</title>
<path fill="none" stroke="midnightblue" d="M435.67,-128.68C437.36,-113.44 439.48,-81.39 431.5,-56 428.3,-45.82 422.14,-35.72 416.31,-27.68"/>
<polygon fill="midnightblue" stroke="midnightblue" points="418.94,-25.35 410.06,-19.58 413.4,-29.63 418.94,-25.35"/>
</g>
<!-- Node16&#45;&gt;Node4 -->
<g id="edge30" class="edge">
<title>Node16&#45;&gt;Node4</title>
<path fill="none" stroke="midnightblue" d="M603.1,-282.18C601.14,-295.49 597.96,-321.72 599.5,-344 600.24,-354.66 601.83,-366.5 603.32,-376.04"/>
<polygon fill="midnightblue" stroke="midnightblue" points="599.87,-376.66 604.95,-385.96 606.78,-375.52 599.87,-376.66"/>
</g>
<!-- Node17 -->
<g id="node17" class="node">
<title>Node17</title>
<g id="a_node17"><a xlink:href="c__math_8h.html" target="_top" xlink:title=" ">
<polygon fill="white" stroke="black" points="580.5,-196 580.5,-215 696.5,-215 696.5,-196 580.5,-196"/>
<text text-anchor="middle" x="638.5" y="-203" font-family="Helvetica,sans-Serif" font-size="10.00">SComponent/c_math.h</text>
</a>
</g>
</g>
<!-- Node16&#45;&gt;Node17 -->
<g id="edge28" class="edge">
<title>Node16&#45;&gt;Node17</title>
<path fill="none" stroke="midnightblue" d="M609.09,-262.73C614.23,-252.89 622.72,-236.66 629.26,-224.16"/>
<polygon fill="midnightblue" stroke="midnightblue" points="632.45,-225.61 633.99,-215.13 626.25,-222.37 632.45,-225.61"/>
</g>
<!-- Node18 -->
<g id="node18" class="node">
<title>Node18</title>
<g id="a_node18"><a xlink:href="mtx__vec_8h.html" target="_top" xlink:title=" ">
<polygon fill="white" stroke="black" points="501,-196 501,-215 562,-215 562,-196 501,-196"/>
<text text-anchor="middle" x="531.5" y="-203" font-family="Helvetica,sans-Serif" font-size="10.00">mtx_vec.h</text>
</a>
</g>
</g>
<!-- Node16&#45;&gt;Node18 -->
<g id="edge31" class="edge">
<title>Node16&#45;&gt;Node18</title>
<path fill="none" stroke="midnightblue" d="M594.65,-262.73C582.94,-252.31 563.18,-234.71 548.88,-221.97"/>
<polygon fill="midnightblue" stroke="midnightblue" points="550.99,-219.16 541.19,-215.13 546.33,-224.39 550.99,-219.16"/>
</g>
<!-- Node17&#45;&gt;Node4 -->
<g id="edge29" class="edge">
<title>Node17&#45;&gt;Node4</title>
<path fill="none" stroke="midnightblue" d="M645.39,-215.17C652.53,-224.76 663.23,-240.98 667.5,-257 677.46,-294.36 683.96,-309.01 667.5,-344 660.18,-359.57 645.44,-371.98 632.29,-380.6"/>
<polygon fill="midnightblue" stroke="midnightblue" points="630.24,-377.75 623.54,-385.96 633.9,-383.72 630.24,-377.75"/>
</g>
<!-- Node18&#45;&gt;Node3 -->
<g id="edge32" class="edge">
<title>Node18&#45;&gt;Node3</title>
<path fill="none" stroke="midnightblue" d="M532.38,-195.67C534.35,-170.77 536.61,-99.02 502.5,-56 489.86,-40.06 470.34,-29.58 451.9,-22.79"/>
<polygon fill="midnightblue" stroke="midnightblue" points="452.99,-19.46 442.39,-19.56 450.74,-26.09 452.99,-19.46"/>
</g>
</g>
</svg>
        <g id="navigator" transform="translate(0 0)" fill="#404254">
                <rect fill="#f2f5e9" fill-opacity="0.5" stroke="#606060" stroke-width=".5" x="0" y="0" width="60" height="60"/>
                <use id="zoomplus" xlink:href="#zoomPlus" x="17" y="9" onmousedown="handleZoom(evt,'in')"/>
                <use id="zoomminus" xlink:href="#zoomMin" x="42" y="9" onmousedown="handleZoom(evt,'out')"/>
                <use id="reset" xlink:href="#resetDef" x="30" y="36" onmousedown="handleReset()"/>
                <g id="arrowUp" xlink:href="#dirArrow" transform="translate(30 24)" onmousedown="handlePan(0,-1)">
                  <use xlink:href="#rim" fill="#404040">
                        <set attributeName="fill" to="#808080" begin="arrowUp.mouseover" end="arrowUp.mouseout"/>
                  </use>
                  <path fill="none" stroke="white" stroke-width="1.5" d="M0,-3.0v7 M-2.5,-0.5L0,-3.0L2.5,-0.5"/>
                </g>
                <g id="arrowRight" xlink:href="#dirArrow" transform="rotate(90) translate(36 -43)" onmousedown="handlePan(1,0)">
                  <use xlink:href="#rim" fill="#404040">
                        <set attributeName="fill" to="#808080" begin="arrowRight.mouseover" end="arrowRight.mouseout"/>
                  </use>
                  <path fill="none" stroke="white" stroke-width="1.5" d="M0,-3.0v7 M-2.5,-0.5L0,-3.0L2.5,-0.5"/>
                </g>
                <g id="arrowDown" xlink:href="#dirArrow" transform="rotate(180) translate(-30 -48)" onmousedown="handlePan(0,1)">
                  <use xlink:href="#rim" fill="#404040">
                        <set attributeName="fill" to="#808080" begin="arrowDown.mouseover" end="arrowDown.mouseout"/>
                  </use>
                  <path fill="none" stroke="white" stroke-width="1.5" d="M0,-3.0v7 M-2.5,-0.5L0,-3.0L2.5,-0.5"/>
                </g>
                <g id="arrowLeft" xlink:href="#dirArrow" transform="rotate(270) translate(-36 17)" onmousedown="handlePan(-1,0)">
                  <use xlink:href="#rim" fill="#404040">
                        <set attributeName="fill" to="#808080" begin="arrowLeft.mouseover" end="arrowLeft.mouseout"/>
                  </use>
                  <path fill="none" stroke="white" stroke-width="1.5" d="M0,-3.0v7 M-2.5,-0.5L0,-3.0L2.5,-0.5"/>
                </g>
        </g>
        <svg viewBox="0 0 15 15" width="100%" height="30px" preserveAspectRatio="xMaxYMin meet">
         <g id="arrow_out" transform="scale(0.3 0.3)">
          <a xlink:href="binary_8cpp__incl_org.svg" target="_base">
           <rect id="button" ry="5" rx="5" y="6" x="6" height="38" width="38"
                fill="#f2f5e9" fill-opacity="0.5" stroke="#606060" stroke-width="1.0"/>
           <path id="arrow"
             d="M 11.500037,31.436501 C 11.940474,20.09759 22.043105,11.32322 32.158766,21.979434 L 37.068811,17.246167 C 37.068811,17.246167 37.088388,32 37.088388,32 L 22.160133,31.978069 C 22.160133,31.978069 26.997745,27.140456 26.997745,27.140456 C 18.528582,18.264221 13.291696,25.230495 11.500037,31.436501 z"
             style="fill:#404040;"/>
          </a>
         </g>
        </svg>
</svg>
