<?xml version="1.0" encoding="UTF-8" standalone="no"?>
<!DOCTYPE svg PUBLIC "-//W3C//DTD SVG 1.1//EN"
 "http://www.w3.org/Graphics/SVG/1.1/DTD/svg11.dtd">
<!-- Generated by graphviz version 2.46.1 (20210215.1649)
 -->
<!-- Title: libs/SSystem/SComponent/c_API_controller_pad.cpp Pages: 1 -->
<!--zoomable 665 -->
<svg id="main" version="1.1" xmlns="http://www.w3.org/2000/svg" xmlns:xlink="http://www.w3.org/1999/xlink" xml:space="preserve" onload="init(evt)">
<style type="text/css"><![CDATA[
.edge:hover path { stroke: red; }
.edge:hover polygon { stroke: red; fill: red; }
]]></style>
<script type="text/javascript"><![CDATA[
var edges = document.getElementsByTagName('g');
if (edges && edges.length) {
  for (var i=0;i<edges.length;i++) {
    if (edges[i].id.substr(0,4)=='edge') {
      edges[i].setAttribute('class','edge');
    }
  }
}
]]></script>
        <defs>
                <circle id="rim" cx="0" cy="0" r="7"/>
                <circle id="rim2" cx="0" cy="0" r="3.5"/>
                <g id="zoomPlus">
                        <use xlink:href="#rim" fill="#404040">
                                <set attributeName="fill" to="#808080" begin="zoomplus.mouseover" end="zoomplus.mouseout"/>
                        </use>
                        <path d="M-4,0h8M0,-4v8" fill="none" stroke="white" stroke-width="1.5" pointer-events="none"/>
                </g>
                <g id="zoomMin">
                        <use xlink:href="#rim" fill="#404040">
                                <set attributeName="fill" to="#808080" begin="zoomminus.mouseover" end="zoomminus.mouseout"/>
                        </use>
                        <path d="M-4,0h8" fill="none" stroke="white" stroke-width="1.5" pointer-events="none"/>
                </g>
                <g id="dirArrow">
                        <path fill="none" stroke="white" stroke-width="1.5" d="M0,-3.0v7 M-2.5,-0.5L0,-3.0L2.5,-0.5"/>
                </g>
               <g id="resetDef">
                       <use xlink:href="#rim2" fill="#404040">
                               <set attributeName="fill" to="#808080" begin="reset.mouseover" end="reset.mouseout"/>
                       </use>
               </g>
        </defs>

<script type="text/javascript">
var viewWidth = 668;
var viewHeight = 665;
var sectionId = 'dynsection-0';
</script>
<script xlink:href="svgpan.js"/>
<svg id="graph" class="graph">
<g id="viewport">
<title>libs/SSystem/SComponent/c_API_controller_pad.cpp</title>
<polygon fill="white" stroke="transparent" points="-4,4 -4,-661 664,-661 664,4 -4,4"/>
<!-- Node1 -->
<g id="node1" class="node">
<title>Node1</title>
<g id="a_node1"><a xlink:title=" ">
<polygon fill="#bfbfbf" stroke="black" points="193,-626.5 193,-656.5 327,-656.5 327,-626.5 193,-626.5"/>
<text text-anchor="start" x="201" y="-644.5" font-family="Helvetica,sans-Serif" font-size="10.00">libs/SSystem/SComponent</text>
<text text-anchor="middle" x="260" y="-633.5" font-family="Helvetica,sans-Serif" font-size="10.00">/c_API_controller_pad.cpp</text>
</a>
</g>
</g>
<!-- Node2 -->
<g id="node2" class="node">
<title>Node2</title>
<g id="a_node2"><a xlink:href="c__API__controller__pad_8h.html" target="_top" xlink:title=" ">
<polygon fill="white" stroke="black" points="235,-492.5 235,-522.5 383,-522.5 383,-492.5 235,-492.5"/>
<text text-anchor="start" x="243" y="-510.5" font-family="Helvetica,sans-Serif" font-size="10.00">SComponent/c_API_controller</text>
<text text-anchor="middle" x="309" y="-499.5" font-family="Helvetica,sans-Serif" font-size="10.00">_pad.h</text>
</a>
</g>
</g>
<!-- Node1&#45;&gt;Node2 -->
<g id="edge1" class="edge">
<title>Node1&#45;&gt;Node2</title>
<path fill="none" stroke="midnightblue" d="M270.18,-626.1C276.68,-616.31 284.82,-602.87 290,-590 297.47,-571.42 302.41,-549.23 305.37,-532.7"/>
<polygon fill="midnightblue" stroke="midnightblue" points="308.84,-533.18 307.04,-522.74 301.93,-532.03 308.84,-533.18"/>
</g>
<!-- Node17 -->
<g id="node17" class="node">
<title>Node17</title>
<g id="a_node17"><a xlink:href="m__Do__controller__pad_8h.html" target="_top" xlink:title=" ">
<polygon fill="white" stroke="black" points="141,-559.5 141,-589.5 281,-589.5 281,-559.5 141,-559.5"/>
<text text-anchor="start" x="149" y="-577.5" font-family="Helvetica,sans-Serif" font-size="10.00">m_Do/m_Do_controller</text>
<text text-anchor="middle" x="211" y="-566.5" font-family="Helvetica,sans-Serif" font-size="10.00">_pad/m_Do_controller_pad.h</text>
</a>
</g>
</g>
<!-- Node1&#45;&gt;Node17 -->
<g id="edge28" class="edge">
<title>Node1&#45;&gt;Node17</title>
<path fill="none" stroke="midnightblue" d="M249.37,-626.4C243.08,-618.05 234.96,-607.29 227.82,-597.81"/>
<polygon fill="midnightblue" stroke="midnightblue" points="230.43,-595.45 221.61,-589.58 224.84,-599.67 230.43,-595.45"/>
</g>
<!-- Node3 -->
<g id="node3" class="node">
<title>Node3</title>
<g id="a_node3"><a xlink:href="global_8h.html" target="_top" xlink:title=" ">
<polygon fill="white" stroke="black" points="378,-380.5 378,-399.5 428,-399.5 428,-380.5 378,-380.5"/>
<text text-anchor="middle" x="403" y="-387.5" font-family="Helvetica,sans-Serif" font-size="10.00">global.h</text>
</a>
</g>
</g>
<!-- Node2&#45;&gt;Node3 -->
<g id="edge2" class="edge">
<title>Node2&#45;&gt;Node3</title>
<path fill="none" stroke="midnightblue" d="M320.53,-492.34C338,-470.86 371.12,-430.17 389.63,-407.43"/>
<polygon fill="midnightblue" stroke="midnightblue" points="392.35,-409.63 395.94,-399.67 386.92,-405.22 392.35,-409.63"/>
</g>
<!-- Node4 -->
<g id="node4" class="node">
<title>Node4</title>
<g id="a_node4"><a xlink:href="types_8h.html" target="_top" xlink:title=" ">
<polygon fill="white" stroke="black" points="370.5,-0.5 370.5,-19.5 451.5,-19.5 451.5,-0.5 370.5,-0.5"/>
<text text-anchor="middle" x="411" y="-7.5" font-family="Helvetica,sans-Serif" font-size="10.00">dolphin/types.h</text>
</a>
</g>
</g>
<!-- Node3&#45;&gt;Node4 -->
<g id="edge3" class="edge">
<title>Node3&#45;&gt;Node4</title>
<path fill="none" stroke="midnightblue" d="M412.04,-380.37C429.9,-362.34 468,-318.6 468,-273.5 468,-273.5 468,-273.5 468,-137.5 468,-94.97 440.89,-50.93 424.06,-27.7"/>
<polygon fill="midnightblue" stroke="midnightblue" points="426.79,-25.5 417.99,-19.6 421.18,-29.7 426.79,-25.5"/>
</g>
<!-- Node5 -->
<g id="node5" class="node">
<title>Node5</title>
<g id="a_node5"><a xlink:href="AR_8h.html" target="_top" xlink:title=" ">
<polygon fill="white" stroke="black" points="496.5,-62 496.5,-81 545.5,-81 545.5,-62 496.5,-62"/>
<text text-anchor="middle" x="521" y="-69" font-family="Helvetica,sans-Serif" font-size="10.00">ar/AR.h</text>
</a>
</g>
</g>
<!-- Node3&#45;&gt;Node5 -->
<g id="edge4" class="edge">
<title>Node3&#45;&gt;Node5</title>
<path fill="none" stroke="midnightblue" d="M427.55,-380.46C444.98,-373.23 467.72,-361.28 482,-344 503.08,-318.48 506,-306.6 506,-273.5 506,-273.5 506,-273.5 506,-204.5 506,-163.9 513.09,-116.72 517.52,-91.21"/>
<polygon fill="midnightblue" stroke="midnightblue" points="521.01,-91.57 519.34,-81.11 514.12,-90.33 521.01,-91.57"/>
</g>
<!-- Node6 -->
<g id="node6" class="node">
<title>Node6</title>
<g id="a_node6"><a xlink:href="ARQ_8h.html" target="_top" xlink:title=" ">
<polygon fill="white" stroke="black" points="534,-129 534,-148 590,-148 590,-129 534,-129"/>
<text text-anchor="middle" x="562" y="-136" font-family="Helvetica,sans-Serif" font-size="10.00">ar/ARQ.h</text>
</a>
</g>
</g>
<!-- Node3&#45;&gt;Node6 -->
<g id="edge6" class="edge">
<title>Node3&#45;&gt;Node6</title>
<path fill="none" stroke="midnightblue" d="M428.05,-380.8C460.53,-369.94 513.79,-351.33 520,-344 543.82,-315.89 556.3,-203.46 560.42,-158.36"/>
<polygon fill="midnightblue" stroke="midnightblue" points="563.92,-158.48 561.31,-148.21 556.95,-157.87 563.92,-158.48"/>
</g>
<!-- Node7 -->
<g id="node7" class="node">
<title>Node7</title>
<g id="a_node7"><a xlink:href="mwcc_8h.html" target="_top" xlink:title=" ">
<polygon fill="white" stroke="black" points="325,-324.5 325,-343.5 375,-343.5 375,-324.5 325,-324.5"/>
<text text-anchor="middle" x="350" y="-331.5" font-family="Helvetica,sans-Serif" font-size="10.00">mwcc.h</text>
</a>
</g>
</g>
<!-- Node3&#45;&gt;Node7 -->
<g id="edge8" class="edge">
<title>Node3&#45;&gt;Node7</title>
<path fill="none" stroke="midnightblue" d="M394.25,-380.08C386.53,-372.22 375.1,-360.57 365.78,-351.08"/>
<polygon fill="midnightblue" stroke="midnightblue" points="368.09,-348.44 358.59,-343.75 363.1,-353.34 368.09,-348.44"/>
</g>
<!-- Node8 -->
<g id="node8" class="node">
<title>Node8</title>
<g id="a_node8"><a xlink:href="OS_8h.html" target="_top" xlink:title=" ">
<polygon fill="white" stroke="black" points="573,-324.5 573,-343.5 625,-343.5 625,-324.5 573,-324.5"/>
<text text-anchor="middle" x="599" y="-331.5" font-family="Helvetica,sans-Serif" font-size="10.00">os/OS.h</text>
</a>
</g>
</g>
<!-- Node3&#45;&gt;Node8 -->
<g id="edge9" class="edge">
<title>Node3&#45;&gt;Node8</title>
<path fill="none" stroke="midnightblue" d="M428.22,-382.05C462.56,-372.59 524.2,-355.61 563.28,-344.84"/>
<polygon fill="midnightblue" stroke="midnightblue" points="564.23,-348.21 572.94,-342.18 562.37,-341.46 564.23,-348.21"/>
</g>
<!-- Node10 -->
<g id="node10" class="node">
<title>Node10</title>
<g id="a_node10"><a xlink:href="variables_8h.html" target="_top" xlink:title=" ">
<polygon fill="white" stroke="black" points="202.5,-324.5 202.5,-343.5 265.5,-343.5 265.5,-324.5 202.5,-324.5"/>
<text text-anchor="middle" x="234" y="-331.5" font-family="Helvetica,sans-Serif" font-size="10.00">variables.h</text>
</a>
</g>
</g>
<!-- Node3&#45;&gt;Node10 -->
<g id="edge13" class="edge">
<title>Node3&#45;&gt;Node10</title>
<path fill="none" stroke="midnightblue" d="M377.7,-380.92C349.24,-371.82 302.79,-356.98 270.43,-346.64"/>
<polygon fill="midnightblue" stroke="midnightblue" points="271.46,-343.3 260.87,-343.59 269.33,-349.96 271.46,-343.3"/>
</g>
<!-- Node5&#45;&gt;Node4 -->
<g id="edge5" class="edge">
<title>Node5&#45;&gt;Node4</title>
<path fill="none" stroke="midnightblue" d="M505.24,-61.98C487.02,-52.12 456.83,-35.79 435.53,-24.27"/>
<polygon fill="midnightblue" stroke="midnightblue" points="437.19,-21.19 426.73,-19.51 433.86,-27.35 437.19,-21.19"/>
</g>
<!-- Node6&#45;&gt;Node4 -->
<g id="edge7" class="edge">
<title>Node6&#45;&gt;Node4</title>
<path fill="none" stroke="midnightblue" d="M564.11,-128.75C567.48,-112.47 572.08,-77.26 555,-56 532.72,-28.27 493.56,-17.3 461.69,-13.11"/>
<polygon fill="midnightblue" stroke="midnightblue" points="461.96,-9.61 451.63,-11.97 461.18,-16.57 461.96,-9.61"/>
</g>
<!-- Node8&#45;&gt;Node4 -->
<g id="edge10" class="edge">
<title>Node8&#45;&gt;Node4</title>
<path fill="none" stroke="midnightblue" d="M606.48,-324.49C622.77,-305.04 660,-255.26 660,-206.5 660,-206.5 660,-206.5 660,-137.5 660,-49.46 534.74,-22.67 461.91,-14.54"/>
<polygon fill="midnightblue" stroke="midnightblue" points="461.87,-11.01 451.56,-13.47 461.15,-17.98 461.87,-11.01"/>
</g>
<!-- Node9 -->
<g id="node9" class="node">
<title>Node9</title>
<g id="a_node9"><a xlink:href="dvd_8h.html" target="_top" xlink:title=" ">
<polygon fill="white" stroke="black" points="572.5,-196 572.5,-215 631.5,-215 631.5,-196 572.5,-196"/>
<text text-anchor="middle" x="602" y="-203" font-family="Helvetica,sans-Serif" font-size="10.00">dvd/dvd.h</text>
</a>
</g>
</g>
<!-- Node8&#45;&gt;Node9 -->
<g id="edge11" class="edge">
<title>Node8&#45;&gt;Node9</title>
<path fill="none" stroke="midnightblue" d="M599.21,-324.31C599.69,-303.99 600.9,-253.05 601.55,-225.28"/>
<polygon fill="midnightblue" stroke="midnightblue" points="605.05,-225.34 601.79,-215.26 598.06,-225.17 605.05,-225.34"/>
</g>
<!-- Node9&#45;&gt;Node4 -->
<g id="edge12" class="edge">
<title>Node9&#45;&gt;Node4</title>
<path fill="none" stroke="midnightblue" d="M603.49,-195.81C607.37,-170.03 614.82,-93.39 574,-56 543.56,-28.12 497.38,-17.29 461.93,-13.19"/>
<polygon fill="midnightblue" stroke="midnightblue" points="462.08,-9.69 451.78,-12.17 461.38,-16.65 462.08,-9.69"/>
</g>
<!-- Node11 -->
<g id="node11" class="node">
<title>Node11</title>
<g id="a_node11"><a xlink:href="JSUList_8h.html" target="_top" xlink:title=" ">
<polygon fill="white" stroke="black" points="93,-56.5 93,-86.5 229,-86.5 229,-56.5 93,-56.5"/>
<text text-anchor="start" x="101" y="-74.5" font-family="Helvetica,sans-Serif" font-size="10.00">JSystem/JSupport/JSUList</text>
<text text-anchor="middle" x="161" y="-63.5" font-family="Helvetica,sans-Serif" font-size="10.00">/JSUList.h</text>
</a>
</g>
</g>
<!-- Node10&#45;&gt;Node11 -->
<g id="edge14" class="edge">
<title>Node10&#45;&gt;Node11</title>
<path fill="none" stroke="midnightblue" d="M226.95,-324.41C207.27,-299.79 151.95,-226.13 133,-154 129.5,-140.67 129.55,-136.34 133,-123 135.48,-113.41 140.22,-103.7 145.1,-95.39"/>
<polygon fill="midnightblue" stroke="midnightblue" points="148.21,-97.02 150.56,-86.69 142.28,-93.3 148.21,-97.02"/>
</g>
<!-- Node12 -->
<g id="node12" class="node">
<title>Node12</title>
<g id="a_node12"><a xlink:href="JUTXfb_8h.html" target="_top" xlink:title=" ">
<polygon fill="white" stroke="black" points="222.5,-257.5 222.5,-287.5 347.5,-287.5 347.5,-257.5 222.5,-257.5"/>
<text text-anchor="start" x="230.5" y="-275.5" font-family="Helvetica,sans-Serif" font-size="10.00">JSystem/JUtility/JUTXfb</text>
<text text-anchor="middle" x="285" y="-264.5" font-family="Helvetica,sans-Serif" font-size="10.00">/JUTXfb.h</text>
</a>
</g>
</g>
<!-- Node10&#45;&gt;Node12 -->
<g id="edge16" class="edge">
<title>Node10&#45;&gt;Node12</title>
<path fill="none" stroke="midnightblue" d="M241.31,-324.48C247.83,-316.87 257.66,-305.4 266.34,-295.26"/>
<polygon fill="midnightblue" stroke="midnightblue" points="269.13,-297.39 272.98,-287.52 263.81,-292.84 269.13,-297.39"/>
</g>
<!-- Node16 -->
<g id="node16" class="node">
<title>Node16</title>
<g id="a_node16"><a xlink:href="mtx__vec_8h.html" target="_top" xlink:title=" ">
<polygon fill="white" stroke="black" points="104.5,-263 104.5,-282 165.5,-282 165.5,-263 104.5,-263"/>
<text text-anchor="middle" x="135" y="-270" font-family="Helvetica,sans-Serif" font-size="10.00">mtx_vec.h</text>
</a>
</g>
</g>
<!-- Node10&#45;&gt;Node16 -->
<g id="edge26" class="edge">
<title>Node10&#45;&gt;Node16</title>
<path fill="none" stroke="midnightblue" d="M219.82,-324.48C203.64,-314.75 176.97,-298.73 157.86,-287.24"/>
<polygon fill="midnightblue" stroke="midnightblue" points="159.53,-284.16 149.16,-282.01 155.93,-290.16 159.53,-284.16"/>
</g>
<!-- Node11&#45;&gt;Node4 -->
<g id="edge15" class="edge">
<title>Node11&#45;&gt;Node4</title>
<path fill="none" stroke="midnightblue" d="M219.93,-56.47C264.38,-45.9 324.47,-31.59 365.31,-21.87"/>
<polygon fill="midnightblue" stroke="midnightblue" points="366.34,-25.23 375.26,-19.51 364.72,-18.42 366.34,-25.23"/>
</g>
<!-- Node12&#45;&gt;Node4 -->
<g id="edge23" class="edge">
<title>Node12&#45;&gt;Node4</title>
<path fill="none" stroke="midnightblue" d="M281.01,-257.25C277.07,-240.66 272.6,-212.64 280,-190 283.09,-180.56 366.29,-70.06 398.46,-27.54"/>
<polygon fill="midnightblue" stroke="midnightblue" points="401.26,-29.64 404.51,-19.56 395.68,-25.42 401.26,-29.64"/>
</g>
<!-- Node13 -->
<g id="node13" class="node">
<title>Node13</title>
<g id="a_node13"><a xlink:href="JKRHeap_8h.html" target="_top" xlink:title=" ">
<polygon fill="white" stroke="black" points="304,-190.5 304,-220.5 440,-220.5 440,-190.5 304,-190.5"/>
<text text-anchor="start" x="312" y="-208.5" font-family="Helvetica,sans-Serif" font-size="10.00">JSystem/JKernel/JKRHeap</text>
<text text-anchor="middle" x="372" y="-197.5" font-family="Helvetica,sans-Serif" font-size="10.00">/JKRHeap.h</text>
</a>
</g>
</g>
<!-- Node12&#45;&gt;Node13 -->
<g id="edge17" class="edge">
<title>Node12&#45;&gt;Node13</title>
<path fill="none" stroke="midnightblue" d="M303.88,-257.4C315.85,-248.45 331.53,-236.74 344.83,-226.8"/>
<polygon fill="midnightblue" stroke="midnightblue" points="347.24,-229.37 353.16,-220.58 343.05,-223.76 347.24,-229.37"/>
</g>
<!-- Node15 -->
<g id="node15" class="node">
<title>Node15</title>
<g id="a_node15"><a xlink:href="GX_8h.html" target="_top" xlink:title=" ">
<polygon fill="white" stroke="black" points="350.5,-129 350.5,-148 401.5,-148 401.5,-129 350.5,-129"/>
<text text-anchor="middle" x="376" y="-136" font-family="Helvetica,sans-Serif" font-size="10.00">gx/GX.h</text>
</a>
</g>
</g>
<!-- Node12&#45;&gt;Node15 -->
<g id="edge24" class="edge">
<title>Node12&#45;&gt;Node15</title>
<path fill="none" stroke="midnightblue" d="M283.24,-257.31C281.83,-240.01 281.89,-210.55 295,-190 305.87,-172.95 324.79,-160.68 341.61,-152.5"/>
<polygon fill="midnightblue" stroke="midnightblue" points="343.53,-155.48 351.19,-148.16 340.64,-149.1 343.53,-155.48"/>
</g>
<!-- Node13&#45;&gt;Node3 -->
<g id="edge22" class="edge">
<title>Node13&#45;&gt;Node3</title>
<path fill="none" stroke="midnightblue" d="M374.41,-220.69C379.93,-253.21 393.5,-333.09 399.75,-369.88"/>
<polygon fill="midnightblue" stroke="midnightblue" points="396.38,-370.93 401.5,-380.2 403.28,-369.75 396.38,-370.93"/>
</g>
<!-- Node13&#45;&gt;Node4 -->
<g id="edge21" class="edge">
<title>Node13&#45;&gt;Node4</title>
<path fill="none" stroke="midnightblue" d="M387.26,-190.17C396.06,-180.83 406.28,-167.84 411,-154 425.51,-111.46 419.5,-57.56 414.73,-29.65"/>
<polygon fill="midnightblue" stroke="midnightblue" points="418.15,-28.89 412.89,-19.69 411.27,-30.16 418.15,-28.89"/>
</g>
<!-- Node14 -->
<g id="node14" class="node">
<title>Node14</title>
<g id="a_node14"><a xlink:href="JKRDisposer_8h.html" target="_top" xlink:title=" ">
<polygon fill="white" stroke="black" points="142.5,-123.5 142.5,-153.5 293.5,-153.5 293.5,-123.5 142.5,-123.5"/>
<text text-anchor="start" x="150.5" y="-141.5" font-family="Helvetica,sans-Serif" font-size="10.00">JSystem/JKernel/JKRDisposer</text>
<text text-anchor="middle" x="218" y="-130.5" font-family="Helvetica,sans-Serif" font-size="10.00">/JKRDisposer.h</text>
</a>
</g>
</g>
<!-- Node13&#45;&gt;Node14 -->
<g id="edge18" class="edge">
<title>Node13&#45;&gt;Node14</title>
<path fill="none" stroke="midnightblue" d="M338.58,-190.4C315.78,-180.77 285.37,-167.94 260.8,-157.56"/>
<polygon fill="midnightblue" stroke="midnightblue" points="261.92,-154.24 251.35,-153.58 259.2,-160.69 261.92,-154.24"/>
</g>
<!-- Node14&#45;&gt;Node4 -->
<g id="edge20" class="edge">
<title>Node14&#45;&gt;Node4</title>
<path fill="none" stroke="midnightblue" d="M230.88,-123.29C247.39,-105.71 277.55,-75.68 308,-56 329.12,-42.34 355.09,-31.03 375.67,-23.16"/>
<polygon fill="midnightblue" stroke="midnightblue" points="377.14,-26.35 385.29,-19.58 374.7,-19.79 377.14,-26.35"/>
</g>
<!-- Node14&#45;&gt;Node11 -->
<g id="edge19" class="edge">
<title>Node14&#45;&gt;Node11</title>
<path fill="none" stroke="midnightblue" d="M205.63,-123.4C198.16,-114.88 188.49,-103.85 180.06,-94.23"/>
<polygon fill="midnightblue" stroke="midnightblue" points="182.57,-91.79 173.34,-86.58 177.31,-96.4 182.57,-91.79"/>
</g>
<!-- Node15&#45;&gt;Node4 -->
<g id="edge25" class="edge">
<title>Node15&#45;&gt;Node4</title>
<path fill="none" stroke="midnightblue" d="M378.41,-128.81C384.05,-108.4 398.25,-57.1 405.91,-29.41"/>
<polygon fill="midnightblue" stroke="midnightblue" points="409.28,-30.33 408.58,-19.76 402.54,-28.46 409.28,-30.33"/>
</g>
<!-- Node16&#45;&gt;Node4 -->
<g id="edge27" class="edge">
<title>Node16&#45;&gt;Node4</title>
<path fill="none" stroke="midnightblue" d="M128.32,-262.84C104.63,-231.03 28.92,-119.18 84,-56 119.21,-15.61 277.47,-10.22 360.22,-10.24"/>
<polygon fill="midnightblue" stroke="midnightblue" points="360.39,-13.74 370.4,-10.27 360.41,-6.74 360.39,-13.74"/>
</g>
<!-- Node17&#45;&gt;Node2 -->
<g id="edge36" class="edge">
<title>Node17&#45;&gt;Node2</title>
<path fill="none" stroke="midnightblue" d="M232.26,-559.4C246.01,-550.28 264.09,-538.29 279.24,-528.24"/>
<polygon fill="midnightblue" stroke="midnightblue" points="281.38,-531.02 287.78,-522.58 277.51,-525.19 281.38,-531.02"/>
</g>
<!-- Node18 -->
<g id="node18" class="node">
<title>Node18</title>
<g id="a_node18"><a xlink:href="JUTGamePad_8h.html" target="_top" xlink:title=" ">
<polygon fill="white" stroke="black" points="33,-492.5 33,-522.5 169,-522.5 169,-492.5 33,-492.5"/>
<text text-anchor="start" x="41" y="-510.5" font-family="Helvetica,sans-Serif" font-size="10.00">JSystem/JUtility/JUTGame</text>
<text text-anchor="middle" x="101" y="-499.5" font-family="Helvetica,sans-Serif" font-size="10.00">Pad/JUTGamePad.h</text>
</a>
</g>
</g>
<!-- Node17&#45;&gt;Node18 -->
<g id="edge29" class="edge">
<title>Node17&#45;&gt;Node18</title>
<path fill="none" stroke="midnightblue" d="M187.13,-559.4C171.42,-550.11 150.65,-537.84 133.45,-527.67"/>
<polygon fill="midnightblue" stroke="midnightblue" points="135.21,-524.65 124.82,-522.58 131.65,-530.68 135.21,-524.65"/>
</g>
<!-- Node18&#45;&gt;Node4 -->
<g id="edge32" class="edge">
<title>Node18&#45;&gt;Node4</title>
<path fill="none" stroke="midnightblue" d="M76.03,-492.48C46.12,-473.63 0,-437.08 0,-391 0,-391 0,-391 0,-137.5 0,-91.44 23.96,-78.77 64,-56 113.49,-27.86 276.52,-16.8 360.31,-12.9"/>
<polygon fill="midnightblue" stroke="midnightblue" points="360.53,-16.39 370.36,-12.45 360.21,-9.4 360.53,-16.39"/>
</g>
<!-- Node18&#45;&gt;Node8 -->
<g id="edge33" class="edge">
<title>Node18&#45;&gt;Node8</title>
<path fill="none" stroke="midnightblue" d="M151.53,-492.43C186.13,-482.62 233,-469.02 274,-456 347.01,-432.82 365.21,-426.72 437,-400 483.59,-382.66 536.98,-360.86 569.34,-347.43"/>
<polygon fill="midnightblue" stroke="midnightblue" points="570.78,-350.62 578.67,-343.54 568.09,-344.15 570.78,-350.62"/>
</g>
<!-- Node18&#45;&gt;Node11 -->
<g id="edge31" class="edge">
<title>Node18&#45;&gt;Node11</title>
<path fill="none" stroke="midnightblue" d="M87.02,-492.19C68.46,-471.62 38,-431.66 38,-391 38,-391 38,-391 38,-271.5 38,-197.11 100.96,-127.31 136.79,-93.6"/>
<polygon fill="midnightblue" stroke="midnightblue" points="139.42,-95.93 144.41,-86.59 134.68,-90.78 139.42,-95.93"/>
</g>
<!-- Node18&#45;&gt;Node14 -->
<g id="edge30" class="edge">
<title>Node18&#45;&gt;Node14</title>
<path fill="none" stroke="midnightblue" d="M95.94,-492.49C88.64,-470.96 76,-428.34 76,-391 76,-391 76,-391 76,-271.5 76,-217.21 132.37,-178.93 174.08,-158.04"/>
<polygon fill="midnightblue" stroke="midnightblue" points="175.78,-161.1 183.26,-153.6 172.74,-154.8 175.78,-161.1"/>
</g>
<!-- Node19 -->
<g id="node19" class="node">
<title>Node19</title>
<g id="a_node19"><a xlink:href="pad_8h.html" target="_top" xlink:title=" ">
<polygon fill="white" stroke="black" points="205.5,-436.5 205.5,-455.5 264.5,-455.5 264.5,-436.5 205.5,-436.5"/>
<text text-anchor="middle" x="235" y="-443.5" font-family="Helvetica,sans-Serif" font-size="10.00">pad/pad.h</text>
</a>
</g>
</g>
<!-- Node18&#45;&gt;Node19 -->
<g id="edge34" class="edge">
<title>Node18&#45;&gt;Node19</title>
<path fill="none" stroke="midnightblue" d="M132.76,-492.4C155.04,-482.51 184.59,-469.38 206.19,-459.79"/>
<polygon fill="midnightblue" stroke="midnightblue" points="207.78,-462.91 215.5,-455.66 204.94,-456.52 207.78,-462.91"/>
</g>
<!-- Node19&#45;&gt;Node3 -->
<g id="edge35" class="edge">
<title>Node19&#45;&gt;Node3</title>
<path fill="none" stroke="midnightblue" d="M261.62,-436.44C290.42,-427.19 336.47,-412.39 368.14,-402.21"/>
<polygon fill="midnightblue" stroke="midnightblue" points="369.43,-405.47 377.88,-399.08 367.29,-398.8 369.43,-405.47"/>
</g>
</g>
</svg>
        <g id="navigator" transform="translate(0 0)" fill="#404254">
                <rect fill="#f2f5e9" fill-opacity="0.5" stroke="#606060" stroke-width=".5" x="0" y="0" width="60" height="60"/>
                <use id="zoomplus" xlink:href="#zoomPlus" x="17" y="9" onmousedown="handleZoom(evt,'in')"/>
                <use id="zoomminus" xlink:href="#zoomMin" x="42" y="9" onmousedown="handleZoom(evt,'out')"/>
                <use id="reset" xlink:href="#resetDef" x="30" y="36" onmousedown="handleReset()"/>
                <g id="arrowUp" xlink:href="#dirArrow" transform="translate(30 24)" onmousedown="handlePan(0,-1)">
                  <use xlink:href="#rim" fill="#404040">
                        <set attributeName="fill" to="#808080" begin="arrowUp.mouseover" end="arrowUp.mouseout"/>
                  </use>
                  <path fill="none" stroke="white" stroke-width="1.5" d="M0,-3.0v7 M-2.5,-0.5L0,-3.0L2.5,-0.5"/>
                </g>
                <g id="arrowRight" xlink:href="#dirArrow" transform="rotate(90) translate(36 -43)" onmousedown="handlePan(1,0)">
                  <use xlink:href="#rim" fill="#404040">
                        <set attributeName="fill" to="#808080" begin="arrowRight.mouseover" end="arrowRight.mouseout"/>
                  </use>
                  <path fill="none" stroke="white" stroke-width="1.5" d="M0,-3.0v7 M-2.5,-0.5L0,-3.0L2.5,-0.5"/>
                </g>
                <g id="arrowDown" xlink:href="#dirArrow" transform="rotate(180) translate(-30 -48)" onmousedown="handlePan(0,1)">
                  <use xlink:href="#rim" fill="#404040">
                        <set attributeName="fill" to="#808080" begin="arrowDown.mouseover" end="arrowDown.mouseout"/>
                  </use>
                  <path fill="none" stroke="white" stroke-width="1.5" d="M0,-3.0v7 M-2.5,-0.5L0,-3.0L2.5,-0.5"/>
                </g>
                <g id="arrowLeft" xlink:href="#dirArrow" transform="rotate(270) translate(-36 17)" onmousedown="handlePan(-1,0)">
                  <use xlink:href="#rim" fill="#404040">
                        <set attributeName="fill" to="#808080" begin="arrowLeft.mouseover" end="arrowLeft.mouseout"/>
                  </use>
                  <path fill="none" stroke="white" stroke-width="1.5" d="M0,-3.0v7 M-2.5,-0.5L0,-3.0L2.5,-0.5"/>
                </g>
        </g>
        <svg viewBox="0 0 15 15" width="100%" height="30px" preserveAspectRatio="xMaxYMin meet">
         <g id="arrow_out" transform="scale(0.3 0.3)">
          <a xlink:href="c__API__controller__pad_8cpp__incl_org.svg" target="_base">
           <rect id="button" ry="5" rx="5" y="6" x="6" height="38" width="38"
                fill="#f2f5e9" fill-opacity="0.5" stroke="#606060" stroke-width="1.0"/>
           <path id="arrow"
             d="M 11.500037,31.436501 C 11.940474,20.09759 22.043105,11.32322 32.158766,21.979434 L 37.068811,17.246167 C 37.068811,17.246167 37.088388,32 37.088388,32 L 22.160133,31.978069 C 22.160133,31.978069 26.997745,27.140456 26.997745,27.140456 C 18.528582,18.264221 13.291696,25.230495 11.500037,31.436501 z"
             style="fill:#404040;"/>
          </a>
         </g>
        </svg>
</svg>
