<?xml version="1.0" encoding="UTF-8" standalone="no"?>
<!DOCTYPE svg PUBLIC "-//W3C//DTD SVG 1.1//EN"
 "http://www.w3.org/Graphics/SVG/1.1/DTD/svg11.dtd">
<!-- Generated by graphviz version 2.46.0 (20210122.1329)
 -->
<!-- Title: include/SComponent/c_bg_s_poly_info.h Pages: 1 -->
<svg width="395pt" height="173pt"
 viewBox="0.00 0.00 394.50 173.00" xmlns="http://www.w3.org/2000/svg" xmlns:xlink="http://www.w3.org/1999/xlink">
<g id="graph0" class="graph" transform="scale(1 1) rotate(0) translate(4 169)">
<title>include/SComponent/c_bg_s_poly_info.h</title>
<polygon fill="white" stroke="transparent" points="-4,4 -4,-169 390.5,-169 390.5,4 -4,4"/>
<!-- Node1 -->
<g id="node1" class="node">
<title>Node1</title>
<g id="a_node1"><a xlink:title=" ">
<polygon fill="#bfbfbf" stroke="black" points="183,-134.5 183,-164.5 290,-164.5 290,-134.5 183,-134.5"/>
<text text-anchor="start" x="191" y="-152.5" font-family="Helvetica,sans-Serif" font-size="10.00">include/SComponent</text>
<text text-anchor="middle" x="236.5" y="-141.5" font-family="Helvetica,sans-Serif" font-size="10.00">/c_bg_s_poly_info.h</text>
</a>
</g>
</g>
<!-- Node2 -->
<g id="node2" class="node">
<title>Node2</title>
<g id="a_node2"><a xlink:href="c__bg__s__poly__info_8cpp.html" target="_top" xlink:title=" ">
<polygon fill="white" stroke="black" points="24.5,-67.5 24.5,-97.5 158.5,-97.5 158.5,-67.5 24.5,-67.5"/>
<text text-anchor="start" x="32.5" y="-85.5" font-family="Helvetica,sans-Serif" font-size="10.00">libs/SSystem/SComponent</text>
<text text-anchor="middle" x="91.5" y="-74.5" font-family="Helvetica,sans-Serif" font-size="10.00">/c_bg_s_poly_info.cpp</text>
</a>
</g>
</g>
<!-- Node1&#45;&gt;Node2 -->
<g id="edge1" class="edge">
<title>Node1&#45;&gt;Node2</title>
<path fill="none" stroke="midnightblue" d="M195.83,-130.27C172.74,-119.92 144.26,-107.15 122.9,-97.58"/>
<polygon fill="midnightblue" stroke="midnightblue" points="194.48,-133.5 205.04,-134.4 197.34,-127.11 194.48,-133.5"/>
</g>
<!-- Node3 -->
<g id="node3" class="node">
<title>Node3</title>
<g id="a_node3"><a xlink:href="d__a__alink_8h.html" target="_top" xlink:title=" ">
<polygon fill="white" stroke="black" points="177,-67.5 177,-97.5 296,-97.5 296,-67.5 177,-67.5"/>
<text text-anchor="start" x="185" y="-85.5" font-family="Helvetica,sans-Serif" font-size="10.00">include/d/d_a/d_a_alink</text>
<text text-anchor="middle" x="236.5" y="-74.5" font-family="Helvetica,sans-Serif" font-size="10.00">/d_a_alink.h</text>
</a>
</g>
</g>
<!-- Node1&#45;&gt;Node3 -->
<g id="edge2" class="edge">
<title>Node1&#45;&gt;Node3</title>
<path fill="none" stroke="midnightblue" d="M236.5,-124.11C236.5,-115.15 236.5,-105.32 236.5,-97.58"/>
<polygon fill="midnightblue" stroke="midnightblue" points="233,-124.4 236.5,-134.4 240,-124.4 233,-124.4"/>
</g>
<!-- Node6 -->
<g id="node6" class="node">
<title>Node6</title>
<g id="a_node6"><a xlink:href="d__a__player_8h.html" target="_top" xlink:title=" ">
<polygon fill="white" stroke="black" points="262.5,-0.5 262.5,-30.5 386.5,-30.5 386.5,-0.5 262.5,-0.5"/>
<text text-anchor="start" x="270.5" y="-18.5" font-family="Helvetica,sans-Serif" font-size="10.00">include/d/d_a/d_a_player</text>
<text text-anchor="middle" x="324.5" y="-7.5" font-family="Helvetica,sans-Serif" font-size="10.00">/d_a_player.h</text>
</a>
</g>
</g>
<!-- Node1&#45;&gt;Node6 -->
<g id="edge7" class="edge">
<title>Node1&#45;&gt;Node6</title>
<path fill="none" stroke="midnightblue" d="M273.1,-128.84C285.05,-120.75 297.33,-110.36 305.5,-98 319.2,-77.27 323.07,-47.87 324.14,-30.63"/>
<polygon fill="midnightblue" stroke="midnightblue" points="271.07,-125.99 264.52,-134.32 274.83,-131.89 271.07,-125.99"/>
</g>
<!-- Node4 -->
<g id="node4" class="node">
<title>Node4</title>
<g id="a_node4"><a xlink:href="d__attention_8cpp.html" target="_top" xlink:title=" ">
<polygon fill="white" stroke="black" points="0,-6 0,-25 107,-25 107,-6 0,-6"/>
<text text-anchor="middle" x="53.5" y="-13" font-family="Helvetica,sans-Serif" font-size="10.00">src/d/d_attention.cpp</text>
</a>
</g>
</g>
<!-- Node3&#45;&gt;Node4 -->
<g id="edge3" class="edge">
<title>Node3&#45;&gt;Node4</title>
<path fill="none" stroke="midnightblue" d="M187.08,-63.95C151.54,-51.32 105.16,-34.85 77.45,-25.01"/>
<polygon fill="midnightblue" stroke="midnightblue" points="186.2,-67.35 196.79,-67.4 188.54,-60.75 186.2,-67.35"/>
</g>
<!-- Node5 -->
<g id="node5" class="node">
<title>Node5</title>
<g id="a_node5"><a xlink:href="d__a__alink_8cpp.html" target="_top" xlink:title=" ">
<polygon fill="white" stroke="black" points="125,-6 125,-25 244,-25 244,-6 125,-6"/>
<text text-anchor="middle" x="184.5" y="-13" font-family="Helvetica,sans-Serif" font-size="10.00">src/d/d_a/d_a_alink.cpp</text>
</a>
</g>
</g>
<!-- Node3&#45;&gt;Node5 -->
<g id="edge4" class="edge">
<title>Node3&#45;&gt;Node5</title>
<path fill="none" stroke="midnightblue" d="M218.75,-59.32C209.38,-47.6 198.41,-33.88 191.46,-25.19"/>
<polygon fill="midnightblue" stroke="midnightblue" points="216.24,-61.77 225.22,-67.4 221.7,-57.4 216.24,-61.77"/>
</g>
<!-- Node3&#45;&gt;Node6 -->
<g id="edge5" class="edge">
<title>Node3&#45;&gt;Node6</title>
<path fill="none" stroke="midnightblue" d="M258.08,-60.88C270.73,-51.01 286.62,-39.43 299.77,-30.58"/>
<polygon fill="midnightblue" stroke="midnightblue" points="255.55,-58.42 249.92,-67.4 259.92,-63.9 255.55,-58.42"/>
</g>
<!-- Node6&#45;&gt;Node3 -->
<g id="edge6" class="edge">
<title>Node6&#45;&gt;Node3</title>
<path fill="none" stroke="midnightblue" d="M302.96,-37.09C290.32,-46.96 274.43,-58.54 261.27,-67.4"/>
<polygon fill="midnightblue" stroke="midnightblue" points="305.48,-39.55 311.12,-30.58 301.12,-34.08 305.48,-39.55"/>
</g>
</g>
</svg>
