<?xml version="1.0" encoding="UTF-8" standalone="no"?>
<!DOCTYPE svg PUBLIC "-//W3C//DTD SVG 1.1//EN"
 "http://www.w3.org/Graphics/SVG/1.1/DTD/svg11.dtd">
<!-- Generated by graphviz version 2.46.0 (20210122.1329)
 -->
<!-- Title: include/SComponent/c_bg_s_shdw_draw.h Pages: 1 -->
<!--zoomable 654 -->
<svg id="main" version="1.1" xmlns="http://www.w3.org/2000/svg" xmlns:xlink="http://www.w3.org/1999/xlink" xml:space="preserve" onload="init(evt)">
<style type="text/css"><![CDATA[
.edge:hover path { stroke: red; }
.edge:hover polygon { stroke: red; fill: red; }
]]></style>
<script type="text/javascript"><![CDATA[
var edges = document.getElementsByTagName('g');
if (edges && edges.length) {
  for (var i=0;i<edges.length;i++) {
    if (edges[i].id.substr(0,4)=='edge') {
      edges[i].setAttribute('class','edge');
    }
  }
}
]]></script>
        <defs>
                <circle id="rim" cx="0" cy="0" r="7"/>
                <circle id="rim2" cx="0" cy="0" r="3.5"/>
                <g id="zoomPlus">
                        <use xlink:href="#rim" fill="#404040">
                                <set attributeName="fill" to="#808080" begin="zoomplus.mouseover" end="zoomplus.mouseout"/>
                        </use>
                        <path d="M-4,0h8M0,-4v8" fill="none" stroke="white" stroke-width="1.5" pointer-events="none"/>
                </g>
                <g id="zoomMin">
                        <use xlink:href="#rim" fill="#404040">
                                <set attributeName="fill" to="#808080" begin="zoomminus.mouseover" end="zoomminus.mouseout"/>
                        </use>
                        <path d="M-4,0h8" fill="none" stroke="white" stroke-width="1.5" pointer-events="none"/>
                </g>
                <g id="dirArrow">
                        <path fill="none" stroke="white" stroke-width="1.5" d="M0,-3.0v7 M-2.5,-0.5L0,-3.0L2.5,-0.5"/>
                </g>
               <g id="resetDef">
                       <use xlink:href="#rim2" fill="#404040">
                               <set attributeName="fill" to="#808080" begin="reset.mouseover" end="reset.mouseout"/>
                       </use>
               </g>
        </defs>

<script type="text/javascript">
var viewWidth = 548;
var viewHeight = 654;
var sectionId = 'dynsection-0';
</script>
<script xlink:href="svgpan.js"/>
<svg id="graph" class="graph">
<g id="viewport">
<title>include/SComponent/c_bg_s_shdw_draw.h</title>
<polygon fill="white" stroke="transparent" points="-4,4 -4,-650 544,-650 544,4 -4,4"/>
<!-- Node1 -->
<g id="node1" class="node">
<title>Node1</title>
<g id="a_node1"><a xlink:title=" ">
<polygon fill="#bfbfbf" stroke="black" points="163.5,-615.5 163.5,-645.5 276.5,-645.5 276.5,-615.5 163.5,-615.5"/>
<text text-anchor="start" x="171.5" y="-633.5" font-family="Helvetica,sans-Serif" font-size="10.00">include/SComponent</text>
<text text-anchor="middle" x="220" y="-622.5" font-family="Helvetica,sans-Serif" font-size="10.00">/c_bg_s_shdw_draw.h</text>
</a>
</g>
</g>
<!-- Node2 -->
<g id="node2" class="node">
<title>Node2</title>
<g id="a_node2"><a xlink:href="c__m3d__g__pla_8h.html" target="_top" xlink:title=" ">
<polygon fill="white" stroke="black" points="162,-548.5 162,-578.5 278,-578.5 278,-548.5 162,-548.5"/>
<text text-anchor="start" x="170" y="-566.5" font-family="Helvetica,sans-Serif" font-size="10.00">SComponent/c_m3d_g</text>
<text text-anchor="middle" x="220" y="-555.5" font-family="Helvetica,sans-Serif" font-size="10.00">_pla.h</text>
</a>
</g>
</g>
<!-- Node1&#45;&gt;Node2 -->
<g id="edge1" class="edge">
<title>Node1&#45;&gt;Node2</title>
<path fill="none" stroke="midnightblue" d="M220,-615.4C220,-607.64 220,-597.81 220,-588.86"/>
<polygon fill="midnightblue" stroke="midnightblue" points="223.5,-588.58 220,-578.58 216.5,-588.58 223.5,-588.58"/>
</g>
<!-- Node3 -->
<g id="node3" class="node">
<title>Node3</title>
<g id="a_node3"><a xlink:href="c__xyz_8h.html" target="_top" xlink:title=" ">
<polygon fill="white" stroke="black" points="249.5,-492.5 249.5,-511.5 356.5,-511.5 356.5,-492.5 249.5,-492.5"/>
<text text-anchor="middle" x="303" y="-499.5" font-family="Helvetica,sans-Serif" font-size="10.00">SComponent/c_xyz.h</text>
</a>
</g>
</g>
<!-- Node1&#45;&gt;Node3 -->
<g id="edge33" class="edge">
<title>Node1&#45;&gt;Node3</title>
<path fill="none" stroke="midnightblue" d="M247,-615.43C261.03,-606.77 277.23,-594.37 287,-579 297.94,-561.79 301.54,-538.38 302.65,-522.11"/>
<polygon fill="midnightblue" stroke="midnightblue" points="306.17,-521.85 303.09,-511.71 299.17,-521.55 306.17,-521.85"/>
</g>
<!-- Node5 -->
<g id="node5" class="node">
<title>Node5</title>
<g id="a_node5"><a xlink:href="global_8h.html" target="_top" xlink:title=" ">
<polygon fill="white" stroke="black" points="155,-380.5 155,-399.5 205,-399.5 205,-380.5 155,-380.5"/>
<text text-anchor="middle" x="180" y="-387.5" font-family="Helvetica,sans-Serif" font-size="10.00">global.h</text>
</a>
</g>
</g>
<!-- Node1&#45;&gt;Node5 -->
<g id="edge34" class="edge">
<title>Node1&#45;&gt;Node5</title>
<path fill="none" stroke="midnightblue" d="M190.31,-615.34C176.26,-606.92 160.86,-594.77 153,-579 124.6,-522.04 154.38,-444.09 170.75,-409.19"/>
<polygon fill="midnightblue" stroke="midnightblue" points="174.08,-410.33 175.32,-399.81 167.79,-407.27 174.08,-410.33"/>
</g>
<!-- Node2&#45;&gt;Node3 -->
<g id="edge2" class="edge">
<title>Node2&#45;&gt;Node3</title>
<path fill="none" stroke="midnightblue" d="M239.67,-548.4C252.6,-539.13 269.49,-527.03 282.57,-517.65"/>
<polygon fill="midnightblue" stroke="midnightblue" points="284.83,-520.33 290.92,-511.66 280.76,-514.64 284.83,-520.33"/>
</g>
<!-- Node2&#45;&gt;Node5 -->
<g id="edge32" class="edge">
<title>Node2&#45;&gt;Node5</title>
<path fill="none" stroke="midnightblue" d="M216.73,-548.47C209.55,-517.7 192.44,-444.33 184.36,-409.7"/>
<polygon fill="midnightblue" stroke="midnightblue" points="187.68,-408.5 182,-399.56 180.86,-410.09 187.68,-408.5"/>
</g>
<!-- Node4 -->
<g id="node4" class="node">
<title>Node4</title>
<g id="a_node4"><a xlink:href="c__math_8h.html" target="_top" xlink:title=" ">
<polygon fill="white" stroke="black" points="243,-436.5 243,-455.5 359,-455.5 359,-436.5 243,-436.5"/>
<text text-anchor="middle" x="301" y="-443.5" font-family="Helvetica,sans-Serif" font-size="10.00">SComponent/c_math.h</text>
</a>
</g>
</g>
<!-- Node3&#45;&gt;Node4 -->
<g id="edge3" class="edge">
<title>Node3&#45;&gt;Node4</title>
<path fill="none" stroke="midnightblue" d="M302.67,-492.08C302.41,-485.01 302.03,-474.86 301.7,-465.99"/>
<polygon fill="midnightblue" stroke="midnightblue" points="305.19,-465.61 301.32,-455.75 298.2,-465.87 305.19,-465.61"/>
</g>
<!-- Node3&#45;&gt;Node5 -->
<g id="edge29" class="edge">
<title>Node3&#45;&gt;Node5</title>
<path fill="none" stroke="midnightblue" d="M286.98,-492.4C272.36,-484.13 250.55,-470.75 234,-456 217.65,-441.43 202,-421.75 191.8,-407.87"/>
<polygon fill="midnightblue" stroke="midnightblue" points="194.61,-405.78 185.93,-399.7 188.92,-409.86 194.61,-405.78"/>
</g>
<!-- Node18 -->
<g id="node18" class="node">
<title>Node18</title>
<g id="a_node18"><a xlink:href="mtx__vec_8h.html" target="_top" xlink:title=" ">
<polygon fill="white" stroke="black" points="462.5,-380.5 462.5,-399.5 523.5,-399.5 523.5,-380.5 462.5,-380.5"/>
<text text-anchor="middle" x="493" y="-387.5" font-family="Helvetica,sans-Serif" font-size="10.00">mtx_vec.h</text>
</a>
</g>
</g>
<!-- Node3&#45;&gt;Node18 -->
<g id="edge30" class="edge">
<title>Node3&#45;&gt;Node18</title>
<path fill="none" stroke="midnightblue" d="M324.59,-492.44C344.84,-484.1 375.69,-470.58 401,-456 427.5,-440.73 455.96,-419.85 474.09,-405.92"/>
<polygon fill="midnightblue" stroke="midnightblue" points="476.36,-408.6 482.11,-399.7 472.07,-403.07 476.36,-408.6"/>
</g>
<!-- Node4&#45;&gt;Node5 -->
<g id="edge4" class="edge">
<title>Node4&#45;&gt;Node5</title>
<path fill="none" stroke="midnightblue" d="M281.83,-436.44C262.09,-427.64 231.11,-413.81 208.51,-403.72"/>
<polygon fill="midnightblue" stroke="midnightblue" points="209.64,-400.4 199.08,-399.52 206.79,-406.79 209.64,-400.4"/>
</g>
<!-- Node6 -->
<g id="node6" class="node">
<title>Node6</title>
<g id="a_node6"><a xlink:href="types_8h.html" target="_top" xlink:title=" ">
<polygon fill="white" stroke="black" points="251.5,-0.5 251.5,-19.5 332.5,-19.5 332.5,-0.5 251.5,-0.5"/>
<text text-anchor="middle" x="292" y="-7.5" font-family="Helvetica,sans-Serif" font-size="10.00">dolphin/types.h</text>
</a>
</g>
</g>
<!-- Node5&#45;&gt;Node6 -->
<g id="edge5" class="edge">
<title>Node5&#45;&gt;Node6</title>
<path fill="none" stroke="midnightblue" d="M154.97,-384.93C105.51,-375.32 0,-346.28 0,-273.5 0,-273.5 0,-273.5 0,-137.5 0,-33.55 157.73,-14.07 241.34,-11.04"/>
<polygon fill="midnightblue" stroke="midnightblue" points="241.51,-14.54 251.4,-10.74 241.3,-7.54 241.51,-14.54"/>
</g>
<!-- Node7 -->
<g id="node7" class="node">
<title>Node7</title>
<g id="a_node7"><a xlink:href="AR_8h.html" target="_top" xlink:title=" ">
<polygon fill="white" stroke="black" points="28.5,-263 28.5,-282 77.5,-282 77.5,-263 28.5,-263"/>
<text text-anchor="middle" x="53" y="-270" font-family="Helvetica,sans-Serif" font-size="10.00">ar/AR.h</text>
</a>
</g>
</g>
<!-- Node5&#45;&gt;Node7 -->
<g id="edge6" class="edge">
<title>Node5&#45;&gt;Node7</title>
<path fill="none" stroke="midnightblue" d="M170.45,-380.32C149.12,-360.92 97.35,-313.83 70.22,-289.16"/>
<polygon fill="midnightblue" stroke="midnightblue" points="72.41,-286.42 62.66,-282.28 67.7,-291.6 72.41,-286.42"/>
</g>
<!-- Node8 -->
<g id="node8" class="node">
<title>Node8</title>
<g id="a_node8"><a xlink:href="ARQ_8h.html" target="_top" xlink:title=" ">
<polygon fill="white" stroke="black" points="96,-263 96,-282 152,-282 152,-263 96,-263"/>
<text text-anchor="middle" x="124" y="-270" font-family="Helvetica,sans-Serif" font-size="10.00">ar/ARQ.h</text>
</a>
</g>
</g>
<!-- Node5&#45;&gt;Node8 -->
<g id="edge8" class="edge">
<title>Node5&#45;&gt;Node8</title>
<path fill="none" stroke="midnightblue" d="M175.79,-380.32C166.67,-361.51 144.92,-316.65 132.71,-291.46"/>
<polygon fill="midnightblue" stroke="midnightblue" points="135.77,-289.75 128.26,-282.28 129.47,-292.81 135.77,-289.75"/>
</g>
<!-- Node9 -->
<g id="node9" class="node">
<title>Node9</title>
<g id="a_node9"><a xlink:href="mwcc_8h.html" target="_top" xlink:title=" ">
<polygon fill="white" stroke="black" points="284,-324.5 284,-343.5 334,-343.5 334,-324.5 284,-324.5"/>
<text text-anchor="middle" x="309" y="-331.5" font-family="Helvetica,sans-Serif" font-size="10.00">mwcc.h</text>
</a>
</g>
</g>
<!-- Node5&#45;&gt;Node9 -->
<g id="edge10" class="edge">
<title>Node5&#45;&gt;Node9</title>
<path fill="none" stroke="midnightblue" d="M200.44,-380.44C221.67,-371.56 255.1,-357.56 279.25,-347.45"/>
<polygon fill="midnightblue" stroke="midnightblue" points="280.78,-350.61 288.66,-343.52 278.08,-344.15 280.78,-350.61"/>
</g>
<!-- Node10 -->
<g id="node10" class="node">
<title>Node10</title>
<g id="a_node10"><a xlink:href="OS_8h.html" target="_top" xlink:title=" ">
<polygon fill="white" stroke="black" points="138,-129 138,-148 190,-148 190,-129 138,-129"/>
<text text-anchor="middle" x="164" y="-136" font-family="Helvetica,sans-Serif" font-size="10.00">os/OS.h</text>
</a>
</g>
</g>
<!-- Node5&#45;&gt;Node10 -->
<g id="edge11" class="edge">
<title>Node5&#45;&gt;Node10</title>
<path fill="none" stroke="midnightblue" d="M179.45,-380.41C177.17,-344.8 168.41,-208.25 165.19,-158.11"/>
<polygon fill="midnightblue" stroke="midnightblue" points="168.68,-157.81 164.55,-148.05 161.7,-158.26 168.68,-157.81"/>
</g>
<!-- Node12 -->
<g id="node12" class="node">
<title>Node12</title>
<g id="a_node12"><a xlink:href="variables_8h.html" target="_top" xlink:title=" ">
<polygon fill="white" stroke="black" points="354.5,-324.5 354.5,-343.5 417.5,-343.5 417.5,-324.5 354.5,-324.5"/>
<text text-anchor="middle" x="386" y="-331.5" font-family="Helvetica,sans-Serif" font-size="10.00">variables.h</text>
</a>
</g>
</g>
<!-- Node5&#45;&gt;Node12 -->
<g id="edge15" class="edge">
<title>Node5&#45;&gt;Node12</title>
<path fill="none" stroke="midnightblue" d="M205.26,-382.38C240,-373.27 302.94,-356.77 344.61,-345.85"/>
<polygon fill="midnightblue" stroke="midnightblue" points="345.68,-349.19 354.46,-343.27 343.9,-342.42 345.68,-349.19"/>
</g>
<!-- Node7&#45;&gt;Node6 -->
<g id="edge7" class="edge">
<title>Node7&#45;&gt;Node6</title>
<path fill="none" stroke="midnightblue" d="M52.27,-262.58C50.13,-229.86 47.34,-115.25 107,-56 125.78,-37.35 193.43,-24.43 241.48,-17.36"/>
<polygon fill="midnightblue" stroke="midnightblue" points="242.01,-20.82 251.41,-15.94 241.02,-13.89 242.01,-20.82"/>
</g>
<!-- Node8&#45;&gt;Node6 -->
<g id="edge9" class="edge">
<title>Node8&#45;&gt;Node6</title>
<path fill="none" stroke="midnightblue" d="M120.88,-262.93C109.99,-231.41 77.04,-120.48 127,-56 141.02,-37.91 197.97,-25.29 241.08,-18.11"/>
<polygon fill="midnightblue" stroke="midnightblue" points="241.83,-21.54 251.15,-16.49 240.72,-14.62 241.83,-21.54"/>
</g>
<!-- Node10&#45;&gt;Node6 -->
<g id="edge12" class="edge">
<title>Node10&#45;&gt;Node6</title>
<path fill="none" stroke="midnightblue" d="M156.36,-128.81C143.35,-112.93 119.9,-78.77 137,-56 149.68,-39.11 201.16,-26.51 241.36,-19"/>
<polygon fill="midnightblue" stroke="midnightblue" points="242.08,-22.43 251.3,-17.21 240.84,-15.54 242.08,-22.43"/>
</g>
<!-- Node11 -->
<g id="node11" class="node">
<title>Node11</title>
<g id="a_node11"><a xlink:href="dvd_8h.html" target="_top" xlink:title=" ">
<polygon fill="white" stroke="black" points="146.5,-62 146.5,-81 205.5,-81 205.5,-62 146.5,-62"/>
<text text-anchor="middle" x="176" y="-69" font-family="Helvetica,sans-Serif" font-size="10.00">dvd/dvd.h</text>
</a>
</g>
</g>
<!-- Node10&#45;&gt;Node11 -->
<g id="edge13" class="edge">
<title>Node10&#45;&gt;Node11</title>
<path fill="none" stroke="midnightblue" d="M165.62,-128.73C167.38,-119.18 170.26,-103.62 172.53,-91.28"/>
<polygon fill="midnightblue" stroke="midnightblue" points="176.03,-91.6 174.41,-81.13 169.15,-90.33 176.03,-91.6"/>
</g>
<!-- Node11&#45;&gt;Node6 -->
<g id="edge14" class="edge">
<title>Node11&#45;&gt;Node6</title>
<path fill="none" stroke="midnightblue" d="M192.62,-61.98C211.92,-52.08 243.96,-35.64 266.43,-24.12"/>
<polygon fill="midnightblue" stroke="midnightblue" points="268.11,-27.19 275.41,-19.51 264.92,-20.96 268.11,-27.19"/>
</g>
<!-- Node12&#45;&gt;Node3 -->
<g id="edge28" class="edge">
<title>Node12&#45;&gt;Node3</title>
<path fill="none" stroke="midnightblue" d="M386.93,-343.7C388.75,-364.76 390.77,-419.39 368,-456 359.54,-469.6 345.29,-480.15 332.28,-487.61"/>
<polygon fill="midnightblue" stroke="midnightblue" points="330.31,-484.69 323.13,-492.49 333.61,-490.87 330.31,-484.69"/>
</g>
<!-- Node13 -->
<g id="node13" class="node">
<title>Node13</title>
<g id="a_node13"><a xlink:href="JSUList_8h.html" target="_top" xlink:title=" ">
<polygon fill="white" stroke="black" points="224,-56.5 224,-86.5 360,-86.5 360,-56.5 224,-56.5"/>
<text text-anchor="start" x="232" y="-74.5" font-family="Helvetica,sans-Serif" font-size="10.00">JSystem/JSupport/JSUList</text>
<text text-anchor="middle" x="292" y="-63.5" font-family="Helvetica,sans-Serif" font-size="10.00">/JSUList.h</text>
</a>
</g>
</g>
<!-- Node12&#45;&gt;Node13 -->
<g id="edge16" class="edge">
<title>Node12&#45;&gt;Node13</title>
<path fill="none" stroke="midnightblue" d="M368.73,-324.33C338.88,-308.36 278.06,-271.27 249,-221 227.07,-183.05 220.55,-163.21 238,-123 243.07,-111.32 252.32,-101.1 261.75,-92.98"/>
<polygon fill="midnightblue" stroke="midnightblue" points="264.02,-95.64 269.63,-86.65 259.64,-90.19 264.02,-95.64"/>
</g>
<!-- Node14 -->
<g id="node14" class="node">
<title>Node14</title>
<g id="a_node14"><a xlink:href="JUTXfb_8h.html" target="_top" xlink:title=" ">
<polygon fill="white" stroke="black" points="344.5,-257.5 344.5,-287.5 469.5,-287.5 469.5,-257.5 344.5,-257.5"/>
<text text-anchor="start" x="352.5" y="-275.5" font-family="Helvetica,sans-Serif" font-size="10.00">JSystem/JUtility/JUTXfb</text>
<text text-anchor="middle" x="407" y="-264.5" font-family="Helvetica,sans-Serif" font-size="10.00">/JUTXfb.h</text>
</a>
</g>
</g>
<!-- Node12&#45;&gt;Node14 -->
<g id="edge18" class="edge">
<title>Node12&#45;&gt;Node14</title>
<path fill="none" stroke="midnightblue" d="M389.01,-324.48C391.53,-317.32 395.27,-306.75 398.68,-297.08"/>
<polygon fill="midnightblue" stroke="midnightblue" points="402.02,-298.12 402.05,-287.52 395.42,-295.79 402.02,-298.12"/>
</g>
<!-- Node13&#45;&gt;Node6 -->
<g id="edge17" class="edge">
<title>Node13&#45;&gt;Node6</title>
<path fill="none" stroke="midnightblue" d="M292,-56.4C292,-48.47 292,-38.46 292,-29.86"/>
<polygon fill="midnightblue" stroke="midnightblue" points="295.5,-29.66 292,-19.66 288.5,-29.66 295.5,-29.66"/>
</g>
<!-- Node14&#45;&gt;Node6 -->
<g id="edge25" class="edge">
<title>Node14&#45;&gt;Node6</title>
<path fill="none" stroke="midnightblue" d="M410.46,-257.25C418.77,-219.25 435.55,-114.39 384,-56 370.6,-40.82 350.91,-30.24 333.18,-23.17"/>
<polygon fill="midnightblue" stroke="midnightblue" points="334.18,-19.81 323.58,-19.6 331.73,-26.37 334.18,-19.81"/>
</g>
<!-- Node15 -->
<g id="node15" class="node">
<title>Node15</title>
<g id="a_node15"><a xlink:href="JKRHeap_8h.html" target="_top" xlink:title=" ">
<polygon fill="white" stroke="black" points="258,-190.5 258,-220.5 394,-220.5 394,-190.5 258,-190.5"/>
<text text-anchor="start" x="266" y="-208.5" font-family="Helvetica,sans-Serif" font-size="10.00">JSystem/JKernel/JKRHeap</text>
<text text-anchor="middle" x="326" y="-197.5" font-family="Helvetica,sans-Serif" font-size="10.00">/JKRHeap.h</text>
</a>
</g>
</g>
<!-- Node14&#45;&gt;Node15 -->
<g id="edge19" class="edge">
<title>Node14&#45;&gt;Node15</title>
<path fill="none" stroke="midnightblue" d="M389.42,-257.4C378.39,-248.54 363.96,-236.96 351.65,-227.09"/>
<polygon fill="midnightblue" stroke="midnightblue" points="353.53,-224.11 343.54,-220.58 349.15,-229.56 353.53,-224.11"/>
</g>
<!-- Node17 -->
<g id="node17" class="node">
<title>Node17</title>
<g id="a_node17"><a xlink:href="GX_8h.html" target="_top" xlink:title=" ">
<polygon fill="white" stroke="black" points="457.5,-196 457.5,-215 508.5,-215 508.5,-196 457.5,-196"/>
<text text-anchor="middle" x="483" y="-203" font-family="Helvetica,sans-Serif" font-size="10.00">gx/GX.h</text>
</a>
</g>
</g>
<!-- Node14&#45;&gt;Node17 -->
<g id="edge26" class="edge">
<title>Node14&#45;&gt;Node17</title>
<path fill="none" stroke="midnightblue" d="M423.49,-257.4C435.69,-246.96 452.31,-232.75 464.88,-222"/>
<polygon fill="midnightblue" stroke="midnightblue" points="467.51,-224.35 472.83,-215.19 462.96,-219.03 467.51,-224.35"/>
</g>
<!-- Node15&#45;&gt;Node5 -->
<g id="edge24" class="edge">
<title>Node15&#45;&gt;Node5</title>
<path fill="none" stroke="midnightblue" d="M314.64,-220.69C288.07,-253.91 221.94,-336.57 193.43,-372.21"/>
<polygon fill="midnightblue" stroke="midnightblue" points="190.56,-370.2 187.04,-380.2 196.02,-374.58 190.56,-370.2"/>
</g>
<!-- Node15&#45;&gt;Node6 -->
<g id="edge23" class="edge">
<title>Node15&#45;&gt;Node6</title>
<path fill="none" stroke="midnightblue" d="M364.66,-190.37C380.77,-182.34 397.83,-170.52 407,-154 413.69,-141.95 409.27,-136.59 407,-123 401.82,-91.95 404.84,-79.6 384,-56 370.6,-40.82 350.91,-30.24 333.18,-23.17"/>
<polygon fill="midnightblue" stroke="midnightblue" points="334.18,-19.81 323.58,-19.6 331.73,-26.37 334.18,-19.81"/>
</g>
<!-- Node16 -->
<g id="node16" class="node">
<title>Node16</title>
<g id="a_node16"><a xlink:href="JKRDisposer_8h.html" target="_top" xlink:title=" ">
<polygon fill="white" stroke="black" points="246.5,-123.5 246.5,-153.5 397.5,-153.5 397.5,-123.5 246.5,-123.5"/>
<text text-anchor="start" x="254.5" y="-141.5" font-family="Helvetica,sans-Serif" font-size="10.00">JSystem/JKernel/JKRDisposer</text>
<text text-anchor="middle" x="322" y="-130.5" font-family="Helvetica,sans-Serif" font-size="10.00">/JKRDisposer.h</text>
</a>
</g>
</g>
<!-- Node15&#45;&gt;Node16 -->
<g id="edge20" class="edge">
<title>Node15&#45;&gt;Node16</title>
<path fill="none" stroke="midnightblue" d="M325.13,-190.4C324.65,-182.56 324.04,-172.6 323.48,-163.57"/>
<polygon fill="midnightblue" stroke="midnightblue" points="326.97,-163.34 322.87,-153.58 319.99,-163.77 326.97,-163.34"/>
</g>
<!-- Node16&#45;&gt;Node6 -->
<g id="edge22" class="edge">
<title>Node16&#45;&gt;Node6</title>
<path fill="none" stroke="midnightblue" d="M340.01,-123.38C358.44,-107.13 382.58,-79.66 369,-56 360.38,-40.99 344.61,-30.5 329.57,-23.46"/>
<polygon fill="midnightblue" stroke="midnightblue" points="330.94,-20.24 320.37,-19.51 328.18,-26.67 330.94,-20.24"/>
</g>
<!-- Node16&#45;&gt;Node13 -->
<g id="edge21" class="edge">
<title>Node16&#45;&gt;Node13</title>
<path fill="none" stroke="midnightblue" d="M315.49,-123.4C311.76,-115.3 306.97,-104.94 302.7,-95.69"/>
<polygon fill="midnightblue" stroke="midnightblue" points="305.87,-94.19 298.5,-86.58 299.51,-97.12 305.87,-94.19"/>
</g>
<!-- Node17&#45;&gt;Node6 -->
<g id="edge27" class="edge">
<title>Node17&#45;&gt;Node6</title>
<path fill="none" stroke="midnightblue" d="M480.82,-195.8C474.08,-170.61 451.27,-96.86 406,-56 388.19,-39.93 363.96,-29.29 342.42,-22.41"/>
<polygon fill="midnightblue" stroke="midnightblue" points="343.32,-19.02 332.74,-19.5 341.31,-25.73 343.32,-19.02"/>
</g>
<!-- Node18&#45;&gt;Node6 -->
<g id="edge31" class="edge">
<title>Node18&#45;&gt;Node6</title>
<path fill="none" stroke="midnightblue" d="M499.34,-380.22C512.17,-361.55 540,-316.15 540,-273.5 540,-273.5 540,-273.5 540,-137.5 540,-49.86 415.57,-22.9 342.99,-14.64"/>
<polygon fill="midnightblue" stroke="midnightblue" points="342.99,-11.12 332.67,-13.55 342.25,-18.08 342.99,-11.12"/>
</g>
</g>
</svg>
        <g id="navigator" transform="translate(0 0)" fill="#404254">
                <rect fill="#f2f5e9" fill-opacity="0.5" stroke="#606060" stroke-width=".5" x="0" y="0" width="60" height="60"/>
                <use id="zoomplus" xlink:href="#zoomPlus" x="17" y="9" onmousedown="handleZoom(evt,'in')"/>
                <use id="zoomminus" xlink:href="#zoomMin" x="42" y="9" onmousedown="handleZoom(evt,'out')"/>
                <use id="reset" xlink:href="#resetDef" x="30" y="36" onmousedown="handleReset()"/>
                <g id="arrowUp" xlink:href="#dirArrow" transform="translate(30 24)" onmousedown="handlePan(0,-1)">
                  <use xlink:href="#rim" fill="#404040">
                        <set attributeName="fill" to="#808080" begin="arrowUp.mouseover" end="arrowUp.mouseout"/>
                  </use>
                  <path fill="none" stroke="white" stroke-width="1.5" d="M0,-3.0v7 M-2.5,-0.5L0,-3.0L2.5,-0.5"/>
                </g>
                <g id="arrowRight" xlink:href="#dirArrow" transform="rotate(90) translate(36 -43)" onmousedown="handlePan(1,0)">
                  <use xlink:href="#rim" fill="#404040">
                        <set attributeName="fill" to="#808080" begin="arrowRight.mouseover" end="arrowRight.mouseout"/>
                  </use>
                  <path fill="none" stroke="white" stroke-width="1.5" d="M0,-3.0v7 M-2.5,-0.5L0,-3.0L2.5,-0.5"/>
                </g>
                <g id="arrowDown" xlink:href="#dirArrow" transform="rotate(180) translate(-30 -48)" onmousedown="handlePan(0,1)">
                  <use xlink:href="#rim" fill="#404040">
                        <set attributeName="fill" to="#808080" begin="arrowDown.mouseover" end="arrowDown.mouseout"/>
                  </use>
                  <path fill="none" stroke="white" stroke-width="1.5" d="M0,-3.0v7 M-2.5,-0.5L0,-3.0L2.5,-0.5"/>
                </g>
                <g id="arrowLeft" xlink:href="#dirArrow" transform="rotate(270) translate(-36 17)" onmousedown="handlePan(-1,0)">
                  <use xlink:href="#rim" fill="#404040">
                        <set attributeName="fill" to="#808080" begin="arrowLeft.mouseover" end="arrowLeft.mouseout"/>
                  </use>
                  <path fill="none" stroke="white" stroke-width="1.5" d="M0,-3.0v7 M-2.5,-0.5L0,-3.0L2.5,-0.5"/>
                </g>
        </g>
        <svg viewBox="0 0 15 15" width="100%" height="30px" preserveAspectRatio="xMaxYMin meet">
         <g id="arrow_out" transform="scale(0.3 0.3)">
          <a xlink:href="c__bg__s__shdw__draw_8h__incl_org.svg" target="_base">
           <rect id="button" ry="5" rx="5" y="6" x="6" height="38" width="38"
                fill="#f2f5e9" fill-opacity="0.5" stroke="#606060" stroke-width="1.0"/>
           <path id="arrow"
             d="M 11.500037,31.436501 C 11.940474,20.09759 22.043105,11.32322 32.158766,21.979434 L 37.068811,17.246167 C 37.068811,17.246167 37.088388,32 37.088388,32 L 22.160133,31.978069 C 22.160133,31.978069 26.997745,27.140456 26.997745,27.140456 C 18.528582,18.264221 13.291696,25.230495 11.500037,31.436501 z"
             style="fill:#404040;"/>
          </a>
         </g>
        </svg>
</svg>
