<?xml version="1.0" encoding="UTF-8" standalone="no"?>
<!DOCTYPE svg PUBLIC "-//W3C//DTD SVG 1.1//EN"
 "http://www.w3.org/Graphics/SVG/1.1/DTD/svg11.dtd">
<!-- Generated by graphviz version 2.46.0 (20210122.1329)
 -->
<!-- Title: include/SComponent/c_bg_s_gnd_chk.h Pages: 1 -->
<!--zoomable 531 -->
<svg id="main" version="1.1" xmlns="http://www.w3.org/2000/svg" xmlns:xlink="http://www.w3.org/1999/xlink" xml:space="preserve" onload="init(evt)">
<style type="text/css"><![CDATA[
.edge:hover path { stroke: red; }
.edge:hover polygon { stroke: red; fill: red; }
]]></style>
<script type="text/javascript"><![CDATA[
var edges = document.getElementsByTagName('g');
if (edges && edges.length) {
  for (var i=0;i<edges.length;i++) {
    if (edges[i].id.substr(0,4)=='edge') {
      edges[i].setAttribute('class','edge');
    }
  }
}
]]></script>
        <defs>
                <circle id="rim" cx="0" cy="0" r="7"/>
                <circle id="rim2" cx="0" cy="0" r="3.5"/>
                <g id="zoomPlus">
                        <use xlink:href="#rim" fill="#404040">
                                <set attributeName="fill" to="#808080" begin="zoomplus.mouseover" end="zoomplus.mouseout"/>
                        </use>
                        <path d="M-4,0h8M0,-4v8" fill="none" stroke="white" stroke-width="1.5" pointer-events="none"/>
                </g>
                <g id="zoomMin">
                        <use xlink:href="#rim" fill="#404040">
                                <set attributeName="fill" to="#808080" begin="zoomminus.mouseover" end="zoomminus.mouseout"/>
                        </use>
                        <path d="M-4,0h8" fill="none" stroke="white" stroke-width="1.5" pointer-events="none"/>
                </g>
                <g id="dirArrow">
                        <path fill="none" stroke="white" stroke-width="1.5" d="M0,-3.0v7 M-2.5,-0.5L0,-3.0L2.5,-0.5"/>
                </g>
               <g id="resetDef">
                       <use xlink:href="#rim2" fill="#404040">
                               <set attributeName="fill" to="#808080" begin="reset.mouseover" end="reset.mouseout"/>
                       </use>
               </g>
        </defs>

<script type="text/javascript">
var viewWidth = 740;
var viewHeight = 531;
var sectionId = 'dynsection-0';
</script>
<script xlink:href="svgpan.js"/>
<svg id="graph" class="graph">
<g id="viewport">
<title>include/SComponent/c_bg_s_gnd_chk.h</title>
<polygon fill="white" stroke="transparent" points="-4,4 -4,-527 735.5,-527 735.5,4 -4,4"/>
<!-- Node1 -->
<g id="node1" class="node">
<title>Node1</title>
<g id="a_node1"><a xlink:title=" ">
<polygon fill="#bfbfbf" stroke="black" points="526,-492.5 526,-522.5 633,-522.5 633,-492.5 526,-492.5"/>
<text text-anchor="start" x="534" y="-510.5" font-family="Helvetica,sans-Serif" font-size="10.00">include/SComponent</text>
<text text-anchor="middle" x="579.5" y="-499.5" font-family="Helvetica,sans-Serif" font-size="10.00">/c_bg_s_gnd_chk.h</text>
</a>
</g>
</g>
<!-- Node2 -->
<g id="node2" class="node">
<title>Node2</title>
<g id="a_node2"><a xlink:href="c__bg__s__chk_8h.html" target="_top" xlink:title=" ">
<polygon fill="white" stroke="black" points="415.5,-436.5 415.5,-455.5 551.5,-455.5 551.5,-436.5 415.5,-436.5"/>
<text text-anchor="middle" x="483.5" y="-443.5" font-family="Helvetica,sans-Serif" font-size="10.00">SComponent/c_bg_s_chk.h</text>
</a>
</g>
</g>
<!-- Node1&#45;&gt;Node2 -->
<g id="edge1" class="edge">
<title>Node1&#45;&gt;Node2</title>
<path fill="none" stroke="midnightblue" d="M556.75,-492.4C541.51,-482.95 521.51,-470.56 506.26,-461.11"/>
<polygon fill="midnightblue" stroke="midnightblue" points="507.81,-457.95 497.47,-455.66 504.12,-463.9 507.81,-457.95"/>
</g>
<!-- Node3 -->
<g id="node3" class="node">
<title>Node3</title>
<g id="a_node3"><a xlink:href="global_8h.html" target="_top" xlink:title=" ">
<polygon fill="white" stroke="black" points="458.5,-380.5 458.5,-399.5 508.5,-399.5 508.5,-380.5 458.5,-380.5"/>
<text text-anchor="middle" x="483.5" y="-387.5" font-family="Helvetica,sans-Serif" font-size="10.00">global.h</text>
</a>
</g>
</g>
<!-- Node1&#45;&gt;Node3 -->
<g id="edge33" class="edge">
<title>Node1&#45;&gt;Node3</title>
<path fill="none" stroke="midnightblue" d="M578.82,-492.41C577.42,-477.1 573.2,-452.62 560.5,-436 549.52,-421.64 532.54,-411.01 517.31,-403.71"/>
<polygon fill="midnightblue" stroke="midnightblue" points="518.69,-400.49 508.13,-399.58 515.82,-406.87 518.69,-400.49"/>
</g>
<!-- Node16 -->
<g id="node16" class="node">
<title>Node16</title>
<g id="a_node16"><a xlink:href="c__xyz_8h.html" target="_top" xlink:title=" ">
<polygon fill="white" stroke="black" points="543,-263 543,-282 650,-282 650,-263 543,-263"/>
<text text-anchor="middle" x="596.5" y="-270" font-family="Helvetica,sans-Serif" font-size="10.00">SComponent/c_xyz.h</text>
</a>
</g>
</g>
<!-- Node1&#45;&gt;Node16 -->
<g id="edge32" class="edge">
<title>Node1&#45;&gt;Node16</title>
<path fill="none" stroke="midnightblue" d="M586.76,-492.2C600.37,-464.48 629.29,-401.14 639.5,-344 641.06,-335.25 642.57,-332.34 639.5,-324 634.53,-310.49 624.16,-298.14 614.85,-289.03"/>
<polygon fill="midnightblue" stroke="midnightblue" points="617.15,-286.38 607.42,-282.18 612.41,-291.53 617.15,-286.38"/>
</g>
<!-- Node2&#45;&gt;Node3 -->
<g id="edge2" class="edge">
<title>Node2&#45;&gt;Node3</title>
<path fill="none" stroke="midnightblue" d="M483.5,-436.08C483.5,-429.01 483.5,-418.86 483.5,-409.99"/>
<polygon fill="midnightblue" stroke="midnightblue" points="487,-409.75 483.5,-399.75 480,-409.75 487,-409.75"/>
</g>
<!-- Node4 -->
<g id="node4" class="node">
<title>Node4</title>
<g id="a_node4"><a xlink:href="types_8h.html" target="_top" xlink:title=" ">
<polygon fill="white" stroke="black" points="206,-0.5 206,-19.5 287,-19.5 287,-0.5 206,-0.5"/>
<text text-anchor="middle" x="246.5" y="-7.5" font-family="Helvetica,sans-Serif" font-size="10.00">dolphin/types.h</text>
</a>
</g>
</g>
<!-- Node3&#45;&gt;Node4 -->
<g id="edge3" class="edge">
<title>Node3&#45;&gt;Node4</title>
<path fill="none" stroke="midnightblue" d="M487.55,-380.23C495.96,-361.22 514.5,-314.61 514.5,-273.5 514.5,-273.5 514.5,-273.5 514.5,-137.5 514.5,-95.46 500.71,-80.43 466.5,-56 439.92,-37.02 353.87,-23.6 297.6,-16.6"/>
<polygon fill="midnightblue" stroke="midnightblue" points="297.81,-13.1 287.46,-15.37 296.97,-20.05 297.81,-13.1"/>
</g>
<!-- Node5 -->
<g id="node5" class="node">
<title>Node5</title>
<g id="a_node5"><a xlink:href="AR_8h.html" target="_top" xlink:title=" ">
<polygon fill="white" stroke="black" points="0,-263 0,-282 49,-282 49,-263 0,-263"/>
<text text-anchor="middle" x="24.5" y="-270" font-family="Helvetica,sans-Serif" font-size="10.00">ar/AR.h</text>
</a>
</g>
</g>
<!-- Node3&#45;&gt;Node5 -->
<g id="edge4" class="edge">
<title>Node3&#45;&gt;Node5</title>
<path fill="none" stroke="midnightblue" d="M458.5,-388.34C382.67,-386 156.48,-376.4 91.5,-344 67.28,-331.92 47.12,-307.32 35.43,-290.62"/>
<polygon fill="midnightblue" stroke="midnightblue" points="38.32,-288.64 29.84,-282.29 32.5,-292.54 38.32,-288.64"/>
</g>
<!-- Node6 -->
<g id="node6" class="node">
<title>Node6</title>
<g id="a_node6"><a xlink:href="ARQ_8h.html" target="_top" xlink:title=" ">
<polygon fill="white" stroke="black" points="38.5,-129 38.5,-148 94.5,-148 94.5,-129 38.5,-129"/>
<text text-anchor="middle" x="66.5" y="-136" font-family="Helvetica,sans-Serif" font-size="10.00">ar/ARQ.h</text>
</a>
</g>
</g>
<!-- Node3&#45;&gt;Node6 -->
<g id="edge6" class="edge">
<title>Node3&#45;&gt;Node6</title>
<path fill="none" stroke="midnightblue" d="M458.42,-384.52C425.4,-378.1 365.99,-364.72 318.5,-344 213.4,-298.14 116.14,-195.95 80.68,-155.98"/>
<polygon fill="midnightblue" stroke="midnightblue" points="83.29,-153.65 74.07,-148.43 78.03,-158.26 83.29,-153.65"/>
</g>
<!-- Node7 -->
<g id="node7" class="node">
<title>Node7</title>
<g id="a_node7"><a xlink:href="mwcc_8h.html" target="_top" xlink:title=" ">
<polygon fill="white" stroke="black" points="580.5,-324.5 580.5,-343.5 630.5,-343.5 630.5,-324.5 580.5,-324.5"/>
<text text-anchor="middle" x="605.5" y="-331.5" font-family="Helvetica,sans-Serif" font-size="10.00">mwcc.h</text>
</a>
</g>
</g>
<!-- Node3&#45;&gt;Node7 -->
<g id="edge8" class="edge">
<title>Node3&#45;&gt;Node7</title>
<path fill="none" stroke="midnightblue" d="M502.83,-380.44C522.82,-371.6 554.24,-357.69 577.06,-347.59"/>
<polygon fill="midnightblue" stroke="midnightblue" points="578.53,-350.76 586.26,-343.52 575.7,-344.36 578.53,-350.76"/>
</g>
<!-- Node8 -->
<g id="node8" class="node">
<title>Node8</title>
<g id="a_node8"><a xlink:href="OS_8h.html" target="_top" xlink:title=" ">
<polygon fill="white" stroke="black" points="112.5,-129 112.5,-148 164.5,-148 164.5,-129 112.5,-129"/>
<text text-anchor="middle" x="138.5" y="-136" font-family="Helvetica,sans-Serif" font-size="10.00">os/OS.h</text>
</a>
</g>
</g>
<!-- Node3&#45;&gt;Node8 -->
<g id="edge9" class="edge">
<title>Node3&#45;&gt;Node8</title>
<path fill="none" stroke="midnightblue" d="M458.4,-382.5C432.26,-375.18 390.59,-361.92 357.5,-344 278,-300.96 258.16,-286.16 195.5,-221 176.49,-201.23 159.13,-174.62 148.69,-157.27"/>
<polygon fill="midnightblue" stroke="midnightblue" points="151.46,-155.09 143.38,-148.24 145.43,-158.64 151.46,-155.09"/>
</g>
<!-- Node10 -->
<g id="node10" class="node">
<title>Node10</title>
<g id="a_node10"><a xlink:href="variables_8h.html" target="_top" xlink:title=" ">
<polygon fill="white" stroke="black" points="407,-324.5 407,-343.5 470,-343.5 470,-324.5 407,-324.5"/>
<text text-anchor="middle" x="438.5" y="-331.5" font-family="Helvetica,sans-Serif" font-size="10.00">variables.h</text>
</a>
</g>
</g>
<!-- Node3&#45;&gt;Node10 -->
<g id="edge13" class="edge">
<title>Node3&#45;&gt;Node10</title>
<path fill="none" stroke="midnightblue" d="M476.07,-380.08C469.65,-372.38 460.19,-361.03 452.38,-351.65"/>
<polygon fill="midnightblue" stroke="midnightblue" points="454.88,-349.19 445.79,-343.75 449.51,-353.67 454.88,-349.19"/>
</g>
<!-- Node5&#45;&gt;Node4 -->
<g id="edge5" class="edge">
<title>Node5&#45;&gt;Node4</title>
<path fill="none" stroke="midnightblue" d="M23.06,-262.81C19.56,-239.41 12.07,-173.47 29.5,-123 41.54,-88.13 48.06,-76.85 78.5,-56 113.3,-32.16 160.16,-20.94 195.54,-15.66"/>
<polygon fill="midnightblue" stroke="midnightblue" points="196.23,-19.1 205.66,-14.27 195.28,-12.17 196.23,-19.1"/>
</g>
<!-- Node6&#45;&gt;Node4 -->
<g id="edge7" class="edge">
<title>Node6&#45;&gt;Node4</title>
<path fill="none" stroke="midnightblue" d="M67.87,-128.99C70.98,-112.48 80.12,-75.99 102.5,-56 128.22,-33.04 165.55,-21.79 195.77,-16.29"/>
<polygon fill="midnightblue" stroke="midnightblue" points="196.42,-19.72 205.71,-14.63 195.27,-12.82 196.42,-19.72"/>
</g>
<!-- Node8&#45;&gt;Node4 -->
<g id="edge10" class="edge">
<title>Node8&#45;&gt;Node4</title>
<path fill="none" stroke="midnightblue" d="M130.94,-128.87C118.08,-113.1 94.85,-79.1 111.5,-56 130.56,-29.56 165.83,-18.42 195.55,-13.83"/>
<polygon fill="midnightblue" stroke="midnightblue" points="196.34,-17.26 205.79,-12.47 195.41,-10.32 196.34,-17.26"/>
</g>
<!-- Node9 -->
<g id="node9" class="node">
<title>Node9</title>
<g id="a_node9"><a xlink:href="dvd_8h.html" target="_top" xlink:title=" ">
<polygon fill="white" stroke="black" points="121,-62 121,-81 180,-81 180,-62 121,-62"/>
<text text-anchor="middle" x="150.5" y="-69" font-family="Helvetica,sans-Serif" font-size="10.00">dvd/dvd.h</text>
</a>
</g>
</g>
<!-- Node8&#45;&gt;Node9 -->
<g id="edge11" class="edge">
<title>Node8&#45;&gt;Node9</title>
<path fill="none" stroke="midnightblue" d="M140.12,-128.73C141.88,-119.18 144.76,-103.62 147.03,-91.28"/>
<polygon fill="midnightblue" stroke="midnightblue" points="150.53,-91.6 148.91,-81.13 143.65,-90.33 150.53,-91.6"/>
</g>
<!-- Node9&#45;&gt;Node4 -->
<g id="edge12" class="edge">
<title>Node9&#45;&gt;Node4</title>
<path fill="none" stroke="midnightblue" d="M164.25,-61.98C179.87,-52.3 205.56,-36.37 224.08,-24.89"/>
<polygon fill="midnightblue" stroke="midnightblue" points="226.12,-27.75 232.77,-19.51 222.43,-21.8 226.12,-27.75"/>
</g>
<!-- Node11 -->
<g id="node11" class="node">
<title>Node11</title>
<g id="a_node11"><a xlink:href="JSUList_8h.html" target="_top" xlink:title=" ">
<polygon fill="white" stroke="black" points="274.5,-56.5 274.5,-86.5 410.5,-86.5 410.5,-56.5 274.5,-56.5"/>
<text text-anchor="start" x="282.5" y="-74.5" font-family="Helvetica,sans-Serif" font-size="10.00">JSystem/JSupport/JSUList</text>
<text text-anchor="middle" x="342.5" y="-63.5" font-family="Helvetica,sans-Serif" font-size="10.00">/JSUList.h</text>
</a>
</g>
</g>
<!-- Node10&#45;&gt;Node11 -->
<g id="edge14" class="edge">
<title>Node10&#45;&gt;Node11</title>
<path fill="none" stroke="midnightblue" d="M407,-325.63C387.33,-319.22 363.52,-307.76 351.5,-288 312.79,-224.4 404.1,-193.62 380.5,-123 377.06,-112.7 370.59,-102.81 363.96,-94.56"/>
<polygon fill="midnightblue" stroke="midnightblue" points="366.55,-92.2 357.38,-86.9 361.24,-96.76 366.55,-92.2"/>
</g>
<!-- Node12 -->
<g id="node12" class="node">
<title>Node12</title>
<g id="a_node12"><a xlink:href="JUTXfb_8h.html" target="_top" xlink:title=" ">
<polygon fill="white" stroke="black" points="361,-257.5 361,-287.5 486,-287.5 486,-257.5 361,-257.5"/>
<text text-anchor="start" x="369" y="-275.5" font-family="Helvetica,sans-Serif" font-size="10.00">JSystem/JUtility/JUTXfb</text>
<text text-anchor="middle" x="423.5" y="-264.5" font-family="Helvetica,sans-Serif" font-size="10.00">/JUTXfb.h</text>
</a>
</g>
</g>
<!-- Node10&#45;&gt;Node12 -->
<g id="edge16" class="edge">
<title>Node10&#45;&gt;Node12</title>
<path fill="none" stroke="midnightblue" d="M436.35,-324.48C434.57,-317.4 431.94,-306.97 429.52,-297.39"/>
<polygon fill="midnightblue" stroke="midnightblue" points="432.87,-296.36 427.04,-287.52 426.09,-298.08 432.87,-296.36"/>
</g>
<!-- Node10&#45;&gt;Node16 -->
<g id="edge26" class="edge">
<title>Node10&#45;&gt;Node16</title>
<path fill="none" stroke="midnightblue" d="M461.14,-324.48C488.24,-314.27 533.81,-297.11 564.5,-285.55"/>
<polygon fill="midnightblue" stroke="midnightblue" points="565.78,-288.81 573.9,-282.01 563.31,-282.26 565.78,-288.81"/>
</g>
<!-- Node11&#45;&gt;Node4 -->
<g id="edge15" class="edge">
<title>Node11&#45;&gt;Node4</title>
<path fill="none" stroke="midnightblue" d="M319.75,-56.4C304.51,-46.95 284.51,-34.56 269.26,-25.11"/>
<polygon fill="midnightblue" stroke="midnightblue" points="270.81,-21.95 260.47,-19.66 267.12,-27.9 270.81,-21.95"/>
</g>
<!-- Node12&#45;&gt;Node4 -->
<g id="edge23" class="edge">
<title>Node12&#45;&gt;Node4</title>
<path fill="none" stroke="midnightblue" d="M436.11,-257.19C443.64,-247.66 452.49,-234.45 456.5,-221 477.51,-150.43 491.48,-110.07 441.5,-56 422.31,-35.23 348.67,-22.68 297.6,-16.29"/>
<polygon fill="midnightblue" stroke="midnightblue" points="297.74,-12.79 287.39,-15.06 296.9,-19.73 297.74,-12.79"/>
</g>
<!-- Node13 -->
<g id="node13" class="node">
<title>Node13</title>
<g id="a_node13"><a xlink:href="JKRHeap_8h.html" target="_top" xlink:title=" ">
<polygon fill="white" stroke="black" points="204.5,-190.5 204.5,-220.5 340.5,-220.5 340.5,-190.5 204.5,-190.5"/>
<text text-anchor="start" x="212.5" y="-208.5" font-family="Helvetica,sans-Serif" font-size="10.00">JSystem/JKernel/JKRHeap</text>
<text text-anchor="middle" x="272.5" y="-197.5" font-family="Helvetica,sans-Serif" font-size="10.00">/JKRHeap.h</text>
</a>
</g>
</g>
<!-- Node12&#45;&gt;Node13 -->
<g id="edge17" class="edge">
<title>Node12&#45;&gt;Node13</title>
<path fill="none" stroke="midnightblue" d="M390.74,-257.4C368.38,-247.77 338.56,-234.94 314.46,-224.56"/>
<polygon fill="midnightblue" stroke="midnightblue" points="315.77,-221.32 305.2,-220.58 313,-227.75 315.77,-221.32"/>
</g>
<!-- Node15 -->
<g id="node15" class="node">
<title>Node15</title>
<g id="a_node15"><a xlink:href="GX_8h.html" target="_top" xlink:title=" ">
<polygon fill="white" stroke="black" points="397,-196 397,-215 448,-215 448,-196 397,-196"/>
<text text-anchor="middle" x="422.5" y="-203" font-family="Helvetica,sans-Serif" font-size="10.00">gx/GX.h</text>
</a>
</g>
</g>
<!-- Node12&#45;&gt;Node15 -->
<g id="edge24" class="edge">
<title>Node12&#45;&gt;Node15</title>
<path fill="none" stroke="midnightblue" d="M423.28,-257.4C423.14,-248.06 422.95,-235.71 422.79,-225.52"/>
<polygon fill="midnightblue" stroke="midnightblue" points="426.29,-225.14 422.63,-215.19 419.29,-225.25 426.29,-225.14"/>
</g>
<!-- Node13&#45;&gt;Node3 -->
<g id="edge22" class="edge">
<title>Node13&#45;&gt;Node3</title>
<path fill="none" stroke="midnightblue" d="M278.19,-220.67C285.62,-237.94 299.89,-267.37 318.5,-288 356.34,-329.94 415.68,-360.37 451.93,-376.31"/>
<polygon fill="midnightblue" stroke="midnightblue" points="450.94,-379.69 461.51,-380.42 453.7,-373.26 450.94,-379.69"/>
</g>
<!-- Node13&#45;&gt;Node4 -->
<g id="edge21" class="edge">
<title>Node13&#45;&gt;Node4</title>
<path fill="none" stroke="midnightblue" d="M246.36,-190.37C233.29,-181.76 218.76,-169.43 211.5,-154 191.45,-111.38 218.4,-56.02 235.08,-28.35"/>
<polygon fill="midnightblue" stroke="midnightblue" points="238.1,-30.11 240.45,-19.78 232.17,-26.39 238.1,-30.11"/>
</g>
<!-- Node14 -->
<g id="node14" class="node">
<title>Node14</title>
<g id="a_node14"><a xlink:href="JKRDisposer_8h.html" target="_top" xlink:title=" ">
<polygon fill="white" stroke="black" points="221,-123.5 221,-153.5 372,-153.5 372,-123.5 221,-123.5"/>
<text text-anchor="start" x="229" y="-141.5" font-family="Helvetica,sans-Serif" font-size="10.00">JSystem/JKernel/JKRDisposer</text>
<text text-anchor="middle" x="296.5" y="-130.5" font-family="Helvetica,sans-Serif" font-size="10.00">/JKRDisposer.h</text>
</a>
</g>
</g>
<!-- Node13&#45;&gt;Node14 -->
<g id="edge18" class="edge">
<title>Node13&#45;&gt;Node14</title>
<path fill="none" stroke="midnightblue" d="M277.71,-190.4C280.66,-182.39 284.44,-172.16 287.83,-162.98"/>
<polygon fill="midnightblue" stroke="midnightblue" points="291.12,-164.17 291.3,-153.58 284.56,-161.75 291.12,-164.17"/>
</g>
<!-- Node14&#45;&gt;Node4 -->
<g id="edge20" class="edge">
<title>Node14&#45;&gt;Node4</title>
<path fill="none" stroke="midnightblue" d="M286.02,-123.12C279.33,-113.34 270.92,-99.9 265.5,-87 257.61,-68.23 252.46,-45.43 249.53,-29.73"/>
<polygon fill="midnightblue" stroke="midnightblue" points="252.95,-28.96 247.79,-19.71 246.05,-30.16 252.95,-28.96"/>
</g>
<!-- Node14&#45;&gt;Node11 -->
<g id="edge19" class="edge">
<title>Node14&#45;&gt;Node11</title>
<path fill="none" stroke="midnightblue" d="M306.48,-123.4C312.39,-115.05 320,-104.29 326.71,-94.81"/>
<polygon fill="midnightblue" stroke="midnightblue" points="329.62,-96.76 332.54,-86.58 323.9,-92.72 329.62,-96.76"/>
</g>
<!-- Node15&#45;&gt;Node4 -->
<g id="edge25" class="edge">
<title>Node15&#45;&gt;Node4</title>
<path fill="none" stroke="midnightblue" d="M425.49,-195.96C433.58,-171.2 453.05,-98.5 419.5,-56 404.39,-36.86 342.67,-24.27 297.23,-17.39"/>
<polygon fill="midnightblue" stroke="midnightblue" points="297.63,-13.91 287.23,-15.93 296.62,-20.84 297.63,-13.91"/>
</g>
<!-- Node16&#45;&gt;Node3 -->
<g id="edge29" class="edge">
<title>Node16&#45;&gt;Node3</title>
<path fill="none" stroke="midnightblue" d="M588.18,-282.23C575.41,-295.6 550.19,-321.92 528.5,-344 518.9,-353.78 508.04,-364.64 499.39,-373.25"/>
<polygon fill="midnightblue" stroke="midnightblue" points="496.8,-370.89 492.17,-380.42 501.73,-375.85 496.8,-370.89"/>
</g>
<!-- Node17 -->
<g id="node17" class="node">
<title>Node17</title>
<g id="a_node17"><a xlink:href="c__math_8h.html" target="_top" xlink:title=" ">
<polygon fill="white" stroke="black" points="615.5,-196 615.5,-215 731.5,-215 731.5,-196 615.5,-196"/>
<text text-anchor="middle" x="673.5" y="-203" font-family="Helvetica,sans-Serif" font-size="10.00">SComponent/c_math.h</text>
</a>
</g>
</g>
<!-- Node16&#45;&gt;Node17 -->
<g id="edge27" class="edge">
<title>Node16&#45;&gt;Node17</title>
<path fill="none" stroke="midnightblue" d="M606.88,-262.73C619.35,-252.21 640.47,-234.38 655.59,-221.62"/>
<polygon fill="midnightblue" stroke="midnightblue" points="657.9,-224.25 663.28,-215.13 653.38,-218.9 657.9,-224.25"/>
</g>
<!-- Node18 -->
<g id="node18" class="node">
<title>Node18</title>
<g id="a_node18"><a xlink:href="mtx__vec_8h.html" target="_top" xlink:title=" ">
<polygon fill="white" stroke="black" points="546,-62 546,-81 607,-81 607,-62 546,-62"/>
<text text-anchor="middle" x="576.5" y="-69" font-family="Helvetica,sans-Serif" font-size="10.00">mtx_vec.h</text>
</a>
</g>
</g>
<!-- Node16&#45;&gt;Node18 -->
<g id="edge30" class="edge">
<title>Node16&#45;&gt;Node18</title>
<path fill="none" stroke="midnightblue" d="M595.64,-262.95C592.64,-233.1 582.59,-133.08 578.38,-91.2"/>
<polygon fill="midnightblue" stroke="midnightblue" points="581.86,-90.84 577.38,-81.24 574.9,-91.54 581.86,-90.84"/>
</g>
<!-- Node17&#45;&gt;Node3 -->
<g id="edge28" class="edge">
<title>Node17&#45;&gt;Node3</title>
<path fill="none" stroke="midnightblue" d="M674.24,-215.11C675.81,-239.32 676.67,-308.51 639.5,-344 606.8,-375.22 553.83,-384.99 518.83,-387.92"/>
<polygon fill="midnightblue" stroke="midnightblue" points="518.32,-384.45 508.59,-388.63 518.81,-391.43 518.32,-384.45"/>
</g>
<!-- Node18&#45;&gt;Node4 -->
<g id="edge31" class="edge">
<title>Node18&#45;&gt;Node4</title>
<path fill="none" stroke="midnightblue" d="M550.51,-61.95C543.43,-59.81 535.71,-57.66 528.5,-56 448.67,-37.66 354.42,-24.25 297.62,-17.04"/>
<polygon fill="midnightblue" stroke="midnightblue" points="297.82,-13.54 287.46,-15.77 296.95,-20.49 297.82,-13.54"/>
</g>
</g>
</svg>
        <g id="navigator" transform="translate(0 0)" fill="#404254">
                <rect fill="#f2f5e9" fill-opacity="0.5" stroke="#606060" stroke-width=".5" x="0" y="0" width="60" height="60"/>
                <use id="zoomplus" xlink:href="#zoomPlus" x="17" y="9" onmousedown="handleZoom(evt,'in')"/>
                <use id="zoomminus" xlink:href="#zoomMin" x="42" y="9" onmousedown="handleZoom(evt,'out')"/>
                <use id="reset" xlink:href="#resetDef" x="30" y="36" onmousedown="handleReset()"/>
                <g id="arrowUp" xlink:href="#dirArrow" transform="translate(30 24)" onmousedown="handlePan(0,-1)">
                  <use xlink:href="#rim" fill="#404040">
                        <set attributeName="fill" to="#808080" begin="arrowUp.mouseover" end="arrowUp.mouseout"/>
                  </use>
                  <path fill="none" stroke="white" stroke-width="1.5" d="M0,-3.0v7 M-2.5,-0.5L0,-3.0L2.5,-0.5"/>
                </g>
                <g id="arrowRight" xlink:href="#dirArrow" transform="rotate(90) translate(36 -43)" onmousedown="handlePan(1,0)">
                  <use xlink:href="#rim" fill="#404040">
                        <set attributeName="fill" to="#808080" begin="arrowRight.mouseover" end="arrowRight.mouseout"/>
                  </use>
                  <path fill="none" stroke="white" stroke-width="1.5" d="M0,-3.0v7 M-2.5,-0.5L0,-3.0L2.5,-0.5"/>
                </g>
                <g id="arrowDown" xlink:href="#dirArrow" transform="rotate(180) translate(-30 -48)" onmousedown="handlePan(0,1)">
                  <use xlink:href="#rim" fill="#404040">
                        <set attributeName="fill" to="#808080" begin="arrowDown.mouseover" end="arrowDown.mouseout"/>
                  </use>
                  <path fill="none" stroke="white" stroke-width="1.5" d="M0,-3.0v7 M-2.5,-0.5L0,-3.0L2.5,-0.5"/>
                </g>
                <g id="arrowLeft" xlink:href="#dirArrow" transform="rotate(270) translate(-36 17)" onmousedown="handlePan(-1,0)">
                  <use xlink:href="#rim" fill="#404040">
                        <set attributeName="fill" to="#808080" begin="arrowLeft.mouseover" end="arrowLeft.mouseout"/>
                  </use>
                  <path fill="none" stroke="white" stroke-width="1.5" d="M0,-3.0v7 M-2.5,-0.5L0,-3.0L2.5,-0.5"/>
                </g>
        </g>
        <svg viewBox="0 0 15 15" width="100%" height="30px" preserveAspectRatio="xMaxYMin meet">
         <g id="arrow_out" transform="scale(0.3 0.3)">
          <a xlink:href="c__bg__s__gnd__chk_8h__incl_org.svg" target="_base">
           <rect id="button" ry="5" rx="5" y="6" x="6" height="38" width="38"
                fill="#f2f5e9" fill-opacity="0.5" stroke="#606060" stroke-width="1.0"/>
           <path id="arrow"
             d="M 11.500037,31.436501 C 11.940474,20.09759 22.043105,11.32322 32.158766,21.979434 L 37.068811,17.246167 C 37.068811,17.246167 37.088388,32 37.088388,32 L 22.160133,31.978069 C 22.160133,31.978069 26.997745,27.140456 26.997745,27.140456 C 18.528582,18.264221 13.291696,25.230495 11.500037,31.436501 z"
             style="fill:#404040;"/>
          </a>
         </g>
        </svg>
</svg>
