<?xml version="1.0" encoding="UTF-8" standalone="no"?>
<!DOCTYPE svg PUBLIC "-//W3C//DTD SVG 1.1//EN"
 "http://www.w3.org/Graphics/SVG/1.1/DTD/svg11.dtd">
<!-- Generated by graphviz version 2.46.0 (20210122.1329)
 -->
<!-- Title: include/SComponent/c_cc_d/c_cc_d.h Pages: 1 -->
<svg width="669pt" height="721pt"
 viewBox="0.00 0.00 668.50 721.00" xmlns="http://www.w3.org/2000/svg" xmlns:xlink="http://www.w3.org/1999/xlink">
<g id="graph0" class="graph" transform="scale(1 1) rotate(0) translate(4 717)">
<title>include/SComponent/c_cc_d/c_cc_d.h</title>
<polygon fill="white" stroke="transparent" points="-4,4 -4,-717 664.5,-717 664.5,4 -4,4"/>
<!-- Node1 -->
<g id="node1" class="node">
<title>Node1</title>
<g id="a_node1"><a xlink:title=" ">
<polygon fill="#bfbfbf" stroke="black" points="381,-682.5 381,-712.5 488,-712.5 488,-682.5 381,-682.5"/>
<text text-anchor="start" x="389" y="-700.5" font-family="Helvetica,sans-Serif" font-size="10.00">include/SComponent</text>
<text text-anchor="middle" x="434.5" y="-689.5" font-family="Helvetica,sans-Serif" font-size="10.00">/c_cc_d/c_cc_d.h</text>
</a>
</g>
</g>
<!-- Node2 -->
<g id="node2" class="node">
<title>Node2</title>
<g id="a_node2"><a xlink:href="c__m3d__g__aab_8h.html" target="_top" xlink:title=" ">
<polygon fill="white" stroke="black" points="510.5,-548.5 510.5,-578.5 626.5,-578.5 626.5,-548.5 510.5,-548.5"/>
<text text-anchor="start" x="518.5" y="-566.5" font-family="Helvetica,sans-Serif" font-size="10.00">SComponent/c_m3d_g</text>
<text text-anchor="middle" x="568.5" y="-555.5" font-family="Helvetica,sans-Serif" font-size="10.00">_aab.h</text>
</a>
</g>
</g>
<!-- Node1&#45;&gt;Node2 -->
<g id="edge1" class="edge">
<title>Node1&#45;&gt;Node2</title>
<path fill="none" stroke="midnightblue" d="M448.84,-682.37C472.42,-659.15 519.49,-612.78 547.04,-585.64"/>
<polygon fill="midnightblue" stroke="midnightblue" points="549.59,-588.04 554.26,-578.52 544.68,-583.05 549.59,-588.04"/>
</g>
<!-- Node20 -->
<g id="node20" class="node">
<title>Node20</title>
<g id="a_node20"><a xlink:href="c__m3d__g__cps_8h.html" target="_top" xlink:title=" ">
<polygon fill="white" stroke="black" points="247.5,-615.5 247.5,-645.5 363.5,-645.5 363.5,-615.5 247.5,-615.5"/>
<text text-anchor="start" x="255.5" y="-633.5" font-family="Helvetica,sans-Serif" font-size="10.00">SComponent/c_m3d_g</text>
<text text-anchor="middle" x="305.5" y="-622.5" font-family="Helvetica,sans-Serif" font-size="10.00">_cps.h</text>
</a>
</g>
</g>
<!-- Node1&#45;&gt;Node20 -->
<g id="edge36" class="edge">
<title>Node1&#45;&gt;Node20</title>
<path fill="none" stroke="midnightblue" d="M406.51,-682.4C387.75,-672.94 362.83,-660.39 342.45,-650.12"/>
<polygon fill="midnightblue" stroke="midnightblue" points="343.94,-646.95 333.44,-645.58 340.79,-653.2 343.94,-646.95"/>
</g>
<!-- Node22 -->
<g id="node22" class="node">
<title>Node22</title>
<g id="a_node22"><a xlink:href="c__m3d__g__cyl_8h.html" target="_top" xlink:title=" ">
<polygon fill="white" stroke="black" points="376.5,-548.5 376.5,-578.5 492.5,-578.5 492.5,-548.5 376.5,-548.5"/>
<text text-anchor="start" x="384.5" y="-566.5" font-family="Helvetica,sans-Serif" font-size="10.00">SComponent/c_m3d_g</text>
<text text-anchor="middle" x="434.5" y="-555.5" font-family="Helvetica,sans-Serif" font-size="10.00">_cyl.h</text>
</a>
</g>
</g>
<!-- Node1&#45;&gt;Node22 -->
<g id="edge42" class="edge">
<title>Node1&#45;&gt;Node22</title>
<path fill="none" stroke="midnightblue" d="M434.5,-682.37C434.5,-660.04 434.5,-616.31 434.5,-588.85"/>
<polygon fill="midnightblue" stroke="midnightblue" points="438,-588.52 434.5,-578.52 431,-588.52 438,-588.52"/>
</g>
<!-- Node3 -->
<g id="node3" class="node">
<title>Node3</title>
<g id="a_node3"><a xlink:href="c__xyz_8h.html" target="_top" xlink:title=" ">
<polygon fill="white" stroke="black" points="295,-492.5 295,-511.5 402,-511.5 402,-492.5 295,-492.5"/>
<text text-anchor="middle" x="348.5" y="-499.5" font-family="Helvetica,sans-Serif" font-size="10.00">SComponent/c_xyz.h</text>
</a>
</g>
</g>
<!-- Node2&#45;&gt;Node3 -->
<g id="edge2" class="edge">
<title>Node2&#45;&gt;Node3</title>
<path fill="none" stroke="midnightblue" d="M516.64,-548.47C477.86,-537.99 425.54,-523.84 389.62,-514.12"/>
<polygon fill="midnightblue" stroke="midnightblue" points="390.52,-510.74 379.95,-511.51 388.69,-517.5 390.52,-510.74"/>
</g>
<!-- Node5 -->
<g id="node5" class="node">
<title>Node5</title>
<g id="a_node5"><a xlink:href="global_8h.html" target="_top" xlink:title=" ">
<polygon fill="white" stroke="black" points="399.5,-380.5 399.5,-399.5 449.5,-399.5 449.5,-380.5 399.5,-380.5"/>
<text text-anchor="middle" x="424.5" y="-387.5" font-family="Helvetica,sans-Serif" font-size="10.00">global.h</text>
</a>
</g>
</g>
<!-- Node2&#45;&gt;Node5 -->
<g id="edge35" class="edge">
<title>Node2&#45;&gt;Node5</title>
<path fill="none" stroke="midnightblue" d="M564.94,-548.28C557.97,-522.93 540.35,-469.45 508.5,-436 494.86,-421.68 475.64,-410.92 459.03,-403.52"/>
<polygon fill="midnightblue" stroke="midnightblue" points="460.19,-400.21 449.61,-399.55 457.47,-406.66 460.19,-400.21"/>
</g>
<!-- Node4 -->
<g id="node4" class="node">
<title>Node4</title>
<g id="a_node4"><a xlink:href="c__math_8h.html" target="_top" xlink:title=" ">
<polygon fill="white" stroke="black" points="366.5,-436.5 366.5,-455.5 482.5,-455.5 482.5,-436.5 366.5,-436.5"/>
<text text-anchor="middle" x="424.5" y="-443.5" font-family="Helvetica,sans-Serif" font-size="10.00">SComponent/c_math.h</text>
</a>
</g>
</g>
<!-- Node3&#45;&gt;Node4 -->
<g id="edge3" class="edge">
<title>Node3&#45;&gt;Node4</title>
<path fill="none" stroke="midnightblue" d="M360.71,-492.32C372.28,-484.11 389.88,-471.6 403.66,-461.81"/>
<polygon fill="midnightblue" stroke="midnightblue" points="405.94,-464.48 412.07,-455.83 401.89,-458.77 405.94,-464.48"/>
</g>
<!-- Node3&#45;&gt;Node5 -->
<g id="edge34" class="edge">
<title>Node3&#45;&gt;Node5</title>
<path fill="none" stroke="midnightblue" d="M347.57,-492.25C346.6,-479.02 346.51,-453.58 357.5,-436 366.13,-422.19 380.72,-411.65 394.1,-404.25"/>
<polygon fill="midnightblue" stroke="midnightblue" points="395.78,-407.32 403.07,-399.63 392.58,-401.1 395.78,-407.32"/>
</g>
<!-- Node4&#45;&gt;Node5 -->
<g id="edge4" class="edge">
<title>Node4&#45;&gt;Node5</title>
<path fill="none" stroke="midnightblue" d="M424.5,-436.08C424.5,-429.01 424.5,-418.86 424.5,-409.99"/>
<polygon fill="midnightblue" stroke="midnightblue" points="428,-409.75 424.5,-399.75 421,-409.75 428,-409.75"/>
</g>
<!-- Node6 -->
<g id="node6" class="node">
<title>Node6</title>
<g id="a_node6"><a xlink:href="types_8h.html" target="_top" xlink:title=" ">
<polygon fill="white" stroke="black" points="354,-0.5 354,-19.5 435,-19.5 435,-0.5 354,-0.5"/>
<text text-anchor="middle" x="394.5" y="-7.5" font-family="Helvetica,sans-Serif" font-size="10.00">dolphin/types.h</text>
</a>
</g>
</g>
<!-- Node5&#45;&gt;Node6 -->
<g id="edge5" class="edge">
<title>Node5&#45;&gt;Node6</title>
<path fill="none" stroke="midnightblue" d="M449.76,-388.16C510.64,-384.65 660.5,-366.56 660.5,-273.5 660.5,-273.5 660.5,-273.5 660.5,-137.5 660.5,-98.08 656.18,-80.75 625.5,-56 598.42,-34.16 505.17,-21.46 445.75,-15.41"/>
<polygon fill="midnightblue" stroke="midnightblue" points="445.73,-11.89 435.44,-14.39 445.04,-18.86 445.73,-11.89"/>
</g>
<!-- Node7 -->
<g id="node7" class="node">
<title>Node7</title>
<g id="a_node7"><a xlink:href="AR_8h.html" target="_top" xlink:title=" ">
<polygon fill="white" stroke="black" points="166,-129 166,-148 215,-148 215,-129 166,-129"/>
<text text-anchor="middle" x="190.5" y="-136" font-family="Helvetica,sans-Serif" font-size="10.00">ar/AR.h</text>
</a>
</g>
</g>
<!-- Node5&#45;&gt;Node7 -->
<g id="edge6" class="edge">
<title>Node5&#45;&gt;Node7</title>
<path fill="none" stroke="midnightblue" d="M414.51,-380.43C386.93,-356.56 308.01,-286.73 250.5,-221 232.15,-200.02 213.5,-173.75 201.97,-156.8"/>
<polygon fill="midnightblue" stroke="midnightblue" points="204.83,-154.78 196.35,-148.43 199.02,-158.69 204.83,-154.78"/>
</g>
<!-- Node8 -->
<g id="node8" class="node">
<title>Node8</title>
<g id="a_node8"><a xlink:href="ARQ_8h.html" target="_top" xlink:title=" ">
<polygon fill="white" stroke="black" points="422.5,-62 422.5,-81 478.5,-81 478.5,-62 422.5,-62"/>
<text text-anchor="middle" x="450.5" y="-69" font-family="Helvetica,sans-Serif" font-size="10.00">ar/ARQ.h</text>
</a>
</g>
</g>
<!-- Node5&#45;&gt;Node8 -->
<g id="edge8" class="edge">
<title>Node5&#45;&gt;Node8</title>
<path fill="none" stroke="midnightblue" d="M425.22,-380.2C428.73,-337.52 444,-151.6 448.95,-91.39"/>
<polygon fill="midnightblue" stroke="midnightblue" points="452.46,-91.36 449.79,-81.1 445.49,-90.78 452.46,-91.36"/>
</g>
<!-- Node9 -->
<g id="node9" class="node">
<title>Node9</title>
<g id="a_node9"><a xlink:href="functions_8h.html" target="_top" xlink:title=" ">
<polygon fill="white" stroke="black" points="491.5,-324.5 491.5,-343.5 555.5,-343.5 555.5,-324.5 491.5,-324.5"/>
<text text-anchor="middle" x="523.5" y="-331.5" font-family="Helvetica,sans-Serif" font-size="10.00">functions.h</text>
</a>
</g>
</g>
<!-- Node5&#45;&gt;Node9 -->
<g id="edge10" class="edge">
<title>Node5&#45;&gt;Node9</title>
<path fill="none" stroke="midnightblue" d="M440.41,-380.32C456.14,-371.74 480.44,-358.49 498.71,-348.52"/>
<polygon fill="midnightblue" stroke="midnightblue" points="500.53,-351.52 507.63,-343.65 497.18,-345.37 500.53,-351.52"/>
</g>
<!-- Node11 -->
<g id="node11" class="node">
<title>Node11</title>
<g id="a_node11"><a xlink:href="mwcc_8h.html" target="_top" xlink:title=" ">
<polygon fill="white" stroke="black" points="452.5,-263 452.5,-282 502.5,-282 502.5,-263 452.5,-263"/>
<text text-anchor="middle" x="477.5" y="-270" font-family="Helvetica,sans-Serif" font-size="10.00">mwcc.h</text>
</a>
</g>
</g>
<!-- Node5&#45;&gt;Node11 -->
<g id="edge18" class="edge">
<title>Node5&#45;&gt;Node11</title>
<path fill="none" stroke="midnightblue" d="M428.48,-380.32C437.12,-361.51 457.7,-316.65 469.26,-291.46"/>
<polygon fill="midnightblue" stroke="midnightblue" points="472.48,-292.83 473.47,-282.28 466.12,-289.91 472.48,-292.83"/>
</g>
<!-- Node12 -->
<g id="node12" class="node">
<title>Node12</title>
<g id="a_node12"><a xlink:href="OS_8h.html" target="_top" xlink:title=" ">
<polygon fill="white" stroke="black" points="558.5,-263 558.5,-282 610.5,-282 610.5,-263 558.5,-263"/>
<text text-anchor="middle" x="584.5" y="-270" font-family="Helvetica,sans-Serif" font-size="10.00">os/OS.h</text>
</a>
</g>
</g>
<!-- Node5&#45;&gt;Node12 -->
<g id="edge19" class="edge">
<title>Node5&#45;&gt;Node12</title>
<path fill="none" stroke="midnightblue" d="M449.7,-387.87C480.97,-385.09 533.9,-375.67 564.5,-344 577.87,-330.16 582.42,-308.06 583.91,-292.29"/>
<polygon fill="midnightblue" stroke="midnightblue" points="587.41,-292.33 584.53,-282.14 580.43,-291.91 587.41,-292.33"/>
</g>
<!-- Node14 -->
<g id="node14" class="node">
<title>Node14</title>
<g id="a_node14"><a xlink:href="variables_8h.html" target="_top" xlink:title=" ">
<polygon fill="white" stroke="black" points="125,-324.5 125,-343.5 188,-343.5 188,-324.5 125,-324.5"/>
<text text-anchor="middle" x="156.5" y="-331.5" font-family="Helvetica,sans-Serif" font-size="10.00">variables.h</text>
</a>
</g>
</g>
<!-- Node5&#45;&gt;Node14 -->
<g id="edge20" class="edge">
<title>Node5&#45;&gt;Node14</title>
<path fill="none" stroke="midnightblue" d="M399.29,-383.92C353.16,-374.63 254.77,-354.8 198.43,-343.45"/>
<polygon fill="midnightblue" stroke="midnightblue" points="198.91,-339.98 188.42,-341.43 197.53,-346.84 198.91,-339.98"/>
</g>
<!-- Node7&#45;&gt;Node6 -->
<g id="edge7" class="edge">
<title>Node7&#45;&gt;Node6</title>
<path fill="none" stroke="midnightblue" d="M209.58,-128.96C238.6,-115.93 291.34,-92.05 299.5,-87 315.19,-77.29 353.7,-45.44 376.58,-26.19"/>
<polygon fill="midnightblue" stroke="midnightblue" points="379.12,-28.63 384.51,-19.5 374.61,-23.28 379.12,-28.63"/>
</g>
<!-- Node8&#45;&gt;Node6 -->
<g id="edge9" class="edge">
<title>Node8&#45;&gt;Node6</title>
<path fill="none" stroke="midnightblue" d="M442.48,-61.98C433.91,-52.87 420.14,-38.24 409.54,-26.98"/>
<polygon fill="midnightblue" stroke="midnightblue" points="411.91,-24.39 402.51,-19.51 406.81,-29.19 411.91,-24.39"/>
</g>
<!-- Node10 -->
<g id="node10" class="node">
<title>Node10</title>
<g id="a_node10"><a xlink:href="mtx__vec_8h.html" target="_top" xlink:title=" ">
<polygon fill="white" stroke="black" points="487,-129 487,-148 548,-148 548,-129 487,-129"/>
<text text-anchor="middle" x="517.5" y="-136" font-family="Helvetica,sans-Serif" font-size="10.00">mtx_vec.h</text>
</a>
</g>
</g>
<!-- Node9&#45;&gt;Node10 -->
<g id="edge11" class="edge">
<title>Node9&#45;&gt;Node10</title>
<path fill="none" stroke="midnightblue" d="M523.23,-324.44C522.33,-295.29 519.36,-199.47 518.09,-158.43"/>
<polygon fill="midnightblue" stroke="midnightblue" points="521.58,-158.29 517.78,-148.41 514.59,-158.51 521.58,-158.29"/>
</g>
<!-- Node9&#45;&gt;Node11 -->
<g id="edge13" class="edge">
<title>Node9&#45;&gt;Node11</title>
<path fill="none" stroke="midnightblue" d="M516.91,-324.48C510.01,-315.55 499,-301.31 490.37,-290.14"/>
<polygon fill="midnightblue" stroke="midnightblue" points="492.96,-287.78 484.08,-282.01 487.43,-292.06 492.96,-287.78"/>
</g>
<!-- Node9&#45;&gt;Node12 -->
<g id="edge14" class="edge">
<title>Node9&#45;&gt;Node12</title>
<path fill="none" stroke="midnightblue" d="M532.24,-324.48C541.66,-315.28 556.86,-300.46 568.45,-289.16"/>
<polygon fill="midnightblue" stroke="midnightblue" points="571.06,-291.5 575.78,-282.01 566.17,-286.49 571.06,-291.5"/>
</g>
<!-- Node10&#45;&gt;Node6 -->
<g id="edge12" class="edge">
<title>Node10&#45;&gt;Node6</title>
<path fill="none" stroke="midnightblue" d="M516.46,-128.79C514.1,-112.57 506.94,-77.45 487.5,-56 473.78,-40.86 453.85,-30.29 435.97,-23.21"/>
<polygon fill="midnightblue" stroke="midnightblue" points="436.88,-19.82 426.29,-19.63 434.45,-26.38 436.88,-19.82"/>
</g>
<!-- Node12&#45;&gt;Node6 -->
<g id="edge15" class="edge">
<title>Node12&#45;&gt;Node6</title>
<path fill="none" stroke="midnightblue" d="M589.03,-262.88C604.99,-231.18 654.94,-119.7 603.5,-56 583.96,-31.81 500.45,-20 445.09,-14.74"/>
<polygon fill="midnightblue" stroke="midnightblue" points="445.38,-11.25 435.1,-13.83 444.75,-18.22 445.38,-11.25"/>
</g>
<!-- Node13 -->
<g id="node13" class="node">
<title>Node13</title>
<g id="a_node13"><a xlink:href="dvd_8h.html" target="_top" xlink:title=" ">
<polygon fill="white" stroke="black" points="535,-62 535,-81 594,-81 594,-62 535,-62"/>
<text text-anchor="middle" x="564.5" y="-69" font-family="Helvetica,sans-Serif" font-size="10.00">dvd/dvd.h</text>
</a>
</g>
</g>
<!-- Node12&#45;&gt;Node13 -->
<g id="edge16" class="edge">
<title>Node12&#45;&gt;Node13</title>
<path fill="none" stroke="midnightblue" d="M583.64,-262.95C580.64,-233.1 570.59,-133.08 566.38,-91.2"/>
<polygon fill="midnightblue" stroke="midnightblue" points="569.86,-90.84 565.38,-81.24 562.9,-91.54 569.86,-90.84"/>
</g>
<!-- Node13&#45;&gt;Node6 -->
<g id="edge17" class="edge">
<title>Node13&#45;&gt;Node6</title>
<path fill="none" stroke="midnightblue" d="M540.14,-61.98C510.86,-51.72 461.53,-34.46 428.5,-22.9"/>
<polygon fill="midnightblue" stroke="midnightblue" points="429.41,-19.51 418.81,-19.51 427.09,-26.12 429.41,-19.51"/>
</g>
<!-- Node14&#45;&gt;Node3 -->
<g id="edge33" class="edge">
<title>Node14&#45;&gt;Node3</title>
<path fill="none" stroke="midnightblue" d="M166.45,-343.61C197.16,-370.16 290.75,-451.07 330.42,-485.37"/>
<polygon fill="midnightblue" stroke="midnightblue" points="328.59,-488.42 338.45,-492.31 333.17,-483.12 328.59,-488.42"/>
</g>
<!-- Node15 -->
<g id="node15" class="node">
<title>Node15</title>
<g id="a_node15"><a xlink:href="JSUList_8h.html" target="_top" xlink:title=" ">
<polygon fill="white" stroke="black" points="154.5,-56.5 154.5,-86.5 290.5,-86.5 290.5,-56.5 154.5,-56.5"/>
<text text-anchor="start" x="162.5" y="-74.5" font-family="Helvetica,sans-Serif" font-size="10.00">JSystem/JSupport/JSUList</text>
<text text-anchor="middle" x="222.5" y="-63.5" font-family="Helvetica,sans-Serif" font-size="10.00">/JSUList.h</text>
</a>
</g>
</g>
<!-- Node14&#45;&gt;Node15 -->
<g id="edge21" class="edge">
<title>Node14&#45;&gt;Node15</title>
<path fill="none" stroke="midnightblue" d="M153.95,-324.39C145.6,-294.57 121.62,-193.6 156.5,-123 162.71,-110.42 173.72,-100.12 185,-92.17"/>
<polygon fill="midnightblue" stroke="midnightblue" points="187.13,-94.95 193.59,-86.55 183.3,-89.09 187.13,-94.95"/>
</g>
<!-- Node16 -->
<g id="node16" class="node">
<title>Node16</title>
<g id="a_node16"><a xlink:href="JUTXfb_8h.html" target="_top" xlink:title=" ">
<polygon fill="white" stroke="black" points="0,-257.5 0,-287.5 125,-287.5 125,-257.5 0,-257.5"/>
<text text-anchor="start" x="8" y="-275.5" font-family="Helvetica,sans-Serif" font-size="10.00">JSystem/JUtility/JUTXfb</text>
<text text-anchor="middle" x="62.5" y="-264.5" font-family="Helvetica,sans-Serif" font-size="10.00">/JUTXfb.h</text>
</a>
</g>
</g>
<!-- Node14&#45;&gt;Node16 -->
<g id="edge23" class="edge">
<title>Node14&#45;&gt;Node16</title>
<path fill="none" stroke="midnightblue" d="M143.03,-324.48C130.06,-316.27 109.99,-303.56 93.12,-292.88"/>
<polygon fill="midnightblue" stroke="midnightblue" points="94.98,-289.91 84.65,-287.52 91.23,-295.83 94.98,-289.91"/>
</g>
<!-- Node15&#45;&gt;Node6 -->
<g id="edge22" class="edge">
<title>Node15&#45;&gt;Node6</title>
<path fill="none" stroke="midnightblue" d="M263.26,-56.4C292.72,-46.21 332.09,-32.59 360,-22.93"/>
<polygon fill="midnightblue" stroke="midnightblue" points="361.42,-26.15 369.72,-19.57 359.13,-19.53 361.42,-26.15"/>
</g>
<!-- Node16&#45;&gt;Node6 -->
<g id="edge30" class="edge">
<title>Node16&#45;&gt;Node6</title>
<path fill="none" stroke="midnightblue" d="M61.09,-257.48C58.01,-218.17 55.41,-106.47 118.5,-56 152.4,-28.89 273.61,-17.69 343.61,-13.41"/>
<polygon fill="midnightblue" stroke="midnightblue" points="344.19,-16.88 353.97,-12.8 343.78,-9.89 344.19,-16.88"/>
</g>
<!-- Node17 -->
<g id="node17" class="node">
<title>Node17</title>
<g id="a_node17"><a xlink:href="JKRHeap_8h.html" target="_top" xlink:title=" ">
<polygon fill="white" stroke="black" points="259.5,-190.5 259.5,-220.5 395.5,-220.5 395.5,-190.5 259.5,-190.5"/>
<text text-anchor="start" x="267.5" y="-208.5" font-family="Helvetica,sans-Serif" font-size="10.00">JSystem/JKernel/JKRHeap</text>
<text text-anchor="middle" x="327.5" y="-197.5" font-family="Helvetica,sans-Serif" font-size="10.00">/JKRHeap.h</text>
</a>
</g>
</g>
<!-- Node16&#45;&gt;Node17 -->
<g id="edge24" class="edge">
<title>Node16&#45;&gt;Node17</title>
<path fill="none" stroke="midnightblue" d="M119.67,-257.48C160.89,-247.37 216.67,-233.68 260.07,-223.04"/>
<polygon fill="midnightblue" stroke="midnightblue" points="261.09,-226.39 269.97,-220.61 259.42,-219.59 261.09,-226.39"/>
</g>
<!-- Node19 -->
<g id="node19" class="node">
<title>Node19</title>
<g id="a_node19"><a xlink:href="GX_8h.html" target="_top" xlink:title=" ">
<polygon fill="white" stroke="black" points="74,-196 74,-215 125,-215 125,-196 74,-196"/>
<text text-anchor="middle" x="99.5" y="-203" font-family="Helvetica,sans-Serif" font-size="10.00">gx/GX.h</text>
</a>
</g>
</g>
<!-- Node16&#45;&gt;Node19 -->
<g id="edge31" class="edge">
<title>Node16&#45;&gt;Node19</title>
<path fill="none" stroke="midnightblue" d="M70.53,-257.4C76.13,-247.56 83.63,-234.38 89.6,-223.89"/>
<polygon fill="midnightblue" stroke="midnightblue" points="92.65,-225.62 94.55,-215.19 86.56,-222.15 92.65,-225.62"/>
</g>
<!-- Node17&#45;&gt;Node5 -->
<g id="edge29" class="edge">
<title>Node17&#45;&gt;Node5</title>
<path fill="none" stroke="midnightblue" d="M335.04,-220.69C352.55,-253.63 395.89,-335.17 415.09,-371.29"/>
<polygon fill="midnightblue" stroke="midnightblue" points="412.04,-373.01 419.82,-380.2 418.22,-369.72 412.04,-373.01"/>
</g>
<!-- Node17&#45;&gt;Node6 -->
<g id="edge28" class="edge">
<title>Node17&#45;&gt;Node6</title>
<path fill="none" stroke="midnightblue" d="M355.89,-190.3C369.6,-181.81 384.73,-169.61 392.5,-154 412.73,-113.39 405.1,-57.89 399.07,-29.45"/>
<polygon fill="midnightblue" stroke="midnightblue" points="402.47,-28.62 396.83,-19.66 395.65,-30.18 402.47,-28.62"/>
</g>
<!-- Node18 -->
<g id="node18" class="node">
<title>Node18</title>
<g id="a_node18"><a xlink:href="JKRDisposer_8h.html" target="_top" xlink:title=" ">
<polygon fill="white" stroke="black" points="233,-123.5 233,-153.5 384,-153.5 384,-123.5 233,-123.5"/>
<text text-anchor="start" x="241" y="-141.5" font-family="Helvetica,sans-Serif" font-size="10.00">JSystem/JKernel/JKRDisposer</text>
<text text-anchor="middle" x="308.5" y="-130.5" font-family="Helvetica,sans-Serif" font-size="10.00">/JKRDisposer.h</text>
</a>
</g>
</g>
<!-- Node17&#45;&gt;Node18 -->
<g id="edge25" class="edge">
<title>Node17&#45;&gt;Node18</title>
<path fill="none" stroke="midnightblue" d="M323.38,-190.4C321.06,-182.47 318.11,-172.38 315.45,-163.27"/>
<polygon fill="midnightblue" stroke="midnightblue" points="318.78,-162.19 312.61,-153.58 312.06,-164.16 318.78,-162.19"/>
</g>
<!-- Node18&#45;&gt;Node6 -->
<g id="edge27" class="edge">
<title>Node18&#45;&gt;Node6</title>
<path fill="none" stroke="midnightblue" d="M318.03,-123.48C333.85,-100.21 365.5,-53.66 382.7,-28.36"/>
<polygon fill="midnightblue" stroke="midnightblue" points="385.8,-30.03 388.53,-19.79 380.01,-26.09 385.8,-30.03"/>
</g>
<!-- Node18&#45;&gt;Node15 -->
<g id="edge26" class="edge">
<title>Node18&#45;&gt;Node15</title>
<path fill="none" stroke="midnightblue" d="M289.84,-123.4C278.01,-114.45 262.51,-102.74 249.36,-92.8"/>
<polygon fill="midnightblue" stroke="midnightblue" points="251.21,-89.81 241.12,-86.58 246.99,-95.4 251.21,-89.81"/>
</g>
<!-- Node19&#45;&gt;Node6 -->
<g id="edge32" class="edge">
<title>Node19&#45;&gt;Node6</title>
<path fill="none" stroke="midnightblue" d="M99.28,-195.81C99.15,-170.03 102.54,-93.39 145.5,-56 174.42,-30.83 279.64,-19.07 343.69,-14.12"/>
<polygon fill="midnightblue" stroke="midnightblue" points="344.27,-17.59 353.98,-13.36 343.75,-10.61 344.27,-17.59"/>
</g>
<!-- Node20&#45;&gt;Node3 -->
<g id="edge40" class="edge">
<title>Node20&#45;&gt;Node3</title>
<path fill="none" stroke="midnightblue" d="M313.21,-615.24C318.36,-605.3 324.98,-591.61 329.5,-579 336.37,-559.84 341.7,-537.1 344.95,-521.52"/>
<polygon fill="midnightblue" stroke="midnightblue" points="348.4,-522.09 346.93,-511.6 341.54,-520.72 348.4,-522.09"/>
</g>
<!-- Node20&#45;&gt;Node5 -->
<g id="edge41" class="edge">
<title>Node20&#45;&gt;Node5</title>
<path fill="none" stroke="midnightblue" d="M247.4,-616.58C227.47,-609.07 207.24,-597.31 195.5,-579 188.06,-567.4 190.04,-560.65 195.5,-548 230.87,-466.14 334.7,-420.61 389.58,-401.64"/>
<polygon fill="midnightblue" stroke="midnightblue" points="390.86,-404.91 399.23,-398.41 388.63,-398.27 390.86,-404.91"/>
</g>
<!-- Node21 -->
<g id="node21" class="node">
<title>Node21</title>
<g id="a_node21"><a xlink:href="c__m3d__g__lin_8h.html" target="_top" xlink:title=" ">
<polygon fill="white" stroke="black" points="204.5,-548.5 204.5,-578.5 320.5,-578.5 320.5,-548.5 204.5,-548.5"/>
<text text-anchor="start" x="212.5" y="-566.5" font-family="Helvetica,sans-Serif" font-size="10.00">SComponent/c_m3d_g</text>
<text text-anchor="middle" x="262.5" y="-555.5" font-family="Helvetica,sans-Serif" font-size="10.00">_lin.h</text>
</a>
</g>
</g>
<!-- Node20&#45;&gt;Node21 -->
<g id="edge37" class="edge">
<title>Node20&#45;&gt;Node21</title>
<path fill="none" stroke="midnightblue" d="M296.17,-615.4C290.7,-607.13 283.67,-596.51 277.45,-587.1"/>
<polygon fill="midnightblue" stroke="midnightblue" points="280.25,-584.99 271.81,-578.58 274.41,-588.85 280.25,-584.99"/>
</g>
<!-- Node21&#45;&gt;Node3 -->
<g id="edge38" class="edge">
<title>Node21&#45;&gt;Node3</title>
<path fill="none" stroke="midnightblue" d="M282.88,-548.4C296.41,-539.04 314.11,-526.79 327.72,-517.38"/>
<polygon fill="midnightblue" stroke="midnightblue" points="329.75,-520.23 335.99,-511.66 325.77,-514.47 329.75,-520.23"/>
</g>
<!-- Node21&#45;&gt;Node5 -->
<g id="edge39" class="edge">
<title>Node21&#45;&gt;Node5</title>
<path fill="none" stroke="midnightblue" d="M264.91,-548.33C267.93,-533.4 274.15,-509.65 285.5,-492 312.41,-450.17 363.24,-419.98 395.41,-404.02"/>
<polygon fill="midnightblue" stroke="midnightblue" points="397.26,-407.01 404.75,-399.52 394.22,-400.7 397.26,-407.01"/>
</g>
<!-- Node22&#45;&gt;Node3 -->
<g id="edge43" class="edge">
<title>Node22&#45;&gt;Node3</title>
<path fill="none" stroke="midnightblue" d="M414.12,-548.4C400.59,-539.04 382.89,-526.79 369.28,-517.38"/>
<polygon fill="midnightblue" stroke="midnightblue" points="371.23,-514.47 361.01,-511.66 367.25,-520.23 371.23,-514.47"/>
</g>
<!-- Node22&#45;&gt;Node5 -->
<g id="edge44" class="edge">
<title>Node22&#45;&gt;Node5</title>
<path fill="none" stroke="midnightblue" d="M449.68,-548.17C472.93,-524.4 512.57,-475.54 491.5,-436 483.95,-421.83 469.74,-411.33 456.34,-404.06"/>
<polygon fill="midnightblue" stroke="midnightblue" points="457.8,-400.87 447.29,-399.53 454.67,-407.13 457.8,-400.87"/>
</g>
</g>
</svg>
