<?xml version="1.0" encoding="UTF-8" standalone="no"?>
<!DOCTYPE svg PUBLIC "-//W3C//DTD SVG 1.1//EN"
 "http://www.w3.org/Graphics/SVG/1.1/DTD/svg11.dtd">
<!-- Generated by graphviz version 2.46.0 (20210122.1329)
 -->
<!-- Title: include/SComponent/c_cc_d/c_cc_d.h Pages: 1 -->
<!--zoomable 721 -->
<svg id="main" version="1.1" xmlns="http://www.w3.org/2000/svg" xmlns:xlink="http://www.w3.org/1999/xlink" xml:space="preserve" onload="init(evt)">
<style type="text/css"><![CDATA[
.edge:hover path { stroke: red; }
.edge:hover polygon { stroke: red; fill: red; }
]]></style>
<script type="text/javascript"><![CDATA[
var edges = document.getElementsByTagName('g');
if (edges && edges.length) {
  for (var i=0;i<edges.length;i++) {
    if (edges[i].id.substr(0,4)=='edge') {
      edges[i].setAttribute('class','edge');
    }
  }
}
]]></script>
        <defs>
                <circle id="rim" cx="0" cy="0" r="7"/>
                <circle id="rim2" cx="0" cy="0" r="3.5"/>
                <g id="zoomPlus">
                        <use xlink:href="#rim" fill="#404040">
                                <set attributeName="fill" to="#808080" begin="zoomplus.mouseover" end="zoomplus.mouseout"/>
                        </use>
                        <path d="M-4,0h8M0,-4v8" fill="none" stroke="white" stroke-width="1.5" pointer-events="none"/>
                </g>
                <g id="zoomMin">
                        <use xlink:href="#rim" fill="#404040">
                                <set attributeName="fill" to="#808080" begin="zoomminus.mouseover" end="zoomminus.mouseout"/>
                        </use>
                        <path d="M-4,0h8" fill="none" stroke="white" stroke-width="1.5" pointer-events="none"/>
                </g>
                <g id="dirArrow">
                        <path fill="none" stroke="white" stroke-width="1.5" d="M0,-3.0v7 M-2.5,-0.5L0,-3.0L2.5,-0.5"/>
                </g>
               <g id="resetDef">
                       <use xlink:href="#rim2" fill="#404040">
                               <set attributeName="fill" to="#808080" begin="reset.mouseover" end="reset.mouseout"/>
                       </use>
               </g>
        </defs>

<script type="text/javascript">
var viewWidth = 602;
var viewHeight = 721;
var sectionId = 'dynsection-0';
</script>
<script xlink:href="svgpan.js"/>
<svg id="graph" class="graph">
<g id="viewport">
<title>include/SComponent/c_cc_d/c_cc_d.h</title>
<polygon fill="white" stroke="transparent" points="-4,4 -4,-717 597.5,-717 597.5,4 -4,4"/>
<!-- Node1 -->
<g id="node1" class="node">
<title>Node1</title>
<g id="a_node1"><a xlink:title=" ">
<polygon fill="#bfbfbf" stroke="black" points="164.5,-682.5 164.5,-712.5 271.5,-712.5 271.5,-682.5 164.5,-682.5"/>
<text text-anchor="start" x="172.5" y="-700.5" font-family="Helvetica,sans-Serif" font-size="10.00">include/SComponent</text>
<text text-anchor="middle" x="218" y="-689.5" font-family="Helvetica,sans-Serif" font-size="10.00">/c_cc_d/c_cc_d.h</text>
</a>
</g>
</g>
<!-- Node2 -->
<g id="node2" class="node">
<title>Node2</title>
<g id="a_node2"><a xlink:href="c__m3d__g__aab_8h.html" target="_top" xlink:title=" ">
<polygon fill="white" stroke="black" points="160,-548.5 160,-578.5 276,-578.5 276,-548.5 160,-548.5"/>
<text text-anchor="start" x="168" y="-566.5" font-family="Helvetica,sans-Serif" font-size="10.00">SComponent/c_m3d_g</text>
<text text-anchor="middle" x="218" y="-555.5" font-family="Helvetica,sans-Serif" font-size="10.00">_aab.h</text>
</a>
</g>
</g>
<!-- Node1&#45;&gt;Node2 -->
<g id="edge1" class="edge">
<title>Node1&#45;&gt;Node2</title>
<path fill="none" stroke="midnightblue" d="M218,-682.37C218,-660.04 218,-616.31 218,-588.85"/>
<polygon fill="midnightblue" stroke="midnightblue" points="221.5,-588.52 218,-578.52 214.5,-588.52 221.5,-588.52"/>
</g>
<!-- Node19 -->
<g id="node19" class="node">
<title>Node19</title>
<g id="a_node19"><a xlink:href="c__m3d__g__cps_8h.html" target="_top" xlink:title=" ">
<polygon fill="white" stroke="black" points="289,-615.5 289,-645.5 405,-645.5 405,-615.5 289,-615.5"/>
<text text-anchor="start" x="297" y="-633.5" font-family="Helvetica,sans-Serif" font-size="10.00">SComponent/c_m3d_g</text>
<text text-anchor="middle" x="347" y="-622.5" font-family="Helvetica,sans-Serif" font-size="10.00">_cps.h</text>
</a>
</g>
</g>
<!-- Node1&#45;&gt;Node19 -->
<g id="edge33" class="edge">
<title>Node1&#45;&gt;Node19</title>
<path fill="none" stroke="midnightblue" d="M245.99,-682.4C264.75,-672.94 289.67,-660.39 310.05,-650.12"/>
<polygon fill="midnightblue" stroke="midnightblue" points="311.71,-653.2 319.06,-645.58 308.56,-646.95 311.71,-653.2"/>
</g>
<!-- Node21 -->
<g id="node21" class="node">
<title>Node21</title>
<g id="a_node21"><a xlink:href="c__m3d__g__cyl_8h.html" target="_top" xlink:title=" ">
<polygon fill="white" stroke="black" points="26,-548.5 26,-578.5 142,-578.5 142,-548.5 26,-548.5"/>
<text text-anchor="start" x="34" y="-566.5" font-family="Helvetica,sans-Serif" font-size="10.00">SComponent/c_m3d_g</text>
<text text-anchor="middle" x="84" y="-555.5" font-family="Helvetica,sans-Serif" font-size="10.00">_cyl.h</text>
</a>
</g>
</g>
<!-- Node1&#45;&gt;Node21 -->
<g id="edge39" class="edge">
<title>Node1&#45;&gt;Node21</title>
<path fill="none" stroke="midnightblue" d="M203.66,-682.37C180.08,-659.15 133.01,-612.78 105.46,-585.64"/>
<polygon fill="midnightblue" stroke="midnightblue" points="107.82,-583.05 98.24,-578.52 102.91,-588.04 107.82,-583.05"/>
</g>
<!-- Node3 -->
<g id="node3" class="node">
<title>Node3</title>
<g id="a_node3"><a xlink:href="c__xyz_8h.html" target="_top" xlink:title=" ">
<polygon fill="white" stroke="black" points="189.5,-492.5 189.5,-511.5 296.5,-511.5 296.5,-492.5 189.5,-492.5"/>
<text text-anchor="middle" x="243" y="-499.5" font-family="Helvetica,sans-Serif" font-size="10.00">SComponent/c_xyz.h</text>
</a>
</g>
</g>
<!-- Node2&#45;&gt;Node3 -->
<g id="edge2" class="edge">
<title>Node2&#45;&gt;Node3</title>
<path fill="none" stroke="midnightblue" d="M223.92,-548.4C227.37,-540.2 231.75,-529.78 235.44,-520.99"/>
<polygon fill="midnightblue" stroke="midnightblue" points="238.72,-522.23 239.36,-511.66 232.26,-519.52 238.72,-522.23"/>
</g>
<!-- Node5 -->
<g id="node5" class="node">
<title>Node5</title>
<g id="a_node5"><a xlink:href="global_8h.html" target="_top" xlink:title=" ">
<polygon fill="white" stroke="black" points="333,-380.5 333,-399.5 383,-399.5 383,-380.5 333,-380.5"/>
<text text-anchor="middle" x="358" y="-387.5" font-family="Helvetica,sans-Serif" font-size="10.00">global.h</text>
</a>
</g>
</g>
<!-- Node2&#45;&gt;Node5 -->
<g id="edge32" class="edge">
<title>Node2&#45;&gt;Node5</title>
<path fill="none" stroke="midnightblue" d="M201.4,-548.26C186.97,-534.08 169.85,-511.64 180,-492 208.25,-437.36 279.69,-410.43 322.99,-398.72"/>
<polygon fill="midnightblue" stroke="midnightblue" points="324.01,-402.07 332.83,-396.19 322.27,-395.29 324.01,-402.07"/>
</g>
<!-- Node4 -->
<g id="node4" class="node">
<title>Node4</title>
<g id="a_node4"><a xlink:href="c__math_8h.html" target="_top" xlink:title=" ">
<polygon fill="white" stroke="black" points="287,-436.5 287,-455.5 403,-455.5 403,-436.5 287,-436.5"/>
<text text-anchor="middle" x="345" y="-443.5" font-family="Helvetica,sans-Serif" font-size="10.00">SComponent/c_math.h</text>
</a>
</g>
</g>
<!-- Node3&#45;&gt;Node4 -->
<g id="edge3" class="edge">
<title>Node3&#45;&gt;Node4</title>
<path fill="none" stroke="midnightblue" d="M259.39,-492.32C275.67,-483.7 300.87,-470.36 319.72,-460.39"/>
<polygon fill="midnightblue" stroke="midnightblue" points="321.45,-463.43 328.65,-455.65 318.18,-457.24 321.45,-463.43"/>
</g>
<!-- Node3&#45;&gt;Node5 -->
<g id="edge29" class="edge">
<title>Node3&#45;&gt;Node5</title>
<path fill="none" stroke="midnightblue" d="M245.83,-492.46C250.63,-479.05 261.48,-452.83 278,-436 291.5,-422.25 310.09,-411.45 325.95,-403.88"/>
<polygon fill="midnightblue" stroke="midnightblue" points="327.75,-406.91 335.41,-399.59 324.86,-400.54 327.75,-406.91"/>
</g>
<!-- Node18 -->
<g id="node18" class="node">
<title>Node18</title>
<g id="a_node18"><a xlink:href="mtx__vec_8h.html" target="_top" xlink:title=" ">
<polygon fill="white" stroke="black" points="30.5,-380.5 30.5,-399.5 91.5,-399.5 91.5,-380.5 30.5,-380.5"/>
<text text-anchor="middle" x="61" y="-387.5" font-family="Helvetica,sans-Serif" font-size="10.00">mtx_vec.h</text>
</a>
</g>
</g>
<!-- Node3&#45;&gt;Node18 -->
<g id="edge30" class="edge">
<title>Node3&#45;&gt;Node18</title>
<path fill="none" stroke="midnightblue" d="M228.72,-492.37C197.35,-473.41 122.22,-428 84.07,-404.94"/>
<polygon fill="midnightblue" stroke="midnightblue" points="85.58,-401.77 75.21,-399.59 81.96,-407.76 85.58,-401.77"/>
</g>
<!-- Node4&#45;&gt;Node5 -->
<g id="edge4" class="edge">
<title>Node4&#45;&gt;Node5</title>
<path fill="none" stroke="midnightblue" d="M347.15,-436.08C348.87,-428.93 351.35,-418.64 353.5,-409.69"/>
<polygon fill="midnightblue" stroke="midnightblue" points="356.96,-410.29 355.89,-399.75 350.15,-408.65 356.96,-410.29"/>
</g>
<!-- Node6 -->
<g id="node6" class="node">
<title>Node6</title>
<g id="a_node6"><a xlink:href="types_8h.html" target="_top" xlink:title=" ">
<polygon fill="white" stroke="black" points="313.5,-0.5 313.5,-19.5 394.5,-19.5 394.5,-0.5 313.5,-0.5"/>
<text text-anchor="middle" x="354" y="-7.5" font-family="Helvetica,sans-Serif" font-size="10.00">dolphin/types.h</text>
</a>
</g>
</g>
<!-- Node5&#45;&gt;Node6 -->
<g id="edge5" class="edge">
<title>Node5&#45;&gt;Node6</title>
<path fill="none" stroke="midnightblue" d="M358.44,-380.11C360.23,-343.77 366.89,-202.93 369,-87 369.25,-73.22 371.21,-69.6 369,-56 367.53,-46.96 364.51,-37.28 361.56,-29.22"/>
<polygon fill="midnightblue" stroke="midnightblue" points="364.76,-27.79 357.86,-19.75 358.24,-30.34 364.76,-27.79"/>
</g>
<!-- Node7 -->
<g id="node7" class="node">
<title>Node7</title>
<g id="a_node7"><a xlink:href="AR_8h.html" target="_top" xlink:title=" ">
<polygon fill="white" stroke="black" points="388.5,-263 388.5,-282 437.5,-282 437.5,-263 388.5,-263"/>
<text text-anchor="middle" x="413" y="-270" font-family="Helvetica,sans-Serif" font-size="10.00">ar/AR.h</text>
</a>
</g>
</g>
<!-- Node5&#45;&gt;Node7 -->
<g id="edge6" class="edge">
<title>Node5&#45;&gt;Node7</title>
<path fill="none" stroke="midnightblue" d="M362.13,-380.32C371.09,-361.51 392.45,-316.65 404.45,-291.46"/>
<polygon fill="midnightblue" stroke="midnightblue" points="407.68,-292.82 408.82,-282.28 401.36,-289.81 407.68,-292.82"/>
</g>
<!-- Node8 -->
<g id="node8" class="node">
<title>Node8</title>
<g id="a_node8"><a xlink:href="ARQ_8h.html" target="_top" xlink:title=" ">
<polygon fill="white" stroke="black" points="456,-263 456,-282 512,-282 512,-263 456,-263"/>
<text text-anchor="middle" x="484" y="-270" font-family="Helvetica,sans-Serif" font-size="10.00">ar/ARQ.h</text>
</a>
</g>
</g>
<!-- Node5&#45;&gt;Node8 -->
<g id="edge8" class="edge">
<title>Node5&#45;&gt;Node8</title>
<path fill="none" stroke="midnightblue" d="M383.13,-387.98C412.58,-385.29 460.23,-375.92 483,-344 493.64,-329.09 492.18,-307.51 489.13,-292.16"/>
<polygon fill="midnightblue" stroke="midnightblue" points="492.5,-291.19 486.78,-282.27 485.69,-292.81 492.5,-291.19"/>
</g>
<!-- Node9 -->
<g id="node9" class="node">
<title>Node9</title>
<g id="a_node9"><a xlink:href="mwcc_8h.html" target="_top" xlink:title=" ">
<polygon fill="white" stroke="black" points="424,-324.5 424,-343.5 474,-343.5 474,-324.5 424,-324.5"/>
<text text-anchor="middle" x="449" y="-331.5" font-family="Helvetica,sans-Serif" font-size="10.00">mwcc.h</text>
</a>
</g>
</g>
<!-- Node5&#45;&gt;Node9 -->
<g id="edge10" class="edge">
<title>Node5&#45;&gt;Node9</title>
<path fill="none" stroke="midnightblue" d="M372.62,-380.32C386.95,-371.82 409.01,-358.73 425.75,-348.8"/>
<polygon fill="midnightblue" stroke="midnightblue" points="427.6,-351.77 434.42,-343.65 424.03,-345.75 427.6,-351.77"/>
</g>
<!-- Node10 -->
<g id="node10" class="node">
<title>Node10</title>
<g id="a_node10"><a xlink:href="OS_8h.html" target="_top" xlink:title=" ">
<polygon fill="white" stroke="black" points="514,-129 514,-148 566,-148 566,-129 514,-129"/>
<text text-anchor="middle" x="540" y="-136" font-family="Helvetica,sans-Serif" font-size="10.00">os/OS.h</text>
</a>
</g>
</g>
<!-- Node5&#45;&gt;Node10 -->
<g id="edge11" class="edge">
<title>Node5&#45;&gt;Node10</title>
<path fill="none" stroke="midnightblue" d="M383.14,-387.56C414.42,-384.47 467.65,-374.72 500,-344 552.17,-294.47 547.43,-198.51 542.71,-158.13"/>
<polygon fill="midnightblue" stroke="midnightblue" points="546.17,-157.55 541.4,-148.09 539.22,-158.46 546.17,-157.55"/>
</g>
<!-- Node12 -->
<g id="node12" class="node">
<title>Node12</title>
<g id="a_node12"><a xlink:href="variables_8h.html" target="_top" xlink:title=" ">
<polygon fill="white" stroke="black" points="176.5,-324.5 176.5,-343.5 239.5,-343.5 239.5,-324.5 176.5,-324.5"/>
<text text-anchor="middle" x="208" y="-331.5" font-family="Helvetica,sans-Serif" font-size="10.00">variables.h</text>
</a>
</g>
</g>
<!-- Node5&#45;&gt;Node12 -->
<g id="edge15" class="edge">
<title>Node5&#45;&gt;Node12</title>
<path fill="none" stroke="midnightblue" d="M334.23,-380.44C309.11,-371.4 269.29,-357.06 241.1,-346.92"/>
<polygon fill="midnightblue" stroke="midnightblue" points="242.25,-343.61 231.66,-343.52 239.88,-350.2 242.25,-343.61"/>
</g>
<!-- Node7&#45;&gt;Node6 -->
<g id="edge7" class="edge">
<title>Node7&#45;&gt;Node6</title>
<path fill="none" stroke="midnightblue" d="M415.09,-262.71C421.86,-232.22 440.8,-128.98 406,-56 400.06,-43.54 388.88,-33.16 378.4,-25.51"/>
<polygon fill="midnightblue" stroke="midnightblue" points="380.14,-22.46 369.9,-19.75 376.21,-28.26 380.14,-22.46"/>
</g>
<!-- Node8&#45;&gt;Node6 -->
<g id="edge9" class="edge">
<title>Node8&#45;&gt;Node6</title>
<path fill="none" stroke="midnightblue" d="M483.79,-262.73C482.64,-231.47 475.04,-123.69 425,-56 414.75,-42.14 398.85,-31.49 384.68,-24.04"/>
<polygon fill="midnightblue" stroke="midnightblue" points="386.22,-20.89 375.71,-19.6 383.12,-27.17 386.22,-20.89"/>
</g>
<!-- Node10&#45;&gt;Node6 -->
<g id="edge12" class="edge">
<title>Node10&#45;&gt;Node6</title>
<path fill="none" stroke="midnightblue" d="M536.06,-128.78C528.15,-112.24 508.78,-76.16 482,-56 459.24,-38.87 429.41,-27.88 404.28,-21.05"/>
<polygon fill="midnightblue" stroke="midnightblue" points="405.1,-17.65 394.55,-18.55 403.36,-24.43 405.1,-17.65"/>
</g>
<!-- Node11 -->
<g id="node11" class="node">
<title>Node11</title>
<g id="a_node11"><a xlink:href="dvd_8h.html" target="_top" xlink:title=" ">
<polygon fill="white" stroke="black" points="534.5,-62 534.5,-81 593.5,-81 593.5,-62 534.5,-62"/>
<text text-anchor="middle" x="564" y="-69" font-family="Helvetica,sans-Serif" font-size="10.00">dvd/dvd.h</text>
</a>
</g>
</g>
<!-- Node10&#45;&gt;Node11 -->
<g id="edge13" class="edge">
<title>Node10&#45;&gt;Node11</title>
<path fill="none" stroke="midnightblue" d="M543.24,-128.73C546.84,-118.99 552.75,-102.98 557.34,-90.53"/>
<polygon fill="midnightblue" stroke="midnightblue" points="560.63,-91.72 560.81,-81.13 554.07,-89.3 560.63,-91.72"/>
</g>
<!-- Node11&#45;&gt;Node6 -->
<g id="edge14" class="edge">
<title>Node11&#45;&gt;Node6</title>
<path fill="none" stroke="midnightblue" d="M538.94,-61.99C532.77,-59.96 526.16,-57.85 520,-56 478.66,-43.59 431.08,-30.85 397.49,-22.11"/>
<polygon fill="midnightblue" stroke="midnightblue" points="398.09,-18.65 387.53,-19.53 396.34,-25.42 398.09,-18.65"/>
</g>
<!-- Node12&#45;&gt;Node3 -->
<g id="edge28" class="edge">
<title>Node12&#45;&gt;Node3</title>
<path fill="none" stroke="midnightblue" d="M209.81,-343.57C215.22,-369.23 231.39,-445.92 238.98,-481.93"/>
<polygon fill="midnightblue" stroke="midnightblue" points="235.63,-483.01 241.12,-492.08 242.48,-481.57 235.63,-483.01"/>
</g>
<!-- Node13 -->
<g id="node13" class="node">
<title>Node13</title>
<g id="a_node13"><a xlink:href="JSUList_8h.html" target="_top" xlink:title=" ">
<polygon fill="white" stroke="black" points="152,-56.5 152,-86.5 288,-86.5 288,-56.5 152,-56.5"/>
<text text-anchor="start" x="160" y="-74.5" font-family="Helvetica,sans-Serif" font-size="10.00">JSystem/JSupport/JSUList</text>
<text text-anchor="middle" x="220" y="-63.5" font-family="Helvetica,sans-Serif" font-size="10.00">/JSUList.h</text>
</a>
</g>
</g>
<!-- Node12&#45;&gt;Node13 -->
<g id="edge16" class="edge">
<title>Node12&#45;&gt;Node13</title>
<path fill="none" stroke="midnightblue" d="M202.57,-324.2C185.02,-294.58 132.81,-196.25 165,-123 170.17,-111.22 179.6,-100.99 189.2,-92.87"/>
<polygon fill="midnightblue" stroke="midnightblue" points="191.53,-95.5 197.22,-86.56 187.2,-90 191.53,-95.5"/>
</g>
<!-- Node14 -->
<g id="node14" class="node">
<title>Node14</title>
<g id="a_node14"><a xlink:href="JUTXfb_8h.html" target="_top" xlink:title=" ">
<polygon fill="white" stroke="black" points="28.5,-257.5 28.5,-287.5 153.5,-287.5 153.5,-257.5 28.5,-257.5"/>
<text text-anchor="start" x="36.5" y="-275.5" font-family="Helvetica,sans-Serif" font-size="10.00">JSystem/JUtility/JUTXfb</text>
<text text-anchor="middle" x="91" y="-264.5" font-family="Helvetica,sans-Serif" font-size="10.00">/JUTXfb.h</text>
</a>
</g>
</g>
<!-- Node12&#45;&gt;Node14 -->
<g id="edge18" class="edge">
<title>Node12&#45;&gt;Node14</title>
<path fill="none" stroke="midnightblue" d="M191.24,-324.48C174.72,-316.08 148.95,-302.97 127.68,-292.15"/>
<polygon fill="midnightblue" stroke="midnightblue" points="129.07,-288.94 118.57,-287.52 125.9,-295.18 129.07,-288.94"/>
</g>
<!-- Node13&#45;&gt;Node6 -->
<g id="edge17" class="edge">
<title>Node13&#45;&gt;Node6</title>
<path fill="none" stroke="midnightblue" d="M251.76,-56.4C274.04,-46.51 303.59,-33.38 325.19,-23.79"/>
<polygon fill="midnightblue" stroke="midnightblue" points="326.78,-26.91 334.5,-19.66 323.94,-20.52 326.78,-26.91"/>
</g>
<!-- Node14&#45;&gt;Node6 -->
<g id="edge25" class="edge">
<title>Node14&#45;&gt;Node6</title>
<path fill="none" stroke="midnightblue" d="M89.73,-257.23C87.16,-218.69 85.78,-111.71 143,-56 165.37,-34.21 248.13,-21.72 303.11,-15.65"/>
<polygon fill="midnightblue" stroke="midnightblue" points="303.79,-19.1 313.37,-14.56 303.05,-12.14 303.79,-19.1"/>
</g>
<!-- Node15 -->
<g id="node15" class="node">
<title>Node15</title>
<g id="a_node15"><a xlink:href="JKRHeap_8h.html" target="_top" xlink:title=" ">
<polygon fill="white" stroke="black" points="206,-190.5 206,-220.5 342,-220.5 342,-190.5 206,-190.5"/>
<text text-anchor="start" x="214" y="-208.5" font-family="Helvetica,sans-Serif" font-size="10.00">JSystem/JKernel/JKRHeap</text>
<text text-anchor="middle" x="274" y="-197.5" font-family="Helvetica,sans-Serif" font-size="10.00">/JKRHeap.h</text>
</a>
</g>
</g>
<!-- Node14&#45;&gt;Node15 -->
<g id="edge19" class="edge">
<title>Node14&#45;&gt;Node15</title>
<path fill="none" stroke="midnightblue" d="M130.71,-257.4C158.29,-247.6 195.22,-234.48 224.69,-224.02"/>
<polygon fill="midnightblue" stroke="midnightblue" points="226.12,-227.22 234.37,-220.58 223.77,-220.63 226.12,-227.22"/>
</g>
<!-- Node17 -->
<g id="node17" class="node">
<title>Node17</title>
<g id="a_node17"><a xlink:href="GX_8h.html" target="_top" xlink:title=" ">
<polygon fill="white" stroke="black" points="28.5,-196 28.5,-215 79.5,-215 79.5,-196 28.5,-196"/>
<text text-anchor="middle" x="54" y="-203" font-family="Helvetica,sans-Serif" font-size="10.00">gx/GX.h</text>
</a>
</g>
</g>
<!-- Node14&#45;&gt;Node17 -->
<g id="edge26" class="edge">
<title>Node14&#45;&gt;Node17</title>
<path fill="none" stroke="midnightblue" d="M82.97,-257.4C77.37,-247.56 69.87,-234.38 63.9,-223.89"/>
<polygon fill="midnightblue" stroke="midnightblue" points="66.94,-222.15 58.95,-215.19 60.85,-225.62 66.94,-222.15"/>
</g>
<!-- Node15&#45;&gt;Node5 -->
<g id="edge24" class="edge">
<title>Node15&#45;&gt;Node5</title>
<path fill="none" stroke="midnightblue" d="M280.53,-220.69C295.63,-253.49 332.9,-334.48 349.64,-370.83"/>
<polygon fill="midnightblue" stroke="midnightblue" points="346.59,-372.58 353.95,-380.2 352.95,-369.65 346.59,-372.58"/>
</g>
<!-- Node15&#45;&gt;Node6 -->
<g id="edge23" class="edge">
<title>Node15&#45;&gt;Node6</title>
<path fill="none" stroke="midnightblue" d="M298.72,-190.38C311.7,-181.63 326.61,-169.15 335,-154 357.07,-114.14 357.37,-58.71 355.69,-29.97"/>
<polygon fill="midnightblue" stroke="midnightblue" points="359.16,-29.44 354.94,-19.73 352.18,-29.96 359.16,-29.44"/>
</g>
<!-- Node16 -->
<g id="node16" class="node">
<title>Node16</title>
<g id="a_node16"><a xlink:href="JKRDisposer_8h.html" target="_top" xlink:title=" ">
<polygon fill="white" stroke="black" points="174.5,-123.5 174.5,-153.5 325.5,-153.5 325.5,-123.5 174.5,-123.5"/>
<text text-anchor="start" x="182.5" y="-141.5" font-family="Helvetica,sans-Serif" font-size="10.00">JSystem/JKernel/JKRDisposer</text>
<text text-anchor="middle" x="250" y="-130.5" font-family="Helvetica,sans-Serif" font-size="10.00">/JKRDisposer.h</text>
</a>
</g>
</g>
<!-- Node15&#45;&gt;Node16 -->
<g id="edge20" class="edge">
<title>Node15&#45;&gt;Node16</title>
<path fill="none" stroke="midnightblue" d="M268.79,-190.4C265.84,-182.39 262.06,-172.16 258.67,-162.98"/>
<polygon fill="midnightblue" stroke="midnightblue" points="261.94,-161.75 255.2,-153.58 255.38,-164.17 261.94,-161.75"/>
</g>
<!-- Node16&#45;&gt;Node6 -->
<g id="edge22" class="edge">
<title>Node16&#45;&gt;Node6</title>
<path fill="none" stroke="midnightblue" d="M263.99,-123.28C273.57,-113.36 286.4,-99.68 297,-87 313.45,-67.33 330.95,-43.52 342.15,-27.85"/>
<polygon fill="midnightblue" stroke="midnightblue" points="345.03,-29.84 347.96,-19.66 339.32,-25.79 345.03,-29.84"/>
</g>
<!-- Node16&#45;&gt;Node13 -->
<g id="edge21" class="edge">
<title>Node16&#45;&gt;Node13</title>
<path fill="none" stroke="midnightblue" d="M243.49,-123.4C239.76,-115.3 234.97,-104.94 230.7,-95.69"/>
<polygon fill="midnightblue" stroke="midnightblue" points="233.87,-94.19 226.5,-86.58 227.51,-97.12 233.87,-94.19"/>
</g>
<!-- Node17&#45;&gt;Node6 -->
<g id="edge27" class="edge">
<title>Node17&#45;&gt;Node6</title>
<path fill="none" stroke="midnightblue" d="M53.42,-195.87C52.19,-170.23 52.38,-93.97 94,-56 123.88,-28.75 236.21,-17.68 303.05,-13.44"/>
<polygon fill="midnightblue" stroke="midnightblue" points="303.6,-16.91 313.37,-12.81 303.18,-9.92 303.6,-16.91"/>
</g>
<!-- Node18&#45;&gt;Node6 -->
<g id="edge31" class="edge">
<title>Node18&#45;&gt;Node6</title>
<path fill="none" stroke="midnightblue" d="M52.52,-380.26C35.76,-362.04 0,-317.95 0,-273.5 0,-273.5 0,-273.5 0,-137.5 0,-90.33 26.96,-79.27 68,-56 107.28,-33.73 232.29,-20.55 303.35,-14.68"/>
<polygon fill="midnightblue" stroke="midnightblue" points="303.74,-18.16 313.43,-13.86 303.18,-11.18 303.74,-18.16"/>
</g>
<!-- Node19&#45;&gt;Node3 -->
<g id="edge37" class="edge">
<title>Node19&#45;&gt;Node3</title>
<path fill="none" stroke="midnightblue" d="M336.88,-615.32C324.94,-598.8 304.26,-570.83 285,-548 276.65,-538.09 266.78,-527.48 258.72,-519.05"/>
<polygon fill="midnightblue" stroke="midnightblue" points="261.11,-516.48 251.64,-511.72 256.07,-521.35 261.11,-516.48"/>
</g>
<!-- Node19&#45;&gt;Node5 -->
<g id="edge38" class="edge">
<title>Node19&#45;&gt;Node5</title>
<path fill="none" stroke="midnightblue" d="M405.1,-616.58C425.03,-609.07 445.26,-597.31 457,-579 479.02,-544.66 468.05,-491.35 428,-436 418.09,-422.31 402.62,-411.73 388.74,-404.28"/>
<polygon fill="midnightblue" stroke="midnightblue" points="389.98,-400.99 379.47,-399.63 386.83,-407.24 389.98,-400.99"/>
</g>
<!-- Node20 -->
<g id="node20" class="node">
<title>Node20</title>
<g id="a_node20"><a xlink:href="c__m3d__g__lin_8h.html" target="_top" xlink:title=" ">
<polygon fill="white" stroke="black" points="332,-548.5 332,-578.5 448,-578.5 448,-548.5 332,-548.5"/>
<text text-anchor="start" x="340" y="-566.5" font-family="Helvetica,sans-Serif" font-size="10.00">SComponent/c_m3d_g</text>
<text text-anchor="middle" x="390" y="-555.5" font-family="Helvetica,sans-Serif" font-size="10.00">_lin.h</text>
</a>
</g>
</g>
<!-- Node19&#45;&gt;Node20 -->
<g id="edge34" class="edge">
<title>Node19&#45;&gt;Node20</title>
<path fill="none" stroke="midnightblue" d="M356.33,-615.4C361.8,-607.13 368.83,-596.51 375.05,-587.1"/>
<polygon fill="midnightblue" stroke="midnightblue" points="378.09,-588.85 380.69,-578.58 372.25,-584.99 378.09,-588.85"/>
</g>
<!-- Node20&#45;&gt;Node3 -->
<g id="edge35" class="edge">
<title>Node20&#45;&gt;Node3</title>
<path fill="none" stroke="midnightblue" d="M355.16,-548.4C330.5,-538.42 297.71,-525.15 273.97,-515.53"/>
<polygon fill="midnightblue" stroke="midnightblue" points="274.97,-512.17 264.39,-511.66 272.35,-518.65 274.97,-512.17"/>
</g>
<!-- Node20&#45;&gt;Node5 -->
<g id="edge36" class="edge">
<title>Node20&#45;&gt;Node5</title>
<path fill="none" stroke="midnightblue" d="M397.59,-548.5C409.58,-524.38 429.78,-473.95 412,-436 405.96,-423.09 394.19,-412.6 383.18,-405"/>
<polygon fill="midnightblue" stroke="midnightblue" points="384.94,-401.97 374.63,-399.54 381.17,-407.87 384.94,-401.97"/>
</g>
<!-- Node21&#45;&gt;Node3 -->
<g id="edge40" class="edge">
<title>Node21&#45;&gt;Node3</title>
<path fill="none" stroke="midnightblue" d="M121.68,-548.4C148.6,-538.33 184.45,-524.91 210.19,-515.28"/>
<polygon fill="midnightblue" stroke="midnightblue" points="211.73,-518.44 219.86,-511.66 209.27,-511.88 211.73,-518.44"/>
</g>
<!-- Node21&#45;&gt;Node5 -->
<g id="edge41" class="edge">
<title>Node21&#45;&gt;Node5</title>
<path fill="none" stroke="midnightblue" d="M93.56,-548.42C112.02,-522.33 155.16,-466.34 205,-436 241.81,-413.59 290.42,-401.8 322.87,-395.99"/>
<polygon fill="midnightblue" stroke="midnightblue" points="323.53,-399.43 332.81,-394.31 322.36,-392.53 323.53,-399.43"/>
</g>
</g>
</svg>
        <g id="navigator" transform="translate(0 0)" fill="#404254">
                <rect fill="#f2f5e9" fill-opacity="0.5" stroke="#606060" stroke-width=".5" x="0" y="0" width="60" height="60"/>
                <use id="zoomplus" xlink:href="#zoomPlus" x="17" y="9" onmousedown="handleZoom(evt,'in')"/>
                <use id="zoomminus" xlink:href="#zoomMin" x="42" y="9" onmousedown="handleZoom(evt,'out')"/>
                <use id="reset" xlink:href="#resetDef" x="30" y="36" onmousedown="handleReset()"/>
                <g id="arrowUp" xlink:href="#dirArrow" transform="translate(30 24)" onmousedown="handlePan(0,-1)">
                  <use xlink:href="#rim" fill="#404040">
                        <set attributeName="fill" to="#808080" begin="arrowUp.mouseover" end="arrowUp.mouseout"/>
                  </use>
                  <path fill="none" stroke="white" stroke-width="1.5" d="M0,-3.0v7 M-2.5,-0.5L0,-3.0L2.5,-0.5"/>
                </g>
                <g id="arrowRight" xlink:href="#dirArrow" transform="rotate(90) translate(36 -43)" onmousedown="handlePan(1,0)">
                  <use xlink:href="#rim" fill="#404040">
                        <set attributeName="fill" to="#808080" begin="arrowRight.mouseover" end="arrowRight.mouseout"/>
                  </use>
                  <path fill="none" stroke="white" stroke-width="1.5" d="M0,-3.0v7 M-2.5,-0.5L0,-3.0L2.5,-0.5"/>
                </g>
                <g id="arrowDown" xlink:href="#dirArrow" transform="rotate(180) translate(-30 -48)" onmousedown="handlePan(0,1)">
                  <use xlink:href="#rim" fill="#404040">
                        <set attributeName="fill" to="#808080" begin="arrowDown.mouseover" end="arrowDown.mouseout"/>
                  </use>
                  <path fill="none" stroke="white" stroke-width="1.5" d="M0,-3.0v7 M-2.5,-0.5L0,-3.0L2.5,-0.5"/>
                </g>
                <g id="arrowLeft" xlink:href="#dirArrow" transform="rotate(270) translate(-36 17)" onmousedown="handlePan(-1,0)">
                  <use xlink:href="#rim" fill="#404040">
                        <set attributeName="fill" to="#808080" begin="arrowLeft.mouseover" end="arrowLeft.mouseout"/>
                  </use>
                  <path fill="none" stroke="white" stroke-width="1.5" d="M0,-3.0v7 M-2.5,-0.5L0,-3.0L2.5,-0.5"/>
                </g>
        </g>
        <svg viewBox="0 0 15 15" width="100%" height="30px" preserveAspectRatio="xMaxYMin meet">
         <g id="arrow_out" transform="scale(0.3 0.3)">
          <a xlink:href="c__cc__d_8h__incl_org.svg" target="_base">
           <rect id="button" ry="5" rx="5" y="6" x="6" height="38" width="38"
                fill="#f2f5e9" fill-opacity="0.5" stroke="#606060" stroke-width="1.0"/>
           <path id="arrow"
             d="M 11.500037,31.436501 C 11.940474,20.09759 22.043105,11.32322 32.158766,21.979434 L 37.068811,17.246167 C 37.068811,17.246167 37.088388,32 37.088388,32 L 22.160133,31.978069 C 22.160133,31.978069 26.997745,27.140456 26.997745,27.140456 C 18.528582,18.264221 13.291696,25.230495 11.500037,31.436501 z"
             style="fill:#404040;"/>
          </a>
         </g>
        </svg>
</svg>
