<?xml version="1.0" encoding="UTF-8" standalone="no"?>
<!DOCTYPE svg PUBLIC "-//W3C//DTD SVG 1.1//EN"
 "http://www.w3.org/Graphics/SVG/1.1/DTD/svg11.dtd">
<!-- Generated by graphviz version 2.46.0 (20210122.1329)
 -->
<!-- Title: include/SComponent/c_m3d_g_cyl.h Pages: 1 -->
<!--zoomable 441 -->
<svg id="main" version="1.1" xmlns="http://www.w3.org/2000/svg" xmlns:xlink="http://www.w3.org/1999/xlink" xml:space="preserve" onload="init(evt)">
<style type="text/css"><![CDATA[
.edge:hover path { stroke: red; }
.edge:hover polygon { stroke: red; fill: red; }
]]></style>
<script type="text/javascript"><![CDATA[
var edges = document.getElementsByTagName('g');
if (edges && edges.length) {
  for (var i=0;i<edges.length;i++) {
    if (edges[i].id.substr(0,4)=='edge') {
      edges[i].setAttribute('class','edge');
    }
  }
}
]]></script>
        <defs>
                <circle id="rim" cx="0" cy="0" r="7"/>
                <circle id="rim2" cx="0" cy="0" r="3.5"/>
                <g id="zoomPlus">
                        <use xlink:href="#rim" fill="#404040">
                                <set attributeName="fill" to="#808080" begin="zoomplus.mouseover" end="zoomplus.mouseout"/>
                        </use>
                        <path d="M-4,0h8M0,-4v8" fill="none" stroke="white" stroke-width="1.5" pointer-events="none"/>
                </g>
                <g id="zoomMin">
                        <use xlink:href="#rim" fill="#404040">
                                <set attributeName="fill" to="#808080" begin="zoomminus.mouseover" end="zoomminus.mouseout"/>
                        </use>
                        <path d="M-4,0h8" fill="none" stroke="white" stroke-width="1.5" pointer-events="none"/>
                </g>
                <g id="dirArrow">
                        <path fill="none" stroke="white" stroke-width="1.5" d="M0,-3.0v7 M-2.5,-0.5L0,-3.0L2.5,-0.5"/>
                </g>
               <g id="resetDef">
                       <use xlink:href="#rim2" fill="#404040">
                               <set attributeName="fill" to="#808080" begin="reset.mouseover" end="reset.mouseout"/>
                       </use>
               </g>
        </defs>

<script type="text/javascript">
var viewWidth = 3953;
var viewHeight = 441;
var sectionId = 'dynsection-1';
</script>
<script xlink:href="svgpan.js"/>
<svg id="graph" class="graph">
<g id="viewport">
<title>include/SComponent/c_m3d_g_cyl.h</title>
<polygon fill="white" stroke="transparent" points="-4,4 -4,-437 3948.5,-437 3948.5,4 -4,4"/>
<!-- Node1 -->
<g id="node1" class="node">
<title>Node1</title>
<g id="a_node1"><a xlink:title=" ">
<polygon fill="#bfbfbf" stroke="black" points="513.5,-402.5 513.5,-432.5 620.5,-432.5 620.5,-402.5 513.5,-402.5"/>
<text text-anchor="start" x="521.5" y="-420.5" font-family="Helvetica,sans-Serif" font-size="10.00">include/SComponent</text>
<text text-anchor="middle" x="567" y="-409.5" font-family="Helvetica,sans-Serif" font-size="10.00">/c_m3d_g_cyl.h</text>
</a>
</g>
</g>
<!-- Node2 -->
<g id="node2" class="node">
<title>Node2</title>
<g id="a_node2"><a xlink:href="d__camera_8cpp.html" target="_top" xlink:title=" ">
<polygon fill="white" stroke="black" points="76,-73 76,-92 178,-92 178,-73 76,-73"/>
<text text-anchor="middle" x="127" y="-80" font-family="Helvetica,sans-Serif" font-size="10.00">src/d/d_camera.cpp</text>
</a>
</g>
</g>
<!-- Node1&#45;&gt;Node2 -->
<g id="edge1" class="edge">
<title>Node1&#45;&gt;Node2</title>
<path fill="none" stroke="midnightblue" d="M503.54,-410.79C381.7,-398.06 127,-362.17 127,-284.5 127,-284.5 127,-284.5 127,-215.5 127,-168.98 127,-113.24 127,-92.15"/>
<polygon fill="midnightblue" stroke="midnightblue" points="503.18,-414.27 513.49,-411.81 503.9,-407.31 503.18,-414.27"/>
</g>
<!-- Node3 -->
<g id="node3" class="node">
<title>Node3</title>
<g id="a_node3"><a xlink:href="c__m3d__g__cyl_8cpp.html" target="_top" xlink:title=" ">
<polygon fill="white" stroke="black" points="762,-335.5 762,-365.5 896,-365.5 896,-335.5 762,-335.5"/>
<text text-anchor="start" x="770" y="-353.5" font-family="Helvetica,sans-Serif" font-size="10.00">libs/SSystem/SComponent</text>
<text text-anchor="middle" x="829" y="-342.5" font-family="Helvetica,sans-Serif" font-size="10.00">/c_m3d_g_cyl.cpp</text>
</a>
</g>
</g>
<!-- Node1&#45;&gt;Node3 -->
<g id="edge2" class="edge">
<title>Node1&#45;&gt;Node3</title>
<path fill="none" stroke="midnightblue" d="M630.5,-400.75C673.75,-390.02 730.51,-375.94 772.25,-365.58"/>
<polygon fill="midnightblue" stroke="midnightblue" points="629.51,-397.38 620.65,-403.19 631.2,-404.18 629.51,-397.38"/>
</g>
<!-- Node4 -->
<g id="node4" class="node">
<title>Node4</title>
<g id="a_node4"><a xlink:href="c__m3d_8cpp.html" target="_top" xlink:title=" ">
<polygon fill="white" stroke="black" points="617,-268.5 617,-298.5 751,-298.5 751,-268.5 617,-268.5"/>
<text text-anchor="start" x="625" y="-286.5" font-family="Helvetica,sans-Serif" font-size="10.00">libs/SSystem/SComponent</text>
<text text-anchor="middle" x="684" y="-275.5" font-family="Helvetica,sans-Serif" font-size="10.00">/c_m3d.cpp</text>
</a>
</g>
</g>
<!-- Node1&#45;&gt;Node4 -->
<g id="edge3" class="edge">
<title>Node1&#45;&gt;Node4</title>
<path fill="none" stroke="midnightblue" d="M582.3,-393.65C594.02,-376.78 611.01,-353.61 628,-335 640,-321.85 655.06,-308.42 666.53,-298.72"/>
<polygon fill="midnightblue" stroke="midnightblue" points="579.14,-392.08 576.37,-402.3 584.91,-396.03 579.14,-392.08"/>
</g>
<!-- Node5 -->
<g id="node5" class="node">
<title>Node5</title>
<g id="a_node5"><a xlink:href="c__cc__d_8h.html" target="_top" xlink:title=" ">
<polygon fill="white" stroke="black" points="301.5,-335.5 301.5,-365.5 408.5,-365.5 408.5,-335.5 301.5,-335.5"/>
<text text-anchor="start" x="309.5" y="-353.5" font-family="Helvetica,sans-Serif" font-size="10.00">include/SComponent</text>
<text text-anchor="middle" x="355" y="-342.5" font-family="Helvetica,sans-Serif" font-size="10.00">/c_cc_d/c_cc_d.h</text>
</a>
</g>
</g>
<!-- Node1&#45;&gt;Node5 -->
<g id="edge4" class="edge">
<title>Node1&#45;&gt;Node5</title>
<path fill="none" stroke="midnightblue" d="M511.37,-399.44C477.01,-388.91 433.44,-375.55 401.02,-365.61"/>
<polygon fill="midnightblue" stroke="midnightblue" points="510.67,-402.89 521.26,-402.48 512.73,-396.2 510.67,-402.89"/>
</g>
<!-- Node42 -->
<g id="node42" class="node">
<title>Node42</title>
<g id="a_node42"><a xlink:href="c__m3d__g__sph_8h.html" target="_top" xlink:title=" ">
<polygon fill="white" stroke="black" points="472.5,-335.5 472.5,-365.5 579.5,-365.5 579.5,-335.5 472.5,-335.5"/>
<text text-anchor="start" x="480.5" y="-353.5" font-family="Helvetica,sans-Serif" font-size="10.00">include/SComponent</text>
<text text-anchor="middle" x="526" y="-342.5" font-family="Helvetica,sans-Serif" font-size="10.00">/c_m3d_g_sph.h</text>
</a>
</g>
</g>
<!-- Node1&#45;&gt;Node42 -->
<g id="edge49" class="edge">
<title>Node1&#45;&gt;Node42</title>
<path fill="none" stroke="midnightblue" d="M552.72,-393.87C546.79,-384.46 540.09,-373.83 534.88,-365.58"/>
<polygon fill="midnightblue" stroke="midnightblue" points="549.81,-395.81 558.1,-402.4 555.73,-392.07 549.81,-395.81"/>
</g>
<!-- Node44 -->
<g id="node44" class="node">
<title>Node44</title>
<g id="a_node44"><a xlink:href="c__m3d__g__tri_8h.html" target="_top" xlink:title=" ">
<polygon fill="white" stroke="black" points="636.5,-335.5 636.5,-365.5 743.5,-365.5 743.5,-335.5 636.5,-335.5"/>
<text text-anchor="start" x="644.5" y="-353.5" font-family="Helvetica,sans-Serif" font-size="10.00">include/SComponent</text>
<text text-anchor="middle" x="690" y="-342.5" font-family="Helvetica,sans-Serif" font-size="10.00">/c_m3d_g_tri.h</text>
</a>
</g>
</g>
<!-- Node1&#45;&gt;Node44 -->
<g id="edge53" class="edge">
<title>Node1&#45;&gt;Node44</title>
<path fill="none" stroke="midnightblue" d="M602.55,-397.71C621.95,-387.46 645.56,-374.98 663.36,-365.58"/>
<polygon fill="midnightblue" stroke="midnightblue" points="600.9,-394.63 593.69,-402.4 604.17,-400.82 600.9,-394.63"/>
</g>
<!-- Node6 -->
<g id="node6" class="node">
<title>Node6</title>
<g id="a_node6"><a xlink:href="d__cc__mass__s_8h.html" target="_top" xlink:title=" ">
<polygon fill="white" stroke="black" points="155,-268.5 155,-298.5 283,-298.5 283,-268.5 155,-268.5"/>
<text text-anchor="start" x="163" y="-286.5" font-family="Helvetica,sans-Serif" font-size="10.00">include/d/d_cc/d_cc</text>
<text text-anchor="middle" x="219" y="-275.5" font-family="Helvetica,sans-Serif" font-size="10.00">_mass_s/d_cc_mass_s.h</text>
</a>
</g>
</g>
<!-- Node5&#45;&gt;Node6 -->
<g id="edge5" class="edge">
<title>Node5&#45;&gt;Node6</title>
<path fill="none" stroke="midnightblue" d="M316.28,-330.99C294.72,-320.69 268.31,-308.07 248.45,-298.58"/>
<polygon fill="midnightblue" stroke="midnightblue" points="314.96,-334.24 325.49,-335.4 317.98,-327.93 314.96,-334.24"/>
</g>
<!-- Node41 -->
<g id="node41" class="node">
<title>Node41</title>
<g id="a_node41"><a xlink:href="c__cc__s_8h.html" target="_top" xlink:title=" ">
<polygon fill="white" stroke="black" points="301.5,-268.5 301.5,-298.5 408.5,-298.5 408.5,-268.5 301.5,-268.5"/>
<text text-anchor="start" x="309.5" y="-286.5" font-family="Helvetica,sans-Serif" font-size="10.00">include/SComponent</text>
<text text-anchor="middle" x="355" y="-275.5" font-family="Helvetica,sans-Serif" font-size="10.00">/c_cc_s/c_cc_s.h</text>
</a>
</g>
</g>
<!-- Node5&#45;&gt;Node41 -->
<g id="edge47" class="edge">
<title>Node5&#45;&gt;Node41</title>
<path fill="none" stroke="midnightblue" d="M355,-325.11C355,-316.15 355,-306.32 355,-298.58"/>
<polygon fill="midnightblue" stroke="midnightblue" points="351.5,-325.4 355,-335.4 358.5,-325.4 351.5,-325.4"/>
</g>
<!-- Node7 -->
<g id="node7" class="node">
<title>Node7</title>
<g id="a_node7"><a xlink:href="d__cc__s_8h.html" target="_top" xlink:title=" ">
<polygon fill="white" stroke="black" points="303,-201.5 303,-231.5 407,-231.5 407,-201.5 303,-201.5"/>
<text text-anchor="start" x="311" y="-219.5" font-family="Helvetica,sans-Serif" font-size="10.00">include/d/d_cc/d_cc</text>
<text text-anchor="middle" x="355" y="-208.5" font-family="Helvetica,sans-Serif" font-size="10.00">_s/d_cc_s.h</text>
</a>
</g>
</g>
<!-- Node6&#45;&gt;Node7 -->
<g id="edge6" class="edge">
<title>Node6&#45;&gt;Node7</title>
<path fill="none" stroke="midnightblue" d="M257.72,-263.99C279.28,-253.69 305.69,-241.07 325.55,-231.58"/>
<polygon fill="midnightblue" stroke="midnightblue" points="256.02,-260.93 248.51,-268.4 259.04,-267.24 256.02,-260.93"/>
</g>
<!-- Node8 -->
<g id="node8" class="node">
<title>Node8</title>
<g id="a_node8"><a xlink:href="d__com__inf__game_8h.html" target="_top" xlink:title=" ">
<polygon fill="white" stroke="black" points="1541,-134.5 1541,-164.5 1687,-164.5 1687,-134.5 1541,-134.5"/>
<text text-anchor="start" x="1549" y="-152.5" font-family="Helvetica,sans-Serif" font-size="10.00">include/d/d_com/d_com</text>
<text text-anchor="middle" x="1614" y="-141.5" font-family="Helvetica,sans-Serif" font-size="10.00">_inf_game/d_com_inf_game.h</text>
</a>
</g>
</g>
<!-- Node7&#45;&gt;Node8 -->
<g id="edge7" class="edge">
<title>Node7&#45;&gt;Node8</title>
<path fill="none" stroke="midnightblue" d="M417.37,-212.28C628.31,-201.39 1314.49,-165.96 1540.83,-154.28"/>
<polygon fill="midnightblue" stroke="midnightblue" points="416.9,-208.8 407.1,-212.81 417.26,-215.79 416.9,-208.8"/>
</g>
<!-- Node8&#45;&gt;Node2 -->
<g id="edge9" class="edge">
<title>Node8&#45;&gt;Node2</title>
<path fill="none" stroke="midnightblue" d="M1530.69,-147.55C1267.12,-144.24 453.44,-131.51 192,-98 181.45,-96.65 170.09,-94.39 159.86,-92.06"/>
<polygon fill="midnightblue" stroke="midnightblue" points="1530.91,-151.06 1540.96,-147.68 1531,-144.06 1530.91,-151.06"/>
</g>
<!-- Node9 -->
<g id="node9" class="node">
<title>Node9</title>
<g id="a_node9"><a xlink:href="d__attention_8cpp.html" target="_top" xlink:title=" ">
<polygon fill="white" stroke="black" points="295.5,-6 295.5,-25 402.5,-25 402.5,-6 295.5,-6"/>
<text text-anchor="middle" x="349" y="-13" font-family="Helvetica,sans-Serif" font-size="10.00">src/d/d_attention.cpp</text>
</a>
</g>
</g>
<!-- Node8&#45;&gt;Node9 -->
<g id="edge8" class="edge">
<title>Node8&#45;&gt;Node9</title>
<path fill="none" stroke="midnightblue" d="M1530.79,-147.62C1261.06,-144.44 425.51,-131.87 379,-98 355.23,-80.69 350.27,-42.46 349.25,-25.23"/>
<polygon fill="midnightblue" stroke="midnightblue" points="1530.87,-151.12 1540.92,-147.74 1530.96,-144.12 1530.87,-151.12"/>
</g>
<!-- Node10 -->
<g id="node10" class="node">
<title>Node10</title>
<g id="a_node10"><a xlink:href="d__com__inf__game_8cpp.html" target="_top" xlink:title=" ">
<polygon fill="white" stroke="black" points="563.5,-0.5 563.5,-30.5 682.5,-30.5 682.5,-0.5 563.5,-0.5"/>
<text text-anchor="start" x="571.5" y="-18.5" font-family="Helvetica,sans-Serif" font-size="10.00">src/d/d_com/d_com_inf</text>
<text text-anchor="middle" x="623" y="-7.5" font-family="Helvetica,sans-Serif" font-size="10.00">_game.cpp</text>
</a>
</g>
</g>
<!-- Node8&#45;&gt;Node10 -->
<g id="edge10" class="edge">
<title>Node8&#45;&gt;Node10</title>
<path fill="none" stroke="midnightblue" d="M1530.77,-147.63C1286.81,-144.67 588.51,-133.15 555,-98 533.51,-75.46 570.03,-47.16 597.33,-30.53"/>
<polygon fill="midnightblue" stroke="midnightblue" points="1530.95,-151.13 1540.99,-147.75 1531.04,-144.13 1530.95,-151.13"/>
</g>
<!-- Node11 -->
<g id="node11" class="node">
<title>Node11</title>
<g id="a_node11"><a xlink:href="d__file__sel__info_8cpp.html" target="_top" xlink:title=" ">
<polygon fill="white" stroke="black" points="716.5,-67.5 716.5,-97.5 805.5,-97.5 805.5,-67.5 716.5,-67.5"/>
<text text-anchor="start" x="724.5" y="-85.5" font-family="Helvetica,sans-Serif" font-size="10.00">src/d/d_file/d_file</text>
<text text-anchor="middle" x="761" y="-74.5" font-family="Helvetica,sans-Serif" font-size="10.00">_sel_info.cpp</text>
</a>
</g>
</g>
<!-- Node8&#45;&gt;Node11 -->
<g id="edge11" class="edge">
<title>Node8&#45;&gt;Node11</title>
<path fill="none" stroke="midnightblue" d="M1530.52,-148.67C1384.46,-147.76 1073.51,-140.44 815,-98 811.93,-97.5 808.79,-96.89 805.64,-96.22"/>
<polygon fill="midnightblue" stroke="midnightblue" points="1530.72,-152.17 1540.74,-148.73 1530.76,-145.17 1530.72,-152.17"/>
</g>
<!-- Node12 -->
<g id="node12" class="node">
<title>Node12</title>
<g id="a_node12"><a xlink:href="d__item_8cpp.html" target="_top" xlink:title=" ">
<polygon fill="white" stroke="black" points="700.5,-6 700.5,-25 821.5,-25 821.5,-6 700.5,-6"/>
<text text-anchor="middle" x="761" y="-13" font-family="Helvetica,sans-Serif" font-size="10.00">src/d/d_item/d_item.cpp</text>
</a>
</g>
</g>
<!-- Node8&#45;&gt;Node12 -->
<g id="edge12" class="edge">
<title>Node8&#45;&gt;Node12</title>
<path fill="none" stroke="midnightblue" d="M1530.49,-146.92C1311.58,-142.37 736.02,-127.63 708,-98 685.85,-74.58 726.25,-40.74 748.2,-25.06"/>
<polygon fill="midnightblue" stroke="midnightblue" points="1530.57,-150.42 1540.64,-147.13 1530.71,-143.42 1530.57,-150.42"/>
</g>
<!-- Node13 -->
<g id="node13" class="node">
<title>Node13</title>
<g id="a_node13"><a xlink:href="d__kankyo__rain_8cpp.html" target="_top" xlink:title=" ">
<polygon fill="white" stroke="black" points="823.5,-67.5 823.5,-97.5 950.5,-97.5 950.5,-67.5 823.5,-67.5"/>
<text text-anchor="start" x="831.5" y="-85.5" font-family="Helvetica,sans-Serif" font-size="10.00">src/d/d_kankyo/d_kankyo</text>
<text text-anchor="middle" x="887" y="-74.5" font-family="Helvetica,sans-Serif" font-size="10.00">_rain.cpp</text>
</a>
</g>
</g>
<!-- Node8&#45;&gt;Node13 -->
<g id="edge13" class="edge">
<title>Node8&#45;&gt;Node13</title>
<path fill="none" stroke="midnightblue" d="M1530.39,-145.23C1405.7,-139.64 1163.83,-126.01 960,-98 956.93,-97.58 953.79,-97.11 950.63,-96.6"/>
<polygon fill="midnightblue" stroke="midnightblue" points="1530.48,-148.74 1540.63,-145.68 1530.79,-141.75 1530.48,-148.74"/>
</g>
<!-- Node14 -->
<g id="node14" class="node">
<title>Node14</title>
<g id="a_node14"><a xlink:href="d__kankyo__wether_8cpp.html" target="_top" xlink:title=" ">
<polygon fill="white" stroke="black" points="968.5,-67.5 968.5,-97.5 1095.5,-97.5 1095.5,-67.5 968.5,-67.5"/>
<text text-anchor="start" x="976.5" y="-85.5" font-family="Helvetica,sans-Serif" font-size="10.00">src/d/d_kankyo/d_kankyo</text>
<text text-anchor="middle" x="1032" y="-74.5" font-family="Helvetica,sans-Serif" font-size="10.00">_wether.cpp</text>
</a>
</g>
</g>
<!-- Node8&#45;&gt;Node14 -->
<g id="edge14" class="edge">
<title>Node8&#45;&gt;Node14</title>
<path fill="none" stroke="midnightblue" d="M1530.67,-142.73C1429.61,-135.16 1254.25,-120.17 1105,-98 1101.93,-97.54 1098.8,-97.05 1095.64,-96.52"/>
<polygon fill="midnightblue" stroke="midnightblue" points="1530.58,-146.23 1540.81,-143.48 1531.1,-139.25 1530.58,-146.23"/>
</g>
<!-- Node15 -->
<g id="node15" class="node">
<title>Node15</title>
<g id="a_node15"><a xlink:href="d__kankyo_8cpp.html" target="_top" xlink:title=" ">
<polygon fill="white" stroke="black" points="1113.5,-73 1113.5,-92 1214.5,-92 1214.5,-73 1113.5,-73"/>
<text text-anchor="middle" x="1164" y="-80" font-family="Helvetica,sans-Serif" font-size="10.00">src/d/d_kankyo.cpp</text>
</a>
</g>
</g>
<!-- Node8&#45;&gt;Node15 -->
<g id="edge15" class="edge">
<title>Node8&#45;&gt;Node15</title>
<path fill="none" stroke="midnightblue" d="M1530.26,-140.31C1451.01,-131.93 1328.89,-117.41 1224,-98 1215.04,-96.34 1205.42,-94.19 1196.56,-92.05"/>
<polygon fill="midnightblue" stroke="midnightblue" points="1530.36,-143.84 1540.67,-141.4 1531.09,-136.88 1530.36,-143.84"/>
</g>
<!-- Node16 -->
<g id="node16" class="node">
<title>Node16</title>
<g id="a_node16"><a xlink:href="d__kantera__icon__meter_8cpp.html" target="_top" xlink:title=" ">
<polygon fill="white" stroke="black" points="1232.5,-67.5 1232.5,-97.5 1339.5,-97.5 1339.5,-67.5 1232.5,-67.5"/>
<text text-anchor="start" x="1240.5" y="-85.5" font-family="Helvetica,sans-Serif" font-size="10.00">src/d/d_kantera_icon</text>
<text text-anchor="middle" x="1286" y="-74.5" font-family="Helvetica,sans-Serif" font-size="10.00">_meter.cpp</text>
</a>
</g>
</g>
<!-- Node8&#45;&gt;Node16 -->
<g id="edge16" class="edge">
<title>Node8&#45;&gt;Node16</title>
<path fill="none" stroke="midnightblue" d="M1530.84,-133.49C1478.54,-123.84 1409.71,-110.77 1349,-98 1345.92,-97.35 1342.77,-96.67 1339.59,-95.98"/>
<polygon fill="midnightblue" stroke="midnightblue" points="1530.27,-136.94 1540.74,-135.31 1531.54,-130.06 1530.27,-136.94"/>
</g>
<!-- Node17 -->
<g id="node17" class="node">
<title>Node17</title>
<g id="a_node17"><a xlink:href="d__meter__button_8cpp.html" target="_top" xlink:title=" ">
<polygon fill="white" stroke="black" points="1357.5,-67.5 1357.5,-97.5 1472.5,-97.5 1472.5,-67.5 1357.5,-67.5"/>
<text text-anchor="start" x="1365.5" y="-85.5" font-family="Helvetica,sans-Serif" font-size="10.00">src/d/d_meter/d_meter</text>
<text text-anchor="middle" x="1415" y="-74.5" font-family="Helvetica,sans-Serif" font-size="10.00">_button.cpp</text>
</a>
</g>
</g>
<!-- Node8&#45;&gt;Node17 -->
<g id="edge17" class="edge">
<title>Node8&#45;&gt;Node17</title>
<path fill="none" stroke="midnightblue" d="M1561.12,-131.23C1528.93,-120.71 1488.33,-107.45 1458.1,-97.58"/>
<polygon fill="midnightblue" stroke="midnightblue" points="1560.23,-134.62 1570.82,-134.4 1562.4,-127.96 1560.23,-134.62"/>
</g>
<!-- Node18 -->
<g id="node18" class="node">
<title>Node18</title>
<g id="a_node18"><a xlink:href="d__meter__haihai_8cpp.html" target="_top" xlink:title=" ">
<polygon fill="white" stroke="black" points="1490.5,-67.5 1490.5,-97.5 1605.5,-97.5 1605.5,-67.5 1490.5,-67.5"/>
<text text-anchor="start" x="1498.5" y="-85.5" font-family="Helvetica,sans-Serif" font-size="10.00">src/d/d_meter/d_meter</text>
<text text-anchor="middle" x="1548" y="-74.5" font-family="Helvetica,sans-Serif" font-size="10.00">_haihai.cpp</text>
</a>
</g>
</g>
<!-- Node8&#45;&gt;Node18 -->
<g id="edge18" class="edge">
<title>Node8&#45;&gt;Node18</title>
<path fill="none" stroke="midnightblue" d="M1592.49,-127.31C1582.59,-117.56 1571.11,-106.26 1562.29,-97.58"/>
<polygon fill="midnightblue" stroke="midnightblue" points="1590.1,-129.87 1599.68,-134.4 1595.01,-124.89 1590.1,-129.87"/>
</g>
<!-- Node19 -->
<g id="node19" class="node">
<title>Node19</title>
<g id="a_node19"><a xlink:href="d__meter__hakusha_8cpp.html" target="_top" xlink:title=" ">
<polygon fill="white" stroke="black" points="1623.5,-67.5 1623.5,-97.5 1738.5,-97.5 1738.5,-67.5 1623.5,-67.5"/>
<text text-anchor="start" x="1631.5" y="-85.5" font-family="Helvetica,sans-Serif" font-size="10.00">src/d/d_meter/d_meter</text>
<text text-anchor="middle" x="1681" y="-74.5" font-family="Helvetica,sans-Serif" font-size="10.00">_hakusha.cpp</text>
</a>
</g>
</g>
<!-- Node8&#45;&gt;Node19 -->
<g id="edge19" class="edge">
<title>Node8&#45;&gt;Node19</title>
<path fill="none" stroke="midnightblue" d="M1635.84,-127.31C1645.89,-117.56 1657.54,-106.26 1666.49,-97.58"/>
<polygon fill="midnightblue" stroke="midnightblue" points="1633.28,-124.92 1628.54,-134.4 1638.15,-129.94 1633.28,-124.92"/>
</g>
<!-- Node20 -->
<g id="node20" class="node">
<title>Node20</title>
<g id="a_node20"><a xlink:href="d__meter__map_8cpp.html" target="_top" xlink:title=" ">
<polygon fill="white" stroke="black" points="1756.5,-67.5 1756.5,-97.5 1871.5,-97.5 1871.5,-67.5 1756.5,-67.5"/>
<text text-anchor="start" x="1764.5" y="-85.5" font-family="Helvetica,sans-Serif" font-size="10.00">src/d/d_meter/d_meter</text>
<text text-anchor="middle" x="1814" y="-74.5" font-family="Helvetica,sans-Serif" font-size="10.00">_map.cpp</text>
</a>
</g>
</g>
<!-- Node8&#45;&gt;Node20 -->
<g id="edge20" class="edge">
<title>Node8&#45;&gt;Node20</title>
<path fill="none" stroke="midnightblue" d="M1667.15,-131.23C1699.5,-120.71 1740.31,-107.45 1770.69,-97.58"/>
<polygon fill="midnightblue" stroke="midnightblue" points="1665.83,-127.98 1657.4,-134.4 1667.99,-134.63 1665.83,-127.98"/>
</g>
<!-- Node21 -->
<g id="node21" class="node">
<title>Node21</title>
<g id="a_node21"><a xlink:href="d__meter__string_8cpp.html" target="_top" xlink:title=" ">
<polygon fill="white" stroke="black" points="1889.5,-67.5 1889.5,-97.5 2004.5,-97.5 2004.5,-67.5 1889.5,-67.5"/>
<text text-anchor="start" x="1897.5" y="-85.5" font-family="Helvetica,sans-Serif" font-size="10.00">src/d/d_meter/d_meter</text>
<text text-anchor="middle" x="1947" y="-74.5" font-family="Helvetica,sans-Serif" font-size="10.00">_string.cpp</text>
</a>
</g>
</g>
<!-- Node8&#45;&gt;Node21 -->
<g id="edge21" class="edge">
<title>Node8&#45;&gt;Node21</title>
<path fill="none" stroke="midnightblue" d="M1697.19,-133.41C1749.93,-123.69 1819.56,-110.56 1881,-98 1883.76,-97.44 1886.58,-96.85 1889.43,-96.25"/>
<polygon fill="midnightblue" stroke="midnightblue" points="1696.41,-130 1687.21,-135.25 1697.68,-136.88 1696.41,-130"/>
</g>
<!-- Node22 -->
<g id="node22" class="node">
<title>Node22</title>
<g id="a_node22"><a xlink:href="d__meter2__draw_8cpp.html" target="_top" xlink:title=" ">
<polygon fill="white" stroke="black" points="2022.5,-67.5 2022.5,-97.5 2147.5,-97.5 2147.5,-67.5 2022.5,-67.5"/>
<text text-anchor="start" x="2030.5" y="-85.5" font-family="Helvetica,sans-Serif" font-size="10.00">src/d/d_meter2/d_meter2</text>
<text text-anchor="middle" x="2085" y="-74.5" font-family="Helvetica,sans-Serif" font-size="10.00">_draw.cpp</text>
</a>
</g>
</g>
<!-- Node8&#45;&gt;Node22 -->
<g id="edge22" class="edge">
<title>Node8&#45;&gt;Node22</title>
<path fill="none" stroke="midnightblue" d="M1697.38,-139.84C1778.48,-130.97 1905.05,-115.98 2014,-98 2016.73,-97.55 2019.52,-97.07 2022.33,-96.57"/>
<polygon fill="midnightblue" stroke="midnightblue" points="1696.8,-136.38 1687.23,-140.94 1697.55,-143.34 1696.8,-136.38"/>
</g>
<!-- Node23 -->
<g id="node23" class="node">
<title>Node23</title>
<g id="a_node23"><a xlink:href="d__meter2__info_8cpp.html" target="_top" xlink:title=" ">
<polygon fill="white" stroke="black" points="2165.5,-67.5 2165.5,-97.5 2290.5,-97.5 2290.5,-67.5 2165.5,-67.5"/>
<text text-anchor="start" x="2173.5" y="-85.5" font-family="Helvetica,sans-Serif" font-size="10.00">src/d/d_meter2/d_meter2</text>
<text text-anchor="middle" x="2228" y="-74.5" font-family="Helvetica,sans-Serif" font-size="10.00">_info.cpp</text>
</a>
</g>
</g>
<!-- Node8&#45;&gt;Node23 -->
<g id="edge23" class="edge">
<title>Node8&#45;&gt;Node23</title>
<path fill="none" stroke="midnightblue" d="M1697.27,-143.58C1804.13,-136.62 1995.05,-122 2157,-98 2159.74,-97.59 2162.53,-97.15 2165.35,-96.68"/>
<polygon fill="midnightblue" stroke="midnightblue" points="1696.95,-140.09 1687.2,-144.23 1697.4,-147.08 1696.95,-140.09"/>
</g>
<!-- Node24 -->
<g id="node24" class="node">
<title>Node24</title>
<g id="a_node24"><a xlink:href="d__meter2_8cpp.html" target="_top" xlink:title=" ">
<polygon fill="white" stroke="black" points="2309,-73 2309,-92 2409,-92 2409,-73 2309,-73"/>
<text text-anchor="middle" x="2359" y="-80" font-family="Helvetica,sans-Serif" font-size="10.00">src/d/d_meter2.cpp</text>
</a>
</g>
</g>
<!-- Node8&#45;&gt;Node24 -->
<g id="edge24" class="edge">
<title>Node8&#45;&gt;Node24</title>
<path fill="none" stroke="midnightblue" d="M1697.3,-146.86C1826.92,-143.3 2084.39,-132.18 2300,-98 2309.38,-96.51 2319.45,-94.28 2328.58,-92.01"/>
<polygon fill="midnightblue" stroke="midnightblue" points="1696.96,-143.37 1687.06,-147.13 1697.15,-150.36 1696.96,-143.37"/>
</g>
<!-- Node25 -->
<g id="node25" class="node">
<title>Node25</title>
<g id="a_node25"><a xlink:href="d__save_8cpp.html" target="_top" xlink:title=" ">
<polygon fill="white" stroke="black" points="2427.5,-73 2427.5,-92 2552.5,-92 2552.5,-73 2427.5,-73"/>
<text text-anchor="middle" x="2490" y="-80" font-family="Helvetica,sans-Serif" font-size="10.00">src/d/d_save/d_save.cpp</text>
</a>
</g>
</g>
<!-- Node8&#45;&gt;Node25 -->
<g id="edge25" class="edge">
<title>Node8&#45;&gt;Node25</title>
<path fill="none" stroke="midnightblue" d="M1697.47,-146.99C1843.92,-143.51 2156.48,-132.38 2418,-98 2429.25,-96.52 2441.38,-94.32 2452.42,-92.07"/>
<polygon fill="midnightblue" stroke="midnightblue" points="1697.13,-143.5 1687.21,-147.23 1697.29,-150.5 1697.13,-143.5"/>
</g>
<!-- Node26 -->
<g id="node26" class="node">
<title>Node26</title>
<g id="a_node26"><a xlink:href="d__save__HIO_8cpp.html" target="_top" xlink:title=" ">
<polygon fill="white" stroke="black" points="2570.5,-67.5 2570.5,-97.5 2677.5,-97.5 2677.5,-67.5 2570.5,-67.5"/>
<text text-anchor="start" x="2578.5" y="-85.5" font-family="Helvetica,sans-Serif" font-size="10.00">src/d/d_save/d_save</text>
<text text-anchor="middle" x="2624" y="-74.5" font-family="Helvetica,sans-Serif" font-size="10.00">_HIO.cpp</text>
</a>
</g>
</g>
<!-- Node8&#45;&gt;Node26 -->
<g id="edge26" class="edge">
<title>Node8&#45;&gt;Node26</title>
<path fill="none" stroke="midnightblue" d="M1697.39,-148.98C1863.05,-148.86 2244.95,-143.16 2562,-98 2564.74,-97.61 2567.53,-97.16 2570.34,-96.66"/>
<polygon fill="midnightblue" stroke="midnightblue" points="1697.27,-145.48 1687.27,-148.98 1697.28,-152.48 1697.27,-145.48"/>
</g>
<!-- Node27 -->
<g id="node27" class="node">
<title>Node27</title>
<g id="a_node27"><a xlink:href="d__stage_8cpp.html" target="_top" xlink:title=" ">
<polygon fill="white" stroke="black" points="2696,-73 2696,-92 2790,-92 2790,-73 2696,-73"/>
<text text-anchor="middle" x="2743" y="-80" font-family="Helvetica,sans-Serif" font-size="10.00">src/d/d_stage.cpp</text>
</a>
</g>
</g>
<!-- Node8&#45;&gt;Node27 -->
<g id="edge27" class="edge">
<title>Node8&#45;&gt;Node27</title>
<path fill="none" stroke="midnightblue" d="M1697.18,-146.8C1914.67,-142.02 2496.53,-126.83 2687,-98 2696.14,-96.62 2705.94,-94.36 2714.75,-92.03"/>
<polygon fill="midnightblue" stroke="midnightblue" points="1697.02,-143.31 1687.1,-147.02 1697.18,-150.31 1697.02,-143.31"/>
</g>
<!-- Node28 -->
<g id="node28" class="node">
<title>Node28</title>
<g id="a_node28"><a xlink:href="f__pc__manager_8cpp.html" target="_top" xlink:title=" ">
<polygon fill="white" stroke="black" points="0,-6 0,-25 140,-25 140,-6 0,-6"/>
<text text-anchor="middle" x="70" y="-13" font-family="Helvetica,sans-Serif" font-size="10.00">src/f/f_pc/f_pc_manager.cpp</text>
</a>
</g>
</g>
<!-- Node8&#45;&gt;Node28 -->
<g id="edge28" class="edge">
<title>Node8&#45;&gt;Node28</title>
<path fill="none" stroke="midnightblue" d="M1530.66,-148.55C1249.52,-148.3 346.77,-143.88 225,-98 204.6,-90.32 205.63,-78.32 187,-67 157.12,-48.85 119.56,-33.87 95.18,-25.06"/>
<polygon fill="midnightblue" stroke="midnightblue" points="1530.79,-152.05 1540.8,-148.56 1530.8,-145.05 1530.79,-152.05"/>
</g>
<!-- Node29 -->
<g id="node29" class="node">
<title>Node29</title>
<g id="a_node29"><a xlink:href="m__Do__audio_8cpp.html" target="_top" xlink:title=" ">
<polygon fill="white" stroke="black" points="2808,-73 2808,-92 2942,-92 2942,-73 2808,-73"/>
<text text-anchor="middle" x="2875" y="-80" font-family="Helvetica,sans-Serif" font-size="10.00">src/m_Do/m_Do_audio.cpp</text>
</a>
</g>
</g>
<!-- Node8&#45;&gt;Node29 -->
<g id="edge29" class="edge">
<title>Node8&#45;&gt;Node29</title>
<path fill="none" stroke="midnightblue" d="M1697.22,-149.12C1891.08,-149.64 2387.56,-145.76 2799,-98 2811.14,-96.59 2824.26,-94.35 2836.11,-92.05"/>
<polygon fill="midnightblue" stroke="midnightblue" points="1697.12,-145.62 1687.11,-149.08 1697.1,-152.62 1697.12,-145.62"/>
</g>
<!-- Node30 -->
<g id="node30" class="node">
<title>Node30</title>
<g id="a_node30"><a xlink:href="m__Do__main_8cpp.html" target="_top" xlink:title=" ">
<polygon fill="white" stroke="black" points="2960.5,-73 2960.5,-92 3091.5,-92 3091.5,-73 2960.5,-73"/>
<text text-anchor="middle" x="3026" y="-80" font-family="Helvetica,sans-Serif" font-size="10.00">src/m_Do/m_Do_main.cpp</text>
</a>
</g>
</g>
<!-- Node8&#45;&gt;Node30 -->
<g id="edge30" class="edge">
<title>Node8&#45;&gt;Node30</title>
<path fill="none" stroke="midnightblue" d="M1697.46,-147.02C1950.46,-142.28 2706.46,-126.09 2951,-98 2963.12,-96.61 2976.22,-94.34 2988.02,-92.01"/>
<polygon fill="midnightblue" stroke="midnightblue" points="1697.16,-143.53 1687.23,-147.21 1697.29,-150.53 1697.16,-143.53"/>
</g>
<!-- Node31 -->
<g id="node31" class="node">
<title>Node31</title>
<g id="a_node31"><a xlink:href="Z2EnvSeMgr_8cpp.html" target="_top" xlink:title=" ">
<polygon fill="white" stroke="black" points="3109.5,-73 3109.5,-92 3270.5,-92 3270.5,-73 3109.5,-73"/>
<text text-anchor="middle" x="3190" y="-80" font-family="Helvetica,sans-Serif" font-size="10.00">libs/Z2AudioLib/Z2EnvSeMgr.cpp</text>
</a>
</g>
</g>
<!-- Node8&#45;&gt;Node31 -->
<g id="edge31" class="edge">
<title>Node8&#45;&gt;Node31</title>
<path fill="none" stroke="midnightblue" d="M1697.32,-147.07C1968.7,-142.2 2825.45,-125.01 3101,-98 3115.18,-96.61 3130.52,-94.38 3144.41,-92.07"/>
<polygon fill="midnightblue" stroke="midnightblue" points="1697.09,-143.57 1687.15,-147.25 1697.21,-150.57 1697.09,-143.57"/>
</g>
<!-- Node32 -->
<g id="node32" class="node">
<title>Node32</title>
<g id="a_node32"><a xlink:href="Z2LinkMgr_8cpp.html" target="_top" xlink:title=" ">
<polygon fill="white" stroke="black" points="3289,-73 3289,-92 3441,-92 3441,-73 3289,-73"/>
<text text-anchor="middle" x="3365" y="-80" font-family="Helvetica,sans-Serif" font-size="10.00">libs/Z2AudioLib/Z2LinkMgr.cpp</text>
</a>
</g>
</g>
<!-- Node8&#45;&gt;Node32 -->
<g id="edge32" class="edge">
<title>Node8&#45;&gt;Node32</title>
<path fill="none" stroke="midnightblue" d="M1697.25,-147.51C1989.52,-143.77 2967.87,-129.2 3280,-98 3293.7,-96.63 3308.54,-94.37 3321.92,-92.04"/>
<polygon fill="midnightblue" stroke="midnightblue" points="1697.1,-144.01 1687.15,-147.63 1697.19,-151.01 1697.1,-144.01"/>
</g>
<!-- Node33 -->
<g id="node33" class="node">
<title>Node33</title>
<g id="a_node33"><a xlink:href="Z2SceneMgr_8cpp.html" target="_top" xlink:title=" ">
<polygon fill="white" stroke="black" points="3459.5,-73 3459.5,-92 3620.5,-92 3620.5,-73 3459.5,-73"/>
<text text-anchor="middle" x="3540" y="-80" font-family="Helvetica,sans-Serif" font-size="10.00">libs/Z2AudioLib/Z2SceneMgr.cpp</text>
</a>
</g>
</g>
<!-- Node8&#45;&gt;Node33 -->
<g id="edge33" class="edge">
<title>Node8&#45;&gt;Node33</title>
<path fill="none" stroke="midnightblue" d="M1697.45,-147.67C2008.85,-144.36 3102.84,-130.6 3450,-98 3464.5,-96.64 3480.2,-94.38 3494.36,-92.05"/>
<polygon fill="midnightblue" stroke="midnightblue" points="1697.11,-144.18 1687.14,-147.78 1697.18,-151.18 1697.11,-144.18"/>
</g>
<!-- Node34 -->
<g id="node34" class="node">
<title>Node34</title>
<g id="a_node34"><a xlink:href="Z2SoundMgr_8cpp.html" target="_top" xlink:title=" ">
<polygon fill="white" stroke="black" points="3638.5,-73 3638.5,-92 3799.5,-92 3799.5,-73 3638.5,-73"/>
<text text-anchor="middle" x="3719" y="-80" font-family="Helvetica,sans-Serif" font-size="10.00">libs/Z2AudioLib/Z2SoundMgr.cpp</text>
</a>
</g>
</g>
<!-- Node8&#45;&gt;Node34 -->
<g id="edge34" class="edge">
<title>Node8&#45;&gt;Node34</title>
<path fill="none" stroke="midnightblue" d="M1697.47,-147.93C2027.98,-145.43 3245.72,-133.95 3630,-98 3644.5,-96.64 3660.21,-94.36 3674.33,-92"/>
<polygon fill="midnightblue" stroke="midnightblue" points="1696.99,-144.43 1687.01,-148.01 1697.04,-151.43 1696.99,-144.43"/>
</g>
<!-- Node35 -->
<g id="node35" class="node">
<title>Node35</title>
<g id="a_node35"><a xlink:href="Z2StatusMgr_8cpp.html" target="_top" xlink:title=" ">
<polygon fill="white" stroke="black" points="3817.5,-67.5 3817.5,-97.5 3944.5,-97.5 3944.5,-67.5 3817.5,-67.5"/>
<text text-anchor="start" x="3825.5" y="-85.5" font-family="Helvetica,sans-Serif" font-size="10.00">libs/Z2AudioLib/Z2Status</text>
<text text-anchor="middle" x="3881" y="-74.5" font-family="Helvetica,sans-Serif" font-size="10.00">Mgr.cpp</text>
</a>
</g>
</g>
<!-- Node8&#45;&gt;Node35 -->
<g id="edge35" class="edge">
<title>Node8&#45;&gt;Node35</title>
<path fill="none" stroke="midnightblue" d="M1697.04,-148.54C2045.16,-148.42 3388.26,-144.84 3809,-98 3811.79,-97.69 3814.63,-97.33 3817.49,-96.92"/>
<polygon fill="midnightblue" stroke="midnightblue" points="1697.03,-145.04 1687.04,-148.54 1697.04,-152.04 1697.03,-145.04"/>
</g>
<!-- Node36 -->
<g id="node36" class="node">
<title>Node36</title>
<g id="a_node36"><a xlink:href="d__a__alink_8h.html" target="_top" xlink:title=" ">
<polygon fill="white" stroke="black" points="388.5,-67.5 388.5,-97.5 507.5,-97.5 507.5,-67.5 388.5,-67.5"/>
<text text-anchor="start" x="396.5" y="-85.5" font-family="Helvetica,sans-Serif" font-size="10.00">include/d/d_a/d_a_alink</text>
<text text-anchor="middle" x="448" y="-74.5" font-family="Helvetica,sans-Serif" font-size="10.00">/d_a_alink.h</text>
</a>
</g>
</g>
<!-- Node8&#45;&gt;Node36 -->
<g id="edge36" class="edge">
<title>Node8&#45;&gt;Node36</title>
<path fill="none" stroke="midnightblue" d="M1530.76,-148.82C1347.66,-148.61 896.48,-143.1 522,-98 517.32,-97.44 512.49,-96.74 507.65,-95.97"/>
<polygon fill="midnightblue" stroke="midnightblue" points="1530.85,-152.32 1540.85,-148.83 1530.85,-145.32 1530.85,-152.32"/>
</g>
<!-- Node39 -->
<g id="node39" class="node">
<title>Node39</title>
<g id="a_node39"><a xlink:href="d__item_8h.html" target="_top" xlink:title=" ">
<polygon fill="white" stroke="black" points="564,-67.5 564,-97.5 660,-97.5 660,-67.5 564,-67.5"/>
<text text-anchor="start" x="572" y="-85.5" font-family="Helvetica,sans-Serif" font-size="10.00">include/d/d_item/d</text>
<text text-anchor="middle" x="612" y="-74.5" font-family="Helvetica,sans-Serif" font-size="10.00">_item/d_item.h</text>
</a>
</g>
</g>
<!-- Node8&#45;&gt;Node39 -->
<g id="edge41" class="edge">
<title>Node8&#45;&gt;Node39</title>
<path fill="none" stroke="midnightblue" d="M1530.69,-148.93C1366.1,-148.69 987.98,-142.79 674,-98 669.51,-97.36 664.87,-96.55 660.24,-95.65"/>
<polygon fill="midnightblue" stroke="midnightblue" points="1530.74,-152.43 1540.74,-148.94 1530.75,-145.43 1530.74,-152.43"/>
</g>
<!-- Node40 -->
<g id="node40" class="node">
<title>Node40</title>
<g id="a_node40"><a xlink:href="f__pc__manager_8h.html" target="_top" xlink:title=" ">
<polygon fill="white" stroke="black" points="234.5,-67.5 234.5,-97.5 331.5,-97.5 331.5,-67.5 234.5,-67.5"/>
<text text-anchor="start" x="242.5" y="-85.5" font-family="Helvetica,sans-Serif" font-size="10.00">include/f/f_pc/f_pc</text>
<text text-anchor="middle" x="283" y="-74.5" font-family="Helvetica,sans-Serif" font-size="10.00">_manager.h</text>
</a>
</g>
</g>
<!-- Node8&#45;&gt;Node40 -->
<g id="edge44" class="edge">
<title>Node8&#45;&gt;Node40</title>
<path fill="none" stroke="midnightblue" d="M1530.63,-147.21C1286.52,-143.11 576.08,-128.78 346,-98 341.33,-97.37 336.49,-96.56 331.67,-95.65"/>
<polygon fill="midnightblue" stroke="midnightblue" points="1530.8,-150.71 1540.86,-147.38 1530.92,-143.71 1530.8,-150.71"/>
</g>
<!-- Node36&#45;&gt;Node9 -->
<g id="edge37" class="edge">
<title>Node36&#45;&gt;Node9</title>
<path fill="none" stroke="midnightblue" d="M418.01,-61.81C399.28,-49.51 376.12,-34.3 361.96,-25.01"/>
<polygon fill="midnightblue" stroke="midnightblue" points="416.24,-64.83 426.52,-67.4 420.08,-58.98 416.24,-64.83"/>
</g>
<!-- Node37 -->
<g id="node37" class="node">
<title>Node37</title>
<g id="a_node37"><a xlink:href="d__a__alink_8cpp.html" target="_top" xlink:title=" ">
<polygon fill="white" stroke="black" points="158.5,-6 158.5,-25 277.5,-25 277.5,-6 158.5,-6"/>
<text text-anchor="middle" x="218" y="-13" font-family="Helvetica,sans-Serif" font-size="10.00">src/d/d_a/d_a_alink.cpp</text>
</a>
</g>
</g>
<!-- Node36&#45;&gt;Node37 -->
<g id="edge38" class="edge">
<title>Node36&#45;&gt;Node37</title>
<path fill="none" stroke="midnightblue" d="M388.73,-64.75C343.75,-52.04 283.76,-35.09 248.18,-25.03"/>
<polygon fill="midnightblue" stroke="midnightblue" points="387.8,-68.12 398.38,-67.48 389.71,-61.39 387.8,-68.12"/>
</g>
<!-- Node38 -->
<g id="node38" class="node">
<title>Node38</title>
<g id="a_node38"><a xlink:href="d__a__player_8h.html" target="_top" xlink:title=" ">
<polygon fill="white" stroke="black" points="421,-0.5 421,-30.5 545,-30.5 545,-0.5 421,-0.5"/>
<text text-anchor="start" x="429" y="-18.5" font-family="Helvetica,sans-Serif" font-size="10.00">include/d/d_a/d_a_player</text>
<text text-anchor="middle" x="483" y="-7.5" font-family="Helvetica,sans-Serif" font-size="10.00">/d_a_player.h</text>
</a>
</g>
</g>
<!-- Node36&#45;&gt;Node38 -->
<g id="edge39" class="edge">
<title>Node36&#45;&gt;Node38</title>
<path fill="none" stroke="midnightblue" d="M454.14,-57.99C458.6,-48.8 464.39,-38.58 469.75,-30.58"/>
<polygon fill="midnightblue" stroke="midnightblue" points="450.82,-56.84 449.92,-67.4 457.21,-59.71 450.82,-56.84"/>
</g>
<!-- Node38&#45;&gt;Node36 -->
<g id="edge40" class="edge">
<title>Node38&#45;&gt;Node36</title>
<path fill="none" stroke="midnightblue" d="M476.87,-39.98C472.42,-49.16 466.63,-59.39 461.27,-67.4"/>
<polygon fill="midnightblue" stroke="midnightblue" points="480.19,-41.13 481.1,-30.58 473.8,-38.26 480.19,-41.13"/>
</g>
<!-- Node39&#45;&gt;Node10 -->
<g id="edge42" class="edge">
<title>Node39&#45;&gt;Node10</title>
<path fill="none" stroke="midnightblue" d="M616.08,-57.4C617.61,-48.37 619.29,-38.41 620.62,-30.58"/>
<polygon fill="midnightblue" stroke="midnightblue" points="612.6,-56.95 614.39,-67.4 619.51,-58.12 612.6,-56.95"/>
</g>
<!-- Node39&#45;&gt;Node12 -->
<g id="edge43" class="edge">
<title>Node39&#45;&gt;Node12</title>
<path fill="none" stroke="midnightblue" d="M653.73,-63.3C682.47,-50.76 719.32,-34.68 741.5,-25.01"/>
<polygon fill="midnightblue" stroke="midnightblue" points="652.1,-60.19 644.33,-67.4 654.9,-66.61 652.1,-60.19"/>
</g>
<!-- Node40&#45;&gt;Node28 -->
<g id="edge45" class="edge">
<title>Node40&#45;&gt;Node28</title>
<path fill="none" stroke="midnightblue" d="M227.33,-64.51C185.76,-51.83 130.69,-35.02 97.95,-25.03"/>
<polygon fill="midnightblue" stroke="midnightblue" points="226.46,-67.9 237.04,-67.48 228.5,-61.21 226.46,-67.9"/>
</g>
<!-- Node40&#45;&gt;Node37 -->
<g id="edge46" class="edge">
<title>Node40&#45;&gt;Node37</title>
<path fill="none" stroke="midnightblue" d="M261.5,-60C249.63,-48.13 235.55,-34.05 226.69,-25.19"/>
<polygon fill="midnightblue" stroke="midnightblue" points="259.35,-62.8 268.9,-67.4 264.3,-57.85 259.35,-62.8"/>
</g>
<!-- Node41&#45;&gt;Node7 -->
<g id="edge48" class="edge">
<title>Node41&#45;&gt;Node7</title>
<path fill="none" stroke="midnightblue" d="M355,-258.11C355,-249.15 355,-239.32 355,-231.58"/>
<polygon fill="midnightblue" stroke="midnightblue" points="351.5,-258.4 355,-268.4 358.5,-258.4 351.5,-258.4"/>
</g>
<!-- Node42&#45;&gt;Node2 -->
<g id="edge50" class="edge">
<title>Node42&#45;&gt;Node2</title>
<path fill="none" stroke="midnightblue" d="M490.81,-329.75C478.53,-321.51 465.47,-311.04 456,-299 426.91,-262.03 449.29,-234.24 416,-201 377.48,-162.54 221.29,-112.04 155.95,-92.11"/>
<polygon fill="midnightblue" stroke="midnightblue" points="489.25,-332.9 499.55,-335.35 493.02,-327.01 489.25,-332.9"/>
</g>
<!-- Node42&#45;&gt;Node4 -->
<g id="edge52" class="edge">
<title>Node42&#45;&gt;Node4</title>
<path fill="none" stroke="midnightblue" d="M569.65,-331.54C594.93,-321.14 626.3,-308.24 649.78,-298.58"/>
<polygon fill="midnightblue" stroke="midnightblue" points="568.2,-328.35 560.28,-335.4 570.86,-334.83 568.2,-328.35"/>
</g>
<!-- Node43 -->
<g id="node43" class="node">
<title>Node43</title>
<g id="a_node43"><a xlink:href="c__m3d__g__sph_8cpp.html" target="_top" xlink:title=" ">
<polygon fill="white" stroke="black" points="465,-268.5 465,-298.5 599,-298.5 599,-268.5 465,-268.5"/>
<text text-anchor="start" x="473" y="-286.5" font-family="Helvetica,sans-Serif" font-size="10.00">libs/SSystem/SComponent</text>
<text text-anchor="middle" x="532" y="-275.5" font-family="Helvetica,sans-Serif" font-size="10.00">/c_m3d_g_sph.cpp</text>
</a>
</g>
</g>
<!-- Node42&#45;&gt;Node43 -->
<g id="edge51" class="edge">
<title>Node42&#45;&gt;Node43</title>
<path fill="none" stroke="midnightblue" d="M528.22,-325.4C529.06,-316.37 529.98,-306.41 530.7,-298.58"/>
<polygon fill="midnightblue" stroke="midnightblue" points="524.74,-325.12 527.3,-335.4 531.71,-325.76 524.74,-325.12"/>
</g>
<!-- Node44&#45;&gt;Node4 -->
<g id="edge55" class="edge">
<title>Node44&#45;&gt;Node4</title>
<path fill="none" stroke="midnightblue" d="M687.78,-325.4C686.94,-316.37 686.02,-306.41 685.3,-298.58"/>
<polygon fill="midnightblue" stroke="midnightblue" points="684.29,-325.76 688.7,-335.4 691.26,-325.12 684.29,-325.76"/>
</g>
<!-- Node45 -->
<g id="node45" class="node">
<title>Node45</title>
<g id="a_node45"><a xlink:href="c__m3d__g__tri_8cpp.html" target="_top" xlink:title=" ">
<polygon fill="white" stroke="black" points="769,-268.5 769,-298.5 903,-298.5 903,-268.5 769,-268.5"/>
<text text-anchor="start" x="777" y="-286.5" font-family="Helvetica,sans-Serif" font-size="10.00">libs/SSystem/SComponent</text>
<text text-anchor="middle" x="836" y="-275.5" font-family="Helvetica,sans-Serif" font-size="10.00">/c_m3d_g_tri.cpp</text>
</a>
</g>
</g>
<!-- Node44&#45;&gt;Node45 -->
<g id="edge54" class="edge">
<title>Node44&#45;&gt;Node45</title>
<path fill="none" stroke="midnightblue" d="M730.95,-331.27C754.2,-320.92 782.87,-308.15 804.38,-298.58"/>
<polygon fill="midnightblue" stroke="midnightblue" points="729.39,-328.13 721.68,-335.4 732.24,-334.53 729.39,-328.13"/>
</g>
</g>
</svg>
        <g id="navigator" transform="translate(0 0)" fill="#404254">
                <rect fill="#f2f5e9" fill-opacity="0.5" stroke="#606060" stroke-width=".5" x="0" y="0" width="60" height="60"/>
                <use id="zoomplus" xlink:href="#zoomPlus" x="17" y="9" onmousedown="handleZoom(evt,'in')"/>
                <use id="zoomminus" xlink:href="#zoomMin" x="42" y="9" onmousedown="handleZoom(evt,'out')"/>
                <use id="reset" xlink:href="#resetDef" x="30" y="36" onmousedown="handleReset()"/>
                <g id="arrowUp" xlink:href="#dirArrow" transform="translate(30 24)" onmousedown="handlePan(0,-1)">
                  <use xlink:href="#rim" fill="#404040">
                        <set attributeName="fill" to="#808080" begin="arrowUp.mouseover" end="arrowUp.mouseout"/>
                  </use>
                  <path fill="none" stroke="white" stroke-width="1.5" d="M0,-3.0v7 M-2.5,-0.5L0,-3.0L2.5,-0.5"/>
                </g>
                <g id="arrowRight" xlink:href="#dirArrow" transform="rotate(90) translate(36 -43)" onmousedown="handlePan(1,0)">
                  <use xlink:href="#rim" fill="#404040">
                        <set attributeName="fill" to="#808080" begin="arrowRight.mouseover" end="arrowRight.mouseout"/>
                  </use>
                  <path fill="none" stroke="white" stroke-width="1.5" d="M0,-3.0v7 M-2.5,-0.5L0,-3.0L2.5,-0.5"/>
                </g>
                <g id="arrowDown" xlink:href="#dirArrow" transform="rotate(180) translate(-30 -48)" onmousedown="handlePan(0,1)">
                  <use xlink:href="#rim" fill="#404040">
                        <set attributeName="fill" to="#808080" begin="arrowDown.mouseover" end="arrowDown.mouseout"/>
                  </use>
                  <path fill="none" stroke="white" stroke-width="1.5" d="M0,-3.0v7 M-2.5,-0.5L0,-3.0L2.5,-0.5"/>
                </g>
                <g id="arrowLeft" xlink:href="#dirArrow" transform="rotate(270) translate(-36 17)" onmousedown="handlePan(-1,0)">
                  <use xlink:href="#rim" fill="#404040">
                        <set attributeName="fill" to="#808080" begin="arrowLeft.mouseover" end="arrowLeft.mouseout"/>
                  </use>
                  <path fill="none" stroke="white" stroke-width="1.5" d="M0,-3.0v7 M-2.5,-0.5L0,-3.0L2.5,-0.5"/>
                </g>
        </g>
        <svg viewBox="0 0 15 15" width="100%" height="30px" preserveAspectRatio="xMaxYMin meet">
         <g id="arrow_out" transform="scale(0.3 0.3)">
          <a xlink:href="c__m3d__g__cyl_8h__dep__incl_org.svg" target="_base">
           <rect id="button" ry="5" rx="5" y="6" x="6" height="38" width="38"
                fill="#f2f5e9" fill-opacity="0.5" stroke="#606060" stroke-width="1.0"/>
           <path id="arrow"
             d="M 11.500037,31.436501 C 11.940474,20.09759 22.043105,11.32322 32.158766,21.979434 L 37.068811,17.246167 C 37.068811,17.246167 37.088388,32 37.088388,32 L 22.160133,31.978069 C 22.160133,31.978069 26.997745,27.140456 26.997745,27.140456 C 18.528582,18.264221 13.291696,25.230495 11.500037,31.436501 z"
             style="fill:#404040;"/>
          </a>
         </g>
        </svg>
</svg>
