<?xml version="1.0" encoding="UTF-8" standalone="no"?>
<!DOCTYPE svg PUBLIC "-//W3C//DTD SVG 1.1//EN"
 "http://www.w3.org/Graphics/SVG/1.1/DTD/svg11.dtd">
<!-- Generated by graphviz version 2.46.0 (20210122.1329)
 -->
<!-- Title: libs/SSystem/SComponent/c_math.cpp Pages: 1 -->
<svg width="1368pt" height="542pt"
 viewBox="0.00 0.00 1367.50 542.00" xmlns="http://www.w3.org/2000/svg" xmlns:xlink="http://www.w3.org/1999/xlink">
<g id="graph0" class="graph" transform="scale(1 1) rotate(0) translate(4 538)">
<title>libs/SSystem/SComponent/c_math.cpp</title>
<polygon fill="white" stroke="transparent" points="-4,4 -4,-538 1363.5,-538 1363.5,4 -4,4"/>
<!-- Node1 -->
<g id="node1" class="node">
<title>Node1</title>
<g id="a_node1"><a xlink:title=" ">
<polygon fill="#bfbfbf" stroke="black" points="857.5,-503.5 857.5,-533.5 991.5,-533.5 991.5,-503.5 857.5,-503.5"/>
<text text-anchor="start" x="865.5" y="-521.5" font-family="Helvetica,sans-Serif" font-size="10.00">libs/SSystem/SComponent</text>
<text text-anchor="middle" x="924.5" y="-510.5" font-family="Helvetica,sans-Serif" font-size="10.00">/c_math.cpp</text>
</a>
</g>
</g>
<!-- Node2 -->
<g id="node2" class="node">
<title>Node2</title>
<g id="a_node2"><a xlink:href="c__math_8h.html" target="_top" xlink:title=" ">
<polygon fill="white" stroke="black" points="503.5,-442 503.5,-461 619.5,-461 619.5,-442 503.5,-442"/>
<text text-anchor="middle" x="561.5" y="-449" font-family="Helvetica,sans-Serif" font-size="10.00">SComponent/c_math.h</text>
</a>
</g>
</g>
<!-- Node1&#45;&gt;Node2 -->
<g id="edge1" class="edge">
<title>Node1&#45;&gt;Node2</title>
<path fill="none" stroke="midnightblue" d="M857.34,-506.91C797.24,-497.23 706.81,-482.15 628.5,-467 622.37,-465.81 615.93,-464.5 609.57,-463.17"/>
<polygon fill="midnightblue" stroke="midnightblue" points="610.21,-459.73 599.71,-461.07 608.76,-466.58 610.21,-459.73"/>
</g>
<!-- Node19 -->
<g id="node19" class="node">
<title>Node19</title>
<g id="a_node19"><a xlink:title=" ">
<polygon fill="white" stroke="#bfbfbf" points="637.5,-436.5 637.5,-466.5 767.5,-466.5 767.5,-436.5 637.5,-436.5"/>
<text text-anchor="start" x="645.5" y="-454.5" font-family="Helvetica,sans-Serif" font-size="10.00">SComponent/c_math/asm</text>
<text text-anchor="middle" x="702.5" y="-443.5" font-family="Helvetica,sans-Serif" font-size="10.00">/func_802675E4.s</text>
</a>
</g>
</g>
<!-- Node1&#45;&gt;Node19 -->
<g id="edge34" class="edge">
<title>Node1&#45;&gt;Node19</title>
<path fill="none" stroke="midnightblue" d="M876.6,-503.48C842.58,-493.51 796.72,-480.09 760.6,-469.51"/>
<polygon fill="midnightblue" stroke="midnightblue" points="761.27,-466.06 750.69,-466.61 759.31,-472.78 761.27,-466.06"/>
</g>
<!-- Node20 -->
<g id="node20" class="node">
<title>Node20</title>
<g id="a_node20"><a xlink:title=" ">
<polygon fill="white" stroke="#bfbfbf" points="785.5,-436.5 785.5,-466.5 915.5,-466.5 915.5,-436.5 785.5,-436.5"/>
<text text-anchor="start" x="793.5" y="-454.5" font-family="Helvetica,sans-Serif" font-size="10.00">SComponent/c_math/asm</text>
<text text-anchor="middle" x="850.5" y="-443.5" font-family="Helvetica,sans-Serif" font-size="10.00">/func_80267674.s</text>
</a>
</g>
</g>
<!-- Node1&#45;&gt;Node20 -->
<g id="edge35" class="edge">
<title>Node1&#45;&gt;Node20</title>
<path fill="none" stroke="midnightblue" d="M908.44,-503.4C898.46,-494.62 885.43,-483.18 874.26,-473.37"/>
<polygon fill="midnightblue" stroke="midnightblue" points="876.35,-470.55 866.53,-466.58 871.73,-475.81 876.35,-470.55"/>
</g>
<!-- Node21 -->
<g id="node21" class="node">
<title>Node21</title>
<g id="a_node21"><a xlink:title=" ">
<polygon fill="white" stroke="#bfbfbf" points="933.5,-436.5 933.5,-466.5 1063.5,-466.5 1063.5,-436.5 933.5,-436.5"/>
<text text-anchor="start" x="941.5" y="-454.5" font-family="Helvetica,sans-Serif" font-size="10.00">SComponent/c_math/asm</text>
<text text-anchor="middle" x="998.5" y="-443.5" font-family="Helvetica,sans-Serif" font-size="10.00">/func_80267814.s</text>
</a>
</g>
</g>
<!-- Node1&#45;&gt;Node21 -->
<g id="edge36" class="edge">
<title>Node1&#45;&gt;Node21</title>
<path fill="none" stroke="midnightblue" d="M940.56,-503.4C950.54,-494.62 963.57,-483.18 974.74,-473.37"/>
<polygon fill="midnightblue" stroke="midnightblue" points="977.27,-475.81 982.47,-466.58 972.65,-470.55 977.27,-475.81"/>
</g>
<!-- Node22 -->
<g id="node22" class="node">
<title>Node22</title>
<g id="a_node22"><a xlink:title=" ">
<polygon fill="white" stroke="#bfbfbf" points="1081.5,-436.5 1081.5,-466.5 1211.5,-466.5 1211.5,-436.5 1081.5,-436.5"/>
<text text-anchor="start" x="1089.5" y="-454.5" font-family="Helvetica,sans-Serif" font-size="10.00">SComponent/c_math/asm</text>
<text text-anchor="middle" x="1146.5" y="-443.5" font-family="Helvetica,sans-Serif" font-size="10.00">/func_8026786C.s</text>
</a>
</g>
</g>
<!-- Node1&#45;&gt;Node22 -->
<g id="edge37" class="edge">
<title>Node1&#45;&gt;Node22</title>
<path fill="none" stroke="midnightblue" d="M972.4,-503.48C1006.42,-493.51 1052.28,-480.09 1088.4,-469.51"/>
<polygon fill="midnightblue" stroke="midnightblue" points="1089.69,-472.78 1098.31,-466.61 1087.73,-466.06 1089.69,-472.78"/>
</g>
<!-- Node23 -->
<g id="node23" class="node">
<title>Node23</title>
<g id="a_node23"><a xlink:title=" ">
<polygon fill="white" stroke="#bfbfbf" points="1229.5,-436.5 1229.5,-466.5 1359.5,-466.5 1359.5,-436.5 1229.5,-436.5"/>
<text text-anchor="start" x="1237.5" y="-454.5" font-family="Helvetica,sans-Serif" font-size="10.00">SComponent/c_math/asm</text>
<text text-anchor="middle" x="1294.5" y="-443.5" font-family="Helvetica,sans-Serif" font-size="10.00">/func_802679E4.s</text>
</a>
</g>
</g>
<!-- Node1&#45;&gt;Node23 -->
<g id="edge38" class="edge">
<title>Node1&#45;&gt;Node23</title>
<path fill="none" stroke="midnightblue" d="M991.59,-506.54C1049.35,-496.99 1135.2,-482.53 1219.18,-467.22"/>
<polygon fill="midnightblue" stroke="midnightblue" points="1219.94,-470.64 1229.15,-465.4 1218.68,-463.75 1219.94,-470.64"/>
</g>
<!-- Node3 -->
<g id="node3" class="node">
<title>Node3</title>
<g id="a_node3"><a xlink:href="global_8h.html" target="_top" xlink:title=" ">
<polygon fill="white" stroke="black" points="345.5,-380.5 345.5,-399.5 395.5,-399.5 395.5,-380.5 345.5,-380.5"/>
<text text-anchor="middle" x="370.5" y="-387.5" font-family="Helvetica,sans-Serif" font-size="10.00">global.h</text>
</a>
</g>
</g>
<!-- Node2&#45;&gt;Node3 -->
<g id="edge2" class="edge">
<title>Node2&#45;&gt;Node3</title>
<path fill="none" stroke="midnightblue" d="M534.13,-441.98C500.29,-431.43 442.61,-413.46 405.55,-401.92"/>
<polygon fill="midnightblue" stroke="midnightblue" points="406.27,-398.48 395.68,-398.85 404.19,-405.16 406.27,-398.48"/>
</g>
<!-- Node4 -->
<g id="node4" class="node">
<title>Node4</title>
<g id="a_node4"><a xlink:href="types_8h.html" target="_top" xlink:title=" ">
<polygon fill="white" stroke="black" points="246,-0.5 246,-19.5 327,-19.5 327,-0.5 246,-0.5"/>
<text text-anchor="middle" x="286.5" y="-7.5" font-family="Helvetica,sans-Serif" font-size="10.00">dolphin/types.h</text>
</a>
</g>
</g>
<!-- Node3&#45;&gt;Node4 -->
<g id="edge3" class="edge">
<title>Node3&#45;&gt;Node4</title>
<path fill="none" stroke="midnightblue" d="M395.71,-386.67C479.21,-378.27 741.5,-346.1 741.5,-273.5 741.5,-273.5 741.5,-273.5 741.5,-137.5 741.5,-54.43 456.43,-23.61 337.57,-14.37"/>
<polygon fill="midnightblue" stroke="midnightblue" points="337.51,-10.86 327.28,-13.59 336.99,-17.84 337.51,-10.86"/>
</g>
<!-- Node5 -->
<g id="node5" class="node">
<title>Node5</title>
<g id="a_node5"><a xlink:href="AR_8h.html" target="_top" xlink:title=" ">
<polygon fill="white" stroke="black" points="0,-62 0,-81 49,-81 49,-62 0,-62"/>
<text text-anchor="middle" x="24.5" y="-69" font-family="Helvetica,sans-Serif" font-size="10.00">ar/AR.h</text>
</a>
</g>
</g>
<!-- Node3&#45;&gt;Node5 -->
<g id="edge4" class="edge">
<title>Node3&#45;&gt;Node5</title>
<path fill="none" stroke="midnightblue" d="M345.47,-386.28C265.05,-376.87 18.5,-342.4 18.5,-273.5 18.5,-273.5 18.5,-273.5 18.5,-204.5 18.5,-164.12 21.34,-116.85 23.11,-91.27"/>
<polygon fill="midnightblue" stroke="midnightblue" points="26.61,-91.37 23.83,-81.14 19.63,-90.87 26.61,-91.37"/>
</g>
<!-- Node6 -->
<g id="node6" class="node">
<title>Node6</title>
<g id="a_node6"><a xlink:href="ARQ_8h.html" target="_top" xlink:title=" ">
<polygon fill="white" stroke="black" points="46.5,-129 46.5,-148 102.5,-148 102.5,-129 46.5,-129"/>
<text text-anchor="middle" x="74.5" y="-136" font-family="Helvetica,sans-Serif" font-size="10.00">ar/ARQ.h</text>
</a>
</g>
</g>
<!-- Node3&#45;&gt;Node6 -->
<g id="edge6" class="edge">
<title>Node3&#45;&gt;Node6</title>
<path fill="none" stroke="midnightblue" d="M345.49,-387.56C311.3,-384.45 249.43,-374.69 207.5,-344 139.25,-294.05 96.55,-197.6 81.07,-157.58"/>
<polygon fill="midnightblue" stroke="midnightblue" points="84.29,-156.21 77.5,-148.08 77.74,-158.67 84.29,-156.21"/>
</g>
<!-- Node7 -->
<g id="node7" class="node">
<title>Node7</title>
<g id="a_node7"><a xlink:href="functions_8h.html" target="_top" xlink:title=" ">
<polygon fill="white" stroke="black" points="216.5,-324.5 216.5,-343.5 280.5,-343.5 280.5,-324.5 216.5,-324.5"/>
<text text-anchor="middle" x="248.5" y="-331.5" font-family="Helvetica,sans-Serif" font-size="10.00">functions.h</text>
</a>
</g>
</g>
<!-- Node3&#45;&gt;Node7 -->
<g id="edge8" class="edge">
<title>Node3&#45;&gt;Node7</title>
<path fill="none" stroke="midnightblue" d="M351.17,-380.44C331.18,-371.6 299.76,-357.69 276.94,-347.59"/>
<polygon fill="midnightblue" stroke="midnightblue" points="278.3,-344.36 267.74,-343.52 275.47,-350.76 278.3,-344.36"/>
</g>
<!-- Node9 -->
<g id="node9" class="node">
<title>Node9</title>
<g id="a_node9"><a xlink:href="mwcc_8h.html" target="_top" xlink:title=" ">
<polygon fill="white" stroke="black" points="302.5,-263 302.5,-282 352.5,-282 352.5,-263 302.5,-263"/>
<text text-anchor="middle" x="327.5" y="-270" font-family="Helvetica,sans-Serif" font-size="10.00">mwcc.h</text>
</a>
</g>
</g>
<!-- Node3&#45;&gt;Node9 -->
<g id="edge16" class="edge">
<title>Node3&#45;&gt;Node9</title>
<path fill="none" stroke="midnightblue" d="M367.27,-380.32C360.3,-361.59 343.71,-317.05 334.31,-291.79"/>
<polygon fill="midnightblue" stroke="midnightblue" points="337.54,-290.43 330.77,-282.28 330.98,-292.87 337.54,-290.43"/>
</g>
<!-- Node10 -->
<g id="node10" class="node">
<title>Node10</title>
<g id="a_node10"><a xlink:href="OS_8h.html" target="_top" xlink:title=" ">
<polygon fill="white" stroke="black" points="222.5,-263 222.5,-282 274.5,-282 274.5,-263 222.5,-263"/>
<text text-anchor="middle" x="248.5" y="-270" font-family="Helvetica,sans-Serif" font-size="10.00">os/OS.h</text>
</a>
</g>
</g>
<!-- Node3&#45;&gt;Node10 -->
<g id="edge17" class="edge">
<title>Node3&#45;&gt;Node10</title>
<path fill="none" stroke="midnightblue" d="M361.33,-380.32C340.84,-360.92 291.1,-313.83 265.04,-289.16"/>
<polygon fill="midnightblue" stroke="midnightblue" points="267.44,-286.62 257.78,-282.28 262.63,-291.7 267.44,-286.62"/>
</g>
<!-- Node12 -->
<g id="node12" class="node">
<title>Node12</title>
<g id="a_node12"><a xlink:href="variables_8h.html" target="_top" xlink:title=" ">
<polygon fill="white" stroke="black" points="456,-324.5 456,-343.5 519,-343.5 519,-324.5 456,-324.5"/>
<text text-anchor="middle" x="487.5" y="-331.5" font-family="Helvetica,sans-Serif" font-size="10.00">variables.h</text>
</a>
</g>
</g>
<!-- Node3&#45;&gt;Node12 -->
<g id="edge18" class="edge">
<title>Node3&#45;&gt;Node12</title>
<path fill="none" stroke="midnightblue" d="M389.04,-380.44C408.12,-371.64 438.07,-357.81 459.94,-347.72"/>
<polygon fill="midnightblue" stroke="midnightblue" points="461.43,-350.88 469.05,-343.52 458.5,-344.53 461.43,-350.88"/>
</g>
<!-- Node5&#45;&gt;Node4 -->
<g id="edge5" class="edge">
<title>Node5&#45;&gt;Node4</title>
<path fill="none" stroke="midnightblue" d="M49.07,-62.99C57.14,-60.62 66.17,-58.09 74.5,-56 129.23,-42.27 192.6,-29.19 235.7,-20.7"/>
<polygon fill="midnightblue" stroke="midnightblue" points="236.51,-24.11 245.66,-18.75 235.17,-17.24 236.51,-24.11"/>
</g>
<!-- Node6&#45;&gt;Node4 -->
<g id="edge7" class="edge">
<title>Node6&#45;&gt;Node4</title>
<path fill="none" stroke="midnightblue" d="M78.88,-128.94C87.79,-112.35 109.7,-75.71 138.5,-56 167.57,-36.11 205.71,-24.78 235.99,-18.47"/>
<polygon fill="midnightblue" stroke="midnightblue" points="236.79,-21.88 245.93,-16.52 235.44,-15.01 236.79,-21.88"/>
</g>
<!-- Node8 -->
<g id="node8" class="node">
<title>Node8</title>
<g id="a_node8"><a xlink:href="mtx__vec_8h.html" target="_top" xlink:title=" ">
<polygon fill="white" stroke="black" points="121,-129 121,-148 182,-148 182,-129 121,-129"/>
<text text-anchor="middle" x="151.5" y="-136" font-family="Helvetica,sans-Serif" font-size="10.00">mtx_vec.h</text>
</a>
</g>
</g>
<!-- Node7&#45;&gt;Node8 -->
<g id="edge9" class="edge">
<title>Node7&#45;&gt;Node8</title>
<path fill="none" stroke="midnightblue" d="M240.5,-324.2C232.87,-315.48 221.38,-301.51 213.5,-288 187.65,-243.71 167,-186.59 157.38,-157.81"/>
<polygon fill="midnightblue" stroke="midnightblue" points="160.68,-156.66 154.24,-148.25 154.03,-158.84 160.68,-156.66"/>
</g>
<!-- Node7&#45;&gt;Node9 -->
<g id="edge11" class="edge">
<title>Node7&#45;&gt;Node9</title>
<path fill="none" stroke="midnightblue" d="M259.82,-324.48C272.37,-315.02 292.85,-299.6 308,-288.19"/>
<polygon fill="midnightblue" stroke="midnightblue" points="310.32,-290.82 316.2,-282.01 306.11,-285.23 310.32,-290.82"/>
</g>
<!-- Node7&#45;&gt;Node10 -->
<g id="edge12" class="edge">
<title>Node7&#45;&gt;Node10</title>
<path fill="none" stroke="midnightblue" d="M248.5,-324.48C248.5,-316.08 248.5,-302.98 248.5,-292.16"/>
<polygon fill="midnightblue" stroke="midnightblue" points="252,-292.01 248.5,-282.01 245,-292.01 252,-292.01"/>
</g>
<!-- Node8&#45;&gt;Node4 -->
<g id="edge10" class="edge">
<title>Node8&#45;&gt;Node4</title>
<path fill="none" stroke="midnightblue" d="M148.52,-128.9C143.56,-112.86 135.62,-78.04 151.5,-56 170.56,-29.56 205.83,-18.42 235.55,-13.83"/>
<polygon fill="midnightblue" stroke="midnightblue" points="236.34,-17.26 245.79,-12.47 235.41,-10.32 236.34,-17.26"/>
</g>
<!-- Node10&#45;&gt;Node4 -->
<g id="edge13" class="edge">
<title>Node10&#45;&gt;Node4</title>
<path fill="none" stroke="midnightblue" d="M249.7,-262.87C253.78,-233.74 267.47,-136.37 279.5,-56 280.8,-47.29 282.3,-37.64 283.57,-29.52"/>
<polygon fill="midnightblue" stroke="midnightblue" points="287.03,-30.05 285.13,-19.62 280.12,-28.96 287.03,-30.05"/>
</g>
<!-- Node11 -->
<g id="node11" class="node">
<title>Node11</title>
<g id="a_node11"><a xlink:href="dvd_8h.html" target="_top" xlink:title=" ">
<polygon fill="white" stroke="black" points="161,-62 161,-81 220,-81 220,-62 161,-62"/>
<text text-anchor="middle" x="190.5" y="-69" font-family="Helvetica,sans-Serif" font-size="10.00">dvd/dvd.h</text>
</a>
</g>
</g>
<!-- Node10&#45;&gt;Node11 -->
<g id="edge14" class="edge">
<title>Node10&#45;&gt;Node11</title>
<path fill="none" stroke="midnightblue" d="M246.01,-262.95C237.29,-233.04 208.03,-132.66 195.87,-90.93"/>
<polygon fill="midnightblue" stroke="midnightblue" points="199.21,-89.86 193.05,-81.24 192.49,-91.82 199.21,-89.86"/>
</g>
<!-- Node11&#45;&gt;Node4 -->
<g id="edge15" class="edge">
<title>Node11&#45;&gt;Node4</title>
<path fill="none" stroke="midnightblue" d="M204.25,-61.98C219.87,-52.3 245.56,-36.37 264.08,-24.89"/>
<polygon fill="midnightblue" stroke="midnightblue" points="266.12,-27.75 272.77,-19.51 262.43,-21.8 266.12,-27.75"/>
</g>
<!-- Node13 -->
<g id="node13" class="node">
<title>Node13</title>
<g id="a_node13"><a xlink:href="JSUList_8h.html" target="_top" xlink:title=" ">
<polygon fill="white" stroke="black" points="352.5,-56.5 352.5,-86.5 488.5,-86.5 488.5,-56.5 352.5,-56.5"/>
<text text-anchor="start" x="360.5" y="-74.5" font-family="Helvetica,sans-Serif" font-size="10.00">JSystem/JSupport/JSUList</text>
<text text-anchor="middle" x="420.5" y="-63.5" font-family="Helvetica,sans-Serif" font-size="10.00">/JSUList.h</text>
</a>
</g>
</g>
<!-- Node12&#45;&gt;Node13 -->
<g id="edge19" class="edge">
<title>Node12&#45;&gt;Node13</title>
<path fill="none" stroke="midnightblue" d="M478.48,-324.34C470.43,-315.93 459.2,-302.36 454.5,-288 450.21,-274.91 452.12,-270.57 454.5,-257 457.43,-240.24 463.58,-237.55 467.5,-221 474.42,-191.82 473.72,-183.94 475.5,-154 476.32,-140.25 481.04,-135.61 475.5,-123 470.33,-111.22 460.9,-100.99 451.3,-92.87"/>
<polygon fill="midnightblue" stroke="midnightblue" points="453.3,-90 443.28,-86.56 448.97,-95.5 453.3,-90"/>
</g>
<!-- Node14 -->
<g id="node14" class="node">
<title>Node14</title>
<g id="a_node14"><a xlink:href="JUTXfb_8h.html" target="_top" xlink:title=" ">
<polygon fill="white" stroke="black" points="463,-257.5 463,-287.5 588,-287.5 588,-257.5 463,-257.5"/>
<text text-anchor="start" x="471" y="-275.5" font-family="Helvetica,sans-Serif" font-size="10.00">JSystem/JUtility/JUTXfb</text>
<text text-anchor="middle" x="525.5" y="-264.5" font-family="Helvetica,sans-Serif" font-size="10.00">/JUTXfb.h</text>
</a>
</g>
</g>
<!-- Node12&#45;&gt;Node14 -->
<g id="edge21" class="edge">
<title>Node12&#45;&gt;Node14</title>
<path fill="none" stroke="midnightblue" d="M492.94,-324.48C497.66,-317.09 504.69,-306.08 511.02,-296.17"/>
<polygon fill="midnightblue" stroke="midnightblue" points="514.11,-297.83 516.54,-287.52 508.21,-294.07 514.11,-297.83"/>
</g>
<!-- Node18 -->
<g id="node18" class="node">
<title>Node18</title>
<g id="a_node18"><a xlink:href="c__xyz_8h.html" target="_top" xlink:title=" ">
<polygon fill="white" stroke="black" points="606,-263 606,-282 713,-282 713,-263 606,-263"/>
<text text-anchor="middle" x="659.5" y="-270" font-family="Helvetica,sans-Serif" font-size="10.00">SComponent/c_xyz.h</text>
</a>
</g>
</g>
<!-- Node12&#45;&gt;Node18 -->
<g id="edge31" class="edge">
<title>Node12&#45;&gt;Node18</title>
<path fill="none" stroke="midnightblue" d="M512.14,-324.48C541.78,-314.22 591.68,-296.96 625.1,-285.4"/>
<polygon fill="midnightblue" stroke="midnightblue" points="626.6,-288.59 634.9,-282.01 624.31,-281.97 626.6,-288.59"/>
</g>
<!-- Node13&#45;&gt;Node4 -->
<g id="edge20" class="edge">
<title>Node13&#45;&gt;Node4</title>
<path fill="none" stroke="midnightblue" d="M388.74,-56.4C366.46,-46.51 336.91,-33.38 315.31,-23.79"/>
<polygon fill="midnightblue" stroke="midnightblue" points="316.56,-20.52 306,-19.66 313.72,-26.91 316.56,-20.52"/>
</g>
<!-- Node14&#45;&gt;Node4 -->
<g id="edge28" class="edge">
<title>Node14&#45;&gt;Node4</title>
<path fill="none" stroke="midnightblue" d="M528.58,-257.42C536,-219.39 550.57,-113.55 497.5,-56 476.23,-32.93 392.4,-20.78 337.02,-15.14"/>
<polygon fill="midnightblue" stroke="midnightblue" points="337.33,-11.65 327.03,-14.16 336.64,-18.62 337.33,-11.65"/>
</g>
<!-- Node15 -->
<g id="node15" class="node">
<title>Node15</title>
<g id="a_node15"><a xlink:href="JKRHeap_8h.html" target="_top" xlink:title=" ">
<polygon fill="white" stroke="black" points="322.5,-190.5 322.5,-220.5 458.5,-220.5 458.5,-190.5 322.5,-190.5"/>
<text text-anchor="start" x="330.5" y="-208.5" font-family="Helvetica,sans-Serif" font-size="10.00">JSystem/JKernel/JKRHeap</text>
<text text-anchor="middle" x="390.5" y="-197.5" font-family="Helvetica,sans-Serif" font-size="10.00">/JKRHeap.h</text>
</a>
</g>
</g>
<!-- Node14&#45;&gt;Node15 -->
<g id="edge22" class="edge">
<title>Node14&#45;&gt;Node15</title>
<path fill="none" stroke="midnightblue" d="M496.21,-257.4C476.48,-247.9 450.27,-235.28 428.88,-224.98"/>
<polygon fill="midnightblue" stroke="midnightblue" points="430.26,-221.76 419.74,-220.58 427.23,-228.07 430.26,-221.76"/>
</g>
<!-- Node17 -->
<g id="node17" class="node">
<title>Node17</title>
<g id="a_node17"><a xlink:href="GX_8h.html" target="_top" xlink:title=" ">
<polygon fill="white" stroke="black" points="561,-196 561,-215 612,-215 612,-196 561,-196"/>
<text text-anchor="middle" x="586.5" y="-203" font-family="Helvetica,sans-Serif" font-size="10.00">gx/GX.h</text>
</a>
</g>
</g>
<!-- Node14&#45;&gt;Node17 -->
<g id="edge29" class="edge">
<title>Node14&#45;&gt;Node17</title>
<path fill="none" stroke="midnightblue" d="M538.74,-257.4C548.34,-247.16 561.35,-233.3 571.37,-222.62"/>
<polygon fill="midnightblue" stroke="midnightblue" points="574.05,-224.88 578.34,-215.19 568.95,-220.09 574.05,-224.88"/>
</g>
<!-- Node15&#45;&gt;Node3 -->
<g id="edge27" class="edge">
<title>Node15&#45;&gt;Node3</title>
<path fill="none" stroke="midnightblue" d="M388.94,-220.69C385.38,-253.21 376.63,-333.09 372.6,-369.88"/>
<polygon fill="midnightblue" stroke="midnightblue" points="369.07,-369.88 371.46,-380.2 376.03,-370.64 369.07,-369.88"/>
</g>
<!-- Node15&#45;&gt;Node4 -->
<g id="edge26" class="edge">
<title>Node15&#45;&gt;Node4</title>
<path fill="none" stroke="midnightblue" d="M351.44,-190.41C334.63,-182.34 316.37,-170.47 305.5,-154 280.17,-115.62 281.4,-58.72 284.12,-29.62"/>
<polygon fill="midnightblue" stroke="midnightblue" points="287.61,-29.93 285.23,-19.61 280.65,-29.17 287.61,-29.93"/>
</g>
<!-- Node16 -->
<g id="node16" class="node">
<title>Node16</title>
<g id="a_node16"><a xlink:href="JKRDisposer_8h.html" target="_top" xlink:title=" ">
<polygon fill="white" stroke="black" points="315,-123.5 315,-153.5 466,-153.5 466,-123.5 315,-123.5"/>
<text text-anchor="start" x="323" y="-141.5" font-family="Helvetica,sans-Serif" font-size="10.00">JSystem/JKernel/JKRDisposer</text>
<text text-anchor="middle" x="390.5" y="-130.5" font-family="Helvetica,sans-Serif" font-size="10.00">/JKRDisposer.h</text>
</a>
</g>
</g>
<!-- Node15&#45;&gt;Node16 -->
<g id="edge23" class="edge">
<title>Node15&#45;&gt;Node16</title>
<path fill="none" stroke="midnightblue" d="M390.5,-190.4C390.5,-182.64 390.5,-172.81 390.5,-163.86"/>
<polygon fill="midnightblue" stroke="midnightblue" points="394,-163.58 390.5,-153.58 387,-163.58 394,-163.58"/>
</g>
<!-- Node16&#45;&gt;Node4 -->
<g id="edge25" class="edge">
<title>Node16&#45;&gt;Node4</title>
<path fill="none" stroke="midnightblue" d="M376.51,-123.28C366.93,-113.36 354.1,-99.68 343.5,-87 327.05,-67.33 309.55,-43.52 298.35,-27.85"/>
<polygon fill="midnightblue" stroke="midnightblue" points="301.18,-25.79 292.54,-19.66 295.47,-29.84 301.18,-25.79"/>
</g>
<!-- Node16&#45;&gt;Node13 -->
<g id="edge24" class="edge">
<title>Node16&#45;&gt;Node13</title>
<path fill="none" stroke="midnightblue" d="M397.01,-123.4C400.74,-115.3 405.53,-104.94 409.8,-95.69"/>
<polygon fill="midnightblue" stroke="midnightblue" points="412.99,-97.12 414,-86.58 406.63,-94.19 412.99,-97.12"/>
</g>
<!-- Node17&#45;&gt;Node4 -->
<g id="edge30" class="edge">
<title>Node17&#45;&gt;Node4</title>
<path fill="none" stroke="midnightblue" d="M587.08,-195.87C588.31,-170.23 588.12,-93.97 546.5,-56 516.62,-28.75 404.29,-17.68 337.45,-13.44"/>
<polygon fill="midnightblue" stroke="midnightblue" points="337.32,-9.92 327.13,-12.81 336.9,-16.91 337.32,-9.92"/>
</g>
<!-- Node18&#45;&gt;Node2 -->
<g id="edge32" class="edge">
<title>Node18&#45;&gt;Node2</title>
<path fill="none" stroke="midnightblue" d="M654.59,-282.37C639.23,-310.1 591.92,-395.55 571.29,-432.82"/>
<polygon fill="midnightblue" stroke="midnightblue" points="568.01,-431.52 566.23,-441.96 574.13,-434.91 568.01,-431.52"/>
</g>
<!-- Node18&#45;&gt;Node3 -->
<g id="edge33" class="edge">
<title>Node18&#45;&gt;Node3</title>
<path fill="none" stroke="midnightblue" d="M645.83,-282.15C622.52,-296.59 573.25,-325.84 528.5,-344 487.48,-360.65 438.13,-373.65 405.62,-381.31"/>
<polygon fill="midnightblue" stroke="midnightblue" points="404.64,-377.94 395.69,-383.6 406.22,-384.76 404.64,-377.94"/>
</g>
</g>
</svg>
