<?xml version="1.0" encoding="UTF-8" standalone="no"?>
<!DOCTYPE svg PUBLIC "-//W3C//DTD SVG 1.1//EN"
 "http://www.w3.org/Graphics/SVG/1.1/DTD/svg11.dtd">
<!-- Generated by graphviz version 2.46.1 (20210215.1649)
 -->
<!-- Title: include/SComponent/c_m3d_g_aab.h Pages: 1 -->
<svg width="5486pt" height="441pt"
 viewBox="0.00 0.00 5486.00 441.00" xmlns="http://www.w3.org/2000/svg" xmlns:xlink="http://www.w3.org/1999/xlink">
<g id="graph0" class="graph" transform="scale(1 1) rotate(0) translate(4 437)">
<title>include/SComponent/c_m3d_g_aab.h</title>
<polygon fill="white" stroke="transparent" points="-4,4 -4,-437 5482,-437 5482,4 -4,4"/>
<!-- Node1 -->
<g id="node1" class="node">
<title>Node1</title>
<g id="a_node1"><a xlink:title=" ">
<polygon fill="#bfbfbf" stroke="black" points="2359,-402.5 2359,-432.5 2466,-432.5 2466,-402.5 2359,-402.5"/>
<text text-anchor="start" x="2367" y="-420.5" font-family="Helvetica,sans-Serif" font-size="10.00">include/SComponent</text>
<text text-anchor="middle" x="2412.5" y="-409.5" font-family="Helvetica,sans-Serif" font-size="10.00">/c_m3d_g_aab.h</text>
</a>
</g>
</g>
<!-- Node2 -->
<g id="node2" class="node">
<title>Node2</title>
<g id="a_node2"><a xlink:href="c__m3d__g__aab_8cpp.html" target="_top" xlink:title=" ">
<polygon fill="white" stroke="black" points="2193.5,-335.5 2193.5,-365.5 2327.5,-365.5 2327.5,-335.5 2193.5,-335.5"/>
<text text-anchor="start" x="2201.5" y="-353.5" font-family="Helvetica,sans-Serif" font-size="10.00">libs/SSystem/SComponent</text>
<text text-anchor="middle" x="2260.5" y="-342.5" font-family="Helvetica,sans-Serif" font-size="10.00">/c_m3d_g_aab.cpp</text>
</a>
</g>
</g>
<!-- Node1&#45;&gt;Node2 -->
<g id="edge1" class="edge">
<title>Node1&#45;&gt;Node2</title>
<path fill="none" stroke="midnightblue" d="M2370.19,-398.41C2345.92,-388.03 2315.91,-375.2 2293.42,-365.58"/>
<polygon fill="midnightblue" stroke="midnightblue" points="2368.95,-401.68 2379.52,-402.4 2371.7,-395.25 2368.95,-401.68"/>
</g>
<!-- Node3 -->
<g id="node3" class="node">
<title>Node3</title>
<g id="a_node3"><a xlink:href="c__m3d_8cpp.html" target="_top" xlink:title=" ">
<polygon fill="white" stroke="black" points="2345.5,-335.5 2345.5,-365.5 2479.5,-365.5 2479.5,-335.5 2345.5,-335.5"/>
<text text-anchor="start" x="2353.5" y="-353.5" font-family="Helvetica,sans-Serif" font-size="10.00">libs/SSystem/SComponent</text>
<text text-anchor="middle" x="2412.5" y="-342.5" font-family="Helvetica,sans-Serif" font-size="10.00">/c_m3d.cpp</text>
</a>
</g>
</g>
<!-- Node1&#45;&gt;Node3 -->
<g id="edge2" class="edge">
<title>Node1&#45;&gt;Node3</title>
<path fill="none" stroke="midnightblue" d="M2412.5,-392.11C2412.5,-383.15 2412.5,-373.32 2412.5,-365.58"/>
<polygon fill="midnightblue" stroke="midnightblue" points="2409,-392.4 2412.5,-402.4 2416,-392.4 2409,-392.4"/>
</g>
<!-- Node4 -->
<g id="node4" class="node">
<title>Node4</title>
<g id="a_node4"><a xlink:href="c__cc__d_8h.html" target="_top" xlink:title=" ">
<polygon fill="white" stroke="black" points="2498,-335.5 2498,-365.5 2605,-365.5 2605,-335.5 2498,-335.5"/>
<text text-anchor="start" x="2506" y="-353.5" font-family="Helvetica,sans-Serif" font-size="10.00">include/SComponent</text>
<text text-anchor="middle" x="2551.5" y="-342.5" font-family="Helvetica,sans-Serif" font-size="10.00">/c_cc_d/c_cc_d.h</text>
</a>
</g>
</g>
<!-- Node1&#45;&gt;Node4 -->
<g id="edge3" class="edge">
<title>Node1&#45;&gt;Node4</title>
<path fill="none" stroke="midnightblue" d="M2451.78,-398.13C2473.87,-387.8 2501.01,-375.11 2521.4,-365.58"/>
<polygon fill="midnightblue" stroke="midnightblue" points="2450.24,-394.99 2442.66,-402.4 2453.2,-401.33 2450.24,-394.99"/>
</g>
<!-- Node5 -->
<g id="node5" class="node">
<title>Node5</title>
<g id="a_node5"><a xlink:href="d__cc__mass__s_8h.html" target="_top" xlink:title=" ">
<polygon fill="white" stroke="black" points="2419.5,-268.5 2419.5,-298.5 2547.5,-298.5 2547.5,-268.5 2419.5,-268.5"/>
<text text-anchor="start" x="2427.5" y="-286.5" font-family="Helvetica,sans-Serif" font-size="10.00">include/d/d_cc/d_cc</text>
<text text-anchor="middle" x="2483.5" y="-275.5" font-family="Helvetica,sans-Serif" font-size="10.00">_mass_s/d_cc_mass_s.h</text>
</a>
</g>
</g>
<!-- Node4&#45;&gt;Node5 -->
<g id="edge4" class="edge">
<title>Node4&#45;&gt;Node5</title>
<path fill="none" stroke="midnightblue" d="M2529.33,-328.31C2519.13,-318.56 2507.31,-307.26 2498.23,-298.58"/>
<polygon fill="midnightblue" stroke="midnightblue" points="2527.1,-331.02 2536.75,-335.4 2531.93,-325.96 2527.1,-331.02"/>
</g>
<!-- Node53 -->
<g id="node50" class="node">
<title>Node53</title>
<g id="a_node50"><a xlink:href="c__cc__s_8h.html" target="_top" xlink:title=" ">
<polygon fill="white" stroke="black" points="2566,-268.5 2566,-298.5 2673,-298.5 2673,-268.5 2566,-268.5"/>
<text text-anchor="start" x="2574" y="-286.5" font-family="Helvetica,sans-Serif" font-size="10.00">include/SComponent</text>
<text text-anchor="middle" x="2619.5" y="-275.5" font-family="Helvetica,sans-Serif" font-size="10.00">/c_cc_s/c_cc_s.h</text>
</a>
</g>
</g>
<!-- Node4&#45;&gt;Node53 -->
<g id="edge53" class="edge">
<title>Node4&#45;&gt;Node53</title>
<path fill="none" stroke="midnightblue" d="M2573.67,-328.31C2583.87,-318.56 2595.69,-307.26 2604.77,-298.58"/>
<polygon fill="midnightblue" stroke="midnightblue" points="2571.07,-325.96 2566.25,-335.4 2575.9,-331.02 2571.07,-325.96"/>
</g>
<!-- Node6 -->
<g id="node6" class="node">
<title>Node6</title>
<g id="a_node6"><a xlink:href="d__cc__s_8h.html" target="_top" xlink:title=" ">
<polygon fill="white" stroke="black" points="2499.5,-201.5 2499.5,-231.5 2603.5,-231.5 2603.5,-201.5 2499.5,-201.5"/>
<text text-anchor="start" x="2507.5" y="-219.5" font-family="Helvetica,sans-Serif" font-size="10.00">include/d/d_cc/d_cc</text>
<text text-anchor="middle" x="2551.5" y="-208.5" font-family="Helvetica,sans-Serif" font-size="10.00">_s/d_cc_s.h</text>
</a>
</g>
</g>
<!-- Node5&#45;&gt;Node6 -->
<g id="edge5" class="edge">
<title>Node5&#45;&gt;Node6</title>
<path fill="none" stroke="midnightblue" d="M2505.67,-261.31C2515.87,-251.56 2527.69,-240.26 2536.77,-231.58"/>
<polygon fill="midnightblue" stroke="midnightblue" points="2503.07,-258.96 2498.25,-268.4 2507.9,-264.02 2503.07,-258.96"/>
</g>
<!-- Node7 -->
<g id="node7" class="node">
<title>Node7</title>
<g id="a_node7"><a xlink:href="d__com__inf__game_8h.html" target="_top" xlink:title=" ">
<polygon fill="white" stroke="black" points="2478.5,-134.5 2478.5,-164.5 2624.5,-164.5 2624.5,-134.5 2478.5,-134.5"/>
<text text-anchor="start" x="2486.5" y="-152.5" font-family="Helvetica,sans-Serif" font-size="10.00">include/d/d_com/d_com</text>
<text text-anchor="middle" x="2551.5" y="-141.5" font-family="Helvetica,sans-Serif" font-size="10.00">_inf_game/d_com_inf_game.h</text>
</a>
</g>
</g>
<!-- Node6&#45;&gt;Node7 -->
<g id="edge6" class="edge">
<title>Node6&#45;&gt;Node7</title>
<path fill="none" stroke="midnightblue" d="M2551.5,-191.11C2551.5,-182.15 2551.5,-172.32 2551.5,-164.58"/>
<polygon fill="midnightblue" stroke="midnightblue" points="2548,-191.4 2551.5,-201.4 2555,-191.4 2548,-191.4"/>
</g>
<!-- Node8 -->
<g id="node8" class="node">
<title>Node8</title>
<g id="a_node8"><a xlink:href="d__attention_8cpp.html" target="_top" xlink:title=" ">
<polygon fill="white" stroke="black" points="110,-6 110,-25 217,-25 217,-6 110,-6"/>
<text text-anchor="middle" x="163.5" y="-13" font-family="Helvetica,sans-Serif" font-size="10.00">src/d/d_attention.cpp</text>
</a>
</g>
</g>
<!-- Node7&#45;&gt;Node8 -->
<g id="edge7" class="edge">
<title>Node7&#45;&gt;Node8</title>
<path fill="none" stroke="midnightblue" d="M2468.12,-148.16C2071.5,-146.34 390.61,-136.39 286.5,-98 266.05,-90.46 266.36,-79.49 248.5,-67 225.43,-50.87 197.03,-34.68 179.6,-25.13"/>
<polygon fill="midnightblue" stroke="midnightblue" points="2468.35,-151.66 2478.37,-148.2 2468.39,-144.66 2468.35,-151.66"/>
</g>
<!-- Node9 -->
<g id="node9" class="node">
<title>Node9</title>
<g id="a_node9"><a xlink:href="d__camera_8cpp.html" target="_top" xlink:title=" ">
<polygon fill="white" stroke="black" points="137.5,-73 137.5,-92 239.5,-92 239.5,-73 137.5,-73"/>
<text text-anchor="middle" x="188.5" y="-80" font-family="Helvetica,sans-Serif" font-size="10.00">src/d/d_camera.cpp</text>
</a>
</g>
</g>
<!-- Node7&#45;&gt;Node9 -->
<g id="edge8" class="edge">
<title>Node7&#45;&gt;Node9</title>
<path fill="none" stroke="midnightblue" d="M2468.42,-148.87C2110.09,-150.14 695.05,-151.57 253.5,-98 242.83,-96.7 231.33,-94.44 221.02,-92.07"/>
<polygon fill="midnightblue" stroke="midnightblue" points="2468.47,-152.37 2478.46,-148.84 2468.45,-145.37 2468.47,-152.37"/>
</g>
<!-- Node10 -->
<g id="node10" class="node">
<title>Node10</title>
<g id="a_node10"><a xlink:href="d__com__inf__game_8cpp.html" target="_top" xlink:title=" ">
<polygon fill="white" stroke="black" points="1724,-0.5 1724,-30.5 1843,-30.5 1843,-0.5 1724,-0.5"/>
<text text-anchor="start" x="1732" y="-18.5" font-family="Helvetica,sans-Serif" font-size="10.00">src/d/d_com/d_com_inf</text>
<text text-anchor="middle" x="1783.5" y="-7.5" font-family="Helvetica,sans-Serif" font-size="10.00">_game.cpp</text>
</a>
</g>
</g>
<!-- Node7&#45;&gt;Node10 -->
<g id="edge9" class="edge">
<title>Node7&#45;&gt;Node10</title>
<path fill="none" stroke="midnightblue" d="M2468.39,-148.09C2080.86,-146 468.68,-135.06 432.5,-98 422.87,-88.14 422.94,-76.92 432.5,-67 477.87,-19.91 1468.24,-16.54 1723.77,-16.45"/>
<polygon fill="midnightblue" stroke="midnightblue" points="2468.38,-151.59 2478.4,-148.15 2468.42,-144.59 2468.38,-151.59"/>
</g>
<!-- Node11 -->
<g id="node11" class="node">
<title>Node11</title>
<g id="a_node11"><a xlink:href="d__file__sel__info_8cpp.html" target="_top" xlink:title=" ">
<polygon fill="white" stroke="black" points="296,-67.5 296,-97.5 385,-97.5 385,-67.5 296,-67.5"/>
<text text-anchor="start" x="304" y="-85.5" font-family="Helvetica,sans-Serif" font-size="10.00">src/d/d_file/d_file</text>
<text text-anchor="middle" x="340.5" y="-74.5" font-family="Helvetica,sans-Serif" font-size="10.00">_sel_info.cpp</text>
</a>
</g>
</g>
<!-- Node7&#45;&gt;Node11 -->
<g id="edge10" class="edge">
<title>Node7&#45;&gt;Node11</title>
<path fill="none" stroke="midnightblue" d="M2468.28,-147.62C2097.7,-143.55 606.86,-125.58 399.5,-98 394.79,-97.37 389.92,-96.52 385.08,-95.54"/>
<polygon fill="midnightblue" stroke="midnightblue" points="2468.35,-151.12 2478.39,-147.73 2468.43,-144.12 2468.35,-151.12"/>
</g>
<!-- Node12 -->
<g id="node12" class="node">
<title>Node12</title>
<g id="a_node12"><a xlink:href="d__item_8cpp.html" target="_top" xlink:title=" ">
<polygon fill="white" stroke="black" points="4187,-6 4187,-25 4308,-25 4308,-6 4187,-6"/>
<text text-anchor="middle" x="4247.5" y="-13" font-family="Helvetica,sans-Serif" font-size="10.00">src/d/d_item/d_item.cpp</text>
</a>
</g>
</g>
<!-- Node7&#45;&gt;Node12 -->
<g id="edge11" class="edge">
<title>Node7&#45;&gt;Node12</title>
<path fill="none" stroke="midnightblue" d="M2634.65,-148.56C3088.47,-148.68 5247.71,-146.68 5295.5,-98 5305.15,-88.17 5305.01,-76.97 5295.5,-67 5261.28,-31.09 4526.21,-19.72 4308.03,-17.14"/>
<polygon fill="midnightblue" stroke="midnightblue" points="2634.56,-145.06 2624.56,-148.55 2634.56,-152.06 2634.56,-145.06"/>
</g>
<!-- Node13 -->
<g id="node13" class="node">
<title>Node13</title>
<g id="a_node13"><a xlink:href="d__kankyo__rain_8cpp.html" target="_top" xlink:title=" ">
<polygon fill="white" stroke="black" points="442,-67.5 442,-97.5 569,-97.5 569,-67.5 442,-67.5"/>
<text text-anchor="start" x="450" y="-85.5" font-family="Helvetica,sans-Serif" font-size="10.00">src/d/d_kankyo/d_kankyo</text>
<text text-anchor="middle" x="505.5" y="-74.5" font-family="Helvetica,sans-Serif" font-size="10.00">_rain.cpp</text>
</a>
</g>
</g>
<!-- Node7&#45;&gt;Node13 -->
<g id="edge12" class="edge">
<title>Node7&#45;&gt;Node13</title>
<path fill="none" stroke="midnightblue" d="M2468.09,-148.29C2141.93,-147.17 952.42,-140.23 577.5,-98 574.71,-97.69 571.87,-97.32 569.01,-96.91"/>
<polygon fill="midnightblue" stroke="midnightblue" points="2468.4,-151.79 2478.41,-148.32 2468.42,-144.79 2468.4,-151.79"/>
</g>
<!-- Node14 -->
<g id="node14" class="node">
<title>Node14</title>
<g id="a_node14"><a xlink:href="d__kankyo__wether_8cpp.html" target="_top" xlink:title=" ">
<polygon fill="white" stroke="black" points="587,-67.5 587,-97.5 714,-97.5 714,-67.5 587,-67.5"/>
<text text-anchor="start" x="595" y="-85.5" font-family="Helvetica,sans-Serif" font-size="10.00">src/d/d_kankyo/d_kankyo</text>
<text text-anchor="middle" x="650.5" y="-74.5" font-family="Helvetica,sans-Serif" font-size="10.00">_wether.cpp</text>
</a>
</g>
</g>
<!-- Node7&#45;&gt;Node14 -->
<g id="edge13" class="edge">
<title>Node7&#45;&gt;Node14</title>
<path fill="none" stroke="midnightblue" d="M2468.06,-148.09C2157.34,-146.28 1067.54,-137.22 722.5,-98 719.71,-97.68 716.87,-97.31 714.01,-96.9"/>
<polygon fill="midnightblue" stroke="midnightblue" points="2468.33,-151.59 2478.35,-148.15 2468.37,-144.59 2468.33,-151.59"/>
</g>
<!-- Node15 -->
<g id="node15" class="node">
<title>Node15</title>
<g id="a_node15"><a xlink:href="d__kankyo_8cpp.html" target="_top" xlink:title=" ">
<polygon fill="white" stroke="black" points="732,-73 732,-92 833,-92 833,-73 732,-73"/>
<text text-anchor="middle" x="782.5" y="-80" font-family="Helvetica,sans-Serif" font-size="10.00">src/d/d_kankyo.cpp</text>
</a>
</g>
</g>
<!-- Node7&#45;&gt;Node15 -->
<g id="edge14" class="edge">
<title>Node7&#45;&gt;Node15</title>
<path fill="none" stroke="midnightblue" d="M2467.99,-148.37C2170.23,-147.54 1161.25,-141.51 841.5,-98 831.78,-96.68 821.34,-94.4 811.98,-92.04"/>
<polygon fill="midnightblue" stroke="midnightblue" points="2468.28,-151.87 2478.28,-148.4 2468.29,-144.87 2468.28,-151.87"/>
</g>
<!-- Node16 -->
<g id="node16" class="node">
<title>Node16</title>
<g id="a_node16"><a xlink:href="d__kantera__icon__meter_8cpp.html" target="_top" xlink:title=" ">
<polygon fill="white" stroke="black" points="851,-67.5 851,-97.5 958,-97.5 958,-67.5 851,-67.5"/>
<text text-anchor="start" x="859" y="-85.5" font-family="Helvetica,sans-Serif" font-size="10.00">src/d/d_kantera_icon</text>
<text text-anchor="middle" x="904.5" y="-74.5" font-family="Helvetica,sans-Serif" font-size="10.00">_meter.cpp</text>
</a>
</g>
</g>
<!-- Node7&#45;&gt;Node16 -->
<g id="edge15" class="edge">
<title>Node7&#45;&gt;Node16</title>
<path fill="none" stroke="midnightblue" d="M2467.95,-148.02C2184.52,-146.05 1260.9,-136.73 966.5,-98 963.76,-97.64 960.96,-97.21 958.15,-96.73"/>
<polygon fill="midnightblue" stroke="midnightblue" points="2468.14,-151.52 2478.17,-148.09 2468.19,-144.52 2468.14,-151.52"/>
</g>
<!-- Node17 -->
<g id="node17" class="node">
<title>Node17</title>
<g id="a_node17"><a xlink:href="d__kyeff_8cpp.html" target="_top" xlink:title=" ">
<polygon fill="white" stroke="black" points="976,-73 976,-92 1089,-92 1089,-73 976,-73"/>
<text text-anchor="middle" x="1032.5" y="-80" font-family="Helvetica,sans-Serif" font-size="10.00">src/d/d_ky/d_kyeff.cpp</text>
</a>
</g>
</g>
<!-- Node7&#45;&gt;Node17 -->
<g id="edge16" class="edge">
<title>Node7&#45;&gt;Node17</title>
<path fill="none" stroke="midnightblue" d="M2468.11,-147.63C2200.53,-144.52 1365.43,-132.24 1097.5,-98 1086.95,-96.65 1075.59,-94.4 1065.36,-92.07"/>
<polygon fill="midnightblue" stroke="midnightblue" points="2468.11,-151.13 2478.15,-147.74 2468.19,-144.13 2468.11,-151.13"/>
</g>
<!-- Node18 -->
<g id="node18" class="node">
<title>Node18</title>
<g id="a_node18"><a xlink:href="d__meter__button_8cpp.html" target="_top" xlink:title=" ">
<polygon fill="white" stroke="black" points="1107,-67.5 1107,-97.5 1222,-97.5 1222,-67.5 1107,-67.5"/>
<text text-anchor="start" x="1115" y="-85.5" font-family="Helvetica,sans-Serif" font-size="10.00">src/d/d_meter/d_meter</text>
<text text-anchor="middle" x="1164.5" y="-74.5" font-family="Helvetica,sans-Serif" font-size="10.00">_button.cpp</text>
</a>
</g>
</g>
<!-- Node7&#45;&gt;Node18 -->
<g id="edge17" class="edge">
<title>Node7&#45;&gt;Node18</title>
<path fill="none" stroke="midnightblue" d="M2468.13,-147.26C2217.2,-143.2 1471.46,-128.83 1230.5,-98 1227.82,-97.66 1225.1,-97.26 1222.35,-96.82"/>
<polygon fill="midnightblue" stroke="midnightblue" points="2468.22,-150.76 2478.28,-147.42 2468.34,-143.76 2468.22,-150.76"/>
</g>
<!-- Node19 -->
<g id="node19" class="node">
<title>Node19</title>
<g id="a_node19"><a xlink:href="d__meter__haihai_8cpp.html" target="_top" xlink:title=" ">
<polygon fill="white" stroke="black" points="1240,-67.5 1240,-97.5 1355,-97.5 1355,-67.5 1240,-67.5"/>
<text text-anchor="start" x="1248" y="-85.5" font-family="Helvetica,sans-Serif" font-size="10.00">src/d/d_meter/d_meter</text>
<text text-anchor="middle" x="1297.5" y="-74.5" font-family="Helvetica,sans-Serif" font-size="10.00">_haihai.cpp</text>
</a>
</g>
</g>
<!-- Node7&#45;&gt;Node19 -->
<g id="edge18" class="edge">
<title>Node7&#45;&gt;Node19</title>
<path fill="none" stroke="midnightblue" d="M2468.18,-146.84C2234.76,-141.9 1577.57,-125.85 1363.5,-98 1360.82,-97.65 1358.1,-97.25 1355.35,-96.8"/>
<polygon fill="midnightblue" stroke="midnightblue" points="2468.23,-150.34 2478.3,-147.06 2468.38,-143.35 2468.23,-150.34"/>
</g>
<!-- Node20 -->
<g id="node20" class="node">
<title>Node20</title>
<g id="a_node20"><a xlink:href="d__meter__hakusha_8cpp.html" target="_top" xlink:title=" ">
<polygon fill="white" stroke="black" points="1373,-67.5 1373,-97.5 1488,-97.5 1488,-67.5 1373,-67.5"/>
<text text-anchor="start" x="1381" y="-85.5" font-family="Helvetica,sans-Serif" font-size="10.00">src/d/d_meter/d_meter</text>
<text text-anchor="middle" x="1430.5" y="-74.5" font-family="Helvetica,sans-Serif" font-size="10.00">_hakusha.cpp</text>
</a>
</g>
</g>
<!-- Node7&#45;&gt;Node20 -->
<g id="edge19" class="edge">
<title>Node7&#45;&gt;Node20</title>
<path fill="none" stroke="midnightblue" d="M2468.09,-149.26C2289.21,-149.86 1855.8,-145.72 1496.5,-98 1493.83,-97.64 1491.1,-97.24 1488.35,-96.79"/>
<polygon fill="midnightblue" stroke="midnightblue" points="2468.23,-152.76 2478.21,-149.22 2468.2,-145.76 2468.23,-152.76"/>
</g>
<!-- Node21 -->
<g id="node21" class="node">
<title>Node21</title>
<g id="a_node21"><a xlink:href="d__meter__map_8cpp.html" target="_top" xlink:title=" ">
<polygon fill="white" stroke="black" points="1506,-67.5 1506,-97.5 1621,-97.5 1621,-67.5 1506,-67.5"/>
<text text-anchor="start" x="1514" y="-85.5" font-family="Helvetica,sans-Serif" font-size="10.00">src/d/d_meter/d_meter</text>
<text text-anchor="middle" x="1563.5" y="-74.5" font-family="Helvetica,sans-Serif" font-size="10.00">_map.cpp</text>
</a>
</g>
</g>
<!-- Node7&#45;&gt;Node21 -->
<g id="edge20" class="edge">
<title>Node7&#45;&gt;Node21</title>
<path fill="none" stroke="midnightblue" d="M2467.81,-148.43C2305.41,-147.29 1936.47,-139.85 1629.5,-98 1626.83,-97.64 1624.1,-97.22 1621.35,-96.76"/>
<polygon fill="midnightblue" stroke="midnightblue" points="2468.19,-151.93 2478.21,-148.49 2468.23,-144.93 2468.19,-151.93"/>
</g>
<!-- Node22 -->
<g id="node22" class="node">
<title>Node22</title>
<g id="a_node22"><a xlink:href="d__meter__string_8cpp.html" target="_top" xlink:title=" ">
<polygon fill="white" stroke="black" points="1639,-67.5 1639,-97.5 1754,-97.5 1754,-67.5 1639,-67.5"/>
<text text-anchor="start" x="1647" y="-85.5" font-family="Helvetica,sans-Serif" font-size="10.00">src/d/d_meter/d_meter</text>
<text text-anchor="middle" x="1696.5" y="-74.5" font-family="Helvetica,sans-Serif" font-size="10.00">_string.cpp</text>
</a>
</g>
</g>
<!-- Node7&#45;&gt;Node22 -->
<g id="edge21" class="edge">
<title>Node7&#45;&gt;Node22</title>
<path fill="none" stroke="midnightblue" d="M2468.13,-147.33C2323.72,-144.38 2018,-134.03 1762.5,-98 1759.83,-97.62 1757.1,-97.2 1754.36,-96.73"/>
<polygon fill="midnightblue" stroke="midnightblue" points="2468.17,-150.83 2478.24,-147.53 2468.31,-143.83 2468.17,-150.83"/>
</g>
<!-- Node23 -->
<g id="node23" class="node">
<title>Node23</title>
<g id="a_node23"><a xlink:href="d__meter2__draw_8cpp.html" target="_top" xlink:title=" ">
<polygon fill="white" stroke="black" points="1772,-67.5 1772,-97.5 1897,-97.5 1897,-67.5 1772,-67.5"/>
<text text-anchor="start" x="1780" y="-85.5" font-family="Helvetica,sans-Serif" font-size="10.00">src/d/d_meter2/d_meter2</text>
<text text-anchor="middle" x="1834.5" y="-74.5" font-family="Helvetica,sans-Serif" font-size="10.00">_draw.cpp</text>
</a>
</g>
</g>
<!-- Node7&#45;&gt;Node23 -->
<g id="edge22" class="edge">
<title>Node7&#45;&gt;Node23</title>
<path fill="none" stroke="midnightblue" d="M2467.9,-145.26C2344.42,-139.74 2106.22,-126.23 1905.5,-98 1902.76,-97.61 1899.97,-97.19 1897.15,-96.73"/>
<polygon fill="midnightblue" stroke="midnightblue" points="2467.89,-148.77 2478.04,-145.71 2468.2,-141.77 2467.89,-148.77"/>
</g>
<!-- Node24 -->
<g id="node24" class="node">
<title>Node24</title>
<g id="a_node24"><a xlink:href="d__meter2__info_8cpp.html" target="_top" xlink:title=" ">
<polygon fill="white" stroke="black" points="1915,-67.5 1915,-97.5 2040,-97.5 2040,-67.5 1915,-67.5"/>
<text text-anchor="start" x="1923" y="-85.5" font-family="Helvetica,sans-Serif" font-size="10.00">src/d/d_meter2/d_meter2</text>
<text text-anchor="middle" x="1977.5" y="-74.5" font-family="Helvetica,sans-Serif" font-size="10.00">_info.cpp</text>
</a>
</g>
</g>
<!-- Node7&#45;&gt;Node24 -->
<g id="edge23" class="edge">
<title>Node7&#45;&gt;Node24</title>
<path fill="none" stroke="midnightblue" d="M2468.45,-142.66C2368.64,-135.07 2196.25,-120.1 2049.5,-98 2046.47,-97.54 2043.38,-97.05 2040.26,-96.52"/>
<polygon fill="midnightblue" stroke="midnightblue" points="2468.24,-146.16 2478.48,-143.42 2468.77,-139.18 2468.24,-146.16"/>
</g>
<!-- Node25 -->
<g id="node25" class="node">
<title>Node25</title>
<g id="a_node25"><a xlink:href="d__meter2_8cpp.html" target="_top" xlink:title=" ">
<polygon fill="white" stroke="black" points="2058.5,-73 2058.5,-92 2158.5,-92 2158.5,-73 2058.5,-73"/>
<text text-anchor="middle" x="2108.5" y="-80" font-family="Helvetica,sans-Serif" font-size="10.00">src/d/d_meter2.cpp</text>
</a>
</g>
</g>
<!-- Node7&#45;&gt;Node25 -->
<g id="edge24" class="edge">
<title>Node7&#45;&gt;Node25</title>
<path fill="none" stroke="midnightblue" d="M2467.96,-140.2C2389.89,-131.81 2270.27,-117.33 2167.5,-98 2158.69,-96.34 2149.22,-94.19 2140.51,-92.05"/>
<polygon fill="midnightblue" stroke="midnightblue" points="2467.9,-143.71 2478.22,-141.29 2468.65,-136.75 2467.9,-143.71"/>
</g>
<!-- Node26 -->
<g id="node26" class="node">
<title>Node26</title>
<g id="a_node26"><a xlink:href="d__save_8cpp.html" target="_top" xlink:title=" ">
<polygon fill="white" stroke="black" points="2177,-73 2177,-92 2302,-92 2302,-73 2177,-73"/>
<text text-anchor="middle" x="2239.5" y="-80" font-family="Helvetica,sans-Serif" font-size="10.00">src/d/d_save/d_save.cpp</text>
</a>
</g>
</g>
<!-- Node7&#45;&gt;Node26 -->
<g id="edge25" class="edge">
<title>Node7&#45;&gt;Node26</title>
<path fill="none" stroke="midnightblue" d="M2474.16,-132.39C2412.82,-119.61 2329.52,-102.25 2280.44,-92.03"/>
<polygon fill="midnightblue" stroke="midnightblue" points="2473.68,-135.86 2484.18,-134.48 2475.11,-129.01 2473.68,-135.86"/>
</g>
<!-- Node27 -->
<g id="node27" class="node">
<title>Node27</title>
<g id="a_node27"><a xlink:href="d__save__HIO_8cpp.html" target="_top" xlink:title=" ">
<polygon fill="white" stroke="black" points="2320,-67.5 2320,-97.5 2427,-97.5 2427,-67.5 2320,-67.5"/>
<text text-anchor="start" x="2328" y="-85.5" font-family="Helvetica,sans-Serif" font-size="10.00">src/d/d_save/d_save</text>
<text text-anchor="middle" x="2373.5" y="-74.5" font-family="Helvetica,sans-Serif" font-size="10.00">_HIO.cpp</text>
</a>
</g>
</g>
<!-- Node7&#45;&gt;Node27 -->
<g id="edge26" class="edge">
<title>Node7&#45;&gt;Node27</title>
<path fill="none" stroke="midnightblue" d="M2503.45,-130.96C2474.78,-120.48 2438.86,-107.37 2412.05,-97.58"/>
<polygon fill="midnightblue" stroke="midnightblue" points="2502.28,-134.25 2512.88,-134.4 2504.68,-127.68 2502.28,-134.25"/>
</g>
<!-- Node28 -->
<g id="node28" class="node">
<title>Node28</title>
<g id="a_node28"><a xlink:href="d__stage_8cpp.html" target="_top" xlink:title=" ">
<polygon fill="white" stroke="black" points="2445.5,-73 2445.5,-92 2539.5,-92 2539.5,-73 2445.5,-73"/>
<text text-anchor="middle" x="2492.5" y="-80" font-family="Helvetica,sans-Serif" font-size="10.00">src/d/d_stage.cpp</text>
</a>
</g>
</g>
<!-- Node7&#45;&gt;Node28 -->
<g id="edge27" class="edge">
<title>Node7&#45;&gt;Node28</title>
<path fill="none" stroke="midnightblue" d="M2531.67,-126.66C2520.97,-114.86 2508.35,-100.97 2500.39,-92.19"/>
<polygon fill="midnightblue" stroke="midnightblue" points="2529.39,-129.34 2538.7,-134.4 2534.57,-124.64 2529.39,-129.34"/>
</g>
<!-- Node29 -->
<g id="node29" class="node">
<title>Node29</title>
<g id="a_node29"><a xlink:href="f__op__actor__mng_8cpp.html" target="_top" xlink:title=" ">
<polygon fill="white" stroke="black" points="2558,-67.5 2558,-97.5 2665,-97.5 2665,-67.5 2558,-67.5"/>
<text text-anchor="start" x="2566" y="-85.5" font-family="Helvetica,sans-Serif" font-size="10.00">src/f/f_op/f_op_actor</text>
<text text-anchor="middle" x="2611.5" y="-74.5" font-family="Helvetica,sans-Serif" font-size="10.00">_mng.cpp</text>
</a>
</g>
</g>
<!-- Node7&#45;&gt;Node29 -->
<g id="edge28" class="edge">
<title>Node7&#45;&gt;Node29</title>
<path fill="none" stroke="midnightblue" d="M2571.32,-127.02C2580.26,-117.34 2590.57,-106.17 2598.51,-97.58"/>
<polygon fill="midnightblue" stroke="midnightblue" points="2568.73,-124.67 2564.52,-134.4 2573.87,-129.42 2568.73,-124.67"/>
</g>
<!-- Node30 -->
<g id="node30" class="node">
<title>Node30</title>
<g id="a_node30"><a xlink:href="f__op__camera_8cpp.html" target="_top" xlink:title=" ">
<polygon fill="white" stroke="black" points="2683,-73 2683,-92 2818,-92 2818,-73 2683,-73"/>
<text text-anchor="middle" x="2750.5" y="-80" font-family="Helvetica,sans-Serif" font-size="10.00">src/f/f_op/f_op_camera.cpp</text>
</a>
</g>
</g>
<!-- Node7&#45;&gt;Node30 -->
<g id="edge29" class="edge">
<title>Node7&#45;&gt;Node30</title>
<path fill="none" stroke="midnightblue" d="M2604.25,-131.27C2643.03,-118.6 2694.06,-101.93 2724.46,-92.01"/>
<polygon fill="midnightblue" stroke="midnightblue" points="2603.1,-127.96 2594.68,-134.4 2605.27,-134.62 2603.1,-127.96"/>
</g>
<!-- Node31 -->
<g id="node31" class="node">
<title>Node31</title>
<g id="a_node31"><a xlink:href="f__op__kankyo_8cpp.html" target="_top" xlink:title=" ">
<polygon fill="white" stroke="black" points="2836.5,-73 2836.5,-92 2970.5,-92 2970.5,-73 2836.5,-73"/>
<text text-anchor="middle" x="2903.5" y="-80" font-family="Helvetica,sans-Serif" font-size="10.00">src/f/f_op/f_op_kankyo.cpp</text>
</a>
</g>
</g>
<!-- Node7&#45;&gt;Node31 -->
<g id="edge30" class="edge">
<title>Node7&#45;&gt;Node31</title>
<path fill="none" stroke="midnightblue" d="M2634.73,-133.32C2689.28,-123.34 2762.14,-109.97 2826.5,-98 2836.8,-96.08 2847.87,-94.01 2858.31,-92.04"/>
<polygon fill="midnightblue" stroke="midnightblue" points="2633.97,-129.9 2624.76,-135.14 2635.23,-136.78 2633.97,-129.9"/>
</g>
<!-- Node32 -->
<g id="node32" class="node">
<title>Node32</title>
<g id="a_node32"><a xlink:href="f__op__kankyo__mng_8cpp.html" target="_top" xlink:title=" ">
<polygon fill="white" stroke="black" points="2988.5,-67.5 2988.5,-97.5 3104.5,-97.5 3104.5,-67.5 2988.5,-67.5"/>
<text text-anchor="start" x="2996.5" y="-85.5" font-family="Helvetica,sans-Serif" font-size="10.00">src/f/f_op/f_op_kankyo</text>
<text text-anchor="middle" x="3046.5" y="-74.5" font-family="Helvetica,sans-Serif" font-size="10.00">_mng.cpp</text>
</a>
</g>
</g>
<!-- Node7&#45;&gt;Node32 -->
<g id="edge31" class="edge">
<title>Node7&#45;&gt;Node32</title>
<path fill="none" stroke="midnightblue" d="M2634.52,-141.08C2720.99,-132.8 2860.24,-117.89 2979.5,-98 2982.43,-97.51 2985.44,-96.98 2988.46,-96.42"/>
<polygon fill="midnightblue" stroke="midnightblue" points="2634.12,-137.6 2624.5,-142.03 2634.79,-144.57 2634.12,-137.6"/>
</g>
<!-- Node33 -->
<g id="node33" class="node">
<title>Node33</title>
<g id="a_node33"><a xlink:href="f__op__msg__mng_8cpp.html" target="_top" xlink:title=" ">
<polygon fill="white" stroke="black" points="3122.5,-67.5 3122.5,-97.5 3226.5,-97.5 3226.5,-67.5 3122.5,-67.5"/>
<text text-anchor="start" x="3130.5" y="-85.5" font-family="Helvetica,sans-Serif" font-size="10.00">src/f/f_op/f_op_msg</text>
<text text-anchor="middle" x="3174.5" y="-74.5" font-family="Helvetica,sans-Serif" font-size="10.00">_mng.cpp</text>
</a>
</g>
</g>
<!-- Node7&#45;&gt;Node33 -->
<g id="edge32" class="edge">
<title>Node7&#45;&gt;Node33</title>
<path fill="none" stroke="midnightblue" d="M2634.72,-144.77C2744.83,-138.97 2944.73,-125.49 3113.5,-98 3116.4,-97.53 3119.37,-96.99 3122.36,-96.42"/>
<polygon fill="midnightblue" stroke="midnightblue" points="2634.47,-141.27 2624.67,-145.29 2634.84,-148.27 2634.47,-141.27"/>
</g>
<!-- Node34 -->
<g id="node34" class="node">
<title>Node34</title>
<g id="a_node34"><a xlink:href="f__pc__manager_8cpp.html" target="_top" xlink:title=" ">
<polygon fill="white" stroke="black" points="5320.5,-6 5320.5,-25 5460.5,-25 5460.5,-6 5320.5,-6"/>
<text text-anchor="middle" x="5390.5" y="-13" font-family="Helvetica,sans-Serif" font-size="10.00">src/f/f_pc/f_pc_manager.cpp</text>
</a>
</g>
</g>
<!-- Node7&#45;&gt;Node34 -->
<g id="edge33" class="edge">
<title>Node7&#45;&gt;Node34</title>
<path fill="none" stroke="midnightblue" d="M2635.09,-148.78C3083.35,-150.03 5186.99,-152.97 5312.5,-98 5347.84,-82.52 5374.98,-42.6 5385.61,-25.02"/>
<polygon fill="midnightblue" stroke="midnightblue" points="2634.82,-145.28 2624.81,-148.75 2634.8,-152.28 2634.82,-145.28"/>
</g>
<!-- Node35 -->
<g id="node35" class="node">
<title>Node35</title>
<g id="a_node35"><a xlink:href="m__Do__audio_8cpp.html" target="_top" xlink:title=" ">
<polygon fill="white" stroke="black" points="3358.5,-73 3358.5,-92 3492.5,-92 3492.5,-73 3358.5,-73"/>
<text text-anchor="middle" x="3425.5" y="-80" font-family="Helvetica,sans-Serif" font-size="10.00">src/m_Do/m_Do_audio.cpp</text>
</a>
</g>
</g>
<!-- Node7&#45;&gt;Node35 -->
<g id="edge34" class="edge">
<title>Node7&#45;&gt;Node35</title>
<path fill="none" stroke="midnightblue" d="M2634.87,-146.66C2780.42,-142.68 3090.1,-130.82 3349.5,-98 3361.36,-96.5 3374.16,-94.29 3385.81,-92.05"/>
<polygon fill="midnightblue" stroke="midnightblue" points="2634.58,-143.17 2624.68,-146.93 2634.77,-150.16 2634.58,-143.17"/>
</g>
<!-- Node36 -->
<g id="node36" class="node">
<title>Node36</title>
<g id="a_node36"><a xlink:href="m__Do__graphic_8cpp.html" target="_top" xlink:title=" ">
<polygon fill="white" stroke="black" points="3510.5,-73 3510.5,-92 3652.5,-92 3652.5,-73 3510.5,-73"/>
<text text-anchor="middle" x="3581.5" y="-80" font-family="Helvetica,sans-Serif" font-size="10.00">src/m_Do/m_Do_graphic.cpp</text>
</a>
</g>
</g>
<!-- Node7&#45;&gt;Node36 -->
<g id="edge35" class="edge">
<title>Node7&#45;&gt;Node36</title>
<path fill="none" stroke="midnightblue" d="M2634.89,-147.6C2800.57,-145.03 3182.74,-135.21 3501.5,-98 3514.12,-96.53 3527.75,-94.3 3540.13,-92.03"/>
<polygon fill="midnightblue" stroke="midnightblue" points="2634.71,-144.1 2624.77,-147.75 2634.82,-151.1 2634.71,-144.1"/>
</g>
<!-- Node37 -->
<g id="node37" class="node">
<title>Node37</title>
<g id="a_node37"><a xlink:href="m__Do__lib_8cpp.html" target="_top" xlink:title=" ">
<polygon fill="white" stroke="black" points="3670.5,-73 3670.5,-92 3790.5,-92 3790.5,-73 3670.5,-73"/>
<text text-anchor="middle" x="3730.5" y="-80" font-family="Helvetica,sans-Serif" font-size="10.00">src/m_Do/m_Do_lib.cpp</text>
</a>
</g>
</g>
<!-- Node7&#45;&gt;Node37 -->
<g id="edge36" class="edge">
<title>Node7&#45;&gt;Node37</title>
<path fill="none" stroke="midnightblue" d="M2634.79,-149.29C2820.1,-150.06 3280.22,-146.41 3661.5,-98 3672.55,-96.6 3684.46,-94.36 3695.23,-92.06"/>
<polygon fill="midnightblue" stroke="midnightblue" points="2634.59,-145.79 2624.58,-149.25 2634.56,-152.79 2634.59,-145.79"/>
</g>
<!-- Node38 -->
<g id="node38" class="node">
<title>Node38</title>
<g id="a_node38"><a xlink:href="m__Do__machine__exception_8cpp.html" target="_top" xlink:title=" ">
<polygon fill="white" stroke="black" points="3809,-67.5 3809,-97.5 3938,-97.5 3938,-67.5 3809,-67.5"/>
<text text-anchor="start" x="3817" y="-85.5" font-family="Helvetica,sans-Serif" font-size="10.00">src/m_Do/m_Do_machine</text>
<text text-anchor="middle" x="3873.5" y="-74.5" font-family="Helvetica,sans-Serif" font-size="10.00">_exception.cpp</text>
</a>
</g>
</g>
<!-- Node7&#45;&gt;Node38 -->
<g id="edge37" class="edge">
<title>Node7&#45;&gt;Node38</title>
<path fill="none" stroke="midnightblue" d="M2634.78,-146.79C2876.1,-141.59 3572.99,-124.62 3799.5,-98 3802.49,-97.65 3805.54,-97.24 3808.62,-96.8"/>
<polygon fill="midnightblue" stroke="midnightblue" points="2634.59,-143.3 2624.67,-147.01 2634.74,-150.3 2634.59,-143.3"/>
</g>
<!-- Node39 -->
<g id="node39" class="node">
<title>Node39</title>
<g id="a_node39"><a xlink:href="m__Do__main_8cpp.html" target="_top" xlink:title=" ">
<polygon fill="white" stroke="black" points="3956,-73 3956,-92 4087,-92 4087,-73 3956,-73"/>
<text text-anchor="middle" x="4021.5" y="-80" font-family="Helvetica,sans-Serif" font-size="10.00">src/m_Do/m_Do_main.cpp</text>
</a>
</g>
</g>
<!-- Node7&#45;&gt;Node39 -->
<g id="edge38" class="edge">
<title>Node7&#45;&gt;Node39</title>
<path fill="none" stroke="midnightblue" d="M2635.06,-147.2C2895.59,-142.89 3691.03,-127.58 3947.5,-98 3959.46,-96.62 3972.39,-94.36 3984.03,-92.03"/>
<polygon fill="midnightblue" stroke="midnightblue" points="2634.84,-143.71 2624.9,-147.37 2634.96,-150.71 2634.84,-143.71"/>
</g>
<!-- Node40 -->
<g id="node40" class="node">
<title>Node40</title>
<g id="a_node40"><a xlink:href="m__Do__MemCardRWmng_8cpp.html" target="_top" xlink:title=" ">
<polygon fill="white" stroke="black" points="4105,-73 4105,-92 4292,-92 4292,-73 4105,-73"/>
<text text-anchor="middle" x="4198.5" y="-80" font-family="Helvetica,sans-Serif" font-size="10.00">src/m_Do/m_Do_MemCardRWmng.cpp</text>
</a>
</g>
</g>
<!-- Node7&#45;&gt;Node40 -->
<g id="edge39" class="edge">
<title>Node7&#45;&gt;Node40</title>
<path fill="none" stroke="midnightblue" d="M2634.91,-148.95C2867.01,-149.52 3539.98,-146.51 4096.5,-98 4112.8,-96.58 4130.48,-94.32 4146.47,-92.01"/>
<polygon fill="midnightblue" stroke="midnightblue" points="2634.86,-145.45 2624.85,-148.92 2634.84,-152.45 2634.86,-145.45"/>
</g>
<!-- Node41 -->
<g id="node41" class="node">
<title>Node41</title>
<g id="a_node41"><a xlink:href="m__Do__ext_8cpp.html" target="_top" xlink:title=" ">
<polygon fill="white" stroke="black" points="4310,-73 4310,-92 4433,-92 4433,-73 4310,-73"/>
<text text-anchor="middle" x="4371.5" y="-80" font-family="Helvetica,sans-Serif" font-size="10.00">src/m_Do/m_Do_ext.cpp</text>
</a>
</g>
</g>
<!-- Node7&#45;&gt;Node41 -->
<g id="edge40" class="edge">
<title>Node7&#45;&gt;Node41</title>
<path fill="none" stroke="midnightblue" d="M2634.91,-148.03C2936.91,-146.04 3972.78,-136.49 4301.5,-98 4312.96,-96.66 4325.34,-94.38 4336.44,-92.02"/>
<polygon fill="midnightblue" stroke="midnightblue" points="2634.88,-144.53 2624.9,-148.1 2634.92,-151.53 2634.88,-144.53"/>
</g>
<!-- Node42 -->
<g id="node42" class="node">
<title>Node42</title>
<g id="a_node42"><a xlink:href="Z2EnvSeMgr_8cpp.html" target="_top" xlink:title=" ">
<polygon fill="white" stroke="black" points="4451,-73 4451,-92 4612,-92 4612,-73 4451,-73"/>
<text text-anchor="middle" x="4531.5" y="-80" font-family="Helvetica,sans-Serif" font-size="10.00">libs/Z2AudioLib/Z2EnvSeMgr.cpp</text>
</a>
</g>
</g>
<!-- Node7&#45;&gt;Node42 -->
<g id="edge41" class="edge">
<title>Node7&#45;&gt;Node42</title>
<path fill="none" stroke="midnightblue" d="M2634.55,-147.77C2951.33,-144.77 4083.87,-131.85 4442.5,-98 4456.84,-96.65 4472.37,-94.39 4486.38,-92.06"/>
<polygon fill="midnightblue" stroke="midnightblue" points="2634.49,-144.27 2624.52,-147.87 2634.55,-151.27 2634.49,-144.27"/>
</g>
<!-- Node43 -->
<g id="node43" class="node">
<title>Node43</title>
<g id="a_node43"><a xlink:href="Z2LinkMgr_8cpp.html" target="_top" xlink:title=" ">
<polygon fill="white" stroke="black" points="4630.5,-73 4630.5,-92 4782.5,-92 4782.5,-73 4630.5,-73"/>
<text text-anchor="middle" x="4706.5" y="-80" font-family="Helvetica,sans-Serif" font-size="10.00">libs/Z2AudioLib/Z2LinkMgr.cpp</text>
</a>
</g>
</g>
<!-- Node7&#45;&gt;Node43 -->
<g id="edge42" class="edge">
<title>Node7&#45;&gt;Node43</title>
<path fill="none" stroke="midnightblue" d="M2634.72,-148.08C2970.46,-146.12 4226.09,-136.35 4621.5,-98 4635.36,-96.66 4650.36,-94.38 4663.86,-92.02"/>
<polygon fill="midnightblue" stroke="midnightblue" points="2634.57,-144.58 2624.59,-148.14 2634.61,-151.58 2634.57,-144.58"/>
</g>
<!-- Node44 -->
<g id="node44" class="node">
<title>Node44</title>
<g id="a_node44"><a xlink:href="Z2SceneMgr_8cpp.html" target="_top" xlink:title=" ">
<polygon fill="white" stroke="black" points="4801,-73 4801,-92 4962,-92 4962,-73 4801,-73"/>
<text text-anchor="middle" x="4881.5" y="-80" font-family="Helvetica,sans-Serif" font-size="10.00">libs/Z2AudioLib/Z2SceneMgr.cpp</text>
</a>
</g>
</g>
<!-- Node7&#45;&gt;Node44 -->
<g id="edge43" class="edge">
<title>Node7&#45;&gt;Node44</title>
<path fill="none" stroke="midnightblue" d="M2634.72,-148.15C2987.45,-146.45 4360.68,-137.37 4791.5,-98 4806.16,-96.66 4822.04,-94.38 4836.33,-92.02"/>
<polygon fill="midnightblue" stroke="midnightblue" points="2634.57,-144.65 2624.59,-148.2 2634.6,-151.65 2634.57,-144.65"/>
</g>
<!-- Node45 -->
<g id="node45" class="node">
<title>Node45</title>
<g id="a_node45"><a xlink:href="Z2SoundMgr_8cpp.html" target="_top" xlink:title=" ">
<polygon fill="white" stroke="black" points="4980,-73 4980,-92 5141,-92 5141,-73 4980,-73"/>
<text text-anchor="middle" x="5060.5" y="-80" font-family="Helvetica,sans-Serif" font-size="10.00">libs/Z2AudioLib/Z2SoundMgr.cpp</text>
</a>
</g>
</g>
<!-- Node7&#45;&gt;Node45 -->
<g id="edge44" class="edge">
<title>Node7&#45;&gt;Node45</title>
<path fill="none" stroke="midnightblue" d="M2634.6,-148.34C3004.47,-147.37 4503.26,-140.81 4971.5,-98 4986,-96.67 5001.71,-94.4 5015.84,-92.04"/>
<polygon fill="midnightblue" stroke="midnightblue" points="2634.5,-144.84 2624.51,-148.36 2634.52,-151.84 2634.5,-144.84"/>
</g>
<!-- Node46 -->
<g id="node46" class="node">
<title>Node46</title>
<g id="a_node46"><a xlink:href="Z2StatusMgr_8cpp.html" target="_top" xlink:title=" ">
<polygon fill="white" stroke="black" points="5159,-67.5 5159,-97.5 5286,-97.5 5286,-67.5 5159,-67.5"/>
<text text-anchor="start" x="5167" y="-85.5" font-family="Helvetica,sans-Serif" font-size="10.00">libs/Z2AudioLib/Z2Status</text>
<text text-anchor="middle" x="5222.5" y="-74.5" font-family="Helvetica,sans-Serif" font-size="10.00">Mgr.cpp</text>
</a>
</g>
</g>
<!-- Node7&#45;&gt;Node46 -->
<g id="edge45" class="edge">
<title>Node7&#45;&gt;Node46</title>
<path fill="none" stroke="midnightblue" d="M2634.98,-148.89C3022.23,-150.4 4646.06,-153.24 5150.5,-98 5153.29,-97.69 5156.13,-97.33 5158.99,-96.93"/>
<polygon fill="midnightblue" stroke="midnightblue" points="2634.71,-145.39 2624.7,-148.85 2634.69,-152.39 2634.71,-145.39"/>
</g>
<!-- Node47 -->
<g id="node47" class="node">
<title>Node47</title>
<g id="a_node47"><a xlink:href="d__a__alink_8h.html" target="_top" xlink:title=" ">
<polygon fill="white" stroke="red" points="0,-67.5 0,-97.5 119,-97.5 119,-67.5 0,-67.5"/>
<text text-anchor="start" x="8" y="-85.5" font-family="Helvetica,sans-Serif" font-size="10.00">include/d/d_a/d_a_alink</text>
<text text-anchor="middle" x="59.5" y="-74.5" font-family="Helvetica,sans-Serif" font-size="10.00">/d_a_alink.h</text>
</a>
</g>
</g>
<!-- Node7&#45;&gt;Node47 -->
<g id="edge46" class="edge">
<title>Node7&#45;&gt;Node47</title>
<path fill="none" stroke="midnightblue" d="M2468.24,-148.85C2097.69,-150.07 596.22,-151.55 128.5,-98 125.46,-97.65 122.36,-97.23 119.23,-96.76"/>
<polygon fill="midnightblue" stroke="midnightblue" points="2468.36,-152.35 2478.35,-148.81 2468.34,-145.35 2468.36,-152.35"/>
</g>
<!-- Node49 -->
<g id="node48" class="node">
<title>Node49</title>
<g id="a_node48"><a xlink:href="d__item_8h.html" target="_top" xlink:title=" ">
<polygon fill="white" stroke="black" points="3244.5,-67.5 3244.5,-97.5 3340.5,-97.5 3340.5,-67.5 3244.5,-67.5"/>
<text text-anchor="start" x="3252.5" y="-85.5" font-family="Helvetica,sans-Serif" font-size="10.00">include/d/d_item/d</text>
<text text-anchor="middle" x="3292.5" y="-74.5" font-family="Helvetica,sans-Serif" font-size="10.00">_item/d_item.h</text>
</a>
</g>
</g>
<!-- Node7&#45;&gt;Node49 -->
<g id="edge48" class="edge">
<title>Node7&#45;&gt;Node49</title>
<path fill="none" stroke="midnightblue" d="M2634.85,-147.05C2764.22,-143.74 3020.81,-132.96 3235.5,-98 3238.42,-97.52 3241.41,-96.97 3244.42,-96.36"/>
<polygon fill="midnightblue" stroke="midnightblue" points="2634.54,-143.55 2624.63,-147.3 2634.71,-150.55 2634.54,-143.55"/>
</g>
<!-- Node50 -->
<g id="node49" class="node">
<title>Node50</title>
<g id="a_node49"><a xlink:href="f__pc__manager_8h.html" target="_top" xlink:title=" ">
<polygon fill="white" stroke="red" points="5381,-67.5 5381,-97.5 5478,-97.5 5478,-67.5 5381,-67.5"/>
<text text-anchor="start" x="5389" y="-85.5" font-family="Helvetica,sans-Serif" font-size="10.00">include/f/f_pc/f_pc</text>
<text text-anchor="middle" x="5429.5" y="-74.5" font-family="Helvetica,sans-Serif" font-size="10.00">_manager.h</text>
</a>
</g>
</g>
<!-- Node7&#45;&gt;Node50 -->
<g id="edge51" class="edge">
<title>Node7&#45;&gt;Node50</title>
<path fill="none" stroke="midnightblue" d="M2634.78,-148.04C3071.71,-145.49 5089.87,-131.94 5366.5,-98 5371.18,-97.43 5376.02,-96.65 5380.84,-95.75"/>
<polygon fill="midnightblue" stroke="midnightblue" points="2634.73,-144.54 2624.75,-148.1 2634.77,-151.54 2634.73,-144.54"/>
</g>
<!-- Node47&#45;&gt;Node8 -->
<g id="edge47" class="edge">
<title>Node47&#45;&gt;Node8</title>
<path fill="none" stroke="midnightblue" d="M90.74,-61.97C110.46,-49.65 134.95,-34.35 149.89,-25.01"/>
<polygon fill="midnightblue" stroke="midnightblue" points="88.69,-59.13 82.07,-67.4 92.4,-65.06 88.69,-59.13"/>
</g>
<!-- Node49&#45;&gt;Node10 -->
<g id="edge49" class="edge">
<title>Node49&#45;&gt;Node10</title>
<path fill="none" stroke="midnightblue" d="M3234.2,-67.08C2939.53,-27.43 2078.15,-18.59 1843.24,-16.87"/>
<polygon fill="midnightblue" stroke="midnightblue" points="3234.06,-70.59 3244.44,-68.5 3235.02,-63.66 3234.06,-70.59"/>
</g>
<!-- Node49&#45;&gt;Node12 -->
<g id="edge50" class="edge">
<title>Node49&#45;&gt;Node12</title>
<path fill="none" stroke="midnightblue" d="M3350.47,-67.07C3669.59,-18.88 4043.03,-15.32 4186.91,-15.89"/>
<polygon fill="midnightblue" stroke="midnightblue" points="3349.92,-63.61 3340.57,-68.58 3350.98,-70.53 3349.92,-63.61"/>
</g>
<!-- Node50&#45;&gt;Node34 -->
<g id="edge52" class="edge">
<title>Node50&#45;&gt;Node34</title>
<path fill="none" stroke="midnightblue" d="M5415.78,-58.63C5408.84,-47.07 5400.83,-33.71 5395.72,-25.19"/>
<polygon fill="midnightblue" stroke="midnightblue" points="5412.89,-60.62 5421.04,-67.4 5418.89,-57.02 5412.89,-60.62"/>
</g>
<!-- Node53&#45;&gt;Node6 -->
<g id="edge54" class="edge">
<title>Node53&#45;&gt;Node6</title>
<path fill="none" stroke="midnightblue" d="M2597.33,-261.31C2587.13,-251.56 2575.31,-240.26 2566.23,-231.58"/>
<polygon fill="midnightblue" stroke="midnightblue" points="2595.1,-264.02 2604.75,-268.4 2599.93,-258.96 2595.1,-264.02"/>
</g>
</g>
</svg>
