<?xml version="1.0" encoding="UTF-8" standalone="no"?>
<!DOCTYPE svg PUBLIC "-//W3C//DTD SVG 1.1//EN"
 "http://www.w3.org/Graphics/SVG/1.1/DTD/svg11.dtd">
<!-- Generated by graphviz version 2.46.0 (20210122.1329)
 -->
<!-- Title: include/SComponent/c_m3d_g_lin.h Pages: 1 -->
<!--zoomable 508 -->
<svg id="main" version="1.1" xmlns="http://www.w3.org/2000/svg" xmlns:xlink="http://www.w3.org/1999/xlink" xml:space="preserve" onload="init(evt)">
<style type="text/css"><![CDATA[
.edge:hover path { stroke: red; }
.edge:hover polygon { stroke: red; fill: red; }
]]></style>
<script type="text/javascript"><![CDATA[
var edges = document.getElementsByTagName('g');
if (edges && edges.length) {
  for (var i=0;i<edges.length;i++) {
    if (edges[i].id.substr(0,4)=='edge') {
      edges[i].setAttribute('class','edge');
    }
  }
}
]]></script>
        <defs>
                <circle id="rim" cx="0" cy="0" r="7"/>
                <circle id="rim2" cx="0" cy="0" r="3.5"/>
                <g id="zoomPlus">
                        <use xlink:href="#rim" fill="#404040">
                                <set attributeName="fill" to="#808080" begin="zoomplus.mouseover" end="zoomplus.mouseout"/>
                        </use>
                        <path d="M-4,0h8M0,-4v8" fill="none" stroke="white" stroke-width="1.5" pointer-events="none"/>
                </g>
                <g id="zoomMin">
                        <use xlink:href="#rim" fill="#404040">
                                <set attributeName="fill" to="#808080" begin="zoomminus.mouseover" end="zoomminus.mouseout"/>
                        </use>
                        <path d="M-4,0h8" fill="none" stroke="white" stroke-width="1.5" pointer-events="none"/>
                </g>
                <g id="dirArrow">
                        <path fill="none" stroke="white" stroke-width="1.5" d="M0,-3.0v7 M-2.5,-0.5L0,-3.0L2.5,-0.5"/>
                </g>
               <g id="resetDef">
                       <use xlink:href="#rim2" fill="#404040">
                               <set attributeName="fill" to="#808080" begin="reset.mouseover" end="reset.mouseout"/>
                       </use>
               </g>
        </defs>

<script type="text/javascript">
var viewWidth = 4026;
var viewHeight = 508;
var sectionId = 'dynsection-1';
</script>
<script xlink:href="svgpan.js"/>
<svg id="graph" class="graph">
<g id="viewport">
<title>include/SComponent/c_m3d_g_lin.h</title>
<polygon fill="white" stroke="transparent" points="-4,4 -4,-504 4021.5,-504 4021.5,4 -4,4"/>
<!-- Node1 -->
<g id="node1" class="node">
<title>Node1</title>
<g id="a_node1"><a xlink:title=" ">
<polygon fill="#bfbfbf" stroke="black" points="1575.5,-469.5 1575.5,-499.5 1682.5,-499.5 1682.5,-469.5 1575.5,-469.5"/>
<text text-anchor="start" x="1583.5" y="-487.5" font-family="Helvetica,sans-Serif" font-size="10.00">include/SComponent</text>
<text text-anchor="middle" x="1629" y="-476.5" font-family="Helvetica,sans-Serif" font-size="10.00">/c_m3d_g_lin.h</text>
</a>
</g>
</g>
<!-- Node2 -->
<g id="node2" class="node">
<title>Node2</title>
<g id="a_node2"><a xlink:href="c__m3d__g__lin_8cpp.html" target="_top" xlink:title=" ">
<polygon fill="white" stroke="black" points="1467,-402.5 1467,-432.5 1601,-432.5 1601,-402.5 1467,-402.5"/>
<text text-anchor="start" x="1475" y="-420.5" font-family="Helvetica,sans-Serif" font-size="10.00">libs/SSystem/SComponent</text>
<text text-anchor="middle" x="1534" y="-409.5" font-family="Helvetica,sans-Serif" font-size="10.00">/c_m3d_g_lin.cpp</text>
</a>
</g>
</g>
<!-- Node1&#45;&gt;Node2 -->
<g id="edge1" class="edge">
<title>Node1&#45;&gt;Node2</title>
<path fill="none" stroke="midnightblue" d="M1600.11,-463.73C1585.41,-453.68 1567.89,-441.68 1554.57,-432.58"/>
<polygon fill="midnightblue" stroke="midnightblue" points="1598.16,-466.64 1608.39,-469.4 1602.11,-460.86 1598.16,-466.64"/>
</g>
<!-- Node3 -->
<g id="node3" class="node">
<title>Node3</title>
<g id="a_node3"><a xlink:href="c__m3d_8cpp.html" target="_top" xlink:title=" ">
<polygon fill="white" stroke="black" points="1548,-335.5 1548,-365.5 1682,-365.5 1682,-335.5 1548,-335.5"/>
<text text-anchor="start" x="1556" y="-353.5" font-family="Helvetica,sans-Serif" font-size="10.00">libs/SSystem/SComponent</text>
<text text-anchor="middle" x="1615" y="-342.5" font-family="Helvetica,sans-Serif" font-size="10.00">/c_m3d.cpp</text>
</a>
</g>
</g>
<!-- Node1&#45;&gt;Node3 -->
<g id="edge2" class="edge">
<title>Node1&#45;&gt;Node3</title>
<path fill="none" stroke="midnightblue" d="M1626.44,-459.39C1623.53,-431.9 1618.86,-387.89 1616.49,-365.52"/>
<polygon fill="midnightblue" stroke="midnightblue" points="1622.97,-459.8 1627.5,-469.37 1629.93,-459.06 1622.97,-459.8"/>
</g>
<!-- Node4 -->
<g id="node4" class="node">
<title>Node4</title>
<g id="a_node4"><a xlink:href="c__m3d__g__cps_8h.html" target="_top" xlink:title=" ">
<polygon fill="white" stroke="black" points="1685.5,-402.5 1685.5,-432.5 1792.5,-432.5 1792.5,-402.5 1685.5,-402.5"/>
<text text-anchor="start" x="1693.5" y="-420.5" font-family="Helvetica,sans-Serif" font-size="10.00">include/SComponent</text>
<text text-anchor="middle" x="1739" y="-409.5" font-family="Helvetica,sans-Serif" font-size="10.00">/c_m3d_g_cps.h</text>
</a>
</g>
</g>
<!-- Node1&#45;&gt;Node4 -->
<g id="edge3" class="edge">
<title>Node1&#45;&gt;Node4</title>
<path fill="none" stroke="midnightblue" d="M1661.5,-464.3C1678.71,-454.12 1699.48,-441.85 1715.18,-432.58"/>
<polygon fill="midnightblue" stroke="midnightblue" points="1659.7,-461.3 1652.87,-469.4 1663.26,-467.32 1659.7,-461.3"/>
</g>
<!-- Node4&#45;&gt;Node3 -->
<g id="edge5" class="edge">
<title>Node4&#45;&gt;Node3</title>
<path fill="none" stroke="midnightblue" d="M1703.16,-397.71C1683.61,-387.46 1659.8,-374.98 1641.85,-365.58"/>
<polygon fill="midnightblue" stroke="midnightblue" points="1701.61,-400.85 1712.09,-402.4 1704.86,-394.65 1701.61,-400.85"/>
</g>
<!-- Node5 -->
<g id="node5" class="node">
<title>Node5</title>
<g id="a_node5"><a xlink:href="c__m3d__g__cps_8cpp.html" target="_top" xlink:title=" ">
<polygon fill="white" stroke="black" points="1826,-335.5 1826,-365.5 1960,-365.5 1960,-335.5 1826,-335.5"/>
<text text-anchor="start" x="1834" y="-353.5" font-family="Helvetica,sans-Serif" font-size="10.00">libs/SSystem/SComponent</text>
<text text-anchor="middle" x="1893" y="-342.5" font-family="Helvetica,sans-Serif" font-size="10.00">/c_m3d_g_cps.cpp</text>
</a>
</g>
</g>
<!-- Node4&#45;&gt;Node5 -->
<g id="edge4" class="edge">
<title>Node4&#45;&gt;Node5</title>
<path fill="none" stroke="midnightblue" d="M1781.87,-398.41C1806.45,-388.03 1836.86,-375.2 1859.65,-365.58"/>
<polygon fill="midnightblue" stroke="midnightblue" points="1780.27,-395.28 1772.42,-402.4 1782.99,-401.73 1780.27,-395.28"/>
</g>
<!-- Node6 -->
<g id="node6" class="node">
<title>Node6</title>
<g id="a_node6"><a xlink:href="c__cc__d_8h.html" target="_top" xlink:title=" ">
<polygon fill="white" stroke="black" points="1700.5,-335.5 1700.5,-365.5 1807.5,-365.5 1807.5,-335.5 1700.5,-335.5"/>
<text text-anchor="start" x="1708.5" y="-353.5" font-family="Helvetica,sans-Serif" font-size="10.00">include/SComponent</text>
<text text-anchor="middle" x="1754" y="-342.5" font-family="Helvetica,sans-Serif" font-size="10.00">/c_cc_d/c_cc_d.h</text>
</a>
</g>
</g>
<!-- Node4&#45;&gt;Node6 -->
<g id="edge6" class="edge">
<title>Node4&#45;&gt;Node6</title>
<path fill="none" stroke="midnightblue" d="M1744.56,-392.4C1746.65,-383.37 1748.94,-373.41 1750.75,-365.58"/>
<polygon fill="midnightblue" stroke="midnightblue" points="1741.09,-391.87 1742.25,-402.4 1747.91,-393.44 1741.09,-391.87"/>
</g>
<!-- Node7 -->
<g id="node7" class="node">
<title>Node7</title>
<g id="a_node7"><a xlink:href="d__cc__mass__s_8h.html" target="_top" xlink:title=" ">
<polygon fill="white" stroke="black" points="1622,-268.5 1622,-298.5 1750,-298.5 1750,-268.5 1622,-268.5"/>
<text text-anchor="start" x="1630" y="-286.5" font-family="Helvetica,sans-Serif" font-size="10.00">include/d/d_cc/d_cc</text>
<text text-anchor="middle" x="1686" y="-275.5" font-family="Helvetica,sans-Serif" font-size="10.00">_mass_s/d_cc_mass_s.h</text>
</a>
</g>
</g>
<!-- Node6&#45;&gt;Node7 -->
<g id="edge7" class="edge">
<title>Node6&#45;&gt;Node7</title>
<path fill="none" stroke="midnightblue" d="M1731.83,-328.31C1721.63,-318.56 1709.81,-307.26 1700.73,-298.58"/>
<polygon fill="midnightblue" stroke="midnightblue" points="1729.6,-331.02 1739.25,-335.4 1734.43,-325.96 1729.6,-331.02"/>
</g>
<!-- Node43 -->
<g id="node43" class="node">
<title>Node43</title>
<g id="a_node43"><a xlink:href="c__cc__s_8h.html" target="_top" xlink:title=" ">
<polygon fill="white" stroke="black" points="1768.5,-268.5 1768.5,-298.5 1875.5,-298.5 1875.5,-268.5 1768.5,-268.5"/>
<text text-anchor="start" x="1776.5" y="-286.5" font-family="Helvetica,sans-Serif" font-size="10.00">include/SComponent</text>
<text text-anchor="middle" x="1822" y="-275.5" font-family="Helvetica,sans-Serif" font-size="10.00">/c_cc_s/c_cc_s.h</text>
</a>
</g>
</g>
<!-- Node6&#45;&gt;Node43 -->
<g id="edge49" class="edge">
<title>Node6&#45;&gt;Node43</title>
<path fill="none" stroke="midnightblue" d="M1776.17,-328.31C1786.37,-318.56 1798.19,-307.26 1807.27,-298.58"/>
<polygon fill="midnightblue" stroke="midnightblue" points="1773.57,-325.96 1768.75,-335.4 1778.4,-331.02 1773.57,-325.96"/>
</g>
<!-- Node8 -->
<g id="node8" class="node">
<title>Node8</title>
<g id="a_node8"><a xlink:href="d__cc__s_8h.html" target="_top" xlink:title=" ">
<polygon fill="white" stroke="black" points="1702,-201.5 1702,-231.5 1806,-231.5 1806,-201.5 1702,-201.5"/>
<text text-anchor="start" x="1710" y="-219.5" font-family="Helvetica,sans-Serif" font-size="10.00">include/d/d_cc/d_cc</text>
<text text-anchor="middle" x="1754" y="-208.5" font-family="Helvetica,sans-Serif" font-size="10.00">_s/d_cc_s.h</text>
</a>
</g>
</g>
<!-- Node7&#45;&gt;Node8 -->
<g id="edge8" class="edge">
<title>Node7&#45;&gt;Node8</title>
<path fill="none" stroke="midnightblue" d="M1708.17,-261.31C1718.37,-251.56 1730.19,-240.26 1739.27,-231.58"/>
<polygon fill="midnightblue" stroke="midnightblue" points="1705.57,-258.96 1700.75,-268.4 1710.4,-264.02 1705.57,-258.96"/>
</g>
<!-- Node9 -->
<g id="node9" class="node">
<title>Node9</title>
<g id="a_node9"><a xlink:href="d__com__inf__game_8h.html" target="_top" xlink:title=" ">
<polygon fill="white" stroke="black" points="1681,-134.5 1681,-164.5 1827,-164.5 1827,-134.5 1681,-134.5"/>
<text text-anchor="start" x="1689" y="-152.5" font-family="Helvetica,sans-Serif" font-size="10.00">include/d/d_com/d_com</text>
<text text-anchor="middle" x="1754" y="-141.5" font-family="Helvetica,sans-Serif" font-size="10.00">_inf_game/d_com_inf_game.h</text>
</a>
</g>
</g>
<!-- Node8&#45;&gt;Node9 -->
<g id="edge9" class="edge">
<title>Node8&#45;&gt;Node9</title>
<path fill="none" stroke="midnightblue" d="M1754,-191.11C1754,-182.15 1754,-172.32 1754,-164.58"/>
<polygon fill="midnightblue" stroke="midnightblue" points="1750.5,-191.4 1754,-201.4 1757.5,-191.4 1750.5,-191.4"/>
</g>
<!-- Node10 -->
<g id="node10" class="node">
<title>Node10</title>
<g id="a_node10"><a xlink:href="d__attention_8cpp.html" target="_top" xlink:title=" ">
<polygon fill="white" stroke="black" points="295.5,-6 295.5,-25 402.5,-25 402.5,-6 295.5,-6"/>
<text text-anchor="middle" x="349" y="-13" font-family="Helvetica,sans-Serif" font-size="10.00">src/d/d_attention.cpp</text>
</a>
</g>
</g>
<!-- Node9&#45;&gt;Node10 -->
<g id="edge10" class="edge">
<title>Node9&#45;&gt;Node10</title>
<path fill="none" stroke="midnightblue" d="M1670.54,-148.7C1372.89,-148.99 378.65,-146.34 332,-98 312.63,-77.93 332.13,-41.8 342.9,-25.23"/>
<polygon fill="midnightblue" stroke="midnightblue" points="1670.83,-152.2 1680.83,-148.68 1670.83,-145.2 1670.83,-152.2"/>
</g>
<!-- Node11 -->
<g id="node11" class="node">
<title>Node11</title>
<g id="a_node11"><a xlink:href="d__camera_8cpp.html" target="_top" xlink:title=" ">
<polygon fill="white" stroke="black" points="479,-73 479,-92 581,-92 581,-73 479,-73"/>
<text text-anchor="middle" x="530" y="-80" font-family="Helvetica,sans-Serif" font-size="10.00">src/d/d_camera.cpp</text>
</a>
</g>
</g>
<!-- Node9&#45;&gt;Node11 -->
<g id="edge11" class="edge">
<title>Node9&#45;&gt;Node11</title>
<path fill="none" stroke="midnightblue" d="M1670.34,-146.77C1440.57,-141.7 803.07,-125.52 595,-98 584.45,-96.61 573.09,-94.34 562.87,-92.01"/>
<polygon fill="midnightblue" stroke="midnightblue" points="1670.57,-150.27 1680.64,-146.99 1670.72,-143.27 1670.57,-150.27"/>
</g>
<!-- Node12 -->
<g id="node12" class="node">
<title>Node12</title>
<g id="a_node12"><a xlink:href="d__com__inf__game_8cpp.html" target="_top" xlink:title=" ">
<polygon fill="white" stroke="black" points="563.5,-0.5 563.5,-30.5 682.5,-30.5 682.5,-0.5 563.5,-0.5"/>
<text text-anchor="start" x="571.5" y="-18.5" font-family="Helvetica,sans-Serif" font-size="10.00">src/d/d_com/d_com_inf</text>
<text text-anchor="middle" x="623" y="-7.5" font-family="Helvetica,sans-Serif" font-size="10.00">_game.cpp</text>
</a>
</g>
</g>
<!-- Node9&#45;&gt;Node12 -->
<g id="edge12" class="edge">
<title>Node9&#45;&gt;Node12</title>
<path fill="none" stroke="midnightblue" d="M1670.47,-147.78C1415.95,-145.18 665.04,-134.44 628,-98 610.31,-80.6 614.47,-48.91 618.87,-30.59"/>
<polygon fill="midnightblue" stroke="midnightblue" points="1670.73,-151.28 1680.77,-147.88 1670.8,-144.28 1670.73,-151.28"/>
</g>
<!-- Node13 -->
<g id="node13" class="node">
<title>Node13</title>
<g id="a_node13"><a xlink:href="d__file__sel__info_8cpp.html" target="_top" xlink:title=" ">
<polygon fill="white" stroke="black" points="789.5,-67.5 789.5,-97.5 878.5,-97.5 878.5,-67.5 789.5,-67.5"/>
<text text-anchor="start" x="797.5" y="-85.5" font-family="Helvetica,sans-Serif" font-size="10.00">src/d/d_file/d_file</text>
<text text-anchor="middle" x="834" y="-74.5" font-family="Helvetica,sans-Serif" font-size="10.00">_sel_info.cpp</text>
</a>
</g>
</g>
<!-- Node9&#45;&gt;Node13 -->
<g id="edge13" class="edge">
<title>Node9&#45;&gt;Node13</title>
<path fill="none" stroke="midnightblue" d="M1670.53,-149.4C1515.2,-149.81 1171.71,-144.71 887,-98 884.27,-97.55 881.48,-97.02 878.67,-96.43"/>
<polygon fill="midnightblue" stroke="midnightblue" points="1670.94,-152.9 1680.93,-149.37 1670.92,-145.9 1670.94,-152.9"/>
</g>
<!-- Node14 -->
<g id="node14" class="node">
<title>Node14</title>
<g id="a_node14"><a xlink:href="d__item_8cpp.html" target="_top" xlink:title=" ">
<polygon fill="white" stroke="black" points="700.5,-6 700.5,-25 821.5,-25 821.5,-6 700.5,-6"/>
<text text-anchor="middle" x="761" y="-13" font-family="Helvetica,sans-Serif" font-size="10.00">src/d/d_item/d_item.cpp</text>
</a>
</g>
</g>
<!-- Node9&#45;&gt;Node14 -->
<g id="edge14" class="edge">
<title>Node9&#45;&gt;Node14</title>
<path fill="none" stroke="midnightblue" d="M1670.31,-146.87C1440.39,-142.05 813.89,-126.36 780,-98 758.27,-79.82 758.62,-42.05 760.02,-25.08"/>
<polygon fill="midnightblue" stroke="midnightblue" points="1670.55,-150.38 1680.62,-147.09 1670.7,-143.38 1670.55,-150.38"/>
</g>
<!-- Node15 -->
<g id="node15" class="node">
<title>Node15</title>
<g id="a_node15"><a xlink:href="d__kankyo__rain_8cpp.html" target="_top" xlink:title=" ">
<polygon fill="white" stroke="black" points="896.5,-67.5 896.5,-97.5 1023.5,-97.5 1023.5,-67.5 896.5,-67.5"/>
<text text-anchor="start" x="904.5" y="-85.5" font-family="Helvetica,sans-Serif" font-size="10.00">src/d/d_kankyo/d_kankyo</text>
<text text-anchor="middle" x="960" y="-74.5" font-family="Helvetica,sans-Serif" font-size="10.00">_rain.cpp</text>
</a>
</g>
</g>
<!-- Node9&#45;&gt;Node15 -->
<g id="edge15" class="edge">
<title>Node9&#45;&gt;Node15</title>
<path fill="none" stroke="midnightblue" d="M1670.68,-146.16C1535.91,-141.59 1261.98,-129.07 1032,-98 1029.22,-97.62 1026.39,-97.21 1023.53,-96.76"/>
<polygon fill="midnightblue" stroke="midnightblue" points="1670.81,-149.67 1680.92,-146.5 1671.04,-142.67 1670.81,-149.67"/>
</g>
<!-- Node16 -->
<g id="node16" class="node">
<title>Node16</title>
<g id="a_node16"><a xlink:href="d__kankyo__wether_8cpp.html" target="_top" xlink:title=" ">
<polygon fill="white" stroke="black" points="1041.5,-67.5 1041.5,-97.5 1168.5,-97.5 1168.5,-67.5 1041.5,-67.5"/>
<text text-anchor="start" x="1049.5" y="-85.5" font-family="Helvetica,sans-Serif" font-size="10.00">src/d/d_kankyo/d_kankyo</text>
<text text-anchor="middle" x="1105" y="-74.5" font-family="Helvetica,sans-Serif" font-size="10.00">_wether.cpp</text>
</a>
</g>
</g>
<!-- Node9&#45;&gt;Node16 -->
<g id="edge16" class="edge">
<title>Node9&#45;&gt;Node16</title>
<path fill="none" stroke="midnightblue" d="M1670.57,-144.12C1558.08,-137.56 1351.7,-123.16 1177,-98 1174.22,-97.6 1171.39,-97.16 1168.54,-96.69"/>
<polygon fill="midnightblue" stroke="midnightblue" points="1670.65,-147.63 1680.83,-144.72 1671.05,-140.65 1670.65,-147.63"/>
</g>
<!-- Node17 -->
<g id="node17" class="node">
<title>Node17</title>
<g id="a_node17"><a xlink:href="d__kankyo_8cpp.html" target="_top" xlink:title=" ">
<polygon fill="white" stroke="black" points="1186.5,-73 1186.5,-92 1287.5,-92 1287.5,-73 1186.5,-73"/>
<text text-anchor="middle" x="1237" y="-80" font-family="Helvetica,sans-Serif" font-size="10.00">src/d/d_kankyo.cpp</text>
</a>
</g>
</g>
<!-- Node9&#45;&gt;Node17 -->
<g id="edge17" class="edge">
<title>Node9&#45;&gt;Node17</title>
<path fill="none" stroke="midnightblue" d="M1670.9,-142.63C1578.78,-135.36 1426.02,-121.04 1296,-98 1286.96,-96.4 1277.26,-94.21 1268.38,-92.02"/>
<polygon fill="midnightblue" stroke="midnightblue" points="1670.76,-146.13 1681,-143.42 1671.3,-139.15 1670.76,-146.13"/>
</g>
<!-- Node18 -->
<g id="node18" class="node">
<title>Node18</title>
<g id="a_node18"><a xlink:href="d__kantera__icon__meter_8cpp.html" target="_top" xlink:title=" ">
<polygon fill="white" stroke="black" points="1305.5,-67.5 1305.5,-97.5 1412.5,-97.5 1412.5,-67.5 1305.5,-67.5"/>
<text text-anchor="start" x="1313.5" y="-85.5" font-family="Helvetica,sans-Serif" font-size="10.00">src/d/d_kantera_icon</text>
<text text-anchor="middle" x="1359" y="-74.5" font-family="Helvetica,sans-Serif" font-size="10.00">_meter.cpp</text>
</a>
</g>
</g>
<!-- Node9&#45;&gt;Node18 -->
<g id="edge18" class="edge">
<title>Node9&#45;&gt;Node18</title>
<path fill="none" stroke="midnightblue" d="M1670.8,-137.75C1603.25,-128.57 1505.66,-114.29 1421,-98 1418.29,-97.48 1415.51,-96.92 1412.71,-96.34"/>
<polygon fill="midnightblue" stroke="midnightblue" points="1670.58,-141.25 1680.96,-139.12 1671.52,-134.31 1670.58,-141.25"/>
</g>
<!-- Node19 -->
<g id="node19" class="node">
<title>Node19</title>
<g id="a_node19"><a xlink:href="d__meter__button_8cpp.html" target="_top" xlink:title=" ">
<polygon fill="white" stroke="black" points="1430.5,-67.5 1430.5,-97.5 1545.5,-97.5 1545.5,-67.5 1430.5,-67.5"/>
<text text-anchor="start" x="1438.5" y="-85.5" font-family="Helvetica,sans-Serif" font-size="10.00">src/d/d_meter/d_meter</text>
<text text-anchor="middle" x="1488" y="-74.5" font-family="Helvetica,sans-Serif" font-size="10.00">_button.cpp</text>
</a>
</g>
</g>
<!-- Node9&#45;&gt;Node19 -->
<g id="edge19" class="edge">
<title>Node9&#45;&gt;Node19</title>
<path fill="none" stroke="midnightblue" d="M1686.69,-132.05C1643.2,-121.43 1587.2,-107.74 1545.75,-97.61"/>
<polygon fill="midnightblue" stroke="midnightblue" points="1686.06,-135.5 1696.61,-134.48 1687.73,-128.7 1686.06,-135.5"/>
</g>
<!-- Node20 -->
<g id="node20" class="node">
<title>Node20</title>
<g id="a_node20"><a xlink:href="d__meter__haihai_8cpp.html" target="_top" xlink:title=" ">
<polygon fill="white" stroke="black" points="1563.5,-67.5 1563.5,-97.5 1678.5,-97.5 1678.5,-67.5 1563.5,-67.5"/>
<text text-anchor="start" x="1571.5" y="-85.5" font-family="Helvetica,sans-Serif" font-size="10.00">src/d/d_meter/d_meter</text>
<text text-anchor="middle" x="1621" y="-74.5" font-family="Helvetica,sans-Serif" font-size="10.00">_haihai.cpp</text>
</a>
</g>
</g>
<!-- Node9&#45;&gt;Node20 -->
<g id="edge20" class="edge">
<title>Node9&#45;&gt;Node20</title>
<path fill="none" stroke="midnightblue" d="M1716.13,-129.99C1695.05,-119.69 1669.22,-107.07 1649.8,-97.58"/>
<polygon fill="midnightblue" stroke="midnightblue" points="1714.62,-133.15 1725.14,-134.4 1717.69,-126.86 1714.62,-133.15"/>
</g>
<!-- Node21 -->
<g id="node21" class="node">
<title>Node21</title>
<g id="a_node21"><a xlink:href="d__meter__hakusha_8cpp.html" target="_top" xlink:title=" ">
<polygon fill="white" stroke="black" points="1696.5,-67.5 1696.5,-97.5 1811.5,-97.5 1811.5,-67.5 1696.5,-67.5"/>
<text text-anchor="start" x="1704.5" y="-85.5" font-family="Helvetica,sans-Serif" font-size="10.00">src/d/d_meter/d_meter</text>
<text text-anchor="middle" x="1754" y="-74.5" font-family="Helvetica,sans-Serif" font-size="10.00">_hakusha.cpp</text>
</a>
</g>
</g>
<!-- Node9&#45;&gt;Node21 -->
<g id="edge21" class="edge">
<title>Node9&#45;&gt;Node21</title>
<path fill="none" stroke="midnightblue" d="M1754,-124.11C1754,-115.15 1754,-105.32 1754,-97.58"/>
<polygon fill="midnightblue" stroke="midnightblue" points="1750.5,-124.4 1754,-134.4 1757.5,-124.4 1750.5,-124.4"/>
</g>
<!-- Node22 -->
<g id="node22" class="node">
<title>Node22</title>
<g id="a_node22"><a xlink:href="d__meter__map_8cpp.html" target="_top" xlink:title=" ">
<polygon fill="white" stroke="black" points="1829.5,-67.5 1829.5,-97.5 1944.5,-97.5 1944.5,-67.5 1829.5,-67.5"/>
<text text-anchor="start" x="1837.5" y="-85.5" font-family="Helvetica,sans-Serif" font-size="10.00">src/d/d_meter/d_meter</text>
<text text-anchor="middle" x="1887" y="-74.5" font-family="Helvetica,sans-Serif" font-size="10.00">_map.cpp</text>
</a>
</g>
</g>
<!-- Node9&#45;&gt;Node22 -->
<g id="edge22" class="edge">
<title>Node9&#45;&gt;Node22</title>
<path fill="none" stroke="midnightblue" d="M1791.87,-129.99C1812.95,-119.69 1838.78,-107.07 1858.2,-97.58"/>
<polygon fill="midnightblue" stroke="midnightblue" points="1790.31,-126.86 1782.86,-134.4 1793.38,-133.15 1790.31,-126.86"/>
</g>
<!-- Node23 -->
<g id="node23" class="node">
<title>Node23</title>
<g id="a_node23"><a xlink:href="d__meter__string_8cpp.html" target="_top" xlink:title=" ">
<polygon fill="white" stroke="black" points="1962.5,-67.5 1962.5,-97.5 2077.5,-97.5 2077.5,-67.5 1962.5,-67.5"/>
<text text-anchor="start" x="1970.5" y="-85.5" font-family="Helvetica,sans-Serif" font-size="10.00">src/d/d_meter/d_meter</text>
<text text-anchor="middle" x="2020" y="-74.5" font-family="Helvetica,sans-Serif" font-size="10.00">_string.cpp</text>
</a>
</g>
</g>
<!-- Node9&#45;&gt;Node23 -->
<g id="edge23" class="edge">
<title>Node9&#45;&gt;Node23</title>
<path fill="none" stroke="midnightblue" d="M1821.31,-132.05C1864.8,-121.43 1920.8,-107.74 1962.25,-97.61"/>
<polygon fill="midnightblue" stroke="midnightblue" points="1820.27,-128.7 1811.39,-134.48 1821.94,-135.5 1820.27,-128.7"/>
</g>
<!-- Node24 -->
<g id="node24" class="node">
<title>Node24</title>
<g id="a_node24"><a xlink:href="d__meter2__draw_8cpp.html" target="_top" xlink:title=" ">
<polygon fill="white" stroke="black" points="2095.5,-67.5 2095.5,-97.5 2220.5,-97.5 2220.5,-67.5 2095.5,-67.5"/>
<text text-anchor="start" x="2103.5" y="-85.5" font-family="Helvetica,sans-Serif" font-size="10.00">src/d/d_meter2/d_meter2</text>
<text text-anchor="middle" x="2158" y="-74.5" font-family="Helvetica,sans-Serif" font-size="10.00">_draw.cpp</text>
</a>
</g>
</g>
<!-- Node9&#45;&gt;Node24 -->
<g id="edge24" class="edge">
<title>Node9&#45;&gt;Node24</title>
<path fill="none" stroke="midnightblue" d="M1837.14,-136.98C1904.41,-127.38 2001.49,-112.93 2086,-98 2089.01,-97.47 2092.09,-96.91 2095.2,-96.33"/>
<polygon fill="midnightblue" stroke="midnightblue" points="1836.43,-133.54 1827.03,-138.42 1837.42,-140.47 1836.43,-133.54"/>
</g>
<!-- Node25 -->
<g id="node25" class="node">
<title>Node25</title>
<g id="a_node25"><a xlink:href="d__meter2__info_8cpp.html" target="_top" xlink:title=" ">
<polygon fill="white" stroke="black" points="2238.5,-67.5 2238.5,-97.5 2363.5,-97.5 2363.5,-67.5 2238.5,-67.5"/>
<text text-anchor="start" x="2246.5" y="-85.5" font-family="Helvetica,sans-Serif" font-size="10.00">src/d/d_meter2/d_meter2</text>
<text text-anchor="middle" x="2301" y="-74.5" font-family="Helvetica,sans-Serif" font-size="10.00">_info.cpp</text>
</a>
</g>
</g>
<!-- Node9&#45;&gt;Node25 -->
<g id="edge25" class="edge">
<title>Node9&#45;&gt;Node25</title>
<path fill="none" stroke="midnightblue" d="M1837.23,-142.01C1932.3,-134.04 2092.38,-118.97 2229,-98 2232.02,-97.54 2235.12,-97.03 2238.23,-96.5"/>
<polygon fill="midnightblue" stroke="midnightblue" points="1836.78,-138.53 1827.1,-142.85 1837.36,-145.51 1836.78,-138.53"/>
</g>
<!-- Node26 -->
<g id="node26" class="node">
<title>Node26</title>
<g id="a_node26"><a xlink:href="d__meter2_8cpp.html" target="_top" xlink:title=" ">
<polygon fill="white" stroke="black" points="2382,-73 2382,-92 2482,-92 2482,-73 2382,-73"/>
<text text-anchor="middle" x="2432" y="-80" font-family="Helvetica,sans-Serif" font-size="10.00">src/d/d_meter2.cpp</text>
</a>
</g>
</g>
<!-- Node9&#45;&gt;Node26 -->
<g id="edge26" class="edge">
<title>Node9&#45;&gt;Node26</title>
<path fill="none" stroke="midnightblue" d="M1837.37,-145.8C1956.55,-141.02 2182.23,-128.49 2372,-98 2381.42,-96.49 2391.54,-94.27 2400.74,-92.03"/>
<polygon fill="midnightblue" stroke="midnightblue" points="1837.08,-142.31 1827.22,-146.2 1837.35,-149.31 1837.08,-142.31"/>
</g>
<!-- Node27 -->
<g id="node27" class="node">
<title>Node27</title>
<g id="a_node27"><a xlink:href="d__save_8cpp.html" target="_top" xlink:title=" ">
<polygon fill="white" stroke="black" points="2500.5,-73 2500.5,-92 2625.5,-92 2625.5,-73 2500.5,-73"/>
<text text-anchor="middle" x="2563" y="-80" font-family="Helvetica,sans-Serif" font-size="10.00">src/d/d_save/d_save.cpp</text>
</a>
</g>
</g>
<!-- Node9&#45;&gt;Node27 -->
<g id="edge27" class="edge">
<title>Node9&#45;&gt;Node27</title>
<path fill="none" stroke="midnightblue" d="M1837.02,-146.34C1973.85,-141.98 2255.08,-129.7 2491,-98 2502.25,-96.49 2514.38,-94.28 2525.41,-92.03"/>
<polygon fill="midnightblue" stroke="midnightblue" points="1836.91,-142.84 1827.02,-146.65 1837.12,-149.83 1836.91,-142.84"/>
</g>
<!-- Node28 -->
<g id="node28" class="node">
<title>Node28</title>
<g id="a_node28"><a xlink:href="d__save__HIO_8cpp.html" target="_top" xlink:title=" ">
<polygon fill="white" stroke="black" points="2643.5,-67.5 2643.5,-97.5 2750.5,-97.5 2750.5,-67.5 2643.5,-67.5"/>
<text text-anchor="start" x="2651.5" y="-85.5" font-family="Helvetica,sans-Serif" font-size="10.00">src/d/d_save/d_save</text>
<text text-anchor="middle" x="2697" y="-74.5" font-family="Helvetica,sans-Serif" font-size="10.00">_HIO.cpp</text>
</a>
</g>
</g>
<!-- Node9&#45;&gt;Node28 -->
<g id="edge28" class="edge">
<title>Node9&#45;&gt;Node28</title>
<path fill="none" stroke="midnightblue" d="M1837.29,-148.5C1994.2,-147.43 2344.01,-140.05 2635,-98 2637.74,-97.6 2640.53,-97.15 2643.34,-96.65"/>
<polygon fill="midnightblue" stroke="midnightblue" points="1837.21,-145 1827.23,-148.56 1837.25,-152 1837.21,-145"/>
</g>
<!-- Node29 -->
<g id="node29" class="node">
<title>Node29</title>
<g id="a_node29"><a xlink:href="d__stage_8cpp.html" target="_top" xlink:title=" ">
<polygon fill="white" stroke="black" points="2769,-73 2769,-92 2863,-92 2863,-73 2769,-73"/>
<text text-anchor="middle" x="2816" y="-80" font-family="Helvetica,sans-Serif" font-size="10.00">src/d/d_stage.cpp</text>
</a>
</g>
</g>
<!-- Node9&#45;&gt;Node29 -->
<g id="edge29" class="edge">
<title>Node9&#45;&gt;Node29</title>
<path fill="none" stroke="midnightblue" d="M1837.4,-146.5C2045.39,-141.15 2582.99,-125.07 2760,-98 2769.13,-96.6 2778.93,-94.34 2787.74,-92.01"/>
<polygon fill="midnightblue" stroke="midnightblue" points="1837.06,-143 1827.16,-146.76 1837.24,-150 1837.06,-143"/>
</g>
<!-- Node30 -->
<g id="node30" class="node">
<title>Node30</title>
<g id="a_node30"><a xlink:href="f__pc__manager_8cpp.html" target="_top" xlink:title=" ">
<polygon fill="white" stroke="black" points="0,-6 0,-25 140,-25 140,-6 0,-6"/>
<text text-anchor="middle" x="70" y="-13" font-family="Helvetica,sans-Serif" font-size="10.00">src/f/f_pc/f_pc_manager.cpp</text>
</a>
</g>
</g>
<!-- Node9&#45;&gt;Node30 -->
<g id="edge30" class="edge">
<title>Node9&#45;&gt;Node30</title>
<path fill="none" stroke="midnightblue" d="M1670.83,-147.45C1353.13,-143.25 230.48,-126.46 160,-98 121.49,-82.45 88.96,-42.57 76,-25.01"/>
<polygon fill="midnightblue" stroke="midnightblue" points="1670.84,-150.95 1680.89,-147.59 1670.94,-143.96 1670.84,-150.95"/>
</g>
<!-- Node31 -->
<g id="node31" class="node">
<title>Node31</title>
<g id="a_node31"><a xlink:href="m__Do__audio_8cpp.html" target="_top" xlink:title=" ">
<polygon fill="white" stroke="black" points="2881,-73 2881,-92 3015,-92 3015,-73 2881,-73"/>
<text text-anchor="middle" x="2948" y="-80" font-family="Helvetica,sans-Serif" font-size="10.00">src/m_Do/m_Do_audio.cpp</text>
</a>
</g>
</g>
<!-- Node9&#45;&gt;Node31 -->
<g id="edge31" class="edge">
<title>Node9&#45;&gt;Node31</title>
<path fill="none" stroke="midnightblue" d="M1837.48,-148.81C2023.77,-148.61 2487.3,-143.15 2872,-98 2884.14,-96.58 2897.25,-94.33 2909.11,-92.03"/>
<polygon fill="midnightblue" stroke="midnightblue" points="1837.21,-145.31 1827.22,-148.81 1837.22,-152.31 1837.21,-145.31"/>
</g>
<!-- Node32 -->
<g id="node32" class="node">
<title>Node32</title>
<g id="a_node32"><a xlink:href="m__Do__main_8cpp.html" target="_top" xlink:title=" ">
<polygon fill="white" stroke="black" points="3033.5,-73 3033.5,-92 3164.5,-92 3164.5,-73 3033.5,-73"/>
<text text-anchor="middle" x="3099" y="-80" font-family="Helvetica,sans-Serif" font-size="10.00">src/m_Do/m_Do_main.cpp</text>
</a>
</g>
</g>
<!-- Node9&#45;&gt;Node32 -->
<g id="edge32" class="edge">
<title>Node9&#45;&gt;Node32</title>
<path fill="none" stroke="midnightblue" d="M1837.45,-146.83C2081.81,-141.68 2793.05,-124.76 3024,-98 3035.99,-96.61 3048.93,-94.38 3060.63,-92.07"/>
<polygon fill="midnightblue" stroke="midnightblue" points="1837.14,-143.34 1827.22,-147.05 1837.29,-150.34 1837.14,-143.34"/>
</g>
<!-- Node33 -->
<g id="node33" class="node">
<title>Node33</title>
<g id="a_node33"><a xlink:href="Z2EnvSeMgr_8cpp.html" target="_top" xlink:title=" ">
<polygon fill="white" stroke="black" points="3182.5,-73 3182.5,-92 3343.5,-92 3343.5,-73 3182.5,-73"/>
<text text-anchor="middle" x="3263" y="-80" font-family="Helvetica,sans-Serif" font-size="10.00">libs/Z2AudioLib/Z2EnvSeMgr.cpp</text>
</a>
</g>
</g>
<!-- Node9&#45;&gt;Node33 -->
<g id="edge33" class="edge">
<title>Node9&#45;&gt;Node33</title>
<path fill="none" stroke="midnightblue" d="M1837.14,-149.19C2056.36,-150.23 2668.04,-148.01 3174,-98 3188.18,-96.6 3203.52,-94.36 3217.41,-92.06"/>
<polygon fill="midnightblue" stroke="midnightblue" points="1837.02,-145.69 1827,-149.14 1836.98,-152.69 1837.02,-145.69"/>
</g>
<!-- Node34 -->
<g id="node34" class="node">
<title>Node34</title>
<g id="a_node34"><a xlink:href="Z2LinkMgr_8cpp.html" target="_top" xlink:title=" ">
<polygon fill="white" stroke="black" points="3362,-73 3362,-92 3514,-92 3514,-73 3362,-73"/>
<text text-anchor="middle" x="3438" y="-80" font-family="Helvetica,sans-Serif" font-size="10.00">libs/Z2AudioLib/Z2LinkMgr.cpp</text>
</a>
</g>
</g>
<!-- Node9&#45;&gt;Node34 -->
<g id="edge34" class="edge">
<title>Node9&#45;&gt;Node34</title>
<path fill="none" stroke="midnightblue" d="M1837.72,-147.38C2122.83,-143.31 3054.78,-128 3353,-98 3366.7,-96.62 3381.54,-94.36 3394.91,-92.03"/>
<polygon fill="midnightblue" stroke="midnightblue" points="1837.39,-143.88 1827.45,-147.52 1837.49,-150.88 1837.39,-143.88"/>
</g>
<!-- Node35 -->
<g id="node35" class="node">
<title>Node35</title>
<g id="a_node35"><a xlink:href="Z2SceneMgr_8cpp.html" target="_top" xlink:title=" ">
<polygon fill="white" stroke="black" points="3532.5,-73 3532.5,-92 3693.5,-92 3693.5,-73 3532.5,-73"/>
<text text-anchor="middle" x="3613" y="-80" font-family="Helvetica,sans-Serif" font-size="10.00">libs/Z2AudioLib/Z2SceneMgr.cpp</text>
</a>
</g>
</g>
<!-- Node9&#45;&gt;Node35 -->
<g id="edge35" class="edge">
<title>Node9&#45;&gt;Node35</title>
<path fill="none" stroke="midnightblue" d="M1837.22,-147.57C2140.98,-143.97 3189.55,-129.48 3523,-98 3537.5,-96.63 3553.2,-94.37 3567.36,-92.04"/>
<polygon fill="midnightblue" stroke="midnightblue" points="1837.12,-144.08 1827.16,-147.69 1837.2,-151.07 1837.12,-144.08"/>
</g>
<!-- Node36 -->
<g id="node36" class="node">
<title>Node36</title>
<g id="a_node36"><a xlink:href="Z2SoundMgr_8cpp.html" target="_top" xlink:title=" ">
<polygon fill="white" stroke="black" points="3711.5,-73 3711.5,-92 3872.5,-92 3872.5,-73 3711.5,-73"/>
<text text-anchor="middle" x="3792" y="-80" font-family="Helvetica,sans-Serif" font-size="10.00">libs/Z2AudioLib/Z2SoundMgr.cpp</text>
</a>
</g>
</g>
<!-- Node9&#45;&gt;Node36 -->
<g id="edge36" class="edge">
<title>Node9&#45;&gt;Node36</title>
<path fill="none" stroke="midnightblue" d="M1837.4,-147.85C2160.82,-145.08 3332.54,-132.82 3703,-98 3717.34,-96.65 3732.87,-94.4 3746.88,-92.07"/>
<polygon fill="midnightblue" stroke="midnightblue" points="1837.14,-144.35 1827.17,-147.93 1837.2,-151.35 1837.14,-144.35"/>
</g>
<!-- Node37 -->
<g id="node37" class="node">
<title>Node37</title>
<g id="a_node37"><a xlink:href="Z2StatusMgr_8cpp.html" target="_top" xlink:title=" ">
<polygon fill="white" stroke="black" points="3890.5,-67.5 3890.5,-97.5 4017.5,-97.5 4017.5,-67.5 3890.5,-67.5"/>
<text text-anchor="start" x="3898.5" y="-85.5" font-family="Helvetica,sans-Serif" font-size="10.00">libs/Z2AudioLib/Z2Status</text>
<text text-anchor="middle" x="3954" y="-74.5" font-family="Helvetica,sans-Serif" font-size="10.00">Mgr.cpp</text>
</a>
</g>
</g>
<!-- Node9&#45;&gt;Node37 -->
<g id="edge37" class="edge">
<title>Node9&#45;&gt;Node37</title>
<path fill="none" stroke="midnightblue" d="M1837.32,-148.47C2179.16,-148.05 3475.24,-143.43 3882,-98 3884.79,-97.69 3887.63,-97.32 3890.49,-96.92"/>
<polygon fill="midnightblue" stroke="midnightblue" points="1837.24,-144.97 1827.24,-148.48 1837.25,-151.97 1837.24,-144.97"/>
</g>
<!-- Node38 -->
<g id="node38" class="node">
<title>Node38</title>
<g id="a_node38"><a xlink:href="d__a__alink_8h.html" target="_top" xlink:title=" ">
<polygon fill="white" stroke="black" points="341.5,-67.5 341.5,-97.5 460.5,-97.5 460.5,-67.5 341.5,-67.5"/>
<text text-anchor="start" x="349.5" y="-85.5" font-family="Helvetica,sans-Serif" font-size="10.00">include/d/d_a/d_a_alink</text>
<text text-anchor="middle" x="401" y="-74.5" font-family="Helvetica,sans-Serif" font-size="10.00">/d_a_alink.h</text>
</a>
</g>
</g>
<!-- Node9&#45;&gt;Node38 -->
<g id="edge38" class="edge">
<title>Node9&#45;&gt;Node38</title>
<path fill="none" stroke="midnightblue" d="M1670.47,-147.05C1424.18,-142.47 703.54,-126.92 470,-98 466.96,-97.62 463.86,-97.18 460.74,-96.69"/>
<polygon fill="midnightblue" stroke="midnightblue" points="1670.72,-150.55 1680.79,-147.24 1670.85,-143.55 1670.72,-150.55"/>
</g>
<!-- Node41 -->
<g id="node41" class="node">
<title>Node41</title>
<g id="a_node41"><a xlink:href="d__item_8h.html" target="_top" xlink:title=" ">
<polygon fill="white" stroke="black" points="637,-67.5 637,-97.5 733,-97.5 733,-67.5 637,-67.5"/>
<text text-anchor="start" x="645" y="-85.5" font-family="Helvetica,sans-Serif" font-size="10.00">include/d/d_item/d</text>
<text text-anchor="middle" x="685" y="-74.5" font-family="Helvetica,sans-Serif" font-size="10.00">_item/d_item.h</text>
</a>
</g>
</g>
<!-- Node9&#45;&gt;Node41 -->
<g id="edge43" class="edge">
<title>Node9&#45;&gt;Node41</title>
<path fill="none" stroke="midnightblue" d="M1670.87,-149.36C1497.95,-150.05 1087.32,-145.93 747,-98 742.51,-97.37 737.87,-96.57 733.24,-95.67"/>
<polygon fill="midnightblue" stroke="midnightblue" points="1670.93,-152.86 1680.91,-149.31 1670.9,-145.86 1670.93,-152.86"/>
</g>
<!-- Node42 -->
<g id="node42" class="node">
<title>Node42</title>
<g id="a_node42"><a xlink:href="f__pc__manager_8h.html" target="_top" xlink:title=" ">
<polygon fill="white" stroke="black" points="169.5,-67.5 169.5,-97.5 266.5,-97.5 266.5,-67.5 169.5,-67.5"/>
<text text-anchor="start" x="177.5" y="-85.5" font-family="Helvetica,sans-Serif" font-size="10.00">include/f/f_pc/f_pc</text>
<text text-anchor="middle" x="218" y="-74.5" font-family="Helvetica,sans-Serif" font-size="10.00">_manager.h</text>
</a>
</g>
</g>
<!-- Node9&#45;&gt;Node42 -->
<g id="edge46" class="edge">
<title>Node9&#45;&gt;Node42</title>
<path fill="none" stroke="midnightblue" d="M1670.61,-147.17C1403.01,-142.65 567.78,-126.57 299,-98 288.49,-96.88 277.28,-95.2 266.67,-93.37"/>
<polygon fill="midnightblue" stroke="midnightblue" points="1670.59,-150.67 1680.65,-147.34 1670.71,-143.67 1670.59,-150.67"/>
</g>
<!-- Node38&#45;&gt;Node10 -->
<g id="edge39" class="edge">
<title>Node38&#45;&gt;Node10</title>
<path fill="none" stroke="midnightblue" d="M383.25,-59.32C373.88,-47.6 362.91,-33.88 355.96,-25.19"/>
<polygon fill="midnightblue" stroke="midnightblue" points="380.74,-61.77 389.72,-67.4 386.2,-57.4 380.74,-61.77"/>
</g>
<!-- Node39 -->
<g id="node39" class="node">
<title>Node39</title>
<g id="a_node39"><a xlink:href="d__a__alink_8cpp.html" target="_top" xlink:title=" ">
<polygon fill="white" stroke="black" points="158.5,-6 158.5,-25 277.5,-25 277.5,-6 158.5,-6"/>
<text text-anchor="middle" x="218" y="-13" font-family="Helvetica,sans-Serif" font-size="10.00">src/d/d_a/d_a_alink.cpp</text>
</a>
</g>
</g>
<!-- Node38&#45;&gt;Node39 -->
<g id="edge40" class="edge">
<title>Node38&#45;&gt;Node39</title>
<path fill="none" stroke="midnightblue" d="M351.58,-63.95C316.04,-51.32 269.66,-34.85 241.95,-25.01"/>
<polygon fill="midnightblue" stroke="midnightblue" points="350.7,-67.35 361.29,-67.4 353.04,-60.75 350.7,-67.35"/>
</g>
<!-- Node40 -->
<g id="node40" class="node">
<title>Node40</title>
<g id="a_node40"><a xlink:href="d__a__player_8h.html" target="_top" xlink:title=" ">
<polygon fill="white" stroke="black" points="421,-0.5 421,-30.5 545,-30.5 545,-0.5 421,-0.5"/>
<text text-anchor="start" x="429" y="-18.5" font-family="Helvetica,sans-Serif" font-size="10.00">include/d/d_a/d_a_player</text>
<text text-anchor="middle" x="483" y="-7.5" font-family="Helvetica,sans-Serif" font-size="10.00">/d_a_player.h</text>
</a>
</g>
</g>
<!-- Node38&#45;&gt;Node40 -->
<g id="edge41" class="edge">
<title>Node38&#45;&gt;Node40</title>
<path fill="none" stroke="midnightblue" d="M421.02,-60.6C432.7,-50.78 447.35,-39.34 459.57,-30.58"/>
<polygon fill="midnightblue" stroke="midnightblue" points="418.41,-58.22 413.11,-67.4 422.98,-63.53 418.41,-58.22"/>
</g>
<!-- Node40&#45;&gt;Node38 -->
<g id="edge42" class="edge">
<title>Node40&#45;&gt;Node38</title>
<path fill="none" stroke="midnightblue" d="M463.02,-37.37C451.35,-47.18 436.69,-58.62 424.47,-67.4"/>
<polygon fill="midnightblue" stroke="midnightblue" points="465.62,-39.75 470.92,-30.58 461.05,-34.45 465.62,-39.75"/>
</g>
<!-- Node41&#45;&gt;Node12 -->
<g id="edge44" class="edge">
<title>Node41&#45;&gt;Node12</title>
<path fill="none" stroke="midnightblue" d="M664.52,-60.02C655.28,-50.34 644.63,-39.17 636.43,-30.58"/>
<polygon fill="midnightblue" stroke="midnightblue" points="662.11,-62.58 671.55,-67.4 667.18,-57.74 662.11,-62.58"/>
</g>
<!-- Node41&#45;&gt;Node14 -->
<g id="edge45" class="edge">
<title>Node41&#45;&gt;Node14</title>
<path fill="none" stroke="midnightblue" d="M709.35,-60.67C723.39,-48.67 740.28,-34.22 750.83,-25.19"/>
<polygon fill="midnightblue" stroke="midnightblue" points="706.82,-58.24 701.49,-67.4 711.37,-63.56 706.82,-58.24"/>
</g>
<!-- Node42&#45;&gt;Node30 -->
<g id="edge47" class="edge">
<title>Node42&#45;&gt;Node30</title>
<path fill="none" stroke="midnightblue" d="M176.55,-63.3C148.01,-50.76 111.4,-34.68 89.37,-25.01"/>
<polygon fill="midnightblue" stroke="midnightblue" points="175.32,-66.58 185.89,-67.4 178.14,-60.17 175.32,-66.58"/>
</g>
<!-- Node42&#45;&gt;Node39 -->
<g id="edge48" class="edge">
<title>Node42&#45;&gt;Node39</title>
<path fill="none" stroke="midnightblue" d="M218,-57.25C218,-46.02 218,-33.38 218,-25.19"/>
<polygon fill="midnightblue" stroke="midnightblue" points="214.5,-57.4 218,-67.4 221.5,-57.4 214.5,-57.4"/>
</g>
<!-- Node43&#45;&gt;Node8 -->
<g id="edge50" class="edge">
<title>Node43&#45;&gt;Node8</title>
<path fill="none" stroke="midnightblue" d="M1799.83,-261.31C1789.63,-251.56 1777.81,-240.26 1768.73,-231.58"/>
<polygon fill="midnightblue" stroke="midnightblue" points="1797.6,-264.02 1807.25,-268.4 1802.43,-258.96 1797.6,-264.02"/>
</g>
</g>
</svg>
        <g id="navigator" transform="translate(0 0)" fill="#404254">
                <rect fill="#f2f5e9" fill-opacity="0.5" stroke="#606060" stroke-width=".5" x="0" y="0" width="60" height="60"/>
                <use id="zoomplus" xlink:href="#zoomPlus" x="17" y="9" onmousedown="handleZoom(evt,'in')"/>
                <use id="zoomminus" xlink:href="#zoomMin" x="42" y="9" onmousedown="handleZoom(evt,'out')"/>
                <use id="reset" xlink:href="#resetDef" x="30" y="36" onmousedown="handleReset()"/>
                <g id="arrowUp" xlink:href="#dirArrow" transform="translate(30 24)" onmousedown="handlePan(0,-1)">
                  <use xlink:href="#rim" fill="#404040">
                        <set attributeName="fill" to="#808080" begin="arrowUp.mouseover" end="arrowUp.mouseout"/>
                  </use>
                  <path fill="none" stroke="white" stroke-width="1.5" d="M0,-3.0v7 M-2.5,-0.5L0,-3.0L2.5,-0.5"/>
                </g>
                <g id="arrowRight" xlink:href="#dirArrow" transform="rotate(90) translate(36 -43)" onmousedown="handlePan(1,0)">
                  <use xlink:href="#rim" fill="#404040">
                        <set attributeName="fill" to="#808080" begin="arrowRight.mouseover" end="arrowRight.mouseout"/>
                  </use>
                  <path fill="none" stroke="white" stroke-width="1.5" d="M0,-3.0v7 M-2.5,-0.5L0,-3.0L2.5,-0.5"/>
                </g>
                <g id="arrowDown" xlink:href="#dirArrow" transform="rotate(180) translate(-30 -48)" onmousedown="handlePan(0,1)">
                  <use xlink:href="#rim" fill="#404040">
                        <set attributeName="fill" to="#808080" begin="arrowDown.mouseover" end="arrowDown.mouseout"/>
                  </use>
                  <path fill="none" stroke="white" stroke-width="1.5" d="M0,-3.0v7 M-2.5,-0.5L0,-3.0L2.5,-0.5"/>
                </g>
                <g id="arrowLeft" xlink:href="#dirArrow" transform="rotate(270) translate(-36 17)" onmousedown="handlePan(-1,0)">
                  <use xlink:href="#rim" fill="#404040">
                        <set attributeName="fill" to="#808080" begin="arrowLeft.mouseover" end="arrowLeft.mouseout"/>
                  </use>
                  <path fill="none" stroke="white" stroke-width="1.5" d="M0,-3.0v7 M-2.5,-0.5L0,-3.0L2.5,-0.5"/>
                </g>
        </g>
        <svg viewBox="0 0 15 15" width="100%" height="30px" preserveAspectRatio="xMaxYMin meet">
         <g id="arrow_out" transform="scale(0.3 0.3)">
          <a xlink:href="c__m3d__g__lin_8h__dep__incl_org.svg" target="_base">
           <rect id="button" ry="5" rx="5" y="6" x="6" height="38" width="38"
                fill="#f2f5e9" fill-opacity="0.5" stroke="#606060" stroke-width="1.0"/>
           <path id="arrow"
             d="M 11.500037,31.436501 C 11.940474,20.09759 22.043105,11.32322 32.158766,21.979434 L 37.068811,17.246167 C 37.068811,17.246167 37.088388,32 37.088388,32 L 22.160133,31.978069 C 22.160133,31.978069 26.997745,27.140456 26.997745,27.140456 C 18.528582,18.264221 13.291696,25.230495 11.500037,31.436501 z"
             style="fill:#404040;"/>
          </a>
         </g>
        </svg>
</svg>
