<?xml version="1.0" encoding="UTF-8" standalone="no"?>
<!DOCTYPE svg PUBLIC "-//W3C//DTD SVG 1.1//EN"
 "http://www.w3.org/Graphics/SVG/1.1/DTD/svg11.dtd">
<!-- Generated by graphviz version 2.46.1 (20210215.1649)
 -->
<!-- Title: include/SComponent/c_m3d_g_lin.h Pages: 1 -->
<!--zoomable 587 -->
<svg id="main" version="1.1" xmlns="http://www.w3.org/2000/svg" xmlns:xlink="http://www.w3.org/1999/xlink" xml:space="preserve" onload="init(evt)">
<style type="text/css"><![CDATA[
.edge:hover path { stroke: red; }
.edge:hover polygon { stroke: red; fill: red; }
]]></style>
<script type="text/javascript"><![CDATA[
var edges = document.getElementsByTagName('g');
if (edges && edges.length) {
  for (var i=0;i<edges.length;i++) {
    if (edges[i].id.substr(0,4)=='edge') {
      edges[i].setAttribute('class','edge');
    }
  }
}
]]></script>
        <defs>
                <circle id="rim" cx="0" cy="0" r="7"/>
                <circle id="rim2" cx="0" cy="0" r="3.5"/>
                <g id="zoomPlus">
                        <use xlink:href="#rim" fill="#404040">
                                <set attributeName="fill" to="#808080" begin="zoomplus.mouseover" end="zoomplus.mouseout"/>
                        </use>
                        <path d="M-4,0h8M0,-4v8" fill="none" stroke="white" stroke-width="1.5" pointer-events="none"/>
                </g>
                <g id="zoomMin">
                        <use xlink:href="#rim" fill="#404040">
                                <set attributeName="fill" to="#808080" begin="zoomminus.mouseover" end="zoomminus.mouseout"/>
                        </use>
                        <path d="M-4,0h8" fill="none" stroke="white" stroke-width="1.5" pointer-events="none"/>
                </g>
                <g id="dirArrow">
                        <path fill="none" stroke="white" stroke-width="1.5" d="M0,-3.0v7 M-2.5,-0.5L0,-3.0L2.5,-0.5"/>
                </g>
               <g id="resetDef">
                       <use xlink:href="#rim2" fill="#404040">
                               <set attributeName="fill" to="#808080" begin="reset.mouseover" end="reset.mouseout"/>
                       </use>
               </g>
        </defs>

<script type="text/javascript">
var viewWidth = 560;
var viewHeight = 587;
var sectionId = 'dynsection-0';
</script>
<script xlink:href="svgpan.js"/>
<svg id="graph" class="graph">
<g id="viewport">
<title>include/SComponent/c_m3d_g_lin.h</title>
<polygon fill="white" stroke="transparent" points="-4,4 -4,-583 556.49,-583 556.49,4 -4,4"/>
<!-- Node1 -->
<g id="node1" class="node">
<title>Node1</title>
<g id="a_node1"><a xlink:title=" ">
<polygon fill="#bfbfbf" stroke="black" points="186.5,-548.5 186.5,-578.5 293.5,-578.5 293.5,-548.5 186.5,-548.5"/>
<text text-anchor="start" x="194.5" y="-566.5" font-family="Helvetica,sans-Serif" font-size="10.00">include/SComponent</text>
<text text-anchor="middle" x="240" y="-555.5" font-family="Helvetica,sans-Serif" font-size="10.00">/c_m3d_g_lin.h</text>
</a>
</g>
</g>
<!-- Node2 -->
<g id="node2" class="node">
<title>Node2</title>
<g id="a_node2"><a xlink:href="c__xyz_8h.html" target="_top" xlink:title=" ">
<polygon fill="white" stroke="black" points="248.5,-492.5 248.5,-511.5 355.5,-511.5 355.5,-492.5 248.5,-492.5"/>
<text text-anchor="middle" x="302" y="-499.5" font-family="Helvetica,sans-Serif" font-size="10.00">SComponent/c_xyz.h</text>
</a>
</g>
</g>
<!-- Node1&#45;&gt;Node2 -->
<g id="edge1" class="edge">
<title>Node1&#45;&gt;Node2</title>
<path fill="none" stroke="midnightblue" d="M254.69,-548.4C263.98,-539.49 276,-527.95 285.6,-518.74"/>
<polygon fill="midnightblue" stroke="midnightblue" points="288.19,-521.11 292.98,-511.66 283.34,-516.06 288.19,-521.11"/>
</g>
<!-- Node4 -->
<g id="node4" class="node">
<title>Node4</title>
<g id="a_node4"><a xlink:href="global_8h.html" target="_top" xlink:title=" ">
<polygon fill="white" stroke="black" points="181,-380.5 181,-399.5 231,-399.5 231,-380.5 181,-380.5"/>
<text text-anchor="middle" x="206" y="-387.5" font-family="Helvetica,sans-Serif" font-size="10.00">global.h</text>
</a>
</g>
</g>
<!-- Node1&#45;&gt;Node4 -->
<g id="edge31" class="edge">
<title>Node1&#45;&gt;Node4</title>
<path fill="none" stroke="midnightblue" d="M237.22,-548.47C231.12,-517.7 216.57,-444.33 209.71,-409.7"/>
<polygon fill="midnightblue" stroke="midnightblue" points="213.07,-408.69 207.7,-399.56 206.21,-410.05 213.07,-408.69"/>
</g>
<!-- Node3 -->
<g id="node3" class="node">
<title>Node3</title>
<g id="a_node3"><a xlink:href="c__math_8h.html" target="_top" xlink:title=" ">
<polygon fill="white" stroke="black" points="265,-436.5 265,-455.5 381,-455.5 381,-436.5 265,-436.5"/>
<text text-anchor="middle" x="323" y="-443.5" font-family="Helvetica,sans-Serif" font-size="10.00">SComponent/c_math.h</text>
</a>
</g>
</g>
<!-- Node2&#45;&gt;Node3 -->
<g id="edge2" class="edge">
<title>Node2&#45;&gt;Node3</title>
<path fill="none" stroke="midnightblue" d="M305.47,-492.08C308.31,-484.77 312.43,-474.18 315.96,-465.1"/>
<polygon fill="midnightblue" stroke="midnightblue" points="319.23,-466.34 319.6,-455.75 312.71,-463.8 319.23,-466.34"/>
</g>
<!-- Node2&#45;&gt;Node4 -->
<g id="edge29" class="edge">
<title>Node2&#45;&gt;Node4</title>
<path fill="none" stroke="midnightblue" d="M292.45,-492.4C282.87,-483.6 267.87,-469.37 256,-456 242.18,-440.43 227.83,-421.44 218.07,-408.01"/>
<polygon fill="midnightblue" stroke="midnightblue" points="220.78,-405.79 212.11,-399.72 215.1,-409.88 220.78,-405.79"/>
</g>
<!-- Node17 -->
<g id="node17" class="node">
<title>Node17</title>
<g id="a_node17"><a xlink:href="mtx__vec_8h.html" target="_top" xlink:title=" ">
<polygon fill="white" stroke="black" points="423.5,-263 423.5,-282 484.5,-282 484.5,-263 423.5,-263"/>
<text text-anchor="middle" x="454" y="-270" font-family="Helvetica,sans-Serif" font-size="10.00">mtx_vec.h</text>
</a>
</g>
</g>
<!-- Node2&#45;&gt;Node17 -->
<g id="edge30" class="edge">
<title>Node2&#45;&gt;Node17</title>
<path fill="none" stroke="midnightblue" d="M331.35,-492.35C350.42,-485.35 374.54,-473.71 390,-456 432.64,-407.16 447.37,-328.16 452.03,-292.29"/>
<polygon fill="midnightblue" stroke="midnightblue" points="455.52,-292.6 453.21,-282.25 448.57,-291.78 455.52,-292.6"/>
</g>
<!-- Node3&#45;&gt;Node4 -->
<g id="edge3" class="edge">
<title>Node3&#45;&gt;Node4</title>
<path fill="none" stroke="midnightblue" d="M304.46,-436.44C285.38,-427.64 255.43,-413.81 233.56,-403.72"/>
<polygon fill="midnightblue" stroke="midnightblue" points="235,-400.53 224.45,-399.52 232.07,-406.88 235,-400.53"/>
</g>
<!-- Node5 -->
<g id="node5" class="node">
<title>Node5</title>
<g id="a_node5"><a xlink:href="types_8h.html" target="_top" xlink:title=" ">
<polygon fill="white" stroke="black" points="247.5,-0.5 247.5,-19.5 328.5,-19.5 328.5,-0.5 247.5,-0.5"/>
<text text-anchor="middle" x="288" y="-7.5" font-family="Helvetica,sans-Serif" font-size="10.00">dolphin/types.h</text>
</a>
</g>
</g>
<!-- Node4&#45;&gt;Node5 -->
<g id="edge4" class="edge">
<title>Node4&#45;&gt;Node5</title>
<path fill="none" stroke="midnightblue" d="M180.74,-386.61C125.73,-379.87 0,-355.5 0,-273.5 0,-273.5 0,-273.5 0,-137.5 0,-35.12 154.46,-14.85 237.15,-11.33"/>
<polygon fill="midnightblue" stroke="midnightblue" points="237.48,-14.82 247.35,-10.97 237.23,-7.83 237.48,-14.82"/>
</g>
<!-- Node6 -->
<g id="node6" class="node">
<title>Node6</title>
<g id="a_node6"><a xlink:href="AR_8h.html" target="_top" xlink:title=" ">
<polygon fill="white" stroke="black" points="34.5,-263 34.5,-282 83.5,-282 83.5,-263 34.5,-263"/>
<text text-anchor="middle" x="59" y="-270" font-family="Helvetica,sans-Serif" font-size="10.00">ar/AR.h</text>
</a>
</g>
</g>
<!-- Node4&#45;&gt;Node6 -->
<g id="edge5" class="edge">
<title>Node4&#45;&gt;Node6</title>
<path fill="none" stroke="midnightblue" d="M180.66,-382.97C157.74,-376.48 124.13,-364.25 101,-344 84.63,-329.66 72.84,-307.34 66,-291.66"/>
<polygon fill="midnightblue" stroke="midnightblue" points="69.09,-289.97 62.05,-282.05 62.61,-292.63 69.09,-289.97"/>
</g>
<!-- Node7 -->
<g id="node7" class="node">
<title>Node7</title>
<g id="a_node7"><a xlink:href="ARQ_8h.html" target="_top" xlink:title=" ">
<polygon fill="white" stroke="black" points="81,-196 81,-215 137,-215 137,-196 81,-196"/>
<text text-anchor="middle" x="109" y="-203" font-family="Helvetica,sans-Serif" font-size="10.00">ar/ARQ.h</text>
</a>
</g>
</g>
<!-- Node4&#45;&gt;Node7 -->
<g id="edge7" class="edge">
<title>Node4&#45;&gt;Node7</title>
<path fill="none" stroke="midnightblue" d="M192.2,-380.24C180.5,-372.14 164.05,-359.11 154,-344 128.82,-306.13 116.75,-253.05 111.84,-225.22"/>
<polygon fill="midnightblue" stroke="midnightblue" points="115.28,-224.56 110.2,-215.26 108.37,-225.69 115.28,-224.56"/>
</g>
<!-- Node8 -->
<g id="node8" class="node">
<title>Node8</title>
<g id="a_node8"><a xlink:href="mwcc_8h.html" target="_top" xlink:title=" ">
<polygon fill="white" stroke="black" points="362,-324.5 362,-343.5 412,-343.5 412,-324.5 362,-324.5"/>
<text text-anchor="middle" x="387" y="-331.5" font-family="Helvetica,sans-Serif" font-size="10.00">mwcc.h</text>
</a>
</g>
</g>
<!-- Node4&#45;&gt;Node8 -->
<g id="edge9" class="edge">
<title>Node4&#45;&gt;Node8</title>
<path fill="none" stroke="midnightblue" d="M231.17,-381.49C262.55,-372.13 316.38,-356.07 351.83,-345.49"/>
<polygon fill="midnightblue" stroke="midnightblue" points="353.17,-348.74 361.76,-342.53 351.17,-342.04 353.17,-348.74"/>
</g>
<!-- Node9 -->
<g id="node9" class="node">
<title>Node9</title>
<g id="a_node9"><a xlink:href="OS_8h.html" target="_top" xlink:title=" ">
<polygon fill="white" stroke="black" points="134,-129 134,-148 186,-148 186,-129 134,-129"/>
<text text-anchor="middle" x="160" y="-136" font-family="Helvetica,sans-Serif" font-size="10.00">os/OS.h</text>
</a>
</g>
</g>
<!-- Node4&#45;&gt;Node9 -->
<g id="edge10" class="edge">
<title>Node4&#45;&gt;Node9</title>
<path fill="none" stroke="midnightblue" d="M204.42,-380.41C197.85,-344.8 172.68,-208.25 163.43,-158.11"/>
<polygon fill="midnightblue" stroke="midnightblue" points="166.83,-157.25 161.58,-148.05 159.95,-158.52 166.83,-157.25"/>
</g>
<!-- Node11 -->
<g id="node11" class="node">
<title>Node11</title>
<g id="a_node11"><a xlink:href="variables_8h.html" target="_top" xlink:title=" ">
<polygon fill="white" stroke="black" points="280.5,-324.5 280.5,-343.5 343.5,-343.5 343.5,-324.5 280.5,-324.5"/>
<text text-anchor="middle" x="312" y="-331.5" font-family="Helvetica,sans-Serif" font-size="10.00">variables.h</text>
</a>
</g>
</g>
<!-- Node4&#45;&gt;Node11 -->
<g id="edge14" class="edge">
<title>Node4&#45;&gt;Node11</title>
<path fill="none" stroke="midnightblue" d="M223.03,-380.32C240.03,-371.66 266.38,-358.24 285.99,-348.25"/>
<polygon fill="midnightblue" stroke="midnightblue" points="287.69,-351.31 295.01,-343.65 284.51,-345.08 287.69,-351.31"/>
</g>
<!-- Node6&#45;&gt;Node5 -->
<g id="edge6" class="edge">
<title>Node6&#45;&gt;Node5</title>
<path fill="none" stroke="midnightblue" d="M57.75,-262.58C53.72,-229.84 44.47,-115.19 103,-56 121.61,-37.18 189.3,-24.3 237.41,-17.29"/>
<polygon fill="midnightblue" stroke="midnightblue" points="237.94,-20.75 247.35,-15.88 236.96,-13.82 237.94,-20.75"/>
</g>
<!-- Node7&#45;&gt;Node5 -->
<g id="edge8" class="edge">
<title>Node7&#45;&gt;Node5</title>
<path fill="none" stroke="midnightblue" d="M106.8,-195.87C101,-170.88 88,-97.62 123,-56 137.73,-38.49 194.54,-25.75 237.42,-18.39"/>
<polygon fill="midnightblue" stroke="midnightblue" points="238.14,-21.81 247.43,-16.72 236.99,-14.91 238.14,-21.81"/>
</g>
<!-- Node9&#45;&gt;Node5 -->
<g id="edge11" class="edge">
<title>Node9&#45;&gt;Node5</title>
<path fill="none" stroke="midnightblue" d="M152.36,-128.81C139.35,-112.93 115.9,-78.77 133,-56 145.68,-39.11 197.16,-26.51 237.36,-19"/>
<polygon fill="midnightblue" stroke="midnightblue" points="238.08,-22.43 247.3,-17.21 236.84,-15.54 238.08,-22.43"/>
</g>
<!-- Node10 -->
<g id="node10" class="node">
<title>Node10</title>
<g id="a_node10"><a xlink:href="dvd_8h.html" target="_top" xlink:title=" ">
<polygon fill="white" stroke="black" points="142.5,-62 142.5,-81 201.5,-81 201.5,-62 142.5,-62"/>
<text text-anchor="middle" x="172" y="-69" font-family="Helvetica,sans-Serif" font-size="10.00">dvd/dvd.h</text>
</a>
</g>
</g>
<!-- Node9&#45;&gt;Node10 -->
<g id="edge12" class="edge">
<title>Node9&#45;&gt;Node10</title>
<path fill="none" stroke="midnightblue" d="M161.62,-128.73C163.38,-119.18 166.26,-103.62 168.53,-91.28"/>
<polygon fill="midnightblue" stroke="midnightblue" points="172.03,-91.6 170.41,-81.13 165.15,-90.33 172.03,-91.6"/>
</g>
<!-- Node10&#45;&gt;Node5 -->
<g id="edge13" class="edge">
<title>Node10&#45;&gt;Node5</title>
<path fill="none" stroke="midnightblue" d="M188.62,-61.98C207.92,-52.08 239.96,-35.64 262.43,-24.12"/>
<polygon fill="midnightblue" stroke="midnightblue" points="264.11,-27.19 271.41,-19.51 260.92,-20.96 264.11,-27.19"/>
</g>
<!-- Node12 -->
<g id="node12" class="node">
<title>Node12</title>
<g id="a_node12"><a xlink:href="JSUList_8h.html" target="_top" xlink:title=" ">
<polygon fill="white" stroke="black" points="220,-56.5 220,-86.5 356,-86.5 356,-56.5 220,-56.5"/>
<text text-anchor="start" x="228" y="-74.5" font-family="Helvetica,sans-Serif" font-size="10.00">JSystem/JSupport/JSUList</text>
<text text-anchor="middle" x="288" y="-63.5" font-family="Helvetica,sans-Serif" font-size="10.00">/JSUList.h</text>
</a>
</g>
</g>
<!-- Node11&#45;&gt;Node12 -->
<g id="edge15" class="edge">
<title>Node11&#45;&gt;Node12</title>
<path fill="none" stroke="midnightblue" d="M302.73,-324.44C293.9,-315.89 280.7,-302.04 272,-288 239.32,-235.28 238.49,-215.78 233,-154 231.78,-140.28 227.46,-135.61 233,-123 238.17,-111.22 247.6,-100.99 257.2,-92.87"/>
<polygon fill="midnightblue" stroke="midnightblue" points="259.53,-95.5 265.22,-86.56 255.2,-90 259.53,-95.5"/>
</g>
<!-- Node13 -->
<g id="node13" class="node">
<title>Node13</title>
<g id="a_node13"><a xlink:href="JUTXfb_8h.html" target="_top" xlink:title=" ">
<polygon fill="white" stroke="black" points="280.5,-257.5 280.5,-287.5 405.5,-287.5 405.5,-257.5 280.5,-257.5"/>
<text text-anchor="start" x="288.5" y="-275.5" font-family="Helvetica,sans-Serif" font-size="10.00">JSystem/JUtility/JUTXfb</text>
<text text-anchor="middle" x="343" y="-264.5" font-family="Helvetica,sans-Serif" font-size="10.00">/JUTXfb.h</text>
</a>
</g>
</g>
<!-- Node11&#45;&gt;Node13 -->
<g id="edge17" class="edge">
<title>Node11&#45;&gt;Node13</title>
<path fill="none" stroke="midnightblue" d="M316.44,-324.48C320.25,-317.17 325.91,-306.3 331.03,-296.47"/>
<polygon fill="midnightblue" stroke="midnightblue" points="334.18,-298.01 335.69,-287.52 327.97,-294.77 334.18,-298.01"/>
</g>
<!-- Node11&#45;&gt;Node17 -->
<g id="edge27" class="edge">
<title>Node11&#45;&gt;Node17</title>
<path fill="none" stroke="midnightblue" d="M332.35,-324.48C356.39,-314.4 396.6,-297.55 424.16,-286"/>
<polygon fill="midnightblue" stroke="midnightblue" points="425.82,-289.1 433.69,-282.01 423.12,-282.65 425.82,-289.1"/>
</g>
<!-- Node12&#45;&gt;Node5 -->
<g id="edge16" class="edge">
<title>Node12&#45;&gt;Node5</title>
<path fill="none" stroke="midnightblue" d="M288,-56.4C288,-48.47 288,-38.46 288,-29.86"/>
<polygon fill="midnightblue" stroke="midnightblue" points="291.5,-29.66 288,-19.66 284.5,-29.66 291.5,-29.66"/>
</g>
<!-- Node13&#45;&gt;Node5 -->
<g id="edge24" class="edge">
<title>Node13&#45;&gt;Node5</title>
<path fill="none" stroke="midnightblue" d="M365.84,-257.37C377.96,-248.53 391.79,-235.98 399,-221 417.89,-181.72 410.17,-166 403,-123 397.82,-91.95 400.84,-79.6 380,-56 366.6,-40.82 346.91,-30.24 329.18,-23.17"/>
<polygon fill="midnightblue" stroke="midnightblue" points="330.18,-19.81 319.58,-19.6 327.73,-26.37 330.18,-19.81"/>
</g>
<!-- Node14 -->
<g id="node14" class="node">
<title>Node14</title>
<g id="a_node14"><a xlink:href="JKRHeap_8h.html" target="_top" xlink:title=" ">
<polygon fill="white" stroke="black" points="254,-190.5 254,-220.5 390,-220.5 390,-190.5 254,-190.5"/>
<text text-anchor="start" x="262" y="-208.5" font-family="Helvetica,sans-Serif" font-size="10.00">JSystem/JKernel/JKRHeap</text>
<text text-anchor="middle" x="322" y="-197.5" font-family="Helvetica,sans-Serif" font-size="10.00">/JKRHeap.h</text>
</a>
</g>
</g>
<!-- Node13&#45;&gt;Node14 -->
<g id="edge18" class="edge">
<title>Node13&#45;&gt;Node14</title>
<path fill="none" stroke="midnightblue" d="M338.44,-257.4C335.88,-249.47 332.62,-239.38 329.68,-230.27"/>
<polygon fill="midnightblue" stroke="midnightblue" points="332.95,-229.02 326.55,-220.58 326.29,-231.17 332.95,-229.02"/>
</g>
<!-- Node16 -->
<g id="node16" class="node">
<title>Node16</title>
<g id="a_node16"><a xlink:href="GX_8h.html" target="_top" xlink:title=" ">
<polygon fill="white" stroke="black" points="488.5,-129 488.5,-148 539.5,-148 539.5,-129 488.5,-129"/>
<text text-anchor="middle" x="514" y="-136" font-family="Helvetica,sans-Serif" font-size="10.00">gx/GX.h</text>
</a>
</g>
</g>
<!-- Node13&#45;&gt;Node16 -->
<g id="edge25" class="edge">
<title>Node13&#45;&gt;Node16</title>
<path fill="none" stroke="midnightblue" d="M374.62,-257.38C393.34,-248.3 417.02,-235.5 436,-221 461.31,-201.66 485.95,-174 500.55,-156.39"/>
<polygon fill="midnightblue" stroke="midnightblue" points="503.62,-158.17 507.22,-148.2 498.19,-153.75 503.62,-158.17"/>
</g>
<!-- Node14&#45;&gt;Node4 -->
<g id="edge23" class="edge">
<title>Node14&#45;&gt;Node4</title>
<path fill="none" stroke="midnightblue" d="M305.32,-220.82C294.88,-230.36 281.63,-243.56 272,-257 245.1,-294.52 223.37,-344.61 212.86,-370.99"/>
<polygon fill="midnightblue" stroke="midnightblue" points="209.54,-369.87 209.17,-380.45 216.07,-372.41 209.54,-369.87"/>
</g>
<!-- Node14&#45;&gt;Node5 -->
<g id="edge22" class="edge">
<title>Node14&#45;&gt;Node5</title>
<path fill="none" stroke="midnightblue" d="M360.66,-190.37C376.77,-182.34 393.83,-170.52 403,-154 409.69,-141.95 405.27,-136.59 403,-123 397.82,-91.95 400.84,-79.6 380,-56 366.6,-40.82 346.91,-30.24 329.18,-23.17"/>
<polygon fill="midnightblue" stroke="midnightblue" points="330.18,-19.81 319.58,-19.6 327.73,-26.37 330.18,-19.81"/>
</g>
<!-- Node15 -->
<g id="node15" class="node">
<title>Node15</title>
<g id="a_node15"><a xlink:href="JKRDisposer_8h.html" target="_top" xlink:title=" ">
<polygon fill="white" stroke="black" points="242.5,-123.5 242.5,-153.5 393.5,-153.5 393.5,-123.5 242.5,-123.5"/>
<text text-anchor="start" x="250.5" y="-141.5" font-family="Helvetica,sans-Serif" font-size="10.00">JSystem/JKernel/JKRDisposer</text>
<text text-anchor="middle" x="318" y="-130.5" font-family="Helvetica,sans-Serif" font-size="10.00">/JKRDisposer.h</text>
</a>
</g>
</g>
<!-- Node14&#45;&gt;Node15 -->
<g id="edge19" class="edge">
<title>Node14&#45;&gt;Node15</title>
<path fill="none" stroke="midnightblue" d="M321.13,-190.4C320.65,-182.56 320.04,-172.6 319.48,-163.57"/>
<polygon fill="midnightblue" stroke="midnightblue" points="322.97,-163.34 318.87,-153.58 315.99,-163.77 322.97,-163.34"/>
</g>
<!-- Node15&#45;&gt;Node5 -->
<g id="edge21" class="edge">
<title>Node15&#45;&gt;Node5</title>
<path fill="none" stroke="midnightblue" d="M336.01,-123.38C354.44,-107.13 378.58,-79.66 365,-56 356.38,-40.99 340.61,-30.5 325.57,-23.46"/>
<polygon fill="midnightblue" stroke="midnightblue" points="326.94,-20.24 316.37,-19.51 324.18,-26.67 326.94,-20.24"/>
</g>
<!-- Node15&#45;&gt;Node12 -->
<g id="edge20" class="edge">
<title>Node15&#45;&gt;Node12</title>
<path fill="none" stroke="midnightblue" d="M311.49,-123.4C307.76,-115.3 302.97,-104.94 298.7,-95.69"/>
<polygon fill="midnightblue" stroke="midnightblue" points="301.87,-94.19 294.5,-86.58 295.51,-97.12 301.87,-94.19"/>
</g>
<!-- Node16&#45;&gt;Node5 -->
<g id="edge26" class="edge">
<title>Node16&#45;&gt;Node5</title>
<path fill="none" stroke="midnightblue" d="M512.3,-128.84C508.53,-112.07 497.85,-75.13 474,-56 435.61,-25.21 379.39,-14.99 338.81,-11.84"/>
<polygon fill="midnightblue" stroke="midnightblue" points="338.8,-8.33 328.59,-11.17 338.34,-15.31 338.8,-8.33"/>
</g>
<!-- Node17&#45;&gt;Node5 -->
<g id="edge28" class="edge">
<title>Node17&#45;&gt;Node5</title>
<path fill="none" stroke="midnightblue" d="M466.6,-262.94C496.67,-241.37 568.67,-182.25 549,-123 537.29,-87.74 530.28,-76.05 499,-56 450.58,-24.97 384.34,-14.97 339.07,-11.94"/>
<polygon fill="midnightblue" stroke="midnightblue" points="339.08,-8.44 328.9,-11.36 338.68,-15.43 339.08,-8.44"/>
</g>
</g>
</svg>
        <g id="navigator" transform="translate(0 0)" fill="#404254">
                <rect fill="#f2f5e9" fill-opacity="0.5" stroke="#606060" stroke-width=".5" x="0" y="0" width="60" height="60"/>
                <use id="zoomplus" xlink:href="#zoomPlus" x="17" y="9" onmousedown="handleZoom(evt,'in')"/>
                <use id="zoomminus" xlink:href="#zoomMin" x="42" y="9" onmousedown="handleZoom(evt,'out')"/>
                <use id="reset" xlink:href="#resetDef" x="30" y="36" onmousedown="handleReset()"/>
                <g id="arrowUp" xlink:href="#dirArrow" transform="translate(30 24)" onmousedown="handlePan(0,-1)">
                  <use xlink:href="#rim" fill="#404040">
                        <set attributeName="fill" to="#808080" begin="arrowUp.mouseover" end="arrowUp.mouseout"/>
                  </use>
                  <path fill="none" stroke="white" stroke-width="1.5" d="M0,-3.0v7 M-2.5,-0.5L0,-3.0L2.5,-0.5"/>
                </g>
                <g id="arrowRight" xlink:href="#dirArrow" transform="rotate(90) translate(36 -43)" onmousedown="handlePan(1,0)">
                  <use xlink:href="#rim" fill="#404040">
                        <set attributeName="fill" to="#808080" begin="arrowRight.mouseover" end="arrowRight.mouseout"/>
                  </use>
                  <path fill="none" stroke="white" stroke-width="1.5" d="M0,-3.0v7 M-2.5,-0.5L0,-3.0L2.5,-0.5"/>
                </g>
                <g id="arrowDown" xlink:href="#dirArrow" transform="rotate(180) translate(-30 -48)" onmousedown="handlePan(0,1)">
                  <use xlink:href="#rim" fill="#404040">
                        <set attributeName="fill" to="#808080" begin="arrowDown.mouseover" end="arrowDown.mouseout"/>
                  </use>
                  <path fill="none" stroke="white" stroke-width="1.5" d="M0,-3.0v7 M-2.5,-0.5L0,-3.0L2.5,-0.5"/>
                </g>
                <g id="arrowLeft" xlink:href="#dirArrow" transform="rotate(270) translate(-36 17)" onmousedown="handlePan(-1,0)">
                  <use xlink:href="#rim" fill="#404040">
                        <set attributeName="fill" to="#808080" begin="arrowLeft.mouseover" end="arrowLeft.mouseout"/>
                  </use>
                  <path fill="none" stroke="white" stroke-width="1.5" d="M0,-3.0v7 M-2.5,-0.5L0,-3.0L2.5,-0.5"/>
                </g>
        </g>
        <svg viewBox="0 0 15 15" width="100%" height="30px" preserveAspectRatio="xMaxYMin meet">
         <g id="arrow_out" transform="scale(0.3 0.3)">
          <a xlink:href="c__m3d__g__lin_8h__incl_org.svg" target="_base">
           <rect id="button" ry="5" rx="5" y="6" x="6" height="38" width="38"
                fill="#f2f5e9" fill-opacity="0.5" stroke="#606060" stroke-width="1.0"/>
           <path id="arrow"
             d="M 11.500037,31.436501 C 11.940474,20.09759 22.043105,11.32322 32.158766,21.979434 L 37.068811,17.246167 C 37.068811,17.246167 37.088388,32 37.088388,32 L 22.160133,31.978069 C 22.160133,31.978069 26.997745,27.140456 26.997745,27.140456 C 18.528582,18.264221 13.291696,25.230495 11.500037,31.436501 z"
             style="fill:#404040;"/>
          </a>
         </g>
        </svg>
</svg>
