<?xml version="1.0" encoding="UTF-8" standalone="no"?>
<!DOCTYPE svg PUBLIC "-//W3C//DTD SVG 1.1//EN"
 "http://www.w3.org/Graphics/SVG/1.1/DTD/svg11.dtd">
<!-- Generated by graphviz version 2.46.0 (20210122.1329)
 -->
<!-- Title: libs/SSystem/SComponent/c_m3d_g_tri.cpp Pages: 1 -->
<!--zoomable 721 -->
<svg id="main" version="1.1" xmlns="http://www.w3.org/2000/svg" xmlns:xlink="http://www.w3.org/1999/xlink" xml:space="preserve" onload="init(evt)">
<style type="text/css"><![CDATA[
.edge:hover path { stroke: red; }
.edge:hover polygon { stroke: red; fill: red; }
]]></style>
<script type="text/javascript"><![CDATA[
var edges = document.getElementsByTagName('g');
if (edges && edges.length) {
  for (var i=0;i<edges.length;i++) {
    if (edges[i].id.substr(0,4)=='edge') {
      edges[i].setAttribute('class','edge');
    }
  }
}
]]></script>
        <defs>
                <circle id="rim" cx="0" cy="0" r="7"/>
                <circle id="rim2" cx="0" cy="0" r="3.5"/>
                <g id="zoomPlus">
                        <use xlink:href="#rim" fill="#404040">
                                <set attributeName="fill" to="#808080" begin="zoomplus.mouseover" end="zoomplus.mouseout"/>
                        </use>
                        <path d="M-4,0h8M0,-4v8" fill="none" stroke="white" stroke-width="1.5" pointer-events="none"/>
                </g>
                <g id="zoomMin">
                        <use xlink:href="#rim" fill="#404040">
                                <set attributeName="fill" to="#808080" begin="zoomminus.mouseover" end="zoomminus.mouseout"/>
                        </use>
                        <path d="M-4,0h8" fill="none" stroke="white" stroke-width="1.5" pointer-events="none"/>
                </g>
                <g id="dirArrow">
                        <path fill="none" stroke="white" stroke-width="1.5" d="M0,-3.0v7 M-2.5,-0.5L0,-3.0L2.5,-0.5"/>
                </g>
               <g id="resetDef">
                       <use xlink:href="#rim2" fill="#404040">
                               <set attributeName="fill" to="#808080" begin="reset.mouseover" end="reset.mouseout"/>
                       </use>
               </g>
        </defs>

<script type="text/javascript">
var viewWidth = 701;
var viewHeight = 721;
var sectionId = 'dynsection-0';
</script>
<script xlink:href="svgpan.js"/>
<svg id="graph" class="graph">
<g id="viewport">
<title>libs/SSystem/SComponent/c_m3d_g_tri.cpp</title>
<polygon fill="white" stroke="transparent" points="-4,4 -4,-717 697,-717 697,4 -4,4"/>
<!-- Node1 -->
<g id="node1" class="node">
<title>Node1</title>
<g id="a_node1"><a xlink:title=" ">
<polygon fill="#bfbfbf" stroke="black" points="411.5,-682.5 411.5,-712.5 545.5,-712.5 545.5,-682.5 411.5,-682.5"/>
<text text-anchor="start" x="419.5" y="-700.5" font-family="Helvetica,sans-Serif" font-size="10.00">libs/SSystem/SComponent</text>
<text text-anchor="middle" x="478.5" y="-689.5" font-family="Helvetica,sans-Serif" font-size="10.00">/c_m3d_g_tri.cpp</text>
</a>
</g>
</g>
<!-- Node2 -->
<g id="node2" class="node">
<title>Node2</title>
<g id="a_node2"><a xlink:href="c__m3d__g__tri_8h.html" target="_top" xlink:title=" ">
<polygon fill="white" stroke="black" points="358.5,-615.5 358.5,-645.5 474.5,-645.5 474.5,-615.5 358.5,-615.5"/>
<text text-anchor="start" x="366.5" y="-633.5" font-family="Helvetica,sans-Serif" font-size="10.00">SComponent/c_m3d_g</text>
<text text-anchor="middle" x="416.5" y="-622.5" font-family="Helvetica,sans-Serif" font-size="10.00">_tri.h</text>
</a>
</g>
</g>
<!-- Node1&#45;&gt;Node2 -->
<g id="edge1" class="edge">
<title>Node1&#45;&gt;Node2</title>
<path fill="none" stroke="midnightblue" d="M465.05,-682.4C456.84,-673.79 446.19,-662.63 436.95,-652.94"/>
<polygon fill="midnightblue" stroke="midnightblue" points="439.36,-650.4 429.93,-645.58 434.3,-655.23 439.36,-650.4"/>
</g>
<!-- Node21 -->
<g id="node21" class="node">
<title>Node21</title>
<g id="a_node21"><a xlink:href="c__m3d_8h.html" target="_top" xlink:title=" ">
<polygon fill="white" stroke="black" points="580,-492.5 580,-511.5 693,-511.5 693,-492.5 580,-492.5"/>
<text text-anchor="middle" x="636.5" y="-499.5" font-family="Helvetica,sans-Serif" font-size="10.00">SComponent/c_m3d.h</text>
</a>
</g>
</g>
<!-- Node1&#45;&gt;Node21 -->
<g id="edge39" class="edge">
<title>Node1&#45;&gt;Node21</title>
<path fill="none" stroke="midnightblue" d="M490.12,-682.27C518.75,-647.2 592.59,-556.77 623.05,-519.47"/>
<polygon fill="midnightblue" stroke="midnightblue" points="625.88,-521.54 629.5,-511.58 620.46,-517.11 625.88,-521.54"/>
</g>
<!-- Node3 -->
<g id="node3" class="node">
<title>Node3</title>
<g id="a_node3"><a xlink:href="c__m3d__g__cyl_8h.html" target="_top" xlink:title=" ">
<polygon fill="white" stroke="black" points="186.5,-548.5 186.5,-578.5 302.5,-578.5 302.5,-548.5 186.5,-548.5"/>
<text text-anchor="start" x="194.5" y="-566.5" font-family="Helvetica,sans-Serif" font-size="10.00">SComponent/c_m3d_g</text>
<text text-anchor="middle" x="244.5" y="-555.5" font-family="Helvetica,sans-Serif" font-size="10.00">_cyl.h</text>
</a>
</g>
</g>
<!-- Node2&#45;&gt;Node3 -->
<g id="edge2" class="edge">
<title>Node2&#45;&gt;Node3</title>
<path fill="none" stroke="midnightblue" d="M379.18,-615.4C353.37,-605.64 318.84,-592.59 291.21,-582.15"/>
<polygon fill="midnightblue" stroke="midnightblue" points="292.34,-578.84 281.75,-578.58 289.87,-585.39 292.34,-578.84"/>
</g>
<!-- Node4 -->
<g id="node4" class="node">
<title>Node4</title>
<g id="a_node4"><a xlink:href="c__xyz_8h.html" target="_top" xlink:title=" ">
<polygon fill="white" stroke="black" points="277,-492.5 277,-511.5 384,-511.5 384,-492.5 277,-492.5"/>
<text text-anchor="middle" x="330.5" y="-499.5" font-family="Helvetica,sans-Serif" font-size="10.00">SComponent/c_xyz.h</text>
</a>
</g>
</g>
<!-- Node2&#45;&gt;Node4 -->
<g id="edge37" class="edge">
<title>Node2&#45;&gt;Node4</title>
<path fill="none" stroke="midnightblue" d="M390.05,-615.5C376.02,-606.77 359.63,-594.3 349.5,-579 338.14,-561.85 333.57,-538.43 331.73,-522.14"/>
<polygon fill="midnightblue" stroke="midnightblue" points="335.18,-521.38 330.82,-511.73 328.21,-521.99 335.18,-521.38"/>
</g>
<!-- Node6 -->
<g id="node6" class="node">
<title>Node6</title>
<g id="a_node6"><a xlink:href="global_8h.html" target="_top" xlink:title=" ">
<polygon fill="white" stroke="black" points="399.5,-380.5 399.5,-399.5 449.5,-399.5 449.5,-380.5 399.5,-380.5"/>
<text text-anchor="middle" x="424.5" y="-387.5" font-family="Helvetica,sans-Serif" font-size="10.00">global.h</text>
</a>
</g>
</g>
<!-- Node2&#45;&gt;Node6 -->
<g id="edge38" class="edge">
<title>Node2&#45;&gt;Node6</title>
<path fill="none" stroke="midnightblue" d="M446.19,-615.34C460.24,-606.92 475.64,-594.77 483.5,-579 513.21,-519.39 463.61,-441.71 438.14,-407.93"/>
<polygon fill="midnightblue" stroke="midnightblue" points="440.58,-405.36 431.69,-399.61 435.05,-409.66 440.58,-405.36"/>
</g>
<!-- Node20 -->
<g id="node20" class="node">
<title>Node20</title>
<g id="a_node20"><a xlink:href="c__m3d__g__pla_8h.html" target="_top" xlink:title=" ">
<polygon fill="white" stroke="black" points="358.5,-548.5 358.5,-578.5 474.5,-578.5 474.5,-548.5 358.5,-548.5"/>
<text text-anchor="start" x="366.5" y="-566.5" font-family="Helvetica,sans-Serif" font-size="10.00">SComponent/c_m3d_g</text>
<text text-anchor="middle" x="416.5" y="-555.5" font-family="Helvetica,sans-Serif" font-size="10.00">_pla.h</text>
</a>
</g>
</g>
<!-- Node2&#45;&gt;Node20 -->
<g id="edge34" class="edge">
<title>Node2&#45;&gt;Node20</title>
<path fill="none" stroke="midnightblue" d="M416.5,-615.4C416.5,-607.64 416.5,-597.81 416.5,-588.86"/>
<polygon fill="midnightblue" stroke="midnightblue" points="420,-588.58 416.5,-578.58 413,-588.58 420,-588.58"/>
</g>
<!-- Node3&#45;&gt;Node4 -->
<g id="edge3" class="edge">
<title>Node3&#45;&gt;Node4</title>
<path fill="none" stroke="midnightblue" d="M264.88,-548.4C278.41,-539.04 296.11,-526.79 309.72,-517.38"/>
<polygon fill="midnightblue" stroke="midnightblue" points="311.75,-520.23 317.99,-511.66 307.77,-514.47 311.75,-520.23"/>
</g>
<!-- Node3&#45;&gt;Node6 -->
<g id="edge33" class="edge">
<title>Node3&#45;&gt;Node6</title>
<path fill="none" stroke="midnightblue" d="M242.8,-548.28C240.54,-522.45 239.75,-467.57 268.5,-436 299.25,-402.24 353.56,-393.19 389.29,-391.09"/>
<polygon fill="midnightblue" stroke="midnightblue" points="389.45,-394.59 399.29,-390.66 389.15,-387.59 389.45,-394.59"/>
</g>
<!-- Node5 -->
<g id="node5" class="node">
<title>Node5</title>
<g id="a_node5"><a xlink:href="c__math_8h.html" target="_top" xlink:title=" ">
<polygon fill="white" stroke="black" points="277.5,-436.5 277.5,-455.5 393.5,-455.5 393.5,-436.5 277.5,-436.5"/>
<text text-anchor="middle" x="335.5" y="-443.5" font-family="Helvetica,sans-Serif" font-size="10.00">SComponent/c_math.h</text>
</a>
</g>
</g>
<!-- Node4&#45;&gt;Node5 -->
<g id="edge4" class="edge">
<title>Node4&#45;&gt;Node5</title>
<path fill="none" stroke="midnightblue" d="M331.33,-492.08C331.98,-485.01 332.92,-474.86 333.74,-465.99"/>
<polygon fill="midnightblue" stroke="midnightblue" points="337.25,-466.03 334.69,-455.75 330.28,-465.39 337.25,-466.03"/>
</g>
<!-- Node4&#45;&gt;Node6 -->
<g id="edge30" class="edge">
<title>Node4&#45;&gt;Node6</title>
<path fill="none" stroke="midnightblue" d="M351.89,-492.41C367.9,-484.97 389.24,-472.76 402.5,-456 413.11,-442.58 418.74,-423.76 421.64,-409.83"/>
<polygon fill="midnightblue" stroke="midnightblue" points="425.1,-410.35 423.42,-399.89 418.21,-409.12 425.1,-410.35"/>
</g>
<!-- Node19 -->
<g id="node19" class="node">
<title>Node19</title>
<g id="a_node19"><a xlink:href="mtx__vec_8h.html" target="_top" xlink:title=" ">
<polygon fill="white" stroke="black" points="0,-380.5 0,-399.5 61,-399.5 61,-380.5 0,-380.5"/>
<text text-anchor="middle" x="30.5" y="-387.5" font-family="Helvetica,sans-Serif" font-size="10.00">mtx_vec.h</text>
</a>
</g>
</g>
<!-- Node4&#45;&gt;Node19 -->
<g id="edge31" class="edge">
<title>Node4&#45;&gt;Node19</title>
<path fill="none" stroke="midnightblue" d="M306.96,-492.37C253.84,-472.89 124.53,-425.48 63.47,-403.09"/>
<polygon fill="midnightblue" stroke="midnightblue" points="64.52,-399.75 53.93,-399.59 62.11,-406.32 64.52,-399.75"/>
</g>
<!-- Node5&#45;&gt;Node6 -->
<g id="edge5" class="edge">
<title>Node5&#45;&gt;Node6</title>
<path fill="none" stroke="midnightblue" d="M349.8,-436.32C363.68,-427.9 384.99,-414.97 401.3,-405.07"/>
<polygon fill="midnightblue" stroke="midnightblue" points="403.5,-407.83 410.24,-399.65 399.87,-401.85 403.5,-407.83"/>
</g>
<!-- Node7 -->
<g id="node7" class="node">
<title>Node7</title>
<g id="a_node7"><a xlink:href="types_8h.html" target="_top" xlink:title=" ">
<polygon fill="white" stroke="black" points="350,-0.5 350,-19.5 431,-19.5 431,-0.5 350,-0.5"/>
<text text-anchor="middle" x="390.5" y="-7.5" font-family="Helvetica,sans-Serif" font-size="10.00">dolphin/types.h</text>
</a>
</g>
</g>
<!-- Node6&#45;&gt;Node7 -->
<g id="edge6" class="edge">
<title>Node6&#45;&gt;Node7</title>
<path fill="none" stroke="midnightblue" d="M442.63,-380.46C456.88,-372.83 476.17,-360.35 487.5,-344 560.99,-237.98 598.69,-160.82 523.5,-56 504.88,-30.04 470.47,-18.87 441.32,-14.14"/>
<polygon fill="midnightblue" stroke="midnightblue" points="441.65,-10.66 431.26,-12.73 440.67,-17.59 441.65,-10.66"/>
</g>
<!-- Node8 -->
<g id="node8" class="node">
<title>Node8</title>
<g id="a_node8"><a xlink:href="AR_8h.html" target="_top" xlink:title=" ">
<polygon fill="white" stroke="black" points="577,-263 577,-282 626,-282 626,-263 577,-263"/>
<text text-anchor="middle" x="601.5" y="-270" font-family="Helvetica,sans-Serif" font-size="10.00">ar/AR.h</text>
</a>
</g>
</g>
<!-- Node6&#45;&gt;Node8 -->
<g id="edge7" class="edge">
<title>Node6&#45;&gt;Node8</title>
<path fill="none" stroke="midnightblue" d="M449.58,-386.41C479.45,-382.17 529.47,-371.28 562.5,-344 578.97,-330.39 589.67,-307.92 595.62,-292.01"/>
<polygon fill="midnightblue" stroke="midnightblue" points="599.05,-292.83 599,-282.24 592.43,-290.55 599.05,-292.83"/>
</g>
<!-- Node9 -->
<g id="node9" class="node">
<title>Node9</title>
<g id="a_node9"><a xlink:href="ARQ_8h.html" target="_top" xlink:title=" ">
<polygon fill="white" stroke="black" points="368.5,-263 368.5,-282 424.5,-282 424.5,-263 368.5,-263"/>
<text text-anchor="middle" x="396.5" y="-270" font-family="Helvetica,sans-Serif" font-size="10.00">ar/ARQ.h</text>
</a>
</g>
</g>
<!-- Node6&#45;&gt;Node9 -->
<g id="edge9" class="edge">
<title>Node6&#45;&gt;Node9</title>
<path fill="none" stroke="midnightblue" d="M418.81,-380.47C413.31,-371.72 405.27,-357.52 401.5,-344 396.77,-327.02 395.77,-306.91 395.81,-292.52"/>
<polygon fill="midnightblue" stroke="midnightblue" points="399.31,-292.44 396.01,-282.37 392.31,-292.3 399.31,-292.44"/>
</g>
<!-- Node10 -->
<g id="node10" class="node">
<title>Node10</title>
<g id="a_node10"><a xlink:href="mwcc_8h.html" target="_top" xlink:title=" ">
<polygon fill="white" stroke="black" points="410.5,-324.5 410.5,-343.5 460.5,-343.5 460.5,-324.5 410.5,-324.5"/>
<text text-anchor="middle" x="435.5" y="-331.5" font-family="Helvetica,sans-Serif" font-size="10.00">mwcc.h</text>
</a>
</g>
</g>
<!-- Node6&#45;&gt;Node10 -->
<g id="edge11" class="edge">
<title>Node6&#45;&gt;Node10</title>
<path fill="none" stroke="midnightblue" d="M426.32,-380.08C427.77,-372.93 429.87,-362.64 431.69,-353.69"/>
<polygon fill="midnightblue" stroke="midnightblue" points="435.15,-354.25 433.72,-343.75 428.29,-352.85 435.15,-354.25"/>
</g>
<!-- Node11 -->
<g id="node11" class="node">
<title>Node11</title>
<g id="a_node11"><a xlink:href="OS_8h.html" target="_top" xlink:title=" ">
<polygon fill="white" stroke="black" points="462.5,-129 462.5,-148 514.5,-148 514.5,-129 462.5,-129"/>
<text text-anchor="middle" x="488.5" y="-136" font-family="Helvetica,sans-Serif" font-size="10.00">os/OS.h</text>
</a>
</g>
</g>
<!-- Node6&#45;&gt;Node11 -->
<g id="edge12" class="edge">
<title>Node6&#45;&gt;Node11</title>
<path fill="none" stroke="midnightblue" d="M437.21,-380.28C447.84,-372.22 462.36,-359.2 469.5,-344 499.03,-281.11 494.62,-195.49 490.82,-158.17"/>
<polygon fill="midnightblue" stroke="midnightblue" points="494.3,-157.76 489.7,-148.22 487.34,-158.55 494.3,-157.76"/>
</g>
<!-- Node13 -->
<g id="node13" class="node">
<title>Node13</title>
<g id="a_node13"><a xlink:href="variables_8h.html" target="_top" xlink:title=" ">
<polygon fill="white" stroke="black" points="212,-324.5 212,-343.5 275,-343.5 275,-324.5 212,-324.5"/>
<text text-anchor="middle" x="243.5" y="-331.5" font-family="Helvetica,sans-Serif" font-size="10.00">variables.h</text>
</a>
</g>
</g>
<!-- Node6&#45;&gt;Node13 -->
<g id="edge16" class="edge">
<title>Node6&#45;&gt;Node13</title>
<path fill="none" stroke="midnightblue" d="M399.33,-381.49C368.92,-372.42 317.43,-357.06 282.01,-346.49"/>
<polygon fill="midnightblue" stroke="midnightblue" points="282.61,-343.02 272.03,-343.51 280.61,-349.72 282.61,-343.02"/>
</g>
<!-- Node8&#45;&gt;Node7 -->
<g id="edge8" class="edge">
<title>Node8&#45;&gt;Node7</title>
<path fill="none" stroke="midnightblue" d="M603.66,-262.73C611.02,-230.54 631.78,-117.55 577.5,-56 559.71,-35.83 490.3,-23.23 441.26,-16.66"/>
<polygon fill="midnightblue" stroke="midnightblue" points="441.49,-13.16 431.13,-15.35 440.59,-20.1 441.49,-13.16"/>
</g>
<!-- Node9&#45;&gt;Node7 -->
<g id="edge10" class="edge">
<title>Node9&#45;&gt;Node7</title>
<path fill="none" stroke="midnightblue" d="M396.79,-262.87C397.69,-233.72 400.13,-136.31 395.5,-56 395,-47.36 394.01,-37.83 393.03,-29.77"/>
<polygon fill="midnightblue" stroke="midnightblue" points="396.48,-29.08 391.73,-19.6 389.53,-29.97 396.48,-29.08"/>
</g>
<!-- Node11&#45;&gt;Node7 -->
<g id="edge13" class="edge">
<title>Node11&#45;&gt;Node7</title>
<path fill="none" stroke="midnightblue" d="M494.42,-128.82C504.42,-112.96 522.14,-78.84 506.5,-56 491.82,-34.56 465.31,-23.33 441.34,-17.45"/>
<polygon fill="midnightblue" stroke="midnightblue" points="441.79,-13.97 431.27,-15.25 440.29,-20.8 441.79,-13.97"/>
</g>
<!-- Node12 -->
<g id="node12" class="node">
<title>Node12</title>
<g id="a_node12"><a xlink:href="dvd_8h.html" target="_top" xlink:title=" ">
<polygon fill="white" stroke="black" points="438,-62 438,-81 497,-81 497,-62 438,-62"/>
<text text-anchor="middle" x="467.5" y="-69" font-family="Helvetica,sans-Serif" font-size="10.00">dvd/dvd.h</text>
</a>
</g>
</g>
<!-- Node11&#45;&gt;Node12 -->
<g id="edge14" class="edge">
<title>Node11&#45;&gt;Node12</title>
<path fill="none" stroke="midnightblue" d="M485.67,-128.73C482.55,-119.09 477.45,-103.3 473.45,-90.91"/>
<polygon fill="midnightblue" stroke="midnightblue" points="476.69,-89.57 470.29,-81.13 470.03,-91.72 476.69,-89.57"/>
</g>
<!-- Node12&#45;&gt;Node7 -->
<g id="edge15" class="edge">
<title>Node12&#45;&gt;Node7</title>
<path fill="none" stroke="midnightblue" d="M456.47,-61.98C444.23,-52.52 424.27,-37.1 409.51,-25.69"/>
<polygon fill="midnightblue" stroke="midnightblue" points="411.56,-22.85 401.51,-19.51 407.28,-28.39 411.56,-22.85"/>
</g>
<!-- Node13&#45;&gt;Node4 -->
<g id="edge29" class="edge">
<title>Node13&#45;&gt;Node4</title>
<path fill="none" stroke="midnightblue" d="M243.23,-343.71C243,-364.77 244.88,-419.42 268.5,-456 277.03,-469.22 290.92,-479.83 303.39,-487.42"/>
<polygon fill="midnightblue" stroke="midnightblue" points="301.7,-490.49 312.12,-492.41 305.17,-484.41 301.7,-490.49"/>
</g>
<!-- Node14 -->
<g id="node14" class="node">
<title>Node14</title>
<g id="a_node14"><a xlink:href="JSUList_8h.html" target="_top" xlink:title=" ">
<polygon fill="white" stroke="black" points="169.5,-56.5 169.5,-86.5 305.5,-86.5 305.5,-56.5 169.5,-56.5"/>
<text text-anchor="start" x="177.5" y="-74.5" font-family="Helvetica,sans-Serif" font-size="10.00">JSystem/JSupport/JSUList</text>
<text text-anchor="middle" x="237.5" y="-63.5" font-family="Helvetica,sans-Serif" font-size="10.00">/JSUList.h</text>
</a>
</g>
</g>
<!-- Node13&#45;&gt;Node14 -->
<g id="edge17" class="edge">
<title>Node13&#45;&gt;Node14</title>
<path fill="none" stroke="midnightblue" d="M239.39,-324.33C227.6,-298.9 193.77,-222.02 182.5,-154 180.25,-140.41 176.96,-135.61 182.5,-123 187.67,-111.22 197.1,-100.99 206.7,-92.87"/>
<polygon fill="midnightblue" stroke="midnightblue" points="209.03,-95.5 214.72,-86.56 204.7,-90 209.03,-95.5"/>
</g>
<!-- Node15 -->
<g id="node15" class="node">
<title>Node15</title>
<g id="a_node15"><a xlink:href="JUTXfb_8h.html" target="_top" xlink:title=" ">
<polygon fill="white" stroke="black" points="46,-257.5 46,-287.5 171,-287.5 171,-257.5 46,-257.5"/>
<text text-anchor="start" x="54" y="-275.5" font-family="Helvetica,sans-Serif" font-size="10.00">JSystem/JUtility/JUTXfb</text>
<text text-anchor="middle" x="108.5" y="-264.5" font-family="Helvetica,sans-Serif" font-size="10.00">/JUTXfb.h</text>
</a>
</g>
</g>
<!-- Node13&#45;&gt;Node15 -->
<g id="edge19" class="edge">
<title>Node13&#45;&gt;Node15</title>
<path fill="none" stroke="midnightblue" d="M224.16,-324.48C204.76,-315.93 174.3,-302.5 149.51,-291.57"/>
<polygon fill="midnightblue" stroke="midnightblue" points="150.88,-288.35 140.32,-287.52 148.06,-294.76 150.88,-288.35"/>
</g>
<!-- Node14&#45;&gt;Node7 -->
<g id="edge18" class="edge">
<title>Node14&#45;&gt;Node7</title>
<path fill="none" stroke="midnightblue" d="M273.76,-56.4C299.54,-46.37 333.86,-33.03 358.6,-23.4"/>
<polygon fill="midnightblue" stroke="midnightblue" points="360.19,-26.54 368.24,-19.66 357.65,-20.02 360.19,-26.54"/>
</g>
<!-- Node15&#45;&gt;Node7 -->
<g id="edge26" class="edge">
<title>Node15&#45;&gt;Node7</title>
<path fill="none" stroke="midnightblue" d="M107.2,-257.45C104.49,-219.02 102.67,-111.36 160.5,-56 185.64,-31.93 279.92,-19.93 339.69,-14.62"/>
<polygon fill="midnightblue" stroke="midnightblue" points="340.03,-18.11 349.69,-13.77 339.43,-11.13 340.03,-18.11"/>
</g>
<!-- Node16 -->
<g id="node16" class="node">
<title>Node16</title>
<g id="a_node16"><a xlink:href="JKRHeap_8h.html" target="_top" xlink:title=" ">
<polygon fill="white" stroke="black" points="236.5,-190.5 236.5,-220.5 372.5,-220.5 372.5,-190.5 236.5,-190.5"/>
<text text-anchor="start" x="244.5" y="-208.5" font-family="Helvetica,sans-Serif" font-size="10.00">JSystem/JKernel/JKRHeap</text>
<text text-anchor="middle" x="304.5" y="-197.5" font-family="Helvetica,sans-Serif" font-size="10.00">/JKRHeap.h</text>
</a>
</g>
</g>
<!-- Node15&#45;&gt;Node16 -->
<g id="edge20" class="edge">
<title>Node15&#45;&gt;Node16</title>
<path fill="none" stroke="midnightblue" d="M151.03,-257.4C180.82,-247.52 220.82,-234.25 252.51,-223.74"/>
<polygon fill="midnightblue" stroke="midnightblue" points="253.66,-227.05 262.05,-220.58 251.46,-220.4 253.66,-227.05"/>
</g>
<!-- Node18 -->
<g id="node18" class="node">
<title>Node18</title>
<g id="a_node18"><a xlink:href="GX_8h.html" target="_top" xlink:title=" ">
<polygon fill="white" stroke="black" points="46,-196 46,-215 97,-215 97,-196 46,-196"/>
<text text-anchor="middle" x="71.5" y="-203" font-family="Helvetica,sans-Serif" font-size="10.00">gx/GX.h</text>
</a>
</g>
</g>
<!-- Node15&#45;&gt;Node18 -->
<g id="edge27" class="edge">
<title>Node15&#45;&gt;Node18</title>
<path fill="none" stroke="midnightblue" d="M100.47,-257.4C94.87,-247.56 87.37,-234.38 81.4,-223.89"/>
<polygon fill="midnightblue" stroke="midnightblue" points="84.44,-222.15 76.45,-215.19 78.35,-225.62 84.44,-222.15"/>
</g>
<!-- Node16&#45;&gt;Node6 -->
<g id="edge25" class="edge">
<title>Node16&#45;&gt;Node6</title>
<path fill="none" stroke="midnightblue" d="M313.66,-220.58C329.89,-245.5 364.78,-299.01 394.5,-344 400.59,-353.22 407.42,-363.48 413.03,-371.86"/>
<polygon fill="midnightblue" stroke="midnightblue" points="410.26,-374.02 418.73,-380.39 416.08,-370.13 410.26,-374.02"/>
</g>
<!-- Node16&#45;&gt;Node7 -->
<g id="edge24" class="edge">
<title>Node16&#45;&gt;Node7</title>
<path fill="none" stroke="midnightblue" d="M321.49,-190.16C331.56,-180.81 343.81,-167.81 351.5,-154 374.27,-113.09 384.37,-58.1 388.31,-29.71"/>
<polygon fill="midnightblue" stroke="midnightblue" points="391.81,-29.96 389.61,-19.6 384.87,-29.07 391.81,-29.96"/>
</g>
<!-- Node17 -->
<g id="node17" class="node">
<title>Node17</title>
<g id="a_node17"><a xlink:href="JKRDisposer_8h.html" target="_top" xlink:title=" ">
<polygon fill="white" stroke="black" points="192,-123.5 192,-153.5 343,-153.5 343,-123.5 192,-123.5"/>
<text text-anchor="start" x="200" y="-141.5" font-family="Helvetica,sans-Serif" font-size="10.00">JSystem/JKernel/JKRDisposer</text>
<text text-anchor="middle" x="267.5" y="-130.5" font-family="Helvetica,sans-Serif" font-size="10.00">/JKRDisposer.h</text>
</a>
</g>
</g>
<!-- Node16&#45;&gt;Node17 -->
<g id="edge21" class="edge">
<title>Node16&#45;&gt;Node17</title>
<path fill="none" stroke="midnightblue" d="M296.47,-190.4C291.82,-182.22 285.84,-171.73 280.53,-162.39"/>
<polygon fill="midnightblue" stroke="midnightblue" points="283.5,-160.54 275.51,-153.58 277.42,-164 283.5,-160.54"/>
</g>
<!-- Node17&#45;&gt;Node7 -->
<g id="edge23" class="edge">
<title>Node17&#45;&gt;Node7</title>
<path fill="none" stroke="midnightblue" d="M281.13,-123.48C304.16,-99.8 350.62,-52.02 374.91,-27.04"/>
<polygon fill="midnightblue" stroke="midnightblue" points="377.49,-29.4 381.95,-19.79 372.47,-24.52 377.49,-29.4"/>
</g>
<!-- Node17&#45;&gt;Node14 -->
<g id="edge22" class="edge">
<title>Node17&#45;&gt;Node14</title>
<path fill="none" stroke="midnightblue" d="M260.99,-123.4C257.26,-115.3 252.47,-104.94 248.2,-95.69"/>
<polygon fill="midnightblue" stroke="midnightblue" points="251.37,-94.19 244,-86.58 245.01,-97.12 251.37,-94.19"/>
</g>
<!-- Node18&#45;&gt;Node7 -->
<g id="edge28" class="edge">
<title>Node18&#45;&gt;Node7</title>
<path fill="none" stroke="midnightblue" d="M70.9,-195.84C69.62,-170.15 69.66,-93.73 111.5,-56 144.27,-26.44 268.77,-16.21 339.89,-12.73"/>
<polygon fill="midnightblue" stroke="midnightblue" points="340.15,-16.22 349.97,-12.26 339.82,-9.23 340.15,-16.22"/>
</g>
<!-- Node19&#45;&gt;Node7 -->
<g id="edge32" class="edge">
<title>Node19&#45;&gt;Node7</title>
<path fill="none" stroke="midnightblue" d="M28.85,-380.34C25.36,-361.17 17.5,-313.66 17.5,-273.5 17.5,-273.5 17.5,-273.5 17.5,-137.5 17.5,-90.33 44.35,-79.07 85.5,-56 128.03,-32.16 264.49,-19.46 339.65,-14.12"/>
<polygon fill="midnightblue" stroke="midnightblue" points="340.1,-17.6 349.84,-13.41 339.62,-10.61 340.1,-17.6"/>
</g>
<!-- Node20&#45;&gt;Node4 -->
<g id="edge35" class="edge">
<title>Node20&#45;&gt;Node4</title>
<path fill="none" stroke="midnightblue" d="M396.12,-548.4C382.59,-539.04 364.89,-526.79 351.28,-517.38"/>
<polygon fill="midnightblue" stroke="midnightblue" points="353.23,-514.47 343.01,-511.66 349.25,-520.23 353.23,-514.47"/>
</g>
<!-- Node20&#45;&gt;Node6 -->
<g id="edge36" class="edge">
<title>Node20&#45;&gt;Node6</title>
<path fill="none" stroke="midnightblue" d="M417.41,-548.38C418.7,-527.99 421.06,-489.12 422.5,-456 423.18,-440.47 423.7,-422.85 424.05,-409.87"/>
<polygon fill="midnightblue" stroke="midnightblue" points="427.55,-409.92 424.3,-399.83 420.55,-409.74 427.55,-409.92"/>
</g>
<!-- Node21&#45;&gt;Node7 -->
<g id="edge40" class="edge">
<title>Node21&#45;&gt;Node7</title>
<path fill="none" stroke="midnightblue" d="M638.93,-492.24C643.84,-473.71 654.5,-429.12 654.5,-391 654.5,-391 654.5,-391 654.5,-137.5 654.5,-44.06 518.34,-19.59 441.59,-13.21"/>
<polygon fill="midnightblue" stroke="midnightblue" points="441.41,-9.69 431.17,-12.43 440.88,-16.67 441.41,-9.69"/>
</g>
</g>
</svg>
        <g id="navigator" transform="translate(0 0)" fill="#404254">
                <rect fill="#f2f5e9" fill-opacity="0.5" stroke="#606060" stroke-width=".5" x="0" y="0" width="60" height="60"/>
                <use id="zoomplus" xlink:href="#zoomPlus" x="17" y="9" onmousedown="handleZoom(evt,'in')"/>
                <use id="zoomminus" xlink:href="#zoomMin" x="42" y="9" onmousedown="handleZoom(evt,'out')"/>
                <use id="reset" xlink:href="#resetDef" x="30" y="36" onmousedown="handleReset()"/>
                <g id="arrowUp" xlink:href="#dirArrow" transform="translate(30 24)" onmousedown="handlePan(0,-1)">
                  <use xlink:href="#rim" fill="#404040">
                        <set attributeName="fill" to="#808080" begin="arrowUp.mouseover" end="arrowUp.mouseout"/>
                  </use>
                  <path fill="none" stroke="white" stroke-width="1.5" d="M0,-3.0v7 M-2.5,-0.5L0,-3.0L2.5,-0.5"/>
                </g>
                <g id="arrowRight" xlink:href="#dirArrow" transform="rotate(90) translate(36 -43)" onmousedown="handlePan(1,0)">
                  <use xlink:href="#rim" fill="#404040">
                        <set attributeName="fill" to="#808080" begin="arrowRight.mouseover" end="arrowRight.mouseout"/>
                  </use>
                  <path fill="none" stroke="white" stroke-width="1.5" d="M0,-3.0v7 M-2.5,-0.5L0,-3.0L2.5,-0.5"/>
                </g>
                <g id="arrowDown" xlink:href="#dirArrow" transform="rotate(180) translate(-30 -48)" onmousedown="handlePan(0,1)">
                  <use xlink:href="#rim" fill="#404040">
                        <set attributeName="fill" to="#808080" begin="arrowDown.mouseover" end="arrowDown.mouseout"/>
                  </use>
                  <path fill="none" stroke="white" stroke-width="1.5" d="M0,-3.0v7 M-2.5,-0.5L0,-3.0L2.5,-0.5"/>
                </g>
                <g id="arrowLeft" xlink:href="#dirArrow" transform="rotate(270) translate(-36 17)" onmousedown="handlePan(-1,0)">
                  <use xlink:href="#rim" fill="#404040">
                        <set attributeName="fill" to="#808080" begin="arrowLeft.mouseover" end="arrowLeft.mouseout"/>
                  </use>
                  <path fill="none" stroke="white" stroke-width="1.5" d="M0,-3.0v7 M-2.5,-0.5L0,-3.0L2.5,-0.5"/>
                </g>
        </g>
        <svg viewBox="0 0 15 15" width="100%" height="30px" preserveAspectRatio="xMaxYMin meet">
         <g id="arrow_out" transform="scale(0.3 0.3)">
          <a xlink:href="c__m3d__g__tri_8cpp__incl_org.svg" target="_base">
           <rect id="button" ry="5" rx="5" y="6" x="6" height="38" width="38"
                fill="#f2f5e9" fill-opacity="0.5" stroke="#606060" stroke-width="1.0"/>
           <path id="arrow"
             d="M 11.500037,31.436501 C 11.940474,20.09759 22.043105,11.32322 32.158766,21.979434 L 37.068811,17.246167 C 37.068811,17.246167 37.088388,32 37.088388,32 L 22.160133,31.978069 C 22.160133,31.978069 26.997745,27.140456 26.997745,27.140456 C 18.528582,18.264221 13.291696,25.230495 11.500037,31.436501 z"
             style="fill:#404040;"/>
          </a>
         </g>
        </svg>
</svg>
