<?xml version="1.0" encoding="UTF-8" standalone="no"?>
<!DOCTYPE svg PUBLIC "-//W3C//DTD SVG 1.1//EN"
 "http://www.w3.org/Graphics/SVG/1.1/DTD/svg11.dtd">
<!-- Generated by graphviz version 2.46.1 (20210215.1649)
 -->
<!-- Title: include/SComponent/c_m3d_g_lin.h Pages: 1 -->
<!--zoomable 497 -->
<svg id="main" version="1.1" xmlns="http://www.w3.org/2000/svg" xmlns:xlink="http://www.w3.org/1999/xlink" xml:space="preserve" onload="init(evt)">
<style type="text/css"><![CDATA[
.edge:hover path { stroke: red; }
.edge:hover polygon { stroke: red; fill: red; }
]]></style>
<script type="text/javascript"><![CDATA[
var edges = document.getElementsByTagName('g');
if (edges && edges.length) {
  for (var i=0;i<edges.length;i++) {
    if (edges[i].id.substr(0,4)=='edge') {
      edges[i].setAttribute('class','edge');
    }
  }
}
]]></script>
        <defs>
                <circle id="rim" cx="0" cy="0" r="7"/>
                <circle id="rim2" cx="0" cy="0" r="3.5"/>
                <g id="zoomPlus">
                        <use xlink:href="#rim" fill="#404040">
                                <set attributeName="fill" to="#808080" begin="zoomplus.mouseover" end="zoomplus.mouseout"/>
                        </use>
                        <path d="M-4,0h8M0,-4v8" fill="none" stroke="white" stroke-width="1.5" pointer-events="none"/>
                </g>
                <g id="zoomMin">
                        <use xlink:href="#rim" fill="#404040">
                                <set attributeName="fill" to="#808080" begin="zoomminus.mouseover" end="zoomminus.mouseout"/>
                        </use>
                        <path d="M-4,0h8" fill="none" stroke="white" stroke-width="1.5" pointer-events="none"/>
                </g>
                <g id="dirArrow">
                        <path fill="none" stroke="white" stroke-width="1.5" d="M0,-3.0v7 M-2.5,-0.5L0,-3.0L2.5,-0.5"/>
                </g>
               <g id="resetDef">
                       <use xlink:href="#rim2" fill="#404040">
                               <set attributeName="fill" to="#808080" begin="reset.mouseover" end="reset.mouseout"/>
                       </use>
               </g>
        </defs>

<script type="text/javascript">
var viewWidth = 5553;
var viewHeight = 497;
var sectionId = 'dynsection-1';
</script>
<script xlink:href="svgpan.js"/>
<svg id="graph" class="graph">
<g id="viewport">
<title>include/SComponent/c_m3d_g_lin.h</title>
<polygon fill="white" stroke="transparent" points="-4,4 -4,-493 5548.74,-493 5548.74,4 -4,4"/>
<!-- Node1 -->
<g id="node1" class="node">
<title>Node1</title>
<g id="a_node1"><a xlink:title=" ">
<polygon fill="#bfbfbf" stroke="black" points="2182.74,-458.5 2182.74,-488.5 2289.74,-488.5 2289.74,-458.5 2182.74,-458.5"/>
<text text-anchor="start" x="2190.74" y="-476.5" font-family="Helvetica,sans-Serif" font-size="10.00">include/SComponent</text>
<text text-anchor="middle" x="2236.24" y="-465.5" font-family="Helvetica,sans-Serif" font-size="10.00">/c_m3d_g_lin.h</text>
</a>
</g>
</g>
<!-- Node2 -->
<g id="node2" class="node">
<title>Node2</title>
<g id="a_node2"><a xlink:href="c__m3d__g__lin_8cpp.html" target="_top" xlink:title=" ">
<polygon fill="white" stroke="black" points="2074.24,-391.5 2074.24,-421.5 2208.24,-421.5 2208.24,-391.5 2074.24,-391.5"/>
<text text-anchor="start" x="2082.24" y="-409.5" font-family="Helvetica,sans-Serif" font-size="10.00">libs/SSystem/SComponent</text>
<text text-anchor="middle" x="2141.24" y="-398.5" font-family="Helvetica,sans-Serif" font-size="10.00">/c_m3d_g_lin.cpp</text>
</a>
</g>
</g>
<!-- Node1&#45;&gt;Node2 -->
<g id="edge1" class="edge">
<title>Node1&#45;&gt;Node2</title>
<path fill="none" stroke="midnightblue" d="M2207.35,-452.73C2192.65,-442.68 2175.13,-430.68 2161.81,-421.58"/>
<polygon fill="midnightblue" stroke="midnightblue" points="2205.4,-455.64 2215.63,-458.4 2209.35,-449.86 2205.4,-455.64"/>
</g>
<!-- Node3 -->
<g id="node3" class="node">
<title>Node3</title>
<g id="a_node3"><a xlink:href="c__m3d_8cpp.html" target="_top" xlink:title=" ">
<polygon fill="white" stroke="black" points="2152.24,-324.5 2152.24,-354.5 2286.24,-354.5 2286.24,-324.5 2152.24,-324.5"/>
<text text-anchor="start" x="2160.24" y="-342.5" font-family="Helvetica,sans-Serif" font-size="10.00">libs/SSystem/SComponent</text>
<text text-anchor="middle" x="2219.24" y="-331.5" font-family="Helvetica,sans-Serif" font-size="10.00">/c_m3d.cpp</text>
</a>
</g>
</g>
<!-- Node1&#45;&gt;Node3 -->
<g id="edge2" class="edge">
<title>Node1&#45;&gt;Node3</title>
<path fill="none" stroke="midnightblue" d="M2233.14,-448.39C2229.6,-420.9 2223.93,-376.89 2221.05,-354.52"/>
<polygon fill="midnightblue" stroke="midnightblue" points="2229.67,-448.9 2234.42,-458.37 2236.62,-448.01 2229.67,-448.9"/>
</g>
<!-- Node4 -->
<g id="node4" class="node">
<title>Node4</title>
<g id="a_node4"><a xlink:href="c__m3d__g__cps_8h.html" target="_top" xlink:title=" ">
<polygon fill="white" stroke="black" points="2299.74,-391.5 2299.74,-421.5 2406.74,-421.5 2406.74,-391.5 2299.74,-391.5"/>
<text text-anchor="start" x="2307.74" y="-409.5" font-family="Helvetica,sans-Serif" font-size="10.00">include/SComponent</text>
<text text-anchor="middle" x="2353.24" y="-398.5" font-family="Helvetica,sans-Serif" font-size="10.00">/c_m3d_g_cps.h</text>
</a>
</g>
</g>
<!-- Node1&#45;&gt;Node4 -->
<g id="edge3" class="edge">
<title>Node1&#45;&gt;Node4</title>
<path fill="none" stroke="midnightblue" d="M2270.56,-453.44C2288.91,-443.24 2311.13,-430.9 2327.9,-421.58"/>
<polygon fill="midnightblue" stroke="midnightblue" points="2268.67,-450.48 2261.63,-458.4 2272.07,-456.6 2268.67,-450.48"/>
</g>
<!-- Node4&#45;&gt;Node3 -->
<g id="edge5" class="edge">
<title>Node4&#45;&gt;Node3</title>
<path fill="none" stroke="midnightblue" d="M2315.09,-386.99C2293.85,-376.69 2267.83,-364.07 2248.26,-354.58"/>
<polygon fill="midnightblue" stroke="midnightblue" points="2313.64,-390.18 2324.16,-391.4 2316.69,-383.88 2313.64,-390.18"/>
</g>
<!-- Node5 -->
<g id="node5" class="node">
<title>Node5</title>
<g id="a_node5"><a xlink:href="c__m3d__g__cps_8cpp.html" target="_top" xlink:title=" ">
<polygon fill="white" stroke="black" points="2304.24,-324.5 2304.24,-354.5 2438.24,-354.5 2438.24,-324.5 2304.24,-324.5"/>
<text text-anchor="start" x="2312.24" y="-342.5" font-family="Helvetica,sans-Serif" font-size="10.00">libs/SSystem/SComponent</text>
<text text-anchor="middle" x="2371.24" y="-331.5" font-family="Helvetica,sans-Serif" font-size="10.00">/c_m3d_g_cps.cpp</text>
</a>
</g>
</g>
<!-- Node4&#45;&gt;Node5 -->
<g id="edge4" class="edge">
<title>Node4&#45;&gt;Node5</title>
<path fill="none" stroke="midnightblue" d="M2359.83,-381.7C2362.35,-372.59 2365.15,-362.49 2367.34,-354.58"/>
<polygon fill="midnightblue" stroke="midnightblue" points="2356.44,-380.82 2357.15,-391.4 2363.19,-382.69 2356.44,-380.82"/>
</g>
<!-- Node6 -->
<g id="node6" class="node">
<title>Node6</title>
<g id="a_node6"><a xlink:href="c__cc__d_8h.html" target="_top" xlink:title=" ">
<polygon fill="white" stroke="black" points="2456.74,-324.5 2456.74,-354.5 2563.74,-354.5 2563.74,-324.5 2456.74,-324.5"/>
<text text-anchor="start" x="2464.74" y="-342.5" font-family="Helvetica,sans-Serif" font-size="10.00">include/SComponent</text>
<text text-anchor="middle" x="2510.24" y="-331.5" font-family="Helvetica,sans-Serif" font-size="10.00">/c_cc_d/c_cc_d.h</text>
</a>
</g>
</g>
<!-- Node4&#45;&gt;Node6 -->
<g id="edge6" class="edge">
<title>Node4&#45;&gt;Node6</title>
<path fill="none" stroke="midnightblue" d="M2396.61,-387.54C2421.73,-377.14 2452.9,-364.24 2476.24,-354.58"/>
<polygon fill="midnightblue" stroke="midnightblue" points="2395.21,-384.34 2387.31,-391.4 2397.89,-390.8 2395.21,-384.34"/>
</g>
<!-- Node7 -->
<g id="node7" class="node">
<title>Node7</title>
<g id="a_node7"><a xlink:href="d__cc__mass__s_8h.html" target="_top" xlink:title=" ">
<polygon fill="white" stroke="black" points="2378.24,-257.5 2378.24,-287.5 2506.24,-287.5 2506.24,-257.5 2378.24,-257.5"/>
<text text-anchor="start" x="2386.24" y="-275.5" font-family="Helvetica,sans-Serif" font-size="10.00">include/d/d_cc/d_cc</text>
<text text-anchor="middle" x="2442.24" y="-264.5" font-family="Helvetica,sans-Serif" font-size="10.00">_mass_s/d_cc_mass_s.h</text>
</a>
</g>
</g>
<!-- Node6&#45;&gt;Node7 -->
<g id="edge7" class="edge">
<title>Node6&#45;&gt;Node7</title>
<path fill="none" stroke="midnightblue" d="M2488.07,-317.31C2477.87,-307.56 2466.05,-296.26 2456.97,-287.58"/>
<polygon fill="midnightblue" stroke="midnightblue" points="2485.84,-320.02 2495.49,-324.4 2490.68,-314.96 2485.84,-320.02"/>
</g>
<!-- Node55 -->
<g id="node50" class="node">
<title>Node55</title>
<g id="a_node50"><a xlink:href="c__cc__s_8h.html" target="_top" xlink:title=" ">
<polygon fill="white" stroke="black" points="2524.74,-257.5 2524.74,-287.5 2631.74,-287.5 2631.74,-257.5 2524.74,-257.5"/>
<text text-anchor="start" x="2532.74" y="-275.5" font-family="Helvetica,sans-Serif" font-size="10.00">include/SComponent</text>
<text text-anchor="middle" x="2578.24" y="-264.5" font-family="Helvetica,sans-Serif" font-size="10.00">/c_cc_s/c_cc_s.h</text>
</a>
</g>
</g>
<!-- Node6&#45;&gt;Node55 -->
<g id="edge51" class="edge">
<title>Node6&#45;&gt;Node55</title>
<path fill="none" stroke="midnightblue" d="M2532.41,-317.31C2542.61,-307.56 2554.43,-296.26 2563.51,-287.58"/>
<polygon fill="midnightblue" stroke="midnightblue" points="2529.81,-314.96 2525,-324.4 2534.64,-320.02 2529.81,-314.96"/>
</g>
<!-- Node8 -->
<g id="node8" class="node">
<title>Node8</title>
<g id="a_node8"><a xlink:href="d__cc__s_8h.html" target="_top" xlink:title=" ">
<polygon fill="white" stroke="black" points="2458.24,-190.5 2458.24,-220.5 2562.24,-220.5 2562.24,-190.5 2458.24,-190.5"/>
<text text-anchor="start" x="2466.24" y="-208.5" font-family="Helvetica,sans-Serif" font-size="10.00">include/d/d_cc/d_cc</text>
<text text-anchor="middle" x="2510.24" y="-197.5" font-family="Helvetica,sans-Serif" font-size="10.00">_s/d_cc_s.h</text>
</a>
</g>
</g>
<!-- Node7&#45;&gt;Node8 -->
<g id="edge8" class="edge">
<title>Node7&#45;&gt;Node8</title>
<path fill="none" stroke="midnightblue" d="M2464.41,-250.31C2474.61,-240.56 2486.43,-229.26 2495.51,-220.58"/>
<polygon fill="midnightblue" stroke="midnightblue" points="2461.81,-247.96 2457,-257.4 2466.64,-253.02 2461.81,-247.96"/>
</g>
<!-- Node9 -->
<g id="node9" class="node">
<title>Node9</title>
<g id="a_node9"><a xlink:href="d__com__inf__game_8h.html" target="_top" xlink:title=" ">
<polygon fill="white" stroke="red" points="2437.24,-123.5 2437.24,-153.5 2583.24,-153.5 2583.24,-123.5 2437.24,-123.5"/>
<text text-anchor="start" x="2445.24" y="-141.5" font-family="Helvetica,sans-Serif" font-size="10.00">include/d/d_com/d_com</text>
<text text-anchor="middle" x="2510.24" y="-130.5" font-family="Helvetica,sans-Serif" font-size="10.00">_inf_game/d_com_inf_game.h</text>
</a>
</g>
</g>
<!-- Node8&#45;&gt;Node9 -->
<g id="edge9" class="edge">
<title>Node8&#45;&gt;Node9</title>
<path fill="none" stroke="midnightblue" d="M2510.24,-180.11C2510.24,-171.15 2510.24,-161.32 2510.24,-153.58"/>
<polygon fill="midnightblue" stroke="midnightblue" points="2506.74,-180.4 2510.24,-190.4 2513.74,-180.4 2506.74,-180.4"/>
</g>
<!-- Node10 -->
<g id="node10" class="node">
<title>Node10</title>
<g id="a_node10"><a xlink:href="d__attention_8cpp.html" target="_top" xlink:title=" ">
<polygon fill="white" stroke="black" points="2682.74,-0.5 2682.74,-19.5 2789.74,-19.5 2789.74,-0.5 2682.74,-0.5"/>
<text text-anchor="middle" x="2736.24" y="-7.5" font-family="Helvetica,sans-Serif" font-size="10.00">src/d/d_attention.cpp</text>
</a>
</g>
</g>
<!-- Node9&#45;&gt;Node10 -->
<g id="edge10" class="edge">
<title>Node9&#45;&gt;Node10</title>
<path fill="none" stroke="midnightblue" d="M2426.9,-137.4C1997.23,-136.72 50.54,-131.18 7.24,-87 -2.4,-77.16 -2.42,-65.82 7.24,-56 55.93,-6.5 2304.08,-9.92 2682.46,-10.85"/>
<polygon fill="midnightblue" stroke="midnightblue" points="2427.06,-140.9 2437.07,-137.42 2427.07,-133.9 2427.06,-140.9"/>
</g>
<!-- Node11 -->
<g id="node11" class="node">
<title>Node11</title>
<g id="a_node11"><a xlink:href="d__camera_8cpp.html" target="_top" xlink:title=" ">
<polygon fill="white" stroke="black" points="16.24,-62 16.24,-81 118.24,-81 118.24,-62 16.24,-62"/>
<text text-anchor="middle" x="67.24" y="-69" font-family="Helvetica,sans-Serif" font-size="10.00">src/d/d_camera.cpp</text>
</a>
</g>
</g>
<!-- Node9&#45;&gt;Node11 -->
<g id="edge11" class="edge">
<title>Node9&#45;&gt;Node11</title>
<path fill="none" stroke="midnightblue" d="M2427,-136.8C2032.29,-133.35 358.65,-117.05 127.24,-87 117.25,-85.7 106.51,-83.4 96.91,-81.01"/>
<polygon fill="midnightblue" stroke="midnightblue" points="2427.17,-140.3 2437.2,-136.89 2427.23,-133.3 2427.17,-140.3"/>
</g>
<!-- Node12 -->
<g id="node12" class="node">
<title>Node12</title>
<g id="a_node12"><a xlink:href="d__com__inf__game_8cpp.html" target="_top" xlink:title=" ">
<polygon fill="white" stroke="black" points="136.74,-56.5 136.74,-86.5 255.74,-86.5 255.74,-56.5 136.74,-56.5"/>
<text text-anchor="start" x="144.74" y="-74.5" font-family="Helvetica,sans-Serif" font-size="10.00">src/d/d_com/d_com_inf</text>
<text text-anchor="middle" x="196.24" y="-63.5" font-family="Helvetica,sans-Serif" font-size="10.00">_game.cpp</text>
</a>
</g>
</g>
<!-- Node9&#45;&gt;Node12 -->
<g id="edge12" class="edge">
<title>Node9&#45;&gt;Node12</title>
<path fill="none" stroke="midnightblue" d="M2427.03,-137.72C2073.59,-138.32 695.2,-137.34 264.24,-87 261.48,-86.68 258.67,-86.3 255.84,-85.87"/>
<polygon fill="midnightblue" stroke="midnightblue" points="2427.19,-141.22 2437.19,-137.7 2427.18,-134.22 2427.19,-141.22"/>
</g>
<!-- Node13 -->
<g id="node13" class="node">
<title>Node13</title>
<g id="a_node13"><a xlink:href="d__file__sel__info_8cpp.html" target="_top" xlink:title=" ">
<polygon fill="white" stroke="black" points="273.74,-56.5 273.74,-86.5 362.74,-86.5 362.74,-56.5 273.74,-56.5"/>
<text text-anchor="start" x="281.74" y="-74.5" font-family="Helvetica,sans-Serif" font-size="10.00">src/d/d_file/d_file</text>
<text text-anchor="middle" x="318.24" y="-63.5" font-family="Helvetica,sans-Serif" font-size="10.00">_sel_info.cpp</text>
</a>
</g>
</g>
<!-- Node9&#45;&gt;Node13 -->
<g id="edge13" class="edge">
<title>Node9&#45;&gt;Node13</title>
<path fill="none" stroke="midnightblue" d="M2426.89,-136.73C2057.45,-133.16 576.86,-117.09 371.24,-87 368.5,-86.6 365.71,-86.1 362.9,-85.54"/>
<polygon fill="midnightblue" stroke="midnightblue" points="2426.94,-140.23 2436.97,-136.83 2427.01,-133.23 2426.94,-140.23"/>
</g>
<!-- Node14 -->
<g id="node14" class="node">
<title>Node14</title>
<g id="a_node14"><a xlink:href="d__item_8cpp.html" target="_top" xlink:title=" ">
<polygon fill="white" stroke="black" points="380.74,-62 380.74,-81 501.74,-81 501.74,-62 380.74,-62"/>
<text text-anchor="middle" x="441.24" y="-69" font-family="Helvetica,sans-Serif" font-size="10.00">src/d/d_item/d_item.cpp</text>
</a>
</g>
</g>
<!-- Node9&#45;&gt;Node14 -->
<g id="edge14" class="edge">
<title>Node9&#45;&gt;Node14</title>
<path fill="none" stroke="midnightblue" d="M2426.83,-137.42C2097.94,-136.77 890.35,-131.36 510.24,-87 498.93,-85.68 486.74,-83.41 475.79,-81.04"/>
<polygon fill="midnightblue" stroke="midnightblue" points="2427.23,-140.92 2437.23,-137.44 2427.24,-133.92 2427.23,-140.92"/>
</g>
<!-- Node15 -->
<g id="node15" class="node">
<title>Node15</title>
<g id="a_node15"><a xlink:href="d__kankyo__rain_8cpp.html" target="_top" xlink:title=" ">
<polygon fill="white" stroke="black" points="519.74,-56.5 519.74,-86.5 646.74,-86.5 646.74,-56.5 519.74,-56.5"/>
<text text-anchor="start" x="527.74" y="-74.5" font-family="Helvetica,sans-Serif" font-size="10.00">src/d/d_kankyo/d_kankyo</text>
<text text-anchor="middle" x="583.24" y="-63.5" font-family="Helvetica,sans-Serif" font-size="10.00">_rain.cpp</text>
</a>
</g>
</g>
<!-- Node9&#45;&gt;Node15 -->
<g id="edge15" class="edge">
<title>Node9&#45;&gt;Node15</title>
<path fill="none" stroke="midnightblue" d="M2426.68,-137.13C2112.98,-135.44 1005.59,-126.75 655.24,-87 652.45,-86.68 649.61,-86.31 646.75,-85.9"/>
<polygon fill="midnightblue" stroke="midnightblue" points="2427.04,-140.63 2437.06,-137.18 2427.08,-133.63 2427.04,-140.63"/>
</g>
<!-- Node16 -->
<g id="node16" class="node">
<title>Node16</title>
<g id="a_node16"><a xlink:href="d__kankyo__wether_8cpp.html" target="_top" xlink:title=" ">
<polygon fill="white" stroke="black" points="664.74,-56.5 664.74,-86.5 791.74,-86.5 791.74,-56.5 664.74,-56.5"/>
<text text-anchor="start" x="672.74" y="-74.5" font-family="Helvetica,sans-Serif" font-size="10.00">src/d/d_kankyo/d_kankyo</text>
<text text-anchor="middle" x="728.24" y="-63.5" font-family="Helvetica,sans-Serif" font-size="10.00">_wether.cpp</text>
</a>
</g>
</g>
<!-- Node9&#45;&gt;Node16 -->
<g id="edge16" class="edge">
<title>Node9&#45;&gt;Node16</title>
<path fill="none" stroke="midnightblue" d="M2426.79,-136.91C2129.23,-134.5 1120.83,-123.75 800.24,-87 797.45,-86.68 794.61,-86.31 791.75,-85.9"/>
<polygon fill="midnightblue" stroke="midnightblue" points="2427.05,-140.41 2437.08,-136.99 2427.1,-133.41 2427.05,-140.41"/>
</g>
<!-- Node17 -->
<g id="node17" class="node">
<title>Node17</title>
<g id="a_node17"><a xlink:href="d__kankyo_8cpp.html" target="_top" xlink:title=" ">
<polygon fill="white" stroke="black" points="809.74,-62 809.74,-81 910.74,-81 910.74,-62 809.74,-62"/>
<text text-anchor="middle" x="860.24" y="-69" font-family="Helvetica,sans-Serif" font-size="10.00">src/d/d_kankyo.cpp</text>
</a>
</g>
</g>
<!-- Node9&#45;&gt;Node17 -->
<g id="edge17" class="edge">
<title>Node9&#45;&gt;Node17</title>
<path fill="none" stroke="midnightblue" d="M2426.85,-137.15C2142.86,-135.62 1214.7,-127.54 919.24,-87 909.52,-85.67 899.08,-83.39 889.72,-81.03"/>
<polygon fill="midnightblue" stroke="midnightblue" points="2427.06,-140.66 2437.08,-137.21 2427.1,-133.66 2427.06,-140.66"/>
</g>
<!-- Node18 -->
<g id="node18" class="node">
<title>Node18</title>
<g id="a_node18"><a xlink:href="d__kantera__icon__meter_8cpp.html" target="_top" xlink:title=" ">
<polygon fill="white" stroke="black" points="928.74,-56.5 928.74,-86.5 1035.74,-86.5 1035.74,-56.5 928.74,-56.5"/>
<text text-anchor="start" x="936.74" y="-74.5" font-family="Helvetica,sans-Serif" font-size="10.00">src/d/d_kantera_icon</text>
<text text-anchor="middle" x="982.24" y="-63.5" font-family="Helvetica,sans-Serif" font-size="10.00">_meter.cpp</text>
</a>
</g>
</g>
<!-- Node9&#45;&gt;Node18 -->
<g id="edge18" class="edge">
<title>Node9&#45;&gt;Node18</title>
<path fill="none" stroke="midnightblue" d="M2427.08,-136.77C2158.26,-134.08 1314.51,-122.91 1044.24,-87 1041.5,-86.64 1038.71,-86.2 1035.89,-85.72"/>
<polygon fill="midnightblue" stroke="midnightblue" points="2427.13,-140.27 2437.16,-136.87 2427.2,-133.27 2427.13,-140.27"/>
</g>
<!-- Node19 -->
<g id="node19" class="node">
<title>Node19</title>
<g id="a_node19"><a xlink:href="d__kyeff_8cpp.html" target="_top" xlink:title=" ">
<polygon fill="white" stroke="black" points="1053.74,-62 1053.74,-81 1166.74,-81 1166.74,-62 1053.74,-62"/>
<text text-anchor="middle" x="1110.24" y="-69" font-family="Helvetica,sans-Serif" font-size="10.00">src/d/d_ky/d_kyeff.cpp</text>
</a>
</g>
</g>
<!-- Node9&#45;&gt;Node19 -->
<g id="edge19" class="edge">
<title>Node9&#45;&gt;Node19</title>
<path fill="none" stroke="midnightblue" d="M2426.87,-136.33C2174.14,-132.47 1418.99,-118.53 1175.24,-87 1164.69,-85.64 1153.33,-83.38 1143.1,-81.05"/>
<polygon fill="midnightblue" stroke="midnightblue" points="2427.03,-139.83 2437.09,-136.48 2427.14,-132.83 2427.03,-139.83"/>
</g>
<!-- Node20 -->
<g id="node20" class="node">
<title>Node20</title>
<g id="a_node20"><a xlink:href="d__meter__button_8cpp.html" target="_top" xlink:title=" ">
<polygon fill="white" stroke="black" points="1184.74,-56.5 1184.74,-86.5 1299.74,-86.5 1299.74,-56.5 1184.74,-56.5"/>
<text text-anchor="start" x="1192.74" y="-74.5" font-family="Helvetica,sans-Serif" font-size="10.00">src/d/d_meter/d_meter</text>
<text text-anchor="middle" x="1242.24" y="-63.5" font-family="Helvetica,sans-Serif" font-size="10.00">_button.cpp</text>
</a>
</g>
</g>
<!-- Node9&#45;&gt;Node20 -->
<g id="edge20" class="edge">
<title>Node9&#45;&gt;Node20</title>
<path fill="none" stroke="midnightblue" d="M2426.77,-135.89C2191.34,-131.04 1525.09,-115.16 1308.24,-87 1305.56,-86.65 1302.84,-86.25 1300.09,-85.81"/>
<polygon fill="midnightblue" stroke="midnightblue" points="2426.91,-139.39 2436.98,-136.1 2427.05,-132.39 2426.91,-139.39"/>
</g>
<!-- Node21 -->
<g id="node21" class="node">
<title>Node21</title>
<g id="a_node21"><a xlink:href="d__meter__haihai_8cpp.html" target="_top" xlink:title=" ">
<polygon fill="white" stroke="black" points="1317.74,-56.5 1317.74,-86.5 1432.74,-86.5 1432.74,-56.5 1317.74,-56.5"/>
<text text-anchor="start" x="1325.74" y="-74.5" font-family="Helvetica,sans-Serif" font-size="10.00">src/d/d_meter/d_meter</text>
<text text-anchor="middle" x="1375.24" y="-63.5" font-family="Helvetica,sans-Serif" font-size="10.00">_haihai.cpp</text>
</a>
</g>
</g>
<!-- Node9&#45;&gt;Node21 -->
<g id="edge21" class="edge">
<title>Node9&#45;&gt;Node21</title>
<path fill="none" stroke="midnightblue" d="M2426.73,-138.34C2246.11,-139.11 1805.99,-135.33 1441.24,-87 1438.57,-86.65 1435.84,-86.24 1433.09,-85.79"/>
<polygon fill="midnightblue" stroke="midnightblue" points="2426.97,-141.84 2436.95,-138.29 2426.94,-134.84 2426.97,-141.84"/>
</g>
<!-- Node22 -->
<g id="node22" class="node">
<title>Node22</title>
<g id="a_node22"><a xlink:href="d__meter__hakusha_8cpp.html" target="_top" xlink:title=" ">
<polygon fill="white" stroke="black" points="1450.74,-56.5 1450.74,-86.5 1565.74,-86.5 1565.74,-56.5 1450.74,-56.5"/>
<text text-anchor="start" x="1458.74" y="-74.5" font-family="Helvetica,sans-Serif" font-size="10.00">src/d/d_meter/d_meter</text>
<text text-anchor="middle" x="1508.24" y="-63.5" font-family="Helvetica,sans-Serif" font-size="10.00">_hakusha.cpp</text>
</a>
</g>
</g>
<!-- Node9&#45;&gt;Node22 -->
<g id="edge22" class="edge">
<title>Node9&#45;&gt;Node22</title>
<path fill="none" stroke="midnightblue" d="M2427.02,-137.53C2263.06,-136.59 1886.98,-129.5 1574.24,-87 1571.57,-86.64 1568.84,-86.22 1566.09,-85.77"/>
<polygon fill="midnightblue" stroke="midnightblue" points="2427.02,-141.03 2437.04,-137.58 2427.06,-134.03 2427.02,-141.03"/>
</g>
<!-- Node23 -->
<g id="node23" class="node">
<title>Node23</title>
<g id="a_node23"><a xlink:href="d__meter__map_8cpp.html" target="_top" xlink:title=" ">
<polygon fill="white" stroke="black" points="1583.74,-56.5 1583.74,-86.5 1698.74,-86.5 1698.74,-56.5 1583.74,-56.5"/>
<text text-anchor="start" x="1591.74" y="-74.5" font-family="Helvetica,sans-Serif" font-size="10.00">src/d/d_meter/d_meter</text>
<text text-anchor="middle" x="1641.24" y="-63.5" font-family="Helvetica,sans-Serif" font-size="10.00">_map.cpp</text>
</a>
</g>
</g>
<!-- Node9&#45;&gt;Node23 -->
<g id="edge23" class="edge">
<title>Node9&#45;&gt;Node23</title>
<path fill="none" stroke="midnightblue" d="M2426.81,-136.46C2280.44,-133.7 1968.12,-123.64 1707.24,-87 1704.57,-86.62 1701.84,-86.2 1699.1,-85.74"/>
<polygon fill="midnightblue" stroke="midnightblue" points="2427,-139.96 2437.06,-136.65 2427.13,-132.97 2427,-139.96"/>
</g>
<!-- Node24 -->
<g id="node24" class="node">
<title>Node24</title>
<g id="a_node24"><a xlink:href="d__meter__string_8cpp.html" target="_top" xlink:title=" ">
<polygon fill="white" stroke="black" points="1716.74,-56.5 1716.74,-86.5 1831.74,-86.5 1831.74,-56.5 1716.74,-56.5"/>
<text text-anchor="start" x="1724.74" y="-74.5" font-family="Helvetica,sans-Serif" font-size="10.00">src/d/d_meter/d_meter</text>
<text text-anchor="middle" x="1774.24" y="-63.5" font-family="Helvetica,sans-Serif" font-size="10.00">_string.cpp</text>
</a>
</g>
</g>
<!-- Node9&#45;&gt;Node24 -->
<g id="edge24" class="edge">
<title>Node9&#45;&gt;Node24</title>
<path fill="none" stroke="midnightblue" d="M2426.95,-135C2299.84,-130.33 2050.09,-117.8 1840.24,-87 1837.45,-86.59 1834.61,-86.13 1831.75,-85.63"/>
<polygon fill="midnightblue" stroke="midnightblue" points="2426.88,-138.5 2437,-135.36 2427.13,-131.5 2426.88,-138.5"/>
</g>
<!-- Node25 -->
<g id="node25" class="node">
<title>Node25</title>
<g id="a_node25"><a xlink:href="d__meter2__draw_8cpp.html" target="_top" xlink:title=" ">
<polygon fill="white" stroke="black" points="1849.74,-56.5 1849.74,-86.5 1974.74,-86.5 1974.74,-56.5 1849.74,-56.5"/>
<text text-anchor="start" x="1857.74" y="-74.5" font-family="Helvetica,sans-Serif" font-size="10.00">src/d/d_meter2/d_meter2</text>
<text text-anchor="middle" x="1912.24" y="-63.5" font-family="Helvetica,sans-Serif" font-size="10.00">_draw.cpp</text>
</a>
</g>
</g>
<!-- Node9&#45;&gt;Node25 -->
<g id="edge25" class="edge">
<title>Node9&#45;&gt;Node25</title>
<path fill="none" stroke="midnightblue" d="M2426.92,-132.25C2322.75,-125.07 2139.17,-110.33 1983.24,-87 1980.5,-86.59 1977.71,-86.14 1974.9,-85.67"/>
<polygon fill="midnightblue" stroke="midnightblue" points="2426.84,-135.76 2437.05,-132.95 2427.32,-128.77 2426.84,-135.76"/>
</g>
<!-- Node26 -->
<g id="node26" class="node">
<title>Node26</title>
<g id="a_node26"><a xlink:href="d__meter2__info_8cpp.html" target="_top" xlink:title=" ">
<polygon fill="white" stroke="black" points="1992.74,-56.5 1992.74,-86.5 2117.74,-86.5 2117.74,-56.5 1992.74,-56.5"/>
<text text-anchor="start" x="2000.74" y="-74.5" font-family="Helvetica,sans-Serif" font-size="10.00">src/d/d_meter2/d_meter2</text>
<text text-anchor="middle" x="2055.24" y="-63.5" font-family="Helvetica,sans-Serif" font-size="10.00">_info.cpp</text>
</a>
</g>
</g>
<!-- Node9&#45;&gt;Node26 -->
<g id="edge26" class="edge">
<title>Node9&#45;&gt;Node26</title>
<path fill="none" stroke="midnightblue" d="M2426.74,-128.14C2348.99,-119.03 2229.97,-104.1 2127.24,-87 2124.22,-86.5 2121.14,-85.96 2118.02,-85.4"/>
<polygon fill="midnightblue" stroke="midnightblue" points="2426.62,-131.65 2436.96,-129.33 2427.43,-124.7 2426.62,-131.65"/>
</g>
<!-- Node27 -->
<g id="node27" class="node">
<title>Node27</title>
<g id="a_node27"><a xlink:href="d__meter2_8cpp.html" target="_top" xlink:title=" ">
<polygon fill="white" stroke="black" points="2136.24,-62 2136.24,-81 2236.24,-81 2236.24,-62 2136.24,-62"/>
<text text-anchor="middle" x="2186.24" y="-69" font-family="Helvetica,sans-Serif" font-size="10.00">src/d/d_meter2.cpp</text>
</a>
</g>
</g>
<!-- Node9&#45;&gt;Node27 -->
<g id="edge27" class="edge">
<title>Node9&#45;&gt;Node27</title>
<path fill="none" stroke="midnightblue" d="M2427.29,-122.85C2374.94,-113.32 2305.96,-100.24 2245.24,-87 2236.89,-85.18 2227.92,-83.06 2219.56,-81.01"/>
<polygon fill="midnightblue" stroke="midnightblue" points="2426.74,-126.31 2437.2,-124.65 2427.99,-119.42 2426.74,-126.31"/>
</g>
<!-- Node28 -->
<g id="node28" class="node">
<title>Node28</title>
<g id="a_node28"><a xlink:href="d__save_8cpp.html" target="_top" xlink:title=" ">
<polygon fill="white" stroke="black" points="2254.74,-62 2254.74,-81 2379.74,-81 2379.74,-62 2254.74,-62"/>
<text text-anchor="middle" x="2317.24" y="-69" font-family="Helvetica,sans-Serif" font-size="10.00">src/d/d_save/d_save.cpp</text>
</a>
</g>
</g>
<!-- Node9&#45;&gt;Node28 -->
<g id="edge28" class="edge">
<title>Node9&#45;&gt;Node28</title>
<path fill="none" stroke="midnightblue" d="M2458.6,-120.11C2421.05,-107.46 2371.85,-90.89 2342.5,-81.01"/>
<polygon fill="midnightblue" stroke="midnightblue" points="2457.77,-123.52 2468.36,-123.4 2460,-116.89 2457.77,-123.52"/>
</g>
<!-- Node29 -->
<g id="node29" class="node">
<title>Node29</title>
<g id="a_node29"><a xlink:href="d__save__HIO_8cpp.html" target="_top" xlink:title=" ">
<polygon fill="white" stroke="black" points="2397.74,-56.5 2397.74,-86.5 2504.74,-86.5 2504.74,-56.5 2397.74,-56.5"/>
<text text-anchor="start" x="2405.74" y="-74.5" font-family="Helvetica,sans-Serif" font-size="10.00">src/d/d_save/d_save</text>
<text text-anchor="middle" x="2451.24" y="-63.5" font-family="Helvetica,sans-Serif" font-size="10.00">_HIO.cpp</text>
</a>
</g>
</g>
<!-- Node9&#45;&gt;Node29 -->
<g id="edge29" class="edge">
<title>Node9&#45;&gt;Node29</title>
<path fill="none" stroke="midnightblue" d="M2490.49,-115.74C2481.76,-106.12 2471.74,-95.09 2464.02,-86.58"/>
<polygon fill="midnightblue" stroke="midnightblue" points="2488.13,-118.34 2497.44,-123.4 2493.31,-113.64 2488.13,-118.34"/>
</g>
<!-- Node30 -->
<g id="node30" class="node">
<title>Node30</title>
<g id="a_node30"><a xlink:href="d__stage_8cpp.html" target="_top" xlink:title=" ">
<polygon fill="white" stroke="black" points="2523.24,-62 2523.24,-81 2617.24,-81 2617.24,-62 2523.24,-62"/>
<text text-anchor="middle" x="2570.24" y="-69" font-family="Helvetica,sans-Serif" font-size="10.00">src/d/d_stage.cpp</text>
</a>
</g>
</g>
<!-- Node9&#45;&gt;Node30 -->
<g id="edge30" class="edge">
<title>Node9&#45;&gt;Node30</title>
<path fill="none" stroke="midnightblue" d="M2530.09,-116C2541.04,-104.13 2554.04,-90.05 2562.21,-81.19"/>
<polygon fill="midnightblue" stroke="midnightblue" points="2527.47,-113.67 2523.26,-123.4 2532.61,-118.42 2527.47,-113.67"/>
</g>
<!-- Node31 -->
<g id="node31" class="node">
<title>Node31</title>
<g id="a_node31"><a xlink:href="f__op__actor__mng_8cpp.html" target="_top" xlink:title=" ">
<polygon fill="white" stroke="black" points="2635.74,-56.5 2635.74,-86.5 2742.74,-86.5 2742.74,-56.5 2635.74,-56.5"/>
<text text-anchor="start" x="2643.74" y="-74.5" font-family="Helvetica,sans-Serif" font-size="10.00">src/f/f_op/f_op_actor</text>
<text text-anchor="middle" x="2689.24" y="-63.5" font-family="Helvetica,sans-Serif" font-size="10.00">_mng.cpp</text>
</a>
</g>
</g>
<!-- Node9&#45;&gt;Node31 -->
<g id="edge31" class="edge">
<title>Node9&#45;&gt;Node31</title>
<path fill="none" stroke="midnightblue" d="M2558.56,-119.96C2587.39,-109.48 2623.52,-96.37 2650.48,-86.58"/>
<polygon fill="midnightblue" stroke="midnightblue" points="2557.29,-116.69 2549.08,-123.4 2559.68,-123.27 2557.29,-116.69"/>
</g>
<!-- Node32 -->
<g id="node32" class="node">
<title>Node32</title>
<g id="a_node32"><a xlink:href="f__op__camera_8cpp.html" target="_top" xlink:title=" ">
<polygon fill="white" stroke="black" points="2760.74,-62 2760.74,-81 2895.74,-81 2895.74,-62 2760.74,-62"/>
<text text-anchor="middle" x="2828.24" y="-69" font-family="Helvetica,sans-Serif" font-size="10.00">src/f/f_op/f_op_camera.cpp</text>
</a>
</g>
</g>
<!-- Node9&#45;&gt;Node32 -->
<g id="edge32" class="edge">
<title>Node9&#45;&gt;Node32</title>
<path fill="none" stroke="midnightblue" d="M2588.69,-121.47C2651.24,-108.68 2736.39,-91.27 2786.52,-81.03"/>
<polygon fill="midnightblue" stroke="midnightblue" points="2587.95,-118.04 2578.85,-123.48 2589.35,-124.9 2587.95,-118.04"/>
</g>
<!-- Node33 -->
<g id="node33" class="node">
<title>Node33</title>
<g id="a_node33"><a xlink:href="f__op__kankyo_8cpp.html" target="_top" xlink:title=" ">
<polygon fill="white" stroke="black" points="2914.24,-62 2914.24,-81 3048.24,-81 3048.24,-62 2914.24,-62"/>
<text text-anchor="middle" x="2981.24" y="-69" font-family="Helvetica,sans-Serif" font-size="10.00">src/f/f_op/f_op_kankyo.cpp</text>
</a>
</g>
</g>
<!-- Node9&#45;&gt;Node33 -->
<g id="edge33" class="edge">
<title>Node9&#45;&gt;Node33</title>
<path fill="none" stroke="midnightblue" d="M2593.63,-128.34C2673.72,-119.2 2798.03,-104.06 2905.24,-87 2916.25,-85.25 2928.11,-83.11 2939.11,-81.01"/>
<polygon fill="midnightblue" stroke="midnightblue" points="2593.14,-124.88 2583.6,-129.49 2593.93,-131.83 2593.14,-124.88"/>
</g>
<!-- Node34 -->
<g id="node34" class="node">
<title>Node34</title>
<g id="a_node34"><a xlink:href="f__op__kankyo__mng_8cpp.html" target="_top" xlink:title=" ">
<polygon fill="white" stroke="black" points="3066.24,-56.5 3066.24,-86.5 3182.24,-86.5 3182.24,-56.5 3066.24,-56.5"/>
<text text-anchor="start" x="3074.24" y="-74.5" font-family="Helvetica,sans-Serif" font-size="10.00">src/f/f_op/f_op_kankyo</text>
<text text-anchor="middle" x="3124.24" y="-63.5" font-family="Helvetica,sans-Serif" font-size="10.00">_mng.cpp</text>
</a>
</g>
</g>
<!-- Node9&#45;&gt;Node34 -->
<g id="edge34" class="edge">
<title>Node9&#45;&gt;Node34</title>
<path fill="none" stroke="midnightblue" d="M2593.72,-132.94C2701.33,-126.35 2894.01,-112.1 3057.24,-87 3060.18,-86.55 3063.19,-86.05 3066.22,-85.51"/>
<polygon fill="midnightblue" stroke="midnightblue" points="2593.35,-129.46 2583.58,-133.56 2593.77,-136.45 2593.35,-129.46"/>
</g>
<!-- Node35 -->
<g id="node35" class="node">
<title>Node35</title>
<g id="a_node35"><a xlink:href="f__op__msg__mng_8cpp.html" target="_top" xlink:title=" ">
<polygon fill="white" stroke="black" points="3200.24,-56.5 3200.24,-86.5 3304.24,-86.5 3304.24,-56.5 3200.24,-56.5"/>
<text text-anchor="start" x="3208.24" y="-74.5" font-family="Helvetica,sans-Serif" font-size="10.00">src/f/f_op/f_op_msg</text>
<text text-anchor="middle" x="3252.24" y="-63.5" font-family="Helvetica,sans-Serif" font-size="10.00">_mng.cpp</text>
</a>
</g>
</g>
<!-- Node9&#45;&gt;Node35 -->
<g id="edge35" class="edge">
<title>Node9&#45;&gt;Node35</title>
<path fill="none" stroke="midnightblue" d="M2593.68,-135.59C2722.56,-131.68 2977.51,-120.11 3191.24,-87 3194.15,-86.55 3197.12,-86.03 3200.11,-85.47"/>
<polygon fill="midnightblue" stroke="midnightblue" points="2593.38,-132.1 2583.49,-135.89 2593.59,-139.09 2593.38,-132.1"/>
</g>
<!-- Node36 -->
<g id="node36" class="node">
<title>Node36</title>
<g id="a_node36"><a xlink:href="f__pc__manager_8cpp.html" target="_top" xlink:title=" ">
<polygon fill="white" stroke="black" points="3322.24,-62 3322.24,-81 3462.24,-81 3462.24,-62 3322.24,-62"/>
<text text-anchor="middle" x="3392.24" y="-69" font-family="Helvetica,sans-Serif" font-size="10.00">src/f/f_pc/f_pc_manager.cpp</text>
</a>
</g>
</g>
<!-- Node9&#45;&gt;Node36 -->
<g id="edge36" class="edge">
<title>Node9&#45;&gt;Node36</title>
<path fill="none" stroke="midnightblue" d="M2593.54,-135.52C2739.73,-131.31 3051.76,-119.1 3313.24,-87 3325.56,-85.49 3338.86,-83.27 3350.97,-81.03"/>
<polygon fill="midnightblue" stroke="midnightblue" points="2593.21,-132.03 2583.31,-135.81 2593.4,-139.02 2593.21,-132.03"/>
</g>
<!-- Node37 -->
<g id="node37" class="node">
<title>Node37</title>
<g id="a_node37"><a xlink:href="m__Do__audio_8cpp.html" target="_top" xlink:title=" ">
<polygon fill="white" stroke="black" points="3480.24,-62 3480.24,-81 3614.24,-81 3614.24,-62 3480.24,-62"/>
<text text-anchor="middle" x="3547.24" y="-69" font-family="Helvetica,sans-Serif" font-size="10.00">src/m_Do/m_Do_audio.cpp</text>
</a>
</g>
</g>
<!-- Node9&#45;&gt;Node37 -->
<g id="edge37" class="edge">
<title>Node9&#45;&gt;Node37</title>
<path fill="none" stroke="midnightblue" d="M2593.68,-136.93C2760.82,-134.94 3148.36,-126.1 3471.24,-87 3483.24,-85.55 3496.2,-83.32 3507.95,-81.05"/>
<polygon fill="midnightblue" stroke="midnightblue" points="2593.43,-133.43 2583.47,-137.04 2593.51,-140.43 2593.43,-133.43"/>
</g>
<!-- Node38 -->
<g id="node38" class="node">
<title>Node38</title>
<g id="a_node38"><a xlink:href="m__Do__graphic_8cpp.html" target="_top" xlink:title=" ">
<polygon fill="white" stroke="black" points="3632.24,-62 3632.24,-81 3774.24,-81 3774.24,-62 3632.24,-62"/>
<text text-anchor="middle" x="3703.24" y="-69" font-family="Helvetica,sans-Serif" font-size="10.00">src/m_Do/m_Do_graphic.cpp</text>
</a>
</g>
</g>
<!-- Node9&#45;&gt;Node38 -->
<g id="edge38" class="edge">
<title>Node9&#45;&gt;Node38</title>
<path fill="none" stroke="midnightblue" d="M2593.66,-137.52C2779.29,-136.74 3240.3,-130.2 3623.24,-87 3636,-85.56 3649.8,-83.31 3662.29,-81.01"/>
<polygon fill="midnightblue" stroke="midnightblue" points="2593.42,-134.02 2583.43,-137.56 2593.44,-141.02 2593.42,-134.02"/>
</g>
<!-- Node39 -->
<g id="node39" class="node">
<title>Node39</title>
<g id="a_node39"><a xlink:href="m__Do__lib_8cpp.html" target="_top" xlink:title=" ">
<polygon fill="white" stroke="black" points="3792.24,-62 3792.24,-81 3912.24,-81 3912.24,-62 3792.24,-62"/>
<text text-anchor="middle" x="3852.24" y="-69" font-family="Helvetica,sans-Serif" font-size="10.00">src/m_Do/m_Do_lib.cpp</text>
</a>
</g>
</g>
<!-- Node9&#45;&gt;Node39 -->
<g id="edge39" class="edge">
<title>Node9&#45;&gt;Node39</title>
<path fill="none" stroke="midnightblue" d="M2593.91,-136.01C2838.91,-131.36 3551.97,-115.68 3783.24,-87 3794.42,-85.61 3806.47,-83.35 3817.33,-81.02"/>
<polygon fill="midnightblue" stroke="midnightblue" points="2593.58,-132.52 2583.65,-136.2 2593.71,-139.52 2593.58,-132.52"/>
</g>
<!-- Node40 -->
<g id="node40" class="node">
<title>Node40</title>
<g id="a_node40"><a xlink:href="m__Do__machine__exception_8cpp.html" target="_top" xlink:title=" ">
<polygon fill="white" stroke="black" points="3930.74,-56.5 3930.74,-86.5 4059.74,-86.5 4059.74,-56.5 3930.74,-56.5"/>
<text text-anchor="start" x="3938.74" y="-74.5" font-family="Helvetica,sans-Serif" font-size="10.00">src/m_Do/m_Do_machine</text>
<text text-anchor="middle" x="3995.24" y="-63.5" font-family="Helvetica,sans-Serif" font-size="10.00">_exception.cpp</text>
</a>
</g>
</g>
<!-- Node9&#45;&gt;Node40 -->
<g id="edge40" class="edge">
<title>Node9&#45;&gt;Node40</title>
<path fill="none" stroke="midnightblue" d="M2593.78,-136.24C2856.17,-132.01 3661.71,-116.88 3921.24,-87 3924.23,-86.66 3927.28,-86.26 3930.36,-85.81"/>
<polygon fill="midnightblue" stroke="midnightblue" points="2593.5,-132.74 2583.56,-136.4 2593.61,-139.74 2593.5,-132.74"/>
</g>
<!-- Node41 -->
<g id="node41" class="node">
<title>Node41</title>
<g id="a_node41"><a xlink:href="m__Do__main_8cpp.html" target="_top" xlink:title=" ">
<polygon fill="white" stroke="black" points="4077.74,-62 4077.74,-81 4208.74,-81 4208.74,-62 4077.74,-62"/>
<text text-anchor="middle" x="4143.24" y="-69" font-family="Helvetica,sans-Serif" font-size="10.00">src/m_Do/m_Do_main.cpp</text>
</a>
</g>
</g>
<!-- Node9&#45;&gt;Node41 -->
<g id="edge41" class="edge">
<title>Node9&#45;&gt;Node41</title>
<path fill="none" stroke="midnightblue" d="M2593.33,-136.58C2873.08,-133.19 3779.36,-119.88 4069.24,-87 4081.21,-85.64 4094.13,-83.39 4105.78,-81.06"/>
<polygon fill="midnightblue" stroke="midnightblue" points="2593.2,-133.08 2583.25,-136.7 2593.29,-140.08 2593.2,-133.08"/>
</g>
<!-- Node42 -->
<g id="node42" class="node">
<title>Node42</title>
<g id="a_node42"><a xlink:href="m__Do__MemCardRWmng_8cpp.html" target="_top" xlink:title=" ">
<polygon fill="white" stroke="black" points="4226.74,-62 4226.74,-81 4413.74,-81 4413.74,-62 4226.74,-62"/>
<text text-anchor="middle" x="4320.24" y="-69" font-family="Helvetica,sans-Serif" font-size="10.00">src/m_Do/m_Do_MemCardRWmng.cpp</text>
</a>
</g>
</g>
<!-- Node9&#45;&gt;Node42 -->
<g id="edge42" class="edge">
<title>Node9&#45;&gt;Node42</title>
<path fill="none" stroke="midnightblue" d="M2593.53,-136.27C2890.53,-131.7 3897.1,-114.49 4218.24,-87 4234.64,-85.6 4252.42,-83.33 4268.48,-81"/>
<polygon fill="midnightblue" stroke="midnightblue" points="2593.21,-132.78 2583.26,-136.43 2593.32,-139.77 2593.21,-132.78"/>
</g>
<!-- Node43 -->
<g id="node43" class="node">
<title>Node43</title>
<g id="a_node43"><a xlink:href="m__Do__ext_8cpp.html" target="_top" xlink:title=" ">
<polygon fill="white" stroke="black" points="4431.74,-62 4431.74,-81 4554.74,-81 4554.74,-62 4431.74,-62"/>
<text text-anchor="middle" x="4493.24" y="-69" font-family="Helvetica,sans-Serif" font-size="10.00">src/m_Do/m_Do_ext.cpp</text>
</a>
</g>
</g>
<!-- Node9&#45;&gt;Node43 -->
<g id="edge43" class="edge">
<title>Node9&#45;&gt;Node43</title>
<path fill="none" stroke="midnightblue" d="M2593.49,-137.27C2913.01,-136.09 4060.95,-128.97 4423.24,-87 4434.71,-85.67 4447.08,-83.4 4458.19,-81.03"/>
<polygon fill="midnightblue" stroke="midnightblue" points="2593.37,-133.77 2583.38,-137.31 2593.39,-140.77 2593.37,-133.77"/>
</g>
<!-- Node44 -->
<g id="node44" class="node">
<title>Node44</title>
<g id="a_node44"><a xlink:href="Z2EnvSeMgr_8cpp.html" target="_top" xlink:title=" ">
<polygon fill="white" stroke="black" points="4572.74,-62 4572.74,-81 4733.74,-81 4733.74,-62 4572.74,-62"/>
<text text-anchor="middle" x="4653.24" y="-69" font-family="Helvetica,sans-Serif" font-size="10.00">libs/Z2AudioLib/Z2EnvSeMgr.cpp</text>
</a>
</g>
</g>
<!-- Node9&#45;&gt;Node44 -->
<g id="edge44" class="edge">
<title>Node9&#45;&gt;Node44</title>
<path fill="none" stroke="midnightblue" d="M2593.37,-136.98C2927.31,-134.64 4171.97,-123.6 4564.24,-87 4578.74,-85.65 4594.45,-83.36 4608.57,-81"/>
<polygon fill="midnightblue" stroke="midnightblue" points="2593.26,-133.48 2583.29,-137.05 2593.31,-140.48 2593.26,-133.48"/>
</g>
<!-- Node45 -->
<g id="node45" class="node">
<title>Node45</title>
<g id="a_node45"><a xlink:href="Z2LinkMgr_8cpp.html" target="_top" xlink:title=" ">
<polygon fill="white" stroke="black" points="4752.24,-62 4752.24,-81 4904.24,-81 4904.24,-62 4752.24,-62"/>
<text text-anchor="middle" x="4828.24" y="-69" font-family="Helvetica,sans-Serif" font-size="10.00">libs/Z2AudioLib/Z2LinkMgr.cpp</text>
</a>
</g>
</g>
<!-- Node9&#45;&gt;Node45 -->
<g id="edge45" class="edge">
<title>Node9&#45;&gt;Node45</title>
<path fill="none" stroke="midnightblue" d="M2593.51,-137.25C2945.64,-135.94 4314.07,-128.23 4743.24,-87 4757.1,-85.67 4772.11,-83.39 4785.6,-81.03"/>
<polygon fill="midnightblue" stroke="midnightblue" points="2593.37,-133.75 2583.39,-137.29 2593.4,-140.75 2593.37,-133.75"/>
</g>
<!-- Node46 -->
<g id="node46" class="node">
<title>Node46</title>
<g id="a_node46"><a xlink:href="Z2SceneMgr_8cpp.html" target="_top" xlink:title=" ">
<polygon fill="white" stroke="black" points="4922.74,-62 4922.74,-81 5083.74,-81 5083.74,-62 4922.74,-62"/>
<text text-anchor="middle" x="5003.24" y="-69" font-family="Helvetica,sans-Serif" font-size="10.00">libs/Z2AudioLib/Z2SceneMgr.cpp</text>
</a>
</g>
</g>
<!-- Node9&#45;&gt;Node46 -->
<g id="edge46" class="edge">
<title>Node9&#45;&gt;Node46</title>
<path fill="none" stroke="midnightblue" d="M2593.37,-137.3C2961.66,-136.19 4448.51,-129.11 4913.24,-87 4927.9,-85.67 4943.78,-83.39 4958.07,-81.03"/>
<polygon fill="midnightblue" stroke="midnightblue" points="2593.31,-133.8 2583.32,-137.33 2593.33,-140.8 2593.31,-133.8"/>
</g>
<!-- Node47 -->
<g id="node47" class="node">
<title>Node47</title>
<g id="a_node47"><a xlink:href="Z2SoundMgr_8cpp.html" target="_top" xlink:title=" ">
<polygon fill="white" stroke="black" points="5101.74,-62 5101.74,-81 5262.74,-81 5262.74,-62 5101.74,-62"/>
<text text-anchor="middle" x="5182.24" y="-69" font-family="Helvetica,sans-Serif" font-size="10.00">libs/Z2AudioLib/Z2SoundMgr.cpp</text>
</a>
</g>
</g>
<!-- Node9&#45;&gt;Node47 -->
<g id="edge47" class="edge">
<title>Node9&#45;&gt;Node47</title>
<path fill="none" stroke="midnightblue" d="M2593.48,-137.46C2978.73,-137.05 4591.11,-132.58 5093.24,-87 5107.74,-85.68 5123.45,-83.41 5137.58,-81.05"/>
<polygon fill="midnightblue" stroke="midnightblue" points="2593.25,-133.96 2583.26,-137.47 2593.26,-140.96 2593.25,-133.96"/>
</g>
<!-- Node48 -->
<g id="node48" class="node">
<title>Node48</title>
<g id="a_node48"><a xlink:href="Z2StatusMgr_8cpp.html" target="_top" xlink:title=" ">
<polygon fill="white" stroke="black" points="5280.74,-56.5 5280.74,-86.5 5407.74,-86.5 5407.74,-56.5 5280.74,-56.5"/>
<text text-anchor="start" x="5288.74" y="-74.5" font-family="Helvetica,sans-Serif" font-size="10.00">libs/Z2AudioLib/Z2Status</text>
<text text-anchor="middle" x="5344.24" y="-63.5" font-family="Helvetica,sans-Serif" font-size="10.00">Mgr.cpp</text>
</a>
</g>
</g>
<!-- Node9&#45;&gt;Node48 -->
<g id="edge48" class="edge">
<title>Node9&#45;&gt;Node48</title>
<path fill="none" stroke="midnightblue" d="M2593.66,-136.87C3025.84,-133.5 5000.75,-116.57 5272.24,-87 5275.03,-86.7 5277.87,-86.34 5280.73,-85.94"/>
<polygon fill="midnightblue" stroke="midnightblue" points="2593.41,-133.37 2583.44,-136.95 2593.46,-140.37 2593.41,-133.37"/>
</g>
<!-- Node49 -->
<g id="node49" class="node">
<title>Node49</title>
<g id="a_node49"><a xlink:href="d__a__alink_8h.html" target="_top" xlink:title=" ">
<polygon fill="white" stroke="red" points="5425.74,-56.5 5425.74,-86.5 5544.74,-86.5 5544.74,-56.5 5425.74,-56.5"/>
<text text-anchor="start" x="5433.74" y="-74.5" font-family="Helvetica,sans-Serif" font-size="10.00">include/d/d_a/d_a_alink</text>
<text text-anchor="middle" x="5485.24" y="-63.5" font-family="Helvetica,sans-Serif" font-size="10.00">/d_a_alink.h</text>
</a>
</g>
</g>
<!-- Node9&#45;&gt;Node49 -->
<g id="edge49" class="edge">
<title>Node9&#45;&gt;Node49</title>
<path fill="none" stroke="midnightblue" d="M2593.67,-137.01C3039.46,-134.27 5130.74,-119.72 5417.24,-87 5420,-86.68 5422.81,-86.31 5425.64,-85.89"/>
<polygon fill="midnightblue" stroke="midnightblue" points="2593.43,-133.51 2583.45,-137.07 2593.47,-140.51 2593.43,-133.51"/>
</g>
<!-- Node49&#45;&gt;Node10 -->
<g id="edge50" class="edge">
<title>Node49&#45;&gt;Node10</title>
<path fill="none" stroke="midnightblue" d="M5415.63,-56.05C5102.82,-25.01 3140.73,-13.17 2789.89,-11.28"/>
<polygon fill="midnightblue" stroke="midnightblue" points="5415.33,-59.53 5425.64,-57.11 5416.07,-52.57 5415.33,-59.53"/>
</g>
<!-- Node55&#45;&gt;Node8 -->
<g id="edge52" class="edge">
<title>Node55&#45;&gt;Node8</title>
<path fill="none" stroke="midnightblue" d="M2556.07,-250.31C2545.87,-240.56 2534.05,-229.26 2524.97,-220.58"/>
<polygon fill="midnightblue" stroke="midnightblue" points="2553.84,-253.02 2563.49,-257.4 2558.68,-247.96 2553.84,-253.02"/>
</g>
</g>
</svg>
        <g id="navigator" transform="translate(0 0)" fill="#404254">
                <rect fill="#f2f5e9" fill-opacity="0.5" stroke="#606060" stroke-width=".5" x="0" y="0" width="60" height="60"/>
                <use id="zoomplus" xlink:href="#zoomPlus" x="17" y="9" onmousedown="handleZoom(evt,'in')"/>
                <use id="zoomminus" xlink:href="#zoomMin" x="42" y="9" onmousedown="handleZoom(evt,'out')"/>
                <use id="reset" xlink:href="#resetDef" x="30" y="36" onmousedown="handleReset()"/>
                <g id="arrowUp" xlink:href="#dirArrow" transform="translate(30 24)" onmousedown="handlePan(0,-1)">
                  <use xlink:href="#rim" fill="#404040">
                        <set attributeName="fill" to="#808080" begin="arrowUp.mouseover" end="arrowUp.mouseout"/>
                  </use>
                  <path fill="none" stroke="white" stroke-width="1.5" d="M0,-3.0v7 M-2.5,-0.5L0,-3.0L2.5,-0.5"/>
                </g>
                <g id="arrowRight" xlink:href="#dirArrow" transform="rotate(90) translate(36 -43)" onmousedown="handlePan(1,0)">
                  <use xlink:href="#rim" fill="#404040">
                        <set attributeName="fill" to="#808080" begin="arrowRight.mouseover" end="arrowRight.mouseout"/>
                  </use>
                  <path fill="none" stroke="white" stroke-width="1.5" d="M0,-3.0v7 M-2.5,-0.5L0,-3.0L2.5,-0.5"/>
                </g>
                <g id="arrowDown" xlink:href="#dirArrow" transform="rotate(180) translate(-30 -48)" onmousedown="handlePan(0,1)">
                  <use xlink:href="#rim" fill="#404040">
                        <set attributeName="fill" to="#808080" begin="arrowDown.mouseover" end="arrowDown.mouseout"/>
                  </use>
                  <path fill="none" stroke="white" stroke-width="1.5" d="M0,-3.0v7 M-2.5,-0.5L0,-3.0L2.5,-0.5"/>
                </g>
                <g id="arrowLeft" xlink:href="#dirArrow" transform="rotate(270) translate(-36 17)" onmousedown="handlePan(-1,0)">
                  <use xlink:href="#rim" fill="#404040">
                        <set attributeName="fill" to="#808080" begin="arrowLeft.mouseover" end="arrowLeft.mouseout"/>
                  </use>
                  <path fill="none" stroke="white" stroke-width="1.5" d="M0,-3.0v7 M-2.5,-0.5L0,-3.0L2.5,-0.5"/>
                </g>
        </g>
        <svg viewBox="0 0 15 15" width="100%" height="30px" preserveAspectRatio="xMaxYMin meet">
         <g id="arrow_out" transform="scale(0.3 0.3)">
          <a xlink:href="c__m3d__g__lin_8h__dep__incl_org.svg" target="_base">
           <rect id="button" ry="5" rx="5" y="6" x="6" height="38" width="38"
                fill="#f2f5e9" fill-opacity="0.5" stroke="#606060" stroke-width="1.0"/>
           <path id="arrow"
             d="M 11.500037,31.436501 C 11.940474,20.09759 22.043105,11.32322 32.158766,21.979434 L 37.068811,17.246167 C 37.068811,17.246167 37.088388,32 37.088388,32 L 22.160133,31.978069 C 22.160133,31.978069 26.997745,27.140456 26.997745,27.140456 C 18.528582,18.264221 13.291696,25.230495 11.500037,31.436501 z"
             style="fill:#404040;"/>
          </a>
         </g>
        </svg>
</svg>
