<?xml version="1.0" encoding="UTF-8" standalone="no"?>
<!DOCTYPE svg PUBLIC "-//W3C//DTD SVG 1.1//EN"
 "http://www.w3.org/Graphics/SVG/1.1/DTD/svg11.dtd">
<!-- Generated by graphviz version 2.46.0 (20210122.1329)
 -->
<!-- Title: include/SComponent/c_node_iter.h Pages: 1 -->
<!--zoomable 240 -->
<svg id="main" version="1.1" xmlns="http://www.w3.org/2000/svg" xmlns:xlink="http://www.w3.org/1999/xlink" xml:space="preserve" onload="init(evt)">
<style type="text/css"><![CDATA[
.edge:hover path { stroke: red; }
.edge:hover polygon { stroke: red; fill: red; }
]]></style>
<script type="text/javascript"><![CDATA[
var edges = document.getElementsByTagName('g');
if (edges && edges.length) {
  for (var i=0;i<edges.length;i++) {
    if (edges[i].id.substr(0,4)=='edge') {
      edges[i].setAttribute('class','edge');
    }
  }
}
]]></script>
        <defs>
                <circle id="rim" cx="0" cy="0" r="7"/>
                <circle id="rim2" cx="0" cy="0" r="3.5"/>
                <g id="zoomPlus">
                        <use xlink:href="#rim" fill="#404040">
                                <set attributeName="fill" to="#808080" begin="zoomplus.mouseover" end="zoomplus.mouseout"/>
                        </use>
                        <path d="M-4,0h8M0,-4v8" fill="none" stroke="white" stroke-width="1.5" pointer-events="none"/>
                </g>
                <g id="zoomMin">
                        <use xlink:href="#rim" fill="#404040">
                                <set attributeName="fill" to="#808080" begin="zoomminus.mouseover" end="zoomminus.mouseout"/>
                        </use>
                        <path d="M-4,0h8" fill="none" stroke="white" stroke-width="1.5" pointer-events="none"/>
                </g>
                <g id="dirArrow">
                        <path fill="none" stroke="white" stroke-width="1.5" d="M0,-3.0v7 M-2.5,-0.5L0,-3.0L2.5,-0.5"/>
                </g>
               <g id="resetDef">
                       <use xlink:href="#rim2" fill="#404040">
                               <set attributeName="fill" to="#808080" begin="reset.mouseover" end="reset.mouseout"/>
                       </use>
               </g>
        </defs>

<script type="text/javascript">
var viewWidth = 2196;
var viewHeight = 240;
var sectionId = 'dynsection-1';
</script>
<script xlink:href="svgpan.js"/>
<svg id="graph" class="graph">
<g id="viewport">
<title>include/SComponent/c_node_iter.h</title>
<polygon fill="white" stroke="transparent" points="-4,4 -4,-236 2191.5,-236 2191.5,4 -4,4"/>
<!-- Node1 -->
<g id="node1" class="node">
<title>Node1</title>
<g id="a_node1"><a xlink:title=" ">
<polygon fill="#bfbfbf" stroke="black" points="617.5,-201.5 617.5,-231.5 724.5,-231.5 724.5,-201.5 617.5,-201.5"/>
<text text-anchor="start" x="625.5" y="-219.5" font-family="Helvetica,sans-Serif" font-size="10.00">include/SComponent</text>
<text text-anchor="middle" x="671" y="-208.5" font-family="Helvetica,sans-Serif" font-size="10.00">/c_node_iter.h</text>
</a>
</g>
</g>
<!-- Node2 -->
<g id="node2" class="node">
<title>Node2</title>
<g id="a_node2"><a xlink:href="c__node__iter_8cpp.html" target="_top" xlink:title=" ">
<polygon fill="white" stroke="black" points="109,-134.5 109,-164.5 243,-164.5 243,-134.5 109,-134.5"/>
<text text-anchor="start" x="117" y="-152.5" font-family="Helvetica,sans-Serif" font-size="10.00">libs/SSystem/SComponent</text>
<text text-anchor="middle" x="176" y="-141.5" font-family="Helvetica,sans-Serif" font-size="10.00">/c_node_iter.cpp</text>
</a>
</g>
</g>
<!-- Node1&#45;&gt;Node2 -->
<g id="edge1" class="edge">
<title>Node1&#45;&gt;Node2</title>
<path fill="none" stroke="midnightblue" d="M607.31,-209.2C525.03,-200.74 377.45,-184.5 252,-165 249.08,-164.55 246.1,-164.06 243.09,-163.56"/>
<polygon fill="midnightblue" stroke="midnightblue" points="606.96,-212.68 617.26,-210.22 607.67,-205.72 606.96,-212.68"/>
</g>
<!-- Node3 -->
<g id="node3" class="node">
<title>Node3</title>
<g id="a_node3"><a xlink:href="f__pc__draw_8h.html" target="_top" xlink:title=" ">
<polygon fill="white" stroke="black" points="261.5,-134.5 261.5,-164.5 358.5,-164.5 358.5,-134.5 261.5,-134.5"/>
<text text-anchor="start" x="269.5" y="-152.5" font-family="Helvetica,sans-Serif" font-size="10.00">include/f/f_pc/f_pc</text>
<text text-anchor="middle" x="310" y="-141.5" font-family="Helvetica,sans-Serif" font-size="10.00">_draw.h</text>
</a>
</g>
</g>
<!-- Node1&#45;&gt;Node3 -->
<g id="edge2" class="edge">
<title>Node1&#45;&gt;Node3</title>
<path fill="none" stroke="midnightblue" d="M607.5,-206.55C545.8,-197.48 449.58,-182.33 367,-165 364.3,-164.43 361.54,-163.83 358.75,-163.19"/>
<polygon fill="midnightblue" stroke="midnightblue" points="607.08,-210.02 617.48,-208.01 608.09,-203.1 607.08,-210.02"/>
</g>
<!-- Node5 -->
<g id="node5" class="node">
<title>Node5</title>
<g id="a_node5"><a xlink:href="f__pc__executor_8h.html" target="_top" xlink:title=" ">
<polygon fill="white" stroke="black" points="376.5,-134.5 376.5,-164.5 473.5,-164.5 473.5,-134.5 376.5,-134.5"/>
<text text-anchor="start" x="384.5" y="-152.5" font-family="Helvetica,sans-Serif" font-size="10.00">include/f/f_pc/f_pc</text>
<text text-anchor="middle" x="425" y="-141.5" font-family="Helvetica,sans-Serif" font-size="10.00">_executor.h</text>
</a>
</g>
</g>
<!-- Node1&#45;&gt;Node5 -->
<g id="edge4" class="edge">
<title>Node1&#45;&gt;Node5</title>
<path fill="none" stroke="midnightblue" d="M608.13,-198.89C566.36,-187.85 512.33,-173.57 473.8,-163.39"/>
<polygon fill="midnightblue" stroke="midnightblue" points="607.36,-202.31 617.92,-201.48 609.15,-195.54 607.36,-202.31"/>
</g>
<!-- Node11 -->
<g id="node11" class="node">
<title>Node11</title>
<g id="a_node11"><a xlink:href="f__pc__layer__iter_8h.html" target="_top" xlink:title=" ">
<polygon fill="white" stroke="black" points="775.5,-134.5 775.5,-164.5 872.5,-164.5 872.5,-134.5 775.5,-134.5"/>
<text text-anchor="start" x="783.5" y="-152.5" font-family="Helvetica,sans-Serif" font-size="10.00">include/f/f_pc/f_pc</text>
<text text-anchor="middle" x="824" y="-141.5" font-family="Helvetica,sans-Serif" font-size="10.00">_layer_iter.h</text>
</a>
</g>
</g>
<!-- Node1&#45;&gt;Node11 -->
<g id="edge10" class="edge">
<title>Node1&#45;&gt;Node11</title>
<path fill="none" stroke="midnightblue" d="M713.59,-197.41C738.02,-187.03 768.22,-174.2 790.87,-164.58"/>
<polygon fill="midnightblue" stroke="midnightblue" points="712.03,-194.26 704.2,-201.4 714.77,-200.71 712.03,-194.26"/>
</g>
<!-- Node15 -->
<g id="node15" class="node">
<title>Node15</title>
<g id="a_node15"><a xlink:href="f__pc__line__iter_8h.html" target="_top" xlink:title=" ">
<polygon fill="white" stroke="black" points="491.5,-134.5 491.5,-164.5 588.5,-164.5 588.5,-134.5 491.5,-134.5"/>
<text text-anchor="start" x="499.5" y="-152.5" font-family="Helvetica,sans-Serif" font-size="10.00">include/f/f_pc/f_pc</text>
<text text-anchor="middle" x="540" y="-141.5" font-family="Helvetica,sans-Serif" font-size="10.00">_line_iter.h</text>
</a>
</g>
</g>
<!-- Node1&#45;&gt;Node15 -->
<g id="edge17" class="edge">
<title>Node1&#45;&gt;Node15</title>
<path fill="none" stroke="midnightblue" d="M633.42,-196.85C612.71,-186.58 587.41,-174.03 568.37,-164.58"/>
<polygon fill="midnightblue" stroke="midnightblue" points="632.06,-200.09 642.57,-201.4 635.17,-193.82 632.06,-200.09"/>
</g>
<!-- Node16 -->
<g id="node16" class="node">
<title>Node16</title>
<g id="a_node16"><a xlink:href="f__pc__manager_8h.html" target="_top" xlink:title=" ">
<polygon fill="white" stroke="black" points="622.5,-134.5 622.5,-164.5 719.5,-164.5 719.5,-134.5 622.5,-134.5"/>
<text text-anchor="start" x="630.5" y="-152.5" font-family="Helvetica,sans-Serif" font-size="10.00">include/f/f_pc/f_pc</text>
<text text-anchor="middle" x="671" y="-141.5" font-family="Helvetica,sans-Serif" font-size="10.00">_manager.h</text>
</a>
</g>
</g>
<!-- Node1&#45;&gt;Node16 -->
<g id="edge20" class="edge">
<title>Node1&#45;&gt;Node16</title>
<path fill="none" stroke="midnightblue" d="M671,-191.11C671,-182.15 671,-172.32 671,-164.58"/>
<polygon fill="midnightblue" stroke="midnightblue" points="667.5,-191.4 671,-201.4 674.5,-191.4 667.5,-191.4"/>
</g>
<!-- Node18 -->
<g id="node18" class="node">
<title>Node18</title>
<g id="a_node18"><a xlink:href="c__list__iter_8h.html" target="_top" xlink:title=" ">
<polygon fill="white" stroke="black" points="1590.5,-134.5 1590.5,-164.5 1697.5,-164.5 1697.5,-134.5 1590.5,-134.5"/>
<text text-anchor="start" x="1598.5" y="-152.5" font-family="Helvetica,sans-Serif" font-size="10.00">include/SComponent</text>
<text text-anchor="middle" x="1644" y="-141.5" font-family="Helvetica,sans-Serif" font-size="10.00">/c_list_iter.h</text>
</a>
</g>
</g>
<!-- Node1&#45;&gt;Node18 -->
<g id="edge23" class="edge">
<title>Node1&#45;&gt;Node18</title>
<path fill="none" stroke="midnightblue" d="M734.89,-215.61C883.79,-215.08 1265.11,-209.1 1580,-165 1583.38,-164.53 1586.86,-163.96 1590.34,-163.34"/>
<polygon fill="midnightblue" stroke="midnightblue" points="734.57,-212.11 724.58,-215.64 734.59,-219.11 734.57,-212.11"/>
</g>
<!-- Node26 -->
<g id="node26" class="node">
<title>Node26</title>
<g id="a_node26"><a xlink:href="c__tag__iter_8h.html" target="_top" xlink:title=" ">
<polygon fill="white" stroke="black" points="1334.5,-134.5 1334.5,-164.5 1441.5,-164.5 1441.5,-134.5 1334.5,-134.5"/>
<text text-anchor="start" x="1342.5" y="-152.5" font-family="Helvetica,sans-Serif" font-size="10.00">include/SComponent</text>
<text text-anchor="middle" x="1388" y="-141.5" font-family="Helvetica,sans-Serif" font-size="10.00">/c_tag_iter.h</text>
</a>
</g>
</g>
<!-- Node1&#45;&gt;Node26 -->
<g id="edge33" class="edge">
<title>Node1&#45;&gt;Node26</title>
<path fill="none" stroke="midnightblue" d="M734.71,-209.72C874.23,-197.08 1204.68,-167.12 1334.4,-155.36"/>
<polygon fill="midnightblue" stroke="midnightblue" points="734.24,-206.25 724.6,-210.64 734.87,-213.22 734.24,-206.25"/>
</g>
<!-- Node29 -->
<g id="node29" class="node">
<title>Node29</title>
<g id="a_node29"><a xlink:href="c__tree__iter_8h.html" target="_top" xlink:title=" ">
<polygon fill="white" stroke="black" points="1464.5,-134.5 1464.5,-164.5 1571.5,-164.5 1571.5,-134.5 1464.5,-134.5"/>
<text text-anchor="start" x="1472.5" y="-152.5" font-family="Helvetica,sans-Serif" font-size="10.00">include/SComponent</text>
<text text-anchor="middle" x="1518" y="-141.5" font-family="Helvetica,sans-Serif" font-size="10.00">/c_tree_iter.h</text>
</a>
</g>
</g>
<!-- Node1&#45;&gt;Node29 -->
<g id="edge38" class="edge">
<title>Node1&#45;&gt;Node29</title>
<path fill="none" stroke="midnightblue" d="M734.67,-214.5C867.99,-211.72 1186.03,-201.5 1450,-165 1454.66,-164.36 1459.48,-163.57 1464.31,-162.7"/>
<polygon fill="midnightblue" stroke="midnightblue" points="734.56,-211 724.63,-214.7 734.7,-218 734.56,-211"/>
</g>
<!-- Node4 -->
<g id="node4" class="node">
<title>Node4</title>
<g id="a_node4"><a xlink:href="f__pc__draw_8cpp.html" target="_top" xlink:title=" ">
<polygon fill="white" stroke="black" points="0,-73 0,-92 124,-92 124,-73 0,-73"/>
<text text-anchor="middle" x="62" y="-80" font-family="Helvetica,sans-Serif" font-size="10.00">src/f/f_pc/f_pc_draw.cpp</text>
</a>
</g>
</g>
<!-- Node3&#45;&gt;Node4 -->
<g id="edge3" class="edge">
<title>Node3&#45;&gt;Node4</title>
<path fill="none" stroke="midnightblue" d="M251.48,-133.16C202.57,-120.34 134.61,-102.53 94.77,-92.09"/>
<polygon fill="midnightblue" stroke="midnightblue" points="250.74,-136.59 261.3,-135.74 252.51,-129.81 250.74,-136.59"/>
</g>
<!-- Node6 -->
<g id="node6" class="node">
<title>Node6</title>
<g id="a_node6"><a xlink:href="f__pc__create__req_8cpp.html" target="_top" xlink:title=" ">
<polygon fill="white" stroke="black" points="837,-0.5 837,-30.5 949,-30.5 949,-0.5 837,-0.5"/>
<text text-anchor="start" x="845" y="-18.5" font-family="Helvetica,sans-Serif" font-size="10.00">src/f/f_pc/f_pc_create</text>
<text text-anchor="middle" x="893" y="-7.5" font-family="Helvetica,sans-Serif" font-size="10.00">_req.cpp</text>
</a>
</g>
</g>
<!-- Node5&#45;&gt;Node6 -->
<g id="edge5" class="edge">
<title>Node5&#45;&gt;Node6</title>
<path fill="none" stroke="midnightblue" d="M366.66,-132.87C336.32,-123.44 303.76,-110.8 295,-98 287.22,-86.63 285.68,-77.14 295,-67 331.24,-27.57 695.07,-18.9 836.86,-17.02"/>
<polygon fill="midnightblue" stroke="midnightblue" points="365.81,-136.27 376.4,-135.82 367.84,-129.57 365.81,-136.27"/>
</g>
<!-- Node7 -->
<g id="node7" class="node">
<title>Node7</title>
<g id="a_node7"><a xlink:href="f__pc__deletor_8cpp.html" target="_top" xlink:title=" ">
<polygon fill="white" stroke="black" points="758,-73 758,-92 890,-92 890,-73 758,-73"/>
<text text-anchor="middle" x="824" y="-80" font-family="Helvetica,sans-Serif" font-size="10.00">src/f/f_pc/f_pc_deletor.cpp</text>
</a>
</g>
</g>
<!-- Node5&#45;&gt;Node7 -->
<g id="edge6" class="edge">
<title>Node5&#45;&gt;Node7</title>
<path fill="none" stroke="midnightblue" d="M483.81,-133.77C600.88,-111.56 633.47,-116.66 748,-98 758.87,-96.23 770.58,-94.1 781.46,-92.03"/>
<polygon fill="midnightblue" stroke="midnightblue" points="482.89,-130.39 473.73,-135.71 484.22,-137.26 482.89,-130.39"/>
</g>
<!-- Node8 -->
<g id="node8" class="node">
<title>Node8</title>
<g id="a_node8"><a xlink:href="f__pc__executor_8cpp.html" target="_top" xlink:title=" ">
<polygon fill="white" stroke="black" points="304,-73 304,-92 444,-92 444,-73 304,-73"/>
<text text-anchor="middle" x="374" y="-80" font-family="Helvetica,sans-Serif" font-size="10.00">src/f/f_pc/f_pc_executor.cpp</text>
</a>
</g>
</g>
<!-- Node5&#45;&gt;Node8 -->
<g id="edge7" class="edge">
<title>Node5&#45;&gt;Node8</title>
<path fill="none" stroke="midnightblue" d="M407.59,-126.32C398.4,-114.6 387.64,-100.88 380.82,-92.19"/>
<polygon fill="midnightblue" stroke="midnightblue" points="405.01,-128.69 413.93,-134.4 410.51,-124.37 405.01,-128.69"/>
</g>
<!-- Node9 -->
<g id="node9" class="node">
<title>Node9</title>
<g id="a_node9"><a xlink:href="f__pc__manager_8cpp.html" target="_top" xlink:title=" ">
<polygon fill="white" stroke="black" points="462,-73 462,-92 602,-92 602,-73 462,-73"/>
<text text-anchor="middle" x="532" y="-80" font-family="Helvetica,sans-Serif" font-size="10.00">src/f/f_pc/f_pc_manager.cpp</text>
</a>
</g>
</g>
<!-- Node5&#45;&gt;Node9 -->
<g id="edge8" class="edge">
<title>Node5&#45;&gt;Node9</title>
<path fill="none" stroke="midnightblue" d="M456.87,-129.14C477.2,-116.79 502.55,-101.39 518,-92.01"/>
<polygon fill="midnightblue" stroke="midnightblue" points="454.95,-126.21 448.22,-134.4 458.58,-132.2 454.95,-126.21"/>
</g>
<!-- Node10 -->
<g id="node10" class="node">
<title>Node10</title>
<g id="a_node10"><a xlink:href="f__pc__node__req_8cpp.html" target="_top" xlink:title=" ">
<polygon fill="white" stroke="black" points="142,-67.5 142,-97.5 248,-97.5 248,-67.5 142,-67.5"/>
<text text-anchor="start" x="150" y="-85.5" font-family="Helvetica,sans-Serif" font-size="10.00">src/f/f_pc/f_pc_node</text>
<text text-anchor="middle" x="195" y="-74.5" font-family="Helvetica,sans-Serif" font-size="10.00">_req.cpp</text>
</a>
</g>
</g>
<!-- Node5&#45;&gt;Node10 -->
<g id="edge9" class="edge">
<title>Node5&#45;&gt;Node10</title>
<path fill="none" stroke="midnightblue" d="M366.43,-131.95C328.87,-121.33 280.63,-107.7 244.9,-97.6"/>
<polygon fill="midnightblue" stroke="midnightblue" points="365.65,-135.36 376.22,-134.72 367.55,-128.63 365.65,-135.36"/>
</g>
<!-- Node11&#45;&gt;Node7 -->
<g id="edge11" class="edge">
<title>Node11&#45;&gt;Node7</title>
<path fill="none" stroke="midnightblue" d="M824,-124.25C824,-113.02 824,-100.38 824,-92.19"/>
<polygon fill="midnightblue" stroke="midnightblue" points="820.5,-124.4 824,-134.4 827.5,-124.4 820.5,-124.4"/>
</g>
<!-- Node11&#45;&gt;Node8 -->
<g id="edge12" class="edge">
<title>Node11&#45;&gt;Node8</title>
<path fill="none" stroke="midnightblue" d="M765.07,-139.41C752.82,-137.58 740,-135.69 728,-134 605.94,-116.79 574.77,-117.13 453,-98 441.7,-96.23 429.54,-94.1 418.22,-92.03"/>
<polygon fill="midnightblue" stroke="midnightblue" points="764.78,-142.91 775.19,-140.94 765.82,-135.99 764.78,-142.91"/>
</g>
<!-- Node11&#45;&gt;Node9 -->
<g id="edge14" class="edge">
<title>Node11&#45;&gt;Node9</title>
<path fill="none" stroke="midnightblue" d="M765.69,-135.52C707.64,-122.6 620.22,-103.14 570.4,-92.05"/>
<polygon fill="midnightblue" stroke="midnightblue" points="764.93,-138.94 775.45,-137.69 766.45,-132.1 764.93,-138.94"/>
</g>
<!-- Node12 -->
<g id="node12" class="node">
<title>Node12</title>
<g id="a_node12"><a xlink:href="f__pc__layer__iter_8cpp.html" target="_top" xlink:title=" ">
<polygon fill="white" stroke="black" points="1197.5,-67.5 1197.5,-97.5 1302.5,-97.5 1302.5,-67.5 1197.5,-67.5"/>
<text text-anchor="start" x="1205.5" y="-85.5" font-family="Helvetica,sans-Serif" font-size="10.00">src/f/f_pc/f_pc_layer</text>
<text text-anchor="middle" x="1250" y="-74.5" font-family="Helvetica,sans-Serif" font-size="10.00">_iter.cpp</text>
</a>
</g>
</g>
<!-- Node11&#45;&gt;Node12 -->
<g id="edge13" class="edge">
<title>Node11&#45;&gt;Node12</title>
<path fill="none" stroke="midnightblue" d="M882.76,-142.03C954.94,-133.7 1080.99,-117.89 1188,-98 1191.04,-97.43 1194.16,-96.82 1197.3,-96.17"/>
<polygon fill="midnightblue" stroke="midnightblue" points="882.05,-138.59 872.51,-143.21 882.84,-145.55 882.05,-138.59"/>
</g>
<!-- Node13 -->
<g id="node13" class="node">
<title>Node13</title>
<g id="a_node13"><a xlink:href="f__pc__node_8cpp.html" target="_top" xlink:title=" ">
<polygon fill="white" stroke="black" points="908,-73 908,-92 1032,-92 1032,-73 908,-73"/>
<text text-anchor="middle" x="970" y="-80" font-family="Helvetica,sans-Serif" font-size="10.00">src/f/f_pc/f_pc_node.cpp</text>
</a>
</g>
</g>
<!-- Node11&#45;&gt;Node13 -->
<g id="edge15" class="edge">
<title>Node11&#45;&gt;Node13</title>
<path fill="none" stroke="midnightblue" d="M864.89,-130.3C893.05,-117.76 929.16,-101.68 950.89,-92.01"/>
<polygon fill="midnightblue" stroke="midnightblue" points="863.39,-127.13 855.68,-134.4 866.24,-133.53 863.39,-127.13"/>
</g>
<!-- Node14 -->
<g id="node14" class="node">
<title>Node14</title>
<g id="a_node14"><a xlink:href="f__pc__pause_8cpp.html" target="_top" xlink:title=" ">
<polygon fill="white" stroke="black" points="1050.5,-73 1050.5,-92 1179.5,-92 1179.5,-73 1050.5,-73"/>
<text text-anchor="middle" x="1115" y="-80" font-family="Helvetica,sans-Serif" font-size="10.00">src/f/f_pc/f_pc_pause.cpp</text>
</a>
</g>
</g>
<!-- Node11&#45;&gt;Node14 -->
<g id="edge16" class="edge">
<title>Node11&#45;&gt;Node14</title>
<path fill="none" stroke="midnightblue" d="M882.81,-135.36C940.69,-122.44 1027.38,-103.07 1076.83,-92.03"/>
<polygon fill="midnightblue" stroke="midnightblue" points="881.7,-132.02 872.71,-137.62 883.23,-138.86 881.7,-132.02"/>
</g>
<!-- Node15&#45;&gt;Node8 -->
<g id="edge18" class="edge">
<title>Node15&#45;&gt;Node8</title>
<path fill="none" stroke="midnightblue" d="M494.34,-130.62C462.21,-118.04 420.65,-101.77 395.73,-92.01"/>
<polygon fill="midnightblue" stroke="midnightblue" points="493.39,-134.01 503.98,-134.4 495.95,-127.49 493.39,-134.01"/>
</g>
<!-- Node15&#45;&gt;Node9 -->
<g id="edge19" class="edge">
<title>Node15&#45;&gt;Node9</title>
<path fill="none" stroke="midnightblue" d="M537.02,-124.25C535.63,-113.02 534.08,-100.38 533.07,-92.19"/>
<polygon fill="midnightblue" stroke="midnightblue" points="533.57,-124.9 538.26,-134.4 540.52,-124.04 533.57,-124.9"/>
</g>
<!-- Node16&#45;&gt;Node9 -->
<g id="edge22" class="edge">
<title>Node16&#45;&gt;Node9</title>
<path fill="none" stroke="midnightblue" d="M631.72,-130.13C604.97,-117.62 570.79,-101.64 550.19,-92.01"/>
<polygon fill="midnightblue" stroke="midnightblue" points="630.3,-133.33 640.84,-134.4 633.26,-126.99 630.3,-133.33"/>
</g>
<!-- Node17 -->
<g id="node17" class="node">
<title>Node17</title>
<g id="a_node17"><a xlink:href="d__a__alink_8cpp.html" target="_top" xlink:title=" ">
<polygon fill="white" stroke="black" points="620.5,-73 620.5,-92 739.5,-92 739.5,-73 620.5,-73"/>
<text text-anchor="middle" x="680" y="-80" font-family="Helvetica,sans-Serif" font-size="10.00">src/d/d_a/d_a_alink.cpp</text>
</a>
</g>
</g>
<!-- Node16&#45;&gt;Node17 -->
<g id="edge21" class="edge">
<title>Node16&#45;&gt;Node17</title>
<path fill="none" stroke="midnightblue" d="M674.36,-124.25C675.91,-113.02 677.66,-100.38 678.8,-92.19"/>
<polygon fill="midnightblue" stroke="midnightblue" points="670.86,-124.01 672.95,-134.4 677.79,-124.97 670.86,-124.01"/>
</g>
<!-- Node18&#45;&gt;Node7 -->
<g id="edge24" class="edge">
<title>Node18&#45;&gt;Node7</title>
<path fill="none" stroke="midnightblue" d="M1580.32,-134.04C1580.21,-134.03 1580.11,-134.01 1580,-134 1279.78,-92.36 1199.84,-134.85 899,-98 887.15,-96.55 874.37,-94.33 862.76,-92.05"/>
<polygon fill="midnightblue" stroke="midnightblue" points="1579.92,-137.52 1590.35,-135.65 1581.02,-130.61 1579.92,-137.52"/>
</g>
<!-- Node19 -->
<g id="node19" class="node">
<title>Node19</title>
<g id="a_node19"><a xlink:href="c__list__iter_8cpp.html" target="_top" xlink:title=" ">
<polygon fill="white" stroke="black" points="1859,-67.5 1859,-97.5 1993,-97.5 1993,-67.5 1859,-67.5"/>
<text text-anchor="start" x="1867" y="-85.5" font-family="Helvetica,sans-Serif" font-size="10.00">libs/SSystem/SComponent</text>
<text text-anchor="middle" x="1926" y="-74.5" font-family="Helvetica,sans-Serif" font-size="10.00">/c_list_iter.cpp</text>
</a>
</g>
</g>
<!-- Node18&#45;&gt;Node19 -->
<g id="edge25" class="edge">
<title>Node18&#45;&gt;Node19</title>
<path fill="none" stroke="midnightblue" d="M1707.5,-133.86C1754.67,-122.99 1818.63,-108.25 1865.15,-97.53"/>
<polygon fill="midnightblue" stroke="midnightblue" points="1706.66,-130.46 1697.71,-136.12 1708.24,-137.29 1706.66,-130.46"/>
</g>
<!-- Node20 -->
<g id="node20" class="node">
<title>Node20</title>
<g id="a_node20"><a xlink:href="c__tree__iter_8cpp.html" target="_top" xlink:title=" ">
<polygon fill="white" stroke="black" points="1707,-67.5 1707,-97.5 1841,-97.5 1841,-67.5 1707,-67.5"/>
<text text-anchor="start" x="1715" y="-85.5" font-family="Helvetica,sans-Serif" font-size="10.00">libs/SSystem/SComponent</text>
<text text-anchor="middle" x="1774" y="-74.5" font-family="Helvetica,sans-Serif" font-size="10.00">/c_tree_iter.cpp</text>
</a>
</g>
</g>
<!-- Node18&#45;&gt;Node20 -->
<g id="edge26" class="edge">
<title>Node18&#45;&gt;Node20</title>
<path fill="none" stroke="midnightblue" d="M1681.29,-129.85C1701.85,-119.58 1726.95,-107.03 1745.85,-97.58"/>
<polygon fill="midnightblue" stroke="midnightblue" points="1679.59,-126.79 1672.21,-134.4 1682.72,-133.05 1679.59,-126.79"/>
</g>
<!-- Node21 -->
<g id="node21" class="node">
<title>Node21</title>
<g id="a_node21"><a xlink:href="f__pc__create__iter_8h.html" target="_top" xlink:title=" ">
<polygon fill="white" stroke="black" points="1591.5,-67.5 1591.5,-97.5 1688.5,-97.5 1688.5,-67.5 1591.5,-67.5"/>
<text text-anchor="start" x="1599.5" y="-85.5" font-family="Helvetica,sans-Serif" font-size="10.00">include/f/f_pc/f_pc</text>
<text text-anchor="middle" x="1640" y="-74.5" font-family="Helvetica,sans-Serif" font-size="10.00">_create_iter.h</text>
</a>
</g>
</g>
<!-- Node18&#45;&gt;Node21 -->
<g id="edge27" class="edge">
<title>Node18&#45;&gt;Node21</title>
<path fill="none" stroke="midnightblue" d="M1642.52,-124.4C1641.96,-115.37 1641.35,-105.41 1640.87,-97.58"/>
<polygon fill="midnightblue" stroke="midnightblue" points="1639.02,-124.63 1643.13,-134.4 1646.01,-124.2 1639.02,-124.63"/>
</g>
<!-- Node23 -->
<g id="node23" class="node">
<title>Node23</title>
<g id="a_node23"><a xlink:href="f__pc__method__iter_8h.html" target="_top" xlink:title=" ">
<polygon fill="white" stroke="black" points="2011.5,-67.5 2011.5,-97.5 2108.5,-97.5 2108.5,-67.5 2011.5,-67.5"/>
<text text-anchor="start" x="2019.5" y="-85.5" font-family="Helvetica,sans-Serif" font-size="10.00">include/f/f_pc/f_pc</text>
<text text-anchor="middle" x="2060" y="-74.5" font-family="Helvetica,sans-Serif" font-size="10.00">_method_iter.h</text>
</a>
</g>
</g>
<!-- Node18&#45;&gt;Node23 -->
<g id="edge30" class="edge">
<title>Node18&#45;&gt;Node23</title>
<path fill="none" stroke="midnightblue" d="M1707.91,-141.53C1779.79,-133.23 1899.83,-117.92 2002,-98 2005.06,-97.4 2008.19,-96.75 2011.35,-96.06"/>
<polygon fill="midnightblue" stroke="midnightblue" points="1707.2,-138.09 1697.67,-142.71 1708,-145.05 1707.2,-138.09"/>
</g>
<!-- Node21&#45;&gt;Node6 -->
<g id="edge29" class="edge">
<title>Node21&#45;&gt;Node6</title>
<path fill="none" stroke="midnightblue" d="M1581.43,-67.12C1341.32,-29.36 1065.56,-19.83 949.2,-17.36"/>
<polygon fill="midnightblue" stroke="midnightblue" points="1580.97,-70.59 1591.39,-68.7 1582.07,-63.67 1580.97,-70.59"/>
</g>
<!-- Node22 -->
<g id="node22" class="node">
<title>Node22</title>
<g id="a_node22"><a xlink:href="f__pc__create__iter_8cpp.html" target="_top" xlink:title=" ">
<polygon fill="white" stroke="black" points="1584,-0.5 1584,-30.5 1696,-30.5 1696,-0.5 1584,-0.5"/>
<text text-anchor="start" x="1592" y="-18.5" font-family="Helvetica,sans-Serif" font-size="10.00">src/f/f_pc/f_pc_create</text>
<text text-anchor="middle" x="1640" y="-7.5" font-family="Helvetica,sans-Serif" font-size="10.00">_iter.cpp</text>
</a>
</g>
</g>
<!-- Node21&#45;&gt;Node22 -->
<g id="edge28" class="edge">
<title>Node21&#45;&gt;Node22</title>
<path fill="none" stroke="midnightblue" d="M1640,-57.11C1640,-48.15 1640,-38.32 1640,-30.58"/>
<polygon fill="midnightblue" stroke="midnightblue" points="1636.5,-57.4 1640,-67.4 1643.5,-57.4 1636.5,-57.4"/>
</g>
<!-- Node24 -->
<g id="node24" class="node">
<title>Node24</title>
<g id="a_node24"><a xlink:href="f__pc__layer_8cpp.html" target="_top" xlink:title=" ">
<polygon fill="white" stroke="black" points="1929.5,-6 1929.5,-25 2052.5,-25 2052.5,-6 1929.5,-6"/>
<text text-anchor="middle" x="1991" y="-13" font-family="Helvetica,sans-Serif" font-size="10.00">src/f/f_pc/f_pc_layer.cpp</text>
</a>
</g>
</g>
<!-- Node23&#45;&gt;Node24 -->
<g id="edge31" class="edge">
<title>Node23&#45;&gt;Node24</title>
<path fill="none" stroke="midnightblue" d="M2037.53,-60.34C2024.86,-48.4 2009.72,-34.14 2000.23,-25.19"/>
<polygon fill="midnightblue" stroke="midnightblue" points="2035.35,-63.09 2045.03,-67.4 2040.15,-57.99 2035.35,-63.09"/>
</g>
<!-- Node25 -->
<g id="node25" class="node">
<title>Node25</title>
<g id="a_node25"><a xlink:href="f__pc__method__iter_8cpp.html" target="_top" xlink:title=" ">
<polygon fill="white" stroke="black" points="2070.5,-0.5 2070.5,-30.5 2187.5,-30.5 2187.5,-0.5 2070.5,-0.5"/>
<text text-anchor="start" x="2078.5" y="-18.5" font-family="Helvetica,sans-Serif" font-size="10.00">src/f/f_pc/f_pc_method</text>
<text text-anchor="middle" x="2129" y="-7.5" font-family="Helvetica,sans-Serif" font-size="10.00">_iter.cpp</text>
</a>
</g>
</g>
<!-- Node23&#45;&gt;Node25 -->
<g id="edge32" class="edge">
<title>Node23&#45;&gt;Node25</title>
<path fill="none" stroke="midnightblue" d="M2082.49,-60.31C2092.84,-50.56 2104.84,-39.26 2114.06,-30.58"/>
<polygon fill="midnightblue" stroke="midnightblue" points="2079.85,-57.99 2074.97,-67.4 2084.65,-63.09 2079.85,-57.99"/>
</g>
<!-- Node26&#45;&gt;Node12 -->
<g id="edge34" class="edge">
<title>Node26&#45;&gt;Node12</title>
<path fill="none" stroke="midnightblue" d="M1349,-130.13C1327.07,-119.8 1300.13,-107.11 1279.89,-97.58"/>
<polygon fill="midnightblue" stroke="midnightblue" points="1347.52,-133.3 1358.06,-134.4 1350.5,-126.97 1347.52,-133.3"/>
</g>
<!-- Node26&#45;&gt;Node21 -->
<g id="edge37" class="edge">
<title>Node26&#45;&gt;Node21</title>
<path fill="none" stroke="midnightblue" d="M1451.64,-132.08C1495.05,-120.89 1551.66,-106.29 1591.45,-96.02"/>
<polygon fill="midnightblue" stroke="midnightblue" points="1450.56,-128.75 1441.75,-134.64 1452.31,-135.53 1450.56,-128.75"/>
</g>
<!-- Node27 -->
<g id="node27" class="node">
<title>Node27</title>
<g id="a_node27"><a xlink:href="f__pc__line__iter_8cpp.html" target="_top" xlink:title=" ">
<polygon fill="white" stroke="black" points="1473,-67.5 1473,-97.5 1573,-97.5 1573,-67.5 1473,-67.5"/>
<text text-anchor="start" x="1481" y="-85.5" font-family="Helvetica,sans-Serif" font-size="10.00">src/f/f_pc/f_pc_line</text>
<text text-anchor="middle" x="1523" y="-74.5" font-family="Helvetica,sans-Serif" font-size="10.00">_iter.cpp</text>
</a>
</g>
</g>
<!-- Node26&#45;&gt;Node27 -->
<g id="edge35" class="edge">
<title>Node26&#45;&gt;Node27</title>
<path fill="none" stroke="midnightblue" d="M1426.44,-129.99C1447.84,-119.69 1474.05,-107.07 1493.76,-97.58"/>
<polygon fill="midnightblue" stroke="midnightblue" points="1424.78,-126.9 1417.29,-134.4 1427.82,-133.21 1424.78,-126.9"/>
</g>
<!-- Node28 -->
<g id="node28" class="node">
<title>Node28</title>
<g id="a_node28"><a xlink:href="c__tag__iter_8cpp.html" target="_top" xlink:title=" ">
<polygon fill="white" stroke="black" points="1321,-67.5 1321,-97.5 1455,-97.5 1455,-67.5 1321,-67.5"/>
<text text-anchor="start" x="1329" y="-85.5" font-family="Helvetica,sans-Serif" font-size="10.00">libs/SSystem/SComponent</text>
<text text-anchor="middle" x="1388" y="-74.5" font-family="Helvetica,sans-Serif" font-size="10.00">/c_tag_iter.cpp</text>
</a>
</g>
</g>
<!-- Node26&#45;&gt;Node28 -->
<g id="edge36" class="edge">
<title>Node26&#45;&gt;Node28</title>
<path fill="none" stroke="midnightblue" d="M1388,-124.11C1388,-115.15 1388,-105.32 1388,-97.58"/>
<polygon fill="midnightblue" stroke="midnightblue" points="1384.5,-124.4 1388,-134.4 1391.5,-124.4 1384.5,-124.4"/>
</g>
<!-- Node29&#45;&gt;Node12 -->
<g id="edge39" class="edge">
<title>Node29&#45;&gt;Node12</title>
<path fill="none" stroke="midnightblue" d="M1454.48,-133.09C1408.16,-121.86 1346.13,-106.82 1302.58,-96.25"/>
<polygon fill="midnightblue" stroke="midnightblue" points="1453.87,-136.55 1464.41,-135.5 1455.52,-129.74 1453.87,-136.55"/>
</g>
<!-- Node29&#45;&gt;Node20 -->
<g id="edge41" class="edge">
<title>Node29&#45;&gt;Node20</title>
<path fill="none" stroke="midnightblue" d="M1581.53,-132.37C1623.63,-121.68 1678.32,-107.79 1718.64,-97.56"/>
<polygon fill="midnightblue" stroke="midnightblue" points="1580.5,-129.02 1571.67,-134.87 1582.22,-135.81 1580.5,-129.02"/>
</g>
<!-- Node29&#45;&gt;Node27 -->
<g id="edge40" class="edge">
<title>Node29&#45;&gt;Node27</title>
<path fill="none" stroke="midnightblue" d="M1519.85,-124.4C1520.55,-115.37 1521.31,-105.41 1521.92,-97.58"/>
<polygon fill="midnightblue" stroke="midnightblue" points="1516.36,-124.16 1519.08,-134.4 1523.34,-124.69 1516.36,-124.16"/>
</g>
</g>
</svg>
        <g id="navigator" transform="translate(0 0)" fill="#404254">
                <rect fill="#f2f5e9" fill-opacity="0.5" stroke="#606060" stroke-width=".5" x="0" y="0" width="60" height="60"/>
                <use id="zoomplus" xlink:href="#zoomPlus" x="17" y="9" onmousedown="handleZoom(evt,'in')"/>
                <use id="zoomminus" xlink:href="#zoomMin" x="42" y="9" onmousedown="handleZoom(evt,'out')"/>
                <use id="reset" xlink:href="#resetDef" x="30" y="36" onmousedown="handleReset()"/>
                <g id="arrowUp" xlink:href="#dirArrow" transform="translate(30 24)" onmousedown="handlePan(0,-1)">
                  <use xlink:href="#rim" fill="#404040">
                        <set attributeName="fill" to="#808080" begin="arrowUp.mouseover" end="arrowUp.mouseout"/>
                  </use>
                  <path fill="none" stroke="white" stroke-width="1.5" d="M0,-3.0v7 M-2.5,-0.5L0,-3.0L2.5,-0.5"/>
                </g>
                <g id="arrowRight" xlink:href="#dirArrow" transform="rotate(90) translate(36 -43)" onmousedown="handlePan(1,0)">
                  <use xlink:href="#rim" fill="#404040">
                        <set attributeName="fill" to="#808080" begin="arrowRight.mouseover" end="arrowRight.mouseout"/>
                  </use>
                  <path fill="none" stroke="white" stroke-width="1.5" d="M0,-3.0v7 M-2.5,-0.5L0,-3.0L2.5,-0.5"/>
                </g>
                <g id="arrowDown" xlink:href="#dirArrow" transform="rotate(180) translate(-30 -48)" onmousedown="handlePan(0,1)">
                  <use xlink:href="#rim" fill="#404040">
                        <set attributeName="fill" to="#808080" begin="arrowDown.mouseover" end="arrowDown.mouseout"/>
                  </use>
                  <path fill="none" stroke="white" stroke-width="1.5" d="M0,-3.0v7 M-2.5,-0.5L0,-3.0L2.5,-0.5"/>
                </g>
                <g id="arrowLeft" xlink:href="#dirArrow" transform="rotate(270) translate(-36 17)" onmousedown="handlePan(-1,0)">
                  <use xlink:href="#rim" fill="#404040">
                        <set attributeName="fill" to="#808080" begin="arrowLeft.mouseover" end="arrowLeft.mouseout"/>
                  </use>
                  <path fill="none" stroke="white" stroke-width="1.5" d="M0,-3.0v7 M-2.5,-0.5L0,-3.0L2.5,-0.5"/>
                </g>
        </g>
        <svg viewBox="0 0 15 15" width="100%" height="30px" preserveAspectRatio="xMaxYMin meet">
         <g id="arrow_out" transform="scale(0.3 0.3)">
          <a xlink:href="c__node__iter_8h__dep__incl_org.svg" target="_base">
           <rect id="button" ry="5" rx="5" y="6" x="6" height="38" width="38"
                fill="#f2f5e9" fill-opacity="0.5" stroke="#606060" stroke-width="1.0"/>
           <path id="arrow"
             d="M 11.500037,31.436501 C 11.940474,20.09759 22.043105,11.32322 32.158766,21.979434 L 37.068811,17.246167 C 37.068811,17.246167 37.088388,32 37.088388,32 L 22.160133,31.978069 C 22.160133,31.978069 26.997745,27.140456 26.997745,27.140456 C 18.528582,18.264221 13.291696,25.230495 11.500037,31.436501 z"
             style="fill:#404040;"/>
          </a>
         </g>
        </svg>
</svg>
