<?xml version="1.0" encoding="UTF-8" standalone="no"?>
<!DOCTYPE svg PUBLIC "-//W3C//DTD SVG 1.1//EN"
 "http://www.w3.org/Graphics/SVG/1.1/DTD/svg11.dtd">
<!-- Generated by graphviz version 2.46.0 (20210122.1329)
 -->
<!-- Title: libs/SSystem/SComponent/c_request.cpp Pages: 1 -->
<!--zoomable 956 -->
<svg id="main" version="1.1" xmlns="http://www.w3.org/2000/svg" xmlns:xlink="http://www.w3.org/1999/xlink" xml:space="preserve" onload="init(evt)">
<style type="text/css"><![CDATA[
.edge:hover path { stroke: red; }
.edge:hover polygon { stroke: red; fill: red; }
]]></style>
<script type="text/javascript"><![CDATA[
var edges = document.getElementsByTagName('g');
if (edges && edges.length) {
  for (var i=0;i<edges.length;i++) {
    if (edges[i].id.substr(0,4)=='edge') {
      edges[i].setAttribute('class','edge');
    }
  }
}
]]></script>
        <defs>
                <circle id="rim" cx="0" cy="0" r="7"/>
                <circle id="rim2" cx="0" cy="0" r="3.5"/>
                <g id="zoomPlus">
                        <use xlink:href="#rim" fill="#404040">
                                <set attributeName="fill" to="#808080" begin="zoomplus.mouseover" end="zoomplus.mouseout"/>
                        </use>
                        <path d="M-4,0h8M0,-4v8" fill="none" stroke="white" stroke-width="1.5" pointer-events="none"/>
                </g>
                <g id="zoomMin">
                        <use xlink:href="#rim" fill="#404040">
                                <set attributeName="fill" to="#808080" begin="zoomminus.mouseover" end="zoomminus.mouseout"/>
                        </use>
                        <path d="M-4,0h8" fill="none" stroke="white" stroke-width="1.5" pointer-events="none"/>
                </g>
                <g id="dirArrow">
                        <path fill="none" stroke="white" stroke-width="1.5" d="M0,-3.0v7 M-2.5,-0.5L0,-3.0L2.5,-0.5"/>
                </g>
               <g id="resetDef">
                       <use xlink:href="#rim2" fill="#404040">
                               <set attributeName="fill" to="#808080" begin="reset.mouseover" end="reset.mouseout"/>
                       </use>
               </g>
        </defs>

<script type="text/javascript">
var viewWidth = 888;
var viewHeight = 956;
var sectionId = 'dynsection-0';
</script>
<script xlink:href="svgpan.js"/>
<svg id="graph" class="graph">
<g id="viewport">
<title>libs/SSystem/SComponent/c_request.cpp</title>
<polygon fill="white" stroke="transparent" points="-4,4 -4,-952 884,-952 884,4 -4,4"/>
<!-- Node1 -->
<g id="node1" class="node">
<title>Node1</title>
<g id="a_node1"><a xlink:title=" ">
<polygon fill="#bfbfbf" stroke="black" points="363,-917.5 363,-947.5 497,-947.5 497,-917.5 363,-917.5"/>
<text text-anchor="start" x="371" y="-935.5" font-family="Helvetica,sans-Serif" font-size="10.00">libs/SSystem/SComponent</text>
<text text-anchor="middle" x="430" y="-924.5" font-family="Helvetica,sans-Serif" font-size="10.00">/c_request.cpp</text>
</a>
</g>
</g>
<!-- Node2 -->
<g id="node2" class="node">
<title>Node2</title>
<g id="a_node2"><a xlink:href="c__request_8h.html" target="_top" xlink:title=" ">
<polygon fill="white" stroke="black" points="89,-856 89,-875 215,-875 215,-856 89,-856"/>
<text text-anchor="middle" x="152" y="-863" font-family="Helvetica,sans-Serif" font-size="10.00">SComponent/c_request.h</text>
</a>
</g>
</g>
<!-- Node1&#45;&gt;Node2 -->
<g id="edge1" class="edge">
<title>Node1&#45;&gt;Node2</title>
<path fill="none" stroke="midnightblue" d="M370.02,-917.48C318.57,-905.45 245.48,-888.36 198.4,-877.35"/>
<polygon fill="midnightblue" stroke="midnightblue" points="199.01,-873.9 188.48,-875.03 197.42,-880.71 199.01,-873.9"/>
</g>
<!-- Node33 -->
<g id="node33" class="node">
<title>Node33</title>
<g id="a_node33"><a xlink:title=" ">
<polygon fill="white" stroke="#bfbfbf" points="233.5,-850.5 233.5,-880.5 352.5,-880.5 352.5,-850.5 233.5,-850.5"/>
<text text-anchor="start" x="241.5" y="-868.5" font-family="Helvetica,sans-Serif" font-size="10.00">SComponent/c_request</text>
<text text-anchor="middle" x="293" y="-857.5" font-family="Helvetica,sans-Serif" font-size="10.00">/asm/func_802667D4.s</text>
</a>
</g>
</g>
<!-- Node1&#45;&gt;Node33 -->
<g id="edge70" class="edge">
<title>Node1&#45;&gt;Node33</title>
<path fill="none" stroke="midnightblue" d="M400.27,-917.4C380.26,-907.9 353.65,-895.28 331.95,-884.98"/>
<polygon fill="midnightblue" stroke="midnightblue" points="333.2,-881.7 322.67,-880.58 330.2,-888.03 333.2,-881.7"/>
</g>
<!-- Node34 -->
<g id="node34" class="node">
<title>Node34</title>
<g id="a_node34"><a xlink:title=" ">
<polygon fill="white" stroke="#bfbfbf" points="370.5,-850.5 370.5,-880.5 489.5,-880.5 489.5,-850.5 370.5,-850.5"/>
<text text-anchor="start" x="378.5" y="-868.5" font-family="Helvetica,sans-Serif" font-size="10.00">SComponent/c_request</text>
<text text-anchor="middle" x="430" y="-857.5" font-family="Helvetica,sans-Serif" font-size="10.00">/asm/func_80266800.s</text>
</a>
</g>
</g>
<!-- Node1&#45;&gt;Node34 -->
<g id="edge71" class="edge">
<title>Node1&#45;&gt;Node34</title>
<path fill="none" stroke="midnightblue" d="M430,-917.4C430,-909.64 430,-899.81 430,-890.86"/>
<polygon fill="midnightblue" stroke="midnightblue" points="433.5,-890.58 430,-880.58 426.5,-890.58 433.5,-890.58"/>
</g>
<!-- Node35 -->
<g id="node35" class="node">
<title>Node35</title>
<g id="a_node35"><a xlink:title=" ">
<polygon fill="white" stroke="#bfbfbf" points="507.5,-850.5 507.5,-880.5 626.5,-880.5 626.5,-850.5 507.5,-850.5"/>
<text text-anchor="start" x="515.5" y="-868.5" font-family="Helvetica,sans-Serif" font-size="10.00">SComponent/c_request</text>
<text text-anchor="middle" x="567" y="-857.5" font-family="Helvetica,sans-Serif" font-size="10.00">/asm/func_80266830.s</text>
</a>
</g>
</g>
<!-- Node1&#45;&gt;Node35 -->
<g id="edge72" class="edge">
<title>Node1&#45;&gt;Node35</title>
<path fill="none" stroke="midnightblue" d="M459.73,-917.4C479.74,-907.9 506.35,-895.28 528.05,-884.98"/>
<polygon fill="midnightblue" stroke="midnightblue" points="529.8,-888.03 537.33,-880.58 526.8,-881.7 529.8,-888.03"/>
</g>
<!-- Node36 -->
<g id="node36" class="node">
<title>Node36</title>
<g id="a_node36"><a xlink:title=" ">
<polygon fill="white" stroke="#bfbfbf" points="644.5,-850.5 644.5,-880.5 763.5,-880.5 763.5,-850.5 644.5,-850.5"/>
<text text-anchor="start" x="652.5" y="-868.5" font-family="Helvetica,sans-Serif" font-size="10.00">SComponent/c_request</text>
<text text-anchor="middle" x="704" y="-857.5" font-family="Helvetica,sans-Serif" font-size="10.00">/asm/func_80266850.s</text>
</a>
</g>
</g>
<!-- Node1&#45;&gt;Node36 -->
<g id="edge73" class="edge">
<title>Node1&#45;&gt;Node36</title>
<path fill="none" stroke="midnightblue" d="M489.12,-917.48C531.82,-907.34 589.65,-893.63 634.56,-882.97"/>
<polygon fill="midnightblue" stroke="midnightblue" points="635.59,-886.32 644.52,-880.61 633.98,-879.51 635.59,-886.32"/>
</g>
<!-- Node3 -->
<g id="node3" class="node">
<title>Node3</title>
<g id="a_node3"><a xlink:href="f__pc__base_8h.html" target="_top" xlink:title=" ">
<polygon fill="white" stroke="black" points="295.5,-794.5 295.5,-813.5 392.5,-813.5 392.5,-794.5 295.5,-794.5"/>
<text text-anchor="middle" x="344" y="-801.5" font-family="Helvetica,sans-Serif" font-size="10.00">f/f_pc/f_pc_base.h</text>
</a>
</g>
</g>
<!-- Node2&#45;&gt;Node3 -->
<g id="edge2" class="edge">
<title>Node2&#45;&gt;Node3</title>
<path fill="none" stroke="midnightblue" d="M179.51,-855.98C212.87,-845.64 269.26,-828.16 306.56,-816.6"/>
<polygon fill="midnightblue" stroke="midnightblue" points="308.03,-819.81 316.54,-813.51 305.95,-813.13 308.03,-819.81"/>
</g>
<!-- Node7 -->
<g id="node7" class="node">
<title>Node7</title>
<g id="a_node7"><a xlink:href="global_8h.html" target="_top" xlink:title=" ">
<polygon fill="white" stroke="black" points="369,-380.5 369,-399.5 419,-399.5 419,-380.5 369,-380.5"/>
<text text-anchor="middle" x="394" y="-387.5" font-family="Helvetica,sans-Serif" font-size="10.00">global.h</text>
</a>
</g>
</g>
<!-- Node2&#45;&gt;Node7 -->
<g id="edge69" class="edge">
<title>Node2&#45;&gt;Node7</title>
<path fill="none" stroke="midnightblue" d="M122.69,-855.9C78.52,-840.92 0,-805.56 0,-743.5 0,-743.5 0,-743.5 0,-501 0,-461.38 25.78,-454.14 61,-436 112.41,-409.52 283.9,-397.06 358.66,-392.79"/>
<polygon fill="midnightblue" stroke="midnightblue" points="359.17,-396.27 368.96,-392.22 358.78,-389.28 359.17,-396.27"/>
</g>
<!-- Node4 -->
<g id="node4" class="node">
<title>Node4</title>
<g id="a_node4"><a xlink:href="c__tag_8h.html" target="_top" xlink:title=" ">
<polygon fill="white" stroke="black" points="264.5,-604.5 264.5,-623.5 371.5,-623.5 371.5,-604.5 264.5,-604.5"/>
<text text-anchor="middle" x="318" y="-611.5" font-family="Helvetica,sans-Serif" font-size="10.00">SComponent/c_tag.h</text>
</a>
</g>
</g>
<!-- Node3&#45;&gt;Node4 -->
<g id="edge3" class="edge">
<title>Node3&#45;&gt;Node4</title>
<path fill="none" stroke="midnightblue" d="M338.71,-794.42C333.62,-785.64 326.22,-771.41 323,-758 312.54,-714.46 314.33,-661.34 316.31,-633.72"/>
<polygon fill="midnightblue" stroke="midnightblue" points="319.81,-633.79 317.13,-623.54 312.83,-633.23 319.81,-633.79"/>
</g>
<!-- Node3&#45;&gt;Node7 -->
<g id="edge44" class="edge">
<title>Node3&#45;&gt;Node7</title>
<path fill="none" stroke="midnightblue" d="M392.69,-798.91C458.7,-792.65 572.44,-779.17 608,-758 647.57,-734.44 672,-722.56 672,-676.5 672,-676.5 672,-676.5 672,-501 672,-470.9 675.44,-456.05 653,-436 620.51,-406.97 492.38,-396.21 429.37,-392.62"/>
<polygon fill="midnightblue" stroke="midnightblue" points="429.3,-389.11 419.12,-392.06 428.92,-396.1 429.3,-389.11"/>
</g>
<!-- Node25 -->
<g id="node25" class="node">
<title>Node25</title>
<g id="a_node25"><a xlink:href="f__pc__delete__tag_8h.html" target="_top" xlink:title=" ">
<polygon fill="white" stroke="black" points="47.5,-727.5 47.5,-757.5 142.5,-757.5 142.5,-727.5 47.5,-727.5"/>
<text text-anchor="start" x="55.5" y="-745.5" font-family="Helvetica,sans-Serif" font-size="10.00">f/f_pc/f_pc_delete</text>
<text text-anchor="middle" x="95" y="-734.5" font-family="Helvetica,sans-Serif" font-size="10.00">_tag.h</text>
</a>
</g>
</g>
<!-- Node3&#45;&gt;Node25 -->
<g id="edge45" class="edge">
<title>Node3&#45;&gt;Node25</title>
<path fill="none" stroke="midnightblue" d="M306.78,-794.5C270.11,-786.07 212.22,-772.64 152.55,-758.11"/>
<polygon fill="midnightblue" stroke="midnightblue" points="153.11,-754.64 142.57,-755.67 151.45,-761.44 153.11,-754.64"/>
</g>
<!-- Node27 -->
<g id="node27" class="node">
<title>Node27</title>
<g id="a_node27"><a xlink:href="f__pc__layer__tag_8h.html" target="_top" xlink:title=" ">
<polygon fill="white" stroke="black" points="160.5,-733 160.5,-752 275.5,-752 275.5,-733 160.5,-733"/>
<text text-anchor="middle" x="218" y="-740" font-family="Helvetica,sans-Serif" font-size="10.00">f/f_pc/f_pc_layer_tag.h</text>
</a>
</g>
</g>
<!-- Node3&#45;&gt;Node27 -->
<g id="edge53" class="edge">
<title>Node3&#45;&gt;Node27</title>
<path fill="none" stroke="midnightblue" d="M325.95,-794.48C304.8,-784.49 269.56,-767.85 245.12,-756.31"/>
<polygon fill="midnightblue" stroke="midnightblue" points="246.56,-753.11 236.02,-752.01 243.57,-759.44 246.56,-753.11"/>
</g>
<!-- Node28 -->
<g id="node28" class="node">
<title>Node28</title>
<g id="a_node28"><a xlink:href="f__pc__line__tag_8h.html" target="_top" xlink:title=" ">
<polygon fill="white" stroke="black" points="490,-666 490,-685 600,-685 600,-666 490,-666"/>
<text text-anchor="middle" x="545" y="-673" font-family="Helvetica,sans-Serif" font-size="10.00">f/f_pc/f_pc_line_tag.h</text>
</a>
</g>
</g>
<!-- Node3&#45;&gt;Node28 -->
<g id="edge57" class="edge">
<title>Node3&#45;&gt;Node28</title>
<path fill="none" stroke="midnightblue" d="M367.74,-794.48C388.79,-786.46 419.98,-773.39 445,-758 476.91,-738.37 509.8,-709.61 528.78,-692.02"/>
<polygon fill="midnightblue" stroke="midnightblue" points="531.35,-694.41 536.24,-685.01 526.56,-689.3 531.35,-694.41"/>
</g>
<!-- Node29 -->
<g id="node29" class="node">
<title>Node29</title>
<g id="a_node29"><a xlink:href="f__pc__priority_8h.html" target="_top" xlink:title=" ">
<polygon fill="white" stroke="black" points="332,-733 332,-752 436,-752 436,-733 332,-733"/>
<text text-anchor="middle" x="384" y="-740" font-family="Helvetica,sans-Serif" font-size="10.00">f/f_pc/f_pc_priority.h</text>
</a>
</g>
</g>
<!-- Node3&#45;&gt;Node29 -->
<g id="edge60" class="edge">
<title>Node3&#45;&gt;Node29</title>
<path fill="none" stroke="midnightblue" d="M349.73,-794.48C355.67,-785.64 365.12,-771.59 372.59,-760.48"/>
<polygon fill="midnightblue" stroke="midnightblue" points="375.61,-762.26 378.28,-752.01 369.8,-758.36 375.61,-762.26"/>
</g>
<!-- Node31 -->
<g id="node31" class="node">
<title>Node31</title>
<g id="a_node31"><a xlink:href="f__pc__profile_8h.html" target="_top" xlink:title=" ">
<polygon fill="white" stroke="black" points="539.5,-492.5 539.5,-511.5 640.5,-511.5 640.5,-492.5 539.5,-492.5"/>
<text text-anchor="middle" x="590" y="-499.5" font-family="Helvetica,sans-Serif" font-size="10.00">f/f_pc/f_pc_profile.h</text>
</a>
</g>
</g>
<!-- Node3&#45;&gt;Node31 -->
<g id="edge65" class="edge">
<title>Node3&#45;&gt;Node31</title>
<path fill="none" stroke="midnightblue" d="M392.82,-802.47C474.02,-798.74 628,-778.24 628,-676.5 628,-676.5 628,-676.5 628,-613 628,-578.81 611.4,-541.76 600.14,-520.57"/>
<polygon fill="midnightblue" stroke="midnightblue" points="603.18,-518.83 595.28,-511.77 597.05,-522.22 603.18,-518.83"/>
</g>
<!-- Node5 -->
<g id="node5" class="node">
<title>Node5</title>
<g id="a_node5"><a xlink:href="c__list_8h.html" target="_top" xlink:title=" ">
<polygon fill="white" stroke="black" points="220.5,-492.5 220.5,-511.5 327.5,-511.5 327.5,-492.5 220.5,-492.5"/>
<text text-anchor="middle" x="274" y="-499.5" font-family="Helvetica,sans-Serif" font-size="10.00">SComponent/c_list.h</text>
</a>
</g>
</g>
<!-- Node4&#45;&gt;Node5 -->
<g id="edge4" class="edge">
<title>Node4&#45;&gt;Node5</title>
<path fill="none" stroke="midnightblue" d="M316.13,-604.38C313.24,-591.73 307.16,-567.53 299,-548 295.04,-538.52 289.59,-528.47 284.79,-520.29"/>
<polygon fill="midnightblue" stroke="midnightblue" points="287.75,-518.42 279.58,-511.67 281.76,-522.04 287.75,-518.42"/>
</g>
<!-- Node6 -->
<g id="node6" class="node">
<title>Node6</title>
<g id="a_node6"><a xlink:href="c__node_8h.html" target="_top" xlink:title=" ">
<polygon fill="white" stroke="black" points="216.5,-436.5 216.5,-455.5 331.5,-455.5 331.5,-436.5 216.5,-436.5"/>
<text text-anchor="middle" x="274" y="-443.5" font-family="Helvetica,sans-Serif" font-size="10.00">SComponent/c_node.h</text>
</a>
</g>
</g>
<!-- Node4&#45;&gt;Node6 -->
<g id="edge39" class="edge">
<title>Node4&#45;&gt;Node6</title>
<path fill="none" stroke="midnightblue" d="M322.8,-604.22C333.46,-583.45 356.65,-530.19 337,-492 329.92,-478.25 316.48,-467.77 303.82,-460.39"/>
<polygon fill="midnightblue" stroke="midnightblue" points="305.31,-457.22 294.85,-455.57 302,-463.39 305.31,-457.22"/>
</g>
<!-- Node4&#45;&gt;Node7 -->
<g id="edge43" class="edge">
<title>Node4&#45;&gt;Node7</title>
<path fill="none" stroke="midnightblue" d="M327.09,-604.2C335.34,-595.7 347.23,-582.06 354,-568 379.91,-514.16 389.38,-442.96 392.55,-409.66"/>
<polygon fill="midnightblue" stroke="midnightblue" points="396.05,-409.82 393.43,-399.56 389.08,-409.22 396.05,-409.82"/>
</g>
<!-- Node24 -->
<g id="node24" class="node">
<title>Node24</title>
<g id="a_node24"><a xlink:href="c__tree_8h.html" target="_top" xlink:title=" ">
<polygon fill="white" stroke="black" points="180,-548.5 180,-567.5 290,-567.5 290,-548.5 180,-548.5"/>
<text text-anchor="middle" x="235" y="-555.5" font-family="Helvetica,sans-Serif" font-size="10.00">SComponent/c_tree.h</text>
</a>
</g>
</g>
<!-- Node4&#45;&gt;Node24 -->
<g id="edge40" class="edge">
<title>Node4&#45;&gt;Node24</title>
<path fill="none" stroke="midnightblue" d="M304.66,-604.32C291.84,-595.98 272.22,-583.21 257.06,-573.35"/>
<polygon fill="midnightblue" stroke="midnightblue" points="258.59,-570.17 248.3,-567.65 254.78,-576.04 258.59,-570.17"/>
</g>
<!-- Node5&#45;&gt;Node6 -->
<g id="edge5" class="edge">
<title>Node5&#45;&gt;Node6</title>
<path fill="none" stroke="midnightblue" d="M274,-492.08C274,-485.01 274,-474.86 274,-465.99"/>
<polygon fill="midnightblue" stroke="midnightblue" points="277.5,-465.75 274,-455.75 270.5,-465.75 277.5,-465.75"/>
</g>
<!-- Node6&#45;&gt;Node7 -->
<g id="edge6" class="edge">
<title>Node6&#45;&gt;Node7</title>
<path fill="none" stroke="midnightblue" d="M293.01,-436.44C312.59,-427.64 343.31,-413.81 365.73,-403.72"/>
<polygon fill="midnightblue" stroke="midnightblue" points="367.39,-406.81 375.07,-399.52 364.52,-400.43 367.39,-406.81"/>
</g>
<!-- Node8 -->
<g id="node8" class="node">
<title>Node8</title>
<g id="a_node8"><a xlink:href="types_8h.html" target="_top" xlink:title=" ">
<polygon fill="white" stroke="black" points="321.5,-0.5 321.5,-19.5 402.5,-19.5 402.5,-0.5 321.5,-0.5"/>
<text text-anchor="middle" x="362" y="-7.5" font-family="Helvetica,sans-Serif" font-size="10.00">dolphin/types.h</text>
</a>
</g>
</g>
<!-- Node7&#45;&gt;Node8 -->
<g id="edge7" class="edge">
<title>Node7&#45;&gt;Node8</title>
<path fill="none" stroke="midnightblue" d="M368.92,-386.81C313.61,-381.59 183.14,-367.15 146,-344 112.96,-323.4 94,-312.43 94,-273.5 94,-273.5 94,-273.5 94,-137.5 94,-99.61 90.72,-81.21 119,-56 146.8,-31.22 248.62,-19.35 311.3,-14.28"/>
<polygon fill="midnightblue" stroke="midnightblue" points="311.69,-17.76 321.39,-13.5 311.15,-10.79 311.69,-17.76"/>
</g>
<!-- Node9 -->
<g id="node9" class="node">
<title>Node9</title>
<g id="a_node9"><a xlink:href="AR_8h.html" target="_top" xlink:title=" ">
<polygon fill="white" stroke="black" points="128.5,-62 128.5,-81 177.5,-81 177.5,-62 128.5,-62"/>
<text text-anchor="middle" x="153" y="-69" font-family="Helvetica,sans-Serif" font-size="10.00">ar/AR.h</text>
</a>
</g>
</g>
<!-- Node7&#45;&gt;Node9 -->
<g id="edge8" class="edge">
<title>Node7&#45;&gt;Node9</title>
<path fill="none" stroke="midnightblue" d="M368.88,-389.23C303.3,-388.41 132,-376.4 132,-273.5 132,-273.5 132,-273.5 132,-204.5 132,-163.47 142.02,-116.14 148.22,-90.79"/>
<polygon fill="midnightblue" stroke="midnightblue" points="151.62,-91.63 150.67,-81.07 144.83,-89.91 151.62,-91.63"/>
</g>
<!-- Node10 -->
<g id="node10" class="node">
<title>Node10</title>
<g id="a_node10"><a xlink:href="ARQ_8h.html" target="_top" xlink:title=" ">
<polygon fill="white" stroke="black" points="160,-129 160,-148 216,-148 216,-129 160,-129"/>
<text text-anchor="middle" x="188" y="-136" font-family="Helvetica,sans-Serif" font-size="10.00">ar/ARQ.h</text>
</a>
</g>
</g>
<!-- Node7&#45;&gt;Node10 -->
<g id="edge10" class="edge">
<title>Node7&#45;&gt;Node10</title>
<path fill="none" stroke="midnightblue" d="M373.67,-380.46C356.07,-372.5 330.46,-359.56 311,-344 246.67,-292.58 208.09,-197.72 194.05,-157.88"/>
<polygon fill="midnightblue" stroke="midnightblue" points="197.35,-156.72 190.8,-148.38 190.72,-158.98 197.35,-156.72"/>
</g>
<!-- Node11 -->
<g id="node11" class="node">
<title>Node11</title>
<g id="a_node11"><a xlink:href="functions_8h.html" target="_top" xlink:title=" ">
<polygon fill="white" stroke="black" points="332,-324.5 332,-343.5 396,-343.5 396,-324.5 332,-324.5"/>
<text text-anchor="middle" x="364" y="-331.5" font-family="Helvetica,sans-Serif" font-size="10.00">functions.h</text>
</a>
</g>
</g>
<!-- Node7&#45;&gt;Node11 -->
<g id="edge12" class="edge">
<title>Node7&#45;&gt;Node11</title>
<path fill="none" stroke="midnightblue" d="M389.05,-380.08C384.9,-372.61 378.85,-361.72 373.73,-352.52"/>
<polygon fill="midnightblue" stroke="midnightblue" points="376.78,-350.79 368.86,-343.75 370.66,-354.19 376.78,-350.79"/>
</g>
<!-- Node13 -->
<g id="node13" class="node">
<title>Node13</title>
<g id="a_node13"><a xlink:href="mwcc_8h.html" target="_top" xlink:title=" ">
<polygon fill="white" stroke="black" points="386,-263 386,-282 436,-282 436,-263 386,-263"/>
<text text-anchor="middle" x="411" y="-270" font-family="Helvetica,sans-Serif" font-size="10.00">mwcc.h</text>
</a>
</g>
</g>
<!-- Node7&#45;&gt;Node13 -->
<g id="edge20" class="edge">
<title>Node7&#45;&gt;Node13</title>
<path fill="none" stroke="midnightblue" d="M396.51,-380.45C399.05,-371.46 402.89,-356.86 405,-344 407.85,-326.59 409.39,-306.53 410.19,-292.27"/>
<polygon fill="midnightblue" stroke="midnightblue" points="413.69,-292.4 410.69,-282.24 406.7,-292.05 413.69,-292.4"/>
</g>
<!-- Node14 -->
<g id="node14" class="node">
<title>Node14</title>
<g id="a_node14"><a xlink:href="OS_8h.html" target="_top" xlink:title=" ">
<polygon fill="white" stroke="black" points="291,-263 291,-282 343,-282 343,-263 291,-263"/>
<text text-anchor="middle" x="317" y="-270" font-family="Helvetica,sans-Serif" font-size="10.00">os/OS.h</text>
</a>
</g>
</g>
<!-- Node7&#45;&gt;Node14 -->
<g id="edge21" class="edge">
<title>Node7&#45;&gt;Node14</title>
<path fill="none" stroke="midnightblue" d="M370.01,-380.41C353.84,-373.29 333.6,-361.47 323,-344 313.56,-328.43 313.04,-307.26 314.27,-292.19"/>
<polygon fill="midnightblue" stroke="midnightblue" points="317.77,-292.38 315.44,-282.05 310.82,-291.58 317.77,-292.38"/>
</g>
<!-- Node16 -->
<g id="node16" class="node">
<title>Node16</title>
<g id="a_node16"><a xlink:href="variables_8h.html" target="_top" xlink:title=" ">
<polygon fill="white" stroke="black" points="548.5,-324.5 548.5,-343.5 611.5,-343.5 611.5,-324.5 548.5,-324.5"/>
<text text-anchor="middle" x="580" y="-331.5" font-family="Helvetica,sans-Serif" font-size="10.00">variables.h</text>
</a>
</g>
</g>
<!-- Node7&#45;&gt;Node16 -->
<g id="edge22" class="edge">
<title>Node7&#45;&gt;Node16</title>
<path fill="none" stroke="midnightblue" d="M419.08,-381.72C450.26,-372.67 503.84,-357.11 540.54,-346.46"/>
<polygon fill="midnightblue" stroke="midnightblue" points="541.78,-349.74 550.41,-343.59 539.83,-343.02 541.78,-349.74"/>
</g>
<!-- Node9&#45;&gt;Node8 -->
<g id="edge9" class="edge">
<title>Node9&#45;&gt;Node8</title>
<path fill="none" stroke="midnightblue" d="M177.8,-63.44C213.43,-53.3 279.52,-34.48 322.08,-22.36"/>
<polygon fill="midnightblue" stroke="midnightblue" points="323.18,-25.69 331.84,-19.59 321.26,-18.96 323.18,-25.69"/>
</g>
<!-- Node10&#45;&gt;Node8 -->
<g id="edge11" class="edge">
<title>Node10&#45;&gt;Node8</title>
<path fill="none" stroke="midnightblue" d="M197.33,-128.87C214.3,-113.39 251.64,-80.23 286,-56 302.4,-44.44 321.89,-32.94 337.02,-24.46"/>
<polygon fill="midnightblue" stroke="midnightblue" points="338.76,-27.5 345.82,-19.6 335.37,-21.37 338.76,-27.5"/>
</g>
<!-- Node12 -->
<g id="node12" class="node">
<title>Node12</title>
<g id="a_node12"><a xlink:href="mtx__vec_8h.html" target="_top" xlink:title=" ">
<polygon fill="white" stroke="black" points="234.5,-129 234.5,-148 295.5,-148 295.5,-129 234.5,-129"/>
<text text-anchor="middle" x="265" y="-136" font-family="Helvetica,sans-Serif" font-size="10.00">mtx_vec.h</text>
</a>
</g>
</g>
<!-- Node11&#45;&gt;Node12 -->
<g id="edge13" class="edge">
<title>Node11&#45;&gt;Node12</title>
<path fill="none" stroke="midnightblue" d="M336.46,-324.49C318.36,-317.5 295.59,-305.82 282,-288 252.83,-249.76 256.99,-189.06 261.5,-158.46"/>
<polygon fill="midnightblue" stroke="midnightblue" points="265,-158.76 263.18,-148.32 258.1,-157.61 265,-158.76"/>
</g>
<!-- Node11&#45;&gt;Node13 -->
<g id="edge15" class="edge">
<title>Node11&#45;&gt;Node13</title>
<path fill="none" stroke="midnightblue" d="M370.73,-324.48C377.78,-315.55 389.03,-301.31 397.85,-290.14"/>
<polygon fill="midnightblue" stroke="midnightblue" points="400.83,-292.03 404.28,-282.01 395.33,-287.69 400.83,-292.03"/>
</g>
<!-- Node11&#45;&gt;Node14 -->
<g id="edge16" class="edge">
<title>Node11&#45;&gt;Node14</title>
<path fill="none" stroke="midnightblue" d="M357.27,-324.48C350.22,-315.55 338.97,-301.31 330.15,-290.14"/>
<polygon fill="midnightblue" stroke="midnightblue" points="332.67,-287.69 323.72,-282.01 327.17,-292.03 332.67,-287.69"/>
</g>
<!-- Node12&#45;&gt;Node8 -->
<g id="edge14" class="edge">
<title>Node12&#45;&gt;Node8</title>
<path fill="none" stroke="midnightblue" d="M268.58,-128.8C275.24,-113.2 290.67,-79.86 310,-56 319.16,-44.69 331.38,-33.95 341.68,-25.8"/>
<polygon fill="midnightblue" stroke="midnightblue" points="343.95,-28.47 349.76,-19.61 339.7,-22.91 343.95,-28.47"/>
</g>
<!-- Node14&#45;&gt;Node8 -->
<g id="edge17" class="edge">
<title>Node14&#45;&gt;Node8</title>
<path fill="none" stroke="midnightblue" d="M322.69,-262.99C328.86,-253.29 338.43,-236.72 343,-221 362.82,-152.8 363.51,-67.37 362.68,-29.98"/>
<polygon fill="midnightblue" stroke="midnightblue" points="366.17,-29.51 362.38,-19.62 359.17,-29.72 366.17,-29.51"/>
</g>
<!-- Node15 -->
<g id="node15" class="node">
<title>Node15</title>
<g id="a_node15"><a xlink:href="dvd_8h.html" target="_top" xlink:title=" ">
<polygon fill="white" stroke="black" points="274.5,-196 274.5,-215 333.5,-215 333.5,-196 274.5,-196"/>
<text text-anchor="middle" x="304" y="-203" font-family="Helvetica,sans-Serif" font-size="10.00">dvd/dvd.h</text>
</a>
</g>
</g>
<!-- Node14&#45;&gt;Node15 -->
<g id="edge18" class="edge">
<title>Node14&#45;&gt;Node15</title>
<path fill="none" stroke="midnightblue" d="M315.25,-262.73C313.34,-253.18 310.22,-237.62 307.76,-225.28"/>
<polygon fill="midnightblue" stroke="midnightblue" points="311.12,-224.25 305.73,-215.13 304.25,-225.62 311.12,-224.25"/>
</g>
<!-- Node15&#45;&gt;Node8 -->
<g id="edge19" class="edge">
<title>Node15&#45;&gt;Node8</title>
<path fill="none" stroke="midnightblue" d="M306.54,-195.78C313.22,-172.86 331.9,-109 348,-56 350.68,-47.18 353.71,-37.41 356.27,-29.23"/>
<polygon fill="midnightblue" stroke="midnightblue" points="359.63,-30.21 359.28,-19.62 352.95,-28.11 359.63,-30.21"/>
</g>
<!-- Node17 -->
<g id="node17" class="node">
<title>Node17</title>
<g id="a_node17"><a xlink:href="JSUList_8h.html" target="_top" xlink:title=" ">
<polygon fill="white" stroke="black" points="466,-56.5 466,-86.5 602,-86.5 602,-56.5 466,-56.5"/>
<text text-anchor="start" x="474" y="-74.5" font-family="Helvetica,sans-Serif" font-size="10.00">JSystem/JSupport/JSUList</text>
<text text-anchor="middle" x="534" y="-63.5" font-family="Helvetica,sans-Serif" font-size="10.00">/JSUList.h</text>
</a>
</g>
</g>
<!-- Node16&#45;&gt;Node17 -->
<g id="edge23" class="edge">
<title>Node16&#45;&gt;Node17</title>
<path fill="none" stroke="midnightblue" d="M580.82,-324.36C584.28,-287.15 597.18,-141.63 589,-123 583.83,-111.22 574.4,-100.99 564.8,-92.87"/>
<polygon fill="midnightblue" stroke="midnightblue" points="566.8,-90 556.78,-86.56 562.47,-95.5 566.8,-90"/>
</g>
<!-- Node18 -->
<g id="node18" class="node">
<title>Node18</title>
<g id="a_node18"><a xlink:href="JUTXfb_8h.html" target="_top" xlink:title=" ">
<polygon fill="white" stroke="black" points="595.5,-257.5 595.5,-287.5 720.5,-287.5 720.5,-257.5 595.5,-257.5"/>
<text text-anchor="start" x="603.5" y="-275.5" font-family="Helvetica,sans-Serif" font-size="10.00">JSystem/JUtility/JUTXfb</text>
<text text-anchor="middle" x="658" y="-264.5" font-family="Helvetica,sans-Serif" font-size="10.00">/JUTXfb.h</text>
</a>
</g>
</g>
<!-- Node16&#45;&gt;Node18 -->
<g id="edge25" class="edge">
<title>Node16&#45;&gt;Node18</title>
<path fill="none" stroke="midnightblue" d="M591.18,-324.48C601.64,-316.49 617.68,-304.25 631.43,-293.77"/>
<polygon fill="midnightblue" stroke="midnightblue" points="633.79,-296.37 639.62,-287.52 629.54,-290.81 633.79,-296.37"/>
</g>
<!-- Node22 -->
<g id="node22" class="node">
<title>Node22</title>
<g id="a_node22"><a xlink:href="c__xyz_8h.html" target="_top" xlink:title=" ">
<polygon fill="white" stroke="black" points="738.5,-263 738.5,-282 845.5,-282 845.5,-263 738.5,-263"/>
<text text-anchor="middle" x="792" y="-270" font-family="Helvetica,sans-Serif" font-size="10.00">SComponent/c_xyz.h</text>
</a>
</g>
</g>
<!-- Node16&#45;&gt;Node22 -->
<g id="edge35" class="edge">
<title>Node16&#45;&gt;Node22</title>
<path fill="none" stroke="midnightblue" d="M610.37,-324.48C647.61,-314.03 710.81,-296.29 751.98,-284.73"/>
<polygon fill="midnightblue" stroke="midnightblue" points="753,-288.08 761.68,-282.01 751.11,-281.34 753,-288.08"/>
</g>
<!-- Node17&#45;&gt;Node8 -->
<g id="edge24" class="edge">
<title>Node17&#45;&gt;Node8</title>
<path fill="none" stroke="midnightblue" d="M493.24,-56.4C463.78,-46.21 424.41,-32.59 396.5,-22.93"/>
<polygon fill="midnightblue" stroke="midnightblue" points="397.37,-19.53 386.78,-19.57 395.08,-26.15 397.37,-19.53"/>
</g>
<!-- Node18&#45;&gt;Node8 -->
<g id="edge32" class="edge">
<title>Node18&#45;&gt;Node8</title>
<path fill="none" stroke="midnightblue" d="M659.71,-257.44C663.52,-219 668.32,-111.3 611,-56 583.37,-29.35 477.41,-18.11 412.95,-13.67"/>
<polygon fill="midnightblue" stroke="midnightblue" points="412.8,-10.15 402.6,-12.99 412.34,-17.13 412.8,-10.15"/>
</g>
<!-- Node19 -->
<g id="node19" class="node">
<title>Node19</title>
<g id="a_node19"><a xlink:href="JKRHeap_8h.html" target="_top" xlink:title=" ">
<polygon fill="white" stroke="black" points="413,-190.5 413,-220.5 549,-220.5 549,-190.5 413,-190.5"/>
<text text-anchor="start" x="421" y="-208.5" font-family="Helvetica,sans-Serif" font-size="10.00">JSystem/JKernel/JKRHeap</text>
<text text-anchor="middle" x="481" y="-197.5" font-family="Helvetica,sans-Serif" font-size="10.00">/JKRHeap.h</text>
</a>
</g>
</g>
<!-- Node18&#45;&gt;Node19 -->
<g id="edge26" class="edge">
<title>Node18&#45;&gt;Node19</title>
<path fill="none" stroke="midnightblue" d="M619.59,-257.4C593.04,-247.64 557.5,-234.59 529.07,-224.15"/>
<polygon fill="midnightblue" stroke="midnightblue" points="529.93,-220.74 519.33,-220.58 527.51,-227.31 529.93,-220.74"/>
</g>
<!-- Node21 -->
<g id="node21" class="node">
<title>Node21</title>
<g id="a_node21"><a xlink:href="GX_8h.html" target="_top" xlink:title=" ">
<polygon fill="white" stroke="black" points="674.5,-62 674.5,-81 725.5,-81 725.5,-62 674.5,-62"/>
<text text-anchor="middle" x="700" y="-69" font-family="Helvetica,sans-Serif" font-size="10.00">gx/GX.h</text>
</a>
</g>
</g>
<!-- Node18&#45;&gt;Node21 -->
<g id="edge33" class="edge">
<title>Node18&#45;&gt;Node21</title>
<path fill="none" stroke="midnightblue" d="M661.02,-257.19C668.47,-221.91 687.7,-130.78 696.04,-91.25"/>
<polygon fill="midnightblue" stroke="midnightblue" points="699.49,-91.87 698.13,-81.36 692.64,-90.42 699.49,-91.87"/>
</g>
<!-- Node19&#45;&gt;Node7 -->
<g id="edge31" class="edge">
<title>Node19&#45;&gt;Node7</title>
<path fill="none" stroke="midnightblue" d="M475.26,-220.79C464.99,-246.04 442.44,-300.04 420,-344 415.28,-353.24 409.56,-363.26 404.68,-371.5"/>
<polygon fill="midnightblue" stroke="midnightblue" points="401.61,-369.81 399.46,-380.19 407.61,-373.42 401.61,-369.81"/>
</g>
<!-- Node19&#45;&gt;Node8 -->
<g id="edge30" class="edge">
<title>Node19&#45;&gt;Node8</title>
<path fill="none" stroke="midnightblue" d="M458.89,-190.32C446.13,-181.21 430.56,-168.42 420,-154 404.78,-133.23 379.72,-63.04 368.18,-29.35"/>
<polygon fill="midnightblue" stroke="midnightblue" points="371.46,-28.14 364.93,-19.8 364.84,-30.39 371.46,-28.14"/>
</g>
<!-- Node20 -->
<g id="node20" class="node">
<title>Node20</title>
<g id="a_node20"><a xlink:href="JKRDisposer_8h.html" target="_top" xlink:title=" ">
<polygon fill="white" stroke="black" points="428.5,-123.5 428.5,-153.5 579.5,-153.5 579.5,-123.5 428.5,-123.5"/>
<text text-anchor="start" x="436.5" y="-141.5" font-family="Helvetica,sans-Serif" font-size="10.00">JSystem/JKernel/JKRDisposer</text>
<text text-anchor="middle" x="504" y="-130.5" font-family="Helvetica,sans-Serif" font-size="10.00">/JKRDisposer.h</text>
</a>
</g>
</g>
<!-- Node19&#45;&gt;Node20 -->
<g id="edge27" class="edge">
<title>Node19&#45;&gt;Node20</title>
<path fill="none" stroke="midnightblue" d="M485.99,-190.4C488.79,-182.47 492.37,-172.38 495.59,-163.27"/>
<polygon fill="midnightblue" stroke="midnightblue" points="498.98,-164.17 499.02,-153.58 492.38,-161.84 498.98,-164.17"/>
</g>
<!-- Node20&#45;&gt;Node8 -->
<g id="edge29" class="edge">
<title>Node20&#45;&gt;Node8</title>
<path fill="none" stroke="midnightblue" d="M488.49,-123.26C470.63,-106.91 440.36,-79.33 414,-56 402.69,-45.98 389.85,-34.87 379.76,-26.2"/>
<polygon fill="midnightblue" stroke="midnightblue" points="381.89,-23.42 372.03,-19.56 377.34,-28.73 381.89,-23.42"/>
</g>
<!-- Node20&#45;&gt;Node17 -->
<g id="edge28" class="edge">
<title>Node20&#45;&gt;Node17</title>
<path fill="none" stroke="midnightblue" d="M510.51,-123.4C514.24,-115.3 519.03,-104.94 523.3,-95.69"/>
<polygon fill="midnightblue" stroke="midnightblue" points="526.49,-97.12 527.5,-86.58 520.13,-94.19 526.49,-97.12"/>
</g>
<!-- Node21&#45;&gt;Node8 -->
<g id="edge34" class="edge">
<title>Node21&#45;&gt;Node8</title>
<path fill="none" stroke="midnightblue" d="M678.65,-61.88C672.69,-59.71 666.16,-57.56 660,-56 574.61,-34.3 472.62,-21.68 412.81,-15.58"/>
<polygon fill="midnightblue" stroke="midnightblue" points="412.81,-12.06 402.51,-14.55 412.11,-19.03 412.81,-12.06"/>
</g>
<!-- Node22&#45;&gt;Node7 -->
<g id="edge38" class="edge">
<title>Node22&#45;&gt;Node7</title>
<path fill="none" stroke="midnightblue" d="M774.45,-282.08C743.92,-296.7 678.79,-326.54 621,-344 554.6,-364.06 474.51,-377.53 429.4,-384.18"/>
<polygon fill="midnightblue" stroke="midnightblue" points="428.64,-380.75 419.25,-385.64 429.65,-387.68 428.64,-380.75"/>
</g>
<!-- Node23 -->
<g id="node23" class="node">
<title>Node23</title>
<g id="a_node23"><a xlink:href="c__math_8h.html" target="_top" xlink:title=" ">
<polygon fill="white" stroke="black" points="764,-196 764,-215 880,-215 880,-196 764,-196"/>
<text text-anchor="middle" x="822" y="-203" font-family="Helvetica,sans-Serif" font-size="10.00">SComponent/c_math.h</text>
</a>
</g>
</g>
<!-- Node22&#45;&gt;Node23 -->
<g id="edge36" class="edge">
<title>Node22&#45;&gt;Node23</title>
<path fill="none" stroke="midnightblue" d="M796.05,-262.73C800.54,-252.99 807.93,-236.98 813.68,-224.53"/>
<polygon fill="midnightblue" stroke="midnightblue" points="817.01,-225.67 818.02,-215.13 810.65,-222.74 817.01,-225.67"/>
</g>
<!-- Node23&#45;&gt;Node7 -->
<g id="edge37" class="edge">
<title>Node23&#45;&gt;Node7</title>
<path fill="none" stroke="midnightblue" d="M830.69,-215.09C845.53,-230.8 872.53,-264.7 855,-288 803.44,-356.55 527.86,-380.53 429.18,-386.99"/>
<polygon fill="midnightblue" stroke="midnightblue" points="428.88,-383.5 419.12,-387.63 429.32,-390.49 428.88,-383.5"/>
</g>
<!-- Node24&#45;&gt;Node5 -->
<g id="edge41" class="edge">
<title>Node24&#45;&gt;Node5</title>
<path fill="none" stroke="midnightblue" d="M241.44,-548.08C246.95,-540.46 255.03,-529.26 261.76,-519.94"/>
<polygon fill="midnightblue" stroke="midnightblue" points="264.66,-521.91 267.68,-511.75 258.99,-517.81 264.66,-521.91"/>
</g>
<!-- Node24&#45;&gt;Node6 -->
<g id="edge42" class="edge">
<title>Node24&#45;&gt;Node6</title>
<path fill="none" stroke="midnightblue" d="M227.53,-548.29C217.56,-535.53 202.21,-511.2 212,-492 219,-478.27 232.37,-467.75 244.9,-460.35"/>
<polygon fill="midnightblue" stroke="midnightblue" points="246.67,-463.37 253.78,-455.51 243.32,-457.22 246.67,-463.37"/>
</g>
<!-- Node25&#45;&gt;Node4 -->
<g id="edge46" class="edge">
<title>Node25&#45;&gt;Node4</title>
<path fill="none" stroke="midnightblue" d="M131.55,-727.41C154.35,-718.11 184.01,-705.08 209,-691 218.11,-685.87 268.96,-649.91 297.88,-629.34"/>
<polygon fill="midnightblue" stroke="midnightblue" points="299.96,-632.16 306.08,-623.51 295.9,-626.45 299.96,-632.16"/>
</g>
<!-- Node25&#45;&gt;Node7 -->
<g id="edge52" class="edge">
<title>Node25&#45;&gt;Node7</title>
<path fill="none" stroke="midnightblue" d="M83.74,-727.26C67.13,-704.78 38,-659.08 38,-615 38,-615 38,-615 38,-501 38,-460.14 66.56,-454.48 103,-436 147.14,-413.61 291,-399.35 358.47,-393.72"/>
<polygon fill="midnightblue" stroke="midnightblue" points="358.93,-397.2 368.61,-392.9 358.36,-390.22 358.93,-397.2"/>
</g>
<!-- Node26 -->
<g id="node26" class="node">
<title>Node26</title>
<g id="a_node26"><a xlink:href="f__pc__layer_8h.html" target="_top" xlink:title=" ">
<polygon fill="white" stroke="black" points="104,-666 104,-685 200,-685 200,-666 104,-666"/>
<text text-anchor="middle" x="152" y="-673" font-family="Helvetica,sans-Serif" font-size="10.00">f/f_pc/f_pc_layer.h</text>
</a>
</g>
</g>
<!-- Node25&#45;&gt;Node26 -->
<g id="edge47" class="edge">
<title>Node25&#45;&gt;Node26</title>
<path fill="none" stroke="midnightblue" d="M107.37,-727.4C116.26,-717.26 128.26,-703.57 137.59,-692.94"/>
<polygon fill="midnightblue" stroke="midnightblue" points="140.41,-695.02 144.38,-685.19 135.15,-690.41 140.41,-695.02"/>
</g>
<!-- Node26&#45;&gt;Node4 -->
<g id="edge49" class="edge">
<title>Node26&#45;&gt;Node4</title>
<path fill="none" stroke="midnightblue" d="M175.78,-665.98C204.38,-655.72 252.55,-638.46 284.8,-626.9"/>
<polygon fill="midnightblue" stroke="midnightblue" points="286.03,-630.18 294.26,-623.51 283.67,-623.59 286.03,-630.18"/>
</g>
<!-- Node26&#45;&gt;Node6 -->
<g id="edge48" class="edge">
<title>Node26&#45;&gt;Node6</title>
<path fill="none" stroke="midnightblue" d="M151.8,-665.88C151.59,-637.08 154.9,-543.05 204,-492 216.29,-479.23 232.88,-468.36 246.82,-460.51"/>
<polygon fill="midnightblue" stroke="midnightblue" points="248.83,-463.4 255.96,-455.57 245.5,-457.24 248.83,-463.4"/>
</g>
<!-- Node26&#45;&gt;Node7 -->
<g id="edge51" class="edge">
<title>Node26&#45;&gt;Node7</title>
<path fill="none" stroke="midnightblue" d="M147.03,-665.84C136.73,-647.03 114,-600.8 114,-559 114,-559 114,-559 114,-501 114,-449 283.42,-411.34 358.69,-397.17"/>
<polygon fill="midnightblue" stroke="midnightblue" points="359.46,-400.59 368.66,-395.33 358.19,-393.71 359.46,-400.59"/>
</g>
<!-- Node26&#45;&gt;Node24 -->
<g id="edge50" class="edge">
<title>Node26&#45;&gt;Node24</title>
<path fill="none" stroke="midnightblue" d="M158.24,-665.82C171.94,-646.76 204.86,-600.95 222.81,-575.96"/>
<polygon fill="midnightblue" stroke="midnightblue" points="225.7,-577.95 228.69,-567.78 220.01,-573.86 225.7,-577.95"/>
</g>
<!-- Node27&#45;&gt;Node4 -->
<g id="edge54" class="edge">
<title>Node27&#45;&gt;Node4</title>
<path fill="none" stroke="midnightblue" d="M224.87,-732.81C241.36,-711.95 283.36,-658.81 304.87,-631.61"/>
<polygon fill="midnightblue" stroke="midnightblue" points="307.62,-633.77 311.08,-623.76 302.13,-629.43 307.62,-633.77"/>
</g>
<!-- Node27&#45;&gt;Node7 -->
<g id="edge56" class="edge">
<title>Node27&#45;&gt;Node7</title>
<path fill="none" stroke="midnightblue" d="M170.69,-732.93C144.84,-725.87 114.25,-713.26 95,-691 72.22,-664.67 76,-649.82 76,-615 76,-615 76,-615 76,-501 76,-454.84 115.08,-455.32 157,-436 224.01,-405.11 311.03,-395.42 358.79,-392.39"/>
<polygon fill="midnightblue" stroke="midnightblue" points="359.14,-395.87 368.92,-391.81 358.74,-388.88 359.14,-395.87"/>
</g>
<!-- Node27&#45;&gt;Node26 -->
<g id="edge55" class="edge">
<title>Node27&#45;&gt;Node26</title>
<path fill="none" stroke="midnightblue" d="M209.1,-732.73C198.61,-722.4 180.98,-705.04 168.08,-692.33"/>
<polygon fill="midnightblue" stroke="midnightblue" points="170.34,-689.65 160.76,-685.13 165.43,-694.64 170.34,-689.65"/>
</g>
<!-- Node28&#45;&gt;Node4 -->
<g id="edge58" class="edge">
<title>Node28&#45;&gt;Node4</title>
<path fill="none" stroke="midnightblue" d="M512.48,-665.98C472.44,-655.48 404.36,-637.64 360.3,-626.09"/>
<polygon fill="midnightblue" stroke="midnightblue" points="361.02,-622.66 350.46,-623.51 359.25,-629.43 361.02,-622.66"/>
</g>
<!-- Node28&#45;&gt;Node7 -->
<g id="edge59" class="edge">
<title>Node28&#45;&gt;Node7</title>
<path fill="none" stroke="midnightblue" d="M534.25,-665.89C513.52,-648.23 470,-605.62 470,-559 470,-559 470,-559 470,-501 470,-461.28 436.04,-425.5 413.52,-406.15"/>
<polygon fill="midnightblue" stroke="midnightblue" points="415.48,-403.24 405.54,-399.57 411.02,-408.63 415.48,-403.24"/>
</g>
<!-- Node29&#45;&gt;Node4 -->
<g id="edge61" class="edge">
<title>Node29&#45;&gt;Node4</title>
<path fill="none" stroke="midnightblue" d="M379.46,-732.81C368.73,-712.22 341.58,-660.19 327.22,-632.68"/>
<polygon fill="midnightblue" stroke="midnightblue" points="330.3,-631 322.57,-623.76 324.09,-634.24 330.3,-631"/>
</g>
<!-- Node30 -->
<g id="node30" class="node">
<title>Node30</title>
<g id="a_node30"><a xlink:href="f__pc__method__tag_8h.html" target="_top" xlink:title=" ">
<polygon fill="white" stroke="black" points="370.5,-660.5 370.5,-690.5 471.5,-690.5 471.5,-660.5 370.5,-660.5"/>
<text text-anchor="start" x="378.5" y="-678.5" font-family="Helvetica,sans-Serif" font-size="10.00">f/f_pc/f_pc_method</text>
<text text-anchor="middle" x="421" y="-667.5" font-family="Helvetica,sans-Serif" font-size="10.00">_tag.h</text>
</a>
</g>
</g>
<!-- Node29&#45;&gt;Node30 -->
<g id="edge62" class="edge">
<title>Node29&#45;&gt;Node30</title>
<path fill="none" stroke="midnightblue" d="M388.99,-732.73C393.85,-724.2 401.43,-710.87 408,-699.33"/>
<polygon fill="midnightblue" stroke="midnightblue" points="411.07,-701.01 412.98,-690.59 404.99,-697.55 411.07,-701.01"/>
</g>
<!-- Node30&#45;&gt;Node4 -->
<g id="edge63" class="edge">
<title>Node30&#45;&gt;Node4</title>
<path fill="none" stroke="midnightblue" d="M396.59,-660.4C380.08,-650.86 358.38,-638.32 341.96,-628.84"/>
<polygon fill="midnightblue" stroke="midnightblue" points="343.4,-625.63 332.99,-623.66 339.9,-631.69 343.4,-625.63"/>
</g>
<!-- Node30&#45;&gt;Node7 -->
<g id="edge64" class="edge">
<title>Node30&#45;&gt;Node7</title>
<path fill="none" stroke="midnightblue" d="M423.23,-660.32C426.44,-638.57 432,-595.66 432,-559 432,-559 432,-559 432,-501 432,-466.81 415.4,-429.76 404.14,-408.57"/>
<polygon fill="midnightblue" stroke="midnightblue" points="407.18,-406.83 399.28,-399.77 401.05,-410.22 407.18,-406.83"/>
</g>
<!-- Node31&#45;&gt;Node7 -->
<g id="edge68" class="edge">
<title>Node31&#45;&gt;Node7</title>
<path fill="none" stroke="midnightblue" d="M576.83,-492.42C557,-479.61 518.16,-454.97 484,-436 463.38,-424.55 439.48,-412.66 421.49,-403.98"/>
<polygon fill="midnightblue" stroke="midnightblue" points="422.7,-400.68 412.17,-399.51 419.67,-406.99 422.7,-400.68"/>
</g>
<!-- Node32 -->
<g id="node32" class="node">
<title>Node32</title>
<g id="a_node32"><a xlink:href="f__pc__method_8h.html" target="_top" xlink:title=" ">
<polygon fill="white" stroke="black" points="536,-436.5 536,-455.5 644,-455.5 644,-436.5 536,-436.5"/>
<text text-anchor="middle" x="590" y="-443.5" font-family="Helvetica,sans-Serif" font-size="10.00">f/f_pc/f_pc_method.h</text>
</a>
</g>
</g>
<!-- Node31&#45;&gt;Node32 -->
<g id="edge66" class="edge">
<title>Node31&#45;&gt;Node32</title>
<path fill="none" stroke="midnightblue" d="M590,-492.08C590,-485.01 590,-474.86 590,-465.99"/>
<polygon fill="midnightblue" stroke="midnightblue" points="593.5,-465.75 590,-455.75 586.5,-465.75 593.5,-465.75"/>
</g>
<!-- Node32&#45;&gt;Node7 -->
<g id="edge67" class="edge">
<title>Node32&#45;&gt;Node7</title>
<path fill="none" stroke="midnightblue" d="M558.94,-436.44C523.52,-426.68 465.75,-410.77 428.83,-400.6"/>
<polygon fill="midnightblue" stroke="midnightblue" points="429.57,-397.17 419,-397.89 427.71,-403.92 429.57,-397.17"/>
</g>
</g>
</svg>
        <g id="navigator" transform="translate(0 0)" fill="#404254">
                <rect fill="#f2f5e9" fill-opacity="0.5" stroke="#606060" stroke-width=".5" x="0" y="0" width="60" height="60"/>
                <use id="zoomplus" xlink:href="#zoomPlus" x="17" y="9" onmousedown="handleZoom(evt,'in')"/>
                <use id="zoomminus" xlink:href="#zoomMin" x="42" y="9" onmousedown="handleZoom(evt,'out')"/>
                <use id="reset" xlink:href="#resetDef" x="30" y="36" onmousedown="handleReset()"/>
                <g id="arrowUp" xlink:href="#dirArrow" transform="translate(30 24)" onmousedown="handlePan(0,-1)">
                  <use xlink:href="#rim" fill="#404040">
                        <set attributeName="fill" to="#808080" begin="arrowUp.mouseover" end="arrowUp.mouseout"/>
                  </use>
                  <path fill="none" stroke="white" stroke-width="1.5" d="M0,-3.0v7 M-2.5,-0.5L0,-3.0L2.5,-0.5"/>
                </g>
                <g id="arrowRight" xlink:href="#dirArrow" transform="rotate(90) translate(36 -43)" onmousedown="handlePan(1,0)">
                  <use xlink:href="#rim" fill="#404040">
                        <set attributeName="fill" to="#808080" begin="arrowRight.mouseover" end="arrowRight.mouseout"/>
                  </use>
                  <path fill="none" stroke="white" stroke-width="1.5" d="M0,-3.0v7 M-2.5,-0.5L0,-3.0L2.5,-0.5"/>
                </g>
                <g id="arrowDown" xlink:href="#dirArrow" transform="rotate(180) translate(-30 -48)" onmousedown="handlePan(0,1)">
                  <use xlink:href="#rim" fill="#404040">
                        <set attributeName="fill" to="#808080" begin="arrowDown.mouseover" end="arrowDown.mouseout"/>
                  </use>
                  <path fill="none" stroke="white" stroke-width="1.5" d="M0,-3.0v7 M-2.5,-0.5L0,-3.0L2.5,-0.5"/>
                </g>
                <g id="arrowLeft" xlink:href="#dirArrow" transform="rotate(270) translate(-36 17)" onmousedown="handlePan(-1,0)">
                  <use xlink:href="#rim" fill="#404040">
                        <set attributeName="fill" to="#808080" begin="arrowLeft.mouseover" end="arrowLeft.mouseout"/>
                  </use>
                  <path fill="none" stroke="white" stroke-width="1.5" d="M0,-3.0v7 M-2.5,-0.5L0,-3.0L2.5,-0.5"/>
                </g>
        </g>
        <svg viewBox="0 0 15 15" width="100%" height="30px" preserveAspectRatio="xMaxYMin meet">
         <g id="arrow_out" transform="scale(0.3 0.3)">
          <a xlink:href="c__request_8cpp__incl_org.svg" target="_base">
           <rect id="button" ry="5" rx="5" y="6" x="6" height="38" width="38"
                fill="#f2f5e9" fill-opacity="0.5" stroke="#606060" stroke-width="1.0"/>
           <path id="arrow"
             d="M 11.500037,31.436501 C 11.940474,20.09759 22.043105,11.32322 32.158766,21.979434 L 37.068811,17.246167 C 37.068811,17.246167 37.088388,32 37.088388,32 L 22.160133,31.978069 C 22.160133,31.978069 26.997745,27.140456 26.997745,27.140456 C 18.528582,18.264221 13.291696,25.230495 11.500037,31.436501 z"
             style="fill:#404040;"/>
          </a>
         </g>
        </svg>
</svg>
