<?xml version="1.0" encoding="UTF-8" standalone="no"?>
<!DOCTYPE svg PUBLIC "-//W3C//DTD SVG 1.1//EN"
 "http://www.w3.org/Graphics/SVG/1.1/DTD/svg11.dtd">
<!-- Generated by graphviz version 2.46.0 (20210122.1329)
 -->
<!-- Title: include/SComponent/c_sxyz.h Pages: 1 -->
<svg width="624pt" height="173pt"
 viewBox="0.00 0.00 624.00 173.00" xmlns="http://www.w3.org/2000/svg" xmlns:xlink="http://www.w3.org/1999/xlink">
<g id="graph0" class="graph" transform="scale(1 1) rotate(0) translate(4 169)">
<title>include/SComponent/c_sxyz.h</title>
<polygon fill="white" stroke="transparent" points="-4,4 -4,-169 620,-169 620,4 -4,4"/>
<!-- Node1 -->
<g id="node1" class="node">
<title>Node1</title>
<g id="a_node1"><a xlink:title=" ">
<polygon fill="#bfbfbf" stroke="black" points="209.5,-134.5 209.5,-164.5 316.5,-164.5 316.5,-134.5 209.5,-134.5"/>
<text text-anchor="start" x="217.5" y="-152.5" font-family="Helvetica,sans-Serif" font-size="10.00">include/SComponent</text>
<text text-anchor="middle" x="263" y="-141.5" font-family="Helvetica,sans-Serif" font-size="10.00">/c_sxyz.h</text>
</a>
</g>
</g>
<!-- Node2 -->
<g id="node2" class="node">
<title>Node2</title>
<g id="a_node2"><a xlink:href="d__camera_8cpp.html" target="_top" xlink:title=" ">
<polygon fill="white" stroke="black" points="0,-73 0,-92 102,-92 102,-73 0,-73"/>
<text text-anchor="middle" x="51" y="-80" font-family="Helvetica,sans-Serif" font-size="10.00">src/d/d_camera.cpp</text>
</a>
</g>
</g>
<!-- Node1&#45;&gt;Node2 -->
<g id="edge1" class="edge">
<title>Node1&#45;&gt;Node2</title>
<path fill="none" stroke="midnightblue" d="M207.59,-131.51C166.21,-118.83 111.41,-102.02 78.82,-92.03"/>
<polygon fill="midnightblue" stroke="midnightblue" points="206.67,-134.89 217.26,-134.48 208.73,-128.2 206.67,-134.89"/>
</g>
<!-- Node3 -->
<g id="node3" class="node">
<title>Node3</title>
<g id="a_node3"><a xlink:href="c__m3d_8cpp.html" target="_top" xlink:title=" ">
<polygon fill="white" stroke="black" points="120,-67.5 120,-97.5 254,-97.5 254,-67.5 120,-67.5"/>
<text text-anchor="start" x="128" y="-85.5" font-family="Helvetica,sans-Serif" font-size="10.00">libs/SSystem/SComponent</text>
<text text-anchor="middle" x="187" y="-74.5" font-family="Helvetica,sans-Serif" font-size="10.00">/c_m3d.cpp</text>
</a>
</g>
</g>
<!-- Node1&#45;&gt;Node3 -->
<g id="edge2" class="edge">
<title>Node1&#45;&gt;Node3</title>
<path fill="none" stroke="midnightblue" d="M238.89,-127.88C227.34,-118.01 213.81,-106.43 203.46,-97.58"/>
<polygon fill="midnightblue" stroke="midnightblue" points="236.63,-130.56 246.51,-134.4 241.18,-125.24 236.63,-130.56"/>
</g>
<!-- Node4 -->
<g id="node4" class="node">
<title>Node4</title>
<g id="a_node4"><a xlink:href="c__sxyz_8cpp.html" target="_top" xlink:title=" ">
<polygon fill="white" stroke="black" points="272,-67.5 272,-97.5 406,-97.5 406,-67.5 272,-67.5"/>
<text text-anchor="start" x="280" y="-85.5" font-family="Helvetica,sans-Serif" font-size="10.00">libs/SSystem/SComponent</text>
<text text-anchor="middle" x="339" y="-74.5" font-family="Helvetica,sans-Serif" font-size="10.00">/c_sxyz.cpp</text>
</a>
</g>
</g>
<!-- Node1&#45;&gt;Node4 -->
<g id="edge3" class="edge">
<title>Node1&#45;&gt;Node4</title>
<path fill="none" stroke="midnightblue" d="M287.11,-127.88C298.66,-118.01 312.19,-106.43 322.54,-97.58"/>
<polygon fill="midnightblue" stroke="midnightblue" points="284.82,-125.24 279.49,-134.4 289.37,-130.56 284.82,-125.24"/>
</g>
<!-- Node5 -->
<g id="node5" class="node">
<title>Node5</title>
<g id="a_node5"><a xlink:href="d__a__alink_8h.html" target="_top" xlink:title=" ">
<polygon fill="white" stroke="black" points="424.5,-67.5 424.5,-97.5 543.5,-97.5 543.5,-67.5 424.5,-67.5"/>
<text text-anchor="start" x="432.5" y="-85.5" font-family="Helvetica,sans-Serif" font-size="10.00">include/d/d_a/d_a_alink</text>
<text text-anchor="middle" x="484" y="-74.5" font-family="Helvetica,sans-Serif" font-size="10.00">/d_a_alink.h</text>
</a>
</g>
</g>
<!-- Node1&#45;&gt;Node5 -->
<g id="edge4" class="edge">
<title>Node1&#45;&gt;Node5</title>
<path fill="none" stroke="midnightblue" d="M320.53,-131.58C356.42,-121.02 402.09,-107.59 436.02,-97.61"/>
<polygon fill="midnightblue" stroke="midnightblue" points="319.29,-128.3 310.68,-134.48 321.26,-135.01 319.29,-128.3"/>
</g>
<!-- Node6 -->
<g id="node6" class="node">
<title>Node6</title>
<g id="a_node6"><a xlink:href="d__attention_8cpp.html" target="_top" xlink:title=" ">
<polygon fill="white" stroke="black" points="229.5,-6 229.5,-25 336.5,-25 336.5,-6 229.5,-6"/>
<text text-anchor="middle" x="283" y="-13" font-family="Helvetica,sans-Serif" font-size="10.00">src/d/d_attention.cpp</text>
</a>
</g>
</g>
<!-- Node5&#45;&gt;Node6 -->
<g id="edge5" class="edge">
<title>Node5&#45;&gt;Node6</title>
<path fill="none" stroke="midnightblue" d="M430.72,-64.27C391.55,-51.6 340,-34.93 309.31,-25.01"/>
<polygon fill="midnightblue" stroke="midnightblue" points="429.79,-67.65 440.39,-67.4 431.95,-60.99 429.79,-67.65"/>
</g>
<!-- Node7 -->
<g id="node7" class="node">
<title>Node7</title>
<g id="a_node7"><a xlink:href="d__a__alink_8cpp.html" target="_top" xlink:title=" ">
<polygon fill="white" stroke="black" points="354.5,-6 354.5,-25 473.5,-25 473.5,-6 354.5,-6"/>
<text text-anchor="middle" x="414" y="-13" font-family="Helvetica,sans-Serif" font-size="10.00">src/d/d_a/d_a_alink.cpp</text>
</a>
</g>
</g>
<!-- Node5&#45;&gt;Node7 -->
<g id="edge6" class="edge">
<title>Node5&#45;&gt;Node7</title>
<path fill="none" stroke="midnightblue" d="M461.21,-60.34C448.35,-48.4 432.99,-34.14 423.36,-25.19"/>
<polygon fill="midnightblue" stroke="midnightblue" points="459.1,-63.16 468.81,-67.4 463.86,-58.03 459.1,-63.16"/>
</g>
<!-- Node8 -->
<g id="node8" class="node">
<title>Node8</title>
<g id="a_node8"><a xlink:href="d__a__player_8h.html" target="_top" xlink:title=" ">
<polygon fill="white" stroke="black" points="492,-0.5 492,-30.5 616,-30.5 616,-0.5 492,-0.5"/>
<text text-anchor="start" x="500" y="-18.5" font-family="Helvetica,sans-Serif" font-size="10.00">include/d/d_a/d_a_player</text>
<text text-anchor="middle" x="554" y="-7.5" font-family="Helvetica,sans-Serif" font-size="10.00">/d_a_player.h</text>
</a>
</g>
</g>
<!-- Node5&#45;&gt;Node8 -->
<g id="edge7" class="edge">
<title>Node5&#45;&gt;Node8</title>
<path fill="none" stroke="midnightblue" d="M500.74,-60.02C510.51,-50.34 522.78,-39.17 533.17,-30.58"/>
<polygon fill="midnightblue" stroke="midnightblue" points="498.01,-57.8 493.51,-67.4 503.01,-62.7 498.01,-57.8"/>
</g>
<!-- Node8&#45;&gt;Node5 -->
<g id="edge8" class="edge">
<title>Node8&#45;&gt;Node5</title>
<path fill="none" stroke="midnightblue" d="M537.3,-37.94C527.52,-47.63 515.26,-58.79 504.87,-67.4"/>
<polygon fill="midnightblue" stroke="midnightblue" points="540.02,-40.17 544.52,-30.58 535.02,-35.27 540.02,-40.17"/>
</g>
</g>
</svg>
