<?xml version="1.0" encoding="UTF-8" standalone="no"?>
<!DOCTYPE svg PUBLIC "-//W3C//DTD SVG 1.1//EN"
 "http://www.w3.org/Graphics/SVG/1.1/DTD/svg11.dtd">
<!-- Generated by graphviz version 2.46.1 (20210215.1649)
 -->
<!-- Title: include/SComponent/c_tag_iter.h Pages: 1 -->
<svg width="826pt" height="173pt"
 viewBox="0.00 0.00 825.50 173.00" xmlns="http://www.w3.org/2000/svg" xmlns:xlink="http://www.w3.org/1999/xlink">
<g id="graph0" class="graph" transform="scale(1 1) rotate(0) translate(4 169)">
<title>include/SComponent/c_tag_iter.h</title>
<polygon fill="white" stroke="transparent" points="-4,4 -4,-169 821.5,-169 821.5,4 -4,4"/>
<!-- Node1 -->
<g id="node1" class="node">
<title>Node1</title>
<g id="a_node1"><a xlink:title=" ">
<polygon fill="#bfbfbf" stroke="black" points="313,-134.5 313,-164.5 420,-164.5 420,-134.5 313,-134.5"/>
<text text-anchor="start" x="321" y="-152.5" font-family="Helvetica,sans-Serif" font-size="10.00">include/SComponent</text>
<text text-anchor="middle" x="366.5" y="-141.5" font-family="Helvetica,sans-Serif" font-size="10.00">/c_tag_iter.h</text>
</a>
</g>
</g>
<!-- Node2 -->
<g id="node2" class="node">
<title>Node2</title>
<g id="a_node2"><a xlink:href="f__op__actor__iter_8cpp.html" target="_top" xlink:title=" ">
<polygon fill="white" stroke="black" points="0,-67.5 0,-97.5 107,-97.5 107,-67.5 0,-67.5"/>
<text text-anchor="start" x="8" y="-85.5" font-family="Helvetica,sans-Serif" font-size="10.00">src/f/f_op/f_op_actor</text>
<text text-anchor="middle" x="53.5" y="-74.5" font-family="Helvetica,sans-Serif" font-size="10.00">_iter.cpp</text>
</a>
</g>
</g>
<!-- Node1&#45;&gt;Node2 -->
<g id="edge1" class="edge">
<title>Node1&#45;&gt;Node2</title>
<path fill="none" stroke="midnightblue" d="M302.68,-136.23C251.88,-126.33 179.02,-111.81 115.5,-98 112.8,-97.41 110.04,-96.8 107.25,-96.18"/>
<polygon fill="midnightblue" stroke="midnightblue" points="302.06,-139.67 312.54,-138.15 303.39,-132.8 302.06,-139.67"/>
</g>
<!-- Node3 -->
<g id="node3" class="node">
<title>Node3</title>
<g id="a_node3"><a xlink:href="f__op__scene__iter_8cpp.html" target="_top" xlink:title=" ">
<polygon fill="white" stroke="black" points="125,-67.5 125,-97.5 236,-97.5 236,-67.5 125,-67.5"/>
<text text-anchor="start" x="133" y="-85.5" font-family="Helvetica,sans-Serif" font-size="10.00">src/f/f_op/f_op_scene</text>
<text text-anchor="middle" x="180.5" y="-74.5" font-family="Helvetica,sans-Serif" font-size="10.00">_iter.cpp</text>
</a>
</g>
</g>
<!-- Node1&#45;&gt;Node3 -->
<g id="edge2" class="edge">
<title>Node1&#45;&gt;Node3</title>
<path fill="none" stroke="midnightblue" d="M316.69,-131.09C286.66,-120.6 248.91,-107.41 220.78,-97.58"/>
<polygon fill="midnightblue" stroke="midnightblue" points="315.55,-134.4 326.14,-134.4 317.86,-127.79 315.55,-134.4"/>
</g>
<!-- Node4 -->
<g id="node4" class="node">
<title>Node4</title>
<g id="a_node4"><a xlink:href="f__pc__layer__iter_8cpp.html" target="_top" xlink:title=" ">
<polygon fill="white" stroke="black" points="254,-67.5 254,-97.5 359,-97.5 359,-67.5 254,-67.5"/>
<text text-anchor="start" x="262" y="-85.5" font-family="Helvetica,sans-Serif" font-size="10.00">src/f/f_pc/f_pc_layer</text>
<text text-anchor="middle" x="306.5" y="-74.5" font-family="Helvetica,sans-Serif" font-size="10.00">_iter.cpp</text>
</a>
</g>
</g>
<!-- Node1&#45;&gt;Node4 -->
<g id="edge3" class="edge">
<title>Node1&#45;&gt;Node4</title>
<path fill="none" stroke="midnightblue" d="M346.68,-127.02C337.74,-117.34 327.43,-106.17 319.49,-97.58"/>
<polygon fill="midnightblue" stroke="midnightblue" points="344.13,-129.42 353.48,-134.4 349.27,-124.67 344.13,-129.42"/>
</g>
<!-- Node5 -->
<g id="node5" class="node">
<title>Node5</title>
<g id="a_node5"><a xlink:href="f__pc__line__iter_8cpp.html" target="_top" xlink:title=" ">
<polygon fill="white" stroke="black" points="377.5,-67.5 377.5,-97.5 477.5,-97.5 477.5,-67.5 377.5,-67.5"/>
<text text-anchor="start" x="385.5" y="-85.5" font-family="Helvetica,sans-Serif" font-size="10.00">src/f/f_pc/f_pc_line</text>
<text text-anchor="middle" x="427.5" y="-74.5" font-family="Helvetica,sans-Serif" font-size="10.00">_iter.cpp</text>
</a>
</g>
</g>
<!-- Node1&#45;&gt;Node5 -->
<g id="edge4" class="edge">
<title>Node1&#45;&gt;Node5</title>
<path fill="none" stroke="midnightblue" d="M386.65,-127.02C395.74,-117.34 406.22,-106.17 414.29,-97.58"/>
<polygon fill="midnightblue" stroke="midnightblue" points="384.03,-124.71 379.74,-134.4 389.13,-129.5 384.03,-124.71"/>
</g>
<!-- Node6 -->
<g id="node6" class="node">
<title>Node6</title>
<g id="a_node6"><a xlink:href="c__tag__iter_8cpp.html" target="_top" xlink:title=" ">
<polygon fill="white" stroke="black" points="495.5,-67.5 495.5,-97.5 629.5,-97.5 629.5,-67.5 495.5,-67.5"/>
<text text-anchor="start" x="503.5" y="-85.5" font-family="Helvetica,sans-Serif" font-size="10.00">libs/SSystem/SComponent</text>
<text text-anchor="middle" x="562.5" y="-74.5" font-family="Helvetica,sans-Serif" font-size="10.00">/c_tag_iter.cpp</text>
</a>
</g>
</g>
<!-- Node1&#45;&gt;Node6 -->
<g id="edge5" class="edge">
<title>Node1&#45;&gt;Node6</title>
<path fill="none" stroke="midnightblue" d="M418.58,-131.23C450.29,-120.71 490.28,-107.45 520.05,-97.58"/>
<polygon fill="midnightblue" stroke="midnightblue" points="417.42,-127.93 409.03,-134.4 419.62,-134.57 417.42,-127.93"/>
</g>
<!-- Node7 -->
<g id="node7" class="node">
<title>Node7</title>
<g id="a_node7"><a xlink:href="f__pc__create__iter_8h.html" target="_top" xlink:title=" ">
<polygon fill="white" stroke="black" points="648,-67.5 648,-97.5 745,-97.5 745,-67.5 648,-67.5"/>
<text text-anchor="start" x="656" y="-85.5" font-family="Helvetica,sans-Serif" font-size="10.00">include/f/f_pc/f_pc</text>
<text text-anchor="middle" x="696.5" y="-74.5" font-family="Helvetica,sans-Serif" font-size="10.00">_create_iter.h</text>
</a>
</g>
</g>
<!-- Node1&#45;&gt;Node7 -->
<g id="edge6" class="edge">
<title>Node1&#45;&gt;Node7</title>
<path fill="none" stroke="midnightblue" d="M430.11,-137.83C485.38,-128.29 567.48,-113.46 638.5,-98 641.54,-97.34 644.67,-96.63 647.82,-95.9"/>
<polygon fill="midnightblue" stroke="midnightblue" points="429.37,-134.4 420.11,-139.55 430.56,-141.3 429.37,-134.4"/>
</g>
<!-- Node8 -->
<g id="node8" class="node">
<title>Node8</title>
<g id="a_node8"><a xlink:href="f__pc__create__iter_8cpp.html" target="_top" xlink:title=" ">
<polygon fill="white" stroke="black" points="575.5,-0.5 575.5,-30.5 687.5,-30.5 687.5,-0.5 575.5,-0.5"/>
<text text-anchor="start" x="583.5" y="-18.5" font-family="Helvetica,sans-Serif" font-size="10.00">src/f/f_pc/f_pc_create</text>
<text text-anchor="middle" x="631.5" y="-7.5" font-family="Helvetica,sans-Serif" font-size="10.00">_iter.cpp</text>
</a>
</g>
</g>
<!-- Node7&#45;&gt;Node8 -->
<g id="edge7" class="edge">
<title>Node7&#45;&gt;Node8</title>
<path fill="none" stroke="midnightblue" d="M675.31,-60.31C665.56,-50.56 654.26,-39.26 645.58,-30.58"/>
<polygon fill="midnightblue" stroke="midnightblue" points="672.85,-62.8 682.4,-67.4 677.8,-57.85 672.85,-62.8"/>
</g>
<!-- Node9 -->
<g id="node9" class="node">
<title>Node9</title>
<g id="a_node9"><a xlink:href="f__pc__create__req_8cpp.html" target="_top" xlink:title=" ">
<polygon fill="white" stroke="black" points="705.5,-0.5 705.5,-30.5 817.5,-30.5 817.5,-0.5 705.5,-0.5"/>
<text text-anchor="start" x="713.5" y="-18.5" font-family="Helvetica,sans-Serif" font-size="10.00">src/f/f_pc/f_pc_create</text>
<text text-anchor="middle" x="761.5" y="-7.5" font-family="Helvetica,sans-Serif" font-size="10.00">_req.cpp</text>
</a>
</g>
</g>
<!-- Node7&#45;&gt;Node9 -->
<g id="edge8" class="edge">
<title>Node7&#45;&gt;Node9</title>
<path fill="none" stroke="midnightblue" d="M717.69,-60.31C727.44,-50.56 738.74,-39.26 747.42,-30.58"/>
<polygon fill="midnightblue" stroke="midnightblue" points="715.2,-57.85 710.6,-67.4 720.15,-62.8 715.2,-57.85"/>
</g>
</g>
</svg>
