<?xml version="1.0" encoding="UTF-8" standalone="no"?>
<!DOCTYPE svg PUBLIC "-//W3C//DTD SVG 1.1//EN"
 "http://www.w3.org/Graphics/SVG/1.1/DTD/svg11.dtd">
<!-- Generated by graphviz version 2.46.0 (20210122.1329)
 -->
<!-- Title: include/SComponent/c_tag.h Pages: 1 -->
<svg width="805pt" height="643pt"
 viewBox="0.00 0.00 804.60 643.00" xmlns="http://www.w3.org/2000/svg" xmlns:xlink="http://www.w3.org/1999/xlink">
<g id="graph0" class="graph" transform="scale(1 1) rotate(0) translate(4 639)">
<title>include/SComponent/c_tag.h</title>
<polygon fill="white" stroke="transparent" points="-4,4 -4,-639 800.6,-639 800.6,4 -4,4"/>
<!-- Node1 -->
<g id="node1" class="node">
<title>Node1</title>
<g id="a_node1"><a xlink:title=" ">
<polygon fill="#bfbfbf" stroke="black" points="356.1,-604.5 356.1,-634.5 463.1,-634.5 463.1,-604.5 356.1,-604.5"/>
<text text-anchor="start" x="364.1" y="-622.5" font-family="Helvetica,sans-Serif" font-size="10.00">include/SComponent</text>
<text text-anchor="middle" x="409.6" y="-611.5" font-family="Helvetica,sans-Serif" font-size="10.00">/c_tag.h</text>
</a>
</g>
</g>
<!-- Node2 -->
<g id="node2" class="node">
<title>Node2</title>
<g id="a_node2"><a xlink:href="c__list_8h.html" target="_top" xlink:title=" ">
<polygon fill="white" stroke="black" points="354.1,-492.5 354.1,-511.5 461.1,-511.5 461.1,-492.5 354.1,-492.5"/>
<text text-anchor="middle" x="407.6" y="-499.5" font-family="Helvetica,sans-Serif" font-size="10.00">SComponent/c_list.h</text>
</a>
</g>
</g>
<!-- Node1&#45;&gt;Node2 -->
<g id="edge1" class="edge">
<title>Node1&#45;&gt;Node2</title>
<path fill="none" stroke="midnightblue" d="M419.21,-604.34C427.61,-590.21 437.73,-567.82 432.6,-548 430.05,-538.18 424.84,-528.21 419.84,-520.17"/>
<polygon fill="midnightblue" stroke="midnightblue" points="422.68,-518.11 414.22,-511.73 416.85,-521.99 422.68,-518.11"/>
</g>
<!-- Node3 -->
<g id="node3" class="node">
<title>Node3</title>
<g id="a_node3"><a xlink:href="c__node_8h.html" target="_top" xlink:title=" ">
<polygon fill="white" stroke="black" points="332.1,-436.5 332.1,-455.5 447.1,-455.5 447.1,-436.5 332.1,-436.5"/>
<text text-anchor="middle" x="389.6" y="-443.5" font-family="Helvetica,sans-Serif" font-size="10.00">SComponent/c_node.h</text>
</a>
</g>
</g>
<!-- Node1&#45;&gt;Node3 -->
<g id="edge36" class="edge">
<title>Node1&#45;&gt;Node3</title>
<path fill="none" stroke="midnightblue" d="M425.54,-604.45C450.51,-580.68 493.72,-531.3 470.6,-492 461.68,-476.84 445.61,-466.43 430.12,-459.46"/>
<polygon fill="midnightblue" stroke="midnightblue" points="431.2,-456.12 420.62,-455.56 428.54,-462.6 431.2,-456.12"/>
</g>
<!-- Node4 -->
<g id="node4" class="node">
<title>Node4</title>
<g id="a_node4"><a xlink:href="global_8h.html" target="_top" xlink:title=" ">
<polygon fill="white" stroke="black" points="303.6,-380.5 303.6,-399.5 353.6,-399.5 353.6,-380.5 303.6,-380.5"/>
<text text-anchor="middle" x="328.6" y="-387.5" font-family="Helvetica,sans-Serif" font-size="10.00">global.h</text>
</a>
</g>
</g>
<!-- Node1&#45;&gt;Node4 -->
<g id="edge40" class="edge">
<title>Node1&#45;&gt;Node4</title>
<path fill="none" stroke="midnightblue" d="M356,-605.71C336.35,-598.15 316.12,-586.32 304.6,-568 272.74,-517.32 302.57,-442.44 319.17,-408.66"/>
<polygon fill="midnightblue" stroke="midnightblue" points="322.38,-410.07 323.82,-399.57 316.15,-406.88 322.38,-410.07"/>
</g>
<!-- Node21 -->
<g id="node21" class="node">
<title>Node21</title>
<g id="a_node21"><a xlink:href="c__tree_8h.html" target="_top" xlink:title=" ">
<polygon fill="white" stroke="black" points="313.6,-548.5 313.6,-567.5 423.6,-567.5 423.6,-548.5 313.6,-548.5"/>
<text text-anchor="middle" x="368.6" y="-555.5" font-family="Helvetica,sans-Serif" font-size="10.00">SComponent/c_tree.h</text>
</a>
</g>
</g>
<!-- Node1&#45;&gt;Node21 -->
<g id="edge37" class="edge">
<title>Node1&#45;&gt;Node21</title>
<path fill="none" stroke="midnightblue" d="M399.88,-604.4C394.04,-595.93 386.58,-585.1 380.41,-576.14"/>
<polygon fill="midnightblue" stroke="midnightblue" points="383.12,-573.91 374.56,-567.66 377.35,-577.88 383.12,-573.91"/>
</g>
<!-- Node2&#45;&gt;Node3 -->
<g id="edge2" class="edge">
<title>Node2&#45;&gt;Node3</title>
<path fill="none" stroke="midnightblue" d="M404.62,-492.08C402.21,-484.85 398.73,-474.41 395.73,-465.4"/>
<polygon fill="midnightblue" stroke="midnightblue" points="399,-464.13 392.51,-455.75 392.35,-466.34 399,-464.13"/>
</g>
<!-- Node3&#45;&gt;Node4 -->
<g id="edge3" class="edge">
<title>Node3&#45;&gt;Node4</title>
<path fill="none" stroke="midnightblue" d="M379.8,-436.32C370.78,-428.34 357.19,-416.31 346.28,-406.65"/>
<polygon fill="midnightblue" stroke="midnightblue" points="348.38,-403.84 338.58,-399.83 343.74,-409.08 348.38,-403.84"/>
</g>
<!-- Node5 -->
<g id="node5" class="node">
<title>Node5</title>
<g id="a_node5"><a xlink:href="types_8h.html" target="_top" xlink:title=" ">
<polygon fill="white" stroke="black" points="229.1,-0.5 229.1,-19.5 310.1,-19.5 310.1,-0.5 229.1,-0.5"/>
<text text-anchor="middle" x="269.6" y="-7.5" font-family="Helvetica,sans-Serif" font-size="10.00">dolphin/types.h</text>
</a>
</g>
</g>
<!-- Node4&#45;&gt;Node5 -->
<g id="edge4" class="edge">
<title>Node4&#45;&gt;Node5</title>
<path fill="none" stroke="midnightblue" d="M303.56,-388.11C259.01,-385.7 163.87,-376.8 91.6,-344 45.33,-323 1.6,-324.31 1.6,-273.5 1.6,-273.5 1.6,-273.5 1.6,-137.5 1.6,-100.09 -4.79,-81.48 22.6,-56 50.41,-30.12 154.84,-18.62 218.68,-13.92"/>
<polygon fill="midnightblue" stroke="midnightblue" points="219.21,-17.39 228.94,-13.19 218.72,-10.41 219.21,-17.39"/>
</g>
<!-- Node6 -->
<g id="node6" class="node">
<title>Node6</title>
<g id="a_node6"><a xlink:href="AR_8h.html" target="_top" xlink:title=" ">
<polygon fill="white" stroke="black" points="32.1,-62 32.1,-81 81.1,-81 81.1,-62 32.1,-62"/>
<text text-anchor="middle" x="56.6" y="-69" font-family="Helvetica,sans-Serif" font-size="10.00">ar/AR.h</text>
</a>
</g>
</g>
<!-- Node4&#45;&gt;Node6 -->
<g id="edge5" class="edge">
<title>Node4&#45;&gt;Node6</title>
<path fill="none" stroke="midnightblue" d="M303.45,-384.55C233.14,-371.41 39.6,-330.1 39.6,-273.5 39.6,-273.5 39.6,-273.5 39.6,-204.5 39.6,-163.82 47.63,-116.67 52.66,-91.18"/>
<polygon fill="midnightblue" stroke="midnightblue" points="56.14,-91.6 54.71,-81.1 49.29,-90.2 56.14,-91.6"/>
</g>
<!-- Node7 -->
<g id="node7" class="node">
<title>Node7</title>
<g id="a_node7"><a xlink:href="ARQ_8h.html" target="_top" xlink:title=" ">
<polygon fill="white" stroke="black" points="67.6,-129 67.6,-148 123.6,-148 123.6,-129 67.6,-129"/>
<text text-anchor="middle" x="95.6" y="-136" font-family="Helvetica,sans-Serif" font-size="10.00">ar/ARQ.h</text>
</a>
</g>
</g>
<!-- Node4&#45;&gt;Node7 -->
<g id="edge7" class="edge">
<title>Node4&#45;&gt;Node7</title>
<path fill="none" stroke="midnightblue" d="M303.46,-384.88C277.19,-379.47 236.04,-367.71 208.6,-344 147.7,-291.41 113.33,-197.55 100.94,-157.94"/>
<polygon fill="midnightblue" stroke="midnightblue" points="104.27,-156.85 98.03,-148.29 97.57,-158.87 104.27,-156.85"/>
</g>
<!-- Node8 -->
<g id="node8" class="node">
<title>Node8</title>
<g id="a_node8"><a xlink:href="functions_8h.html" target="_top" xlink:title=" ">
<polygon fill="white" stroke="black" points="217.6,-324.5 217.6,-343.5 281.6,-343.5 281.6,-324.5 217.6,-324.5"/>
<text text-anchor="middle" x="249.6" y="-331.5" font-family="Helvetica,sans-Serif" font-size="10.00">functions.h</text>
</a>
</g>
</g>
<!-- Node4&#45;&gt;Node8 -->
<g id="edge9" class="edge">
<title>Node4&#45;&gt;Node8</title>
<path fill="none" stroke="midnightblue" d="M315.9,-380.32C303.69,-371.98 285.02,-359.21 270.59,-349.35"/>
<polygon fill="midnightblue" stroke="midnightblue" points="272.49,-346.41 262.26,-343.65 268.54,-352.19 272.49,-346.41"/>
</g>
<!-- Node10 -->
<g id="node10" class="node">
<title>Node10</title>
<g id="a_node10"><a xlink:href="mwcc_8h.html" target="_top" xlink:title=" ">
<polygon fill="white" stroke="black" points="312.6,-263 312.6,-282 362.6,-282 362.6,-263 312.6,-263"/>
<text text-anchor="middle" x="337.6" y="-270" font-family="Helvetica,sans-Serif" font-size="10.00">mwcc.h</text>
</a>
</g>
</g>
<!-- Node4&#45;&gt;Node10 -->
<g id="edge17" class="edge">
<title>Node4&#45;&gt;Node10</title>
<path fill="none" stroke="midnightblue" d="M329.27,-380.32C330.72,-361.76 334.14,-317.84 336.12,-292.47"/>
<polygon fill="midnightblue" stroke="midnightblue" points="339.62,-292.52 336.91,-282.28 332.65,-291.98 339.62,-292.52"/>
</g>
<!-- Node11 -->
<g id="node11" class="node">
<title>Node11</title>
<g id="a_node11"><a xlink:href="OS_8h.html" target="_top" xlink:title=" ">
<polygon fill="white" stroke="black" points="239.6,-263 239.6,-282 291.6,-282 291.6,-263 239.6,-263"/>
<text text-anchor="middle" x="265.6" y="-270" font-family="Helvetica,sans-Serif" font-size="10.00">os/OS.h</text>
</a>
</g>
</g>
<!-- Node4&#45;&gt;Node11 -->
<g id="edge18" class="edge">
<title>Node4&#45;&gt;Node11</title>
<path fill="none" stroke="midnightblue" d="M323.86,-380.32C313.55,-361.42 288.91,-316.25 275.21,-291.12"/>
<polygon fill="midnightblue" stroke="midnightblue" points="278.25,-289.38 270.39,-282.28 272.1,-292.74 278.25,-289.38"/>
</g>
<!-- Node13 -->
<g id="node13" class="node">
<title>Node13</title>
<g id="a_node13"><a xlink:href="variables_8h.html" target="_top" xlink:title=" ">
<polygon fill="white" stroke="black" points="501.1,-324.5 501.1,-343.5 564.1,-343.5 564.1,-324.5 501.1,-324.5"/>
<text text-anchor="middle" x="532.6" y="-331.5" font-family="Helvetica,sans-Serif" font-size="10.00">variables.h</text>
</a>
</g>
</g>
<!-- Node4&#45;&gt;Node13 -->
<g id="edge19" class="edge">
<title>Node4&#45;&gt;Node13</title>
<path fill="none" stroke="midnightblue" d="M353.61,-382.38C387.91,-373.3 449.99,-356.87 491.26,-345.94"/>
<polygon fill="midnightblue" stroke="midnightblue" points="492.24,-349.3 501.01,-343.36 490.45,-342.54 492.24,-349.3"/>
</g>
<!-- Node6&#45;&gt;Node5 -->
<g id="edge6" class="edge">
<title>Node6&#45;&gt;Node5</title>
<path fill="none" stroke="midnightblue" d="M81.06,-61.94C87.1,-59.91 93.56,-57.81 99.6,-56 141.77,-43.32 190.4,-30.64 224.81,-21.99"/>
<polygon fill="midnightblue" stroke="midnightblue" points="225.72,-25.37 234.57,-19.55 224.02,-18.58 225.72,-25.37"/>
</g>
<!-- Node7&#45;&gt;Node5 -->
<g id="edge8" class="edge">
<title>Node7&#45;&gt;Node5</title>
<path fill="none" stroke="midnightblue" d="M100.54,-128.68C110.14,-112.28 132.82,-76.88 160.6,-56 180.61,-40.96 206.37,-30.02 227.82,-22.7"/>
<polygon fill="midnightblue" stroke="midnightblue" points="228.92,-26.02 237.34,-19.58 226.75,-19.37 228.92,-26.02"/>
</g>
<!-- Node9 -->
<g id="node9" class="node">
<title>Node9</title>
<g id="a_node9"><a xlink:href="mtx__vec_8h.html" target="_top" xlink:title=" ">
<polygon fill="white" stroke="black" points="142.1,-129 142.1,-148 203.1,-148 203.1,-129 142.1,-129"/>
<text text-anchor="middle" x="172.6" y="-136" font-family="Helvetica,sans-Serif" font-size="10.00">mtx_vec.h</text>
</a>
</g>
</g>
<!-- Node8&#45;&gt;Node9 -->
<g id="edge10" class="edge">
<title>Node8&#45;&gt;Node9</title>
<path fill="none" stroke="midnightblue" d="M245.88,-324.4C242,-315.37 235.77,-300.73 230.6,-288 211.65,-241.37 190.35,-186.05 179.6,-157.92"/>
<polygon fill="midnightblue" stroke="midnightblue" points="182.75,-156.33 175.91,-148.24 176.21,-158.83 182.75,-156.33"/>
</g>
<!-- Node8&#45;&gt;Node10 -->
<g id="edge12" class="edge">
<title>Node8&#45;&gt;Node10</title>
<path fill="none" stroke="midnightblue" d="M262.2,-324.48C276.32,-314.93 299.43,-299.31 316.35,-287.87"/>
<polygon fill="midnightblue" stroke="midnightblue" points="318.69,-290.51 325.01,-282.01 314.77,-284.71 318.69,-290.51"/>
</g>
<!-- Node8&#45;&gt;Node11 -->
<g id="edge13" class="edge">
<title>Node8&#45;&gt;Node11</title>
<path fill="none" stroke="midnightblue" d="M251.89,-324.48C254.17,-315.99 257.74,-302.7 260.67,-291.82"/>
<polygon fill="midnightblue" stroke="midnightblue" points="264.09,-292.57 263.31,-282.01 257.33,-290.76 264.09,-292.57"/>
</g>
<!-- Node9&#45;&gt;Node5 -->
<g id="edge11" class="edge">
<title>Node9&#45;&gt;Node5</title>
<path fill="none" stroke="midnightblue" d="M169.78,-128.81C165.21,-112.93 158.05,-78.78 172.6,-56 183.05,-39.63 201.16,-29.12 218.92,-22.42"/>
<polygon fill="midnightblue" stroke="midnightblue" points="220.37,-25.63 228.7,-19.08 218.11,-19 220.37,-25.63"/>
</g>
<!-- Node11&#45;&gt;Node5 -->
<g id="edge14" class="edge">
<title>Node11&#45;&gt;Node5</title>
<path fill="none" stroke="midnightblue" d="M265.73,-262.83C266.29,-225.98 268.51,-81.83 269.31,-29.83"/>
<polygon fill="midnightblue" stroke="midnightblue" points="272.81,-29.75 269.46,-19.7 265.81,-29.64 272.81,-29.75"/>
</g>
<!-- Node12 -->
<g id="node12" class="node">
<title>Node12</title>
<g id="a_node12"><a xlink:href="dvd_8h.html" target="_top" xlink:title=" ">
<polygon fill="white" stroke="black" points="182.1,-62 182.1,-81 241.1,-81 241.1,-62 182.1,-62"/>
<text text-anchor="middle" x="211.6" y="-69" font-family="Helvetica,sans-Serif" font-size="10.00">dvd/dvd.h</text>
</a>
</g>
</g>
<!-- Node11&#45;&gt;Node12 -->
<g id="edge15" class="edge">
<title>Node11&#45;&gt;Node12</title>
<path fill="none" stroke="midnightblue" d="M263.28,-262.95C255.16,-233.04 227.92,-132.66 216.6,-90.93"/>
<polygon fill="midnightblue" stroke="midnightblue" points="219.97,-89.98 213.97,-81.24 213.21,-91.81 219.97,-89.98"/>
</g>
<!-- Node12&#45;&gt;Node5 -->
<g id="edge16" class="edge">
<title>Node12&#45;&gt;Node5</title>
<path fill="none" stroke="midnightblue" d="M219.91,-61.98C228.78,-52.87 243.04,-38.24 254.02,-26.98"/>
<polygon fill="midnightblue" stroke="midnightblue" points="256.83,-29.11 261.3,-19.51 251.81,-24.23 256.83,-29.11"/>
</g>
<!-- Node14 -->
<g id="node14" class="node">
<title>Node14</title>
<g id="a_node14"><a xlink:href="JSUList_8h.html" target="_top" xlink:title=" ">
<polygon fill="white" stroke="black" points="373.6,-56.5 373.6,-86.5 509.6,-86.5 509.6,-56.5 373.6,-56.5"/>
<text text-anchor="start" x="381.6" y="-74.5" font-family="Helvetica,sans-Serif" font-size="10.00">JSystem/JSupport/JSUList</text>
<text text-anchor="middle" x="441.6" y="-63.5" font-family="Helvetica,sans-Serif" font-size="10.00">/JSUList.h</text>
</a>
</g>
</g>
<!-- Node13&#45;&gt;Node14 -->
<g id="edge20" class="edge">
<title>Node13&#45;&gt;Node14</title>
<path fill="none" stroke="midnightblue" d="M525.89,-324.27C519.64,-315.59 510.7,-301.65 506.6,-288 485.43,-217.65 528.17,-189.34 496.6,-123 491.02,-111.3 481.41,-101.03 471.77,-92.86"/>
<polygon fill="midnightblue" stroke="midnightblue" points="473.76,-89.98 463.75,-86.51 469.42,-95.46 473.76,-89.98"/>
</g>
<!-- Node15 -->
<g id="node15" class="node">
<title>Node15</title>
<g id="a_node15"><a xlink:href="JUTXfb_8h.html" target="_top" xlink:title=" ">
<polygon fill="white" stroke="black" points="515.1,-257.5 515.1,-287.5 640.1,-287.5 640.1,-257.5 515.1,-257.5"/>
<text text-anchor="start" x="523.1" y="-275.5" font-family="Helvetica,sans-Serif" font-size="10.00">JSystem/JUtility/JUTXfb</text>
<text text-anchor="middle" x="577.6" y="-264.5" font-family="Helvetica,sans-Serif" font-size="10.00">/JUTXfb.h</text>
</a>
</g>
</g>
<!-- Node13&#45;&gt;Node15 -->
<g id="edge22" class="edge">
<title>Node13&#45;&gt;Node15</title>
<path fill="none" stroke="midnightblue" d="M539.04,-324.48C544.74,-316.94 553.3,-305.63 560.91,-295.57"/>
<polygon fill="midnightblue" stroke="midnightblue" points="563.75,-297.61 566.99,-287.52 558.17,-293.39 563.75,-297.61"/>
</g>
<!-- Node19 -->
<g id="node19" class="node">
<title>Node19</title>
<g id="a_node19"><a xlink:href="c__xyz_8h.html" target="_top" xlink:title=" ">
<polygon fill="white" stroke="black" points="658.1,-263 658.1,-282 765.1,-282 765.1,-263 658.1,-263"/>
<text text-anchor="middle" x="711.6" y="-270" font-family="Helvetica,sans-Serif" font-size="10.00">SComponent/c_xyz.h</text>
</a>
</g>
</g>
<!-- Node13&#45;&gt;Node19 -->
<g id="edge32" class="edge">
<title>Node13&#45;&gt;Node19</title>
<path fill="none" stroke="midnightblue" d="M558.24,-324.48C589.21,-314.18 641.47,-296.81 676.25,-285.25"/>
<polygon fill="midnightblue" stroke="midnightblue" points="677.61,-288.48 686,-282.01 675.4,-281.84 677.61,-288.48"/>
</g>
<!-- Node14&#45;&gt;Node5 -->
<g id="edge21" class="edge">
<title>Node14&#45;&gt;Node5</title>
<path fill="none" stroke="midnightblue" d="M400.83,-56.4C371.37,-46.21 332.01,-32.59 304.1,-22.93"/>
<polygon fill="midnightblue" stroke="midnightblue" points="304.97,-19.53 294.37,-19.57 302.68,-26.15 304.97,-19.53"/>
</g>
<!-- Node15&#45;&gt;Node5 -->
<g id="edge29" class="edge">
<title>Node15&#45;&gt;Node5</title>
<path fill="none" stroke="midnightblue" d="M575.7,-257.36C569.58,-213.94 549,-83.83 518.6,-56 490.32,-30.12 384.86,-18.61 320.6,-13.91"/>
<polygon fill="midnightblue" stroke="midnightblue" points="320.5,-10.39 310.28,-13.18 320.01,-17.37 320.5,-10.39"/>
</g>
<!-- Node16 -->
<g id="node16" class="node">
<title>Node16</title>
<g id="a_node16"><a xlink:href="JKRHeap_8h.html" target="_top" xlink:title=" ">
<polygon fill="white" stroke="black" points="340.6,-190.5 340.6,-220.5 476.6,-220.5 476.6,-190.5 340.6,-190.5"/>
<text text-anchor="start" x="348.6" y="-208.5" font-family="Helvetica,sans-Serif" font-size="10.00">JSystem/JKernel/JKRHeap</text>
<text text-anchor="middle" x="408.6" y="-197.5" font-family="Helvetica,sans-Serif" font-size="10.00">/JKRHeap.h</text>
</a>
</g>
</g>
<!-- Node15&#45;&gt;Node16 -->
<g id="edge23" class="edge">
<title>Node15&#45;&gt;Node16</title>
<path fill="none" stroke="midnightblue" d="M540.93,-257.4C515.68,-247.69 481.94,-234.71 454.85,-224.29"/>
<polygon fill="midnightblue" stroke="midnightblue" points="455.78,-220.9 445.19,-220.58 453.27,-227.43 455.78,-220.9"/>
</g>
<!-- Node18 -->
<g id="node18" class="node">
<title>Node18</title>
<g id="a_node18"><a xlink:href="GX_8h.html" target="_top" xlink:title=" ">
<polygon fill="white" stroke="black" points="582.1,-196 582.1,-215 633.1,-215 633.1,-196 582.1,-196"/>
<text text-anchor="middle" x="607.6" y="-203" font-family="Helvetica,sans-Serif" font-size="10.00">gx/GX.h</text>
</a>
</g>
</g>
<!-- Node15&#45;&gt;Node18 -->
<g id="edge30" class="edge">
<title>Node15&#45;&gt;Node18</title>
<path fill="none" stroke="midnightblue" d="M584.11,-257.4C588.55,-247.76 594.48,-234.91 599.27,-224.54"/>
<polygon fill="midnightblue" stroke="midnightblue" points="602.57,-225.74 603.58,-215.19 596.21,-222.81 602.57,-225.74"/>
</g>
<!-- Node16&#45;&gt;Node4 -->
<g id="edge28" class="edge">
<title>Node16&#45;&gt;Node4</title>
<path fill="none" stroke="midnightblue" d="M402.37,-220.69C388,-253.49 352.5,-334.48 336.56,-370.83"/>
<polygon fill="midnightblue" stroke="midnightblue" points="333.26,-369.63 332.45,-380.2 339.67,-372.44 333.26,-369.63"/>
</g>
<!-- Node16&#45;&gt;Node5 -->
<g id="edge27" class="edge">
<title>Node16&#45;&gt;Node5</title>
<path fill="none" stroke="midnightblue" d="M375.5,-190.31C358.96,-181.81 339.72,-169.61 326.6,-154 309.99,-134.25 286.01,-62.93 275.22,-29.08"/>
<polygon fill="midnightblue" stroke="midnightblue" points="278.55,-28 272.21,-19.52 271.88,-30.11 278.55,-28"/>
</g>
<!-- Node17 -->
<g id="node17" class="node">
<title>Node17</title>
<g id="a_node17"><a xlink:href="JKRDisposer_8h.html" target="_top" xlink:title=" ">
<polygon fill="white" stroke="black" points="336.1,-123.5 336.1,-153.5 487.1,-153.5 487.1,-123.5 336.1,-123.5"/>
<text text-anchor="start" x="344.1" y="-141.5" font-family="Helvetica,sans-Serif" font-size="10.00">JSystem/JKernel/JKRDisposer</text>
<text text-anchor="middle" x="411.6" y="-130.5" font-family="Helvetica,sans-Serif" font-size="10.00">/JKRDisposer.h</text>
</a>
</g>
</g>
<!-- Node16&#45;&gt;Node17 -->
<g id="edge24" class="edge">
<title>Node16&#45;&gt;Node17</title>
<path fill="none" stroke="midnightblue" d="M409.25,-190.4C409.6,-182.64 410.06,-172.81 410.47,-163.86"/>
<polygon fill="midnightblue" stroke="midnightblue" points="413.98,-163.73 410.95,-153.58 406.99,-163.4 413.98,-163.73"/>
</g>
<!-- Node17&#45;&gt;Node5 -->
<g id="edge26" class="edge">
<title>Node17&#45;&gt;Node5</title>
<path fill="none" stroke="midnightblue" d="M396.08,-123.26C378.22,-106.91 347.95,-79.33 321.6,-56 310.28,-45.98 297.45,-34.87 287.36,-26.2"/>
<polygon fill="midnightblue" stroke="midnightblue" points="289.49,-23.42 279.62,-19.56 284.93,-28.73 289.49,-23.42"/>
</g>
<!-- Node17&#45;&gt;Node14 -->
<g id="edge25" class="edge">
<title>Node17&#45;&gt;Node14</title>
<path fill="none" stroke="midnightblue" d="M418.11,-123.4C421.84,-115.3 426.62,-104.94 430.9,-95.69"/>
<polygon fill="midnightblue" stroke="midnightblue" points="434.09,-97.12 435.1,-86.58 427.73,-94.19 434.09,-97.12"/>
</g>
<!-- Node18&#45;&gt;Node5 -->
<g id="edge31" class="edge">
<title>Node18&#45;&gt;Node5</title>
<path fill="none" stroke="midnightblue" d="M608.22,-195.83C609.54,-170.07 609.62,-93.52 567.6,-56 531.99,-24.22 395.82,-14.88 320.48,-12.14"/>
<polygon fill="midnightblue" stroke="midnightblue" points="320.38,-8.63 310.27,-11.79 320.14,-15.63 320.38,-8.63"/>
</g>
<!-- Node19&#45;&gt;Node4 -->
<g id="edge35" class="edge">
<title>Node19&#45;&gt;Node4</title>
<path fill="none" stroke="midnightblue" d="M698.08,-282.1C674.02,-297.02 621.75,-327.67 573.6,-344 501.29,-368.52 412.19,-380.62 363.85,-385.77"/>
<polygon fill="midnightblue" stroke="midnightblue" points="363.48,-382.29 353.89,-386.8 364.2,-389.26 363.48,-382.29"/>
</g>
<!-- Node20 -->
<g id="node20" class="node">
<title>Node20</title>
<g id="a_node20"><a xlink:href="c__math_8h.html" target="_top" xlink:title=" ">
<polygon fill="white" stroke="black" points="680.6,-196 680.6,-215 796.6,-215 796.6,-196 680.6,-196"/>
<text text-anchor="middle" x="738.6" y="-203" font-family="Helvetica,sans-Serif" font-size="10.00">SComponent/c_math.h</text>
</a>
</g>
</g>
<!-- Node19&#45;&gt;Node20 -->
<g id="edge33" class="edge">
<title>Node19&#45;&gt;Node20</title>
<path fill="none" stroke="midnightblue" d="M715.24,-262.73C719.29,-252.99 725.93,-236.98 731.11,-224.53"/>
<polygon fill="midnightblue" stroke="midnightblue" points="734.41,-225.7 735.01,-215.13 727.94,-223.02 734.41,-225.7"/>
</g>
<!-- Node20&#45;&gt;Node4 -->
<g id="edge34" class="edge">
<title>Node20&#45;&gt;Node4</title>
<path fill="none" stroke="midnightblue" d="M747.95,-215.19C763.58,-230.78 791.69,-264.1 774.6,-288 726.41,-355.38 460.43,-380.02 363.74,-386.83"/>
<polygon fill="midnightblue" stroke="midnightblue" points="363.34,-383.35 353.6,-387.52 363.82,-390.33 363.34,-383.35"/>
</g>
<!-- Node21&#45;&gt;Node2 -->
<g id="edge38" class="edge">
<title>Node21&#45;&gt;Node2</title>
<path fill="none" stroke="midnightblue" d="M375.04,-548.08C380.54,-540.46 388.63,-529.26 395.36,-519.94"/>
<polygon fill="midnightblue" stroke="midnightblue" points="398.26,-521.91 401.28,-511.75 392.58,-517.81 398.26,-521.91"/>
</g>
<!-- Node21&#45;&gt;Node3 -->
<g id="edge39" class="edge">
<title>Node21&#45;&gt;Node3</title>
<path fill="none" stroke="midnightblue" d="M361.57,-548.49C352.14,-535.98 337.46,-511.95 345.6,-492 350.4,-480.23 359.92,-469.86 368.89,-462.05"/>
<polygon fill="midnightblue" stroke="midnightblue" points="371.25,-464.64 376.82,-455.63 366.84,-459.2 371.25,-464.64"/>
</g>
</g>
</svg>
