<?xml version="1.0" encoding="UTF-8" standalone="no"?>
<!DOCTYPE svg PUBLIC "-//W3C//DTD SVG 1.1//EN"
 "http://www.w3.org/Graphics/SVG/1.1/DTD/svg11.dtd">
<!-- Generated by graphviz version 2.46.1 (20210215.1649)
 -->
<!-- Title: include/SComponent/c_xyz.h Pages: 1 -->
<!--zoomable 531 -->
<svg id="main" version="1.1" xmlns="http://www.w3.org/2000/svg" xmlns:xlink="http://www.w3.org/1999/xlink" xml:space="preserve" onload="init(evt)">
<style type="text/css"><![CDATA[
.edge:hover path { stroke: red; }
.edge:hover polygon { stroke: red; fill: red; }
]]></style>
<script type="text/javascript"><![CDATA[
var edges = document.getElementsByTagName('g');
if (edges && edges.length) {
  for (var i=0;i<edges.length;i++) {
    if (edges[i].id.substr(0,4)=='edge') {
      edges[i].setAttribute('class','edge');
    }
  }
}
]]></script>
        <defs>
                <circle id="rim" cx="0" cy="0" r="7"/>
                <circle id="rim2" cx="0" cy="0" r="3.5"/>
                <g id="zoomPlus">
                        <use xlink:href="#rim" fill="#404040">
                                <set attributeName="fill" to="#808080" begin="zoomplus.mouseover" end="zoomplus.mouseout"/>
                        </use>
                        <path d="M-4,0h8M0,-4v8" fill="none" stroke="white" stroke-width="1.5" pointer-events="none"/>
                </g>
                <g id="zoomMin">
                        <use xlink:href="#rim" fill="#404040">
                                <set attributeName="fill" to="#808080" begin="zoomminus.mouseover" end="zoomminus.mouseout"/>
                        </use>
                        <path d="M-4,0h8" fill="none" stroke="white" stroke-width="1.5" pointer-events="none"/>
                </g>
                <g id="dirArrow">
                        <path fill="none" stroke="white" stroke-width="1.5" d="M0,-3.0v7 M-2.5,-0.5L0,-3.0L2.5,-0.5"/>
                </g>
               <g id="resetDef">
                       <use xlink:href="#rim2" fill="#404040">
                               <set attributeName="fill" to="#808080" begin="reset.mouseover" end="reset.mouseout"/>
                       </use>
               </g>
        </defs>

<script type="text/javascript">
var viewWidth = 587;
var viewHeight = 531;
var sectionId = 'dynsection-0';
</script>
<script xlink:href="svgpan.js"/>
<svg id="graph" class="graph">
<g id="viewport">
<title>include/SComponent/c_xyz.h</title>
<polygon fill="white" stroke="transparent" points="-4,4 -4,-527 582.5,-527 582.5,4 -4,4"/>
<!-- Node1 -->
<g id="node1" class="node">
<title>Node1</title>
<g id="a_node1"><a xlink:title=" ">
<polygon fill="#bfbfbf" stroke="black" points="323,-492.5 323,-522.5 430,-522.5 430,-492.5 323,-492.5"/>
<text text-anchor="start" x="331" y="-510.5" font-family="Helvetica,sans-Serif" font-size="10.00">include/SComponent</text>
<text text-anchor="middle" x="376.5" y="-499.5" font-family="Helvetica,sans-Serif" font-size="10.00">/c_xyz.h</text>
</a>
</g>
</g>
<!-- Node2 -->
<g id="node2" class="node">
<title>Node2</title>
<g id="a_node2"><a xlink:href="c__math_8h.html" target="_top" xlink:title=" ">
<polygon fill="white" stroke="black" points="232.5,-436.5 232.5,-455.5 348.5,-455.5 348.5,-436.5 232.5,-436.5"/>
<text text-anchor="middle" x="290.5" y="-443.5" font-family="Helvetica,sans-Serif" font-size="10.00">SComponent/c_math.h</text>
</a>
</g>
</g>
<!-- Node1&#45;&gt;Node2 -->
<g id="edge1" class="edge">
<title>Node1&#45;&gt;Node2</title>
<path fill="none" stroke="midnightblue" d="M356.12,-492.4C342.59,-483.04 324.89,-470.79 311.28,-461.38"/>
<polygon fill="midnightblue" stroke="midnightblue" points="313.23,-458.47 303.01,-455.66 309.25,-464.23 313.23,-458.47"/>
</g>
<!-- Node3 -->
<g id="node3" class="node">
<title>Node3</title>
<g id="a_node3"><a xlink:href="global_8h.html" target="_top" xlink:title=" ">
<polygon fill="white" stroke="black" points="265.5,-380.5 265.5,-399.5 315.5,-399.5 315.5,-380.5 265.5,-380.5"/>
<text text-anchor="middle" x="290.5" y="-387.5" font-family="Helvetica,sans-Serif" font-size="10.00">global.h</text>
</a>
</g>
</g>
<!-- Node1&#45;&gt;Node3 -->
<g id="edge28" class="edge">
<title>Node1&#45;&gt;Node3</title>
<path fill="none" stroke="midnightblue" d="M375.59,-492.28C374,-477.08 369.6,-452.9 357.5,-436 347.82,-422.48 332.73,-411.83 319.32,-404.29"/>
<polygon fill="midnightblue" stroke="midnightblue" points="320.86,-401.15 310.38,-399.57 317.59,-407.34 320.86,-401.15"/>
</g>
<!-- Node16 -->
<g id="node16" class="node">
<title>Node16</title>
<g id="a_node16"><a xlink:href="mtx__vec_8h.html" target="_top" xlink:title=" ">
<polygon fill="white" stroke="black" points="489,-263 489,-282 550,-282 550,-263 489,-263"/>
<text text-anchor="middle" x="519.5" y="-270" font-family="Helvetica,sans-Serif" font-size="10.00">mtx_vec.h</text>
</a>
</g>
</g>
<!-- Node1&#45;&gt;Node16 -->
<g id="edge29" class="edge">
<title>Node1&#45;&gt;Node16</title>
<path fill="none" stroke="midnightblue" d="M385.23,-492.28C410.15,-451.67 481.56,-335.32 508.78,-290.97"/>
<polygon fill="midnightblue" stroke="midnightblue" points="511.91,-292.55 514.16,-282.2 505.95,-288.89 511.91,-292.55"/>
</g>
<!-- Node2&#45;&gt;Node3 -->
<g id="edge2" class="edge">
<title>Node2&#45;&gt;Node3</title>
<path fill="none" stroke="midnightblue" d="M290.5,-436.08C290.5,-429.01 290.5,-418.86 290.5,-409.99"/>
<polygon fill="midnightblue" stroke="midnightblue" points="294,-409.75 290.5,-399.75 287,-409.75 294,-409.75"/>
</g>
<!-- Node4 -->
<g id="node4" class="node">
<title>Node4</title>
<g id="a_node4"><a xlink:href="types_8h.html" target="_top" xlink:title=" ">
<polygon fill="white" stroke="black" points="200,-0.5 200,-19.5 281,-19.5 281,-0.5 200,-0.5"/>
<text text-anchor="middle" x="240.5" y="-7.5" font-family="Helvetica,sans-Serif" font-size="10.00">dolphin/types.h</text>
</a>
</g>
</g>
<!-- Node3&#45;&gt;Node4 -->
<g id="edge3" class="edge">
<title>Node3&#45;&gt;Node4</title>
<path fill="none" stroke="midnightblue" d="M315.55,-384.54C385.62,-371.35 578.5,-329.93 578.5,-273.5 578.5,-273.5 578.5,-273.5 578.5,-137.5 578.5,-81.53 533.05,-80.04 482.5,-56 420.94,-26.73 342.14,-16.46 291.49,-12.88"/>
<polygon fill="midnightblue" stroke="midnightblue" points="291.64,-9.39 281.43,-12.24 291.19,-16.37 291.64,-9.39"/>
</g>
<!-- Node5 -->
<g id="node5" class="node">
<title>Node5</title>
<g id="a_node5"><a xlink:href="AR_8h.html" target="_top" xlink:title=" ">
<polygon fill="white" stroke="black" points="0,-263 0,-282 49,-282 49,-263 0,-263"/>
<text text-anchor="middle" x="24.5" y="-270" font-family="Helvetica,sans-Serif" font-size="10.00">ar/AR.h</text>
</a>
</g>
</g>
<!-- Node3&#45;&gt;Node5 -->
<g id="edge4" class="edge">
<title>Node3&#45;&gt;Node5</title>
<path fill="none" stroke="midnightblue" d="M265.27,-388.12C225.4,-385.74 146.5,-376.87 89.5,-344 66.84,-330.93 47.5,-307.34 35.95,-291.07"/>
<polygon fill="midnightblue" stroke="midnightblue" points="38.61,-288.76 30.08,-282.47 32.83,-292.7 38.61,-288.76"/>
</g>
<!-- Node6 -->
<g id="node6" class="node">
<title>Node6</title>
<g id="a_node6"><a xlink:href="ARQ_8h.html" target="_top" xlink:title=" ">
<polygon fill="white" stroke="black" points="49.5,-196 49.5,-215 105.5,-215 105.5,-196 49.5,-196"/>
<text text-anchor="middle" x="77.5" y="-203" font-family="Helvetica,sans-Serif" font-size="10.00">ar/ARQ.h</text>
</a>
</g>
</g>
<!-- Node3&#45;&gt;Node6 -->
<g id="edge6" class="edge">
<title>Node3&#45;&gt;Node6</title>
<path fill="none" stroke="midnightblue" d="M265.45,-387.69C232.98,-384.74 176.28,-375.15 140.5,-344 103.96,-312.19 87.36,-254.81 80.95,-225.24"/>
<polygon fill="midnightblue" stroke="midnightblue" points="84.3,-224.18 78.91,-215.06 77.44,-225.55 84.3,-224.18"/>
</g>
<!-- Node7 -->
<g id="node7" class="node">
<title>Node7</title>
<g id="a_node7"><a xlink:href="mwcc_8h.html" target="_top" xlink:title=" ">
<polygon fill="white" stroke="black" points="370.5,-324.5 370.5,-343.5 420.5,-343.5 420.5,-324.5 370.5,-324.5"/>
<text text-anchor="middle" x="395.5" y="-331.5" font-family="Helvetica,sans-Serif" font-size="10.00">mwcc.h</text>
</a>
</g>
</g>
<!-- Node3&#45;&gt;Node7 -->
<g id="edge8" class="edge">
<title>Node3&#45;&gt;Node7</title>
<path fill="none" stroke="midnightblue" d="M307.37,-380.32C324.21,-371.66 350.31,-358.24 369.74,-348.25"/>
<polygon fill="midnightblue" stroke="midnightblue" points="371.38,-351.34 378.67,-343.65 368.18,-345.12 371.38,-351.34"/>
</g>
<!-- Node8 -->
<g id="node8" class="node">
<title>Node8</title>
<g id="a_node8"><a xlink:href="OS_8h.html" target="_top" xlink:title=" ">
<polygon fill="white" stroke="black" points="76.5,-129 76.5,-148 128.5,-148 128.5,-129 76.5,-129"/>
<text text-anchor="middle" x="102.5" y="-136" font-family="Helvetica,sans-Serif" font-size="10.00">os/OS.h</text>
</a>
</g>
</g>
<!-- Node3&#45;&gt;Node8 -->
<g id="edge9" class="edge">
<title>Node3&#45;&gt;Node8</title>
<path fill="none" stroke="midnightblue" d="M284.03,-380.41C256.85,-344.35 151.69,-204.79 115.12,-156.25"/>
<polygon fill="midnightblue" stroke="midnightblue" points="117.76,-153.93 108.94,-148.05 112.17,-158.15 117.76,-153.93"/>
</g>
<!-- Node10 -->
<g id="node10" class="node">
<title>Node10</title>
<g id="a_node10"><a xlink:href="variables_8h.html" target="_top" xlink:title=" ">
<polygon fill="white" stroke="black" points="289,-324.5 289,-343.5 352,-343.5 352,-324.5 289,-324.5"/>
<text text-anchor="middle" x="320.5" y="-331.5" font-family="Helvetica,sans-Serif" font-size="10.00">variables.h</text>
</a>
</g>
</g>
<!-- Node3&#45;&gt;Node10 -->
<g id="edge13" class="edge">
<title>Node3&#45;&gt;Node10</title>
<path fill="none" stroke="midnightblue" d="M295.45,-380.08C299.6,-372.61 305.65,-361.72 310.77,-352.52"/>
<polygon fill="midnightblue" stroke="midnightblue" points="313.84,-354.19 315.64,-343.75 307.72,-350.79 313.84,-354.19"/>
</g>
<!-- Node5&#45;&gt;Node4 -->
<g id="edge5" class="edge">
<title>Node5&#45;&gt;Node4</title>
<path fill="none" stroke="midnightblue" d="M23.33,-262.65C19.56,-230.18 11.12,-116.31 68.5,-56 85.08,-38.57 145.23,-25.69 189.74,-18.27"/>
<polygon fill="midnightblue" stroke="midnightblue" points="190.52,-21.69 199.84,-16.64 189.4,-14.78 190.52,-21.69"/>
</g>
<!-- Node6&#45;&gt;Node4 -->
<g id="edge7" class="edge">
<title>Node6&#45;&gt;Node4</title>
<path fill="none" stroke="midnightblue" d="M74.97,-195.84C68.07,-170.12 51.9,-93.65 91.5,-56 117.92,-30.89 157.87,-19.74 189.76,-14.82"/>
<polygon fill="midnightblue" stroke="midnightblue" points="190.37,-18.27 199.8,-13.43 189.41,-11.34 190.37,-18.27"/>
</g>
<!-- Node8&#45;&gt;Node4 -->
<g id="edge10" class="edge">
<title>Node8&#45;&gt;Node4</title>
<path fill="none" stroke="midnightblue" d="M99.91,-128.85C95.66,-112.72 89.2,-77.76 105.5,-56 124.98,-30 160.06,-18.84 189.59,-14.13"/>
<polygon fill="midnightblue" stroke="midnightblue" points="190.34,-17.56 199.76,-12.72 189.37,-10.62 190.34,-17.56"/>
</g>
<!-- Node9 -->
<g id="node9" class="node">
<title>Node9</title>
<g id="a_node9"><a xlink:href="dvd_8h.html" target="_top" xlink:title=" ">
<polygon fill="white" stroke="black" points="115,-62 115,-81 174,-81 174,-62 115,-62"/>
<text text-anchor="middle" x="144.5" y="-69" font-family="Helvetica,sans-Serif" font-size="10.00">dvd/dvd.h</text>
</a>
</g>
</g>
<!-- Node8&#45;&gt;Node9 -->
<g id="edge11" class="edge">
<title>Node8&#45;&gt;Node9</title>
<path fill="none" stroke="midnightblue" d="M108.16,-128.73C114.59,-118.79 125.22,-102.34 133.33,-89.79"/>
<polygon fill="midnightblue" stroke="midnightblue" points="136.44,-91.43 138.93,-81.13 130.56,-87.63 136.44,-91.43"/>
</g>
<!-- Node9&#45;&gt;Node4 -->
<g id="edge12" class="edge">
<title>Node9&#45;&gt;Node4</title>
<path fill="none" stroke="midnightblue" d="M158.25,-61.98C173.87,-52.3 199.56,-36.37 218.08,-24.89"/>
<polygon fill="midnightblue" stroke="midnightblue" points="220.12,-27.75 226.77,-19.51 216.43,-21.8 220.12,-27.75"/>
</g>
<!-- Node11 -->
<g id="node11" class="node">
<title>Node11</title>
<g id="a_node11"><a xlink:href="JSUList_8h.html" target="_top" xlink:title=" ">
<polygon fill="white" stroke="black" points="268.5,-56.5 268.5,-86.5 404.5,-86.5 404.5,-56.5 268.5,-56.5"/>
<text text-anchor="start" x="276.5" y="-74.5" font-family="Helvetica,sans-Serif" font-size="10.00">JSystem/JSupport/JSUList</text>
<text text-anchor="middle" x="336.5" y="-63.5" font-family="Helvetica,sans-Serif" font-size="10.00">/JSUList.h</text>
</a>
</g>
</g>
<!-- Node10&#45;&gt;Node11 -->
<g id="edge14" class="edge">
<title>Node10&#45;&gt;Node11</title>
<path fill="none" stroke="midnightblue" d="M322.86,-324.22C330.3,-295.43 352.42,-201.27 345.5,-123 344.73,-114.27 343.22,-104.78 341.65,-96.42"/>
<polygon fill="midnightblue" stroke="midnightblue" points="345.08,-95.68 339.69,-86.56 338.21,-97.05 345.08,-95.68"/>
</g>
<!-- Node12 -->
<g id="node12" class="node">
<title>Node12</title>
<g id="a_node12"><a xlink:href="JUTXfb_8h.html" target="_top" xlink:title=" ">
<polygon fill="white" stroke="black" points="346,-257.5 346,-287.5 471,-287.5 471,-257.5 346,-257.5"/>
<text text-anchor="start" x="354" y="-275.5" font-family="Helvetica,sans-Serif" font-size="10.00">JSystem/JUtility/JUTXfb</text>
<text text-anchor="middle" x="408.5" y="-264.5" font-family="Helvetica,sans-Serif" font-size="10.00">/JUTXfb.h</text>
</a>
</g>
</g>
<!-- Node10&#45;&gt;Node12 -->
<g id="edge16" class="edge">
<title>Node10&#45;&gt;Node12</title>
<path fill="none" stroke="midnightblue" d="M333.11,-324.48C345.14,-316.34 363.7,-303.79 379.4,-293.18"/>
<polygon fill="midnightblue" stroke="midnightblue" points="381.44,-296.02 387.76,-287.52 377.52,-290.22 381.44,-296.02"/>
</g>
<!-- Node10&#45;&gt;Node16 -->
<g id="edge26" class="edge">
<title>Node10&#45;&gt;Node16</title>
<path fill="none" stroke="midnightblue" d="M352.3,-324.88C384.76,-316.4 436.47,-302.35 480.5,-288 482.9,-287.22 485.38,-286.38 487.86,-285.51"/>
<polygon fill="midnightblue" stroke="midnightblue" points="489.11,-288.78 497.34,-282.1 486.74,-282.19 489.11,-288.78"/>
</g>
<!-- Node11&#45;&gt;Node4 -->
<g id="edge15" class="edge">
<title>Node11&#45;&gt;Node4</title>
<path fill="none" stroke="midnightblue" d="M313.75,-56.4C298.51,-46.95 278.51,-34.56 263.26,-25.11"/>
<polygon fill="midnightblue" stroke="midnightblue" points="264.81,-21.95 254.47,-19.66 261.12,-27.9 264.81,-21.95"/>
</g>
<!-- Node12&#45;&gt;Node4 -->
<g id="edge23" class="edge">
<title>Node12&#45;&gt;Node4</title>
<path fill="none" stroke="midnightblue" d="M416.76,-257.23C438.17,-218.25 489.86,-109.29 432.5,-56 412.2,-37.14 340.83,-24.14 291.07,-17.13"/>
<polygon fill="midnightblue" stroke="midnightblue" points="291.5,-13.66 281.12,-15.77 290.55,-20.59 291.5,-13.66"/>
</g>
<!-- Node13 -->
<g id="node13" class="node">
<title>Node13</title>
<g id="a_node13"><a xlink:href="JKRHeap_8h.html" target="_top" xlink:title=" ">
<polygon fill="white" stroke="black" points="192.5,-190.5 192.5,-220.5 328.5,-220.5 328.5,-190.5 192.5,-190.5"/>
<text text-anchor="start" x="200.5" y="-208.5" font-family="Helvetica,sans-Serif" font-size="10.00">JSystem/JKernel/JKRHeap</text>
<text text-anchor="middle" x="260.5" y="-197.5" font-family="Helvetica,sans-Serif" font-size="10.00">/JKRHeap.h</text>
</a>
</g>
</g>
<!-- Node12&#45;&gt;Node13 -->
<g id="edge17" class="edge">
<title>Node12&#45;&gt;Node13</title>
<path fill="none" stroke="midnightblue" d="M376.39,-257.4C354.57,-247.81 325.51,-235.05 301.94,-224.7"/>
<polygon fill="midnightblue" stroke="midnightblue" points="303.11,-221.39 292.55,-220.58 300.3,-227.8 303.11,-221.39"/>
</g>
<!-- Node15 -->
<g id="node15" class="node">
<title>Node15</title>
<g id="a_node15"><a xlink:href="GX_8h.html" target="_top" xlink:title=" ">
<polygon fill="white" stroke="black" points="393,-129 393,-148 444,-148 444,-129 393,-129"/>
<text text-anchor="middle" x="418.5" y="-136" font-family="Helvetica,sans-Serif" font-size="10.00">gx/GX.h</text>
</a>
</g>
</g>
<!-- Node12&#45;&gt;Node15 -->
<g id="edge24" class="edge">
<title>Node12&#45;&gt;Node15</title>
<path fill="none" stroke="midnightblue" d="M409.57,-257.37C411.38,-233.5 415.04,-185.18 417.07,-158.41"/>
<polygon fill="midnightblue" stroke="midnightblue" points="420.58,-158.33 417.85,-148.1 413.6,-157.8 420.58,-158.33"/>
</g>
<!-- Node13&#45;&gt;Node3 -->
<g id="edge22" class="edge">
<title>Node13&#45;&gt;Node3</title>
<path fill="none" stroke="midnightblue" d="M261.97,-220.63C264.68,-245.64 270.96,-299.26 279.5,-344 281.18,-352.8 283.48,-362.46 285.54,-370.57"/>
<polygon fill="midnightblue" stroke="midnightblue" points="282.21,-371.64 288.13,-380.43 288.98,-369.87 282.21,-371.64"/>
</g>
<!-- Node13&#45;&gt;Node4 -->
<g id="edge21" class="edge">
<title>Node13&#45;&gt;Node4</title>
<path fill="none" stroke="midnightblue" d="M219.1,-190.4C202.47,-182.46 185.01,-170.71 175.5,-154 168.69,-142.03 171.92,-136.3 175.5,-123 185.48,-85.93 211.06,-48.49 226.99,-27.66"/>
<polygon fill="midnightblue" stroke="midnightblue" points="229.93,-29.59 233.35,-19.56 224.42,-25.27 229.93,-29.59"/>
</g>
<!-- Node14 -->
<g id="node14" class="node">
<title>Node14</title>
<g id="a_node14"><a xlink:href="JKRDisposer_8h.html" target="_top" xlink:title=" ">
<polygon fill="white" stroke="black" points="185,-123.5 185,-153.5 336,-153.5 336,-123.5 185,-123.5"/>
<text text-anchor="start" x="193" y="-141.5" font-family="Helvetica,sans-Serif" font-size="10.00">JSystem/JKernel/JKRDisposer</text>
<text text-anchor="middle" x="260.5" y="-130.5" font-family="Helvetica,sans-Serif" font-size="10.00">/JKRDisposer.h</text>
</a>
</g>
</g>
<!-- Node13&#45;&gt;Node14 -->
<g id="edge18" class="edge">
<title>Node13&#45;&gt;Node14</title>
<path fill="none" stroke="midnightblue" d="M260.5,-190.4C260.5,-182.64 260.5,-172.81 260.5,-163.86"/>
<polygon fill="midnightblue" stroke="midnightblue" points="264,-163.58 260.5,-153.58 257,-163.58 264,-163.58"/>
</g>
<!-- Node14&#45;&gt;Node4 -->
<g id="edge20" class="edge">
<title>Node14&#45;&gt;Node4</title>
<path fill="none" stroke="midnightblue" d="M258.28,-123.48C254.67,-100.62 247.5,-55.3 243.46,-29.71"/>
<polygon fill="midnightblue" stroke="midnightblue" points="246.91,-29.12 241.89,-19.79 239.99,-30.21 246.91,-29.12"/>
</g>
<!-- Node14&#45;&gt;Node11 -->
<g id="edge19" class="edge">
<title>Node14&#45;&gt;Node11</title>
<path fill="none" stroke="midnightblue" d="M276.99,-123.4C287.35,-114.54 300.88,-102.96 312.43,-93.09"/>
<polygon fill="midnightblue" stroke="midnightblue" points="314.72,-95.74 320.04,-86.58 310.17,-90.42 314.72,-95.74"/>
</g>
<!-- Node15&#45;&gt;Node4 -->
<g id="edge25" class="edge">
<title>Node15&#45;&gt;Node4</title>
<path fill="none" stroke="midnightblue" d="M420.96,-128.71C424.96,-112.35 430.8,-77.01 413.5,-56 398,-37.18 336.36,-24.51 291.06,-17.53"/>
<polygon fill="midnightblue" stroke="midnightblue" points="291.49,-14.06 281.09,-16.04 290.46,-20.98 291.49,-14.06"/>
</g>
<!-- Node16&#45;&gt;Node4 -->
<g id="edge27" class="edge">
<title>Node16&#45;&gt;Node4</title>
<path fill="none" stroke="midnightblue" d="M519.86,-262.93C520.73,-230.45 519.2,-113.93 456.5,-56 432.93,-34.22 347.67,-21.67 291.58,-15.6"/>
<polygon fill="midnightblue" stroke="midnightblue" points="291.77,-12.1 281.46,-14.54 291.04,-19.07 291.77,-12.1"/>
</g>
</g>
</svg>
        <g id="navigator" transform="translate(0 0)" fill="#404254">
                <rect fill="#f2f5e9" fill-opacity="0.5" stroke="#606060" stroke-width=".5" x="0" y="0" width="60" height="60"/>
                <use id="zoomplus" xlink:href="#zoomPlus" x="17" y="9" onmousedown="handleZoom(evt,'in')"/>
                <use id="zoomminus" xlink:href="#zoomMin" x="42" y="9" onmousedown="handleZoom(evt,'out')"/>
                <use id="reset" xlink:href="#resetDef" x="30" y="36" onmousedown="handleReset()"/>
                <g id="arrowUp" xlink:href="#dirArrow" transform="translate(30 24)" onmousedown="handlePan(0,-1)">
                  <use xlink:href="#rim" fill="#404040">
                        <set attributeName="fill" to="#808080" begin="arrowUp.mouseover" end="arrowUp.mouseout"/>
                  </use>
                  <path fill="none" stroke="white" stroke-width="1.5" d="M0,-3.0v7 M-2.5,-0.5L0,-3.0L2.5,-0.5"/>
                </g>
                <g id="arrowRight" xlink:href="#dirArrow" transform="rotate(90) translate(36 -43)" onmousedown="handlePan(1,0)">
                  <use xlink:href="#rim" fill="#404040">
                        <set attributeName="fill" to="#808080" begin="arrowRight.mouseover" end="arrowRight.mouseout"/>
                  </use>
                  <path fill="none" stroke="white" stroke-width="1.5" d="M0,-3.0v7 M-2.5,-0.5L0,-3.0L2.5,-0.5"/>
                </g>
                <g id="arrowDown" xlink:href="#dirArrow" transform="rotate(180) translate(-30 -48)" onmousedown="handlePan(0,1)">
                  <use xlink:href="#rim" fill="#404040">
                        <set attributeName="fill" to="#808080" begin="arrowDown.mouseover" end="arrowDown.mouseout"/>
                  </use>
                  <path fill="none" stroke="white" stroke-width="1.5" d="M0,-3.0v7 M-2.5,-0.5L0,-3.0L2.5,-0.5"/>
                </g>
                <g id="arrowLeft" xlink:href="#dirArrow" transform="rotate(270) translate(-36 17)" onmousedown="handlePan(-1,0)">
                  <use xlink:href="#rim" fill="#404040">
                        <set attributeName="fill" to="#808080" begin="arrowLeft.mouseover" end="arrowLeft.mouseout"/>
                  </use>
                  <path fill="none" stroke="white" stroke-width="1.5" d="M0,-3.0v7 M-2.5,-0.5L0,-3.0L2.5,-0.5"/>
                </g>
        </g>
        <svg viewBox="0 0 15 15" width="100%" height="30px" preserveAspectRatio="xMaxYMin meet">
         <g id="arrow_out" transform="scale(0.3 0.3)">
          <a xlink:href="c__xyz_8h__incl_org.svg" target="_base">
           <rect id="button" ry="5" rx="5" y="6" x="6" height="38" width="38"
                fill="#f2f5e9" fill-opacity="0.5" stroke="#606060" stroke-width="1.0"/>
           <path id="arrow"
             d="M 11.500037,31.436501 C 11.940474,20.09759 22.043105,11.32322 32.158766,21.979434 L 37.068811,17.246167 C 37.068811,17.246167 37.088388,32 37.088388,32 L 22.160133,31.978069 C 22.160133,31.978069 26.997745,27.140456 26.997745,27.140456 C 18.528582,18.264221 13.291696,25.230495 11.500037,31.436501 z"
             style="fill:#404040;"/>
          </a>
         </g>
        </svg>
</svg>
