<?xml version="1.0" encoding="UTF-8" standalone="no"?>
<!DOCTYPE svg PUBLIC "-//W3C//DTD SVG 1.1//EN"
 "http://www.w3.org/Graphics/SVG/1.1/DTD/svg11.dtd">
<!-- Generated by graphviz version 2.46.1 (20210215.1649)
 -->
<!-- Title: libs/SSystem/SComponent/c_xyz.cpp Pages: 1 -->
<svg width="888pt" height="598pt"
 viewBox="0.00 0.00 887.50 598.00" xmlns="http://www.w3.org/2000/svg" xmlns:xlink="http://www.w3.org/1999/xlink">
<g id="graph0" class="graph" transform="scale(1 1) rotate(0) translate(4 594)">
<title>libs/SSystem/SComponent/c_xyz.cpp</title>
<polygon fill="white" stroke="transparent" points="-4,4 -4,-594 883.5,-594 883.5,4 -4,4"/>
<!-- Node1 -->
<g id="node1" class="node">
<title>Node1</title>
<g id="a_node1"><a xlink:title=" ">
<polygon fill="#bfbfbf" stroke="black" points="541.5,-559.5 541.5,-589.5 675.5,-589.5 675.5,-559.5 541.5,-559.5"/>
<text text-anchor="start" x="549.5" y="-577.5" font-family="Helvetica,sans-Serif" font-size="10.00">libs/SSystem/SComponent</text>
<text text-anchor="middle" x="608.5" y="-566.5" font-family="Helvetica,sans-Serif" font-size="10.00">/c_xyz.cpp</text>
</a>
</g>
</g>
<!-- Node2 -->
<g id="node2" class="node">
<title>Node2</title>
<g id="a_node2"><a xlink:href="c__xyz_8h.html" target="_top" xlink:title=" ">
<polygon fill="white" stroke="black" points="352,-498 352,-517 459,-517 459,-498 352,-498"/>
<text text-anchor="middle" x="405.5" y="-505" font-family="Helvetica,sans-Serif" font-size="10.00">SComponent/c_xyz.h</text>
</a>
</g>
</g>
<!-- Node1&#45;&gt;Node2 -->
<g id="edge1" class="edge">
<title>Node1&#45;&gt;Node2</title>
<path fill="none" stroke="midnightblue" d="M564.45,-559.4C527.73,-547.64 476.05,-531.09 441.7,-520.09"/>
<polygon fill="midnightblue" stroke="midnightblue" points="442.66,-516.72 432.07,-517.01 440.52,-523.39 442.66,-516.72"/>
</g>
<!-- Node18 -->
<g id="node18" class="node">
<title>Node18</title>
<g id="a_node18"><a xlink:title=" ">
<polygon fill="white" stroke="#bfbfbf" points="477.5,-492.5 477.5,-522.5 599.5,-522.5 599.5,-492.5 477.5,-492.5"/>
<text text-anchor="start" x="485.5" y="-510.5" font-family="Helvetica,sans-Serif" font-size="10.00">SComponent/c_xyz/asm</text>
<text text-anchor="middle" x="538.5" y="-499.5" font-family="Helvetica,sans-Serif" font-size="10.00">/func_80266DC4.s</text>
</a>
</g>
</g>
<!-- Node1&#45;&gt;Node18 -->
<g id="edge31" class="edge">
<title>Node1&#45;&gt;Node18</title>
<path fill="none" stroke="midnightblue" d="M593.31,-559.4C583.95,-550.71 571.78,-539.4 561.29,-529.66"/>
<polygon fill="midnightblue" stroke="midnightblue" points="563.37,-526.82 553.66,-522.58 558.61,-531.95 563.37,-526.82"/>
</g>
<!-- Node19 -->
<g id="node19" class="node">
<title>Node19</title>
<g id="a_node19"><a xlink:title=" ">
<polygon fill="white" stroke="#bfbfbf" points="617.5,-492.5 617.5,-522.5 739.5,-522.5 739.5,-492.5 617.5,-492.5"/>
<text text-anchor="start" x="625.5" y="-510.5" font-family="Helvetica,sans-Serif" font-size="10.00">SComponent/c_xyz/asm</text>
<text text-anchor="middle" x="678.5" y="-499.5" font-family="Helvetica,sans-Serif" font-size="10.00">/func_80267150.s</text>
</a>
</g>
</g>
<!-- Node1&#45;&gt;Node19 -->
<g id="edge32" class="edge">
<title>Node1&#45;&gt;Node19</title>
<path fill="none" stroke="midnightblue" d="M623.69,-559.4C633.05,-550.71 645.22,-539.4 655.71,-529.66"/>
<polygon fill="midnightblue" stroke="midnightblue" points="658.39,-531.95 663.34,-522.58 653.63,-526.82 658.39,-531.95"/>
</g>
<!-- Node20 -->
<g id="node20" class="node">
<title>Node20</title>
<g id="a_node20"><a xlink:title=" ">
<polygon fill="white" stroke="#bfbfbf" points="757.5,-492.5 757.5,-522.5 879.5,-522.5 879.5,-492.5 757.5,-492.5"/>
<text text-anchor="start" x="765.5" y="-510.5" font-family="Helvetica,sans-Serif" font-size="10.00">SComponent/c_xyz/asm</text>
<text text-anchor="middle" x="818.5" y="-499.5" font-family="Helvetica,sans-Serif" font-size="10.00">/func_80267290.s</text>
</a>
</g>
</g>
<!-- Node1&#45;&gt;Node20 -->
<g id="edge33" class="edge">
<title>Node1&#45;&gt;Node20</title>
<path fill="none" stroke="midnightblue" d="M653.81,-559.48C685.85,-549.56 729,-536.2 763.1,-525.65"/>
<polygon fill="midnightblue" stroke="midnightblue" points="764.39,-528.91 772.91,-522.61 762.32,-522.22 764.39,-528.91"/>
</g>
<!-- Node3 -->
<g id="node3" class="node">
<title>Node3</title>
<g id="a_node3"><a xlink:href="c__math_8h.html" target="_top" xlink:title=" ">
<polygon fill="white" stroke="black" points="261.5,-436.5 261.5,-455.5 377.5,-455.5 377.5,-436.5 261.5,-436.5"/>
<text text-anchor="middle" x="319.5" y="-443.5" font-family="Helvetica,sans-Serif" font-size="10.00">SComponent/c_math.h</text>
</a>
</g>
</g>
<!-- Node2&#45;&gt;Node3 -->
<g id="edge2" class="edge">
<title>Node2&#45;&gt;Node3</title>
<path fill="none" stroke="midnightblue" d="M393.18,-497.98C379.38,-488.43 356.8,-472.81 340.27,-461.37"/>
<polygon fill="midnightblue" stroke="midnightblue" points="342.01,-458.32 331.8,-455.51 338.03,-464.08 342.01,-458.32"/>
</g>
<!-- Node4 -->
<g id="node4" class="node">
<title>Node4</title>
<g id="a_node4"><a xlink:href="global_8h.html" target="_top" xlink:title=" ">
<polygon fill="white" stroke="black" points="294.5,-380.5 294.5,-399.5 344.5,-399.5 344.5,-380.5 294.5,-380.5"/>
<text text-anchor="middle" x="319.5" y="-387.5" font-family="Helvetica,sans-Serif" font-size="10.00">global.h</text>
</a>
</g>
</g>
<!-- Node2&#45;&gt;Node4 -->
<g id="edge29" class="edge">
<title>Node2&#45;&gt;Node4</title>
<path fill="none" stroke="midnightblue" d="M405.09,-497.87C404.04,-483.7 400.22,-455.17 386.5,-436 376.82,-422.48 361.73,-411.83 348.32,-404.29"/>
<polygon fill="midnightblue" stroke="midnightblue" points="349.86,-401.15 339.38,-399.57 346.59,-407.34 349.86,-401.15"/>
</g>
<!-- Node17 -->
<g id="node17" class="node">
<title>Node17</title>
<g id="a_node17"><a xlink:href="mtx__vec_8h.html" target="_top" xlink:title=" ">
<polygon fill="white" stroke="black" points="518,-263 518,-282 579,-282 579,-263 518,-263"/>
<text text-anchor="middle" x="548.5" y="-270" font-family="Helvetica,sans-Serif" font-size="10.00">mtx_vec.h</text>
</a>
</g>
</g>
<!-- Node2&#45;&gt;Node17 -->
<g id="edge30" class="edge">
<title>Node2&#45;&gt;Node17</title>
<path fill="none" stroke="midnightblue" d="M410.76,-497.93C431.65,-463.9 509,-337.87 537.69,-291.11"/>
<polygon fill="midnightblue" stroke="midnightblue" points="540.79,-292.75 543.04,-282.4 534.83,-289.09 540.79,-292.75"/>
</g>
<!-- Node3&#45;&gt;Node4 -->
<g id="edge3" class="edge">
<title>Node3&#45;&gt;Node4</title>
<path fill="none" stroke="midnightblue" d="M319.5,-436.08C319.5,-429.01 319.5,-418.86 319.5,-409.99"/>
<polygon fill="midnightblue" stroke="midnightblue" points="323,-409.75 319.5,-399.75 316,-409.75 323,-409.75"/>
</g>
<!-- Node5 -->
<g id="node5" class="node">
<title>Node5</title>
<g id="a_node5"><a xlink:href="types_8h.html" target="_top" xlink:title=" ">
<polygon fill="white" stroke="black" points="229,-0.5 229,-19.5 310,-19.5 310,-0.5 229,-0.5"/>
<text text-anchor="middle" x="269.5" y="-7.5" font-family="Helvetica,sans-Serif" font-size="10.00">dolphin/types.h</text>
</a>
</g>
</g>
<!-- Node4&#45;&gt;Node5 -->
<g id="edge4" class="edge">
<title>Node4&#45;&gt;Node5</title>
<path fill="none" stroke="midnightblue" d="M344.55,-384.54C414.62,-371.35 607.5,-329.93 607.5,-273.5 607.5,-273.5 607.5,-273.5 607.5,-137.5 607.5,-81.53 562.05,-80.04 511.5,-56 449.94,-26.73 371.14,-16.46 320.49,-12.88"/>
<polygon fill="midnightblue" stroke="midnightblue" points="320.64,-9.39 310.43,-12.24 320.19,-16.37 320.64,-9.39"/>
</g>
<!-- Node6 -->
<g id="node6" class="node">
<title>Node6</title>
<g id="a_node6"><a xlink:href="AR_8h.html" target="_top" xlink:title=" ">
<polygon fill="white" stroke="black" points="0,-196 0,-215 49,-215 49,-196 0,-196"/>
<text text-anchor="middle" x="24.5" y="-203" font-family="Helvetica,sans-Serif" font-size="10.00">ar/AR.h</text>
</a>
</g>
</g>
<!-- Node4&#45;&gt;Node6 -->
<g id="edge5" class="edge">
<title>Node4&#45;&gt;Node6</title>
<path fill="none" stroke="midnightblue" d="M294.48,-387.14C256.46,-383.46 182.7,-372.91 127.5,-344 94.61,-326.77 88.01,-317.53 65.5,-288 50.4,-268.18 38.37,-241.93 31.34,-224.65"/>
<polygon fill="midnightblue" stroke="midnightblue" points="34.54,-223.22 27.63,-215.19 28.02,-225.77 34.54,-223.22"/>
</g>
<!-- Node7 -->
<g id="node7" class="node">
<title>Node7</title>
<g id="a_node7"><a xlink:href="ARQ_8h.html" target="_top" xlink:title=" ">
<polygon fill="white" stroke="black" points="74.5,-263 74.5,-282 130.5,-282 130.5,-263 74.5,-263"/>
<text text-anchor="middle" x="102.5" y="-270" font-family="Helvetica,sans-Serif" font-size="10.00">ar/ARQ.h</text>
</a>
</g>
</g>
<!-- Node4&#45;&gt;Node7 -->
<g id="edge7" class="edge">
<title>Node4&#45;&gt;Node7</title>
<path fill="none" stroke="midnightblue" d="M294.46,-387.62C259.52,-384.59 195.47,-374.9 151.5,-344 132.69,-330.78 118.76,-307.91 110.66,-291.8"/>
<polygon fill="midnightblue" stroke="midnightblue" points="113.63,-289.9 106.18,-282.37 107.31,-292.9 113.63,-289.9"/>
</g>
<!-- Node8 -->
<g id="node8" class="node">
<title>Node8</title>
<g id="a_node8"><a xlink:href="mwcc_8h.html" target="_top" xlink:title=" ">
<polygon fill="white" stroke="black" points="399.5,-324.5 399.5,-343.5 449.5,-343.5 449.5,-324.5 399.5,-324.5"/>
<text text-anchor="middle" x="424.5" y="-331.5" font-family="Helvetica,sans-Serif" font-size="10.00">mwcc.h</text>
</a>
</g>
</g>
<!-- Node4&#45;&gt;Node8 -->
<g id="edge9" class="edge">
<title>Node4&#45;&gt;Node8</title>
<path fill="none" stroke="midnightblue" d="M336.37,-380.32C353.21,-371.66 379.31,-358.24 398.74,-348.25"/>
<polygon fill="midnightblue" stroke="midnightblue" points="400.38,-351.34 407.67,-343.65 397.18,-345.12 400.38,-351.34"/>
</g>
<!-- Node9 -->
<g id="node9" class="node">
<title>Node9</title>
<g id="a_node9"><a xlink:href="OS_8h.html" target="_top" xlink:title=" ">
<polygon fill="white" stroke="black" points="105.5,-129 105.5,-148 157.5,-148 157.5,-129 105.5,-129"/>
<text text-anchor="middle" x="131.5" y="-136" font-family="Helvetica,sans-Serif" font-size="10.00">os/OS.h</text>
</a>
</g>
</g>
<!-- Node4&#45;&gt;Node9 -->
<g id="edge10" class="edge">
<title>Node4&#45;&gt;Node9</title>
<path fill="none" stroke="midnightblue" d="M313.03,-380.41C285.85,-344.35 180.69,-204.79 144.12,-156.25"/>
<polygon fill="midnightblue" stroke="midnightblue" points="146.76,-153.93 137.94,-148.05 141.17,-158.15 146.76,-153.93"/>
</g>
<!-- Node11 -->
<g id="node11" class="node">
<title>Node11</title>
<g id="a_node11"><a xlink:href="variables_8h.html" target="_top" xlink:title=" ">
<polygon fill="white" stroke="black" points="318,-324.5 318,-343.5 381,-343.5 381,-324.5 318,-324.5"/>
<text text-anchor="middle" x="349.5" y="-331.5" font-family="Helvetica,sans-Serif" font-size="10.00">variables.h</text>
</a>
</g>
</g>
<!-- Node4&#45;&gt;Node11 -->
<g id="edge14" class="edge">
<title>Node4&#45;&gt;Node11</title>
<path fill="none" stroke="midnightblue" d="M324.45,-380.08C328.6,-372.61 334.65,-361.72 339.77,-352.52"/>
<polygon fill="midnightblue" stroke="midnightblue" points="342.84,-354.19 344.64,-343.75 336.72,-350.79 342.84,-354.19"/>
</g>
<!-- Node6&#45;&gt;Node5 -->
<g id="edge6" class="edge">
<title>Node6&#45;&gt;Node5</title>
<path fill="none" stroke="midnightblue" d="M23.93,-195.96C22.74,-170.57 22.91,-94.93 63.5,-56 85.4,-34.99 165.36,-22.32 218.97,-16"/>
<polygon fill="midnightblue" stroke="midnightblue" points="219.45,-19.47 228.99,-14.85 218.65,-12.51 219.45,-19.47"/>
</g>
<!-- Node7&#45;&gt;Node5 -->
<g id="edge8" class="edge">
<title>Node7&#45;&gt;Node5</title>
<path fill="none" stroke="midnightblue" d="M99.78,-262.85C90.1,-230.08 60.91,-112.65 120.5,-56 146.92,-30.89 186.87,-19.74 218.76,-14.82"/>
<polygon fill="midnightblue" stroke="midnightblue" points="219.37,-18.27 228.8,-13.43 218.41,-11.34 219.37,-18.27"/>
</g>
<!-- Node9&#45;&gt;Node5 -->
<g id="edge11" class="edge">
<title>Node9&#45;&gt;Node5</title>
<path fill="none" stroke="midnightblue" d="M128.91,-128.85C124.66,-112.72 118.2,-77.76 134.5,-56 153.98,-30 189.06,-18.84 218.59,-14.13"/>
<polygon fill="midnightblue" stroke="midnightblue" points="219.34,-17.56 228.76,-12.72 218.37,-10.62 219.34,-17.56"/>
</g>
<!-- Node10 -->
<g id="node10" class="node">
<title>Node10</title>
<g id="a_node10"><a xlink:href="dvd_8h.html" target="_top" xlink:title=" ">
<polygon fill="white" stroke="black" points="144,-62 144,-81 203,-81 203,-62 144,-62"/>
<text text-anchor="middle" x="173.5" y="-69" font-family="Helvetica,sans-Serif" font-size="10.00">dvd/dvd.h</text>
</a>
</g>
</g>
<!-- Node9&#45;&gt;Node10 -->
<g id="edge12" class="edge">
<title>Node9&#45;&gt;Node10</title>
<path fill="none" stroke="midnightblue" d="M137.16,-128.73C143.59,-118.79 154.22,-102.34 162.33,-89.79"/>
<polygon fill="midnightblue" stroke="midnightblue" points="165.44,-91.43 167.93,-81.13 159.56,-87.63 165.44,-91.43"/>
</g>
<!-- Node10&#45;&gt;Node5 -->
<g id="edge13" class="edge">
<title>Node10&#45;&gt;Node5</title>
<path fill="none" stroke="midnightblue" d="M187.25,-61.98C202.87,-52.3 228.56,-36.37 247.08,-24.89"/>
<polygon fill="midnightblue" stroke="midnightblue" points="249.12,-27.75 255.77,-19.51 245.43,-21.8 249.12,-27.75"/>
</g>
<!-- Node12 -->
<g id="node12" class="node">
<title>Node12</title>
<g id="a_node12"><a xlink:href="JSUList_8h.html" target="_top" xlink:title=" ">
<polygon fill="white" stroke="black" points="297.5,-56.5 297.5,-86.5 433.5,-86.5 433.5,-56.5 297.5,-56.5"/>
<text text-anchor="start" x="305.5" y="-74.5" font-family="Helvetica,sans-Serif" font-size="10.00">JSystem/JSupport/JSUList</text>
<text text-anchor="middle" x="365.5" y="-63.5" font-family="Helvetica,sans-Serif" font-size="10.00">/JSUList.h</text>
</a>
</g>
</g>
<!-- Node11&#45;&gt;Node12 -->
<g id="edge15" class="edge">
<title>Node11&#45;&gt;Node12</title>
<path fill="none" stroke="midnightblue" d="M351.86,-324.22C359.3,-295.43 381.42,-201.27 374.5,-123 373.73,-114.27 372.22,-104.78 370.65,-96.42"/>
<polygon fill="midnightblue" stroke="midnightblue" points="374.08,-95.68 368.69,-86.56 367.21,-97.05 374.08,-95.68"/>
</g>
<!-- Node13 -->
<g id="node13" class="node">
<title>Node13</title>
<g id="a_node13"><a xlink:href="JUTXfb_8h.html" target="_top" xlink:title=" ">
<polygon fill="white" stroke="black" points="375,-257.5 375,-287.5 500,-287.5 500,-257.5 375,-257.5"/>
<text text-anchor="start" x="383" y="-275.5" font-family="Helvetica,sans-Serif" font-size="10.00">JSystem/JUtility/JUTXfb</text>
<text text-anchor="middle" x="437.5" y="-264.5" font-family="Helvetica,sans-Serif" font-size="10.00">/JUTXfb.h</text>
</a>
</g>
</g>
<!-- Node11&#45;&gt;Node13 -->
<g id="edge17" class="edge">
<title>Node11&#45;&gt;Node13</title>
<path fill="none" stroke="midnightblue" d="M362.11,-324.48C374.14,-316.34 392.7,-303.79 408.4,-293.18"/>
<polygon fill="midnightblue" stroke="midnightblue" points="410.44,-296.02 416.76,-287.52 406.52,-290.22 410.44,-296.02"/>
</g>
<!-- Node11&#45;&gt;Node17 -->
<g id="edge27" class="edge">
<title>Node11&#45;&gt;Node17</title>
<path fill="none" stroke="midnightblue" d="M381.3,-324.88C413.76,-316.4 465.47,-302.35 509.5,-288 511.9,-287.22 514.38,-286.38 516.86,-285.51"/>
<polygon fill="midnightblue" stroke="midnightblue" points="518.11,-288.78 526.34,-282.1 515.74,-282.19 518.11,-288.78"/>
</g>
<!-- Node12&#45;&gt;Node5 -->
<g id="edge16" class="edge">
<title>Node12&#45;&gt;Node5</title>
<path fill="none" stroke="midnightblue" d="M342.75,-56.4C327.51,-46.95 307.51,-34.56 292.26,-25.11"/>
<polygon fill="midnightblue" stroke="midnightblue" points="293.81,-21.95 283.47,-19.66 290.12,-27.9 293.81,-21.95"/>
</g>
<!-- Node13&#45;&gt;Node5 -->
<g id="edge24" class="edge">
<title>Node13&#45;&gt;Node5</title>
<path fill="none" stroke="midnightblue" d="M445.76,-257.23C467.17,-218.25 518.86,-109.29 461.5,-56 441.2,-37.14 369.83,-24.14 320.07,-17.13"/>
<polygon fill="midnightblue" stroke="midnightblue" points="320.5,-13.66 310.12,-15.77 319.55,-20.59 320.5,-13.66"/>
</g>
<!-- Node14 -->
<g id="node14" class="node">
<title>Node14</title>
<g id="a_node14"><a xlink:href="JKRHeap_8h.html" target="_top" xlink:title=" ">
<polygon fill="white" stroke="black" points="221.5,-190.5 221.5,-220.5 357.5,-220.5 357.5,-190.5 221.5,-190.5"/>
<text text-anchor="start" x="229.5" y="-208.5" font-family="Helvetica,sans-Serif" font-size="10.00">JSystem/JKernel/JKRHeap</text>
<text text-anchor="middle" x="289.5" y="-197.5" font-family="Helvetica,sans-Serif" font-size="10.00">/JKRHeap.h</text>
</a>
</g>
</g>
<!-- Node13&#45;&gt;Node14 -->
<g id="edge18" class="edge">
<title>Node13&#45;&gt;Node14</title>
<path fill="none" stroke="midnightblue" d="M405.39,-257.4C383.57,-247.81 354.51,-235.05 330.94,-224.7"/>
<polygon fill="midnightblue" stroke="midnightblue" points="332.11,-221.39 321.55,-220.58 329.3,-227.8 332.11,-221.39"/>
</g>
<!-- Node16 -->
<g id="node16" class="node">
<title>Node16</title>
<g id="a_node16"><a xlink:href="GX_8h.html" target="_top" xlink:title=" ">
<polygon fill="white" stroke="black" points="422,-129 422,-148 473,-148 473,-129 422,-129"/>
<text text-anchor="middle" x="447.5" y="-136" font-family="Helvetica,sans-Serif" font-size="10.00">gx/GX.h</text>
</a>
</g>
</g>
<!-- Node13&#45;&gt;Node16 -->
<g id="edge25" class="edge">
<title>Node13&#45;&gt;Node16</title>
<path fill="none" stroke="midnightblue" d="M438.57,-257.37C440.38,-233.5 444.04,-185.18 446.07,-158.41"/>
<polygon fill="midnightblue" stroke="midnightblue" points="449.58,-158.33 446.85,-148.1 442.6,-157.8 449.58,-158.33"/>
</g>
<!-- Node14&#45;&gt;Node4 -->
<g id="edge23" class="edge">
<title>Node14&#45;&gt;Node4</title>
<path fill="none" stroke="midnightblue" d="M290.97,-220.63C293.68,-245.64 299.96,-299.26 308.5,-344 310.18,-352.8 312.48,-362.46 314.54,-370.57"/>
<polygon fill="midnightblue" stroke="midnightblue" points="311.21,-371.64 317.13,-380.43 317.98,-369.87 311.21,-371.64"/>
</g>
<!-- Node14&#45;&gt;Node5 -->
<g id="edge22" class="edge">
<title>Node14&#45;&gt;Node5</title>
<path fill="none" stroke="midnightblue" d="M248.1,-190.4C231.47,-182.46 214.01,-170.71 204.5,-154 197.69,-142.03 200.92,-136.3 204.5,-123 214.48,-85.93 240.06,-48.49 255.99,-27.66"/>
<polygon fill="midnightblue" stroke="midnightblue" points="258.93,-29.59 262.35,-19.56 253.42,-25.27 258.93,-29.59"/>
</g>
<!-- Node15 -->
<g id="node15" class="node">
<title>Node15</title>
<g id="a_node15"><a xlink:href="JKRDisposer_8h.html" target="_top" xlink:title=" ">
<polygon fill="white" stroke="black" points="214,-123.5 214,-153.5 365,-153.5 365,-123.5 214,-123.5"/>
<text text-anchor="start" x="222" y="-141.5" font-family="Helvetica,sans-Serif" font-size="10.00">JSystem/JKernel/JKRDisposer</text>
<text text-anchor="middle" x="289.5" y="-130.5" font-family="Helvetica,sans-Serif" font-size="10.00">/JKRDisposer.h</text>
</a>
</g>
</g>
<!-- Node14&#45;&gt;Node15 -->
<g id="edge19" class="edge">
<title>Node14&#45;&gt;Node15</title>
<path fill="none" stroke="midnightblue" d="M289.5,-190.4C289.5,-182.64 289.5,-172.81 289.5,-163.86"/>
<polygon fill="midnightblue" stroke="midnightblue" points="293,-163.58 289.5,-153.58 286,-163.58 293,-163.58"/>
</g>
<!-- Node15&#45;&gt;Node5 -->
<g id="edge21" class="edge">
<title>Node15&#45;&gt;Node5</title>
<path fill="none" stroke="midnightblue" d="M287.28,-123.48C283.67,-100.62 276.5,-55.3 272.46,-29.71"/>
<polygon fill="midnightblue" stroke="midnightblue" points="275.91,-29.12 270.89,-19.79 268.99,-30.21 275.91,-29.12"/>
</g>
<!-- Node15&#45;&gt;Node12 -->
<g id="edge20" class="edge">
<title>Node15&#45;&gt;Node12</title>
<path fill="none" stroke="midnightblue" d="M305.99,-123.4C316.35,-114.54 329.88,-102.96 341.43,-93.09"/>
<polygon fill="midnightblue" stroke="midnightblue" points="343.72,-95.74 349.04,-86.58 339.17,-90.42 343.72,-95.74"/>
</g>
<!-- Node16&#45;&gt;Node5 -->
<g id="edge26" class="edge">
<title>Node16&#45;&gt;Node5</title>
<path fill="none" stroke="midnightblue" d="M449.96,-128.71C453.96,-112.35 459.8,-77.01 442.5,-56 427,-37.18 365.36,-24.51 320.06,-17.53"/>
<polygon fill="midnightblue" stroke="midnightblue" points="320.49,-14.06 310.09,-16.04 319.46,-20.98 320.49,-14.06"/>
</g>
<!-- Node17&#45;&gt;Node5 -->
<g id="edge28" class="edge">
<title>Node17&#45;&gt;Node5</title>
<path fill="none" stroke="midnightblue" d="M548.86,-262.93C549.73,-230.45 548.2,-113.93 485.5,-56 461.93,-34.22 376.67,-21.67 320.58,-15.6"/>
<polygon fill="midnightblue" stroke="midnightblue" points="320.77,-12.1 310.46,-14.54 320.04,-19.07 320.77,-12.1"/>
</g>
</g>
</svg>
