<?xml version="1.0" encoding="UTF-8" standalone="no"?>
<!DOCTYPE svg PUBLIC "-//W3C//DTD SVG 1.1//EN"
 "http://www.w3.org/Graphics/SVG/1.1/DTD/svg11.dtd">
<!-- Generated by graphviz version 2.46.1 (20210215.1649)
 -->
<!-- Title: Z2SpeechMgr2 Pages: 1 -->
<svg width="680pt" height="106pt"
 viewBox="0.00 0.00 680.00 106.00" xmlns="http://www.w3.org/2000/svg" xmlns:xlink="http://www.w3.org/1999/xlink">
<g id="graph0" class="graph" transform="scale(1 1) rotate(0) translate(4 102)">
<title>Z2SpeechMgr2</title>
<polygon fill="white" stroke="transparent" points="-4,4 -4,-102 676,-102 676,4 -4,4"/>
<!-- Node1 -->
<g id="node1" class="node">
<title>Node1</title>
<g id="a_node1"><a xlink:title=" ">
<polygon fill="#bfbfbf" stroke="black" points="125.5,-0.5 125.5,-19.5 208.5,-19.5 208.5,-0.5 125.5,-0.5"/>
<text text-anchor="middle" x="167" y="-7.5" font-family="Helvetica,sans-Serif" font-size="10.00">Z2SpeechMgr2</text>
</a>
</g>
</g>
<!-- Node2 -->
<g id="node2" class="node">
<title>Node2</title>
<g id="a_node2"><a xlink:href="classZ2SpeechStarter.html" target="_top" xlink:title=" ">
<polygon fill="white" stroke="black" points="0,-78.5 0,-97.5 90,-97.5 90,-78.5 0,-78.5"/>
<text text-anchor="middle" x="45" y="-85.5" font-family="Helvetica,sans-Serif" font-size="10.00">Z2SpeechStarter</text>
</a>
</g>
</g>
<!-- Node2&#45;&gt;Node1 -->
<g id="edge1" class="edge">
<title>Node2&#45;&gt;Node1</title>
<path fill="none" stroke="#9a32cd" stroke-dasharray="5,2" d="M57.04,-70.11C65.29,-59.61 77.04,-46.54 90,-38 102.42,-29.82 117.61,-23.8 131.2,-19.56"/>
<polygon fill="#9a32cd" stroke="#9a32cd" points="54.2,-68.07 51,-78.17 59.8,-72.27 54.2,-68.07"/>
<text text-anchor="middle" x="126.5" y="-46.5" font-family="Helvetica,sans-Serif" font-size="10.00"> mSpeechStarter</text>
</g>
<!-- Node3 -->
<g id="node3" class="node">
<title>Node3</title>
<g id="a_node3"><a xlink:href="structJMath_1_1TRandom__fast__.html" target="_top" xlink:title=" ">
<polygon fill="white" stroke="black" points="108.5,-78.5 108.5,-97.5 225.5,-97.5 225.5,-78.5 108.5,-78.5"/>
<text text-anchor="middle" x="167" y="-85.5" font-family="Helvetica,sans-Serif" font-size="10.00">JMath::TRandom_fast_</text>
</a>
</g>
</g>
<!-- Node3&#45;&gt;Node1 -->
<g id="edge2" class="edge">
<title>Node3&#45;&gt;Node1</title>
<path fill="none" stroke="#9a32cd" stroke-dasharray="5,2" d="M167,-68.22C167,-52.7 167,-31.36 167,-19.62"/>
<polygon fill="#9a32cd" stroke="#9a32cd" points="163.5,-68.28 167,-78.28 170.5,-68.28 163.5,-68.28"/>
<text text-anchor="middle" x="190.5" y="-46.5" font-family="Helvetica,sans-Serif" font-size="10.00"> mRandom</text>
</g>
<!-- Node4 -->
<g id="node4" class="node">
<title>Node4</title>
<g id="a_node4"><a xlink:href="classJAISoundHandle.html" target="_top" xlink:title=" ">
<polygon fill="white" stroke="black" points="290,-78.5 290,-97.5 380,-97.5 380,-78.5 290,-78.5"/>
<text text-anchor="middle" x="335" y="-85.5" font-family="Helvetica,sans-Serif" font-size="10.00">JAISoundHandle</text>
</a>
</g>
</g>
<!-- Node4&#45;&gt;Node1 -->
<g id="edge3" class="edge">
<title>Node4&#45;&gt;Node1</title>
<path fill="none" stroke="#9a32cd" stroke-dasharray="5,2" d="M293.29,-75.42C279.87,-71.17 265.09,-65.93 252,-60 234.57,-52.1 231.56,-47.58 215,-38 204.24,-31.78 192.03,-24.91 182.62,-19.66"/>
<polygon fill="#9a32cd" stroke="#9a32cd" points="292.65,-78.89 303.24,-78.47 294.71,-72.2 292.65,-78.89"/>
<text text-anchor="middle" x="289.5" y="-52" font-family="Helvetica,sans-Serif" font-size="10.00"> mSoundHandle1</text>
<text text-anchor="middle" x="289.5" y="-41" font-family="Helvetica,sans-Serif" font-size="10.00">mSoundHandle2</text>
</g>
<!-- Node5 -->
<g id="node5" class="node">
<title>Node5</title>
<g id="a_node5"><a xlink:href="classJAISound.html" target="_top" xlink:title=" ">
<polygon fill="white" stroke="black" points="421.5,-0.5 421.5,-19.5 480.5,-19.5 480.5,-0.5 421.5,-0.5"/>
<text text-anchor="middle" x="451" y="-7.5" font-family="Helvetica,sans-Serif" font-size="10.00">JAISound</text>
</a>
</g>
</g>
<!-- Node4&#45;&gt;Node5 -->
<g id="edge8" class="edge">
<title>Node4&#45;&gt;Node5</title>
<path fill="none" stroke="#9a32cd" stroke-dasharray="5,2" d="M331.62,-68C330.95,-57.97 332.06,-46.1 339,-38 349.57,-25.65 391.85,-18.1 421.32,-14.23"/>
<polygon fill="#9a32cd" stroke="#9a32cd" points="328.19,-68.76 332.93,-78.24 335.13,-67.88 328.19,-68.76"/>
<text text-anchor="middle" x="354.5" y="-46.5" font-family="Helvetica,sans-Serif" font-size="10.00"> handle</text>
</g>
<!-- Node5&#45;&gt;Node4 -->
<g id="edge4" class="edge">
<title>Node5&#45;&gt;Node4</title>
<path fill="none" stroke="#9a32cd" stroke-dasharray="5,2" d="M427.33,-24.82C420.4,-28.97 412.85,-33.59 406,-38 384.85,-51.63 360.88,-68.47 346.9,-78.44"/>
<polygon fill="#9a32cd" stroke="#9a32cd" points="429.45,-27.63 436.26,-19.52 425.88,-21.61 429.45,-27.63"/>
<text text-anchor="middle" x="425.5" y="-46.5" font-family="Helvetica,sans-Serif" font-size="10.00"> mSound</text>
</g>
<!-- Node6 -->
<g id="node6" class="node">
<title>Node6</title>
<g id="a_node6"><a xlink:href="structJAISoundParams.html" target="_top" xlink:title=" ">
<polygon fill="white" stroke="black" points="401.5,-78.5 401.5,-97.5 494.5,-97.5 494.5,-78.5 401.5,-78.5"/>
<text text-anchor="middle" x="448" y="-85.5" font-family="Helvetica,sans-Serif" font-size="10.00">JAISoundParams</text>
</a>
</g>
</g>
<!-- Node6&#45;&gt;Node5 -->
<g id="edge5" class="edge">
<title>Node6&#45;&gt;Node5</title>
<path fill="none" stroke="#9a32cd" stroke-dasharray="5,2" d="M448.74,-68.22C449.35,-52.7 450.2,-31.36 450.66,-19.62"/>
<polygon fill="#9a32cd" stroke="#9a32cd" points="445.24,-68.15 448.34,-78.28 452.24,-68.43 445.24,-68.15"/>
<text text-anchor="middle" x="466.5" y="-46.5" font-family="Helvetica,sans-Serif" font-size="10.00"> params</text>
</g>
<!-- Node7 -->
<g id="node7" class="node">
<title>Node7</title>
<g id="a_node7"><a xlink:href="classJAISoundID.html" target="_top" xlink:title=" ">
<polygon fill="white" stroke="black" points="512.5,-78.5 512.5,-97.5 581.5,-97.5 581.5,-78.5 512.5,-78.5"/>
<text text-anchor="middle" x="547" y="-85.5" font-family="Helvetica,sans-Serif" font-size="10.00">JAISoundID</text>
</a>
</g>
</g>
<!-- Node7&#45;&gt;Node5 -->
<g id="edge6" class="edge">
<title>Node7&#45;&gt;Node5</title>
<path fill="none" stroke="#9a32cd" stroke-dasharray="5,2" d="M529.47,-71.95C517.86,-62.1 502.2,-49.06 488,-38 479.84,-31.65 470.43,-24.78 463.14,-19.57"/>
<polygon fill="#9a32cd" stroke="#9a32cd" points="527.25,-74.66 537.13,-78.48 531.79,-69.33 527.25,-74.66"/>
<text text-anchor="middle" x="535" y="-46.5" font-family="Helvetica,sans-Serif" font-size="10.00"> sound_id</text>
</g>
<!-- Node8 -->
<g id="node8" class="node">
<title>Node8</title>
<g id="a_node8"><a xlink:href="structJAIAudience.html" target="_top" xlink:title=" ">
<polygon fill="white" stroke="black" points="600,-78.5 600,-97.5 672,-97.5 672,-78.5 600,-78.5"/>
<text text-anchor="middle" x="636" y="-85.5" font-family="Helvetica,sans-Serif" font-size="10.00">JAIAudience</text>
</a>
</g>
</g>
<!-- Node8&#45;&gt;Node5 -->
<g id="edge7" class="edge">
<title>Node8&#45;&gt;Node5</title>
<path fill="none" stroke="#9a32cd" stroke-dasharray="5,2" d="M617.03,-72.24C602.23,-61.37 580.77,-46.97 560,-38 534.23,-26.87 502.96,-19.72 480.54,-15.59"/>
<polygon fill="#9a32cd" stroke="#9a32cd" points="615.23,-75.26 625.32,-78.47 619.43,-69.66 615.23,-75.26"/>
<text text-anchor="middle" x="619" y="-46.5" font-family="Helvetica,sans-Serif" font-size="10.00"> audience</text>
</g>
</g>
</svg>
