<?xml version="1.0" encoding="UTF-8" standalone="no"?>
<!DOCTYPE svg PUBLIC "-//W3C//DTD SVG 1.1//EN"
 "http://www.w3.org/Graphics/SVG/1.1/DTD/svg11.dtd">
<!-- Generated by graphviz version 2.46.0 (20210122.1329)
 -->
<!-- Title: JKRFileCache::CCacheBlock Pages: 1 -->
<svg width="225pt" height="186pt"
 viewBox="0.00 0.00 225.00 186.00" xmlns="http://www.w3.org/2000/svg" xmlns:xlink="http://www.w3.org/1999/xlink">
<g id="graph0" class="graph" transform="scale(1 1) rotate(0) translate(4 182)">
<title>JKRFileCache::CCacheBlock</title>
<polygon fill="white" stroke="transparent" points="-4,4 -4,-182 221,-182 221,4 -4,4"/>
<!-- Node1 -->
<g id="node1" class="node">
<title>Node1</title>
<g id="a_node1"><a xlink:title=" ">
<polygon fill="#bfbfbf" stroke="black" points="0,-0.5 0,-19.5 143,-19.5 143,-0.5 0,-0.5"/>
<text text-anchor="middle" x="71.5" y="-7.5" font-family="Helvetica,sans-Serif" font-size="10.00">JKRFileCache::CCacheBlock</text>
</a>
</g>
</g>
<!-- Node2 -->
<g id="node2" class="node">
<title>Node2</title>
<g id="a_node2"><a xlink:href="classJSULink.html" target="_top" xlink:title=" ">
<polygon fill="white" stroke="black" points="9,-67.5 9,-97.5 134,-97.5 134,-67.5 9,-67.5"/>
<text text-anchor="start" x="17" y="-85.5" font-family="Helvetica,sans-Serif" font-size="10.00">JSULink&lt; JKRFileCache</text>
<text text-anchor="middle" x="71.5" y="-74.5" font-family="Helvetica,sans-Serif" font-size="10.00">::CCacheBlock &gt;</text>
</a>
</g>
</g>
<!-- Node2&#45;&gt;Node1 -->
<g id="edge1" class="edge">
<title>Node2&#45;&gt;Node1</title>
<path fill="none" stroke="#9a32cd" stroke-dasharray="5,2" d="M71.5,-57.09C71.5,-44.21 71.5,-29.2 71.5,-19.89"/>
<polygon fill="#9a32cd" stroke="#9a32cd" points="68,-57.23 71.5,-67.23 75,-57.23 68,-57.23"/>
<text text-anchor="middle" x="112.5" y="-41" font-family="Helvetica,sans-Serif" font-size="10.00"> mCacheBlockLink</text>
</g>
<!-- Node3 -->
<g id="node3" class="node">
<title>Node3</title>
<g id="a_node3"><a xlink:href="classJSUPtrLink.html" target="_top" xlink:title=" ">
<polygon fill="white" stroke="black" points="93.5,-157.5 93.5,-176.5 161.5,-176.5 161.5,-157.5 93.5,-157.5"/>
<text text-anchor="middle" x="127.5" y="-164.5" font-family="Helvetica,sans-Serif" font-size="10.00">JSUPtrLink</text>
</a>
</g>
</g>
<!-- Node3&#45;&gt;Node2 -->
<g id="edge2" class="edge">
<title>Node3&#45;&gt;Node2</title>
<path fill="none" stroke="midnightblue" d="M113.97,-149.38C111.09,-145.69 108.14,-141.76 105.5,-138 96.15,-124.67 86.4,-108.82 79.76,-97.66"/>
<polygon fill="midnightblue" stroke="midnightblue" points="111.35,-151.71 120.31,-157.36 116.82,-147.35 111.35,-151.71"/>
</g>
<!-- Node3&#45;&gt;Node3 -->
<g id="edge3" class="edge">
<title>Node3&#45;&gt;Node3</title>
<path fill="none" stroke="#9a32cd" stroke-dasharray="5,2" d="M171.65,-173.27C176.42,-172.07 179.5,-169.98 179.5,-167 179.5,-162.23 171.63,-159.74 161.51,-159.52"/>
<polygon fill="#9a32cd" stroke="#9a32cd" points="171.02,-169.82 161.51,-174.48 171.85,-176.77 171.02,-169.82"/>
<text text-anchor="middle" x="195" y="-170" font-family="Helvetica,sans-Serif" font-size="10.00"> mNext</text>
<text text-anchor="middle" x="195" y="-159" font-family="Helvetica,sans-Serif" font-size="10.00">mPrev</text>
</g>
<!-- Node4 -->
<g id="node4" class="node">
<title>Node4</title>
<g id="a_node4"><a xlink:href="classJSUPtrList.html" target="_top" xlink:title=" ">
<polygon fill="white" stroke="black" points="152,-73 152,-92 217,-92 217,-73 152,-73"/>
<text text-anchor="middle" x="184.5" y="-80" font-family="Helvetica,sans-Serif" font-size="10.00">JSUPtrList</text>
</a>
</g>
</g>
<!-- Node3&#45;&gt;Node4 -->
<g id="edge5" class="edge">
<title>Node3&#45;&gt;Node4</title>
<path fill="none" stroke="#9a32cd" stroke-dasharray="5,2" d="M121.57,-147.42C119.52,-137.45 118.94,-125.33 124.5,-116 131.23,-104.7 143.4,-97.09 155.03,-92.09"/>
<polygon fill="#9a32cd" stroke="#9a32cd" points="118.21,-148.39 124.15,-157.16 124.97,-146.6 118.21,-148.39"/>
<text text-anchor="middle" x="141.5" y="-130" font-family="Helvetica,sans-Serif" font-size="10.00"> mHead</text>
<text text-anchor="middle" x="141.5" y="-119" font-family="Helvetica,sans-Serif" font-size="10.00">mTail</text>
</g>
<!-- Node4&#45;&gt;Node3 -->
<g id="edge4" class="edge">
<title>Node4&#45;&gt;Node3</title>
<path fill="none" stroke="#9a32cd" stroke-dasharray="5,2" d="M179.55,-102.25C176.01,-113.36 170.45,-127.32 162.5,-138 156.83,-145.62 148.62,-152.33 141.57,-157.28"/>
<polygon fill="#9a32cd" stroke="#9a32cd" points="183.01,-102.89 182.44,-92.31 176.29,-100.94 183.01,-102.89"/>
<text text-anchor="middle" x="187.5" y="-124.5" font-family="Helvetica,sans-Serif" font-size="10.00"> mList</text>
</g>
</g>
</svg>
