<?xml version="1.0" encoding="UTF-8" standalone="no"?>
<!DOCTYPE svg PUBLIC "-//W3C//DTD SVG 1.1//EN"
 "http://www.w3.org/Graphics/SVG/1.1/DTD/svg11.dtd">
<!-- Generated by graphviz version 2.46.0 (20210122.1329)
 -->
<!-- Title: JKRSolidHeap Pages: 1 -->
<!--zoomable 331 -->
<svg id="main" version="1.1" xmlns="http://www.w3.org/2000/svg" xmlns:xlink="http://www.w3.org/1999/xlink" xml:space="preserve" onload="init(evt)">
<style type="text/css"><![CDATA[
.edge:hover path { stroke: red; }
.edge:hover polygon { stroke: red; fill: red; }
]]></style>
<script type="text/javascript"><![CDATA[
var edges = document.getElementsByTagName('g');
if (edges && edges.length) {
  for (var i=0;i<edges.length;i++) {
    if (edges[i].id.substr(0,4)=='edge') {
      edges[i].setAttribute('class','edge');
    }
  }
}
]]></script>
        <defs>
                <circle id="rim" cx="0" cy="0" r="7"/>
                <circle id="rim2" cx="0" cy="0" r="3.5"/>
                <g id="zoomPlus">
                        <use xlink:href="#rim" fill="#404040">
                                <set attributeName="fill" to="#808080" begin="zoomplus.mouseover" end="zoomplus.mouseout"/>
                        </use>
                        <path d="M-4,0h8M0,-4v8" fill="none" stroke="white" stroke-width="1.5" pointer-events="none"/>
                </g>
                <g id="zoomMin">
                        <use xlink:href="#rim" fill="#404040">
                                <set attributeName="fill" to="#808080" begin="zoomminus.mouseover" end="zoomminus.mouseout"/>
                        </use>
                        <path d="M-4,0h8" fill="none" stroke="white" stroke-width="1.5" pointer-events="none"/>
                </g>
                <g id="dirArrow">
                        <path fill="none" stroke="white" stroke-width="1.5" d="M0,-3.0v7 M-2.5,-0.5L0,-3.0L2.5,-0.5"/>
                </g>
               <g id="resetDef">
                       <use xlink:href="#rim2" fill="#404040">
                               <set attributeName="fill" to="#808080" begin="reset.mouseover" end="reset.mouseout"/>
                       </use>
               </g>
        </defs>

<script type="text/javascript">
var viewWidth = 560;
var viewHeight = 331;
var sectionId = 'dynsection-1';
</script>
<script xlink:href="svgpan.js"/>
<svg id="graph" class="graph">
<g id="viewport">
<title>JKRSolidHeap</title>
<polygon fill="white" stroke="transparent" points="-4,4 -4,-327 556,-327 556,4 -4,4"/>
<!-- Node1 -->
<g id="node1" class="node">
<title>Node1</title>
<g id="a_node1"><a xlink:title=" ">
<polygon fill="#bfbfbf" stroke="black" points="310,-0.5 310,-19.5 390,-19.5 390,-0.5 310,-0.5"/>
<text text-anchor="middle" x="350" y="-7.5" font-family="Helvetica,sans-Serif" font-size="10.00">JKRSolidHeap</text>
</a>
</g>
</g>
<!-- Node2 -->
<g id="node2" class="node">
<title>Node2</title>
<g id="a_node2"><a xlink:href="classJKRHeap.html" target="_top" xlink:title=" ">
<polygon fill="white" stroke="black" points="218.5,-74 218.5,-93 277.5,-93 277.5,-74 218.5,-74"/>
<text text-anchor="middle" x="248" y="-81" font-family="Helvetica,sans-Serif" font-size="10.00">JKRHeap</text>
</a>
</g>
</g>
<!-- Node2&#45;&gt;Node1 -->
<g id="edge1" class="edge">
<title>Node2&#45;&gt;Node1</title>
<path fill="none" stroke="midnightblue" d="M268.95,-67.81C289.67,-53.29 320.68,-31.55 337.71,-19.62"/>
<polygon fill="midnightblue" stroke="midnightblue" points="266.69,-65.13 260.51,-73.73 270.7,-70.86 266.69,-65.13"/>
</g>
<!-- Node2&#45;&gt;Node2 -->
<g id="edge9" class="edge">
<title>Node2&#45;&gt;Node2</title>
<path fill="none" stroke="#9a32cd" stroke-dasharray="5,2" d="M287.67,-89.95C292.41,-88.77 295.5,-86.62 295.5,-83.5 295.5,-78.5 287.58,-76 277.69,-76"/>
<polygon fill="#9a32cd" stroke="#9a32cd" points="287.26,-86.47 277.69,-91 288,-93.43 287.26,-86.47"/>
<text text-anchor="middle" x="327" y="-92" font-family="Helvetica,sans-Serif" font-size="10.00"> sCurrentHeap</text>
<text text-anchor="middle" x="327" y="-81" font-family="Helvetica,sans-Serif" font-size="10.00">sRootHeap</text>
<text text-anchor="middle" x="327" y="-70" font-family="Helvetica,sans-Serif" font-size="10.00">sSystemHeap</text>
</g>
<!-- Node3 -->
<g id="node3" class="node">
<title>Node3</title>
<g id="a_node3"><a xlink:href="classJKRDisposer.html" target="_top" xlink:title=" ">
<polygon fill="white" stroke="black" points="162,-0.5 162,-19.5 236,-19.5 236,-0.5 162,-0.5"/>
<text text-anchor="middle" x="199" y="-7.5" font-family="Helvetica,sans-Serif" font-size="10.00">JKRDisposer</text>
</a>
</g>
</g>
<!-- Node2&#45;&gt;Node3 -->
<g id="edge3" class="edge">
<title>Node2&#45;&gt;Node3</title>
<path fill="none" stroke="#9a32cd" stroke-dasharray="5,2" d="M216.29,-69.02C208.23,-63.98 200.57,-57.38 196,-49 191.06,-39.94 193.25,-27.81 195.72,-19.72"/>
<polygon fill="#9a32cd" stroke="#9a32cd" points="214.62,-72.1 225.06,-73.89 218.02,-65.98 214.62,-72.1"/>
<text text-anchor="middle" x="213" y="-41" font-family="Helvetica,sans-Serif" font-size="10.00"> mHeap</text>
</g>
<!-- Node3&#45;&gt;Node2 -->
<g id="edge2" class="edge">
<title>Node3&#45;&gt;Node2</title>
<path fill="none" stroke="midnightblue" d="M222.37,-25.79C226.7,-29.36 230.84,-33.47 234,-38 241.69,-49.03 245.3,-64.46 246.88,-73.96"/>
<polygon fill="midnightblue" stroke="midnightblue" points="224.15,-22.75 214.03,-19.6 219.98,-28.37 224.15,-22.75"/>
</g>
<!-- Node4 -->
<g id="node4" class="node">
<title>Node4</title>
<g id="a_node4"><a xlink:href="classJSULink.html" target="_top" xlink:title=" ">
<polygon fill="white" stroke="black" points="0,-185.5 0,-204.5 128,-204.5 128,-185.5 0,-185.5"/>
<text text-anchor="middle" x="64" y="-192.5" font-family="Helvetica,sans-Serif" font-size="10.00">JSULink&lt; JKRDisposer &gt;</text>
</a>
</g>
</g>
<!-- Node4&#45;&gt;Node3 -->
<g id="edge4" class="edge">
<title>Node4&#45;&gt;Node3</title>
<path fill="none" stroke="#9a32cd" stroke-dasharray="5,2" d="M69.81,-175.79C73.06,-166.8 77.55,-155.98 83,-147 115.35,-93.67 168.41,-40.24 189.72,-19.75"/>
<polygon fill="#9a32cd" stroke="#9a32cd" points="66.48,-174.69 66.58,-185.29 73.11,-176.94 66.48,-174.69"/>
<text text-anchor="middle" x="117" y="-121" font-family="Helvetica,sans-Serif" font-size="10.00"> mLink</text>
</g>
<!-- Node5 -->
<g id="node5" class="node">
<title>Node5</title>
<g id="a_node5"><a xlink:href="classJSUPtrLink.html" target="_top" xlink:title=" ">
<polygon fill="white" stroke="black" points="63,-302.5 63,-321.5 131,-321.5 131,-302.5 63,-302.5"/>
<text text-anchor="middle" x="97" y="-309.5" font-family="Helvetica,sans-Serif" font-size="10.00">JSUPtrLink</text>
</a>
</g>
</g>
<!-- Node5&#45;&gt;Node4 -->
<g id="edge5" class="edge">
<title>Node5&#45;&gt;Node4</title>
<path fill="none" stroke="midnightblue" d="M89.44,-292.74C88.22,-289.52 87.02,-286.18 86,-283 76.94,-254.82 69.21,-220.55 65.83,-204.75"/>
<polygon fill="midnightblue" stroke="midnightblue" points="86.29,-294.28 93.24,-302.28 92.79,-291.69 86.29,-294.28"/>
</g>
<!-- Node5&#45;&gt;Node5 -->
<g id="edge6" class="edge">
<title>Node5&#45;&gt;Node5</title>
<path fill="none" stroke="#9a32cd" stroke-dasharray="5,2" d="M141.15,-318.27C145.92,-317.07 149,-314.98 149,-312 149,-307.23 141.13,-304.74 131.01,-304.52"/>
<polygon fill="#9a32cd" stroke="#9a32cd" points="140.52,-314.82 131.01,-319.48 141.35,-321.77 140.52,-314.82"/>
<text text-anchor="middle" x="164.5" y="-315" font-family="Helvetica,sans-Serif" font-size="10.00"> mNext</text>
<text text-anchor="middle" x="164.5" y="-304" font-family="Helvetica,sans-Serif" font-size="10.00">mPrev</text>
</g>
<!-- Node6 -->
<g id="node6" class="node">
<title>Node6</title>
<g id="a_node6"><a xlink:href="classJSUPtrList.html" target="_top" xlink:title=" ">
<polygon fill="white" stroke="black" points="121.5,-223.5 121.5,-242.5 186.5,-242.5 186.5,-223.5 121.5,-223.5"/>
<text text-anchor="middle" x="154" y="-230.5" font-family="Helvetica,sans-Serif" font-size="10.00">JSUPtrList</text>
</a>
</g>
</g>
<!-- Node5&#45;&gt;Node6 -->
<g id="edge8" class="edge">
<title>Node5&#45;&gt;Node6</title>
<path fill="none" stroke="#9a32cd" stroke-dasharray="5,2" d="M90.88,-292.61C88.69,-282.52 88.04,-270.22 94,-261 100.2,-251.41 110.71,-245.19 121.22,-241.17"/>
<polygon fill="#9a32cd" stroke="#9a32cd" points="87.56,-293.75 93.62,-302.44 94.31,-291.87 87.56,-293.75"/>
<text text-anchor="middle" x="111" y="-275" font-family="Helvetica,sans-Serif" font-size="10.00"> mHead</text>
<text text-anchor="middle" x="111" y="-264" font-family="Helvetica,sans-Serif" font-size="10.00">mTail</text>
</g>
<!-- Node6&#45;&gt;Node5 -->
<g id="edge7" class="edge">
<title>Node6&#45;&gt;Node5</title>
<path fill="none" stroke="#9a32cd" stroke-dasharray="5,2" d="M148.21,-252.16C144.54,-261.92 139.13,-273.8 132,-283 126.09,-290.63 117.7,-297.44 110.61,-302.43"/>
<polygon fill="#9a32cd" stroke="#9a32cd" points="151.54,-253.23 151.51,-242.63 144.93,-250.94 151.54,-253.23"/>
<text text-anchor="middle" x="159" y="-269.5" font-family="Helvetica,sans-Serif" font-size="10.00"> mList</text>
</g>
<!-- Node9 -->
<g id="node9" class="node">
<title>Node9</title>
<g id="a_node9"><a xlink:href="classJSUList.html" target="_top" xlink:title=" ">
<polygon fill="white" stroke="black" points="92,-147.5 92,-166.5 218,-166.5 218,-147.5 92,-147.5"/>
<text text-anchor="middle" x="155" y="-154.5" font-family="Helvetica,sans-Serif" font-size="10.00">JSUList&lt; JKRDisposer &gt;</text>
</a>
</g>
</g>
<!-- Node6&#45;&gt;Node9 -->
<g id="edge13" class="edge">
<title>Node6&#45;&gt;Node9</title>
<path fill="none" stroke="midnightblue" d="M154.26,-213.07C154.46,-198.18 154.73,-178.11 154.88,-166.77"/>
<polygon fill="midnightblue" stroke="midnightblue" points="150.75,-213.17 154.12,-223.22 157.75,-213.27 150.75,-213.17"/>
</g>
<!-- Node7 -->
<g id="node7" class="node">
<title>Node7</title>
<g id="a_node7"><a xlink:href="classJSUTree.html" target="_top" xlink:title=" ">
<polygon fill="white" stroke="black" points="236,-147.5 236,-166.5 350,-166.5 350,-147.5 236,-147.5"/>
<text text-anchor="middle" x="293" y="-154.5" font-family="Helvetica,sans-Serif" font-size="10.00">JSUTree&lt; JKRHeap &gt;</text>
</a>
</g>
</g>
<!-- Node7&#45;&gt;Node2 -->
<g id="edge10" class="edge">
<title>Node7&#45;&gt;Node2</title>
<path fill="none" stroke="#9a32cd" stroke-dasharray="5,2" d="M282.15,-138.75C273.13,-124.43 260.67,-104.63 253.56,-93.34"/>
<polygon fill="#9a32cd" stroke="#9a32cd" points="279.19,-140.63 287.48,-147.23 285.12,-136.91 279.19,-140.63"/>
<text text-anchor="middle" x="302" y="-121" font-family="Helvetica,sans-Serif" font-size="10.00"> mChildTree</text>
</g>
<!-- Node8 -->
<g id="node8" class="node">
<title>Node8</title>
<g id="a_node8"><a xlink:href="structOSMutex.html" target="_top" xlink:title=" ">
<polygon fill="white" stroke="black" points="368.5,-147.5 368.5,-166.5 425.5,-166.5 425.5,-147.5 368.5,-147.5"/>
<text text-anchor="middle" x="397" y="-154.5" font-family="Helvetica,sans-Serif" font-size="10.00">OSMutex</text>
</a>
</g>
</g>
<!-- Node8&#45;&gt;Node2 -->
<g id="edge11" class="edge">
<title>Node8&#45;&gt;Node2</title>
<path fill="none" stroke="#9a32cd" stroke-dasharray="5,2" d="M374.69,-141.84C362.35,-134.3 346.6,-125.13 332,-118 312.39,-108.42 289.31,-99.37 272.31,-93.1"/>
<polygon fill="#9a32cd" stroke="#9a32cd" points="373.04,-144.94 383.38,-147.23 376.73,-138.99 373.04,-144.94"/>
<text text-anchor="middle" x="370.5" y="-121" font-family="Helvetica,sans-Serif" font-size="10.00"> mMutex</text>
</g>
<!-- Node9&#45;&gt;Node2 -->
<g id="edge12" class="edge">
<title>Node9&#45;&gt;Node2</title>
<path fill="none" stroke="#9a32cd" stroke-dasharray="5,2" d="M172.58,-140.51C180.77,-133.46 190.73,-125.12 200,-118 211.6,-109.08 225.34,-99.6 235.14,-93.01"/>
<polygon fill="#9a32cd" stroke="#9a32cd" points="170.04,-138.08 164.79,-147.28 174.64,-143.36 170.04,-138.08"/>
<text text-anchor="middle" x="233" y="-121" font-family="Helvetica,sans-Serif" font-size="10.00"> mDisposerList</text>
</g>
<!-- Node10 -->
<g id="node10" class="node">
<title>Node10</title>
<g id="a_node10"><a xlink:href="structJKRSolidHeap_1_1Unknown.html" target="_top" xlink:title=" ">
<polygon fill="white" stroke="black" points="377,-74 377,-93 503,-93 503,-74 377,-74"/>
<text text-anchor="middle" x="440" y="-81" font-family="Helvetica,sans-Serif" font-size="10.00">JKRSolidHeap::Unknown</text>
</a>
</g>
</g>
<!-- Node10&#45;&gt;Node1 -->
<g id="edge14" class="edge">
<title>Node10&#45;&gt;Node1</title>
<path fill="none" stroke="#9a32cd" stroke-dasharray="5,2" d="M420.77,-67.22C402.5,-52.7 375.67,-31.39 360.84,-19.62"/>
<polygon fill="#9a32cd" stroke="#9a32cd" points="418.96,-70.25 428.96,-73.73 423.31,-64.77 418.96,-70.25"/>
<text text-anchor="middle" x="420" y="-41" font-family="Helvetica,sans-Serif" font-size="10.00"> field_0x78</text>
</g>
<!-- Node10&#45;&gt;Node10 -->
<g id="edge15" class="edge">
<title>Node10&#45;&gt;Node10</title>
<path fill="none" stroke="#9a32cd" stroke-dasharray="5,2" d="M513.09,-88.9C518.01,-87.65 521,-85.85 521,-83.5 521,-79.83 513.72,-77.5 503.17,-76.53"/>
<polygon fill="#9a32cd" stroke="#9a32cd" points="512.5,-85.45 503.17,-90.47 513.59,-92.36 512.5,-85.45"/>
<text text-anchor="middle" x="536.5" y="-81" font-family="Helvetica,sans-Serif" font-size="10.00"> mNext</text>
</g>
</g>
</svg>
        <g id="navigator" transform="translate(0 0)" fill="#404254">
                <rect fill="#f2f5e9" fill-opacity="0.5" stroke="#606060" stroke-width=".5" x="0" y="0" width="60" height="60"/>
                <use id="zoomplus" xlink:href="#zoomPlus" x="17" y="9" onmousedown="handleZoom(evt,'in')"/>
                <use id="zoomminus" xlink:href="#zoomMin" x="42" y="9" onmousedown="handleZoom(evt,'out')"/>
                <use id="reset" xlink:href="#resetDef" x="30" y="36" onmousedown="handleReset()"/>
                <g id="arrowUp" xlink:href="#dirArrow" transform="translate(30 24)" onmousedown="handlePan(0,-1)">
                  <use xlink:href="#rim" fill="#404040">
                        <set attributeName="fill" to="#808080" begin="arrowUp.mouseover" end="arrowUp.mouseout"/>
                  </use>
                  <path fill="none" stroke="white" stroke-width="1.5" d="M0,-3.0v7 M-2.5,-0.5L0,-3.0L2.5,-0.5"/>
                </g>
                <g id="arrowRight" xlink:href="#dirArrow" transform="rotate(90) translate(36 -43)" onmousedown="handlePan(1,0)">
                  <use xlink:href="#rim" fill="#404040">
                        <set attributeName="fill" to="#808080" begin="arrowRight.mouseover" end="arrowRight.mouseout"/>
                  </use>
                  <path fill="none" stroke="white" stroke-width="1.5" d="M0,-3.0v7 M-2.5,-0.5L0,-3.0L2.5,-0.5"/>
                </g>
                <g id="arrowDown" xlink:href="#dirArrow" transform="rotate(180) translate(-30 -48)" onmousedown="handlePan(0,1)">
                  <use xlink:href="#rim" fill="#404040">
                        <set attributeName="fill" to="#808080" begin="arrowDown.mouseover" end="arrowDown.mouseout"/>
                  </use>
                  <path fill="none" stroke="white" stroke-width="1.5" d="M0,-3.0v7 M-2.5,-0.5L0,-3.0L2.5,-0.5"/>
                </g>
                <g id="arrowLeft" xlink:href="#dirArrow" transform="rotate(270) translate(-36 17)" onmousedown="handlePan(-1,0)">
                  <use xlink:href="#rim" fill="#404040">
                        <set attributeName="fill" to="#808080" begin="arrowLeft.mouseover" end="arrowLeft.mouseout"/>
                  </use>
                  <path fill="none" stroke="white" stroke-width="1.5" d="M0,-3.0v7 M-2.5,-0.5L0,-3.0L2.5,-0.5"/>
                </g>
        </g>
        <svg viewBox="0 0 15 15" width="100%" height="30px" preserveAspectRatio="xMaxYMin meet">
         <g id="arrow_out" transform="scale(0.3 0.3)">
          <a xlink:href="classJKRSolidHeap__coll__graph_org.svg" target="_base">
           <rect id="button" ry="5" rx="5" y="6" x="6" height="38" width="38"
                fill="#f2f5e9" fill-opacity="0.5" stroke="#606060" stroke-width="1.0"/>
           <path id="arrow"
             d="M 11.500037,31.436501 C 11.940474,20.09759 22.043105,11.32322 32.158766,21.979434 L 37.068811,17.246167 C 37.068811,17.246167 37.088388,32 37.088388,32 L 22.160133,31.978069 C 22.160133,31.978069 26.997745,27.140456 26.997745,27.140456 C 18.528582,18.264221 13.291696,25.230495 11.500037,31.436501 z"
             style="fill:#404040;"/>
          </a>
         </g>
        </svg>
</svg>
