<?xml version="1.0" encoding="UTF-8" standalone="no"?>
<!DOCTYPE svg PUBLIC "-//W3C//DTD SVG 1.1//EN"
 "http://www.w3.org/Graphics/SVG/1.1/DTD/svg11.dtd">
<!-- Generated by graphviz version 2.46.1 (20210215.1649)
 -->
<!-- Title: JUTFont Pages: 1 -->
<svg width="88pt" height="185pt"
 viewBox="0.00 0.00 88.00 185.00" xmlns="http://www.w3.org/2000/svg" xmlns:xlink="http://www.w3.org/1999/xlink">
<g id="graph0" class="graph" transform="scale(1 1) rotate(0) translate(4 181)">
<title>JUTFont</title>
<polygon fill="white" stroke="transparent" points="-4,4 -4,-181 84,-181 84,4 -4,4"/>
<!-- Node1 -->
<g id="node1" class="node">
<title>Node1</title>
<g id="a_node1"><a xlink:title=" ">
<polygon fill="#bfbfbf" stroke="black" points="12.5,-0.5 12.5,-19.5 67.5,-19.5 67.5,-0.5 12.5,-0.5"/>
<text text-anchor="middle" x="40" y="-7.5" font-family="Helvetica,sans-Serif" font-size="10.00">JUTFont</text>
</a>
</g>
</g>
<!-- Node2 -->
<g id="node2" class="node">
<title>Node2</title>
<g id="a_node2"><a xlink:href="structJUtility_1_1TColor.html" target="_top" xlink:title=" ">
<polygon fill="white" stroke="black" points="0,-100.5 0,-119.5 80,-119.5 80,-100.5 0,-100.5"/>
<text text-anchor="middle" x="40" y="-107.5" font-family="Helvetica,sans-Serif" font-size="10.00">JUtility::TColor</text>
</a>
</g>
</g>
<!-- Node2&#45;&gt;Node1 -->
<g id="edge1" class="edge">
<title>Node2&#45;&gt;Node1</title>
<path fill="none" stroke="#9a32cd" stroke-dasharray="5,2" d="M40,-90.22C40,-68.95 40,-35.22 40,-19.54"/>
<polygon fill="#9a32cd" stroke="#9a32cd" points="36.5,-90.3 40,-100.3 43.5,-90.3 36.5,-90.3"/>
<text text-anchor="middle" x="59.5" y="-74" font-family="Helvetica,sans-Serif" font-size="10.00"> mColor1</text>
<text text-anchor="middle" x="59.5" y="-63" font-family="Helvetica,sans-Serif" font-size="10.00">mColor2</text>
<text text-anchor="middle" x="59.5" y="-52" font-family="Helvetica,sans-Serif" font-size="10.00">mColor3</text>
<text text-anchor="middle" x="59.5" y="-41" font-family="Helvetica,sans-Serif" font-size="10.00">mColor4</text>
</g>
<!-- Node3 -->
<g id="node3" class="node">
<title>Node3</title>
<g id="a_node3"><a xlink:href="struct__GXColor.html" target="_top" xlink:title=" ">
<polygon fill="white" stroke="black" points="10.5,-157.5 10.5,-176.5 69.5,-176.5 69.5,-157.5 10.5,-157.5"/>
<text text-anchor="middle" x="40" y="-164.5" font-family="Helvetica,sans-Serif" font-size="10.00">_GXColor</text>
</a>
</g>
</g>
<!-- Node3&#45;&gt;Node2 -->
<g id="edge2" class="edge">
<title>Node3&#45;&gt;Node2</title>
<path fill="none" stroke="midnightblue" d="M40,-147.12C40,-137.82 40,-127.06 40,-119.71"/>
<polygon fill="midnightblue" stroke="midnightblue" points="36.5,-147.41 40,-157.41 43.5,-147.41 36.5,-147.41"/>
</g>
</g>
</svg>
