<?xml version="1.0" encoding="UTF-8" standalone="no"?>
<!DOCTYPE svg PUBLIC "-//W3C//DTD SVG 1.1//EN"
 "http://www.w3.org/Graphics/SVG/1.1/DTD/svg11.dtd">
<!-- Generated by graphviz version 2.46.1 (20210215.1649)
 -->
<!-- Title: dSv_zone_c Pages: 1 -->
<svg width="202pt" height="95pt"
 viewBox="0.00 0.00 201.50 95.00" xmlns="http://www.w3.org/2000/svg" xmlns:xlink="http://www.w3.org/1999/xlink">
<g id="graph0" class="graph" transform="scale(1 1) rotate(0) translate(4 91)">
<title>dSv_zone_c</title>
<polygon fill="white" stroke="transparent" points="-4,4 -4,-91 197.5,-91 197.5,4 -4,4"/>
<!-- Node1 -->
<g id="node1" class="node">
<title>Node1</title>
<g id="a_node1"><a xlink:title=" ">
<polygon fill="#bfbfbf" stroke="black" points="59,-0.5 59,-19.5 129,-19.5 129,-0.5 59,-0.5"/>
<text text-anchor="middle" x="94" y="-7.5" font-family="Helvetica,sans-Serif" font-size="10.00">dSv_zone_c</text>
</a>
</g>
</g>
<!-- Node2 -->
<g id="node2" class="node">
<title>Node2</title>
<g id="a_node2"><a xlink:href="classdSv__zoneBit__c.html" target="_top" xlink:title=" ">
<polygon fill="white" stroke="black" points="0,-67.5 0,-86.5 82,-86.5 82,-67.5 0,-67.5"/>
<text text-anchor="middle" x="41" y="-74.5" font-family="Helvetica,sans-Serif" font-size="10.00">dSv_zoneBit_c</text>
</a>
</g>
</g>
<!-- Node2&#45;&gt;Node1 -->
<g id="edge1" class="edge">
<title>Node2&#45;&gt;Node1</title>
<path fill="none" stroke="#9a32cd" stroke-dasharray="5,2" d="M54.64,-59.27C64.97,-46.6 78.75,-29.7 86.97,-19.63"/>
<polygon fill="#9a32cd" stroke="#9a32cd" points="51.75,-57.27 48.15,-67.23 57.18,-61.7 51.75,-57.27"/>
<text text-anchor="middle" x="90.5" y="-41" font-family="Helvetica,sans-Serif" font-size="10.00"> zone_bit</text>
</g>
<!-- Node3 -->
<g id="node3" class="node">
<title>Node3</title>
<g id="a_node3"><a xlink:href="classdSv__zoneActor__c.html" target="_top" xlink:title=" ">
<polygon fill="white" stroke="black" points="100.5,-67.5 100.5,-86.5 193.5,-86.5 193.5,-67.5 100.5,-67.5"/>
<text text-anchor="middle" x="147" y="-74.5" font-family="Helvetica,sans-Serif" font-size="10.00">dSv_zoneActor_c</text>
</a>
</g>
</g>
<!-- Node3&#45;&gt;Node1 -->
<g id="edge2" class="edge">
<title>Node3&#45;&gt;Node1</title>
<path fill="none" stroke="#9a32cd" stroke-dasharray="5,2" d="M133.36,-59.27C123.03,-46.6 109.25,-29.7 101.03,-19.63"/>
<polygon fill="#9a32cd" stroke="#9a32cd" points="130.82,-61.7 139.85,-67.23 136.25,-57.27 130.82,-61.7"/>
<text text-anchor="middle" x="148" y="-41" font-family="Helvetica,sans-Serif" font-size="10.00"> zone_actor</text>
</g>
</g>
</svg>
