<?xml version="1.0" encoding="UTF-8" standalone="no"?>
<!DOCTYPE svg PUBLIC "-//W3C//DTD SVG 1.1//EN"
 "http://www.w3.org/Graphics/SVG/1.1/DTD/svg11.dtd">
<!-- Generated by graphviz version 2.46.0 (20210122.1329)
 -->
<!-- Title: JKRDvdFinder Pages: 1 -->
<svg width="222pt" height="152pt"
 viewBox="0.00 0.00 221.50 152.00" xmlns="http://www.w3.org/2000/svg" xmlns:xlink="http://www.w3.org/1999/xlink">
<g id="graph0" class="graph" transform="scale(1 1) rotate(0) translate(4 148)">
<title>JKRDvdFinder</title>
<polygon fill="white" stroke="transparent" points="-4,4 -4,-148 217.5,-148 217.5,4 -4,4"/>
<!-- Node1 -->
<g id="node1" class="node">
<title>Node1</title>
<g id="a_node1"><a xlink:title=" ">
<polygon fill="#bfbfbf" stroke="black" points="80.5,-0.5 80.5,-19.5 160.5,-19.5 160.5,-0.5 80.5,-0.5"/>
<text text-anchor="middle" x="120.5" y="-7.5" font-family="Helvetica,sans-Serif" font-size="10.00">JKRDvdFinder</text>
</a>
</g>
</g>
<!-- Node2 -->
<g id="node2" class="node">
<title>Node2</title>
<g id="a_node2"><a xlink:href="classJKRFileFinder.html" target="_top" xlink:title=" ">
<polygon fill="white" stroke="black" points="34.5,-67.5 34.5,-86.5 112.5,-86.5 112.5,-67.5 34.5,-67.5"/>
<text text-anchor="middle" x="73.5" y="-74.5" font-family="Helvetica,sans-Serif" font-size="10.00">JKRFileFinder</text>
</a>
</g>
</g>
<!-- Node2&#45;&gt;Node1 -->
<g id="edge1" class="edge">
<title>Node2&#45;&gt;Node1</title>
<path fill="none" stroke="midnightblue" d="M85.86,-58.9C94.99,-46.27 107.05,-29.6 114.26,-19.63"/>
<polygon fill="midnightblue" stroke="midnightblue" points="82.86,-57.08 79.84,-67.23 88.53,-61.18 82.86,-57.08"/>
</g>
<!-- Node3 -->
<g id="node3" class="node">
<title>Node3</title>
<g id="a_node3"><a xlink:href="structJKRFileFinder__UnknownBase.html" target="_top" xlink:title=" ">
<polygon fill="white" stroke="black" points="0,-124.5 0,-143.5 147,-143.5 147,-124.5 0,-124.5"/>
<text text-anchor="middle" x="73.5" y="-131.5" font-family="Helvetica,sans-Serif" font-size="10.00">JKRFileFinder_UnknownBase</text>
</a>
</g>
</g>
<!-- Node3&#45;&gt;Node2 -->
<g id="edge2" class="edge">
<title>Node3&#45;&gt;Node2</title>
<path fill="none" stroke="midnightblue" d="M73.5,-114.12C73.5,-104.82 73.5,-94.06 73.5,-86.71"/>
<polygon fill="midnightblue" stroke="midnightblue" points="70,-114.41 73.5,-124.41 77,-114.41 70,-114.41"/>
</g>
<!-- Node4 -->
<g id="node4" class="node">
<title>Node4</title>
<g id="a_node4"><a xlink:href="structDVDDirectory.html" target="_top" xlink:title=" ">
<polygon fill="white" stroke="black" points="131,-67.5 131,-86.5 206,-86.5 206,-67.5 131,-67.5"/>
<text text-anchor="middle" x="168.5" y="-74.5" font-family="Helvetica,sans-Serif" font-size="10.00">DVDDirectory</text>
</a>
</g>
</g>
<!-- Node4&#45;&gt;Node1 -->
<g id="edge3" class="edge">
<title>Node4&#45;&gt;Node1</title>
<path fill="none" stroke="#9a32cd" stroke-dasharray="5,2" d="M155.88,-58.9C146.55,-46.27 134.24,-29.6 126.87,-19.63"/>
<polygon fill="#9a32cd" stroke="#9a32cd" points="153.27,-61.27 162.03,-67.23 158.9,-57.11 153.27,-61.27"/>
<text text-anchor="middle" x="180" y="-41" font-family="Helvetica,sans-Serif" font-size="10.00"> mDvdDirectory</text>
</g>
</g>
</svg>
