<?xml version="1.0" encoding="UTF-8" standalone="no"?>
<!DOCTYPE svg PUBLIC "-//W3C//DTD SVG 1.1//EN"
 "http://www.w3.org/Graphics/SVG/1.1/DTD/svg11.dtd">
<!-- Generated by graphviz version 2.46.1 (20210215.1649)
 -->
<!-- Title: JStudio::stb::TParse Pages: 1 -->
<!--zoomable 173 -->
<svg id="main" version="1.1" xmlns="http://www.w3.org/2000/svg" xmlns:xlink="http://www.w3.org/1999/xlink" xml:space="preserve" onload="init(evt)">
<style type="text/css"><![CDATA[
.edge:hover path { stroke: red; }
.edge:hover polygon { stroke: red; fill: red; }
]]></style>
<script type="text/javascript"><![CDATA[
var edges = document.getElementsByTagName('g');
if (edges && edges.length) {
  for (var i=0;i<edges.length;i++) {
    if (edges[i].id.substr(0,4)=='edge') {
      edges[i].setAttribute('class','edge');
    }
  }
}
]]></script>
        <defs>
                <circle id="rim" cx="0" cy="0" r="7"/>
                <circle id="rim2" cx="0" cy="0" r="3.5"/>
                <g id="zoomPlus">
                        <use xlink:href="#rim" fill="#404040">
                                <set attributeName="fill" to="#808080" begin="zoomplus.mouseover" end="zoomplus.mouseout"/>
                        </use>
                        <path d="M-4,0h8M0,-4v8" fill="none" stroke="white" stroke-width="1.5" pointer-events="none"/>
                </g>
                <g id="zoomMin">
                        <use xlink:href="#rim" fill="#404040">
                                <set attributeName="fill" to="#808080" begin="zoomminus.mouseover" end="zoomminus.mouseout"/>
                        </use>
                        <path d="M-4,0h8" fill="none" stroke="white" stroke-width="1.5" pointer-events="none"/>
                </g>
                <g id="dirArrow">
                        <path fill="none" stroke="white" stroke-width="1.5" d="M0,-3.0v7 M-2.5,-0.5L0,-3.0L2.5,-0.5"/>
                </g>
               <g id="resetDef">
                       <use xlink:href="#rim2" fill="#404040">
                               <set attributeName="fill" to="#808080" begin="reset.mouseover" end="reset.mouseout"/>
                       </use>
               </g>
        </defs>

<script type="text/javascript">
var viewWidth = 1254;
var viewHeight = 173;
var sectionId = 'dynsection-1';
</script>
<script xlink:href="svgpan.js"/>
<svg id="graph" class="graph">
<g id="viewport">
<title>JStudio::stb::TParse</title>
<polygon fill="white" stroke="transparent" points="-4,4 -4,-168.5 1250,-168.5 1250,4 -4,4"/>
<!-- Node1 -->
<g id="node1" class="node">
<title>Node1</title>
<g id="a_node1"><a xlink:title=" ">
<polygon fill="#bfbfbf" stroke="black" points="996.5,-129.5 996.5,-148.5 1100.5,-148.5 1100.5,-129.5 996.5,-129.5"/>
<text text-anchor="middle" x="1048.5" y="-136.5" font-family="Helvetica,sans-Serif" font-size="10.00">JStudio::stb::TParse</text>
</a>
</g>
</g>
<!-- Node2 -->
<g id="node2" class="node">
<title>Node2</title>
<g id="a_node2"><a xlink:href="structJGadget_1_1binary_1_1TParse__header__block.html" target="_top" xlink:title=" ">
<polygon fill="white" stroke="black" points="793.5,-134 793.5,-164 912.5,-164 912.5,-134 793.5,-134"/>
<text text-anchor="start" x="801.5" y="-152" font-family="Helvetica,sans-Serif" font-size="10.00">JGadget::binary::TParse</text>
<text text-anchor="middle" x="853" y="-141" font-family="Helvetica,sans-Serif" font-size="10.00">_header_block</text>
</a>
</g>
</g>
<!-- Node2&#45;&gt;Node1 -->
<g id="edge1" class="edge">
<title>Node2&#45;&gt;Node1</title>
<path fill="none" stroke="midnightblue" d="M922.79,-145.45C947.02,-144.19 973.81,-142.81 996.33,-141.64"/>
<polygon fill="midnightblue" stroke="midnightblue" points="922.39,-141.96 912.58,-145.97 922.75,-148.95 922.39,-141.96"/>
</g>
<!-- Node3 -->
<g id="node3" class="node">
<title>Node3</title>
<g id="a_node3"><a xlink:href="classJStudio_1_1stb_1_1TControl.html" target="_top" xlink:title=" ">
<polygon fill="white" stroke="black" points="798.5,-80.5 798.5,-99.5 907.5,-99.5 907.5,-80.5 798.5,-80.5"/>
<text text-anchor="middle" x="853" y="-87.5" font-family="Helvetica,sans-Serif" font-size="10.00">JStudio::stb::TControl</text>
</a>
</g>
</g>
<!-- Node3&#45;&gt;Node1 -->
<g id="edge2" class="edge">
<title>Node3&#45;&gt;Node1</title>
<path fill="none" stroke="#9a32cd" stroke-dasharray="5,2" d="M901.75,-102.09C935.08,-110.53 978.96,-121.64 1009.83,-129.46"/>
<polygon fill="#9a32cd" stroke="#9a32cd" points="902.32,-98.63 891.77,-99.56 900.6,-105.41 902.32,-98.63"/>
<text text-anchor="middle" x="957.5" y="-123" font-family="Helvetica,sans-Serif" font-size="10.00"> pControl</text>
</g>
<!-- Node5 -->
<g id="node5" class="node">
<title>Node5</title>
<g id="a_node5"><a xlink:href="classJStudio_1_1stb_1_1TObject.html" target="_top" xlink:title=" ">
<polygon fill="white" stroke="black" points="995,-28.5 995,-47.5 1102,-47.5 1102,-28.5 995,-28.5"/>
<text text-anchor="middle" x="1048.5" y="-35.5" font-family="Helvetica,sans-Serif" font-size="10.00">JStudio::stb::TObject</text>
</a>
</g>
</g>
<!-- Node3&#45;&gt;Node5 -->
<g id="edge7" class="edge">
<title>Node3&#45;&gt;Node5</title>
<path fill="none" stroke="#9a32cd" stroke-dasharray="5,2" d="M894.66,-77.47C908.39,-73.36 923.82,-68.86 938,-65 960.67,-58.83 986.15,-52.52 1006.82,-47.54"/>
<polygon fill="#9a32cd" stroke="#9a32cd" points="893.58,-74.15 885.01,-80.39 895.6,-80.85 893.58,-74.15"/>
<text text-anchor="middle" x="957.5" y="-68" font-family="Helvetica,sans-Serif" font-size="10.00"> pControl</text>
</g>
<!-- Node4 -->
<g id="node4" class="node">
<title>Node4</title>
<g id="a_node4"><a xlink:href="classJStudio_1_1stb_1_1TObject__control.html" target="_top" xlink:title=" ">
<polygon fill="white" stroke="black" points="1139,-52 1139,-82 1246,-82 1246,-52 1139,-52"/>
<text text-anchor="start" x="1147" y="-70" font-family="Helvetica,sans-Serif" font-size="10.00">JStudio::stb::TObject</text>
<text text-anchor="middle" x="1192.5" y="-59" font-family="Helvetica,sans-Serif" font-size="10.00">_control</text>
</a>
</g>
</g>
<!-- Node4&#45;&gt;Node3 -->
<g id="edge3" class="edge">
<title>Node4&#45;&gt;Node3</title>
<path fill="none" stroke="#9a32cd" stroke-dasharray="5,2" d="M1128.67,-71.28C1065.13,-75.61 967.97,-82.23 907.85,-86.33"/>
<polygon fill="#9a32cd" stroke="#9a32cd" points="1129.21,-74.75 1138.95,-70.58 1128.74,-67.77 1129.21,-74.75"/>
<text text-anchor="middle" x="1048.5" y="-83" font-family="Helvetica,sans-Serif" font-size="10.00"> mObject_control</text>
</g>
<!-- Node5&#45;&gt;Node4 -->
<g id="edge4" class="edge">
<title>Node5&#45;&gt;Node4</title>
<path fill="none" stroke="midnightblue" d="M1106.45,-49.63C1117.12,-51.81 1128.23,-54.08 1138.77,-56.23"/>
<polygon fill="midnightblue" stroke="midnightblue" points="1106.89,-46.15 1096.39,-47.58 1105.49,-53.01 1106.89,-46.15"/>
</g>
<!-- Node6 -->
<g id="node6" class="node">
<title>Node6</title>
<g id="a_node6"><a xlink:href="structJStudio_1_1object_1_1TObject__ID.html" target="_top" xlink:title=" ">
<polygon fill="white" stroke="black" points="786,-28.5 786,-47.5 920,-47.5 920,-28.5 786,-28.5"/>
<text text-anchor="middle" x="853" y="-35.5" font-family="Helvetica,sans-Serif" font-size="10.00">JStudio::object::TObject_ID</text>
</a>
</g>
</g>
<!-- Node6&#45;&gt;Node5 -->
<g id="edge5" class="edge">
<title>Node6&#45;&gt;Node5</title>
<path fill="none" stroke="midnightblue" d="M930.21,-38C951.86,-38 974.94,-38 994.86,-38"/>
<polygon fill="midnightblue" stroke="midnightblue" points="930.05,-34.5 920.05,-38 930.05,-41.5 930.05,-34.5"/>
</g>
<!-- Node7 -->
<g id="node7" class="node">
<title>Node7</title>
<g id="a_node7"><a xlink:href="classJStudio_1_1object_1_1TIDData.html" target="_top" xlink:title=" ">
<polygon fill="white" stroke="black" points="548,-28.5 548,-47.5 669,-47.5 669,-28.5 548,-28.5"/>
<text text-anchor="middle" x="608.5" y="-35.5" font-family="Helvetica,sans-Serif" font-size="10.00">JStudio::object::TIDData</text>
</a>
</g>
</g>
<!-- Node7&#45;&gt;Node6 -->
<g id="edge6" class="edge">
<title>Node7&#45;&gt;Node6</title>
<path fill="none" stroke="midnightblue" d="M679.31,-38C712.81,-38 752.74,-38 785.76,-38"/>
<polygon fill="midnightblue" stroke="midnightblue" points="679.13,-34.5 669.13,-38 679.13,-41.5 679.13,-34.5"/>
</g>
<!-- Node8 -->
<g id="node8" class="node">
<title>Node8</title>
<g id="a_node8"><a xlink:href="structJGadget_1_1TLinkListNode.html" target="_top" xlink:title=" ">
<polygon fill="white" stroke="black" points="0,-48.5 0,-67.5 122,-67.5 122,-48.5 0,-48.5"/>
<text text-anchor="middle" x="61" y="-55.5" font-family="Helvetica,sans-Serif" font-size="10.00">JGadget::TLinkListNode</text>
</a>
</g>
</g>
<!-- Node8&#45;&gt;Node5 -->
<g id="edge8" class="edge">
<title>Node8&#45;&gt;Node5</title>
<path fill="none" stroke="#9a32cd" stroke-dasharray="5,2" d="M88.62,-43.64C123.02,-26.47 185.22,0 242,0 242,0 242,0 854,0 912.88,0 979.99,-17.15 1017.69,-28.41"/>
<polygon fill="#9a32cd" stroke="#9a32cd" points="86.59,-40.75 79.28,-48.42 89.78,-46.98 86.59,-40.75"/>
<text text-anchor="middle" x="513" y="-3" font-family="Helvetica,sans-Serif" font-size="10.00"> mNode</text>
</g>
<!-- Node8&#45;&gt;Node8 -->
<g id="edge9" class="edge">
<title>Node8&#45;&gt;Node8</title>
<path fill="none" stroke="#9a32cd" stroke-dasharray="5,2" d="M44.33,-77.4C45.45,-82.31 51,-86 61,-86 77,-86 81.62,-76.57 74.87,-67.76"/>
<polygon fill="#9a32cd" stroke="#9a32cd" points="47.71,-78.34 47.13,-67.76 40.98,-76.39 47.71,-78.34"/>
<text text-anchor="middle" x="61" y="-100" font-family="Helvetica,sans-Serif" font-size="10.00"> pNext_</text>
<text text-anchor="middle" x="61" y="-89" font-family="Helvetica,sans-Serif" font-size="10.00">pPrev_</text>
</g>
<!-- Node10 -->
<g id="node10" class="node">
<title>Node10</title>
<g id="a_node10"><a xlink:href="structJGadget_1_1TNodeLinkList.html" target="_top" xlink:title=" ">
<polygon fill="white" stroke="black" points="356,-100.5 356,-119.5 478,-119.5 478,-100.5 356,-100.5"/>
<text text-anchor="middle" x="417" y="-107.5" font-family="Helvetica,sans-Serif" font-size="10.00">JGadget::TNodeLinkList</text>
</a>
</g>
</g>
<!-- Node8&#45;&gt;Node10 -->
<g id="edge14" class="edge">
<title>Node8&#45;&gt;Node10</title>
<path fill="none" stroke="#9a32cd" stroke-dasharray="5,2" d="M115.35,-69.6C136.09,-73.87 160.09,-78.5 182,-82 240.79,-91.38 308.34,-99.14 355.7,-104.1"/>
<polygon fill="#9a32cd" stroke="#9a32cd" points="115.96,-66.15 105.46,-67.54 114.54,-73.01 115.96,-66.15"/>
<text text-anchor="middle" x="243" y="-101" font-family="Helvetica,sans-Serif" font-size="10.00"> oNode_</text>
</g>
<!-- Node11 -->
<g id="node11" class="node">
<title>Node11</title>
<g id="a_node11"><a xlink:href="structJGadget_1_1TNodeLinkList_1_1iterator.html" target="_top" xlink:title=" ">
<polygon fill="white" stroke="black" points="182,-43 182,-73 304,-73 304,-43 182,-43"/>
<text text-anchor="start" x="190" y="-61" font-family="Helvetica,sans-Serif" font-size="10.00">JGadget::TNodeLinkList</text>
<text text-anchor="middle" x="243" y="-50" font-family="Helvetica,sans-Serif" font-size="10.00">::iterator</text>
</a>
</g>
</g>
<!-- Node8&#45;&gt;Node11 -->
<g id="edge13" class="edge">
<title>Node8&#45;&gt;Node11</title>
<path fill="none" stroke="#9a32cd" stroke-dasharray="5,2" d="M132.26,-58C148.65,-58 165.96,-58 181.87,-58"/>
<polygon fill="#9a32cd" stroke="#9a32cd" points="132.19,-54.5 122.19,-58 132.19,-61.5 132.19,-54.5"/>
<text text-anchor="middle" x="152" y="-61" font-family="Helvetica,sans-Serif" font-size="10.00"> node</text>
</g>
<!-- Node9 -->
<g id="node9" class="node">
<title>Node9</title>
<g id="a_node9"><a xlink:href="structJGadget_1_1TLinkList.html" target="_top" xlink:title=" ">
<polygon fill="white" stroke="black" points="549.5,-104.5 549.5,-145.5 667.5,-145.5 667.5,-104.5 549.5,-104.5"/>
<text text-anchor="start" x="557.5" y="-133.5" font-family="Helvetica,sans-Serif" font-size="10.00">JGadget::TLinkList</text>
<text text-anchor="start" x="557.5" y="-122.5" font-family="Helvetica,sans-Serif" font-size="10.00">&lt; JStudio::stb::TObject,</text>
<text text-anchor="middle" x="608.5" y="-111.5" font-family="Helvetica,sans-Serif" font-size="10.00"> &#45;12 &gt;</text>
</a>
</g>
</g>
<!-- Node9&#45;&gt;Node3 -->
<g id="edge10" class="edge">
<title>Node9&#45;&gt;Node3</title>
<path fill="none" stroke="#9a32cd" stroke-dasharray="5,2" d="M677.58,-115.17C715.71,-109.67 762.57,-102.91 798.12,-97.78"/>
<polygon fill="#9a32cd" stroke="#9a32cd" points="676.98,-111.72 667.58,-116.62 677.98,-118.65 676.98,-111.72"/>
<text text-anchor="middle" x="727.5" y="-116" font-family="Helvetica,sans-Serif" font-size="10.00"> mObjectContainer</text>
</g>
<!-- Node10&#45;&gt;Node9 -->
<g id="edge11" class="edge">
<title>Node10&#45;&gt;Node9</title>
<path fill="none" stroke="midnightblue" d="M488.26,-115.56C508.38,-117.15 530.08,-118.87 549.38,-120.4"/>
<polygon fill="midnightblue" stroke="midnightblue" points="488.46,-112.07 478.22,-114.77 487.91,-119.04 488.46,-112.07"/>
</g>
<!-- Node11&#45;&gt;Node10 -->
<g id="edge12" class="edge">
<title>Node11&#45;&gt;Node10</title>
<path fill="none" stroke="#9a32cd" stroke-dasharray="5,2" d="M307.47,-75.95C317.69,-78.92 328.15,-82.01 338,-85 354.19,-89.92 372.18,-95.67 386.8,-100.41"/>
<polygon fill="#9a32cd" stroke="#9a32cd" points="308.35,-72.56 297.77,-73.14 306.4,-79.28 308.35,-72.56"/>
<text text-anchor="middle" x="330" y="-88" font-family="Helvetica,sans-Serif" font-size="10.00"> iter</text>
</g>
<!-- Node12 -->
<g id="node12" class="node">
<title>Node12</title>
<g id="a_node12"><a xlink:href="classJStudio_1_1stb_1_1TFactory.html" target="_top" xlink:title=" ">
<polygon fill="white" stroke="black" points="553.5,-66.5 553.5,-85.5 663.5,-85.5 663.5,-66.5 553.5,-66.5"/>
<text text-anchor="middle" x="608.5" y="-73.5" font-family="Helvetica,sans-Serif" font-size="10.00">JStudio::stb::TFactory</text>
</a>
</g>
</g>
<!-- Node12&#45;&gt;Node3 -->
<g id="edge15" class="edge">
<title>Node12&#45;&gt;Node3</title>
<path fill="none" stroke="#9a32cd" stroke-dasharray="5,2" d="M674.13,-78.96C702.88,-80.35 737.14,-82.12 768,-84 777.78,-84.6 788.19,-85.29 798.24,-85.99"/>
<polygon fill="#9a32cd" stroke="#9a32cd" points="673.96,-75.44 663.8,-78.46 673.62,-82.44 673.96,-75.44"/>
<text text-anchor="middle" x="727.5" y="-87" font-family="Helvetica,sans-Serif" font-size="10.00"> pFactory</text>
</g>
</g>
</svg>
        <g id="navigator" transform="translate(0 0)" fill="#404254">
                <rect fill="#f2f5e9" fill-opacity="0.5" stroke="#606060" stroke-width=".5" x="0" y="0" width="60" height="60"/>
                <use id="zoomplus" xlink:href="#zoomPlus" x="17" y="9" onmousedown="handleZoom(evt,'in')"/>
                <use id="zoomminus" xlink:href="#zoomMin" x="42" y="9" onmousedown="handleZoom(evt,'out')"/>
                <use id="reset" xlink:href="#resetDef" x="30" y="36" onmousedown="handleReset()"/>
                <g id="arrowUp" xlink:href="#dirArrow" transform="translate(30 24)" onmousedown="handlePan(0,-1)">
                  <use xlink:href="#rim" fill="#404040">
                        <set attributeName="fill" to="#808080" begin="arrowUp.mouseover" end="arrowUp.mouseout"/>
                  </use>
                  <path fill="none" stroke="white" stroke-width="1.5" d="M0,-3.0v7 M-2.5,-0.5L0,-3.0L2.5,-0.5"/>
                </g>
                <g id="arrowRight" xlink:href="#dirArrow" transform="rotate(90) translate(36 -43)" onmousedown="handlePan(1,0)">
                  <use xlink:href="#rim" fill="#404040">
                        <set attributeName="fill" to="#808080" begin="arrowRight.mouseover" end="arrowRight.mouseout"/>
                  </use>
                  <path fill="none" stroke="white" stroke-width="1.5" d="M0,-3.0v7 M-2.5,-0.5L0,-3.0L2.5,-0.5"/>
                </g>
                <g id="arrowDown" xlink:href="#dirArrow" transform="rotate(180) translate(-30 -48)" onmousedown="handlePan(0,1)">
                  <use xlink:href="#rim" fill="#404040">
                        <set attributeName="fill" to="#808080" begin="arrowDown.mouseover" end="arrowDown.mouseout"/>
                  </use>
                  <path fill="none" stroke="white" stroke-width="1.5" d="M0,-3.0v7 M-2.5,-0.5L0,-3.0L2.5,-0.5"/>
                </g>
                <g id="arrowLeft" xlink:href="#dirArrow" transform="rotate(270) translate(-36 17)" onmousedown="handlePan(-1,0)">
                  <use xlink:href="#rim" fill="#404040">
                        <set attributeName="fill" to="#808080" begin="arrowLeft.mouseover" end="arrowLeft.mouseout"/>
                  </use>
                  <path fill="none" stroke="white" stroke-width="1.5" d="M0,-3.0v7 M-2.5,-0.5L0,-3.0L2.5,-0.5"/>
                </g>
        </g>
        <svg viewBox="0 0 15 15" width="100%" height="30px" preserveAspectRatio="xMaxYMin meet">
         <g id="arrow_out" transform="scale(0.3 0.3)">
          <a xlink:href="classJStudio_1_1stb_1_1TParse__coll__graph_org.svg" target="_base">
           <rect id="button" ry="5" rx="5" y="6" x="6" height="38" width="38"
                fill="#f2f5e9" fill-opacity="0.5" stroke="#606060" stroke-width="1.0"/>
           <path id="arrow"
             d="M 11.500037,31.436501 C 11.940474,20.09759 22.043105,11.32322 32.158766,21.979434 L 37.068811,17.246167 C 37.068811,17.246167 37.088388,32 37.088388,32 L 22.160133,31.978069 C 22.160133,31.978069 26.997745,27.140456 26.997745,27.140456 C 18.528582,18.264221 13.291696,25.230495 11.500037,31.436501 z"
             style="fill:#404040;"/>
          </a>
         </g>
        </svg>
</svg>
