<?xml version="1.0" encoding="UTF-8" standalone="no"?>
<!DOCTYPE svg PUBLIC "-//W3C//DTD SVG 1.1//EN"
 "http://www.w3.org/Graphics/SVG/1.1/DTD/svg11.dtd">
<!-- Generated by graphviz version 2.46.0 (20210122.1329)
 -->
<!-- Title: dBgS Pages: 1 -->
<svg width="195pt" height="251pt"
 viewBox="0.00 0.00 195.00 251.00" xmlns="http://www.w3.org/2000/svg" xmlns:xlink="http://www.w3.org/1999/xlink">
<g id="graph0" class="graph" transform="scale(1 1) rotate(0) translate(4 247)">
<title>dBgS</title>
<polygon fill="white" stroke="transparent" points="-4,4 -4,-247 191,-247 191,4 -4,4"/>
<!-- Node1 -->
<g id="node1" class="node">
<title>Node1</title>
<g id="a_node1"><a xlink:title=" ">
<polygon fill="#bfbfbf" stroke="black" points="46.5,-0.5 46.5,-19.5 87.5,-19.5 87.5,-0.5 46.5,-0.5"/>
<text text-anchor="middle" x="67" y="-7.5" font-family="Helvetica,sans-Serif" font-size="10.00">dBgS</text>
</a>
</g>
</g>
<!-- Node2 -->
<g id="node2" class="node">
<title>Node2</title>
<g id="a_node2"><a xlink:href="classdBgS__HIO.html" target="_top" xlink:title=" ">
<polygon fill="white" stroke="black" points="0,-67.5 0,-86.5 64,-86.5 64,-67.5 0,-67.5"/>
<text text-anchor="middle" x="32" y="-74.5" font-family="Helvetica,sans-Serif" font-size="10.00">dBgS_HIO</text>
</a>
</g>
</g>
<!-- Node2&#45;&gt;Node1 -->
<g id="edge1" class="edge">
<title>Node2&#45;&gt;Node1</title>
<path fill="none" stroke="#9a32cd" stroke-dasharray="5,2" d="M32.54,-56.95C33.34,-50.63 34.94,-43.75 38,-38 41.88,-30.71 48.49,-24.32 54.42,-19.59"/>
<polygon fill="#9a32cd" stroke="#9a32cd" points="29.01,-57.12 31.79,-67.35 36,-57.62 29.01,-57.12"/>
<text text-anchor="middle" x="59" y="-41" font-family="Helvetica,sans-Serif" font-size="10.00"> dbgs_hio</text>
</g>
<!-- Node3 -->
<g id="node3" class="node">
<title>Node3</title>
<g id="a_node3"><a xlink:href="classcXyz.html" target="_top" xlink:title=" ">
<polygon fill="white" stroke="black" points="9,-156.5 9,-175.5 47,-175.5 47,-156.5 9,-156.5"/>
<text text-anchor="middle" x="28" y="-163.5" font-family="Helvetica,sans-Serif" font-size="10.00">cXyz</text>
</a>
</g>
</g>
<!-- Node3&#45;&gt;Node2 -->
<g id="edge2" class="edge">
<title>Node3&#45;&gt;Node2</title>
<path fill="none" stroke="#9a32cd" stroke-dasharray="5,2" d="M28.86,-146.19C29.71,-127.74 30.97,-100.41 31.6,-86.62"/>
<polygon fill="#9a32cd" stroke="#9a32cd" points="25.36,-146.19 28.4,-156.34 32.35,-146.51 25.36,-146.19"/>
<text text-anchor="middle" x="54" y="-130" font-family="Helvetica,sans-Serif" font-size="10.00"> field_0x18</text>
<text text-anchor="middle" x="54" y="-119" font-family="Helvetica,sans-Serif" font-size="10.00">field_0x24</text>
<text text-anchor="middle" x="54" y="-108" font-family="Helvetica,sans-Serif" font-size="10.00">field_0xc</text>
</g>
<!-- Node4 -->
<g id="node4" class="node">
<title>Node4</title>
<g id="a_node4"><a xlink:href="structVec.html" target="_top" xlink:title=" ">
<polygon fill="white" stroke="black" points="11,-223.5 11,-242.5 45,-242.5 45,-223.5 11,-223.5"/>
<text text-anchor="middle" x="28" y="-230.5" font-family="Helvetica,sans-Serif" font-size="10.00">Vec</text>
</a>
</g>
</g>
<!-- Node4&#45;&gt;Node3 -->
<g id="edge3" class="edge">
<title>Node4&#45;&gt;Node3</title>
<path fill="none" stroke="midnightblue" d="M28,-213.04C28,-200.67 28,-185.12 28,-175.63"/>
<polygon fill="midnightblue" stroke="midnightblue" points="24.5,-213.23 28,-223.23 31.5,-213.23 24.5,-213.23"/>
</g>
<!-- Node5 -->
<g id="node5" class="node">
<title>Node5</title>
<g id="a_node5"><a xlink:href="classcBgS.html" target="_top" xlink:title=" ">
<polygon fill="white" stroke="black" points="83.5,-67.5 83.5,-86.5 124.5,-86.5 124.5,-67.5 83.5,-67.5"/>
<text text-anchor="middle" x="104" y="-74.5" font-family="Helvetica,sans-Serif" font-size="10.00">cBgS</text>
</a>
</g>
</g>
<!-- Node5&#45;&gt;Node1 -->
<g id="edge4" class="edge">
<title>Node5&#45;&gt;Node1</title>
<path fill="none" stroke="#9a32cd" stroke-dasharray="5,2" d="M94.06,-58.53C86.89,-45.95 77.53,-29.51 71.91,-19.63"/>
<polygon fill="#9a32cd" stroke="#9a32cd" points="91.02,-60.27 99.01,-67.23 97.1,-56.81 91.02,-60.27"/>
<text text-anchor="middle" x="100" y="-41" font-family="Helvetica,sans-Serif" font-size="10.00"> cbgs</text>
</g>
<!-- Node6 -->
<g id="node6" class="node">
<title>Node6</title>
<g id="a_node6"><a xlink:href="classcBgS__ChkElm.html" target="_top" xlink:title=" ">
<polygon fill="white" stroke="black" points="65,-156.5 65,-175.5 145,-175.5 145,-156.5 65,-156.5"/>
<text text-anchor="middle" x="105" y="-163.5" font-family="Helvetica,sans-Serif" font-size="10.00">cBgS_ChkElm</text>
</a>
</g>
</g>
<!-- Node6&#45;&gt;Node5 -->
<g id="edge5" class="edge">
<title>Node6&#45;&gt;Node5</title>
<path fill="none" stroke="#9a32cd" stroke-dasharray="5,2" d="M104.78,-146.19C104.57,-127.74 104.26,-100.41 104.1,-86.62"/>
<polygon fill="#9a32cd" stroke="#9a32cd" points="101.29,-146.38 104.9,-156.34 108.29,-146.3 101.29,-146.38"/>
<text text-anchor="middle" x="138.5" y="-119" font-family="Helvetica,sans-Serif" font-size="10.00"> cbgs_elements</text>
</g>
<!-- Node7 -->
<g id="node7" class="node">
<title>Node7</title>
<g id="a_node7"><a xlink:href="classdBgW__Base.html" target="_top" xlink:title=" ">
<polygon fill="white" stroke="black" points="69.5,-223.5 69.5,-242.5 140.5,-242.5 140.5,-223.5 69.5,-223.5"/>
<text text-anchor="middle" x="105" y="-230.5" font-family="Helvetica,sans-Serif" font-size="10.00">dBgW_Base</text>
</a>
</g>
</g>
<!-- Node7&#45;&gt;Node6 -->
<g id="edge6" class="edge">
<title>Node7&#45;&gt;Node6</title>
<path fill="none" stroke="#9a32cd" stroke-dasharray="5,2" d="M105,-213.04C105,-200.67 105,-185.12 105,-175.63"/>
<polygon fill="#9a32cd" stroke="#9a32cd" points="101.5,-213.23 105,-223.23 108.5,-213.23 101.5,-213.23"/>
<text text-anchor="middle" x="146" y="-197" font-family="Helvetica,sans-Serif" font-size="10.00"> bgw_base_pointer</text>
</g>
</g>
</svg>
