<?xml version="1.0" encoding="UTF-8" standalone="no"?>
<!DOCTYPE svg PUBLIC "-//W3C//DTD SVG 1.1//EN"
 "http://www.w3.org/Graphics/SVG/1.1/DTD/svg11.dtd">
<!-- Generated by graphviz version 2.46.0 (20210122.1329)
 -->
<!-- Title: JSULink&lt; T &gt; Pages: 1 -->
<svg width="168pt" height="108pt"
 viewBox="0.00 0.00 168.00 108.00" xmlns="http://www.w3.org/2000/svg" xmlns:xlink="http://www.w3.org/1999/xlink">
<g id="graph0" class="graph" transform="scale(1 1) rotate(0) translate(4 104)">
<title>JSULink&lt; T &gt;</title>
<polygon fill="white" stroke="transparent" points="-4,4 -4,-104 164,-104 164,4 -4,4"/>
<!-- Node1 -->
<g id="node1" class="node">
<title>Node1</title>
<g id="a_node1"><a xlink:title=" ">
<polygon fill="#bfbfbf" stroke="black" points="0,-0.5 0,-19.5 77,-19.5 77,-0.5 0,-0.5"/>
<text text-anchor="middle" x="38.5" y="-7.5" font-family="Helvetica,sans-Serif" font-size="10.00">JSULink&lt; T &gt;</text>
</a>
</g>
</g>
<!-- Node2 -->
<g id="node2" class="node">
<title>Node2</title>
<g id="a_node2"><a xlink:href="classJSUPtrLink.html" target="_top" xlink:title=" ">
<polygon fill="white" stroke="black" points="37.5,-79.5 37.5,-98.5 105.5,-98.5 105.5,-79.5 37.5,-79.5"/>
<text text-anchor="middle" x="71.5" y="-86.5" font-family="Helvetica,sans-Serif" font-size="10.00">JSUPtrLink</text>
</a>
</g>
</g>
<!-- Node2&#45;&gt;Node1 -->
<g id="edge1" class="edge">
<title>Node2&#45;&gt;Node1</title>
<path fill="none" stroke="midnightblue" d="M58.55,-70.73C56.33,-67.29 54.19,-63.62 52.5,-60 46.21,-46.53 42.14,-29.64 40.09,-19.62"/>
<polygon fill="midnightblue" stroke="midnightblue" points="55.8,-72.91 64.39,-79.11 61.54,-68.9 55.8,-72.91"/>
</g>
<!-- Node2&#45;&gt;Node2 -->
<g id="edge2" class="edge">
<title>Node2&#45;&gt;Node2</title>
<path fill="none" stroke="#9a32cd" stroke-dasharray="5,2" d="M115.65,-95.27C120.42,-94.07 123.5,-91.98 123.5,-89 123.5,-84.23 115.63,-81.74 105.51,-81.52"/>
<polygon fill="#9a32cd" stroke="#9a32cd" points="115.02,-91.82 105.51,-96.48 115.85,-98.77 115.02,-91.82"/>
<text text-anchor="middle" x="139" y="-92" font-family="Helvetica,sans-Serif" font-size="10.00"> mNext</text>
<text text-anchor="middle" x="139" y="-81" font-family="Helvetica,sans-Serif" font-size="10.00">mPrev</text>
</g>
<!-- Node3 -->
<g id="node3" class="node">
<title>Node3</title>
<g id="a_node3"><a xlink:href="classJSUPtrList.html" target="_top" xlink:title=" ">
<polygon fill="white" stroke="black" points="95,-0.5 95,-19.5 160,-19.5 160,-0.5 95,-0.5"/>
<text text-anchor="middle" x="127.5" y="-7.5" font-family="Helvetica,sans-Serif" font-size="10.00">JSUPtrList</text>
</a>
</g>
</g>
<!-- Node2&#45;&gt;Node3 -->
<g id="edge4" class="edge">
<title>Node2&#45;&gt;Node3</title>
<path fill="none" stroke="#9a32cd" stroke-dasharray="5,2" d="M65.4,-69.62C63.22,-59.54 62.57,-47.24 68.5,-38 74.53,-28.62 84.71,-22.45 94.95,-18.42"/>
<polygon fill="#9a32cd" stroke="#9a32cd" points="62.08,-70.75 68.13,-79.45 68.83,-68.88 62.08,-70.75"/>
<text text-anchor="middle" x="85.5" y="-52" font-family="Helvetica,sans-Serif" font-size="10.00"> mHead</text>
<text text-anchor="middle" x="85.5" y="-41" font-family="Helvetica,sans-Serif" font-size="10.00">mTail</text>
</g>
<!-- Node3&#45;&gt;Node2 -->
<g id="edge3" class="edge">
<title>Node3&#45;&gt;Node2</title>
<path fill="none" stroke="#9a32cd" stroke-dasharray="5,2" d="M122.12,-29.17C118.66,-38.92 113.5,-50.8 106.5,-60 100.66,-67.68 92.26,-74.49 85.16,-79.47"/>
<polygon fill="#9a32cd" stroke="#9a32cd" points="125.46,-30.23 125.21,-19.64 118.8,-28.07 125.46,-30.23"/>
<text text-anchor="middle" x="132.5" y="-46.5" font-family="Helvetica,sans-Serif" font-size="10.00"> mList</text>
</g>
</g>
</svg>
