<?xml version="1.0" encoding="UTF-8" standalone="no"?>
<!DOCTYPE svg PUBLIC "-//W3C//DTD SVG 1.1//EN"
 "http://www.w3.org/Graphics/SVG/1.1/DTD/svg11.dtd">
<!-- Generated by graphviz version 2.46.0 (20210122.1329)
 -->
<!-- Title: JKRExpHeap Pages: 1 -->
<svg width="566pt" height="364pt"
 viewBox="0.00 0.00 566.00 364.00" xmlns="http://www.w3.org/2000/svg" xmlns:xlink="http://www.w3.org/1999/xlink">
<g id="graph0" class="graph" transform="scale(1 1) rotate(0) translate(4 360)">
<title>JKRExpHeap</title>
<polygon fill="white" stroke="transparent" points="-4,4 -4,-360 562,-360 562,4 -4,4"/>
<!-- Node1 -->
<g id="node1" class="node">
<title>Node1</title>
<g id="a_node1"><a xlink:title=" ">
<polygon fill="#bfbfbf" stroke="black" points="313,-0.5 313,-19.5 387,-19.5 387,-0.5 313,-0.5"/>
<text text-anchor="middle" x="350" y="-7.5" font-family="Helvetica,sans-Serif" font-size="10.00">JKRExpHeap</text>
</a>
</g>
</g>
<!-- Node2 -->
<g id="node2" class="node">
<title>Node2</title>
<g id="a_node2"><a xlink:href="classJKRHeap.html" target="_top" xlink:title=" ">
<polygon fill="white" stroke="black" points="218.5,-107 218.5,-126 277.5,-126 277.5,-107 218.5,-107"/>
<text text-anchor="middle" x="248" y="-114" font-family="Helvetica,sans-Serif" font-size="10.00">JKRHeap</text>
</a>
</g>
</g>
<!-- Node2&#45;&gt;Node1 -->
<g id="edge1" class="edge">
<title>Node2&#45;&gt;Node1</title>
<path fill="none" stroke="midnightblue" d="M263.54,-99.57C285.39,-77.2 324.4,-37.22 341.54,-19.67"/>
<polygon fill="midnightblue" stroke="midnightblue" points="260.83,-97.35 256.35,-106.95 265.84,-102.24 260.83,-97.35"/>
</g>
<!-- Node2&#45;&gt;Node2 -->
<g id="edge9" class="edge">
<title>Node2&#45;&gt;Node2</title>
<path fill="none" stroke="#9a32cd" stroke-dasharray="5,2" d="M287.67,-122.95C292.41,-121.77 295.5,-119.62 295.5,-116.5 295.5,-111.5 287.58,-109 277.69,-109"/>
<polygon fill="#9a32cd" stroke="#9a32cd" points="287.26,-119.47 277.69,-124 288,-126.43 287.26,-119.47"/>
<text text-anchor="middle" x="327" y="-125" font-family="Helvetica,sans-Serif" font-size="10.00"> sCurrentHeap</text>
<text text-anchor="middle" x="327" y="-114" font-family="Helvetica,sans-Serif" font-size="10.00">sRootHeap</text>
<text text-anchor="middle" x="327" y="-103" font-family="Helvetica,sans-Serif" font-size="10.00">sSystemHeap</text>
</g>
<!-- Node3 -->
<g id="node3" class="node">
<title>Node3</title>
<g id="a_node3"><a xlink:href="classJKRDisposer.html" target="_top" xlink:title=" ">
<polygon fill="white" stroke="black" points="162,-0.5 162,-19.5 236,-19.5 236,-0.5 162,-0.5"/>
<text text-anchor="middle" x="199" y="-7.5" font-family="Helvetica,sans-Serif" font-size="10.00">JKRDisposer</text>
</a>
</g>
</g>
<!-- Node2&#45;&gt;Node3 -->
<g id="edge3" class="edge">
<title>Node2&#45;&gt;Node3</title>
<path fill="none" stroke="#9a32cd" stroke-dasharray="5,2" d="M216.29,-102.02C208.23,-96.98 200.57,-90.38 196,-82 185.01,-61.85 191.58,-33.5 195.99,-19.5"/>
<polygon fill="#9a32cd" stroke="#9a32cd" points="214.62,-105.1 225.06,-106.89 218.02,-98.98 214.62,-105.1"/>
<text text-anchor="middle" x="213" y="-57.5" font-family="Helvetica,sans-Serif" font-size="10.00"> mHeap</text>
</g>
<!-- Node3&#45;&gt;Node2 -->
<g id="edge2" class="edge">
<title>Node3&#45;&gt;Node2</title>
<path fill="none" stroke="midnightblue" d="M223.04,-25.67C227.25,-29.23 231.18,-33.36 234,-38 247.35,-59.96 248.64,-91.46 248.39,-106.65"/>
<polygon fill="midnightblue" stroke="midnightblue" points="224.92,-22.71 214.8,-19.57 220.75,-28.34 224.92,-22.71"/>
</g>
<!-- Node4 -->
<g id="node4" class="node">
<title>Node4</title>
<g id="a_node4"><a xlink:href="classJSULink.html" target="_top" xlink:title=" ">
<polygon fill="white" stroke="black" points="0,-218.5 0,-237.5 128,-237.5 128,-218.5 0,-218.5"/>
<text text-anchor="middle" x="64" y="-225.5" font-family="Helvetica,sans-Serif" font-size="10.00">JSULink&lt; JKRDisposer &gt;</text>
</a>
</g>
</g>
<!-- Node4&#45;&gt;Node3 -->
<g id="edge4" class="edge">
<title>Node4&#45;&gt;Node3</title>
<path fill="none" stroke="#9a32cd" stroke-dasharray="5,2" d="M70.33,-208.73C73.66,-199.85 78.09,-189.15 83,-180 118.02,-114.79 172.71,-43.98 191.99,-19.72"/>
<polygon fill="#9a32cd" stroke="#9a32cd" points="66.93,-207.84 66.83,-218.43 73.51,-210.21 66.93,-207.84"/>
<text text-anchor="middle" x="115" y="-154" font-family="Helvetica,sans-Serif" font-size="10.00"> mLink</text>
</g>
<!-- Node5 -->
<g id="node5" class="node">
<title>Node5</title>
<g id="a_node5"><a xlink:href="classJSUPtrLink.html" target="_top" xlink:title=" ">
<polygon fill="white" stroke="black" points="63,-335.5 63,-354.5 131,-354.5 131,-335.5 63,-335.5"/>
<text text-anchor="middle" x="97" y="-342.5" font-family="Helvetica,sans-Serif" font-size="10.00">JSUPtrLink</text>
</a>
</g>
</g>
<!-- Node5&#45;&gt;Node4 -->
<g id="edge5" class="edge">
<title>Node5&#45;&gt;Node4</title>
<path fill="none" stroke="midnightblue" d="M89.44,-325.74C88.22,-322.52 87.02,-319.18 86,-316 76.94,-287.82 69.21,-253.55 65.83,-237.75"/>
<polygon fill="midnightblue" stroke="midnightblue" points="86.29,-327.28 93.24,-335.28 92.79,-324.69 86.29,-327.28"/>
</g>
<!-- Node5&#45;&gt;Node5 -->
<g id="edge6" class="edge">
<title>Node5&#45;&gt;Node5</title>
<path fill="none" stroke="#9a32cd" stroke-dasharray="5,2" d="M141.15,-351.27C145.92,-350.07 149,-347.98 149,-345 149,-340.23 141.13,-337.74 131.01,-337.52"/>
<polygon fill="#9a32cd" stroke="#9a32cd" points="140.52,-347.82 131.01,-352.48 141.35,-354.77 140.52,-347.82"/>
<text text-anchor="middle" x="164.5" y="-348" font-family="Helvetica,sans-Serif" font-size="10.00"> mNext</text>
<text text-anchor="middle" x="164.5" y="-337" font-family="Helvetica,sans-Serif" font-size="10.00">mPrev</text>
</g>
<!-- Node6 -->
<g id="node6" class="node">
<title>Node6</title>
<g id="a_node6"><a xlink:href="classJSUPtrList.html" target="_top" xlink:title=" ">
<polygon fill="white" stroke="black" points="121.5,-256.5 121.5,-275.5 186.5,-275.5 186.5,-256.5 121.5,-256.5"/>
<text text-anchor="middle" x="154" y="-263.5" font-family="Helvetica,sans-Serif" font-size="10.00">JSUPtrList</text>
</a>
</g>
</g>
<!-- Node5&#45;&gt;Node6 -->
<g id="edge8" class="edge">
<title>Node5&#45;&gt;Node6</title>
<path fill="none" stroke="#9a32cd" stroke-dasharray="5,2" d="M90.88,-325.61C88.69,-315.52 88.04,-303.22 94,-294 100.2,-284.41 110.71,-278.19 121.22,-274.17"/>
<polygon fill="#9a32cd" stroke="#9a32cd" points="87.56,-326.75 93.62,-335.44 94.31,-324.87 87.56,-326.75"/>
<text text-anchor="middle" x="111" y="-308" font-family="Helvetica,sans-Serif" font-size="10.00"> mHead</text>
<text text-anchor="middle" x="111" y="-297" font-family="Helvetica,sans-Serif" font-size="10.00">mTail</text>
</g>
<!-- Node6&#45;&gt;Node5 -->
<g id="edge7" class="edge">
<title>Node6&#45;&gt;Node5</title>
<path fill="none" stroke="#9a32cd" stroke-dasharray="5,2" d="M148.21,-285.16C144.54,-294.92 139.13,-306.8 132,-316 126.09,-323.63 117.7,-330.44 110.61,-335.43"/>
<polygon fill="#9a32cd" stroke="#9a32cd" points="151.54,-286.23 151.51,-275.63 144.93,-283.94 151.54,-286.23"/>
<text text-anchor="middle" x="159" y="-302.5" font-family="Helvetica,sans-Serif" font-size="10.00"> mList</text>
</g>
<!-- Node9 -->
<g id="node9" class="node">
<title>Node9</title>
<g id="a_node9"><a xlink:href="classJSUList.html" target="_top" xlink:title=" ">
<polygon fill="white" stroke="black" points="92,-180.5 92,-199.5 218,-199.5 218,-180.5 92,-180.5"/>
<text text-anchor="middle" x="155" y="-187.5" font-family="Helvetica,sans-Serif" font-size="10.00">JSUList&lt; JKRDisposer &gt;</text>
</a>
</g>
</g>
<!-- Node6&#45;&gt;Node9 -->
<g id="edge13" class="edge">
<title>Node6&#45;&gt;Node9</title>
<path fill="none" stroke="midnightblue" d="M154.26,-246.07C154.46,-231.18 154.73,-211.11 154.88,-199.77"/>
<polygon fill="midnightblue" stroke="midnightblue" points="150.75,-246.17 154.12,-256.22 157.75,-246.27 150.75,-246.17"/>
</g>
<!-- Node7 -->
<g id="node7" class="node">
<title>Node7</title>
<g id="a_node7"><a xlink:href="classJSUTree.html" target="_top" xlink:title=" ">
<polygon fill="white" stroke="black" points="236,-180.5 236,-199.5 350,-199.5 350,-180.5 236,-180.5"/>
<text text-anchor="middle" x="293" y="-187.5" font-family="Helvetica,sans-Serif" font-size="10.00">JSUTree&lt; JKRHeap &gt;</text>
</a>
</g>
</g>
<!-- Node7&#45;&gt;Node2 -->
<g id="edge10" class="edge">
<title>Node7&#45;&gt;Node2</title>
<path fill="none" stroke="#9a32cd" stroke-dasharray="5,2" d="M282.15,-171.75C273.13,-157.43 260.67,-137.63 253.56,-126.34"/>
<polygon fill="#9a32cd" stroke="#9a32cd" points="279.19,-173.63 287.48,-180.23 285.12,-169.91 279.19,-173.63"/>
<text text-anchor="middle" x="302" y="-154" font-family="Helvetica,sans-Serif" font-size="10.00"> mChildTree</text>
</g>
<!-- Node8 -->
<g id="node8" class="node">
<title>Node8</title>
<g id="a_node8"><a xlink:href="structOSMutex.html" target="_top" xlink:title=" ">
<polygon fill="white" stroke="black" points="368.5,-180.5 368.5,-199.5 425.5,-199.5 425.5,-180.5 368.5,-180.5"/>
<text text-anchor="middle" x="397" y="-187.5" font-family="Helvetica,sans-Serif" font-size="10.00">OSMutex</text>
</a>
</g>
</g>
<!-- Node8&#45;&gt;Node2 -->
<g id="edge11" class="edge">
<title>Node8&#45;&gt;Node2</title>
<path fill="none" stroke="#9a32cd" stroke-dasharray="5,2" d="M374.69,-174.84C362.35,-167.3 346.6,-158.13 332,-151 312.39,-141.42 289.31,-132.37 272.31,-126.1"/>
<polygon fill="#9a32cd" stroke="#9a32cd" points="373.04,-177.94 383.38,-180.23 376.73,-171.99 373.04,-177.94"/>
<text text-anchor="middle" x="370.5" y="-154" font-family="Helvetica,sans-Serif" font-size="10.00"> mMutex</text>
</g>
<!-- Node9&#45;&gt;Node2 -->
<g id="edge12" class="edge">
<title>Node9&#45;&gt;Node2</title>
<path fill="none" stroke="#9a32cd" stroke-dasharray="5,2" d="M172.58,-173.51C180.77,-166.46 190.73,-158.12 200,-151 211.6,-142.08 225.34,-132.6 235.14,-126.01"/>
<polygon fill="#9a32cd" stroke="#9a32cd" points="170.04,-171.08 164.79,-180.28 174.64,-176.36 170.04,-171.08"/>
<text text-anchor="middle" x="233" y="-154" font-family="Helvetica,sans-Serif" font-size="10.00"> mDisposerList</text>
</g>
<!-- Node10 -->
<g id="node10" class="node">
<title>Node10</title>
<g id="a_node10"><a xlink:href="classJKRExpHeap_1_1CMemBlock.html" target="_top" xlink:title=" ">
<polygon fill="white" stroke="black" points="377,-107 377,-126 509,-126 509,-107 377,-107"/>
<text text-anchor="middle" x="443" y="-114" font-family="Helvetica,sans-Serif" font-size="10.00">JKRExpHeap::CMemBlock</text>
</a>
</g>
</g>
<!-- Node10&#45;&gt;Node1 -->
<g id="edge14" class="edge">
<title>Node10&#45;&gt;Node1</title>
<path fill="none" stroke="#9a32cd" stroke-dasharray="5,2" d="M428.56,-99.28C408.6,-76.85 373.27,-37.15 357.72,-19.67"/>
<polygon fill="#9a32cd" stroke="#9a32cd" points="426.13,-101.8 435.39,-106.95 431.36,-97.15 426.13,-101.8"/>
<text text-anchor="middle" x="448" y="-74" font-family="Helvetica,sans-Serif" font-size="10.00"> mHeadFreeList</text>
<text text-anchor="middle" x="448" y="-63" font-family="Helvetica,sans-Serif" font-size="10.00">mHeadUsedList</text>
<text text-anchor="middle" x="448" y="-52" font-family="Helvetica,sans-Serif" font-size="10.00">mTailFreeList</text>
<text text-anchor="middle" x="448" y="-41" font-family="Helvetica,sans-Serif" font-size="10.00">mTailUsedList</text>
</g>
<!-- Node10&#45;&gt;Node10 -->
<g id="edge15" class="edge">
<title>Node10&#45;&gt;Node10</title>
<path fill="none" stroke="#9a32cd" stroke-dasharray="5,2" d="M519.12,-121.82C524.03,-120.57 527,-118.8 527,-116.5 527,-112.91 519.77,-110.6 509.2,-109.59"/>
<polygon fill="#9a32cd" stroke="#9a32cd" points="518.52,-118.37 509.2,-123.41 519.63,-125.28 518.52,-118.37"/>
<text text-anchor="middle" x="542.5" y="-119.5" font-family="Helvetica,sans-Serif" font-size="10.00"> mNext</text>
<text text-anchor="middle" x="542.5" y="-108.5" font-family="Helvetica,sans-Serif" font-size="10.00">mPrev</text>
</g>
</g>
</svg>
