<?xml version="1.0" encoding="UTF-8" standalone="no"?>
<!DOCTYPE svg PUBLIC "-//W3C//DTD SVG 1.1//EN"
 "http://www.w3.org/Graphics/SVG/1.1/DTD/svg11.dtd">
<!-- Generated by graphviz version 2.46.1 (20210215.1649)
 -->
<!-- Title: JKRFile Pages: 1 -->
<svg width="399pt" height="331pt"
 viewBox="0.00 0.00 399.00 331.00" xmlns="http://www.w3.org/2000/svg" xmlns:xlink="http://www.w3.org/1999/xlink">
<g id="graph0" class="graph" transform="scale(1 1) rotate(0) translate(4 327)">
<title>JKRFile</title>
<polygon fill="white" stroke="transparent" points="-4,4 -4,-327 395,-327 395,4 -4,4"/>
<!-- Node1 -->
<g id="node1" class="node">
<title>Node1</title>
<g id="a_node1"><a xlink:title=" ">
<polygon fill="#bfbfbf" stroke="black" points="329.5,-7 329.5,-26 380.5,-26 380.5,-7 329.5,-7"/>
<text text-anchor="middle" x="355" y="-14" font-family="Helvetica,sans-Serif" font-size="10.00">JKRFile</text>
</a>
</g>
</g>
<!-- Node2 -->
<g id="node2" class="node">
<title>Node2</title>
<g id="a_node2"><a xlink:href="classJKRDisposer.html" target="_top" xlink:title=" ">
<polygon fill="white" stroke="black" points="258,-80.5 258,-99.5 332,-99.5 332,-80.5 258,-80.5"/>
<text text-anchor="middle" x="295" y="-87.5" font-family="Helvetica,sans-Serif" font-size="10.00">JKRDisposer</text>
</a>
</g>
</g>
<!-- Node2&#45;&gt;Node1 -->
<g id="edge1" class="edge">
<title>Node2&#45;&gt;Node1</title>
<path fill="none" stroke="midnightblue" d="M315.61,-73.96C319.95,-70.31 324.33,-66.22 328,-62 337.72,-50.81 346.07,-35.7 350.81,-26.28"/>
<polygon fill="midnightblue" stroke="midnightblue" points="313.14,-71.45 307.47,-80.39 317.49,-76.94 313.14,-71.45"/>
</g>
<!-- Node3 -->
<g id="node3" class="node">
<title>Node3</title>
<g id="a_node3"><a xlink:href="classJKRHeap.html" target="_top" xlink:title=" ">
<polygon fill="white" stroke="black" points="171.5,-7 171.5,-26 230.5,-26 230.5,-7 171.5,-7"/>
<text text-anchor="middle" x="201" y="-14" font-family="Helvetica,sans-Serif" font-size="10.00">JKRHeap</text>
</a>
</g>
</g>
<!-- Node2&#45;&gt;Node3 -->
<g id="edge3" class="edge">
<title>Node2&#45;&gt;Node3</title>
<path fill="none" stroke="midnightblue" d="M275.43,-74.12C256.34,-59.59 227.95,-38 212.33,-26.12"/>
<polygon fill="midnightblue" stroke="midnightblue" points="273.4,-76.96 283.47,-80.23 277.63,-71.39 273.4,-76.96"/>
</g>
<!-- Node3&#45;&gt;Node2 -->
<g id="edge2" class="edge">
<title>Node3&#45;&gt;Node2</title>
<path fill="none" stroke="#9a32cd" stroke-dasharray="5,2" d="M232.38,-30.2C243.66,-35.63 256.04,-42.66 266,-51 276.05,-59.42 284.74,-71.92 289.92,-80.26"/>
<polygon fill="#9a32cd" stroke="#9a32cd" points="233.79,-27 223.24,-26.02 230.88,-33.36 233.79,-27"/>
<text text-anchor="middle" x="294" y="-54" font-family="Helvetica,sans-Serif" font-size="10.00"> mHeap</text>
</g>
<!-- Node3&#45;&gt;Node3 -->
<g id="edge4" class="edge">
<title>Node3&#45;&gt;Node3</title>
<path fill="none" stroke="#9a32cd" stroke-dasharray="5,2" d="M240.67,-22.95C245.41,-21.77 248.5,-19.62 248.5,-16.5 248.5,-11.5 240.58,-9 230.69,-9"/>
<polygon fill="#9a32cd" stroke="#9a32cd" points="240.26,-19.47 230.69,-24 241,-26.43 240.26,-19.47"/>
<text text-anchor="middle" x="280" y="-25" font-family="Helvetica,sans-Serif" font-size="10.00"> sCurrentHeap</text>
<text text-anchor="middle" x="280" y="-14" font-family="Helvetica,sans-Serif" font-size="10.00">sRootHeap</text>
<text text-anchor="middle" x="280" y="-3" font-family="Helvetica,sans-Serif" font-size="10.00">sSystemHeap</text>
</g>
<!-- Node4 -->
<g id="node4" class="node">
<title>Node4</title>
<g id="a_node4"><a xlink:href="classJSUTree.html" target="_top" xlink:title=" ">
<polygon fill="white" stroke="black" points="0,-80.5 0,-99.5 114,-99.5 114,-80.5 0,-80.5"/>
<text text-anchor="middle" x="57" y="-87.5" font-family="Helvetica,sans-Serif" font-size="10.00">JSUTree&lt; JKRHeap &gt;</text>
</a>
</g>
</g>
<!-- Node4&#45;&gt;Node3 -->
<g id="edge5" class="edge">
<title>Node4&#45;&gt;Node3</title>
<path fill="none" stroke="#9a32cd" stroke-dasharray="5,2" d="M74.78,-73.71C84.2,-66.15 96.23,-57.32 108,-51 128.11,-40.2 152.42,-31.58 171.15,-25.79"/>
<polygon fill="#9a32cd" stroke="#9a32cd" points="72.42,-71.12 66.94,-80.19 76.88,-76.52 72.42,-71.12"/>
<text text-anchor="middle" x="134" y="-54" font-family="Helvetica,sans-Serif" font-size="10.00"> mChildTree</text>
</g>
<!-- Node5 -->
<g id="node5" class="node">
<title>Node5</title>
<g id="a_node5"><a xlink:href="structOSMutex.html" target="_top" xlink:title=" ">
<polygon fill="white" stroke="black" points="132.5,-80.5 132.5,-99.5 189.5,-99.5 189.5,-80.5 132.5,-80.5"/>
<text text-anchor="middle" x="161" y="-87.5" font-family="Helvetica,sans-Serif" font-size="10.00">OSMutex</text>
</a>
</g>
</g>
<!-- Node5&#45;&gt;Node3 -->
<g id="edge6" class="edge">
<title>Node5&#45;&gt;Node3</title>
<path fill="none" stroke="#9a32cd" stroke-dasharray="5,2" d="M161.63,-70C162.44,-63.68 164.02,-56.79 167,-51 172.15,-40.98 181.42,-32.15 188.99,-26.07"/>
<polygon fill="#9a32cd" stroke="#9a32cd" points="158.11,-70.14 160.85,-80.38 165.09,-70.67 158.11,-70.14"/>
<text text-anchor="middle" x="185.5" y="-54" font-family="Helvetica,sans-Serif" font-size="10.00"> mMutex</text>
</g>
<!-- Node6 -->
<g id="node6" class="node">
<title>Node6</title>
<g id="a_node6"><a xlink:href="classJSUList.html" target="_top" xlink:title=" ">
<polygon fill="white" stroke="black" points="157,-185.5 157,-204.5 283,-204.5 283,-185.5 157,-185.5"/>
<text text-anchor="middle" x="220" y="-192.5" font-family="Helvetica,sans-Serif" font-size="10.00">JSUList&lt; JKRDisposer &gt;</text>
</a>
</g>
</g>
<!-- Node6&#45;&gt;Node3 -->
<g id="edge7" class="edge">
<title>Node6&#45;&gt;Node3</title>
<path fill="none" stroke="#9a32cd" stroke-dasharray="5,2" d="M218,-175.4C213.95,-137.76 204.9,-53.76 201.95,-26.34"/>
<polygon fill="#9a32cd" stroke="#9a32cd" points="214.53,-175.92 219.08,-185.49 221.49,-175.17 214.53,-175.92"/>
<text text-anchor="middle" x="246" y="-121" font-family="Helvetica,sans-Serif" font-size="10.00"> mDisposerList</text>
</g>
<!-- Node7 -->
<g id="node7" class="node">
<title>Node7</title>
<g id="a_node7"><a xlink:href="classJSUPtrList.html" target="_top" xlink:title=" ">
<polygon fill="white" stroke="black" points="224.5,-303.5 224.5,-322.5 289.5,-322.5 289.5,-303.5 224.5,-303.5"/>
<text text-anchor="middle" x="257" y="-310.5" font-family="Helvetica,sans-Serif" font-size="10.00">JSUPtrList</text>
</a>
</g>
</g>
<!-- Node7&#45;&gt;Node6 -->
<g id="edge8" class="edge">
<title>Node7&#45;&gt;Node6</title>
<path fill="none" stroke="midnightblue" d="M249.29,-293.8C248.14,-290.87 247,-287.87 246,-285 235.88,-255.97 226.39,-220.72 222.22,-204.68"/>
<polygon fill="midnightblue" stroke="midnightblue" points="246.07,-295.17 253.1,-303.09 252.54,-292.51 246.07,-295.17"/>
</g>
<!-- Node8 -->
<g id="node8" class="node">
<title>Node8</title>
<g id="a_node8"><a xlink:href="classJSUPtrLink.html" target="_top" xlink:title=" ">
<polygon fill="white" stroke="black" points="274,-224.5 274,-243.5 342,-243.5 342,-224.5 274,-224.5"/>
<text text-anchor="middle" x="308" y="-231.5" font-family="Helvetica,sans-Serif" font-size="10.00">JSUPtrLink</text>
</a>
</g>
</g>
<!-- Node7&#45;&gt;Node8 -->
<g id="edge11" class="edge">
<title>Node7&#45;&gt;Node8</title>
<path fill="none" stroke="#9a32cd" stroke-dasharray="5,2" d="M251.03,-293.44C249.04,-283.72 248.53,-272 254,-263 259.43,-254.07 268.74,-247.86 278.11,-243.6"/>
<polygon fill="#9a32cd" stroke="#9a32cd" points="247.7,-294.56 253.66,-303.32 254.47,-292.75 247.7,-294.56"/>
<text text-anchor="middle" x="268" y="-271.5" font-family="Helvetica,sans-Serif" font-size="10.00"> mList</text>
</g>
<!-- Node8&#45;&gt;Node7 -->
<g id="edge9" class="edge">
<title>Node8&#45;&gt;Node7</title>
<path fill="none" stroke="#9a32cd" stroke-dasharray="5,2" d="M301.99,-253.32C298.26,-263.22 292.86,-275.35 286,-285 281.06,-291.95 274.1,-298.51 268.24,-303.41"/>
<polygon fill="#9a32cd" stroke="#9a32cd" points="305.37,-254.28 305.38,-243.69 298.76,-251.96 305.37,-254.28"/>
<text text-anchor="middle" x="315" y="-277" font-family="Helvetica,sans-Serif" font-size="10.00"> mHead</text>
<text text-anchor="middle" x="315" y="-266" font-family="Helvetica,sans-Serif" font-size="10.00">mTail</text>
</g>
<!-- Node8&#45;&gt;Node8 -->
<g id="edge10" class="edge">
<title>Node8&#45;&gt;Node8</title>
<path fill="none" stroke="#9a32cd" stroke-dasharray="5,2" d="M352.15,-239.96C356.92,-238.82 360,-236.83 360,-234 360,-229.47 352.13,-227.1 342.01,-226.89"/>
<polygon fill="#9a32cd" stroke="#9a32cd" points="351.55,-236.51 342.01,-241.11 352.34,-243.46 351.55,-236.51"/>
<text text-anchor="middle" x="375.5" y="-237" font-family="Helvetica,sans-Serif" font-size="10.00"> mNext</text>
<text text-anchor="middle" x="375.5" y="-226" font-family="Helvetica,sans-Serif" font-size="10.00">mPrev</text>
</g>
<!-- Node9 -->
<g id="node9" class="node">
<title>Node9</title>
<g id="a_node9"><a xlink:href="classJSULink.html" target="_top" xlink:title=" ">
<polygon fill="white" stroke="black" points="246,-147.5 246,-166.5 374,-166.5 374,-147.5 246,-147.5"/>
<text text-anchor="middle" x="310" y="-154.5" font-family="Helvetica,sans-Serif" font-size="10.00">JSULink&lt; JKRDisposer &gt;</text>
</a>
</g>
</g>
<!-- Node8&#45;&gt;Node9 -->
<g id="edge13" class="edge">
<title>Node8&#45;&gt;Node9</title>
<path fill="none" stroke="midnightblue" d="M308.51,-214.02C308.91,-198.74 309.47,-177.98 309.77,-166.5"/>
<polygon fill="midnightblue" stroke="midnightblue" points="305,-214.31 308.23,-224.4 311.99,-214.49 305,-214.31"/>
</g>
<!-- Node9&#45;&gt;Node2 -->
<g id="edge12" class="edge">
<title>Node9&#45;&gt;Node2</title>
<path fill="none" stroke="#9a32cd" stroke-dasharray="5,2" d="M305.71,-137.41C302.84,-124.99 299.2,-109.22 296.99,-99.63"/>
<polygon fill="#9a32cd" stroke="#9a32cd" points="302.32,-138.28 307.98,-147.23 309.14,-136.7 302.32,-138.28"/>
<text text-anchor="middle" x="319" y="-121" font-family="Helvetica,sans-Serif" font-size="10.00"> mLink</text>
</g>
</g>
</svg>
