<?xml version="1.0" encoding="UTF-8" standalone="no"?>
<!DOCTYPE svg PUBLIC "-//W3C//DTD SVG 1.1//EN"
 "http://www.w3.org/Graphics/SVG/1.1/DTD/svg11.dtd">
<!-- Generated by graphviz version 2.46.0 (20210122.1329)
 -->
<!-- Title: JAISound Pages: 1 -->
<svg width="279pt" height="162pt"
 viewBox="0.00 0.00 278.50 162.00" xmlns="http://www.w3.org/2000/svg" xmlns:xlink="http://www.w3.org/1999/xlink">
<g id="graph0" class="graph" transform="scale(1 1) rotate(0) translate(4 158)">
<title>JAISound</title>
<polygon fill="white" stroke="transparent" points="-4,4 -4,-158 274.5,-158 274.5,4 -4,4"/>
<!-- Node1 -->
<g id="node1" class="node">
<title>Node1</title>
<g id="a_node1"><a xlink:title=" ">
<polygon fill="#bfbfbf" stroke="black" points="116,-67.5 116,-86.5 175,-86.5 175,-67.5 116,-67.5"/>
<text text-anchor="middle" x="145.5" y="-74.5" font-family="Helvetica,sans-Serif" font-size="10.00">JAISound</text>
</a>
</g>
</g>
<!-- Node5 -->
<g id="node5" class="node">
<title>Node5</title>
<g id="a_node5"><a xlink:href="classJAISoundHandle.html" target="_top" xlink:title=" ">
<polygon fill="white" stroke="black" points="100.5,-0.5 100.5,-19.5 190.5,-19.5 190.5,-0.5 100.5,-0.5"/>
<text text-anchor="middle" x="145.5" y="-7.5" font-family="Helvetica,sans-Serif" font-size="10.00">JAISoundHandle</text>
</a>
</g>
</g>
<!-- Node1&#45;&gt;Node5 -->
<g id="edge5" class="edge">
<title>Node1&#45;&gt;Node5</title>
<path fill="none" stroke="#9a32cd" stroke-dasharray="5,2" d="M120.7,-61.49C112.9,-54.94 107.29,-46.73 111.5,-38 115.24,-30.26 122.39,-24.06 129.17,-19.56"/>
<polygon fill="#9a32cd" stroke="#9a32cd" points="118.79,-64.42 128.95,-67.43 122.88,-58.74 118.79,-64.42"/>
<text text-anchor="middle" x="131" y="-41" font-family="Helvetica,sans-Serif" font-size="10.00"> mSound</text>
</g>
<!-- Node2 -->
<g id="node2" class="node">
<title>Node2</title>
<g id="a_node2"><a xlink:href="structJAISoundParams.html" target="_top" xlink:title=" ">
<polygon fill="white" stroke="black" points="0,-134.5 0,-153.5 93,-153.5 93,-134.5 0,-134.5"/>
<text text-anchor="middle" x="46.5" y="-141.5" font-family="Helvetica,sans-Serif" font-size="10.00">JAISoundParams</text>
</a>
</g>
</g>
<!-- Node2&#45;&gt;Node1 -->
<g id="edge1" class="edge">
<title>Node2&#45;&gt;Node1</title>
<path fill="none" stroke="#9a32cd" stroke-dasharray="5,2" d="M68.44,-128.59C88.03,-115.74 116.06,-97.33 132.36,-86.63"/>
<polygon fill="#9a32cd" stroke="#9a32cd" points="66.29,-125.82 59.85,-134.23 70.13,-131.67 66.29,-125.82"/>
<text text-anchor="middle" x="120" y="-108" font-family="Helvetica,sans-Serif" font-size="10.00"> params</text>
</g>
<!-- Node3 -->
<g id="node3" class="node">
<title>Node3</title>
<g id="a_node3"><a xlink:href="classJAISoundID.html" target="_top" xlink:title=" ">
<polygon fill="white" stroke="black" points="111,-134.5 111,-153.5 180,-153.5 180,-134.5 111,-134.5"/>
<text text-anchor="middle" x="145.5" y="-141.5" font-family="Helvetica,sans-Serif" font-size="10.00">JAISoundID</text>
</a>
</g>
</g>
<!-- Node3&#45;&gt;Node1 -->
<g id="edge2" class="edge">
<title>Node3&#45;&gt;Node1</title>
<path fill="none" stroke="#9a32cd" stroke-dasharray="5,2" d="M145.5,-124.04C145.5,-111.67 145.5,-96.12 145.5,-86.63"/>
<polygon fill="#9a32cd" stroke="#9a32cd" points="142,-124.23 145.5,-134.23 149,-124.23 142,-124.23"/>
<text text-anchor="middle" x="166.5" y="-108" font-family="Helvetica,sans-Serif" font-size="10.00"> sound_id</text>
</g>
<!-- Node4 -->
<g id="node4" class="node">
<title>Node4</title>
<g id="a_node4"><a xlink:href="structJAIAudience.html" target="_top" xlink:title=" ">
<polygon fill="white" stroke="black" points="198.5,-134.5 198.5,-153.5 270.5,-153.5 270.5,-134.5 198.5,-134.5"/>
<text text-anchor="middle" x="234.5" y="-141.5" font-family="Helvetica,sans-Serif" font-size="10.00">JAIAudience</text>
</a>
</g>
</g>
<!-- Node4&#45;&gt;Node1 -->
<g id="edge3" class="edge">
<title>Node4&#45;&gt;Node1</title>
<path fill="none" stroke="#9a32cd" stroke-dasharray="5,2" d="M218.09,-127.15C210.32,-120.01 200.74,-111.7 191.5,-105 182.05,-98.15 170.76,-91.5 161.73,-86.52"/>
<polygon fill="#9a32cd" stroke="#9a32cd" points="216.02,-130.01 225.7,-134.31 220.81,-124.91 216.02,-130.01"/>
<text text-anchor="middle" x="225.5" y="-108" font-family="Helvetica,sans-Serif" font-size="10.00"> audience</text>
</g>
<!-- Node5&#45;&gt;Node1 -->
<g id="edge4" class="edge">
<title>Node5&#45;&gt;Node1</title>
<path fill="none" stroke="#9a32cd" stroke-dasharray="5,2" d="M152.8,-29.18C154.51,-35.43 155.56,-42.48 154.5,-49 153.49,-55.24 151.24,-61.99 149.24,-67.18"/>
<polygon fill="#9a32cd" stroke="#9a32cd" points="156.1,-28.02 149.57,-19.68 149.48,-30.28 156.1,-28.02"/>
<text text-anchor="middle" x="170" y="-41" font-family="Helvetica,sans-Serif" font-size="10.00"> handle</text>
</g>
</g>
</svg>
