<?xml version="1.0" encoding="UTF-8" standalone="no"?>
<!DOCTYPE svg PUBLIC "-//W3C//DTD SVG 1.1//EN"
 "http://www.w3.org/Graphics/SVG/1.1/DTD/svg11.dtd">
<!-- Generated by graphviz version 2.46.1 (20210215.1649)
 -->
<!-- Title: JStudio::object::TIDData Pages: 1 -->
<svg width="603pt" height="323pt"
 viewBox="0.00 0.00 603.00 323.00" xmlns="http://www.w3.org/2000/svg" xmlns:xlink="http://www.w3.org/1999/xlink">
<g id="graph0" class="graph" transform="scale(1 1) rotate(0) translate(4 319)">
<title>JStudio::object::TIDData</title>
<polygon fill="white" stroke="transparent" points="-4,4 -4,-319 599,-319 599,4 -4,4"/>
<!-- Node1 -->
<g id="node1" class="node">
<title>Node1</title>
<g id="a_node1"><a xlink:title=" ">
<polygon fill="#bfbfbf" stroke="black" points="0,-77 0,-96 121,-96 121,-77 0,-77"/>
<text text-anchor="middle" x="60.5" y="-84" font-family="Helvetica,sans-Serif" font-size="10.00">JStudio::object::TIDData</text>
</a>
</g>
</g>
<!-- Node2 -->
<g id="node2" class="node">
<title>Node2</title>
<g id="a_node2"><a xlink:href="structJStudio_1_1object_1_1TObject__ID.html" target="_top" xlink:title=" ">
<polygon fill="white" stroke="black" points="157,-77 157,-96 291,-96 291,-77 157,-77"/>
<text text-anchor="middle" x="224" y="-84" font-family="Helvetica,sans-Serif" font-size="10.00">JStudio::object::TObject_ID</text>
</a>
</g>
</g>
<!-- Node1&#45;&gt;Node2 -->
<g id="edge1" class="edge">
<title>Node1&#45;&gt;Node2</title>
<path fill="none" stroke="midnightblue" d="M131.36,-86.5C139.79,-86.5 148.39,-86.5 156.77,-86.5"/>
<polygon fill="midnightblue" stroke="midnightblue" points="131.18,-83 121.18,-86.5 131.18,-90 131.18,-83"/>
</g>
<!-- Node3 -->
<g id="node3" class="node">
<title>Node3</title>
<g id="a_node3"><a xlink:href="structJStudio_1_1fvb_1_1TObject.html" target="_top" xlink:title=" ">
<polygon fill="white" stroke="black" points="327,-148 327,-167 434,-167 434,-148 327,-148"/>
<text text-anchor="middle" x="380.5" y="-155" font-family="Helvetica,sans-Serif" font-size="10.00">JStudio::fvb::TObject</text>
</a>
</g>
</g>
<!-- Node2&#45;&gt;Node3 -->
<g id="edge2" class="edge">
<title>Node2&#45;&gt;Node3</title>
<path fill="none" stroke="midnightblue" d="M255.12,-100.34C285.56,-114.33 331.81,-135.59 358.5,-147.85"/>
<polygon fill="midnightblue" stroke="midnightblue" points="256.38,-97.07 245.84,-96.08 253.46,-103.43 256.38,-97.07"/>
</g>
<!-- Node10 -->
<g id="node10" class="node">
<title>Node10</title>
<g id="a_node10"><a xlink:href="classJStudio_1_1stb_1_1TObject.html" target="_top" xlink:title=" ">
<polygon fill="white" stroke="black" points="327,-58 327,-77 434,-77 434,-58 327,-58"/>
<text text-anchor="middle" x="380.5" y="-65" font-family="Helvetica,sans-Serif" font-size="10.00">JStudio::stb::TObject</text>
</a>
</g>
</g>
<!-- Node2&#45;&gt;Node10 -->
<g id="edge9" class="edge">
<title>Node2&#45;&gt;Node10</title>
<path fill="none" stroke="midnightblue" d="M301.41,-77.1C309.95,-76.05 318.5,-75 326.65,-74"/>
<polygon fill="midnightblue" stroke="midnightblue" points="300.92,-73.64 291.42,-78.33 301.77,-80.59 300.92,-73.64"/>
</g>
<!-- Node4 -->
<g id="node4" class="node">
<title>Node4</title>
<g id="a_node4"><a xlink:href="structJStudio_1_1fvb_1_1TObject__composite.html" target="_top" xlink:title=" ">
<polygon fill="white" stroke="black" points="479,-284.5 479,-314.5 586,-314.5 586,-284.5 479,-284.5"/>
<text text-anchor="start" x="487" y="-302.5" font-family="Helvetica,sans-Serif" font-size="10.00">JStudio::fvb::TObject</text>
<text text-anchor="middle" x="532.5" y="-291.5" font-family="Helvetica,sans-Serif" font-size="10.00">_composite</text>
</a>
</g>
</g>
<!-- Node3&#45;&gt;Node4 -->
<g id="edge3" class="edge">
<title>Node3&#45;&gt;Node4</title>
<path fill="none" stroke="midnightblue" d="M391.16,-176.25C405.27,-201.94 433.82,-248.01 470,-275.5 474.47,-278.9 479.49,-281.87 484.67,-284.46"/>
<polygon fill="midnightblue" stroke="midnightblue" points="394.12,-174.36 386.32,-167.19 387.95,-177.66 394.12,-174.36"/>
</g>
<!-- Node5 -->
<g id="node5" class="node">
<title>Node5</title>
<g id="a_node5"><a xlink:href="structJStudio_1_1fvb_1_1TObject__constant.html" target="_top" xlink:title=" ">
<polygon fill="white" stroke="black" points="479,-235.5 479,-265.5 586,-265.5 586,-235.5 479,-235.5"/>
<text text-anchor="start" x="487" y="-253.5" font-family="Helvetica,sans-Serif" font-size="10.00">JStudio::fvb::TObject</text>
<text text-anchor="middle" x="532.5" y="-242.5" font-family="Helvetica,sans-Serif" font-size="10.00">_constant</text>
</a>
</g>
</g>
<!-- Node3&#45;&gt;Node5 -->
<g id="edge4" class="edge">
<title>Node3&#45;&gt;Node5</title>
<path fill="none" stroke="midnightblue" d="M399.24,-173.86C416.36,-189.02 443.51,-211.43 470,-226.5 475.68,-229.73 481.88,-232.71 488.08,-235.39"/>
<polygon fill="midnightblue" stroke="midnightblue" points="401.46,-171.16 391.68,-167.07 396.78,-176.36 401.46,-171.16"/>
</g>
<!-- Node6 -->
<g id="node6" class="node">
<title>Node6</title>
<g id="a_node6"><a xlink:href="structJStudio_1_1fvb_1_1TObject__hermite.html" target="_top" xlink:title=" ">
<polygon fill="white" stroke="black" points="479,-186.5 479,-216.5 586,-216.5 586,-186.5 479,-186.5"/>
<text text-anchor="start" x="487" y="-204.5" font-family="Helvetica,sans-Serif" font-size="10.00">JStudio::fvb::TObject</text>
<text text-anchor="middle" x="532.5" y="-193.5" font-family="Helvetica,sans-Serif" font-size="10.00">_hermite</text>
</a>
</g>
</g>
<!-- Node3&#45;&gt;Node6 -->
<g id="edge5" class="edge">
<title>Node3&#45;&gt;Node6</title>
<path fill="none" stroke="midnightblue" d="M423.96,-169.96C441.44,-175.08 461.84,-181.06 480.14,-186.43"/>
<polygon fill="midnightblue" stroke="midnightblue" points="424.63,-166.5 414.05,-167.05 422.66,-173.22 424.63,-166.5"/>
</g>
<!-- Node7 -->
<g id="node7" class="node">
<title>Node7</title>
<g id="a_node7"><a xlink:href="structJStudio_1_1fvb_1_1TObject__list.html" target="_top" xlink:title=" ">
<polygon fill="white" stroke="black" points="470,-148 470,-167 595,-167 595,-148 470,-148"/>
<text text-anchor="middle" x="532.5" y="-155" font-family="Helvetica,sans-Serif" font-size="10.00">JStudio::fvb::TObject_list</text>
</a>
</g>
</g>
<!-- Node3&#45;&gt;Node7 -->
<g id="edge6" class="edge">
<title>Node3&#45;&gt;Node7</title>
<path fill="none" stroke="midnightblue" d="M444.49,-157.5C452.89,-157.5 461.49,-157.5 469.86,-157.5"/>
<polygon fill="midnightblue" stroke="midnightblue" points="444.38,-154 434.38,-157.5 444.38,-161 444.38,-154"/>
</g>
<!-- Node8 -->
<g id="node8" class="node">
<title>Node8</title>
<g id="a_node8"><a xlink:href="structJStudio_1_1fvb_1_1TObject__list__parameter.html" target="_top" xlink:title=" ">
<polygon fill="white" stroke="black" points="479,-98.5 479,-128.5 586,-128.5 586,-98.5 479,-98.5"/>
<text text-anchor="start" x="487" y="-116.5" font-family="Helvetica,sans-Serif" font-size="10.00">JStudio::fvb::TObject</text>
<text text-anchor="middle" x="532.5" y="-105.5" font-family="Helvetica,sans-Serif" font-size="10.00">_list_parameter</text>
</a>
</g>
</g>
<!-- Node3&#45;&gt;Node8 -->
<g id="edge7" class="edge">
<title>Node3&#45;&gt;Node8</title>
<path fill="none" stroke="midnightblue" d="M423.96,-145.04C441.44,-139.92 461.84,-133.94 480.14,-128.57"/>
<polygon fill="midnightblue" stroke="midnightblue" points="422.66,-141.78 414.05,-147.95 424.63,-148.5 422.66,-141.78"/>
</g>
<!-- Node9 -->
<g id="node9" class="node">
<title>Node9</title>
<g id="a_node9"><a xlink:href="structJStudio_1_1fvb_1_1TObject__transition.html" target="_top" xlink:title=" ">
<polygon fill="white" stroke="black" points="479,-49.5 479,-79.5 586,-79.5 586,-49.5 479,-49.5"/>
<text text-anchor="start" x="487" y="-67.5" font-family="Helvetica,sans-Serif" font-size="10.00">JStudio::fvb::TObject</text>
<text text-anchor="middle" x="532.5" y="-56.5" font-family="Helvetica,sans-Serif" font-size="10.00">_transition</text>
</a>
</g>
</g>
<!-- Node3&#45;&gt;Node9 -->
<g id="edge8" class="edge">
<title>Node3&#45;&gt;Node9</title>
<path fill="none" stroke="midnightblue" d="M399.61,-141.23C416.81,-126.37 443.85,-104.49 470,-89.5 476.3,-85.89 483.22,-82.54 490.08,-79.54"/>
<polygon fill="midnightblue" stroke="midnightblue" points="397.21,-138.68 392,-147.9 401.83,-143.94 397.21,-138.68"/>
</g>
<!-- Node11 -->
<g id="node11" class="node">
<title>Node11</title>
<g id="a_node11"><a xlink:href="classJStudio_1_1stb_1_1TObject__control.html" target="_top" xlink:title=" ">
<polygon fill="white" stroke="black" points="479,-0.5 479,-30.5 586,-30.5 586,-0.5 479,-0.5"/>
<text text-anchor="start" x="487" y="-18.5" font-family="Helvetica,sans-Serif" font-size="10.00">JStudio::stb::TObject</text>
<text text-anchor="middle" x="532.5" y="-7.5" font-family="Helvetica,sans-Serif" font-size="10.00">_control</text>
</a>
</g>
</g>
<!-- Node10&#45;&gt;Node11 -->
<g id="edge10" class="edge">
<title>Node10&#45;&gt;Node11</title>
<path fill="none" stroke="midnightblue" d="M418.55,-54.66C439.56,-47.37 465.97,-38.22 487.97,-30.59"/>
<polygon fill="midnightblue" stroke="midnightblue" points="417.31,-51.38 409.01,-57.96 419.61,-57.99 417.31,-51.38"/>
</g>
</g>
</svg>
