<?xml version="1.0" encoding="UTF-8" standalone="no"?>
<!DOCTYPE svg PUBLIC "-//W3C//DTD SVG 1.1//EN"
 "http://www.w3.org/Graphics/SVG/1.1/DTD/svg11.dtd">
<!-- Generated by graphviz version 2.46.0 (20210122.1329)
 -->
<!-- Title: cM3dGCps Pages: 1 -->
<svg width="73pt" height="220pt"
 viewBox="0.00 0.00 73.00 220.00" xmlns="http://www.w3.org/2000/svg" xmlns:xlink="http://www.w3.org/1999/xlink">
<g id="graph0" class="graph" transform="scale(1 1) rotate(0) translate(4 216)">
<title>cM3dGCps</title>
<polygon fill="white" stroke="transparent" points="-4,4 -4,-216 69,-216 69,4 -4,4"/>
<!-- Node1 -->
<g id="node1" class="node">
<title>Node1</title>
<g id="a_node1"><a xlink:title=" ">
<polygon fill="#bfbfbf" stroke="black" points="0,-0.5 0,-19.5 65,-19.5 65,-0.5 0,-0.5"/>
<text text-anchor="middle" x="32.5" y="-7.5" font-family="Helvetica,sans-Serif" font-size="10.00">cM3dGCps</text>
</a>
</g>
</g>
<!-- Node2 -->
<g id="node2" class="node">
<title>Node2</title>
<g id="a_node2"><a xlink:href="classcM3dGLin.html" target="_top" xlink:title=" ">
<polygon fill="white" stroke="black" points="1.5,-57.5 1.5,-76.5 63.5,-76.5 63.5,-57.5 1.5,-57.5"/>
<text text-anchor="middle" x="32.5" y="-64.5" font-family="Helvetica,sans-Serif" font-size="10.00">cM3dGLin</text>
</a>
</g>
</g>
<!-- Node2&#45;&gt;Node1 -->
<g id="edge1" class="edge">
<title>Node2&#45;&gt;Node1</title>
<path fill="none" stroke="midnightblue" d="M32.5,-47.12C32.5,-37.82 32.5,-27.06 32.5,-19.71"/>
<polygon fill="midnightblue" stroke="midnightblue" points="29,-47.41 32.5,-57.41 36,-47.41 29,-47.41"/>
</g>
<!-- Node3 -->
<g id="node3" class="node">
<title>Node3</title>
<g id="a_node3"><a xlink:href="classcXyz.html" target="_top" xlink:title=" ">
<polygon fill="white" stroke="black" points="13.5,-135.5 13.5,-154.5 51.5,-154.5 51.5,-135.5 13.5,-135.5"/>
<text text-anchor="middle" x="32.5" y="-142.5" font-family="Helvetica,sans-Serif" font-size="10.00">cXyz</text>
</a>
</g>
</g>
<!-- Node3&#45;&gt;Node2 -->
<g id="edge2" class="edge">
<title>Node3&#45;&gt;Node2</title>
<path fill="none" stroke="#9a32cd" stroke-dasharray="5,2" d="M32.5,-125.22C32.5,-109.7 32.5,-88.36 32.5,-76.62"/>
<polygon fill="#9a32cd" stroke="#9a32cd" points="29,-125.28 32.5,-135.28 36,-125.28 29,-125.28"/>
<text text-anchor="middle" x="47.5" y="-109" font-family="Helvetica,sans-Serif" font-size="10.00"> mEnd</text>
<text text-anchor="middle" x="47.5" y="-98" font-family="Helvetica,sans-Serif" font-size="10.00">mStart</text>
</g>
<!-- Node4 -->
<g id="node4" class="node">
<title>Node4</title>
<g id="a_node4"><a xlink:href="structVec.html" target="_top" xlink:title=" ">
<polygon fill="white" stroke="black" points="15.5,-192.5 15.5,-211.5 49.5,-211.5 49.5,-192.5 15.5,-192.5"/>
<text text-anchor="middle" x="32.5" y="-199.5" font-family="Helvetica,sans-Serif" font-size="10.00">Vec</text>
</a>
</g>
</g>
<!-- Node4&#45;&gt;Node3 -->
<g id="edge3" class="edge">
<title>Node4&#45;&gt;Node3</title>
<path fill="none" stroke="midnightblue" d="M32.5,-182.12C32.5,-172.82 32.5,-162.06 32.5,-154.71"/>
<polygon fill="midnightblue" stroke="midnightblue" points="29,-182.41 32.5,-192.41 36,-182.41 29,-182.41"/>
</g>
</g>
</svg>
