<?xml version="1.0" encoding="UTF-8" standalone="no"?>
<!DOCTYPE svg PUBLIC "-//W3C//DTD SVG 1.1//EN"
 "http://www.w3.org/Graphics/SVG/1.1/DTD/svg11.dtd">
<!-- Generated by graphviz version 2.46.0 (20210122.1329)
 -->
<!-- Title: src/d/d_a/d_a_horse_static.cpp Pages: 1 -->
<!--zoomable 486 -->
<svg id="main" version="1.1" xmlns="http://www.w3.org/2000/svg" xmlns:xlink="http://www.w3.org/1999/xlink" xml:space="preserve" onload="init(evt)">
<style type="text/css"><![CDATA[
.edge:hover path { stroke: red; }
.edge:hover polygon { stroke: red; fill: red; }
]]></style>
<script type="text/javascript"><![CDATA[
var edges = document.getElementsByTagName('g');
if (edges && edges.length) {
  for (var i=0;i<edges.length;i++) {
    if (edges[i].id.substr(0,4)=='edge') {
      edges[i].setAttribute('class','edge');
    }
  }
}
]]></script>
        <defs>
                <circle id="rim" cx="0" cy="0" r="7"/>
                <circle id="rim2" cx="0" cy="0" r="3.5"/>
                <g id="zoomPlus">
                        <use xlink:href="#rim" fill="#404040">
                                <set attributeName="fill" to="#808080" begin="zoomplus.mouseover" end="zoomplus.mouseout"/>
                        </use>
                        <path d="M-4,0h8M0,-4v8" fill="none" stroke="white" stroke-width="1.5" pointer-events="none"/>
                </g>
                <g id="zoomMin">
                        <use xlink:href="#rim" fill="#404040">
                                <set attributeName="fill" to="#808080" begin="zoomminus.mouseover" end="zoomminus.mouseout"/>
                        </use>
                        <path d="M-4,0h8" fill="none" stroke="white" stroke-width="1.5" pointer-events="none"/>
                </g>
                <g id="dirArrow">
                        <path fill="none" stroke="white" stroke-width="1.5" d="M0,-3.0v7 M-2.5,-0.5L0,-3.0L2.5,-0.5"/>
                </g>
               <g id="resetDef">
                       <use xlink:href="#rim2" fill="#404040">
                               <set attributeName="fill" to="#808080" begin="reset.mouseover" end="reset.mouseout"/>
                       </use>
               </g>
        </defs>

<script type="text/javascript">
var viewWidth = 1033;
var viewHeight = 486;
var sectionId = 'dynsection-0';
</script>
<script xlink:href="svgpan.js"/>
<svg id="graph" class="graph">
<g id="viewport">
<title>src/d/d_a/d_a_horse_static.cpp</title>
<polygon fill="white" stroke="transparent" points="-4,4 -4,-482 1029,-482 1029,4 -4,4"/>
<!-- Node1 -->
<g id="node1" class="node">
<title>Node1</title>
<g id="a_node1"><a xlink:title=" ">
<polygon fill="#bfbfbf" stroke="black" points="641.5,-447.5 641.5,-477.5 746.5,-477.5 746.5,-447.5 641.5,-447.5"/>
<text text-anchor="start" x="649.5" y="-465.5" font-family="Helvetica,sans-Serif" font-size="10.00">src/d/d_a/d_a_horse</text>
<text text-anchor="middle" x="694" y="-454.5" font-family="Helvetica,sans-Serif" font-size="10.00">_static.cpp</text>
</a>
</g>
</g>
<!-- Node2 -->
<g id="node2" class="node">
<title>Node2</title>
<g id="a_node2"><a xlink:href="d__a__horse__static_8h.html" target="_top" xlink:title=" ">
<polygon fill="white" stroke="black" points="0,-257.5 0,-287.5 118,-287.5 118,-257.5 0,-257.5"/>
<text text-anchor="start" x="8" y="-275.5" font-family="Helvetica,sans-Serif" font-size="10.00">d/d_a/d_a_horse_static</text>
<text text-anchor="middle" x="59" y="-264.5" font-family="Helvetica,sans-Serif" font-size="10.00">/d_a_horse_static.h</text>
</a>
</g>
</g>
<!-- Node1&#45;&gt;Node2 -->
<g id="edge1" class="edge">
<title>Node1&#45;&gt;Node2</title>
<path fill="none" stroke="midnightblue" d="M641.43,-458.13C541.05,-450.03 317.02,-423.77 148,-344 122.26,-331.85 97.25,-310.98 80.33,-295.09"/>
<polygon fill="midnightblue" stroke="midnightblue" points="82.33,-292.17 72.7,-287.75 77.48,-297.21 82.33,-292.17"/>
</g>
<!-- Node4 -->
<g id="node4" class="node">
<title>Node4</title>
<g id="a_node4"><a xlink:href="Z2Creature_8h.html" target="_top" xlink:title=" ">
<polygon fill="white" stroke="black" points="635.5,-380.5 635.5,-410.5 752.5,-410.5 752.5,-380.5 635.5,-380.5"/>
<text text-anchor="start" x="643.5" y="-398.5" font-family="Helvetica,sans-Serif" font-size="10.00">Z2AudioLib/Z2Creature</text>
<text text-anchor="middle" x="694" y="-387.5" font-family="Helvetica,sans-Serif" font-size="10.00">/Z2Creature.h</text>
</a>
</g>
</g>
<!-- Node1&#45;&gt;Node4 -->
<g id="edge3" class="edge">
<title>Node1&#45;&gt;Node4</title>
<path fill="none" stroke="midnightblue" d="M694,-447.4C694,-439.64 694,-429.81 694,-420.86"/>
<polygon fill="midnightblue" stroke="midnightblue" points="697.5,-420.58 694,-410.58 690.5,-420.58 697.5,-420.58"/>
</g>
<!-- Node5 -->
<g id="node5" class="node">
<title>Node5</title>
<g id="a_node5"><a xlink:href="global_8h.html" target="_top" xlink:title=" ">
<polygon fill="white" stroke="black" points="567,-386 567,-405 617,-405 617,-386 567,-386"/>
<text text-anchor="middle" x="592" y="-393" font-family="Helvetica,sans-Serif" font-size="10.00">global.h</text>
</a>
</g>
</g>
<!-- Node1&#45;&gt;Node5 -->
<g id="edge4" class="edge">
<title>Node1&#45;&gt;Node5</title>
<path fill="none" stroke="midnightblue" d="M671.87,-447.4C654.76,-436.5 631.2,-421.48 614.1,-410.58"/>
<polygon fill="midnightblue" stroke="midnightblue" points="615.66,-407.43 605.35,-405.01 611.9,-413.33 615.66,-407.43"/>
</g>
<!-- Node20 -->
<g id="node20" class="node">
<title>Node20</title>
<g id="a_node20"><a xlink:title=" ">
<polygon fill="white" stroke="#bfbfbf" points="771,-380.5 771,-410.5 889,-410.5 889,-380.5 771,-380.5"/>
<text text-anchor="start" x="779" y="-398.5" font-family="Helvetica,sans-Serif" font-size="10.00">d/d_a/d_a_horse_static</text>
<text text-anchor="middle" x="830" y="-387.5" font-family="Helvetica,sans-Serif" font-size="10.00">/asm/func_80037CB0.s</text>
</a>
</g>
</g>
<!-- Node1&#45;&gt;Node20 -->
<g id="edge34" class="edge">
<title>Node1&#45;&gt;Node20</title>
<path fill="none" stroke="midnightblue" d="M723.51,-447.4C743.38,-437.9 769.79,-425.28 791.34,-414.98"/>
<polygon fill="midnightblue" stroke="midnightblue" points="793.03,-418.05 800.55,-410.58 790.02,-411.73 793.03,-418.05"/>
</g>
<!-- Node21 -->
<g id="node21" class="node">
<title>Node21</title>
<g id="a_node21"><a xlink:title=" ">
<polygon fill="white" stroke="#bfbfbf" points="907,-380.5 907,-410.5 1025,-410.5 1025,-380.5 907,-380.5"/>
<text text-anchor="start" x="915" y="-398.5" font-family="Helvetica,sans-Serif" font-size="10.00">d/d_a/d_a_horse_static</text>
<text text-anchor="middle" x="966" y="-387.5" font-family="Helvetica,sans-Serif" font-size="10.00">/asm/func_80037CF4.s</text>
</a>
</g>
</g>
<!-- Node1&#45;&gt;Node21 -->
<g id="edge35" class="edge">
<title>Node1&#45;&gt;Node21</title>
<path fill="none" stroke="midnightblue" d="M746.77,-448.89C789.75,-438.62 850.75,-424.04 897.5,-412.87"/>
<polygon fill="midnightblue" stroke="midnightblue" points="898.33,-416.27 907.25,-410.54 896.71,-409.46 898.33,-416.27"/>
</g>
<!-- Node3 -->
<g id="node3" class="node">
<title>Node3</title>
<g id="a_node3"><a xlink:href="types_8h.html" target="_top" xlink:title=" ">
<polygon fill="white" stroke="black" points="347.5,-0.5 347.5,-19.5 428.5,-19.5 428.5,-0.5 347.5,-0.5"/>
<text text-anchor="middle" x="388" y="-7.5" font-family="Helvetica,sans-Serif" font-size="10.00">dolphin/types.h</text>
</a>
</g>
</g>
<!-- Node2&#45;&gt;Node3 -->
<g id="edge2" class="edge">
<title>Node2&#45;&gt;Node3</title>
<path fill="none" stroke="midnightblue" d="M53.99,-257.46C41.43,-219.51 13.2,-113.87 65,-56 100.22,-16.66 255.58,-10.76 337.32,-10.45"/>
<polygon fill="midnightblue" stroke="midnightblue" points="337.39,-13.95 347.39,-10.44 337.39,-6.95 337.39,-13.95"/>
</g>
<!-- Node5&#45;&gt;Node3 -->
<g id="edge5" class="edge">
<title>Node5&#45;&gt;Node3</title>
<path fill="none" stroke="midnightblue" d="M614.56,-385.93C632.52,-377.89 656.77,-364.07 670,-344 708.01,-286.32 722.08,-251.69 691,-190 640.78,-90.34 507.97,-41.77 435.99,-22.12"/>
<polygon fill="midnightblue" stroke="midnightblue" points="436.82,-18.72 426.25,-19.53 435.02,-25.48 436.82,-18.72"/>
</g>
<!-- Node6 -->
<g id="node6" class="node">
<title>Node6</title>
<g id="a_node6"><a xlink:href="AR_8h.html" target="_top" xlink:title=" ">
<polygon fill="white" stroke="black" points="726.5,-62 726.5,-81 775.5,-81 775.5,-62 726.5,-62"/>
<text text-anchor="middle" x="751" y="-69" font-family="Helvetica,sans-Serif" font-size="10.00">ar/AR.h</text>
</a>
</g>
</g>
<!-- Node5&#45;&gt;Node6 -->
<g id="edge6" class="edge">
<title>Node5&#45;&gt;Node6</title>
<path fill="none" stroke="midnightblue" d="M612.31,-385.94C617.11,-383.95 622.22,-381.87 627,-380 669.8,-363.2 691.93,-376.96 724,-344 747.08,-320.28 748,-306.6 748,-273.5 748,-273.5 748,-273.5 748,-204.5 748,-164.15 749.42,-116.87 750.3,-91.28"/>
<polygon fill="midnightblue" stroke="midnightblue" points="753.81,-91.27 750.67,-81.15 746.81,-91.02 753.81,-91.27"/>
</g>
<!-- Node7 -->
<g id="node7" class="node">
<title>Node7</title>
<g id="a_node7"><a xlink:href="ARQ_8h.html" target="_top" xlink:title=" ">
<polygon fill="white" stroke="black" points="776,-129 776,-148 832,-148 832,-129 776,-129"/>
<text text-anchor="middle" x="804" y="-136" font-family="Helvetica,sans-Serif" font-size="10.00">ar/ARQ.h</text>
</a>
</g>
</g>
<!-- Node5&#45;&gt;Node7 -->
<g id="edge8" class="edge">
<title>Node5&#45;&gt;Node7</title>
<path fill="none" stroke="midnightblue" d="M611.45,-385.91C616.47,-383.84 621.89,-381.73 627,-380 685.81,-360.07 719.38,-389.16 762,-344 811.13,-291.93 809.45,-198.49 806.12,-158.5"/>
<polygon fill="midnightblue" stroke="midnightblue" points="809.58,-157.93 805.13,-148.31 802.61,-158.6 809.58,-157.93"/>
</g>
<!-- Node8 -->
<g id="node8" class="node">
<title>Node8</title>
<g id="a_node8"><a xlink:href="mwcc_8h.html" target="_top" xlink:title=" ">
<polygon fill="white" stroke="black" points="594,-324.5 594,-343.5 644,-343.5 644,-324.5 594,-324.5"/>
<text text-anchor="middle" x="619" y="-331.5" font-family="Helvetica,sans-Serif" font-size="10.00">mwcc.h</text>
</a>
</g>
</g>
<!-- Node5&#45;&gt;Node8 -->
<g id="edge10" class="edge">
<title>Node5&#45;&gt;Node8</title>
<path fill="none" stroke="midnightblue" d="M595.87,-385.98C599.8,-377.32 606,-363.65 610.99,-352.65"/>
<polygon fill="midnightblue" stroke="midnightblue" points="614.19,-354.06 615.14,-343.51 607.82,-351.17 614.19,-354.06"/>
</g>
<!-- Node9 -->
<g id="node9" class="node">
<title>Node9</title>
<g id="a_node9"><a xlink:href="OS_8h.html" target="_top" xlink:title=" ">
<polygon fill="white" stroke="black" points="78,-129 78,-148 130,-148 130,-129 78,-129"/>
<text text-anchor="middle" x="104" y="-136" font-family="Helvetica,sans-Serif" font-size="10.00">os/OS.h</text>
</a>
</g>
</g>
<!-- Node5&#45;&gt;Node9 -->
<g id="edge11" class="edge">
<title>Node5&#45;&gt;Node9</title>
<path fill="none" stroke="midnightblue" d="M566.78,-390.25C529.07,-383.39 456.18,-368.14 398,-344 298.45,-302.69 274.92,-286.07 189,-221 162.25,-200.74 134.86,-172.96 118.65,-155.62"/>
<polygon fill="midnightblue" stroke="midnightblue" points="120.99,-153.01 111.64,-148.03 115.85,-157.76 120.99,-153.01"/>
</g>
<!-- Node11 -->
<g id="node11" class="node">
<title>Node11</title>
<g id="a_node11"><a xlink:href="variables_8h.html" target="_top" xlink:title=" ">
<polygon fill="white" stroke="black" points="449.5,-324.5 449.5,-343.5 512.5,-343.5 512.5,-324.5 449.5,-324.5"/>
<text text-anchor="middle" x="481" y="-331.5" font-family="Helvetica,sans-Serif" font-size="10.00">variables.h</text>
</a>
</g>
</g>
<!-- Node5&#45;&gt;Node11 -->
<g id="edge15" class="edge">
<title>Node5&#45;&gt;Node11</title>
<path fill="none" stroke="midnightblue" d="M576.1,-385.98C557.72,-376.12 527.24,-359.79 505.76,-348.27"/>
<polygon fill="midnightblue" stroke="midnightblue" points="507.34,-345.15 496.87,-343.51 504.03,-351.32 507.34,-345.15"/>
</g>
<!-- Node6&#45;&gt;Node3 -->
<g id="edge7" class="edge">
<title>Node6&#45;&gt;Node3</title>
<path fill="none" stroke="midnightblue" d="M730.62,-61.97C724.7,-59.75 718.16,-57.55 712,-56 617.19,-32.1 503.37,-19.99 438.98,-14.63"/>
<polygon fill="midnightblue" stroke="midnightblue" points="438.95,-11.11 428.7,-13.79 438.38,-18.09 438.95,-11.11"/>
</g>
<!-- Node7&#45;&gt;Node3 -->
<g id="edge9" class="edge">
<title>Node7&#45;&gt;Node3</title>
<path fill="none" stroke="midnightblue" d="M804.9,-128.77C806.11,-111.88 806.05,-74.74 785,-56 759.58,-33.37 539.8,-18.99 438.61,-13.51"/>
<polygon fill="midnightblue" stroke="midnightblue" points="438.79,-10.02 428.62,-12.98 438.42,-17.01 438.79,-10.02"/>
</g>
<!-- Node9&#45;&gt;Node3 -->
<g id="edge12" class="edge">
<title>Node9&#45;&gt;Node3</title>
<path fill="none" stroke="midnightblue" d="M110.09,-128.76C122.36,-111.86 151.84,-74.69 186,-56 233.31,-30.1 294.6,-19.11 337.2,-14.44"/>
<polygon fill="midnightblue" stroke="midnightblue" points="337.75,-17.9 347.34,-13.41 337.04,-10.94 337.75,-17.9"/>
</g>
<!-- Node10 -->
<g id="node10" class="node">
<title>Node10</title>
<g id="a_node10"><a xlink:href="dvd_8h.html" target="_top" xlink:title=" ">
<polygon fill="white" stroke="black" points="74.5,-62 74.5,-81 133.5,-81 133.5,-62 74.5,-62"/>
<text text-anchor="middle" x="104" y="-69" font-family="Helvetica,sans-Serif" font-size="10.00">dvd/dvd.h</text>
</a>
</g>
</g>
<!-- Node9&#45;&gt;Node10 -->
<g id="edge13" class="edge">
<title>Node9&#45;&gt;Node10</title>
<path fill="none" stroke="midnightblue" d="M104,-128.73C104,-119.18 104,-103.62 104,-91.28"/>
<polygon fill="midnightblue" stroke="midnightblue" points="107.5,-91.13 104,-81.13 100.5,-91.13 107.5,-91.13"/>
</g>
<!-- Node10&#45;&gt;Node3 -->
<g id="edge14" class="edge">
<title>Node10&#45;&gt;Node3</title>
<path fill="none" stroke="midnightblue" d="M128.04,-61.94C134.47,-59.82 141.46,-57.68 148,-56 212.58,-39.38 288.42,-26.2 337.29,-18.5"/>
<polygon fill="midnightblue" stroke="midnightblue" points="337.96,-21.94 347.3,-16.94 336.88,-15.02 337.96,-21.94"/>
</g>
<!-- Node12 -->
<g id="node12" class="node">
<title>Node12</title>
<g id="a_node12"><a xlink:href="JSUList_8h.html" target="_top" xlink:title=" ">
<polygon fill="white" stroke="black" points="272,-56.5 272,-86.5 408,-86.5 408,-56.5 272,-56.5"/>
<text text-anchor="start" x="280" y="-74.5" font-family="Helvetica,sans-Serif" font-size="10.00">JSystem/JSupport/JSUList</text>
<text text-anchor="middle" x="340" y="-63.5" font-family="Helvetica,sans-Serif" font-size="10.00">/JSUList.h</text>
</a>
</g>
</g>
<!-- Node11&#45;&gt;Node12 -->
<g id="edge16" class="edge">
<title>Node11&#45;&gt;Node12</title>
<path fill="none" stroke="midnightblue" d="M449.12,-325.97C427.81,-319.61 400.87,-308.07 385,-288 373.13,-273 352.3,-149.66 343.79,-96.61"/>
<polygon fill="midnightblue" stroke="midnightblue" points="347.24,-96.03 342.21,-86.7 340.33,-97.13 347.24,-96.03"/>
</g>
<!-- Node13 -->
<g id="node13" class="node">
<title>Node13</title>
<g id="a_node13"><a xlink:href="JUTXfb_8h.html" target="_top" xlink:title=" ">
<polygon fill="white" stroke="black" points="393.5,-257.5 393.5,-287.5 518.5,-287.5 518.5,-257.5 393.5,-257.5"/>
<text text-anchor="start" x="401.5" y="-275.5" font-family="Helvetica,sans-Serif" font-size="10.00">JSystem/JUtility/JUTXfb</text>
<text text-anchor="middle" x="456" y="-264.5" font-family="Helvetica,sans-Serif" font-size="10.00">/JUTXfb.h</text>
</a>
</g>
</g>
<!-- Node11&#45;&gt;Node13 -->
<g id="edge18" class="edge">
<title>Node11&#45;&gt;Node13</title>
<path fill="none" stroke="midnightblue" d="M477.42,-324.48C474.38,-317.25 469.88,-306.53 465.78,-296.78"/>
<polygon fill="midnightblue" stroke="midnightblue" points="468.99,-295.39 461.89,-287.52 462.54,-298.1 468.99,-295.39"/>
</g>
<!-- Node17 -->
<g id="node17" class="node">
<title>Node17</title>
<g id="a_node17"><a xlink:href="c__xyz_8h.html" target="_top" xlink:title=" ">
<polygon fill="white" stroke="black" points="536.5,-263 536.5,-282 643.5,-282 643.5,-263 536.5,-263"/>
<text text-anchor="middle" x="590" y="-270" font-family="Helvetica,sans-Serif" font-size="10.00">SComponent/c_xyz.h</text>
</a>
</g>
</g>
<!-- Node11&#45;&gt;Node17 -->
<g id="edge28" class="edge">
<title>Node11&#45;&gt;Node17</title>
<path fill="none" stroke="midnightblue" d="M496.62,-324.48C514.59,-314.67 544.32,-298.43 565.41,-286.92"/>
<polygon fill="midnightblue" stroke="midnightblue" points="567.31,-289.87 574.41,-282.01 563.96,-283.73 567.31,-289.87"/>
</g>
<!-- Node12&#45;&gt;Node3 -->
<g id="edge17" class="edge">
<title>Node12&#45;&gt;Node3</title>
<path fill="none" stroke="midnightblue" d="M351.38,-56.4C358.35,-47.75 367.31,-36.64 374.63,-27.58"/>
<polygon fill="midnightblue" stroke="midnightblue" points="377.46,-29.64 381.02,-19.66 372.01,-25.24 377.46,-29.64"/>
</g>
<!-- Node13&#45;&gt;Node3 -->
<g id="edge25" class="edge">
<title>Node13&#45;&gt;Node3</title>
<path fill="none" stroke="midnightblue" d="M458.4,-257.34C463.8,-220.85 473.5,-121.86 433,-56 426.09,-44.76 415.83,-34.21 406.85,-26.16"/>
<polygon fill="midnightblue" stroke="midnightblue" points="408.97,-23.36 399.1,-19.51 404.42,-28.68 408.97,-23.36"/>
</g>
<!-- Node14 -->
<g id="node14" class="node">
<title>Node14</title>
<g id="a_node14"><a xlink:href="JKRHeap_8h.html" target="_top" xlink:title=" ">
<polygon fill="white" stroke="black" points="198,-190.5 198,-220.5 334,-220.5 334,-190.5 198,-190.5"/>
<text text-anchor="start" x="206" y="-208.5" font-family="Helvetica,sans-Serif" font-size="10.00">JSystem/JKernel/JKRHeap</text>
<text text-anchor="middle" x="266" y="-197.5" font-family="Helvetica,sans-Serif" font-size="10.00">/JKRHeap.h</text>
</a>
</g>
</g>
<!-- Node13&#45;&gt;Node14 -->
<g id="edge19" class="edge">
<title>Node13&#45;&gt;Node14</title>
<path fill="none" stroke="midnightblue" d="M414.77,-257.4C386.02,-247.56 347.46,-234.37 316.8,-223.88"/>
<polygon fill="midnightblue" stroke="midnightblue" points="317.74,-220.5 307.15,-220.58 315.48,-227.13 317.74,-220.5"/>
</g>
<!-- Node16 -->
<g id="node16" class="node">
<title>Node16</title>
<g id="a_node16"><a xlink:href="GX_8h.html" target="_top" xlink:title=" ">
<polygon fill="white" stroke="black" points="394.5,-129 394.5,-148 445.5,-148 445.5,-129 394.5,-129"/>
<text text-anchor="middle" x="420" y="-136" font-family="Helvetica,sans-Serif" font-size="10.00">gx/GX.h</text>
</a>
</g>
</g>
<!-- Node13&#45;&gt;Node16 -->
<g id="edge26" class="edge">
<title>Node13&#45;&gt;Node16</title>
<path fill="none" stroke="midnightblue" d="M452.15,-257.37C445.61,-233.4 432.34,-184.75 425.06,-158.06"/>
<polygon fill="midnightblue" stroke="midnightblue" points="428.35,-156.82 422.34,-148.1 421.6,-158.67 428.35,-156.82"/>
</g>
<!-- Node14&#45;&gt;Node3 -->
<g id="edge23" class="edge">
<title>Node14&#45;&gt;Node3</title>
<path fill="none" stroke="midnightblue" d="M221.77,-190.44C204.65,-182.59 186.83,-170.89 177,-154 170.07,-142.09 171.46,-135.61 177,-123 204.51,-60.4 284.11,-31.98 337.29,-19.68"/>
<polygon fill="midnightblue" stroke="midnightblue" points="338.2,-23.06 347.22,-17.49 336.7,-16.22 338.2,-23.06"/>
</g>
<!-- Node14&#45;&gt;Node5 -->
<g id="edge24" class="edge">
<title>Node14&#45;&gt;Node5</title>
<path fill="none" stroke="midnightblue" d="M279.04,-220.69C295.08,-237.73 323.55,-266.68 351,-288 388.2,-316.9 398.37,-323.95 441,-344 479.32,-362.02 525.84,-376.56 557.04,-385.33"/>
<polygon fill="midnightblue" stroke="midnightblue" points="556.42,-388.79 566.99,-388.08 558.28,-382.04 556.42,-388.79"/>
</g>
<!-- Node15 -->
<g id="node15" class="node">
<title>Node15</title>
<g id="a_node15"><a xlink:href="JKRDisposer_8h.html" target="_top" xlink:title=" ">
<polygon fill="white" stroke="black" points="186.5,-123.5 186.5,-153.5 337.5,-153.5 337.5,-123.5 186.5,-123.5"/>
<text text-anchor="start" x="194.5" y="-141.5" font-family="Helvetica,sans-Serif" font-size="10.00">JSystem/JKernel/JKRDisposer</text>
<text text-anchor="middle" x="262" y="-130.5" font-family="Helvetica,sans-Serif" font-size="10.00">/JKRDisposer.h</text>
</a>
</g>
</g>
<!-- Node14&#45;&gt;Node15 -->
<g id="edge20" class="edge">
<title>Node14&#45;&gt;Node15</title>
<path fill="none" stroke="midnightblue" d="M265.13,-190.4C264.65,-182.56 264.04,-172.6 263.48,-163.57"/>
<polygon fill="midnightblue" stroke="midnightblue" points="266.97,-163.34 262.87,-153.58 259.99,-163.77 266.97,-163.34"/>
</g>
<!-- Node15&#45;&gt;Node3 -->
<g id="edge22" class="edge">
<title>Node15&#45;&gt;Node3</title>
<path fill="none" stroke="midnightblue" d="M257.69,-123.34C253.28,-105.8 248.88,-75.83 263,-56 279.9,-32.26 310.57,-20.99 337.3,-15.67"/>
<polygon fill="midnightblue" stroke="midnightblue" points="338.07,-19.09 347.32,-13.9 336.86,-12.19 338.07,-19.09"/>
</g>
<!-- Node15&#45;&gt;Node12 -->
<g id="edge21" class="edge">
<title>Node15&#45;&gt;Node12</title>
<path fill="none" stroke="midnightblue" d="M278.92,-123.4C289.55,-114.54 303.45,-102.96 315.3,-93.09"/>
<polygon fill="midnightblue" stroke="midnightblue" points="317.67,-95.67 323.11,-86.58 313.19,-90.29 317.67,-95.67"/>
</g>
<!-- Node16&#45;&gt;Node3 -->
<g id="edge27" class="edge">
<title>Node16&#45;&gt;Node3</title>
<path fill="none" stroke="midnightblue" d="M421.17,-128.68C422.86,-113.44 424.98,-81.39 417,-56 413.8,-45.82 407.64,-35.72 401.81,-27.68"/>
<polygon fill="midnightblue" stroke="midnightblue" points="404.44,-25.35 395.56,-19.58 398.9,-29.63 404.44,-25.35"/>
</g>
<!-- Node17&#45;&gt;Node5 -->
<g id="edge31" class="edge">
<title>Node17&#45;&gt;Node5</title>
<path fill="none" stroke="midnightblue" d="M588.6,-282.18C586.64,-295.49 583.46,-321.72 585,-344 585.74,-354.66 587.33,-366.5 588.82,-376.04"/>
<polygon fill="midnightblue" stroke="midnightblue" points="585.37,-376.66 590.45,-385.96 592.28,-375.52 585.37,-376.66"/>
</g>
<!-- Node18 -->
<g id="node18" class="node">
<title>Node18</title>
<g id="a_node18"><a xlink:href="c__math_8h.html" target="_top" xlink:title=" ">
<polygon fill="white" stroke="black" points="566,-196 566,-215 682,-215 682,-196 566,-196"/>
<text text-anchor="middle" x="624" y="-203" font-family="Helvetica,sans-Serif" font-size="10.00">SComponent/c_math.h</text>
</a>
</g>
</g>
<!-- Node17&#45;&gt;Node18 -->
<g id="edge29" class="edge">
<title>Node17&#45;&gt;Node18</title>
<path fill="none" stroke="midnightblue" d="M594.59,-262.73C599.73,-252.89 608.22,-236.66 614.76,-224.16"/>
<polygon fill="midnightblue" stroke="midnightblue" points="617.95,-225.61 619.49,-215.13 611.75,-222.37 617.95,-225.61"/>
</g>
<!-- Node19 -->
<g id="node19" class="node">
<title>Node19</title>
<g id="a_node19"><a xlink:href="mtx__vec_8h.html" target="_top" xlink:title=" ">
<polygon fill="white" stroke="black" points="486.5,-196 486.5,-215 547.5,-215 547.5,-196 486.5,-196"/>
<text text-anchor="middle" x="517" y="-203" font-family="Helvetica,sans-Serif" font-size="10.00">mtx_vec.h</text>
</a>
</g>
</g>
<!-- Node17&#45;&gt;Node19 -->
<g id="edge32" class="edge">
<title>Node17&#45;&gt;Node19</title>
<path fill="none" stroke="midnightblue" d="M580.15,-262.73C568.44,-252.31 548.68,-234.71 534.38,-221.97"/>
<polygon fill="midnightblue" stroke="midnightblue" points="536.49,-219.16 526.69,-215.13 531.83,-224.39 536.49,-219.16"/>
</g>
<!-- Node18&#45;&gt;Node5 -->
<g id="edge30" class="edge">
<title>Node18&#45;&gt;Node5</title>
<path fill="none" stroke="midnightblue" d="M630.89,-215.17C638.03,-224.76 648.73,-240.98 653,-257 662.96,-294.36 669.46,-309.01 653,-344 645.68,-359.57 630.94,-371.98 617.79,-380.6"/>
<polygon fill="midnightblue" stroke="midnightblue" points="615.74,-377.75 609.04,-385.96 619.4,-383.72 615.74,-377.75"/>
</g>
<!-- Node19&#45;&gt;Node3 -->
<g id="edge33" class="edge">
<title>Node19&#45;&gt;Node3</title>
<path fill="none" stroke="midnightblue" d="M517.88,-195.67C519.85,-170.77 522.11,-99.02 488,-56 475.36,-40.06 455.84,-29.58 437.4,-22.79"/>
<polygon fill="midnightblue" stroke="midnightblue" points="438.49,-19.46 427.89,-19.56 436.24,-26.09 438.49,-19.46"/>
</g>
</g>
</svg>
        <g id="navigator" transform="translate(0 0)" fill="#404254">
                <rect fill="#f2f5e9" fill-opacity="0.5" stroke="#606060" stroke-width=".5" x="0" y="0" width="60" height="60"/>
                <use id="zoomplus" xlink:href="#zoomPlus" x="17" y="9" onmousedown="handleZoom(evt,'in')"/>
                <use id="zoomminus" xlink:href="#zoomMin" x="42" y="9" onmousedown="handleZoom(evt,'out')"/>
                <use id="reset" xlink:href="#resetDef" x="30" y="36" onmousedown="handleReset()"/>
                <g id="arrowUp" xlink:href="#dirArrow" transform="translate(30 24)" onmousedown="handlePan(0,-1)">
                  <use xlink:href="#rim" fill="#404040">
                        <set attributeName="fill" to="#808080" begin="arrowUp.mouseover" end="arrowUp.mouseout"/>
                  </use>
                  <path fill="none" stroke="white" stroke-width="1.5" d="M0,-3.0v7 M-2.5,-0.5L0,-3.0L2.5,-0.5"/>
                </g>
                <g id="arrowRight" xlink:href="#dirArrow" transform="rotate(90) translate(36 -43)" onmousedown="handlePan(1,0)">
                  <use xlink:href="#rim" fill="#404040">
                        <set attributeName="fill" to="#808080" begin="arrowRight.mouseover" end="arrowRight.mouseout"/>
                  </use>
                  <path fill="none" stroke="white" stroke-width="1.5" d="M0,-3.0v7 M-2.5,-0.5L0,-3.0L2.5,-0.5"/>
                </g>
                <g id="arrowDown" xlink:href="#dirArrow" transform="rotate(180) translate(-30 -48)" onmousedown="handlePan(0,1)">
                  <use xlink:href="#rim" fill="#404040">
                        <set attributeName="fill" to="#808080" begin="arrowDown.mouseover" end="arrowDown.mouseout"/>
                  </use>
                  <path fill="none" stroke="white" stroke-width="1.5" d="M0,-3.0v7 M-2.5,-0.5L0,-3.0L2.5,-0.5"/>
                </g>
                <g id="arrowLeft" xlink:href="#dirArrow" transform="rotate(270) translate(-36 17)" onmousedown="handlePan(-1,0)">
                  <use xlink:href="#rim" fill="#404040">
                        <set attributeName="fill" to="#808080" begin="arrowLeft.mouseover" end="arrowLeft.mouseout"/>
                  </use>
                  <path fill="none" stroke="white" stroke-width="1.5" d="M0,-3.0v7 M-2.5,-0.5L0,-3.0L2.5,-0.5"/>
                </g>
        </g>
        <svg viewBox="0 0 15 15" width="100%" height="30px" preserveAspectRatio="xMaxYMin meet">
         <g id="arrow_out" transform="scale(0.3 0.3)">
          <a xlink:href="d__a__horse__static_8cpp__incl_org.svg" target="_base">
           <rect id="button" ry="5" rx="5" y="6" x="6" height="38" width="38"
                fill="#f2f5e9" fill-opacity="0.5" stroke="#606060" stroke-width="1.0"/>
           <path id="arrow"
             d="M 11.500037,31.436501 C 11.940474,20.09759 22.043105,11.32322 32.158766,21.979434 L 37.068811,17.246167 C 37.068811,17.246167 37.088388,32 37.088388,32 L 22.160133,31.978069 C 22.160133,31.978069 26.997745,27.140456 26.997745,27.140456 C 18.528582,18.264221 13.291696,25.230495 11.500037,31.436501 z"
             style="fill:#404040;"/>
          </a>
         </g>
        </svg>
</svg>
