<?xml version="1.0" encoding="UTF-8" standalone="no"?>
<!DOCTYPE svg PUBLIC "-//W3C//DTD SVG 1.1//EN"
 "http://www.w3.org/Graphics/SVG/1.1/DTD/svg11.dtd">
<!-- Generated by graphviz version 2.46.1 (20210215.1649)
 -->
<!-- Title: src/d/d_bg/d_bg_s_poly_pass_chk.cpp Pages: 1 -->
<!--zoomable 486 -->
<svg id="main" version="1.1" xmlns="http://www.w3.org/2000/svg" xmlns:xlink="http://www.w3.org/1999/xlink" xml:space="preserve" onload="init(evt)">
<style type="text/css"><![CDATA[
.edge:hover path { stroke: red; }
.edge:hover polygon { stroke: red; fill: red; }
]]></style>
<script type="text/javascript"><![CDATA[
var edges = document.getElementsByTagName('g');
if (edges && edges.length) {
  for (var i=0;i<edges.length;i++) {
    if (edges[i].id.substr(0,4)=='edge') {
      edges[i].setAttribute('class','edge');
    }
  }
}
]]></script>
        <defs>
                <circle id="rim" cx="0" cy="0" r="7"/>
                <circle id="rim2" cx="0" cy="0" r="3.5"/>
                <g id="zoomPlus">
                        <use xlink:href="#rim" fill="#404040">
                                <set attributeName="fill" to="#808080" begin="zoomplus.mouseover" end="zoomplus.mouseout"/>
                        </use>
                        <path d="M-4,0h8M0,-4v8" fill="none" stroke="white" stroke-width="1.5" pointer-events="none"/>
                </g>
                <g id="zoomMin">
                        <use xlink:href="#rim" fill="#404040">
                                <set attributeName="fill" to="#808080" begin="zoomminus.mouseover" end="zoomminus.mouseout"/>
                        </use>
                        <path d="M-4,0h8" fill="none" stroke="white" stroke-width="1.5" pointer-events="none"/>
                </g>
                <g id="dirArrow">
                        <path fill="none" stroke="white" stroke-width="1.5" d="M0,-3.0v7 M-2.5,-0.5L0,-3.0L2.5,-0.5"/>
                </g>
               <g id="resetDef">
                       <use xlink:href="#rim2" fill="#404040">
                               <set attributeName="fill" to="#808080" begin="reset.mouseover" end="reset.mouseout"/>
                       </use>
               </g>
        </defs>

<script type="text/javascript">
var viewWidth = 729;
var viewHeight = 486;
var sectionId = 'dynsection-0';
</script>
<script xlink:href="svgpan.js"/>
<svg id="graph" class="graph">
<g id="viewport">
<title>src/d/d_bg/d_bg_s_poly_pass_chk.cpp</title>
<polygon fill="white" stroke="transparent" points="-4,4 -4,-482 725,-482 725,4 -4,4"/>
<!-- Node1 -->
<g id="node1" class="node">
<title>Node1</title>
<g id="a_node1"><a xlink:title=" ">
<polygon fill="#bfbfbf" stroke="black" points="359.5,-447.5 359.5,-477.5 478.5,-477.5 478.5,-447.5 359.5,-447.5"/>
<text text-anchor="start" x="367.5" y="-465.5" font-family="Helvetica,sans-Serif" font-size="10.00">src/d/d_bg/d_bg_s_poly</text>
<text text-anchor="middle" x="419" y="-454.5" font-family="Helvetica,sans-Serif" font-size="10.00">_pass_chk.cpp</text>
</a>
</g>
</g>
<!-- Node2 -->
<g id="node2" class="node">
<title>Node2</title>
<g id="a_node2"><a xlink:href="d__bg__s__poly__pass__chk_8h.html" target="_top" xlink:title=" ">
<polygon fill="white" stroke="black" points="0,-257.5 0,-287.5 104,-287.5 104,-257.5 0,-257.5"/>
<text text-anchor="start" x="8" y="-275.5" font-family="Helvetica,sans-Serif" font-size="10.00">d/d_bg/d_bg_s/d_bg</text>
<text text-anchor="middle" x="52" y="-264.5" font-family="Helvetica,sans-Serif" font-size="10.00">_s_poly_pass_chk.h</text>
</a>
</g>
</g>
<!-- Node1&#45;&gt;Node2 -->
<g id="edge1" class="edge">
<title>Node1&#45;&gt;Node2</title>
<path fill="none" stroke="midnightblue" d="M359.35,-453.43C287.98,-441.04 168.33,-411.29 90,-344 75.69,-331.71 65.87,-312.64 59.81,-297.43"/>
<polygon fill="midnightblue" stroke="midnightblue" points="62.94,-295.82 56.2,-287.65 56.38,-298.25 62.94,-295.82"/>
</g>
<!-- Node4 -->
<g id="node4" class="node">
<title>Node4</title>
<g id="a_node4"><a xlink:href="global_8h.html" target="_top" xlink:title=" ">
<polygon fill="white" stroke="black" points="394,-386 394,-405 444,-405 444,-386 394,-386"/>
<text text-anchor="middle" x="419" y="-393" font-family="Helvetica,sans-Serif" font-size="10.00">global.h</text>
</a>
</g>
</g>
<!-- Node1&#45;&gt;Node4 -->
<g id="edge3" class="edge">
<title>Node1&#45;&gt;Node4</title>
<path fill="none" stroke="midnightblue" d="M419,-447.4C419,-438.06 419,-425.71 419,-415.52"/>
<polygon fill="midnightblue" stroke="midnightblue" points="422.5,-415.19 419,-405.19 415.5,-415.19 422.5,-415.19"/>
</g>
<!-- Node17 -->
<g id="node17" class="node">
<title>Node17</title>
<g id="a_node17"><a xlink:title=" ">
<polygon fill="white" stroke="#bfbfbf" points="462,-380.5 462,-410.5 584,-410.5 584,-380.5 462,-380.5"/>
<text text-anchor="start" x="470" y="-398.5" font-family="Helvetica,sans-Serif" font-size="10.00">d/d_bg/d_bg_s/polypass</text>
<text text-anchor="middle" x="523" y="-387.5" font-family="Helvetica,sans-Serif" font-size="10.00">/asm/func_80078FAC.s</text>
</a>
</g>
</g>
<!-- Node1&#45;&gt;Node17 -->
<g id="edge29" class="edge">
<title>Node1&#45;&gt;Node17</title>
<path fill="none" stroke="midnightblue" d="M441.57,-447.4C456.29,-438.2 475.69,-426.07 491.87,-415.95"/>
<polygon fill="midnightblue" stroke="midnightblue" points="493.85,-418.84 500.48,-410.58 490.14,-412.91 493.85,-418.84"/>
</g>
<!-- Node3 -->
<g id="node3" class="node">
<title>Node3</title>
<g id="a_node3"><a xlink:href="types_8h.html" target="_top" xlink:title=" ">
<polygon fill="white" stroke="black" points="322.5,-0.5 322.5,-19.5 403.5,-19.5 403.5,-0.5 322.5,-0.5"/>
<text text-anchor="middle" x="363" y="-7.5" font-family="Helvetica,sans-Serif" font-size="10.00">dolphin/types.h</text>
</a>
</g>
</g>
<!-- Node2&#45;&gt;Node3 -->
<g id="edge2" class="edge">
<title>Node2&#45;&gt;Node3</title>
<path fill="none" stroke="midnightblue" d="M47.33,-257.44C35.7,-219.44 9.92,-113.68 62,-56 94.46,-20.04 234.86,-12.51 311.91,-11.13"/>
<polygon fill="midnightblue" stroke="midnightblue" points="312.4,-14.62 322.34,-10.97 312.29,-7.62 312.4,-14.62"/>
</g>
<!-- Node4&#45;&gt;Node3 -->
<g id="edge4" class="edge">
<title>Node4&#45;&gt;Node3</title>
<path fill="none" stroke="midnightblue" d="M429.76,-385.79C457.49,-362.57 531.1,-295.82 558,-221 572.74,-180.01 567.02,-165.81 559,-123 553.12,-91.6 556.81,-77.29 533,-56 500.34,-26.79 450.88,-16.19 413.71,-12.51"/>
<polygon fill="midnightblue" stroke="midnightblue" points="413.84,-9.01 403.58,-11.65 413.24,-15.98 413.84,-9.01"/>
</g>
<!-- Node5 -->
<g id="node5" class="node">
<title>Node5</title>
<g id="a_node5"><a xlink:href="AR_8h.html" target="_top" xlink:title=" ">
<polygon fill="white" stroke="black" points="615.5,-196 615.5,-215 664.5,-215 664.5,-196 615.5,-196"/>
<text text-anchor="middle" x="640" y="-203" font-family="Helvetica,sans-Serif" font-size="10.00">ar/AR.h</text>
</a>
</g>
</g>
<!-- Node4&#45;&gt;Node5 -->
<g id="edge5" class="edge">
<title>Node4&#45;&gt;Node5</title>
<path fill="none" stroke="midnightblue" d="M437.49,-385.96C442.47,-383.85 447.88,-381.7 453,-380 517.24,-358.65 552.24,-390.96 601,-344 633.98,-312.24 639.68,-254.84 640.29,-225.25"/>
<polygon fill="midnightblue" stroke="midnightblue" points="643.79,-225.07 640.32,-215.06 636.79,-225.06 643.79,-225.07"/>
</g>
<!-- Node6 -->
<g id="node6" class="node">
<title>Node6</title>
<g id="a_node6"><a xlink:href="ARQ_8h.html" target="_top" xlink:title=" ">
<polygon fill="white" stroke="black" points="665,-129 665,-148 721,-148 721,-129 665,-129"/>
<text text-anchor="middle" x="693" y="-136" font-family="Helvetica,sans-Serif" font-size="10.00">ar/ARQ.h</text>
</a>
</g>
</g>
<!-- Node4&#45;&gt;Node6 -->
<g id="edge7" class="edge">
<title>Node4&#45;&gt;Node6</title>
<path fill="none" stroke="midnightblue" d="M437.46,-385.86C442.43,-383.75 447.86,-381.63 453,-380 526.22,-356.83 561.95,-391.87 622,-344 680.56,-297.32 690.97,-199.41 692.71,-158.3"/>
<polygon fill="midnightblue" stroke="midnightblue" points="696.21,-158.4 693.01,-148.3 689.21,-158.2 696.21,-158.4"/>
</g>
<!-- Node7 -->
<g id="node7" class="node">
<title>Node7</title>
<g id="a_node7"><a xlink:href="mwcc_8h.html" target="_top" xlink:title=" ">
<polygon fill="white" stroke="black" points="99,-324.5 99,-343.5 149,-343.5 149,-324.5 99,-324.5"/>
<text text-anchor="middle" x="124" y="-331.5" font-family="Helvetica,sans-Serif" font-size="10.00">mwcc.h</text>
</a>
</g>
</g>
<!-- Node4&#45;&gt;Node7 -->
<g id="edge9" class="edge">
<title>Node4&#45;&gt;Node7</title>
<path fill="none" stroke="midnightblue" d="M393.87,-389.82C347.94,-381.2 247.39,-362.06 163,-344 161.74,-343.73 160.46,-343.45 159.16,-343.17"/>
<polygon fill="midnightblue" stroke="midnightblue" points="159.67,-339.7 149.15,-340.93 158.14,-346.53 159.67,-339.7"/>
</g>
<!-- Node8 -->
<g id="node8" class="node">
<title>Node8</title>
<g id="a_node8"><a xlink:href="OS_8h.html" target="_top" xlink:title=" ">
<polygon fill="white" stroke="black" points="133,-129 133,-148 185,-148 185,-129 133,-129"/>
<text text-anchor="middle" x="159" y="-136" font-family="Helvetica,sans-Serif" font-size="10.00">os/OS.h</text>
</a>
</g>
</g>
<!-- Node4&#45;&gt;Node8 -->
<g id="edge10" class="edge">
<title>Node4&#45;&gt;Node8</title>
<path fill="none" stroke="midnightblue" d="M393.7,-388.43C350.28,-376.69 261.65,-346.69 214,-288 181.89,-248.44 167.44,-188.34 161.92,-158.16"/>
<polygon fill="midnightblue" stroke="midnightblue" points="165.35,-157.44 160.22,-148.17 158.44,-158.61 165.35,-157.44"/>
</g>
<!-- Node10 -->
<g id="node10" class="node">
<title>Node10</title>
<g id="a_node10"><a xlink:href="variables_8h.html" target="_top" xlink:title=" ">
<polygon fill="white" stroke="black" points="312.5,-324.5 312.5,-343.5 375.5,-343.5 375.5,-324.5 312.5,-324.5"/>
<text text-anchor="middle" x="344" y="-331.5" font-family="Helvetica,sans-Serif" font-size="10.00">variables.h</text>
</a>
</g>
</g>
<!-- Node4&#45;&gt;Node10 -->
<g id="edge14" class="edge">
<title>Node4&#45;&gt;Node10</title>
<path fill="none" stroke="midnightblue" d="M408.25,-385.98C396.45,-376.61 377.26,-361.38 362.92,-350.01"/>
<polygon fill="midnightblue" stroke="midnightblue" points="364.74,-346.98 354.73,-343.51 360.38,-352.47 364.74,-346.98"/>
</g>
<!-- Node5&#45;&gt;Node3 -->
<g id="edge6" class="edge">
<title>Node5&#45;&gt;Node3</title>
<path fill="none" stroke="midnightblue" d="M641.42,-195.97C645.1,-170.61 652.13,-95.06 613,-56 585.63,-28.68 478.44,-17.67 413.64,-13.45"/>
<polygon fill="midnightblue" stroke="midnightblue" points="413.81,-9.95 403.62,-12.83 413.38,-16.94 413.81,-9.95"/>
</g>
<!-- Node6&#45;&gt;Node3 -->
<g id="edge8" class="edge">
<title>Node6&#45;&gt;Node3</title>
<path fill="none" stroke="midnightblue" d="M691.27,-128.92C687.37,-111.94 676.17,-74.16 651,-56 613.99,-29.3 486.15,-17.88 413.85,-13.47"/>
<polygon fill="midnightblue" stroke="midnightblue" points="413.8,-9.96 403.61,-12.87 413.39,-16.95 413.8,-9.96"/>
</g>
<!-- Node8&#45;&gt;Node3 -->
<g id="edge11" class="edge">
<title>Node8&#45;&gt;Node3</title>
<path fill="none" stroke="midnightblue" d="M158.31,-129C157.48,-112.5 158.17,-76.03 178,-56 196.62,-37.2 264.32,-24.31 312.42,-17.3"/>
<polygon fill="midnightblue" stroke="midnightblue" points="312.95,-20.76 322.36,-15.89 311.97,-13.83 312.95,-20.76"/>
</g>
<!-- Node9 -->
<g id="node9" class="node">
<title>Node9</title>
<g id="a_node9"><a xlink:href="dvd_8h.html" target="_top" xlink:title=" ">
<polygon fill="white" stroke="black" points="71.5,-62 71.5,-81 130.5,-81 130.5,-62 71.5,-62"/>
<text text-anchor="middle" x="101" y="-69" font-family="Helvetica,sans-Serif" font-size="10.00">dvd/dvd.h</text>
</a>
</g>
</g>
<!-- Node8&#45;&gt;Node9 -->
<g id="edge12" class="edge">
<title>Node8&#45;&gt;Node9</title>
<path fill="none" stroke="midnightblue" d="M151.18,-128.73C142.05,-118.5 126.76,-101.36 115.45,-88.69"/>
<polygon fill="midnightblue" stroke="midnightblue" points="117.97,-86.26 108.7,-81.13 112.74,-90.92 117.97,-86.26"/>
</g>
<!-- Node9&#45;&gt;Node3 -->
<g id="edge13" class="edge">
<title>Node9&#45;&gt;Node3</title>
<path fill="none" stroke="midnightblue" d="M125.52,-61.87C131.82,-59.8 138.63,-57.7 145,-56 201.81,-40.83 268.09,-27.8 312.53,-19.72"/>
<polygon fill="midnightblue" stroke="midnightblue" points="313.28,-23.14 322.5,-17.92 312.03,-16.25 313.28,-23.14"/>
</g>
<!-- Node11 -->
<g id="node11" class="node">
<title>Node11</title>
<g id="a_node11"><a xlink:href="JSUList_8h.html" target="_top" xlink:title=" ">
<polygon fill="white" stroke="black" points="343,-56.5 343,-86.5 479,-86.5 479,-56.5 343,-56.5"/>
<text text-anchor="start" x="351" y="-74.5" font-family="Helvetica,sans-Serif" font-size="10.00">JSystem/JSupport/JSUList</text>
<text text-anchor="middle" x="411" y="-63.5" font-family="Helvetica,sans-Serif" font-size="10.00">/JSUList.h</text>
</a>
</g>
</g>
<!-- Node10&#45;&gt;Node11 -->
<g id="edge15" class="edge">
<title>Node10&#45;&gt;Node11</title>
<path fill="none" stroke="midnightblue" d="M353.02,-324.34C361.07,-315.93 372.3,-302.36 377,-288 399.82,-218.29 349.75,-192.57 373,-123 376.44,-112.7 382.91,-102.81 389.54,-94.56"/>
<polygon fill="midnightblue" stroke="midnightblue" points="392.26,-96.76 396.12,-86.9 386.95,-92.2 392.26,-96.76"/>
</g>
<!-- Node12 -->
<g id="node12" class="node">
<title>Node12</title>
<g id="a_node12"><a xlink:href="JUTXfb_8h.html" target="_top" xlink:title=" ">
<polygon fill="white" stroke="black" points="243.5,-257.5 243.5,-287.5 368.5,-287.5 368.5,-257.5 243.5,-257.5"/>
<text text-anchor="start" x="251.5" y="-275.5" font-family="Helvetica,sans-Serif" font-size="10.00">JSystem/JUtility/JUTXfb</text>
<text text-anchor="middle" x="306" y="-264.5" font-family="Helvetica,sans-Serif" font-size="10.00">/JUTXfb.h</text>
</a>
</g>
</g>
<!-- Node10&#45;&gt;Node12 -->
<g id="edge17" class="edge">
<title>Node10&#45;&gt;Node12</title>
<path fill="none" stroke="midnightblue" d="M338.56,-324.48C333.84,-317.09 326.81,-306.08 320.48,-296.17"/>
<polygon fill="midnightblue" stroke="midnightblue" points="323.29,-294.07 314.96,-287.52 317.39,-297.83 323.29,-294.07"/>
</g>
<!-- Node16 -->
<g id="node16" class="node">
<title>Node16</title>
<g id="a_node16"><a xlink:href="mtx__vec_8h.html" target="_top" xlink:title=" ">
<polygon fill="white" stroke="black" points="187.5,-62 187.5,-81 248.5,-81 248.5,-62 187.5,-62"/>
<text text-anchor="middle" x="218" y="-69" font-family="Helvetica,sans-Serif" font-size="10.00">mtx_vec.h</text>
</a>
</g>
</g>
<!-- Node10&#45;&gt;Node16 -->
<g id="edge27" class="edge">
<title>Node10&#45;&gt;Node16</title>
<path fill="none" stroke="midnightblue" d="M312.4,-329.12C286.83,-324.19 252.19,-313.04 234,-288 190.26,-227.8 204.7,-131.51 213.41,-91.2"/>
<polygon fill="midnightblue" stroke="midnightblue" points="216.84,-91.92 215.67,-81.39 210.02,-90.36 216.84,-91.92"/>
</g>
<!-- Node11&#45;&gt;Node3 -->
<g id="edge16" class="edge">
<title>Node11&#45;&gt;Node3</title>
<path fill="none" stroke="midnightblue" d="M399.62,-56.4C392.65,-47.75 383.69,-36.64 376.37,-27.58"/>
<polygon fill="midnightblue" stroke="midnightblue" points="378.99,-25.24 369.98,-19.66 373.54,-29.64 378.99,-25.24"/>
</g>
<!-- Node12&#45;&gt;Node3 -->
<g id="edge24" class="edge">
<title>Node12&#45;&gt;Node3</title>
<path fill="none" stroke="midnightblue" d="M302.81,-257.44C300.69,-247.36 298.1,-233.42 297,-221 290.46,-147.05 290.1,-122.55 323,-56 328.42,-45.04 337.24,-34.7 345.22,-26.7"/>
<polygon fill="midnightblue" stroke="midnightblue" points="347.92,-28.96 352.77,-19.54 343.1,-23.88 347.92,-28.96"/>
</g>
<!-- Node13 -->
<g id="node13" class="node">
<title>Node13</title>
<g id="a_node13"><a xlink:href="JKRHeap_8h.html" target="_top" xlink:title=" ">
<polygon fill="white" stroke="black" points="413,-190.5 413,-220.5 549,-220.5 549,-190.5 413,-190.5"/>
<text text-anchor="start" x="421" y="-208.5" font-family="Helvetica,sans-Serif" font-size="10.00">JSystem/JKernel/JKRHeap</text>
<text text-anchor="middle" x="481" y="-197.5" font-family="Helvetica,sans-Serif" font-size="10.00">/JKRHeap.h</text>
</a>
</g>
</g>
<!-- Node12&#45;&gt;Node13 -->
<g id="edge18" class="edge">
<title>Node12&#45;&gt;Node13</title>
<path fill="none" stroke="midnightblue" d="M343.97,-257.4C370.23,-247.64 405.36,-234.59 433.48,-224.15"/>
<polygon fill="midnightblue" stroke="midnightblue" points="434.95,-227.34 443.1,-220.58 432.51,-220.78 434.95,-227.34"/>
</g>
<!-- Node15 -->
<g id="node15" class="node">
<title>Node15</title>
<g id="a_node15"><a xlink:href="GX_8h.html" target="_top" xlink:title=" ">
<polygon fill="white" stroke="black" points="305.5,-196 305.5,-215 356.5,-215 356.5,-196 305.5,-196"/>
<text text-anchor="middle" x="331" y="-203" font-family="Helvetica,sans-Serif" font-size="10.00">gx/GX.h</text>
</a>
</g>
</g>
<!-- Node12&#45;&gt;Node15 -->
<g id="edge25" class="edge">
<title>Node12&#45;&gt;Node15</title>
<path fill="none" stroke="midnightblue" d="M311.42,-257.4C315.13,-247.76 320.07,-234.91 324.06,-224.54"/>
<polygon fill="midnightblue" stroke="midnightblue" points="327.33,-225.78 327.66,-215.19 320.8,-223.27 327.33,-225.78"/>
</g>
<!-- Node13&#45;&gt;Node3 -->
<g id="edge22" class="edge">
<title>Node13&#45;&gt;Node3</title>
<path fill="none" stroke="midnightblue" d="M507.14,-190.37C520.21,-181.76 534.74,-169.43 542,-154 561.88,-111.73 540.27,-85.44 504,-56 478.21,-35.07 442.52,-23.8 413.5,-17.77"/>
<polygon fill="midnightblue" stroke="midnightblue" points="414.02,-14.31 403.54,-15.86 412.7,-21.18 414.02,-14.31"/>
</g>
<!-- Node13&#45;&gt;Node4 -->
<g id="edge23" class="edge">
<title>Node13&#45;&gt;Node4</title>
<path fill="none" stroke="midnightblue" d="M476.32,-220.7C465.21,-254.38 437.29,-339.05 424.98,-376.36"/>
<polygon fill="midnightblue" stroke="midnightblue" points="421.63,-375.34 421.83,-385.93 428.28,-377.53 421.63,-375.34"/>
</g>
<!-- Node14 -->
<g id="node14" class="node">
<title>Node14</title>
<g id="a_node14"><a xlink:href="JKRDisposer_8h.html" target="_top" xlink:title=" ">
<polygon fill="white" stroke="black" points="381.5,-123.5 381.5,-153.5 532.5,-153.5 532.5,-123.5 381.5,-123.5"/>
<text text-anchor="start" x="389.5" y="-141.5" font-family="Helvetica,sans-Serif" font-size="10.00">JSystem/JKernel/JKRDisposer</text>
<text text-anchor="middle" x="457" y="-130.5" font-family="Helvetica,sans-Serif" font-size="10.00">/JKRDisposer.h</text>
</a>
</g>
</g>
<!-- Node13&#45;&gt;Node14 -->
<g id="edge19" class="edge">
<title>Node13&#45;&gt;Node14</title>
<path fill="none" stroke="midnightblue" d="M475.79,-190.4C472.84,-182.39 469.06,-172.16 465.67,-162.98"/>
<polygon fill="midnightblue" stroke="midnightblue" points="468.94,-161.75 462.2,-153.58 462.38,-164.17 468.94,-161.75"/>
</g>
<!-- Node14&#45;&gt;Node3 -->
<g id="edge21" class="edge">
<title>Node14&#45;&gt;Node3</title>
<path fill="none" stroke="midnightblue" d="M470.15,-123.22C484.27,-106.09 502.8,-77.06 488,-56 471.24,-32.16 440.57,-20.89 413.81,-15.59"/>
<polygon fill="midnightblue" stroke="midnightblue" points="414.23,-12.11 403.78,-13.84 413.03,-19 414.23,-12.11"/>
</g>
<!-- Node14&#45;&gt;Node11 -->
<g id="edge20" class="edge">
<title>Node14&#45;&gt;Node11</title>
<path fill="none" stroke="midnightblue" d="M447.02,-123.4C441.11,-115.05 433.5,-104.29 426.79,-94.81"/>
<polygon fill="midnightblue" stroke="midnightblue" points="429.6,-92.72 420.96,-86.58 423.88,-96.76 429.6,-92.72"/>
</g>
<!-- Node15&#45;&gt;Node3 -->
<g id="edge26" class="edge">
<title>Node15&#45;&gt;Node3</title>
<path fill="none" stroke="midnightblue" d="M329.57,-195.87C326.07,-172.64 318.41,-107.05 334,-56 337.12,-45.8 343.27,-35.69 349.11,-27.66"/>
<polygon fill="midnightblue" stroke="midnightblue" points="352.02,-29.61 355.39,-19.56 346.49,-25.31 352.02,-29.61"/>
</g>
<!-- Node16&#45;&gt;Node3 -->
<g id="edge28" class="edge">
<title>Node16&#45;&gt;Node3</title>
<path fill="none" stroke="midnightblue" d="M238.77,-61.98C263.43,-51.86 304.75,-34.9 332.9,-23.35"/>
<polygon fill="midnightblue" stroke="midnightblue" points="334.34,-26.54 342.26,-19.51 331.68,-20.07 334.34,-26.54"/>
</g>
</g>
</svg>
        <g id="navigator" transform="translate(0 0)" fill="#404254">
                <rect fill="#f2f5e9" fill-opacity="0.5" stroke="#606060" stroke-width=".5" x="0" y="0" width="60" height="60"/>
                <use id="zoomplus" xlink:href="#zoomPlus" x="17" y="9" onmousedown="handleZoom(evt,'in')"/>
                <use id="zoomminus" xlink:href="#zoomMin" x="42" y="9" onmousedown="handleZoom(evt,'out')"/>
                <use id="reset" xlink:href="#resetDef" x="30" y="36" onmousedown="handleReset()"/>
                <g id="arrowUp" xlink:href="#dirArrow" transform="translate(30 24)" onmousedown="handlePan(0,-1)">
                  <use xlink:href="#rim" fill="#404040">
                        <set attributeName="fill" to="#808080" begin="arrowUp.mouseover" end="arrowUp.mouseout"/>
                  </use>
                  <path fill="none" stroke="white" stroke-width="1.5" d="M0,-3.0v7 M-2.5,-0.5L0,-3.0L2.5,-0.5"/>
                </g>
                <g id="arrowRight" xlink:href="#dirArrow" transform="rotate(90) translate(36 -43)" onmousedown="handlePan(1,0)">
                  <use xlink:href="#rim" fill="#404040">
                        <set attributeName="fill" to="#808080" begin="arrowRight.mouseover" end="arrowRight.mouseout"/>
                  </use>
                  <path fill="none" stroke="white" stroke-width="1.5" d="M0,-3.0v7 M-2.5,-0.5L0,-3.0L2.5,-0.5"/>
                </g>
                <g id="arrowDown" xlink:href="#dirArrow" transform="rotate(180) translate(-30 -48)" onmousedown="handlePan(0,1)">
                  <use xlink:href="#rim" fill="#404040">
                        <set attributeName="fill" to="#808080" begin="arrowDown.mouseover" end="arrowDown.mouseout"/>
                  </use>
                  <path fill="none" stroke="white" stroke-width="1.5" d="M0,-3.0v7 M-2.5,-0.5L0,-3.0L2.5,-0.5"/>
                </g>
                <g id="arrowLeft" xlink:href="#dirArrow" transform="rotate(270) translate(-36 17)" onmousedown="handlePan(-1,0)">
                  <use xlink:href="#rim" fill="#404040">
                        <set attributeName="fill" to="#808080" begin="arrowLeft.mouseover" end="arrowLeft.mouseout"/>
                  </use>
                  <path fill="none" stroke="white" stroke-width="1.5" d="M0,-3.0v7 M-2.5,-0.5L0,-3.0L2.5,-0.5"/>
                </g>
        </g>
        <svg viewBox="0 0 15 15" width="100%" height="30px" preserveAspectRatio="xMaxYMin meet">
         <g id="arrow_out" transform="scale(0.3 0.3)">
          <a xlink:href="d__bg__s__poly__pass__chk_8cpp__incl_org.svg" target="_base">
           <rect id="button" ry="5" rx="5" y="6" x="6" height="38" width="38"
                fill="#f2f5e9" fill-opacity="0.5" stroke="#606060" stroke-width="1.0"/>
           <path id="arrow"
             d="M 11.500037,31.436501 C 11.940474,20.09759 22.043105,11.32322 32.158766,21.979434 L 37.068811,17.246167 C 37.068811,17.246167 37.088388,32 37.088388,32 L 22.160133,31.978069 C 22.160133,31.978069 26.997745,27.140456 26.997745,27.140456 C 18.528582,18.264221 13.291696,25.230495 11.500037,31.436501 z"
             style="fill:#404040;"/>
          </a>
         </g>
        </svg>
</svg>
