<?xml version="1.0" encoding="UTF-8" standalone="no"?>
<!DOCTYPE svg PUBLIC "-//W3C//DTD SVG 1.1//EN"
 "http://www.w3.org/Graphics/SVG/1.1/DTD/svg11.dtd">
<!-- Generated by graphviz version 2.46.0 (20210122.1329)
 -->
<!-- Title: include/d/d_event/d_event/d_event.h Pages: 1 -->
<svg width="4839pt" height="240pt"
 viewBox="0.00 0.00 4839.00 240.00" xmlns="http://www.w3.org/2000/svg" xmlns:xlink="http://www.w3.org/1999/xlink">
<g id="graph0" class="graph" transform="scale(1 1) rotate(0) translate(4 236)">
<title>include/d/d_event/d_event/d_event.h</title>
<polygon fill="white" stroke="transparent" points="-4,4 -4,-236 4835,-236 4835,4 -4,4"/>
<!-- Node1 -->
<g id="node1" class="node">
<title>Node1</title>
<g id="a_node1"><a xlink:title=" ">
<polygon fill="#bfbfbf" stroke="black" points="1926,-201.5 1926,-231.5 2027,-231.5 2027,-201.5 1926,-201.5"/>
<text text-anchor="start" x="1934" y="-219.5" font-family="Helvetica,sans-Serif" font-size="10.00">include/d/d_event/d</text>
<text text-anchor="middle" x="1976.5" y="-208.5" font-family="Helvetica,sans-Serif" font-size="10.00">_event/d_event.h</text>
</a>
</g>
</g>
<!-- Node2 -->
<g id="node2" class="node">
<title>Node2</title>
<g id="a_node2"><a xlink:href="d__lib_8cpp.html" target="_top" xlink:title=" ">
<polygon fill="white" stroke="black" points="1871.5,-140 1871.5,-159 1951.5,-159 1951.5,-140 1871.5,-140"/>
<text text-anchor="middle" x="1911.5" y="-147" font-family="Helvetica,sans-Serif" font-size="10.00">src/d/d_lib.cpp</text>
</a>
</g>
</g>
<!-- Node1&#45;&gt;Node2 -->
<g id="edge1" class="edge">
<title>Node1&#45;&gt;Node2</title>
<path fill="none" stroke="midnightblue" d="M1955,-194C1943.13,-182.13 1929.05,-168.05 1920.19,-159.19"/>
<polygon fill="midnightblue" stroke="midnightblue" points="1952.85,-196.8 1962.4,-201.4 1957.8,-191.85 1952.85,-196.8"/>
</g>
<!-- Node3 -->
<g id="node3" class="node">
<title>Node3</title>
<g id="a_node3"><a xlink:href="d__com__inf__game_8h.html" target="_top" xlink:title=" ">
<polygon fill="white" stroke="black" points="1969.5,-134.5 1969.5,-164.5 2115.5,-164.5 2115.5,-134.5 1969.5,-134.5"/>
<text text-anchor="start" x="1977.5" y="-152.5" font-family="Helvetica,sans-Serif" font-size="10.00">include/d/d_com/d_com</text>
<text text-anchor="middle" x="2042.5" y="-141.5" font-family="Helvetica,sans-Serif" font-size="10.00">_inf_game/d_com_inf_game.h</text>
</a>
</g>
</g>
<!-- Node1&#45;&gt;Node3 -->
<g id="edge2" class="edge">
<title>Node1&#45;&gt;Node3</title>
<path fill="none" stroke="midnightblue" d="M1998.01,-194.31C2007.91,-184.56 2019.39,-173.26 2028.21,-164.58"/>
<polygon fill="midnightblue" stroke="midnightblue" points="1995.49,-191.89 1990.82,-201.4 2000.4,-196.87 1995.49,-191.89"/>
</g>
<!-- Node4 -->
<g id="node4" class="node">
<title>Node4</title>
<g id="a_node4"><a xlink:href="d__attention_8cpp.html" target="_top" xlink:title=" ">
<polygon fill="white" stroke="black" points="0,-6 0,-25 107,-25 107,-6 0,-6"/>
<text text-anchor="middle" x="53.5" y="-13" font-family="Helvetica,sans-Serif" font-size="10.00">src/d/d_attention.cpp</text>
</a>
</g>
</g>
<!-- Node3&#45;&gt;Node4 -->
<g id="edge3" class="edge">
<title>Node3&#45;&gt;Node4</title>
<path fill="none" stroke="midnightblue" d="M1959.04,-134.44C1801.03,-129.04 109.7,-130.49 70.5,-98 48.8,-80.01 50.3,-42.14 52.24,-25.11"/>
<polygon fill="midnightblue" stroke="midnightblue" points="1959.09,-137.95 1969.26,-134.97 1959.45,-130.96 1959.09,-137.95"/>
</g>
<!-- Node5 -->
<g id="node5" class="node">
<title>Node5</title>
<g id="a_node5"><a xlink:href="d__camera_8cpp.html" target="_top" xlink:title=" ">
<polygon fill="white" stroke="black" points="370.5,-73 370.5,-92 472.5,-92 472.5,-73 370.5,-73"/>
<text text-anchor="middle" x="421.5" y="-80" font-family="Helvetica,sans-Serif" font-size="10.00">src/d/d_camera.cpp</text>
</a>
</g>
</g>
<!-- Node3&#45;&gt;Node5 -->
<g id="edge4" class="edge">
<title>Node3&#45;&gt;Node5</title>
<path fill="none" stroke="midnightblue" d="M1959.13,-133.98C1306.68,-69.87 1133.6,-177.31 486.5,-98 475.83,-96.69 464.33,-94.42 454.02,-92.06"/>
<polygon fill="midnightblue" stroke="midnightblue" points="1958.96,-137.48 1969.26,-134.99 1959.65,-130.52 1958.96,-137.48"/>
</g>
<!-- Node6 -->
<g id="node6" class="node">
<title>Node6</title>
<g id="a_node6"><a xlink:href="d__com__inf__game_8cpp.html" target="_top" xlink:title=" ">
<polygon fill="white" stroke="black" points="444,-0.5 444,-30.5 563,-30.5 563,-0.5 444,-0.5"/>
<text text-anchor="start" x="452" y="-18.5" font-family="Helvetica,sans-Serif" font-size="10.00">src/d/d_com/d_com_inf</text>
<text text-anchor="middle" x="503.5" y="-7.5" font-family="Helvetica,sans-Serif" font-size="10.00">_game.cpp</text>
</a>
</g>
</g>
<!-- Node3&#45;&gt;Node6 -->
<g id="edge5" class="edge">
<title>Node3&#45;&gt;Node6</title>
<path fill="none" stroke="midnightblue" d="M1958.88,-134.3C1808.17,-127.28 578.97,-148.19 519.5,-98 500.11,-81.63 499.82,-49.25 501.53,-30.61"/>
<polygon fill="midnightblue" stroke="midnightblue" points="1959.05,-137.82 1969.26,-134.99 1959.51,-130.83 1959.05,-137.82"/>
</g>
<!-- Node7 -->
<g id="node7" class="node">
<title>Node7</title>
<g id="a_node7"><a xlink:href="d__file__sel__info_8cpp.html" target="_top" xlink:title=" ">
<polygon fill="white" stroke="black" points="681,-67.5 681,-97.5 770,-97.5 770,-67.5 681,-67.5"/>
<text text-anchor="start" x="689" y="-85.5" font-family="Helvetica,sans-Serif" font-size="10.00">src/d/d_file/d_file</text>
<text text-anchor="middle" x="725.5" y="-74.5" font-family="Helvetica,sans-Serif" font-size="10.00">_sel_info.cpp</text>
</a>
</g>
</g>
<!-- Node3&#45;&gt;Node7 -->
<g id="edge6" class="edge">
<title>Node3&#45;&gt;Node7</title>
<path fill="none" stroke="midnightblue" d="M1959.19,-133.98C1436.36,-81.33 1295.72,-174.12 779.5,-98 776.43,-97.55 773.28,-96.98 770.12,-96.34"/>
<polygon fill="midnightblue" stroke="midnightblue" points="1958.95,-137.47 1969.26,-135.01 1959.66,-130.51 1958.95,-137.47"/>
</g>
<!-- Node8 -->
<g id="node8" class="node">
<title>Node8</title>
<g id="a_node8"><a xlink:href="d__item_8cpp.html" target="_top" xlink:title=" ">
<polygon fill="white" stroke="black" points="588,-6 588,-25 709,-25 709,-6 588,-6"/>
<text text-anchor="middle" x="648.5" y="-13" font-family="Helvetica,sans-Serif" font-size="10.00">src/d/d_item/d_item.cpp</text>
</a>
</g>
</g>
<!-- Node3&#45;&gt;Node8 -->
<g id="edge7" class="edge">
<title>Node3&#45;&gt;Node8</title>
<path fill="none" stroke="midnightblue" d="M1959.08,-134.31C1820.06,-127.6 727.5,-140.35 672.5,-98 649.71,-80.45 647.71,-42.35 648.06,-25.19"/>
<polygon fill="midnightblue" stroke="midnightblue" points="1959.04,-137.82 1969.26,-135 1959.52,-130.83 1959.04,-137.82"/>
</g>
<!-- Node9 -->
<g id="node9" class="node">
<title>Node9</title>
<g id="a_node9"><a xlink:href="d__kankyo__rain_8cpp.html" target="_top" xlink:title=" ">
<polygon fill="white" stroke="black" points="788,-67.5 788,-97.5 915,-97.5 915,-67.5 788,-67.5"/>
<text text-anchor="start" x="796" y="-85.5" font-family="Helvetica,sans-Serif" font-size="10.00">src/d/d_kankyo/d_kankyo</text>
<text text-anchor="middle" x="851.5" y="-74.5" font-family="Helvetica,sans-Serif" font-size="10.00">_rain.cpp</text>
</a>
</g>
</g>
<!-- Node3&#45;&gt;Node9 -->
<g id="edge8" class="edge">
<title>Node3&#45;&gt;Node9</title>
<path fill="none" stroke="midnightblue" d="M1959.05,-133.96C1500.53,-86.72 1378.81,-150.66 924.5,-98 921.42,-97.64 918.28,-97.23 915.11,-96.76"/>
<polygon fill="midnightblue" stroke="midnightblue" points="1958.95,-137.47 1969.25,-135.02 1959.67,-130.51 1958.95,-137.47"/>
</g>
<!-- Node10 -->
<g id="node10" class="node">
<title>Node10</title>
<g id="a_node10"><a xlink:href="d__kankyo__wether_8cpp.html" target="_top" xlink:title=" ">
<polygon fill="white" stroke="black" points="933,-67.5 933,-97.5 1060,-97.5 1060,-67.5 933,-67.5"/>
<text text-anchor="start" x="941" y="-85.5" font-family="Helvetica,sans-Serif" font-size="10.00">src/d/d_kankyo/d_kankyo</text>
<text text-anchor="middle" x="996.5" y="-74.5" font-family="Helvetica,sans-Serif" font-size="10.00">_wether.cpp</text>
</a>
</g>
</g>
<!-- Node3&#45;&gt;Node10 -->
<g id="edge9" class="edge">
<title>Node3&#45;&gt;Node10</title>
<path fill="none" stroke="midnightblue" d="M1959.28,-133.98C1564.74,-92.28 1459.79,-144.36 1069.5,-98 1066.42,-97.63 1063.28,-97.21 1060.11,-96.74"/>
<polygon fill="midnightblue" stroke="midnightblue" points="1958.94,-137.46 1969.25,-135.04 1959.68,-130.5 1958.94,-137.46"/>
</g>
<!-- Node11 -->
<g id="node11" class="node">
<title>Node11</title>
<g id="a_node11"><a xlink:href="d__kankyo_8cpp.html" target="_top" xlink:title=" ">
<polygon fill="white" stroke="black" points="1078,-73 1078,-92 1179,-92 1179,-73 1078,-73"/>
<text text-anchor="middle" x="1128.5" y="-80" font-family="Helvetica,sans-Serif" font-size="10.00">src/d/d_kankyo.cpp</text>
</a>
</g>
</g>
<!-- Node3&#45;&gt;Node11 -->
<g id="edge10" class="edge">
<title>Node3&#45;&gt;Node11</title>
<path fill="none" stroke="midnightblue" d="M1959.07,-133.95C1617.33,-96.99 1525.21,-146.09 1188.5,-98 1178.74,-96.61 1168.25,-94.34 1158.81,-92.01"/>
<polygon fill="midnightblue" stroke="midnightblue" points="1958.93,-137.45 1969.25,-135.07 1959.69,-130.5 1958.93,-137.45"/>
</g>
<!-- Node12 -->
<g id="node12" class="node">
<title>Node12</title>
<g id="a_node12"><a xlink:href="d__kantera__icon__meter_8cpp.html" target="_top" xlink:title=" ">
<polygon fill="white" stroke="black" points="1197,-67.5 1197,-97.5 1304,-97.5 1304,-67.5 1197,-67.5"/>
<text text-anchor="start" x="1205" y="-85.5" font-family="Helvetica,sans-Serif" font-size="10.00">src/d/d_kantera_icon</text>
<text text-anchor="middle" x="1250.5" y="-74.5" font-family="Helvetica,sans-Serif" font-size="10.00">_meter.cpp</text>
</a>
</g>
</g>
<!-- Node3&#45;&gt;Node12 -->
<g id="edge11" class="edge">
<title>Node3&#45;&gt;Node12</title>
<path fill="none" stroke="midnightblue" d="M1958.97,-133.93C1672.61,-101.74 1595.3,-137.97 1313.5,-98 1310.5,-97.57 1307.43,-97.08 1304.34,-96.53"/>
<polygon fill="midnightblue" stroke="midnightblue" points="1958.91,-137.44 1969.25,-135.1 1959.71,-130.49 1958.91,-137.44"/>
</g>
<!-- Node13 -->
<g id="node13" class="node">
<title>Node13</title>
<g id="a_node13"><a xlink:href="d__kyeff_8cpp.html" target="_top" xlink:title=" ">
<polygon fill="white" stroke="black" points="1322,-73 1322,-92 1435,-92 1435,-73 1322,-73"/>
<text text-anchor="middle" x="1378.5" y="-80" font-family="Helvetica,sans-Serif" font-size="10.00">src/d/d_ky/d_kyeff.cpp</text>
</a>
</g>
</g>
<!-- Node3&#45;&gt;Node13 -->
<g id="edge12" class="edge">
<title>Node3&#45;&gt;Node13</title>
<path fill="none" stroke="midnightblue" d="M1959.28,-133.94C1730.59,-106.64 1668.82,-130.29 1444.5,-98 1434.17,-96.51 1423.04,-94.31 1412.92,-92.06"/>
<polygon fill="midnightblue" stroke="midnightblue" points="1958.89,-137.42 1969.24,-135.15 1959.73,-130.47 1958.89,-137.42"/>
</g>
<!-- Node14 -->
<g id="node14" class="node">
<title>Node14</title>
<g id="a_node14"><a xlink:href="d__meter__button_8cpp.html" target="_top" xlink:title=" ">
<polygon fill="white" stroke="black" points="1453,-67.5 1453,-97.5 1568,-97.5 1568,-67.5 1453,-67.5"/>
<text text-anchor="start" x="1461" y="-85.5" font-family="Helvetica,sans-Serif" font-size="10.00">src/d/d_meter/d_meter</text>
<text text-anchor="middle" x="1510.5" y="-74.5" font-family="Helvetica,sans-Serif" font-size="10.00">_button.cpp</text>
</a>
</g>
</g>
<!-- Node3&#45;&gt;Node14 -->
<g id="edge13" class="edge">
<title>Node3&#45;&gt;Node14</title>
<path fill="none" stroke="midnightblue" d="M1959.19,-133.9C1789.32,-111.58 1743.25,-123.63 1577.5,-98 1574.44,-97.53 1571.31,-97 1568.16,-96.44"/>
<polygon fill="midnightblue" stroke="midnightblue" points="1958.85,-137.39 1969.23,-135.24 1959.78,-130.45 1958.85,-137.39"/>
</g>
<!-- Node15 -->
<g id="node15" class="node">
<title>Node15</title>
<g id="a_node15"><a xlink:href="d__meter__haihai_8cpp.html" target="_top" xlink:title=" ">
<polygon fill="white" stroke="black" points="1586,-67.5 1586,-97.5 1701,-97.5 1701,-67.5 1586,-67.5"/>
<text text-anchor="start" x="1594" y="-85.5" font-family="Helvetica,sans-Serif" font-size="10.00">src/d/d_meter/d_meter</text>
<text text-anchor="middle" x="1643.5" y="-74.5" font-family="Helvetica,sans-Serif" font-size="10.00">_haihai.cpp</text>
</a>
</g>
</g>
<!-- Node3&#45;&gt;Node15 -->
<g id="edge14" class="edge">
<title>Node3&#45;&gt;Node15</title>
<path fill="none" stroke="midnightblue" d="M1959.26,-133.84C1847.97,-116.3 1817.85,-117.32 1710.5,-98 1707.45,-97.45 1704.34,-96.87 1701.19,-96.25"/>
<polygon fill="midnightblue" stroke="midnightblue" points="1958.78,-137.3 1969.2,-135.42 1959.88,-130.39 1958.78,-137.3"/>
</g>
<!-- Node16 -->
<g id="node16" class="node">
<title>Node16</title>
<g id="a_node16"><a xlink:href="d__meter__hakusha_8cpp.html" target="_top" xlink:title=" ">
<polygon fill="white" stroke="black" points="1719,-67.5 1719,-97.5 1834,-97.5 1834,-67.5 1719,-67.5"/>
<text text-anchor="start" x="1727" y="-85.5" font-family="Helvetica,sans-Serif" font-size="10.00">src/d/d_meter/d_meter</text>
<text text-anchor="middle" x="1776.5" y="-74.5" font-family="Helvetica,sans-Serif" font-size="10.00">_hakusha.cpp</text>
</a>
</g>
</g>
<!-- Node3&#45;&gt;Node16 -->
<g id="edge15" class="edge">
<title>Node3&#45;&gt;Node16</title>
<path fill="none" stroke="midnightblue" d="M1975.19,-132.05C1931.7,-121.43 1875.7,-107.74 1834.25,-97.61"/>
<polygon fill="midnightblue" stroke="midnightblue" points="1974.56,-135.5 1985.11,-134.48 1976.23,-128.7 1974.56,-135.5"/>
</g>
<!-- Node17 -->
<g id="node17" class="node">
<title>Node17</title>
<g id="a_node17"><a xlink:href="d__meter__map_8cpp.html" target="_top" xlink:title=" ">
<polygon fill="white" stroke="black" points="1852,-67.5 1852,-97.5 1967,-97.5 1967,-67.5 1852,-67.5"/>
<text text-anchor="start" x="1860" y="-85.5" font-family="Helvetica,sans-Serif" font-size="10.00">src/d/d_meter/d_meter</text>
<text text-anchor="middle" x="1909.5" y="-74.5" font-family="Helvetica,sans-Serif" font-size="10.00">_map.cpp</text>
</a>
</g>
</g>
<!-- Node3&#45;&gt;Node17 -->
<g id="edge16" class="edge">
<title>Node3&#45;&gt;Node17</title>
<path fill="none" stroke="midnightblue" d="M2004.63,-129.99C1983.55,-119.69 1957.72,-107.07 1938.3,-97.58"/>
<polygon fill="midnightblue" stroke="midnightblue" points="2003.12,-133.15 2013.64,-134.4 2006.19,-126.86 2003.12,-133.15"/>
</g>
<!-- Node18 -->
<g id="node18" class="node">
<title>Node18</title>
<g id="a_node18"><a xlink:href="d__meter__string_8cpp.html" target="_top" xlink:title=" ">
<polygon fill="white" stroke="black" points="1985,-67.5 1985,-97.5 2100,-97.5 2100,-67.5 1985,-67.5"/>
<text text-anchor="start" x="1993" y="-85.5" font-family="Helvetica,sans-Serif" font-size="10.00">src/d/d_meter/d_meter</text>
<text text-anchor="middle" x="2042.5" y="-74.5" font-family="Helvetica,sans-Serif" font-size="10.00">_string.cpp</text>
</a>
</g>
</g>
<!-- Node3&#45;&gt;Node18 -->
<g id="edge17" class="edge">
<title>Node3&#45;&gt;Node18</title>
<path fill="none" stroke="midnightblue" d="M2042.5,-124.11C2042.5,-115.15 2042.5,-105.32 2042.5,-97.58"/>
<polygon fill="midnightblue" stroke="midnightblue" points="2039,-124.4 2042.5,-134.4 2046,-124.4 2039,-124.4"/>
</g>
<!-- Node19 -->
<g id="node19" class="node">
<title>Node19</title>
<g id="a_node19"><a xlink:href="d__meter2__draw_8cpp.html" target="_top" xlink:title=" ">
<polygon fill="white" stroke="black" points="2118,-67.5 2118,-97.5 2243,-97.5 2243,-67.5 2118,-67.5"/>
<text text-anchor="start" x="2126" y="-85.5" font-family="Helvetica,sans-Serif" font-size="10.00">src/d/d_meter2/d_meter2</text>
<text text-anchor="middle" x="2180.5" y="-74.5" font-family="Helvetica,sans-Serif" font-size="10.00">_draw.cpp</text>
</a>
</g>
</g>
<!-- Node3&#45;&gt;Node19 -->
<g id="edge18" class="edge">
<title>Node3&#45;&gt;Node19</title>
<path fill="none" stroke="midnightblue" d="M2081.5,-130.13C2103.43,-119.8 2130.37,-107.11 2150.61,-97.58"/>
<polygon fill="midnightblue" stroke="midnightblue" points="2080,-126.97 2072.44,-134.4 2082.98,-133.3 2080,-126.97"/>
</g>
<!-- Node20 -->
<g id="node20" class="node">
<title>Node20</title>
<g id="a_node20"><a xlink:href="d__meter2__info_8cpp.html" target="_top" xlink:title=" ">
<polygon fill="white" stroke="black" points="2261,-67.5 2261,-97.5 2386,-97.5 2386,-67.5 2261,-67.5"/>
<text text-anchor="start" x="2269" y="-85.5" font-family="Helvetica,sans-Serif" font-size="10.00">src/d/d_meter2/d_meter2</text>
<text text-anchor="middle" x="2323.5" y="-74.5" font-family="Helvetica,sans-Serif" font-size="10.00">_info.cpp</text>
</a>
</g>
</g>
<!-- Node3&#45;&gt;Node20 -->
<g id="edge19" class="edge">
<title>Node3&#45;&gt;Node20</title>
<path fill="none" stroke="midnightblue" d="M2113.03,-132.19C2159.05,-121.54 2218.52,-107.78 2262.5,-97.61"/>
<polygon fill="midnightblue" stroke="midnightblue" points="2112.08,-128.81 2103.13,-134.48 2113.66,-135.63 2112.08,-128.81"/>
</g>
<!-- Node21 -->
<g id="node21" class="node">
<title>Node21</title>
<g id="a_node21"><a xlink:href="d__meter2_8cpp.html" target="_top" xlink:title=" ">
<polygon fill="white" stroke="black" points="2404.5,-73 2404.5,-92 2504.5,-92 2504.5,-73 2404.5,-73"/>
<text text-anchor="middle" x="2454.5" y="-80" font-family="Helvetica,sans-Serif" font-size="10.00">src/d/d_meter2.cpp</text>
</a>
</g>
</g>
<!-- Node3&#45;&gt;Node21 -->
<g id="edge20" class="edge">
<title>Node3&#45;&gt;Node21</title>
<path fill="none" stroke="midnightblue" d="M2125.86,-138.93C2197.64,-130.14 2303.83,-115.78 2395.5,-98 2404.2,-96.31 2413.54,-94.17 2422.17,-92.06"/>
<polygon fill="midnightblue" stroke="midnightblue" points="2125.03,-135.51 2115.53,-140.19 2125.88,-142.46 2125.03,-135.51"/>
</g>
<!-- Node22 -->
<g id="node22" class="node">
<title>Node22</title>
<g id="a_node22"><a xlink:href="d__save_8cpp.html" target="_top" xlink:title=" ">
<polygon fill="white" stroke="black" points="2523,-73 2523,-92 2648,-92 2648,-73 2523,-73"/>
<text text-anchor="middle" x="2585.5" y="-80" font-family="Helvetica,sans-Serif" font-size="10.00">src/d/d_save/d_save.cpp</text>
</a>
</g>
</g>
<!-- Node3&#45;&gt;Node22 -->
<g id="edge21" class="edge">
<title>Node3&#45;&gt;Node22</title>
<path fill="none" stroke="midnightblue" d="M2125.85,-141.9C2220.22,-133.88 2378.41,-118.8 2513.5,-98 2524.21,-96.35 2535.75,-94.2 2546.38,-92.06"/>
<polygon fill="midnightblue" stroke="midnightblue" points="2125.46,-138.42 2115.79,-142.74 2126.05,-145.39 2125.46,-138.42"/>
</g>
<!-- Node23 -->
<g id="node23" class="node">
<title>Node23</title>
<g id="a_node23"><a xlink:href="d__save__HIO_8cpp.html" target="_top" xlink:title=" ">
<polygon fill="white" stroke="black" points="2666,-67.5 2666,-97.5 2773,-97.5 2773,-67.5 2666,-67.5"/>
<text text-anchor="start" x="2674" y="-85.5" font-family="Helvetica,sans-Serif" font-size="10.00">src/d/d_save/d_save</text>
<text text-anchor="middle" x="2719.5" y="-74.5" font-family="Helvetica,sans-Serif" font-size="10.00">_HIO.cpp</text>
</a>
</g>
</g>
<!-- Node3&#45;&gt;Node23 -->
<g id="edge22" class="edge">
<title>Node3&#45;&gt;Node23</title>
<path fill="none" stroke="midnightblue" d="M2125.92,-145.56C2244.62,-140.49 2468.8,-127.65 2657.5,-98 2660.23,-97.57 2663.02,-97.09 2665.83,-96.56"/>
<polygon fill="midnightblue" stroke="midnightblue" points="2125.66,-142.07 2115.81,-145.98 2125.95,-149.06 2125.66,-142.07"/>
</g>
<!-- Node24 -->
<g id="node24" class="node">
<title>Node24</title>
<g id="a_node24"><a xlink:href="d__stage_8cpp.html" target="_top" xlink:title=" ">
<polygon fill="white" stroke="black" points="2791.5,-73 2791.5,-92 2885.5,-92 2885.5,-73 2791.5,-73"/>
<text text-anchor="middle" x="2838.5" y="-80" font-family="Helvetica,sans-Serif" font-size="10.00">src/d/d_stage.cpp</text>
</a>
</g>
</g>
<!-- Node3&#45;&gt;Node24 -->
<g id="edge23" class="edge">
<title>Node3&#45;&gt;Node24</title>
<path fill="none" stroke="midnightblue" d="M2125.8,-147.83C2263.4,-145.6 2546.42,-136.28 2782.5,-98 2791.42,-96.55 2800.99,-94.33 2809.65,-92.06"/>
<polygon fill="midnightblue" stroke="midnightblue" points="2125.69,-144.33 2115.75,-147.98 2125.8,-151.33 2125.69,-144.33"/>
</g>
<!-- Node25 -->
<g id="node25" class="node">
<title>Node25</title>
<g id="a_node25"><a xlink:href="f__pc__manager_8cpp.html" target="_top" xlink:title=" ">
<polygon fill="white" stroke="black" points="266.5,-6 266.5,-25 406.5,-25 406.5,-6 266.5,-6"/>
<text text-anchor="middle" x="336.5" y="-13" font-family="Helvetica,sans-Serif" font-size="10.00">src/f/f_pc/f_pc_manager.cpp</text>
</a>
</g>
</g>
<!-- Node3&#45;&gt;Node25 -->
<g id="edge24" class="edge">
<title>Node3&#45;&gt;Node25</title>
<path fill="none" stroke="midnightblue" d="M1958.82,-134.28C1797.11,-126.57 430.48,-150.21 361.5,-98 338.49,-80.58 336.03,-42.41 336.16,-25.21"/>
<polygon fill="midnightblue" stroke="midnightblue" points="1959.05,-137.8 1969.26,-134.98 1959.51,-130.82 1959.05,-137.8"/>
</g>
<!-- Node26 -->
<g id="node26" class="node">
<title>Node26</title>
<g id="a_node26"><a xlink:href="m__Do__audio_8cpp.html" target="_top" xlink:title=" ">
<polygon fill="white" stroke="black" points="2903.5,-73 2903.5,-92 3037.5,-92 3037.5,-73 2903.5,-73"/>
<text text-anchor="middle" x="2970.5" y="-80" font-family="Helvetica,sans-Serif" font-size="10.00">src/m_Do/m_Do_audio.cpp</text>
</a>
</g>
</g>
<!-- Node3&#45;&gt;Node26 -->
<g id="edge25" class="edge">
<title>Node3&#45;&gt;Node26</title>
<path fill="none" stroke="midnightblue" d="M2125.98,-147.13C2278.95,-143.82 2614.21,-132.9 2894.5,-98 2906.36,-96.52 2919.16,-94.32 2930.82,-92.08"/>
<polygon fill="midnightblue" stroke="midnightblue" points="2125.66,-143.64 2115.73,-147.35 2125.8,-150.63 2125.66,-143.64"/>
</g>
<!-- Node27 -->
<g id="node27" class="node">
<title>Node27</title>
<g id="a_node27"><a xlink:href="m__Do__graphic_8cpp.html" target="_top" xlink:title=" ">
<polygon fill="white" stroke="black" points="3055.5,-73 3055.5,-92 3197.5,-92 3197.5,-73 3055.5,-73"/>
<text text-anchor="middle" x="3126.5" y="-80" font-family="Helvetica,sans-Serif" font-size="10.00">src/m_Do/m_Do_graphic.cpp</text>
</a>
</g>
</g>
<!-- Node3&#45;&gt;Node27 -->
<g id="edge26" class="edge">
<title>Node3&#45;&gt;Node27</title>
<path fill="none" stroke="midnightblue" d="M2125.53,-147.94C2297.78,-145.99 2706.31,-137.22 3046.5,-98 3059.12,-96.55 3072.75,-94.32 3085.13,-92.05"/>
<polygon fill="midnightblue" stroke="midnightblue" points="2125.48,-144.44 2115.52,-148.05 2125.56,-151.44 2125.48,-144.44"/>
</g>
<!-- Node28 -->
<g id="node28" class="node">
<title>Node28</title>
<g id="a_node28"><a xlink:href="m__Do__lib_8cpp.html" target="_top" xlink:title=" ">
<polygon fill="white" stroke="black" points="3215.5,-73 3215.5,-92 3335.5,-92 3335.5,-73 3215.5,-73"/>
<text text-anchor="middle" x="3275.5" y="-80" font-family="Helvetica,sans-Serif" font-size="10.00">src/m_Do/m_Do_lib.cpp</text>
</a>
</g>
</g>
<!-- Node3&#45;&gt;Node28 -->
<g id="edge27" class="edge">
<title>Node3&#45;&gt;Node28</title>
<path fill="none" stroke="midnightblue" d="M2126.09,-146.65C2356.46,-141.28 2997.24,-124.35 3206.5,-98 3217.55,-96.61 3229.47,-94.37 3240.23,-92.07"/>
<polygon fill="midnightblue" stroke="midnightblue" points="2125.68,-143.16 2115.76,-146.89 2125.84,-150.16 2125.68,-143.16"/>
</g>
<!-- Node29 -->
<g id="node29" class="node">
<title>Node29</title>
<g id="a_node29"><a xlink:href="m__Do__machine__exception_8cpp.html" target="_top" xlink:title=" ">
<polygon fill="white" stroke="black" points="3354,-67.5 3354,-97.5 3483,-97.5 3483,-67.5 3354,-67.5"/>
<text text-anchor="start" x="3362" y="-85.5" font-family="Helvetica,sans-Serif" font-size="10.00">src/m_Do/m_Do_machine</text>
<text text-anchor="middle" x="3418.5" y="-74.5" font-family="Helvetica,sans-Serif" font-size="10.00">_exception.cpp</text>
</a>
</g>
</g>
<!-- Node3&#45;&gt;Node29 -->
<g id="edge28" class="edge">
<title>Node3&#45;&gt;Node29</title>
<path fill="none" stroke="midnightblue" d="M2125.94,-146.95C2374.44,-142.08 3107.09,-125.69 3344.5,-98 3347.49,-97.65 3350.54,-97.25 3353.62,-96.8"/>
<polygon fill="midnightblue" stroke="midnightblue" points="2125.82,-143.45 2115.89,-147.15 2125.95,-150.45 2125.82,-143.45"/>
</g>
<!-- Node30 -->
<g id="node30" class="node">
<title>Node30</title>
<g id="a_node30"><a xlink:href="m__Do__main_8cpp.html" target="_top" xlink:title=" ">
<polygon fill="white" stroke="black" points="3501,-73 3501,-92 3632,-92 3632,-73 3501,-73"/>
<text text-anchor="middle" x="3566.5" y="-80" font-family="Helvetica,sans-Serif" font-size="10.00">src/m_Do/m_Do_main.cpp</text>
</a>
</g>
</g>
<!-- Node3&#45;&gt;Node30 -->
<g id="edge29" class="edge">
<title>Node3&#45;&gt;Node30</title>
<path fill="none" stroke="midnightblue" d="M2125.63,-147.34C2392.37,-143.35 3224.89,-128.68 3492.5,-98 3504.47,-96.63 3517.39,-94.37 3529.03,-92.04"/>
<polygon fill="midnightblue" stroke="midnightblue" points="2125.57,-143.84 2115.62,-147.49 2125.67,-150.84 2125.57,-143.84"/>
</g>
<!-- Node31 -->
<g id="node31" class="node">
<title>Node31</title>
<g id="a_node31"><a xlink:href="m__Do__ext_8cpp.html" target="_top" xlink:title=" ">
<polygon fill="white" stroke="black" points="3650,-73 3650,-92 3773,-92 3773,-73 3650,-73"/>
<text text-anchor="middle" x="3711.5" y="-80" font-family="Helvetica,sans-Serif" font-size="10.00">src/m_Do/m_Do_ext.cpp</text>
</a>
</g>
</g>
<!-- Node3&#45;&gt;Node31 -->
<g id="edge30" class="edge">
<title>Node3&#45;&gt;Node31</title>
<path fill="none" stroke="midnightblue" d="M2125.77,-147.77C2410.44,-144.97 3343.68,-133.28 3641.5,-98 3652.84,-96.66 3665.07,-94.41 3676.08,-92.07"/>
<polygon fill="midnightblue" stroke="midnightblue" points="2125.48,-144.27 2115.52,-147.87 2125.55,-151.27 2125.48,-144.27"/>
</g>
<!-- Node32 -->
<g id="node32" class="node">
<title>Node32</title>
<g id="a_node32"><a xlink:href="m__Do__MemCardRWmng_8cpp.html" target="_top" xlink:title=" ">
<polygon fill="white" stroke="black" points="3791,-73 3791,-92 3978,-92 3978,-73 3791,-73"/>
<text text-anchor="middle" x="3884.5" y="-80" font-family="Helvetica,sans-Serif" font-size="10.00">src/m_Do/m_Do_MemCardRWmng.cpp</text>
</a>
</g>
</g>
<!-- Node3&#45;&gt;Node32 -->
<g id="edge31" class="edge">
<title>Node3&#45;&gt;Node32</title>
<path fill="none" stroke="midnightblue" d="M2126.32,-147.32C2427.58,-142.86 3454.97,-125.94 3782.5,-98 3798.9,-96.6 3816.68,-94.34 3832.74,-92.01"/>
<polygon fill="midnightblue" stroke="midnightblue" points="2125.86,-143.82 2115.91,-147.47 2125.96,-150.82 2125.86,-143.82"/>
</g>
<!-- Node33 -->
<g id="node33" class="node">
<title>Node33</title>
<g id="a_node33"><a xlink:href="Z2LinkMgr_8cpp.html" target="_top" xlink:title=" ">
<polygon fill="white" stroke="black" points="3996.5,-73 3996.5,-92 4148.5,-92 4148.5,-73 3996.5,-73"/>
<text text-anchor="middle" x="4072.5" y="-80" font-family="Helvetica,sans-Serif" font-size="10.00">libs/Z2AudioLib/Z2LinkMgr.cpp</text>
</a>
</g>
</g>
<!-- Node3&#45;&gt;Node33 -->
<g id="edge32" class="edge">
<title>Node3&#45;&gt;Node33</title>
<path fill="none" stroke="midnightblue" d="M2125.74,-147.93C2448.52,-145.45 3617.93,-134.13 3987.5,-98 4001.36,-96.65 4016.36,-94.36 4029.86,-92"/>
<polygon fill="midnightblue" stroke="midnightblue" points="2125.5,-144.43 2115.52,-148 2125.55,-151.43 2125.5,-144.43"/>
</g>
<!-- Node34 -->
<g id="node34" class="node">
<title>Node34</title>
<g id="a_node34"><a xlink:href="Z2EnvSeMgr_8cpp.html" target="_top" xlink:title=" ">
<polygon fill="white" stroke="black" points="4167,-73 4167,-92 4328,-92 4328,-73 4167,-73"/>
<text text-anchor="middle" x="4247.5" y="-80" font-family="Helvetica,sans-Serif" font-size="10.00">libs/Z2AudioLib/Z2EnvSeMgr.cpp</text>
</a>
</g>
</g>
<!-- Node3&#45;&gt;Node34 -->
<g id="edge33" class="edge">
<title>Node3&#45;&gt;Node34</title>
<path fill="none" stroke="midnightblue" d="M2125.55,-148.03C2465.57,-145.85 3752.53,-135.28 4157.5,-98 4172.16,-96.65 4188.04,-94.37 4202.33,-92.01"/>
<polygon fill="midnightblue" stroke="midnightblue" points="2125.51,-144.53 2115.53,-148.09 2125.55,-151.53 2125.51,-144.53"/>
</g>
<!-- Node35 -->
<g id="node35" class="node">
<title>Node35</title>
<g id="a_node35"><a xlink:href="Z2SceneMgr_8cpp.html" target="_top" xlink:title=" ">
<polygon fill="white" stroke="black" points="4346,-73 4346,-92 4507,-92 4507,-73 4346,-73"/>
<text text-anchor="middle" x="4426.5" y="-80" font-family="Helvetica,sans-Serif" font-size="10.00">libs/Z2AudioLib/Z2SceneMgr.cpp</text>
</a>
</g>
</g>
<!-- Node3&#45;&gt;Node35 -->
<g id="edge34" class="edge">
<title>Node3&#45;&gt;Node35</title>
<path fill="none" stroke="midnightblue" d="M2125.7,-148.23C2483.77,-146.81 3895.29,-138.69 4337.5,-98 4352,-96.67 4367.71,-94.39 4381.84,-92.03"/>
<polygon fill="midnightblue" stroke="midnightblue" points="2125.65,-144.73 2115.67,-148.26 2125.68,-151.73 2125.65,-144.73"/>
</g>
<!-- Node36 -->
<g id="node36" class="node">
<title>Node36</title>
<g id="a_node36"><a xlink:href="Z2SoundMgr_8cpp.html" target="_top" xlink:title=" ">
<polygon fill="white" stroke="black" points="4525,-73 4525,-92 4686,-92 4686,-73 4525,-73"/>
<text text-anchor="middle" x="4605.5" y="-80" font-family="Helvetica,sans-Serif" font-size="10.00">libs/Z2AudioLib/Z2SoundMgr.cpp</text>
</a>
</g>
</g>
<!-- Node3&#45;&gt;Node36 -->
<g id="edge35" class="edge">
<title>Node3&#45;&gt;Node36</title>
<path fill="none" stroke="midnightblue" d="M2125.9,-148.38C2501.33,-147.59 4037.14,-141.72 4516.5,-98 4531,-96.68 4546.71,-94.4 4560.84,-92.04"/>
<polygon fill="midnightblue" stroke="midnightblue" points="2125.65,-144.88 2115.66,-148.4 2125.66,-151.88 2125.65,-144.88"/>
</g>
<!-- Node37 -->
<g id="node37" class="node">
<title>Node37</title>
<g id="a_node37"><a xlink:href="Z2StatusMgr_8cpp.html" target="_top" xlink:title=" ">
<polygon fill="white" stroke="black" points="4704,-67.5 4704,-97.5 4831,-97.5 4831,-67.5 4704,-67.5"/>
<text text-anchor="start" x="4712" y="-85.5" font-family="Helvetica,sans-Serif" font-size="10.00">libs/Z2AudioLib/Z2Status</text>
<text text-anchor="middle" x="4767.5" y="-74.5" font-family="Helvetica,sans-Serif" font-size="10.00">Mgr.cpp</text>
</a>
</g>
</g>
<!-- Node3&#45;&gt;Node37 -->
<g id="edge36" class="edge">
<title>Node3&#45;&gt;Node37</title>
<path fill="none" stroke="midnightblue" d="M2126.02,-147.8C2547.97,-144.17 4435.43,-126.43 4695.5,-98 4698.29,-97.7 4701.13,-97.34 4703.99,-96.93"/>
<polygon fill="midnightblue" stroke="midnightblue" points="2125.7,-144.31 2115.73,-147.89 2125.76,-151.31 2125.7,-144.31"/>
</g>
<!-- Node38 -->
<g id="node38" class="node">
<title>Node38</title>
<g id="a_node38"><a xlink:href="d__a__alink_8h.html" target="_top" xlink:title=" ">
<polygon fill="white" stroke="black" points="80,-67.5 80,-97.5 199,-97.5 199,-67.5 80,-67.5"/>
<text text-anchor="start" x="88" y="-85.5" font-family="Helvetica,sans-Serif" font-size="10.00">include/d/d_a/d_a_alink</text>
<text text-anchor="middle" x="139.5" y="-74.5" font-family="Helvetica,sans-Serif" font-size="10.00">/d_a_alink.h</text>
</a>
</g>
</g>
<!-- Node3&#45;&gt;Node38 -->
<g id="edge37" class="edge">
<title>Node3&#45;&gt;Node38</title>
<path fill="none" stroke="midnightblue" d="M1959.24,-134C1183.2,-59.03 978.29,-187.28 207.5,-98 204.74,-97.68 201.93,-97.3 199.1,-96.88"/>
<polygon fill="midnightblue" stroke="midnightblue" points="1958.97,-137.49 1969.26,-134.97 1959.65,-130.52 1958.97,-137.49"/>
</g>
<!-- Node40 -->
<g id="node40" class="node">
<title>Node40</title>
<g id="a_node40"><a xlink:href="d__item_8h.html" target="_top" xlink:title=" ">
<polygon fill="white" stroke="black" points="528.5,-67.5 528.5,-97.5 624.5,-97.5 624.5,-67.5 528.5,-67.5"/>
<text text-anchor="start" x="536.5" y="-85.5" font-family="Helvetica,sans-Serif" font-size="10.00">include/d/d_item/d</text>
<text text-anchor="middle" x="576.5" y="-74.5" font-family="Helvetica,sans-Serif" font-size="10.00">_item/d_item.h</text>
</a>
</g>
</g>
<!-- Node3&#45;&gt;Node40 -->
<g id="edge40" class="edge">
<title>Node3&#45;&gt;Node40</title>
<path fill="none" stroke="midnightblue" d="M1959.3,-133.99C1373.98,-75.77 1218.16,-172.89 638.5,-98 634.01,-97.42 629.36,-96.65 624.73,-95.77"/>
<polygon fill="midnightblue" stroke="midnightblue" points="1958.96,-137.48 1969.26,-135 1959.66,-130.51 1958.96,-137.48"/>
</g>
<!-- Node41 -->
<g id="node41" class="node">
<title>Node41</title>
<g id="a_node41"><a xlink:href="f__pc__manager_8h.html" target="_top" xlink:title=" ">
<polygon fill="white" stroke="black" points="217,-67.5 217,-97.5 314,-97.5 314,-67.5 217,-67.5"/>
<text text-anchor="start" x="225" y="-85.5" font-family="Helvetica,sans-Serif" font-size="10.00">include/f/f_pc/f_pc</text>
<text text-anchor="middle" x="265.5" y="-74.5" font-family="Helvetica,sans-Serif" font-size="10.00">_manager.h</text>
</a>
</g>
</g>
<!-- Node3&#45;&gt;Node41 -->
<g id="edge43" class="edge">
<title>Node3&#45;&gt;Node41</title>
<path fill="none" stroke="midnightblue" d="M1959.12,-133.98C1236.73,-63.78 1045.09,-187.41 328.5,-98 323.82,-97.42 318.98,-96.63 314.16,-95.73"/>
<polygon fill="midnightblue" stroke="midnightblue" points="1958.97,-137.48 1969.26,-134.98 1959.65,-130.52 1958.97,-137.48"/>
</g>
<!-- Node38&#45;&gt;Node4 -->
<g id="edge38" class="edge">
<title>Node38&#45;&gt;Node4</title>
<path fill="none" stroke="midnightblue" d="M112.83,-61.34C96.78,-49.21 77.17,-34.39 65,-25.19"/>
<polygon fill="midnightblue" stroke="midnightblue" points="110.75,-64.16 120.84,-67.4 114.97,-58.57 110.75,-64.16"/>
</g>
<!-- Node39 -->
<g id="node39" class="node">
<title>Node39</title>
<g id="a_node39"><a xlink:href="d__a__alink_8cpp.html" target="_top" xlink:title=" ">
<polygon fill="white" stroke="black" points="128,-6 128,-25 247,-25 247,-6 128,-6"/>
<text text-anchor="middle" x="187.5" y="-13" font-family="Helvetica,sans-Serif" font-size="10.00">src/d/d_a/d_a_alink.cpp</text>
</a>
</g>
</g>
<!-- Node38&#45;&gt;Node39 -->
<g id="edge39" class="edge">
<title>Node38&#45;&gt;Node39</title>
<path fill="none" stroke="midnightblue" d="M155.88,-59.32C164.54,-47.6 174.66,-33.88 181.08,-25.19"/>
<polygon fill="midnightblue" stroke="midnightblue" points="153.04,-57.27 149.92,-67.4 158.67,-61.43 153.04,-57.27"/>
</g>
<!-- Node40&#45;&gt;Node6 -->
<g id="edge41" class="edge">
<title>Node40&#45;&gt;Node6</title>
<path fill="none" stroke="midnightblue" d="M553.03,-60.6C542,-50.78 529.16,-39.34 519.31,-30.58"/>
<polygon fill="midnightblue" stroke="midnightblue" points="550.86,-63.36 560.66,-67.4 555.52,-58.13 550.86,-63.36"/>
</g>
<!-- Node40&#45;&gt;Node8 -->
<g id="edge42" class="edge">
<title>Node40&#45;&gt;Node8</title>
<path fill="none" stroke="midnightblue" d="M599.57,-60.67C612.86,-48.67 628.87,-34.22 638.87,-25.19"/>
<polygon fill="midnightblue" stroke="midnightblue" points="597.2,-58.1 592.12,-67.4 601.89,-63.29 597.2,-58.1"/>
</g>
<!-- Node41&#45;&gt;Node25 -->
<g id="edge45" class="edge">
<title>Node41&#45;&gt;Node25</title>
<path fill="none" stroke="midnightblue" d="M288.62,-60.34C301.65,-48.4 317.24,-34.14 327,-25.19"/>
<polygon fill="midnightblue" stroke="midnightblue" points="285.92,-58.06 280.91,-67.4 290.65,-63.22 285.92,-58.06"/>
</g>
<!-- Node41&#45;&gt;Node39 -->
<g id="edge44" class="edge">
<title>Node41&#45;&gt;Node39</title>
<path fill="none" stroke="midnightblue" d="M240.51,-60.67C226.1,-48.67 208.76,-34.22 197.93,-25.19"/>
<polygon fill="midnightblue" stroke="midnightblue" points="238.65,-63.68 248.58,-67.4 243.13,-58.31 238.65,-63.68"/>
</g>
</g>
</svg>
