<?xml version="1.0" encoding="UTF-8" standalone="no"?>
<!DOCTYPE svg PUBLIC "-//W3C//DTD SVG 1.1//EN"
 "http://www.w3.org/Graphics/SVG/1.1/DTD/svg11.dtd">
<!-- Generated by graphviz version 2.46.0 (20210122.1329)
 -->
<!-- Title: src/d/d_kankyo/d_kankyo_data.cpp Pages: 1 -->
<!--zoomable 486 -->
<svg id="main" version="1.1" xmlns="http://www.w3.org/2000/svg" xmlns:xlink="http://www.w3.org/1999/xlink" xml:space="preserve" onload="init(evt)">
<style type="text/css"><![CDATA[
.edge:hover path { stroke: red; }
.edge:hover polygon { stroke: red; fill: red; }
]]></style>
<script type="text/javascript"><![CDATA[
var edges = document.getElementsByTagName('g');
if (edges && edges.length) {
  for (var i=0;i<edges.length;i++) {
    if (edges[i].id.substr(0,4)=='edge') {
      edges[i].setAttribute('class','edge');
    }
  }
}
]]></script>
        <defs>
                <circle id="rim" cx="0" cy="0" r="7"/>
                <circle id="rim2" cx="0" cy="0" r="3.5"/>
                <g id="zoomPlus">
                        <use xlink:href="#rim" fill="#404040">
                                <set attributeName="fill" to="#808080" begin="zoomplus.mouseover" end="zoomplus.mouseout"/>
                        </use>
                        <path d="M-4,0h8M0,-4v8" fill="none" stroke="white" stroke-width="1.5" pointer-events="none"/>
                </g>
                <g id="zoomMin">
                        <use xlink:href="#rim" fill="#404040">
                                <set attributeName="fill" to="#808080" begin="zoomminus.mouseover" end="zoomminus.mouseout"/>
                        </use>
                        <path d="M-4,0h8" fill="none" stroke="white" stroke-width="1.5" pointer-events="none"/>
                </g>
                <g id="dirArrow">
                        <path fill="none" stroke="white" stroke-width="1.5" d="M0,-3.0v7 M-2.5,-0.5L0,-3.0L2.5,-0.5"/>
                </g>
               <g id="resetDef">
                       <use xlink:href="#rim2" fill="#404040">
                               <set attributeName="fill" to="#808080" begin="reset.mouseover" end="reset.mouseout"/>
                       </use>
               </g>
        </defs>

<script type="text/javascript">
var viewWidth = 2218;
var viewHeight = 486;
var sectionId = 'dynsection-0';
</script>
<script xlink:href="svgpan.js"/>
<svg id="graph" class="graph">
<g id="viewport">
<title>src/d/d_kankyo/d_kankyo_data.cpp</title>
<polygon fill="white" stroke="transparent" points="-4,4 -4,-482 2214,-482 2214,4 -4,4"/>
<!-- Node1 -->
<g id="node1" class="node">
<title>Node1</title>
<g id="a_node1"><a xlink:title=" ">
<polygon fill="#bfbfbf" stroke="black" points="1126.5,-447.5 1126.5,-477.5 1253.5,-477.5 1253.5,-447.5 1126.5,-447.5"/>
<text text-anchor="start" x="1134.5" y="-465.5" font-family="Helvetica,sans-Serif" font-size="10.00">src/d/d_kankyo/d_kankyo</text>
<text text-anchor="middle" x="1190" y="-454.5" font-family="Helvetica,sans-Serif" font-size="10.00">_data.cpp</text>
</a>
</g>
</g>
<!-- Node2 -->
<g id="node2" class="node">
<title>Node2</title>
<g id="a_node2"><a xlink:href="global_8h.html" target="_top" xlink:title=" ">
<polygon fill="white" stroke="black" points="258,-386 258,-405 308,-405 308,-386 258,-386"/>
<text text-anchor="middle" x="283" y="-393" font-family="Helvetica,sans-Serif" font-size="10.00">global.h</text>
</a>
</g>
</g>
<!-- Node1&#45;&gt;Node2 -->
<g id="edge1" class="edge">
<title>Node1&#45;&gt;Node2</title>
<path fill="none" stroke="midnightblue" d="M1126.28,-460.65C952.11,-457.89 470.9,-447.11 317,-411 314.49,-410.41 311.92,-409.65 309.38,-408.78"/>
<polygon fill="midnightblue" stroke="midnightblue" points="310.49,-405.46 299.91,-405.07 307.94,-411.97 310.49,-405.46"/>
</g>
<!-- Node19 -->
<g id="node19" class="node">
<title>Node19</title>
<g id="a_node19"><a xlink:title=" ">
<polygon fill="white" stroke="#bfbfbf" points="326,-380.5 326,-410.5 468,-410.5 468,-380.5 326,-380.5"/>
<text text-anchor="start" x="334" y="-398.5" font-family="Helvetica,sans-Serif" font-size="10.00">d/d_kankyo/d_kankyo</text>
<text text-anchor="middle" x="397" y="-387.5" font-family="Helvetica,sans-Serif" font-size="10.00">_data/asm/func_800569DC.s</text>
</a>
</g>
</g>
<!-- Node1&#45;&gt;Node19 -->
<g id="edge34" class="edge">
<title>Node1&#45;&gt;Node19</title>
<path fill="none" stroke="midnightblue" d="M1126.34,-459.31C1003.13,-454.57 723.34,-441.35 478.21,-411.06"/>
<polygon fill="midnightblue" stroke="midnightblue" points="478.39,-407.55 468.04,-409.79 477.53,-414.5 478.39,-407.55"/>
</g>
<!-- Node20 -->
<g id="node20" class="node">
<title>Node20</title>
<g id="a_node20"><a xlink:title=" ">
<polygon fill="white" stroke="#bfbfbf" points="486,-380.5 486,-410.5 626,-410.5 626,-380.5 486,-380.5"/>
<text text-anchor="start" x="494" y="-398.5" font-family="Helvetica,sans-Serif" font-size="10.00">d/d_kankyo/d_kankyo</text>
<text text-anchor="middle" x="556" y="-387.5" font-family="Helvetica,sans-Serif" font-size="10.00">_data/asm/func_800569E8.s</text>
</a>
</g>
</g>
<!-- Node1&#45;&gt;Node20 -->
<g id="edge35" class="edge">
<title>Node1&#45;&gt;Node20</title>
<path fill="none" stroke="midnightblue" d="M1126.11,-457.58C1024.5,-450.93 819.67,-435.82 636.26,-411.09"/>
<polygon fill="midnightblue" stroke="midnightblue" points="636.54,-407.6 626.16,-409.72 635.59,-414.54 636.54,-407.6"/>
</g>
<!-- Node21 -->
<g id="node21" class="node">
<title>Node21</title>
<g id="a_node21"><a xlink:title=" ">
<polygon fill="white" stroke="#bfbfbf" points="644,-380.5 644,-410.5 784,-410.5 784,-380.5 644,-380.5"/>
<text text-anchor="start" x="652" y="-398.5" font-family="Helvetica,sans-Serif" font-size="10.00">d/d_kankyo/d_kankyo</text>
<text text-anchor="middle" x="714" y="-387.5" font-family="Helvetica,sans-Serif" font-size="10.00">_data/asm/func_800569F4.s</text>
</a>
</g>
</g>
<!-- Node1&#45;&gt;Node21 -->
<g id="edge36" class="edge">
<title>Node1&#45;&gt;Node21</title>
<path fill="none" stroke="midnightblue" d="M1126.25,-454.48C1049.77,-445.82 917.44,-430.06 794.17,-411.13"/>
<polygon fill="midnightblue" stroke="midnightblue" points="794.59,-407.66 784.18,-409.59 793.53,-414.57 794.59,-407.66"/>
</g>
<!-- Node22 -->
<g id="node22" class="node">
<title>Node22</title>
<g id="a_node22"><a xlink:title=" ">
<polygon fill="white" stroke="#bfbfbf" points="802,-380.5 802,-410.5 942,-410.5 942,-380.5 802,-380.5"/>
<text text-anchor="start" x="810" y="-398.5" font-family="Helvetica,sans-Serif" font-size="10.00">d/d_kankyo/d_kankyo</text>
<text text-anchor="middle" x="872" y="-387.5" font-family="Helvetica,sans-Serif" font-size="10.00">_data/asm/func_80056A00.s</text>
</a>
</g>
</g>
<!-- Node1&#45;&gt;Node22 -->
<g id="edge37" class="edge">
<title>Node1&#45;&gt;Node22</title>
<path fill="none" stroke="midnightblue" d="M1126.41,-448.5C1075.82,-438.16 1004.78,-423.64 950.62,-412.57"/>
<polygon fill="midnightblue" stroke="midnightblue" points="951.21,-409.12 940.71,-410.54 949.81,-415.98 951.21,-409.12"/>
</g>
<!-- Node23 -->
<g id="node23" class="node">
<title>Node23</title>
<g id="a_node23"><a xlink:title=" ">
<polygon fill="white" stroke="#bfbfbf" points="960,-380.5 960,-410.5 1102,-410.5 1102,-380.5 960,-380.5"/>
<text text-anchor="start" x="968" y="-398.5" font-family="Helvetica,sans-Serif" font-size="10.00">d/d_kankyo/d_kankyo</text>
<text text-anchor="middle" x="1031" y="-387.5" font-family="Helvetica,sans-Serif" font-size="10.00">_data/asm/func_80056A0C.s</text>
</a>
</g>
</g>
<!-- Node1&#45;&gt;Node23 -->
<g id="edge38" class="edge">
<title>Node1&#45;&gt;Node23</title>
<path fill="none" stroke="midnightblue" d="M1155.5,-447.4C1131.85,-437.73 1100.28,-424.82 1074.85,-414.43"/>
<polygon fill="midnightblue" stroke="midnightblue" points="1076.01,-411.12 1065.43,-410.58 1073.37,-417.6 1076.01,-411.12"/>
</g>
<!-- Node24 -->
<g id="node24" class="node">
<title>Node24</title>
<g id="a_node24"><a xlink:title=" ">
<polygon fill="white" stroke="#bfbfbf" points="1120,-380.5 1120,-410.5 1260,-410.5 1260,-380.5 1120,-380.5"/>
<text text-anchor="start" x="1128" y="-398.5" font-family="Helvetica,sans-Serif" font-size="10.00">d/d_kankyo/d_kankyo</text>
<text text-anchor="middle" x="1190" y="-387.5" font-family="Helvetica,sans-Serif" font-size="10.00">_data/asm/func_80056A18.s</text>
</a>
</g>
</g>
<!-- Node1&#45;&gt;Node24 -->
<g id="edge39" class="edge">
<title>Node1&#45;&gt;Node24</title>
<path fill="none" stroke="midnightblue" d="M1190,-447.4C1190,-439.64 1190,-429.81 1190,-420.86"/>
<polygon fill="midnightblue" stroke="midnightblue" points="1193.5,-420.58 1190,-410.58 1186.5,-420.58 1193.5,-420.58"/>
</g>
<!-- Node25 -->
<g id="node25" class="node">
<title>Node25</title>
<g id="a_node25"><a xlink:title=" ">
<polygon fill="white" stroke="#bfbfbf" points="1278,-380.5 1278,-410.5 1418,-410.5 1418,-380.5 1278,-380.5"/>
<text text-anchor="start" x="1286" y="-398.5" font-family="Helvetica,sans-Serif" font-size="10.00">d/d_kankyo/d_kankyo</text>
<text text-anchor="middle" x="1348" y="-387.5" font-family="Helvetica,sans-Serif" font-size="10.00">_data/asm/func_80056A24.s</text>
</a>
</g>
</g>
<!-- Node1&#45;&gt;Node25 -->
<g id="edge40" class="edge">
<title>Node1&#45;&gt;Node25</title>
<path fill="none" stroke="midnightblue" d="M1224.28,-447.4C1247.78,-437.73 1279.15,-424.82 1304.43,-414.43"/>
<polygon fill="midnightblue" stroke="midnightblue" points="1305.87,-417.62 1313.78,-410.58 1303.2,-411.14 1305.87,-417.62"/>
</g>
<!-- Node26 -->
<g id="node26" class="node">
<title>Node26</title>
<g id="a_node26"><a xlink:title=" ">
<polygon fill="white" stroke="#bfbfbf" points="1436,-380.5 1436,-410.5 1576,-410.5 1576,-380.5 1436,-380.5"/>
<text text-anchor="start" x="1444" y="-398.5" font-family="Helvetica,sans-Serif" font-size="10.00">d/d_kankyo/d_kankyo</text>
<text text-anchor="middle" x="1506" y="-387.5" font-family="Helvetica,sans-Serif" font-size="10.00">_data/asm/func_80056A64.s</text>
</a>
</g>
</g>
<!-- Node1&#45;&gt;Node26 -->
<g id="edge41" class="edge">
<title>Node1&#45;&gt;Node26</title>
<path fill="none" stroke="midnightblue" d="M1253.57,-448.42C1303.87,-438.08 1374.35,-423.58 1428.06,-412.53"/>
<polygon fill="midnightblue" stroke="midnightblue" points="1428.8,-415.95 1437.89,-410.51 1427.39,-409.1 1428.8,-415.95"/>
</g>
<!-- Node27 -->
<g id="node27" class="node">
<title>Node27</title>
<g id="a_node27"><a xlink:title=" ">
<polygon fill="white" stroke="#bfbfbf" points="1594,-380.5 1594,-410.5 1734,-410.5 1734,-380.5 1594,-380.5"/>
<text text-anchor="start" x="1602" y="-398.5" font-family="Helvetica,sans-Serif" font-size="10.00">d/d_kankyo/d_kankyo</text>
<text text-anchor="middle" x="1664" y="-387.5" font-family="Helvetica,sans-Serif" font-size="10.00">_data/asm/func_80056A70.s</text>
</a>
</g>
</g>
<!-- Node1&#45;&gt;Node27 -->
<g id="edge42" class="edge">
<title>Node1&#45;&gt;Node27</title>
<path fill="none" stroke="midnightblue" d="M1253.77,-454.43C1329.92,-445.74 1461.37,-429.98 1583.89,-411.12"/>
<polygon fill="midnightblue" stroke="midnightblue" points="1584.48,-414.57 1593.82,-409.59 1583.4,-407.66 1584.48,-414.57"/>
</g>
<!-- Node28 -->
<g id="node28" class="node">
<title>Node28</title>
<g id="a_node28"><a xlink:title=" ">
<polygon fill="white" stroke="#bfbfbf" points="1752,-380.5 1752,-410.5 1894,-410.5 1894,-380.5 1752,-380.5"/>
<text text-anchor="start" x="1760" y="-398.5" font-family="Helvetica,sans-Serif" font-size="10.00">d/d_kankyo/d_kankyo</text>
<text text-anchor="middle" x="1823" y="-387.5" font-family="Helvetica,sans-Serif" font-size="10.00">_data/asm/func_80056A7C.s</text>
</a>
</g>
</g>
<!-- Node1&#45;&gt;Node28 -->
<g id="edge43" class="edge">
<title>Node1&#45;&gt;Node28</title>
<path fill="none" stroke="midnightblue" d="M1253.65,-457.52C1354.88,-450.79 1558.97,-435.57 1741.88,-411.07"/>
<polygon fill="midnightblue" stroke="midnightblue" points="1742.51,-414.52 1751.95,-409.71 1741.57,-407.58 1742.51,-414.52"/>
</g>
<!-- Node29 -->
<g id="node29" class="node">
<title>Node29</title>
<g id="a_node29"><a xlink:title=" ">
<polygon fill="white" stroke="#bfbfbf" points="1912,-380.5 1912,-410.5 2052,-410.5 2052,-380.5 1912,-380.5"/>
<text text-anchor="start" x="1920" y="-398.5" font-family="Helvetica,sans-Serif" font-size="10.00">d/d_kankyo/d_kankyo</text>
<text text-anchor="middle" x="1982" y="-387.5" font-family="Helvetica,sans-Serif" font-size="10.00">_data/asm/func_80056A88.s</text>
</a>
</g>
</g>
<!-- Node1&#45;&gt;Node29 -->
<g id="edge44" class="edge">
<title>Node1&#45;&gt;Node29</title>
<path fill="none" stroke="midnightblue" d="M1253.66,-459.36C1376.88,-454.7 1656.69,-441.61 1901.68,-411.07"/>
<polygon fill="midnightblue" stroke="midnightblue" points="1902.37,-414.51 1911.85,-409.79 1901.49,-407.57 1902.37,-414.51"/>
</g>
<!-- Node30 -->
<g id="node30" class="node">
<title>Node30</title>
<g id="a_node30"><a xlink:title=" ">
<polygon fill="white" stroke="#bfbfbf" points="2070,-380.5 2070,-410.5 2210,-410.5 2210,-380.5 2070,-380.5"/>
<text text-anchor="start" x="2078" y="-398.5" font-family="Helvetica,sans-Serif" font-size="10.00">d/d_kankyo/d_kankyo</text>
<text text-anchor="middle" x="2140" y="-387.5" font-family="Helvetica,sans-Serif" font-size="10.00">_data/asm/func_80056A94.s</text>
</a>
</g>
</g>
<!-- Node1&#45;&gt;Node30 -->
<g id="edge45" class="edge">
<title>Node1&#45;&gt;Node30</title>
<path fill="none" stroke="midnightblue" d="M1253.62,-460.5C1396.25,-457.68 1752.47,-447.41 2059.86,-411.03"/>
<polygon fill="midnightblue" stroke="midnightblue" points="2060.34,-414.5 2069.86,-409.84 2059.51,-407.55 2060.34,-414.5"/>
</g>
<!-- Node3 -->
<g id="node3" class="node">
<title>Node3</title>
<g id="a_node3"><a xlink:href="types_8h.html" target="_top" xlink:title=" ">
<polygon fill="white" stroke="black" points="221.5,-0.5 221.5,-19.5 302.5,-19.5 302.5,-0.5 221.5,-0.5"/>
<text text-anchor="middle" x="262" y="-7.5" font-family="Helvetica,sans-Serif" font-size="10.00">dolphin/types.h</text>
</a>
</g>
</g>
<!-- Node2&#45;&gt;Node3 -->
<g id="edge2" class="edge">
<title>Node2&#45;&gt;Node3</title>
<path fill="none" stroke="midnightblue" d="M257.89,-395.05C188.62,-395.16 0,-385.18 0,-273.5 0,-273.5 0,-273.5 0,-137.5 0,-44.76 134.78,-19.98 211,-13.38"/>
<polygon fill="midnightblue" stroke="midnightblue" points="211.66,-16.84 221.35,-12.56 211.11,-9.86 211.66,-16.84"/>
</g>
<!-- Node4 -->
<g id="node4" class="node">
<title>Node4</title>
<g id="a_node4"><a xlink:href="AR_8h.html" target="_top" xlink:title=" ">
<polygon fill="white" stroke="black" points="28.5,-129 28.5,-148 77.5,-148 77.5,-129 28.5,-129"/>
<text text-anchor="middle" x="53" y="-136" font-family="Helvetica,sans-Serif" font-size="10.00">ar/AR.h</text>
</a>
</g>
</g>
<!-- Node2&#45;&gt;Node4 -->
<g id="edge3" class="edge">
<title>Node2&#45;&gt;Node4</title>
<path fill="none" stroke="midnightblue" d="M257.73,-391.18C211.17,-384.53 114.51,-368.15 92,-344 43.32,-291.79 46.54,-198.42 50.55,-158.47"/>
<polygon fill="midnightblue" stroke="midnightblue" points="54.06,-158.63 51.72,-148.3 47.1,-157.84 54.06,-158.63"/>
</g>
<!-- Node5 -->
<g id="node5" class="node">
<title>Node5</title>
<g id="a_node5"><a xlink:href="ARQ_8h.html" target="_top" xlink:title=" ">
<polygon fill="white" stroke="black" points="87,-62 87,-81 143,-81 143,-62 87,-62"/>
<text text-anchor="middle" x="115" y="-69" font-family="Helvetica,sans-Serif" font-size="10.00">ar/ARQ.h</text>
</a>
</g>
</g>
<!-- Node2&#45;&gt;Node5 -->
<g id="edge5" class="edge">
<title>Node2&#45;&gt;Node5</title>
<path fill="none" stroke="midnightblue" d="M257.64,-389.53C208.7,-378.3 106,-346.09 106,-273.5 106,-273.5 106,-273.5 106,-204.5 106,-164.06 110.26,-116.82 112.91,-91.25"/>
<polygon fill="midnightblue" stroke="midnightblue" points="116.41,-91.45 114,-81.13 109.45,-90.7 116.41,-91.45"/>
</g>
<!-- Node6 -->
<g id="node6" class="node">
<title>Node6</title>
<g id="a_node6"><a xlink:href="functions_8h.html" target="_top" xlink:title=" ">
<polygon fill="white" stroke="black" points="172,-324.5 172,-343.5 236,-343.5 236,-324.5 172,-324.5"/>
<text text-anchor="middle" x="204" y="-331.5" font-family="Helvetica,sans-Serif" font-size="10.00">functions.h</text>
</a>
</g>
</g>
<!-- Node2&#45;&gt;Node6 -->
<g id="edge7" class="edge">
<title>Node2&#45;&gt;Node6</title>
<path fill="none" stroke="midnightblue" d="M271.68,-385.98C259.13,-376.52 238.65,-361.1 223.5,-349.69"/>
<polygon fill="midnightblue" stroke="midnightblue" points="225.39,-346.73 215.3,-343.51 221.18,-352.32 225.39,-346.73"/>
</g>
<!-- Node8 -->
<g id="node8" class="node">
<title>Node8</title>
<g id="a_node8"><a xlink:href="mwcc_8h.html" target="_top" xlink:title=" ">
<polygon fill="white" stroke="black" points="270,-263 270,-282 320,-282 320,-263 270,-263"/>
<text text-anchor="middle" x="295" y="-270" font-family="Helvetica,sans-Serif" font-size="10.00">mwcc.h</text>
</a>
</g>
</g>
<!-- Node2&#45;&gt;Node8 -->
<g id="edge15" class="edge">
<title>Node2&#45;&gt;Node8</title>
<path fill="none" stroke="midnightblue" d="M283.86,-385.8C285.79,-366.35 290.49,-318.99 293.13,-292.4"/>
<polygon fill="midnightblue" stroke="midnightblue" points="296.64,-292.42 294.14,-282.12 289.67,-291.73 296.64,-292.42"/>
</g>
<!-- Node9 -->
<g id="node9" class="node">
<title>Node9</title>
<g id="a_node9"><a xlink:href="OS_8h.html" target="_top" xlink:title=" ">
<polygon fill="white" stroke="black" points="186,-263 186,-282 238,-282 238,-263 186,-263"/>
<text text-anchor="middle" x="212" y="-270" font-family="Helvetica,sans-Serif" font-size="10.00">os/OS.h</text>
</a>
</g>
</g>
<!-- Node2&#45;&gt;Node9 -->
<g id="edge16" class="edge">
<title>Node2&#45;&gt;Node9</title>
<path fill="none" stroke="midnightblue" d="M278.55,-385.69C271.69,-372.21 257.94,-345.75 245,-324 238.26,-312.68 230.18,-300.29 223.7,-290.61"/>
<polygon fill="midnightblue" stroke="midnightblue" points="226.57,-288.62 218.07,-282.3 220.78,-292.54 226.57,-288.62"/>
</g>
<!-- Node11 -->
<g id="node11" class="node">
<title>Node11</title>
<g id="a_node11"><a xlink:href="variables_8h.html" target="_top" xlink:title=" ">
<polygon fill="white" stroke="black" points="496.5,-324.5 496.5,-343.5 559.5,-343.5 559.5,-324.5 496.5,-324.5"/>
<text text-anchor="middle" x="528" y="-331.5" font-family="Helvetica,sans-Serif" font-size="10.00">variables.h</text>
</a>
</g>
</g>
<!-- Node2&#45;&gt;Node11 -->
<g id="edge17" class="edge">
<title>Node2&#45;&gt;Node11</title>
<path fill="none" stroke="midnightblue" d="M301.46,-385.86C306.43,-383.75 311.86,-381.63 317,-380 374.57,-361.77 443.3,-348.66 486.31,-341.44"/>
<polygon fill="midnightblue" stroke="midnightblue" points="487.11,-344.86 496.41,-339.78 485.97,-337.95 487.11,-344.86"/>
</g>
<!-- Node4&#45;&gt;Node3 -->
<g id="edge4" class="edge">
<title>Node4&#45;&gt;Node3</title>
<path fill="none" stroke="midnightblue" d="M53.01,-128.94C53.53,-112.35 57.12,-75.71 78,-56 97.05,-38.02 163.65,-24.99 211.24,-17.71"/>
<polygon fill="midnightblue" stroke="midnightblue" points="212,-21.14 221.38,-16.21 210.97,-14.22 212,-21.14"/>
</g>
<!-- Node5&#45;&gt;Node3 -->
<g id="edge6" class="edge">
<title>Node5&#45;&gt;Node3</title>
<path fill="none" stroke="midnightblue" d="M136.06,-61.98C161.06,-51.86 202.94,-34.9 231.49,-23.35"/>
<polygon fill="midnightblue" stroke="midnightblue" points="233.02,-26.51 240.98,-19.51 230.39,-20.02 233.02,-26.51"/>
</g>
<!-- Node7 -->
<g id="node7" class="node">
<title>Node7</title>
<g id="a_node7"><a xlink:href="mtx__vec_8h.html" target="_top" xlink:title=" ">
<polygon fill="white" stroke="black" points="134.5,-129 134.5,-148 195.5,-148 195.5,-129 134.5,-129"/>
<text text-anchor="middle" x="165" y="-136" font-family="Helvetica,sans-Serif" font-size="10.00">mtx_vec.h</text>
</a>
</g>
</g>
<!-- Node6&#45;&gt;Node7 -->
<g id="edge8" class="edge">
<title>Node6&#45;&gt;Node7</title>
<path fill="none" stroke="midnightblue" d="M197.38,-324.19C191.16,-315.46 182.06,-301.48 177,-288 160.47,-243.94 161.38,-187.5 163.28,-158.53"/>
<polygon fill="midnightblue" stroke="midnightblue" points="166.8,-158.47 164.08,-148.23 159.82,-157.93 166.8,-158.47"/>
</g>
<!-- Node6&#45;&gt;Node8 -->
<g id="edge10" class="edge">
<title>Node6&#45;&gt;Node8</title>
<path fill="none" stroke="midnightblue" d="M217.04,-324.48C231.77,-314.84 255.97,-299.02 273.51,-287.55"/>
<polygon fill="midnightblue" stroke="midnightblue" points="275.53,-290.41 281.99,-282.01 271.7,-284.55 275.53,-290.41"/>
</g>
<!-- Node6&#45;&gt;Node9 -->
<g id="edge11" class="edge">
<title>Node6&#45;&gt;Node9</title>
<path fill="none" stroke="midnightblue" d="M205.15,-324.48C206.27,-316.08 208.04,-302.98 209.49,-292.16"/>
<polygon fill="midnightblue" stroke="midnightblue" points="212.99,-292.39 210.86,-282.01 206.05,-291.45 212.99,-292.39"/>
</g>
<!-- Node7&#45;&gt;Node3 -->
<g id="edge9" class="edge">
<title>Node7&#45;&gt;Node3</title>
<path fill="none" stroke="midnightblue" d="M168.58,-128.8C175.24,-113.2 190.67,-79.86 210,-56 219.16,-44.69 231.38,-33.95 241.68,-25.8"/>
<polygon fill="midnightblue" stroke="midnightblue" points="243.95,-28.47 249.76,-19.61 239.7,-22.91 243.95,-28.47"/>
</g>
<!-- Node9&#45;&gt;Node3 -->
<g id="edge12" class="edge">
<title>Node9&#45;&gt;Node3</title>
<path fill="none" stroke="midnightblue" d="M218.83,-262.78C225.96,-253.15 236.81,-236.9 242,-221 264.05,-153.46 264.16,-67.68 262.93,-30.1"/>
<polygon fill="midnightblue" stroke="midnightblue" points="266.41,-29.52 262.51,-19.67 259.41,-29.81 266.41,-29.52"/>
</g>
<!-- Node10 -->
<g id="node10" class="node">
<title>Node10</title>
<g id="a_node10"><a xlink:href="dvd_8h.html" target="_top" xlink:title=" ">
<polygon fill="white" stroke="black" points="174.5,-196 174.5,-215 233.5,-215 233.5,-196 174.5,-196"/>
<text text-anchor="middle" x="204" y="-203" font-family="Helvetica,sans-Serif" font-size="10.00">dvd/dvd.h</text>
</a>
</g>
</g>
<!-- Node9&#45;&gt;Node10 -->
<g id="edge13" class="edge">
<title>Node9&#45;&gt;Node10</title>
<path fill="none" stroke="midnightblue" d="M210.92,-262.73C209.75,-253.18 207.83,-237.62 206.31,-225.28"/>
<polygon fill="midnightblue" stroke="midnightblue" points="209.76,-224.62 205.06,-215.13 202.81,-225.48 209.76,-224.62"/>
</g>
<!-- Node10&#45;&gt;Node3 -->
<g id="edge14" class="edge">
<title>Node10&#45;&gt;Node3</title>
<path fill="none" stroke="midnightblue" d="M206.54,-195.78C213.22,-172.86 231.9,-109 248,-56 250.68,-47.18 253.71,-37.41 256.27,-29.23"/>
<polygon fill="midnightblue" stroke="midnightblue" points="259.63,-30.21 259.28,-19.62 252.95,-28.11 259.63,-30.21"/>
</g>
<!-- Node12 -->
<g id="node12" class="node">
<title>Node12</title>
<g id="a_node12"><a xlink:href="JSUList_8h.html" target="_top" xlink:title=" ">
<polygon fill="white" stroke="black" points="366,-56.5 366,-86.5 502,-86.5 502,-56.5 366,-56.5"/>
<text text-anchor="start" x="374" y="-74.5" font-family="Helvetica,sans-Serif" font-size="10.00">JSystem/JSupport/JSUList</text>
<text text-anchor="middle" x="434" y="-63.5" font-family="Helvetica,sans-Serif" font-size="10.00">/JSUList.h</text>
</a>
</g>
</g>
<!-- Node11&#45;&gt;Node12 -->
<g id="edge18" class="edge">
<title>Node11&#45;&gt;Node12</title>
<path fill="none" stroke="midnightblue" d="M519.69,-324.18C512.25,-315.65 501.78,-302.01 497,-288 473.28,-218.49 519.06,-189.55 488,-123 482.57,-111.37 473.14,-101.12 463.67,-92.95"/>
<polygon fill="midnightblue" stroke="midnightblue" points="465.77,-90.14 455.79,-86.58 461.37,-95.59 465.77,-90.14"/>
</g>
<!-- Node13 -->
<g id="node13" class="node">
<title>Node13</title>
<g id="a_node13"><a xlink:href="JUTXfb_8h.html" target="_top" xlink:title=" ">
<polygon fill="white" stroke="black" points="506.5,-257.5 506.5,-287.5 631.5,-287.5 631.5,-257.5 506.5,-257.5"/>
<text text-anchor="start" x="514.5" y="-275.5" font-family="Helvetica,sans-Serif" font-size="10.00">JSystem/JUtility/JUTXfb</text>
<text text-anchor="middle" x="569" y="-264.5" font-family="Helvetica,sans-Serif" font-size="10.00">/JUTXfb.h</text>
</a>
</g>
</g>
<!-- Node11&#45;&gt;Node13 -->
<g id="edge20" class="edge">
<title>Node11&#45;&gt;Node13</title>
<path fill="none" stroke="midnightblue" d="M533.87,-324.48C539.01,-317.02 546.71,-305.85 553.59,-295.87"/>
<polygon fill="midnightblue" stroke="midnightblue" points="556.55,-297.74 559.34,-287.52 550.78,-293.77 556.55,-297.74"/>
</g>
<!-- Node17 -->
<g id="node17" class="node">
<title>Node17</title>
<g id="a_node17"><a xlink:href="c__xyz_8h.html" target="_top" xlink:title=" ">
<polygon fill="white" stroke="black" points="649.5,-263 649.5,-282 756.5,-282 756.5,-263 649.5,-263"/>
<text text-anchor="middle" x="703" y="-270" font-family="Helvetica,sans-Serif" font-size="10.00">SComponent/c_xyz.h</text>
</a>
</g>
</g>
<!-- Node11&#45;&gt;Node17 -->
<g id="edge30" class="edge">
<title>Node11&#45;&gt;Node17</title>
<path fill="none" stroke="midnightblue" d="M553.07,-324.48C583.35,-314.18 634.44,-296.81 668.44,-285.25"/>
<polygon fill="midnightblue" stroke="midnightblue" points="669.63,-288.54 677.97,-282.01 667.38,-281.91 669.63,-288.54"/>
</g>
<!-- Node12&#45;&gt;Node3 -->
<g id="edge19" class="edge">
<title>Node12&#45;&gt;Node3</title>
<path fill="none" stroke="midnightblue" d="M393.24,-56.4C363.78,-46.21 324.41,-32.59 296.5,-22.93"/>
<polygon fill="midnightblue" stroke="midnightblue" points="297.37,-19.53 286.78,-19.57 295.08,-26.15 297.37,-19.53"/>
</g>
<!-- Node13&#45;&gt;Node3 -->
<g id="edge27" class="edge">
<title>Node13&#45;&gt;Node3</title>
<path fill="none" stroke="midnightblue" d="M569.9,-257.36C571.54,-218.72 570.33,-110.54 511,-56 482.78,-30.06 377.3,-18.57 313.02,-13.89"/>
<polygon fill="midnightblue" stroke="midnightblue" points="312.91,-10.37 302.69,-13.17 312.43,-17.36 312.91,-10.37"/>
</g>
<!-- Node14 -->
<g id="node14" class="node">
<title>Node14</title>
<g id="a_node14"><a xlink:href="JKRHeap_8h.html" target="_top" xlink:title=" ">
<polygon fill="white" stroke="black" points="320,-190.5 320,-220.5 456,-220.5 456,-190.5 320,-190.5"/>
<text text-anchor="start" x="328" y="-208.5" font-family="Helvetica,sans-Serif" font-size="10.00">JSystem/JKernel/JKRHeap</text>
<text text-anchor="middle" x="388" y="-197.5" font-family="Helvetica,sans-Serif" font-size="10.00">/JKRHeap.h</text>
</a>
</g>
</g>
<!-- Node13&#45;&gt;Node14 -->
<g id="edge21" class="edge">
<title>Node13&#45;&gt;Node14</title>
<path fill="none" stroke="midnightblue" d="M529.73,-257.4C502.45,-247.6 465.92,-234.48 436.77,-224.02"/>
<polygon fill="midnightblue" stroke="midnightblue" points="437.79,-220.66 427.2,-220.58 435.43,-227.25 437.79,-220.66"/>
</g>
<!-- Node16 -->
<g id="node16" class="node">
<title>Node16</title>
<g id="a_node16"><a xlink:href="GX_8h.html" target="_top" xlink:title=" ">
<polygon fill="white" stroke="black" points="574.5,-62 574.5,-81 625.5,-81 625.5,-62 574.5,-62"/>
<text text-anchor="middle" x="600" y="-69" font-family="Helvetica,sans-Serif" font-size="10.00">gx/GX.h</text>
</a>
</g>
</g>
<!-- Node13&#45;&gt;Node16 -->
<g id="edge28" class="edge">
<title>Node13&#45;&gt;Node16</title>
<path fill="none" stroke="midnightblue" d="M571.23,-257.19C576.73,-221.91 590.92,-130.78 597.08,-91.25"/>
<polygon fill="midnightblue" stroke="midnightblue" points="600.54,-91.78 598.62,-81.36 593.62,-90.7 600.54,-91.78"/>
</g>
<!-- Node14&#45;&gt;Node2 -->
<g id="edge26" class="edge">
<title>Node14&#45;&gt;Node2</title>
<path fill="none" stroke="midnightblue" d="M380.07,-220.7C361.18,-254.53 313.56,-339.78 292.86,-376.84"/>
<polygon fill="midnightblue" stroke="midnightblue" points="289.6,-375.5 287.78,-385.93 295.72,-378.91 289.6,-375.5"/>
</g>
<!-- Node14&#45;&gt;Node3 -->
<g id="edge25" class="edge">
<title>Node14&#45;&gt;Node3</title>
<path fill="none" stroke="midnightblue" d="M361.89,-190.31C347.62,-181.45 330.55,-168.9 319,-154 303.27,-133.7 279.03,-63.28 267.93,-29.44"/>
<polygon fill="midnightblue" stroke="midnightblue" points="271.23,-28.27 264.81,-19.84 264.57,-30.44 271.23,-28.27"/>
</g>
<!-- Node15 -->
<g id="node15" class="node">
<title>Node15</title>
<g id="a_node15"><a xlink:href="JKRDisposer_8h.html" target="_top" xlink:title=" ">
<polygon fill="white" stroke="black" points="328.5,-123.5 328.5,-153.5 479.5,-153.5 479.5,-123.5 328.5,-123.5"/>
<text text-anchor="start" x="336.5" y="-141.5" font-family="Helvetica,sans-Serif" font-size="10.00">JSystem/JKernel/JKRDisposer</text>
<text text-anchor="middle" x="404" y="-130.5" font-family="Helvetica,sans-Serif" font-size="10.00">/JKRDisposer.h</text>
</a>
</g>
</g>
<!-- Node14&#45;&gt;Node15 -->
<g id="edge22" class="edge">
<title>Node14&#45;&gt;Node15</title>
<path fill="none" stroke="midnightblue" d="M391.47,-190.4C393.4,-182.56 395.85,-172.6 398.08,-163.57"/>
<polygon fill="midnightblue" stroke="midnightblue" points="401.54,-164.12 400.54,-153.58 394.75,-162.45 401.54,-164.12"/>
</g>
<!-- Node15&#45;&gt;Node3 -->
<g id="edge24" class="edge">
<title>Node15&#45;&gt;Node3</title>
<path fill="none" stroke="midnightblue" d="M388.49,-123.26C370.63,-106.91 340.36,-79.33 314,-56 302.69,-45.98 289.85,-34.87 279.76,-26.2"/>
<polygon fill="midnightblue" stroke="midnightblue" points="281.89,-23.42 272.03,-19.56 277.34,-28.73 281.89,-23.42"/>
</g>
<!-- Node15&#45;&gt;Node12 -->
<g id="edge23" class="edge">
<title>Node15&#45;&gt;Node12</title>
<path fill="none" stroke="midnightblue" d="M410.51,-123.4C414.24,-115.3 419.03,-104.94 423.3,-95.69"/>
<polygon fill="midnightblue" stroke="midnightblue" points="426.49,-97.12 427.5,-86.58 420.13,-94.19 426.49,-97.12"/>
</g>
<!-- Node16&#45;&gt;Node3 -->
<g id="edge29" class="edge">
<title>Node16&#45;&gt;Node3</title>
<path fill="none" stroke="midnightblue" d="M578.65,-61.88C572.69,-59.71 566.16,-57.56 560,-56 474.61,-34.3 372.62,-21.68 312.81,-15.58"/>
<polygon fill="midnightblue" stroke="midnightblue" points="312.81,-12.06 302.51,-14.55 312.11,-19.03 312.81,-12.06"/>
</g>
<!-- Node17&#45;&gt;Node2 -->
<g id="edge33" class="edge">
<title>Node17&#45;&gt;Node2</title>
<path fill="none" stroke="midnightblue" d="M690.24,-282.07C667.02,-297.22 615.81,-328.59 568,-344 460.74,-378.58 425.53,-349.64 317,-380 314.71,-380.64 312.36,-381.4 310.03,-382.23"/>
<polygon fill="midnightblue" stroke="midnightblue" points="308.7,-379 300.68,-385.93 311.27,-385.51 308.7,-379"/>
</g>
<!-- Node18 -->
<g id="node18" class="node">
<title>Node18</title>
<g id="a_node18"><a xlink:href="c__math_8h.html" target="_top" xlink:title=" ">
<polygon fill="white" stroke="black" points="686,-196 686,-215 802,-215 802,-196 686,-196"/>
<text text-anchor="middle" x="744" y="-203" font-family="Helvetica,sans-Serif" font-size="10.00">SComponent/c_math.h</text>
</a>
</g>
</g>
<!-- Node17&#45;&gt;Node18 -->
<g id="edge31" class="edge">
<title>Node17&#45;&gt;Node18</title>
<path fill="none" stroke="midnightblue" d="M708.53,-262.73C714.8,-252.79 725.18,-236.34 733.09,-223.79"/>
<polygon fill="midnightblue" stroke="midnightblue" points="736.18,-225.45 738.56,-215.13 730.26,-221.72 736.18,-225.45"/>
</g>
<!-- Node18&#45;&gt;Node2 -->
<g id="edge32" class="edge">
<title>Node18&#45;&gt;Node2</title>
<path fill="none" stroke="midnightblue" d="M750.67,-215.18C761.98,-231.04 782.2,-265.17 766,-288 648.13,-454.14 513.67,-326.94 317,-380 314.7,-380.62 312.35,-381.37 310.02,-382.19"/>
<polygon fill="midnightblue" stroke="midnightblue" points="308.69,-378.95 300.67,-385.86 311.25,-385.46 308.69,-378.95"/>
</g>
</g>
</svg>
        <g id="navigator" transform="translate(0 0)" fill="#404254">
                <rect fill="#f2f5e9" fill-opacity="0.5" stroke="#606060" stroke-width=".5" x="0" y="0" width="60" height="60"/>
                <use id="zoomplus" xlink:href="#zoomPlus" x="17" y="9" onmousedown="handleZoom(evt,'in')"/>
                <use id="zoomminus" xlink:href="#zoomMin" x="42" y="9" onmousedown="handleZoom(evt,'out')"/>
                <use id="reset" xlink:href="#resetDef" x="30" y="36" onmousedown="handleReset()"/>
                <g id="arrowUp" xlink:href="#dirArrow" transform="translate(30 24)" onmousedown="handlePan(0,-1)">
                  <use xlink:href="#rim" fill="#404040">
                        <set attributeName="fill" to="#808080" begin="arrowUp.mouseover" end="arrowUp.mouseout"/>
                  </use>
                  <path fill="none" stroke="white" stroke-width="1.5" d="M0,-3.0v7 M-2.5,-0.5L0,-3.0L2.5,-0.5"/>
                </g>
                <g id="arrowRight" xlink:href="#dirArrow" transform="rotate(90) translate(36 -43)" onmousedown="handlePan(1,0)">
                  <use xlink:href="#rim" fill="#404040">
                        <set attributeName="fill" to="#808080" begin="arrowRight.mouseover" end="arrowRight.mouseout"/>
                  </use>
                  <path fill="none" stroke="white" stroke-width="1.5" d="M0,-3.0v7 M-2.5,-0.5L0,-3.0L2.5,-0.5"/>
                </g>
                <g id="arrowDown" xlink:href="#dirArrow" transform="rotate(180) translate(-30 -48)" onmousedown="handlePan(0,1)">
                  <use xlink:href="#rim" fill="#404040">
                        <set attributeName="fill" to="#808080" begin="arrowDown.mouseover" end="arrowDown.mouseout"/>
                  </use>
                  <path fill="none" stroke="white" stroke-width="1.5" d="M0,-3.0v7 M-2.5,-0.5L0,-3.0L2.5,-0.5"/>
                </g>
                <g id="arrowLeft" xlink:href="#dirArrow" transform="rotate(270) translate(-36 17)" onmousedown="handlePan(-1,0)">
                  <use xlink:href="#rim" fill="#404040">
                        <set attributeName="fill" to="#808080" begin="arrowLeft.mouseover" end="arrowLeft.mouseout"/>
                  </use>
                  <path fill="none" stroke="white" stroke-width="1.5" d="M0,-3.0v7 M-2.5,-0.5L0,-3.0L2.5,-0.5"/>
                </g>
        </g>
        <svg viewBox="0 0 15 15" width="100%" height="30px" preserveAspectRatio="xMaxYMin meet">
         <g id="arrow_out" transform="scale(0.3 0.3)">
          <a xlink:href="d__kankyo__data_8cpp__incl_org.svg" target="_base">
           <rect id="button" ry="5" rx="5" y="6" x="6" height="38" width="38"
                fill="#f2f5e9" fill-opacity="0.5" stroke="#606060" stroke-width="1.0"/>
           <path id="arrow"
             d="M 11.500037,31.436501 C 11.940474,20.09759 22.043105,11.32322 32.158766,21.979434 L 37.068811,17.246167 C 37.068811,17.246167 37.088388,32 37.088388,32 L 22.160133,31.978069 C 22.160133,31.978069 26.997745,27.140456 26.997745,27.140456 C 18.528582,18.264221 13.291696,25.230495 11.500037,31.436501 z"
             style="fill:#404040;"/>
          </a>
         </g>
        </svg>
</svg>
