<?xml version="1.0" encoding="UTF-8" standalone="no"?>
<!DOCTYPE svg PUBLIC "-//W3C//DTD SVG 1.1//EN"
 "http://www.w3.org/Graphics/SVG/1.1/DTD/svg11.dtd">
<!-- Generated by graphviz version 2.46.0 (20210122.1329)
 -->
<!-- Title: include/d/d_lib/d_lib.h Pages: 1 -->
<!--zoomable 732 -->
<svg id="main" version="1.1" xmlns="http://www.w3.org/2000/svg" xmlns:xlink="http://www.w3.org/1999/xlink" xml:space="preserve" onload="init(evt)">
<style type="text/css"><![CDATA[
.edge:hover path { stroke: red; }
.edge:hover polygon { stroke: red; fill: red; }
]]></style>
<script type="text/javascript"><![CDATA[
var edges = document.getElementsByTagName('g');
if (edges && edges.length) {
  for (var i=0;i<edges.length;i++) {
    if (edges[i].id.substr(0,4)=='edge') {
      edges[i].setAttribute('class','edge');
    }
  }
}
]]></script>
        <defs>
                <circle id="rim" cx="0" cy="0" r="7"/>
                <circle id="rim2" cx="0" cy="0" r="3.5"/>
                <g id="zoomPlus">
                        <use xlink:href="#rim" fill="#404040">
                                <set attributeName="fill" to="#808080" begin="zoomplus.mouseover" end="zoomplus.mouseout"/>
                        </use>
                        <path d="M-4,0h8M0,-4v8" fill="none" stroke="white" stroke-width="1.5" pointer-events="none"/>
                </g>
                <g id="zoomMin">
                        <use xlink:href="#rim" fill="#404040">
                                <set attributeName="fill" to="#808080" begin="zoomminus.mouseover" end="zoomminus.mouseout"/>
                        </use>
                        <path d="M-4,0h8" fill="none" stroke="white" stroke-width="1.5" pointer-events="none"/>
                </g>
                <g id="dirArrow">
                        <path fill="none" stroke="white" stroke-width="1.5" d="M0,-3.0v7 M-2.5,-0.5L0,-3.0L2.5,-0.5"/>
                </g>
               <g id="resetDef">
                       <use xlink:href="#rim2" fill="#404040">
                               <set attributeName="fill" to="#808080" begin="reset.mouseover" end="reset.mouseout"/>
                       </use>
               </g>
        </defs>

<script type="text/javascript">
var viewWidth = 1321;
var viewHeight = 732;
var sectionId = 'dynsection-0';
</script>
<script xlink:href="svgpan.js"/>
<svg id="graph" class="graph">
<g id="viewport">
<title>include/d/d_lib/d_lib.h</title>
<polygon fill="white" stroke="transparent" points="-4,4 -4,-728 1317,-728 1317,4 -4,4"/>
<!-- Node1 -->
<g id="node1" class="node">
<title>Node1</title>
<g id="a_node1"><a xlink:title=" ">
<polygon fill="#bfbfbf" stroke="black" points="1067,-704.5 1067,-723.5 1177,-723.5 1177,-704.5 1067,-704.5"/>
<text text-anchor="middle" x="1122" y="-711.5" font-family="Helvetica,sans-Serif" font-size="10.00">include/d/d_lib/d_lib.h</text>
</a>
</g>
</g>
<!-- Node2 -->
<g id="node2" class="node">
<title>Node2</title>
<g id="a_node2"><a xlink:href="JKRAramArchive_8h.html" target="_top" xlink:title=" ">
<polygon fill="white" stroke="black" points="68.5,-637.5 68.5,-667.5 237.5,-667.5 237.5,-637.5 68.5,-637.5"/>
<text text-anchor="start" x="76.5" y="-655.5" font-family="Helvetica,sans-Serif" font-size="10.00">JSystem/JKernel/JKRAramArchive</text>
<text text-anchor="middle" x="153" y="-644.5" font-family="Helvetica,sans-Serif" font-size="10.00">/JKRAramArchive.h</text>
</a>
</g>
</g>
<!-- Node1&#45;&gt;Node2 -->
<g id="edge1" class="edge">
<title>Node1&#45;&gt;Node2</title>
<path fill="none" stroke="midnightblue" d="M1066.77,-709.61C907.83,-699.85 447.89,-671.61 247.82,-659.32"/>
<polygon fill="midnightblue" stroke="midnightblue" points="247.82,-655.82 237.62,-658.7 247.39,-662.8 247.82,-655.82"/>
</g>
<!-- Node11 -->
<g id="node11" class="node">
<title>Node11</title>
<g id="a_node11"><a xlink:href="global_8h.html" target="_top" xlink:title=" ">
<polygon fill="white" stroke="black" points="932,-380.5 932,-399.5 982,-399.5 982,-380.5 932,-380.5"/>
<text text-anchor="middle" x="957" y="-387.5" font-family="Helvetica,sans-Serif" font-size="10.00">global.h</text>
</a>
</g>
</g>
<!-- Node1&#45;&gt;Node11 -->
<g id="edge50" class="edge">
<title>Node1&#45;&gt;Node11</title>
<path fill="none" stroke="midnightblue" d="M1105.77,-704.27C1075.17,-686.49 1012,-642.96 1012,-586.5 1012,-586.5 1012,-586.5 1012,-517.5 1012,-475.22 985.84,-431.09 969.6,-407.77"/>
<polygon fill="midnightblue" stroke="midnightblue" points="972.43,-405.7 963.74,-399.64 966.75,-409.8 972.43,-405.7"/>
</g>
<!-- Node21 -->
<g id="node21" class="node">
<title>Node21</title>
<g id="a_node21"><a xlink:href="c__xyz_8h.html" target="_top" xlink:title=" ">
<polygon fill="white" stroke="black" points="1023.5,-263 1023.5,-282 1130.5,-282 1130.5,-263 1023.5,-263"/>
<text text-anchor="middle" x="1077" y="-270" font-family="Helvetica,sans-Serif" font-size="10.00">SComponent/c_xyz.h</text>
</a>
</g>
</g>
<!-- Node1&#45;&gt;Node21 -->
<g id="edge48" class="edge">
<title>Node1&#45;&gt;Node21</title>
<path fill="none" stroke="midnightblue" d="M1130.23,-704.29C1147.72,-684.82 1187,-635.64 1187,-586.5 1187,-586.5 1187,-586.5 1187,-389 1187,-341.11 1136.81,-305.22 1104.23,-286.97"/>
<polygon fill="midnightblue" stroke="midnightblue" points="1105.63,-283.74 1095.16,-282.08 1102.31,-289.91 1105.63,-283.74"/>
</g>
<!-- Node25 -->
<g id="node25" class="node">
<title>Node25</title>
<g id="a_node25"><a xlink:href="f__op__actor_8h.html" target="_top" xlink:title=" ">
<polygon fill="white" stroke="black" points="1215,-643 1215,-662 1313,-662 1313,-643 1215,-643"/>
<text text-anchor="middle" x="1264" y="-650" font-family="Helvetica,sans-Serif" font-size="10.00">f/f_op/f_op_actor.h</text>
</a>
</g>
</g>
<!-- Node1&#45;&gt;Node25 -->
<g id="edge49" class="edge">
<title>Node1&#45;&gt;Node25</title>
<path fill="none" stroke="midnightblue" d="M1142.35,-704.48C1166.39,-694.4 1206.6,-677.55 1234.16,-666"/>
<polygon fill="midnightblue" stroke="midnightblue" points="1235.82,-669.1 1243.69,-662.01 1233.12,-662.65 1235.82,-669.1"/>
</g>
<!-- Node3 -->
<g id="node3" class="node">
<title>Node3</title>
<g id="a_node3"><a xlink:href="JKRArchive_8h.html" target="_top" xlink:title=" ">
<polygon fill="white" stroke="black" points="80,-570.5 80,-600.5 226,-600.5 226,-570.5 80,-570.5"/>
<text text-anchor="start" x="88" y="-588.5" font-family="Helvetica,sans-Serif" font-size="10.00">JSystem/JKernel/JKRArchive</text>
<text text-anchor="middle" x="153" y="-577.5" font-family="Helvetica,sans-Serif" font-size="10.00">/JKRArchive.h</text>
</a>
</g>
</g>
<!-- Node2&#45;&gt;Node3 -->
<g id="edge2" class="edge">
<title>Node2&#45;&gt;Node3</title>
<path fill="none" stroke="midnightblue" d="M153,-637.4C153,-629.64 153,-619.81 153,-610.86"/>
<polygon fill="midnightblue" stroke="midnightblue" points="156.5,-610.58 153,-600.58 149.5,-610.58 156.5,-610.58"/>
</g>
<!-- Node7 -->
<g id="node7" class="node">
<title>Node7</title>
<g id="a_node7"><a xlink:href="types_8h.html" target="_top" xlink:title=" ">
<polygon fill="white" stroke="black" points="605.5,-0.5 605.5,-19.5 686.5,-19.5 686.5,-0.5 605.5,-0.5"/>
<text text-anchor="middle" x="646" y="-7.5" font-family="Helvetica,sans-Serif" font-size="10.00">dolphin/types.h</text>
</a>
</g>
</g>
<!-- Node2&#45;&gt;Node7 -->
<g id="edge47" class="edge">
<title>Node2&#45;&gt;Node7</title>
<path fill="none" stroke="midnightblue" d="M113.6,-637.35C68.27,-618.23 0,-579.49 0,-519.5 0,-519.5 0,-519.5 0,-137.5 0,-88.27 30.73,-77.53 75,-56 165.91,-11.78 472.6,-9.41 594.97,-10.31"/>
<polygon fill="midnightblue" stroke="midnightblue" points="595.16,-13.82 605.19,-10.4 595.22,-6.82 595.16,-13.82"/>
</g>
<!-- Node4 -->
<g id="node4" class="node">
<title>Node4</title>
<g id="a_node4"><a xlink:href="JKRDecomp_8h.html" target="_top" xlink:title=" ">
<polygon fill="white" stroke="black" points="181.5,-503.5 181.5,-533.5 330.5,-533.5 330.5,-503.5 181.5,-503.5"/>
<text text-anchor="start" x="189.5" y="-521.5" font-family="Helvetica,sans-Serif" font-size="10.00">JSystem/JKernel/JKRDecomp</text>
<text text-anchor="middle" x="256" y="-510.5" font-family="Helvetica,sans-Serif" font-size="10.00">/JKRDecomp.h</text>
</a>
</g>
</g>
<!-- Node3&#45;&gt;Node4 -->
<g id="edge3" class="edge">
<title>Node3&#45;&gt;Node4</title>
<path fill="none" stroke="midnightblue" d="M175.35,-570.4C189.93,-561.2 209.15,-549.07 225.17,-538.95"/>
<polygon fill="midnightblue" stroke="midnightblue" points="227.11,-541.87 233.69,-533.58 223.37,-535.95 227.11,-541.87"/>
</g>
<!-- Node6 -->
<g id="node6" class="node">
<title>Node6</title>
<g id="a_node6"><a xlink:href="SArc_8h.html" target="_top" xlink:title=" ">
<polygon fill="white" stroke="black" points="118.5,-380.5 118.5,-399.5 241.5,-399.5 241.5,-380.5 118.5,-380.5"/>
<text text-anchor="middle" x="180" y="-387.5" font-family="Helvetica,sans-Serif" font-size="10.00">JSystem/JKernel/SArc.h</text>
</a>
</g>
</g>
<!-- Node3&#45;&gt;Node6 -->
<g id="edge45" class="edge">
<title>Node3&#45;&gt;Node6</title>
<path fill="none" stroke="midnightblue" d="M139.18,-570.26C114.4,-542.93 67.45,-481.76 95,-436 104.29,-420.57 120.83,-410.16 136.87,-403.27"/>
<polygon fill="midnightblue" stroke="midnightblue" points="138.17,-406.52 146.2,-399.61 135.61,-400.01 138.17,-406.52"/>
</g>
<!-- Node3&#45;&gt;Node7 -->
<g id="edge46" class="edge">
<title>Node3&#45;&gt;Node7</title>
<path fill="none" stroke="midnightblue" d="M127.76,-570.45C93.91,-549.52 38,-506.75 38,-452.5 38,-452.5 38,-452.5 38,-137.5 38,-24.05 448.88,-11.64 595.1,-10.81"/>
<polygon fill="midnightblue" stroke="midnightblue" points="595.18,-14.31 605.16,-10.77 595.15,-7.31 595.18,-14.31"/>
</g>
<!-- Node24 -->
<g id="node24" class="node">
<title>Node24</title>
<g id="a_node24"><a xlink:href="JKRFileLoader_8h.html" target="_top" xlink:title=" ">
<polygon fill="white" stroke="black" points="412,-190.5 412,-220.5 570,-220.5 570,-190.5 412,-190.5"/>
<text text-anchor="start" x="420" y="-208.5" font-family="Helvetica,sans-Serif" font-size="10.00">JSystem/JKernel/JKRFileLoader</text>
<text text-anchor="middle" x="491" y="-197.5" font-family="Helvetica,sans-Serif" font-size="10.00">/JKRFileLoader.h</text>
</a>
</g>
</g>
<!-- Node3&#45;&gt;Node24 -->
<g id="edge42" class="edge">
<title>Node3&#45;&gt;Node24</title>
<path fill="none" stroke="midnightblue" d="M226.13,-572.55C330.05,-553.47 508,-512.09 508,-452.5 508,-452.5 508,-452.5 508,-333 508,-297.13 501.2,-256.04 496.2,-230.68"/>
<polygon fill="midnightblue" stroke="midnightblue" points="499.62,-229.93 494.2,-220.83 492.77,-231.33 499.62,-229.93"/>
</g>
<!-- Node5 -->
<g id="node5" class="node">
<title>Node5</title>
<g id="a_node5"><a xlink:href="JKRCompression_8h.html" target="_top" xlink:title=" ">
<polygon fill="white" stroke="black" points="103.5,-442 103.5,-461 280.5,-461 280.5,-442 103.5,-442"/>
<text text-anchor="middle" x="192" y="-449" font-family="Helvetica,sans-Serif" font-size="10.00">JSystem/JKernel/JKRCompression.h</text>
</a>
</g>
</g>
<!-- Node4&#45;&gt;Node5 -->
<g id="edge4" class="edge">
<title>Node4&#45;&gt;Node5</title>
<path fill="none" stroke="midnightblue" d="M242.11,-503.4C232.04,-493.16 218.38,-479.3 207.87,-468.62"/>
<polygon fill="midnightblue" stroke="midnightblue" points="210.07,-465.86 200.56,-461.19 205.08,-470.78 210.07,-465.86"/>
</g>
<!-- Node4&#45;&gt;Node7 -->
<g id="edge41" class="edge">
<title>Node4&#45;&gt;Node7</title>
<path fill="none" stroke="midnightblue" d="M267.61,-503.29C275,-493.6 284.24,-480.17 290,-467 303.92,-435.2 308,-425.71 308,-391 308,-391 308,-391 308,-137.5 308,-95.24 321.93,-79.58 357,-56 395,-30.45 522.93,-18.56 595.19,-13.77"/>
<polygon fill="midnightblue" stroke="midnightblue" points="595.68,-17.25 605.43,-13.11 595.23,-10.26 595.68,-17.25"/>
</g>
<!-- Node8 -->
<g id="node8" class="node">
<title>Node8</title>
<g id="a_node8"><a xlink:href="JKRThread_8h.html" target="_top" xlink:title=" ">
<polygon fill="white" stroke="black" points="336.5,-436.5 336.5,-466.5 479.5,-466.5 479.5,-436.5 336.5,-436.5"/>
<text text-anchor="start" x="344.5" y="-454.5" font-family="Helvetica,sans-Serif" font-size="10.00">JSystem/JKernel/JKRThread</text>
<text text-anchor="middle" x="408" y="-443.5" font-family="Helvetica,sans-Serif" font-size="10.00">/JKRThread.h</text>
</a>
</g>
</g>
<!-- Node4&#45;&gt;Node8 -->
<g id="edge8" class="edge">
<title>Node4&#45;&gt;Node8</title>
<path fill="none" stroke="midnightblue" d="M288.98,-503.4C311.49,-493.77 341.5,-480.94 365.76,-470.56"/>
<polygon fill="midnightblue" stroke="midnightblue" points="367.26,-473.73 375.08,-466.58 364.51,-467.29 367.26,-473.73"/>
</g>
<!-- Node5&#45;&gt;Node6 -->
<g id="edge5" class="edge">
<title>Node5&#45;&gt;Node6</title>
<path fill="none" stroke="midnightblue" d="M190.28,-441.98C188.57,-433.49 185.89,-420.2 183.7,-409.32"/>
<polygon fill="midnightblue" stroke="midnightblue" points="187.12,-408.62 181.72,-399.51 180.26,-410 187.12,-408.62"/>
</g>
<!-- Node5&#45;&gt;Node7 -->
<g id="edge7" class="edge">
<title>Node5&#45;&gt;Node7</title>
<path fill="none" stroke="midnightblue" d="M205.98,-442C219.42,-433.13 239.37,-418.01 251,-400 267.33,-374.72 270,-365.1 270,-335 270,-335 270,-335 270,-137.5 270,-99.74 265.26,-80.49 294,-56 338.27,-18.27 508.74,-11.72 595.15,-10.88"/>
<polygon fill="midnightblue" stroke="midnightblue" points="595.29,-14.38 605.26,-10.8 595.23,-7.38 595.29,-14.38"/>
</g>
<!-- Node6&#45;&gt;Node7 -->
<g id="edge6" class="edge">
<title>Node6&#45;&gt;Node7</title>
<path fill="none" stroke="midnightblue" d="M183.29,-380.46C190.29,-361.51 206,-314.4 206,-273.5 206,-273.5 206,-273.5 206,-137.5 206,-95 220.17,-78.85 256,-56 311.13,-20.84 502.67,-13.11 595.2,-11.44"/>
<polygon fill="midnightblue" stroke="midnightblue" points="595.5,-14.93 605.44,-11.27 595.39,-7.94 595.5,-14.93"/>
</g>
<!-- Node8&#45;&gt;Node7 -->
<g id="edge13" class="edge">
<title>Node8&#45;&gt;Node7</title>
<path fill="none" stroke="midnightblue" d="M394.55,-436.49C376.31,-415.97 346,-375.74 346,-335 346,-335 346,-335 346,-137.5 346,-30.63 509.63,-12.62 595.2,-10.5"/>
<polygon fill="midnightblue" stroke="midnightblue" points="595.29,-14 605.23,-10.32 595.17,-7 595.29,-14"/>
</g>
<!-- Node9 -->
<g id="node9" class="node">
<title>Node9</title>
<g id="a_node9"><a xlink:href="JKRDisposer_8h.html" target="_top" xlink:title=" ">
<polygon fill="white" stroke="black" points="418.5,-123.5 418.5,-153.5 569.5,-153.5 569.5,-123.5 418.5,-123.5"/>
<text text-anchor="start" x="426.5" y="-141.5" font-family="Helvetica,sans-Serif" font-size="10.00">JSystem/JKernel/JKRDisposer</text>
<text text-anchor="middle" x="494" y="-130.5" font-family="Helvetica,sans-Serif" font-size="10.00">/JKRDisposer.h</text>
</a>
</g>
</g>
<!-- Node8&#45;&gt;Node9 -->
<g id="edge9" class="edge">
<title>Node8&#45;&gt;Node9</title>
<path fill="none" stroke="midnightblue" d="M403.14,-436.47C396.13,-414.93 384,-372.27 384,-335 384,-335 384,-335 384,-271.5 384,-234.31 380.59,-219.69 403,-190 413.28,-176.39 428.35,-165.94 443.28,-158.19"/>
<polygon fill="midnightblue" stroke="midnightblue" points="445.05,-161.22 452.52,-153.7 442,-154.92 445.05,-161.22"/>
</g>
<!-- Node8&#45;&gt;Node11 -->
<g id="edge14" class="edge">
<title>Node8&#45;&gt;Node11</title>
<path fill="none" stroke="midnightblue" d="M479.77,-442.72C598.89,-429.81 833.09,-404.43 921.81,-394.81"/>
<polygon fill="midnightblue" stroke="midnightblue" points="922.33,-398.28 931.89,-393.72 921.57,-391.32 922.33,-398.28"/>
</g>
<!-- Node9&#45;&gt;Node7 -->
<g id="edge12" class="edge">
<title>Node9&#45;&gt;Node7</title>
<path fill="none" stroke="midnightblue" d="M494.96,-123.49C496.93,-105.55 502.9,-74.57 521,-56 540.68,-35.8 570.08,-24.64 595.42,-18.48"/>
<polygon fill="midnightblue" stroke="midnightblue" points="596.27,-21.87 605.26,-16.28 594.74,-15.04 596.27,-21.87"/>
</g>
<!-- Node10 -->
<g id="node10" class="node">
<title>Node10</title>
<g id="a_node10"><a xlink:href="JSUList_8h.html" target="_top" xlink:title=" ">
<polygon fill="white" stroke="black" points="530,-56.5 530,-86.5 666,-86.5 666,-56.5 530,-56.5"/>
<text text-anchor="start" x="538" y="-74.5" font-family="Helvetica,sans-Serif" font-size="10.00">JSystem/JSupport/JSUList</text>
<text text-anchor="middle" x="598" y="-63.5" font-family="Helvetica,sans-Serif" font-size="10.00">/JSUList.h</text>
</a>
</g>
</g>
<!-- Node9&#45;&gt;Node10 -->
<g id="edge10" class="edge">
<title>Node9&#45;&gt;Node10</title>
<path fill="none" stroke="midnightblue" d="M516.57,-123.4C531.29,-114.2 550.69,-102.07 566.87,-91.95"/>
<polygon fill="midnightblue" stroke="midnightblue" points="568.85,-94.84 575.48,-86.58 565.14,-88.91 568.85,-94.84"/>
</g>
<!-- Node10&#45;&gt;Node7 -->
<g id="edge11" class="edge">
<title>Node10&#45;&gt;Node7</title>
<path fill="none" stroke="midnightblue" d="M609.38,-56.4C616.35,-47.75 625.31,-36.64 632.63,-27.58"/>
<polygon fill="midnightblue" stroke="midnightblue" points="635.46,-29.64 639.02,-19.66 630.01,-25.24 635.46,-29.64"/>
</g>
<!-- Node11&#45;&gt;Node7 -->
<g id="edge15" class="edge">
<title>Node11&#45;&gt;Node7</title>
<path fill="none" stroke="midnightblue" d="M946.23,-380.34C927.25,-364.38 888.21,-328.23 871,-288 830.23,-192.69 915.88,-133.47 847,-56 827.45,-34.02 750.01,-21.7 697.16,-15.71"/>
<polygon fill="midnightblue" stroke="midnightblue" points="697.26,-12.2 686.94,-14.59 696.5,-19.16 697.26,-12.2"/>
</g>
<!-- Node12 -->
<g id="node12" class="node">
<title>Node12</title>
<g id="a_node12"><a xlink:href="AR_8h.html" target="_top" xlink:title=" ">
<polygon fill="white" stroke="black" points="879.5,-263 879.5,-282 928.5,-282 928.5,-263 879.5,-263"/>
<text text-anchor="middle" x="904" y="-270" font-family="Helvetica,sans-Serif" font-size="10.00">ar/AR.h</text>
</a>
</g>
</g>
<!-- Node11&#45;&gt;Node12 -->
<g id="edge16" class="edge">
<title>Node11&#45;&gt;Node12</title>
<path fill="none" stroke="midnightblue" d="M953.02,-380.32C944.38,-361.51 923.8,-316.65 912.24,-291.46"/>
<polygon fill="midnightblue" stroke="midnightblue" points="915.38,-289.91 908.03,-282.28 909.02,-292.83 915.38,-289.91"/>
</g>
<!-- Node13 -->
<g id="node13" class="node">
<title>Node13</title>
<g id="a_node13"><a xlink:href="ARQ_8h.html" target="_top" xlink:title=" ">
<polygon fill="white" stroke="black" points="932,-129 932,-148 988,-148 988,-129 932,-129"/>
<text text-anchor="middle" x="960" y="-136" font-family="Helvetica,sans-Serif" font-size="10.00">ar/ARQ.h</text>
</a>
</g>
</g>
<!-- Node11&#45;&gt;Node13 -->
<g id="edge18" class="edge">
<title>Node11&#45;&gt;Node13</title>
<path fill="none" stroke="midnightblue" d="M957.1,-380.41C957.53,-344.8 959.17,-208.25 959.78,-158.11"/>
<polygon fill="midnightblue" stroke="midnightblue" points="963.28,-158.09 959.9,-148.05 956.28,-158.01 963.28,-158.09"/>
</g>
<!-- Node14 -->
<g id="node14" class="node">
<title>Node14</title>
<g id="a_node14"><a xlink:href="mwcc_8h.html" target="_top" xlink:title=" ">
<polygon fill="white" stroke="black" points="1023,-324.5 1023,-343.5 1073,-343.5 1073,-324.5 1023,-324.5"/>
<text text-anchor="middle" x="1048" y="-331.5" font-family="Helvetica,sans-Serif" font-size="10.00">mwcc.h</text>
</a>
</g>
</g>
<!-- Node11&#45;&gt;Node14 -->
<g id="edge20" class="edge">
<title>Node11&#45;&gt;Node14</title>
<path fill="none" stroke="midnightblue" d="M971.62,-380.32C985.95,-371.82 1008.01,-358.73 1024.75,-348.8"/>
<polygon fill="midnightblue" stroke="midnightblue" points="1026.6,-351.77 1033.42,-343.65 1023.03,-345.75 1026.6,-351.77"/>
</g>
<!-- Node15 -->
<g id="node15" class="node">
<title>Node15</title>
<g id="a_node15"><a xlink:href="OS_8h.html" target="_top" xlink:title=" ">
<polygon fill="white" stroke="black" points="1086,-129 1086,-148 1138,-148 1138,-129 1086,-129"/>
<text text-anchor="middle" x="1112" y="-136" font-family="Helvetica,sans-Serif" font-size="10.00">os/OS.h</text>
</a>
</g>
</g>
<!-- Node11&#45;&gt;Node15 -->
<g id="edge21" class="edge">
<title>Node11&#45;&gt;Node15</title>
<path fill="none" stroke="midnightblue" d="M982.22,-385.86C1012.39,-381.08 1063.29,-369.65 1099,-344 1124.05,-326.01 1130.41,-317.32 1140,-288 1155.03,-242.03 1133.89,-185.25 1120.88,-157.08"/>
<polygon fill="midnightblue" stroke="midnightblue" points="1124.03,-155.56 1116.54,-148.07 1117.73,-158.59 1124.03,-155.56"/>
</g>
<!-- Node17 -->
<g id="node17" class="node">
<title>Node17</title>
<g id="a_node17"><a xlink:href="variables_8h.html" target="_top" xlink:title=" ">
<polygon fill="white" stroke="black" points="744.5,-324.5 744.5,-343.5 807.5,-343.5 807.5,-324.5 744.5,-324.5"/>
<text text-anchor="middle" x="776" y="-331.5" font-family="Helvetica,sans-Serif" font-size="10.00">variables.h</text>
</a>
</g>
</g>
<!-- Node11&#45;&gt;Node17 -->
<g id="edge25" class="edge">
<title>Node11&#45;&gt;Node17</title>
<path fill="none" stroke="midnightblue" d="M931.83,-381.49C901.42,-372.42 849.93,-357.06 814.51,-346.49"/>
<polygon fill="midnightblue" stroke="midnightblue" points="815.11,-343.02 804.53,-343.51 813.11,-349.72 815.11,-343.02"/>
</g>
<!-- Node12&#45;&gt;Node7 -->
<g id="edge17" class="edge">
<title>Node12&#45;&gt;Node7</title>
<path fill="none" stroke="midnightblue" d="M906.25,-262.65C913.94,-230.17 935.69,-116.28 880,-56 855.85,-29.86 758.47,-18.53 697.2,-13.91"/>
<polygon fill="midnightblue" stroke="midnightblue" points="697.17,-10.4 686.95,-13.18 696.67,-17.38 697.17,-10.4"/>
</g>
<!-- Node13&#45;&gt;Node7 -->
<g id="edge19" class="edge">
<title>Node13&#45;&gt;Node7</title>
<path fill="none" stroke="midnightblue" d="M958.26,-128.94C954.33,-112 943.09,-74.27 918,-56 883.59,-30.94 765.69,-18.98 696.93,-14.01"/>
<polygon fill="midnightblue" stroke="midnightblue" points="696.96,-10.51 686.74,-13.3 696.48,-17.49 696.96,-10.51"/>
</g>
<!-- Node15&#45;&gt;Node7 -->
<g id="edge22" class="edge">
<title>Node15&#45;&gt;Node7</title>
<path fill="none" stroke="midnightblue" d="M1112.56,-128.97C1113.15,-112.1 1111.78,-74.5 1090,-56 1060.54,-30.98 807.2,-17.62 696.93,-12.95"/>
<polygon fill="midnightblue" stroke="midnightblue" points="696.85,-9.44 686.72,-12.52 696.56,-16.44 696.85,-9.44"/>
</g>
<!-- Node16 -->
<g id="node16" class="node">
<title>Node16</title>
<g id="a_node16"><a xlink:href="dvd_8h.html" target="_top" xlink:title=" ">
<polygon fill="white" stroke="black" points="1021.5,-62 1021.5,-81 1080.5,-81 1080.5,-62 1021.5,-62"/>
<text text-anchor="middle" x="1051" y="-69" font-family="Helvetica,sans-Serif" font-size="10.00">dvd/dvd.h</text>
</a>
</g>
</g>
<!-- Node15&#45;&gt;Node16 -->
<g id="edge23" class="edge">
<title>Node15&#45;&gt;Node16</title>
<path fill="none" stroke="midnightblue" d="M1103.77,-128.73C1094.17,-118.5 1078.09,-101.36 1066.2,-88.69"/>
<polygon fill="midnightblue" stroke="midnightblue" points="1068.49,-86.02 1059.1,-81.13 1063.39,-90.81 1068.49,-86.02"/>
</g>
<!-- Node16&#45;&gt;Node7 -->
<g id="edge24" class="edge">
<title>Node16&#45;&gt;Node7</title>
<path fill="none" stroke="midnightblue" d="M1025.55,-61.94C1018.32,-59.75 1010.41,-57.57 1003,-56 895.18,-33.09 766.4,-20.38 696.77,-14.7"/>
<polygon fill="midnightblue" stroke="midnightblue" points="696.77,-11.19 686.52,-13.88 696.21,-18.17 696.77,-11.19"/>
</g>
<!-- Node17&#45;&gt;Node10 -->
<g id="edge26" class="edge">
<title>Node17&#45;&gt;Node10</title>
<path fill="none" stroke="midnightblue" d="M751.77,-324.4C714.72,-309.77 645.3,-276.12 617,-221 596.49,-181.05 595.01,-127.38 596.22,-96.71"/>
<polygon fill="midnightblue" stroke="midnightblue" points="599.72,-96.69 596.75,-86.52 592.73,-96.32 599.72,-96.69"/>
</g>
<!-- Node18 -->
<g id="node18" class="node">
<title>Node18</title>
<g id="a_node18"><a xlink:href="JUTXfb_8h.html" target="_top" xlink:title=" ">
<polygon fill="white" stroke="black" points="697.5,-257.5 697.5,-287.5 822.5,-287.5 822.5,-257.5 697.5,-257.5"/>
<text text-anchor="start" x="705.5" y="-275.5" font-family="Helvetica,sans-Serif" font-size="10.00">JSystem/JUtility/JUTXfb</text>
<text text-anchor="middle" x="760" y="-264.5" font-family="Helvetica,sans-Serif" font-size="10.00">/JUTXfb.h</text>
</a>
</g>
</g>
<!-- Node17&#45;&gt;Node18 -->
<g id="edge27" class="edge">
<title>Node17&#45;&gt;Node18</title>
<path fill="none" stroke="midnightblue" d="M773.71,-324.48C771.8,-317.4 769,-306.97 766.42,-297.39"/>
<polygon fill="midnightblue" stroke="midnightblue" points="769.75,-296.27 763.77,-287.52 762.99,-298.09 769.75,-296.27"/>
</g>
<!-- Node17&#45;&gt;Node21 -->
<g id="edge35" class="edge">
<title>Node17&#45;&gt;Node21</title>
<path fill="none" stroke="midnightblue" d="M807.64,-326.74C859.04,-316.58 961.23,-296.38 1023.9,-284"/>
<polygon fill="midnightblue" stroke="midnightblue" points="1024.86,-287.38 1033.99,-282 1023.5,-280.51 1024.86,-287.38"/>
</g>
<!-- Node18&#45;&gt;Node7 -->
<g id="edge32" class="edge">
<title>Node18&#45;&gt;Node7</title>
<path fill="none" stroke="midnightblue" d="M765.22,-257.44C770.56,-241.02 777.25,-213.16 771,-190 753.05,-123.47 735.64,-110.14 693,-56 684.46,-45.15 673.36,-34.41 664.1,-26.14"/>
<polygon fill="midnightblue" stroke="midnightblue" points="666.38,-23.49 656.53,-19.57 661.79,-28.77 666.38,-23.49"/>
</g>
<!-- Node19 -->
<g id="node19" class="node">
<title>Node19</title>
<g id="a_node19"><a xlink:href="JKRHeap_8h.html" target="_top" xlink:title=" ">
<polygon fill="white" stroke="black" points="626,-190.5 626,-220.5 762,-220.5 762,-190.5 626,-190.5"/>
<text text-anchor="start" x="634" y="-208.5" font-family="Helvetica,sans-Serif" font-size="10.00">JSystem/JKernel/JKRHeap</text>
<text text-anchor="middle" x="694" y="-197.5" font-family="Helvetica,sans-Serif" font-size="10.00">/JKRHeap.h</text>
</a>
</g>
</g>
<!-- Node18&#45;&gt;Node19 -->
<g id="edge28" class="edge">
<title>Node18&#45;&gt;Node19</title>
<path fill="none" stroke="midnightblue" d="M745.68,-257.4C736.86,-248.71 725.38,-237.4 715.48,-227.66"/>
<polygon fill="midnightblue" stroke="midnightblue" points="717.87,-225.1 708.29,-220.58 712.96,-230.09 717.87,-225.1"/>
</g>
<!-- Node20 -->
<g id="node20" class="node">
<title>Node20</title>
<g id="a_node20"><a xlink:href="GX_8h.html" target="_top" xlink:title=" ">
<polygon fill="white" stroke="black" points="786.5,-62 786.5,-81 837.5,-81 837.5,-62 786.5,-62"/>
<text text-anchor="middle" x="812" y="-69" font-family="Helvetica,sans-Serif" font-size="10.00">gx/GX.h</text>
</a>
</g>
</g>
<!-- Node18&#45;&gt;Node20 -->
<g id="edge33" class="edge">
<title>Node18&#45;&gt;Node20</title>
<path fill="none" stroke="midnightblue" d="M776.91,-257.45C786.71,-248.21 798.23,-235.22 804,-221 821.73,-177.28 818.22,-120.31 814.77,-91.28"/>
<polygon fill="midnightblue" stroke="midnightblue" points="818.23,-90.75 813.44,-81.3 811.29,-91.67 818.23,-90.75"/>
</g>
<!-- Node19&#45;&gt;Node7 -->
<g id="edge30" class="edge">
<title>Node19&#45;&gt;Node7</title>
<path fill="none" stroke="midnightblue" d="M694.24,-190.09C694.24,-162.97 692.11,-102.88 675,-56 671.34,-45.98 665.13,-35.89 659.4,-27.82"/>
<polygon fill="midnightblue" stroke="midnightblue" points="662.08,-25.57 653.28,-19.67 656.48,-29.77 662.08,-25.57"/>
</g>
<!-- Node19&#45;&gt;Node9 -->
<g id="edge29" class="edge">
<title>Node19&#45;&gt;Node9</title>
<path fill="none" stroke="midnightblue" d="M650.6,-190.4C620.2,-180.52 579.39,-167.25 547.06,-156.74"/>
<polygon fill="midnightblue" stroke="midnightblue" points="547.9,-153.34 537.31,-153.58 545.74,-160 547.9,-153.34"/>
</g>
<!-- Node19&#45;&gt;Node11 -->
<g id="edge31" class="edge">
<title>Node19&#45;&gt;Node11</title>
<path fill="none" stroke="midnightblue" d="M689.82,-220.54C685.61,-237.18 680.8,-265.49 689,-288 700.11,-318.53 708.08,-327.39 736,-344 794.69,-378.92 875.99,-387.14 921.85,-388.84"/>
<polygon fill="midnightblue" stroke="midnightblue" points="921.8,-392.34 931.9,-389.13 922,-385.34 921.8,-392.34"/>
</g>
<!-- Node20&#45;&gt;Node7 -->
<g id="edge34" class="edge">
<title>Node20&#45;&gt;Node7</title>
<path fill="none" stroke="midnightblue" d="M788.32,-61.89C782.95,-59.95 777.28,-57.9 772,-56 740.74,-44.75 705.08,-32.03 679.7,-22.99"/>
<polygon fill="midnightblue" stroke="midnightblue" points="680.76,-19.65 670.17,-19.59 678.41,-26.24 680.76,-19.65"/>
</g>
<!-- Node21&#45;&gt;Node11 -->
<g id="edge38" class="edge">
<title>Node21&#45;&gt;Node11</title>
<path fill="none" stroke="midnightblue" d="M1080.86,-282.24C1086.54,-296.57 1095.12,-325.33 1082,-344 1061.92,-372.57 1021.87,-383.09 992.49,-386.91"/>
<polygon fill="midnightblue" stroke="midnightblue" points="991.77,-383.47 982.21,-388.04 992.53,-390.43 991.77,-383.47"/>
</g>
<!-- Node22 -->
<g id="node22" class="node">
<title>Node22</title>
<g id="a_node22"><a xlink:href="c__math_8h.html" target="_top" xlink:title=" ">
<polygon fill="white" stroke="black" points="977,-196 977,-215 1093,-215 1093,-196 977,-196"/>
<text text-anchor="middle" x="1035" y="-203" font-family="Helvetica,sans-Serif" font-size="10.00">SComponent/c_math.h</text>
</a>
</g>
</g>
<!-- Node21&#45;&gt;Node22 -->
<g id="edge36" class="edge">
<title>Node21&#45;&gt;Node22</title>
<path fill="none" stroke="midnightblue" d="M1071.34,-262.73C1064.91,-252.79 1054.28,-236.34 1046.17,-223.79"/>
<polygon fill="midnightblue" stroke="midnightblue" points="1048.94,-221.63 1040.57,-215.13 1043.06,-225.43 1048.94,-221.63"/>
</g>
<!-- Node23 -->
<g id="node23" class="node">
<title>Node23</title>
<g id="a_node23"><a xlink:href="mtx__vec_8h.html" target="_top" xlink:title=" ">
<polygon fill="white" stroke="black" points="1006.5,-129 1006.5,-148 1067.5,-148 1067.5,-129 1006.5,-129"/>
<text text-anchor="middle" x="1037" y="-136" font-family="Helvetica,sans-Serif" font-size="10.00">mtx_vec.h</text>
</a>
</g>
</g>
<!-- Node21&#45;&gt;Node23 -->
<g id="edge39" class="edge">
<title>Node21&#45;&gt;Node23</title>
<path fill="none" stroke="midnightblue" d="M1083.94,-262.59C1095.02,-247.23 1114.23,-214.99 1102,-190 1094.17,-174 1078.54,-161.6 1064.58,-153.1"/>
<polygon fill="midnightblue" stroke="midnightblue" points="1066.16,-149.97 1055.74,-148.07 1062.7,-156.06 1066.16,-149.97"/>
</g>
<!-- Node22&#45;&gt;Node11 -->
<g id="edge37" class="edge">
<title>Node22&#45;&gt;Node11</title>
<path fill="none" stroke="midnightblue" d="M1031.28,-215.21C1019.26,-243.33 981.33,-332.07 964.81,-370.72"/>
<polygon fill="midnightblue" stroke="midnightblue" points="961.47,-369.63 960.76,-380.2 967.91,-372.38 961.47,-369.63"/>
</g>
<!-- Node23&#45;&gt;Node7 -->
<g id="edge40" class="edge">
<title>Node23&#45;&gt;Node7</title>
<path fill="none" stroke="midnightblue" d="M1030.14,-128.83C1016.05,-111.69 981.97,-73.63 944,-56 863.25,-18.5 758.19,-10.97 696.81,-10.14"/>
<polygon fill="midnightblue" stroke="midnightblue" points="696.64,-6.64 686.61,-10.06 696.58,-13.64 696.64,-6.64"/>
</g>
<!-- Node24&#45;&gt;Node7 -->
<g id="edge44" class="edge">
<title>Node24&#45;&gt;Node7</title>
<path fill="none" stroke="midnightblue" d="M452.34,-190.37C436.23,-182.34 419.17,-170.52 410,-154 403.31,-141.95 403.85,-135.33 410,-123 444.28,-54.28 536.47,-27.47 594.96,-17.19"/>
<polygon fill="midnightblue" stroke="midnightblue" points="595.81,-20.6 605.11,-15.51 594.67,-13.69 595.81,-20.6"/>
</g>
<!-- Node24&#45;&gt;Node9 -->
<g id="edge43" class="edge">
<title>Node24&#45;&gt;Node9</title>
<path fill="none" stroke="midnightblue" d="M491.65,-190.4C492.01,-182.64 492.46,-172.81 492.88,-163.86"/>
<polygon fill="midnightblue" stroke="midnightblue" points="496.39,-163.73 493.35,-153.58 489.39,-163.4 496.39,-163.73"/>
</g>
</g>
</svg>
        <g id="navigator" transform="translate(0 0)" fill="#404254">
                <rect fill="#f2f5e9" fill-opacity="0.5" stroke="#606060" stroke-width=".5" x="0" y="0" width="60" height="60"/>
                <use id="zoomplus" xlink:href="#zoomPlus" x="17" y="9" onmousedown="handleZoom(evt,'in')"/>
                <use id="zoomminus" xlink:href="#zoomMin" x="42" y="9" onmousedown="handleZoom(evt,'out')"/>
                <use id="reset" xlink:href="#resetDef" x="30" y="36" onmousedown="handleReset()"/>
                <g id="arrowUp" xlink:href="#dirArrow" transform="translate(30 24)" onmousedown="handlePan(0,-1)">
                  <use xlink:href="#rim" fill="#404040">
                        <set attributeName="fill" to="#808080" begin="arrowUp.mouseover" end="arrowUp.mouseout"/>
                  </use>
                  <path fill="none" stroke="white" stroke-width="1.5" d="M0,-3.0v7 M-2.5,-0.5L0,-3.0L2.5,-0.5"/>
                </g>
                <g id="arrowRight" xlink:href="#dirArrow" transform="rotate(90) translate(36 -43)" onmousedown="handlePan(1,0)">
                  <use xlink:href="#rim" fill="#404040">
                        <set attributeName="fill" to="#808080" begin="arrowRight.mouseover" end="arrowRight.mouseout"/>
                  </use>
                  <path fill="none" stroke="white" stroke-width="1.5" d="M0,-3.0v7 M-2.5,-0.5L0,-3.0L2.5,-0.5"/>
                </g>
                <g id="arrowDown" xlink:href="#dirArrow" transform="rotate(180) translate(-30 -48)" onmousedown="handlePan(0,1)">
                  <use xlink:href="#rim" fill="#404040">
                        <set attributeName="fill" to="#808080" begin="arrowDown.mouseover" end="arrowDown.mouseout"/>
                  </use>
                  <path fill="none" stroke="white" stroke-width="1.5" d="M0,-3.0v7 M-2.5,-0.5L0,-3.0L2.5,-0.5"/>
                </g>
                <g id="arrowLeft" xlink:href="#dirArrow" transform="rotate(270) translate(-36 17)" onmousedown="handlePan(-1,0)">
                  <use xlink:href="#rim" fill="#404040">
                        <set attributeName="fill" to="#808080" begin="arrowLeft.mouseover" end="arrowLeft.mouseout"/>
                  </use>
                  <path fill="none" stroke="white" stroke-width="1.5" d="M0,-3.0v7 M-2.5,-0.5L0,-3.0L2.5,-0.5"/>
                </g>
        </g>
        <svg viewBox="0 0 15 15" width="100%" height="30px" preserveAspectRatio="xMaxYMin meet">
         <g id="arrow_out" transform="scale(0.3 0.3)">
          <a xlink:href="d__lib_8h__incl_org.svg" target="_base">
           <rect id="button" ry="5" rx="5" y="6" x="6" height="38" width="38"
                fill="#f2f5e9" fill-opacity="0.5" stroke="#606060" stroke-width="1.0"/>
           <path id="arrow"
             d="M 11.500037,31.436501 C 11.940474,20.09759 22.043105,11.32322 32.158766,21.979434 L 37.068811,17.246167 C 37.068811,17.246167 37.088388,32 37.088388,32 L 22.160133,31.978069 C 22.160133,31.978069 26.997745,27.140456 26.997745,27.140456 C 18.528582,18.264221 13.291696,25.230495 11.500037,31.436501 z"
             style="fill:#404040;"/>
          </a>
         </g>
        </svg>
</svg>
