<?xml version="1.0" encoding="UTF-8" standalone="no"?>
<!DOCTYPE svg PUBLIC "-//W3C//DTD SVG 1.1//EN"
 "http://www.w3.org/Graphics/SVG/1.1/DTD/svg11.dtd">
<!-- Generated by graphviz version 2.46.0 (20210122.1329)
 -->
<!-- Title: include/d/d_stage/d_stage.h Pages: 1 -->
<svg width="3981pt" height="240pt"
 viewBox="0.00 0.00 3980.50 240.00" xmlns="http://www.w3.org/2000/svg" xmlns:xlink="http://www.w3.org/1999/xlink">
<g id="graph0" class="graph" transform="scale(1 1) rotate(0) translate(4 236)">
<title>include/d/d_stage/d_stage.h</title>
<polygon fill="white" stroke="transparent" points="-4,4 -4,-236 3976.5,-236 3976.5,4 -4,4"/>
<!-- Node1 -->
<g id="node1" class="node">
<title>Node1</title>
<g id="a_node1"><a xlink:title=" ">
<polygon fill="#bfbfbf" stroke="black" points="920.5,-201.5 920.5,-231.5 1021.5,-231.5 1021.5,-201.5 920.5,-201.5"/>
<text text-anchor="start" x="928.5" y="-219.5" font-family="Helvetica,sans-Serif" font-size="10.00">include/d/d_stage/d</text>
<text text-anchor="middle" x="971" y="-208.5" font-family="Helvetica,sans-Serif" font-size="10.00">_stage.h</text>
</a>
</g>
</g>
<!-- Node2 -->
<g id="node2" class="node">
<title>Node2</title>
<g id="a_node2"><a xlink:href="d__stage_8cpp.html" target="_top" xlink:title=" ">
<polygon fill="white" stroke="black" points="0,-73 0,-92 94,-92 94,-73 0,-73"/>
<text text-anchor="middle" x="47" y="-80" font-family="Helvetica,sans-Serif" font-size="10.00">src/d/d_stage.cpp</text>
</a>
</g>
</g>
<!-- Node1&#45;&gt;Node2 -->
<g id="edge1" class="edge">
<title>Node1&#45;&gt;Node2</title>
<path fill="none" stroke="midnightblue" d="M910.01,-209.76C767.75,-195.83 403.25,-156.98 103,-98 94.62,-96.35 85.64,-94.2 77.37,-92.06"/>
<polygon fill="midnightblue" stroke="midnightblue" points="909.97,-213.28 920.27,-210.76 910.65,-206.31 909.97,-213.28"/>
</g>
<!-- Node3 -->
<g id="node3" class="node">
<title>Node3</title>
<g id="a_node3"><a xlink:href="d__com__inf__game_8h.html" target="_top" xlink:title=" ">
<polygon fill="white" stroke="black" points="1752,-134.5 1752,-164.5 1898,-164.5 1898,-134.5 1752,-134.5"/>
<text text-anchor="start" x="1760" y="-152.5" font-family="Helvetica,sans-Serif" font-size="10.00">include/d/d_com/d_com</text>
<text text-anchor="middle" x="1825" y="-141.5" font-family="Helvetica,sans-Serif" font-size="10.00">_inf_game/d_com_inf_game.h</text>
</a>
</g>
</g>
<!-- Node1&#45;&gt;Node3 -->
<g id="edge2" class="edge">
<title>Node1&#45;&gt;Node3</title>
<path fill="none" stroke="midnightblue" d="M1031.7,-210.88C1184.79,-199.23 1586.15,-168.68 1751.84,-156.07"/>
<polygon fill="midnightblue" stroke="midnightblue" points="1031.25,-207.4 1021.55,-211.65 1031.79,-214.38 1031.25,-207.4"/>
</g>
<!-- Node3&#45;&gt;Node2 -->
<g id="edge22" class="edge">
<title>Node3&#45;&gt;Node2</title>
<path fill="none" stroke="midnightblue" d="M1741.75,-147.15C1419.75,-141.8 265.8,-121.16 103,-98 93.75,-96.68 83.83,-94.41 74.95,-92.05"/>
<polygon fill="midnightblue" stroke="midnightblue" points="1741.88,-150.66 1751.94,-147.32 1742,-143.66 1741.88,-150.66"/>
</g>
<!-- Node4 -->
<g id="node4" class="node">
<title>Node4</title>
<g id="a_node4"><a xlink:href="d__attention_8cpp.html" target="_top" xlink:title=" ">
<polygon fill="white" stroke="black" points="3865.5,-6 3865.5,-25 3972.5,-25 3972.5,-6 3865.5,-6"/>
<text text-anchor="middle" x="3919" y="-13" font-family="Helvetica,sans-Serif" font-size="10.00">src/d/d_attention.cpp</text>
</a>
</g>
</g>
<!-- Node3&#45;&gt;Node4 -->
<g id="edge3" class="edge">
<title>Node3&#45;&gt;Node4</title>
<path fill="none" stroke="midnightblue" d="M1908.21,-148.39C2278.92,-147.64 3765.66,-141.9 3854,-98 3885.77,-82.21 3906.99,-42.83 3915.2,-25.23"/>
<polygon fill="midnightblue" stroke="midnightblue" points="1908.09,-144.89 1898.1,-148.41 1908.1,-151.89 1908.09,-144.89"/>
</g>
<!-- Node5 -->
<g id="node5" class="node">
<title>Node5</title>
<g id="a_node5"><a xlink:href="d__camera_8cpp.html" target="_top" xlink:title=" ">
<polygon fill="white" stroke="black" points="112,-73 112,-92 214,-92 214,-73 112,-73"/>
<text text-anchor="middle" x="163" y="-80" font-family="Helvetica,sans-Serif" font-size="10.00">src/d/d_camera.cpp</text>
</a>
</g>
</g>
<!-- Node3&#45;&gt;Node5 -->
<g id="edge4" class="edge">
<title>Node3&#45;&gt;Node5</title>
<path fill="none" stroke="midnightblue" d="M1741.47,-146.78C1434.42,-140.32 378.26,-116.96 228,-98 217.33,-96.65 205.84,-94.37 195.52,-92.01"/>
<polygon fill="midnightblue" stroke="midnightblue" points="1741.57,-150.28 1751.64,-146.99 1741.71,-143.28 1741.57,-150.28"/>
</g>
<!-- Node6 -->
<g id="node6" class="node">
<title>Node6</title>
<g id="a_node6"><a xlink:href="d__com__inf__game_8cpp.html" target="_top" xlink:title=" ">
<polygon fill="white" stroke="black" points="285.5,-0.5 285.5,-30.5 404.5,-30.5 404.5,-0.5 285.5,-0.5"/>
<text text-anchor="start" x="293.5" y="-18.5" font-family="Helvetica,sans-Serif" font-size="10.00">src/d/d_com/d_com_inf</text>
<text text-anchor="middle" x="345" y="-7.5" font-family="Helvetica,sans-Serif" font-size="10.00">_game.cpp</text>
</a>
</g>
</g>
<!-- Node3&#45;&gt;Node6 -->
<g id="edge5" class="edge">
<title>Node3&#45;&gt;Node6</title>
<path fill="none" stroke="midnightblue" d="M1741.81,-148.98C1425.51,-150.4 312.85,-151.55 261,-98 237.47,-73.69 280.08,-46.53 312.75,-30.51"/>
<polygon fill="midnightblue" stroke="midnightblue" points="1741.85,-152.48 1751.83,-148.93 1741.81,-145.48 1741.85,-152.48"/>
</g>
<!-- Node7 -->
<g id="node7" class="node">
<title>Node7</title>
<g id="a_node7"><a xlink:href="d__file__sel__info_8cpp.html" target="_top" xlink:title=" ">
<polygon fill="white" stroke="black" points="270.5,-67.5 270.5,-97.5 359.5,-97.5 359.5,-67.5 270.5,-67.5"/>
<text text-anchor="start" x="278.5" y="-85.5" font-family="Helvetica,sans-Serif" font-size="10.00">src/d/d_file/d_file</text>
<text text-anchor="middle" x="315" y="-74.5" font-family="Helvetica,sans-Serif" font-size="10.00">_sel_info.cpp</text>
</a>
</g>
</g>
<!-- Node3&#45;&gt;Node7 -->
<g id="edge6" class="edge">
<title>Node3&#45;&gt;Node7</title>
<path fill="none" stroke="midnightblue" d="M1741.89,-148.1C1474.25,-146.43 636.65,-138.04 369,-98 365.93,-97.54 362.78,-96.97 359.62,-96.32"/>
<polygon fill="midnightblue" stroke="midnightblue" points="1741.91,-151.6 1751.93,-148.16 1741.96,-144.6 1741.91,-151.6"/>
</g>
<!-- Node8 -->
<g id="node8" class="node">
<title>Node8</title>
<g id="a_node8"><a xlink:href="d__item_8cpp.html" target="_top" xlink:title=" ">
<polygon fill="white" stroke="black" points="445.5,-6 445.5,-25 566.5,-25 566.5,-6 445.5,-6"/>
<text text-anchor="middle" x="506" y="-13" font-family="Helvetica,sans-Serif" font-size="10.00">src/d/d_item/d_item.cpp</text>
</a>
</g>
</g>
<!-- Node3&#45;&gt;Node8 -->
<g id="edge7" class="edge">
<title>Node3&#45;&gt;Node8</title>
<path fill="none" stroke="midnightblue" d="M1908.43,-146.6C2050.4,-142.5 2326.52,-130.42 2356,-98 2365.27,-87.81 2365.61,-76.87 2356,-67 2324.08,-34.2 882.36,-19.77 566.67,-17"/>
<polygon fill="midnightblue" stroke="midnightblue" points="1907.93,-143.12 1898.03,-146.9 1908.13,-150.11 1907.93,-143.12"/>
</g>
<!-- Node9 -->
<g id="node9" class="node">
<title>Node9</title>
<g id="a_node9"><a xlink:href="d__kankyo__rain_8cpp.html" target="_top" xlink:title=" ">
<polygon fill="white" stroke="black" points="492.5,-67.5 492.5,-97.5 619.5,-97.5 619.5,-67.5 492.5,-67.5"/>
<text text-anchor="start" x="500.5" y="-85.5" font-family="Helvetica,sans-Serif" font-size="10.00">src/d/d_kankyo/d_kankyo</text>
<text text-anchor="middle" x="556" y="-74.5" font-family="Helvetica,sans-Serif" font-size="10.00">_rain.cpp</text>
</a>
</g>
</g>
<!-- Node3&#45;&gt;Node9 -->
<g id="edge8" class="edge">
<title>Node3&#45;&gt;Node9</title>
<path fill="none" stroke="midnightblue" d="M1741.56,-146.65C1507.01,-141.18 844.91,-123.85 629,-98 625.92,-97.63 622.78,-97.2 619.61,-96.73"/>
<polygon fill="midnightblue" stroke="midnightblue" points="1741.65,-150.15 1751.73,-146.89 1741.82,-143.15 1741.65,-150.15"/>
</g>
<!-- Node10 -->
<g id="node10" class="node">
<title>Node10</title>
<g id="a_node10"><a xlink:href="d__kankyo__wether_8cpp.html" target="_top" xlink:title=" ">
<polygon fill="white" stroke="black" points="637.5,-67.5 637.5,-97.5 764.5,-97.5 764.5,-67.5 637.5,-67.5"/>
<text text-anchor="start" x="645.5" y="-85.5" font-family="Helvetica,sans-Serif" font-size="10.00">src/d/d_kankyo/d_kankyo</text>
<text text-anchor="middle" x="701" y="-74.5" font-family="Helvetica,sans-Serif" font-size="10.00">_wether.cpp</text>
</a>
</g>
</g>
<!-- Node3&#45;&gt;Node10 -->
<g id="edge9" class="edge">
<title>Node3&#45;&gt;Node10</title>
<path fill="none" stroke="midnightblue" d="M1741.64,-148.68C1563.38,-148.13 1132.17,-141.93 774,-98 770.92,-97.62 767.78,-97.19 764.61,-96.71"/>
<polygon fill="midnightblue" stroke="midnightblue" points="1741.73,-152.18 1751.74,-148.7 1741.75,-145.18 1741.73,-152.18"/>
</g>
<!-- Node11 -->
<g id="node11" class="node">
<title>Node11</title>
<g id="a_node11"><a xlink:href="d__kankyo_8cpp.html" target="_top" xlink:title=" ">
<polygon fill="white" stroke="black" points="782.5,-73 782.5,-92 883.5,-92 883.5,-73 782.5,-73"/>
<text text-anchor="middle" x="833" y="-80" font-family="Helvetica,sans-Serif" font-size="10.00">src/d/d_kankyo.cpp</text>
</a>
</g>
</g>
<!-- Node3&#45;&gt;Node11 -->
<g id="edge10" class="edge">
<title>Node3&#45;&gt;Node11</title>
<path fill="none" stroke="midnightblue" d="M1741.26,-149.08C1577.43,-149.08 1203.43,-143.53 893,-98 883.35,-96.58 872.98,-94.34 863.62,-92.04"/>
<polygon fill="midnightblue" stroke="midnightblue" points="1741.75,-152.58 1751.74,-149.07 1741.74,-145.58 1741.75,-152.58"/>
</g>
<!-- Node12 -->
<g id="node12" class="node">
<title>Node12</title>
<g id="a_node12"><a xlink:href="d__kantera__icon__meter_8cpp.html" target="_top" xlink:title=" ">
<polygon fill="white" stroke="black" points="901.5,-67.5 901.5,-97.5 1008.5,-97.5 1008.5,-67.5 901.5,-67.5"/>
<text text-anchor="start" x="909.5" y="-85.5" font-family="Helvetica,sans-Serif" font-size="10.00">src/d/d_kantera_icon</text>
<text text-anchor="middle" x="955" y="-74.5" font-family="Helvetica,sans-Serif" font-size="10.00">_meter.cpp</text>
</a>
</g>
</g>
<!-- Node3&#45;&gt;Node12 -->
<g id="edge11" class="edge">
<title>Node3&#45;&gt;Node12</title>
<path fill="none" stroke="midnightblue" d="M1741.69,-147.77C1594.77,-145.49 1280.34,-136.14 1018,-98 1014.89,-97.55 1011.71,-97.02 1008.5,-96.44"/>
<polygon fill="midnightblue" stroke="midnightblue" points="1741.92,-151.27 1751.97,-147.92 1742.03,-144.28 1741.92,-151.27"/>
</g>
<!-- Node13 -->
<g id="node13" class="node">
<title>Node13</title>
<g id="a_node13"><a xlink:href="d__meter__button_8cpp.html" target="_top" xlink:title=" ">
<polygon fill="white" stroke="black" points="1026.5,-67.5 1026.5,-97.5 1141.5,-97.5 1141.5,-67.5 1026.5,-67.5"/>
<text text-anchor="start" x="1034.5" y="-85.5" font-family="Helvetica,sans-Serif" font-size="10.00">src/d/d_meter/d_meter</text>
<text text-anchor="middle" x="1084" y="-74.5" font-family="Helvetica,sans-Serif" font-size="10.00">_button.cpp</text>
</a>
</g>
</g>
<!-- Node3&#45;&gt;Node13 -->
<g id="edge12" class="edge">
<title>Node3&#45;&gt;Node13</title>
<path fill="none" stroke="midnightblue" d="M1741.73,-145.97C1614.04,-141.25 1362.43,-128.65 1151,-98 1147.94,-97.56 1144.81,-97.05 1141.65,-96.51"/>
<polygon fill="midnightblue" stroke="midnightblue" points="1741.71,-149.47 1751.83,-146.33 1741.96,-142.47 1741.71,-149.47"/>
</g>
<!-- Node14 -->
<g id="node14" class="node">
<title>Node14</title>
<g id="a_node14"><a xlink:href="d__meter__haihai_8cpp.html" target="_top" xlink:title=" ">
<polygon fill="white" stroke="black" points="1159.5,-67.5 1159.5,-97.5 1274.5,-97.5 1274.5,-67.5 1159.5,-67.5"/>
<text text-anchor="start" x="1167.5" y="-85.5" font-family="Helvetica,sans-Serif" font-size="10.00">src/d/d_meter/d_meter</text>
<text text-anchor="middle" x="1217" y="-74.5" font-family="Helvetica,sans-Serif" font-size="10.00">_haihai.cpp</text>
</a>
</g>
</g>
<!-- Node3&#45;&gt;Node14 -->
<g id="edge13" class="edge">
<title>Node3&#45;&gt;Node14</title>
<path fill="none" stroke="midnightblue" d="M1741.54,-143.83C1634.94,-137.15 1444.99,-122.84 1284,-98 1280.94,-97.53 1277.81,-97 1274.66,-96.44"/>
<polygon fill="midnightblue" stroke="midnightblue" points="1741.39,-147.33 1751.59,-144.45 1741.83,-140.34 1741.39,-147.33"/>
</g>
<!-- Node15 -->
<g id="node15" class="node">
<title>Node15</title>
<g id="a_node15"><a xlink:href="d__meter__hakusha_8cpp.html" target="_top" xlink:title=" ">
<polygon fill="white" stroke="black" points="1292.5,-67.5 1292.5,-97.5 1407.5,-97.5 1407.5,-67.5 1292.5,-67.5"/>
<text text-anchor="start" x="1300.5" y="-85.5" font-family="Helvetica,sans-Serif" font-size="10.00">src/d/d_meter/d_meter</text>
<text text-anchor="middle" x="1350" y="-74.5" font-family="Helvetica,sans-Serif" font-size="10.00">_hakusha.cpp</text>
</a>
</g>
</g>
<!-- Node3&#45;&gt;Node15 -->
<g id="edge14" class="edge">
<title>Node3&#45;&gt;Node15</title>
<path fill="none" stroke="midnightblue" d="M1741.65,-140.4C1658.97,-131.85 1528.8,-116.98 1417,-98 1413.95,-97.48 1410.83,-96.92 1407.68,-96.33"/>
<polygon fill="midnightblue" stroke="midnightblue" points="1741.44,-143.9 1751.75,-141.44 1742.16,-136.94 1741.44,-143.9"/>
</g>
<!-- Node16 -->
<g id="node16" class="node">
<title>Node16</title>
<g id="a_node16"><a xlink:href="d__meter__map_8cpp.html" target="_top" xlink:title=" ">
<polygon fill="white" stroke="black" points="1425.5,-67.5 1425.5,-97.5 1540.5,-97.5 1540.5,-67.5 1425.5,-67.5"/>
<text text-anchor="start" x="1433.5" y="-85.5" font-family="Helvetica,sans-Serif" font-size="10.00">src/d/d_meter/d_meter</text>
<text text-anchor="middle" x="1483" y="-74.5" font-family="Helvetica,sans-Serif" font-size="10.00">_map.cpp</text>
</a>
</g>
</g>
<!-- Node3&#45;&gt;Node16 -->
<g id="edge15" class="edge">
<title>Node3&#45;&gt;Node16</title>
<path fill="none" stroke="midnightblue" d="M1741.95,-133.95C1687.32,-124.21 1614.3,-110.86 1550,-98 1546.97,-97.39 1543.86,-96.76 1540.72,-96.11"/>
<polygon fill="midnightblue" stroke="midnightblue" points="1741.47,-137.42 1751.93,-135.73 1742.69,-130.53 1741.47,-137.42"/>
</g>
<!-- Node17 -->
<g id="node17" class="node">
<title>Node17</title>
<g id="a_node17"><a xlink:href="d__meter__string_8cpp.html" target="_top" xlink:title=" ">
<polygon fill="white" stroke="black" points="1558.5,-67.5 1558.5,-97.5 1673.5,-97.5 1673.5,-67.5 1558.5,-67.5"/>
<text text-anchor="start" x="1566.5" y="-85.5" font-family="Helvetica,sans-Serif" font-size="10.00">src/d/d_meter/d_meter</text>
<text text-anchor="middle" x="1616" y="-74.5" font-family="Helvetica,sans-Serif" font-size="10.00">_string.cpp</text>
</a>
</g>
</g>
<!-- Node3&#45;&gt;Node17 -->
<g id="edge16" class="edge">
<title>Node3&#45;&gt;Node17</title>
<path fill="none" stroke="midnightblue" d="M1770.16,-131.44C1736.28,-120.91 1693.33,-107.55 1661.37,-97.61"/>
<polygon fill="midnightblue" stroke="midnightblue" points="1769.32,-134.85 1779.91,-134.48 1771.4,-128.16 1769.32,-134.85"/>
</g>
<!-- Node18 -->
<g id="node18" class="node">
<title>Node18</title>
<g id="a_node18"><a xlink:href="d__meter2__draw_8cpp.html" target="_top" xlink:title=" ">
<polygon fill="white" stroke="black" points="1691.5,-67.5 1691.5,-97.5 1816.5,-97.5 1816.5,-67.5 1691.5,-67.5"/>
<text text-anchor="start" x="1699.5" y="-85.5" font-family="Helvetica,sans-Serif" font-size="10.00">src/d/d_meter2/d_meter2</text>
<text text-anchor="middle" x="1754" y="-74.5" font-family="Helvetica,sans-Serif" font-size="10.00">_draw.cpp</text>
</a>
</g>
</g>
<!-- Node3&#45;&gt;Node18 -->
<g id="edge17" class="edge">
<title>Node3&#45;&gt;Node18</title>
<path fill="none" stroke="midnightblue" d="M1802.17,-127.6C1791.45,-117.78 1778.95,-106.34 1769.38,-97.58"/>
<polygon fill="midnightblue" stroke="midnightblue" points="1799.85,-130.22 1809.59,-134.4 1804.58,-125.06 1799.85,-130.22"/>
</g>
<!-- Node19 -->
<g id="node19" class="node">
<title>Node19</title>
<g id="a_node19"><a xlink:href="d__meter2__info_8cpp.html" target="_top" xlink:title=" ">
<polygon fill="white" stroke="black" points="1834.5,-67.5 1834.5,-97.5 1959.5,-97.5 1959.5,-67.5 1834.5,-67.5"/>
<text text-anchor="start" x="1842.5" y="-85.5" font-family="Helvetica,sans-Serif" font-size="10.00">src/d/d_meter2/d_meter2</text>
<text text-anchor="middle" x="1897" y="-74.5" font-family="Helvetica,sans-Serif" font-size="10.00">_info.cpp</text>
</a>
</g>
</g>
<!-- Node3&#45;&gt;Node19 -->
<g id="edge18" class="edge">
<title>Node3&#45;&gt;Node19</title>
<path fill="none" stroke="midnightblue" d="M1848.15,-127.6C1859.02,-117.78 1871.7,-106.34 1881.41,-97.58"/>
<polygon fill="midnightblue" stroke="midnightblue" points="1845.7,-125.1 1840.62,-134.4 1850.39,-130.29 1845.7,-125.1"/>
</g>
<!-- Node20 -->
<g id="node20" class="node">
<title>Node20</title>
<g id="a_node20"><a xlink:href="d__meter2_8cpp.html" target="_top" xlink:title=" ">
<polygon fill="white" stroke="black" points="1978,-73 1978,-92 2078,-92 2078,-73 1978,-73"/>
<text text-anchor="middle" x="2028" y="-80" font-family="Helvetica,sans-Serif" font-size="10.00">src/d/d_meter2.cpp</text>
</a>
</g>
</g>
<!-- Node3&#45;&gt;Node20 -->
<g id="edge19" class="edge">
<title>Node3&#45;&gt;Node20</title>
<path fill="none" stroke="midnightblue" d="M1878.81,-131.27C1918.37,-118.6 1970.43,-101.93 2001.43,-92.01"/>
<polygon fill="midnightblue" stroke="midnightblue" points="1877.5,-128.01 1869.05,-134.4 1879.64,-134.68 1877.5,-128.01"/>
</g>
<!-- Node21 -->
<g id="node21" class="node">
<title>Node21</title>
<g id="a_node21"><a xlink:href="d__save_8cpp.html" target="_top" xlink:title=" ">
<polygon fill="white" stroke="black" points="2096.5,-73 2096.5,-92 2221.5,-92 2221.5,-73 2096.5,-73"/>
<text text-anchor="middle" x="2159" y="-80" font-family="Helvetica,sans-Serif" font-size="10.00">src/d/d_save/d_save.cpp</text>
</a>
</g>
</g>
<!-- Node3&#45;&gt;Node21 -->
<g id="edge20" class="edge">
<title>Node3&#45;&gt;Node21</title>
<path fill="none" stroke="midnightblue" d="M1908.24,-132.64C1959.75,-122.78 2027.24,-109.78 2087,-98 2096.63,-96.1 2106.98,-94.03 2116.75,-92.07"/>
<polygon fill="midnightblue" stroke="midnightblue" points="1907.32,-129.25 1898.16,-134.57 1908.64,-136.13 1907.32,-129.25"/>
</g>
<!-- Node22 -->
<g id="node22" class="node">
<title>Node22</title>
<g id="a_node22"><a xlink:href="d__save__HIO_8cpp.html" target="_top" xlink:title=" ">
<polygon fill="white" stroke="black" points="2239.5,-67.5 2239.5,-97.5 2346.5,-97.5 2346.5,-67.5 2239.5,-67.5"/>
<text text-anchor="start" x="2247.5" y="-85.5" font-family="Helvetica,sans-Serif" font-size="10.00">src/d/d_save/d_save</text>
<text text-anchor="middle" x="2293" y="-74.5" font-family="Helvetica,sans-Serif" font-size="10.00">_HIO.cpp</text>
</a>
</g>
</g>
<!-- Node3&#45;&gt;Node22 -->
<g id="edge21" class="edge">
<title>Node3&#45;&gt;Node22</title>
<path fill="none" stroke="midnightblue" d="M1908.38,-140.74C1990.73,-132.46 2120.08,-117.81 2231,-98 2233.72,-97.51 2236.5,-96.98 2239.3,-96.43"/>
<polygon fill="midnightblue" stroke="midnightblue" points="1907.93,-137.27 1898.33,-141.74 1908.62,-144.23 1907.93,-137.27"/>
</g>
<!-- Node23 -->
<g id="node23" class="node">
<title>Node23</title>
<g id="a_node23"><a xlink:href="f__pc__manager_8cpp.html" target="_top" xlink:title=" ">
<polygon fill="white" stroke="black" points="3427,-6 3427,-25 3567,-25 3567,-6 3427,-6"/>
<text text-anchor="middle" x="3497" y="-13" font-family="Helvetica,sans-Serif" font-size="10.00">src/f/f_pc/f_pc_manager.cpp</text>
</a>
</g>
</g>
<!-- Node3&#45;&gt;Node23 -->
<g id="edge23" class="edge">
<title>Node3&#45;&gt;Node23</title>
<path fill="none" stroke="midnightblue" d="M1908.3,-147.62C2249.04,-143.84 3520.1,-127.76 3549,-98 3571.33,-75 3531.4,-40.95 3509.67,-25.15"/>
<polygon fill="midnightblue" stroke="midnightblue" points="1908.21,-144.12 1898.25,-147.73 1908.29,-151.12 1908.21,-144.12"/>
</g>
<!-- Node24 -->
<g id="node24" class="node">
<title>Node24</title>
<g id="a_node24"><a xlink:href="m__Do__audio_8cpp.html" target="_top" xlink:title=" ">
<polygon fill="white" stroke="black" points="2403,-73 2403,-92 2537,-92 2537,-73 2403,-73"/>
<text text-anchor="middle" x="2470" y="-80" font-family="Helvetica,sans-Serif" font-size="10.00">src/m_Do/m_Do_audio.cpp</text>
</a>
</g>
</g>
<!-- Node3&#45;&gt;Node24 -->
<g id="edge24" class="edge">
<title>Node3&#45;&gt;Node24</title>
<path fill="none" stroke="midnightblue" d="M1908.3,-143.34C2018.57,-135.98 2218.92,-120.79 2389,-98 2401.18,-96.37 2414.31,-94.2 2426.39,-92.03"/>
<polygon fill="midnightblue" stroke="midnightblue" points="1907.98,-139.85 1898.24,-144 1908.45,-146.84 1907.98,-139.85"/>
</g>
<!-- Node25 -->
<g id="node25" class="node">
<title>Node25</title>
<g id="a_node25"><a xlink:href="m__Do__main_8cpp.html" target="_top" xlink:title=" ">
<polygon fill="white" stroke="black" points="2555.5,-73 2555.5,-92 2686.5,-92 2686.5,-73 2555.5,-73"/>
<text text-anchor="middle" x="2621" y="-80" font-family="Helvetica,sans-Serif" font-size="10.00">src/m_Do/m_Do_main.cpp</text>
</a>
</g>
</g>
<!-- Node3&#45;&gt;Node25 -->
<g id="edge25" class="edge">
<title>Node3&#45;&gt;Node25</title>
<path fill="none" stroke="midnightblue" d="M1908.45,-145.94C2043.08,-141.06 2316.37,-128.13 2546,-98 2557.7,-96.46 2570.33,-94.24 2581.83,-92"/>
<polygon fill="midnightblue" stroke="midnightblue" points="1908.08,-142.45 1898.21,-146.3 1908.33,-149.44 1908.08,-142.45"/>
</g>
<!-- Node26 -->
<g id="node26" class="node">
<title>Node26</title>
<g id="a_node26"><a xlink:href="Z2EnvSeMgr_8cpp.html" target="_top" xlink:title=" ">
<polygon fill="white" stroke="black" points="2704.5,-73 2704.5,-92 2865.5,-92 2865.5,-73 2704.5,-73"/>
<text text-anchor="middle" x="2785" y="-80" font-family="Helvetica,sans-Serif" font-size="10.00">libs/Z2AudioLib/Z2EnvSeMgr.cpp</text>
</a>
</g>
</g>
<!-- Node3&#45;&gt;Node26 -->
<g id="edge26" class="edge">
<title>Node3&#45;&gt;Node26</title>
<path fill="none" stroke="midnightblue" d="M1908.46,-146.54C2063.85,-142.24 2407.9,-129.73 2696,-98 2709.85,-96.47 2724.83,-94.26 2738.47,-92.01"/>
<polygon fill="midnightblue" stroke="midnightblue" points="1907.95,-143.05 1898.05,-146.82 1908.14,-150.05 1907.95,-143.05"/>
</g>
<!-- Node27 -->
<g id="node27" class="node">
<title>Node27</title>
<g id="a_node27"><a xlink:href="Z2LinkMgr_8cpp.html" target="_top" xlink:title=" ">
<polygon fill="white" stroke="black" points="2884,-73 2884,-92 3036,-92 3036,-73 2884,-73"/>
<text text-anchor="middle" x="2960" y="-80" font-family="Helvetica,sans-Serif" font-size="10.00">libs/Z2AudioLib/Z2LinkMgr.cpp</text>
</a>
</g>
</g>
<!-- Node3&#45;&gt;Node27 -->
<g id="edge27" class="edge">
<title>Node3&#45;&gt;Node27</title>
<path fill="none" stroke="midnightblue" d="M1908.19,-147.91C2086.11,-145.9 2516.6,-137.04 2875,-98 2888.39,-96.54 2902.88,-94.32 2916.03,-92.04"/>
<polygon fill="midnightblue" stroke="midnightblue" points="1908.08,-144.41 1898.12,-148.02 1908.15,-151.41 1908.08,-144.41"/>
</g>
<!-- Node28 -->
<g id="node28" class="node">
<title>Node28</title>
<g id="a_node28"><a xlink:href="Z2SceneMgr_8cpp.html" target="_top" xlink:title=" ">
<polygon fill="white" stroke="black" points="3054.5,-73 3054.5,-92 3215.5,-92 3215.5,-73 3054.5,-73"/>
<text text-anchor="middle" x="3135" y="-80" font-family="Helvetica,sans-Serif" font-size="10.00">libs/Z2AudioLib/Z2SceneMgr.cpp</text>
</a>
</g>
</g>
<!-- Node3&#45;&gt;Node28 -->
<g id="edge28" class="edge">
<title>Node3&#45;&gt;Node28</title>
<path fill="none" stroke="midnightblue" d="M1908.11,-148.44C2105.72,-147.58 2618.97,-140.98 3045,-98 3059.33,-96.55 3074.84,-94.3 3088.89,-92"/>
<polygon fill="midnightblue" stroke="midnightblue" points="1908.08,-144.94 1898.09,-148.49 1908.11,-151.94 1908.08,-144.94"/>
</g>
<!-- Node29 -->
<g id="node29" class="node">
<title>Node29</title>
<g id="a_node29"><a xlink:href="Z2SoundMgr_8cpp.html" target="_top" xlink:title=" ">
<polygon fill="white" stroke="black" points="3233.5,-73 3233.5,-92 3394.5,-92 3394.5,-73 3233.5,-73"/>
<text text-anchor="middle" x="3314" y="-80" font-family="Helvetica,sans-Serif" font-size="10.00">libs/Z2AudioLib/Z2SoundMgr.cpp</text>
</a>
</g>
</g>
<!-- Node3&#45;&gt;Node29 -->
<g id="edge29" class="edge">
<title>Node3&#45;&gt;Node29</title>
<path fill="none" stroke="midnightblue" d="M1908.14,-149.13C2125.27,-149.99 2727.07,-147.35 3225,-98 3239.18,-96.6 3254.52,-94.36 3268.41,-92.06"/>
<polygon fill="midnightblue" stroke="midnightblue" points="1908.11,-145.63 1898.09,-149.09 1908.07,-152.63 1908.11,-145.63"/>
</g>
<!-- Node30 -->
<g id="node30" class="node">
<title>Node30</title>
<g id="a_node30"><a xlink:href="Z2StatusMgr_8cpp.html" target="_top" xlink:title=" ">
<polygon fill="white" stroke="black" points="3412.5,-67.5 3412.5,-97.5 3539.5,-97.5 3539.5,-67.5 3412.5,-67.5"/>
<text text-anchor="start" x="3420.5" y="-85.5" font-family="Helvetica,sans-Serif" font-size="10.00">libs/Z2AudioLib/Z2Status</text>
<text text-anchor="middle" x="3476" y="-74.5" font-family="Helvetica,sans-Serif" font-size="10.00">Mgr.cpp</text>
</a>
</g>
</g>
<!-- Node3&#45;&gt;Node30 -->
<g id="edge30" class="edge">
<title>Node3&#45;&gt;Node30</title>
<path fill="none" stroke="midnightblue" d="M1908.19,-147.67C2190.42,-144.57 3110.15,-132.05 3404,-98 3406.79,-97.68 3409.63,-97.3 3412.49,-96.89"/>
<polygon fill="midnightblue" stroke="midnightblue" points="1907.98,-144.17 1898.02,-147.78 1908.06,-151.17 1907.98,-144.17"/>
</g>
<!-- Node31 -->
<g id="node31" class="node">
<title>Node31</title>
<g id="a_node31"><a xlink:href="d__a__alink_8h.html" target="_top" xlink:title=" ">
<polygon fill="white" stroke="black" points="3725.5,-67.5 3725.5,-97.5 3844.5,-97.5 3844.5,-67.5 3725.5,-67.5"/>
<text text-anchor="start" x="3733.5" y="-85.5" font-family="Helvetica,sans-Serif" font-size="10.00">include/d/d_a/d_a_alink</text>
<text text-anchor="middle" x="3785" y="-74.5" font-family="Helvetica,sans-Serif" font-size="10.00">/d_a_alink.h</text>
</a>
</g>
</g>
<!-- Node3&#45;&gt;Node31 -->
<g id="edge31" class="edge">
<title>Node3&#45;&gt;Node31</title>
<path fill="none" stroke="midnightblue" d="M1908.49,-147.9C2224.52,-145.38 3347.45,-134.02 3703,-98 3710.19,-97.27 3717.7,-96.27 3725.13,-95.14"/>
<polygon fill="midnightblue" stroke="midnightblue" points="1908.01,-144.4 1898.04,-147.98 1908.07,-151.4 1908.01,-144.4"/>
</g>
<!-- Node34 -->
<g id="node34" class="node">
<title>Node34</title>
<g id="a_node34"><a xlink:href="d__item_8h.html" target="_top" xlink:title=" ">
<polygon fill="white" stroke="black" points="378,-67.5 378,-97.5 474,-97.5 474,-67.5 378,-67.5"/>
<text text-anchor="start" x="386" y="-85.5" font-family="Helvetica,sans-Serif" font-size="10.00">include/d/d_item/d</text>
<text text-anchor="middle" x="426" y="-74.5" font-family="Helvetica,sans-Serif" font-size="10.00">_item/d_item.h</text>
</a>
</g>
</g>
<!-- Node3&#45;&gt;Node34 -->
<g id="edge36" class="edge">
<title>Node3&#45;&gt;Node34</title>
<path fill="none" stroke="midnightblue" d="M1741.59,-147.67C1487.85,-144.78 727.67,-133.32 483,-98 480.07,-97.58 477.07,-97.06 474.06,-96.49"/>
<polygon fill="midnightblue" stroke="midnightblue" points="1741.81,-151.17 1751.85,-147.78 1741.89,-144.17 1741.81,-151.17"/>
</g>
<!-- Node35 -->
<g id="node35" class="node">
<title>Node35</title>
<g id="a_node35"><a xlink:href="f__pc__manager_8h.html" target="_top" xlink:title=" ">
<polygon fill="white" stroke="black" points="3596.5,-67.5 3596.5,-97.5 3693.5,-97.5 3693.5,-67.5 3596.5,-67.5"/>
<text text-anchor="start" x="3604.5" y="-85.5" font-family="Helvetica,sans-Serif" font-size="10.00">include/f/f_pc/f_pc</text>
<text text-anchor="middle" x="3645" y="-74.5" font-family="Helvetica,sans-Serif" font-size="10.00">_manager.h</text>
</a>
</g>
</g>
<!-- Node3&#45;&gt;Node35 -->
<g id="edge39" class="edge">
<title>Node3&#45;&gt;Node35</title>
<path fill="none" stroke="midnightblue" d="M1908.25,-148.29C2210.9,-147.17 3252.23,-140.27 3582,-98 3586.68,-97.4 3591.51,-96.61 3596.33,-95.7"/>
<polygon fill="midnightblue" stroke="midnightblue" points="1908.22,-144.79 1898.23,-148.32 1908.24,-151.79 1908.22,-144.79"/>
</g>
<!-- Node31&#45;&gt;Node4 -->
<g id="edge32" class="edge">
<title>Node31&#45;&gt;Node4</title>
<path fill="none" stroke="midnightblue" d="M3823.21,-62.97C3848.95,-50.48 3881.69,-34.6 3901.46,-25.01"/>
<polygon fill="midnightblue" stroke="midnightblue" points="3821.55,-59.88 3814.08,-67.4 3824.6,-66.18 3821.55,-59.88"/>
</g>
<!-- Node32 -->
<g id="node32" class="node">
<title>Node32</title>
<g id="a_node32"><a xlink:href="d__a__alink_8cpp.html" target="_top" xlink:title=" ">
<polygon fill="white" stroke="black" points="3585.5,-6 3585.5,-25 3704.5,-25 3704.5,-6 3585.5,-6"/>
<text text-anchor="middle" x="3645" y="-13" font-family="Helvetica,sans-Serif" font-size="10.00">src/d/d_a/d_a_alink.cpp</text>
</a>
</g>
</g>
<!-- Node31&#45;&gt;Node32 -->
<g id="edge33" class="edge">
<title>Node31&#45;&gt;Node32</title>
<path fill="none" stroke="midnightblue" d="M3745.44,-63.13C3718.49,-50.62 3684.07,-34.64 3663.32,-25.01"/>
<polygon fill="midnightblue" stroke="midnightblue" points="3744.08,-66.36 3754.62,-67.4 3747.03,-60.01 3744.08,-66.36"/>
</g>
<!-- Node33 -->
<g id="node33" class="node">
<title>Node33</title>
<g id="a_node33"><a xlink:href="d__a__player_8h.html" target="_top" xlink:title=" ">
<polygon fill="white" stroke="black" points="3723,-0.5 3723,-30.5 3847,-30.5 3847,-0.5 3723,-0.5"/>
<text text-anchor="start" x="3731" y="-18.5" font-family="Helvetica,sans-Serif" font-size="10.00">include/d/d_a/d_a_player</text>
<text text-anchor="middle" x="3785" y="-7.5" font-family="Helvetica,sans-Serif" font-size="10.00">/d_a_player.h</text>
</a>
</g>
</g>
<!-- Node31&#45;&gt;Node33 -->
<g id="edge34" class="edge">
<title>Node31&#45;&gt;Node33</title>
<path fill="none" stroke="midnightblue" d="M3778.45,-57.4C3778.01,-48.37 3778.3,-38.41 3779.33,-30.58"/>
<polygon fill="midnightblue" stroke="midnightblue" points="3774.97,-57.74 3779.32,-67.4 3781.94,-57.13 3774.97,-57.74"/>
</g>
<!-- Node33&#45;&gt;Node31 -->
<g id="edge35" class="edge">
<title>Node33&#45;&gt;Node31</title>
<path fill="none" stroke="midnightblue" d="M3791.54,-40.57C3791.99,-49.6 3791.71,-59.56 3790.68,-67.4"/>
<polygon fill="midnightblue" stroke="midnightblue" points="3795.03,-40.24 3790.67,-30.58 3788.05,-40.84 3795.03,-40.24"/>
</g>
<!-- Node34&#45;&gt;Node6 -->
<g id="edge37" class="edge">
<title>Node34&#45;&gt;Node6</title>
<path fill="none" stroke="midnightblue" d="M400.31,-60.88C388,-51.01 373.57,-39.43 362.54,-30.58"/>
<polygon fill="midnightblue" stroke="midnightblue" points="398.43,-63.87 408.42,-67.4 402.82,-58.41 398.43,-63.87"/>
</g>
<!-- Node34&#45;&gt;Node8 -->
<g id="edge38" class="edge">
<title>Node34&#45;&gt;Node8</title>
<path fill="none" stroke="midnightblue" d="M451.22,-61.01C466.07,-48.94 484.09,-34.3 495.3,-25.19"/>
<polygon fill="midnightblue" stroke="midnightblue" points="448.91,-58.37 443.36,-67.4 453.33,-63.81 448.91,-58.37"/>
</g>
<!-- Node35&#45;&gt;Node23 -->
<g id="edge40" class="edge">
<title>Node35&#45;&gt;Node23</title>
<path fill="none" stroke="midnightblue" d="M3603.55,-63.3C3575.01,-50.76 3538.4,-34.68 3516.37,-25.01"/>
<polygon fill="midnightblue" stroke="midnightblue" points="3602.32,-66.58 3612.89,-67.4 3605.14,-60.17 3602.32,-66.58"/>
</g>
<!-- Node35&#45;&gt;Node32 -->
<g id="edge41" class="edge">
<title>Node35&#45;&gt;Node32</title>
<path fill="none" stroke="midnightblue" d="M3645,-57.25C3645,-46.02 3645,-33.38 3645,-25.19"/>
<polygon fill="midnightblue" stroke="midnightblue" points="3641.5,-57.4 3645,-67.4 3648.5,-57.4 3641.5,-57.4"/>
</g>
</g>
</svg>
