<?xml version="1.0" encoding="UTF-8" standalone="no"?>
<!DOCTYPE svg PUBLIC "-//W3C//DTD SVG 1.1//EN"
 "http://www.w3.org/Graphics/SVG/1.1/DTD/svg11.dtd">
<!-- Generated by graphviz version 2.46.1 (20210215.1649)
 -->
<!-- Title: include/d/d_stage/d_stage.h Pages: 1 -->
<!--zoomable 307 -->
<svg id="main" version="1.1" xmlns="http://www.w3.org/2000/svg" xmlns:xlink="http://www.w3.org/1999/xlink" xml:space="preserve" onload="init(evt)">
<style type="text/css"><![CDATA[
.edge:hover path { stroke: red; }
.edge:hover polygon { stroke: red; fill: red; }
]]></style>
<script type="text/javascript"><![CDATA[
var edges = document.getElementsByTagName('g');
if (edges && edges.length) {
  for (var i=0;i<edges.length;i++) {
    if (edges[i].id.substr(0,4)=='edge') {
      edges[i].setAttribute('class','edge');
    }
  }
}
]]></script>
        <defs>
                <circle id="rim" cx="0" cy="0" r="7"/>
                <circle id="rim2" cx="0" cy="0" r="3.5"/>
                <g id="zoomPlus">
                        <use xlink:href="#rim" fill="#404040">
                                <set attributeName="fill" to="#808080" begin="zoomplus.mouseover" end="zoomplus.mouseout"/>
                        </use>
                        <path d="M-4,0h8M0,-4v8" fill="none" stroke="white" stroke-width="1.5" pointer-events="none"/>
                </g>
                <g id="zoomMin">
                        <use xlink:href="#rim" fill="#404040">
                                <set attributeName="fill" to="#808080" begin="zoomminus.mouseover" end="zoomminus.mouseout"/>
                        </use>
                        <path d="M-4,0h8" fill="none" stroke="white" stroke-width="1.5" pointer-events="none"/>
                </g>
                <g id="dirArrow">
                        <path fill="none" stroke="white" stroke-width="1.5" d="M0,-3.0v7 M-2.5,-0.5L0,-3.0L2.5,-0.5"/>
                </g>
               <g id="resetDef">
                       <use xlink:href="#rim2" fill="#404040">
                               <set attributeName="fill" to="#808080" begin="reset.mouseover" end="reset.mouseout"/>
                       </use>
               </g>
        </defs>

<script type="text/javascript">
var viewWidth = 5116;
var viewHeight = 307;
var sectionId = 'dynsection-1';
</script>
<script xlink:href="svgpan.js"/>
<svg id="graph" class="graph">
<g id="viewport">
<title>include/d/d_stage/d_stage.h</title>
<polygon fill="white" stroke="transparent" points="-4,4 -4,-303 5112.23,-303 5112.23,4 -4,4"/>
<!-- Node1 -->
<g id="node1" class="node">
<title>Node1</title>
<g id="a_node1"><a xlink:title=" ">
<polygon fill="#bfbfbf" stroke="black" points="3,-268.5 3,-298.5 104,-298.5 104,-268.5 3,-268.5"/>
<text text-anchor="start" x="11" y="-286.5" font-family="Helvetica,sans-Serif" font-size="10.00">include/d/d_stage/d</text>
<text text-anchor="middle" x="53.5" y="-275.5" font-family="Helvetica,sans-Serif" font-size="10.00">_stage.h</text>
</a>
</g>
</g>
<!-- Node2 -->
<g id="node2" class="node">
<title>Node2</title>
<g id="a_node2"><a xlink:href="d__stage_8cpp.html" target="_top" xlink:title=" ">
<polygon fill="white" stroke="black" points="125.5,-6 125.5,-25 219.5,-25 219.5,-6 125.5,-6"/>
<text text-anchor="middle" x="172.5" y="-13" font-family="Helvetica,sans-Serif" font-size="10.00">src/d/d_stage.cpp</text>
</a>
</g>
</g>
<!-- Node1&#45;&gt;Node2 -->
<g id="edge1" class="edge">
<title>Node1&#45;&gt;Node2</title>
<path fill="none" stroke="midnightblue" d="M61.98,-258.86C76.69,-218.66 108.6,-134.77 142.5,-67 150.07,-51.86 160.44,-35.12 166.79,-25.22"/>
<polygon fill="midnightblue" stroke="midnightblue" points="58.67,-257.73 58.54,-268.32 65.25,-260.12 58.67,-257.73"/>
</g>
<!-- Node3 -->
<g id="node3" class="node">
<title>Node3</title>
<g id="a_node3"><a xlink:href="f__op__actor__mng_8cpp.html" target="_top" xlink:title=" ">
<polygon fill="white" stroke="black" points="0,-0.5 0,-30.5 107,-30.5 107,-0.5 0,-0.5"/>
<text text-anchor="start" x="8" y="-18.5" font-family="Helvetica,sans-Serif" font-size="10.00">src/f/f_op/f_op_actor</text>
<text text-anchor="middle" x="53.5" y="-7.5" font-family="Helvetica,sans-Serif" font-size="10.00">_mng.cpp</text>
</a>
</g>
</g>
<!-- Node1&#45;&gt;Node3 -->
<g id="edge2" class="edge">
<title>Node1&#45;&gt;Node3</title>
<path fill="none" stroke="midnightblue" d="M45.39,-258.38C42.99,-250.12 40.69,-240.75 39.5,-232 29.61,-159.34 29.61,-139.66 39.5,-67 41.19,-54.56 45.13,-40.86 48.4,-30.87"/>
<polygon fill="midnightblue" stroke="midnightblue" points="42.1,-259.61 48.4,-268.13 48.79,-257.54 42.1,-259.61"/>
</g>
<!-- Node4 -->
<g id="node4" class="node">
<title>Node4</title>
<g id="a_node4"><a xlink:href="d__com__inf__game_8h.html" target="_top" xlink:title=" ">
<polygon fill="white" stroke="black" points="2232.5,-201.5 2232.5,-231.5 2378.5,-231.5 2378.5,-201.5 2232.5,-201.5"/>
<text text-anchor="start" x="2240.5" y="-219.5" font-family="Helvetica,sans-Serif" font-size="10.00">include/d/d_com/d_com</text>
<text text-anchor="middle" x="2305.5" y="-208.5" font-family="Helvetica,sans-Serif" font-size="10.00">_inf_game/d_com_inf_game.h</text>
</a>
</g>
</g>
<!-- Node1&#45;&gt;Node4 -->
<g id="edge3" class="edge">
<title>Node1&#45;&gt;Node4</title>
<path fill="none" stroke="midnightblue" d="M114.59,-280.74C431.6,-271.59 1887.83,-229.56 2232.31,-219.61"/>
<polygon fill="midnightblue" stroke="midnightblue" points="114.12,-277.25 104.23,-281.04 114.33,-284.25 114.12,-277.25"/>
</g>
<!-- Node4&#45;&gt;Node2 -->
<g id="edge24" class="edge">
<title>Node4&#45;&gt;Node2</title>
<path fill="none" stroke="midnightblue" d="M2222.43,-215.43C1843.77,-214.89 295.61,-209.92 203.5,-165 168.87,-148.11 161.48,-134.27 148.5,-98 139.16,-71.89 156.48,-40.18 166.34,-25.17"/>
<polygon fill="midnightblue" stroke="midnightblue" points="2222.49,-218.93 2232.49,-215.45 2222.5,-211.93 2222.49,-218.93"/>
</g>
<!-- Node4&#45;&gt;Node3 -->
<g id="edge25" class="edge">
<title>Node4&#45;&gt;Node3</title>
<path fill="none" stroke="midnightblue" d="M2222.3,-215.6C1838.57,-215.78 254.2,-213.59 161.5,-165 105.31,-135.55 71.22,-62.15 58.82,-30.93"/>
<polygon fill="midnightblue" stroke="midnightblue" points="2222.5,-219.1 2232.5,-215.59 2222.49,-212.1 2222.5,-219.1"/>
</g>
<!-- Node5 -->
<g id="node5" class="node">
<title>Node5</title>
<g id="a_node5"><a xlink:href="d__attention_8cpp.html" target="_top" xlink:title=" ">
<polygon fill="white" stroke="black" points="600,-6 600,-25 707,-25 707,-6 600,-6"/>
<text text-anchor="middle" x="653.5" y="-13" font-family="Helvetica,sans-Serif" font-size="10.00">src/d/d_attention.cpp</text>
</a>
</g>
</g>
<!-- Node4&#45;&gt;Node5 -->
<g id="edge4" class="edge">
<title>Node4&#45;&gt;Node5</title>
<path fill="none" stroke="midnightblue" d="M2388.83,-215.53C2838.95,-215.52 4961.48,-212.91 5008.5,-165 5018.15,-155.17 5018.08,-143.9 5008.5,-134 4929.94,-52.76 1200.31,-20.78 707.14,-16.91"/>
<polygon fill="midnightblue" stroke="midnightblue" points="2388.51,-212.03 2378.51,-215.53 2388.51,-219.03 2388.51,-212.03"/>
</g>
<!-- Node6 -->
<g id="node6" class="node">
<title>Node6</title>
<g id="a_node6"><a xlink:href="d__camera_8cpp.html" target="_top" xlink:title=" ">
<polygon fill="white" stroke="black" points="2832.5,-6 2832.5,-25 2934.5,-25 2934.5,-6 2832.5,-6"/>
<text text-anchor="middle" x="2883.5" y="-13" font-family="Helvetica,sans-Serif" font-size="10.00">src/d/d_camera.cpp</text>
</a>
</g>
</g>
<!-- Node4&#45;&gt;Node6 -->
<g id="edge5" class="edge">
<title>Node4&#45;&gt;Node6</title>
<path fill="none" stroke="midnightblue" d="M2388.67,-215.56C2843.84,-215.72 5014.47,-213.92 5062.5,-165 5093.02,-133.92 5092.94,-98.15 5062.5,-67 5043.29,-47.34 3261.66,-21.74 2934.73,-17.2"/>
<polygon fill="midnightblue" stroke="midnightblue" points="2388.56,-212.06 2378.56,-215.56 2388.56,-219.06 2388.56,-212.06"/>
</g>
<!-- Node7 -->
<g id="node7" class="node">
<title>Node7</title>
<g id="a_node7"><a xlink:href="d__com__inf__game_8cpp.html" target="_top" xlink:title=" ">
<polygon fill="white" stroke="black" points="729,-67.5 729,-97.5 848,-97.5 848,-67.5 729,-67.5"/>
<text text-anchor="start" x="737" y="-85.5" font-family="Helvetica,sans-Serif" font-size="10.00">src/d/d_com/d_com_inf</text>
<text text-anchor="middle" x="788.5" y="-74.5" font-family="Helvetica,sans-Serif" font-size="10.00">_game.cpp</text>
</a>
</g>
</g>
<!-- Node4&#45;&gt;Node7 -->
<g id="edge6" class="edge">
<title>Node4&#45;&gt;Node7</title>
<path fill="none" stroke="midnightblue" d="M2222.08,-214.85C1859.91,-211.84 440.58,-197.94 408.5,-165 398.89,-155.13 399.33,-144.29 408.5,-134 454.78,-82.05 650.83,-109.17 719.5,-98 722.52,-97.51 725.61,-96.98 728.72,-96.41"/>
<polygon fill="midnightblue" stroke="midnightblue" points="2222.2,-218.35 2232.23,-214.93 2222.26,-211.35 2222.2,-218.35"/>
</g>
<!-- Node8 -->
<g id="node8" class="node">
<title>Node8</title>
<g id="a_node8"><a xlink:href="d__file__sel__info_8cpp.html" target="_top" xlink:title=" ">
<polygon fill="white" stroke="black" points="532,-134.5 532,-164.5 621,-164.5 621,-134.5 532,-134.5"/>
<text text-anchor="start" x="540" y="-152.5" font-family="Helvetica,sans-Serif" font-size="10.00">src/d/d_file/d_file</text>
<text text-anchor="middle" x="576.5" y="-141.5" font-family="Helvetica,sans-Serif" font-size="10.00">_sel_info.cpp</text>
</a>
</g>
</g>
<!-- Node4&#45;&gt;Node8 -->
<g id="edge7" class="edge">
<title>Node4&#45;&gt;Node8</title>
<path fill="none" stroke="midnightblue" d="M2222.11,-215.6C1928.26,-215.53 941.76,-211.74 629.5,-165 626.76,-164.59 623.97,-164.09 621.16,-163.52"/>
<polygon fill="midnightblue" stroke="midnightblue" points="2222.27,-219.1 2232.27,-215.6 2222.27,-212.1 2222.27,-219.1"/>
</g>
<!-- Node9 -->
<g id="node9" class="node">
<title>Node9</title>
<g id="a_node9"><a xlink:href="d__item_8cpp.html" target="_top" xlink:title=" ">
<polygon fill="white" stroke="black" points="2883,-73 2883,-92 3004,-92 3004,-73 2883,-73"/>
<text text-anchor="middle" x="2943.5" y="-80" font-family="Helvetica,sans-Serif" font-size="10.00">src/d/d_item/d_item.cpp</text>
</a>
</g>
</g>
<!-- Node4&#45;&gt;Node9 -->
<g id="edge8" class="edge">
<title>Node4&#45;&gt;Node9</title>
<path fill="none" stroke="midnightblue" d="M2389.03,-215.52C2837.88,-215.45 4944.81,-212.58 4991.5,-165 5001.15,-155.17 5001.12,-143.86 4991.5,-134 4955.89,-97.5 3339.94,-85.87 3004.2,-83.84"/>
<polygon fill="midnightblue" stroke="midnightblue" points="2388.74,-212.02 2378.74,-215.52 2388.74,-219.02 2388.74,-212.02"/>
</g>
<!-- Node10 -->
<g id="node10" class="node">
<title>Node10</title>
<g id="a_node10"><a xlink:href="d__kankyo__rain_8cpp.html" target="_top" xlink:title=" ">
<polygon fill="white" stroke="black" points="639,-134.5 639,-164.5 766,-164.5 766,-134.5 639,-134.5"/>
<text text-anchor="start" x="647" y="-152.5" font-family="Helvetica,sans-Serif" font-size="10.00">src/d/d_kankyo/d_kankyo</text>
<text text-anchor="middle" x="702.5" y="-141.5" font-family="Helvetica,sans-Serif" font-size="10.00">_rain.cpp</text>
</a>
</g>
</g>
<!-- Node4&#45;&gt;Node10 -->
<g id="edge9" class="edge">
<title>Node4&#45;&gt;Node10</title>
<path fill="none" stroke="midnightblue" d="M2222.06,-214.57C1945.21,-211.2 1058.45,-198.04 774.5,-165 771.71,-164.68 768.87,-164.3 766.01,-163.88"/>
<polygon fill="midnightblue" stroke="midnightblue" points="2222.4,-218.08 2232.44,-214.7 2222.48,-211.08 2222.4,-218.08"/>
</g>
<!-- Node11 -->
<g id="node11" class="node">
<title>Node11</title>
<g id="a_node11"><a xlink:href="d__kankyo__wether_8cpp.html" target="_top" xlink:title=" ">
<polygon fill="white" stroke="black" points="784,-134.5 784,-164.5 911,-164.5 911,-134.5 784,-134.5"/>
<text text-anchor="start" x="792" y="-152.5" font-family="Helvetica,sans-Serif" font-size="10.00">src/d/d_kankyo/d_kankyo</text>
<text text-anchor="middle" x="847.5" y="-141.5" font-family="Helvetica,sans-Serif" font-size="10.00">_wether.cpp</text>
</a>
</g>
</g>
<!-- Node4&#45;&gt;Node11 -->
<g id="edge10" class="edge">
<title>Node4&#45;&gt;Node11</title>
<path fill="none" stroke="midnightblue" d="M2222.09,-214.24C1962.93,-210.03 1173.9,-195.05 919.5,-165 916.71,-164.67 913.88,-164.29 911.01,-163.87"/>
<polygon fill="midnightblue" stroke="midnightblue" points="2222.13,-217.74 2232.19,-214.4 2222.24,-210.74 2222.13,-217.74"/>
</g>
<!-- Node12 -->
<g id="node12" class="node">
<title>Node12</title>
<g id="a_node12"><a xlink:href="d__kankyo_8cpp.html" target="_top" xlink:title=" ">
<polygon fill="white" stroke="black" points="929,-140 929,-159 1030,-159 1030,-140 929,-140"/>
<text text-anchor="middle" x="979.5" y="-147" font-family="Helvetica,sans-Serif" font-size="10.00">src/d/d_kankyo.cpp</text>
</a>
</g>
</g>
<!-- Node4&#45;&gt;Node12 -->
<g id="edge11" class="edge">
<title>Node4&#45;&gt;Node12</title>
<path fill="none" stroke="midnightblue" d="M2222.17,-214.37C1978.2,-210.7 1268.16,-197.46 1038.5,-165 1028.89,-163.64 1018.57,-161.39 1009.29,-159.06"/>
<polygon fill="midnightblue" stroke="midnightblue" points="2222.34,-217.87 2232.4,-214.52 2222.45,-210.87 2222.34,-217.87"/>
</g>
<!-- Node13 -->
<g id="node13" class="node">
<title>Node13</title>
<g id="a_node13"><a xlink:href="d__kantera__icon__meter_8cpp.html" target="_top" xlink:title=" ">
<polygon fill="white" stroke="black" points="1048,-134.5 1048,-164.5 1155,-164.5 1155,-134.5 1048,-134.5"/>
<text text-anchor="start" x="1056" y="-152.5" font-family="Helvetica,sans-Serif" font-size="10.00">src/d/d_kantera_icon</text>
<text text-anchor="middle" x="1101.5" y="-141.5" font-family="Helvetica,sans-Serif" font-size="10.00">_meter.cpp</text>
</a>
</g>
</g>
<!-- Node4&#45;&gt;Node13 -->
<g id="edge12" class="edge">
<title>Node4&#45;&gt;Node13</title>
<path fill="none" stroke="midnightblue" d="M2222.25,-213.82C1995.13,-208.93 1368.14,-193.2 1163.5,-165 1160.76,-164.62 1157.97,-164.18 1155.15,-163.69"/>
<polygon fill="midnightblue" stroke="midnightblue" points="2222.36,-217.33 2232.44,-214.04 2222.51,-210.33 2222.36,-217.33"/>
</g>
<!-- Node14 -->
<g id="node14" class="node">
<title>Node14</title>
<g id="a_node14"><a xlink:href="d__kyeff_8cpp.html" target="_top" xlink:title=" ">
<polygon fill="white" stroke="black" points="1173,-140 1173,-159 1286,-159 1286,-140 1173,-140"/>
<text text-anchor="middle" x="1229.5" y="-147" font-family="Helvetica,sans-Serif" font-size="10.00">src/d/d_ky/d_kyeff.cpp</text>
</a>
</g>
</g>
<!-- Node4&#45;&gt;Node14 -->
<g id="edge13" class="edge">
<title>Node4&#45;&gt;Node14</title>
<path fill="none" stroke="midnightblue" d="M2222.4,-216.1C2049.06,-216.31 1636.63,-211.36 1294.5,-165 1284.07,-163.59 1272.85,-161.35 1262.71,-159.05"/>
<polygon fill="midnightblue" stroke="midnightblue" points="2222.48,-219.6 2232.47,-216.08 2222.46,-212.6 2222.48,-219.6"/>
</g>
<!-- Node15 -->
<g id="node15" class="node">
<title>Node15</title>
<g id="a_node15"><a xlink:href="d__meter__button_8cpp.html" target="_top" xlink:title=" ">
<polygon fill="white" stroke="black" points="1304,-134.5 1304,-164.5 1419,-164.5 1419,-134.5 1304,-134.5"/>
<text text-anchor="start" x="1312" y="-152.5" font-family="Helvetica,sans-Serif" font-size="10.00">src/d/d_meter/d_meter</text>
<text text-anchor="middle" x="1361.5" y="-141.5" font-family="Helvetica,sans-Serif" font-size="10.00">_button.cpp</text>
</a>
</g>
</g>
<!-- Node4&#45;&gt;Node15 -->
<g id="edge14" class="edge">
<title>Node4&#45;&gt;Node15</title>
<path fill="none" stroke="midnightblue" d="M2222.25,-215.1C2065.81,-213.39 1717.59,-204.95 1427.5,-165 1424.83,-164.63 1422.1,-164.21 1419.35,-163.76"/>
<polygon fill="midnightblue" stroke="midnightblue" points="2222.24,-218.6 2232.27,-215.21 2222.31,-211.6 2222.24,-218.6"/>
</g>
<!-- Node16 -->
<g id="node16" class="node">
<title>Node16</title>
<g id="a_node16"><a xlink:href="d__meter__haihai_8cpp.html" target="_top" xlink:title=" ">
<polygon fill="white" stroke="black" points="1437,-134.5 1437,-164.5 1552,-164.5 1552,-134.5 1437,-134.5"/>
<text text-anchor="start" x="1445" y="-152.5" font-family="Helvetica,sans-Serif" font-size="10.00">src/d/d_meter/d_meter</text>
<text text-anchor="middle" x="1494.5" y="-141.5" font-family="Helvetica,sans-Serif" font-size="10.00">_haihai.cpp</text>
</a>
</g>
</g>
<!-- Node4&#45;&gt;Node16 -->
<g id="edge15" class="edge">
<title>Node4&#45;&gt;Node16</title>
<path fill="none" stroke="midnightblue" d="M2222.33,-213.89C2084.23,-210.31 1799.16,-199.11 1560.5,-165 1557.71,-164.6 1554.87,-164.15 1552,-163.66"/>
<polygon fill="midnightblue" stroke="midnightblue" points="2222.34,-217.39 2232.42,-214.14 2222.51,-210.39 2222.34,-217.39"/>
</g>
<!-- Node17 -->
<g id="node17" class="node">
<title>Node17</title>
<g id="a_node17"><a xlink:href="d__meter__hakusha_8cpp.html" target="_top" xlink:title=" ">
<polygon fill="white" stroke="black" points="1570,-134.5 1570,-164.5 1685,-164.5 1685,-134.5 1570,-134.5"/>
<text text-anchor="start" x="1578" y="-152.5" font-family="Helvetica,sans-Serif" font-size="10.00">src/d/d_meter/d_meter</text>
<text text-anchor="middle" x="1627.5" y="-141.5" font-family="Helvetica,sans-Serif" font-size="10.00">_hakusha.cpp</text>
</a>
</g>
</g>
<!-- Node4&#45;&gt;Node17 -->
<g id="edge16" class="edge">
<title>Node4&#45;&gt;Node17</title>
<path fill="none" stroke="midnightblue" d="M2222.06,-212.16C2103.88,-206.62 1881.22,-193.24 1693.5,-165 1690.72,-164.58 1687.87,-164.11 1685.01,-163.61"/>
<polygon fill="midnightblue" stroke="midnightblue" points="2221.97,-215.66 2232.12,-212.62 2222.3,-208.67 2221.97,-215.66"/>
</g>
<!-- Node18 -->
<g id="node18" class="node">
<title>Node18</title>
<g id="a_node18"><a xlink:href="d__meter__map_8cpp.html" target="_top" xlink:title=" ">
<polygon fill="white" stroke="black" points="1703,-134.5 1703,-164.5 1818,-164.5 1818,-134.5 1703,-134.5"/>
<text text-anchor="start" x="1711" y="-152.5" font-family="Helvetica,sans-Serif" font-size="10.00">src/d/d_meter/d_meter</text>
<text text-anchor="middle" x="1760.5" y="-141.5" font-family="Helvetica,sans-Serif" font-size="10.00">_map.cpp</text>
</a>
</g>
</g>
<!-- Node4&#45;&gt;Node18 -->
<g id="edge17" class="edge">
<title>Node4&#45;&gt;Node18</title>
<path fill="none" stroke="midnightblue" d="M2221.91,-209.52C2126.03,-202.01 1964.28,-187.33 1826.5,-165 1823.72,-164.55 1820.88,-164.06 1818.02,-163.53"/>
<polygon fill="midnightblue" stroke="midnightblue" points="2221.89,-213.03 2232.13,-210.31 2222.43,-206.05 2221.89,-213.03"/>
</g>
<!-- Node19 -->
<g id="node19" class="node">
<title>Node19</title>
<g id="a_node19"><a xlink:href="d__meter__string_8cpp.html" target="_top" xlink:title=" ">
<polygon fill="white" stroke="black" points="1836,-134.5 1836,-164.5 1951,-164.5 1951,-134.5 1836,-134.5"/>
<text text-anchor="start" x="1844" y="-152.5" font-family="Helvetica,sans-Serif" font-size="10.00">src/d/d_meter/d_meter</text>
<text text-anchor="middle" x="1893.5" y="-141.5" font-family="Helvetica,sans-Serif" font-size="10.00">_string.cpp</text>
</a>
</g>
</g>
<!-- Node4&#45;&gt;Node19 -->
<g id="edge18" class="edge">
<title>Node4&#45;&gt;Node19</title>
<path fill="none" stroke="midnightblue" d="M2222.23,-205.04C2151.98,-195.81 2048.86,-181.32 1959.5,-165 1956.73,-164.49 1953.9,-163.96 1951.04,-163.4"/>
<polygon fill="midnightblue" stroke="midnightblue" points="2221.98,-208.54 2232.35,-206.36 2222.89,-201.6 2221.98,-208.54"/>
</g>
<!-- Node20 -->
<g id="node20" class="node">
<title>Node20</title>
<g id="a_node20"><a xlink:href="d__meter2__draw_8cpp.html" target="_top" xlink:title=" ">
<polygon fill="white" stroke="black" points="1969,-134.5 1969,-164.5 2094,-164.5 2094,-134.5 1969,-134.5"/>
<text text-anchor="start" x="1977" y="-152.5" font-family="Helvetica,sans-Serif" font-size="10.00">src/d/d_meter2/d_meter2</text>
<text text-anchor="middle" x="2031.5" y="-141.5" font-family="Helvetica,sans-Serif" font-size="10.00">_draw.cpp</text>
</a>
</g>
</g>
<!-- Node4&#45;&gt;Node20 -->
<g id="edge19" class="edge">
<title>Node4&#45;&gt;Node20</title>
<path fill="none" stroke="midnightblue" d="M2236.45,-199.12C2191.61,-188.48 2133.78,-174.76 2090.98,-164.61"/>
<polygon fill="midnightblue" stroke="midnightblue" points="2235.85,-202.57 2246.38,-201.48 2237.46,-195.76 2235.85,-202.57"/>
</g>
<!-- Node21 -->
<g id="node21" class="node">
<title>Node21</title>
<g id="a_node21"><a xlink:href="d__meter2__info_8cpp.html" target="_top" xlink:title=" ">
<polygon fill="white" stroke="black" points="2112,-134.5 2112,-164.5 2237,-164.5 2237,-134.5 2112,-134.5"/>
<text text-anchor="start" x="2120" y="-152.5" font-family="Helvetica,sans-Serif" font-size="10.00">src/d/d_meter2/d_meter2</text>
<text text-anchor="middle" x="2174.5" y="-141.5" font-family="Helvetica,sans-Serif" font-size="10.00">_info.cpp</text>
</a>
</g>
</g>
<!-- Node4&#45;&gt;Node21 -->
<g id="edge20" class="edge">
<title>Node4&#45;&gt;Node21</title>
<path fill="none" stroke="midnightblue" d="M2267.92,-196.85C2247.21,-186.58 2221.91,-174.03 2202.87,-164.58"/>
<polygon fill="midnightblue" stroke="midnightblue" points="2266.56,-200.09 2277.07,-201.4 2269.67,-193.82 2266.56,-200.09"/>
</g>
<!-- Node22 -->
<g id="node22" class="node">
<title>Node22</title>
<g id="a_node22"><a xlink:href="d__meter2_8cpp.html" target="_top" xlink:title=" ">
<polygon fill="white" stroke="black" points="2255.5,-140 2255.5,-159 2355.5,-159 2355.5,-140 2255.5,-140"/>
<text text-anchor="middle" x="2305.5" y="-147" font-family="Helvetica,sans-Serif" font-size="10.00">src/d/d_meter2.cpp</text>
</a>
</g>
</g>
<!-- Node4&#45;&gt;Node22 -->
<g id="edge21" class="edge">
<title>Node4&#45;&gt;Node22</title>
<path fill="none" stroke="midnightblue" d="M2305.5,-191.25C2305.5,-180.02 2305.5,-167.38 2305.5,-159.19"/>
<polygon fill="midnightblue" stroke="midnightblue" points="2302,-191.4 2305.5,-201.4 2309,-191.4 2302,-191.4"/>
</g>
<!-- Node23 -->
<g id="node23" class="node">
<title>Node23</title>
<g id="a_node23"><a xlink:href="d__save_8cpp.html" target="_top" xlink:title=" ">
<polygon fill="white" stroke="black" points="2374,-140 2374,-159 2499,-159 2499,-140 2374,-140"/>
<text text-anchor="middle" x="2436.5" y="-147" font-family="Helvetica,sans-Serif" font-size="10.00">src/d/d_save/d_save.cpp</text>
</a>
</g>
</g>
<!-- Node4&#45;&gt;Node23 -->
<g id="edge22" class="edge">
<title>Node4&#45;&gt;Node23</title>
<path fill="none" stroke="midnightblue" d="M2343.18,-196.8C2368.3,-184.34 2400.11,-168.56 2419.36,-159.01"/>
<polygon fill="midnightblue" stroke="midnightblue" points="2341.33,-193.82 2333.93,-201.4 2344.44,-200.09 2341.33,-193.82"/>
</g>
<!-- Node24 -->
<g id="node24" class="node">
<title>Node24</title>
<g id="a_node24"><a xlink:href="d__save__HIO_8cpp.html" target="_top" xlink:title=" ">
<polygon fill="white" stroke="black" points="2517,-134.5 2517,-164.5 2624,-164.5 2624,-134.5 2517,-134.5"/>
<text text-anchor="start" x="2525" y="-152.5" font-family="Helvetica,sans-Serif" font-size="10.00">src/d/d_save/d_save</text>
<text text-anchor="middle" x="2570.5" y="-141.5" font-family="Helvetica,sans-Serif" font-size="10.00">_HIO.cpp</text>
</a>
</g>
</g>
<!-- Node4&#45;&gt;Node24 -->
<g id="edge23" class="edge">
<title>Node4&#45;&gt;Node24</title>
<path fill="none" stroke="midnightblue" d="M2372.56,-199.05C2417.16,-188.11 2474.97,-173.93 2516.59,-163.72"/>
<polygon fill="midnightblue" stroke="midnightblue" points="2371.55,-195.69 2362.67,-201.48 2373.22,-202.49 2371.55,-195.69"/>
</g>
<!-- Node25 -->
<g id="node25" class="node">
<title>Node25</title>
<g id="a_node25"><a xlink:href="f__op__camera_8cpp.html" target="_top" xlink:title=" ">
<polygon fill="white" stroke="black" points="2642,-140 2642,-159 2777,-159 2777,-140 2642,-140"/>
<text text-anchor="middle" x="2709.5" y="-147" font-family="Helvetica,sans-Serif" font-size="10.00">src/f/f_op/f_op_camera.cpp</text>
</a>
</g>
</g>
<!-- Node4&#45;&gt;Node25 -->
<g id="edge26" class="edge">
<title>Node4&#45;&gt;Node25</title>
<path fill="none" stroke="midnightblue" d="M2388.56,-203.55C2454.95,-193.8 2550.33,-179.33 2633.5,-165 2644.09,-163.18 2655.48,-161.07 2666.14,-159.05"/>
<polygon fill="midnightblue" stroke="midnightblue" points="2387.96,-200.1 2378.58,-205.01 2388.98,-207.03 2387.96,-200.1"/>
</g>
<!-- Node26 -->
<g id="node26" class="node">
<title>Node26</title>
<g id="a_node26"><a xlink:href="f__op__kankyo_8cpp.html" target="_top" xlink:title=" ">
<polygon fill="white" stroke="black" points="2795.5,-140 2795.5,-159 2929.5,-159 2929.5,-140 2795.5,-140"/>
<text text-anchor="middle" x="2862.5" y="-147" font-family="Helvetica,sans-Serif" font-size="10.00">src/f/f_op/f_op_kankyo.cpp</text>
</a>
</g>
</g>
<!-- Node4&#45;&gt;Node26 -->
<g id="edge27" class="edge">
<title>Node4&#45;&gt;Node26</title>
<path fill="none" stroke="midnightblue" d="M2388.91,-208.88C2485.05,-200.76 2647.65,-185.5 2786.5,-165 2797.8,-163.33 2809.97,-161.17 2821.19,-159.03"/>
<polygon fill="midnightblue" stroke="midnightblue" points="2388.34,-205.42 2378.67,-209.74 2388.93,-212.39 2388.34,-205.42"/>
</g>
<!-- Node27 -->
<g id="node27" class="node">
<title>Node27</title>
<g id="a_node27"><a xlink:href="f__op__kankyo__mng_8cpp.html" target="_top" xlink:title=" ">
<polygon fill="white" stroke="black" points="2947.5,-134.5 2947.5,-164.5 3063.5,-164.5 3063.5,-134.5 2947.5,-134.5"/>
<text text-anchor="start" x="2955.5" y="-152.5" font-family="Helvetica,sans-Serif" font-size="10.00">src/f/f_op/f_op_kankyo</text>
<text text-anchor="middle" x="3005.5" y="-141.5" font-family="Helvetica,sans-Serif" font-size="10.00">_mng.cpp</text>
</a>
</g>
</g>
<!-- Node4&#45;&gt;Node27 -->
<g id="edge28" class="edge">
<title>Node4&#45;&gt;Node27</title>
<path fill="none" stroke="midnightblue" d="M2389.31,-212.38C2510.87,-207.04 2742.97,-193.83 2938.5,-165 2941.44,-164.57 2944.45,-164.08 2947.48,-163.55"/>
<polygon fill="midnightblue" stroke="midnightblue" points="2388.8,-208.9 2378.96,-212.82 2389.1,-215.89 2388.8,-208.9"/>
</g>
<!-- Node28 -->
<g id="node28" class="node">
<title>Node28</title>
<g id="a_node28"><a xlink:href="f__op__msg__mng_8cpp.html" target="_top" xlink:title=" ">
<polygon fill="white" stroke="black" points="3081.5,-134.5 3081.5,-164.5 3185.5,-164.5 3185.5,-134.5 3081.5,-134.5"/>
<text text-anchor="start" x="3089.5" y="-152.5" font-family="Helvetica,sans-Serif" font-size="10.00">src/f/f_op/f_op_msg</text>
<text text-anchor="middle" x="3133.5" y="-141.5" font-family="Helvetica,sans-Serif" font-size="10.00">_mng.cpp</text>
</a>
</g>
</g>
<!-- Node4&#45;&gt;Node28 -->
<g id="edge29" class="edge">
<title>Node4&#45;&gt;Node28</title>
<path fill="none" stroke="midnightblue" d="M2388.97,-214.57C2530.39,-211.98 2825.81,-202.17 3072.5,-165 3075.41,-164.56 3078.38,-164.06 3081.37,-163.5"/>
<polygon fill="midnightblue" stroke="midnightblue" points="2388.58,-211.08 2378.64,-214.75 2388.7,-218.08 2388.58,-211.08"/>
</g>
<!-- Node29 -->
<g id="node29" class="node">
<title>Node29</title>
<g id="a_node29"><a xlink:href="f__pc__manager_8cpp.html" target="_top" xlink:title=" ">
<polygon fill="white" stroke="black" points="157.5,-73 157.5,-92 297.5,-92 297.5,-73 157.5,-73"/>
<text text-anchor="middle" x="227.5" y="-80" font-family="Helvetica,sans-Serif" font-size="10.00">src/f/f_pc/f_pc_manager.cpp</text>
</a>
</g>
</g>
<!-- Node4&#45;&gt;Node29 -->
<g id="edge30" class="edge">
<title>Node4&#45;&gt;Node29</title>
<path fill="none" stroke="midnightblue" d="M2222.01,-215.06C1837.25,-212.84 252.12,-201.49 216.5,-165 197.15,-145.18 213.45,-108.6 222.47,-92.04"/>
<polygon fill="midnightblue" stroke="midnightblue" points="2222.21,-218.56 2232.23,-215.12 2222.25,-211.56 2222.21,-218.56"/>
</g>
<!-- Node30 -->
<g id="node30" class="node">
<title>Node30</title>
<g id="a_node30"><a xlink:href="m__Do__audio_8cpp.html" target="_top" xlink:title=" ">
<polygon fill="white" stroke="black" points="3203.5,-140 3203.5,-159 3337.5,-159 3337.5,-140 3203.5,-140"/>
<text text-anchor="middle" x="3270.5" y="-147" font-family="Helvetica,sans-Serif" font-size="10.00">src/m_Do/m_Do_audio.cpp</text>
</a>
</g>
</g>
<!-- Node4&#45;&gt;Node30 -->
<g id="edge31" class="edge">
<title>Node4&#45;&gt;Node30</title>
<path fill="none" stroke="midnightblue" d="M2388.79,-214.42C2546.57,-211.58 2899.68,-201.34 3194.5,-165 3206.5,-163.52 3219.45,-161.29 3231.21,-159.02"/>
<polygon fill="midnightblue" stroke="midnightblue" points="2388.62,-210.93 2378.68,-214.6 2388.74,-217.93 2388.62,-210.93"/>
</g>
<!-- Node31 -->
<g id="node31" class="node">
<title>Node31</title>
<g id="a_node31"><a xlink:href="m__Do__graphic_8cpp.html" target="_top" xlink:title=" ">
<polygon fill="white" stroke="black" points="3355.5,-140 3355.5,-159 3497.5,-159 3497.5,-140 3355.5,-140"/>
<text text-anchor="middle" x="3426.5" y="-147" font-family="Helvetica,sans-Serif" font-size="10.00">src/m_Do/m_Do_graphic.cpp</text>
</a>
</g>
</g>
<!-- Node4&#45;&gt;Node31 -->
<g id="edge32" class="edge">
<title>Node4&#45;&gt;Node31</title>
<path fill="none" stroke="midnightblue" d="M2388.67,-215.15C2565.53,-213.6 2991.82,-205.57 3346.5,-165 3359.12,-163.56 3372.76,-161.34 3385.13,-159.06"/>
<polygon fill="midnightblue" stroke="midnightblue" points="2388.62,-211.65 2378.65,-215.23 2388.68,-218.65 2388.62,-211.65"/>
</g>
<!-- Node32 -->
<g id="node32" class="node">
<title>Node32</title>
<g id="a_node32"><a xlink:href="m__Do__lib_8cpp.html" target="_top" xlink:title=" ">
<polygon fill="white" stroke="black" points="3515.5,-140 3515.5,-159 3635.5,-159 3635.5,-140 3515.5,-140"/>
<text text-anchor="middle" x="3575.5" y="-147" font-family="Helvetica,sans-Serif" font-size="10.00">src/m_Do/m_Do_lib.cpp</text>
</a>
</g>
</g>
<!-- Node4&#45;&gt;Node32 -->
<g id="edge33" class="edge">
<title>Node4&#45;&gt;Node32</title>
<path fill="none" stroke="midnightblue" d="M2388.89,-213.79C2624.09,-208.67 3289.71,-192.15 3506.5,-165 3517.67,-163.6 3529.73,-161.33 3540.59,-159.01"/>
<polygon fill="midnightblue" stroke="midnightblue" points="2388.61,-210.29 2378.69,-214.01 2388.76,-217.29 2388.61,-210.29"/>
</g>
<!-- Node33 -->
<g id="node33" class="node">
<title>Node33</title>
<g id="a_node33"><a xlink:href="m__Do__machine__exception_8cpp.html" target="_top" xlink:title=" ">
<polygon fill="white" stroke="black" points="3654,-134.5 3654,-164.5 3783,-164.5 3783,-134.5 3654,-134.5"/>
<text text-anchor="start" x="3662" y="-152.5" font-family="Helvetica,sans-Serif" font-size="10.00">src/m_Do/m_Do_machine</text>
<text text-anchor="middle" x="3718.5" y="-141.5" font-family="Helvetica,sans-Serif" font-size="10.00">_exception.cpp</text>
</a>
</g>
</g>
<!-- Node4&#45;&gt;Node33 -->
<g id="edge34" class="edge">
<title>Node4&#45;&gt;Node33</title>
<path fill="none" stroke="midnightblue" d="M2389.09,-214.05C2642.48,-209.4 3399.63,-193.43 3644.5,-165 3647.49,-164.65 3650.54,-164.25 3653.62,-163.81"/>
<polygon fill="midnightblue" stroke="midnightblue" points="2388.78,-210.56 2378.84,-214.24 2388.9,-217.56 2388.78,-210.56"/>
</g>
<!-- Node34 -->
<g id="node34" class="node">
<title>Node34</title>
<g id="a_node34"><a xlink:href="m__Do__main_8cpp.html" target="_top" xlink:title=" ">
<polygon fill="white" stroke="black" points="4007,-6 4007,-25 4138,-25 4138,-6 4007,-6"/>
<text text-anchor="middle" x="4072.5" y="-13" font-family="Helvetica,sans-Serif" font-size="10.00">src/m_Do/m_Do_main.cpp</text>
</a>
</g>
</g>
<!-- Node4&#45;&gt;Node34 -->
<g id="edge35" class="edge">
<title>Node4&#45;&gt;Node34</title>
<path fill="none" stroke="midnightblue" d="M2388.99,-215.58C2847.15,-215.81 5037.05,-214.34 5085.5,-165 5116.02,-133.92 5115.52,-98.56 5085.5,-67 5052.81,-32.63 4357.32,-20.34 4138.08,-17.31"/>
<polygon fill="midnightblue" stroke="midnightblue" points="2388.82,-212.08 2378.81,-215.57 2388.81,-219.08 2388.82,-212.08"/>
</g>
<!-- Node35 -->
<g id="node35" class="node">
<title>Node35</title>
<g id="a_node35"><a xlink:href="m__Do__MemCardRWmng_8cpp.html" target="_top" xlink:title=" ">
<polygon fill="white" stroke="black" points="3801,-140 3801,-159 3988,-159 3988,-140 3801,-140"/>
<text text-anchor="middle" x="3894.5" y="-147" font-family="Helvetica,sans-Serif" font-size="10.00">src/m_Do/m_Do_MemCardRWmng.cpp</text>
</a>
</g>
</g>
<!-- Node4&#45;&gt;Node35 -->
<g id="edge36" class="edge">
<title>Node4&#45;&gt;Node35</title>
<path fill="none" stroke="midnightblue" d="M2388.91,-215.8C2615.17,-215.93 3259.36,-211.81 3792.5,-165 3808.71,-163.58 3826.29,-161.33 3842.21,-159.03"/>
<polygon fill="midnightblue" stroke="midnightblue" points="2388.78,-212.3 2378.78,-215.79 2388.77,-219.3 2388.78,-212.3"/>
</g>
<!-- Node36 -->
<g id="node36" class="node">
<title>Node36</title>
<g id="a_node36"><a xlink:href="m__Do__ext_8cpp.html" target="_top" xlink:title=" ">
<polygon fill="white" stroke="black" points="4006,-140 4006,-159 4129,-159 4129,-140 4006,-140"/>
<text text-anchor="middle" x="4067.5" y="-147" font-family="Helvetica,sans-Serif" font-size="10.00">src/m_Do/m_Do_ext.cpp</text>
</a>
</g>
</g>
<!-- Node4&#45;&gt;Node36 -->
<g id="edge37" class="edge">
<title>Node4&#45;&gt;Node36</title>
<path fill="none" stroke="midnightblue" d="M2389.08,-214.94C2684.8,-212.64 3680.75,-202.24 3997.5,-165 4008.96,-163.65 4021.34,-161.37 4032.44,-159.01"/>
<polygon fill="midnightblue" stroke="midnightblue" points="2388.83,-211.44 2378.86,-215.01 2388.89,-218.44 2388.83,-211.44"/>
</g>
<!-- Node37 -->
<g id="node37" class="node">
<title>Node37</title>
<g id="a_node37"><a xlink:href="Z2EnvSeMgr_8cpp.html" target="_top" xlink:title=" ">
<polygon fill="white" stroke="black" points="4147,-140 4147,-159 4308,-159 4308,-140 4147,-140"/>
<text text-anchor="middle" x="4227.5" y="-147" font-family="Helvetica,sans-Serif" font-size="10.00">libs/Z2AudioLib/Z2EnvSeMgr.cpp</text>
</a>
</g>
</g>
<!-- Node4&#45;&gt;Node37 -->
<g id="edge38" class="edge">
<title>Node4&#45;&gt;Node37</title>
<path fill="none" stroke="midnightblue" d="M2388.81,-214.69C2699.71,-211.43 3791.93,-197.86 4138.5,-165 4152.84,-163.64 4168.37,-161.39 4182.38,-159.05"/>
<polygon fill="midnightblue" stroke="midnightblue" points="2388.49,-211.19 2378.53,-214.8 2388.56,-218.19 2388.49,-211.19"/>
</g>
<!-- Node38 -->
<g id="node38" class="node">
<title>Node38</title>
<g id="a_node38"><a xlink:href="Z2LinkMgr_8cpp.html" target="_top" xlink:title=" ">
<polygon fill="white" stroke="black" points="4326.5,-140 4326.5,-159 4478.5,-159 4478.5,-140 4326.5,-140"/>
<text text-anchor="middle" x="4402.5" y="-147" font-family="Helvetica,sans-Serif" font-size="10.00">libs/Z2AudioLib/Z2LinkMgr.cpp</text>
</a>
</g>
</g>
<!-- Node4&#45;&gt;Node38 -->
<g id="edge39" class="edge">
<title>Node4&#45;&gt;Node38</title>
<path fill="none" stroke="midnightblue" d="M2389.09,-215.01C2719.38,-212.81 3934.22,-202.31 4317.5,-165 4331.36,-163.65 4346.36,-161.37 4359.86,-159.01"/>
<polygon fill="midnightblue" stroke="midnightblue" points="2388.62,-211.51 2378.64,-215.08 2388.66,-218.51 2388.62,-211.51"/>
</g>
<!-- Node39 -->
<g id="node39" class="node">
<title>Node39</title>
<g id="a_node39"><a xlink:href="Z2SceneMgr_8cpp.html" target="_top" xlink:title=" ">
<polygon fill="white" stroke="black" points="4497,-140 4497,-159 4658,-159 4658,-140 4497,-140"/>
<text text-anchor="middle" x="4577.5" y="-147" font-family="Helvetica,sans-Serif" font-size="10.00">libs/Z2AudioLib/Z2SceneMgr.cpp</text>
</a>
</g>
</g>
<!-- Node4&#45;&gt;Node39 -->
<g id="edge40" class="edge">
<title>Node4&#45;&gt;Node39</title>
<path fill="none" stroke="midnightblue" d="M2388.84,-215.1C2736.03,-213.17 4068.76,-203.4 4487.5,-165 4502.16,-163.66 4518.04,-161.37 4532.33,-159.01"/>
<polygon fill="midnightblue" stroke="midnightblue" points="2388.6,-211.6 2378.62,-215.15 2388.64,-218.6 2388.6,-211.6"/>
</g>
<!-- Node40 -->
<g id="node40" class="node">
<title>Node40</title>
<g id="a_node40"><a xlink:href="Z2SoundMgr_8cpp.html" target="_top" xlink:title=" ">
<polygon fill="white" stroke="black" points="4676,-140 4676,-159 4837,-159 4837,-140 4676,-140"/>
<text text-anchor="middle" x="4756.5" y="-147" font-family="Helvetica,sans-Serif" font-size="10.00">libs/Z2AudioLib/Z2SoundMgr.cpp</text>
</a>
</g>
</g>
<!-- Node4&#45;&gt;Node40 -->
<g id="edge41" class="edge">
<title>Node4&#45;&gt;Node40</title>
<path fill="none" stroke="midnightblue" d="M2388.99,-215.29C2753.99,-214.1 4211.48,-206.81 4667.5,-165 4682,-163.67 4697.71,-161.39 4711.84,-159.03"/>
<polygon fill="midnightblue" stroke="midnightblue" points="2388.76,-211.79 2378.77,-215.32 2388.78,-218.79 2388.76,-211.79"/>
</g>
<!-- Node41 -->
<g id="node41" class="node">
<title>Node41</title>
<g id="a_node41"><a xlink:href="Z2StatusMgr_8cpp.html" target="_top" xlink:title=" ">
<polygon fill="white" stroke="black" points="4855,-134.5 4855,-164.5 4982,-164.5 4982,-134.5 4855,-134.5"/>
<text text-anchor="start" x="4863" y="-152.5" font-family="Helvetica,sans-Serif" font-size="10.00">libs/Z2AudioLib/Z2Status</text>
<text text-anchor="middle" x="4918.5" y="-141.5" font-family="Helvetica,sans-Serif" font-size="10.00">Mgr.cpp</text>
</a>
</g>
</g>
<!-- Node4&#45;&gt;Node41 -->
<g id="edge42" class="edge">
<title>Node4&#45;&gt;Node41</title>
<path fill="none" stroke="midnightblue" d="M2388.69,-215.85C2770.1,-217.13 4354,-219.05 4846.5,-165 4849.29,-164.69 4852.13,-164.33 4854.99,-163.93"/>
<polygon fill="midnightblue" stroke="midnightblue" points="2388.57,-212.35 2378.56,-215.81 2388.55,-219.35 2388.57,-212.35"/>
</g>
<!-- Node42 -->
<g id="node42" class="node">
<title>Node42</title>
<g id="a_node42"><a xlink:href="d__a__alink_8h.html" target="_top" xlink:title=" ">
<polygon fill="white" stroke="black" points="592,-67.5 592,-97.5 711,-97.5 711,-67.5 592,-67.5"/>
<text text-anchor="start" x="600" y="-85.5" font-family="Helvetica,sans-Serif" font-size="10.00">include/d/d_a/d_a_alink</text>
<text text-anchor="middle" x="651.5" y="-74.5" font-family="Helvetica,sans-Serif" font-size="10.00">/d_a_alink.h</text>
</a>
</g>
</g>
<!-- Node4&#45;&gt;Node42 -->
<g id="edge43" class="edge">
<title>Node4&#45;&gt;Node42</title>
<path fill="none" stroke="midnightblue" d="M2222.2,-214.86C1858.91,-211.9 429.78,-198.15 397.5,-165 295.46,-60.22 222.3,-170.89 582.5,-98 585.5,-97.39 588.57,-96.77 591.67,-96.13"/>
<polygon fill="midnightblue" stroke="midnightblue" points="2222.35,-218.37 2232.38,-214.95 2222.41,-211.37 2222.35,-218.37"/>
</g>
<!-- Node44 -->
<g id="node44" class="node">
<title>Node44</title>
<g id="a_node44"><a xlink:href="d__item_8h.html" target="_top" xlink:title=" ">
<polygon fill="white" stroke="black" points="417.5,-134.5 417.5,-164.5 513.5,-164.5 513.5,-134.5 417.5,-134.5"/>
<text text-anchor="start" x="425.5" y="-152.5" font-family="Helvetica,sans-Serif" font-size="10.00">include/d/d_item/d</text>
<text text-anchor="middle" x="465.5" y="-141.5" font-family="Helvetica,sans-Serif" font-size="10.00">_item/d_item.h</text>
</a>
</g>
</g>
<!-- Node4&#45;&gt;Node44 -->
<g id="edge46" class="edge">
<title>Node4&#45;&gt;Node44</title>
<path fill="none" stroke="midnightblue" d="M2222.02,-215.58C1916.13,-215.48 857.03,-211.7 522.5,-165 519.57,-164.59 516.57,-164.09 513.55,-163.52"/>
<polygon fill="midnightblue" stroke="midnightblue" points="2222.15,-219.08 2232.15,-215.58 2222.15,-212.08 2222.15,-219.08"/>
</g>
<!-- Node45 -->
<g id="node45" class="node">
<title>Node45</title>
<g id="a_node45"><a xlink:href="f__pc__manager_8h.html" target="_top" xlink:title=" ">
<polygon fill="white" stroke="black" points="226,-134.5 226,-164.5 323,-164.5 323,-134.5 226,-134.5"/>
<text text-anchor="start" x="234" y="-152.5" font-family="Helvetica,sans-Serif" font-size="10.00">include/f/f_pc/f_pc</text>
<text text-anchor="middle" x="274.5" y="-141.5" font-family="Helvetica,sans-Serif" font-size="10.00">_manager.h</text>
</a>
</g>
</g>
<!-- Node4&#45;&gt;Node45 -->
<g id="edge49" class="edge">
<title>Node4&#45;&gt;Node45</title>
<path fill="none" stroke="midnightblue" d="M2222.03,-215.59C1896.34,-215.58 710.56,-212.23 337.5,-165 332.82,-164.41 327.99,-163.62 323.17,-162.72"/>
<polygon fill="midnightblue" stroke="midnightblue" points="2222.34,-219.09 2232.34,-215.59 2222.34,-212.09 2222.34,-219.09"/>
</g>
<!-- Node42&#45;&gt;Node5 -->
<g id="edge44" class="edge">
<title>Node42&#45;&gt;Node5</title>
<path fill="none" stroke="midnightblue" d="M652.25,-57.25C652.59,-46.02 652.98,-33.38 653.23,-25.19"/>
<polygon fill="midnightblue" stroke="midnightblue" points="648.74,-57.29 651.93,-67.4 655.74,-57.51 648.74,-57.29"/>
</g>
<!-- Node43 -->
<g id="node43" class="node">
<title>Node43</title>
<g id="a_node43"><a xlink:href="d__a__alink_8cpp.html" target="_top" xlink:title=" ">
<polygon fill="white" stroke="black" points="463,-6 463,-25 582,-25 582,-6 463,-6"/>
<text text-anchor="middle" x="522.5" y="-13" font-family="Helvetica,sans-Serif" font-size="10.00">src/d/d_a/d_a_alink.cpp</text>
</a>
</g>
</g>
<!-- Node42&#45;&gt;Node43 -->
<g id="edge45" class="edge">
<title>Node42&#45;&gt;Node43</title>
<path fill="none" stroke="midnightblue" d="M614.39,-62.8C589.66,-50.34 558.33,-34.56 539.38,-25.01"/>
<polygon fill="midnightblue" stroke="midnightblue" points="613,-66.02 623.51,-67.4 616.15,-59.77 613,-66.02"/>
</g>
<!-- Node44&#45;&gt;Node7 -->
<g id="edge47" class="edge">
<title>Node44&#45;&gt;Node7</title>
<path fill="none" stroke="midnightblue" d="M523.49,-133.87C611.13,-115.01 635.23,-114.55 719.5,-98 722.5,-97.41 725.58,-96.8 728.68,-96.17"/>
<polygon fill="midnightblue" stroke="midnightblue" points="522.68,-130.46 513.65,-136.01 524.16,-137.3 522.68,-130.46"/>
</g>
<!-- Node44&#45;&gt;Node9 -->
<g id="edge48" class="edge">
<title>Node44&#45;&gt;Node9</title>
<path fill="none" stroke="midnightblue" d="M523.76,-134.17C807.1,-101.04 2535.58,-86.55 2882.8,-83.94"/>
<polygon fill="midnightblue" stroke="midnightblue" points="523.03,-130.73 513.55,-135.46 523.91,-137.68 523.03,-130.73"/>
</g>
<!-- Node45&#45;&gt;Node29 -->
<g id="edge52" class="edge">
<title>Node45&#45;&gt;Node29</title>
<path fill="none" stroke="midnightblue" d="M258.21,-125.97C249.79,-114.33 240.01,-100.8 233.79,-92.19"/>
<polygon fill="midnightblue" stroke="midnightblue" points="255.61,-128.34 264.3,-134.4 261.28,-124.24 255.61,-128.34"/>
</g>
<!-- Node45&#45;&gt;Node43 -->
<g id="edge50" class="edge">
<title>Node45&#45;&gt;Node43</title>
<path fill="none" stroke="midnightblue" d="M288.34,-126.05C300.84,-107.59 320.87,-82.11 344.5,-67 380.23,-44.16 426.43,-31.45 462.82,-24.49"/>
<polygon fill="midnightblue" stroke="midnightblue" points="285.38,-124.18 282.83,-134.47 291.24,-128.02 285.38,-124.18"/>
</g>
<!-- Node46 -->
<g id="node46" class="node">
<title>Node46</title>
<g id="a_node46"><a xlink:href="f__ap__game_8cpp.html" target="_top" xlink:title=" ">
<polygon fill="white" stroke="black" points="354,-73 354,-92 459,-92 459,-73 354,-73"/>
<text text-anchor="middle" x="406.5" y="-80" font-family="Helvetica,sans-Serif" font-size="10.00">src/f/f_ap_game.cpp</text>
</a>
</g>
</g>
<!-- Node45&#45;&gt;Node46 -->
<g id="edge51" class="edge">
<title>Node45&#45;&gt;Node46</title>
<path fill="none" stroke="midnightblue" d="M312.14,-129.97C337.49,-117.48 369.75,-101.6 389.22,-92.01"/>
<polygon fill="midnightblue" stroke="midnightblue" points="310.57,-126.84 303.14,-134.4 313.66,-133.12 310.57,-126.84"/>
</g>
<!-- Node47 -->
<g id="node47" class="node">
<title>Node47</title>
<g id="a_node47"><a xlink:href="f__op__actor__mng_8h.html" target="_top" xlink:title=" ">
<polygon fill="white" stroke="black" points="477,-67.5 477,-97.5 574,-97.5 574,-67.5 477,-67.5"/>
<text text-anchor="start" x="485" y="-85.5" font-family="Helvetica,sans-Serif" font-size="10.00">include/f/f_op/f_op</text>
<text text-anchor="middle" x="525.5" y="-74.5" font-family="Helvetica,sans-Serif" font-size="10.00">_actor_mng.h</text>
</a>
</g>
</g>
<!-- Node45&#45;&gt;Node47 -->
<g id="edge53" class="edge">
<title>Node45&#45;&gt;Node47</title>
<path fill="none" stroke="midnightblue" d="M333.11,-133.32C376.83,-122 435.85,-106.72 476.94,-96.07"/>
<polygon fill="midnightblue" stroke="midnightblue" points="332,-130 323.19,-135.89 333.75,-136.77 332,-130"/>
</g>
<!-- Node47&#45;&gt;Node2 -->
<g id="edge57" class="edge">
<title>Node47&#45;&gt;Node2</title>
<path fill="none" stroke="midnightblue" d="M466.94,-66.98C373.6,-47.6 276.14,-32.02 219.71,-23.46"/>
<polygon fill="midnightblue" stroke="midnightblue" points="466.32,-70.43 476.83,-69.05 467.76,-63.57 466.32,-70.43"/>
</g>
<!-- Node47&#45;&gt;Node3 -->
<g id="edge58" class="edge">
<title>Node47&#45;&gt;Node3</title>
<path fill="none" stroke="midnightblue" d="M466.95,-67.09C311.28,-40.58 268.04,-56.11 116.5,-31 113.4,-30.49 110.22,-29.91 107.03,-29.3"/>
<polygon fill="midnightblue" stroke="midnightblue" points="466.42,-70.55 476.87,-68.81 467.62,-63.65 466.42,-70.55"/>
</g>
<!-- Node47&#45;&gt;Node5 -->
<g id="edge54" class="edge">
<title>Node47&#45;&gt;Node5</title>
<path fill="none" stroke="midnightblue" d="M562.32,-62.8C586.86,-50.34 617.94,-34.56 636.75,-25.01"/>
<polygon fill="midnightblue" stroke="midnightblue" points="560.61,-59.75 553.27,-67.4 563.78,-65.99 560.61,-59.75"/>
</g>
<!-- Node47&#45;&gt;Node6 -->
<g id="edge55" class="edge">
<title>Node47&#45;&gt;Node6</title>
<path fill="none" stroke="midnightblue" d="M584.34,-67.06C856.71,-35.28 2518.62,-19.63 2832.42,-16.92"/>
<polygon fill="midnightblue" stroke="midnightblue" points="583.66,-63.62 574.17,-68.34 584.53,-70.56 583.66,-63.62"/>
</g>
<!-- Node47&#45;&gt;Node34 -->
<g id="edge59" class="edge">
<title>Node47&#45;&gt;Node34</title>
<path fill="none" stroke="midnightblue" d="M584.17,-67.69C778.07,-59.19 3543.2,-23.32 4006.79,-17.35"/>
<polygon fill="midnightblue" stroke="midnightblue" points="583.93,-64.2 574.17,-68.32 584.37,-71.18 583.93,-64.2"/>
</g>
<!-- Node47&#45;&gt;Node43 -->
<g id="edge56" class="edge">
<title>Node47&#45;&gt;Node43</title>
<path fill="none" stroke="midnightblue" d="M524.38,-57.25C523.86,-46.02 523.28,-33.38 522.9,-25.19"/>
<polygon fill="midnightblue" stroke="midnightblue" points="520.89,-57.57 524.85,-67.4 527.88,-57.25 520.89,-57.57"/>
</g>
</g>
</svg>
        <g id="navigator" transform="translate(0 0)" fill="#404254">
                <rect fill="#f2f5e9" fill-opacity="0.5" stroke="#606060" stroke-width=".5" x="0" y="0" width="60" height="60"/>
                <use id="zoomplus" xlink:href="#zoomPlus" x="17" y="9" onmousedown="handleZoom(evt,'in')"/>
                <use id="zoomminus" xlink:href="#zoomMin" x="42" y="9" onmousedown="handleZoom(evt,'out')"/>
                <use id="reset" xlink:href="#resetDef" x="30" y="36" onmousedown="handleReset()"/>
                <g id="arrowUp" xlink:href="#dirArrow" transform="translate(30 24)" onmousedown="handlePan(0,-1)">
                  <use xlink:href="#rim" fill="#404040">
                        <set attributeName="fill" to="#808080" begin="arrowUp.mouseover" end="arrowUp.mouseout"/>
                  </use>
                  <path fill="none" stroke="white" stroke-width="1.5" d="M0,-3.0v7 M-2.5,-0.5L0,-3.0L2.5,-0.5"/>
                </g>
                <g id="arrowRight" xlink:href="#dirArrow" transform="rotate(90) translate(36 -43)" onmousedown="handlePan(1,0)">
                  <use xlink:href="#rim" fill="#404040">
                        <set attributeName="fill" to="#808080" begin="arrowRight.mouseover" end="arrowRight.mouseout"/>
                  </use>
                  <path fill="none" stroke="white" stroke-width="1.5" d="M0,-3.0v7 M-2.5,-0.5L0,-3.0L2.5,-0.5"/>
                </g>
                <g id="arrowDown" xlink:href="#dirArrow" transform="rotate(180) translate(-30 -48)" onmousedown="handlePan(0,1)">
                  <use xlink:href="#rim" fill="#404040">
                        <set attributeName="fill" to="#808080" begin="arrowDown.mouseover" end="arrowDown.mouseout"/>
                  </use>
                  <path fill="none" stroke="white" stroke-width="1.5" d="M0,-3.0v7 M-2.5,-0.5L0,-3.0L2.5,-0.5"/>
                </g>
                <g id="arrowLeft" xlink:href="#dirArrow" transform="rotate(270) translate(-36 17)" onmousedown="handlePan(-1,0)">
                  <use xlink:href="#rim" fill="#404040">
                        <set attributeName="fill" to="#808080" begin="arrowLeft.mouseover" end="arrowLeft.mouseout"/>
                  </use>
                  <path fill="none" stroke="white" stroke-width="1.5" d="M0,-3.0v7 M-2.5,-0.5L0,-3.0L2.5,-0.5"/>
                </g>
        </g>
        <svg viewBox="0 0 15 15" width="100%" height="30px" preserveAspectRatio="xMaxYMin meet">
         <g id="arrow_out" transform="scale(0.3 0.3)">
          <a xlink:href="d__stage_8h__dep__incl_org.svg" target="_base">
           <rect id="button" ry="5" rx="5" y="6" x="6" height="38" width="38"
                fill="#f2f5e9" fill-opacity="0.5" stroke="#606060" stroke-width="1.0"/>
           <path id="arrow"
             d="M 11.500037,31.436501 C 11.940474,20.09759 22.043105,11.32322 32.158766,21.979434 L 37.068811,17.246167 C 37.068811,17.246167 37.088388,32 37.088388,32 L 22.160133,31.978069 C 22.160133,31.978069 26.997745,27.140456 26.997745,27.140456 C 18.528582,18.264221 13.291696,25.230495 11.500037,31.436501 z"
             style="fill:#404040;"/>
          </a>
         </g>
        </svg>
</svg>
