<?xml version="1.0" encoding="UTF-8" standalone="no"?>
<!DOCTYPE svg PUBLIC "-//W3C//DTD SVG 1.1//EN"
 "http://www.w3.org/Graphics/SVG/1.1/DTD/svg11.dtd">
<!-- Generated by graphviz version 2.46.0 (20210122.1329)
 -->
<!-- Title: include/JSystem/JKernel/JKRAramPiece Pages: 1 -->
<svg width="222pt" height="223pt"
 viewBox="0.00 0.00 222.41 223.00" xmlns="http://www.w3.org/2000/svg" xmlns:xlink="http://www.w3.org/1999/xlink">
<g id="graph0" class="graph" transform="scale(1 1) rotate(0) translate(4 219)">
<title>include/JSystem/JKernel/JKRAramPiece</title>
<polygon fill="white" stroke="transparent" points="-4,4 -4,-219 218.41,-219 218.41,4 -4,4"/>
<g id="clust1" class="cluster">
<title>clusterdir_cd1009b6de6f257cf504091b6f95eba2</title>
<g id="a_clust1"><a xlink:href="dir_cd1009b6de6f257cf504091b6f95eba2.html" target="_top" xlink:title="JKernel">
<polygon fill="#ddddee" stroke="black" points="87,-136 87,-207 187,-207 187,-136 87,-136"/>
<text text-anchor="middle" x="137" y="-195" font-family="Helvetica,sans-Serif" font-size="10.00">JKernel</text>
</a>
</g>
</g>
<!-- dir_ae5e263ef5d9e353d6bda4908f06a816 -->
<g id="node1" class="node">
<title>dir_ae5e263ef5d9e353d6bda4908f06a816</title>
<g id="a_node1"><a xlink:href="dir_ae5e263ef5d9e353d6bda4908f06a816.html" target="_top" xlink:title="JKRAramPiece">
<polygon fill="#eeeeff" stroke="black" points="178.5,-180 95.5,-180 95.5,-144 178.5,-144 178.5,-180"/>
<text text-anchor="middle" x="137" y="-159.5" font-family="Helvetica,sans-Serif" font-size="10.00">JKRAramPiece</text>
</a>
</g>
</g>
<!-- dir_45593f23b58a9cb34ecfe1ccd7e4e81f -->
<g id="node2" class="node">
<title>dir_45593f23b58a9cb34ecfe1ccd7e4e81f</title>
<g id="a_node2"><a xlink:href="dir_45593f23b58a9cb34ecfe1ccd7e4e81f.html" target="_top" xlink:title="JSupport">
<polygon fill="white" stroke="red" points="56,-108 0,-108 0,-72 56,-72 56,-108"/>
<text text-anchor="middle" x="28" y="-87.5" font-family="Helvetica,sans-Serif" font-size="10.00">JSupport</text>
</a>
</g>
</g>
<!-- dir_ae5e263ef5d9e353d6bda4908f06a816&#45;&gt;dir_45593f23b58a9cb34ecfe1ccd7e4e81f -->
<g id="edge2" class="edge">
<title>dir_ae5e263ef5d9e353d6bda4908f06a816&#45;&gt;dir_45593f23b58a9cb34ecfe1ccd7e4e81f</title>
<path fill="none" stroke="black" d="M110.34,-143.88C96.22,-134.81 78.69,-123.55 63.44,-113.76"/>
<polygon fill="black" stroke="black" points="65.07,-110.65 54.77,-108.19 61.29,-116.54 65.07,-110.65"/>
<g id="a_edge2&#45;headlabel"><a xlink:href="dir_000075_000098.html" target="_top" xlink:title="1">
<text text-anchor="middle" x="69.63" y="-107.7" font-family="Helvetica,sans-Serif" font-size="10.00">1</text>
</a>
</g>
</g>
<!-- dir_65d600aab5b7177ee2dccfac7c04bb8a -->
<g id="node3" class="node">
<title>dir_65d600aab5b7177ee2dccfac7c04bb8a</title>
<g id="a_node3"><a xlink:href="dir_65d600aab5b7177ee2dccfac7c04bb8a.html" target="_top" xlink:title="ar">
<polygon fill="none" stroke="black" points="128,-108 74,-108 74,-72 128,-72 128,-108"/>
<text text-anchor="middle" x="101" y="-87.5" font-family="Helvetica,sans-Serif" font-size="10.00">ar</text>
</a>
</g>
</g>
<!-- dir_ae5e263ef5d9e353d6bda4908f06a816&#45;&gt;dir_65d600aab5b7177ee2dccfac7c04bb8a -->
<g id="edge3" class="edge">
<title>dir_ae5e263ef5d9e353d6bda4908f06a816&#45;&gt;dir_65d600aab5b7177ee2dccfac7c04bb8a</title>
<path fill="none" stroke="black" d="M128.1,-143.7C124,-135.73 119.05,-126.1 114.51,-117.26"/>
<polygon fill="black" stroke="black" points="117.48,-115.4 109.8,-108.1 111.26,-118.6 117.48,-115.4"/>
<g id="a_edge3&#45;headlabel"><a xlink:href="dir_000075_000002.html" target="_top" xlink:title="1">
<text text-anchor="middle" x="121.65" y="-114.79" font-family="Helvetica,sans-Serif" font-size="10.00">1</text>
</a>
</g>
</g>
<!-- dir_7b371d9fdb0359ac564866f88df60f77 -->
<g id="node4" class="node">
<title>dir_7b371d9fdb0359ac564866f88df60f77</title>
<g id="a_node4"><a xlink:href="dir_7b371d9fdb0359ac564866f88df60f77.html" target="_top" xlink:title="os">
<polygon fill="none" stroke="black" points="200,-108 146,-108 146,-72 200,-72 200,-108"/>
<text text-anchor="middle" x="173" y="-87.5" font-family="Helvetica,sans-Serif" font-size="10.00">os</text>
</a>
</g>
</g>
<!-- dir_ae5e263ef5d9e353d6bda4908f06a816&#45;&gt;dir_7b371d9fdb0359ac564866f88df60f77 -->
<g id="edge4" class="edge">
<title>dir_ae5e263ef5d9e353d6bda4908f06a816&#45;&gt;dir_7b371d9fdb0359ac564866f88df60f77</title>
<path fill="none" stroke="black" d="M145.9,-143.7C150,-135.73 154.95,-126.1 159.49,-117.26"/>
<polygon fill="black" stroke="black" points="162.74,-118.6 164.2,-108.1 156.52,-115.4 162.74,-118.6"/>
<g id="a_edge4&#45;headlabel"><a xlink:href="dir_000075_000117.html" target="_top" xlink:title="1">
<text text-anchor="middle" x="163.62" y="-120.59" font-family="Helvetica,sans-Serif" font-size="10.00">1</text>
</a>
</g>
</g>
<!-- dir_b778c3f297ab88300258a2935792c8cc -->
<g id="node5" class="node">
<title>dir_b778c3f297ab88300258a2935792c8cc</title>
<g id="a_node5"><a xlink:href="dir_b778c3f297ab88300258a2935792c8cc.html" target="_top" xlink:title="dolphin">
<polygon fill="none" stroke="black" points="164,-36 110,-36 110,0 164,0 164,-36"/>
<text text-anchor="middle" x="137" y="-15.5" font-family="Helvetica,sans-Serif" font-size="10.00">dolphin</text>
</a>
</g>
</g>
<!-- dir_ae5e263ef5d9e353d6bda4908f06a816&#45;&gt;dir_b778c3f297ab88300258a2935792c8cc -->
<g id="edge5" class="edge">
<title>dir_ae5e263ef5d9e353d6bda4908f06a816&#45;&gt;dir_b778c3f297ab88300258a2935792c8cc</title>
<path fill="none" stroke="black" d="M173.03,-143.81C186.92,-135.16 201.3,-123.24 209,-108 216.22,-93.72 216.22,-86.28 209,-72 201.3,-56.77 186.94,-44.85 173.06,-36.2"/>
<polygon fill="black" stroke="black" points="174.48,-32.98 164.08,-30.99 170.97,-39.04 174.48,-32.98"/>
<g id="a_edge5&#45;headlabel"><a xlink:href="dir_000075_000047.html" target="_top" xlink:title="1">
<text text-anchor="middle" x="179.02" y="-29.83" font-family="Helvetica,sans-Serif" font-size="10.00">1</text>
</a>
</g>
</g>
<!-- dir_45593f23b58a9cb34ecfe1ccd7e4e81f&#45;&gt;dir_b778c3f297ab88300258a2935792c8cc -->
<g id="edge1" class="edge">
<title>dir_45593f23b58a9cb34ecfe1ccd7e4e81f&#45;&gt;dir_b778c3f297ab88300258a2935792c8cc</title>
<path fill="none" stroke="black" d="M54.66,-71.88C68.78,-62.81 86.31,-51.55 101.56,-41.76"/>
<polygon fill="black" stroke="black" points="103.71,-44.54 110.23,-36.19 99.93,-38.65 103.71,-44.54"/>
<g id="a_edge1&#45;headlabel"><a xlink:href="dir_000098_000047.html" target="_top" xlink:title="5">
<text text-anchor="middle" x="102.22" y="-46.37" font-family="Helvetica,sans-Serif" font-size="10.00">5</text>
</a>
</g>
</g>
<!-- dir_65d600aab5b7177ee2dccfac7c04bb8a&#45;&gt;dir_b778c3f297ab88300258a2935792c8cc -->
<g id="edge6" class="edge">
<title>dir_65d600aab5b7177ee2dccfac7c04bb8a&#45;&gt;dir_b778c3f297ab88300258a2935792c8cc</title>
<path fill="none" stroke="black" d="M109.9,-71.7C114,-63.73 118.95,-54.1 123.49,-45.26"/>
<polygon fill="black" stroke="black" points="126.74,-46.6 128.2,-36.1 120.52,-43.4 126.74,-46.6"/>
<g id="a_edge6&#45;headlabel"><a xlink:href="dir_000002_000047.html" target="_top" xlink:title="2">
<text text-anchor="middle" x="127.62" y="-48.59" font-family="Helvetica,sans-Serif" font-size="10.00">2</text>
</a>
</g>
</g>
<!-- dir_7b371d9fdb0359ac564866f88df60f77&#45;&gt;dir_b778c3f297ab88300258a2935792c8cc -->
<g id="edge7" class="edge">
<title>dir_7b371d9fdb0359ac564866f88df60f77&#45;&gt;dir_b778c3f297ab88300258a2935792c8cc</title>
<path fill="none" stroke="black" d="M164.1,-71.7C160,-63.73 155.05,-54.1 150.51,-45.26"/>
<polygon fill="black" stroke="black" points="153.48,-43.4 145.8,-36.1 147.26,-46.6 153.48,-43.4"/>
<g id="a_edge7&#45;headlabel"><a xlink:href="dir_000117_000047.html" target="_top" xlink:title="1">
<text text-anchor="middle" x="157.65" y="-42.79" font-family="Helvetica,sans-Serif" font-size="10.00">1</text>
</a>
</g>
</g>
</g>
</svg>
