<?xml version="1.0" encoding="UTF-8" standalone="no"?>
<!DOCTYPE svg PUBLIC "-//W3C//DTD SVG 1.1//EN"
 "http://www.w3.org/Graphics/SVG/1.1/DTD/svg11.dtd">
<!-- Generated by graphviz version 2.46.0 (20210122.1329)
 -->
<!-- Title: include/SComponent Pages: 1 -->
<svg width="358pt" height="247pt"
 viewBox="0.00 0.00 358.00 247.00" xmlns="http://www.w3.org/2000/svg" xmlns:xlink="http://www.w3.org/1999/xlink">
<g id="graph0" class="graph" transform="scale(1 1) rotate(0) translate(4 243)">
<title>include/SComponent</title>
<polygon fill="white" stroke="transparent" points="-4,4 -4,-243 354,-243 354,4 -4,4"/>
<g id="clust1" class="cluster">
<title>clusterdir_d44c64559bbebec7f509842c48db8b23</title>
<g id="a_clust1"><a xlink:href="dir_d44c64559bbebec7f509842c48db8b23.html" target="_top" xlink:title="include">
<polygon fill="#ddddee" stroke="black" points="8,-8 8,-231 342,-231 342,-8 8,-8"/>
<text text-anchor="middle" x="175" y="-219" font-family="Helvetica,sans-Serif" font-size="10.00">include</text>
</a>
</g>
</g>
<g id="clust2" class="cluster">
<title>clusterdir_76ec03b56887a0e8201bcb48abf48018</title>
<g id="a_clust2"><a xlink:href="dir_76ec03b56887a0e8201bcb48abf48018.html" target="_top">
<polygon fill="#eeeeff" stroke="black" points="16,-80 16,-204 178,-204 178,-80 16,-80"/>
</a>
</g>
</g>
<!-- dir_33eed416d00e84841337708fc7e11b48 -->
<g id="node1" class="node">
<title>dir_33eed416d00e84841337708fc7e11b48</title>
<g id="a_node1"><a xlink:href="dir_33eed416d00e84841337708fc7e11b48.html" target="_top" xlink:title="f">
<polygon fill="white" stroke="red" points="240,-124 186,-124 186,-88 240,-88 240,-124"/>
<text text-anchor="middle" x="213" y="-103.5" font-family="Helvetica,sans-Serif" font-size="10.00">f</text>
</a>
</g>
</g>
<!-- dir_4f0979a7f5e3194619cde56505e372d8 -->
<g id="node2" class="node">
<title>dir_4f0979a7f5e3194619cde56505e372d8</title>
<g id="a_node2"><a xlink:href="dir_4f0979a7f5e3194619cde56505e372d8.html" target="_top" xlink:title="JSystem">
<polygon fill="white" stroke="red" points="313.5,-124 258.5,-124 258.5,-88 313.5,-88 313.5,-124"/>
<text text-anchor="middle" x="286" y="-103.5" font-family="Helvetica,sans-Serif" font-size="10.00">JSystem</text>
</a>
</g>
</g>
<!-- dir_b778c3f297ab88300258a2935792c8cc -->
<g id="node3" class="node">
<title>dir_b778c3f297ab88300258a2935792c8cc</title>
<g id="a_node3"><a xlink:href="dir_b778c3f297ab88300258a2935792c8cc.html" target="_top" xlink:title="dolphin">
<polygon fill="none" stroke="black" points="323,-52 269,-52 269,-16 323,-16 323,-52"/>
<text text-anchor="middle" x="296" y="-31.5" font-family="Helvetica,sans-Serif" font-size="10.00">dolphin</text>
</a>
</g>
</g>
<!-- dir_4f0979a7f5e3194619cde56505e372d8&#45;&gt;dir_b778c3f297ab88300258a2935792c8cc -->
<g id="edge4" class="edge">
<title>dir_4f0979a7f5e3194619cde56505e372d8&#45;&gt;dir_b778c3f297ab88300258a2935792c8cc</title>
<path fill="none" stroke="black" d="M288.47,-87.7C289.57,-79.98 290.9,-70.71 292.13,-62.11"/>
<polygon fill="black" stroke="black" points="295.61,-62.5 293.56,-52.1 288.68,-61.51 295.61,-62.5"/>
<g id="a_edge4&#45;headlabel"><a xlink:href="dir_000048_000042.html" target="_top" xlink:title="47">
<text text-anchor="middle" x="297.91" y="-63.96" font-family="Helvetica,sans-Serif" font-size="10.00">47</text>
</a>
</g>
</g>
<!-- dir_76ec03b56887a0e8201bcb48abf48018 -->
<g id="node4" class="node">
<title>dir_76ec03b56887a0e8201bcb48abf48018</title>
<text text-anchor="middle" x="133" y="-175.5" font-family="Helvetica,sans-Serif" font-size="10.00">SComponent</text>
</g>
<!-- dir_76ec03b56887a0e8201bcb48abf48018&#45;&gt;dir_33eed416d00e84841337708fc7e11b48 -->
<g id="edge1" class="edge">
<title>dir_76ec03b56887a0e8201bcb48abf48018&#45;&gt;dir_33eed416d00e84841337708fc7e11b48</title>
<path fill="none" stroke="black" d="M152.78,-159.7C162.75,-150.97 175.01,-140.24 185.86,-130.75"/>
<polygon fill="black" stroke="black" points="188.23,-133.32 193.45,-124.1 183.62,-128.06 188.23,-133.32"/>
<g id="a_edge1&#45;headlabel"><a xlink:href="dir_000113_000044.html" target="_top" xlink:title="1">
<text text-anchor="middle" x="187.4" y="-135.33" font-family="Helvetica,sans-Serif" font-size="10.00">1</text>
</a>
</g>
</g>
<!-- dir_76ec03b56887a0e8201bcb48abf48018&#45;&gt;dir_4f0979a7f5e3194619cde56505e372d8 -->
<g id="edge2" class="edge">
<title>dir_76ec03b56887a0e8201bcb48abf48018&#45;&gt;dir_4f0979a7f5e3194619cde56505e372d8</title>
<path fill="none" stroke="black" d="M169.58,-160.31C192.42,-149.88 222.43,-136.17 249,-124 249.09,-123.96 249.18,-123.92 249.28,-123.87"/>
<polygon fill="black" stroke="black" points="250.49,-127.17 258.12,-119.82 247.57,-120.8 250.49,-127.17"/>
<g id="a_edge2&#45;headlabel"><a xlink:href="dir_000113_000048.html" target="_top" xlink:title="1">
<text text-anchor="middle" x="248.41" y="-128.75" font-family="Helvetica,sans-Serif" font-size="10.00">1</text>
</a>
</g>
</g>
<!-- dir_76ec03b56887a0e8201bcb48abf48018&#45;&gt;dir_b778c3f297ab88300258a2935792c8cc -->
<g id="edge3" class="edge">
<title>dir_76ec03b56887a0e8201bcb48abf48018&#45;&gt;dir_b778c3f297ab88300258a2935792c8cc</title>
<path fill="none" stroke="black" d="M169.61,-172.06C219.44,-164.51 304.52,-148.34 323,-124 337.08,-105.46 326.74,-79.58 315.01,-60.5"/>
<polygon fill="black" stroke="black" points="317.85,-58.44 309.43,-52 312,-62.28 317.85,-58.44"/>
<g id="a_edge3&#45;headlabel"><a xlink:href="dir_000113_000042.html" target="_top" xlink:title="1">
<text text-anchor="middle" x="322.2" y="-57.39" font-family="Helvetica,sans-Serif" font-size="10.00">1</text>
</a>
</g>
</g>
<!-- dir_3486577814a4b6bd54a338a9428f09a3 -->
<g id="node5" class="node">
<title>dir_3486577814a4b6bd54a338a9428f09a3</title>
<g id="a_node5"><a xlink:href="dir_3486577814a4b6bd54a338a9428f09a3.html" target="_top" xlink:title="c_cc_d">
<polygon fill="white" stroke="black" points="78,-124 24,-124 24,-88 78,-88 78,-124"/>
<text text-anchor="middle" x="51" y="-103.5" font-family="Helvetica,sans-Serif" font-size="10.00">c_cc_d</text>
</a>
</g>
</g>
<!-- dir_557297f20c632f9569ac87b97e86b672 -->
<g id="node6" class="node">
<title>dir_557297f20c632f9569ac87b97e86b672</title>
<g id="a_node6"><a xlink:href="dir_557297f20c632f9569ac87b97e86b672.html" target="_top" xlink:title="c_cc_s">
<polygon fill="white" stroke="black" points="78,-196 24,-196 24,-160 78,-160 78,-196"/>
<text text-anchor="middle" x="51" y="-175.5" font-family="Helvetica,sans-Serif" font-size="10.00">c_cc_s</text>
</a>
</g>
</g>
<!-- dir_557297f20c632f9569ac87b97e86b672&#45;&gt;dir_3486577814a4b6bd54a338a9428f09a3 -->
<g id="edge5" class="edge">
<title>dir_557297f20c632f9569ac87b97e86b672&#45;&gt;dir_3486577814a4b6bd54a338a9428f09a3</title>
<path fill="none" stroke="black" d="M51,-159.7C51,-151.98 51,-142.71 51,-134.11"/>
<polygon fill="black" stroke="black" points="54.5,-134.1 51,-124.1 47.5,-134.1 54.5,-134.1"/>
<g id="a_edge5&#45;headlabel"><a xlink:href="dir_000115_000114.html" target="_top" xlink:title="1">
<text text-anchor="middle" x="57.34" y="-135.2" font-family="Helvetica,sans-Serif" font-size="10.00">1</text>
</a>
</g>
</g>
</g>
</svg>
