<?xml version="1.0" encoding="UTF-8" standalone="no"?>
<!DOCTYPE svg PUBLIC "-//W3C//DTD SVG 1.1//EN"
 "http://www.w3.org/Graphics/SVG/1.1/DTD/svg11.dtd">
<!-- Generated by graphviz version 2.46.1 (20210215.1649)
 -->
<!-- Title: include/d/d_ky/d_kyeff2 Pages: 1 -->
<svg width="94pt" height="151pt"
 viewBox="0.00 0.00 94.00 151.00" xmlns="http://www.w3.org/2000/svg" xmlns:xlink="http://www.w3.org/1999/xlink">
<g id="graph0" class="graph" transform="scale(1 1) rotate(0) translate(4 147)">
<title>include/d/d_ky/d_kyeff2</title>
<polygon fill="white" stroke="transparent" points="-4,4 -4,-147 90,-147 90,4 -4,4"/>
<g id="clust1" class="cluster">
<title>clusterdir_9e1cbd179e29f89326fde9f5bd22f562</title>
<g id="a_clust1"><a xlink:href="dir_9e1cbd179e29f89326fde9f5bd22f562.html" target="_top" xlink:title="d_ky">
<polygon fill="#ddddee" stroke="black" points="8,-64 8,-135 78,-135 78,-64 8,-64"/>
<text text-anchor="middle" x="43" y="-123" font-family="Helvetica,sans-Serif" font-size="10.00">d_ky</text>
</a>
</g>
</g>
<!-- dir_32bfe342c8c8a55c0d87216c3908f280 -->
<g id="node1" class="node">
<title>dir_32bfe342c8c8a55c0d87216c3908f280</title>
<g id="a_node1"><a xlink:href="dir_32bfe342c8c8a55c0d87216c3908f280.html" target="_top" xlink:title="d_kyeff2">
<polygon fill="#eeeeff" stroke="black" points="70,-108 16,-108 16,-72 70,-72 70,-108"/>
<text text-anchor="middle" x="43" y="-87.5" font-family="Helvetica,sans-Serif" font-size="10.00">d_kyeff2</text>
</a>
</g>
</g>
<!-- dir_921c9d5838e7b9974bde60ff9b33148e -->
<g id="node2" class="node">
<title>dir_921c9d5838e7b9974bde60ff9b33148e</title>
<g id="a_node2"><a xlink:href="dir_921c9d5838e7b9974bde60ff9b33148e.html" target="_top" xlink:title="d_kankyo">
<polygon fill="white" stroke="red" points="72,-36 14,-36 14,0 72,0 72,-36"/>
<text text-anchor="middle" x="43" y="-15.5" font-family="Helvetica,sans-Serif" font-size="10.00">d_kankyo</text>
</a>
</g>
</g>
<!-- dir_32bfe342c8c8a55c0d87216c3908f280&#45;&gt;dir_921c9d5838e7b9974bde60ff9b33148e -->
<g id="edge1" class="edge">
<title>dir_32bfe342c8c8a55c0d87216c3908f280&#45;&gt;dir_921c9d5838e7b9974bde60ff9b33148e</title>
<path fill="none" stroke="black" d="M43,-71.7C43,-63.98 43,-54.71 43,-46.11"/>
<polygon fill="black" stroke="black" points="46.5,-46.1 43,-36.1 39.5,-46.1 46.5,-46.1"/>
<g id="a_edge1&#45;headlabel"><a xlink:href="dir_000034_000030.html" target="_top" xlink:title="1">
<text text-anchor="middle" x="49.34" y="-47.2" font-family="Helvetica,sans-Serif" font-size="10.00">1</text>
</a>
</g>
</g>
</g>
</svg>
