<?xml version="1.0" encoding="UTF-8" standalone="no"?>
<!DOCTYPE svg PUBLIC "-//W3C//DTD SVG 1.1//EN"
 "http://www.w3.org/Graphics/SVG/1.1/DTD/svg11.dtd">
<!-- Generated by graphviz version 2.46.0 (20210122.1329)
 -->
<!-- Title: include/Z2AudioLib/Z2SoundHandles Pages: 1 -->
<svg width="132pt" height="223pt"
 viewBox="0.00 0.00 132.00 223.00" xmlns="http://www.w3.org/2000/svg" xmlns:xlink="http://www.w3.org/1999/xlink">
<g id="graph0" class="graph" transform="scale(1 1) rotate(0) translate(4 219)">
<title>include/Z2AudioLib/Z2SoundHandles</title>
<polygon fill="white" stroke="transparent" points="-4,4 -4,-219 128,-219 128,4 -4,4"/>
<g id="clust1" class="cluster">
<title>clusterdir_81939fb769658ab66ba54ec390580a1a</title>
<g id="a_clust1"><a xlink:href="dir_81939fb769658ab66ba54ec390580a1a.html" target="_top" xlink:title="Z2AudioLib">
<polygon fill="#ddddee" stroke="black" points="8,-136 8,-207 116,-207 116,-136 8,-136"/>
<text text-anchor="middle" x="62" y="-195" font-family="Helvetica,sans-Serif" font-size="10.00">Z2AudioLib</text>
</a>
</g>
</g>
<!-- dir_ece6d87a7862fa658c7e7b1124c72881 -->
<g id="node1" class="node">
<title>dir_ece6d87a7862fa658c7e7b1124c72881</title>
<g id="a_node1"><a xlink:href="dir_ece6d87a7862fa658c7e7b1124c72881.html" target="_top" xlink:title="Z2SoundHandles">
<polygon fill="#eeeeff" stroke="black" points="108,-180 16,-180 16,-144 108,-144 108,-180"/>
<text text-anchor="middle" x="62" y="-159.5" font-family="Helvetica,sans-Serif" font-size="10.00">Z2SoundHandles</text>
</a>
</g>
</g>
<!-- dir_4f0979a7f5e3194619cde56505e372d8 -->
<g id="node2" class="node">
<title>dir_4f0979a7f5e3194619cde56505e372d8</title>
<g id="a_node2"><a xlink:href="dir_4f0979a7f5e3194619cde56505e372d8.html" target="_top" xlink:title="JSystem">
<polygon fill="white" stroke="red" points="61.5,-108 6.5,-108 6.5,-72 61.5,-72 61.5,-108"/>
<text text-anchor="middle" x="34" y="-87.5" font-family="Helvetica,sans-Serif" font-size="10.00">JSystem</text>
</a>
</g>
</g>
<!-- dir_ece6d87a7862fa658c7e7b1124c72881&#45;&gt;dir_4f0979a7f5e3194619cde56505e372d8 -->
<g id="edge1" class="edge">
<title>dir_ece6d87a7862fa658c7e7b1124c72881&#45;&gt;dir_4f0979a7f5e3194619cde56505e372d8</title>
<path fill="none" stroke="black" d="M55.08,-143.7C51.93,-135.81 48.12,-126.3 44.62,-117.55"/>
<polygon fill="black" stroke="black" points="47.81,-116.09 40.84,-108.1 41.31,-118.69 47.81,-116.09"/>
<g id="a_edge1&#45;headlabel"><a xlink:href="dir_000135_000048.html" target="_top" xlink:title="3">
<text text-anchor="middle" x="51.78" y="-115.87" font-family="Helvetica,sans-Serif" font-size="10.00">3</text>
</a>
</g>
</g>
<!-- dir_b778c3f297ab88300258a2935792c8cc -->
<g id="node3" class="node">
<title>dir_b778c3f297ab88300258a2935792c8cc</title>
<g id="a_node3"><a xlink:href="dir_b778c3f297ab88300258a2935792c8cc.html" target="_top" xlink:title="dolphin">
<polygon fill="none" stroke="black" points="89,-36 35,-36 35,0 89,0 89,-36"/>
<text text-anchor="middle" x="62" y="-15.5" font-family="Helvetica,sans-Serif" font-size="10.00">dolphin</text>
</a>
</g>
</g>
<!-- dir_ece6d87a7862fa658c7e7b1124c72881&#45;&gt;dir_b778c3f297ab88300258a2935792c8cc -->
<g id="edge2" class="edge">
<title>dir_ece6d87a7862fa658c7e7b1124c72881&#45;&gt;dir_b778c3f297ab88300258a2935792c8cc</title>
<path fill="none" stroke="black" d="M65.65,-143.91C67.68,-133.57 69.98,-120.09 71,-108 72.34,-92.06 72.34,-87.94 71,-72 70.28,-63.5 68.93,-54.31 67.49,-46.01"/>
<polygon fill="black" stroke="black" points="70.91,-45.29 65.65,-36.09 64.03,-46.56 70.91,-45.29"/>
<g id="a_edge2&#45;headlabel"><a xlink:href="dir_000135_000042.html" target="_top" xlink:title="1">
<text text-anchor="middle" x="74.36" y="-45.81" font-family="Helvetica,sans-Serif" font-size="10.00">1</text>
</a>
</g>
</g>
<!-- dir_4f0979a7f5e3194619cde56505e372d8&#45;&gt;dir_b778c3f297ab88300258a2935792c8cc -->
<g id="edge3" class="edge">
<title>dir_4f0979a7f5e3194619cde56505e372d8&#45;&gt;dir_b778c3f297ab88300258a2935792c8cc</title>
<path fill="none" stroke="black" d="M40.92,-71.7C44.07,-63.81 47.88,-54.3 51.38,-45.55"/>
<polygon fill="black" stroke="black" points="54.69,-46.69 55.16,-36.1 48.19,-44.09 54.69,-46.69"/>
<g id="a_edge3&#45;headlabel"><a xlink:href="dir_000048_000042.html" target="_top" xlink:title="47">
<text text-anchor="middle" x="56" y="-48.58" font-family="Helvetica,sans-Serif" font-size="10.00">47</text>
</a>
</g>
</g>
</g>
</svg>
