<?xml version="1.0" encoding="UTF-8" standalone="no"?>
<!DOCTYPE svg PUBLIC "-//W3C//DTD SVG 1.1//EN"
 "http://www.w3.org/Graphics/SVG/1.1/DTD/svg11.dtd">
<!-- Generated by graphviz version 2.46.0 (20210122.1329)
 -->
<!-- Title: include/m_Do Pages: 1 -->
<!--zoomable 319 -->
<svg id="main" version="1.1" xmlns="http://www.w3.org/2000/svg" xmlns:xlink="http://www.w3.org/1999/xlink" xml:space="preserve" onload="init(evt)">
<style type="text/css"><![CDATA[
.edge:hover path { stroke: red; }
.edge:hover polygon { stroke: red; fill: red; }
]]></style>
<script type="text/javascript"><![CDATA[
var edges = document.getElementsByTagName('g');
if (edges && edges.length) {
  for (var i=0;i<edges.length;i++) {
    if (edges[i].id.substr(0,4)=='edge') {
      edges[i].setAttribute('class','edge');
    }
  }
}
]]></script>
        <defs>
                <circle id="rim" cx="0" cy="0" r="7"/>
                <circle id="rim2" cx="0" cy="0" r="3.5"/>
                <g id="zoomPlus">
                        <use xlink:href="#rim" fill="#404040">
                                <set attributeName="fill" to="#808080" begin="zoomplus.mouseover" end="zoomplus.mouseout"/>
                        </use>
                        <path d="M-4,0h8M0,-4v8" fill="none" stroke="white" stroke-width="1.5" pointer-events="none"/>
                </g>
                <g id="zoomMin">
                        <use xlink:href="#rim" fill="#404040">
                                <set attributeName="fill" to="#808080" begin="zoomminus.mouseover" end="zoomminus.mouseout"/>
                        </use>
                        <path d="M-4,0h8" fill="none" stroke="white" stroke-width="1.5" pointer-events="none"/>
                </g>
                <g id="dirArrow">
                        <path fill="none" stroke="white" stroke-width="1.5" d="M0,-3.0v7 M-2.5,-0.5L0,-3.0L2.5,-0.5"/>
                </g>
               <g id="resetDef">
                       <use xlink:href="#rim2" fill="#404040">
                               <set attributeName="fill" to="#808080" begin="reset.mouseover" end="reset.mouseout"/>
                       </use>
               </g>
        </defs>

<script type="text/javascript">
var viewWidth = 893;
var viewHeight = 319;
var sectionId = 'dynsection-0';
</script>
<script xlink:href="svgpan.js"/>
<svg id="graph" class="graph">
<g id="viewport">
<title>include/m_Do</title>
<polygon fill="white" stroke="transparent" points="-4,4 -4,-315 889,-315 889,4 -4,4"/>
<g id="clust1" class="cluster">
<title>clusterdir_d44c64559bbebec7f509842c48db8b23</title>
<g id="a_clust1"><a xlink:href="dir_d44c64559bbebec7f509842c48db8b23.html" target="_top" xlink:title="include">
<polygon fill="#ddddee" stroke="black" points="8,-8 8,-303 877,-303 877,-8 8,-8"/>
<text text-anchor="middle" x="442.5" y="-291" font-family="Helvetica,sans-Serif" font-size="10.00">include</text>
</a>
</g>
</g>
<g id="clust2" class="cluster">
<title>clusterdir_6bdfff2c28f90f381b6da5bee088878b</title>
<g id="a_clust2"><a xlink:href="dir_6bdfff2c28f90f381b6da5bee088878b.html" target="_top">
<polygon fill="#eeeeff" stroke="black" points="16,-224 16,-276 869,-276 869,-224 16,-224"/>
</a>
</g>
</g>
<!-- dir_81939fb769658ab66ba54ec390580a1a -->
<g id="node1" class="node">
<title>dir_81939fb769658ab66ba54ec390580a1a</title>
<g id="a_node1"><a xlink:href="dir_81939fb769658ab66ba54ec390580a1a.html" target="_top" xlink:title="Z2AudioLib">
<polygon fill="white" stroke="red" points="375,-196 309,-196 309,-160 375,-160 375,-196"/>
<text text-anchor="middle" x="342" y="-175.5" font-family="Helvetica,sans-Serif" font-size="10.00">Z2AudioLib</text>
</a>
</g>
</g>
<!-- dir_4f0979a7f5e3194619cde56505e372d8 -->
<g id="node2" class="node">
<title>dir_4f0979a7f5e3194619cde56505e372d8</title>
<g id="a_node2"><a xlink:href="dir_4f0979a7f5e3194619cde56505e372d8.html" target="_top" xlink:title="JSystem">
<polygon fill="white" stroke="red" points="530.5,-124 475.5,-124 475.5,-88 530.5,-88 530.5,-124"/>
<text text-anchor="middle" x="503" y="-103.5" font-family="Helvetica,sans-Serif" font-size="10.00">JSystem</text>
</a>
</g>
</g>
<!-- dir_81939fb769658ab66ba54ec390580a1a&#45;&gt;dir_4f0979a7f5e3194619cde56505e372d8 -->
<g id="edge4" class="edge">
<title>dir_81939fb769658ab66ba54ec390580a1a&#45;&gt;dir_4f0979a7f5e3194619cde56505e372d8</title>
<path fill="none" stroke="black" d="M375.36,-162.5C401.81,-151 438.74,-134.94 466.07,-123.06"/>
<polygon fill="black" stroke="black" points="467.53,-126.24 475.31,-119.04 464.74,-119.82 467.53,-126.24"/>
<g id="a_edge4&#45;headlabel"><a xlink:href="dir_000118_000048.html" target="_top" xlink:title="22">
<text text-anchor="middle" x="465.37" y="-127.77" font-family="Helvetica,sans-Serif" font-size="10.00">22</text>
</a>
</g>
</g>
<!-- dir_b778c3f297ab88300258a2935792c8cc -->
<g id="node4" class="node">
<title>dir_b778c3f297ab88300258a2935792c8cc</title>
<g id="a_node4"><a xlink:href="dir_b778c3f297ab88300258a2935792c8cc.html" target="_top" xlink:title="dolphin">
<polygon fill="none" stroke="black" points="553,-52 499,-52 499,-16 553,-16 553,-52"/>
<text text-anchor="middle" x="526" y="-31.5" font-family="Helvetica,sans-Serif" font-size="10.00">dolphin</text>
</a>
</g>
</g>
<!-- dir_81939fb769658ab66ba54ec390580a1a&#45;&gt;dir_b778c3f297ab88300258a2935792c8cc -->
<g id="edge5" class="edge">
<title>dir_81939fb769658ab66ba54ec390580a1a&#45;&gt;dir_b778c3f297ab88300258a2935792c8cc</title>
<path fill="none" stroke="black" d="M360.12,-159.76C380.01,-141.19 413.21,-111.19 444,-88 458.58,-77.02 475.39,-65.9 489.99,-56.7"/>
<polygon fill="black" stroke="black" points="492.12,-59.5 498.75,-51.24 488.41,-53.56 492.12,-59.5"/>
<g id="a_edge5&#45;headlabel"><a xlink:href="dir_000118_000042.html" target="_top" xlink:title="6">
<text text-anchor="middle" x="490.57" y="-61.31" font-family="Helvetica,sans-Serif" font-size="10.00">6</text>
</a>
</g>
</g>
<!-- dir_4f0979a7f5e3194619cde56505e372d8&#45;&gt;dir_b778c3f297ab88300258a2935792c8cc -->
<g id="edge14" class="edge">
<title>dir_4f0979a7f5e3194619cde56505e372d8&#45;&gt;dir_b778c3f297ab88300258a2935792c8cc</title>
<path fill="none" stroke="black" d="M508.69,-87.7C511.25,-79.9 514.33,-70.51 517.18,-61.83"/>
<polygon fill="black" stroke="black" points="520.58,-62.7 520.38,-52.1 513.93,-60.51 520.58,-62.7"/>
<g id="a_edge14&#45;headlabel"><a xlink:href="dir_000048_000042.html" target="_top" xlink:title="47">
<text text-anchor="middle" x="522.16" y="-64.5" font-family="Helvetica,sans-Serif" font-size="10.00">47</text>
</a>
</g>
</g>
<!-- dir_76ec03b56887a0e8201bcb48abf48018 -->
<g id="node3" class="node">
<title>dir_76ec03b56887a0e8201bcb48abf48018</title>
<g id="a_node3"><a xlink:href="dir_76ec03b56887a0e8201bcb48abf48018.html" target="_top" xlink:title="SComponent">
<polygon fill="white" stroke="red" points="466.5,-196 393.5,-196 393.5,-160 466.5,-160 466.5,-196"/>
<text text-anchor="middle" x="430" y="-175.5" font-family="Helvetica,sans-Serif" font-size="10.00">SComponent</text>
</a>
</g>
</g>
<!-- dir_76ec03b56887a0e8201bcb48abf48018&#45;&gt;dir_4f0979a7f5e3194619cde56505e372d8 -->
<g id="edge9" class="edge">
<title>dir_76ec03b56887a0e8201bcb48abf48018&#45;&gt;dir_4f0979a7f5e3194619cde56505e372d8</title>
<path fill="none" stroke="black" d="M448.04,-159.7C457.06,-151.05 468.12,-140.45 477.94,-131.03"/>
<polygon fill="black" stroke="black" points="480.37,-133.55 485.16,-124.1 475.52,-128.5 480.37,-133.55"/>
<g id="a_edge9&#45;headlabel"><a xlink:href="dir_000113_000048.html" target="_top" xlink:title="1">
<text text-anchor="middle" x="479.74" y="-135.59" font-family="Helvetica,sans-Serif" font-size="10.00">1</text>
</a>
</g>
</g>
<!-- dir_76ec03b56887a0e8201bcb48abf48018&#45;&gt;dir_b778c3f297ab88300258a2935792c8cc -->
<g id="edge10" class="edge">
<title>dir_76ec03b56887a0e8201bcb48abf48018&#45;&gt;dir_b778c3f297ab88300258a2935792c8cc</title>
<path fill="none" stroke="black" d="M434.65,-159.8C440.28,-140.99 451.04,-110.53 467,-88 474.66,-77.18 484.91,-67.01 494.7,-58.52"/>
<polygon fill="black" stroke="black" points="496.97,-61.19 502.41,-52.1 492.49,-55.81 496.97,-61.19"/>
<g id="a_edge10&#45;headlabel"><a xlink:href="dir_000113_000042.html" target="_top" xlink:title="1">
<text text-anchor="middle" x="496.03" y="-63.17" font-family="Helvetica,sans-Serif" font-size="10.00">1</text>
</a>
</g>
</g>
<!-- dir_6bdfff2c28f90f381b6da5bee088878b -->
<g id="node5" class="node">
<title>dir_6bdfff2c28f90f381b6da5bee088878b</title>
<text text-anchor="middle" x="834" y="-247.5" font-family="Helvetica,sans-Serif" font-size="10.00">m_Do</text>
</g>
<!-- dir_db249ad017186daa0fccbf700440a0b9 -->
<g id="node6" class="node">
<title>dir_db249ad017186daa0fccbf700440a0b9</title>
<g id="a_node6"><a xlink:href="dir_db249ad017186daa0fccbf700440a0b9.html" target="_top" xlink:title="m_Do_audio">
<polygon fill="white" stroke="black" points="95.5,-268 24.5,-268 24.5,-232 95.5,-232 95.5,-268"/>
<text text-anchor="middle" x="60" y="-247.5" font-family="Helvetica,sans-Serif" font-size="10.00">m_Do_audio</text>
</a>
</g>
</g>
<!-- dir_db249ad017186daa0fccbf700440a0b9&#45;&gt;dir_81939fb769658ab66ba54ec390580a1a -->
<g id="edge6" class="edge">
<title>dir_db249ad017186daa0fccbf700440a0b9&#45;&gt;dir_81939fb769658ab66ba54ec390580a1a</title>
<path fill="none" stroke="black" d="M87.43,-231.96C93.09,-228.96 99.12,-226.13 105,-224 170.3,-200.36 250.45,-188.46 298.81,-183.02"/>
<polygon fill="black" stroke="black" points="299.36,-186.48 308.92,-181.92 298.6,-179.52 299.36,-186.48"/>
<g id="a_edge6&#45;headlabel"><a xlink:href="dir_000103_000118.html" target="_top" xlink:title="1">
<text text-anchor="middle" x="296.09" y="-187.19" font-family="Helvetica,sans-Serif" font-size="10.00">1</text>
</a>
</g>
</g>
<!-- dir_c3ef1b8d315dc8c42100e759d48a5b55 -->
<g id="node7" class="node">
<title>dir_c3ef1b8d315dc8c42100e759d48a5b55</title>
<g id="a_node7"><a xlink:href="dir_c3ef1b8d315dc8c42100e759d48a5b55.html" target="_top" xlink:title="m_Do_controller_pad">
<polygon fill="white" stroke="black" points="222,-268 114,-268 114,-232 222,-232 222,-268"/>
<text text-anchor="middle" x="168" y="-247.5" font-family="Helvetica,sans-Serif" font-size="10.00">m_Do_controller_pad</text>
</a>
</g>
</g>
<!-- dir_c3ef1b8d315dc8c42100e759d48a5b55&#45;&gt;dir_4f0979a7f5e3194619cde56505e372d8 -->
<g id="edge7" class="edge">
<title>dir_c3ef1b8d315dc8c42100e759d48a5b55&#45;&gt;dir_4f0979a7f5e3194619cde56505e372d8</title>
<path fill="none" stroke="black" d="M206.45,-231.89C214.44,-228.86 222.9,-226.03 231,-224 284.15,-210.67 433.91,-231.09 476,-196 480.91,-191.91 490.08,-158.81 496.36,-134.17"/>
<polygon fill="black" stroke="black" points="499.81,-134.79 498.85,-124.24 493.02,-133.08 499.81,-134.79"/>
<g id="a_edge7&#45;headlabel"><a xlink:href="dir_000104_000048.html" target="_top" xlink:title="1">
<text text-anchor="middle" x="501.69" y="-136.46" font-family="Helvetica,sans-Serif" font-size="10.00">1</text>
</a>
</g>
</g>
<!-- dir_c3ef1b8d315dc8c42100e759d48a5b55&#45;&gt;dir_76ec03b56887a0e8201bcb48abf48018 -->
<g id="edge8" class="edge">
<title>dir_c3ef1b8d315dc8c42100e759d48a5b55&#45;&gt;dir_76ec03b56887a0e8201bcb48abf48018</title>
<path fill="none" stroke="black" d="M207.58,-231.92C215.26,-229 223.31,-226.21 231,-224 294.46,-205.79 315.45,-213.49 383.37,-195.87"/>
<polygon fill="black" stroke="black" points="384.53,-199.18 393.28,-193.21 382.71,-192.42 384.53,-199.18"/>
<g id="a_edge8&#45;headlabel"><a xlink:href="dir_000104_000113.html" target="_top" xlink:title="1">
<text text-anchor="middle" x="381.79" y="-200.36" font-family="Helvetica,sans-Serif" font-size="10.00">1</text>
</a>
</g>
</g>
<!-- dir_1f88545f8bfc61e63af91c875108eb58 -->
<g id="node8" class="node">
<title>dir_1f88545f8bfc61e63af91c875108eb58</title>
<g id="a_node8"><a xlink:href="dir_1f88545f8bfc61e63af91c875108eb58.html" target="_top" xlink:title="m_Do_dvd_thread">
<polygon fill="white" stroke="black" points="788.5,-268 693.5,-268 693.5,-232 788.5,-232 788.5,-268"/>
<text text-anchor="middle" x="741" y="-247.5" font-family="Helvetica,sans-Serif" font-size="10.00">m_Do_dvd_thread</text>
</a>
</g>
</g>
<!-- dir_1f88545f8bfc61e63af91c875108eb58&#45;&gt;dir_b778c3f297ab88300258a2935792c8cc -->
<g id="edge11" class="edge">
<title>dir_1f88545f8bfc61e63af91c875108eb58&#45;&gt;dir_b778c3f297ab88300258a2935792c8cc</title>
<path fill="none" stroke="black" d="M723.77,-231.85C685.71,-193.97 594.39,-103.08 550.45,-59.33"/>
<polygon fill="black" stroke="black" points="552.87,-56.81 543.31,-52.23 547.93,-61.77 552.87,-56.81"/>
<g id="a_edge11&#45;headlabel"><a xlink:href="dir_000105_000042.html" target="_top" xlink:title="1">
<text text-anchor="middle" x="557.42" y="-54.83" font-family="Helvetica,sans-Serif" font-size="10.00">1</text>
</a>
</g>
</g>
<!-- dir_30ea13dec83035cec10245484eb25550 -->
<g id="node9" class="node">
<title>dir_30ea13dec83035cec10245484eb25550</title>
<g id="a_node9"><a xlink:href="dir_30ea13dec83035cec10245484eb25550.html" target="_top" xlink:title="m_Do_ext">
<polygon fill="white" stroke="black" points="498,-268 438,-268 438,-232 498,-232 498,-268"/>
<text text-anchor="middle" x="468" y="-247.5" font-family="Helvetica,sans-Serif" font-size="10.00">m_Do_ext</text>
</a>
</g>
</g>
<!-- dir_30ea13dec83035cec10245484eb25550&#45;&gt;dir_4f0979a7f5e3194619cde56505e372d8 -->
<g id="edge3" class="edge">
<title>dir_30ea13dec83035cec10245484eb25550&#45;&gt;dir_4f0979a7f5e3194619cde56505e372d8</title>
<path fill="none" stroke="black" d="M476.92,-231.78C481.8,-221.62 487.55,-208.37 491,-196 496.68,-175.63 499.71,-151.87 501.3,-134.02"/>
<polygon fill="black" stroke="black" points="504.79,-134.26 502.1,-124.01 497.81,-133.7 504.79,-134.26"/>
<g id="a_edge3&#45;headlabel"><a xlink:href="dir_000106_000048.html" target="_top" xlink:title="2">
<text text-anchor="middle" x="507.34" y="-135.57" font-family="Helvetica,sans-Serif" font-size="10.00">2</text>
</a>
</g>
</g>
<!-- dir_009a98fef92a043eb85c2692f0843544 -->
<g id="node10" class="node">
<title>dir_009a98fef92a043eb85c2692f0843544</title>
<g id="a_node10"><a xlink:href="dir_009a98fef92a043eb85c2692f0843544.html" target="_top" xlink:title="m_Do_graphic">
<polygon fill="white" stroke="black" points="420.5,-268 341.5,-268 341.5,-232 420.5,-232 420.5,-268"/>
<text text-anchor="middle" x="381" y="-247.5" font-family="Helvetica,sans-Serif" font-size="10.00">m_Do_graphic</text>
</a>
</g>
</g>
<!-- dir_0d97005bd843b139d284c8ef2f683db1 -->
<g id="node11" class="node">
<title>dir_0d97005bd843b139d284c8ef2f683db1</title>
<g id="a_node11"><a xlink:href="dir_0d97005bd843b139d284c8ef2f683db1.html" target="_top" xlink:title="m_Do_machine">
<polygon fill="white" stroke="black" points="324,-268 240,-268 240,-232 324,-232 324,-268"/>
<text text-anchor="middle" x="282" y="-247.5" font-family="Helvetica,sans-Serif" font-size="10.00">m_Do_machine</text>
</a>
</g>
</g>
<!-- dir_f1909503c14a7f1908c4bf3633e4fb04 -->
<g id="node12" class="node">
<title>dir_f1909503c14a7f1908c4bf3633e4fb04</title>
<g id="a_node12"><a xlink:href="dir_f1909503c14a7f1908c4bf3633e4fb04.html" target="_top" xlink:title="m_Do_main">
<polygon fill="white" stroke="black" points="584,-268 516,-268 516,-232 584,-232 584,-268"/>
<text text-anchor="middle" x="550" y="-247.5" font-family="Helvetica,sans-Serif" font-size="10.00">m_Do_main</text>
</a>
</g>
</g>
<!-- dir_f1909503c14a7f1908c4bf3633e4fb04&#45;&gt;dir_4f0979a7f5e3194619cde56505e372d8 -->
<g id="edge1" class="edge">
<title>dir_f1909503c14a7f1908c4bf3633e4fb04&#45;&gt;dir_4f0979a7f5e3194619cde56505e372d8</title>
<path fill="none" stroke="black" d="M544.33,-231.87C536.29,-207.56 521.48,-162.82 511.94,-134.01"/>
<polygon fill="black" stroke="black" points="515.15,-132.58 508.69,-124.19 508.51,-134.78 515.15,-132.58"/>
<g id="a_edge1&#45;headlabel"><a xlink:href="dir_000109_000048.html" target="_top" xlink:title="3">
<text text-anchor="middle" x="518.98" y="-132.6" font-family="Helvetica,sans-Serif" font-size="10.00">3</text>
</a>
</g>
</g>
<!-- dir_f1909503c14a7f1908c4bf3633e4fb04&#45;&gt;dir_b778c3f297ab88300258a2935792c8cc -->
<g id="edge2" class="edge">
<title>dir_f1909503c14a7f1908c4bf3633e4fb04&#45;&gt;dir_b778c3f297ab88300258a2935792c8cc</title>
<path fill="none" stroke="black" d="M550.04,-231.96C549.85,-202.44 548.4,-139.98 540,-88 538.6,-79.32 536.38,-70 534.13,-61.63"/>
<polygon fill="black" stroke="black" points="537.49,-60.67 531.4,-52 530.76,-62.58 537.49,-60.67"/>
<g id="a_edge2&#45;headlabel"><a xlink:href="dir_000109_000042.html" target="_top" xlink:title="1">
<text text-anchor="middle" x="541.2" y="-60.86" font-family="Helvetica,sans-Serif" font-size="10.00">1</text>
</a>
</g>
</g>
<!-- dir_ee15fcc58d3c3dff5f297e80aacf41c1 -->
<g id="node13" class="node">
<title>dir_ee15fcc58d3c3dff5f297e80aacf41c1</title>
<g id="a_node13"><a xlink:href="dir_ee15fcc58d3c3dff5f297e80aacf41c1.html" target="_top" xlink:title="m_Do_Reset">
<polygon fill="white" stroke="black" points="675.5,-268 602.5,-268 602.5,-232 675.5,-232 675.5,-268"/>
<text text-anchor="middle" x="639" y="-247.5" font-family="Helvetica,sans-Serif" font-size="10.00">m_Do_Reset</text>
</a>
</g>
</g>
<!-- dir_ee15fcc58d3c3dff5f297e80aacf41c1&#45;&gt;dir_4f0979a7f5e3194619cde56505e372d8 -->
<g id="edge12" class="edge">
<title>dir_ee15fcc58d3c3dff5f297e80aacf41c1&#45;&gt;dir_4f0979a7f5e3194619cde56505e372d8</title>
<path fill="none" stroke="black" d="M622.6,-231.87C598.7,-206.92 554.19,-160.45 526.73,-131.77"/>
<polygon fill="black" stroke="black" points="528.91,-128.99 519.46,-124.19 523.85,-133.83 528.91,-128.99"/>
<g id="a_edge12&#45;headlabel"><a xlink:href="dir_000110_000048.html" target="_top" xlink:title="1">
<text text-anchor="middle" x="533.44" y="-127.12" font-family="Helvetica,sans-Serif" font-size="10.00">1</text>
</a>
</g>
</g>
<!-- dir_ee15fcc58d3c3dff5f297e80aacf41c1&#45;&gt;dir_b778c3f297ab88300258a2935792c8cc -->
<g id="edge13" class="edge">
<title>dir_ee15fcc58d3c3dff5f297e80aacf41c1&#45;&gt;dir_b778c3f297ab88300258a2935792c8cc</title>
<path fill="none" stroke="black" d="M629.94,-231.85C610.23,-194.52 563.33,-105.69 539.87,-61.26"/>
<polygon fill="black" stroke="black" points="542.86,-59.44 535.1,-52.23 536.67,-62.71 542.86,-59.44"/>
<g id="a_edge13&#45;headlabel"><a xlink:href="dir_000110_000042.html" target="_top" xlink:title="1">
<text text-anchor="middle" x="547.05" y="-58.79" font-family="Helvetica,sans-Serif" font-size="10.00">1</text>
</a>
</g>
</g>
</g>
</svg>
        <g id="navigator" transform="translate(0 0)" fill="#404254">
                <rect fill="#f2f5e9" fill-opacity="0.5" stroke="#606060" stroke-width=".5" x="0" y="0" width="60" height="60"/>
                <use id="zoomplus" xlink:href="#zoomPlus" x="17" y="9" onmousedown="handleZoom(evt,'in')"/>
                <use id="zoomminus" xlink:href="#zoomMin" x="42" y="9" onmousedown="handleZoom(evt,'out')"/>
                <use id="reset" xlink:href="#resetDef" x="30" y="36" onmousedown="handleReset()"/>
                <g id="arrowUp" xlink:href="#dirArrow" transform="translate(30 24)" onmousedown="handlePan(0,-1)">
                  <use xlink:href="#rim" fill="#404040">
                        <set attributeName="fill" to="#808080" begin="arrowUp.mouseover" end="arrowUp.mouseout"/>
                  </use>
                  <path fill="none" stroke="white" stroke-width="1.5" d="M0,-3.0v7 M-2.5,-0.5L0,-3.0L2.5,-0.5"/>
                </g>
                <g id="arrowRight" xlink:href="#dirArrow" transform="rotate(90) translate(36 -43)" onmousedown="handlePan(1,0)">
                  <use xlink:href="#rim" fill="#404040">
                        <set attributeName="fill" to="#808080" begin="arrowRight.mouseover" end="arrowRight.mouseout"/>
                  </use>
                  <path fill="none" stroke="white" stroke-width="1.5" d="M0,-3.0v7 M-2.5,-0.5L0,-3.0L2.5,-0.5"/>
                </g>
                <g id="arrowDown" xlink:href="#dirArrow" transform="rotate(180) translate(-30 -48)" onmousedown="handlePan(0,1)">
                  <use xlink:href="#rim" fill="#404040">
                        <set attributeName="fill" to="#808080" begin="arrowDown.mouseover" end="arrowDown.mouseout"/>
                  </use>
                  <path fill="none" stroke="white" stroke-width="1.5" d="M0,-3.0v7 M-2.5,-0.5L0,-3.0L2.5,-0.5"/>
                </g>
                <g id="arrowLeft" xlink:href="#dirArrow" transform="rotate(270) translate(-36 17)" onmousedown="handlePan(-1,0)">
                  <use xlink:href="#rim" fill="#404040">
                        <set attributeName="fill" to="#808080" begin="arrowLeft.mouseover" end="arrowLeft.mouseout"/>
                  </use>
                  <path fill="none" stroke="white" stroke-width="1.5" d="M0,-3.0v7 M-2.5,-0.5L0,-3.0L2.5,-0.5"/>
                </g>
        </g>
        <svg viewBox="0 0 15 15" width="100%" height="30px" preserveAspectRatio="xMaxYMin meet">
         <g id="arrow_out" transform="scale(0.3 0.3)">
          <a xlink:href="dir_6bdfff2c28f90f381b6da5bee088878b_dep_org.svg" target="_base">
           <rect id="button" ry="5" rx="5" y="6" x="6" height="38" width="38"
                fill="#f2f5e9" fill-opacity="0.5" stroke="#606060" stroke-width="1.0"/>
           <path id="arrow"
             d="M 11.500037,31.436501 C 11.940474,20.09759 22.043105,11.32322 32.158766,21.979434 L 37.068811,17.246167 C 37.068811,17.246167 37.088388,32 37.088388,32 L 22.160133,31.978069 C 22.160133,31.978069 26.997745,27.140456 26.997745,27.140456 C 18.528582,18.264221 13.291696,25.230495 11.500037,31.436501 z"
             style="fill:#404040;"/>
          </a>
         </g>
        </svg>
</svg>
