<?xml version="1.0" encoding="UTF-8" standalone="no"?>
<!DOCTYPE svg PUBLIC "-//W3C//DTD SVG 1.1//EN"
 "http://www.w3.org/Graphics/SVG/1.1/DTD/svg11.dtd">
<!-- Generated by graphviz version 2.46.0 (20210122.1329)
 -->
<!-- Title: include/Z2AudioLib Pages: 1 -->
<!--zoomable 463 -->
<svg id="main" version="1.1" xmlns="http://www.w3.org/2000/svg" xmlns:xlink="http://www.w3.org/1999/xlink" xml:space="preserve" onload="init(evt)">
<style type="text/css"><![CDATA[
.edge:hover path { stroke: red; }
.edge:hover polygon { stroke: red; fill: red; }
]]></style>
<script type="text/javascript"><![CDATA[
var edges = document.getElementsByTagName('g');
if (edges && edges.length) {
  for (var i=0;i<edges.length;i++) {
    if (edges[i].id.substr(0,4)=='edge') {
      edges[i].setAttribute('class','edge');
    }
  }
}
]]></script>
        <defs>
                <circle id="rim" cx="0" cy="0" r="7"/>
                <circle id="rim2" cx="0" cy="0" r="3.5"/>
                <g id="zoomPlus">
                        <use xlink:href="#rim" fill="#404040">
                                <set attributeName="fill" to="#808080" begin="zoomplus.mouseover" end="zoomplus.mouseout"/>
                        </use>
                        <path d="M-4,0h8M0,-4v8" fill="none" stroke="white" stroke-width="1.5" pointer-events="none"/>
                </g>
                <g id="zoomMin">
                        <use xlink:href="#rim" fill="#404040">
                                <set attributeName="fill" to="#808080" begin="zoomminus.mouseover" end="zoomminus.mouseout"/>
                        </use>
                        <path d="M-4,0h8" fill="none" stroke="white" stroke-width="1.5" pointer-events="none"/>
                </g>
                <g id="dirArrow">
                        <path fill="none" stroke="white" stroke-width="1.5" d="M0,-3.0v7 M-2.5,-0.5L0,-3.0L2.5,-0.5"/>
                </g>
               <g id="resetDef">
                       <use xlink:href="#rim2" fill="#404040">
                               <set attributeName="fill" to="#808080" begin="reset.mouseover" end="reset.mouseout"/>
                       </use>
               </g>
        </defs>

<script type="text/javascript">
var viewWidth = 1513;
var viewHeight = 463;
var sectionId = 'dynsection-0';
</script>
<script xlink:href="svgpan.js"/>
<svg id="graph" class="graph">
<g id="viewport">
<title>include/Z2AudioLib</title>
<polygon fill="white" stroke="transparent" points="-4,4 -4,-459 1509,-459 1509,4 -4,4"/>
<g id="clust1" class="cluster">
<title>clusterdir_d44c64559bbebec7f509842c48db8b23</title>
<g id="a_clust1"><a xlink:href="dir_d44c64559bbebec7f509842c48db8b23.html" target="_top" xlink:title="include">
<polygon fill="#ddddee" stroke="black" points="8,-8 8,-447 1497,-447 1497,-8 8,-8"/>
<text text-anchor="middle" x="752.5" y="-435" font-family="Helvetica,sans-Serif" font-size="10.00">include</text>
</a>
</g>
</g>
<g id="clust2" class="cluster">
<title>clusterdir_81939fb769658ab66ba54ec390580a1a</title>
<g id="a_clust2"><a xlink:href="dir_81939fb769658ab66ba54ec390580a1a.html" target="_top">
<polygon fill="#eeeeff" stroke="black" points="80,-80 80,-420 1489,-420 1489,-80 80,-80"/>
</a>
</g>
</g>
<!-- dir_4f0979a7f5e3194619cde56505e372d8 -->
<g id="node1" class="node">
<title>dir_4f0979a7f5e3194619cde56505e372d8</title>
<g id="a_node1"><a xlink:href="dir_4f0979a7f5e3194619cde56505e372d8.html" target="_top" xlink:title="JSystem">
<polygon fill="white" stroke="red" points="71.5,-196 16.5,-196 16.5,-160 71.5,-160 71.5,-196"/>
<text text-anchor="middle" x="44" y="-175.5" font-family="Helvetica,sans-Serif" font-size="10.00">JSystem</text>
</a>
</g>
</g>
<!-- dir_b778c3f297ab88300258a2935792c8cc -->
<g id="node2" class="node">
<title>dir_b778c3f297ab88300258a2935792c8cc</title>
<g id="a_node2"><a xlink:href="dir_b778c3f297ab88300258a2935792c8cc.html" target="_top" xlink:title="dolphin">
<polygon fill="none" stroke="black" points="734,-52 680,-52 680,-16 734,-16 734,-52"/>
<text text-anchor="middle" x="707" y="-31.5" font-family="Helvetica,sans-Serif" font-size="10.00">dolphin</text>
</a>
</g>
</g>
<!-- dir_4f0979a7f5e3194619cde56505e372d8&#45;&gt;dir_b778c3f297ab88300258a2935792c8cc -->
<g id="edge36" class="edge">
<title>dir_4f0979a7f5e3194619cde56505e372d8&#45;&gt;dir_b778c3f297ab88300258a2935792c8cc</title>
<path fill="none" stroke="black" d="M44.23,-159.74C45.55,-137.39 51.52,-99.07 76,-80 122.88,-43.49 541.45,-36.55 669.77,-35.28"/>
<polygon fill="black" stroke="black" points="669.92,-38.78 679.89,-35.18 669.86,-31.78 669.92,-38.78"/>
<g id="a_edge36&#45;headlabel"><a xlink:href="dir_000053_000047.html" target="_top" xlink:title="47">
<text text-anchor="middle" x="666.35" y="-39.15" font-family="Helvetica,sans-Serif" font-size="10.00">47</text>
</a>
</g>
</g>
<!-- dir_81939fb769658ab66ba54ec390580a1a -->
<g id="node3" class="node">
<title>dir_81939fb769658ab66ba54ec390580a1a</title>
<text text-anchor="middle" x="1448" y="-391.5" font-family="Helvetica,sans-Serif" font-size="10.00">Z2AudioLib</text>
</g>
<!-- dir_ee104430afddb6d371c2e15645dec9b2 -->
<g id="node10" class="node">
<title>dir_ee104430afddb6d371c2e15645dec9b2</title>
<g id="a_node10"><a xlink:href="dir_ee104430afddb6d371c2e15645dec9b2.html" target="_top" xlink:title="Z2AudioMgr">
<polygon fill="white" stroke="black" points="508.5,-340 439.5,-340 439.5,-304 508.5,-304 508.5,-340"/>
<text text-anchor="middle" x="474" y="-319.5" font-family="Helvetica,sans-Serif" font-size="10.00">Z2AudioMgr</text>
</a>
</g>
</g>
<!-- dir_81939fb769658ab66ba54ec390580a1a&#45;&gt;dir_ee104430afddb6d371c2e15645dec9b2 -->
<g id="edge15" class="edge">
<title>dir_81939fb769658ab66ba54ec390580a1a&#45;&gt;dir_ee104430afddb6d371c2e15645dec9b2</title>
<path fill="none" stroke="black" d="M1414.86,-378.39C1411.9,-377.45 1408.92,-376.63 1406,-376 1022.08,-293.1 908.9,-413.15 523,-340 521.53,-339.72 520.05,-339.41 518.57,-339.07"/>
<polygon fill="black" stroke="black" points="519.29,-335.64 508.72,-336.44 517.48,-342.4 519.29,-335.64"/>
<g id="a_edge15&#45;headlabel"><a xlink:href="dir_000124_000131.html" target="_top" xlink:title="1">
<text text-anchor="middle" x="523.49" y="-331.32" font-family="Helvetica,sans-Serif" font-size="10.00">1</text>
</a>
</g>
</g>
<!-- dir_528b6e5b683902e115eef7331a6b8306 -->
<g id="node17" class="node">
<title>dir_528b6e5b683902e115eef7331a6b8306</title>
<g id="a_node17"><a xlink:href="dir_528b6e5b683902e115eef7331a6b8306.html" target="_top" xlink:title="Z2SceneMgr">
<polygon fill="white" stroke="black" points="510,-268 438,-268 438,-232 510,-232 510,-268"/>
<text text-anchor="middle" x="474" y="-247.5" font-family="Helvetica,sans-Serif" font-size="10.00">Z2SceneMgr</text>
</a>
</g>
</g>
<!-- dir_81939fb769658ab66ba54ec390580a1a&#45;&gt;dir_528b6e5b683902e115eef7331a6b8306 -->
<g id="edge10" class="edge">
<title>dir_81939fb769658ab66ba54ec390580a1a&#45;&gt;dir_528b6e5b683902e115eef7331a6b8306</title>
<path fill="none" stroke="black" d="M1414.86,-378.39C1411.9,-377.45 1408.92,-376.63 1406,-376 1311.76,-355.61 621.59,-389.75 539,-340 523.13,-330.44 528.62,-319.18 518,-304 511.35,-294.5 503.42,-284.58 496.14,-275.94"/>
<polygon fill="black" stroke="black" points="498.58,-273.41 489.42,-268.09 493.27,-277.96 498.58,-273.41"/>
<g id="a_edge10&#45;headlabel"><a xlink:href="dir_000124_000138.html" target="_top" xlink:title="2">
<text text-anchor="middle" x="503.08" y="-271.79" font-family="Helvetica,sans-Serif" font-size="10.00">2</text>
</a>
</g>
</g>
<!-- dir_49cd2201c9383640ee9a700e6e8ef462 -->
<g id="node18" class="node">
<title>dir_49cd2201c9383640ee9a700e6e8ef462</title>
<g id="a_node18"><a xlink:href="dir_49cd2201c9383640ee9a700e6e8ef462.html" target="_top" xlink:title="Z2SeMgr">
<polygon fill="white" stroke="black" points="668,-268 612,-268 612,-232 668,-232 668,-268"/>
<text text-anchor="middle" x="640" y="-247.5" font-family="Helvetica,sans-Serif" font-size="10.00">Z2SeMgr</text>
</a>
</g>
</g>
<!-- dir_81939fb769658ab66ba54ec390580a1a&#45;&gt;dir_49cd2201c9383640ee9a700e6e8ef462 -->
<g id="edge9" class="edge">
<title>dir_81939fb769658ab66ba54ec390580a1a&#45;&gt;dir_49cd2201c9383640ee9a700e6e8ef462</title>
<path fill="none" stroke="black" d="M1414.76,-378.77C1411.83,-377.75 1408.88,-376.81 1406,-376 1133.24,-299.58 791.92,-264.38 678.56,-254.23"/>
<polygon fill="black" stroke="black" points="678.58,-250.72 668.31,-253.33 677.97,-257.69 678.58,-250.72"/>
<g id="a_edge9&#45;headlabel"><a xlink:href="dir_000124_000139.html" target="_top" xlink:title="1">
<text text-anchor="middle" x="682.41" y="-245.71" font-family="Helvetica,sans-Serif" font-size="10.00">1</text>
</a>
</g>
</g>
<!-- dir_13e96dd48d75d75e1395ace75f5f5685 -->
<g id="node21" class="node">
<title>dir_13e96dd48d75d75e1395ace75f5f5685</title>
<g id="a_node21"><a xlink:href="dir_13e96dd48d75d75e1395ace75f5f5685.html" target="_top" xlink:title="Z2SoundInfo">
<polygon fill="white" stroke="black" points="812,-340 740,-340 740,-304 812,-304 812,-340"/>
<text text-anchor="middle" x="776" y="-319.5" font-family="Helvetica,sans-Serif" font-size="10.00">Z2SoundInfo</text>
</a>
</g>
</g>
<!-- dir_81939fb769658ab66ba54ec390580a1a&#45;&gt;dir_13e96dd48d75d75e1395ace75f5f5685 -->
<g id="edge8" class="edge">
<title>dir_81939fb769658ab66ba54ec390580a1a&#45;&gt;dir_13e96dd48d75d75e1395ace75f5f5685</title>
<path fill="none" stroke="black" d="M1414.84,-378.45C1411.89,-377.5 1408.92,-376.66 1406,-376 1152.4,-318.47 1076.45,-393.65 822,-340 821.9,-339.98 821.8,-339.96 821.7,-339.94"/>
<polygon fill="black" stroke="black" points="822.68,-336.57 812.12,-337.46 820.92,-343.35 822.68,-336.57"/>
<g id="a_edge8&#45;headlabel"><a xlink:href="dir_000124_000142.html" target="_top" xlink:title="1">
<text text-anchor="middle" x="826.87" y="-332.22" font-family="Helvetica,sans-Serif" font-size="10.00">1</text>
</a>
</g>
</g>
<!-- dir_dce1992b25bba7fd7b16c6d2c5c0da93 -->
<g id="node24" class="node">
<title>dir_dce1992b25bba7fd7b16c6d2c5c0da93</title>
<g id="a_node24"><a xlink:href="dir_dce1992b25bba7fd7b16c6d2c5c0da93.html" target="_top" xlink:title="Z2SoundObjMgr">
<polygon fill="white" stroke="black" points="917.5,-340 830.5,-340 830.5,-304 917.5,-304 917.5,-340"/>
<text text-anchor="middle" x="874" y="-319.5" font-family="Helvetica,sans-Serif" font-size="10.00">Z2SoundObjMgr</text>
</a>
</g>
</g>
<!-- dir_81939fb769658ab66ba54ec390580a1a&#45;&gt;dir_dce1992b25bba7fd7b16c6d2c5c0da93 -->
<g id="edge14" class="edge">
<title>dir_81939fb769658ab66ba54ec390580a1a&#45;&gt;dir_dce1992b25bba7fd7b16c6d2c5c0da93</title>
<path fill="none" stroke="black" d="M1414.83,-378.5C1411.88,-377.54 1408.91,-376.68 1406,-376 1200.3,-327.79 1139.84,-377.92 932,-340 930.55,-339.74 929.08,-339.45 927.6,-339.14"/>
<polygon fill="black" stroke="black" points="928.32,-335.71 917.79,-336.88 926.75,-342.54 928.32,-335.71"/>
<g id="a_edge14&#45;headlabel"><a xlink:href="dir_000124_000145.html" target="_top" xlink:title="1">
<text text-anchor="middle" x="932.46" y="-331.25" font-family="Helvetica,sans-Serif" font-size="10.00">1</text>
</a>
</g>
</g>
<!-- dir_9c611c3127d47b544cf63143a10f0fa0 -->
<g id="node25" class="node">
<title>dir_9c611c3127d47b544cf63143a10f0fa0</title>
<g id="a_node25"><a xlink:href="dir_9c611c3127d47b544cf63143a10f0fa0.html" target="_top" xlink:title="Z2SoundStarter">
<polygon fill="white" stroke="black" points="421.5,-340 336.5,-340 336.5,-304 421.5,-304 421.5,-340"/>
<text text-anchor="middle" x="379" y="-319.5" font-family="Helvetica,sans-Serif" font-size="10.00">Z2SoundStarter</text>
</a>
</g>
</g>
<!-- dir_81939fb769658ab66ba54ec390580a1a&#45;&gt;dir_9c611c3127d47b544cf63143a10f0fa0 -->
<g id="edge13" class="edge">
<title>dir_81939fb769658ab66ba54ec390580a1a&#45;&gt;dir_9c611c3127d47b544cf63143a10f0fa0</title>
<path fill="none" stroke="black" d="M1414.86,-378.37C1411.9,-377.44 1408.92,-376.63 1406,-376 985.18,-285.97 859.79,-414.14 431.46,-339.71"/>
<polygon fill="black" stroke="black" points="432.06,-336.26 421.61,-337.97 430.85,-343.16 432.06,-336.26"/>
<g id="a_edge13&#45;headlabel"><a xlink:href="dir_000124_000146.html" target="_top" xlink:title="2">
<text text-anchor="middle" x="436.1" y="-331.59" font-family="Helvetica,sans-Serif" font-size="10.00">2</text>
</a>
</g>
</g>
<!-- dir_80c76d63fc1d463c9d0f2ae89a74025a -->
<g id="node26" class="node">
<title>dir_80c76d63fc1d463c9d0f2ae89a74025a</title>
<g id="a_node26"><a xlink:href="dir_80c76d63fc1d463c9d0f2ae89a74025a.html" target="_top" xlink:title="Z2SpeechMgr2">
<polygon fill="white" stroke="black" points="630.5,-340 547.5,-340 547.5,-304 630.5,-304 630.5,-340"/>
<text text-anchor="middle" x="589" y="-319.5" font-family="Helvetica,sans-Serif" font-size="10.00">Z2SpeechMgr2</text>
</a>
</g>
</g>
<!-- dir_81939fb769658ab66ba54ec390580a1a&#45;&gt;dir_80c76d63fc1d463c9d0f2ae89a74025a -->
<g id="edge11" class="edge">
<title>dir_81939fb769658ab66ba54ec390580a1a&#45;&gt;dir_80c76d63fc1d463c9d0f2ae89a74025a</title>
<path fill="none" stroke="black" d="M1414.85,-378.4C1411.9,-377.46 1408.92,-376.64 1406,-376 1076.33,-303.74 976.98,-400.55 640.53,-339.71"/>
<polygon fill="black" stroke="black" points="640.97,-336.24 630.5,-337.87 639.7,-343.12 640.97,-336.24"/>
<g id="a_edge11&#45;headlabel"><a xlink:href="dir_000124_000147.html" target="_top" xlink:title="1">
<text text-anchor="middle" x="645.02" y="-331.6" font-family="Helvetica,sans-Serif" font-size="10.00">1</text>
</a>
</g>
</g>
<!-- dir_991fb58ad2aadf0deb90639b55f3f24d -->
<g id="node28" class="node">
<title>dir_991fb58ad2aadf0deb90639b55f3f24d</title>
<g id="a_node28"><a xlink:href="dir_991fb58ad2aadf0deb90639b55f3f24d.html" target="_top" xlink:title="Z2StatusMgr">
<polygon fill="white" stroke="black" points="721.5,-340 648.5,-340 648.5,-304 721.5,-304 721.5,-340"/>
<text text-anchor="middle" x="685" y="-319.5" font-family="Helvetica,sans-Serif" font-size="10.00">Z2StatusMgr</text>
</a>
</g>
</g>
<!-- dir_81939fb769658ab66ba54ec390580a1a&#45;&gt;dir_991fb58ad2aadf0deb90639b55f3f24d -->
<g id="edge12" class="edge">
<title>dir_81939fb769658ab66ba54ec390580a1a&#45;&gt;dir_991fb58ad2aadf0deb90639b55f3f24d</title>
<path fill="none" stroke="black" d="M1414.85,-378.42C1411.89,-377.48 1408.92,-376.65 1406,-376 1116.04,-311.48 1027.21,-398.75 731.77,-339.71"/>
<polygon fill="black" stroke="black" points="732.12,-336.21 721.62,-337.64 730.72,-343.07 732.12,-336.21"/>
<g id="a_edge12&#45;headlabel"><a xlink:href="dir_000124_000149.html" target="_top" xlink:title="1">
<text text-anchor="middle" x="736.21" y="-331.64" font-family="Helvetica,sans-Serif" font-size="10.00">1</text>
</a>
</g>
</g>
<!-- dir_6a61f865cdaf1f62bf2b39ced161a64e -->
<g id="node4" class="node">
<title>dir_6a61f865cdaf1f62bf2b39ced161a64e</title>
<g id="a_node4"><a xlink:href="dir_6a61f865cdaf1f62bf2b39ced161a64e.html" target="_top" xlink:title="Z2Audible">
<polygon fill="white" stroke="black" points="1397,-412 1337,-412 1337,-376 1397,-376 1397,-412"/>
<text text-anchor="middle" x="1367" y="-391.5" font-family="Helvetica,sans-Serif" font-size="10.00">Z2Audible</text>
</a>
</g>
</g>
<!-- dir_eabcd55db0ce1183adc5d8ed90fd80d0 -->
<g id="node5" class="node">
<title>dir_eabcd55db0ce1183adc5d8ed90fd80d0</title>
<g id="a_node5"><a xlink:href="dir_eabcd55db0ce1183adc5d8ed90fd80d0.html" target="_top" xlink:title="Z2AudibleAbsPos">
<polygon fill="white" stroke="black" points="1318.5,-412 1223.5,-412 1223.5,-376 1318.5,-376 1318.5,-412"/>
<text text-anchor="middle" x="1271" y="-391.5" font-family="Helvetica,sans-Serif" font-size="10.00">Z2AudibleAbsPos</text>
</a>
</g>
</g>
<!-- dir_c57c61201292df597376977a104b98c7 -->
<g id="node6" class="node">
<title>dir_c57c61201292df597376977a104b98c7</title>
<g id="a_node6"><a xlink:href="dir_c57c61201292df597376977a104b98c7.html" target="_top" xlink:title="Z2AudibleChannel">
<polygon fill="white" stroke="black" points="1205.5,-412 1110.5,-412 1110.5,-376 1205.5,-376 1205.5,-412"/>
<text text-anchor="middle" x="1158" y="-391.5" font-family="Helvetica,sans-Serif" font-size="10.00">Z2AudibleChannel</text>
</a>
</g>
</g>
<!-- dir_47327333f42b3b91cbc39ce067145abe -->
<g id="node7" class="node">
<title>dir_47327333f42b3b91cbc39ce067145abe</title>
<g id="a_node7"><a xlink:href="dir_47327333f42b3b91cbc39ce067145abe.html" target="_top" xlink:title="Z2Audience">
<polygon fill="white" stroke="black" points="1092,-412 1024,-412 1024,-376 1092,-376 1092,-412"/>
<text text-anchor="middle" x="1058" y="-391.5" font-family="Helvetica,sans-Serif" font-size="10.00">Z2Audience</text>
</a>
</g>
</g>
<!-- dir_f8ef95ca6c3e10c6598964a08976958b -->
<g id="node8" class="node">
<title>dir_f8ef95ca6c3e10c6598964a08976958b</title>
<g id="a_node8"><a xlink:href="dir_f8ef95ca6c3e10c6598964a08976958b.html" target="_top" xlink:title="Z2AudioArcLoader">
<polygon fill="white" stroke="black" points="1006,-412 908,-412 908,-376 1006,-376 1006,-412"/>
<text text-anchor="middle" x="957" y="-391.5" font-family="Helvetica,sans-Serif" font-size="10.00">Z2AudioArcLoader</text>
</a>
</g>
</g>
<!-- dir_f8ef95ca6c3e10c6598964a08976958b&#45;&gt;dir_4f0979a7f5e3194619cde56505e372d8 -->
<g id="edge16" class="edge">
<title>dir_f8ef95ca6c3e10c6598964a08976958b&#45;&gt;dir_4f0979a7f5e3194619cde56505e372d8</title>
<path fill="none" stroke="black" d="M907.82,-377.74C904.85,-377.08 901.9,-376.49 899,-376 749.39,-350.48 356.72,-399.26 217,-340 181.43,-324.91 104.54,-244.87 66.4,-203.62"/>
<polygon fill="black" stroke="black" points="68.88,-201.14 59.53,-196.16 63.73,-205.88 68.88,-201.14"/>
<g id="a_edge16&#45;headlabel"><a xlink:href="dir_000129_000053.html" target="_top" xlink:title="2">
<text text-anchor="middle" x="73.4" y="-199.36" font-family="Helvetica,sans-Serif" font-size="10.00">2</text>
</a>
</g>
</g>
<!-- dir_f8ef95ca6c3e10c6598964a08976958b&#45;&gt;dir_b778c3f297ab88300258a2935792c8cc -->
<g id="edge17" class="edge">
<title>dir_f8ef95ca6c3e10c6598964a08976958b&#45;&gt;dir_b778c3f297ab88300258a2935792c8cc</title>
<path fill="none" stroke="black" d="M957,-375.95C957,-349.29 957,-296.11 957,-251 957,-251 957,-251 957,-177 957,-80.38 814.08,-48.69 744.36,-38.98"/>
<polygon fill="black" stroke="black" points="744.6,-35.48 734.23,-37.65 743.69,-42.42 744.6,-35.48"/>
<g id="a_edge17&#45;headlabel"><a xlink:href="dir_000129_000047.html" target="_top" xlink:title="1">
<text text-anchor="middle" x="748.53" y="-30.63" font-family="Helvetica,sans-Serif" font-size="10.00">1</text>
</a>
</g>
</g>
<!-- dir_dcabd5c595cfbd4b97df808a9dfb2fc7 -->
<g id="node9" class="node">
<title>dir_dcabd5c595cfbd4b97df808a9dfb2fc7</title>
<g id="a_node9"><a xlink:href="dir_dcabd5c595cfbd4b97df808a9dfb2fc7.html" target="_top" xlink:title="Z2AudioCamera">
<polygon fill="white" stroke="black" points="890,-412 804,-412 804,-376 890,-376 890,-412"/>
<text text-anchor="middle" x="847" y="-391.5" font-family="Helvetica,sans-Serif" font-size="10.00">Z2AudioCamera</text>
</a>
</g>
</g>
<!-- dir_ee104430afddb6d371c2e15645dec9b2&#45;&gt;dir_4f0979a7f5e3194619cde56505e372d8 -->
<g id="edge25" class="edge">
<title>dir_ee104430afddb6d371c2e15645dec9b2&#45;&gt;dir_4f0979a7f5e3194619cde56505e372d8</title>
<path fill="none" stroke="black" d="M439.49,-304.81C396.59,-285.22 320.74,-252.34 253,-232 179.27,-209.86 153.66,-222.01 81.26,-197.65"/>
<polygon fill="black" stroke="black" points="82.3,-194.31 71.71,-194.32 80,-200.92 82.3,-194.31"/>
<g id="a_edge25&#45;headlabel"><a xlink:href="dir_000131_000053.html" target="_top" xlink:title="2">
<text text-anchor="middle" x="86.63" y="-190.31" font-family="Helvetica,sans-Serif" font-size="10.00">2</text>
</a>
</g>
</g>
<!-- dir_ee104430afddb6d371c2e15645dec9b2&#45;&gt;dir_528b6e5b683902e115eef7331a6b8306 -->
<g id="edge26" class="edge">
<title>dir_ee104430afddb6d371c2e15645dec9b2&#45;&gt;dir_528b6e5b683902e115eef7331a6b8306</title>
<path fill="none" stroke="black" d="M474,-303.7C474,-295.98 474,-286.71 474,-278.11"/>
<polygon fill="black" stroke="black" points="477.5,-278.1 474,-268.1 470.5,-278.1 477.5,-278.1"/>
<g id="a_edge26&#45;headlabel"><a xlink:href="dir_000131_000138.html" target="_top" xlink:title="1">
<text text-anchor="middle" x="480.34" y="-279.2" font-family="Helvetica,sans-Serif" font-size="10.00">1</text>
</a>
</g>
</g>
<!-- dir_88efaa23f80ada7351e97a7a37a2852b -->
<g id="node11" class="node">
<title>dir_88efaa23f80ada7351e97a7a37a2852b</title>
<g id="a_node11"><a xlink:href="dir_88efaa23f80ada7351e97a7a37a2852b.html" target="_top" xlink:title="Z2Calc">
<polygon fill="white" stroke="black" points="328,-412 274,-412 274,-376 328,-376 328,-412"/>
<text text-anchor="middle" x="301" y="-391.5" font-family="Helvetica,sans-Serif" font-size="10.00">Z2Calc</text>
</a>
</g>
</g>
<!-- dir_88efaa23f80ada7351e97a7a37a2852b&#45;&gt;dir_4f0979a7f5e3194619cde56505e372d8 -->
<g id="edge5" class="edge">
<title>dir_88efaa23f80ada7351e97a7a37a2852b&#45;&gt;dir_4f0979a7f5e3194619cde56505e372d8</title>
<path fill="none" stroke="black" d="M273.77,-379.28C270.85,-378.07 267.89,-376.94 265,-376 184.55,-349.72 138.38,-399.31 78,-340 42.26,-304.9 39.53,-242.34 41.36,-206.41"/>
<polygon fill="black" stroke="black" points="44.87,-206.39 42.04,-196.18 37.88,-205.92 44.87,-206.39"/>
<g id="a_edge5&#45;headlabel"><a xlink:href="dir_000132_000053.html" target="_top" xlink:title="1">
<text text-anchor="middle" x="47.46" y="-207.66" font-family="Helvetica,sans-Serif" font-size="10.00">1</text>
</a>
</g>
</g>
<!-- dir_2eb90578ec0f7a4ade42c9b5edcee0c8 -->
<g id="node12" class="node">
<title>dir_2eb90578ec0f7a4ade42c9b5edcee0c8</title>
<g id="a_node12"><a xlink:href="dir_2eb90578ec0f7a4ade42c9b5edcee0c8.html" target="_top" xlink:title="Z2Creature">
<polygon fill="white" stroke="black" points="593.5,-268 528.5,-268 528.5,-232 593.5,-232 593.5,-268"/>
<text text-anchor="middle" x="561" y="-247.5" font-family="Helvetica,sans-Serif" font-size="10.00">Z2Creature</text>
</a>
</g>
</g>
<!-- dir_bf38d9df5ced2069cca5a02150a96b0c -->
<g id="node13" class="node">
<title>dir_bf38d9df5ced2069cca5a02150a96b0c</title>
<g id="a_node13"><a xlink:href="dir_bf38d9df5ced2069cca5a02150a96b0c.html" target="_top" xlink:title="Z2EnvSeMgr">
<polygon fill="white" stroke="black" points="683.5,-412 610.5,-412 610.5,-376 683.5,-376 683.5,-412"/>
<text text-anchor="middle" x="647" y="-391.5" font-family="Helvetica,sans-Serif" font-size="10.00">Z2EnvSeMgr</text>
</a>
</g>
</g>
<!-- dir_39a92876d37154ba23399a0b14bdf171 -->
<g id="node14" class="node">
<title>dir_39a92876d37154ba23399a0b14bdf171</title>
<g id="a_node14"><a xlink:href="dir_39a92876d37154ba23399a0b14bdf171.html" target="_top" xlink:title="Z2FxLineMgr">
<polygon fill="white" stroke="black" points="592,-412 518,-412 518,-376 592,-376 592,-412"/>
<text text-anchor="middle" x="555" y="-391.5" font-family="Helvetica,sans-Serif" font-size="10.00">Z2FxLineMgr</text>
</a>
</g>
</g>
<!-- dir_54d234a24a71d44b5f2eb31a43853161 -->
<g id="node15" class="node">
<title>dir_54d234a24a71d44b5f2eb31a43853161</title>
<g id="a_node15"><a xlink:href="dir_54d234a24a71d44b5f2eb31a43853161.html" target="_top" xlink:title="Z2LinkMgr">
<polygon fill="white" stroke="black" points="499.5,-412 436.5,-412 436.5,-376 499.5,-376 499.5,-412"/>
<text text-anchor="middle" x="468" y="-391.5" font-family="Helvetica,sans-Serif" font-size="10.00">Z2LinkMgr</text>
</a>
</g>
</g>
<!-- dir_54d234a24a71d44b5f2eb31a43853161&#45;&gt;dir_4f0979a7f5e3194619cde56505e372d8 -->
<g id="edge1" class="edge">
<title>dir_54d234a24a71d44b5f2eb31a43853161&#45;&gt;dir_4f0979a7f5e3194619cde56505e372d8</title>
<path fill="none" stroke="black" d="M436.06,-378.76C433.04,-377.71 429.98,-376.77 427,-376 357.28,-358.03 161.88,-384.14 105,-340 63.2,-307.56 50.04,-243 45.9,-206.25"/>
<polygon fill="black" stroke="black" points="49.38,-205.85 44.92,-196.24 42.41,-206.53 49.38,-205.85"/>
<g id="a_edge1&#45;headlabel"><a xlink:href="dir_000136_000053.html" target="_top" xlink:title="2">
<text text-anchor="middle" x="52.55" y="-206.65" font-family="Helvetica,sans-Serif" font-size="10.00">2</text>
</a>
</g>
</g>
<!-- dir_656d3930b5727a287b8d2169d2b7bc90 -->
<g id="node16" class="node">
<title>dir_656d3930b5727a287b8d2169d2b7bc90</title>
<g id="a_node16"><a xlink:href="dir_656d3930b5727a287b8d2169d2b7bc90.html" target="_top" xlink:title="Z2Param">
<polygon fill="white" stroke="black" points="668,-124 612,-124 612,-88 668,-88 668,-124"/>
<text text-anchor="middle" x="640" y="-103.5" font-family="Helvetica,sans-Serif" font-size="10.00">Z2Param</text>
</a>
</g>
</g>
<!-- dir_656d3930b5727a287b8d2169d2b7bc90&#45;&gt;dir_b778c3f297ab88300258a2935792c8cc -->
<g id="edge21" class="edge">
<title>dir_656d3930b5727a287b8d2169d2b7bc90&#45;&gt;dir_b778c3f297ab88300258a2935792c8cc</title>
<path fill="none" stroke="black" d="M656.56,-87.7C664.68,-79.22 674.59,-68.86 683.47,-59.58"/>
<polygon fill="black" stroke="black" points="686.24,-61.75 690.63,-52.1 681.19,-56.91 686.24,-61.75"/>
<g id="a_edge21&#45;headlabel"><a xlink:href="dir_000137_000047.html" target="_top" xlink:title="1">
<text text-anchor="middle" x="685.81" y="-63.81" font-family="Helvetica,sans-Serif" font-size="10.00">1</text>
</a>
</g>
</g>
<!-- dir_528b6e5b683902e115eef7331a6b8306&#45;&gt;dir_4f0979a7f5e3194619cde56505e372d8 -->
<g id="edge7" class="edge">
<title>dir_528b6e5b683902e115eef7331a6b8306&#45;&gt;dir_4f0979a7f5e3194619cde56505e372d8</title>
<path fill="none" stroke="black" d="M437.98,-233.12C436.64,-232.71 435.32,-232.34 434,-232 282.43,-193.13 231.24,-240.27 81.65,-197.45"/>
<polygon fill="black" stroke="black" points="82.23,-193.98 71.65,-194.5 80.25,-200.69 82.23,-193.98"/>
<g id="a_edge7&#45;headlabel"><a xlink:href="dir_000138_000053.html" target="_top" xlink:title="1">
<text text-anchor="middle" x="86.48" y="-189.77" font-family="Helvetica,sans-Serif" font-size="10.00">1</text>
</a>
</g>
</g>
<!-- dir_4cf8b6073458a11adc6a301f731b1088 -->
<g id="node19" class="node">
<title>dir_4cf8b6073458a11adc6a301f731b1088</title>
<g id="a_node19"><a xlink:href="dir_4cf8b6073458a11adc6a301f731b1088.html" target="_top" xlink:title="Z2SeqMgr">
<polygon fill="white" stroke="black" points="563,-196 501,-196 501,-160 563,-160 563,-196"/>
<text text-anchor="middle" x="532" y="-175.5" font-family="Helvetica,sans-Serif" font-size="10.00">Z2SeqMgr</text>
</a>
</g>
</g>
<!-- dir_528b6e5b683902e115eef7331a6b8306&#45;&gt;dir_4cf8b6073458a11adc6a301f731b1088 -->
<g id="edge6" class="edge">
<title>dir_528b6e5b683902e115eef7331a6b8306&#45;&gt;dir_4cf8b6073458a11adc6a301f731b1088</title>
<path fill="none" stroke="black" d="M488.34,-231.7C495.29,-223.3 503.77,-213.07 511.4,-203.86"/>
<polygon fill="black" stroke="black" points="514.14,-206.04 517.83,-196.1 508.75,-201.57 514.14,-206.04"/>
<g id="a_edge6&#45;headlabel"><a xlink:href="dir_000138_000140.html" target="_top" xlink:title="1">
<text text-anchor="middle" x="514.04" y="-208.12" font-family="Helvetica,sans-Serif" font-size="10.00">1</text>
</a>
</g>
</g>
<!-- dir_49cd2201c9383640ee9a700e6e8ef462&#45;&gt;dir_4f0979a7f5e3194619cde56505e372d8 -->
<g id="edge34" class="edge">
<title>dir_49cd2201c9383640ee9a700e6e8ef462&#45;&gt;dir_4f0979a7f5e3194619cde56505e372d8</title>
<path fill="none" stroke="black" d="M611.69,-234.76C608.81,-233.68 605.88,-232.73 603,-232 378.72,-174.86 303.86,-258.07 81.31,-197.27"/>
<polygon fill="black" stroke="black" points="82.21,-193.88 71.63,-194.56 80.32,-200.62 82.21,-193.88"/>
<g id="a_edge34&#45;headlabel"><a xlink:href="dir_000139_000053.html" target="_top" xlink:title="2">
<text text-anchor="middle" x="86.43" y="-189.62" font-family="Helvetica,sans-Serif" font-size="10.00">2</text>
</a>
</g>
</g>
<!-- dir_49cd2201c9383640ee9a700e6e8ef462&#45;&gt;dir_656d3930b5727a287b8d2169d2b7bc90 -->
<g id="edge35" class="edge">
<title>dir_49cd2201c9383640ee9a700e6e8ef462&#45;&gt;dir_656d3930b5727a287b8d2169d2b7bc90</title>
<path fill="none" stroke="black" d="M640,-231.87C640,-207.67 640,-163.21 640,-134.39"/>
<polygon fill="black" stroke="black" points="643.5,-134.19 640,-124.19 636.5,-134.19 643.5,-134.19"/>
<g id="a_edge35&#45;headlabel"><a xlink:href="dir_000139_000137.html" target="_top" xlink:title="1">
<text text-anchor="middle" x="646.34" y="-135.28" font-family="Helvetica,sans-Serif" font-size="10.00">1</text>
</a>
</g>
</g>
<!-- dir_49cd2201c9383640ee9a700e6e8ef462&#45;&gt;dir_4cf8b6073458a11adc6a301f731b1088 -->
<g id="edge33" class="edge">
<title>dir_49cd2201c9383640ee9a700e6e8ef462&#45;&gt;dir_4cf8b6073458a11adc6a301f731b1088</title>
<path fill="none" stroke="black" d="M613.58,-231.88C599.59,-222.81 582.22,-211.55 567.11,-201.76"/>
<polygon fill="black" stroke="black" points="568.82,-198.69 558.52,-196.19 565.01,-204.57 568.82,-198.69"/>
<g id="a_edge33&#45;headlabel"><a xlink:href="dir_000139_000140.html" target="_top" xlink:title="1">
<text text-anchor="middle" x="573.38" y="-195.76" font-family="Helvetica,sans-Serif" font-size="10.00">1</text>
</a>
</g>
</g>
<!-- dir_4cf8b6073458a11adc6a301f731b1088&#45;&gt;dir_4f0979a7f5e3194619cde56505e372d8 -->
<g id="edge22" class="edge">
<title>dir_4cf8b6073458a11adc6a301f731b1088&#45;&gt;dir_4f0979a7f5e3194619cde56505e372d8</title>
<path fill="none" stroke="black" d="M500.98,-178C361.22,-178 221.46,-178 81.7,-178"/>
<polygon fill="black" stroke="black" points="81.64,-174.5 71.64,-178 81.64,-181.5 81.64,-174.5"/>
<g id="a_edge22&#45;headlabel"><a xlink:href="dir_000140_000053.html" target="_top" xlink:title="2">
<text text-anchor="middle" x="85.24" y="-169.16" font-family="Helvetica,sans-Serif" font-size="10.00">2</text>
</a>
</g>
</g>
<!-- dir_4cf8b6073458a11adc6a301f731b1088&#45;&gt;dir_656d3930b5727a287b8d2169d2b7bc90 -->
<g id="edge23" class="edge">
<title>dir_4cf8b6073458a11adc6a301f731b1088&#45;&gt;dir_656d3930b5727a287b8d2169d2b7bc90</title>
<path fill="none" stroke="black" d="M558.42,-159.88C572.41,-150.81 589.78,-139.55 604.89,-129.76"/>
<polygon fill="black" stroke="black" points="606.99,-132.57 613.48,-124.19 603.18,-126.69 606.99,-132.57"/>
<g id="a_edge23&#45;headlabel"><a xlink:href="dir_000140_000137.html" target="_top" xlink:title="1">
<text text-anchor="middle" x="605.52" y="-134.4" font-family="Helvetica,sans-Serif" font-size="10.00">1</text>
</a>
</g>
</g>
<!-- dir_ece6d87a7862fa658c7e7b1124c72881 -->
<g id="node20" class="node">
<title>dir_ece6d87a7862fa658c7e7b1124c72881</title>
<g id="a_node20"><a xlink:href="dir_ece6d87a7862fa658c7e7b1124c72881.html" target="_top" xlink:title="Z2SoundHandles">
<polygon fill="white" stroke="black" points="318,-340 226,-340 226,-304 318,-304 318,-340"/>
<text text-anchor="middle" x="272" y="-319.5" font-family="Helvetica,sans-Serif" font-size="10.00">Z2SoundHandles</text>
</a>
</g>
</g>
<!-- dir_ece6d87a7862fa658c7e7b1124c72881&#45;&gt;dir_4f0979a7f5e3194619cde56505e372d8 -->
<g id="edge31" class="edge">
<title>dir_ece6d87a7862fa658c7e7b1124c72881&#45;&gt;dir_4f0979a7f5e3194619cde56505e372d8</title>
<path fill="none" stroke="black" d="M259.62,-303.83C244.4,-283.88 216.78,-251.27 186,-232 145.13,-206.41 125.81,-214.86 81.08,-197.88"/>
<polygon fill="black" stroke="black" points="82.37,-194.62 71.79,-194.12 79.75,-201.11 82.37,-194.62"/>
<g id="a_edge31&#45;headlabel"><a xlink:href="dir_000141_000053.html" target="_top" xlink:title="3">
<text text-anchor="middle" x="86.77" y="-190.83" font-family="Helvetica,sans-Serif" font-size="10.00">3</text>
</a>
</g>
</g>
<!-- dir_ece6d87a7862fa658c7e7b1124c72881&#45;&gt;dir_b778c3f297ab88300258a2935792c8cc -->
<g id="edge32" class="edge">
<title>dir_ece6d87a7862fa658c7e7b1124c72881&#45;&gt;dir_b778c3f297ab88300258a2935792c8cc</title>
<path fill="none" stroke="black" d="M318.27,-306.21C321.55,-305.39 324.81,-304.64 328,-304 404.43,-288.61 621.18,-322.43 677,-268 691.54,-253.83 701.61,-120.76 705.37,-62.31"/>
<polygon fill="black" stroke="black" points="708.86,-62.51 706,-52.31 701.88,-62.07 708.86,-62.51"/>
<g id="a_edge32&#45;headlabel"><a xlink:href="dir_000141_000047.html" target="_top" xlink:title="1">
<text text-anchor="middle" x="711.47" y="-63.77" font-family="Helvetica,sans-Serif" font-size="10.00">1</text>
</a>
</g>
</g>
<!-- dir_13e96dd48d75d75e1395ace75f5f5685&#45;&gt;dir_4f0979a7f5e3194619cde56505e372d8 -->
<g id="edge27" class="edge">
<title>dir_13e96dd48d75d75e1395ace75f5f5685&#45;&gt;dir_4f0979a7f5e3194619cde56505e372d8</title>
<path fill="none" stroke="black" d="M739.89,-306.48C736.91,-305.55 733.92,-304.7 731,-304 591.87,-270.45 546.57,-313.87 411,-268 381.54,-258.03 380.37,-242.23 351,-232 237.78,-192.55 195.73,-231.28 81.48,-197.47"/>
<polygon fill="black" stroke="black" points="82.25,-194.05 71.67,-194.45 80.19,-200.74 82.25,-194.05"/>
<g id="a_edge27&#45;headlabel"><a xlink:href="dir_000142_000053.html" target="_top" xlink:title="1">
<text text-anchor="middle" x="86.52" y="-189.9" font-family="Helvetica,sans-Serif" font-size="10.00">1</text>
</a>
</g>
</g>
<!-- dir_13e96dd48d75d75e1395ace75f5f5685&#45;&gt;dir_b778c3f297ab88300258a2935792c8cc -->
<g id="edge28" class="edge">
<title>dir_13e96dd48d75d75e1395ace75f5f5685&#45;&gt;dir_b778c3f297ab88300258a2935792c8cc</title>
<path fill="none" stroke="black" d="M771.89,-303.97C760.36,-256.19 727.66,-120.62 713.58,-62.27"/>
<polygon fill="black" stroke="black" points="716.92,-61.21 711.18,-52.31 710.12,-62.85 716.92,-61.21"/>
<g id="a_edge28&#45;headlabel"><a xlink:href="dir_000142_000047.html" target="_top" xlink:title="1">
<text text-anchor="middle" x="720.53" y="-61.54" font-family="Helvetica,sans-Serif" font-size="10.00">1</text>
</a>
</g>
</g>
<!-- dir_2e7254a6226bf72d715a7ce5d3dfbcb3 -->
<g id="node22" class="node">
<title>dir_2e7254a6226bf72d715a7ce5d3dfbcb3</title>
<g id="a_node22"><a xlink:href="dir_2e7254a6226bf72d715a7ce5d3dfbcb3.html" target="_top" xlink:title="Z2SoundMgr">
<polygon fill="white" stroke="black" points="418,-412 346,-412 346,-376 418,-376 418,-412"/>
<text text-anchor="middle" x="382" y="-391.5" font-family="Helvetica,sans-Serif" font-size="10.00">Z2SoundMgr</text>
</a>
</g>
</g>
<!-- dir_ae1246dc474cde6f2d6b9a824869d07e -->
<g id="node23" class="node">
<title>dir_ae1246dc474cde6f2d6b9a824869d07e</title>
<g id="a_node23"><a xlink:href="dir_ae1246dc474cde6f2d6b9a824869d07e.html" target="_top" xlink:title="Z2SoundObject">
<polygon fill="white" stroke="black" points="786,-412 702,-412 702,-376 786,-376 786,-412"/>
<text text-anchor="middle" x="744" y="-391.5" font-family="Helvetica,sans-Serif" font-size="10.00">Z2SoundObject</text>
</a>
</g>
</g>
<!-- dir_ae1246dc474cde6f2d6b9a824869d07e&#45;&gt;dir_4f0979a7f5e3194619cde56505e372d8 -->
<g id="edge2" class="edge">
<title>dir_ae1246dc474cde6f2d6b9a824869d07e&#45;&gt;dir_4f0979a7f5e3194619cde56505e372d8</title>
<path fill="none" stroke="black" d="M701.92,-378.06C698.92,-377.28 695.93,-376.58 693,-376 580.03,-353.61 278.32,-392.85 176,-340 118.22,-310.15 76.46,-242.73 56.74,-205.3"/>
<polygon fill="black" stroke="black" points="59.66,-203.33 51.98,-196.03 53.43,-206.52 59.66,-203.33"/>
<g id="a_edge2&#45;headlabel"><a xlink:href="dir_000144_000053.html" target="_top" xlink:title="1">
<text text-anchor="middle" x="63.83" y="-202.73" font-family="Helvetica,sans-Serif" font-size="10.00">1</text>
</a>
</g>
</g>
<!-- dir_ae1246dc474cde6f2d6b9a824869d07e&#45;&gt;dir_ece6d87a7862fa658c7e7b1124c72881 -->
<g id="edge4" class="edge">
<title>dir_ae1246dc474cde6f2d6b9a824869d07e&#45;&gt;dir_ece6d87a7862fa658c7e7b1124c72881</title>
<path fill="none" stroke="black" d="M701.9,-378.16C698.91,-377.36 695.92,-376.62 693,-376 536.84,-342.71 489.79,-370.63 328.55,-339.82"/>
<polygon fill="black" stroke="black" points="328.76,-336.3 318.27,-337.81 327.41,-343.17 328.76,-336.3"/>
<g id="a_edge4&#45;headlabel"><a xlink:href="dir_000144_000141.html" target="_top" xlink:title="1">
<text text-anchor="middle" x="332.83" y="-331.7" font-family="Helvetica,sans-Serif" font-size="10.00">1</text>
</a>
</g>
</g>
<!-- dir_ae1246dc474cde6f2d6b9a824869d07e&#45;&gt;dir_9c611c3127d47b544cf63143a10f0fa0 -->
<g id="edge3" class="edge">
<title>dir_ae1246dc474cde6f2d6b9a824869d07e&#45;&gt;dir_9c611c3127d47b544cf63143a10f0fa0</title>
<path fill="none" stroke="black" d="M701.87,-378.29C698.89,-377.45 695.91,-376.68 693,-376 581.66,-350.03 547.41,-365.47 431.64,-339.88"/>
<polygon fill="black" stroke="black" points="432.2,-336.42 421.68,-337.62 430.66,-343.25 432.2,-336.42"/>
<g id="a_edge3&#45;headlabel"><a xlink:href="dir_000144_000146.html" target="_top" xlink:title="1">
<text text-anchor="middle" x="436.34" y="-331.95" font-family="Helvetica,sans-Serif" font-size="10.00">1</text>
</a>
</g>
</g>
<!-- dir_dce1992b25bba7fd7b16c6d2c5c0da93&#45;&gt;dir_4f0979a7f5e3194619cde56505e372d8 -->
<g id="edge19" class="edge">
<title>dir_dce1992b25bba7fd7b16c6d2c5c0da93&#45;&gt;dir_4f0979a7f5e3194619cde56505e372d8</title>
<path fill="none" stroke="black" d="M830.24,-306.15C827.13,-305.35 824.03,-304.62 821,-304 649.57,-269.07 590.53,-335.21 429,-268 405.99,-258.42 408.9,-241.85 386,-232 261.7,-178.52 210.92,-234.39 81.52,-197.43"/>
<polygon fill="black" stroke="black" points="82.24,-193.99 71.66,-194.47 80.23,-200.69 82.24,-193.99"/>
<g id="a_edge19&#45;headlabel"><a xlink:href="dir_000145_000053.html" target="_top" xlink:title="1">
<text text-anchor="middle" x="86.5" y="-189.8" font-family="Helvetica,sans-Serif" font-size="10.00">1</text>
</a>
</g>
</g>
<!-- dir_dce1992b25bba7fd7b16c6d2c5c0da93&#45;&gt;dir_b778c3f297ab88300258a2935792c8cc -->
<g id="edge20" class="edge">
<title>dir_dce1992b25bba7fd7b16c6d2c5c0da93&#45;&gt;dir_b778c3f297ab88300258a2935792c8cc</title>
<path fill="none" stroke="black" d="M864.05,-303.97C835.98,-255.89 756.01,-118.93 722.29,-61.19"/>
<polygon fill="black" stroke="black" points="725.17,-59.18 717.11,-52.31 719.13,-62.71 725.17,-59.18"/>
<g id="a_edge20&#45;headlabel"><a xlink:href="dir_000145_000047.html" target="_top" xlink:title="1">
<text text-anchor="middle" x="729.43" y="-58.35" font-family="Helvetica,sans-Serif" font-size="10.00">1</text>
</a>
</g>
</g>
<!-- dir_dce1992b25bba7fd7b16c6d2c5c0da93&#45;&gt;dir_2eb90578ec0f7a4ade42c9b5edcee0c8 -->
<g id="edge18" class="edge">
<title>dir_dce1992b25bba7fd7b16c6d2c5c0da93&#45;&gt;dir_2eb90578ec0f7a4ade42c9b5edcee0c8</title>
<path fill="none" stroke="black" d="M830.47,-306.48C827.28,-305.59 824.1,-304.75 821,-304 728.62,-281.68 699.41,-293.74 603.58,-267.79"/>
<polygon fill="black" stroke="black" points="604.35,-264.37 593.78,-265.07 602.47,-271.11 604.35,-264.37"/>
<g id="a_edge18&#45;headlabel"><a xlink:href="dir_000145_000133.html" target="_top" xlink:title="1">
<text text-anchor="middle" x="608.57" y="-260.1" font-family="Helvetica,sans-Serif" font-size="10.00">1</text>
</a>
</g>
</g>
<!-- dir_9c611c3127d47b544cf63143a10f0fa0&#45;&gt;dir_4f0979a7f5e3194619cde56505e372d8 -->
<g id="edge24" class="edge">
<title>dir_9c611c3127d47b544cf63143a10f0fa0&#45;&gt;dir_4f0979a7f5e3194619cde56505e372d8</title>
<path fill="none" stroke="black" d="M351.39,-303.86C318.84,-284.25 262.62,-252.25 211,-232 156.24,-210.52 135.95,-217.81 81.22,-197.82"/>
<polygon fill="black" stroke="black" points="82.34,-194.5 71.75,-194.22 79.85,-201.05 82.34,-194.5"/>
<g id="a_edge24&#45;headlabel"><a xlink:href="dir_000146_000053.html" target="_top" xlink:title="2">
<text text-anchor="middle" x="86.71" y="-190.63" font-family="Helvetica,sans-Serif" font-size="10.00">2</text>
</a>
</g>
</g>
<!-- dir_80c76d63fc1d463c9d0f2ae89a74025a&#45;&gt;dir_4f0979a7f5e3194619cde56505e372d8 -->
<g id="edge29" class="edge">
<title>dir_80c76d63fc1d463c9d0f2ae89a74025a&#45;&gt;dir_4f0979a7f5e3194619cde56505e372d8</title>
<path fill="none" stroke="black" d="M547.31,-311.01C497.01,-298.81 415.52,-278.49 386,-268 349.64,-255.08 343.96,-243.07 307,-232 210.67,-203.14 176.77,-227.17 81.41,-197.55"/>
<polygon fill="black" stroke="black" points="82.27,-194.15 71.68,-194.4 80.12,-200.81 82.27,-194.15"/>
<g id="a_edge29&#45;headlabel"><a xlink:href="dir_000147_000053.html" target="_top" xlink:title="2">
<text text-anchor="middle" x="86.56" y="-190.05" font-family="Helvetica,sans-Serif" font-size="10.00">2</text>
</a>
</g>
</g>
<!-- dir_80c76d63fc1d463c9d0f2ae89a74025a&#45;&gt;dir_b778c3f297ab88300258a2935792c8cc -->
<g id="edge30" class="edge">
<title>dir_80c76d63fc1d463c9d0f2ae89a74025a&#45;&gt;dir_b778c3f297ab88300258a2935792c8cc</title>
<path fill="none" stroke="black" d="M630.74,-304.52C655.91,-293.68 684.51,-279.44 692,-268 713.72,-234.85 711.01,-116.41 708.52,-62.31"/>
<polygon fill="black" stroke="black" points="712,-61.91 708.02,-52.09 705.01,-62.25 712,-61.91"/>
<g id="a_edge30&#45;headlabel"><a xlink:href="dir_000147_000047.html" target="_top" xlink:title="1">
<text text-anchor="middle" x="715.02" y="-62.86" font-family="Helvetica,sans-Serif" font-size="10.00">1</text>
</a>
</g>
</g>
<!-- dir_9c2210c8a8dc9d7e88794bf04a15d8a8 -->
<g id="node27" class="node">
<title>dir_9c2210c8a8dc9d7e88794bf04a15d8a8</title>
<g id="a_node27"><a xlink:href="dir_9c2210c8a8dc9d7e88794bf04a15d8a8.html" target="_top" xlink:title="Z2SpotMic">
<polygon fill="white" stroke="black" points="256,-412 192,-412 192,-376 256,-376 256,-412"/>
<text text-anchor="middle" x="224" y="-391.5" font-family="Helvetica,sans-Serif" font-size="10.00">Z2SpotMic</text>
</a>
</g>
</g>
<!-- dir_2e600ac1223e5734a46d49aa2faf0d99 -->
<g id="node29" class="node">
<title>dir_2e600ac1223e5734a46d49aa2faf0d99</title>
<g id="a_node29"><a xlink:href="dir_2e600ac1223e5734a46d49aa2faf0d99.html" target="_top" xlink:title="Z2WolfHowlMgr">
<polygon fill="white" stroke="black" points="174,-412 88,-412 88,-376 174,-376 174,-412"/>
<text text-anchor="middle" x="131" y="-391.5" font-family="Helvetica,sans-Serif" font-size="10.00">Z2WolfHowlMgr</text>
</a>
</g>
</g>
</g>
</svg>
        <g id="navigator" transform="translate(0 0)" fill="#404254">
                <rect fill="#f2f5e9" fill-opacity="0.5" stroke="#606060" stroke-width=".5" x="0" y="0" width="60" height="60"/>
                <use id="zoomplus" xlink:href="#zoomPlus" x="17" y="9" onmousedown="handleZoom(evt,'in')"/>
                <use id="zoomminus" xlink:href="#zoomMin" x="42" y="9" onmousedown="handleZoom(evt,'out')"/>
                <use id="reset" xlink:href="#resetDef" x="30" y="36" onmousedown="handleReset()"/>
                <g id="arrowUp" xlink:href="#dirArrow" transform="translate(30 24)" onmousedown="handlePan(0,-1)">
                  <use xlink:href="#rim" fill="#404040">
                        <set attributeName="fill" to="#808080" begin="arrowUp.mouseover" end="arrowUp.mouseout"/>
                  </use>
                  <path fill="none" stroke="white" stroke-width="1.5" d="M0,-3.0v7 M-2.5,-0.5L0,-3.0L2.5,-0.5"/>
                </g>
                <g id="arrowRight" xlink:href="#dirArrow" transform="rotate(90) translate(36 -43)" onmousedown="handlePan(1,0)">
                  <use xlink:href="#rim" fill="#404040">
                        <set attributeName="fill" to="#808080" begin="arrowRight.mouseover" end="arrowRight.mouseout"/>
                  </use>
                  <path fill="none" stroke="white" stroke-width="1.5" d="M0,-3.0v7 M-2.5,-0.5L0,-3.0L2.5,-0.5"/>
                </g>
                <g id="arrowDown" xlink:href="#dirArrow" transform="rotate(180) translate(-30 -48)" onmousedown="handlePan(0,1)">
                  <use xlink:href="#rim" fill="#404040">
                        <set attributeName="fill" to="#808080" begin="arrowDown.mouseover" end="arrowDown.mouseout"/>
                  </use>
                  <path fill="none" stroke="white" stroke-width="1.5" d="M0,-3.0v7 M-2.5,-0.5L0,-3.0L2.5,-0.5"/>
                </g>
                <g id="arrowLeft" xlink:href="#dirArrow" transform="rotate(270) translate(-36 17)" onmousedown="handlePan(-1,0)">
                  <use xlink:href="#rim" fill="#404040">
                        <set attributeName="fill" to="#808080" begin="arrowLeft.mouseover" end="arrowLeft.mouseout"/>
                  </use>
                  <path fill="none" stroke="white" stroke-width="1.5" d="M0,-3.0v7 M-2.5,-0.5L0,-3.0L2.5,-0.5"/>
                </g>
        </g>
        <svg viewBox="0 0 15 15" width="100%" height="30px" preserveAspectRatio="xMaxYMin meet">
         <g id="arrow_out" transform="scale(0.3 0.3)">
          <a xlink:href="dir_81939fb769658ab66ba54ec390580a1a_dep_org.svg" target="_base">
           <rect id="button" ry="5" rx="5" y="6" x="6" height="38" width="38"
                fill="#f2f5e9" fill-opacity="0.5" stroke="#606060" stroke-width="1.0"/>
           <path id="arrow"
             d="M 11.500037,31.436501 C 11.940474,20.09759 22.043105,11.32322 32.158766,21.979434 L 37.068811,17.246167 C 37.068811,17.246167 37.088388,32 37.088388,32 L 22.160133,31.978069 C 22.160133,31.978069 26.997745,27.140456 26.997745,27.140456 C 18.528582,18.264221 13.291696,25.230495 11.500037,31.436501 z"
             style="fill:#404040;"/>
          </a>
         </g>
        </svg>
</svg>
