<?xml version="1.0" encoding="UTF-8" standalone="no"?>
<!DOCTYPE svg PUBLIC "-//W3C//DTD SVG 1.1//EN"
 "http://www.w3.org/Graphics/SVG/1.1/DTD/svg11.dtd">
<!-- Generated by graphviz version 2.46.0 (20210122.1329)
 -->
<!-- Title: include/d/d_cc/d_cc_mass_s Pages: 1 -->
<svg width="118pt" height="151pt"
 viewBox="0.00 0.00 118.00 151.00" xmlns="http://www.w3.org/2000/svg" xmlns:xlink="http://www.w3.org/1999/xlink">
<g id="graph0" class="graph" transform="scale(1 1) rotate(0) translate(4 147)">
<title>include/d/d_cc/d_cc_mass_s</title>
<polygon fill="white" stroke="transparent" points="-4,4 -4,-147 114,-147 114,4 -4,4"/>
<g id="clust1" class="cluster">
<title>clusterdir_d8f68de767d13f502dffa2cd27f1ff82</title>
<g id="a_clust1"><a xlink:href="dir_d8f68de767d13f502dffa2cd27f1ff82.html" target="_top" xlink:title="d_cc">
<polygon fill="#ddddee" stroke="black" points="8,-64 8,-135 102,-135 102,-64 8,-64"/>
<text text-anchor="middle" x="55" y="-123" font-family="Helvetica,sans-Serif" font-size="10.00">d_cc</text>
</a>
</g>
</g>
<!-- dir_9a1390ef2a13020b0a91b7000b12656a -->
<g id="node1" class="node">
<title>dir_9a1390ef2a13020b0a91b7000b12656a</title>
<g id="a_node1"><a xlink:href="dir_9a1390ef2a13020b0a91b7000b12656a.html" target="_top" xlink:title="d_cc_mass_s">
<polygon fill="#eeeeff" stroke="black" points="93.5,-108 16.5,-108 16.5,-72 93.5,-72 93.5,-108"/>
<text text-anchor="middle" x="55" y="-87.5" font-family="Helvetica,sans-Serif" font-size="10.00">d_cc_mass_s</text>
</a>
</g>
</g>
<!-- dir_76ec03b56887a0e8201bcb48abf48018 -->
<g id="node2" class="node">
<title>dir_76ec03b56887a0e8201bcb48abf48018</title>
<g id="a_node2"><a xlink:href="dir_76ec03b56887a0e8201bcb48abf48018.html" target="_top" xlink:title="SComponent">
<polygon fill="white" stroke="red" points="91.5,-36 18.5,-36 18.5,0 91.5,0 91.5,-36"/>
<text text-anchor="middle" x="55" y="-15.5" font-family="Helvetica,sans-Serif" font-size="10.00">SComponent</text>
</a>
</g>
</g>
<!-- dir_9a1390ef2a13020b0a91b7000b12656a&#45;&gt;dir_76ec03b56887a0e8201bcb48abf48018 -->
<g id="edge1" class="edge">
<title>dir_9a1390ef2a13020b0a91b7000b12656a&#45;&gt;dir_76ec03b56887a0e8201bcb48abf48018</title>
<path fill="none" stroke="black" d="M55,-71.7C55,-63.98 55,-54.71 55,-46.11"/>
<polygon fill="black" stroke="black" points="58.5,-46.1 55,-36.1 51.5,-46.1 58.5,-46.1"/>
<g id="a_edge1&#45;headlabel"><a xlink:href="dir_000017_000119.html" target="_top" xlink:title="1">
<text text-anchor="middle" x="61.34" y="-47.2" font-family="Helvetica,sans-Serif" font-size="10.00">1</text>
</a>
</g>
</g>
</g>
</svg>
