<?xml version="1.0" encoding="UTF-8" standalone="no"?>
<!DOCTYPE svg PUBLIC "-//W3C//DTD SVG 1.1//EN"
 "http://www.w3.org/Graphics/SVG/1.1/DTD/svg11.dtd">
<!-- Generated by graphviz version 2.46.1 (20210215.1649)
 -->
<!-- Title: include/f Pages: 1 -->
<svg width="404pt" height="311pt"
 viewBox="0.00 0.00 403.60 311.00" xmlns="http://www.w3.org/2000/svg" xmlns:xlink="http://www.w3.org/1999/xlink">
<g id="graph0" class="graph" transform="scale(1 1) rotate(0) translate(4 307)">
<title>include/f</title>
<polygon fill="white" stroke="transparent" points="-4,4 -4,-307 399.6,-307 399.6,4 -4,4"/>
<g id="clust1" class="cluster">
<title>clusterdir_d44c64559bbebec7f509842c48db8b23</title>
<g id="a_clust1"><a xlink:href="dir_d44c64559bbebec7f509842c48db8b23.html" target="_top" xlink:title="include">
<polygon fill="#ddddee" stroke="black" points="8,-8 8,-295 386,-295 386,-8 8,-8"/>
<text text-anchor="middle" x="197" y="-283" font-family="Helvetica,sans-Serif" font-size="10.00">include</text>
</a>
</g>
</g>
<g id="clust2" class="cluster">
<title>clusterdir_33eed416d00e84841337708fc7e11b48</title>
<g id="a_clust2"><a xlink:href="dir_33eed416d00e84841337708fc7e11b48.html" target="_top">
<polygon fill="#eeeeff" stroke="black" points="140,-80 140,-204 366,-204 366,-80 140,-80"/>
</a>
</g>
</g>
<!-- dir_b778c3f297ab88300258a2935792c8cc -->
<g id="node1" class="node">
<title>dir_b778c3f297ab88300258a2935792c8cc</title>
<g id="a_node1"><a xlink:href="dir_b778c3f297ab88300258a2935792c8cc.html" target="_top" xlink:title="dolphin">
<polygon fill="none" stroke="black" points="248,-52 194,-52 194,-16 248,-16 248,-52"/>
<text text-anchor="middle" x="221" y="-31.5" font-family="Helvetica,sans-Serif" font-size="10.00">dolphin</text>
</a>
</g>
</g>
<!-- dir_4f0979a7f5e3194619cde56505e372d8 -->
<g id="node2" class="node">
<title>dir_4f0979a7f5e3194619cde56505e372d8</title>
<g id="a_node2"><a xlink:href="dir_4f0979a7f5e3194619cde56505e372d8.html" target="_top" xlink:title="JSystem">
<polygon fill="white" stroke="red" points="129.5,-124 74.5,-124 74.5,-88 129.5,-88 129.5,-124"/>
<text text-anchor="middle" x="102" y="-103.5" font-family="Helvetica,sans-Serif" font-size="10.00">JSystem</text>
</a>
</g>
</g>
<!-- dir_4f0979a7f5e3194619cde56505e372d8&#45;&gt;dir_b778c3f297ab88300258a2935792c8cc -->
<g id="edge16" class="edge">
<title>dir_4f0979a7f5e3194619cde56505e372d8&#45;&gt;dir_b778c3f297ab88300258a2935792c8cc</title>
<path fill="none" stroke="black" d="M124.35,-87.85C128.17,-85.13 132.15,-82.41 136,-80 151.46,-70.3 169.22,-60.68 184.49,-52.84"/>
<polygon fill="black" stroke="black" points="186.3,-55.84 193.63,-48.2 183.13,-49.6 186.3,-55.84"/>
<g id="a_edge16&#45;headlabel"><a xlink:href="dir_000054_000047.html" target="_top" xlink:title="50">
<text text-anchor="middle" x="184.37" y="-57.5" font-family="Helvetica,sans-Serif" font-size="10.00">50</text>
</a>
</g>
</g>
<!-- dir_76ec03b56887a0e8201bcb48abf48018 -->
<g id="node3" class="node">
<title>dir_76ec03b56887a0e8201bcb48abf48018</title>
<g id="a_node3"><a xlink:href="dir_76ec03b56887a0e8201bcb48abf48018.html" target="_top" xlink:title="SComponent">
<polygon fill="white" stroke="red" points="89.5,-196 16.5,-196 16.5,-160 89.5,-160 89.5,-196"/>
<text text-anchor="middle" x="53" y="-175.5" font-family="Helvetica,sans-Serif" font-size="10.00">SComponent</text>
</a>
</g>
</g>
<!-- dir_76ec03b56887a0e8201bcb48abf48018&#45;&gt;dir_b778c3f297ab88300258a2935792c8cc -->
<g id="edge9" class="edge">
<title>dir_76ec03b56887a0e8201bcb48abf48018&#45;&gt;dir_b778c3f297ab88300258a2935792c8cc</title>
<path fill="none" stroke="black" d="M50.12,-159.68C47.62,-138.32 46.93,-102.15 66,-80 95.12,-46.18 148,-37.02 183.81,-34.93"/>
<polygon fill="black" stroke="black" points="184.03,-38.43 193.88,-34.5 183.74,-31.43 184.03,-38.43"/>
<g id="a_edge9&#45;headlabel"><a xlink:href="dir_000123_000047.html" target="_top" xlink:title="2">
<text text-anchor="middle" x="180.56" y="-38.92" font-family="Helvetica,sans-Serif" font-size="10.00">2</text>
</a>
</g>
</g>
<!-- dir_76ec03b56887a0e8201bcb48abf48018&#45;&gt;dir_4f0979a7f5e3194619cde56505e372d8 -->
<g id="edge8" class="edge">
<title>dir_76ec03b56887a0e8201bcb48abf48018&#45;&gt;dir_4f0979a7f5e3194619cde56505e372d8</title>
<path fill="none" stroke="black" d="M65.11,-159.7C70.87,-151.47 77.86,-141.48 84.21,-132.42"/>
<polygon fill="black" stroke="black" points="87.16,-134.3 90.03,-124.1 81.42,-130.29 87.16,-134.3"/>
<g id="a_edge8&#45;headlabel"><a xlink:href="dir_000123_000054.html" target="_top" xlink:title="1">
<text text-anchor="middle" x="87.42" y="-136.38" font-family="Helvetica,sans-Serif" font-size="10.00">1</text>
</a>
</g>
</g>
<!-- dir_33eed416d00e84841337708fc7e11b48 -->
<g id="node5" class="node">
<title>dir_33eed416d00e84841337708fc7e11b48</title>
<text text-anchor="middle" x="247" y="-175.5" font-family="Helvetica,sans-Serif" font-size="10.00">f</text>
</g>
<!-- dir_76ec03b56887a0e8201bcb48abf48018&#45;&gt;dir_33eed416d00e84841337708fc7e11b48 -->
<g id="edge7" class="edge">
<title>dir_76ec03b56887a0e8201bcb48abf48018&#45;&gt;dir_33eed416d00e84841337708fc7e11b48</title>
<path fill="none" stroke="black" d="M81.55,-196.14C111.94,-213.06 161.19,-233.52 202,-218 210.43,-214.8 218.28,-209.21 225,-203.21"/>
<polygon fill="black" stroke="black" points="227.59,-205.58 232.32,-196.1 222.71,-200.56 227.59,-205.58"/>
<g id="a_edge7&#45;headlabel"><a xlink:href="dir_000123_000049.html" target="_top" xlink:title="1">
<text text-anchor="middle" x="226.99" y="-207.62" font-family="Helvetica,sans-Serif" font-size="10.00">1</text>
</a>
</g>
</g>
<!-- dir_240ab0ee7b26e6185d01a5528f19cc96 -->
<g id="node8" class="node">
<title>dir_240ab0ee7b26e6185d01a5528f19cc96</title>
<g id="a_node8"><a xlink:href="dir_240ab0ee7b26e6185d01a5528f19cc96.html" target="_top" xlink:title="f_pc">
<polygon fill="white" stroke="black" points="202,-124 148,-124 148,-88 202,-88 202,-124"/>
<text text-anchor="middle" x="175" y="-103.5" font-family="Helvetica,sans-Serif" font-size="10.00">f_pc</text>
</a>
</g>
</g>
<!-- dir_76ec03b56887a0e8201bcb48abf48018&#45;&gt;dir_240ab0ee7b26e6185d01a5528f19cc96 -->
<g id="edge6" class="edge">
<title>dir_76ec03b56887a0e8201bcb48abf48018&#45;&gt;dir_240ab0ee7b26e6185d01a5528f19cc96</title>
<path fill="none" stroke="black" d="M88.74,-159.88C105.65,-150.72 125.64,-139.34 142.16,-129.48"/>
<polygon fill="black" stroke="black" points="144.19,-132.35 150.94,-124.19 140.57,-126.36 144.19,-132.35"/>
<g id="a_edge6&#45;headlabel"><a xlink:href="dir_000123_000052.html" target="_top" xlink:title="1">
<text text-anchor="middle" x="142.58" y="-134.14" font-family="Helvetica,sans-Serif" font-size="10.00">1</text>
</a>
</g>
</g>
<!-- dir_cc3ad1aed4be3f446fdd7af78322f5bf -->
<g id="node4" class="node">
<title>dir_cc3ad1aed4be3f446fdd7af78322f5bf</title>
<g id="a_node4"><a xlink:href="dir_cc3ad1aed4be3f446fdd7af78322f5bf.html" target="_top" xlink:title="d">
<polygon fill="white" stroke="red" points="156,-268 102,-268 102,-232 156,-232 156,-268"/>
<text text-anchor="middle" x="129" y="-247.5" font-family="Helvetica,sans-Serif" font-size="10.00">d</text>
</a>
</g>
</g>
<!-- dir_cc3ad1aed4be3f446fdd7af78322f5bf&#45;&gt;dir_b778c3f297ab88300258a2935792c8cc -->
<g id="edge15" class="edge">
<title>dir_cc3ad1aed4be3f446fdd7af78322f5bf&#45;&gt;dir_b778c3f297ab88300258a2935792c8cc</title>
<path fill="none" stroke="black" d="M156.36,-248.11C213.63,-245.61 343.08,-236.42 370,-204 405.21,-161.6 402.86,-124.25 370,-80 344.52,-45.69 293.66,-36.6 258.5,-34.66"/>
<polygon fill="black" stroke="black" points="258.27,-31.15 248.14,-34.27 258,-38.14 258.27,-31.15"/>
<g id="a_edge15&#45;headlabel"><a xlink:href="dir_000004_000047.html" target="_top" xlink:title="10">
<text text-anchor="middle" x="261.97" y="-25.95" font-family="Helvetica,sans-Serif" font-size="10.00">10</text>
</a>
</g>
</g>
<!-- dir_cc3ad1aed4be3f446fdd7af78322f5bf&#45;&gt;dir_4f0979a7f5e3194619cde56505e372d8 -->
<g id="edge12" class="edge">
<title>dir_cc3ad1aed4be3f446fdd7af78322f5bf&#45;&gt;dir_4f0979a7f5e3194619cde56505e372d8</title>
<path fill="none" stroke="black" d="M125.74,-231.87C121.14,-207.67 112.69,-163.21 107.21,-134.39"/>
<polygon fill="black" stroke="black" points="110.57,-133.36 105.27,-124.19 103.7,-134.67 110.57,-133.36"/>
<g id="a_edge12&#45;headlabel"><a xlink:href="dir_000004_000054.html" target="_top" xlink:title="17">
<text text-anchor="middle" x="114.04" y="-133.86" font-family="Helvetica,sans-Serif" font-size="10.00">17</text>
</a>
</g>
</g>
<!-- dir_cc3ad1aed4be3f446fdd7af78322f5bf&#45;&gt;dir_76ec03b56887a0e8201bcb48abf48018 -->
<g id="edge13" class="edge">
<title>dir_cc3ad1aed4be3f446fdd7af78322f5bf&#45;&gt;dir_76ec03b56887a0e8201bcb48abf48018</title>
<path fill="none" stroke="black" d="M110.21,-231.7C100.83,-223.05 89.32,-212.45 79.09,-203.03"/>
<polygon fill="black" stroke="black" points="81.3,-200.3 71.57,-196.1 76.55,-205.45 81.3,-200.3"/>
<g id="a_edge13&#45;headlabel"><a xlink:href="dir_000004_000123.html" target="_top" xlink:title="12">
<text text-anchor="middle" x="85.86" y="-198.15" font-family="Helvetica,sans-Serif" font-size="10.00">12</text>
</a>
</g>
</g>
<!-- dir_6211f66a236c7493ac6590a5658cd8e8 -->
<g id="node7" class="node">
<title>dir_6211f66a236c7493ac6590a5658cd8e8</title>
<g id="a_node7"><a xlink:href="dir_6211f66a236c7493ac6590a5658cd8e8.html" target="_top" xlink:title="f_op">
<polygon fill="white" stroke="black" points="202,-196 148,-196 148,-160 202,-160 202,-196"/>
<text text-anchor="middle" x="175" y="-175.5" font-family="Helvetica,sans-Serif" font-size="10.00">f_op</text>
</a>
</g>
</g>
<!-- dir_cc3ad1aed4be3f446fdd7af78322f5bf&#45;&gt;dir_6211f66a236c7493ac6590a5658cd8e8 -->
<g id="edge14" class="edge">
<title>dir_cc3ad1aed4be3f446fdd7af78322f5bf&#45;&gt;dir_6211f66a236c7493ac6590a5658cd8e8</title>
<path fill="none" stroke="black" d="M140.37,-231.7C145.72,-223.56 152.2,-213.69 158.11,-204.7"/>
<polygon fill="black" stroke="black" points="161.19,-206.38 163.76,-196.1 155.34,-202.54 161.19,-206.38"/>
<g id="a_edge14&#45;headlabel"><a xlink:href="dir_000004_000051.html" target="_top" xlink:title="4">
<text text-anchor="middle" x="161.59" y="-208.45" font-family="Helvetica,sans-Serif" font-size="10.00">4</text>
</a>
</g>
</g>
<!-- dir_d505c2689818dc668ba427e9fa694a14 -->
<g id="node6" class="node">
<title>dir_d505c2689818dc668ba427e9fa694a14</title>
<g id="a_node6"><a xlink:href="dir_d505c2689818dc668ba427e9fa694a14.html" target="_top" xlink:title="f_ap_game">
<polygon fill="white" stroke="black" points="357.5,-196 292.5,-196 292.5,-160 357.5,-160 357.5,-196"/>
<text text-anchor="middle" x="325" y="-175.5" font-family="Helvetica,sans-Serif" font-size="10.00">f_ap_game</text>
</a>
</g>
</g>
<!-- dir_d505c2689818dc668ba427e9fa694a14&#45;&gt;dir_b778c3f297ab88300258a2935792c8cc -->
<g id="edge5" class="edge">
<title>dir_d505c2689818dc668ba427e9fa694a14&#45;&gt;dir_b778c3f297ab88300258a2935792c8cc</title>
<path fill="none" stroke="black" d="M312.46,-159.87C294.34,-135.14 260.73,-89.24 239.68,-60.51"/>
<polygon fill="black" stroke="black" points="242.32,-58.19 233.59,-52.19 236.67,-62.33 242.32,-58.19"/>
<g id="a_edge5&#45;headlabel"><a xlink:href="dir_000050_000047.html" target="_top" xlink:title="1">
<text text-anchor="middle" x="246.74" y="-56.91" font-family="Helvetica,sans-Serif" font-size="10.00">1</text>
</a>
</g>
</g>
<!-- dir_6211f66a236c7493ac6590a5658cd8e8&#45;&gt;dir_b778c3f297ab88300258a2935792c8cc -->
<g id="edge4" class="edge">
<title>dir_6211f66a236c7493ac6590a5658cd8e8&#45;&gt;dir_b778c3f297ab88300258a2935792c8cc</title>
<path fill="none" stroke="black" d="M190.03,-159.58C197.62,-149.78 206.22,-136.94 211,-124 218.32,-104.22 220.69,-80.42 221.3,-62.41"/>
<polygon fill="black" stroke="black" points="224.8,-62.35 221.48,-52.29 217.8,-62.23 224.8,-62.35"/>
<g id="a_edge4&#45;headlabel"><a xlink:href="dir_000051_000047.html" target="_top" xlink:title="3">
<text text-anchor="middle" x="227.57" y="-63.5" font-family="Helvetica,sans-Serif" font-size="10.00">3</text>
</a>
</g>
</g>
<!-- dir_6211f66a236c7493ac6590a5658cd8e8&#45;&gt;dir_4f0979a7f5e3194619cde56505e372d8 -->
<g id="edge2" class="edge">
<title>dir_6211f66a236c7493ac6590a5658cd8e8&#45;&gt;dir_4f0979a7f5e3194619cde56505e372d8</title>
<path fill="none" stroke="black" d="M156.96,-159.7C147.94,-151.05 136.88,-140.45 127.06,-131.03"/>
<polygon fill="black" stroke="black" points="129.48,-128.5 119.84,-124.1 124.63,-133.55 129.48,-128.5"/>
<g id="a_edge2&#45;headlabel"><a xlink:href="dir_000051_000054.html" target="_top" xlink:title="1">
<text text-anchor="middle" x="134.04" y="-126.44" font-family="Helvetica,sans-Serif" font-size="10.00">1</text>
</a>
</g>
</g>
<!-- dir_6211f66a236c7493ac6590a5658cd8e8&#45;&gt;dir_76ec03b56887a0e8201bcb48abf48018 -->
<g id="edge3" class="edge">
<title>dir_6211f66a236c7493ac6590a5658cd8e8&#45;&gt;dir_76ec03b56887a0e8201bcb48abf48018</title>
<path fill="none" stroke="black" d="M147.68,-178C131.82,-178 115.97,-178 100.11,-178"/>
<polygon fill="black" stroke="black" points="99.7,-174.5 89.7,-178 99.7,-181.5 99.7,-174.5"/>
<g id="a_edge3&#45;headlabel"><a xlink:href="dir_000051_000123.html" target="_top" xlink:title="7">
<text text-anchor="middle" x="103.29" y="-169.16" font-family="Helvetica,sans-Serif" font-size="10.00">7</text>
</a>
</g>
</g>
<!-- dir_6211f66a236c7493ac6590a5658cd8e8&#45;&gt;dir_240ab0ee7b26e6185d01a5528f19cc96 -->
<g id="edge1" class="edge">
<title>dir_6211f66a236c7493ac6590a5658cd8e8&#45;&gt;dir_240ab0ee7b26e6185d01a5528f19cc96</title>
<path fill="none" stroke="black" d="M175,-159.7C175,-151.98 175,-142.71 175,-134.11"/>
<polygon fill="black" stroke="black" points="178.5,-134.1 175,-124.1 171.5,-134.1 178.5,-134.1"/>
<g id="a_edge1&#45;headlabel"><a xlink:href="dir_000051_000052.html" target="_top" xlink:title="6">
<text text-anchor="middle" x="181.34" y="-135.2" font-family="Helvetica,sans-Serif" font-size="10.00">6</text>
</a>
</g>
</g>
<!-- dir_240ab0ee7b26e6185d01a5528f19cc96&#45;&gt;dir_76ec03b56887a0e8201bcb48abf48018 -->
<g id="edge10" class="edge">
<title>dir_240ab0ee7b26e6185d01a5528f19cc96&#45;&gt;dir_76ec03b56887a0e8201bcb48abf48018</title>
<path fill="none" stroke="black" d="M147.79,-119.56C129.41,-129.27 105.19,-142.97 85.77,-154.56"/>
<polygon fill="black" stroke="black" points="83.7,-151.71 76.95,-159.88 87.32,-157.71 83.7,-151.71"/>
<g id="a_edge10&#45;headlabel"><a xlink:href="dir_000052_000123.html" target="_top" xlink:title="22">
<text text-anchor="middle" x="85.31" y="-144.93" font-family="Helvetica,sans-Serif" font-size="10.00">22</text>
</a>
</g>
</g>
<!-- dir_240ab0ee7b26e6185d01a5528f19cc96&#45;&gt;dir_cc3ad1aed4be3f446fdd7af78322f5bf -->
<g id="edge11" class="edge">
<title>dir_240ab0ee7b26e6185d01a5528f19cc96&#45;&gt;dir_cc3ad1aed4be3f446fdd7af78322f5bf</title>
<path fill="none" stroke="black" d="M159.97,-124.42C152.38,-134.22 143.78,-147.06 139,-160 131.68,-179.78 129.31,-203.58 128.7,-221.59"/>
<polygon fill="black" stroke="black" points="125.2,-221.65 128.52,-231.71 132.2,-221.77 125.2,-221.65"/>
<g id="a_edge11&#45;headlabel"><a xlink:href="dir_000052_000004.html" target="_top" xlink:title="1">
<text text-anchor="middle" x="122.43" y="-215.5" font-family="Helvetica,sans-Serif" font-size="10.00">1</text>
</a>
</g>
</g>
</g>
</svg>
