<?xml version="1.0" encoding="UTF-8" standalone="no"?>
<!DOCTYPE svg PUBLIC "-//W3C//DTD SVG 1.1//EN"
 "http://www.w3.org/Graphics/SVG/1.1/DTD/svg11.dtd">
<!-- Generated by graphviz version 2.46.0 (20210122.1329)
 -->
<!-- Title: include/Z2AudioLib/Z2SoundObject Pages: 1 -->
<svg width="236pt" height="223pt"
 viewBox="0.00 0.00 236.00 223.00" xmlns="http://www.w3.org/2000/svg" xmlns:xlink="http://www.w3.org/1999/xlink">
<g id="graph0" class="graph" transform="scale(1 1) rotate(0) translate(4 219)">
<title>include/Z2AudioLib/Z2SoundObject</title>
<polygon fill="white" stroke="transparent" points="-4,4 -4,-219 232,-219 232,4 -4,4"/>
<g id="clust1" class="cluster">
<title>clusterdir_81939fb769658ab66ba54ec390580a1a</title>
<g id="a_clust1"><a xlink:href="dir_81939fb769658ab66ba54ec390580a1a.html" target="_top" xlink:title="Z2AudioLib">
<polygon fill="#ddddee" stroke="black" points="8,-64 8,-207 220,-207 220,-64 8,-64"/>
<text text-anchor="middle" x="114" y="-195" font-family="Helvetica,sans-Serif" font-size="10.00">Z2AudioLib</text>
</a>
</g>
</g>
<!-- dir_9c611c3127d47b544cf63143a10f0fa0 -->
<g id="node1" class="node">
<title>dir_9c611c3127d47b544cf63143a10f0fa0</title>
<g id="a_node1"><a xlink:href="dir_9c611c3127d47b544cf63143a10f0fa0.html" target="_top" xlink:title="Z2SoundStarter">
<polygon fill="none" stroke="black" points="101.5,-108 16.5,-108 16.5,-72 101.5,-72 101.5,-108"/>
<text text-anchor="middle" x="59" y="-87.5" font-family="Helvetica,sans-Serif" font-size="10.00">Z2SoundStarter</text>
</a>
</g>
</g>
<!-- dir_4f0979a7f5e3194619cde56505e372d8 -->
<g id="node4" class="node">
<title>dir_4f0979a7f5e3194619cde56505e372d8</title>
<g id="a_node4"><a xlink:href="dir_4f0979a7f5e3194619cde56505e372d8.html" target="_top" xlink:title="JSystem">
<polygon fill="white" stroke="red" points="193.5,-36 138.5,-36 138.5,0 193.5,0 193.5,-36"/>
<text text-anchor="middle" x="166" y="-15.5" font-family="Helvetica,sans-Serif" font-size="10.00">JSystem</text>
</a>
</g>
</g>
<!-- dir_9c611c3127d47b544cf63143a10f0fa0&#45;&gt;dir_4f0979a7f5e3194619cde56505e372d8 -->
<g id="edge4" class="edge">
<title>dir_9c611c3127d47b544cf63143a10f0fa0&#45;&gt;dir_4f0979a7f5e3194619cde56505e372d8</title>
<path fill="none" stroke="black" d="M85.18,-71.88C99.04,-62.81 116.24,-51.55 131.21,-41.76"/>
<polygon fill="black" stroke="black" points="133.27,-44.59 139.72,-36.19 129.44,-38.74 133.27,-44.59"/>
<g id="a_edge4&#45;headlabel"><a xlink:href="dir_000140_000048.html" target="_top" xlink:title="2">
<text text-anchor="middle" x="131.82" y="-46.44" font-family="Helvetica,sans-Serif" font-size="10.00">2</text>
</a>
</g>
</g>
<!-- dir_ece6d87a7862fa658c7e7b1124c72881 -->
<g id="node2" class="node">
<title>dir_ece6d87a7862fa658c7e7b1124c72881</title>
<g id="a_node2"><a xlink:href="dir_ece6d87a7862fa658c7e7b1124c72881.html" target="_top" xlink:title="Z2SoundHandles">
<polygon fill="none" stroke="black" points="212,-108 120,-108 120,-72 212,-72 212,-108"/>
<text text-anchor="middle" x="166" y="-87.5" font-family="Helvetica,sans-Serif" font-size="10.00">Z2SoundHandles</text>
</a>
</g>
</g>
<!-- dir_ece6d87a7862fa658c7e7b1124c72881&#45;&gt;dir_4f0979a7f5e3194619cde56505e372d8 -->
<g id="edge5" class="edge">
<title>dir_ece6d87a7862fa658c7e7b1124c72881&#45;&gt;dir_4f0979a7f5e3194619cde56505e372d8</title>
<path fill="none" stroke="black" d="M166,-71.7C166,-63.98 166,-54.71 166,-46.11"/>
<polygon fill="black" stroke="black" points="169.5,-46.1 166,-36.1 162.5,-46.1 169.5,-46.1"/>
<g id="a_edge5&#45;headlabel"><a xlink:href="dir_000135_000048.html" target="_top" xlink:title="3">
<text text-anchor="middle" x="172.34" y="-47.2" font-family="Helvetica,sans-Serif" font-size="10.00">3</text>
</a>
</g>
</g>
<!-- dir_ae1246dc474cde6f2d6b9a824869d07e -->
<g id="node3" class="node">
<title>dir_ae1246dc474cde6f2d6b9a824869d07e</title>
<g id="a_node3"><a xlink:href="dir_ae1246dc474cde6f2d6b9a824869d07e.html" target="_top" xlink:title="Z2SoundObject">
<polygon fill="#eeeeff" stroke="black" points="208,-180 124,-180 124,-144 208,-144 208,-180"/>
<text text-anchor="middle" x="166" y="-159.5" font-family="Helvetica,sans-Serif" font-size="10.00">Z2SoundObject</text>
</a>
</g>
</g>
<!-- dir_ae1246dc474cde6f2d6b9a824869d07e&#45;&gt;dir_9c611c3127d47b544cf63143a10f0fa0 -->
<g id="edge2" class="edge">
<title>dir_ae1246dc474cde6f2d6b9a824869d07e&#45;&gt;dir_9c611c3127d47b544cf63143a10f0fa0</title>
<path fill="none" stroke="black" d="M139.82,-143.88C125.96,-134.81 108.76,-123.55 93.79,-113.76"/>
<polygon fill="black" stroke="black" points="95.56,-110.74 85.28,-108.19 91.73,-116.59 95.56,-110.74"/>
<g id="a_edge2&#45;headlabel"><a xlink:href="dir_000138_000140.html" target="_top" xlink:title="1">
<text text-anchor="middle" x="100.12" y="-107.83" font-family="Helvetica,sans-Serif" font-size="10.00">1</text>
</a>
</g>
</g>
<!-- dir_ae1246dc474cde6f2d6b9a824869d07e&#45;&gt;dir_ece6d87a7862fa658c7e7b1124c72881 -->
<g id="edge3" class="edge">
<title>dir_ae1246dc474cde6f2d6b9a824869d07e&#45;&gt;dir_ece6d87a7862fa658c7e7b1124c72881</title>
<path fill="none" stroke="black" d="M166,-143.7C166,-135.98 166,-126.71 166,-118.11"/>
<polygon fill="black" stroke="black" points="169.5,-118.1 166,-108.1 162.5,-118.1 169.5,-118.1"/>
<g id="a_edge3&#45;headlabel"><a xlink:href="dir_000138_000135.html" target="_top" xlink:title="1">
<text text-anchor="middle" x="172.34" y="-119.2" font-family="Helvetica,sans-Serif" font-size="10.00">1</text>
</a>
</g>
</g>
<!-- dir_ae1246dc474cde6f2d6b9a824869d07e&#45;&gt;dir_4f0979a7f5e3194619cde56505e372d8 -->
<g id="edge1" class="edge">
<title>dir_ae1246dc474cde6f2d6b9a824869d07e&#45;&gt;dir_4f0979a7f5e3194619cde56505e372d8</title>
<path fill="none" stroke="black" d="M191.38,-143.95C202.71,-134.79 214.88,-122.4 221,-108 228.65,-90 229.37,-81.67 221,-64 216.73,-54.99 209.68,-47.19 202.03,-40.73"/>
<polygon fill="black" stroke="black" points="203.65,-37.56 193.59,-34.25 199.39,-43.12 203.65,-37.56"/>
<g id="a_edge1&#45;headlabel"><a xlink:href="dir_000138_000048.html" target="_top" xlink:title="1">
<text text-anchor="middle" x="208.23" y="-35" font-family="Helvetica,sans-Serif" font-size="10.00">1</text>
</a>
</g>
</g>
</g>
</svg>
