<?xml version="1.0" encoding="UTF-8" standalone="no"?>
<!DOCTYPE svg PUBLIC "-//W3C//DTD SVG 1.1//EN"
 "http://www.w3.org/Graphics/SVG/1.1/DTD/svg11.dtd">
<!-- Generated by graphviz version 2.46.1 (20210215.1649)
 -->
<!-- Title: include Pages: 1 -->
<!--zoomable 508 -->
<svg id="main" version="1.1" xmlns="http://www.w3.org/2000/svg" xmlns:xlink="http://www.w3.org/1999/xlink" xml:space="preserve" onload="init(evt)">
<style type="text/css"><![CDATA[
.edge:hover path { stroke: red; }
.edge:hover polygon { stroke: red; fill: red; }
]]></style>
<script type="text/javascript"><![CDATA[
var edges = document.getElementsByTagName('g');
if (edges && edges.length) {
  for (var i=0;i<edges.length;i++) {
    if (edges[i].id.substr(0,4)=='edge') {
      edges[i].setAttribute('class','edge');
    }
  }
}
]]></script>
        <defs>
                <circle id="rim" cx="0" cy="0" r="7"/>
                <circle id="rim2" cx="0" cy="0" r="3.5"/>
                <g id="zoomPlus">
                        <use xlink:href="#rim" fill="#404040">
                                <set attributeName="fill" to="#808080" begin="zoomplus.mouseover" end="zoomplus.mouseout"/>
                        </use>
                        <path d="M-4,0h8M0,-4v8" fill="none" stroke="white" stroke-width="1.5" pointer-events="none"/>
                </g>
                <g id="zoomMin">
                        <use xlink:href="#rim" fill="#404040">
                                <set attributeName="fill" to="#808080" begin="zoomminus.mouseover" end="zoomminus.mouseout"/>
                        </use>
                        <path d="M-4,0h8" fill="none" stroke="white" stroke-width="1.5" pointer-events="none"/>
                </g>
                <g id="dirArrow">
                        <path fill="none" stroke="white" stroke-width="1.5" d="M0,-3.0v7 M-2.5,-0.5L0,-3.0L2.5,-0.5"/>
                </g>
               <g id="resetDef">
                       <use xlink:href="#rim2" fill="#404040">
                               <set attributeName="fill" to="#808080" begin="reset.mouseover" end="reset.mouseout"/>
                       </use>
               </g>
        </defs>

<script type="text/javascript">
var viewWidth = 418;
var viewHeight = 508;
var sectionId = 'dynsection-0';
</script>
<script xlink:href="svgpan.js"/>
<svg id="graph" class="graph">
<g id="viewport">
<title>include</title>
<polygon fill="white" stroke="transparent" points="-4,4 -4,-504 414,-504 414,4 -4,4"/>
<g id="clust1" class="cluster">
<title>clusterdir_d44c64559bbebec7f509842c48db8b23</title>
<g id="a_clust1"><a xlink:href="dir_d44c64559bbebec7f509842c48db8b23.html" target="_top">
<polygon fill="#eeeeff" stroke="black" points="8,-8 8,-492 402,-492 402,-8 8,-8"/>
</a>
</g>
</g>
<!-- dir_d44c64559bbebec7f509842c48db8b23 -->
<g id="node1" class="node">
<title>dir_d44c64559bbebec7f509842c48db8b23</title>
<text text-anchor="middle" x="257" y="-247.5" font-family="Helvetica,sans-Serif" font-size="10.00">include</text>
</g>
<!-- dir_65d600aab5b7177ee2dccfac7c04bb8a -->
<g id="node2" class="node">
<title>dir_65d600aab5b7177ee2dccfac7c04bb8a</title>
<g id="a_node2"><a xlink:href="dir_65d600aab5b7177ee2dccfac7c04bb8a.html" target="_top" xlink:title="ar">
<polygon fill="white" stroke="black" points="282,-196 228,-196 228,-160 282,-160 282,-196"/>
<text text-anchor="middle" x="255" y="-175.5" font-family="Helvetica,sans-Serif" font-size="10.00">ar</text>
</a>
</g>
</g>
<!-- dir_d44c64559bbebec7f509842c48db8b23&#45;&gt;dir_65d600aab5b7177ee2dccfac7c04bb8a -->
<g id="edge11" class="edge">
<title>dir_d44c64559bbebec7f509842c48db8b23&#45;&gt;dir_65d600aab5b7177ee2dccfac7c04bb8a</title>
<path fill="none" stroke="black" d="M256.51,-231.7C256.29,-223.98 256.02,-214.71 255.77,-206.11"/>
<polygon fill="black" stroke="black" points="259.27,-206 255.49,-196.1 252.28,-206.2 259.27,-206"/>
<g id="a_edge11&#45;headlabel"><a xlink:href="dir_000001_000002.html" target="_top" xlink:title="3">
<text text-anchor="middle" x="262.21" y="-207.01" font-family="Helvetica,sans-Serif" font-size="10.00">3</text>
</a>
</g>
</g>
<!-- dir_7b371d9fdb0359ac564866f88df60f77 -->
<g id="node11" class="node">
<title>dir_7b371d9fdb0359ac564866f88df60f77</title>
<g id="a_node11"><a xlink:href="dir_7b371d9fdb0359ac564866f88df60f77.html" target="_top" xlink:title="os">
<polygon fill="white" stroke="black" points="354,-196 300,-196 300,-160 354,-160 354,-196"/>
<text text-anchor="middle" x="327" y="-175.5" font-family="Helvetica,sans-Serif" font-size="10.00">os</text>
</a>
</g>
</g>
<!-- dir_d44c64559bbebec7f509842c48db8b23&#45;&gt;dir_7b371d9fdb0359ac564866f88df60f77 -->
<g id="edge12" class="edge">
<title>dir_d44c64559bbebec7f509842c48db8b23&#45;&gt;dir_7b371d9fdb0359ac564866f88df60f77</title>
<path fill="none" stroke="black" d="M274.3,-231.7C282.86,-223.14 293.34,-212.66 302.7,-203.3"/>
<polygon fill="black" stroke="black" points="305.3,-205.65 309.9,-196.1 300.35,-200.7 305.3,-205.65"/>
<g id="a_edge12&#45;headlabel"><a xlink:href="dir_000001_000121.html" target="_top" xlink:title="6">
<text text-anchor="middle" x="304.77" y="-207.7" font-family="Helvetica,sans-Serif" font-size="10.00">6</text>
</a>
</g>
</g>
<!-- dir_b778c3f297ab88300258a2935792c8cc -->
<g id="node5" class="node">
<title>dir_b778c3f297ab88300258a2935792c8cc</title>
<g id="a_node5"><a xlink:href="dir_b778c3f297ab88300258a2935792c8cc.html" target="_top" xlink:title="dolphin">
<polygon fill="white" stroke="black" points="242,-52 188,-52 188,-16 242,-16 242,-52"/>
<text text-anchor="middle" x="215" y="-31.5" font-family="Helvetica,sans-Serif" font-size="10.00">dolphin</text>
</a>
</g>
</g>
<!-- dir_65d600aab5b7177ee2dccfac7c04bb8a&#45;&gt;dir_b778c3f297ab88300258a2935792c8cc -->
<g id="edge6" class="edge">
<title>dir_65d600aab5b7177ee2dccfac7c04bb8a&#45;&gt;dir_b778c3f297ab88300258a2935792c8cc</title>
<path fill="none" stroke="black" d="M256.95,-159.77C258.4,-141.46 258.95,-111.93 251,-88 247.77,-78.29 242.21,-68.71 236.41,-60.42"/>
<polygon fill="black" stroke="black" points="239.15,-58.24 230.37,-52.3 233.54,-62.41 239.15,-58.24"/>
<g id="a_edge6&#45;headlabel"><a xlink:href="dir_000002_000047.html" target="_top" xlink:title="2">
<text text-anchor="middle" x="243.58" y="-56.92" font-family="Helvetica,sans-Serif" font-size="10.00">2</text>
</a>
</g>
</g>
<!-- dir_f0bbaeb96b1b216779501c980a5af6c6 -->
<g id="node3" class="node">
<title>dir_f0bbaeb96b1b216779501c980a5af6c6</title>
<g id="a_node3"><a xlink:href="dir_f0bbaeb96b1b216779501c980a5af6c6.html" target="_top" xlink:title="c">
<polygon fill="white" stroke="black" points="367,-484 313,-484 313,-448 367,-448 367,-484"/>
<text text-anchor="middle" x="340" y="-463.5" font-family="Helvetica,sans-Serif" font-size="10.00">c</text>
</a>
</g>
</g>
<!-- dir_cc3ad1aed4be3f446fdd7af78322f5bf -->
<g id="node4" class="node">
<title>dir_cc3ad1aed4be3f446fdd7af78322f5bf</title>
<g id="a_node4"><a xlink:href="dir_cc3ad1aed4be3f446fdd7af78322f5bf.html" target="_top" xlink:title="d">
<polygon fill="white" stroke="red" points="257,-484 203,-484 203,-448 257,-448 257,-484"/>
<text text-anchor="middle" x="230" y="-463.5" font-family="Helvetica,sans-Serif" font-size="10.00">d</text>
</a>
</g>
</g>
<!-- dir_cc3ad1aed4be3f446fdd7af78322f5bf&#45;&gt;dir_b778c3f297ab88300258a2935792c8cc -->
<g id="edge24" class="edge">
<title>dir_cc3ad1aed4be3f446fdd7af78322f5bf&#45;&gt;dir_b778c3f297ab88300258a2935792c8cc</title>
<path fill="none" stroke="black" d="M202.59,-460.08C145.06,-448 17,-411.22 17,-323 17,-323 17,-323 17,-177 17,-136.25 10.92,-117.53 39,-88 75.24,-49.9 137.74,-38.89 177.69,-35.88"/>
<polygon fill="black" stroke="black" points="178.05,-39.36 187.82,-35.25 177.62,-32.38 178.05,-39.36"/>
<g id="a_edge24&#45;headlabel"><a xlink:href="dir_000004_000047.html" target="_top" xlink:title="10">
<text text-anchor="middle" x="174.64" y="-39.92" font-family="Helvetica,sans-Serif" font-size="10.00">10</text>
</a>
</g>
</g>
<!-- dir_33eed416d00e84841337708fc7e11b48 -->
<g id="node7" class="node">
<title>dir_33eed416d00e84841337708fc7e11b48</title>
<g id="a_node7"><a xlink:href="dir_33eed416d00e84841337708fc7e11b48.html" target="_top" xlink:title="f">
<polygon fill="white" stroke="red" points="201,-412 147,-412 147,-376 201,-376 201,-412"/>
<text text-anchor="middle" x="174" y="-391.5" font-family="Helvetica,sans-Serif" font-size="10.00">f</text>
</a>
</g>
</g>
<!-- dir_cc3ad1aed4be3f446fdd7af78322f5bf&#45;&gt;dir_33eed416d00e84841337708fc7e11b48 -->
<g id="edge23" class="edge">
<title>dir_cc3ad1aed4be3f446fdd7af78322f5bf&#45;&gt;dir_33eed416d00e84841337708fc7e11b48</title>
<path fill="none" stroke="black" d="M210.24,-447.7C202.82,-439.47 194.62,-429.48 187.82,-420.42"/>
<polygon fill="black" stroke="black" points="190.49,-418.15 181.79,-412.1 184.82,-422.26 190.49,-418.15"/>
<g id="a_edge23&#45;headlabel"><a xlink:href="dir_000004_000049.html" target="_top" xlink:title="4">
<text text-anchor="middle" x="194.9" y="-416.89" font-family="Helvetica,sans-Serif" font-size="10.00">4</text>
</a>
</g>
</g>
<!-- dir_4f0979a7f5e3194619cde56505e372d8 -->
<g id="node9" class="node">
<title>dir_4f0979a7f5e3194619cde56505e372d8</title>
<g id="a_node9"><a xlink:href="dir_4f0979a7f5e3194619cde56505e372d8.html" target="_top" xlink:title="JSystem">
<polygon fill="white" stroke="red" points="211.5,-268 156.5,-268 156.5,-232 211.5,-232 211.5,-268"/>
<text text-anchor="middle" x="184" y="-247.5" font-family="Helvetica,sans-Serif" font-size="10.00">JSystem</text>
</a>
</g>
</g>
<!-- dir_cc3ad1aed4be3f446fdd7af78322f5bf&#45;&gt;dir_4f0979a7f5e3194619cde56505e372d8 -->
<g id="edge21" class="edge">
<title>dir_cc3ad1aed4be3f446fdd7af78322f5bf&#45;&gt;dir_4f0979a7f5e3194619cde56505e372d8</title>
<path fill="none" stroke="black" d="M233.8,-447.86C239.67,-417.66 248.48,-353.49 230,-304 226.12,-293.62 219.2,-283.93 211.88,-275.74"/>
<polygon fill="black" stroke="black" points="214.27,-273.18 204.82,-268.38 209.22,-278.03 214.27,-273.18"/>
<g id="a_edge21&#45;headlabel"><a xlink:href="dir_000004_000054.html" target="_top" xlink:title="17">
<text text-anchor="middle" x="218.81" y="-271.31" font-family="Helvetica,sans-Serif" font-size="10.00">17</text>
</a>
</g>
</g>
<!-- dir_6bdfff2c28f90f381b6da5bee088878b -->
<g id="node10" class="node">
<title>dir_6bdfff2c28f90f381b6da5bee088878b</title>
<g id="a_node10"><a xlink:href="dir_6bdfff2c28f90f381b6da5bee088878b.html" target="_top" xlink:title="m_Do">
<polygon fill="white" stroke="red" points="313,-412 259,-412 259,-376 313,-376 313,-412"/>
<text text-anchor="middle" x="286" y="-391.5" font-family="Helvetica,sans-Serif" font-size="10.00">m_Do</text>
</a>
</g>
</g>
<!-- dir_cc3ad1aed4be3f446fdd7af78322f5bf&#45;&gt;dir_6bdfff2c28f90f381b6da5bee088878b -->
<g id="edge25" class="edge">
<title>dir_cc3ad1aed4be3f446fdd7af78322f5bf&#45;&gt;dir_6bdfff2c28f90f381b6da5bee088878b</title>
<path fill="none" stroke="black" d="M237.93,-447.7C243.77,-439.3 251.77,-429.07 259.62,-419.86"/>
<polygon fill="black" stroke="black" points="262.46,-421.93 266.42,-412.1 257.2,-417.32 262.46,-421.93"/>
<g id="a_edge25&#45;headlabel"><a xlink:href="dir_000004_000111.html" target="_top" xlink:title="3">
<text text-anchor="middle" x="262.22" y="-424.01" font-family="Helvetica,sans-Serif" font-size="10.00">3</text>
</a>
</g>
</g>
<!-- dir_76ec03b56887a0e8201bcb48abf48018 -->
<g id="node13" class="node">
<title>dir_76ec03b56887a0e8201bcb48abf48018</title>
<g id="a_node13"><a xlink:href="dir_76ec03b56887a0e8201bcb48abf48018.html" target="_top" xlink:title="SComponent">
<polygon fill="white" stroke="red" points="220.5,-340 147.5,-340 147.5,-304 220.5,-304 220.5,-340"/>
<text text-anchor="middle" x="184" y="-319.5" font-family="Helvetica,sans-Serif" font-size="10.00">SComponent</text>
</a>
</g>
</g>
<!-- dir_cc3ad1aed4be3f446fdd7af78322f5bf&#45;&gt;dir_76ec03b56887a0e8201bcb48abf48018 -->
<g id="edge22" class="edge">
<title>dir_cc3ad1aed4be3f446fdd7af78322f5bf&#45;&gt;dir_76ec03b56887a0e8201bcb48abf48018</title>
<path fill="none" stroke="black" d="M227.39,-447.94C224.34,-429.77 218.57,-400.35 210,-376 206.83,-367.01 202.54,-357.56 198.35,-349.16"/>
<polygon fill="black" stroke="black" points="201.43,-347.5 193.73,-340.22 195.21,-350.71 201.43,-347.5"/>
<g id="a_edge22&#45;headlabel"><a xlink:href="dir_000004_000123.html" target="_top" xlink:title="12">
<text text-anchor="middle" x="205.6" y="-346.89" font-family="Helvetica,sans-Serif" font-size="10.00">12</text>
</a>
</g>
</g>
<!-- dir_81939fb769658ab66ba54ec390580a1a -->
<g id="node16" class="node">
<title>dir_81939fb769658ab66ba54ec390580a1a</title>
<g id="a_node16"><a xlink:href="dir_81939fb769658ab66ba54ec390580a1a.html" target="_top" xlink:title="Z2AudioLib">
<polygon fill="white" stroke="red" points="394,-340 328,-340 328,-304 394,-304 394,-340"/>
<text text-anchor="middle" x="361" y="-319.5" font-family="Helvetica,sans-Serif" font-size="10.00">Z2AudioLib</text>
</a>
</g>
</g>
<!-- dir_cc3ad1aed4be3f446fdd7af78322f5bf&#45;&gt;dir_81939fb769658ab66ba54ec390580a1a -->
<g id="edge26" class="edge">
<title>dir_cc3ad1aed4be3f446fdd7af78322f5bf&#45;&gt;dir_81939fb769658ab66ba54ec390580a1a</title>
<path fill="none" stroke="black" d="M257.25,-454.79C277.39,-446.07 304.29,-431.77 322,-412 337.94,-394.21 348.17,-368.88 354.14,-349.79"/>
<polygon fill="black" stroke="black" points="357.5,-350.76 356.95,-340.18 350.78,-348.8 357.5,-350.76"/>
<g id="a_edge26&#45;headlabel"><a xlink:href="dir_000004_000128.html" target="_top" xlink:title="1">
<text text-anchor="middle" x="359.22" y="-352.51" font-family="Helvetica,sans-Serif" font-size="10.00">1</text>
</a>
</g>
</g>
<!-- dir_b2a98ef39d7a74ac1f5af67b89b07b4d -->
<g id="node6" class="node">
<title>dir_b2a98ef39d7a74ac1f5af67b89b07b4d</title>
<g id="a_node6"><a xlink:href="dir_b2a98ef39d7a74ac1f5af67b89b07b4d.html" target="_top" xlink:title="dvd">
<polygon fill="white" stroke="black" points="334,-124 280,-124 280,-88 334,-88 334,-124"/>
<text text-anchor="middle" x="307" y="-103.5" font-family="Helvetica,sans-Serif" font-size="10.00">dvd</text>
</a>
</g>
</g>
<!-- dir_b2a98ef39d7a74ac1f5af67b89b07b4d&#45;&gt;dir_b778c3f297ab88300258a2935792c8cc -->
<g id="edge13" class="edge">
<title>dir_b2a98ef39d7a74ac1f5af67b89b07b4d&#45;&gt;dir_b778c3f297ab88300258a2935792c8cc</title>
<path fill="none" stroke="black" d="M284.26,-87.7C272.56,-78.8 258.14,-67.82 245.49,-58.2"/>
<polygon fill="black" stroke="black" points="247.56,-55.37 237.48,-52.1 243.32,-60.94 247.56,-55.37"/>
<g id="a_edge13&#45;headlabel"><a xlink:href="dir_000048_000047.html" target="_top" xlink:title="1">
<text text-anchor="middle" x="252.14" y="-52.79" font-family="Helvetica,sans-Serif" font-size="10.00">1</text>
</a>
</g>
</g>
<!-- dir_33eed416d00e84841337708fc7e11b48&#45;&gt;dir_cc3ad1aed4be3f446fdd7af78322f5bf -->
<g id="edge10" class="edge">
<title>dir_33eed416d00e84841337708fc7e11b48&#45;&gt;dir_cc3ad1aed4be3f446fdd7af78322f5bf</title>
<path fill="none" stroke="black" d="M193.58,-412.1C200.99,-420.3 209.19,-430.28 216.02,-439.36"/>
<polygon fill="black" stroke="black" points="213.36,-441.66 222.07,-447.7 219.03,-437.55 213.36,-441.66"/>
<g id="a_edge10&#45;headlabel"><a xlink:href="dir_000049_000004.html" target="_top" xlink:title="1">
<text text-anchor="middle" x="208.96" y="-437.92" font-family="Helvetica,sans-Serif" font-size="10.00">1</text>
</a>
</g>
</g>
<!-- dir_33eed416d00e84841337708fc7e11b48&#45;&gt;dir_b778c3f297ab88300258a2935792c8cc -->
<g id="edge7" class="edge">
<title>dir_33eed416d00e84841337708fc7e11b48&#45;&gt;dir_b778c3f297ab88300258a2935792c8cc</title>
<path fill="none" stroke="black" d="M146.93,-380.24C107.01,-359.31 37,-313.69 37,-251 37,-251 37,-251 37,-177 37,-135.26 37.76,-117.79 67,-88 96.58,-57.86 144.48,-44.79 177.74,-39.17"/>
<polygon fill="black" stroke="black" points="178.63,-42.57 187.99,-37.59 177.57,-35.65 178.63,-42.57"/>
<g id="a_edge7&#45;headlabel"><a xlink:href="dir_000049_000047.html" target="_top" xlink:title="4">
<text text-anchor="middle" x="175.51" y="-43.42" font-family="Helvetica,sans-Serif" font-size="10.00">4</text>
</a>
</g>
</g>
<!-- dir_33eed416d00e84841337708fc7e11b48&#45;&gt;dir_4f0979a7f5e3194619cde56505e372d8 -->
<g id="edge8" class="edge">
<title>dir_33eed416d00e84841337708fc7e11b48&#45;&gt;dir_4f0979a7f5e3194619cde56505e372d8</title>
<path fill="none" stroke="black" d="M158.82,-375.7C151.27,-365.94 142.93,-353.1 139,-340 134.4,-324.68 133.48,-319.02 139,-304 142.78,-293.7 149.56,-284.02 156.72,-275.84"/>
<polygon fill="black" stroke="black" points="159.34,-278.16 163.62,-268.47 154.23,-273.38 159.34,-278.16"/>
<g id="a_edge8&#45;headlabel"><a xlink:href="dir_000049_000054.html" target="_top" xlink:title="1">
<text text-anchor="middle" x="158.96" y="-280.22" font-family="Helvetica,sans-Serif" font-size="10.00">1</text>
</a>
</g>
</g>
<!-- dir_33eed416d00e84841337708fc7e11b48&#45;&gt;dir_76ec03b56887a0e8201bcb48abf48018 -->
<g id="edge9" class="edge">
<title>dir_33eed416d00e84841337708fc7e11b48&#45;&gt;dir_76ec03b56887a0e8201bcb48abf48018</title>
<path fill="none" stroke="black" d="M170.56,-375.7C170.86,-367.98 171.96,-358.71 173.53,-350.11"/>
<polygon fill="black" stroke="black" points="177,-350.61 175.66,-340.1 170.16,-349.16 177,-350.61"/>
<g id="a_edge9&#45;headlabel"><a xlink:href="dir_000049_000123.html" target="_top" xlink:title="29">
<text text-anchor="middle" x="179.03" y="-352.22" font-family="Helvetica,sans-Serif" font-size="10.00">29</text>
</a>
</g>
</g>
<!-- dir_a279ed5c4175293b5b2f0cc1c8e2c220 -->
<g id="node8" class="node">
<title>dir_a279ed5c4175293b5b2f0cc1c8e2c220</title>
<g id="a_node8"><a xlink:href="dir_a279ed5c4175293b5b2f0cc1c8e2c220.html" target="_top" xlink:title="gx">
<polygon fill="white" stroke="black" points="150,-124 96,-124 96,-88 150,-88 150,-124"/>
<text text-anchor="middle" x="123" y="-103.5" font-family="Helvetica,sans-Serif" font-size="10.00">gx</text>
</a>
</g>
</g>
<!-- dir_a279ed5c4175293b5b2f0cc1c8e2c220&#45;&gt;dir_b778c3f297ab88300258a2935792c8cc -->
<g id="edge29" class="edge">
<title>dir_a279ed5c4175293b5b2f0cc1c8e2c220&#45;&gt;dir_b778c3f297ab88300258a2935792c8cc</title>
<path fill="none" stroke="black" d="M145.74,-87.7C157.44,-78.8 171.86,-67.82 184.51,-58.2"/>
<polygon fill="black" stroke="black" points="186.68,-60.94 192.52,-52.1 182.44,-55.37 186.68,-60.94"/>
<g id="a_edge29&#45;headlabel"><a xlink:href="dir_000053_000047.html" target="_top" xlink:title="1">
<text text-anchor="middle" x="185.54" y="-62.88" font-family="Helvetica,sans-Serif" font-size="10.00">1</text>
</a>
</g>
</g>
<!-- dir_4f0979a7f5e3194619cde56505e372d8&#45;&gt;dir_65d600aab5b7177ee2dccfac7c04bb8a -->
<g id="edge30" class="edge">
<title>dir_4f0979a7f5e3194619cde56505e372d8&#45;&gt;dir_65d600aab5b7177ee2dccfac7c04bb8a</title>
<path fill="none" stroke="black" d="M201.55,-231.7C210.23,-223.14 220.86,-212.66 230.35,-203.3"/>
<polygon fill="black" stroke="black" points="232.99,-205.62 237.65,-196.1 228.07,-200.63 232.99,-205.62"/>
<g id="a_edge30&#45;headlabel"><a xlink:href="dir_000054_000002.html" target="_top" xlink:title="1">
<text text-anchor="middle" x="232.42" y="-207.66" font-family="Helvetica,sans-Serif" font-size="10.00">1</text>
</a>
</g>
</g>
<!-- dir_4f0979a7f5e3194619cde56505e372d8&#45;&gt;dir_b778c3f297ab88300258a2935792c8cc -->
<g id="edge34" class="edge">
<title>dir_4f0979a7f5e3194619cde56505e372d8&#45;&gt;dir_b778c3f297ab88300258a2935792c8cc</title>
<path fill="none" stroke="black" d="M179.86,-231.59C173.49,-201.52 163.55,-138.25 179,-88 182.01,-78.22 187.51,-68.62 193.32,-60.33"/>
<polygon fill="black" stroke="black" points="196.19,-62.33 199.39,-52.23 190.59,-58.13 196.19,-62.33"/>
<g id="a_edge34&#45;headlabel"><a xlink:href="dir_000054_000047.html" target="_top" xlink:title="50">
<text text-anchor="middle" x="196.31" y="-64.41" font-family="Helvetica,sans-Serif" font-size="10.00">50</text>
</a>
</g>
</g>
<!-- dir_4f0979a7f5e3194619cde56505e372d8&#45;&gt;dir_b2a98ef39d7a74ac1f5af67b89b07b4d -->
<g id="edge33" class="edge">
<title>dir_4f0979a7f5e3194619cde56505e372d8&#45;&gt;dir_b2a98ef39d7a74ac1f5af67b89b07b4d</title>
<path fill="none" stroke="black" d="M190.47,-231.71C199.9,-206.65 216.56,-162.88 219,-160 232.79,-143.68 252.95,-131.03 270.49,-122.18"/>
<polygon fill="black" stroke="black" points="272.41,-125.14 279.92,-117.66 269.39,-118.83 272.41,-125.14"/>
<g id="a_edge33&#45;headlabel"><a xlink:href="dir_000054_000048.html" target="_top" xlink:title="2">
<text text-anchor="middle" x="270.4" y="-126.76" font-family="Helvetica,sans-Serif" font-size="10.00">2</text>
</a>
</g>
</g>
<!-- dir_4f0979a7f5e3194619cde56505e372d8&#45;&gt;dir_a279ed5c4175293b5b2f0cc1c8e2c220 -->
<g id="edge32" class="edge">
<title>dir_4f0979a7f5e3194619cde56505e372d8&#45;&gt;dir_a279ed5c4175293b5b2f0cc1c8e2c220</title>
<path fill="none" stroke="black" d="M176.64,-231.87C166.15,-207.46 146.81,-162.43 134.44,-133.64"/>
<polygon fill="black" stroke="black" points="137.55,-132 130.38,-124.19 131.12,-134.76 137.55,-132"/>
<g id="a_edge32&#45;headlabel"><a xlink:href="dir_000054_000053.html" target="_top" xlink:title="4">
<text text-anchor="middle" x="141.57" y="-131.68" font-family="Helvetica,sans-Serif" font-size="10.00">4</text>
</a>
</g>
</g>
<!-- dir_4f0979a7f5e3194619cde56505e372d8&#45;&gt;dir_7b371d9fdb0359ac564866f88df60f77 -->
<g id="edge31" class="edge">
<title>dir_4f0979a7f5e3194619cde56505e372d8&#45;&gt;dir_7b371d9fdb0359ac564866f88df60f77</title>
<path fill="none" stroke="black" d="M211.57,-235.5C234.17,-224.44 266.32,-208.7 290.96,-196.64"/>
<polygon fill="black" stroke="black" points="292.55,-199.76 300,-192.22 289.48,-193.47 292.55,-199.76"/>
<g id="a_edge31&#45;headlabel"><a xlink:href="dir_000054_000121.html" target="_top" xlink:title="3">
<text text-anchor="middle" x="290.57" y="-201.39" font-family="Helvetica,sans-Serif" font-size="10.00">3</text>
</a>
</g>
</g>
<!-- dir_fbee22fe0c165caa3600c214f3fde6f6 -->
<g id="node12" class="node">
<title>dir_fbee22fe0c165caa3600c214f3fde6f6</title>
<g id="a_node12"><a xlink:href="dir_fbee22fe0c165caa3600c214f3fde6f6.html" target="_top" xlink:title="pad">
<polygon fill="white" stroke="black" points="130,-196 76,-196 76,-160 130,-160 130,-196"/>
<text text-anchor="middle" x="103" y="-175.5" font-family="Helvetica,sans-Serif" font-size="10.00">pad</text>
</a>
</g>
</g>
<!-- dir_4f0979a7f5e3194619cde56505e372d8&#45;&gt;dir_fbee22fe0c165caa3600c214f3fde6f6 -->
<g id="edge35" class="edge">
<title>dir_4f0979a7f5e3194619cde56505e372d8&#45;&gt;dir_fbee22fe0c165caa3600c214f3fde6f6</title>
<path fill="none" stroke="black" d="M163.98,-231.7C153.87,-222.97 141.46,-212.24 130.48,-202.75"/>
<polygon fill="black" stroke="black" points="132.65,-199.99 122.79,-196.1 128.07,-205.29 132.65,-199.99"/>
<g id="a_edge35&#45;headlabel"><a xlink:href="dir_000054_000122.html" target="_top" xlink:title="1">
<text text-anchor="middle" x="137.22" y="-197.7" font-family="Helvetica,sans-Serif" font-size="10.00">1</text>
</a>
</g>
</g>
<!-- dir_f31be668b848c94749c2480e14c4b615 -->
<g id="node15" class="node">
<title>dir_f31be668b848c94749c2480e14c4b615</title>
<g id="a_node15"><a xlink:href="dir_f31be668b848c94749c2480e14c4b615.html" target="_top" xlink:title="vi">
<polygon fill="white" stroke="black" points="242,-124 188,-124 188,-88 242,-88 242,-124"/>
<text text-anchor="middle" x="215" y="-103.5" font-family="Helvetica,sans-Serif" font-size="10.00">vi</text>
</a>
</g>
</g>
<!-- dir_4f0979a7f5e3194619cde56505e372d8&#45;&gt;dir_f31be668b848c94749c2480e14c4b615 -->
<g id="edge36" class="edge">
<title>dir_4f0979a7f5e3194619cde56505e372d8&#45;&gt;dir_f31be668b848c94749c2480e14c4b615</title>
<path fill="none" stroke="black" d="M187.74,-231.87C193.05,-207.56 202.81,-162.82 209.1,-134.01"/>
<polygon fill="black" stroke="black" points="212.53,-134.71 211.25,-124.19 205.7,-133.21 212.53,-134.71"/>
<g id="a_edge36&#45;headlabel"><a xlink:href="dir_000054_000127.html" target="_top" xlink:title="1">
<text text-anchor="middle" x="214.54" y="-136.32" font-family="Helvetica,sans-Serif" font-size="10.00">1</text>
</a>
</g>
</g>
<!-- dir_6bdfff2c28f90f381b6da5bee088878b&#45;&gt;dir_cc3ad1aed4be3f446fdd7af78322f5bf -->
<g id="edge16" class="edge">
<title>dir_6bdfff2c28f90f381b6da5bee088878b&#45;&gt;dir_cc3ad1aed4be3f446fdd7af78322f5bf</title>
<path fill="none" stroke="black" d="M278.21,-412.1C272.4,-420.47 264.42,-430.69 256.57,-439.92"/>
<polygon fill="black" stroke="black" points="253.71,-437.87 249.76,-447.7 258.98,-442.48 253.71,-437.87"/>
<g id="a_edge16&#45;headlabel"><a xlink:href="dir_000111_000004.html" target="_top" xlink:title="1">
<text text-anchor="middle" x="253.94" y="-430.79" font-family="Helvetica,sans-Serif" font-size="10.00">1</text>
</a>
</g>
</g>
<!-- dir_6bdfff2c28f90f381b6da5bee088878b&#45;&gt;dir_b778c3f297ab88300258a2935792c8cc -->
<g id="edge19" class="edge">
<title>dir_6bdfff2c28f90f381b6da5bee088878b&#45;&gt;dir_b778c3f297ab88300258a2935792c8cc</title>
<path fill="none" stroke="black" d="M292.17,-375.88C298.68,-357.91 309.32,-328.88 319,-304 354.18,-213.55 412.19,-163.33 351,-88 326.74,-58.13 283.42,-45.05 252.18,-39.35"/>
<polygon fill="black" stroke="black" points="252.53,-35.86 242.09,-37.69 251.39,-42.77 252.53,-35.86"/>
<g id="a_edge19&#45;headlabel"><a xlink:href="dir_000111_000047.html" target="_top" xlink:title="3">
<text text-anchor="middle" x="256.54" y="-31.14" font-family="Helvetica,sans-Serif" font-size="10.00">3</text>
</a>
</g>
</g>
<!-- dir_6bdfff2c28f90f381b6da5bee088878b&#45;&gt;dir_4f0979a7f5e3194619cde56505e372d8 -->
<g id="edge17" class="edge">
<title>dir_6bdfff2c28f90f381b6da5bee088878b&#45;&gt;dir_4f0979a7f5e3194619cde56505e372d8</title>
<path fill="none" stroke="black" d="M280.53,-375.77C274.01,-356.94 261.84,-326.45 245,-304 236.9,-293.2 226.26,-283.02 216.14,-274.53"/>
<polygon fill="black" stroke="black" points="218.18,-271.68 208.2,-268.11 213.77,-277.12 218.18,-271.68"/>
<g id="a_edge17&#45;headlabel"><a xlink:href="dir_000111_000054.html" target="_top" xlink:title="10">
<text text-anchor="middle" x="222.76" y="-269.23" font-family="Helvetica,sans-Serif" font-size="10.00">10</text>
</a>
</g>
</g>
<!-- dir_6bdfff2c28f90f381b6da5bee088878b&#45;&gt;dir_7b371d9fdb0359ac564866f88df60f77 -->
<g id="edge20" class="edge">
<title>dir_6bdfff2c28f90f381b6da5bee088878b&#45;&gt;dir_7b371d9fdb0359ac564866f88df60f77</title>
<path fill="none" stroke="black" d="M289.29,-375.85C296.39,-338.75 313.24,-250.81 321.81,-206.1"/>
<polygon fill="black" stroke="black" points="325.25,-206.71 323.7,-196.23 318.38,-205.4 325.25,-206.71"/>
<g id="a_edge20&#45;headlabel"><a xlink:href="dir_000111_000121.html" target="_top" xlink:title="2">
<text text-anchor="middle" x="327.37" y="-208.28" font-family="Helvetica,sans-Serif" font-size="10.00">2</text>
</a>
</g>
</g>
<!-- dir_6bdfff2c28f90f381b6da5bee088878b&#45;&gt;dir_76ec03b56887a0e8201bcb48abf48018 -->
<g id="edge18" class="edge">
<title>dir_6bdfff2c28f90f381b6da5bee088878b&#45;&gt;dir_76ec03b56887a0e8201bcb48abf48018</title>
<path fill="none" stroke="black" d="M261.05,-375.88C247.96,-366.89 231.74,-355.76 217.56,-346.03"/>
<polygon fill="black" stroke="black" points="219.27,-342.96 209.05,-340.19 215.31,-348.73 219.27,-342.96"/>
<g id="a_edge18&#45;headlabel"><a xlink:href="dir_000111_000123.html" target="_top" xlink:title="1">
<text text-anchor="middle" x="223.84" y="-340.16" font-family="Helvetica,sans-Serif" font-size="10.00">1</text>
</a>
</g>
</g>
<!-- dir_6bdfff2c28f90f381b6da5bee088878b&#45;&gt;dir_81939fb769658ab66ba54ec390580a1a -->
<g id="edge15" class="edge">
<title>dir_6bdfff2c28f90f381b6da5bee088878b&#45;&gt;dir_81939fb769658ab66ba54ec390580a1a</title>
<path fill="none" stroke="black" d="M304.54,-375.7C313.8,-367.05 325.16,-356.45 335.26,-347.03"/>
<polygon fill="black" stroke="black" points="337.75,-349.49 342.67,-340.1 332.98,-344.37 337.75,-349.49"/>
<g id="a_edge15&#45;headlabel"><a xlink:href="dir_000111_000128.html" target="_top" xlink:title="2">
<text text-anchor="middle" x="337.06" y="-351.51" font-family="Helvetica,sans-Serif" font-size="10.00">2</text>
</a>
</g>
</g>
<!-- dir_7b371d9fdb0359ac564866f88df60f77&#45;&gt;dir_b778c3f297ab88300258a2935792c8cc -->
<g id="edge28" class="edge">
<title>dir_7b371d9fdb0359ac564866f88df60f77&#45;&gt;dir_b778c3f297ab88300258a2935792c8cc</title>
<path fill="none" stroke="black" d="M336.91,-159.77C346.45,-140.66 357.48,-109.67 343,-88 322.92,-57.95 282.3,-44.91 252.18,-39.28"/>
<polygon fill="black" stroke="black" points="252.46,-35.77 242.02,-37.57 251.3,-42.68 252.46,-35.77"/>
<g id="a_edge28&#45;headlabel"><a xlink:href="dir_000121_000047.html" target="_top" xlink:title="1">
<text text-anchor="middle" x="256.47" y="-31.07" font-family="Helvetica,sans-Serif" font-size="10.00">1</text>
</a>
</g>
</g>
<!-- dir_7b371d9fdb0359ac564866f88df60f77&#45;&gt;dir_b2a98ef39d7a74ac1f5af67b89b07b4d -->
<g id="edge27" class="edge">
<title>dir_7b371d9fdb0359ac564866f88df60f77&#45;&gt;dir_b2a98ef39d7a74ac1f5af67b89b07b4d</title>
<path fill="none" stroke="black" d="M322.06,-159.7C319.83,-151.9 317.15,-142.51 314.67,-133.83"/>
<polygon fill="black" stroke="black" points="318,-132.76 311.89,-124.1 311.27,-134.68 318,-132.76"/>
<g id="a_edge27&#45;headlabel"><a xlink:href="dir_000121_000048.html" target="_top" xlink:title="1">
<text text-anchor="middle" x="321.72" y="-132.93" font-family="Helvetica,sans-Serif" font-size="10.00">1</text>
</a>
</g>
</g>
<!-- dir_76ec03b56887a0e8201bcb48abf48018&#45;&gt;dir_b778c3f297ab88300258a2935792c8cc -->
<g id="edge5" class="edge">
<title>dir_76ec03b56887a0e8201bcb48abf48018&#45;&gt;dir_b778c3f297ab88300258a2935792c8cc</title>
<path fill="none" stroke="black" d="M159.29,-303.88C130.8,-282.47 85.51,-242.86 67,-196 61.12,-181.12 64.84,-175.85 67,-160 71.49,-127.09 64.99,-112.87 87,-88 110.43,-61.53 149.14,-47.99 177.86,-41.25"/>
<polygon fill="black" stroke="black" points="178.92,-44.6 187.95,-39.07 177.43,-37.76 178.92,-44.6"/>
<g id="a_edge5&#45;headlabel"><a xlink:href="dir_000123_000047.html" target="_top" xlink:title="2">
<text text-anchor="middle" x="176.01" y="-45.64" font-family="Helvetica,sans-Serif" font-size="10.00">2</text>
</a>
</g>
</g>
<!-- dir_76ec03b56887a0e8201bcb48abf48018&#45;&gt;dir_33eed416d00e84841337708fc7e11b48 -->
<g id="edge3" class="edge">
<title>dir_76ec03b56887a0e8201bcb48abf48018&#45;&gt;dir_33eed416d00e84841337708fc7e11b48</title>
<path fill="none" stroke="black" d="M187.45,-340.1C187.16,-347.79 186.07,-357.05 184.51,-365.67"/>
<polygon fill="black" stroke="black" points="181.03,-365.19 182.39,-375.7 187.88,-366.64 181.03,-365.19"/>
<g id="a_edge3&#45;headlabel"><a xlink:href="dir_000123_000049.html" target="_top" xlink:title="1">
<text text-anchor="middle" x="179" y="-358.58" font-family="Helvetica,sans-Serif" font-size="10.00">1</text>
</a>
</g>
</g>
<!-- dir_76ec03b56887a0e8201bcb48abf48018&#45;&gt;dir_4f0979a7f5e3194619cde56505e372d8 -->
<g id="edge4" class="edge">
<title>dir_76ec03b56887a0e8201bcb48abf48018&#45;&gt;dir_4f0979a7f5e3194619cde56505e372d8</title>
<path fill="none" stroke="black" d="M184,-303.7C184,-295.98 184,-286.71 184,-278.11"/>
<polygon fill="black" stroke="black" points="187.5,-278.1 184,-268.1 180.5,-278.1 187.5,-278.1"/>
<g id="a_edge4&#45;headlabel"><a xlink:href="dir_000123_000054.html" target="_top" xlink:title="1">
<text text-anchor="middle" x="190.34" y="-279.2" font-family="Helvetica,sans-Serif" font-size="10.00">1</text>
</a>
</g>
</g>
<!-- dir_e15434bc39fd5742af3da48344882396 -->
<g id="node14" class="node">
<title>dir_e15434bc39fd5742af3da48344882396</title>
<g id="a_node14"><a xlink:href="dir_e15434bc39fd5742af3da48344882396.html" target="_top" xlink:title="SStandard">
<polygon fill="white" stroke="black" points="138,-484 76,-484 76,-448 138,-448 138,-484"/>
<text text-anchor="middle" x="107" y="-463.5" font-family="Helvetica,sans-Serif" font-size="10.00">SStandard</text>
</a>
</g>
</g>
<!-- dir_f31be668b848c94749c2480e14c4b615&#45;&gt;dir_b778c3f297ab88300258a2935792c8cc -->
<g id="edge14" class="edge">
<title>dir_f31be668b848c94749c2480e14c4b615&#45;&gt;dir_b778c3f297ab88300258a2935792c8cc</title>
<path fill="none" stroke="black" d="M215,-87.7C215,-79.98 215,-70.71 215,-62.11"/>
<polygon fill="black" stroke="black" points="218.5,-62.1 215,-52.1 211.5,-62.1 218.5,-62.1"/>
<g id="a_edge14&#45;headlabel"><a xlink:href="dir_000127_000047.html" target="_top" xlink:title="1">
<text text-anchor="middle" x="221.34" y="-63.2" font-family="Helvetica,sans-Serif" font-size="10.00">1</text>
</a>
</g>
</g>
<!-- dir_81939fb769658ab66ba54ec390580a1a&#45;&gt;dir_b778c3f297ab88300258a2935792c8cc -->
<g id="edge2" class="edge">
<title>dir_81939fb769658ab66ba54ec390580a1a&#45;&gt;dir_b778c3f297ab88300258a2935792c8cc</title>
<path fill="none" stroke="black" d="M369.11,-303.74C387.35,-262.09 426.39,-154.62 378,-88 349.47,-48.72 291.09,-37.98 252.51,-35.36"/>
<polygon fill="black" stroke="black" points="252.36,-31.84 242.19,-34.82 251.99,-38.83 252.36,-31.84"/>
<g id="a_edge2&#45;headlabel"><a xlink:href="dir_000128_000047.html" target="_top" xlink:title="6">
<text text-anchor="middle" x="256.1" y="-26.7" font-family="Helvetica,sans-Serif" font-size="10.00">6</text>
</a>
</g>
</g>
<!-- dir_81939fb769658ab66ba54ec390580a1a&#45;&gt;dir_4f0979a7f5e3194619cde56505e372d8 -->
<g id="edge1" class="edge">
<title>dir_81939fb769658ab66ba54ec390580a1a&#45;&gt;dir_4f0979a7f5e3194619cde56505e372d8</title>
<path fill="none" stroke="black" d="M327.93,-309.21C299.41,-298.87 257.2,-283.15 221,-268 220.91,-267.96 220.81,-267.92 220.72,-267.88"/>
<polygon fill="black" stroke="black" points="222.36,-264.78 211.79,-264.02 219.58,-271.2 222.36,-264.78"/>
<g id="a_edge1&#45;headlabel"><a xlink:href="dir_000128_000054.html" target="_top" xlink:title="22">
<text text-anchor="middle" x="226.78" y="-261.1" font-family="Helvetica,sans-Serif" font-size="10.00">22</text>
</a>
</g>
</g>
</g>
</svg>
        <g id="navigator" transform="translate(0 0)" fill="#404254">
                <rect fill="#f2f5e9" fill-opacity="0.5" stroke="#606060" stroke-width=".5" x="0" y="0" width="60" height="60"/>
                <use id="zoomplus" xlink:href="#zoomPlus" x="17" y="9" onmousedown="handleZoom(evt,'in')"/>
                <use id="zoomminus" xlink:href="#zoomMin" x="42" y="9" onmousedown="handleZoom(evt,'out')"/>
                <use id="reset" xlink:href="#resetDef" x="30" y="36" onmousedown="handleReset()"/>
                <g id="arrowUp" xlink:href="#dirArrow" transform="translate(30 24)" onmousedown="handlePan(0,-1)">
                  <use xlink:href="#rim" fill="#404040">
                        <set attributeName="fill" to="#808080" begin="arrowUp.mouseover" end="arrowUp.mouseout"/>
                  </use>
                  <path fill="none" stroke="white" stroke-width="1.5" d="M0,-3.0v7 M-2.5,-0.5L0,-3.0L2.5,-0.5"/>
                </g>
                <g id="arrowRight" xlink:href="#dirArrow" transform="rotate(90) translate(36 -43)" onmousedown="handlePan(1,0)">
                  <use xlink:href="#rim" fill="#404040">
                        <set attributeName="fill" to="#808080" begin="arrowRight.mouseover" end="arrowRight.mouseout"/>
                  </use>
                  <path fill="none" stroke="white" stroke-width="1.5" d="M0,-3.0v7 M-2.5,-0.5L0,-3.0L2.5,-0.5"/>
                </g>
                <g id="arrowDown" xlink:href="#dirArrow" transform="rotate(180) translate(-30 -48)" onmousedown="handlePan(0,1)">
                  <use xlink:href="#rim" fill="#404040">
                        <set attributeName="fill" to="#808080" begin="arrowDown.mouseover" end="arrowDown.mouseout"/>
                  </use>
                  <path fill="none" stroke="white" stroke-width="1.5" d="M0,-3.0v7 M-2.5,-0.5L0,-3.0L2.5,-0.5"/>
                </g>
                <g id="arrowLeft" xlink:href="#dirArrow" transform="rotate(270) translate(-36 17)" onmousedown="handlePan(-1,0)">
                  <use xlink:href="#rim" fill="#404040">
                        <set attributeName="fill" to="#808080" begin="arrowLeft.mouseover" end="arrowLeft.mouseout"/>
                  </use>
                  <path fill="none" stroke="white" stroke-width="1.5" d="M0,-3.0v7 M-2.5,-0.5L0,-3.0L2.5,-0.5"/>
                </g>
        </g>
        <svg viewBox="0 0 15 15" width="100%" height="30px" preserveAspectRatio="xMaxYMin meet">
         <g id="arrow_out" transform="scale(0.3 0.3)">
          <a xlink:href="dir_d44c64559bbebec7f509842c48db8b23_dep_org.svg" target="_base">
           <rect id="button" ry="5" rx="5" y="6" x="6" height="38" width="38"
                fill="#f2f5e9" fill-opacity="0.5" stroke="#606060" stroke-width="1.0"/>
           <path id="arrow"
             d="M 11.500037,31.436501 C 11.940474,20.09759 22.043105,11.32322 32.158766,21.979434 L 37.068811,17.246167 C 37.068811,17.246167 37.088388,32 37.088388,32 L 22.160133,31.978069 C 22.160133,31.978069 26.997745,27.140456 26.997745,27.140456 C 18.528582,18.264221 13.291696,25.230495 11.500037,31.436501 z"
             style="fill:#404040;"/>
          </a>
         </g>
        </svg>
</svg>
