<?xml version="1.0" encoding="UTF-8" standalone="no"?>
<!DOCTYPE svg PUBLIC "-//W3C//DTD SVG 1.1//EN"
 "http://www.w3.org/Graphics/SVG/1.1/DTD/svg11.dtd">
<!-- Generated by graphviz version 2.46.1 (20210215.1649)
 -->
<!-- Title: include/d/d_meter2/d_meter2_info Pages: 1 -->
<svg width="119pt" height="223pt"
 viewBox="0.00 0.00 118.50 223.00" xmlns="http://www.w3.org/2000/svg" xmlns:xlink="http://www.w3.org/1999/xlink">
<g id="graph0" class="graph" transform="scale(1 1) rotate(0) translate(4 219)">
<title>include/d/d_meter2/d_meter2_info</title>
<polygon fill="white" stroke="transparent" points="-4,4 -4,-219 114.5,-219 114.5,4 -4,4"/>
<g id="clust1" class="cluster">
<title>clusterdir_ba250834b20bd8d7c615daef03b7057f</title>
<g id="a_clust1"><a xlink:href="dir_ba250834b20bd8d7c615daef03b7057f.html" target="_top" xlink:title="d_meter2">
<polygon fill="#ddddee" stroke="black" points="8.5,-136 8.5,-207 102.5,-207 102.5,-136 8.5,-136"/>
<text text-anchor="middle" x="55.5" y="-195" font-family="Helvetica,sans-Serif" font-size="10.00">d_meter2</text>
</a>
</g>
</g>
<!-- dir_1a1e0ecfae07493cbd7431658a04b2cb -->
<g id="node1" class="node">
<title>dir_1a1e0ecfae07493cbd7431658a04b2cb</title>
<g id="a_node1"><a xlink:href="dir_1a1e0ecfae07493cbd7431658a04b2cb.html" target="_top" xlink:title="d_meter2_info">
<polygon fill="#eeeeff" stroke="black" points="94.5,-180 16.5,-180 16.5,-144 94.5,-144 94.5,-180"/>
<text text-anchor="middle" x="55.5" y="-159.5" font-family="Helvetica,sans-Serif" font-size="10.00">d_meter2_info</text>
</a>
</g>
</g>
<!-- dir_4f0979a7f5e3194619cde56505e372d8 -->
<g id="node2" class="node">
<title>dir_4f0979a7f5e3194619cde56505e372d8</title>
<g id="a_node2"><a xlink:href="dir_4f0979a7f5e3194619cde56505e372d8.html" target="_top" xlink:title="JSystem">
<polygon fill="white" stroke="red" points="55,-108 0,-108 0,-72 55,-72 55,-108"/>
<text text-anchor="middle" x="27.5" y="-87.5" font-family="Helvetica,sans-Serif" font-size="10.00">JSystem</text>
</a>
</g>
</g>
<!-- dir_1a1e0ecfae07493cbd7431658a04b2cb&#45;&gt;dir_4f0979a7f5e3194619cde56505e372d8 -->
<g id="edge1" class="edge">
<title>dir_1a1e0ecfae07493cbd7431658a04b2cb&#45;&gt;dir_4f0979a7f5e3194619cde56505e372d8</title>
<path fill="none" stroke="black" d="M48.58,-143.7C45.43,-135.81 41.62,-126.3 38.12,-117.55"/>
<polygon fill="black" stroke="black" points="41.31,-116.09 34.34,-108.1 34.81,-118.69 41.31,-116.09"/>
<g id="a_edge1&#45;headlabel"><a xlink:href="dir_000037_000054.html" target="_top" xlink:title="5">
<text text-anchor="middle" x="45.28" y="-115.87" font-family="Helvetica,sans-Serif" font-size="10.00">5</text>
</a>
</g>
</g>
<!-- dir_b778c3f297ab88300258a2935792c8cc -->
<g id="node3" class="node">
<title>dir_b778c3f297ab88300258a2935792c8cc</title>
<g id="a_node3"><a xlink:href="dir_b778c3f297ab88300258a2935792c8cc.html" target="_top" xlink:title="dolphin">
<polygon fill="none" stroke="black" points="82.5,-36 28.5,-36 28.5,0 82.5,0 82.5,-36"/>
<text text-anchor="middle" x="55.5" y="-15.5" font-family="Helvetica,sans-Serif" font-size="10.00">dolphin</text>
</a>
</g>
</g>
<!-- dir_1a1e0ecfae07493cbd7431658a04b2cb&#45;&gt;dir_b778c3f297ab88300258a2935792c8cc -->
<g id="edge2" class="edge">
<title>dir_1a1e0ecfae07493cbd7431658a04b2cb&#45;&gt;dir_b778c3f297ab88300258a2935792c8cc</title>
<path fill="none" stroke="black" d="M59.15,-143.91C61.18,-133.57 63.48,-120.09 64.5,-108 65.84,-92.06 65.84,-87.94 64.5,-72 63.78,-63.5 62.43,-54.31 60.99,-46.01"/>
<polygon fill="black" stroke="black" points="64.41,-45.29 59.15,-36.09 57.53,-46.56 64.41,-45.29"/>
<g id="a_edge2&#45;headlabel"><a xlink:href="dir_000037_000047.html" target="_top" xlink:title="1">
<text text-anchor="middle" x="67.86" y="-45.81" font-family="Helvetica,sans-Serif" font-size="10.00">1</text>
</a>
</g>
</g>
<!-- dir_4f0979a7f5e3194619cde56505e372d8&#45;&gt;dir_b778c3f297ab88300258a2935792c8cc -->
<g id="edge3" class="edge">
<title>dir_4f0979a7f5e3194619cde56505e372d8&#45;&gt;dir_b778c3f297ab88300258a2935792c8cc</title>
<path fill="none" stroke="black" d="M34.42,-71.7C37.57,-63.81 41.38,-54.3 44.88,-45.55"/>
<polygon fill="black" stroke="black" points="48.19,-46.69 48.66,-36.1 41.69,-44.09 48.19,-46.69"/>
<g id="a_edge3&#45;headlabel"><a xlink:href="dir_000054_000047.html" target="_top" xlink:title="50">
<text text-anchor="middle" x="49.5" y="-48.58" font-family="Helvetica,sans-Serif" font-size="10.00">50</text>
</a>
</g>
</g>
</g>
</svg>
