<?xml version="1.0" encoding="UTF-8" standalone="no"?>
<!DOCTYPE svg PUBLIC "-//W3C//DTD SVG 1.1//EN"
 "http://www.w3.org/Graphics/SVG/1.1/DTD/svg11.dtd">
<!-- Generated by graphviz version 2.46.1 (20210215.1649)
 -->
<!-- Title: include/d/d_file Pages: 1 -->
<svg width="304pt" height="175pt"
 viewBox="0.00 0.00 303.50 175.00" xmlns="http://www.w3.org/2000/svg" xmlns:xlink="http://www.w3.org/1999/xlink">
<g id="graph0" class="graph" transform="scale(1 1) rotate(0) translate(4 171)">
<title>include/d/d_file</title>
<polygon fill="white" stroke="transparent" points="-4,4 -4,-171 299.5,-171 299.5,4 -4,4"/>
<g id="clust1" class="cluster">
<title>clusterdir_cc3ad1aed4be3f446fdd7af78322f5bf</title>
<g id="a_clust1"><a xlink:href="dir_cc3ad1aed4be3f446fdd7af78322f5bf.html" target="_top" xlink:title="d">
<polygon fill="#ddddee" stroke="black" points="8,-8 8,-159 230,-159 230,-8 8,-8"/>
<text text-anchor="middle" x="119" y="-147" font-family="Helvetica,sans-Serif" font-size="10.00">d</text>
</a>
</g>
</g>
<g id="clust2" class="cluster">
<title>clusterdir_7159d190278c470138421132a1583e6a</title>
<g id="a_clust2"><a xlink:href="dir_7159d190278c470138421132a1583e6a.html" target="_top">
<polygon fill="#eeeeff" stroke="black" points="56,-80 56,-132 222,-132 222,-80 56,-80"/>
</a>
</g>
</g>
<!-- dir_89d018f6522593b606270e65dcd55a5d -->
<g id="node1" class="node">
<title>dir_89d018f6522593b606270e65dcd55a5d</title>
<g id="a_node1"><a xlink:href="dir_89d018f6522593b606270e65dcd55a5d.html" target="_top" xlink:title="d_drawlist">
<polygon fill="none" stroke="black" points="77.5,-52 16.5,-52 16.5,-16 77.5,-16 77.5,-52"/>
<text text-anchor="middle" x="47" y="-31.5" font-family="Helvetica,sans-Serif" font-size="10.00">d_drawlist</text>
</a>
</g>
</g>
<!-- dir_36d288fdd243ef3949d81306475bb795 -->
<g id="node2" class="node">
<title>dir_36d288fdd243ef3949d81306475bb795</title>
<g id="a_node2"><a xlink:href="dir_36d288fdd243ef3949d81306475bb795.html" target="_top" xlink:title="d_pane">
<polygon fill="white" stroke="red" points="150,-52 96,-52 96,-16 150,-16 150,-52"/>
<text text-anchor="middle" x="123" y="-31.5" font-family="Helvetica,sans-Serif" font-size="10.00">d_pane</text>
</a>
</g>
</g>
<!-- dir_063c165614e438cbcf770f6656a50335 -->
<g id="node3" class="node">
<title>dir_063c165614e438cbcf770f6656a50335</title>
<g id="a_node3"><a xlink:href="dir_063c165614e438cbcf770f6656a50335.html" target="_top" xlink:title="d_save">
<polygon fill="white" stroke="red" points="222,-52 168,-52 168,-16 222,-16 222,-52"/>
<text text-anchor="middle" x="195" y="-31.5" font-family="Helvetica,sans-Serif" font-size="10.00">d_save</text>
</a>
</g>
</g>
<!-- dir_7159d190278c470138421132a1583e6a -->
<g id="node4" class="node">
<title>dir_7159d190278c470138421132a1583e6a</title>
<text text-anchor="middle" x="187" y="-103.5" font-family="Helvetica,sans-Serif" font-size="10.00">d_file</text>
</g>
<!-- dir_3cc4811a954a79f25aabe0cbc9a2419e -->
<g id="node5" class="node">
<title>dir_3cc4811a954a79f25aabe0cbc9a2419e</title>
<g id="a_node5"><a xlink:href="dir_3cc4811a954a79f25aabe0cbc9a2419e.html" target="_top" xlink:title="d_file_sel_info">
<polygon fill="white" stroke="black" points="142,-124 64,-124 64,-88 142,-88 142,-124"/>
<text text-anchor="middle" x="103" y="-103.5" font-family="Helvetica,sans-Serif" font-size="10.00">d_file_sel_info</text>
</a>
</g>
</g>
<!-- dir_3cc4811a954a79f25aabe0cbc9a2419e&#45;&gt;dir_89d018f6522593b606270e65dcd55a5d -->
<g id="edge4" class="edge">
<title>dir_3cc4811a954a79f25aabe0cbc9a2419e&#45;&gt;dir_89d018f6522593b606270e65dcd55a5d</title>
<path fill="none" stroke="black" d="M89.16,-87.7C82.51,-79.39 74.42,-69.28 67.11,-60.14"/>
<polygon fill="black" stroke="black" points="69.66,-57.73 60.68,-52.1 64.2,-62.1 69.66,-57.73"/>
<g id="a_edge4&#45;headlabel"><a xlink:href="dir_000027_000021.html" target="_top" xlink:title="1">
<text text-anchor="middle" x="74.13" y="-56.26" font-family="Helvetica,sans-Serif" font-size="10.00">1</text>
</a>
</g>
</g>
<!-- dir_3cc4811a954a79f25aabe0cbc9a2419e&#45;&gt;dir_36d288fdd243ef3949d81306475bb795 -->
<g id="edge2" class="edge">
<title>dir_3cc4811a954a79f25aabe0cbc9a2419e&#45;&gt;dir_36d288fdd243ef3949d81306475bb795</title>
<path fill="none" stroke="black" d="M107.94,-87.7C110.17,-79.9 112.85,-70.51 115.33,-61.83"/>
<polygon fill="black" stroke="black" points="118.73,-62.68 118.11,-52.1 112,-60.76 118.73,-62.68"/>
<g id="a_edge2&#45;headlabel"><a xlink:href="dir_000027_000038.html" target="_top" xlink:title="1">
<text text-anchor="middle" x="120.47" y="-64.42" font-family="Helvetica,sans-Serif" font-size="10.00">1</text>
</a>
</g>
</g>
<!-- dir_3cc4811a954a79f25aabe0cbc9a2419e&#45;&gt;dir_063c165614e438cbcf770f6656a50335 -->
<g id="edge1" class="edge">
<title>dir_3cc4811a954a79f25aabe0cbc9a2419e&#45;&gt;dir_063c165614e438cbcf770f6656a50335</title>
<path fill="none" stroke="black" d="M125.74,-87.7C137.44,-78.8 151.86,-67.82 164.51,-58.2"/>
<polygon fill="black" stroke="black" points="166.68,-60.94 172.52,-52.1 162.44,-55.37 166.68,-60.94"/>
<g id="a_edge1&#45;headlabel"><a xlink:href="dir_000027_000041.html" target="_top" xlink:title="1">
<text text-anchor="middle" x="165.54" y="-62.88" font-family="Helvetica,sans-Serif" font-size="10.00">1</text>
</a>
</g>
</g>
<!-- dir_4f0979a7f5e3194619cde56505e372d8 -->
<g id="node6" class="node">
<title>dir_4f0979a7f5e3194619cde56505e372d8</title>
<g id="a_node6"><a xlink:href="dir_4f0979a7f5e3194619cde56505e372d8.html" target="_top" xlink:title="JSystem">
<polygon fill="white" stroke="red" points="295.5,-52 240.5,-52 240.5,-16 295.5,-16 295.5,-52"/>
<text text-anchor="middle" x="268" y="-31.5" font-family="Helvetica,sans-Serif" font-size="10.00">JSystem</text>
</a>
</g>
</g>
<!-- dir_3cc4811a954a79f25aabe0cbc9a2419e&#45;&gt;dir_4f0979a7f5e3194619cde56505e372d8 -->
<g id="edge3" class="edge">
<title>dir_3cc4811a954a79f25aabe0cbc9a2419e&#45;&gt;dir_4f0979a7f5e3194619cde56505e372d8</title>
<path fill="none" stroke="black" d="M134.16,-87.88C139.7,-85.1 145.47,-82.36 151,-80 184.02,-65.93 196.15,-66.72 230.95,-53.04"/>
<polygon fill="black" stroke="black" points="232.37,-56.24 240.31,-49.23 229.73,-49.76 232.37,-56.24"/>
<g id="a_edge3&#45;headlabel"><a xlink:href="dir_000027_000054.html" target="_top" xlink:title="3">
<text text-anchor="middle" x="230.11" y="-57.73" font-family="Helvetica,sans-Serif" font-size="10.00">3</text>
</a>
</g>
</g>
</g>
</svg>
