<?xml version="1.0" encoding="UTF-8" standalone="no"?>
<!DOCTYPE svg PUBLIC "-//W3C//DTD SVG 1.1//EN"
 "http://www.w3.org/Graphics/SVG/1.1/DTD/svg11.dtd">
<!-- Generated by graphviz version 2.46.1 (20210215.1649)
 -->
<!-- Title: include/f/f_op Pages: 1 -->
<svg width="230pt" height="295pt"
 viewBox="0.00 0.00 230.37 295.00" xmlns="http://www.w3.org/2000/svg" xmlns:xlink="http://www.w3.org/1999/xlink">
<g id="graph0" class="graph" transform="scale(1 1) rotate(0) translate(4 291)">
<title>include/f/f_op</title>
<polygon fill="white" stroke="transparent" points="-4,4 -4,-291 226.37,-291 226.37,4 -4,4"/>
<g id="clust1" class="cluster">
<title>clusterdir_33eed416d00e84841337708fc7e11b48</title>
<g id="a_clust1"><a xlink:href="dir_33eed416d00e84841337708fc7e11b48.html" target="_top" xlink:title="f">
<polygon fill="#ddddee" stroke="black" points="8,-136 8,-279 78,-279 78,-136 8,-136"/>
<text text-anchor="middle" x="43" y="-267" font-family="Helvetica,sans-Serif" font-size="10.00">f</text>
</a>
</g>
</g>
<!-- dir_240ab0ee7b26e6185d01a5528f19cc96 -->
<g id="node1" class="node">
<title>dir_240ab0ee7b26e6185d01a5528f19cc96</title>
<g id="a_node1"><a xlink:href="dir_240ab0ee7b26e6185d01a5528f19cc96.html" target="_top" xlink:title="f_pc">
<polygon fill="none" stroke="black" points="70,-180 16,-180 16,-144 70,-144 70,-180"/>
<text text-anchor="middle" x="43" y="-159.5" font-family="Helvetica,sans-Serif" font-size="10.00">f_pc</text>
</a>
</g>
</g>
<!-- dir_76ec03b56887a0e8201bcb48abf48018 -->
<g id="node4" class="node">
<title>dir_76ec03b56887a0e8201bcb48abf48018</title>
<g id="a_node4"><a xlink:href="dir_76ec03b56887a0e8201bcb48abf48018.html" target="_top" xlink:title="SComponent">
<polygon fill="white" stroke="red" points="199.5,-180 126.5,-180 126.5,-144 199.5,-144 199.5,-180"/>
<text text-anchor="middle" x="163" y="-159.5" font-family="Helvetica,sans-Serif" font-size="10.00">SComponent</text>
</a>
</g>
</g>
<!-- dir_240ab0ee7b26e6185d01a5528f19cc96&#45;&gt;dir_76ec03b56887a0e8201bcb48abf48018 -->
<g id="edge8" class="edge">
<title>dir_240ab0ee7b26e6185d01a5528f19cc96&#45;&gt;dir_76ec03b56887a0e8201bcb48abf48018</title>
<path fill="none" stroke="black" d="M70.19,-162C85.55,-162 100.92,-162 116.29,-162"/>
<polygon fill="black" stroke="black" points="116.38,-165.5 126.38,-162 116.38,-158.5 116.38,-165.5"/>
<g id="a_edge8&#45;headlabel"><a xlink:href="dir_000052_000123.html" target="_top" xlink:title="22">
<text text-anchor="middle" x="112.79" y="-165.84" font-family="Helvetica,sans-Serif" font-size="10.00">22</text>
</a>
</g>
</g>
<!-- dir_6211f66a236c7493ac6590a5658cd8e8 -->
<g id="node2" class="node">
<title>dir_6211f66a236c7493ac6590a5658cd8e8</title>
<g id="a_node2"><a xlink:href="dir_6211f66a236c7493ac6590a5658cd8e8.html" target="_top" xlink:title="f_op">
<polygon fill="#eeeeff" stroke="black" points="70,-252 16,-252 16,-216 70,-216 70,-252"/>
<text text-anchor="middle" x="43" y="-231.5" font-family="Helvetica,sans-Serif" font-size="10.00">f_op</text>
</a>
</g>
</g>
<!-- dir_6211f66a236c7493ac6590a5658cd8e8&#45;&gt;dir_240ab0ee7b26e6185d01a5528f19cc96 -->
<g id="edge1" class="edge">
<title>dir_6211f66a236c7493ac6590a5658cd8e8&#45;&gt;dir_240ab0ee7b26e6185d01a5528f19cc96</title>
<path fill="none" stroke="black" d="M43,-215.7C43,-207.98 43,-198.71 43,-190.11"/>
<polygon fill="black" stroke="black" points="46.5,-190.1 43,-180.1 39.5,-190.1 46.5,-190.1"/>
<g id="a_edge1&#45;headlabel"><a xlink:href="dir_000051_000052.html" target="_top" xlink:title="6">
<text text-anchor="middle" x="49.34" y="-191.2" font-family="Helvetica,sans-Serif" font-size="10.00">6</text>
</a>
</g>
</g>
<!-- dir_4f0979a7f5e3194619cde56505e372d8 -->
<g id="node3" class="node">
<title>dir_4f0979a7f5e3194619cde56505e372d8</title>
<g id="a_node3"><a xlink:href="dir_4f0979a7f5e3194619cde56505e372d8.html" target="_top" xlink:title="JSystem">
<polygon fill="white" stroke="red" points="147.5,-108 92.5,-108 92.5,-72 147.5,-72 147.5,-108"/>
<text text-anchor="middle" x="120" y="-87.5" font-family="Helvetica,sans-Serif" font-size="10.00">JSystem</text>
</a>
</g>
</g>
<!-- dir_6211f66a236c7493ac6590a5658cd8e8&#45;&gt;dir_4f0979a7f5e3194619cde56505e372d8 -->
<g id="edge2" class="edge">
<title>dir_6211f66a236c7493ac6590a5658cd8e8&#45;&gt;dir_4f0979a7f5e3194619cde56505e372d8</title>
<path fill="none" stroke="black" d="M55.75,-215.8C63,-205.65 72,-192.4 79,-180 90.51,-159.63 101.48,-135.46 109.18,-117.45"/>
<polygon fill="black" stroke="black" points="112.44,-118.72 113.1,-108.14 105.99,-116 112.44,-118.72"/>
<g id="a_edge2&#45;headlabel"><a xlink:href="dir_000051_000054.html" target="_top" xlink:title="1">
<text text-anchor="middle" x="113.66" y="-120.63" font-family="Helvetica,sans-Serif" font-size="10.00">1</text>
</a>
</g>
</g>
<!-- dir_6211f66a236c7493ac6590a5658cd8e8&#45;&gt;dir_76ec03b56887a0e8201bcb48abf48018 -->
<g id="edge3" class="edge">
<title>dir_6211f66a236c7493ac6590a5658cd8e8&#45;&gt;dir_76ec03b56887a0e8201bcb48abf48018</title>
<path fill="none" stroke="black" d="M70.23,-217.12C86.36,-207.7 107.06,-195.63 124.81,-185.28"/>
<polygon fill="black" stroke="black" points="126.91,-188.11 133.78,-180.04 123.38,-182.06 126.91,-188.11"/>
<g id="a_edge3&#45;headlabel"><a xlink:href="dir_000051_000123.html" target="_top" xlink:title="7">
<text text-anchor="middle" x="125.23" y="-189.87" font-family="Helvetica,sans-Serif" font-size="10.00">7</text>
</a>
</g>
</g>
<!-- dir_b778c3f297ab88300258a2935792c8cc -->
<g id="node5" class="node">
<title>dir_b778c3f297ab88300258a2935792c8cc</title>
<g id="a_node5"><a xlink:href="dir_b778c3f297ab88300258a2935792c8cc.html" target="_top" xlink:title="dolphin">
<polygon fill="none" stroke="black" points="203,-36 149,-36 149,0 203,0 203,-36"/>
<text text-anchor="middle" x="176" y="-15.5" font-family="Helvetica,sans-Serif" font-size="10.00">dolphin</text>
</a>
</g>
</g>
<!-- dir_6211f66a236c7493ac6590a5658cd8e8&#45;&gt;dir_b778c3f297ab88300258a2935792c8cc -->
<g id="edge4" class="edge">
<title>dir_6211f66a236c7493ac6590a5658cd8e8&#45;&gt;dir_b778c3f297ab88300258a2935792c8cc</title>
<path fill="none" stroke="black" d="M70.03,-233.38C108.24,-232.26 176.97,-223.85 209,-180 238.46,-139.67 212.2,-79.22 192.65,-45.02"/>
<polygon fill="black" stroke="black" points="195.48,-42.92 187.37,-36.11 189.46,-46.49 195.48,-42.92"/>
<g id="a_edge4&#45;headlabel"><a xlink:href="dir_000051_000047.html" target="_top" xlink:title="3">
<text text-anchor="middle" x="199.75" y="-42.07" font-family="Helvetica,sans-Serif" font-size="10.00">3</text>
</a>
</g>
</g>
<!-- dir_4f0979a7f5e3194619cde56505e372d8&#45;&gt;dir_b778c3f297ab88300258a2935792c8cc -->
<g id="edge9" class="edge">
<title>dir_4f0979a7f5e3194619cde56505e372d8&#45;&gt;dir_b778c3f297ab88300258a2935792c8cc</title>
<path fill="none" stroke="black" d="M133.84,-71.7C140.49,-63.39 148.58,-53.28 155.89,-44.14"/>
<polygon fill="black" stroke="black" points="158.8,-46.1 162.32,-36.1 153.34,-41.73 158.8,-46.1"/>
<g id="a_edge9&#45;headlabel"><a xlink:href="dir_000054_000047.html" target="_top" xlink:title="50">
<text text-anchor="middle" x="158.77" y="-48.18" font-family="Helvetica,sans-Serif" font-size="10.00">50</text>
</a>
</g>
</g>
<!-- dir_76ec03b56887a0e8201bcb48abf48018&#45;&gt;dir_240ab0ee7b26e6185d01a5528f19cc96 -->
<g id="edge5" class="edge">
<title>dir_76ec03b56887a0e8201bcb48abf48018&#45;&gt;dir_240ab0ee7b26e6185d01a5528f19cc96</title>
<path fill="none" stroke="black" d="M126.38,-162C111.02,-162 95.65,-162 80.29,-162"/>
<polygon fill="black" stroke="black" points="80.19,-158.5 70.19,-162 80.19,-165.5 80.19,-158.5"/>
<g id="a_edge5&#45;headlabel"><a xlink:href="dir_000123_000052.html" target="_top" xlink:title="1">
<text text-anchor="middle" x="83.78" y="-153.16" font-family="Helvetica,sans-Serif" font-size="10.00">1</text>
</a>
</g>
</g>
<!-- dir_76ec03b56887a0e8201bcb48abf48018&#45;&gt;dir_4f0979a7f5e3194619cde56505e372d8 -->
<g id="edge6" class="edge">
<title>dir_76ec03b56887a0e8201bcb48abf48018&#45;&gt;dir_4f0979a7f5e3194619cde56505e372d8</title>
<path fill="none" stroke="black" d="M152.37,-143.7C147.37,-135.56 141.31,-125.69 135.79,-116.7"/>
<polygon fill="black" stroke="black" points="138.72,-114.79 130.51,-108.1 132.76,-118.46 138.72,-114.79"/>
<g id="a_edge6&#45;headlabel"><a xlink:href="dir_000123_000054.html" target="_top" xlink:title="1">
<text text-anchor="middle" x="143.02" y="-113.87" font-family="Helvetica,sans-Serif" font-size="10.00">1</text>
</a>
</g>
</g>
<!-- dir_76ec03b56887a0e8201bcb48abf48018&#45;&gt;dir_b778c3f297ab88300258a2935792c8cc -->
<g id="edge7" class="edge">
<title>dir_76ec03b56887a0e8201bcb48abf48018&#45;&gt;dir_b778c3f297ab88300258a2935792c8cc</title>
<path fill="none" stroke="black" d="M164.57,-143.87C166.78,-119.67 170.85,-75.21 173.49,-46.39"/>
<polygon fill="black" stroke="black" points="177,-46.47 174.43,-36.19 170.03,-45.83 177,-46.47"/>
<g id="a_edge7&#45;headlabel"><a xlink:href="dir_000123_000047.html" target="_top" xlink:title="2">
<text text-anchor="middle" x="179.5" y="-47.81" font-family="Helvetica,sans-Serif" font-size="10.00">2</text>
</a>
</g>
</g>
</g>
</svg>
