<?xml version="1.0" encoding="UTF-8" standalone="no"?>
<!DOCTYPE svg PUBLIC "-//W3C//DTD SVG 1.1//EN"
 "http://www.w3.org/Graphics/SVG/1.1/DTD/svg11.dtd">
<!-- Generated by graphviz version 2.46.0 (20210122.1329)
 -->
<!-- Title: include Pages: 1 -->
<svg width="398pt" height="508pt"
 viewBox="0.00 0.00 398.00 508.00" xmlns="http://www.w3.org/2000/svg" xmlns:xlink="http://www.w3.org/1999/xlink">
<g id="graph0" class="graph" transform="scale(1 1) rotate(0) translate(4 504)">
<title>include</title>
<polygon fill="white" stroke="transparent" points="-4,4 -4,-504 394,-504 394,4 -4,4"/>
<g id="clust1" class="cluster">
<title>clusterdir_d44c64559bbebec7f509842c48db8b23</title>
<g id="a_clust1"><a xlink:href="dir_d44c64559bbebec7f509842c48db8b23.html" target="_top">
<polygon fill="#eeeeff" stroke="black" points="8,-8 8,-492 382,-492 382,-8 8,-8"/>
</a>
</g>
</g>
<!-- dir_d44c64559bbebec7f509842c48db8b23 -->
<g id="node1" class="node">
<title>dir_d44c64559bbebec7f509842c48db8b23</title>
<text text-anchor="middle" x="289" y="-247.5" font-family="Helvetica,sans-Serif" font-size="10.00">include</text>
</g>
<!-- dir_65d600aab5b7177ee2dccfac7c04bb8a -->
<g id="node2" class="node">
<title>dir_65d600aab5b7177ee2dccfac7c04bb8a</title>
<g id="a_node2"><a xlink:href="dir_65d600aab5b7177ee2dccfac7c04bb8a.html" target="_top" xlink:title="ar">
<polygon fill="white" stroke="black" points="334,-196 280,-196 280,-160 334,-160 334,-196"/>
<text text-anchor="middle" x="307" y="-175.5" font-family="Helvetica,sans-Serif" font-size="10.00">ar</text>
</a>
</g>
</g>
<!-- dir_d44c64559bbebec7f509842c48db8b23&#45;&gt;dir_65d600aab5b7177ee2dccfac7c04bb8a -->
<g id="edge9" class="edge">
<title>dir_d44c64559bbebec7f509842c48db8b23&#45;&gt;dir_65d600aab5b7177ee2dccfac7c04bb8a</title>
<path fill="none" stroke="black" d="M293.45,-231.7C295.45,-223.9 297.87,-214.51 300.1,-205.83"/>
<polygon fill="black" stroke="black" points="303.5,-206.66 302.6,-196.1 296.72,-204.92 303.5,-206.66"/>
<g id="a_edge9&#45;headlabel"><a xlink:href="dir_000001_000002.html" target="_top" xlink:title="3">
<text text-anchor="middle" x="305.36" y="-208.35" font-family="Helvetica,sans-Serif" font-size="10.00">3</text>
</a>
</g>
</g>
<!-- dir_7b371d9fdb0359ac564866f88df60f77 -->
<g id="node11" class="node">
<title>dir_7b371d9fdb0359ac564866f88df60f77</title>
<g id="a_node11"><a xlink:href="dir_7b371d9fdb0359ac564866f88df60f77.html" target="_top" xlink:title="os">
<polygon fill="white" stroke="black" points="262,-196 208,-196 208,-160 262,-160 262,-196"/>
<text text-anchor="middle" x="235" y="-175.5" font-family="Helvetica,sans-Serif" font-size="10.00">os</text>
</a>
</g>
</g>
<!-- dir_d44c64559bbebec7f509842c48db8b23&#45;&gt;dir_7b371d9fdb0359ac564866f88df60f77 -->
<g id="edge10" class="edge">
<title>dir_d44c64559bbebec7f509842c48db8b23&#45;&gt;dir_7b371d9fdb0359ac564866f88df60f77</title>
<path fill="none" stroke="black" d="M275.65,-231.7C269.24,-223.39 261.44,-213.28 254.39,-204.14"/>
<polygon fill="black" stroke="black" points="257.07,-201.88 248.19,-196.1 251.53,-206.16 257.07,-201.88"/>
<g id="a_edge10&#45;headlabel"><a xlink:href="dir_000001_000117.html" target="_top" xlink:title="6">
<text text-anchor="middle" x="261.52" y="-200.5" font-family="Helvetica,sans-Serif" font-size="10.00">6</text>
</a>
</g>
</g>
<!-- dir_b778c3f297ab88300258a2935792c8cc -->
<g id="node5" class="node">
<title>dir_b778c3f297ab88300258a2935792c8cc</title>
<g id="a_node5"><a xlink:href="dir_b778c3f297ab88300258a2935792c8cc.html" target="_top" xlink:title="dolphin">
<polygon fill="white" stroke="black" points="248,-52 194,-52 194,-16 248,-16 248,-52"/>
<text text-anchor="middle" x="221" y="-31.5" font-family="Helvetica,sans-Serif" font-size="10.00">dolphin</text>
</a>
</g>
</g>
<!-- dir_65d600aab5b7177ee2dccfac7c04bb8a&#45;&gt;dir_b778c3f297ab88300258a2935792c8cc -->
<g id="edge6" class="edge">
<title>dir_65d600aab5b7177ee2dccfac7c04bb8a&#45;&gt;dir_b778c3f297ab88300258a2935792c8cc</title>
<path fill="none" stroke="black" d="M309.83,-159.97C312.08,-141.04 312.99,-110.21 300,-88 290.31,-71.43 273.14,-58.99 257.28,-50.33"/>
<polygon fill="black" stroke="black" points="258.66,-47.11 248.16,-45.67 255.47,-53.34 258.66,-47.11"/>
<g id="a_edge6&#45;headlabel"><a xlink:href="dir_000002_000047.html" target="_top" xlink:title="2">
<text text-anchor="middle" x="263.15" y="-43.71" font-family="Helvetica,sans-Serif" font-size="10.00">2</text>
</a>
</g>
</g>
<!-- dir_f0bbaeb96b1b216779501c980a5af6c6 -->
<g id="node3" class="node">
<title>dir_f0bbaeb96b1b216779501c980a5af6c6</title>
<g id="a_node3"><a xlink:href="dir_f0bbaeb96b1b216779501c980a5af6c6.html" target="_top" xlink:title="c">
<polygon fill="white" stroke="black" points="331,-484 277,-484 277,-448 331,-448 331,-484"/>
<text text-anchor="middle" x="304" y="-463.5" font-family="Helvetica,sans-Serif" font-size="10.00">c</text>
</a>
</g>
</g>
<!-- dir_cc3ad1aed4be3f446fdd7af78322f5bf -->
<g id="node4" class="node">
<title>dir_cc3ad1aed4be3f446fdd7af78322f5bf</title>
<g id="a_node4"><a xlink:href="dir_cc3ad1aed4be3f446fdd7af78322f5bf.html" target="_top" xlink:title="d">
<polygon fill="white" stroke="red" points="194,-484 140,-484 140,-448 194,-448 194,-484"/>
<text text-anchor="middle" x="167" y="-463.5" font-family="Helvetica,sans-Serif" font-size="10.00">d</text>
</a>
</g>
</g>
<!-- dir_cc3ad1aed4be3f446fdd7af78322f5bf&#45;&gt;dir_b778c3f297ab88300258a2935792c8cc -->
<g id="edge22" class="edge">
<title>dir_cc3ad1aed4be3f446fdd7af78322f5bf&#45;&gt;dir_b778c3f297ab88300258a2935792c8cc</title>
<path fill="none" stroke="black" d="M139.84,-454.07C96.61,-434.68 17,-389.88 17,-323 17,-323 17,-323 17,-177 17,-135.26 17.05,-117.08 47,-88 83.97,-52.11 144.49,-40.44 183.53,-36.69"/>
<polygon fill="black" stroke="black" points="184.26,-40.15 193.93,-35.83 183.68,-33.17 184.26,-40.15"/>
<g id="a_edge22&#45;headlabel"><a xlink:href="dir_000004_000047.html" target="_top" xlink:title="10">
<text text-anchor="middle" x="180.91" y="-40.77" font-family="Helvetica,sans-Serif" font-size="10.00">10</text>
</a>
</g>
</g>
<!-- dir_33eed416d00e84841337708fc7e11b48 -->
<g id="node7" class="node">
<title>dir_33eed416d00e84841337708fc7e11b48</title>
<g id="a_node7"><a xlink:href="dir_33eed416d00e84841337708fc7e11b48.html" target="_top" xlink:title="f">
<polygon fill="white" stroke="red" points="171,-412 117,-412 117,-376 171,-376 171,-412"/>
<text text-anchor="middle" x="144" y="-391.5" font-family="Helvetica,sans-Serif" font-size="10.00">f</text>
</a>
</g>
</g>
<!-- dir_cc3ad1aed4be3f446fdd7af78322f5bf&#45;&gt;dir_33eed416d00e84841337708fc7e11b48 -->
<g id="edge21" class="edge">
<title>dir_cc3ad1aed4be3f446fdd7af78322f5bf&#45;&gt;dir_33eed416d00e84841337708fc7e11b48</title>
<path fill="none" stroke="black" d="M155.4,-447.7C152.03,-439.9 148.72,-430.51 146.23,-421.83"/>
<polygon fill="black" stroke="black" points="149.61,-420.91 143.72,-412.1 142.83,-422.66 149.61,-420.91"/>
<g id="a_edge21&#45;headlabel"><a xlink:href="dir_000004_000049.html" target="_top" xlink:title="4">
<text text-anchor="middle" x="153.26" y="-421.19" font-family="Helvetica,sans-Serif" font-size="10.00">4</text>
</a>
</g>
</g>
<!-- dir_4f0979a7f5e3194619cde56505e372d8 -->
<g id="node9" class="node">
<title>dir_4f0979a7f5e3194619cde56505e372d8</title>
<g id="a_node9"><a xlink:href="dir_4f0979a7f5e3194619cde56505e372d8.html" target="_top" xlink:title="JSystem">
<polygon fill="white" stroke="red" points="216.5,-268 161.5,-268 161.5,-232 216.5,-232 216.5,-268"/>
<text text-anchor="middle" x="189" y="-247.5" font-family="Helvetica,sans-Serif" font-size="10.00">JSystem</text>
</a>
</g>
</g>
<!-- dir_cc3ad1aed4be3f446fdd7af78322f5bf&#45;&gt;dir_4f0979a7f5e3194619cde56505e372d8 -->
<g id="edge19" class="edge">
<title>dir_cc3ad1aed4be3f446fdd7af78322f5bf&#45;&gt;dir_4f0979a7f5e3194619cde56505e372d8</title>
<path fill="none" stroke="black" d="M172.03,-447.97C174.86,-437.66 178.18,-424.18 180,-412 186.95,-365.44 188.65,-310.57 189,-278.41"/>
<polygon fill="black" stroke="black" points="192.51,-278.05 189.08,-268.03 185.51,-278 192.51,-278.05"/>
<g id="a_edge19&#45;headlabel"><a xlink:href="dir_000004_000053.html" target="_top" xlink:title="16">
<text text-anchor="middle" x="195.32" y="-279.17" font-family="Helvetica,sans-Serif" font-size="10.00">16</text>
</a>
</g>
</g>
<!-- dir_6bdfff2c28f90f381b6da5bee088878b -->
<g id="node10" class="node">
<title>dir_6bdfff2c28f90f381b6da5bee088878b</title>
<g id="a_node10"><a xlink:href="dir_6bdfff2c28f90f381b6da5bee088878b.html" target="_top" xlink:title="m_Do">
<polygon fill="white" stroke="red" points="263,-412 209,-412 209,-376 263,-376 263,-412"/>
<text text-anchor="middle" x="236" y="-391.5" font-family="Helvetica,sans-Serif" font-size="10.00">m_Do</text>
</a>
</g>
</g>
<!-- dir_cc3ad1aed4be3f446fdd7af78322f5bf&#45;&gt;dir_6bdfff2c28f90f381b6da5bee088878b -->
<g id="edge23" class="edge">
<title>dir_cc3ad1aed4be3f446fdd7af78322f5bf&#45;&gt;dir_6bdfff2c28f90f381b6da5bee088878b</title>
<path fill="none" stroke="black" d="M178.14,-447.7C185.77,-439.05 196.04,-428.45 205.87,-419.03"/>
<polygon fill="black" stroke="black" points="208.35,-421.5 213.24,-412.1 203.56,-416.4 208.35,-421.5"/>
<g id="a_edge23&#45;headlabel"><a xlink:href="dir_000004_000107.html" target="_top" xlink:title="3">
<text text-anchor="middle" x="207.67" y="-423.53" font-family="Helvetica,sans-Serif" font-size="10.00">3</text>
</a>
</g>
</g>
<!-- dir_76ec03b56887a0e8201bcb48abf48018 -->
<g id="node13" class="node">
<title>dir_76ec03b56887a0e8201bcb48abf48018</title>
<g id="a_node13"><a xlink:href="dir_76ec03b56887a0e8201bcb48abf48018.html" target="_top" xlink:title="SComponent">
<polygon fill="white" stroke="red" points="170.5,-340 97.5,-340 97.5,-304 170.5,-304 170.5,-340"/>
<text text-anchor="middle" x="134" y="-319.5" font-family="Helvetica,sans-Serif" font-size="10.00">SComponent</text>
</a>
</g>
</g>
<!-- dir_cc3ad1aed4be3f446fdd7af78322f5bf&#45;&gt;dir_76ec03b56887a0e8201bcb48abf48018 -->
<g id="edge20" class="edge">
<title>dir_cc3ad1aed4be3f446fdd7af78322f5bf&#45;&gt;dir_76ec03b56887a0e8201bcb48abf48018</title>
<path fill="none" stroke="black" d="M139.82,-448.34C127.67,-439.26 114.62,-426.84 108,-412 98.9,-391.59 107.31,-367.15 116.92,-349.05"/>
<polygon fill="black" stroke="black" points="120.05,-350.63 121.97,-340.22 113.97,-347.16 120.05,-350.63"/>
<g id="a_edge20&#45;headlabel"><a xlink:href="dir_000004_000119.html" target="_top" xlink:title="12">
<text text-anchor="middle" x="120.73" y="-352.66" font-family="Helvetica,sans-Serif" font-size="10.00">12</text>
</a>
</g>
</g>
<!-- dir_81939fb769658ab66ba54ec390580a1a -->
<g id="node16" class="node">
<title>dir_81939fb769658ab66ba54ec390580a1a</title>
<g id="a_node16"><a xlink:href="dir_81939fb769658ab66ba54ec390580a1a.html" target="_top" xlink:title="Z2AudioLib">
<polygon fill="white" stroke="red" points="374,-340 308,-340 308,-304 374,-304 374,-340"/>
<text text-anchor="middle" x="341" y="-319.5" font-family="Helvetica,sans-Serif" font-size="10.00">Z2AudioLib</text>
</a>
</g>
</g>
<!-- dir_cc3ad1aed4be3f446fdd7af78322f5bf&#45;&gt;dir_81939fb769658ab66ba54ec390580a1a -->
<g id="edge24" class="edge">
<title>dir_cc3ad1aed4be3f446fdd7af78322f5bf&#45;&gt;dir_81939fb769658ab66ba54ec390580a1a</title>
<path fill="none" stroke="black" d="M194.39,-455.11C216.8,-446.13 248.52,-431.35 272,-412 293.75,-394.07 312.89,-368.11 325.45,-348.85"/>
<polygon fill="black" stroke="black" points="328.5,-350.58 330.91,-340.26 322.6,-346.82 328.5,-350.58"/>
<g id="a_edge24&#45;headlabel"><a xlink:href="dir_000004_000124.html" target="_top" xlink:title="1">
<text text-anchor="middle" x="328.97" y="-352.63" font-family="Helvetica,sans-Serif" font-size="10.00">1</text>
</a>
</g>
</g>
<!-- dir_b2a98ef39d7a74ac1f5af67b89b07b4d -->
<g id="node6" class="node">
<title>dir_b2a98ef39d7a74ac1f5af67b89b07b4d</title>
<g id="a_node6"><a xlink:href="dir_b2a98ef39d7a74ac1f5af67b89b07b4d.html" target="_top" xlink:title="dvd">
<polygon fill="white" stroke="black" points="284,-124 230,-124 230,-88 284,-88 284,-124"/>
<text text-anchor="middle" x="257" y="-103.5" font-family="Helvetica,sans-Serif" font-size="10.00">dvd</text>
</a>
</g>
</g>
<!-- dir_b2a98ef39d7a74ac1f5af67b89b07b4d&#45;&gt;dir_b778c3f297ab88300258a2935792c8cc -->
<g id="edge11" class="edge">
<title>dir_b2a98ef39d7a74ac1f5af67b89b07b4d&#45;&gt;dir_b778c3f297ab88300258a2935792c8cc</title>
<path fill="none" stroke="black" d="M248.1,-87.7C244,-79.73 239.05,-70.1 234.51,-61.26"/>
<polygon fill="black" stroke="black" points="237.48,-59.4 229.8,-52.1 231.26,-62.6 237.48,-59.4"/>
<g id="a_edge11&#45;headlabel"><a xlink:href="dir_000048_000047.html" target="_top" xlink:title="1">
<text text-anchor="middle" x="241.65" y="-58.79" font-family="Helvetica,sans-Serif" font-size="10.00">1</text>
</a>
</g>
</g>
<!-- dir_33eed416d00e84841337708fc7e11b48&#45;&gt;dir_cc3ad1aed4be3f446fdd7af78322f5bf -->
<g id="edge8" class="edge">
<title>dir_33eed416d00e84841337708fc7e11b48&#45;&gt;dir_cc3ad1aed4be3f446fdd7af78322f5bf</title>
<path fill="none" stroke="black" d="M155.52,-412.1C158.88,-419.88 162.2,-429.26 164.7,-437.95"/>
<polygon fill="black" stroke="black" points="161.33,-438.89 167.23,-447.7 168.11,-437.14 161.33,-438.89"/>
<g id="a_edge8&#45;headlabel"><a xlink:href="dir_000049_000004.html" target="_top" xlink:title="1">
<text text-anchor="middle" x="157.68" y="-433.63" font-family="Helvetica,sans-Serif" font-size="10.00">1</text>
</a>
</g>
</g>
<!-- dir_33eed416d00e84841337708fc7e11b48&#45;&gt;dir_76ec03b56887a0e8201bcb48abf48018 -->
<g id="edge7" class="edge">
<title>dir_33eed416d00e84841337708fc7e11b48&#45;&gt;dir_76ec03b56887a0e8201bcb48abf48018</title>
<path fill="none" stroke="black" d="M135.61,-375.7C133.71,-367.98 132.16,-358.71 131.28,-350.11"/>
<polygon fill="black" stroke="black" points="134.77,-349.82 130.55,-340.1 127.78,-350.33 134.77,-349.82"/>
<g id="a_edge7&#45;headlabel"><a xlink:href="dir_000049_000119.html" target="_top" xlink:title="23">
<text text-anchor="middle" x="137.86" y="-350.7" font-family="Helvetica,sans-Serif" font-size="10.00">23</text>
</a>
</g>
</g>
<!-- dir_a279ed5c4175293b5b2f0cc1c8e2c220 -->
<g id="node8" class="node">
<title>dir_a279ed5c4175293b5b2f0cc1c8e2c220</title>
<g id="a_node8"><a xlink:href="dir_a279ed5c4175293b5b2f0cc1c8e2c220.html" target="_top" xlink:title="gx">
<polygon fill="white" stroke="black" points="212,-124 158,-124 158,-88 212,-88 212,-124"/>
<text text-anchor="middle" x="185" y="-103.5" font-family="Helvetica,sans-Serif" font-size="10.00">gx</text>
</a>
</g>
</g>
<!-- dir_a279ed5c4175293b5b2f0cc1c8e2c220&#45;&gt;dir_b778c3f297ab88300258a2935792c8cc -->
<g id="edge27" class="edge">
<title>dir_a279ed5c4175293b5b2f0cc1c8e2c220&#45;&gt;dir_b778c3f297ab88300258a2935792c8cc</title>
<path fill="none" stroke="black" d="M193.9,-87.7C198,-79.73 202.95,-70.1 207.49,-61.26"/>
<polygon fill="black" stroke="black" points="210.74,-62.6 212.2,-52.1 204.52,-59.4 210.74,-62.6"/>
<g id="a_edge27&#45;headlabel"><a xlink:href="dir_000052_000047.html" target="_top" xlink:title="1">
<text text-anchor="middle" x="211.62" y="-64.59" font-family="Helvetica,sans-Serif" font-size="10.00">1</text>
</a>
</g>
</g>
<!-- dir_4f0979a7f5e3194619cde56505e372d8&#45;&gt;dir_65d600aab5b7177ee2dccfac7c04bb8a -->
<g id="edge28" class="edge">
<title>dir_4f0979a7f5e3194619cde56505e372d8&#45;&gt;dir_65d600aab5b7177ee2dccfac7c04bb8a</title>
<path fill="none" stroke="black" d="M216.67,-232.59C232.91,-222.95 253.61,-210.67 271.1,-200.3"/>
<polygon fill="black" stroke="black" points="273.1,-203.18 279.91,-195.07 269.53,-197.16 273.1,-203.18"/>
<g id="a_edge28&#45;headlabel"><a xlink:href="dir_000053_000002.html" target="_top" xlink:title="1">
<text text-anchor="middle" x="271.46" y="-204.96" font-family="Helvetica,sans-Serif" font-size="10.00">1</text>
</a>
</g>
</g>
<!-- dir_4f0979a7f5e3194619cde56505e372d8&#45;&gt;dir_b778c3f297ab88300258a2935792c8cc -->
<g id="edge32" class="edge">
<title>dir_4f0979a7f5e3194619cde56505e372d8&#45;&gt;dir_b778c3f297ab88300258a2935792c8cc</title>
<path fill="none" stroke="black" d="M177.17,-231.67C157.95,-201.18 124.44,-136.58 149,-88 156.7,-72.77 171.06,-60.85 184.94,-52.2"/>
<polygon fill="black" stroke="black" points="187.03,-55.04 193.92,-46.99 183.52,-48.98 187.03,-55.04"/>
<g id="a_edge32&#45;headlabel"><a xlink:href="dir_000053_000047.html" target="_top" xlink:title="47">
<text text-anchor="middle" x="185.35" y="-56.8" font-family="Helvetica,sans-Serif" font-size="10.00">47</text>
</a>
</g>
</g>
<!-- dir_4f0979a7f5e3194619cde56505e372d8&#45;&gt;dir_b2a98ef39d7a74ac1f5af67b89b07b4d -->
<g id="edge31" class="edge">
<title>dir_4f0979a7f5e3194619cde56505e372d8&#45;&gt;dir_b2a98ef39d7a74ac1f5af67b89b07b4d</title>
<path fill="none" stroke="black" d="M187.48,-231.92C186.57,-213.22 187.35,-182.86 199,-160 204.71,-148.8 213.83,-138.79 223.16,-130.57"/>
<polygon fill="black" stroke="black" points="225.51,-133.17 230.98,-124.1 221.04,-127.78 225.51,-133.17"/>
<g id="a_edge31&#45;headlabel"><a xlink:href="dir_000053_000048.html" target="_top" xlink:title="2">
<text text-anchor="middle" x="224.55" y="-135.15" font-family="Helvetica,sans-Serif" font-size="10.00">2</text>
</a>
</g>
</g>
<!-- dir_4f0979a7f5e3194619cde56505e372d8&#45;&gt;dir_a279ed5c4175293b5b2f0cc1c8e2c220 -->
<g id="edge30" class="edge">
<title>dir_4f0979a7f5e3194619cde56505e372d8&#45;&gt;dir_a279ed5c4175293b5b2f0cc1c8e2c220</title>
<path fill="none" stroke="black" d="M186.97,-231.84C185.85,-221.48 184.56,-208 184,-196 183.03,-175.29 183.35,-151.85 183.87,-134.22"/>
<polygon fill="black" stroke="black" points="187.38,-134.19 184.22,-124.07 180.38,-133.95 187.38,-134.19"/>
<g id="a_edge30&#45;headlabel"><a xlink:href="dir_000053_000052.html" target="_top" xlink:title="4">
<text text-anchor="middle" x="190.09" y="-135.37" font-family="Helvetica,sans-Serif" font-size="10.00">4</text>
</a>
</g>
</g>
<!-- dir_4f0979a7f5e3194619cde56505e372d8&#45;&gt;dir_7b371d9fdb0359ac564866f88df60f77 -->
<g id="edge29" class="edge">
<title>dir_4f0979a7f5e3194619cde56505e372d8&#45;&gt;dir_7b371d9fdb0359ac564866f88df60f77</title>
<path fill="none" stroke="black" d="M200.37,-231.7C205.72,-223.56 212.2,-213.69 218.11,-204.7"/>
<polygon fill="black" stroke="black" points="221.19,-206.38 223.76,-196.1 215.34,-202.54 221.19,-206.38"/>
<g id="a_edge29&#45;headlabel"><a xlink:href="dir_000053_000117.html" target="_top" xlink:title="3">
<text text-anchor="middle" x="221.59" y="-208.45" font-family="Helvetica,sans-Serif" font-size="10.00">3</text>
</a>
</g>
</g>
<!-- dir_fbee22fe0c165caa3600c214f3fde6f6 -->
<g id="node12" class="node">
<title>dir_fbee22fe0c165caa3600c214f3fde6f6</title>
<g id="a_node12"><a xlink:href="dir_fbee22fe0c165caa3600c214f3fde6f6.html" target="_top" xlink:title="pad">
<polygon fill="white" stroke="black" points="110,-196 56,-196 56,-160 110,-160 110,-196"/>
<text text-anchor="middle" x="83" y="-175.5" font-family="Helvetica,sans-Serif" font-size="10.00">pad</text>
</a>
</g>
</g>
<!-- dir_4f0979a7f5e3194619cde56505e372d8&#45;&gt;dir_fbee22fe0c165caa3600c214f3fde6f6 -->
<g id="edge33" class="edge">
<title>dir_4f0979a7f5e3194619cde56505e372d8&#45;&gt;dir_fbee22fe0c165caa3600c214f3fde6f6</title>
<path fill="none" stroke="black" d="M163.07,-231.88C149.34,-222.81 132.29,-211.55 117.46,-201.76"/>
<polygon fill="black" stroke="black" points="119.3,-198.78 109.03,-196.19 115.45,-204.62 119.3,-198.78"/>
<g id="a_edge33&#45;headlabel"><a xlink:href="dir_000053_000118.html" target="_top" xlink:title="1">
<text text-anchor="middle" x="123.87" y="-195.89" font-family="Helvetica,sans-Serif" font-size="10.00">1</text>
</a>
</g>
</g>
<!-- dir_f31be668b848c94749c2480e14c4b615 -->
<g id="node15" class="node">
<title>dir_f31be668b848c94749c2480e14c4b615</title>
<g id="a_node15"><a xlink:href="dir_f31be668b848c94749c2480e14c4b615.html" target="_top" xlink:title="vi">
<polygon fill="white" stroke="black" points="120,-124 66,-124 66,-88 120,-88 120,-124"/>
<text text-anchor="middle" x="93" y="-103.5" font-family="Helvetica,sans-Serif" font-size="10.00">vi</text>
</a>
</g>
</g>
<!-- dir_4f0979a7f5e3194619cde56505e372d8&#45;&gt;dir_f31be668b848c94749c2480e14c4b615 -->
<g id="edge34" class="edge">
<title>dir_4f0979a7f5e3194619cde56505e372d8&#45;&gt;dir_f31be668b848c94749c2480e14c4b615</title>
<path fill="none" stroke="black" d="M173.16,-231.98C164.13,-221.89 152.88,-208.64 144,-196 129.8,-175.77 116,-151.31 106.35,-133.16"/>
<polygon fill="black" stroke="black" points="109.44,-131.53 101.7,-124.3 103.25,-134.78 109.44,-131.53"/>
<g id="a_edge34&#45;headlabel"><a xlink:href="dir_000053_000123.html" target="_top" xlink:title="1">
<text text-anchor="middle" x="113.63" y="-130.89" font-family="Helvetica,sans-Serif" font-size="10.00">1</text>
</a>
</g>
</g>
<!-- dir_6bdfff2c28f90f381b6da5bee088878b&#45;&gt;dir_cc3ad1aed4be3f446fdd7af78322f5bf -->
<g id="edge14" class="edge">
<title>dir_6bdfff2c28f90f381b6da5bee088878b&#45;&gt;dir_cc3ad1aed4be3f446fdd7af78322f5bf</title>
<path fill="none" stroke="black" d="M225.04,-412.1C217.44,-420.72 207.19,-431.32 197.36,-440.76"/>
<polygon fill="black" stroke="black" points="194.86,-438.3 189.97,-447.7 199.66,-443.4 194.86,-438.3"/>
<g id="a_edge14&#45;headlabel"><a xlink:href="dir_000107_000004.html" target="_top" xlink:title="1">
<text text-anchor="middle" x="195.54" y="-431.27" font-family="Helvetica,sans-Serif" font-size="10.00">1</text>
</a>
</g>
</g>
<!-- dir_6bdfff2c28f90f381b6da5bee088878b&#45;&gt;dir_b778c3f297ab88300258a2935792c8cc -->
<g id="edge17" class="edge">
<title>dir_6bdfff2c28f90f381b6da5bee088878b&#45;&gt;dir_b778c3f297ab88300258a2935792c8cc</title>
<path fill="none" stroke="black" d="M248.03,-375.9C260.67,-357.96 281.16,-328.95 299,-304 310.48,-287.95 316.68,-285.9 325,-268 345.52,-223.87 353.38,-207.54 343,-160 335.49,-125.61 333.52,-114.19 310,-88 295.6,-71.97 275.19,-59.33 257.54,-50.43"/>
<polygon fill="black" stroke="black" points="258.61,-47.06 248.08,-45.87 255.57,-53.36 258.61,-47.06"/>
<g id="a_edge17&#45;headlabel"><a xlink:href="dir_000107_000047.html" target="_top" xlink:title="3">
<text text-anchor="middle" x="263.08" y="-43.56" font-family="Helvetica,sans-Serif" font-size="10.00">3</text>
</a>
</g>
</g>
<!-- dir_6bdfff2c28f90f381b6da5bee088878b&#45;&gt;dir_4f0979a7f5e3194619cde56505e372d8 -->
<g id="edge15" class="edge">
<title>dir_6bdfff2c28f90f381b6da5bee088878b&#45;&gt;dir_4f0979a7f5e3194619cde56505e372d8</title>
<path fill="none" stroke="black" d="M230.33,-375.87C222.29,-351.56 207.48,-306.82 197.94,-278.01"/>
<polygon fill="black" stroke="black" points="201.15,-276.58 194.69,-268.19 194.51,-278.78 201.15,-276.58"/>
<g id="a_edge15&#45;headlabel"><a xlink:href="dir_000107_000053.html" target="_top" xlink:title="8">
<text text-anchor="middle" x="204.98" y="-276.6" font-family="Helvetica,sans-Serif" font-size="10.00">8</text>
</a>
</g>
</g>
<!-- dir_6bdfff2c28f90f381b6da5bee088878b&#45;&gt;dir_7b371d9fdb0359ac564866f88df60f77 -->
<g id="edge18" class="edge">
<title>dir_6bdfff2c28f90f381b6da5bee088878b&#45;&gt;dir_7b371d9fdb0359ac564866f88df60f77</title>
<path fill="none" stroke="black" d="M235.92,-375.85C235.75,-338.83 235.34,-251.18 235.13,-206.39"/>
<polygon fill="black" stroke="black" points="238.63,-206.22 235.08,-196.23 231.63,-206.25 238.63,-206.22"/>
<g id="a_edge18&#45;headlabel"><a xlink:href="dir_000107_000117.html" target="_top" xlink:title="2">
<text text-anchor="middle" x="241.48" y="-207.3" font-family="Helvetica,sans-Serif" font-size="10.00">2</text>
</a>
</g>
</g>
<!-- dir_6bdfff2c28f90f381b6da5bee088878b&#45;&gt;dir_76ec03b56887a0e8201bcb48abf48018 -->
<g id="edge16" class="edge">
<title>dir_6bdfff2c28f90f381b6da5bee088878b&#45;&gt;dir_76ec03b56887a0e8201bcb48abf48018</title>
<path fill="none" stroke="black" d="M211.05,-375.88C197.96,-366.89 181.74,-355.76 167.56,-346.03"/>
<polygon fill="black" stroke="black" points="169.27,-342.96 159.05,-340.19 165.31,-348.73 169.27,-342.96"/>
<g id="a_edge16&#45;headlabel"><a xlink:href="dir_000107_000119.html" target="_top" xlink:title="1">
<text text-anchor="middle" x="173.84" y="-340.16" font-family="Helvetica,sans-Serif" font-size="10.00">1</text>
</a>
</g>
</g>
<!-- dir_6bdfff2c28f90f381b6da5bee088878b&#45;&gt;dir_81939fb769658ab66ba54ec390580a1a -->
<g id="edge13" class="edge">
<title>dir_6bdfff2c28f90f381b6da5bee088878b&#45;&gt;dir_81939fb769658ab66ba54ec390580a1a</title>
<path fill="none" stroke="black" d="M261.69,-375.88C275.29,-366.81 292.17,-355.55 306.86,-345.76"/>
<polygon fill="black" stroke="black" points="308.84,-348.65 315.22,-340.19 304.95,-342.82 308.84,-348.65"/>
<g id="a_edge13&#45;headlabel"><a xlink:href="dir_000107_000124.html" target="_top" xlink:title="2">
<text text-anchor="middle" x="307.42" y="-350.51" font-family="Helvetica,sans-Serif" font-size="10.00">2</text>
</a>
</g>
</g>
<!-- dir_7b371d9fdb0359ac564866f88df60f77&#45;&gt;dir_b778c3f297ab88300258a2935792c8cc -->
<g id="edge26" class="edge">
<title>dir_7b371d9fdb0359ac564866f88df60f77&#45;&gt;dir_b778c3f297ab88300258a2935792c8cc</title>
<path fill="none" stroke="black" d="M262.04,-160.01C273.89,-150.93 286.56,-138.6 293,-124 299.45,-109.36 300.22,-102.28 293,-88 285.3,-72.77 270.94,-60.85 257.06,-52.2"/>
<polygon fill="black" stroke="black" points="258.48,-48.98 248.08,-46.99 254.97,-55.04 258.48,-48.98"/>
<g id="a_edge26&#45;headlabel"><a xlink:href="dir_000117_000047.html" target="_top" xlink:title="1">
<text text-anchor="middle" x="263.02" y="-45.83" font-family="Helvetica,sans-Serif" font-size="10.00">1</text>
</a>
</g>
</g>
<!-- dir_7b371d9fdb0359ac564866f88df60f77&#45;&gt;dir_b2a98ef39d7a74ac1f5af67b89b07b4d -->
<g id="edge25" class="edge">
<title>dir_7b371d9fdb0359ac564866f88df60f77&#45;&gt;dir_b2a98ef39d7a74ac1f5af67b89b07b4d</title>
<path fill="none" stroke="black" d="M240.44,-159.7C242.89,-151.9 245.84,-142.51 248.57,-133.83"/>
<polygon fill="black" stroke="black" points="251.96,-134.69 251.62,-124.1 245.29,-132.59 251.96,-134.69"/>
<g id="a_edge25&#45;headlabel"><a xlink:href="dir_000117_000048.html" target="_top" xlink:title="1">
<text text-anchor="middle" x="253.6" y="-136.47" font-family="Helvetica,sans-Serif" font-size="10.00">1</text>
</a>
</g>
</g>
<!-- dir_76ec03b56887a0e8201bcb48abf48018&#45;&gt;dir_b778c3f297ab88300258a2935792c8cc -->
<g id="edge5" class="edge">
<title>dir_76ec03b56887a0e8201bcb48abf48018&#45;&gt;dir_b778c3f297ab88300258a2935792c8cc</title>
<path fill="none" stroke="black" d="M116.81,-303.86C95.61,-281.39 60.69,-239.64 47,-196 39.22,-171.19 56.82,-88.22 57,-88 88.21,-50.81 145.73,-39.47 183.68,-36.15"/>
<polygon fill="black" stroke="black" points="184.11,-39.63 193.83,-35.42 183.6,-32.65 184.11,-39.63"/>
<g id="a_edge5&#45;headlabel"><a xlink:href="dir_000119_000047.html" target="_top" xlink:title="1">
<text text-anchor="middle" x="180.73" y="-40.23" font-family="Helvetica,sans-Serif" font-size="10.00">1</text>
</a>
</g>
</g>
<!-- dir_76ec03b56887a0e8201bcb48abf48018&#45;&gt;dir_33eed416d00e84841337708fc7e11b48 -->
<g id="edge3" class="edge">
<title>dir_76ec03b56887a0e8201bcb48abf48018&#45;&gt;dir_33eed416d00e84841337708fc7e11b48</title>
<path fill="none" stroke="black" d="M142.34,-340.1C144.24,-347.79 145.8,-357.05 146.7,-365.67"/>
<polygon fill="black" stroke="black" points="143.21,-365.98 147.44,-375.7 150.19,-365.46 143.21,-365.98"/>
<g id="a_edge3&#45;headlabel"><a xlink:href="dir_000119_000049.html" target="_top" xlink:title="1">
<text text-anchor="middle" x="140.12" y="-360.11" font-family="Helvetica,sans-Serif" font-size="10.00">1</text>
</a>
</g>
</g>
<!-- dir_76ec03b56887a0e8201bcb48abf48018&#45;&gt;dir_4f0979a7f5e3194619cde56505e372d8 -->
<g id="edge4" class="edge">
<title>dir_76ec03b56887a0e8201bcb48abf48018&#45;&gt;dir_4f0979a7f5e3194619cde56505e372d8</title>
<path fill="none" stroke="black" d="M147.6,-303.7C154.12,-295.39 162.07,-285.28 169.25,-276.14"/>
<polygon fill="black" stroke="black" points="172.13,-278.13 175.56,-268.1 166.63,-273.81 172.13,-278.13"/>
<g id="a_edge4&#45;headlabel"><a xlink:href="dir_000119_000053.html" target="_top" xlink:title="1">
<text text-anchor="middle" x="172.15" y="-280.21" font-family="Helvetica,sans-Serif" font-size="10.00">1</text>
</a>
</g>
</g>
<!-- dir_e15434bc39fd5742af3da48344882396 -->
<g id="node14" class="node">
<title>dir_e15434bc39fd5742af3da48344882396</title>
<g id="a_node14"><a xlink:href="dir_e15434bc39fd5742af3da48344882396.html" target="_top" xlink:title="SStandard">
<polygon fill="white" stroke="black" points="112,-484 50,-484 50,-448 112,-448 112,-484"/>
<text text-anchor="middle" x="81" y="-463.5" font-family="Helvetica,sans-Serif" font-size="10.00">SStandard</text>
</a>
</g>
</g>
<!-- dir_f31be668b848c94749c2480e14c4b615&#45;&gt;dir_b778c3f297ab88300258a2935792c8cc -->
<g id="edge12" class="edge">
<title>dir_f31be668b848c94749c2480e14c4b615&#45;&gt;dir_b778c3f297ab88300258a2935792c8cc</title>
<path fill="none" stroke="black" d="M120.15,-90.15C139.07,-79.81 164.51,-65.89 185.11,-54.63"/>
<polygon fill="black" stroke="black" points="186.8,-57.69 193.89,-49.82 183.44,-51.55 186.8,-57.69"/>
<g id="a_edge12&#45;headlabel"><a xlink:href="dir_000123_000047.html" target="_top" xlink:title="1">
<text text-anchor="middle" x="185.01" y="-59.41" font-family="Helvetica,sans-Serif" font-size="10.00">1</text>
</a>
</g>
</g>
<!-- dir_81939fb769658ab66ba54ec390580a1a&#45;&gt;dir_b778c3f297ab88300258a2935792c8cc -->
<g id="edge2" class="edge">
<title>dir_81939fb769658ab66ba54ec390580a1a&#45;&gt;dir_b778c3f297ab88300258a2935792c8cc</title>
<path fill="none" stroke="black" d="M348.87,-303.91C366.58,-262.63 404.55,-155.91 358,-88 335.75,-55.54 290.55,-42.96 258.15,-38.08"/>
<polygon fill="black" stroke="black" points="258.5,-34.6 248.13,-36.75 257.58,-41.53 258.5,-34.6"/>
<g id="a_edge2&#45;headlabel"><a xlink:href="dir_000124_000047.html" target="_top" xlink:title="6">
<text text-anchor="middle" x="262.44" y="-29.75" font-family="Helvetica,sans-Serif" font-size="10.00">6</text>
</a>
</g>
</g>
<!-- dir_81939fb769658ab66ba54ec390580a1a&#45;&gt;dir_4f0979a7f5e3194619cde56505e372d8 -->
<g id="edge1" class="edge">
<title>dir_81939fb769658ab66ba54ec390580a1a&#45;&gt;dir_4f0979a7f5e3194619cde56505e372d8</title>
<path fill="none" stroke="black" d="M307.64,-305.64C283.47,-294.5 250.78,-279.45 225.83,-267.96"/>
<polygon fill="black" stroke="black" points="227.23,-264.75 216.69,-263.75 224.3,-271.11 227.23,-264.75"/>
<g id="a_edge1&#45;headlabel"><a xlink:href="dir_000124_000053.html" target="_top" xlink:title="22">
<text text-anchor="middle" x="231.69" y="-261.18" font-family="Helvetica,sans-Serif" font-size="10.00">22</text>
</a>
</g>
</g>
</g>
</svg>
