<?xml version="1.0" encoding="UTF-8" standalone="no"?>
<!DOCTYPE svg PUBLIC "-//W3C//DTD SVG 1.1//EN"
 "http://www.w3.org/Graphics/SVG/1.1/DTD/svg11.dtd">
<!-- Generated by graphviz version 2.46.1 (20210215.1649)
 -->
<!-- Title: include/JSystem/JSupport/JSUFileInputStream Pages: 1 -->
<svg width="166pt" height="223pt"
 viewBox="0.00 0.00 166.00 223.00" xmlns="http://www.w3.org/2000/svg" xmlns:xlink="http://www.w3.org/1999/xlink">
<g id="graph0" class="graph" transform="scale(1 1) rotate(0) translate(4 219)">
<title>include/JSystem/JSupport/JSUFileInputStream</title>
<polygon fill="white" stroke="transparent" points="-4,4 -4,-219 162,-219 162,4 -4,4"/>
<g id="clust1" class="cluster">
<title>clusterdir_45593f23b58a9cb34ecfe1ccd7e4e81f</title>
<g id="a_clust1"><a xlink:href="dir_45593f23b58a9cb34ecfe1ccd7e4e81f.html" target="_top" xlink:title="JSupport">
<polygon fill="#ddddee" stroke="black" points="8,-64 8,-207 150,-207 150,-64 8,-64"/>
<text text-anchor="middle" x="79" y="-195" font-family="Helvetica,sans-Serif" font-size="10.00">JSupport</text>
</a>
</g>
</g>
<!-- dir_6499f6a49b3ab1a5946451ff09d969dc -->
<g id="node1" class="node">
<title>dir_6499f6a49b3ab1a5946451ff09d969dc</title>
<g id="a_node1"><a xlink:href="dir_6499f6a49b3ab1a5946451ff09d969dc.html" target="_top" xlink:title="JSURandomInputStream">
<polygon fill="none" stroke="black" points="141.5,-108 16.5,-108 16.5,-72 141.5,-72 141.5,-108"/>
<text text-anchor="middle" x="79" y="-87.5" font-family="Helvetica,sans-Serif" font-size="10.00">JSURandomInputStream</text>
</a>
</g>
</g>
<!-- dir_b778c3f297ab88300258a2935792c8cc -->
<g id="node3" class="node">
<title>dir_b778c3f297ab88300258a2935792c8cc</title>
<g id="a_node3"><a xlink:href="dir_b778c3f297ab88300258a2935792c8cc.html" target="_top" xlink:title="dolphin">
<polygon fill="none" stroke="black" points="151,-36 97,-36 97,0 151,0 151,-36"/>
<text text-anchor="middle" x="124" y="-15.5" font-family="Helvetica,sans-Serif" font-size="10.00">dolphin</text>
</a>
</g>
</g>
<!-- dir_6499f6a49b3ab1a5946451ff09d969dc&#45;&gt;dir_b778c3f297ab88300258a2935792c8cc -->
<g id="edge3" class="edge">
<title>dir_6499f6a49b3ab1a5946451ff09d969dc&#45;&gt;dir_b778c3f297ab88300258a2935792c8cc</title>
<path fill="none" stroke="black" d="M90.12,-71.7C95.36,-63.56 101.7,-53.69 107.48,-44.7"/>
<polygon fill="black" stroke="black" points="110.54,-46.41 113,-36.1 104.65,-42.62 110.54,-46.41"/>
<g id="a_edge3&#45;headlabel"><a xlink:href="dir_000102_000047.html" target="_top" xlink:title="1">
<text text-anchor="middle" x="110.99" y="-48.47" font-family="Helvetica,sans-Serif" font-size="10.00">1</text>
</a>
</g>
</g>
<!-- dir_c176ea468539cc1e2f2fd770423fc412 -->
<g id="node2" class="node">
<title>dir_c176ea468539cc1e2f2fd770423fc412</title>
<g id="a_node2"><a xlink:href="dir_c176ea468539cc1e2f2fd770423fc412.html" target="_top" xlink:title="JSUFileInputStream">
<polygon fill="#eeeeff" stroke="black" points="136.5,-180 31.5,-180 31.5,-144 136.5,-144 136.5,-180"/>
<text text-anchor="middle" x="84" y="-159.5" font-family="Helvetica,sans-Serif" font-size="10.00">JSUFileInputStream</text>
</a>
</g>
</g>
<!-- dir_c176ea468539cc1e2f2fd770423fc412&#45;&gt;dir_6499f6a49b3ab1a5946451ff09d969dc -->
<g id="edge1" class="edge">
<title>dir_c176ea468539cc1e2f2fd770423fc412&#45;&gt;dir_6499f6a49b3ab1a5946451ff09d969dc</title>
<path fill="none" stroke="black" d="M82.76,-143.7C82.21,-135.98 81.55,-126.71 80.94,-118.11"/>
<polygon fill="black" stroke="black" points="84.43,-117.83 80.22,-108.1 77.44,-118.33 84.43,-117.83"/>
<g id="a_edge1&#45;headlabel"><a xlink:href="dir_000100_000102.html" target="_top" xlink:title="1">
<text text-anchor="middle" x="87.51" y="-118.71" font-family="Helvetica,sans-Serif" font-size="10.00">1</text>
</a>
</g>
</g>
<!-- dir_c176ea468539cc1e2f2fd770423fc412&#45;&gt;dir_b778c3f297ab88300258a2935792c8cc -->
<g id="edge2" class="edge">
<title>dir_c176ea468539cc1e2f2fd770423fc412&#45;&gt;dir_b778c3f297ab88300258a2935792c8cc</title>
<path fill="none" stroke="black" d="M116.53,-143.98C129.79,-135.18 143.7,-123.09 151,-108 159.52,-90.4 156.22,-82.85 151,-64 149.21,-57.55 146.23,-51.09 142.88,-45.16"/>
<polygon fill="black" stroke="black" points="145.67,-43.03 137.43,-36.36 139.72,-46.71 145.67,-43.03"/>
<g id="a_edge2&#45;headlabel"><a xlink:href="dir_000100_000047.html" target="_top" xlink:title="1">
<text text-anchor="middle" x="149.98" y="-42.09" font-family="Helvetica,sans-Serif" font-size="10.00">1</text>
</a>
</g>
</g>
</g>
</svg>
