<?xml version="1.0" encoding="UTF-8" standalone="no"?>
<!DOCTYPE svg PUBLIC "-//W3C//DTD SVG 1.1//EN"
 "http://www.w3.org/Graphics/SVG/1.1/DTD/svg11.dtd">
<!-- Generated by graphviz version 2.46.0 (20210122.1329)
 -->
<!-- Title: include/Z2AudioLib/Z2AudioArcLoader Pages: 1 -->
<svg width="138pt" height="223pt"
 viewBox="0.00 0.00 138.00 223.00" xmlns="http://www.w3.org/2000/svg" xmlns:xlink="http://www.w3.org/1999/xlink">
<g id="graph0" class="graph" transform="scale(1 1) rotate(0) translate(4 219)">
<title>include/Z2AudioLib/Z2AudioArcLoader</title>
<polygon fill="white" stroke="transparent" points="-4,4 -4,-219 134,-219 134,4 -4,4"/>
<g id="clust1" class="cluster">
<title>clusterdir_81939fb769658ab66ba54ec390580a1a</title>
<g id="a_clust1"><a xlink:href="dir_81939fb769658ab66ba54ec390580a1a.html" target="_top" xlink:title="Z2AudioLib">
<polygon fill="#ddddee" stroke="black" points="8,-136 8,-207 122,-207 122,-136 8,-136"/>
<text text-anchor="middle" x="65" y="-195" font-family="Helvetica,sans-Serif" font-size="10.00">Z2AudioLib</text>
</a>
</g>
</g>
<!-- dir_f8ef95ca6c3e10c6598964a08976958b -->
<g id="node1" class="node">
<title>dir_f8ef95ca6c3e10c6598964a08976958b</title>
<g id="a_node1"><a xlink:href="dir_f8ef95ca6c3e10c6598964a08976958b.html" target="_top" xlink:title="Z2AudioArcLoader">
<polygon fill="#eeeeff" stroke="black" points="114,-180 16,-180 16,-144 114,-144 114,-180"/>
<text text-anchor="middle" x="65" y="-159.5" font-family="Helvetica,sans-Serif" font-size="10.00">Z2AudioArcLoader</text>
</a>
</g>
</g>
<!-- dir_4f0979a7f5e3194619cde56505e372d8 -->
<g id="node2" class="node">
<title>dir_4f0979a7f5e3194619cde56505e372d8</title>
<g id="a_node2"><a xlink:href="dir_4f0979a7f5e3194619cde56505e372d8.html" target="_top" xlink:title="JSystem">
<polygon fill="white" stroke="red" points="64.5,-108 9.5,-108 9.5,-72 64.5,-72 64.5,-108"/>
<text text-anchor="middle" x="37" y="-87.5" font-family="Helvetica,sans-Serif" font-size="10.00">JSystem</text>
</a>
</g>
</g>
<!-- dir_f8ef95ca6c3e10c6598964a08976958b&#45;&gt;dir_4f0979a7f5e3194619cde56505e372d8 -->
<g id="edge1" class="edge">
<title>dir_f8ef95ca6c3e10c6598964a08976958b&#45;&gt;dir_4f0979a7f5e3194619cde56505e372d8</title>
<path fill="none" stroke="black" d="M58.08,-143.7C54.93,-135.81 51.12,-126.3 47.62,-117.55"/>
<polygon fill="black" stroke="black" points="50.81,-116.09 43.84,-108.1 44.31,-118.69 50.81,-116.09"/>
<g id="a_edge1&#45;headlabel"><a xlink:href="dir_000123_000048.html" target="_top" xlink:title="2">
<text text-anchor="middle" x="54.78" y="-115.87" font-family="Helvetica,sans-Serif" font-size="10.00">2</text>
</a>
</g>
</g>
<!-- dir_b778c3f297ab88300258a2935792c8cc -->
<g id="node3" class="node">
<title>dir_b778c3f297ab88300258a2935792c8cc</title>
<g id="a_node3"><a xlink:href="dir_b778c3f297ab88300258a2935792c8cc.html" target="_top" xlink:title="dolphin">
<polygon fill="none" stroke="black" points="92,-36 38,-36 38,0 92,0 92,-36"/>
<text text-anchor="middle" x="65" y="-15.5" font-family="Helvetica,sans-Serif" font-size="10.00">dolphin</text>
</a>
</g>
</g>
<!-- dir_f8ef95ca6c3e10c6598964a08976958b&#45;&gt;dir_b778c3f297ab88300258a2935792c8cc -->
<g id="edge2" class="edge">
<title>dir_f8ef95ca6c3e10c6598964a08976958b&#45;&gt;dir_b778c3f297ab88300258a2935792c8cc</title>
<path fill="none" stroke="black" d="M68.65,-143.91C70.68,-133.57 72.98,-120.09 74,-108 75.34,-92.06 75.34,-87.94 74,-72 73.28,-63.5 71.93,-54.31 70.49,-46.01"/>
<polygon fill="black" stroke="black" points="73.91,-45.29 68.65,-36.09 67.03,-46.56 73.91,-45.29"/>
<g id="a_edge2&#45;headlabel"><a xlink:href="dir_000123_000042.html" target="_top" xlink:title="1">
<text text-anchor="middle" x="77.36" y="-45.81" font-family="Helvetica,sans-Serif" font-size="10.00">1</text>
</a>
</g>
</g>
<!-- dir_4f0979a7f5e3194619cde56505e372d8&#45;&gt;dir_b778c3f297ab88300258a2935792c8cc -->
<g id="edge3" class="edge">
<title>dir_4f0979a7f5e3194619cde56505e372d8&#45;&gt;dir_b778c3f297ab88300258a2935792c8cc</title>
<path fill="none" stroke="black" d="M43.92,-71.7C47.07,-63.81 50.88,-54.3 54.38,-45.55"/>
<polygon fill="black" stroke="black" points="57.69,-46.69 58.16,-36.1 51.19,-44.09 57.69,-46.69"/>
<g id="a_edge3&#45;headlabel"><a xlink:href="dir_000048_000042.html" target="_top" xlink:title="47">
<text text-anchor="middle" x="59" y="-48.58" font-family="Helvetica,sans-Serif" font-size="10.00">47</text>
</a>
</g>
</g>
</g>
</svg>
