<?xml version="1.0" encoding="UTF-8" standalone="no"?>
<!DOCTYPE svg PUBLIC "-//W3C//DTD SVG 1.1//EN"
 "http://www.w3.org/Graphics/SVG/1.1/DTD/svg11.dtd">
<!-- Generated by graphviz version 2.46.0 (20210122.1329)
 -->
<!-- Title: include/JSystem/JKernel/JKRDvdArchive Pages: 1 -->
<svg width="126pt" height="223pt"
 viewBox="0.00 0.00 126.00 223.00" xmlns="http://www.w3.org/2000/svg" xmlns:xlink="http://www.w3.org/1999/xlink">
<g id="graph0" class="graph" transform="scale(1 1) rotate(0) translate(4 219)">
<title>include/JSystem/JKernel/JKRDvdArchive</title>
<polygon fill="white" stroke="transparent" points="-4,4 -4,-219 122,-219 122,4 -4,4"/>
<g id="clust1" class="cluster">
<title>clusterdir_cd1009b6de6f257cf504091b6f95eba2</title>
<g id="a_clust1"><a xlink:href="dir_cd1009b6de6f257cf504091b6f95eba2.html" target="_top" xlink:title="JKernel">
<polygon fill="#ddddee" stroke="black" points="8,-64 8,-207 110,-207 110,-64 8,-64"/>
<text text-anchor="middle" x="59" y="-195" font-family="Helvetica,sans-Serif" font-size="10.00">JKernel</text>
</a>
</g>
</g>
<!-- dir_12c6840735c185885be0daecbf89a9e2 -->
<g id="node1" class="node">
<title>dir_12c6840735c185885be0daecbf89a9e2</title>
<g id="a_node1"><a xlink:href="dir_12c6840735c185885be0daecbf89a9e2.html" target="_top" xlink:title="JKRArchive">
<polygon fill="none" stroke="black" points="88,-108 20,-108 20,-72 88,-72 88,-108"/>
<text text-anchor="middle" x="54" y="-87.5" font-family="Helvetica,sans-Serif" font-size="10.00">JKRArchive</text>
</a>
</g>
</g>
<!-- dir_b778c3f297ab88300258a2935792c8cc -->
<g id="node3" class="node">
<title>dir_b778c3f297ab88300258a2935792c8cc</title>
<g id="a_node3"><a xlink:href="dir_b778c3f297ab88300258a2935792c8cc.html" target="_top" xlink:title="dolphin">
<polygon fill="none" stroke="black" points="112,-36 58,-36 58,0 112,0 112,-36"/>
<text text-anchor="middle" x="85" y="-15.5" font-family="Helvetica,sans-Serif" font-size="10.00">dolphin</text>
</a>
</g>
</g>
<!-- dir_12c6840735c185885be0daecbf89a9e2&#45;&gt;dir_b778c3f297ab88300258a2935792c8cc -->
<g id="edge1" class="edge">
<title>dir_12c6840735c185885be0daecbf89a9e2&#45;&gt;dir_b778c3f297ab88300258a2935792c8cc</title>
<path fill="none" stroke="black" d="M61.66,-71.7C65.19,-63.73 69.46,-54.1 73.37,-45.26"/>
<polygon fill="black" stroke="black" points="76.58,-46.67 77.43,-36.1 70.18,-43.83 76.58,-46.67"/>
<g id="a_edge1&#45;headlabel"><a xlink:href="dir_000072_000042.html" target="_top" xlink:title="1">
<text text-anchor="middle" x="77.72" y="-48.6" font-family="Helvetica,sans-Serif" font-size="10.00">1</text>
</a>
</g>
</g>
<!-- dir_7c1c6c5ed9005651b2176dcaf68ed994 -->
<g id="node2" class="node">
<title>dir_7c1c6c5ed9005651b2176dcaf68ed994</title>
<g id="a_node2"><a xlink:href="dir_7c1c6c5ed9005651b2176dcaf68ed994.html" target="_top" xlink:title="JKRDvdArchive">
<polygon fill="#eeeeff" stroke="black" points="102,-180 16,-180 16,-144 102,-144 102,-180"/>
<text text-anchor="middle" x="59" y="-159.5" font-family="Helvetica,sans-Serif" font-size="10.00">JKRDvdArchive</text>
</a>
</g>
</g>
<!-- dir_7c1c6c5ed9005651b2176dcaf68ed994&#45;&gt;dir_12c6840735c185885be0daecbf89a9e2 -->
<g id="edge2" class="edge">
<title>dir_7c1c6c5ed9005651b2176dcaf68ed994&#45;&gt;dir_12c6840735c185885be0daecbf89a9e2</title>
<path fill="none" stroke="black" d="M57.76,-143.7C57.21,-135.98 56.55,-126.71 55.94,-118.11"/>
<polygon fill="black" stroke="black" points="59.43,-117.83 55.22,-108.1 52.44,-118.33 59.43,-117.83"/>
<g id="a_edge2&#45;headlabel"><a xlink:href="dir_000078_000072.html" target="_top" xlink:title="1">
<text text-anchor="middle" x="62.51" y="-118.71" font-family="Helvetica,sans-Serif" font-size="10.00">1</text>
</a>
</g>
</g>
<!-- dir_7c1c6c5ed9005651b2176dcaf68ed994&#45;&gt;dir_b778c3f297ab88300258a2935792c8cc -->
<g id="edge3" class="edge">
<title>dir_7c1c6c5ed9005651b2176dcaf68ed994&#45;&gt;dir_b778c3f297ab88300258a2935792c8cc</title>
<path fill="none" stroke="black" d="M75.46,-143.92C83.65,-134.22 92.7,-121.37 97,-108 103.5,-87.77 99.68,-63.87 94.69,-45.92"/>
<polygon fill="black" stroke="black" points="97.96,-44.66 91.68,-36.12 91.27,-46.71 97.96,-44.66"/>
<g id="a_edge3&#45;headlabel"><a xlink:href="dir_000078_000042.html" target="_top" xlink:title="1">
<text text-anchor="middle" x="101.73" y="-44.76" font-family="Helvetica,sans-Serif" font-size="10.00">1</text>
</a>
</g>
</g>
</g>
</svg>
