<?xml version="1.0" encoding="UTF-8" standalone="no"?>
<!DOCTYPE svg PUBLIC "-//W3C//DTD SVG 1.1//EN"
 "http://www.w3.org/Graphics/SVG/1.1/DTD/svg11.dtd">
<!-- Generated by graphviz version 2.46.0 (20210122.1329)
 -->
<!-- Title: include/d/d_item Pages: 1 -->
<svg width="182pt" height="175pt"
 viewBox="0.00 0.00 182.00 175.00" xmlns="http://www.w3.org/2000/svg" xmlns:xlink="http://www.w3.org/1999/xlink">
<g id="graph0" class="graph" transform="scale(1 1) rotate(0) translate(4 171)">
<title>include/d/d_item</title>
<polygon fill="white" stroke="transparent" points="-4,4 -4,-171 178,-171 178,4 -4,4"/>
<g id="clust1" class="cluster">
<title>clusterdir_cc3ad1aed4be3f446fdd7af78322f5bf</title>
<g id="a_clust1"><a xlink:href="dir_cc3ad1aed4be3f446fdd7af78322f5bf.html" target="_top" xlink:title="d">
<polygon fill="#ddddee" stroke="black" points="8,-8 8,-159 166,-159 166,-8 8,-8"/>
<text text-anchor="middle" x="87" y="-147" font-family="Helvetica,sans-Serif" font-size="10.00">d</text>
</a>
</g>
</g>
<g id="clust2" class="cluster">
<title>clusterdir_066c3af66f6b5abe44b4eeeae02cf884</title>
<g id="a_clust2"><a xlink:href="dir_066c3af66f6b5abe44b4eeeae02cf884.html" target="_top">
<polygon fill="#eeeeff" stroke="black" points="16,-80 16,-132 158,-132 158,-80 16,-80"/>
</a>
</g>
</g>
<!-- dir_da1b004ab62b4ce1ba3710a042cb72b7 -->
<g id="node1" class="node">
<title>dir_da1b004ab62b4ce1ba3710a042cb72b7</title>
<g id="a_node1"><a xlink:href="dir_da1b004ab62b4ce1ba3710a042cb72b7.html" target="_top" xlink:title="d_com">
<polygon fill="white" stroke="red" points="78,-52 24,-52 24,-16 78,-16 78,-52"/>
<text text-anchor="middle" x="51" y="-31.5" font-family="Helvetica,sans-Serif" font-size="10.00">d_com</text>
</a>
</g>
</g>
<!-- dir_066c3af66f6b5abe44b4eeeae02cf884 -->
<g id="node2" class="node">
<title>dir_066c3af66f6b5abe44b4eeeae02cf884</title>
<text text-anchor="middle" x="123" y="-103.5" font-family="Helvetica,sans-Serif" font-size="10.00">d_item</text>
</g>
<!-- dir_9e96389decacf0826e60ca85ae27712a -->
<g id="node3" class="node">
<title>dir_9e96389decacf0826e60ca85ae27712a</title>
<g id="a_node3"><a xlink:href="dir_9e96389decacf0826e60ca85ae27712a.html" target="_top" xlink:title="d_item">
<polygon fill="white" stroke="black" points="78,-124 24,-124 24,-88 78,-88 78,-124"/>
<text text-anchor="middle" x="51" y="-103.5" font-family="Helvetica,sans-Serif" font-size="10.00">d_item</text>
</a>
</g>
</g>
<!-- dir_9e96389decacf0826e60ca85ae27712a&#45;&gt;dir_da1b004ab62b4ce1ba3710a042cb72b7 -->
<g id="edge1" class="edge">
<title>dir_9e96389decacf0826e60ca85ae27712a&#45;&gt;dir_da1b004ab62b4ce1ba3710a042cb72b7</title>
<path fill="none" stroke="black" d="M51,-87.7C51,-79.98 51,-70.71 51,-62.11"/>
<polygon fill="black" stroke="black" points="54.5,-62.1 51,-52.1 47.5,-62.1 54.5,-62.1"/>
<g id="a_edge1&#45;headlabel"><a xlink:href="dir_000029_000019.html" target="_top" xlink:title="1">
<text text-anchor="middle" x="57.34" y="-63.2" font-family="Helvetica,sans-Serif" font-size="10.00">1</text>
</a>
</g>
</g>
</g>
</svg>
