<?xml version="1.0" encoding="UTF-8" standalone="no"?>
<!DOCTYPE svg PUBLIC "-//W3C//DTD SVG 1.1//EN"
 "http://www.w3.org/Graphics/SVG/1.1/DTD/svg11.dtd">
<!-- Generated by graphviz version 2.46.0 (20210122.1329)
 -->
<!-- Title: include/JSystem/JUtility/JUTGamePad Pages: 1 -->
<svg width="284pt" height="295pt"
 viewBox="0.00 0.00 284.00 295.00" xmlns="http://www.w3.org/2000/svg" xmlns:xlink="http://www.w3.org/1999/xlink">
<g id="graph0" class="graph" transform="scale(1 1) rotate(0) translate(4 291)">
<title>include/JSystem/JUtility/JUTGamePad</title>
<polygon fill="white" stroke="transparent" points="-4,4 -4,-291 280,-291 280,4 -4,4"/>
<g id="clust1" class="cluster">
<title>clusterdir_25682d7fe27d5da48e7af3ae8c2abb7f</title>
<g id="a_clust1"><a xlink:href="dir_25682d7fe27d5da48e7af3ae8c2abb7f.html" target="_top" xlink:title="JUtility">
<polygon fill="#ddddee" stroke="black" points="92,-208 92,-279 186,-279 186,-208 92,-208"/>
<text text-anchor="middle" x="139" y="-267" font-family="Helvetica,sans-Serif" font-size="10.00">JUtility</text>
</a>
</g>
</g>
<!-- dir_690a6ddd54fd864564fb9a69d59d9efe -->
<g id="node1" class="node">
<title>dir_690a6ddd54fd864564fb9a69d59d9efe</title>
<g id="a_node1"><a xlink:href="dir_690a6ddd54fd864564fb9a69d59d9efe.html" target="_top" xlink:title="JUTGamePad">
<polygon fill="#eeeeff" stroke="black" points="178.5,-252 99.5,-252 99.5,-216 178.5,-216 178.5,-252"/>
<text text-anchor="middle" x="139" y="-231.5" font-family="Helvetica,sans-Serif" font-size="10.00">JUTGamePad</text>
</a>
</g>
</g>
<!-- dir_45593f23b58a9cb34ecfe1ccd7e4e81f -->
<g id="node2" class="node">
<title>dir_45593f23b58a9cb34ecfe1ccd7e4e81f</title>
<g id="a_node2"><a xlink:href="dir_45593f23b58a9cb34ecfe1ccd7e4e81f.html" target="_top" xlink:title="JSupport">
<polygon fill="white" stroke="red" points="56,-108 0,-108 0,-72 56,-72 56,-108"/>
<text text-anchor="middle" x="28" y="-87.5" font-family="Helvetica,sans-Serif" font-size="10.00">JSupport</text>
</a>
</g>
</g>
<!-- dir_690a6ddd54fd864564fb9a69d59d9efe&#45;&gt;dir_45593f23b58a9cb34ecfe1ccd7e4e81f -->
<g id="edge5" class="edge">
<title>dir_690a6ddd54fd864564fb9a69d59d9efe&#45;&gt;dir_45593f23b58a9cb34ecfe1ccd7e4e81f</title>
<path fill="none" stroke="black" d="M99.29,-218.57C81.08,-210.02 60.75,-197.4 48,-180 34.87,-162.08 30.13,-137.08 28.52,-118.14"/>
<polygon fill="black" stroke="black" points="32.01,-117.82 27.9,-108.06 25.02,-118.25 32.01,-117.82"/>
<g id="a_edge5&#45;headlabel"><a xlink:href="dir_000099_000093.html" target="_top" xlink:title="1">
<text text-anchor="middle" x="35.06" y="-118.74" font-family="Helvetica,sans-Serif" font-size="10.00">1</text>
</a>
</g>
</g>
<!-- dir_7b371d9fdb0359ac564866f88df60f77 -->
<g id="node3" class="node">
<title>dir_7b371d9fdb0359ac564866f88df60f77</title>
<g id="a_node3"><a xlink:href="dir_7b371d9fdb0359ac564866f88df60f77.html" target="_top" xlink:title="os">
<polygon fill="none" stroke="black" points="166,-108 112,-108 112,-72 166,-72 166,-108"/>
<text text-anchor="middle" x="139" y="-87.5" font-family="Helvetica,sans-Serif" font-size="10.00">os</text>
</a>
</g>
</g>
<!-- dir_690a6ddd54fd864564fb9a69d59d9efe&#45;&gt;dir_7b371d9fdb0359ac564866f88df60f77 -->
<g id="edge6" class="edge">
<title>dir_690a6ddd54fd864564fb9a69d59d9efe&#45;&gt;dir_7b371d9fdb0359ac564866f88df60f77</title>
<path fill="none" stroke="black" d="M139,-215.87C139,-191.67 139,-147.21 139,-118.39"/>
<polygon fill="black" stroke="black" points="142.5,-118.19 139,-108.19 135.5,-118.19 142.5,-118.19"/>
<g id="a_edge6&#45;headlabel"><a xlink:href="dir_000099_000111.html" target="_top" xlink:title="1">
<text text-anchor="middle" x="145.34" y="-119.28" font-family="Helvetica,sans-Serif" font-size="10.00">1</text>
</a>
</g>
</g>
<!-- dir_b778c3f297ab88300258a2935792c8cc -->
<g id="node4" class="node">
<title>dir_b778c3f297ab88300258a2935792c8cc</title>
<g id="a_node4"><a xlink:href="dir_b778c3f297ab88300258a2935792c8cc.html" target="_top" xlink:title="dolphin">
<polygon fill="none" stroke="black" points="138,-36 84,-36 84,0 138,0 138,-36"/>
<text text-anchor="middle" x="111" y="-15.5" font-family="Helvetica,sans-Serif" font-size="10.00">dolphin</text>
</a>
</g>
</g>
<!-- dir_690a6ddd54fd864564fb9a69d59d9efe&#45;&gt;dir_b778c3f297ab88300258a2935792c8cc -->
<g id="edge7" class="edge">
<title>dir_690a6ddd54fd864564fb9a69d59d9efe&#45;&gt;dir_b778c3f297ab88300258a2935792c8cc</title>
<path fill="none" stroke="black" d="M149.84,-215.75C167.44,-185.4 198.04,-120.99 175,-72 168.82,-58.87 157.62,-47.87 146.3,-39.36"/>
<polygon fill="black" stroke="black" points="148.29,-36.49 138.1,-33.61 144.27,-42.22 148.29,-36.49"/>
<g id="a_edge7&#45;headlabel"><a xlink:href="dir_000099_000042.html" target="_top" xlink:title="1">
<text text-anchor="middle" x="152.87" y="-33.73" font-family="Helvetica,sans-Serif" font-size="10.00">1</text>
</a>
</g>
</g>
<!-- dir_cd1009b6de6f257cf504091b6f95eba2 -->
<g id="node5" class="node">
<title>dir_cd1009b6de6f257cf504091b6f95eba2</title>
<g id="a_node5"><a xlink:href="dir_cd1009b6de6f257cf504091b6f95eba2.html" target="_top" xlink:title="JKernel">
<polygon fill="white" stroke="red" points="111,-180 57,-180 57,-144 111,-144 111,-180"/>
<text text-anchor="middle" x="84" y="-159.5" font-family="Helvetica,sans-Serif" font-size="10.00">JKernel</text>
</a>
</g>
</g>
<!-- dir_690a6ddd54fd864564fb9a69d59d9efe&#45;&gt;dir_cd1009b6de6f257cf504091b6f95eba2 -->
<g id="edge8" class="edge">
<title>dir_690a6ddd54fd864564fb9a69d59d9efe&#45;&gt;dir_cd1009b6de6f257cf504091b6f95eba2</title>
<path fill="none" stroke="black" d="M125.4,-215.7C118.88,-207.39 110.93,-197.28 103.75,-188.14"/>
<polygon fill="black" stroke="black" points="106.37,-185.81 97.44,-180.1 100.87,-190.13 106.37,-185.81"/>
<g id="a_edge8&#45;headlabel"><a xlink:href="dir_000099_000065.html" target="_top" xlink:title="1">
<text text-anchor="middle" x="110.82" y="-184.38" font-family="Helvetica,sans-Serif" font-size="10.00">1</text>
</a>
</g>
</g>
<!-- dir_fbee22fe0c165caa3600c214f3fde6f6 -->
<g id="node6" class="node">
<title>dir_fbee22fe0c165caa3600c214f3fde6f6</title>
<g id="a_node6"><a xlink:href="dir_fbee22fe0c165caa3600c214f3fde6f6.html" target="_top" xlink:title="pad">
<polygon fill="none" stroke="black" points="276,-180 222,-180 222,-144 276,-144 276,-180"/>
<text text-anchor="middle" x="249" y="-159.5" font-family="Helvetica,sans-Serif" font-size="10.00">pad</text>
</a>
</g>
</g>
<!-- dir_690a6ddd54fd864564fb9a69d59d9efe&#45;&gt;dir_fbee22fe0c165caa3600c214f3fde6f6 -->
<g id="edge9" class="edge">
<title>dir_690a6ddd54fd864564fb9a69d59d9efe&#45;&gt;dir_fbee22fe0c165caa3600c214f3fde6f6</title>
<path fill="none" stroke="black" d="M165.91,-215.88C180.16,-206.81 197.85,-195.55 213.24,-185.76"/>
<polygon fill="black" stroke="black" points="215.43,-188.51 221.99,-180.19 211.67,-182.61 215.43,-188.51"/>
<g id="a_edge9&#45;headlabel"><a xlink:href="dir_000099_000112.html" target="_top" xlink:title="1">
<text text-anchor="middle" x="213.92" y="-190.34" font-family="Helvetica,sans-Serif" font-size="10.00">1</text>
</a>
</g>
</g>
<!-- dir_45593f23b58a9cb34ecfe1ccd7e4e81f&#45;&gt;dir_b778c3f297ab88300258a2935792c8cc -->
<g id="edge1" class="edge">
<title>dir_45593f23b58a9cb34ecfe1ccd7e4e81f&#45;&gt;dir_b778c3f297ab88300258a2935792c8cc</title>
<path fill="none" stroke="black" d="M48.52,-71.7C58.87,-62.97 71.59,-52.24 82.84,-42.75"/>
<polygon fill="black" stroke="black" points="85.33,-45.23 90.72,-36.1 80.82,-39.88 85.33,-45.23"/>
<g id="a_edge1&#45;headlabel"><a xlink:href="dir_000093_000042.html" target="_top" xlink:title="5">
<text text-anchor="middle" x="84.41" y="-47.21" font-family="Helvetica,sans-Serif" font-size="10.00">5</text>
</a>
</g>
</g>
<!-- dir_7b371d9fdb0359ac564866f88df60f77&#45;&gt;dir_b778c3f297ab88300258a2935792c8cc -->
<g id="edge10" class="edge">
<title>dir_7b371d9fdb0359ac564866f88df60f77&#45;&gt;dir_b778c3f297ab88300258a2935792c8cc</title>
<path fill="none" stroke="black" d="M132.08,-71.7C128.93,-63.81 125.12,-54.3 121.62,-45.55"/>
<polygon fill="black" stroke="black" points="124.81,-44.09 117.84,-36.1 118.31,-46.69 124.81,-44.09"/>
<g id="a_edge10&#45;headlabel"><a xlink:href="dir_000111_000042.html" target="_top" xlink:title="1">
<text text-anchor="middle" x="128.78" y="-43.87" font-family="Helvetica,sans-Serif" font-size="10.00">1</text>
</a>
</g>
</g>
<!-- dir_cd1009b6de6f257cf504091b6f95eba2&#45;&gt;dir_45593f23b58a9cb34ecfe1ccd7e4e81f -->
<g id="edge3" class="edge">
<title>dir_cd1009b6de6f257cf504091b6f95eba2&#45;&gt;dir_45593f23b58a9cb34ecfe1ccd7e4e81f</title>
<path fill="none" stroke="black" d="M70.16,-143.7C63.51,-135.39 55.42,-125.28 48.11,-116.14"/>
<polygon fill="black" stroke="black" points="50.66,-113.73 41.68,-108.1 45.2,-118.1 50.66,-113.73"/>
<g id="a_edge3&#45;headlabel"><a xlink:href="dir_000065_000093.html" target="_top" xlink:title="6">
<text text-anchor="middle" x="55.13" y="-112.26" font-family="Helvetica,sans-Serif" font-size="10.00">6</text>
</a>
</g>
</g>
<!-- dir_cd1009b6de6f257cf504091b6f95eba2&#45;&gt;dir_7b371d9fdb0359ac564866f88df60f77 -->
<g id="edge4" class="edge">
<title>dir_cd1009b6de6f257cf504091b6f95eba2&#45;&gt;dir_7b371d9fdb0359ac564866f88df60f77</title>
<path fill="none" stroke="black" d="M97.6,-143.7C104.12,-135.39 112.07,-125.28 119.25,-116.14"/>
<polygon fill="black" stroke="black" points="122.13,-118.13 125.56,-108.1 116.63,-113.81 122.13,-118.13"/>
<g id="a_edge4&#45;headlabel"><a xlink:href="dir_000065_000111.html" target="_top" xlink:title="1">
<text text-anchor="middle" x="122.15" y="-120.21" font-family="Helvetica,sans-Serif" font-size="10.00">1</text>
</a>
</g>
</g>
<!-- dir_cd1009b6de6f257cf504091b6f95eba2&#45;&gt;dir_b778c3f297ab88300258a2935792c8cc -->
<g id="edge2" class="edge">
<title>dir_cd1009b6de6f257cf504091b6f95eba2&#45;&gt;dir_b778c3f297ab88300258a2935792c8cc</title>
<path fill="none" stroke="black" d="M87.26,-143.87C91.86,-119.67 100.31,-75.21 105.79,-46.39"/>
<polygon fill="black" stroke="black" points="109.3,-46.67 107.73,-36.19 102.43,-45.36 109.3,-46.67"/>
<g id="a_edge2&#45;headlabel"><a xlink:href="dir_000065_000042.html" target="_top" xlink:title="26">
<text text-anchor="middle" x="111.42" y="-48.23" font-family="Helvetica,sans-Serif" font-size="10.00">26</text>
</a>
</g>
</g>
</g>
</svg>
