<?xml version="1.0" encoding="UTF-8" standalone="no"?>
<!DOCTYPE svg PUBLIC "-//W3C//DTD SVG 1.1//EN"
 "http://www.w3.org/Graphics/SVG/1.1/DTD/svg11.dtd">
<!-- Generated by graphviz version 2.46.1 (20210215.1649)
 -->
<!-- Title: include/d/d_com Pages: 1 -->
<svg width="725pt" height="231pt"
 viewBox="0.00 0.00 724.63 231.00" xmlns="http://www.w3.org/2000/svg" xmlns:xlink="http://www.w3.org/1999/xlink">
<g id="graph0" class="graph" transform="scale(1 1) rotate(0) translate(4 227)">
<title>include/d/d_com</title>
<polygon fill="white" stroke="transparent" points="-4,4 -4,-227 720.63,-227 720.63,4 -4,4"/>
<g id="clust1" class="cluster">
<title>clusterdir_cc3ad1aed4be3f446fdd7af78322f5bf</title>
<g id="a_clust1"><a xlink:href="dir_cc3ad1aed4be3f446fdd7af78322f5bf.html" target="_top" xlink:title="d">
<polygon fill="#ddddee" stroke="black" points="8,-64 8,-215 696,-215 696,-64 8,-64"/>
<text text-anchor="middle" x="352" y="-203" font-family="Helvetica,sans-Serif" font-size="10.00">d</text>
</a>
</g>
</g>
<g id="clust2" class="cluster">
<title>clusterdir_da1b004ab62b4ce1ba3710a042cb72b7</title>
<g id="a_clust2"><a xlink:href="dir_da1b004ab62b4ce1ba3710a042cb72b7.html" target="_top">
<polygon fill="#eeeeff" stroke="black" points="336,-136 336,-188 516,-188 516,-136 336,-136"/>
</a>
</g>
</g>
<!-- dir_fe009e1bcd6429a5beee2269c6ba10eb -->
<g id="node1" class="node">
<title>dir_fe009e1bcd6429a5beee2269c6ba10eb</title>
<g id="a_node1"><a xlink:href="dir_fe009e1bcd6429a5beee2269c6ba10eb.html" target="_top" xlink:title="d_attention">
<polygon fill="none" stroke="black" points="81.5,-108 16.5,-108 16.5,-72 81.5,-72 81.5,-108"/>
<text text-anchor="middle" x="49" y="-87.5" font-family="Helvetica,sans-Serif" font-size="10.00">d_attention</text>
</a>
</g>
</g>
<!-- dir_76ec03b56887a0e8201bcb48abf48018 -->
<g id="node12" class="node">
<title>dir_76ec03b56887a0e8201bcb48abf48018</title>
<g id="a_node12"><a xlink:href="dir_76ec03b56887a0e8201bcb48abf48018.html" target="_top" xlink:title="SComponent">
<polygon fill="white" stroke="red" points="389.5,-36 316.5,-36 316.5,0 389.5,0 389.5,-36"/>
<text text-anchor="middle" x="353" y="-15.5" font-family="Helvetica,sans-Serif" font-size="10.00">SComponent</text>
</a>
</g>
</g>
<!-- dir_fe009e1bcd6429a5beee2269c6ba10eb&#45;&gt;dir_76ec03b56887a0e8201bcb48abf48018 -->
<g id="edge1" class="edge">
<title>dir_fe009e1bcd6429a5beee2269c6ba10eb&#45;&gt;dir_76ec03b56887a0e8201bcb48abf48018</title>
<path fill="none" stroke="black" d="M74.47,-71.84C79.76,-68.86 85.43,-66.06 91,-64 163.25,-37.34 252.64,-26.31 306.12,-21.87"/>
<polygon fill="black" stroke="black" points="306.62,-25.34 316.32,-21.07 306.07,-18.36 306.62,-25.34"/>
<g id="a_edge1&#45;headlabel"><a xlink:href="dir_000010_000123.html" target="_top" xlink:title="2">
<text text-anchor="middle" x="303.26" y="-25.95" font-family="Helvetica,sans-Serif" font-size="10.00">2</text>
</a>
</g>
</g>
<!-- dir_e3e3b7eedf580379369cf5f04b610807 -->
<g id="node2" class="node">
<title>dir_e3e3b7eedf580379369cf5f04b610807</title>
<g id="a_node2"><a xlink:href="dir_e3e3b7eedf580379369cf5f04b610807.html" target="_top" xlink:title="d_bg">
<polygon fill="white" stroke="red" points="154,-108 100,-108 100,-72 154,-72 154,-108"/>
<text text-anchor="middle" x="127" y="-87.5" font-family="Helvetica,sans-Serif" font-size="10.00">d_bg</text>
</a>
</g>
</g>
<!-- dir_d8f68de767d13f502dffa2cd27f1ff82 -->
<g id="node3" class="node">
<title>dir_d8f68de767d13f502dffa2cd27f1ff82</title>
<g id="a_node3"><a xlink:href="dir_d8f68de767d13f502dffa2cd27f1ff82.html" target="_top" xlink:title="d_cc">
<polygon fill="white" stroke="red" points="226,-108 172,-108 172,-72 226,-72 226,-108"/>
<text text-anchor="middle" x="199" y="-87.5" font-family="Helvetica,sans-Serif" font-size="10.00">d_cc</text>
</a>
</g>
</g>
<!-- dir_d8f68de767d13f502dffa2cd27f1ff82&#45;&gt;dir_76ec03b56887a0e8201bcb48abf48018 -->
<g id="edge2" class="edge">
<title>dir_d8f68de767d13f502dffa2cd27f1ff82&#45;&gt;dir_76ec03b56887a0e8201bcb48abf48018</title>
<path fill="none" stroke="black" d="M222.79,-71.78C227.09,-69 231.6,-66.29 236,-64 258.61,-52.21 285.03,-41.79 307.04,-33.95"/>
<polygon fill="black" stroke="black" points="308.21,-37.25 316.49,-30.64 305.9,-30.64 308.21,-37.25"/>
<g id="a_edge2&#45;headlabel"><a xlink:href="dir_000016_000123.html" target="_top" xlink:title="2">
<text text-anchor="middle" x="305.75" y="-38.61" font-family="Helvetica,sans-Serif" font-size="10.00">2</text>
</a>
</g>
</g>
<!-- dir_89d018f6522593b606270e65dcd55a5d -->
<g id="node4" class="node">
<title>dir_89d018f6522593b606270e65dcd55a5d</title>
<g id="a_node4"><a xlink:href="dir_89d018f6522593b606270e65dcd55a5d.html" target="_top" xlink:title="d_drawlist">
<polygon fill="none" stroke="black" points="305.5,-108 244.5,-108 244.5,-72 305.5,-72 305.5,-108"/>
<text text-anchor="middle" x="275" y="-87.5" font-family="Helvetica,sans-Serif" font-size="10.00">d_drawlist</text>
</a>
</g>
</g>
<!-- dir_7e0f411a705317be5711a7517318c4ca -->
<g id="node5" class="node">
<title>dir_7e0f411a705317be5711a7517318c4ca</title>
<g id="a_node5"><a xlink:href="dir_7e0f411a705317be5711a7517318c4ca.html" target="_top" xlink:title="d_event">
<polygon fill="white" stroke="red" points="378,-108 324,-108 324,-72 378,-72 378,-108"/>
<text text-anchor="middle" x="351" y="-87.5" font-family="Helvetica,sans-Serif" font-size="10.00">d_event</text>
</a>
</g>
</g>
<!-- dir_9760051397f395779db35ee52d3e8170 -->
<g id="node6" class="node">
<title>dir_9760051397f395779db35ee52d3e8170</title>
<g id="a_node6"><a xlink:href="dir_9760051397f395779db35ee52d3e8170.html" target="_top" xlink:title="d_resource">
<polygon fill="none" stroke="black" points="461.5,-108 396.5,-108 396.5,-72 461.5,-72 461.5,-108"/>
<text text-anchor="middle" x="429" y="-87.5" font-family="Helvetica,sans-Serif" font-size="10.00">d_resource</text>
</a>
</g>
</g>
<!-- dir_063c165614e438cbcf770f6656a50335 -->
<g id="node7" class="node">
<title>dir_063c165614e438cbcf770f6656a50335</title>
<g id="a_node7"><a xlink:href="dir_063c165614e438cbcf770f6656a50335.html" target="_top" xlink:title="d_save">
<polygon fill="white" stroke="red" points="534,-108 480,-108 480,-72 534,-72 534,-108"/>
<text text-anchor="middle" x="507" y="-87.5" font-family="Helvetica,sans-Serif" font-size="10.00">d_save</text>
</a>
</g>
</g>
<!-- dir_063c165614e438cbcf770f6656a50335&#45;&gt;dir_76ec03b56887a0e8201bcb48abf48018 -->
<g id="edge13" class="edge">
<title>dir_063c165614e438cbcf770f6656a50335&#45;&gt;dir_76ec03b56887a0e8201bcb48abf48018</title>
<path fill="none" stroke="black" d="M483.89,-71.74C479.71,-68.97 475.31,-66.27 471,-64 448.2,-51.96 421.44,-41.49 399.18,-33.68"/>
<polygon fill="black" stroke="black" points="400.22,-30.34 389.62,-30.4 397.94,-36.96 400.22,-30.34"/>
<g id="a_edge13&#45;headlabel"><a xlink:href="dir_000041_000123.html" target="_top" xlink:title="1">
<text text-anchor="middle" x="404.54" y="-26.32" font-family="Helvetica,sans-Serif" font-size="10.00">1</text>
</a>
</g>
</g>
<!-- dir_bfbdd226b5ad427618f68a9429b39fce -->
<g id="node8" class="node">
<title>dir_bfbdd226b5ad427618f68a9429b39fce</title>
<g id="a_node8"><a xlink:href="dir_bfbdd226b5ad427618f68a9429b39fce.html" target="_top" xlink:title="d_stage">
<polygon fill="none" stroke="black" points="606,-108 552,-108 552,-72 606,-72 606,-108"/>
<text text-anchor="middle" x="579" y="-87.5" font-family="Helvetica,sans-Serif" font-size="10.00">d_stage</text>
</a>
</g>
</g>
<!-- dir_fbf9cb23cdeaf88143d56d4e254becc3 -->
<g id="node9" class="node">
<title>dir_fbf9cb23cdeaf88143d56d4e254becc3</title>
<g id="a_node9"><a xlink:href="dir_fbf9cb23cdeaf88143d56d4e254becc3.html" target="_top" xlink:title="d_vibration">
<polygon fill="none" stroke="black" points="688,-108 624,-108 624,-72 688,-72 688,-108"/>
<text text-anchor="middle" x="656" y="-87.5" font-family="Helvetica,sans-Serif" font-size="10.00">d_vibration</text>
</a>
</g>
</g>
<!-- dir_da1b004ab62b4ce1ba3710a042cb72b7 -->
<g id="node10" class="node">
<title>dir_da1b004ab62b4ce1ba3710a042cb72b7</title>
<text text-anchor="middle" x="481" y="-159.5" font-family="Helvetica,sans-Serif" font-size="10.00">d_com</text>
</g>
<!-- dir_293c65f2b8fbda966d0db9233b0d13f9 -->
<g id="node11" class="node">
<title>dir_293c65f2b8fbda966d0db9233b0d13f9</title>
<g id="a_node11"><a xlink:href="dir_293c65f2b8fbda966d0db9233b0d13f9.html" target="_top" xlink:title="d_com_inf_game">
<polygon fill="white" stroke="black" points="435.5,-180 344.5,-180 344.5,-144 435.5,-144 435.5,-180"/>
<text text-anchor="middle" x="390" y="-159.5" font-family="Helvetica,sans-Serif" font-size="10.00">d_com_inf_game</text>
</a>
</g>
</g>
<!-- dir_293c65f2b8fbda966d0db9233b0d13f9&#45;&gt;dir_fe009e1bcd6429a5beee2269c6ba10eb -->
<g id="edge12" class="edge">
<title>dir_293c65f2b8fbda966d0db9233b0d13f9&#45;&gt;dir_fe009e1bcd6429a5beee2269c6ba10eb</title>
<path fill="none" stroke="black" d="M344.24,-155.91C286.96,-148.88 185.9,-134.29 91.49,-107.8"/>
<polygon fill="black" stroke="black" points="92.36,-104.41 81.79,-105.03 90.44,-111.14 92.36,-104.41"/>
<g id="a_edge12&#45;headlabel"><a xlink:href="dir_000020_000010.html" target="_top" xlink:title="1">
<text text-anchor="middle" x="96.6" y="-100.17" font-family="Helvetica,sans-Serif" font-size="10.00">1</text>
</a>
</g>
</g>
<!-- dir_293c65f2b8fbda966d0db9233b0d13f9&#45;&gt;dir_e3e3b7eedf580379369cf5f04b610807 -->
<g id="edge10" class="edge">
<title>dir_293c65f2b8fbda966d0db9233b0d13f9&#45;&gt;dir_e3e3b7eedf580379369cf5f04b610807</title>
<path fill="none" stroke="black" d="M344.41,-153.3C300.08,-145.16 230.9,-130.74 163.73,-107.89"/>
<polygon fill="black" stroke="black" points="164.86,-104.58 154.27,-104.61 162.57,-111.19 164.86,-104.58"/>
<g id="a_edge10&#45;headlabel"><a xlink:href="dir_000020_000011.html" target="_top" xlink:title="2">
<text text-anchor="middle" x="169.19" y="-100.57" font-family="Helvetica,sans-Serif" font-size="10.00">2</text>
</a>
</g>
</g>
<!-- dir_293c65f2b8fbda966d0db9233b0d13f9&#45;&gt;dir_d8f68de767d13f502dffa2cd27f1ff82 -->
<g id="edge9" class="edge">
<title>dir_293c65f2b8fbda966d0db9233b0d13f9&#45;&gt;dir_d8f68de767d13f502dffa2cd27f1ff82</title>
<path fill="none" stroke="black" d="M344.42,-146.63C313.53,-136.57 271.96,-122.41 236,-108 235.9,-107.96 235.8,-107.92 235.7,-107.88"/>
<polygon fill="black" stroke="black" points="236.92,-104.6 226.35,-103.93 234.2,-111.05 236.92,-104.6"/>
<g id="a_edge9&#45;headlabel"><a xlink:href="dir_000020_000016.html" target="_top" xlink:title="1">
<text text-anchor="middle" x="241.34" y="-100.88" font-family="Helvetica,sans-Serif" font-size="10.00">1</text>
</a>
</g>
</g>
<!-- dir_293c65f2b8fbda966d0db9233b0d13f9&#45;&gt;dir_89d018f6522593b606270e65dcd55a5d -->
<g id="edge6" class="edge">
<title>dir_293c65f2b8fbda966d0db9233b0d13f9&#45;&gt;dir_89d018f6522593b606270e65dcd55a5d</title>
<path fill="none" stroke="black" d="M361.87,-143.88C346.83,-134.72 328.13,-123.34 311.94,-113.48"/>
<polygon fill="black" stroke="black" points="313.6,-110.4 303.24,-108.19 309.96,-116.38 313.6,-110.4"/>
<g id="a_edge6&#45;headlabel"><a xlink:href="dir_000020_000021.html" target="_top" xlink:title="1">
<text text-anchor="middle" x="318.15" y="-107.34" font-family="Helvetica,sans-Serif" font-size="10.00">1</text>
</a>
</g>
</g>
<!-- dir_293c65f2b8fbda966d0db9233b0d13f9&#45;&gt;dir_7e0f411a705317be5711a7517318c4ca -->
<g id="edge5" class="edge">
<title>dir_293c65f2b8fbda966d0db9233b0d13f9&#45;&gt;dir_7e0f411a705317be5711a7517318c4ca</title>
<path fill="none" stroke="black" d="M380.36,-143.7C375.87,-135.64 370.44,-125.89 365.48,-116.98"/>
<polygon fill="black" stroke="black" points="368.45,-115.14 360.53,-108.1 362.34,-118.54 368.45,-115.14"/>
<g id="a_edge5&#45;headlabel"><a xlink:href="dir_000020_000022.html" target="_top" xlink:title="2">
<text text-anchor="middle" x="372.68" y="-114.39" font-family="Helvetica,sans-Serif" font-size="10.00">2</text>
</a>
</g>
</g>
<!-- dir_293c65f2b8fbda966d0db9233b0d13f9&#45;&gt;dir_9760051397f395779db35ee52d3e8170 -->
<g id="edge7" class="edge">
<title>dir_293c65f2b8fbda966d0db9233b0d13f9&#45;&gt;dir_9760051397f395779db35ee52d3e8170</title>
<path fill="none" stroke="black" d="M399.64,-143.7C404.13,-135.64 409.56,-125.89 414.52,-116.98"/>
<polygon fill="black" stroke="black" points="417.66,-118.54 419.47,-108.1 411.55,-115.14 417.66,-118.54"/>
<g id="a_edge7&#45;headlabel"><a xlink:href="dir_000020_000040.html" target="_top" xlink:title="1">
<text text-anchor="middle" x="418.39" y="-120.57" font-family="Helvetica,sans-Serif" font-size="10.00">1</text>
</a>
</g>
</g>
<!-- dir_293c65f2b8fbda966d0db9233b0d13f9&#45;&gt;dir_063c165614e438cbcf770f6656a50335 -->
<g id="edge3" class="edge">
<title>dir_293c65f2b8fbda966d0db9233b0d13f9&#45;&gt;dir_063c165614e438cbcf770f6656a50335</title>
<path fill="none" stroke="black" d="M418.62,-143.88C434.38,-134.45 454.08,-122.66 470.89,-112.61"/>
<polygon fill="black" stroke="black" points="473.1,-115.36 479.88,-107.23 469.5,-109.36 473.1,-115.36"/>
<g id="a_edge3&#45;headlabel"><a xlink:href="dir_000020_000041.html" target="_top" xlink:title="1">
<text text-anchor="middle" x="471.47" y="-117.15" font-family="Helvetica,sans-Serif" font-size="10.00">1</text>
</a>
</g>
</g>
<!-- dir_293c65f2b8fbda966d0db9233b0d13f9&#45;&gt;dir_bfbdd226b5ad427618f68a9429b39fce -->
<g id="edge8" class="edge">
<title>dir_293c65f2b8fbda966d0db9233b0d13f9&#45;&gt;dir_bfbdd226b5ad427618f68a9429b39fce</title>
<path fill="none" stroke="black" d="M425.48,-143.95C431.91,-141.12 438.6,-138.35 445,-136 484.77,-121.37 498.79,-123.56 542.26,-107.95"/>
<polygon fill="black" stroke="black" points="543.52,-111.22 551.68,-104.46 541.09,-104.66 543.52,-111.22"/>
<g id="a_edge8&#45;headlabel"><a xlink:href="dir_000020_000045.html" target="_top" xlink:title="1">
<text text-anchor="middle" x="541.14" y="-112.63" font-family="Helvetica,sans-Serif" font-size="10.00">1</text>
</a>
</g>
</g>
<!-- dir_293c65f2b8fbda966d0db9233b0d13f9&#45;&gt;dir_fbf9cb23cdeaf88143d56d4e254becc3 -->
<g id="edge11" class="edge">
<title>dir_293c65f2b8fbda966d0db9233b0d13f9&#45;&gt;dir_fbf9cb23cdeaf88143d56d4e254becc3</title>
<path fill="none" stroke="black" d="M423.79,-143.97C430.68,-140.97 437.97,-138.13 445,-136 515.26,-114.65 539.39,-127.83 613.74,-107.97"/>
<polygon fill="black" stroke="black" points="614.87,-111.29 623.57,-105.24 612.99,-104.55 614.87,-111.29"/>
<g id="a_edge11&#45;headlabel"><a xlink:href="dir_000020_000046.html" target="_top" xlink:title="1">
<text text-anchor="middle" x="612.17" y="-112.49" font-family="Helvetica,sans-Serif" font-size="10.00">1</text>
</a>
</g>
</g>
<!-- dir_293c65f2b8fbda966d0db9233b0d13f9&#45;&gt;dir_76ec03b56887a0e8201bcb48abf48018 -->
<g id="edge4" class="edge">
<title>dir_293c65f2b8fbda966d0db9233b0d13f9&#45;&gt;dir_76ec03b56887a0e8201bcb48abf48018</title>
<path fill="none" stroke="black" d="M423.11,-143.92C430.18,-140.85 437.72,-138 445,-136 558.56,-104.82 777.73,-152.46 700,-64 680.5,-41.81 490.24,-27.36 400.02,-21.7"/>
<polygon fill="black" stroke="black" points="399.98,-18.19 389.79,-21.07 399.55,-25.18 399.98,-18.19"/>
<g id="a_edge4&#45;headlabel"><a xlink:href="dir_000020_000123.html" target="_top" xlink:title="1">
<text text-anchor="middle" x="403.75" y="-13.08" font-family="Helvetica,sans-Serif" font-size="10.00">1</text>
</a>
</g>
</g>
</g>
</svg>
