<?xml version="1.0" encoding="UTF-8" standalone="no"?>
<!DOCTYPE svg PUBLIC "-//W3C//DTD SVG 1.1//EN"
 "http://www.w3.org/Graphics/SVG/1.1/DTD/svg11.dtd">
<!-- Generated by graphviz version 2.46.1 (20210215.1649)
 -->
<!-- Title: include/JSystem/J2DGraph Pages: 1 -->
<svg width="355pt" height="375pt"
 viewBox="0.00 0.00 355.24 375.00" xmlns="http://www.w3.org/2000/svg" xmlns:xlink="http://www.w3.org/1999/xlink">
<g id="graph0" class="graph" transform="scale(1 1) rotate(0) translate(4 371)">
<title>include/JSystem/J2DGraph</title>
<polygon fill="white" stroke="transparent" points="-4,4 -4,-371 351.24,-371 351.24,4 -4,4"/>
<g id="clust1" class="cluster">
<title>clusterdir_4f0979a7f5e3194619cde56505e372d8</title>
<g id="a_clust1"><a xlink:href="dir_4f0979a7f5e3194619cde56505e372d8.html" target="_top" xlink:title="JSystem">
<polygon fill="#ddddee" stroke="black" points="8,-64 8,-359 271,-359 271,-64 8,-64"/>
<text text-anchor="middle" x="139.5" y="-347" font-family="Helvetica,sans-Serif" font-size="10.00">JSystem</text>
</a>
</g>
</g>
<g id="clust2" class="cluster">
<title>clusterdir_a9517e75d808b51ad9f5947a3cea1d31</title>
<g id="a_clust2"><a xlink:href="dir_a9517e75d808b51ad9f5947a3cea1d31.html" target="_top">
<polygon fill="#eeeeff" stroke="black" points="16,-280 16,-332 263,-332 263,-280 16,-280"/>
</a>
</g>
</g>
<!-- dir_25682d7fe27d5da48e7af3ae8c2abb7f -->
<g id="node1" class="node">
<title>dir_25682d7fe27d5da48e7af3ae8c2abb7f</title>
<g id="a_node1"><a xlink:href="dir_25682d7fe27d5da48e7af3ae8c2abb7f.html" target="_top" xlink:title="JUtility">
<polygon fill="white" stroke="red" points="241,-252 187,-252 187,-216 241,-216 241,-252"/>
<text text-anchor="middle" x="214" y="-231.5" font-family="Helvetica,sans-Serif" font-size="10.00">JUtility</text>
</a>
</g>
</g>
<!-- dir_45593f23b58a9cb34ecfe1ccd7e4e81f -->
<g id="node2" class="node">
<title>dir_45593f23b58a9cb34ecfe1ccd7e4e81f</title>
<g id="a_node2"><a xlink:href="dir_45593f23b58a9cb34ecfe1ccd7e4e81f.html" target="_top" xlink:title="JSupport">
<polygon fill="white" stroke="red" points="263,-108 207,-108 207,-72 263,-72 263,-108"/>
<text text-anchor="middle" x="235" y="-87.5" font-family="Helvetica,sans-Serif" font-size="10.00">JSupport</text>
</a>
</g>
</g>
<!-- dir_25682d7fe27d5da48e7af3ae8c2abb7f&#45;&gt;dir_45593f23b58a9cb34ecfe1ccd7e4e81f -->
<g id="edge10" class="edge">
<title>dir_25682d7fe27d5da48e7af3ae8c2abb7f&#45;&gt;dir_45593f23b58a9cb34ecfe1ccd7e4e81f</title>
<path fill="none" stroke="black" d="M219.33,-215.99C222.35,-205.67 225.93,-192.2 228,-180 231.48,-159.5 233.24,-136.05 234.12,-118.36"/>
<polygon fill="black" stroke="black" points="237.63,-118.32 234.56,-108.17 230.63,-118.01 237.63,-118.32"/>
<g id="a_edge10&#45;headlabel"><a xlink:href="dir_000103_000099.html" target="_top" xlink:title="2">
<text text-anchor="middle" x="240.31" y="-119.53" font-family="Helvetica,sans-Serif" font-size="10.00">2</text>
</a>
</g>
</g>
<!-- dir_cd1009b6de6f257cf504091b6f95eba2 -->
<g id="node3" class="node">
<title>dir_cd1009b6de6f257cf504091b6f95eba2</title>
<g id="a_node3"><a xlink:href="dir_cd1009b6de6f257cf504091b6f95eba2.html" target="_top" xlink:title="JKernel">
<polygon fill="white" stroke="red" points="219,-180 165,-180 165,-144 219,-144 219,-180"/>
<text text-anchor="middle" x="192" y="-159.5" font-family="Helvetica,sans-Serif" font-size="10.00">JKernel</text>
</a>
</g>
</g>
<!-- dir_25682d7fe27d5da48e7af3ae8c2abb7f&#45;&gt;dir_cd1009b6de6f257cf504091b6f95eba2 -->
<g id="edge13" class="edge">
<title>dir_25682d7fe27d5da48e7af3ae8c2abb7f&#45;&gt;dir_cd1009b6de6f257cf504091b6f95eba2</title>
<path fill="none" stroke="black" d="M208.56,-215.7C206.11,-207.9 203.16,-198.51 200.43,-189.83"/>
<polygon fill="black" stroke="black" points="203.71,-188.59 197.38,-180.1 197.04,-190.69 203.71,-188.59"/>
<g id="a_edge13&#45;headlabel"><a xlink:href="dir_000103_000071.html" target="_top" xlink:title="4">
<text text-anchor="middle" x="207.5" y="-188.67" font-family="Helvetica,sans-Serif" font-size="10.00">4</text>
</a>
</g>
</g>
<!-- dir_a279ed5c4175293b5b2f0cc1c8e2c220 -->
<g id="node7" class="node">
<title>dir_a279ed5c4175293b5b2f0cc1c8e2c220</title>
<g id="a_node7"><a xlink:href="dir_a279ed5c4175293b5b2f0cc1c8e2c220.html" target="_top" xlink:title="gx">
<polygon fill="none" stroke="black" points="333,-180 279,-180 279,-144 333,-144 333,-180"/>
<text text-anchor="middle" x="306" y="-159.5" font-family="Helvetica,sans-Serif" font-size="10.00">gx</text>
</a>
</g>
</g>
<!-- dir_25682d7fe27d5da48e7af3ae8c2abb7f&#45;&gt;dir_a279ed5c4175293b5b2f0cc1c8e2c220 -->
<g id="edge11" class="edge">
<title>dir_25682d7fe27d5da48e7af3ae8c2abb7f&#45;&gt;dir_a279ed5c4175293b5b2f0cc1c8e2c220</title>
<path fill="none" stroke="black" d="M236.74,-215.7C248.44,-206.8 262.86,-195.82 275.51,-186.2"/>
<polygon fill="black" stroke="black" points="277.68,-188.94 283.52,-180.1 273.44,-183.37 277.68,-188.94"/>
<g id="a_edge11&#45;headlabel"><a xlink:href="dir_000103_000053.html" target="_top" xlink:title="3">
<text text-anchor="middle" x="276.54" y="-190.88" font-family="Helvetica,sans-Serif" font-size="10.00">3</text>
</a>
</g>
</g>
<!-- dir_b778c3f297ab88300258a2935792c8cc -->
<g id="node8" class="node">
<title>dir_b778c3f297ab88300258a2935792c8cc</title>
<g id="a_node8"><a xlink:href="dir_b778c3f297ab88300258a2935792c8cc.html" target="_top" xlink:title="dolphin">
<polygon fill="none" stroke="black" points="262,-36 208,-36 208,0 262,0 262,-36"/>
<text text-anchor="middle" x="235" y="-15.5" font-family="Helvetica,sans-Serif" font-size="10.00">dolphin</text>
</a>
</g>
</g>
<!-- dir_25682d7fe27d5da48e7af3ae8c2abb7f&#45;&gt;dir_b778c3f297ab88300258a2935792c8cc -->
<g id="edge12" class="edge">
<title>dir_25682d7fe27d5da48e7af3ae8c2abb7f&#45;&gt;dir_b778c3f297ab88300258a2935792c8cc</title>
<path fill="none" stroke="black" d="M186.96,-216.01C175.11,-206.93 162.44,-194.6 156,-180 149.55,-165.36 153.23,-159.76 156,-144 162.54,-106.75 163.87,-95.37 185,-64 190.11,-56.41 196.78,-49.25 203.57,-42.97"/>
<polygon fill="black" stroke="black" points="206.29,-45.25 211.51,-36.03 201.68,-39.98 206.29,-45.25"/>
<g id="a_edge12&#45;headlabel"><a xlink:href="dir_000103_000047.html" target="_top" xlink:title="4">
<text text-anchor="middle" x="205.45" y="-47.25" font-family="Helvetica,sans-Serif" font-size="10.00">4</text>
</a>
</g>
</g>
<!-- dir_45593f23b58a9cb34ecfe1ccd7e4e81f&#45;&gt;dir_b778c3f297ab88300258a2935792c8cc -->
<g id="edge1" class="edge">
<title>dir_45593f23b58a9cb34ecfe1ccd7e4e81f&#45;&gt;dir_b778c3f297ab88300258a2935792c8cc</title>
<path fill="none" stroke="black" d="M235,-71.7C235,-63.98 235,-54.71 235,-46.11"/>
<polygon fill="black" stroke="black" points="238.5,-46.1 235,-36.1 231.5,-46.1 238.5,-46.1"/>
<g id="a_edge1&#45;headlabel"><a xlink:href="dir_000099_000047.html" target="_top" xlink:title="5">
<text text-anchor="middle" x="241.34" y="-47.2" font-family="Helvetica,sans-Serif" font-size="10.00">5</text>
</a>
</g>
</g>
<!-- dir_cd1009b6de6f257cf504091b6f95eba2&#45;&gt;dir_45593f23b58a9cb34ecfe1ccd7e4e81f -->
<g id="edge8" class="edge">
<title>dir_cd1009b6de6f257cf504091b6f95eba2&#45;&gt;dir_45593f23b58a9cb34ecfe1ccd7e4e81f</title>
<path fill="none" stroke="black" d="M202.63,-143.7C207.63,-135.56 213.69,-125.69 219.21,-116.7"/>
<polygon fill="black" stroke="black" points="222.24,-118.46 224.49,-108.1 216.28,-114.79 222.24,-118.46"/>
<g id="a_edge8&#45;headlabel"><a xlink:href="dir_000071_000099.html" target="_top" xlink:title="6">
<text text-anchor="middle" x="222.78" y="-120.51" font-family="Helvetica,sans-Serif" font-size="10.00">6</text>
</a>
</g>
</g>
<!-- dir_cd1009b6de6f257cf504091b6f95eba2&#45;&gt;dir_b778c3f297ab88300258a2935792c8cc -->
<g id="edge7" class="edge">
<title>dir_cd1009b6de6f257cf504091b6f95eba2&#45;&gt;dir_b778c3f297ab88300258a2935792c8cc</title>
<path fill="none" stroke="black" d="M189.96,-143.84C188.28,-123.91 187.62,-90.38 198,-64 200.8,-56.88 205.18,-50.04 209.95,-43.94"/>
<polygon fill="black" stroke="black" points="212.79,-46 216.6,-36.11 207.46,-41.47 212.79,-46"/>
<g id="a_edge7&#45;headlabel"><a xlink:href="dir_000071_000047.html" target="_top" xlink:title="26">
<text text-anchor="middle" x="212.63" y="-48.08" font-family="Helvetica,sans-Serif" font-size="10.00">26</text>
</a>
</g>
</g>
<!-- dir_a9517e75d808b51ad9f5947a3cea1d31 -->
<g id="node4" class="node">
<title>dir_a9517e75d808b51ad9f5947a3cea1d31</title>
<text text-anchor="middle" x="225" y="-303.5" font-family="Helvetica,sans-Serif" font-size="10.00">J2DGraph</text>
</g>
<!-- dir_a9517e75d808b51ad9f5947a3cea1d31&#45;&gt;dir_25682d7fe27d5da48e7af3ae8c2abb7f -->
<g id="edge2" class="edge">
<title>dir_a9517e75d808b51ad9f5947a3cea1d31&#45;&gt;dir_25682d7fe27d5da48e7af3ae8c2abb7f</title>
<path fill="none" stroke="black" d="M222.28,-287.7C221.07,-279.98 219.61,-270.71 218.26,-262.11"/>
<polygon fill="black" stroke="black" points="221.7,-261.44 216.69,-252.1 214.78,-262.53 221.7,-261.44"/>
<g id="a_edge2&#45;headlabel"><a xlink:href="dir_000055_000103.html" target="_top" xlink:title="3">
<text text-anchor="middle" x="225.06" y="-262.05" font-family="Helvetica,sans-Serif" font-size="10.00">3</text>
</a>
</g>
</g>
<!-- dir_a9517e75d808b51ad9f5947a3cea1d31&#45;&gt;dir_45593f23b58a9cb34ecfe1ccd7e4e81f -->
<g id="edge3" class="edge">
<title>dir_a9517e75d808b51ad9f5947a3cea1d31&#45;&gt;dir_45593f23b58a9cb34ecfe1ccd7e4e81f</title>
<path fill="none" stroke="black" d="M235.63,-287.56C241.1,-277.54 247.2,-264.51 250,-252 260.36,-205.73 250.52,-150.43 242.63,-118.16"/>
<polygon fill="black" stroke="black" points="245.93,-116.96 240.05,-108.14 239.15,-118.7 245.93,-116.96"/>
<g id="a_edge3&#45;headlabel"><a xlink:href="dir_000055_000099.html" target="_top" xlink:title="2">
<text text-anchor="middle" x="249.58" y="-117.23" font-family="Helvetica,sans-Serif" font-size="10.00">2</text>
</a>
</g>
</g>
<!-- dir_a9517e75d808b51ad9f5947a3cea1d31&#45;&gt;dir_cd1009b6de6f257cf504091b6f95eba2 -->
<g id="edge6" class="edge">
<title>dir_a9517e75d808b51ad9f5947a3cea1d31&#45;&gt;dir_cd1009b6de6f257cf504091b6f95eba2</title>
<path fill="none" stroke="black" d="M203.73,-287.7C193.89,-278.31 183.24,-265.8 178,-252 170.4,-231.98 174.93,-207.92 180.79,-189.87"/>
<polygon fill="black" stroke="black" points="184.16,-190.86 184.22,-180.27 177.56,-188.51 184.16,-190.86"/>
<g id="a_edge6&#45;headlabel"><a xlink:href="dir_000055_000071.html" target="_top" xlink:title="1">
<text text-anchor="middle" x="185.62" y="-192.7" font-family="Helvetica,sans-Serif" font-size="10.00">1</text>
</a>
</g>
</g>
<!-- dir_a9517e75d808b51ad9f5947a3cea1d31&#45;&gt;dir_a279ed5c4175293b5b2f0cc1c8e2c220 -->
<g id="edge4" class="edge">
<title>dir_a9517e75d808b51ad9f5947a3cea1d31&#45;&gt;dir_a279ed5c4175293b5b2f0cc1c8e2c220</title>
<path fill="none" stroke="black" d="M244.68,-287.95C254.87,-278.26 266.86,-265.41 275,-252 286.7,-232.74 294.78,-208.44 299.75,-190.1"/>
<polygon fill="black" stroke="black" points="303.16,-190.89 302.26,-180.34 296.38,-189.15 303.16,-190.89"/>
<g id="a_edge4&#45;headlabel"><a xlink:href="dir_000055_000053.html" target="_top" xlink:title="1">
<text text-anchor="middle" x="305.02" y="-192.58" font-family="Helvetica,sans-Serif" font-size="10.00">1</text>
</a>
</g>
</g>
<!-- dir_a9517e75d808b51ad9f5947a3cea1d31&#45;&gt;dir_b778c3f297ab88300258a2935792c8cc -->
<g id="edge5" class="edge">
<title>dir_a9517e75d808b51ad9f5947a3cea1d31&#45;&gt;dir_b778c3f297ab88300258a2935792c8cc</title>
<path fill="none" stroke="black" d="M253.3,-287.82C267.45,-278.37 284.23,-265.77 297,-252 322.65,-224.32 331.6,-216.27 342,-180 357.2,-127 334.64,-105.21 298,-64 290.13,-55.14 280.2,-47.05 270.58,-40.24"/>
<polygon fill="black" stroke="black" points="272.49,-37.31 262.25,-34.61 268.57,-43.11 272.49,-37.31"/>
<g id="a_edge5&#45;headlabel"><a xlink:href="dir_000055_000047.html" target="_top" xlink:title="3">
<text text-anchor="middle" x="277.06" y="-34.48" font-family="Helvetica,sans-Serif" font-size="10.00">3</text>
</a>
</g>
</g>
<!-- dir_191f6b39af93efb74e4bf57ddb4fdeaf -->
<g id="node5" class="node">
<title>dir_191f6b39af93efb74e4bf57ddb4fdeaf</title>
<g id="a_node5"><a xlink:href="dir_191f6b39af93efb74e4bf57ddb4fdeaf.html" target="_top" xlink:title="J2DPicture">
<polygon fill="white" stroke="black" points="176.5,-324 111.5,-324 111.5,-288 176.5,-288 176.5,-324"/>
<text text-anchor="middle" x="144" y="-303.5" font-family="Helvetica,sans-Serif" font-size="10.00">J2DPicture</text>
</a>
</g>
</g>
<!-- dir_4261e19500e9e1209b25a2f3681e9a13 -->
<g id="node6" class="node">
<title>dir_4261e19500e9e1209b25a2f3681e9a13</title>
<g id="a_node6"><a xlink:href="dir_4261e19500e9e1209b25a2f3681e9a13.html" target="_top" xlink:title="J2DTextBox">
<polygon fill="white" stroke="black" points="93.5,-324 24.5,-324 24.5,-288 93.5,-288 93.5,-324"/>
<text text-anchor="middle" x="59" y="-303.5" font-family="Helvetica,sans-Serif" font-size="10.00">J2DTextBox</text>
</a>
</g>
</g>
<!-- dir_a279ed5c4175293b5b2f0cc1c8e2c220&#45;&gt;dir_b778c3f297ab88300258a2935792c8cc -->
<g id="edge9" class="edge">
<title>dir_a279ed5c4175293b5b2f0cc1c8e2c220&#45;&gt;dir_b778c3f297ab88300258a2935792c8cc</title>
<path fill="none" stroke="black" d="M302.82,-144C298.57,-123.92 289.79,-89.96 275,-64 270.92,-56.85 265.57,-49.84 260.11,-43.56"/>
<polygon fill="black" stroke="black" points="262.56,-41.05 253.23,-36.04 257.4,-45.78 262.56,-41.05"/>
<g id="a_edge9&#45;headlabel"><a xlink:href="dir_000053_000047.html" target="_top" xlink:title="1">
<text text-anchor="middle" x="267.08" y="-39.29" font-family="Helvetica,sans-Serif" font-size="10.00">1</text>
</a>
</g>
</g>
</g>
</svg>
