<?xml version="1.0" encoding="UTF-8" standalone="no"?>
<!DOCTYPE svg PUBLIC "-//W3C//DTD SVG 1.1//EN"
 "http://www.w3.org/Graphics/SVG/1.1/DTD/svg11.dtd">
<!-- Generated by graphviz version 2.46.0 (20210122.1329)
 -->
<!-- Title: include/JSystem/JKernel/JKRMemArchive Pages: 1 -->
<svg width="130pt" height="223pt"
 viewBox="0.00 0.00 130.00 223.00" xmlns="http://www.w3.org/2000/svg" xmlns:xlink="http://www.w3.org/1999/xlink">
<g id="graph0" class="graph" transform="scale(1 1) rotate(0) translate(4 219)">
<title>include/JSystem/JKernel/JKRMemArchive</title>
<polygon fill="white" stroke="transparent" points="-4,4 -4,-219 126,-219 126,4 -4,4"/>
<g id="clust1" class="cluster">
<title>clusterdir_cd1009b6de6f257cf504091b6f95eba2</title>
<g id="a_clust1"><a xlink:href="dir_cd1009b6de6f257cf504091b6f95eba2.html" target="_top" xlink:title="JKernel">
<polygon fill="#ddddee" stroke="black" points="8,-64 8,-207 114,-207 114,-64 8,-64"/>
<text text-anchor="middle" x="61" y="-195" font-family="Helvetica,sans-Serif" font-size="10.00">JKernel</text>
</a>
</g>
</g>
<!-- dir_12c6840735c185885be0daecbf89a9e2 -->
<g id="node1" class="node">
<title>dir_12c6840735c185885be0daecbf89a9e2</title>
<g id="a_node1"><a xlink:href="dir_12c6840735c185885be0daecbf89a9e2.html" target="_top" xlink:title="JKRArchive">
<polygon fill="none" stroke="black" points="89,-108 21,-108 21,-72 89,-72 89,-108"/>
<text text-anchor="middle" x="55" y="-87.5" font-family="Helvetica,sans-Serif" font-size="10.00">JKRArchive</text>
</a>
</g>
</g>
<!-- dir_b778c3f297ab88300258a2935792c8cc -->
<g id="node3" class="node">
<title>dir_b778c3f297ab88300258a2935792c8cc</title>
<g id="a_node3"><a xlink:href="dir_b778c3f297ab88300258a2935792c8cc.html" target="_top" xlink:title="dolphin">
<polygon fill="none" stroke="black" points="113,-36 59,-36 59,0 113,0 113,-36"/>
<text text-anchor="middle" x="86" y="-15.5" font-family="Helvetica,sans-Serif" font-size="10.00">dolphin</text>
</a>
</g>
</g>
<!-- dir_12c6840735c185885be0daecbf89a9e2&#45;&gt;dir_b778c3f297ab88300258a2935792c8cc -->
<g id="edge1" class="edge">
<title>dir_12c6840735c185885be0daecbf89a9e2&#45;&gt;dir_b778c3f297ab88300258a2935792c8cc</title>
<path fill="none" stroke="black" d="M62.66,-71.7C66.19,-63.73 70.46,-54.1 74.37,-45.26"/>
<polygon fill="black" stroke="black" points="77.58,-46.67 78.43,-36.1 71.18,-43.83 77.58,-46.67"/>
<g id="a_edge1&#45;headlabel"><a xlink:href="dir_000072_000042.html" target="_top" xlink:title="1">
<text text-anchor="middle" x="78.72" y="-48.6" font-family="Helvetica,sans-Serif" font-size="10.00">1</text>
</a>
</g>
</g>
<!-- dir_854be3a0666daddd507373c80b0de0d5 -->
<g id="node2" class="node">
<title>dir_854be3a0666daddd507373c80b0de0d5</title>
<g id="a_node2"><a xlink:href="dir_854be3a0666daddd507373c80b0de0d5.html" target="_top" xlink:title="JKRMemArchive">
<polygon fill="#eeeeff" stroke="black" points="106,-180 16,-180 16,-144 106,-144 106,-180"/>
<text text-anchor="middle" x="61" y="-159.5" font-family="Helvetica,sans-Serif" font-size="10.00">JKRMemArchive</text>
</a>
</g>
</g>
<!-- dir_854be3a0666daddd507373c80b0de0d5&#45;&gt;dir_12c6840735c185885be0daecbf89a9e2 -->
<g id="edge2" class="edge">
<title>dir_854be3a0666daddd507373c80b0de0d5&#45;&gt;dir_12c6840735c185885be0daecbf89a9e2</title>
<path fill="none" stroke="black" d="M59.52,-143.7C58.86,-135.98 58.06,-126.71 57.32,-118.11"/>
<polygon fill="black" stroke="black" points="60.81,-117.77 56.47,-108.1 53.83,-118.37 60.81,-117.77"/>
<g id="a_edge2&#45;headlabel"><a xlink:href="dir_000087_000072.html" target="_top" xlink:title="1">
<text text-anchor="middle" x="63.94" y="-118.61" font-family="Helvetica,sans-Serif" font-size="10.00">1</text>
</a>
</g>
</g>
<!-- dir_854be3a0666daddd507373c80b0de0d5&#45;&gt;dir_b778c3f297ab88300258a2935792c8cc -->
<g id="edge3" class="edge">
<title>dir_854be3a0666daddd507373c80b0de0d5&#45;&gt;dir_b778c3f297ab88300258a2935792c8cc</title>
<path fill="none" stroke="black" d="M77.04,-143.85C85.01,-134.12 93.83,-121.27 98,-108 104.37,-87.73 100.56,-63.83 95.6,-45.9"/>
<polygon fill="black" stroke="black" points="98.88,-44.65 92.62,-36.1 92.19,-46.69 98.88,-44.65"/>
<g id="a_edge3&#45;headlabel"><a xlink:href="dir_000087_000042.html" target="_top" xlink:title="1">
<text text-anchor="middle" x="102.65" y="-44.76" font-family="Helvetica,sans-Serif" font-size="10.00">1</text>
</a>
</g>
</g>
</g>
</svg>
