<?xml version="1.0" encoding="UTF-8" standalone="no"?>
<!DOCTYPE svg PUBLIC "-//W3C//DTD SVG 1.1//EN"
 "http://www.w3.org/Graphics/SVG/1.1/DTD/svg11.dtd">
<!-- Generated by graphviz version 2.46.1 (20210215.1649)
 -->
<!-- Title: include/f/f_op/f_op_actor_mng.h Pages: 1 -->
<svg width="759pt" height="106pt"
 viewBox="0.00 0.00 759.00 106.00" xmlns="http://www.w3.org/2000/svg" xmlns:xlink="http://www.w3.org/1999/xlink">
<g id="graph0" class="graph" transform="scale(1 1) rotate(0) translate(4 102)">
<title>include/f/f_op/f_op_actor_mng.h</title>
<polygon fill="white" stroke="transparent" points="-4,4 -4,-102 755,-102 755,4 -4,4"/>
<!-- Node1 -->
<g id="node1" class="node">
<title>Node1</title>
<g id="a_node1"><a xlink:title=" ">
<polygon fill="#bfbfbf" stroke="black" points="318,-67.5 318,-97.5 415,-97.5 415,-67.5 318,-67.5"/>
<text text-anchor="start" x="326" y="-85.5" font-family="Helvetica,sans-Serif" font-size="10.00">include/f/f_op/f_op</text>
<text text-anchor="middle" x="366.5" y="-74.5" font-family="Helvetica,sans-Serif" font-size="10.00">_actor_mng.h</text>
</a>
</g>
</g>
<!-- Node2 -->
<g id="node2" class="node">
<title>Node2</title>
<g id="a_node2"><a xlink:href="d__attention_8cpp.html" target="_top" xlink:title=" ">
<polygon fill="white" stroke="black" points="0,-6 0,-25 107,-25 107,-6 0,-6"/>
<text text-anchor="middle" x="53.5" y="-13" font-family="Helvetica,sans-Serif" font-size="10.00">src/d/d_attention.cpp</text>
</a>
</g>
</g>
<!-- Node1&#45;&gt;Node2 -->
<g id="edge1" class="edge">
<title>Node1&#45;&gt;Node2</title>
<path fill="none" stroke="midnightblue" d="M307.97,-70.26C257.03,-60.35 181.26,-45.3 115.5,-31 106.97,-29.14 97.8,-27.05 89.19,-25.05"/>
<polygon fill="midnightblue" stroke="midnightblue" points="307.34,-73.7 317.82,-72.17 308.67,-66.83 307.34,-73.7"/>
</g>
<!-- Node3 -->
<g id="node3" class="node">
<title>Node3</title>
<g id="a_node3"><a xlink:href="d__camera_8cpp.html" target="_top" xlink:title=" ">
<polygon fill="white" stroke="black" points="124.5,-6 124.5,-25 226.5,-25 226.5,-6 124.5,-6"/>
<text text-anchor="middle" x="175.5" y="-13" font-family="Helvetica,sans-Serif" font-size="10.00">src/d/d_camera.cpp</text>
</a>
</g>
</g>
<!-- Node1&#45;&gt;Node3 -->
<g id="edge2" class="edge">
<title>Node1&#45;&gt;Node3</title>
<path fill="none" stroke="midnightblue" d="M315.39,-64.11C278.24,-51.46 229.55,-34.89 200.5,-25.01"/>
<polygon fill="midnightblue" stroke="midnightblue" points="314.46,-67.49 325.06,-67.4 316.72,-60.86 314.46,-67.49"/>
</g>
<!-- Node4 -->
<g id="node4" class="node">
<title>Node4</title>
<g id="a_node4"><a xlink:href="d__a__alink_8cpp.html" target="_top" xlink:title=" ">
<polygon fill="white" stroke="black" points="245,-6 245,-25 364,-25 364,-6 245,-6"/>
<text text-anchor="middle" x="304.5" y="-13" font-family="Helvetica,sans-Serif" font-size="10.00">src/d/d_a/d_a_alink.cpp</text>
</a>
</g>
</g>
<!-- Node1&#45;&gt;Node4 -->
<g id="edge3" class="edge">
<title>Node1&#45;&gt;Node4</title>
<path fill="none" stroke="midnightblue" d="M345.99,-60C334.67,-48.13 321.24,-34.05 312.79,-25.19"/>
<polygon fill="midnightblue" stroke="midnightblue" points="343.61,-62.58 353.05,-67.4 348.68,-57.74 343.61,-62.58"/>
</g>
<!-- Node5 -->
<g id="node5" class="node">
<title>Node5</title>
<g id="a_node5"><a xlink:href="d__stage_8cpp.html" target="_top" xlink:title=" ">
<polygon fill="white" stroke="black" points="382.5,-6 382.5,-25 476.5,-25 476.5,-6 382.5,-6"/>
<text text-anchor="middle" x="429.5" y="-13" font-family="Helvetica,sans-Serif" font-size="10.00">src/d/d_stage.cpp</text>
</a>
</g>
</g>
<!-- Node1&#45;&gt;Node5 -->
<g id="edge4" class="edge">
<title>Node1&#45;&gt;Node5</title>
<path fill="none" stroke="midnightblue" d="M387.34,-60C398.84,-48.13 412.49,-34.05 421.07,-25.19"/>
<polygon fill="midnightblue" stroke="midnightblue" points="384.62,-57.78 380.17,-67.4 389.64,-62.65 384.62,-57.78"/>
</g>
<!-- Node6 -->
<g id="node6" class="node">
<title>Node6</title>
<g id="a_node6"><a xlink:href="f__op__actor__mng_8cpp.html" target="_top" xlink:title=" ">
<polygon fill="white" stroke="black" points="495,-0.5 495,-30.5 602,-30.5 602,-0.5 495,-0.5"/>
<text text-anchor="start" x="503" y="-18.5" font-family="Helvetica,sans-Serif" font-size="10.00">src/f/f_op/f_op_actor</text>
<text text-anchor="middle" x="548.5" y="-7.5" font-family="Helvetica,sans-Serif" font-size="10.00">_mng.cpp</text>
</a>
</g>
</g>
<!-- Node1&#45;&gt;Node6 -->
<g id="edge5" class="edge">
<title>Node1&#45;&gt;Node6</title>
<path fill="none" stroke="midnightblue" d="M415.63,-63.96C444.94,-53.48 481.68,-40.37 509.09,-30.58"/>
<polygon fill="midnightblue" stroke="midnightblue" points="414.23,-60.74 405.99,-67.4 416.59,-67.33 414.23,-60.74"/>
</g>
<!-- Node7 -->
<g id="node7" class="node">
<title>Node7</title>
<g id="a_node7"><a xlink:href="m__Do__main_8cpp.html" target="_top" xlink:title=" ">
<polygon fill="white" stroke="black" points="620,-6 620,-25 751,-25 751,-6 620,-6"/>
<text text-anchor="middle" x="685.5" y="-13" font-family="Helvetica,sans-Serif" font-size="10.00">src/m_Do/m_Do_main.cpp</text>
</a>
</g>
</g>
<!-- Node1&#45;&gt;Node7 -->
<g id="edge6" class="edge">
<title>Node1&#45;&gt;Node7</title>
<path fill="none" stroke="midnightblue" d="M425.12,-69.56C488.33,-56.68 587.38,-36.49 643.33,-25.09"/>
<polygon fill="midnightblue" stroke="midnightblue" points="424.4,-66.13 415.3,-71.56 425.79,-72.99 424.4,-66.13"/>
</g>
</g>
</svg>
