<?xml version="1.0" encoding="UTF-8" standalone="no"?>
<!DOCTYPE svg PUBLIC "-//W3C//DTD SVG 1.1//EN"
 "http://www.w3.org/Graphics/SVG/1.1/DTD/svg11.dtd">
<!-- Generated by graphviz version 2.46.1 (20210215.1649)
 -->
<!-- Title: include/f/f_op/f_op_overlap_mng.h Pages: 1 -->
<svg width="720pt" height="945pt"
 viewBox="0.00 0.00 720.00 945.00" xmlns="http://www.w3.org/2000/svg" xmlns:xlink="http://www.w3.org/1999/xlink">
<g id="graph0" class="graph" transform="scale(1 1) rotate(0) translate(4 941)">
<title>include/f/f_op/f_op_overlap_mng.h</title>
<polygon fill="white" stroke="transparent" points="-4,4 -4,-941 716,-941 716,4 -4,4"/>
<!-- Node1 -->
<g id="node1" class="node">
<title>Node1</title>
<g id="a_node1"><a xlink:title=" ">
<polygon fill="#bfbfbf" stroke="black" points="522.5,-906.5 522.5,-936.5 619.5,-936.5 619.5,-906.5 522.5,-906.5"/>
<text text-anchor="start" x="530.5" y="-924.5" font-family="Helvetica,sans-Serif" font-size="10.00">include/f/f_op/f_op</text>
<text text-anchor="middle" x="571" y="-913.5" font-family="Helvetica,sans-Serif" font-size="10.00">_overlap_mng.h</text>
</a>
</g>
</g>
<!-- Node2 -->
<g id="node2" class="node">
<title>Node2</title>
<g id="a_node2"><a xlink:href="c__request_8h.html" target="_top" xlink:title=" ">
<polygon fill="white" stroke="black" points="367,-850.5 367,-869.5 493,-869.5 493,-850.5 367,-850.5"/>
<text text-anchor="middle" x="430" y="-857.5" font-family="Helvetica,sans-Serif" font-size="10.00">SComponent/c_request.h</text>
</a>
</g>
</g>
<!-- Node1&#45;&gt;Node2 -->
<g id="edge1" class="edge">
<title>Node1&#45;&gt;Node2</title>
<path fill="none" stroke="midnightblue" d="M537.58,-906.4C514.03,-896.46 482.76,-883.26 460.01,-873.66"/>
<polygon fill="midnightblue" stroke="midnightblue" points="461.09,-870.32 450.52,-869.66 458.37,-876.77 461.09,-870.32"/>
</g>
<!-- Node3 -->
<g id="node3" class="node">
<title>Node3</title>
<g id="a_node3"><a xlink:href="types_8h.html" target="_top" xlink:title=" ">
<polygon fill="white" stroke="black" points="378.5,-0.5 378.5,-19.5 459.5,-19.5 459.5,-0.5 378.5,-0.5"/>
<text text-anchor="middle" x="419" y="-7.5" font-family="Helvetica,sans-Serif" font-size="10.00">dolphin/types.h</text>
</a>
</g>
</g>
<!-- Node1&#45;&gt;Node3 -->
<g id="edge63" class="edge">
<title>Node1&#45;&gt;Node3</title>
<path fill="none" stroke="midnightblue" d="M612.92,-906.42C654.49,-889.5 712,-856.74 712,-805 712,-805 712,-805 712,-137.5 712,-33.25 553.73,-13.91 469.83,-10.98"/>
<polygon fill="midnightblue" stroke="midnightblue" points="469.84,-7.48 459.74,-10.69 469.64,-14.47 469.84,-7.48"/>
</g>
<!-- Node2&#45;&gt;Node3 -->
<g id="edge2" class="edge">
<title>Node2&#45;&gt;Node3</title>
<path fill="none" stroke="midnightblue" d="M366.55,-855.15C246.94,-846.15 0,-818.48 0,-743.5 0,-743.5 0,-743.5 0,-137.5 0,-95 14.24,-78.97 50,-56 101.58,-22.87 279.82,-14.13 368.32,-11.82"/>
<polygon fill="midnightblue" stroke="midnightblue" points="368.49,-15.32 378.4,-11.58 368.32,-8.32 368.49,-15.32"/>
</g>
<!-- Node4 -->
<g id="node4" class="node">
<title>Node4</title>
<g id="a_node4"><a xlink:href="f__pc__base_8h.html" target="_top" xlink:title=" ">
<polygon fill="white" stroke="black" points="381.5,-794.5 381.5,-813.5 478.5,-813.5 478.5,-794.5 381.5,-794.5"/>
<text text-anchor="middle" x="430" y="-801.5" font-family="Helvetica,sans-Serif" font-size="10.00">f/f_pc/f_pc_base.h</text>
</a>
</g>
</g>
<!-- Node2&#45;&gt;Node4 -->
<g id="edge3" class="edge">
<title>Node2&#45;&gt;Node4</title>
<path fill="none" stroke="midnightblue" d="M430,-850.08C430,-843.01 430,-832.86 430,-823.99"/>
<polygon fill="midnightblue" stroke="midnightblue" points="433.5,-823.75 430,-813.75 426.5,-823.75 433.5,-823.75"/>
</g>
<!-- Node5 -->
<g id="node5" class="node">
<title>Node5</title>
<g id="a_node5"><a xlink:href="c__tag_8h.html" target="_top" xlink:title=" ">
<polygon fill="white" stroke="black" points="226.5,-604.5 226.5,-623.5 333.5,-623.5 333.5,-604.5 226.5,-604.5"/>
<text text-anchor="middle" x="280" y="-611.5" font-family="Helvetica,sans-Serif" font-size="10.00">SComponent/c_tag.h</text>
</a>
</g>
</g>
<!-- Node4&#45;&gt;Node5 -->
<g id="edge4" class="edge">
<title>Node4&#45;&gt;Node5</title>
<path fill="none" stroke="midnightblue" d="M381.12,-797.13C334.89,-790.45 270.38,-777.83 255,-758 226.14,-720.78 252.74,-661.7 269.2,-632.51"/>
<polygon fill="midnightblue" stroke="midnightblue" points="272.26,-634.22 274.3,-623.83 266.22,-630.68 272.26,-634.22"/>
</g>
<!-- Node8 -->
<g id="node8" class="node">
<title>Node8</title>
<g id="a_node8"><a xlink:href="global_8h.html" target="_top" xlink:title=" ">
<polygon fill="white" stroke="black" points="405,-380.5 405,-399.5 455,-399.5 455,-380.5 405,-380.5"/>
<text text-anchor="middle" x="430" y="-387.5" font-family="Helvetica,sans-Serif" font-size="10.00">global.h</text>
</a>
</g>
</g>
<!-- Node4&#45;&gt;Node8 -->
<g id="edge38" class="edge">
<title>Node4&#45;&gt;Node8</title>
<path fill="none" stroke="midnightblue" d="M478.79,-799.24C550,-790.79 674,-763.58 674,-676.5 674,-676.5 674,-676.5 674,-501 674,-410.58 533.02,-394.06 465.39,-391.34"/>
<polygon fill="midnightblue" stroke="midnightblue" points="465.3,-387.84 455.19,-391.02 465.08,-394.84 465.3,-387.84"/>
</g>
<!-- Node22 -->
<g id="node22" class="node">
<title>Node22</title>
<g id="a_node22"><a xlink:href="f__pc__delete__tag_8h.html" target="_top" xlink:title=" ">
<polygon fill="white" stroke="black" points="264.5,-727.5 264.5,-757.5 359.5,-757.5 359.5,-727.5 264.5,-727.5"/>
<text text-anchor="start" x="272.5" y="-745.5" font-family="Helvetica,sans-Serif" font-size="10.00">f/f_pc/f_pc_delete</text>
<text text-anchor="middle" x="312" y="-734.5" font-family="Helvetica,sans-Serif" font-size="10.00">_tag.h</text>
</a>
</g>
</g>
<!-- Node4&#45;&gt;Node22 -->
<g id="edge39" class="edge">
<title>Node4&#45;&gt;Node22</title>
<path fill="none" stroke="midnightblue" d="M413.09,-794.48C396.44,-786.08 370.45,-772.97 348.99,-762.15"/>
<polygon fill="midnightblue" stroke="midnightblue" points="350.32,-758.9 339.81,-757.52 347.16,-765.15 350.32,-758.9"/>
</g>
<!-- Node24 -->
<g id="node24" class="node">
<title>Node24</title>
<g id="a_node24"><a xlink:href="f__pc__layer__tag_8h.html" target="_top" xlink:title=" ">
<polygon fill="white" stroke="black" points="78.5,-733 78.5,-752 193.5,-752 193.5,-733 78.5,-733"/>
<text text-anchor="middle" x="136" y="-740" font-family="Helvetica,sans-Serif" font-size="10.00">f/f_pc/f_pc_layer_tag.h</text>
</a>
</g>
</g>
<!-- Node4&#45;&gt;Node24 -->
<g id="edge47" class="edge">
<title>Node4&#45;&gt;Node24</title>
<path fill="none" stroke="midnightblue" d="M387.88,-794.48C335.15,-783.8 244.87,-765.53 187.93,-754.01"/>
<polygon fill="midnightblue" stroke="midnightblue" points="188.54,-750.56 178.04,-752.01 187.15,-757.42 188.54,-750.56"/>
</g>
<!-- Node25 -->
<g id="node25" class="node">
<title>Node25</title>
<g id="a_node25"><a xlink:href="f__pc__line__tag_8h.html" target="_top" xlink:title=" ">
<polygon fill="white" stroke="black" points="498,-666 498,-685 608,-685 608,-666 498,-666"/>
<text text-anchor="middle" x="553" y="-673" font-family="Helvetica,sans-Serif" font-size="10.00">f/f_pc/f_pc_line_tag.h</text>
</a>
</g>
</g>
<!-- Node4&#45;&gt;Node25 -->
<g id="edge51" class="edge">
<title>Node4&#45;&gt;Node25</title>
<path fill="none" stroke="midnightblue" d="M443.96,-794.36C456.92,-785.97 476.38,-772.41 491,-758 511.3,-738 530.49,-711.09 542,-693.76"/>
<polygon fill="midnightblue" stroke="midnightblue" points="545.03,-695.52 547.56,-685.23 539.17,-691.7 545.03,-695.52"/>
</g>
<!-- Node26 -->
<g id="node26" class="node">
<title>Node26</title>
<g id="a_node26"><a xlink:href="f__pc__priority_8h.html" target="_top" xlink:title=" ">
<polygon fill="white" stroke="black" points="378,-733 378,-752 482,-752 482,-733 378,-733"/>
<text text-anchor="middle" x="430" y="-740" font-family="Helvetica,sans-Serif" font-size="10.00">f/f_pc/f_pc_priority.h</text>
</a>
</g>
</g>
<!-- Node4&#45;&gt;Node26 -->
<g id="edge54" class="edge">
<title>Node4&#45;&gt;Node26</title>
<path fill="none" stroke="midnightblue" d="M430,-794.48C430,-786.08 430,-772.98 430,-762.16"/>
<polygon fill="midnightblue" stroke="midnightblue" points="433.5,-762.01 430,-752.01 426.5,-762.01 433.5,-762.01"/>
</g>
<!-- Node28 -->
<g id="node28" class="node">
<title>Node28</title>
<g id="a_node28"><a xlink:href="f__pc__profile_8h.html" target="_top" xlink:title=" ">
<polygon fill="white" stroke="black" points="544.5,-492.5 544.5,-511.5 645.5,-511.5 645.5,-492.5 544.5,-492.5"/>
<text text-anchor="middle" x="595" y="-499.5" font-family="Helvetica,sans-Serif" font-size="10.00">f/f_pc/f_pc_profile.h</text>
</a>
</g>
</g>
<!-- Node4&#45;&gt;Node28 -->
<g id="edge59" class="edge">
<title>Node4&#45;&gt;Node28</title>
<path fill="none" stroke="midnightblue" d="M478.56,-795.14C539.46,-782.18 636,-750.05 636,-676.5 636,-676.5 636,-676.5 636,-613 636,-578.52 618.09,-541.56 605.94,-520.47"/>
<polygon fill="midnightblue" stroke="midnightblue" points="608.84,-518.49 600.7,-511.71 602.84,-522.09 608.84,-518.49"/>
</g>
<!-- Node6 -->
<g id="node6" class="node">
<title>Node6</title>
<g id="a_node6"><a xlink:href="c__list_8h.html" target="_top" xlink:title=" ">
<polygon fill="white" stroke="black" points="182.5,-492.5 182.5,-511.5 289.5,-511.5 289.5,-492.5 182.5,-492.5"/>
<text text-anchor="middle" x="236" y="-499.5" font-family="Helvetica,sans-Serif" font-size="10.00">SComponent/c_list.h</text>
</a>
</g>
</g>
<!-- Node5&#45;&gt;Node6 -->
<g id="edge5" class="edge">
<title>Node5&#45;&gt;Node6</title>
<path fill="none" stroke="midnightblue" d="M278.13,-604.38C275.24,-591.73 269.16,-567.53 261,-548 257.04,-538.52 251.59,-528.47 246.79,-520.29"/>
<polygon fill="midnightblue" stroke="midnightblue" points="249.75,-518.42 241.58,-511.67 243.76,-522.04 249.75,-518.42"/>
</g>
<!-- Node7 -->
<g id="node7" class="node">
<title>Node7</title>
<g id="a_node7"><a xlink:href="c__node_8h.html" target="_top" xlink:title=" ">
<polygon fill="white" stroke="black" points="178.5,-436.5 178.5,-455.5 293.5,-455.5 293.5,-436.5 178.5,-436.5"/>
<text text-anchor="middle" x="236" y="-443.5" font-family="Helvetica,sans-Serif" font-size="10.00">SComponent/c_node.h</text>
</a>
</g>
</g>
<!-- Node5&#45;&gt;Node7 -->
<g id="edge33" class="edge">
<title>Node5&#45;&gt;Node7</title>
<path fill="none" stroke="midnightblue" d="M284.67,-604.22C295.01,-583.46 317.49,-530.22 298,-492 291,-478.27 277.63,-467.75 265.1,-460.35"/>
<polygon fill="midnightblue" stroke="midnightblue" points="266.68,-457.22 256.22,-455.51 263.33,-463.37 266.68,-457.22"/>
</g>
<!-- Node5&#45;&gt;Node8 -->
<g id="edge37" class="edge">
<title>Node5&#45;&gt;Node8</title>
<path fill="none" stroke="midnightblue" d="M287.79,-604.47C295.53,-595.73 307.45,-581.54 316,-568 350.8,-512.87 340.82,-488.11 380,-436 388.47,-424.74 400.06,-414.1 409.95,-405.99"/>
<polygon fill="midnightblue" stroke="midnightblue" points="412.4,-408.51 418.08,-399.57 408.07,-403.02 412.4,-408.51"/>
</g>
<!-- Node21 -->
<g id="node21" class="node">
<title>Node21</title>
<g id="a_node21"><a xlink:href="c__tree_8h.html" target="_top" xlink:title=" ">
<polygon fill="white" stroke="black" points="142,-548.5 142,-567.5 252,-567.5 252,-548.5 142,-548.5"/>
<text text-anchor="middle" x="197" y="-555.5" font-family="Helvetica,sans-Serif" font-size="10.00">SComponent/c_tree.h</text>
</a>
</g>
</g>
<!-- Node5&#45;&gt;Node21 -->
<g id="edge34" class="edge">
<title>Node5&#45;&gt;Node21</title>
<path fill="none" stroke="midnightblue" d="M266.66,-604.32C253.84,-595.98 234.22,-583.21 219.06,-573.35"/>
<polygon fill="midnightblue" stroke="midnightblue" points="220.59,-570.17 210.3,-567.65 216.78,-576.04 220.59,-570.17"/>
</g>
<!-- Node6&#45;&gt;Node7 -->
<g id="edge6" class="edge">
<title>Node6&#45;&gt;Node7</title>
<path fill="none" stroke="midnightblue" d="M236,-492.08C236,-485.01 236,-474.86 236,-465.99"/>
<polygon fill="midnightblue" stroke="midnightblue" points="239.5,-465.75 236,-455.75 232.5,-465.75 239.5,-465.75"/>
</g>
<!-- Node7&#45;&gt;Node8 -->
<g id="edge7" class="edge">
<title>Node7&#45;&gt;Node8</title>
<path fill="none" stroke="midnightblue" d="M266.74,-436.44C301.7,-426.71 358.66,-410.86 395.22,-400.68"/>
<polygon fill="midnightblue" stroke="midnightblue" points="396.26,-404.02 404.96,-397.97 394.38,-397.28 396.26,-404.02"/>
</g>
<!-- Node8&#45;&gt;Node3 -->
<g id="edge8" class="edge">
<title>Node8&#45;&gt;Node3</title>
<path fill="none" stroke="midnightblue" d="M437.61,-380.07C464.91,-346.95 555.02,-227.6 530,-123 522.23,-90.52 518.9,-80.3 496,-56 483.07,-42.28 465.03,-31.44 449.66,-23.83"/>
<polygon fill="midnightblue" stroke="midnightblue" points="451.04,-20.61 440.5,-19.52 448.06,-26.95 451.04,-20.61"/>
</g>
<!-- Node9 -->
<g id="node9" class="node">
<title>Node9</title>
<g id="a_node9"><a xlink:href="AR_8h.html" target="_top" xlink:title=" ">
<polygon fill="white" stroke="black" points="584.5,-196 584.5,-215 633.5,-215 633.5,-196 584.5,-196"/>
<text text-anchor="middle" x="609" y="-203" font-family="Helvetica,sans-Serif" font-size="10.00">ar/AR.h</text>
</a>
</g>
</g>
<!-- Node8&#45;&gt;Node9 -->
<g id="edge9" class="edge">
<title>Node8&#45;&gt;Node9</title>
<path fill="none" stroke="midnightblue" d="M455.2,-387.87C486.47,-385.1 539.4,-375.68 570,-344 601.66,-311.23 607.96,-254.73 609,-225.4"/>
<polygon fill="midnightblue" stroke="midnightblue" points="612.5,-225.34 609.18,-215.27 605.5,-225.21 612.5,-225.34"/>
</g>
<!-- Node10 -->
<g id="node10" class="node">
<title>Node10</title>
<g id="a_node10"><a xlink:href="ARQ_8h.html" target="_top" xlink:title=" ">
<polygon fill="white" stroke="black" points="627,-263 627,-282 683,-282 683,-263 627,-263"/>
<text text-anchor="middle" x="655" y="-270" font-family="Helvetica,sans-Serif" font-size="10.00">ar/ARQ.h</text>
</a>
</g>
</g>
<!-- Node8&#45;&gt;Node10 -->
<g id="edge11" class="edge">
<title>Node8&#45;&gt;Node10</title>
<path fill="none" stroke="midnightblue" d="M455.29,-388.55C492.74,-386.68 563.58,-378.45 611,-344 629,-330.92 641.28,-308.02 648.2,-291.87"/>
<polygon fill="midnightblue" stroke="midnightblue" points="651.52,-292.99 651.98,-282.41 645.02,-290.39 651.52,-292.99"/>
</g>
<!-- Node11 -->
<g id="node11" class="node">
<title>Node11</title>
<g id="a_node11"><a xlink:href="mwcc_8h.html" target="_top" xlink:title=" ">
<polygon fill="white" stroke="black" points="94,-324.5 94,-343.5 144,-343.5 144,-324.5 94,-324.5"/>
<text text-anchor="middle" x="119" y="-331.5" font-family="Helvetica,sans-Serif" font-size="10.00">mwcc.h</text>
</a>
</g>
</g>
<!-- Node8&#45;&gt;Node11 -->
<g id="edge13" class="edge">
<title>Node8&#45;&gt;Node11</title>
<path fill="none" stroke="midnightblue" d="M404.78,-385.37C356.64,-378.32 248.39,-361.89 158,-344 156.73,-343.75 155.45,-343.49 154.15,-343.22"/>
<polygon fill="midnightblue" stroke="midnightblue" points="154.64,-339.74 144.13,-341.04 153.16,-346.58 154.64,-339.74"/>
</g>
<!-- Node12 -->
<g id="node12" class="node">
<title>Node12</title>
<g id="a_node12"><a xlink:href="OS_8h.html" target="_top" xlink:title=" ">
<polygon fill="white" stroke="black" points="73,-129 73,-148 125,-148 125,-129 73,-129"/>
<text text-anchor="middle" x="99" y="-136" font-family="Helvetica,sans-Serif" font-size="10.00">os/OS.h</text>
</a>
</g>
</g>
<!-- Node8&#45;&gt;Node12 -->
<g id="edge14" class="edge">
<title>Node8&#45;&gt;Node12</title>
<path fill="none" stroke="midnightblue" d="M404.72,-387.79C368.34,-384.97 300.38,-375.53 253,-344 178.8,-294.62 126.35,-197.11 107.1,-157.18"/>
<polygon fill="midnightblue" stroke="midnightblue" points="110.27,-155.69 102.84,-148.13 103.94,-158.67 110.27,-155.69"/>
</g>
<!-- Node14 -->
<g id="node14" class="node">
<title>Node14</title>
<g id="a_node14"><a xlink:href="variables_8h.html" target="_top" xlink:title=" ">
<polygon fill="white" stroke="black" points="262.5,-324.5 262.5,-343.5 325.5,-343.5 325.5,-324.5 262.5,-324.5"/>
<text text-anchor="middle" x="294" y="-331.5" font-family="Helvetica,sans-Serif" font-size="10.00">variables.h</text>
</a>
</g>
</g>
<!-- Node8&#45;&gt;Node14 -->
<g id="edge18" class="edge">
<title>Node8&#45;&gt;Node14</title>
<path fill="none" stroke="midnightblue" d="M408.45,-380.44C385.97,-371.52 350.51,-357.44 325.02,-347.32"/>
<polygon fill="midnightblue" stroke="midnightblue" points="326.03,-343.95 315.45,-343.52 323.45,-350.46 326.03,-343.95"/>
</g>
<!-- Node9&#45;&gt;Node3 -->
<g id="edge10" class="edge">
<title>Node9&#45;&gt;Node3</title>
<path fill="none" stroke="midnightblue" d="M610.51,-195.79C614.34,-170.57 621.7,-96.75 585,-56 569.6,-38.9 512.56,-26.08 469.61,-18.58"/>
<polygon fill="midnightblue" stroke="midnightblue" points="470.03,-15.1 459.58,-16.88 468.86,-22 470.03,-15.1"/>
</g>
<!-- Node10&#45;&gt;Node3 -->
<g id="edge12" class="edge">
<title>Node10&#45;&gt;Node3</title>
<path fill="none" stroke="midnightblue" d="M656.08,-262.94C659.64,-230.51 667.57,-114.12 607,-56 587.56,-37.34 518.54,-24.39 469.78,-17.32"/>
<polygon fill="midnightblue" stroke="midnightblue" points="470.1,-13.83 459.71,-15.9 469.13,-20.76 470.1,-13.83"/>
</g>
<!-- Node12&#45;&gt;Node3 -->
<g id="edge15" class="edge">
<title>Node12&#45;&gt;Node3</title>
<path fill="none" stroke="midnightblue" d="M89.17,-129C71.97,-113.13 40.07,-78.58 60,-56 80.06,-33.27 273.95,-19.24 368.14,-13.7"/>
<polygon fill="midnightblue" stroke="midnightblue" points="368.52,-17.19 378.3,-13.12 368.11,-10.2 368.52,-17.19"/>
</g>
<!-- Node13 -->
<g id="node13" class="node">
<title>Node13</title>
<g id="a_node13"><a xlink:href="dvd_8h.html" target="_top" xlink:title=" ">
<polygon fill="white" stroke="black" points="69.5,-62 69.5,-81 128.5,-81 128.5,-62 69.5,-62"/>
<text text-anchor="middle" x="99" y="-69" font-family="Helvetica,sans-Serif" font-size="10.00">dvd/dvd.h</text>
</a>
</g>
</g>
<!-- Node12&#45;&gt;Node13 -->
<g id="edge16" class="edge">
<title>Node12&#45;&gt;Node13</title>
<path fill="none" stroke="midnightblue" d="M99,-128.73C99,-119.18 99,-103.62 99,-91.28"/>
<polygon fill="midnightblue" stroke="midnightblue" points="102.5,-91.13 99,-81.13 95.5,-91.13 102.5,-91.13"/>
</g>
<!-- Node13&#45;&gt;Node3 -->
<g id="edge17" class="edge">
<title>Node13&#45;&gt;Node3</title>
<path fill="none" stroke="midnightblue" d="M122.55,-61.98C129.11,-59.82 136.28,-57.64 143,-56 220.69,-36.99 312.69,-23.81 368.41,-16.83"/>
<polygon fill="midnightblue" stroke="midnightblue" points="368.88,-20.3 378.38,-15.6 368.02,-13.35 368.88,-20.3"/>
</g>
<!-- Node15 -->
<g id="node15" class="node">
<title>Node15</title>
<g id="a_node15"><a xlink:href="JSUList_8h.html" target="_top" xlink:title=" ">
<polygon fill="white" stroke="black" points="185,-56.5 185,-86.5 321,-86.5 321,-56.5 185,-56.5"/>
<text text-anchor="start" x="193" y="-74.5" font-family="Helvetica,sans-Serif" font-size="10.00">JSystem/JSupport/JSUList</text>
<text text-anchor="middle" x="253" y="-63.5" font-family="Helvetica,sans-Serif" font-size="10.00">/JSUList.h</text>
</a>
</g>
</g>
<!-- Node14&#45;&gt;Node15 -->
<g id="edge19" class="edge">
<title>Node14&#45;&gt;Node15</title>
<path fill="none" stroke="midnightblue" d="M287.05,-324.31C280.57,-315.66 271.29,-301.74 267,-288 246.12,-221.12 248.26,-137.06 250.94,-96.53"/>
<polygon fill="midnightblue" stroke="midnightblue" points="254.44,-96.75 251.68,-86.53 247.45,-96.24 254.44,-96.75"/>
</g>
<!-- Node16 -->
<g id="node16" class="node">
<title>Node16</title>
<g id="a_node16"><a xlink:href="JUTXfb_8h.html" target="_top" xlink:title=" ">
<polygon fill="white" stroke="black" points="276.5,-257.5 276.5,-287.5 401.5,-287.5 401.5,-257.5 276.5,-257.5"/>
<text text-anchor="start" x="284.5" y="-275.5" font-family="Helvetica,sans-Serif" font-size="10.00">JSystem/JUtility/JUTXfb</text>
<text text-anchor="middle" x="339" y="-264.5" font-family="Helvetica,sans-Serif" font-size="10.00">/JUTXfb.h</text>
</a>
</g>
</g>
<!-- Node14&#45;&gt;Node16 -->
<g id="edge21" class="edge">
<title>Node14&#45;&gt;Node16</title>
<path fill="none" stroke="midnightblue" d="M300.45,-324.48C306.14,-316.94 314.7,-305.63 322.31,-295.57"/>
<polygon fill="midnightblue" stroke="midnightblue" points="325.15,-297.61 328.39,-287.52 319.57,-293.39 325.15,-297.61"/>
</g>
<!-- Node20 -->
<g id="node20" class="node">
<title>Node20</title>
<g id="a_node20"><a xlink:href="mtx__vec_8h.html" target="_top" xlink:title=" ">
<polygon fill="white" stroke="black" points="153.5,-129 153.5,-148 214.5,-148 214.5,-129 153.5,-129"/>
<text text-anchor="middle" x="184" y="-136" font-family="Helvetica,sans-Serif" font-size="10.00">mtx_vec.h</text>
</a>
</g>
</g>
<!-- Node14&#45;&gt;Node20 -->
<g id="edge31" class="edge">
<title>Node14&#45;&gt;Node20</title>
<path fill="none" stroke="midnightblue" d="M277.54,-324.38C264.08,-316.56 245.44,-303.83 234,-288 204.59,-247.33 191.6,-188.14 186.64,-158.26"/>
<polygon fill="midnightblue" stroke="midnightblue" points="190.04,-157.37 185.07,-148.02 183.13,-158.43 190.04,-157.37"/>
</g>
<!-- Node15&#45;&gt;Node3 -->
<g id="edge20" class="edge">
<title>Node15&#45;&gt;Node3</title>
<path fill="none" stroke="midnightblue" d="M292.34,-56.4C320.56,-46.28 358.21,-32.79 385.1,-23.15"/>
<polygon fill="midnightblue" stroke="midnightblue" points="386.61,-26.33 394.85,-19.66 384.25,-19.74 386.61,-26.33"/>
</g>
<!-- Node16&#45;&gt;Node3 -->
<g id="edge28" class="edge">
<title>Node16&#45;&gt;Node3</title>
<path fill="none" stroke="midnightblue" d="M335.42,-257.26C329.24,-229.41 319.46,-166.62 344,-123 358.32,-97.54 381.92,-110.7 399,-87 411.18,-70.09 415.95,-46.3 417.81,-29.86"/>
<polygon fill="midnightblue" stroke="midnightblue" points="421.3,-30.1 418.69,-19.83 414.33,-29.49 421.3,-30.1"/>
</g>
<!-- Node17 -->
<g id="node17" class="node">
<title>Node17</title>
<g id="a_node17"><a xlink:href="JKRHeap_8h.html" target="_top" xlink:title=" ">
<polygon fill="white" stroke="black" points="361,-190.5 361,-220.5 497,-220.5 497,-190.5 361,-190.5"/>
<text text-anchor="start" x="369" y="-208.5" font-family="Helvetica,sans-Serif" font-size="10.00">JSystem/JKernel/JKRHeap</text>
<text text-anchor="middle" x="429" y="-197.5" font-family="Helvetica,sans-Serif" font-size="10.00">/JKRHeap.h</text>
</a>
</g>
</g>
<!-- Node16&#45;&gt;Node17 -->
<g id="edge22" class="edge">
<title>Node16&#45;&gt;Node17</title>
<path fill="none" stroke="midnightblue" d="M358.53,-257.4C371.03,-248.37 387.44,-236.51 401.28,-226.52"/>
<polygon fill="midnightblue" stroke="midnightblue" points="403.45,-229.27 409.51,-220.58 399.35,-223.59 403.45,-229.27"/>
</g>
<!-- Node19 -->
<g id="node19" class="node">
<title>Node19</title>
<g id="a_node19"><a xlink:href="GX_8h.html" target="_top" xlink:title=" ">
<polygon fill="white" stroke="black" points="339.5,-62 339.5,-81 390.5,-81 390.5,-62 339.5,-62"/>
<text text-anchor="middle" x="365" y="-69" font-family="Helvetica,sans-Serif" font-size="10.00">gx/GX.h</text>
</a>
</g>
</g>
<!-- Node16&#45;&gt;Node19 -->
<g id="edge29" class="edge">
<title>Node16&#45;&gt;Node19</title>
<path fill="none" stroke="midnightblue" d="M328.56,-257.31C322.1,-247.63 314.41,-234.2 311,-221 300.09,-178.83 293.66,-162.96 311,-123 317.46,-108.12 330.69,-95.63 342.44,-86.79"/>
<polygon fill="midnightblue" stroke="midnightblue" points="344.47,-89.65 350.62,-81.02 340.43,-83.93 344.47,-89.65"/>
</g>
<!-- Node17&#45;&gt;Node3 -->
<g id="edge26" class="edge">
<title>Node17&#45;&gt;Node3</title>
<path fill="none" stroke="midnightblue" d="M470.4,-190.4C487.03,-182.46 504.49,-170.71 514,-154 520.81,-142.03 518.75,-135.93 514,-123 498.9,-81.86 461.25,-45.47 438.14,-26"/>
<polygon fill="midnightblue" stroke="midnightblue" points="440.3,-23.25 430.35,-19.62 435.86,-28.66 440.3,-23.25"/>
</g>
<!-- Node17&#45;&gt;Node8 -->
<g id="edge27" class="edge">
<title>Node17&#45;&gt;Node8</title>
<path fill="none" stroke="midnightblue" d="M429.08,-220.69C429.26,-253.21 429.69,-333.09 429.9,-369.88"/>
<polygon fill="midnightblue" stroke="midnightblue" points="426.4,-370.22 429.95,-380.2 433.4,-370.18 426.4,-370.22"/>
</g>
<!-- Node18 -->
<g id="node18" class="node">
<title>Node18</title>
<g id="a_node18"><a xlink:href="JKRDisposer_8h.html" target="_top" xlink:title=" ">
<polygon fill="white" stroke="black" points="353.5,-123.5 353.5,-153.5 504.5,-153.5 504.5,-123.5 353.5,-123.5"/>
<text text-anchor="start" x="361.5" y="-141.5" font-family="Helvetica,sans-Serif" font-size="10.00">JSystem/JKernel/JKRDisposer</text>
<text text-anchor="middle" x="429" y="-130.5" font-family="Helvetica,sans-Serif" font-size="10.00">/JKRDisposer.h</text>
</a>
</g>
</g>
<!-- Node17&#45;&gt;Node18 -->
<g id="edge23" class="edge">
<title>Node17&#45;&gt;Node18</title>
<path fill="none" stroke="midnightblue" d="M429,-190.4C429,-182.64 429,-172.81 429,-163.86"/>
<polygon fill="midnightblue" stroke="midnightblue" points="432.5,-163.58 429,-153.58 425.5,-163.58 432.5,-163.58"/>
</g>
<!-- Node18&#45;&gt;Node3 -->
<g id="edge25" class="edge">
<title>Node18&#45;&gt;Node3</title>
<path fill="none" stroke="midnightblue" d="M431.4,-123.28C433.77,-106.95 436.55,-79.39 433,-56 431.63,-47 428.81,-37.33 426.05,-29.26"/>
<polygon fill="midnightblue" stroke="midnightblue" points="429.31,-27.98 422.6,-19.78 422.73,-30.37 429.31,-27.98"/>
</g>
<!-- Node18&#45;&gt;Node15 -->
<g id="edge24" class="edge">
<title>Node18&#45;&gt;Node15</title>
<path fill="none" stroke="midnightblue" d="M390.81,-123.4C364.4,-113.64 329.07,-100.59 300.8,-90.15"/>
<polygon fill="midnightblue" stroke="midnightblue" points="301.71,-86.76 291.11,-86.58 299.28,-93.32 301.71,-86.76"/>
</g>
<!-- Node19&#45;&gt;Node3 -->
<g id="edge30" class="edge">
<title>Node19&#45;&gt;Node3</title>
<path fill="none" stroke="midnightblue" d="M372.74,-61.98C381,-52.87 394.28,-38.24 404.49,-26.98"/>
<polygon fill="midnightblue" stroke="midnightblue" points="407.15,-29.27 411.28,-19.51 401.97,-24.56 407.15,-29.27"/>
</g>
<!-- Node20&#45;&gt;Node3 -->
<g id="edge32" class="edge">
<title>Node20&#45;&gt;Node3</title>
<path fill="none" stroke="midnightblue" d="M179.48,-128.7C171.77,-112.34 158.54,-76.99 176,-56 199.94,-27.22 304.19,-16.76 368.11,-13.03"/>
<polygon fill="midnightblue" stroke="midnightblue" points="368.6,-16.5 378.39,-12.46 368.21,-9.52 368.6,-16.5"/>
</g>
<!-- Node21&#45;&gt;Node6 -->
<g id="edge35" class="edge">
<title>Node21&#45;&gt;Node6</title>
<path fill="none" stroke="midnightblue" d="M203.44,-548.08C208.95,-540.46 217.03,-529.26 223.76,-519.94"/>
<polygon fill="midnightblue" stroke="midnightblue" points="226.66,-521.91 229.68,-511.75 220.99,-517.81 226.66,-521.91"/>
</g>
<!-- Node21&#45;&gt;Node7 -->
<g id="edge36" class="edge">
<title>Node21&#45;&gt;Node7</title>
<path fill="none" stroke="midnightblue" d="M189.29,-548.31C178.98,-535.57 163.09,-511.25 173,-492 180.08,-478.25 193.52,-467.77 206.18,-460.39"/>
<polygon fill="midnightblue" stroke="midnightblue" points="208,-463.39 215.15,-455.57 204.69,-457.22 208,-463.39"/>
</g>
<!-- Node22&#45;&gt;Node5 -->
<g id="edge40" class="edge">
<title>Node22&#45;&gt;Node5</title>
<path fill="none" stroke="midnightblue" d="M307.93,-727.39C305.06,-717.28 301.17,-703.34 298,-691 293,-671.56 287.77,-649.18 284.24,-633.77"/>
<polygon fill="midnightblue" stroke="midnightblue" points="287.63,-632.89 282,-623.92 280.8,-634.45 287.63,-632.89"/>
</g>
<!-- Node22&#45;&gt;Node8 -->
<g id="edge46" class="edge">
<title>Node22&#45;&gt;Node8</title>
<path fill="none" stroke="midnightblue" d="M316.77,-727.33C335.36,-672.11 402.92,-471.43 423.81,-409.4"/>
<polygon fill="midnightblue" stroke="midnightblue" points="427.17,-410.38 427.04,-399.78 420.54,-408.14 427.17,-410.38"/>
</g>
<!-- Node23 -->
<g id="node23" class="node">
<title>Node23</title>
<g id="a_node23"><a xlink:href="f__pc__layer_8h.html" target="_top" xlink:title=" ">
<polygon fill="white" stroke="black" points="74,-666 74,-685 170,-685 170,-666 74,-666"/>
<text text-anchor="middle" x="122" y="-673" font-family="Helvetica,sans-Serif" font-size="10.00">f/f_pc/f_pc_layer.h</text>
</a>
</g>
</g>
<!-- Node22&#45;&gt;Node23 -->
<g id="edge41" class="edge">
<title>Node22&#45;&gt;Node23</title>
<path fill="none" stroke="midnightblue" d="M270.77,-727.4C236.7,-715.74 188.86,-699.37 156.71,-688.38"/>
<polygon fill="midnightblue" stroke="midnightblue" points="157.46,-684.93 146.87,-685.01 155.2,-691.56 157.46,-684.93"/>
</g>
<!-- Node23&#45;&gt;Node5 -->
<g id="edge43" class="edge">
<title>Node23&#45;&gt;Node5</title>
<path fill="none" stroke="midnightblue" d="M144.64,-665.98C171.74,-655.77 217.31,-638.61 248,-627.05"/>
<polygon fill="midnightblue" stroke="midnightblue" points="249.28,-630.31 257.4,-623.51 246.81,-623.76 249.28,-630.31"/>
</g>
<!-- Node23&#45;&gt;Node7 -->
<g id="edge42" class="edge">
<title>Node23&#45;&gt;Node7</title>
<path fill="none" stroke="midnightblue" d="M121.47,-665.96C120.44,-645.19 119.36,-590.62 133,-548 141.8,-520.48 145.97,-512.82 166,-492 178.29,-479.23 194.88,-468.36 208.82,-460.51"/>
<polygon fill="midnightblue" stroke="midnightblue" points="210.83,-463.4 217.96,-455.57 207.5,-457.24 210.83,-463.4"/>
</g>
<!-- Node23&#45;&gt;Node8 -->
<g id="edge45" class="edge">
<title>Node23&#45;&gt;Node8</title>
<path fill="none" stroke="midnightblue" d="M115.99,-665.98C103.52,-647.46 76,-601.74 76,-559 76,-559 76,-559 76,-501 76,-434.75 304.96,-403.91 394.61,-394.38"/>
<polygon fill="midnightblue" stroke="midnightblue" points="395.24,-397.83 404.82,-393.32 394.52,-390.87 395.24,-397.83"/>
</g>
<!-- Node23&#45;&gt;Node21 -->
<g id="edge44" class="edge">
<title>Node23&#45;&gt;Node21</title>
<path fill="none" stroke="midnightblue" d="M127.64,-665.82C139.96,-646.84 169.5,-601.35 185.77,-576.29"/>
<polygon fill="midnightblue" stroke="midnightblue" points="188.79,-578.08 191.3,-567.78 182.92,-574.26 188.79,-578.08"/>
</g>
<!-- Node24&#45;&gt;Node5 -->
<g id="edge48" class="edge">
<title>Node24&#45;&gt;Node5</title>
<path fill="none" stroke="midnightblue" d="M144.77,-732.63C160.03,-717.33 192.65,-685.18 222,-660 234.33,-649.42 248.77,-638.21 260.15,-629.63"/>
<polygon fill="midnightblue" stroke="midnightblue" points="262.26,-632.43 268.18,-623.64 258.07,-626.82 262.26,-632.43"/>
</g>
<!-- Node24&#45;&gt;Node8 -->
<g id="edge50" class="edge">
<title>Node24&#45;&gt;Node8</title>
<path fill="none" stroke="midnightblue" d="M118.17,-732.86C102.18,-724.27 79.13,-709.71 65,-691 43.39,-662.4 38,-650.85 38,-615 38,-615 38,-615 38,-501 38,-455.87 74.77,-454.34 116,-436 165.3,-414.07 323.08,-399.35 394.4,-393.65"/>
<polygon fill="midnightblue" stroke="midnightblue" points="394.98,-397.11 404.68,-392.84 394.43,-390.13 394.98,-397.11"/>
</g>
<!-- Node24&#45;&gt;Node23 -->
<g id="edge49" class="edge">
<title>Node24&#45;&gt;Node23</title>
<path fill="none" stroke="midnightblue" d="M134.11,-732.73C132.03,-723.09 128.63,-707.3 125.96,-694.91"/>
<polygon fill="midnightblue" stroke="midnightblue" points="129.39,-694.17 123.86,-685.13 122.54,-695.64 129.39,-694.17"/>
</g>
<!-- Node25&#45;&gt;Node5 -->
<g id="edge52" class="edge">
<title>Node25&#45;&gt;Node5</title>
<path fill="none" stroke="midnightblue" d="M515.79,-666C507.01,-664.01 497.68,-661.92 489,-660 434.81,-648.03 372.63,-634.69 330.28,-625.67"/>
<polygon fill="midnightblue" stroke="midnightblue" points="330.99,-622.24 320.48,-623.58 329.54,-629.09 330.99,-622.24"/>
</g>
<!-- Node25&#45;&gt;Node8 -->
<g id="edge53" class="edge">
<title>Node25&#45;&gt;Node8</title>
<path fill="none" stroke="midnightblue" d="M540.75,-665.89C517.67,-648.53 470,-606.9 470,-559 470,-559 470,-559 470,-501 470,-466.62 452.53,-429.63 440.68,-408.5"/>
<polygon fill="midnightblue" stroke="midnightblue" points="443.62,-406.61 435.56,-399.73 437.58,-410.13 443.62,-406.61"/>
</g>
<!-- Node26&#45;&gt;Node5 -->
<g id="edge55" class="edge">
<title>Node26&#45;&gt;Node5</title>
<path fill="none" stroke="midnightblue" d="M419.6,-732.97C407.42,-722.97 386.68,-705.86 369,-691 344.28,-670.21 315.93,-645.93 298.01,-630.51"/>
<polygon fill="midnightblue" stroke="midnightblue" points="299.96,-627.58 290.1,-623.71 295.4,-632.89 299.96,-627.58"/>
</g>
<!-- Node27 -->
<g id="node27" class="node">
<title>Node27</title>
<g id="a_node27"><a xlink:href="f__pc__method__tag_8h.html" target="_top" xlink:title=" ">
<polygon fill="white" stroke="black" points="378.5,-660.5 378.5,-690.5 479.5,-690.5 479.5,-660.5 378.5,-660.5"/>
<text text-anchor="start" x="386.5" y="-678.5" font-family="Helvetica,sans-Serif" font-size="10.00">f/f_pc/f_pc_method</text>
<text text-anchor="middle" x="429" y="-667.5" font-family="Helvetica,sans-Serif" font-size="10.00">_tag.h</text>
</a>
</g>
</g>
<!-- Node26&#45;&gt;Node27 -->
<g id="edge56" class="edge">
<title>Node26&#45;&gt;Node27</title>
<path fill="none" stroke="midnightblue" d="M429.87,-732.73C429.74,-724.54 429.54,-711.92 429.37,-700.71"/>
<polygon fill="midnightblue" stroke="midnightblue" points="432.87,-700.53 429.22,-690.59 425.87,-700.64 432.87,-700.53"/>
</g>
<!-- Node27&#45;&gt;Node5 -->
<g id="edge57" class="edge">
<title>Node27&#45;&gt;Node5</title>
<path fill="none" stroke="midnightblue" d="M393.69,-660.4C368.58,-650.37 335.16,-637.03 311.06,-627.4"/>
<polygon fill="midnightblue" stroke="midnightblue" points="312.27,-624.12 301.68,-623.66 309.67,-630.62 312.27,-624.12"/>
</g>
<!-- Node27&#45;&gt;Node8 -->
<g id="edge58" class="edge">
<title>Node27&#45;&gt;Node8</title>
<path fill="none" stroke="midnightblue" d="M429.61,-660.28C430.48,-638.48 432,-595.51 432,-559 432,-559 432,-559 432,-501 432,-468.94 431.14,-431.64 430.55,-409.75"/>
<polygon fill="midnightblue" stroke="midnightblue" points="434.04,-409.45 430.26,-399.56 427.04,-409.65 434.04,-409.45"/>
</g>
<!-- Node28&#45;&gt;Node8 -->
<g id="edge62" class="edge">
<title>Node28&#45;&gt;Node8</title>
<path fill="none" stroke="midnightblue" d="M602.38,-492.08C612.57,-478.62 628.28,-452.9 615,-436 596.73,-412.76 513.67,-400.02 465.28,-394.46"/>
<polygon fill="midnightblue" stroke="midnightblue" points="465.55,-390.97 455.23,-393.35 464.79,-397.93 465.55,-390.97"/>
</g>
<!-- Node29 -->
<g id="node29" class="node">
<title>Node29</title>
<g id="a_node29"><a xlink:href="f__pc__method_8h.html" target="_top" xlink:title=" ">
<polygon fill="white" stroke="black" points="498,-436.5 498,-455.5 606,-455.5 606,-436.5 498,-436.5"/>
<text text-anchor="middle" x="552" y="-443.5" font-family="Helvetica,sans-Serif" font-size="10.00">f/f_pc/f_pc_method.h</text>
</a>
</g>
</g>
<!-- Node28&#45;&gt;Node29 -->
<g id="edge60" class="edge">
<title>Node28&#45;&gt;Node29</title>
<path fill="none" stroke="midnightblue" d="M587.9,-492.08C581.76,-484.38 572.73,-473.03 565.26,-463.65"/>
<polygon fill="midnightblue" stroke="midnightblue" points="567.94,-461.39 558.97,-455.75 562.46,-465.75 567.94,-461.39"/>
</g>
<!-- Node29&#45;&gt;Node8 -->
<g id="edge61" class="edge">
<title>Node29&#45;&gt;Node8</title>
<path fill="none" stroke="midnightblue" d="M532.67,-436.44C512.68,-427.6 481.26,-413.69 458.44,-403.59"/>
<polygon fill="midnightblue" stroke="midnightblue" points="459.8,-400.36 449.24,-399.52 456.97,-406.76 459.8,-400.36"/>
</g>
</g>
</svg>
