<?xml version="1.0" encoding="UTF-8" standalone="no"?>
<!DOCTYPE svg PUBLIC "-//W3C//DTD SVG 1.1//EN"
 "http://www.w3.org/Graphics/SVG/1.1/DTD/svg11.dtd">
<!-- Generated by graphviz version 2.46.0 (20210122.1329)
 -->
<!-- Title: include/f/f_op/f_op_actor.h Pages: 1 -->
<svg width="772pt" height="173pt"
 viewBox="0.00 0.00 771.50 173.00" xmlns="http://www.w3.org/2000/svg" xmlns:xlink="http://www.w3.org/1999/xlink">
<g id="graph0" class="graph" transform="scale(1 1) rotate(0) translate(4 169)">
<title>include/f/f_op/f_op_actor.h</title>
<polygon fill="white" stroke="transparent" points="-4,4 -4,-169 767.5,-169 767.5,4 -4,4"/>
<!-- Node1 -->
<g id="node1" class="node">
<title>Node1</title>
<g id="a_node1"><a xlink:title=" ">
<polygon fill="#bfbfbf" stroke="black" points="358,-134.5 358,-164.5 455,-164.5 455,-134.5 358,-134.5"/>
<text text-anchor="start" x="366" y="-152.5" font-family="Helvetica,sans-Serif" font-size="10.00">include/f/f_op/f_op</text>
<text text-anchor="middle" x="406.5" y="-141.5" font-family="Helvetica,sans-Serif" font-size="10.00">_actor.h</text>
</a>
</g>
</g>
<!-- Node2 -->
<g id="node2" class="node">
<title>Node2</title>
<g id="a_node2"><a xlink:href="d__a__alink_8h.html" target="_top" xlink:title=" ">
<polygon fill="white" stroke="black" points="220,-67.5 220,-97.5 339,-97.5 339,-67.5 220,-67.5"/>
<text text-anchor="start" x="228" y="-85.5" font-family="Helvetica,sans-Serif" font-size="10.00">include/d/d_a/d_a_alink</text>
<text text-anchor="middle" x="279.5" y="-74.5" font-family="Helvetica,sans-Serif" font-size="10.00">/d_a_alink.h</text>
</a>
</g>
</g>
<!-- Node1&#45;&gt;Node2 -->
<g id="edge1" class="edge">
<title>Node1&#45;&gt;Node2</title>
<path fill="none" stroke="midnightblue" d="M369.8,-129.71C349.77,-119.46 325.38,-106.98 307,-97.58"/>
<polygon fill="midnightblue" stroke="midnightblue" points="368.45,-132.96 378.94,-134.4 371.64,-126.72 368.45,-132.96"/>
</g>
<!-- Node5 -->
<g id="node5" class="node">
<title>Node5</title>
<g id="a_node5"><a xlink:href="d__a__player_8h.html" target="_top" xlink:title=" ">
<polygon fill="white" stroke="black" points="262.5,-0.5 262.5,-30.5 386.5,-30.5 386.5,-0.5 262.5,-0.5"/>
<text text-anchor="start" x="270.5" y="-18.5" font-family="Helvetica,sans-Serif" font-size="10.00">include/d/d_a/d_a_player</text>
<text text-anchor="middle" x="324.5" y="-7.5" font-family="Helvetica,sans-Serif" font-size="10.00">/d_a_player.h</text>
</a>
</g>
</g>
<!-- Node1&#45;&gt;Node5 -->
<g id="edge6" class="edge">
<title>Node1&#45;&gt;Node5</title>
<path fill="none" stroke="midnightblue" d="M392.42,-125.83C375.42,-98.47 347.35,-53.28 333.21,-30.52"/>
<polygon fill="midnightblue" stroke="midnightblue" points="389.47,-127.73 397.72,-134.37 395.42,-124.03 389.47,-127.73"/>
</g>
<!-- Node6 -->
<g id="node6" class="node">
<title>Node6</title>
<g id="a_node6"><a xlink:href="d__bomb_8h.html" target="_top" xlink:title=" ">
<polygon fill="white" stroke="black" points="396,-67.5 396,-97.5 497,-97.5 497,-67.5 396,-67.5"/>
<text text-anchor="start" x="404" y="-85.5" font-family="Helvetica,sans-Serif" font-size="10.00">include/d/d_bomb/d</text>
<text text-anchor="middle" x="446.5" y="-74.5" font-family="Helvetica,sans-Serif" font-size="10.00">_bomb.h</text>
</a>
</g>
</g>
<!-- Node1&#45;&gt;Node6 -->
<g id="edge7" class="edge">
<title>Node1&#45;&gt;Node6</title>
<path fill="none" stroke="midnightblue" d="M420.43,-125.87C426.22,-116.46 432.76,-105.83 437.84,-97.58"/>
<polygon fill="midnightblue" stroke="midnightblue" points="417.44,-124.05 415.18,-134.4 423.4,-127.71 417.44,-124.05"/>
</g>
<!-- Node8 -->
<g id="node8" class="node">
<title>Node8</title>
<g id="a_node8"><a xlink:href="d__lib_8h.html" target="_top" xlink:title=" ">
<polygon fill="white" stroke="black" points="515.5,-73 515.5,-92 625.5,-92 625.5,-73 515.5,-73"/>
<text text-anchor="middle" x="570.5" y="-80" font-family="Helvetica,sans-Serif" font-size="10.00">include/d/d_lib/d_lib.h</text>
</a>
</g>
</g>
<!-- Node1&#45;&gt;Node8 -->
<g id="edge9" class="edge">
<title>Node1&#45;&gt;Node8</title>
<path fill="none" stroke="midnightblue" d="M451.61,-130.62C483.35,-118.04 524.41,-101.77 549.04,-92.01"/>
<polygon fill="midnightblue" stroke="midnightblue" points="450.09,-127.46 442.09,-134.4 452.67,-133.97 450.09,-127.46"/>
</g>
<!-- Node3 -->
<g id="node3" class="node">
<title>Node3</title>
<g id="a_node3"><a xlink:href="d__attention_8cpp.html" target="_top" xlink:title=" ">
<polygon fill="white" stroke="black" points="0,-6 0,-25 107,-25 107,-6 0,-6"/>
<text text-anchor="middle" x="53.5" y="-13" font-family="Helvetica,sans-Serif" font-size="10.00">src/d/d_attention.cpp</text>
</a>
</g>
</g>
<!-- Node2&#45;&gt;Node3 -->
<g id="edge2" class="edge">
<title>Node2&#45;&gt;Node3</title>
<path fill="none" stroke="midnightblue" d="M220.99,-64.67C176.82,-51.97 118.05,-35.06 83.15,-25.03"/>
<polygon fill="midnightblue" stroke="midnightblue" points="220.16,-68.08 230.74,-67.48 222.1,-61.35 220.16,-68.08"/>
</g>
<!-- Node4 -->
<g id="node4" class="node">
<title>Node4</title>
<g id="a_node4"><a xlink:href="d__a__alink_8cpp.html" target="_top" xlink:title=" ">
<polygon fill="white" stroke="black" points="125,-6 125,-25 244,-25 244,-6 125,-6"/>
<text text-anchor="middle" x="184.5" y="-13" font-family="Helvetica,sans-Serif" font-size="10.00">src/d/d_a/d_a_alink.cpp</text>
</a>
</g>
</g>
<!-- Node2&#45;&gt;Node4 -->
<g id="edge3" class="edge">
<title>Node2&#45;&gt;Node4</title>
<path fill="none" stroke="midnightblue" d="M250.48,-61.64C232.55,-49.37 210.46,-34.26 196.93,-25.01"/>
<polygon fill="midnightblue" stroke="midnightblue" points="248.66,-64.64 258.89,-67.4 252.61,-58.86 248.66,-64.64"/>
</g>
<!-- Node2&#45;&gt;Node5 -->
<g id="edge4" class="edge">
<title>Node2&#45;&gt;Node5</title>
<path fill="none" stroke="midnightblue" d="M288.89,-58.58C294.82,-49.24 302.35,-38.75 309.08,-30.58"/>
<polygon fill="midnightblue" stroke="midnightblue" points="285.74,-57.02 283.59,-67.4 291.74,-60.63 285.74,-57.02"/>
</g>
<!-- Node5&#45;&gt;Node2 -->
<g id="edge5" class="edge">
<title>Node5&#45;&gt;Node2</title>
<path fill="none" stroke="midnightblue" d="M315.13,-39.39C309.21,-48.73 301.68,-59.22 294.94,-67.4"/>
<polygon fill="midnightblue" stroke="midnightblue" points="318.28,-40.95 320.43,-30.58 312.28,-37.35 318.28,-40.95"/>
</g>
<!-- Node7 -->
<g id="node7" class="node">
<title>Node7</title>
<g id="a_node7"><a xlink:href="d__bomb_8cpp.html" target="_top" xlink:title=" ">
<polygon fill="white" stroke="black" points="404.5,-6 404.5,-25 498.5,-25 498.5,-6 404.5,-6"/>
<text text-anchor="middle" x="451.5" y="-13" font-family="Helvetica,sans-Serif" font-size="10.00">src/d/d_bomb.cpp</text>
</a>
</g>
</g>
<!-- Node6&#45;&gt;Node7 -->
<g id="edge8" class="edge">
<title>Node6&#45;&gt;Node7</title>
<path fill="none" stroke="midnightblue" d="M448.37,-57.25C449.23,-46.02 450.2,-33.38 450.83,-25.19"/>
<polygon fill="midnightblue" stroke="midnightblue" points="444.86,-57.16 447.58,-67.4 451.84,-57.69 444.86,-57.16"/>
</g>
<!-- Node9 -->
<g id="node9" class="node">
<title>Node9</title>
<g id="a_node9"><a xlink:href="d__lib_8cpp.html" target="_top" xlink:title=" ">
<polygon fill="white" stroke="black" points="525.5,-6 525.5,-25 605.5,-25 605.5,-6 525.5,-6"/>
<text text-anchor="middle" x="565.5" y="-13" font-family="Helvetica,sans-Serif" font-size="10.00">src/d/d_lib.cpp</text>
</a>
</g>
</g>
<!-- Node8&#45;&gt;Node9 -->
<g id="edge10" class="edge">
<title>Node8&#45;&gt;Node9</title>
<path fill="none" stroke="midnightblue" d="M569.04,-62.54C568.09,-50.17 566.89,-34.62 566.16,-25.13"/>
<polygon fill="midnightblue" stroke="midnightblue" points="565.57,-63.03 569.83,-72.73 572.55,-62.49 565.57,-63.03"/>
</g>
<!-- Node10 -->
<g id="node10" class="node">
<title>Node10</title>
<g id="a_node10"><a xlink:href="f__pc__manager_8cpp.html" target="_top" xlink:title=" ">
<polygon fill="white" stroke="black" points="623.5,-6 623.5,-25 763.5,-25 763.5,-6 623.5,-6"/>
<text text-anchor="middle" x="693.5" y="-13" font-family="Helvetica,sans-Serif" font-size="10.00">src/f/f_pc/f_pc_manager.cpp</text>
</a>
</g>
</g>
<!-- Node8&#45;&gt;Node10 -->
<g id="edge11" class="edge">
<title>Node8&#45;&gt;Node10</title>
<path fill="none" stroke="midnightblue" d="M595.85,-68.1C620.21,-55.23 656.3,-36.16 677.1,-25.17"/>
<polygon fill="midnightblue" stroke="midnightblue" points="594.04,-65.1 586.83,-72.87 597.31,-71.29 594.04,-65.1"/>
</g>
</g>
</svg>
