<?xml version="1.0" encoding="UTF-8" standalone="no"?>
<!DOCTYPE svg PUBLIC "-//W3C//DTD SVG 1.1//EN"
 "http://www.w3.org/Graphics/SVG/1.1/DTD/svg11.dtd">
<!-- Generated by graphviz version 2.46.1 (20210215.1649)
 -->
<!-- Title: src/f/f_op/f_op_overlap.cpp Pages: 1 -->
<!--zoomable 475 -->
<svg id="main" version="1.1" xmlns="http://www.w3.org/2000/svg" xmlns:xlink="http://www.w3.org/1999/xlink" xml:space="preserve" onload="init(evt)">
<style type="text/css"><![CDATA[
.edge:hover path { stroke: red; }
.edge:hover polygon { stroke: red; fill: red; }
]]></style>
<script type="text/javascript"><![CDATA[
var edges = document.getElementsByTagName('g');
if (edges && edges.length) {
  for (var i=0;i<edges.length;i++) {
    if (edges[i].id.substr(0,4)=='edge') {
      edges[i].setAttribute('class','edge');
    }
  }
}
]]></script>
        <defs>
                <circle id="rim" cx="0" cy="0" r="7"/>
                <circle id="rim2" cx="0" cy="0" r="3.5"/>
                <g id="zoomPlus">
                        <use xlink:href="#rim" fill="#404040">
                                <set attributeName="fill" to="#808080" begin="zoomplus.mouseover" end="zoomplus.mouseout"/>
                        </use>
                        <path d="M-4,0h8M0,-4v8" fill="none" stroke="white" stroke-width="1.5" pointer-events="none"/>
                </g>
                <g id="zoomMin">
                        <use xlink:href="#rim" fill="#404040">
                                <set attributeName="fill" to="#808080" begin="zoomminus.mouseover" end="zoomminus.mouseout"/>
                        </use>
                        <path d="M-4,0h8" fill="none" stroke="white" stroke-width="1.5" pointer-events="none"/>
                </g>
                <g id="dirArrow">
                        <path fill="none" stroke="white" stroke-width="1.5" d="M0,-3.0v7 M-2.5,-0.5L0,-3.0L2.5,-0.5"/>
                </g>
               <g id="resetDef">
                       <use xlink:href="#rim2" fill="#404040">
                               <set attributeName="fill" to="#808080" begin="reset.mouseover" end="reset.mouseout"/>
                       </use>
               </g>
        </defs>

<script type="text/javascript">
var viewWidth = 861;
var viewHeight = 475;
var sectionId = 'dynsection-0';
</script>
<script xlink:href="svgpan.js"/>
<svg id="graph" class="graph">
<g id="viewport">
<title>src/f/f_op/f_op_overlap.cpp</title>
<polygon fill="white" stroke="transparent" points="-4,4 -4,-471 856.5,-471 856.5,4 -4,4"/>
<!-- Node1 -->
<g id="node1" class="node">
<title>Node1</title>
<g id="a_node1"><a xlink:title=" ">
<polygon fill="#bfbfbf" stroke="black" points="388,-447.5 388,-466.5 522,-466.5 522,-447.5 388,-447.5"/>
<text text-anchor="middle" x="455" y="-454.5" font-family="Helvetica,sans-Serif" font-size="10.00">src/f/f_op/f_op_overlap.cpp</text>
</a>
</g>
</g>
<!-- Node2 -->
<g id="node2" class="node">
<title>Node2</title>
<g id="a_node2"><a xlink:href="global_8h.html" target="_top" xlink:title=" ">
<polygon fill="white" stroke="black" points="125,-386 125,-405 175,-405 175,-386 125,-386"/>
<text text-anchor="middle" x="150" y="-393" font-family="Helvetica,sans-Serif" font-size="10.00">global.h</text>
</a>
</g>
</g>
<!-- Node1&#45;&gt;Node2 -->
<g id="edge1" class="edge">
<title>Node1&#45;&gt;Node2</title>
<path fill="none" stroke="midnightblue" d="M387.74,-449.35C332.29,-442.8 251.99,-430.83 184,-411 181.85,-410.37 179.65,-409.65 177.46,-408.86"/>
<polygon fill="midnightblue" stroke="midnightblue" points="178.64,-405.56 168.06,-405.15 176.07,-412.07 178.64,-405.56"/>
</g>
<!-- Node16 -->
<g id="node16" class="node">
<title>Node16</title>
<g id="a_node16"><a xlink:title=" ">
<polygon fill="white" stroke="#bfbfbf" points="193.5,-380.5 193.5,-410.5 310.5,-410.5 310.5,-380.5 193.5,-380.5"/>
<text text-anchor="start" x="201.5" y="-398.5" font-family="Helvetica,sans-Serif" font-size="10.00">f/f_op/f_op_overlap</text>
<text text-anchor="middle" x="252" y="-387.5" font-family="Helvetica,sans-Serif" font-size="10.00">/asm/func_8001E37C.s</text>
</a>
</g>
</g>
<!-- Node1&#45;&gt;Node16 -->
<g id="edge27" class="edge">
<title>Node1&#45;&gt;Node16</title>
<path fill="none" stroke="midnightblue" d="M425.92,-447.48C395.72,-438.63 347.7,-424.55 309.75,-413.43"/>
<polygon fill="midnightblue" stroke="midnightblue" points="310.42,-409.98 299.84,-410.52 308.45,-416.69 310.42,-409.98"/>
</g>
<!-- Node17 -->
<g id="node17" class="node">
<title>Node17</title>
<g id="a_node17"><a xlink:title=" ">
<polygon fill="white" stroke="#bfbfbf" points="328.5,-380.5 328.5,-410.5 445.5,-410.5 445.5,-380.5 328.5,-380.5"/>
<text text-anchor="start" x="336.5" y="-398.5" font-family="Helvetica,sans-Serif" font-size="10.00">f/f_op/f_op_overlap</text>
<text text-anchor="middle" x="387" y="-387.5" font-family="Helvetica,sans-Serif" font-size="10.00">/asm/func_8001E3A4.s</text>
</a>
</g>
</g>
<!-- Node1&#45;&gt;Node17 -->
<g id="edge28" class="edge">
<title>Node1&#45;&gt;Node17</title>
<path fill="none" stroke="midnightblue" d="M445.26,-447.48C436.31,-439.64 422.67,-427.71 410.85,-417.37"/>
<polygon fill="midnightblue" stroke="midnightblue" points="412.86,-414.47 403.03,-410.52 408.25,-419.74 412.86,-414.47"/>
</g>
<!-- Node18 -->
<g id="node18" class="node">
<title>Node18</title>
<g id="a_node18"><a xlink:title=" ">
<polygon fill="white" stroke="#bfbfbf" points="463.5,-380.5 463.5,-410.5 582.5,-410.5 582.5,-380.5 463.5,-380.5"/>
<text text-anchor="start" x="471.5" y="-398.5" font-family="Helvetica,sans-Serif" font-size="10.00">f/f_op/f_op_overlap</text>
<text text-anchor="middle" x="523" y="-387.5" font-family="Helvetica,sans-Serif" font-size="10.00">/asm/func_8001E3CC.s</text>
</a>
</g>
</g>
<!-- Node1&#45;&gt;Node18 -->
<g id="edge29" class="edge">
<title>Node1&#45;&gt;Node18</title>
<path fill="none" stroke="midnightblue" d="M464.74,-447.48C473.69,-439.64 487.33,-427.71 499.15,-417.37"/>
<polygon fill="midnightblue" stroke="midnightblue" points="501.75,-419.74 506.97,-410.52 497.14,-414.47 501.75,-419.74"/>
</g>
<!-- Node19 -->
<g id="node19" class="node">
<title>Node19</title>
<g id="a_node19"><a xlink:title=" ">
<polygon fill="white" stroke="#bfbfbf" points="601,-380.5 601,-410.5 717,-410.5 717,-380.5 601,-380.5"/>
<text text-anchor="start" x="609" y="-398.5" font-family="Helvetica,sans-Serif" font-size="10.00">f/f_op/f_op_overlap</text>
<text text-anchor="middle" x="659" y="-387.5" font-family="Helvetica,sans-Serif" font-size="10.00">/asm/func_8001E3F4.s</text>
</a>
</g>
</g>
<!-- Node1&#45;&gt;Node19 -->
<g id="edge30" class="edge">
<title>Node1&#45;&gt;Node19</title>
<path fill="none" stroke="midnightblue" d="M484.23,-447.48C514.57,-438.63 562.83,-424.55 600.96,-413.43"/>
<polygon fill="midnightblue" stroke="midnightblue" points="602.3,-416.68 610.92,-410.52 600.34,-409.96 602.3,-416.68"/>
</g>
<!-- Node20 -->
<g id="node20" class="node">
<title>Node20</title>
<g id="a_node20"><a xlink:title=" ">
<polygon fill="white" stroke="#bfbfbf" points="735.5,-380.5 735.5,-410.5 852.5,-410.5 852.5,-380.5 735.5,-380.5"/>
<text text-anchor="start" x="743.5" y="-398.5" font-family="Helvetica,sans-Serif" font-size="10.00">f/f_op/f_op_overlap</text>
<text text-anchor="middle" x="794" y="-387.5" font-family="Helvetica,sans-Serif" font-size="10.00">/asm/func_8001E41C.s</text>
</a>
</g>
</g>
<!-- Node1&#45;&gt;Node20 -->
<g id="edge31" class="edge">
<title>Node1&#45;&gt;Node20</title>
<path fill="none" stroke="midnightblue" d="M510.93,-447.48C563.56,-439.28 644.84,-426.18 725.13,-411.11"/>
<polygon fill="midnightblue" stroke="midnightblue" points="726.25,-414.46 735.43,-409.17 724.95,-407.58 726.25,-414.46"/>
</g>
<!-- Node3 -->
<g id="node3" class="node">
<title>Node3</title>
<g id="a_node3"><a xlink:href="types_8h.html" target="_top" xlink:title=" ">
<polygon fill="white" stroke="black" points="189.5,-0.5 189.5,-19.5 270.5,-19.5 270.5,-0.5 189.5,-0.5"/>
<text text-anchor="middle" x="230" y="-7.5" font-family="Helvetica,sans-Serif" font-size="10.00">dolphin/types.h</text>
</a>
</g>
</g>
<!-- Node2&#45;&gt;Node3 -->
<g id="edge2" class="edge">
<title>Node2&#45;&gt;Node3</title>
<path fill="none" stroke="midnightblue" d="M124.89,-387.08C82.19,-372.74 0,-336.9 0,-273.5 0,-273.5 0,-273.5 0,-137.5 0,-56.23 111.63,-26.8 179.35,-16.42"/>
<polygon fill="midnightblue" stroke="midnightblue" points="180.01,-19.86 189.41,-14.97 179.01,-12.93 180.01,-19.86"/>
</g>
<!-- Node4 -->
<g id="node4" class="node">
<title>Node4</title>
<g id="a_node4"><a xlink:href="AR_8h.html" target="_top" xlink:title=" ">
<polygon fill="white" stroke="black" points="30.5,-263 30.5,-282 79.5,-282 79.5,-263 30.5,-263"/>
<text text-anchor="middle" x="55" y="-270" font-family="Helvetica,sans-Serif" font-size="10.00">ar/AR.h</text>
</a>
</g>
</g>
<!-- Node2&#45;&gt;Node4 -->
<g id="edge3" class="edge">
<title>Node2&#45;&gt;Node4</title>
<path fill="none" stroke="midnightblue" d="M138.49,-385.72C126.63,-376.29 108.07,-360.43 95,-344 81.9,-327.54 70.46,-306.26 63.21,-291.4"/>
<polygon fill="midnightblue" stroke="midnightblue" points="66.33,-289.82 58.89,-282.28 60.01,-292.82 66.33,-289.82"/>
</g>
<!-- Node5 -->
<g id="node5" class="node">
<title>Node5</title>
<g id="a_node5"><a xlink:href="ARQ_8h.html" target="_top" xlink:title=" ">
<polygon fill="white" stroke="black" points="66,-196 66,-215 122,-215 122,-196 66,-196"/>
<text text-anchor="middle" x="94" y="-203" font-family="Helvetica,sans-Serif" font-size="10.00">ar/ARQ.h</text>
</a>
</g>
</g>
<!-- Node2&#45;&gt;Node5 -->
<g id="edge5" class="edge">
<title>Node2&#45;&gt;Node5</title>
<path fill="none" stroke="midnightblue" d="M147.45,-385.93C138.92,-357.31 111.29,-264.53 99.46,-224.81"/>
<polygon fill="midnightblue" stroke="midnightblue" points="102.78,-223.7 96.57,-215.12 96.07,-225.7 102.78,-223.7"/>
</g>
<!-- Node6 -->
<g id="node6" class="node">
<title>Node6</title>
<g id="a_node6"><a xlink:href="mwcc_8h.html" target="_top" xlink:title=" ">
<polygon fill="white" stroke="black" points="442,-324.5 442,-343.5 492,-343.5 492,-324.5 442,-324.5"/>
<text text-anchor="middle" x="467" y="-331.5" font-family="Helvetica,sans-Serif" font-size="10.00">mwcc.h</text>
</a>
</g>
</g>
<!-- Node2&#45;&gt;Node6 -->
<g id="edge7" class="edge">
<title>Node2&#45;&gt;Node6</title>
<path fill="none" stroke="midnightblue" d="M167.69,-385.94C172.85,-383.72 178.56,-381.53 184,-380 289.51,-350.25 320.29,-364.34 428,-344 429.27,-343.76 430.56,-343.51 431.86,-343.25"/>
<polygon fill="midnightblue" stroke="midnightblue" points="432.84,-346.62 441.89,-341.11 431.38,-339.77 432.84,-346.62"/>
</g>
<!-- Node7 -->
<g id="node7" class="node">
<title>Node7</title>
<g id="a_node7"><a xlink:href="OS_8h.html" target="_top" xlink:title=" ">
<polygon fill="white" stroke="black" points="124,-129 124,-148 176,-148 176,-129 124,-129"/>
<text text-anchor="middle" x="150" y="-136" font-family="Helvetica,sans-Serif" font-size="10.00">os/OS.h</text>
</a>
</g>
</g>
<!-- Node2&#45;&gt;Node7 -->
<g id="edge8" class="edge">
<title>Node2&#45;&gt;Node7</title>
<path fill="none" stroke="midnightblue" d="M150,-385.72C150,-349.32 150,-209.77 150,-158.52"/>
<polygon fill="midnightblue" stroke="midnightblue" points="153.5,-158.24 150,-148.24 146.5,-158.24 153.5,-158.24"/>
</g>
<!-- Node9 -->
<g id="node9" class="node">
<title>Node9</title>
<g id="a_node9"><a xlink:href="variables_8h.html" target="_top" xlink:title=" ">
<polygon fill="white" stroke="black" points="216.5,-324.5 216.5,-343.5 279.5,-343.5 279.5,-324.5 216.5,-324.5"/>
<text text-anchor="middle" x="248" y="-331.5" font-family="Helvetica,sans-Serif" font-size="10.00">variables.h</text>
</a>
</g>
</g>
<!-- Node2&#45;&gt;Node9 -->
<g id="edge12" class="edge">
<title>Node2&#45;&gt;Node9</title>
<path fill="none" stroke="midnightblue" d="M164.04,-385.98C180.05,-376.25 206.45,-360.23 225.37,-348.74"/>
<polygon fill="midnightblue" stroke="midnightblue" points="227.25,-351.69 233.99,-343.51 223.62,-345.71 227.25,-351.69"/>
</g>
<!-- Node4&#45;&gt;Node3 -->
<g id="edge4" class="edge">
<title>Node4&#45;&gt;Node3</title>
<path fill="none" stroke="midnightblue" d="M52.8,-262.74C45.28,-230.59 23.96,-117.71 78,-56 103.14,-27.29 145.64,-16.48 179.31,-12.6"/>
<polygon fill="midnightblue" stroke="midnightblue" points="179.84,-16.07 189.45,-11.61 179.16,-9.1 179.84,-16.07"/>
</g>
<!-- Node5&#45;&gt;Node3 -->
<g id="edge6" class="edge">
<title>Node5&#45;&gt;Node3</title>
<path fill="none" stroke="midnightblue" d="M90.89,-195.73C82.71,-170.99 63.35,-99.61 95,-56 114.15,-29.62 149.42,-18.48 179.11,-13.88"/>
<polygon fill="midnightblue" stroke="midnightblue" points="179.89,-17.3 189.34,-12.51 178.97,-10.36 179.89,-17.3"/>
</g>
<!-- Node7&#45;&gt;Node3 -->
<g id="edge9" class="edge">
<title>Node7&#45;&gt;Node3</title>
<path fill="none" stroke="midnightblue" d="M155.5,-128.81C168.57,-108.13 201.71,-55.73 219.05,-28.32"/>
<polygon fill="midnightblue" stroke="midnightblue" points="222.08,-30.08 224.46,-19.76 216.16,-26.34 222.08,-30.08"/>
</g>
<!-- Node8 -->
<g id="node8" class="node">
<title>Node8</title>
<g id="a_node8"><a xlink:href="dvd_8h.html" target="_top" xlink:title=" ">
<polygon fill="white" stroke="black" points="104.5,-62 104.5,-81 163.5,-81 163.5,-62 104.5,-62"/>
<text text-anchor="middle" x="134" y="-69" font-family="Helvetica,sans-Serif" font-size="10.00">dvd/dvd.h</text>
</a>
</g>
</g>
<!-- Node7&#45;&gt;Node8 -->
<g id="edge10" class="edge">
<title>Node7&#45;&gt;Node8</title>
<path fill="none" stroke="midnightblue" d="M147.84,-128.73C145.47,-119.09 141.58,-103.3 138.53,-90.91"/>
<polygon fill="midnightblue" stroke="midnightblue" points="141.91,-90 136.12,-81.13 135.12,-91.67 141.91,-90"/>
</g>
<!-- Node8&#45;&gt;Node3 -->
<g id="edge11" class="edge">
<title>Node8&#45;&gt;Node3</title>
<path fill="none" stroke="midnightblue" d="M147.75,-61.98C163.37,-52.3 189.06,-36.37 207.58,-24.89"/>
<polygon fill="midnightblue" stroke="midnightblue" points="209.62,-27.75 216.27,-19.51 205.93,-21.8 209.62,-27.75"/>
</g>
<!-- Node10 -->
<g id="node10" class="node">
<title>Node10</title>
<g id="a_node10"><a xlink:href="JSUList_8h.html" target="_top" xlink:title=" ">
<polygon fill="white" stroke="black" points="366,-56.5 366,-86.5 502,-86.5 502,-56.5 366,-56.5"/>
<text text-anchor="start" x="374" y="-74.5" font-family="Helvetica,sans-Serif" font-size="10.00">JSystem/JSupport/JSUList</text>
<text text-anchor="middle" x="434" y="-63.5" font-family="Helvetica,sans-Serif" font-size="10.00">/JSUList.h</text>
</a>
</g>
</g>
<!-- Node9&#45;&gt;Node10 -->
<g id="edge13" class="edge">
<title>Node9&#45;&gt;Node10</title>
<path fill="none" stroke="midnightblue" d="M276.16,-324.49C304.43,-315.41 345.28,-300.62 356,-288 404.78,-230.56 362.57,-191.02 395,-123 399.79,-112.95 406.83,-103.01 413.62,-94.64"/>
<polygon fill="midnightblue" stroke="midnightblue" points="416.42,-96.74 420.22,-86.85 411.09,-92.21 416.42,-96.74"/>
</g>
<!-- Node11 -->
<g id="node11" class="node">
<title>Node11</title>
<g id="a_node11"><a xlink:href="JUTXfb_8h.html" target="_top" xlink:title=" ">
<polygon fill="white" stroke="black" points="222.5,-257.5 222.5,-287.5 347.5,-287.5 347.5,-257.5 222.5,-257.5"/>
<text text-anchor="start" x="230.5" y="-275.5" font-family="Helvetica,sans-Serif" font-size="10.00">JSystem/JUtility/JUTXfb</text>
<text text-anchor="middle" x="285" y="-264.5" font-family="Helvetica,sans-Serif" font-size="10.00">/JUTXfb.h</text>
</a>
</g>
</g>
<!-- Node9&#45;&gt;Node11 -->
<g id="edge15" class="edge">
<title>Node9&#45;&gt;Node11</title>
<path fill="none" stroke="midnightblue" d="M253.3,-324.48C257.89,-317.09 264.74,-306.08 270.9,-296.17"/>
<polygon fill="midnightblue" stroke="midnightblue" points="273.97,-297.86 276.28,-287.52 268.03,-294.17 273.97,-297.86"/>
</g>
<!-- Node15 -->
<g id="node15" class="node">
<title>Node15</title>
<g id="a_node15"><a xlink:href="mtx__vec_8h.html" target="_top" xlink:title=" ">
<polygon fill="white" stroke="black" points="194.5,-129 194.5,-148 255.5,-148 255.5,-129 194.5,-129"/>
<text text-anchor="middle" x="225" y="-136" font-family="Helvetica,sans-Serif" font-size="10.00">mtx_vec.h</text>
</a>
</g>
</g>
<!-- Node9&#45;&gt;Node15 -->
<g id="edge25" class="edge">
<title>Node9&#45;&gt;Node15</title>
<path fill="none" stroke="midnightblue" d="M238.44,-324.45C229.91,-316.12 218.01,-302.6 213,-288 197.66,-243.29 210.34,-186.74 218.85,-158.04"/>
<polygon fill="midnightblue" stroke="midnightblue" points="222.29,-158.76 221.94,-148.17 215.61,-156.67 222.29,-158.76"/>
</g>
<!-- Node10&#45;&gt;Node3 -->
<g id="edge14" class="edge">
<title>Node10&#45;&gt;Node3</title>
<path fill="none" stroke="midnightblue" d="M385.91,-56.47C350.26,-46.08 302.27,-32.08 268.99,-22.37"/>
<polygon fill="midnightblue" stroke="midnightblue" points="269.74,-18.95 259.16,-19.51 267.78,-25.67 269.74,-18.95"/>
</g>
<!-- Node11&#45;&gt;Node3 -->
<g id="edge22" class="edge">
<title>Node11&#45;&gt;Node3</title>
<path fill="none" stroke="midnightblue" d="M293.08,-257.4C312.75,-221.04 358.59,-122.35 318,-56 308.49,-40.46 291.74,-30.07 275.38,-23.23"/>
<polygon fill="midnightblue" stroke="midnightblue" points="276.44,-19.89 265.85,-19.6 273.95,-26.43 276.44,-19.89"/>
</g>
<!-- Node12 -->
<g id="node12" class="node">
<title>Node12</title>
<g id="a_node12"><a xlink:href="JKRHeap_8h.html" target="_top" xlink:title=" ">
<polygon fill="white" stroke="black" points="408,-190.5 408,-220.5 544,-220.5 544,-190.5 408,-190.5"/>
<text text-anchor="start" x="416" y="-208.5" font-family="Helvetica,sans-Serif" font-size="10.00">JSystem/JKernel/JKRHeap</text>
<text text-anchor="middle" x="476" y="-197.5" font-family="Helvetica,sans-Serif" font-size="10.00">/JKRHeap.h</text>
</a>
</g>
</g>
<!-- Node11&#45;&gt;Node12 -->
<g id="edge16" class="edge">
<title>Node11&#45;&gt;Node12</title>
<path fill="none" stroke="midnightblue" d="M326.44,-257.4C355.35,-247.56 394.11,-234.37 424.93,-223.88"/>
<polygon fill="midnightblue" stroke="midnightblue" points="426.3,-227.11 434.64,-220.58 424.04,-220.48 426.3,-227.11"/>
</g>
<!-- Node14 -->
<g id="node14" class="node">
<title>Node14</title>
<g id="a_node14"><a xlink:href="GX_8h.html" target="_top" xlink:title=" ">
<polygon fill="white" stroke="black" points="258.5,-62 258.5,-81 309.5,-81 309.5,-62 258.5,-62"/>
<text text-anchor="middle" x="284" y="-69" font-family="Helvetica,sans-Serif" font-size="10.00">gx/GX.h</text>
</a>
</g>
</g>
<!-- Node11&#45;&gt;Node14 -->
<g id="edge23" class="edge">
<title>Node11&#45;&gt;Node14</title>
<path fill="none" stroke="midnightblue" d="M284.93,-257.19C284.75,-221.99 284.29,-131.17 284.1,-91.51"/>
<polygon fill="midnightblue" stroke="midnightblue" points="287.59,-91.34 284.04,-81.36 280.59,-91.38 287.59,-91.34"/>
</g>
<!-- Node12&#45;&gt;Node2 -->
<g id="edge21" class="edge">
<title>Node12&#45;&gt;Node2</title>
<path fill="none" stroke="midnightblue" d="M463.25,-220.63C447.24,-237.87 418.42,-267.27 390,-288 309,-347.1 277.55,-343.91 184,-380 182.35,-380.64 180.67,-381.3 178.97,-381.98"/>
<polygon fill="midnightblue" stroke="midnightblue" points="177.22,-378.92 169.32,-385.98 179.9,-385.39 177.22,-378.92"/>
</g>
<!-- Node12&#45;&gt;Node3 -->
<g id="edge20" class="edge">
<title>Node12&#45;&gt;Node3</title>
<path fill="none" stroke="midnightblue" d="M520.23,-190.44C537.35,-182.59 555.17,-170.89 565,-154 588.43,-113.77 566.21,-82.6 528,-56 488.93,-28.81 354.87,-17.54 280.58,-13.29"/>
<polygon fill="midnightblue" stroke="midnightblue" points="280.69,-9.79 270.51,-12.74 280.3,-16.78 280.69,-9.79"/>
</g>
<!-- Node13 -->
<g id="node13" class="node">
<title>Node13</title>
<g id="a_node13"><a xlink:href="JKRDisposer_8h.html" target="_top" xlink:title=" ">
<polygon fill="white" stroke="black" points="404.5,-123.5 404.5,-153.5 555.5,-153.5 555.5,-123.5 404.5,-123.5"/>
<text text-anchor="start" x="412.5" y="-141.5" font-family="Helvetica,sans-Serif" font-size="10.00">JSystem/JKernel/JKRDisposer</text>
<text text-anchor="middle" x="480" y="-130.5" font-family="Helvetica,sans-Serif" font-size="10.00">/JKRDisposer.h</text>
</a>
</g>
</g>
<!-- Node12&#45;&gt;Node13 -->
<g id="edge17" class="edge">
<title>Node12&#45;&gt;Node13</title>
<path fill="none" stroke="midnightblue" d="M476.87,-190.4C477.35,-182.56 477.96,-172.6 478.52,-163.57"/>
<polygon fill="midnightblue" stroke="midnightblue" points="482.01,-163.77 479.13,-153.58 475.03,-163.34 482.01,-163.77"/>
</g>
<!-- Node13&#45;&gt;Node3 -->
<g id="edge19" class="edge">
<title>Node13&#45;&gt;Node3</title>
<path fill="none" stroke="midnightblue" d="M493.28,-123.33C508.09,-105.79 527.89,-75.81 511,-56 482.01,-22 353.74,-13.58 280.93,-11.57"/>
<polygon fill="midnightblue" stroke="midnightblue" points="280.69,-8.06 270.61,-11.31 280.52,-15.06 280.69,-8.06"/>
</g>
<!-- Node13&#45;&gt;Node10 -->
<g id="edge18" class="edge">
<title>Node13&#45;&gt;Node10</title>
<path fill="none" stroke="midnightblue" d="M470.02,-123.4C464.11,-115.05 456.5,-104.29 449.79,-94.81"/>
<polygon fill="midnightblue" stroke="midnightblue" points="452.6,-92.72 443.96,-86.58 446.88,-96.76 452.6,-92.72"/>
</g>
<!-- Node14&#45;&gt;Node3 -->
<g id="edge24" class="edge">
<title>Node14&#45;&gt;Node3</title>
<path fill="none" stroke="midnightblue" d="M276.26,-61.98C268,-52.87 254.72,-38.24 244.51,-26.98"/>
<polygon fill="midnightblue" stroke="midnightblue" points="247.03,-24.56 237.72,-19.51 241.85,-29.27 247.03,-24.56"/>
</g>
<!-- Node15&#45;&gt;Node3 -->
<g id="edge26" class="edge">
<title>Node15&#45;&gt;Node3</title>
<path fill="none" stroke="midnightblue" d="M225.34,-128.81C226.15,-108.49 228.16,-57.55 229.26,-29.78"/>
<polygon fill="midnightblue" stroke="midnightblue" points="232.76,-29.89 229.65,-19.76 225.76,-29.61 232.76,-29.89"/>
</g>
</g>
</svg>
        <g id="navigator" transform="translate(0 0)" fill="#404254">
                <rect fill="#f2f5e9" fill-opacity="0.5" stroke="#606060" stroke-width=".5" x="0" y="0" width="60" height="60"/>
                <use id="zoomplus" xlink:href="#zoomPlus" x="17" y="9" onmousedown="handleZoom(evt,'in')"/>
                <use id="zoomminus" xlink:href="#zoomMin" x="42" y="9" onmousedown="handleZoom(evt,'out')"/>
                <use id="reset" xlink:href="#resetDef" x="30" y="36" onmousedown="handleReset()"/>
                <g id="arrowUp" xlink:href="#dirArrow" transform="translate(30 24)" onmousedown="handlePan(0,-1)">
                  <use xlink:href="#rim" fill="#404040">
                        <set attributeName="fill" to="#808080" begin="arrowUp.mouseover" end="arrowUp.mouseout"/>
                  </use>
                  <path fill="none" stroke="white" stroke-width="1.5" d="M0,-3.0v7 M-2.5,-0.5L0,-3.0L2.5,-0.5"/>
                </g>
                <g id="arrowRight" xlink:href="#dirArrow" transform="rotate(90) translate(36 -43)" onmousedown="handlePan(1,0)">
                  <use xlink:href="#rim" fill="#404040">
                        <set attributeName="fill" to="#808080" begin="arrowRight.mouseover" end="arrowRight.mouseout"/>
                  </use>
                  <path fill="none" stroke="white" stroke-width="1.5" d="M0,-3.0v7 M-2.5,-0.5L0,-3.0L2.5,-0.5"/>
                </g>
                <g id="arrowDown" xlink:href="#dirArrow" transform="rotate(180) translate(-30 -48)" onmousedown="handlePan(0,1)">
                  <use xlink:href="#rim" fill="#404040">
                        <set attributeName="fill" to="#808080" begin="arrowDown.mouseover" end="arrowDown.mouseout"/>
                  </use>
                  <path fill="none" stroke="white" stroke-width="1.5" d="M0,-3.0v7 M-2.5,-0.5L0,-3.0L2.5,-0.5"/>
                </g>
                <g id="arrowLeft" xlink:href="#dirArrow" transform="rotate(270) translate(-36 17)" onmousedown="handlePan(-1,0)">
                  <use xlink:href="#rim" fill="#404040">
                        <set attributeName="fill" to="#808080" begin="arrowLeft.mouseover" end="arrowLeft.mouseout"/>
                  </use>
                  <path fill="none" stroke="white" stroke-width="1.5" d="M0,-3.0v7 M-2.5,-0.5L0,-3.0L2.5,-0.5"/>
                </g>
        </g>
        <svg viewBox="0 0 15 15" width="100%" height="30px" preserveAspectRatio="xMaxYMin meet">
         <g id="arrow_out" transform="scale(0.3 0.3)">
          <a xlink:href="f__op__overlap_8cpp__incl_org.svg" target="_base">
           <rect id="button" ry="5" rx="5" y="6" x="6" height="38" width="38"
                fill="#f2f5e9" fill-opacity="0.5" stroke="#606060" stroke-width="1.0"/>
           <path id="arrow"
             d="M 11.500037,31.436501 C 11.940474,20.09759 22.043105,11.32322 32.158766,21.979434 L 37.068811,17.246167 C 37.068811,17.246167 37.088388,32 37.088388,32 L 22.160133,31.978069 C 22.160133,31.978069 26.997745,27.140456 26.997745,27.140456 C 18.528582,18.264221 13.291696,25.230495 11.500037,31.436501 z"
             style="fill:#404040;"/>
          </a>
         </g>
        </svg>
</svg>
