<?xml version="1.0" encoding="UTF-8" standalone="no"?>
<!DOCTYPE svg PUBLIC "-//W3C//DTD SVG 1.1//EN"
 "http://www.w3.org/Graphics/SVG/1.1/DTD/svg11.dtd">
<!-- Generated by graphviz version 2.46.0 (20210122.1329)
 -->
<!-- Title: include/f/f_pc/f_pc_create_tag.h Pages: 1 -->
<svg width="800pt" height="699pt"
 viewBox="0.00 0.00 800.00 699.00" xmlns="http://www.w3.org/2000/svg" xmlns:xlink="http://www.w3.org/1999/xlink">
<g id="graph0" class="graph" transform="scale(1 1) rotate(0) translate(4 695)">
<title>include/f/f_pc/f_pc_create_tag.h</title>
<polygon fill="white" stroke="transparent" points="-4,4 -4,-695 796,-695 796,4 -4,4"/>
<!-- Node1 -->
<g id="node1" class="node">
<title>Node1</title>
<g id="a_node1"><a xlink:title=" ">
<polygon fill="#bfbfbf" stroke="black" points="230.5,-660.5 230.5,-690.5 327.5,-690.5 327.5,-660.5 230.5,-660.5"/>
<text text-anchor="start" x="238.5" y="-678.5" font-family="Helvetica,sans-Serif" font-size="10.00">include/f/f_pc/f_pc</text>
<text text-anchor="middle" x="279" y="-667.5" font-family="Helvetica,sans-Serif" font-size="10.00">_create_tag.h</text>
</a>
</g>
</g>
<!-- Node2 -->
<g id="node2" class="node">
<title>Node2</title>
<g id="a_node2"><a xlink:href="c__tag_8h.html" target="_top" xlink:title=" ">
<polygon fill="white" stroke="black" points="286.5,-604.5 286.5,-623.5 393.5,-623.5 393.5,-604.5 286.5,-604.5"/>
<text text-anchor="middle" x="340" y="-611.5" font-family="Helvetica,sans-Serif" font-size="10.00">SComponent/c_tag.h</text>
</a>
</g>
</g>
<!-- Node1&#45;&gt;Node2 -->
<g id="edge1" class="edge">
<title>Node1&#45;&gt;Node2</title>
<path fill="none" stroke="midnightblue" d="M293.46,-660.4C302.59,-651.49 314.42,-639.95 323.86,-630.74"/>
<polygon fill="midnightblue" stroke="midnightblue" points="326.41,-633.15 331.12,-623.66 321.52,-628.13 326.41,-633.15"/>
</g>
<!-- Node5 -->
<g id="node5" class="node">
<title>Node5</title>
<g id="a_node5"><a xlink:href="global_8h.html" target="_top" xlink:title=" ">
<polygon fill="white" stroke="black" points="280,-380.5 280,-399.5 330,-399.5 330,-380.5 280,-380.5"/>
<text text-anchor="middle" x="305" y="-387.5" font-family="Helvetica,sans-Serif" font-size="10.00">global.h</text>
</a>
</g>
</g>
<!-- Node1&#45;&gt;Node5 -->
<g id="edge42" class="edge">
<title>Node1&#45;&gt;Node5</title>
<path fill="none" stroke="midnightblue" d="M265.98,-660.42C248.33,-639.8 219,-599.45 219,-559 219,-559 219,-559 219,-501 219,-470.9 220.22,-460.29 238,-436 247.82,-422.59 262.92,-411.94 276.31,-404.38"/>
<polygon fill="midnightblue" stroke="midnightblue" points="278.03,-407.43 285.21,-399.64 274.74,-401.25 278.03,-407.43"/>
</g>
<!-- Node3 -->
<g id="node3" class="node">
<title>Node3</title>
<g id="a_node3"><a xlink:href="c__list_8h.html" target="_top" xlink:title=" ">
<polygon fill="white" stroke="black" points="325.5,-492.5 325.5,-511.5 432.5,-511.5 432.5,-492.5 325.5,-492.5"/>
<text text-anchor="middle" x="379" y="-499.5" font-family="Helvetica,sans-Serif" font-size="10.00">SComponent/c_list.h</text>
</a>
</g>
</g>
<!-- Node2&#45;&gt;Node3 -->
<g id="edge2" class="edge">
<title>Node2&#45;&gt;Node3</title>
<path fill="none" stroke="midnightblue" d="M361.48,-604.36C376.39,-597.09 395.11,-585.12 404,-568 412.15,-552.31 402.83,-533.33 393.34,-519.94"/>
<polygon fill="midnightblue" stroke="midnightblue" points="395.84,-517.45 386.95,-511.68 390.3,-521.73 395.84,-517.45"/>
</g>
<!-- Node4 -->
<g id="node4" class="node">
<title>Node4</title>
<g id="a_node4"><a xlink:href="c__node_8h.html" target="_top" xlink:title=" ">
<polygon fill="white" stroke="black" points="247.5,-436.5 247.5,-455.5 362.5,-455.5 362.5,-436.5 247.5,-436.5"/>
<text text-anchor="middle" x="305" y="-443.5" font-family="Helvetica,sans-Serif" font-size="10.00">SComponent/c_node.h</text>
</a>
</g>
</g>
<!-- Node2&#45;&gt;Node4 -->
<g id="edge37" class="edge">
<title>Node2&#45;&gt;Node4</title>
<path fill="none" stroke="midnightblue" d="M318.52,-604.36C303.61,-597.09 284.89,-585.12 276,-568 258.25,-533.81 279.3,-488.54 293.71,-464.22"/>
<polygon fill="midnightblue" stroke="midnightblue" points="296.69,-466.05 298.99,-455.71 290.74,-462.36 296.69,-466.05"/>
</g>
<!-- Node2&#45;&gt;Node5 -->
<g id="edge41" class="edge">
<title>Node2&#45;&gt;Node5</title>
<path fill="none" stroke="midnightblue" d="M363.51,-604.5C380.87,-597.17 403.99,-585.07 419,-568 442.31,-541.5 457.4,-523.75 442,-492 420.76,-448.2 370.12,-418.95 336.72,-403.66"/>
<polygon fill="midnightblue" stroke="midnightblue" points="337.94,-400.37 327.38,-399.54 335.12,-406.77 337.94,-400.37"/>
</g>
<!-- Node22 -->
<g id="node22" class="node">
<title>Node22</title>
<g id="a_node22"><a xlink:href="c__tree_8h.html" target="_top" xlink:title=" ">
<polygon fill="white" stroke="black" points="285,-548.5 285,-567.5 395,-567.5 395,-548.5 285,-548.5"/>
<text text-anchor="middle" x="340" y="-555.5" font-family="Helvetica,sans-Serif" font-size="10.00">SComponent/c_tree.h</text>
</a>
</g>
</g>
<!-- Node2&#45;&gt;Node22 -->
<g id="edge38" class="edge">
<title>Node2&#45;&gt;Node22</title>
<path fill="none" stroke="midnightblue" d="M340,-604.08C340,-597.01 340,-586.86 340,-577.99"/>
<polygon fill="midnightblue" stroke="midnightblue" points="343.5,-577.75 340,-567.75 336.5,-577.75 343.5,-577.75"/>
</g>
<!-- Node3&#45;&gt;Node4 -->
<g id="edge3" class="edge">
<title>Node3&#45;&gt;Node4</title>
<path fill="none" stroke="midnightblue" d="M367.11,-492.32C355.85,-484.11 338.71,-471.6 325.29,-461.81"/>
<polygon fill="midnightblue" stroke="midnightblue" points="327.25,-458.9 317.11,-455.83 323.12,-464.56 327.25,-458.9"/>
</g>
<!-- Node4&#45;&gt;Node5 -->
<g id="edge4" class="edge">
<title>Node4&#45;&gt;Node5</title>
<path fill="none" stroke="midnightblue" d="M305,-436.08C305,-429.01 305,-418.86 305,-409.99"/>
<polygon fill="midnightblue" stroke="midnightblue" points="308.5,-409.75 305,-399.75 301.5,-409.75 308.5,-409.75"/>
</g>
<!-- Node6 -->
<g id="node6" class="node">
<title>Node6</title>
<g id="a_node6"><a xlink:href="types_8h.html" target="_top" xlink:title=" ">
<polygon fill="white" stroke="black" points="225.5,-0.5 225.5,-19.5 306.5,-19.5 306.5,-0.5 225.5,-0.5"/>
<text text-anchor="middle" x="266" y="-7.5" font-family="Helvetica,sans-Serif" font-size="10.00">dolphin/types.h</text>
</a>
</g>
</g>
<!-- Node5&#45;&gt;Node6 -->
<g id="edge5" class="edge">
<title>Node5&#45;&gt;Node6</title>
<path fill="none" stroke="midnightblue" d="M279.83,-388.49C236.05,-386.67 144.06,-378.65 76,-344 34.94,-323.1 0,-319.57 0,-273.5 0,-273.5 0,-273.5 0,-137.5 0,-96.55 10.2,-80.53 43,-56 69.7,-36.03 158.2,-22.82 215.36,-16.15"/>
<polygon fill="midnightblue" stroke="midnightblue" points="215.76,-19.63 225.29,-15.02 214.96,-12.67 215.76,-19.63"/>
</g>
<!-- Node7 -->
<g id="node7" class="node">
<title>Node7</title>
<g id="a_node7"><a xlink:href="AR_8h.html" target="_top" xlink:title=" ">
<polygon fill="white" stroke="black" points="30.5,-129 30.5,-148 79.5,-148 79.5,-129 30.5,-129"/>
<text text-anchor="middle" x="55" y="-136" font-family="Helvetica,sans-Serif" font-size="10.00">ar/AR.h</text>
</a>
</g>
</g>
<!-- Node5&#45;&gt;Node7 -->
<g id="edge6" class="edge">
<title>Node5&#45;&gt;Node7</title>
<path fill="none" stroke="midnightblue" d="M279.64,-387C229.54,-382.53 120.54,-370 95,-344 44.83,-292.92 48.33,-198.58 52.5,-158.41"/>
<polygon fill="midnightblue" stroke="midnightblue" points="55.98,-158.73 53.67,-148.39 49.03,-157.92 55.98,-158.73"/>
</g>
<!-- Node8 -->
<g id="node8" class="node">
<title>Node8</title>
<g id="a_node8"><a xlink:href="ARQ_8h.html" target="_top" xlink:title=" ">
<polygon fill="white" stroke="black" points="66,-62 66,-81 122,-81 122,-62 66,-62"/>
<text text-anchor="middle" x="94" y="-69" font-family="Helvetica,sans-Serif" font-size="10.00">ar/ARQ.h</text>
</a>
</g>
</g>
<!-- Node5&#45;&gt;Node8 -->
<g id="edge8" class="edge">
<title>Node5&#45;&gt;Node8</title>
<path fill="none" stroke="midnightblue" d="M279.78,-386C226.84,-378.16 109,-351.9 109,-273.5 109,-273.5 109,-273.5 109,-204.5 109,-163.9 101.91,-116.72 97.48,-91.21"/>
<polygon fill="midnightblue" stroke="midnightblue" points="100.88,-90.33 95.66,-81.11 93.99,-91.57 100.88,-90.33"/>
</g>
<!-- Node9 -->
<g id="node9" class="node">
<title>Node9</title>
<g id="a_node9"><a xlink:href="functions_8h.html" target="_top" xlink:title=" ">
<polygon fill="white" stroke="black" points="194,-324.5 194,-343.5 258,-343.5 258,-324.5 194,-324.5"/>
<text text-anchor="middle" x="226" y="-331.5" font-family="Helvetica,sans-Serif" font-size="10.00">functions.h</text>
</a>
</g>
</g>
<!-- Node5&#45;&gt;Node9 -->
<g id="edge10" class="edge">
<title>Node5&#45;&gt;Node9</title>
<path fill="none" stroke="midnightblue" d="M292.31,-380.32C280.1,-371.98 261.42,-359.21 247,-349.35"/>
<polygon fill="midnightblue" stroke="midnightblue" points="248.89,-346.41 238.66,-343.65 244.94,-352.19 248.89,-346.41"/>
</g>
<!-- Node11 -->
<g id="node11" class="node">
<title>Node11</title>
<g id="a_node11"><a xlink:href="mwcc_8h.html" target="_top" xlink:title=" ">
<polygon fill="white" stroke="black" points="290,-263 290,-282 340,-282 340,-263 290,-263"/>
<text text-anchor="middle" x="315" y="-270" font-family="Helvetica,sans-Serif" font-size="10.00">mwcc.h</text>
</a>
</g>
</g>
<!-- Node5&#45;&gt;Node11 -->
<g id="edge18" class="edge">
<title>Node5&#45;&gt;Node11</title>
<path fill="none" stroke="midnightblue" d="M305.75,-380.32C307.36,-361.76 311.16,-317.84 313.36,-292.47"/>
<polygon fill="midnightblue" stroke="midnightblue" points="316.86,-292.55 314.24,-282.28 309.89,-291.94 316.86,-292.55"/>
</g>
<!-- Node12 -->
<g id="node12" class="node">
<title>Node12</title>
<g id="a_node12"><a xlink:href="OS_8h.html" target="_top" xlink:title=" ">
<polygon fill="white" stroke="black" points="214,-263 214,-282 266,-282 266,-263 214,-263"/>
<text text-anchor="middle" x="240" y="-270" font-family="Helvetica,sans-Serif" font-size="10.00">os/OS.h</text>
</a>
</g>
</g>
<!-- Node5&#45;&gt;Node12 -->
<g id="edge19" class="edge">
<title>Node5&#45;&gt;Node12</title>
<path fill="none" stroke="midnightblue" d="M300.11,-380.32C289.48,-361.42 264.06,-316.25 249.92,-291.12"/>
<polygon fill="midnightblue" stroke="midnightblue" points="252.9,-289.28 244.94,-282.28 246.8,-292.71 252.9,-289.28"/>
</g>
<!-- Node14 -->
<g id="node14" class="node">
<title>Node14</title>
<g id="a_node14"><a xlink:href="variables_8h.html" target="_top" xlink:title=" ">
<polygon fill="white" stroke="black" points="494.5,-324.5 494.5,-343.5 557.5,-343.5 557.5,-324.5 494.5,-324.5"/>
<text text-anchor="middle" x="526" y="-331.5" font-family="Helvetica,sans-Serif" font-size="10.00">variables.h</text>
</a>
</g>
</g>
<!-- Node5&#45;&gt;Node14 -->
<g id="edge20" class="edge">
<title>Node5&#45;&gt;Node14</title>
<path fill="none" stroke="midnightblue" d="M330.35,-382.81C367.98,-373.61 439.04,-356.25 484.37,-345.17"/>
<polygon fill="midnightblue" stroke="midnightblue" points="485.31,-348.55 494.19,-342.77 483.65,-341.75 485.31,-348.55"/>
</g>
<!-- Node7&#45;&gt;Node6 -->
<g id="edge7" class="edge">
<title>Node7&#45;&gt;Node6</title>
<path fill="none" stroke="midnightblue" d="M52.06,-128.69C47.21,-112.31 39.67,-76.93 57,-56 76.83,-32.05 160.25,-20.17 215.51,-14.82"/>
<polygon fill="midnightblue" stroke="midnightblue" points="215.85,-18.31 225.48,-13.9 215.2,-11.34 215.85,-18.31"/>
</g>
<!-- Node8&#45;&gt;Node6 -->
<g id="edge9" class="edge">
<title>Node8&#45;&gt;Node6</title>
<path fill="none" stroke="midnightblue" d="M118.64,-61.98C148.28,-51.72 198.18,-34.46 231.6,-22.9"/>
<polygon fill="midnightblue" stroke="midnightblue" points="233.1,-26.09 241.4,-19.51 230.81,-19.47 233.1,-26.09"/>
</g>
<!-- Node10 -->
<g id="node10" class="node">
<title>Node10</title>
<g id="a_node10"><a xlink:href="mtx__vec_8h.html" target="_top" xlink:title=" ">
<polygon fill="white" stroke="black" points="137.5,-129 137.5,-148 198.5,-148 198.5,-129 137.5,-129"/>
<text text-anchor="middle" x="168" y="-136" font-family="Helvetica,sans-Serif" font-size="10.00">mtx_vec.h</text>
</a>
</g>
</g>
<!-- Node9&#45;&gt;Node10 -->
<g id="edge11" class="edge">
<title>Node9&#45;&gt;Node10</title>
<path fill="none" stroke="midnightblue" d="M221.3,-324.25C216.66,-315.33 209.61,-301 205,-288 188.86,-242.43 176.97,-186.63 171.45,-158.16"/>
<polygon fill="midnightblue" stroke="midnightblue" points="174.83,-157.21 169.53,-148.04 167.95,-158.52 174.83,-157.21"/>
</g>
<!-- Node9&#45;&gt;Node11 -->
<g id="edge13" class="edge">
<title>Node9&#45;&gt;Node11</title>
<path fill="none" stroke="midnightblue" d="M238.75,-324.48C253.03,-314.93 276.4,-299.31 293.51,-287.87"/>
<polygon fill="midnightblue" stroke="midnightblue" points="295.9,-290.48 302.27,-282.01 292.01,-284.66 295.9,-290.48"/>
</g>
<!-- Node9&#45;&gt;Node12 -->
<g id="edge14" class="edge">
<title>Node9&#45;&gt;Node12</title>
<path fill="none" stroke="midnightblue" d="M228.01,-324.48C230,-315.99 233.13,-302.7 235.69,-291.82"/>
<polygon fill="midnightblue" stroke="midnightblue" points="239.11,-292.54 238,-282.01 232.3,-290.94 239.11,-292.54"/>
</g>
<!-- Node10&#45;&gt;Node6 -->
<g id="edge12" class="edge">
<title>Node10&#45;&gt;Node6</title>
<path fill="none" stroke="midnightblue" d="M165.32,-128.79C160.99,-112.89 154.32,-78.69 169,-56 179.55,-39.69 197.68,-29.2 215.43,-22.49"/>
<polygon fill="midnightblue" stroke="midnightblue" points="216.88,-25.69 225.2,-19.14 214.61,-19.07 216.88,-25.69"/>
</g>
<!-- Node12&#45;&gt;Node6 -->
<g id="edge15" class="edge">
<title>Node12&#45;&gt;Node6</title>
<path fill="none" stroke="midnightblue" d="M240.87,-262.83C244.54,-225.98 258.93,-81.83 264.12,-29.83"/>
<polygon fill="midnightblue" stroke="midnightblue" points="267.62,-30 265.13,-19.7 260.66,-29.3 267.62,-30"/>
</g>
<!-- Node13 -->
<g id="node13" class="node">
<title>Node13</title>
<g id="a_node13"><a xlink:href="dvd_8h.html" target="_top" xlink:title=" ">
<polygon fill="white" stroke="black" points="178.5,-62 178.5,-81 237.5,-81 237.5,-62 178.5,-62"/>
<text text-anchor="middle" x="208" y="-69" font-family="Helvetica,sans-Serif" font-size="10.00">dvd/dvd.h</text>
</a>
</g>
</g>
<!-- Node12&#45;&gt;Node13 -->
<g id="edge16" class="edge">
<title>Node12&#45;&gt;Node13</title>
<path fill="none" stroke="midnightblue" d="M238.62,-262.95C233.83,-233.1 217.74,-133.08 211.01,-91.2"/>
<polygon fill="midnightblue" stroke="midnightblue" points="214.45,-90.56 209.41,-81.24 207.54,-91.67 214.45,-90.56"/>
</g>
<!-- Node13&#45;&gt;Node6 -->
<g id="edge17" class="edge">
<title>Node13&#45;&gt;Node6</title>
<path fill="none" stroke="midnightblue" d="M216.31,-61.98C225.18,-52.87 239.45,-38.24 250.42,-26.98"/>
<polygon fill="midnightblue" stroke="midnightblue" points="253.23,-29.11 257.71,-19.51 248.22,-24.23 253.23,-29.11"/>
</g>
<!-- Node15 -->
<g id="node15" class="node">
<title>Node15</title>
<g id="a_node15"><a xlink:href="JSUList_8h.html" target="_top" xlink:title=" ">
<polygon fill="white" stroke="black" points="370,-56.5 370,-86.5 506,-86.5 506,-56.5 370,-56.5"/>
<text text-anchor="start" x="378" y="-74.5" font-family="Helvetica,sans-Serif" font-size="10.00">JSystem/JSupport/JSUList</text>
<text text-anchor="middle" x="438" y="-63.5" font-family="Helvetica,sans-Serif" font-size="10.00">/JSUList.h</text>
</a>
</g>
</g>
<!-- Node14&#45;&gt;Node15 -->
<g id="edge21" class="edge">
<title>Node14&#45;&gt;Node15</title>
<path fill="none" stroke="midnightblue" d="M519.26,-324.28C512.99,-315.61 504.02,-301.68 500,-288 479.27,-217.57 522.85,-189.62 492,-123 486.61,-111.35 477.19,-101.1 467.71,-92.93"/>
<polygon fill="midnightblue" stroke="midnightblue" points="469.8,-90.12 459.82,-86.57 465.41,-95.57 469.8,-90.12"/>
</g>
<!-- Node16 -->
<g id="node16" class="node">
<title>Node16</title>
<g id="a_node16"><a xlink:href="JUTXfb_8h.html" target="_top" xlink:title=" ">
<polygon fill="white" stroke="black" points="508.5,-257.5 508.5,-287.5 633.5,-287.5 633.5,-257.5 508.5,-257.5"/>
<text text-anchor="start" x="516.5" y="-275.5" font-family="Helvetica,sans-Serif" font-size="10.00">JSystem/JUtility/JUTXfb</text>
<text text-anchor="middle" x="571" y="-264.5" font-family="Helvetica,sans-Serif" font-size="10.00">/JUTXfb.h</text>
</a>
</g>
</g>
<!-- Node14&#45;&gt;Node16 -->
<g id="edge23" class="edge">
<title>Node14&#45;&gt;Node16</title>
<path fill="none" stroke="midnightblue" d="M532.45,-324.48C538.14,-316.94 546.7,-305.63 554.31,-295.57"/>
<polygon fill="midnightblue" stroke="midnightblue" points="557.15,-297.61 560.39,-287.52 551.57,-293.39 557.15,-297.61"/>
</g>
<!-- Node20 -->
<g id="node20" class="node">
<title>Node20</title>
<g id="a_node20"><a xlink:href="c__xyz_8h.html" target="_top" xlink:title=" ">
<polygon fill="white" stroke="black" points="651.5,-263 651.5,-282 758.5,-282 758.5,-263 651.5,-263"/>
<text text-anchor="middle" x="705" y="-270" font-family="Helvetica,sans-Serif" font-size="10.00">SComponent/c_xyz.h</text>
</a>
</g>
</g>
<!-- Node14&#45;&gt;Node20 -->
<g id="edge33" class="edge">
<title>Node14&#45;&gt;Node20</title>
<path fill="none" stroke="midnightblue" d="M551.65,-324.48C582.62,-314.18 634.87,-296.81 669.65,-285.25"/>
<polygon fill="midnightblue" stroke="midnightblue" points="671.02,-288.48 679.4,-282.01 668.81,-281.84 671.02,-288.48"/>
</g>
<!-- Node15&#45;&gt;Node6 -->
<g id="edge22" class="edge">
<title>Node15&#45;&gt;Node6</title>
<path fill="none" stroke="midnightblue" d="M397.24,-56.4C367.78,-46.21 328.41,-32.59 300.5,-22.93"/>
<polygon fill="midnightblue" stroke="midnightblue" points="301.37,-19.53 290.78,-19.57 299.08,-26.15 301.37,-19.53"/>
</g>
<!-- Node16&#45;&gt;Node6 -->
<g id="edge30" class="edge">
<title>Node16&#45;&gt;Node6</title>
<path fill="none" stroke="midnightblue" d="M569.31,-257.37C563.82,-213.98 545.12,-83.93 515,-56 486.89,-29.93 381.37,-18.49 317.06,-13.85"/>
<polygon fill="midnightblue" stroke="midnightblue" points="316.94,-10.34 306.72,-13.14 316.46,-17.32 316.94,-10.34"/>
</g>
<!-- Node17 -->
<g id="node17" class="node">
<title>Node17</title>
<g id="a_node17"><a xlink:href="JKRHeap_8h.html" target="_top" xlink:title=" ">
<polygon fill="white" stroke="black" points="327,-190.5 327,-220.5 463,-220.5 463,-190.5 327,-190.5"/>
<text text-anchor="start" x="335" y="-208.5" font-family="Helvetica,sans-Serif" font-size="10.00">JSystem/JKernel/JKRHeap</text>
<text text-anchor="middle" x="395" y="-197.5" font-family="Helvetica,sans-Serif" font-size="10.00">/JKRHeap.h</text>
</a>
</g>
</g>
<!-- Node16&#45;&gt;Node17 -->
<g id="edge24" class="edge">
<title>Node16&#45;&gt;Node17</title>
<path fill="none" stroke="midnightblue" d="M532.81,-257.4C506.4,-247.64 471.07,-234.59 442.8,-224.15"/>
<polygon fill="midnightblue" stroke="midnightblue" points="443.71,-220.76 433.11,-220.58 441.28,-227.32 443.71,-220.76"/>
</g>
<!-- Node19 -->
<g id="node19" class="node">
<title>Node19</title>
<g id="a_node19"><a xlink:href="GX_8h.html" target="_top" xlink:title=" ">
<polygon fill="white" stroke="black" points="577.5,-196 577.5,-215 628.5,-215 628.5,-196 577.5,-196"/>
<text text-anchor="middle" x="603" y="-203" font-family="Helvetica,sans-Serif" font-size="10.00">gx/GX.h</text>
</a>
</g>
</g>
<!-- Node16&#45;&gt;Node19 -->
<g id="edge31" class="edge">
<title>Node16&#45;&gt;Node19</title>
<path fill="none" stroke="midnightblue" d="M577.94,-257.4C582.74,-247.66 589.14,-234.65 594.28,-224.21"/>
<polygon fill="midnightblue" stroke="midnightblue" points="597.44,-225.71 598.72,-215.19 591.16,-222.62 597.44,-225.71"/>
</g>
<!-- Node17&#45;&gt;Node5 -->
<g id="edge29" class="edge">
<title>Node17&#45;&gt;Node5</title>
<path fill="none" stroke="midnightblue" d="M388,-220.69C371.83,-253.49 331.89,-334.48 313.96,-370.83"/>
<polygon fill="midnightblue" stroke="midnightblue" points="310.62,-369.68 309.34,-380.2 316.9,-372.78 310.62,-369.68"/>
</g>
<!-- Node17&#45;&gt;Node6 -->
<g id="edge28" class="edge">
<title>Node17&#45;&gt;Node6</title>
<path fill="none" stroke="midnightblue" d="M366.97,-190.44C351.92,-181.7 334.05,-169.23 322,-154 306.1,-133.91 282.51,-63.38 271.74,-29.47"/>
<polygon fill="midnightblue" stroke="midnightblue" points="275.06,-28.35 268.72,-19.86 268.38,-30.45 275.06,-28.35"/>
</g>
<!-- Node18 -->
<g id="node18" class="node">
<title>Node18</title>
<g id="a_node18"><a xlink:href="JKRDisposer_8h.html" target="_top" xlink:title=" ">
<polygon fill="white" stroke="black" points="331.5,-123.5 331.5,-153.5 482.5,-153.5 482.5,-123.5 331.5,-123.5"/>
<text text-anchor="start" x="339.5" y="-141.5" font-family="Helvetica,sans-Serif" font-size="10.00">JSystem/JKernel/JKRDisposer</text>
<text text-anchor="middle" x="407" y="-130.5" font-family="Helvetica,sans-Serif" font-size="10.00">/JKRDisposer.h</text>
</a>
</g>
</g>
<!-- Node17&#45;&gt;Node18 -->
<g id="edge25" class="edge">
<title>Node17&#45;&gt;Node18</title>
<path fill="none" stroke="midnightblue" d="M397.6,-190.4C399.05,-182.56 400.89,-172.6 402.56,-163.57"/>
<polygon fill="midnightblue" stroke="midnightblue" points="406.03,-164.05 404.4,-153.58 399.14,-162.77 406.03,-164.05"/>
</g>
<!-- Node18&#45;&gt;Node6 -->
<g id="edge27" class="edge">
<title>Node18&#45;&gt;Node6</title>
<path fill="none" stroke="midnightblue" d="M391.68,-123.23C374.04,-106.86 344.13,-79.26 318,-56 306.71,-45.95 293.88,-34.84 283.78,-26.17"/>
<polygon fill="midnightblue" stroke="midnightblue" points="285.91,-23.39 276.04,-19.54 281.36,-28.71 285.91,-23.39"/>
</g>
<!-- Node18&#45;&gt;Node15 -->
<g id="edge26" class="edge">
<title>Node18&#45;&gt;Node15</title>
<path fill="none" stroke="midnightblue" d="M413.73,-123.4C417.59,-115.3 422.53,-104.94 426.94,-95.69"/>
<polygon fill="midnightblue" stroke="midnightblue" points="430.14,-97.11 431.29,-86.58 423.82,-94.1 430.14,-97.11"/>
</g>
<!-- Node19&#45;&gt;Node6 -->
<g id="edge32" class="edge">
<title>Node19&#45;&gt;Node6</title>
<path fill="none" stroke="midnightblue" d="M603.62,-195.83C604.95,-170.08 605.02,-93.53 563,-56 527.52,-24.31 391.8,-14.94 316.71,-12.16"/>
<polygon fill="midnightblue" stroke="midnightblue" points="316.65,-8.66 306.53,-11.81 316.41,-15.65 316.65,-8.66"/>
</g>
<!-- Node20&#45;&gt;Node5 -->
<g id="edge36" class="edge">
<title>Node20&#45;&gt;Node5</title>
<path fill="none" stroke="midnightblue" d="M691.5,-282.16C667.47,-297.17 615.25,-327.95 567,-344 488.5,-370.12 391.48,-381.72 340.36,-386.33"/>
<polygon fill="midnightblue" stroke="midnightblue" points="339.83,-382.87 330.17,-387.21 340.44,-389.84 339.83,-382.87"/>
</g>
<!-- Node21 -->
<g id="node21" class="node">
<title>Node21</title>
<g id="a_node21"><a xlink:href="c__math_8h.html" target="_top" xlink:title=" ">
<polygon fill="white" stroke="black" points="676,-196 676,-215 792,-215 792,-196 676,-196"/>
<text text-anchor="middle" x="734" y="-203" font-family="Helvetica,sans-Serif" font-size="10.00">SComponent/c_math.h</text>
</a>
</g>
</g>
<!-- Node20&#45;&gt;Node21 -->
<g id="edge34" class="edge">
<title>Node20&#45;&gt;Node21</title>
<path fill="none" stroke="midnightblue" d="M708.91,-262.73C713.26,-252.99 720.4,-236.98 725.96,-224.53"/>
<polygon fill="midnightblue" stroke="midnightblue" points="729.27,-225.69 730.15,-215.13 722.88,-222.83 729.27,-225.69"/>
</g>
<!-- Node21&#45;&gt;Node5 -->
<g id="edge35" class="edge">
<title>Node21&#45;&gt;Node5</title>
<path fill="none" stroke="midnightblue" d="M742.99,-215.23C758.01,-230.89 784.95,-264.31 768,-288 717.84,-358.13 439.41,-381.13 340.16,-387.16"/>
<polygon fill="midnightblue" stroke="midnightblue" points="339.82,-383.68 330.04,-387.75 340.23,-390.66 339.82,-383.68"/>
</g>
<!-- Node22&#45;&gt;Node3 -->
<g id="edge39" class="edge">
<title>Node22&#45;&gt;Node3</title>
<path fill="none" stroke="midnightblue" d="M346.44,-548.08C351.95,-540.46 360.03,-529.26 366.76,-519.94"/>
<polygon fill="midnightblue" stroke="midnightblue" points="369.66,-521.91 372.68,-511.75 363.99,-517.81 369.66,-521.91"/>
</g>
<!-- Node22&#45;&gt;Node4 -->
<g id="edge40" class="edge">
<title>Node22&#45;&gt;Node4</title>
<path fill="none" stroke="midnightblue" d="M334.63,-548.37C329.37,-539.55 321.52,-525.29 317,-512 311.86,-496.87 308.76,-478.98 307,-465.79"/>
<polygon fill="midnightblue" stroke="midnightblue" points="310.45,-465.13 305.79,-455.61 303.5,-465.96 310.45,-465.13"/>
</g>
</g>
</svg>
