<?xml version="1.0" encoding="UTF-8" standalone="no"?>
<!DOCTYPE svg PUBLIC "-//W3C//DTD SVG 1.1//EN"
 "http://www.w3.org/Graphics/SVG/1.1/DTD/svg11.dtd">
<!-- Generated by graphviz version 2.46.0 (20210122.1329)
 -->
<!-- Title: include/f/f_pc/f_pc_deletor.h Pages: 1 -->
<!--zoomable 889 -->
<svg id="main" version="1.1" xmlns="http://www.w3.org/2000/svg" xmlns:xlink="http://www.w3.org/1999/xlink" xml:space="preserve" onload="init(evt)">
<style type="text/css"><![CDATA[
.edge:hover path { stroke: red; }
.edge:hover polygon { stroke: red; fill: red; }
]]></style>
<script type="text/javascript"><![CDATA[
var edges = document.getElementsByTagName('g');
if (edges && edges.length) {
  for (var i=0;i<edges.length;i++) {
    if (edges[i].id.substr(0,4)=='edge') {
      edges[i].setAttribute('class','edge');
    }
  }
}
]]></script>
        <defs>
                <circle id="rim" cx="0" cy="0" r="7"/>
                <circle id="rim2" cx="0" cy="0" r="3.5"/>
                <g id="zoomPlus">
                        <use xlink:href="#rim" fill="#404040">
                                <set attributeName="fill" to="#808080" begin="zoomplus.mouseover" end="zoomplus.mouseout"/>
                        </use>
                        <path d="M-4,0h8M0,-4v8" fill="none" stroke="white" stroke-width="1.5" pointer-events="none"/>
                </g>
                <g id="zoomMin">
                        <use xlink:href="#rim" fill="#404040">
                                <set attributeName="fill" to="#808080" begin="zoomminus.mouseover" end="zoomminus.mouseout"/>
                        </use>
                        <path d="M-4,0h8" fill="none" stroke="white" stroke-width="1.5" pointer-events="none"/>
                </g>
                <g id="dirArrow">
                        <path fill="none" stroke="white" stroke-width="1.5" d="M0,-3.0v7 M-2.5,-0.5L0,-3.0L2.5,-0.5"/>
                </g>
               <g id="resetDef">
                       <use xlink:href="#rim2" fill="#404040">
                               <set attributeName="fill" to="#808080" begin="reset.mouseover" end="reset.mouseout"/>
                       </use>
               </g>
        </defs>

<script type="text/javascript">
var viewWidth = 832;
var viewHeight = 889;
var sectionId = 'dynsection-0';
</script>
<script xlink:href="svgpan.js"/>
<svg id="graph" class="graph">
<g id="viewport">
<title>include/f/f_pc/f_pc_deletor.h</title>
<polygon fill="white" stroke="transparent" points="-4,4 -4,-885 828,-885 828,4 -4,4"/>
<!-- Node1 -->
<g id="node1" class="node">
<title>Node1</title>
<g id="a_node1"><a xlink:title=" ">
<polygon fill="#bfbfbf" stroke="black" points="255.5,-850.5 255.5,-880.5 352.5,-880.5 352.5,-850.5 255.5,-850.5"/>
<text text-anchor="start" x="263.5" y="-868.5" font-family="Helvetica,sans-Serif" font-size="10.00">include/f/f_pc/f_pc</text>
<text text-anchor="middle" x="304" y="-857.5" font-family="Helvetica,sans-Serif" font-size="10.00">_deletor.h</text>
</a>
</g>
</g>
<!-- Node2 -->
<g id="node2" class="node">
<title>Node2</title>
<g id="a_node2"><a xlink:href="f__pc__base_8h.html" target="_top" xlink:title=" ">
<polygon fill="white" stroke="black" points="255.5,-794.5 255.5,-813.5 352.5,-813.5 352.5,-794.5 255.5,-794.5"/>
<text text-anchor="middle" x="304" y="-801.5" font-family="Helvetica,sans-Serif" font-size="10.00">f/f_pc/f_pc_base.h</text>
</a>
</g>
</g>
<!-- Node1&#45;&gt;Node2 -->
<g id="edge1" class="edge">
<title>Node1&#45;&gt;Node2</title>
<path fill="none" stroke="midnightblue" d="M304,-850.4C304,-842.47 304,-832.46 304,-823.86"/>
<polygon fill="midnightblue" stroke="midnightblue" points="307.5,-823.66 304,-813.66 300.5,-823.66 307.5,-823.66"/>
</g>
<!-- Node3 -->
<g id="node3" class="node">
<title>Node3</title>
<g id="a_node3"><a xlink:href="c__tag_8h.html" target="_top" xlink:title=" ">
<polygon fill="white" stroke="black" points="264.5,-604.5 264.5,-623.5 371.5,-623.5 371.5,-604.5 264.5,-604.5"/>
<text text-anchor="middle" x="318" y="-611.5" font-family="Helvetica,sans-Serif" font-size="10.00">SComponent/c_tag.h</text>
</a>
</g>
</g>
<!-- Node2&#45;&gt;Node3 -->
<g id="edge2" class="edge">
<title>Node2&#45;&gt;Node3</title>
<path fill="none" stroke="midnightblue" d="M304.64,-794.43C306.76,-765.93 313.62,-673.82 316.6,-633.83"/>
<polygon fill="midnightblue" stroke="midnightblue" points="320.11,-633.85 317.36,-623.62 313.13,-633.33 320.11,-633.85"/>
</g>
<!-- Node6 -->
<g id="node6" class="node">
<title>Node6</title>
<g id="a_node6"><a xlink:href="global_8h.html" target="_top" xlink:title=" ">
<polygon fill="white" stroke="black" points="309,-380.5 309,-399.5 359,-399.5 359,-380.5 309,-380.5"/>
<text text-anchor="middle" x="334" y="-387.5" font-family="Helvetica,sans-Serif" font-size="10.00">global.h</text>
</a>
</g>
</g>
<!-- Node2&#45;&gt;Node6 -->
<g id="edge43" class="edge">
<title>Node2&#45;&gt;Node6</title>
<path fill="none" stroke="midnightblue" d="M255.33,-800.13C188.11,-795.28 71.34,-783.4 38,-758 6.21,-733.78 0,-716.47 0,-676.5 0,-676.5 0,-676.5 0,-501 0,-462.87 22.72,-454.62 56,-436 97.03,-413.05 233.27,-399.19 298.54,-393.71"/>
<polygon fill="midnightblue" stroke="midnightblue" points="299.08,-397.18 308.76,-392.87 298.5,-390.2 299.08,-397.18"/>
</g>
<!-- Node24 -->
<g id="node24" class="node">
<title>Node24</title>
<g id="a_node24"><a xlink:href="f__pc__delete__tag_8h.html" target="_top" xlink:title=" ">
<polygon fill="white" stroke="black" points="47.5,-727.5 47.5,-757.5 142.5,-757.5 142.5,-727.5 47.5,-727.5"/>
<text text-anchor="start" x="55.5" y="-745.5" font-family="Helvetica,sans-Serif" font-size="10.00">f/f_pc/f_pc_delete</text>
<text text-anchor="middle" x="95" y="-734.5" font-family="Helvetica,sans-Serif" font-size="10.00">_tag.h</text>
</a>
</g>
</g>
<!-- Node2&#45;&gt;Node24 -->
<g id="edge44" class="edge">
<title>Node2&#45;&gt;Node24</title>
<path fill="none" stroke="midnightblue" d="M274.06,-794.48C242.42,-785.47 191.77,-771.05 152.4,-759.84"/>
<polygon fill="midnightblue" stroke="midnightblue" points="153.23,-756.44 142.65,-757.07 151.31,-763.17 153.23,-756.44"/>
</g>
<!-- Node26 -->
<g id="node26" class="node">
<title>Node26</title>
<g id="a_node26"><a xlink:href="f__pc__layer__tag_8h.html" target="_top" xlink:title=" ">
<polygon fill="white" stroke="black" points="160.5,-733 160.5,-752 275.5,-752 275.5,-733 160.5,-733"/>
<text text-anchor="middle" x="218" y="-740" font-family="Helvetica,sans-Serif" font-size="10.00">f/f_pc/f_pc_layer_tag.h</text>
</a>
</g>
</g>
<!-- Node2&#45;&gt;Node26 -->
<g id="edge52" class="edge">
<title>Node2&#45;&gt;Node26</title>
<path fill="none" stroke="midnightblue" d="M291.68,-794.48C277.88,-784.93 255.3,-769.31 238.77,-757.87"/>
<polygon fill="midnightblue" stroke="midnightblue" points="240.51,-754.82 230.3,-752.01 236.53,-760.58 240.51,-754.82"/>
</g>
<!-- Node27 -->
<g id="node27" class="node">
<title>Node27</title>
<g id="a_node27"><a xlink:href="f__pc__line__tag_8h.html" target="_top" xlink:title=" ">
<polygon fill="white" stroke="black" points="490,-666 490,-685 600,-685 600,-666 490,-666"/>
<text text-anchor="middle" x="545" y="-673" font-family="Helvetica,sans-Serif" font-size="10.00">f/f_pc/f_pc_line_tag.h</text>
</a>
</g>
</g>
<!-- Node2&#45;&gt;Node27 -->
<g id="edge56" class="edge">
<title>Node2&#45;&gt;Node27</title>
<path fill="none" stroke="midnightblue" d="M344.2,-794.44C373.32,-787.24 413.03,-775.32 445,-758 477.94,-740.16 510.52,-710.84 529.15,-692.66"/>
<polygon fill="midnightblue" stroke="midnightblue" points="531.84,-694.93 536.46,-685.39 526.9,-689.96 531.84,-694.93"/>
</g>
<!-- Node28 -->
<g id="node28" class="node">
<title>Node28</title>
<g id="a_node28"><a xlink:href="f__pc__priority_8h.html" target="_top" xlink:title=" ">
<polygon fill="white" stroke="black" points="332,-733 332,-752 436,-752 436,-733 332,-733"/>
<text text-anchor="middle" x="384" y="-740" font-family="Helvetica,sans-Serif" font-size="10.00">f/f_pc/f_pc_priority.h</text>
</a>
</g>
</g>
<!-- Node2&#45;&gt;Node28 -->
<g id="edge59" class="edge">
<title>Node2&#45;&gt;Node28</title>
<path fill="none" stroke="midnightblue" d="M315.46,-794.48C328.17,-785.02 348.91,-769.6 364.25,-758.19"/>
<polygon fill="midnightblue" stroke="midnightblue" points="366.62,-760.79 372.56,-752.01 362.45,-755.17 366.62,-760.79"/>
</g>
<!-- Node30 -->
<g id="node30" class="node">
<title>Node30</title>
<g id="a_node30"><a xlink:href="f__pc__profile_8h.html" target="_top" xlink:title=" ">
<polygon fill="white" stroke="black" points="539.5,-492.5 539.5,-511.5 640.5,-511.5 640.5,-492.5 539.5,-492.5"/>
<text text-anchor="middle" x="590" y="-499.5" font-family="Helvetica,sans-Serif" font-size="10.00">f/f_pc/f_pc_profile.h</text>
</a>
</g>
</g>
<!-- Node2&#45;&gt;Node30 -->
<g id="edge64" class="edge">
<title>Node2&#45;&gt;Node30</title>
<path fill="none" stroke="midnightblue" d="M352.51,-794.51C442.89,-777.3 628,-734.92 628,-676.5 628,-676.5 628,-676.5 628,-613 628,-578.81 611.4,-541.76 600.14,-520.57"/>
<polygon fill="midnightblue" stroke="midnightblue" points="603.18,-518.83 595.28,-511.77 597.05,-522.22 603.18,-518.83"/>
</g>
<!-- Node4 -->
<g id="node4" class="node">
<title>Node4</title>
<g id="a_node4"><a xlink:href="c__list_8h.html" target="_top" xlink:title=" ">
<polygon fill="white" stroke="black" points="220.5,-492.5 220.5,-511.5 327.5,-511.5 327.5,-492.5 220.5,-492.5"/>
<text text-anchor="middle" x="274" y="-499.5" font-family="Helvetica,sans-Serif" font-size="10.00">SComponent/c_list.h</text>
</a>
</g>
</g>
<!-- Node3&#45;&gt;Node4 -->
<g id="edge3" class="edge">
<title>Node3&#45;&gt;Node4</title>
<path fill="none" stroke="midnightblue" d="M316.13,-604.38C313.24,-591.73 307.16,-567.53 299,-548 295.04,-538.52 289.59,-528.47 284.79,-520.29"/>
<polygon fill="midnightblue" stroke="midnightblue" points="287.75,-518.42 279.58,-511.67 281.76,-522.04 287.75,-518.42"/>
</g>
<!-- Node5 -->
<g id="node5" class="node">
<title>Node5</title>
<g id="a_node5"><a xlink:href="c__node_8h.html" target="_top" xlink:title=" ">
<polygon fill="white" stroke="black" points="216.5,-436.5 216.5,-455.5 331.5,-455.5 331.5,-436.5 216.5,-436.5"/>
<text text-anchor="middle" x="274" y="-443.5" font-family="Helvetica,sans-Serif" font-size="10.00">SComponent/c_node.h</text>
</a>
</g>
</g>
<!-- Node3&#45;&gt;Node5 -->
<g id="edge38" class="edge">
<title>Node3&#45;&gt;Node5</title>
<path fill="none" stroke="midnightblue" d="M322.8,-604.22C333.46,-583.45 356.65,-530.19 337,-492 329.92,-478.25 316.48,-467.77 303.82,-460.39"/>
<polygon fill="midnightblue" stroke="midnightblue" points="305.31,-457.22 294.85,-455.57 302,-463.39 305.31,-457.22"/>
</g>
<!-- Node3&#45;&gt;Node6 -->
<g id="edge42" class="edge">
<title>Node3&#45;&gt;Node6</title>
<path fill="none" stroke="midnightblue" d="M328.16,-604.19C336.91,-595.87 348.9,-582.54 354,-568 373.4,-512.68 353.1,-442.23 341.26,-409.39"/>
<polygon fill="midnightblue" stroke="midnightblue" points="344.44,-407.9 337.64,-399.78 337.89,-410.37 344.44,-407.9"/>
</g>
<!-- Node23 -->
<g id="node23" class="node">
<title>Node23</title>
<g id="a_node23"><a xlink:href="c__tree_8h.html" target="_top" xlink:title=" ">
<polygon fill="white" stroke="black" points="180,-548.5 180,-567.5 290,-567.5 290,-548.5 180,-548.5"/>
<text text-anchor="middle" x="235" y="-555.5" font-family="Helvetica,sans-Serif" font-size="10.00">SComponent/c_tree.h</text>
</a>
</g>
</g>
<!-- Node3&#45;&gt;Node23 -->
<g id="edge39" class="edge">
<title>Node3&#45;&gt;Node23</title>
<path fill="none" stroke="midnightblue" d="M304.66,-604.32C291.84,-595.98 272.22,-583.21 257.06,-573.35"/>
<polygon fill="midnightblue" stroke="midnightblue" points="258.59,-570.17 248.3,-567.65 254.78,-576.04 258.59,-570.17"/>
</g>
<!-- Node4&#45;&gt;Node5 -->
<g id="edge4" class="edge">
<title>Node4&#45;&gt;Node5</title>
<path fill="none" stroke="midnightblue" d="M274,-492.08C274,-485.01 274,-474.86 274,-465.99"/>
<polygon fill="midnightblue" stroke="midnightblue" points="277.5,-465.75 274,-455.75 270.5,-465.75 277.5,-465.75"/>
</g>
<!-- Node5&#45;&gt;Node6 -->
<g id="edge5" class="edge">
<title>Node5&#45;&gt;Node6</title>
<path fill="none" stroke="midnightblue" d="M283.64,-436.32C292.51,-428.34 305.87,-416.31 316.61,-406.65"/>
<polygon fill="midnightblue" stroke="midnightblue" points="319.09,-409.13 324.18,-399.83 314.41,-403.92 319.09,-409.13"/>
</g>
<!-- Node7 -->
<g id="node7" class="node">
<title>Node7</title>
<g id="a_node7"><a xlink:href="types_8h.html" target="_top" xlink:title=" ">
<polygon fill="white" stroke="black" points="250.5,-0.5 250.5,-19.5 331.5,-19.5 331.5,-0.5 250.5,-0.5"/>
<text text-anchor="middle" x="291" y="-7.5" font-family="Helvetica,sans-Serif" font-size="10.00">dolphin/types.h</text>
</a>
</g>
</g>
<!-- Node6&#45;&gt;Node7 -->
<g id="edge6" class="edge">
<title>Node6&#45;&gt;Node7</title>
<path fill="none" stroke="midnightblue" d="M308.89,-388.7C264.76,-387.2 171.49,-379.67 103,-344 63,-323.16 30,-318.6 30,-273.5 30,-273.5 30,-273.5 30,-137.5 30,-45.16 163.92,-20.2 239.9,-13.47"/>
<polygon fill="midnightblue" stroke="midnightblue" points="240.53,-16.93 250.22,-12.64 239.97,-9.96 240.53,-16.93"/>
</g>
<!-- Node8 -->
<g id="node8" class="node">
<title>Node8</title>
<g id="a_node8"><a xlink:href="AR_8h.html" target="_top" xlink:title=" ">
<polygon fill="white" stroke="black" points="58.5,-129 58.5,-148 107.5,-148 107.5,-129 58.5,-129"/>
<text text-anchor="middle" x="83" y="-136" font-family="Helvetica,sans-Serif" font-size="10.00">ar/AR.h</text>
</a>
</g>
</g>
<!-- Node6&#45;&gt;Node8 -->
<g id="edge7" class="edge">
<title>Node6&#45;&gt;Node8</title>
<path fill="none" stroke="midnightblue" d="M308.77,-387.08C258.37,-382.73 147.8,-370.34 122,-344 71.94,-292.89 75.98,-198.57 80.38,-158.41"/>
<polygon fill="midnightblue" stroke="midnightblue" points="83.87,-158.74 81.62,-148.39 76.92,-157.89 83.87,-158.74"/>
</g>
<!-- Node9 -->
<g id="node9" class="node">
<title>Node9</title>
<g id="a_node9"><a xlink:href="ARQ_8h.html" target="_top" xlink:title=" ">
<polygon fill="white" stroke="black" points="110,-62 110,-81 166,-81 166,-62 110,-62"/>
<text text-anchor="middle" x="138" y="-69" font-family="Helvetica,sans-Serif" font-size="10.00">ar/ARQ.h</text>
</a>
</g>
</g>
<!-- Node6&#45;&gt;Node9 -->
<g id="edge9" class="edge">
<title>Node6&#45;&gt;Node9</title>
<path fill="none" stroke="midnightblue" d="M308.92,-386.15C255.64,-378.56 136,-352.69 136,-273.5 136,-273.5 136,-273.5 136,-204.5 136,-164.15 136.95,-116.88 137.54,-91.28"/>
<polygon fill="midnightblue" stroke="midnightblue" points="141.04,-91.23 137.78,-81.15 134.04,-91.06 141.04,-91.23"/>
</g>
<!-- Node10 -->
<g id="node10" class="node">
<title>Node10</title>
<g id="a_node10"><a xlink:href="functions_8h.html" target="_top" xlink:title=" ">
<polygon fill="white" stroke="black" points="272,-324.5 272,-343.5 336,-343.5 336,-324.5 272,-324.5"/>
<text text-anchor="middle" x="304" y="-331.5" font-family="Helvetica,sans-Serif" font-size="10.00">functions.h</text>
</a>
</g>
</g>
<!-- Node6&#45;&gt;Node10 -->
<g id="edge11" class="edge">
<title>Node6&#45;&gt;Node10</title>
<path fill="none" stroke="midnightblue" d="M329.05,-380.08C324.9,-372.61 318.85,-361.72 313.73,-352.52"/>
<polygon fill="midnightblue" stroke="midnightblue" points="316.78,-350.79 308.86,-343.75 310.66,-354.19 316.78,-350.79"/>
</g>
<!-- Node12 -->
<g id="node12" class="node">
<title>Node12</title>
<g id="a_node12"><a xlink:href="mwcc_8h.html" target="_top" xlink:title=" ">
<polygon fill="white" stroke="black" points="335,-263 335,-282 385,-282 385,-263 335,-263"/>
<text text-anchor="middle" x="360" y="-270" font-family="Helvetica,sans-Serif" font-size="10.00">mwcc.h</text>
</a>
</g>
</g>
<!-- Node6&#45;&gt;Node12 -->
<g id="edge19" class="edge">
<title>Node6&#45;&gt;Node12</title>
<path fill="none" stroke="midnightblue" d="M336.19,-380.39C338.46,-371.35 342.1,-356.7 345,-344 349,-326.48 353.24,-306.43 356.18,-292.2"/>
<polygon fill="midnightblue" stroke="midnightblue" points="359.65,-292.7 358.24,-282.2 352.79,-291.29 359.65,-292.7"/>
</g>
<!-- Node13 -->
<g id="node13" class="node">
<title>Node13</title>
<g id="a_node13"><a xlink:href="OS_8h.html" target="_top" xlink:title=" ">
<polygon fill="white" stroke="black" points="219,-263 219,-282 271,-282 271,-263 219,-263"/>
<text text-anchor="middle" x="245" y="-270" font-family="Helvetica,sans-Serif" font-size="10.00">os/OS.h</text>
</a>
</g>
</g>
<!-- Node6&#45;&gt;Node13 -->
<g id="edge20" class="edge">
<title>Node6&#45;&gt;Node13</title>
<path fill="none" stroke="midnightblue" d="M312.21,-380.46C296.27,-373.12 275.35,-361.01 263,-344 252,-328.85 247.7,-307.61 246.04,-292.41"/>
<polygon fill="midnightblue" stroke="midnightblue" points="249.5,-291.85 245.21,-282.17 242.53,-292.42 249.5,-291.85"/>
</g>
<!-- Node15 -->
<g id="node15" class="node">
<title>Node15</title>
<g id="a_node15"><a xlink:href="variables_8h.html" target="_top" xlink:title=" ">
<polygon fill="white" stroke="black" points="541.5,-324.5 541.5,-343.5 604.5,-343.5 604.5,-324.5 541.5,-324.5"/>
<text text-anchor="middle" x="573" y="-331.5" font-family="Helvetica,sans-Serif" font-size="10.00">variables.h</text>
</a>
</g>
</g>
<!-- Node6&#45;&gt;Node15 -->
<g id="edge21" class="edge">
<title>Node6&#45;&gt;Node15</title>
<path fill="none" stroke="midnightblue" d="M359.13,-383.32C400.16,-374.05 481.97,-355.57 531.66,-344.34"/>
<polygon fill="midnightblue" stroke="midnightblue" points="532.46,-347.75 541.45,-342.13 530.92,-340.92 532.46,-347.75"/>
</g>
<!-- Node8&#45;&gt;Node7 -->
<g id="edge8" class="edge">
<title>Node8&#45;&gt;Node7</title>
<path fill="none" stroke="midnightblue" d="M82.18,-129C81.11,-112.5 81.27,-76.03 101,-56 120.15,-36.55 190.4,-23.76 239.88,-16.95"/>
<polygon fill="midnightblue" stroke="midnightblue" points="240.64,-20.38 250.09,-15.59 239.72,-13.44 240.64,-20.38"/>
</g>
<!-- Node9&#45;&gt;Node7 -->
<g id="edge10" class="edge">
<title>Node9&#45;&gt;Node7</title>
<path fill="none" stroke="midnightblue" d="M159.92,-61.98C186.05,-51.81 229.91,-34.76 259.63,-23.2"/>
<polygon fill="midnightblue" stroke="midnightblue" points="261.07,-26.4 269.12,-19.51 258.53,-19.87 261.07,-26.4"/>
</g>
<!-- Node11 -->
<g id="node11" class="node">
<title>Node11</title>
<g id="a_node11"><a xlink:href="mtx__vec_8h.html" target="_top" xlink:title=" ">
<polygon fill="white" stroke="black" points="260.5,-129 260.5,-148 321.5,-148 321.5,-129 260.5,-129"/>
<text text-anchor="middle" x="291" y="-136" font-family="Helvetica,sans-Serif" font-size="10.00">mtx_vec.h</text>
</a>
</g>
</g>
<!-- Node10&#45;&gt;Node11 -->
<g id="edge12" class="edge">
<title>Node10&#45;&gt;Node11</title>
<path fill="none" stroke="midnightblue" d="M303.42,-324.44C301.47,-295.29 295.03,-199.47 292.27,-158.43"/>
<polygon fill="midnightblue" stroke="midnightblue" points="295.76,-158.15 291.6,-148.41 288.78,-158.62 295.76,-158.15"/>
</g>
<!-- Node10&#45;&gt;Node12 -->
<g id="edge14" class="edge">
<title>Node10&#45;&gt;Node12</title>
<path fill="none" stroke="midnightblue" d="M312.02,-324.48C320.59,-315.37 334.36,-300.74 344.96,-289.48"/>
<polygon fill="midnightblue" stroke="midnightblue" points="347.69,-291.69 351.99,-282.01 342.59,-286.89 347.69,-291.69"/>
</g>
<!-- Node10&#45;&gt;Node13 -->
<g id="edge15" class="edge">
<title>Node10&#45;&gt;Node13</title>
<path fill="none" stroke="midnightblue" d="M295.55,-324.48C286.43,-315.28 271.73,-300.46 260.52,-289.16"/>
<polygon fill="midnightblue" stroke="midnightblue" points="262.96,-286.65 253.44,-282.01 257.99,-291.57 262.96,-286.65"/>
</g>
<!-- Node11&#45;&gt;Node7 -->
<g id="edge13" class="edge">
<title>Node11&#45;&gt;Node7</title>
<path fill="none" stroke="midnightblue" d="M291,-128.81C291,-108.49 291,-57.55 291,-29.78"/>
<polygon fill="midnightblue" stroke="midnightblue" points="294.5,-29.76 291,-19.76 287.5,-29.76 294.5,-29.76"/>
</g>
<!-- Node13&#45;&gt;Node7 -->
<g id="edge16" class="edge">
<title>Node13&#45;&gt;Node7</title>
<path fill="none" stroke="midnightblue" d="M244.54,-262.69C243.52,-239.55 241.9,-175.2 252,-123 258.62,-88.78 273.54,-50.84 282.89,-29.06"/>
<polygon fill="midnightblue" stroke="midnightblue" points="286.16,-30.32 286.97,-19.76 279.75,-27.51 286.16,-30.32"/>
</g>
<!-- Node14 -->
<g id="node14" class="node">
<title>Node14</title>
<g id="a_node14"><a xlink:href="dvd_8h.html" target="_top" xlink:title=" ">
<polygon fill="white" stroke="black" points="164.5,-196 164.5,-215 223.5,-215 223.5,-196 164.5,-196"/>
<text text-anchor="middle" x="194" y="-203" font-family="Helvetica,sans-Serif" font-size="10.00">dvd/dvd.h</text>
</a>
</g>
</g>
<!-- Node13&#45;&gt;Node14 -->
<g id="edge17" class="edge">
<title>Node13&#45;&gt;Node14</title>
<path fill="none" stroke="midnightblue" d="M238.12,-262.73C230.17,-252.6 216.9,-235.69 206.99,-223.06"/>
<polygon fill="midnightblue" stroke="midnightblue" points="209.7,-220.83 200.77,-215.13 204.19,-225.16 209.7,-220.83"/>
</g>
<!-- Node14&#45;&gt;Node7 -->
<g id="edge18" class="edge">
<title>Node14&#45;&gt;Node7</title>
<path fill="none" stroke="midnightblue" d="M193.06,-195.91C190.86,-171.64 187.66,-101.38 218,-56 227.57,-41.68 243.39,-31.12 257.87,-23.84"/>
<polygon fill="midnightblue" stroke="midnightblue" points="259.53,-26.92 267.1,-19.52 256.56,-20.58 259.53,-26.92"/>
</g>
<!-- Node16 -->
<g id="node16" class="node">
<title>Node16</title>
<g id="a_node16"><a xlink:href="JSUList_8h.html" target="_top" xlink:title=" ">
<polygon fill="white" stroke="black" points="416,-56.5 416,-86.5 552,-86.5 552,-56.5 416,-56.5"/>
<text text-anchor="start" x="424" y="-74.5" font-family="Helvetica,sans-Serif" font-size="10.00">JSystem/JSupport/JSUList</text>
<text text-anchor="middle" x="484" y="-63.5" font-family="Helvetica,sans-Serif" font-size="10.00">/JSUList.h</text>
</a>
</g>
</g>
<!-- Node15&#45;&gt;Node16 -->
<g id="edge22" class="edge">
<title>Node15&#45;&gt;Node16</title>
<path fill="none" stroke="midnightblue" d="M566.26,-324.28C559.99,-315.61 551.02,-301.68 547,-288 526.27,-217.57 570.16,-189.48 539,-123 533.54,-111.35 524.05,-101.15 514.48,-93.02"/>
<polygon fill="midnightblue" stroke="midnightblue" points="516.51,-90.16 506.5,-86.69 512.16,-95.65 516.51,-90.16"/>
</g>
<!-- Node17 -->
<g id="node17" class="node">
<title>Node17</title>
<g id="a_node17"><a xlink:href="JUTXfb_8h.html" target="_top" xlink:title=" ">
<polygon fill="white" stroke="black" points="555.5,-257.5 555.5,-287.5 680.5,-287.5 680.5,-257.5 555.5,-257.5"/>
<text text-anchor="start" x="563.5" y="-275.5" font-family="Helvetica,sans-Serif" font-size="10.00">JSystem/JUtility/JUTXfb</text>
<text text-anchor="middle" x="618" y="-264.5" font-family="Helvetica,sans-Serif" font-size="10.00">/JUTXfb.h</text>
</a>
</g>
</g>
<!-- Node15&#45;&gt;Node17 -->
<g id="edge24" class="edge">
<title>Node15&#45;&gt;Node17</title>
<path fill="none" stroke="midnightblue" d="M579.45,-324.48C585.14,-316.94 593.7,-305.63 601.31,-295.57"/>
<polygon fill="midnightblue" stroke="midnightblue" points="604.15,-297.61 607.39,-287.52 598.57,-293.39 604.15,-297.61"/>
</g>
<!-- Node21 -->
<g id="node21" class="node">
<title>Node21</title>
<g id="a_node21"><a xlink:href="c__xyz_8h.html" target="_top" xlink:title=" ">
<polygon fill="white" stroke="black" points="698.5,-263 698.5,-282 805.5,-282 805.5,-263 698.5,-263"/>
<text text-anchor="middle" x="752" y="-270" font-family="Helvetica,sans-Serif" font-size="10.00">SComponent/c_xyz.h</text>
</a>
</g>
</g>
<!-- Node15&#45;&gt;Node21 -->
<g id="edge34" class="edge">
<title>Node15&#45;&gt;Node21</title>
<path fill="none" stroke="midnightblue" d="M598.65,-324.48C629.62,-314.18 681.87,-296.81 716.65,-285.25"/>
<polygon fill="midnightblue" stroke="midnightblue" points="718.02,-288.48 726.4,-282.01 715.81,-281.84 718.02,-288.48"/>
</g>
<!-- Node16&#45;&gt;Node7 -->
<g id="edge23" class="edge">
<title>Node16&#45;&gt;Node7</title>
<path fill="none" stroke="midnightblue" d="M438.26,-56.4C404.77,-46.07 359.87,-32.23 328.48,-22.56"/>
<polygon fill="midnightblue" stroke="midnightblue" points="329.39,-19.17 318.8,-19.57 327.33,-25.86 329.39,-19.17"/>
</g>
<!-- Node17&#45;&gt;Node7 -->
<g id="edge31" class="edge">
<title>Node17&#45;&gt;Node7</title>
<path fill="none" stroke="midnightblue" d="M619.02,-257.33C620.95,-218.59 620.51,-110.2 561,-56 529.67,-27.47 410.95,-16.85 341.81,-13.03"/>
<polygon fill="midnightblue" stroke="midnightblue" points="341.74,-9.53 331.57,-12.5 341.38,-16.52 341.74,-9.53"/>
</g>
<!-- Node18 -->
<g id="node18" class="node">
<title>Node18</title>
<g id="a_node18"><a xlink:href="JKRHeap_8h.html" target="_top" xlink:title=" ">
<polygon fill="white" stroke="black" points="375,-190.5 375,-220.5 511,-220.5 511,-190.5 375,-190.5"/>
<text text-anchor="start" x="383" y="-208.5" font-family="Helvetica,sans-Serif" font-size="10.00">JSystem/JKernel/JKRHeap</text>
<text text-anchor="middle" x="443" y="-197.5" font-family="Helvetica,sans-Serif" font-size="10.00">/JKRHeap.h</text>
</a>
</g>
</g>
<!-- Node17&#45;&gt;Node18 -->
<g id="edge25" class="edge">
<title>Node17&#45;&gt;Node18</title>
<path fill="none" stroke="midnightblue" d="M580.03,-257.4C553.77,-247.64 518.64,-234.59 490.52,-224.15"/>
<polygon fill="midnightblue" stroke="midnightblue" points="491.49,-220.78 480.9,-220.58 489.05,-227.34 491.49,-220.78"/>
</g>
<!-- Node20 -->
<g id="node20" class="node">
<title>Node20</title>
<g id="a_node20"><a xlink:href="GX_8h.html" target="_top" xlink:title=" ">
<polygon fill="white" stroke="black" points="624.5,-62 624.5,-81 675.5,-81 675.5,-62 624.5,-62"/>
<text text-anchor="middle" x="650" y="-69" font-family="Helvetica,sans-Serif" font-size="10.00">gx/GX.h</text>
</a>
</g>
</g>
<!-- Node17&#45;&gt;Node20 -->
<g id="edge32" class="edge">
<title>Node17&#45;&gt;Node20</title>
<path fill="none" stroke="midnightblue" d="M620.3,-257.19C625.97,-221.91 640.63,-130.78 646.98,-91.25"/>
<polygon fill="midnightblue" stroke="midnightblue" points="650.44,-91.79 648.58,-81.36 643.53,-90.68 650.44,-91.79"/>
</g>
<!-- Node18&#45;&gt;Node6 -->
<g id="edge30" class="edge">
<title>Node18&#45;&gt;Node6</title>
<path fill="none" stroke="midnightblue" d="M434.63,-220.56C419.81,-245.46 387.97,-298.92 361,-344 355.55,-353.1 349.48,-363.24 344.47,-371.58"/>
<polygon fill="midnightblue" stroke="midnightblue" points="341.33,-370 339.18,-380.38 347.33,-373.61 341.33,-370"/>
</g>
<!-- Node18&#45;&gt;Node7 -->
<g id="edge29" class="edge">
<title>Node18&#45;&gt;Node7</title>
<path fill="none" stroke="midnightblue" d="M416.77,-190.43C401.77,-181.45 383.33,-168.75 370,-154 334.91,-115.2 309.38,-58.08 297.84,-29.18"/>
<polygon fill="midnightblue" stroke="midnightblue" points="301,-27.64 294.12,-19.58 294.47,-30.17 301,-27.64"/>
</g>
<!-- Node19 -->
<g id="node19" class="node">
<title>Node19</title>
<g id="a_node19"><a xlink:href="JKRDisposer_8h.html" target="_top" xlink:title=" ">
<polygon fill="white" stroke="black" points="378.5,-123.5 378.5,-153.5 529.5,-153.5 529.5,-123.5 378.5,-123.5"/>
<text text-anchor="start" x="386.5" y="-141.5" font-family="Helvetica,sans-Serif" font-size="10.00">JSystem/JKernel/JKRDisposer</text>
<text text-anchor="middle" x="454" y="-130.5" font-family="Helvetica,sans-Serif" font-size="10.00">/JKRDisposer.h</text>
</a>
</g>
</g>
<!-- Node18&#45;&gt;Node19 -->
<g id="edge26" class="edge">
<title>Node18&#45;&gt;Node19</title>
<path fill="none" stroke="midnightblue" d="M445.39,-190.4C446.71,-182.56 448.4,-172.6 449.93,-163.57"/>
<polygon fill="midnightblue" stroke="midnightblue" points="453.4,-164.02 451.62,-153.58 446.5,-162.85 453.4,-164.02"/>
</g>
<!-- Node19&#45;&gt;Node7 -->
<g id="edge28" class="edge">
<title>Node19&#45;&gt;Node7</title>
<path fill="none" stroke="midnightblue" d="M440.05,-123.37C422.94,-106.4 392.65,-77.52 364,-56 348.57,-44.41 330.05,-33.02 315.53,-24.6"/>
<polygon fill="midnightblue" stroke="midnightblue" points="317.05,-21.44 306.63,-19.52 313.58,-27.52 317.05,-21.44"/>
</g>
<!-- Node19&#45;&gt;Node16 -->
<g id="edge27" class="edge">
<title>Node19&#45;&gt;Node16</title>
<path fill="none" stroke="midnightblue" d="M460.51,-123.4C464.24,-115.3 469.03,-104.94 473.3,-95.69"/>
<polygon fill="midnightblue" stroke="midnightblue" points="476.49,-97.12 477.5,-86.58 470.13,-94.19 476.49,-97.12"/>
</g>
<!-- Node20&#45;&gt;Node7 -->
<g id="edge33" class="edge">
<title>Node20&#45;&gt;Node7</title>
<path fill="none" stroke="midnightblue" d="M629.08,-61.99C623.01,-59.77 616.31,-57.57 610,-56 516.82,-32.81 405.14,-20.48 341.69,-14.88"/>
<polygon fill="midnightblue" stroke="midnightblue" points="341.81,-11.38 331.55,-14.01 341.21,-18.35 341.81,-11.38"/>
</g>
<!-- Node21&#45;&gt;Node6 -->
<g id="edge37" class="edge">
<title>Node21&#45;&gt;Node6</title>
<path fill="none" stroke="midnightblue" d="M738.52,-282.21C714.52,-297.31 662.33,-328.21 614,-344 528.88,-371.81 423.38,-382.82 369.42,-386.86"/>
<polygon fill="midnightblue" stroke="midnightblue" points="369.06,-383.38 359.34,-387.58 369.56,-390.36 369.06,-383.38"/>
</g>
<!-- Node22 -->
<g id="node22" class="node">
<title>Node22</title>
<g id="a_node22"><a xlink:href="c__math_8h.html" target="_top" xlink:title=" ">
<polygon fill="white" stroke="black" points="708,-196 708,-215 824,-215 824,-196 708,-196"/>
<text text-anchor="middle" x="766" y="-203" font-family="Helvetica,sans-Serif" font-size="10.00">SComponent/c_math.h</text>
</a>
</g>
</g>
<!-- Node21&#45;&gt;Node22 -->
<g id="edge35" class="edge">
<title>Node21&#45;&gt;Node22</title>
<path fill="none" stroke="midnightblue" d="M753.89,-262.73C755.97,-253.09 759.37,-237.3 762.04,-224.91"/>
<polygon fill="midnightblue" stroke="midnightblue" points="765.46,-225.64 764.14,-215.13 758.61,-224.17 765.46,-225.64"/>
</g>
<!-- Node22&#45;&gt;Node6 -->
<g id="edge36" class="edge">
<title>Node22&#45;&gt;Node6</title>
<path fill="none" stroke="midnightblue" d="M778.04,-215.11C797.79,-230.29 833.15,-262.62 815,-288 762.74,-361.06 471.08,-382.26 369.16,-387.49"/>
<polygon fill="midnightblue" stroke="midnightblue" points="368.89,-384 359.07,-387.98 369.23,-390.99 368.89,-384"/>
</g>
<!-- Node23&#45;&gt;Node4 -->
<g id="edge40" class="edge">
<title>Node23&#45;&gt;Node4</title>
<path fill="none" stroke="midnightblue" d="M241.44,-548.08C246.95,-540.46 255.03,-529.26 261.76,-519.94"/>
<polygon fill="midnightblue" stroke="midnightblue" points="264.66,-521.91 267.68,-511.75 258.99,-517.81 264.66,-521.91"/>
</g>
<!-- Node23&#45;&gt;Node5 -->
<g id="edge41" class="edge">
<title>Node23&#45;&gt;Node5</title>
<path fill="none" stroke="midnightblue" d="M227.53,-548.29C217.56,-535.53 202.21,-511.2 212,-492 219,-478.27 232.37,-467.75 244.9,-460.35"/>
<polygon fill="midnightblue" stroke="midnightblue" points="246.67,-463.37 253.78,-455.51 243.32,-457.22 246.67,-463.37"/>
</g>
<!-- Node24&#45;&gt;Node3 -->
<g id="edge45" class="edge">
<title>Node24&#45;&gt;Node3</title>
<path fill="none" stroke="midnightblue" d="M131.55,-727.41C154.35,-718.11 184.01,-705.08 209,-691 218.11,-685.87 268.96,-649.91 297.88,-629.34"/>
<polygon fill="midnightblue" stroke="midnightblue" points="299.96,-632.16 306.08,-623.51 295.9,-626.45 299.96,-632.16"/>
</g>
<!-- Node24&#45;&gt;Node6 -->
<g id="edge51" class="edge">
<title>Node24&#45;&gt;Node6</title>
<path fill="none" stroke="midnightblue" d="M83.74,-727.26C67.13,-704.78 38,-659.08 38,-615 38,-615 38,-615 38,-501 38,-464 58.25,-455 90,-436 155.95,-396.54 248.48,-390.22 298.52,-390.02"/>
<polygon fill="midnightblue" stroke="midnightblue" points="298.8,-393.52 308.82,-390.06 298.83,-386.52 298.8,-393.52"/>
</g>
<!-- Node25 -->
<g id="node25" class="node">
<title>Node25</title>
<g id="a_node25"><a xlink:href="f__pc__layer_8h.html" target="_top" xlink:title=" ">
<polygon fill="white" stroke="black" points="104,-666 104,-685 200,-685 200,-666 104,-666"/>
<text text-anchor="middle" x="152" y="-673" font-family="Helvetica,sans-Serif" font-size="10.00">f/f_pc/f_pc_layer.h</text>
</a>
</g>
</g>
<!-- Node24&#45;&gt;Node25 -->
<g id="edge46" class="edge">
<title>Node24&#45;&gt;Node25</title>
<path fill="none" stroke="midnightblue" d="M107.37,-727.4C116.26,-717.26 128.26,-703.57 137.59,-692.94"/>
<polygon fill="midnightblue" stroke="midnightblue" points="140.41,-695.02 144.38,-685.19 135.15,-690.41 140.41,-695.02"/>
</g>
<!-- Node25&#45;&gt;Node3 -->
<g id="edge48" class="edge">
<title>Node25&#45;&gt;Node3</title>
<path fill="none" stroke="midnightblue" d="M175.78,-665.98C204.38,-655.72 252.55,-638.46 284.8,-626.9"/>
<polygon fill="midnightblue" stroke="midnightblue" points="286.03,-630.18 294.26,-623.51 283.67,-623.59 286.03,-630.18"/>
</g>
<!-- Node25&#45;&gt;Node5 -->
<g id="edge47" class="edge">
<title>Node25&#45;&gt;Node5</title>
<path fill="none" stroke="midnightblue" d="M151.8,-665.88C151.59,-637.08 154.9,-543.05 204,-492 216.29,-479.23 232.88,-468.36 246.82,-460.51"/>
<polygon fill="midnightblue" stroke="midnightblue" points="248.83,-463.4 255.96,-455.57 245.5,-457.24 248.83,-463.4"/>
</g>
<!-- Node25&#45;&gt;Node6 -->
<g id="edge50" class="edge">
<title>Node25&#45;&gt;Node6</title>
<path fill="none" stroke="midnightblue" d="M147.03,-665.84C136.73,-647.03 114,-600.8 114,-559 114,-559 114,-559 114,-501 114,-419.46 236.4,-398.36 298.61,-392.9"/>
<polygon fill="midnightblue" stroke="midnightblue" points="299.07,-396.38 308.76,-392.1 298.52,-389.4 299.07,-396.38"/>
</g>
<!-- Node25&#45;&gt;Node23 -->
<g id="edge49" class="edge">
<title>Node25&#45;&gt;Node23</title>
<path fill="none" stroke="midnightblue" d="M158.24,-665.82C171.94,-646.76 204.86,-600.95 222.81,-575.96"/>
<polygon fill="midnightblue" stroke="midnightblue" points="225.7,-577.95 228.69,-567.78 220.01,-573.86 225.7,-577.95"/>
</g>
<!-- Node26&#45;&gt;Node3 -->
<g id="edge53" class="edge">
<title>Node26&#45;&gt;Node3</title>
<path fill="none" stroke="midnightblue" d="M224.87,-732.81C241.36,-711.95 283.36,-658.81 304.87,-631.61"/>
<polygon fill="midnightblue" stroke="midnightblue" points="307.62,-633.77 311.08,-623.76 302.13,-629.43 307.62,-633.77"/>
</g>
<!-- Node26&#45;&gt;Node6 -->
<g id="edge55" class="edge">
<title>Node26&#45;&gt;Node6</title>
<path fill="none" stroke="midnightblue" d="M170.69,-732.93C144.84,-725.87 114.25,-713.26 95,-691 72.22,-664.67 76,-649.82 76,-615 76,-615 76,-615 76,-501 76,-405.36 227.88,-391.73 298.58,-390.56"/>
<polygon fill="midnightblue" stroke="midnightblue" points="298.82,-394.06 308.79,-390.47 298.76,-387.06 298.82,-394.06"/>
</g>
<!-- Node26&#45;&gt;Node25 -->
<g id="edge54" class="edge">
<title>Node26&#45;&gt;Node25</title>
<path fill="none" stroke="midnightblue" d="M209.1,-732.73C198.61,-722.4 180.98,-705.04 168.08,-692.33"/>
<polygon fill="midnightblue" stroke="midnightblue" points="170.34,-689.65 160.76,-685.13 165.43,-694.64 170.34,-689.65"/>
</g>
<!-- Node27&#45;&gt;Node3 -->
<g id="edge57" class="edge">
<title>Node27&#45;&gt;Node3</title>
<path fill="none" stroke="midnightblue" d="M512.48,-665.98C472.44,-655.48 404.36,-637.64 360.3,-626.09"/>
<polygon fill="midnightblue" stroke="midnightblue" points="361.02,-622.66 350.46,-623.51 359.25,-629.43 361.02,-622.66"/>
</g>
<!-- Node27&#45;&gt;Node6 -->
<g id="edge58" class="edge">
<title>Node27&#45;&gt;Node6</title>
<path fill="none" stroke="midnightblue" d="M534.25,-665.89C513.52,-648.23 470,-605.62 470,-559 470,-559 470,-559 470,-501 470,-448.96 409.06,-417.3 368.76,-402.05"/>
<polygon fill="midnightblue" stroke="midnightblue" points="369.86,-398.73 359.26,-398.62 367.47,-405.31 369.86,-398.73"/>
</g>
<!-- Node28&#45;&gt;Node3 -->
<g id="edge60" class="edge">
<title>Node28&#45;&gt;Node3</title>
<path fill="none" stroke="midnightblue" d="M379.46,-732.81C368.73,-712.22 341.58,-660.19 327.22,-632.68"/>
<polygon fill="midnightblue" stroke="midnightblue" points="330.3,-631 322.57,-623.76 324.09,-634.24 330.3,-631"/>
</g>
<!-- Node29 -->
<g id="node29" class="node">
<title>Node29</title>
<g id="a_node29"><a xlink:href="f__pc__method__tag_8h.html" target="_top" xlink:title=" ">
<polygon fill="white" stroke="black" points="370.5,-660.5 370.5,-690.5 471.5,-690.5 471.5,-660.5 370.5,-660.5"/>
<text text-anchor="start" x="378.5" y="-678.5" font-family="Helvetica,sans-Serif" font-size="10.00">f/f_pc/f_pc_method</text>
<text text-anchor="middle" x="421" y="-667.5" font-family="Helvetica,sans-Serif" font-size="10.00">_tag.h</text>
</a>
</g>
</g>
<!-- Node28&#45;&gt;Node29 -->
<g id="edge61" class="edge">
<title>Node28&#45;&gt;Node29</title>
<path fill="none" stroke="midnightblue" d="M388.99,-732.73C393.85,-724.2 401.43,-710.87 408,-699.33"/>
<polygon fill="midnightblue" stroke="midnightblue" points="411.07,-701.01 412.98,-690.59 404.99,-697.55 411.07,-701.01"/>
</g>
<!-- Node29&#45;&gt;Node3 -->
<g id="edge62" class="edge">
<title>Node29&#45;&gt;Node3</title>
<path fill="none" stroke="midnightblue" d="M396.59,-660.4C380.08,-650.86 358.38,-638.32 341.96,-628.84"/>
<polygon fill="midnightblue" stroke="midnightblue" points="343.4,-625.63 332.99,-623.66 339.9,-631.69 343.4,-625.63"/>
</g>
<!-- Node29&#45;&gt;Node6 -->
<g id="edge63" class="edge">
<title>Node29&#45;&gt;Node6</title>
<path fill="none" stroke="midnightblue" d="M423.23,-660.32C426.44,-638.57 432,-595.66 432,-559 432,-559 432,-559 432,-501 432,-457.38 388.51,-423.06 359.47,-405.01"/>
<polygon fill="midnightblue" stroke="midnightblue" points="361,-401.85 350.62,-399.73 357.42,-407.86 361,-401.85"/>
</g>
<!-- Node30&#45;&gt;Node6 -->
<g id="edge67" class="edge">
<title>Node30&#45;&gt;Node6</title>
<path fill="none" stroke="midnightblue" d="M578.17,-492.32C559.15,-478.71 520.26,-452.22 484,-436 446.1,-419.04 400.03,-406.3 369.03,-398.78"/>
<polygon fill="midnightblue" stroke="midnightblue" points="369.67,-395.33 359.13,-396.43 368.05,-402.14 369.67,-395.33"/>
</g>
<!-- Node31 -->
<g id="node31" class="node">
<title>Node31</title>
<g id="a_node31"><a xlink:href="f__pc__method_8h.html" target="_top" xlink:title=" ">
<polygon fill="white" stroke="black" points="536,-436.5 536,-455.5 644,-455.5 644,-436.5 536,-436.5"/>
<text text-anchor="middle" x="590" y="-443.5" font-family="Helvetica,sans-Serif" font-size="10.00">f/f_pc/f_pc_method.h</text>
</a>
</g>
</g>
<!-- Node30&#45;&gt;Node31 -->
<g id="edge65" class="edge">
<title>Node30&#45;&gt;Node31</title>
<path fill="none" stroke="midnightblue" d="M590,-492.08C590,-485.01 590,-474.86 590,-465.99"/>
<polygon fill="midnightblue" stroke="midnightblue" points="593.5,-465.75 590,-455.75 586.5,-465.75 593.5,-465.75"/>
</g>
<!-- Node31&#45;&gt;Node6 -->
<g id="edge66" class="edge">
<title>Node31&#45;&gt;Node6</title>
<path fill="none" stroke="midnightblue" d="M549.44,-436.44C499.76,-425.96 416.43,-408.39 369.29,-398.44"/>
<polygon fill="midnightblue" stroke="midnightblue" points="369.75,-394.96 359.24,-396.32 368.3,-401.81 369.75,-394.96"/>
</g>
</g>
</svg>
        <g id="navigator" transform="translate(0 0)" fill="#404254">
                <rect fill="#f2f5e9" fill-opacity="0.5" stroke="#606060" stroke-width=".5" x="0" y="0" width="60" height="60"/>
                <use id="zoomplus" xlink:href="#zoomPlus" x="17" y="9" onmousedown="handleZoom(evt,'in')"/>
                <use id="zoomminus" xlink:href="#zoomMin" x="42" y="9" onmousedown="handleZoom(evt,'out')"/>
                <use id="reset" xlink:href="#resetDef" x="30" y="36" onmousedown="handleReset()"/>
                <g id="arrowUp" xlink:href="#dirArrow" transform="translate(30 24)" onmousedown="handlePan(0,-1)">
                  <use xlink:href="#rim" fill="#404040">
                        <set attributeName="fill" to="#808080" begin="arrowUp.mouseover" end="arrowUp.mouseout"/>
                  </use>
                  <path fill="none" stroke="white" stroke-width="1.5" d="M0,-3.0v7 M-2.5,-0.5L0,-3.0L2.5,-0.5"/>
                </g>
                <g id="arrowRight" xlink:href="#dirArrow" transform="rotate(90) translate(36 -43)" onmousedown="handlePan(1,0)">
                  <use xlink:href="#rim" fill="#404040">
                        <set attributeName="fill" to="#808080" begin="arrowRight.mouseover" end="arrowRight.mouseout"/>
                  </use>
                  <path fill="none" stroke="white" stroke-width="1.5" d="M0,-3.0v7 M-2.5,-0.5L0,-3.0L2.5,-0.5"/>
                </g>
                <g id="arrowDown" xlink:href="#dirArrow" transform="rotate(180) translate(-30 -48)" onmousedown="handlePan(0,1)">
                  <use xlink:href="#rim" fill="#404040">
                        <set attributeName="fill" to="#808080" begin="arrowDown.mouseover" end="arrowDown.mouseout"/>
                  </use>
                  <path fill="none" stroke="white" stroke-width="1.5" d="M0,-3.0v7 M-2.5,-0.5L0,-3.0L2.5,-0.5"/>
                </g>
                <g id="arrowLeft" xlink:href="#dirArrow" transform="rotate(270) translate(-36 17)" onmousedown="handlePan(-1,0)">
                  <use xlink:href="#rim" fill="#404040">
                        <set attributeName="fill" to="#808080" begin="arrowLeft.mouseover" end="arrowLeft.mouseout"/>
                  </use>
                  <path fill="none" stroke="white" stroke-width="1.5" d="M0,-3.0v7 M-2.5,-0.5L0,-3.0L2.5,-0.5"/>
                </g>
        </g>
        <svg viewBox="0 0 15 15" width="100%" height="30px" preserveAspectRatio="xMaxYMin meet">
         <g id="arrow_out" transform="scale(0.3 0.3)">
          <a xlink:href="f__pc__deletor_8h__incl_org.svg" target="_base">
           <rect id="button" ry="5" rx="5" y="6" x="6" height="38" width="38"
                fill="#f2f5e9" fill-opacity="0.5" stroke="#606060" stroke-width="1.0"/>
           <path id="arrow"
             d="M 11.500037,31.436501 C 11.940474,20.09759 22.043105,11.32322 32.158766,21.979434 L 37.068811,17.246167 C 37.068811,17.246167 37.088388,32 37.088388,32 L 22.160133,31.978069 C 22.160133,31.978069 26.997745,27.140456 26.997745,27.140456 C 18.528582,18.264221 13.291696,25.230495 11.500037,31.436501 z"
             style="fill:#404040;"/>
          </a>
         </g>
        </svg>
</svg>
