<?xml version="1.0" encoding="UTF-8" standalone="no"?>
<!DOCTYPE svg PUBLIC "-//W3C//DTD SVG 1.1//EN"
 "http://www.w3.org/Graphics/SVG/1.1/DTD/svg11.dtd">
<!-- Generated by graphviz version 2.46.1 (20210215.1649)
 -->
<!-- Title: include/f/f_pc/f_pc_delete_tag.h Pages: 1 -->
<svg width="632pt" height="755pt"
 viewBox="0.00 0.00 632.45 755.00" xmlns="http://www.w3.org/2000/svg" xmlns:xlink="http://www.w3.org/1999/xlink">
<g id="graph0" class="graph" transform="scale(1 1) rotate(0) translate(4 751)">
<title>include/f/f_pc/f_pc_delete_tag.h</title>
<polygon fill="white" stroke="transparent" points="-4,4 -4,-751 628.45,-751 628.45,4 -4,4"/>
<!-- Node1 -->
<g id="node1" class="node">
<title>Node1</title>
<g id="a_node1"><a xlink:title=" ">
<polygon fill="#bfbfbf" stroke="black" points="125.5,-716.5 125.5,-746.5 222.5,-746.5 222.5,-716.5 125.5,-716.5"/>
<text text-anchor="start" x="133.5" y="-734.5" font-family="Helvetica,sans-Serif" font-size="10.00">include/f/f_pc/f_pc</text>
<text text-anchor="middle" x="174" y="-723.5" font-family="Helvetica,sans-Serif" font-size="10.00">_delete_tag.h</text>
</a>
</g>
</g>
<!-- Node2 -->
<g id="node2" class="node">
<title>Node2</title>
<g id="a_node2"><a xlink:href="c__tag_8h.html" target="_top" xlink:title=" ">
<polygon fill="white" stroke="black" points="120.5,-604.5 120.5,-623.5 227.5,-623.5 227.5,-604.5 120.5,-604.5"/>
<text text-anchor="middle" x="174" y="-611.5" font-family="Helvetica,sans-Serif" font-size="10.00">SComponent/c_tag.h</text>
</a>
</g>
</g>
<!-- Node1&#45;&gt;Node2 -->
<g id="edge1" class="edge">
<title>Node1&#45;&gt;Node2</title>
<path fill="none" stroke="midnightblue" d="M174,-716.34C174,-695.62 174,-657.02 174,-633.9"/>
<polygon fill="midnightblue" stroke="midnightblue" points="177.5,-633.67 174,-623.67 170.5,-633.67 177.5,-633.67"/>
</g>
<!-- Node5 -->
<g id="node5" class="node">
<title>Node5</title>
<g id="a_node5"><a xlink:href="global_8h.html" target="_top" xlink:title=" ">
<polygon fill="white" stroke="black" points="133,-380.5 133,-399.5 183,-399.5 183,-380.5 133,-380.5"/>
<text text-anchor="middle" x="158" y="-387.5" font-family="Helvetica,sans-Serif" font-size="10.00">global.h</text>
</a>
</g>
</g>
<!-- Node1&#45;&gt;Node5 -->
<g id="edge40" class="edge">
<title>Node1&#45;&gt;Node5</title>
<path fill="none" stroke="midnightblue" d="M144.05,-716.37C110.27,-698.11 60,-662.9 60,-615 60,-615 60,-615 60,-501 60,-457.38 103.49,-423.06 132.53,-405.01"/>
<polygon fill="midnightblue" stroke="midnightblue" points="134.58,-407.86 141.38,-399.73 131,-401.85 134.58,-407.86"/>
</g>
<!-- Node20 -->
<g id="node20" class="node">
<title>Node20</title>
<g id="a_node20"><a xlink:href="f__pc__layer_8h.html" target="_top" xlink:title=" ">
<polygon fill="white" stroke="black" points="209,-660.5 209,-679.5 305,-679.5 305,-660.5 209,-660.5"/>
<text text-anchor="middle" x="257" y="-667.5" font-family="Helvetica,sans-Serif" font-size="10.00">f/f_pc/f_pc_layer.h</text>
</a>
</g>
</g>
<!-- Node1&#45;&gt;Node20 -->
<g id="edge35" class="edge">
<title>Node1&#45;&gt;Node20</title>
<path fill="none" stroke="midnightblue" d="M193.67,-716.4C206.6,-707.13 223.49,-695.03 236.57,-685.65"/>
<polygon fill="midnightblue" stroke="midnightblue" points="238.83,-688.33 244.92,-679.66 234.76,-682.64 238.83,-688.33"/>
</g>
<!-- Node3 -->
<g id="node3" class="node">
<title>Node3</title>
<g id="a_node3"><a xlink:href="c__list_8h.html" target="_top" xlink:title=" ">
<polygon fill="white" stroke="black" points="164.5,-492.5 164.5,-511.5 271.5,-511.5 271.5,-492.5 164.5,-492.5"/>
<text text-anchor="middle" x="218" y="-499.5" font-family="Helvetica,sans-Serif" font-size="10.00">SComponent/c_list.h</text>
</a>
</g>
</g>
<!-- Node2&#45;&gt;Node3 -->
<g id="edge2" class="edge">
<title>Node2&#45;&gt;Node3</title>
<path fill="none" stroke="midnightblue" d="M175.87,-604.38C178.76,-591.73 184.84,-567.53 193,-548 196.96,-538.52 202.41,-528.47 207.21,-520.29"/>
<polygon fill="midnightblue" stroke="midnightblue" points="210.24,-522.04 212.42,-511.67 204.25,-518.42 210.24,-522.04"/>
</g>
<!-- Node4 -->
<g id="node4" class="node">
<title>Node4</title>
<g id="a_node4"><a xlink:href="c__node_8h.html" target="_top" xlink:title=" ">
<polygon fill="white" stroke="black" points="160.5,-436.5 160.5,-455.5 275.5,-455.5 275.5,-436.5 160.5,-436.5"/>
<text text-anchor="middle" x="218" y="-443.5" font-family="Helvetica,sans-Serif" font-size="10.00">SComponent/c_node.h</text>
</a>
</g>
</g>
<!-- Node2&#45;&gt;Node4 -->
<g id="edge30" class="edge">
<title>Node2&#45;&gt;Node4</title>
<path fill="none" stroke="midnightblue" d="M169.33,-604.22C158.99,-583.46 136.51,-530.22 156,-492 163,-478.27 176.37,-467.75 188.9,-460.35"/>
<polygon fill="midnightblue" stroke="midnightblue" points="190.67,-463.37 197.78,-455.51 187.32,-457.22 190.67,-463.37"/>
</g>
<!-- Node2&#45;&gt;Node5 -->
<g id="edge34" class="edge">
<title>Node2&#45;&gt;Node5</title>
<path fill="none" stroke="midnightblue" d="M166.64,-604.39C159.82,-595.82 150.12,-581.94 146,-568 129.53,-512.25 143.87,-442.49 152.54,-409.69"/>
<polygon fill="midnightblue" stroke="midnightblue" points="156.01,-410.28 155.31,-399.71 149.26,-408.41 156.01,-410.28"/>
</g>
<!-- Node19 -->
<g id="node19" class="node">
<title>Node19</title>
<g id="a_node19"><a xlink:href="c__tree_8h.html" target="_top" xlink:title=" ">
<polygon fill="white" stroke="black" points="202,-548.5 202,-567.5 312,-567.5 312,-548.5 202,-548.5"/>
<text text-anchor="middle" x="257" y="-555.5" font-family="Helvetica,sans-Serif" font-size="10.00">SComponent/c_tree.h</text>
</a>
</g>
</g>
<!-- Node2&#45;&gt;Node19 -->
<g id="edge31" class="edge">
<title>Node2&#45;&gt;Node19</title>
<path fill="none" stroke="midnightblue" d="M187.34,-604.32C200.16,-595.98 219.78,-583.21 234.94,-573.35"/>
<polygon fill="midnightblue" stroke="midnightblue" points="237.22,-576.04 243.7,-567.65 233.41,-570.17 237.22,-576.04"/>
</g>
<!-- Node3&#45;&gt;Node4 -->
<g id="edge3" class="edge">
<title>Node3&#45;&gt;Node4</title>
<path fill="none" stroke="midnightblue" d="M218,-492.08C218,-485.01 218,-474.86 218,-465.99"/>
<polygon fill="midnightblue" stroke="midnightblue" points="221.5,-465.75 218,-455.75 214.5,-465.75 221.5,-465.75"/>
</g>
<!-- Node4&#45;&gt;Node5 -->
<g id="edge4" class="edge">
<title>Node4&#45;&gt;Node5</title>
<path fill="none" stroke="midnightblue" d="M208.36,-436.32C199.49,-428.34 186.13,-416.31 175.39,-406.65"/>
<polygon fill="midnightblue" stroke="midnightblue" points="177.59,-403.92 167.82,-399.83 172.91,-409.13 177.59,-403.92"/>
</g>
<!-- Node6 -->
<g id="node6" class="node">
<title>Node6</title>
<g id="a_node6"><a xlink:href="types_8h.html" target="_top" xlink:title=" ">
<polygon fill="white" stroke="black" points="222.5,-0.5 222.5,-19.5 303.5,-19.5 303.5,-0.5 222.5,-0.5"/>
<text text-anchor="middle" x="263" y="-7.5" font-family="Helvetica,sans-Serif" font-size="10.00">dolphin/types.h</text>
</a>
</g>
</g>
<!-- Node5&#45;&gt;Node6 -->
<g id="edge5" class="edge">
<title>Node5&#45;&gt;Node6</title>
<path fill="none" stroke="midnightblue" d="M132.96,-383.09C88.41,-370.92 0,-338.57 0,-273.5 0,-273.5 0,-273.5 0,-137.5 0,-44.35 135.65,-19.75 212.11,-13.28"/>
<polygon fill="midnightblue" stroke="midnightblue" points="212.78,-16.74 222.48,-12.49 212.24,-9.76 212.78,-16.74"/>
</g>
<!-- Node7 -->
<g id="node7" class="node">
<title>Node7</title>
<g id="a_node7"><a xlink:href="AR_8h.html" target="_top" xlink:title=" ">
<polygon fill="white" stroke="black" points="28.5,-263 28.5,-282 77.5,-282 77.5,-263 28.5,-263"/>
<text text-anchor="middle" x="53" y="-270" font-family="Helvetica,sans-Serif" font-size="10.00">ar/AR.h</text>
</a>
</g>
</g>
<!-- Node5&#45;&gt;Node7 -->
<g id="edge6" class="edge">
<title>Node5&#45;&gt;Node7</title>
<path fill="none" stroke="midnightblue" d="M140.61,-380.41C125.97,-372.51 105.22,-359.67 91,-344 76.88,-328.44 66.19,-306.68 59.8,-291.47"/>
<polygon fill="midnightblue" stroke="midnightblue" points="63.03,-290.12 56.07,-282.13 56.53,-292.72 63.03,-290.12"/>
</g>
<!-- Node8 -->
<g id="node8" class="node">
<title>Node8</title>
<g id="a_node8"><a xlink:href="ARQ_8h.html" target="_top" xlink:title=" ">
<polygon fill="white" stroke="black" points="81,-196 81,-215 137,-215 137,-196 81,-196"/>
<text text-anchor="middle" x="109" y="-203" font-family="Helvetica,sans-Serif" font-size="10.00">ar/ARQ.h</text>
</a>
</g>
</g>
<!-- Node5&#45;&gt;Node8 -->
<g id="edge8" class="edge">
<title>Node5&#45;&gt;Node8</title>
<path fill="none" stroke="midnightblue" d="M149.07,-380.26C141.03,-371.8 129.64,-358.2 124,-344 108.11,-303.96 107.12,-252.53 107.96,-225.32"/>
<polygon fill="midnightblue" stroke="midnightblue" points="111.46,-225.39 108.39,-215.25 104.46,-225.09 111.46,-225.39"/>
</g>
<!-- Node9 -->
<g id="node9" class="node">
<title>Node9</title>
<g id="a_node9"><a xlink:href="mwcc_8h.html" target="_top" xlink:title=" ">
<polygon fill="white" stroke="black" points="133,-324.5 133,-343.5 183,-343.5 183,-324.5 133,-324.5"/>
<text text-anchor="middle" x="158" y="-331.5" font-family="Helvetica,sans-Serif" font-size="10.00">mwcc.h</text>
</a>
</g>
</g>
<!-- Node5&#45;&gt;Node9 -->
<g id="edge10" class="edge">
<title>Node5&#45;&gt;Node9</title>
<path fill="none" stroke="midnightblue" d="M158,-380.08C158,-373.01 158,-362.86 158,-353.99"/>
<polygon fill="midnightblue" stroke="midnightblue" points="161.5,-353.75 158,-343.75 154.5,-353.75 161.5,-353.75"/>
</g>
<!-- Node10 -->
<g id="node10" class="node">
<title>Node10</title>
<g id="a_node10"><a xlink:href="OS_8h.html" target="_top" xlink:title=" ">
<polygon fill="white" stroke="black" points="143,-129 143,-148 195,-148 195,-129 143,-129"/>
<text text-anchor="middle" x="169" y="-136" font-family="Helvetica,sans-Serif" font-size="10.00">os/OS.h</text>
</a>
</g>
</g>
<!-- Node5&#45;&gt;Node10 -->
<g id="edge11" class="edge">
<title>Node5&#45;&gt;Node10</title>
<path fill="none" stroke="midnightblue" d="M167.29,-380.39C175.58,-372.02 187.14,-358.48 192,-344 214.03,-278.31 189.48,-194.78 176.28,-158.15"/>
<polygon fill="midnightblue" stroke="midnightblue" points="179.4,-156.49 172.62,-148.35 172.85,-158.95 179.4,-156.49"/>
</g>
<!-- Node12 -->
<g id="node12" class="node">
<title>Node12</title>
<g id="a_node12"><a xlink:href="variables_8h.html" target="_top" xlink:title=" ">
<polygon fill="white" stroke="black" points="272.5,-324.5 272.5,-343.5 335.5,-343.5 335.5,-324.5 272.5,-324.5"/>
<text text-anchor="middle" x="304" y="-331.5" font-family="Helvetica,sans-Serif" font-size="10.00">variables.h</text>
</a>
</g>
</g>
<!-- Node5&#45;&gt;Node12 -->
<g id="edge15" class="edge">
<title>Node5&#45;&gt;Node12</title>
<path fill="none" stroke="midnightblue" d="M181.13,-380.44C205.48,-371.44 244.01,-357.19 271.42,-347.05"/>
<polygon fill="midnightblue" stroke="midnightblue" points="272.81,-350.27 280.97,-343.52 270.38,-343.7 272.81,-350.27"/>
</g>
<!-- Node7&#45;&gt;Node6 -->
<g id="edge7" class="edge">
<title>Node7&#45;&gt;Node6</title>
<path fill="none" stroke="midnightblue" d="M52.38,-262.64C50.62,-230.12 49.08,-116.12 108,-56 135.2,-28.25 178.4,-17.36 212.3,-13.21"/>
<polygon fill="midnightblue" stroke="midnightblue" points="212.92,-16.66 222.49,-12.12 212.18,-9.7 212.92,-16.66"/>
</g>
<!-- Node8&#45;&gt;Node6 -->
<g id="edge9" class="edge">
<title>Node8&#45;&gt;Node6</title>
<path fill="none" stroke="midnightblue" d="M107.26,-195.92C102.76,-171.08 93.33,-98.16 128,-56 148.49,-31.08 183.21,-19.87 212.31,-14.87"/>
<polygon fill="midnightblue" stroke="midnightblue" points="212.97,-18.31 222.33,-13.35 211.92,-11.39 212.97,-18.31"/>
</g>
<!-- Node10&#45;&gt;Node6 -->
<g id="edge12" class="edge">
<title>Node10&#45;&gt;Node6</title>
<path fill="none" stroke="midnightblue" d="M175.46,-128.81C190.89,-108.04 230.1,-55.27 250.4,-27.96"/>
<polygon fill="midnightblue" stroke="midnightblue" points="253.34,-29.87 256.49,-19.76 247.72,-25.69 253.34,-29.87"/>
</g>
<!-- Node11 -->
<g id="node11" class="node">
<title>Node11</title>
<g id="a_node11"><a xlink:href="dvd_8h.html" target="_top" xlink:title=" ">
<polygon fill="white" stroke="black" points="137.5,-62 137.5,-81 196.5,-81 196.5,-62 137.5,-62"/>
<text text-anchor="middle" x="167" y="-69" font-family="Helvetica,sans-Serif" font-size="10.00">dvd/dvd.h</text>
</a>
</g>
</g>
<!-- Node10&#45;&gt;Node11 -->
<g id="edge13" class="edge">
<title>Node10&#45;&gt;Node11</title>
<path fill="none" stroke="midnightblue" d="M168.73,-128.73C168.44,-119.18 167.96,-103.62 167.58,-91.28"/>
<polygon fill="midnightblue" stroke="midnightblue" points="171.07,-91.01 167.27,-81.13 164.07,-91.23 171.07,-91.01"/>
</g>
<!-- Node11&#45;&gt;Node6 -->
<g id="edge14" class="edge">
<title>Node11&#45;&gt;Node6</title>
<path fill="none" stroke="midnightblue" d="M180.75,-61.98C196.37,-52.3 222.06,-36.37 240.58,-24.89"/>
<polygon fill="midnightblue" stroke="midnightblue" points="242.62,-27.75 249.27,-19.51 238.93,-21.8 242.62,-27.75"/>
</g>
<!-- Node13 -->
<g id="node13" class="node">
<title>Node13</title>
<g id="a_node13"><a xlink:href="JSUList_8h.html" target="_top" xlink:title=" ">
<polygon fill="white" stroke="black" points="399,-56.5 399,-86.5 535,-86.5 535,-56.5 399,-56.5"/>
<text text-anchor="start" x="407" y="-74.5" font-family="Helvetica,sans-Serif" font-size="10.00">JSystem/JSupport/JSUList</text>
<text text-anchor="middle" x="467" y="-63.5" font-family="Helvetica,sans-Serif" font-size="10.00">/JSUList.h</text>
</a>
</g>
</g>
<!-- Node12&#45;&gt;Node13 -->
<g id="edge16" class="edge">
<title>Node12&#45;&gt;Node13</title>
<path fill="none" stroke="midnightblue" d="M330.88,-324.45C358.12,-315.27 397.67,-300.33 408,-288 456.39,-230.23 424.4,-194.89 447,-123 449.77,-114.17 453.36,-104.7 456.73,-96.36"/>
<polygon fill="midnightblue" stroke="midnightblue" points="460.06,-97.46 460.66,-86.88 453.59,-94.78 460.06,-97.46"/>
</g>
<!-- Node14 -->
<g id="node14" class="node">
<title>Node14</title>
<g id="a_node14"><a xlink:href="JUTXfb_8h.html" target="_top" xlink:title=" ">
<polygon fill="white" stroke="black" points="273.5,-257.5 273.5,-287.5 398.5,-287.5 398.5,-257.5 273.5,-257.5"/>
<text text-anchor="start" x="281.5" y="-275.5" font-family="Helvetica,sans-Serif" font-size="10.00">JSystem/JUtility/JUTXfb</text>
<text text-anchor="middle" x="336" y="-264.5" font-family="Helvetica,sans-Serif" font-size="10.00">/JUTXfb.h</text>
</a>
</g>
</g>
<!-- Node12&#45;&gt;Node14 -->
<g id="edge18" class="edge">
<title>Node12&#45;&gt;Node14</title>
<path fill="none" stroke="midnightblue" d="M308.58,-324.48C312.51,-317.17 318.36,-306.3 323.64,-296.47"/>
<polygon fill="midnightblue" stroke="midnightblue" points="326.8,-297.99 328.46,-287.52 320.64,-294.67 326.8,-297.99"/>
</g>
<!-- Node18 -->
<g id="node18" class="node">
<title>Node18</title>
<g id="a_node18"><a xlink:href="mtx__vec_8h.html" target="_top" xlink:title=" ">
<polygon fill="white" stroke="black" points="213.5,-129 213.5,-148 274.5,-148 274.5,-129 213.5,-129"/>
<text text-anchor="middle" x="244" y="-136" font-family="Helvetica,sans-Serif" font-size="10.00">mtx_vec.h</text>
</a>
</g>
</g>
<!-- Node12&#45;&gt;Node18 -->
<g id="edge28" class="edge">
<title>Node12&#45;&gt;Node18</title>
<path fill="none" stroke="midnightblue" d="M293.86,-324.48C284.7,-316.18 271.68,-302.68 265,-288 245.27,-244.68 243.01,-187.5 243.33,-158.35"/>
<polygon fill="midnightblue" stroke="midnightblue" points="246.84,-158.08 243.57,-148.01 239.84,-157.92 246.84,-158.08"/>
</g>
<!-- Node13&#45;&gt;Node6 -->
<g id="edge17" class="edge">
<title>Node13&#45;&gt;Node6</title>
<path fill="none" stroke="midnightblue" d="M418.91,-56.47C383.26,-46.08 335.27,-32.08 301.99,-22.37"/>
<polygon fill="midnightblue" stroke="midnightblue" points="302.74,-18.95 292.16,-19.51 300.78,-25.67 302.74,-18.95"/>
</g>
<!-- Node14&#45;&gt;Node6 -->
<g id="edge25" class="edge">
<title>Node14&#45;&gt;Node6</title>
<path fill="none" stroke="midnightblue" d="M332.08,-257.49C319.77,-213.58 281.93,-78.56 268.12,-29.26"/>
<polygon fill="midnightblue" stroke="midnightblue" points="271.49,-28.31 265.42,-19.63 264.75,-30.2 271.49,-28.31"/>
</g>
<!-- Node15 -->
<g id="node15" class="node">
<title>Node15</title>
<g id="a_node15"><a xlink:href="JKRHeap_8h.html" target="_top" xlink:title=" ">
<polygon fill="white" stroke="black" points="459,-190.5 459,-220.5 595,-220.5 595,-190.5 459,-190.5"/>
<text text-anchor="start" x="467" y="-208.5" font-family="Helvetica,sans-Serif" font-size="10.00">JSystem/JKernel/JKRHeap</text>
<text text-anchor="middle" x="527" y="-197.5" font-family="Helvetica,sans-Serif" font-size="10.00">/JKRHeap.h</text>
</a>
</g>
</g>
<!-- Node14&#45;&gt;Node15 -->
<g id="edge19" class="edge">
<title>Node14&#45;&gt;Node15</title>
<path fill="none" stroke="midnightblue" d="M377.44,-257.4C406.35,-247.56 445.11,-234.37 475.93,-223.88"/>
<polygon fill="midnightblue" stroke="midnightblue" points="477.3,-227.11 485.64,-220.58 475.04,-220.48 477.3,-227.11"/>
</g>
<!-- Node17 -->
<g id="node17" class="node">
<title>Node17</title>
<g id="a_node17"><a xlink:href="GX_8h.html" target="_top" xlink:title=" ">
<polygon fill="white" stroke="black" points="329.5,-62 329.5,-81 380.5,-81 380.5,-62 329.5,-62"/>
<text text-anchor="middle" x="355" y="-69" font-family="Helvetica,sans-Serif" font-size="10.00">gx/GX.h</text>
</a>
</g>
</g>
<!-- Node14&#45;&gt;Node17 -->
<g id="edge26" class="edge">
<title>Node14&#45;&gt;Node17</title>
<path fill="none" stroke="midnightblue" d="M337.37,-257.19C340.73,-221.99 349.4,-131.17 353.19,-91.51"/>
<polygon fill="midnightblue" stroke="midnightblue" points="356.69,-91.65 354.15,-81.36 349.72,-90.98 356.69,-91.65"/>
</g>
<!-- Node15&#45;&gt;Node5 -->
<g id="edge24" class="edge">
<title>Node15&#45;&gt;Node5</title>
<path fill="none" stroke="midnightblue" d="M514.16,-220.51C498.06,-237.62 469.14,-266.9 441,-288 401.48,-317.63 390.83,-325.58 345,-344 294.16,-364.43 231.68,-377.16 193.36,-383.66"/>
<polygon fill="midnightblue" stroke="midnightblue" points="192.51,-380.25 183.22,-385.33 193.65,-387.16 192.51,-380.25"/>
</g>
<!-- Node15&#45;&gt;Node6 -->
<g id="edge23" class="edge">
<title>Node15&#45;&gt;Node6</title>
<path fill="none" stroke="midnightblue" d="M571.23,-190.44C588.35,-182.59 606.17,-170.89 616,-154 641.03,-111.03 605.13,-80.75 562,-56 520.69,-32.3 387.71,-19.59 313.77,-14.19"/>
<polygon fill="midnightblue" stroke="midnightblue" points="313.97,-10.7 303.75,-13.48 313.48,-17.68 313.97,-10.7"/>
</g>
<!-- Node16 -->
<g id="node16" class="node">
<title>Node16</title>
<g id="a_node16"><a xlink:href="JKRDisposer_8h.html" target="_top" xlink:title=" ">
<polygon fill="white" stroke="black" points="455.5,-123.5 455.5,-153.5 606.5,-153.5 606.5,-123.5 455.5,-123.5"/>
<text text-anchor="start" x="463.5" y="-141.5" font-family="Helvetica,sans-Serif" font-size="10.00">JSystem/JKernel/JKRDisposer</text>
<text text-anchor="middle" x="531" y="-130.5" font-family="Helvetica,sans-Serif" font-size="10.00">/JKRDisposer.h</text>
</a>
</g>
</g>
<!-- Node15&#45;&gt;Node16 -->
<g id="edge20" class="edge">
<title>Node15&#45;&gt;Node16</title>
<path fill="none" stroke="midnightblue" d="M527.87,-190.4C528.35,-182.56 528.96,-172.6 529.52,-163.57"/>
<polygon fill="midnightblue" stroke="midnightblue" points="533.01,-163.77 530.13,-153.58 526.03,-163.34 533.01,-163.77"/>
</g>
<!-- Node16&#45;&gt;Node6 -->
<g id="edge22" class="edge">
<title>Node16&#45;&gt;Node6</title>
<path fill="none" stroke="midnightblue" d="M539.29,-123.3C548.49,-105.45 560.08,-74.86 544,-56 515.01,-22 386.74,-13.58 313.93,-11.57"/>
<polygon fill="midnightblue" stroke="midnightblue" points="313.69,-8.06 303.61,-11.31 313.52,-15.06 313.69,-8.06"/>
</g>
<!-- Node16&#45;&gt;Node13 -->
<g id="edge21" class="edge">
<title>Node16&#45;&gt;Node13</title>
<path fill="none" stroke="midnightblue" d="M517.11,-123.4C508.64,-114.79 497.65,-103.63 488.11,-93.94"/>
<polygon fill="midnightblue" stroke="midnightblue" points="490.37,-91.25 480.86,-86.58 485.38,-96.16 490.37,-91.25"/>
</g>
<!-- Node17&#45;&gt;Node6 -->
<g id="edge27" class="edge">
<title>Node17&#45;&gt;Node6</title>
<path fill="none" stroke="midnightblue" d="M341.82,-61.98C326.93,-52.34 302.46,-36.52 284.73,-25.05"/>
<polygon fill="midnightblue" stroke="midnightblue" points="286.45,-22 276.16,-19.51 282.65,-27.88 286.45,-22"/>
</g>
<!-- Node18&#45;&gt;Node6 -->
<g id="edge29" class="edge">
<title>Node18&#45;&gt;Node6</title>
<path fill="none" stroke="midnightblue" d="M245.31,-128.81C248.36,-108.49 256.01,-57.55 260.18,-29.78"/>
<polygon fill="midnightblue" stroke="midnightblue" points="263.66,-30.16 261.68,-19.76 256.74,-29.12 263.66,-30.16"/>
</g>
<!-- Node19&#45;&gt;Node3 -->
<g id="edge32" class="edge">
<title>Node19&#45;&gt;Node3</title>
<path fill="none" stroke="midnightblue" d="M250.56,-548.08C245.05,-540.46 236.97,-529.26 230.24,-519.94"/>
<polygon fill="midnightblue" stroke="midnightblue" points="233.01,-517.81 224.32,-511.75 227.34,-521.91 233.01,-517.81"/>
</g>
<!-- Node19&#45;&gt;Node4 -->
<g id="edge33" class="edge">
<title>Node19&#45;&gt;Node4</title>
<path fill="none" stroke="midnightblue" d="M264.71,-548.31C275.02,-535.57 290.91,-511.25 281,-492 273.92,-478.25 260.48,-467.77 247.82,-460.39"/>
<polygon fill="midnightblue" stroke="midnightblue" points="249.31,-457.22 238.85,-455.57 246,-463.39 249.31,-457.22"/>
</g>
<!-- Node20&#45;&gt;Node2 -->
<g id="edge37" class="edge">
<title>Node20&#45;&gt;Node2</title>
<path fill="none" stroke="midnightblue" d="M243.66,-660.32C230.84,-651.98 211.22,-639.21 196.06,-629.35"/>
<polygon fill="midnightblue" stroke="midnightblue" points="197.59,-626.17 187.3,-623.65 193.78,-632.04 197.59,-626.17"/>
</g>
<!-- Node20&#45;&gt;Node4 -->
<g id="edge36" class="edge">
<title>Node20&#45;&gt;Node4</title>
<path fill="none" stroke="midnightblue" d="M266.88,-660.27C287.16,-641.24 330.81,-594.02 321,-548 315.32,-521.34 314.25,-512.24 296,-492 283.43,-478.06 265.49,-467.29 249.98,-459.79"/>
<polygon fill="midnightblue" stroke="midnightblue" points="251.26,-456.53 240.71,-455.55 248.35,-462.9 251.26,-456.53"/>
</g>
<!-- Node20&#45;&gt;Node5 -->
<g id="edge39" class="edge">
<title>Node20&#45;&gt;Node5</title>
<path fill="none" stroke="midnightblue" d="M279.76,-660.43C314.81,-645.58 378,-611.52 378,-559 378,-559 378,-559 378,-501 378,-419.46 255.6,-398.36 193.39,-392.9"/>
<polygon fill="midnightblue" stroke="midnightblue" points="193.48,-389.4 183.24,-392.1 192.93,-396.38 193.48,-389.4"/>
</g>
<!-- Node20&#45;&gt;Node19 -->
<g id="edge38" class="edge">
<title>Node20&#45;&gt;Node19</title>
<path fill="none" stroke="midnightblue" d="M257,-660.37C257,-642.62 257,-601.67 257,-577.6"/>
<polygon fill="midnightblue" stroke="midnightblue" points="260.5,-577.59 257,-567.59 253.5,-577.59 260.5,-577.59"/>
</g>
</g>
</svg>
