<?xml version="1.0" encoding="UTF-8" standalone="no"?>
<!DOCTYPE svg PUBLIC "-//W3C//DTD SVG 1.1//EN"
 "http://www.w3.org/Graphics/SVG/1.1/DTD/svg11.dtd">
<!-- Generated by graphviz version 2.46.1 (20210215.1649)
 -->
<!-- Title: include/f/f_pc/f_pc_draw.h Pages: 1 -->
<svg width="1054pt" height="889pt"
 viewBox="0.00 0.00 1054.49 889.00" xmlns="http://www.w3.org/2000/svg" xmlns:xlink="http://www.w3.org/1999/xlink">
<g id="graph0" class="graph" transform="scale(1 1) rotate(0) translate(4 885)">
<title>include/f/f_pc/f_pc_draw.h</title>
<polygon fill="white" stroke="transparent" points="-4,4 -4,-885 1050.49,-885 1050.49,4 -4,4"/>
<!-- Node1 -->
<g id="node1" class="node">
<title>Node1</title>
<g id="a_node1"><a xlink:title=" ">
<polygon fill="#bfbfbf" stroke="black" points="0,-850.5 0,-880.5 97,-880.5 97,-850.5 0,-850.5"/>
<text text-anchor="start" x="8" y="-868.5" font-family="Helvetica,sans-Serif" font-size="10.00">include/f/f_pc/f_pc</text>
<text text-anchor="middle" x="48.5" y="-857.5" font-family="Helvetica,sans-Serif" font-size="10.00">_draw.h</text>
</a>
</g>
</g>
<!-- Node2 -->
<g id="node2" class="node">
<title>Node2</title>
<g id="a_node2"><a xlink:href="c__node__iter_8h.html" target="_top" xlink:title=" ">
<polygon fill="white" stroke="black" points="95.5,-604.5 95.5,-623.5 229.5,-623.5 229.5,-604.5 95.5,-604.5"/>
<text text-anchor="middle" x="162.5" y="-611.5" font-family="Helvetica,sans-Serif" font-size="10.00">SComponent/c_node_iter.h</text>
</a>
</g>
</g>
<!-- Node1&#45;&gt;Node2 -->
<g id="edge1" class="edge">
<title>Node1&#45;&gt;Node2</title>
<path fill="none" stroke="midnightblue" d="M54.96,-850.37C74.4,-807.82 132.39,-680.89 154.14,-633.3"/>
<polygon fill="midnightblue" stroke="midnightblue" points="157.45,-634.48 158.42,-623.93 151.08,-631.57 157.45,-634.48"/>
</g>
<!-- Node4 -->
<g id="node4" class="node">
<title>Node4</title>
<g id="a_node4"><a xlink:href="global_8h.html" target="_top" xlink:title=" ">
<polygon fill="white" stroke="black" points="550.5,-380.5 550.5,-399.5 600.5,-399.5 600.5,-380.5 550.5,-380.5"/>
<text text-anchor="middle" x="575.5" y="-387.5" font-family="Helvetica,sans-Serif" font-size="10.00">global.h</text>
</a>
</g>
</g>
<!-- Node1&#45;&gt;Node4 -->
<g id="edge63" class="edge">
<title>Node1&#45;&gt;Node4</title>
<path fill="none" stroke="midnightblue" d="M40.99,-850.42C29.92,-828.31 10.5,-783.79 10.5,-743.5 10.5,-743.5 10.5,-743.5 10.5,-501 10.5,-392.49 417.1,-388.92 540.45,-390.34"/>
<polygon fill="midnightblue" stroke="midnightblue" points="540.45,-393.84 550.49,-390.47 540.54,-386.84 540.45,-393.84"/>
</g>
<!-- Node18 -->
<g id="node18" class="node">
<title>Node18</title>
<g id="a_node18"><a xlink:href="f__pc__base_8h.html" target="_top" xlink:title=" ">
<polygon fill="white" stroke="black" points="477,-794.5 477,-813.5 574,-813.5 574,-794.5 477,-794.5"/>
<text text-anchor="middle" x="525.5" y="-801.5" font-family="Helvetica,sans-Serif" font-size="10.00">f/f_pc/f_pc_base.h</text>
</a>
</g>
</g>
<!-- Node1&#45;&gt;Node18 -->
<g id="edge29" class="edge">
<title>Node1&#45;&gt;Node18</title>
<path fill="none" stroke="midnightblue" d="M97.31,-858.41C185.62,-847.4 371.6,-824.2 466.73,-812.33"/>
<polygon fill="midnightblue" stroke="midnightblue" points="467.27,-815.79 476.76,-811.08 466.41,-808.84 467.27,-815.79"/>
</g>
<!-- Node3 -->
<g id="node3" class="node">
<title>Node3</title>
<g id="a_node3"><a xlink:href="c__node_8h.html" target="_top" xlink:title=" ">
<polygon fill="white" stroke="black" points="361,-436.5 361,-455.5 476,-455.5 476,-436.5 361,-436.5"/>
<text text-anchor="middle" x="418.5" y="-443.5" font-family="Helvetica,sans-Serif" font-size="10.00">SComponent/c_node.h</text>
</a>
</g>
</g>
<!-- Node2&#45;&gt;Node3 -->
<g id="edge2" class="edge">
<title>Node2&#45;&gt;Node3</title>
<path fill="none" stroke="midnightblue" d="M172.2,-604.22C195.99,-583 259.64,-528.01 319.5,-492 340.81,-479.18 366.41,-467.63 386.23,-459.45"/>
<polygon fill="midnightblue" stroke="midnightblue" points="387.79,-462.6 395.74,-455.6 385.16,-456.11 387.79,-462.6"/>
</g>
<!-- Node3&#45;&gt;Node4 -->
<g id="edge3" class="edge">
<title>Node3&#45;&gt;Node4</title>
<path fill="none" stroke="midnightblue" d="M443.38,-436.44C469.79,-427.36 511.72,-412.94 541.24,-402.78"/>
<polygon fill="midnightblue" stroke="midnightblue" points="542.42,-406.08 550.74,-399.52 540.14,-399.46 542.42,-406.08"/>
</g>
<!-- Node5 -->
<g id="node5" class="node">
<title>Node5</title>
<g id="a_node5"><a xlink:href="types_8h.html" target="_top" xlink:title=" ">
<polygon fill="white" stroke="black" points="654,-0.5 654,-19.5 735,-19.5 735,-0.5 654,-0.5"/>
<text text-anchor="middle" x="694.5" y="-7.5" font-family="Helvetica,sans-Serif" font-size="10.00">dolphin/types.h</text>
</a>
</g>
</g>
<!-- Node4&#45;&gt;Node5 -->
<g id="edge4" class="edge">
<title>Node4&#45;&gt;Node5</title>
<path fill="none" stroke="midnightblue" d="M550.29,-381.25C509.74,-367.03 434.5,-332.67 434.5,-273.5 434.5,-273.5 434.5,-273.5 434.5,-137.5 434.5,-45.45 567.91,-20.37 643.6,-13.54"/>
<polygon fill="midnightblue" stroke="midnightblue" points="644.2,-17 653.88,-12.69 643.62,-10.03 644.2,-17"/>
</g>
<!-- Node6 -->
<g id="node6" class="node">
<title>Node6</title>
<g id="a_node6"><a xlink:href="AR_8h.html" target="_top" xlink:title=" ">
<polygon fill="white" stroke="black" points="463,-196 463,-215 512,-215 512,-196 463,-196"/>
<text text-anchor="middle" x="487.5" y="-203" font-family="Helvetica,sans-Serif" font-size="10.00">ar/AR.h</text>
</a>
</g>
</g>
<!-- Node4&#45;&gt;Node6 -->
<g id="edge5" class="edge">
<title>Node4&#45;&gt;Node6</title>
<path fill="none" stroke="midnightblue" d="M566.07,-380.3C557.02,-371.65 543.33,-357.73 533.5,-344 517.06,-321.04 512.99,-314.59 503.5,-288 496.1,-267.26 491.83,-242.25 489.6,-225.46"/>
<polygon fill="midnightblue" stroke="midnightblue" points="493.04,-224.8 488.36,-215.29 486.09,-225.64 493.04,-224.8"/>
</g>
<!-- Node7 -->
<g id="node7" class="node">
<title>Node7</title>
<g id="a_node7"><a xlink:href="ARQ_8h.html" target="_top" xlink:title=" ">
<polygon fill="white" stroke="black" points="512.5,-263 512.5,-282 568.5,-282 568.5,-263 512.5,-263"/>
<text text-anchor="middle" x="540.5" y="-270" font-family="Helvetica,sans-Serif" font-size="10.00">ar/ARQ.h</text>
</a>
</g>
</g>
<!-- Node4&#45;&gt;Node7 -->
<g id="edge7" class="edge">
<title>Node4&#45;&gt;Node7</title>
<path fill="none" stroke="midnightblue" d="M566.26,-380.38C558,-372 546.46,-358.45 541.5,-344 535.73,-327.19 536.18,-306.77 537.66,-292.24"/>
<polygon fill="midnightblue" stroke="midnightblue" points="541.17,-292.4 538.96,-282.04 534.22,-291.51 541.17,-292.4"/>
</g>
<!-- Node8 -->
<g id="node8" class="node">
<title>Node8</title>
<g id="a_node8"><a xlink:href="mwcc_8h.html" target="_top" xlink:title=" ">
<polygon fill="white" stroke="black" points="550.5,-324.5 550.5,-343.5 600.5,-343.5 600.5,-324.5 550.5,-324.5"/>
<text text-anchor="middle" x="575.5" y="-331.5" font-family="Helvetica,sans-Serif" font-size="10.00">mwcc.h</text>
</a>
</g>
</g>
<!-- Node4&#45;&gt;Node8 -->
<g id="edge9" class="edge">
<title>Node4&#45;&gt;Node8</title>
<path fill="none" stroke="midnightblue" d="M575.5,-380.08C575.5,-373.01 575.5,-362.86 575.5,-353.99"/>
<polygon fill="midnightblue" stroke="midnightblue" points="579,-353.75 575.5,-343.75 572,-353.75 579,-353.75"/>
</g>
<!-- Node9 -->
<g id="node9" class="node">
<title>Node9</title>
<g id="a_node9"><a xlink:href="OS_8h.html" target="_top" xlink:title=" ">
<polygon fill="white" stroke="black" points="572.5,-129 572.5,-148 624.5,-148 624.5,-129 572.5,-129"/>
<text text-anchor="middle" x="598.5" y="-136" font-family="Helvetica,sans-Serif" font-size="10.00">os/OS.h</text>
</a>
</g>
</g>
<!-- Node4&#45;&gt;Node9 -->
<g id="edge10" class="edge">
<title>Node4&#45;&gt;Node9</title>
<path fill="none" stroke="midnightblue" d="M584.79,-380.39C593.08,-372.02 604.64,-358.48 609.5,-344 631.42,-278.62 613.82,-194.94 603.99,-158.2"/>
<polygon fill="midnightblue" stroke="midnightblue" points="607.31,-157.07 601.24,-148.38 600.57,-158.96 607.31,-157.07"/>
</g>
<!-- Node11 -->
<g id="node11" class="node">
<title>Node11</title>
<g id="a_node11"><a xlink:href="variables_8h.html" target="_top" xlink:title=" ">
<polygon fill="white" stroke="black" points="692,-324.5 692,-343.5 755,-343.5 755,-324.5 692,-324.5"/>
<text text-anchor="middle" x="723.5" y="-331.5" font-family="Helvetica,sans-Serif" font-size="10.00">variables.h</text>
</a>
</g>
</g>
<!-- Node4&#45;&gt;Node11 -->
<g id="edge14" class="edge">
<title>Node4&#45;&gt;Node11</title>
<path fill="none" stroke="midnightblue" d="M598.95,-380.44C623.63,-371.44 662.69,-357.19 690.48,-347.05"/>
<polygon fill="midnightblue" stroke="midnightblue" points="691.96,-350.23 700.16,-343.52 689.56,-343.66 691.96,-350.23"/>
</g>
<!-- Node6&#45;&gt;Node5 -->
<g id="edge6" class="edge">
<title>Node6&#45;&gt;Node5</title>
<path fill="none" stroke="midnightblue" d="M487,-195.68C486.07,-170.19 487.02,-95.68 526.5,-56 557.16,-25.19 606.47,-14.8 643.75,-11.61"/>
<polygon fill="midnightblue" stroke="midnightblue" points="644.2,-15.09 653.92,-10.89 643.7,-8.1 644.2,-15.09"/>
</g>
<!-- Node7&#45;&gt;Node5 -->
<g id="edge8" class="edge">
<title>Node7&#45;&gt;Node5</title>
<path fill="none" stroke="midnightblue" d="M538.28,-262.91C530.66,-231.35 508.75,-120.25 559.5,-56 579.57,-30.59 614.47,-19.41 643.75,-14.54"/>
<polygon fill="midnightblue" stroke="midnightblue" points="644.45,-17.97 653.84,-13.07 643.44,-11.05 644.45,-17.97"/>
</g>
<!-- Node9&#45;&gt;Node5 -->
<g id="edge11" class="edge">
<title>Node9&#45;&gt;Node5</title>
<path fill="none" stroke="midnightblue" d="M605.1,-128.81C620.85,-108.04 660.9,-55.27 681.63,-27.96"/>
<polygon fill="midnightblue" stroke="midnightblue" points="684.6,-29.84 687.86,-19.76 679.02,-25.61 684.6,-29.84"/>
</g>
<!-- Node10 -->
<g id="node10" class="node">
<title>Node10</title>
<g id="a_node10"><a xlink:href="dvd_8h.html" target="_top" xlink:title=" ">
<polygon fill="white" stroke="black" points="569,-62 569,-81 628,-81 628,-62 569,-62"/>
<text text-anchor="middle" x="598.5" y="-69" font-family="Helvetica,sans-Serif" font-size="10.00">dvd/dvd.h</text>
</a>
</g>
</g>
<!-- Node9&#45;&gt;Node10 -->
<g id="edge12" class="edge">
<title>Node9&#45;&gt;Node10</title>
<path fill="none" stroke="midnightblue" d="M598.5,-128.73C598.5,-119.18 598.5,-103.62 598.5,-91.28"/>
<polygon fill="midnightblue" stroke="midnightblue" points="602,-91.13 598.5,-81.13 595,-91.13 602,-91.13"/>
</g>
<!-- Node10&#45;&gt;Node5 -->
<g id="edge13" class="edge">
<title>Node10&#45;&gt;Node5</title>
<path fill="none" stroke="midnightblue" d="M612.25,-61.98C627.87,-52.3 653.56,-36.37 672.08,-24.89"/>
<polygon fill="midnightblue" stroke="midnightblue" points="674.12,-27.75 680.77,-19.51 670.43,-21.8 674.12,-27.75"/>
</g>
<!-- Node12 -->
<g id="node12" class="node">
<title>Node12</title>
<g id="a_node12"><a xlink:href="JSUList_8h.html" target="_top" xlink:title=" ">
<polygon fill="white" stroke="black" points="830.5,-56.5 830.5,-86.5 966.5,-86.5 966.5,-56.5 830.5,-56.5"/>
<text text-anchor="start" x="838.5" y="-74.5" font-family="Helvetica,sans-Serif" font-size="10.00">JSystem/JSupport/JSUList</text>
<text text-anchor="middle" x="898.5" y="-63.5" font-family="Helvetica,sans-Serif" font-size="10.00">/JSUList.h</text>
</a>
</g>
</g>
<!-- Node11&#45;&gt;Node12 -->
<g id="edge15" class="edge">
<title>Node11&#45;&gt;Node12</title>
<path fill="none" stroke="midnightblue" d="M750.63,-324.48C778.13,-315.32 818.07,-300.41 828.5,-288 876.99,-230.32 838.76,-192.66 867.5,-123 871.42,-113.5 877,-103.73 882.35,-95.34"/>
<polygon fill="midnightblue" stroke="midnightblue" points="885.36,-97.13 887.97,-86.86 879.53,-93.26 885.36,-97.13"/>
</g>
<!-- Node13 -->
<g id="node13" class="node">
<title>Node13</title>
<g id="a_node13"><a xlink:href="JUTXfb_8h.html" target="_top" xlink:title=" ">
<polygon fill="white" stroke="black" points="695,-257.5 695,-287.5 820,-287.5 820,-257.5 695,-257.5"/>
<text text-anchor="start" x="703" y="-275.5" font-family="Helvetica,sans-Serif" font-size="10.00">JSystem/JUtility/JUTXfb</text>
<text text-anchor="middle" x="757.5" y="-264.5" font-family="Helvetica,sans-Serif" font-size="10.00">/JUTXfb.h</text>
</a>
</g>
</g>
<!-- Node11&#45;&gt;Node13 -->
<g id="edge17" class="edge">
<title>Node11&#45;&gt;Node13</title>
<path fill="none" stroke="midnightblue" d="M728.37,-324.48C732.55,-317.17 738.76,-306.3 744.37,-296.47"/>
<polygon fill="midnightblue" stroke="midnightblue" points="747.56,-297.94 749.49,-287.52 741.49,-294.47 747.56,-297.94"/>
</g>
<!-- Node17 -->
<g id="node17" class="node">
<title>Node17</title>
<g id="a_node17"><a xlink:href="mtx__vec_8h.html" target="_top" xlink:title=" ">
<polygon fill="white" stroke="black" points="643,-129 643,-148 704,-148 704,-129 643,-129"/>
<text text-anchor="middle" x="673.5" y="-136" font-family="Helvetica,sans-Serif" font-size="10.00">mtx_vec.h</text>
</a>
</g>
</g>
<!-- Node11&#45;&gt;Node17 -->
<g id="edge27" class="edge">
<title>Node11&#45;&gt;Node17</title>
<path fill="none" stroke="midnightblue" d="M713.07,-324.19C704.03,-315.89 691.5,-302.56 685.5,-288 667.49,-244.3 669.08,-187.32 671.46,-158.29"/>
<polygon fill="midnightblue" stroke="midnightblue" points="674.95,-158.58 672.41,-148.3 667.98,-157.92 674.95,-158.58"/>
</g>
<!-- Node12&#45;&gt;Node5 -->
<g id="edge16" class="edge">
<title>Node12&#45;&gt;Node5</title>
<path fill="none" stroke="midnightblue" d="M850.41,-56.47C814.76,-46.08 766.77,-32.08 733.49,-22.37"/>
<polygon fill="midnightblue" stroke="midnightblue" points="734.24,-18.95 723.66,-19.51 732.28,-25.67 734.24,-18.95"/>
</g>
<!-- Node13&#45;&gt;Node5 -->
<g id="edge24" class="edge">
<title>Node13&#45;&gt;Node5</title>
<path fill="none" stroke="midnightblue" d="M754.11,-257.49C743.51,-213.67 710.98,-79.13 698.99,-29.58"/>
<polygon fill="midnightblue" stroke="midnightblue" points="702.34,-28.52 696.59,-19.63 695.53,-30.17 702.34,-28.52"/>
</g>
<!-- Node14 -->
<g id="node14" class="node">
<title>Node14</title>
<g id="a_node14"><a xlink:href="JKRHeap_8h.html" target="_top" xlink:title=" ">
<polygon fill="white" stroke="black" points="880.5,-190.5 880.5,-220.5 1016.5,-220.5 1016.5,-190.5 880.5,-190.5"/>
<text text-anchor="start" x="888.5" y="-208.5" font-family="Helvetica,sans-Serif" font-size="10.00">JSystem/JKernel/JKRHeap</text>
<text text-anchor="middle" x="948.5" y="-197.5" font-family="Helvetica,sans-Serif" font-size="10.00">/JKRHeap.h</text>
</a>
</g>
</g>
<!-- Node13&#45;&gt;Node14 -->
<g id="edge18" class="edge">
<title>Node13&#45;&gt;Node14</title>
<path fill="none" stroke="midnightblue" d="M798.94,-257.4C827.85,-247.56 866.61,-234.37 897.43,-223.88"/>
<polygon fill="midnightblue" stroke="midnightblue" points="898.8,-227.11 907.14,-220.58 896.54,-220.48 898.8,-227.11"/>
</g>
<!-- Node16 -->
<g id="node16" class="node">
<title>Node16</title>
<g id="a_node16"><a xlink:href="GX_8h.html" target="_top" xlink:title=" ">
<polygon fill="white" stroke="black" points="761,-62 761,-81 812,-81 812,-62 761,-62"/>
<text text-anchor="middle" x="786.5" y="-69" font-family="Helvetica,sans-Serif" font-size="10.00">gx/GX.h</text>
</a>
</g>
</g>
<!-- Node13&#45;&gt;Node16 -->
<g id="edge25" class="edge">
<title>Node13&#45;&gt;Node16</title>
<path fill="none" stroke="midnightblue" d="M759.59,-257.19C764.72,-221.99 777.95,-131.17 783.73,-91.51"/>
<polygon fill="midnightblue" stroke="midnightblue" points="787.23,-91.76 785.21,-81.36 780.3,-90.75 787.23,-91.76"/>
</g>
<!-- Node14&#45;&gt;Node4 -->
<g id="edge23" class="edge">
<title>Node14&#45;&gt;Node4</title>
<path fill="none" stroke="midnightblue" d="M935.71,-220.57C919.65,-237.75 890.78,-267.09 862.5,-288 821.85,-318.05 810.54,-325.49 763.5,-344 712.12,-364.22 649.13,-377.04 610.67,-383.61"/>
<polygon fill="midnightblue" stroke="midnightblue" points="609.8,-380.21 600.51,-385.3 610.95,-387.12 609.8,-380.21"/>
</g>
<!-- Node14&#45;&gt;Node5 -->
<g id="edge22" class="edge">
<title>Node14&#45;&gt;Node5</title>
<path fill="none" stroke="midnightblue" d="M992.73,-190.44C1009.85,-182.59 1027.67,-170.89 1037.5,-154 1061.53,-112.74 1033.71,-81.75 993.5,-56 953.34,-30.28 819.56,-18.4 745.29,-13.67"/>
<polygon fill="midnightblue" stroke="midnightblue" points="745.41,-10.17 735.22,-13.05 744.98,-17.16 745.41,-10.17"/>
</g>
<!-- Node15 -->
<g id="node15" class="node">
<title>Node15</title>
<g id="a_node15"><a xlink:href="JKRDisposer_8h.html" target="_top" xlink:title=" ">
<polygon fill="white" stroke="black" points="877,-123.5 877,-153.5 1028,-153.5 1028,-123.5 877,-123.5"/>
<text text-anchor="start" x="885" y="-141.5" font-family="Helvetica,sans-Serif" font-size="10.00">JSystem/JKernel/JKRDisposer</text>
<text text-anchor="middle" x="952.5" y="-130.5" font-family="Helvetica,sans-Serif" font-size="10.00">/JKRDisposer.h</text>
</a>
</g>
</g>
<!-- Node14&#45;&gt;Node15 -->
<g id="edge19" class="edge">
<title>Node14&#45;&gt;Node15</title>
<path fill="none" stroke="midnightblue" d="M949.37,-190.4C949.85,-182.56 950.46,-172.6 951.02,-163.57"/>
<polygon fill="midnightblue" stroke="midnightblue" points="954.51,-163.77 951.63,-153.58 947.53,-163.34 954.51,-163.77"/>
</g>
<!-- Node15&#45;&gt;Node5 -->
<g id="edge21" class="edge">
<title>Node15&#45;&gt;Node5</title>
<path fill="none" stroke="midnightblue" d="M963.39,-123.46C975.7,-105.77 992,-75.35 975.5,-56 946.51,-22 818.24,-13.58 745.43,-11.57"/>
<polygon fill="midnightblue" stroke="midnightblue" points="745.19,-8.06 735.11,-11.31 745.02,-15.06 745.19,-8.06"/>
</g>
<!-- Node15&#45;&gt;Node12 -->
<g id="edge20" class="edge">
<title>Node15&#45;&gt;Node12</title>
<path fill="none" stroke="midnightblue" d="M940.78,-123.4C933.78,-114.96 924.73,-104.07 916.79,-94.52"/>
<polygon fill="midnightblue" stroke="midnightblue" points="919.28,-92.03 910.19,-86.58 913.89,-96.51 919.28,-92.03"/>
</g>
<!-- Node16&#45;&gt;Node5 -->
<g id="edge26" class="edge">
<title>Node16&#45;&gt;Node5</title>
<path fill="none" stroke="midnightblue" d="M773.32,-61.98C758.43,-52.34 733.96,-36.52 716.23,-25.05"/>
<polygon fill="midnightblue" stroke="midnightblue" points="717.95,-22 707.66,-19.51 714.15,-27.88 717.95,-22"/>
</g>
<!-- Node17&#45;&gt;Node5 -->
<g id="edge28" class="edge">
<title>Node17&#45;&gt;Node5</title>
<path fill="none" stroke="midnightblue" d="M674.94,-128.81C678.32,-108.49 686.77,-57.55 691.38,-29.78"/>
<polygon fill="midnightblue" stroke="midnightblue" points="694.86,-30.19 693.05,-19.76 687.96,-29.05 694.86,-30.19"/>
</g>
<!-- Node18&#45;&gt;Node4 -->
<g id="edge38" class="edge">
<title>Node18&#45;&gt;Node4</title>
<path fill="none" stroke="midnightblue" d="M574.11,-798.99C640.36,-792.82 754.84,-779.4 790.5,-758 829.76,-734.44 853.5,-722.28 853.5,-676.5 853.5,-676.5 853.5,-676.5 853.5,-501 853.5,-467.08 841.44,-455.24 813.5,-436 781.06,-413.66 668.64,-399.92 610.68,-394.15"/>
<polygon fill="midnightblue" stroke="midnightblue" points="610.81,-390.65 600.52,-393.17 610.13,-397.62 610.81,-390.65"/>
</g>
<!-- Node19 -->
<g id="node19" class="node">
<title>Node19</title>
<g id="a_node19"><a xlink:href="c__tag_8h.html" target="_top" xlink:title=" ">
<polygon fill="white" stroke="black" points="446,-604.5 446,-623.5 553,-623.5 553,-604.5 446,-604.5"/>
<text text-anchor="middle" x="499.5" y="-611.5" font-family="Helvetica,sans-Serif" font-size="10.00">SComponent/c_tag.h</text>
</a>
</g>
</g>
<!-- Node18&#45;&gt;Node19 -->
<g id="edge30" class="edge">
<title>Node18&#45;&gt;Node19</title>
<path fill="none" stroke="midnightblue" d="M520.21,-794.42C515.12,-785.64 507.72,-771.41 504.5,-758 494.04,-714.46 495.83,-661.34 497.81,-633.72"/>
<polygon fill="midnightblue" stroke="midnightblue" points="501.31,-633.79 498.63,-623.54 494.33,-633.23 501.31,-633.79"/>
</g>
<!-- Node22 -->
<g id="node22" class="node">
<title>Node22</title>
<g id="a_node22"><a xlink:href="f__pc__delete__tag_8h.html" target="_top" xlink:title=" ">
<polygon fill="white" stroke="black" points="362,-727.5 362,-757.5 457,-757.5 457,-727.5 362,-727.5"/>
<text text-anchor="start" x="370" y="-745.5" font-family="Helvetica,sans-Serif" font-size="10.00">f/f_pc/f_pc_delete</text>
<text text-anchor="middle" x="409.5" y="-734.5" font-family="Helvetica,sans-Serif" font-size="10.00">_tag.h</text>
</a>
</g>
</g>
<!-- Node18&#45;&gt;Node22 -->
<g id="edge39" class="edge">
<title>Node18&#45;&gt;Node22</title>
<path fill="none" stroke="midnightblue" d="M508.88,-794.48C492.51,-786.08 466.96,-772.97 445.87,-762.15"/>
<polygon fill="midnightblue" stroke="midnightblue" points="447.33,-758.97 436.84,-757.52 444.14,-765.2 447.33,-758.97"/>
</g>
<!-- Node24 -->
<g id="node24" class="node">
<title>Node24</title>
<g id="a_node24"><a xlink:href="f__pc__layer__tag_8h.html" target="_top" xlink:title=" ">
<polygon fill="white" stroke="black" points="229,-733 229,-752 344,-752 344,-733 229,-733"/>
<text text-anchor="middle" x="286.5" y="-740" font-family="Helvetica,sans-Serif" font-size="10.00">f/f_pc/f_pc_layer_tag.h</text>
</a>
</g>
</g>
<!-- Node18&#45;&gt;Node24 -->
<g id="edge47" class="edge">
<title>Node18&#45;&gt;Node24</title>
<path fill="none" stroke="midnightblue" d="M491.26,-794.48C448.93,-783.94 376.82,-765.99 330.45,-754.44"/>
<polygon fill="midnightblue" stroke="midnightblue" points="331.23,-751.03 320.68,-752.01 329.54,-757.82 331.23,-751.03"/>
</g>
<!-- Node25 -->
<g id="node25" class="node">
<title>Node25</title>
<g id="a_node25"><a xlink:href="f__pc__line__tag_8h.html" target="_top" xlink:title=" ">
<polygon fill="white" stroke="black" points="671.5,-666 671.5,-685 781.5,-685 781.5,-666 671.5,-666"/>
<text text-anchor="middle" x="726.5" y="-673" font-family="Helvetica,sans-Serif" font-size="10.00">f/f_pc/f_pc_line_tag.h</text>
</a>
</g>
</g>
<!-- Node18&#45;&gt;Node25 -->
<g id="edge51" class="edge">
<title>Node18&#45;&gt;Node25</title>
<path fill="none" stroke="midnightblue" d="M549.24,-794.48C570.29,-786.46 601.48,-773.39 626.5,-758 658.41,-738.37 691.3,-709.61 710.28,-692.02"/>
<polygon fill="midnightblue" stroke="midnightblue" points="712.85,-694.41 717.74,-685.01 708.06,-689.3 712.85,-694.41"/>
</g>
<!-- Node26 -->
<g id="node26" class="node">
<title>Node26</title>
<g id="a_node26"><a xlink:href="f__pc__priority_8h.html" target="_top" xlink:title=" ">
<polygon fill="white" stroke="black" points="513.5,-733 513.5,-752 617.5,-752 617.5,-733 513.5,-733"/>
<text text-anchor="middle" x="565.5" y="-740" font-family="Helvetica,sans-Serif" font-size="10.00">f/f_pc/f_pc_priority.h</text>
</a>
</g>
</g>
<!-- Node18&#45;&gt;Node26 -->
<g id="edge54" class="edge">
<title>Node18&#45;&gt;Node26</title>
<path fill="none" stroke="midnightblue" d="M531.23,-794.48C537.17,-785.64 546.62,-771.59 554.09,-760.48"/>
<polygon fill="midnightblue" stroke="midnightblue" points="557.11,-762.26 559.78,-752.01 551.3,-758.36 557.11,-762.26"/>
</g>
<!-- Node28 -->
<g id="node28" class="node">
<title>Node28</title>
<g id="a_node28"><a xlink:href="f__pc__profile_8h.html" target="_top" xlink:title=" ">
<polygon fill="white" stroke="black" points="724,-492.5 724,-511.5 825,-511.5 825,-492.5 724,-492.5"/>
<text text-anchor="middle" x="774.5" y="-499.5" font-family="Helvetica,sans-Serif" font-size="10.00">f/f_pc/f_pc_profile.h</text>
</a>
</g>
</g>
<!-- Node18&#45;&gt;Node28 -->
<g id="edge59" class="edge">
<title>Node18&#45;&gt;Node28</title>
<path fill="none" stroke="midnightblue" d="M574.32,-802.47C655.52,-798.74 809.5,-778.24 809.5,-676.5 809.5,-676.5 809.5,-676.5 809.5,-613 809.5,-579.07 794.19,-541.91 783.82,-520.63"/>
<polygon fill="midnightblue" stroke="midnightblue" points="786.86,-518.88 779.22,-511.54 780.62,-522.05 786.86,-518.88"/>
</g>
<!-- Node19&#45;&gt;Node3 -->
<g id="edge33" class="edge">
<title>Node19&#45;&gt;Node3</title>
<path fill="none" stroke="midnightblue" d="M504.5,-604.25C515.85,-583.09 540.84,-528.25 517.5,-492 507.19,-475.99 489.65,-465.62 472.17,-458.92"/>
<polygon fill="midnightblue" stroke="midnightblue" points="473.1,-455.54 462.51,-455.56 470.8,-462.15 473.1,-455.54"/>
</g>
<!-- Node19&#45;&gt;Node4 -->
<g id="edge37" class="edge">
<title>Node19&#45;&gt;Node4</title>
<path fill="none" stroke="midnightblue" d="M509.15,-604.32C517.9,-595.9 530.47,-582.32 537.5,-568 563.77,-514.5 571.97,-443.13 574.46,-409.73"/>
<polygon fill="midnightblue" stroke="midnightblue" points="577.96,-409.8 575.12,-399.59 570.98,-409.34 577.96,-409.8"/>
</g>
<!-- Node20 -->
<g id="node20" class="node">
<title>Node20</title>
<g id="a_node20"><a xlink:href="c__list_8h.html" target="_top" xlink:title=" ">
<polygon fill="white" stroke="black" points="402,-492.5 402,-511.5 509,-511.5 509,-492.5 402,-492.5"/>
<text text-anchor="middle" x="455.5" y="-499.5" font-family="Helvetica,sans-Serif" font-size="10.00">SComponent/c_list.h</text>
</a>
</g>
</g>
<!-- Node19&#45;&gt;Node20 -->
<g id="edge31" class="edge">
<title>Node19&#45;&gt;Node20</title>
<path fill="none" stroke="midnightblue" d="M497.63,-604.38C494.74,-591.73 488.66,-567.53 480.5,-548 476.54,-538.52 471.09,-528.47 466.29,-520.29"/>
<polygon fill="midnightblue" stroke="midnightblue" points="469.25,-518.42 461.08,-511.67 463.26,-522.04 469.25,-518.42"/>
</g>
<!-- Node21 -->
<g id="node21" class="node">
<title>Node21</title>
<g id="a_node21"><a xlink:href="c__tree_8h.html" target="_top" xlink:title=" ">
<polygon fill="white" stroke="black" points="361.5,-548.5 361.5,-567.5 471.5,-567.5 471.5,-548.5 361.5,-548.5"/>
<text text-anchor="middle" x="416.5" y="-555.5" font-family="Helvetica,sans-Serif" font-size="10.00">SComponent/c_tree.h</text>
</a>
</g>
</g>
<!-- Node19&#45;&gt;Node21 -->
<g id="edge34" class="edge">
<title>Node19&#45;&gt;Node21</title>
<path fill="none" stroke="midnightblue" d="M486.16,-604.32C473.34,-595.98 453.72,-583.21 438.56,-573.35"/>
<polygon fill="midnightblue" stroke="midnightblue" points="440.09,-570.17 429.8,-567.65 436.28,-576.04 440.09,-570.17"/>
</g>
<!-- Node20&#45;&gt;Node3 -->
<g id="edge32" class="edge">
<title>Node20&#45;&gt;Node3</title>
<path fill="none" stroke="midnightblue" d="M449.39,-492.08C444.22,-484.53 436.65,-473.49 430.31,-464.23"/>
<polygon fill="midnightblue" stroke="midnightblue" points="433.04,-462.02 424.5,-455.75 427.26,-465.98 433.04,-462.02"/>
</g>
<!-- Node21&#45;&gt;Node3 -->
<g id="edge36" class="edge">
<title>Node21&#45;&gt;Node3</title>
<path fill="none" stroke="midnightblue" d="M409.63,-548.33C400.72,-536.03 386.95,-512.68 392.5,-492 395.15,-482.1 400.57,-472.13 405.77,-464.1"/>
<polygon fill="midnightblue" stroke="midnightblue" points="408.79,-465.89 411.61,-455.68 403.04,-461.91 408.79,-465.89"/>
</g>
<!-- Node21&#45;&gt;Node20 -->
<g id="edge35" class="edge">
<title>Node21&#45;&gt;Node20</title>
<path fill="none" stroke="midnightblue" d="M422.94,-548.08C428.45,-540.46 436.53,-529.26 443.26,-519.94"/>
<polygon fill="midnightblue" stroke="midnightblue" points="446.16,-521.91 449.18,-511.75 440.49,-517.81 446.16,-521.91"/>
</g>
<!-- Node22&#45;&gt;Node4 -->
<g id="edge46" class="edge">
<title>Node22&#45;&gt;Node4</title>
<path fill="none" stroke="midnightblue" d="M361.84,-728.49C328.64,-718.51 288.27,-704.25 276.5,-691 253.37,-664.97 257.5,-649.82 257.5,-615 257.5,-615 257.5,-615 257.5,-501 257.5,-462.28 281.65,-454.79 315.5,-436 353.55,-414.88 478.35,-400.32 540.16,-394.22"/>
<polygon fill="midnightblue" stroke="midnightblue" points="540.61,-397.69 550.23,-393.24 539.94,-390.72 540.61,-397.69"/>
</g>
<!-- Node22&#45;&gt;Node19 -->
<g id="edge40" class="edge">
<title>Node22&#45;&gt;Node19</title>
<path fill="none" stroke="midnightblue" d="M419.48,-727.48C436.11,-704.1 469.44,-657.25 487.39,-632.02"/>
<polygon fill="midnightblue" stroke="midnightblue" points="490.3,-633.97 493.25,-623.79 484.6,-629.91 490.3,-633.97"/>
</g>
<!-- Node23 -->
<g id="node23" class="node">
<title>Node23</title>
<g id="a_node23"><a xlink:href="f__pc__layer_8h.html" target="_top" xlink:title=" ">
<polygon fill="white" stroke="black" points="285.5,-666 285.5,-685 381.5,-685 381.5,-666 285.5,-666"/>
<text text-anchor="middle" x="333.5" y="-673" font-family="Helvetica,sans-Serif" font-size="10.00">f/f_pc/f_pc_layer.h</text>
</a>
</g>
</g>
<!-- Node22&#45;&gt;Node23 -->
<g id="edge41" class="edge">
<title>Node22&#45;&gt;Node23</title>
<path fill="none" stroke="midnightblue" d="M393.01,-727.4C380.81,-716.96 364.19,-702.75 351.62,-692"/>
<polygon fill="midnightblue" stroke="midnightblue" points="353.54,-689.03 343.67,-685.19 348.99,-694.35 353.54,-689.03"/>
</g>
<!-- Node23&#45;&gt;Node3 -->
<g id="edge42" class="edge">
<title>Node23&#45;&gt;Node3</title>
<path fill="none" stroke="midnightblue" d="M333.6,-665.92C334.08,-645.05 336.88,-590.29 352.5,-548 362.67,-520.47 371.39,-516.54 387.5,-492 393.69,-482.57 400.83,-472.18 406.69,-463.77"/>
<polygon fill="midnightblue" stroke="midnightblue" points="409.57,-465.75 412.44,-455.55 403.84,-461.73 409.57,-465.75"/>
</g>
<!-- Node23&#45;&gt;Node4 -->
<g id="edge45" class="edge">
<title>Node23&#45;&gt;Node4</title>
<path fill="none" stroke="midnightblue" d="M328.53,-665.84C318.23,-647.03 295.5,-600.8 295.5,-559 295.5,-559 295.5,-559 295.5,-501 295.5,-462.87 318.58,-455.24 351.5,-436 411.39,-401 493.98,-392.82 540.32,-391.15"/>
<polygon fill="midnightblue" stroke="midnightblue" points="540.56,-394.64 550.46,-390.87 540.36,-387.64 540.56,-394.64"/>
</g>
<!-- Node23&#45;&gt;Node19 -->
<g id="edge43" class="edge">
<title>Node23&#45;&gt;Node19</title>
<path fill="none" stroke="midnightblue" d="M357.28,-665.98C385.88,-655.72 434.05,-638.46 466.3,-626.9"/>
<polygon fill="midnightblue" stroke="midnightblue" points="467.53,-630.18 475.76,-623.51 465.17,-623.59 467.53,-630.18"/>
</g>
<!-- Node23&#45;&gt;Node21 -->
<g id="edge44" class="edge">
<title>Node23&#45;&gt;Node21</title>
<path fill="none" stroke="midnightblue" d="M339.74,-665.82C353.44,-646.76 386.36,-600.95 404.31,-575.96"/>
<polygon fill="midnightblue" stroke="midnightblue" points="407.2,-577.95 410.19,-567.78 401.51,-573.86 407.2,-577.95"/>
</g>
<!-- Node24&#45;&gt;Node4 -->
<g id="edge50" class="edge">
<title>Node24&#45;&gt;Node4</title>
<path fill="none" stroke="midnightblue" d="M259.45,-732.96C216.35,-717.96 132.3,-682.76 86.5,-624 68,-600.26 67.5,-589.1 67.5,-559 67.5,-559 67.5,-559 67.5,-501 67.5,-404.09 425.13,-392.36 540.25,-391.1"/>
<polygon fill="midnightblue" stroke="midnightblue" points="540.34,-394.6 550.31,-391.01 540.28,-387.6 540.34,-394.6"/>
</g>
<!-- Node24&#45;&gt;Node19 -->
<g id="edge48" class="edge">
<title>Node24&#45;&gt;Node19</title>
<path fill="none" stroke="midnightblue" d="M306.53,-732.9C327.83,-723.5 362.28,-707.55 390.5,-691 423.23,-671.8 458.91,-645.89 480.23,-629.83"/>
<polygon fill="midnightblue" stroke="midnightblue" points="482.59,-632.43 488.43,-623.59 478.35,-626.86 482.59,-632.43"/>
</g>
<!-- Node24&#45;&gt;Node23 -->
<g id="edge49" class="edge">
<title>Node24&#45;&gt;Node23</title>
<path fill="none" stroke="midnightblue" d="M292.84,-732.73C300.1,-722.7 312.16,-706.01 321.26,-693.42"/>
<polygon fill="midnightblue" stroke="midnightblue" points="324.24,-695.28 327.26,-685.13 318.57,-691.18 324.24,-695.28"/>
</g>
<!-- Node25&#45;&gt;Node4 -->
<g id="edge53" class="edge">
<title>Node25&#45;&gt;Node4</title>
<path fill="none" stroke="midnightblue" d="M715.75,-665.89C695.02,-648.23 651.5,-605.62 651.5,-559 651.5,-559 651.5,-559 651.5,-501 651.5,-461.28 617.54,-425.5 595.02,-406.15"/>
<polygon fill="midnightblue" stroke="midnightblue" points="596.98,-403.24 587.04,-399.57 592.52,-408.63 596.98,-403.24"/>
</g>
<!-- Node25&#45;&gt;Node19 -->
<g id="edge52" class="edge">
<title>Node25&#45;&gt;Node19</title>
<path fill="none" stroke="midnightblue" d="M693.98,-665.98C653.94,-655.48 585.86,-637.64 541.8,-626.09"/>
<polygon fill="midnightblue" stroke="midnightblue" points="542.52,-622.66 531.96,-623.51 540.75,-629.43 542.52,-622.66"/>
</g>
<!-- Node26&#45;&gt;Node19 -->
<g id="edge55" class="edge">
<title>Node26&#45;&gt;Node19</title>
<path fill="none" stroke="midnightblue" d="M560.96,-732.81C550.23,-712.22 523.08,-660.19 508.72,-632.68"/>
<polygon fill="midnightblue" stroke="midnightblue" points="511.8,-631 504.07,-623.76 505.59,-634.24 511.8,-631"/>
</g>
<!-- Node27 -->
<g id="node27" class="node">
<title>Node27</title>
<g id="a_node27"><a xlink:href="f__pc__method__tag_8h.html" target="_top" xlink:title=" ">
<polygon fill="white" stroke="black" points="552,-660.5 552,-690.5 653,-690.5 653,-660.5 552,-660.5"/>
<text text-anchor="start" x="560" y="-678.5" font-family="Helvetica,sans-Serif" font-size="10.00">f/f_pc/f_pc_method</text>
<text text-anchor="middle" x="602.5" y="-667.5" font-family="Helvetica,sans-Serif" font-size="10.00">_tag.h</text>
</a>
</g>
</g>
<!-- Node26&#45;&gt;Node27 -->
<g id="edge56" class="edge">
<title>Node26&#45;&gt;Node27</title>
<path fill="none" stroke="midnightblue" d="M570.49,-732.73C575.35,-724.2 582.93,-710.87 589.5,-699.33"/>
<polygon fill="midnightblue" stroke="midnightblue" points="592.57,-701.01 594.48,-690.59 586.49,-697.55 592.57,-701.01"/>
</g>
<!-- Node27&#45;&gt;Node4 -->
<g id="edge58" class="edge">
<title>Node27&#45;&gt;Node4</title>
<path fill="none" stroke="midnightblue" d="M604.73,-660.32C607.94,-638.57 613.5,-595.66 613.5,-559 613.5,-559 613.5,-559 613.5,-501 613.5,-466.81 596.9,-429.76 585.64,-408.57"/>
<polygon fill="midnightblue" stroke="midnightblue" points="588.68,-406.83 580.78,-399.77 582.55,-410.22 588.68,-406.83"/>
</g>
<!-- Node27&#45;&gt;Node19 -->
<g id="edge57" class="edge">
<title>Node27&#45;&gt;Node19</title>
<path fill="none" stroke="midnightblue" d="M578.09,-660.4C561.58,-650.86 539.88,-638.32 523.46,-628.84"/>
<polygon fill="midnightblue" stroke="midnightblue" points="524.9,-625.63 514.49,-623.66 521.4,-631.69 524.9,-625.63"/>
</g>
<!-- Node28&#45;&gt;Node4 -->
<g id="edge62" class="edge">
<title>Node28&#45;&gt;Node4</title>
<path fill="none" stroke="midnightblue" d="M782.03,-492.5C792.94,-479.13 810.37,-452.98 796.5,-436 773.46,-407.8 667.22,-396.82 610.86,-392.93"/>
<polygon fill="midnightblue" stroke="midnightblue" points="610.82,-389.42 600.62,-392.26 610.37,-396.4 610.82,-389.42"/>
</g>
<!-- Node29 -->
<g id="node29" class="node">
<title>Node29</title>
<g id="a_node29"><a xlink:href="f__pc__method_8h.html" target="_top" xlink:title=" ">
<polygon fill="white" stroke="black" points="679.5,-436.5 679.5,-455.5 787.5,-455.5 787.5,-436.5 679.5,-436.5"/>
<text text-anchor="middle" x="733.5" y="-443.5" font-family="Helvetica,sans-Serif" font-size="10.00">f/f_pc/f_pc_method.h</text>
</a>
</g>
</g>
<!-- Node28&#45;&gt;Node29 -->
<g id="edge60" class="edge">
<title>Node28&#45;&gt;Node29</title>
<path fill="none" stroke="midnightblue" d="M767.73,-492.08C761.94,-484.46 753.44,-473.26 746.36,-463.94"/>
<polygon fill="midnightblue" stroke="midnightblue" points="748.98,-461.6 740.14,-455.75 743.4,-465.83 748.98,-461.6"/>
</g>
<!-- Node29&#45;&gt;Node4 -->
<g id="edge61" class="edge">
<title>Node29&#45;&gt;Node4</title>
<path fill="none" stroke="midnightblue" d="M708.46,-436.44C681.88,-427.36 639.69,-412.94 609.98,-402.78"/>
<polygon fill="midnightblue" stroke="midnightblue" points="611.01,-399.44 600.42,-399.52 608.75,-406.06 611.01,-399.44"/>
</g>
</g>
</svg>
