<?xml version="1.0" encoding="UTF-8" standalone="no"?>
<!DOCTYPE svg PUBLIC "-//W3C//DTD SVG 1.1//EN"
 "http://www.w3.org/Graphics/SVG/1.1/DTD/svg11.dtd">
<!-- Generated by graphviz version 2.46.1 (20210215.1649)
 -->
<!-- Title: include/f/f_pc/f_pc_create_tag.h Pages: 1 -->
<!--zoomable 307 -->
<svg id="main" version="1.1" xmlns="http://www.w3.org/2000/svg" xmlns:xlink="http://www.w3.org/1999/xlink" xml:space="preserve" onload="init(evt)">
<style type="text/css"><![CDATA[
.edge:hover path { stroke: red; }
.edge:hover polygon { stroke: red; fill: red; }
]]></style>
<script type="text/javascript"><![CDATA[
var edges = document.getElementsByTagName('g');
if (edges && edges.length) {
  for (var i=0;i<edges.length;i++) {
    if (edges[i].id.substr(0,4)=='edge') {
      edges[i].setAttribute('class','edge');
    }
  }
}
]]></script>
        <defs>
                <circle id="rim" cx="0" cy="0" r="7"/>
                <circle id="rim2" cx="0" cy="0" r="3.5"/>
                <g id="zoomPlus">
                        <use xlink:href="#rim" fill="#404040">
                                <set attributeName="fill" to="#808080" begin="zoomplus.mouseover" end="zoomplus.mouseout"/>
                        </use>
                        <path d="M-4,0h8M0,-4v8" fill="none" stroke="white" stroke-width="1.5" pointer-events="none"/>
                </g>
                <g id="zoomMin">
                        <use xlink:href="#rim" fill="#404040">
                                <set attributeName="fill" to="#808080" begin="zoomminus.mouseover" end="zoomminus.mouseout"/>
                        </use>
                        <path d="M-4,0h8" fill="none" stroke="white" stroke-width="1.5" pointer-events="none"/>
                </g>
                <g id="dirArrow">
                        <path fill="none" stroke="white" stroke-width="1.5" d="M0,-3.0v7 M-2.5,-0.5L0,-3.0L2.5,-0.5"/>
                </g>
               <g id="resetDef">
                       <use xlink:href="#rim2" fill="#404040">
                               <set attributeName="fill" to="#808080" begin="reset.mouseover" end="reset.mouseout"/>
                       </use>
               </g>
        </defs>

<script type="text/javascript">
var viewWidth = 946;
var viewHeight = 307;
var sectionId = 'dynsection-1';
</script>
<script xlink:href="svgpan.js"/>
<svg id="graph" class="graph">
<g id="viewport">
<title>include/f/f_pc/f_pc_create_tag.h</title>
<polygon fill="white" stroke="transparent" points="-4,4 -4,-303 942,-303 942,4 -4,4"/>
<!-- Node1 -->
<g id="node1" class="node">
<title>Node1</title>
<g id="a_node1"><a xlink:title=" ">
<polygon fill="#bfbfbf" stroke="black" points="311.5,-268.5 311.5,-298.5 408.5,-298.5 408.5,-268.5 311.5,-268.5"/>
<text text-anchor="start" x="319.5" y="-286.5" font-family="Helvetica,sans-Serif" font-size="10.00">include/f/f_pc/f_pc</text>
<text text-anchor="middle" x="360" y="-275.5" font-family="Helvetica,sans-Serif" font-size="10.00">_create_tag.h</text>
</a>
</g>
</g>
<!-- Node2 -->
<g id="node2" class="node">
<title>Node2</title>
<g id="a_node2"><a xlink:href="f__pc__create__tag_8cpp.html" target="_top" xlink:title=" ">
<polygon fill="white" stroke="black" points="182,-201.5 182,-231.5 294,-231.5 294,-201.5 182,-201.5"/>
<text text-anchor="start" x="190" y="-219.5" font-family="Helvetica,sans-Serif" font-size="10.00">src/f/f_pc/f_pc_create</text>
<text text-anchor="middle" x="238" y="-208.5" font-family="Helvetica,sans-Serif" font-size="10.00">_tag.cpp</text>
</a>
</g>
</g>
<!-- Node1&#45;&gt;Node2 -->
<g id="edge1" class="edge">
<title>Node1&#45;&gt;Node2</title>
<path fill="none" stroke="midnightblue" d="M324.48,-263.57C305.29,-253.35 282,-240.94 264.42,-231.58"/>
<polygon fill="midnightblue" stroke="midnightblue" points="323.06,-266.78 333.53,-268.4 326.35,-260.6 323.06,-266.78"/>
</g>
<!-- Node3 -->
<g id="node3" class="node">
<title>Node3</title>
<g id="a_node3"><a xlink:href="f__pc__create__iter_8h.html" target="_top" xlink:title=" ">
<polygon fill="white" stroke="black" points="311.5,-201.5 311.5,-231.5 408.5,-231.5 408.5,-201.5 311.5,-201.5"/>
<text text-anchor="start" x="319.5" y="-219.5" font-family="Helvetica,sans-Serif" font-size="10.00">include/f/f_pc/f_pc</text>
<text text-anchor="middle" x="360" y="-208.5" font-family="Helvetica,sans-Serif" font-size="10.00">_create_iter.h</text>
</a>
</g>
</g>
<!-- Node1&#45;&gt;Node3 -->
<g id="edge2" class="edge">
<title>Node1&#45;&gt;Node3</title>
<path fill="none" stroke="midnightblue" d="M360,-258.11C360,-249.15 360,-239.32 360,-231.58"/>
<polygon fill="midnightblue" stroke="midnightblue" points="356.5,-258.4 360,-268.4 363.5,-258.4 356.5,-258.4"/>
</g>
<!-- Node6 -->
<g id="node6" class="node">
<title>Node6</title>
<g id="a_node6"><a xlink:href="f__pc__create__req_8h.html" target="_top" xlink:title=" ">
<polygon fill="white" stroke="black" points="490.5,-201.5 490.5,-231.5 587.5,-231.5 587.5,-201.5 490.5,-201.5"/>
<text text-anchor="start" x="498.5" y="-219.5" font-family="Helvetica,sans-Serif" font-size="10.00">include/f/f_pc/f_pc</text>
<text text-anchor="middle" x="539" y="-208.5" font-family="Helvetica,sans-Serif" font-size="10.00">_create_req.h</text>
</a>
</g>
</g>
<!-- Node1&#45;&gt;Node6 -->
<g id="edge5" class="edge">
<title>Node1&#45;&gt;Node6</title>
<path fill="none" stroke="midnightblue" d="M408.32,-264.96C437.15,-254.48 473.28,-241.37 500.24,-231.58"/>
<polygon fill="midnightblue" stroke="midnightblue" points="407.05,-261.69 398.84,-268.4 409.43,-268.27 407.05,-261.69"/>
</g>
<!-- Node4 -->
<g id="node4" class="node">
<title>Node4</title>
<g id="a_node4"><a xlink:href="f__pc__create__iter_8cpp.html" target="_top" xlink:title=" ">
<polygon fill="white" stroke="black" points="174,-134.5 174,-164.5 286,-164.5 286,-134.5 174,-134.5"/>
<text text-anchor="start" x="182" y="-152.5" font-family="Helvetica,sans-Serif" font-size="10.00">src/f/f_pc/f_pc_create</text>
<text text-anchor="middle" x="230" y="-141.5" font-family="Helvetica,sans-Serif" font-size="10.00">_iter.cpp</text>
</a>
</g>
</g>
<!-- Node3&#45;&gt;Node4 -->
<g id="edge3" class="edge">
<title>Node3&#45;&gt;Node4</title>
<path fill="none" stroke="midnightblue" d="M322.71,-196.85C302.15,-186.58 277.05,-174.03 258.15,-164.58"/>
<polygon fill="midnightblue" stroke="midnightblue" points="321.28,-200.05 331.79,-201.4 324.41,-193.79 321.28,-200.05"/>
</g>
<!-- Node5 -->
<g id="node5" class="node">
<title>Node5</title>
<g id="a_node5"><a xlink:href="f__pc__create__req_8cpp.html" target="_top" xlink:title=" ">
<polygon fill="white" stroke="black" points="304,-134.5 304,-164.5 416,-164.5 416,-134.5 304,-134.5"/>
<text text-anchor="start" x="312" y="-152.5" font-family="Helvetica,sans-Serif" font-size="10.00">src/f/f_pc/f_pc_create</text>
<text text-anchor="middle" x="360" y="-141.5" font-family="Helvetica,sans-Serif" font-size="10.00">_req.cpp</text>
</a>
</g>
</g>
<!-- Node3&#45;&gt;Node5 -->
<g id="edge4" class="edge">
<title>Node3&#45;&gt;Node5</title>
<path fill="none" stroke="midnightblue" d="M360,-191.11C360,-182.15 360,-172.32 360,-164.58"/>
<polygon fill="midnightblue" stroke="midnightblue" points="356.5,-191.4 360,-201.4 363.5,-191.4 356.5,-191.4"/>
</g>
<!-- Node6&#45;&gt;Node5 -->
<g id="edge6" class="edge">
<title>Node6&#45;&gt;Node5</title>
<path fill="none" stroke="midnightblue" d="M490.68,-197.96C461.85,-187.48 425.72,-174.37 398.76,-164.58"/>
<polygon fill="midnightblue" stroke="midnightblue" points="489.57,-201.27 500.16,-201.4 491.95,-194.69 489.57,-201.27"/>
</g>
<!-- Node7 -->
<g id="node7" class="node">
<title>Node7</title>
<g id="a_node7"><a xlink:href="f__pc__creator_8cpp.html" target="_top" xlink:title=" ">
<polygon fill="white" stroke="black" points="663.5,-140 663.5,-159 796.5,-159 796.5,-140 663.5,-140"/>
<text text-anchor="middle" x="730" y="-147" font-family="Helvetica,sans-Serif" font-size="10.00">src/f/f_pc/f_pc_creator.cpp</text>
</a>
</g>
</g>
<!-- Node6&#45;&gt;Node7 -->
<g id="edge7" class="edge">
<title>Node6&#45;&gt;Node7</title>
<path fill="none" stroke="midnightblue" d="M590.11,-198.11C627.26,-185.46 675.95,-168.89 705,-159.01"/>
<polygon fill="midnightblue" stroke="midnightblue" points="588.78,-194.86 580.44,-201.4 591.04,-201.49 588.78,-194.86"/>
</g>
<!-- Node8 -->
<g id="node8" class="node">
<title>Node8</title>
<g id="a_node8"><a xlink:href="f__pc__node__req_8cpp.html" target="_top" xlink:title=" ">
<polygon fill="white" stroke="black" points="832,-67.5 832,-97.5 938,-97.5 938,-67.5 832,-67.5"/>
<text text-anchor="start" x="840" y="-85.5" font-family="Helvetica,sans-Serif" font-size="10.00">src/f/f_pc/f_pc_node</text>
<text text-anchor="middle" x="885" y="-74.5" font-family="Helvetica,sans-Serif" font-size="10.00">_req.cpp</text>
</a>
</g>
</g>
<!-- Node6&#45;&gt;Node8 -->
<g id="edge8" class="edge">
<title>Node6&#45;&gt;Node8</title>
<path fill="none" stroke="midnightblue" d="M597.91,-214.48C654.39,-211.25 740.5,-200.27 806,-165 836.54,-148.56 862.42,-116.2 875.62,-97.59"/>
<polygon fill="midnightblue" stroke="midnightblue" points="597.53,-211 587.72,-215 597.89,-217.99 597.53,-211"/>
</g>
<!-- Node9 -->
<g id="node9" class="node">
<title>Node9</title>
<g id="a_node9"><a xlink:href="f__pc__fstcreate__req_8h.html" target="_top" xlink:title=" ">
<polygon fill="white" stroke="black" points="433.5,-134.5 433.5,-164.5 530.5,-164.5 530.5,-134.5 433.5,-134.5"/>
<text text-anchor="start" x="441.5" y="-152.5" font-family="Helvetica,sans-Serif" font-size="10.00">include/f/f_pc/f_pc</text>
<text text-anchor="middle" x="482" y="-141.5" font-family="Helvetica,sans-Serif" font-size="10.00">_fstcreate_req.h</text>
</a>
</g>
</g>
<!-- Node6&#45;&gt;Node9 -->
<g id="edge9" class="edge">
<title>Node6&#45;&gt;Node9</title>
<path fill="none" stroke="midnightblue" d="M519.91,-193.74C511.48,-184.12 501.81,-173.09 494.34,-164.58"/>
<polygon fill="midnightblue" stroke="midnightblue" points="517.41,-196.18 526.63,-201.4 522.67,-191.57 517.41,-196.18"/>
</g>
<!-- Node18 -->
<g id="node18" class="node">
<title>Node18</title>
<g id="a_node18"><a xlink:href="f__pc__stdcreate__req_8h.html" target="_top" xlink:title=" ">
<polygon fill="white" stroke="black" points="548.5,-134.5 548.5,-164.5 645.5,-164.5 645.5,-134.5 548.5,-134.5"/>
<text text-anchor="start" x="556.5" y="-152.5" font-family="Helvetica,sans-Serif" font-size="10.00">include/f/f_pc/f_pc</text>
<text text-anchor="middle" x="597" y="-141.5" font-family="Helvetica,sans-Serif" font-size="10.00">_stdcreate_req.h</text>
</a>
</g>
</g>
<!-- Node6&#45;&gt;Node18 -->
<g id="edge18" class="edge">
<title>Node6&#45;&gt;Node18</title>
<path fill="none" stroke="midnightblue" d="M558.42,-193.74C567,-184.12 576.84,-173.09 584.44,-164.58"/>
<polygon fill="midnightblue" stroke="midnightblue" points="555.63,-191.6 551.59,-201.4 560.85,-196.26 555.63,-191.6"/>
</g>
<!-- Node10 -->
<g id="node10" class="node">
<title>Node10</title>
<g id="a_node10"><a xlink:href="f__pc__fstcreate__req_8cpp.html" target="_top" xlink:title=" ">
<polygon fill="white" stroke="black" points="258.5,-67.5 258.5,-97.5 381.5,-97.5 381.5,-67.5 258.5,-67.5"/>
<text text-anchor="start" x="266.5" y="-85.5" font-family="Helvetica,sans-Serif" font-size="10.00">src/f/f_pc/f_pc_fstcreate</text>
<text text-anchor="middle" x="320" y="-74.5" font-family="Helvetica,sans-Serif" font-size="10.00">_req.cpp</text>
</a>
</g>
</g>
<!-- Node9&#45;&gt;Node10 -->
<g id="edge10" class="edge">
<title>Node9&#45;&gt;Node10</title>
<path fill="none" stroke="midnightblue" d="M437.25,-130.54C411.33,-120.14 379.16,-107.24 355.08,-97.58"/>
<polygon fill="midnightblue" stroke="midnightblue" points="436.26,-133.92 446.85,-134.4 438.87,-127.42 436.26,-133.92"/>
</g>
<!-- Node11 -->
<g id="node11" class="node">
<title>Node11</title>
<g id="a_node11"><a xlink:href="f__op__actor__mng_8h.html" target="_top" xlink:title=" ">
<polygon fill="white" stroke="black" points="399.5,-67.5 399.5,-97.5 496.5,-97.5 496.5,-67.5 399.5,-67.5"/>
<text text-anchor="start" x="407.5" y="-85.5" font-family="Helvetica,sans-Serif" font-size="10.00">include/f/f_op/f_op</text>
<text text-anchor="middle" x="448" y="-74.5" font-family="Helvetica,sans-Serif" font-size="10.00">_actor_mng.h</text>
</a>
</g>
</g>
<!-- Node9&#45;&gt;Node11 -->
<g id="edge11" class="edge">
<title>Node9&#45;&gt;Node11</title>
<path fill="none" stroke="midnightblue" d="M469.86,-125.28C465.01,-116.02 459.59,-105.66 455.36,-97.58"/>
<polygon fill="midnightblue" stroke="midnightblue" points="466.89,-127.16 474.62,-134.4 473.09,-123.91 466.89,-127.16"/>
</g>
<!-- Node12 -->
<g id="node12" class="node">
<title>Node12</title>
<g id="a_node12"><a xlink:href="d__attention_8cpp.html" target="_top" xlink:title=" ">
<polygon fill="white" stroke="black" points="531.5,-6 531.5,-25 638.5,-25 638.5,-6 531.5,-6"/>
<text text-anchor="middle" x="585" y="-13" font-family="Helvetica,sans-Serif" font-size="10.00">src/d/d_attention.cpp</text>
</a>
</g>
</g>
<!-- Node11&#45;&gt;Node12 -->
<g id="edge12" class="edge">
<title>Node11&#45;&gt;Node12</title>
<path fill="none" stroke="midnightblue" d="M487.06,-62.97C513.38,-50.48 546.86,-34.6 567.07,-25.01"/>
<polygon fill="midnightblue" stroke="midnightblue" points="485.26,-59.95 477.73,-67.4 488.26,-66.27 485.26,-59.95"/>
</g>
<!-- Node13 -->
<g id="node13" class="node">
<title>Node13</title>
<g id="a_node13"><a xlink:href="d__camera_8cpp.html" target="_top" xlink:title=" ">
<polygon fill="white" stroke="black" points="0,-6 0,-25 102,-25 102,-6 0,-6"/>
<text text-anchor="middle" x="51" y="-13" font-family="Helvetica,sans-Serif" font-size="10.00">src/d/d_camera.cpp</text>
</a>
</g>
</g>
<!-- Node11&#45;&gt;Node13 -->
<g id="edge13" class="edge">
<title>Node11&#45;&gt;Node13</title>
<path fill="none" stroke="midnightblue" d="M389.44,-66.84C266,-43.99 231.25,-53.19 111,-31 102.04,-29.35 92.42,-27.19 83.56,-25.05"/>
<polygon fill="midnightblue" stroke="midnightblue" points="388.79,-70.28 399.27,-68.69 390.09,-63.4 388.79,-70.28"/>
</g>
<!-- Node14 -->
<g id="node14" class="node">
<title>Node14</title>
<g id="a_node14"><a xlink:href="d__a__alink_8cpp.html" target="_top" xlink:title=" ">
<polygon fill="white" stroke="black" points="120.5,-6 120.5,-25 239.5,-25 239.5,-6 120.5,-6"/>
<text text-anchor="middle" x="180" y="-13" font-family="Helvetica,sans-Serif" font-size="10.00">src/d/d_a/d_a_alink.cpp</text>
</a>
</g>
</g>
<!-- Node11&#45;&gt;Node14 -->
<g id="edge14" class="edge">
<title>Node11&#45;&gt;Node14</title>
<path fill="none" stroke="midnightblue" d="M389.42,-66.63C323.12,-50.31 256.35,-34.46 216.25,-25.01"/>
<polygon fill="midnightblue" stroke="midnightblue" points="388.65,-70.04 399.19,-69.04 390.32,-63.24 388.65,-70.04"/>
</g>
<!-- Node15 -->
<g id="node15" class="node">
<title>Node15</title>
<g id="a_node15"><a xlink:href="d__stage_8cpp.html" target="_top" xlink:title=" ">
<polygon fill="white" stroke="black" points="657,-6 657,-25 751,-25 751,-6 657,-6"/>
<text text-anchor="middle" x="704" y="-13" font-family="Helvetica,sans-Serif" font-size="10.00">src/d/d_stage.cpp</text>
</a>
</g>
</g>
<!-- Node11&#45;&gt;Node15 -->
<g id="edge15" class="edge">
<title>Node11&#45;&gt;Node15</title>
<path fill="none" stroke="midnightblue" d="M506.34,-66.87C546.25,-56.83 600.34,-43.19 648,-31 655.49,-29.08 663.54,-27.01 671.14,-25.04"/>
<polygon fill="midnightblue" stroke="midnightblue" points="505.36,-63.5 496.52,-69.34 507.07,-70.29 505.36,-63.5"/>
</g>
<!-- Node16 -->
<g id="node16" class="node">
<title>Node16</title>
<g id="a_node16"><a xlink:href="f__op__actor__mng_8cpp.html" target="_top" xlink:title=" ">
<polygon fill="white" stroke="black" points="257.5,-0.5 257.5,-30.5 364.5,-30.5 364.5,-0.5 257.5,-0.5"/>
<text text-anchor="start" x="265.5" y="-18.5" font-family="Helvetica,sans-Serif" font-size="10.00">src/f/f_op/f_op_actor</text>
<text text-anchor="middle" x="311" y="-7.5" font-family="Helvetica,sans-Serif" font-size="10.00">_mng.cpp</text>
</a>
</g>
</g>
<!-- Node11&#45;&gt;Node16 -->
<g id="edge16" class="edge">
<title>Node11&#45;&gt;Node16</title>
<path fill="none" stroke="midnightblue" d="M408.99,-62.99C387.28,-52.69 360.67,-40.07 340.67,-30.58"/>
<polygon fill="midnightblue" stroke="midnightblue" points="407.74,-66.27 418.27,-67.4 410.74,-59.95 407.74,-66.27"/>
</g>
<!-- Node17 -->
<g id="node17" class="node">
<title>Node17</title>
<g id="a_node17"><a xlink:href="m__Do__main_8cpp.html" target="_top" xlink:title=" ">
<polygon fill="white" stroke="black" points="382.5,-6 382.5,-25 513.5,-25 513.5,-6 382.5,-6"/>
<text text-anchor="middle" x="448" y="-13" font-family="Helvetica,sans-Serif" font-size="10.00">src/m_Do/m_Do_main.cpp</text>
</a>
</g>
</g>
<!-- Node11&#45;&gt;Node17 -->
<g id="edge17" class="edge">
<title>Node11&#45;&gt;Node17</title>
<path fill="none" stroke="midnightblue" d="M448,-57.25C448,-46.02 448,-33.38 448,-25.19"/>
<polygon fill="midnightblue" stroke="midnightblue" points="444.5,-57.4 448,-67.4 451.5,-57.4 444.5,-57.4"/>
</g>
<!-- Node18&#45;&gt;Node8 -->
<g id="edge21" class="edge">
<title>Node18&#45;&gt;Node8</title>
<path fill="none" stroke="midnightblue" d="M655.68,-133.89C731.04,-116.55 751.54,-114.01 823,-98 825.91,-97.35 828.9,-96.67 831.92,-95.98"/>
<polygon fill="midnightblue" stroke="midnightblue" points="654.66,-130.53 645.71,-136.2 656.24,-137.35 654.66,-130.53"/>
</g>
<!-- Node18&#45;&gt;Node11 -->
<g id="edge23" class="edge">
<title>Node18&#45;&gt;Node11</title>
<path fill="none" stroke="midnightblue" d="M555.21,-130.27C531.48,-119.92 502.22,-107.15 480.27,-97.58"/>
<polygon fill="midnightblue" stroke="midnightblue" points="554.1,-133.61 564.67,-134.4 556.9,-127.19 554.1,-133.61"/>
</g>
<!-- Node18&#45;&gt;Node15 -->
<g id="edge19" class="edge">
<title>Node18&#45;&gt;Node15</title>
<path fill="none" stroke="midnightblue" d="M620.75,-127.4C630,-118.7 640.42,-108.25 649,-98 669.6,-73.39 689.6,-40.97 698.78,-25.49"/>
<polygon fill="midnightblue" stroke="midnightblue" points="618.29,-124.91 613.33,-134.27 623.05,-130.05 618.29,-124.91"/>
</g>
<!-- Node19 -->
<g id="node19" class="node">
<title>Node19</title>
<g id="a_node19"><a xlink:href="f__op__camera__mng_8cpp.html" target="_top" xlink:title=" ">
<polygon fill="white" stroke="black" points="696.5,-67.5 696.5,-97.5 813.5,-97.5 813.5,-67.5 696.5,-67.5"/>
<text text-anchor="start" x="704.5" y="-85.5" font-family="Helvetica,sans-Serif" font-size="10.00">src/f/f_op/f_op_camera</text>
<text text-anchor="middle" x="755" y="-74.5" font-family="Helvetica,sans-Serif" font-size="10.00">_mng.cpp</text>
</a>
</g>
</g>
<!-- Node18&#45;&gt;Node19 -->
<g id="edge20" class="edge">
<title>Node18&#45;&gt;Node19</title>
<path fill="none" stroke="midnightblue" d="M640.65,-130.54C665.93,-120.14 697.3,-107.24 720.78,-97.58"/>
<polygon fill="midnightblue" stroke="midnightblue" points="639.2,-127.35 631.28,-134.4 641.86,-133.83 639.2,-127.35"/>
</g>
<!-- Node20 -->
<g id="node20" class="node">
<title>Node20</title>
<g id="a_node20"><a xlink:href="f__pc__stdcreate__req_8cpp.html" target="_top" xlink:title=" ">
<polygon fill="white" stroke="black" points="514.5,-67.5 514.5,-97.5 639.5,-97.5 639.5,-67.5 514.5,-67.5"/>
<text text-anchor="start" x="522.5" y="-85.5" font-family="Helvetica,sans-Serif" font-size="10.00">src/f/f_pc/f_pc_stdcreate</text>
<text text-anchor="middle" x="577" y="-74.5" font-family="Helvetica,sans-Serif" font-size="10.00">_req.cpp</text>
</a>
</g>
</g>
<!-- Node18&#45;&gt;Node20 -->
<g id="edge22" class="edge">
<title>Node18&#45;&gt;Node20</title>
<path fill="none" stroke="midnightblue" d="M589.68,-124.7C586.87,-115.59 583.77,-105.49 581.33,-97.58"/>
<polygon fill="midnightblue" stroke="midnightblue" points="586.37,-125.87 592.66,-134.4 593.06,-123.81 586.37,-125.87"/>
</g>
</g>
</svg>
        <g id="navigator" transform="translate(0 0)" fill="#404254">
                <rect fill="#f2f5e9" fill-opacity="0.5" stroke="#606060" stroke-width=".5" x="0" y="0" width="60" height="60"/>
                <use id="zoomplus" xlink:href="#zoomPlus" x="17" y="9" onmousedown="handleZoom(evt,'in')"/>
                <use id="zoomminus" xlink:href="#zoomMin" x="42" y="9" onmousedown="handleZoom(evt,'out')"/>
                <use id="reset" xlink:href="#resetDef" x="30" y="36" onmousedown="handleReset()"/>
                <g id="arrowUp" xlink:href="#dirArrow" transform="translate(30 24)" onmousedown="handlePan(0,-1)">
                  <use xlink:href="#rim" fill="#404040">
                        <set attributeName="fill" to="#808080" begin="arrowUp.mouseover" end="arrowUp.mouseout"/>
                  </use>
                  <path fill="none" stroke="white" stroke-width="1.5" d="M0,-3.0v7 M-2.5,-0.5L0,-3.0L2.5,-0.5"/>
                </g>
                <g id="arrowRight" xlink:href="#dirArrow" transform="rotate(90) translate(36 -43)" onmousedown="handlePan(1,0)">
                  <use xlink:href="#rim" fill="#404040">
                        <set attributeName="fill" to="#808080" begin="arrowRight.mouseover" end="arrowRight.mouseout"/>
                  </use>
                  <path fill="none" stroke="white" stroke-width="1.5" d="M0,-3.0v7 M-2.5,-0.5L0,-3.0L2.5,-0.5"/>
                </g>
                <g id="arrowDown" xlink:href="#dirArrow" transform="rotate(180) translate(-30 -48)" onmousedown="handlePan(0,1)">
                  <use xlink:href="#rim" fill="#404040">
                        <set attributeName="fill" to="#808080" begin="arrowDown.mouseover" end="arrowDown.mouseout"/>
                  </use>
                  <path fill="none" stroke="white" stroke-width="1.5" d="M0,-3.0v7 M-2.5,-0.5L0,-3.0L2.5,-0.5"/>
                </g>
                <g id="arrowLeft" xlink:href="#dirArrow" transform="rotate(270) translate(-36 17)" onmousedown="handlePan(-1,0)">
                  <use xlink:href="#rim" fill="#404040">
                        <set attributeName="fill" to="#808080" begin="arrowLeft.mouseover" end="arrowLeft.mouseout"/>
                  </use>
                  <path fill="none" stroke="white" stroke-width="1.5" d="M0,-3.0v7 M-2.5,-0.5L0,-3.0L2.5,-0.5"/>
                </g>
        </g>
        <svg viewBox="0 0 15 15" width="100%" height="30px" preserveAspectRatio="xMaxYMin meet">
         <g id="arrow_out" transform="scale(0.3 0.3)">
          <a xlink:href="f__pc__create__tag_8h__dep__incl_org.svg" target="_base">
           <rect id="button" ry="5" rx="5" y="6" x="6" height="38" width="38"
                fill="#f2f5e9" fill-opacity="0.5" stroke="#606060" stroke-width="1.0"/>
           <path id="arrow"
             d="M 11.500037,31.436501 C 11.940474,20.09759 22.043105,11.32322 32.158766,21.979434 L 37.068811,17.246167 C 37.068811,17.246167 37.088388,32 37.088388,32 L 22.160133,31.978069 C 22.160133,31.978069 26.997745,27.140456 26.997745,27.140456 C 18.528582,18.264221 13.291696,25.230495 11.500037,31.436501 z"
             style="fill:#404040;"/>
          </a>
         </g>
        </svg>
</svg>
