<?xml version="1.0" encoding="UTF-8" standalone="no"?>
<!DOCTYPE svg PUBLIC "-//W3C//DTD SVG 1.1//EN"
 "http://www.w3.org/Graphics/SVG/1.1/DTD/svg11.dtd">
<!-- Generated by graphviz version 2.46.0 (20210122.1329)
 -->
<!-- Title: include/f/f_pc/f_pc_leaf.h Pages: 1 -->
<!--zoomable 889 -->
<svg id="main" version="1.1" xmlns="http://www.w3.org/2000/svg" xmlns:xlink="http://www.w3.org/1999/xlink" xml:space="preserve" onload="init(evt)">
<style type="text/css"><![CDATA[
.edge:hover path { stroke: red; }
.edge:hover polygon { stroke: red; fill: red; }
]]></style>
<script type="text/javascript"><![CDATA[
var edges = document.getElementsByTagName('g');
if (edges && edges.length) {
  for (var i=0;i<edges.length;i++) {
    if (edges[i].id.substr(0,4)=='edge') {
      edges[i].setAttribute('class','edge');
    }
  }
}
]]></script>
        <defs>
                <circle id="rim" cx="0" cy="0" r="7"/>
                <circle id="rim2" cx="0" cy="0" r="3.5"/>
                <g id="zoomPlus">
                        <use xlink:href="#rim" fill="#404040">
                                <set attributeName="fill" to="#808080" begin="zoomplus.mouseover" end="zoomplus.mouseout"/>
                        </use>
                        <path d="M-4,0h8M0,-4v8" fill="none" stroke="white" stroke-width="1.5" pointer-events="none"/>
                </g>
                <g id="zoomMin">
                        <use xlink:href="#rim" fill="#404040">
                                <set attributeName="fill" to="#808080" begin="zoomminus.mouseover" end="zoomminus.mouseout"/>
                        </use>
                        <path d="M-4,0h8" fill="none" stroke="white" stroke-width="1.5" pointer-events="none"/>
                </g>
                <g id="dirArrow">
                        <path fill="none" stroke="white" stroke-width="1.5" d="M0,-3.0v7 M-2.5,-0.5L0,-3.0L2.5,-0.5"/>
                </g>
               <g id="resetDef">
                       <use xlink:href="#rim2" fill="#404040">
                               <set attributeName="fill" to="#808080" begin="reset.mouseover" end="reset.mouseout"/>
                       </use>
               </g>
        </defs>

<script type="text/javascript">
var viewWidth = 1084;
var viewHeight = 889;
var sectionId = 'dynsection-0';
</script>
<script xlink:href="svgpan.js"/>
<svg id="graph" class="graph">
<g id="viewport">
<title>include/f/f_pc/f_pc_leaf.h</title>
<polygon fill="white" stroke="transparent" points="-4,4 -4,-885 1080,-885 1080,4 -4,4"/>
<!-- Node1 -->
<g id="node1" class="node">
<title>Node1</title>
<g id="a_node1"><a xlink:title=" ">
<polygon fill="#bfbfbf" stroke="black" points="734.5,-850.5 734.5,-880.5 831.5,-880.5 831.5,-850.5 734.5,-850.5"/>
<text text-anchor="start" x="742.5" y="-868.5" font-family="Helvetica,sans-Serif" font-size="10.00">include/f/f_pc/f_pc</text>
<text text-anchor="middle" x="783" y="-857.5" font-family="Helvetica,sans-Serif" font-size="10.00">_leaf.h</text>
</a>
</g>
</g>
<!-- Node2 -->
<g id="node2" class="node">
<title>Node2</title>
<g id="a_node2"><a xlink:href="f__pc__base_8h.html" target="_top" xlink:title=" ">
<polygon fill="white" stroke="black" points="405.5,-794.5 405.5,-813.5 502.5,-813.5 502.5,-794.5 405.5,-794.5"/>
<text text-anchor="middle" x="454" y="-801.5" font-family="Helvetica,sans-Serif" font-size="10.00">f/f_pc/f_pc_base.h</text>
</a>
</g>
</g>
<!-- Node1&#45;&gt;Node2 -->
<g id="edge1" class="edge">
<title>Node1&#45;&gt;Node2</title>
<path fill="none" stroke="midnightblue" d="M734.45,-855.72C675.02,-844.97 574.51,-826.79 511.33,-815.37"/>
<polygon fill="midnightblue" stroke="midnightblue" points="511.61,-811.86 501.14,-813.53 510.36,-818.75 511.61,-811.86"/>
</g>
<!-- Node6 -->
<g id="node6" class="node">
<title>Node6</title>
<g id="a_node6"><a xlink:href="global_8h.html" target="_top" xlink:title=" ">
<polygon fill="white" stroke="black" points="518,-380.5 518,-399.5 568,-399.5 568,-380.5 518,-380.5"/>
<text text-anchor="middle" x="543" y="-387.5" font-family="Helvetica,sans-Serif" font-size="10.00">global.h</text>
</a>
</g>
</g>
<!-- Node1&#45;&gt;Node6 -->
<g id="edge68" class="edge">
<title>Node1&#45;&gt;Node6</title>
<path fill="none" stroke="midnightblue" d="M786.66,-850.45C792.18,-828.02 802,-782.63 802,-743.5 802,-743.5 802,-743.5 802,-501 802,-405.05 649.53,-391.58 578.56,-390.51"/>
<polygon fill="midnightblue" stroke="midnightblue" points="578.33,-387.01 568.31,-390.43 578.28,-394.01 578.33,-387.01"/>
</g>
<!-- Node30 -->
<g id="node30" class="node">
<title>Node30</title>
<g id="a_node30"><a xlink:href="f__pc__method_8h.html" target="_top" xlink:title=" ">
<polygon fill="white" stroke="black" points="666,-666 666,-685 774,-685 774,-666 666,-666"/>
<text text-anchor="middle" x="720" y="-673" font-family="Helvetica,sans-Serif" font-size="10.00">f/f_pc/f_pc_method.h</text>
</a>
</g>
</g>
<!-- Node1&#45;&gt;Node30 -->
<g id="edge67" class="edge">
<title>Node1&#45;&gt;Node30</title>
<path fill="none" stroke="midnightblue" d="M778.73,-850.37C771.13,-825.36 754.56,-771.74 739,-727 735.24,-716.2 730.75,-704.22 727.08,-694.64"/>
<polygon fill="midnightblue" stroke="midnightblue" points="730.23,-693.09 723.36,-685.03 723.7,-695.62 730.23,-693.09"/>
</g>
<!-- Node31 -->
<g id="node31" class="node">
<title>Node31</title>
<g id="a_node31"><a xlink:href="f__pc__draw__priority_8h.html" target="_top" xlink:title=" ">
<polygon fill="white" stroke="black" points="830.5,-604.5 830.5,-623.5 961.5,-623.5 961.5,-604.5 830.5,-604.5"/>
<text text-anchor="middle" x="896" y="-611.5" font-family="Helvetica,sans-Serif" font-size="10.00">f/f_pc/f_pc_draw_priority.h</text>
</a>
</g>
</g>
<!-- Node1&#45;&gt;Node31 -->
<g id="edge65" class="edge">
<title>Node1&#45;&gt;Node31</title>
<path fill="none" stroke="midnightblue" d="M793.31,-850.37C800.25,-840.49 809.32,-826.82 816,-814 849.38,-749.96 878.1,-668.74 890.06,-633.13"/>
<polygon fill="midnightblue" stroke="midnightblue" points="893.39,-634.2 893.22,-623.61 886.75,-631.99 893.39,-634.2"/>
</g>
<!-- Node3 -->
<g id="node3" class="node">
<title>Node3</title>
<g id="a_node3"><a xlink:href="c__tag_8h.html" target="_top" xlink:title=" ">
<polygon fill="white" stroke="black" points="228.5,-604.5 228.5,-623.5 335.5,-623.5 335.5,-604.5 228.5,-604.5"/>
<text text-anchor="middle" x="282" y="-611.5" font-family="Helvetica,sans-Serif" font-size="10.00">SComponent/c_tag.h</text>
</a>
</g>
</g>
<!-- Node2&#45;&gt;Node3 -->
<g id="edge2" class="edge">
<title>Node2&#45;&gt;Node3</title>
<path fill="none" stroke="midnightblue" d="M405.36,-796.73C378.64,-790.9 346.81,-779.65 326,-758 292.64,-723.29 284.52,-663.9 282.58,-633.74"/>
<polygon fill="midnightblue" stroke="midnightblue" points="286.08,-633.55 282.1,-623.73 279.08,-633.89 286.08,-633.55"/>
</g>
<!-- Node2&#45;&gt;Node6 -->
<g id="edge40" class="edge">
<title>Node2&#45;&gt;Node6</title>
<path fill="none" stroke="midnightblue" d="M502.74,-794.49C526.41,-788.07 553.63,-776.99 572,-758 598.63,-730.47 600,-714.8 600,-676.5 600,-676.5 600,-676.5 600,-501 600,-464.3 574.68,-427.66 557.79,-407.3"/>
<polygon fill="midnightblue" stroke="midnightblue" points="560.35,-404.9 551.17,-399.62 555.05,-409.48 560.35,-404.9"/>
</g>
<!-- Node23 -->
<g id="node23" class="node">
<title>Node23</title>
<g id="a_node23"><a xlink:href="f__pc__delete__tag_8h.html" target="_top" xlink:title=" ">
<polygon fill="white" stroke="black" points="467.5,-727.5 467.5,-757.5 562.5,-757.5 562.5,-727.5 467.5,-727.5"/>
<text text-anchor="start" x="475.5" y="-745.5" font-family="Helvetica,sans-Serif" font-size="10.00">f/f_pc/f_pc_delete</text>
<text text-anchor="middle" x="515" y="-734.5" font-family="Helvetica,sans-Serif" font-size="10.00">_tag.h</text>
</a>
</g>
</g>
<!-- Node2&#45;&gt;Node23 -->
<g id="edge41" class="edge">
<title>Node2&#45;&gt;Node23</title>
<path fill="none" stroke="midnightblue" d="M462.74,-794.48C470.69,-786.72 482.76,-774.94 493.3,-764.66"/>
<polygon fill="midnightblue" stroke="midnightblue" points="495.91,-767.01 500.62,-757.52 491.02,-762 495.91,-767.01"/>
</g>
<!-- Node25 -->
<g id="node25" class="node">
<title>Node25</title>
<g id="a_node25"><a xlink:href="f__pc__layer__tag_8h.html" target="_top" xlink:title=" ">
<polygon fill="white" stroke="black" points="334.5,-733 334.5,-752 449.5,-752 449.5,-733 334.5,-733"/>
<text text-anchor="middle" x="392" y="-740" font-family="Helvetica,sans-Serif" font-size="10.00">f/f_pc/f_pc_layer_tag.h</text>
</a>
</g>
</g>
<!-- Node2&#45;&gt;Node25 -->
<g id="edge49" class="edge">
<title>Node2&#45;&gt;Node25</title>
<path fill="none" stroke="midnightblue" d="M445.12,-794.48C435.54,-785.28 420.09,-770.46 408.31,-759.16"/>
<polygon fill="midnightblue" stroke="midnightblue" points="410.51,-756.41 400.87,-752.01 405.66,-761.46 410.51,-756.41"/>
</g>
<!-- Node26 -->
<g id="node26" class="node">
<title>Node26</title>
<g id="a_node26"><a xlink:href="f__pc__line__tag_8h.html" target="_top" xlink:title=" ">
<polygon fill="white" stroke="black" points="0,-666 0,-685 110,-685 110,-666 0,-666"/>
<text text-anchor="middle" x="55" y="-673" font-family="Helvetica,sans-Serif" font-size="10.00">f/f_pc/f_pc_line_tag.h</text>
</a>
</g>
</g>
<!-- Node2&#45;&gt;Node26 -->
<g id="edge53" class="edge">
<title>Node2&#45;&gt;Node26</title>
<path fill="none" stroke="midnightblue" d="M405.48,-803.45C344.47,-802.31 237.69,-794.59 155,-758 120.21,-742.61 87.56,-711.76 69.53,-692.74"/>
<polygon fill="midnightblue" stroke="midnightblue" points="71.88,-690.13 62.52,-685.17 66.74,-694.89 71.88,-690.13"/>
</g>
<!-- Node27 -->
<g id="node27" class="node">
<title>Node27</title>
<g id="a_node27"><a xlink:href="f__pc__priority_8h.html" target="_top" xlink:title=" ">
<polygon fill="white" stroke="black" points="164,-733 164,-752 268,-752 268,-733 164,-733"/>
<text text-anchor="middle" x="216" y="-740" font-family="Helvetica,sans-Serif" font-size="10.00">f/f_pc/f_pc_priority.h</text>
</a>
</g>
</g>
<!-- Node2&#45;&gt;Node27 -->
<g id="edge56" class="edge">
<title>Node2&#45;&gt;Node27</title>
<path fill="none" stroke="midnightblue" d="M419.9,-794.48C377.75,-783.94 305.95,-765.99 259.77,-754.44"/>
<polygon fill="midnightblue" stroke="midnightblue" points="260.59,-751.04 250.04,-752.01 258.89,-757.83 260.59,-751.04"/>
</g>
<!-- Node29 -->
<g id="node29" class="node">
<title>Node29</title>
<g id="a_node29"><a xlink:href="f__pc__profile_8h.html" target="_top" xlink:title=" ">
<polygon fill="white" stroke="black" points="628.5,-733 628.5,-752 729.5,-752 729.5,-733 628.5,-733"/>
<text text-anchor="middle" x="679" y="-740" font-family="Helvetica,sans-Serif" font-size="10.00">f/f_pc/f_pc_profile.h</text>
</a>
</g>
</g>
<!-- Node2&#45;&gt;Node29 -->
<g id="edge61" class="edge">
<title>Node2&#45;&gt;Node29</title>
<path fill="none" stroke="midnightblue" d="M486.24,-794.48C525.92,-783.98 593.4,-766.14 637.07,-754.59"/>
<polygon fill="midnightblue" stroke="midnightblue" points="638.05,-757.95 646.82,-752.01 636.26,-751.18 638.05,-757.95"/>
</g>
<!-- Node4 -->
<g id="node4" class="node">
<title>Node4</title>
<g id="a_node4"><a xlink:href="c__list_8h.html" target="_top" xlink:title=" ">
<polygon fill="white" stroke="black" points="272.5,-492.5 272.5,-511.5 379.5,-511.5 379.5,-492.5 272.5,-492.5"/>
<text text-anchor="middle" x="326" y="-499.5" font-family="Helvetica,sans-Serif" font-size="10.00">SComponent/c_list.h</text>
</a>
</g>
</g>
<!-- Node3&#45;&gt;Node4 -->
<g id="edge3" class="edge">
<title>Node3&#45;&gt;Node4</title>
<path fill="none" stroke="midnightblue" d="M283.87,-604.38C286.76,-591.73 292.84,-567.53 301,-548 304.96,-538.52 310.41,-528.47 315.21,-520.29"/>
<polygon fill="midnightblue" stroke="midnightblue" points="318.24,-522.04 320.42,-511.67 312.25,-518.42 318.24,-522.04"/>
</g>
<!-- Node5 -->
<g id="node5" class="node">
<title>Node5</title>
<g id="a_node5"><a xlink:href="c__node_8h.html" target="_top" xlink:title=" ">
<polygon fill="white" stroke="black" points="342.5,-436.5 342.5,-455.5 457.5,-455.5 457.5,-436.5 342.5,-436.5"/>
<text text-anchor="middle" x="400" y="-443.5" font-family="Helvetica,sans-Serif" font-size="10.00">SComponent/c_node.h</text>
</a>
</g>
</g>
<!-- Node3&#45;&gt;Node5 -->
<g id="edge35" class="edge">
<title>Node3&#45;&gt;Node5</title>
<path fill="none" stroke="midnightblue" d="M276.93,-604.4C265.12,-583.1 238.63,-527.12 264,-492 279.75,-470.2 306.46,-458.79 332.07,-452.88"/>
<polygon fill="midnightblue" stroke="midnightblue" points="333.08,-456.24 342.18,-450.8 331.68,-449.38 333.08,-456.24"/>
</g>
<!-- Node3&#45;&gt;Node6 -->
<g id="edge39" class="edge">
<title>Node3&#45;&gt;Node6</title>
<path fill="none" stroke="midnightblue" d="M273.52,-604.23C265.95,-595.75 255.4,-582.13 251,-568 240.97,-535.75 235.14,-521.83 251,-492 271.89,-452.71 293.06,-453.44 334,-436 392.08,-411.25 465.24,-399.53 507.8,-394.44"/>
<polygon fill="midnightblue" stroke="midnightblue" points="508.4,-397.9 517.94,-393.29 507.61,-390.94 508.4,-397.9"/>
</g>
<!-- Node22 -->
<g id="node22" class="node">
<title>Node22</title>
<g id="a_node22"><a xlink:href="c__tree_8h.html" target="_top" xlink:title=" ">
<polygon fill="white" stroke="black" points="310,-548.5 310,-567.5 420,-567.5 420,-548.5 310,-548.5"/>
<text text-anchor="middle" x="365" y="-555.5" font-family="Helvetica,sans-Serif" font-size="10.00">SComponent/c_tree.h</text>
</a>
</g>
</g>
<!-- Node3&#45;&gt;Node22 -->
<g id="edge36" class="edge">
<title>Node3&#45;&gt;Node22</title>
<path fill="none" stroke="midnightblue" d="M295.34,-604.32C308.16,-595.98 327.78,-583.21 342.94,-573.35"/>
<polygon fill="midnightblue" stroke="midnightblue" points="345.22,-576.04 351.7,-567.65 341.41,-570.17 345.22,-576.04"/>
</g>
<!-- Node4&#45;&gt;Node5 -->
<g id="edge4" class="edge">
<title>Node4&#45;&gt;Node5</title>
<path fill="none" stroke="midnightblue" d="M337.89,-492.32C349.15,-484.11 366.29,-471.6 379.71,-461.81"/>
<polygon fill="midnightblue" stroke="midnightblue" points="381.88,-464.56 387.89,-455.83 377.75,-458.9 381.88,-464.56"/>
</g>
<!-- Node5&#45;&gt;Node6 -->
<g id="edge5" class="edge">
<title>Node5&#45;&gt;Node6</title>
<path fill="none" stroke="midnightblue" d="M422.66,-436.44C446.4,-427.48 483.91,-413.31 510.74,-403.18"/>
<polygon fill="midnightblue" stroke="midnightblue" points="512.33,-406.32 520.45,-399.52 509.86,-399.77 512.33,-406.32"/>
</g>
<!-- Node7 -->
<g id="node7" class="node">
<title>Node7</title>
<g id="a_node7"><a xlink:href="types_8h.html" target="_top" xlink:title=" ">
<polygon fill="white" stroke="black" points="532.5,-0.5 532.5,-19.5 613.5,-19.5 613.5,-0.5 532.5,-0.5"/>
<text text-anchor="middle" x="573" y="-7.5" font-family="Helvetica,sans-Serif" font-size="10.00">dolphin/types.h</text>
</a>
</g>
</g>
<!-- Node6&#45;&gt;Node7 -->
<g id="edge6" class="edge">
<title>Node6&#45;&gt;Node7</title>
<path fill="none" stroke="midnightblue" d="M517.85,-386.96C461.69,-380.9 331,-357.75 331,-273.5 331,-273.5 331,-273.5 331,-137.5 331,-51.87 451.46,-24.1 522.41,-15.17"/>
<polygon fill="midnightblue" stroke="midnightblue" points="522.97,-18.63 532.49,-13.99 522.15,-11.68 522.97,-18.63"/>
</g>
<!-- Node8 -->
<g id="node8" class="node">
<title>Node8</title>
<g id="a_node8"><a xlink:href="AR_8h.html" target="_top" xlink:title=" ">
<polygon fill="white" stroke="black" points="359.5,-263 359.5,-282 408.5,-282 408.5,-263 359.5,-263"/>
<text text-anchor="middle" x="384" y="-270" font-family="Helvetica,sans-Serif" font-size="10.00">ar/AR.h</text>
</a>
</g>
</g>
<!-- Node6&#45;&gt;Node8 -->
<g id="edge7" class="edge">
<title>Node6&#45;&gt;Node8</title>
<path fill="none" stroke="midnightblue" d="M517.87,-384.88C491.6,-379.46 450.45,-367.7 423,-344 406.83,-330.04 396.07,-307.64 390.02,-291.84"/>
<polygon fill="midnightblue" stroke="midnightblue" points="393.22,-290.4 386.58,-282.14 386.63,-292.74 393.22,-290.4"/>
</g>
<!-- Node9 -->
<g id="node9" class="node">
<title>Node9</title>
<g id="a_node9"><a xlink:href="ARQ_8h.html" target="_top" xlink:title=" ">
<polygon fill="white" stroke="black" points="409,-129 409,-148 465,-148 465,-129 409,-129"/>
<text text-anchor="middle" x="437" y="-136" font-family="Helvetica,sans-Serif" font-size="10.00">ar/ARQ.h</text>
</a>
</g>
</g>
<!-- Node6&#45;&gt;Node9 -->
<g id="edge9" class="edge">
<title>Node6&#45;&gt;Node9</title>
<path fill="none" stroke="midnightblue" d="M517.94,-383.12C497.67,-376.97 470.26,-365.15 456,-344 416.99,-286.12 426.53,-197.19 433.18,-158.53"/>
<polygon fill="midnightblue" stroke="midnightblue" points="436.71,-158.71 435.09,-148.24 429.82,-157.43 436.71,-158.71"/>
</g>
<!-- Node10 -->
<g id="node10" class="node">
<title>Node10</title>
<g id="a_node10"><a xlink:href="mwcc_8h.html" target="_top" xlink:title=" ">
<polygon fill="white" stroke="black" points="465,-324.5 465,-343.5 515,-343.5 515,-324.5 465,-324.5"/>
<text text-anchor="middle" x="490" y="-331.5" font-family="Helvetica,sans-Serif" font-size="10.00">mwcc.h</text>
</a>
</g>
</g>
<!-- Node6&#45;&gt;Node10 -->
<g id="edge11" class="edge">
<title>Node6&#45;&gt;Node10</title>
<path fill="none" stroke="midnightblue" d="M534.25,-380.08C526.53,-372.22 515.1,-360.57 505.78,-351.08"/>
<polygon fill="midnightblue" stroke="midnightblue" points="508.09,-348.44 498.59,-343.75 503.1,-353.34 508.09,-348.44"/>
</g>
<!-- Node11 -->
<g id="node11" class="node">
<title>Node11</title>
<g id="a_node11"><a xlink:href="OS_8h.html" target="_top" xlink:title=" ">
<polygon fill="white" stroke="black" points="496,-129 496,-148 548,-148 548,-129 496,-129"/>
<text text-anchor="middle" x="522" y="-136" font-family="Helvetica,sans-Serif" font-size="10.00">os/OS.h</text>
</a>
</g>
</g>
<!-- Node6&#45;&gt;Node11 -->
<g id="edge12" class="edge">
<title>Node6&#45;&gt;Node11</title>
<path fill="none" stroke="midnightblue" d="M542.28,-380.41C539.28,-344.8 527.79,-208.25 523.57,-158.11"/>
<polygon fill="midnightblue" stroke="midnightblue" points="527.05,-157.72 522.72,-148.05 520.07,-158.31 527.05,-157.72"/>
</g>
<!-- Node13 -->
<g id="node13" class="node">
<title>Node13</title>
<g id="a_node13"><a xlink:href="variables_8h.html" target="_top" xlink:title=" ">
<polygon fill="white" stroke="black" points="784.5,-324.5 784.5,-343.5 847.5,-343.5 847.5,-324.5 784.5,-324.5"/>
<text text-anchor="middle" x="816" y="-331.5" font-family="Helvetica,sans-Serif" font-size="10.00">variables.h</text>
</a>
</g>
</g>
<!-- Node6&#45;&gt;Node13 -->
<g id="edge16" class="edge">
<title>Node6&#45;&gt;Node13</title>
<path fill="none" stroke="midnightblue" d="M568.19,-384.02C615.26,-374.71 716.97,-354.59 774.38,-343.23"/>
<polygon fill="midnightblue" stroke="midnightblue" points="775.09,-346.66 784.22,-341.29 773.73,-339.79 775.09,-346.66"/>
</g>
<!-- Node8&#45;&gt;Node7 -->
<g id="edge8" class="edge">
<title>Node8&#45;&gt;Node7</title>
<path fill="none" stroke="midnightblue" d="M382.51,-262.88C377.43,-230.22 364.23,-113.12 425,-56 451.31,-31.27 490.81,-20.1 522.38,-15.08"/>
<polygon fill="midnightblue" stroke="midnightblue" points="522.93,-18.53 532.33,-13.65 521.93,-11.6 522.93,-18.53"/>
</g>
<!-- Node9&#45;&gt;Node7 -->
<g id="edge10" class="edge">
<title>Node9&#45;&gt;Node7</title>
<path fill="none" stroke="midnightblue" d="M434.29,-128.87C429.81,-112.78 422.87,-77.87 439,-56 458.16,-30.03 492.99,-18.87 522.34,-14.15"/>
<polygon fill="midnightblue" stroke="midnightblue" points="523.04,-17.59 532.46,-12.74 522.07,-10.66 523.04,-17.59"/>
</g>
<!-- Node11&#45;&gt;Node7 -->
<g id="edge13" class="edge">
<title>Node11&#45;&gt;Node7</title>
<path fill="none" stroke="midnightblue" d="M525.51,-128.81C533.77,-108.31 554.6,-56.65 565.73,-29.04"/>
<polygon fill="midnightblue" stroke="midnightblue" points="568.98,-30.34 569.47,-19.76 562.48,-27.72 568.98,-30.34"/>
</g>
<!-- Node12 -->
<g id="node12" class="node">
<title>Node12</title>
<g id="a_node12"><a xlink:href="dvd_8h.html" target="_top" xlink:title=" ">
<polygon fill="white" stroke="black" points="447.5,-62 447.5,-81 506.5,-81 506.5,-62 447.5,-62"/>
<text text-anchor="middle" x="477" y="-69" font-family="Helvetica,sans-Serif" font-size="10.00">dvd/dvd.h</text>
</a>
</g>
</g>
<!-- Node11&#45;&gt;Node12 -->
<g id="edge14" class="edge">
<title>Node11&#45;&gt;Node12</title>
<path fill="none" stroke="midnightblue" d="M515.93,-128.73C508.98,-118.7 497.43,-102.01 488.71,-89.42"/>
<polygon fill="midnightblue" stroke="midnightblue" points="491.54,-87.36 482.97,-81.13 485.79,-91.34 491.54,-87.36"/>
</g>
<!-- Node12&#45;&gt;Node7 -->
<g id="edge15" class="edge">
<title>Node12&#45;&gt;Node7</title>
<path fill="none" stroke="midnightblue" d="M490.75,-61.98C506.37,-52.3 532.06,-36.37 550.58,-24.89"/>
<polygon fill="midnightblue" stroke="midnightblue" points="552.62,-27.75 559.27,-19.51 548.93,-21.8 552.62,-27.75"/>
</g>
<!-- Node14 -->
<g id="node14" class="node">
<title>Node14</title>
<g id="a_node14"><a xlink:href="JSUList_8h.html" target="_top" xlink:title=" ">
<polygon fill="white" stroke="black" points="747,-56.5 747,-86.5 883,-86.5 883,-56.5 747,-56.5"/>
<text text-anchor="start" x="755" y="-74.5" font-family="Helvetica,sans-Serif" font-size="10.00">JSystem/JSupport/JSUList</text>
<text text-anchor="middle" x="815" y="-63.5" font-family="Helvetica,sans-Serif" font-size="10.00">/JSUList.h</text>
</a>
</g>
</g>
<!-- Node13&#45;&gt;Node14 -->
<g id="edge17" class="edge">
<title>Node13&#45;&gt;Node14</title>
<path fill="none" stroke="midnightblue" d="M820.27,-324.39C834.07,-295.36 875.22,-198.69 851,-123 847.74,-112.8 841.58,-102.9 835.26,-94.62"/>
<polygon fill="midnightblue" stroke="midnightblue" points="837.77,-92.15 828.74,-86.61 832.34,-96.58 837.77,-92.15"/>
</g>
<!-- Node15 -->
<g id="node15" class="node">
<title>Node15</title>
<g id="a_node15"><a xlink:href="JUTXfb_8h.html" target="_top" xlink:title=" ">
<polygon fill="white" stroke="black" points="566.5,-257.5 566.5,-287.5 691.5,-287.5 691.5,-257.5 566.5,-257.5"/>
<text text-anchor="start" x="574.5" y="-275.5" font-family="Helvetica,sans-Serif" font-size="10.00">JSystem/JUtility/JUTXfb</text>
<text text-anchor="middle" x="629" y="-264.5" font-family="Helvetica,sans-Serif" font-size="10.00">/JUTXfb.h</text>
</a>
</g>
</g>
<!-- Node13&#45;&gt;Node15 -->
<g id="edge19" class="edge">
<title>Node13&#45;&gt;Node15</title>
<path fill="none" stroke="midnightblue" d="M789.21,-324.48C761.51,-315.66 717.53,-301.67 682.65,-290.57"/>
<polygon fill="midnightblue" stroke="midnightblue" points="683.66,-287.22 673.07,-287.52 681.54,-293.89 683.66,-287.22"/>
</g>
<!-- Node19 -->
<g id="node19" class="node">
<title>Node19</title>
<g id="a_node19"><a xlink:href="c__xyz_8h.html" target="_top" xlink:title=" ">
<polygon fill="white" stroke="black" points="880.5,-263 880.5,-282 987.5,-282 987.5,-263 880.5,-263"/>
<text text-anchor="middle" x="934" y="-270" font-family="Helvetica,sans-Serif" font-size="10.00">SComponent/c_xyz.h</text>
</a>
</g>
</g>
<!-- Node13&#45;&gt;Node19 -->
<g id="edge29" class="edge">
<title>Node13&#45;&gt;Node19</title>
<path fill="none" stroke="midnightblue" d="M832.91,-324.48C852.53,-314.58 885.13,-298.14 907.99,-286.62"/>
<polygon fill="midnightblue" stroke="midnightblue" points="909.77,-289.64 917.12,-282.01 906.62,-283.39 909.77,-289.64"/>
</g>
<!-- Node14&#45;&gt;Node7 -->
<g id="edge18" class="edge">
<title>Node14&#45;&gt;Node7</title>
<path fill="none" stroke="midnightblue" d="M757.96,-56.47C715.02,-45.92 657.01,-31.66 617.48,-21.94"/>
<polygon fill="midnightblue" stroke="midnightblue" points="618.14,-18.5 607.6,-19.51 616.47,-25.29 618.14,-18.5"/>
</g>
<!-- Node15&#45;&gt;Node7 -->
<g id="edge26" class="edge">
<title>Node15&#45;&gt;Node7</title>
<path fill="none" stroke="midnightblue" d="M625.99,-257.49C616.57,-213.67 587.65,-79.13 576.99,-29.58"/>
<polygon fill="midnightblue" stroke="midnightblue" points="580.38,-28.67 574.85,-19.63 573.53,-30.14 580.38,-28.67"/>
</g>
<!-- Node16 -->
<g id="node16" class="node">
<title>Node16</title>
<g id="a_node16"><a xlink:href="JKRHeap_8h.html" target="_top" xlink:title=" ">
<polygon fill="white" stroke="black" points="652,-190.5 652,-220.5 788,-220.5 788,-190.5 652,-190.5"/>
<text text-anchor="start" x="660" y="-208.5" font-family="Helvetica,sans-Serif" font-size="10.00">JSystem/JKernel/JKRHeap</text>
<text text-anchor="middle" x="720" y="-197.5" font-family="Helvetica,sans-Serif" font-size="10.00">/JKRHeap.h</text>
</a>
</g>
</g>
<!-- Node15&#45;&gt;Node16 -->
<g id="edge20" class="edge">
<title>Node15&#45;&gt;Node16</title>
<path fill="none" stroke="midnightblue" d="M648.75,-257.4C661.39,-248.37 677.98,-236.51 691.97,-226.52"/>
<polygon fill="midnightblue" stroke="midnightblue" points="694.19,-229.24 700.29,-220.58 690.12,-223.54 694.19,-229.24"/>
</g>
<!-- Node18 -->
<g id="node18" class="node">
<title>Node18</title>
<g id="a_node18"><a xlink:href="GX_8h.html" target="_top" xlink:title=" ">
<polygon fill="white" stroke="black" points="601.5,-62 601.5,-81 652.5,-81 652.5,-62 601.5,-62"/>
<text text-anchor="middle" x="627" y="-69" font-family="Helvetica,sans-Serif" font-size="10.00">gx/GX.h</text>
</a>
</g>
</g>
<!-- Node15&#45;&gt;Node18 -->
<g id="edge27" class="edge">
<title>Node15&#45;&gt;Node18</title>
<path fill="none" stroke="midnightblue" d="M628.86,-257.19C628.5,-221.99 627.59,-131.17 627.19,-91.51"/>
<polygon fill="midnightblue" stroke="midnightblue" points="630.69,-91.32 627.09,-81.36 623.69,-91.39 630.69,-91.32"/>
</g>
<!-- Node16&#45;&gt;Node6 -->
<g id="edge25" class="edge">
<title>Node16&#45;&gt;Node6</title>
<path fill="none" stroke="midnightblue" d="M719.85,-220.78C719,-238.17 715.34,-267.72 701,-288 669.9,-331.98 613.01,-361.3 576.65,-376.54"/>
<polygon fill="midnightblue" stroke="midnightblue" points="574.93,-373.46 566.98,-380.46 577.56,-379.94 574.93,-373.46"/>
</g>
<!-- Node16&#45;&gt;Node7 -->
<g id="edge24" class="edge">
<title>Node16&#45;&gt;Node7</title>
<path fill="none" stroke="midnightblue" d="M706.45,-190.16C698.17,-180.61 688.04,-167.41 682,-154 663.74,-113.47 688.97,-91.33 662,-56 650.32,-40.7 632,-30.2 615.01,-23.22"/>
<polygon fill="midnightblue" stroke="midnightblue" points="615.81,-19.78 605.22,-19.51 613.33,-26.32 615.81,-19.78"/>
</g>
<!-- Node17 -->
<g id="node17" class="node">
<title>Node17</title>
<g id="a_node17"><a xlink:href="JKRDisposer_8h.html" target="_top" xlink:title=" ">
<polygon fill="white" stroke="black" points="690.5,-123.5 690.5,-153.5 841.5,-153.5 841.5,-123.5 690.5,-123.5"/>
<text text-anchor="start" x="698.5" y="-141.5" font-family="Helvetica,sans-Serif" font-size="10.00">JSystem/JKernel/JKRDisposer</text>
<text text-anchor="middle" x="766" y="-130.5" font-family="Helvetica,sans-Serif" font-size="10.00">/JKRDisposer.h</text>
</a>
</g>
</g>
<!-- Node16&#45;&gt;Node17 -->
<g id="edge21" class="edge">
<title>Node16&#45;&gt;Node17</title>
<path fill="none" stroke="midnightblue" d="M729.98,-190.4C735.89,-182.05 743.5,-171.29 750.21,-161.81"/>
<polygon fill="midnightblue" stroke="midnightblue" points="753.12,-163.76 756.04,-153.58 747.4,-159.72 753.12,-163.76"/>
</g>
<!-- Node17&#45;&gt;Node7 -->
<g id="edge23" class="edge">
<title>Node17&#45;&gt;Node7</title>
<path fill="none" stroke="midnightblue" d="M757.09,-123.48C745.02,-105.53 721.88,-74.54 695,-56 672.48,-40.47 643.94,-29.56 620.13,-22.37"/>
<polygon fill="midnightblue" stroke="midnightblue" points="620.82,-18.93 610.24,-19.52 618.88,-25.66 620.82,-18.93"/>
</g>
<!-- Node17&#45;&gt;Node14 -->
<g id="edge22" class="edge">
<title>Node17&#45;&gt;Node14</title>
<path fill="none" stroke="midnightblue" d="M776.63,-123.4C782.92,-115.05 791.04,-104.29 798.18,-94.81"/>
<polygon fill="midnightblue" stroke="midnightblue" points="801.16,-96.67 804.39,-86.58 795.57,-92.45 801.16,-96.67"/>
</g>
<!-- Node18&#45;&gt;Node7 -->
<g id="edge28" class="edge">
<title>Node18&#45;&gt;Node7</title>
<path fill="none" stroke="midnightblue" d="M619.26,-61.98C611,-52.87 597.72,-38.24 587.51,-26.98"/>
<polygon fill="midnightblue" stroke="midnightblue" points="590.03,-24.56 580.72,-19.51 584.85,-29.27 590.03,-24.56"/>
</g>
<!-- Node19&#45;&gt;Node6 -->
<g id="edge32" class="edge">
<title>Node19&#45;&gt;Node6</title>
<path fill="none" stroke="midnightblue" d="M927.49,-282.21C915.47,-297.57 888.13,-329.27 857,-344 808.23,-367.07 650.16,-381.19 578.68,-386.54"/>
<polygon fill="midnightblue" stroke="midnightblue" points="578.1,-383.07 568.39,-387.3 578.62,-390.06 578.1,-383.07"/>
</g>
<!-- Node20 -->
<g id="node20" class="node">
<title>Node20</title>
<g id="a_node20"><a xlink:href="c__math_8h.html" target="_top" xlink:title=" ">
<polygon fill="white" stroke="black" points="960,-196 960,-215 1076,-215 1076,-196 960,-196"/>
<text text-anchor="middle" x="1018" y="-203" font-family="Helvetica,sans-Serif" font-size="10.00">SComponent/c_math.h</text>
</a>
</g>
</g>
<!-- Node19&#45;&gt;Node20 -->
<g id="edge30" class="edge">
<title>Node19&#45;&gt;Node20</title>
<path fill="none" stroke="midnightblue" d="M945.33,-262.73C959.06,-252.11 982.4,-234.05 998.92,-221.26"/>
<polygon fill="midnightblue" stroke="midnightblue" points="1001.08,-224.02 1006.85,-215.13 996.8,-218.48 1001.08,-224.02"/>
</g>
<!-- Node21 -->
<g id="node21" class="node">
<title>Node21</title>
<g id="a_node21"><a xlink:href="mtx__vec_8h.html" target="_top" xlink:title=" ">
<polygon fill="white" stroke="black" points="880.5,-196 880.5,-215 941.5,-215 941.5,-196 880.5,-196"/>
<text text-anchor="middle" x="911" y="-203" font-family="Helvetica,sans-Serif" font-size="10.00">mtx_vec.h</text>
</a>
</g>
</g>
<!-- Node19&#45;&gt;Node21 -->
<g id="edge33" class="edge">
<title>Node19&#45;&gt;Node21</title>
<path fill="none" stroke="midnightblue" d="M930.9,-262.73C927.48,-253.09 921.9,-237.3 917.51,-224.91"/>
<polygon fill="midnightblue" stroke="midnightblue" points="920.69,-223.39 914.05,-215.13 914.09,-225.72 920.69,-223.39"/>
</g>
<!-- Node20&#45;&gt;Node6 -->
<g id="edge31" class="edge">
<title>Node20&#45;&gt;Node6</title>
<path fill="none" stroke="midnightblue" d="M1018.02,-215.14C1017.63,-231.25 1014.63,-266.18 997,-288 962.02,-331.29 938.21,-327.7 885,-344 776.47,-377.24 641.18,-385.93 578.24,-388.2"/>
<polygon fill="midnightblue" stroke="midnightblue" points="577.95,-384.71 568.07,-388.53 578.17,-391.7 577.95,-384.71"/>
</g>
<!-- Node21&#45;&gt;Node7 -->
<g id="edge34" class="edge">
<title>Node21&#45;&gt;Node7</title>
<path fill="none" stroke="midnightblue" d="M913.02,-195.97C918.45,-170.6 930.53,-95.03 892,-56 855.57,-19.1 704.56,-12.04 624.06,-10.96"/>
<polygon fill="midnightblue" stroke="midnightblue" points="623.7,-7.46 613.66,-10.85 623.62,-14.46 623.7,-7.46"/>
</g>
<!-- Node22&#45;&gt;Node4 -->
<g id="edge37" class="edge">
<title>Node22&#45;&gt;Node4</title>
<path fill="none" stroke="midnightblue" d="M358.56,-548.08C353.05,-540.46 344.97,-529.26 338.24,-519.94"/>
<polygon fill="midnightblue" stroke="midnightblue" points="341.01,-517.81 332.32,-511.75 335.34,-521.91 341.01,-517.81"/>
</g>
<!-- Node22&#45;&gt;Node5 -->
<g id="edge38" class="edge">
<title>Node22&#45;&gt;Node5</title>
<path fill="none" stroke="midnightblue" d="M370.66,-548.42C376.19,-539.63 384.43,-525.41 389,-512 394.15,-496.92 396.95,-479.02 398.43,-465.82"/>
<polygon fill="midnightblue" stroke="midnightblue" points="401.94,-465.92 399.43,-455.63 394.97,-465.24 401.94,-465.92"/>
</g>
<!-- Node23&#45;&gt;Node3 -->
<g id="edge42" class="edge">
<title>Node23&#45;&gt;Node3</title>
<path fill="none" stroke="midnightblue" d="M473.32,-727.48C448.68,-718.48 417.25,-705.73 391,-691 370.77,-679.65 367.97,-673.36 349,-660 334.11,-649.51 317.06,-638.07 303.89,-629.35"/>
<polygon fill="midnightblue" stroke="midnightblue" points="305.74,-626.38 295.47,-623.79 301.89,-632.22 305.74,-626.38"/>
</g>
<!-- Node23&#45;&gt;Node6 -->
<g id="edge48" class="edge">
<title>Node23&#45;&gt;Node6</title>
<path fill="none" stroke="midnightblue" d="M524.06,-727.34C537.72,-704.6 562,-658.11 562,-615 562,-615 562,-615 562,-501 562,-468.49 553.84,-431.35 548.22,-409.61"/>
<polygon fill="midnightblue" stroke="midnightblue" points="551.54,-408.5 545.56,-399.75 544.78,-410.32 551.54,-408.5"/>
</g>
<!-- Node24 -->
<g id="node24" class="node">
<title>Node24</title>
<g id="a_node24"><a xlink:href="f__pc__layer_8h.html" target="_top" xlink:title=" ">
<polygon fill="white" stroke="black" points="400,-666 400,-685 496,-685 496,-666 400,-666"/>
<text text-anchor="middle" x="448" y="-673" font-family="Helvetica,sans-Serif" font-size="10.00">f/f_pc/f_pc_layer.h</text>
</a>
</g>
</g>
<!-- Node23&#45;&gt;Node24 -->
<g id="edge43" class="edge">
<title>Node23&#45;&gt;Node24</title>
<path fill="none" stroke="midnightblue" d="M500.46,-727.4C489.81,-717.06 475.34,-703.02 464.3,-692.31"/>
<polygon fill="midnightblue" stroke="midnightblue" points="466.58,-689.65 456.96,-685.19 461.7,-694.67 466.58,-689.65"/>
</g>
<!-- Node24&#45;&gt;Node3 -->
<g id="edge45" class="edge">
<title>Node24&#45;&gt;Node3</title>
<path fill="none" stroke="midnightblue" d="M424.22,-665.98C395.62,-655.72 347.45,-638.46 315.2,-626.9"/>
<polygon fill="midnightblue" stroke="midnightblue" points="316.33,-623.59 305.74,-623.51 313.97,-630.18 316.33,-623.59"/>
</g>
<!-- Node24&#45;&gt;Node5 -->
<g id="edge44" class="edge">
<title>Node24&#45;&gt;Node5</title>
<path fill="none" stroke="midnightblue" d="M447.09,-665.84C444.86,-645.25 438.54,-591.83 429,-548 422.62,-518.67 412.46,-485.32 406.02,-465.24"/>
<polygon fill="midnightblue" stroke="midnightblue" points="409.29,-463.98 402.87,-455.55 402.63,-466.14 409.29,-463.98"/>
</g>
<!-- Node24&#45;&gt;Node6 -->
<g id="edge47" class="edge">
<title>Node24&#45;&gt;Node6</title>
<path fill="none" stroke="midnightblue" d="M452.97,-665.84C463.27,-647.03 486,-600.8 486,-559 486,-559 486,-559 486,-501 486,-464.3 511.32,-427.66 528.21,-407.3"/>
<polygon fill="midnightblue" stroke="midnightblue" points="530.95,-409.48 534.83,-399.62 525.65,-404.9 530.95,-409.48"/>
</g>
<!-- Node24&#45;&gt;Node22 -->
<g id="edge46" class="edge">
<title>Node24&#45;&gt;Node22</title>
<path fill="none" stroke="midnightblue" d="M441.76,-665.82C428.06,-646.76 395.14,-600.95 377.19,-575.96"/>
<polygon fill="midnightblue" stroke="midnightblue" points="379.99,-573.86 371.31,-567.78 374.3,-577.95 379.99,-573.86"/>
</g>
<!-- Node25&#45;&gt;Node3 -->
<g id="edge50" class="edge">
<title>Node25&#45;&gt;Node3</title>
<path fill="none" stroke="midnightblue" d="M384.44,-732.81C366.31,-711.95 320.1,-658.81 296.44,-631.61"/>
<polygon fill="midnightblue" stroke="midnightblue" points="298.82,-629.01 289.61,-623.76 293.53,-633.6 298.82,-629.01"/>
</g>
<!-- Node25&#45;&gt;Node6 -->
<g id="edge52" class="edge">
<title>Node25&#45;&gt;Node6</title>
<path fill="none" stroke="midnightblue" d="M432.2,-732.98C456.63,-725.77 486.57,-712.98 505,-691 527.37,-664.32 524,-649.82 524,-615 524,-615 524,-615 524,-501 524,-468.49 532.16,-431.35 537.78,-409.61"/>
<polygon fill="midnightblue" stroke="midnightblue" points="541.22,-410.32 540.44,-399.75 534.46,-408.5 541.22,-410.32"/>
</g>
<!-- Node25&#45;&gt;Node24 -->
<g id="edge51" class="edge">
<title>Node25&#45;&gt;Node24</title>
<path fill="none" stroke="midnightblue" d="M399.55,-732.73C408.28,-722.6 422.85,-705.69 433.74,-693.06"/>
<polygon fill="midnightblue" stroke="midnightblue" points="436.69,-694.99 440.57,-685.13 431.39,-690.42 436.69,-694.99"/>
</g>
<!-- Node26&#45;&gt;Node3 -->
<g id="edge54" class="edge">
<title>Node26&#45;&gt;Node3</title>
<path fill="none" stroke="midnightblue" d="M87.52,-665.98C127.56,-655.48 195.64,-637.64 239.7,-626.09"/>
<polygon fill="midnightblue" stroke="midnightblue" points="240.75,-629.43 249.54,-623.51 238.98,-622.66 240.75,-629.43"/>
</g>
<!-- Node26&#45;&gt;Node6 -->
<g id="edge55" class="edge">
<title>Node26&#45;&gt;Node6</title>
<path fill="none" stroke="midnightblue" d="M59.97,-665.84C70.27,-647.03 93,-600.8 93,-559 93,-559 93,-559 93,-501 93,-415.76 401.52,-396.26 507.64,-392.08"/>
<polygon fill="midnightblue" stroke="midnightblue" points="507.98,-395.57 517.84,-391.7 507.72,-388.57 507.98,-395.57"/>
</g>
<!-- Node27&#45;&gt;Node3 -->
<g id="edge57" class="edge">
<title>Node27&#45;&gt;Node3</title>
<path fill="none" stroke="midnightblue" d="M220.54,-732.81C231.27,-712.22 258.42,-660.19 272.78,-632.68"/>
<polygon fill="midnightblue" stroke="midnightblue" points="275.91,-634.24 277.43,-623.76 269.7,-631 275.91,-634.24"/>
</g>
<!-- Node28 -->
<g id="node28" class="node">
<title>Node28</title>
<g id="a_node28"><a xlink:href="f__pc__method__tag_8h.html" target="_top" xlink:title=" ">
<polygon fill="white" stroke="black" points="128.5,-660.5 128.5,-690.5 229.5,-690.5 229.5,-660.5 128.5,-660.5"/>
<text text-anchor="start" x="136.5" y="-678.5" font-family="Helvetica,sans-Serif" font-size="10.00">f/f_pc/f_pc_method</text>
<text text-anchor="middle" x="179" y="-667.5" font-family="Helvetica,sans-Serif" font-size="10.00">_tag.h</text>
</a>
</g>
</g>
<!-- Node27&#45;&gt;Node28 -->
<g id="edge58" class="edge">
<title>Node27&#45;&gt;Node28</title>
<path fill="none" stroke="midnightblue" d="M211.01,-732.73C206.15,-724.2 198.57,-710.87 192,-699.33"/>
<polygon fill="midnightblue" stroke="midnightblue" points="195.01,-697.55 187.02,-690.59 188.93,-701.01 195.01,-697.55"/>
</g>
<!-- Node28&#45;&gt;Node3 -->
<g id="edge59" class="edge">
<title>Node28&#45;&gt;Node3</title>
<path fill="none" stroke="midnightblue" d="M203.41,-660.4C219.92,-650.86 241.62,-638.32 258.04,-628.84"/>
<polygon fill="midnightblue" stroke="midnightblue" points="260.1,-631.69 267.01,-623.66 256.6,-625.63 260.1,-631.69"/>
</g>
<!-- Node28&#45;&gt;Node6 -->
<g id="edge60" class="edge">
<title>Node28&#45;&gt;Node6</title>
<path fill="none" stroke="midnightblue" d="M176.77,-660.32C173.56,-638.57 168,-595.66 168,-559 168,-559 168,-559 168,-501 168,-430.61 414.38,-402.06 507.72,-393.77"/>
<polygon fill="midnightblue" stroke="midnightblue" points="508.15,-397.24 517.81,-392.9 507.55,-390.27 508.15,-397.24"/>
</g>
<!-- Node29&#45;&gt;Node6 -->
<g id="edge64" class="edge">
<title>Node29&#45;&gt;Node6</title>
<path fill="none" stroke="midnightblue" d="M674.14,-732.92C663.28,-712.92 638,-661.4 638,-615 638,-615 638,-615 638,-501 638,-470.2 633.36,-459.95 614,-436 603.01,-422.41 586.77,-411.68 572.59,-404.12"/>
<polygon fill="midnightblue" stroke="midnightblue" points="574.15,-400.99 563.64,-399.61 570.99,-407.24 574.15,-400.99"/>
</g>
<!-- Node29&#45;&gt;Node30 -->
<g id="edge62" class="edge">
<title>Node29&#45;&gt;Node30</title>
<path fill="none" stroke="midnightblue" d="M684.53,-732.73C690.8,-722.79 701.18,-706.34 709.09,-693.79"/>
<polygon fill="midnightblue" stroke="midnightblue" points="712.18,-695.45 714.56,-685.13 706.26,-691.72 712.18,-695.45"/>
</g>
<!-- Node30&#45;&gt;Node6 -->
<g id="edge63" class="edge">
<title>Node30&#45;&gt;Node6</title>
<path fill="none" stroke="midnightblue" d="M717.21,-665.91C711.29,-646.88 698,-599.62 698,-559 698,-559 698,-559 698,-501 698,-442.56 623.82,-412.33 578.09,-399.25"/>
<polygon fill="midnightblue" stroke="midnightblue" points="578.82,-395.82 568.25,-396.57 576.98,-402.58 578.82,-395.82"/>
</g>
<!-- Node31&#45;&gt;Node6 -->
<g id="edge66" class="edge">
<title>Node31&#45;&gt;Node6</title>
<path fill="none" stroke="midnightblue" d="M894.93,-604.23C890.85,-574.99 873.51,-480.16 816,-436 779.37,-407.87 643.73,-396.61 578.5,-392.75"/>
<polygon fill="midnightblue" stroke="midnightblue" points="578.47,-389.24 568.29,-392.17 578.07,-396.23 578.47,-389.24"/>
</g>
</g>
</svg>
        <g id="navigator" transform="translate(0 0)" fill="#404254">
                <rect fill="#f2f5e9" fill-opacity="0.5" stroke="#606060" stroke-width=".5" x="0" y="0" width="60" height="60"/>
                <use id="zoomplus" xlink:href="#zoomPlus" x="17" y="9" onmousedown="handleZoom(evt,'in')"/>
                <use id="zoomminus" xlink:href="#zoomMin" x="42" y="9" onmousedown="handleZoom(evt,'out')"/>
                <use id="reset" xlink:href="#resetDef" x="30" y="36" onmousedown="handleReset()"/>
                <g id="arrowUp" xlink:href="#dirArrow" transform="translate(30 24)" onmousedown="handlePan(0,-1)">
                  <use xlink:href="#rim" fill="#404040">
                        <set attributeName="fill" to="#808080" begin="arrowUp.mouseover" end="arrowUp.mouseout"/>
                  </use>
                  <path fill="none" stroke="white" stroke-width="1.5" d="M0,-3.0v7 M-2.5,-0.5L0,-3.0L2.5,-0.5"/>
                </g>
                <g id="arrowRight" xlink:href="#dirArrow" transform="rotate(90) translate(36 -43)" onmousedown="handlePan(1,0)">
                  <use xlink:href="#rim" fill="#404040">
                        <set attributeName="fill" to="#808080" begin="arrowRight.mouseover" end="arrowRight.mouseout"/>
                  </use>
                  <path fill="none" stroke="white" stroke-width="1.5" d="M0,-3.0v7 M-2.5,-0.5L0,-3.0L2.5,-0.5"/>
                </g>
                <g id="arrowDown" xlink:href="#dirArrow" transform="rotate(180) translate(-30 -48)" onmousedown="handlePan(0,1)">
                  <use xlink:href="#rim" fill="#404040">
                        <set attributeName="fill" to="#808080" begin="arrowDown.mouseover" end="arrowDown.mouseout"/>
                  </use>
                  <path fill="none" stroke="white" stroke-width="1.5" d="M0,-3.0v7 M-2.5,-0.5L0,-3.0L2.5,-0.5"/>
                </g>
                <g id="arrowLeft" xlink:href="#dirArrow" transform="rotate(270) translate(-36 17)" onmousedown="handlePan(-1,0)">
                  <use xlink:href="#rim" fill="#404040">
                        <set attributeName="fill" to="#808080" begin="arrowLeft.mouseover" end="arrowLeft.mouseout"/>
                  </use>
                  <path fill="none" stroke="white" stroke-width="1.5" d="M0,-3.0v7 M-2.5,-0.5L0,-3.0L2.5,-0.5"/>
                </g>
        </g>
        <svg viewBox="0 0 15 15" width="100%" height="30px" preserveAspectRatio="xMaxYMin meet">
         <g id="arrow_out" transform="scale(0.3 0.3)">
          <a xlink:href="f__pc__leaf_8h__incl_org.svg" target="_base">
           <rect id="button" ry="5" rx="5" y="6" x="6" height="38" width="38"
                fill="#f2f5e9" fill-opacity="0.5" stroke="#606060" stroke-width="1.0"/>
           <path id="arrow"
             d="M 11.500037,31.436501 C 11.940474,20.09759 22.043105,11.32322 32.158766,21.979434 L 37.068811,17.246167 C 37.068811,17.246167 37.088388,32 37.088388,32 L 22.160133,31.978069 C 22.160133,31.978069 26.997745,27.140456 26.997745,27.140456 C 18.528582,18.264221 13.291696,25.230495 11.500037,31.436501 z"
             style="fill:#404040;"/>
          </a>
         </g>
        </svg>
</svg>
