<?xml version="1.0" encoding="UTF-8" standalone="no"?>
<!DOCTYPE svg PUBLIC "-//W3C//DTD SVG 1.1//EN"
 "http://www.w3.org/Graphics/SVG/1.1/DTD/svg11.dtd">
<!-- Generated by graphviz version 2.46.0 (20210122.1329)
 -->
<!-- Title: src/f/f_pc/f_pc_fstcreate_req.cpp Pages: 1 -->
<svg width="1166pt" height="956pt"
 viewBox="0.00 0.00 1166.00 956.00" xmlns="http://www.w3.org/2000/svg" xmlns:xlink="http://www.w3.org/1999/xlink">
<g id="graph0" class="graph" transform="scale(1 1) rotate(0) translate(4 952)">
<title>src/f/f_pc/f_pc_fstcreate_req.cpp</title>
<polygon fill="white" stroke="transparent" points="-4,4 -4,-952 1162,-952 1162,4 -4,4"/>
<!-- Node1 -->
<g id="node1" class="node">
<title>Node1</title>
<g id="a_node1"><a xlink:title=" ">
<polygon fill="#bfbfbf" stroke="black" points="869.5,-917.5 869.5,-947.5 992.5,-947.5 992.5,-917.5 869.5,-917.5"/>
<text text-anchor="start" x="877.5" y="-935.5" font-family="Helvetica,sans-Serif" font-size="10.00">src/f/f_pc/f_pc_fstcreate</text>
<text text-anchor="middle" x="931" y="-924.5" font-family="Helvetica,sans-Serif" font-size="10.00">_req.cpp</text>
</a>
</g>
</g>
<!-- Node2 -->
<g id="node2" class="node">
<title>Node2</title>
<g id="a_node2"><a xlink:href="f__pc__fstcreate__req_8h.html" target="_top" xlink:title=" ">
<polygon fill="white" stroke="black" points="650.5,-850.5 650.5,-880.5 757.5,-880.5 757.5,-850.5 650.5,-850.5"/>
<text text-anchor="start" x="658.5" y="-868.5" font-family="Helvetica,sans-Serif" font-size="10.00">f/f_pc/f_pc_fstcreate</text>
<text text-anchor="middle" x="704" y="-857.5" font-family="Helvetica,sans-Serif" font-size="10.00">_req.h</text>
</a>
</g>
</g>
<!-- Node1&#45;&gt;Node2 -->
<g id="edge1" class="edge">
<title>Node1&#45;&gt;Node2</title>
<path fill="none" stroke="midnightblue" d="M882.02,-917.48C847.09,-907.47 799.94,-893.97 762.94,-883.38"/>
<polygon fill="midnightblue" stroke="midnightblue" points="763.86,-880 753.28,-880.61 761.93,-886.73 763.86,-880"/>
</g>
<!-- Node8 -->
<g id="node8" class="node">
<title>Node8</title>
<g id="a_node8"><a xlink:href="types_8h.html" target="_top" xlink:title=" ">
<polygon fill="white" stroke="black" points="506.5,-0.5 506.5,-19.5 587.5,-19.5 587.5,-0.5 506.5,-0.5"/>
<text text-anchor="middle" x="547" y="-7.5" font-family="Helvetica,sans-Serif" font-size="10.00">dolphin/types.h</text>
</a>
</g>
</g>
<!-- Node1&#45;&gt;Node8 -->
<g id="edge81" class="edge">
<title>Node1&#45;&gt;Node8</title>
<path fill="none" stroke="midnightblue" d="M992.73,-923.86C1059.95,-911.68 1158,-880.91 1158,-805 1158,-805 1158,-805 1158,-137.5 1158,-23.38 744.13,-11.42 597.64,-10.76"/>
<polygon fill="midnightblue" stroke="midnightblue" points="597.57,-7.26 587.56,-10.73 597.55,-14.26 597.57,-7.26"/>
</g>
<!-- Node3 -->
<g id="node3" class="node">
<title>Node3</title>
<g id="a_node3"><a xlink:href="f__pc__base_8h.html" target="_top" xlink:title=" ">
<polygon fill="white" stroke="black" points="285.5,-794.5 285.5,-813.5 382.5,-813.5 382.5,-794.5 285.5,-794.5"/>
<text text-anchor="middle" x="334" y="-801.5" font-family="Helvetica,sans-Serif" font-size="10.00">f/f_pc/f_pc_base.h</text>
</a>
</g>
</g>
<!-- Node2&#45;&gt;Node3 -->
<g id="edge2" class="edge">
<title>Node2&#45;&gt;Node3</title>
<path fill="none" stroke="midnightblue" d="M650.2,-855.85C581.62,-844.82 463.48,-825.82 392.65,-814.43"/>
<polygon fill="midnightblue" stroke="midnightblue" points="392.99,-810.94 382.56,-812.81 391.87,-817.85 392.99,-810.94"/>
</g>
<!-- Node7 -->
<g id="node7" class="node">
<title>Node7</title>
<g id="a_node7"><a xlink:href="global_8h.html" target="_top" xlink:title=" ">
<polygon fill="white" stroke="black" points="504,-380.5 504,-399.5 554,-399.5 554,-380.5 504,-380.5"/>
<text text-anchor="middle" x="529" y="-387.5" font-family="Helvetica,sans-Serif" font-size="10.00">global.h</text>
</a>
</g>
</g>
<!-- Node2&#45;&gt;Node7 -->
<g id="edge80" class="edge">
<title>Node2&#45;&gt;Node7</title>
<path fill="none" stroke="midnightblue" d="M757.53,-860.23C869.89,-849.78 1120,-818.15 1120,-743.5 1120,-743.5 1120,-743.5 1120,-501 1120,-455.87 1083.72,-453.2 1042,-436 955.19,-400.2 665.43,-392.85 564.24,-391.37"/>
<polygon fill="midnightblue" stroke="midnightblue" points="564.27,-387.87 554.22,-391.23 564.17,-394.87 564.27,-387.87"/>
</g>
<!-- Node26 -->
<g id="node26" class="node">
<title>Node26</title>
<g id="a_node26"><a xlink:href="f__pc__layer_8h.html" target="_top" xlink:title=" ">
<polygon fill="white" stroke="black" points="104,-666 104,-685 200,-685 200,-666 104,-666"/>
<text text-anchor="middle" x="152" y="-673" font-family="Helvetica,sans-Serif" font-size="10.00">f/f_pc/f_pc_layer.h</text>
</a>
</g>
</g>
<!-- Node2&#45;&gt;Node26 -->
<g id="edge79" class="edge">
<title>Node2&#45;&gt;Node26</title>
<path fill="none" stroke="midnightblue" d="M650.26,-864.74C505.56,-864.08 113.61,-853.37 38,-758 13.02,-726.49 67.8,-701.7 109.77,-688.09"/>
<polygon fill="midnightblue" stroke="midnightblue" points="111.06,-691.35 119.56,-685.03 108.98,-684.67 111.06,-691.35"/>
</g>
<!-- Node33 -->
<g id="node33" class="node">
<title>Node33</title>
<g id="a_node33"><a xlink:href="f__pc__create__req_8h.html" target="_top" xlink:title=" ">
<polygon fill="white" stroke="black" points="656.5,-727.5 656.5,-757.5 751.5,-757.5 751.5,-727.5 656.5,-727.5"/>
<text text-anchor="start" x="664.5" y="-745.5" font-family="Helvetica,sans-Serif" font-size="10.00">f/f_pc/f_pc_create</text>
<text text-anchor="middle" x="704" y="-734.5" font-family="Helvetica,sans-Serif" font-size="10.00">_req.h</text>
</a>
</g>
</g>
<!-- Node2&#45;&gt;Node33 -->
<g id="edge69" class="edge">
<title>Node2&#45;&gt;Node33</title>
<path fill="none" stroke="midnightblue" d="M704,-850.14C704,-829.86 704,-792.53 704,-767.86"/>
<polygon fill="midnightblue" stroke="midnightblue" points="707.5,-767.84 704,-757.84 700.5,-767.84 707.5,-767.84"/>
</g>
<!-- Node4 -->
<g id="node4" class="node">
<title>Node4</title>
<g id="a_node4"><a xlink:href="c__tag_8h.html" target="_top" xlink:title=" ">
<polygon fill="white" stroke="black" points="333.5,-604.5 333.5,-623.5 440.5,-623.5 440.5,-604.5 333.5,-604.5"/>
<text text-anchor="middle" x="387" y="-611.5" font-family="Helvetica,sans-Serif" font-size="10.00">SComponent/c_tag.h</text>
</a>
</g>
</g>
<!-- Node3&#45;&gt;Node4 -->
<g id="edge3" class="edge">
<title>Node3&#45;&gt;Node4</title>
<path fill="none" stroke="midnightblue" d="M330.33,-794.32C321.1,-771.01 299.25,-705.74 323,-660 330.15,-646.23 343.67,-635.78 356.45,-628.44"/>
<polygon fill="midnightblue" stroke="midnightblue" points="358.32,-631.41 365.52,-623.64 355.04,-625.23 358.32,-631.41"/>
</g>
<!-- Node3&#45;&gt;Node7 -->
<g id="edge44" class="edge">
<title>Node3&#45;&gt;Node7</title>
<path fill="none" stroke="midnightblue" d="M285.41,-801.09C211.71,-797.31 76.18,-786.58 38,-758 6.01,-734.05 0,-716.47 0,-676.5 0,-676.5 0,-676.5 0,-501 0,-461.38 25.44,-453.46 61,-436 137.18,-398.59 398.41,-392.26 493.78,-391.21"/>
<polygon fill="midnightblue" stroke="midnightblue" points="493.83,-394.71 503.79,-391.11 493.76,-387.71 493.83,-394.71"/>
</g>
<!-- Node25 -->
<g id="node25" class="node">
<title>Node25</title>
<g id="a_node25"><a xlink:href="f__pc__delete__tag_8h.html" target="_top" xlink:title=" ">
<polygon fill="white" stroke="black" points="180.5,-727.5 180.5,-757.5 275.5,-757.5 275.5,-727.5 180.5,-727.5"/>
<text text-anchor="start" x="188.5" y="-745.5" font-family="Helvetica,sans-Serif" font-size="10.00">f/f_pc/f_pc_delete</text>
<text text-anchor="middle" x="228" y="-734.5" font-family="Helvetica,sans-Serif" font-size="10.00">_tag.h</text>
</a>
</g>
</g>
<!-- Node3&#45;&gt;Node25 -->
<g id="edge45" class="edge">
<title>Node3&#45;&gt;Node25</title>
<path fill="none" stroke="midnightblue" d="M318.81,-794.48C303.99,-786.15 280.92,-773.21 261.75,-762.45"/>
<polygon fill="midnightblue" stroke="midnightblue" points="263.42,-759.37 252.98,-757.52 259.99,-765.47 263.42,-759.37"/>
</g>
<!-- Node27 -->
<g id="node27" class="node">
<title>Node27</title>
<g id="a_node27"><a xlink:href="f__pc__layer__tag_8h.html" target="_top" xlink:title=" ">
<polygon fill="white" stroke="black" points="47.5,-733 47.5,-752 162.5,-752 162.5,-733 47.5,-733"/>
<text text-anchor="middle" x="105" y="-740" font-family="Helvetica,sans-Serif" font-size="10.00">f/f_pc/f_pc_layer_tag.h</text>
</a>
</g>
</g>
<!-- Node3&#45;&gt;Node27 -->
<g id="edge53" class="edge">
<title>Node3&#45;&gt;Node27</title>
<path fill="none" stroke="midnightblue" d="M301.19,-794.48C260.8,-783.98 192.12,-766.14 147.67,-754.59"/>
<polygon fill="midnightblue" stroke="midnightblue" points="148.31,-751.14 137.75,-752.01 146.55,-757.91 148.31,-751.14"/>
</g>
<!-- Node28 -->
<g id="node28" class="node">
<title>Node28</title>
<g id="a_node28"><a xlink:href="f__pc__line__tag_8h.html" target="_top" xlink:title=" ">
<polygon fill="white" stroke="black" points="332,-666 332,-685 442,-685 442,-666 332,-666"/>
<text text-anchor="middle" x="387" y="-673" font-family="Helvetica,sans-Serif" font-size="10.00">f/f_pc/f_pc_line_tag.h</text>
</a>
</g>
</g>
<!-- Node3&#45;&gt;Node28 -->
<g id="edge57" class="edge">
<title>Node3&#45;&gt;Node28</title>
<path fill="none" stroke="midnightblue" d="M337.64,-794.31C346.23,-773.81 367.88,-722.15 379.44,-694.54"/>
<polygon fill="midnightblue" stroke="midnightblue" points="382.7,-695.83 383.33,-685.26 376.24,-693.13 382.7,-695.83"/>
</g>
<!-- Node29 -->
<g id="node29" class="node">
<title>Node29</title>
<g id="a_node29"><a xlink:href="f__pc__priority_8h.html" target="_top" xlink:title=" ">
<polygon fill="white" stroke="black" points="418,-733 418,-752 522,-752 522,-733 418,-733"/>
<text text-anchor="middle" x="470" y="-740" font-family="Helvetica,sans-Serif" font-size="10.00">f/f_pc/f_pc_priority.h</text>
</a>
</g>
</g>
<!-- Node3&#45;&gt;Node29 -->
<g id="edge60" class="edge">
<title>Node3&#45;&gt;Node29</title>
<path fill="none" stroke="midnightblue" d="M353.49,-794.48C376.41,-784.45 414.69,-767.7 441.08,-756.15"/>
<polygon fill="midnightblue" stroke="midnightblue" points="442.79,-759.22 450.55,-752.01 439.99,-752.81 442.79,-759.22"/>
</g>
<!-- Node31 -->
<g id="node31" class="node">
<title>Node31</title>
<g id="a_node31"><a xlink:href="f__pc__profile_8h.html" target="_top" xlink:title=" ">
<polygon fill="white" stroke="black" points="949.5,-733 949.5,-752 1050.5,-752 1050.5,-733 949.5,-733"/>
<text text-anchor="middle" x="1000" y="-740" font-family="Helvetica,sans-Serif" font-size="10.00">f/f_pc/f_pc_profile.h</text>
</a>
</g>
</g>
<!-- Node3&#45;&gt;Node31 -->
<g id="edge65" class="edge">
<title>Node3&#45;&gt;Node31</title>
<path fill="none" stroke="midnightblue" d="M382.7,-798.65C501.82,-788.01 807.69,-760.68 938.82,-748.97"/>
<polygon fill="midnightblue" stroke="midnightblue" points="939.43,-752.43 949.08,-748.05 938.81,-745.45 939.43,-752.43"/>
</g>
<!-- Node5 -->
<g id="node5" class="node">
<title>Node5</title>
<g id="a_node5"><a xlink:href="c__list_8h.html" target="_top" xlink:title=" ">
<polygon fill="white" stroke="black" points="291.5,-492.5 291.5,-511.5 398.5,-511.5 398.5,-492.5 291.5,-492.5"/>
<text text-anchor="middle" x="345" y="-499.5" font-family="Helvetica,sans-Serif" font-size="10.00">SComponent/c_list.h</text>
</a>
</g>
</g>
<!-- Node4&#45;&gt;Node5 -->
<g id="edge4" class="edge">
<title>Node4&#45;&gt;Node5</title>
<path fill="none" stroke="midnightblue" d="M383.7,-604.37C376.87,-586.46 361.01,-544.92 351.85,-520.95"/>
<polygon fill="midnightblue" stroke="midnightblue" points="355.12,-519.69 348.28,-511.59 348.58,-522.18 355.12,-519.69"/>
</g>
<!-- Node6 -->
<g id="node6" class="node">
<title>Node6</title>
<g id="a_node6"><a xlink:href="c__node_8h.html" target="_top" xlink:title=" ">
<polygon fill="white" stroke="black" points="287.5,-436.5 287.5,-455.5 402.5,-455.5 402.5,-436.5 287.5,-436.5"/>
<text text-anchor="middle" x="345" y="-443.5" font-family="Helvetica,sans-Serif" font-size="10.00">SComponent/c_node.h</text>
</a>
</g>
</g>
<!-- Node4&#45;&gt;Node6 -->
<g id="edge39" class="edge">
<title>Node4&#45;&gt;Node6</title>
<path fill="none" stroke="midnightblue" d="M392.04,-604.23C403.24,-583.49 427.71,-530.29 408,-492 400.92,-478.25 387.48,-467.77 374.82,-460.39"/>
<polygon fill="midnightblue" stroke="midnightblue" points="376.31,-457.22 365.85,-455.57 373,-463.39 376.31,-457.22"/>
</g>
<!-- Node4&#45;&gt;Node7 -->
<g id="edge43" class="edge">
<title>Node4&#45;&gt;Node7</title>
<path fill="none" stroke="midnightblue" d="M394.9,-604.43C402.79,-595.66 414.99,-581.44 424,-568 461.11,-512.68 459.04,-492.07 495,-436 501.28,-426.21 509.05,-415.82 515.57,-407.49"/>
<polygon fill="midnightblue" stroke="midnightblue" points="518.31,-409.68 521.81,-399.67 512.84,-405.31 518.31,-409.68"/>
</g>
<!-- Node24 -->
<g id="node24" class="node">
<title>Node24</title>
<g id="a_node24"><a xlink:href="c__tree_8h.html" target="_top" xlink:title=" ">
<polygon fill="white" stroke="black" points="234,-548.5 234,-567.5 344,-567.5 344,-548.5 234,-548.5"/>
<text text-anchor="middle" x="289" y="-555.5" font-family="Helvetica,sans-Serif" font-size="10.00">SComponent/c_tree.h</text>
</a>
</g>
</g>
<!-- Node4&#45;&gt;Node24 -->
<g id="edge40" class="edge">
<title>Node4&#45;&gt;Node24</title>
<path fill="none" stroke="midnightblue" d="M371.25,-604.32C355.68,-595.74 331.62,-582.49 313.54,-572.52"/>
<polygon fill="midnightblue" stroke="midnightblue" points="315.15,-569.42 304.71,-567.65 311.78,-575.55 315.15,-569.42"/>
</g>
<!-- Node5&#45;&gt;Node6 -->
<g id="edge5" class="edge">
<title>Node5&#45;&gt;Node6</title>
<path fill="none" stroke="midnightblue" d="M345,-492.08C345,-485.01 345,-474.86 345,-465.99"/>
<polygon fill="midnightblue" stroke="midnightblue" points="348.5,-465.75 345,-455.75 341.5,-465.75 348.5,-465.75"/>
</g>
<!-- Node6&#45;&gt;Node7 -->
<g id="edge6" class="edge">
<title>Node6&#45;&gt;Node7</title>
<path fill="none" stroke="midnightblue" d="M374.16,-436.44C406.71,-426.89 459.38,-411.43 494.1,-401.24"/>
<polygon fill="midnightblue" stroke="midnightblue" points="495.21,-404.56 503.82,-398.39 493.24,-397.85 495.21,-404.56"/>
</g>
<!-- Node7&#45;&gt;Node8 -->
<g id="edge7" class="edge">
<title>Node7&#45;&gt;Node8</title>
<path fill="none" stroke="midnightblue" d="M554.27,-385.52C630.18,-374.35 851,-336.45 851,-273.5 851,-273.5 851,-273.5 851,-137.5 851,-29.15 684.35,-11.9 597.82,-10.24"/>
<polygon fill="midnightblue" stroke="midnightblue" points="597.73,-6.74 587.68,-10.11 597.64,-13.74 597.73,-6.74"/>
</g>
<!-- Node9 -->
<g id="node9" class="node">
<title>Node9</title>
<g id="a_node9"><a xlink:href="AR_8h.html" target="_top" xlink:title=" ">
<polygon fill="white" stroke="black" points="879.5,-62 879.5,-81 928.5,-81 928.5,-62 879.5,-62"/>
<text text-anchor="middle" x="904" y="-69" font-family="Helvetica,sans-Serif" font-size="10.00">ar/AR.h</text>
</a>
</g>
</g>
<!-- Node7&#45;&gt;Node9 -->
<g id="edge8" class="edge">
<title>Node7&#45;&gt;Node9</title>
<path fill="none" stroke="midnightblue" d="M554.32,-388.71C623.84,-387.43 815.75,-380.59 865,-344 892.62,-323.48 897,-307.91 897,-273.5 897,-273.5 897,-273.5 897,-204.5 897,-164.1 900.31,-116.84 902.38,-91.27"/>
<polygon fill="midnightblue" stroke="midnightblue" points="905.88,-91.4 903.22,-81.14 898.9,-90.81 905.88,-91.4"/>
</g>
<!-- Node10 -->
<g id="node10" class="node">
<title>Node10</title>
<g id="a_node10"><a xlink:href="ARQ_8h.html" target="_top" xlink:title=" ">
<polygon fill="white" stroke="black" points="165,-129 165,-148 221,-148 221,-129 165,-129"/>
<text text-anchor="middle" x="193" y="-136" font-family="Helvetica,sans-Serif" font-size="10.00">ar/ARQ.h</text>
</a>
</g>
</g>
<!-- Node7&#45;&gt;Node10 -->
<g id="edge10" class="edge">
<title>Node7&#45;&gt;Node10</title>
<path fill="none" stroke="midnightblue" d="M503.93,-389.76C454.78,-390.21 343.55,-386.04 263,-344 232.07,-327.86 222.81,-319.58 208,-288 187.8,-244.92 188.86,-187.24 191.07,-158.07"/>
<polygon fill="midnightblue" stroke="midnightblue" points="194.56,-158.33 191.97,-148.06 187.59,-157.71 194.56,-158.33"/>
</g>
<!-- Node11 -->
<g id="node11" class="node">
<title>Node11</title>
<g id="a_node11"><a xlink:href="functions_8h.html" target="_top" xlink:title=" ">
<polygon fill="white" stroke="black" points="294,-324.5 294,-343.5 358,-343.5 358,-324.5 294,-324.5"/>
<text text-anchor="middle" x="326" y="-331.5" font-family="Helvetica,sans-Serif" font-size="10.00">functions.h</text>
</a>
</g>
</g>
<!-- Node7&#45;&gt;Node11 -->
<g id="edge12" class="edge">
<title>Node7&#45;&gt;Node11</title>
<path fill="none" stroke="midnightblue" d="M503.7,-382.27C469.63,-373.21 408.56,-356.96 367.66,-346.08"/>
<polygon fill="midnightblue" stroke="midnightblue" points="368.54,-342.7 357.98,-343.51 366.74,-349.46 368.54,-342.7"/>
</g>
<!-- Node13 -->
<g id="node13" class="node">
<title>Node13</title>
<g id="a_node13"><a xlink:href="mwcc_8h.html" target="_top" xlink:title=" ">
<polygon fill="white" stroke="black" points="217,-263 217,-282 267,-282 267,-263 217,-263"/>
<text text-anchor="middle" x="242" y="-270" font-family="Helvetica,sans-Serif" font-size="10.00">mwcc.h</text>
</a>
</g>
</g>
<!-- Node7&#45;&gt;Node13 -->
<g id="edge20" class="edge">
<title>Node7&#45;&gt;Node13</title>
<path fill="none" stroke="midnightblue" d="M503.76,-386.95C448.81,-382.08 320.4,-368.36 285,-344 266.59,-331.33 254.66,-307.96 248.14,-291.61"/>
<polygon fill="midnightblue" stroke="midnightblue" points="251.37,-290.24 244.63,-282.06 244.8,-292.66 251.37,-290.24"/>
</g>
<!-- Node14 -->
<g id="node14" class="node">
<title>Node14</title>
<g id="a_node14"><a xlink:href="OS_8h.html" target="_top" xlink:title=" ">
<polygon fill="white" stroke="black" points="323,-263 323,-282 375,-282 375,-263 323,-263"/>
<text text-anchor="middle" x="349" y="-270" font-family="Helvetica,sans-Serif" font-size="10.00">os/OS.h</text>
</a>
</g>
</g>
<!-- Node7&#45;&gt;Node14 -->
<g id="edge21" class="edge">
<title>Node7&#45;&gt;Node14</title>
<path fill="none" stroke="midnightblue" d="M515.47,-380.32C484.72,-360.59 409.31,-312.2 371.45,-287.91"/>
<polygon fill="midnightblue" stroke="midnightblue" points="372.99,-284.74 362.69,-282.28 369.21,-290.63 372.99,-284.74"/>
</g>
<!-- Node16 -->
<g id="node16" class="node">
<title>Node16</title>
<g id="a_node16"><a xlink:href="variables_8h.html" target="_top" xlink:title=" ">
<polygon fill="white" stroke="black" points="497.5,-324.5 497.5,-343.5 560.5,-343.5 560.5,-324.5 497.5,-324.5"/>
<text text-anchor="middle" x="529" y="-331.5" font-family="Helvetica,sans-Serif" font-size="10.00">variables.h</text>
</a>
</g>
</g>
<!-- Node7&#45;&gt;Node16 -->
<g id="edge22" class="edge">
<title>Node7&#45;&gt;Node16</title>
<path fill="none" stroke="midnightblue" d="M529,-380.08C529,-373.01 529,-362.86 529,-353.99"/>
<polygon fill="midnightblue" stroke="midnightblue" points="532.5,-353.75 529,-343.75 525.5,-353.75 532.5,-353.75"/>
</g>
<!-- Node9&#45;&gt;Node8 -->
<g id="edge9" class="edge">
<title>Node9&#45;&gt;Node8</title>
<path fill="none" stroke="midnightblue" d="M883.62,-61.98C877.7,-59.76 871.16,-57.56 865,-56 772.33,-32.51 661.15,-20.3 597.82,-14.8"/>
<polygon fill="midnightblue" stroke="midnightblue" points="597.96,-11.3 587.7,-13.94 597.37,-18.27 597.96,-11.3"/>
</g>
<!-- Node10&#45;&gt;Node8 -->
<g id="edge11" class="edge">
<title>Node10&#45;&gt;Node8</title>
<path fill="none" stroke="midnightblue" d="M200.18,-128.9C214.9,-111.91 250.4,-74.09 289,-56 355.97,-24.61 441.99,-14.95 495.82,-12.07"/>
<polygon fill="midnightblue" stroke="midnightblue" points="496.32,-15.55 506.14,-11.58 495.99,-8.56 496.32,-15.55"/>
</g>
<!-- Node12 -->
<g id="node12" class="node">
<title>Node12</title>
<g id="a_node12"><a xlink:href="mtx__vec_8h.html" target="_top" xlink:title=" ">
<polygon fill="white" stroke="black" points="243.5,-129 243.5,-148 304.5,-148 304.5,-129 243.5,-129"/>
<text text-anchor="middle" x="274" y="-136" font-family="Helvetica,sans-Serif" font-size="10.00">mtx_vec.h</text>
</a>
</g>
</g>
<!-- Node11&#45;&gt;Node12 -->
<g id="edge13" class="edge">
<title>Node11&#45;&gt;Node12</title>
<path fill="none" stroke="midnightblue" d="M323.7,-324.44C315.85,-295.22 290.01,-199.06 279.02,-158.17"/>
<polygon fill="midnightblue" stroke="midnightblue" points="282.37,-157.16 276.39,-148.41 275.61,-158.97 282.37,-157.16"/>
</g>
<!-- Node11&#45;&gt;Node13 -->
<g id="edge15" class="edge">
<title>Node11&#45;&gt;Node13</title>
<path fill="none" stroke="midnightblue" d="M313.96,-324.48C300.49,-314.93 278.43,-299.31 262.28,-287.87"/>
<polygon fill="midnightblue" stroke="midnightblue" points="264.2,-284.93 254.01,-282.01 260.15,-290.65 264.2,-284.93"/>
</g>
<!-- Node11&#45;&gt;Node14 -->
<g id="edge16" class="edge">
<title>Node11&#45;&gt;Node14</title>
<path fill="none" stroke="midnightblue" d="M329.3,-324.48C332.61,-315.9 337.82,-302.43 342.05,-291.48"/>
<polygon fill="midnightblue" stroke="midnightblue" points="345.37,-292.6 345.71,-282.01 338.84,-290.07 345.37,-292.6"/>
</g>
<!-- Node12&#45;&gt;Node8 -->
<g id="edge14" class="edge">
<title>Node12&#45;&gt;Node8</title>
<path fill="none" stroke="midnightblue" d="M276.11,-128.99C280.76,-112.14 293.54,-74.58 319,-56 346.67,-35.8 437.94,-22.6 496.27,-16"/>
<polygon fill="midnightblue" stroke="midnightblue" points="496.85,-19.46 506.4,-14.88 496.08,-12.5 496.85,-19.46"/>
</g>
<!-- Node14&#45;&gt;Node8 -->
<g id="edge17" class="edge">
<title>Node14&#45;&gt;Node8</title>
<path fill="none" stroke="midnightblue" d="M348.08,-262.95C345.12,-230.57 339.28,-114.33 400,-56 425.88,-31.14 465.12,-19.98 496.55,-14.99"/>
<polygon fill="midnightblue" stroke="midnightblue" points="497.05,-18.45 506.46,-13.57 496.06,-11.52 497.05,-18.45"/>
</g>
<!-- Node15 -->
<g id="node15" class="node">
<title>Node15</title>
<g id="a_node15"><a xlink:href="dvd_8h.html" target="_top" xlink:title=" ">
<polygon fill="white" stroke="black" points="361.5,-196 361.5,-215 420.5,-215 420.5,-196 361.5,-196"/>
<text text-anchor="middle" x="391" y="-203" font-family="Helvetica,sans-Serif" font-size="10.00">dvd/dvd.h</text>
</a>
</g>
</g>
<!-- Node14&#45;&gt;Node15 -->
<g id="edge18" class="edge">
<title>Node14&#45;&gt;Node15</title>
<path fill="none" stroke="midnightblue" d="M354.66,-262.73C361.09,-252.79 371.72,-236.34 379.83,-223.79"/>
<polygon fill="midnightblue" stroke="midnightblue" points="382.94,-225.43 385.43,-215.13 377.06,-221.63 382.94,-225.43"/>
</g>
<!-- Node15&#45;&gt;Node8 -->
<g id="edge19" class="edge">
<title>Node15&#45;&gt;Node8</title>
<path fill="none" stroke="midnightblue" d="M390.2,-195.88C388.38,-170.92 386.59,-97.73 423,-56 441.54,-34.75 470.94,-23.53 496.46,-17.61"/>
<polygon fill="midnightblue" stroke="midnightblue" points="497.32,-21.01 506.38,-15.52 495.88,-14.16 497.32,-21.01"/>
</g>
<!-- Node17 -->
<g id="node17" class="node">
<title>Node17</title>
<g id="a_node17"><a xlink:href="JSUList_8h.html" target="_top" xlink:title=" ">
<polygon fill="white" stroke="black" points="535,-56.5 535,-86.5 671,-86.5 671,-56.5 535,-56.5"/>
<text text-anchor="start" x="543" y="-74.5" font-family="Helvetica,sans-Serif" font-size="10.00">JSystem/JSupport/JSUList</text>
<text text-anchor="middle" x="603" y="-63.5" font-family="Helvetica,sans-Serif" font-size="10.00">/JSUList.h</text>
</a>
</g>
</g>
<!-- Node16&#45;&gt;Node17 -->
<g id="edge23" class="edge">
<title>Node16&#45;&gt;Node17</title>
<path fill="none" stroke="midnightblue" d="M528.8,-324.32C528.12,-289.38 526.87,-159.11 545,-123 551,-111.04 561.19,-100.71 571.37,-92.56"/>
<polygon fill="midnightblue" stroke="midnightblue" points="573.55,-95.3 579.45,-86.5 569.35,-89.7 573.55,-95.3"/>
</g>
<!-- Node18 -->
<g id="node18" class="node">
<title>Node18</title>
<g id="a_node18"><a xlink:href="JUTXfb_8h.html" target="_top" xlink:title=" ">
<polygon fill="white" stroke="black" points="393.5,-257.5 393.5,-287.5 518.5,-287.5 518.5,-257.5 393.5,-257.5"/>
<text text-anchor="start" x="401.5" y="-275.5" font-family="Helvetica,sans-Serif" font-size="10.00">JSystem/JUtility/JUTXfb</text>
<text text-anchor="middle" x="456" y="-264.5" font-family="Helvetica,sans-Serif" font-size="10.00">/JUTXfb.h</text>
</a>
</g>
</g>
<!-- Node16&#45;&gt;Node18 -->
<g id="edge25" class="edge">
<title>Node16&#45;&gt;Node18</title>
<path fill="none" stroke="midnightblue" d="M518.54,-324.48C508.84,-316.57 494.01,-304.48 481.23,-294.07"/>
<polygon fill="midnightblue" stroke="midnightblue" points="483.17,-291.13 473.2,-287.52 478.74,-296.55 483.17,-291.13"/>
</g>
<!-- Node22 -->
<g id="node22" class="node">
<title>Node22</title>
<g id="a_node22"><a xlink:href="c__xyz_8h.html" target="_top" xlink:title=" ">
<polygon fill="white" stroke="black" points="617.5,-263 617.5,-282 724.5,-282 724.5,-263 617.5,-263"/>
<text text-anchor="middle" x="671" y="-270" font-family="Helvetica,sans-Serif" font-size="10.00">SComponent/c_xyz.h</text>
</a>
</g>
</g>
<!-- Node16&#45;&gt;Node22 -->
<g id="edge35" class="edge">
<title>Node16&#45;&gt;Node22</title>
<path fill="none" stroke="midnightblue" d="M549.35,-324.48C573.39,-314.4 613.6,-297.55 641.16,-286"/>
<polygon fill="midnightblue" stroke="midnightblue" points="642.82,-289.1 650.69,-282.01 640.12,-282.65 642.82,-289.1"/>
</g>
<!-- Node17&#45;&gt;Node8 -->
<g id="edge24" class="edge">
<title>Node17&#45;&gt;Node8</title>
<path fill="none" stroke="midnightblue" d="M589.73,-56.4C581.42,-47.58 570.7,-36.18 562.08,-27.02"/>
<polygon fill="midnightblue" stroke="midnightblue" points="564.55,-24.54 555.15,-19.66 559.45,-29.34 564.55,-24.54"/>
</g>
<!-- Node18&#45;&gt;Node8 -->
<g id="edge32" class="edge">
<title>Node18&#45;&gt;Node8</title>
<path fill="none" stroke="midnightblue" d="M451.36,-257.27C440.35,-220.63 416.43,-121.31 457,-56 466.71,-40.37 483.66,-29.98 500.26,-23.17"/>
<polygon fill="midnightblue" stroke="midnightblue" points="501.79,-26.34 509.93,-19.56 499.34,-19.78 501.79,-26.34"/>
</g>
<!-- Node19 -->
<g id="node19" class="node">
<title>Node19</title>
<g id="a_node19"><a xlink:href="JKRHeap_8h.html" target="_top" xlink:title=" ">
<polygon fill="white" stroke="black" points="553,-190.5 553,-220.5 689,-220.5 689,-190.5 553,-190.5"/>
<text text-anchor="start" x="561" y="-208.5" font-family="Helvetica,sans-Serif" font-size="10.00">JSystem/JKernel/JKRHeap</text>
<text text-anchor="middle" x="621" y="-197.5" font-family="Helvetica,sans-Serif" font-size="10.00">/JKRHeap.h</text>
</a>
</g>
</g>
<!-- Node18&#45;&gt;Node19 -->
<g id="edge26" class="edge">
<title>Node18&#45;&gt;Node19</title>
<path fill="none" stroke="midnightblue" d="M491.8,-257.4C516.45,-247.69 549.39,-234.71 575.84,-224.29"/>
<polygon fill="midnightblue" stroke="midnightblue" points="577.25,-227.5 585.27,-220.58 574.68,-220.99 577.25,-227.5"/>
</g>
<!-- Node21 -->
<g id="node21" class="node">
<title>Node21</title>
<g id="a_node21"><a xlink:href="GX_8h.html" target="_top" xlink:title=" ">
<polygon fill="white" stroke="black" points="465.5,-62 465.5,-81 516.5,-81 516.5,-62 465.5,-62"/>
<text text-anchor="middle" x="491" y="-69" font-family="Helvetica,sans-Serif" font-size="10.00">gx/GX.h</text>
</a>
</g>
</g>
<!-- Node18&#45;&gt;Node21 -->
<g id="edge33" class="edge">
<title>Node18&#45;&gt;Node21</title>
<path fill="none" stroke="midnightblue" d="M458.52,-257.19C464.72,-221.91 480.75,-130.78 487.7,-91.25"/>
<polygon fill="midnightblue" stroke="midnightblue" points="491.16,-91.82 489.44,-81.36 484.26,-90.6 491.16,-91.82"/>
</g>
<!-- Node19&#45;&gt;Node7 -->
<g id="edge31" class="edge">
<title>Node19&#45;&gt;Node7</title>
<path fill="none" stroke="midnightblue" d="M617.7,-220.56C611.23,-246.37 595.3,-302.47 570,-344 563.57,-354.56 554.45,-364.87 546.45,-372.95"/>
<polygon fill="midnightblue" stroke="midnightblue" points="543.7,-370.74 538.95,-380.21 548.57,-375.76 543.7,-370.74"/>
</g>
<!-- Node19&#45;&gt;Node8 -->
<g id="edge30" class="edge">
<title>Node19&#45;&gt;Node8</title>
<path fill="none" stroke="midnightblue" d="M668.14,-190.48C685.72,-182.71 703.86,-171.05 714,-154 728.38,-129.82 700.61,-60.76 696,-56 670.45,-29.65 630.08,-18.6 597.8,-14.02"/>
<polygon fill="midnightblue" stroke="midnightblue" points="597.99,-10.52 587.63,-12.75 597.12,-17.46 597.99,-10.52"/>
</g>
<!-- Node20 -->
<g id="node20" class="node">
<title>Node20</title>
<g id="a_node20"><a xlink:href="JKRDisposer_8h.html" target="_top" xlink:title=" ">
<polygon fill="white" stroke="black" points="553.5,-123.5 553.5,-153.5 704.5,-153.5 704.5,-123.5 553.5,-123.5"/>
<text text-anchor="start" x="561.5" y="-141.5" font-family="Helvetica,sans-Serif" font-size="10.00">JSystem/JKernel/JKRDisposer</text>
<text text-anchor="middle" x="629" y="-130.5" font-family="Helvetica,sans-Serif" font-size="10.00">/JKRDisposer.h</text>
</a>
</g>
</g>
<!-- Node19&#45;&gt;Node20 -->
<g id="edge27" class="edge">
<title>Node19&#45;&gt;Node20</title>
<path fill="none" stroke="midnightblue" d="M622.74,-190.4C623.7,-182.56 624.93,-172.6 626.04,-163.57"/>
<polygon fill="midnightblue" stroke="midnightblue" points="629.52,-163.93 627.27,-153.58 622.57,-163.07 629.52,-163.93"/>
</g>
<!-- Node20&#45;&gt;Node8 -->
<g id="edge29" class="edge">
<title>Node20&#45;&gt;Node8</title>
<path fill="none" stroke="midnightblue" d="M648.73,-123.31C669.27,-106.76 696.34,-78.79 680,-56 661.38,-30.04 626.97,-18.87 597.82,-14.14"/>
<polygon fill="midnightblue" stroke="midnightblue" points="598.15,-10.66 587.76,-12.73 597.17,-17.59 598.15,-10.66"/>
</g>
<!-- Node20&#45;&gt;Node17 -->
<g id="edge28" class="edge">
<title>Node20&#45;&gt;Node17</title>
<path fill="none" stroke="midnightblue" d="M623.36,-123.4C620.16,-115.39 616.06,-105.16 612.39,-95.98"/>
<polygon fill="midnightblue" stroke="midnightblue" points="615.59,-94.56 608.63,-86.58 609.09,-97.16 615.59,-94.56"/>
</g>
<!-- Node21&#45;&gt;Node8 -->
<g id="edge34" class="edge">
<title>Node21&#45;&gt;Node8</title>
<path fill="none" stroke="midnightblue" d="M499.02,-61.98C507.59,-52.87 521.36,-38.24 531.96,-26.98"/>
<polygon fill="midnightblue" stroke="midnightblue" points="534.69,-29.19 538.99,-19.51 529.59,-24.39 534.69,-29.19"/>
</g>
<!-- Node22&#45;&gt;Node7 -->
<g id="edge38" class="edge">
<title>Node22&#45;&gt;Node7</title>
<path fill="none" stroke="midnightblue" d="M663.69,-282.45C651.87,-296.58 627.43,-324.45 603,-344 587.98,-356.02 569.48,-367.27 554.74,-375.51"/>
<polygon fill="midnightblue" stroke="midnightblue" points="552.76,-372.6 545.67,-380.47 556.12,-378.75 552.76,-372.6"/>
</g>
<!-- Node23 -->
<g id="node23" class="node">
<title>Node23</title>
<g id="a_node23"><a xlink:href="c__math_8h.html" target="_top" xlink:title=" ">
<polygon fill="white" stroke="black" points="707,-196 707,-215 823,-215 823,-196 707,-196"/>
<text text-anchor="middle" x="765" y="-203" font-family="Helvetica,sans-Serif" font-size="10.00">SComponent/c_math.h</text>
</a>
</g>
</g>
<!-- Node22&#45;&gt;Node23 -->
<g id="edge36" class="edge">
<title>Node22&#45;&gt;Node23</title>
<path fill="none" stroke="midnightblue" d="M683.68,-262.73C699.18,-252.01 725.64,-233.72 744.16,-220.91"/>
<polygon fill="midnightblue" stroke="midnightblue" points="746.29,-223.69 752.52,-215.13 742.31,-217.94 746.29,-223.69"/>
</g>
<!-- Node23&#45;&gt;Node7 -->
<g id="edge37" class="edge">
<title>Node23&#45;&gt;Node7</title>
<path fill="none" stroke="midnightblue" d="M763.77,-215.15C761.07,-231.27 753.26,-266.23 734,-288 688.06,-339.95 609.29,-368.04 563.94,-380.64"/>
<polygon fill="midnightblue" stroke="midnightblue" points="563,-377.27 554.25,-383.23 564.81,-384.03 563,-377.27"/>
</g>
<!-- Node24&#45;&gt;Node5 -->
<g id="edge41" class="edge">
<title>Node24&#45;&gt;Node5</title>
<path fill="none" stroke="midnightblue" d="M298,-548.32C306.19,-540.42 318.51,-528.55 328.47,-518.94"/>
<polygon fill="midnightblue" stroke="midnightblue" points="331.07,-521.29 335.84,-511.83 326.21,-516.26 331.07,-521.29"/>
</g>
<!-- Node24&#45;&gt;Node6 -->
<g id="edge42" class="edge">
<title>Node24&#45;&gt;Node6</title>
<path fill="none" stroke="midnightblue" d="M285.44,-548.45C280.62,-535.48 273.63,-510.38 283,-492 290,-478.27 303.37,-467.75 315.9,-460.35"/>
<polygon fill="midnightblue" stroke="midnightblue" points="317.67,-463.37 324.78,-455.51 314.32,-457.22 317.67,-463.37"/>
</g>
<!-- Node25&#45;&gt;Node4 -->
<g id="edge46" class="edge">
<title>Node25&#45;&gt;Node4</title>
<path fill="none" stroke="midnightblue" d="M235.77,-727.43C246.15,-709.72 266.03,-679.28 290,-660 307.94,-645.57 331.27,-634.56 350.55,-627.04"/>
<polygon fill="midnightblue" stroke="midnightblue" points="351.8,-630.31 359.94,-623.53 349.34,-623.75 351.8,-630.31"/>
</g>
<!-- Node25&#45;&gt;Node7 -->
<g id="edge52" class="edge">
<title>Node25&#45;&gt;Node7</title>
<path fill="none" stroke="midnightblue" d="M180.34,-728.49C147.14,-718.51 106.77,-704.25 95,-691 71.87,-664.97 76,-649.82 76,-615 76,-615 76,-615 76,-501 76,-415.13 387.28,-396.04 493.77,-392.02"/>
<polygon fill="midnightblue" stroke="midnightblue" points="494.13,-395.51 504,-391.65 493.88,-388.51 494.13,-395.51"/>
</g>
<!-- Node25&#45;&gt;Node26 -->
<g id="edge47" class="edge">
<title>Node25&#45;&gt;Node26</title>
<path fill="none" stroke="midnightblue" d="M211.51,-727.4C199.31,-716.96 182.69,-702.75 170.12,-692"/>
<polygon fill="midnightblue" stroke="midnightblue" points="172.04,-689.03 162.17,-685.19 167.49,-694.35 172.04,-689.03"/>
</g>
<!-- Node26&#45;&gt;Node4 -->
<g id="edge49" class="edge">
<title>Node26&#45;&gt;Node4</title>
<path fill="none" stroke="midnightblue" d="M185.67,-665.98C227.2,-655.46 297.89,-637.56 343.5,-626.01"/>
<polygon fill="midnightblue" stroke="midnightblue" points="344.56,-629.36 353.39,-623.51 342.84,-622.57 344.56,-629.36"/>
</g>
<!-- Node26&#45;&gt;Node6 -->
<g id="edge48" class="edge">
<title>Node26&#45;&gt;Node6</title>
<path fill="none" stroke="midnightblue" d="M155.77,-665.66C168.43,-636.94 212.07,-545.07 274,-492 288.09,-479.93 305.7,-468.75 319.85,-460.55"/>
<polygon fill="midnightblue" stroke="midnightblue" points="321.6,-463.58 328.59,-455.61 318.16,-457.49 321.6,-463.58"/>
</g>
<!-- Node26&#45;&gt;Node7 -->
<g id="edge51" class="edge">
<title>Node26&#45;&gt;Node7</title>
<path fill="none" stroke="midnightblue" d="M152,-665.81C152,-646.56 152,-598.9 152,-559 152,-559 152,-559 152,-501 152,-430.18 400.27,-401.86 493.86,-393.7"/>
<polygon fill="midnightblue" stroke="midnightblue" points="494.3,-397.18 503.97,-392.85 493.71,-390.2 494.3,-397.18"/>
</g>
<!-- Node26&#45;&gt;Node24 -->
<g id="edge50" class="edge">
<title>Node26&#45;&gt;Node24</title>
<path fill="none" stroke="midnightblue" d="M162.3,-665.82C185.41,-646.34 241.64,-598.92 270.8,-574.34"/>
<polygon fill="midnightblue" stroke="midnightblue" points="273.19,-576.9 278.58,-567.78 268.68,-571.55 273.19,-576.9"/>
</g>
<!-- Node27&#45;&gt;Node4 -->
<g id="edge54" class="edge">
<title>Node27&#45;&gt;Node4</title>
<path fill="none" stroke="midnightblue" d="M124.53,-732.88C145.7,-723.33 180.32,-707.15 209,-691 231.13,-678.54 234.17,-671.12 257,-660 285.75,-645.99 319.99,-634.33 346.11,-626.39"/>
<polygon fill="midnightblue" stroke="midnightblue" points="347.11,-629.74 355.69,-623.53 345.11,-623.03 347.11,-629.74"/>
</g>
<!-- Node27&#45;&gt;Node7 -->
<g id="edge56" class="edge">
<title>Node27&#45;&gt;Node7</title>
<path fill="none" stroke="midnightblue" d="M96.51,-732.83C78.49,-713.46 38,-664.46 38,-615 38,-615 38,-615 38,-501 38,-457.56 71.29,-453.61 111,-436 179.3,-405.72 405.65,-395.09 493.61,-392.05"/>
<polygon fill="midnightblue" stroke="midnightblue" points="494,-395.54 503.88,-391.71 493.76,-388.54 494,-395.54"/>
</g>
<!-- Node27&#45;&gt;Node26 -->
<g id="edge55" class="edge">
<title>Node27&#45;&gt;Node26</title>
<path fill="none" stroke="midnightblue" d="M111.34,-732.73C118.6,-722.7 130.66,-706.01 139.76,-693.42"/>
<polygon fill="midnightblue" stroke="midnightblue" points="142.74,-695.28 145.76,-685.13 137.07,-691.18 142.74,-695.28"/>
</g>
<!-- Node28&#45;&gt;Node4 -->
<g id="edge58" class="edge">
<title>Node28&#45;&gt;Node4</title>
<path fill="none" stroke="midnightblue" d="M387,-665.98C387,-657.58 387,-644.48 387,-633.66"/>
<polygon fill="midnightblue" stroke="midnightblue" points="390.5,-633.51 387,-623.51 383.5,-633.51 390.5,-633.51"/>
</g>
<!-- Node28&#45;&gt;Node7 -->
<g id="edge59" class="edge">
<title>Node28&#45;&gt;Node7</title>
<path fill="none" stroke="midnightblue" d="M408.25,-665.99C443.2,-650.42 509,-613.83 509,-559 509,-559 509,-559 509,-501 509,-468.44 517.59,-431.32 523.51,-409.59"/>
<polygon fill="midnightblue" stroke="midnightblue" points="526.94,-410.32 526.3,-399.74 520.21,-408.41 526.94,-410.32"/>
</g>
<!-- Node29&#45;&gt;Node4 -->
<g id="edge61" class="edge">
<title>Node29&#45;&gt;Node4</title>
<path fill="none" stroke="midnightblue" d="M469.95,-732.85C469.46,-717.05 466.52,-683 451,-660 442.01,-646.68 427.67,-636.06 414.83,-628.49"/>
<polygon fill="midnightblue" stroke="midnightblue" points="416.3,-625.3 405.85,-623.52 412.91,-631.43 416.3,-625.3"/>
</g>
<!-- Node30 -->
<g id="node30" class="node">
<title>Node30</title>
<g id="a_node30"><a xlink:href="f__pc__method__tag_8h.html" target="_top" xlink:title=" ">
<polygon fill="white" stroke="black" points="498.5,-660.5 498.5,-690.5 599.5,-690.5 599.5,-660.5 498.5,-660.5"/>
<text text-anchor="start" x="506.5" y="-678.5" font-family="Helvetica,sans-Serif" font-size="10.00">f/f_pc/f_pc_method</text>
<text text-anchor="middle" x="549" y="-667.5" font-family="Helvetica,sans-Serif" font-size="10.00">_tag.h</text>
</a>
</g>
</g>
<!-- Node29&#45;&gt;Node30 -->
<g id="edge62" class="edge">
<title>Node29&#45;&gt;Node30</title>
<path fill="none" stroke="midnightblue" d="M480.65,-732.73C491.74,-723.61 509.5,-709 524.13,-696.96"/>
<polygon fill="midnightblue" stroke="midnightblue" points="526.38,-699.65 531.88,-690.59 521.93,-694.24 526.38,-699.65"/>
</g>
<!-- Node30&#45;&gt;Node4 -->
<g id="edge63" class="edge">
<title>Node30&#45;&gt;Node4</title>
<path fill="none" stroke="midnightblue" d="M510.61,-660.4C483.06,-650.28 446.33,-636.79 420.08,-627.15"/>
<polygon fill="midnightblue" stroke="midnightblue" points="421.17,-623.82 410.57,-623.66 418.75,-630.39 421.17,-623.82"/>
</g>
<!-- Node30&#45;&gt;Node7 -->
<g id="edge64" class="edge">
<title>Node30&#45;&gt;Node7</title>
<path fill="none" stroke="midnightblue" d="M548.8,-660.28C548.51,-638.48 548,-595.5 548,-559 548,-559 548,-559 548,-501 548,-468.49 539.84,-431.35 534.22,-409.61"/>
<polygon fill="midnightblue" stroke="midnightblue" points="537.54,-408.5 531.56,-399.75 530.78,-410.32 537.54,-408.5"/>
</g>
<!-- Node31&#45;&gt;Node7 -->
<g id="edge68" class="edge">
<title>Node31&#45;&gt;Node7</title>
<path fill="none" stroke="midnightblue" d="M1015.65,-733C1030.12,-724.32 1051.12,-709.53 1063,-691 1081.79,-661.69 1082,-649.82 1082,-615 1082,-615 1082,-615 1082,-501 1082,-395.05 686.61,-389.63 564.49,-390.48"/>
<polygon fill="midnightblue" stroke="midnightblue" points="564.17,-386.98 554.2,-390.57 564.23,-393.98 564.17,-386.98"/>
</g>
<!-- Node32 -->
<g id="node32" class="node">
<title>Node32</title>
<g id="a_node32"><a xlink:href="f__pc__method_8h.html" target="_top" xlink:title=" ">
<polygon fill="white" stroke="black" points="946,-666 946,-685 1054,-685 1054,-666 946,-666"/>
<text text-anchor="middle" x="1000" y="-673" font-family="Helvetica,sans-Serif" font-size="10.00">f/f_pc/f_pc_method.h</text>
</a>
</g>
</g>
<!-- Node31&#45;&gt;Node32 -->
<g id="edge66" class="edge">
<title>Node31&#45;&gt;Node32</title>
<path fill="none" stroke="midnightblue" d="M1000,-732.73C1000,-723.18 1000,-707.62 1000,-695.28"/>
<polygon fill="midnightblue" stroke="midnightblue" points="1003.5,-695.13 1000,-685.13 996.5,-695.13 1003.5,-695.13"/>
</g>
<!-- Node32&#45;&gt;Node7 -->
<g id="edge67" class="edge">
<title>Node32&#45;&gt;Node7</title>
<path fill="none" stroke="midnightblue" d="M986.18,-665.91C960.72,-648.9 909,-608.27 909,-559 909,-559 909,-559 909,-501 909,-429.66 658.76,-401.67 564.42,-393.65"/>
<polygon fill="midnightblue" stroke="midnightblue" points="564.48,-390.14 554.23,-392.81 563.91,-397.12 564.48,-390.14"/>
</g>
<!-- Node33&#45;&gt;Node4 -->
<g id="edge71" class="edge">
<title>Node33&#45;&gt;Node4</title>
<path fill="none" stroke="midnightblue" d="M688.21,-727.19C663.62,-705.01 618.03,-664.41 609,-660 559.07,-635.6 496.62,-624.43 450.68,-619.31"/>
<polygon fill="midnightblue" stroke="midnightblue" points="450.87,-615.81 440.56,-618.25 450.14,-622.77 450.87,-615.81"/>
</g>
<!-- Node33&#45;&gt;Node7 -->
<g id="edge78" class="edge">
<title>Node33&#45;&gt;Node7</title>
<path fill="none" stroke="midnightblue" d="M725.63,-727.31C737.75,-718.29 752.15,-705.58 761,-691 779.06,-661.23 780,-649.82 780,-615 780,-615 780,-615 780,-501 780,-408 633.67,-392.89 564.47,-390.94"/>
<polygon fill="midnightblue" stroke="midnightblue" points="564.52,-387.44 554.45,-390.74 564.37,-394.44 564.52,-387.44"/>
</g>
<!-- Node33&#45;&gt;Node26 -->
<g id="edge75" class="edge">
<title>Node33&#45;&gt;Node26</title>
<path fill="none" stroke="midnightblue" d="M656.46,-735.9C555.5,-724.01 320,-696.28 210.24,-683.36"/>
<polygon fill="midnightblue" stroke="midnightblue" points="210.36,-679.85 200.02,-682.15 209.54,-686.8 210.36,-679.85"/>
</g>
<!-- Node33&#45;&gt;Node30 -->
<g id="edge77" class="edge">
<title>Node33&#45;&gt;Node30</title>
<path fill="none" stroke="midnightblue" d="M670.37,-727.4C647.42,-717.77 616.81,-704.94 592.08,-694.56"/>
<polygon fill="midnightblue" stroke="midnightblue" points="593.14,-691.22 582.57,-690.58 590.44,-697.67 593.14,-691.22"/>
</g>
<!-- Node33&#45;&gt;Node32 -->
<g id="edge76" class="edge">
<title>Node33&#45;&gt;Node32</title>
<path fill="none" stroke="midnightblue" d="M751.79,-731.33C798.91,-721.26 872.97,-705.31 937,-691 942.34,-689.81 947.93,-688.54 953.48,-687.28"/>
<polygon fill="midnightblue" stroke="midnightblue" points="954.41,-690.66 963.37,-685.01 952.84,-683.83 954.41,-690.66"/>
</g>
<!-- Node34 -->
<g id="node34" class="node">
<title>Node34</title>
<g id="a_node34"><a xlink:href="c__phase_8h.html" target="_top" xlink:title=" ">
<polygon fill="white" stroke="black" points="808,-666 808,-685 928,-685 928,-666 808,-666"/>
<text text-anchor="middle" x="868" y="-673" font-family="Helvetica,sans-Serif" font-size="10.00">SComponent/c_phase.h</text>
</a>
</g>
</g>
<!-- Node33&#45;&gt;Node34 -->
<g id="edge70" class="edge">
<title>Node33&#45;&gt;Node34</title>
<path fill="none" stroke="midnightblue" d="M739.59,-727.4C768.62,-715.89 809.22,-699.8 836.95,-688.81"/>
<polygon fill="midnightblue" stroke="midnightblue" points="838.53,-691.95 846.54,-685.01 835.95,-685.44 838.53,-691.95"/>
</g>
<!-- Node35 -->
<g id="node35" class="node">
<title>Node35</title>
<g id="a_node35"><a xlink:href="f__pc__create__tag_8h.html" target="_top" xlink:title=" ">
<polygon fill="white" stroke="black" points="656.5,-660.5 656.5,-690.5 751.5,-690.5 751.5,-660.5 656.5,-660.5"/>
<text text-anchor="start" x="664.5" y="-678.5" font-family="Helvetica,sans-Serif" font-size="10.00">f/f_pc/f_pc_create</text>
<text text-anchor="middle" x="704" y="-667.5" font-family="Helvetica,sans-Serif" font-size="10.00">_tag.h</text>
</a>
</g>
</g>
<!-- Node33&#45;&gt;Node35 -->
<g id="edge72" class="edge">
<title>Node33&#45;&gt;Node35</title>
<path fill="none" stroke="midnightblue" d="M704,-727.4C704,-719.64 704,-709.81 704,-700.86"/>
<polygon fill="midnightblue" stroke="midnightblue" points="707.5,-700.58 704,-690.58 700.5,-700.58 707.5,-700.58"/>
</g>
<!-- Node35&#45;&gt;Node4 -->
<g id="edge73" class="edge">
<title>Node35&#45;&gt;Node4</title>
<path fill="none" stroke="midnightblue" d="M656.33,-663.07C651.5,-662 646.66,-660.95 642,-660 576.97,-646.67 502.13,-633.75 450.42,-625.19"/>
<polygon fill="midnightblue" stroke="midnightblue" points="450.83,-621.72 440.4,-623.54 449.7,-628.62 450.83,-621.72"/>
</g>
<!-- Node35&#45;&gt;Node7 -->
<g id="edge74" class="edge">
<title>Node35&#45;&gt;Node7</title>
<path fill="none" stroke="midnightblue" d="M691.2,-660.38C673.85,-639.71 645,-599.31 645,-559 645,-559 645,-559 645,-501 645,-453.81 593.84,-420.79 559.47,-403.92"/>
<polygon fill="midnightblue" stroke="midnightblue" points="560.81,-400.69 550.28,-399.6 557.83,-407.02 560.81,-400.69"/>
</g>
</g>
</svg>
