<?xml version="1.0" encoding="UTF-8" standalone="no"?>
<!DOCTYPE svg PUBLIC "-//W3C//DTD SVG 1.1//EN"
 "http://www.w3.org/Graphics/SVG/1.1/DTD/svg11.dtd">
<!-- Generated by graphviz version 2.46.1 (20210215.1649)
 -->
<!-- Title: src/f/f_pc/f_pc_delete_tag.cpp Pages: 1 -->
<!--zoomable 822 -->
<svg id="main" version="1.1" xmlns="http://www.w3.org/2000/svg" xmlns:xlink="http://www.w3.org/1999/xlink" xml:space="preserve" onload="init(evt)">
<style type="text/css"><![CDATA[
.edge:hover path { stroke: red; }
.edge:hover polygon { stroke: red; fill: red; }
]]></style>
<script type="text/javascript"><![CDATA[
var edges = document.getElementsByTagName('g');
if (edges && edges.length) {
  for (var i=0;i<edges.length;i++) {
    if (edges[i].id.substr(0,4)=='edge') {
      edges[i].setAttribute('class','edge');
    }
  }
}
]]></script>
        <defs>
                <circle id="rim" cx="0" cy="0" r="7"/>
                <circle id="rim2" cx="0" cy="0" r="3.5"/>
                <g id="zoomPlus">
                        <use xlink:href="#rim" fill="#404040">
                                <set attributeName="fill" to="#808080" begin="zoomplus.mouseover" end="zoomplus.mouseout"/>
                        </use>
                        <path d="M-4,0h8M0,-4v8" fill="none" stroke="white" stroke-width="1.5" pointer-events="none"/>
                </g>
                <g id="zoomMin">
                        <use xlink:href="#rim" fill="#404040">
                                <set attributeName="fill" to="#808080" begin="zoomminus.mouseover" end="zoomminus.mouseout"/>
                        </use>
                        <path d="M-4,0h8" fill="none" stroke="white" stroke-width="1.5" pointer-events="none"/>
                </g>
                <g id="dirArrow">
                        <path fill="none" stroke="white" stroke-width="1.5" d="M0,-3.0v7 M-2.5,-0.5L0,-3.0L2.5,-0.5"/>
                </g>
               <g id="resetDef">
                       <use xlink:href="#rim2" fill="#404040">
                               <set attributeName="fill" to="#808080" begin="reset.mouseover" end="reset.mouseout"/>
                       </use>
               </g>
        </defs>

<script type="text/javascript">
var viewWidth = 659;
var viewHeight = 822;
var sectionId = 'dynsection-0';
</script>
<script xlink:href="svgpan.js"/>
<svg id="graph" class="graph">
<g id="viewport">
<title>src/f/f_pc/f_pc_delete_tag.cpp</title>
<polygon fill="white" stroke="transparent" points="-4,4 -4,-818 655,-818 655,4 -4,4"/>
<!-- Node1 -->
<g id="node1" class="node">
<title>Node1</title>
<g id="a_node1"><a xlink:title=" ">
<polygon fill="#bfbfbf" stroke="black" points="0,-783.5 0,-813.5 111,-813.5 111,-783.5 0,-783.5"/>
<text text-anchor="start" x="8" y="-801.5" font-family="Helvetica,sans-Serif" font-size="10.00">src/f/f_pc/f_pc_delete</text>
<text text-anchor="middle" x="55.5" y="-790.5" font-family="Helvetica,sans-Serif" font-size="10.00">_tag.cpp</text>
</a>
</g>
</g>
<!-- Node2 -->
<g id="node2" class="node">
<title>Node2</title>
<g id="a_node2"><a xlink:href="f__pc__delete__tag_8h.html" target="_top" xlink:title=" ">
<polygon fill="white" stroke="black" points="84,-716.5 84,-746.5 179,-746.5 179,-716.5 84,-716.5"/>
<text text-anchor="start" x="92" y="-734.5" font-family="Helvetica,sans-Serif" font-size="10.00">f/f_pc/f_pc_delete</text>
<text text-anchor="middle" x="131.5" y="-723.5" font-family="Helvetica,sans-Serif" font-size="10.00">_tag.h</text>
</a>
</g>
</g>
<!-- Node1&#45;&gt;Node2 -->
<g id="edge1" class="edge">
<title>Node1&#45;&gt;Node2</title>
<path fill="none" stroke="midnightblue" d="M71.99,-783.4C82.35,-774.54 95.88,-762.96 107.43,-753.09"/>
<polygon fill="midnightblue" stroke="midnightblue" points="109.72,-755.74 115.04,-746.58 105.17,-750.42 109.72,-755.74"/>
</g>
<!-- Node7 -->
<g id="node7" class="node">
<title>Node7</title>
<g id="a_node7"><a xlink:href="types_8h.html" target="_top" xlink:title=" ">
<polygon fill="white" stroke="black" points="245,-0.5 245,-19.5 326,-19.5 326,-0.5 245,-0.5"/>
<text text-anchor="middle" x="285.5" y="-7.5" font-family="Helvetica,sans-Serif" font-size="10.00">dolphin/types.h</text>
</a>
</g>
</g>
<!-- Node1&#45;&gt;Node7 -->
<g id="edge42" class="edge">
<title>Node1&#45;&gt;Node7</title>
<path fill="none" stroke="midnightblue" d="M48.35,-783.5C37.34,-760.59 17.5,-713.42 17.5,-671 17.5,-671 17.5,-671 17.5,-137.5 17.5,-42.47 157.02,-18.72 234.72,-12.86"/>
<polygon fill="midnightblue" stroke="midnightblue" points="235.06,-16.34 244.8,-12.17 234.58,-9.36 235.06,-16.34"/>
</g>
<!-- Node3 -->
<g id="node3" class="node">
<title>Node3</title>
<g id="a_node3"><a xlink:href="c__tag_8h.html" target="_top" xlink:title=" ">
<polygon fill="white" stroke="black" points="107,-604.5 107,-623.5 214,-623.5 214,-604.5 107,-604.5"/>
<text text-anchor="middle" x="160.5" y="-611.5" font-family="Helvetica,sans-Serif" font-size="10.00">SComponent/c_tag.h</text>
</a>
</g>
</g>
<!-- Node2&#45;&gt;Node3 -->
<g id="edge2" class="edge">
<title>Node2&#45;&gt;Node3</title>
<path fill="none" stroke="midnightblue" d="M135.06,-716.34C140.28,-695.53 150.04,-656.66 155.83,-633.58"/>
<polygon fill="midnightblue" stroke="midnightblue" points="159.28,-634.22 158.32,-623.67 152.49,-632.52 159.28,-634.22"/>
</g>
<!-- Node6 -->
<g id="node6" class="node">
<title>Node6</title>
<g id="a_node6"><a xlink:href="global_8h.html" target="_top" xlink:title=" ">
<polygon fill="white" stroke="black" points="186.5,-380.5 186.5,-399.5 236.5,-399.5 236.5,-380.5 186.5,-380.5"/>
<text text-anchor="middle" x="211.5" y="-387.5" font-family="Helvetica,sans-Serif" font-size="10.00">global.h</text>
</a>
</g>
</g>
<!-- Node2&#45;&gt;Node6 -->
<g id="edge41" class="edge">
<title>Node2&#45;&gt;Node6</title>
<path fill="none" stroke="midnightblue" d="M114.25,-716.43C91.83,-696.44 55.5,-657.49 55.5,-615 55.5,-615 55.5,-615 55.5,-501 55.5,-442.15 130.56,-412.02 176.55,-399.08"/>
<polygon fill="midnightblue" stroke="midnightblue" points="177.68,-402.4 186.44,-396.43 175.87,-395.64 177.68,-402.4"/>
</g>
<!-- Node21 -->
<g id="node21" class="node">
<title>Node21</title>
<g id="a_node21"><a xlink:href="f__pc__layer_8h.html" target="_top" xlink:title=" ">
<polygon fill="white" stroke="black" points="204.5,-660.5 204.5,-679.5 300.5,-679.5 300.5,-660.5 204.5,-660.5"/>
<text text-anchor="middle" x="252.5" y="-667.5" font-family="Helvetica,sans-Serif" font-size="10.00">f/f_pc/f_pc_layer.h</text>
</a>
</g>
</g>
<!-- Node2&#45;&gt;Node21 -->
<g id="edge36" class="edge">
<title>Node2&#45;&gt;Node21</title>
<path fill="none" stroke="midnightblue" d="M160.18,-716.4C180.02,-706.64 206.26,-693.74 225.69,-684.18"/>
<polygon fill="midnightblue" stroke="midnightblue" points="227.46,-687.21 234.89,-679.66 224.38,-680.93 227.46,-687.21"/>
</g>
<!-- Node4 -->
<g id="node4" class="node">
<title>Node4</title>
<g id="a_node4"><a xlink:href="c__list_8h.html" target="_top" xlink:title=" ">
<polygon fill="white" stroke="black" points="160,-492.5 160,-511.5 267,-511.5 267,-492.5 160,-492.5"/>
<text text-anchor="middle" x="213.5" y="-499.5" font-family="Helvetica,sans-Serif" font-size="10.00">SComponent/c_list.h</text>
</a>
</g>
</g>
<!-- Node3&#45;&gt;Node4 -->
<g id="edge3" class="edge">
<title>Node3&#45;&gt;Node4</title>
<path fill="none" stroke="midnightblue" d="M163.86,-604.46C168.86,-591.92 178.74,-567.85 188.5,-548 193.03,-538.78 198.54,-528.76 203.23,-520.52"/>
<polygon fill="midnightblue" stroke="midnightblue" points="206.28,-522.23 208.25,-511.82 200.22,-518.73 206.28,-522.23"/>
</g>
<!-- Node5 -->
<g id="node5" class="node">
<title>Node5</title>
<g id="a_node5"><a xlink:href="c__node_8h.html" target="_top" xlink:title=" ">
<polygon fill="white" stroke="black" points="156,-436.5 156,-455.5 271,-455.5 271,-436.5 156,-436.5"/>
<text text-anchor="middle" x="213.5" y="-443.5" font-family="Helvetica,sans-Serif" font-size="10.00">SComponent/c_node.h</text>
</a>
</g>
</g>
<!-- Node3&#45;&gt;Node5 -->
<g id="edge31" class="edge">
<title>Node3&#45;&gt;Node5</title>
<path fill="none" stroke="midnightblue" d="M157,-604.49C149.12,-583.86 132.08,-530.1 151.5,-492 158.5,-478.27 171.87,-467.75 184.4,-460.35"/>
<polygon fill="midnightblue" stroke="midnightblue" points="186.17,-463.37 193.28,-455.51 182.82,-457.22 186.17,-463.37"/>
</g>
<!-- Node3&#45;&gt;Node6 -->
<g id="edge35" class="edge">
<title>Node3&#45;&gt;Node6</title>
<path fill="none" stroke="midnightblue" d="M154.86,-604.48C149.45,-595.74 141.64,-581.56 138.5,-568 125.25,-510.71 117.21,-486.4 147.5,-436 155.66,-422.42 169.68,-411.87 182.52,-404.41"/>
<polygon fill="midnightblue" stroke="midnightblue" points="184.43,-407.36 191.56,-399.52 181.1,-401.2 184.43,-407.36"/>
</g>
<!-- Node20 -->
<g id="node20" class="node">
<title>Node20</title>
<g id="a_node20"><a xlink:href="c__tree_8h.html" target="_top" xlink:title=" ">
<polygon fill="white" stroke="black" points="197.5,-548.5 197.5,-567.5 307.5,-567.5 307.5,-548.5 197.5,-548.5"/>
<text text-anchor="middle" x="252.5" y="-555.5" font-family="Helvetica,sans-Serif" font-size="10.00">SComponent/c_tree.h</text>
</a>
</g>
</g>
<!-- Node3&#45;&gt;Node20 -->
<g id="edge32" class="edge">
<title>Node3&#45;&gt;Node20</title>
<path fill="none" stroke="midnightblue" d="M175.28,-604.32C189.77,-595.82 212.07,-582.73 228.99,-572.8"/>
<polygon fill="midnightblue" stroke="midnightblue" points="230.9,-575.74 237.76,-567.65 227.36,-569.7 230.9,-575.74"/>
</g>
<!-- Node4&#45;&gt;Node5 -->
<g id="edge4" class="edge">
<title>Node4&#45;&gt;Node5</title>
<path fill="none" stroke="midnightblue" d="M213.5,-492.08C213.5,-485.01 213.5,-474.86 213.5,-465.99"/>
<polygon fill="midnightblue" stroke="midnightblue" points="217,-465.75 213.5,-455.75 210,-465.75 217,-465.75"/>
</g>
<!-- Node5&#45;&gt;Node6 -->
<g id="edge5" class="edge">
<title>Node5&#45;&gt;Node6</title>
<path fill="none" stroke="midnightblue" d="M213.17,-436.08C212.91,-429.01 212.53,-418.86 212.2,-409.99"/>
<polygon fill="midnightblue" stroke="midnightblue" points="215.69,-409.61 211.82,-399.75 208.7,-409.87 215.69,-409.61"/>
</g>
<!-- Node6&#45;&gt;Node7 -->
<g id="edge6" class="edge">
<title>Node6&#45;&gt;Node7</title>
<path fill="none" stroke="midnightblue" d="M186.44,-382.89C142.34,-370.48 55.5,-337.86 55.5,-273.5 55.5,-273.5 55.5,-273.5 55.5,-137.5 55.5,-56.23 167.13,-26.8 234.85,-16.42"/>
<polygon fill="midnightblue" stroke="midnightblue" points="235.51,-19.86 244.91,-14.97 234.51,-12.93 235.51,-19.86"/>
</g>
<!-- Node8 -->
<g id="node8" class="node">
<title>Node8</title>
<g id="a_node8"><a xlink:href="AR_8h.html" target="_top" xlink:title=" ">
<polygon fill="white" stroke="black" points="87,-263 87,-282 136,-282 136,-263 87,-263"/>
<text text-anchor="middle" x="111.5" y="-270" font-family="Helvetica,sans-Serif" font-size="10.00">ar/AR.h</text>
</a>
</g>
</g>
<!-- Node6&#45;&gt;Node8 -->
<g id="edge7" class="edge">
<title>Node6&#45;&gt;Node8</title>
<path fill="none" stroke="midnightblue" d="M197.12,-380.35C184.31,-372.14 165.63,-358.88 152.5,-344 138.34,-327.96 126.61,-306.29 119.38,-291.22"/>
<polygon fill="midnightblue" stroke="midnightblue" points="122.49,-289.61 115.11,-282 116.13,-292.55 122.49,-289.61"/>
</g>
<!-- Node9 -->
<g id="node9" class="node">
<title>Node9</title>
<g id="a_node9"><a xlink:href="ARQ_8h.html" target="_top" xlink:title=" ">
<polygon fill="white" stroke="black" points="123.5,-196 123.5,-215 179.5,-215 179.5,-196 123.5,-196"/>
<text text-anchor="middle" x="151.5" y="-203" font-family="Helvetica,sans-Serif" font-size="10.00">ar/ARQ.h</text>
</a>
</g>
</g>
<!-- Node6&#45;&gt;Node9 -->
<g id="edge9" class="edge">
<title>Node6&#45;&gt;Node9</title>
<path fill="none" stroke="midnightblue" d="M208.61,-380.2C199.36,-352.07 170.39,-263.96 157.63,-225.16"/>
<polygon fill="midnightblue" stroke="midnightblue" points="160.81,-223.62 154.36,-215.21 154.16,-225.81 160.81,-223.62"/>
</g>
<!-- Node10 -->
<g id="node10" class="node">
<title>Node10</title>
<g id="a_node10"><a xlink:href="mwcc_8h.html" target="_top" xlink:title=" ">
<polygon fill="white" stroke="black" points="417.5,-324.5 417.5,-343.5 467.5,-343.5 467.5,-324.5 417.5,-324.5"/>
<text text-anchor="middle" x="442.5" y="-331.5" font-family="Helvetica,sans-Serif" font-size="10.00">mwcc.h</text>
</a>
</g>
</g>
<!-- Node6&#45;&gt;Node10 -->
<g id="edge11" class="edge">
<title>Node6&#45;&gt;Node10</title>
<path fill="none" stroke="midnightblue" d="M236.75,-383.52C272.54,-375.7 340.28,-360.65 407.38,-344.21"/>
<polygon fill="midnightblue" stroke="midnightblue" points="408.4,-347.57 417.27,-341.78 406.73,-340.77 408.4,-347.57"/>
</g>
<!-- Node11 -->
<g id="node11" class="node">
<title>Node11</title>
<g id="a_node11"><a xlink:href="OS_8h.html" target="_top" xlink:title=" ">
<polygon fill="white" stroke="black" points="185.5,-129 185.5,-148 237.5,-148 237.5,-129 185.5,-129"/>
<text text-anchor="middle" x="211.5" y="-136" font-family="Helvetica,sans-Serif" font-size="10.00">os/OS.h</text>
</a>
</g>
</g>
<!-- Node6&#45;&gt;Node11 -->
<g id="edge12" class="edge">
<title>Node6&#45;&gt;Node11</title>
<path fill="none" stroke="midnightblue" d="M211.5,-380.41C211.5,-344.8 211.5,-208.25 211.5,-158.11"/>
<polygon fill="midnightblue" stroke="midnightblue" points="215,-158.05 211.5,-148.05 208,-158.05 215,-158.05"/>
</g>
<!-- Node13 -->
<g id="node13" class="node">
<title>Node13</title>
<g id="a_node13"><a xlink:href="variables_8h.html" target="_top" xlink:title=" ">
<polygon fill="white" stroke="black" points="336,-324.5 336,-343.5 399,-343.5 399,-324.5 336,-324.5"/>
<text text-anchor="middle" x="367.5" y="-331.5" font-family="Helvetica,sans-Serif" font-size="10.00">variables.h</text>
</a>
</g>
</g>
<!-- Node6&#45;&gt;Node13 -->
<g id="edge16" class="edge">
<title>Node6&#45;&gt;Node13</title>
<path fill="none" stroke="midnightblue" d="M236.22,-380.44C262.35,-371.4 303.76,-357.06 333.08,-346.92"/>
<polygon fill="midnightblue" stroke="midnightblue" points="334.59,-350.1 342.9,-343.52 332.3,-343.48 334.59,-350.1"/>
</g>
<!-- Node8&#45;&gt;Node7 -->
<g id="edge8" class="edge">
<title>Node8&#45;&gt;Node7</title>
<path fill="none" stroke="midnightblue" d="M110.4,-262.62C106.88,-230.02 99.35,-115.78 157.5,-56 177.96,-34.97 208.82,-23.75 235.12,-17.77"/>
<polygon fill="midnightblue" stroke="midnightblue" points="235.86,-21.19 244.94,-15.73 234.43,-14.34 235.86,-21.19"/>
</g>
<!-- Node9&#45;&gt;Node7 -->
<g id="edge10" class="edge">
<title>Node9&#45;&gt;Node7</title>
<path fill="none" stroke="midnightblue" d="M150.54,-196C148.24,-171.35 144.95,-98.91 179.5,-56 193.35,-38.8 214.97,-28.07 235.09,-21.42"/>
<polygon fill="midnightblue" stroke="midnightblue" points="236.25,-24.73 244.8,-18.48 234.21,-18.03 236.25,-24.73"/>
</g>
<!-- Node11&#45;&gt;Node7 -->
<g id="edge13" class="edge">
<title>Node11&#45;&gt;Node7</title>
<path fill="none" stroke="midnightblue" d="M205.06,-128.97C194.12,-113.36 174.48,-79.62 189.5,-56 199.75,-39.88 217.46,-29.43 234.91,-22.71"/>
<polygon fill="midnightblue" stroke="midnightblue" points="236.24,-25.95 244.52,-19.35 233.93,-19.35 236.24,-25.95"/>
</g>
<!-- Node12 -->
<g id="node12" class="node">
<title>Node12</title>
<g id="a_node12"><a xlink:href="dvd_8h.html" target="_top" xlink:title=" ">
<polygon fill="white" stroke="black" points="198,-62 198,-81 257,-81 257,-62 198,-62"/>
<text text-anchor="middle" x="227.5" y="-69" font-family="Helvetica,sans-Serif" font-size="10.00">dvd/dvd.h</text>
</a>
</g>
</g>
<!-- Node11&#45;&gt;Node12 -->
<g id="edge14" class="edge">
<title>Node11&#45;&gt;Node12</title>
<path fill="none" stroke="midnightblue" d="M213.66,-128.73C216.03,-119.09 219.92,-103.3 222.97,-90.91"/>
<polygon fill="midnightblue" stroke="midnightblue" points="226.38,-91.67 225.38,-81.13 219.59,-90 226.38,-91.67"/>
</g>
<!-- Node12&#45;&gt;Node7 -->
<g id="edge15" class="edge">
<title>Node12&#45;&gt;Node7</title>
<path fill="none" stroke="midnightblue" d="M235.81,-61.98C244.68,-52.87 258.95,-38.24 269.92,-26.98"/>
<polygon fill="midnightblue" stroke="midnightblue" points="272.73,-29.11 277.21,-19.51 267.72,-24.23 272.73,-29.11"/>
</g>
<!-- Node14 -->
<g id="node14" class="node">
<title>Node14</title>
<g id="a_node14"><a xlink:href="JSUList_8h.html" target="_top" xlink:title=" ">
<polygon fill="white" stroke="black" points="275.5,-56.5 275.5,-86.5 411.5,-86.5 411.5,-56.5 275.5,-56.5"/>
<text text-anchor="start" x="283.5" y="-74.5" font-family="Helvetica,sans-Serif" font-size="10.00">JSystem/JSupport/JSUList</text>
<text text-anchor="middle" x="343.5" y="-63.5" font-family="Helvetica,sans-Serif" font-size="10.00">/JSUList.h</text>
</a>
</g>
</g>
<!-- Node13&#45;&gt;Node14 -->
<g id="edge17" class="edge">
<title>Node13&#45;&gt;Node14</title>
<path fill="none" stroke="midnightblue" d="M360.7,-324.3C346.93,-306.2 315.77,-262.7 300.5,-221 290.13,-192.66 291.95,-184.08 289.5,-154 288.38,-140.27 284.02,-135.64 289.5,-123 294.57,-111.32 303.82,-101.1 313.25,-92.98"/>
<polygon fill="midnightblue" stroke="midnightblue" points="315.52,-95.64 321.13,-86.65 311.14,-90.19 315.52,-95.64"/>
</g>
<!-- Node15 -->
<g id="node15" class="node">
<title>Node15</title>
<g id="a_node15"><a xlink:href="JUTXfb_8h.html" target="_top" xlink:title=" ">
<polygon fill="white" stroke="black" points="376,-257.5 376,-287.5 501,-287.5 501,-257.5 376,-257.5"/>
<text text-anchor="start" x="384" y="-275.5" font-family="Helvetica,sans-Serif" font-size="10.00">JSystem/JUtility/JUTXfb</text>
<text text-anchor="middle" x="438.5" y="-264.5" font-family="Helvetica,sans-Serif" font-size="10.00">/JUTXfb.h</text>
</a>
</g>
</g>
<!-- Node13&#45;&gt;Node15 -->
<g id="edge19" class="edge">
<title>Node13&#45;&gt;Node15</title>
<path fill="none" stroke="midnightblue" d="M377.67,-324.48C387.11,-316.57 401.53,-304.48 413.96,-294.07"/>
<polygon fill="midnightblue" stroke="midnightblue" points="416.35,-296.63 421.77,-287.52 411.85,-291.26 416.35,-296.63"/>
</g>
<!-- Node19 -->
<g id="node19" class="node">
<title>Node19</title>
<g id="a_node19"><a xlink:href="mtx__vec_8h.html" target="_top" xlink:title=" ">
<polygon fill="white" stroke="black" points="590,-129 590,-148 651,-148 651,-129 590,-129"/>
<text text-anchor="middle" x="620.5" y="-136" font-family="Helvetica,sans-Serif" font-size="10.00">mtx_vec.h</text>
</a>
</g>
</g>
<!-- Node13&#45;&gt;Node19 -->
<g id="edge29" class="edge">
<title>Node13&#45;&gt;Node19</title>
<path fill="none" stroke="midnightblue" d="M399.29,-325.44C435.67,-316.38 492.54,-300.8 510.5,-288 560.03,-252.71 596.53,-188.25 612.13,-157.18"/>
<polygon fill="midnightblue" stroke="midnightblue" points="615.36,-158.53 616.61,-148.01 609.07,-155.46 615.36,-158.53"/>
</g>
<!-- Node14&#45;&gt;Node7 -->
<g id="edge18" class="edge">
<title>Node14&#45;&gt;Node7</title>
<path fill="none" stroke="midnightblue" d="M329.75,-56.4C321.15,-47.58 310.05,-36.18 301.11,-27.02"/>
<polygon fill="midnightblue" stroke="midnightblue" points="303.43,-24.38 293.94,-19.66 298.41,-29.26 303.43,-24.38"/>
</g>
<!-- Node15&#45;&gt;Node7 -->
<g id="edge26" class="edge">
<title>Node15&#45;&gt;Node7</title>
<path fill="none" stroke="midnightblue" d="M444.2,-257.34C458.74,-218.61 492.28,-110.26 436.5,-56 409.87,-30.1 369,-19.01 336.49,-14.31"/>
<polygon fill="midnightblue" stroke="midnightblue" points="336.63,-10.8 326.26,-13 335.74,-17.75 336.63,-10.8"/>
</g>
<!-- Node16 -->
<g id="node16" class="node">
<title>Node16</title>
<g id="a_node16"><a xlink:href="JKRHeap_8h.html" target="_top" xlink:title=" ">
<polygon fill="white" stroke="black" points="309.5,-190.5 309.5,-220.5 445.5,-220.5 445.5,-190.5 309.5,-190.5"/>
<text text-anchor="start" x="317.5" y="-208.5" font-family="Helvetica,sans-Serif" font-size="10.00">JSystem/JKernel/JKRHeap</text>
<text text-anchor="middle" x="377.5" y="-197.5" font-family="Helvetica,sans-Serif" font-size="10.00">/JKRHeap.h</text>
</a>
</g>
</g>
<!-- Node15&#45;&gt;Node16 -->
<g id="edge20" class="edge">
<title>Node15&#45;&gt;Node16</title>
<path fill="none" stroke="midnightblue" d="M425.26,-257.4C417.19,-248.79 406.71,-237.63 397.63,-227.94"/>
<polygon fill="midnightblue" stroke="midnightblue" points="400.11,-225.47 390.71,-220.58 395,-230.26 400.11,-225.47"/>
</g>
<!-- Node18 -->
<g id="node18" class="node">
<title>Node18</title>
<g id="a_node18"><a xlink:href="GX_8h.html" target="_top" xlink:title=" ">
<polygon fill="white" stroke="black" points="544,-62 544,-81 595,-81 595,-62 544,-62"/>
<text text-anchor="middle" x="569.5" y="-69" font-family="Helvetica,sans-Serif" font-size="10.00">gx/GX.h</text>
</a>
</g>
</g>
<!-- Node15&#45;&gt;Node18 -->
<g id="edge27" class="edge">
<title>Node15&#45;&gt;Node18</title>
<path fill="none" stroke="midnightblue" d="M456.15,-257.29C467.2,-247.79 481.24,-234.59 491.5,-221 524,-177.94 550.31,-119.44 562.37,-90.39"/>
<polygon fill="midnightblue" stroke="midnightblue" points="565.62,-91.69 566.15,-81.11 559.14,-89.05 565.62,-91.69"/>
</g>
<!-- Node16&#45;&gt;Node6 -->
<g id="edge25" class="edge">
<title>Node16&#45;&gt;Node6</title>
<path fill="none" stroke="midnightblue" d="M364.59,-220.69C334.25,-254.05 258.55,-337.27 226.36,-372.66"/>
<polygon fill="midnightblue" stroke="midnightblue" points="223.65,-370.44 219.51,-380.2 228.82,-375.16 223.65,-370.44"/>
</g>
<!-- Node16&#45;&gt;Node7 -->
<g id="edge24" class="edge">
<title>Node16&#45;&gt;Node7</title>
<path fill="none" stroke="midnightblue" d="M416.16,-190.37C432.27,-182.34 449.33,-170.52 458.5,-154 473.65,-126.7 437.33,-56.81 436.5,-56 409.87,-30.1 369,-19.01 336.49,-14.31"/>
<polygon fill="midnightblue" stroke="midnightblue" points="336.63,-10.8 326.26,-13 335.74,-17.75 336.63,-10.8"/>
</g>
<!-- Node17 -->
<g id="node17" class="node">
<title>Node17</title>
<g id="a_node17"><a xlink:href="JKRDisposer_8h.html" target="_top" xlink:title=" ">
<polygon fill="white" stroke="black" points="298,-123.5 298,-153.5 449,-153.5 449,-123.5 298,-123.5"/>
<text text-anchor="start" x="306" y="-141.5" font-family="Helvetica,sans-Serif" font-size="10.00">JSystem/JKernel/JKRDisposer</text>
<text text-anchor="middle" x="373.5" y="-130.5" font-family="Helvetica,sans-Serif" font-size="10.00">/JKRDisposer.h</text>
</a>
</g>
</g>
<!-- Node16&#45;&gt;Node17 -->
<g id="edge21" class="edge">
<title>Node16&#45;&gt;Node17</title>
<path fill="none" stroke="midnightblue" d="M376.63,-190.4C376.15,-182.56 375.54,-172.6 374.98,-163.57"/>
<polygon fill="midnightblue" stroke="midnightblue" points="378.47,-163.34 374.37,-153.58 371.49,-163.77 378.47,-163.34"/>
</g>
<!-- Node17&#45;&gt;Node7 -->
<g id="edge23" class="edge">
<title>Node17&#45;&gt;Node7</title>
<path fill="none" stroke="midnightblue" d="M391.69,-123.42C410.99,-106.74 436.64,-78.39 420.5,-56 401.44,-29.56 366.17,-18.42 336.45,-13.83"/>
<polygon fill="midnightblue" stroke="midnightblue" points="336.59,-10.32 326.21,-12.47 335.66,-17.26 336.59,-10.32"/>
</g>
<!-- Node17&#45;&gt;Node14 -->
<g id="edge22" class="edge">
<title>Node17&#45;&gt;Node14</title>
<path fill="none" stroke="midnightblue" d="M366.99,-123.4C363.26,-115.3 358.47,-104.94 354.2,-95.69"/>
<polygon fill="midnightblue" stroke="midnightblue" points="357.37,-94.19 350,-86.58 351.01,-97.12 357.37,-94.19"/>
</g>
<!-- Node18&#45;&gt;Node7 -->
<g id="edge28" class="edge">
<title>Node18&#45;&gt;Node7</title>
<path fill="none" stroke="midnightblue" d="M547.7,-61.86C541.85,-59.75 535.49,-57.63 529.5,-56 463.72,-38.14 386.03,-25.17 336.29,-17.86"/>
<polygon fill="midnightblue" stroke="midnightblue" points="336.51,-14.36 326.11,-16.39 335.51,-21.29 336.51,-14.36"/>
</g>
<!-- Node19&#45;&gt;Node7 -->
<g id="edge30" class="edge">
<title>Node19&#45;&gt;Node7</title>
<path fill="none" stroke="midnightblue" d="M621.71,-128.86C623.52,-112.12 624.8,-75.24 604.5,-56 566.91,-20.38 416.78,-12.74 336.59,-11.25"/>
<polygon fill="midnightblue" stroke="midnightblue" points="336.29,-7.74 326.23,-11.08 336.18,-14.74 336.29,-7.74"/>
</g>
<!-- Node20&#45;&gt;Node4 -->
<g id="edge33" class="edge">
<title>Node20&#45;&gt;Node4</title>
<path fill="none" stroke="midnightblue" d="M246.06,-548.08C240.55,-540.46 232.47,-529.26 225.74,-519.94"/>
<polygon fill="midnightblue" stroke="midnightblue" points="228.51,-517.81 219.82,-511.75 222.84,-521.91 228.51,-517.81"/>
</g>
<!-- Node20&#45;&gt;Node5 -->
<g id="edge34" class="edge">
<title>Node20&#45;&gt;Node5</title>
<path fill="none" stroke="midnightblue" d="M260.21,-548.31C270.52,-535.57 286.41,-511.25 276.5,-492 269.42,-478.25 255.98,-467.77 243.32,-460.39"/>
<polygon fill="midnightblue" stroke="midnightblue" points="244.81,-457.22 234.35,-455.57 241.5,-463.39 244.81,-457.22"/>
</g>
<!-- Node21&#45;&gt;Node3 -->
<g id="edge38" class="edge">
<title>Node21&#45;&gt;Node3</title>
<path fill="none" stroke="midnightblue" d="M237.72,-660.32C223.23,-651.82 200.93,-638.73 184.01,-628.8"/>
<polygon fill="midnightblue" stroke="midnightblue" points="185.64,-625.7 175.24,-623.65 182.1,-631.74 185.64,-625.7"/>
</g>
<!-- Node21&#45;&gt;Node5 -->
<g id="edge37" class="edge">
<title>Node21&#45;&gt;Node5</title>
<path fill="none" stroke="midnightblue" d="M262.38,-660.27C282.66,-641.24 326.31,-594.02 316.5,-548 310.82,-521.34 309.75,-512.24 291.5,-492 278.93,-478.06 260.99,-467.29 245.48,-459.79"/>
<polygon fill="midnightblue" stroke="midnightblue" points="246.76,-456.53 236.21,-455.55 243.85,-462.9 246.76,-456.53"/>
</g>
<!-- Node21&#45;&gt;Node6 -->
<g id="edge40" class="edge">
<title>Node21&#45;&gt;Node6</title>
<path fill="none" stroke="midnightblue" d="M275.26,-660.43C310.31,-645.58 373.5,-611.52 373.5,-559 373.5,-559 373.5,-559 373.5,-501 373.5,-440.19 294.41,-410.65 246.75,-398.38"/>
<polygon fill="midnightblue" stroke="midnightblue" points="247.36,-394.92 236.81,-395.95 245.7,-401.72 247.36,-394.92"/>
</g>
<!-- Node21&#45;&gt;Node20 -->
<g id="edge39" class="edge">
<title>Node21&#45;&gt;Node20</title>
<path fill="none" stroke="midnightblue" d="M252.5,-660.37C252.5,-642.62 252.5,-601.67 252.5,-577.6"/>
<polygon fill="midnightblue" stroke="midnightblue" points="256,-577.59 252.5,-567.59 249,-577.59 256,-577.59"/>
</g>
</g>
</svg>
        <g id="navigator" transform="translate(0 0)" fill="#404254">
                <rect fill="#f2f5e9" fill-opacity="0.5" stroke="#606060" stroke-width=".5" x="0" y="0" width="60" height="60"/>
                <use id="zoomplus" xlink:href="#zoomPlus" x="17" y="9" onmousedown="handleZoom(evt,'in')"/>
                <use id="zoomminus" xlink:href="#zoomMin" x="42" y="9" onmousedown="handleZoom(evt,'out')"/>
                <use id="reset" xlink:href="#resetDef" x="30" y="36" onmousedown="handleReset()"/>
                <g id="arrowUp" xlink:href="#dirArrow" transform="translate(30 24)" onmousedown="handlePan(0,-1)">
                  <use xlink:href="#rim" fill="#404040">
                        <set attributeName="fill" to="#808080" begin="arrowUp.mouseover" end="arrowUp.mouseout"/>
                  </use>
                  <path fill="none" stroke="white" stroke-width="1.5" d="M0,-3.0v7 M-2.5,-0.5L0,-3.0L2.5,-0.5"/>
                </g>
                <g id="arrowRight" xlink:href="#dirArrow" transform="rotate(90) translate(36 -43)" onmousedown="handlePan(1,0)">
                  <use xlink:href="#rim" fill="#404040">
                        <set attributeName="fill" to="#808080" begin="arrowRight.mouseover" end="arrowRight.mouseout"/>
                  </use>
                  <path fill="none" stroke="white" stroke-width="1.5" d="M0,-3.0v7 M-2.5,-0.5L0,-3.0L2.5,-0.5"/>
                </g>
                <g id="arrowDown" xlink:href="#dirArrow" transform="rotate(180) translate(-30 -48)" onmousedown="handlePan(0,1)">
                  <use xlink:href="#rim" fill="#404040">
                        <set attributeName="fill" to="#808080" begin="arrowDown.mouseover" end="arrowDown.mouseout"/>
                  </use>
                  <path fill="none" stroke="white" stroke-width="1.5" d="M0,-3.0v7 M-2.5,-0.5L0,-3.0L2.5,-0.5"/>
                </g>
                <g id="arrowLeft" xlink:href="#dirArrow" transform="rotate(270) translate(-36 17)" onmousedown="handlePan(-1,0)">
                  <use xlink:href="#rim" fill="#404040">
                        <set attributeName="fill" to="#808080" begin="arrowLeft.mouseover" end="arrowLeft.mouseout"/>
                  </use>
                  <path fill="none" stroke="white" stroke-width="1.5" d="M0,-3.0v7 M-2.5,-0.5L0,-3.0L2.5,-0.5"/>
                </g>
        </g>
        <svg viewBox="0 0 15 15" width="100%" height="30px" preserveAspectRatio="xMaxYMin meet">
         <g id="arrow_out" transform="scale(0.3 0.3)">
          <a xlink:href="f__pc__delete__tag_8cpp__incl_org.svg" target="_base">
           <rect id="button" ry="5" rx="5" y="6" x="6" height="38" width="38"
                fill="#f2f5e9" fill-opacity="0.5" stroke="#606060" stroke-width="1.0"/>
           <path id="arrow"
             d="M 11.500037,31.436501 C 11.940474,20.09759 22.043105,11.32322 32.158766,21.979434 L 37.068811,17.246167 C 37.068811,17.246167 37.088388,32 37.088388,32 L 22.160133,31.978069 C 22.160133,31.978069 26.997745,27.140456 26.997745,27.140456 C 18.528582,18.264221 13.291696,25.230495 11.500037,31.436501 z"
             style="fill:#404040;"/>
          </a>
         </g>
        </svg>
</svg>
