<?xml version="1.0" encoding="UTF-8" standalone="no"?>
<!DOCTYPE svg PUBLIC "-//W3C//DTD SVG 1.1//EN"
 "http://www.w3.org/Graphics/SVG/1.1/DTD/svg11.dtd">
<!-- Generated by graphviz version 2.46.0 (20210122.1329)
 -->
<!-- Title: src/f/f_pc/f_pc_line_iter.cpp Pages: 1 -->
<svg width="1015pt" height="889pt"
 viewBox="0.00 0.00 1015.00 889.00" xmlns="http://www.w3.org/2000/svg" xmlns:xlink="http://www.w3.org/1999/xlink">
<g id="graph0" class="graph" transform="scale(1 1) rotate(0) translate(4 885)">
<title>src/f/f_pc/f_pc_line_iter.cpp</title>
<polygon fill="white" stroke="transparent" points="-4,4 -4,-885 1011,-885 1011,4 -4,4"/>
<!-- Node1 -->
<g id="node1" class="node">
<title>Node1</title>
<g id="a_node1"><a xlink:title=" ">
<polygon fill="#bfbfbf" stroke="black" points="154,-850.5 154,-880.5 254,-880.5 254,-850.5 154,-850.5"/>
<text text-anchor="start" x="162" y="-868.5" font-family="Helvetica,sans-Serif" font-size="10.00">src/f/f_pc/f_pc_line</text>
<text text-anchor="middle" x="204" y="-857.5" font-family="Helvetica,sans-Serif" font-size="10.00">_iter.cpp</text>
</a>
</g>
</g>
<!-- Node2 -->
<g id="node2" class="node">
<title>Node2</title>
<g id="a_node2"><a xlink:href="c__tag__iter_8h.html" target="_top" xlink:title=" ">
<polygon fill="white" stroke="black" points="124,-666 124,-685 250,-685 250,-666 124,-666"/>
<text text-anchor="middle" x="187" y="-673" font-family="Helvetica,sans-Serif" font-size="10.00">SComponent/c_tag_iter.h</text>
</a>
</g>
</g>
<!-- Node1&#45;&gt;Node2 -->
<g id="edge1" class="edge">
<title>Node1&#45;&gt;Node2</title>
<path fill="none" stroke="midnightblue" d="M202.72,-850.37C199.7,-816.94 192.11,-732.97 188.7,-695.3"/>
<polygon fill="midnightblue" stroke="midnightblue" points="192.17,-694.85 187.79,-685.21 185.2,-695.48 192.17,-694.85"/>
</g>
<!-- Node24 -->
<g id="node24" class="node">
<title>Node24</title>
<g id="a_node24"><a xlink:href="c__tree__iter_8h.html" target="_top" xlink:title=" ">
<polygon fill="white" stroke="black" points="66.5,-604.5 66.5,-623.5 195.5,-623.5 195.5,-604.5 66.5,-604.5"/>
<text text-anchor="middle" x="131" y="-611.5" font-family="Helvetica,sans-Serif" font-size="10.00">SComponent/c_tree_iter.h</text>
</a>
</g>
</g>
<!-- Node1&#45;&gt;Node24 -->
<g id="edge43" class="edge">
<title>Node1&#45;&gt;Node24</title>
<path fill="none" stroke="midnightblue" d="M193.58,-850.13C173.58,-821.56 130.42,-754.84 115,-691 110.27,-671.41 116.52,-648.78 122.54,-633.34"/>
<polygon fill="midnightblue" stroke="midnightblue" points="125.85,-634.5 126.53,-623.93 119.4,-631.77 125.85,-634.5"/>
</g>
<!-- Node25 -->
<g id="node25" class="node">
<title>Node25</title>
<g id="a_node25"><a xlink:href="f__pc__base_8h.html" target="_top" xlink:title=" ">
<polygon fill="white" stroke="black" points="499.5,-794.5 499.5,-813.5 596.5,-813.5 596.5,-794.5 499.5,-794.5"/>
<text text-anchor="middle" x="548" y="-801.5" font-family="Helvetica,sans-Serif" font-size="10.00">f/f_pc/f_pc_base.h</text>
</a>
</g>
</g>
<!-- Node1&#45;&gt;Node25 -->
<g id="edge47" class="edge">
<title>Node1&#45;&gt;Node25</title>
<path fill="none" stroke="midnightblue" d="M254.02,-855.85C316.5,-845.04 423.22,-826.58 489.44,-815.13"/>
<polygon fill="midnightblue" stroke="midnightblue" points="490.05,-818.57 499.31,-813.42 488.86,-811.68 490.05,-818.57"/>
</g>
<!-- Node27 -->
<g id="node27" class="node">
<title>Node27</title>
<g id="a_node27"><a xlink:href="f__pc__layer_8h.html" target="_top" xlink:title=" ">
<polygon fill="white" stroke="black" points="268,-666 268,-685 364,-685 364,-666 268,-666"/>
<text text-anchor="middle" x="316" y="-673" font-family="Helvetica,sans-Serif" font-size="10.00">f/f_pc/f_pc_layer.h</text>
</a>
</g>
</g>
<!-- Node1&#45;&gt;Node27 -->
<g id="edge74" class="edge">
<title>Node1&#45;&gt;Node27</title>
<path fill="none" stroke="midnightblue" d="M204.75,-850.27C206.8,-823.68 214.34,-765.68 242,-727 253.46,-710.97 271.71,-698.44 287.21,-689.87"/>
<polygon fill="midnightblue" stroke="midnightblue" points="289.19,-692.78 296.42,-685.05 285.94,-686.58 289.19,-692.78"/>
</g>
<!-- Node3 -->
<g id="node3" class="node">
<title>Node3</title>
<g id="a_node3"><a xlink:href="c__node__iter_8h.html" target="_top" xlink:title=" ">
<polygon fill="white" stroke="black" points="104,-548.5 104,-567.5 238,-567.5 238,-548.5 104,-548.5"/>
<text text-anchor="middle" x="171" y="-555.5" font-family="Helvetica,sans-Serif" font-size="10.00">SComponent/c_node_iter.h</text>
</a>
</g>
</g>
<!-- Node2&#45;&gt;Node3 -->
<g id="edge2" class="edge">
<title>Node2&#45;&gt;Node3</title>
<path fill="none" stroke="midnightblue" d="M192.23,-665.69C199.53,-652.22 211.13,-625.78 204,-604 200.51,-593.34 193.43,-583.12 186.71,-575.12"/>
<polygon fill="midnightblue" stroke="midnightblue" points="189.3,-572.76 180.02,-567.66 184.1,-577.44 189.3,-572.76"/>
</g>
<!-- Node5 -->
<g id="node5" class="node">
<title>Node5</title>
<g id="a_node5"><a xlink:href="global_8h.html" target="_top" xlink:title=" ">
<polygon fill="white" stroke="black" points="540,-380.5 540,-399.5 590,-399.5 590,-380.5 540,-380.5"/>
<text text-anchor="middle" x="565" y="-387.5" font-family="Helvetica,sans-Serif" font-size="10.00">global.h</text>
</a>
</g>
</g>
<!-- Node2&#45;&gt;Node5 -->
<g id="edge42" class="edge">
<title>Node2&#45;&gt;Node5</title>
<path fill="none" stroke="midnightblue" d="M136.11,-665.97C109.19,-658.97 77.54,-646.39 57,-624 36.65,-601.82 38,-589.1 38,-559 38,-559 38,-559 38,-501 38,-400.28 411.52,-391.18 529.64,-390.83"/>
<polygon fill="midnightblue" stroke="midnightblue" points="529.94,-394.33 539.94,-390.82 529.93,-387.33 529.94,-394.33"/>
</g>
<!-- Node21 -->
<g id="node21" class="node">
<title>Node21</title>
<g id="a_node21"><a xlink:href="c__tag_8h.html" target="_top" xlink:title=" ">
<polygon fill="white" stroke="black" points="415.5,-604.5 415.5,-623.5 522.5,-623.5 522.5,-604.5 415.5,-604.5"/>
<text text-anchor="middle" x="469" y="-611.5" font-family="Helvetica,sans-Serif" font-size="10.00">SComponent/c_tag.h</text>
</a>
</g>
</g>
<!-- Node2&#45;&gt;Node21 -->
<g id="edge34" class="edge">
<title>Node2&#45;&gt;Node21</title>
<path fill="none" stroke="midnightblue" d="M227.4,-665.98C277.87,-655.33 364.21,-637.11 418.85,-625.58"/>
<polygon fill="midnightblue" stroke="midnightblue" points="419.61,-629 428.67,-623.51 418.16,-622.15 419.61,-629"/>
</g>
<!-- Node4 -->
<g id="node4" class="node">
<title>Node4</title>
<g id="a_node4"><a xlink:href="c__node_8h.html" target="_top" xlink:title=" ">
<polygon fill="white" stroke="black" points="331.5,-436.5 331.5,-455.5 446.5,-455.5 446.5,-436.5 331.5,-436.5"/>
<text text-anchor="middle" x="389" y="-443.5" font-family="Helvetica,sans-Serif" font-size="10.00">SComponent/c_node.h</text>
</a>
</g>
</g>
<!-- Node3&#45;&gt;Node4 -->
<g id="edge3" class="edge">
<title>Node3&#45;&gt;Node4</title>
<path fill="none" stroke="midnightblue" d="M185.84,-548.43C208.18,-535.65 251.88,-511.04 290,-492 313.12,-480.45 339.82,-468.39 359.66,-459.66"/>
<polygon fill="midnightblue" stroke="midnightblue" points="361.32,-462.76 369.08,-455.54 358.51,-456.34 361.32,-462.76"/>
</g>
<!-- Node4&#45;&gt;Node5 -->
<g id="edge4" class="edge">
<title>Node4&#45;&gt;Node5</title>
<path fill="none" stroke="midnightblue" d="M416.89,-436.44C447.54,-427.04 496.84,-411.91 530.06,-401.72"/>
<polygon fill="midnightblue" stroke="midnightblue" points="531.28,-405.01 539.81,-398.73 529.22,-398.32 531.28,-405.01"/>
</g>
<!-- Node6 -->
<g id="node6" class="node">
<title>Node6</title>
<g id="a_node6"><a xlink:href="types_8h.html" target="_top" xlink:title=" ">
<polygon fill="white" stroke="black" points="454.5,-0.5 454.5,-19.5 535.5,-19.5 535.5,-0.5 454.5,-0.5"/>
<text text-anchor="middle" x="495" y="-7.5" font-family="Helvetica,sans-Serif" font-size="10.00">dolphin/types.h</text>
</a>
</g>
</g>
<!-- Node5&#45;&gt;Node6 -->
<g id="edge5" class="edge">
<title>Node5&#45;&gt;Node6</title>
<path fill="none" stroke="midnightblue" d="M539.94,-384.92C467.84,-372.47 265,-332.24 265,-273.5 265,-273.5 265,-273.5 265,-137.5 265,-56.23 376.63,-26.8 444.35,-16.42"/>
<polygon fill="midnightblue" stroke="midnightblue" points="445.01,-19.86 454.41,-14.97 444.01,-12.93 445.01,-19.86"/>
</g>
<!-- Node7 -->
<g id="node7" class="node">
<title>Node7</title>
<g id="a_node7"><a xlink:href="AR_8h.html" target="_top" xlink:title=" ">
<polygon fill="white" stroke="black" points="323.5,-263 323.5,-282 372.5,-282 372.5,-263 323.5,-263"/>
<text text-anchor="middle" x="348" y="-270" font-family="Helvetica,sans-Serif" font-size="10.00">ar/AR.h</text>
</a>
</g>
</g>
<!-- Node5&#45;&gt;Node7 -->
<g id="edge6" class="edge">
<title>Node5&#45;&gt;Node7</title>
<path fill="none" stroke="midnightblue" d="M539.88,-387.84C504.49,-385.07 439.33,-375.7 395,-344 376.55,-330.8 363.27,-307.92 355.63,-291.81"/>
<polygon fill="midnightblue" stroke="midnightblue" points="358.69,-290.09 351.43,-282.38 352.3,-292.93 358.69,-290.09"/>
</g>
<!-- Node8 -->
<g id="node8" class="node">
<title>Node8</title>
<g id="a_node8"><a xlink:href="ARQ_8h.html" target="_top" xlink:title=" ">
<polygon fill="white" stroke="black" points="331,-129 331,-148 387,-148 387,-129 331,-129"/>
<text text-anchor="middle" x="359" y="-136" font-family="Helvetica,sans-Serif" font-size="10.00">ar/ARQ.h</text>
</a>
</g>
</g>
<!-- Node5&#45;&gt;Node8 -->
<g id="edge8" class="edge">
<title>Node5&#45;&gt;Node8</title>
<path fill="none" stroke="midnightblue" d="M557.68,-380.4C550,-371.37 537.6,-356.73 527,-344 469.23,-274.64 401.2,-191.31 372.67,-156.29"/>
<polygon fill="midnightblue" stroke="midnightblue" points="375.03,-153.65 366,-148.11 369.6,-158.07 375.03,-153.65"/>
</g>
<!-- Node9 -->
<g id="node9" class="node">
<title>Node9</title>
<g id="a_node9"><a xlink:href="mwcc_8h.html" target="_top" xlink:title=" ">
<polygon fill="white" stroke="black" points="957,-324.5 957,-343.5 1007,-343.5 1007,-324.5 957,-324.5"/>
<text text-anchor="middle" x="982" y="-331.5" font-family="Helvetica,sans-Serif" font-size="10.00">mwcc.h</text>
</a>
</g>
</g>
<!-- Node5&#45;&gt;Node9 -->
<g id="edge10" class="edge">
<title>Node5&#45;&gt;Node9</title>
<path fill="none" stroke="midnightblue" d="M590.35,-386.94C651.38,-381.77 811.16,-366.99 943,-344 944.27,-343.78 945.56,-343.54 946.86,-343.29"/>
<polygon fill="midnightblue" stroke="midnightblue" points="947.82,-346.67 956.91,-341.21 946.4,-339.81 947.82,-346.67"/>
</g>
<!-- Node10 -->
<g id="node10" class="node">
<title>Node10</title>
<g id="a_node10"><a xlink:href="OS_8h.html" target="_top" xlink:title=" ">
<polygon fill="white" stroke="black" points="405,-129 405,-148 457,-148 457,-129 405,-129"/>
<text text-anchor="middle" x="431" y="-136" font-family="Helvetica,sans-Serif" font-size="10.00">os/OS.h</text>
</a>
</g>
</g>
<!-- Node5&#45;&gt;Node10 -->
<g id="edge11" class="edge">
<title>Node5&#45;&gt;Node10</title>
<path fill="none" stroke="midnightblue" d="M560.39,-380.41C541.14,-344.57 467,-206.52 440.49,-157.17"/>
<polygon fill="midnightblue" stroke="midnightblue" points="443.41,-155.21 435.59,-148.05 437.24,-158.52 443.41,-155.21"/>
</g>
<!-- Node12 -->
<g id="node12" class="node">
<title>Node12</title>
<g id="a_node12"><a xlink:href="variables_8h.html" target="_top" xlink:title=" ">
<polygon fill="white" stroke="black" points="639.5,-324.5 639.5,-343.5 702.5,-343.5 702.5,-324.5 639.5,-324.5"/>
<text text-anchor="middle" x="671" y="-331.5" font-family="Helvetica,sans-Serif" font-size="10.00">variables.h</text>
</a>
</g>
</g>
<!-- Node5&#45;&gt;Node12 -->
<g id="edge15" class="edge">
<title>Node5&#45;&gt;Node12</title>
<path fill="none" stroke="midnightblue" d="M582.03,-380.32C599.03,-371.66 625.38,-358.24 644.99,-348.25"/>
<polygon fill="midnightblue" stroke="midnightblue" points="646.69,-351.31 654.01,-343.65 643.51,-345.08 646.69,-351.31"/>
</g>
<!-- Node7&#45;&gt;Node6 -->
<g id="edge7" class="edge">
<title>Node7&#45;&gt;Node6</title>
<path fill="none" stroke="midnightblue" d="M344.2,-262.81C330.47,-229.93 287.3,-112.11 347,-56 373.31,-31.27 412.81,-20.1 444.38,-15.08"/>
<polygon fill="midnightblue" stroke="midnightblue" points="444.93,-18.53 454.33,-13.65 443.93,-11.6 444.93,-18.53"/>
</g>
<!-- Node8&#45;&gt;Node6 -->
<g id="edge9" class="edge">
<title>Node8&#45;&gt;Node6</title>
<path fill="none" stroke="midnightblue" d="M356.15,-128.88C351.43,-112.82 343.98,-77.94 360,-56 379.22,-29.67 414.49,-18.53 444.16,-13.91"/>
<polygon fill="midnightblue" stroke="midnightblue" points="444.94,-17.34 454.39,-12.54 444.01,-10.4 444.94,-17.34"/>
</g>
<!-- Node10&#45;&gt;Node6 -->
<g id="edge12" class="edge">
<title>Node10&#45;&gt;Node6</title>
<path fill="none" stroke="midnightblue" d="M435.4,-128.81C445.77,-108.31 471.91,-56.65 485.87,-29.04"/>
<polygon fill="midnightblue" stroke="midnightblue" points="489.18,-30.26 490.57,-19.76 482.93,-27.1 489.18,-30.26"/>
</g>
<!-- Node11 -->
<g id="node11" class="node">
<title>Node11</title>
<g id="a_node11"><a xlink:href="dvd_8h.html" target="_top" xlink:title=" ">
<polygon fill="white" stroke="black" points="369.5,-62 369.5,-81 428.5,-81 428.5,-62 369.5,-62"/>
<text text-anchor="middle" x="399" y="-69" font-family="Helvetica,sans-Serif" font-size="10.00">dvd/dvd.h</text>
</a>
</g>
</g>
<!-- Node10&#45;&gt;Node11 -->
<g id="edge13" class="edge">
<title>Node10&#45;&gt;Node11</title>
<path fill="none" stroke="midnightblue" d="M426.68,-128.73C421.84,-118.89 413.85,-102.66 407.69,-90.16"/>
<polygon fill="midnightblue" stroke="midnightblue" points="410.8,-88.55 403.25,-81.13 404.52,-91.64 410.8,-88.55"/>
</g>
<!-- Node11&#45;&gt;Node6 -->
<g id="edge14" class="edge">
<title>Node11&#45;&gt;Node6</title>
<path fill="none" stroke="midnightblue" d="M412.75,-61.98C428.37,-52.3 454.06,-36.37 472.58,-24.89"/>
<polygon fill="midnightblue" stroke="midnightblue" points="474.62,-27.75 481.27,-19.51 470.93,-21.8 474.62,-27.75"/>
</g>
<!-- Node13 -->
<g id="node13" class="node">
<title>Node13</title>
<g id="a_node13"><a xlink:href="JSUList_8h.html" target="_top" xlink:title=" ">
<polygon fill="white" stroke="black" points="561,-56.5 561,-86.5 697,-86.5 697,-56.5 561,-56.5"/>
<text text-anchor="start" x="569" y="-74.5" font-family="Helvetica,sans-Serif" font-size="10.00">JSystem/JSupport/JSUList</text>
<text text-anchor="middle" x="629" y="-63.5" font-family="Helvetica,sans-Serif" font-size="10.00">/JSUList.h</text>
</a>
</g>
</g>
<!-- Node12&#45;&gt;Node13 -->
<g id="edge16" class="edge">
<title>Node12&#45;&gt;Node13</title>
<path fill="none" stroke="midnightblue" d="M662.79,-324.18C655.46,-315.66 645.24,-302.02 641,-288 619.35,-216.51 699.2,-192.95 673,-123 668.98,-112.27 661.54,-102.32 653.91,-94.14"/>
<polygon fill="midnightblue" stroke="midnightblue" points="656.18,-91.46 646.63,-86.87 651.23,-96.41 656.18,-91.46"/>
</g>
<!-- Node14 -->
<g id="node14" class="node">
<title>Node14</title>
<g id="a_node14"><a xlink:href="JUTXfb_8h.html" target="_top" xlink:title=" ">
<polygon fill="white" stroke="black" points="650.5,-257.5 650.5,-287.5 775.5,-287.5 775.5,-257.5 650.5,-257.5"/>
<text text-anchor="start" x="658.5" y="-275.5" font-family="Helvetica,sans-Serif" font-size="10.00">JSystem/JUtility/JUTXfb</text>
<text text-anchor="middle" x="713" y="-264.5" font-family="Helvetica,sans-Serif" font-size="10.00">/JUTXfb.h</text>
</a>
</g>
</g>
<!-- Node12&#45;&gt;Node14 -->
<g id="edge18" class="edge">
<title>Node12&#45;&gt;Node14</title>
<path fill="none" stroke="midnightblue" d="M677.02,-324.48C682.28,-317.02 690.16,-305.85 697.21,-295.87"/>
<polygon fill="midnightblue" stroke="midnightblue" points="700.19,-297.71 703.1,-287.52 694.48,-293.67 700.19,-297.71"/>
</g>
<!-- Node18 -->
<g id="node18" class="node">
<title>Node18</title>
<g id="a_node18"><a xlink:href="c__xyz_8h.html" target="_top" xlink:title=" ">
<polygon fill="white" stroke="black" points="793.5,-263 793.5,-282 900.5,-282 900.5,-263 793.5,-263"/>
<text text-anchor="middle" x="847" y="-270" font-family="Helvetica,sans-Serif" font-size="10.00">SComponent/c_xyz.h</text>
</a>
</g>
</g>
<!-- Node12&#45;&gt;Node18 -->
<g id="edge28" class="edge">
<title>Node12&#45;&gt;Node18</title>
<path fill="none" stroke="midnightblue" d="M696.22,-324.48C726.67,-314.18 778.05,-296.81 812.24,-285.25"/>
<polygon fill="midnightblue" stroke="midnightblue" points="813.48,-288.53 821.83,-282.01 811.24,-281.9 813.48,-288.53"/>
</g>
<!-- Node13&#45;&gt;Node6 -->
<g id="edge17" class="edge">
<title>Node13&#45;&gt;Node6</title>
<path fill="none" stroke="midnightblue" d="M597.24,-56.4C574.96,-46.51 545.41,-33.38 523.81,-23.79"/>
<polygon fill="midnightblue" stroke="midnightblue" points="525.06,-20.52 514.5,-19.66 522.22,-26.91 525.06,-20.52"/>
</g>
<!-- Node14&#45;&gt;Node6 -->
<g id="edge25" class="edge">
<title>Node14&#45;&gt;Node6</title>
<path fill="none" stroke="midnightblue" d="M726.74,-257.39C734.95,-247.93 744.6,-234.74 749,-221 771.53,-150.59 780.67,-107.87 728,-56 702.82,-31.2 606.73,-19.43 546.09,-14.36"/>
<polygon fill="midnightblue" stroke="midnightblue" points="546.19,-10.86 535.95,-13.55 545.63,-17.84 546.19,-10.86"/>
</g>
<!-- Node15 -->
<g id="node15" class="node">
<title>Node15</title>
<g id="a_node15"><a xlink:href="JKRHeap_8h.html" target="_top" xlink:title=" ">
<polygon fill="white" stroke="black" points="497,-190.5 497,-220.5 633,-220.5 633,-190.5 497,-190.5"/>
<text text-anchor="start" x="505" y="-208.5" font-family="Helvetica,sans-Serif" font-size="10.00">JSystem/JKernel/JKRHeap</text>
<text text-anchor="middle" x="565" y="-197.5" font-family="Helvetica,sans-Serif" font-size="10.00">/JKRHeap.h</text>
</a>
</g>
</g>
<!-- Node14&#45;&gt;Node15 -->
<g id="edge19" class="edge">
<title>Node14&#45;&gt;Node15</title>
<path fill="none" stroke="midnightblue" d="M680.89,-257.4C659.07,-247.81 630.01,-235.05 606.44,-224.7"/>
<polygon fill="midnightblue" stroke="midnightblue" points="607.61,-221.39 597.05,-220.58 604.8,-227.8 607.61,-221.39"/>
</g>
<!-- Node17 -->
<g id="node17" class="node">
<title>Node17</title>
<g id="a_node17"><a xlink:href="GX_8h.html" target="_top" xlink:title=" ">
<polygon fill="white" stroke="black" points="689.5,-196 689.5,-215 740.5,-215 740.5,-196 689.5,-196"/>
<text text-anchor="middle" x="715" y="-203" font-family="Helvetica,sans-Serif" font-size="10.00">gx/GX.h</text>
</a>
</g>
</g>
<!-- Node14&#45;&gt;Node17 -->
<g id="edge26" class="edge">
<title>Node14&#45;&gt;Node17</title>
<path fill="none" stroke="midnightblue" d="M713.43,-257.4C713.72,-248.06 714.1,-235.71 714.41,-225.52"/>
<polygon fill="midnightblue" stroke="midnightblue" points="717.92,-225.3 714.73,-215.19 710.93,-225.08 717.92,-225.3"/>
</g>
<!-- Node15&#45;&gt;Node5 -->
<g id="edge24" class="edge">
<title>Node15&#45;&gt;Node5</title>
<path fill="none" stroke="midnightblue" d="M565,-220.69C565,-253.21 565,-333.09 565,-369.88"/>
<polygon fill="midnightblue" stroke="midnightblue" points="561.5,-370.2 565,-380.2 568.5,-370.2 561.5,-370.2"/>
</g>
<!-- Node15&#45;&gt;Node6 -->
<g id="edge23" class="edge">
<title>Node15&#45;&gt;Node6</title>
<path fill="none" stroke="midnightblue" d="M539.56,-190.39C526.53,-181.71 511.8,-169.31 504,-154 483.46,-113.67 487.57,-58.44 491.67,-29.86"/>
<polygon fill="midnightblue" stroke="midnightblue" points="495.17,-30.1 493.29,-19.67 488.26,-28.99 495.17,-30.1"/>
</g>
<!-- Node16 -->
<g id="node16" class="node">
<title>Node16</title>
<g id="a_node16"><a xlink:href="JKRDisposer_8h.html" target="_top" xlink:title=" ">
<polygon fill="white" stroke="black" points="513.5,-123.5 513.5,-153.5 664.5,-153.5 664.5,-123.5 513.5,-123.5"/>
<text text-anchor="start" x="521.5" y="-141.5" font-family="Helvetica,sans-Serif" font-size="10.00">JSystem/JKernel/JKRDisposer</text>
<text text-anchor="middle" x="589" y="-130.5" font-family="Helvetica,sans-Serif" font-size="10.00">/JKRDisposer.h</text>
</a>
</g>
</g>
<!-- Node15&#45;&gt;Node16 -->
<g id="edge20" class="edge">
<title>Node15&#45;&gt;Node16</title>
<path fill="none" stroke="midnightblue" d="M570.21,-190.4C573.16,-182.39 576.94,-172.16 580.33,-162.98"/>
<polygon fill="midnightblue" stroke="midnightblue" points="583.62,-164.17 583.8,-153.58 577.06,-161.75 583.62,-164.17"/>
</g>
<!-- Node16&#45;&gt;Node6 -->
<g id="edge22" class="edge">
<title>Node16&#45;&gt;Node6</title>
<path fill="none" stroke="midnightblue" d="M578.58,-123.48C561.21,-100.1 526.4,-53.25 507.65,-28.02"/>
<polygon fill="midnightblue" stroke="midnightblue" points="510.3,-25.73 501.53,-19.79 504.69,-29.9 510.3,-25.73"/>
</g>
<!-- Node16&#45;&gt;Node13 -->
<g id="edge21" class="edge">
<title>Node16&#45;&gt;Node13</title>
<path fill="none" stroke="midnightblue" d="M597.68,-123.4C602.76,-115.13 609.3,-104.51 615.09,-95.1"/>
<polygon fill="midnightblue" stroke="midnightblue" points="618.08,-96.93 620.34,-86.58 612.12,-93.26 618.08,-96.93"/>
</g>
<!-- Node17&#45;&gt;Node6 -->
<g id="edge27" class="edge">
<title>Node17&#45;&gt;Node6</title>
<path fill="none" stroke="midnightblue" d="M717.66,-195.82C724.77,-170.7 741.38,-97.11 706,-56 685.53,-32.21 601.45,-20.29 545.81,-14.88"/>
<polygon fill="midnightblue" stroke="midnightblue" points="546.05,-11.39 535.77,-13.95 545.4,-18.36 546.05,-11.39"/>
</g>
<!-- Node18&#45;&gt;Node5 -->
<g id="edge31" class="edge">
<title>Node18&#45;&gt;Node5</title>
<path fill="none" stroke="midnightblue" d="M832.32,-282.23C807.83,-296.53 756.78,-325.26 711,-344 674,-359.15 629.96,-372.06 599.99,-380.11"/>
<polygon fill="midnightblue" stroke="midnightblue" points="598.78,-376.81 590.01,-382.76 600.58,-383.58 598.78,-376.81"/>
</g>
<!-- Node19 -->
<g id="node19" class="node">
<title>Node19</title>
<g id="a_node19"><a xlink:href="c__math_8h.html" target="_top" xlink:title=" ">
<polygon fill="white" stroke="black" points="869,-196 869,-215 985,-215 985,-196 869,-196"/>
<text text-anchor="middle" x="927" y="-203" font-family="Helvetica,sans-Serif" font-size="10.00">SComponent/c_math.h</text>
</a>
</g>
</g>
<!-- Node18&#45;&gt;Node19 -->
<g id="edge29" class="edge">
<title>Node18&#45;&gt;Node19</title>
<path fill="none" stroke="midnightblue" d="M857.79,-262.73C870.74,-252.21 892.69,-234.38 908.39,-221.62"/>
<polygon fill="midnightblue" stroke="midnightblue" points="910.83,-224.15 916.38,-215.13 906.41,-218.72 910.83,-224.15"/>
</g>
<!-- Node20 -->
<g id="node20" class="node">
<title>Node20</title>
<g id="a_node20"><a xlink:href="mtx__vec_8h.html" target="_top" xlink:title=" ">
<polygon fill="white" stroke="black" points="805.5,-62 805.5,-81 866.5,-81 866.5,-62 805.5,-62"/>
<text text-anchor="middle" x="836" y="-69" font-family="Helvetica,sans-Serif" font-size="10.00">mtx_vec.h</text>
</a>
</g>
</g>
<!-- Node18&#45;&gt;Node20 -->
<g id="edge32" class="edge">
<title>Node18&#45;&gt;Node20</title>
<path fill="none" stroke="midnightblue" d="M846.53,-262.95C844.88,-233.16 839.37,-133.51 837.05,-91.47"/>
<polygon fill="midnightblue" stroke="midnightblue" points="840.53,-91.03 836.48,-81.24 833.54,-91.42 840.53,-91.03"/>
</g>
<!-- Node19&#45;&gt;Node5 -->
<g id="edge30" class="edge">
<title>Node19&#45;&gt;Node5</title>
<path fill="none" stroke="midnightblue" d="M927.66,-215.34C928.38,-231.77 927.5,-267.23 909,-288 828.27,-378.63 670.95,-389.79 600.55,-389.97"/>
<polygon fill="midnightblue" stroke="midnightblue" points="600.43,-386.47 590.41,-389.92 600.4,-393.47 600.43,-386.47"/>
</g>
<!-- Node20&#45;&gt;Node6 -->
<g id="edge33" class="edge">
<title>Node20&#45;&gt;Node6</title>
<path fill="none" stroke="midnightblue" d="M806.99,-61.93C799.24,-59.82 790.84,-57.68 783,-56 700.61,-38.35 603.56,-24.62 545.78,-17.18"/>
<polygon fill="midnightblue" stroke="midnightblue" points="546.17,-13.7 535.8,-15.91 545.28,-20.65 546.17,-13.7"/>
</g>
<!-- Node21&#45;&gt;Node4 -->
<g id="edge37" class="edge">
<title>Node21&#45;&gt;Node4</title>
<path fill="none" stroke="midnightblue" d="M474.11,-604.26C485.73,-583.11 511.37,-528.29 488,-492 477.69,-475.99 460.15,-465.62 442.67,-458.92"/>
<polygon fill="midnightblue" stroke="midnightblue" points="443.6,-455.54 433.01,-455.56 441.3,-462.15 443.6,-455.54"/>
</g>
<!-- Node21&#45;&gt;Node5 -->
<g id="edge41" class="edge">
<title>Node21&#45;&gt;Node5</title>
<path fill="none" stroke="midnightblue" d="M477.98,-604.47C486.5,-595.94 499.13,-582.11 507,-568 536.88,-514.45 554.32,-443.11 561.35,-409.72"/>
<polygon fill="midnightblue" stroke="midnightblue" points="564.85,-410.08 563.41,-399.58 557.99,-408.69 564.85,-410.08"/>
</g>
<!-- Node22 -->
<g id="node22" class="node">
<title>Node22</title>
<g id="a_node22"><a xlink:href="c__list_8h.html" target="_top" xlink:title=" ">
<polygon fill="white" stroke="black" points="372.5,-492.5 372.5,-511.5 479.5,-511.5 479.5,-492.5 372.5,-492.5"/>
<text text-anchor="middle" x="426" y="-499.5" font-family="Helvetica,sans-Serif" font-size="10.00">SComponent/c_list.h</text>
</a>
</g>
</g>
<!-- Node21&#45;&gt;Node22 -->
<g id="edge35" class="edge">
<title>Node21&#45;&gt;Node22</title>
<path fill="none" stroke="midnightblue" d="M467.29,-604.37C464.64,-591.72 458.99,-567.51 451,-548 447.11,-538.49 441.67,-528.44 436.85,-520.26"/>
<polygon fill="midnightblue" stroke="midnightblue" points="439.81,-518.38 431.62,-511.66 433.83,-522.02 439.81,-518.38"/>
</g>
<!-- Node23 -->
<g id="node23" class="node">
<title>Node23</title>
<g id="a_node23"><a xlink:href="c__tree_8h.html" target="_top" xlink:title=" ">
<polygon fill="white" stroke="black" points="332,-548.5 332,-567.5 442,-567.5 442,-548.5 332,-548.5"/>
<text text-anchor="middle" x="387" y="-555.5" font-family="Helvetica,sans-Serif" font-size="10.00">SComponent/c_tree.h</text>
</a>
</g>
</g>
<!-- Node21&#45;&gt;Node23 -->
<g id="edge38" class="edge">
<title>Node21&#45;&gt;Node23</title>
<path fill="none" stroke="midnightblue" d="M455.83,-604.32C443.15,-595.98 423.77,-583.21 408.79,-573.35"/>
<polygon fill="midnightblue" stroke="midnightblue" points="410.42,-570.23 400.14,-567.65 406.57,-576.08 410.42,-570.23"/>
</g>
<!-- Node22&#45;&gt;Node4 -->
<g id="edge36" class="edge">
<title>Node22&#45;&gt;Node4</title>
<path fill="none" stroke="midnightblue" d="M419.89,-492.08C414.72,-484.53 407.15,-473.49 400.81,-464.23"/>
<polygon fill="midnightblue" stroke="midnightblue" points="403.54,-462.02 395,-455.75 397.76,-465.98 403.54,-462.02"/>
</g>
<!-- Node23&#45;&gt;Node4 -->
<g id="edge40" class="edge">
<title>Node23&#45;&gt;Node4</title>
<path fill="none" stroke="midnightblue" d="M380.13,-548.33C371.22,-536.03 357.45,-512.68 363,-492 365.65,-482.1 371.07,-472.13 376.27,-464.1"/>
<polygon fill="midnightblue" stroke="midnightblue" points="379.29,-465.89 382.11,-455.68 373.54,-461.91 379.29,-465.89"/>
</g>
<!-- Node23&#45;&gt;Node22 -->
<g id="edge39" class="edge">
<title>Node23&#45;&gt;Node22</title>
<path fill="none" stroke="midnightblue" d="M393.44,-548.08C398.95,-540.46 407.03,-529.26 413.76,-519.94"/>
<polygon fill="midnightblue" stroke="midnightblue" points="416.66,-521.91 419.68,-511.75 410.99,-517.81 416.66,-521.91"/>
</g>
<!-- Node24&#45;&gt;Node3 -->
<g id="edge44" class="edge">
<title>Node24&#45;&gt;Node3</title>
<path fill="none" stroke="midnightblue" d="M137.61,-604.08C143.26,-596.46 151.54,-585.26 158.45,-575.94"/>
<polygon fill="midnightblue" stroke="midnightblue" points="161.38,-577.87 164.52,-567.75 155.75,-573.7 161.38,-577.87"/>
</g>
<!-- Node24&#45;&gt;Node5 -->
<g id="edge46" class="edge">
<title>Node24&#45;&gt;Node5</title>
<path fill="none" stroke="midnightblue" d="M120.08,-604.26C106,-591.86 84.49,-568.41 95,-548 134.24,-471.8 172.44,-467.89 252,-436 347.18,-397.85 470.1,-391.41 529.6,-390.72"/>
<polygon fill="midnightblue" stroke="midnightblue" points="529.64,-394.22 539.62,-390.66 529.59,-387.22 529.64,-394.22"/>
</g>
<!-- Node24&#45;&gt;Node23 -->
<g id="edge45" class="edge">
<title>Node24&#45;&gt;Node23</title>
<path fill="none" stroke="midnightblue" d="M171.56,-604.44C216.32,-595 288.38,-579.8 336.7,-569.61"/>
<polygon fill="midnightblue" stroke="midnightblue" points="337.56,-573.01 346.63,-567.52 336.12,-566.16 337.56,-573.01"/>
</g>
<!-- Node25&#45;&gt;Node5 -->
<g id="edge49" class="edge">
<title>Node25&#45;&gt;Node5</title>
<path fill="none" stroke="midnightblue" d="M596.62,-798.85C659.49,-790.52 766.21,-765.55 811,-691 837.5,-646.9 824.97,-551.39 691,-436 665.25,-413.82 627.78,-402.3 600.39,-396.49"/>
<polygon fill="midnightblue" stroke="midnightblue" points="600.92,-393.03 590.44,-394.53 599.57,-399.9 600.92,-393.03"/>
</g>
<!-- Node25&#45;&gt;Node21 -->
<g id="edge48" class="edge">
<title>Node25&#45;&gt;Node21</title>
<path fill="none" stroke="midnightblue" d="M543.84,-794.43C539.51,-785.42 532.58,-770.8 527,-758 507.63,-713.55 486.66,-660.48 476.03,-633.19"/>
<polygon fill="midnightblue" stroke="midnightblue" points="479.26,-631.83 472.38,-623.77 472.73,-634.36 479.26,-631.83"/>
</g>
<!-- Node26 -->
<g id="node26" class="node">
<title>Node26</title>
<g id="a_node26"><a xlink:href="f__pc__delete__tag_8h.html" target="_top" xlink:title=" ">
<polygon fill="white" stroke="black" points="384.5,-727.5 384.5,-757.5 479.5,-757.5 479.5,-727.5 384.5,-727.5"/>
<text text-anchor="start" x="392.5" y="-745.5" font-family="Helvetica,sans-Serif" font-size="10.00">f/f_pc/f_pc_delete</text>
<text text-anchor="middle" x="432" y="-734.5" font-family="Helvetica,sans-Serif" font-size="10.00">_tag.h</text>
</a>
</g>
</g>
<!-- Node25&#45;&gt;Node26 -->
<g id="edge50" class="edge">
<title>Node25&#45;&gt;Node26</title>
<path fill="none" stroke="midnightblue" d="M531.38,-794.48C515.01,-786.08 489.46,-772.97 468.37,-762.15"/>
<polygon fill="midnightblue" stroke="midnightblue" points="469.83,-758.97 459.34,-757.52 466.64,-765.2 469.83,-758.97"/>
</g>
<!-- Node28 -->
<g id="node28" class="node">
<title>Node28</title>
<g id="a_node28"><a xlink:href="f__pc__layer__tag_8h.html" target="_top" xlink:title=" ">
<polygon fill="white" stroke="black" points="251.5,-733 251.5,-752 366.5,-752 366.5,-733 251.5,-733"/>
<text text-anchor="middle" x="309" y="-740" font-family="Helvetica,sans-Serif" font-size="10.00">f/f_pc/f_pc_layer_tag.h</text>
</a>
</g>
</g>
<!-- Node25&#45;&gt;Node28 -->
<g id="edge58" class="edge">
<title>Node25&#45;&gt;Node28</title>
<path fill="none" stroke="midnightblue" d="M513.76,-794.48C471.43,-783.94 399.32,-765.99 352.95,-754.44"/>
<polygon fill="midnightblue" stroke="midnightblue" points="353.73,-751.03 343.18,-752.01 352.04,-757.82 353.73,-751.03"/>
</g>
<!-- Node29 -->
<g id="node29" class="node">
<title>Node29</title>
<g id="a_node29"><a xlink:href="f__pc__line__tag_8h.html" target="_top" xlink:title=" ">
<polygon fill="white" stroke="black" points="692,-666 692,-685 802,-685 802,-666 692,-666"/>
<text text-anchor="middle" x="747" y="-673" font-family="Helvetica,sans-Serif" font-size="10.00">f/f_pc/f_pc_line_tag.h</text>
</a>
</g>
</g>
<!-- Node25&#45;&gt;Node29 -->
<g id="edge62" class="edge">
<title>Node25&#45;&gt;Node29</title>
<path fill="none" stroke="midnightblue" d="M572.2,-794.38C593.26,-786.39 624.22,-773.41 649,-758 680.43,-738.45 712.62,-709.66 731.16,-692.05"/>
<polygon fill="midnightblue" stroke="midnightblue" points="733.68,-694.48 738.45,-685.03 728.82,-689.44 733.68,-694.48"/>
</g>
<!-- Node30 -->
<g id="node30" class="node">
<title>Node30</title>
<g id="a_node30"><a xlink:href="f__pc__priority_8h.html" target="_top" xlink:title=" ">
<polygon fill="white" stroke="black" points="536,-733 536,-752 640,-752 640,-733 536,-733"/>
<text text-anchor="middle" x="588" y="-740" font-family="Helvetica,sans-Serif" font-size="10.00">f/f_pc/f_pc_priority.h</text>
</a>
</g>
</g>
<!-- Node25&#45;&gt;Node30 -->
<g id="edge65" class="edge">
<title>Node25&#45;&gt;Node30</title>
<path fill="none" stroke="midnightblue" d="M553.73,-794.48C559.67,-785.64 569.12,-771.59 576.59,-760.48"/>
<polygon fill="midnightblue" stroke="midnightblue" points="579.61,-762.26 582.28,-752.01 573.8,-758.36 579.61,-762.26"/>
</g>
<!-- Node32 -->
<g id="node32" class="node">
<title>Node32</title>
<g id="a_node32"><a xlink:href="f__pc__profile_8h.html" target="_top" xlink:title=" ">
<polygon fill="white" stroke="black" points="841.5,-492.5 841.5,-511.5 942.5,-511.5 942.5,-492.5 841.5,-492.5"/>
<text text-anchor="middle" x="892" y="-499.5" font-family="Helvetica,sans-Serif" font-size="10.00">f/f_pc/f_pc_profile.h</text>
</a>
</g>
</g>
<!-- Node25&#45;&gt;Node32 -->
<g id="edge70" class="edge">
<title>Node25&#45;&gt;Node32</title>
<path fill="none" stroke="midnightblue" d="M596.74,-801.68C671,-798.68 807.67,-789 844,-758 872.92,-733.32 870,-714.52 870,-676.5 870,-676.5 870,-676.5 870,-613 870,-580.33 879.45,-543.24 885.96,-521.55"/>
<polygon fill="midnightblue" stroke="midnightblue" points="889.39,-522.31 889.03,-511.72 882.71,-520.22 889.39,-522.31"/>
</g>
<!-- Node26&#45;&gt;Node5 -->
<g id="edge57" class="edge">
<title>Node26&#45;&gt;Node5</title>
<path fill="none" stroke="midnightblue" d="M448.15,-727.3C470.41,-706.79 510.11,-666.64 531,-624 564.6,-555.43 558.96,-531.94 567,-456 568.64,-440.54 567.94,-422.91 566.94,-409.92"/>
<polygon fill="midnightblue" stroke="midnightblue" points="570.41,-409.51 566.03,-399.86 563.44,-410.13 570.41,-409.51"/>
</g>
<!-- Node26&#45;&gt;Node21 -->
<g id="edge51" class="edge">
<title>Node26&#45;&gt;Node21</title>
<path fill="none" stroke="midnightblue" d="M435.57,-727.29C439.73,-710.98 446.94,-683.43 454,-660 456.68,-651.12 459.9,-641.34 462.67,-633.17"/>
<polygon fill="midnightblue" stroke="midnightblue" points="466.03,-634.17 465.97,-623.58 459.41,-631.9 466.03,-634.17"/>
</g>
<!-- Node26&#45;&gt;Node27 -->
<g id="edge52" class="edge">
<title>Node26&#45;&gt;Node27</title>
<path fill="none" stroke="midnightblue" d="M406.83,-727.4C387.02,-716.29 359.58,-700.92 340.06,-689.98"/>
<polygon fill="midnightblue" stroke="midnightblue" points="341.62,-686.84 331.18,-685.01 338.19,-692.95 341.62,-686.84"/>
</g>
<!-- Node27&#45;&gt;Node4 -->
<g id="edge53" class="edge">
<title>Node27&#45;&gt;Node4</title>
<path fill="none" stroke="midnightblue" d="M315.04,-665.95C313.01,-645.17 309.51,-590.56 323,-548 333.54,-514.75 358.29,-482.03 374.3,-463.21"/>
<polygon fill="midnightblue" stroke="midnightblue" points="377.02,-465.42 380.97,-455.59 371.75,-460.82 377.02,-465.42"/>
</g>
<!-- Node27&#45;&gt;Node5 -->
<g id="edge56" class="edge">
<title>Node27&#45;&gt;Node5</title>
<path fill="none" stroke="midnightblue" d="M309.26,-665.78C295.61,-647.24 266,-602.05 266,-559 266,-559 266,-559 266,-501 266,-462.87 288.93,-454.99 322,-436 388.2,-397.97 479.78,-391.07 529.47,-390.39"/>
<polygon fill="midnightblue" stroke="midnightblue" points="529.72,-393.89 539.7,-390.34 529.68,-386.89 529.72,-393.89"/>
</g>
<!-- Node27&#45;&gt;Node21 -->
<g id="edge54" class="edge">
<title>Node27&#45;&gt;Node21</title>
<path fill="none" stroke="midnightblue" d="M337.92,-665.98C364.05,-655.81 407.91,-638.76 437.63,-627.2"/>
<polygon fill="midnightblue" stroke="midnightblue" points="439.07,-630.4 447.12,-623.51 436.53,-623.87 439.07,-630.4"/>
</g>
<!-- Node27&#45;&gt;Node23 -->
<g id="edge55" class="edge">
<title>Node27&#45;&gt;Node23</title>
<path fill="none" stroke="midnightblue" d="M321.34,-665.82C332.95,-646.92 360.72,-601.75 376.17,-576.62"/>
<polygon fill="midnightblue" stroke="midnightblue" points="379.35,-578.13 381.6,-567.78 373.38,-574.47 379.35,-578.13"/>
</g>
<!-- Node28&#45;&gt;Node5 -->
<g id="edge61" class="edge">
<title>Node28&#45;&gt;Node5</title>
<path fill="none" stroke="midnightblue" d="M264.4,-732.93C178.83,-715.22 0,-671.45 0,-615 0,-615 0,-615 0,-501 0,-392.49 406.6,-388.92 529.95,-390.34"/>
<polygon fill="midnightblue" stroke="midnightblue" points="529.95,-393.84 539.99,-390.47 530.04,-386.84 529.95,-393.84"/>
</g>
<!-- Node28&#45;&gt;Node21 -->
<g id="edge59" class="edge">
<title>Node28&#45;&gt;Node21</title>
<path fill="none" stroke="midnightblue" d="M319.88,-732.93C332.61,-722.89 354.35,-705.74 373,-691 399.76,-669.85 430.68,-645.36 450.04,-630.03"/>
<polygon fill="midnightblue" stroke="midnightblue" points="452.4,-632.62 458.06,-623.67 448.05,-627.13 452.4,-632.62"/>
</g>
<!-- Node28&#45;&gt;Node27 -->
<g id="edge60" class="edge">
<title>Node28&#45;&gt;Node27</title>
<path fill="none" stroke="midnightblue" d="M309.94,-732.73C310.97,-723.18 312.65,-707.62 313.98,-695.28"/>
<polygon fill="midnightblue" stroke="midnightblue" points="317.48,-695.44 315.07,-685.13 310.52,-694.7 317.48,-695.44"/>
</g>
<!-- Node29&#45;&gt;Node5 -->
<g id="edge64" class="edge">
<title>Node29&#45;&gt;Node5</title>
<path fill="none" stroke="midnightblue" d="M741.38,-665.92C729.72,-647.29 704,-601.37 704,-559 704,-559 704,-559 704,-501 704,-447.98 641.04,-416.5 599.86,-401.58"/>
<polygon fill="midnightblue" stroke="midnightblue" points="600.77,-398.19 590.17,-398.23 598.48,-404.81 600.77,-398.19"/>
</g>
<!-- Node29&#45;&gt;Node21 -->
<g id="edge63" class="edge">
<title>Node29&#45;&gt;Node21</title>
<path fill="none" stroke="midnightblue" d="M709.21,-665.99C700.29,-664.01 690.81,-661.91 682,-660 626.78,-648.01 563.41,-634.67 520.24,-625.66"/>
<polygon fill="midnightblue" stroke="midnightblue" points="520.76,-622.19 510.26,-623.57 519.33,-629.04 520.76,-622.19"/>
</g>
<!-- Node30&#45;&gt;Node21 -->
<g id="edge66" class="edge">
<title>Node30&#45;&gt;Node21</title>
<path fill="none" stroke="midnightblue" d="M579.82,-732.81C560.12,-711.86 509.78,-658.35 484.29,-631.25"/>
<polygon fill="midnightblue" stroke="midnightblue" points="486.64,-628.64 477.24,-623.76 481.54,-633.44 486.64,-628.64"/>
</g>
<!-- Node31 -->
<g id="node31" class="node">
<title>Node31</title>
<g id="a_node31"><a xlink:href="f__pc__method__tag_8h.html" target="_top" xlink:title=" ">
<polygon fill="white" stroke="black" points="572.5,-660.5 572.5,-690.5 673.5,-690.5 673.5,-660.5 572.5,-660.5"/>
<text text-anchor="start" x="580.5" y="-678.5" font-family="Helvetica,sans-Serif" font-size="10.00">f/f_pc/f_pc_method</text>
<text text-anchor="middle" x="623" y="-667.5" font-family="Helvetica,sans-Serif" font-size="10.00">_tag.h</text>
</a>
</g>
</g>
<!-- Node30&#45;&gt;Node31 -->
<g id="edge67" class="edge">
<title>Node30&#45;&gt;Node31</title>
<path fill="none" stroke="midnightblue" d="M592.72,-732.73C597.27,-724.29 604.35,-711.14 610.52,-699.68"/>
<polygon fill="midnightblue" stroke="midnightblue" points="613.75,-701.05 615.41,-690.59 607.59,-697.73 613.75,-701.05"/>
</g>
<!-- Node31&#45;&gt;Node5 -->
<g id="edge69" class="edge">
<title>Node31&#45;&gt;Node5</title>
<path fill="none" stroke="midnightblue" d="M622.8,-660.28C622.51,-638.48 622,-595.5 622,-559 622,-559 622,-559 622,-501 622,-464.3 596.68,-427.66 579.79,-407.3"/>
<polygon fill="midnightblue" stroke="midnightblue" points="582.35,-404.9 573.17,-399.62 577.05,-409.48 582.35,-404.9"/>
</g>
<!-- Node31&#45;&gt;Node21 -->
<g id="edge68" class="edge">
<title>Node31&#45;&gt;Node21</title>
<path fill="none" stroke="midnightblue" d="M586.5,-660.4C560.43,-650.33 525.71,-636.91 500.78,-627.28"/>
<polygon fill="midnightblue" stroke="midnightblue" points="502,-624 491.41,-623.66 499.47,-630.53 502,-624"/>
</g>
<!-- Node32&#45;&gt;Node5 -->
<g id="edge73" class="edge">
<title>Node32&#45;&gt;Node5</title>
<path fill="none" stroke="midnightblue" d="M911.17,-492.39C935.88,-480.15 973.61,-456.88 955,-436 931.58,-409.72 692.02,-396.55 600.38,-392.45"/>
<polygon fill="midnightblue" stroke="midnightblue" points="600.36,-388.94 590.22,-392 600.06,-395.94 600.36,-388.94"/>
</g>
<!-- Node33 -->
<g id="node33" class="node">
<title>Node33</title>
<g id="a_node33"><a xlink:href="f__pc__method_8h.html" target="_top" xlink:title=" ">
<polygon fill="white" stroke="black" points="838,-436.5 838,-455.5 946,-455.5 946,-436.5 838,-436.5"/>
<text text-anchor="middle" x="892" y="-443.5" font-family="Helvetica,sans-Serif" font-size="10.00">f/f_pc/f_pc_method.h</text>
</a>
</g>
</g>
<!-- Node32&#45;&gt;Node33 -->
<g id="edge71" class="edge">
<title>Node32&#45;&gt;Node33</title>
<path fill="none" stroke="midnightblue" d="M892,-492.08C892,-485.01 892,-474.86 892,-465.99"/>
<polygon fill="midnightblue" stroke="midnightblue" points="895.5,-465.75 892,-455.75 888.5,-465.75 895.5,-465.75"/>
</g>
<!-- Node33&#45;&gt;Node5 -->
<g id="edge72" class="edge">
<title>Node33&#45;&gt;Node5</title>
<path fill="none" stroke="midnightblue" d="M840.19,-436.44C773.22,-425.38 658.37,-406.42 600.51,-396.86"/>
<polygon fill="midnightblue" stroke="midnightblue" points="600.84,-393.37 590.4,-395.19 599.69,-400.28 600.84,-393.37"/>
</g>
</g>
</svg>
