<?xml version="1.0" encoding="UTF-8" standalone="no"?>
<!DOCTYPE svg PUBLIC "-//W3C//DTD SVG 1.1//EN"
 "http://www.w3.org/Graphics/SVG/1.1/DTD/svg11.dtd">
<!-- Generated by graphviz version 2.46.0 (20210122.1329)
 -->
<!-- Title: src/f/f_pc/f_pc_creator.cpp Pages: 1 -->
<svg width="1262pt" height="878pt"
 viewBox="0.00 0.00 1262.00 878.00" xmlns="http://www.w3.org/2000/svg" xmlns:xlink="http://www.w3.org/1999/xlink">
<g id="graph0" class="graph" transform="scale(1 1) rotate(0) translate(4 874)">
<title>src/f/f_pc/f_pc_creator.cpp</title>
<polygon fill="white" stroke="transparent" points="-4,4 -4,-874 1258,-874 1258,4 -4,4"/>
<!-- Node1 -->
<g id="node1" class="node">
<title>Node1</title>
<g id="a_node1"><a xlink:title=" ">
<polygon fill="#bfbfbf" stroke="black" points="526.5,-850.5 526.5,-869.5 659.5,-869.5 659.5,-850.5 526.5,-850.5"/>
<text text-anchor="middle" x="593" y="-857.5" font-family="Helvetica,sans-Serif" font-size="10.00">src/f/f_pc/f_pc_creator.cpp</text>
</a>
</g>
</g>
<!-- Node2 -->
<g id="node2" class="node">
<title>Node2</title>
<g id="a_node2"><a xlink:href="f__pc__creator_8h.html" target="_top" xlink:title=" ">
<polygon fill="white" stroke="black" points="1148,-604.5 1148,-623.5 1254,-623.5 1254,-604.5 1148,-604.5"/>
<text text-anchor="middle" x="1201" y="-611.5" font-family="Helvetica,sans-Serif" font-size="10.00">f/f_pc/f_pc_creator.h</text>
</a>
</g>
</g>
<!-- Node1&#45;&gt;Node2 -->
<g id="edge1" class="edge">
<title>Node1&#45;&gt;Node2</title>
<path fill="none" stroke="midnightblue" d="M659.78,-851.77C779.79,-837.78 1026.11,-804.28 1098,-758 1146.54,-726.75 1179.48,-663.89 1193.45,-632.99"/>
<polygon fill="midnightblue" stroke="midnightblue" points="1196.65,-634.39 1197.45,-623.82 1190.24,-631.58 1196.65,-634.39"/>
</g>
<!-- Node4 -->
<g id="node4" class="node">
<title>Node4</title>
<g id="a_node4"><a xlink:href="types_8h.html" target="_top" xlink:title=" ">
<polygon fill="white" stroke="black" points="383.5,-0.5 383.5,-19.5 464.5,-19.5 464.5,-0.5 383.5,-0.5"/>
<text text-anchor="middle" x="424" y="-7.5" font-family="Helvetica,sans-Serif" font-size="10.00">dolphin/types.h</text>
</a>
</g>
</g>
<!-- Node1&#45;&gt;Node4 -->
<g id="edge32" class="edge">
<title>Node1&#45;&gt;Node4</title>
<path fill="none" stroke="midnightblue" d="M526.42,-859.89C371.5,-860.17 0,-849.76 0,-743.5 0,-743.5 0,-743.5 0,-137.5 0,-82.54 42.98,-78.78 93,-56 141.81,-33.77 292.85,-20.17 372.94,-14.34"/>
<polygon fill="midnightblue" stroke="midnightblue" points="373.55,-17.8 383.28,-13.6 373.06,-10.82 373.55,-17.8"/>
</g>
<!-- Node19 -->
<g id="node19" class="node">
<title>Node19</title>
<g id="a_node19"><a xlink:href="f__pc__base_8h.html" target="_top" xlink:title=" ">
<polygon fill="white" stroke="black" points="370.5,-794.5 370.5,-813.5 467.5,-813.5 467.5,-794.5 370.5,-794.5"/>
<text text-anchor="middle" x="419" y="-801.5" font-family="Helvetica,sans-Serif" font-size="10.00">f/f_pc/f_pc_base.h</text>
</a>
</g>
</g>
<!-- Node1&#45;&gt;Node19 -->
<g id="edge33" class="edge">
<title>Node1&#45;&gt;Node19</title>
<path fill="none" stroke="midnightblue" d="M565.43,-850.44C535.9,-841.28 488.88,-826.69 456.12,-816.52"/>
<polygon fill="midnightblue" stroke="midnightblue" points="457.03,-813.14 446.44,-813.52 454.96,-819.82 457.03,-813.14"/>
</g>
<!-- Node32 -->
<g id="node32" class="node">
<title>Node32</title>
<g id="a_node32"><a xlink:href="f__pc__create__req_8h.html" target="_top" xlink:title=" ">
<polygon fill="white" stroke="black" points="657.5,-727.5 657.5,-757.5 752.5,-757.5 752.5,-727.5 657.5,-727.5"/>
<text text-anchor="start" x="665.5" y="-745.5" font-family="Helvetica,sans-Serif" font-size="10.00">f/f_pc/f_pc_create</text>
<text text-anchor="middle" x="705" y="-734.5" font-family="Helvetica,sans-Serif" font-size="10.00">_req.h</text>
</a>
</g>
</g>
<!-- Node1&#45;&gt;Node32 -->
<g id="edge68" class="edge">
<title>Node1&#45;&gt;Node32</title>
<path fill="none" stroke="midnightblue" d="M601.42,-850.32C618.85,-832.35 659.32,-790.61 684.2,-764.95"/>
<polygon fill="midnightblue" stroke="midnightblue" points="686.93,-767.16 691.38,-757.55 681.91,-762.29 686.93,-767.16"/>
</g>
<!-- Node3 -->
<g id="node3" class="node">
<title>Node3</title>
<g id="a_node3"><a xlink:href="global_8h.html" target="_top" xlink:title=" ">
<polygon fill="white" stroke="black" points="522,-380.5 522,-399.5 572,-399.5 572,-380.5 522,-380.5"/>
<text text-anchor="middle" x="547" y="-387.5" font-family="Helvetica,sans-Serif" font-size="10.00">global.h</text>
</a>
</g>
</g>
<!-- Node2&#45;&gt;Node3 -->
<g id="edge2" class="edge">
<title>Node2&#45;&gt;Node3</title>
<path fill="none" stroke="midnightblue" d="M1200.75,-604.09C1199.37,-574.41 1190.55,-478.34 1134,-436 1089.82,-402.92 702.37,-393.63 582.31,-391.53"/>
<polygon fill="midnightblue" stroke="midnightblue" points="582.24,-388.03 572.19,-391.36 582.13,-395.03 582.24,-388.03"/>
</g>
<!-- Node3&#45;&gt;Node4 -->
<g id="edge3" class="edge">
<title>Node3&#45;&gt;Node4</title>
<path fill="none" stroke="midnightblue" d="M546.64,-380.43C545.26,-352.41 539.16,-261.15 516,-190 495.51,-127.04 454.95,-59.21 435.25,-28.22"/>
<polygon fill="midnightblue" stroke="midnightblue" points="438,-26.02 429.64,-19.5 432.11,-29.81 438,-26.02"/>
</g>
<!-- Node5 -->
<g id="node5" class="node">
<title>Node5</title>
<g id="a_node5"><a xlink:href="AR_8h.html" target="_top" xlink:title=" ">
<polygon fill="white" stroke="black" points="548.5,-129 548.5,-148 597.5,-148 597.5,-129 548.5,-129"/>
<text text-anchor="middle" x="573" y="-136" font-family="Helvetica,sans-Serif" font-size="10.00">ar/AR.h</text>
</a>
</g>
</g>
<!-- Node3&#45;&gt;Node5 -->
<g id="edge4" class="edge">
<title>Node3&#45;&gt;Node5</title>
<path fill="none" stroke="midnightblue" d="M547.89,-380.41C551.61,-344.8 565.84,-208.25 571.06,-158.11"/>
<polygon fill="midnightblue" stroke="midnightblue" points="574.55,-158.36 572.11,-148.05 567.59,-157.64 574.55,-158.36"/>
</g>
<!-- Node6 -->
<g id="node6" class="node">
<title>Node6</title>
<g id="a_node6"><a xlink:href="ARQ_8h.html" target="_top" xlink:title=" ">
<polygon fill="white" stroke="black" points="617,-263 617,-282 673,-282 673,-263 617,-263"/>
<text text-anchor="middle" x="645" y="-270" font-family="Helvetica,sans-Serif" font-size="10.00">ar/ARQ.h</text>
</a>
</g>
</g>
<!-- Node3&#45;&gt;Node6 -->
<g id="edge6" class="edge">
<title>Node3&#45;&gt;Node6</title>
<path fill="none" stroke="midnightblue" d="M572.27,-386.92C599.15,-383.19 640.44,-372.84 660,-344 670.72,-328.2 663.33,-306.19 655.61,-290.98"/>
<polygon fill="midnightblue" stroke="midnightblue" points="658.6,-289.15 650.68,-282.11 652.48,-292.55 658.6,-289.15"/>
</g>
<!-- Node7 -->
<g id="node7" class="node">
<title>Node7</title>
<g id="a_node7"><a xlink:href="mwcc_8h.html" target="_top" xlink:title=" ">
<polygon fill="white" stroke="black" points="601,-324.5 601,-343.5 651,-343.5 651,-324.5 601,-324.5"/>
<text text-anchor="middle" x="626" y="-331.5" font-family="Helvetica,sans-Serif" font-size="10.00">mwcc.h</text>
</a>
</g>
</g>
<!-- Node3&#45;&gt;Node7 -->
<g id="edge8" class="edge">
<title>Node3&#45;&gt;Node7</title>
<path fill="none" stroke="midnightblue" d="M559.69,-380.32C571.9,-371.98 590.58,-359.21 605,-349.35"/>
<polygon fill="midnightblue" stroke="midnightblue" points="607.06,-352.19 613.34,-343.65 603.11,-346.41 607.06,-352.19"/>
</g>
<!-- Node8 -->
<g id="node8" class="node">
<title>Node8</title>
<g id="a_node8"><a xlink:href="OS_8h.html" target="_top" xlink:title=" ">
<polygon fill="white" stroke="black" points="691,-129 691,-148 743,-148 743,-129 691,-129"/>
<text text-anchor="middle" x="717" y="-136" font-family="Helvetica,sans-Serif" font-size="10.00">os/OS.h</text>
</a>
</g>
</g>
<!-- Node3&#45;&gt;Node8 -->
<g id="edge9" class="edge">
<title>Node3&#45;&gt;Node8</title>
<path fill="none" stroke="midnightblue" d="M572.19,-387.44C601.6,-384.22 649.6,-374.32 676,-344 722.97,-290.07 721.87,-197.63 718.91,-158.21"/>
<polygon fill="midnightblue" stroke="midnightblue" points="722.39,-157.82 718.03,-148.17 715.42,-158.44 722.39,-157.82"/>
</g>
<!-- Node10 -->
<g id="node10" class="node">
<title>Node10</title>
<g id="a_node10"><a xlink:href="variables_8h.html" target="_top" xlink:title=" ">
<polygon fill="white" stroke="black" points="258.5,-324.5 258.5,-343.5 321.5,-343.5 321.5,-324.5 258.5,-324.5"/>
<text text-anchor="middle" x="290" y="-331.5" font-family="Helvetica,sans-Serif" font-size="10.00">variables.h</text>
</a>
</g>
</g>
<!-- Node3&#45;&gt;Node10 -->
<g id="edge13" class="edge">
<title>Node3&#45;&gt;Node10</title>
<path fill="none" stroke="midnightblue" d="M521.89,-383.72C477.63,-374.42 385.33,-355.03 331.49,-343.72"/>
<polygon fill="midnightblue" stroke="midnightblue" points="332.08,-340.27 321.58,-341.63 330.64,-347.12 332.08,-340.27"/>
</g>
<!-- Node5&#45;&gt;Node4 -->
<g id="edge5" class="edge">
<title>Node5&#45;&gt;Node4</title>
<path fill="none" stroke="midnightblue" d="M571.01,-128.64C566.89,-112.18 555.9,-76.67 534,-56 517.09,-40.05 493.76,-29.42 472.94,-22.52"/>
<polygon fill="midnightblue" stroke="midnightblue" points="473.86,-19.14 463.27,-19.52 471.78,-25.83 473.86,-19.14"/>
</g>
<!-- Node6&#45;&gt;Node4 -->
<g id="edge7" class="edge">
<title>Node6&#45;&gt;Node4</title>
<path fill="none" stroke="midnightblue" d="M644.54,-262.57C642.28,-228.79 629.31,-108.18 558,-56 533.41,-38.01 501.16,-26.89 474.46,-20.2"/>
<polygon fill="midnightblue" stroke="midnightblue" points="475.06,-16.75 464.53,-17.85 473.45,-23.56 475.06,-16.75"/>
</g>
<!-- Node8&#45;&gt;Node4 -->
<g id="edge10" class="edge">
<title>Node8&#45;&gt;Node4</title>
<path fill="none" stroke="midnightblue" d="M721.27,-128.64C728.51,-112.17 740.77,-76.65 723,-56 691.6,-19.52 551.77,-12.21 474.96,-11"/>
<polygon fill="midnightblue" stroke="midnightblue" points="474.6,-7.5 464.55,-10.87 474.51,-14.5 474.6,-7.5"/>
</g>
<!-- Node9 -->
<g id="node9" class="node">
<title>Node9</title>
<g id="a_node9"><a xlink:href="dvd_8h.html" target="_top" xlink:title=" ">
<polygon fill="white" stroke="black" points="654.5,-62 654.5,-81 713.5,-81 713.5,-62 654.5,-62"/>
<text text-anchor="middle" x="684" y="-69" font-family="Helvetica,sans-Serif" font-size="10.00">dvd/dvd.h</text>
</a>
</g>
</g>
<!-- Node8&#45;&gt;Node9 -->
<g id="edge11" class="edge">
<title>Node8&#45;&gt;Node9</title>
<path fill="none" stroke="midnightblue" d="M712.55,-128.73C707.55,-118.89 699.31,-102.66 692.97,-90.16"/>
<polygon fill="midnightblue" stroke="midnightblue" points="696.03,-88.46 688.38,-81.13 689.79,-91.63 696.03,-88.46"/>
</g>
<!-- Node9&#45;&gt;Node4 -->
<g id="edge12" class="edge">
<title>Node9&#45;&gt;Node4</title>
<path fill="none" stroke="midnightblue" d="M659.48,-61.88C653.17,-59.81 646.37,-57.71 640,-56 583.88,-40.96 518.43,-27.94 474.41,-19.83"/>
<polygon fill="midnightblue" stroke="midnightblue" points="474.99,-16.38 464.53,-18.03 473.74,-23.27 474.99,-16.38"/>
</g>
<!-- Node11 -->
<g id="node11" class="node">
<title>Node11</title>
<g id="a_node11"><a xlink:href="JSUList_8h.html" target="_top" xlink:title=" ">
<polygon fill="white" stroke="black" points="241,-56.5 241,-86.5 377,-86.5 377,-56.5 241,-56.5"/>
<text text-anchor="start" x="249" y="-74.5" font-family="Helvetica,sans-Serif" font-size="10.00">JSystem/JSupport/JSUList</text>
<text text-anchor="middle" x="309" y="-63.5" font-family="Helvetica,sans-Serif" font-size="10.00">/JSUList.h</text>
</a>
</g>
</g>
<!-- Node10&#45;&gt;Node11 -->
<g id="edge14" class="edge">
<title>Node10&#45;&gt;Node11</title>
<path fill="none" stroke="midnightblue" d="M283.06,-324.46C259.89,-294.85 188.87,-194.52 229,-123 236.51,-109.62 249.19,-99.27 262.28,-91.54"/>
<polygon fill="midnightblue" stroke="midnightblue" points="264.24,-94.46 271.34,-86.59 260.88,-88.31 264.24,-94.46"/>
</g>
<!-- Node12 -->
<g id="node12" class="node">
<title>Node12</title>
<g id="a_node12"><a xlink:href="JUTXfb_8h.html" target="_top" xlink:title=" ">
<polygon fill="white" stroke="black" points="55.5,-257.5 55.5,-287.5 180.5,-287.5 180.5,-257.5 55.5,-257.5"/>
<text text-anchor="start" x="63.5" y="-275.5" font-family="Helvetica,sans-Serif" font-size="10.00">JSystem/JUtility/JUTXfb</text>
<text text-anchor="middle" x="118" y="-264.5" font-family="Helvetica,sans-Serif" font-size="10.00">/JUTXfb.h</text>
</a>
</g>
</g>
<!-- Node10&#45;&gt;Node12 -->
<g id="edge16" class="edge">
<title>Node10&#45;&gt;Node12</title>
<path fill="none" stroke="midnightblue" d="M265.36,-324.48C240.1,-315.74 200.12,-301.91 168.17,-290.86"/>
<polygon fill="midnightblue" stroke="midnightblue" points="169.13,-287.48 158.54,-287.52 166.84,-294.1 169.13,-287.48"/>
</g>
<!-- Node16 -->
<g id="node16" class="node">
<title>Node16</title>
<g id="a_node16"><a xlink:href="c__xyz_8h.html" target="_top" xlink:title=" ">
<polygon fill="white" stroke="black" points="280.5,-263 280.5,-282 387.5,-282 387.5,-263 280.5,-263"/>
<text text-anchor="middle" x="334" y="-270" font-family="Helvetica,sans-Serif" font-size="10.00">SComponent/c_xyz.h</text>
</a>
</g>
</g>
<!-- Node10&#45;&gt;Node16 -->
<g id="edge26" class="edge">
<title>Node10&#45;&gt;Node16</title>
<path fill="none" stroke="midnightblue" d="M296.3,-324.48C302.9,-315.55 313.44,-301.31 321.69,-290.14"/>
<polygon fill="midnightblue" stroke="midnightblue" points="324.58,-292.13 327.71,-282.01 318.95,-287.97 324.58,-292.13"/>
</g>
<!-- Node11&#45;&gt;Node4 -->
<g id="edge15" class="edge">
<title>Node11&#45;&gt;Node4</title>
<path fill="none" stroke="midnightblue" d="M336.25,-56.4C355.03,-46.68 379.83,-33.86 398.27,-24.31"/>
<polygon fill="midnightblue" stroke="midnightblue" points="399.99,-27.36 407.27,-19.66 396.78,-21.14 399.99,-27.36"/>
</g>
<!-- Node12&#45;&gt;Node4 -->
<g id="edge23" class="edge">
<title>Node12&#45;&gt;Node4</title>
<path fill="none" stroke="midnightblue" d="M118.23,-257.42C119.22,-214.18 124.57,-84.53 153,-56 183.1,-25.79 303.38,-15.83 373.16,-12.57"/>
<polygon fill="midnightblue" stroke="midnightblue" points="373.66,-16.05 383.49,-12.12 373.35,-9.06 373.66,-16.05"/>
</g>
<!-- Node13 -->
<g id="node13" class="node">
<title>Node13</title>
<g id="a_node13"><a xlink:href="JKRHeap_8h.html" target="_top" xlink:title=" ">
<polygon fill="white" stroke="black" points="237,-190.5 237,-220.5 373,-220.5 373,-190.5 237,-190.5"/>
<text text-anchor="start" x="245" y="-208.5" font-family="Helvetica,sans-Serif" font-size="10.00">JSystem/JKernel/JKRHeap</text>
<text text-anchor="middle" x="305" y="-197.5" font-family="Helvetica,sans-Serif" font-size="10.00">/JKRHeap.h</text>
</a>
</g>
</g>
<!-- Node12&#45;&gt;Node13 -->
<g id="edge17" class="edge">
<title>Node12&#45;&gt;Node13</title>
<path fill="none" stroke="midnightblue" d="M158.58,-257.4C186.88,-247.56 224.83,-234.37 255,-223.88"/>
<polygon fill="midnightblue" stroke="midnightblue" points="256.21,-227.17 264.5,-220.58 253.91,-220.55 256.21,-227.17"/>
</g>
<!-- Node15 -->
<g id="node15" class="node">
<title>Node15</title>
<g id="a_node15"><a xlink:href="GX_8h.html" target="_top" xlink:title=" ">
<polygon fill="white" stroke="black" points="53.5,-196 53.5,-215 104.5,-215 104.5,-196 53.5,-196"/>
<text text-anchor="middle" x="79" y="-203" font-family="Helvetica,sans-Serif" font-size="10.00">gx/GX.h</text>
</a>
</g>
</g>
<!-- Node12&#45;&gt;Node15 -->
<g id="edge24" class="edge">
<title>Node12&#45;&gt;Node15</title>
<path fill="none" stroke="midnightblue" d="M109.54,-257.4C103.64,-247.56 95.73,-234.38 89.44,-223.89"/>
<polygon fill="midnightblue" stroke="midnightblue" points="92.36,-221.97 84.22,-215.19 86.36,-225.57 92.36,-221.97"/>
</g>
<!-- Node13&#45;&gt;Node3 -->
<g id="edge22" class="edge">
<title>Node13&#45;&gt;Node3</title>
<path fill="none" stroke="midnightblue" d="M334.57,-220.63C353.11,-229.99 377.16,-243.08 397,-257 449.76,-294.02 504.94,-346.82 531.24,-373.01"/>
<polygon fill="midnightblue" stroke="midnightblue" points="528.9,-375.62 538.44,-380.23 533.86,-370.68 528.9,-375.62"/>
</g>
<!-- Node13&#45;&gt;Node4 -->
<g id="edge21" class="edge">
<title>Node13&#45;&gt;Node4</title>
<path fill="none" stroke="midnightblue" d="M348.72,-190.36C366.62,-182.42 385.93,-170.67 398,-154 425.17,-116.47 426.74,-59.2 425.46,-29.83"/>
<polygon fill="midnightblue" stroke="midnightblue" points="428.94,-29.48 424.85,-19.71 421.95,-29.91 428.94,-29.48"/>
</g>
<!-- Node14 -->
<g id="node14" class="node">
<title>Node14</title>
<g id="a_node14"><a xlink:href="JKRDisposer_8h.html" target="_top" xlink:title=" ">
<polygon fill="white" stroke="black" points="237.5,-123.5 237.5,-153.5 388.5,-153.5 388.5,-123.5 237.5,-123.5"/>
<text text-anchor="start" x="245.5" y="-141.5" font-family="Helvetica,sans-Serif" font-size="10.00">JSystem/JKernel/JKRDisposer</text>
<text text-anchor="middle" x="313" y="-130.5" font-family="Helvetica,sans-Serif" font-size="10.00">/JKRDisposer.h</text>
</a>
</g>
</g>
<!-- Node13&#45;&gt;Node14 -->
<g id="edge18" class="edge">
<title>Node13&#45;&gt;Node14</title>
<path fill="none" stroke="midnightblue" d="M306.74,-190.4C307.7,-182.56 308.93,-172.6 310.04,-163.57"/>
<polygon fill="midnightblue" stroke="midnightblue" points="313.52,-163.93 311.27,-153.58 306.57,-163.07 313.52,-163.93"/>
</g>
<!-- Node14&#45;&gt;Node4 -->
<g id="edge20" class="edge">
<title>Node14&#45;&gt;Node4</title>
<path fill="none" stroke="midnightblue" d="M339.8,-123.42C354.82,-114.52 373.07,-101.9 386,-87 400.91,-69.82 411.65,-45.75 417.83,-29.34"/>
<polygon fill="midnightblue" stroke="midnightblue" points="421.16,-30.4 421.23,-19.8 414.57,-28.05 421.16,-30.4"/>
</g>
<!-- Node14&#45;&gt;Node11 -->
<g id="edge19" class="edge">
<title>Node14&#45;&gt;Node11</title>
<path fill="none" stroke="midnightblue" d="M312.13,-123.4C311.65,-115.56 311.04,-105.6 310.48,-96.57"/>
<polygon fill="midnightblue" stroke="midnightblue" points="313.97,-96.34 309.87,-86.58 306.99,-96.77 313.97,-96.34"/>
</g>
<!-- Node15&#45;&gt;Node4 -->
<g id="edge25" class="edge">
<title>Node15&#45;&gt;Node4</title>
<path fill="none" stroke="midnightblue" d="M78.37,-195.82C77.03,-170.05 76.91,-93.45 119,-56 155.62,-23.42 295.93,-14.43 372.84,-11.94"/>
<polygon fill="midnightblue" stroke="midnightblue" points="373.36,-15.43 383.25,-11.64 373.15,-8.43 373.36,-15.43"/>
</g>
<!-- Node16&#45;&gt;Node3 -->
<g id="edge29" class="edge">
<title>Node16&#45;&gt;Node3</title>
<path fill="none" stroke="midnightblue" d="M343.14,-282.42C358.51,-297.01 390.98,-326.13 423,-344 451.42,-359.86 486.51,-371.98 512.1,-379.63"/>
<polygon fill="midnightblue" stroke="midnightblue" points="511.17,-383 521.75,-382.43 513.12,-376.28 511.17,-383"/>
</g>
<!-- Node17 -->
<g id="node17" class="node">
<title>Node17</title>
<g id="a_node17"><a xlink:href="c__math_8h.html" target="_top" xlink:title=" ">
<polygon fill="white" stroke="black" points="391,-196 391,-215 507,-215 507,-196 391,-196"/>
<text text-anchor="middle" x="449" y="-203" font-family="Helvetica,sans-Serif" font-size="10.00">SComponent/c_math.h</text>
</a>
</g>
</g>
<!-- Node16&#45;&gt;Node17 -->
<g id="edge27" class="edge">
<title>Node16&#45;&gt;Node17</title>
<path fill="none" stroke="midnightblue" d="M349.51,-262.73C368.91,-251.77 402.33,-232.88 425.03,-220.05"/>
<polygon fill="midnightblue" stroke="midnightblue" points="426.75,-223.09 433.74,-215.13 423.31,-217 426.75,-223.09"/>
</g>
<!-- Node18 -->
<g id="node18" class="node">
<title>Node18</title>
<g id="a_node18"><a xlink:href="mtx__vec_8h.html" target="_top" xlink:title=" ">
<polygon fill="white" stroke="black" points="161.5,-62 161.5,-81 222.5,-81 222.5,-62 161.5,-62"/>
<text text-anchor="middle" x="192" y="-69" font-family="Helvetica,sans-Serif" font-size="10.00">mtx_vec.h</text>
</a>
</g>
</g>
<!-- Node16&#45;&gt;Node18 -->
<g id="edge30" class="edge">
<title>Node16&#45;&gt;Node18</title>
<path fill="none" stroke="midnightblue" d="M297.99,-262.96C274.72,-255.62 245.6,-242.68 228,-221 197.01,-182.83 192.02,-122.1 191.63,-91.48"/>
<polygon fill="midnightblue" stroke="midnightblue" points="195.13,-91.34 191.66,-81.33 188.13,-91.32 195.13,-91.34"/>
</g>
<!-- Node17&#45;&gt;Node3 -->
<g id="edge28" class="edge">
<title>Node17&#45;&gt;Node3</title>
<path fill="none" stroke="midnightblue" d="M453.42,-215.25C464.51,-237.12 494.49,-295.84 521,-344 526.07,-353.2 531.9,-363.34 536.76,-371.67"/>
<polygon fill="midnightblue" stroke="midnightblue" points="533.83,-373.58 541.91,-380.43 539.86,-370.04 533.83,-373.58"/>
</g>
<!-- Node18&#45;&gt;Node4 -->
<g id="edge31" class="edge">
<title>Node18&#45;&gt;Node4</title>
<path fill="none" stroke="midnightblue" d="M214.27,-61.9C220,-59.83 226.19,-57.73 232,-56 279.3,-41.94 334.19,-29.45 373.14,-21.21"/>
<polygon fill="midnightblue" stroke="midnightblue" points="374.11,-24.59 383.18,-19.11 372.68,-17.74 374.11,-24.59"/>
</g>
<!-- Node19&#45;&gt;Node3 -->
<g id="edge43" class="edge">
<title>Node19&#45;&gt;Node3</title>
<path fill="none" stroke="midnightblue" d="M370.36,-797.24C267.65,-783.73 38,-745.76 38,-676.5 38,-676.5 38,-676.5 38,-501 38,-456.89 72.52,-453.53 113,-436 184.55,-405.01 421.65,-394.76 511.8,-391.94"/>
<polygon fill="midnightblue" stroke="midnightblue" points="511.9,-395.44 521.79,-391.64 511.69,-388.44 511.9,-395.44"/>
</g>
<!-- Node20 -->
<g id="node20" class="node">
<title>Node20</title>
<g id="a_node20"><a xlink:href="c__tag_8h.html" target="_top" xlink:title=" ">
<polygon fill="white" stroke="black" points="430.5,-604.5 430.5,-623.5 537.5,-623.5 537.5,-604.5 430.5,-604.5"/>
<text text-anchor="middle" x="484" y="-611.5" font-family="Helvetica,sans-Serif" font-size="10.00">SComponent/c_tag.h</text>
</a>
</g>
</g>
<!-- Node19&#45;&gt;Node20 -->
<g id="edge34" class="edge">
<title>Node19&#45;&gt;Node20</title>
<path fill="none" stroke="midnightblue" d="M426.75,-794.34C434.06,-785.72 444.79,-771.81 451,-758 469.91,-715.93 478.58,-661.84 482.03,-633.77"/>
<polygon fill="midnightblue" stroke="midnightblue" points="485.52,-634.09 483.18,-623.76 478.57,-633.29 485.52,-634.09"/>
</g>
<!-- Node24 -->
<g id="node24" class="node">
<title>Node24</title>
<g id="a_node24"><a xlink:href="f__pc__delete__tag_8h.html" target="_top" xlink:title=" ">
<polygon fill="white" stroke="black" points="346.5,-727.5 346.5,-757.5 441.5,-757.5 441.5,-727.5 346.5,-727.5"/>
<text text-anchor="start" x="354.5" y="-745.5" font-family="Helvetica,sans-Serif" font-size="10.00">f/f_pc/f_pc_delete</text>
<text text-anchor="middle" x="394" y="-734.5" font-family="Helvetica,sans-Serif" font-size="10.00">_tag.h</text>
</a>
</g>
</g>
<!-- Node19&#45;&gt;Node24 -->
<g id="edge44" class="edge">
<title>Node19&#45;&gt;Node24</title>
<path fill="none" stroke="midnightblue" d="M415.42,-794.48C412.38,-787.25 407.88,-776.53 403.78,-766.78"/>
<polygon fill="midnightblue" stroke="midnightblue" points="406.99,-765.39 399.89,-757.52 400.54,-768.1 406.99,-765.39"/>
</g>
<!-- Node26 -->
<g id="node26" class="node">
<title>Node26</title>
<g id="a_node26"><a xlink:href="f__pc__layer__tag_8h.html" target="_top" xlink:title=" ">
<polygon fill="white" stroke="black" points="213.5,-733 213.5,-752 328.5,-752 328.5,-733 213.5,-733"/>
<text text-anchor="middle" x="271" y="-740" font-family="Helvetica,sans-Serif" font-size="10.00">f/f_pc/f_pc_layer_tag.h</text>
</a>
</g>
</g>
<!-- Node19&#45;&gt;Node26 -->
<g id="edge52" class="edge">
<title>Node19&#45;&gt;Node26</title>
<path fill="none" stroke="midnightblue" d="M397.8,-794.48C372.63,-784.36 330.46,-767.4 301.72,-755.85"/>
<polygon fill="midnightblue" stroke="midnightblue" points="302.75,-752.49 292.17,-752.01 300.14,-758.99 302.75,-752.49"/>
</g>
<!-- Node27 -->
<g id="node27" class="node">
<title>Node27</title>
<g id="a_node27"><a xlink:href="f__pc__line__tag_8h.html" target="_top" xlink:title=" ">
<polygon fill="white" stroke="black" points="104,-666 104,-685 214,-685 214,-666 104,-666"/>
<text text-anchor="middle" x="159" y="-673" font-family="Helvetica,sans-Serif" font-size="10.00">f/f_pc/f_pc_line_tag.h</text>
</a>
</g>
</g>
<!-- Node19&#45;&gt;Node27 -->
<g id="edge56" class="edge">
<title>Node19&#45;&gt;Node27</title>
<path fill="none" stroke="midnightblue" d="M370.13,-797.45C315.35,-790.41 230.81,-776.9 205,-758 183.64,-742.36 170.84,-713.61 164.35,-694.78"/>
<polygon fill="midnightblue" stroke="midnightblue" points="167.68,-693.71 161.31,-685.25 161.01,-695.84 167.68,-693.71"/>
</g>
<!-- Node28 -->
<g id="node28" class="node">
<title>Node28</title>
<g id="a_node28"><a xlink:href="f__pc__priority_8h.html" target="_top" xlink:title=" ">
<polygon fill="white" stroke="black" points="498,-733 498,-752 602,-752 602,-733 498,-733"/>
<text text-anchor="middle" x="550" y="-740" font-family="Helvetica,sans-Serif" font-size="10.00">f/f_pc/f_pc_priority.h</text>
</a>
</g>
</g>
<!-- Node19&#45;&gt;Node28 -->
<g id="edge59" class="edge">
<title>Node19&#45;&gt;Node28</title>
<path fill="none" stroke="midnightblue" d="M437.77,-794.48C459.85,-784.45 496.72,-767.7 522.14,-756.15"/>
<polygon fill="midnightblue" stroke="midnightblue" points="523.61,-759.33 531.27,-752.01 520.71,-752.96 523.61,-759.33"/>
</g>
<!-- Node30 -->
<g id="node30" class="node">
<title>Node30</title>
<g id="a_node30"><a xlink:href="f__pc__profile_8h.html" target="_top" xlink:title=" ">
<polygon fill="white" stroke="black" points="987.5,-733 987.5,-752 1088.5,-752 1088.5,-733 987.5,-733"/>
<text text-anchor="middle" x="1038" y="-740" font-family="Helvetica,sans-Serif" font-size="10.00">f/f_pc/f_pc_profile.h</text>
</a>
</g>
</g>
<!-- Node19&#45;&gt;Node30 -->
<g id="edge64" class="edge">
<title>Node19&#45;&gt;Node30</title>
<path fill="none" stroke="midnightblue" d="M467.57,-798.33C579.29,-787.59 854.29,-761.16 977.08,-749.36"/>
<polygon fill="midnightblue" stroke="midnightblue" points="977.45,-752.84 987.07,-748.4 976.78,-745.87 977.45,-752.84"/>
</g>
<!-- Node20&#45;&gt;Node3 -->
<g id="edge42" class="edge">
<title>Node20&#45;&gt;Node3</title>
<path fill="none" stroke="midnightblue" d="M493.32,-604.31C501.74,-595.88 513.73,-582.29 520,-568 543.66,-514.01 547.08,-442.88 547.27,-409.63"/>
<polygon fill="midnightblue" stroke="midnightblue" points="550.77,-409.53 547.23,-399.54 543.77,-409.55 550.77,-409.53"/>
</g>
<!-- Node21 -->
<g id="node21" class="node">
<title>Node21</title>
<g id="a_node21"><a xlink:href="c__list_8h.html" target="_top" xlink:title=" ">
<polygon fill="white" stroke="black" points="386.5,-492.5 386.5,-511.5 493.5,-511.5 493.5,-492.5 386.5,-492.5"/>
<text text-anchor="middle" x="440" y="-499.5" font-family="Helvetica,sans-Serif" font-size="10.00">SComponent/c_list.h</text>
</a>
</g>
</g>
<!-- Node20&#45;&gt;Node21 -->
<g id="edge35" class="edge">
<title>Node20&#45;&gt;Node21</title>
<path fill="none" stroke="midnightblue" d="M482.13,-604.38C479.24,-591.73 473.16,-567.53 465,-548 461.04,-538.52 455.59,-528.47 450.79,-520.29"/>
<polygon fill="midnightblue" stroke="midnightblue" points="453.75,-518.42 445.58,-511.67 447.76,-522.04 453.75,-518.42"/>
</g>
<!-- Node22 -->
<g id="node22" class="node">
<title>Node22</title>
<g id="a_node22"><a xlink:href="c__node_8h.html" target="_top" xlink:title=" ">
<polygon fill="white" stroke="black" points="382.5,-436.5 382.5,-455.5 497.5,-455.5 497.5,-436.5 382.5,-436.5"/>
<text text-anchor="middle" x="440" y="-443.5" font-family="Helvetica,sans-Serif" font-size="10.00">SComponent/c_node.h</text>
</a>
</g>
</g>
<!-- Node20&#45;&gt;Node22 -->
<g id="edge38" class="edge">
<title>Node20&#45;&gt;Node22</title>
<path fill="none" stroke="midnightblue" d="M488.8,-604.22C499.46,-583.45 522.65,-530.19 503,-492 495.92,-478.25 482.48,-467.77 469.82,-460.39"/>
<polygon fill="midnightblue" stroke="midnightblue" points="471.31,-457.22 460.85,-455.57 468,-463.39 471.31,-457.22"/>
</g>
<!-- Node23 -->
<g id="node23" class="node">
<title>Node23</title>
<g id="a_node23"><a xlink:href="c__tree_8h.html" target="_top" xlink:title=" ">
<polygon fill="white" stroke="black" points="346,-548.5 346,-567.5 456,-567.5 456,-548.5 346,-548.5"/>
<text text-anchor="middle" x="401" y="-555.5" font-family="Helvetica,sans-Serif" font-size="10.00">SComponent/c_tree.h</text>
</a>
</g>
</g>
<!-- Node20&#45;&gt;Node23 -->
<g id="edge39" class="edge">
<title>Node20&#45;&gt;Node23</title>
<path fill="none" stroke="midnightblue" d="M470.66,-604.32C457.84,-595.98 438.22,-583.21 423.06,-573.35"/>
<polygon fill="midnightblue" stroke="midnightblue" points="424.59,-570.17 414.3,-567.65 420.78,-576.04 424.59,-570.17"/>
</g>
<!-- Node21&#45;&gt;Node22 -->
<g id="edge36" class="edge">
<title>Node21&#45;&gt;Node22</title>
<path fill="none" stroke="midnightblue" d="M440,-492.08C440,-485.01 440,-474.86 440,-465.99"/>
<polygon fill="midnightblue" stroke="midnightblue" points="443.5,-465.75 440,-455.75 436.5,-465.75 443.5,-465.75"/>
</g>
<!-- Node22&#45;&gt;Node3 -->
<g id="edge37" class="edge">
<title>Node22&#45;&gt;Node3</title>
<path fill="none" stroke="midnightblue" d="M457.19,-436.32C474.35,-427.66 500.95,-414.24 520.75,-404.25"/>
<polygon fill="midnightblue" stroke="midnightblue" points="522.5,-407.28 529.85,-399.65 519.35,-401.04 522.5,-407.28"/>
</g>
<!-- Node23&#45;&gt;Node21 -->
<g id="edge40" class="edge">
<title>Node23&#45;&gt;Node21</title>
<path fill="none" stroke="midnightblue" d="M407.44,-548.08C412.95,-540.46 421.03,-529.26 427.76,-519.94"/>
<polygon fill="midnightblue" stroke="midnightblue" points="430.66,-521.91 433.68,-511.75 424.99,-517.81 430.66,-521.91"/>
</g>
<!-- Node23&#45;&gt;Node22 -->
<g id="edge41" class="edge">
<title>Node23&#45;&gt;Node22</title>
<path fill="none" stroke="midnightblue" d="M393.53,-548.29C383.56,-535.53 368.21,-511.2 378,-492 385,-478.27 398.37,-467.75 410.9,-460.35"/>
<polygon fill="midnightblue" stroke="midnightblue" points="412.67,-463.37 419.78,-455.51 409.32,-457.22 412.67,-463.37"/>
</g>
<!-- Node24&#45;&gt;Node3 -->
<g id="edge51" class="edge">
<title>Node24&#45;&gt;Node3</title>
<path fill="none" stroke="midnightblue" d="M346.34,-728.49C313.14,-718.51 272.77,-704.25 261,-691 237.87,-664.97 242,-649.82 242,-615 242,-615 242,-615 242,-501 242,-465.09 259.46,-454.89 290,-436 326.6,-413.36 450.45,-399.54 511.87,-393.92"/>
<polygon fill="midnightblue" stroke="midnightblue" points="512.22,-397.4 521.87,-393.02 511.6,-390.43 512.22,-397.4"/>
</g>
<!-- Node24&#45;&gt;Node20 -->
<g id="edge45" class="edge">
<title>Node24&#45;&gt;Node20</title>
<path fill="none" stroke="midnightblue" d="M403.98,-727.48C420.61,-704.1 453.94,-657.25 471.89,-632.02"/>
<polygon fill="midnightblue" stroke="midnightblue" points="474.8,-633.97 477.75,-623.79 469.1,-629.91 474.8,-633.97"/>
</g>
<!-- Node25 -->
<g id="node25" class="node">
<title>Node25</title>
<g id="a_node25"><a xlink:href="f__pc__layer_8h.html" target="_top" xlink:title=" ">
<polygon fill="white" stroke="black" points="270,-666 270,-685 366,-685 366,-666 270,-666"/>
<text text-anchor="middle" x="318" y="-673" font-family="Helvetica,sans-Serif" font-size="10.00">f/f_pc/f_pc_layer.h</text>
</a>
</g>
</g>
<!-- Node24&#45;&gt;Node25 -->
<g id="edge46" class="edge">
<title>Node24&#45;&gt;Node25</title>
<path fill="none" stroke="midnightblue" d="M377.51,-727.4C365.31,-716.96 348.69,-702.75 336.12,-692"/>
<polygon fill="midnightblue" stroke="midnightblue" points="338.04,-689.03 328.17,-685.19 333.49,-694.35 338.04,-689.03"/>
</g>
<!-- Node25&#45;&gt;Node3 -->
<g id="edge50" class="edge">
<title>Node25&#45;&gt;Node3</title>
<path fill="none" stroke="midnightblue" d="M313.03,-665.84C302.73,-647.03 280,-600.8 280,-559 280,-559 280,-559 280,-501 280,-401.85 439.36,-390.24 511.85,-390.1"/>
<polygon fill="midnightblue" stroke="midnightblue" points="511.86,-393.6 521.88,-390.15 511.9,-386.6 511.86,-393.6"/>
</g>
<!-- Node25&#45;&gt;Node20 -->
<g id="edge48" class="edge">
<title>Node25&#45;&gt;Node20</title>
<path fill="none" stroke="midnightblue" d="M341.78,-665.98C370.38,-655.72 418.55,-638.46 450.8,-626.9"/>
<polygon fill="midnightblue" stroke="midnightblue" points="452.03,-630.18 460.26,-623.51 449.67,-623.59 452.03,-630.18"/>
</g>
<!-- Node25&#45;&gt;Node22 -->
<g id="edge47" class="edge">
<title>Node25&#45;&gt;Node22</title>
<path fill="none" stroke="midnightblue" d="M317.8,-665.88C317.59,-637.08 320.9,-543.05 370,-492 382.29,-479.23 398.88,-468.36 412.82,-460.51"/>
<polygon fill="midnightblue" stroke="midnightblue" points="414.83,-463.4 421.96,-455.57 411.5,-457.24 414.83,-463.4"/>
</g>
<!-- Node25&#45;&gt;Node23 -->
<g id="edge49" class="edge">
<title>Node25&#45;&gt;Node23</title>
<path fill="none" stroke="midnightblue" d="M324.24,-665.82C337.94,-646.76 370.86,-600.95 388.81,-575.96"/>
<polygon fill="midnightblue" stroke="midnightblue" points="391.7,-577.95 394.69,-567.78 386.01,-573.86 391.7,-577.95"/>
</g>
<!-- Node26&#45;&gt;Node3 -->
<g id="edge55" class="edge">
<title>Node26&#45;&gt;Node3</title>
<path fill="none" stroke="midnightblue" d="M213.14,-739.36C174.6,-734.85 125.59,-722.66 95,-691 70.81,-665.96 76,-649.82 76,-615 76,-615 76,-615 76,-501 76,-411.61 401.79,-394.82 511.46,-391.7"/>
<polygon fill="midnightblue" stroke="midnightblue" points="511.77,-395.2 521.68,-391.43 511.59,-388.2 511.77,-395.2"/>
</g>
<!-- Node26&#45;&gt;Node20 -->
<g id="edge53" class="edge">
<title>Node26&#45;&gt;Node20</title>
<path fill="none" stroke="midnightblue" d="M291.03,-732.9C312.33,-723.5 346.78,-707.55 375,-691 407.73,-671.8 443.41,-645.89 464.73,-629.83"/>
<polygon fill="midnightblue" stroke="midnightblue" points="467.09,-632.43 472.93,-623.59 462.85,-626.86 467.09,-632.43"/>
</g>
<!-- Node26&#45;&gt;Node25 -->
<g id="edge54" class="edge">
<title>Node26&#45;&gt;Node25</title>
<path fill="none" stroke="midnightblue" d="M277.34,-732.73C284.6,-722.7 296.66,-706.01 305.76,-693.42"/>
<polygon fill="midnightblue" stroke="midnightblue" points="308.74,-695.28 311.76,-685.13 303.07,-691.18 308.74,-695.28"/>
</g>
<!-- Node27&#45;&gt;Node3 -->
<g id="edge58" class="edge">
<title>Node27&#45;&gt;Node3</title>
<path fill="none" stroke="midnightblue" d="M161.79,-665.91C167.71,-646.88 181,-599.62 181,-559 181,-559 181,-559 181,-501 181,-465.35 197.47,-454.4 228,-436 275.25,-407.52 439.15,-396.21 511.83,-392.52"/>
<polygon fill="midnightblue" stroke="midnightblue" points="512.04,-396.01 521.86,-392.03 511.7,-389.02 512.04,-396.01"/>
</g>
<!-- Node27&#45;&gt;Node20 -->
<g id="edge57" class="edge">
<title>Node27&#45;&gt;Node20</title>
<path fill="none" stroke="midnightblue" d="M205.56,-665.98C264.09,-655.26 364.48,-636.88 427.38,-625.37"/>
<polygon fill="midnightblue" stroke="midnightblue" points="428.32,-628.75 437.52,-623.51 427.05,-621.87 428.32,-628.75"/>
</g>
<!-- Node28&#45;&gt;Node20 -->
<g id="edge60" class="edge">
<title>Node28&#45;&gt;Node20</title>
<path fill="none" stroke="midnightblue" d="M545.46,-732.81C534.73,-712.22 507.58,-660.19 493.22,-632.68"/>
<polygon fill="midnightblue" stroke="midnightblue" points="496.3,-631 488.57,-623.76 490.09,-634.24 496.3,-631"/>
</g>
<!-- Node29 -->
<g id="node29" class="node">
<title>Node29</title>
<g id="a_node29"><a xlink:href="f__pc__method__tag_8h.html" target="_top" xlink:title=" ">
<polygon fill="white" stroke="black" points="536.5,-660.5 536.5,-690.5 637.5,-690.5 637.5,-660.5 536.5,-660.5"/>
<text text-anchor="start" x="544.5" y="-678.5" font-family="Helvetica,sans-Serif" font-size="10.00">f/f_pc/f_pc_method</text>
<text text-anchor="middle" x="587" y="-667.5" font-family="Helvetica,sans-Serif" font-size="10.00">_tag.h</text>
</a>
</g>
</g>
<!-- Node28&#45;&gt;Node29 -->
<g id="edge61" class="edge">
<title>Node28&#45;&gt;Node29</title>
<path fill="none" stroke="midnightblue" d="M554.99,-732.73C559.85,-724.2 567.43,-710.87 574,-699.33"/>
<polygon fill="midnightblue" stroke="midnightblue" points="577.07,-701.01 578.98,-690.59 570.99,-697.55 577.07,-701.01"/>
</g>
<!-- Node29&#45;&gt;Node3 -->
<g id="edge63" class="edge">
<title>Node29&#45;&gt;Node3</title>
<path fill="none" stroke="midnightblue" d="M589.23,-660.32C592.44,-638.57 598,-595.66 598,-559 598,-559 598,-559 598,-501 598,-465.24 575.55,-428.51 560.44,-407.84"/>
<polygon fill="midnightblue" stroke="midnightblue" points="563.14,-405.61 554.31,-399.77 557.57,-409.85 563.14,-405.61"/>
</g>
<!-- Node29&#45;&gt;Node20 -->
<g id="edge62" class="edge">
<title>Node29&#45;&gt;Node20</title>
<path fill="none" stroke="midnightblue" d="M562.59,-660.4C546.08,-650.86 524.38,-638.32 507.96,-628.84"/>
<polygon fill="midnightblue" stroke="midnightblue" points="509.4,-625.63 498.99,-623.66 505.9,-631.69 509.4,-625.63"/>
</g>
<!-- Node30&#45;&gt;Node3 -->
<g id="edge67" class="edge">
<title>Node30&#45;&gt;Node3</title>
<path fill="none" stroke="midnightblue" d="M1053.65,-733C1068.12,-724.32 1089.12,-709.53 1101,-691 1119.79,-661.69 1120,-649.82 1120,-615 1120,-615 1120,-615 1120,-501 1120,-439.56 1056.79,-453.83 998,-436 920.23,-412.41 674.31,-397.59 582.25,-392.75"/>
<polygon fill="midnightblue" stroke="midnightblue" points="582.23,-389.24 572.06,-392.22 581.86,-396.23 582.23,-389.24"/>
</g>
<!-- Node31 -->
<g id="node31" class="node">
<title>Node31</title>
<g id="a_node31"><a xlink:href="f__pc__method_8h.html" target="_top" xlink:title=" ">
<polygon fill="white" stroke="black" points="984,-666 984,-685 1092,-685 1092,-666 984,-666"/>
<text text-anchor="middle" x="1038" y="-673" font-family="Helvetica,sans-Serif" font-size="10.00">f/f_pc/f_pc_method.h</text>
</a>
</g>
</g>
<!-- Node30&#45;&gt;Node31 -->
<g id="edge65" class="edge">
<title>Node30&#45;&gt;Node31</title>
<path fill="none" stroke="midnightblue" d="M1038,-732.73C1038,-723.18 1038,-707.62 1038,-695.28"/>
<polygon fill="midnightblue" stroke="midnightblue" points="1041.5,-695.13 1038,-685.13 1034.5,-695.13 1041.5,-695.13"/>
</g>
<!-- Node31&#45;&gt;Node3 -->
<g id="edge66" class="edge">
<title>Node31&#45;&gt;Node3</title>
<path fill="none" stroke="midnightblue" d="M1035.21,-665.91C1029.29,-646.88 1016,-599.62 1016,-559 1016,-559 1016,-559 1016,-501 1016,-465.61 1000.53,-453.91 970,-436 904.58,-397.63 671.83,-391.86 582.38,-391.08"/>
<polygon fill="midnightblue" stroke="midnightblue" points="582.22,-387.58 572.2,-391.01 582.17,-394.58 582.22,-387.58"/>
</g>
<!-- Node32&#45;&gt;Node3 -->
<g id="edge77" class="edge">
<title>Node32&#45;&gt;Node3</title>
<path fill="none" stroke="midnightblue" d="M752.72,-737.02C812.77,-730.41 911.18,-716.04 937,-691 961.99,-666.76 956,-649.82 956,-615 956,-615 956,-615 956,-501 956,-423.94 681.79,-399.32 582.42,-392.94"/>
<polygon fill="midnightblue" stroke="midnightblue" points="582.47,-389.43 572.28,-392.31 582.04,-396.42 582.47,-389.43"/>
</g>
<!-- Node32&#45;&gt;Node20 -->
<g id="edge70" class="edge">
<title>Node32&#45;&gt;Node20</title>
<path fill="none" stroke="midnightblue" d="M698.73,-727.42C689.86,-709.12 671.9,-677.43 647,-660 617.92,-639.64 579.95,-628.47 547.97,-622.36"/>
<polygon fill="midnightblue" stroke="midnightblue" points="548.28,-618.86 537.82,-620.55 547.05,-625.75 548.28,-618.86"/>
</g>
<!-- Node32&#45;&gt;Node25 -->
<g id="edge74" class="edge">
<title>Node32&#45;&gt;Node25</title>
<path fill="none" stroke="midnightblue" d="M657.16,-733.46C586.03,-721.52 452.58,-699.1 376,-686.24"/>
<polygon fill="midnightblue" stroke="midnightblue" points="376.48,-682.77 366.04,-684.57 375.32,-689.68 376.48,-682.77"/>
</g>
<!-- Node32&#45;&gt;Node29 -->
<g id="edge76" class="edge">
<title>Node32&#45;&gt;Node29</title>
<path fill="none" stroke="midnightblue" d="M679.4,-727.4C662.46,-718.07 640.06,-705.73 621.55,-695.53"/>
<polygon fill="midnightblue" stroke="midnightblue" points="623,-692.34 612.55,-690.58 619.62,-698.47 623,-692.34"/>
</g>
<!-- Node32&#45;&gt;Node31 -->
<g id="edge75" class="edge">
<title>Node32&#45;&gt;Node31</title>
<path fill="none" stroke="midnightblue" d="M752.93,-732.69C806.06,-722.85 894.25,-706.29 970,-691 976.13,-689.76 982.57,-688.43 988.94,-687.09"/>
<polygon fill="midnightblue" stroke="midnightblue" points="989.78,-690.5 998.84,-685 988.33,-683.65 989.78,-690.5"/>
</g>
<!-- Node33 -->
<g id="node33" class="node">
<title>Node33</title>
<g id="a_node33"><a xlink:href="c__phase_8h.html" target="_top" xlink:title=" ">
<polygon fill="white" stroke="black" points="808,-666 808,-685 928,-685 928,-666 808,-666"/>
<text text-anchor="middle" x="868" y="-673" font-family="Helvetica,sans-Serif" font-size="10.00">SComponent/c_phase.h</text>
</a>
</g>
</g>
<!-- Node32&#45;&gt;Node33 -->
<g id="edge69" class="edge">
<title>Node32&#45;&gt;Node33</title>
<path fill="none" stroke="midnightblue" d="M740.37,-727.4C769.22,-715.89 809.58,-699.8 837.14,-688.81"/>
<polygon fill="midnightblue" stroke="midnightblue" points="838.67,-691.96 846.67,-685.01 836.08,-685.46 838.67,-691.96"/>
</g>
<!-- Node34 -->
<g id="node34" class="node">
<title>Node34</title>
<g id="a_node34"><a xlink:href="f__pc__create__tag_8h.html" target="_top" xlink:title=" ">
<polygon fill="white" stroke="black" points="694.5,-660.5 694.5,-690.5 789.5,-690.5 789.5,-660.5 694.5,-660.5"/>
<text text-anchor="start" x="702.5" y="-678.5" font-family="Helvetica,sans-Serif" font-size="10.00">f/f_pc/f_pc_create</text>
<text text-anchor="middle" x="742" y="-667.5" font-family="Helvetica,sans-Serif" font-size="10.00">_tag.h</text>
</a>
</g>
</g>
<!-- Node32&#45;&gt;Node34 -->
<g id="edge71" class="edge">
<title>Node32&#45;&gt;Node34</title>
<path fill="none" stroke="midnightblue" d="M713.03,-727.4C717.68,-719.22 723.66,-708.73 728.97,-699.39"/>
<polygon fill="midnightblue" stroke="midnightblue" points="732.08,-701 733.99,-690.58 726,-697.54 732.08,-701"/>
</g>
<!-- Node34&#45;&gt;Node3 -->
<g id="edge73" class="edge">
<title>Node34&#45;&gt;Node3</title>
<path fill="none" stroke="midnightblue" d="M730.5,-660.16C714.91,-639.23 689,-598.49 689,-559 689,-559 689,-559 689,-501 689,-446.87 623.71,-415.57 581.68,-401.03"/>
<polygon fill="midnightblue" stroke="midnightblue" points="582.65,-397.67 572.06,-397.85 580.46,-404.31 582.65,-397.67"/>
</g>
<!-- Node34&#45;&gt;Node20 -->
<g id="edge72" class="edge">
<title>Node34&#45;&gt;Node20</title>
<path fill="none" stroke="midnightblue" d="M694.28,-663.32C689.45,-662.19 684.63,-661.07 680,-660 629.31,-648.25 571.22,-634.93 531.52,-625.85"/>
<polygon fill="midnightblue" stroke="midnightblue" points="532.11,-622.4 521.58,-623.58 530.55,-629.22 532.11,-622.4"/>
</g>
</g>
</svg>
