<?xml version="1.0" encoding="UTF-8" standalone="no"?>
<!DOCTYPE svg PUBLIC "-//W3C//DTD SVG 1.1//EN"
 "http://www.w3.org/Graphics/SVG/1.1/DTD/svg11.dtd">
<!-- Generated by graphviz version 2.46.0 (20210122.1329)
 -->
<!-- Title: src/f/f_pc/f_pc_load.cpp Pages: 1 -->
<!--zoomable 520 -->
<svg id="main" version="1.1" xmlns="http://www.w3.org/2000/svg" xmlns:xlink="http://www.w3.org/1999/xlink" xml:space="preserve" onload="init(evt)">
<style type="text/css"><![CDATA[
.edge:hover path { stroke: red; }
.edge:hover polygon { stroke: red; fill: red; }
]]></style>
<script type="text/javascript"><![CDATA[
var edges = document.getElementsByTagName('g');
if (edges && edges.length) {
  for (var i=0;i<edges.length;i++) {
    if (edges[i].id.substr(0,4)=='edge') {
      edges[i].setAttribute('class','edge');
    }
  }
}
]]></script>
        <defs>
                <circle id="rim" cx="0" cy="0" r="7"/>
                <circle id="rim2" cx="0" cy="0" r="3.5"/>
                <g id="zoomPlus">
                        <use xlink:href="#rim" fill="#404040">
                                <set attributeName="fill" to="#808080" begin="zoomplus.mouseover" end="zoomplus.mouseout"/>
                        </use>
                        <path d="M-4,0h8M0,-4v8" fill="none" stroke="white" stroke-width="1.5" pointer-events="none"/>
                </g>
                <g id="zoomMin">
                        <use xlink:href="#rim" fill="#404040">
                                <set attributeName="fill" to="#808080" begin="zoomminus.mouseover" end="zoomminus.mouseout"/>
                        </use>
                        <path d="M-4,0h8" fill="none" stroke="white" stroke-width="1.5" pointer-events="none"/>
                </g>
                <g id="dirArrow">
                        <path fill="none" stroke="white" stroke-width="1.5" d="M0,-3.0v7 M-2.5,-0.5L0,-3.0L2.5,-0.5"/>
                </g>
               <g id="resetDef">
                       <use xlink:href="#rim2" fill="#404040">
                               <set attributeName="fill" to="#808080" begin="reset.mouseover" end="reset.mouseout"/>
                       </use>
               </g>
        </defs>

<script type="text/javascript">
var viewWidth = 831;
var viewHeight = 520;
var sectionId = 'dynsection-0';
</script>
<script xlink:href="svgpan.js"/>
<svg id="graph" class="graph">
<g id="viewport">
<title>src/f/f_pc/f_pc_load.cpp</title>
<polygon fill="white" stroke="transparent" points="-4,4 -4,-516 827.12,-516 827.12,4 -4,4"/>
<!-- Node1 -->
<g id="node1" class="node">
<title>Node1</title>
<g id="a_node1"><a xlink:title=" ">
<polygon fill="#bfbfbf" stroke="black" points="245.62,-492.5 245.62,-511.5 366.62,-511.5 366.62,-492.5 245.62,-492.5"/>
<text text-anchor="middle" x="306.12" y="-499.5" font-family="Helvetica,sans-Serif" font-size="10.00">src/f/f_pc/f_pc_load.cpp</text>
</a>
</g>
</g>
<!-- Node2 -->
<g id="node2" class="node">
<title>Node2</title>
<g id="a_node2"><a xlink:href="f__pc__load_8h.html" target="_top" xlink:title=" ">
<polygon fill="white" stroke="black" points="259.12,-436.5 259.12,-455.5 353.12,-455.5 353.12,-436.5 259.12,-436.5"/>
<text text-anchor="middle" x="306.12" y="-443.5" font-family="Helvetica,sans-Serif" font-size="10.00">f/f_pc/f_pc_load.h</text>
</a>
</g>
</g>
<!-- Node1&#45;&gt;Node2 -->
<g id="edge1" class="edge">
<title>Node1&#45;&gt;Node2</title>
<path fill="none" stroke="midnightblue" d="M306.12,-492.08C306.12,-485.01 306.12,-474.86 306.12,-465.99"/>
<polygon fill="midnightblue" stroke="midnightblue" points="309.62,-465.75 306.12,-455.75 302.62,-465.75 309.62,-465.75"/>
</g>
<!-- Node4 -->
<g id="node4" class="node">
<title>Node4</title>
<g id="a_node4"><a xlink:href="types_8h.html" target="_top" xlink:title=" ">
<polygon fill="white" stroke="black" points="305.62,-0.5 305.62,-19.5 386.62,-19.5 386.62,-0.5 305.62,-0.5"/>
<text text-anchor="middle" x="346.12" y="-7.5" font-family="Helvetica,sans-Serif" font-size="10.00">dolphin/types.h</text>
</a>
</g>
</g>
<!-- Node1&#45;&gt;Node4 -->
<g id="edge33" class="edge">
<title>Node1&#45;&gt;Node4</title>
<path fill="none" stroke="midnightblue" d="M250.01,-492.47C162.17,-477.52 2.12,-443.13 2.12,-391 2.12,-391 2.12,-391 2.12,-137.5 2.12,-100.31 -6.36,-81.07 21.12,-56 60.26,-20.28 214.16,-12.71 295.34,-11.24"/>
<polygon fill="midnightblue" stroke="midnightblue" points="295.4,-14.74 305.35,-11.09 295.29,-7.74 295.4,-14.74"/>
</g>
<!-- Node19 -->
<g id="node19" class="node">
<title>Node19</title>
<g id="a_node19"><a xlink:href="c__phase_8h.html" target="_top" xlink:title=" ">
<polygon fill="white" stroke="black" points="371.12,-436.5 371.12,-455.5 491.12,-455.5 491.12,-436.5 371.12,-436.5"/>
<text text-anchor="middle" x="431.12" y="-443.5" font-family="Helvetica,sans-Serif" font-size="10.00">SComponent/c_phase.h</text>
</a>
</g>
</g>
<!-- Node1&#45;&gt;Node19 -->
<g id="edge32" class="edge">
<title>Node1&#45;&gt;Node19</title>
<path fill="none" stroke="midnightblue" d="M325.93,-492.44C346.41,-483.6 378.6,-469.69 401.98,-459.59"/>
<polygon fill="midnightblue" stroke="midnightblue" points="403.61,-462.7 411.4,-455.52 400.84,-456.27 403.61,-462.7"/>
</g>
<!-- Node3 -->
<g id="node3" class="node">
<title>Node3</title>
<g id="a_node3"><a xlink:href="global_8h.html" target="_top" xlink:title=" ">
<polygon fill="white" stroke="black" points="542.12,-380.5 542.12,-399.5 592.12,-399.5 592.12,-380.5 542.12,-380.5"/>
<text text-anchor="middle" x="567.12" y="-387.5" font-family="Helvetica,sans-Serif" font-size="10.00">global.h</text>
</a>
</g>
</g>
<!-- Node2&#45;&gt;Node3 -->
<g id="edge2" class="edge">
<title>Node2&#45;&gt;Node3</title>
<path fill="none" stroke="midnightblue" d="M347.47,-436.44C398.5,-425.89 484.34,-408.13 532.2,-398.22"/>
<polygon fill="midnightblue" stroke="midnightblue" points="533.01,-401.63 542.1,-396.18 531.59,-394.78 533.01,-401.63"/>
</g>
<!-- Node3&#45;&gt;Node4 -->
<g id="edge3" class="edge">
<title>Node3&#45;&gt;Node4</title>
<path fill="none" stroke="midnightblue" d="M592.25,-384.84C616.41,-379.53 652.25,-367.98 673.12,-344 694.43,-319.52 692.12,-305.95 692.12,-273.5 692.12,-273.5 692.12,-273.5 692.12,-137.5 692.12,-75.4 493.06,-34.73 396.91,-18.71"/>
<polygon fill="midnightblue" stroke="midnightblue" points="397.26,-15.22 386.83,-17.05 396.13,-22.12 397.26,-15.22"/>
</g>
<!-- Node5 -->
<g id="node5" class="node">
<title>Node5</title>
<g id="a_node5"><a xlink:href="AR_8h.html" target="_top" xlink:title=" ">
<polygon fill="white" stroke="black" points="720.62,-263 720.62,-282 769.62,-282 769.62,-263 720.62,-263"/>
<text text-anchor="middle" x="745.12" y="-270" font-family="Helvetica,sans-Serif" font-size="10.00">ar/AR.h</text>
</a>
</g>
</g>
<!-- Node3&#45;&gt;Node5 -->
<g id="edge4" class="edge">
<title>Node3&#45;&gt;Node5</title>
<path fill="none" stroke="midnightblue" d="M592.37,-386.46C622.47,-382.27 672.84,-371.42 706.12,-344 722.61,-330.41 733.3,-307.94 739.25,-292.02"/>
<polygon fill="midnightblue" stroke="midnightblue" points="742.67,-292.83 742.62,-282.24 736.05,-290.55 742.67,-292.83"/>
</g>
<!-- Node6 -->
<g id="node6" class="node">
<title>Node6</title>
<g id="a_node6"><a xlink:href="ARQ_8h.html" target="_top" xlink:title=" ">
<polygon fill="white" stroke="black" points="767.12,-129 767.12,-148 823.12,-148 823.12,-129 767.12,-129"/>
<text text-anchor="middle" x="795.12" y="-136" font-family="Helvetica,sans-Serif" font-size="10.00">ar/ARQ.h</text>
</a>
</g>
</g>
<!-- Node3&#45;&gt;Node6 -->
<g id="edge6" class="edge">
<title>Node3&#45;&gt;Node6</title>
<path fill="none" stroke="midnightblue" d="M592.29,-386.34C625.52,-381.89 684.88,-370.65 728.12,-344 756.78,-326.34 765.3,-318.7 779.12,-288 798.58,-244.77 798.4,-187.56 796.71,-158.37"/>
<polygon fill="midnightblue" stroke="midnightblue" points="800.18,-157.74 795.98,-148.02 793.2,-158.24 800.18,-157.74"/>
</g>
<!-- Node7 -->
<g id="node7" class="node">
<title>Node7</title>
<g id="a_node7"><a xlink:href="mwcc_8h.html" target="_top" xlink:title=" ">
<polygon fill="white" stroke="black" points="614.12,-324.5 614.12,-343.5 664.12,-343.5 664.12,-324.5 614.12,-324.5"/>
<text text-anchor="middle" x="639.12" y="-331.5" font-family="Helvetica,sans-Serif" font-size="10.00">mwcc.h</text>
</a>
</g>
</g>
<!-- Node3&#45;&gt;Node7 -->
<g id="edge8" class="edge">
<title>Node3&#45;&gt;Node7</title>
<path fill="none" stroke="midnightblue" d="M578.69,-380.32C589.54,-372.18 606,-359.84 619,-350.09"/>
<polygon fill="midnightblue" stroke="midnightblue" points="621.44,-352.63 627.34,-343.83 617.24,-347.03 621.44,-352.63"/>
</g>
<!-- Node8 -->
<g id="node8" class="node">
<title>Node8</title>
<g id="a_node8"><a xlink:href="OS_8h.html" target="_top" xlink:title=" ">
<polygon fill="white" stroke="black" points="76.12,-129 76.12,-148 128.12,-148 128.12,-129 76.12,-129"/>
<text text-anchor="middle" x="102.12" y="-136" font-family="Helvetica,sans-Serif" font-size="10.00">os/OS.h</text>
</a>
</g>
</g>
<!-- Node3&#45;&gt;Node8 -->
<g id="edge9" class="edge">
<title>Node3&#45;&gt;Node8</title>
<path fill="none" stroke="midnightblue" d="M541.99,-387.76C499.14,-384.84 409.98,-375.2 342.12,-344 241.11,-297.55 149.31,-196.09 115.69,-156.14"/>
<polygon fill="midnightblue" stroke="midnightblue" points="118.33,-153.84 109.25,-148.38 112.94,-158.31 118.33,-153.84"/>
</g>
<!-- Node10 -->
<g id="node10" class="node">
<title>Node10</title>
<g id="a_node10"><a xlink:href="variables_8h.html" target="_top" xlink:title=" ">
<polygon fill="white" stroke="black" points="413.62,-324.5 413.62,-343.5 476.62,-343.5 476.62,-324.5 413.62,-324.5"/>
<text text-anchor="middle" x="445.12" y="-331.5" font-family="Helvetica,sans-Serif" font-size="10.00">variables.h</text>
</a>
</g>
</g>
<!-- Node3&#45;&gt;Node10 -->
<g id="edge13" class="edge">
<title>Node3&#45;&gt;Node10</title>
<path fill="none" stroke="midnightblue" d="M547.79,-380.44C527.8,-371.6 496.38,-357.69 473.55,-347.59"/>
<polygon fill="midnightblue" stroke="midnightblue" points="474.92,-344.36 464.36,-343.52 472.09,-350.76 474.92,-344.36"/>
</g>
<!-- Node5&#45;&gt;Node4 -->
<g id="edge5" class="edge">
<title>Node5&#45;&gt;Node4</title>
<path fill="none" stroke="midnightblue" d="M746.7,-262.88C752.14,-230.26 766.58,-113.25 706.12,-56 662.67,-14.87 485.45,-10 396.93,-10.23"/>
<polygon fill="midnightblue" stroke="midnightblue" points="396.83,-6.73 386.85,-10.28 396.86,-13.73 396.83,-6.73"/>
</g>
<!-- Node6&#45;&gt;Node4 -->
<g id="edge7" class="edge">
<title>Node6&#45;&gt;Node4</title>
<path fill="none" stroke="midnightblue" d="M792.82,-128.79C787.77,-111.59 773.99,-73.42 747.12,-56 690.46,-19.27 491.75,-12.34 397.05,-11.16"/>
<polygon fill="midnightblue" stroke="midnightblue" points="396.89,-7.66 386.85,-11.05 396.81,-14.66 396.89,-7.66"/>
</g>
<!-- Node8&#45;&gt;Node4 -->
<g id="edge10" class="edge">
<title>Node8&#45;&gt;Node4</title>
<path fill="none" stroke="midnightblue" d="M103.79,-128.8C107.5,-111.95 118.07,-74.89 142.12,-56 165.52,-37.62 242.71,-24.32 295.14,-17.13"/>
<polygon fill="midnightblue" stroke="midnightblue" points="295.82,-20.57 305.27,-15.78 294.89,-13.63 295.82,-20.57"/>
</g>
<!-- Node9 -->
<g id="node9" class="node">
<title>Node9</title>
<g id="a_node9"><a xlink:href="dvd_8h.html" target="_top" xlink:title=" ">
<polygon fill="white" stroke="black" points="30.62,-62 30.62,-81 89.62,-81 89.62,-62 30.62,-62"/>
<text text-anchor="middle" x="60.12" y="-69" font-family="Helvetica,sans-Serif" font-size="10.00">dvd/dvd.h</text>
</a>
</g>
</g>
<!-- Node8&#45;&gt;Node9 -->
<g id="edge11" class="edge">
<title>Node8&#45;&gt;Node9</title>
<path fill="none" stroke="midnightblue" d="M96.45,-128.73C90.03,-118.79 79.4,-102.34 71.29,-89.79"/>
<polygon fill="midnightblue" stroke="midnightblue" points="74.06,-87.63 65.69,-81.13 68.18,-91.43 74.06,-87.63"/>
</g>
<!-- Node9&#45;&gt;Node4 -->
<g id="edge12" class="edge">
<title>Node9&#45;&gt;Node4</title>
<path fill="none" stroke="midnightblue" d="M84.15,-61.93C90.59,-59.82 97.57,-57.68 104.12,-56 169.43,-39.25 246.16,-26.05 295.42,-18.39"/>
<polygon fill="midnightblue" stroke="midnightblue" points="296.15,-21.82 305.51,-16.84 295.09,-14.9 296.15,-21.82"/>
</g>
<!-- Node11 -->
<g id="node11" class="node">
<title>Node11</title>
<g id="a_node11"><a xlink:href="JSUList_8h.html" target="_top" xlink:title=" ">
<polygon fill="white" stroke="black" points="222.12,-56.5 222.12,-86.5 358.12,-86.5 358.12,-56.5 222.12,-56.5"/>
<text text-anchor="start" x="230.12" y="-74.5" font-family="Helvetica,sans-Serif" font-size="10.00">JSystem/JSupport/JSUList</text>
<text text-anchor="middle" x="290.12" y="-63.5" font-family="Helvetica,sans-Serif" font-size="10.00">/JSUList.h</text>
</a>
</g>
</g>
<!-- Node10&#45;&gt;Node11 -->
<g id="edge14" class="edge">
<title>Node10&#45;&gt;Node11</title>
<path fill="none" stroke="midnightblue" d="M413.53,-329.69C387.36,-325.09 351.72,-314.13 334.12,-288 326.42,-276.57 333.17,-270.74 334.12,-257 338.24,-197.39 369.16,-177.71 345.12,-123 339.94,-111.22 330.52,-100.99 320.92,-92.87"/>
<polygon fill="midnightblue" stroke="midnightblue" points="322.92,-90 312.9,-86.56 318.59,-95.5 322.92,-90"/>
</g>
<!-- Node12 -->
<g id="node12" class="node">
<title>Node12</title>
<g id="a_node12"><a xlink:href="JUTXfb_8h.html" target="_top" xlink:title=" ">
<polygon fill="white" stroke="black" points="342.62,-257.5 342.62,-287.5 467.62,-287.5 467.62,-257.5 342.62,-257.5"/>
<text text-anchor="start" x="350.62" y="-275.5" font-family="Helvetica,sans-Serif" font-size="10.00">JSystem/JUtility/JUTXfb</text>
<text text-anchor="middle" x="405.12" y="-264.5" font-family="Helvetica,sans-Serif" font-size="10.00">/JUTXfb.h</text>
</a>
</g>
</g>
<!-- Node10&#45;&gt;Node12 -->
<g id="edge16" class="edge">
<title>Node10&#45;&gt;Node12</title>
<path fill="none" stroke="midnightblue" d="M439.39,-324.48C434.38,-317.02 426.87,-305.85 420.16,-295.87"/>
<polygon fill="midnightblue" stroke="midnightblue" points="423.03,-293.87 414.55,-287.52 417.22,-297.77 423.03,-293.87"/>
</g>
<!-- Node16 -->
<g id="node16" class="node">
<title>Node16</title>
<g id="a_node16"><a xlink:href="c__xyz_8h.html" target="_top" xlink:title=" ">
<polygon fill="white" stroke="black" points="485.62,-263 485.62,-282 592.62,-282 592.62,-263 485.62,-263"/>
<text text-anchor="middle" x="539.12" y="-270" font-family="Helvetica,sans-Serif" font-size="10.00">SComponent/c_xyz.h</text>
</a>
</g>
</g>
<!-- Node10&#45;&gt;Node16 -->
<g id="edge26" class="edge">
<title>Node10&#45;&gt;Node16</title>
<path fill="none" stroke="midnightblue" d="M458.59,-324.48C473.8,-314.84 498.81,-299.02 516.92,-287.55"/>
<polygon fill="midnightblue" stroke="midnightblue" points="519.1,-290.31 525.68,-282.01 515.35,-284.4 519.1,-290.31"/>
</g>
<!-- Node11&#45;&gt;Node4 -->
<g id="edge15" class="edge">
<title>Node11&#45;&gt;Node4</title>
<path fill="none" stroke="midnightblue" d="M303.39,-56.4C311.7,-47.58 322.42,-36.18 331.04,-27.02"/>
<polygon fill="midnightblue" stroke="midnightblue" points="333.67,-29.34 337.97,-19.66 328.57,-24.54 333.67,-29.34"/>
</g>
<!-- Node12&#45;&gt;Node4 -->
<g id="edge23" class="edge">
<title>Node12&#45;&gt;Node4</title>
<path fill="none" stroke="midnightblue" d="M413.15,-257.36C432.68,-220.91 478.13,-122.03 437.12,-56 427.4,-40.36 410.46,-29.98 393.8,-23.19"/>
<polygon fill="midnightblue" stroke="midnightblue" points="394.68,-19.78 384.09,-19.59 392.25,-26.35 394.68,-19.78"/>
</g>
<!-- Node13 -->
<g id="node13" class="node">
<title>Node13</title>
<g id="a_node13"><a xlink:href="JKRHeap_8h.html" target="_top" xlink:title=" ">
<polygon fill="white" stroke="black" points="194.12,-190.5 194.12,-220.5 330.12,-220.5 330.12,-190.5 194.12,-190.5"/>
<text text-anchor="start" x="202.12" y="-208.5" font-family="Helvetica,sans-Serif" font-size="10.00">JSystem/JKernel/JKRHeap</text>
<text text-anchor="middle" x="262.12" y="-197.5" font-family="Helvetica,sans-Serif" font-size="10.00">/JKRHeap.h</text>
</a>
</g>
</g>
<!-- Node12&#45;&gt;Node13 -->
<g id="edge17" class="edge">
<title>Node12&#45;&gt;Node13</title>
<path fill="none" stroke="midnightblue" d="M374.09,-257.4C353.1,-247.86 325.18,-235.16 302.47,-224.84"/>
<polygon fill="midnightblue" stroke="midnightblue" points="303.64,-221.53 293.09,-220.58 300.74,-227.9 303.64,-221.53"/>
</g>
<!-- Node15 -->
<g id="node15" class="node">
<title>Node15</title>
<g id="a_node15"><a xlink:href="GX_8h.html" target="_top" xlink:title=" ">
<polygon fill="white" stroke="black" points="376.62,-62 376.62,-81 427.62,-81 427.62,-62 376.62,-62"/>
<text text-anchor="middle" x="402.12" y="-69" font-family="Helvetica,sans-Serif" font-size="10.00">gx/GX.h</text>
</a>
</g>
</g>
<!-- Node12&#45;&gt;Node15 -->
<g id="edge24" class="edge">
<title>Node12&#45;&gt;Node15</title>
<path fill="none" stroke="midnightblue" d="M404.9,-257.19C404.37,-221.99 403,-131.17 402.41,-91.51"/>
<polygon fill="midnightblue" stroke="midnightblue" points="405.9,-91.31 402.25,-81.36 398.9,-91.41 405.9,-91.31"/>
</g>
<!-- Node13&#45;&gt;Node3 -->
<g id="edge22" class="edge">
<title>Node13&#45;&gt;Node3</title>
<path fill="none" stroke="midnightblue" d="M265.74,-220.77C270.84,-238.42 281.65,-268.51 300.12,-288 363.34,-354.71 475.09,-377.77 531.87,-385.42"/>
<polygon fill="midnightblue" stroke="midnightblue" points="531.45,-388.89 541.81,-386.67 532.33,-381.95 531.45,-388.89"/>
</g>
<!-- Node13&#45;&gt;Node4 -->
<g id="edge21" class="edge">
<title>Node13&#45;&gt;Node4</title>
<path fill="none" stroke="midnightblue" d="M219.31,-190.42C202.43,-182.52 184.79,-170.8 175.12,-154 168.24,-142.06 172.32,-136.49 175.12,-123 181.7,-91.23 180.04,-77.75 204.12,-56 229.18,-33.36 265.63,-22.11 295.32,-16.52"/>
<polygon fill="midnightblue" stroke="midnightblue" points="296.25,-19.91 305.52,-14.77 295.07,-13.01 296.25,-19.91"/>
</g>
<!-- Node14 -->
<g id="node14" class="node">
<title>Node14</title>
<g id="a_node14"><a xlink:href="JKRDisposer_8h.html" target="_top" xlink:title=" ">
<polygon fill="white" stroke="black" points="184.62,-123.5 184.62,-153.5 335.62,-153.5 335.62,-123.5 184.62,-123.5"/>
<text text-anchor="start" x="192.62" y="-141.5" font-family="Helvetica,sans-Serif" font-size="10.00">JSystem/JKernel/JKRDisposer</text>
<text text-anchor="middle" x="260.12" y="-130.5" font-family="Helvetica,sans-Serif" font-size="10.00">/JKRDisposer.h</text>
</a>
</g>
</g>
<!-- Node13&#45;&gt;Node14 -->
<g id="edge18" class="edge">
<title>Node13&#45;&gt;Node14</title>
<path fill="none" stroke="midnightblue" d="M261.68,-190.4C261.45,-182.64 261.14,-172.81 260.87,-163.86"/>
<polygon fill="midnightblue" stroke="midnightblue" points="264.36,-163.46 260.55,-153.58 257.36,-163.68 264.36,-163.46"/>
</g>
<!-- Node14&#45;&gt;Node4 -->
<g id="edge20" class="edge">
<title>Node14&#45;&gt;Node4</title>
<path fill="none" stroke="midnightblue" d="M241.95,-123.43C222.67,-106.76 197.03,-78.43 213.12,-56 231.74,-30.04 266.15,-18.87 295.3,-14.14"/>
<polygon fill="midnightblue" stroke="midnightblue" points="295.95,-17.59 305.36,-12.73 294.97,-10.66 295.95,-17.59"/>
</g>
<!-- Node14&#45;&gt;Node11 -->
<g id="edge19" class="edge">
<title>Node14&#45;&gt;Node11</title>
<path fill="none" stroke="midnightblue" d="M266.63,-123.4C270.36,-115.3 275.14,-104.94 279.42,-95.69"/>
<polygon fill="midnightblue" stroke="midnightblue" points="282.61,-97.12 283.62,-86.58 276.25,-94.19 282.61,-97.12"/>
</g>
<!-- Node15&#45;&gt;Node4 -->
<g id="edge25" class="edge">
<title>Node15&#45;&gt;Node4</title>
<path fill="none" stroke="midnightblue" d="M394.1,-61.98C385.53,-52.87 371.76,-38.24 361.16,-26.98"/>
<polygon fill="midnightblue" stroke="midnightblue" points="363.53,-24.39 354.13,-19.51 358.43,-29.19 363.53,-24.39"/>
</g>
<!-- Node16&#45;&gt;Node3 -->
<g id="edge29" class="edge">
<title>Node16&#45;&gt;Node3</title>
<path fill="none" stroke="midnightblue" d="M541.25,-282.28C545.79,-301.02 556.52,-345.26 562.63,-370.5"/>
<polygon fill="midnightblue" stroke="midnightblue" points="559.26,-371.42 565.01,-380.32 566.06,-369.78 559.26,-371.42"/>
</g>
<!-- Node17 -->
<g id="node17" class="node">
<title>Node17</title>
<g id="a_node17"><a xlink:href="c__math_8h.html" target="_top" xlink:title=" ">
<polygon fill="white" stroke="black" points="548.12,-196 548.12,-215 664.12,-215 664.12,-196 548.12,-196"/>
<text text-anchor="middle" x="606.12" y="-203" font-family="Helvetica,sans-Serif" font-size="10.00">SComponent/c_math.h</text>
</a>
</g>
</g>
<!-- Node16&#45;&gt;Node17 -->
<g id="edge27" class="edge">
<title>Node16&#45;&gt;Node17</title>
<path fill="none" stroke="midnightblue" d="M548.15,-262.73C558.8,-252.4 576.7,-235.04 589.8,-222.33"/>
<polygon fill="midnightblue" stroke="midnightblue" points="592.49,-224.6 597.23,-215.13 587.61,-219.58 592.49,-224.6"/>
</g>
<!-- Node18 -->
<g id="node18" class="node">
<title>Node18</title>
<g id="a_node18"><a xlink:href="mtx__vec_8h.html" target="_top" xlink:title=" ">
<polygon fill="white" stroke="black" points="468.62,-196 468.62,-215 529.62,-215 529.62,-196 468.62,-196"/>
<text text-anchor="middle" x="499.12" y="-203" font-family="Helvetica,sans-Serif" font-size="10.00">mtx_vec.h</text>
</a>
</g>
</g>
<!-- Node16&#45;&gt;Node18 -->
<g id="edge30" class="edge">
<title>Node16&#45;&gt;Node18</title>
<path fill="none" stroke="midnightblue" d="M533.72,-262.73C527.61,-252.79 517.48,-236.34 509.76,-223.79"/>
<polygon fill="midnightblue" stroke="midnightblue" points="512.65,-221.81 504.43,-215.13 506.69,-225.48 512.65,-221.81"/>
</g>
<!-- Node17&#45;&gt;Node3 -->
<g id="edge28" class="edge">
<title>Node17&#45;&gt;Node3</title>
<path fill="none" stroke="midnightblue" d="M606.49,-215.16C606.97,-230.16 607.18,-261.85 602.12,-288 596.32,-317.96 583.53,-351.11 575.12,-370.98"/>
<polygon fill="midnightblue" stroke="midnightblue" points="571.84,-369.75 571.08,-380.32 578.26,-372.53 571.84,-369.75"/>
</g>
<!-- Node18&#45;&gt;Node4 -->
<g id="edge31" class="edge">
<title>Node18&#45;&gt;Node4</title>
<path fill="none" stroke="midnightblue" d="M500.12,-195.9C502.52,-170.99 505.98,-97.91 470.12,-56 451.78,-34.57 422.39,-23.34 396.83,-17.46"/>
<polygon fill="midnightblue" stroke="midnightblue" points="397.38,-14.01 386.88,-15.39 395.96,-20.86 397.38,-14.01"/>
</g>
</g>
</svg>
        <g id="navigator" transform="translate(0 0)" fill="#404254">
                <rect fill="#f2f5e9" fill-opacity="0.5" stroke="#606060" stroke-width=".5" x="0" y="0" width="60" height="60"/>
                <use id="zoomplus" xlink:href="#zoomPlus" x="17" y="9" onmousedown="handleZoom(evt,'in')"/>
                <use id="zoomminus" xlink:href="#zoomMin" x="42" y="9" onmousedown="handleZoom(evt,'out')"/>
                <use id="reset" xlink:href="#resetDef" x="30" y="36" onmousedown="handleReset()"/>
                <g id="arrowUp" xlink:href="#dirArrow" transform="translate(30 24)" onmousedown="handlePan(0,-1)">
                  <use xlink:href="#rim" fill="#404040">
                        <set attributeName="fill" to="#808080" begin="arrowUp.mouseover" end="arrowUp.mouseout"/>
                  </use>
                  <path fill="none" stroke="white" stroke-width="1.5" d="M0,-3.0v7 M-2.5,-0.5L0,-3.0L2.5,-0.5"/>
                </g>
                <g id="arrowRight" xlink:href="#dirArrow" transform="rotate(90) translate(36 -43)" onmousedown="handlePan(1,0)">
                  <use xlink:href="#rim" fill="#404040">
                        <set attributeName="fill" to="#808080" begin="arrowRight.mouseover" end="arrowRight.mouseout"/>
                  </use>
                  <path fill="none" stroke="white" stroke-width="1.5" d="M0,-3.0v7 M-2.5,-0.5L0,-3.0L2.5,-0.5"/>
                </g>
                <g id="arrowDown" xlink:href="#dirArrow" transform="rotate(180) translate(-30 -48)" onmousedown="handlePan(0,1)">
                  <use xlink:href="#rim" fill="#404040">
                        <set attributeName="fill" to="#808080" begin="arrowDown.mouseover" end="arrowDown.mouseout"/>
                  </use>
                  <path fill="none" stroke="white" stroke-width="1.5" d="M0,-3.0v7 M-2.5,-0.5L0,-3.0L2.5,-0.5"/>
                </g>
                <g id="arrowLeft" xlink:href="#dirArrow" transform="rotate(270) translate(-36 17)" onmousedown="handlePan(-1,0)">
                  <use xlink:href="#rim" fill="#404040">
                        <set attributeName="fill" to="#808080" begin="arrowLeft.mouseover" end="arrowLeft.mouseout"/>
                  </use>
                  <path fill="none" stroke="white" stroke-width="1.5" d="M0,-3.0v7 M-2.5,-0.5L0,-3.0L2.5,-0.5"/>
                </g>
        </g>
        <svg viewBox="0 0 15 15" width="100%" height="30px" preserveAspectRatio="xMaxYMin meet">
         <g id="arrow_out" transform="scale(0.3 0.3)">
          <a xlink:href="f__pc__load_8cpp__incl_org.svg" target="_base">
           <rect id="button" ry="5" rx="5" y="6" x="6" height="38" width="38"
                fill="#f2f5e9" fill-opacity="0.5" stroke="#606060" stroke-width="1.0"/>
           <path id="arrow"
             d="M 11.500037,31.436501 C 11.940474,20.09759 22.043105,11.32322 32.158766,21.979434 L 37.068811,17.246167 C 37.068811,17.246167 37.088388,32 37.088388,32 L 22.160133,31.978069 C 22.160133,31.978069 26.997745,27.140456 26.997745,27.140456 C 18.528582,18.264221 13.291696,25.230495 11.500037,31.436501 z"
             style="fill:#404040;"/>
          </a>
         </g>
        </svg>
</svg>
