<?xml version="1.0" encoding="UTF-8" standalone="no"?>
<!DOCTYPE svg PUBLIC "-//W3C//DTD SVG 1.1//EN"
 "http://www.w3.org/Graphics/SVG/1.1/DTD/svg11.dtd">
<!-- Generated by graphviz version 2.46.0 (20210122.1329)
 -->
<!-- Title: src/f/f_pc/f_pc_executor.cpp Pages: 1 -->
<!--zoomable 934 -->
<svg id="main" version="1.1" xmlns="http://www.w3.org/2000/svg" xmlns:xlink="http://www.w3.org/1999/xlink" xml:space="preserve" onload="init(evt)">
<style type="text/css"><![CDATA[
.edge:hover path { stroke: red; }
.edge:hover polygon { stroke: red; fill: red; }
]]></style>
<script type="text/javascript"><![CDATA[
var edges = document.getElementsByTagName('g');
if (edges && edges.length) {
  for (var i=0;i<edges.length;i++) {
    if (edges[i].id.substr(0,4)=='edge') {
      edges[i].setAttribute('class','edge');
    }
  }
}
]]></script>
        <defs>
                <circle id="rim" cx="0" cy="0" r="7"/>
                <circle id="rim2" cx="0" cy="0" r="3.5"/>
                <g id="zoomPlus">
                        <use xlink:href="#rim" fill="#404040">
                                <set attributeName="fill" to="#808080" begin="zoomplus.mouseover" end="zoomplus.mouseout"/>
                        </use>
                        <path d="M-4,0h8M0,-4v8" fill="none" stroke="white" stroke-width="1.5" pointer-events="none"/>
                </g>
                <g id="zoomMin">
                        <use xlink:href="#rim" fill="#404040">
                                <set attributeName="fill" to="#808080" begin="zoomminus.mouseover" end="zoomminus.mouseout"/>
                        </use>
                        <path d="M-4,0h8" fill="none" stroke="white" stroke-width="1.5" pointer-events="none"/>
                </g>
                <g id="dirArrow">
                        <path fill="none" stroke="white" stroke-width="1.5" d="M0,-3.0v7 M-2.5,-0.5L0,-3.0L2.5,-0.5"/>
                </g>
               <g id="resetDef">
                       <use xlink:href="#rim2" fill="#404040">
                               <set attributeName="fill" to="#808080" begin="reset.mouseover" end="reset.mouseout"/>
                       </use>
               </g>
        </defs>

<script type="text/javascript">
var viewWidth = 924;
var viewHeight = 934;
var sectionId = 'dynsection-0';
</script>
<script xlink:href="svgpan.js"/>
<svg id="graph" class="graph">
<g id="viewport">
<title>src/f/f_pc/f_pc_executor.cpp</title>
<polygon fill="white" stroke="transparent" points="-4,4 -4,-930 920,-930 920,4 -4,4"/>
<!-- Node1 -->
<g id="node1" class="node">
<title>Node1</title>
<g id="a_node1"><a xlink:title=" ">
<polygon fill="#bfbfbf" stroke="black" points="541,-906.5 541,-925.5 681,-925.5 681,-906.5 541,-906.5"/>
<text text-anchor="middle" x="611" y="-913.5" font-family="Helvetica,sans-Serif" font-size="10.00">src/f/f_pc/f_pc_executor.cpp</text>
</a>
</g>
</g>
<!-- Node2 -->
<g id="node2" class="node">
<title>Node2</title>
<g id="a_node2"><a xlink:href="f__pc__executor_8h.html" target="_top" xlink:title=" ">
<polygon fill="white" stroke="black" points="393.5,-850.5 393.5,-869.5 506.5,-869.5 506.5,-850.5 393.5,-850.5"/>
<text text-anchor="middle" x="450" y="-857.5" font-family="Helvetica,sans-Serif" font-size="10.00">f/f_pc/f_pc_executor.h</text>
</a>
</g>
</g>
<!-- Node1&#45;&gt;Node2 -->
<g id="edge1" class="edge">
<title>Node1&#45;&gt;Node2</title>
<path fill="none" stroke="midnightblue" d="M585.49,-906.44C558.4,-897.36 515.41,-882.94 485.13,-872.78"/>
<polygon fill="midnightblue" stroke="midnightblue" points="485.99,-869.38 475.39,-869.52 483.76,-876.01 485.99,-869.38"/>
</g>
<!-- Node21 -->
<g id="node21" class="node">
<title>Node21</title>
<g id="a_node21"><a xlink:href="f__pc__base_8h.html" target="_top" xlink:title=" ">
<polygon fill="white" stroke="black" points="505.5,-794.5 505.5,-813.5 602.5,-813.5 602.5,-794.5 505.5,-794.5"/>
<text text-anchor="middle" x="554" y="-801.5" font-family="Helvetica,sans-Serif" font-size="10.00">f/f_pc/f_pc_base.h</text>
</a>
</g>
</g>
<!-- Node1&#45;&gt;Node21 -->
<g id="edge68" class="edge">
<title>Node1&#45;&gt;Node21</title>
<path fill="none" stroke="midnightblue" d="M618.04,-906.09C627.39,-893.08 641.58,-868.43 631,-850 622.38,-834.99 606.61,-824.5 591.57,-817.46"/>
<polygon fill="midnightblue" stroke="midnightblue" points="592.94,-814.24 582.37,-813.51 590.18,-820.67 592.94,-814.24"/>
</g>
<!-- Node26 -->
<g id="node26" class="node">
<title>Node26</title>
<g id="a_node26"><a xlink:href="f__pc__layer_8h.html" target="_top" xlink:title=" ">
<polygon fill="white" stroke="black" points="668,-666 668,-685 764,-685 764,-666 668,-666"/>
<text text-anchor="middle" x="716" y="-673" font-family="Helvetica,sans-Serif" font-size="10.00">f/f_pc/f_pc_layer.h</text>
</a>
</g>
</g>
<!-- Node1&#45;&gt;Node26 -->
<g id="edge69" class="edge">
<title>Node1&#45;&gt;Node26</title>
<path fill="none" stroke="midnightblue" d="M681.06,-910.72C740.52,-905.45 819.24,-894.04 839,-870 866.59,-836.43 921.36,-881.66 799,-727 785.75,-710.26 765.32,-697.73 748.04,-689.34"/>
<polygon fill="midnightblue" stroke="midnightblue" points="749.38,-686.1 738.83,-685.1 746.45,-692.46 749.38,-686.1"/>
</g>
<!-- Node27 -->
<g id="node27" class="node">
<title>Node27</title>
<g id="a_node27"><a xlink:href="f__pc__layer__tag_8h.html" target="_top" xlink:title=" ">
<polygon fill="white" stroke="black" points="658.5,-733 658.5,-752 773.5,-752 773.5,-733 658.5,-733"/>
<text text-anchor="middle" x="716" y="-740" font-family="Helvetica,sans-Serif" font-size="10.00">f/f_pc/f_pc_layer_tag.h</text>
</a>
</g>
</g>
<!-- Node1&#45;&gt;Node27 -->
<g id="edge74" class="edge">
<title>Node1&#45;&gt;Node27</title>
<path fill="none" stroke="midnightblue" d="M618.39,-906.34C625.79,-897.49 637.28,-883.22 646,-870 670.66,-832.62 694.95,-785.9 707.41,-761.01"/>
<polygon fill="midnightblue" stroke="midnightblue" points="710.54,-762.57 711.85,-752.05 704.27,-759.46 710.54,-762.57"/>
</g>
<!-- Node33 -->
<g id="node33" class="node">
<title>Node33</title>
<g id="a_node33"><a xlink:href="f__pc__layer__iter_8h.html" target="_top" xlink:title=" ">
<polygon fill="white" stroke="black" points="131.5,-850.5 131.5,-869.5 246.5,-869.5 246.5,-850.5 131.5,-850.5"/>
<text text-anchor="middle" x="189" y="-857.5" font-family="Helvetica,sans-Serif" font-size="10.00">f/f_pc/f_pc_layer_iter.h</text>
</a>
</g>
</g>
<!-- Node1&#45;&gt;Node33 -->
<g id="edge70" class="edge">
<title>Node1&#45;&gt;Node33</title>
<path fill="none" stroke="midnightblue" d="M542.59,-906.48C473.33,-897.82 362.81,-883.91 256.97,-870.12"/>
<polygon fill="midnightblue" stroke="midnightblue" points="257.11,-866.61 246.74,-868.78 256.2,-873.55 257.11,-866.61"/>
</g>
<!-- Node34 -->
<g id="node34" class="node">
<title>Node34</title>
<g id="a_node34"><a xlink:href="f__pc__line__iter_8h.html" target="_top" xlink:title=" ">
<polygon fill="white" stroke="black" points="265,-850.5 265,-869.5 375,-869.5 375,-850.5 265,-850.5"/>
<text text-anchor="middle" x="320" y="-857.5" font-family="Helvetica,sans-Serif" font-size="10.00">f/f_pc/f_pc_line_iter.h</text>
</a>
</g>
</g>
<!-- Node1&#45;&gt;Node34 -->
<g id="edge75" class="edge">
<title>Node1&#45;&gt;Node34</title>
<path fill="none" stroke="midnightblue" d="M564.89,-906.44C513.59,-896.92 430.73,-881.55 375.81,-871.36"/>
<polygon fill="midnightblue" stroke="midnightblue" points="376.36,-867.9 365.89,-869.52 375.09,-874.78 376.36,-867.9"/>
</g>
<!-- Node35 -->
<g id="node35" class="node">
<title>Node35</title>
<g id="a_node35"><a xlink:href="f__pc__node_8h.html" target="_top" xlink:title=" ">
<polygon fill="white" stroke="black" points="524.5,-850.5 524.5,-869.5 621.5,-869.5 621.5,-850.5 524.5,-850.5"/>
<text text-anchor="middle" x="573" y="-857.5" font-family="Helvetica,sans-Serif" font-size="10.00">f/f_pc/f_pc_node.h</text>
</a>
</g>
</g>
<!-- Node1&#45;&gt;Node35 -->
<g id="edge77" class="edge">
<title>Node1&#45;&gt;Node35</title>
<path fill="none" stroke="midnightblue" d="M604.73,-906.08C599.36,-898.46 591.48,-887.26 584.92,-877.94"/>
<polygon fill="midnightblue" stroke="midnightblue" points="587.78,-875.91 579.16,-869.75 582.05,-879.94 587.78,-875.91"/>
</g>
<!-- Node36 -->
<g id="node36" class="node">
<title>Node36</title>
<g id="a_node36"><a xlink:href="f__pc__searcher_8h.html" target="_top" xlink:title=" ">
<polygon fill="white" stroke="black" points="716.5,-850.5 716.5,-869.5 829.5,-869.5 829.5,-850.5 716.5,-850.5"/>
<text text-anchor="middle" x="773" y="-857.5" font-family="Helvetica,sans-Serif" font-size="10.00">f/f_pc/f_pc_searcher.h</text>
</a>
</g>
</g>
<!-- Node1&#45;&gt;Node36 -->
<g id="edge81" class="edge">
<title>Node1&#45;&gt;Node36</title>
<path fill="none" stroke="midnightblue" d="M636.67,-906.44C663.92,-897.36 707.18,-882.94 737.65,-872.78"/>
<polygon fill="midnightblue" stroke="midnightblue" points="739.07,-876 747.45,-869.52 736.86,-869.36 739.07,-876"/>
</g>
<!-- Node3 -->
<g id="node3" class="node">
<title>Node3</title>
<g id="a_node3"><a xlink:href="c__node__iter_8h.html" target="_top" xlink:title=" ">
<polygon fill="white" stroke="black" points="235,-794.5 235,-813.5 369,-813.5 369,-794.5 235,-794.5"/>
<text text-anchor="middle" x="302" y="-801.5" font-family="Helvetica,sans-Serif" font-size="10.00">SComponent/c_node_iter.h</text>
</a>
</g>
</g>
<!-- Node2&#45;&gt;Node3 -->
<g id="edge2" class="edge">
<title>Node2&#45;&gt;Node3</title>
<path fill="none" stroke="midnightblue" d="M426.55,-850.44C401.87,-841.44 362.81,-827.19 335.02,-817.05"/>
<polygon fill="midnightblue" stroke="midnightblue" points="335.94,-813.66 325.34,-813.52 333.54,-820.23 335.94,-813.66"/>
</g>
<!-- Node2&#45;&gt;Node21 -->
<g id="edge34" class="edge">
<title>Node2&#45;&gt;Node21</title>
<path fill="none" stroke="midnightblue" d="M466.71,-850.32C483.31,-841.7 509,-828.36 528.22,-818.39"/>
<polygon fill="midnightblue" stroke="midnightblue" points="530.07,-821.37 537.33,-813.65 526.84,-815.16 530.07,-821.37"/>
</g>
<!-- Node4 -->
<g id="node4" class="node">
<title>Node4</title>
<g id="a_node4"><a xlink:href="c__node_8h.html" target="_top" xlink:title=" ">
<polygon fill="white" stroke="black" points="389.5,-436.5 389.5,-455.5 504.5,-455.5 504.5,-436.5 389.5,-436.5"/>
<text text-anchor="middle" x="447" y="-443.5" font-family="Helvetica,sans-Serif" font-size="10.00">SComponent/c_node.h</text>
</a>
</g>
</g>
<!-- Node3&#45;&gt;Node4 -->
<g id="edge3" class="edge">
<title>Node3&#45;&gt;Node4</title>
<path fill="none" stroke="midnightblue" d="M246.58,-794.44C160.77,-778.57 10.26,-738.78 57,-660 130.82,-535.58 305.75,-479.15 394.06,-457.86"/>
<polygon fill="midnightblue" stroke="midnightblue" points="394.94,-461.25 403.87,-455.55 393.34,-454.43 394.94,-461.25"/>
</g>
<!-- Node5 -->
<g id="node5" class="node">
<title>Node5</title>
<g id="a_node5"><a xlink:href="global_8h.html" target="_top" xlink:title=" ">
<polygon fill="white" stroke="black" points="379,-380.5 379,-399.5 429,-399.5 429,-380.5 379,-380.5"/>
<text text-anchor="middle" x="404" y="-387.5" font-family="Helvetica,sans-Serif" font-size="10.00">global.h</text>
</a>
</g>
</g>
<!-- Node4&#45;&gt;Node5 -->
<g id="edge4" class="edge">
<title>Node4&#45;&gt;Node5</title>
<path fill="none" stroke="midnightblue" d="M439.9,-436.08C433.76,-428.38 424.73,-417.03 417.26,-407.65"/>
<polygon fill="midnightblue" stroke="midnightblue" points="419.94,-405.39 410.97,-399.75 414.46,-409.75 419.94,-405.39"/>
</g>
<!-- Node6 -->
<g id="node6" class="node">
<title>Node6</title>
<g id="a_node6"><a xlink:href="types_8h.html" target="_top" xlink:title=" ">
<polygon fill="white" stroke="black" points="269.5,-0.5 269.5,-19.5 350.5,-19.5 350.5,-0.5 269.5,-0.5"/>
<text text-anchor="middle" x="310" y="-7.5" font-family="Helvetica,sans-Serif" font-size="10.00">dolphin/types.h</text>
</a>
</g>
</g>
<!-- Node5&#45;&gt;Node6 -->
<g id="edge5" class="edge">
<title>Node5&#45;&gt;Node6</title>
<path fill="none" stroke="midnightblue" d="M378.85,-385.59C302.72,-374.56 80,-336.87 80,-273.5 80,-273.5 80,-273.5 80,-137.5 80,-56.23 191.63,-26.8 259.35,-16.42"/>
<polygon fill="midnightblue" stroke="midnightblue" points="260.01,-19.86 269.41,-14.97 259.01,-12.93 260.01,-19.86"/>
</g>
<!-- Node7 -->
<g id="node7" class="node">
<title>Node7</title>
<g id="a_node7"><a xlink:href="AR_8h.html" target="_top" xlink:title=" ">
<polygon fill="white" stroke="black" points="150.5,-263 150.5,-282 199.5,-282 199.5,-263 150.5,-263"/>
<text text-anchor="middle" x="175" y="-270" font-family="Helvetica,sans-Serif" font-size="10.00">ar/AR.h</text>
</a>
</g>
</g>
<!-- Node5&#45;&gt;Node7 -->
<g id="edge6" class="edge">
<title>Node5&#45;&gt;Node7</title>
<path fill="none" stroke="midnightblue" d="M378.93,-387.01C344.2,-383.27 280.58,-372.76 235,-344 213.64,-330.52 195.89,-307.02 185.37,-290.89"/>
<polygon fill="midnightblue" stroke="midnightblue" points="188.31,-288.99 180.04,-282.37 182.38,-292.7 188.31,-288.99"/>
</g>
<!-- Node8 -->
<g id="node8" class="node">
<title>Node8</title>
<g id="a_node8"><a xlink:href="ARQ_8h.html" target="_top" xlink:title=" ">
<polygon fill="white" stroke="black" points="146,-129 146,-148 202,-148 202,-129 146,-129"/>
<text text-anchor="middle" x="174" y="-136" font-family="Helvetica,sans-Serif" font-size="10.00">ar/ARQ.h</text>
</a>
</g>
</g>
<!-- Node5&#45;&gt;Node8 -->
<g id="edge8" class="edge">
<title>Node5&#45;&gt;Node8</title>
<path fill="none" stroke="midnightblue" d="M395.24,-380.5C386.08,-371.54 371.34,-356.97 359,-344 293.91,-275.56 219.27,-191.16 188.46,-156.04"/>
<polygon fill="midnightblue" stroke="midnightblue" points="190.83,-153.43 181.6,-148.21 185.56,-158.04 190.83,-153.43"/>
</g>
<!-- Node9 -->
<g id="node9" class="node">
<title>Node9</title>
<g id="a_node9"><a xlink:href="mwcc_8h.html" target="_top" xlink:title=" ">
<polygon fill="white" stroke="black" points="783,-324.5 783,-343.5 833,-343.5 833,-324.5 783,-324.5"/>
<text text-anchor="middle" x="808" y="-331.5" font-family="Helvetica,sans-Serif" font-size="10.00">mwcc.h</text>
</a>
</g>
</g>
<!-- Node5&#45;&gt;Node9 -->
<g id="edge10" class="edge">
<title>Node5&#45;&gt;Node9</title>
<path fill="none" stroke="midnightblue" d="M429.36,-386.79C488.92,-381.4 642.31,-366.37 769,-344 770.27,-343.78 771.56,-343.54 772.86,-343.29"/>
<polygon fill="midnightblue" stroke="midnightblue" points="773.83,-346.66 782.9,-341.2 772.4,-339.81 773.83,-346.66"/>
</g>
<!-- Node10 -->
<g id="node10" class="node">
<title>Node10</title>
<g id="a_node10"><a xlink:href="OS_8h.html" target="_top" xlink:title=" ">
<polygon fill="white" stroke="black" points="220,-129 220,-148 272,-148 272,-129 220,-129"/>
<text text-anchor="middle" x="246" y="-136" font-family="Helvetica,sans-Serif" font-size="10.00">os/OS.h</text>
</a>
</g>
</g>
<!-- Node5&#45;&gt;Node10 -->
<g id="edge11" class="edge">
<title>Node5&#45;&gt;Node10</title>
<path fill="none" stroke="midnightblue" d="M398.56,-380.41C375.77,-344.42 287.71,-205.37 256.8,-156.55"/>
<polygon fill="midnightblue" stroke="midnightblue" points="259.72,-154.63 251.42,-148.05 253.81,-158.37 259.72,-154.63"/>
</g>
<!-- Node12 -->
<g id="node12" class="node">
<title>Node12</title>
<g id="a_node12"><a xlink:href="variables_8h.html" target="_top" xlink:title=" ">
<polygon fill="white" stroke="black" points="473.5,-324.5 473.5,-343.5 536.5,-343.5 536.5,-324.5 473.5,-324.5"/>
<text text-anchor="middle" x="505" y="-331.5" font-family="Helvetica,sans-Serif" font-size="10.00">variables.h</text>
</a>
</g>
</g>
<!-- Node5&#45;&gt;Node12 -->
<g id="edge15" class="edge">
<title>Node5&#45;&gt;Node12</title>
<path fill="none" stroke="midnightblue" d="M420.23,-380.32C436.35,-371.7 461.3,-358.36 479.96,-348.39"/>
<polygon fill="midnightblue" stroke="midnightblue" points="481.64,-351.46 488.81,-343.65 478.34,-345.28 481.64,-351.46"/>
</g>
<!-- Node7&#45;&gt;Node6 -->
<g id="edge7" class="edge">
<title>Node7&#45;&gt;Node6</title>
<path fill="none" stroke="midnightblue" d="M169.39,-262.72C155.37,-239.64 121.02,-175.44 137,-123 147.45,-88.69 153.63,-77.96 182,-56 204.53,-38.56 234.34,-27.56 259.52,-20.8"/>
<polygon fill="midnightblue" stroke="midnightblue" points="260.45,-24.18 269.28,-18.33 258.73,-17.39 260.45,-24.18"/>
</g>
<!-- Node8&#45;&gt;Node6 -->
<g id="edge9" class="edge">
<title>Node8&#45;&gt;Node6</title>
<path fill="none" stroke="midnightblue" d="M175.07,-128.7C177.5,-112.33 184.88,-76.97 205,-56 220.28,-40.07 242.12,-29.49 261.93,-22.61"/>
<polygon fill="midnightblue" stroke="midnightblue" points="263.01,-25.94 271.45,-19.53 260.86,-19.28 263.01,-25.94"/>
</g>
<!-- Node10&#45;&gt;Node6 -->
<g id="edge12" class="edge">
<title>Node10&#45;&gt;Node6</title>
<path fill="none" stroke="midnightblue" d="M237.63,-128.9C223.64,-113.46 198.51,-80.37 214,-56 224.25,-39.88 241.96,-29.43 259.41,-22.71"/>
<polygon fill="midnightblue" stroke="midnightblue" points="260.74,-25.95 269.02,-19.35 258.43,-19.35 260.74,-25.95"/>
</g>
<!-- Node11 -->
<g id="node11" class="node">
<title>Node11</title>
<g id="a_node11"><a xlink:href="dvd_8h.html" target="_top" xlink:title=" ">
<polygon fill="white" stroke="black" points="222.5,-62 222.5,-81 281.5,-81 281.5,-62 222.5,-62"/>
<text text-anchor="middle" x="252" y="-69" font-family="Helvetica,sans-Serif" font-size="10.00">dvd/dvd.h</text>
</a>
</g>
</g>
<!-- Node10&#45;&gt;Node11 -->
<g id="edge13" class="edge">
<title>Node10&#45;&gt;Node11</title>
<path fill="none" stroke="midnightblue" d="M246.81,-128.73C247.69,-119.18 249.13,-103.62 250.27,-91.28"/>
<polygon fill="midnightblue" stroke="midnightblue" points="253.77,-91.41 251.2,-81.13 246.8,-90.76 253.77,-91.41"/>
</g>
<!-- Node11&#45;&gt;Node6 -->
<g id="edge14" class="edge">
<title>Node11&#45;&gt;Node6</title>
<path fill="none" stroke="midnightblue" d="M260.31,-61.98C269.18,-52.87 283.45,-38.24 294.42,-26.98"/>
<polygon fill="midnightblue" stroke="midnightblue" points="297.23,-29.11 301.71,-19.51 292.22,-24.23 297.23,-29.11"/>
</g>
<!-- Node13 -->
<g id="node13" class="node">
<title>Node13</title>
<g id="a_node13"><a xlink:href="JSUList_8h.html" target="_top" xlink:title=" ">
<polygon fill="white" stroke="black" points="376,-56.5 376,-86.5 512,-86.5 512,-56.5 376,-56.5"/>
<text text-anchor="start" x="384" y="-74.5" font-family="Helvetica,sans-Serif" font-size="10.00">JSystem/JSupport/JSUList</text>
<text text-anchor="middle" x="444" y="-63.5" font-family="Helvetica,sans-Serif" font-size="10.00">/JSUList.h</text>
</a>
</g>
</g>
<!-- Node12&#45;&gt;Node13 -->
<g id="edge16" class="edge">
<title>Node12&#45;&gt;Node13</title>
<path fill="none" stroke="midnightblue" d="M494.56,-324.24C485.58,-315.97 473.25,-302.66 468,-288 463.35,-275.03 465.62,-270.57 468,-257 470.93,-240.24 477.08,-237.55 481,-221 487.92,-191.82 487.22,-183.94 489,-154 489.82,-140.25 493.9,-135.88 489,-123 484.84,-112.08 477.11,-102.01 469.22,-93.79"/>
<polygon fill="midnightblue" stroke="midnightblue" points="471.63,-91.26 462.02,-86.79 466.75,-96.27 471.63,-91.26"/>
</g>
<!-- Node14 -->
<g id="node14" class="node">
<title>Node14</title>
<g id="a_node14"><a xlink:href="JUTXfb_8h.html" target="_top" xlink:title=" ">
<polygon fill="white" stroke="black" points="476.5,-257.5 476.5,-287.5 601.5,-287.5 601.5,-257.5 476.5,-257.5"/>
<text text-anchor="start" x="484.5" y="-275.5" font-family="Helvetica,sans-Serif" font-size="10.00">JSystem/JUtility/JUTXfb</text>
<text text-anchor="middle" x="539" y="-264.5" font-family="Helvetica,sans-Serif" font-size="10.00">/JUTXfb.h</text>
</a>
</g>
</g>
<!-- Node12&#45;&gt;Node14 -->
<g id="edge18" class="edge">
<title>Node12&#45;&gt;Node14</title>
<path fill="none" stroke="midnightblue" d="M509.87,-324.48C514.05,-317.17 520.26,-306.3 525.87,-296.47"/>
<polygon fill="midnightblue" stroke="midnightblue" points="529.06,-297.94 530.99,-287.52 522.99,-294.47 529.06,-297.94"/>
</g>
<!-- Node18 -->
<g id="node18" class="node">
<title>Node18</title>
<g id="a_node18"><a xlink:href="c__xyz_8h.html" target="_top" xlink:title=" ">
<polygon fill="white" stroke="black" points="619.5,-263 619.5,-282 726.5,-282 726.5,-263 619.5,-263"/>
<text text-anchor="middle" x="673" y="-270" font-family="Helvetica,sans-Serif" font-size="10.00">SComponent/c_xyz.h</text>
</a>
</g>
</g>
<!-- Node12&#45;&gt;Node18 -->
<g id="edge28" class="edge">
<title>Node12&#45;&gt;Node18</title>
<path fill="none" stroke="midnightblue" d="M529.07,-324.48C558.01,-314.22 606.76,-296.96 639.4,-285.4"/>
<polygon fill="midnightblue" stroke="midnightblue" points="640.72,-288.65 648.97,-282.01 638.38,-282.05 640.72,-288.65"/>
</g>
<!-- Node13&#45;&gt;Node6 -->
<g id="edge17" class="edge">
<title>Node13&#45;&gt;Node6</title>
<path fill="none" stroke="midnightblue" d="M412.24,-56.4C389.96,-46.51 360.41,-33.38 338.81,-23.79"/>
<polygon fill="midnightblue" stroke="midnightblue" points="340.06,-20.52 329.5,-19.66 337.22,-26.91 340.06,-20.52"/>
</g>
<!-- Node14&#45;&gt;Node6 -->
<g id="edge25" class="edge">
<title>Node14&#45;&gt;Node6</title>
<path fill="none" stroke="midnightblue" d="M542.92,-257.25C552.43,-219.23 572.36,-114.32 521,-56 500.26,-32.45 416.27,-20.45 360.71,-14.97"/>
<polygon fill="midnightblue" stroke="midnightblue" points="360.98,-11.48 350.69,-14.02 360.32,-18.45 360.98,-11.48"/>
</g>
<!-- Node15 -->
<g id="node15" class="node">
<title>Node15</title>
<g id="a_node15"><a xlink:href="JKRHeap_8h.html" target="_top" xlink:title=" ">
<polygon fill="white" stroke="black" points="336,-190.5 336,-220.5 472,-220.5 472,-190.5 336,-190.5"/>
<text text-anchor="start" x="344" y="-208.5" font-family="Helvetica,sans-Serif" font-size="10.00">JSystem/JKernel/JKRHeap</text>
<text text-anchor="middle" x="404" y="-197.5" font-family="Helvetica,sans-Serif" font-size="10.00">/JKRHeap.h</text>
</a>
</g>
</g>
<!-- Node14&#45;&gt;Node15 -->
<g id="edge19" class="edge">
<title>Node14&#45;&gt;Node15</title>
<path fill="none" stroke="midnightblue" d="M509.71,-257.4C489.98,-247.9 463.77,-235.28 442.38,-224.98"/>
<polygon fill="midnightblue" stroke="midnightblue" points="443.76,-221.76 433.24,-220.58 440.73,-228.07 443.76,-221.76"/>
</g>
<!-- Node17 -->
<g id="node17" class="node">
<title>Node17</title>
<g id="a_node17"><a xlink:href="GX_8h.html" target="_top" xlink:title=" ">
<polygon fill="white" stroke="black" points="574.5,-196 574.5,-215 625.5,-215 625.5,-196 574.5,-196"/>
<text text-anchor="middle" x="600" y="-203" font-family="Helvetica,sans-Serif" font-size="10.00">gx/GX.h</text>
</a>
</g>
</g>
<!-- Node14&#45;&gt;Node17 -->
<g id="edge26" class="edge">
<title>Node14&#45;&gt;Node17</title>
<path fill="none" stroke="midnightblue" d="M552.24,-257.4C561.84,-247.16 574.85,-233.3 584.87,-222.62"/>
<polygon fill="midnightblue" stroke="midnightblue" points="587.55,-224.88 591.84,-215.19 582.45,-220.09 587.55,-224.88"/>
</g>
<!-- Node15&#45;&gt;Node5 -->
<g id="edge24" class="edge">
<title>Node15&#45;&gt;Node5</title>
<path fill="none" stroke="midnightblue" d="M404,-220.69C404,-253.21 404,-333.09 404,-369.88"/>
<polygon fill="midnightblue" stroke="midnightblue" points="400.5,-370.2 404,-380.2 407.5,-370.2 400.5,-370.2"/>
</g>
<!-- Node15&#45;&gt;Node6 -->
<g id="edge23" class="edge">
<title>Node15&#45;&gt;Node6</title>
<path fill="none" stroke="midnightblue" d="M364.49,-190.39C347.9,-182.36 330.13,-170.54 320,-154 296.13,-115.03 301.36,-58.39 306.22,-29.48"/>
<polygon fill="midnightblue" stroke="midnightblue" points="309.68,-30.01 308.07,-19.54 302.8,-28.73 309.68,-30.01"/>
</g>
<!-- Node16 -->
<g id="node16" class="node">
<title>Node16</title>
<g id="a_node16"><a xlink:href="JKRDisposer_8h.html" target="_top" xlink:title=" ">
<polygon fill="white" stroke="black" points="328.5,-123.5 328.5,-153.5 479.5,-153.5 479.5,-123.5 328.5,-123.5"/>
<text text-anchor="start" x="336.5" y="-141.5" font-family="Helvetica,sans-Serif" font-size="10.00">JSystem/JKernel/JKRDisposer</text>
<text text-anchor="middle" x="404" y="-130.5" font-family="Helvetica,sans-Serif" font-size="10.00">/JKRDisposer.h</text>
</a>
</g>
</g>
<!-- Node15&#45;&gt;Node16 -->
<g id="edge20" class="edge">
<title>Node15&#45;&gt;Node16</title>
<path fill="none" stroke="midnightblue" d="M404,-190.4C404,-182.64 404,-172.81 404,-163.86"/>
<polygon fill="midnightblue" stroke="midnightblue" points="407.5,-163.58 404,-153.58 400.5,-163.58 407.5,-163.58"/>
</g>
<!-- Node16&#45;&gt;Node6 -->
<g id="edge22" class="edge">
<title>Node16&#45;&gt;Node6</title>
<path fill="none" stroke="midnightblue" d="M393.58,-123.48C376.21,-100.1 341.4,-53.25 322.65,-28.02"/>
<polygon fill="midnightblue" stroke="midnightblue" points="325.3,-25.73 316.53,-19.79 319.69,-29.9 325.3,-25.73"/>
</g>
<!-- Node16&#45;&gt;Node13 -->
<g id="edge21" class="edge">
<title>Node16&#45;&gt;Node13</title>
<path fill="none" stroke="midnightblue" d="M412.68,-123.4C417.76,-115.13 424.3,-104.51 430.09,-95.1"/>
<polygon fill="midnightblue" stroke="midnightblue" points="433.08,-96.93 435.34,-86.58 427.12,-93.26 433.08,-96.93"/>
</g>
<!-- Node17&#45;&gt;Node6 -->
<g id="edge27" class="edge">
<title>Node17&#45;&gt;Node6</title>
<path fill="none" stroke="midnightblue" d="M600.57,-195.88C601.76,-170.28 601.49,-94.11 560,-56 531.62,-29.93 425.47,-18.48 360.96,-13.84"/>
<polygon fill="midnightblue" stroke="midnightblue" points="360.82,-10.32 350.6,-13.13 360.34,-17.31 360.82,-10.32"/>
</g>
<!-- Node18&#45;&gt;Node5 -->
<g id="edge31" class="edge">
<title>Node18&#45;&gt;Node5</title>
<path fill="none" stroke="midnightblue" d="M659.73,-282.04C637.11,-296.32 589.31,-325.34 546,-344 510.52,-359.29 468.09,-372.06 438.91,-380.04"/>
<polygon fill="midnightblue" stroke="midnightblue" points="437.92,-376.68 429.17,-382.66 439.74,-383.44 437.92,-376.68"/>
</g>
<!-- Node19 -->
<g id="node19" class="node">
<title>Node19</title>
<g id="a_node19"><a xlink:href="c__math_8h.html" target="_top" xlink:title=" ">
<polygon fill="white" stroke="black" points="688,-196 688,-215 804,-215 804,-196 688,-196"/>
<text text-anchor="middle" x="746" y="-203" font-family="Helvetica,sans-Serif" font-size="10.00">SComponent/c_math.h</text>
</a>
</g>
</g>
<!-- Node18&#45;&gt;Node19 -->
<g id="edge29" class="edge">
<title>Node18&#45;&gt;Node19</title>
<path fill="none" stroke="midnightblue" d="M682.85,-262.73C694.56,-252.31 714.32,-234.71 728.62,-221.97"/>
<polygon fill="midnightblue" stroke="midnightblue" points="731.17,-224.39 736.31,-215.13 726.51,-219.16 731.17,-224.39"/>
</g>
<!-- Node20 -->
<g id="node20" class="node">
<title>Node20</title>
<g id="a_node20"><a xlink:href="mtx__vec_8h.html" target="_top" xlink:title=" ">
<polygon fill="white" stroke="black" points="620.5,-62 620.5,-81 681.5,-81 681.5,-62 620.5,-62"/>
<text text-anchor="middle" x="651" y="-69" font-family="Helvetica,sans-Serif" font-size="10.00">mtx_vec.h</text>
</a>
</g>
</g>
<!-- Node18&#45;&gt;Node20 -->
<g id="edge32" class="edge">
<title>Node18&#45;&gt;Node20</title>
<path fill="none" stroke="midnightblue" d="M672.05,-262.95C668.75,-233.1 657.7,-133.08 653.07,-91.2"/>
<polygon fill="midnightblue" stroke="midnightblue" points="656.54,-90.8 651.97,-81.24 649.59,-91.57 656.54,-90.8"/>
</g>
<!-- Node19&#45;&gt;Node5 -->
<g id="edge30" class="edge">
<title>Node19&#45;&gt;Node5</title>
<path fill="none" stroke="midnightblue" d="M747.64,-215.23C750.18,-231.47 753.11,-266.63 736,-288 698.37,-335 517.16,-370.17 439.48,-383.34"/>
<polygon fill="midnightblue" stroke="midnightblue" points="438.52,-379.95 429.23,-385.05 439.67,-386.85 438.52,-379.95"/>
</g>
<!-- Node20&#45;&gt;Node6 -->
<g id="edge33" class="edge">
<title>Node20&#45;&gt;Node6</title>
<path fill="none" stroke="midnightblue" d="M623.92,-61.96C616.53,-59.82 608.5,-57.66 601,-56 517.66,-37.55 419.24,-24.03 360.86,-16.85"/>
<polygon fill="midnightblue" stroke="midnightblue" points="361.14,-13.36 350.79,-15.62 360.3,-20.31 361.14,-13.36"/>
</g>
<!-- Node21&#45;&gt;Node5 -->
<g id="edge43" class="edge">
<title>Node21&#45;&gt;Node5</title>
<path fill="none" stroke="midnightblue" d="M602.75,-800.62C650.73,-796.66 725.03,-786.11 783,-758 833.05,-733.73 878,-732.13 878,-676.5 878,-676.5 878,-676.5 878,-501 878,-410.97 549.39,-394.6 439.39,-391.65"/>
<polygon fill="midnightblue" stroke="midnightblue" points="439.23,-388.14 429.15,-391.39 439.06,-395.14 439.23,-388.14"/>
</g>
<!-- Node22 -->
<g id="node22" class="node">
<title>Node22</title>
<g id="a_node22"><a xlink:href="c__tag_8h.html" target="_top" xlink:title=" ">
<polygon fill="white" stroke="black" points="431.5,-604.5 431.5,-623.5 538.5,-623.5 538.5,-604.5 431.5,-604.5"/>
<text text-anchor="middle" x="485" y="-611.5" font-family="Helvetica,sans-Serif" font-size="10.00">SComponent/c_tag.h</text>
</a>
</g>
</g>
<!-- Node21&#45;&gt;Node22 -->
<g id="edge35" class="edge">
<title>Node21&#45;&gt;Node22</title>
<path fill="none" stroke="midnightblue" d="M537.17,-794.42C524.08,-786.77 506.72,-774.27 498,-758 495.1,-752.6 488.99,-671.11 486.3,-633.62"/>
<polygon fill="midnightblue" stroke="midnightblue" points="489.79,-633.26 485.59,-623.53 482.81,-633.75 489.79,-633.26"/>
</g>
<!-- Node25 -->
<g id="node25" class="node">
<title>Node25</title>
<g id="a_node25"><a xlink:href="f__pc__delete__tag_8h.html" target="_top" xlink:title=" ">
<polygon fill="white" stroke="black" points="506.5,-727.5 506.5,-757.5 601.5,-757.5 601.5,-727.5 506.5,-727.5"/>
<text text-anchor="start" x="514.5" y="-745.5" font-family="Helvetica,sans-Serif" font-size="10.00">f/f_pc/f_pc_delete</text>
<text text-anchor="middle" x="554" y="-734.5" font-family="Helvetica,sans-Serif" font-size="10.00">_tag.h</text>
</a>
</g>
</g>
<!-- Node21&#45;&gt;Node25 -->
<g id="edge44" class="edge">
<title>Node21&#45;&gt;Node25</title>
<path fill="none" stroke="midnightblue" d="M554,-794.48C554,-787.47 554,-777.19 554,-767.7"/>
<polygon fill="midnightblue" stroke="midnightblue" points="557.5,-767.52 554,-757.52 550.5,-767.52 557.5,-767.52"/>
</g>
<!-- Node21&#45;&gt;Node27 -->
<g id="edge52" class="edge">
<title>Node21&#45;&gt;Node27</title>
<path fill="none" stroke="midnightblue" d="M577.21,-794.48C605,-784.27 651.72,-767.11 683.19,-755.55"/>
<polygon fill="midnightblue" stroke="midnightblue" points="684.65,-758.74 692.83,-752.01 682.24,-752.17 684.65,-758.74"/>
</g>
<!-- Node28 -->
<g id="node28" class="node">
<title>Node28</title>
<g id="a_node28"><a xlink:href="f__pc__line__tag_8h.html" target="_top" xlink:title=" ">
<polygon fill="white" stroke="black" points="230,-666 230,-685 340,-685 340,-666 230,-666"/>
<text text-anchor="middle" x="285" y="-673" font-family="Helvetica,sans-Serif" font-size="10.00">f/f_pc/f_pc_line_tag.h</text>
</a>
</g>
</g>
<!-- Node21&#45;&gt;Node28 -->
<g id="edge56" class="edge">
<title>Node21&#45;&gt;Node28</title>
<path fill="none" stroke="midnightblue" d="M505.39,-803.45C458.43,-801.62 387.2,-792.62 337,-758 314.37,-742.4 299.41,-713.4 291.57,-694.54"/>
<polygon fill="midnightblue" stroke="midnightblue" points="294.75,-693.06 287.86,-685.01 288.23,-695.6 294.75,-693.06"/>
</g>
<!-- Node29 -->
<g id="node29" class="node">
<title>Node29</title>
<g id="a_node29"><a xlink:href="f__pc__priority_8h.html" target="_top" xlink:title=" ">
<polygon fill="white" stroke="black" points="346,-733 346,-752 450,-752 450,-733 346,-733"/>
<text text-anchor="middle" x="398" y="-740" font-family="Helvetica,sans-Serif" font-size="10.00">f/f_pc/f_pc_priority.h</text>
</a>
</g>
</g>
<!-- Node21&#45;&gt;Node29 -->
<g id="edge59" class="edge">
<title>Node21&#45;&gt;Node29</title>
<path fill="none" stroke="midnightblue" d="M531.65,-794.48C505.01,-784.31 460.29,-767.26 429.99,-755.7"/>
<polygon fill="midnightblue" stroke="midnightblue" points="430.9,-752.3 420.31,-752.01 428.41,-758.84 430.9,-752.3"/>
</g>
<!-- Node31 -->
<g id="node31" class="node">
<title>Node31</title>
<g id="a_node31"><a xlink:href="f__pc__profile_8h.html" target="_top" xlink:title=" ">
<polygon fill="white" stroke="black" points="188.5,-733 188.5,-752 289.5,-752 289.5,-733 188.5,-733"/>
<text text-anchor="middle" x="239" y="-740" font-family="Helvetica,sans-Serif" font-size="10.00">f/f_pc/f_pc_profile.h</text>
</a>
</g>
</g>
<!-- Node21&#45;&gt;Node31 -->
<g id="edge64" class="edge">
<title>Node21&#45;&gt;Node31</title>
<path fill="none" stroke="midnightblue" d="M505.49,-794.88C455.04,-786.29 373.82,-772.07 304,-758 298.19,-756.83 292.1,-755.55 286.08,-754.24"/>
<polygon fill="midnightblue" stroke="midnightblue" points="286.58,-750.77 276.07,-752.05 285.08,-757.61 286.58,-750.77"/>
</g>
<!-- Node22&#45;&gt;Node4 -->
<g id="edge38" class="edge">
<title>Node22&#45;&gt;Node4</title>
<path fill="none" stroke="midnightblue" d="M476.87,-604.45C461.98,-588.11 430.97,-550.59 421,-512 418.78,-503.39 418.7,-500.59 421,-492 423.65,-482.1 429.07,-472.13 434.27,-464.1"/>
<polygon fill="midnightblue" stroke="midnightblue" points="437.29,-465.89 440.11,-455.68 431.54,-461.91 437.29,-465.89"/>
</g>
<!-- Node22&#45;&gt;Node5 -->
<g id="edge42" class="edge">
<title>Node22&#45;&gt;Node5</title>
<path fill="none" stroke="midnightblue" d="M471.8,-604.32C460.11,-596.1 443.21,-582.83 432,-568 399.03,-524.36 392.6,-509.45 381,-456 379.12,-447.31 378.92,-444.64 381,-436 383.31,-426.42 388.02,-416.58 392.58,-408.56"/>
<polygon fill="midnightblue" stroke="midnightblue" points="395.69,-410.17 397.9,-399.81 389.71,-406.54 395.69,-410.17"/>
</g>
<!-- Node23 -->
<g id="node23" class="node">
<title>Node23</title>
<g id="a_node23"><a xlink:href="c__list_8h.html" target="_top" xlink:title=" ">
<polygon fill="white" stroke="black" points="429.5,-492.5 429.5,-511.5 536.5,-511.5 536.5,-492.5 429.5,-492.5"/>
<text text-anchor="middle" x="483" y="-499.5" font-family="Helvetica,sans-Serif" font-size="10.00">SComponent/c_list.h</text>
</a>
</g>
</g>
<!-- Node22&#45;&gt;Node23 -->
<g id="edge36" class="edge">
<title>Node22&#45;&gt;Node23</title>
<path fill="none" stroke="midnightblue" d="M477.85,-604.36C471.23,-595.76 461.84,-581.87 458,-568 453.38,-551.31 461.75,-532.95 470.03,-520.01"/>
<polygon fill="midnightblue" stroke="midnightblue" points="473.01,-521.86 475.85,-511.65 467.27,-517.86 473.01,-521.86"/>
</g>
<!-- Node24 -->
<g id="node24" class="node">
<title>Node24</title>
<g id="a_node24"><a xlink:href="c__tree_8h.html" target="_top" xlink:title=" ">
<polygon fill="white" stroke="black" points="467,-548.5 467,-567.5 577,-567.5 577,-548.5 467,-548.5"/>
<text text-anchor="middle" x="522" y="-555.5" font-family="Helvetica,sans-Serif" font-size="10.00">SComponent/c_tree.h</text>
</a>
</g>
</g>
<!-- Node22&#45;&gt;Node24 -->
<g id="edge39" class="edge">
<title>Node22&#45;&gt;Node24</title>
<path fill="none" stroke="midnightblue" d="M491.11,-604.08C496.28,-596.53 503.85,-585.49 510.19,-576.23"/>
<polygon fill="midnightblue" stroke="midnightblue" points="513.24,-577.98 516,-567.75 507.46,-574.02 513.24,-577.98"/>
</g>
<!-- Node23&#45;&gt;Node4 -->
<g id="edge37" class="edge">
<title>Node23&#45;&gt;Node4</title>
<path fill="none" stroke="midnightblue" d="M477.06,-492.08C472.02,-484.53 464.66,-473.49 458.49,-464.23"/>
<polygon fill="midnightblue" stroke="midnightblue" points="461.29,-462.13 452.83,-455.75 455.47,-466.01 461.29,-462.13"/>
</g>
<!-- Node24&#45;&gt;Node4 -->
<g id="edge41" class="edge">
<title>Node24&#45;&gt;Node4</title>
<path fill="none" stroke="midnightblue" d="M529.83,-548.46C540.72,-535.49 557.85,-510.41 546,-492 535.69,-475.99 518.15,-465.62 500.67,-458.92"/>
<polygon fill="midnightblue" stroke="midnightblue" points="501.6,-455.54 491.01,-455.56 499.3,-462.15 501.6,-455.54"/>
</g>
<!-- Node24&#45;&gt;Node23 -->
<g id="edge40" class="edge">
<title>Node24&#45;&gt;Node23</title>
<path fill="none" stroke="midnightblue" d="M515.56,-548.08C510.05,-540.46 501.97,-529.26 495.24,-519.94"/>
<polygon fill="midnightblue" stroke="midnightblue" points="498.01,-517.81 489.32,-511.75 492.34,-521.91 498.01,-517.81"/>
</g>
<!-- Node25&#45;&gt;Node5 -->
<g id="edge51" class="edge">
<title>Node25&#45;&gt;Node5</title>
<path fill="none" stroke="midnightblue" d="M560.88,-727.21C574.8,-696.95 605,-623.81 605,-559 605,-559 605,-559 605,-501 605,-426.29 496.82,-402 439.19,-394.35"/>
<polygon fill="midnightblue" stroke="midnightblue" points="439.4,-390.85 429.05,-393.11 438.55,-397.8 439.4,-390.85"/>
</g>
<!-- Node25&#45;&gt;Node22 -->
<g id="edge45" class="edge">
<title>Node25&#45;&gt;Node22</title>
<path fill="none" stroke="midnightblue" d="M554.48,-727.23C554.43,-710.11 552.29,-681.09 540,-660 532.65,-647.38 520.34,-636.81 509.23,-629.1"/>
<polygon fill="midnightblue" stroke="midnightblue" points="510.98,-626.06 500.69,-623.53 507.16,-631.92 510.98,-626.06"/>
</g>
<!-- Node25&#45;&gt;Node26 -->
<g id="edge46" class="edge">
<title>Node25&#45;&gt;Node26</title>
<path fill="none" stroke="midnightblue" d="M589.15,-727.4C617.83,-715.89 657.94,-699.8 685.33,-688.81"/>
<polygon fill="midnightblue" stroke="midnightblue" points="686.82,-691.98 694.8,-685.01 684.21,-685.48 686.82,-691.98"/>
</g>
<!-- Node26&#45;&gt;Node4 -->
<g id="edge47" class="edge">
<title>Node26&#45;&gt;Node4</title>
<path fill="none" stroke="midnightblue" d="M710.99,-665.95C693.83,-637.35 634.47,-543.89 562,-492 540.67,-476.72 513.45,-465.77 490.84,-458.49"/>
<polygon fill="midnightblue" stroke="midnightblue" points="491.74,-455.11 481.15,-455.51 489.67,-461.8 491.74,-455.11"/>
</g>
<!-- Node26&#45;&gt;Node5 -->
<g id="edge50" class="edge">
<title>Node26&#45;&gt;Node5</title>
<path fill="none" stroke="midnightblue" d="M714.86,-665.82C712.44,-646.62 707,-599.02 707,-559 707,-559 707,-559 707,-501 707,-452.38 663.37,-455.88 619,-436 559.36,-409.28 483.22,-398.17 439.4,-393.74"/>
<polygon fill="midnightblue" stroke="midnightblue" points="439.53,-390.24 429.25,-392.78 438.87,-397.21 439.53,-390.24"/>
</g>
<!-- Node26&#45;&gt;Node22 -->
<g id="edge48" class="edge">
<title>Node26&#45;&gt;Node22</title>
<path fill="none" stroke="midnightblue" d="M682.9,-665.98C642.08,-655.46 572.59,-637.56 527.76,-626.01"/>
<polygon fill="midnightblue" stroke="midnightblue" points="528.59,-622.61 518.04,-623.51 526.85,-629.39 528.59,-622.61"/>
</g>
<!-- Node26&#45;&gt;Node24 -->
<g id="edge49" class="edge">
<title>Node26&#45;&gt;Node24</title>
<path fill="none" stroke="midnightblue" d="M701.42,-665.82C667.98,-645.91 585.56,-596.84 545.13,-572.77"/>
<polygon fill="midnightblue" stroke="midnightblue" points="546.87,-569.73 536.49,-567.62 543.29,-575.75 546.87,-569.73"/>
</g>
<!-- Node27&#45;&gt;Node5 -->
<g id="edge55" class="edge">
<title>Node27&#45;&gt;Node5</title>
<path fill="none" stroke="midnightblue" d="M729.65,-732.98C742.75,-724.1 762.1,-708.97 773,-691 791.06,-661.23 792,-649.82 792,-615 792,-615 792,-615 792,-501 792,-428.03 534.78,-400.96 439.2,-393.42"/>
<polygon fill="midnightblue" stroke="midnightblue" points="439.4,-389.93 429.16,-392.66 438.86,-396.91 439.4,-389.93"/>
</g>
<!-- Node27&#45;&gt;Node22 -->
<g id="edge53" class="edge">
<title>Node27&#45;&gt;Node22</title>
<path fill="none" stroke="midnightblue" d="M700.12,-732.81C660.55,-711.13 557.29,-654.59 509.69,-628.52"/>
<polygon fill="midnightblue" stroke="midnightblue" points="511.14,-625.32 500.68,-623.59 507.77,-631.46 511.14,-625.32"/>
</g>
<!-- Node27&#45;&gt;Node26 -->
<g id="edge54" class="edge">
<title>Node27&#45;&gt;Node26</title>
<path fill="none" stroke="midnightblue" d="M716,-732.73C716,-723.18 716,-707.62 716,-695.28"/>
<polygon fill="midnightblue" stroke="midnightblue" points="719.5,-695.13 716,-685.13 712.5,-695.13 719.5,-695.13"/>
</g>
<!-- Node28&#45;&gt;Node5 -->
<g id="edge58" class="edge">
<title>Node28&#45;&gt;Node5</title>
<path fill="none" stroke="midnightblue" d="M280.29,-665.8C270.54,-646.94 249,-600.59 249,-559 249,-559 249,-559 249,-501 249,-442.56 323.18,-412.33 368.91,-399.25"/>
<polygon fill="midnightblue" stroke="midnightblue" points="370.02,-402.58 378.75,-396.57 368.18,-395.82 370.02,-402.58"/>
</g>
<!-- Node28&#45;&gt;Node22 -->
<g id="edge57" class="edge">
<title>Node28&#45;&gt;Node22</title>
<path fill="none" stroke="midnightblue" d="M313.66,-665.98C348.56,-655.59 407.65,-638.01 446.5,-626.45"/>
<polygon fill="midnightblue" stroke="midnightblue" points="447.81,-629.72 456.4,-623.51 445.82,-623.01 447.81,-629.72"/>
</g>
<!-- Node29&#45;&gt;Node22 -->
<g id="edge60" class="edge">
<title>Node29&#45;&gt;Node22</title>
<path fill="none" stroke="midnightblue" d="M417.07,-732.95C433.43,-724.62 456.32,-710.36 469,-691 480.18,-673.94 483.73,-650.5 484.77,-634.18"/>
<polygon fill="midnightblue" stroke="midnightblue" points="488.28,-633.87 485.15,-623.75 481.29,-633.61 488.28,-633.87"/>
</g>
<!-- Node30 -->
<g id="node30" class="node">
<title>Node30</title>
<g id="a_node30"><a xlink:href="f__pc__method__tag_8h.html" target="_top" xlink:title=" ">
<polygon fill="white" stroke="black" points="358.5,-660.5 358.5,-690.5 459.5,-690.5 459.5,-660.5 358.5,-660.5"/>
<text text-anchor="start" x="366.5" y="-678.5" font-family="Helvetica,sans-Serif" font-size="10.00">f/f_pc/f_pc_method</text>
<text text-anchor="middle" x="409" y="-667.5" font-family="Helvetica,sans-Serif" font-size="10.00">_tag.h</text>
</a>
</g>
</g>
<!-- Node29&#45;&gt;Node30 -->
<g id="edge61" class="edge">
<title>Node29&#45;&gt;Node30</title>
<path fill="none" stroke="midnightblue" d="M399.48,-732.73C400.87,-724.54 403.01,-711.92 404.9,-700.71"/>
<polygon fill="midnightblue" stroke="midnightblue" points="408.4,-701.03 406.62,-690.59 401.5,-699.86 408.4,-701.03"/>
</g>
<!-- Node30&#45;&gt;Node5 -->
<g id="edge63" class="edge">
<title>Node30&#45;&gt;Node5</title>
<path fill="none" stroke="midnightblue" d="M375.99,-660.47C339.85,-642.63 287,-608.15 287,-559 287,-559 287,-559 287,-501 287,-453.6 338.6,-420.64 373.27,-403.85"/>
<polygon fill="midnightblue" stroke="midnightblue" points="374.95,-406.93 382.54,-399.54 372,-400.58 374.95,-406.93"/>
</g>
<!-- Node30&#45;&gt;Node22 -->
<g id="edge62" class="edge">
<title>Node30&#45;&gt;Node22</title>
<path fill="none" stroke="midnightblue" d="M427.01,-660.4C438.74,-651.22 454.02,-639.26 465.94,-629.92"/>
<polygon fill="midnightblue" stroke="midnightblue" points="468.22,-632.58 473.94,-623.66 463.91,-627.07 468.22,-632.58"/>
</g>
<!-- Node31&#45;&gt;Node5 -->
<g id="edge67" class="edge">
<title>Node31&#45;&gt;Node5</title>
<path fill="none" stroke="midnightblue" d="M234.61,-732.86C224.81,-712.75 202,-660.99 202,-615 202,-615 202,-615 202,-501 202,-426 310.72,-401.84 368.64,-394.29"/>
<polygon fill="midnightblue" stroke="midnightblue" points="369.31,-397.74 378.82,-393.07 368.48,-390.79 369.31,-397.74"/>
</g>
<!-- Node32 -->
<g id="node32" class="node">
<title>Node32</title>
<g id="a_node32"><a xlink:href="f__pc__method_8h.html" target="_top" xlink:title=" ">
<polygon fill="white" stroke="black" points="66,-666 66,-685 174,-685 174,-666 66,-666"/>
<text text-anchor="middle" x="120" y="-673" font-family="Helvetica,sans-Serif" font-size="10.00">f/f_pc/f_pc_method.h</text>
</a>
</g>
</g>
<!-- Node31&#45;&gt;Node32 -->
<g id="edge65" class="edge">
<title>Node31&#45;&gt;Node32</title>
<path fill="none" stroke="midnightblue" d="M222.95,-732.73C202.88,-721.77 168.3,-702.88 144.81,-690.05"/>
<polygon fill="midnightblue" stroke="midnightblue" points="146.25,-686.85 135.79,-685.13 142.89,-692.99 146.25,-686.85"/>
</g>
<!-- Node32&#45;&gt;Node5 -->
<g id="edge66" class="edge">
<title>Node32&#45;&gt;Node5</title>
<path fill="none" stroke="midnightblue" d="M122.79,-665.91C128.71,-646.88 142,-599.62 142,-559 142,-559 142,-559 142,-501 142,-403.87 296.98,-391.08 368.55,-390.35"/>
<polygon fill="midnightblue" stroke="midnightblue" points="368.89,-393.85 378.88,-390.32 368.87,-386.85 368.89,-393.85"/>
</g>
<!-- Node33&#45;&gt;Node3 -->
<g id="edge71" class="edge">
<title>Node33&#45;&gt;Node3</title>
<path fill="none" stroke="midnightblue" d="M206.91,-850.44C225.25,-841.68 254.01,-827.94 275.09,-817.86"/>
<polygon fill="midnightblue" stroke="midnightblue" points="276.67,-820.99 284.18,-813.52 273.65,-814.67 276.67,-820.99"/>
</g>
<!-- Node33&#45;&gt;Node5 -->
<g id="edge73" class="edge">
<title>Node33&#45;&gt;Node5</title>
<path fill="none" stroke="midnightblue" d="M137.85,-850.45C81.88,-837.83 0,-808.3 0,-743.5 0,-743.5 0,-743.5 0,-501 0,-424.9 270.23,-399.7 368.67,-393.04"/>
<polygon fill="midnightblue" stroke="midnightblue" points="368.98,-396.53 378.73,-392.39 368.52,-389.55 368.98,-396.53"/>
</g>
<!-- Node33&#45;&gt;Node26 -->
<g id="edge72" class="edge">
<title>Node33&#45;&gt;Node26</title>
<path fill="none" stroke="midnightblue" d="M191.1,-850.48C195.15,-836.09 205.49,-807.24 226,-794 298.19,-747.39 531.28,-790.07 611,-758 631.54,-749.74 632.54,-740.62 650,-727 665.53,-714.89 683.26,-701.34 696.43,-691.32"/>
<polygon fill="midnightblue" stroke="midnightblue" points="698.89,-693.85 704.74,-685.02 694.66,-688.27 698.89,-693.85"/>
</g>
<!-- Node34&#45;&gt;Node3 -->
<g id="edge76" class="edge">
<title>Node34&#45;&gt;Node3</title>
<path fill="none" stroke="midnightblue" d="M317.03,-850.08C314.62,-842.85 311.14,-832.41 308.13,-823.4"/>
<polygon fill="midnightblue" stroke="midnightblue" points="311.4,-822.13 304.92,-813.75 304.76,-824.34 311.4,-822.13"/>
</g>
<!-- Node35&#45;&gt;Node21 -->
<g id="edge78" class="edge">
<title>Node35&#45;&gt;Node21</title>
<path fill="none" stroke="midnightblue" d="M569.86,-850.08C567.32,-842.85 563.64,-832.41 560.47,-823.4"/>
<polygon fill="midnightblue" stroke="midnightblue" points="563.7,-822.02 557.08,-813.75 557.1,-824.35 563.7,-822.02"/>
</g>
<!-- Node35&#45;&gt;Node26 -->
<g id="edge79" class="edge">
<title>Node35&#45;&gt;Node26</title>
<path fill="none" stroke="midnightblue" d="M621.65,-850.9C671.9,-839.67 747.79,-814 783,-758 790.33,-746.34 789.15,-739.33 783,-727 774.95,-710.85 759,-698.51 744.69,-690.07"/>
<polygon fill="midnightblue" stroke="midnightblue" points="746.07,-686.83 735.62,-685.08 742.69,-692.97 746.07,-686.83"/>
</g>
<!-- Node35&#45;&gt;Node32 -->
<g id="edge80" class="edge">
<title>Node35&#45;&gt;Node32</title>
<path fill="none" stroke="midnightblue" d="M550.79,-850.44C514.91,-836.89 441.78,-810.34 378,-794 291.36,-771.8 255.87,-805.36 180,-758 155.36,-742.62 137.53,-713.13 127.98,-694.15"/>
<polygon fill="midnightblue" stroke="midnightblue" points="131.12,-692.6 123.65,-685.09 124.8,-695.62 131.12,-692.6"/>
</g>
<!-- Node36&#45;&gt;Node5 -->
<g id="edge83" class="edge">
<title>Node36&#45;&gt;Node5</title>
<path fill="none" stroke="midnightblue" d="M786.97,-850.49C822.95,-827.39 916,-759.62 916,-676.5 916,-676.5 916,-676.5 916,-501 916,-403.25 554.74,-392.1 439.13,-391.04"/>
<polygon fill="midnightblue" stroke="midnightblue" points="439.07,-387.54 429.04,-390.97 439.02,-394.54 439.07,-387.54"/>
</g>
<!-- Node36&#45;&gt;Node21 -->
<g id="edge82" class="edge">
<title>Node36&#45;&gt;Node21</title>
<path fill="none" stroke="midnightblue" d="M738.3,-850.44C700.42,-841.1 639.65,-826.12 598.34,-815.93"/>
<polygon fill="midnightblue" stroke="midnightblue" points="599.09,-812.51 588.54,-813.52 597.41,-819.31 599.09,-812.51"/>
</g>
</g>
</svg>
        <g id="navigator" transform="translate(0 0)" fill="#404254">
                <rect fill="#f2f5e9" fill-opacity="0.5" stroke="#606060" stroke-width=".5" x="0" y="0" width="60" height="60"/>
                <use id="zoomplus" xlink:href="#zoomPlus" x="17" y="9" onmousedown="handleZoom(evt,'in')"/>
                <use id="zoomminus" xlink:href="#zoomMin" x="42" y="9" onmousedown="handleZoom(evt,'out')"/>
                <use id="reset" xlink:href="#resetDef" x="30" y="36" onmousedown="handleReset()"/>
                <g id="arrowUp" xlink:href="#dirArrow" transform="translate(30 24)" onmousedown="handlePan(0,-1)">
                  <use xlink:href="#rim" fill="#404040">
                        <set attributeName="fill" to="#808080" begin="arrowUp.mouseover" end="arrowUp.mouseout"/>
                  </use>
                  <path fill="none" stroke="white" stroke-width="1.5" d="M0,-3.0v7 M-2.5,-0.5L0,-3.0L2.5,-0.5"/>
                </g>
                <g id="arrowRight" xlink:href="#dirArrow" transform="rotate(90) translate(36 -43)" onmousedown="handlePan(1,0)">
                  <use xlink:href="#rim" fill="#404040">
                        <set attributeName="fill" to="#808080" begin="arrowRight.mouseover" end="arrowRight.mouseout"/>
                  </use>
                  <path fill="none" stroke="white" stroke-width="1.5" d="M0,-3.0v7 M-2.5,-0.5L0,-3.0L2.5,-0.5"/>
                </g>
                <g id="arrowDown" xlink:href="#dirArrow" transform="rotate(180) translate(-30 -48)" onmousedown="handlePan(0,1)">
                  <use xlink:href="#rim" fill="#404040">
                        <set attributeName="fill" to="#808080" begin="arrowDown.mouseover" end="arrowDown.mouseout"/>
                  </use>
                  <path fill="none" stroke="white" stroke-width="1.5" d="M0,-3.0v7 M-2.5,-0.5L0,-3.0L2.5,-0.5"/>
                </g>
                <g id="arrowLeft" xlink:href="#dirArrow" transform="rotate(270) translate(-36 17)" onmousedown="handlePan(-1,0)">
                  <use xlink:href="#rim" fill="#404040">
                        <set attributeName="fill" to="#808080" begin="arrowLeft.mouseover" end="arrowLeft.mouseout"/>
                  </use>
                  <path fill="none" stroke="white" stroke-width="1.5" d="M0,-3.0v7 M-2.5,-0.5L0,-3.0L2.5,-0.5"/>
                </g>
        </g>
        <svg viewBox="0 0 15 15" width="100%" height="30px" preserveAspectRatio="xMaxYMin meet">
         <g id="arrow_out" transform="scale(0.3 0.3)">
          <a xlink:href="f__pc__executor_8cpp__incl_org.svg" target="_base">
           <rect id="button" ry="5" rx="5" y="6" x="6" height="38" width="38"
                fill="#f2f5e9" fill-opacity="0.5" stroke="#606060" stroke-width="1.0"/>
           <path id="arrow"
             d="M 11.500037,31.436501 C 11.940474,20.09759 22.043105,11.32322 32.158766,21.979434 L 37.068811,17.246167 C 37.068811,17.246167 37.088388,32 37.088388,32 L 22.160133,31.978069 C 22.160133,31.978069 26.997745,27.140456 26.997745,27.140456 C 18.528582,18.264221 13.291696,25.230495 11.500037,31.436501 z"
             style="fill:#404040;"/>
          </a>
         </g>
        </svg>
</svg>
