<?xml version="1.0" encoding="UTF-8" standalone="no"?>
<!DOCTYPE svg PUBLIC "-//W3C//DTD SVG 1.1//EN"
 "http://www.w3.org/Graphics/SVG/1.1/DTD/svg11.dtd">
<!-- Generated by graphviz version 2.46.0 (20210122.1329)
 -->
<!-- Title: include/f/f_pc/f_pc_node.h Pages: 1 -->
<svg width="1094pt" height="229pt"
 viewBox="0.00 0.00 1094.00 229.00" xmlns="http://www.w3.org/2000/svg" xmlns:xlink="http://www.w3.org/1999/xlink">
<g id="graph0" class="graph" transform="scale(1 1) rotate(0) translate(4 225)">
<title>include/f/f_pc/f_pc_node.h</title>
<polygon fill="white" stroke="transparent" points="-4,4 -4,-225 1090,-225 1090,4 -4,4"/>
<!-- Node1 -->
<g id="node1" class="node">
<title>Node1</title>
<g id="a_node1"><a xlink:title=" ">
<polygon fill="#bfbfbf" stroke="black" points="450.5,-190.5 450.5,-220.5 547.5,-220.5 547.5,-190.5 450.5,-190.5"/>
<text text-anchor="start" x="458.5" y="-208.5" font-family="Helvetica,sans-Serif" font-size="10.00">include/f/f_pc/f_pc</text>
<text text-anchor="middle" x="499" y="-197.5" font-family="Helvetica,sans-Serif" font-size="10.00">_node.h</text>
</a>
</g>
</g>
<!-- Node2 -->
<g id="node2" class="node">
<title>Node2</title>
<g id="a_node2"><a xlink:href="f__pc__deletor_8cpp.html" target="_top" xlink:title=" ">
<polygon fill="white" stroke="black" points="0,-129 0,-148 132,-148 132,-129 0,-129"/>
<text text-anchor="middle" x="66" y="-136" font-family="Helvetica,sans-Serif" font-size="10.00">src/f/f_pc/f_pc_deletor.cpp</text>
</a>
</g>
</g>
<!-- Node1&#45;&gt;Node2 -->
<g id="edge1" class="edge">
<title>Node1&#45;&gt;Node2</title>
<path fill="none" stroke="midnightblue" d="M440.14,-197.13C369.08,-188.02 246.03,-171.55 141,-154 130.27,-152.21 118.72,-150.08 107.98,-148.01"/>
<polygon fill="midnightblue" stroke="midnightblue" points="439.88,-200.62 450.24,-198.42 440.76,-193.68 439.88,-200.62"/>
</g>
<!-- Node3 -->
<g id="node3" class="node">
<title>Node3</title>
<g id="a_node3"><a xlink:href="f__pc__executor_8cpp.html" target="_top" xlink:title=" ">
<polygon fill="white" stroke="black" points="150,-129 150,-148 290,-148 290,-129 150,-129"/>
<text text-anchor="middle" x="220" y="-136" font-family="Helvetica,sans-Serif" font-size="10.00">src/f/f_pc/f_pc_executor.cpp</text>
</a>
</g>
</g>
<!-- Node1&#45;&gt;Node3 -->
<g id="edge2" class="edge">
<title>Node1&#45;&gt;Node3</title>
<path fill="none" stroke="midnightblue" d="M440.35,-190.84C384.84,-177.9 303.24,-158.89 256.49,-148"/>
<polygon fill="midnightblue" stroke="midnightblue" points="439.87,-194.32 450.4,-193.18 441.46,-187.5 439.87,-194.32"/>
</g>
<!-- Node4 -->
<g id="node4" class="node">
<title>Node4</title>
<g id="a_node4"><a xlink:href="f__pc__node_8cpp.html" target="_top" xlink:title=" ">
<polygon fill="white" stroke="black" points="308,-129 308,-148 432,-148 432,-129 308,-129"/>
<text text-anchor="middle" x="370" y="-136" font-family="Helvetica,sans-Serif" font-size="10.00">src/f/f_pc/f_pc_node.cpp</text>
</a>
</g>
</g>
<!-- Node1&#45;&gt;Node4 -->
<g id="edge3" class="edge">
<title>Node1&#45;&gt;Node4</title>
<path fill="none" stroke="midnightblue" d="M461.89,-185.8C437.16,-173.34 405.83,-157.56 386.88,-148.01"/>
<polygon fill="midnightblue" stroke="midnightblue" points="460.5,-189.02 471.01,-190.4 463.65,-182.77 460.5,-189.02"/>
</g>
<!-- Node5 -->
<g id="node5" class="node">
<title>Node5</title>
<g id="a_node5"><a xlink:href="f__pc__pause_8cpp.html" target="_top" xlink:title=" ">
<polygon fill="white" stroke="black" points="634.5,-62 634.5,-81 763.5,-81 763.5,-62 634.5,-62"/>
<text text-anchor="middle" x="699" y="-69" font-family="Helvetica,sans-Serif" font-size="10.00">src/f/f_pc/f_pc_pause.cpp</text>
</a>
</g>
</g>
<!-- Node1&#45;&gt;Node5 -->
<g id="edge4" class="edge">
<title>Node1&#45;&gt;Node5</title>
<path fill="none" stroke="midnightblue" d="M557.78,-197.73C610.64,-190.28 682.59,-176.32 700,-154 716.71,-132.58 707.79,-97.44 702.29,-81.22"/>
<polygon fill="midnightblue" stroke="midnightblue" points="557.25,-194.27 547.81,-199.09 558.19,-201.2 557.25,-194.27"/>
</g>
<!-- Node6 -->
<g id="node6" class="node">
<title>Node6</title>
<g id="a_node6"><a xlink:href="f__pc__stdcreate__req_8cpp.html" target="_top" xlink:title=" ">
<polygon fill="white" stroke="black" points="565.5,-123.5 565.5,-153.5 690.5,-153.5 690.5,-123.5 565.5,-123.5"/>
<text text-anchor="start" x="573.5" y="-141.5" font-family="Helvetica,sans-Serif" font-size="10.00">src/f/f_pc/f_pc_stdcreate</text>
<text text-anchor="middle" x="628" y="-130.5" font-family="Helvetica,sans-Serif" font-size="10.00">_req.cpp</text>
</a>
</g>
</g>
<!-- Node1&#45;&gt;Node6 -->
<g id="edge5" class="edge">
<title>Node1&#45;&gt;Node6</title>
<path fill="none" stroke="midnightblue" d="M536.01,-185.85C556.4,-175.58 581.31,-163.03 600.06,-153.58"/>
<polygon fill="midnightblue" stroke="midnightblue" points="534.35,-182.77 526.99,-190.4 537.5,-189.02 534.35,-182.77"/>
</g>
<!-- Node7 -->
<g id="node7" class="node">
<title>Node7</title>
<g id="a_node7"><a xlink:href="f__pc__node__req_8h.html" target="_top" xlink:title=" ">
<polygon fill="white" stroke="black" points="450.5,-123.5 450.5,-153.5 547.5,-153.5 547.5,-123.5 450.5,-123.5"/>
<text text-anchor="start" x="458.5" y="-141.5" font-family="Helvetica,sans-Serif" font-size="10.00">include/f/f_pc/f_pc</text>
<text text-anchor="middle" x="499" y="-130.5" font-family="Helvetica,sans-Serif" font-size="10.00">_node_req.h</text>
</a>
</g>
</g>
<!-- Node1&#45;&gt;Node7 -->
<g id="edge6" class="edge">
<title>Node1&#45;&gt;Node7</title>
<path fill="none" stroke="midnightblue" d="M499,-180.11C499,-171.15 499,-161.32 499,-153.58"/>
<polygon fill="midnightblue" stroke="midnightblue" points="495.5,-180.4 499,-190.4 502.5,-180.4 495.5,-180.4"/>
</g>
<!-- Node12 -->
<g id="node12" class="node">
<title>Node12</title>
<g id="a_node12"><a xlink:href="f__pc__pause_8h.html" target="_top" xlink:title=" ">
<polygon fill="white" stroke="black" points="747.5,-123.5 747.5,-153.5 844.5,-153.5 844.5,-123.5 747.5,-123.5"/>
<text text-anchor="start" x="755.5" y="-141.5" font-family="Helvetica,sans-Serif" font-size="10.00">include/f/f_pc/f_pc</text>
<text text-anchor="middle" x="796" y="-130.5" font-family="Helvetica,sans-Serif" font-size="10.00">_pause.h</text>
</a>
</g>
</g>
<!-- Node1&#45;&gt;Node12 -->
<g id="edge12" class="edge">
<title>Node1&#45;&gt;Node12</title>
<path fill="none" stroke="midnightblue" d="M557.97,-192.01C605.31,-181.92 673.48,-167.27 733,-154 737.6,-152.97 742.39,-151.89 747.18,-150.81"/>
<polygon fill="midnightblue" stroke="midnightblue" points="556.95,-188.65 547.89,-194.15 558.4,-195.49 556.95,-188.65"/>
</g>
<!-- Node8 -->
<g id="node8" class="node">
<title>Node8</title>
<g id="a_node8"><a xlink:href="f__pc__manager_8cpp.html" target="_top" xlink:title=" ">
<polygon fill="white" stroke="black" points="555,-0.5 555,-19.5 695,-19.5 695,-0.5 555,-0.5"/>
<text text-anchor="middle" x="625" y="-7.5" font-family="Helvetica,sans-Serif" font-size="10.00">src/f/f_pc/f_pc_manager.cpp</text>
</a>
</g>
</g>
<!-- Node7&#45;&gt;Node8 -->
<g id="edge7" class="edge">
<title>Node7&#45;&gt;Node8</title>
<path fill="none" stroke="midnightblue" d="M526.88,-117.12C538.22,-108.34 551.17,-97.65 562,-87 584.73,-64.65 607.69,-34.65 618.54,-19.93"/>
<polygon fill="midnightblue" stroke="midnightblue" points="524.43,-114.59 518.59,-123.43 528.67,-120.16 524.43,-114.59"/>
</g>
<!-- Node9 -->
<g id="node9" class="node">
<title>Node9</title>
<g id="a_node9"><a xlink:href="f__pc__node__req_8cpp.html" target="_top" xlink:title=" ">
<polygon fill="white" stroke="black" points="332,-56.5 332,-86.5 438,-86.5 438,-56.5 332,-56.5"/>
<text text-anchor="start" x="340" y="-74.5" font-family="Helvetica,sans-Serif" font-size="10.00">src/f/f_pc/f_pc_node</text>
<text text-anchor="middle" x="385" y="-63.5" font-family="Helvetica,sans-Serif" font-size="10.00">_req.cpp</text>
</a>
</g>
</g>
<!-- Node7&#45;&gt;Node9 -->
<g id="edge8" class="edge">
<title>Node7&#45;&gt;Node9</title>
<path fill="none" stroke="midnightblue" d="M465.32,-118.3C447.48,-108.12 425.96,-95.85 409.69,-86.58"/>
<polygon fill="midnightblue" stroke="midnightblue" points="463.84,-121.48 474.26,-123.4 467.31,-115.4 463.84,-121.48"/>
</g>
<!-- Node10 -->
<g id="node10" class="node">
<title>Node10</title>
<g id="a_node10"><a xlink:href="f__pc__manager_8h.html" target="_top" xlink:title=" ">
<polygon fill="white" stroke="black" points="455.5,-56.5 455.5,-86.5 552.5,-86.5 552.5,-56.5 455.5,-56.5"/>
<text text-anchor="start" x="463.5" y="-74.5" font-family="Helvetica,sans-Serif" font-size="10.00">include/f/f_pc/f_pc</text>
<text text-anchor="middle" x="504" y="-63.5" font-family="Helvetica,sans-Serif" font-size="10.00">_manager.h</text>
</a>
</g>
</g>
<!-- Node7&#45;&gt;Node10 -->
<g id="edge9" class="edge">
<title>Node7&#45;&gt;Node10</title>
<path fill="none" stroke="midnightblue" d="M500.85,-113.4C501.55,-104.37 502.31,-94.41 502.92,-86.58"/>
<polygon fill="midnightblue" stroke="midnightblue" points="497.36,-113.16 500.08,-123.4 504.34,-113.69 497.36,-113.16"/>
</g>
<!-- Node10&#45;&gt;Node8 -->
<g id="edge10" class="edge">
<title>Node10&#45;&gt;Node8</title>
<path fill="none" stroke="midnightblue" d="M541.74,-51.94C563.67,-41.16 590.26,-28.08 607.39,-19.66"/>
<polygon fill="midnightblue" stroke="midnightblue" points="540.1,-48.85 532.68,-56.4 543.19,-55.13 540.1,-48.85"/>
</g>
<!-- Node11 -->
<g id="node11" class="node">
<title>Node11</title>
<g id="a_node11"><a xlink:href="d__a__alink_8cpp.html" target="_top" xlink:title=" ">
<polygon fill="white" stroke="black" points="417.5,-0.5 417.5,-19.5 536.5,-19.5 536.5,-0.5 417.5,-0.5"/>
<text text-anchor="middle" x="477" y="-7.5" font-family="Helvetica,sans-Serif" font-size="10.00">src/d/d_a/d_a_alink.cpp</text>
</a>
</g>
</g>
<!-- Node10&#45;&gt;Node11 -->
<g id="edge11" class="edge">
<title>Node10&#45;&gt;Node11</title>
<path fill="none" stroke="midnightblue" d="M493.43,-47.2C489.03,-37.52 484.21,-26.88 480.93,-19.66"/>
<polygon fill="midnightblue" stroke="midnightblue" points="490.28,-48.74 497.6,-56.4 496.66,-45.85 490.28,-48.74"/>
</g>
<!-- Node12&#45;&gt;Node5 -->
<g id="edge16" class="edge">
<title>Node12&#45;&gt;Node5</title>
<path fill="none" stroke="midnightblue" d="M766.36,-117.64C748.06,-105.37 725.51,-90.26 711.7,-81.01"/>
<polygon fill="midnightblue" stroke="midnightblue" points="764.7,-120.74 774.95,-123.4 768.59,-114.92 764.7,-120.74"/>
</g>
<!-- Node12&#45;&gt;Node8 -->
<g id="edge15" class="edge">
<title>Node12&#45;&gt;Node8</title>
<path fill="none" stroke="midnightblue" d="M795.18,-113.32C793.3,-95.27 787.9,-71.2 773,-56 752.51,-35.09 722.64,-23.83 695.09,-17.79"/>
<polygon fill="midnightblue" stroke="midnightblue" points="791.7,-113.69 795.94,-123.39 798.68,-113.16 791.7,-113.69"/>
</g>
<!-- Node13 -->
<g id="node13" class="node">
<title>Node13</title>
<g id="a_node13"><a xlink:href="f__pc__base_8cpp.html" target="_top" xlink:title=" ">
<polygon fill="white" stroke="black" points="820,-62 820,-81 944,-81 944,-62 820,-62"/>
<text text-anchor="middle" x="882" y="-69" font-family="Helvetica,sans-Serif" font-size="10.00">src/f/f_pc/f_pc_base.cpp</text>
</a>
</g>
</g>
<!-- Node12&#45;&gt;Node13 -->
<g id="edge13" class="edge">
<title>Node12&#45;&gt;Node13</title>
<path fill="none" stroke="midnightblue" d="M822.67,-117.34C838.72,-105.21 858.33,-90.39 870.5,-81.19"/>
<polygon fill="midnightblue" stroke="midnightblue" points="820.53,-114.57 814.66,-123.4 824.75,-120.16 820.53,-114.57"/>
</g>
<!-- Node14 -->
<g id="node14" class="node">
<title>Node14</title>
<g id="a_node14"><a xlink:href="f__pc__draw_8cpp.html" target="_top" xlink:title=" ">
<polygon fill="white" stroke="black" points="962,-62 962,-81 1086,-81 1086,-62 962,-62"/>
<text text-anchor="middle" x="1024" y="-69" font-family="Helvetica,sans-Serif" font-size="10.00">src/f/f_pc/f_pc_draw.cpp</text>
</a>
</g>
</g>
<!-- Node12&#45;&gt;Node14 -->
<g id="edge14" class="edge">
<title>Node12&#45;&gt;Node14</title>
<path fill="none" stroke="midnightblue" d="M854.47,-120.83C899.03,-108.13 958.56,-91.16 993.93,-81.07"/>
<polygon fill="midnightblue" stroke="midnightblue" points="853.29,-117.53 844.63,-123.64 855.21,-124.26 853.29,-117.53"/>
</g>
</g>
</svg>
