<?xml version="1.0" encoding="UTF-8" standalone="no"?>
<!DOCTYPE svg PUBLIC "-//W3C//DTD SVG 1.1//EN"
 "http://www.w3.org/Graphics/SVG/1.1/DTD/svg11.dtd">
<!-- Generated by graphviz version 2.46.0 (20210122.1329)
 -->
<!-- Title: include/f/f_pc/f_pc_pause.h Pages: 1 -->
<svg width="834pt" height="945pt"
 viewBox="0.00 0.00 834.00 945.00" xmlns="http://www.w3.org/2000/svg" xmlns:xlink="http://www.w3.org/1999/xlink">
<g id="graph0" class="graph" transform="scale(1 1) rotate(0) translate(4 941)">
<title>include/f/f_pc/f_pc_pause.h</title>
<polygon fill="white" stroke="transparent" points="-4,4 -4,-941 830,-941 830,4 -4,4"/>
<!-- Node1 -->
<g id="node1" class="node">
<title>Node1</title>
<g id="a_node1"><a xlink:title=" ">
<polygon fill="#bfbfbf" stroke="black" points="367.5,-906.5 367.5,-936.5 464.5,-936.5 464.5,-906.5 367.5,-906.5"/>
<text text-anchor="start" x="375.5" y="-924.5" font-family="Helvetica,sans-Serif" font-size="10.00">include/f/f_pc/f_pc</text>
<text text-anchor="middle" x="416" y="-913.5" font-family="Helvetica,sans-Serif" font-size="10.00">_pause.h</text>
</a>
</g>
</g>
<!-- Node2 -->
<g id="node2" class="node">
<title>Node2</title>
<g id="a_node2"><a xlink:href="f__pc__base_8h.html" target="_top" xlink:title=" ">
<polygon fill="white" stroke="black" points="367.5,-794.5 367.5,-813.5 464.5,-813.5 464.5,-794.5 367.5,-794.5"/>
<text text-anchor="middle" x="416" y="-801.5" font-family="Helvetica,sans-Serif" font-size="10.00">f/f_pc/f_pc_base.h</text>
</a>
</g>
</g>
<!-- Node1&#45;&gt;Node2 -->
<g id="edge1" class="edge">
<title>Node1&#45;&gt;Node2</title>
<path fill="none" stroke="midnightblue" d="M416,-906.34C416,-885.62 416,-847.02 416,-823.9"/>
<polygon fill="midnightblue" stroke="midnightblue" points="419.5,-823.67 416,-813.67 412.5,-823.67 419.5,-823.67"/>
</g>
<!-- Node6 -->
<g id="node6" class="node">
<title>Node6</title>
<g id="a_node6"><a xlink:href="global_8h.html" target="_top" xlink:title=" ">
<polygon fill="white" stroke="black" points="309,-380.5 309,-399.5 359,-399.5 359,-380.5 309,-380.5"/>
<text text-anchor="middle" x="334" y="-387.5" font-family="Helvetica,sans-Serif" font-size="10.00">global.h</text>
</a>
</g>
</g>
<!-- Node1&#45;&gt;Node6 -->
<g id="edge69" class="edge">
<title>Node1&#45;&gt;Node6</title>
<path fill="none" stroke="midnightblue" d="M367.11,-916.8C259.98,-907.34 14,-877.71 14,-805 14,-805 14,-805 14,-501 14,-454.49 53.7,-455.33 96,-436 163.38,-405.21 250.74,-395.49 298.67,-392.42"/>
<polygon fill="midnightblue" stroke="midnightblue" points="299.06,-395.9 308.84,-391.83 298.65,-388.91 299.06,-395.9"/>
</g>
<!-- Node31 -->
<g id="node31" class="node">
<title>Node31</title>
<g id="a_node31"><a xlink:href="f__pc__node_8h.html" target="_top" xlink:title=" ">
<polygon fill="white" stroke="black" points="524.5,-850.5 524.5,-869.5 621.5,-869.5 621.5,-850.5 524.5,-850.5"/>
<text text-anchor="middle" x="573" y="-857.5" font-family="Helvetica,sans-Serif" font-size="10.00">f/f_pc/f_pc_node.h</text>
</a>
</g>
</g>
<!-- Node1&#45;&gt;Node31 -->
<g id="edge65" class="edge">
<title>Node1&#45;&gt;Node31</title>
<path fill="none" stroke="midnightblue" d="M453.21,-906.4C479.78,-896.33 515.19,-882.91 540.61,-873.28"/>
<polygon fill="midnightblue" stroke="midnightblue" points="542.04,-876.47 550.16,-869.66 539.56,-869.93 542.04,-876.47"/>
</g>
<!-- Node3 -->
<g id="node3" class="node">
<title>Node3</title>
<g id="a_node3"><a xlink:href="c__tag_8h.html" target="_top" xlink:title=" ">
<polygon fill="white" stroke="black" points="356.5,-604.5 356.5,-623.5 463.5,-623.5 463.5,-604.5 356.5,-604.5"/>
<text text-anchor="middle" x="410" y="-611.5" font-family="Helvetica,sans-Serif" font-size="10.00">SComponent/c_tag.h</text>
</a>
</g>
</g>
<!-- Node2&#45;&gt;Node3 -->
<g id="edge2" class="edge">
<title>Node2&#45;&gt;Node3</title>
<path fill="none" stroke="midnightblue" d="M423.15,-794.36C429.77,-785.76 439.16,-771.87 443,-758 455.36,-713.37 433.53,-660.02 419.83,-632.84"/>
<polygon fill="midnightblue" stroke="midnightblue" points="422.82,-631 415.07,-623.77 416.62,-634.25 422.82,-631"/>
</g>
<!-- Node2&#45;&gt;Node6 -->
<g id="edge40" class="edge">
<title>Node2&#45;&gt;Node6</title>
<path fill="none" stroke="midnightblue" d="M367.26,-801.74C313.21,-798.75 224.48,-789.03 155,-758 101.7,-734.19 52,-734.88 52,-676.5 52,-676.5 52,-676.5 52,-501 52,-448.55 223.45,-411.02 298.98,-397.03"/>
<polygon fill="midnightblue" stroke="midnightblue" points="299.76,-400.44 308.97,-395.21 298.51,-393.55 299.76,-400.44"/>
</g>
<!-- Node23 -->
<g id="node23" class="node">
<title>Node23</title>
<g id="a_node23"><a xlink:href="f__pc__delete__tag_8h.html" target="_top" xlink:title=" ">
<polygon fill="white" stroke="black" points="490.5,-727.5 490.5,-757.5 585.5,-757.5 585.5,-727.5 490.5,-727.5"/>
<text text-anchor="start" x="498.5" y="-745.5" font-family="Helvetica,sans-Serif" font-size="10.00">f/f_pc/f_pc_delete</text>
<text text-anchor="middle" x="538" y="-734.5" font-family="Helvetica,sans-Serif" font-size="10.00">_tag.h</text>
</a>
</g>
</g>
<!-- Node2&#45;&gt;Node23 -->
<g id="edge41" class="edge">
<title>Node2&#45;&gt;Node23</title>
<path fill="none" stroke="midnightblue" d="M433.48,-794.48C450.77,-786.04 477.81,-772.86 500.05,-762.01"/>
<polygon fill="midnightblue" stroke="midnightblue" points="501.79,-765.05 509.25,-757.52 498.72,-758.76 501.79,-765.05"/>
</g>
<!-- Node25 -->
<g id="node25" class="node">
<title>Node25</title>
<g id="a_node25"><a xlink:href="f__pc__layer__tag_8h.html" target="_top" xlink:title=" ">
<polygon fill="white" stroke="black" points="318.5,-733 318.5,-752 433.5,-752 433.5,-733 318.5,-733"/>
<text text-anchor="middle" x="376" y="-740" font-family="Helvetica,sans-Serif" font-size="10.00">f/f_pc/f_pc_layer_tag.h</text>
</a>
</g>
</g>
<!-- Node2&#45;&gt;Node25 -->
<g id="edge49" class="edge">
<title>Node2&#45;&gt;Node25</title>
<path fill="none" stroke="midnightblue" d="M410.27,-794.48C404.33,-785.64 394.88,-771.59 387.41,-760.48"/>
<polygon fill="midnightblue" stroke="midnightblue" points="390.2,-758.36 381.72,-752.01 384.39,-762.26 390.2,-758.36"/>
</g>
<!-- Node26 -->
<g id="node26" class="node">
<title>Node26</title>
<g id="a_node26"><a xlink:href="f__pc__line__tag_8h.html" target="_top" xlink:title=" ">
<polygon fill="white" stroke="black" points="80,-666 80,-685 190,-685 190,-666 80,-666"/>
<text text-anchor="middle" x="135" y="-673" font-family="Helvetica,sans-Serif" font-size="10.00">f/f_pc/f_pc_line_tag.h</text>
</a>
</g>
</g>
<!-- Node2&#45;&gt;Node26 -->
<g id="edge53" class="edge">
<title>Node2&#45;&gt;Node26</title>
<path fill="none" stroke="midnightblue" d="M367.26,-797.96C309,-791.16 215.75,-777.6 187,-758 164.29,-742.51 149.36,-713.49 141.54,-694.58"/>
<polygon fill="midnightblue" stroke="midnightblue" points="144.72,-693.1 137.84,-685.04 138.19,-695.63 144.72,-693.1"/>
</g>
<!-- Node27 -->
<g id="node27" class="node">
<title>Node27</title>
<g id="a_node27"><a xlink:href="f__pc__priority_8h.html" target="_top" xlink:title=" ">
<polygon fill="white" stroke="black" points="196,-733 196,-752 300,-752 300,-733 196,-733"/>
<text text-anchor="middle" x="248" y="-740" font-family="Helvetica,sans-Serif" font-size="10.00">f/f_pc/f_pc_priority.h</text>
</a>
</g>
</g>
<!-- Node2&#45;&gt;Node27 -->
<g id="edge56" class="edge">
<title>Node2&#45;&gt;Node27</title>
<path fill="none" stroke="midnightblue" d="M391.93,-794.48C362.99,-784.22 314.24,-766.96 281.6,-755.4"/>
<polygon fill="midnightblue" stroke="midnightblue" points="282.62,-752.05 272.03,-752.01 280.28,-758.65 282.62,-752.05"/>
</g>
<!-- Node29 -->
<g id="node29" class="node">
<title>Node29</title>
<g id="a_node29"><a xlink:href="f__pc__profile_8h.html" target="_top" xlink:title=" ">
<polygon fill="white" stroke="black" points="642.5,-733 642.5,-752 743.5,-752 743.5,-733 642.5,-733"/>
<text text-anchor="middle" x="693" y="-740" font-family="Helvetica,sans-Serif" font-size="10.00">f/f_pc/f_pc_profile.h</text>
</a>
</g>
</g>
<!-- Node2&#45;&gt;Node29 -->
<g id="edge61" class="edge">
<title>Node2&#45;&gt;Node29</title>
<path fill="none" stroke="midnightblue" d="M455.69,-794.48C505.16,-783.85 589.72,-765.68 643.41,-754.15"/>
<polygon fill="midnightblue" stroke="midnightblue" points="644.34,-757.53 653.39,-752.01 642.87,-750.69 644.34,-757.53"/>
</g>
<!-- Node4 -->
<g id="node4" class="node">
<title>Node4</title>
<g id="a_node4"><a xlink:href="c__list_8h.html" target="_top" xlink:title=" ">
<polygon fill="white" stroke="black" points="400.5,-492.5 400.5,-511.5 507.5,-511.5 507.5,-492.5 400.5,-492.5"/>
<text text-anchor="middle" x="454" y="-499.5" font-family="Helvetica,sans-Serif" font-size="10.00">SComponent/c_list.h</text>
</a>
</g>
</g>
<!-- Node3&#45;&gt;Node4 -->
<g id="edge3" class="edge">
<title>Node3&#45;&gt;Node4</title>
<path fill="none" stroke="midnightblue" d="M411.87,-604.38C414.76,-591.73 420.84,-567.53 429,-548 432.96,-538.52 438.41,-528.47 443.21,-520.29"/>
<polygon fill="midnightblue" stroke="midnightblue" points="446.24,-522.04 448.42,-511.67 440.25,-518.42 446.24,-522.04"/>
</g>
<!-- Node5 -->
<g id="node5" class="node">
<title>Node5</title>
<g id="a_node5"><a xlink:href="c__node_8h.html" target="_top" xlink:title=" ">
<polygon fill="white" stroke="black" points="396.5,-436.5 396.5,-455.5 511.5,-455.5 511.5,-436.5 396.5,-436.5"/>
<text text-anchor="middle" x="454" y="-443.5" font-family="Helvetica,sans-Serif" font-size="10.00">SComponent/c_node.h</text>
</a>
</g>
</g>
<!-- Node3&#45;&gt;Node5 -->
<g id="edge35" class="edge">
<title>Node3&#45;&gt;Node5</title>
<path fill="none" stroke="midnightblue" d="M405.33,-604.22C394.99,-583.46 372.51,-530.22 392,-492 399,-478.27 412.37,-467.75 424.9,-460.35"/>
<polygon fill="midnightblue" stroke="midnightblue" points="426.67,-463.37 433.78,-455.51 423.32,-457.22 426.67,-463.37"/>
</g>
<!-- Node3&#45;&gt;Node6 -->
<g id="edge39" class="edge">
<title>Node3&#45;&gt;Node6</title>
<path fill="none" stroke="midnightblue" d="M403.62,-604.46C397.35,-595.7 387.88,-581.5 382,-568 358.01,-512.9 343.3,-442.83 337.23,-409.82"/>
<polygon fill="midnightblue" stroke="midnightblue" points="340.64,-409.01 335.44,-399.78 333.75,-410.23 340.64,-409.01"/>
</g>
<!-- Node22 -->
<g id="node22" class="node">
<title>Node22</title>
<g id="a_node22"><a xlink:href="c__tree_8h.html" target="_top" xlink:title=" ">
<polygon fill="white" stroke="black" points="438,-548.5 438,-567.5 548,-567.5 548,-548.5 438,-548.5"/>
<text text-anchor="middle" x="493" y="-555.5" font-family="Helvetica,sans-Serif" font-size="10.00">SComponent/c_tree.h</text>
</a>
</g>
</g>
<!-- Node3&#45;&gt;Node22 -->
<g id="edge36" class="edge">
<title>Node3&#45;&gt;Node22</title>
<path fill="none" stroke="midnightblue" d="M423.34,-604.32C436.16,-595.98 455.78,-583.21 470.94,-573.35"/>
<polygon fill="midnightblue" stroke="midnightblue" points="473.22,-576.04 479.7,-567.65 469.41,-570.17 473.22,-576.04"/>
</g>
<!-- Node4&#45;&gt;Node5 -->
<g id="edge4" class="edge">
<title>Node4&#45;&gt;Node5</title>
<path fill="none" stroke="midnightblue" d="M454,-492.08C454,-485.01 454,-474.86 454,-465.99"/>
<polygon fill="midnightblue" stroke="midnightblue" points="457.5,-465.75 454,-455.75 450.5,-465.75 457.5,-465.75"/>
</g>
<!-- Node5&#45;&gt;Node6 -->
<g id="edge5" class="edge">
<title>Node5&#45;&gt;Node6</title>
<path fill="none" stroke="midnightblue" d="M434.99,-436.44C415.41,-427.64 384.69,-413.81 362.27,-403.72"/>
<polygon fill="midnightblue" stroke="midnightblue" points="363.48,-400.43 352.93,-399.52 360.61,-406.81 363.48,-400.43"/>
</g>
<!-- Node7 -->
<g id="node7" class="node">
<title>Node7</title>
<g id="a_node7"><a xlink:href="types_8h.html" target="_top" xlink:title=" ">
<polygon fill="white" stroke="black" points="189.5,-0.5 189.5,-19.5 270.5,-19.5 270.5,-0.5 189.5,-0.5"/>
<text text-anchor="middle" x="230" y="-7.5" font-family="Helvetica,sans-Serif" font-size="10.00">dolphin/types.h</text>
</a>
</g>
</g>
<!-- Node6&#45;&gt;Node7 -->
<g id="edge6" class="edge">
<title>Node6&#45;&gt;Node7</title>
<path fill="none" stroke="midnightblue" d="M308.9,-385.85C231.22,-375.41 0,-338.84 0,-273.5 0,-273.5 0,-273.5 0,-137.5 0,-56.23 111.63,-26.8 179.35,-16.42"/>
<polygon fill="midnightblue" stroke="midnightblue" points="180.01,-19.86 189.41,-14.97 179.01,-12.93 180.01,-19.86"/>
</g>
<!-- Node8 -->
<g id="node8" class="node">
<title>Node8</title>
<g id="a_node8"><a xlink:href="AR_8h.html" target="_top" xlink:title=" ">
<polygon fill="white" stroke="black" points="67.5,-263 67.5,-282 116.5,-282 116.5,-263 67.5,-263"/>
<text text-anchor="middle" x="92" y="-270" font-family="Helvetica,sans-Serif" font-size="10.00">ar/AR.h</text>
</a>
</g>
</g>
<!-- Node6&#45;&gt;Node8 -->
<g id="edge7" class="edge">
<title>Node6&#45;&gt;Node8</title>
<path fill="none" stroke="midnightblue" d="M308.88,-388.95C269.32,-387.69 191.59,-380.35 139,-344 120.34,-331.1 107.1,-308.16 99.53,-291.95"/>
<polygon fill="midnightblue" stroke="midnightblue" points="102.59,-290.21 95.37,-282.45 96.18,-293.02 102.59,-290.21"/>
</g>
<!-- Node9 -->
<g id="node9" class="node">
<title>Node9</title>
<g id="a_node9"><a xlink:href="ARQ_8h.html" target="_top" xlink:title=" ">
<polygon fill="white" stroke="black" points="71,-129 71,-148 127,-148 127,-129 71,-129"/>
<text text-anchor="middle" x="99" y="-136" font-family="Helvetica,sans-Serif" font-size="10.00">ar/ARQ.h</text>
</a>
</g>
</g>
<!-- Node6&#45;&gt;Node9 -->
<g id="edge9" class="edge">
<title>Node6&#45;&gt;Node9</title>
<path fill="none" stroke="midnightblue" d="M325.51,-380.43C316.6,-371.42 302.23,-356.8 290,-344 223.78,-274.71 146.2,-190.77 114.09,-155.91"/>
<polygon fill="midnightblue" stroke="midnightblue" points="116.28,-153.13 106.94,-148.14 111.13,-157.87 116.28,-153.13"/>
</g>
<!-- Node10 -->
<g id="node10" class="node">
<title>Node10</title>
<g id="a_node10"><a xlink:href="mwcc_8h.html" target="_top" xlink:title=" ">
<polygon fill="white" stroke="black" points="723,-324.5 723,-343.5 773,-343.5 773,-324.5 723,-324.5"/>
<text text-anchor="middle" x="748" y="-331.5" font-family="Helvetica,sans-Serif" font-size="10.00">mwcc.h</text>
</a>
</g>
</g>
<!-- Node6&#45;&gt;Node10 -->
<g id="edge11" class="edge">
<title>Node6&#45;&gt;Node10</title>
<path fill="none" stroke="midnightblue" d="M359.15,-386.92C419.69,-381.72 578.2,-366.87 709,-344 710.27,-343.78 711.56,-343.54 712.86,-343.29"/>
<polygon fill="midnightblue" stroke="midnightblue" points="713.83,-346.67 722.91,-341.21 712.4,-339.81 713.83,-346.67"/>
</g>
<!-- Node11 -->
<g id="node11" class="node">
<title>Node11</title>
<g id="a_node11"><a xlink:href="OS_8h.html" target="_top" xlink:title=" ">
<polygon fill="white" stroke="black" points="150,-129 150,-148 202,-148 202,-129 150,-129"/>
<text text-anchor="middle" x="176" y="-136" font-family="Helvetica,sans-Serif" font-size="10.00">os/OS.h</text>
</a>
</g>
</g>
<!-- Node6&#45;&gt;Node11 -->
<g id="edge12" class="edge">
<title>Node6&#45;&gt;Node11</title>
<path fill="none" stroke="midnightblue" d="M328.56,-380.41C305.77,-344.42 217.71,-205.37 186.8,-156.55"/>
<polygon fill="midnightblue" stroke="midnightblue" points="189.72,-154.63 181.42,-148.05 183.81,-158.37 189.72,-154.63"/>
</g>
<!-- Node13 -->
<g id="node13" class="node">
<title>Node13</title>
<g id="a_node13"><a xlink:href="variables_8h.html" target="_top" xlink:title=" ">
<polygon fill="white" stroke="black" points="403.5,-324.5 403.5,-343.5 466.5,-343.5 466.5,-324.5 403.5,-324.5"/>
<text text-anchor="middle" x="435" y="-331.5" font-family="Helvetica,sans-Serif" font-size="10.00">variables.h</text>
</a>
</g>
</g>
<!-- Node6&#45;&gt;Node13 -->
<g id="edge16" class="edge">
<title>Node6&#45;&gt;Node13</title>
<path fill="none" stroke="midnightblue" d="M350.23,-380.32C366.35,-371.7 391.3,-358.36 409.96,-348.39"/>
<polygon fill="midnightblue" stroke="midnightblue" points="411.64,-351.46 418.81,-343.65 408.34,-345.28 411.64,-351.46"/>
</g>
<!-- Node8&#45;&gt;Node7 -->
<g id="edge8" class="edge">
<title>Node8&#45;&gt;Node7</title>
<path fill="none" stroke="midnightblue" d="M87.84,-262.92C72.77,-230.41 24.82,-113.79 83,-56 108.46,-30.71 147.72,-19.57 179.27,-14.7"/>
<polygon fill="midnightblue" stroke="midnightblue" points="179.78,-18.16 189.21,-13.32 178.83,-11.22 179.78,-18.16"/>
</g>
<!-- Node9&#45;&gt;Node7 -->
<g id="edge10" class="edge">
<title>Node9&#45;&gt;Node7</title>
<path fill="none" stroke="midnightblue" d="M95.39,-128.9C89.3,-112.88 79.1,-78.07 95,-56 114.06,-29.56 149.33,-18.42 179.05,-13.83"/>
<polygon fill="midnightblue" stroke="midnightblue" points="179.84,-17.26 189.29,-12.47 178.91,-10.32 179.84,-17.26"/>
</g>
<!-- Node11&#45;&gt;Node7 -->
<g id="edge13" class="edge">
<title>Node11&#45;&gt;Node7</title>
<path fill="none" stroke="midnightblue" d="M179.71,-128.81C188.46,-108.31 210.52,-56.65 222.3,-29.04"/>
<polygon fill="midnightblue" stroke="midnightblue" points="225.56,-30.33 226.26,-19.76 219.12,-27.58 225.56,-30.33"/>
</g>
<!-- Node12 -->
<g id="node12" class="node">
<title>Node12</title>
<g id="a_node12"><a xlink:href="dvd_8h.html" target="_top" xlink:title=" ">
<polygon fill="white" stroke="black" points="104.5,-62 104.5,-81 163.5,-81 163.5,-62 104.5,-62"/>
<text text-anchor="middle" x="134" y="-69" font-family="Helvetica,sans-Serif" font-size="10.00">dvd/dvd.h</text>
</a>
</g>
</g>
<!-- Node11&#45;&gt;Node12 -->
<g id="edge14" class="edge">
<title>Node11&#45;&gt;Node12</title>
<path fill="none" stroke="midnightblue" d="M170.34,-128.73C163.91,-118.79 153.28,-102.34 145.17,-89.79"/>
<polygon fill="midnightblue" stroke="midnightblue" points="147.94,-87.63 139.57,-81.13 142.06,-91.43 147.94,-87.63"/>
</g>
<!-- Node12&#45;&gt;Node7 -->
<g id="edge15" class="edge">
<title>Node12&#45;&gt;Node7</title>
<path fill="none" stroke="midnightblue" d="M147.75,-61.98C163.37,-52.3 189.06,-36.37 207.58,-24.89"/>
<polygon fill="midnightblue" stroke="midnightblue" points="209.62,-27.75 216.27,-19.51 205.93,-21.8 209.62,-27.75"/>
</g>
<!-- Node14 -->
<g id="node14" class="node">
<title>Node14</title>
<g id="a_node14"><a xlink:href="JSUList_8h.html" target="_top" xlink:title=" ">
<polygon fill="white" stroke="black" points="296,-56.5 296,-86.5 432,-86.5 432,-56.5 296,-56.5"/>
<text text-anchor="start" x="304" y="-74.5" font-family="Helvetica,sans-Serif" font-size="10.00">JSystem/JSupport/JSUList</text>
<text text-anchor="middle" x="364" y="-63.5" font-family="Helvetica,sans-Serif" font-size="10.00">/JSUList.h</text>
</a>
</g>
</g>
<!-- Node13&#45;&gt;Node14 -->
<g id="edge17" class="edge">
<title>Node13&#45;&gt;Node14</title>
<path fill="none" stroke="midnightblue" d="M427.85,-324.36C421.23,-315.76 411.84,-301.87 408,-288 388.38,-217.17 448.57,-190.29 419,-123 413.83,-111.22 404.4,-100.99 394.8,-92.87"/>
<polygon fill="midnightblue" stroke="midnightblue" points="396.8,-90 386.78,-86.56 392.47,-95.5 396.8,-90"/>
</g>
<!-- Node15 -->
<g id="node15" class="node">
<title>Node15</title>
<g id="a_node15"><a xlink:href="JUTXfb_8h.html" target="_top" xlink:title=" ">
<polygon fill="white" stroke="black" points="416.5,-257.5 416.5,-287.5 541.5,-287.5 541.5,-257.5 416.5,-257.5"/>
<text text-anchor="start" x="424.5" y="-275.5" font-family="Helvetica,sans-Serif" font-size="10.00">JSystem/JUtility/JUTXfb</text>
<text text-anchor="middle" x="479" y="-264.5" font-family="Helvetica,sans-Serif" font-size="10.00">/JUTXfb.h</text>
</a>
</g>
</g>
<!-- Node13&#45;&gt;Node15 -->
<g id="edge19" class="edge">
<title>Node13&#45;&gt;Node15</title>
<path fill="none" stroke="midnightblue" d="M441.3,-324.48C446.87,-316.94 455.24,-305.63 462.68,-295.57"/>
<polygon fill="midnightblue" stroke="midnightblue" points="465.5,-297.64 468.63,-287.52 459.87,-293.48 465.5,-297.64"/>
</g>
<!-- Node19 -->
<g id="node19" class="node">
<title>Node19</title>
<g id="a_node19"><a xlink:href="c__xyz_8h.html" target="_top" xlink:title=" ">
<polygon fill="white" stroke="black" points="559.5,-263 559.5,-282 666.5,-282 666.5,-263 559.5,-263"/>
<text text-anchor="middle" x="613" y="-270" font-family="Helvetica,sans-Serif" font-size="10.00">SComponent/c_xyz.h</text>
</a>
</g>
</g>
<!-- Node13&#45;&gt;Node19 -->
<g id="edge29" class="edge">
<title>Node13&#45;&gt;Node19</title>
<path fill="none" stroke="midnightblue" d="M460.5,-324.48C491.3,-314.18 543.27,-296.81 577.85,-285.25"/>
<polygon fill="midnightblue" stroke="midnightblue" points="579.17,-288.5 587.54,-282.01 576.95,-281.86 579.17,-288.5"/>
</g>
<!-- Node14&#45;&gt;Node7 -->
<g id="edge18" class="edge">
<title>Node14&#45;&gt;Node7</title>
<path fill="none" stroke="midnightblue" d="M332.24,-56.4C309.96,-46.51 280.41,-33.38 258.81,-23.79"/>
<polygon fill="midnightblue" stroke="midnightblue" points="260.06,-20.52 249.5,-19.66 257.22,-26.91 260.06,-20.52"/>
</g>
<!-- Node15&#45;&gt;Node7 -->
<g id="edge26" class="edge">
<title>Node15&#45;&gt;Node7</title>
<path fill="none" stroke="midnightblue" d="M487.65,-257.39C509.52,-219.71 561.8,-115.58 511,-56 482.01,-22 353.74,-13.58 280.93,-11.57"/>
<polygon fill="midnightblue" stroke="midnightblue" points="280.69,-8.06 270.61,-11.31 280.52,-15.06 280.69,-8.06"/>
</g>
<!-- Node16 -->
<g id="node16" class="node">
<title>Node16</title>
<g id="a_node16"><a xlink:href="JKRHeap_8h.html" target="_top" xlink:title=" ">
<polygon fill="white" stroke="black" points="266,-190.5 266,-220.5 402,-220.5 402,-190.5 266,-190.5"/>
<text text-anchor="start" x="274" y="-208.5" font-family="Helvetica,sans-Serif" font-size="10.00">JSystem/JKernel/JKRHeap</text>
<text text-anchor="middle" x="334" y="-197.5" font-family="Helvetica,sans-Serif" font-size="10.00">/JKRHeap.h</text>
</a>
</g>
</g>
<!-- Node15&#45;&gt;Node16 -->
<g id="edge20" class="edge">
<title>Node15&#45;&gt;Node16</title>
<path fill="none" stroke="midnightblue" d="M447.54,-257.4C426.16,-247.81 397.69,-235.05 374.6,-224.7"/>
<polygon fill="midnightblue" stroke="midnightblue" points="375.96,-221.47 365.4,-220.58 373.09,-227.86 375.96,-221.47"/>
</g>
<!-- Node18 -->
<g id="node18" class="node">
<title>Node18</title>
<g id="a_node18"><a xlink:href="GX_8h.html" target="_top" xlink:title=" ">
<polygon fill="white" stroke="black" points="450.5,-62 450.5,-81 501.5,-81 501.5,-62 450.5,-62"/>
<text text-anchor="middle" x="476" y="-69" font-family="Helvetica,sans-Serif" font-size="10.00">gx/GX.h</text>
</a>
</g>
</g>
<!-- Node15&#45;&gt;Node18 -->
<g id="edge27" class="edge">
<title>Node15&#45;&gt;Node18</title>
<path fill="none" stroke="midnightblue" d="M478.78,-257.19C478.25,-221.99 476.88,-131.17 476.29,-91.51"/>
<polygon fill="midnightblue" stroke="midnightblue" points="479.78,-91.31 476.13,-81.36 472.78,-91.41 479.78,-91.31"/>
</g>
<!-- Node16&#45;&gt;Node6 -->
<g id="edge25" class="edge">
<title>Node16&#45;&gt;Node6</title>
<path fill="none" stroke="midnightblue" d="M334,-220.69C334,-253.21 334,-333.09 334,-369.88"/>
<polygon fill="midnightblue" stroke="midnightblue" points="330.5,-370.2 334,-380.2 337.5,-370.2 330.5,-370.2"/>
</g>
<!-- Node16&#45;&gt;Node7 -->
<g id="edge24" class="edge">
<title>Node16&#45;&gt;Node7</title>
<path fill="none" stroke="midnightblue" d="M294.94,-190.41C278.13,-182.34 259.87,-170.47 249,-154 223.67,-115.62 224.9,-58.72 227.62,-29.62"/>
<polygon fill="midnightblue" stroke="midnightblue" points="231.11,-29.93 228.73,-19.61 224.15,-29.17 231.11,-29.93"/>
</g>
<!-- Node17 -->
<g id="node17" class="node">
<title>Node17</title>
<g id="a_node17"><a xlink:href="JKRDisposer_8h.html" target="_top" xlink:title=" ">
<polygon fill="white" stroke="black" points="258.5,-123.5 258.5,-153.5 409.5,-153.5 409.5,-123.5 258.5,-123.5"/>
<text text-anchor="start" x="266.5" y="-141.5" font-family="Helvetica,sans-Serif" font-size="10.00">JSystem/JKernel/JKRDisposer</text>
<text text-anchor="middle" x="334" y="-130.5" font-family="Helvetica,sans-Serif" font-size="10.00">/JKRDisposer.h</text>
</a>
</g>
</g>
<!-- Node16&#45;&gt;Node17 -->
<g id="edge21" class="edge">
<title>Node16&#45;&gt;Node17</title>
<path fill="none" stroke="midnightblue" d="M334,-190.4C334,-182.64 334,-172.81 334,-163.86"/>
<polygon fill="midnightblue" stroke="midnightblue" points="337.5,-163.58 334,-153.58 330.5,-163.58 337.5,-163.58"/>
</g>
<!-- Node17&#45;&gt;Node7 -->
<g id="edge23" class="edge">
<title>Node17&#45;&gt;Node7</title>
<path fill="none" stroke="midnightblue" d="M320.01,-123.28C310.43,-113.36 297.6,-99.68 287,-87 270.55,-67.33 253.05,-43.52 241.85,-27.85"/>
<polygon fill="midnightblue" stroke="midnightblue" points="244.68,-25.79 236.04,-19.66 238.97,-29.84 244.68,-25.79"/>
</g>
<!-- Node17&#45;&gt;Node14 -->
<g id="edge22" class="edge">
<title>Node17&#45;&gt;Node14</title>
<path fill="none" stroke="midnightblue" d="M340.51,-123.4C344.24,-115.3 349.03,-104.94 353.3,-95.69"/>
<polygon fill="midnightblue" stroke="midnightblue" points="356.49,-97.12 357.5,-86.58 350.13,-94.19 356.49,-97.12"/>
</g>
<!-- Node18&#45;&gt;Node7 -->
<g id="edge28" class="edge">
<title>Node18&#45;&gt;Node7</title>
<path fill="none" stroke="midnightblue" d="M456.98,-61.88C451.86,-59.77 446.28,-57.64 441,-56 387.19,-39.27 323.76,-26.66 280.6,-19.11"/>
<polygon fill="midnightblue" stroke="midnightblue" points="281.07,-15.64 270.62,-17.39 279.88,-22.54 281.07,-15.64"/>
</g>
<!-- Node19&#45;&gt;Node6 -->
<g id="edge32" class="edge">
<title>Node19&#45;&gt;Node6</title>
<path fill="none" stroke="midnightblue" d="M598.19,-282.18C573.48,-296.41 522,-325.03 476,-344 440.28,-358.73 397.9,-371.59 368.79,-379.75"/>
<polygon fill="midnightblue" stroke="midnightblue" points="367.78,-376.4 359.08,-382.43 369.65,-383.14 367.78,-376.4"/>
</g>
<!-- Node20 -->
<g id="node20" class="node">
<title>Node20</title>
<g id="a_node20"><a xlink:href="c__math_8h.html" target="_top" xlink:title=" ">
<polygon fill="white" stroke="black" points="638,-196 638,-215 754,-215 754,-196 638,-196"/>
<text text-anchor="middle" x="696" y="-203" font-family="Helvetica,sans-Serif" font-size="10.00">SComponent/c_math.h</text>
</a>
</g>
</g>
<!-- Node19&#45;&gt;Node20 -->
<g id="edge30" class="edge">
<title>Node19&#45;&gt;Node20</title>
<path fill="none" stroke="midnightblue" d="M624.19,-262.73C637.63,-252.21 660.4,-234.38 676.7,-221.62"/>
<polygon fill="midnightblue" stroke="midnightblue" points="679.27,-224.05 684.98,-215.13 674.95,-218.54 679.27,-224.05"/>
</g>
<!-- Node21 -->
<g id="node21" class="node">
<title>Node21</title>
<g id="a_node21"><a xlink:href="mtx__vec_8h.html" target="_top" xlink:title=" ">
<polygon fill="white" stroke="black" points="558.5,-196 558.5,-215 619.5,-215 619.5,-196 558.5,-196"/>
<text text-anchor="middle" x="589" y="-203" font-family="Helvetica,sans-Serif" font-size="10.00">mtx_vec.h</text>
</a>
</g>
</g>
<!-- Node19&#45;&gt;Node21 -->
<g id="edge33" class="edge">
<title>Node19&#45;&gt;Node21</title>
<path fill="none" stroke="midnightblue" d="M609.76,-262.73C606.16,-252.99 600.25,-236.98 595.66,-224.53"/>
<polygon fill="midnightblue" stroke="midnightblue" points="598.93,-223.3 592.19,-215.13 592.37,-225.72 598.93,-223.3"/>
</g>
<!-- Node20&#45;&gt;Node6 -->
<g id="edge31" class="edge">
<title>Node20&#45;&gt;Node6</title>
<path fill="none" stroke="midnightblue" d="M696.42,-215.37C696.7,-231.85 694.91,-267.38 676,-288 594.41,-376.97 438.7,-389 369.11,-389.69"/>
<polygon fill="midnightblue" stroke="midnightblue" points="369.09,-386.19 359.1,-389.71 369.11,-393.19 369.09,-386.19"/>
</g>
<!-- Node21&#45;&gt;Node7 -->
<g id="edge34" class="edge">
<title>Node21&#45;&gt;Node7</title>
<path fill="none" stroke="midnightblue" d="M589.32,-195.78C589.73,-169.9 587.13,-93.03 544,-56 505.46,-22.91 359.42,-14.14 280.82,-11.83"/>
<polygon fill="midnightblue" stroke="midnightblue" points="280.75,-8.32 270.66,-11.55 280.56,-15.32 280.75,-8.32"/>
</g>
<!-- Node22&#45;&gt;Node4 -->
<g id="edge37" class="edge">
<title>Node22&#45;&gt;Node4</title>
<path fill="none" stroke="midnightblue" d="M486.56,-548.08C481.05,-540.46 472.97,-529.26 466.24,-519.94"/>
<polygon fill="midnightblue" stroke="midnightblue" points="469.01,-517.81 460.32,-511.75 463.34,-521.91 469.01,-517.81"/>
</g>
<!-- Node22&#45;&gt;Node5 -->
<g id="edge38" class="edge">
<title>Node22&#45;&gt;Node5</title>
<path fill="none" stroke="midnightblue" d="M500.71,-548.31C511.02,-535.57 526.91,-511.25 517,-492 509.92,-478.25 496.48,-467.77 483.82,-460.39"/>
<polygon fill="midnightblue" stroke="midnightblue" points="485.31,-457.22 474.85,-455.57 482,-463.39 485.31,-457.22"/>
</g>
<!-- Node23&#45;&gt;Node3 -->
<g id="edge42" class="edge">
<title>Node23&#45;&gt;Node3</title>
<path fill="none" stroke="midnightblue" d="M529.33,-727.43C518.3,-710.26 498.05,-680.93 476,-660 463.46,-648.09 447.47,-637.1 434.37,-628.97"/>
<polygon fill="midnightblue" stroke="midnightblue" points="435.8,-625.75 425.43,-623.58 432.19,-631.74 435.8,-625.75"/>
</g>
<!-- Node23&#45;&gt;Node6 -->
<g id="edge48" class="edge">
<title>Node23&#45;&gt;Node6</title>
<path fill="none" stroke="midnightblue" d="M581.64,-727.4C599.97,-719.42 620,-707.63 633,-691 654.45,-663.57 652,-649.82 652,-615 652,-615 652,-615 652,-501 652,-441.69 451.91,-407.26 369.17,-395.56"/>
<polygon fill="midnightblue" stroke="midnightblue" points="369.6,-392.08 359.22,-394.18 368.64,-399.02 369.6,-392.08"/>
</g>
<!-- Node24 -->
<g id="node24" class="node">
<title>Node24</title>
<g id="a_node24"><a xlink:href="f__pc__layer_8h.html" target="_top" xlink:title=" ">
<polygon fill="white" stroke="black" points="528,-666 528,-685 624,-685 624,-666 528,-666"/>
<text text-anchor="middle" x="576" y="-673" font-family="Helvetica,sans-Serif" font-size="10.00">f/f_pc/f_pc_layer.h</text>
</a>
</g>
</g>
<!-- Node23&#45;&gt;Node24 -->
<g id="edge43" class="edge">
<title>Node23&#45;&gt;Node24</title>
<path fill="none" stroke="midnightblue" d="M546.25,-727.4C551.99,-717.56 559.7,-704.38 565.83,-693.89"/>
<polygon fill="midnightblue" stroke="midnightblue" points="568.89,-695.59 570.92,-685.19 562.85,-692.06 568.89,-695.59"/>
</g>
<!-- Node24&#45;&gt;Node3 -->
<g id="edge45" class="edge">
<title>Node24&#45;&gt;Node3</title>
<path fill="none" stroke="midnightblue" d="M552.22,-665.98C523.62,-655.72 475.45,-638.46 443.2,-626.9"/>
<polygon fill="midnightblue" stroke="midnightblue" points="444.33,-623.59 433.74,-623.51 441.97,-630.18 444.33,-623.59"/>
</g>
<!-- Node24&#45;&gt;Node5 -->
<g id="edge44" class="edge">
<title>Node24&#45;&gt;Node5</title>
<path fill="none" stroke="midnightblue" d="M576.59,-665.96C578.06,-637.39 578.92,-544.04 532,-492 519.43,-478.06 501.49,-467.29 485.98,-459.79"/>
<polygon fill="midnightblue" stroke="midnightblue" points="487.26,-456.53 476.71,-455.55 484.35,-462.9 487.26,-456.53"/>
</g>
<!-- Node24&#45;&gt;Node6 -->
<g id="edge47" class="edge">
<title>Node24&#45;&gt;Node6</title>
<path fill="none" stroke="midnightblue" d="M580.97,-665.84C591.27,-647.03 614,-600.8 614,-559 614,-559 614,-559 614,-501 614,-449 444.58,-411.34 369.31,-397.17"/>
<polygon fill="midnightblue" stroke="midnightblue" points="369.81,-393.71 359.34,-395.33 368.54,-400.59 369.81,-393.71"/>
</g>
<!-- Node24&#45;&gt;Node22 -->
<g id="edge46" class="edge">
<title>Node24&#45;&gt;Node22</title>
<path fill="none" stroke="midnightblue" d="M569.76,-665.82C556.06,-646.76 523.14,-600.95 505.19,-575.96"/>
<polygon fill="midnightblue" stroke="midnightblue" points="507.99,-573.86 499.31,-567.78 502.3,-577.95 507.99,-573.86"/>
</g>
<!-- Node25&#45;&gt;Node3 -->
<g id="edge50" class="edge">
<title>Node25&#45;&gt;Node3</title>
<path fill="none" stroke="midnightblue" d="M378.41,-732.93C381.23,-722.89 386.01,-705.76 390,-691 395.27,-671.5 401.13,-649.13 405.14,-633.74"/>
<polygon fill="midnightblue" stroke="midnightblue" points="408.57,-634.46 407.7,-623.9 401.8,-632.7 408.57,-634.46"/>
</g>
<!-- Node25&#45;&gt;Node6 -->
<g id="edge52" class="edge">
<title>Node25&#45;&gt;Node6</title>
<path fill="none" stroke="midnightblue" d="M373.36,-732.76C367.64,-713.38 354.11,-665.28 348,-624 336.28,-544.83 334.31,-449.13 334.02,-409.54"/>
<polygon fill="midnightblue" stroke="midnightblue" points="337.52,-409.5 333.98,-399.52 330.52,-409.53 337.52,-409.5"/>
</g>
<!-- Node25&#45;&gt;Node24 -->
<g id="edge51" class="edge">
<title>Node25&#45;&gt;Node24</title>
<path fill="none" stroke="midnightblue" d="M402.56,-732.87C437.92,-721.38 500.59,-701.01 540.13,-688.16"/>
<polygon fill="midnightblue" stroke="midnightblue" points="541.22,-691.48 549.65,-685.06 539.06,-684.83 541.22,-691.48"/>
</g>
<!-- Node26&#45;&gt;Node3 -->
<g id="edge54" class="edge">
<title>Node26&#45;&gt;Node3</title>
<path fill="none" stroke="midnightblue" d="M172.21,-665.99C180.99,-664 190.32,-661.91 199,-660 253.69,-647.97 316.47,-634.64 359.24,-625.64"/>
<polygon fill="midnightblue" stroke="midnightblue" points="360.06,-629.04 369.12,-623.56 358.62,-622.19 360.06,-629.04"/>
</g>
<!-- Node26&#45;&gt;Node6 -->
<g id="edge55" class="edge">
<title>Node26&#45;&gt;Node6</title>
<path fill="none" stroke="midnightblue" d="M140.62,-665.92C152.28,-647.29 178,-601.37 178,-559 178,-559 178,-559 178,-501 178,-442.15 253.06,-412.02 299.05,-399.08"/>
<polygon fill="midnightblue" stroke="midnightblue" points="300.18,-402.4 308.94,-396.43 298.37,-395.64 300.18,-402.4"/>
</g>
<!-- Node27&#45;&gt;Node3 -->
<g id="edge57" class="edge">
<title>Node27&#45;&gt;Node3</title>
<path fill="none" stroke="midnightblue" d="M260.32,-732.98C274.44,-723.13 298.2,-706.3 318,-691 344.21,-670.76 373.55,-646.16 391.9,-630.54"/>
<polygon fill="midnightblue" stroke="midnightblue" points="394.64,-632.81 399.97,-623.66 390.09,-627.49 394.64,-632.81"/>
</g>
<!-- Node28 -->
<g id="node28" class="node">
<title>Node28</title>
<g id="a_node28"><a xlink:href="f__pc__method__tag_8h.html" target="_top" xlink:title=" ">
<polygon fill="white" stroke="black" points="208.5,-660.5 208.5,-690.5 309.5,-690.5 309.5,-660.5 208.5,-660.5"/>
<text text-anchor="start" x="216.5" y="-678.5" font-family="Helvetica,sans-Serif" font-size="10.00">f/f_pc/f_pc_method</text>
<text text-anchor="middle" x="259" y="-667.5" font-family="Helvetica,sans-Serif" font-size="10.00">_tag.h</text>
</a>
</g>
</g>
<!-- Node27&#45;&gt;Node28 -->
<g id="edge58" class="edge">
<title>Node27&#45;&gt;Node28</title>
<path fill="none" stroke="midnightblue" d="M249.48,-732.73C250.87,-724.54 253.01,-711.92 254.9,-700.71"/>
<polygon fill="midnightblue" stroke="midnightblue" points="258.4,-701.03 256.62,-690.59 251.5,-699.86 258.4,-701.03"/>
</g>
<!-- Node28&#45;&gt;Node3 -->
<g id="edge59" class="edge">
<title>Node28&#45;&gt;Node3</title>
<path fill="none" stroke="midnightblue" d="M294.78,-660.4C320.23,-650.37 354.1,-637.03 378.52,-627.4"/>
<polygon fill="midnightblue" stroke="midnightblue" points="380.01,-630.58 388.03,-623.66 377.44,-624.07 380.01,-630.58"/>
</g>
<!-- Node28&#45;&gt;Node6 -->
<g id="edge60" class="edge">
<title>Node28&#45;&gt;Node6</title>
<path fill="none" stroke="midnightblue" d="M258.8,-660.28C258.51,-638.48 258,-595.5 258,-559 258,-559 258,-559 258,-501 258,-470.2 264.47,-461.32 282,-436 290.18,-424.19 302.15,-413.54 312.55,-405.57"/>
<polygon fill="midnightblue" stroke="midnightblue" points="314.79,-408.27 320.8,-399.54 310.66,-402.62 314.79,-408.27"/>
</g>
<!-- Node29&#45;&gt;Node6 -->
<g id="edge64" class="edge">
<title>Node29&#45;&gt;Node6</title>
<path fill="none" stroke="midnightblue" d="M692.66,-732.91C691.87,-712.48 690,-659.38 690,-615 690,-615 690,-615 690,-501 690,-451.66 645.51,-455.06 600,-436 521.99,-403.34 421.7,-394.36 369.36,-391.91"/>
<polygon fill="midnightblue" stroke="midnightblue" points="369.39,-388.41 359.25,-391.49 369.1,-395.4 369.39,-388.41"/>
</g>
<!-- Node30 -->
<g id="node30" class="node">
<title>Node30</title>
<g id="a_node30"><a xlink:href="f__pc__method_8h.html" target="_top" xlink:title=" ">
<polygon fill="white" stroke="black" points="718,-666 718,-685 826,-685 826,-666 718,-666"/>
<text text-anchor="middle" x="772" y="-673" font-family="Helvetica,sans-Serif" font-size="10.00">f/f_pc/f_pc_method.h</text>
</a>
</g>
</g>
<!-- Node29&#45;&gt;Node30 -->
<g id="edge62" class="edge">
<title>Node29&#45;&gt;Node30</title>
<path fill="none" stroke="midnightblue" d="M703.65,-732.73C716.45,-722.21 738.12,-704.38 753.63,-691.62"/>
<polygon fill="midnightblue" stroke="midnightblue" points="756.02,-694.18 761.51,-685.13 751.57,-688.78 756.02,-694.18"/>
</g>
<!-- Node30&#45;&gt;Node6 -->
<g id="edge63" class="edge">
<title>Node30&#45;&gt;Node6</title>
<path fill="none" stroke="midnightblue" d="M769.21,-665.91C763.29,-646.88 750,-599.62 750,-559 750,-559 750,-559 750,-501 750,-465.61 734.39,-454.13 704,-436 647.96,-402.56 450.55,-393.88 369.32,-391.7"/>
<polygon fill="midnightblue" stroke="midnightblue" points="369.19,-388.2 359.1,-391.45 369.01,-395.2 369.19,-388.2"/>
</g>
<!-- Node31&#45;&gt;Node2 -->
<g id="edge66" class="edge">
<title>Node31&#45;&gt;Node2</title>
<path fill="none" stroke="midnightblue" d="M548.12,-850.44C521.71,-841.36 479.78,-826.94 450.26,-816.78"/>
<polygon fill="midnightblue" stroke="midnightblue" points="451.36,-813.46 440.76,-813.52 449.08,-820.08 451.36,-813.46"/>
</g>
<!-- Node31&#45;&gt;Node24 -->
<g id="edge67" class="edge">
<title>Node31&#45;&gt;Node24</title>
<path fill="none" stroke="midnightblue" d="M576.52,-850.34C584.66,-829.21 603.44,-773.4 595,-727 592.96,-715.76 588.55,-703.78 584.5,-694.3"/>
<polygon fill="midnightblue" stroke="midnightblue" points="587.67,-692.83 580.36,-685.16 581.29,-695.72 587.67,-692.83"/>
</g>
<!-- Node31&#45;&gt;Node30 -->
<g id="edge68" class="edge">
<title>Node31&#45;&gt;Node30</title>
<path fill="none" stroke="midnightblue" d="M603.31,-850.46C643.85,-837.42 715.01,-808.57 753,-758 766.74,-739.7 770.77,-713.07 771.83,-695.29"/>
<polygon fill="midnightblue" stroke="midnightblue" points="775.34,-695.16 772.17,-685.05 768.34,-694.93 775.34,-695.16"/>
</g>
</g>
</svg>
