<?xml version="1.0" encoding="UTF-8" standalone="no"?>
<!DOCTYPE svg PUBLIC "-//W3C//DTD SVG 1.1//EN"
 "http://www.w3.org/Graphics/SVG/1.1/DTD/svg11.dtd">
<!-- Generated by graphviz version 2.46.1 (20210215.1649)
 -->
<!-- Title: include/f/f_pc/f_pc_stdcreate_req.h Pages: 1 -->
<svg width="746pt" height="833pt"
 viewBox="0.00 0.00 745.88 833.00" xmlns="http://www.w3.org/2000/svg" xmlns:xlink="http://www.w3.org/1999/xlink">
<g id="graph0" class="graph" transform="scale(1 1) rotate(0) translate(4 829)">
<title>include/f/f_pc/f_pc_stdcreate_req.h</title>
<polygon fill="white" stroke="transparent" points="-4,4 -4,-829 741.88,-829 741.88,4 -4,4"/>
<!-- Node1 -->
<g id="node1" class="node">
<title>Node1</title>
<g id="a_node1"><a xlink:title=" ">
<polygon fill="#bfbfbf" stroke="black" points="474.5,-794.5 474.5,-824.5 571.5,-824.5 571.5,-794.5 474.5,-794.5"/>
<text text-anchor="start" x="482.5" y="-812.5" font-family="Helvetica,sans-Serif" font-size="10.00">include/f/f_pc/f_pc</text>
<text text-anchor="middle" x="523" y="-801.5" font-family="Helvetica,sans-Serif" font-size="10.00">_stdcreate_req.h</text>
</a>
</g>
</g>
<!-- Node2 -->
<g id="node2" class="node">
<title>Node2</title>
<g id="a_node2"><a xlink:href="f__pc__create__req_8h.html" target="_top" xlink:title=" ">
<polygon fill="white" stroke="black" points="262.5,-727.5 262.5,-757.5 357.5,-757.5 357.5,-727.5 262.5,-727.5"/>
<text text-anchor="start" x="270.5" y="-745.5" font-family="Helvetica,sans-Serif" font-size="10.00">f/f_pc/f_pc_create</text>
<text text-anchor="middle" x="310" y="-734.5" font-family="Helvetica,sans-Serif" font-size="10.00">_req.h</text>
</a>
</g>
</g>
<!-- Node1&#45;&gt;Node2 -->
<g id="edge1" class="edge">
<title>Node1&#45;&gt;Node2</title>
<path fill="none" stroke="midnightblue" d="M477.04,-794.48C444.54,-784.56 400.77,-771.2 366.19,-760.65"/>
<polygon fill="midnightblue" stroke="midnightblue" points="366.83,-757.18 356.24,-757.61 364.78,-763.88 366.83,-757.18"/>
</g>
<!-- Node7 -->
<g id="node7" class="node">
<title>Node7</title>
<g id="a_node7"><a xlink:href="global_8h.html" target="_top" xlink:title=" ">
<polygon fill="white" stroke="black" points="242,-380.5 242,-399.5 292,-399.5 292,-380.5 242,-380.5"/>
<text text-anchor="middle" x="267" y="-387.5" font-family="Helvetica,sans-Serif" font-size="10.00">global.h</text>
</a>
</g>
</g>
<!-- Node1&#45;&gt;Node7 -->
<g id="edge52" class="edge">
<title>Node1&#45;&gt;Node7</title>
<path fill="none" stroke="midnightblue" d="M539,-794.42C562.61,-772.01 604,-725.7 604,-676.5 604,-676.5 604,-676.5 604,-501 604,-451.66 559.39,-455.34 514,-436 442.83,-405.67 351.63,-395.77 302.37,-392.54"/>
<polygon fill="midnightblue" stroke="midnightblue" points="302.42,-389.04 292.23,-391.94 302.01,-396.03 302.42,-389.04"/>
</g>
<!-- Node23 -->
<g id="node23" class="node">
<title>Node23</title>
<g id="a_node23"><a xlink:href="f__pc__layer_8h.html" target="_top" xlink:title=" ">
<polygon fill="white" stroke="black" points="475,-666 475,-685 571,-685 571,-666 475,-666"/>
<text text-anchor="middle" x="523" y="-673" font-family="Helvetica,sans-Serif" font-size="10.00">f/f_pc/f_pc_layer.h</text>
</a>
</g>
</g>
<!-- Node1&#45;&gt;Node23 -->
<g id="edge51" class="edge">
<title>Node1&#45;&gt;Node23</title>
<path fill="none" stroke="midnightblue" d="M523,-794.37C523,-770.5 523,-722.18 523,-695.41"/>
<polygon fill="midnightblue" stroke="midnightblue" points="526.5,-695.1 523,-685.1 519.5,-695.1 526.5,-695.1"/>
</g>
<!-- Node3 -->
<g id="node3" class="node">
<title>Node3</title>
<g id="a_node3"><a xlink:href="c__phase_8h.html" target="_top" xlink:title=" ">
<polygon fill="white" stroke="black" points="66,-666 66,-685 186,-685 186,-666 66,-666"/>
<text text-anchor="middle" x="126" y="-673" font-family="Helvetica,sans-Serif" font-size="10.00">SComponent/c_phase.h</text>
</a>
</g>
</g>
<!-- Node2&#45;&gt;Node3 -->
<g id="edge2" class="edge">
<title>Node2&#45;&gt;Node3</title>
<path fill="none" stroke="midnightblue" d="M270.07,-727.4C237.08,-715.74 190.75,-699.37 159.62,-688.38"/>
<polygon fill="midnightblue" stroke="midnightblue" points="160.68,-685.04 150.08,-685.01 158.34,-691.64 160.68,-685.04"/>
</g>
<!-- Node4 -->
<g id="node4" class="node">
<title>Node4</title>
<g id="a_node4"><a xlink:href="c__tag_8h.html" target="_top" xlink:title=" ">
<polygon fill="white" stroke="black" points="311.5,-604.5 311.5,-623.5 418.5,-623.5 418.5,-604.5 311.5,-604.5"/>
<text text-anchor="middle" x="365" y="-611.5" font-family="Helvetica,sans-Serif" font-size="10.00">SComponent/c_tag.h</text>
</a>
</g>
</g>
<!-- Node2&#45;&gt;Node4 -->
<g id="edge3" class="edge">
<title>Node2&#45;&gt;Node4</title>
<path fill="none" stroke="midnightblue" d="M357.52,-734.03C383.02,-727.33 412.35,-714.71 428,-691 435.59,-679.5 434.3,-672.25 428,-660 420.92,-646.25 407.48,-635.77 394.82,-628.39"/>
<polygon fill="midnightblue" stroke="midnightblue" points="396.31,-625.22 385.85,-623.57 393,-631.39 396.31,-625.22"/>
</g>
<!-- Node2&#45;&gt;Node7 -->
<g id="edge50" class="edge">
<title>Node2&#45;&gt;Node7</title>
<path fill="none" stroke="midnightblue" d="M262.44,-736.89C196.69,-729.75 82.24,-714.37 48,-691 15,-668.48 0,-654.95 0,-615 0,-615 0,-615 0,-501 0,-401.85 159.36,-390.24 231.85,-390.1"/>
<polygon fill="midnightblue" stroke="midnightblue" points="231.86,-393.6 241.88,-390.15 231.9,-386.6 231.86,-393.6"/>
</g>
<!-- Node22 -->
<g id="node22" class="node">
<title>Node22</title>
<g id="a_node22"><a xlink:href="f__pc__create__tag_8h.html" target="_top" xlink:title=" ">
<polygon fill="white" stroke="black" points="204.5,-660.5 204.5,-690.5 299.5,-690.5 299.5,-660.5 204.5,-660.5"/>
<text text-anchor="start" x="212.5" y="-678.5" font-family="Helvetica,sans-Serif" font-size="10.00">f/f_pc/f_pc_create</text>
<text text-anchor="middle" x="252" y="-667.5" font-family="Helvetica,sans-Serif" font-size="10.00">_tag.h</text>
</a>
</g>
</g>
<!-- Node2&#45;&gt;Node22 -->
<g id="edge37" class="edge">
<title>Node2&#45;&gt;Node22</title>
<path fill="none" stroke="midnightblue" d="M297.41,-727.4C289.81,-718.88 279.97,-707.85 271.39,-698.23"/>
<polygon fill="midnightblue" stroke="midnightblue" points="273.83,-695.71 264.56,-690.58 268.61,-700.37 273.83,-695.71"/>
</g>
<!-- Node2&#45;&gt;Node23 -->
<g id="edge40" class="edge">
<title>Node2&#45;&gt;Node23</title>
<path fill="none" stroke="midnightblue" d="M355.96,-727.48C394.63,-715.67 449.27,-699 485.38,-687.98"/>
<polygon fill="midnightblue" stroke="midnightblue" points="486.51,-691.3 495.05,-685.03 484.47,-684.6 486.51,-691.3"/>
</g>
<!-- Node24 -->
<g id="node24" class="node">
<title>Node24</title>
<g id="a_node24"><a xlink:href="f__pc__method_8h.html" target="_top" xlink:title=" ">
<polygon fill="white" stroke="black" points="51,-604.5 51,-623.5 159,-623.5 159,-604.5 51,-604.5"/>
<text text-anchor="middle" x="105" y="-611.5" font-family="Helvetica,sans-Serif" font-size="10.00">f/f_pc/f_pc_method.h</text>
</a>
</g>
</g>
<!-- Node2&#45;&gt;Node24 -->
<g id="edge45" class="edge">
<title>Node2&#45;&gt;Node24</title>
<path fill="none" stroke="midnightblue" d="M262.28,-738.97C196.3,-734.37 82.46,-722.04 57,-691 40.81,-671.26 64.92,-645.7 84.44,-629.83"/>
<polygon fill="midnightblue" stroke="midnightblue" points="86.63,-632.56 92.39,-623.67 82.34,-627.03 86.63,-632.56"/>
</g>
<!-- Node25 -->
<g id="node25" class="node">
<title>Node25</title>
<g id="a_node25"><a xlink:href="f__pc__method__tag_8h.html" target="_top" xlink:title=" ">
<polygon fill="white" stroke="black" points="317.5,-660.5 317.5,-690.5 418.5,-690.5 418.5,-660.5 317.5,-660.5"/>
<text text-anchor="start" x="325.5" y="-678.5" font-family="Helvetica,sans-Serif" font-size="10.00">f/f_pc/f_pc_method</text>
<text text-anchor="middle" x="368" y="-667.5" font-family="Helvetica,sans-Serif" font-size="10.00">_tag.h</text>
</a>
</g>
</g>
<!-- Node2&#45;&gt;Node25 -->
<g id="edge47" class="edge">
<title>Node2&#45;&gt;Node25</title>
<path fill="none" stroke="midnightblue" d="M322.59,-727.4C330.19,-718.88 340.03,-707.85 348.61,-698.23"/>
<polygon fill="midnightblue" stroke="midnightblue" points="351.39,-700.37 355.44,-690.58 346.17,-695.71 351.39,-700.37"/>
</g>
<!-- Node5 -->
<g id="node5" class="node">
<title>Node5</title>
<g id="a_node5"><a xlink:href="c__list_8h.html" target="_top" xlink:title=" ">
<polygon fill="white" stroke="black" points="352.5,-492.5 352.5,-511.5 459.5,-511.5 459.5,-492.5 352.5,-492.5"/>
<text text-anchor="middle" x="406" y="-499.5" font-family="Helvetica,sans-Serif" font-size="10.00">SComponent/c_list.h</text>
</a>
</g>
</g>
<!-- Node4&#45;&gt;Node5 -->
<g id="edge4" class="edge">
<title>Node4&#45;&gt;Node5</title>
<path fill="none" stroke="midnightblue" d="M366.37,-604.36C368.55,-591.7 373.35,-567.47 381,-548 384.76,-538.43 390.18,-528.38 395.02,-520.21"/>
<polygon fill="midnightblue" stroke="midnightblue" points="398.04,-521.98 400.3,-511.62 392.08,-518.31 398.04,-521.98"/>
</g>
<!-- Node6 -->
<g id="node6" class="node">
<title>Node6</title>
<g id="a_node6"><a xlink:href="c__node_8h.html" target="_top" xlink:title=" ">
<polygon fill="white" stroke="black" points="348.5,-436.5 348.5,-455.5 463.5,-455.5 463.5,-436.5 348.5,-436.5"/>
<text text-anchor="middle" x="406" y="-443.5" font-family="Helvetica,sans-Serif" font-size="10.00">SComponent/c_node.h</text>
</a>
</g>
</g>
<!-- Node4&#45;&gt;Node6 -->
<g id="edge32" class="edge">
<title>Node4&#45;&gt;Node6</title>
<path fill="none" stroke="midnightblue" d="M359.98,-604.24C348.82,-583.52 324.44,-530.37 344,-492 351,-478.27 364.37,-467.75 376.9,-460.35"/>
<polygon fill="midnightblue" stroke="midnightblue" points="378.67,-463.37 385.78,-455.51 375.32,-457.22 378.67,-463.37"/>
</g>
<!-- Node4&#45;&gt;Node7 -->
<g id="edge36" class="edge">
<title>Node4&#45;&gt;Node7</title>
<path fill="none" stroke="midnightblue" d="M358.42,-604.39C351.9,-595.59 341.9,-581.34 335,-568 306.33,-512.57 282.83,-442.18 272.57,-409.37"/>
<polygon fill="midnightblue" stroke="midnightblue" points="275.9,-408.29 269.61,-399.77 269.21,-410.35 275.9,-408.29"/>
</g>
<!-- Node21 -->
<g id="node21" class="node">
<title>Node21</title>
<g id="a_node21"><a xlink:href="c__tree_8h.html" target="_top" xlink:title=" ">
<polygon fill="white" stroke="black" points="390,-548.5 390,-567.5 500,-567.5 500,-548.5 390,-548.5"/>
<text text-anchor="middle" x="445" y="-555.5" font-family="Helvetica,sans-Serif" font-size="10.00">SComponent/c_tree.h</text>
</a>
</g>
</g>
<!-- Node4&#45;&gt;Node21 -->
<g id="edge33" class="edge">
<title>Node4&#45;&gt;Node21</title>
<path fill="none" stroke="midnightblue" d="M377.85,-604.32C390.22,-595.98 409.13,-583.21 423.74,-573.35"/>
<polygon fill="midnightblue" stroke="midnightblue" points="425.85,-576.15 432.18,-567.65 421.93,-570.35 425.85,-576.15"/>
</g>
<!-- Node5&#45;&gt;Node6 -->
<g id="edge5" class="edge">
<title>Node5&#45;&gt;Node6</title>
<path fill="none" stroke="midnightblue" d="M406,-492.08C406,-485.01 406,-474.86 406,-465.99"/>
<polygon fill="midnightblue" stroke="midnightblue" points="409.5,-465.75 406,-455.75 402.5,-465.75 409.5,-465.75"/>
</g>
<!-- Node6&#45;&gt;Node7 -->
<g id="edge6" class="edge">
<title>Node6&#45;&gt;Node7</title>
<path fill="none" stroke="midnightblue" d="M383.98,-436.44C360.9,-427.48 324.44,-413.31 298.36,-403.18"/>
<polygon fill="midnightblue" stroke="midnightblue" points="299.51,-399.88 288.92,-399.52 296.98,-406.4 299.51,-399.88"/>
</g>
<!-- Node8 -->
<g id="node8" class="node">
<title>Node8</title>
<g id="a_node8"><a xlink:href="types_8h.html" target="_top" xlink:title=" ">
<polygon fill="white" stroke="black" points="345.5,-0.5 345.5,-19.5 426.5,-19.5 426.5,-0.5 345.5,-0.5"/>
<text text-anchor="middle" x="386" y="-7.5" font-family="Helvetica,sans-Serif" font-size="10.00">dolphin/types.h</text>
</a>
</g>
</g>
<!-- Node7&#45;&gt;Node8 -->
<g id="edge7" class="edge">
<title>Node7&#45;&gt;Node8</title>
<path fill="none" stroke="midnightblue" d="M241.79,-381.25C201.24,-367.03 126,-332.67 126,-273.5 126,-273.5 126,-273.5 126,-137.5 126,-45.45 259.41,-20.37 335.1,-13.54"/>
<polygon fill="midnightblue" stroke="midnightblue" points="335.7,-17 345.38,-12.69 335.12,-10.03 335.7,-17"/>
</g>
<!-- Node9 -->
<g id="node9" class="node">
<title>Node9</title>
<g id="a_node9"><a xlink:href="AR_8h.html" target="_top" xlink:title=" ">
<polygon fill="white" stroke="black" points="154.5,-196 154.5,-215 203.5,-215 203.5,-196 154.5,-196"/>
<text text-anchor="middle" x="179" y="-203" font-family="Helvetica,sans-Serif" font-size="10.00">ar/AR.h</text>
</a>
</g>
</g>
<!-- Node7&#45;&gt;Node9 -->
<g id="edge8" class="edge">
<title>Node7&#45;&gt;Node9</title>
<path fill="none" stroke="midnightblue" d="M257.57,-380.3C248.52,-371.65 234.83,-357.73 225,-344 208.56,-321.04 204.49,-314.59 195,-288 187.6,-267.26 183.33,-242.25 181.1,-225.46"/>
<polygon fill="midnightblue" stroke="midnightblue" points="184.54,-224.8 179.86,-215.29 177.59,-225.64 184.54,-224.8"/>
</g>
<!-- Node10 -->
<g id="node10" class="node">
<title>Node10</title>
<g id="a_node10"><a xlink:href="ARQ_8h.html" target="_top" xlink:title=" ">
<polygon fill="white" stroke="black" points="204,-263 204,-282 260,-282 260,-263 204,-263"/>
<text text-anchor="middle" x="232" y="-270" font-family="Helvetica,sans-Serif" font-size="10.00">ar/ARQ.h</text>
</a>
</g>
</g>
<!-- Node7&#45;&gt;Node10 -->
<g id="edge10" class="edge">
<title>Node7&#45;&gt;Node10</title>
<path fill="none" stroke="midnightblue" d="M257.76,-380.38C249.5,-372 237.96,-358.45 233,-344 227.23,-327.19 227.68,-306.77 229.16,-292.24"/>
<polygon fill="midnightblue" stroke="midnightblue" points="232.67,-292.4 230.46,-282.04 225.72,-291.51 232.67,-292.4"/>
</g>
<!-- Node11 -->
<g id="node11" class="node">
<title>Node11</title>
<g id="a_node11"><a xlink:href="mwcc_8h.html" target="_top" xlink:title=" ">
<polygon fill="white" stroke="black" points="242,-324.5 242,-343.5 292,-343.5 292,-324.5 242,-324.5"/>
<text text-anchor="middle" x="267" y="-331.5" font-family="Helvetica,sans-Serif" font-size="10.00">mwcc.h</text>
</a>
</g>
</g>
<!-- Node7&#45;&gt;Node11 -->
<g id="edge12" class="edge">
<title>Node7&#45;&gt;Node11</title>
<path fill="none" stroke="midnightblue" d="M267,-380.08C267,-373.01 267,-362.86 267,-353.99"/>
<polygon fill="midnightblue" stroke="midnightblue" points="270.5,-353.75 267,-343.75 263.5,-353.75 270.5,-353.75"/>
</g>
<!-- Node12 -->
<g id="node12" class="node">
<title>Node12</title>
<g id="a_node12"><a xlink:href="OS_8h.html" target="_top" xlink:title=" ">
<polygon fill="white" stroke="black" points="264,-129 264,-148 316,-148 316,-129 264,-129"/>
<text text-anchor="middle" x="290" y="-136" font-family="Helvetica,sans-Serif" font-size="10.00">os/OS.h</text>
</a>
</g>
</g>
<!-- Node7&#45;&gt;Node12 -->
<g id="edge13" class="edge">
<title>Node7&#45;&gt;Node12</title>
<path fill="none" stroke="midnightblue" d="M276.29,-380.39C284.58,-372.02 296.14,-358.48 301,-344 322.92,-278.62 305.32,-194.94 295.49,-158.2"/>
<polygon fill="midnightblue" stroke="midnightblue" points="298.81,-157.07 292.74,-148.38 292.07,-158.96 298.81,-157.07"/>
</g>
<!-- Node14 -->
<g id="node14" class="node">
<title>Node14</title>
<g id="a_node14"><a xlink:href="variables_8h.html" target="_top" xlink:title=" ">
<polygon fill="white" stroke="black" points="383.5,-324.5 383.5,-343.5 446.5,-343.5 446.5,-324.5 383.5,-324.5"/>
<text text-anchor="middle" x="415" y="-331.5" font-family="Helvetica,sans-Serif" font-size="10.00">variables.h</text>
</a>
</g>
</g>
<!-- Node7&#45;&gt;Node14 -->
<g id="edge17" class="edge">
<title>Node7&#45;&gt;Node14</title>
<path fill="none" stroke="midnightblue" d="M290.45,-380.44C315.13,-371.44 354.19,-357.19 381.98,-347.05"/>
<polygon fill="midnightblue" stroke="midnightblue" points="383.46,-350.23 391.66,-343.52 381.06,-343.66 383.46,-350.23"/>
</g>
<!-- Node9&#45;&gt;Node8 -->
<g id="edge9" class="edge">
<title>Node9&#45;&gt;Node8</title>
<path fill="none" stroke="midnightblue" d="M178.5,-195.68C177.57,-170.19 178.52,-95.68 218,-56 248.66,-25.19 297.97,-14.8 335.25,-11.61"/>
<polygon fill="midnightblue" stroke="midnightblue" points="335.7,-15.09 345.42,-10.89 335.2,-8.1 335.7,-15.09"/>
</g>
<!-- Node10&#45;&gt;Node8 -->
<g id="edge11" class="edge">
<title>Node10&#45;&gt;Node8</title>
<path fill="none" stroke="midnightblue" d="M229.78,-262.91C222.16,-231.35 200.25,-120.25 251,-56 271.07,-30.59 305.97,-19.41 335.25,-14.54"/>
<polygon fill="midnightblue" stroke="midnightblue" points="335.95,-17.97 345.34,-13.07 334.94,-11.05 335.95,-17.97"/>
</g>
<!-- Node12&#45;&gt;Node8 -->
<g id="edge14" class="edge">
<title>Node12&#45;&gt;Node8</title>
<path fill="none" stroke="midnightblue" d="M296.66,-128.95C304.46,-118.93 317.73,-101.81 329,-87 344.36,-66.81 361.84,-43.45 373.35,-28.01"/>
<polygon fill="midnightblue" stroke="midnightblue" points="376.21,-30.03 379.37,-19.92 370.59,-25.85 376.21,-30.03"/>
</g>
<!-- Node13 -->
<g id="node13" class="node">
<title>Node13</title>
<g id="a_node13"><a xlink:href="dvd_8h.html" target="_top" xlink:title=" ">
<polygon fill="white" stroke="black" points="260.5,-62 260.5,-81 319.5,-81 319.5,-62 260.5,-62"/>
<text text-anchor="middle" x="290" y="-69" font-family="Helvetica,sans-Serif" font-size="10.00">dvd/dvd.h</text>
</a>
</g>
</g>
<!-- Node12&#45;&gt;Node13 -->
<g id="edge15" class="edge">
<title>Node12&#45;&gt;Node13</title>
<path fill="none" stroke="midnightblue" d="M290,-128.73C290,-119.18 290,-103.62 290,-91.28"/>
<polygon fill="midnightblue" stroke="midnightblue" points="293.5,-91.13 290,-81.13 286.5,-91.13 293.5,-91.13"/>
</g>
<!-- Node13&#45;&gt;Node8 -->
<g id="edge16" class="edge">
<title>Node13&#45;&gt;Node8</title>
<path fill="none" stroke="midnightblue" d="M303.75,-61.98C319.37,-52.3 345.06,-36.37 363.58,-24.89"/>
<polygon fill="midnightblue" stroke="midnightblue" points="365.62,-27.75 372.27,-19.51 361.93,-21.8 365.62,-27.75"/>
</g>
<!-- Node15 -->
<g id="node15" class="node">
<title>Node15</title>
<g id="a_node15"><a xlink:href="JSUList_8h.html" target="_top" xlink:title=" ">
<polygon fill="white" stroke="black" points="522,-56.5 522,-86.5 658,-86.5 658,-56.5 522,-56.5"/>
<text text-anchor="start" x="530" y="-74.5" font-family="Helvetica,sans-Serif" font-size="10.00">JSystem/JSupport/JSUList</text>
<text text-anchor="middle" x="590" y="-63.5" font-family="Helvetica,sans-Serif" font-size="10.00">/JSUList.h</text>
</a>
</g>
</g>
<!-- Node14&#45;&gt;Node15 -->
<g id="edge18" class="edge">
<title>Node14&#45;&gt;Node15</title>
<path fill="none" stroke="midnightblue" d="M442.64,-324.43C470.39,-315.29 510.49,-300.45 521,-288 569.59,-230.4 531.76,-192.86 560,-123 563.82,-113.56 569.22,-103.8 574.39,-95.4"/>
<polygon fill="midnightblue" stroke="midnightblue" points="577.39,-97.22 579.83,-86.91 571.49,-93.45 577.39,-97.22"/>
</g>
<!-- Node16 -->
<g id="node16" class="node">
<title>Node16</title>
<g id="a_node16"><a xlink:href="JUTXfb_8h.html" target="_top" xlink:title=" ">
<polygon fill="white" stroke="black" points="386.5,-257.5 386.5,-287.5 511.5,-287.5 511.5,-257.5 386.5,-257.5"/>
<text text-anchor="start" x="394.5" y="-275.5" font-family="Helvetica,sans-Serif" font-size="10.00">JSystem/JUtility/JUTXfb</text>
<text text-anchor="middle" x="449" y="-264.5" font-family="Helvetica,sans-Serif" font-size="10.00">/JUTXfb.h</text>
</a>
</g>
</g>
<!-- Node14&#45;&gt;Node16 -->
<g id="edge20" class="edge">
<title>Node14&#45;&gt;Node16</title>
<path fill="none" stroke="midnightblue" d="M419.87,-324.48C424.05,-317.17 430.26,-306.3 435.87,-296.47"/>
<polygon fill="midnightblue" stroke="midnightblue" points="439.06,-297.94 440.99,-287.52 432.99,-294.47 439.06,-297.94"/>
</g>
<!-- Node20 -->
<g id="node20" class="node">
<title>Node20</title>
<g id="a_node20"><a xlink:href="mtx__vec_8h.html" target="_top" xlink:title=" ">
<polygon fill="white" stroke="black" points="334.5,-129 334.5,-148 395.5,-148 395.5,-129 334.5,-129"/>
<text text-anchor="middle" x="365" y="-136" font-family="Helvetica,sans-Serif" font-size="10.00">mtx_vec.h</text>
</a>
</g>
</g>
<!-- Node14&#45;&gt;Node20 -->
<g id="edge30" class="edge">
<title>Node14&#45;&gt;Node20</title>
<path fill="none" stroke="midnightblue" d="M405.2,-324.45C396.4,-316.12 383.97,-302.61 378,-288 360.12,-244.22 361.14,-187.27 363.19,-158.27"/>
<polygon fill="midnightblue" stroke="midnightblue" points="366.68,-158.54 364.02,-148.29 359.7,-157.96 366.68,-158.54"/>
</g>
<!-- Node15&#45;&gt;Node8 -->
<g id="edge19" class="edge">
<title>Node15&#45;&gt;Node8</title>
<path fill="none" stroke="midnightblue" d="M541.91,-56.47C506.26,-46.08 458.27,-32.08 424.99,-22.37"/>
<polygon fill="midnightblue" stroke="midnightblue" points="425.74,-18.95 415.16,-19.51 423.78,-25.67 425.74,-18.95"/>
</g>
<!-- Node16&#45;&gt;Node8 -->
<g id="edge27" class="edge">
<title>Node16&#45;&gt;Node8</title>
<path fill="none" stroke="midnightblue" d="M445.61,-257.49C435.01,-213.67 402.48,-79.13 390.49,-29.58"/>
<polygon fill="midnightblue" stroke="midnightblue" points="393.84,-28.52 388.09,-19.63 387.03,-30.17 393.84,-28.52"/>
</g>
<!-- Node17 -->
<g id="node17" class="node">
<title>Node17</title>
<g id="a_node17"><a xlink:href="JKRHeap_8h.html" target="_top" xlink:title=" ">
<polygon fill="white" stroke="black" points="572,-190.5 572,-220.5 708,-220.5 708,-190.5 572,-190.5"/>
<text text-anchor="start" x="580" y="-208.5" font-family="Helvetica,sans-Serif" font-size="10.00">JSystem/JKernel/JKRHeap</text>
<text text-anchor="middle" x="640" y="-197.5" font-family="Helvetica,sans-Serif" font-size="10.00">/JKRHeap.h</text>
</a>
</g>
</g>
<!-- Node16&#45;&gt;Node17 -->
<g id="edge21" class="edge">
<title>Node16&#45;&gt;Node17</title>
<path fill="none" stroke="midnightblue" d="M490.44,-257.4C519.35,-247.56 558.11,-234.37 588.93,-223.88"/>
<polygon fill="midnightblue" stroke="midnightblue" points="590.3,-227.11 598.64,-220.58 588.04,-220.48 590.3,-227.11"/>
</g>
<!-- Node19 -->
<g id="node19" class="node">
<title>Node19</title>
<g id="a_node19"><a xlink:href="GX_8h.html" target="_top" xlink:title=" ">
<polygon fill="white" stroke="black" points="452.5,-62 452.5,-81 503.5,-81 503.5,-62 452.5,-62"/>
<text text-anchor="middle" x="478" y="-69" font-family="Helvetica,sans-Serif" font-size="10.00">gx/GX.h</text>
</a>
</g>
</g>
<!-- Node16&#45;&gt;Node19 -->
<g id="edge28" class="edge">
<title>Node16&#45;&gt;Node19</title>
<path fill="none" stroke="midnightblue" d="M451.09,-257.19C456.22,-221.99 469.45,-131.17 475.23,-91.51"/>
<polygon fill="midnightblue" stroke="midnightblue" points="478.73,-91.76 476.71,-81.36 471.8,-90.75 478.73,-91.76"/>
</g>
<!-- Node17&#45;&gt;Node7 -->
<g id="edge26" class="edge">
<title>Node17&#45;&gt;Node7</title>
<path fill="none" stroke="midnightblue" d="M627.19,-220.55C611.12,-237.71 582.24,-267.03 554,-288 513.73,-317.91 502.65,-325.56 456,-344 404.39,-364.4 341.05,-377.17 302.38,-383.68"/>
<polygon fill="midnightblue" stroke="midnightblue" points="301.46,-380.29 292.15,-385.36 302.59,-387.2 301.46,-380.29"/>
</g>
<!-- Node17&#45;&gt;Node8 -->
<g id="edge25" class="edge">
<title>Node17&#45;&gt;Node8</title>
<path fill="none" stroke="midnightblue" d="M684.23,-190.44C701.35,-182.59 719.17,-170.89 729,-154 753.12,-112.58 724.49,-81.65 684,-56 643.84,-30.56 510.56,-18.57 436.58,-13.74"/>
<polygon fill="midnightblue" stroke="midnightblue" points="436.75,-10.25 426.55,-13.11 436.31,-17.23 436.75,-10.25"/>
</g>
<!-- Node18 -->
<g id="node18" class="node">
<title>Node18</title>
<g id="a_node18"><a xlink:href="JKRDisposer_8h.html" target="_top" xlink:title=" ">
<polygon fill="white" stroke="black" points="568.5,-123.5 568.5,-153.5 719.5,-153.5 719.5,-123.5 568.5,-123.5"/>
<text text-anchor="start" x="576.5" y="-141.5" font-family="Helvetica,sans-Serif" font-size="10.00">JSystem/JKernel/JKRDisposer</text>
<text text-anchor="middle" x="644" y="-130.5" font-family="Helvetica,sans-Serif" font-size="10.00">/JKRDisposer.h</text>
</a>
</g>
</g>
<!-- Node17&#45;&gt;Node18 -->
<g id="edge22" class="edge">
<title>Node17&#45;&gt;Node18</title>
<path fill="none" stroke="midnightblue" d="M640.87,-190.4C641.35,-182.56 641.96,-172.6 642.52,-163.57"/>
<polygon fill="midnightblue" stroke="midnightblue" points="646.01,-163.77 643.13,-153.58 639.03,-163.34 646.01,-163.77"/>
</g>
<!-- Node18&#45;&gt;Node8 -->
<g id="edge24" class="edge">
<title>Node18&#45;&gt;Node8</title>
<path fill="none" stroke="midnightblue" d="M654.89,-123.46C667.2,-105.77 683.5,-75.35 667,-56 638.01,-22 509.74,-13.58 436.93,-11.57"/>
<polygon fill="midnightblue" stroke="midnightblue" points="436.69,-8.06 426.61,-11.31 436.52,-15.06 436.69,-8.06"/>
</g>
<!-- Node18&#45;&gt;Node15 -->
<g id="edge23" class="edge">
<title>Node18&#45;&gt;Node15</title>
<path fill="none" stroke="midnightblue" d="M632.28,-123.4C625.28,-114.96 616.23,-104.07 608.29,-94.52"/>
<polygon fill="midnightblue" stroke="midnightblue" points="610.78,-92.03 601.69,-86.58 605.39,-96.51 610.78,-92.03"/>
</g>
<!-- Node19&#45;&gt;Node8 -->
<g id="edge29" class="edge">
<title>Node19&#45;&gt;Node8</title>
<path fill="none" stroke="midnightblue" d="M464.82,-61.98C449.93,-52.34 425.46,-36.52 407.73,-25.05"/>
<polygon fill="midnightblue" stroke="midnightblue" points="409.45,-22 399.16,-19.51 405.65,-27.88 409.45,-22"/>
</g>
<!-- Node20&#45;&gt;Node8 -->
<g id="edge31" class="edge">
<title>Node20&#45;&gt;Node8</title>
<path fill="none" stroke="midnightblue" d="M366.44,-128.81C369.82,-108.49 378.27,-57.55 382.88,-29.78"/>
<polygon fill="midnightblue" stroke="midnightblue" points="386.36,-30.19 384.55,-19.76 379.46,-29.05 386.36,-30.19"/>
</g>
<!-- Node21&#45;&gt;Node5 -->
<g id="edge34" class="edge">
<title>Node21&#45;&gt;Node5</title>
<path fill="none" stroke="midnightblue" d="M438.56,-548.08C433.05,-540.46 424.97,-529.26 418.24,-519.94"/>
<polygon fill="midnightblue" stroke="midnightblue" points="421.01,-517.81 412.32,-511.75 415.34,-521.91 421.01,-517.81"/>
</g>
<!-- Node21&#45;&gt;Node6 -->
<g id="edge35" class="edge">
<title>Node21&#45;&gt;Node6</title>
<path fill="none" stroke="midnightblue" d="M452.71,-548.31C463.02,-535.57 478.91,-511.25 469,-492 461.92,-478.25 448.48,-467.77 435.82,-460.39"/>
<polygon fill="midnightblue" stroke="midnightblue" points="437.31,-457.22 426.85,-455.57 434,-463.39 437.31,-457.22"/>
</g>
<!-- Node22&#45;&gt;Node4 -->
<g id="edge38" class="edge">
<title>Node22&#45;&gt;Node4</title>
<path fill="none" stroke="midnightblue" d="M278.78,-660.4C297.06,-650.77 321.15,-638.09 339.21,-628.58"/>
<polygon fill="midnightblue" stroke="midnightblue" points="341.34,-631.41 348.56,-623.66 338.08,-625.22 341.34,-631.41"/>
</g>
<!-- Node22&#45;&gt;Node7 -->
<g id="edge39" class="edge">
<title>Node22&#45;&gt;Node7</title>
<path fill="none" stroke="midnightblue" d="M243.09,-660.16C230.76,-638.91 210,-597.41 210,-559 210,-559 210,-559 210,-501 210,-464.3 235.32,-427.66 252.21,-407.3"/>
<polygon fill="midnightblue" stroke="midnightblue" points="254.95,-409.48 258.83,-399.62 249.65,-404.9 254.95,-409.48"/>
</g>
<!-- Node23&#45;&gt;Node4 -->
<g id="edge42" class="edge">
<title>Node23&#45;&gt;Node4</title>
<path fill="none" stroke="midnightblue" d="M500.36,-665.98C473.26,-655.77 427.69,-638.61 397,-627.05"/>
<polygon fill="midnightblue" stroke="midnightblue" points="398.19,-623.76 387.6,-623.51 395.72,-630.31 398.19,-623.76"/>
</g>
<!-- Node23&#45;&gt;Node6 -->
<g id="edge41" class="edge">
<title>Node23&#45;&gt;Node6</title>
<path fill="none" stroke="midnightblue" d="M523.91,-665.94C526.45,-637.3 530.64,-543.74 484,-492 471.43,-478.06 453.49,-467.29 437.98,-459.79"/>
<polygon fill="midnightblue" stroke="midnightblue" points="439.26,-456.53 428.71,-455.55 436.35,-462.9 439.26,-456.53"/>
</g>
<!-- Node23&#45;&gt;Node7 -->
<g id="edge44" class="edge">
<title>Node23&#45;&gt;Node7</title>
<path fill="none" stroke="midnightblue" d="M528.62,-665.92C540.28,-647.29 566,-601.37 566,-559 566,-559 566,-559 566,-501 566,-445.35 381.28,-409.23 302.22,-396.31"/>
<polygon fill="midnightblue" stroke="midnightblue" points="302.66,-392.84 292.23,-394.71 301.56,-399.75 302.66,-392.84"/>
</g>
<!-- Node23&#45;&gt;Node21 -->
<g id="edge43" class="edge">
<title>Node23&#45;&gt;Node21</title>
<path fill="none" stroke="midnightblue" d="M517.14,-665.82C504.32,-646.84 473.6,-601.35 456.68,-576.29"/>
<polygon fill="midnightblue" stroke="midnightblue" points="459.43,-574.11 450.93,-567.78 453.63,-578.03 459.43,-574.11"/>
</g>
<!-- Node24&#45;&gt;Node7 -->
<g id="edge46" class="edge">
<title>Node24&#45;&gt;Node7</title>
<path fill="none" stroke="midnightblue" d="M107.64,-604.29C116.32,-576.78 146.35,-490.33 196,-436 208.03,-422.83 224.76,-411.98 238.96,-404.23"/>
<polygon fill="midnightblue" stroke="midnightblue" points="240.6,-407.33 247.85,-399.6 237.36,-401.12 240.6,-407.33"/>
</g>
<!-- Node25&#45;&gt;Node4 -->
<g id="edge48" class="edge">
<title>Node25&#45;&gt;Node4</title>
<path fill="none" stroke="midnightblue" d="M367.29,-660.4C366.89,-652.47 366.38,-642.46 365.95,-633.86"/>
<polygon fill="midnightblue" stroke="midnightblue" points="369.44,-633.47 365.44,-623.66 362.44,-633.82 369.44,-633.47"/>
</g>
<!-- Node25&#45;&gt;Node7 -->
<g id="edge49" class="edge">
<title>Node25&#45;&gt;Node7</title>
<path fill="none" stroke="midnightblue" d="M335.84,-660.48C300.3,-642.55 248,-607.87 248,-559 248,-559 248,-559 248,-501 248,-468.49 256.16,-431.35 261.78,-409.61"/>
<polygon fill="midnightblue" stroke="midnightblue" points="265.22,-410.32 264.44,-399.75 258.46,-408.5 265.22,-410.32"/>
</g>
</g>
</svg>
