<?xml version="1.0" encoding="UTF-8" standalone="no"?>
<!DOCTYPE svg PUBLIC "-//W3C//DTD SVG 1.1//EN"
 "http://www.w3.org/Graphics/SVG/1.1/DTD/svg11.dtd">
<!-- Generated by graphviz version 2.46.0 (20210122.1329)
 -->
<!-- Title: src/f/f_pc/f_pc_layer.cpp Pages: 1 -->
<!--zoomable 766 -->
<svg id="main" version="1.1" xmlns="http://www.w3.org/2000/svg" xmlns:xlink="http://www.w3.org/1999/xlink" xml:space="preserve" onload="init(evt)">
<style type="text/css"><![CDATA[
.edge:hover path { stroke: red; }
.edge:hover polygon { stroke: red; fill: red; }
]]></style>
<script type="text/javascript"><![CDATA[
var edges = document.getElementsByTagName('g');
if (edges && edges.length) {
  for (var i=0;i<edges.length;i++) {
    if (edges[i].id.substr(0,4)=='edge') {
      edges[i].setAttribute('class','edge');
    }
  }
}
]]></script>
        <defs>
                <circle id="rim" cx="0" cy="0" r="7"/>
                <circle id="rim2" cx="0" cy="0" r="3.5"/>
                <g id="zoomPlus">
                        <use xlink:href="#rim" fill="#404040">
                                <set attributeName="fill" to="#808080" begin="zoomplus.mouseover" end="zoomplus.mouseout"/>
                        </use>
                        <path d="M-4,0h8M0,-4v8" fill="none" stroke="white" stroke-width="1.5" pointer-events="none"/>
                </g>
                <g id="zoomMin">
                        <use xlink:href="#rim" fill="#404040">
                                <set attributeName="fill" to="#808080" begin="zoomminus.mouseover" end="zoomminus.mouseout"/>
                        </use>
                        <path d="M-4,0h8" fill="none" stroke="white" stroke-width="1.5" pointer-events="none"/>
                </g>
                <g id="dirArrow">
                        <path fill="none" stroke="white" stroke-width="1.5" d="M0,-3.0v7 M-2.5,-0.5L0,-3.0L2.5,-0.5"/>
                </g>
               <g id="resetDef">
                       <use xlink:href="#rim2" fill="#404040">
                               <set attributeName="fill" to="#808080" begin="reset.mouseover" end="reset.mouseout"/>
                       </use>
               </g>
        </defs>

<script type="text/javascript">
var viewWidth = 822;
var viewHeight = 766;
var sectionId = 'dynsection-0';
</script>
<script xlink:href="svgpan.js"/>
<svg id="graph" class="graph">
<g id="viewport">
<title>src/f/f_pc/f_pc_layer.cpp</title>
<polygon fill="white" stroke="transparent" points="-4,4 -4,-762 818.12,-762 818.12,4 -4,4"/>
<!-- Node1 -->
<g id="node1" class="node">
<title>Node1</title>
<g id="a_node1"><a xlink:title=" ">
<polygon fill="#bfbfbf" stroke="black" points="151.62,-738.5 151.62,-757.5 274.62,-757.5 274.62,-738.5 151.62,-738.5"/>
<text text-anchor="middle" x="213.12" y="-745.5" font-family="Helvetica,sans-Serif" font-size="10.00">src/f/f_pc/f_pc_layer.cpp</text>
</a>
</g>
</g>
<!-- Node2 -->
<g id="node2" class="node">
<title>Node2</title>
<g id="a_node2"><a xlink:href="f__pc__layer_8h.html" target="_top" xlink:title=" ">
<polygon fill="white" stroke="black" points="107.12,-677 107.12,-696 203.12,-696 203.12,-677 107.12,-677"/>
<text text-anchor="middle" x="155.12" y="-684" font-family="Helvetica,sans-Serif" font-size="10.00">f/f_pc/f_pc_layer.h</text>
</a>
</g>
</g>
<!-- Node1&#45;&gt;Node2 -->
<g id="edge1" class="edge">
<title>Node1&#45;&gt;Node2</title>
<path fill="none" stroke="midnightblue" d="M204.81,-738.48C195.94,-729.37 181.67,-714.74 170.7,-703.48"/>
<polygon fill="midnightblue" stroke="midnightblue" points="172.9,-700.73 163.41,-696.01 167.89,-705.61 172.9,-700.73"/>
</g>
<!-- Node5 -->
<g id="node5" class="node">
<title>Node5</title>
<g id="a_node5"><a xlink:href="types_8h.html" target="_top" xlink:title=" ">
<polygon fill="white" stroke="black" points="305.62,-0.5 305.62,-19.5 386.62,-19.5 386.62,-0.5 305.62,-0.5"/>
<text text-anchor="middle" x="346.12" y="-7.5" font-family="Helvetica,sans-Serif" font-size="10.00">dolphin/types.h</text>
</a>
</g>
</g>
<!-- Node1&#45;&gt;Node5 -->
<g id="edge43" class="edge">
<title>Node1&#45;&gt;Node5</title>
<path fill="none" stroke="midnightblue" d="M158.23,-738.46C95.71,-725.26 2.12,-693.32 2.12,-620.5 2.12,-620.5 2.12,-620.5 2.12,-137.5 2.12,-100.31 -6.36,-81.07 21.12,-56 60.26,-20.28 214.16,-12.71 295.34,-11.24"/>
<polygon fill="midnightblue" stroke="midnightblue" points="295.4,-14.74 305.35,-11.09 295.29,-7.74 295.4,-14.74"/>
</g>
<!-- Node23 -->
<g id="node23" class="node">
<title>Node23</title>
<g id="a_node23"><a xlink:href="f__pc__method__iter_8h.html" target="_top" xlink:title=" ">
<polygon fill="white" stroke="black" points="385.62,-604.5 385.62,-634.5 486.62,-634.5 486.62,-604.5 385.62,-604.5"/>
<text text-anchor="start" x="393.62" y="-622.5" font-family="Helvetica,sans-Serif" font-size="10.00">f/f_pc/f_pc_method</text>
<text text-anchor="middle" x="436.12" y="-611.5" font-family="Helvetica,sans-Serif" font-size="10.00">_iter.h</text>
</a>
</g>
</g>
<!-- Node1&#45;&gt;Node23 -->
<g id="edge44" class="edge">
<title>Node1&#45;&gt;Node23</title>
<path fill="none" stroke="midnightblue" d="M242.81,-738.38C267.34,-730.63 302.64,-718.01 331.12,-702 361.66,-684.83 392.91,-659.35 413.29,-641.47"/>
<polygon fill="midnightblue" stroke="midnightblue" points="415.65,-644.05 420.8,-634.78 411,-638.82 415.65,-644.05"/>
</g>
<!-- Node26 -->
<g id="node26" class="node">
<title>Node26</title>
<g id="a_node26"><a xlink:href="f__pc__method__tag_8h.html" target="_top" xlink:title=" ">
<polygon fill="white" stroke="black" points="221.62,-671.5 221.62,-701.5 322.62,-701.5 322.62,-671.5 221.62,-671.5"/>
<text text-anchor="start" x="229.62" y="-689.5" font-family="Helvetica,sans-Serif" font-size="10.00">f/f_pc/f_pc_method</text>
<text text-anchor="middle" x="272.12" y="-678.5" font-family="Helvetica,sans-Serif" font-size="10.00">_tag.h</text>
</a>
</g>
</g>
<!-- Node1&#45;&gt;Node26 -->
<g id="edge51" class="edge">
<title>Node1&#45;&gt;Node26</title>
<path fill="none" stroke="midnightblue" d="M221.57,-738.48C229.26,-730.72 240.94,-718.94 251.13,-708.66"/>
<polygon fill="midnightblue" stroke="midnightblue" points="253.66,-711.09 258.21,-701.52 248.69,-706.16 253.66,-711.09"/>
</g>
<!-- Node3 -->
<g id="node3" class="node">
<title>Node3</title>
<g id="a_node3"><a xlink:href="c__node_8h.html" target="_top" xlink:title=" ">
<polygon fill="white" stroke="black" points="198.62,-436.5 198.62,-455.5 313.62,-455.5 313.62,-436.5 198.62,-436.5"/>
<text text-anchor="middle" x="256.12" y="-443.5" font-family="Helvetica,sans-Serif" font-size="10.00">SComponent/c_node.h</text>
</a>
</g>
</g>
<!-- Node2&#45;&gt;Node3 -->
<g id="edge2" class="edge">
<title>Node2&#45;&gt;Node3</title>
<path fill="none" stroke="midnightblue" d="M148.07,-676.76C130.97,-654.43 90.33,-593.82 113.12,-548 135.32,-503.35 187.81,-474.44 222.63,-459.44"/>
<polygon fill="midnightblue" stroke="midnightblue" points="224.05,-462.64 231.95,-455.58 221.37,-456.18 224.05,-462.64"/>
</g>
<!-- Node4 -->
<g id="node4" class="node">
<title>Node4</title>
<g id="a_node4"><a xlink:href="global_8h.html" target="_top" xlink:title=" ">
<polygon fill="white" stroke="black" points="544.12,-380.5 544.12,-399.5 594.12,-399.5 594.12,-380.5 544.12,-380.5"/>
<text text-anchor="middle" x="569.12" y="-387.5" font-family="Helvetica,sans-Serif" font-size="10.00">global.h</text>
</a>
</g>
</g>
<!-- Node2&#45;&gt;Node4 -->
<g id="edge42" class="edge">
<title>Node2&#45;&gt;Node4</title>
<path fill="none" stroke="midnightblue" d="M141.35,-676.92C114.15,-658.77 56.12,-613.66 56.12,-559 56.12,-559 56.12,-559 56.12,-501 56.12,-403.06 418.08,-392.04 533.92,-391.03"/>
<polygon fill="midnightblue" stroke="midnightblue" points="534.05,-394.52 544.03,-390.96 534,-387.52 534.05,-394.52"/>
</g>
<!-- Node20 -->
<g id="node20" class="node">
<title>Node20</title>
<g id="a_node20"><a xlink:href="c__tag_8h.html" target="_top" xlink:title=" ">
<polygon fill="white" stroke="black" points="214.62,-610 214.62,-629 321.62,-629 321.62,-610 214.62,-610"/>
<text text-anchor="middle" x="268.12" y="-617" font-family="Helvetica,sans-Serif" font-size="10.00">SComponent/c_tag.h</text>
</a>
</g>
</g>
<!-- Node2&#45;&gt;Node20 -->
<g id="edge33" class="edge">
<title>Node2&#45;&gt;Node20</title>
<path fill="none" stroke="midnightblue" d="M170.36,-676.73C189.33,-665.82 221.96,-647.05 244.27,-634.22"/>
<polygon fill="midnightblue" stroke="midnightblue" points="246.2,-637.15 253.12,-629.13 242.71,-631.08 246.2,-637.15"/>
</g>
<!-- Node22 -->
<g id="node22" class="node">
<title>Node22</title>
<g id="a_node22"><a xlink:href="c__tree_8h.html" target="_top" xlink:title=" ">
<polygon fill="white" stroke="black" points="122.12,-548.5 122.12,-567.5 232.12,-567.5 232.12,-548.5 122.12,-548.5"/>
<text text-anchor="middle" x="177.12" y="-555.5" font-family="Helvetica,sans-Serif" font-size="10.00">SComponent/c_tree.h</text>
</a>
</g>
</g>
<!-- Node2&#45;&gt;Node22 -->
<g id="edge41" class="edge">
<title>Node2&#45;&gt;Node22</title>
<path fill="none" stroke="midnightblue" d="M156.63,-676.81C160.16,-656.49 169.02,-605.55 173.85,-577.78"/>
<polygon fill="midnightblue" stroke="midnightblue" points="177.33,-578.21 175.6,-567.76 170.43,-577.01 177.33,-578.21"/>
</g>
<!-- Node3&#45;&gt;Node4 -->
<g id="edge3" class="edge">
<title>Node3&#45;&gt;Node4</title>
<path fill="none" stroke="midnightblue" d="M305.71,-436.44C369.36,-425.46 478.18,-406.69 533.93,-397.07"/>
<polygon fill="midnightblue" stroke="midnightblue" points="534.76,-400.48 544.02,-395.33 533.57,-393.58 534.76,-400.48"/>
</g>
<!-- Node4&#45;&gt;Node5 -->
<g id="edge4" class="edge">
<title>Node4&#45;&gt;Node5</title>
<path fill="none" stroke="midnightblue" d="M594.27,-385.95C619.08,-381.45 655.73,-370.47 673.12,-344 710.7,-286.79 703.84,-251.16 673.12,-190 619.75,-83.73 474.52,-37.79 396.8,-20.33"/>
<polygon fill="midnightblue" stroke="midnightblue" points="397.27,-16.85 386.76,-18.15 395.78,-23.69 397.27,-16.85"/>
</g>
<!-- Node6 -->
<g id="node6" class="node">
<title>Node6</title>
<g id="a_node6"><a xlink:href="AR_8h.html" target="_top" xlink:title=" ">
<polygon fill="white" stroke="black" points="708.62,-129 708.62,-148 757.62,-148 757.62,-129 708.62,-129"/>
<text text-anchor="middle" x="733.12" y="-136" font-family="Helvetica,sans-Serif" font-size="10.00">ar/AR.h</text>
</a>
</g>
</g>
<!-- Node4&#45;&gt;Node6 -->
<g id="edge5" class="edge">
<title>Node4&#45;&gt;Node6</title>
<path fill="none" stroke="midnightblue" d="M594.27,-388.39C625.63,-386.17 678.47,-377.34 706.12,-344 751.27,-289.56 742.82,-197.4 736.61,-158.12"/>
<polygon fill="midnightblue" stroke="midnightblue" points="740.03,-157.39 734.88,-148.13 733.13,-158.58 740.03,-157.39"/>
</g>
<!-- Node7 -->
<g id="node7" class="node">
<title>Node7</title>
<g id="a_node7"><a xlink:href="ARQ_8h.html" target="_top" xlink:title=" ">
<polygon fill="white" stroke="black" points="758.12,-263 758.12,-282 814.12,-282 814.12,-263 758.12,-263"/>
<text text-anchor="middle" x="786.12" y="-270" font-family="Helvetica,sans-Serif" font-size="10.00">ar/ARQ.h</text>
</a>
</g>
</g>
<!-- Node4&#45;&gt;Node7 -->
<g id="edge7" class="edge">
<title>Node4&#45;&gt;Node7</title>
<path fill="none" stroke="midnightblue" d="M594.28,-388.4C630.76,-386.34 698.91,-377.84 744.12,-344 761.71,-330.83 773.35,-307.95 779.82,-291.83"/>
<polygon fill="midnightblue" stroke="midnightblue" points="783.13,-292.98 783.34,-282.38 776.57,-290.53 783.13,-292.98"/>
</g>
<!-- Node8 -->
<g id="node8" class="node">
<title>Node8</title>
<g id="a_node8"><a xlink:href="mwcc_8h.html" target="_top" xlink:title=" ">
<polygon fill="white" stroke="black" points="614.12,-324.5 614.12,-343.5 664.12,-343.5 664.12,-324.5 614.12,-324.5"/>
<text text-anchor="middle" x="639.12" y="-331.5" font-family="Helvetica,sans-Serif" font-size="10.00">mwcc.h</text>
</a>
</g>
</g>
<!-- Node4&#45;&gt;Node8 -->
<g id="edge9" class="edge">
<title>Node4&#45;&gt;Node8</title>
<path fill="none" stroke="midnightblue" d="M580.37,-380.32C590.92,-372.18 606.92,-359.84 619.56,-350.09"/>
<polygon fill="midnightblue" stroke="midnightblue" points="621.89,-352.71 627.67,-343.83 617.61,-347.17 621.89,-352.71"/>
</g>
<!-- Node9 -->
<g id="node9" class="node">
<title>Node9</title>
<g id="a_node9"><a xlink:href="OS_8h.html" target="_top" xlink:title=" ">
<polygon fill="white" stroke="black" points="76.12,-129 76.12,-148 128.12,-148 128.12,-129 76.12,-129"/>
<text text-anchor="middle" x="102.12" y="-136" font-family="Helvetica,sans-Serif" font-size="10.00">os/OS.h</text>
</a>
</g>
</g>
<!-- Node4&#45;&gt;Node9 -->
<g id="edge10" class="edge">
<title>Node4&#45;&gt;Node9</title>
<path fill="none" stroke="midnightblue" d="M544.01,-387.72C501.19,-384.73 412.08,-375 344.12,-344 242.48,-297.64 149.79,-196.13 115.83,-156.15"/>
<polygon fill="midnightblue" stroke="midnightblue" points="118.43,-153.8 109.32,-148.39 113.07,-158.3 118.43,-153.8"/>
</g>
<!-- Node11 -->
<g id="node11" class="node">
<title>Node11</title>
<g id="a_node11"><a xlink:href="variables_8h.html" target="_top" xlink:title=" ">
<polygon fill="white" stroke="black" points="410.62,-324.5 410.62,-343.5 473.62,-343.5 473.62,-324.5 410.62,-324.5"/>
<text text-anchor="middle" x="442.12" y="-331.5" font-family="Helvetica,sans-Serif" font-size="10.00">variables.h</text>
</a>
</g>
</g>
<!-- Node4&#45;&gt;Node11 -->
<g id="edge14" class="edge">
<title>Node4&#45;&gt;Node11</title>
<path fill="none" stroke="midnightblue" d="M549,-380.44C528.09,-371.56 495.18,-357.56 471.4,-347.45"/>
<polygon fill="midnightblue" stroke="midnightblue" points="472.72,-344.21 462.15,-343.52 469.98,-350.65 472.72,-344.21"/>
</g>
<!-- Node6&#45;&gt;Node5 -->
<g id="edge6" class="edge">
<title>Node6&#45;&gt;Node5</title>
<path fill="none" stroke="midnightblue" d="M731.75,-128.88C728.56,-111.83 718.9,-73.93 694.12,-56 647.75,-22.44 481.95,-13.9 397.04,-11.73"/>
<polygon fill="midnightblue" stroke="midnightblue" points="396.93,-8.23 386.85,-11.49 396.76,-15.23 396.93,-8.23"/>
</g>
<!-- Node7&#45;&gt;Node5 -->
<g id="edge8" class="edge">
<title>Node7&#45;&gt;Node5</title>
<path fill="none" stroke="midnightblue" d="M786.94,-262.56C789.57,-227.69 793.76,-100.59 720.12,-56 666.91,-23.78 486.29,-14.6 396.97,-12.01"/>
<polygon fill="midnightblue" stroke="midnightblue" points="396.9,-8.5 386.81,-11.73 396.71,-15.5 396.9,-8.5"/>
</g>
<!-- Node9&#45;&gt;Node5 -->
<g id="edge11" class="edge">
<title>Node9&#45;&gt;Node5</title>
<path fill="none" stroke="midnightblue" d="M103.79,-128.8C107.5,-111.95 118.07,-74.89 142.12,-56 165.52,-37.62 242.71,-24.32 295.14,-17.13"/>
<polygon fill="midnightblue" stroke="midnightblue" points="295.82,-20.57 305.27,-15.78 294.89,-13.63 295.82,-20.57"/>
</g>
<!-- Node10 -->
<g id="node10" class="node">
<title>Node10</title>
<g id="a_node10"><a xlink:href="dvd_8h.html" target="_top" xlink:title=" ">
<polygon fill="white" stroke="black" points="30.62,-62 30.62,-81 89.62,-81 89.62,-62 30.62,-62"/>
<text text-anchor="middle" x="60.12" y="-69" font-family="Helvetica,sans-Serif" font-size="10.00">dvd/dvd.h</text>
</a>
</g>
</g>
<!-- Node9&#45;&gt;Node10 -->
<g id="edge12" class="edge">
<title>Node9&#45;&gt;Node10</title>
<path fill="none" stroke="midnightblue" d="M96.45,-128.73C90.03,-118.79 79.4,-102.34 71.29,-89.79"/>
<polygon fill="midnightblue" stroke="midnightblue" points="74.06,-87.63 65.69,-81.13 68.18,-91.43 74.06,-87.63"/>
</g>
<!-- Node10&#45;&gt;Node5 -->
<g id="edge13" class="edge">
<title>Node10&#45;&gt;Node5</title>
<path fill="none" stroke="midnightblue" d="M84.15,-61.93C90.59,-59.82 97.57,-57.68 104.12,-56 169.43,-39.25 246.16,-26.05 295.42,-18.39"/>
<polygon fill="midnightblue" stroke="midnightblue" points="296.15,-21.82 305.51,-16.84 295.09,-14.9 296.15,-21.82"/>
</g>
<!-- Node12 -->
<g id="node12" class="node">
<title>Node12</title>
<g id="a_node12"><a xlink:href="JSUList_8h.html" target="_top" xlink:title=" ">
<polygon fill="white" stroke="black" points="222.12,-56.5 222.12,-86.5 358.12,-86.5 358.12,-56.5 222.12,-56.5"/>
<text text-anchor="start" x="230.12" y="-74.5" font-family="Helvetica,sans-Serif" font-size="10.00">JSystem/JSupport/JSUList</text>
<text text-anchor="middle" x="290.12" y="-63.5" font-family="Helvetica,sans-Serif" font-size="10.00">/JSUList.h</text>
</a>
</g>
</g>
<!-- Node11&#45;&gt;Node12 -->
<g id="edge15" class="edge">
<title>Node11&#45;&gt;Node12</title>
<path fill="none" stroke="midnightblue" d="M410.57,-329.42C384.91,-324.66 350.25,-313.61 333.12,-288 325.46,-276.55 331.98,-270.73 333.12,-257 338.05,-197.45 367.91,-177.82 344.12,-123 339.05,-111.32 329.8,-101.1 320.37,-92.98"/>
<polygon fill="midnightblue" stroke="midnightblue" points="322.48,-90.19 312.49,-86.65 318.1,-95.64 322.48,-90.19"/>
</g>
<!-- Node13 -->
<g id="node13" class="node">
<title>Node13</title>
<g id="a_node13"><a xlink:href="JUTXfb_8h.html" target="_top" xlink:title=" ">
<polygon fill="white" stroke="black" points="342.62,-257.5 342.62,-287.5 467.62,-287.5 467.62,-257.5 342.62,-257.5"/>
<text text-anchor="start" x="350.62" y="-275.5" font-family="Helvetica,sans-Serif" font-size="10.00">JSystem/JUtility/JUTXfb</text>
<text text-anchor="middle" x="405.12" y="-264.5" font-family="Helvetica,sans-Serif" font-size="10.00">/JUTXfb.h</text>
</a>
</g>
</g>
<!-- Node11&#45;&gt;Node13 -->
<g id="edge17" class="edge">
<title>Node11&#45;&gt;Node13</title>
<path fill="none" stroke="midnightblue" d="M436.82,-324.48C432.23,-317.09 425.38,-306.08 419.22,-296.17"/>
<polygon fill="midnightblue" stroke="midnightblue" points="422.09,-294.17 413.84,-287.52 416.15,-297.86 422.09,-294.17"/>
</g>
<!-- Node17 -->
<g id="node17" class="node">
<title>Node17</title>
<g id="a_node17"><a xlink:href="c__xyz_8h.html" target="_top" xlink:title=" ">
<polygon fill="white" stroke="black" points="485.62,-263 485.62,-282 592.62,-282 592.62,-263 485.62,-263"/>
<text text-anchor="middle" x="539.12" y="-270" font-family="Helvetica,sans-Serif" font-size="10.00">SComponent/c_xyz.h</text>
</a>
</g>
</g>
<!-- Node11&#45;&gt;Node17 -->
<g id="edge27" class="edge">
<title>Node11&#45;&gt;Node17</title>
<path fill="none" stroke="midnightblue" d="M456.02,-324.48C471.79,-314.8 497.76,-298.87 516.47,-287.39"/>
<polygon fill="midnightblue" stroke="midnightblue" points="518.55,-290.22 525.25,-282.01 514.89,-284.25 518.55,-290.22"/>
</g>
<!-- Node12&#45;&gt;Node5 -->
<g id="edge16" class="edge">
<title>Node12&#45;&gt;Node5</title>
<path fill="none" stroke="midnightblue" d="M303.39,-56.4C311.7,-47.58 322.42,-36.18 331.04,-27.02"/>
<polygon fill="midnightblue" stroke="midnightblue" points="333.67,-29.34 337.97,-19.66 328.57,-24.54 333.67,-29.34"/>
</g>
<!-- Node13&#45;&gt;Node5 -->
<g id="edge24" class="edge">
<title>Node13&#45;&gt;Node5</title>
<path fill="none" stroke="midnightblue" d="M413.03,-257.36C432.25,-220.93 476.96,-122.07 436.12,-56 426.45,-40.35 409.5,-29.96 392.9,-23.15"/>
<polygon fill="midnightblue" stroke="midnightblue" points="393.81,-19.76 383.22,-19.54 391.37,-26.32 393.81,-19.76"/>
</g>
<!-- Node14 -->
<g id="node14" class="node">
<title>Node14</title>
<g id="a_node14"><a xlink:href="JKRHeap_8h.html" target="_top" xlink:title=" ">
<polygon fill="white" stroke="black" points="194.12,-190.5 194.12,-220.5 330.12,-220.5 330.12,-190.5 194.12,-190.5"/>
<text text-anchor="start" x="202.12" y="-208.5" font-family="Helvetica,sans-Serif" font-size="10.00">JSystem/JKernel/JKRHeap</text>
<text text-anchor="middle" x="262.12" y="-197.5" font-family="Helvetica,sans-Serif" font-size="10.00">/JKRHeap.h</text>
</a>
</g>
</g>
<!-- Node13&#45;&gt;Node14 -->
<g id="edge18" class="edge">
<title>Node13&#45;&gt;Node14</title>
<path fill="none" stroke="midnightblue" d="M374.09,-257.4C353.1,-247.86 325.18,-235.16 302.47,-224.84"/>
<polygon fill="midnightblue" stroke="midnightblue" points="303.64,-221.53 293.09,-220.58 300.74,-227.9 303.64,-221.53"/>
</g>
<!-- Node16 -->
<g id="node16" class="node">
<title>Node16</title>
<g id="a_node16"><a xlink:href="GX_8h.html" target="_top" xlink:title=" ">
<polygon fill="white" stroke="black" points="376.62,-62 376.62,-81 427.62,-81 427.62,-62 376.62,-62"/>
<text text-anchor="middle" x="402.12" y="-69" font-family="Helvetica,sans-Serif" font-size="10.00">gx/GX.h</text>
</a>
</g>
</g>
<!-- Node13&#45;&gt;Node16 -->
<g id="edge25" class="edge">
<title>Node13&#45;&gt;Node16</title>
<path fill="none" stroke="midnightblue" d="M404.9,-257.19C404.37,-221.99 403,-131.17 402.41,-91.51"/>
<polygon fill="midnightblue" stroke="midnightblue" points="405.9,-91.31 402.25,-81.36 398.9,-91.41 405.9,-91.31"/>
</g>
<!-- Node14&#45;&gt;Node4 -->
<g id="edge23" class="edge">
<title>Node14&#45;&gt;Node4</title>
<path fill="none" stroke="midnightblue" d="M265.79,-220.72C270.95,-238.32 281.81,-268.36 300.12,-288 363.37,-355.84 476.64,-378.41 533.91,-385.69"/>
<polygon fill="midnightblue" stroke="midnightblue" points="533.58,-389.17 543.92,-386.88 534.4,-382.22 533.58,-389.17"/>
</g>
<!-- Node14&#45;&gt;Node5 -->
<g id="edge22" class="edge">
<title>Node14&#45;&gt;Node5</title>
<path fill="none" stroke="midnightblue" d="M219.31,-190.42C202.43,-182.52 184.79,-170.8 175.12,-154 168.24,-142.06 172.32,-136.49 175.12,-123 181.7,-91.23 180.04,-77.75 204.12,-56 229.18,-33.36 265.63,-22.11 295.32,-16.52"/>
<polygon fill="midnightblue" stroke="midnightblue" points="296.25,-19.91 305.52,-14.77 295.07,-13.01 296.25,-19.91"/>
</g>
<!-- Node15 -->
<g id="node15" class="node">
<title>Node15</title>
<g id="a_node15"><a xlink:href="JKRDisposer_8h.html" target="_top" xlink:title=" ">
<polygon fill="white" stroke="black" points="184.62,-123.5 184.62,-153.5 335.62,-153.5 335.62,-123.5 184.62,-123.5"/>
<text text-anchor="start" x="192.62" y="-141.5" font-family="Helvetica,sans-Serif" font-size="10.00">JSystem/JKernel/JKRDisposer</text>
<text text-anchor="middle" x="260.12" y="-130.5" font-family="Helvetica,sans-Serif" font-size="10.00">/JKRDisposer.h</text>
</a>
</g>
</g>
<!-- Node14&#45;&gt;Node15 -->
<g id="edge19" class="edge">
<title>Node14&#45;&gt;Node15</title>
<path fill="none" stroke="midnightblue" d="M261.68,-190.4C261.45,-182.64 261.14,-172.81 260.87,-163.86"/>
<polygon fill="midnightblue" stroke="midnightblue" points="264.36,-163.46 260.55,-153.58 257.36,-163.68 264.36,-163.46"/>
</g>
<!-- Node15&#45;&gt;Node5 -->
<g id="edge21" class="edge">
<title>Node15&#45;&gt;Node5</title>
<path fill="none" stroke="midnightblue" d="M241.95,-123.43C222.67,-106.76 197.03,-78.43 213.12,-56 231.74,-30.04 266.15,-18.87 295.3,-14.14"/>
<polygon fill="midnightblue" stroke="midnightblue" points="295.95,-17.59 305.36,-12.73 294.97,-10.66 295.95,-17.59"/>
</g>
<!-- Node15&#45;&gt;Node12 -->
<g id="edge20" class="edge">
<title>Node15&#45;&gt;Node12</title>
<path fill="none" stroke="midnightblue" d="M266.63,-123.4C270.36,-115.3 275.14,-104.94 279.42,-95.69"/>
<polygon fill="midnightblue" stroke="midnightblue" points="282.61,-97.12 283.62,-86.58 276.25,-94.19 282.61,-97.12"/>
</g>
<!-- Node16&#45;&gt;Node5 -->
<g id="edge26" class="edge">
<title>Node16&#45;&gt;Node5</title>
<path fill="none" stroke="midnightblue" d="M394.1,-61.98C385.53,-52.87 371.76,-38.24 361.16,-26.98"/>
<polygon fill="midnightblue" stroke="midnightblue" points="363.53,-24.39 354.13,-19.51 358.43,-29.19 363.53,-24.39"/>
</g>
<!-- Node17&#45;&gt;Node4 -->
<g id="edge30" class="edge">
<title>Node17&#45;&gt;Node4</title>
<path fill="none" stroke="midnightblue" d="M541.4,-282.28C546.27,-301.02 557.76,-345.26 564.31,-370.5"/>
<polygon fill="midnightblue" stroke="midnightblue" points="560.96,-371.52 566.86,-380.32 567.74,-369.76 560.96,-371.52"/>
</g>
<!-- Node18 -->
<g id="node18" class="node">
<title>Node18</title>
<g id="a_node18"><a xlink:href="c__math_8h.html" target="_top" xlink:title=" ">
<polygon fill="white" stroke="black" points="548.12,-196 548.12,-215 664.12,-215 664.12,-196 548.12,-196"/>
<text text-anchor="middle" x="606.12" y="-203" font-family="Helvetica,sans-Serif" font-size="10.00">SComponent/c_math.h</text>
</a>
</g>
</g>
<!-- Node17&#45;&gt;Node18 -->
<g id="edge28" class="edge">
<title>Node17&#45;&gt;Node18</title>
<path fill="none" stroke="midnightblue" d="M548.15,-262.73C558.8,-252.4 576.7,-235.04 589.8,-222.33"/>
<polygon fill="midnightblue" stroke="midnightblue" points="592.49,-224.6 597.23,-215.13 587.61,-219.58 592.49,-224.6"/>
</g>
<!-- Node19 -->
<g id="node19" class="node">
<title>Node19</title>
<g id="a_node19"><a xlink:href="mtx__vec_8h.html" target="_top" xlink:title=" ">
<polygon fill="white" stroke="black" points="468.62,-196 468.62,-215 529.62,-215 529.62,-196 468.62,-196"/>
<text text-anchor="middle" x="499.12" y="-203" font-family="Helvetica,sans-Serif" font-size="10.00">mtx_vec.h</text>
</a>
</g>
</g>
<!-- Node17&#45;&gt;Node19 -->
<g id="edge31" class="edge">
<title>Node17&#45;&gt;Node19</title>
<path fill="none" stroke="midnightblue" d="M533.72,-262.73C527.61,-252.79 517.48,-236.34 509.76,-223.79"/>
<polygon fill="midnightblue" stroke="midnightblue" points="512.65,-221.81 504.43,-215.13 506.69,-225.48 512.65,-221.81"/>
</g>
<!-- Node18&#45;&gt;Node4 -->
<g id="edge29" class="edge">
<title>Node18&#45;&gt;Node4</title>
<path fill="none" stroke="midnightblue" d="M606.28,-215.15C606.41,-230.13 606,-261.8 601.12,-288 595.58,-317.74 583.95,-350.95 576.35,-370.9"/>
<polygon fill="midnightblue" stroke="midnightblue" points="573.06,-369.68 572.69,-380.27 579.58,-372.22 573.06,-369.68"/>
</g>
<!-- Node19&#45;&gt;Node5 -->
<g id="edge32" class="edge">
<title>Node19&#45;&gt;Node5</title>
<path fill="none" stroke="midnightblue" d="M500.12,-195.9C502.52,-170.99 505.98,-97.91 470.12,-56 451.78,-34.57 422.39,-23.34 396.83,-17.46"/>
<polygon fill="midnightblue" stroke="midnightblue" points="397.38,-14.01 386.88,-15.39 395.96,-20.86 397.38,-14.01"/>
</g>
<!-- Node20&#45;&gt;Node3 -->
<g id="edge36" class="edge">
<title>Node20&#45;&gt;Node3</title>
<path fill="none" stroke="midnightblue" d="M264.36,-609.89C256.79,-592.05 239.97,-549.59 234.12,-512 232.75,-503.22 232.12,-500.66 234.12,-492 236.35,-482.36 240.94,-472.41 245.35,-464.31"/>
<polygon fill="midnightblue" stroke="midnightblue" points="248.47,-465.92 250.48,-455.52 242.42,-462.4 248.47,-465.92"/>
</g>
<!-- Node20&#45;&gt;Node4 -->
<g id="edge40" class="edge">
<title>Node20&#45;&gt;Node4</title>
<path fill="none" stroke="midnightblue" d="M320.68,-609.95C386.55,-598.85 492.62,-579.54 507.12,-568 556.54,-528.67 566.66,-447.3 568.67,-410.19"/>
<polygon fill="midnightblue" stroke="midnightblue" points="572.18,-409.94 569.07,-399.81 565.19,-409.67 572.18,-409.94"/>
</g>
<!-- Node21 -->
<g id="node21" class="node">
<title>Node21</title>
<g id="a_node21"><a xlink:href="c__list_8h.html" target="_top" xlink:title=" ">
<polygon fill="white" stroke="black" points="243.62,-492.5 243.62,-511.5 350.62,-511.5 350.62,-492.5 243.62,-492.5"/>
<text text-anchor="middle" x="297.12" y="-499.5" font-family="Helvetica,sans-Serif" font-size="10.00">SComponent/c_list.h</text>
</a>
</g>
</g>
<!-- Node20&#45;&gt;Node21 -->
<g id="edge34" class="edge">
<title>Node20&#45;&gt;Node21</title>
<path fill="none" stroke="midnightblue" d="M270.3,-609.82C274.98,-591.17 286.09,-546.94 292.44,-521.63"/>
<polygon fill="midnightblue" stroke="midnightblue" points="295.87,-522.33 294.91,-511.78 289.08,-520.63 295.87,-522.33"/>
</g>
<!-- Node20&#45;&gt;Node22 -->
<g id="edge37" class="edge">
<title>Node20&#45;&gt;Node22</title>
<path fill="none" stroke="midnightblue" d="M255.08,-609.98C240.35,-600.34 216.15,-584.52 198.61,-573.05"/>
<polygon fill="midnightblue" stroke="midnightblue" points="200.42,-570.05 190.13,-567.51 196.59,-575.91 200.42,-570.05"/>
</g>
<!-- Node21&#45;&gt;Node3 -->
<g id="edge35" class="edge">
<title>Node21&#45;&gt;Node3</title>
<path fill="none" stroke="midnightblue" d="M290.35,-492.08C284.56,-484.46 276.06,-473.26 268.98,-463.94"/>
<polygon fill="midnightblue" stroke="midnightblue" points="271.6,-461.6 262.76,-455.75 266.02,-465.83 271.6,-461.6"/>
</g>
<!-- Node22&#45;&gt;Node3 -->
<g id="edge39" class="edge">
<title>Node22&#45;&gt;Node3</title>
<path fill="none" stroke="midnightblue" d="M178.79,-548.31C181.64,-535.16 188.41,-509.83 201.12,-492 209.71,-479.95 222.32,-469.32 233.3,-461.41"/>
<polygon fill="midnightblue" stroke="midnightblue" points="235.39,-464.23 241.65,-455.69 231.43,-458.46 235.39,-464.23"/>
</g>
<!-- Node22&#45;&gt;Node21 -->
<g id="edge38" class="edge">
<title>Node22&#45;&gt;Node21</title>
<path fill="none" stroke="midnightblue" d="M196.13,-548.44C215.71,-539.64 246.43,-525.81 268.85,-515.72"/>
<polygon fill="midnightblue" stroke="midnightblue" points="270.51,-518.81 278.19,-511.52 267.64,-512.43 270.51,-518.81"/>
</g>
<!-- Node23&#45;&gt;Node4 -->
<g id="edge50" class="edge">
<title>Node23&#45;&gt;Node4</title>
<path fill="none" stroke="midnightblue" d="M486.87,-615.57C520.16,-610.7 561.4,-598.42 583.12,-568 617.69,-519.57 592.17,-443.54 577.52,-409.07"/>
<polygon fill="midnightblue" stroke="midnightblue" points="580.65,-407.5 573.4,-399.78 574.25,-410.34 580.65,-407.5"/>
</g>
<!-- Node24 -->
<g id="node24" class="node">
<title>Node24</title>
<g id="a_node24"><a xlink:href="c__list__iter_8h.html" target="_top" xlink:title=" ">
<polygon fill="white" stroke="black" points="373.62,-548.5 373.62,-567.5 498.62,-567.5 498.62,-548.5 373.62,-548.5"/>
<text text-anchor="middle" x="436.12" y="-555.5" font-family="Helvetica,sans-Serif" font-size="10.00">SComponent/c_list_iter.h</text>
</a>
</g>
</g>
<!-- Node23&#45;&gt;Node24 -->
<g id="edge45" class="edge">
<title>Node23&#45;&gt;Node24</title>
<path fill="none" stroke="midnightblue" d="M436.12,-604.4C436.12,-596.47 436.12,-586.46 436.12,-577.86"/>
<polygon fill="midnightblue" stroke="midnightblue" points="439.62,-577.66 436.12,-567.66 432.62,-577.66 439.62,-577.66"/>
</g>
<!-- Node24&#45;&gt;Node4 -->
<g id="edge49" class="edge">
<title>Node24&#45;&gt;Node4</title>
<path fill="none" stroke="midnightblue" d="M457.81,-548.39C474.45,-540.87 497.05,-528.56 512.12,-512 526.73,-495.94 550.42,-438.76 562.12,-409.12"/>
<polygon fill="midnightblue" stroke="midnightblue" points="565.47,-410.16 565.85,-399.57 558.95,-407.61 565.47,-410.16"/>
</g>
<!-- Node24&#45;&gt;Node21 -->
<g id="edge46" class="edge">
<title>Node24&#45;&gt;Node21</title>
<path fill="none" stroke="midnightblue" d="M414.09,-548.44C391.01,-539.48 354.56,-525.31 328.48,-515.18"/>
<polygon fill="midnightblue" stroke="midnightblue" points="329.63,-511.88 319.04,-511.52 327.09,-518.4 329.63,-511.88"/>
</g>
<!-- Node25 -->
<g id="node25" class="node">
<title>Node25</title>
<g id="a_node25"><a xlink:href="c__node__iter_8h.html" target="_top" xlink:title=" ">
<polygon fill="white" stroke="black" points="369.12,-492.5 369.12,-511.5 503.12,-511.5 503.12,-492.5 369.12,-492.5"/>
<text text-anchor="middle" x="436.12" y="-499.5" font-family="Helvetica,sans-Serif" font-size="10.00">SComponent/c_node_iter.h</text>
</a>
</g>
</g>
<!-- Node24&#45;&gt;Node25 -->
<g id="edge47" class="edge">
<title>Node24&#45;&gt;Node25</title>
<path fill="none" stroke="midnightblue" d="M436.12,-548.08C436.12,-541.01 436.12,-530.86 436.12,-521.99"/>
<polygon fill="midnightblue" stroke="midnightblue" points="439.62,-521.75 436.12,-511.75 432.62,-521.75 439.62,-521.75"/>
</g>
<!-- Node25&#45;&gt;Node3 -->
<g id="edge48" class="edge">
<title>Node25&#45;&gt;Node3</title>
<path fill="none" stroke="midnightblue" d="M407.6,-492.44C377.05,-483.28 328.41,-468.69 294.52,-458.52"/>
<polygon fill="midnightblue" stroke="midnightblue" points="295.09,-455.04 284.51,-455.52 293.08,-461.74 295.09,-455.04"/>
</g>
<!-- Node26&#45;&gt;Node4 -->
<g id="edge53" class="edge">
<title>Node26&#45;&gt;Node4</title>
<path fill="none" stroke="midnightblue" d="M322.81,-679.12C424.8,-664.86 645.12,-626.27 645.12,-559 645.12,-559 645.12,-559 645.12,-501 645.12,-461.28 611.15,-425.5 588.64,-406.15"/>
<polygon fill="midnightblue" stroke="midnightblue" points="590.6,-403.24 580.66,-399.57 586.14,-408.63 590.6,-403.24"/>
</g>
<!-- Node26&#45;&gt;Node20 -->
<g id="edge52" class="edge">
<title>Node26&#45;&gt;Node20</title>
<path fill="none" stroke="midnightblue" d="M271.25,-671.4C270.67,-661.96 269.9,-649.45 269.27,-639.19"/>
<polygon fill="midnightblue" stroke="midnightblue" points="272.76,-638.96 268.65,-629.19 265.77,-639.39 272.76,-638.96"/>
</g>
</g>
</svg>
        <g id="navigator" transform="translate(0 0)" fill="#404254">
                <rect fill="#f2f5e9" fill-opacity="0.5" stroke="#606060" stroke-width=".5" x="0" y="0" width="60" height="60"/>
                <use id="zoomplus" xlink:href="#zoomPlus" x="17" y="9" onmousedown="handleZoom(evt,'in')"/>
                <use id="zoomminus" xlink:href="#zoomMin" x="42" y="9" onmousedown="handleZoom(evt,'out')"/>
                <use id="reset" xlink:href="#resetDef" x="30" y="36" onmousedown="handleReset()"/>
                <g id="arrowUp" xlink:href="#dirArrow" transform="translate(30 24)" onmousedown="handlePan(0,-1)">
                  <use xlink:href="#rim" fill="#404040">
                        <set attributeName="fill" to="#808080" begin="arrowUp.mouseover" end="arrowUp.mouseout"/>
                  </use>
                  <path fill="none" stroke="white" stroke-width="1.5" d="M0,-3.0v7 M-2.5,-0.5L0,-3.0L2.5,-0.5"/>
                </g>
                <g id="arrowRight" xlink:href="#dirArrow" transform="rotate(90) translate(36 -43)" onmousedown="handlePan(1,0)">
                  <use xlink:href="#rim" fill="#404040">
                        <set attributeName="fill" to="#808080" begin="arrowRight.mouseover" end="arrowRight.mouseout"/>
                  </use>
                  <path fill="none" stroke="white" stroke-width="1.5" d="M0,-3.0v7 M-2.5,-0.5L0,-3.0L2.5,-0.5"/>
                </g>
                <g id="arrowDown" xlink:href="#dirArrow" transform="rotate(180) translate(-30 -48)" onmousedown="handlePan(0,1)">
                  <use xlink:href="#rim" fill="#404040">
                        <set attributeName="fill" to="#808080" begin="arrowDown.mouseover" end="arrowDown.mouseout"/>
                  </use>
                  <path fill="none" stroke="white" stroke-width="1.5" d="M0,-3.0v7 M-2.5,-0.5L0,-3.0L2.5,-0.5"/>
                </g>
                <g id="arrowLeft" xlink:href="#dirArrow" transform="rotate(270) translate(-36 17)" onmousedown="handlePan(-1,0)">
                  <use xlink:href="#rim" fill="#404040">
                        <set attributeName="fill" to="#808080" begin="arrowLeft.mouseover" end="arrowLeft.mouseout"/>
                  </use>
                  <path fill="none" stroke="white" stroke-width="1.5" d="M0,-3.0v7 M-2.5,-0.5L0,-3.0L2.5,-0.5"/>
                </g>
        </g>
        <svg viewBox="0 0 15 15" width="100%" height="30px" preserveAspectRatio="xMaxYMin meet">
         <g id="arrow_out" transform="scale(0.3 0.3)">
          <a xlink:href="f__pc__layer_8cpp__incl_org.svg" target="_base">
           <rect id="button" ry="5" rx="5" y="6" x="6" height="38" width="38"
                fill="#f2f5e9" fill-opacity="0.5" stroke="#606060" stroke-width="1.0"/>
           <path id="arrow"
             d="M 11.500037,31.436501 C 11.940474,20.09759 22.043105,11.32322 32.158766,21.979434 L 37.068811,17.246167 C 37.068811,17.246167 37.088388,32 37.088388,32 L 22.160133,31.978069 C 22.160133,31.978069 26.997745,27.140456 26.997745,27.140456 C 18.528582,18.264221 13.291696,25.230495 11.500037,31.436501 z"
             style="fill:#404040;"/>
          </a>
         </g>
        </svg>
</svg>
