<?xml version="1.0" encoding="UTF-8" standalone="no"?>
<!DOCTYPE svg PUBLIC "-//W3C//DTD SVG 1.1//EN"
 "http://www.w3.org/Graphics/SVG/1.1/DTD/svg11.dtd">
<!-- Generated by graphviz version 2.46.0 (20210122.1329)
 -->
<!-- Title: include/f/f_pc/f_pc_create_req.h Pages: 1 -->
<!--zoomable 766 -->
<svg id="main" version="1.1" xmlns="http://www.w3.org/2000/svg" xmlns:xlink="http://www.w3.org/1999/xlink" xml:space="preserve" onload="init(evt)">
<style type="text/css"><![CDATA[
.edge:hover path { stroke: red; }
.edge:hover polygon { stroke: red; fill: red; }
]]></style>
<script type="text/javascript"><![CDATA[
var edges = document.getElementsByTagName('g');
if (edges && edges.length) {
  for (var i=0;i<edges.length;i++) {
    if (edges[i].id.substr(0,4)=='edge') {
      edges[i].setAttribute('class','edge');
    }
  }
}
]]></script>
        <defs>
                <circle id="rim" cx="0" cy="0" r="7"/>
                <circle id="rim2" cx="0" cy="0" r="3.5"/>
                <g id="zoomPlus">
                        <use xlink:href="#rim" fill="#404040">
                                <set attributeName="fill" to="#808080" begin="zoomplus.mouseover" end="zoomplus.mouseout"/>
                        </use>
                        <path d="M-4,0h8M0,-4v8" fill="none" stroke="white" stroke-width="1.5" pointer-events="none"/>
                </g>
                <g id="zoomMin">
                        <use xlink:href="#rim" fill="#404040">
                                <set attributeName="fill" to="#808080" begin="zoomminus.mouseover" end="zoomminus.mouseout"/>
                        </use>
                        <path d="M-4,0h8" fill="none" stroke="white" stroke-width="1.5" pointer-events="none"/>
                </g>
                <g id="dirArrow">
                        <path fill="none" stroke="white" stroke-width="1.5" d="M0,-3.0v7 M-2.5,-0.5L0,-3.0L2.5,-0.5"/>
                </g>
               <g id="resetDef">
                       <use xlink:href="#rim2" fill="#404040">
                               <set attributeName="fill" to="#808080" begin="reset.mouseover" end="reset.mouseout"/>
                       </use>
               </g>
        </defs>

<script type="text/javascript">
var viewWidth = 857;
var viewHeight = 766;
var sectionId = 'dynsection-0';
</script>
<script xlink:href="svgpan.js"/>
<svg id="graph" class="graph">
<g id="viewport">
<title>include/f/f_pc/f_pc_create_req.h</title>
<polygon fill="white" stroke="transparent" points="-4,4 -4,-762 853,-762 853,4 -4,4"/>
<!-- Node1 -->
<g id="node1" class="node">
<title>Node1</title>
<g id="a_node1"><a xlink:title=" ">
<polygon fill="#bfbfbf" stroke="black" points="253.5,-727.5 253.5,-757.5 350.5,-757.5 350.5,-727.5 253.5,-727.5"/>
<text text-anchor="start" x="261.5" y="-745.5" font-family="Helvetica,sans-Serif" font-size="10.00">include/f/f_pc/f_pc</text>
<text text-anchor="middle" x="302" y="-734.5" font-family="Helvetica,sans-Serif" font-size="10.00">_create_req.h</text>
</a>
</g>
</g>
<!-- Node2 -->
<g id="node2" class="node">
<title>Node2</title>
<g id="a_node2"><a xlink:href="c__phase_8h.html" target="_top" xlink:title=" ">
<polygon fill="white" stroke="black" points="0,-666 0,-685 120,-685 120,-666 0,-666"/>
<text text-anchor="middle" x="60" y="-673" font-family="Helvetica,sans-Serif" font-size="10.00">SComponent/c_phase.h</text>
</a>
</g>
</g>
<!-- Node1&#45;&gt;Node2 -->
<g id="edge1" class="edge">
<title>Node1&#45;&gt;Node2</title>
<path fill="none" stroke="midnightblue" d="M253.32,-728.42C208.72,-716.45 143.43,-698.91 101.32,-687.6"/>
<polygon fill="midnightblue" stroke="midnightblue" points="102.22,-684.22 91.66,-685 100.41,-690.98 102.22,-684.22"/>
</g>
<!-- Node3 -->
<g id="node3" class="node">
<title>Node3</title>
<g id="a_node3"><a xlink:href="c__tag_8h.html" target="_top" xlink:title=" ">
<polygon fill="white" stroke="black" points="246.5,-604.5 246.5,-623.5 353.5,-623.5 353.5,-604.5 246.5,-604.5"/>
<text text-anchor="middle" x="300" y="-611.5" font-family="Helvetica,sans-Serif" font-size="10.00">SComponent/c_tag.h</text>
</a>
</g>
</g>
<!-- Node1&#45;&gt;Node3 -->
<g id="edge2" class="edge">
<title>Node1&#45;&gt;Node3</title>
<path fill="none" stroke="midnightblue" d="M301.78,-727.48C301.42,-704.72 300.71,-659.7 300.3,-634.06"/>
<polygon fill="midnightblue" stroke="midnightblue" points="303.8,-633.73 300.14,-623.79 296.8,-633.84 303.8,-633.73"/>
</g>
<!-- Node6 -->
<g id="node6" class="node">
<title>Node6</title>
<g id="a_node6"><a xlink:href="global_8h.html" target="_top" xlink:title=" ">
<polygon fill="white" stroke="black" points="356,-380.5 356,-399.5 406,-399.5 406,-380.5 356,-380.5"/>
<text text-anchor="middle" x="381" y="-387.5" font-family="Helvetica,sans-Serif" font-size="10.00">global.h</text>
</a>
</g>
</g>
<!-- Node1&#45;&gt;Node6 -->
<g id="edge56" class="edge">
<title>Node1&#45;&gt;Node6</title>
<path fill="none" stroke="midnightblue" d="M253.42,-734.25C225.1,-727.58 190.79,-714.92 169,-691 145.4,-665.09 148,-650.04 148,-615 148,-615 148,-615 148,-501 148,-414.77 280.11,-396.03 345.38,-392.04"/>
<polygon fill="midnightblue" stroke="midnightblue" points="345.82,-395.52 355.62,-391.5 345.45,-388.53 345.82,-395.52"/>
</g>
<!-- Node24 -->
<g id="node24" class="node">
<title>Node24</title>
<g id="a_node24"><a xlink:href="f__pc__create__tag_8h.html" target="_top" xlink:title=" ">
<polygon fill="white" stroke="black" points="178.5,-660.5 178.5,-690.5 273.5,-690.5 273.5,-660.5 178.5,-660.5"/>
<text text-anchor="start" x="186.5" y="-678.5" font-family="Helvetica,sans-Serif" font-size="10.00">f/f_pc/f_pc_create</text>
<text text-anchor="middle" x="226" y="-667.5" font-family="Helvetica,sans-Serif" font-size="10.00">_tag.h</text>
</a>
</g>
</g>
<!-- Node1&#45;&gt;Node24 -->
<g id="edge43" class="edge">
<title>Node1&#45;&gt;Node24</title>
<path fill="none" stroke="midnightblue" d="M285.51,-727.4C275.15,-718.54 261.62,-706.96 250.07,-697.09"/>
<polygon fill="midnightblue" stroke="midnightblue" points="252.33,-694.42 242.46,-690.58 247.78,-699.74 252.33,-694.42"/>
</g>
<!-- Node25 -->
<g id="node25" class="node">
<title>Node25</title>
<g id="a_node25"><a xlink:href="f__pc__layer_8h.html" target="_top" xlink:title=" ">
<polygon fill="white" stroke="black" points="332,-666 332,-685 428,-685 428,-666 332,-666"/>
<text text-anchor="middle" x="380" y="-673" font-family="Helvetica,sans-Serif" font-size="10.00">f/f_pc/f_pc_layer.h</text>
</a>
</g>
</g>
<!-- Node1&#45;&gt;Node25 -->
<g id="edge46" class="edge">
<title>Node1&#45;&gt;Node25</title>
<path fill="none" stroke="midnightblue" d="M318.92,-727.4C331.57,-716.86 348.83,-702.48 361.77,-691.69"/>
<polygon fill="midnightblue" stroke="midnightblue" points="364.12,-694.29 369.57,-685.19 359.64,-688.91 364.12,-694.29"/>
</g>
<!-- Node26 -->
<g id="node26" class="node">
<title>Node26</title>
<g id="a_node26"><a xlink:href="f__pc__method_8h.html" target="_top" xlink:title=" ">
<polygon fill="white" stroke="black" points="570,-604.5 570,-623.5 678,-623.5 678,-604.5 570,-604.5"/>
<text text-anchor="middle" x="624" y="-611.5" font-family="Helvetica,sans-Serif" font-size="10.00">f/f_pc/f_pc_method.h</text>
</a>
</g>
</g>
<!-- Node1&#45;&gt;Node26 -->
<g id="edge51" class="edge">
<title>Node1&#45;&gt;Node26</title>
<path fill="none" stroke="midnightblue" d="M350.8,-740.99C404.65,-738.43 492.25,-728.23 557,-691 581.7,-676.79 601.97,-650.13 613.53,-632.47"/>
<polygon fill="midnightblue" stroke="midnightblue" points="616.67,-634.05 619.02,-623.72 610.74,-630.33 616.67,-634.05"/>
</g>
<!-- Node27 -->
<g id="node27" class="node">
<title>Node27</title>
<g id="a_node27"><a xlink:href="f__pc__method__tag_8h.html" target="_top" xlink:title=" ">
<polygon fill="white" stroke="black" points="446.5,-660.5 446.5,-690.5 547.5,-690.5 547.5,-660.5 446.5,-660.5"/>
<text text-anchor="start" x="454.5" y="-678.5" font-family="Helvetica,sans-Serif" font-size="10.00">f/f_pc/f_pc_method</text>
<text text-anchor="middle" x="497" y="-667.5" font-family="Helvetica,sans-Serif" font-size="10.00">_tag.h</text>
</a>
</g>
</g>
<!-- Node1&#45;&gt;Node27 -->
<g id="edge53" class="edge">
<title>Node1&#45;&gt;Node27</title>
<path fill="none" stroke="midnightblue" d="M344.31,-727.4C373.95,-717.52 413.74,-704.25 445.27,-693.74"/>
<polygon fill="midnightblue" stroke="midnightblue" points="446.39,-697.06 454.77,-690.58 444.18,-690.42 446.39,-697.06"/>
</g>
<!-- Node4 -->
<g id="node4" class="node">
<title>Node4</title>
<g id="a_node4"><a xlink:href="c__list_8h.html" target="_top" xlink:title=" ">
<polygon fill="white" stroke="black" points="290.5,-492.5 290.5,-511.5 397.5,-511.5 397.5,-492.5 290.5,-492.5"/>
<text text-anchor="middle" x="344" y="-499.5" font-family="Helvetica,sans-Serif" font-size="10.00">SComponent/c_list.h</text>
</a>
</g>
</g>
<!-- Node3&#45;&gt;Node4 -->
<g id="edge3" class="edge">
<title>Node3&#45;&gt;Node4</title>
<path fill="none" stroke="midnightblue" d="M301.87,-604.38C304.76,-591.73 310.84,-567.53 319,-548 322.96,-538.52 328.41,-528.47 333.21,-520.29"/>
<polygon fill="midnightblue" stroke="midnightblue" points="336.24,-522.04 338.42,-511.67 330.25,-518.42 336.24,-522.04"/>
</g>
<!-- Node5 -->
<g id="node5" class="node">
<title>Node5</title>
<g id="a_node5"><a xlink:href="c__node_8h.html" target="_top" xlink:title=" ">
<polygon fill="white" stroke="black" points="323.5,-436.5 323.5,-455.5 438.5,-455.5 438.5,-436.5 323.5,-436.5"/>
<text text-anchor="middle" x="381" y="-443.5" font-family="Helvetica,sans-Serif" font-size="10.00">SComponent/c_node.h</text>
</a>
</g>
</g>
<!-- Node3&#45;&gt;Node5 -->
<g id="edge38" class="edge">
<title>Node3&#45;&gt;Node5</title>
<path fill="none" stroke="midnightblue" d="M295,-604.25C283.65,-583.09 258.66,-528.25 282,-492 292.31,-475.99 309.85,-465.62 327.33,-458.92"/>
<polygon fill="midnightblue" stroke="midnightblue" points="328.7,-462.15 336.99,-455.56 326.4,-455.54 328.7,-462.15"/>
</g>
<!-- Node3&#45;&gt;Node6 -->
<g id="edge42" class="edge">
<title>Node3&#45;&gt;Node6</title>
<path fill="none" stroke="midnightblue" d="M291.79,-604.18C284.46,-595.66 274.24,-582.02 270,-568 260.21,-535.67 258.78,-523.86 270,-492 284.38,-451.15 326.88,-420.77 354.92,-404.48"/>
<polygon fill="midnightblue" stroke="midnightblue" points="356.8,-407.44 363.81,-399.51 353.38,-401.34 356.8,-407.44"/>
</g>
<!-- Node23 -->
<g id="node23" class="node">
<title>Node23</title>
<g id="a_node23"><a xlink:href="c__tree_8h.html" target="_top" xlink:title=" ">
<polygon fill="white" stroke="black" points="328,-548.5 328,-567.5 438,-567.5 438,-548.5 328,-548.5"/>
<text text-anchor="middle" x="383" y="-555.5" font-family="Helvetica,sans-Serif" font-size="10.00">SComponent/c_tree.h</text>
</a>
</g>
</g>
<!-- Node3&#45;&gt;Node23 -->
<g id="edge39" class="edge">
<title>Node3&#45;&gt;Node23</title>
<path fill="none" stroke="midnightblue" d="M313.34,-604.32C326.16,-595.98 345.78,-583.21 360.94,-573.35"/>
<polygon fill="midnightblue" stroke="midnightblue" points="363.22,-576.04 369.7,-567.65 359.41,-570.17 363.22,-576.04"/>
</g>
<!-- Node4&#45;&gt;Node5 -->
<g id="edge4" class="edge">
<title>Node4&#45;&gt;Node5</title>
<path fill="none" stroke="midnightblue" d="M350.11,-492.08C355.28,-484.53 362.85,-473.49 369.19,-464.23"/>
<polygon fill="midnightblue" stroke="midnightblue" points="372.24,-465.98 375,-455.75 366.46,-462.02 372.24,-465.98"/>
</g>
<!-- Node5&#45;&gt;Node6 -->
<g id="edge5" class="edge">
<title>Node5&#45;&gt;Node6</title>
<path fill="none" stroke="midnightblue" d="M381,-436.08C381,-429.01 381,-418.86 381,-409.99"/>
<polygon fill="midnightblue" stroke="midnightblue" points="384.5,-409.75 381,-399.75 377.5,-409.75 384.5,-409.75"/>
</g>
<!-- Node7 -->
<g id="node7" class="node">
<title>Node7</title>
<g id="a_node7"><a xlink:href="types_8h.html" target="_top" xlink:title=" ">
<polygon fill="white" stroke="black" points="282.5,-0.5 282.5,-19.5 363.5,-19.5 363.5,-0.5 282.5,-0.5"/>
<text text-anchor="middle" x="323" y="-7.5" font-family="Helvetica,sans-Serif" font-size="10.00">dolphin/types.h</text>
</a>
</g>
</g>
<!-- Node6&#45;&gt;Node7 -->
<g id="edge6" class="edge">
<title>Node6&#45;&gt;Node7</title>
<path fill="none" stroke="midnightblue" d="M355.98,-389.01C309.54,-388.07 207.95,-381.48 133,-344 91.79,-323.39 57,-319.57 57,-273.5 57,-273.5 57,-273.5 57,-137.5 57,-96.55 67.2,-80.53 100,-56 126.7,-36.03 215.2,-22.82 272.36,-16.15"/>
<polygon fill="midnightblue" stroke="midnightblue" points="272.76,-19.63 282.29,-15.02 271.96,-12.67 272.76,-19.63"/>
</g>
<!-- Node8 -->
<g id="node8" class="node">
<title>Node8</title>
<g id="a_node8"><a xlink:href="AR_8h.html" target="_top" xlink:title=" ">
<polygon fill="white" stroke="black" points="87.5,-129 87.5,-148 136.5,-148 136.5,-129 87.5,-129"/>
<text text-anchor="middle" x="112" y="-136" font-family="Helvetica,sans-Serif" font-size="10.00">ar/AR.h</text>
</a>
</g>
</g>
<!-- Node6&#45;&gt;Node8 -->
<g id="edge7" class="edge">
<title>Node6&#45;&gt;Node8</title>
<path fill="none" stroke="midnightblue" d="M355.83,-387.51C302.45,-383.83 180.42,-372.45 152,-344 101.39,-293.35 105.13,-198.78 109.43,-158.48"/>
<polygon fill="midnightblue" stroke="midnightblue" points="112.92,-158.77 110.64,-148.43 105.97,-157.94 112.92,-158.77"/>
</g>
<!-- Node9 -->
<g id="node9" class="node">
<title>Node9</title>
<g id="a_node9"><a xlink:href="ARQ_8h.html" target="_top" xlink:title=" ">
<polygon fill="white" stroke="black" points="123,-62 123,-81 179,-81 179,-62 123,-62"/>
<text text-anchor="middle" x="151" y="-69" font-family="Helvetica,sans-Serif" font-size="10.00">ar/ARQ.h</text>
</a>
</g>
</g>
<!-- Node6&#45;&gt;Node9 -->
<g id="edge9" class="edge">
<title>Node6&#45;&gt;Node9</title>
<path fill="none" stroke="midnightblue" d="M355.92,-387.13C299.2,-381.41 166,-358.88 166,-273.5 166,-273.5 166,-273.5 166,-204.5 166,-163.9 158.91,-116.72 154.48,-91.21"/>
<polygon fill="midnightblue" stroke="midnightblue" points="157.88,-90.33 152.66,-81.11 150.99,-91.57 157.88,-90.33"/>
</g>
<!-- Node10 -->
<g id="node10" class="node">
<title>Node10</title>
<g id="a_node10"><a xlink:href="functions_8h.html" target="_top" xlink:title=" ">
<polygon fill="white" stroke="black" points="270,-324.5 270,-343.5 334,-343.5 334,-324.5 270,-324.5"/>
<text text-anchor="middle" x="302" y="-331.5" font-family="Helvetica,sans-Serif" font-size="10.00">functions.h</text>
</a>
</g>
</g>
<!-- Node6&#45;&gt;Node10 -->
<g id="edge11" class="edge">
<title>Node6&#45;&gt;Node10</title>
<path fill="none" stroke="midnightblue" d="M368.31,-380.32C356.1,-371.98 337.42,-359.21 323,-349.35"/>
<polygon fill="midnightblue" stroke="midnightblue" points="324.89,-346.41 314.66,-343.65 320.94,-352.19 324.89,-346.41"/>
</g>
<!-- Node12 -->
<g id="node12" class="node">
<title>Node12</title>
<g id="a_node12"><a xlink:href="mwcc_8h.html" target="_top" xlink:title=" ">
<polygon fill="white" stroke="black" points="365,-263 365,-282 415,-282 415,-263 365,-263"/>
<text text-anchor="middle" x="390" y="-270" font-family="Helvetica,sans-Serif" font-size="10.00">mwcc.h</text>
</a>
</g>
</g>
<!-- Node6&#45;&gt;Node12 -->
<g id="edge19" class="edge">
<title>Node6&#45;&gt;Node12</title>
<path fill="none" stroke="midnightblue" d="M381.68,-380.32C383.12,-361.76 386.55,-317.84 388.52,-292.47"/>
<polygon fill="midnightblue" stroke="midnightblue" points="392.03,-292.52 389.32,-282.28 385.05,-291.98 392.03,-292.52"/>
</g>
<!-- Node13 -->
<g id="node13" class="node">
<title>Node13</title>
<g id="a_node13"><a xlink:href="OS_8h.html" target="_top" xlink:title=" ">
<polygon fill="white" stroke="black" points="292,-263 292,-282 344,-282 344,-263 292,-263"/>
<text text-anchor="middle" x="318" y="-270" font-family="Helvetica,sans-Serif" font-size="10.00">os/OS.h</text>
</a>
</g>
</g>
<!-- Node6&#45;&gt;Node13 -->
<g id="edge20" class="edge">
<title>Node6&#45;&gt;Node13</title>
<path fill="none" stroke="midnightblue" d="M376.26,-380.32C365.96,-361.42 341.32,-316.25 327.61,-291.12"/>
<polygon fill="midnightblue" stroke="midnightblue" points="330.65,-289.38 322.79,-282.28 324.51,-292.74 330.65,-289.38"/>
</g>
<!-- Node15 -->
<g id="node15" class="node">
<title>Node15</title>
<g id="a_node15"><a xlink:href="variables_8h.html" target="_top" xlink:title=" ">
<polygon fill="white" stroke="black" points="553.5,-324.5 553.5,-343.5 616.5,-343.5 616.5,-324.5 553.5,-324.5"/>
<text text-anchor="middle" x="585" y="-331.5" font-family="Helvetica,sans-Serif" font-size="10.00">variables.h</text>
</a>
</g>
</g>
<!-- Node6&#45;&gt;Node15 -->
<g id="edge21" class="edge">
<title>Node6&#45;&gt;Node15</title>
<path fill="none" stroke="midnightblue" d="M406.01,-382.38C440.32,-373.3 502.39,-356.87 543.66,-345.94"/>
<polygon fill="midnightblue" stroke="midnightblue" points="544.65,-349.3 553.42,-343.36 542.86,-342.54 544.65,-349.3"/>
</g>
<!-- Node8&#45;&gt;Node7 -->
<g id="edge8" class="edge">
<title>Node8&#45;&gt;Node7</title>
<path fill="none" stroke="midnightblue" d="M109.06,-128.69C104.21,-112.31 96.67,-76.93 114,-56 133.83,-32.05 217.25,-20.17 272.51,-14.82"/>
<polygon fill="midnightblue" stroke="midnightblue" points="272.85,-18.31 282.48,-13.9 272.2,-11.34 272.85,-18.31"/>
</g>
<!-- Node9&#45;&gt;Node7 -->
<g id="edge10" class="edge">
<title>Node9&#45;&gt;Node7</title>
<path fill="none" stroke="midnightblue" d="M175.64,-61.98C205.28,-51.72 255.18,-34.46 288.6,-22.9"/>
<polygon fill="midnightblue" stroke="midnightblue" points="290.1,-26.09 298.4,-19.51 287.81,-19.47 290.1,-26.09"/>
</g>
<!-- Node11 -->
<g id="node11" class="node">
<title>Node11</title>
<g id="a_node11"><a xlink:href="mtx__vec_8h.html" target="_top" xlink:title=" ">
<polygon fill="white" stroke="black" points="194.5,-129 194.5,-148 255.5,-148 255.5,-129 194.5,-129"/>
<text text-anchor="middle" x="225" y="-136" font-family="Helvetica,sans-Serif" font-size="10.00">mtx_vec.h</text>
</a>
</g>
</g>
<!-- Node10&#45;&gt;Node11 -->
<g id="edge12" class="edge">
<title>Node10&#45;&gt;Node11</title>
<path fill="none" stroke="midnightblue" d="M298.29,-324.4C294.41,-315.37 288.17,-300.73 283,-288 264.05,-241.37 242.76,-186.05 232.01,-157.92"/>
<polygon fill="midnightblue" stroke="midnightblue" points="235.15,-156.33 228.32,-148.24 228.61,-158.83 235.15,-156.33"/>
</g>
<!-- Node10&#45;&gt;Node12 -->
<g id="edge14" class="edge">
<title>Node10&#45;&gt;Node12</title>
<path fill="none" stroke="midnightblue" d="M314.61,-324.48C328.72,-314.93 351.83,-299.31 368.75,-287.87"/>
<polygon fill="midnightblue" stroke="midnightblue" points="371.09,-290.51 377.42,-282.01 367.17,-284.71 371.09,-290.51"/>
</g>
<!-- Node10&#45;&gt;Node13 -->
<g id="edge15" class="edge">
<title>Node10&#45;&gt;Node13</title>
<path fill="none" stroke="midnightblue" d="M304.29,-324.48C306.57,-315.99 310.15,-302.7 313.07,-291.82"/>
<polygon fill="midnightblue" stroke="midnightblue" points="316.49,-292.57 315.71,-282.01 309.74,-290.76 316.49,-292.57"/>
</g>
<!-- Node11&#45;&gt;Node7 -->
<g id="edge13" class="edge">
<title>Node11&#45;&gt;Node7</title>
<path fill="none" stroke="midnightblue" d="M222.32,-128.79C217.99,-112.89 211.32,-78.69 226,-56 236.55,-39.69 254.68,-29.2 272.43,-22.49"/>
<polygon fill="midnightblue" stroke="midnightblue" points="273.88,-25.69 282.2,-19.14 271.61,-19.07 273.88,-25.69"/>
</g>
<!-- Node13&#45;&gt;Node7 -->
<g id="edge16" class="edge">
<title>Node13&#45;&gt;Node7</title>
<path fill="none" stroke="midnightblue" d="M318.17,-262.83C318.87,-225.98 321.64,-81.83 322.64,-29.83"/>
<polygon fill="midnightblue" stroke="midnightblue" points="326.14,-29.77 322.83,-19.7 319.14,-29.63 326.14,-29.77"/>
</g>
<!-- Node14 -->
<g id="node14" class="node">
<title>Node14</title>
<g id="a_node14"><a xlink:href="dvd_8h.html" target="_top" xlink:title=" ">
<polygon fill="white" stroke="black" points="235.5,-62 235.5,-81 294.5,-81 294.5,-62 235.5,-62"/>
<text text-anchor="middle" x="265" y="-69" font-family="Helvetica,sans-Serif" font-size="10.00">dvd/dvd.h</text>
</a>
</g>
</g>
<!-- Node13&#45;&gt;Node14 -->
<g id="edge17" class="edge">
<title>Node13&#45;&gt;Node14</title>
<path fill="none" stroke="midnightblue" d="M315.72,-262.95C307.76,-233.04 281.02,-132.66 269.91,-90.93"/>
<polygon fill="midnightblue" stroke="midnightblue" points="273.28,-90.01 267.33,-81.24 266.52,-91.81 273.28,-90.01"/>
</g>
<!-- Node14&#45;&gt;Node7 -->
<g id="edge18" class="edge">
<title>Node14&#45;&gt;Node7</title>
<path fill="none" stroke="midnightblue" d="M273.31,-61.98C282.18,-52.87 296.45,-38.24 307.42,-26.98"/>
<polygon fill="midnightblue" stroke="midnightblue" points="310.23,-29.11 314.71,-19.51 305.22,-24.23 310.23,-29.11"/>
</g>
<!-- Node16 -->
<g id="node16" class="node">
<title>Node16</title>
<g id="a_node16"><a xlink:href="JSUList_8h.html" target="_top" xlink:title=" ">
<polygon fill="white" stroke="black" points="427,-56.5 427,-86.5 563,-86.5 563,-56.5 427,-56.5"/>
<text text-anchor="start" x="435" y="-74.5" font-family="Helvetica,sans-Serif" font-size="10.00">JSystem/JSupport/JSUList</text>
<text text-anchor="middle" x="495" y="-63.5" font-family="Helvetica,sans-Serif" font-size="10.00">/JSUList.h</text>
</a>
</g>
</g>
<!-- Node15&#45;&gt;Node16 -->
<g id="edge22" class="edge">
<title>Node15&#45;&gt;Node16</title>
<path fill="none" stroke="midnightblue" d="M578.29,-324.27C572.05,-315.59 563.11,-301.65 559,-288 537.84,-217.65 580.27,-189.48 549,-123 543.54,-111.39 534.1,-101.14 524.63,-92.96"/>
<polygon fill="midnightblue" stroke="midnightblue" points="526.73,-90.16 516.75,-86.6 522.33,-95.61 526.73,-90.16"/>
</g>
<!-- Node17 -->
<g id="node17" class="node">
<title>Node17</title>
<g id="a_node17"><a xlink:href="JUTXfb_8h.html" target="_top" xlink:title=" ">
<polygon fill="white" stroke="black" points="567.5,-257.5 567.5,-287.5 692.5,-287.5 692.5,-257.5 567.5,-257.5"/>
<text text-anchor="start" x="575.5" y="-275.5" font-family="Helvetica,sans-Serif" font-size="10.00">JSystem/JUtility/JUTXfb</text>
<text text-anchor="middle" x="630" y="-264.5" font-family="Helvetica,sans-Serif" font-size="10.00">/JUTXfb.h</text>
</a>
</g>
</g>
<!-- Node15&#45;&gt;Node17 -->
<g id="edge24" class="edge">
<title>Node15&#45;&gt;Node17</title>
<path fill="none" stroke="midnightblue" d="M591.45,-324.48C597.14,-316.94 605.7,-305.63 613.31,-295.57"/>
<polygon fill="midnightblue" stroke="midnightblue" points="616.15,-297.61 619.39,-287.52 610.57,-293.39 616.15,-297.61"/>
</g>
<!-- Node21 -->
<g id="node21" class="node">
<title>Node21</title>
<g id="a_node21"><a xlink:href="c__xyz_8h.html" target="_top" xlink:title=" ">
<polygon fill="white" stroke="black" points="710.5,-263 710.5,-282 817.5,-282 817.5,-263 710.5,-263"/>
<text text-anchor="middle" x="764" y="-270" font-family="Helvetica,sans-Serif" font-size="10.00">SComponent/c_xyz.h</text>
</a>
</g>
</g>
<!-- Node15&#45;&gt;Node21 -->
<g id="edge34" class="edge">
<title>Node15&#45;&gt;Node21</title>
<path fill="none" stroke="midnightblue" d="M610.65,-324.48C641.62,-314.18 693.87,-296.81 728.65,-285.25"/>
<polygon fill="midnightblue" stroke="midnightblue" points="730.02,-288.48 738.4,-282.01 727.81,-281.84 730.02,-288.48"/>
</g>
<!-- Node16&#45;&gt;Node7 -->
<g id="edge23" class="edge">
<title>Node16&#45;&gt;Node7</title>
<path fill="none" stroke="midnightblue" d="M454.24,-56.4C424.78,-46.21 385.41,-32.59 357.5,-22.93"/>
<polygon fill="midnightblue" stroke="midnightblue" points="358.37,-19.53 347.78,-19.57 356.08,-26.15 358.37,-19.53"/>
</g>
<!-- Node17&#45;&gt;Node7 -->
<g id="edge31" class="edge">
<title>Node17&#45;&gt;Node7</title>
<path fill="none" stroke="midnightblue" d="M628.17,-257.36C622.26,-213.95 602.31,-83.86 572,-56 543.78,-30.06 438.3,-18.57 374.02,-13.89"/>
<polygon fill="midnightblue" stroke="midnightblue" points="373.91,-10.37 363.69,-13.17 373.43,-17.36 373.91,-10.37"/>
</g>
<!-- Node18 -->
<g id="node18" class="node">
<title>Node18</title>
<g id="a_node18"><a xlink:href="JKRHeap_8h.html" target="_top" xlink:title=" ">
<polygon fill="white" stroke="black" points="393,-190.5 393,-220.5 529,-220.5 529,-190.5 393,-190.5"/>
<text text-anchor="start" x="401" y="-208.5" font-family="Helvetica,sans-Serif" font-size="10.00">JSystem/JKernel/JKRHeap</text>
<text text-anchor="middle" x="461" y="-197.5" font-family="Helvetica,sans-Serif" font-size="10.00">/JKRHeap.h</text>
</a>
</g>
</g>
<!-- Node17&#45;&gt;Node18 -->
<g id="edge25" class="edge">
<title>Node17&#45;&gt;Node18</title>
<path fill="none" stroke="midnightblue" d="M593.33,-257.4C568.08,-247.69 534.34,-234.71 507.25,-224.29"/>
<polygon fill="midnightblue" stroke="midnightblue" points="508.19,-220.9 497.6,-220.58 505.68,-227.43 508.19,-220.9"/>
</g>
<!-- Node20 -->
<g id="node20" class="node">
<title>Node20</title>
<g id="a_node20"><a xlink:href="GX_8h.html" target="_top" xlink:title=" ">
<polygon fill="white" stroke="black" points="634.5,-196 634.5,-215 685.5,-215 685.5,-196 634.5,-196"/>
<text text-anchor="middle" x="660" y="-203" font-family="Helvetica,sans-Serif" font-size="10.00">gx/GX.h</text>
</a>
</g>
</g>
<!-- Node17&#45;&gt;Node20 -->
<g id="edge32" class="edge">
<title>Node17&#45;&gt;Node20</title>
<path fill="none" stroke="midnightblue" d="M636.51,-257.4C640.96,-247.76 646.89,-234.91 651.68,-224.54"/>
<polygon fill="midnightblue" stroke="midnightblue" points="654.97,-225.74 655.99,-215.19 648.62,-222.81 654.97,-225.74"/>
</g>
<!-- Node18&#45;&gt;Node6 -->
<g id="edge30" class="edge">
<title>Node18&#45;&gt;Node6</title>
<path fill="none" stroke="midnightblue" d="M454.78,-220.69C440.4,-253.49 404.9,-334.48 388.97,-370.83"/>
<polygon fill="midnightblue" stroke="midnightblue" points="385.67,-369.63 384.86,-380.2 392.08,-372.44 385.67,-369.63"/>
</g>
<!-- Node18&#45;&gt;Node7 -->
<g id="edge29" class="edge">
<title>Node18&#45;&gt;Node7</title>
<path fill="none" stroke="midnightblue" d="M428.71,-190.43C412.28,-181.91 393.07,-169.64 380,-154 363.45,-134.2 339.44,-62.91 328.63,-29.07"/>
<polygon fill="midnightblue" stroke="midnightblue" points="331.97,-28 325.62,-19.51 325.29,-30.1 331.97,-28"/>
</g>
<!-- Node19 -->
<g id="node19" class="node">
<title>Node19</title>
<g id="a_node19"><a xlink:href="JKRDisposer_8h.html" target="_top" xlink:title=" ">
<polygon fill="white" stroke="black" points="388.5,-123.5 388.5,-153.5 539.5,-153.5 539.5,-123.5 388.5,-123.5"/>
<text text-anchor="start" x="396.5" y="-141.5" font-family="Helvetica,sans-Serif" font-size="10.00">JSystem/JKernel/JKRDisposer</text>
<text text-anchor="middle" x="464" y="-130.5" font-family="Helvetica,sans-Serif" font-size="10.00">/JKRDisposer.h</text>
</a>
</g>
</g>
<!-- Node18&#45;&gt;Node19 -->
<g id="edge26" class="edge">
<title>Node18&#45;&gt;Node19</title>
<path fill="none" stroke="midnightblue" d="M461.65,-190.4C462.01,-182.64 462.46,-172.81 462.88,-163.86"/>
<polygon fill="midnightblue" stroke="midnightblue" points="466.39,-163.73 463.35,-153.58 459.39,-163.4 466.39,-163.73"/>
</g>
<!-- Node19&#45;&gt;Node7 -->
<g id="edge28" class="edge">
<title>Node19&#45;&gt;Node7</title>
<path fill="none" stroke="midnightblue" d="M448.68,-123.23C431.04,-106.86 401.13,-79.26 375,-56 363.71,-45.95 350.88,-34.84 340.78,-26.17"/>
<polygon fill="midnightblue" stroke="midnightblue" points="342.91,-23.39 333.04,-19.54 338.36,-28.71 342.91,-23.39"/>
</g>
<!-- Node19&#45;&gt;Node16 -->
<g id="edge27" class="edge">
<title>Node19&#45;&gt;Node16</title>
<path fill="none" stroke="midnightblue" d="M470.73,-123.4C474.59,-115.3 479.53,-104.94 483.94,-95.69"/>
<polygon fill="midnightblue" stroke="midnightblue" points="487.14,-97.11 488.29,-86.58 480.82,-94.1 487.14,-97.11"/>
</g>
<!-- Node20&#45;&gt;Node7 -->
<g id="edge33" class="edge">
<title>Node20&#45;&gt;Node7</title>
<path fill="none" stroke="midnightblue" d="M660.62,-195.83C661.95,-170.08 662.02,-93.53 620,-56 584.52,-24.31 448.8,-14.94 373.71,-12.16"/>
<polygon fill="midnightblue" stroke="midnightblue" points="373.65,-8.66 363.53,-11.81 373.41,-15.65 373.65,-8.66"/>
</g>
<!-- Node21&#45;&gt;Node6 -->
<g id="edge37" class="edge">
<title>Node21&#45;&gt;Node6</title>
<path fill="none" stroke="midnightblue" d="M750.49,-282.1C726.42,-297.02 674.15,-327.67 626,-344 553.7,-368.52 464.6,-380.62 416.26,-385.77"/>
<polygon fill="midnightblue" stroke="midnightblue" points="415.89,-382.29 406.3,-386.8 416.6,-389.26 415.89,-382.29"/>
</g>
<!-- Node22 -->
<g id="node22" class="node">
<title>Node22</title>
<g id="a_node22"><a xlink:href="c__math_8h.html" target="_top" xlink:title=" ">
<polygon fill="white" stroke="black" points="733,-196 733,-215 849,-215 849,-196 733,-196"/>
<text text-anchor="middle" x="791" y="-203" font-family="Helvetica,sans-Serif" font-size="10.00">SComponent/c_math.h</text>
</a>
</g>
</g>
<!-- Node21&#45;&gt;Node22 -->
<g id="edge35" class="edge">
<title>Node21&#45;&gt;Node22</title>
<path fill="none" stroke="midnightblue" d="M767.64,-262.73C771.69,-252.99 778.34,-236.98 783.51,-224.53"/>
<polygon fill="midnightblue" stroke="midnightblue" points="786.81,-225.7 787.42,-215.13 780.35,-223.02 786.81,-225.7"/>
</g>
<!-- Node22&#45;&gt;Node6 -->
<g id="edge36" class="edge">
<title>Node22&#45;&gt;Node6</title>
<path fill="none" stroke="midnightblue" d="M800.35,-215.19C815.99,-230.78 844.1,-264.1 827,-288 778.81,-355.38 512.83,-380.02 416.15,-386.83"/>
<polygon fill="midnightblue" stroke="midnightblue" points="415.75,-383.35 406.01,-387.52 416.22,-390.33 415.75,-383.35"/>
</g>
<!-- Node23&#45;&gt;Node4 -->
<g id="edge40" class="edge">
<title>Node23&#45;&gt;Node4</title>
<path fill="none" stroke="midnightblue" d="M376.56,-548.08C371.05,-540.46 362.97,-529.26 356.24,-519.94"/>
<polygon fill="midnightblue" stroke="midnightblue" points="359.01,-517.81 350.32,-511.75 353.34,-521.91 359.01,-517.81"/>
</g>
<!-- Node23&#45;&gt;Node5 -->
<g id="edge41" class="edge">
<title>Node23&#45;&gt;Node5</title>
<path fill="none" stroke="midnightblue" d="M389.87,-548.33C398.78,-536.03 412.55,-512.68 407,-492 404.35,-482.1 398.93,-472.13 393.73,-464.1"/>
<polygon fill="midnightblue" stroke="midnightblue" points="396.46,-461.91 387.89,-455.68 390.71,-465.89 396.46,-461.91"/>
</g>
<!-- Node24&#45;&gt;Node3 -->
<g id="edge44" class="edge">
<title>Node24&#45;&gt;Node3</title>
<path fill="none" stroke="midnightblue" d="M243.54,-660.4C254.84,-651.31 269.54,-639.49 281.11,-630.19"/>
<polygon fill="midnightblue" stroke="midnightblue" points="283.63,-632.65 289.23,-623.66 279.25,-627.2 283.63,-632.65"/>
</g>
<!-- Node24&#45;&gt;Node6 -->
<g id="edge45" class="edge">
<title>Node24&#45;&gt;Node6</title>
<path fill="none" stroke="midnightblue" d="M217.71,-660.46C206,-639.24 186,-597.41 186,-559 186,-559 186,-559 186,-501 186,-428.52 289.47,-403.26 345.67,-394.89"/>
<polygon fill="midnightblue" stroke="midnightblue" points="346.48,-398.32 355.91,-393.48 345.52,-391.38 346.48,-398.32"/>
</g>
<!-- Node25&#45;&gt;Node3 -->
<g id="edge48" class="edge">
<title>Node25&#45;&gt;Node3</title>
<path fill="none" stroke="midnightblue" d="M368.54,-665.98C355.83,-656.52 335.09,-641.1 319.75,-629.69"/>
<polygon fill="midnightblue" stroke="midnightblue" points="321.55,-626.67 311.44,-623.51 317.38,-632.29 321.55,-626.67"/>
</g>
<!-- Node25&#45;&gt;Node5 -->
<g id="edge47" class="edge">
<title>Node25&#45;&gt;Node5</title>
<path fill="none" stroke="midnightblue" d="M387.82,-665.95C402.84,-648.88 435.26,-608.72 447,-568 458.8,-527.07 422.28,-484.56 398.93,-462.45"/>
<polygon fill="midnightblue" stroke="midnightblue" points="401.07,-459.67 391.32,-455.52 396.36,-464.84 401.07,-459.67"/>
</g>
<!-- Node25&#45;&gt;Node6 -->
<g id="edge50" class="edge">
<title>Node25&#45;&gt;Node6</title>
<path fill="none" stroke="midnightblue" d="M401.88,-665.97C437.48,-650.48 504,-614.16 504,-559 504,-559 504,-559 504,-501 504,-452.48 450.16,-420.01 413.73,-403.6"/>
<polygon fill="midnightblue" stroke="midnightblue" points="414.99,-400.33 404.42,-399.58 412.22,-406.76 414.99,-400.33"/>
</g>
<!-- Node25&#45;&gt;Node23 -->
<g id="edge49" class="edge">
<title>Node25&#45;&gt;Node23</title>
<path fill="none" stroke="midnightblue" d="M380.23,-665.82C380.71,-647.26 381.85,-603.34 382.51,-577.97"/>
<polygon fill="midnightblue" stroke="midnightblue" points="386.01,-577.87 382.77,-567.78 379.01,-577.69 386.01,-577.87"/>
</g>
<!-- Node26&#45;&gt;Node6 -->
<g id="edge52" class="edge">
<title>Node26&#45;&gt;Node6</title>
<path fill="none" stroke="midnightblue" d="M623.39,-604.46C620.89,-575.93 608.84,-483.08 556,-436 517.14,-401.38 455.15,-392.73 416.33,-390.93"/>
<polygon fill="midnightblue" stroke="midnightblue" points="416.15,-387.42 406.04,-390.59 415.91,-394.42 416.15,-387.42"/>
</g>
<!-- Node27&#45;&gt;Node3 -->
<g id="edge54" class="edge">
<title>Node27&#45;&gt;Node3</title>
<path fill="none" stroke="midnightblue" d="M450.31,-660.4C416.12,-650.07 370.29,-636.23 338.26,-626.56"/>
<polygon fill="midnightblue" stroke="midnightblue" points="338.96,-623.11 328.38,-623.57 336.94,-629.81 338.96,-623.11"/>
</g>
<!-- Node27&#45;&gt;Node6 -->
<g id="edge55" class="edge">
<title>Node27&#45;&gt;Node6</title>
<path fill="none" stroke="midnightblue" d="M506.54,-660.25C519.75,-639.1 542,-597.74 542,-559 542,-559 542,-559 542,-501 542,-440.45 463.4,-410.81 416.03,-398.45"/>
<polygon fill="midnightblue" stroke="midnightblue" points="416.7,-395.01 406.16,-396 415.02,-401.8 416.7,-395.01"/>
</g>
</g>
</svg>
        <g id="navigator" transform="translate(0 0)" fill="#404254">
                <rect fill="#f2f5e9" fill-opacity="0.5" stroke="#606060" stroke-width=".5" x="0" y="0" width="60" height="60"/>
                <use id="zoomplus" xlink:href="#zoomPlus" x="17" y="9" onmousedown="handleZoom(evt,'in')"/>
                <use id="zoomminus" xlink:href="#zoomMin" x="42" y="9" onmousedown="handleZoom(evt,'out')"/>
                <use id="reset" xlink:href="#resetDef" x="30" y="36" onmousedown="handleReset()"/>
                <g id="arrowUp" xlink:href="#dirArrow" transform="translate(30 24)" onmousedown="handlePan(0,-1)">
                  <use xlink:href="#rim" fill="#404040">
                        <set attributeName="fill" to="#808080" begin="arrowUp.mouseover" end="arrowUp.mouseout"/>
                  </use>
                  <path fill="none" stroke="white" stroke-width="1.5" d="M0,-3.0v7 M-2.5,-0.5L0,-3.0L2.5,-0.5"/>
                </g>
                <g id="arrowRight" xlink:href="#dirArrow" transform="rotate(90) translate(36 -43)" onmousedown="handlePan(1,0)">
                  <use xlink:href="#rim" fill="#404040">
                        <set attributeName="fill" to="#808080" begin="arrowRight.mouseover" end="arrowRight.mouseout"/>
                  </use>
                  <path fill="none" stroke="white" stroke-width="1.5" d="M0,-3.0v7 M-2.5,-0.5L0,-3.0L2.5,-0.5"/>
                </g>
                <g id="arrowDown" xlink:href="#dirArrow" transform="rotate(180) translate(-30 -48)" onmousedown="handlePan(0,1)">
                  <use xlink:href="#rim" fill="#404040">
                        <set attributeName="fill" to="#808080" begin="arrowDown.mouseover" end="arrowDown.mouseout"/>
                  </use>
                  <path fill="none" stroke="white" stroke-width="1.5" d="M0,-3.0v7 M-2.5,-0.5L0,-3.0L2.5,-0.5"/>
                </g>
                <g id="arrowLeft" xlink:href="#dirArrow" transform="rotate(270) translate(-36 17)" onmousedown="handlePan(-1,0)">
                  <use xlink:href="#rim" fill="#404040">
                        <set attributeName="fill" to="#808080" begin="arrowLeft.mouseover" end="arrowLeft.mouseout"/>
                  </use>
                  <path fill="none" stroke="white" stroke-width="1.5" d="M0,-3.0v7 M-2.5,-0.5L0,-3.0L2.5,-0.5"/>
                </g>
        </g>
        <svg viewBox="0 0 15 15" width="100%" height="30px" preserveAspectRatio="xMaxYMin meet">
         <g id="arrow_out" transform="scale(0.3 0.3)">
          <a xlink:href="f__pc__create__req_8h__incl_org.svg" target="_base">
           <rect id="button" ry="5" rx="5" y="6" x="6" height="38" width="38"
                fill="#f2f5e9" fill-opacity="0.5" stroke="#606060" stroke-width="1.0"/>
           <path id="arrow"
             d="M 11.500037,31.436501 C 11.940474,20.09759 22.043105,11.32322 32.158766,21.979434 L 37.068811,17.246167 C 37.068811,17.246167 37.088388,32 37.088388,32 L 22.160133,31.978069 C 22.160133,31.978069 26.997745,27.140456 26.997745,27.140456 C 18.528582,18.264221 13.291696,25.230495 11.500037,31.436501 z"
             style="fill:#404040;"/>
          </a>
         </g>
        </svg>
</svg>
