<?xml version="1.0" encoding="UTF-8" standalone="no"?>
<!DOCTYPE svg PUBLIC "-//W3C//DTD SVG 1.1//EN"
 "http://www.w3.org/Graphics/SVG/1.1/DTD/svg11.dtd">
<!-- Generated by graphviz version 2.46.0 (20210122.1329)
 -->
<!-- Title: include/f/f_pc/f_pc_layer_tag.h Pages: 1 -->
<svg width="2626pt" height="363pt"
 viewBox="0.00 0.00 2626.00 363.00" xmlns="http://www.w3.org/2000/svg" xmlns:xlink="http://www.w3.org/1999/xlink">
<g id="graph0" class="graph" transform="scale(1 1) rotate(0) translate(4 359)">
<title>include/f/f_pc/f_pc_layer_tag.h</title>
<polygon fill="white" stroke="transparent" points="-4,4 -4,-359 2622,-359 2622,4 -4,4"/>
<!-- Node1 -->
<g id="node1" class="node">
<title>Node1</title>
<g id="a_node1"><a xlink:title=" ">
<polygon fill="#bfbfbf" stroke="black" points="942.5,-324.5 942.5,-354.5 1039.5,-354.5 1039.5,-324.5 942.5,-324.5"/>
<text text-anchor="start" x="950.5" y="-342.5" font-family="Helvetica,sans-Serif" font-size="10.00">include/f/f_pc/f_pc</text>
<text text-anchor="middle" x="991" y="-331.5" font-family="Helvetica,sans-Serif" font-size="10.00">_layer_tag.h</text>
</a>
</g>
</g>
<!-- Node2 -->
<g id="node2" class="node">
<title>Node2</title>
<g id="a_node2"><a xlink:href="f__pc__base_8cpp.html" target="_top" xlink:title=" ">
<polygon fill="white" stroke="black" points="2494,-62 2494,-81 2618,-81 2618,-62 2494,-62"/>
<text text-anchor="middle" x="2556" y="-69" font-family="Helvetica,sans-Serif" font-size="10.00">src/f/f_pc/f_pc_base.cpp</text>
</a>
</g>
</g>
<!-- Node1&#45;&gt;Node2 -->
<g id="edge1" class="edge">
<title>Node1&#45;&gt;Node2</title>
<path fill="none" stroke="midnightblue" d="M1049.79,-337.34C1316.09,-331.66 2401.75,-303.58 2527,-221 2565.61,-195.54 2564.73,-169.17 2562,-123 2561.12,-108.19 2558.81,-91.07 2557.33,-81.05"/>
<polygon fill="midnightblue" stroke="midnightblue" points="1049.48,-333.85 1039.56,-337.56 1049.63,-340.85 1049.48,-333.85"/>
</g>
<!-- Node3 -->
<g id="node3" class="node">
<title>Node3</title>
<g id="a_node3"><a xlink:href="f__pc__executor_8cpp.html" target="_top" xlink:title=" ">
<polygon fill="white" stroke="black" points="1596,-129 1596,-148 1736,-148 1736,-129 1596,-129"/>
<text text-anchor="middle" x="1666" y="-136" font-family="Helvetica,sans-Serif" font-size="10.00">src/f/f_pc/f_pc_executor.cpp</text>
</a>
</g>
</g>
<!-- Node1&#45;&gt;Node3 -->
<g id="edge2" class="edge">
<title>Node1&#45;&gt;Node3</title>
<path fill="none" stroke="midnightblue" d="M1049.87,-329.43C1145.97,-313.64 1341.7,-277.29 1500,-221 1558.38,-200.24 1623.09,-164.46 1651.4,-148.11"/>
<polygon fill="midnightblue" stroke="midnightblue" points="1049.08,-326.02 1039.77,-331.08 1050.2,-332.93 1049.08,-326.02"/>
</g>
<!-- Node4 -->
<g id="node4" class="node">
<title>Node4</title>
<g id="a_node4"><a xlink:href="f__pc__layer__tag_8cpp.html" target="_top" xlink:title=" ">
<polygon fill="white" stroke="black" points="879.5,-257.5 879.5,-287.5 984.5,-287.5 984.5,-257.5 879.5,-257.5"/>
<text text-anchor="start" x="887.5" y="-275.5" font-family="Helvetica,sans-Serif" font-size="10.00">src/f/f_pc/f_pc_layer</text>
<text text-anchor="middle" x="932" y="-264.5" font-family="Helvetica,sans-Serif" font-size="10.00">_tag.cpp</text>
</a>
</g>
</g>
<!-- Node1&#45;&gt;Node4 -->
<g id="edge3" class="edge">
<title>Node1&#45;&gt;Node4</title>
<path fill="none" stroke="midnightblue" d="M971.25,-316.74C962.52,-307.12 952.5,-296.09 944.78,-287.58"/>
<polygon fill="midnightblue" stroke="midnightblue" points="968.89,-319.34 978.2,-324.4 974.07,-314.64 968.89,-319.34"/>
</g>
<!-- Node5 -->
<g id="node5" class="node">
<title>Node5</title>
<g id="a_node5"><a xlink:href="f__pc__manager_8cpp.html" target="_top" xlink:title=" ">
<polygon fill="white" stroke="black" points="588,-0.5 588,-19.5 728,-19.5 728,-0.5 588,-0.5"/>
<text text-anchor="middle" x="658" y="-7.5" font-family="Helvetica,sans-Serif" font-size="10.00">src/f/f_pc/f_pc_manager.cpp</text>
</a>
</g>
</g>
<!-- Node1&#45;&gt;Node5 -->
<g id="edge4" class="edge">
<title>Node1&#45;&gt;Node5</title>
<path fill="none" stroke="midnightblue" d="M932.13,-336.9C718.99,-330.32 0,-301.12 0,-206.5 0,-206.5 0,-206.5 0,-137.5 0,-78.14 418.35,-33.01 587.89,-17.17"/>
<polygon fill="midnightblue" stroke="midnightblue" points="932.09,-340.4 942.19,-337.2 932.3,-333.4 932.09,-340.4"/>
</g>
<!-- Node6 -->
<g id="node6" class="node">
<title>Node6</title>
<g id="a_node6"><a xlink:href="f__pc__priority_8cpp.html" target="_top" xlink:title=" ">
<polygon fill="white" stroke="black" points="28.5,-196 28.5,-215 159.5,-215 159.5,-196 28.5,-196"/>
<text text-anchor="middle" x="94" y="-203" font-family="Helvetica,sans-Serif" font-size="10.00">src/f/f_pc/f_pc_priority.cpp</text>
</a>
</g>
</g>
<!-- Node1&#45;&gt;Node6 -->
<g id="edge5" class="edge">
<title>Node1&#45;&gt;Node6</title>
<path fill="none" stroke="midnightblue" d="M932,-330.77C797.38,-312.95 457.29,-267.03 174,-221 162.85,-219.19 150.86,-217.09 139.64,-215.07"/>
<polygon fill="midnightblue" stroke="midnightblue" points="931.73,-334.26 942.1,-332.1 932.64,-327.32 931.73,-334.26"/>
</g>
<!-- Node7 -->
<g id="node7" class="node">
<title>Node7</title>
<g id="a_node7"><a xlink:href="f__pc__base_8h.html" target="_top" xlink:title=" ">
<polygon fill="white" stroke="black" points="1002.5,-257.5 1002.5,-287.5 1099.5,-287.5 1099.5,-257.5 1002.5,-257.5"/>
<text text-anchor="start" x="1010.5" y="-275.5" font-family="Helvetica,sans-Serif" font-size="10.00">include/f/f_pc/f_pc</text>
<text text-anchor="middle" x="1051" y="-264.5" font-family="Helvetica,sans-Serif" font-size="10.00">_base.h</text>
</a>
</g>
</g>
<!-- Node1&#45;&gt;Node7 -->
<g id="edge6" class="edge">
<title>Node1&#45;&gt;Node7</title>
<path fill="none" stroke="midnightblue" d="M1010.82,-317.02C1019.76,-307.34 1030.07,-296.17 1038.01,-287.58"/>
<polygon fill="midnightblue" stroke="midnightblue" points="1008.23,-314.67 1004.02,-324.4 1013.37,-319.42 1008.23,-314.67"/>
</g>
<!-- Node7&#45;&gt;Node2 -->
<g id="edge7" class="edge">
<title>Node7&#45;&gt;Node2</title>
<path fill="none" stroke="midnightblue" d="M1109.93,-271.05C1374.08,-268.8 2438.73,-257.53 2499,-221 2549.3,-190.51 2555.36,-107.96 2555.97,-81.08"/>
<polygon fill="midnightblue" stroke="midnightblue" points="1109.75,-267.55 1099.78,-271.13 1109.81,-274.55 1109.75,-267.55"/>
</g>
<!-- Node7&#45;&gt;Node3 -->
<g id="edge11" class="edge">
<title>Node7&#45;&gt;Node3</title>
<path fill="none" stroke="midnightblue" d="M1110.1,-267.57C1186.11,-261.64 1321.8,-248.1 1435,-221 1515.44,-201.74 1606.99,-164.7 1646.34,-148.02"/>
<polygon fill="midnightblue" stroke="midnightblue" points="1109.49,-264.11 1099.78,-268.36 1110.02,-271.08 1109.49,-264.11"/>
</g>
<!-- Node7&#45;&gt;Node5 -->
<g id="edge13" class="edge">
<title>Node7&#45;&gt;Node5</title>
<path fill="none" stroke="midnightblue" d="M992.31,-257.65C892.53,-250.84 256.11,-250.46 228,-221 170.85,-161.1 156.15,-156.97 324,-56 367.12,-30.06 503.07,-18.67 587.65,-13.98"/>
<polygon fill="midnightblue" stroke="midnightblue" points="992.12,-261.15 1002.41,-258.61 992.78,-254.18 992.12,-261.15"/>
</g>
<!-- Node7&#45;&gt;Node6 -->
<g id="edge16" class="edge">
<title>Node7&#45;&gt;Node6</title>
<path fill="none" stroke="midnightblue" d="M992.45,-257.16C630.68,-205.57 532.81,-261.22 174,-221 161.24,-219.57 147.44,-217.32 134.95,-215.02"/>
<polygon fill="midnightblue" stroke="midnightblue" points="992.01,-260.63 1002.41,-258.6 993.01,-253.71 992.01,-260.63"/>
</g>
<!-- Node8 -->
<g id="node8" class="node">
<title>Node8</title>
<g id="a_node8"><a xlink:href="f__pc__create__req_8cpp.html" target="_top" xlink:title=" ">
<polygon fill="white" stroke="black" points="330,-123.5 330,-153.5 442,-153.5 442,-123.5 330,-123.5"/>
<text text-anchor="start" x="338" y="-141.5" font-family="Helvetica,sans-Serif" font-size="10.00">src/f/f_pc/f_pc_create</text>
<text text-anchor="middle" x="386" y="-130.5" font-family="Helvetica,sans-Serif" font-size="10.00">_req.cpp</text>
</a>
</g>
</g>
<!-- Node7&#45;&gt;Node8 -->
<g id="edge8" class="edge">
<title>Node7&#45;&gt;Node8</title>
<path fill="none" stroke="midnightblue" d="M992.33,-257.13C795.91,-227.18 730.66,-292.39 550,-221 529.41,-212.86 530.13,-201.15 511,-190 485.22,-174.97 454.11,-162.39 429.38,-153.54"/>
<polygon fill="midnightblue" stroke="midnightblue" points="991.96,-260.62 1002.39,-258.73 993.06,-253.71 991.96,-260.62"/>
</g>
<!-- Node9 -->
<g id="node9" class="node">
<title>Node9</title>
<g id="a_node9"><a xlink:href="f__pc__creator_8cpp.html" target="_top" xlink:title=" ">
<polygon fill="white" stroke="black" points="369.5,-196 369.5,-215 502.5,-215 502.5,-196 369.5,-196"/>
<text text-anchor="middle" x="436" y="-203" font-family="Helvetica,sans-Serif" font-size="10.00">src/f/f_pc/f_pc_creator.cpp</text>
</a>
</g>
</g>
<!-- Node7&#45;&gt;Node9 -->
<g id="edge9" class="edge">
<title>Node7&#45;&gt;Node9</title>
<path fill="none" stroke="midnightblue" d="M992.25,-257.09C781.77,-223.91 724.18,-247.31 517,-221 504.67,-219.43 491.37,-217.26 479.17,-215.07"/>
<polygon fill="midnightblue" stroke="midnightblue" points="991.96,-260.59 1002.39,-258.71 993.07,-253.68 991.96,-260.59"/>
</g>
<!-- Node10 -->
<g id="node10" class="node">
<title>Node10</title>
<g id="a_node10"><a xlink:href="f__pc__deletor_8cpp.html" target="_top" xlink:title=" ">
<polygon fill="white" stroke="black" points="460,-129 460,-148 592,-148 592,-129 460,-129"/>
<text text-anchor="middle" x="526" y="-136" font-family="Helvetica,sans-Serif" font-size="10.00">src/f/f_pc/f_pc_deletor.cpp</text>
</a>
</g>
</g>
<!-- Node7&#45;&gt;Node10 -->
<g id="edge10" class="edge">
<title>Node7&#45;&gt;Node10</title>
<path fill="none" stroke="midnightblue" d="M992.2,-257.07C864.43,-235.25 821.18,-270.31 706,-221 685.96,-212.42 686.99,-200.7 668,-190 633.35,-170.48 589.78,-156.34 560.11,-148.07"/>
<polygon fill="midnightblue" stroke="midnightblue" points="991.9,-260.57 1002.36,-258.89 993.13,-253.68 991.9,-260.57"/>
</g>
<!-- Node11 -->
<g id="node11" class="node">
<title>Node11</title>
<g id="a_node11"><a xlink:href="f__pc__line__iter_8cpp.html" target="_top" xlink:title=" ">
<polygon fill="white" stroke="black" points="559,-190.5 559,-220.5 659,-220.5 659,-190.5 559,-190.5"/>
<text text-anchor="start" x="567" y="-208.5" font-family="Helvetica,sans-Serif" font-size="10.00">src/f/f_pc/f_pc_line</text>
<text text-anchor="middle" x="609" y="-197.5" font-family="Helvetica,sans-Serif" font-size="10.00">_iter.cpp</text>
</a>
</g>
</g>
<!-- Node7&#45;&gt;Node11 -->
<g id="edge12" class="edge">
<title>Node7&#45;&gt;Node11</title>
<path fill="none" stroke="midnightblue" d="M992.41,-257.07C850.39,-232.17 810.95,-244.31 673,-221 668.51,-220.24 663.85,-219.36 659.2,-218.43"/>
<polygon fill="midnightblue" stroke="midnightblue" points="991.91,-260.53 1002.37,-258.84 993.14,-253.64 991.91,-260.53"/>
</g>
<!-- Node12 -->
<g id="node12" class="node">
<title>Node12</title>
<g id="a_node12"><a xlink:href="f__pc__node__req_8cpp.html" target="_top" xlink:title=" ">
<polygon fill="white" stroke="black" points="389,-56.5 389,-86.5 495,-86.5 495,-56.5 389,-56.5"/>
<text text-anchor="start" x="397" y="-74.5" font-family="Helvetica,sans-Serif" font-size="10.00">src/f/f_pc/f_pc_node</text>
<text text-anchor="middle" x="442" y="-63.5" font-family="Helvetica,sans-Serif" font-size="10.00">_req.cpp</text>
</a>
</g>
</g>
<!-- Node7&#45;&gt;Node12 -->
<g id="edge14" class="edge">
<title>Node7&#45;&gt;Node12</title>
<path fill="none" stroke="midnightblue" d="M992.21,-257.64C893.49,-250.88 272.44,-249.79 245,-221 189.82,-163.1 319.98,-110.65 394.44,-86.51"/>
<polygon fill="midnightblue" stroke="midnightblue" points="992.12,-261.15 1002.41,-258.61 992.78,-254.18 992.12,-261.15"/>
</g>
<!-- Node13 -->
<g id="node13" class="node">
<title>Node13</title>
<g id="a_node13"><a xlink:href="f__pc__pause_8cpp.html" target="_top" xlink:title=" ">
<polygon fill="white" stroke="black" points="1371.5,-62 1371.5,-81 1500.5,-81 1500.5,-62 1371.5,-62"/>
<text text-anchor="middle" x="1436" y="-69" font-family="Helvetica,sans-Serif" font-size="10.00">src/f/f_pc/f_pc_pause.cpp</text>
</a>
</g>
</g>
<!-- Node7&#45;&gt;Node13 -->
<g id="edge15" class="edge">
<title>Node7&#45;&gt;Node13</title>
<path fill="none" stroke="midnightblue" d="M1109.5,-254.62C1147.98,-240.48 1187.55,-218.11 1166,-190 1128.48,-141.06 1069.52,-202.94 1032,-154 1023.62,-143.07 1022.88,-133.33 1032,-123 1043.1,-110.43 1259.7,-88.75 1371.06,-78.37"/>
<polygon fill="midnightblue" stroke="midnightblue" points="1108.06,-251.42 1099.78,-258.04 1110.38,-258.03 1108.06,-251.42"/>
</g>
<!-- Node14 -->
<g id="node14" class="node">
<title>Node14</title>
<g id="a_node14"><a xlink:href="f__pc__searcher_8cpp.html" target="_top" xlink:title=" ">
<polygon fill="white" stroke="black" points="1754,-129 1754,-148 1894,-148 1894,-129 1754,-129"/>
<text text-anchor="middle" x="1824" y="-136" font-family="Helvetica,sans-Serif" font-size="10.00">src/f/f_pc/f_pc_searcher.cpp</text>
</a>
</g>
</g>
<!-- Node7&#45;&gt;Node14 -->
<g id="edge17" class="edge">
<title>Node7&#45;&gt;Node14</title>
<path fill="none" stroke="midnightblue" d="M1109.92,-267.41C1196.09,-260.86 1361.3,-246.13 1500,-221 1610.44,-200.99 1739.03,-164.67 1795.24,-148.12"/>
<polygon fill="midnightblue" stroke="midnightblue" points="1109.52,-263.93 1099.81,-268.17 1110.05,-270.91 1109.52,-263.93"/>
</g>
<!-- Node15 -->
<g id="node15" class="node">
<title>Node15</title>
<g id="a_node15"><a xlink:href="f__pc__stdcreate__req_8cpp.html" target="_top" xlink:title=" ">
<polygon fill="white" stroke="black" points="1041.5,-123.5 1041.5,-153.5 1166.5,-153.5 1166.5,-123.5 1041.5,-123.5"/>
<text text-anchor="start" x="1049.5" y="-141.5" font-family="Helvetica,sans-Serif" font-size="10.00">src/f/f_pc/f_pc_stdcreate</text>
<text text-anchor="middle" x="1104" y="-130.5" font-family="Helvetica,sans-Serif" font-size="10.00">_req.cpp</text>
</a>
</g>
</g>
<!-- Node7&#45;&gt;Node15 -->
<g id="edge18" class="edge">
<title>Node7&#45;&gt;Node15</title>
<path fill="none" stroke="midnightblue" d="M1109.78,-267.64C1142.04,-262.15 1179.54,-249.54 1200,-221 1208.03,-209.8 1207.12,-201.79 1200,-190 1189.68,-172.91 1171.45,-161.32 1153.62,-153.6"/>
<polygon fill="midnightblue" stroke="midnightblue" points="1108.89,-264.23 1099.52,-269.18 1109.93,-271.15 1108.89,-264.23"/>
</g>
<!-- Node16 -->
<g id="node16" class="node">
<title>Node16</title>
<g id="a_node16"><a xlink:href="f__pc__deletor_8h.html" target="_top" xlink:title=" ">
<polygon fill="white" stroke="black" points="254.5,-190.5 254.5,-220.5 351.5,-220.5 351.5,-190.5 254.5,-190.5"/>
<text text-anchor="start" x="262.5" y="-208.5" font-family="Helvetica,sans-Serif" font-size="10.00">include/f/f_pc/f_pc</text>
<text text-anchor="middle" x="303" y="-197.5" font-family="Helvetica,sans-Serif" font-size="10.00">_deletor.h</text>
</a>
</g>
</g>
<!-- Node7&#45;&gt;Node16 -->
<g id="edge19" class="edge">
<title>Node7&#45;&gt;Node16</title>
<path fill="none" stroke="midnightblue" d="M992.36,-257.14C712.61,-215.78 635.23,-263.43 360,-221 357.28,-220.58 354.49,-220.09 351.69,-219.54"/>
<polygon fill="midnightblue" stroke="midnightblue" points="991.99,-260.62 1002.4,-258.65 993.03,-253.7 991.99,-260.62"/>
</g>
<!-- Node17 -->
<g id="node17" class="node">
<title>Node17</title>
<g id="a_node17"><a xlink:href="f__pc__draw_8h.html" target="_top" xlink:title=" ">
<polygon fill="white" stroke="black" points="1060.5,-190.5 1060.5,-220.5 1157.5,-220.5 1157.5,-190.5 1060.5,-190.5"/>
<text text-anchor="start" x="1068.5" y="-208.5" font-family="Helvetica,sans-Serif" font-size="10.00">include/f/f_pc/f_pc</text>
<text text-anchor="middle" x="1109" y="-197.5" font-family="Helvetica,sans-Serif" font-size="10.00">_draw.h</text>
</a>
</g>
</g>
<!-- Node7&#45;&gt;Node17 -->
<g id="edge24" class="edge">
<title>Node7&#45;&gt;Node17</title>
<path fill="none" stroke="midnightblue" d="M1070.42,-249.74C1079,-240.12 1088.84,-229.09 1096.44,-220.58"/>
<polygon fill="midnightblue" stroke="midnightblue" points="1067.63,-247.6 1063.59,-257.4 1072.85,-252.26 1067.63,-247.6"/>
</g>
<!-- Node19 -->
<g id="node19" class="node">
<title>Node19</title>
<g id="a_node19"><a xlink:href="f__pc__executor_8h.html" target="_top" xlink:title=" ">
<polygon fill="white" stroke="black" points="715.5,-190.5 715.5,-220.5 812.5,-220.5 812.5,-190.5 715.5,-190.5"/>
<text text-anchor="start" x="723.5" y="-208.5" font-family="Helvetica,sans-Serif" font-size="10.00">include/f/f_pc/f_pc</text>
<text text-anchor="middle" x="764" y="-197.5" font-family="Helvetica,sans-Serif" font-size="10.00">_executor.h</text>
</a>
</g>
</g>
<!-- Node7&#45;&gt;Node19 -->
<g id="edge26" class="edge">
<title>Node7&#45;&gt;Node19</title>
<path fill="none" stroke="midnightblue" d="M992.11,-256.85C915.16,-239.42 893.96,-237.91 821,-221 818.31,-220.38 815.56,-219.73 812.78,-219.06"/>
<polygon fill="midnightblue" stroke="midnightblue" points="991.77,-260.37 1002.3,-259.18 993.33,-253.54 991.77,-260.37"/>
</g>
<!-- Node20 -->
<g id="node20" class="node">
<title>Node20</title>
<g id="a_node20"><a xlink:href="f__pc__fstcreate__req_8h.html" target="_top" xlink:title=" ">
<polygon fill="white" stroke="black" points="830.5,-190.5 830.5,-220.5 927.5,-220.5 927.5,-190.5 830.5,-190.5"/>
<text text-anchor="start" x="838.5" y="-208.5" font-family="Helvetica,sans-Serif" font-size="10.00">include/f/f_pc/f_pc</text>
<text text-anchor="middle" x="879" y="-197.5" font-family="Helvetica,sans-Serif" font-size="10.00">_fstcreate_req.h</text>
</a>
</g>
</g>
<!-- Node7&#45;&gt;Node20 -->
<g id="edge32" class="edge">
<title>Node7&#45;&gt;Node20</title>
<path fill="none" stroke="midnightblue" d="M1004.21,-253.82C976.57,-243.37 942.04,-230.32 916.25,-220.58"/>
<polygon fill="midnightblue" stroke="midnightblue" points="1003.09,-257.13 1013.68,-257.4 1005.56,-250.59 1003.09,-257.13"/>
</g>
<!-- Node22 -->
<g id="node22" class="node">
<title>Node22</title>
<g id="a_node22"><a xlink:href="f__pc__leaf_8h.html" target="_top" xlink:title=" ">
<polygon fill="white" stroke="black" points="945.5,-190.5 945.5,-220.5 1042.5,-220.5 1042.5,-190.5 945.5,-190.5"/>
<text text-anchor="start" x="953.5" y="-208.5" font-family="Helvetica,sans-Serif" font-size="10.00">include/f/f_pc/f_pc</text>
<text text-anchor="middle" x="994" y="-197.5" font-family="Helvetica,sans-Serif" font-size="10.00">_leaf.h</text>
</a>
</g>
</g>
<!-- Node7&#45;&gt;Node22 -->
<g id="edge34" class="edge">
<title>Node7&#45;&gt;Node22</title>
<path fill="none" stroke="midnightblue" d="M1031.91,-249.74C1023.48,-240.12 1013.81,-229.09 1006.34,-220.58"/>
<polygon fill="midnightblue" stroke="midnightblue" points="1029.41,-252.18 1038.63,-257.4 1034.67,-247.57 1029.41,-252.18"/>
</g>
<!-- Node24 -->
<g id="node24" class="node">
<title>Node24</title>
<g id="a_node24"><a xlink:href="f__pc__manager_8h.html" target="_top" xlink:title=" ">
<polygon fill="white" stroke="black" points="1898.5,-56.5 1898.5,-86.5 1995.5,-86.5 1995.5,-56.5 1898.5,-56.5"/>
<text text-anchor="start" x="1906.5" y="-74.5" font-family="Helvetica,sans-Serif" font-size="10.00">include/f/f_pc/f_pc</text>
<text text-anchor="middle" x="1947" y="-63.5" font-family="Helvetica,sans-Serif" font-size="10.00">_manager.h</text>
</a>
</g>
</g>
<!-- Node7&#45;&gt;Node24 -->
<g id="edge36" class="edge">
<title>Node7&#45;&gt;Node24</title>
<path fill="none" stroke="midnightblue" d="M1109.8,-270.85C1348.19,-267.58 2233.52,-249.05 2309,-154 2317.57,-143.21 2318.04,-133.39 2309,-123 2268.96,-76.99 2084.9,-71.6 1995.72,-71.77"/>
<polygon fill="midnightblue" stroke="midnightblue" points="1109.56,-267.35 1099.6,-270.98 1109.65,-274.35 1109.56,-267.35"/>
</g>
<!-- Node26 -->
<g id="node26" class="node">
<title>Node26</title>
<g id="a_node26"><a xlink:href="f__pc__node_8h.html" target="_top" xlink:title=" ">
<polygon fill="white" stroke="black" points="1283.5,-190.5 1283.5,-220.5 1380.5,-220.5 1380.5,-190.5 1283.5,-190.5"/>
<text text-anchor="start" x="1291.5" y="-208.5" font-family="Helvetica,sans-Serif" font-size="10.00">include/f/f_pc/f_pc</text>
<text text-anchor="middle" x="1332" y="-197.5" font-family="Helvetica,sans-Serif" font-size="10.00">_node.h</text>
</a>
</g>
</g>
<!-- Node7&#45;&gt;Node26 -->
<g id="edge39" class="edge">
<title>Node7&#45;&gt;Node26</title>
<path fill="none" stroke="midnightblue" d="M1109.62,-257.94C1161.14,-246.02 1235.24,-228.88 1283.5,-217.72"/>
<polygon fill="midnightblue" stroke="midnightblue" points="1108.58,-254.59 1099.63,-260.25 1110.16,-261.41 1108.58,-254.59"/>
</g>
<!-- Node29 -->
<g id="node29" class="node">
<title>Node29</title>
<g id="a_node29"><a xlink:href="f__pc__pause_8h.html" target="_top" xlink:title=" ">
<polygon fill="white" stroke="black" points="1480.5,-123.5 1480.5,-153.5 1577.5,-153.5 1577.5,-123.5 1480.5,-123.5"/>
<text text-anchor="start" x="1488.5" y="-141.5" font-family="Helvetica,sans-Serif" font-size="10.00">include/f/f_pc/f_pc</text>
<text text-anchor="middle" x="1529" y="-130.5" font-family="Helvetica,sans-Serif" font-size="10.00">_pause.h</text>
</a>
</g>
</g>
<!-- Node7&#45;&gt;Node29 -->
<g id="edge54" class="edge">
<title>Node7&#45;&gt;Node29</title>
<path fill="none" stroke="midnightblue" d="M1109.87,-269.42C1178.61,-265.47 1294.89,-254.05 1389,-221 1435.7,-204.6 1484.36,-172.23 1510.21,-153.6"/>
<polygon fill="midnightblue" stroke="midnightblue" points="1109.47,-265.93 1099.67,-269.97 1109.85,-272.92 1109.47,-265.93"/>
</g>
<!-- Node30 -->
<g id="node30" class="node">
<title>Node30</title>
<g id="a_node30"><a xlink:href="f__pc__searcher_8h.html" target="_top" xlink:title=" ">
<polygon fill="white" stroke="black" points="1914.5,-190.5 1914.5,-220.5 2011.5,-220.5 2011.5,-190.5 1914.5,-190.5"/>
<text text-anchor="start" x="1922.5" y="-208.5" font-family="Helvetica,sans-Serif" font-size="10.00">include/f/f_pc/f_pc</text>
<text text-anchor="middle" x="1963" y="-197.5" font-family="Helvetica,sans-Serif" font-size="10.00">_searcher.h</text>
</a>
</g>
</g>
<!-- Node7&#45;&gt;Node30 -->
<g id="edge55" class="edge">
<title>Node7&#45;&gt;Node30</title>
<path fill="none" stroke="midnightblue" d="M1109.86,-267.3C1278.16,-255.31 1759.22,-221.02 1914.23,-209.98"/>
<polygon fill="midnightblue" stroke="midnightblue" points="1109.44,-263.83 1099.71,-268.03 1109.93,-270.81 1109.44,-263.83"/>
</g>
<!-- Node34 -->
<g id="node34" class="node">
<title>Node34</title>
<g id="a_node34"><a xlink:href="c__request_8h.html" target="_top" xlink:title=" ">
<polygon fill="white" stroke="black" points="2382.5,-190.5 2382.5,-220.5 2489.5,-220.5 2489.5,-190.5 2382.5,-190.5"/>
<text text-anchor="start" x="2390.5" y="-208.5" font-family="Helvetica,sans-Serif" font-size="10.00">include/SComponent</text>
<text text-anchor="middle" x="2436" y="-197.5" font-family="Helvetica,sans-Serif" font-size="10.00">/c_request.h</text>
</a>
</g>
</g>
<!-- Node7&#45;&gt;Node34 -->
<g id="edge62" class="edge">
<title>Node7&#45;&gt;Node34</title>
<path fill="none" stroke="midnightblue" d="M1110.01,-271.58C1293.22,-271.32 1868.38,-266.64 2342,-221 2355.15,-219.73 2369.26,-217.84 2382.45,-215.84"/>
<polygon fill="midnightblue" stroke="midnightblue" points="1109.79,-268.08 1099.79,-271.59 1109.79,-275.08 1109.79,-268.08"/>
</g>
<!-- Node16&#45;&gt;Node5 -->
<g id="edge22" class="edge">
<title>Node16&#45;&gt;Node5</title>
<path fill="none" stroke="midnightblue" d="M297.91,-180.37C295.55,-163.53 294.82,-140.96 303,-123 321.8,-81.72 338.92,-75.25 380,-56 446.07,-25.03 529.6,-14.88 587.76,-11.79"/>
<polygon fill="midnightblue" stroke="midnightblue" points="294.51,-181.22 299.62,-190.5 301.41,-180.05 294.51,-181.22"/>
</g>
<!-- Node16&#45;&gt;Node8 -->
<g id="edge20" class="edge">
<title>Node16&#45;&gt;Node8</title>
<path fill="none" stroke="midnightblue" d="M328.96,-184.17C341.65,-174.23 356.61,-162.51 368.03,-153.58"/>
<polygon fill="midnightblue" stroke="midnightblue" points="326.72,-181.47 321.01,-190.4 331.04,-186.99 326.72,-181.47"/>
</g>
<!-- Node16&#45;&gt;Node10 -->
<g id="edge21" class="edge">
<title>Node16&#45;&gt;Node10</title>
<path fill="none" stroke="midnightblue" d="M360.74,-187.67C404.32,-174.97 462.31,-158.06 496.74,-148.03"/>
<polygon fill="midnightblue" stroke="midnightblue" points="359.73,-184.32 351.11,-190.48 361.69,-191.04 359.73,-184.32"/>
</g>
<!-- Node16&#45;&gt;Node12 -->
<g id="edge23" class="edge">
<title>Node16&#45;&gt;Node12</title>
<path fill="none" stroke="midnightblue" d="M302.65,-180.27C303.63,-162.55 307.68,-138.93 321,-123 338.08,-102.57 364.83,-90.26 388.83,-82.93"/>
<polygon fill="midnightblue" stroke="midnightblue" points="299.15,-180.33 302.38,-190.42 306.15,-180.52 299.15,-180.33"/>
</g>
<!-- Node18 -->
<g id="node18" class="node">
<title>Node18</title>
<g id="a_node18"><a xlink:href="f__pc__draw_8cpp.html" target="_top" xlink:title=" ">
<polygon fill="white" stroke="black" points="1103,-62 1103,-81 1227,-81 1227,-62 1103,-62"/>
<text text-anchor="middle" x="1165" y="-69" font-family="Helvetica,sans-Serif" font-size="10.00">src/f/f_pc/f_pc_draw.cpp</text>
</a>
</g>
</g>
<!-- Node17&#45;&gt;Node18 -->
<g id="edge25" class="edge">
<title>Node17&#45;&gt;Node18</title>
<path fill="none" stroke="midnightblue" d="M1051.6,-186.77C1015.33,-172.46 978.8,-150.26 999,-123 1022.76,-90.93 1066.4,-78.53 1102.97,-74.03"/>
<polygon fill="midnightblue" stroke="midnightblue" points="1050.69,-190.16 1061.28,-190.41 1053.15,-183.61 1050.69,-190.16"/>
</g>
<!-- Node19&#45;&gt;Node3 -->
<g id="edge29" class="edge">
<title>Node19&#45;&gt;Node3</title>
<path fill="none" stroke="midnightblue" d="M822.73,-189.94C1159.88,-140.76 1251.71,-192.47 1587,-154 1599.61,-152.55 1613.23,-150.3 1625.56,-148"/>
<polygon fill="midnightblue" stroke="midnightblue" points="822.07,-186.5 812.69,-191.43 823.09,-193.43 822.07,-186.5"/>
</g>
<!-- Node19&#45;&gt;Node5 -->
<g id="edge30" class="edge">
<title>Node19&#45;&gt;Node5</title>
<path fill="none" stroke="midnightblue" d="M714.3,-185.71C700.12,-177.98 686.07,-167.58 677,-154 648.08,-110.67 653.61,-43.35 656.7,-19.63"/>
<polygon fill="midnightblue" stroke="midnightblue" points="713.09,-189.02 723.59,-190.41 716.25,-182.77 713.09,-189.02"/>
</g>
<!-- Node19&#45;&gt;Node8 -->
<g id="edge27" class="edge">
<title>Node19&#45;&gt;Node8</title>
<path fill="none" stroke="midnightblue" d="M705.46,-195.48C628.81,-183.6 498.59,-163.14 451,-154 448.16,-153.45 445.26,-152.88 442.33,-152.28"/>
<polygon fill="midnightblue" stroke="midnightblue" points="705.03,-198.96 715.45,-197.03 706.11,-192.04 705.03,-198.96"/>
</g>
<!-- Node19&#45;&gt;Node10 -->
<g id="edge28" class="edge">
<title>Node19&#45;&gt;Node10</title>
<path fill="none" stroke="midnightblue" d="M705.54,-188.54C658.72,-175.75 594.84,-158.3 557.25,-148.03"/>
<polygon fill="midnightblue" stroke="midnightblue" points="704.69,-191.93 715.26,-191.19 706.54,-185.18 704.69,-191.93"/>
</g>
<!-- Node19&#45;&gt;Node12 -->
<g id="edge31" class="edge">
<title>Node19&#45;&gt;Node12</title>
<path fill="none" stroke="midnightblue" d="M714.75,-186.69C692.58,-177.94 666.41,-166.58 644,-154 623.46,-142.47 622.05,-133.59 601,-123 567.36,-106.08 526.89,-93.32 495.19,-84.86"/>
<polygon fill="midnightblue" stroke="midnightblue" points="713.71,-190.04 724.3,-190.4 716.25,-183.52 713.71,-190.04"/>
</g>
<!-- Node21 -->
<g id="node21" class="node">
<title>Node21</title>
<g id="a_node21"><a xlink:href="f__pc__fstcreate__req_8cpp.html" target="_top" xlink:title=" ">
<polygon fill="white" stroke="black" points="686.5,-123.5 686.5,-153.5 809.5,-153.5 809.5,-123.5 686.5,-123.5"/>
<text text-anchor="start" x="694.5" y="-141.5" font-family="Helvetica,sans-Serif" font-size="10.00">src/f/f_pc/f_pc_fstcreate</text>
<text text-anchor="middle" x="748" y="-130.5" font-family="Helvetica,sans-Serif" font-size="10.00">_req.cpp</text>
</a>
</g>
</g>
<!-- Node20&#45;&gt;Node21 -->
<g id="edge33" class="edge">
<title>Node20&#45;&gt;Node21</title>
<path fill="none" stroke="midnightblue" d="M841.42,-185.85C820.71,-175.58 795.41,-163.03 776.37,-153.58"/>
<polygon fill="midnightblue" stroke="midnightblue" points="840.06,-189.09 850.57,-190.4 843.17,-182.82 840.06,-189.09"/>
</g>
<!-- Node23 -->
<g id="node23" class="node">
<title>Node23</title>
<g id="a_node23"><a xlink:href="f__pc__leaf_8cpp.html" target="_top" xlink:title=" ">
<polygon fill="white" stroke="black" points="827.5,-129 827.5,-148 946.5,-148 946.5,-129 827.5,-129"/>
<text text-anchor="middle" x="887" y="-136" font-family="Helvetica,sans-Serif" font-size="10.00">src/f/f_pc/f_pc_leaf.cpp</text>
</a>
</g>
</g>
<!-- Node22&#45;&gt;Node23 -->
<g id="edge35" class="edge">
<title>Node22&#45;&gt;Node23</title>
<path fill="none" stroke="midnightblue" d="M962.13,-185.14C941.8,-172.79 916.45,-157.39 901,-148.01"/>
<polygon fill="midnightblue" stroke="midnightblue" points="960.42,-188.2 970.78,-190.4 964.05,-182.21 960.42,-188.2"/>
</g>
<!-- Node24&#45;&gt;Node5 -->
<g id="edge38" class="edge">
<title>Node24&#45;&gt;Node5</title>
<path fill="none" stroke="midnightblue" d="M1888.17,-67.78C1676.84,-58.03 956.51,-24.78 728.09,-14.24"/>
<polygon fill="midnightblue" stroke="midnightblue" points="1888.28,-71.29 1898.43,-68.26 1888.61,-64.3 1888.28,-71.29"/>
</g>
<!-- Node25 -->
<g id="node25" class="node">
<title>Node25</title>
<g id="a_node25"><a xlink:href="d__a__alink_8cpp.html" target="_top" xlink:title=" ">
<polygon fill="white" stroke="black" points="2096.5,-0.5 2096.5,-19.5 2215.5,-19.5 2215.5,-0.5 2096.5,-0.5"/>
<text text-anchor="middle" x="2156" y="-7.5" font-family="Helvetica,sans-Serif" font-size="10.00">src/d/d_a/d_a_alink.cpp</text>
</a>
</g>
</g>
<!-- Node24&#45;&gt;Node25 -->
<g id="edge37" class="edge">
<title>Node24&#45;&gt;Node25</title>
<path fill="none" stroke="midnightblue" d="M2005.45,-53.86C2044.63,-42.71 2094.61,-28.48 2125.97,-19.55"/>
<polygon fill="midnightblue" stroke="midnightblue" points="2004.4,-50.52 1995.74,-56.62 2006.31,-57.25 2004.4,-50.52"/>
</g>
<!-- Node26&#45;&gt;Node3 -->
<g id="edge41" class="edge">
<title>Node26&#45;&gt;Node3</title>
<path fill="none" stroke="midnightblue" d="M1390.42,-193.13C1456.55,-180.26 1562.77,-159.59 1622.17,-148.03"/>
<polygon fill="midnightblue" stroke="midnightblue" points="1389.71,-189.7 1380.57,-195.05 1391.05,-196.57 1389.71,-189.7"/>
</g>
<!-- Node26&#45;&gt;Node10 -->
<g id="edge40" class="edge">
<title>Node26&#45;&gt;Node10</title>
<path fill="none" stroke="midnightblue" d="M1273.34,-199.18C1241.58,-196.35 1201.65,-192.87 1166,-190 948.78,-172.52 894.14,-172.42 677,-154 649.18,-151.64 618.51,-148.75 592.12,-146.17"/>
<polygon fill="midnightblue" stroke="midnightblue" points="1273.08,-202.67 1283.35,-200.07 1273.7,-195.7 1273.08,-202.67"/>
</g>
<!-- Node26&#45;&gt;Node13 -->
<g id="edge43" class="edge">
<title>Node26&#45;&gt;Node13</title>
<path fill="none" stroke="midnightblue" d="M1389.9,-188.16C1406.58,-180.54 1422.97,-169.58 1433,-154 1447.64,-131.26 1442.1,-97.09 1438.35,-81.2"/>
<polygon fill="midnightblue" stroke="midnightblue" points="1388.49,-184.96 1380.64,-192.06 1391.21,-191.41 1388.49,-184.96"/>
</g>
<!-- Node26&#45;&gt;Node15 -->
<g id="edge44" class="edge">
<title>Node26&#45;&gt;Node15</title>
<path fill="none" stroke="midnightblue" d="M1273.65,-187.87C1236.42,-177.25 1188.69,-163.64 1153.34,-153.57"/>
<polygon fill="midnightblue" stroke="midnightblue" points="1272.79,-191.26 1283.37,-190.64 1274.71,-184.53 1272.79,-191.26"/>
</g>
<!-- Node27 -->
<g id="node27" class="node">
<title>Node27</title>
<g id="a_node27"><a xlink:href="f__pc__node_8cpp.html" target="_top" xlink:title=" ">
<polygon fill="white" stroke="black" points="1300,-129 1300,-148 1424,-148 1424,-129 1300,-129"/>
<text text-anchor="middle" x="1362" y="-136" font-family="Helvetica,sans-Serif" font-size="10.00">src/f/f_pc/f_pc_node.cpp</text>
</a>
</g>
</g>
<!-- Node26&#45;&gt;Node27 -->
<g id="edge42" class="edge">
<title>Node26&#45;&gt;Node27</title>
<path fill="none" stroke="midnightblue" d="M1342.71,-181.29C1348.01,-169.8 1354.09,-156.63 1357.99,-148.19"/>
<polygon fill="midnightblue" stroke="midnightblue" points="1339.52,-179.85 1338.51,-190.4 1345.88,-182.78 1339.52,-179.85"/>
</g>
<!-- Node28 -->
<g id="node28" class="node">
<title>Node28</title>
<g id="a_node28"><a xlink:href="f__pc__node__req_8h.html" target="_top" xlink:title=" ">
<polygon fill="white" stroke="black" points="1184.5,-123.5 1184.5,-153.5 1281.5,-153.5 1281.5,-123.5 1184.5,-123.5"/>
<text text-anchor="start" x="1192.5" y="-141.5" font-family="Helvetica,sans-Serif" font-size="10.00">include/f/f_pc/f_pc</text>
<text text-anchor="middle" x="1233" y="-130.5" font-family="Helvetica,sans-Serif" font-size="10.00">_node_req.h</text>
</a>
</g>
</g>
<!-- Node26&#45;&gt;Node28 -->
<g id="edge45" class="edge">
<title>Node26&#45;&gt;Node28</title>
<path fill="none" stroke="midnightblue" d="M1301.89,-184.73C1286.58,-174.68 1268.31,-162.68 1254.44,-153.58"/>
<polygon fill="midnightblue" stroke="midnightblue" points="1300.24,-187.83 1310.52,-190.4 1304.08,-181.98 1300.24,-187.83"/>
</g>
<!-- Node26&#45;&gt;Node29 -->
<g id="edge49" class="edge">
<title>Node26&#45;&gt;Node29</title>
<path fill="none" stroke="midnightblue" d="M1384.35,-187.23C1416.22,-176.71 1456.41,-163.45 1486.34,-153.58"/>
<polygon fill="midnightblue" stroke="midnightblue" points="1383.15,-183.94 1374.75,-190.4 1385.34,-190.59 1383.15,-183.94"/>
</g>
<!-- Node28&#45;&gt;Node5 -->
<g id="edge46" class="edge">
<title>Node28&#45;&gt;Node5</title>
<path fill="none" stroke="midnightblue" d="M1174.49,-122.92C991.42,-80.36 786.08,-37.41 699.65,-19.56"/>
<polygon fill="midnightblue" stroke="midnightblue" points="1173.76,-126.34 1184.29,-125.2 1175.35,-119.53 1173.76,-126.34"/>
</g>
<!-- Node28&#45;&gt;Node12 -->
<g id="edge47" class="edge">
<title>Node28&#45;&gt;Node12</title>
<path fill="none" stroke="midnightblue" d="M1174.08,-123.11C1024.97,-101.29 637.11,-81.65 495.04,-74.94"/>
<polygon fill="midnightblue" stroke="midnightblue" points="1173.98,-126.64 1184.39,-124.69 1175.04,-119.72 1173.98,-126.64"/>
</g>
<!-- Node28&#45;&gt;Node24 -->
<g id="edge48" class="edge">
<title>Node28&#45;&gt;Node24</title>
<path fill="none" stroke="midnightblue" d="M1291.59,-123.11C1523.63,-86.2 1790.23,-76.18 1898.11,-73.46"/>
<polygon fill="midnightblue" stroke="midnightblue" points="1290.93,-119.67 1281.61,-124.72 1292.04,-126.58 1290.93,-119.67"/>
</g>
<!-- Node29&#45;&gt;Node2 -->
<g id="edge50" class="edge">
<title>Node29&#45;&gt;Node2</title>
<path fill="none" stroke="midnightblue" d="M1587.71,-123.16C1782.16,-96.05 2312.26,-79.29 2493.98,-74.17"/>
<polygon fill="midnightblue" stroke="midnightblue" points="1586.99,-119.73 1577.6,-124.63 1588,-126.66 1586.99,-119.73"/>
</g>
<!-- Node29&#45;&gt;Node5 -->
<g id="edge52" class="edge">
<title>Node29&#45;&gt;Node5</title>
<path fill="none" stroke="midnightblue" d="M1530.5,-113.26C1530.21,-94.59 1526.39,-69.73 1510,-56 1480.21,-31.05 926.63,-16.76 728.11,-12.43"/>
<polygon fill="midnightblue" stroke="midnightblue" points="1527,-113.35 1530.34,-123.41 1534,-113.47 1527,-113.35"/>
</g>
<!-- Node29&#45;&gt;Node13 -->
<g id="edge53" class="edge">
<title>Node29&#45;&gt;Node13</title>
<path fill="none" stroke="midnightblue" d="M1500.59,-117.64C1483.04,-105.37 1461.41,-90.26 1448.17,-81.01"/>
<polygon fill="midnightblue" stroke="midnightblue" points="1498.62,-120.54 1508.82,-123.4 1502.63,-114.8 1498.62,-120.54"/>
</g>
<!-- Node29&#45;&gt;Node18 -->
<g id="edge51" class="edge">
<title>Node29&#45;&gt;Node18</title>
<path fill="none" stroke="midnightblue" d="M1470.08,-126.98C1398.48,-114.19 1279.04,-92.86 1212.85,-81.04"/>
<polygon fill="midnightblue" stroke="midnightblue" points="1469.83,-130.49 1480.29,-128.8 1471.06,-123.6 1469.83,-130.49"/>
</g>
<!-- Node30&#45;&gt;Node3 -->
<g id="edge58" class="edge">
<title>Node30&#45;&gt;Node3</title>
<path fill="none" stroke="midnightblue" d="M1904.37,-191.67C1845.41,-178.77 1756.15,-159.23 1705.24,-148.09"/>
<polygon fill="midnightblue" stroke="midnightblue" points="1903.77,-195.12 1914.29,-193.84 1905.27,-188.28 1903.77,-195.12"/>
</g>
<!-- Node30&#45;&gt;Node14 -->
<g id="edge60" class="edge">
<title>Node30&#45;&gt;Node14</title>
<path fill="none" stroke="midnightblue" d="M1923.72,-186.13C1896.97,-173.62 1862.79,-157.64 1842.19,-148.01"/>
<polygon fill="midnightblue" stroke="midnightblue" points="1922.3,-189.33 1932.84,-190.4 1925.26,-182.99 1922.3,-189.33"/>
</g>
<!-- Node30&#45;&gt;Node25 -->
<g id="edge59" class="edge">
<title>Node30&#45;&gt;Node25</title>
<path fill="none" stroke="midnightblue" d="M2021.79,-204.78C2110.62,-203.81 2272.57,-196.13 2309,-154 2357.39,-98.03 2232.17,-40.68 2178.77,-19.51"/>
<polygon fill="midnightblue" stroke="midnightblue" points="2021.57,-201.28 2011.59,-204.87 2021.62,-208.28 2021.57,-201.28"/>
</g>
<!-- Node31 -->
<g id="node31" class="node">
<title>Node31</title>
<g id="a_node31"><a xlink:href="d__attention_8cpp.html" target="_top" xlink:title=" ">
<polygon fill="white" stroke="black" points="2192.5,-129 2192.5,-148 2299.5,-148 2299.5,-129 2192.5,-129"/>
<text text-anchor="middle" x="2246" y="-136" font-family="Helvetica,sans-Serif" font-size="10.00">src/d/d_attention.cpp</text>
</a>
</g>
</g>
<!-- Node30&#45;&gt;Node31 -->
<g id="edge56" class="edge">
<title>Node30&#45;&gt;Node31</title>
<path fill="none" stroke="midnightblue" d="M2021.52,-191.08C2065.85,-180.91 2128.26,-166.58 2183,-154 2191.42,-152.06 2200.48,-149.98 2209.02,-148.01"/>
<polygon fill="midnightblue" stroke="midnightblue" points="2020.46,-187.73 2011.5,-193.38 2022.03,-194.55 2020.46,-187.73"/>
</g>
<!-- Node32 -->
<g id="node32" class="node">
<title>Node32</title>
<g id="a_node32"><a xlink:href="d__camera_8cpp.html" target="_top" xlink:title=" ">
<polygon fill="white" stroke="black" points="1912,-129 1912,-148 2014,-148 2014,-129 1912,-129"/>
<text text-anchor="middle" x="1963" y="-136" font-family="Helvetica,sans-Serif" font-size="10.00">src/d/d_camera.cpp</text>
</a>
</g>
</g>
<!-- Node30&#45;&gt;Node32 -->
<g id="edge57" class="edge">
<title>Node30&#45;&gt;Node32</title>
<path fill="none" stroke="midnightblue" d="M1963,-180.25C1963,-169.02 1963,-156.38 1963,-148.19"/>
<polygon fill="midnightblue" stroke="midnightblue" points="1959.5,-180.4 1963,-190.4 1966.5,-180.4 1959.5,-180.4"/>
</g>
<!-- Node33 -->
<g id="node33" class="node">
<title>Node33</title>
<g id="a_node33"><a xlink:href="m__Do__graphic_8cpp.html" target="_top" xlink:title=" ">
<polygon fill="white" stroke="black" points="2032,-129 2032,-148 2174,-148 2174,-129 2032,-129"/>
<text text-anchor="middle" x="2103" y="-136" font-family="Helvetica,sans-Serif" font-size="10.00">src/m_Do/m_Do_graphic.cpp</text>
</a>
</g>
</g>
<!-- Node30&#45;&gt;Node33 -->
<g id="edge61" class="edge">
<title>Node30&#45;&gt;Node33</title>
<path fill="none" stroke="midnightblue" d="M2002.56,-186.13C2029.51,-173.62 2063.93,-157.64 2084.68,-148.01"/>
<polygon fill="midnightblue" stroke="midnightblue" points="2000.97,-183.01 1993.38,-190.4 2003.92,-189.36 2000.97,-183.01"/>
</g>
<!-- Node35 -->
<g id="node35" class="node">
<title>Node35</title>
<g id="a_node35"><a xlink:href="c__request_8cpp.html" target="_top" xlink:title=" ">
<polygon fill="white" stroke="black" points="2394,-123.5 2394,-153.5 2528,-153.5 2528,-123.5 2394,-123.5"/>
<text text-anchor="start" x="2402" y="-141.5" font-family="Helvetica,sans-Serif" font-size="10.00">libs/SSystem/SComponent</text>
<text text-anchor="middle" x="2461" y="-130.5" font-family="Helvetica,sans-Serif" font-size="10.00">/c_request.cpp</text>
</a>
</g>
</g>
<!-- Node34&#45;&gt;Node35 -->
<g id="edge63" class="edge">
<title>Node34&#45;&gt;Node35</title>
<path fill="none" stroke="midnightblue" d="M2445.04,-180.99C2448.58,-171.8 2452.51,-161.58 2455.59,-153.58"/>
<polygon fill="midnightblue" stroke="midnightblue" points="2441.75,-179.81 2441.42,-190.4 2448.28,-182.32 2441.75,-179.81"/>
</g>
</g>
</svg>
