<?xml version="1.0" encoding="UTF-8" standalone="no"?>
<!DOCTYPE svg PUBLIC "-//W3C//DTD SVG 1.1//EN"
 "http://www.w3.org/Graphics/SVG/1.1/DTD/svg11.dtd">
<!-- Generated by graphviz version 2.46.0 (20210122.1329)
 -->
<!-- Title: src/f/f_pc/f_pc_searcher.cpp Pages: 1 -->
<!--zoomable 934 -->
<svg id="main" version="1.1" xmlns="http://www.w3.org/2000/svg" xmlns:xlink="http://www.w3.org/1999/xlink" xml:space="preserve" onload="init(evt)">
<style type="text/css"><![CDATA[
.edge:hover path { stroke: red; }
.edge:hover polygon { stroke: red; fill: red; }
]]></style>
<script type="text/javascript"><![CDATA[
var edges = document.getElementsByTagName('g');
if (edges && edges.length) {
  for (var i=0;i<edges.length;i++) {
    if (edges[i].id.substr(0,4)=='edge') {
      edges[i].setAttribute('class','edge');
    }
  }
}
]]></script>
        <defs>
                <circle id="rim" cx="0" cy="0" r="7"/>
                <circle id="rim2" cx="0" cy="0" r="3.5"/>
                <g id="zoomPlus">
                        <use xlink:href="#rim" fill="#404040">
                                <set attributeName="fill" to="#808080" begin="zoomplus.mouseover" end="zoomplus.mouseout"/>
                        </use>
                        <path d="M-4,0h8M0,-4v8" fill="none" stroke="white" stroke-width="1.5" pointer-events="none"/>
                </g>
                <g id="zoomMin">
                        <use xlink:href="#rim" fill="#404040">
                                <set attributeName="fill" to="#808080" begin="zoomminus.mouseover" end="zoomminus.mouseout"/>
                        </use>
                        <path d="M-4,0h8" fill="none" stroke="white" stroke-width="1.5" pointer-events="none"/>
                </g>
                <g id="dirArrow">
                        <path fill="none" stroke="white" stroke-width="1.5" d="M0,-3.0v7 M-2.5,-0.5L0,-3.0L2.5,-0.5"/>
                </g>
               <g id="resetDef">
                       <use xlink:href="#rim2" fill="#404040">
                               <set attributeName="fill" to="#808080" begin="reset.mouseover" end="reset.mouseout"/>
                       </use>
               </g>
        </defs>

<script type="text/javascript">
var viewWidth = 844;
var viewHeight = 934;
var sectionId = 'dynsection-0';
</script>
<script xlink:href="svgpan.js"/>
<svg id="graph" class="graph">
<g id="viewport">
<title>src/f/f_pc/f_pc_searcher.cpp</title>
<polygon fill="white" stroke="transparent" points="-4,4 -4,-930 840,-930 840,4 -4,4"/>
<!-- Node1 -->
<g id="node1" class="node">
<title>Node1</title>
<g id="a_node1"><a xlink:title=" ">
<polygon fill="#bfbfbf" stroke="black" points="231,-906.5 231,-925.5 371,-925.5 371,-906.5 231,-906.5"/>
<text text-anchor="middle" x="301" y="-913.5" font-family="Helvetica,sans-Serif" font-size="10.00">src/f/f_pc/f_pc_searcher.cpp</text>
</a>
</g>
</g>
<!-- Node2 -->
<g id="node2" class="node">
<title>Node2</title>
<g id="a_node2"><a xlink:href="f__pc__searcher_8h.html" target="_top" xlink:title=" ">
<polygon fill="white" stroke="black" points="202.5,-850.5 202.5,-869.5 315.5,-869.5 315.5,-850.5 202.5,-850.5"/>
<text text-anchor="middle" x="259" y="-857.5" font-family="Helvetica,sans-Serif" font-size="10.00">f/f_pc/f_pc_searcher.h</text>
</a>
</g>
</g>
<!-- Node1&#45;&gt;Node2 -->
<g id="edge1" class="edge">
<title>Node1&#45;&gt;Node2</title>
<path fill="none" stroke="midnightblue" d="M294.06,-906.08C288.07,-898.38 279.25,-887.03 271.95,-877.65"/>
<polygon fill="midnightblue" stroke="midnightblue" points="274.71,-875.5 265.81,-869.75 269.18,-879.79 274.71,-875.5"/>
</g>
<!-- Node3 -->
<g id="node3" class="node">
<title>Node3</title>
<g id="a_node3"><a xlink:href="f__pc__base_8h.html" target="_top" xlink:title=" ">
<polygon fill="white" stroke="black" points="295.5,-794.5 295.5,-813.5 392.5,-813.5 392.5,-794.5 295.5,-794.5"/>
<text text-anchor="middle" x="344" y="-801.5" font-family="Helvetica,sans-Serif" font-size="10.00">f/f_pc/f_pc_base.h</text>
</a>
</g>
</g>
<!-- Node1&#45;&gt;Node3 -->
<g id="edge67" class="edge">
<title>Node1&#45;&gt;Node3</title>
<path fill="none" stroke="midnightblue" d="M306.05,-906.25C311.06,-897.33 318.72,-883.01 324,-870 330.24,-854.62 335.66,-836.52 339.28,-823.33"/>
<polygon fill="midnightblue" stroke="midnightblue" points="342.69,-824.14 341.87,-813.58 335.92,-822.34 342.69,-824.14"/>
</g>
<!-- Node2&#45;&gt;Node3 -->
<g id="edge2" class="edge">
<title>Node2&#45;&gt;Node3</title>
<path fill="none" stroke="midnightblue" d="M272.66,-850.32C285.92,-841.9 306.27,-828.97 321.85,-819.07"/>
<polygon fill="midnightblue" stroke="midnightblue" points="323.81,-821.97 330.38,-813.65 320.06,-816.06 323.81,-821.97"/>
</g>
<!-- Node7 -->
<g id="node7" class="node">
<title>Node7</title>
<g id="a_node7"><a xlink:href="global_8h.html" target="_top" xlink:title=" ">
<polygon fill="white" stroke="black" points="369,-380.5 369,-399.5 419,-399.5 419,-380.5 369,-380.5"/>
<text text-anchor="middle" x="394" y="-387.5" font-family="Helvetica,sans-Serif" font-size="10.00">global.h</text>
</a>
</g>
</g>
<!-- Node2&#45;&gt;Node7 -->
<g id="edge66" class="edge">
<title>Node2&#45;&gt;Node7</title>
<path fill="none" stroke="midnightblue" d="M202.48,-857.84C126.27,-852.92 0,-831.51 0,-743.5 0,-743.5 0,-743.5 0,-501 0,-461.38 25.78,-454.14 61,-436 112.41,-409.52 283.9,-397.06 358.66,-392.79"/>
<polygon fill="midnightblue" stroke="midnightblue" points="359.17,-396.27 368.96,-392.22 358.78,-389.28 359.17,-396.27"/>
</g>
<!-- Node4 -->
<g id="node4" class="node">
<title>Node4</title>
<g id="a_node4"><a xlink:href="c__tag_8h.html" target="_top" xlink:title=" ">
<polygon fill="white" stroke="black" points="264.5,-604.5 264.5,-623.5 371.5,-623.5 371.5,-604.5 264.5,-604.5"/>
<text text-anchor="middle" x="318" y="-611.5" font-family="Helvetica,sans-Serif" font-size="10.00">SComponent/c_tag.h</text>
</a>
</g>
</g>
<!-- Node3&#45;&gt;Node4 -->
<g id="edge3" class="edge">
<title>Node3&#45;&gt;Node4</title>
<path fill="none" stroke="midnightblue" d="M338.71,-794.42C333.62,-785.64 326.22,-771.41 323,-758 312.54,-714.46 314.33,-661.34 316.31,-633.72"/>
<polygon fill="midnightblue" stroke="midnightblue" points="319.81,-633.79 317.13,-623.54 312.83,-633.23 319.81,-633.79"/>
</g>
<!-- Node3&#45;&gt;Node7 -->
<g id="edge41" class="edge">
<title>Node3&#45;&gt;Node7</title>
<path fill="none" stroke="midnightblue" d="M392.61,-798.99C458.86,-792.82 573.34,-779.4 609,-758 648.26,-734.44 672,-722.28 672,-676.5 672,-676.5 672,-676.5 672,-501 672,-470.9 675.44,-456.05 653,-436 620.51,-406.97 492.38,-396.21 429.37,-392.62"/>
<polygon fill="midnightblue" stroke="midnightblue" points="429.3,-389.11 419.12,-392.06 428.92,-396.1 429.3,-389.11"/>
</g>
<!-- Node24 -->
<g id="node24" class="node">
<title>Node24</title>
<g id="a_node24"><a xlink:href="f__pc__delete__tag_8h.html" target="_top" xlink:title=" ">
<polygon fill="white" stroke="black" points="47.5,-727.5 47.5,-757.5 142.5,-757.5 142.5,-727.5 47.5,-727.5"/>
<text text-anchor="start" x="55.5" y="-745.5" font-family="Helvetica,sans-Serif" font-size="10.00">f/f_pc/f_pc_delete</text>
<text text-anchor="middle" x="95" y="-734.5" font-family="Helvetica,sans-Serif" font-size="10.00">_tag.h</text>
</a>
</g>
</g>
<!-- Node3&#45;&gt;Node24 -->
<g id="edge42" class="edge">
<title>Node3&#45;&gt;Node24</title>
<path fill="none" stroke="midnightblue" d="M306.21,-794.48C269.31,-786.09 211.31,-772.73 152.47,-758.33"/>
<polygon fill="midnightblue" stroke="midnightblue" points="153.19,-754.9 142.64,-755.92 151.52,-761.7 153.19,-754.9"/>
</g>
<!-- Node26 -->
<g id="node26" class="node">
<title>Node26</title>
<g id="a_node26"><a xlink:href="f__pc__layer__tag_8h.html" target="_top" xlink:title=" ">
<polygon fill="white" stroke="black" points="160.5,-733 160.5,-752 275.5,-752 275.5,-733 160.5,-733"/>
<text text-anchor="middle" x="218" y="-740" font-family="Helvetica,sans-Serif" font-size="10.00">f/f_pc/f_pc_layer_tag.h</text>
</a>
</g>
</g>
<!-- Node3&#45;&gt;Node26 -->
<g id="edge50" class="edge">
<title>Node3&#45;&gt;Node26</title>
<path fill="none" stroke="midnightblue" d="M325.95,-794.48C304.8,-784.49 269.56,-767.85 245.12,-756.31"/>
<polygon fill="midnightblue" stroke="midnightblue" points="246.56,-753.11 236.02,-752.01 243.57,-759.44 246.56,-753.11"/>
</g>
<!-- Node27 -->
<g id="node27" class="node">
<title>Node27</title>
<g id="a_node27"><a xlink:href="f__pc__line__tag_8h.html" target="_top" xlink:title=" ">
<polygon fill="white" stroke="black" points="490,-666 490,-685 600,-685 600,-666 490,-666"/>
<text text-anchor="middle" x="545" y="-673" font-family="Helvetica,sans-Serif" font-size="10.00">f/f_pc/f_pc_line_tag.h</text>
</a>
</g>
</g>
<!-- Node3&#45;&gt;Node27 -->
<g id="edge54" class="edge">
<title>Node3&#45;&gt;Node27</title>
<path fill="none" stroke="midnightblue" d="M367.74,-794.48C388.79,-786.46 419.98,-773.39 445,-758 476.91,-738.37 509.8,-709.61 528.78,-692.02"/>
<polygon fill="midnightblue" stroke="midnightblue" points="531.35,-694.41 536.24,-685.01 526.56,-689.3 531.35,-694.41"/>
</g>
<!-- Node28 -->
<g id="node28" class="node">
<title>Node28</title>
<g id="a_node28"><a xlink:href="f__pc__priority_8h.html" target="_top" xlink:title=" ">
<polygon fill="white" stroke="black" points="332,-733 332,-752 436,-752 436,-733 332,-733"/>
<text text-anchor="middle" x="384" y="-740" font-family="Helvetica,sans-Serif" font-size="10.00">f/f_pc/f_pc_priority.h</text>
</a>
</g>
</g>
<!-- Node3&#45;&gt;Node28 -->
<g id="edge57" class="edge">
<title>Node3&#45;&gt;Node28</title>
<path fill="none" stroke="midnightblue" d="M349.73,-794.48C355.67,-785.64 365.12,-771.59 372.59,-760.48"/>
<polygon fill="midnightblue" stroke="midnightblue" points="375.61,-762.26 378.28,-752.01 369.8,-758.36 375.61,-762.26"/>
</g>
<!-- Node30 -->
<g id="node30" class="node">
<title>Node30</title>
<g id="a_node30"><a xlink:href="f__pc__profile_8h.html" target="_top" xlink:title=" ">
<polygon fill="white" stroke="black" points="539.5,-492.5 539.5,-511.5 640.5,-511.5 640.5,-492.5 539.5,-492.5"/>
<text text-anchor="middle" x="590" y="-499.5" font-family="Helvetica,sans-Serif" font-size="10.00">f/f_pc/f_pc_profile.h</text>
</a>
</g>
</g>
<!-- Node3&#45;&gt;Node30 -->
<g id="edge62" class="edge">
<title>Node3&#45;&gt;Node30</title>
<path fill="none" stroke="midnightblue" d="M392.82,-802.47C474.02,-798.74 628,-778.24 628,-676.5 628,-676.5 628,-676.5 628,-613 628,-578.81 611.4,-541.76 600.14,-520.57"/>
<polygon fill="midnightblue" stroke="midnightblue" points="603.18,-518.83 595.28,-511.77 597.05,-522.22 603.18,-518.83"/>
</g>
<!-- Node5 -->
<g id="node5" class="node">
<title>Node5</title>
<g id="a_node5"><a xlink:href="c__list_8h.html" target="_top" xlink:title=" ">
<polygon fill="white" stroke="black" points="220.5,-492.5 220.5,-511.5 327.5,-511.5 327.5,-492.5 220.5,-492.5"/>
<text text-anchor="middle" x="274" y="-499.5" font-family="Helvetica,sans-Serif" font-size="10.00">SComponent/c_list.h</text>
</a>
</g>
</g>
<!-- Node4&#45;&gt;Node5 -->
<g id="edge4" class="edge">
<title>Node4&#45;&gt;Node5</title>
<path fill="none" stroke="midnightblue" d="M316.13,-604.38C313.24,-591.73 307.16,-567.53 299,-548 295.04,-538.52 289.59,-528.47 284.79,-520.29"/>
<polygon fill="midnightblue" stroke="midnightblue" points="287.75,-518.42 279.58,-511.67 281.76,-522.04 287.75,-518.42"/>
</g>
<!-- Node6 -->
<g id="node6" class="node">
<title>Node6</title>
<g id="a_node6"><a xlink:href="c__node_8h.html" target="_top" xlink:title=" ">
<polygon fill="white" stroke="black" points="216.5,-436.5 216.5,-455.5 331.5,-455.5 331.5,-436.5 216.5,-436.5"/>
<text text-anchor="middle" x="274" y="-443.5" font-family="Helvetica,sans-Serif" font-size="10.00">SComponent/c_node.h</text>
</a>
</g>
</g>
<!-- Node4&#45;&gt;Node6 -->
<g id="edge36" class="edge">
<title>Node4&#45;&gt;Node6</title>
<path fill="none" stroke="midnightblue" d="M322.67,-604.22C333.01,-583.46 355.49,-530.22 336,-492 329,-478.27 315.63,-467.75 303.1,-460.35"/>
<polygon fill="midnightblue" stroke="midnightblue" points="304.68,-457.22 294.22,-455.51 301.33,-463.37 304.68,-457.22"/>
</g>
<!-- Node4&#45;&gt;Node7 -->
<g id="edge40" class="edge">
<title>Node4&#45;&gt;Node7</title>
<path fill="none" stroke="midnightblue" d="M327.09,-604.2C335.34,-595.7 347.23,-582.06 354,-568 379.91,-514.16 389.38,-442.96 392.55,-409.66"/>
<polygon fill="midnightblue" stroke="midnightblue" points="396.05,-409.82 393.43,-399.56 389.08,-409.22 396.05,-409.82"/>
</g>
<!-- Node23 -->
<g id="node23" class="node">
<title>Node23</title>
<g id="a_node23"><a xlink:href="c__tree_8h.html" target="_top" xlink:title=" ">
<polygon fill="white" stroke="black" points="180,-548.5 180,-567.5 290,-567.5 290,-548.5 180,-548.5"/>
<text text-anchor="middle" x="235" y="-555.5" font-family="Helvetica,sans-Serif" font-size="10.00">SComponent/c_tree.h</text>
</a>
</g>
</g>
<!-- Node4&#45;&gt;Node23 -->
<g id="edge37" class="edge">
<title>Node4&#45;&gt;Node23</title>
<path fill="none" stroke="midnightblue" d="M304.66,-604.32C291.84,-595.98 272.22,-583.21 257.06,-573.35"/>
<polygon fill="midnightblue" stroke="midnightblue" points="258.59,-570.17 248.3,-567.65 254.78,-576.04 258.59,-570.17"/>
</g>
<!-- Node5&#45;&gt;Node6 -->
<g id="edge5" class="edge">
<title>Node5&#45;&gt;Node6</title>
<path fill="none" stroke="midnightblue" d="M274,-492.08C274,-485.01 274,-474.86 274,-465.99"/>
<polygon fill="midnightblue" stroke="midnightblue" points="277.5,-465.75 274,-455.75 270.5,-465.75 277.5,-465.75"/>
</g>
<!-- Node6&#45;&gt;Node7 -->
<g id="edge6" class="edge">
<title>Node6&#45;&gt;Node7</title>
<path fill="none" stroke="midnightblue" d="M293.01,-436.44C312.59,-427.64 343.31,-413.81 365.73,-403.72"/>
<polygon fill="midnightblue" stroke="midnightblue" points="367.39,-406.81 375.07,-399.52 364.52,-400.43 367.39,-406.81"/>
</g>
<!-- Node8 -->
<g id="node8" class="node">
<title>Node8</title>
<g id="a_node8"><a xlink:href="types_8h.html" target="_top" xlink:title=" ">
<polygon fill="white" stroke="black" points="289.5,-0.5 289.5,-19.5 370.5,-19.5 370.5,-0.5 289.5,-0.5"/>
<text text-anchor="middle" x="330" y="-7.5" font-family="Helvetica,sans-Serif" font-size="10.00">dolphin/types.h</text>
</a>
</g>
</g>
<!-- Node7&#45;&gt;Node8 -->
<g id="edge7" class="edge">
<title>Node7&#45;&gt;Node8</title>
<path fill="none" stroke="midnightblue" d="M368.97,-385.19C295.41,-373.3 85,-333.99 85,-273.5 85,-273.5 85,-273.5 85,-137.5 85,-50.92 207.28,-23.54 279.06,-14.92"/>
<polygon fill="midnightblue" stroke="midnightblue" points="279.72,-18.37 289.27,-13.78 278.94,-11.41 279.72,-18.37"/>
</g>
<!-- Node9 -->
<g id="node9" class="node">
<title>Node9</title>
<g id="a_node9"><a xlink:href="AR_8h.html" target="_top" xlink:title=" ">
<polygon fill="white" stroke="black" points="113.5,-129 113.5,-148 162.5,-148 162.5,-129 113.5,-129"/>
<text text-anchor="middle" x="138" y="-136" font-family="Helvetica,sans-Serif" font-size="10.00">ar/AR.h</text>
</a>
</g>
</g>
<!-- Node7&#45;&gt;Node9 -->
<g id="edge8" class="edge">
<title>Node7&#45;&gt;Node9</title>
<path fill="none" stroke="midnightblue" d="M368.86,-386.61C319.92,-380.42 212.9,-359.02 170,-288 144.96,-246.55 139.38,-188.16 138.22,-158.46"/>
<polygon fill="midnightblue" stroke="midnightblue" points="141.72,-158.16 137.96,-148.25 134.72,-158.34 141.72,-158.16"/>
</g>
<!-- Node10 -->
<g id="node10" class="node">
<title>Node10</title>
<g id="a_node10"><a xlink:href="ARQ_8h.html" target="_top" xlink:title=" ">
<polygon fill="white" stroke="black" points="179,-263 179,-282 235,-282 235,-263 179,-263"/>
<text text-anchor="middle" x="207" y="-270" font-family="Helvetica,sans-Serif" font-size="10.00">ar/ARQ.h</text>
</a>
</g>
</g>
<!-- Node7&#45;&gt;Node10 -->
<g id="edge10" class="edge">
<title>Node7&#45;&gt;Node10</title>
<path fill="none" stroke="midnightblue" d="M368.92,-384.91C340.8,-379.38 294.85,-367.37 262,-344 242.31,-329.99 226.23,-306.94 216.65,-291.04"/>
<polygon fill="midnightblue" stroke="midnightblue" points="219.58,-289.11 211.55,-282.2 213.51,-292.61 219.58,-289.11"/>
</g>
<!-- Node11 -->
<g id="node11" class="node">
<title>Node11</title>
<g id="a_node11"><a xlink:href="mwcc_8h.html" target="_top" xlink:title=" ">
<polygon fill="white" stroke="black" points="786,-324.5 786,-343.5 836,-343.5 836,-324.5 786,-324.5"/>
<text text-anchor="middle" x="811" y="-331.5" font-family="Helvetica,sans-Serif" font-size="10.00">mwcc.h</text>
</a>
</g>
</g>
<!-- Node7&#45;&gt;Node11 -->
<g id="edge12" class="edge">
<title>Node7&#45;&gt;Node11</title>
<path fill="none" stroke="midnightblue" d="M419.35,-386.94C480.38,-381.77 640.16,-366.99 772,-344 773.27,-343.78 774.56,-343.54 775.86,-343.29"/>
<polygon fill="midnightblue" stroke="midnightblue" points="776.82,-346.67 785.91,-341.21 775.4,-339.81 776.82,-346.67"/>
</g>
<!-- Node12 -->
<g id="node12" class="node">
<title>Node12</title>
<g id="a_node12"><a xlink:href="OS_8h.html" target="_top" xlink:title=" ">
<polygon fill="white" stroke="black" points="227,-129 227,-148 279,-148 279,-129 227,-129"/>
<text text-anchor="middle" x="253" y="-136" font-family="Helvetica,sans-Serif" font-size="10.00">os/OS.h</text>
</a>
</g>
</g>
<!-- Node7&#45;&gt;Node12 -->
<g id="edge13" class="edge">
<title>Node7&#45;&gt;Node12</title>
<path fill="none" stroke="midnightblue" d="M389.15,-380.41C368.85,-344.5 290.55,-205.94 262.81,-156.86"/>
<polygon fill="midnightblue" stroke="midnightblue" points="265.8,-155.04 257.83,-148.05 259.71,-158.48 265.8,-155.04"/>
</g>
<!-- Node14 -->
<g id="node14" class="node">
<title>Node14</title>
<g id="a_node14"><a xlink:href="variables_8h.html" target="_top" xlink:title=" ">
<polygon fill="white" stroke="black" points="468.5,-324.5 468.5,-343.5 531.5,-343.5 531.5,-324.5 468.5,-324.5"/>
<text text-anchor="middle" x="500" y="-331.5" font-family="Helvetica,sans-Serif" font-size="10.00">variables.h</text>
</a>
</g>
</g>
<!-- Node7&#45;&gt;Node14 -->
<g id="edge17" class="edge">
<title>Node7&#45;&gt;Node14</title>
<path fill="none" stroke="midnightblue" d="M411.03,-380.32C428.03,-371.66 454.38,-358.24 473.99,-348.25"/>
<polygon fill="midnightblue" stroke="midnightblue" points="475.69,-351.31 483.01,-343.65 472.51,-345.08 475.69,-351.31"/>
</g>
<!-- Node9&#45;&gt;Node8 -->
<g id="edge9" class="edge">
<title>Node9&#45;&gt;Node8</title>
<path fill="none" stroke="midnightblue" d="M137.94,-128.99C138.3,-112.48 141.52,-75.98 162,-56 193.02,-25.74 242.05,-15.26 279.16,-11.9"/>
<polygon fill="midnightblue" stroke="midnightblue" points="279.58,-15.38 289.28,-11.13 279.05,-8.4 279.58,-15.38"/>
</g>
<!-- Node10&#45;&gt;Node8 -->
<g id="edge11" class="edge">
<title>Node10&#45;&gt;Node8</title>
<path fill="none" stroke="midnightblue" d="M202.94,-262.61C189.14,-230.94 147.46,-121.96 195,-56 214.06,-29.56 249.33,-18.42 279.05,-13.83"/>
<polygon fill="midnightblue" stroke="midnightblue" points="279.84,-17.26 289.29,-12.47 278.91,-10.32 279.84,-17.26"/>
</g>
<!-- Node12&#45;&gt;Node8 -->
<g id="edge14" class="edge">
<title>Node12&#45;&gt;Node8</title>
<path fill="none" stroke="midnightblue" d="M258.29,-128.81C270.88,-108.13 302.77,-55.73 319.46,-28.32"/>
<polygon fill="midnightblue" stroke="midnightblue" points="322.46,-30.12 324.67,-19.76 316.48,-26.48 322.46,-30.12"/>
</g>
<!-- Node13 -->
<g id="node13" class="node">
<title>Node13</title>
<g id="a_node13"><a xlink:href="dvd_8h.html" target="_top" xlink:title=" ">
<polygon fill="white" stroke="black" points="204.5,-62 204.5,-81 263.5,-81 263.5,-62 204.5,-62"/>
<text text-anchor="middle" x="234" y="-69" font-family="Helvetica,sans-Serif" font-size="10.00">dvd/dvd.h</text>
</a>
</g>
</g>
<!-- Node12&#45;&gt;Node13 -->
<g id="edge15" class="edge">
<title>Node12&#45;&gt;Node13</title>
<path fill="none" stroke="midnightblue" d="M250.44,-128.73C247.62,-119.09 243,-103.3 239.38,-90.91"/>
<polygon fill="midnightblue" stroke="midnightblue" points="242.69,-89.74 236.52,-81.13 235.97,-91.71 242.69,-89.74"/>
</g>
<!-- Node13&#45;&gt;Node8 -->
<g id="edge16" class="edge">
<title>Node13&#45;&gt;Node8</title>
<path fill="none" stroke="midnightblue" d="M247.75,-61.98C263.37,-52.3 289.06,-36.37 307.58,-24.89"/>
<polygon fill="midnightblue" stroke="midnightblue" points="309.62,-27.75 316.27,-19.51 305.93,-21.8 309.62,-27.75"/>
</g>
<!-- Node15 -->
<g id="node15" class="node">
<title>Node15</title>
<g id="a_node15"><a xlink:href="JSUList_8h.html" target="_top" xlink:title=" ">
<polygon fill="white" stroke="black" points="396,-56.5 396,-86.5 532,-86.5 532,-56.5 396,-56.5"/>
<text text-anchor="start" x="404" y="-74.5" font-family="Helvetica,sans-Serif" font-size="10.00">JSystem/JSupport/JSUList</text>
<text text-anchor="middle" x="464" y="-63.5" font-family="Helvetica,sans-Serif" font-size="10.00">/JSUList.h</text>
</a>
</g>
</g>
<!-- Node14&#45;&gt;Node15 -->
<g id="edge18" class="edge">
<title>Node14&#45;&gt;Node15</title>
<path fill="none" stroke="midnightblue" d="M491.79,-324.18C484.46,-315.66 474.24,-302.02 470,-288 448.51,-217.01 515.16,-194.38 495,-123 492.21,-113.11 486.88,-103.25 481.41,-94.91"/>
<polygon fill="midnightblue" stroke="midnightblue" points="484.14,-92.7 475.54,-86.51 478.4,-96.71 484.14,-92.7"/>
</g>
<!-- Node16 -->
<g id="node16" class="node">
<title>Node16</title>
<g id="a_node16"><a xlink:href="JUTXfb_8h.html" target="_top" xlink:title=" ">
<polygon fill="white" stroke="black" points="479.5,-257.5 479.5,-287.5 604.5,-287.5 604.5,-257.5 479.5,-257.5"/>
<text text-anchor="start" x="487.5" y="-275.5" font-family="Helvetica,sans-Serif" font-size="10.00">JSystem/JUtility/JUTXfb</text>
<text text-anchor="middle" x="542" y="-264.5" font-family="Helvetica,sans-Serif" font-size="10.00">/JUTXfb.h</text>
</a>
</g>
</g>
<!-- Node14&#45;&gt;Node16 -->
<g id="edge20" class="edge">
<title>Node14&#45;&gt;Node16</title>
<path fill="none" stroke="midnightblue" d="M506.02,-324.48C511.28,-317.02 519.16,-305.85 526.21,-295.87"/>
<polygon fill="midnightblue" stroke="midnightblue" points="529.19,-297.71 532.1,-287.52 523.48,-293.67 529.19,-297.71"/>
</g>
<!-- Node20 -->
<g id="node20" class="node">
<title>Node20</title>
<g id="a_node20"><a xlink:href="c__xyz_8h.html" target="_top" xlink:title=" ">
<polygon fill="white" stroke="black" points="622.5,-263 622.5,-282 729.5,-282 729.5,-263 622.5,-263"/>
<text text-anchor="middle" x="676" y="-270" font-family="Helvetica,sans-Serif" font-size="10.00">SComponent/c_xyz.h</text>
</a>
</g>
</g>
<!-- Node14&#45;&gt;Node20 -->
<g id="edge30" class="edge">
<title>Node14&#45;&gt;Node20</title>
<path fill="none" stroke="midnightblue" d="M525.22,-324.48C555.67,-314.18 607.05,-296.81 641.24,-285.25"/>
<polygon fill="midnightblue" stroke="midnightblue" points="642.48,-288.53 650.83,-282.01 640.24,-281.9 642.48,-288.53"/>
</g>
<!-- Node15&#45;&gt;Node8 -->
<g id="edge19" class="edge">
<title>Node15&#45;&gt;Node8</title>
<path fill="none" stroke="midnightblue" d="M432.24,-56.4C409.96,-46.51 380.41,-33.38 358.81,-23.79"/>
<polygon fill="midnightblue" stroke="midnightblue" points="360.06,-20.52 349.5,-19.66 357.22,-26.91 360.06,-20.52"/>
</g>
<!-- Node16&#45;&gt;Node8 -->
<g id="edge27" class="edge">
<title>Node16&#45;&gt;Node8</title>
<path fill="none" stroke="midnightblue" d="M555.74,-257.39C563.95,-247.93 573.6,-234.74 578,-221 600.44,-150.87 614.33,-108.79 563,-56 538.29,-30.59 441.56,-19.01 380.77,-14.15"/>
<polygon fill="midnightblue" stroke="midnightblue" points="380.84,-10.64 370.6,-13.37 380.3,-17.62 380.84,-10.64"/>
</g>
<!-- Node17 -->
<g id="node17" class="node">
<title>Node17</title>
<g id="a_node17"><a xlink:href="JKRHeap_8h.html" target="_top" xlink:title=" ">
<polygon fill="white" stroke="black" points="326,-190.5 326,-220.5 462,-220.5 462,-190.5 326,-190.5"/>
<text text-anchor="start" x="334" y="-208.5" font-family="Helvetica,sans-Serif" font-size="10.00">JSystem/JKernel/JKRHeap</text>
<text text-anchor="middle" x="394" y="-197.5" font-family="Helvetica,sans-Serif" font-size="10.00">/JKRHeap.h</text>
</a>
</g>
</g>
<!-- Node16&#45;&gt;Node17 -->
<g id="edge21" class="edge">
<title>Node16&#45;&gt;Node17</title>
<path fill="none" stroke="midnightblue" d="M509.89,-257.4C488.07,-247.81 459.01,-235.05 435.44,-224.7"/>
<polygon fill="midnightblue" stroke="midnightblue" points="436.61,-221.39 426.05,-220.58 433.8,-227.8 436.61,-221.39"/>
</g>
<!-- Node19 -->
<g id="node19" class="node">
<title>Node19</title>
<g id="a_node19"><a xlink:href="GX_8h.html" target="_top" xlink:title=" ">
<polygon fill="white" stroke="black" points="518.5,-196 518.5,-215 569.5,-215 569.5,-196 518.5,-196"/>
<text text-anchor="middle" x="544" y="-203" font-family="Helvetica,sans-Serif" font-size="10.00">gx/GX.h</text>
</a>
</g>
</g>
<!-- Node16&#45;&gt;Node19 -->
<g id="edge28" class="edge">
<title>Node16&#45;&gt;Node19</title>
<path fill="none" stroke="midnightblue" d="M542.43,-257.4C542.72,-248.06 543.1,-235.71 543.41,-225.52"/>
<polygon fill="midnightblue" stroke="midnightblue" points="546.92,-225.3 543.73,-215.19 539.93,-225.08 546.92,-225.3"/>
</g>
<!-- Node17&#45;&gt;Node7 -->
<g id="edge26" class="edge">
<title>Node17&#45;&gt;Node7</title>
<path fill="none" stroke="midnightblue" d="M394,-220.69C394,-253.21 394,-333.09 394,-369.88"/>
<polygon fill="midnightblue" stroke="midnightblue" points="390.5,-370.2 394,-380.2 397.5,-370.2 390.5,-370.2"/>
</g>
<!-- Node17&#45;&gt;Node8 -->
<g id="edge25" class="edge">
<title>Node17&#45;&gt;Node8</title>
<path fill="none" stroke="midnightblue" d="M363.88,-190.44C349.62,-182.05 333.99,-169.9 326,-154 305.61,-113.45 316.37,-57.93 324.19,-29.47"/>
<polygon fill="midnightblue" stroke="midnightblue" points="327.61,-30.24 327.08,-19.66 320.9,-28.27 327.61,-30.24"/>
</g>
<!-- Node18 -->
<g id="node18" class="node">
<title>Node18</title>
<g id="a_node18"><a xlink:href="JKRDisposer_8h.html" target="_top" xlink:title=" ">
<polygon fill="white" stroke="black" points="335.5,-123.5 335.5,-153.5 486.5,-153.5 486.5,-123.5 335.5,-123.5"/>
<text text-anchor="start" x="343.5" y="-141.5" font-family="Helvetica,sans-Serif" font-size="10.00">JSystem/JKernel/JKRDisposer</text>
<text text-anchor="middle" x="411" y="-130.5" font-family="Helvetica,sans-Serif" font-size="10.00">/JKRDisposer.h</text>
</a>
</g>
</g>
<!-- Node17&#45;&gt;Node18 -->
<g id="edge22" class="edge">
<title>Node17&#45;&gt;Node18</title>
<path fill="none" stroke="midnightblue" d="M397.69,-190.4C399.76,-182.47 402.4,-172.38 404.78,-163.27"/>
<polygon fill="midnightblue" stroke="midnightblue" points="408.17,-164.14 407.32,-153.58 401.4,-162.37 408.17,-164.14"/>
</g>
<!-- Node18&#45;&gt;Node8 -->
<g id="edge24" class="edge">
<title>Node18&#45;&gt;Node8</title>
<path fill="none" stroke="midnightblue" d="M402.02,-123.48C387.12,-100.21 357.32,-53.66 341.11,-28.36"/>
<polygon fill="midnightblue" stroke="midnightblue" points="343.97,-26.32 335.63,-19.79 338.07,-30.1 343.97,-26.32"/>
</g>
<!-- Node18&#45;&gt;Node15 -->
<g id="edge23" class="edge">
<title>Node18&#45;&gt;Node15</title>
<path fill="none" stroke="midnightblue" d="M422.5,-123.4C429.38,-114.96 438.26,-104.07 446.04,-94.52"/>
<polygon fill="midnightblue" stroke="midnightblue" points="448.92,-96.54 452.52,-86.58 443.49,-92.11 448.92,-96.54"/>
</g>
<!-- Node19&#45;&gt;Node8 -->
<g id="edge29" class="edge">
<title>Node19&#45;&gt;Node8</title>
<path fill="none" stroke="midnightblue" d="M547.08,-195.88C555.41,-170.93 575.49,-97.75 541,-56 521.01,-31.81 436.79,-20 380.98,-14.74"/>
<polygon fill="midnightblue" stroke="midnightblue" points="381.19,-11.24 370.91,-13.83 380.56,-18.21 381.19,-11.24"/>
</g>
<!-- Node20&#45;&gt;Node7 -->
<g id="edge33" class="edge">
<title>Node20&#45;&gt;Node7</title>
<path fill="none" stroke="midnightblue" d="M661.32,-282.23C636.83,-296.53 585.78,-325.26 540,-344 503,-359.15 458.96,-372.06 428.99,-380.11"/>
<polygon fill="midnightblue" stroke="midnightblue" points="427.78,-376.81 419.01,-382.76 429.58,-383.58 427.78,-376.81"/>
</g>
<!-- Node21 -->
<g id="node21" class="node">
<title>Node21</title>
<g id="a_node21"><a xlink:href="c__math_8h.html" target="_top" xlink:title=" ">
<polygon fill="white" stroke="black" points="698,-196 698,-215 814,-215 814,-196 698,-196"/>
<text text-anchor="middle" x="756" y="-203" font-family="Helvetica,sans-Serif" font-size="10.00">SComponent/c_math.h</text>
</a>
</g>
</g>
<!-- Node20&#45;&gt;Node21 -->
<g id="edge31" class="edge">
<title>Node20&#45;&gt;Node21</title>
<path fill="none" stroke="midnightblue" d="M686.79,-262.73C699.74,-252.21 721.69,-234.38 737.39,-221.62"/>
<polygon fill="midnightblue" stroke="midnightblue" points="739.83,-224.15 745.38,-215.13 735.41,-218.72 739.83,-224.15"/>
</g>
<!-- Node22 -->
<g id="node22" class="node">
<title>Node22</title>
<g id="a_node22"><a xlink:href="mtx__vec_8h.html" target="_top" xlink:title=" ">
<polygon fill="white" stroke="black" points="634.5,-62 634.5,-81 695.5,-81 695.5,-62 634.5,-62"/>
<text text-anchor="middle" x="665" y="-69" font-family="Helvetica,sans-Serif" font-size="10.00">mtx_vec.h</text>
</a>
</g>
</g>
<!-- Node20&#45;&gt;Node22 -->
<g id="edge34" class="edge">
<title>Node20&#45;&gt;Node22</title>
<path fill="none" stroke="midnightblue" d="M675.53,-262.95C673.88,-233.16 668.37,-133.51 666.05,-91.47"/>
<polygon fill="midnightblue" stroke="midnightblue" points="669.53,-91.03 665.48,-81.24 662.54,-91.42 669.53,-91.03"/>
</g>
<!-- Node21&#45;&gt;Node7 -->
<g id="edge32" class="edge">
<title>Node21&#45;&gt;Node7</title>
<path fill="none" stroke="midnightblue" d="M756.79,-215.33C757.74,-231.75 757.36,-267.19 739,-288 697.52,-335.03 508.54,-370.47 429.21,-383.53"/>
<polygon fill="midnightblue" stroke="midnightblue" points="428.53,-380.09 419.22,-385.15 429.65,-387 428.53,-380.09"/>
</g>
<!-- Node22&#45;&gt;Node8 -->
<g id="edge35" class="edge">
<title>Node22&#45;&gt;Node8</title>
<path fill="none" stroke="midnightblue" d="M635.98,-61.95C628.23,-59.83 619.83,-57.69 612,-56 531.93,-38.71 437.76,-25 381.03,-17.44"/>
<polygon fill="midnightblue" stroke="midnightblue" points="381.26,-13.94 370.89,-16.1 380.34,-20.88 381.26,-13.94"/>
</g>
<!-- Node23&#45;&gt;Node5 -->
<g id="edge38" class="edge">
<title>Node23&#45;&gt;Node5</title>
<path fill="none" stroke="midnightblue" d="M241.44,-548.08C246.95,-540.46 255.03,-529.26 261.76,-519.94"/>
<polygon fill="midnightblue" stroke="midnightblue" points="264.66,-521.91 267.68,-511.75 258.99,-517.81 264.66,-521.91"/>
</g>
<!-- Node23&#45;&gt;Node6 -->
<g id="edge39" class="edge">
<title>Node23&#45;&gt;Node6</title>
<path fill="none" stroke="midnightblue" d="M227.29,-548.31C216.98,-535.57 201.09,-511.25 211,-492 218.08,-478.25 231.52,-467.77 244.18,-460.39"/>
<polygon fill="midnightblue" stroke="midnightblue" points="246,-463.39 253.15,-455.57 242.69,-457.22 246,-463.39"/>
</g>
<!-- Node24&#45;&gt;Node4 -->
<g id="edge43" class="edge">
<title>Node24&#45;&gt;Node4</title>
<path fill="none" stroke="midnightblue" d="M131.55,-727.41C154.35,-718.11 184.01,-705.08 209,-691 226.7,-681.03 271.62,-648.82 297.94,-629.68"/>
<polygon fill="midnightblue" stroke="midnightblue" points="300.07,-632.46 306.09,-623.74 295.95,-626.8 300.07,-632.46"/>
</g>
<!-- Node24&#45;&gt;Node7 -->
<g id="edge49" class="edge">
<title>Node24&#45;&gt;Node7</title>
<path fill="none" stroke="midnightblue" d="M83.74,-727.26C67.13,-704.78 38,-659.08 38,-615 38,-615 38,-615 38,-501 38,-460.14 66.56,-454.48 103,-436 147.14,-413.61 291,-399.35 358.47,-393.72"/>
<polygon fill="midnightblue" stroke="midnightblue" points="358.93,-397.2 368.61,-392.9 358.36,-390.22 358.93,-397.2"/>
</g>
<!-- Node25 -->
<g id="node25" class="node">
<title>Node25</title>
<g id="a_node25"><a xlink:href="f__pc__layer_8h.html" target="_top" xlink:title=" ">
<polygon fill="white" stroke="black" points="104,-666 104,-685 200,-685 200,-666 104,-666"/>
<text text-anchor="middle" x="152" y="-673" font-family="Helvetica,sans-Serif" font-size="10.00">f/f_pc/f_pc_layer.h</text>
</a>
</g>
</g>
<!-- Node24&#45;&gt;Node25 -->
<g id="edge44" class="edge">
<title>Node24&#45;&gt;Node25</title>
<path fill="none" stroke="midnightblue" d="M107.37,-727.4C116.26,-717.26 128.26,-703.57 137.59,-692.94"/>
<polygon fill="midnightblue" stroke="midnightblue" points="140.41,-695.02 144.38,-685.19 135.15,-690.41 140.41,-695.02"/>
</g>
<!-- Node25&#45;&gt;Node4 -->
<g id="edge46" class="edge">
<title>Node25&#45;&gt;Node4</title>
<path fill="none" stroke="midnightblue" d="M175.78,-665.98C204.38,-655.72 252.55,-638.46 284.8,-626.9"/>
<polygon fill="midnightblue" stroke="midnightblue" points="286.03,-630.18 294.26,-623.51 283.67,-623.59 286.03,-630.18"/>
</g>
<!-- Node25&#45;&gt;Node6 -->
<g id="edge45" class="edge">
<title>Node25&#45;&gt;Node6</title>
<path fill="none" stroke="midnightblue" d="M151.8,-665.88C151.59,-637.08 154.9,-543.05 204,-492 216.29,-479.23 232.88,-468.36 246.82,-460.51"/>
<polygon fill="midnightblue" stroke="midnightblue" points="248.83,-463.4 255.96,-455.57 245.5,-457.24 248.83,-463.4"/>
</g>
<!-- Node25&#45;&gt;Node7 -->
<g id="edge48" class="edge">
<title>Node25&#45;&gt;Node7</title>
<path fill="none" stroke="midnightblue" d="M147.03,-665.84C136.73,-647.03 114,-600.8 114,-559 114,-559 114,-559 114,-501 114,-449 283.42,-411.34 358.69,-397.17"/>
<polygon fill="midnightblue" stroke="midnightblue" points="359.46,-400.59 368.66,-395.33 358.19,-393.71 359.46,-400.59"/>
</g>
<!-- Node25&#45;&gt;Node23 -->
<g id="edge47" class="edge">
<title>Node25&#45;&gt;Node23</title>
<path fill="none" stroke="midnightblue" d="M158.24,-665.82C171.94,-646.76 204.86,-600.95 222.81,-575.96"/>
<polygon fill="midnightblue" stroke="midnightblue" points="225.7,-577.95 228.69,-567.78 220.01,-573.86 225.7,-577.95"/>
</g>
<!-- Node26&#45;&gt;Node4 -->
<g id="edge51" class="edge">
<title>Node26&#45;&gt;Node4</title>
<path fill="none" stroke="midnightblue" d="M224.87,-732.81C241.36,-711.95 283.36,-658.81 304.87,-631.61"/>
<polygon fill="midnightblue" stroke="midnightblue" points="307.62,-633.77 311.08,-623.76 302.13,-629.43 307.62,-633.77"/>
</g>
<!-- Node26&#45;&gt;Node7 -->
<g id="edge53" class="edge">
<title>Node26&#45;&gt;Node7</title>
<path fill="none" stroke="midnightblue" d="M170.69,-732.93C144.84,-725.87 114.25,-713.26 95,-691 72.22,-664.67 76,-649.82 76,-615 76,-615 76,-615 76,-501 76,-454.84 115.08,-455.32 157,-436 224.01,-405.11 311.03,-395.42 358.79,-392.39"/>
<polygon fill="midnightblue" stroke="midnightblue" points="359.14,-395.87 368.92,-391.81 358.74,-388.88 359.14,-395.87"/>
</g>
<!-- Node26&#45;&gt;Node25 -->
<g id="edge52" class="edge">
<title>Node26&#45;&gt;Node25</title>
<path fill="none" stroke="midnightblue" d="M209.1,-732.73C198.61,-722.4 180.98,-705.04 168.08,-692.33"/>
<polygon fill="midnightblue" stroke="midnightblue" points="170.34,-689.65 160.76,-685.13 165.43,-694.64 170.34,-689.65"/>
</g>
<!-- Node27&#45;&gt;Node4 -->
<g id="edge55" class="edge">
<title>Node27&#45;&gt;Node4</title>
<path fill="none" stroke="midnightblue" d="M512.48,-665.98C472.44,-655.48 404.36,-637.64 360.3,-626.09"/>
<polygon fill="midnightblue" stroke="midnightblue" points="361.02,-622.66 350.46,-623.51 359.25,-629.43 361.02,-622.66"/>
</g>
<!-- Node27&#45;&gt;Node7 -->
<g id="edge56" class="edge">
<title>Node27&#45;&gt;Node7</title>
<path fill="none" stroke="midnightblue" d="M534.25,-665.89C513.52,-648.23 470,-605.62 470,-559 470,-559 470,-559 470,-501 470,-461.28 436.04,-425.5 413.52,-406.15"/>
<polygon fill="midnightblue" stroke="midnightblue" points="415.48,-403.24 405.54,-399.57 411.02,-408.63 415.48,-403.24"/>
</g>
<!-- Node28&#45;&gt;Node4 -->
<g id="edge58" class="edge">
<title>Node28&#45;&gt;Node4</title>
<path fill="none" stroke="midnightblue" d="M379.46,-732.81C368.73,-712.22 341.58,-660.19 327.22,-632.68"/>
<polygon fill="midnightblue" stroke="midnightblue" points="330.3,-631 322.57,-623.76 324.09,-634.24 330.3,-631"/>
</g>
<!-- Node29 -->
<g id="node29" class="node">
<title>Node29</title>
<g id="a_node29"><a xlink:href="f__pc__method__tag_8h.html" target="_top" xlink:title=" ">
<polygon fill="white" stroke="black" points="370.5,-660.5 370.5,-690.5 471.5,-690.5 471.5,-660.5 370.5,-660.5"/>
<text text-anchor="start" x="378.5" y="-678.5" font-family="Helvetica,sans-Serif" font-size="10.00">f/f_pc/f_pc_method</text>
<text text-anchor="middle" x="421" y="-667.5" font-family="Helvetica,sans-Serif" font-size="10.00">_tag.h</text>
</a>
</g>
</g>
<!-- Node28&#45;&gt;Node29 -->
<g id="edge59" class="edge">
<title>Node28&#45;&gt;Node29</title>
<path fill="none" stroke="midnightblue" d="M388.99,-732.73C393.85,-724.2 401.43,-710.87 408,-699.33"/>
<polygon fill="midnightblue" stroke="midnightblue" points="411.07,-701.01 412.98,-690.59 404.99,-697.55 411.07,-701.01"/>
</g>
<!-- Node29&#45;&gt;Node4 -->
<g id="edge60" class="edge">
<title>Node29&#45;&gt;Node4</title>
<path fill="none" stroke="midnightblue" d="M396.59,-660.4C380.08,-650.86 358.38,-638.32 341.96,-628.84"/>
<polygon fill="midnightblue" stroke="midnightblue" points="343.4,-625.63 332.99,-623.66 339.9,-631.69 343.4,-625.63"/>
</g>
<!-- Node29&#45;&gt;Node7 -->
<g id="edge61" class="edge">
<title>Node29&#45;&gt;Node7</title>
<path fill="none" stroke="midnightblue" d="M423.23,-660.32C426.44,-638.57 432,-595.66 432,-559 432,-559 432,-559 432,-501 432,-466.81 415.4,-429.76 404.14,-408.57"/>
<polygon fill="midnightblue" stroke="midnightblue" points="407.18,-406.83 399.28,-399.77 401.05,-410.22 407.18,-406.83"/>
</g>
<!-- Node30&#45;&gt;Node7 -->
<g id="edge65" class="edge">
<title>Node30&#45;&gt;Node7</title>
<path fill="none" stroke="midnightblue" d="M576.83,-492.42C557,-479.61 518.16,-454.97 484,-436 463.38,-424.55 439.48,-412.66 421.49,-403.98"/>
<polygon fill="midnightblue" stroke="midnightblue" points="422.7,-400.68 412.17,-399.51 419.67,-406.99 422.7,-400.68"/>
</g>
<!-- Node31 -->
<g id="node31" class="node">
<title>Node31</title>
<g id="a_node31"><a xlink:href="f__pc__method_8h.html" target="_top" xlink:title=" ">
<polygon fill="white" stroke="black" points="536,-436.5 536,-455.5 644,-455.5 644,-436.5 536,-436.5"/>
<text text-anchor="middle" x="590" y="-443.5" font-family="Helvetica,sans-Serif" font-size="10.00">f/f_pc/f_pc_method.h</text>
</a>
</g>
</g>
<!-- Node30&#45;&gt;Node31 -->
<g id="edge63" class="edge">
<title>Node30&#45;&gt;Node31</title>
<path fill="none" stroke="midnightblue" d="M590,-492.08C590,-485.01 590,-474.86 590,-465.99"/>
<polygon fill="midnightblue" stroke="midnightblue" points="593.5,-465.75 590,-455.75 586.5,-465.75 593.5,-465.75"/>
</g>
<!-- Node31&#45;&gt;Node7 -->
<g id="edge64" class="edge">
<title>Node31&#45;&gt;Node7</title>
<path fill="none" stroke="midnightblue" d="M558.94,-436.44C523.52,-426.68 465.75,-410.77 428.83,-400.6"/>
<polygon fill="midnightblue" stroke="midnightblue" points="429.57,-397.17 419,-397.89 427.71,-403.92 429.57,-397.17"/>
</g>
</g>
</svg>
        <g id="navigator" transform="translate(0 0)" fill="#404254">
                <rect fill="#f2f5e9" fill-opacity="0.5" stroke="#606060" stroke-width=".5" x="0" y="0" width="60" height="60"/>
                <use id="zoomplus" xlink:href="#zoomPlus" x="17" y="9" onmousedown="handleZoom(evt,'in')"/>
                <use id="zoomminus" xlink:href="#zoomMin" x="42" y="9" onmousedown="handleZoom(evt,'out')"/>
                <use id="reset" xlink:href="#resetDef" x="30" y="36" onmousedown="handleReset()"/>
                <g id="arrowUp" xlink:href="#dirArrow" transform="translate(30 24)" onmousedown="handlePan(0,-1)">
                  <use xlink:href="#rim" fill="#404040">
                        <set attributeName="fill" to="#808080" begin="arrowUp.mouseover" end="arrowUp.mouseout"/>
                  </use>
                  <path fill="none" stroke="white" stroke-width="1.5" d="M0,-3.0v7 M-2.5,-0.5L0,-3.0L2.5,-0.5"/>
                </g>
                <g id="arrowRight" xlink:href="#dirArrow" transform="rotate(90) translate(36 -43)" onmousedown="handlePan(1,0)">
                  <use xlink:href="#rim" fill="#404040">
                        <set attributeName="fill" to="#808080" begin="arrowRight.mouseover" end="arrowRight.mouseout"/>
                  </use>
                  <path fill="none" stroke="white" stroke-width="1.5" d="M0,-3.0v7 M-2.5,-0.5L0,-3.0L2.5,-0.5"/>
                </g>
                <g id="arrowDown" xlink:href="#dirArrow" transform="rotate(180) translate(-30 -48)" onmousedown="handlePan(0,1)">
                  <use xlink:href="#rim" fill="#404040">
                        <set attributeName="fill" to="#808080" begin="arrowDown.mouseover" end="arrowDown.mouseout"/>
                  </use>
                  <path fill="none" stroke="white" stroke-width="1.5" d="M0,-3.0v7 M-2.5,-0.5L0,-3.0L2.5,-0.5"/>
                </g>
                <g id="arrowLeft" xlink:href="#dirArrow" transform="rotate(270) translate(-36 17)" onmousedown="handlePan(-1,0)">
                  <use xlink:href="#rim" fill="#404040">
                        <set attributeName="fill" to="#808080" begin="arrowLeft.mouseover" end="arrowLeft.mouseout"/>
                  </use>
                  <path fill="none" stroke="white" stroke-width="1.5" d="M0,-3.0v7 M-2.5,-0.5L0,-3.0L2.5,-0.5"/>
                </g>
        </g>
        <svg viewBox="0 0 15 15" width="100%" height="30px" preserveAspectRatio="xMaxYMin meet">
         <g id="arrow_out" transform="scale(0.3 0.3)">
          <a xlink:href="f__pc__searcher_8cpp__incl_org.svg" target="_base">
           <rect id="button" ry="5" rx="5" y="6" x="6" height="38" width="38"
                fill="#f2f5e9" fill-opacity="0.5" stroke="#606060" stroke-width="1.0"/>
           <path id="arrow"
             d="M 11.500037,31.436501 C 11.940474,20.09759 22.043105,11.32322 32.158766,21.979434 L 37.068811,17.246167 C 37.068811,17.246167 37.088388,32 37.088388,32 L 22.160133,31.978069 C 22.160133,31.978069 26.997745,27.140456 26.997745,27.140456 C 18.528582,18.264221 13.291696,25.230495 11.500037,31.436501 z"
             style="fill:#404040;"/>
          </a>
         </g>
        </svg>
</svg>
