<?xml version="1.0" encoding="UTF-8" standalone="no"?>
<!DOCTYPE svg PUBLIC "-//W3C//DTD SVG 1.1//EN"
 "http://www.w3.org/Graphics/SVG/1.1/DTD/svg11.dtd">
<!-- Generated by graphviz version 2.46.0 (20210122.1329)
 -->
<!-- Title: src/f/f_pc/f_pc_priority.cpp Pages: 1 -->
<!--zoomable 878 -->
<svg id="main" version="1.1" xmlns="http://www.w3.org/2000/svg" xmlns:xlink="http://www.w3.org/1999/xlink" xml:space="preserve" onload="init(evt)">
<style type="text/css"><![CDATA[
.edge:hover path { stroke: red; }
.edge:hover polygon { stroke: red; fill: red; }
]]></style>
<script type="text/javascript"><![CDATA[
var edges = document.getElementsByTagName('g');
if (edges && edges.length) {
  for (var i=0;i<edges.length;i++) {
    if (edges[i].id.substr(0,4)=='edge') {
      edges[i].setAttribute('class','edge');
    }
  }
}
]]></script>
        <defs>
                <circle id="rim" cx="0" cy="0" r="7"/>
                <circle id="rim2" cx="0" cy="0" r="3.5"/>
                <g id="zoomPlus">
                        <use xlink:href="#rim" fill="#404040">
                                <set attributeName="fill" to="#808080" begin="zoomplus.mouseover" end="zoomplus.mouseout"/>
                        </use>
                        <path d="M-4,0h8M0,-4v8" fill="none" stroke="white" stroke-width="1.5" pointer-events="none"/>
                </g>
                <g id="zoomMin">
                        <use xlink:href="#rim" fill="#404040">
                                <set attributeName="fill" to="#808080" begin="zoomminus.mouseover" end="zoomminus.mouseout"/>
                        </use>
                        <path d="M-4,0h8" fill="none" stroke="white" stroke-width="1.5" pointer-events="none"/>
                </g>
                <g id="dirArrow">
                        <path fill="none" stroke="white" stroke-width="1.5" d="M0,-3.0v7 M-2.5,-0.5L0,-3.0L2.5,-0.5"/>
                </g>
               <g id="resetDef">
                       <use xlink:href="#rim2" fill="#404040">
                               <set attributeName="fill" to="#808080" begin="reset.mouseover" end="reset.mouseout"/>
                       </use>
               </g>
        </defs>

<script type="text/javascript">
var viewWidth = 768;
var viewHeight = 878;
var sectionId = 'dynsection-0';
</script>
<script xlink:href="svgpan.js"/>
<svg id="graph" class="graph">
<g id="viewport">
<title>src/f/f_pc/f_pc_priority.cpp</title>
<polygon fill="white" stroke="transparent" points="-4,4 -4,-874 764,-874 764,4 -4,4"/>
<!-- Node1 -->
<g id="node1" class="node">
<title>Node1</title>
<g id="a_node1"><a xlink:title=" ">
<polygon fill="#bfbfbf" stroke="black" points="475.5,-850.5 475.5,-869.5 606.5,-869.5 606.5,-850.5 475.5,-850.5"/>
<text text-anchor="middle" x="541" y="-857.5" font-family="Helvetica,sans-Serif" font-size="10.00">src/f/f_pc/f_pc_priority.cpp</text>
</a>
</g>
</g>
<!-- Node2 -->
<g id="node2" class="node">
<title>Node2</title>
<g id="a_node2"><a xlink:href="f__pc__priority_8h.html" target="_top" xlink:title=" ">
<polygon fill="white" stroke="black" points="409,-733 409,-752 513,-752 513,-733 409,-733"/>
<text text-anchor="middle" x="461" y="-740" font-family="Helvetica,sans-Serif" font-size="10.00">f/f_pc/f_pc_priority.h</text>
</a>
</g>
</g>
<!-- Node1&#45;&gt;Node2 -->
<g id="edge1" class="edge">
<title>Node1&#45;&gt;Node2</title>
<path fill="none" stroke="midnightblue" d="M534.99,-850.32C521.84,-831.34 490.33,-785.85 472.97,-760.79"/>
<polygon fill="midnightblue" stroke="midnightblue" points="475.65,-758.51 467.08,-752.28 469.9,-762.5 475.65,-758.51"/>
</g>
<!-- Node24 -->
<g id="node24" class="node">
<title>Node24</title>
<g id="a_node24"><a xlink:href="f__pc__base_8h.html" target="_top" xlink:title=" ">
<polygon fill="white" stroke="black" points="256.5,-794.5 256.5,-813.5 353.5,-813.5 353.5,-794.5 256.5,-794.5"/>
<text text-anchor="middle" x="305" y="-801.5" font-family="Helvetica,sans-Serif" font-size="10.00">f/f_pc/f_pc_base.h</text>
</a>
</g>
</g>
<!-- Node1&#45;&gt;Node24 -->
<g id="edge43" class="edge">
<title>Node1&#45;&gt;Node24</title>
<path fill="none" stroke="midnightblue" d="M503.61,-850.44C462.61,-841.06 396.75,-825.99 352.22,-815.8"/>
<polygon fill="midnightblue" stroke="midnightblue" points="352.75,-812.34 342.22,-813.52 351.19,-819.16 352.75,-812.34"/>
</g>
<!-- Node26 -->
<g id="node26" class="node">
<title>Node26</title>
<g id="a_node26"><a xlink:href="f__pc__layer_8h.html" target="_top" xlink:title=" ">
<polygon fill="white" stroke="black" points="567,-666 567,-685 663,-685 663,-666 567,-666"/>
<text text-anchor="middle" x="615" y="-673" font-family="Helvetica,sans-Serif" font-size="10.00">f/f_pc/f_pc_layer.h</text>
</a>
</g>
</g>
<!-- Node1&#45;&gt;Node26 -->
<g id="edge66" class="edge">
<title>Node1&#45;&gt;Node26</title>
<path fill="none" stroke="midnightblue" d="M557.95,-850.34C584.7,-835.59 635.73,-802.78 656,-758 661.68,-745.45 660.61,-739.98 656,-727 651.33,-713.83 641.59,-701.59 632.78,-692.46"/>
<polygon fill="midnightblue" stroke="midnightblue" points="635.03,-689.77 625.42,-685.29 630.14,-694.78 635.03,-689.77"/>
</g>
<!-- Node27 -->
<g id="node27" class="node">
<title>Node27</title>
<g id="a_node27"><a xlink:href="f__pc__layer__tag_8h.html" target="_top" xlink:title=" ">
<polygon fill="white" stroke="black" points="531.5,-733 531.5,-752 646.5,-752 646.5,-733 531.5,-733"/>
<text text-anchor="middle" x="589" y="-740" font-family="Helvetica,sans-Serif" font-size="10.00">f/f_pc/f_pc_layer_tag.h</text>
</a>
</g>
</g>
<!-- Node1&#45;&gt;Node27 -->
<g id="edge67" class="edge">
<title>Node1&#45;&gt;Node27</title>
<path fill="none" stroke="midnightblue" d="M544.61,-850.32C552.39,-831.59 570.9,-787.05 581.4,-761.79"/>
<polygon fill="midnightblue" stroke="midnightblue" points="584.74,-762.86 585.35,-752.28 578.28,-760.17 584.74,-762.86"/>
</g>
<!-- Node3 -->
<g id="node3" class="node">
<title>Node3</title>
<g id="a_node3"><a xlink:href="c__tag_8h.html" target="_top" xlink:title=" ">
<polygon fill="white" stroke="black" points="403.5,-604.5 403.5,-623.5 510.5,-623.5 510.5,-604.5 403.5,-604.5"/>
<text text-anchor="middle" x="457" y="-611.5" font-family="Helvetica,sans-Serif" font-size="10.00">SComponent/c_tag.h</text>
</a>
</g>
</g>
<!-- Node2&#45;&gt;Node3 -->
<g id="edge2" class="edge">
<title>Node2&#45;&gt;Node3</title>
<path fill="none" stroke="midnightblue" d="M464.98,-732.92C471.36,-718.04 482.63,-686.52 477,-660 475,-650.59 470.9,-640.76 466.93,-632.7"/>
<polygon fill="midnightblue" stroke="midnightblue" points="469.89,-630.81 462.13,-623.59 463.69,-634.07 469.89,-630.81"/>
</g>
<!-- Node23 -->
<g id="node23" class="node">
<title>Node23</title>
<g id="a_node23"><a xlink:href="f__pc__method__tag_8h.html" target="_top" xlink:title=" ">
<polygon fill="white" stroke="black" points="333.5,-660.5 333.5,-690.5 434.5,-690.5 434.5,-660.5 333.5,-660.5"/>
<text text-anchor="start" x="341.5" y="-678.5" font-family="Helvetica,sans-Serif" font-size="10.00">f/f_pc/f_pc_method</text>
<text text-anchor="middle" x="384" y="-667.5" font-family="Helvetica,sans-Serif" font-size="10.00">_tag.h</text>
</a>
</g>
</g>
<!-- Node2&#45;&gt;Node23 -->
<g id="edge40" class="edge">
<title>Node2&#45;&gt;Node23</title>
<path fill="none" stroke="midnightblue" d="M450.62,-732.73C439.91,-723.7 422.82,-709.27 408.64,-697.3"/>
<polygon fill="midnightblue" stroke="midnightblue" points="410.59,-694.37 400.69,-690.59 406.07,-699.71 410.59,-694.37"/>
</g>
<!-- Node4 -->
<g id="node4" class="node">
<title>Node4</title>
<g id="a_node4"><a xlink:href="c__list_8h.html" target="_top" xlink:title=" ">
<polygon fill="white" stroke="black" points="447.5,-492.5 447.5,-511.5 554.5,-511.5 554.5,-492.5 447.5,-492.5"/>
<text text-anchor="middle" x="501" y="-499.5" font-family="Helvetica,sans-Serif" font-size="10.00">SComponent/c_list.h</text>
</a>
</g>
</g>
<!-- Node3&#45;&gt;Node4 -->
<g id="edge3" class="edge">
<title>Node3&#45;&gt;Node4</title>
<path fill="none" stroke="midnightblue" d="M458.87,-604.38C461.76,-591.73 467.84,-567.53 476,-548 479.96,-538.52 485.41,-528.47 490.21,-520.29"/>
<polygon fill="midnightblue" stroke="midnightblue" points="493.24,-522.04 495.42,-511.67 487.25,-518.42 493.24,-522.04"/>
</g>
<!-- Node5 -->
<g id="node5" class="node">
<title>Node5</title>
<g id="a_node5"><a xlink:href="c__node_8h.html" target="_top" xlink:title=" ">
<polygon fill="white" stroke="black" points="443.5,-436.5 443.5,-455.5 558.5,-455.5 558.5,-436.5 443.5,-436.5"/>
<text text-anchor="middle" x="501" y="-443.5" font-family="Helvetica,sans-Serif" font-size="10.00">SComponent/c_node.h</text>
</a>
</g>
</g>
<!-- Node3&#45;&gt;Node5 -->
<g id="edge35" class="edge">
<title>Node3&#45;&gt;Node5</title>
<path fill="none" stroke="midnightblue" d="M452.33,-604.22C441.99,-583.46 419.51,-530.22 439,-492 446,-478.27 459.37,-467.75 471.9,-460.35"/>
<polygon fill="midnightblue" stroke="midnightblue" points="473.67,-463.37 480.78,-455.51 470.32,-457.22 473.67,-463.37"/>
</g>
<!-- Node6 -->
<g id="node6" class="node">
<title>Node6</title>
<g id="a_node6"><a xlink:href="global_8h.html" target="_top" xlink:title=" ">
<polygon fill="white" stroke="black" points="299,-380.5 299,-399.5 349,-399.5 349,-380.5 299,-380.5"/>
<text text-anchor="middle" x="324" y="-387.5" font-family="Helvetica,sans-Serif" font-size="10.00">global.h</text>
</a>
</g>
</g>
<!-- Node3&#45;&gt;Node6 -->
<g id="edge39" class="edge">
<title>Node3&#45;&gt;Node6</title>
<path fill="none" stroke="midnightblue" d="M451.73,-604.43C446.22,-595.41 437.37,-580.79 430,-568 396.53,-509.91 393.12,-492.48 357,-436 350.87,-426.41 343.41,-416.14 337.14,-407.84"/>
<polygon fill="midnightblue" stroke="midnightblue" points="339.78,-405.53 330.92,-399.73 334.23,-409.79 339.78,-405.53"/>
</g>
<!-- Node22 -->
<g id="node22" class="node">
<title>Node22</title>
<g id="a_node22"><a xlink:href="c__tree_8h.html" target="_top" xlink:title=" ">
<polygon fill="white" stroke="black" points="485,-548.5 485,-567.5 595,-567.5 595,-548.5 485,-548.5"/>
<text text-anchor="middle" x="540" y="-555.5" font-family="Helvetica,sans-Serif" font-size="10.00">SComponent/c_tree.h</text>
</a>
</g>
</g>
<!-- Node3&#45;&gt;Node22 -->
<g id="edge36" class="edge">
<title>Node3&#45;&gt;Node22</title>
<path fill="none" stroke="midnightblue" d="M470.34,-604.32C483.16,-595.98 502.78,-583.21 517.94,-573.35"/>
<polygon fill="midnightblue" stroke="midnightblue" points="520.22,-576.04 526.7,-567.65 516.41,-570.17 520.22,-576.04"/>
</g>
<!-- Node4&#45;&gt;Node5 -->
<g id="edge4" class="edge">
<title>Node4&#45;&gt;Node5</title>
<path fill="none" stroke="midnightblue" d="M501,-492.08C501,-485.01 501,-474.86 501,-465.99"/>
<polygon fill="midnightblue" stroke="midnightblue" points="504.5,-465.75 501,-455.75 497.5,-465.75 504.5,-465.75"/>
</g>
<!-- Node5&#45;&gt;Node6 -->
<g id="edge5" class="edge">
<title>Node5&#45;&gt;Node6</title>
<path fill="none" stroke="midnightblue" d="M472.95,-436.44C442.03,-427.01 392.26,-411.82 358.85,-401.63"/>
<polygon fill="midnightblue" stroke="midnightblue" points="359.64,-398.21 349.05,-398.64 357.6,-404.91 359.64,-398.21"/>
</g>
<!-- Node7 -->
<g id="node7" class="node">
<title>Node7</title>
<g id="a_node7"><a xlink:href="types_8h.html" target="_top" xlink:title=" ">
<polygon fill="white" stroke="black" points="189.5,-0.5 189.5,-19.5 270.5,-19.5 270.5,-0.5 189.5,-0.5"/>
<text text-anchor="middle" x="230" y="-7.5" font-family="Helvetica,sans-Serif" font-size="10.00">dolphin/types.h</text>
</a>
</g>
</g>
<!-- Node6&#45;&gt;Node7 -->
<g id="edge6" class="edge">
<title>Node6&#45;&gt;Node7</title>
<path fill="none" stroke="midnightblue" d="M298.78,-388.29C253.92,-386.17 158.21,-377.71 86,-344 41.22,-323.09 0,-322.92 0,-273.5 0,-273.5 0,-273.5 0,-137.5 0,-56.23 111.63,-26.8 179.35,-16.42"/>
<polygon fill="midnightblue" stroke="midnightblue" points="180.01,-19.86 189.41,-14.97 179.01,-12.93 180.01,-19.86"/>
</g>
<!-- Node8 -->
<g id="node8" class="node">
<title>Node8</title>
<g id="a_node8"><a xlink:href="AR_8h.html" target="_top" xlink:title=" ">
<polygon fill="white" stroke="black" points="39.5,-263 39.5,-282 88.5,-282 88.5,-263 39.5,-263"/>
<text text-anchor="middle" x="64" y="-270" font-family="Helvetica,sans-Serif" font-size="10.00">ar/AR.h</text>
</a>
</g>
</g>
<!-- Node6&#45;&gt;Node8 -->
<g id="edge7" class="edge">
<title>Node6&#45;&gt;Node8</title>
<path fill="none" stroke="midnightblue" d="M298.88,-389.88C255.87,-390.16 167.06,-385.2 108,-344 89.56,-331.13 77.26,-307.8 70.46,-291.52"/>
<polygon fill="midnightblue" stroke="midnightblue" points="73.66,-290.07 66.78,-282.01 67.13,-292.6 73.66,-290.07"/>
</g>
<!-- Node9 -->
<g id="node9" class="node">
<title>Node9</title>
<g id="a_node9"><a xlink:href="ARQ_8h.html" target="_top" xlink:title=" ">
<polygon fill="white" stroke="black" points="66,-129 66,-148 122,-148 122,-129 66,-129"/>
<text text-anchor="middle" x="94" y="-136" font-family="Helvetica,sans-Serif" font-size="10.00">ar/ARQ.h</text>
</a>
</g>
</g>
<!-- Node6&#45;&gt;Node9 -->
<g id="edge9" class="edge">
<title>Node6&#45;&gt;Node9</title>
<path fill="none" stroke="midnightblue" d="M315.47,-380.46C306.54,-371.48 292.14,-356.88 280,-344 215.04,-275.12 139.74,-190.96 108.62,-155.97"/>
<polygon fill="midnightblue" stroke="midnightblue" points="110.95,-153.32 101.69,-148.17 105.71,-157.97 110.95,-153.32"/>
</g>
<!-- Node10 -->
<g id="node10" class="node">
<title>Node10</title>
<g id="a_node10"><a xlink:href="mwcc_8h.html" target="_top" xlink:title=" ">
<polygon fill="white" stroke="black" points="710,-324.5 710,-343.5 760,-343.5 760,-324.5 710,-324.5"/>
<text text-anchor="middle" x="735" y="-331.5" font-family="Helvetica,sans-Serif" font-size="10.00">mwcc.h</text>
</a>
</g>
</g>
<!-- Node6&#45;&gt;Node10 -->
<g id="edge11" class="edge">
<title>Node6&#45;&gt;Node10</title>
<path fill="none" stroke="midnightblue" d="M349.4,-386.87C409.78,-381.59 566.57,-366.7 696,-344 697.27,-343.78 698.56,-343.54 699.86,-343.29"/>
<polygon fill="midnightblue" stroke="midnightblue" points="700.83,-346.67 709.9,-341.2 699.4,-339.81 700.83,-346.67"/>
</g>
<!-- Node11 -->
<g id="node11" class="node">
<title>Node11</title>
<g id="a_node11"><a xlink:href="OS_8h.html" target="_top" xlink:title=" ">
<polygon fill="white" stroke="black" points="140,-129 140,-148 192,-148 192,-129 140,-129"/>
<text text-anchor="middle" x="166" y="-136" font-family="Helvetica,sans-Serif" font-size="10.00">os/OS.h</text>
</a>
</g>
</g>
<!-- Node6&#45;&gt;Node11 -->
<g id="edge12" class="edge">
<title>Node6&#45;&gt;Node11</title>
<path fill="none" stroke="midnightblue" d="M318.56,-380.41C295.77,-344.42 207.71,-205.37 176.8,-156.55"/>
<polygon fill="midnightblue" stroke="midnightblue" points="179.72,-154.63 171.42,-148.05 173.81,-158.37 179.72,-154.63"/>
</g>
<!-- Node13 -->
<g id="node13" class="node">
<title>Node13</title>
<g id="a_node13"><a xlink:href="variables_8h.html" target="_top" xlink:title=" ">
<polygon fill="white" stroke="black" points="393.5,-324.5 393.5,-343.5 456.5,-343.5 456.5,-324.5 393.5,-324.5"/>
<text text-anchor="middle" x="425" y="-331.5" font-family="Helvetica,sans-Serif" font-size="10.00">variables.h</text>
</a>
</g>
</g>
<!-- Node6&#45;&gt;Node13 -->
<g id="edge16" class="edge">
<title>Node6&#45;&gt;Node13</title>
<path fill="none" stroke="midnightblue" d="M340.23,-380.32C356.35,-371.7 381.3,-358.36 399.96,-348.39"/>
<polygon fill="midnightblue" stroke="midnightblue" points="401.64,-351.46 408.81,-343.65 398.34,-345.28 401.64,-351.46"/>
</g>
<!-- Node8&#45;&gt;Node7 -->
<g id="edge8" class="edge">
<title>Node8&#45;&gt;Node7</title>
<path fill="none" stroke="midnightblue" d="M61.59,-262.87C55.52,-239.63 41.17,-174.03 57,-123 67.7,-88.5 74.35,-78 103,-56 125.26,-38.91 154.55,-27.95 179.39,-21.14"/>
<polygon fill="midnightblue" stroke="midnightblue" points="180.57,-24.45 189.37,-18.55 178.81,-17.67 180.57,-24.45"/>
</g>
<!-- Node9&#45;&gt;Node7 -->
<g id="edge10" class="edge">
<title>Node9&#45;&gt;Node7</title>
<path fill="none" stroke="midnightblue" d="M95.07,-128.7C97.5,-112.33 104.88,-76.97 125,-56 140.28,-40.07 162.12,-29.49 181.93,-22.61"/>
<polygon fill="midnightblue" stroke="midnightblue" points="183.01,-25.94 191.45,-19.53 180.86,-19.28 183.01,-25.94"/>
</g>
<!-- Node11&#45;&gt;Node7 -->
<g id="edge13" class="edge">
<title>Node11&#45;&gt;Node7</title>
<path fill="none" stroke="midnightblue" d="M157.44,-128.92C143.13,-113.5 117.39,-80.45 133,-56 143.45,-39.63 161.56,-29.12 179.33,-22.42"/>
<polygon fill="midnightblue" stroke="midnightblue" points="180.78,-25.63 189.11,-19.08 178.51,-19 180.78,-25.63"/>
</g>
<!-- Node12 -->
<g id="node12" class="node">
<title>Node12</title>
<g id="a_node12"><a xlink:href="dvd_8h.html" target="_top" xlink:title=" ">
<polygon fill="white" stroke="black" points="142.5,-62 142.5,-81 201.5,-81 201.5,-62 142.5,-62"/>
<text text-anchor="middle" x="172" y="-69" font-family="Helvetica,sans-Serif" font-size="10.00">dvd/dvd.h</text>
</a>
</g>
</g>
<!-- Node11&#45;&gt;Node12 -->
<g id="edge14" class="edge">
<title>Node11&#45;&gt;Node12</title>
<path fill="none" stroke="midnightblue" d="M166.81,-128.73C167.69,-119.18 169.13,-103.62 170.27,-91.28"/>
<polygon fill="midnightblue" stroke="midnightblue" points="173.77,-91.41 171.2,-81.13 166.8,-90.76 173.77,-91.41"/>
</g>
<!-- Node12&#45;&gt;Node7 -->
<g id="edge15" class="edge">
<title>Node12&#45;&gt;Node7</title>
<path fill="none" stroke="midnightblue" d="M180.31,-61.98C189.18,-52.87 203.45,-38.24 214.42,-26.98"/>
<polygon fill="midnightblue" stroke="midnightblue" points="217.23,-29.11 221.71,-19.51 212.22,-24.23 217.23,-29.11"/>
</g>
<!-- Node14 -->
<g id="node14" class="node">
<title>Node14</title>
<g id="a_node14"><a xlink:href="JSUList_8h.html" target="_top" xlink:title=" ">
<polygon fill="white" stroke="black" points="296,-56.5 296,-86.5 432,-86.5 432,-56.5 296,-56.5"/>
<text text-anchor="start" x="304" y="-74.5" font-family="Helvetica,sans-Serif" font-size="10.00">JSystem/JSupport/JSUList</text>
<text text-anchor="middle" x="364" y="-63.5" font-family="Helvetica,sans-Serif" font-size="10.00">/JSUList.h</text>
</a>
</g>
</g>
<!-- Node13&#45;&gt;Node14 -->
<g id="edge17" class="edge">
<title>Node13&#45;&gt;Node14</title>
<path fill="none" stroke="midnightblue" d="M416.52,-324.23C408.95,-315.75 398.4,-302.13 394,-288 389.91,-274.84 392.68,-270.71 394,-257 395.56,-240.78 398.6,-237.12 401,-221 405.42,-191.39 406.44,-183.9 408,-154 408.72,-140.24 412.83,-135.9 408,-123 403.98,-112.27 396.54,-102.32 388.91,-94.14"/>
<polygon fill="midnightblue" stroke="midnightblue" points="391.18,-91.46 381.63,-86.87 386.23,-96.41 391.18,-91.46"/>
</g>
<!-- Node15 -->
<g id="node15" class="node">
<title>Node15</title>
<g id="a_node15"><a xlink:href="JUTXfb_8h.html" target="_top" xlink:title=" ">
<polygon fill="white" stroke="black" points="403.5,-257.5 403.5,-287.5 528.5,-287.5 528.5,-257.5 403.5,-257.5"/>
<text text-anchor="start" x="411.5" y="-275.5" font-family="Helvetica,sans-Serif" font-size="10.00">JSystem/JUtility/JUTXfb</text>
<text text-anchor="middle" x="466" y="-264.5" font-family="Helvetica,sans-Serif" font-size="10.00">/JUTXfb.h</text>
</a>
</g>
</g>
<!-- Node13&#45;&gt;Node15 -->
<g id="edge19" class="edge">
<title>Node13&#45;&gt;Node15</title>
<path fill="none" stroke="midnightblue" d="M430.87,-324.48C436.01,-317.02 443.71,-305.85 450.59,-295.87"/>
<polygon fill="midnightblue" stroke="midnightblue" points="453.55,-297.74 456.34,-287.52 447.78,-293.77 453.55,-297.74"/>
</g>
<!-- Node19 -->
<g id="node19" class="node">
<title>Node19</title>
<g id="a_node19"><a xlink:href="c__xyz_8h.html" target="_top" xlink:title=" ">
<polygon fill="white" stroke="black" points="546.5,-263 546.5,-282 653.5,-282 653.5,-263 546.5,-263"/>
<text text-anchor="middle" x="600" y="-270" font-family="Helvetica,sans-Serif" font-size="10.00">SComponent/c_xyz.h</text>
</a>
</g>
</g>
<!-- Node13&#45;&gt;Node19 -->
<g id="edge29" class="edge">
<title>Node13&#45;&gt;Node19</title>
<path fill="none" stroke="midnightblue" d="M450.07,-324.48C480.35,-314.18 531.44,-296.81 565.44,-285.25"/>
<polygon fill="midnightblue" stroke="midnightblue" points="566.63,-288.54 574.97,-282.01 564.38,-281.91 566.63,-288.54"/>
</g>
<!-- Node14&#45;&gt;Node7 -->
<g id="edge18" class="edge">
<title>Node14&#45;&gt;Node7</title>
<path fill="none" stroke="midnightblue" d="M332.24,-56.4C309.96,-46.51 280.41,-33.38 258.81,-23.79"/>
<polygon fill="midnightblue" stroke="midnightblue" points="260.06,-20.52 249.5,-19.66 257.22,-26.91 260.06,-20.52"/>
</g>
<!-- Node15&#45;&gt;Node7 -->
<g id="edge26" class="edge">
<title>Node15&#45;&gt;Node7</title>
<path fill="none" stroke="midnightblue" d="M469.31,-257.45C477.35,-219.49 493.59,-113.81 441,-56 419.88,-32.78 336.01,-20.68 280.58,-15.09"/>
<polygon fill="midnightblue" stroke="midnightblue" points="280.87,-11.6 270.58,-14.12 280.2,-18.57 280.87,-11.6"/>
</g>
<!-- Node16 -->
<g id="node16" class="node">
<title>Node16</title>
<g id="a_node16"><a xlink:href="JKRHeap_8h.html" target="_top" xlink:title=" ">
<polygon fill="white" stroke="black" points="256,-190.5 256,-220.5 392,-220.5 392,-190.5 256,-190.5"/>
<text text-anchor="start" x="264" y="-208.5" font-family="Helvetica,sans-Serif" font-size="10.00">JSystem/JKernel/JKRHeap</text>
<text text-anchor="middle" x="324" y="-197.5" font-family="Helvetica,sans-Serif" font-size="10.00">/JKRHeap.h</text>
</a>
</g>
</g>
<!-- Node15&#45;&gt;Node16 -->
<g id="edge20" class="edge">
<title>Node15&#45;&gt;Node16</title>
<path fill="none" stroke="midnightblue" d="M435.19,-257.4C414.35,-247.86 386.62,-235.16 364.07,-224.84"/>
<polygon fill="midnightblue" stroke="midnightblue" points="365.3,-221.56 354.75,-220.58 362.39,-227.92 365.3,-221.56"/>
</g>
<!-- Node18 -->
<g id="node18" class="node">
<title>Node18</title>
<g id="a_node18"><a xlink:href="GX_8h.html" target="_top" xlink:title=" ">
<polygon fill="white" stroke="black" points="494.5,-62 494.5,-81 545.5,-81 545.5,-62 494.5,-62"/>
<text text-anchor="middle" x="520" y="-69" font-family="Helvetica,sans-Serif" font-size="10.00">gx/GX.h</text>
</a>
</g>
</g>
<!-- Node15&#45;&gt;Node18 -->
<g id="edge27" class="edge">
<title>Node15&#45;&gt;Node18</title>
<path fill="none" stroke="midnightblue" d="M469.95,-257.36C472.77,-247.24 476.64,-233.29 480,-221 492.74,-174.37 507.47,-119.42 515,-91.24"/>
<polygon fill="midnightblue" stroke="midnightblue" points="518.48,-91.77 517.68,-81.21 511.72,-89.97 518.48,-91.77"/>
</g>
<!-- Node16&#45;&gt;Node6 -->
<g id="edge25" class="edge">
<title>Node16&#45;&gt;Node6</title>
<path fill="none" stroke="midnightblue" d="M324,-220.69C324,-253.21 324,-333.09 324,-369.88"/>
<polygon fill="midnightblue" stroke="midnightblue" points="320.5,-370.2 324,-380.2 327.5,-370.2 320.5,-370.2"/>
</g>
<!-- Node16&#45;&gt;Node7 -->
<g id="edge24" class="edge">
<title>Node16&#45;&gt;Node7</title>
<path fill="none" stroke="midnightblue" d="M283.53,-190.32C266.87,-182.33 249.12,-170.55 239,-154 215.17,-115.03 220.9,-58.39 226.04,-29.48"/>
<polygon fill="midnightblue" stroke="midnightblue" points="229.5,-30.03 227.98,-19.54 222.63,-28.68 229.5,-30.03"/>
</g>
<!-- Node17 -->
<g id="node17" class="node">
<title>Node17</title>
<g id="a_node17"><a xlink:href="JKRDisposer_8h.html" target="_top" xlink:title=" ">
<polygon fill="white" stroke="black" points="248.5,-123.5 248.5,-153.5 399.5,-153.5 399.5,-123.5 248.5,-123.5"/>
<text text-anchor="start" x="256.5" y="-141.5" font-family="Helvetica,sans-Serif" font-size="10.00">JSystem/JKernel/JKRDisposer</text>
<text text-anchor="middle" x="324" y="-130.5" font-family="Helvetica,sans-Serif" font-size="10.00">/JKRDisposer.h</text>
</a>
</g>
</g>
<!-- Node16&#45;&gt;Node17 -->
<g id="edge21" class="edge">
<title>Node16&#45;&gt;Node17</title>
<path fill="none" stroke="midnightblue" d="M324,-190.4C324,-182.64 324,-172.81 324,-163.86"/>
<polygon fill="midnightblue" stroke="midnightblue" points="327.5,-163.58 324,-153.58 320.5,-163.58 327.5,-163.58"/>
</g>
<!-- Node17&#45;&gt;Node7 -->
<g id="edge23" class="edge">
<title>Node17&#45;&gt;Node7</title>
<path fill="none" stroke="midnightblue" d="M313.58,-123.48C296.21,-100.1 261.4,-53.25 242.65,-28.02"/>
<polygon fill="midnightblue" stroke="midnightblue" points="245.3,-25.73 236.53,-19.79 239.69,-29.9 245.3,-25.73"/>
</g>
<!-- Node17&#45;&gt;Node14 -->
<g id="edge22" class="edge">
<title>Node17&#45;&gt;Node14</title>
<path fill="none" stroke="midnightblue" d="M332.68,-123.4C337.76,-115.13 344.3,-104.51 350.09,-95.1"/>
<polygon fill="midnightblue" stroke="midnightblue" points="353.08,-96.93 355.34,-86.58 347.12,-93.26 353.08,-96.93"/>
</g>
<!-- Node18&#45;&gt;Node7 -->
<g id="edge28" class="edge">
<title>Node18&#45;&gt;Node7</title>
<path fill="none" stroke="midnightblue" d="M498.62,-61.99C492.66,-59.83 486.13,-57.65 480,-56 412.07,-37.72 331.74,-24.75 280.82,-17.57"/>
<polygon fill="midnightblue" stroke="midnightblue" points="281.12,-14.07 270.74,-16.17 280.16,-21.01 281.12,-14.07"/>
</g>
<!-- Node19&#45;&gt;Node6 -->
<g id="edge32" class="edge">
<title>Node19&#45;&gt;Node6</title>
<path fill="none" stroke="midnightblue" d="M585.42,-282.18C561.09,-296.43 510.39,-325.07 465,-344 429.68,-358.73 387.73,-371.55 358.82,-379.7"/>
<polygon fill="midnightblue" stroke="midnightblue" points="357.87,-376.33 349.17,-382.38 359.74,-383.08 357.87,-376.33"/>
</g>
<!-- Node20 -->
<g id="node20" class="node">
<title>Node20</title>
<g id="a_node20"><a xlink:href="c__math_8h.html" target="_top" xlink:title=" ">
<polygon fill="white" stroke="black" points="624,-196 624,-215 740,-215 740,-196 624,-196"/>
<text text-anchor="middle" x="682" y="-203" font-family="Helvetica,sans-Serif" font-size="10.00">SComponent/c_math.h</text>
</a>
</g>
</g>
<!-- Node19&#45;&gt;Node20 -->
<g id="edge30" class="edge">
<title>Node19&#45;&gt;Node20</title>
<path fill="none" stroke="midnightblue" d="M611.06,-262.73C624.34,-252.21 646.83,-234.38 662.93,-221.62"/>
<polygon fill="midnightblue" stroke="midnightblue" points="665.45,-224.08 671.12,-215.13 661.11,-218.6 665.45,-224.08"/>
</g>
<!-- Node21 -->
<g id="node21" class="node">
<title>Node21</title>
<g id="a_node21"><a xlink:href="mtx__vec_8h.html" target="_top" xlink:title=" ">
<polygon fill="white" stroke="black" points="544.5,-196 544.5,-215 605.5,-215 605.5,-196 544.5,-196"/>
<text text-anchor="middle" x="575" y="-203" font-family="Helvetica,sans-Serif" font-size="10.00">mtx_vec.h</text>
</a>
</g>
</g>
<!-- Node19&#45;&gt;Node21 -->
<g id="edge33" class="edge">
<title>Node19&#45;&gt;Node21</title>
<path fill="none" stroke="midnightblue" d="M596.63,-262.73C592.88,-252.99 586.72,-236.98 581.94,-224.53"/>
<polygon fill="midnightblue" stroke="midnightblue" points="585.17,-223.2 578.32,-215.13 578.64,-225.72 585.17,-223.2"/>
</g>
<!-- Node20&#45;&gt;Node6 -->
<g id="edge31" class="edge">
<title>Node20&#45;&gt;Node6</title>
<path fill="none" stroke="midnightblue" d="M682.54,-215.35C683.03,-231.8 681.69,-267.3 663,-288 583.11,-376.48 429.46,-388.85 359.85,-389.66"/>
<polygon fill="midnightblue" stroke="midnightblue" points="359.41,-386.16 349.42,-389.7 359.43,-393.16 359.41,-386.16"/>
</g>
<!-- Node21&#45;&gt;Node7 -->
<g id="edge34" class="edge">
<title>Node21&#45;&gt;Node7</title>
<path fill="none" stroke="midnightblue" d="M576.95,-195.95C582.21,-170.55 593.74,-94.88 555,-56 517.55,-18.41 362.52,-11.7 280.85,-10.83"/>
<polygon fill="midnightblue" stroke="midnightblue" points="280.82,-7.33 270.79,-10.75 280.76,-14.33 280.82,-7.33"/>
</g>
<!-- Node22&#45;&gt;Node4 -->
<g id="edge37" class="edge">
<title>Node22&#45;&gt;Node4</title>
<path fill="none" stroke="midnightblue" d="M533.56,-548.08C528.05,-540.46 519.97,-529.26 513.24,-519.94"/>
<polygon fill="midnightblue" stroke="midnightblue" points="516.01,-517.81 507.32,-511.75 510.34,-521.91 516.01,-517.81"/>
</g>
<!-- Node22&#45;&gt;Node5 -->
<g id="edge38" class="edge">
<title>Node22&#45;&gt;Node5</title>
<path fill="none" stroke="midnightblue" d="M547.47,-548.29C557.44,-535.53 572.79,-511.2 563,-492 556,-478.27 542.63,-467.75 530.1,-460.35"/>
<polygon fill="midnightblue" stroke="midnightblue" points="531.68,-457.22 521.22,-455.51 528.33,-463.37 531.68,-457.22"/>
</g>
<!-- Node23&#45;&gt;Node3 -->
<g id="edge41" class="edge">
<title>Node23&#45;&gt;Node3</title>
<path fill="none" stroke="midnightblue" d="M401.3,-660.4C412.45,-651.31 426.95,-639.49 438.36,-630.19"/>
<polygon fill="midnightblue" stroke="midnightblue" points="440.84,-632.69 446.38,-623.66 436.42,-627.26 440.84,-632.69"/>
</g>
<!-- Node23&#45;&gt;Node6 -->
<g id="edge42" class="edge">
<title>Node23&#45;&gt;Node6</title>
<path fill="none" stroke="midnightblue" d="M375.5,-660.49C363.5,-639.3 343,-597.51 343,-559 343,-559 343,-559 343,-501 343,-468.49 334.84,-431.35 329.22,-409.61"/>
<polygon fill="midnightblue" stroke="midnightblue" points="332.54,-408.5 326.56,-399.75 325.78,-410.32 332.54,-408.5"/>
</g>
<!-- Node24&#45;&gt;Node2 -->
<g id="edge61" class="edge">
<title>Node24&#45;&gt;Node2</title>
<path fill="none" stroke="midnightblue" d="M327.35,-794.48C353.99,-784.31 398.71,-767.26 429.01,-755.7"/>
<polygon fill="midnightblue" stroke="midnightblue" points="430.59,-758.84 438.69,-752.01 428.1,-752.3 430.59,-758.84"/>
</g>
<!-- Node24&#45;&gt;Node3 -->
<g id="edge44" class="edge">
<title>Node24&#45;&gt;Node3</title>
<path fill="none" stroke="midnightblue" d="M300.12,-794.37C295.44,-785.55 288.69,-771.3 286,-758 276.73,-712.21 287.99,-689.76 324,-660 344.15,-643.35 370.75,-632.75 394.87,-626.06"/>
<polygon fill="midnightblue" stroke="midnightblue" points="395.87,-629.42 404.67,-623.51 394.11,-622.64 395.87,-629.42"/>
</g>
<!-- Node24&#45;&gt;Node6 -->
<g id="edge45" class="edge">
<title>Node24&#45;&gt;Node6</title>
<path fill="none" stroke="midnightblue" d="M256.32,-799.07C185.65,-790.39 63,-762.9 63,-676.5 63,-676.5 63,-676.5 63,-501 63,-404.18 217.39,-391.22 288.68,-390.4"/>
<polygon fill="midnightblue" stroke="midnightblue" points="288.99,-393.9 298.97,-390.36 288.96,-386.9 288.99,-393.9"/>
</g>
<!-- Node25 -->
<g id="node25" class="node">
<title>Node25</title>
<g id="a_node25"><a xlink:href="f__pc__delete__tag_8h.html" target="_top" xlink:title=" ">
<polygon fill="white" stroke="black" points="295.5,-727.5 295.5,-757.5 390.5,-757.5 390.5,-727.5 295.5,-727.5"/>
<text text-anchor="start" x="303.5" y="-745.5" font-family="Helvetica,sans-Serif" font-size="10.00">f/f_pc/f_pc_delete</text>
<text text-anchor="middle" x="343" y="-734.5" font-family="Helvetica,sans-Serif" font-size="10.00">_tag.h</text>
</a>
</g>
</g>
<!-- Node24&#45;&gt;Node25 -->
<g id="edge46" class="edge">
<title>Node24&#45;&gt;Node25</title>
<path fill="none" stroke="midnightblue" d="M310.44,-794.48C315.16,-787.09 322.19,-776.08 328.52,-766.17"/>
<polygon fill="midnightblue" stroke="midnightblue" points="331.61,-767.83 334.04,-757.52 325.71,-764.07 331.61,-767.83"/>
</g>
<!-- Node24&#45;&gt;Node27 -->
<g id="edge54" class="edge">
<title>Node24&#45;&gt;Node27</title>
<path fill="none" stroke="midnightblue" d="M346.62,-794.48C390.32,-785.51 461.02,-770.92 522,-758 527.74,-756.78 533.76,-755.5 539.73,-754.21"/>
<polygon fill="midnightblue" stroke="midnightblue" points="540.65,-757.6 549.69,-752.07 539.17,-750.75 540.65,-757.6"/>
</g>
<!-- Node28 -->
<g id="node28" class="node">
<title>Node28</title>
<g id="a_node28"><a xlink:href="f__pc__line__tag_8h.html" target="_top" xlink:title=" ">
<polygon fill="white" stroke="black" points="129,-666 129,-685 239,-685 239,-666 129,-666"/>
<text text-anchor="middle" x="184" y="-673" font-family="Helvetica,sans-Serif" font-size="10.00">f/f_pc/f_pc_line_tag.h</text>
</a>
</g>
</g>
<!-- Node24&#45;&gt;Node28 -->
<g id="edge58" class="edge">
<title>Node24&#45;&gt;Node28</title>
<path fill="none" stroke="midnightblue" d="M294.21,-794.49C283.39,-785.76 266.43,-771.58 253,-758 232.13,-736.9 210.38,-710.32 197.01,-693.36"/>
<polygon fill="midnightblue" stroke="midnightblue" points="199.74,-691.18 190.83,-685.45 194.23,-695.49 199.74,-691.18"/>
</g>
<!-- Node29 -->
<g id="node29" class="node">
<title>Node29</title>
<g id="a_node29"><a xlink:href="f__pc__profile_8h.html" target="_top" xlink:title=" ">
<polygon fill="white" stroke="black" points="91.5,-492.5 91.5,-511.5 192.5,-511.5 192.5,-492.5 91.5,-492.5"/>
<text text-anchor="middle" x="142" y="-499.5" font-family="Helvetica,sans-Serif" font-size="10.00">f/f_pc/f_pc_profile.h</text>
</a>
</g>
</g>
<!-- Node24&#45;&gt;Node29 -->
<g id="edge62" class="edge">
<title>Node24&#45;&gt;Node29</title>
<path fill="none" stroke="midnightblue" d="M256.4,-794.87C196.06,-781.67 101,-749.32 101,-676.5 101,-676.5 101,-676.5 101,-613 101,-578.52 118.91,-541.56 131.06,-520.47"/>
<polygon fill="midnightblue" stroke="midnightblue" points="134.16,-522.09 136.3,-511.71 128.16,-518.49 134.16,-522.09"/>
</g>
<!-- Node25&#45;&gt;Node3 -->
<g id="edge47" class="edge">
<title>Node25&#45;&gt;Node3</title>
<path fill="none" stroke="midnightblue" d="M390.71,-727.78C409.73,-719.96 430.12,-708.2 443,-691 455.28,-674.59 457.89,-650.71 458,-634.11"/>
<polygon fill="midnightblue" stroke="midnightblue" points="461.49,-633.88 457.76,-623.96 454.5,-634.04 461.49,-633.88"/>
</g>
<!-- Node25&#45;&gt;Node6 -->
<g id="edge53" class="edge">
<title>Node25&#45;&gt;Node6</title>
<path fill="none" stroke="midnightblue" d="M335.85,-727.5C324.84,-704.59 305,-657.42 305,-615 305,-615 305,-615 305,-501 305,-468.49 313.16,-431.35 318.78,-409.61"/>
<polygon fill="midnightblue" stroke="midnightblue" points="322.22,-410.32 321.44,-399.75 315.46,-408.5 322.22,-410.32"/>
</g>
<!-- Node25&#45;&gt;Node26 -->
<g id="edge48" class="edge">
<title>Node25&#45;&gt;Node26</title>
<path fill="none" stroke="midnightblue" d="M390.57,-729.33C393.76,-728.53 396.93,-727.75 400,-727 457.7,-712.89 524.31,-697.36 567.91,-687.3"/>
<polygon fill="midnightblue" stroke="midnightblue" points="568.7,-690.71 577.66,-685.05 567.13,-683.89 568.7,-690.71"/>
</g>
<!-- Node26&#45;&gt;Node3 -->
<g id="edge50" class="edge">
<title>Node26&#45;&gt;Node3</title>
<path fill="none" stroke="midnightblue" d="M592.36,-665.98C565.26,-655.77 519.69,-638.61 489,-627.05"/>
<polygon fill="midnightblue" stroke="midnightblue" points="490.19,-623.76 479.6,-623.51 487.72,-630.31 490.19,-623.76"/>
</g>
<!-- Node26&#45;&gt;Node5 -->
<g id="edge49" class="edge">
<title>Node26&#45;&gt;Node5</title>
<path fill="none" stroke="midnightblue" d="M616.06,-665.91C619.08,-637.19 624.78,-543.41 578,-492 565.4,-478.15 547.53,-467.35 532.17,-459.8"/>
<polygon fill="midnightblue" stroke="midnightblue" points="533.55,-456.58 523.01,-455.52 530.59,-462.92 533.55,-456.58"/>
</g>
<!-- Node26&#45;&gt;Node6 -->
<g id="edge52" class="edge">
<title>Node26&#45;&gt;Node6</title>
<path fill="none" stroke="midnightblue" d="M621.01,-665.98C633.48,-647.46 661,-601.74 661,-559 661,-559 661,-559 661,-501 661,-438.01 445.51,-405.42 359.16,-394.89"/>
<polygon fill="midnightblue" stroke="midnightblue" points="359.4,-391.39 349.05,-393.69 358.57,-398.35 359.4,-391.39"/>
</g>
<!-- Node26&#45;&gt;Node22 -->
<g id="edge51" class="edge">
<title>Node26&#45;&gt;Node22</title>
<path fill="none" stroke="midnightblue" d="M609.36,-665.82C597.04,-646.84 567.5,-601.35 551.23,-576.29"/>
<polygon fill="midnightblue" stroke="midnightblue" points="554.08,-574.26 545.7,-567.78 548.21,-578.08 554.08,-574.26"/>
</g>
<!-- Node27&#45;&gt;Node3 -->
<g id="edge55" class="edge">
<title>Node27&#45;&gt;Node3</title>
<path fill="none" stroke="midnightblue" d="M579.93,-732.81C557.98,-711.77 501.76,-657.89 473.6,-630.9"/>
<polygon fill="midnightblue" stroke="midnightblue" points="475.78,-628.15 466.14,-623.76 470.93,-633.2 475.78,-628.15"/>
</g>
<!-- Node27&#45;&gt;Node6 -->
<g id="edge57" class="edge">
<title>Node27&#45;&gt;Node6</title>
<path fill="none" stroke="midnightblue" d="M611.32,-732.95C629.94,-724.78 655.93,-710.76 672,-691 694.62,-663.19 699,-650.85 699,-615 699,-615 699,-615 699,-501 699,-430.61 452.62,-402.06 359.28,-393.77"/>
<polygon fill="midnightblue" stroke="midnightblue" points="359.45,-390.27 349.19,-392.9 358.85,-397.24 359.45,-390.27"/>
</g>
<!-- Node27&#45;&gt;Node26 -->
<g id="edge56" class="edge">
<title>Node27&#45;&gt;Node26</title>
<path fill="none" stroke="midnightblue" d="M592.51,-732.73C596.4,-722.99 602.81,-706.98 607.79,-694.53"/>
<polygon fill="midnightblue" stroke="midnightblue" points="611.08,-695.71 611.55,-685.13 604.59,-693.11 611.08,-695.71"/>
</g>
<!-- Node28&#45;&gt;Node3 -->
<g id="edge59" class="edge">
<title>Node28&#45;&gt;Node3</title>
<path fill="none" stroke="midnightblue" d="M223.11,-665.98C271.87,-655.35 355.21,-637.18 408.12,-625.65"/>
<polygon fill="midnightblue" stroke="midnightblue" points="408.93,-629.06 417.96,-623.51 407.44,-622.22 408.93,-629.06"/>
</g>
<!-- Node28&#45;&gt;Node6 -->
<g id="edge60" class="edge">
<title>Node28&#45;&gt;Node6</title>
<path fill="none" stroke="midnightblue" d="M196.25,-665.89C219.33,-648.53 267,-606.9 267,-559 267,-559 267,-559 267,-501 267,-464.3 292.32,-427.66 309.21,-407.3"/>
<polygon fill="midnightblue" stroke="midnightblue" points="311.95,-409.48 315.83,-399.62 306.65,-404.9 311.95,-409.48"/>
</g>
<!-- Node29&#45;&gt;Node6 -->
<g id="edge65" class="edge">
<title>Node29&#45;&gt;Node6</title>
<path fill="none" stroke="midnightblue" d="M134.92,-492.49C124.69,-479.11 108.41,-452.95 122,-436 142.5,-410.43 236.36,-398.45 288.62,-393.68"/>
<polygon fill="midnightblue" stroke="midnightblue" points="289.13,-397.15 298.79,-392.79 288.52,-390.17 289.13,-397.15"/>
</g>
<!-- Node30 -->
<g id="node30" class="node">
<title>Node30</title>
<g id="a_node30"><a xlink:href="f__pc__method_8h.html" target="_top" xlink:title=" ">
<polygon fill="white" stroke="black" points="131,-436.5 131,-455.5 239,-455.5 239,-436.5 131,-436.5"/>
<text text-anchor="middle" x="185" y="-443.5" font-family="Helvetica,sans-Serif" font-size="10.00">f/f_pc/f_pc_method.h</text>
</a>
</g>
</g>
<!-- Node29&#45;&gt;Node30 -->
<g id="edge63" class="edge">
<title>Node29&#45;&gt;Node30</title>
<path fill="none" stroke="midnightblue" d="M149.1,-492.08C155.24,-484.38 164.27,-473.03 171.74,-463.65"/>
<polygon fill="midnightblue" stroke="midnightblue" points="174.54,-465.75 178.03,-455.75 169.06,-461.39 174.54,-465.75"/>
</g>
<!-- Node30&#45;&gt;Node6 -->
<g id="edge64" class="edge">
<title>Node30&#45;&gt;Node6</title>
<path fill="none" stroke="midnightblue" d="M207.02,-436.44C230.1,-427.48 266.56,-413.31 292.64,-403.18"/>
<polygon fill="midnightblue" stroke="midnightblue" points="294.02,-406.4 302.08,-399.52 291.49,-399.88 294.02,-406.4"/>
</g>
</g>
</svg>
        <g id="navigator" transform="translate(0 0)" fill="#404254">
                <rect fill="#f2f5e9" fill-opacity="0.5" stroke="#606060" stroke-width=".5" x="0" y="0" width="60" height="60"/>
                <use id="zoomplus" xlink:href="#zoomPlus" x="17" y="9" onmousedown="handleZoom(evt,'in')"/>
                <use id="zoomminus" xlink:href="#zoomMin" x="42" y="9" onmousedown="handleZoom(evt,'out')"/>
                <use id="reset" xlink:href="#resetDef" x="30" y="36" onmousedown="handleReset()"/>
                <g id="arrowUp" xlink:href="#dirArrow" transform="translate(30 24)" onmousedown="handlePan(0,-1)">
                  <use xlink:href="#rim" fill="#404040">
                        <set attributeName="fill" to="#808080" begin="arrowUp.mouseover" end="arrowUp.mouseout"/>
                  </use>
                  <path fill="none" stroke="white" stroke-width="1.5" d="M0,-3.0v7 M-2.5,-0.5L0,-3.0L2.5,-0.5"/>
                </g>
                <g id="arrowRight" xlink:href="#dirArrow" transform="rotate(90) translate(36 -43)" onmousedown="handlePan(1,0)">
                  <use xlink:href="#rim" fill="#404040">
                        <set attributeName="fill" to="#808080" begin="arrowRight.mouseover" end="arrowRight.mouseout"/>
                  </use>
                  <path fill="none" stroke="white" stroke-width="1.5" d="M0,-3.0v7 M-2.5,-0.5L0,-3.0L2.5,-0.5"/>
                </g>
                <g id="arrowDown" xlink:href="#dirArrow" transform="rotate(180) translate(-30 -48)" onmousedown="handlePan(0,1)">
                  <use xlink:href="#rim" fill="#404040">
                        <set attributeName="fill" to="#808080" begin="arrowDown.mouseover" end="arrowDown.mouseout"/>
                  </use>
                  <path fill="none" stroke="white" stroke-width="1.5" d="M0,-3.0v7 M-2.5,-0.5L0,-3.0L2.5,-0.5"/>
                </g>
                <g id="arrowLeft" xlink:href="#dirArrow" transform="rotate(270) translate(-36 17)" onmousedown="handlePan(-1,0)">
                  <use xlink:href="#rim" fill="#404040">
                        <set attributeName="fill" to="#808080" begin="arrowLeft.mouseover" end="arrowLeft.mouseout"/>
                  </use>
                  <path fill="none" stroke="white" stroke-width="1.5" d="M0,-3.0v7 M-2.5,-0.5L0,-3.0L2.5,-0.5"/>
                </g>
        </g>
        <svg viewBox="0 0 15 15" width="100%" height="30px" preserveAspectRatio="xMaxYMin meet">
         <g id="arrow_out" transform="scale(0.3 0.3)">
          <a xlink:href="f__pc__priority_8cpp__incl_org.svg" target="_base">
           <rect id="button" ry="5" rx="5" y="6" x="6" height="38" width="38"
                fill="#f2f5e9" fill-opacity="0.5" stroke="#606060" stroke-width="1.0"/>
           <path id="arrow"
             d="M 11.500037,31.436501 C 11.940474,20.09759 22.043105,11.32322 32.158766,21.979434 L 37.068811,17.246167 C 37.068811,17.246167 37.088388,32 37.088388,32 L 22.160133,31.978069 C 22.160133,31.978069 26.997745,27.140456 26.997745,27.140456 C 18.528582,18.264221 13.291696,25.230495 11.500037,31.436501 z"
             style="fill:#404040;"/>
          </a>
         </g>
        </svg>
</svg>
