<?xml version="1.0" encoding="UTF-8" standalone="no"?>
<!DOCTYPE svg PUBLIC "-//W3C//DTD SVG 1.1//EN"
 "http://www.w3.org/Graphics/SVG/1.1/DTD/svg11.dtd">
<!-- Generated by graphviz version 2.46.1 (20210215.1649)
 -->
<!-- Title: Graphical Class Hierarchy Pages: 1 -->
<svg width="1030pt" height="558pt"
 viewBox="0.00 0.00 1030.00 558.00" xmlns="http://www.w3.org/2000/svg" xmlns:xlink="http://www.w3.org/1999/xlink">
<g id="graph0" class="graph" transform="scale(1 1) rotate(0) translate(4 554)">
<title>Graphical Class Hierarchy</title>
<polygon fill="white" stroke="transparent" points="-4,4 -4,-554 1026,-554 1026,4 -4,4"/>
<!-- Node0 -->
<g id="node1" class="node">
<title>Node0</title>
<g id="a_node1"><a xlink:href="structJStudio_1_1TFunctionValue.html" target="_top" xlink:title=" ">
<polygon fill="white" stroke="black" points="544.5,-141 544.5,-160 666.5,-160 666.5,-141 544.5,-141"/>
<text text-anchor="middle" x="605.5" y="-148" font-family="Helvetica,sans-Serif" font-size="10.00">JStudio::TFunctionValue</text>
</a>
</g>
</g>
<!-- Node1 -->
<g id="node2" class="node">
<title>Node1</title>
<g id="a_node2"><a xlink:href="structJStudio_1_1TFunctionValue__composite.html" target="_top" xlink:title=" ">
<polygon fill="white" stroke="black" points="730,-235.5 730,-265.5 852,-265.5 852,-235.5 730,-235.5"/>
<text text-anchor="start" x="738" y="-253.5" font-family="Helvetica,sans-Serif" font-size="10.00">JStudio::TFunctionValue</text>
<text text-anchor="middle" x="791" y="-242.5" font-family="Helvetica,sans-Serif" font-size="10.00">_composite</text>
</a>
</g>
</g>
<!-- Node0&#45;&gt;Node1 -->
<g id="edge1" class="edge">
<title>Node0&#45;&gt;Node1</title>
<path fill="none" stroke="midnightblue" d="M626.57,-166.09C648.72,-182.75 685.9,-209.09 721,-226.5 727.48,-229.71 734.49,-232.68 741.48,-235.36"/>
<polygon fill="midnightblue" stroke="midnightblue" points="628.66,-163.29 618.58,-160.02 624.42,-168.86 628.66,-163.29"/>
</g>
<!-- Node3 -->
<g id="node4" class="node">
<title>Node3</title>
<g id="a_node4"><a xlink:href="structJStudio_1_1TFunctionValue__constant.html" target="_top" xlink:title=" ">
<polygon fill="white" stroke="black" points="730,-186.5 730,-216.5 852,-216.5 852,-186.5 730,-186.5"/>
<text text-anchor="start" x="738" y="-204.5" font-family="Helvetica,sans-Serif" font-size="10.00">JStudio::TFunctionValue</text>
<text text-anchor="middle" x="791" y="-193.5" font-family="Helvetica,sans-Serif" font-size="10.00">_constant</text>
</a>
</g>
</g>
<!-- Node0&#45;&gt;Node3 -->
<g id="edge3" class="edge">
<title>Node0&#45;&gt;Node3</title>
<path fill="none" stroke="midnightblue" d="M650.81,-162.82C676.38,-169.92 708.72,-178.91 735.8,-186.44"/>
<polygon fill="midnightblue" stroke="midnightblue" points="651.59,-159.4 641.01,-160.09 649.71,-166.14 651.59,-159.4"/>
</g>
<!-- Node4 -->
<g id="node5" class="node">
<title>Node4</title>
<g id="a_node5"><a xlink:href="structJStudio_1_1TFunctionValue__hermite.html" target="_top" xlink:title=" ">
<polygon fill="white" stroke="black" points="730,-137.5 730,-167.5 852,-167.5 852,-137.5 730,-137.5"/>
<text text-anchor="start" x="738" y="-155.5" font-family="Helvetica,sans-Serif" font-size="10.00">JStudio::TFunctionValue</text>
<text text-anchor="middle" x="791" y="-144.5" font-family="Helvetica,sans-Serif" font-size="10.00">_hermite</text>
</a>
</g>
</g>
<!-- Node0&#45;&gt;Node4 -->
<g id="edge4" class="edge">
<title>Node0&#45;&gt;Node4</title>
<path fill="none" stroke="midnightblue" d="M676.73,-151.27C694.22,-151.46 712.82,-151.66 729.78,-151.84"/>
<polygon fill="midnightblue" stroke="midnightblue" points="676.62,-147.76 666.58,-151.15 676.55,-154.76 676.62,-147.76"/>
</g>
<!-- Node5 -->
<g id="node6" class="node">
<title>Node5</title>
<g id="a_node6"><a xlink:href="structJStudio_1_1TFunctionValue__list.html" target="_top" xlink:title=" ">
<polygon fill="white" stroke="black" points="721,-50 721,-69 861,-69 861,-50 721,-50"/>
<text text-anchor="middle" x="791" y="-57" font-family="Helvetica,sans-Serif" font-size="10.00">JStudio::TFunctionValue_list</text>
</a>
</g>
</g>
<!-- Node0&#45;&gt;Node5 -->
<g id="edge5" class="edge">
<title>Node0&#45;&gt;Node5</title>
<path fill="none" stroke="midnightblue" d="M668.99,-137.22C674.64,-134.78 680.08,-131.9 685,-128.5 707.22,-113.13 698.84,-94.97 721,-79.5 727.24,-75.14 734.42,-71.73 741.74,-69.05"/>
<polygon fill="midnightblue" stroke="midnightblue" points="667.43,-134.07 659.34,-140.92 669.93,-140.61 667.43,-134.07"/>
</g>
<!-- Node6 -->
<g id="node7" class="node">
<title>Node6</title>
<g id="a_node7"><a xlink:href="structJStudio_1_1TFunctionValue__list__parameter.html" target="_top" xlink:title=" ">
<polygon fill="white" stroke="black" points="730,-88.5 730,-118.5 852,-118.5 852,-88.5 730,-88.5"/>
<text text-anchor="start" x="738" y="-106.5" font-family="Helvetica,sans-Serif" font-size="10.00">JStudio::TFunctionValue</text>
<text text-anchor="middle" x="791" y="-95.5" font-family="Helvetica,sans-Serif" font-size="10.00">_list_parameter</text>
</a>
</g>
</g>
<!-- Node0&#45;&gt;Node6 -->
<g id="edge6" class="edge">
<title>Node0&#45;&gt;Node6</title>
<path fill="none" stroke="midnightblue" d="M653.44,-138.48C677.12,-132.41 706.09,-124.99 731.25,-118.55"/>
<polygon fill="midnightblue" stroke="midnightblue" points="652.45,-135.12 643.63,-140.99 654.19,-141.9 652.45,-135.12"/>
</g>
<!-- Node7 -->
<g id="node8" class="node">
<title>Node7</title>
<g id="a_node8"><a xlink:href="structJStudio_1_1TFunctionValue__transition.html" target="_top" xlink:title=" ">
<polygon fill="white" stroke="black" points="730,-0.5 730,-30.5 852,-30.5 852,-0.5 730,-0.5"/>
<text text-anchor="start" x="738" y="-18.5" font-family="Helvetica,sans-Serif" font-size="10.00">JStudio::TFunctionValue</text>
<text text-anchor="middle" x="791" y="-7.5" font-family="Helvetica,sans-Serif" font-size="10.00">_transition</text>
</a>
</g>
</g>
<!-- Node0&#45;&gt;Node7 -->
<g id="edge7" class="edge">
<title>Node0&#45;&gt;Node7</title>
<path fill="none" stroke="midnightblue" d="M673.72,-136.45C677.77,-134.18 681.58,-131.55 685,-128.5 716.55,-100.39 690.52,-69.77 721,-40.5 725.04,-36.62 729.74,-33.33 734.73,-30.55"/>
<polygon fill="midnightblue" stroke="midnightblue" points="672.04,-133.37 664.54,-140.85 675.07,-139.68 672.04,-133.37"/>
</g>
<!-- Node2 -->
<g id="node3" class="node">
<title>Node2</title>
<g id="a_node3"><a xlink:href="structJStudio_1_1fvb_1_1TObject__composite.html" target="_top" xlink:title=" ">
<polygon fill="white" stroke="black" points="906,-235.5 906,-265.5 1013,-265.5 1013,-235.5 906,-235.5"/>
<text text-anchor="start" x="914" y="-253.5" font-family="Helvetica,sans-Serif" font-size="10.00">JStudio::fvb::TObject</text>
<text text-anchor="middle" x="959.5" y="-242.5" font-family="Helvetica,sans-Serif" font-size="10.00">_composite</text>
</a>
</g>
</g>
<!-- Node1&#45;&gt;Node2 -->
<g id="edge2" class="edge">
<title>Node1&#45;&gt;Node2</title>
<path fill="none" stroke="midnightblue" d="M862.15,-250.5C876.81,-250.5 892.03,-250.5 905.92,-250.5"/>
<polygon fill="midnightblue" stroke="midnightblue" points="862.11,-247 852.11,-250.5 862.11,-254 862.11,-247"/>
</g>
<!-- Node410 -->
<g id="node9" class="node">
<title>Node410</title>
<g id="a_node9"><a xlink:href="structJStudio_1_1TFunctionValueAttribute__interpolate.html" target="_top" xlink:title=" ">
<polygon fill="white" stroke="black" points="526,-39.5 526,-69.5 685,-69.5 685,-39.5 526,-39.5"/>
<text text-anchor="start" x="534" y="-57.5" font-family="Helvetica,sans-Serif" font-size="10.00">JStudio::TFunctionValueAttribute</text>
<text text-anchor="middle" x="605.5" y="-46.5" font-family="Helvetica,sans-Serif" font-size="10.00">_interpolate</text>
</a>
</g>
</g>
<!-- Node410&#45;&gt;Node5 -->
<g id="edge8" class="edge">
<title>Node410&#45;&gt;Node5</title>
<path fill="none" stroke="midnightblue" d="M695.19,-56.92C703.79,-57.15 712.43,-57.39 720.8,-57.61"/>
<polygon fill="midnightblue" stroke="midnightblue" points="695.21,-53.42 685.12,-56.64 695.02,-60.41 695.21,-53.42"/>
</g>
<!-- Node410&#45;&gt;Node6 -->
<g id="edge9" class="edge">
<title>Node410&#45;&gt;Node6</title>
<path fill="none" stroke="midnightblue" d="M672.5,-72.12C692.57,-77.48 714.44,-83.32 733.8,-88.49"/>
<polygon fill="midnightblue" stroke="midnightblue" points="673.37,-68.73 662.8,-69.53 671.56,-75.5 673.37,-68.73"/>
</g>
<!-- Node410&#45;&gt;Node7 -->
<g id="edge10" class="edge">
<title>Node410&#45;&gt;Node7</title>
<path fill="none" stroke="midnightblue" d="M687.05,-37.38C701.4,-34.33 716.13,-31.2 729.8,-28.29"/>
<polygon fill="midnightblue" stroke="midnightblue" points="686.24,-33.97 677.18,-39.48 687.69,-40.82 686.24,-33.97"/>
</g>
<!-- Node411 -->
<g id="node10" class="node">
<title>Node411</title>
<g id="a_node10"><a xlink:href="structJStudio_1_1TFunctionValueAttribute__range.html" target="_top" xlink:title=" ">
<polygon fill="white" stroke="black" points="526,-88.5 526,-118.5 685,-118.5 685,-88.5 526,-88.5"/>
<text text-anchor="start" x="534" y="-106.5" font-family="Helvetica,sans-Serif" font-size="10.00">JStudio::TFunctionValueAttribute</text>
<text text-anchor="middle" x="605.5" y="-95.5" font-family="Helvetica,sans-Serif" font-size="10.00">_range</text>
</a>
</g>
</g>
<!-- Node411&#45;&gt;Node4 -->
<g id="edge11" class="edge">
<title>Node411&#45;&gt;Node4</title>
<path fill="none" stroke="midnightblue" d="M672.5,-121.12C692.57,-126.48 714.44,-132.32 733.8,-137.49"/>
<polygon fill="midnightblue" stroke="midnightblue" points="673.37,-117.73 662.8,-118.53 671.56,-124.5 673.37,-117.73"/>
</g>
<!-- Node411&#45;&gt;Node5 -->
<g id="edge12" class="edge">
<title>Node411&#45;&gt;Node5</title>
<path fill="none" stroke="midnightblue" d="M679.05,-86.1C703.34,-80.28 729.51,-74 750.33,-69.01"/>
<polygon fill="midnightblue" stroke="midnightblue" points="678.05,-82.75 669.14,-88.48 679.68,-89.55 678.05,-82.75"/>
</g>
<!-- Node411&#45;&gt;Node6 -->
<g id="edge13" class="edge">
<title>Node411&#45;&gt;Node6</title>
<path fill="none" stroke="midnightblue" d="M695.36,-103.5C707.04,-103.5 718.79,-103.5 729.85,-103.5"/>
<polygon fill="midnightblue" stroke="midnightblue" points="695.12,-100 685.12,-103.5 695.12,-107 695.12,-100"/>
</g>
<!-- Node411&#45;&gt;Node7 -->
<g id="edge14" class="edge">
<title>Node411&#45;&gt;Node7</title>
<path fill="none" stroke="midnightblue" d="M674.58,-84.27C678.19,-82.5 681.69,-80.58 685,-78.5 704.71,-66.14 701.54,-53.25 721,-40.5 726.76,-36.73 733.15,-33.44 739.66,-30.59"/>
<polygon fill="midnightblue" stroke="midnightblue" points="673.11,-81.09 665.42,-88.37 675.98,-87.48 673.11,-81.09"/>
</g>
<!-- Node415 -->
<g id="node11" class="node">
<title>Node415</title>
<g id="a_node11"><a xlink:href="classJStudio_1_1object_1_1TIDData.html" target="_top" xlink:title=" ">
<polygon fill="white" stroke="black" points="355,-424 355,-443 476,-443 476,-424 355,-424"/>
<text text-anchor="middle" x="415.5" y="-431" font-family="Helvetica,sans-Serif" font-size="10.00">JStudio::object::TIDData</text>
</a>
</g>
</g>
<!-- Node416 -->
<g id="node12" class="node">
<title>Node416</title>
<g id="a_node12"><a xlink:href="structJStudio_1_1object_1_1TObject__ID.html" target="_top" xlink:title=" ">
<polygon fill="white" stroke="black" points="538.5,-424 538.5,-443 672.5,-443 672.5,-424 538.5,-424"/>
<text text-anchor="middle" x="605.5" y="-431" font-family="Helvetica,sans-Serif" font-size="10.00">JStudio::object::TObject_ID</text>
</a>
</g>
</g>
<!-- Node415&#45;&gt;Node416 -->
<g id="edge15" class="edge">
<title>Node415&#45;&gt;Node416</title>
<path fill="none" stroke="midnightblue" d="M486.63,-433.5C503.58,-433.5 521.63,-433.5 538.39,-433.5"/>
<polygon fill="midnightblue" stroke="midnightblue" points="486.24,-430 476.24,-433.5 486.24,-437 486.24,-430"/>
</g>
<!-- Node417 -->
<g id="node13" class="node">
<title>Node417</title>
<g id="a_node13"><a xlink:href="structJStudio_1_1fvb_1_1TObject.html" target="_top" xlink:title=" ">
<polygon fill="white" stroke="black" points="737.5,-378 737.5,-397 844.5,-397 844.5,-378 737.5,-378"/>
<text text-anchor="middle" x="791" y="-385" font-family="Helvetica,sans-Serif" font-size="10.00">JStudio::fvb::TObject</text>
</a>
</g>
</g>
<!-- Node416&#45;&gt;Node417 -->
<g id="edge16" class="edge">
<title>Node416&#45;&gt;Node417</title>
<path fill="none" stroke="midnightblue" d="M654.49,-421.47C684.93,-413.84 723.74,-404.11 752.03,-397.02"/>
<polygon fill="midnightblue" stroke="midnightblue" points="653.37,-418.14 644.52,-423.97 655.07,-424.93 653.37,-418.14"/>
</g>
<!-- Node423 -->
<g id="node19" class="node">
<title>Node423</title>
<g id="a_node19"><a xlink:href="classJStudio_1_1stb_1_1TObject.html" target="_top" xlink:title=" ">
<polygon fill="white" stroke="black" points="737.5,-471 737.5,-490 844.5,-490 844.5,-471 737.5,-471"/>
<text text-anchor="middle" x="791" y="-478" font-family="Helvetica,sans-Serif" font-size="10.00">JStudio::stb::TObject</text>
</a>
</g>
</g>
<!-- Node416&#45;&gt;Node423 -->
<g id="edge23" class="edge">
<title>Node416&#45;&gt;Node423</title>
<path fill="none" stroke="midnightblue" d="M653.7,-445.59C684.45,-453.47 724.03,-463.6 752.61,-470.92"/>
<polygon fill="midnightblue" stroke="midnightblue" points="654.19,-442.1 643.63,-443.01 652.45,-448.88 654.19,-442.1"/>
</g>
<!-- Node417&#45;&gt;Node2 -->
<g id="edge17" class="edge">
<title>Node417&#45;&gt;Node2</title>
<path fill="none" stroke="midnightblue" d="M804.88,-369.49C823.02,-345.26 858.23,-302.13 897,-275.5 902.42,-271.78 908.47,-268.48 914.61,-265.59"/>
<polygon fill="midnightblue" stroke="midnightblue" points="801.89,-367.65 798.8,-377.78 807.54,-371.79 801.89,-367.65"/>
</g>
<!-- Node418 -->
<g id="node14" class="node">
<title>Node418</title>
<g id="a_node14"><a xlink:href="structJStudio_1_1fvb_1_1TObject__constant.html" target="_top" xlink:title=" ">
<polygon fill="white" stroke="black" points="906,-372.5 906,-402.5 1013,-402.5 1013,-372.5 906,-372.5"/>
<text text-anchor="start" x="914" y="-390.5" font-family="Helvetica,sans-Serif" font-size="10.00">JStudio::fvb::TObject</text>
<text text-anchor="middle" x="959.5" y="-379.5" font-family="Helvetica,sans-Serif" font-size="10.00">_constant</text>
</a>
</g>
</g>
<!-- Node417&#45;&gt;Node418 -->
<g id="edge18" class="edge">
<title>Node417&#45;&gt;Node418</title>
<path fill="none" stroke="midnightblue" d="M854.96,-387.5C871.74,-387.5 889.71,-387.5 905.88,-387.5"/>
<polygon fill="midnightblue" stroke="midnightblue" points="854.68,-384 844.68,-387.5 854.68,-391 854.68,-384"/>
</g>
<!-- Node419 -->
<g id="node15" class="node">
<title>Node419</title>
<g id="a_node15"><a xlink:href="structJStudio_1_1fvb_1_1TObject__hermite.html" target="_top" xlink:title=" ">
<polygon fill="white" stroke="black" points="906,-323.5 906,-353.5 1013,-353.5 1013,-323.5 906,-323.5"/>
<text text-anchor="start" x="914" y="-341.5" font-family="Helvetica,sans-Serif" font-size="10.00">JStudio::fvb::TObject</text>
<text text-anchor="middle" x="959.5" y="-330.5" font-family="Helvetica,sans-Serif" font-size="10.00">_hermite</text>
</a>
</g>
</g>
<!-- Node417&#45;&gt;Node419 -->
<g id="edge19" class="edge">
<title>Node417&#45;&gt;Node419</title>
<path fill="none" stroke="midnightblue" d="M834.32,-375.05C856.56,-368.5 883.99,-360.43 907.41,-353.54"/>
<polygon fill="midnightblue" stroke="midnightblue" points="833.1,-371.76 824.5,-377.94 835.08,-378.47 833.1,-371.76"/>
</g>
<!-- Node420 -->
<g id="node16" class="node">
<title>Node420</title>
<g id="a_node16"><a xlink:href="structJStudio_1_1fvb_1_1TObject__list.html" target="_top" xlink:title=" ">
<polygon fill="white" stroke="black" points="897,-285 897,-304 1022,-304 1022,-285 897,-285"/>
<text text-anchor="middle" x="959.5" y="-292" font-family="Helvetica,sans-Serif" font-size="10.00">JStudio::fvb::TObject_list</text>
</a>
</g>
</g>
<!-- Node417&#45;&gt;Node420 -->
<g id="edge20" class="edge">
<title>Node417&#45;&gt;Node420</title>
<path fill="none" stroke="midnightblue" d="M811.09,-371.63C831.35,-355.44 864.81,-330.49 897,-314.5 905.15,-310.45 914.29,-306.97 922.99,-304.09"/>
<polygon fill="midnightblue" stroke="midnightblue" points="808.82,-368.97 803.26,-377.99 813.23,-374.4 808.82,-368.97"/>
</g>
<!-- Node421 -->
<g id="node17" class="node">
<title>Node421</title>
<g id="a_node17"><a xlink:href="structJStudio_1_1fvb_1_1TObject__list__parameter.html" target="_top" xlink:title=" ">
<polygon fill="white" stroke="black" points="906,-470.5 906,-500.5 1013,-500.5 1013,-470.5 906,-470.5"/>
<text text-anchor="start" x="914" y="-488.5" font-family="Helvetica,sans-Serif" font-size="10.00">JStudio::fvb::TObject</text>
<text text-anchor="middle" x="959.5" y="-477.5" font-family="Helvetica,sans-Serif" font-size="10.00">_list_parameter</text>
</a>
</g>
</g>
<!-- Node417&#45;&gt;Node421 -->
<g id="edge21" class="edge">
<title>Node417&#45;&gt;Node421</title>
<path fill="none" stroke="midnightblue" d="M811.58,-403.49C831.99,-419.62 865.37,-444.51 897,-461.5 902.96,-464.7 909.43,-467.7 915.88,-470.42"/>
<polygon fill="midnightblue" stroke="midnightblue" points="813.66,-400.67 803.67,-397.16 809.29,-406.14 813.66,-400.67"/>
</g>
<!-- Node422 -->
<g id="node18" class="node">
<title>Node422</title>
<g id="a_node18"><a xlink:href="structJStudio_1_1fvb_1_1TObject__transition.html" target="_top" xlink:title=" ">
<polygon fill="white" stroke="black" points="906,-421.5 906,-451.5 1013,-451.5 1013,-421.5 906,-421.5"/>
<text text-anchor="start" x="914" y="-439.5" font-family="Helvetica,sans-Serif" font-size="10.00">JStudio::fvb::TObject</text>
<text text-anchor="middle" x="959.5" y="-428.5" font-family="Helvetica,sans-Serif" font-size="10.00">_transition</text>
</a>
</g>
</g>
<!-- Node417&#45;&gt;Node422 -->
<g id="edge22" class="edge">
<title>Node417&#45;&gt;Node422</title>
<path fill="none" stroke="midnightblue" d="M834.32,-399.95C856.56,-406.5 883.99,-414.57 907.41,-421.46"/>
<polygon fill="midnightblue" stroke="midnightblue" points="835.08,-396.53 824.5,-397.06 833.1,-403.24 835.08,-396.53"/>
</g>
<!-- Node424 -->
<g id="node20" class="node">
<title>Node424</title>
<g id="a_node20"><a xlink:href="classJStudio_1_1stb_1_1TObject__control.html" target="_top" xlink:title=" ">
<polygon fill="white" stroke="black" points="906,-519.5 906,-549.5 1013,-549.5 1013,-519.5 906,-519.5"/>
<text text-anchor="start" x="914" y="-537.5" font-family="Helvetica,sans-Serif" font-size="10.00">JStudio::stb::TObject</text>
<text text-anchor="middle" x="959.5" y="-526.5" font-family="Helvetica,sans-Serif" font-size="10.00">_control</text>
</a>
</g>
</g>
<!-- Node423&#45;&gt;Node424 -->
<g id="edge24" class="edge">
<title>Node423&#45;&gt;Node424</title>
<path fill="none" stroke="midnightblue" d="M830.98,-493.14C855.24,-501.01 886.59,-511.18 912.13,-519.46"/>
<polygon fill="midnightblue" stroke="midnightblue" points="831.98,-489.79 821.38,-490.03 829.82,-496.44 831.98,-489.79"/>
</g>
<!-- Node450 -->
<g id="node21" class="node">
<title>Node450</title>
<g id="a_node21"><a xlink:href="structJGadget_1_1TVector.html" target="_top" xlink:title=" ">
<polygon fill="white" stroke="black" points="0,-257.5 0,-287.5 119,-287.5 119,-257.5 0,-257.5"/>
<text text-anchor="start" x="8" y="-275.5" font-family="Helvetica,sans-Serif" font-size="10.00">JGadget::TVector&lt; void</text>
<text text-anchor="middle" x="59.5" y="-264.5" font-family="Helvetica,sans-Serif" font-size="10.00"> *, TAllocator &gt;</text>
</a>
</g>
</g>
<!-- Node451 -->
<g id="node22" class="node">
<title>Node451</title>
<g id="a_node22"><a xlink:href="structJGadget_1_1TVector__pointer__void.html" target="_top" xlink:title=" ">
<polygon fill="white" stroke="black" points="155,-263 155,-282 305,-282 305,-263 155,-263"/>
<text text-anchor="middle" x="230" y="-270" font-family="Helvetica,sans-Serif" font-size="10.00">JGadget::TVector_pointer_void</text>
</a>
</g>
</g>
<!-- Node450&#45;&gt;Node451 -->
<g id="edge25" class="edge">
<title>Node450&#45;&gt;Node451</title>
<path fill="none" stroke="midnightblue" d="M129.54,-272.5C137.93,-272.5 146.53,-272.5 154.99,-272.5"/>
<polygon fill="midnightblue" stroke="midnightblue" points="129.43,-269 119.43,-272.5 129.43,-276 129.43,-269"/>
</g>
<!-- Node452 -->
<g id="node23" class="node">
<title>Node452</title>
<g id="a_node23"><a xlink:href="structJGadget_1_1TVector__pointer.html" target="_top" xlink:title=" ">
<polygon fill="white" stroke="black" points="352,-235.5 352,-265.5 479,-265.5 479,-235.5 352,-235.5"/>
<text text-anchor="start" x="360" y="-253.5" font-family="Helvetica,sans-Serif" font-size="10.00">JGadget::TVector_pointer</text>
<text text-anchor="middle" x="415.5" y="-242.5" font-family="Helvetica,sans-Serif" font-size="10.00">&lt; TFunctionValue * &gt;</text>
</a>
</g>
</g>
<!-- Node451&#45;&gt;Node452 -->
<g id="edge26" class="edge">
<title>Node451&#45;&gt;Node452</title>
<path fill="none" stroke="midnightblue" d="M315.37,-262.38C327.66,-260.91 340.13,-259.42 351.89,-258.01"/>
<polygon fill="midnightblue" stroke="midnightblue" points="314.62,-258.95 305.11,-263.62 315.45,-265.9 314.62,-258.95"/>
</g>
<!-- Node454 -->
<g id="node25" class="node">
<title>Node454</title>
<g id="a_node25"><a xlink:href="structJGadget_1_1TVector__pointer.html" target="_top" xlink:title=" ">
<polygon fill="white" stroke="black" points="341,-285 341,-304 490,-304 490,-285 341,-285"/>
<text text-anchor="middle" x="415.5" y="-292" font-family="Helvetica,sans-Serif" font-size="10.00">JGadget::TVector_pointer&lt; T &gt;</text>
</a>
</g>
</g>
<!-- Node451&#45;&gt;Node454 -->
<g id="edge29" class="edge">
<title>Node451&#45;&gt;Node454</title>
<path fill="none" stroke="midnightblue" d="M315.09,-282.58C323.64,-283.61 332.28,-284.64 340.71,-285.65"/>
<polygon fill="midnightblue" stroke="midnightblue" points="315.45,-279.1 305.11,-281.38 314.62,-286.05 315.45,-279.1"/>
</g>
<!-- Node453 -->
<g id="node24" class="node">
<title>Node453</title>
<g id="a_node24"><a xlink:href="structJStudio_1_1TFunctionValueAttribute__refer.html" target="_top" xlink:title=" ">
<polygon fill="white" stroke="black" points="526,-235.5 526,-265.5 685,-265.5 685,-235.5 526,-235.5"/>
<text text-anchor="start" x="534" y="-253.5" font-family="Helvetica,sans-Serif" font-size="10.00">JStudio::TFunctionValueAttribute</text>
<text text-anchor="middle" x="605.5" y="-242.5" font-family="Helvetica,sans-Serif" font-size="10.00">_refer</text>
</a>
</g>
</g>
<!-- Node452&#45;&gt;Node453 -->
<g id="edge27" class="edge">
<title>Node452&#45;&gt;Node453</title>
<path fill="none" stroke="midnightblue" d="M489.43,-250.5C501.34,-250.5 513.74,-250.5 525.78,-250.5"/>
<polygon fill="midnightblue" stroke="midnightblue" points="489.1,-247 479.1,-250.5 489.1,-254 489.1,-247"/>
</g>
<!-- Node453&#45;&gt;Node1 -->
<g id="edge28" class="edge">
<title>Node453&#45;&gt;Node1</title>
<path fill="none" stroke="midnightblue" d="M695.36,-250.5C707.04,-250.5 718.79,-250.5 729.85,-250.5"/>
<polygon fill="midnightblue" stroke="midnightblue" points="695.12,-247 685.12,-250.5 695.12,-254 695.12,-247"/>
</g>
</g>
</svg>
