<?xml version="1.0" encoding="UTF-8" standalone="no"?>
<!DOCTYPE svg PUBLIC "-//W3C//DTD SVG 1.1//EN"
 "http://www.w3.org/Graphics/SVG/1.1/DTD/svg11.dtd">
<!-- Generated by graphviz version 2.46.0 (20210122.1329)
 -->
<!-- Title: include/JSystem/J2DGraph/J2DAnimation.h Pages: 1 -->
<svg width="263pt" height="151pt"
 viewBox="0.00 0.00 263.00 151.00" xmlns="http://www.w3.org/2000/svg" xmlns:xlink="http://www.w3.org/1999/xlink">
<g id="graph0" class="graph" transform="scale(1 1) rotate(0) translate(4 147)">
<title>include/JSystem/J2DGraph/J2DAnimation.h</title>
<polygon fill="white" stroke="transparent" points="-4,4 -4,-147 259,-147 259,4 -4,4"/>
<!-- Node1 -->
<g id="node1" class="node">
<title>Node1</title>
<g id="a_node1"><a xlink:title=" ">
<polygon fill="#bfbfbf" stroke="black" points="60,-112.5 60,-142.5 195,-142.5 195,-112.5 60,-112.5"/>
<text text-anchor="start" x="68" y="-130.5" font-family="Helvetica,sans-Serif" font-size="10.00">include/JSystem/J2DGraph</text>
<text text-anchor="middle" x="127.5" y="-119.5" font-family="Helvetica,sans-Serif" font-size="10.00">/J2DAnimation.h</text>
</a>
</g>
</g>
<!-- Node2 -->
<g id="node2" class="node">
<title>Node2</title>
<g id="a_node2"><a xlink:href="J2DSys_8h.html" target="_top" xlink:title=" ">
<polygon fill="white" stroke="black" points="0,-56.5 0,-75.5 99,-75.5 99,-56.5 0,-56.5"/>
<text text-anchor="middle" x="49.5" y="-63.5" font-family="Helvetica,sans-Serif" font-size="10.00">JSystem/J2DSys.h</text>
</a>
</g>
</g>
<!-- Node1&#45;&gt;Node2 -->
<g id="edge1" class="edge">
<title>Node1&#45;&gt;Node2</title>
<path fill="none" stroke="midnightblue" d="M109.02,-112.4C96.98,-103.22 81.3,-91.26 69.06,-81.92"/>
<polygon fill="midnightblue" stroke="midnightblue" points="70.92,-78.94 60.85,-75.66 66.68,-84.51 70.92,-78.94"/>
</g>
<!-- Node3 -->
<g id="node3" class="node">
<title>Node3</title>
<g id="a_node3"><a xlink:href="types_8h.html" target="_top" xlink:title=" ">
<polygon fill="white" stroke="black" points="87,-0.5 87,-19.5 168,-19.5 168,-0.5 87,-0.5"/>
<text text-anchor="middle" x="127.5" y="-7.5" font-family="Helvetica,sans-Serif" font-size="10.00">dolphin/types.h</text>
</a>
</g>
</g>
<!-- Node1&#45;&gt;Node3 -->
<g id="edge5" class="edge">
<title>Node1&#45;&gt;Node3</title>
<path fill="none" stroke="midnightblue" d="M127.5,-112.34C127.5,-91.62 127.5,-53.02 127.5,-29.9"/>
<polygon fill="midnightblue" stroke="midnightblue" points="131,-29.67 127.5,-19.67 124,-29.67 131,-29.67"/>
</g>
<!-- Node4 -->
<g id="node4" class="node">
<title>Node4</title>
<g id="a_node4"><a xlink:href="J3DSys_8h.html" target="_top" xlink:title=" ">
<polygon fill="white" stroke="black" points="156,-56.5 156,-75.5 255,-75.5 255,-56.5 156,-56.5"/>
<text text-anchor="middle" x="205.5" y="-63.5" font-family="Helvetica,sans-Serif" font-size="10.00">JSystem/J3DSys.h</text>
</a>
</g>
</g>
<!-- Node1&#45;&gt;Node4 -->
<g id="edge3" class="edge">
<title>Node1&#45;&gt;Node4</title>
<path fill="none" stroke="midnightblue" d="M145.98,-112.4C158.02,-103.22 173.7,-91.26 185.94,-81.92"/>
<polygon fill="midnightblue" stroke="midnightblue" points="188.32,-84.51 194.15,-75.66 184.08,-78.94 188.32,-84.51"/>
</g>
<!-- Node2&#45;&gt;Node3 -->
<g id="edge2" class="edge">
<title>Node2&#45;&gt;Node3</title>
<path fill="none" stroke="midnightblue" d="M62.03,-56.32C74.09,-47.98 92.53,-35.21 106.77,-25.35"/>
<polygon fill="midnightblue" stroke="midnightblue" points="108.77,-28.22 115,-19.65 104.78,-22.47 108.77,-28.22"/>
</g>
<!-- Node4&#45;&gt;Node3 -->
<g id="edge4" class="edge">
<title>Node4&#45;&gt;Node3</title>
<path fill="none" stroke="midnightblue" d="M192.97,-56.32C180.91,-47.98 162.47,-35.21 148.23,-25.35"/>
<polygon fill="midnightblue" stroke="midnightblue" points="150.22,-22.47 140,-19.65 146.23,-28.22 150.22,-22.47"/>
</g>
</g>
</svg>
