<?xml version="1.0" encoding="UTF-8" standalone="no"?>
<!DOCTYPE svg PUBLIC "-//W3C//DTD SVG 1.1//EN"
 "http://www.w3.org/Graphics/SVG/1.1/DTD/svg11.dtd">
<!-- Generated by graphviz version 2.46.0 (20210122.1329)
 -->
<!-- Title: include/JSystem/J2DGraph/J2DScreen.h Pages: 1 -->
<svg width="3876pt" height="396pt"
 viewBox="0.00 0.00 3876.00 396.00" xmlns="http://www.w3.org/2000/svg" xmlns:xlink="http://www.w3.org/1999/xlink">
<g id="graph0" class="graph" transform="scale(1 1) rotate(0) translate(4 392)">
<title>include/JSystem/J2DGraph/J2DScreen.h</title>
<polygon fill="white" stroke="transparent" points="-4,4 -4,-392 3872,-392 3872,4 -4,4"/>
<!-- Node1 -->
<g id="node1" class="node">
<title>Node1</title>
<g id="a_node1"><a xlink:title=" ">
<polygon fill="#bfbfbf" stroke="black" points="1897,-357.5 1897,-387.5 2032,-387.5 2032,-357.5 1897,-357.5"/>
<text text-anchor="start" x="1905" y="-375.5" font-family="Helvetica,sans-Serif" font-size="10.00">include/JSystem/J2DGraph</text>
<text text-anchor="middle" x="1964.5" y="-364.5" font-family="Helvetica,sans-Serif" font-size="10.00">/J2DScreen.h</text>
</a>
</g>
</g>
<!-- Node2 -->
<g id="node2" class="node">
<title>Node2</title>
<g id="a_node2"><a xlink:href="d__file__sel__info_8h.html" target="_top" xlink:title=" ">
<polygon fill="white" stroke="black" points="1786.5,-134.5 1786.5,-175.5 1884.5,-175.5 1884.5,-134.5 1786.5,-134.5"/>
<text text-anchor="start" x="1794.5" y="-163.5" font-family="Helvetica,sans-Serif" font-size="10.00">include/d/d_file/d</text>
<text text-anchor="start" x="1794.5" y="-152.5" font-family="Helvetica,sans-Serif" font-size="10.00">_file_sel_info/d_file</text>
<text text-anchor="middle" x="1835.5" y="-141.5" font-family="Helvetica,sans-Serif" font-size="10.00">_sel_info.h</text>
</a>
</g>
</g>
<!-- Node1&#45;&gt;Node2 -->
<g id="edge1" class="edge">
<title>Node1&#45;&gt;Node2</title>
<path fill="none" stroke="midnightblue" d="M1927.7,-352.06C1915.09,-343.89 1901.83,-333.38 1892.5,-321 1858.39,-275.74 1843.7,-208.56 1838.26,-175.64"/>
<polygon fill="midnightblue" stroke="midnightblue" points="1925.91,-355.07 1936.26,-357.34 1929.58,-349.11 1925.91,-355.07"/>
</g>
<!-- Node4 -->
<g id="node4" class="node">
<title>Node4</title>
<g id="a_node4"><a xlink:href="d__meter2__info_8h.html" target="_top" xlink:title=" ">
<polygon fill="white" stroke="black" points="1902,-279.5 1902,-320.5 2027,-320.5 2027,-279.5 1902,-279.5"/>
<text text-anchor="start" x="1910" y="-308.5" font-family="Helvetica,sans-Serif" font-size="10.00">include/d/d_meter2</text>
<text text-anchor="start" x="1910" y="-297.5" font-family="Helvetica,sans-Serif" font-size="10.00">/d_meter2_info/d_meter2</text>
<text text-anchor="middle" x="1964.5" y="-286.5" font-family="Helvetica,sans-Serif" font-size="10.00">_info.h</text>
</a>
</g>
</g>
<!-- Node1&#45;&gt;Node4 -->
<g id="edge3" class="edge">
<title>Node1&#45;&gt;Node4</title>
<path fill="none" stroke="midnightblue" d="M1964.5,-346.98C1964.5,-338.35 1964.5,-328.76 1964.5,-320.59"/>
<polygon fill="midnightblue" stroke="midnightblue" points="1961,-347.23 1964.5,-357.23 1968,-347.23 1961,-347.23"/>
</g>
<!-- Node39 -->
<g id="node39" class="node">
<title>Node39</title>
<g id="a_node39"><a xlink:href="J2DPane_8h.html" target="_top" xlink:title=" ">
<polygon fill="white" stroke="black" points="2045,-285 2045,-315 2180,-315 2180,-285 2045,-285"/>
<text text-anchor="start" x="2053" y="-303" font-family="Helvetica,sans-Serif" font-size="10.00">include/JSystem/J2DGraph</text>
<text text-anchor="middle" x="2112.5" y="-292" font-family="Helvetica,sans-Serif" font-size="10.00">/J2DPane.h</text>
</a>
</g>
</g>
<!-- Node1&#45;&gt;Node39 -->
<g id="edge48" class="edge">
<title>Node1&#45;&gt;Node39</title>
<path fill="none" stroke="midnightblue" d="M2003.27,-353.03C2028.2,-341.16 2060.08,-325.97 2082.96,-315.07"/>
<polygon fill="midnightblue" stroke="midnightblue" points="2001.62,-349.94 1994.09,-357.4 2004.63,-356.26 2001.62,-349.94"/>
</g>
<!-- Node3 -->
<g id="node3" class="node">
<title>Node3</title>
<g id="a_node3"><a xlink:href="d__file__sel__info_8cpp.html" target="_top" xlink:title=" ">
<polygon fill="white" stroke="black" points="0,-67.5 0,-97.5 89,-97.5 89,-67.5 0,-67.5"/>
<text text-anchor="start" x="8" y="-85.5" font-family="Helvetica,sans-Serif" font-size="10.00">src/d/d_file/d_file</text>
<text text-anchor="middle" x="44.5" y="-74.5" font-family="Helvetica,sans-Serif" font-size="10.00">_sel_info.cpp</text>
</a>
</g>
</g>
<!-- Node2&#45;&gt;Node3 -->
<g id="edge2" class="edge">
<title>Node2&#45;&gt;Node3</title>
<path fill="none" stroke="midnightblue" d="M1776.08,-153.96C1510.62,-153.47 431.67,-148.38 97.5,-98 94.76,-97.59 91.97,-97.08 89.16,-96.51"/>
<polygon fill="midnightblue" stroke="midnightblue" points="1776.27,-157.46 1786.28,-153.97 1776.29,-150.46 1776.27,-157.46"/>
</g>
<!-- Node5 -->
<g id="node5" class="node">
<title>Node5</title>
<g id="a_node5"><a xlink:href="d__save_8h.html" target="_top" xlink:title=" ">
<polygon fill="white" stroke="black" points="1926.5,-212.5 1926.5,-242.5 2024.5,-242.5 2024.5,-212.5 1926.5,-212.5"/>
<text text-anchor="start" x="1934.5" y="-230.5" font-family="Helvetica,sans-Serif" font-size="10.00">include/d/d_save/d</text>
<text text-anchor="middle" x="1975.5" y="-219.5" font-family="Helvetica,sans-Serif" font-size="10.00">_save/d_save.h</text>
</a>
</g>
</g>
<!-- Node4&#45;&gt;Node5 -->
<g id="edge4" class="edge">
<title>Node4&#45;&gt;Node5</title>
<path fill="none" stroke="midnightblue" d="M1969.12,-269.38C1970.55,-260.21 1972.06,-250.53 1973.25,-242.89"/>
<polygon fill="midnightblue" stroke="midnightblue" points="1965.65,-268.94 1967.56,-279.36 1972.56,-270.02 1965.65,-268.94"/>
</g>
<!-- Node5&#45;&gt;Node2 -->
<g id="edge47" class="edge">
<title>Node5&#45;&gt;Node2</title>
<path fill="none" stroke="midnightblue" d="M1938.48,-207.86C1918.7,-197.9 1894.36,-185.64 1874.32,-175.55"/>
<polygon fill="midnightblue" stroke="midnightblue" points="1937,-211.03 1947.51,-212.4 1940.15,-204.78 1937,-211.03"/>
</g>
<!-- Node6 -->
<g id="node6" class="node">
<title>Node6</title>
<g id="a_node6"><a xlink:href="d__save_8cpp.html" target="_top" xlink:title=" ">
<polygon fill="white" stroke="black" points="3743,-73 3743,-92 3868,-92 3868,-73 3743,-73"/>
<text text-anchor="middle" x="3805.5" y="-80" font-family="Helvetica,sans-Serif" font-size="10.00">src/d/d_save/d_save.cpp</text>
</a>
</g>
</g>
<!-- Node5&#45;&gt;Node6 -->
<g id="edge5" class="edge">
<title>Node5&#45;&gt;Node6</title>
<path fill="none" stroke="midnightblue" d="M2034.68,-213.42C2037.99,-212.89 2041.28,-212.41 2044.5,-212 2384.34,-168.63 2472.64,-198.48 2814.5,-176 3223.97,-149.08 3328.33,-156.49 3734.5,-98 3745.33,-96.44 3757,-94.27 3767.69,-92.07"/>
<polygon fill="midnightblue" stroke="midnightblue" points="2033.97,-210 2024.71,-215.16 2035.16,-216.89 2033.97,-210"/>
</g>
<!-- Node7 -->
<g id="node7" class="node">
<title>Node7</title>
<g id="a_node7"><a xlink:href="d__a__alink_8h.html" target="_top" xlink:title=" ">
<polygon fill="white" stroke="black" points="3606,-67.5 3606,-97.5 3725,-97.5 3725,-67.5 3606,-67.5"/>
<text text-anchor="start" x="3614" y="-85.5" font-family="Helvetica,sans-Serif" font-size="10.00">include/d/d_a/d_a_alink</text>
<text text-anchor="middle" x="3665.5" y="-74.5" font-family="Helvetica,sans-Serif" font-size="10.00">/d_a_alink.h</text>
</a>
</g>
</g>
<!-- Node5&#45;&gt;Node7 -->
<g id="edge6" class="edge">
<title>Node5&#45;&gt;Node7</title>
<path fill="none" stroke="midnightblue" d="M2034.69,-213.53C2038,-212.97 2041.29,-212.45 2044.5,-212 2726.7,-115.61 2907.54,-188.88 3590.5,-98 3595.5,-97.34 3600.66,-96.55 3605.83,-95.69"/>
<polygon fill="midnightblue" stroke="midnightblue" points="2033.96,-210.1 2024.73,-215.32 2035.2,-216.99 2033.96,-210.1"/>
</g>
<!-- Node11 -->
<g id="node11" class="node">
<title>Node11</title>
<g id="a_node11"><a xlink:href="d__com__inf__game_8h.html" target="_top" xlink:title=" ">
<polygon fill="white" stroke="black" points="1902.5,-140 1902.5,-170 2048.5,-170 2048.5,-140 1902.5,-140"/>
<text text-anchor="start" x="1910.5" y="-158" font-family="Helvetica,sans-Serif" font-size="10.00">include/d/d_com/d_com</text>
<text text-anchor="middle" x="1975.5" y="-147" font-family="Helvetica,sans-Serif" font-size="10.00">_inf_game/d_com_inf_game.h</text>
</a>
</g>
</g>
<!-- Node5&#45;&gt;Node11 -->
<g id="edge11" class="edge">
<title>Node5&#45;&gt;Node11</title>
<path fill="none" stroke="midnightblue" d="M1975.5,-202.23C1975.5,-191.57 1975.5,-179.41 1975.5,-170.25"/>
<polygon fill="midnightblue" stroke="midnightblue" points="1972,-202.23 1975.5,-212.23 1979,-202.23 1972,-202.23"/>
</g>
<!-- Node8 -->
<g id="node8" class="node">
<title>Node8</title>
<g id="a_node8"><a xlink:href="d__attention_8cpp.html" target="_top" xlink:title=" ">
<polygon fill="white" stroke="black" points="3595,-6 3595,-25 3702,-25 3702,-6 3595,-6"/>
<text text-anchor="middle" x="3648.5" y="-13" font-family="Helvetica,sans-Serif" font-size="10.00">src/d/d_attention.cpp</text>
</a>
</g>
</g>
<!-- Node7&#45;&gt;Node8 -->
<g id="edge7" class="edge">
<title>Node7&#45;&gt;Node8</title>
<path fill="none" stroke="midnightblue" d="M3659.25,-57.6C3656.29,-46.28 3652.94,-33.46 3650.77,-25.19"/>
<polygon fill="midnightblue" stroke="midnightblue" points="3655.89,-58.61 3661.81,-67.4 3662.67,-56.84 3655.89,-58.61"/>
</g>
<!-- Node9 -->
<g id="node9" class="node">
<title>Node9</title>
<g id="a_node9"><a xlink:href="d__a__alink_8cpp.html" target="_top" xlink:title=" ">
<polygon fill="white" stroke="black" points="3458,-6 3458,-25 3577,-25 3577,-6 3458,-6"/>
<text text-anchor="middle" x="3517.5" y="-13" font-family="Helvetica,sans-Serif" font-size="10.00">src/d/d_a/d_a_alink.cpp</text>
</a>
</g>
</g>
<!-- Node7&#45;&gt;Node9 -->
<g id="edge8" class="edge">
<title>Node7&#45;&gt;Node9</title>
<path fill="none" stroke="midnightblue" d="M3624.05,-63.3C3595.51,-50.76 3558.9,-34.68 3536.87,-25.01"/>
<polygon fill="midnightblue" stroke="midnightblue" points="3622.82,-66.58 3633.39,-67.4 3625.64,-60.17 3622.82,-66.58"/>
</g>
<!-- Node10 -->
<g id="node10" class="node">
<title>Node10</title>
<g id="a_node10"><a xlink:href="d__a__player_8h.html" target="_top" xlink:title=" ">
<polygon fill="white" stroke="black" points="3720.5,-0.5 3720.5,-30.5 3844.5,-30.5 3844.5,-0.5 3720.5,-0.5"/>
<text text-anchor="start" x="3728.5" y="-18.5" font-family="Helvetica,sans-Serif" font-size="10.00">include/d/d_a/d_a_player</text>
<text text-anchor="middle" x="3782.5" y="-7.5" font-family="Helvetica,sans-Serif" font-size="10.00">/d_a_player.h</text>
</a>
</g>
</g>
<!-- Node7&#45;&gt;Node10 -->
<g id="edge9" class="edge">
<title>Node7&#45;&gt;Node10</title>
<path fill="none" stroke="midnightblue" d="M3693.85,-62.3C3711.3,-52.12 3733.57,-39.85 3751.49,-30.58"/>
<polygon fill="midnightblue" stroke="midnightblue" points="3692.04,-59.3 3685.21,-67.4 3695.6,-65.33 3692.04,-59.3"/>
</g>
<!-- Node10&#45;&gt;Node7 -->
<g id="edge10" class="edge">
<title>Node10&#45;&gt;Node7</title>
<path fill="none" stroke="midnightblue" d="M3754.2,-35.67C3736.76,-45.84 3714.5,-58.11 3696.57,-67.4"/>
<polygon fill="midnightblue" stroke="midnightblue" points="3756.01,-38.68 3762.84,-30.58 3752.45,-32.65 3756.01,-38.68"/>
</g>
<!-- Node11&#45;&gt;Node3 -->
<g id="edge15" class="edge">
<title>Node11&#45;&gt;Node3</title>
<path fill="none" stroke="midnightblue" d="M1915.55,-137.78C1908.17,-136.26 1900.69,-134.94 1893.5,-134 1497.66,-82.39 492.59,-155.11 97.5,-98 94.76,-97.6 91.96,-97.11 89.16,-96.55"/>
<polygon fill="midnightblue" stroke="midnightblue" points="1915.01,-141.25 1925.52,-139.97 1916.51,-134.41 1915.01,-141.25"/>
</g>
<!-- Node11&#45;&gt;Node6 -->
<g id="edge29" class="edge">
<title>Node11&#45;&gt;Node6</title>
<path fill="none" stroke="midnightblue" d="M2058.82,-153.22C2361.7,-150.1 3403.88,-136.74 3734.5,-98 3746,-96.65 3758.4,-94.4 3769.57,-92.07"/>
<polygon fill="midnightblue" stroke="midnightblue" points="2058.75,-149.72 2048.79,-153.32 2058.82,-156.72 2058.75,-149.72"/>
</g>
<!-- Node11&#45;&gt;Node7 -->
<g id="edge40" class="edge">
<title>Node11&#45;&gt;Node7</title>
<path fill="none" stroke="midnightblue" d="M2058.96,-151.89C2368.24,-143.95 3439.05,-115.47 3591.5,-98 3596.18,-97.46 3601.01,-96.79 3605.85,-96.03"/>
<polygon fill="midnightblue" stroke="midnightblue" points="2058.62,-148.39 2048.72,-152.15 2058.8,-155.39 2058.62,-148.39"/>
</g>
<!-- Node11&#45;&gt;Node8 -->
<g id="edge12" class="edge">
<title>Node11&#45;&gt;Node8</title>
<path fill="none" stroke="midnightblue" d="M2058.86,-151.82C2380.35,-143.34 3523.48,-112.22 3558.5,-98 3568.41,-93.98 3619.2,-45.09 3639.8,-25.02"/>
<polygon fill="midnightblue" stroke="midnightblue" points="2058.59,-148.33 2048.68,-152.09 2058.77,-155.33 2058.59,-148.33"/>
</g>
<!-- Node12 -->
<g id="node12" class="node">
<title>Node12</title>
<g id="a_node12"><a xlink:href="d__camera_8cpp.html" target="_top" xlink:title=" ">
<polygon fill="white" stroke="black" points="106.5,-73 106.5,-92 208.5,-92 208.5,-73 106.5,-73"/>
<text text-anchor="middle" x="157.5" y="-80" font-family="Helvetica,sans-Serif" font-size="10.00">src/d/d_camera.cpp</text>
</a>
</g>
</g>
<!-- Node11&#45;&gt;Node12 -->
<g id="edge13" class="edge">
<title>Node11&#45;&gt;Node12</title>
<path fill="none" stroke="midnightblue" d="M1915.55,-137.79C1908.17,-136.27 1900.69,-134.94 1893.5,-134 1156.97,-37.42 959.95,-187.3 222.5,-98 211.71,-96.69 200.08,-94.39 189.68,-92"/>
<polygon fill="midnightblue" stroke="midnightblue" points="1915.01,-141.26 1925.52,-139.98 1916.5,-134.42 1915.01,-141.26"/>
</g>
<!-- Node13 -->
<g id="node13" class="node">
<title>Node13</title>
<g id="a_node13"><a xlink:href="d__com__inf__game_8cpp.html" target="_top" xlink:title=" ">
<polygon fill="white" stroke="black" points="1766,-0.5 1766,-30.5 1885,-30.5 1885,-0.5 1766,-0.5"/>
<text text-anchor="start" x="1774" y="-18.5" font-family="Helvetica,sans-Serif" font-size="10.00">src/d/d_com/d_com_inf</text>
<text text-anchor="middle" x="1825.5" y="-7.5" font-family="Helvetica,sans-Serif" font-size="10.00">_game.cpp</text>
</a>
</g>
</g>
<!-- Node11&#45;&gt;Node13 -->
<g id="edge14" class="edge">
<title>Node11&#45;&gt;Node13</title>
<path fill="none" stroke="midnightblue" d="M2059.2,-152.18C2356.29,-145.53 3343.75,-121.69 3366.5,-98 3376.04,-88.06 3376.08,-76.9 3366.5,-67 3314.12,-12.87 2162.16,-14.89 1885.05,-16.16"/>
<polygon fill="midnightblue" stroke="midnightblue" points="2058.84,-148.69 2048.92,-152.41 2059,-155.69 2058.84,-148.69"/>
</g>
<!-- Node14 -->
<g id="node14" class="node">
<title>Node14</title>
<g id="a_node14"><a xlink:href="d__item_8cpp.html" target="_top" xlink:title=" ">
<polygon fill="white" stroke="black" points="214,-6 214,-25 335,-25 335,-6 214,-6"/>
<text text-anchor="middle" x="274.5" y="-13" font-family="Helvetica,sans-Serif" font-size="10.00">src/d/d_item/d_item.cpp</text>
</a>
</g>
</g>
<!-- Node11&#45;&gt;Node14 -->
<g id="edge16" class="edge">
<title>Node11&#45;&gt;Node14</title>
<path fill="none" stroke="midnightblue" d="M1915.55,-137.8C1908.17,-136.27 1900.69,-134.94 1893.5,-134 1848.38,-128.07 287.33,-130.53 255.5,-98 235.89,-77.96 256.65,-41.81 268.05,-25.24"/>
<polygon fill="midnightblue" stroke="midnightblue" points="1915,-141.26 1925.52,-139.99 1916.5,-134.42 1915,-141.26"/>
</g>
<!-- Node15 -->
<g id="node15" class="node">
<title>Node15</title>
<g id="a_node15"><a xlink:href="d__kankyo__rain_8cpp.html" target="_top" xlink:title=" ">
<polygon fill="white" stroke="black" points="379,-67.5 379,-97.5 506,-97.5 506,-67.5 379,-67.5"/>
<text text-anchor="start" x="387" y="-85.5" font-family="Helvetica,sans-Serif" font-size="10.00">src/d/d_kankyo/d_kankyo</text>
<text text-anchor="middle" x="442.5" y="-74.5" font-family="Helvetica,sans-Serif" font-size="10.00">_rain.cpp</text>
</a>
</g>
</g>
<!-- Node11&#45;&gt;Node15 -->
<g id="edge17" class="edge">
<title>Node11&#45;&gt;Node15</title>
<path fill="none" stroke="midnightblue" d="M1915.24,-137.76C1907.96,-136.26 1900.59,-134.95 1893.5,-134 1285.79,-52.9 1123.73,-166.78 514.5,-98 511.71,-97.69 508.87,-97.32 506.01,-96.91"/>
<polygon fill="midnightblue" stroke="midnightblue" points="1914.56,-141.2 1925.08,-139.92 1916.06,-134.36 1914.56,-141.2"/>
</g>
<!-- Node16 -->
<g id="node16" class="node">
<title>Node16</title>
<g id="a_node16"><a xlink:href="d__kankyo__wether_8cpp.html" target="_top" xlink:title=" ">
<polygon fill="white" stroke="black" points="524,-67.5 524,-97.5 651,-97.5 651,-67.5 524,-67.5"/>
<text text-anchor="start" x="532" y="-85.5" font-family="Helvetica,sans-Serif" font-size="10.00">src/d/d_kankyo/d_kankyo</text>
<text text-anchor="middle" x="587.5" y="-74.5" font-family="Helvetica,sans-Serif" font-size="10.00">_wether.cpp</text>
</a>
</g>
</g>
<!-- Node11&#45;&gt;Node16 -->
<g id="edge18" class="edge">
<title>Node11&#45;&gt;Node16</title>
<path fill="none" stroke="midnightblue" d="M1915.24,-137.78C1907.95,-136.28 1900.59,-134.96 1893.5,-134 1349.76,-60.59 1204.62,-160.39 659.5,-98 656.71,-97.68 653.87,-97.31 651.01,-96.9"/>
<polygon fill="midnightblue" stroke="midnightblue" points="1914.56,-141.22 1925.08,-139.94 1916.06,-134.38 1914.56,-141.22"/>
</g>
<!-- Node17 -->
<g id="node17" class="node">
<title>Node17</title>
<g id="a_node17"><a xlink:href="d__kankyo_8cpp.html" target="_top" xlink:title=" ">
<polygon fill="white" stroke="black" points="669,-73 669,-92 770,-92 770,-73 669,-73"/>
<text text-anchor="middle" x="719.5" y="-80" font-family="Helvetica,sans-Serif" font-size="10.00">src/d/d_kankyo.cpp</text>
</a>
</g>
</g>
<!-- Node11&#45;&gt;Node17 -->
<g id="edge19" class="edge">
<title>Node11&#45;&gt;Node17</title>
<path fill="none" stroke="midnightblue" d="M1915.23,-137.81C1907.95,-136.29 1900.59,-134.97 1893.5,-134 1402.25,-66.9 1269.69,-165.53 778.5,-98 768.78,-96.66 758.34,-94.38 748.98,-92.02"/>
<polygon fill="midnightblue" stroke="midnightblue" points="1914.56,-141.24 1925.07,-139.97 1916.06,-134.4 1914.56,-141.24"/>
</g>
<!-- Node18 -->
<g id="node18" class="node">
<title>Node18</title>
<g id="a_node18"><a xlink:href="d__kantera__icon__meter_8cpp.html" target="_top" xlink:title=" ">
<polygon fill="white" stroke="black" points="788,-67.5 788,-97.5 895,-97.5 895,-67.5 788,-67.5"/>
<text text-anchor="start" x="796" y="-85.5" font-family="Helvetica,sans-Serif" font-size="10.00">src/d/d_kantera_icon</text>
<text text-anchor="middle" x="841.5" y="-74.5" font-family="Helvetica,sans-Serif" font-size="10.00">_meter.cpp</text>
</a>
</g>
</g>
<!-- Node11&#45;&gt;Node18 -->
<g id="edge20" class="edge">
<title>Node11&#45;&gt;Node18</title>
<path fill="none" stroke="midnightblue" d="M1914.43,-137.67C1907.41,-136.22 1900.33,-134.95 1893.5,-134 1457.38,-73.52 1339.9,-156.41 903.5,-98 900.76,-97.63 897.97,-97.2 895.15,-96.72"/>
<polygon fill="midnightblue" stroke="midnightblue" points="1914.11,-141.18 1924.63,-139.9 1915.61,-134.34 1914.11,-141.18"/>
</g>
<!-- Node19 -->
<g id="node19" class="node">
<title>Node19</title>
<g id="a_node19"><a xlink:href="d__meter__button_8cpp.html" target="_top" xlink:title=" ">
<polygon fill="white" stroke="black" points="913,-67.5 913,-97.5 1028,-97.5 1028,-67.5 913,-67.5"/>
<text text-anchor="start" x="921" y="-85.5" font-family="Helvetica,sans-Serif" font-size="10.00">src/d/d_meter/d_meter</text>
<text text-anchor="middle" x="970.5" y="-74.5" font-family="Helvetica,sans-Serif" font-size="10.00">_button.cpp</text>
</a>
</g>
</g>
<!-- Node11&#45;&gt;Node19 -->
<g id="edge21" class="edge">
<title>Node11&#45;&gt;Node19</title>
<path fill="none" stroke="midnightblue" d="M1914.43,-137.71C1907.41,-136.25 1900.32,-134.97 1893.5,-134 1516.04,-80.57 1414.55,-147.09 1036.5,-98 1033.82,-97.65 1031.1,-97.25 1028.35,-96.81"/>
<polygon fill="midnightblue" stroke="midnightblue" points="1914.11,-141.22 1924.62,-139.94 1915.61,-134.38 1914.11,-141.22"/>
</g>
<!-- Node20 -->
<g id="node20" class="node">
<title>Node20</title>
<g id="a_node20"><a xlink:href="d__meter__haihai_8cpp.html" target="_top" xlink:title=" ">
<polygon fill="white" stroke="black" points="1046,-67.5 1046,-97.5 1161,-97.5 1161,-67.5 1046,-67.5"/>
<text text-anchor="start" x="1054" y="-85.5" font-family="Helvetica,sans-Serif" font-size="10.00">src/d/d_meter/d_meter</text>
<text text-anchor="middle" x="1103.5" y="-74.5" font-family="Helvetica,sans-Serif" font-size="10.00">_haihai.cpp</text>
</a>
</g>
</g>
<!-- Node11&#45;&gt;Node20 -->
<g id="edge22" class="edge">
<title>Node11&#45;&gt;Node20</title>
<path fill="none" stroke="midnightblue" d="M1914.12,-137.7C1907.2,-136.26 1900.22,-134.98 1893.5,-134 1574.68,-87.62 1488.83,-140.71 1169.5,-98 1166.83,-97.64 1164.1,-97.23 1161.35,-96.78"/>
<polygon fill="midnightblue" stroke="midnightblue" points="1913.66,-141.18 1924.18,-139.91 1915.16,-134.34 1913.66,-141.18"/>
</g>
<!-- Node21 -->
<g id="node21" class="node">
<title>Node21</title>
<g id="a_node21"><a xlink:href="d__meter__hakusha_8cpp.html" target="_top" xlink:title=" ">
<polygon fill="white" stroke="black" points="1179,-67.5 1179,-97.5 1294,-97.5 1294,-67.5 1179,-67.5"/>
<text text-anchor="start" x="1187" y="-85.5" font-family="Helvetica,sans-Serif" font-size="10.00">src/d/d_meter/d_meter</text>
<text text-anchor="middle" x="1236.5" y="-74.5" font-family="Helvetica,sans-Serif" font-size="10.00">_hakusha.cpp</text>
</a>
</g>
</g>
<!-- Node11&#45;&gt;Node21 -->
<g id="edge23" class="edge">
<title>Node11&#45;&gt;Node21</title>
<path fill="none" stroke="midnightblue" d="M1914.11,-137.77C1907.19,-136.32 1900.22,-135.02 1893.5,-134 1633.3,-94.67 1563.13,-134.34 1302.5,-98 1299.83,-97.63 1297.1,-97.2 1294.36,-96.74"/>
<polygon fill="midnightblue" stroke="midnightblue" points="1913.64,-141.25 1924.16,-139.99 1915.15,-134.42 1913.64,-141.25"/>
</g>
<!-- Node22 -->
<g id="node22" class="node">
<title>Node22</title>
<g id="a_node22"><a xlink:href="d__meter__map_8cpp.html" target="_top" xlink:title=" ">
<polygon fill="white" stroke="black" points="1312,-67.5 1312,-97.5 1427,-97.5 1427,-67.5 1312,-67.5"/>
<text text-anchor="start" x="1320" y="-85.5" font-family="Helvetica,sans-Serif" font-size="10.00">src/d/d_meter/d_meter</text>
<text text-anchor="middle" x="1369.5" y="-74.5" font-family="Helvetica,sans-Serif" font-size="10.00">_map.cpp</text>
</a>
</g>
</g>
<!-- Node11&#45;&gt;Node22 -->
<g id="edge24" class="edge">
<title>Node11&#45;&gt;Node22</title>
<path fill="none" stroke="midnightblue" d="M1913.49,-137.76C1906.77,-136.34 1900.01,-135.04 1893.5,-134 1691.89,-101.7 1637.47,-127.98 1435.5,-98 1432.71,-97.59 1429.87,-97.12 1427.01,-96.62"/>
<polygon fill="midnightblue" stroke="midnightblue" points="1912.74,-141.18 1923.26,-139.93 1914.26,-134.35 1912.74,-141.18"/>
</g>
<!-- Node23 -->
<g id="node23" class="node">
<title>Node23</title>
<g id="a_node23"><a xlink:href="d__meter__string_8cpp.html" target="_top" xlink:title=" ">
<polygon fill="white" stroke="black" points="1445,-67.5 1445,-97.5 1560,-97.5 1560,-67.5 1445,-67.5"/>
<text text-anchor="start" x="1453" y="-85.5" font-family="Helvetica,sans-Serif" font-size="10.00">src/d/d_meter/d_meter</text>
<text text-anchor="middle" x="1502.5" y="-74.5" font-family="Helvetica,sans-Serif" font-size="10.00">_string.cpp</text>
</a>
</g>
</g>
<!-- Node11&#45;&gt;Node23 -->
<g id="edge25" class="edge">
<title>Node11&#45;&gt;Node23</title>
<path fill="none" stroke="midnightblue" d="M1912.4,-137.75C1906.04,-136.37 1899.66,-135.09 1893.5,-134 1750.39,-108.73 1711.89,-121.63 1568.5,-98 1565.72,-97.54 1562.88,-97.04 1560.02,-96.51"/>
<polygon fill="midnightblue" stroke="midnightblue" points="1911.81,-141.2 1922.34,-139.98 1913.35,-134.37 1911.81,-141.2"/>
</g>
<!-- Node24 -->
<g id="node24" class="node">
<title>Node24</title>
<g id="a_node24"><a xlink:href="d__meter2__draw_8cpp.html" target="_top" xlink:title=" ">
<polygon fill="white" stroke="black" points="1578,-67.5 1578,-97.5 1703,-97.5 1703,-67.5 1578,-67.5"/>
<text text-anchor="start" x="1586" y="-85.5" font-family="Helvetica,sans-Serif" font-size="10.00">src/d/d_meter2/d_meter2</text>
<text text-anchor="middle" x="1640.5" y="-74.5" font-family="Helvetica,sans-Serif" font-size="10.00">_draw.cpp</text>
</a>
</g>
</g>
<!-- Node11&#45;&gt;Node24 -->
<g id="edge26" class="edge">
<title>Node11&#45;&gt;Node24</title>
<path fill="none" stroke="midnightblue" d="M1909.03,-137.53C1903.78,-136.31 1898.56,-135.12 1893.5,-134 1812.98,-116.23 1792.34,-114.25 1711.5,-98 1708.79,-97.45 1706.02,-96.9 1703.22,-96.33"/>
<polygon fill="midnightblue" stroke="midnightblue" points="1908.58,-141.02 1919.11,-139.9 1910.18,-134.2 1908.58,-141.02"/>
</g>
<!-- Node25 -->
<g id="node25" class="node">
<title>Node25</title>
<g id="a_node25"><a xlink:href="d__meter2__info_8cpp.html" target="_top" xlink:title=" ">
<polygon fill="white" stroke="black" points="1721,-67.5 1721,-97.5 1846,-97.5 1846,-67.5 1721,-67.5"/>
<text text-anchor="start" x="1729" y="-85.5" font-family="Helvetica,sans-Serif" font-size="10.00">src/d/d_meter2/d_meter2</text>
<text text-anchor="middle" x="1783.5" y="-74.5" font-family="Helvetica,sans-Serif" font-size="10.00">_info.cpp</text>
</a>
</g>
</g>
<!-- Node11&#45;&gt;Node25 -->
<g id="edge27" class="edge">
<title>Node11&#45;&gt;Node25</title>
<path fill="none" stroke="midnightblue" d="M1927.32,-136.31C1894.69,-124.33 1852.16,-108.71 1821.83,-97.57"/>
<polygon fill="midnightblue" stroke="midnightblue" points="1926.51,-139.74 1937.11,-139.9 1928.93,-133.17 1926.51,-139.74"/>
</g>
<!-- Node26 -->
<g id="node26" class="node">
<title>Node26</title>
<g id="a_node26"><a xlink:href="d__meter2_8cpp.html" target="_top" xlink:title=" ">
<polygon fill="white" stroke="black" points="1864.5,-73 1864.5,-92 1964.5,-92 1964.5,-73 1864.5,-73"/>
<text text-anchor="middle" x="1914.5" y="-80" font-family="Helvetica,sans-Serif" font-size="10.00">src/d/d_meter2.cpp</text>
</a>
</g>
</g>
<!-- Node11&#45;&gt;Node26 -->
<g id="edge28" class="edge">
<title>Node11&#45;&gt;Node26</title>
<path fill="none" stroke="midnightblue" d="M1956.36,-131.88C1944.81,-118.54 1930.73,-102.26 1922.19,-92.39"/>
<polygon fill="midnightblue" stroke="midnightblue" points="1953.97,-134.46 1963.16,-139.73 1959.26,-129.88 1953.97,-134.46"/>
</g>
<!-- Node27 -->
<g id="node27" class="node">
<title>Node27</title>
<g id="a_node27"><a xlink:href="d__save__HIO_8cpp.html" target="_top" xlink:title=" ">
<polygon fill="white" stroke="black" points="1983,-67.5 1983,-97.5 2090,-97.5 2090,-67.5 1983,-67.5"/>
<text text-anchor="start" x="1991" y="-85.5" font-family="Helvetica,sans-Serif" font-size="10.00">src/d/d_save/d_save</text>
<text text-anchor="middle" x="2036.5" y="-74.5" font-family="Helvetica,sans-Serif" font-size="10.00">_HIO.cpp</text>
</a>
</g>
</g>
<!-- Node11&#45;&gt;Node27 -->
<g id="edge30" class="edge">
<title>Node11&#45;&gt;Node27</title>
<path fill="none" stroke="midnightblue" d="M1994.5,-132.04C2004.18,-120.86 2015.66,-107.58 2024.17,-97.75"/>
<polygon fill="midnightblue" stroke="midnightblue" points="1991.74,-129.88 1987.84,-139.73 1997.03,-134.46 1991.74,-129.88"/>
</g>
<!-- Node28 -->
<g id="node28" class="node">
<title>Node28</title>
<g id="a_node28"><a xlink:href="d__stage_8cpp.html" target="_top" xlink:title=" ">
<polygon fill="white" stroke="black" points="2108.5,-73 2108.5,-92 2202.5,-92 2202.5,-73 2108.5,-73"/>
<text text-anchor="middle" x="2155.5" y="-80" font-family="Helvetica,sans-Serif" font-size="10.00">src/d/d_stage.cpp</text>
</a>
</g>
</g>
<!-- Node11&#45;&gt;Node28 -->
<g id="edge31" class="edge">
<title>Node11&#45;&gt;Node28</title>
<path fill="none" stroke="midnightblue" d="M2020.84,-136.24C2056.93,-122.11 2105.86,-102.94 2133.71,-92.03"/>
<polygon fill="midnightblue" stroke="midnightblue" points="2019.53,-133 2011.49,-139.9 2022.08,-139.51 2019.53,-133"/>
</g>
<!-- Node29 -->
<g id="node29" class="node">
<title>Node29</title>
<g id="a_node29"><a xlink:href="f__pc__manager_8cpp.html" target="_top" xlink:title=" ">
<polygon fill="white" stroke="black" points="3299.5,-6 3299.5,-25 3439.5,-25 3439.5,-6 3299.5,-6"/>
<text text-anchor="middle" x="3369.5" y="-13" font-family="Helvetica,sans-Serif" font-size="10.00">src/f/f_pc/f_pc_manager.cpp</text>
</a>
</g>
</g>
<!-- Node11&#45;&gt;Node29 -->
<g id="edge32" class="edge">
<title>Node11&#45;&gt;Node29</title>
<path fill="none" stroke="midnightblue" d="M2059.2,-152.22C2358.67,-145.67 3360.44,-122 3383.5,-98 3402.7,-78.02 3384.99,-41.84 3375.11,-25.25"/>
<polygon fill="midnightblue" stroke="midnightblue" points="2058.76,-148.73 2048.84,-152.45 2058.91,-155.73 2058.76,-148.73"/>
</g>
<!-- Node30 -->
<g id="node30" class="node">
<title>Node30</title>
<g id="a_node30"><a xlink:href="m__Do__audio_8cpp.html" target="_top" xlink:title=" ">
<polygon fill="white" stroke="black" points="2220.5,-73 2220.5,-92 2354.5,-92 2354.5,-73 2220.5,-73"/>
<text text-anchor="middle" x="2287.5" y="-80" font-family="Helvetica,sans-Serif" font-size="10.00">src/m_Do/m_Do_audio.cpp</text>
</a>
</g>
</g>
<!-- Node11&#45;&gt;Node30 -->
<g id="edge33" class="edge">
<title>Node11&#45;&gt;Node30</title>
<path fill="none" stroke="midnightblue" d="M2047.4,-137.75C2110.43,-123.51 2199.6,-103.36 2249.64,-92.05"/>
<polygon fill="midnightblue" stroke="midnightblue" points="2046.5,-134.37 2037.51,-139.99 2048.04,-141.2 2046.5,-134.37"/>
</g>
<!-- Node31 -->
<g id="node31" class="node">
<title>Node31</title>
<g id="a_node31"><a xlink:href="m__Do__main_8cpp.html" target="_top" xlink:title=" ">
<polygon fill="white" stroke="black" points="2373,-73 2373,-92 2504,-92 2504,-73 2373,-73"/>
<text text-anchor="middle" x="2438.5" y="-80" font-family="Helvetica,sans-Serif" font-size="10.00">src/m_Do/m_Do_main.cpp</text>
</a>
</g>
</g>
<!-- Node11&#45;&gt;Node31 -->
<g id="edge34" class="edge">
<title>Node11&#45;&gt;Node31</title>
<path fill="none" stroke="midnightblue" d="M2058.94,-143.13C2137.64,-132.59 2258.81,-115.66 2363.5,-98 2374.09,-96.21 2385.49,-94.1 2396.12,-92.06"/>
<polygon fill="midnightblue" stroke="midnightblue" points="2058.05,-139.71 2048.6,-144.51 2058.98,-146.65 2058.05,-139.71"/>
</g>
<!-- Node32 -->
<g id="node32" class="node">
<title>Node32</title>
<g id="a_node32"><a xlink:href="Z2EnvSeMgr_8cpp.html" target="_top" xlink:title=" ">
<polygon fill="white" stroke="black" points="2522,-73 2522,-92 2683,-92 2683,-73 2522,-73"/>
<text text-anchor="middle" x="2602.5" y="-80" font-family="Helvetica,sans-Serif" font-size="10.00">libs/Z2AudioLib/Z2EnvSeMgr.cpp</text>
</a>
</g>
</g>
<!-- Node11&#45;&gt;Node32 -->
<g id="edge35" class="edge">
<title>Node11&#45;&gt;Node32</title>
<path fill="none" stroke="midnightblue" d="M2058.74,-146.84C2164.62,-137.39 2352.99,-119.41 2513.5,-98 2526.38,-96.28 2540.26,-94.15 2553.15,-92.06"/>
<polygon fill="midnightblue" stroke="midnightblue" points="2058.41,-143.35 2048.76,-147.73 2059.03,-150.33 2058.41,-143.35"/>
</g>
<!-- Node33 -->
<g id="node33" class="node">
<title>Node33</title>
<g id="a_node33"><a xlink:href="Z2LinkMgr_8cpp.html" target="_top" xlink:title=" ">
<polygon fill="white" stroke="black" points="2701.5,-73 2701.5,-92 2853.5,-92 2853.5,-73 2701.5,-73"/>
<text text-anchor="middle" x="2777.5" y="-80" font-family="Helvetica,sans-Serif" font-size="10.00">libs/Z2AudioLib/Z2LinkMgr.cpp</text>
</a>
</g>
</g>
<!-- Node11&#45;&gt;Node33 -->
<g id="edge36" class="edge">
<title>Node11&#45;&gt;Node33</title>
<path fill="none" stroke="midnightblue" d="M2058.94,-149.95C2192.9,-142.9 2464.11,-126.34 2692.5,-98 2705.42,-96.4 2719.38,-94.21 2732.18,-92.02"/>
<polygon fill="midnightblue" stroke="midnightblue" points="2058.55,-146.47 2048.75,-150.49 2058.92,-153.46 2058.55,-146.47"/>
</g>
<!-- Node34 -->
<g id="node34" class="node">
<title>Node34</title>
<g id="a_node34"><a xlink:href="Z2SceneMgr_8cpp.html" target="_top" xlink:title=" ">
<polygon fill="white" stroke="black" points="2872,-73 2872,-92 3033,-92 3033,-73 2872,-73"/>
<text text-anchor="middle" x="2952.5" y="-80" font-family="Helvetica,sans-Serif" font-size="10.00">libs/Z2AudioLib/Z2SceneMgr.cpp</text>
</a>
</g>
</g>
<!-- Node11&#45;&gt;Node34 -->
<g id="edge37" class="edge">
<title>Node11&#45;&gt;Node34</title>
<path fill="none" stroke="midnightblue" d="M2058.81,-151.43C2216.23,-145.97 2568.03,-130.94 2862.5,-98 2876.34,-96.45 2891.3,-94.25 2904.98,-92.04"/>
<polygon fill="midnightblue" stroke="midnightblue" points="2058.6,-147.93 2048.72,-151.77 2058.84,-154.93 2058.6,-147.93"/>
</g>
<!-- Node35 -->
<g id="node35" class="node">
<title>Node35</title>
<g id="a_node35"><a xlink:href="Z2SoundMgr_8cpp.html" target="_top" xlink:title=" ">
<polygon fill="white" stroke="black" points="3051,-73 3051,-92 3212,-92 3212,-73 3051,-73"/>
<text text-anchor="middle" x="3131.5" y="-80" font-family="Helvetica,sans-Serif" font-size="10.00">libs/Z2AudioLib/Z2SoundMgr.cpp</text>
</a>
</g>
</g>
<!-- Node11&#45;&gt;Node35 -->
<g id="edge38" class="edge">
<title>Node11&#45;&gt;Node35</title>
<path fill="none" stroke="midnightblue" d="M2059.01,-152.71C2239.15,-149.26 2677.48,-137.2 3042.5,-98 3056.35,-96.51 3071.33,-94.31 3084.98,-92.06"/>
<polygon fill="midnightblue" stroke="midnightblue" points="2058.74,-149.22 2048.81,-152.9 2058.87,-156.22 2058.74,-149.22"/>
</g>
<!-- Node36 -->
<g id="node36" class="node">
<title>Node36</title>
<g id="a_node36"><a xlink:href="Z2StatusMgr_8cpp.html" target="_top" xlink:title=" ">
<polygon fill="white" stroke="black" points="3230,-67.5 3230,-97.5 3357,-97.5 3357,-67.5 3230,-67.5"/>
<text text-anchor="start" x="3238" y="-85.5" font-family="Helvetica,sans-Serif" font-size="10.00">libs/Z2AudioLib/Z2Status</text>
<text text-anchor="middle" x="3293.5" y="-74.5" font-family="Helvetica,sans-Serif" font-size="10.00">Mgr.cpp</text>
</a>
</g>
</g>
<!-- Node11&#45;&gt;Node36 -->
<g id="edge39" class="edge">
<title>Node11&#45;&gt;Node36</title>
<path fill="none" stroke="midnightblue" d="M2058.68,-154.67C2259.42,-155.32 2786.04,-151.31 3221.5,-98 3224.28,-97.66 3227.12,-97.27 3229.98,-96.84"/>
<polygon fill="midnightblue" stroke="midnightblue" points="2058.52,-151.17 2048.51,-154.63 2058.49,-158.17 2058.52,-151.17"/>
</g>
<!-- Node37 -->
<g id="node37" class="node">
<title>Node37</title>
<g id="a_node37"><a xlink:href="d__item_8h.html" target="_top" xlink:title=" ">
<polygon fill="white" stroke="black" points="264.5,-67.5 264.5,-97.5 360.5,-97.5 360.5,-67.5 264.5,-67.5"/>
<text text-anchor="start" x="272.5" y="-85.5" font-family="Helvetica,sans-Serif" font-size="10.00">include/d/d_item/d</text>
<text text-anchor="middle" x="312.5" y="-74.5" font-family="Helvetica,sans-Serif" font-size="10.00">_item/d_item.h</text>
</a>
</g>
</g>
<!-- Node11&#45;&gt;Node37 -->
<g id="edge41" class="edge">
<title>Node11&#45;&gt;Node37</title>
<path fill="none" stroke="midnightblue" d="M1915.55,-137.81C1908.17,-136.28 1900.69,-134.95 1893.5,-134 1221.82,-45.21 1040.73,-190.1 369.5,-98 366.57,-97.6 363.57,-97.1 360.55,-96.53"/>
<polygon fill="midnightblue" stroke="midnightblue" points="1915,-141.27 1925.52,-140 1916.5,-134.44 1915,-141.27"/>
</g>
<!-- Node38 -->
<g id="node38" class="node">
<title>Node38</title>
<g id="a_node38"><a xlink:href="f__pc__manager_8h.html" target="_top" xlink:title=" ">
<polygon fill="white" stroke="black" points="3452,-67.5 3452,-97.5 3549,-97.5 3549,-67.5 3452,-67.5"/>
<text text-anchor="start" x="3460" y="-85.5" font-family="Helvetica,sans-Serif" font-size="10.00">include/f/f_pc/f_pc</text>
<text text-anchor="middle" x="3500.5" y="-74.5" font-family="Helvetica,sans-Serif" font-size="10.00">_manager.h</text>
</a>
</g>
</g>
<!-- Node11&#45;&gt;Node38 -->
<g id="edge44" class="edge">
<title>Node11&#45;&gt;Node38</title>
<path fill="none" stroke="midnightblue" d="M2058.89,-152.87C2327.48,-148.89 3168.09,-133.84 3437.5,-98 3442.17,-97.38 3447.01,-96.57 3451.83,-95.65"/>
<polygon fill="midnightblue" stroke="midnightblue" points="2058.77,-149.37 2048.82,-153.01 2058.87,-156.37 2058.77,-149.37"/>
</g>
<!-- Node37&#45;&gt;Node13 -->
<g id="edge42" class="edge">
<title>Node37&#45;&gt;Node13</title>
<path fill="none" stroke="midnightblue" d="M370.83,-67.08C666.28,-27.34 1530.04,-18.57 1765.6,-16.87"/>
<polygon fill="midnightblue" stroke="midnightblue" points="369.98,-63.66 360.56,-68.5 370.94,-70.59 369.98,-63.66"/>
</g>
<!-- Node37&#45;&gt;Node14 -->
<g id="edge43" class="edge">
<title>Node37&#45;&gt;Node14</title>
<path fill="none" stroke="midnightblue" d="M299.13,-58.63C292.37,-47.07 284.56,-33.71 279.58,-25.19"/>
<polygon fill="midnightblue" stroke="midnightblue" points="296.19,-60.53 304.25,-67.4 302.23,-57 296.19,-60.53"/>
</g>
<!-- Node38&#45;&gt;Node9 -->
<g id="edge45" class="edge">
<title>Node38&#45;&gt;Node9</title>
<path fill="none" stroke="midnightblue" d="M3506.75,-57.6C3509.71,-46.28 3513.06,-33.46 3515.23,-25.19"/>
<polygon fill="midnightblue" stroke="midnightblue" points="3503.33,-56.84 3504.19,-67.4 3510.11,-58.61 3503.33,-56.84"/>
</g>
<!-- Node38&#45;&gt;Node29 -->
<g id="edge46" class="edge">
<title>Node38&#45;&gt;Node29</title>
<path fill="none" stroke="midnightblue" d="M3462.82,-62.8C3437.7,-50.34 3405.89,-34.56 3386.64,-25.01"/>
<polygon fill="midnightblue" stroke="midnightblue" points="3461.56,-66.09 3472.07,-67.4 3464.67,-59.82 3461.56,-66.09"/>
</g>
<!-- Node40 -->
<g id="node40" class="node">
<title>Node40</title>
<g id="a_node40"><a xlink:href="J2DPane_8cpp.html" target="_top" xlink:title=" ">
<polygon fill="white" stroke="black" points="2053,-212.5 2053,-242.5 2172,-242.5 2172,-212.5 2053,-212.5"/>
<text text-anchor="start" x="2061" y="-230.5" font-family="Helvetica,sans-Serif" font-size="10.00">libs/JSystem/J2DGraph</text>
<text text-anchor="middle" x="2112.5" y="-219.5" font-family="Helvetica,sans-Serif" font-size="10.00">/J2DPane.cpp</text>
</a>
</g>
</g>
<!-- Node39&#45;&gt;Node40 -->
<g id="edge49" class="edge">
<title>Node39&#45;&gt;Node40</title>
<path fill="none" stroke="midnightblue" d="M2112.5,-274.73C2112.5,-264.07 2112.5,-251.91 2112.5,-242.75"/>
<polygon fill="midnightblue" stroke="midnightblue" points="2109,-274.73 2112.5,-284.73 2116,-274.73 2109,-274.73"/>
</g>
</g>
</svg>
