<?xml version="1.0" encoding="UTF-8" standalone="no"?>
<!DOCTYPE svg PUBLIC "-//W3C//DTD SVG 1.1//EN"
 "http://www.w3.org/Graphics/SVG/1.1/DTD/svg11.dtd">
<!-- Generated by graphviz version 2.46.0 (20210122.1329)
 -->
<!-- Title: include/JSystem/J3DGraphAnimator/J3DAnimation.h Pages: 1 -->
<svg width="5121pt" height="374pt"
 viewBox="0.00 0.00 5120.50 374.00" xmlns="http://www.w3.org/2000/svg" xmlns:xlink="http://www.w3.org/1999/xlink">
<g id="graph0" class="graph" transform="scale(1 1) rotate(0) translate(4 370)">
<title>include/JSystem/J3DGraphAnimator/J3DAnimation.h</title>
<polygon fill="white" stroke="transparent" points="-4,4 -4,-370 5116.5,-370 5116.5,4 -4,4"/>
<!-- Node1 -->
<g id="node1" class="node">
<title>Node1</title>
<g id="a_node1"><a xlink:title=" ">
<polygon fill="#bfbfbf" stroke="black" points="4751,-335.5 4751,-365.5 4886,-365.5 4886,-335.5 4751,-335.5"/>
<text text-anchor="start" x="4759" y="-353.5" font-family="Helvetica,sans-Serif" font-size="10.00">include/JSystem/J3DGraph</text>
<text text-anchor="middle" x="4818.5" y="-342.5" font-family="Helvetica,sans-Serif" font-size="10.00">Animator/J3DAnimation.h</text>
</a>
</g>
</g>
<!-- Node2 -->
<g id="node2" class="node">
<title>Node2</title>
<g id="a_node2"><a xlink:href="m__Do__ext_8h.html" target="_top" xlink:title=" ">
<polygon fill="white" stroke="black" points="4757.5,-268.5 4757.5,-298.5 4879.5,-298.5 4879.5,-268.5 4757.5,-268.5"/>
<text text-anchor="start" x="4765.5" y="-286.5" font-family="Helvetica,sans-Serif" font-size="10.00">include/m_Do/m_Do_ext</text>
<text text-anchor="middle" x="4818.5" y="-275.5" font-family="Helvetica,sans-Serif" font-size="10.00">/m_Do_ext.h</text>
</a>
</g>
</g>
<!-- Node1&#45;&gt;Node2 -->
<g id="edge1" class="edge">
<title>Node1&#45;&gt;Node2</title>
<path fill="none" stroke="midnightblue" d="M4818.5,-325.11C4818.5,-316.15 4818.5,-306.32 4818.5,-298.58"/>
<polygon fill="midnightblue" stroke="midnightblue" points="4815,-325.4 4818.5,-335.4 4822,-325.4 4815,-325.4"/>
</g>
<!-- Node3 -->
<g id="node3" class="node">
<title>Node3</title>
<g id="a_node3"><a xlink:href="d__com__inf__game_8cpp.html" target="_top" xlink:title=" ">
<polygon fill="white" stroke="black" points="4721,-0.5 4721,-30.5 4840,-30.5 4840,-0.5 4721,-0.5"/>
<text text-anchor="start" x="4729" y="-18.5" font-family="Helvetica,sans-Serif" font-size="10.00">src/d/d_com/d_com_inf</text>
<text text-anchor="middle" x="4780.5" y="-7.5" font-family="Helvetica,sans-Serif" font-size="10.00">_game.cpp</text>
</a>
</g>
</g>
<!-- Node2&#45;&gt;Node3 -->
<g id="edge2" class="edge">
<title>Node2&#45;&gt;Node3</title>
<path fill="none" stroke="midnightblue" d="M4815.01,-258.07C4807.22,-203.57 4788.65,-73.52 4782.51,-30.55"/>
<polygon fill="midnightblue" stroke="midnightblue" points="4811.58,-258.79 4816.46,-268.2 4818.51,-257.8 4811.58,-258.79"/>
</g>
<!-- Node4 -->
<g id="node4" class="node">
<title>Node4</title>
<g id="a_node4"><a xlink:href="d__meter__HIO_8cpp.html" target="_top" xlink:title=" ">
<polygon fill="white" stroke="black" points="4847,-201.5 4847,-231.5 4962,-231.5 4962,-201.5 4847,-201.5"/>
<text text-anchor="start" x="4855" y="-219.5" font-family="Helvetica,sans-Serif" font-size="10.00">src/d/d_meter/d_meter</text>
<text text-anchor="middle" x="4904.5" y="-208.5" font-family="Helvetica,sans-Serif" font-size="10.00">_HIO.cpp</text>
</a>
</g>
</g>
<!-- Node2&#45;&gt;Node4 -->
<g id="edge3" class="edge">
<title>Node2&#45;&gt;Node4</title>
<path fill="none" stroke="midnightblue" d="M4845.4,-262.17C4858.55,-252.23 4874.05,-240.51 4885.88,-231.58"/>
<polygon fill="midnightblue" stroke="midnightblue" points="4843.03,-259.57 4837.16,-268.4 4847.25,-265.16 4843.03,-259.57"/>
</g>
<!-- Node5 -->
<g id="node5" class="node">
<title>Node5</title>
<g id="a_node5"><a xlink:href="m__Do__main_8cpp.html" target="_top" xlink:title=" ">
<polygon fill="white" stroke="black" points="0,-73 0,-92 131,-92 131,-73 0,-73"/>
<text text-anchor="middle" x="65.5" y="-80" font-family="Helvetica,sans-Serif" font-size="10.00">src/m_Do/m_Do_main.cpp</text>
</a>
</g>
</g>
<!-- Node2&#45;&gt;Node5 -->
<g id="edge4" class="edge">
<title>Node2&#45;&gt;Node5</title>
<path fill="none" stroke="midnightblue" d="M4747.44,-280.21C4536.37,-273.39 3894.66,-252.36 3362.5,-232 1938.3,-177.52 1576.87,-237.78 158.5,-98 143.86,-96.56 128.02,-94.34 113.64,-92.06"/>
<polygon fill="midnightblue" stroke="midnightblue" points="4747.36,-283.71 4757.46,-280.54 4747.58,-276.72 4747.36,-283.71"/>
</g>
<!-- Node6 -->
<g id="node6" class="node">
<title>Node6</title>
<g id="a_node6"><a xlink:href="m__Do__printf_8cpp.html" target="_top" xlink:title=" ">
<polygon fill="white" stroke="black" points="4980.5,-207 4980.5,-226 5112.5,-226 5112.5,-207 4980.5,-207"/>
<text text-anchor="middle" x="5046.5" y="-214" font-family="Helvetica,sans-Serif" font-size="10.00">src/m_Do/m_Do_printf.cpp</text>
</a>
</g>
</g>
<!-- Node2&#45;&gt;Node6 -->
<g id="edge5" class="edge">
<title>Node2&#45;&gt;Node6</title>
<path fill="none" stroke="midnightblue" d="M4877.53,-265.67C4922.09,-252.97 4981.38,-236.06 5016.58,-226.03"/>
<polygon fill="midnightblue" stroke="midnightblue" points="4876.35,-262.37 4867.69,-268.48 4878.27,-269.1 4876.35,-262.37"/>
</g>
<!-- Node7 -->
<g id="node7" class="node">
<title>Node7</title>
<g id="a_node7"><a xlink:href="d__attention_8h.html" target="_top" xlink:title=" ">
<polygon fill="white" stroke="black" points="3371,-201.5 3371,-231.5 3478,-231.5 3478,-201.5 3371,-201.5"/>
<text text-anchor="start" x="3379" y="-219.5" font-family="Helvetica,sans-Serif" font-size="10.00">include/d/d_attention</text>
<text text-anchor="middle" x="3424.5" y="-208.5" font-family="Helvetica,sans-Serif" font-size="10.00">/d_attention.h</text>
</a>
</g>
</g>
<!-- Node2&#45;&gt;Node7 -->
<g id="edge6" class="edge">
<title>Node2&#45;&gt;Node7</title>
<path fill="none" stroke="midnightblue" d="M4747.02,-279.17C4501.3,-267.71 3694.6,-230.09 3478.28,-220.01"/>
<polygon fill="midnightblue" stroke="midnightblue" points="4747.1,-282.67 4757.25,-279.64 4747.43,-275.68 4747.1,-282.67"/>
</g>
<!-- Node8 -->
<g id="node8" class="node">
<title>Node8</title>
<g id="a_node8"><a xlink:href="d__com__inf__game_8h.html" target="_top" xlink:title=" ">
<polygon fill="white" stroke="black" points="2108.5,-134.5 2108.5,-164.5 2254.5,-164.5 2254.5,-134.5 2108.5,-134.5"/>
<text text-anchor="start" x="2116.5" y="-152.5" font-family="Helvetica,sans-Serif" font-size="10.00">include/d/d_com/d_com</text>
<text text-anchor="middle" x="2181.5" y="-141.5" font-family="Helvetica,sans-Serif" font-size="10.00">_inf_game/d_com_inf_game.h</text>
</a>
</g>
</g>
<!-- Node7&#45;&gt;Node8 -->
<g id="edge7" class="edge">
<title>Node7&#45;&gt;Node8</title>
<path fill="none" stroke="midnightblue" d="M3360.41,-212.15C3149.63,-201.13 2478.6,-166.04 2254.88,-154.34"/>
<polygon fill="midnightblue" stroke="midnightblue" points="3360.52,-215.66 3370.69,-212.69 3360.89,-208.67 3360.52,-215.66"/>
</g>
<!-- Node8&#45;&gt;Node3 -->
<g id="edge10" class="edge">
<title>Node8&#45;&gt;Node3</title>
<path fill="none" stroke="midnightblue" d="M2264.75,-148.26C2701.67,-146.86 4711.86,-138.2 4761.5,-98 4781.37,-81.91 4782.9,-49.42 4781.92,-30.69"/>
<polygon fill="midnightblue" stroke="midnightblue" points="2264.71,-144.76 2254.72,-148.3 2264.73,-151.76 2264.71,-144.76"/>
</g>
<!-- Node8&#45;&gt;Node5 -->
<g id="edge34" class="edge">
<title>Node8&#45;&gt;Node5</title>
<path fill="none" stroke="midnightblue" d="M2098.41,-147.2C1740.75,-141.49 341.58,-118.08 145.5,-98 132.44,-96.66 118.31,-94.38 105.61,-92.02"/>
<polygon fill="midnightblue" stroke="midnightblue" points="2098.38,-150.7 2108.44,-147.36 2098.49,-143.7 2098.38,-150.7"/>
</g>
<!-- Node9 -->
<g id="node9" class="node">
<title>Node9</title>
<g id="a_node9"><a xlink:href="d__attention_8cpp.html" target="_top" xlink:title=" ">
<polygon fill="white" stroke="black" points="108,-6 108,-25 215,-25 215,-6 108,-6"/>
<text text-anchor="middle" x="161.5" y="-13" font-family="Helvetica,sans-Serif" font-size="10.00">src/d/d_attention.cpp</text>
</a>
</g>
</g>
<!-- Node8&#45;&gt;Node9 -->
<g id="edge8" class="edge">
<title>Node8&#45;&gt;Node9</title>
<path fill="none" stroke="midnightblue" d="M2098.29,-147.1C1722.05,-140.66 197.23,-113.62 178.5,-98 156.86,-79.95 158.32,-42.11 160.25,-25.1"/>
<polygon fill="midnightblue" stroke="midnightblue" points="2098.24,-150.59 2108.29,-147.27 2098.35,-143.6 2098.24,-150.59"/>
</g>
<!-- Node10 -->
<g id="node10" class="node">
<title>Node10</title>
<g id="a_node10"><a xlink:href="d__camera_8cpp.html" target="_top" xlink:title=" ">
<polygon fill="white" stroke="black" points="516.5,-73 516.5,-92 618.5,-92 618.5,-73 516.5,-73"/>
<text text-anchor="middle" x="567.5" y="-80" font-family="Helvetica,sans-Serif" font-size="10.00">src/d/d_camera.cpp</text>
</a>
</g>
</g>
<!-- Node8&#45;&gt;Node10 -->
<g id="edge9" class="edge">
<title>Node8&#45;&gt;Node10</title>
<path fill="none" stroke="midnightblue" d="M2098.08,-148.08C1818.28,-146.32 914.61,-137.64 626.5,-98 616.78,-96.66 606.34,-94.38 596.98,-92.02"/>
<polygon fill="midnightblue" stroke="midnightblue" points="2098.14,-151.58 2108.16,-148.14 2098.19,-144.58 2098.14,-151.58"/>
</g>
<!-- Node11 -->
<g id="node11" class="node">
<title>Node11</title>
<g id="a_node11"><a xlink:href="d__file__sel__info_8cpp.html" target="_top" xlink:title=" ">
<polygon fill="white" stroke="black" points="636,-67.5 636,-97.5 725,-97.5 725,-67.5 636,-67.5"/>
<text text-anchor="start" x="644" y="-85.5" font-family="Helvetica,sans-Serif" font-size="10.00">src/d/d_file/d_file</text>
<text text-anchor="middle" x="680.5" y="-74.5" font-family="Helvetica,sans-Serif" font-size="10.00">_sel_info.cpp</text>
</a>
</g>
</g>
<!-- Node8&#45;&gt;Node11 -->
<g id="edge11" class="edge">
<title>Node8&#45;&gt;Node11</title>
<path fill="none" stroke="midnightblue" d="M2098.05,-148.08C1831.14,-146.34 1000.21,-137.78 734.5,-98 731.43,-97.54 728.28,-96.97 725.12,-96.32"/>
<polygon fill="midnightblue" stroke="midnightblue" points="2098.42,-151.58 2108.44,-148.14 2098.47,-144.58 2098.42,-151.58"/>
</g>
<!-- Node12 -->
<g id="node12" class="node">
<title>Node12</title>
<g id="a_node12"><a xlink:href="d__item_8cpp.html" target="_top" xlink:title=" ">
<polygon fill="white" stroke="black" points="632,-6 632,-25 753,-25 753,-6 632,-6"/>
<text text-anchor="middle" x="692.5" y="-13" font-family="Helvetica,sans-Serif" font-size="10.00">src/d/d_item/d_item.cpp</text>
</a>
</g>
</g>
<!-- Node8&#45;&gt;Node12 -->
<g id="edge12" class="edge">
<title>Node8&#45;&gt;Node12</title>
<path fill="none" stroke="midnightblue" d="M2098.14,-147.55C1763.64,-143.53 535.48,-126.83 507.5,-98 465.52,-54.74 563.14,-32.84 631.94,-23.11"/>
<polygon fill="midnightblue" stroke="midnightblue" points="2098.2,-151.05 2108.24,-147.67 2098.29,-144.05 2098.2,-151.05"/>
</g>
<!-- Node13 -->
<g id="node13" class="node">
<title>Node13</title>
<g id="a_node13"><a xlink:href="d__kankyo__rain_8cpp.html" target="_top" xlink:title=" ">
<polygon fill="white" stroke="black" points="858,-67.5 858,-97.5 985,-97.5 985,-67.5 858,-67.5"/>
<text text-anchor="start" x="866" y="-85.5" font-family="Helvetica,sans-Serif" font-size="10.00">src/d/d_kankyo/d_kankyo</text>
<text text-anchor="middle" x="921.5" y="-74.5" font-family="Helvetica,sans-Serif" font-size="10.00">_rain.cpp</text>
</a>
</g>
</g>
<!-- Node8&#45;&gt;Node13 -->
<g id="edge13" class="edge">
<title>Node8&#45;&gt;Node13</title>
<path fill="none" stroke="midnightblue" d="M2098.2,-146.65C1864.85,-141.21 1207.8,-123.97 993.5,-98 990.72,-97.66 987.88,-97.28 985.02,-96.85"/>
<polygon fill="midnightblue" stroke="midnightblue" points="2098.25,-150.16 2108.32,-146.89 2098.41,-143.16 2098.25,-150.16"/>
</g>
<!-- Node14 -->
<g id="node14" class="node">
<title>Node14</title>
<g id="a_node14"><a xlink:href="d__kankyo__wether_8cpp.html" target="_top" xlink:title=" ">
<polygon fill="white" stroke="black" points="1003,-67.5 1003,-97.5 1130,-97.5 1130,-67.5 1003,-67.5"/>
<text text-anchor="start" x="1011" y="-85.5" font-family="Helvetica,sans-Serif" font-size="10.00">src/d/d_kankyo/d_kankyo</text>
<text text-anchor="middle" x="1066.5" y="-74.5" font-family="Helvetica,sans-Serif" font-size="10.00">_wether.cpp</text>
</a>
</g>
</g>
<!-- Node8&#45;&gt;Node14 -->
<g id="edge14" class="edge">
<title>Node8&#45;&gt;Node14</title>
<path fill="none" stroke="midnightblue" d="M2098.44,-148.71C1921.31,-148.22 1493.67,-142.11 1138.5,-98 1135.72,-97.65 1132.88,-97.26 1130.02,-96.83"/>
<polygon fill="midnightblue" stroke="midnightblue" points="2098.46,-152.21 2108.47,-148.73 2098.48,-145.21 2098.46,-152.21"/>
</g>
<!-- Node15 -->
<g id="node15" class="node">
<title>Node15</title>
<g id="a_node15"><a xlink:href="d__kankyo_8cpp.html" target="_top" xlink:title=" ">
<polygon fill="white" stroke="black" points="1148,-73 1148,-92 1249,-92 1249,-73 1148,-73"/>
<text text-anchor="middle" x="1198.5" y="-80" font-family="Helvetica,sans-Serif" font-size="10.00">src/d/d_kankyo.cpp</text>
</a>
</g>
</g>
<!-- Node8&#45;&gt;Node15 -->
<g id="edge15" class="edge">
<title>Node8&#45;&gt;Node15</title>
<path fill="none" stroke="midnightblue" d="M2097.84,-149.13C1935.08,-149.2 1564.79,-143.75 1257.5,-98 1248.01,-96.59 1237.81,-94.35 1228.6,-92.04"/>
<polygon fill="midnightblue" stroke="midnightblue" points="2098.27,-152.62 2108.26,-149.11 2098.26,-145.62 2098.27,-152.62"/>
</g>
<!-- Node16 -->
<g id="node16" class="node">
<title>Node16</title>
<g id="a_node16"><a xlink:href="d__kantera__icon__meter_8cpp.html" target="_top" xlink:title=" ">
<polygon fill="white" stroke="black" points="1267,-67.5 1267,-97.5 1374,-97.5 1374,-67.5 1267,-67.5"/>
<text text-anchor="start" x="1275" y="-85.5" font-family="Helvetica,sans-Serif" font-size="10.00">src/d/d_kantera_icon</text>
<text text-anchor="middle" x="1320.5" y="-74.5" font-family="Helvetica,sans-Serif" font-size="10.00">_meter.cpp</text>
</a>
</g>
</g>
<!-- Node8&#45;&gt;Node16 -->
<g id="edge16" class="edge">
<title>Node8&#45;&gt;Node16</title>
<path fill="none" stroke="midnightblue" d="M2098.15,-147.79C1952.31,-145.54 1641.66,-136.22 1382.5,-98 1379.77,-97.6 1376.97,-97.13 1374.16,-96.63"/>
<polygon fill="midnightblue" stroke="midnightblue" points="2098.32,-151.29 2108.37,-147.94 2098.42,-144.29 2098.32,-151.29"/>
</g>
<!-- Node17 -->
<g id="node17" class="node">
<title>Node17</title>
<g id="a_node17"><a xlink:href="d__kyeff_8cpp.html" target="_top" xlink:title=" ">
<polygon fill="white" stroke="black" points="1392,-73 1392,-92 1505,-92 1505,-73 1392,-73"/>
<text text-anchor="middle" x="1448.5" y="-80" font-family="Helvetica,sans-Serif" font-size="10.00">src/d/d_ky/d_kyeff.cpp</text>
</a>
</g>
</g>
<!-- Node8&#45;&gt;Node17 -->
<g id="edge17" class="edge">
<title>Node8&#45;&gt;Node17</title>
<path fill="none" stroke="midnightblue" d="M2098.44,-146.06C1971.7,-141.48 1722.67,-129.07 1513.5,-98 1503.32,-96.49 1492.36,-94.27 1482.4,-92.03"/>
<polygon fill="midnightblue" stroke="midnightblue" points="2098.35,-149.56 2108.47,-146.42 2098.6,-142.57 2098.35,-149.56"/>
</g>
<!-- Node18 -->
<g id="node18" class="node">
<title>Node18</title>
<g id="a_node18"><a xlink:href="d__meter__button_8cpp.html" target="_top" xlink:title=" ">
<polygon fill="white" stroke="black" points="1523,-67.5 1523,-97.5 1638,-97.5 1638,-67.5 1523,-67.5"/>
<text text-anchor="start" x="1531" y="-85.5" font-family="Helvetica,sans-Serif" font-size="10.00">src/d/d_meter/d_meter</text>
<text text-anchor="middle" x="1580.5" y="-74.5" font-family="Helvetica,sans-Serif" font-size="10.00">_button.cpp</text>
</a>
</g>
</g>
<!-- Node8&#45;&gt;Node18 -->
<g id="edge18" class="edge">
<title>Node8&#45;&gt;Node18</title>
<path fill="none" stroke="midnightblue" d="M2098.19,-143.8C1992.62,-137.12 1805.28,-122.84 1646.5,-98 1643.72,-97.56 1640.88,-97.08 1638.01,-96.57"/>
<polygon fill="midnightblue" stroke="midnightblue" points="2098.26,-147.31 2108.46,-144.44 2098.7,-140.32 2098.26,-147.31"/>
</g>
<!-- Node19 -->
<g id="node19" class="node">
<title>Node19</title>
<g id="a_node19"><a xlink:href="d__meter__haihai_8cpp.html" target="_top" xlink:title=" ">
<polygon fill="white" stroke="black" points="1656,-67.5 1656,-97.5 1771,-97.5 1771,-67.5 1656,-67.5"/>
<text text-anchor="start" x="1664" y="-85.5" font-family="Helvetica,sans-Serif" font-size="10.00">src/d/d_meter/d_meter</text>
<text text-anchor="middle" x="1713.5" y="-74.5" font-family="Helvetica,sans-Serif" font-size="10.00">_haihai.cpp</text>
</a>
</g>
</g>
<!-- Node8&#45;&gt;Node19 -->
<g id="edge19" class="edge">
<title>Node8&#45;&gt;Node19</title>
<path fill="none" stroke="midnightblue" d="M2098.01,-140.26C2016.47,-131.68 1889.02,-116.87 1779.5,-98 1776.73,-97.52 1773.89,-97.01 1771.03,-96.46"/>
<polygon fill="midnightblue" stroke="midnightblue" points="2097.9,-143.77 2108.21,-141.33 2098.63,-136.8 2097.9,-143.77"/>
</g>
<!-- Node20 -->
<g id="node20" class="node">
<title>Node20</title>
<g id="a_node20"><a xlink:href="d__meter__hakusha_8cpp.html" target="_top" xlink:title=" ">
<polygon fill="white" stroke="black" points="1789,-67.5 1789,-97.5 1904,-97.5 1904,-67.5 1789,-67.5"/>
<text text-anchor="start" x="1797" y="-85.5" font-family="Helvetica,sans-Serif" font-size="10.00">src/d/d_meter/d_meter</text>
<text text-anchor="middle" x="1846.5" y="-74.5" font-family="Helvetica,sans-Serif" font-size="10.00">_hakusha.cpp</text>
</a>
</g>
</g>
<!-- Node8&#45;&gt;Node20 -->
<g id="edge20" class="edge">
<title>Node8&#45;&gt;Node20</title>
<path fill="none" stroke="midnightblue" d="M2098.25,-133.55C2045.04,-123.83 1974.61,-110.65 1912.5,-98 1909.74,-97.44 1906.92,-96.85 1904.07,-96.26"/>
<polygon fill="midnightblue" stroke="midnightblue" points="2097.85,-137.04 2108.31,-135.39 2099.1,-130.15 2097.85,-137.04"/>
</g>
<!-- Node21 -->
<g id="node21" class="node">
<title>Node21</title>
<g id="a_node21"><a xlink:href="d__meter__map_8cpp.html" target="_top" xlink:title=" ">
<polygon fill="white" stroke="black" points="1922,-67.5 1922,-97.5 2037,-97.5 2037,-67.5 1922,-67.5"/>
<text text-anchor="start" x="1930" y="-85.5" font-family="Helvetica,sans-Serif" font-size="10.00">src/d/d_meter/d_meter</text>
<text text-anchor="middle" x="1979.5" y="-74.5" font-family="Helvetica,sans-Serif" font-size="10.00">_map.cpp</text>
</a>
</g>
</g>
<!-- Node8&#45;&gt;Node21 -->
<g id="edge21" class="edge">
<title>Node8&#45;&gt;Node21</title>
<path fill="none" stroke="midnightblue" d="M2127.82,-131.23C2095.15,-120.71 2053.93,-107.45 2023.25,-97.58"/>
<polygon fill="midnightblue" stroke="midnightblue" points="2127.08,-134.66 2137.67,-134.4 2129.22,-128 2127.08,-134.66"/>
</g>
<!-- Node22 -->
<g id="node22" class="node">
<title>Node22</title>
<g id="a_node22"><a xlink:href="d__meter__string_8cpp.html" target="_top" xlink:title=" ">
<polygon fill="white" stroke="black" points="2055,-67.5 2055,-97.5 2170,-97.5 2170,-67.5 2055,-67.5"/>
<text text-anchor="start" x="2063" y="-85.5" font-family="Helvetica,sans-Serif" font-size="10.00">src/d/d_meter/d_meter</text>
<text text-anchor="middle" x="2112.5" y="-74.5" font-family="Helvetica,sans-Serif" font-size="10.00">_string.cpp</text>
</a>
</g>
</g>
<!-- Node8&#45;&gt;Node22 -->
<g id="edge22" class="edge">
<title>Node8&#45;&gt;Node22</title>
<path fill="none" stroke="midnightblue" d="M2159.01,-127.31C2148.66,-117.56 2136.66,-106.26 2127.44,-97.58"/>
<polygon fill="midnightblue" stroke="midnightblue" points="2156.85,-130.09 2166.53,-134.4 2161.65,-124.99 2156.85,-130.09"/>
</g>
<!-- Node23 -->
<g id="node23" class="node">
<title>Node23</title>
<g id="a_node23"><a xlink:href="d__meter2__draw_8cpp.html" target="_top" xlink:title=" ">
<polygon fill="white" stroke="black" points="2188,-67.5 2188,-97.5 2313,-97.5 2313,-67.5 2188,-67.5"/>
<text text-anchor="start" x="2196" y="-85.5" font-family="Helvetica,sans-Serif" font-size="10.00">src/d/d_meter2/d_meter2</text>
<text text-anchor="middle" x="2250.5" y="-74.5" font-family="Helvetica,sans-Serif" font-size="10.00">_draw.cpp</text>
</a>
</g>
</g>
<!-- Node8&#45;&gt;Node23 -->
<g id="edge23" class="edge">
<title>Node8&#45;&gt;Node23</title>
<path fill="none" stroke="midnightblue" d="M2203.99,-127.31C2214.34,-117.56 2226.34,-106.26 2235.56,-97.58"/>
<polygon fill="midnightblue" stroke="midnightblue" points="2201.35,-124.99 2196.47,-134.4 2206.15,-130.09 2201.35,-124.99"/>
</g>
<!-- Node24 -->
<g id="node24" class="node">
<title>Node24</title>
<g id="a_node24"><a xlink:href="d__meter2__info_8cpp.html" target="_top" xlink:title=" ">
<polygon fill="white" stroke="black" points="2331,-67.5 2331,-97.5 2456,-97.5 2456,-67.5 2331,-67.5"/>
<text text-anchor="start" x="2339" y="-85.5" font-family="Helvetica,sans-Serif" font-size="10.00">src/d/d_meter2/d_meter2</text>
<text text-anchor="middle" x="2393.5" y="-74.5" font-family="Helvetica,sans-Serif" font-size="10.00">_info.cpp</text>
</a>
</g>
</g>
<!-- Node8&#45;&gt;Node24 -->
<g id="edge24" class="edge">
<title>Node8&#45;&gt;Node24</title>
<path fill="none" stroke="midnightblue" d="M2237.13,-131.44C2271.49,-120.91 2315.06,-107.55 2347.48,-97.61"/>
<polygon fill="midnightblue" stroke="midnightblue" points="2235.77,-128.2 2227.24,-134.48 2237.83,-134.89 2235.77,-128.2"/>
</g>
<!-- Node25 -->
<g id="node25" class="node">
<title>Node25</title>
<g id="a_node25"><a xlink:href="d__meter2_8cpp.html" target="_top" xlink:title=" ">
<polygon fill="white" stroke="black" points="2474.5,-73 2474.5,-92 2574.5,-92 2574.5,-73 2474.5,-73"/>
<text text-anchor="middle" x="2524.5" y="-80" font-family="Helvetica,sans-Serif" font-size="10.00">src/d/d_meter2.cpp</text>
</a>
</g>
</g>
<!-- Node8&#45;&gt;Node25 -->
<g id="edge25" class="edge">
<title>Node8&#45;&gt;Node25</title>
<path fill="none" stroke="midnightblue" d="M2264.69,-135.02C2321.21,-125.52 2397.57,-112.05 2464.5,-98 2473,-96.22 2482.12,-94.11 2490.63,-92.06"/>
<polygon fill="midnightblue" stroke="midnightblue" points="2264.02,-131.58 2254.73,-136.68 2265.18,-138.48 2264.02,-131.58"/>
</g>
<!-- Node26 -->
<g id="node26" class="node">
<title>Node26</title>
<g id="a_node26"><a xlink:href="d__save_8cpp.html" target="_top" xlink:title=" ">
<polygon fill="white" stroke="black" points="2593,-73 2593,-92 2718,-92 2718,-73 2593,-73"/>
<text text-anchor="middle" x="2655.5" y="-80" font-family="Helvetica,sans-Serif" font-size="10.00">src/d/d_save/d_save.cpp</text>
</a>
</g>
</g>
<!-- Node8&#45;&gt;Node26 -->
<g id="edge26" class="edge">
<title>Node8&#45;&gt;Node26</title>
<path fill="none" stroke="midnightblue" d="M2264.92,-139.84C2346.4,-130.95 2473.82,-115.91 2583.5,-98 2594.07,-96.27 2605.46,-94.12 2615.98,-92"/>
<polygon fill="midnightblue" stroke="midnightblue" points="2264.29,-136.38 2254.72,-140.94 2265.04,-143.34 2264.29,-136.38"/>
</g>
<!-- Node27 -->
<g id="node27" class="node">
<title>Node27</title>
<g id="a_node27"><a xlink:href="d__save__HIO_8cpp.html" target="_top" xlink:title=" ">
<polygon fill="white" stroke="black" points="2736,-67.5 2736,-97.5 2843,-97.5 2843,-67.5 2736,-67.5"/>
<text text-anchor="start" x="2744" y="-85.5" font-family="Helvetica,sans-Serif" font-size="10.00">src/d/d_save/d_save</text>
<text text-anchor="middle" x="2789.5" y="-74.5" font-family="Helvetica,sans-Serif" font-size="10.00">_HIO.cpp</text>
</a>
</g>
</g>
<!-- Node8&#45;&gt;Node27 -->
<g id="edge27" class="edge">
<title>Node8&#45;&gt;Node27</title>
<path fill="none" stroke="midnightblue" d="M2264.9,-144.36C2372.38,-138.21 2564.79,-124.42 2727.5,-98 2730.23,-97.56 2733.01,-97.06 2735.82,-96.53"/>
<polygon fill="midnightblue" stroke="midnightblue" points="2264.55,-140.87 2254.76,-144.93 2264.95,-147.86 2264.55,-140.87"/>
</g>
<!-- Node28 -->
<g id="node28" class="node">
<title>Node28</title>
<g id="a_node28"><a xlink:href="d__stage_8cpp.html" target="_top" xlink:title=" ">
<polygon fill="white" stroke="black" points="2861.5,-73 2861.5,-92 2955.5,-92 2955.5,-73 2861.5,-73"/>
<text text-anchor="middle" x="2908.5" y="-80" font-family="Helvetica,sans-Serif" font-size="10.00">src/d/d_stage.cpp</text>
</a>
</g>
</g>
<!-- Node8&#45;&gt;Node28 -->
<g id="edge28" class="edge">
<title>Node8&#45;&gt;Node28</title>
<path fill="none" stroke="midnightblue" d="M2265.07,-146.99C2392.57,-143.6 2642.94,-132.73 2852.5,-98 2861.42,-96.52 2870.99,-94.29 2879.65,-92.02"/>
<polygon fill="midnightblue" stroke="midnightblue" points="2264.9,-143.49 2254.99,-147.24 2265.07,-150.49 2264.9,-143.49"/>
</g>
<!-- Node29 -->
<g id="node29" class="node">
<title>Node29</title>
<g id="a_node29"><a xlink:href="f__pc__manager_8cpp.html" target="_top" xlink:title=" ">
<polygon fill="white" stroke="black" points="374.5,-6 374.5,-25 514.5,-25 514.5,-6 374.5,-6"/>
<text text-anchor="middle" x="444.5" y="-13" font-family="Helvetica,sans-Serif" font-size="10.00">src/f/f_pc/f_pc_manager.cpp</text>
</a>
</g>
</g>
<!-- Node8&#45;&gt;Node29 -->
<g id="edge29" class="edge">
<title>Node8&#45;&gt;Node29</title>
<path fill="none" stroke="midnightblue" d="M2098.38,-147.09C1763.37,-141.27 528.48,-118.48 493.5,-98 465.58,-81.65 451.69,-42.56 446.71,-25.14"/>
<polygon fill="midnightblue" stroke="midnightblue" points="2098.44,-150.59 2108.5,-147.27 2098.56,-143.59 2098.44,-150.59"/>
</g>
<!-- Node30 -->
<g id="node30" class="node">
<title>Node30</title>
<g id="a_node30"><a xlink:href="m__Do__audio_8cpp.html" target="_top" xlink:title=" ">
<polygon fill="white" stroke="black" points="2973.5,-73 2973.5,-92 3107.5,-92 3107.5,-73 2973.5,-73"/>
<text text-anchor="middle" x="3040.5" y="-80" font-family="Helvetica,sans-Serif" font-size="10.00">src/m_Do/m_Do_audio.cpp</text>
</a>
</g>
</g>
<!-- Node8&#45;&gt;Node30 -->
<g id="edge30" class="edge">
<title>Node8&#45;&gt;Node30</title>
<path fill="none" stroke="midnightblue" d="M2264.7,-146.52C2408.08,-142.36 2710.8,-130.26 2964.5,-98 2976.36,-96.49 2989.16,-94.28 3000.81,-92.04"/>
<polygon fill="midnightblue" stroke="midnightblue" points="2264.55,-143.03 2254.65,-146.81 2264.75,-150.02 2264.55,-143.03"/>
</g>
<!-- Node31 -->
<g id="node31" class="node">
<title>Node31</title>
<g id="a_node31"><a xlink:href="m__Do__graphic_8cpp.html" target="_top" xlink:title=" ">
<polygon fill="white" stroke="black" points="3125.5,-73 3125.5,-92 3267.5,-92 3267.5,-73 3125.5,-73"/>
<text text-anchor="middle" x="3196.5" y="-80" font-family="Helvetica,sans-Serif" font-size="10.00">src/m_Do/m_Do_graphic.cpp</text>
</a>
</g>
</g>
<!-- Node8&#45;&gt;Node31 -->
<g id="edge31" class="edge">
<title>Node8&#45;&gt;Node31</title>
<path fill="none" stroke="midnightblue" d="M2264.99,-147.5C2428.81,-144.75 2803.68,-134.65 3116.5,-98 3129.12,-96.52 3142.75,-94.29 3155.13,-92.02"/>
<polygon fill="midnightblue" stroke="midnightblue" points="2264.45,-144 2254.51,-147.67 2264.56,-151 2264.45,-144"/>
</g>
<!-- Node32 -->
<g id="node32" class="node">
<title>Node32</title>
<g id="a_node32"><a xlink:href="m__Do__lib_8cpp.html" target="_top" xlink:title=" ">
<polygon fill="white" stroke="black" points="3285.5,-73 3285.5,-92 3405.5,-92 3405.5,-73 3285.5,-73"/>
<text text-anchor="middle" x="3345.5" y="-80" font-family="Helvetica,sans-Serif" font-size="10.00">src/m_Do/m_Do_lib.cpp</text>
</a>
</g>
</g>
<!-- Node8&#45;&gt;Node32 -->
<g id="edge32" class="edge">
<title>Node8&#45;&gt;Node32</title>
<path fill="none" stroke="midnightblue" d="M2264.68,-149.22C2448.15,-149.8 2901.08,-145.79 3276.5,-98 3287.55,-96.59 3299.46,-94.35 3310.23,-92.05"/>
<polygon fill="midnightblue" stroke="midnightblue" points="2264.58,-145.72 2254.57,-149.18 2264.55,-152.72 2264.58,-145.72"/>
</g>
<!-- Node33 -->
<g id="node33" class="node">
<title>Node33</title>
<g id="a_node33"><a xlink:href="m__Do__machine__exception_8cpp.html" target="_top" xlink:title=" ">
<polygon fill="white" stroke="black" points="3424,-67.5 3424,-97.5 3553,-97.5 3553,-67.5 3424,-67.5"/>
<text text-anchor="start" x="3432" y="-85.5" font-family="Helvetica,sans-Serif" font-size="10.00">src/m_Do/m_Do_machine</text>
<text text-anchor="middle" x="3488.5" y="-74.5" font-family="Helvetica,sans-Serif" font-size="10.00">_exception.cpp</text>
</a>
</g>
</g>
<!-- Node8&#45;&gt;Node33 -->
<g id="edge33" class="edge">
<title>Node8&#45;&gt;Node33</title>
<path fill="none" stroke="midnightblue" d="M2264.62,-146.75C2503.81,-141.45 3190.98,-124.32 3414.5,-98 3417.49,-97.65 3420.54,-97.24 3423.62,-96.79"/>
<polygon fill="midnightblue" stroke="midnightblue" points="2264.51,-143.25 2254.59,-146.97 2264.67,-150.25 2264.51,-143.25"/>
</g>
<!-- Node34 -->
<g id="node34" class="node">
<title>Node34</title>
<g id="a_node34"><a xlink:href="m__Do__ext_8cpp.html" target="_top" xlink:title=" ">
<polygon fill="white" stroke="black" points="3571,-73 3571,-92 3694,-92 3694,-73 3571,-73"/>
<text text-anchor="middle" x="3632.5" y="-80" font-family="Helvetica,sans-Serif" font-size="10.00">src/m_Do/m_Do_ext.cpp</text>
</a>
</g>
</g>
<!-- Node8&#45;&gt;Node34 -->
<g id="edge35" class="edge">
<title>Node8&#45;&gt;Node34</title>
<path fill="none" stroke="midnightblue" d="M2264.62,-147.29C2522.86,-143.24 3309.1,-128.66 3562.5,-98 3573.84,-96.63 3586.06,-94.37 3597.08,-92.04"/>
<polygon fill="midnightblue" stroke="midnightblue" points="2264.5,-143.79 2254.56,-147.45 2264.61,-150.79 2264.5,-143.79"/>
</g>
<!-- Node35 -->
<g id="node35" class="node">
<title>Node35</title>
<g id="a_node35"><a xlink:href="m__Do__MemCardRWmng_8cpp.html" target="_top" xlink:title=" ">
<polygon fill="white" stroke="black" points="3712,-73 3712,-92 3899,-92 3899,-73 3712,-73"/>
<text text-anchor="middle" x="3805.5" y="-80" font-family="Helvetica,sans-Serif" font-size="10.00">src/m_Do/m_Do_MemCardRWmng.cpp</text>
</a>
</g>
</g>
<!-- Node8&#45;&gt;Node35 -->
<g id="edge36" class="edge">
<title>Node8&#45;&gt;Node35</title>
<path fill="none" stroke="midnightblue" d="M2264.82,-148.89C2494.54,-149.29 3156.19,-145.84 3703.5,-98 3719.8,-96.57 3737.48,-94.32 3753.47,-92"/>
<polygon fill="midnightblue" stroke="midnightblue" points="2264.54,-145.39 2254.54,-148.87 2264.53,-152.39 2264.54,-145.39"/>
</g>
<!-- Node36 -->
<g id="node36" class="node">
<title>Node36</title>
<g id="a_node36"><a xlink:href="Z2LinkMgr_8cpp.html" target="_top" xlink:title=" ">
<polygon fill="white" stroke="black" points="3917.5,-73 3917.5,-92 4069.5,-92 4069.5,-73 3917.5,-73"/>
<text text-anchor="middle" x="3993.5" y="-80" font-family="Helvetica,sans-Serif" font-size="10.00">libs/Z2AudioLib/Z2LinkMgr.cpp</text>
</a>
</g>
</g>
<!-- Node8&#45;&gt;Node36 -->
<g id="edge37" class="edge">
<title>Node8&#45;&gt;Node36</title>
<path fill="none" stroke="midnightblue" d="M2265.23,-147.6C2564.99,-144.15 3584.02,-130.26 3908.5,-98 3922.2,-96.64 3937.04,-94.38 3950.42,-92.05"/>
<polygon fill="midnightblue" stroke="midnightblue" points="2264.83,-144.11 2254.87,-147.72 2264.91,-151.11 2264.83,-144.11"/>
</g>
<!-- Node37 -->
<g id="node37" class="node">
<title>Node37</title>
<g id="a_node37"><a xlink:href="Z2EnvSeMgr_8cpp.html" target="_top" xlink:title=" ">
<polygon fill="white" stroke="black" points="4088,-73 4088,-92 4249,-92 4249,-73 4088,-73"/>
<text text-anchor="middle" x="4168.5" y="-80" font-family="Helvetica,sans-Serif" font-size="10.00">libs/Z2AudioLib/Z2EnvSeMgr.cpp</text>
</a>
</g>
</g>
<!-- Node8&#45;&gt;Node37 -->
<g id="edge38" class="edge">
<title>Node8&#45;&gt;Node37</title>
<path fill="none" stroke="midnightblue" d="M2264.81,-147.76C2582.59,-144.7 3718.71,-131.62 4078.5,-98 4093,-96.65 4108.7,-94.39 4122.87,-92.06"/>
<polygon fill="midnightblue" stroke="midnightblue" points="2264.72,-144.26 2254.75,-147.86 2264.78,-151.26 2264.72,-144.26"/>
</g>
<!-- Node38 -->
<g id="node38" class="node">
<title>Node38</title>
<g id="a_node38"><a xlink:href="Z2SceneMgr_8cpp.html" target="_top" xlink:title=" ">
<polygon fill="white" stroke="black" points="4267,-73 4267,-92 4428,-92 4428,-73 4267,-73"/>
<text text-anchor="middle" x="4347.5" y="-80" font-family="Helvetica,sans-Serif" font-size="10.00">libs/Z2AudioLib/Z2SceneMgr.cpp</text>
</a>
</g>
</g>
<!-- Node8&#45;&gt;Node38 -->
<g id="edge39" class="edge">
<title>Node8&#45;&gt;Node38</title>
<path fill="none" stroke="midnightblue" d="M2264.71,-148C2601.13,-145.75 3861.5,-134.99 4258.5,-98 4273,-96.65 4288.71,-94.37 4302.83,-92.01"/>
<polygon fill="midnightblue" stroke="midnightblue" points="2264.53,-144.5 2254.56,-148.07 2264.58,-151.5 2264.53,-144.5"/>
</g>
<!-- Node39 -->
<g id="node39" class="node">
<title>Node39</title>
<g id="a_node39"><a xlink:href="Z2SoundMgr_8cpp.html" target="_top" xlink:title=" ">
<polygon fill="white" stroke="black" points="4446,-73 4446,-92 4607,-92 4607,-73 4446,-73"/>
<text text-anchor="middle" x="4526.5" y="-80" font-family="Helvetica,sans-Serif" font-size="10.00">libs/Z2AudioLib/Z2SoundMgr.cpp</text>
</a>
</g>
</g>
<!-- Node8&#45;&gt;Node39 -->
<g id="edge40" class="edge">
<title>Node8&#45;&gt;Node39</title>
<path fill="none" stroke="midnightblue" d="M2264.73,-148.19C2619.03,-146.62 4003.39,-138.03 4437.5,-98 4452,-96.66 4467.71,-94.38 4481.84,-92.02"/>
<polygon fill="midnightblue" stroke="midnightblue" points="2264.53,-144.69 2254.55,-148.23 2264.56,-151.69 2264.53,-144.69"/>
</g>
<!-- Node40 -->
<g id="node40" class="node">
<title>Node40</title>
<g id="a_node40"><a xlink:href="Z2StatusMgr_8cpp.html" target="_top" xlink:title=" ">
<polygon fill="white" stroke="black" points="4625,-67.5 4625,-97.5 4752,-97.5 4752,-67.5 4625,-67.5"/>
<text text-anchor="start" x="4633" y="-85.5" font-family="Helvetica,sans-Serif" font-size="10.00">libs/Z2AudioLib/Z2Status</text>
<text text-anchor="middle" x="4688.5" y="-74.5" font-family="Helvetica,sans-Serif" font-size="10.00">Mgr.cpp</text>
</a>
</g>
</g>
<!-- Node8&#45;&gt;Node40 -->
<g id="edge41" class="edge">
<title>Node8&#45;&gt;Node40</title>
<path fill="none" stroke="midnightblue" d="M2264.85,-148.76C2636.66,-149.63 4146.11,-149.83 4616.5,-98 4619.29,-97.69 4622.13,-97.33 4624.99,-96.93"/>
<polygon fill="midnightblue" stroke="midnightblue" points="2264.72,-145.26 2254.71,-148.74 2264.7,-152.26 2264.72,-145.26"/>
</g>
<!-- Node41 -->
<g id="node41" class="node">
<title>Node41</title>
<g id="a_node41"><a xlink:href="d__a__alink_8h.html" target="_top" xlink:title=" ">
<polygon fill="white" stroke="black" points="188,-67.5 188,-97.5 307,-97.5 307,-67.5 188,-67.5"/>
<text text-anchor="start" x="196" y="-85.5" font-family="Helvetica,sans-Serif" font-size="10.00">include/d/d_a/d_a_alink</text>
<text text-anchor="middle" x="247.5" y="-74.5" font-family="Helvetica,sans-Serif" font-size="10.00">/d_a_alink.h</text>
</a>
</g>
</g>
<!-- Node8&#45;&gt;Node41 -->
<g id="edge42" class="edge">
<title>Node8&#45;&gt;Node41</title>
<path fill="none" stroke="midnightblue" d="M2098.19,-147.14C1759.26,-141.51 493.61,-119.22 315.5,-98 312.74,-97.67 309.93,-97.29 307.1,-96.85"/>
<polygon fill="midnightblue" stroke="midnightblue" points="2098.36,-150.65 2108.42,-147.31 2098.48,-143.65 2098.36,-150.65"/>
</g>
<!-- Node43 -->
<g id="node43" class="node">
<title>Node43</title>
<g id="a_node43"><a xlink:href="d__item_8h.html" target="_top" xlink:title=" ">
<polygon fill="white" stroke="black" points="743.5,-67.5 743.5,-97.5 839.5,-97.5 839.5,-67.5 743.5,-67.5"/>
<text text-anchor="start" x="751.5" y="-85.5" font-family="Helvetica,sans-Serif" font-size="10.00">include/d/d_item/d</text>
<text text-anchor="middle" x="791.5" y="-74.5" font-family="Helvetica,sans-Serif" font-size="10.00">_item/d_item.h</text>
</a>
</g>
</g>
<!-- Node8&#45;&gt;Node43 -->
<g id="edge45" class="edge">
<title>Node8&#45;&gt;Node43</title>
<path fill="none" stroke="midnightblue" d="M2098.21,-147.65C1845.73,-144.69 1091.39,-133.09 848.5,-98 845.57,-97.58 842.57,-97.06 839.56,-96.49"/>
<polygon fill="midnightblue" stroke="midnightblue" points="2098.38,-151.15 2108.42,-147.76 2098.46,-144.15 2098.38,-151.15"/>
</g>
<!-- Node44 -->
<g id="node44" class="node">
<title>Node44</title>
<g id="a_node44"><a xlink:href="f__pc__manager_8h.html" target="_top" xlink:title=" ">
<polygon fill="white" stroke="black" points="325,-67.5 325,-97.5 422,-97.5 422,-67.5 325,-67.5"/>
<text text-anchor="start" x="333" y="-85.5" font-family="Helvetica,sans-Serif" font-size="10.00">include/f/f_pc/f_pc</text>
<text text-anchor="middle" x="373.5" y="-74.5" font-family="Helvetica,sans-Serif" font-size="10.00">_manager.h</text>
</a>
</g>
</g>
<!-- Node8&#45;&gt;Node44 -->
<g id="edge48" class="edge">
<title>Node8&#45;&gt;Node44</title>
<path fill="none" stroke="midnightblue" d="M2097.98,-147.05C1772.9,-141.28 601.92,-119.22 436.5,-98 431.82,-97.4 426.99,-96.61 422.17,-95.7"/>
<polygon fill="midnightblue" stroke="midnightblue" points="2098.21,-150.56 2108.27,-147.23 2098.33,-143.56 2098.21,-150.56"/>
</g>
<!-- Node41&#45;&gt;Node9 -->
<g id="edge43" class="edge">
<title>Node41&#45;&gt;Node9</title>
<path fill="none" stroke="midnightblue" d="M220.83,-61.34C204.78,-49.21 185.17,-34.39 173,-25.19"/>
<polygon fill="midnightblue" stroke="midnightblue" points="218.75,-64.16 228.84,-67.4 222.97,-58.57 218.75,-64.16"/>
</g>
<!-- Node42 -->
<g id="node42" class="node">
<title>Node42</title>
<g id="a_node42"><a xlink:href="d__a__alink_8cpp.html" target="_top" xlink:title=" ">
<polygon fill="white" stroke="black" points="236,-6 236,-25 355,-25 355,-6 236,-6"/>
<text text-anchor="middle" x="295.5" y="-13" font-family="Helvetica,sans-Serif" font-size="10.00">src/d/d_a/d_a_alink.cpp</text>
</a>
</g>
</g>
<!-- Node41&#45;&gt;Node42 -->
<g id="edge44" class="edge">
<title>Node41&#45;&gt;Node42</title>
<path fill="none" stroke="midnightblue" d="M263.88,-59.32C272.54,-47.6 282.66,-33.88 289.08,-25.19"/>
<polygon fill="midnightblue" stroke="midnightblue" points="261.04,-57.27 257.92,-67.4 266.67,-61.43 261.04,-57.27"/>
</g>
<!-- Node43&#45;&gt;Node3 -->
<g id="edge46" class="edge">
<title>Node43&#45;&gt;Node3</title>
<path fill="none" stroke="midnightblue" d="M849.6,-67.17C1295.02,-14.38 4260.92,-15.87 4720.67,-16.41"/>
<polygon fill="midnightblue" stroke="midnightblue" points="849.03,-63.71 839.55,-68.43 849.9,-70.66 849.03,-63.71"/>
</g>
<!-- Node43&#45;&gt;Node12 -->
<g id="edge47" class="edge">
<title>Node43&#45;&gt;Node12</title>
<path fill="none" stroke="midnightblue" d="M761.51,-61.81C742.78,-49.51 719.62,-34.3 705.46,-25.01"/>
<polygon fill="midnightblue" stroke="midnightblue" points="759.74,-64.83 770.02,-67.4 763.58,-58.98 759.74,-64.83"/>
</g>
<!-- Node44&#45;&gt;Node29 -->
<g id="edge50" class="edge">
<title>Node44&#45;&gt;Node29</title>
<path fill="none" stroke="midnightblue" d="M396.62,-60.34C409.65,-48.4 425.24,-34.14 435,-25.19"/>
<polygon fill="midnightblue" stroke="midnightblue" points="393.92,-58.06 388.91,-67.4 398.65,-63.22 393.92,-58.06"/>
</g>
<!-- Node44&#45;&gt;Node42 -->
<g id="edge49" class="edge">
<title>Node44&#45;&gt;Node42</title>
<path fill="none" stroke="midnightblue" d="M348.51,-60.67C334.1,-48.67 316.76,-34.22 305.93,-25.19"/>
<polygon fill="midnightblue" stroke="midnightblue" points="346.65,-63.68 356.58,-67.4 351.13,-58.31 346.65,-63.68"/>
</g>
</g>
</svg>
