<?xml version="1.0" encoding="UTF-8" standalone="no"?>
<!DOCTYPE svg PUBLIC "-//W3C//DTD SVG 1.1//EN"
 "http://www.w3.org/Graphics/SVG/1.1/DTD/svg11.dtd">
<!-- Generated by graphviz version 2.46.0 (20210122.1329)
 -->
<!-- Title: include/JSystem/JAudio2/JAISoundStarter.h Pages: 1 -->
<svg width="990pt" height="106pt"
 viewBox="0.00 0.00 990.00 106.00" xmlns="http://www.w3.org/2000/svg" xmlns:xlink="http://www.w3.org/1999/xlink">
<g id="graph0" class="graph" transform="scale(1 1) rotate(0) translate(4 102)">
<title>include/JSystem/JAudio2/JAISoundStarter.h</title>
<polygon fill="white" stroke="transparent" points="-4,4 -4,-102 986,-102 986,4 -4,4"/>
<!-- Node1 -->
<g id="node1" class="node">
<title>Node1</title>
<g id="a_node1"><a xlink:title=" ">
<polygon fill="#bfbfbf" stroke="black" points="431.5,-67.5 431.5,-97.5 558.5,-97.5 558.5,-67.5 431.5,-67.5"/>
<text text-anchor="start" x="439.5" y="-85.5" font-family="Helvetica,sans-Serif" font-size="10.00">include/JSystem/JAudio2</text>
<text text-anchor="middle" x="495" y="-74.5" font-family="Helvetica,sans-Serif" font-size="10.00">/JAISoundStarter.h</text>
</a>
</g>
</g>
<!-- Node2 -->
<g id="node2" class="node">
<title>Node2</title>
<g id="a_node2"><a xlink:href="m__Do__audio_8cpp.html" target="_top" xlink:title=" ">
<polygon fill="white" stroke="black" points="0,-6 0,-25 134,-25 134,-6 0,-6"/>
<text text-anchor="middle" x="67" y="-13" font-family="Helvetica,sans-Serif" font-size="10.00">src/m_Do/m_Do_audio.cpp</text>
</a>
</g>
</g>
<!-- Node1&#45;&gt;Node2 -->
<g id="edge1" class="edge">
<title>Node1&#45;&gt;Node2</title>
<path fill="none" stroke="midnightblue" d="M421.04,-71.9C349.71,-62.4 238.76,-47 143,-31 132.27,-29.21 120.72,-27.1 109.94,-25.05"/>
<polygon fill="midnightblue" stroke="midnightblue" points="420.9,-75.41 431.27,-73.26 421.82,-68.47 420.9,-75.41"/>
</g>
<!-- Node3 -->
<g id="node3" class="node">
<title>Node3</title>
<g id="a_node3"><a xlink:href="Z2LinkMgr_8cpp.html" target="_top" xlink:title=" ">
<polygon fill="white" stroke="black" points="152,-6 152,-25 304,-25 304,-6 152,-6"/>
<text text-anchor="middle" x="228" y="-13" font-family="Helvetica,sans-Serif" font-size="10.00">libs/Z2AudioLib/Z2LinkMgr.cpp</text>
</a>
</g>
</g>
<!-- Node1&#45;&gt;Node3 -->
<g id="edge2" class="edge">
<title>Node1&#45;&gt;Node3</title>
<path fill="none" stroke="midnightblue" d="M427.51,-65.07C375.15,-52.32 304.69,-35.17 263.03,-25.03"/>
<polygon fill="midnightblue" stroke="midnightblue" points="426.85,-68.51 437.39,-67.48 428.51,-61.71 426.85,-68.51"/>
</g>
<!-- Node4 -->
<g id="node4" class="node">
<title>Node4</title>
<g id="a_node4"><a xlink:href="Z2EnvSeMgr_8cpp.html" target="_top" xlink:title=" ">
<polygon fill="white" stroke="black" points="322.5,-6 322.5,-25 483.5,-25 483.5,-6 322.5,-6"/>
<text text-anchor="middle" x="403" y="-13" font-family="Helvetica,sans-Serif" font-size="10.00">libs/Z2AudioLib/Z2EnvSeMgr.cpp</text>
</a>
</g>
</g>
<!-- Node1&#45;&gt;Node4 -->
<g id="edge3" class="edge">
<title>Node1&#45;&gt;Node4</title>
<path fill="none" stroke="midnightblue" d="M466.42,-61.31C449.14,-49.1 428.02,-34.18 415.04,-25.01"/>
<polygon fill="midnightblue" stroke="midnightblue" points="464.85,-64.48 475.04,-67.4 468.89,-58.77 464.85,-64.48"/>
</g>
<!-- Node5 -->
<g id="node5" class="node">
<title>Node5</title>
<g id="a_node5"><a xlink:href="Z2SoundStarter_8cpp.html" target="_top" xlink:title=" ">
<polygon fill="white" stroke="black" points="501.5,-6 501.5,-25 674.5,-25 674.5,-6 501.5,-6"/>
<text text-anchor="middle" x="588" y="-13" font-family="Helvetica,sans-Serif" font-size="10.00">libs/Z2AudioLib/Z2SoundStarter.cpp</text>
</a>
</g>
</g>
<!-- Node1&#45;&gt;Node5 -->
<g id="edge4" class="edge">
<title>Node1&#45;&gt;Node5</title>
<path fill="none" stroke="midnightblue" d="M523.41,-61.64C540.96,-49.37 562.59,-34.26 575.83,-25.01"/>
<polygon fill="midnightblue" stroke="midnightblue" points="521.37,-58.8 515.18,-67.4 525.38,-64.54 521.37,-58.8"/>
</g>
<!-- Node6 -->
<g id="node6" class="node">
<title>Node6</title>
<g id="a_node6"><a xlink:href="Z2SpeechMgr2_8cpp.html" target="_top" xlink:title=" ">
<polygon fill="white" stroke="black" points="692.5,-0.5 692.5,-30.5 823.5,-30.5 823.5,-0.5 692.5,-0.5"/>
<text text-anchor="start" x="700.5" y="-18.5" font-family="Helvetica,sans-Serif" font-size="10.00">libs/Z2AudioLib/Z2Speech</text>
<text text-anchor="middle" x="758" y="-7.5" font-family="Helvetica,sans-Serif" font-size="10.00">Mgr2.cpp</text>
</a>
</g>
</g>
<!-- Node1&#45;&gt;Node6 -->
<g id="edge5" class="edge">
<title>Node1&#45;&gt;Node6</title>
<path fill="none" stroke="midnightblue" d="M561.55,-65.05C604.55,-54.43 659.92,-40.74 700.91,-30.61"/>
<polygon fill="midnightblue" stroke="midnightblue" points="560.61,-61.68 551.74,-67.48 562.29,-68.47 560.61,-61.68"/>
</g>
<!-- Node7 -->
<g id="node7" class="node">
<title>Node7</title>
<g id="a_node7"><a xlink:href="Z2WolfHowlMgr_8cpp.html" target="_top" xlink:title=" ">
<polygon fill="white" stroke="black" points="842,-0.5 842,-30.5 982,-30.5 982,-0.5 842,-0.5"/>
<text text-anchor="start" x="850" y="-18.5" font-family="Helvetica,sans-Serif" font-size="10.00">libs/Z2AudioLib/Z2WolfHowl</text>
<text text-anchor="middle" x="912" y="-7.5" font-family="Helvetica,sans-Serif" font-size="10.00">Mgr.cpp</text>
</a>
</g>
</g>
<!-- Node1&#45;&gt;Node7 -->
<g id="edge6" class="edge">
<title>Node1&#45;&gt;Node7</title>
<path fill="none" stroke="midnightblue" d="M568.9,-71.18C637.46,-61.43 742.26,-46.1 833,-31 835.89,-30.52 838.83,-30.02 841.81,-29.51"/>
<polygon fill="midnightblue" stroke="midnightblue" points="568.05,-67.76 558.64,-72.63 569.03,-74.7 568.05,-67.76"/>
</g>
</g>
</svg>
