<?xml version="1.0" encoding="UTF-8" standalone="no"?>
<!DOCTYPE svg PUBLIC "-//W3C//DTD SVG 1.1//EN"
 "http://www.w3.org/Graphics/SVG/1.1/DTD/svg11.dtd">
<!-- Generated by graphviz version 2.46.0 (20210122.1329)
 -->
<!-- Title: include/JSystem/JGeometry/JGeometry.h Pages: 1 -->
<!--zoomable 229 -->
<svg id="main" version="1.1" xmlns="http://www.w3.org/2000/svg" xmlns:xlink="http://www.w3.org/1999/xlink" xml:space="preserve" onload="init(evt)">
<style type="text/css"><![CDATA[
.edge:hover path { stroke: red; }
.edge:hover polygon { stroke: red; fill: red; }
]]></style>
<script type="text/javascript"><![CDATA[
var edges = document.getElementsByTagName('g');
if (edges && edges.length) {
  for (var i=0;i<edges.length;i++) {
    if (edges[i].id.substr(0,4)=='edge') {
      edges[i].setAttribute('class','edge');
    }
  }
}
]]></script>
        <defs>
                <circle id="rim" cx="0" cy="0" r="7"/>
                <circle id="rim2" cx="0" cy="0" r="3.5"/>
                <g id="zoomPlus">
                        <use xlink:href="#rim" fill="#404040">
                                <set attributeName="fill" to="#808080" begin="zoomplus.mouseover" end="zoomplus.mouseout"/>
                        </use>
                        <path d="M-4,0h8M0,-4v8" fill="none" stroke="white" stroke-width="1.5" pointer-events="none"/>
                </g>
                <g id="zoomMin">
                        <use xlink:href="#rim" fill="#404040">
                                <set attributeName="fill" to="#808080" begin="zoomminus.mouseover" end="zoomminus.mouseout"/>
                        </use>
                        <path d="M-4,0h8" fill="none" stroke="white" stroke-width="1.5" pointer-events="none"/>
                </g>
                <g id="dirArrow">
                        <path fill="none" stroke="white" stroke-width="1.5" d="M0,-3.0v7 M-2.5,-0.5L0,-3.0L2.5,-0.5"/>
                </g>
               <g id="resetDef">
                       <use xlink:href="#rim2" fill="#404040">
                               <set attributeName="fill" to="#808080" begin="reset.mouseover" end="reset.mouseout"/>
                       </use>
               </g>
        </defs>

<script type="text/javascript">
var viewWidth = 1904;
var viewHeight = 229;
var sectionId = 'dynsection-1';
</script>
<script xlink:href="svgpan.js"/>
<svg id="graph" class="graph">
<g id="viewport">
<title>include/JSystem/JGeometry/JGeometry.h</title>
<polygon fill="white" stroke="transparent" points="-4,4 -4,-225 1899.5,-225 1899.5,4 -4,4"/>
<!-- Node1 -->
<g id="node1" class="node">
<title>Node1</title>
<g id="a_node1"><a xlink:title=" ">
<polygon fill="#bfbfbf" stroke="black" points="464,-190.5 464,-220.5 603,-220.5 603,-190.5 464,-190.5"/>
<text text-anchor="start" x="472" y="-208.5" font-family="Helvetica,sans-Serif" font-size="10.00">include/JSystem/JGeometry</text>
<text text-anchor="middle" x="533.5" y="-197.5" font-family="Helvetica,sans-Serif" font-size="10.00">/JGeometry.h</text>
</a>
</g>
</g>
<!-- Node2 -->
<g id="node2" class="node">
<title>Node2</title>
<g id="a_node2"><a xlink:href="Z2SoundHandles_8h.html" target="_top" xlink:title=" ">
<polygon fill="white" stroke="black" points="325.5,-123.5 325.5,-153.5 505.5,-153.5 505.5,-123.5 325.5,-123.5"/>
<text text-anchor="start" x="333.5" y="-141.5" font-family="Helvetica,sans-Serif" font-size="10.00">include/Z2AudioLib</text>
<text text-anchor="middle" x="415.5" y="-130.5" font-family="Helvetica,sans-Serif" font-size="10.00">/Z2SoundHandles/Z2SoundHandles.h</text>
</a>
</g>
</g>
<!-- Node1&#45;&gt;Node2 -->
<g id="edge1" class="edge">
<title>Node1&#45;&gt;Node2</title>
<path fill="none" stroke="midnightblue" d="M498.89,-185.44C480.38,-175.24 457.98,-162.9 441.05,-153.58"/>
<polygon fill="midnightblue" stroke="midnightblue" points="497.45,-188.64 507.9,-190.4 500.83,-182.51 497.45,-188.64"/>
</g>
<!-- Node5 -->
<g id="node5" class="node">
<title>Node5</title>
<g id="a_node5"><a xlink:href="Z2SoundObject_8h.html" target="_top" xlink:title=" ">
<polygon fill="white" stroke="black" points="333,-56.5 333,-86.5 498,-86.5 498,-56.5 333,-56.5"/>
<text text-anchor="start" x="341" y="-74.5" font-family="Helvetica,sans-Serif" font-size="10.00">include/Z2AudioLib</text>
<text text-anchor="middle" x="415.5" y="-63.5" font-family="Helvetica,sans-Serif" font-size="10.00">/Z2SoundObject/Z2SoundObject.h</text>
</a>
</g>
</g>
<!-- Node1&#45;&gt;Node5 -->
<g id="edge9" class="edge">
<title>Node1&#45;&gt;Node5</title>
<path fill="none" stroke="midnightblue" d="M533.13,-180.24C531.7,-162.69 527.25,-139.3 514.5,-123 501.3,-106.13 480.93,-94.4 462.1,-86.52"/>
<polygon fill="midnightblue" stroke="midnightblue" points="529.64,-180.5 533.68,-190.29 536.63,-180.11 529.64,-180.5"/>
</g>
<!-- Node9 -->
<g id="node9" class="node">
<title>Node9</title>
<g id="a_node9"><a xlink:href="Z2SoundStarter_8h.html" target="_top" xlink:title=" ">
<polygon fill="white" stroke="black" points="937,-123.5 937,-153.5 1104,-153.5 1104,-123.5 937,-123.5"/>
<text text-anchor="start" x="945" y="-141.5" font-family="Helvetica,sans-Serif" font-size="10.00">include/Z2AudioLib</text>
<text text-anchor="middle" x="1020.5" y="-130.5" font-family="Helvetica,sans-Serif" font-size="10.00">/Z2SoundStarter/Z2SoundStarter.h</text>
</a>
</g>
</g>
<!-- Node1&#45;&gt;Node9 -->
<g id="edge10" class="edge">
<title>Node1&#45;&gt;Node9</title>
<path fill="none" stroke="midnightblue" d="M613.07,-193.88C702.23,-181.98 846.11,-162.78 936.88,-150.66"/>
<polygon fill="midnightblue" stroke="midnightblue" points="612.47,-190.43 603.02,-195.22 613.39,-197.37 612.47,-190.43"/>
</g>
<!-- Node3 -->
<g id="node3" class="node">
<title>Node3</title>
<g id="a_node3"><a xlink:href="Z2LinkMgr_8cpp.html" target="_top" xlink:title=" ">
<polygon fill="white" stroke="black" points="499.5,-0.5 499.5,-19.5 651.5,-19.5 651.5,-0.5 499.5,-0.5"/>
<text text-anchor="middle" x="575.5" y="-7.5" font-family="Helvetica,sans-Serif" font-size="10.00">libs/Z2AudioLib/Z2LinkMgr.cpp</text>
</a>
</g>
</g>
<!-- Node2&#45;&gt;Node3 -->
<g id="edge2" class="edge">
<title>Node2&#45;&gt;Node3</title>
<path fill="none" stroke="midnightblue" d="M455.94,-118.69C472.39,-110.14 491.11,-99.2 506.5,-87 532.76,-66.19 557.66,-34.96 569.04,-19.83"/>
<polygon fill="midnightblue" stroke="midnightblue" points="453.89,-115.8 446.55,-123.44 457.06,-122.05 453.89,-115.8"/>
</g>
<!-- Node4 -->
<g id="node4" class="node">
<title>Node4</title>
<g id="a_node4"><a xlink:href="Z2SoundHandles_8cpp.html" target="_top" xlink:title=" ">
<polygon fill="white" stroke="black" points="134.5,-62 134.5,-81 314.5,-81 314.5,-62 134.5,-62"/>
<text text-anchor="middle" x="224.5" y="-69" font-family="Helvetica,sans-Serif" font-size="10.00">libs/Z2AudioLib/Z2SoundHandles.cpp</text>
</a>
</g>
</g>
<!-- Node2&#45;&gt;Node4 -->
<g id="edge3" class="edge">
<title>Node2&#45;&gt;Node4</title>
<path fill="none" stroke="midnightblue" d="M364.39,-120.11C327.24,-107.46 278.55,-90.89 249.5,-81.01"/>
<polygon fill="midnightblue" stroke="midnightblue" points="363.46,-123.49 374.06,-123.4 365.72,-116.86 363.46,-123.49"/>
</g>
<!-- Node2&#45;&gt;Node5 -->
<g id="edge4" class="edge">
<title>Node2&#45;&gt;Node5</title>
<path fill="none" stroke="midnightblue" d="M415.5,-113.11C415.5,-104.15 415.5,-94.32 415.5,-86.58"/>
<polygon fill="midnightblue" stroke="midnightblue" points="412,-113.4 415.5,-123.4 419,-113.4 412,-113.4"/>
</g>
<!-- Node5&#45;&gt;Node3 -->
<g id="edge7" class="edge">
<title>Node5&#45;&gt;Node3</title>
<path fill="none" stroke="midnightblue" d="M463.09,-52.8C492.51,-41.86 528.95,-28.31 552.22,-19.66"/>
<polygon fill="midnightblue" stroke="midnightblue" points="461.57,-49.63 453.42,-56.4 464.01,-56.19 461.57,-49.63"/>
</g>
<!-- Node6 -->
<g id="node6" class="node">
<title>Node6</title>
<g id="a_node6"><a xlink:href="d__a__alink_8cpp.html" target="_top" xlink:title=" ">
<polygon fill="white" stroke="black" points="191,-0.5 191,-19.5 310,-19.5 310,-0.5 191,-0.5"/>
<text text-anchor="middle" x="250.5" y="-7.5" font-family="Helvetica,sans-Serif" font-size="10.00">src/d/d_a/d_a_alink.cpp</text>
</a>
</g>
</g>
<!-- Node5&#45;&gt;Node6 -->
<g id="edge5" class="edge">
<title>Node5&#45;&gt;Node6</title>
<path fill="none" stroke="midnightblue" d="M366.81,-52.94C336.41,-41.98 298.61,-28.35 274.51,-19.66"/>
<polygon fill="midnightblue" stroke="midnightblue" points="365.8,-56.3 376.4,-56.4 368.18,-49.71 365.8,-56.3"/>
</g>
<!-- Node7 -->
<g id="node7" class="node">
<title>Node7</title>
<g id="a_node7"><a xlink:href="Z2Creature_8cpp.html" target="_top" xlink:title=" ">
<polygon fill="white" stroke="black" points="328,-0.5 328,-19.5 481,-19.5 481,-0.5 328,-0.5"/>
<text text-anchor="middle" x="404.5" y="-7.5" font-family="Helvetica,sans-Serif" font-size="10.00">libs/Z2AudioLib/Z2Creature.cpp</text>
</a>
</g>
</g>
<!-- Node5&#45;&gt;Node7 -->
<g id="edge6" class="edge">
<title>Node5&#45;&gt;Node7</title>
<path fill="none" stroke="midnightblue" d="M411.02,-46.29C409.28,-36.86 407.39,-26.65 406.1,-19.66"/>
<polygon fill="midnightblue" stroke="midnightblue" points="407.63,-47.2 412.89,-56.4 414.52,-45.93 407.63,-47.2"/>
</g>
<!-- Node8 -->
<g id="node8" class="node">
<title>Node8</title>
<g id="a_node8"><a xlink:href="Z2SoundObject_8cpp.html" target="_top" xlink:title=" ">
<polygon fill="white" stroke="black" points="0,-0.5 0,-19.5 173,-19.5 173,-0.5 0,-0.5"/>
<text text-anchor="middle" x="86.5" y="-7.5" font-family="Helvetica,sans-Serif" font-size="10.00">libs/Z2AudioLib/Z2SoundObject.cpp</text>
</a>
</g>
</g>
<!-- Node5&#45;&gt;Node8 -->
<g id="edge8" class="edge">
<title>Node5&#45;&gt;Node8</title>
<path fill="none" stroke="midnightblue" d="M328.1,-54.69C265.68,-43.41 184.12,-28.65 133.54,-19.51"/>
<polygon fill="midnightblue" stroke="midnightblue" points="327.48,-58.14 337.95,-56.47 328.73,-51.25 327.48,-58.14"/>
</g>
<!-- Node9&#45;&gt;Node3 -->
<g id="edge12" class="edge">
<title>Node9&#45;&gt;Node3</title>
<path fill="none" stroke="midnightblue" d="M926.68,-132.82C805.49,-125.85 607.18,-110.92 583.5,-87 565.67,-68.99 569.99,-35.55 573.34,-19.73"/>
<polygon fill="midnightblue" stroke="midnightblue" points="926.53,-136.32 936.71,-133.39 926.92,-129.33 926.53,-136.32"/>
</g>
<!-- Node9&#45;&gt;Node5 -->
<g id="edge21" class="edge">
<title>Node9&#45;&gt;Node5</title>
<path fill="none" stroke="midnightblue" d="M926.64,-127.42C809.19,-114.8 609.92,-93.39 498.04,-81.37"/>
<polygon fill="midnightblue" stroke="midnightblue" points="926.38,-130.91 936.7,-128.5 927.13,-123.95 926.38,-130.91"/>
</g>
<!-- Node10 -->
<g id="node10" class="node">
<title>Node10</title>
<g id="a_node10"><a xlink:href="Z2AudioMgr_8cpp.html" target="_top" xlink:title=" ">
<polygon fill="white" stroke="black" points="592.5,-62 592.5,-81 750.5,-81 750.5,-62 592.5,-62"/>
<text text-anchor="middle" x="671.5" y="-69" font-family="Helvetica,sans-Serif" font-size="10.00">libs/Z2AudioLib/Z2AudioMgr.cpp</text>
</a>
</g>
</g>
<!-- Node9&#45;&gt;Node10 -->
<g id="edge11" class="edge">
<title>Node9&#45;&gt;Node10</title>
<path fill="none" stroke="midnightblue" d="M935.25,-121.62C866.53,-108.82 772.53,-91.32 717.29,-81.03"/>
<polygon fill="midnightblue" stroke="midnightblue" points="934.73,-125.09 945.2,-123.48 936.01,-118.2 934.73,-125.09"/>
</g>
<!-- Node11 -->
<g id="node11" class="node">
<title>Node11</title>
<g id="a_node11"><a xlink:href="Z2EnvSeMgr_8cpp.html" target="_top" xlink:title=" ">
<polygon fill="white" stroke="black" points="769,-62 769,-81 930,-81 930,-62 769,-62"/>
<text text-anchor="middle" x="849.5" y="-69" font-family="Helvetica,sans-Serif" font-size="10.00">libs/Z2AudioLib/Z2EnvSeMgr.cpp</text>
</a>
</g>
</g>
<!-- Node9&#45;&gt;Node11 -->
<g id="edge13" class="edge">
<title>Node9&#45;&gt;Node11</title>
<path fill="none" stroke="midnightblue" d="M973.89,-119.78C940.74,-107.18 897.66,-90.81 871.88,-81.01"/>
<polygon fill="midnightblue" stroke="midnightblue" points="972.8,-123.11 983.4,-123.4 975.29,-116.57 972.8,-123.11"/>
</g>
<!-- Node12 -->
<g id="node12" class="node">
<title>Node12</title>
<g id="a_node12"><a xlink:href="Z2SeMgr_8cpp.html" target="_top" xlink:title=" ">
<polygon fill="white" stroke="black" points="948,-62 948,-81 1093,-81 1093,-62 948,-62"/>
<text text-anchor="middle" x="1020.5" y="-69" font-family="Helvetica,sans-Serif" font-size="10.00">libs/Z2AudioLib/Z2SeMgr.cpp</text>
</a>
</g>
</g>
<!-- Node9&#45;&gt;Node12 -->
<g id="edge14" class="edge">
<title>Node9&#45;&gt;Node12</title>
<path fill="none" stroke="midnightblue" d="M1020.5,-113.25C1020.5,-102.02 1020.5,-89.38 1020.5,-81.19"/>
<polygon fill="midnightblue" stroke="midnightblue" points="1017,-113.4 1020.5,-123.4 1024,-113.4 1017,-113.4"/>
</g>
<!-- Node13 -->
<g id="node13" class="node">
<title>Node13</title>
<g id="a_node13"><a xlink:href="Z2SeqMgr_8cpp.html" target="_top" xlink:title=" ">
<polygon fill="white" stroke="black" points="1111.5,-62 1111.5,-81 1261.5,-81 1261.5,-62 1111.5,-62"/>
<text text-anchor="middle" x="1186.5" y="-69" font-family="Helvetica,sans-Serif" font-size="10.00">libs/Z2AudioLib/Z2SeqMgr.cpp</text>
</a>
</g>
</g>
<!-- Node9&#45;&gt;Node13 -->
<g id="edge15" class="edge">
<title>Node9&#45;&gt;Node13</title>
<path fill="none" stroke="midnightblue" d="M1066.16,-119.62C1098.29,-107.04 1139.85,-90.77 1164.77,-81.01"/>
<polygon fill="midnightblue" stroke="midnightblue" points="1064.55,-116.49 1056.52,-123.4 1067.11,-123.01 1064.55,-116.49"/>
</g>
<!-- Node14 -->
<g id="node14" class="node">
<title>Node14</title>
<g id="a_node14"><a xlink:href="Z2SoundStarter_8cpp.html" target="_top" xlink:title=" ">
<polygon fill="white" stroke="black" points="1280,-62 1280,-81 1453,-81 1453,-62 1280,-62"/>
<text text-anchor="middle" x="1366.5" y="-69" font-family="Helvetica,sans-Serif" font-size="10.00">libs/Z2AudioLib/Z2SoundStarter.cpp</text>
</a>
</g>
</g>
<!-- Node9&#45;&gt;Node14 -->
<g id="edge16" class="edge">
<title>Node9&#45;&gt;Node14</title>
<path fill="none" stroke="midnightblue" d="M1105.01,-121.62C1173.15,-108.82 1266.34,-91.32 1321.1,-81.03"/>
<polygon fill="midnightblue" stroke="midnightblue" points="1104.33,-118.19 1095.15,-123.48 1105.63,-125.07 1104.33,-118.19"/>
</g>
<!-- Node15 -->
<g id="node15" class="node">
<title>Node15</title>
<g id="a_node15"><a xlink:href="Z2SpeechMgr2_8cpp.html" target="_top" xlink:title=" ">
<polygon fill="white" stroke="black" points="1471,-56.5 1471,-86.5 1602,-86.5 1602,-56.5 1471,-56.5"/>
<text text-anchor="start" x="1479" y="-74.5" font-family="Helvetica,sans-Serif" font-size="10.00">libs/Z2AudioLib/Z2Speech</text>
<text text-anchor="middle" x="1536.5" y="-63.5" font-family="Helvetica,sans-Serif" font-size="10.00">Mgr2.cpp</text>
</a>
</g>
</g>
<!-- Node9&#45;&gt;Node15 -->
<g id="edge17" class="edge">
<title>Node9&#45;&gt;Node15</title>
<path fill="none" stroke="midnightblue" d="M1114.41,-128.96C1204.09,-120.29 1342.89,-105.52 1462.5,-87 1465.22,-86.58 1467.99,-86.13 1470.78,-85.66"/>
<polygon fill="midnightblue" stroke="midnightblue" points="1113.89,-125.5 1104.27,-129.94 1114.56,-132.46 1113.89,-125.5"/>
</g>
<!-- Node16 -->
<g id="node16" class="node">
<title>Node16</title>
<g id="a_node16"><a xlink:href="Z2WolfHowlMgr_8cpp.html" target="_top" xlink:title=" ">
<polygon fill="white" stroke="black" points="1620.5,-56.5 1620.5,-86.5 1760.5,-86.5 1760.5,-56.5 1620.5,-56.5"/>
<text text-anchor="start" x="1628.5" y="-74.5" font-family="Helvetica,sans-Serif" font-size="10.00">libs/Z2AudioLib/Z2WolfHowl</text>
<text text-anchor="middle" x="1690.5" y="-63.5" font-family="Helvetica,sans-Serif" font-size="10.00">Mgr.cpp</text>
</a>
</g>
</g>
<!-- Node9&#45;&gt;Node16 -->
<g id="edge18" class="edge">
<title>Node9&#45;&gt;Node16</title>
<path fill="none" stroke="midnightblue" d="M1114.44,-132.27C1231.29,-125.13 1436.71,-110.45 1611.5,-87 1614.4,-86.61 1617.36,-86.19 1620.34,-85.74"/>
<polygon fill="midnightblue" stroke="midnightblue" points="1114.23,-128.78 1104.46,-132.88 1114.65,-135.77 1114.23,-128.78"/>
</g>
<!-- Node17 -->
<g id="node17" class="node">
<title>Node17</title>
<g id="a_node17"><a xlink:href="Z2AudioLib_8h.html" target="_top" xlink:title=" ">
<polygon fill="white" stroke="black" points="1778.5,-56.5 1778.5,-86.5 1878.5,-86.5 1878.5,-56.5 1778.5,-56.5"/>
<text text-anchor="start" x="1786.5" y="-74.5" font-family="Helvetica,sans-Serif" font-size="10.00">include/Z2AudioLib</text>
<text text-anchor="middle" x="1828.5" y="-63.5" font-family="Helvetica,sans-Serif" font-size="10.00">/Z2AudioLib.h</text>
</a>
</g>
</g>
<!-- Node9&#45;&gt;Node17 -->
<g id="edge19" class="edge">
<title>Node9&#45;&gt;Node17</title>
<path fill="none" stroke="midnightblue" d="M1114.16,-136.39C1256.53,-133.54 1535.58,-123.35 1769.5,-87 1772.42,-86.55 1775.4,-86.02 1778.41,-85.44"/>
<polygon fill="midnightblue" stroke="midnightblue" points="1114.08,-132.89 1104.15,-136.59 1114.21,-139.89 1114.08,-132.89"/>
</g>
<!-- Node18 -->
<g id="node18" class="node">
<title>Node18</title>
<g id="a_node18"><a xlink:href="m__Do__audio_8cpp.html" target="_top" xlink:title=" ">
<polygon fill="white" stroke="black" points="1761.5,-0.5 1761.5,-19.5 1895.5,-19.5 1895.5,-0.5 1761.5,-0.5"/>
<text text-anchor="middle" x="1828.5" y="-7.5" font-family="Helvetica,sans-Serif" font-size="10.00">src/m_Do/m_Do_audio.cpp</text>
</a>
</g>
</g>
<!-- Node17&#45;&gt;Node18 -->
<g id="edge20" class="edge">
<title>Node17&#45;&gt;Node18</title>
<path fill="none" stroke="midnightblue" d="M1828.5,-46.29C1828.5,-36.86 1828.5,-26.65 1828.5,-19.66"/>
<polygon fill="midnightblue" stroke="midnightblue" points="1825,-46.4 1828.5,-56.4 1832,-46.4 1825,-46.4"/>
</g>
</g>
</svg>
        <g id="navigator" transform="translate(0 0)" fill="#404254">
                <rect fill="#f2f5e9" fill-opacity="0.5" stroke="#606060" stroke-width=".5" x="0" y="0" width="60" height="60"/>
                <use id="zoomplus" xlink:href="#zoomPlus" x="17" y="9" onmousedown="handleZoom(evt,'in')"/>
                <use id="zoomminus" xlink:href="#zoomMin" x="42" y="9" onmousedown="handleZoom(evt,'out')"/>
                <use id="reset" xlink:href="#resetDef" x="30" y="36" onmousedown="handleReset()"/>
                <g id="arrowUp" xlink:href="#dirArrow" transform="translate(30 24)" onmousedown="handlePan(0,-1)">
                  <use xlink:href="#rim" fill="#404040">
                        <set attributeName="fill" to="#808080" begin="arrowUp.mouseover" end="arrowUp.mouseout"/>
                  </use>
                  <path fill="none" stroke="white" stroke-width="1.5" d="M0,-3.0v7 M-2.5,-0.5L0,-3.0L2.5,-0.5"/>
                </g>
                <g id="arrowRight" xlink:href="#dirArrow" transform="rotate(90) translate(36 -43)" onmousedown="handlePan(1,0)">
                  <use xlink:href="#rim" fill="#404040">
                        <set attributeName="fill" to="#808080" begin="arrowRight.mouseover" end="arrowRight.mouseout"/>
                  </use>
                  <path fill="none" stroke="white" stroke-width="1.5" d="M0,-3.0v7 M-2.5,-0.5L0,-3.0L2.5,-0.5"/>
                </g>
                <g id="arrowDown" xlink:href="#dirArrow" transform="rotate(180) translate(-30 -48)" onmousedown="handlePan(0,1)">
                  <use xlink:href="#rim" fill="#404040">
                        <set attributeName="fill" to="#808080" begin="arrowDown.mouseover" end="arrowDown.mouseout"/>
                  </use>
                  <path fill="none" stroke="white" stroke-width="1.5" d="M0,-3.0v7 M-2.5,-0.5L0,-3.0L2.5,-0.5"/>
                </g>
                <g id="arrowLeft" xlink:href="#dirArrow" transform="rotate(270) translate(-36 17)" onmousedown="handlePan(-1,0)">
                  <use xlink:href="#rim" fill="#404040">
                        <set attributeName="fill" to="#808080" begin="arrowLeft.mouseover" end="arrowLeft.mouseout"/>
                  </use>
                  <path fill="none" stroke="white" stroke-width="1.5" d="M0,-3.0v7 M-2.5,-0.5L0,-3.0L2.5,-0.5"/>
                </g>
        </g>
        <svg viewBox="0 0 15 15" width="100%" height="30px" preserveAspectRatio="xMaxYMin meet">
         <g id="arrow_out" transform="scale(0.3 0.3)">
          <a xlink:href="JGeometry_8h__dep__incl_org.svg" target="_base">
           <rect id="button" ry="5" rx="5" y="6" x="6" height="38" width="38"
                fill="#f2f5e9" fill-opacity="0.5" stroke="#606060" stroke-width="1.0"/>
           <path id="arrow"
             d="M 11.500037,31.436501 C 11.940474,20.09759 22.043105,11.32322 32.158766,21.979434 L 37.068811,17.246167 C 37.068811,17.246167 37.088388,32 37.088388,32 L 22.160133,31.978069 C 22.160133,31.978069 26.997745,27.140456 26.997745,27.140456 C 18.528582,18.264221 13.291696,25.230495 11.500037,31.436501 z"
             style="fill:#404040;"/>
          </a>
         </g>
        </svg>
</svg>
