<?xml version="1.0" encoding="UTF-8" standalone="no"?>
<!DOCTYPE svg PUBLIC "-//W3C//DTD SVG 1.1//EN"
 "http://www.w3.org/Graphics/SVG/1.1/DTD/svg11.dtd">
<!-- Generated by graphviz version 2.46.0 (20210122.1329)
 -->
<!-- Title: include/JSystem/JKernel/JKRAram/JKRAram.h Pages: 1 -->
<svg width="1094pt" height="676pt"
 viewBox="0.00 0.00 1094.00 676.00" xmlns="http://www.w3.org/2000/svg" xmlns:xlink="http://www.w3.org/1999/xlink">
<g id="graph0" class="graph" transform="scale(1 1) rotate(0) translate(4 672)">
<title>include/JSystem/JKernel/JKRAram/JKRAram.h</title>
<polygon fill="white" stroke="transparent" points="-4,4 -4,-672 1090,-672 1090,4 -4,4"/>
<!-- Node1 -->
<g id="node1" class="node">
<title>Node1</title>
<g id="a_node1"><a xlink:title=" ">
<polygon fill="#bfbfbf" stroke="black" points="443.5,-637.5 443.5,-667.5 568.5,-667.5 568.5,-637.5 443.5,-637.5"/>
<text text-anchor="start" x="451.5" y="-655.5" font-family="Helvetica,sans-Serif" font-size="10.00">include/JSystem/JKernel</text>
<text text-anchor="middle" x="506" y="-644.5" font-family="Helvetica,sans-Serif" font-size="10.00">/JKRAram/JKRAram.h</text>
</a>
</g>
</g>
<!-- Node2 -->
<g id="node2" class="node">
<title>Node2</title>
<g id="a_node2"><a xlink:href="JKRAramHeap_8h.html" target="_top" xlink:title=" ">
<polygon fill="white" stroke="black" points="426.5,-436.5 426.5,-466.5 585.5,-466.5 585.5,-436.5 426.5,-436.5"/>
<text text-anchor="start" x="434.5" y="-454.5" font-family="Helvetica,sans-Serif" font-size="10.00">JSystem/JKernel/JKRAramHeap</text>
<text text-anchor="middle" x="506" y="-443.5" font-family="Helvetica,sans-Serif" font-size="10.00">/JKRAramHeap.h</text>
</a>
</g>
</g>
<!-- Node1&#45;&gt;Node2 -->
<g id="edge1" class="edge">
<title>Node1&#45;&gt;Node2</title>
<path fill="none" stroke="midnightblue" d="M506,-637.19C506,-603.48 506,-518.8 506,-476.84"/>
<polygon fill="midnightblue" stroke="midnightblue" points="509.5,-476.68 506,-466.68 502.5,-476.68 509.5,-476.68"/>
</g>
<!-- Node5 -->
<g id="node5" class="node">
<title>Node5</title>
<g id="a_node5"><a xlink:href="types_8h.html" target="_top" xlink:title=" ">
<polygon fill="white" stroke="black" points="469.5,-0.5 469.5,-19.5 550.5,-19.5 550.5,-0.5 469.5,-0.5"/>
<text text-anchor="middle" x="510" y="-7.5" font-family="Helvetica,sans-Serif" font-size="10.00">dolphin/types.h</text>
</a>
</g>
</g>
<!-- Node1&#45;&gt;Node5 -->
<g id="edge47" class="edge">
<title>Node1&#45;&gt;Node5</title>
<path fill="none" stroke="midnightblue" d="M443.45,-648.31C308.07,-639.71 0,-610.17 0,-519.5 0,-519.5 0,-519.5 0,-137.5 0,-94.29 16.08,-78.44 53,-56 120.1,-15.21 354.52,-10.55 459.04,-10.57"/>
<polygon fill="midnightblue" stroke="midnightblue" points="459.33,-14.07 469.33,-10.59 459.34,-7.07 459.33,-14.07"/>
</g>
<!-- Node6 -->
<g id="node6" class="node">
<title>Node6</title>
<g id="a_node6"><a xlink:href="global_8h.html" target="_top" xlink:title=" ">
<polygon fill="white" stroke="black" points="374,-380.5 374,-399.5 424,-399.5 424,-380.5 374,-380.5"/>
<text text-anchor="middle" x="399" y="-387.5" font-family="Helvetica,sans-Serif" font-size="10.00">global.h</text>
</a>
</g>
</g>
<!-- Node1&#45;&gt;Node6 -->
<g id="edge48" class="edge">
<title>Node1&#45;&gt;Node6</title>
<path fill="none" stroke="midnightblue" d="M497.73,-637.14C480.5,-606.69 440.43,-533.03 417,-467 410.21,-447.87 405.21,-425.13 402.22,-409.54"/>
<polygon fill="midnightblue" stroke="midnightblue" points="405.65,-408.82 400.41,-399.61 398.76,-410.07 405.65,-408.82"/>
</g>
<!-- Node19 -->
<g id="node19" class="node">
<title>Node19</title>
<g id="a_node19"><a xlink:href="JKRDvdRipper_8h.html" target="_top" xlink:title=" ">
<polygon fill="white" stroke="black" points="775,-570.5 775,-600.5 933,-600.5 933,-570.5 775,-570.5"/>
<text text-anchor="start" x="783" y="-588.5" font-family="Helvetica,sans-Serif" font-size="10.00">JSystem/JKernel/JKRDvdRipper</text>
<text text-anchor="middle" x="854" y="-577.5" font-family="Helvetica,sans-Serif" font-size="10.00">/JKRDvdRipper.h</text>
</a>
</g>
</g>
<!-- Node1&#45;&gt;Node19 -->
<g id="edge34" class="edge">
<title>Node1&#45;&gt;Node19</title>
<path fill="none" stroke="midnightblue" d="M568.62,-639.8C624.51,-629.37 706.84,-613.99 768.73,-602.43"/>
<polygon fill="midnightblue" stroke="midnightblue" points="769.68,-605.81 778.87,-600.53 768.4,-598.93 769.68,-605.81"/>
</g>
<!-- Node23 -->
<g id="node23" class="node">
<title>Node23</title>
<g id="a_node23"><a xlink:href="JKRThread_8h.html" target="_top" xlink:title=" ">
<polygon fill="white" stroke="black" points="682.5,-436.5 682.5,-466.5 825.5,-466.5 825.5,-436.5 682.5,-436.5"/>
<text text-anchor="start" x="690.5" y="-454.5" font-family="Helvetica,sans-Serif" font-size="10.00">JSystem/JKernel/JKRThread</text>
<text text-anchor="middle" x="754" y="-443.5" font-family="Helvetica,sans-Serif" font-size="10.00">/JKRThread.h</text>
</a>
</g>
</g>
<!-- Node1&#45;&gt;Node23 -->
<g id="edge46" class="edge">
<title>Node1&#45;&gt;Node23</title>
<path fill="none" stroke="midnightblue" d="M523.84,-637.19C567.18,-602.41 678.18,-513.34 728.51,-472.96"/>
<polygon fill="midnightblue" stroke="midnightblue" points="730.72,-475.67 736.33,-466.68 726.34,-470.21 730.72,-475.67"/>
</g>
<!-- Node3 -->
<g id="node3" class="node">
<title>Node3</title>
<g id="a_node3"><a xlink:href="JKRDisposer_8h.html" target="_top" xlink:title=" ">
<polygon fill="white" stroke="black" points="636.5,-123.5 636.5,-153.5 787.5,-153.5 787.5,-123.5 636.5,-123.5"/>
<text text-anchor="start" x="644.5" y="-141.5" font-family="Helvetica,sans-Serif" font-size="10.00">JSystem/JKernel/JKRDisposer</text>
<text text-anchor="middle" x="712" y="-130.5" font-family="Helvetica,sans-Serif" font-size="10.00">/JKRDisposer.h</text>
</a>
</g>
</g>
<!-- Node2&#45;&gt;Node3 -->
<g id="edge2" class="edge">
<title>Node2&#45;&gt;Node3</title>
<path fill="none" stroke="midnightblue" d="M585.55,-443.7C653.39,-433.02 740,-405.56 740,-335 740,-335 740,-335 740,-271.5 740,-233 728.46,-189.53 720.2,-163.33"/>
<polygon fill="midnightblue" stroke="midnightblue" points="723.43,-161.97 717.01,-153.55 716.78,-164.14 723.43,-161.97"/>
</g>
<!-- Node2&#45;&gt;Node5 -->
<g id="edge6" class="edge">
<title>Node2&#45;&gt;Node5</title>
<path fill="none" stroke="midnightblue" d="M426.35,-447.14C292.75,-439.32 38,-414.03 38,-335 38,-335 38,-335 38,-137.5 38,-91.17 62.43,-78.37 103,-56 163.08,-22.88 363.93,-14.12 459.12,-11.82"/>
<polygon fill="midnightblue" stroke="midnightblue" points="459.45,-15.31 469.37,-11.58 459.29,-8.31 459.45,-15.31"/>
</g>
<!-- Node2&#45;&gt;Node6 -->
<g id="edge7" class="edge">
<title>Node2&#45;&gt;Node6</title>
<path fill="none" stroke="midnightblue" d="M480.64,-436.4C463.33,-426.77 440.52,-414.09 423.42,-404.58"/>
<polygon fill="midnightblue" stroke="midnightblue" points="425.01,-401.46 414.57,-399.66 421.61,-407.58 425.01,-401.46"/>
</g>
<!-- Node4 -->
<g id="node4" class="node">
<title>Node4</title>
<g id="a_node4"><a xlink:href="JSUList_8h.html" target="_top" xlink:title=" ">
<polygon fill="white" stroke="black" points="614,-56.5 614,-86.5 750,-86.5 750,-56.5 614,-56.5"/>
<text text-anchor="start" x="622" y="-74.5" font-family="Helvetica,sans-Serif" font-size="10.00">JSystem/JSupport/JSUList</text>
<text text-anchor="middle" x="682" y="-63.5" font-family="Helvetica,sans-Serif" font-size="10.00">/JSUList.h</text>
</a>
</g>
</g>
<!-- Node3&#45;&gt;Node4 -->
<g id="edge3" class="edge">
<title>Node3&#45;&gt;Node4</title>
<path fill="none" stroke="midnightblue" d="M705.49,-123.4C701.76,-115.3 696.97,-104.94 692.7,-95.69"/>
<polygon fill="midnightblue" stroke="midnightblue" points="695.87,-94.19 688.5,-86.58 689.51,-97.12 695.87,-94.19"/>
</g>
<!-- Node3&#45;&gt;Node5 -->
<g id="edge5" class="edge">
<title>Node3&#45;&gt;Node5</title>
<path fill="none" stroke="midnightblue" d="M730.38,-123.3C750.24,-106.26 776.8,-77.31 759,-56 734.24,-26.36 626.01,-16.21 560.67,-12.75"/>
<polygon fill="midnightblue" stroke="midnightblue" points="560.73,-9.25 550.57,-12.26 560.38,-16.25 560.73,-9.25"/>
</g>
<!-- Node4&#45;&gt;Node5 -->
<g id="edge4" class="edge">
<title>Node4&#45;&gt;Node5</title>
<path fill="none" stroke="midnightblue" d="M641.24,-56.4C611.78,-46.21 572.41,-32.59 544.5,-22.93"/>
<polygon fill="midnightblue" stroke="midnightblue" points="545.37,-19.53 534.78,-19.57 543.08,-26.15 545.37,-19.53"/>
</g>
<!-- Node6&#45;&gt;Node5 -->
<g id="edge8" class="edge">
<title>Node6&#45;&gt;Node5</title>
<path fill="none" stroke="midnightblue" d="M424.22,-383.96C484.26,-370.37 634.32,-326.61 683,-221 688.77,-208.49 689.6,-202.09 683,-190 668.82,-164.03 648.63,-174.19 627,-154 587.3,-116.94 589.29,-97.29 554,-56 545.3,-45.82 534.86,-35.08 526.32,-26.65"/>
<polygon fill="midnightblue" stroke="midnightblue" points="528.73,-24.11 519.13,-19.63 523.84,-29.12 528.73,-24.11"/>
</g>
<!-- Node7 -->
<g id="node7" class="node">
<title>Node7</title>
<g id="a_node7"><a xlink:href="AR_8h.html" target="_top" xlink:title=" ">
<polygon fill="white" stroke="black" points="66.5,-263 66.5,-282 115.5,-282 115.5,-263 66.5,-263"/>
<text text-anchor="middle" x="91" y="-270" font-family="Helvetica,sans-Serif" font-size="10.00">ar/AR.h</text>
</a>
</g>
</g>
<!-- Node6&#45;&gt;Node7 -->
<g id="edge9" class="edge">
<title>Node6&#45;&gt;Node7</title>
<path fill="none" stroke="midnightblue" d="M373.9,-388.63C310.37,-387.17 145.55,-379.93 107,-344 93.11,-331.05 90.05,-308.79 89.87,-292.74"/>
<polygon fill="midnightblue" stroke="midnightblue" points="93.38,-292.46 90.13,-282.37 86.38,-292.28 93.38,-292.46"/>
</g>
<!-- Node8 -->
<g id="node8" class="node">
<title>Node8</title>
<g id="a_node8"><a xlink:href="ARQ_8h.html" target="_top" xlink:title=" ">
<polygon fill="white" stroke="black" points="116,-324.5 116,-343.5 172,-343.5 172,-324.5 116,-324.5"/>
<text text-anchor="middle" x="144" y="-331.5" font-family="Helvetica,sans-Serif" font-size="10.00">ar/ARQ.h</text>
</a>
</g>
</g>
<!-- Node6&#45;&gt;Node8 -->
<g id="edge11" class="edge">
<title>Node6&#45;&gt;Node8</title>
<path fill="none" stroke="midnightblue" d="M373.75,-383.69C333.86,-375.3 253.84,-358.43 186,-344 184.73,-343.73 183.43,-343.45 182.13,-343.18"/>
<polygon fill="midnightblue" stroke="midnightblue" points="182.52,-339.68 172.01,-341.01 181.06,-346.53 182.52,-339.68"/>
</g>
<!-- Node9 -->
<g id="node9" class="node">
<title>Node9</title>
<g id="a_node9"><a xlink:href="mwcc_8h.html" target="_top" xlink:title=" ">
<polygon fill="white" stroke="black" points="374,-324.5 374,-343.5 424,-343.5 424,-324.5 374,-324.5"/>
<text text-anchor="middle" x="399" y="-331.5" font-family="Helvetica,sans-Serif" font-size="10.00">mwcc.h</text>
</a>
</g>
</g>
<!-- Node6&#45;&gt;Node9 -->
<g id="edge13" class="edge">
<title>Node6&#45;&gt;Node9</title>
<path fill="none" stroke="midnightblue" d="M399,-380.08C399,-373.01 399,-362.86 399,-353.99"/>
<polygon fill="midnightblue" stroke="midnightblue" points="402.5,-353.75 399,-343.75 395.5,-353.75 402.5,-353.75"/>
</g>
<!-- Node10 -->
<g id="node10" class="node">
<title>Node10</title>
<g id="a_node10"><a xlink:href="OS_8h.html" target="_top" xlink:title=" ">
<polygon fill="white" stroke="black" points="222,-129 222,-148 274,-148 274,-129 222,-129"/>
<text text-anchor="middle" x="248" y="-136" font-family="Helvetica,sans-Serif" font-size="10.00">os/OS.h</text>
</a>
</g>
</g>
<!-- Node6&#45;&gt;Node10 -->
<g id="edge14" class="edge">
<title>Node6&#45;&gt;Node10</title>
<path fill="none" stroke="midnightblue" d="M373.85,-384.84C329.58,-376.01 238.85,-350.8 201,-288 178.52,-250.7 185.06,-230.53 201,-190 206.47,-176.1 217.75,-163.77 227.9,-154.76"/>
<polygon fill="midnightblue" stroke="midnightblue" points="230.22,-157.39 235.66,-148.29 225.73,-152.01 230.22,-157.39"/>
</g>
<!-- Node12 -->
<g id="node12" class="node">
<title>Node12</title>
<g id="a_node12"><a xlink:href="variables_8h.html" target="_top" xlink:title=" ">
<polygon fill="white" stroke="black" points="442.5,-324.5 442.5,-343.5 505.5,-343.5 505.5,-324.5 442.5,-324.5"/>
<text text-anchor="middle" x="474" y="-331.5" font-family="Helvetica,sans-Serif" font-size="10.00">variables.h</text>
</a>
</g>
</g>
<!-- Node6&#45;&gt;Node12 -->
<g id="edge18" class="edge">
<title>Node6&#45;&gt;Node12</title>
<path fill="none" stroke="midnightblue" d="M411.05,-380.32C422.46,-372.11 439.83,-359.6 453.43,-349.81"/>
<polygon fill="midnightblue" stroke="midnightblue" points="455.66,-352.52 461.73,-343.83 451.57,-346.84 455.66,-352.52"/>
</g>
<!-- Node7&#45;&gt;Node5 -->
<g id="edge10" class="edge">
<title>Node7&#45;&gt;Node5</title>
<path fill="none" stroke="midnightblue" d="M89.41,-262.87C83.93,-230.2 69.35,-113.05 130,-56 153.55,-33.85 360.99,-19.37 459.06,-13.7"/>
<polygon fill="midnightblue" stroke="midnightblue" points="459.54,-17.18 469.33,-13.11 459.14,-10.19 459.54,-17.18"/>
</g>
<!-- Node8&#45;&gt;Node5 -->
<g id="edge12" class="edge">
<title>Node8&#45;&gt;Node5</title>
<path fill="none" stroke="midnightblue" d="M144,-324.41C144,-303.98 144,-250.86 144,-206.5 144,-206.5 144,-206.5 144,-137.5 144,-78.78 194.32,-79.81 248,-56 316.97,-25.42 404.68,-15.54 459.08,-12.4"/>
<polygon fill="midnightblue" stroke="midnightblue" points="459.37,-15.89 469.17,-11.87 459,-8.9 459.37,-15.89"/>
</g>
<!-- Node10&#45;&gt;Node5 -->
<g id="edge15" class="edge">
<title>Node10&#45;&gt;Node5</title>
<path fill="none" stroke="midnightblue" d="M247.22,-128.9C246.22,-112.23 246.62,-75.47 267,-56 293.97,-30.24 396.34,-18.72 459.29,-13.97"/>
<polygon fill="midnightblue" stroke="midnightblue" points="459.7,-17.45 469.42,-13.24 459.19,-10.47 459.7,-17.45"/>
</g>
<!-- Node11 -->
<g id="node11" class="node">
<title>Node11</title>
<g id="a_node11"><a xlink:href="dvd_8h.html" target="_top" xlink:title=" ">
<polygon fill="white" stroke="black" points="276.5,-62 276.5,-81 335.5,-81 335.5,-62 276.5,-62"/>
<text text-anchor="middle" x="306" y="-69" font-family="Helvetica,sans-Serif" font-size="10.00">dvd/dvd.h</text>
</a>
</g>
</g>
<!-- Node10&#45;&gt;Node11 -->
<g id="edge16" class="edge">
<title>Node10&#45;&gt;Node11</title>
<path fill="none" stroke="midnightblue" d="M255.82,-128.73C264.95,-118.5 280.24,-101.36 291.55,-88.69"/>
<polygon fill="midnightblue" stroke="midnightblue" points="294.26,-90.92 298.3,-81.13 289.03,-86.26 294.26,-90.92"/>
</g>
<!-- Node11&#45;&gt;Node5 -->
<g id="edge17" class="edge">
<title>Node11&#45;&gt;Node5</title>
<path fill="none" stroke="midnightblue" d="M331.53,-61.87C337.57,-59.89 344,-57.83 350,-56 389.85,-43.84 435.64,-31.08 467.99,-22.27"/>
<polygon fill="midnightblue" stroke="midnightblue" points="469.27,-25.55 478,-19.55 467.44,-18.79 469.27,-25.55"/>
</g>
<!-- Node12&#45;&gt;Node4 -->
<g id="edge19" class="edge">
<title>Node12&#45;&gt;Node4</title>
<path fill="none" stroke="midnightblue" d="M482.3,-324.45C490.12,-315.91 501.56,-302.07 508,-288 526.53,-247.49 505.21,-227.66 529,-190 557.16,-145.43 608.55,-111.24 643.95,-91.52"/>
<polygon fill="midnightblue" stroke="midnightblue" points="645.91,-94.43 653.02,-86.58 642.57,-88.29 645.91,-94.43"/>
</g>
<!-- Node13 -->
<g id="node13" class="node">
<title>Node13</title>
<g id="a_node13"><a xlink:href="JUTXfb_8h.html" target="_top" xlink:title=" ">
<polygon fill="white" stroke="black" points="374.5,-257.5 374.5,-287.5 499.5,-287.5 499.5,-257.5 374.5,-257.5"/>
<text text-anchor="start" x="382.5" y="-275.5" font-family="Helvetica,sans-Serif" font-size="10.00">JSystem/JUtility/JUTXfb</text>
<text text-anchor="middle" x="437" y="-264.5" font-family="Helvetica,sans-Serif" font-size="10.00">/JUTXfb.h</text>
</a>
</g>
</g>
<!-- Node12&#45;&gt;Node13 -->
<g id="edge20" class="edge">
<title>Node12&#45;&gt;Node13</title>
<path fill="none" stroke="midnightblue" d="M468.7,-324.48C464.11,-317.09 457.26,-306.08 451.1,-296.17"/>
<polygon fill="midnightblue" stroke="midnightblue" points="453.97,-294.17 445.72,-287.52 448.03,-297.86 453.97,-294.17"/>
</g>
<!-- Node16 -->
<g id="node16" class="node">
<title>Node16</title>
<g id="a_node16"><a xlink:href="c__xyz_8h.html" target="_top" xlink:title=" ">
<polygon fill="white" stroke="black" points="210.5,-263 210.5,-282 317.5,-282 317.5,-263 210.5,-263"/>
<text text-anchor="middle" x="264" y="-270" font-family="Helvetica,sans-Serif" font-size="10.00">SComponent/c_xyz.h</text>
</a>
</g>
</g>
<!-- Node12&#45;&gt;Node16 -->
<g id="edge28" class="edge">
<title>Node12&#45;&gt;Node16</title>
<path fill="none" stroke="midnightblue" d="M443.91,-324.48C407.11,-314.05 344.69,-296.36 303.91,-284.81"/>
<polygon fill="midnightblue" stroke="midnightblue" points="304.61,-281.37 294.03,-282.01 302.7,-288.1 304.61,-281.37"/>
</g>
<!-- Node13&#45;&gt;Node5 -->
<g id="edge25" class="edge">
<title>Node13&#45;&gt;Node5</title>
<path fill="none" stroke="midnightblue" d="M440.92,-257.49C453.23,-213.58 491.07,-78.56 504.88,-29.26"/>
<polygon fill="midnightblue" stroke="midnightblue" points="508.25,-30.2 507.58,-19.63 501.51,-28.31 508.25,-30.2"/>
</g>
<!-- Node14 -->
<g id="node14" class="node">
<title>Node14</title>
<g id="a_node14"><a xlink:href="JKRHeap_8h.html" target="_top" xlink:title=" ">
<polygon fill="white" stroke="black" points="538,-190.5 538,-220.5 674,-220.5 674,-190.5 538,-190.5"/>
<text text-anchor="start" x="546" y="-208.5" font-family="Helvetica,sans-Serif" font-size="10.00">JSystem/JKernel/JKRHeap</text>
<text text-anchor="middle" x="606" y="-197.5" font-family="Helvetica,sans-Serif" font-size="10.00">/JKRHeap.h</text>
</a>
</g>
</g>
<!-- Node13&#45;&gt;Node14 -->
<g id="edge21" class="edge">
<title>Node13&#45;&gt;Node14</title>
<path fill="none" stroke="midnightblue" d="M473.67,-257.4C498.92,-247.69 532.66,-234.71 559.75,-224.29"/>
<polygon fill="midnightblue" stroke="midnightblue" points="561.32,-227.43 569.4,-220.58 558.81,-220.9 561.32,-227.43"/>
</g>
<!-- Node15 -->
<g id="node15" class="node">
<title>Node15</title>
<g id="a_node15"><a xlink:href="GX_8h.html" target="_top" xlink:title=" ">
<polygon fill="white" stroke="black" points="392.5,-129 392.5,-148 443.5,-148 443.5,-129 392.5,-129"/>
<text text-anchor="middle" x="418" y="-136" font-family="Helvetica,sans-Serif" font-size="10.00">gx/GX.h</text>
</a>
</g>
</g>
<!-- Node13&#45;&gt;Node15 -->
<g id="edge26" class="edge">
<title>Node13&#45;&gt;Node15</title>
<path fill="none" stroke="midnightblue" d="M434.97,-257.37C431.52,-233.4 424.51,-184.75 420.67,-158.06"/>
<polygon fill="midnightblue" stroke="midnightblue" points="424.13,-157.5 419.24,-148.1 417.2,-158.49 424.13,-157.5"/>
</g>
<!-- Node14&#45;&gt;Node3 -->
<g id="edge22" class="edge">
<title>Node14&#45;&gt;Node3</title>
<path fill="none" stroke="midnightblue" d="M629,-190.4C644,-181.2 663.79,-169.07 680.27,-158.95"/>
<polygon fill="midnightblue" stroke="midnightblue" points="682.35,-161.79 689.04,-153.58 678.69,-155.82 682.35,-161.79"/>
</g>
<!-- Node14&#45;&gt;Node5 -->
<g id="edge23" class="edge">
<title>Node14&#45;&gt;Node5</title>
<path fill="none" stroke="midnightblue" d="M598.94,-190.27C581.76,-155.65 537.81,-67.06 518.89,-28.91"/>
<polygon fill="midnightblue" stroke="midnightblue" points="521.83,-26.98 514.26,-19.58 515.56,-30.09 521.83,-26.98"/>
</g>
<!-- Node14&#45;&gt;Node6 -->
<g id="edge24" class="edge">
<title>Node14&#45;&gt;Node6</title>
<path fill="none" stroke="midnightblue" d="M600.07,-220.65C587.87,-248.13 557.43,-309.09 514,-344 490.61,-362.8 458.41,-374.5 434.03,-381.24"/>
<polygon fill="midnightblue" stroke="midnightblue" points="432.9,-377.92 424.11,-383.83 434.67,-384.69 432.9,-377.92"/>
</g>
<!-- Node15&#45;&gt;Node5 -->
<g id="edge27" class="edge">
<title>Node15&#45;&gt;Node5</title>
<path fill="none" stroke="midnightblue" d="M420.96,-128.77C426.54,-113.12 439.71,-79.72 458,-56 466.77,-44.62 478.78,-34 489.05,-25.94"/>
<polygon fill="midnightblue" stroke="midnightblue" points="491.3,-28.63 497.16,-19.8 487.07,-23.05 491.3,-28.63"/>
</g>
<!-- Node16&#45;&gt;Node6 -->
<g id="edge31" class="edge">
<title>Node16&#45;&gt;Node6</title>
<path fill="none" stroke="midnightblue" d="M271.42,-282.32C283.38,-296.28 308.02,-323.9 332,-344 345.7,-355.48 362.38,-366.69 375.67,-375.05"/>
<polygon fill="midnightblue" stroke="midnightblue" points="373.91,-378.08 384.26,-380.35 377.59,-372.12 373.91,-378.08"/>
</g>
<!-- Node17 -->
<g id="node17" class="node">
<title>Node17</title>
<g id="a_node17"><a xlink:href="c__math_8h.html" target="_top" xlink:title=" ">
<polygon fill="white" stroke="black" points="290,-196 290,-215 406,-215 406,-196 290,-196"/>
<text text-anchor="middle" x="348" y="-203" font-family="Helvetica,sans-Serif" font-size="10.00">SComponent/c_math.h</text>
</a>
</g>
</g>
<!-- Node16&#45;&gt;Node17 -->
<g id="edge29" class="edge">
<title>Node16&#45;&gt;Node17</title>
<path fill="none" stroke="midnightblue" d="M275.33,-262.73C289.06,-252.11 312.4,-234.05 328.92,-221.26"/>
<polygon fill="midnightblue" stroke="midnightblue" points="331.08,-224.02 336.85,-215.13 326.8,-218.48 331.08,-224.02"/>
</g>
<!-- Node18 -->
<g id="node18" class="node">
<title>Node18</title>
<g id="a_node18"><a xlink:href="mtx__vec_8h.html" target="_top" xlink:title=" ">
<polygon fill="white" stroke="black" points="210.5,-196 210.5,-215 271.5,-215 271.5,-196 210.5,-196"/>
<text text-anchor="middle" x="241" y="-203" font-family="Helvetica,sans-Serif" font-size="10.00">mtx_vec.h</text>
</a>
</g>
</g>
<!-- Node16&#45;&gt;Node18 -->
<g id="edge32" class="edge">
<title>Node16&#45;&gt;Node18</title>
<path fill="none" stroke="midnightblue" d="M260.9,-262.73C257.48,-253.09 251.9,-237.3 247.51,-224.91"/>
<polygon fill="midnightblue" stroke="midnightblue" points="250.69,-223.39 244.05,-215.13 244.09,-225.72 250.69,-223.39"/>
</g>
<!-- Node17&#45;&gt;Node6 -->
<g id="edge30" class="edge">
<title>Node17&#45;&gt;Node6</title>
<path fill="none" stroke="midnightblue" d="M347.55,-215.26C346.72,-237.62 346.48,-298.3 365,-344 369.26,-354.51 376.62,-364.71 383.41,-372.74"/>
<polygon fill="midnightblue" stroke="midnightblue" points="380.84,-375.13 390.12,-380.25 386.06,-370.46 380.84,-375.13"/>
</g>
<!-- Node18&#45;&gt;Node5 -->
<g id="edge33" class="edge">
<title>Node18&#45;&gt;Node5</title>
<path fill="none" stroke="midnightblue" d="M251.7,-195.72C280.65,-172.09 363.23,-105.63 436,-56 452.3,-44.88 471.34,-33.33 486.02,-24.72"/>
<polygon fill="midnightblue" stroke="midnightblue" points="488.08,-27.57 494.97,-19.52 484.57,-21.52 488.08,-27.57"/>
</g>
<!-- Node19&#45;&gt;Node5 -->
<g id="edge45" class="edge">
<title>Node19&#45;&gt;Node5</title>
<path fill="none" stroke="midnightblue" d="M854,-570.24C854,-546.03 854,-495.35 854,-452.5 854,-452.5 854,-452.5 854,-137.5 854,-95.24 840.11,-79.53 805,-56 766.03,-29.88 634.57,-18.2 560.98,-13.6"/>
<polygon fill="midnightblue" stroke="midnightblue" points="560.75,-10.08 550.56,-12.97 560.33,-17.06 560.75,-10.08"/>
</g>
<!-- Node20 -->
<g id="node20" class="node">
<title>Node20</title>
<g id="a_node20"><a xlink:href="JKRDecomp_8h.html" target="_top" xlink:title=" ">
<polygon fill="white" stroke="black" points="888.5,-503.5 888.5,-533.5 1037.5,-533.5 1037.5,-503.5 888.5,-503.5"/>
<text text-anchor="start" x="896.5" y="-521.5" font-family="Helvetica,sans-Serif" font-size="10.00">JSystem/JKernel/JKRDecomp</text>
<text text-anchor="middle" x="963" y="-510.5" font-family="Helvetica,sans-Serif" font-size="10.00">/JKRDecomp.h</text>
</a>
</g>
</g>
<!-- Node19&#45;&gt;Node20 -->
<g id="edge35" class="edge">
<title>Node19&#45;&gt;Node20</title>
<path fill="none" stroke="midnightblue" d="M877.65,-570.4C893.08,-561.2 913.42,-549.07 930.38,-538.95"/>
<polygon fill="midnightblue" stroke="midnightblue" points="932.6,-541.7 939.39,-533.58 929.01,-535.69 932.6,-541.7"/>
</g>
<!-- Node20&#45;&gt;Node5 -->
<g id="edge44" class="edge">
<title>Node20&#45;&gt;Node5</title>
<path fill="none" stroke="midnightblue" d="M992.46,-503.45C1028.85,-483.81 1086,-444.45 1086,-391 1086,-391 1086,-391 1086,-137.5 1086,-98.25 1083.73,-79.1 1052,-56 1012.83,-27.49 688.12,-15.77 560.87,-12.24"/>
<polygon fill="midnightblue" stroke="midnightblue" points="560.71,-8.74 550.62,-11.97 560.52,-15.74 560.71,-8.74"/>
</g>
<!-- Node21 -->
<g id="node21" class="node">
<title>Node21</title>
<g id="a_node21"><a xlink:href="JKRCompression_8h.html" target="_top" xlink:title=" ">
<polygon fill="white" stroke="black" points="881.5,-129 881.5,-148 1058.5,-148 1058.5,-129 881.5,-129"/>
<text text-anchor="middle" x="970" y="-136" font-family="Helvetica,sans-Serif" font-size="10.00">JSystem/JKernel/JKRCompression.h</text>
</a>
</g>
</g>
<!-- Node20&#45;&gt;Node21 -->
<g id="edge36" class="edge">
<title>Node20&#45;&gt;Node21</title>
<path fill="none" stroke="midnightblue" d="M963.73,-503.47C964.89,-480.13 967,-431.87 967,-391 967,-391 967,-391 967,-271.5 967,-231.15 968.42,-183.87 969.3,-158.28"/>
<polygon fill="midnightblue" stroke="midnightblue" points="972.81,-158.27 969.67,-148.15 965.81,-158.02 972.81,-158.27"/>
</g>
<!-- Node20&#45;&gt;Node23 -->
<g id="edge40" class="edge">
<title>Node20&#45;&gt;Node23</title>
<path fill="none" stroke="midnightblue" d="M917.91,-503.48C886.02,-493.56 843.07,-480.2 809.14,-469.65"/>
<polygon fill="midnightblue" stroke="midnightblue" points="809.96,-466.24 799.37,-466.61 807.88,-472.92 809.96,-466.24"/>
</g>
<!-- Node21&#45;&gt;Node5 -->
<g id="edge39" class="edge">
<title>Node21&#45;&gt;Node5</title>
<path fill="none" stroke="midnightblue" d="M959.71,-128.75C935.96,-108.62 878.54,-60.45 868,-56 813.78,-33.1 646.27,-19.57 561,-14"/>
<polygon fill="midnightblue" stroke="midnightblue" points="560.97,-10.49 550.77,-13.34 560.53,-17.47 560.97,-10.49"/>
</g>
<!-- Node22 -->
<g id="node22" class="node">
<title>Node22</title>
<g id="a_node22"><a xlink:href="SArc_8h.html" target="_top" xlink:title=" ">
<polygon fill="white" stroke="black" points="920.5,-62 920.5,-81 1043.5,-81 1043.5,-62 920.5,-62"/>
<text text-anchor="middle" x="982" y="-69" font-family="Helvetica,sans-Serif" font-size="10.00">JSystem/JKernel/SArc.h</text>
</a>
</g>
</g>
<!-- Node21&#45;&gt;Node22 -->
<g id="edge37" class="edge">
<title>Node21&#45;&gt;Node22</title>
<path fill="none" stroke="midnightblue" d="M971.62,-128.73C973.38,-119.18 976.26,-103.62 978.53,-91.28"/>
<polygon fill="midnightblue" stroke="midnightblue" points="982.03,-91.6 980.41,-81.13 975.15,-90.33 982.03,-91.6"/>
</g>
<!-- Node22&#45;&gt;Node5 -->
<g id="edge38" class="edge">
<title>Node22&#45;&gt;Node5</title>
<path fill="none" stroke="midnightblue" d="M940.28,-61.96C929.17,-59.84 917.16,-57.7 906,-56 782.52,-37.23 636.29,-22.56 560.78,-15.54"/>
<polygon fill="midnightblue" stroke="midnightblue" points="560.89,-12.03 550.61,-14.6 560.24,-19 560.89,-12.03"/>
</g>
<!-- Node23&#45;&gt;Node3 -->
<g id="edge41" class="edge">
<title>Node23&#45;&gt;Node3</title>
<path fill="none" stroke="midnightblue" d="M758.86,-436.47C765.87,-414.93 778,-372.27 778,-335 778,-335 778,-335 778,-271.5 778,-233.74 771.77,-223.32 754,-190 748.55,-179.78 740.81,-169.73 733.47,-161.31"/>
<polygon fill="midnightblue" stroke="midnightblue" points="735.94,-158.83 726.62,-153.79 730.77,-163.54 735.94,-158.83"/>
</g>
<!-- Node23&#45;&gt;Node5 -->
<g id="edge42" class="edge">
<title>Node23&#45;&gt;Node5</title>
<path fill="none" stroke="midnightblue" d="M767.45,-436.49C785.69,-415.97 816,-375.74 816,-335 816,-335 816,-335 816,-137.5 816,-97.15 808.34,-80.13 776,-56 742.75,-31.19 628.14,-19.17 560.69,-14.12"/>
<polygon fill="midnightblue" stroke="midnightblue" points="560.92,-10.62 550.69,-13.39 560.42,-17.61 560.92,-10.62"/>
</g>
<!-- Node23&#45;&gt;Node6 -->
<g id="edge43" class="edge">
<title>Node23&#45;&gt;Node6</title>
<path fill="none" stroke="midnightblue" d="M682.16,-438.46C606.82,-425.83 491.55,-406.51 434.1,-396.88"/>
<polygon fill="midnightblue" stroke="midnightblue" points="434.51,-393.4 424.06,-395.2 433.35,-400.31 434.51,-393.4"/>
</g>
</g>
</svg>
