<?xml version="1.0" encoding="UTF-8" standalone="no"?>
<!DOCTYPE svg PUBLIC "-//W3C//DTD SVG 1.1//EN"
 "http://www.w3.org/Graphics/SVG/1.1/DTD/svg11.dtd">
<!-- Generated by graphviz version 2.46.1 (20210215.1649)
 -->
<!-- Title: libs/JSystem/JKernel/JKRAramStream.cpp Pages: 1 -->
<svg width="1192pt" height="609pt"
 viewBox="0.00 0.00 1192.43 609.00" xmlns="http://www.w3.org/2000/svg" xmlns:xlink="http://www.w3.org/1999/xlink">
<g id="graph0" class="graph" transform="scale(1 1) rotate(0) translate(4 605)">
<title>libs/JSystem/JKernel/JKRAramStream.cpp</title>
<polygon fill="white" stroke="transparent" points="-4,4 -4,-605 1188.43,-605 1188.43,4 -4,4"/>
<!-- Node1 -->
<g id="node1" class="node">
<title>Node1</title>
<g id="a_node1"><a xlink:title=" ">
<polygon fill="#bfbfbf" stroke="black" points="346.93,-570.5 346.93,-600.5 457.93,-600.5 457.93,-570.5 346.93,-570.5"/>
<text text-anchor="start" x="354.93" y="-588.5" font-family="Helvetica,sans-Serif" font-size="10.00">libs/JSystem/JKernel</text>
<text text-anchor="middle" x="402.43" y="-577.5" font-family="Helvetica,sans-Serif" font-size="10.00">/JKRAramStream.cpp</text>
</a>
</g>
</g>
<!-- Node2 -->
<g id="node2" class="node">
<title>Node2</title>
<g id="a_node2"><a xlink:href="JKRAramStream_8h.html" target="_top" xlink:title=" ">
<polygon fill="white" stroke="black" points="778.93,-503.5 778.93,-533.5 945.93,-533.5 945.93,-503.5 778.93,-503.5"/>
<text text-anchor="start" x="786.93" y="-521.5" font-family="Helvetica,sans-Serif" font-size="10.00">JSystem/JKernel/JKRAramStream</text>
<text text-anchor="middle" x="862.43" y="-510.5" font-family="Helvetica,sans-Serif" font-size="10.00">/JKRAramStream.h</text>
</a>
</g>
</g>
<!-- Node1&#45;&gt;Node2 -->
<g id="edge1" class="edge">
<title>Node1&#45;&gt;Node2</title>
<path fill="none" stroke="midnightblue" d="M458.37,-576.59C535.53,-565.69 675.63,-545.9 768.87,-532.72"/>
<polygon fill="midnightblue" stroke="midnightblue" points="769.46,-536.17 778.87,-531.31 768.48,-529.24 769.46,-536.17"/>
</g>
<!-- Node7 -->
<g id="node7" class="node">
<title>Node7</title>
<g id="a_node7"><a xlink:href="global_8h.html" target="_top" xlink:title=" ">
<polygon fill="white" stroke="black" points="377.43,-380.5 377.43,-399.5 427.43,-399.5 427.43,-380.5 377.43,-380.5"/>
<text text-anchor="middle" x="402.43" y="-387.5" font-family="Helvetica,sans-Serif" font-size="10.00">global.h</text>
</a>
</g>
</g>
<!-- Node1&#45;&gt;Node7 -->
<g id="edge49" class="edge">
<title>Node1&#45;&gt;Node7</title>
<path fill="none" stroke="midnightblue" d="M402.43,-570.27C402.43,-535.94 402.43,-448.57 402.43,-409.9"/>
<polygon fill="midnightblue" stroke="midnightblue" points="405.93,-409.58 402.43,-399.58 398.93,-409.58 405.93,-409.58"/>
</g>
<!-- Node22 -->
<g id="node22" class="node">
<title>Node22</title>
<g id="a_node22"><a xlink:href="JKRAramPiece_8h.html" target="_top" xlink:title=" ">
<polygon fill="white" stroke="black" points="148.93,-190.5 148.93,-220.5 309.93,-220.5 309.93,-190.5 148.93,-190.5"/>
<text text-anchor="start" x="156.93" y="-208.5" font-family="Helvetica,sans-Serif" font-size="10.00">JSystem/JKernel/JKRAramPiece</text>
<text text-anchor="middle" x="229.43" y="-197.5" font-family="Helvetica,sans-Serif" font-size="10.00">/JKRAramPiece.h</text>
</a>
</g>
</g>
<!-- Node1&#45;&gt;Node22 -->
<g id="edge41" class="edge">
<title>Node1&#45;&gt;Node22</title>
<path fill="none" stroke="midnightblue" d="M346.67,-577.98C236.49,-563.54 1.43,-524.33 1.43,-452.5 1.43,-452.5 1.43,-452.5 1.43,-333 1.43,-298.18 -4.29,-281.52 20.43,-257 37.54,-240.03 90.54,-227.33 138.89,-218.91"/>
<polygon fill="midnightblue" stroke="midnightblue" points="139.53,-222.36 148.8,-217.23 138.36,-215.45 139.53,-222.36"/>
</g>
<!-- Node23 -->
<g id="node23" class="node">
<title>Node23</title>
<g id="a_node23"><a xlink:href="JKRExpHeap_8h.html" target="_top" xlink:title=" ">
<polygon fill="white" stroke="black" points="29.43,-257.5 29.43,-287.5 181.43,-287.5 181.43,-257.5 29.43,-257.5"/>
<text text-anchor="start" x="37.43" y="-275.5" font-family="Helvetica,sans-Serif" font-size="10.00">JSystem/JKernel/JKRExpHeap</text>
<text text-anchor="middle" x="105.43" y="-264.5" font-family="Helvetica,sans-Serif" font-size="10.00">/JKRExpHeap.h</text>
</a>
</g>
</g>
<!-- Node1&#45;&gt;Node23 -->
<g id="edge46" class="edge">
<title>Node1&#45;&gt;Node23</title>
<path fill="none" stroke="midnightblue" d="M346.76,-580.93C269.31,-572.6 138.43,-544.87 138.43,-452.5 138.43,-452.5 138.43,-452.5 138.43,-389 138.43,-356.12 125.91,-319.93 116.3,-296.98"/>
<polygon fill="midnightblue" stroke="midnightblue" points="119.46,-295.49 112.27,-287.71 113.04,-298.28 119.46,-295.49"/>
</g>
<!-- Node24 -->
<g id="node24" class="node">
<title>Node24</title>
<g id="a_node24"><a xlink:title=" ">
<polygon fill="white" stroke="#bfbfbf" points="963.93,-503.5 963.93,-533.5 1130.93,-533.5 1130.93,-503.5 963.93,-503.5"/>
<text text-anchor="start" x="971.93" y="-521.5" font-family="Helvetica,sans-Serif" font-size="10.00">JSystem/JKernel/JKRAramStream</text>
<text text-anchor="middle" x="1047.43" y="-510.5" font-family="Helvetica,sans-Serif" font-size="10.00">/asm/func_802D3CE0.s</text>
</a>
</g>
</g>
<!-- Node1&#45;&gt;Node24 -->
<g id="edge50" class="edge">
<title>Node1&#45;&gt;Node24</title>
<path fill="none" stroke="midnightblue" d="M458.18,-580.57C556.18,-573.42 765.9,-556.96 953.75,-534.03"/>
<polygon fill="midnightblue" stroke="midnightblue" points="954.31,-537.49 963.81,-532.79 953.46,-530.54 954.31,-537.49"/>
</g>
<!-- Node3 -->
<g id="node3" class="node">
<title>Node3</title>
<g id="a_node3"><a xlink:href="JKRThread_8h.html" target="_top" xlink:title=" ">
<polygon fill="white" stroke="black" points="740.93,-436.5 740.93,-466.5 883.93,-466.5 883.93,-436.5 740.93,-436.5"/>
<text text-anchor="start" x="748.93" y="-454.5" font-family="Helvetica,sans-Serif" font-size="10.00">JSystem/JKernel/JKRThread</text>
<text text-anchor="middle" x="812.43" y="-443.5" font-family="Helvetica,sans-Serif" font-size="10.00">/JKRThread.h</text>
</a>
</g>
</g>
<!-- Node2&#45;&gt;Node3 -->
<g id="edge2" class="edge">
<title>Node2&#45;&gt;Node3</title>
<path fill="none" stroke="midnightblue" d="M851.58,-503.4C845.09,-494.96 836.71,-484.07 829.37,-474.52"/>
<polygon fill="midnightblue" stroke="midnightblue" points="832.13,-472.37 823.26,-466.58 826.58,-476.64 832.13,-472.37"/>
</g>
<!-- Node6 -->
<g id="node6" class="node">
<title>Node6</title>
<g id="a_node6"><a xlink:href="types_8h.html" target="_top" xlink:title=" ">
<polygon fill="white" stroke="black" points="499.93,-0.5 499.93,-19.5 580.93,-19.5 580.93,-0.5 499.93,-0.5"/>
<text text-anchor="middle" x="540.43" y="-7.5" font-family="Helvetica,sans-Serif" font-size="10.00">dolphin/types.h</text>
</a>
</g>
</g>
<!-- Node2&#45;&gt;Node6 -->
<g id="edge40" class="edge">
<title>Node2&#45;&gt;Node6</title>
<path fill="none" stroke="midnightblue" d="M937.92,-503.48C1033.1,-483.6 1184.43,-443.7 1184.43,-391 1184.43,-391 1184.43,-391 1184.43,-137.5 1184.43,-95.46 1172.11,-78.22 1136.43,-56 1090.71,-27.53 727.23,-15.64 591.4,-12.17"/>
<polygon fill="midnightblue" stroke="midnightblue" points="591.34,-8.66 581.26,-11.91 591.16,-15.66 591.34,-8.66"/>
</g>
<!-- Node18 -->
<g id="node18" class="node">
<title>Node18</title>
<g id="a_node18"><a xlink:href="JSUFileInputStream_8h.html" target="_top" xlink:title=" ">
<polygon fill="white" stroke="black" points="939.93,-257.5 939.93,-287.5 1108.93,-287.5 1108.93,-257.5 939.93,-257.5"/>
<text text-anchor="start" x="947.93" y="-275.5" font-family="Helvetica,sans-Serif" font-size="10.00">JSystem/JSupport/JSUFile</text>
<text text-anchor="middle" x="1024.43" y="-264.5" font-family="Helvetica,sans-Serif" font-size="10.00">InputStream/JSUFileInputStream.h</text>
</a>
</g>
</g>
<!-- Node2&#45;&gt;Node18 -->
<g id="edge31" class="edge">
<title>Node2&#45;&gt;Node18</title>
<path fill="none" stroke="midnightblue" d="M884.91,-503.4C898.2,-494.24 914.69,-481.35 926.43,-467 970.46,-413.19 1001.96,-336.34 1016.09,-297.68"/>
<polygon fill="midnightblue" stroke="midnightblue" points="1019.54,-298.43 1019.62,-287.84 1012.95,-296.07 1019.54,-298.43"/>
</g>
<!-- Node19 -->
<g id="node19" class="node">
<title>Node19</title>
<g id="a_node19"><a xlink:href="JSURandomInputStream_8h.html" target="_top" xlink:title=" ">
<polygon fill="white" stroke="black" points="916.93,-190.5 916.93,-220.5 1105.93,-220.5 1105.93,-190.5 916.93,-190.5"/>
<text text-anchor="start" x="924.93" y="-208.5" font-family="Helvetica,sans-Serif" font-size="10.00">JSystem/JSupport/JSURandom</text>
<text text-anchor="middle" x="1011.43" y="-197.5" font-family="Helvetica,sans-Serif" font-size="10.00">InputStream/JSURandomInputStream.h</text>
</a>
</g>
</g>
<!-- Node2&#45;&gt;Node19 -->
<g id="edge39" class="edge">
<title>Node2&#45;&gt;Node19</title>
<path fill="none" stroke="midnightblue" d="M872.21,-503.48C878.7,-493.64 886.99,-479.98 892.43,-467 905.92,-434.78 912.43,-425.93 912.43,-391 912.43,-391 912.43,-391 912.43,-333 912.43,-298.18 911.02,-285.21 931.43,-257 940.91,-243.9 954.92,-233.41 968.59,-225.46"/>
<polygon fill="midnightblue" stroke="midnightblue" points="970.38,-228.47 977.47,-220.59 967.01,-222.33 970.38,-228.47"/>
</g>
<!-- Node4 -->
<g id="node4" class="node">
<title>Node4</title>
<g id="a_node4"><a xlink:href="JKRDisposer_8h.html" target="_top" xlink:title=" ">
<polygon fill="white" stroke="black" points="632.93,-123.5 632.93,-153.5 783.93,-153.5 783.93,-123.5 632.93,-123.5"/>
<text text-anchor="start" x="640.93" y="-141.5" font-family="Helvetica,sans-Serif" font-size="10.00">JSystem/JKernel/JKRDisposer</text>
<text text-anchor="middle" x="708.43" y="-130.5" font-family="Helvetica,sans-Serif" font-size="10.00">/JKRDisposer.h</text>
</a>
</g>
</g>
<!-- Node3&#45;&gt;Node4 -->
<g id="edge3" class="edge">
<title>Node3&#45;&gt;Node4</title>
<path fill="none" stroke="midnightblue" d="M812.43,-436.28C812.43,-414.48 812.43,-371.49 812.43,-335 812.43,-335 812.43,-335 812.43,-271.5 812.43,-223.5 769.47,-182.67 738.77,-159.63"/>
<polygon fill="midnightblue" stroke="midnightblue" points="740.63,-156.65 730.48,-153.61 736.52,-162.32 740.63,-156.65"/>
</g>
<!-- Node3&#45;&gt;Node6 -->
<g id="edge7" class="edge">
<title>Node3&#45;&gt;Node6</title>
<path fill="none" stroke="midnightblue" d="M820.3,-436.41C831.43,-415.13 850.43,-373.21 850.43,-335 850.43,-335 850.43,-335 850.43,-137.5 850.43,-100.2 857.92,-81.21 830.43,-56 796.36,-24.76 664.87,-15.2 591.2,-12.28"/>
<polygon fill="midnightblue" stroke="midnightblue" points="591.33,-8.78 581.2,-11.91 591.07,-15.78 591.33,-8.78"/>
</g>
<!-- Node3&#45;&gt;Node7 -->
<g id="edge8" class="edge">
<title>Node3&#45;&gt;Node7</title>
<path fill="none" stroke="midnightblue" d="M740.54,-440.07C651.82,-427.19 504.48,-405.81 437.5,-396.09"/>
<polygon fill="midnightblue" stroke="midnightblue" points="437.86,-392.61 427.46,-394.63 436.86,-399.53 437.86,-392.61"/>
</g>
<!-- Node5 -->
<g id="node5" class="node">
<title>Node5</title>
<g id="a_node5"><a xlink:href="JSUList_8h.html" target="_top" xlink:title=" ">
<polygon fill="white" stroke="black" points="568.43,-56.5 568.43,-86.5 704.43,-86.5 704.43,-56.5 568.43,-56.5"/>
<text text-anchor="start" x="576.43" y="-74.5" font-family="Helvetica,sans-Serif" font-size="10.00">JSystem/JSupport/JSUList</text>
<text text-anchor="middle" x="636.43" y="-63.5" font-family="Helvetica,sans-Serif" font-size="10.00">/JSUList.h</text>
</a>
</g>
</g>
<!-- Node4&#45;&gt;Node5 -->
<g id="edge4" class="edge">
<title>Node4&#45;&gt;Node5</title>
<path fill="none" stroke="midnightblue" d="M692.81,-123.4C683.09,-114.62 670.42,-103.18 659.55,-93.37"/>
<polygon fill="midnightblue" stroke="midnightblue" points="661.79,-90.68 652.02,-86.58 657.1,-95.88 661.79,-90.68"/>
</g>
<!-- Node4&#45;&gt;Node6 -->
<g id="edge6" class="edge">
<title>Node4&#45;&gt;Node6</title>
<path fill="none" stroke="midnightblue" d="M714.4,-123.47C720.87,-105.8 728.43,-75.4 713.43,-56 698.52,-36.71 636.74,-24.15 591.25,-17.32"/>
<polygon fill="midnightblue" stroke="midnightblue" points="591.63,-13.84 581.23,-15.87 590.63,-20.77 591.63,-13.84"/>
</g>
<!-- Node5&#45;&gt;Node6 -->
<g id="edge5" class="edge">
<title>Node5&#45;&gt;Node6</title>
<path fill="none" stroke="midnightblue" d="M613.68,-56.4C598.43,-46.95 578.44,-34.56 563.19,-25.11"/>
<polygon fill="midnightblue" stroke="midnightblue" points="564.74,-21.95 554.4,-19.66 561.05,-27.9 564.74,-21.95"/>
</g>
<!-- Node7&#45;&gt;Node6 -->
<g id="edge9" class="edge">
<title>Node7&#45;&gt;Node6</title>
<path fill="none" stroke="midnightblue" d="M399.14,-380.46C392.14,-361.51 376.43,-314.4 376.43,-273.5 376.43,-273.5 376.43,-273.5 376.43,-137.5 376.43,-94.29 396.1,-83.49 429.43,-56 448.35,-40.4 473.39,-29.62 494.91,-22.53"/>
<polygon fill="midnightblue" stroke="midnightblue" points="496.01,-25.86 504.51,-19.53 493.92,-19.17 496.01,-25.86"/>
</g>
<!-- Node8 -->
<g id="node8" class="node">
<title>Node8</title>
<g id="a_node8"><a xlink:href="AR_8h.html" target="_top" xlink:title=" ">
<polygon fill="white" stroke="black" points="404.93,-324.5 404.93,-343.5 453.93,-343.5 453.93,-324.5 404.93,-324.5"/>
<text text-anchor="middle" x="429.43" y="-331.5" font-family="Helvetica,sans-Serif" font-size="10.00">ar/AR.h</text>
</a>
</g>
</g>
<!-- Node7&#45;&gt;Node8 -->
<g id="edge10" class="edge">
<title>Node7&#45;&gt;Node8</title>
<path fill="none" stroke="midnightblue" d="M406.89,-380.08C410.58,-372.69 415.95,-361.95 420.52,-352.81"/>
<polygon fill="midnightblue" stroke="midnightblue" points="423.71,-354.26 425.05,-343.75 417.45,-351.13 423.71,-354.26"/>
</g>
<!-- Node9 -->
<g id="node9" class="node">
<title>Node9</title>
<g id="a_node9"><a xlink:href="ARQ_8h.html" target="_top" xlink:title=" ">
<polygon fill="white" stroke="black" points="138.43,-129 138.43,-148 194.43,-148 194.43,-129 138.43,-129"/>
<text text-anchor="middle" x="166.43" y="-136" font-family="Helvetica,sans-Serif" font-size="10.00">ar/ARQ.h</text>
</a>
</g>
</g>
<!-- Node7&#45;&gt;Node9 -->
<g id="edge12" class="edge">
<title>Node7&#45;&gt;Node9</title>
<path fill="none" stroke="midnightblue" d="M377.21,-386.6C345.28,-382.49 289.82,-371.67 251.43,-344 213.12,-316.39 223.77,-290.45 190.43,-257 170.84,-237.35 152.19,-245.63 139.43,-221 128.55,-200.01 141.52,-173.74 152.96,-156.79"/>
<polygon fill="midnightblue" stroke="midnightblue" points="155.98,-158.59 159,-148.43 150.31,-154.49 155.98,-158.59"/>
</g>
<!-- Node10 -->
<g id="node10" class="node">
<title>Node10</title>
<g id="a_node10"><a xlink:href="mwcc_8h.html" target="_top" xlink:title=" ">
<polygon fill="white" stroke="black" points="260.43,-324.5 260.43,-343.5 310.43,-343.5 310.43,-324.5 260.43,-324.5"/>
<text text-anchor="middle" x="285.43" y="-331.5" font-family="Helvetica,sans-Serif" font-size="10.00">mwcc.h</text>
</a>
</g>
</g>
<!-- Node7&#45;&gt;Node10 -->
<g id="edge14" class="edge">
<title>Node7&#45;&gt;Node10</title>
<path fill="none" stroke="midnightblue" d="M383.89,-380.44C364.81,-371.64 334.85,-357.81 312.99,-347.72"/>
<polygon fill="midnightblue" stroke="midnightblue" points="314.43,-344.53 303.88,-343.52 311.49,-350.88 314.43,-344.53"/>
</g>
<!-- Node11 -->
<g id="node11" class="node">
<title>Node11</title>
<g id="a_node11"><a xlink:href="OS_8h.html" target="_top" xlink:title=" ">
<polygon fill="white" stroke="black" points="275.43,-129 275.43,-148 327.43,-148 327.43,-129 275.43,-129"/>
<text text-anchor="middle" x="301.43" y="-136" font-family="Helvetica,sans-Serif" font-size="10.00">os/OS.h</text>
</a>
</g>
</g>
<!-- Node7&#45;&gt;Node11 -->
<g id="edge15" class="edge">
<title>Node7&#45;&gt;Node11</title>
<path fill="none" stroke="midnightblue" d="M392.48,-380.31C383.42,-371.87 370.28,-358.29 362.43,-344 328.15,-281.62 339.57,-257.97 318.43,-190 315.08,-179.22 311.06,-167.24 307.77,-157.65"/>
<polygon fill="midnightblue" stroke="midnightblue" points="311.02,-156.34 304.44,-148.04 304.4,-158.63 311.02,-156.34"/>
</g>
<!-- Node13 -->
<g id="node13" class="node">
<title>Node13</title>
<g id="a_node13"><a xlink:href="variables_8h.html" target="_top" xlink:title=" ">
<polygon fill="white" stroke="black" points="632.93,-324.5 632.93,-343.5 695.93,-343.5 695.93,-324.5 632.93,-324.5"/>
<text text-anchor="middle" x="664.43" y="-331.5" font-family="Helvetica,sans-Serif" font-size="10.00">variables.h</text>
</a>
</g>
</g>
<!-- Node7&#45;&gt;Node13 -->
<g id="edge19" class="edge">
<title>Node7&#45;&gt;Node13</title>
<path fill="none" stroke="midnightblue" d="M427.55,-383.82C472.55,-374.55 567.34,-355.01 622.39,-343.66"/>
<polygon fill="midnightblue" stroke="midnightblue" points="623.43,-347.02 632.52,-341.58 622.02,-340.17 623.43,-347.02"/>
</g>
<!-- Node8&#45;&gt;Node6 -->
<g id="edge11" class="edge">
<title>Node8&#45;&gt;Node6</title>
<path fill="none" stroke="midnightblue" d="M427.71,-324.45C423.77,-304.11 414.43,-251.17 414.43,-206.5 414.43,-206.5 414.43,-206.5 414.43,-137.5 414.43,-82.87 474.15,-43.5 511.36,-24.27"/>
<polygon fill="midnightblue" stroke="midnightblue" points="513.35,-27.2 520.74,-19.61 510.23,-20.93 513.35,-27.2"/>
</g>
<!-- Node9&#45;&gt;Node6 -->
<g id="edge13" class="edge">
<title>Node9&#45;&gt;Node6</title>
<path fill="none" stroke="midnightblue" d="M168.13,-128.87C171.98,-111.82 183.07,-73.9 208.43,-56 252.68,-24.75 408.33,-15.15 489.82,-12.24"/>
<polygon fill="midnightblue" stroke="midnightblue" points="489.98,-15.74 499.85,-11.9 489.74,-8.74 489.98,-15.74"/>
</g>
<!-- Node11&#45;&gt;Node6 -->
<g id="edge16" class="edge">
<title>Node11&#45;&gt;Node6</title>
<path fill="none" stroke="midnightblue" d="M305.41,-128.82C313.58,-112.02 333.9,-75.02 362.43,-56 400.49,-30.63 451.82,-19.56 489.57,-14.73"/>
<polygon fill="midnightblue" stroke="midnightblue" points="490.32,-18.17 499.84,-13.53 489.5,-11.22 490.32,-18.17"/>
</g>
<!-- Node12 -->
<g id="node12" class="node">
<title>Node12</title>
<g id="a_node12"><a xlink:href="dvd_8h.html" target="_top" xlink:title=" ">
<polygon fill="white" stroke="black" points="250.93,-62 250.93,-81 309.93,-81 309.93,-62 250.93,-62"/>
<text text-anchor="middle" x="280.43" y="-69" font-family="Helvetica,sans-Serif" font-size="10.00">dvd/dvd.h</text>
</a>
</g>
</g>
<!-- Node11&#45;&gt;Node12 -->
<g id="edge17" class="edge">
<title>Node11&#45;&gt;Node12</title>
<path fill="none" stroke="midnightblue" d="M298.6,-128.73C295.48,-119.09 290.38,-103.3 286.38,-90.91"/>
<polygon fill="midnightblue" stroke="midnightblue" points="289.62,-89.57 283.22,-81.13 282.96,-91.72 289.62,-89.57"/>
</g>
<!-- Node12&#45;&gt;Node6 -->
<g id="edge18" class="edge">
<title>Node12&#45;&gt;Node6</title>
<path fill="none" stroke="midnightblue" d="M304.95,-61.88C311.25,-59.81 318.06,-57.71 324.43,-56 380.55,-40.96 446,-27.94 490.02,-19.83"/>
<polygon fill="midnightblue" stroke="midnightblue" points="490.69,-23.27 499.9,-18.03 489.43,-16.38 490.69,-23.27"/>
</g>
<!-- Node13&#45;&gt;Node5 -->
<g id="edge20" class="edge">
<title>Node13&#45;&gt;Node5</title>
<path fill="none" stroke="midnightblue" d="M669.73,-324.39C674.88,-315.59 682.49,-301.35 686.43,-288 694.91,-259.24 692.65,-250.94 694.43,-221 695.25,-207.25 701.64,-201.74 694.43,-190 675.91,-159.85 641.94,-184.15 623.43,-154 612.71,-136.55 618.02,-113.17 624.79,-95.93"/>
<polygon fill="midnightblue" stroke="midnightblue" points="628.08,-97.15 628.84,-86.58 621.65,-94.37 628.08,-97.15"/>
</g>
<!-- Node14 -->
<g id="node14" class="node">
<title>Node14</title>
<g id="a_node14"><a xlink:href="JUTXfb_8h.html" target="_top" xlink:title=" ">
<polygon fill="white" stroke="black" points="552.93,-257.5 552.93,-287.5 677.93,-287.5 677.93,-257.5 552.93,-257.5"/>
<text text-anchor="start" x="560.93" y="-275.5" font-family="Helvetica,sans-Serif" font-size="10.00">JSystem/JUtility/JUTXfb</text>
<text text-anchor="middle" x="615.43" y="-264.5" font-family="Helvetica,sans-Serif" font-size="10.00">/JUTXfb.h</text>
</a>
</g>
</g>
<!-- Node13&#45;&gt;Node14 -->
<g id="edge21" class="edge">
<title>Node13&#45;&gt;Node14</title>
<path fill="none" stroke="midnightblue" d="M657.41,-324.48C651.14,-316.87 641.7,-305.4 633.35,-295.26"/>
<polygon fill="midnightblue" stroke="midnightblue" points="636.04,-293.02 626.98,-287.52 630.63,-297.47 636.04,-293.02"/>
</g>
<!-- Node17 -->
<g id="node17" class="node">
<title>Node17</title>
<g id="a_node17"><a xlink:href="mtx__vec_8h.html" target="_top" xlink:title=" ">
<polygon fill="white" stroke="black" points="760.93,-62 760.93,-81 821.93,-81 821.93,-62 760.93,-62"/>
<text text-anchor="middle" x="791.43" y="-69" font-family="Helvetica,sans-Serif" font-size="10.00">mtx_vec.h</text>
</a>
</g>
</g>
<!-- Node13&#45;&gt;Node17 -->
<g id="edge29" class="edge">
<title>Node13&#45;&gt;Node17</title>
<path fill="none" stroke="midnightblue" d="M674.21,-324.16C700.07,-300.04 769.77,-229.77 792.43,-154 798.62,-133.29 797.07,-108.28 794.81,-91.47"/>
<polygon fill="midnightblue" stroke="midnightblue" points="798.22,-90.64 793.22,-81.3 791.3,-91.72 798.22,-90.64"/>
</g>
<!-- Node14&#45;&gt;Node6 -->
<g id="edge26" class="edge">
<title>Node14&#45;&gt;Node6</title>
<path fill="none" stroke="midnightblue" d="M611.4,-257.37C606.52,-240.88 597.66,-212.96 587.43,-190 579.98,-173.28 574.87,-170.72 567.43,-154 554.62,-125.24 550.43,-117.91 544.43,-87 540.7,-67.77 539.95,-45.34 539.98,-29.85"/>
<polygon fill="midnightblue" stroke="midnightblue" points="543.48,-29.57 540.11,-19.53 536.48,-29.48 543.48,-29.57"/>
</g>
<!-- Node15 -->
<g id="node15" class="node">
<title>Node15</title>
<g id="a_node15"><a xlink:href="JKRHeap_8h.html" target="_top" xlink:title=" ">
<polygon fill="white" stroke="black" points="442.43,-190.5 442.43,-220.5 578.43,-220.5 578.43,-190.5 442.43,-190.5"/>
<text text-anchor="start" x="450.43" y="-208.5" font-family="Helvetica,sans-Serif" font-size="10.00">JSystem/JKernel/JKRHeap</text>
<text text-anchor="middle" x="510.43" y="-197.5" font-family="Helvetica,sans-Serif" font-size="10.00">/JKRHeap.h</text>
</a>
</g>
</g>
<!-- Node14&#45;&gt;Node15 -->
<g id="edge22" class="edge">
<title>Node14&#45;&gt;Node15</title>
<path fill="none" stroke="midnightblue" d="M592.65,-257.4C577.79,-248.2 558.19,-236.07 541.86,-225.95"/>
<polygon fill="midnightblue" stroke="midnightblue" points="543.51,-222.86 533.17,-220.58 539.83,-228.82 543.51,-222.86"/>
</g>
<!-- Node16 -->
<g id="node16" class="node">
<title>Node16</title>
<g id="a_node16"><a xlink:href="GX_8h.html" target="_top" xlink:title=" ">
<polygon fill="white" stroke="black" points="634.93,-196 634.93,-215 685.93,-215 685.93,-196 634.93,-196"/>
<text text-anchor="middle" x="660.43" y="-203" font-family="Helvetica,sans-Serif" font-size="10.00">gx/GX.h</text>
</a>
</g>
</g>
<!-- Node14&#45;&gt;Node16 -->
<g id="edge27" class="edge">
<title>Node14&#45;&gt;Node16</title>
<path fill="none" stroke="midnightblue" d="M625.19,-257.4C632.07,-247.46 641.32,-234.11 648.61,-223.57"/>
<polygon fill="midnightblue" stroke="midnightblue" points="651.6,-225.41 654.41,-215.19 645.84,-221.42 651.6,-225.41"/>
</g>
<!-- Node15&#45;&gt;Node4 -->
<g id="edge23" class="edge">
<title>Node15&#45;&gt;Node4</title>
<path fill="none" stroke="midnightblue" d="M553.39,-190.4C583.49,-180.52 623.89,-167.25 655.9,-156.74"/>
<polygon fill="midnightblue" stroke="midnightblue" points="657.14,-160.02 665.55,-153.58 654.96,-153.37 657.14,-160.02"/>
</g>
<!-- Node15&#45;&gt;Node6 -->
<g id="edge24" class="edge">
<title>Node15&#45;&gt;Node6</title>
<path fill="none" stroke="midnightblue" d="M503.29,-190.26C490.64,-162.92 467.52,-101.75 488.43,-56 494.21,-43.36 505.48,-32.91 516.06,-25.27"/>
<polygon fill="midnightblue" stroke="midnightblue" points="518.28,-28 524.65,-19.53 514.39,-22.18 518.28,-28"/>
</g>
<!-- Node15&#45;&gt;Node7 -->
<g id="edge25" class="edge">
<title>Node15&#45;&gt;Node7</title>
<path fill="none" stroke="midnightblue" d="M508.3,-220.64C503.76,-247.07 491.09,-304.82 462.43,-344 453.24,-356.56 439.55,-367.2 427.57,-374.98"/>
<polygon fill="midnightblue" stroke="midnightblue" points="425.52,-372.13 418.84,-380.35 429.19,-378.09 425.52,-372.13"/>
</g>
<!-- Node16&#45;&gt;Node6 -->
<g id="edge28" class="edge">
<title>Node16&#45;&gt;Node6</title>
<path fill="none" stroke="midnightblue" d="M644.13,-196C628.63,-187.22 605.49,-172.27 590.43,-154 559.7,-116.74 547.33,-59.36 542.79,-29.89"/>
<polygon fill="midnightblue" stroke="midnightblue" points="546.22,-29.16 541.37,-19.75 539.29,-30.13 546.22,-29.16"/>
</g>
<!-- Node17&#45;&gt;Node6 -->
<g id="edge30" class="edge">
<title>Node17&#45;&gt;Node6</title>
<path fill="none" stroke="midnightblue" d="M766.33,-61.94C759.88,-59.87 752.93,-57.75 746.43,-56 693.86,-41.82 632.84,-28.93 590.93,-20.61"/>
<polygon fill="midnightblue" stroke="midnightblue" points="591.46,-17.15 580.97,-18.65 590.11,-24.02 591.46,-17.15"/>
</g>
<!-- Node18&#45;&gt;Node6 -->
<g id="edge38" class="edge">
<title>Node18&#45;&gt;Node6</title>
<path fill="none" stroke="midnightblue" d="M1070.1,-257.46C1087.46,-249.65 1105.44,-237.97 1115.43,-221 1136.65,-184.95 1195.05,-144.21 1110.43,-56 1074.88,-18.95 724.48,-12.39 591.37,-11.24"/>
<polygon fill="midnightblue" stroke="midnightblue" points="591.07,-7.74 581.05,-11.16 591.02,-14.74 591.07,-7.74"/>
</g>
<!-- Node18&#45;&gt;Node19 -->
<g id="edge32" class="edge">
<title>Node18&#45;&gt;Node19</title>
<path fill="none" stroke="midnightblue" d="M1021.61,-257.4C1020.04,-249.56 1018.05,-239.6 1016.24,-230.57"/>
<polygon fill="midnightblue" stroke="midnightblue" points="1019.64,-229.7 1014.24,-220.58 1012.77,-231.07 1019.64,-229.7"/>
</g>
<!-- Node19&#45;&gt;Node6 -->
<g id="edge37" class="edge">
<title>Node19&#45;&gt;Node6</title>
<path fill="none" stroke="midnightblue" d="M1039.05,-190.39C1053.07,-181.79 1069.08,-169.46 1078.43,-154 1101.11,-116.49 1119.13,-88.23 1089.43,-56 1056.07,-19.79 721.15,-12.72 591.4,-11.34"/>
<polygon fill="midnightblue" stroke="midnightblue" points="591.36,-7.84 581.32,-11.24 591.29,-14.83 591.36,-7.84"/>
</g>
<!-- Node20 -->
<g id="node20" class="node">
<title>Node20</title>
<g id="a_node20"><a xlink:href="JSUInputStream_8h.html" target="_top" xlink:title=" ">
<polygon fill="white" stroke="black" points="927.93,-123.5 927.93,-153.5 1068.93,-153.5 1068.93,-123.5 927.93,-123.5"/>
<text text-anchor="start" x="935.93" y="-141.5" font-family="Helvetica,sans-Serif" font-size="10.00">JSystem/JSupport/JSUInput</text>
<text text-anchor="middle" x="998.43" y="-130.5" font-family="Helvetica,sans-Serif" font-size="10.00">Stream.h</text>
</a>
</g>
</g>
<!-- Node19&#45;&gt;Node20 -->
<g id="edge33" class="edge">
<title>Node19&#45;&gt;Node20</title>
<path fill="none" stroke="midnightblue" d="M1008.61,-190.4C1007.04,-182.56 1005.05,-172.6 1003.24,-163.57"/>
<polygon fill="midnightblue" stroke="midnightblue" points="1006.64,-162.7 1001.24,-153.58 999.77,-164.07 1006.64,-162.7"/>
</g>
<!-- Node20&#45;&gt;Node6 -->
<g id="edge36" class="edge">
<title>Node20&#45;&gt;Node6</title>
<path fill="none" stroke="midnightblue" d="M970.86,-123.3C952.56,-113.6 928.17,-100.17 907.43,-87 887.54,-74.37 886.3,-64.77 864.43,-56 772.99,-19.34 656.7,-11.7 591.23,-10.58"/>
<polygon fill="midnightblue" stroke="midnightblue" points="591.21,-7.08 581.17,-10.46 591.12,-14.08 591.21,-7.08"/>
</g>
<!-- Node21 -->
<g id="node21" class="node">
<title>Node21</title>
<g id="a_node21"><a xlink:href="JSUIosBase_8h.html" target="_top" xlink:title=" ">
<polygon fill="white" stroke="black" points="916.93,-62 916.93,-81 1079.93,-81 1079.93,-62 916.93,-62"/>
<text text-anchor="middle" x="998.43" y="-69" font-family="Helvetica,sans-Serif" font-size="10.00">JSystem/JSupport/JSUIosBase.h</text>
</a>
</g>
</g>
<!-- Node20&#45;&gt;Node21 -->
<g id="edge34" class="edge">
<title>Node20&#45;&gt;Node21</title>
<path fill="none" stroke="midnightblue" d="M998.43,-123.4C998.43,-114.06 998.43,-101.71 998.43,-91.52"/>
<polygon fill="midnightblue" stroke="midnightblue" points="1001.93,-91.19 998.43,-81.19 994.93,-91.19 1001.93,-91.19"/>
</g>
<!-- Node21&#45;&gt;Node6 -->
<g id="edge35" class="edge">
<title>Node21&#45;&gt;Node6</title>
<path fill="none" stroke="midnightblue" d="M943.64,-61.97C930.17,-59.94 915.79,-57.84 902.43,-56 791.73,-40.76 661.66,-25.15 591.51,-16.92"/>
<polygon fill="midnightblue" stroke="midnightblue" points="591.53,-13.4 581.19,-15.71 590.72,-20.35 591.53,-13.4"/>
</g>
<!-- Node22&#45;&gt;Node5 -->
<g id="edge42" class="edge">
<title>Node22&#45;&gt;Node5</title>
<path fill="none" stroke="midnightblue" d="M272.6,-190.5C347.7,-166.14 502.13,-116.06 583.53,-89.66"/>
<polygon fill="midnightblue" stroke="midnightblue" points="584.66,-92.97 593.09,-86.56 582.5,-86.31 584.66,-92.97"/>
</g>
<!-- Node22&#45;&gt;Node6 -->
<g id="edge44" class="edge">
<title>Node22&#45;&gt;Node6</title>
<path fill="none" stroke="midnightblue" d="M225.51,-190.41C218.3,-161.11 206.66,-93.25 241.43,-56 274.23,-20.86 413.12,-12.97 489.52,-11.32"/>
<polygon fill="midnightblue" stroke="midnightblue" points="489.94,-14.81 499.87,-11.13 489.81,-7.82 489.94,-14.81"/>
</g>
<!-- Node22&#45;&gt;Node9 -->
<g id="edge43" class="edge">
<title>Node22&#45;&gt;Node9</title>
<path fill="none" stroke="midnightblue" d="M215.76,-190.4C205.84,-180.16 192.4,-166.3 182.06,-155.62"/>
<polygon fill="midnightblue" stroke="midnightblue" points="184.33,-152.94 174.86,-148.19 179.3,-157.81 184.33,-152.94"/>
</g>
<!-- Node22&#45;&gt;Node11 -->
<g id="edge45" class="edge">
<title>Node22&#45;&gt;Node11</title>
<path fill="none" stroke="midnightblue" d="M245.05,-190.4C256.61,-179.96 272.35,-165.75 284.26,-155"/>
<polygon fill="midnightblue" stroke="midnightblue" points="286.72,-157.49 291.8,-148.19 282.03,-152.3 286.72,-157.49"/>
</g>
<!-- Node23&#45;&gt;Node6 -->
<g id="edge48" class="edge">
<title>Node23&#45;&gt;Node6</title>
<path fill="none" stroke="midnightblue" d="M104.85,-257.44C104.03,-216.49 108.16,-97.6 180.43,-56 231.97,-26.34 403.33,-15.95 489.72,-12.54"/>
<polygon fill="midnightblue" stroke="midnightblue" points="489.96,-16.04 499.82,-12.16 489.69,-9.04 489.96,-16.04"/>
</g>
<!-- Node23&#45;&gt;Node15 -->
<g id="edge47" class="edge">
<title>Node23&#45;&gt;Node15</title>
<path fill="none" stroke="midnightblue" d="M181.61,-259.27C253.28,-247.77 360.1,-230.63 432.38,-219.03"/>
<polygon fill="midnightblue" stroke="midnightblue" points="433.02,-222.47 442.34,-217.43 431.91,-215.56 433.02,-222.47"/>
</g>
</g>
</svg>
