<?xml version="1.0" encoding="UTF-8" standalone="no"?>
<!DOCTYPE svg PUBLIC "-//W3C//DTD SVG 1.1//EN"
 "http://www.w3.org/Graphics/SVG/1.1/DTD/svg11.dtd">
<!-- Generated by graphviz version 2.46.0 (20210122.1329)
 -->
<!-- Title: libs/JSystem/JKernel/JKRAramArchive.cpp Pages: 1 -->
<svg width="3040pt" height="743pt"
 viewBox="0.00 0.00 3039.50 743.00" xmlns="http://www.w3.org/2000/svg" xmlns:xlink="http://www.w3.org/1999/xlink">
<g id="graph0" class="graph" transform="scale(1 1) rotate(0) translate(4 739)">
<title>libs/JSystem/JKernel/JKRAramArchive.cpp</title>
<polygon fill="white" stroke="transparent" points="-4,4 -4,-739 3035.5,-739 3035.5,4 -4,4"/>
<!-- Node1 -->
<g id="node1" class="node">
<title>Node1</title>
<g id="a_node1"><a xlink:title=" ">
<polygon fill="#bfbfbf" stroke="black" points="1768.5,-704.5 1768.5,-734.5 1881.5,-734.5 1881.5,-704.5 1768.5,-704.5"/>
<text text-anchor="start" x="1776.5" y="-722.5" font-family="Helvetica,sans-Serif" font-size="10.00">libs/JSystem/JKernel</text>
<text text-anchor="middle" x="1825" y="-711.5" font-family="Helvetica,sans-Serif" font-size="10.00">/JKRAramArchive.cpp</text>
</a>
</g>
</g>
<!-- Node2 -->
<g id="node2" class="node">
<title>Node2</title>
<g id="a_node2"><a xlink:href="JKRAramArchive_8h.html" target="_top" xlink:title=" ">
<polygon fill="white" stroke="black" points="22.5,-637.5 22.5,-667.5 191.5,-667.5 191.5,-637.5 22.5,-637.5"/>
<text text-anchor="start" x="30.5" y="-655.5" font-family="Helvetica,sans-Serif" font-size="10.00">JSystem/JKernel/JKRAramArchive</text>
<text text-anchor="middle" x="107" y="-644.5" font-family="Helvetica,sans-Serif" font-size="10.00">/JKRAramArchive.h</text>
</a>
</g>
</g>
<!-- Node1&#45;&gt;Node2 -->
<g id="edge1" class="edge">
<title>Node1&#45;&gt;Node2</title>
<path fill="none" stroke="midnightblue" d="M1768.33,-716.36C1518.82,-706.92 516.65,-669 202.01,-657.09"/>
<polygon fill="midnightblue" stroke="midnightblue" points="201.68,-653.58 191.56,-656.7 201.42,-660.57 201.68,-653.58"/>
</g>
<!-- Node11 -->
<g id="node11" class="node">
<title>Node11</title>
<g id="a_node11"><a xlink:href="global_8h.html" target="_top" xlink:title=" ">
<polygon fill="white" stroke="black" points="856,-380.5 856,-399.5 906,-399.5 906,-380.5 856,-380.5"/>
<text text-anchor="middle" x="881" y="-387.5" font-family="Helvetica,sans-Serif" font-size="10.00">global.h</text>
</a>
</g>
</g>
<!-- Node1&#45;&gt;Node11 -->
<g id="edge51" class="edge">
<title>Node1&#45;&gt;Node11</title>
<path fill="none" stroke="midnightblue" d="M1768.33,-717.4C1625.85,-714.15 1255.69,-702.55 1138,-668 1065.2,-646.63 988,-662.37 988,-586.5 988,-586.5 988,-586.5 988,-517.5 988,-466.45 936.57,-425.38 905.02,-404.99"/>
<polygon fill="midnightblue" stroke="midnightblue" points="906.67,-401.89 896.33,-399.57 902.96,-407.83 906.67,-401.89"/>
</g>
<!-- Node26 -->
<g id="node26" class="node">
<title>Node26</title>
<g id="a_node26"><a xlink:href="JKRFile_8h.html" target="_top" xlink:title=" ">
<polygon fill="white" stroke="black" points="1087,-190.5 1087,-220.5 1215,-220.5 1215,-190.5 1087,-190.5"/>
<text text-anchor="start" x="1095" y="-208.5" font-family="Helvetica,sans-Serif" font-size="10.00">JSystem/JKernel/JKRFile</text>
<text text-anchor="middle" x="1151" y="-197.5" font-family="Helvetica,sans-Serif" font-size="10.00">/JKRFile.h</text>
</a>
</g>
</g>
<!-- Node1&#45;&gt;Node26 -->
<g id="edge52" class="edge">
<title>Node1&#45;&gt;Node26</title>
<path fill="none" stroke="midnightblue" d="M1768.3,-717.89C1617.65,-715.76 1215.82,-706.48 1171,-668 1142.78,-643.77 1152,-623.69 1152,-586.5 1152,-586.5 1152,-586.5 1152,-333 1152,-297.42 1151.6,-256.2 1151.31,-230.74"/>
<polygon fill="midnightblue" stroke="midnightblue" points="1154.8,-230.5 1151.18,-220.54 1147.8,-230.58 1154.8,-230.5"/>
</g>
<!-- Node27 -->
<g id="node27" class="node">
<title>Node27</title>
<g id="a_node27"><a xlink:title=" ">
<polygon fill="white" stroke="#bfbfbf" points="1179.5,-637.5 1179.5,-667.5 1348.5,-667.5 1348.5,-637.5 1179.5,-637.5"/>
<text text-anchor="start" x="1187.5" y="-655.5" font-family="Helvetica,sans-Serif" font-size="10.00">JSystem/JKernel/JKRAramArchive</text>
<text text-anchor="middle" x="1264" y="-644.5" font-family="Helvetica,sans-Serif" font-size="10.00">/asm/func_802D70C0.s</text>
</a>
</g>
</g>
<!-- Node1&#45;&gt;Node27 -->
<g id="edge55" class="edge">
<title>Node1&#45;&gt;Node27</title>
<path fill="none" stroke="midnightblue" d="M1768.47,-713.22C1682.44,-705 1513.24,-688.12 1358.68,-668.05"/>
<polygon fill="midnightblue" stroke="midnightblue" points="1358.89,-664.55 1348.53,-666.72 1357.99,-671.49 1358.89,-664.55"/>
</g>
<!-- Node28 -->
<g id="node28" class="node">
<title>Node28</title>
<g id="a_node28"><a xlink:title=" ">
<polygon fill="white" stroke="#bfbfbf" points="1366.5,-637.5 1366.5,-667.5 1535.5,-667.5 1535.5,-637.5 1366.5,-637.5"/>
<text text-anchor="start" x="1374.5" y="-655.5" font-family="Helvetica,sans-Serif" font-size="10.00">JSystem/JKernel/JKRAramArchive</text>
<text text-anchor="middle" x="1451" y="-644.5" font-family="Helvetica,sans-Serif" font-size="10.00">/asm/func_802D7168.s</text>
</a>
</g>
</g>
<!-- Node1&#45;&gt;Node28 -->
<g id="edge56" class="edge">
<title>Node1&#45;&gt;Node28</title>
<path fill="none" stroke="midnightblue" d="M1768.2,-708.63C1708.11,-698.19 1612.42,-681.55 1541.84,-669.29"/>
<polygon fill="midnightblue" stroke="midnightblue" points="1542.07,-665.78 1531.62,-667.51 1540.87,-672.67 1542.07,-665.78"/>
</g>
<!-- Node29 -->
<g id="node29" class="node">
<title>Node29</title>
<g id="a_node29"><a xlink:title=" ">
<polygon fill="white" stroke="#bfbfbf" points="1553.5,-637.5 1553.5,-667.5 1722.5,-667.5 1722.5,-637.5 1553.5,-637.5"/>
<text text-anchor="start" x="1561.5" y="-655.5" font-family="Helvetica,sans-Serif" font-size="10.00">JSystem/JKernel/JKRAramArchive</text>
<text text-anchor="middle" x="1638" y="-644.5" font-family="Helvetica,sans-Serif" font-size="10.00">/asm/func_802D72A8.s</text>
</a>
</g>
</g>
<!-- Node1&#45;&gt;Node29 -->
<g id="edge57" class="edge">
<title>Node1&#45;&gt;Node29</title>
<path fill="none" stroke="midnightblue" d="M1784.42,-704.4C1756.12,-694.56 1718.17,-681.37 1688,-670.88"/>
<polygon fill="midnightblue" stroke="midnightblue" points="1689.09,-667.55 1678.5,-667.58 1686.79,-674.17 1689.09,-667.55"/>
</g>
<!-- Node30 -->
<g id="node30" class="node">
<title>Node30</title>
<g id="a_node30"><a xlink:title=" ">
<polygon fill="white" stroke="#bfbfbf" points="1740.5,-637.5 1740.5,-667.5 1909.5,-667.5 1909.5,-637.5 1740.5,-637.5"/>
<text text-anchor="start" x="1748.5" y="-655.5" font-family="Helvetica,sans-Serif" font-size="10.00">JSystem/JKernel/JKRAramArchive</text>
<text text-anchor="middle" x="1825" y="-644.5" font-family="Helvetica,sans-Serif" font-size="10.00">/asm/func_802D75E0.s</text>
</a>
</g>
</g>
<!-- Node1&#45;&gt;Node30 -->
<g id="edge58" class="edge">
<title>Node1&#45;&gt;Node30</title>
<path fill="none" stroke="midnightblue" d="M1825,-704.4C1825,-696.64 1825,-686.81 1825,-677.86"/>
<polygon fill="midnightblue" stroke="midnightblue" points="1828.5,-677.58 1825,-667.58 1821.5,-677.58 1828.5,-677.58"/>
</g>
<!-- Node31 -->
<g id="node31" class="node">
<title>Node31</title>
<g id="a_node31"><a xlink:title=" ">
<polygon fill="white" stroke="#bfbfbf" points="1927.5,-637.5 1927.5,-667.5 2096.5,-667.5 2096.5,-637.5 1927.5,-637.5"/>
<text text-anchor="start" x="1935.5" y="-655.5" font-family="Helvetica,sans-Serif" font-size="10.00">JSystem/JKernel/JKRAramArchive</text>
<text text-anchor="middle" x="2012" y="-644.5" font-family="Helvetica,sans-Serif" font-size="10.00">/asm/func_802D76F4.s</text>
</a>
</g>
</g>
<!-- Node1&#45;&gt;Node31 -->
<g id="edge59" class="edge">
<title>Node1&#45;&gt;Node31</title>
<path fill="none" stroke="midnightblue" d="M1865.58,-704.4C1893.88,-694.56 1931.83,-681.37 1962,-670.88"/>
<polygon fill="midnightblue" stroke="midnightblue" points="1963.21,-674.17 1971.5,-667.58 1960.91,-667.55 1963.21,-674.17"/>
</g>
<!-- Node32 -->
<g id="node32" class="node">
<title>Node32</title>
<g id="a_node32"><a xlink:title=" ">
<polygon fill="white" stroke="#bfbfbf" points="2114.5,-637.5 2114.5,-667.5 2283.5,-667.5 2283.5,-637.5 2114.5,-637.5"/>
<text text-anchor="start" x="2122.5" y="-655.5" font-family="Helvetica,sans-Serif" font-size="10.00">JSystem/JKernel/JKRAramArchive</text>
<text text-anchor="middle" x="2199" y="-644.5" font-family="Helvetica,sans-Serif" font-size="10.00">/asm/func_802D77F8.s</text>
</a>
</g>
</g>
<!-- Node1&#45;&gt;Node32 -->
<g id="edge60" class="edge">
<title>Node1&#45;&gt;Node32</title>
<path fill="none" stroke="midnightblue" d="M1881.8,-708.63C1941.89,-698.19 2037.58,-681.55 2108.16,-669.29"/>
<polygon fill="midnightblue" stroke="midnightblue" points="2109.13,-672.67 2118.38,-667.51 2107.93,-665.78 2109.13,-672.67"/>
</g>
<!-- Node33 -->
<g id="node33" class="node">
<title>Node33</title>
<g id="a_node33"><a xlink:title=" ">
<polygon fill="white" stroke="#bfbfbf" points="2301.5,-637.5 2301.5,-667.5 2470.5,-667.5 2470.5,-637.5 2301.5,-637.5"/>
<text text-anchor="start" x="2309.5" y="-655.5" font-family="Helvetica,sans-Serif" font-size="10.00">JSystem/JKernel/JKRAramArchive</text>
<text text-anchor="middle" x="2386" y="-644.5" font-family="Helvetica,sans-Serif" font-size="10.00">/asm/func_802D781C.s</text>
</a>
</g>
</g>
<!-- Node1&#45;&gt;Node33 -->
<g id="edge61" class="edge">
<title>Node1&#45;&gt;Node33</title>
<path fill="none" stroke="midnightblue" d="M1881.65,-713.26C1967.88,-705.09 2137.45,-688.26 2291.27,-668.19"/>
<polygon fill="midnightblue" stroke="midnightblue" points="2291.92,-671.64 2301.38,-666.87 2291.01,-664.7 2291.92,-671.64"/>
</g>
<!-- Node34 -->
<g id="node34" class="node">
<title>Node34</title>
<g id="a_node34"><a xlink:title=" ">
<polygon fill="white" stroke="#bfbfbf" points="2488.5,-637.5 2488.5,-667.5 2657.5,-667.5 2657.5,-637.5 2488.5,-637.5"/>
<text text-anchor="start" x="2496.5" y="-655.5" font-family="Helvetica,sans-Serif" font-size="10.00">JSystem/JKernel/JKRAramArchive</text>
<text text-anchor="middle" x="2573" y="-644.5" font-family="Helvetica,sans-Serif" font-size="10.00">/asm/func_802D7858.s</text>
</a>
</g>
</g>
<!-- Node1&#45;&gt;Node34 -->
<g id="edge62" class="edge">
<title>Node1&#45;&gt;Node34</title>
<path fill="none" stroke="midnightblue" d="M1881.65,-715.62C1993.69,-709.6 2251.67,-694.13 2478.3,-668.14"/>
<polygon fill="midnightblue" stroke="midnightblue" points="2478.86,-671.6 2488.39,-666.98 2478.06,-664.65 2478.86,-671.6"/>
</g>
<!-- Node35 -->
<g id="node35" class="node">
<title>Node35</title>
<g id="a_node35"><a xlink:title=" ">
<polygon fill="white" stroke="#bfbfbf" points="2675.5,-637.5 2675.5,-667.5 2844.5,-667.5 2844.5,-637.5 2675.5,-637.5"/>
<text text-anchor="start" x="2683.5" y="-655.5" font-family="Helvetica,sans-Serif" font-size="10.00">JSystem/JKernel/JKRAramArchive</text>
<text text-anchor="middle" x="2760" y="-644.5" font-family="Helvetica,sans-Serif" font-size="10.00">/asm/func_802D7914.s</text>
</a>
</g>
</g>
<!-- Node1&#45;&gt;Node35 -->
<g id="edge63" class="edge">
<title>Node1&#45;&gt;Node35</title>
<path fill="none" stroke="midnightblue" d="M1881.57,-716.96C2015.83,-712.9 2364.39,-700.03 2665.17,-668.13"/>
<polygon fill="midnightblue" stroke="midnightblue" points="2665.83,-671.58 2675.4,-667.04 2665.08,-664.62 2665.83,-671.58"/>
</g>
<!-- Node36 -->
<g id="node36" class="node">
<title>Node36</title>
<g id="a_node36"><a xlink:title=" ">
<polygon fill="white" stroke="#bfbfbf" points="2862.5,-637.5 2862.5,-667.5 3031.5,-667.5 3031.5,-637.5 2862.5,-637.5"/>
<text text-anchor="start" x="2870.5" y="-655.5" font-family="Helvetica,sans-Serif" font-size="10.00">JSystem/JKernel/JKRAramArchive</text>
<text text-anchor="middle" x="2947" y="-644.5" font-family="Helvetica,sans-Serif" font-size="10.00">/asm/func_802D7A64.s</text>
</a>
</g>
</g>
<!-- Node1&#45;&gt;Node36 -->
<g id="edge64" class="edge">
<title>Node1&#45;&gt;Node36</title>
<path fill="none" stroke="midnightblue" d="M1881.77,-717.82C2036.16,-715.51 2476.73,-705.93 2852.42,-668.09"/>
<polygon fill="midnightblue" stroke="midnightblue" points="2852.81,-671.57 2862.4,-667.08 2852.1,-664.61 2852.81,-671.57"/>
</g>
<!-- Node3 -->
<g id="node3" class="node">
<title>Node3</title>
<g id="a_node3"><a xlink:href="JKRArchive_8h.html" target="_top" xlink:title=" ">
<polygon fill="white" stroke="black" points="34,-570.5 34,-600.5 180,-600.5 180,-570.5 34,-570.5"/>
<text text-anchor="start" x="42" y="-588.5" font-family="Helvetica,sans-Serif" font-size="10.00">JSystem/JKernel/JKRArchive</text>
<text text-anchor="middle" x="107" y="-577.5" font-family="Helvetica,sans-Serif" font-size="10.00">/JKRArchive.h</text>
</a>
</g>
</g>
<!-- Node2&#45;&gt;Node3 -->
<g id="edge2" class="edge">
<title>Node2&#45;&gt;Node3</title>
<path fill="none" stroke="midnightblue" d="M107,-637.4C107,-629.64 107,-619.81 107,-610.86"/>
<polygon fill="midnightblue" stroke="midnightblue" points="110.5,-610.58 107,-600.58 103.5,-610.58 110.5,-610.58"/>
</g>
<!-- Node7 -->
<g id="node7" class="node">
<title>Node7</title>
<g id="a_node7"><a xlink:href="types_8h.html" target="_top" xlink:title=" ">
<polygon fill="white" stroke="black" points="591.5,-0.5 591.5,-19.5 672.5,-19.5 672.5,-0.5 591.5,-0.5"/>
<text text-anchor="middle" x="632" y="-7.5" font-family="Helvetica,sans-Serif" font-size="10.00">dolphin/types.h</text>
</a>
</g>
</g>
<!-- Node2&#45;&gt;Node7 -->
<g id="edge50" class="edge">
<title>Node2&#45;&gt;Node7</title>
<path fill="none" stroke="midnightblue" d="M72.55,-637.32C56.06,-628.96 37.27,-616.87 25,-601 1.82,-571.03 0,-557.39 0,-519.5 0,-519.5 0,-519.5 0,-137.5 0,-92.52 20.69,-77.85 60,-56 104.93,-31.03 449.26,-17.07 580.98,-12.6"/>
<polygon fill="midnightblue" stroke="midnightblue" points="581.33,-16.09 591.21,-12.26 581.09,-9.09 581.33,-16.09"/>
</g>
<!-- Node4 -->
<g id="node4" class="node">
<title>Node4</title>
<g id="a_node4"><a xlink:href="JKRDecomp_8h.html" target="_top" xlink:title=" ">
<polygon fill="white" stroke="black" points="213.5,-503.5 213.5,-533.5 362.5,-533.5 362.5,-503.5 213.5,-503.5"/>
<text text-anchor="start" x="221.5" y="-521.5" font-family="Helvetica,sans-Serif" font-size="10.00">JSystem/JKernel/JKRDecomp</text>
<text text-anchor="middle" x="288" y="-510.5" font-family="Helvetica,sans-Serif" font-size="10.00">/JKRDecomp.h</text>
</a>
</g>
</g>
<!-- Node3&#45;&gt;Node4 -->
<g id="edge3" class="edge">
<title>Node3&#45;&gt;Node4</title>
<path fill="none" stroke="midnightblue" d="M146.27,-570.4C173.55,-560.6 210.08,-547.48 239.23,-537.02"/>
<polygon fill="midnightblue" stroke="midnightblue" points="240.57,-540.25 248.8,-533.58 238.21,-533.66 240.57,-540.25"/>
</g>
<!-- Node6 -->
<g id="node6" class="node">
<title>Node6</title>
<g id="a_node6"><a xlink:href="SArc_8h.html" target="_top" xlink:title=" ">
<polygon fill="white" stroke="black" points="168.5,-380.5 168.5,-399.5 291.5,-399.5 291.5,-380.5 168.5,-380.5"/>
<text text-anchor="middle" x="230" y="-387.5" font-family="Helvetica,sans-Serif" font-size="10.00">JSystem/JKernel/SArc.h</text>
</a>
</g>
</g>
<!-- Node3&#45;&gt;Node6 -->
<g id="edge48" class="edge">
<title>Node3&#45;&gt;Node6</title>
<path fill="none" stroke="midnightblue" d="M105.43,-570.12C103.1,-541.45 101.91,-476.48 133,-436 145.12,-420.22 164.08,-409.77 182.05,-402.95"/>
<polygon fill="midnightblue" stroke="midnightblue" points="183.58,-406.12 191.87,-399.52 181.28,-399.51 183.58,-406.12"/>
</g>
<!-- Node3&#45;&gt;Node7 -->
<g id="edge49" class="edge">
<title>Node3&#45;&gt;Node7</title>
<path fill="none" stroke="midnightblue" d="M93.7,-570.34C73.65,-547.46 38,-500.08 38,-452.5 38,-452.5 38,-452.5 38,-137.5 38,-80.85 83.65,-77.65 136,-56 215.53,-23.11 471.32,-14.16 581.13,-11.81"/>
<polygon fill="midnightblue" stroke="midnightblue" points="581.37,-15.3 591.3,-11.6 581.23,-8.3 581.37,-15.3"/>
</g>
<!-- Node25 -->
<g id="node25" class="node">
<title>Node25</title>
<g id="a_node25"><a xlink:href="JKRFileLoader_8h.html" target="_top" xlink:title=" ">
<polygon fill="white" stroke="black" points="122,-190.5 122,-220.5 280,-220.5 280,-190.5 122,-190.5"/>
<text text-anchor="start" x="130" y="-208.5" font-family="Helvetica,sans-Serif" font-size="10.00">JSystem/JKernel/JKRFileLoader</text>
<text text-anchor="middle" x="201" y="-197.5" font-family="Helvetica,sans-Serif" font-size="10.00">/JKRFileLoader.h</text>
</a>
</g>
</g>
<!-- Node3&#45;&gt;Node25 -->
<g id="edge45" class="edge">
<title>Node3&#45;&gt;Node25</title>
<path fill="none" stroke="midnightblue" d="M101.46,-570.49C92.54,-546.66 76,-496.52 76,-452.5 76,-452.5 76,-452.5 76,-389 76,-319.91 137.73,-257.8 174.43,-226.98"/>
<polygon fill="midnightblue" stroke="midnightblue" points="176.77,-229.58 182.29,-220.53 172.33,-224.17 176.77,-229.58"/>
</g>
<!-- Node5 -->
<g id="node5" class="node">
<title>Node5</title>
<g id="a_node5"><a xlink:href="JKRCompression_8h.html" target="_top" xlink:title=" ">
<polygon fill="white" stroke="black" points="141.5,-442 141.5,-461 318.5,-461 318.5,-442 141.5,-442"/>
<text text-anchor="middle" x="230" y="-449" font-family="Helvetica,sans-Serif" font-size="10.00">JSystem/JKernel/JKRCompression.h</text>
</a>
</g>
</g>
<!-- Node4&#45;&gt;Node5 -->
<g id="edge4" class="edge">
<title>Node4&#45;&gt;Node5</title>
<path fill="none" stroke="midnightblue" d="M275.41,-503.4C266.37,-493.26 254.15,-479.57 244.67,-468.94"/>
<polygon fill="midnightblue" stroke="midnightblue" points="247.03,-466.33 237.76,-461.19 241.8,-470.99 247.03,-466.33"/>
</g>
<!-- Node4&#45;&gt;Node7 -->
<g id="edge44" class="edge">
<title>Node4&#45;&gt;Node7</title>
<path fill="none" stroke="midnightblue" d="M302.14,-503.21C310.81,-493.69 321.46,-480.49 328,-467 343.14,-435.76 346,-425.71 346,-391 346,-391 346,-391 346,-137.5 346,-35.84 499,-15.22 581.19,-11.47"/>
<polygon fill="midnightblue" stroke="midnightblue" points="581.47,-14.97 591.33,-11.08 581.2,-7.97 581.47,-14.97"/>
</g>
<!-- Node8 -->
<g id="node8" class="node">
<title>Node8</title>
<g id="a_node8"><a xlink:href="JKRThread_8h.html" target="_top" xlink:title=" ">
<polygon fill="white" stroke="black" points="374.5,-436.5 374.5,-466.5 517.5,-466.5 517.5,-436.5 374.5,-436.5"/>
<text text-anchor="start" x="382.5" y="-454.5" font-family="Helvetica,sans-Serif" font-size="10.00">JSystem/JKernel/JKRThread</text>
<text text-anchor="middle" x="446" y="-443.5" font-family="Helvetica,sans-Serif" font-size="10.00">/JKRThread.h</text>
</a>
</g>
</g>
<!-- Node4&#45;&gt;Node8 -->
<g id="edge8" class="edge">
<title>Node4&#45;&gt;Node8</title>
<path fill="none" stroke="midnightblue" d="M322.28,-503.4C345.78,-493.73 377.15,-480.82 402.43,-470.43"/>
<polygon fill="midnightblue" stroke="midnightblue" points="403.87,-473.62 411.78,-466.58 401.2,-467.14 403.87,-473.62"/>
</g>
<!-- Node5&#45;&gt;Node6 -->
<g id="edge5" class="edge">
<title>Node5&#45;&gt;Node6</title>
<path fill="none" stroke="midnightblue" d="M230,-441.98C230,-433.58 230,-420.48 230,-409.66"/>
<polygon fill="midnightblue" stroke="midnightblue" points="233.5,-409.51 230,-399.51 226.5,-409.51 233.5,-409.51"/>
</g>
<!-- Node5&#45;&gt;Node7 -->
<g id="edge7" class="edge">
<title>Node5&#45;&gt;Node7</title>
<path fill="none" stroke="midnightblue" d="M212.36,-441.84C196.57,-433.24 173.82,-418.67 160,-400 105.93,-326.97 94,-297.36 94,-206.5 94,-206.5 94,-206.5 94,-137.5 94,-38.02 446.94,-16.7 581.09,-12.19"/>
<polygon fill="midnightblue" stroke="midnightblue" points="581.24,-15.69 591.12,-11.87 581.01,-8.69 581.24,-15.69"/>
</g>
<!-- Node6&#45;&gt;Node7 -->
<g id="edge6" class="edge">
<title>Node6&#45;&gt;Node7</title>
<path fill="none" stroke="midnightblue" d="M241.18,-380.49C262.74,-363 308,-320.68 308,-273.5 308,-273.5 308,-273.5 308,-137.5 308,-99.74 303.53,-80.8 332,-56 368.27,-24.41 505.51,-14.99 581.17,-12.18"/>
<polygon fill="midnightblue" stroke="midnightblue" points="581.55,-15.67 591.42,-11.83 581.31,-8.68 581.55,-15.67"/>
</g>
<!-- Node8&#45;&gt;Node7 -->
<g id="edge13" class="edge">
<title>Node8&#45;&gt;Node7</title>
<path fill="none" stroke="midnightblue" d="M432.55,-436.49C414.31,-415.97 384,-375.74 384,-335 384,-335 384,-335 384,-137.5 384,-49.86 508.43,-22.9 581.01,-14.64"/>
<polygon fill="midnightblue" stroke="midnightblue" points="581.75,-18.08 591.33,-13.55 581.01,-11.12 581.75,-18.08"/>
</g>
<!-- Node9 -->
<g id="node9" class="node">
<title>Node9</title>
<g id="a_node9"><a xlink:href="JKRDisposer_8h.html" target="_top" xlink:title=" ">
<polygon fill="white" stroke="black" points="413.5,-123.5 413.5,-153.5 564.5,-153.5 564.5,-123.5 413.5,-123.5"/>
<text text-anchor="start" x="421.5" y="-141.5" font-family="Helvetica,sans-Serif" font-size="10.00">JSystem/JKernel/JKRDisposer</text>
<text text-anchor="middle" x="489" y="-130.5" font-family="Helvetica,sans-Serif" font-size="10.00">/JKRDisposer.h</text>
</a>
</g>
</g>
<!-- Node8&#45;&gt;Node9 -->
<g id="edge9" class="edge">
<title>Node8&#45;&gt;Node9</title>
<path fill="none" stroke="midnightblue" d="M441.14,-436.47C434.13,-414.93 422,-372.27 422,-335 422,-335 422,-335 422,-271.5 422,-234.31 423.35,-222.74 441,-190 446.86,-179.13 455.68,-168.9 464.17,-160.52"/>
<polygon fill="midnightblue" stroke="midnightblue" points="466.57,-163.07 471.46,-153.68 461.77,-157.97 466.57,-163.07"/>
</g>
<!-- Node8&#45;&gt;Node11 -->
<g id="edge14" class="edge">
<title>Node8&#45;&gt;Node11</title>
<path fill="none" stroke="midnightblue" d="M517.83,-440.67C612.17,-427.77 774.17,-405.61 845.51,-395.85"/>
<polygon fill="midnightblue" stroke="midnightblue" points="846.32,-399.28 855.76,-394.45 845.38,-392.34 846.32,-399.28"/>
</g>
<!-- Node9&#45;&gt;Node7 -->
<g id="edge12" class="edge">
<title>Node9&#45;&gt;Node7</title>
<path fill="none" stroke="midnightblue" d="M476.06,-123.26C461.91,-105.91 443.23,-76.4 459,-56 473.91,-36.71 535.68,-24.15 581.18,-17.32"/>
<polygon fill="midnightblue" stroke="midnightblue" points="581.8,-20.77 591.2,-15.87 580.8,-13.84 581.8,-20.77"/>
</g>
<!-- Node10 -->
<g id="node10" class="node">
<title>Node10</title>
<g id="a_node10"><a xlink:href="JSUList_8h.html" target="_top" xlink:title=" ">
<polygon fill="white" stroke="black" points="468,-56.5 468,-86.5 604,-86.5 604,-56.5 468,-56.5"/>
<text text-anchor="start" x="476" y="-74.5" font-family="Helvetica,sans-Serif" font-size="10.00">JSystem/JSupport/JSUList</text>
<text text-anchor="middle" x="536" y="-63.5" font-family="Helvetica,sans-Serif" font-size="10.00">/JSUList.h</text>
</a>
</g>
</g>
<!-- Node9&#45;&gt;Node10 -->
<g id="edge10" class="edge">
<title>Node9&#45;&gt;Node10</title>
<path fill="none" stroke="midnightblue" d="M499.2,-123.4C505.23,-115.05 513.02,-104.29 519.87,-94.81"/>
<polygon fill="midnightblue" stroke="midnightblue" points="522.8,-96.73 525.82,-86.58 517.13,-92.63 522.8,-96.73"/>
</g>
<!-- Node10&#45;&gt;Node7 -->
<g id="edge11" class="edge">
<title>Node10&#45;&gt;Node7</title>
<path fill="none" stroke="midnightblue" d="M558.75,-56.4C573.99,-46.95 593.99,-34.56 609.24,-25.11"/>
<polygon fill="midnightblue" stroke="midnightblue" points="611.38,-27.9 618.03,-19.66 607.69,-21.95 611.38,-27.9"/>
</g>
<!-- Node11&#45;&gt;Node7 -->
<g id="edge15" class="edge">
<title>Node11&#45;&gt;Node7</title>
<path fill="none" stroke="midnightblue" d="M880.07,-380.31C876.36,-346.47 861.84,-223.8 843,-190 798.46,-110.08 703.41,-50 657.65,-24.48"/>
<polygon fill="midnightblue" stroke="midnightblue" points="659.13,-21.29 648.68,-19.56 655.77,-27.43 659.13,-21.29"/>
</g>
<!-- Node12 -->
<g id="node12" class="node">
<title>Node12</title>
<g id="a_node12"><a xlink:href="AR_8h.html" target="_top" xlink:title=" ">
<polygon fill="white" stroke="black" points="860.5,-129 860.5,-148 909.5,-148 909.5,-129 860.5,-129"/>
<text text-anchor="middle" x="885" y="-136" font-family="Helvetica,sans-Serif" font-size="10.00">ar/AR.h</text>
</a>
</g>
</g>
<!-- Node11&#45;&gt;Node12 -->
<g id="edge16" class="edge">
<title>Node11&#45;&gt;Node12</title>
<path fill="none" stroke="midnightblue" d="M881.14,-380.41C881.71,-344.8 883.9,-208.25 884.7,-158.11"/>
<polygon fill="midnightblue" stroke="midnightblue" points="888.2,-158.11 884.86,-148.05 881.2,-157.99 888.2,-158.11"/>
</g>
<!-- Node13 -->
<g id="node13" class="node">
<title>Node13</title>
<g id="a_node13"><a xlink:href="ARQ_8h.html" target="_top" xlink:title=" ">
<polygon fill="white" stroke="black" points="907,-62 907,-81 963,-81 963,-62 907,-62"/>
<text text-anchor="middle" x="935" y="-69" font-family="Helvetica,sans-Serif" font-size="10.00">ar/ARQ.h</text>
</a>
</g>
</g>
<!-- Node11&#45;&gt;Node13 -->
<g id="edge18" class="edge">
<title>Node11&#45;&gt;Node13</title>
<path fill="none" stroke="midnightblue" d="M888.69,-380.44C904.25,-362.2 938,-317.55 938,-273.5 938,-273.5 938,-273.5 938,-204.5 938,-164.15 936.58,-116.87 935.7,-91.28"/>
<polygon fill="midnightblue" stroke="midnightblue" points="939.19,-91.02 935.33,-81.15 932.19,-91.27 939.19,-91.02"/>
</g>
<!-- Node14 -->
<g id="node14" class="node">
<title>Node14</title>
<g id="a_node14"><a xlink:href="functions_8h.html" target="_top" xlink:title=" ">
<polygon fill="white" stroke="black" points="1005,-324.5 1005,-343.5 1069,-343.5 1069,-324.5 1005,-324.5"/>
<text text-anchor="middle" x="1037" y="-331.5" font-family="Helvetica,sans-Serif" font-size="10.00">functions.h</text>
</a>
</g>
</g>
<!-- Node11&#45;&gt;Node14 -->
<g id="edge20" class="edge">
<title>Node11&#45;&gt;Node14</title>
<path fill="none" stroke="midnightblue" d="M905.72,-380.44C931.85,-371.4 973.26,-357.06 1002.58,-346.92"/>
<polygon fill="midnightblue" stroke="midnightblue" points="1004.09,-350.1 1012.4,-343.52 1001.8,-343.48 1004.09,-350.1"/>
</g>
<!-- Node16 -->
<g id="node16" class="node">
<title>Node16</title>
<g id="a_node16"><a xlink:href="mwcc_8h.html" target="_top" xlink:title=" ">
<polygon fill="white" stroke="black" points="966,-263 966,-282 1016,-282 1016,-263 966,-263"/>
<text text-anchor="middle" x="991" y="-270" font-family="Helvetica,sans-Serif" font-size="10.00">mwcc.h</text>
</a>
</g>
</g>
<!-- Node11&#45;&gt;Node16 -->
<g id="edge28" class="edge">
<title>Node11&#45;&gt;Node16</title>
<path fill="none" stroke="midnightblue" d="M899.72,-380.44C915.19,-372.64 936.99,-359.93 952,-344 966.5,-328.61 977.47,-306.82 984.03,-291.55"/>
<polygon fill="midnightblue" stroke="midnightblue" points="987.31,-292.76 987.85,-282.18 980.83,-290.12 987.31,-292.76"/>
</g>
<!-- Node17 -->
<g id="node17" class="node">
<title>Node17</title>
<g id="a_node17"><a xlink:href="OS_8h.html" target="_top" xlink:title=" ">
<polygon fill="white" stroke="black" points="1072,-263 1072,-282 1124,-282 1124,-263 1072,-263"/>
<text text-anchor="middle" x="1098" y="-270" font-family="Helvetica,sans-Serif" font-size="10.00">os/OS.h</text>
</a>
</g>
</g>
<!-- Node11&#45;&gt;Node17 -->
<g id="edge29" class="edge">
<title>Node11&#45;&gt;Node17</title>
<path fill="none" stroke="midnightblue" d="M906.09,-386.44C953.43,-381.12 1053.39,-367.37 1078,-344 1091.96,-330.75 1096.4,-308.54 1097.7,-292.59"/>
<polygon fill="midnightblue" stroke="midnightblue" points="1101.22,-292.45 1098.19,-282.29 1094.22,-292.12 1101.22,-292.45"/>
</g>
<!-- Node19 -->
<g id="node19" class="node">
<title>Node19</title>
<g id="a_node19"><a xlink:href="variables_8h.html" target="_top" xlink:title=" ">
<polygon fill="white" stroke="black" points="638.5,-324.5 638.5,-343.5 701.5,-343.5 701.5,-324.5 638.5,-324.5"/>
<text text-anchor="middle" x="670" y="-331.5" font-family="Helvetica,sans-Serif" font-size="10.00">variables.h</text>
</a>
</g>
</g>
<!-- Node11&#45;&gt;Node19 -->
<g id="edge30" class="edge">
<title>Node11&#45;&gt;Node19</title>
<path fill="none" stroke="midnightblue" d="M855.97,-382.59C820.29,-373.46 754.39,-356.6 711.39,-345.59"/>
<polygon fill="midnightblue" stroke="midnightblue" points="712.07,-342.15 701.52,-343.07 710.34,-348.94 712.07,-342.15"/>
</g>
<!-- Node12&#45;&gt;Node7 -->
<g id="edge17" class="edge">
<title>Node12&#45;&gt;Node7</title>
<path fill="none" stroke="midnightblue" d="M883.46,-128.78C879.99,-111.91 869.93,-74.8 846,-56 821.11,-36.45 737.85,-23.27 682.82,-16.46"/>
<polygon fill="midnightblue" stroke="midnightblue" points="682.9,-12.95 672.55,-15.23 682.06,-19.9 682.9,-12.95"/>
</g>
<!-- Node13&#45;&gt;Node7 -->
<g id="edge19" class="edge">
<title>Node13&#45;&gt;Node7</title>
<path fill="none" stroke="midnightblue" d="M910.42,-61.9C903.84,-59.78 896.69,-57.65 890,-56 818.82,-38.42 734.95,-25.13 682.62,-17.7"/>
<polygon fill="midnightblue" stroke="midnightblue" points="682.97,-14.22 672.58,-16.3 682,-21.15 682.97,-14.22"/>
</g>
<!-- Node15 -->
<g id="node15" class="node">
<title>Node15</title>
<g id="a_node15"><a xlink:href="mtx__vec_8h.html" target="_top" xlink:title=" ">
<polygon fill="white" stroke="black" points="967.5,-129 967.5,-148 1028.5,-148 1028.5,-129 967.5,-129"/>
<text text-anchor="middle" x="998" y="-136" font-family="Helvetica,sans-Serif" font-size="10.00">mtx_vec.h</text>
</a>
</g>
</g>
<!-- Node14&#45;&gt;Node15 -->
<g id="edge21" class="edge">
<title>Node14&#45;&gt;Node15</title>
<path fill="none" stroke="midnightblue" d="M1035.79,-324.07C1033.83,-309.84 1029.67,-281.13 1025,-257 1018.16,-221.68 1008.34,-180.82 1002.62,-157.78"/>
<polygon fill="midnightblue" stroke="midnightblue" points="1005.99,-156.86 1000.17,-148.01 999.2,-158.56 1005.99,-156.86"/>
</g>
<!-- Node14&#45;&gt;Node16 -->
<g id="edge23" class="edge">
<title>Node14&#45;&gt;Node16</title>
<path fill="none" stroke="midnightblue" d="M1030.41,-324.48C1023.51,-315.55 1012.5,-301.31 1003.87,-290.14"/>
<polygon fill="midnightblue" stroke="midnightblue" points="1006.46,-287.78 997.58,-282.01 1000.93,-292.06 1006.46,-287.78"/>
</g>
<!-- Node14&#45;&gt;Node17 -->
<g id="edge24" class="edge">
<title>Node14&#45;&gt;Node17</title>
<path fill="none" stroke="midnightblue" d="M1045.74,-324.48C1055.16,-315.28 1070.36,-300.46 1081.95,-289.16"/>
<polygon fill="midnightblue" stroke="midnightblue" points="1084.56,-291.5 1089.28,-282.01 1079.67,-286.49 1084.56,-291.5"/>
</g>
<!-- Node15&#45;&gt;Node7 -->
<g id="edge22" class="edge">
<title>Node15&#45;&gt;Node7</title>
<path fill="none" stroke="midnightblue" d="M998.06,-128.99C997.67,-112.14 994.21,-74.59 972,-56 929.15,-20.14 766.4,-12.68 682.58,-11.24"/>
<polygon fill="midnightblue" stroke="midnightblue" points="682.56,-7.74 672.51,-11.09 682.46,-14.74 682.56,-7.74"/>
</g>
<!-- Node17&#45;&gt;Node7 -->
<g id="edge25" class="edge">
<title>Node17&#45;&gt;Node7</title>
<path fill="none" stroke="midnightblue" d="M1124.03,-269.4C1153.92,-265.43 1201.68,-253.99 1224,-221 1271.78,-150.37 1234.33,-118.66 1120,-56 1045.73,-15.3 791.86,-10.69 682.64,-10.65"/>
<polygon fill="midnightblue" stroke="midnightblue" points="682.52,-7.15 672.53,-10.66 682.53,-14.15 682.52,-7.15"/>
</g>
<!-- Node18 -->
<g id="node18" class="node">
<title>Node18</title>
<g id="a_node18"><a xlink:href="dvd_8h.html" target="_top" xlink:title=" ">
<polygon fill="white" stroke="black" points="1025.5,-62 1025.5,-81 1084.5,-81 1084.5,-62 1025.5,-62"/>
<text text-anchor="middle" x="1055" y="-69" font-family="Helvetica,sans-Serif" font-size="10.00">dvd/dvd.h</text>
</a>
</g>
</g>
<!-- Node17&#45;&gt;Node18 -->
<g id="edge26" class="edge">
<title>Node17&#45;&gt;Node18</title>
<path fill="none" stroke="midnightblue" d="M1093.84,-262.76C1089.3,-252.85 1082.11,-236.11 1078,-221 1065.55,-175.2 1059.18,-119.49 1056.54,-91.1"/>
<polygon fill="midnightblue" stroke="midnightblue" points="1060.01,-90.67 1055.65,-81.01 1053.04,-91.28 1060.01,-90.67"/>
</g>
<!-- Node18&#45;&gt;Node7 -->
<g id="edge27" class="edge">
<title>Node18&#45;&gt;Node7</title>
<path fill="none" stroke="midnightblue" d="M1030.34,-61.98C1023.2,-59.76 1015.35,-57.56 1008,-56 893.22,-31.63 755.73,-19.37 682.99,-14.18"/>
<polygon fill="midnightblue" stroke="midnightblue" points="682.95,-10.67 672.73,-13.46 682.47,-17.65 682.95,-10.67"/>
</g>
<!-- Node19&#45;&gt;Node10 -->
<g id="edge31" class="edge">
<title>Node19&#45;&gt;Node10</title>
<path fill="none" stroke="midnightblue" d="M664.49,-324.21C658.99,-315.27 650.44,-300.92 644,-288 608.45,-216.71 613.8,-192.01 574,-123 568.41,-113.31 561.24,-103.32 554.64,-94.81"/>
<polygon fill="midnightblue" stroke="midnightblue" points="557.28,-92.5 548.31,-86.87 551.8,-96.87 557.28,-92.5"/>
</g>
<!-- Node20 -->
<g id="node20" class="node">
<title>Node20</title>
<g id="a_node20"><a xlink:href="JUTXfb_8h.html" target="_top" xlink:title=" ">
<polygon fill="white" stroke="black" points="652.5,-257.5 652.5,-287.5 777.5,-287.5 777.5,-257.5 652.5,-257.5"/>
<text text-anchor="start" x="660.5" y="-275.5" font-family="Helvetica,sans-Serif" font-size="10.00">JSystem/JUtility/JUTXfb</text>
<text text-anchor="middle" x="715" y="-264.5" font-family="Helvetica,sans-Serif" font-size="10.00">/JUTXfb.h</text>
</a>
</g>
</g>
<!-- Node19&#45;&gt;Node20 -->
<g id="edge32" class="edge">
<title>Node19&#45;&gt;Node20</title>
<path fill="none" stroke="midnightblue" d="M676.45,-324.48C682.14,-316.94 690.7,-305.63 698.31,-295.57"/>
<polygon fill="midnightblue" stroke="midnightblue" points="701.15,-297.61 704.39,-287.52 695.57,-293.39 701.15,-297.61"/>
</g>
<!-- Node23 -->
<g id="node23" class="node">
<title>Node23</title>
<g id="a_node23"><a xlink:href="c__xyz_8h.html" target="_top" xlink:title=" ">
<polygon fill="white" stroke="black" points="488.5,-263 488.5,-282 595.5,-282 595.5,-263 488.5,-263"/>
<text text-anchor="middle" x="542" y="-270" font-family="Helvetica,sans-Serif" font-size="10.00">SComponent/c_xyz.h</text>
</a>
</g>
</g>
<!-- Node19&#45;&gt;Node23 -->
<g id="edge40" class="edge">
<title>Node19&#45;&gt;Node23</title>
<path fill="none" stroke="midnightblue" d="M651.66,-324.48C630.18,-314.49 594.38,-297.85 569.55,-286.31"/>
<polygon fill="midnightblue" stroke="midnightblue" points="570.85,-283.05 560.31,-282.01 567.9,-289.4 570.85,-283.05"/>
</g>
<!-- Node20&#45;&gt;Node7 -->
<g id="edge37" class="edge">
<title>Node20&#45;&gt;Node7</title>
<path fill="none" stroke="midnightblue" d="M704.05,-257.43C696.69,-247.58 687.07,-233.91 680,-221 664.5,-192.69 660.53,-185.13 652,-154 640.06,-110.42 635.02,-57.32 633.08,-29.71"/>
<polygon fill="midnightblue" stroke="midnightblue" points="636.56,-29.29 632.43,-19.53 629.58,-29.74 636.56,-29.29"/>
</g>
<!-- Node21 -->
<g id="node21" class="node">
<title>Node21</title>
<g id="a_node21"><a xlink:href="JKRHeap_8h.html" target="_top" xlink:title=" ">
<polygon fill="white" stroke="black" points="698,-190.5 698,-220.5 834,-220.5 834,-190.5 698,-190.5"/>
<text text-anchor="start" x="706" y="-208.5" font-family="Helvetica,sans-Serif" font-size="10.00">JSystem/JKernel/JKRHeap</text>
<text text-anchor="middle" x="766" y="-197.5" font-family="Helvetica,sans-Serif" font-size="10.00">/JKRHeap.h</text>
</a>
</g>
</g>
<!-- Node20&#45;&gt;Node21 -->
<g id="edge33" class="edge">
<title>Node20&#45;&gt;Node21</title>
<path fill="none" stroke="midnightblue" d="M726.07,-257.4C732.68,-248.96 741.23,-238.07 748.72,-228.52"/>
<polygon fill="midnightblue" stroke="midnightblue" points="751.54,-230.6 754.96,-220.58 746.03,-226.28 751.54,-230.6"/>
</g>
<!-- Node22 -->
<g id="node22" class="node">
<title>Node22</title>
<g id="a_node22"><a xlink:href="GX_8h.html" target="_top" xlink:title=" ">
<polygon fill="white" stroke="black" points="660.5,-129 660.5,-148 711.5,-148 711.5,-129 660.5,-129"/>
<text text-anchor="middle" x="686" y="-136" font-family="Helvetica,sans-Serif" font-size="10.00">gx/GX.h</text>
</a>
</g>
</g>
<!-- Node20&#45;&gt;Node22 -->
<g id="edge38" class="edge">
<title>Node20&#45;&gt;Node22</title>
<path fill="none" stroke="midnightblue" d="M705.46,-257.17C699.52,-247.42 692.4,-233.97 689,-221 683.52,-200.08 683.51,-175.11 684.4,-158.37"/>
<polygon fill="midnightblue" stroke="midnightblue" points="687.9,-158.46 685.1,-148.25 680.91,-157.98 687.9,-158.46"/>
</g>
<!-- Node21&#45;&gt;Node7 -->
<g id="edge35" class="edge">
<title>Node21&#45;&gt;Node7</title>
<path fill="none" stroke="midnightblue" d="M758.88,-190.34C750.42,-173.84 735.61,-145.89 721,-123 701.16,-91.9 695.17,-84.71 672,-56 664.12,-46.24 654.84,-35.74 647.2,-27.34"/>
<polygon fill="midnightblue" stroke="midnightblue" points="649.57,-24.74 640.22,-19.75 644.41,-29.48 649.57,-24.74"/>
</g>
<!-- Node21&#45;&gt;Node9 -->
<g id="edge34" class="edge">
<title>Node21&#45;&gt;Node9</title>
<path fill="none" stroke="midnightblue" d="M706.24,-190.48C662.97,-180.32 604.35,-166.57 558.91,-155.91"/>
<polygon fill="midnightblue" stroke="midnightblue" points="559.67,-152.49 549.13,-153.61 558.07,-159.3 559.67,-152.49"/>
</g>
<!-- Node21&#45;&gt;Node11 -->
<g id="edge36" class="edge">
<title>Node21&#45;&gt;Node11</title>
<path fill="none" stroke="midnightblue" d="M773.95,-220.83C788.12,-246.13 818.98,-300.21 848,-344 854.29,-353.49 861.76,-363.75 868,-372.07"/>
<polygon fill="midnightblue" stroke="midnightblue" points="865.34,-374.36 874.17,-380.21 870.92,-370.13 865.34,-374.36"/>
</g>
<!-- Node22&#45;&gt;Node7 -->
<g id="edge39" class="edge">
<title>Node22&#45;&gt;Node7</title>
<path fill="none" stroke="midnightblue" d="M682.29,-128.81C673.54,-108.31 651.48,-56.65 639.7,-29.04"/>
<polygon fill="midnightblue" stroke="midnightblue" points="642.88,-27.58 635.74,-19.76 636.44,-30.33 642.88,-27.58"/>
</g>
<!-- Node23&#45;&gt;Node11 -->
<g id="edge43" class="edge">
<title>Node23&#45;&gt;Node11</title>
<path fill="none" stroke="midnightblue" d="M549.78,-282.07C564.06,-297.23 596.14,-328.62 630,-344 702.06,-376.74 795.89,-385.7 845.94,-388.12"/>
<polygon fill="midnightblue" stroke="midnightblue" points="845.79,-391.62 855.93,-388.55 846.09,-384.63 845.79,-391.62"/>
</g>
<!-- Node24 -->
<g id="node24" class="node">
<title>Node24</title>
<g id="a_node24"><a xlink:href="c__math_8h.html" target="_top" xlink:title=" ">
<polygon fill="white" stroke="black" points="450,-196 450,-215 566,-215 566,-196 450,-196"/>
<text text-anchor="middle" x="508" y="-203" font-family="Helvetica,sans-Serif" font-size="10.00">SComponent/c_math.h</text>
</a>
</g>
</g>
<!-- Node23&#45;&gt;Node24 -->
<g id="edge41" class="edge">
<title>Node23&#45;&gt;Node24</title>
<path fill="none" stroke="midnightblue" d="M537.41,-262.73C532.27,-252.89 523.78,-236.66 517.24,-224.16"/>
<polygon fill="midnightblue" stroke="midnightblue" points="520.25,-222.37 512.51,-215.13 514.05,-225.61 520.25,-222.37"/>
</g>
<!-- Node24&#45;&gt;Node11 -->
<g id="edge42" class="edge">
<title>Node24&#45;&gt;Node11</title>
<path fill="none" stroke="midnightblue" d="M500.38,-215.15C487.67,-230.67 464.97,-263.87 480,-288 509.85,-335.91 540.17,-326.99 594,-344 681.92,-371.78 790.63,-382.83 845.6,-386.88"/>
<polygon fill="midnightblue" stroke="midnightblue" points="845.63,-390.39 855.85,-387.6 846.12,-383.41 845.63,-390.39"/>
</g>
<!-- Node25&#45;&gt;Node7 -->
<g id="edge47" class="edge">
<title>Node25&#45;&gt;Node7</title>
<path fill="none" stroke="midnightblue" d="M205.36,-190.11C215.42,-159.6 243.35,-88.6 294,-56 340.43,-26.12 498.63,-15.89 581.08,-12.54"/>
<polygon fill="midnightblue" stroke="midnightblue" points="581.38,-16.03 591.23,-12.15 581.11,-9.04 581.38,-16.03"/>
</g>
<!-- Node25&#45;&gt;Node9 -->
<g id="edge46" class="edge">
<title>Node25&#45;&gt;Node9</title>
<path fill="none" stroke="midnightblue" d="M263.14,-190.48C308.22,-180.3 369.32,-166.51 416.61,-155.84"/>
<polygon fill="midnightblue" stroke="midnightblue" points="417.49,-159.23 426.48,-153.61 415.95,-152.4 417.49,-159.23"/>
</g>
<!-- Node26&#45;&gt;Node7 -->
<g id="edge54" class="edge">
<title>Node26&#45;&gt;Node7</title>
<path fill="none" stroke="midnightblue" d="M1150.25,-190.19C1147.81,-159.84 1137.51,-89.12 1094,-56 1061.82,-31.5 796.05,-17.76 682.8,-12.96"/>
<polygon fill="midnightblue" stroke="midnightblue" points="682.79,-9.46 672.65,-12.54 682.5,-16.45 682.79,-9.46"/>
</g>
<!-- Node26&#45;&gt;Node9 -->
<g id="edge53" class="edge">
<title>Node26&#45;&gt;Node9</title>
<path fill="none" stroke="midnightblue" d="M1086.92,-198.21C967.22,-186.46 709.62,-161.16 574.97,-147.94"/>
<polygon fill="midnightblue" stroke="midnightblue" points="575,-144.43 564.7,-146.93 574.31,-151.39 575,-144.43"/>
</g>
</g>
</svg>
