<?xml version="1.0" encoding="UTF-8" standalone="no"?>
<!DOCTYPE svg PUBLIC "-//W3C//DTD SVG 1.1//EN"
 "http://www.w3.org/Graphics/SVG/1.1/DTD/svg11.dtd">
<!-- Generated by graphviz version 2.46.0 (20210122.1329)
 -->
<!-- Title: include/JSystem/JKernel/JKRAramHeap/JKRAramHeap.h Pages: 1 -->
<svg width="454pt" height="173pt"
 viewBox="0.00 0.00 454.00 173.00" xmlns="http://www.w3.org/2000/svg" xmlns:xlink="http://www.w3.org/1999/xlink">
<g id="graph0" class="graph" transform="scale(1 1) rotate(0) translate(4 169)">
<title>include/JSystem/JKernel/JKRAramHeap/JKRAramHeap.h</title>
<polygon fill="white" stroke="transparent" points="-4,4 -4,-169 450,-169 450,4 -4,4"/>
<!-- Node1 -->
<g id="node1" class="node">
<title>Node1</title>
<g id="a_node1"><a xlink:title=" ">
<polygon fill="#bfbfbf" stroke="black" points="142,-134.5 142,-164.5 303,-164.5 303,-134.5 142,-134.5"/>
<text text-anchor="start" x="150" y="-152.5" font-family="Helvetica,sans-Serif" font-size="10.00">include/JSystem/JKernel</text>
<text text-anchor="middle" x="222.5" y="-141.5" font-family="Helvetica,sans-Serif" font-size="10.00">/JKRAramHeap/JKRAramHeap.h</text>
</a>
</g>
</g>
<!-- Node2 -->
<g id="node2" class="node">
<title>Node2</title>
<g id="a_node2"><a xlink:href="JKRAramBlock_8cpp.html" target="_top" xlink:title=" ">
<polygon fill="white" stroke="black" points="0,-67.5 0,-97.5 109,-97.5 109,-67.5 0,-67.5"/>
<text text-anchor="start" x="8" y="-85.5" font-family="Helvetica,sans-Serif" font-size="10.00">libs/JSystem/JKernel</text>
<text text-anchor="middle" x="54.5" y="-74.5" font-family="Helvetica,sans-Serif" font-size="10.00">/JKRAramBlock.cpp</text>
</a>
</g>
</g>
<!-- Node1&#45;&gt;Node2 -->
<g id="edge1" class="edge">
<title>Node1&#45;&gt;Node2</title>
<path fill="none" stroke="midnightblue" d="M176.45,-130.68C149.5,-120.26 115.96,-107.28 90.88,-97.58"/>
<polygon fill="midnightblue" stroke="midnightblue" points="175.46,-134.05 186.05,-134.4 177.98,-127.52 175.46,-134.05"/>
</g>
<!-- Node3 -->
<g id="node3" class="node">
<title>Node3</title>
<g id="a_node3"><a xlink:href="JKRAramHeap_8cpp.html" target="_top" xlink:title=" ">
<polygon fill="white" stroke="black" points="127,-67.5 127,-97.5 236,-97.5 236,-67.5 127,-67.5"/>
<text text-anchor="start" x="135" y="-85.5" font-family="Helvetica,sans-Serif" font-size="10.00">libs/JSystem/JKernel</text>
<text text-anchor="middle" x="181.5" y="-74.5" font-family="Helvetica,sans-Serif" font-size="10.00">/JKRAramHeap.cpp</text>
</a>
</g>
</g>
<!-- Node1&#45;&gt;Node3 -->
<g id="edge2" class="edge">
<title>Node1&#45;&gt;Node3</title>
<path fill="none" stroke="midnightblue" d="M208.22,-125.87C202.29,-116.46 195.59,-105.83 190.38,-97.58"/>
<polygon fill="midnightblue" stroke="midnightblue" points="205.31,-127.81 213.6,-134.4 211.23,-124.07 205.31,-127.81"/>
</g>
<!-- Node4 -->
<g id="node4" class="node">
<title>Node4</title>
<g id="a_node4"><a xlink:href="JKRAram_8cpp.html" target="_top" xlink:title=" ">
<polygon fill="white" stroke="black" points="210,-0.5 210,-30.5 319,-30.5 319,-0.5 210,-0.5"/>
<text text-anchor="start" x="218" y="-18.5" font-family="Helvetica,sans-Serif" font-size="10.00">libs/JSystem/JKernel</text>
<text text-anchor="middle" x="264.5" y="-7.5" font-family="Helvetica,sans-Serif" font-size="10.00">/JKRAram.cpp</text>
</a>
</g>
</g>
<!-- Node1&#45;&gt;Node4 -->
<g id="edge3" class="edge">
<title>Node1&#45;&gt;Node4</title>
<path fill="none" stroke="midnightblue" d="M234.35,-125.05C238.27,-116.66 242.42,-107.05 245.5,-98 253.37,-74.89 259.09,-47.02 262.1,-30.58"/>
<polygon fill="midnightblue" stroke="midnightblue" points="231.12,-123.7 229.92,-134.22 237.42,-126.74 231.12,-123.7"/>
</g>
<!-- Node5 -->
<g id="node5" class="node">
<title>Node5</title>
<g id="a_node5"><a xlink:href="JKRAram_8h.html" target="_top" xlink:title=" ">
<polygon fill="white" stroke="black" points="293,-67.5 293,-97.5 418,-97.5 418,-67.5 293,-67.5"/>
<text text-anchor="start" x="301" y="-85.5" font-family="Helvetica,sans-Serif" font-size="10.00">include/JSystem/JKernel</text>
<text text-anchor="middle" x="355.5" y="-74.5" font-family="Helvetica,sans-Serif" font-size="10.00">/JKRAram/JKRAram.h</text>
</a>
</g>
</g>
<!-- Node1&#45;&gt;Node5 -->
<g id="edge4" class="edge">
<title>Node1&#45;&gt;Node5</title>
<path fill="none" stroke="midnightblue" d="M260.37,-129.99C281.45,-119.69 307.28,-107.07 326.7,-97.58"/>
<polygon fill="midnightblue" stroke="midnightblue" points="258.81,-126.86 251.36,-134.4 261.88,-133.15 258.81,-126.86"/>
</g>
<!-- Node5&#45;&gt;Node4 -->
<g id="edge5" class="edge">
<title>Node5&#45;&gt;Node4</title>
<path fill="none" stroke="midnightblue" d="M327.43,-61.45C313.43,-51.45 296.84,-39.6 284.21,-30.58"/>
<polygon fill="midnightblue" stroke="midnightblue" points="325.58,-64.43 335.75,-67.4 329.65,-58.74 325.58,-64.43"/>
</g>
<!-- Node6 -->
<g id="node6" class="node">
<title>Node6</title>
<g id="a_node6"><a xlink:href="JKRAramPiece_8cpp.html" target="_top" xlink:title=" ">
<polygon fill="white" stroke="black" points="337,-0.5 337,-30.5 446,-30.5 446,-0.5 337,-0.5"/>
<text text-anchor="start" x="345" y="-18.5" font-family="Helvetica,sans-Serif" font-size="10.00">libs/JSystem/JKernel</text>
<text text-anchor="middle" x="391.5" y="-7.5" font-family="Helvetica,sans-Serif" font-size="10.00">/JKRAramPiece.cpp</text>
</a>
</g>
</g>
<!-- Node5&#45;&gt;Node6 -->
<g id="edge6" class="edge">
<title>Node5&#45;&gt;Node6</title>
<path fill="none" stroke="midnightblue" d="M368.2,-58.58C373.37,-49.24 379.18,-38.75 383.7,-30.58"/>
<polygon fill="midnightblue" stroke="midnightblue" points="365.09,-56.95 363.31,-67.4 371.22,-60.34 365.09,-56.95"/>
</g>
</g>
</svg>
