<?xml version="1.0" encoding="UTF-8" standalone="no"?>
<!DOCTYPE svg PUBLIC "-//W3C//DTD SVG 1.1//EN"
 "http://www.w3.org/Graphics/SVG/1.1/DTD/svg11.dtd">
<!-- Generated by graphviz version 2.46.0 (20210122.1329)
 -->
<!-- Title: include/JSystem/JKernel/JKRAram/JKRAram.h Pages: 1 -->
<!--zoomable 676 -->
<svg id="main" version="1.1" xmlns="http://www.w3.org/2000/svg" xmlns:xlink="http://www.w3.org/1999/xlink" xml:space="preserve" onload="init(evt)">
<style type="text/css"><![CDATA[
.edge:hover path { stroke: red; }
.edge:hover polygon { stroke: red; fill: red; }
]]></style>
<script type="text/javascript"><![CDATA[
var edges = document.getElementsByTagName('g');
if (edges && edges.length) {
  for (var i=0;i<edges.length;i++) {
    if (edges[i].id.substr(0,4)=='edge') {
      edges[i].setAttribute('class','edge');
    }
  }
}
]]></script>
        <defs>
                <circle id="rim" cx="0" cy="0" r="7"/>
                <circle id="rim2" cx="0" cy="0" r="3.5"/>
                <g id="zoomPlus">
                        <use xlink:href="#rim" fill="#404040">
                                <set attributeName="fill" to="#808080" begin="zoomplus.mouseover" end="zoomplus.mouseout"/>
                        </use>
                        <path d="M-4,0h8M0,-4v8" fill="none" stroke="white" stroke-width="1.5" pointer-events="none"/>
                </g>
                <g id="zoomMin">
                        <use xlink:href="#rim" fill="#404040">
                                <set attributeName="fill" to="#808080" begin="zoomminus.mouseover" end="zoomminus.mouseout"/>
                        </use>
                        <path d="M-4,0h8" fill="none" stroke="white" stroke-width="1.5" pointer-events="none"/>
                </g>
                <g id="dirArrow">
                        <path fill="none" stroke="white" stroke-width="1.5" d="M0,-3.0v7 M-2.5,-0.5L0,-3.0L2.5,-0.5"/>
                </g>
               <g id="resetDef">
                       <use xlink:href="#rim2" fill="#404040">
                               <set attributeName="fill" to="#808080" begin="reset.mouseover" end="reset.mouseout"/>
                       </use>
               </g>
        </defs>

<script type="text/javascript">
var viewWidth = 1181;
var viewHeight = 676;
var sectionId = 'dynsection-0';
</script>
<script xlink:href="svgpan.js"/>
<svg id="graph" class="graph">
<g id="viewport">
<title>include/JSystem/JKernel/JKRAram/JKRAram.h</title>
<polygon fill="white" stroke="transparent" points="-4,4 -4,-672 1177,-672 1177,4 -4,4"/>
<!-- Node1 -->
<g id="node1" class="node">
<title>Node1</title>
<g id="a_node1"><a xlink:title=" ">
<polygon fill="#bfbfbf" stroke="black" points="500.5,-637.5 500.5,-667.5 625.5,-667.5 625.5,-637.5 500.5,-637.5"/>
<text text-anchor="start" x="508.5" y="-655.5" font-family="Helvetica,sans-Serif" font-size="10.00">include/JSystem/JKernel</text>
<text text-anchor="middle" x="563" y="-644.5" font-family="Helvetica,sans-Serif" font-size="10.00">/JKRAram/JKRAram.h</text>
</a>
</g>
</g>
<!-- Node2 -->
<g id="node2" class="node">
<title>Node2</title>
<g id="a_node2"><a xlink:href="JKRAramHeap_8h.html" target="_top" xlink:title=" ">
<polygon fill="white" stroke="black" points="176.5,-436.5 176.5,-466.5 335.5,-466.5 335.5,-436.5 176.5,-436.5"/>
<text text-anchor="start" x="184.5" y="-454.5" font-family="Helvetica,sans-Serif" font-size="10.00">JSystem/JKernel/JKRAramHeap</text>
<text text-anchor="middle" x="256" y="-443.5" font-family="Helvetica,sans-Serif" font-size="10.00">/JKRAramHeap.h</text>
</a>
</g>
</g>
<!-- Node1&#45;&gt;Node2 -->
<g id="edge1" class="edge">
<title>Node1&#45;&gt;Node2</title>
<path fill="none" stroke="midnightblue" d="M540.92,-637.19C486.93,-602.19 348.16,-512.24 286.41,-472.21"/>
<polygon fill="midnightblue" stroke="midnightblue" points="288.17,-469.18 277.88,-466.68 284.37,-475.06 288.17,-469.18"/>
</g>
<!-- Node5 -->
<g id="node5" class="node">
<title>Node5</title>
<g id="a_node5"><a xlink:href="types_8h.html" target="_top" xlink:title=" ">
<polygon fill="white" stroke="black" points="624.5,-0.5 624.5,-19.5 705.5,-19.5 705.5,-0.5 624.5,-0.5"/>
<text text-anchor="middle" x="665" y="-7.5" font-family="Helvetica,sans-Serif" font-size="10.00">dolphin/types.h</text>
</a>
</g>
</g>
<!-- Node1&#45;&gt;Node5 -->
<g id="edge50" class="edge">
<title>Node1&#45;&gt;Node5</title>
<path fill="none" stroke="midnightblue" d="M500.33,-649.96C353.58,-644.67 0,-621.34 0,-519.5 0,-519.5 0,-519.5 0,-137.5 0,-92.26 21.32,-77.74 61,-56 108.91,-29.74 477.13,-16.46 613.99,-12.39"/>
<polygon fill="midnightblue" stroke="midnightblue" points="614.31,-15.88 624.21,-12.09 614.11,-8.89 614.31,-15.88"/>
</g>
<!-- Node6 -->
<g id="node6" class="node">
<title>Node6</title>
<g id="a_node6"><a xlink:href="global_8h.html" target="_top" xlink:title=" ">
<polygon fill="white" stroke="black" points="588,-380.5 588,-399.5 638,-399.5 638,-380.5 588,-380.5"/>
<text text-anchor="middle" x="613" y="-387.5" font-family="Helvetica,sans-Serif" font-size="10.00">global.h</text>
</a>
</g>
</g>
<!-- Node1&#45;&gt;Node6 -->
<g id="edge51" class="edge">
<title>Node1&#45;&gt;Node6</title>
<path fill="none" stroke="midnightblue" d="M561.82,-637.36C559.39,-602.13 556.05,-508.09 582,-436 585.73,-425.64 592.45,-415.43 598.68,-407.36"/>
<polygon fill="midnightblue" stroke="midnightblue" points="601.46,-409.49 605.08,-399.53 596.04,-405.05 601.46,-409.49"/>
</g>
<!-- Node20 -->
<g id="node20" class="node">
<title>Node20</title>
<g id="a_node20"><a xlink:href="JKRDvdRipper_8h.html" target="_top" xlink:title=" ">
<polygon fill="white" stroke="black" points="862,-570.5 862,-600.5 1020,-600.5 1020,-570.5 862,-570.5"/>
<text text-anchor="start" x="870" y="-588.5" font-family="Helvetica,sans-Serif" font-size="10.00">JSystem/JKernel/JKRDvdRipper</text>
<text text-anchor="middle" x="941" y="-577.5" font-family="Helvetica,sans-Serif" font-size="10.00">/JKRDvdRipper.h</text>
</a>
</g>
</g>
<!-- Node1&#45;&gt;Node20 -->
<g id="edge37" class="edge">
<title>Node1&#45;&gt;Node20</title>
<path fill="none" stroke="midnightblue" d="M625.84,-640.69C687.57,-630.08 782.34,-613.78 851.85,-601.83"/>
<polygon fill="midnightblue" stroke="midnightblue" points="852.65,-605.24 861.91,-600.1 851.46,-598.35 852.65,-605.24"/>
</g>
<!-- Node24 -->
<g id="node24" class="node">
<title>Node24</title>
<g id="a_node24"><a xlink:href="JKRThread_8h.html" target="_top" xlink:title=" ">
<polygon fill="white" stroke="black" points="591.5,-436.5 591.5,-466.5 734.5,-466.5 734.5,-436.5 591.5,-436.5"/>
<text text-anchor="start" x="599.5" y="-454.5" font-family="Helvetica,sans-Serif" font-size="10.00">JSystem/JKernel/JKRThread</text>
<text text-anchor="middle" x="663" y="-443.5" font-family="Helvetica,sans-Serif" font-size="10.00">/JKRThread.h</text>
</a>
</g>
</g>
<!-- Node1&#45;&gt;Node24 -->
<g id="edge49" class="edge">
<title>Node1&#45;&gt;Node24</title>
<path fill="none" stroke="midnightblue" d="M570.19,-637.19C587.27,-603.2 630.41,-517.35 651.3,-475.78"/>
<polygon fill="midnightblue" stroke="midnightblue" points="654.51,-477.19 655.87,-466.68 648.26,-474.05 654.51,-477.19"/>
</g>
<!-- Node3 -->
<g id="node3" class="node">
<title>Node3</title>
<g id="a_node3"><a xlink:href="JKRDisposer_8h.html" target="_top" xlink:title=" ">
<polygon fill="white" stroke="black" points="66.5,-123.5 66.5,-153.5 217.5,-153.5 217.5,-123.5 66.5,-123.5"/>
<text text-anchor="start" x="74.5" y="-141.5" font-family="Helvetica,sans-Serif" font-size="10.00">JSystem/JKernel/JKRDisposer</text>
<text text-anchor="middle" x="142" y="-130.5" font-family="Helvetica,sans-Serif" font-size="10.00">/JKRDisposer.h</text>
</a>
</g>
</g>
<!-- Node2&#45;&gt;Node3 -->
<g id="edge2" class="edge">
<title>Node2&#45;&gt;Node3</title>
<path fill="none" stroke="midnightblue" d="M190.94,-436.46C168.59,-428.86 144.96,-417.33 128,-400 106.47,-377.99 104,-365.8 104,-335 104,-335 104,-335 104,-271.5 104,-232.34 119.63,-189.11 130.85,-163.14"/>
<polygon fill="midnightblue" stroke="midnightblue" points="134.15,-164.32 135.03,-153.76 127.76,-161.47 134.15,-164.32"/>
</g>
<!-- Node2&#45;&gt;Node5 -->
<g id="edge6" class="edge">
<title>Node2&#45;&gt;Node5</title>
<path fill="none" stroke="midnightblue" d="M176.37,-440.85C114.1,-428.33 38,-399.78 38,-335 38,-335 38,-335 38,-137.5 38,-79.47 86.11,-77.51 140,-56 225.27,-21.96 499.61,-13.63 614.08,-11.63"/>
<polygon fill="midnightblue" stroke="midnightblue" points="614.39,-15.12 624.33,-11.46 614.27,-8.12 614.39,-15.12"/>
</g>
<!-- Node2&#45;&gt;Node6 -->
<g id="edge7" class="edge">
<title>Node2&#45;&gt;Node6</title>
<path fill="none" stroke="midnightblue" d="M335.67,-437.22C411.35,-424.61 521.64,-406.23 577.6,-396.9"/>
<polygon fill="midnightblue" stroke="midnightblue" points="578.43,-400.31 587.71,-395.21 577.27,-393.41 578.43,-400.31"/>
</g>
<!-- Node4 -->
<g id="node4" class="node">
<title>Node4</title>
<g id="a_node4"><a xlink:href="JSUList_8h.html" target="_top" xlink:title=" ">
<polygon fill="white" stroke="black" points="170,-56.5 170,-86.5 306,-86.5 306,-56.5 170,-56.5"/>
<text text-anchor="start" x="178" y="-74.5" font-family="Helvetica,sans-Serif" font-size="10.00">JSystem/JSupport/JSUList</text>
<text text-anchor="middle" x="238" y="-63.5" font-family="Helvetica,sans-Serif" font-size="10.00">/JSUList.h</text>
</a>
</g>
</g>
<!-- Node3&#45;&gt;Node4 -->
<g id="edge3" class="edge">
<title>Node3&#45;&gt;Node4</title>
<path fill="none" stroke="midnightblue" d="M162.83,-123.4C176.29,-114.28 194,-102.29 208.85,-92.24"/>
<polygon fill="midnightblue" stroke="midnightblue" points="210.89,-95.08 217.21,-86.58 206.97,-89.28 210.89,-95.08"/>
</g>
<!-- Node3&#45;&gt;Node5 -->
<g id="edge5" class="edge">
<title>Node3&#45;&gt;Node5</title>
<path fill="none" stroke="midnightblue" d="M140.74,-123.19C139.98,-104.64 141.81,-72.68 161,-56 194.71,-26.71 492.8,-15.56 614.05,-12.21"/>
<polygon fill="midnightblue" stroke="midnightblue" points="614.28,-15.71 624.19,-11.94 614.09,-8.71 614.28,-15.71"/>
</g>
<!-- Node4&#45;&gt;Node5 -->
<g id="edge4" class="edge">
<title>Node4&#45;&gt;Node5</title>
<path fill="none" stroke="midnightblue" d="M306.42,-58.16C311.01,-57.41 315.57,-56.68 320,-56 424.13,-40.01 546.52,-24.92 613.95,-16.93"/>
<polygon fill="midnightblue" stroke="midnightblue" points="614.77,-20.35 624.29,-15.7 613.94,-13.4 614.77,-20.35"/>
</g>
<!-- Node6&#45;&gt;Node5 -->
<g id="edge8" class="edge">
<title>Node6&#45;&gt;Node5</title>
<path fill="none" stroke="midnightblue" d="M611.08,-380.09C604.1,-346.06 581.71,-221.21 606,-123 615.01,-86.57 638.24,-48.92 652.72,-27.87"/>
<polygon fill="midnightblue" stroke="midnightblue" points="655.6,-29.87 658.5,-19.68 649.88,-25.84 655.6,-29.87"/>
</g>
<!-- Node7 -->
<g id="node7" class="node">
<title>Node7</title>
<g id="a_node7"><a xlink:href="AR_8h.html" target="_top" xlink:title=" ">
<polygon fill="white" stroke="black" points="615.5,-129 615.5,-148 664.5,-148 664.5,-129 615.5,-129"/>
<text text-anchor="middle" x="640" y="-136" font-family="Helvetica,sans-Serif" font-size="10.00">ar/AR.h</text>
</a>
</g>
</g>
<!-- Node6&#45;&gt;Node7 -->
<g id="edge9" class="edge">
<title>Node6&#45;&gt;Node7</title>
<path fill="none" stroke="midnightblue" d="M616.43,-380.19C619.75,-371.23 624.62,-356.87 627,-344 639.47,-276.45 640.52,-194.45 640.29,-158.23"/>
<polygon fill="midnightblue" stroke="midnightblue" points="643.79,-158.12 640.18,-148.16 636.79,-158.2 643.79,-158.12"/>
</g>
<!-- Node8 -->
<g id="node8" class="node">
<title>Node8</title>
<g id="a_node8"><a xlink:href="ARQ_8h.html" target="_top" xlink:title=" ">
<polygon fill="white" stroke="black" points="665,-62 665,-81 721,-81 721,-62 665,-62"/>
<text text-anchor="middle" x="693" y="-69" font-family="Helvetica,sans-Serif" font-size="10.00">ar/ARQ.h</text>
</a>
</g>
</g>
<!-- Node6&#45;&gt;Node8 -->
<g id="edge11" class="edge">
<title>Node6&#45;&gt;Node8</title>
<path fill="none" stroke="midnightblue" d="M620.37,-380.31C627.31,-371.67 637.43,-357.75 643,-344 679.43,-254.1 689.51,-136.66 692.13,-91.41"/>
<polygon fill="midnightblue" stroke="midnightblue" points="695.64,-91.47 692.66,-81.3 688.64,-91.1 695.64,-91.47"/>
</g>
<!-- Node9 -->
<g id="node9" class="node">
<title>Node9</title>
<g id="a_node9"><a xlink:href="functions_8h.html" target="_top" xlink:title=" ">
<polygon fill="white" stroke="black" points="756,-324.5 756,-343.5 820,-343.5 820,-324.5 756,-324.5"/>
<text text-anchor="middle" x="788" y="-331.5" font-family="Helvetica,sans-Serif" font-size="10.00">functions.h</text>
</a>
</g>
</g>
<!-- Node6&#45;&gt;Node9 -->
<g id="edge13" class="edge">
<title>Node6&#45;&gt;Node9</title>
<path fill="none" stroke="midnightblue" d="M638.07,-381.26C667.58,-372.16 716.84,-356.96 750.8,-346.48"/>
<polygon fill="midnightblue" stroke="midnightblue" points="751.85,-349.82 760.37,-343.52 749.79,-343.13 751.85,-349.82"/>
</g>
<!-- Node11 -->
<g id="node11" class="node">
<title>Node11</title>
<g id="a_node11"><a xlink:href="mwcc_8h.html" target="_top" xlink:title=" ">
<polygon fill="white" stroke="black" points="717,-263 717,-282 767,-282 767,-263 717,-263"/>
<text text-anchor="middle" x="742" y="-270" font-family="Helvetica,sans-Serif" font-size="10.00">mwcc.h</text>
</a>
</g>
</g>
<!-- Node6&#45;&gt;Node11 -->
<g id="edge21" class="edge">
<title>Node6&#45;&gt;Node11</title>
<path fill="none" stroke="midnightblue" d="M638.38,-380.99C657.91,-373.81 684.59,-361.66 703,-344 718.26,-329.37 729.09,-307.44 735.41,-291.93"/>
<polygon fill="midnightblue" stroke="midnightblue" points="738.75,-292.98 739.06,-282.39 732.22,-290.48 738.75,-292.98"/>
</g>
<!-- Node12 -->
<g id="node12" class="node">
<title>Node12</title>
<g id="a_node12"><a xlink:href="OS_8h.html" target="_top" xlink:title=" ">
<polygon fill="white" stroke="black" points="823,-263 823,-282 875,-282 875,-263 823,-263"/>
<text text-anchor="middle" x="849" y="-270" font-family="Helvetica,sans-Serif" font-size="10.00">os/OS.h</text>
</a>
</g>
</g>
<!-- Node6&#45;&gt;Node12 -->
<g id="edge22" class="edge">
<title>Node6&#45;&gt;Node12</title>
<path fill="none" stroke="midnightblue" d="M638.12,-386.99C688.94,-382.44 801.46,-369.65 829,-344 843.08,-330.88 847.51,-308.65 848.77,-292.65"/>
<polygon fill="midnightblue" stroke="midnightblue" points="852.28,-292.47 849.22,-282.33 845.29,-292.17 852.28,-292.47"/>
</g>
<!-- Node14 -->
<g id="node14" class="node">
<title>Node14</title>
<g id="a_node14"><a xlink:href="variables_8h.html" target="_top" xlink:title=" ">
<polygon fill="white" stroke="black" points="364.5,-324.5 364.5,-343.5 427.5,-343.5 427.5,-324.5 364.5,-324.5"/>
<text text-anchor="middle" x="396" y="-331.5" font-family="Helvetica,sans-Serif" font-size="10.00">variables.h</text>
</a>
</g>
</g>
<!-- Node6&#45;&gt;Node14 -->
<g id="edge23" class="edge">
<title>Node6&#45;&gt;Node14</title>
<path fill="none" stroke="midnightblue" d="M587.68,-382.7C550.86,-373.54 482.1,-356.43 437.72,-345.38"/>
<polygon fill="midnightblue" stroke="midnightblue" points="438.37,-341.94 427.82,-342.92 436.68,-348.73 438.37,-341.94"/>
</g>
<!-- Node7&#45;&gt;Node5 -->
<g id="edge10" class="edge">
<title>Node7&#45;&gt;Node5</title>
<path fill="none" stroke="midnightblue" d="M641.67,-128.93C644.57,-114.08 650.73,-82.59 656,-56 657.72,-47.3 659.65,-37.65 661.28,-29.52"/>
<polygon fill="midnightblue" stroke="midnightblue" points="664.73,-30.12 663.27,-19.62 657.87,-28.74 664.73,-30.12"/>
</g>
<!-- Node8&#45;&gt;Node5 -->
<g id="edge12" class="edge">
<title>Node8&#45;&gt;Node5</title>
<path fill="none" stroke="midnightblue" d="M688.99,-61.98C684.91,-53.32 678.48,-39.65 673.3,-28.65"/>
<polygon fill="midnightblue" stroke="midnightblue" points="676.43,-27.07 669,-19.51 670.1,-30.05 676.43,-27.07"/>
</g>
<!-- Node10 -->
<g id="node10" class="node">
<title>Node10</title>
<g id="a_node10"><a xlink:href="mtx__vec_8h.html" target="_top" xlink:title=" ">
<polygon fill="white" stroke="black" points="721.5,-129 721.5,-148 782.5,-148 782.5,-129 721.5,-129"/>
<text text-anchor="middle" x="752" y="-136" font-family="Helvetica,sans-Serif" font-size="10.00">mtx_vec.h</text>
</a>
</g>
</g>
<!-- Node9&#45;&gt;Node10 -->
<g id="edge14" class="edge">
<title>Node9&#45;&gt;Node10</title>
<path fill="none" stroke="midnightblue" d="M786.72,-324.09C784.66,-309.87 780.38,-281.19 776,-257 769.63,-221.79 760.99,-180.89 756.01,-157.82"/>
<polygon fill="midnightblue" stroke="midnightblue" points="759.42,-157.05 753.88,-148.03 752.58,-158.54 759.42,-157.05"/>
</g>
<!-- Node9&#45;&gt;Node11 -->
<g id="edge16" class="edge">
<title>Node9&#45;&gt;Node11</title>
<path fill="none" stroke="midnightblue" d="M781.41,-324.48C774.51,-315.55 763.5,-301.31 754.87,-290.14"/>
<polygon fill="midnightblue" stroke="midnightblue" points="757.46,-287.78 748.58,-282.01 751.93,-292.06 757.46,-287.78"/>
</g>
<!-- Node9&#45;&gt;Node12 -->
<g id="edge17" class="edge">
<title>Node9&#45;&gt;Node12</title>
<path fill="none" stroke="midnightblue" d="M796.74,-324.48C806.16,-315.28 821.36,-300.46 832.95,-289.16"/>
<polygon fill="midnightblue" stroke="midnightblue" points="835.56,-291.5 840.28,-282.01 830.67,-286.49 835.56,-291.5"/>
</g>
<!-- Node10&#45;&gt;Node5 -->
<g id="edge15" class="edge">
<title>Node10&#45;&gt;Node5</title>
<path fill="none" stroke="midnightblue" d="M751.59,-128.83C750.44,-112.98 746.14,-78.87 730,-56 720.64,-42.73 706.05,-32.12 693.07,-24.54"/>
<polygon fill="midnightblue" stroke="midnightblue" points="694.44,-21.3 683.99,-19.56 691.07,-27.44 694.44,-21.3"/>
</g>
<!-- Node12&#45;&gt;Node5 -->
<g id="edge18" class="edge">
<title>Node12&#45;&gt;Node5</title>
<path fill="none" stroke="midnightblue" d="M847.47,-262.73C841.39,-230.55 816.11,-117.55 751,-56 736.16,-41.97 716.09,-31.14 699.07,-23.62"/>
<polygon fill="midnightblue" stroke="midnightblue" points="700.04,-20.23 689.47,-19.58 697.33,-26.68 700.04,-20.23"/>
</g>
<!-- Node13 -->
<g id="node13" class="node">
<title>Node13</title>
<g id="a_node13"><a xlink:href="dvd_8h.html" target="_top" xlink:title=" ">
<polygon fill="white" stroke="black" points="815.5,-62 815.5,-81 874.5,-81 874.5,-62 815.5,-62"/>
<text text-anchor="middle" x="845" y="-69" font-family="Helvetica,sans-Serif" font-size="10.00">dvd/dvd.h</text>
</a>
</g>
</g>
<!-- Node12&#45;&gt;Node13 -->
<g id="edge19" class="edge">
<title>Node12&#45;&gt;Node13</title>
<path fill="none" stroke="midnightblue" d="M848.83,-262.95C848.23,-233.16 846.23,-133.51 845.38,-91.47"/>
<polygon fill="midnightblue" stroke="midnightblue" points="848.88,-91.17 845.18,-81.24 841.88,-91.31 848.88,-91.17"/>
</g>
<!-- Node13&#45;&gt;Node5 -->
<g id="edge20" class="edge">
<title>Node13&#45;&gt;Node5</title>
<path fill="none" stroke="midnightblue" d="M819.21,-61.98C788.07,-51.68 735.52,-34.31 700.55,-22.75"/>
<polygon fill="midnightblue" stroke="midnightblue" points="701.34,-19.32 690.74,-19.51 699.14,-25.97 701.34,-19.32"/>
</g>
<!-- Node14&#45;&gt;Node4 -->
<g id="edge24" class="edge">
<title>Node14&#45;&gt;Node4</title>
<path fill="none" stroke="midnightblue" d="M364.49,-326.51C317.42,-314.86 230.88,-285.34 199,-221 192.88,-208.65 194.64,-203.07 199,-190 205.32,-171.03 218.31,-172.46 226,-154 233.63,-135.7 236.51,-113.32 237.56,-96.64"/>
<polygon fill="midnightblue" stroke="midnightblue" points="241.05,-96.76 238.01,-86.61 234.06,-96.44 241.05,-96.76"/>
</g>
<!-- Node15 -->
<g id="node15" class="node">
<title>Node15</title>
<g id="a_node15"><a xlink:href="JUTXfb_8h.html" target="_top" xlink:title=" ">
<polygon fill="white" stroke="black" points="296.5,-257.5 296.5,-287.5 421.5,-287.5 421.5,-257.5 296.5,-257.5"/>
<text text-anchor="start" x="304.5" y="-275.5" font-family="Helvetica,sans-Serif" font-size="10.00">JSystem/JUtility/JUTXfb</text>
<text text-anchor="middle" x="359" y="-264.5" font-family="Helvetica,sans-Serif" font-size="10.00">/JUTXfb.h</text>
</a>
</g>
</g>
<!-- Node14&#45;&gt;Node15 -->
<g id="edge25" class="edge">
<title>Node14&#45;&gt;Node15</title>
<path fill="none" stroke="midnightblue" d="M390.7,-324.48C386.11,-317.09 379.26,-306.08 373.1,-296.17"/>
<polygon fill="midnightblue" stroke="midnightblue" points="375.97,-294.17 367.72,-287.52 370.03,-297.86 375.97,-294.17"/>
</g>
<!-- Node18 -->
<g id="node18" class="node">
<title>Node18</title>
<g id="a_node18"><a xlink:href="c__xyz_8h.html" target="_top" xlink:title=" ">
<polygon fill="white" stroke="black" points="439.5,-263 439.5,-282 546.5,-282 546.5,-263 439.5,-263"/>
<text text-anchor="middle" x="493" y="-270" font-family="Helvetica,sans-Serif" font-size="10.00">SComponent/c_xyz.h</text>
</a>
</g>
</g>
<!-- Node14&#45;&gt;Node18 -->
<g id="edge33" class="edge">
<title>Node14&#45;&gt;Node18</title>
<path fill="none" stroke="midnightblue" d="M409.9,-324.48C425.67,-314.8 451.64,-298.87 470.35,-287.39"/>
<polygon fill="midnightblue" stroke="midnightblue" points="472.43,-290.22 479.13,-282.01 468.77,-284.25 472.43,-290.22"/>
</g>
<!-- Node15&#45;&gt;Node5 -->
<g id="edge30" class="edge">
<title>Node15&#45;&gt;Node5</title>
<path fill="none" stroke="midnightblue" d="M362.53,-257.35C367.22,-240.36 376.61,-211.46 391,-190 438.97,-118.47 457.29,-100.56 531,-56 556.88,-40.35 588.91,-29.34 615.16,-22.13"/>
<polygon fill="midnightblue" stroke="midnightblue" points="616.14,-25.49 624.91,-19.55 614.35,-18.72 616.14,-25.49"/>
</g>
<!-- Node16 -->
<g id="node16" class="node">
<title>Node16</title>
<g id="a_node16"><a xlink:href="JKRHeap_8h.html" target="_top" xlink:title=" ">
<polygon fill="white" stroke="black" points="208,-190.5 208,-220.5 344,-220.5 344,-190.5 208,-190.5"/>
<text text-anchor="start" x="216" y="-208.5" font-family="Helvetica,sans-Serif" font-size="10.00">JSystem/JKernel/JKRHeap</text>
<text text-anchor="middle" x="276" y="-197.5" font-family="Helvetica,sans-Serif" font-size="10.00">/JKRHeap.h</text>
</a>
</g>
</g>
<!-- Node15&#45;&gt;Node16 -->
<g id="edge26" class="edge">
<title>Node15&#45;&gt;Node16</title>
<path fill="none" stroke="midnightblue" d="M340.99,-257.4C329.57,-248.45 314.61,-236.74 301.92,-226.8"/>
<polygon fill="midnightblue" stroke="midnightblue" points="304.01,-223.99 293.97,-220.58 299.69,-229.5 304.01,-223.99"/>
</g>
<!-- Node17 -->
<g id="node17" class="node">
<title>Node17</title>
<g id="a_node17"><a xlink:href="GX_8h.html" target="_top" xlink:title=" ">
<polygon fill="white" stroke="black" points="400.5,-196 400.5,-215 451.5,-215 451.5,-196 400.5,-196"/>
<text text-anchor="middle" x="426" y="-203" font-family="Helvetica,sans-Serif" font-size="10.00">gx/GX.h</text>
</a>
</g>
</g>
<!-- Node15&#45;&gt;Node17 -->
<g id="edge31" class="edge">
<title>Node15&#45;&gt;Node17</title>
<path fill="none" stroke="midnightblue" d="M373.54,-257.4C384.19,-247.06 398.66,-233.02 409.7,-222.31"/>
<polygon fill="midnightblue" stroke="midnightblue" points="412.3,-224.67 417.04,-215.19 407.42,-219.65 412.3,-224.67"/>
</g>
<!-- Node16&#45;&gt;Node3 -->
<g id="edge27" class="edge">
<title>Node16&#45;&gt;Node3</title>
<path fill="none" stroke="midnightblue" d="M246.92,-190.4C227.35,-180.9 201.32,-168.28 180.09,-157.98"/>
<polygon fill="midnightblue" stroke="midnightblue" points="181.54,-154.79 171.02,-153.58 178.49,-161.09 181.54,-154.79"/>
</g>
<!-- Node16&#45;&gt;Node5 -->
<g id="edge28" class="edge">
<title>Node16&#45;&gt;Node5</title>
<path fill="none" stroke="midnightblue" d="M279.34,-190.2C287.23,-159.88 310.07,-89.21 358,-56 398.49,-27.94 537.83,-17.01 614.1,-13.05"/>
<polygon fill="midnightblue" stroke="midnightblue" points="614.62,-16.53 624.43,-12.54 614.27,-9.54 614.62,-16.53"/>
</g>
<!-- Node16&#45;&gt;Node6 -->
<g id="edge29" class="edge">
<title>Node16&#45;&gt;Node6</title>
<path fill="none" stroke="midnightblue" d="M274.89,-220.73C274.22,-237.81 275.19,-266.79 287,-288 306.05,-322.21 319.43,-327.65 355,-344 429.25,-378.12 526.4,-386.51 577.7,-388.48"/>
<polygon fill="midnightblue" stroke="midnightblue" points="577.82,-391.99 587.93,-388.81 578.05,-384.99 577.82,-391.99"/>
</g>
<!-- Node17&#45;&gt;Node5 -->
<g id="edge32" class="edge">
<title>Node17&#45;&gt;Node5</title>
<path fill="none" stroke="midnightblue" d="M432.82,-195.79C452.41,-171.21 511.41,-100.22 573,-56 591.49,-42.73 614.49,-31.48 632.86,-23.55"/>
<polygon fill="midnightblue" stroke="midnightblue" points="634.4,-26.69 642.27,-19.6 631.7,-20.24 634.4,-26.69"/>
</g>
<!-- Node18&#45;&gt;Node6 -->
<g id="edge36" class="edge">
<title>Node18&#45;&gt;Node6</title>
<path fill="none" stroke="midnightblue" d="M501.13,-282.43C513.64,-296.06 538.53,-322.71 561,-344 571.83,-354.26 584.49,-365.23 594.6,-373.77"/>
<polygon fill="midnightblue" stroke="midnightblue" points="592.48,-376.57 602.4,-380.3 596.98,-371.2 592.48,-376.57"/>
</g>
<!-- Node19 -->
<g id="node19" class="node">
<title>Node19</title>
<g id="a_node19"><a xlink:href="c__math_8h.html" target="_top" xlink:title=" ">
<polygon fill="white" stroke="black" points="469,-196 469,-215 585,-215 585,-196 469,-196"/>
<text text-anchor="middle" x="527" y="-203" font-family="Helvetica,sans-Serif" font-size="10.00">SComponent/c_math.h</text>
</a>
</g>
</g>
<!-- Node18&#45;&gt;Node19 -->
<g id="edge34" class="edge">
<title>Node18&#45;&gt;Node19</title>
<path fill="none" stroke="midnightblue" d="M497.59,-262.73C502.73,-252.89 511.22,-236.66 517.76,-224.16"/>
<polygon fill="midnightblue" stroke="midnightblue" points="520.95,-225.61 522.49,-215.13 514.75,-222.37 520.95,-225.61"/>
</g>
<!-- Node19&#45;&gt;Node6 -->
<g id="edge35" class="edge">
<title>Node19&#45;&gt;Node6</title>
<path fill="none" stroke="midnightblue" d="M532.21,-215.31C538.03,-225.28 547.61,-242.09 555,-257 574.74,-296.84 595.01,-344.94 605.57,-370.66"/>
<polygon fill="midnightblue" stroke="midnightblue" points="602.45,-372.29 609.47,-380.22 608.94,-369.64 602.45,-372.29"/>
</g>
<!-- Node20&#45;&gt;Node5 -->
<g id="edge48" class="edge">
<title>Node20&#45;&gt;Node5</title>
<path fill="none" stroke="midnightblue" d="M941,-570.24C941,-546.03 941,-495.35 941,-452.5 941,-452.5 941,-452.5 941,-137.5 941,-98.25 937.53,-80.67 907,-56 878.27,-32.78 777.98,-20.4 715.89,-14.81"/>
<polygon fill="midnightblue" stroke="midnightblue" points="716.16,-11.32 705.89,-13.94 715.55,-18.29 716.16,-11.32"/>
</g>
<!-- Node21 -->
<g id="node21" class="node">
<title>Node21</title>
<g id="a_node21"><a xlink:href="JKRDecomp_8h.html" target="_top" xlink:title=" ">
<polygon fill="white" stroke="black" points="971.5,-503.5 971.5,-533.5 1120.5,-533.5 1120.5,-503.5 971.5,-503.5"/>
<text text-anchor="start" x="979.5" y="-521.5" font-family="Helvetica,sans-Serif" font-size="10.00">JSystem/JKernel/JKRDecomp</text>
<text text-anchor="middle" x="1046" y="-510.5" font-family="Helvetica,sans-Serif" font-size="10.00">/JKRDecomp.h</text>
</a>
</g>
</g>
<!-- Node20&#45;&gt;Node21 -->
<g id="edge38" class="edge">
<title>Node20&#45;&gt;Node21</title>
<path fill="none" stroke="midnightblue" d="M963.78,-570.4C978.64,-561.2 998.24,-549.07 1014.57,-538.95"/>
<polygon fill="midnightblue" stroke="midnightblue" points="1016.6,-541.82 1023.26,-533.58 1012.92,-535.86 1016.6,-541.82"/>
</g>
<!-- Node21&#45;&gt;Node5 -->
<g id="edge47" class="edge">
<title>Node21&#45;&gt;Node5</title>
<path fill="none" stroke="midnightblue" d="M1077.07,-503.38C1114.67,-483.9 1173,-444.99 1173,-391 1173,-391 1173,-391 1173,-137.5 1173,-94.05 1156.22,-78.42 1119,-56 1052.26,-15.79 819.95,-10.81 715.99,-10.65"/>
<polygon fill="midnightblue" stroke="midnightblue" points="715.74,-7.15 705.74,-10.65 715.74,-14.15 715.74,-7.15"/>
</g>
<!-- Node22 -->
<g id="node22" class="node">
<title>Node22</title>
<g id="a_node22"><a xlink:href="JKRCompression_8h.html" target="_top" xlink:title=" ">
<polygon fill="white" stroke="black" points="968.5,-129 968.5,-148 1145.5,-148 1145.5,-129 968.5,-129"/>
<text text-anchor="middle" x="1057" y="-136" font-family="Helvetica,sans-Serif" font-size="10.00">JSystem/JKernel/JKRCompression.h</text>
</a>
</g>
</g>
<!-- Node21&#45;&gt;Node22 -->
<g id="edge39" class="edge">
<title>Node21&#45;&gt;Node22</title>
<path fill="none" stroke="midnightblue" d="M1046.73,-503.47C1047.89,-480.13 1050,-431.87 1050,-391 1050,-391 1050,-391 1050,-271.5 1050,-231.1 1053.31,-183.84 1055.38,-158.27"/>
<polygon fill="midnightblue" stroke="midnightblue" points="1058.88,-158.4 1056.22,-148.14 1051.9,-157.81 1058.88,-158.4"/>
</g>
<!-- Node21&#45;&gt;Node24 -->
<g id="edge43" class="edge">
<title>Node21&#45;&gt;Node24</title>
<path fill="none" stroke="midnightblue" d="M971.24,-504.81C906.12,-493.76 811.87,-477.77 744.76,-466.38"/>
<polygon fill="midnightblue" stroke="midnightblue" points="745.1,-462.88 734.65,-464.66 743.92,-469.78 745.1,-462.88"/>
</g>
<!-- Node22&#45;&gt;Node5 -->
<g id="edge42" class="edge">
<title>Node22&#45;&gt;Node5</title>
<path fill="none" stroke="midnightblue" d="M1068.05,-128.82C1086.95,-112.95 1121.57,-78.8 1101,-56 1075.6,-27.84 825.45,-16.25 715.92,-12.5"/>
<polygon fill="midnightblue" stroke="midnightblue" points="715.88,-9 705.77,-12.16 715.65,-15.99 715.88,-9"/>
</g>
<!-- Node23 -->
<g id="node23" class="node">
<title>Node23</title>
<g id="a_node23"><a xlink:href="SArc_8h.html" target="_top" xlink:title=" ">
<polygon fill="white" stroke="black" points="969.5,-62 969.5,-81 1092.5,-81 1092.5,-62 969.5,-62"/>
<text text-anchor="middle" x="1031" y="-69" font-family="Helvetica,sans-Serif" font-size="10.00">JSystem/JKernel/SArc.h</text>
</a>
</g>
</g>
<!-- Node22&#45;&gt;Node23 -->
<g id="edge40" class="edge">
<title>Node22&#45;&gt;Node23</title>
<path fill="none" stroke="midnightblue" d="M1053.49,-128.73C1049.6,-118.99 1043.19,-102.98 1038.21,-90.53"/>
<polygon fill="midnightblue" stroke="midnightblue" points="1041.41,-89.11 1034.45,-81.13 1034.92,-91.71 1041.41,-89.11"/>
</g>
<!-- Node23&#45;&gt;Node5 -->
<g id="edge41" class="edge">
<title>Node23&#45;&gt;Node5</title>
<path fill="none" stroke="midnightblue" d="M987.64,-61.96C976.98,-59.93 965.59,-57.83 955,-56 871.41,-41.54 773.88,-26.86 715.9,-18.35"/>
<polygon fill="midnightblue" stroke="midnightblue" points="716.3,-14.87 705.9,-16.89 715.28,-21.8 716.3,-14.87"/>
</g>
<!-- Node24&#45;&gt;Node3 -->
<g id="edge44" class="edge">
<title>Node24&#45;&gt;Node3</title>
<path fill="none" stroke="midnightblue" d="M591.38,-449.43C448.57,-445.34 142,-425.97 142,-335 142,-335 142,-335 142,-271.5 142,-234 142,-190.51 142,-164.01"/>
<polygon fill="midnightblue" stroke="midnightblue" points="145.5,-163.76 142,-153.76 138.5,-163.76 145.5,-163.76"/>
</g>
<!-- Node24&#45;&gt;Node5 -->
<g id="edge45" class="edge">
<title>Node24&#45;&gt;Node5</title>
<path fill="none" stroke="midnightblue" d="M734.68,-445.73C805.4,-436.67 903,-410.49 903,-335 903,-335 903,-335 903,-137.5 903,-100.2 909.86,-81.88 883,-56 859.55,-33.41 772.52,-21.06 715.77,-15.26"/>
<polygon fill="midnightblue" stroke="midnightblue" points="715.84,-11.75 705.54,-14.25 715.15,-18.72 715.84,-11.75"/>
</g>
<!-- Node24&#45;&gt;Node6 -->
<g id="edge46" class="edge">
<title>Node24&#45;&gt;Node6</title>
<path fill="none" stroke="midnightblue" d="M651.15,-436.4C643.89,-427.75 634.55,-416.64 626.93,-407.58"/>
<polygon fill="midnightblue" stroke="midnightblue" points="629.39,-405.06 620.28,-399.66 624.03,-409.57 629.39,-405.06"/>
</g>
</g>
</svg>
        <g id="navigator" transform="translate(0 0)" fill="#404254">
                <rect fill="#f2f5e9" fill-opacity="0.5" stroke="#606060" stroke-width=".5" x="0" y="0" width="60" height="60"/>
                <use id="zoomplus" xlink:href="#zoomPlus" x="17" y="9" onmousedown="handleZoom(evt,'in')"/>
                <use id="zoomminus" xlink:href="#zoomMin" x="42" y="9" onmousedown="handleZoom(evt,'out')"/>
                <use id="reset" xlink:href="#resetDef" x="30" y="36" onmousedown="handleReset()"/>
                <g id="arrowUp" xlink:href="#dirArrow" transform="translate(30 24)" onmousedown="handlePan(0,-1)">
                  <use xlink:href="#rim" fill="#404040">
                        <set attributeName="fill" to="#808080" begin="arrowUp.mouseover" end="arrowUp.mouseout"/>
                  </use>
                  <path fill="none" stroke="white" stroke-width="1.5" d="M0,-3.0v7 M-2.5,-0.5L0,-3.0L2.5,-0.5"/>
                </g>
                <g id="arrowRight" xlink:href="#dirArrow" transform="rotate(90) translate(36 -43)" onmousedown="handlePan(1,0)">
                  <use xlink:href="#rim" fill="#404040">
                        <set attributeName="fill" to="#808080" begin="arrowRight.mouseover" end="arrowRight.mouseout"/>
                  </use>
                  <path fill="none" stroke="white" stroke-width="1.5" d="M0,-3.0v7 M-2.5,-0.5L0,-3.0L2.5,-0.5"/>
                </g>
                <g id="arrowDown" xlink:href="#dirArrow" transform="rotate(180) translate(-30 -48)" onmousedown="handlePan(0,1)">
                  <use xlink:href="#rim" fill="#404040">
                        <set attributeName="fill" to="#808080" begin="arrowDown.mouseover" end="arrowDown.mouseout"/>
                  </use>
                  <path fill="none" stroke="white" stroke-width="1.5" d="M0,-3.0v7 M-2.5,-0.5L0,-3.0L2.5,-0.5"/>
                </g>
                <g id="arrowLeft" xlink:href="#dirArrow" transform="rotate(270) translate(-36 17)" onmousedown="handlePan(-1,0)">
                  <use xlink:href="#rim" fill="#404040">
                        <set attributeName="fill" to="#808080" begin="arrowLeft.mouseover" end="arrowLeft.mouseout"/>
                  </use>
                  <path fill="none" stroke="white" stroke-width="1.5" d="M0,-3.0v7 M-2.5,-0.5L0,-3.0L2.5,-0.5"/>
                </g>
        </g>
        <svg viewBox="0 0 15 15" width="100%" height="30px" preserveAspectRatio="xMaxYMin meet">
         <g id="arrow_out" transform="scale(0.3 0.3)">
          <a xlink:href="JKRAram_8h__incl_org.svg" target="_base">
           <rect id="button" ry="5" rx="5" y="6" x="6" height="38" width="38"
                fill="#f2f5e9" fill-opacity="0.5" stroke="#606060" stroke-width="1.0"/>
           <path id="arrow"
             d="M 11.500037,31.436501 C 11.940474,20.09759 22.043105,11.32322 32.158766,21.979434 L 37.068811,17.246167 C 37.068811,17.246167 37.088388,32 37.088388,32 L 22.160133,31.978069 C 22.160133,31.978069 26.997745,27.140456 26.997745,27.140456 C 18.528582,18.264221 13.291696,25.230495 11.500037,31.436501 z"
             style="fill:#404040;"/>
          </a>
         </g>
        </svg>
</svg>
