<?xml version="1.0" encoding="UTF-8" standalone="no"?>
<!DOCTYPE svg PUBLIC "-//W3C//DTD SVG 1.1//EN"
 "http://www.w3.org/Graphics/SVG/1.1/DTD/svg11.dtd">
<!-- Generated by graphviz version 2.46.0 (20210122.1329)
 -->
<!-- Title: libs/JSystem/JKernel/JKRAramPiece.cpp Pages: 1 -->
<!--zoomable 743 -->
<svg id="main" version="1.1" xmlns="http://www.w3.org/2000/svg" xmlns:xlink="http://www.w3.org/1999/xlink" xml:space="preserve" onload="init(evt)">
<style type="text/css"><![CDATA[
.edge:hover path { stroke: red; }
.edge:hover polygon { stroke: red; fill: red; }
]]></style>
<script type="text/javascript"><![CDATA[
var edges = document.getElementsByTagName('g');
if (edges && edges.length) {
  for (var i=0;i<edges.length;i++) {
    if (edges[i].id.substr(0,4)=='edge') {
      edges[i].setAttribute('class','edge');
    }
  }
}
]]></script>
        <defs>
                <circle id="rim" cx="0" cy="0" r="7"/>
                <circle id="rim2" cx="0" cy="0" r="3.5"/>
                <g id="zoomPlus">
                        <use xlink:href="#rim" fill="#404040">
                                <set attributeName="fill" to="#808080" begin="zoomplus.mouseover" end="zoomplus.mouseout"/>
                        </use>
                        <path d="M-4,0h8M0,-4v8" fill="none" stroke="white" stroke-width="1.5" pointer-events="none"/>
                </g>
                <g id="zoomMin">
                        <use xlink:href="#rim" fill="#404040">
                                <set attributeName="fill" to="#808080" begin="zoomminus.mouseover" end="zoomminus.mouseout"/>
                        </use>
                        <path d="M-4,0h8" fill="none" stroke="white" stroke-width="1.5" pointer-events="none"/>
                </g>
                <g id="dirArrow">
                        <path fill="none" stroke="white" stroke-width="1.5" d="M0,-3.0v7 M-2.5,-0.5L0,-3.0L2.5,-0.5"/>
                </g>
               <g id="resetDef">
                       <use xlink:href="#rim2" fill="#404040">
                               <set attributeName="fill" to="#808080" begin="reset.mouseover" end="reset.mouseout"/>
                       </use>
               </g>
        </defs>

<script type="text/javascript">
var viewWidth = 1234;
var viewHeight = 743;
var sectionId = 'dynsection-0';
</script>
<script xlink:href="svgpan.js"/>
<svg id="graph" class="graph">
<g id="viewport">
<title>libs/JSystem/JKernel/JKRAramPiece.cpp</title>
<polygon fill="white" stroke="transparent" points="-4,4 -4,-739 1230,-739 1230,4 -4,4"/>
<!-- Node1 -->
<g id="node1" class="node">
<title>Node1</title>
<g id="a_node1"><a xlink:title=" ">
<polygon fill="#bfbfbf" stroke="black" points="297.5,-704.5 297.5,-734.5 406.5,-734.5 406.5,-704.5 297.5,-704.5"/>
<text text-anchor="start" x="305.5" y="-722.5" font-family="Helvetica,sans-Serif" font-size="10.00">libs/JSystem/JKernel</text>
<text text-anchor="middle" x="352" y="-711.5" font-family="Helvetica,sans-Serif" font-size="10.00">/JKRAramPiece.cpp</text>
</a>
</g>
</g>
<!-- Node2 -->
<g id="node2" class="node">
<title>Node2</title>
<g id="a_node2"><a xlink:href="JKRAramPiece_8h.html" target="_top" xlink:title=" ">
<polygon fill="white" stroke="black" points="66.5,-190.5 66.5,-220.5 227.5,-220.5 227.5,-190.5 66.5,-190.5"/>
<text text-anchor="start" x="74.5" y="-208.5" font-family="Helvetica,sans-Serif" font-size="10.00">JSystem/JKernel/JKRAramPiece</text>
<text text-anchor="middle" x="147" y="-197.5" font-family="Helvetica,sans-Serif" font-size="10.00">/JKRAramPiece.h</text>
</a>
</g>
</g>
<!-- Node1&#45;&gt;Node2 -->
<g id="edge1" class="edge">
<title>Node1&#45;&gt;Node2</title>
<path fill="none" stroke="midnightblue" d="M297.33,-707.98C236.6,-692.75 147,-658.14 147,-586.5 147,-586.5 147,-586.5 147,-333 147,-297.42 147,-256.2 147,-230.74"/>
<polygon fill="midnightblue" stroke="midnightblue" points="150.5,-230.54 147,-220.54 143.5,-230.54 150.5,-230.54"/>
</g>
<!-- Node8 -->
<g id="node8" class="node">
<title>Node8</title>
<g id="a_node8"><a xlink:href="JKRAram_8h.html" target="_top" xlink:title=" ">
<polygon fill="white" stroke="black" points="511,-637.5 511,-667.5 647,-667.5 647,-637.5 511,-637.5"/>
<text text-anchor="start" x="519" y="-655.5" font-family="Helvetica,sans-Serif" font-size="10.00">JSystem/JKernel/JKRAram</text>
<text text-anchor="middle" x="579" y="-644.5" font-family="Helvetica,sans-Serif" font-size="10.00">/JKRAram.h</text>
</a>
</g>
</g>
<!-- Node1&#45;&gt;Node8 -->
<g id="edge11" class="edge">
<title>Node1&#45;&gt;Node8</title>
<path fill="none" stroke="midnightblue" d="M400.98,-704.48C435.91,-694.47 483.06,-680.97 520.06,-670.38"/>
<polygon fill="midnightblue" stroke="midnightblue" points="521.07,-673.73 529.72,-667.61 519.14,-667 521.07,-673.73"/>
</g>
<!-- Node11 -->
<g id="node11" class="node">
<title>Node11</title>
<g id="a_node11"><a xlink:href="global_8h.html" target="_top" xlink:title=" ">
<polygon fill="white" stroke="black" points="418,-380.5 418,-399.5 468,-399.5 468,-380.5 418,-380.5"/>
<text text-anchor="middle" x="443" y="-387.5" font-family="Helvetica,sans-Serif" font-size="10.00">global.h</text>
</a>
</g>
</g>
<!-- Node1&#45;&gt;Node11 -->
<g id="edge56" class="edge">
<title>Node1&#45;&gt;Node11</title>
<path fill="none" stroke="midnightblue" d="M322.08,-704.41C283.97,-684.14 223,-642.9 223,-586.5 223,-586.5 223,-586.5 223,-517.5 223,-433.37 345.4,-404.36 407.61,-395.06"/>
<polygon fill="midnightblue" stroke="midnightblue" points="408.35,-398.49 417.76,-393.63 407.37,-391.55 408.35,-398.49"/>
</g>
<!-- Node22 -->
<g id="node22" class="node">
<title>Node22</title>
<g id="a_node22"><a xlink:href="JKRDecomp_8h.html" target="_top" xlink:title=" ">
<polygon fill="white" stroke="black" points="1023.5,-503.5 1023.5,-533.5 1172.5,-533.5 1172.5,-503.5 1023.5,-503.5"/>
<text text-anchor="start" x="1031.5" y="-521.5" font-family="Helvetica,sans-Serif" font-size="10.00">JSystem/JKernel/JKRDecomp</text>
<text text-anchor="middle" x="1098" y="-510.5" font-family="Helvetica,sans-Serif" font-size="10.00">/JKRDecomp.h</text>
</a>
</g>
</g>
<!-- Node1&#45;&gt;Node22 -->
<g id="edge55" class="edge">
<title>Node1&#45;&gt;Node22</title>
<path fill="none" stroke="midnightblue" d="M406.64,-717.29C558.58,-712.79 981.33,-692.17 1079,-601 1094.46,-586.56 1098.48,-562.18 1099.07,-543.84"/>
<polygon fill="midnightblue" stroke="midnightblue" points="1102.57,-543.61 1099.08,-533.6 1095.57,-543.6 1102.57,-543.61"/>
</g>
<!-- Node3 -->
<g id="node3" class="node">
<title>Node3</title>
<g id="a_node3"><a xlink:href="JSUList_8h.html" target="_top" xlink:title=" ">
<polygon fill="white" stroke="black" points="448,-56.5 448,-86.5 584,-86.5 584,-56.5 448,-56.5"/>
<text text-anchor="start" x="456" y="-74.5" font-family="Helvetica,sans-Serif" font-size="10.00">JSystem/JSupport/JSUList</text>
<text text-anchor="middle" x="516" y="-63.5" font-family="Helvetica,sans-Serif" font-size="10.00">/JSUList.h</text>
</a>
</g>
</g>
<!-- Node2&#45;&gt;Node3 -->
<g id="edge2" class="edge">
<title>Node2&#45;&gt;Node3</title>
<path fill="none" stroke="midnightblue" d="M186.14,-190.5C253.95,-166.24 393.1,-116.46 467.14,-89.98"/>
<polygon fill="midnightblue" stroke="midnightblue" points="468.47,-93.22 476.71,-86.56 466.11,-86.63 468.47,-93.22"/>
</g>
<!-- Node4 -->
<g id="node4" class="node">
<title>Node4</title>
<g id="a_node4"><a xlink:href="types_8h.html" target="_top" xlink:title=" ">
<polygon fill="white" stroke="black" points="571.5,-0.5 571.5,-19.5 652.5,-19.5 652.5,-0.5 571.5,-0.5"/>
<text text-anchor="middle" x="612" y="-7.5" font-family="Helvetica,sans-Serif" font-size="10.00">dolphin/types.h</text>
</a>
</g>
</g>
<!-- Node2&#45;&gt;Node4 -->
<g id="edge6" class="edge">
<title>Node2&#45;&gt;Node4</title>
<path fill="none" stroke="midnightblue" d="M145.48,-190.25C143.15,-160.03 142.58,-89.54 183,-56 211.58,-32.28 453.52,-18.3 560.95,-13.21"/>
<polygon fill="midnightblue" stroke="midnightblue" points="561.4,-16.69 571.22,-12.73 561.07,-9.7 561.4,-16.69"/>
</g>
<!-- Node5 -->
<g id="node5" class="node">
<title>Node5</title>
<g id="a_node5"><a xlink:href="ARQ_8h.html" target="_top" xlink:title=" ">
<polygon fill="white" stroke="black" points="56,-129 56,-148 112,-148 112,-129 56,-129"/>
<text text-anchor="middle" x="84" y="-136" font-family="Helvetica,sans-Serif" font-size="10.00">ar/ARQ.h</text>
</a>
</g>
</g>
<!-- Node2&#45;&gt;Node5 -->
<g id="edge4" class="edge">
<title>Node2&#45;&gt;Node5</title>
<path fill="none" stroke="midnightblue" d="M133.33,-190.4C123.41,-180.16 109.97,-166.3 99.63,-155.62"/>
<polygon fill="midnightblue" stroke="midnightblue" points="101.9,-152.94 92.43,-148.19 96.87,-157.81 101.9,-152.94"/>
</g>
<!-- Node6 -->
<g id="node6" class="node">
<title>Node6</title>
<g id="a_node6"><a xlink:href="OS_8h.html" target="_top" xlink:title=" ">
<polygon fill="white" stroke="black" points="172,-129 172,-148 224,-148 224,-129 172,-129"/>
<text text-anchor="middle" x="198" y="-136" font-family="Helvetica,sans-Serif" font-size="10.00">os/OS.h</text>
</a>
</g>
</g>
<!-- Node2&#45;&gt;Node6 -->
<g id="edge7" class="edge">
<title>Node2&#45;&gt;Node6</title>
<path fill="none" stroke="midnightblue" d="M158.07,-190.4C165.94,-180.36 176.55,-166.84 184.85,-156.25"/>
<polygon fill="midnightblue" stroke="midnightblue" points="187.76,-158.22 191.18,-148.19 182.25,-153.9 187.76,-158.22"/>
</g>
<!-- Node3&#45;&gt;Node4 -->
<g id="edge3" class="edge">
<title>Node3&#45;&gt;Node4</title>
<path fill="none" stroke="midnightblue" d="M538.75,-56.4C553.99,-46.95 573.99,-34.56 589.24,-25.11"/>
<polygon fill="midnightblue" stroke="midnightblue" points="591.38,-27.9 598.03,-19.66 587.69,-21.95 591.38,-27.9"/>
</g>
<!-- Node5&#45;&gt;Node4 -->
<g id="edge5" class="edge">
<title>Node5&#45;&gt;Node4</title>
<path fill="none" stroke="midnightblue" d="M85.64,-128.78C89.37,-111.56 100.27,-73.36 126,-56 161.5,-32.05 443.97,-17.86 561.24,-12.96"/>
<polygon fill="midnightblue" stroke="midnightblue" points="561.55,-16.45 571.4,-12.54 561.26,-9.45 561.55,-16.45"/>
</g>
<!-- Node6&#45;&gt;Node4 -->
<g id="edge8" class="edge">
<title>Node6&#45;&gt;Node4</title>
<path fill="none" stroke="midnightblue" d="M194.44,-128.56C188.49,-111.95 178.85,-76.22 197,-56 220.95,-29.31 455.9,-16.99 561.29,-12.78"/>
<polygon fill="midnightblue" stroke="midnightblue" points="561.52,-16.27 571.38,-12.38 561.25,-9.28 561.52,-16.27"/>
</g>
<!-- Node7 -->
<g id="node7" class="node">
<title>Node7</title>
<g id="a_node7"><a xlink:href="dvd_8h.html" target="_top" xlink:title=" ">
<polygon fill="white" stroke="black" points="206.5,-62 206.5,-81 265.5,-81 265.5,-62 206.5,-62"/>
<text text-anchor="middle" x="236" y="-69" font-family="Helvetica,sans-Serif" font-size="10.00">dvd/dvd.h</text>
</a>
</g>
</g>
<!-- Node6&#45;&gt;Node7 -->
<g id="edge9" class="edge">
<title>Node6&#45;&gt;Node7</title>
<path fill="none" stroke="midnightblue" d="M203.12,-128.73C208.94,-118.79 218.56,-102.34 225.89,-89.79"/>
<polygon fill="midnightblue" stroke="midnightblue" points="228.93,-91.53 230.96,-81.13 222.89,-87.99 228.93,-91.53"/>
</g>
<!-- Node7&#45;&gt;Node4 -->
<g id="edge10" class="edge">
<title>Node7&#45;&gt;Node4</title>
<path fill="none" stroke="midnightblue" d="M259.52,-61.86C266.08,-59.7 273.26,-57.55 280,-56 378.32,-33.34 495.84,-20.73 561.39,-14.95"/>
<polygon fill="midnightblue" stroke="midnightblue" points="561.79,-18.43 571.45,-14.08 561.19,-11.45 561.79,-18.43"/>
</g>
<!-- Node8&#45;&gt;Node4 -->
<g id="edge53" class="edge">
<title>Node8&#45;&gt;Node4</title>
<path fill="none" stroke="midnightblue" d="M510.88,-640.18C357.82,-610.44 0,-515.09 0,-273.5 0,-273.5 0,-273.5 0,-137.5 0,-81.19 44.98,-77.56 97,-56 180.01,-21.59 448.27,-13.48 561.17,-11.58"/>
<polygon fill="midnightblue" stroke="midnightblue" points="561.34,-15.07 571.28,-11.42 561.23,-8.08 561.34,-15.07"/>
</g>
<!-- Node9 -->
<g id="node9" class="node">
<title>Node9</title>
<g id="a_node9"><a xlink:href="JKRAramHeap_8h.html" target="_top" xlink:title=" ">
<polygon fill="white" stroke="black" points="558.5,-436.5 558.5,-466.5 717.5,-466.5 717.5,-436.5 558.5,-436.5"/>
<text text-anchor="start" x="566.5" y="-454.5" font-family="Helvetica,sans-Serif" font-size="10.00">JSystem/JKernel/JKRAramHeap</text>
<text text-anchor="middle" x="638" y="-443.5" font-family="Helvetica,sans-Serif" font-size="10.00">/JKRAramHeap.h</text>
</a>
</g>
</g>
<!-- Node8&#45;&gt;Node9 -->
<g id="edge12" class="edge">
<title>Node8&#45;&gt;Node9</title>
<path fill="none" stroke="midnightblue" d="M583.24,-637.19C593.28,-603.34 618.56,-518.08 630.94,-476.31"/>
<polygon fill="midnightblue" stroke="midnightblue" points="634.31,-477.26 633.8,-466.68 627.6,-475.27 634.31,-477.26"/>
</g>
<!-- Node8&#45;&gt;Node11 -->
<g id="edge54" class="edge">
<title>Node8&#45;&gt;Node11</title>
<path fill="none" stroke="midnightblue" d="M571.69,-637.49C548.66,-593.39 477.68,-457.43 452.21,-408.65"/>
<polygon fill="midnightblue" stroke="midnightblue" points="455.23,-406.87 447.5,-399.63 449.03,-410.11 455.23,-406.87"/>
</g>
<!-- Node21 -->
<g id="node21" class="node">
<title>Node21</title>
<g id="a_node21"><a xlink:href="JKRDvdRipper_8h.html" target="_top" xlink:title=" ">
<polygon fill="white" stroke="black" points="912,-570.5 912,-600.5 1070,-600.5 1070,-570.5 912,-570.5"/>
<text text-anchor="start" x="920" y="-588.5" font-family="Helvetica,sans-Serif" font-size="10.00">JSystem/JKernel/JKRDvdRipper</text>
<text text-anchor="middle" x="991" y="-577.5" font-family="Helvetica,sans-Serif" font-size="10.00">/JKRDvdRipper.h</text>
</a>
</g>
</g>
<!-- Node8&#45;&gt;Node21 -->
<g id="edge40" class="edge">
<title>Node8&#45;&gt;Node21</title>
<path fill="none" stroke="midnightblue" d="M647.03,-640.77C716.7,-629.78 825.33,-612.64 901.84,-600.57"/>
<polygon fill="midnightblue" stroke="midnightblue" points="902.61,-603.99 911.94,-598.97 901.52,-597.07 902.61,-603.99"/>
</g>
<!-- Node25 -->
<g id="node25" class="node">
<title>Node25</title>
<g id="a_node25"><a xlink:href="JKRThread_8h.html" target="_top" xlink:title=" ">
<polygon fill="white" stroke="black" points="822.5,-436.5 822.5,-466.5 965.5,-466.5 965.5,-436.5 822.5,-436.5"/>
<text text-anchor="start" x="830.5" y="-454.5" font-family="Helvetica,sans-Serif" font-size="10.00">JSystem/JKernel/JKRThread</text>
<text text-anchor="middle" x="894" y="-443.5" font-family="Helvetica,sans-Serif" font-size="10.00">/JKRThread.h</text>
</a>
</g>
</g>
<!-- Node8&#45;&gt;Node25 -->
<g id="edge52" class="edge">
<title>Node8&#45;&gt;Node25</title>
<path fill="none" stroke="midnightblue" d="M601.65,-637.19C657.05,-602.19 799.44,-512.24 862.8,-472.21"/>
<polygon fill="midnightblue" stroke="midnightblue" points="864.97,-474.98 871.55,-466.68 861.23,-469.06 864.97,-474.98"/>
</g>
<!-- Node9&#45;&gt;Node4 -->
<g id="edge16" class="edge">
<title>Node9&#45;&gt;Node4</title>
<path fill="none" stroke="midnightblue" d="M717.65,-445.23C755.32,-439.11 798.78,-426.33 830,-400 902.22,-339.09 918,-300.98 918,-206.5 918,-206.5 918,-206.5 918,-137.5 918,-28.4 749.82,-11.54 662.82,-10.11"/>
<polygon fill="midnightblue" stroke="midnightblue" points="662.67,-6.61 652.63,-10.01 662.6,-13.61 662.67,-6.61"/>
</g>
<!-- Node10 -->
<g id="node10" class="node">
<title>Node10</title>
<g id="a_node10"><a xlink:href="JKRDisposer_8h.html" target="_top" xlink:title=" ">
<polygon fill="white" stroke="black" points="716.5,-123.5 716.5,-153.5 867.5,-153.5 867.5,-123.5 716.5,-123.5"/>
<text text-anchor="start" x="724.5" y="-141.5" font-family="Helvetica,sans-Serif" font-size="10.00">JSystem/JKernel/JKRDisposer</text>
<text text-anchor="middle" x="792" y="-130.5" font-family="Helvetica,sans-Serif" font-size="10.00">/JKRDisposer.h</text>
</a>
</g>
</g>
<!-- Node9&#45;&gt;Node10 -->
<g id="edge13" class="edge">
<title>Node9&#45;&gt;Node10</title>
<path fill="none" stroke="midnightblue" d="M717.75,-437.98C774.96,-423.93 842,-394.73 842,-335 842,-335 842,-335 842,-271.5 842,-234.31 837.13,-224.4 823,-190 819.1,-180.5 813.52,-170.72 808.17,-162.33"/>
<polygon fill="midnightblue" stroke="midnightblue" points="810.99,-160.25 802.54,-153.86 805.16,-164.12 810.99,-160.25"/>
</g>
<!-- Node9&#45;&gt;Node11 -->
<g id="edge17" class="edge">
<title>Node9&#45;&gt;Node11</title>
<path fill="none" stroke="midnightblue" d="M591.79,-436.4C556.83,-425.73 509.57,-411.31 477.78,-401.61"/>
<polygon fill="midnightblue" stroke="midnightblue" points="478.62,-398.21 468.03,-398.64 476.57,-404.9 478.62,-398.21"/>
</g>
<!-- Node10&#45;&gt;Node3 -->
<g id="edge14" class="edge">
<title>Node10&#45;&gt;Node3</title>
<path fill="none" stroke="midnightblue" d="M732.45,-123.48C689.34,-113.32 630.94,-99.57 585.66,-88.91"/>
<polygon fill="midnightblue" stroke="midnightblue" points="586.45,-85.5 575.92,-86.61 584.85,-92.31 586.45,-85.5"/>
</g>
<!-- Node10&#45;&gt;Node4 -->
<g id="edge15" class="edge">
<title>Node10&#45;&gt;Node4</title>
<path fill="none" stroke="midnightblue" d="M778.66,-123.24C761.92,-105.87 731.75,-76.35 702,-56 683.26,-43.19 660.36,-31.79 642.35,-23.67"/>
<polygon fill="midnightblue" stroke="midnightblue" points="643.46,-20.34 632.9,-19.51 640.64,-26.74 643.46,-20.34"/>
</g>
<!-- Node11&#45;&gt;Node4 -->
<g id="edge18" class="edge">
<title>Node11&#45;&gt;Node4</title>
<path fill="none" stroke="midnightblue" d="M425.76,-380.45C397.76,-365.65 342.63,-332.49 314,-288 293.82,-256.64 294,-243.8 294,-206.5 294,-206.5 294,-206.5 294,-137.5 294,-97.34 300.84,-80.05 333,-56 368.25,-29.64 491.14,-18.12 561.51,-13.59"/>
<polygon fill="midnightblue" stroke="midnightblue" points="561.73,-17.09 571.49,-12.98 561.29,-10.1 561.73,-17.09"/>
</g>
<!-- Node11&#45;&gt;Node5 -->
<g id="edge21" class="edge">
<title>Node11&#45;&gt;Node5</title>
<path fill="none" stroke="midnightblue" d="M417.84,-387.71C344.56,-382.38 131.76,-355.46 57,-221 45.39,-200.12 58.91,-173.43 70.64,-156.39"/>
<polygon fill="midnightblue" stroke="midnightblue" points="73.69,-158.15 76.8,-148.02 68.05,-154 73.69,-158.15"/>
</g>
<!-- Node11&#45;&gt;Node6 -->
<g id="edge23" class="edge">
<title>Node11&#45;&gt;Node6</title>
<path fill="none" stroke="midnightblue" d="M417.74,-389.72C381.02,-389.33 313.16,-382.92 275,-344 225.65,-293.66 267.65,-253.49 237,-190 230.95,-177.47 221.46,-165.09 213.35,-155.72"/>
<polygon fill="midnightblue" stroke="midnightblue" points="215.72,-153.13 206.43,-148.04 210.52,-157.81 215.72,-153.13"/>
</g>
<!-- Node12 -->
<g id="node12" class="node">
<title>Node12</title>
<g id="a_node12"><a xlink:href="AR_8h.html" target="_top" xlink:title=" ">
<polygon fill="white" stroke="black" points="322.5,-263 322.5,-282 371.5,-282 371.5,-263 322.5,-263"/>
<text text-anchor="middle" x="347" y="-270" font-family="Helvetica,sans-Serif" font-size="10.00">ar/AR.h</text>
</a>
</g>
</g>
<!-- Node11&#45;&gt;Node12 -->
<g id="edge19" class="edge">
<title>Node11&#45;&gt;Node12</title>
<path fill="none" stroke="midnightblue" d="M435.78,-380.32C419.87,-361.17 381.53,-315.04 360.82,-290.13"/>
<polygon fill="midnightblue" stroke="midnightblue" points="363.38,-287.74 354.3,-282.28 358,-292.21 363.38,-287.74"/>
</g>
<!-- Node13 -->
<g id="node13" class="node">
<title>Node13</title>
<g id="a_node13"><a xlink:href="mwcc_8h.html" target="_top" xlink:title=" ">
<polygon fill="white" stroke="black" points="284,-324.5 284,-343.5 334,-343.5 334,-324.5 284,-324.5"/>
<text text-anchor="middle" x="309" y="-331.5" font-family="Helvetica,sans-Serif" font-size="10.00">mwcc.h</text>
</a>
</g>
</g>
<!-- Node11&#45;&gt;Node13 -->
<g id="edge22" class="edge">
<title>Node11&#45;&gt;Node13</title>
<path fill="none" stroke="midnightblue" d="M421.77,-380.44C399.62,-371.52 364.68,-357.44 339.56,-347.32"/>
<polygon fill="midnightblue" stroke="midnightblue" points="340.72,-344.01 330.13,-343.52 338.1,-350.5 340.72,-344.01"/>
</g>
<!-- Node14 -->
<g id="node14" class="node">
<title>Node14</title>
<g id="a_node14"><a xlink:href="variables_8h.html" target="_top" xlink:title=" ">
<polygon fill="white" stroke="black" points="553.5,-324.5 553.5,-343.5 616.5,-343.5 616.5,-324.5 553.5,-324.5"/>
<text text-anchor="middle" x="585" y="-331.5" font-family="Helvetica,sans-Serif" font-size="10.00">variables.h</text>
</a>
</g>
</g>
<!-- Node11&#45;&gt;Node14 -->
<g id="edge24" class="edge">
<title>Node11&#45;&gt;Node14</title>
<path fill="none" stroke="midnightblue" d="M465.5,-380.44C489.08,-371.48 526.32,-357.31 552.96,-347.18"/>
<polygon fill="midnightblue" stroke="midnightblue" points="554.5,-350.34 562.6,-343.52 552.01,-343.8 554.5,-350.34"/>
</g>
<!-- Node12&#45;&gt;Node4 -->
<g id="edge20" class="edge">
<title>Node12&#45;&gt;Node4</title>
<path fill="none" stroke="midnightblue" d="M343.98,-262.72C333.51,-230.5 302.22,-117.41 356,-56 382.25,-26.03 494.05,-16 560.92,-12.65"/>
<polygon fill="midnightblue" stroke="midnightblue" points="561.42,-16.13 571.25,-12.17 561.1,-9.14 561.42,-16.13"/>
</g>
<!-- Node14&#45;&gt;Node3 -->
<g id="edge25" class="edge">
<title>Node14&#45;&gt;Node3</title>
<path fill="none" stroke="midnightblue" d="M582.7,-324.33C573.24,-288.59 537.03,-151.88 522.29,-96.25"/>
<polygon fill="midnightblue" stroke="midnightblue" points="525.67,-95.33 519.72,-86.56 518.9,-97.12 525.67,-95.33"/>
</g>
<!-- Node15 -->
<g id="node15" class="node">
<title>Node15</title>
<g id="a_node15"><a xlink:href="JUTXfb_8h.html" target="_top" xlink:title=" ">
<polygon fill="white" stroke="black" points="591.5,-257.5 591.5,-287.5 716.5,-287.5 716.5,-257.5 591.5,-257.5"/>
<text text-anchor="start" x="599.5" y="-275.5" font-family="Helvetica,sans-Serif" font-size="10.00">JSystem/JUtility/JUTXfb</text>
<text text-anchor="middle" x="654" y="-264.5" font-family="Helvetica,sans-Serif" font-size="10.00">/JUTXfb.h</text>
</a>
</g>
</g>
<!-- Node14&#45;&gt;Node15 -->
<g id="edge26" class="edge">
<title>Node14&#45;&gt;Node15</title>
<path fill="none" stroke="midnightblue" d="M594.89,-324.48C604.06,-316.57 618.07,-304.48 630.15,-294.07"/>
<polygon fill="midnightblue" stroke="midnightblue" points="632.45,-296.7 637.74,-287.52 627.88,-291.4 632.45,-296.7"/>
</g>
<!-- Node18 -->
<g id="node18" class="node">
<title>Node18</title>
<g id="a_node18"><a xlink:href="c__xyz_8h.html" target="_top" xlink:title=" ">
<polygon fill="white" stroke="black" points="389.5,-263 389.5,-282 496.5,-282 496.5,-263 389.5,-263"/>
<text text-anchor="middle" x="443" y="-270" font-family="Helvetica,sans-Serif" font-size="10.00">SComponent/c_xyz.h</text>
</a>
</g>
</g>
<!-- Node14&#45;&gt;Node18 -->
<g id="edge34" class="edge">
<title>Node14&#45;&gt;Node18</title>
<path fill="none" stroke="midnightblue" d="M564.65,-324.48C540.61,-314.4 500.4,-297.55 472.84,-286"/>
<polygon fill="midnightblue" stroke="midnightblue" points="473.88,-282.65 463.31,-282.01 471.18,-289.1 473.88,-282.65"/>
</g>
<!-- Node15&#45;&gt;Node4 -->
<g id="edge31" class="edge">
<title>Node15&#45;&gt;Node4</title>
<path fill="none" stroke="midnightblue" d="M652.06,-257.34C647.28,-222.84 634.35,-131.66 621,-56 619.46,-47.26 617.55,-37.61 615.9,-29.49"/>
<polygon fill="midnightblue" stroke="midnightblue" points="619.3,-28.68 613.84,-19.6 612.45,-30.11 619.3,-28.68"/>
</g>
<!-- Node16 -->
<g id="node16" class="node">
<title>Node16</title>
<g id="a_node16"><a xlink:href="JKRHeap_8h.html" target="_top" xlink:title=" ">
<polygon fill="white" stroke="black" points="678,-190.5 678,-220.5 814,-220.5 814,-190.5 678,-190.5"/>
<text text-anchor="start" x="686" y="-208.5" font-family="Helvetica,sans-Serif" font-size="10.00">JSystem/JKernel/JKRHeap</text>
<text text-anchor="middle" x="746" y="-197.5" font-family="Helvetica,sans-Serif" font-size="10.00">/JKRHeap.h</text>
</a>
</g>
</g>
<!-- Node15&#45;&gt;Node16 -->
<g id="edge27" class="edge">
<title>Node15&#45;&gt;Node16</title>
<path fill="none" stroke="midnightblue" d="M673.96,-257.4C686.74,-248.37 703.52,-236.51 717.67,-226.52"/>
<polygon fill="midnightblue" stroke="midnightblue" points="719.93,-229.21 726.08,-220.58 715.89,-223.49 719.93,-229.21"/>
</g>
<!-- Node17 -->
<g id="node17" class="node">
<title>Node17</title>
<g id="a_node17"><a xlink:href="GX_8h.html" target="_top" xlink:title=" ">
<polygon fill="white" stroke="black" points="570.5,-196 570.5,-215 621.5,-215 621.5,-196 570.5,-196"/>
<text text-anchor="middle" x="596" y="-203" font-family="Helvetica,sans-Serif" font-size="10.00">gx/GX.h</text>
</a>
</g>
</g>
<!-- Node15&#45;&gt;Node17 -->
<g id="edge32" class="edge">
<title>Node15&#45;&gt;Node17</title>
<path fill="none" stroke="midnightblue" d="M641.41,-257.4C632.37,-247.26 620.15,-233.57 610.67,-222.94"/>
<polygon fill="midnightblue" stroke="midnightblue" points="613.03,-220.33 603.76,-215.19 607.8,-224.99 613.03,-220.33"/>
</g>
<!-- Node16&#45;&gt;Node4 -->
<g id="edge29" class="edge">
<title>Node16&#45;&gt;Node4</title>
<path fill="none" stroke="midnightblue" d="M733.78,-190.08C725.84,-180.3 715.59,-166.85 708,-154 683.72,-112.89 692.5,-94.3 664,-56 655.43,-44.48 643.42,-33.85 633.11,-25.81"/>
<polygon fill="midnightblue" stroke="midnightblue" points="635.06,-22.9 624.96,-19.71 630.87,-28.51 635.06,-22.9"/>
</g>
<!-- Node16&#45;&gt;Node10 -->
<g id="edge28" class="edge">
<title>Node16&#45;&gt;Node10</title>
<path fill="none" stroke="midnightblue" d="M755.98,-190.4C761.89,-182.05 769.5,-171.29 776.21,-161.81"/>
<polygon fill="midnightblue" stroke="midnightblue" points="779.12,-163.76 782.04,-153.58 773.4,-159.72 779.12,-163.76"/>
</g>
<!-- Node16&#45;&gt;Node11 -->
<g id="edge30" class="edge">
<title>Node16&#45;&gt;Node11</title>
<path fill="none" stroke="midnightblue" d="M745.85,-220.62C744.99,-238.12 741.17,-268.06 726,-288 666.12,-366.68 539.78,-384.22 478.21,-388.02"/>
<polygon fill="midnightblue" stroke="midnightblue" points="478.01,-384.53 468.21,-388.55 478.38,-391.52 478.01,-384.53"/>
</g>
<!-- Node17&#45;&gt;Node4 -->
<g id="edge33" class="edge">
<title>Node17&#45;&gt;Node4</title>
<path fill="none" stroke="midnightblue" d="M596.71,-195.94C599.12,-166.79 607.04,-70.97 610.43,-29.93"/>
<polygon fill="midnightblue" stroke="midnightblue" points="613.93,-30.16 611.26,-19.91 606.95,-29.58 613.93,-30.16"/>
</g>
<!-- Node18&#45;&gt;Node11 -->
<g id="edge37" class="edge">
<title>Node18&#45;&gt;Node11</title>
<path fill="none" stroke="midnightblue" d="M443,-282.28C443,-300.94 443,-344.87 443,-370.16"/>
<polygon fill="midnightblue" stroke="midnightblue" points="439.5,-370.32 443,-380.32 446.5,-370.32 439.5,-370.32"/>
</g>
<!-- Node19 -->
<g id="node19" class="node">
<title>Node19</title>
<g id="a_node19"><a xlink:href="c__math_8h.html" target="_top" xlink:title=" ">
<polygon fill="white" stroke="black" points="398,-196 398,-215 514,-215 514,-196 398,-196"/>
<text text-anchor="middle" x="456" y="-203" font-family="Helvetica,sans-Serif" font-size="10.00">SComponent/c_math.h</text>
</a>
</g>
</g>
<!-- Node18&#45;&gt;Node19 -->
<g id="edge35" class="edge">
<title>Node18&#45;&gt;Node19</title>
<path fill="none" stroke="midnightblue" d="M444.75,-262.73C446.66,-253.18 449.78,-237.62 452.24,-225.28"/>
<polygon fill="midnightblue" stroke="midnightblue" points="455.75,-225.62 454.27,-215.13 448.88,-224.25 455.75,-225.62"/>
</g>
<!-- Node20 -->
<g id="node20" class="node">
<title>Node20</title>
<g id="a_node20"><a xlink:href="mtx__vec_8h.html" target="_top" xlink:title=" ">
<polygon fill="white" stroke="black" points="364.5,-62 364.5,-81 425.5,-81 425.5,-62 364.5,-62"/>
<text text-anchor="middle" x="395" y="-69" font-family="Helvetica,sans-Serif" font-size="10.00">mtx_vec.h</text>
</a>
</g>
</g>
<!-- Node18&#45;&gt;Node20 -->
<g id="edge38" class="edge">
<title>Node18&#45;&gt;Node20</title>
<path fill="none" stroke="midnightblue" d="M428.62,-262.98C415.52,-254.29 397.02,-239.49 389,-221 370.14,-177.54 381.42,-120.02 389.31,-90.97"/>
<polygon fill="midnightblue" stroke="midnightblue" points="392.78,-91.59 392.19,-81.01 386.05,-89.64 392.78,-91.59"/>
</g>
<!-- Node19&#45;&gt;Node11 -->
<g id="edge36" class="edge">
<title>Node19&#45;&gt;Node11</title>
<path fill="none" stroke="midnightblue" d="M469.11,-215.11C481.28,-223.96 498.58,-238.97 506,-257 511.24,-269.74 509.79,-274.75 506,-288 496.53,-321.08 472.73,-353.85 457.24,-372.73"/>
<polygon fill="midnightblue" stroke="midnightblue" points="454.57,-370.47 450.8,-380.37 459.92,-374.98 454.57,-370.47"/>
</g>
<!-- Node20&#45;&gt;Node4 -->
<g id="edge39" class="edge">
<title>Node20&#45;&gt;Node4</title>
<path fill="none" stroke="midnightblue" d="M420.04,-61.94C426.22,-59.92 432.83,-57.82 439,-56 481.95,-43.35 531.43,-30.67 566.44,-22.01"/>
<polygon fill="midnightblue" stroke="midnightblue" points="567.49,-25.35 576.37,-19.56 565.82,-18.56 567.49,-25.35"/>
</g>
<!-- Node21&#45;&gt;Node4 -->
<g id="edge51" class="edge">
<title>Node21&#45;&gt;Node4</title>
<path fill="none" stroke="midnightblue" d="M991.54,-570.24C992.4,-546.04 994,-495.37 994,-452.5 994,-452.5 994,-452.5 994,-137.5 994,-92.52 972.64,-79.03 934,-56 889.28,-29.34 741.82,-17.74 662.9,-13.33"/>
<polygon fill="midnightblue" stroke="midnightblue" points="662.87,-9.83 652.7,-12.78 662.49,-16.82 662.87,-9.83"/>
</g>
<!-- Node21&#45;&gt;Node22 -->
<g id="edge41" class="edge">
<title>Node21&#45;&gt;Node22</title>
<path fill="none" stroke="midnightblue" d="M1014.22,-570.4C1029.36,-561.2 1049.33,-549.07 1065.97,-538.95"/>
<polygon fill="midnightblue" stroke="midnightblue" points="1068.1,-541.76 1074.83,-533.58 1064.46,-535.78 1068.1,-541.76"/>
</g>
<!-- Node22&#45;&gt;Node4 -->
<g id="edge50" class="edge">
<title>Node22&#45;&gt;Node4</title>
<path fill="none" stroke="midnightblue" d="M1129.31,-503.44C1167.21,-484.04 1226,-445.21 1226,-391 1226,-391 1226,-391 1226,-137.5 1226,-94.05 1209.43,-78.08 1172,-56 1128.75,-30.49 792.74,-16.9 662.94,-12.56"/>
<polygon fill="midnightblue" stroke="midnightblue" points="662.96,-9.06 652.85,-12.23 662.73,-16.06 662.96,-9.06"/>
</g>
<!-- Node23 -->
<g id="node23" class="node">
<title>Node23</title>
<g id="a_node23"><a xlink:href="JKRCompression_8h.html" target="_top" xlink:title=" ">
<polygon fill="white" stroke="black" points="1021.5,-129 1021.5,-148 1198.5,-148 1198.5,-129 1021.5,-129"/>
<text text-anchor="middle" x="1110" y="-136" font-family="Helvetica,sans-Serif" font-size="10.00">JSystem/JKernel/JKRCompression.h</text>
</a>
</g>
</g>
<!-- Node22&#45;&gt;Node23 -->
<g id="edge42" class="edge">
<title>Node22&#45;&gt;Node23</title>
<path fill="none" stroke="midnightblue" d="M1098.92,-503.47C1100.36,-480.14 1103,-431.88 1103,-391 1103,-391 1103,-391 1103,-271.5 1103,-231.1 1106.31,-183.84 1108.38,-158.27"/>
<polygon fill="midnightblue" stroke="midnightblue" points="1111.88,-158.4 1109.22,-148.14 1104.9,-157.81 1111.88,-158.4"/>
</g>
<!-- Node22&#45;&gt;Node25 -->
<g id="edge46" class="edge">
<title>Node22&#45;&gt;Node25</title>
<path fill="none" stroke="midnightblue" d="M1053.99,-503.48C1022.86,-493.56 980.94,-480.2 947.82,-469.65"/>
<polygon fill="midnightblue" stroke="midnightblue" points="948.88,-466.31 938.29,-466.61 946.75,-472.98 948.88,-466.31"/>
</g>
<!-- Node23&#45;&gt;Node4 -->
<g id="edge45" class="edge">
<title>Node23&#45;&gt;Node4</title>
<path fill="none" stroke="midnightblue" d="M1121.27,-128.8C1140.57,-112.9 1175.91,-78.71 1155,-56 1122.09,-20.25 792.2,-12.9 663.26,-11.39"/>
<polygon fill="midnightblue" stroke="midnightblue" points="662.91,-7.89 652.87,-11.28 662.84,-14.88 662.91,-7.89"/>
</g>
<!-- Node24 -->
<g id="node24" class="node">
<title>Node24</title>
<g id="a_node24"><a xlink:href="SArc_8h.html" target="_top" xlink:title=" ">
<polygon fill="white" stroke="black" points="1022.5,-62 1022.5,-81 1145.5,-81 1145.5,-62 1022.5,-62"/>
<text text-anchor="middle" x="1084" y="-69" font-family="Helvetica,sans-Serif" font-size="10.00">JSystem/JKernel/SArc.h</text>
</a>
</g>
</g>
<!-- Node23&#45;&gt;Node24 -->
<g id="edge43" class="edge">
<title>Node23&#45;&gt;Node24</title>
<path fill="none" stroke="midnightblue" d="M1106.49,-128.73C1102.6,-118.99 1096.19,-102.98 1091.21,-90.53"/>
<polygon fill="midnightblue" stroke="midnightblue" points="1094.41,-89.11 1087.45,-81.13 1087.92,-91.71 1094.41,-89.11"/>
</g>
<!-- Node24&#45;&gt;Node4 -->
<g id="edge44" class="edge">
<title>Node24&#45;&gt;Node4</title>
<path fill="none" stroke="midnightblue" d="M1042.28,-61.96C1031.17,-59.84 1019.16,-57.7 1008,-56 884.52,-37.23 738.29,-22.56 662.78,-15.54"/>
<polygon fill="midnightblue" stroke="midnightblue" points="662.89,-12.03 652.61,-14.6 662.24,-19 662.89,-12.03"/>
</g>
<!-- Node25&#45;&gt;Node4 -->
<g id="edge48" class="edge">
<title>Node25&#45;&gt;Node4</title>
<path fill="none" stroke="midnightblue" d="M907.45,-436.49C925.69,-415.97 956,-375.74 956,-335 956,-335 956,-335 956,-137.5 956,-93.8 937.89,-79.43 901,-56 862.39,-31.48 735.02,-19.19 662.92,-14.05"/>
<polygon fill="midnightblue" stroke="midnightblue" points="662.92,-10.55 652.7,-13.35 662.44,-17.53 662.92,-10.55"/>
</g>
<!-- Node25&#45;&gt;Node10 -->
<g id="edge47" class="edge">
<title>Node25&#45;&gt;Node10</title>
<path fill="none" stroke="midnightblue" d="M895.41,-436.34C898.82,-395.16 904.01,-273.11 856,-190 848.95,-177.79 837.69,-167.44 826.58,-159.34"/>
<polygon fill="midnightblue" stroke="midnightblue" points="828.4,-156.35 818.17,-153.6 824.46,-162.13 828.4,-156.35"/>
</g>
<!-- Node25&#45;&gt;Node11 -->
<g id="edge49" class="edge">
<title>Node25&#45;&gt;Node11</title>
<path fill="none" stroke="midnightblue" d="M822.04,-441.01C723.91,-428.06 551.9,-405.37 478.17,-395.64"/>
<polygon fill="midnightblue" stroke="midnightblue" points="478.4,-392.14 468.03,-394.3 477.48,-399.08 478.4,-392.14"/>
</g>
</g>
</svg>
        <g id="navigator" transform="translate(0 0)" fill="#404254">
                <rect fill="#f2f5e9" fill-opacity="0.5" stroke="#606060" stroke-width=".5" x="0" y="0" width="60" height="60"/>
                <use id="zoomplus" xlink:href="#zoomPlus" x="17" y="9" onmousedown="handleZoom(evt,'in')"/>
                <use id="zoomminus" xlink:href="#zoomMin" x="42" y="9" onmousedown="handleZoom(evt,'out')"/>
                <use id="reset" xlink:href="#resetDef" x="30" y="36" onmousedown="handleReset()"/>
                <g id="arrowUp" xlink:href="#dirArrow" transform="translate(30 24)" onmousedown="handlePan(0,-1)">
                  <use xlink:href="#rim" fill="#404040">
                        <set attributeName="fill" to="#808080" begin="arrowUp.mouseover" end="arrowUp.mouseout"/>
                  </use>
                  <path fill="none" stroke="white" stroke-width="1.5" d="M0,-3.0v7 M-2.5,-0.5L0,-3.0L2.5,-0.5"/>
                </g>
                <g id="arrowRight" xlink:href="#dirArrow" transform="rotate(90) translate(36 -43)" onmousedown="handlePan(1,0)">
                  <use xlink:href="#rim" fill="#404040">
                        <set attributeName="fill" to="#808080" begin="arrowRight.mouseover" end="arrowRight.mouseout"/>
                  </use>
                  <path fill="none" stroke="white" stroke-width="1.5" d="M0,-3.0v7 M-2.5,-0.5L0,-3.0L2.5,-0.5"/>
                </g>
                <g id="arrowDown" xlink:href="#dirArrow" transform="rotate(180) translate(-30 -48)" onmousedown="handlePan(0,1)">
                  <use xlink:href="#rim" fill="#404040">
                        <set attributeName="fill" to="#808080" begin="arrowDown.mouseover" end="arrowDown.mouseout"/>
                  </use>
                  <path fill="none" stroke="white" stroke-width="1.5" d="M0,-3.0v7 M-2.5,-0.5L0,-3.0L2.5,-0.5"/>
                </g>
                <g id="arrowLeft" xlink:href="#dirArrow" transform="rotate(270) translate(-36 17)" onmousedown="handlePan(-1,0)">
                  <use xlink:href="#rim" fill="#404040">
                        <set attributeName="fill" to="#808080" begin="arrowLeft.mouseover" end="arrowLeft.mouseout"/>
                  </use>
                  <path fill="none" stroke="white" stroke-width="1.5" d="M0,-3.0v7 M-2.5,-0.5L0,-3.0L2.5,-0.5"/>
                </g>
        </g>
        <svg viewBox="0 0 15 15" width="100%" height="30px" preserveAspectRatio="xMaxYMin meet">
         <g id="arrow_out" transform="scale(0.3 0.3)">
          <a xlink:href="JKRAramPiece_8cpp__incl_org.svg" target="_base">
           <rect id="button" ry="5" rx="5" y="6" x="6" height="38" width="38"
                fill="#f2f5e9" fill-opacity="0.5" stroke="#606060" stroke-width="1.0"/>
           <path id="arrow"
             d="M 11.500037,31.436501 C 11.940474,20.09759 22.043105,11.32322 32.158766,21.979434 L 37.068811,17.246167 C 37.068811,17.246167 37.088388,32 37.088388,32 L 22.160133,31.978069 C 22.160133,31.978069 26.997745,27.140456 26.997745,27.140456 C 18.528582,18.264221 13.291696,25.230495 11.500037,31.436501 z"
             style="fill:#404040;"/>
          </a>
         </g>
        </svg>
</svg>
