<?xml version="1.0" encoding="UTF-8" standalone="no"?>
<!DOCTYPE svg PUBLIC "-//W3C//DTD SVG 1.1//EN"
 "http://www.w3.org/Graphics/SVG/1.1/DTD/svg11.dtd">
<!-- Generated by graphviz version 2.46.0 (20210122.1329)
 -->
<!-- Title: include/JSystem/JKernel/JKRArchive/JKRArchive.h Pages: 1 -->
<svg width="1124pt" height="609pt"
 viewBox="0.00 0.00 1123.50 609.00" xmlns="http://www.w3.org/2000/svg" xmlns:xlink="http://www.w3.org/1999/xlink">
<g id="graph0" class="graph" transform="scale(1 1) rotate(0) translate(4 605)">
<title>include/JSystem/JKernel/JKRArchive/JKRArchive.h</title>
<polygon fill="white" stroke="transparent" points="-4,4 -4,-605 1119.5,-605 1119.5,4 -4,4"/>
<!-- Node1 -->
<g id="node1" class="node">
<title>Node1</title>
<g id="a_node1"><a xlink:title=" ">
<polygon fill="#bfbfbf" stroke="black" points="730,-570.5 730,-600.5 864,-600.5 864,-570.5 730,-570.5"/>
<text text-anchor="start" x="738" y="-588.5" font-family="Helvetica,sans-Serif" font-size="10.00">include/JSystem/JKernel</text>
<text text-anchor="middle" x="797" y="-577.5" font-family="Helvetica,sans-Serif" font-size="10.00">/JKRArchive/JKRArchive.h</text>
</a>
</g>
</g>
<!-- Node2 -->
<g id="node2" class="node">
<title>Node2</title>
<g id="a_node2"><a xlink:href="JKRDecomp_8h.html" target="_top" xlink:title=" ">
<polygon fill="white" stroke="black" points="671.5,-503.5 671.5,-533.5 820.5,-533.5 820.5,-503.5 671.5,-503.5"/>
<text text-anchor="start" x="679.5" y="-521.5" font-family="Helvetica,sans-Serif" font-size="10.00">JSystem/JKernel/JKRDecomp</text>
<text text-anchor="middle" x="746" y="-510.5" font-family="Helvetica,sans-Serif" font-size="10.00">/JKRDecomp.h</text>
</a>
</g>
</g>
<!-- Node1&#45;&gt;Node2 -->
<g id="edge1" class="edge">
<title>Node1&#45;&gt;Node2</title>
<path fill="none" stroke="midnightblue" d="M785.93,-570.4C779.32,-561.96 770.77,-551.07 763.28,-541.52"/>
<polygon fill="midnightblue" stroke="midnightblue" points="765.97,-539.28 757.04,-533.58 760.46,-543.6 765.97,-539.28"/>
</g>
<!-- Node4 -->
<g id="node4" class="node">
<title>Node4</title>
<g id="a_node4"><a xlink:href="SArc_8h.html" target="_top" xlink:title=" ">
<polygon fill="white" stroke="black" points="992.5,-380.5 992.5,-399.5 1115.5,-399.5 1115.5,-380.5 992.5,-380.5"/>
<text text-anchor="middle" x="1054" y="-387.5" font-family="Helvetica,sans-Serif" font-size="10.00">JSystem/JKernel/SArc.h</text>
</a>
</g>
</g>
<!-- Node1&#45;&gt;Node4 -->
<g id="edge43" class="edge">
<title>Node1&#45;&gt;Node4</title>
<path fill="none" stroke="midnightblue" d="M864.16,-575.31C927.09,-562.75 1017.76,-533.58 1061,-467 1072.13,-449.86 1067.31,-425.79 1061.72,-409.36"/>
<polygon fill="midnightblue" stroke="midnightblue" points="1064.91,-407.92 1058.09,-399.82 1058.37,-410.41 1064.91,-407.92"/>
</g>
<!-- Node5 -->
<g id="node5" class="node">
<title>Node5</title>
<g id="a_node5"><a xlink:href="types_8h.html" target="_top" xlink:title=" ">
<polygon fill="white" stroke="black" points="392.5,-0.5 392.5,-19.5 473.5,-19.5 473.5,-0.5 392.5,-0.5"/>
<text text-anchor="middle" x="433" y="-7.5" font-family="Helvetica,sans-Serif" font-size="10.00">dolphin/types.h</text>
</a>
</g>
</g>
<!-- Node1&#45;&gt;Node5 -->
<g id="edge44" class="edge">
<title>Node1&#45;&gt;Node5</title>
<path fill="none" stroke="midnightblue" d="M729.74,-580.42C537.59,-567.89 0,-526.22 0,-452.5 0,-452.5 0,-452.5 0,-137.5 0,-94.53 15.6,-78.83 52,-56 105.92,-22.18 291.71,-13.77 382.4,-11.69"/>
<polygon fill="midnightblue" stroke="midnightblue" points="382.52,-15.19 392.45,-11.47 382.37,-8.19 382.52,-15.19"/>
</g>
<!-- Node22 -->
<g id="node22" class="node">
<title>Node22</title>
<g id="a_node22"><a xlink:href="JKRFileLoader_8h.html" target="_top" xlink:title=" ">
<polygon fill="white" stroke="black" points="778,-190.5 778,-220.5 936,-220.5 936,-190.5 778,-190.5"/>
<text text-anchor="start" x="786" y="-208.5" font-family="Helvetica,sans-Serif" font-size="10.00">JSystem/JKernel/JKRFileLoader</text>
<text text-anchor="middle" x="857" y="-197.5" font-family="Helvetica,sans-Serif" font-size="10.00">/JKRFileLoader.h</text>
</a>
</g>
</g>
<!-- Node1&#45;&gt;Node22 -->
<g id="edge40" class="edge">
<title>Node1&#45;&gt;Node22</title>
<path fill="none" stroke="midnightblue" d="M807.9,-570.2C814.85,-560.46 823.54,-547.02 829,-534 843.38,-499.7 848,-489.69 848,-452.5 848,-452.5 848,-452.5 848,-333 848,-297.33 851.61,-256.14 854.25,-230.7"/>
<polygon fill="midnightblue" stroke="midnightblue" points="857.76,-230.83 855.35,-220.52 850.8,-230.08 857.76,-230.83"/>
</g>
<!-- Node3 -->
<g id="node3" class="node">
<title>Node3</title>
<g id="a_node3"><a xlink:href="JKRCompression_8h.html" target="_top" xlink:title=" ">
<polygon fill="white" stroke="black" points="875.5,-442 875.5,-461 1052.5,-461 1052.5,-442 875.5,-442"/>
<text text-anchor="middle" x="964" y="-449" font-family="Helvetica,sans-Serif" font-size="10.00">JSystem/JKernel/JKRCompression.h</text>
</a>
</g>
</g>
<!-- Node2&#45;&gt;Node3 -->
<g id="edge2" class="edge">
<title>Node2&#45;&gt;Node3</title>
<path fill="none" stroke="midnightblue" d="M793.03,-503.48C832.62,-491.67 888.54,-475 925.5,-463.98"/>
<polygon fill="midnightblue" stroke="midnightblue" points="926.81,-467.24 935.4,-461.03 924.81,-460.53 926.81,-467.24"/>
</g>
<!-- Node2&#45;&gt;Node5 -->
<g id="edge39" class="edge">
<title>Node2&#45;&gt;Node5</title>
<path fill="none" stroke="midnightblue" d="M746.73,-503.47C747.89,-480.13 750,-431.87 750,-391 750,-391 750,-391 750,-271.5 750,-174.74 794.73,-116.23 719,-56 683.52,-27.78 556.05,-16.99 483.84,-13.07"/>
<polygon fill="midnightblue" stroke="midnightblue" points="483.77,-9.57 473.6,-12.54 483.41,-16.56 483.77,-9.57"/>
</g>
<!-- Node6 -->
<g id="node6" class="node">
<title>Node6</title>
<g id="a_node6"><a xlink:href="JKRThread_8h.html" target="_top" xlink:title=" ">
<polygon fill="white" stroke="black" points="423.5,-436.5 423.5,-466.5 566.5,-466.5 566.5,-436.5 423.5,-436.5"/>
<text text-anchor="start" x="431.5" y="-454.5" font-family="Helvetica,sans-Serif" font-size="10.00">JSystem/JKernel/JKRThread</text>
<text text-anchor="middle" x="495" y="-443.5" font-family="Helvetica,sans-Serif" font-size="10.00">/JKRThread.h</text>
</a>
</g>
</g>
<!-- Node2&#45;&gt;Node6 -->
<g id="edge6" class="edge">
<title>Node2&#45;&gt;Node6</title>
<path fill="none" stroke="midnightblue" d="M691.85,-503.48C652.97,-493.41 600.42,-479.8 559.39,-469.17"/>
<polygon fill="midnightblue" stroke="midnightblue" points="560.05,-465.73 549.49,-466.61 558.29,-472.51 560.05,-465.73"/>
</g>
<!-- Node3&#45;&gt;Node4 -->
<g id="edge3" class="edge">
<title>Node3&#45;&gt;Node4</title>
<path fill="none" stroke="midnightblue" d="M976.89,-441.98C991.46,-432.34 1015.4,-416.52 1032.75,-405.05"/>
<polygon fill="midnightblue" stroke="midnightblue" points="1034.72,-407.94 1041.13,-399.51 1030.86,-402.1 1034.72,-407.94"/>
</g>
<!-- Node3&#45;&gt;Node5 -->
<g id="edge5" class="edge">
<title>Node3&#45;&gt;Node5</title>
<path fill="none" stroke="midnightblue" d="M964,-441.81C964,-422.56 964,-374.9 964,-335 964,-335 964,-335 964,-137.5 964,-39.46 617.17,-17.27 484.11,-12.36"/>
<polygon fill="midnightblue" stroke="midnightblue" points="483.9,-8.85 473.78,-11.99 483.66,-15.84 483.9,-8.85"/>
</g>
<!-- Node4&#45;&gt;Node5 -->
<g id="edge4" class="edge">
<title>Node4&#45;&gt;Node5</title>
<path fill="none" stroke="midnightblue" d="M1050.71,-380.46C1043.71,-361.51 1028,-314.4 1028,-273.5 1028,-273.5 1028,-273.5 1028,-137.5 1028,-95 1014.2,-78.26 978,-56 936.51,-30.48 611.28,-16.96 483.91,-12.6"/>
<polygon fill="midnightblue" stroke="midnightblue" points="483.76,-9.09 473.65,-12.25 483.52,-16.09 483.76,-9.09"/>
</g>
<!-- Node6&#45;&gt;Node5 -->
<g id="edge11" class="edge">
<title>Node6&#45;&gt;Node5</title>
<path fill="none" stroke="midnightblue" d="M423.34,-447.17C294.73,-439.22 38,-413.51 38,-335 38,-335 38,-335 38,-137.5 38,-92.26 59.99,-78.92 99,-56 145.93,-28.43 301.05,-17.17 382.32,-13.07"/>
<polygon fill="midnightblue" stroke="midnightblue" points="382.51,-16.56 392.33,-12.58 382.17,-9.57 382.51,-16.56"/>
</g>
<!-- Node7 -->
<g id="node7" class="node">
<title>Node7</title>
<g id="a_node7"><a xlink:href="JKRDisposer_8h.html" target="_top" xlink:title=" ">
<polygon fill="white" stroke="black" points="586.5,-123.5 586.5,-153.5 737.5,-153.5 737.5,-123.5 586.5,-123.5"/>
<text text-anchor="start" x="594.5" y="-141.5" font-family="Helvetica,sans-Serif" font-size="10.00">JSystem/JKernel/JKRDisposer</text>
<text text-anchor="middle" x="662" y="-130.5" font-family="Helvetica,sans-Serif" font-size="10.00">/JKRDisposer.h</text>
</a>
</g>
</g>
<!-- Node6&#45;&gt;Node7 -->
<g id="edge7" class="edge">
<title>Node6&#45;&gt;Node7</title>
<path fill="none" stroke="midnightblue" d="M566.66,-442.21C629.86,-430.44 712,-402.22 712,-335 712,-335 712,-335 712,-271.5 712,-234.31 707.13,-224.4 693,-190 689.1,-180.5 683.52,-170.72 678.17,-162.33"/>
<polygon fill="midnightblue" stroke="midnightblue" points="680.99,-160.25 672.54,-153.86 675.16,-164.12 680.99,-160.25"/>
</g>
<!-- Node9 -->
<g id="node9" class="node">
<title>Node9</title>
<g id="a_node9"><a xlink:href="global_8h.html" target="_top" xlink:title=" ">
<polygon fill="white" stroke="black" points="270,-380.5 270,-399.5 320,-399.5 320,-380.5 270,-380.5"/>
<text text-anchor="middle" x="295" y="-387.5" font-family="Helvetica,sans-Serif" font-size="10.00">global.h</text>
</a>
</g>
</g>
<!-- Node6&#45;&gt;Node9 -->
<g id="edge12" class="edge">
<title>Node6&#45;&gt;Node9</title>
<path fill="none" stroke="midnightblue" d="M447.86,-436.47C411.8,-425.75 362.88,-411.19 330.19,-401.47"/>
<polygon fill="midnightblue" stroke="midnightblue" points="330.77,-397.99 320.18,-398.49 328.77,-404.7 330.77,-397.99"/>
</g>
<!-- Node7&#45;&gt;Node5 -->
<g id="edge10" class="edge">
<title>Node7&#45;&gt;Node5</title>
<path fill="none" stroke="midnightblue" d="M677.77,-123.28C695.1,-105.96 718.33,-76.48 701,-56 673.75,-23.8 553.81,-14.63 483.96,-12.02"/>
<polygon fill="midnightblue" stroke="midnightblue" points="483.73,-8.51 473.62,-11.67 483.49,-15.51 483.73,-8.51"/>
</g>
<!-- Node8 -->
<g id="node8" class="node">
<title>Node8</title>
<g id="a_node8"><a xlink:href="JSUList_8h.html" target="_top" xlink:title=" ">
<polygon fill="white" stroke="black" points="556,-56.5 556,-86.5 692,-86.5 692,-56.5 556,-56.5"/>
<text text-anchor="start" x="564" y="-74.5" font-family="Helvetica,sans-Serif" font-size="10.00">JSystem/JSupport/JSUList</text>
<text text-anchor="middle" x="624" y="-63.5" font-family="Helvetica,sans-Serif" font-size="10.00">/JSUList.h</text>
</a>
</g>
</g>
<!-- Node7&#45;&gt;Node8 -->
<g id="edge8" class="edge">
<title>Node7&#45;&gt;Node8</title>
<path fill="none" stroke="midnightblue" d="M653.75,-123.4C648.97,-115.22 642.84,-104.73 637.38,-95.39"/>
<polygon fill="midnightblue" stroke="midnightblue" points="640.3,-93.44 632.23,-86.58 634.25,-96.98 640.3,-93.44"/>
</g>
<!-- Node8&#45;&gt;Node5 -->
<g id="edge9" class="edge">
<title>Node8&#45;&gt;Node5</title>
<path fill="none" stroke="midnightblue" d="M578.74,-56.4C545.59,-46.07 501.15,-32.23 470.1,-22.56"/>
<polygon fill="midnightblue" stroke="midnightblue" points="471.1,-19.2 460.51,-19.57 469.02,-25.89 471.1,-19.2"/>
</g>
<!-- Node9&#45;&gt;Node5 -->
<g id="edge13" class="edge">
<title>Node9&#45;&gt;Node5</title>
<path fill="none" stroke="midnightblue" d="M269.85,-386.18C244.58,-381.85 206.88,-371.01 189,-344 167.66,-311.76 180.69,-294.76 189,-257 210.76,-158.16 215.33,-117.11 296,-56 321.15,-36.95 354.74,-25.75 382.36,-19.29"/>
<polygon fill="midnightblue" stroke="midnightblue" points="383.23,-22.68 392.24,-17.12 381.72,-15.84 383.23,-22.68"/>
</g>
<!-- Node10 -->
<g id="node10" class="node">
<title>Node10</title>
<g id="a_node10"><a xlink:href="AR_8h.html" target="_top" xlink:title=" ">
<polygon fill="white" stroke="black" points="198.5,-263 198.5,-282 247.5,-282 247.5,-263 198.5,-263"/>
<text text-anchor="middle" x="223" y="-270" font-family="Helvetica,sans-Serif" font-size="10.00">ar/AR.h</text>
</a>
</g>
</g>
<!-- Node9&#45;&gt;Node10 -->
<g id="edge14" class="edge">
<title>Node9&#45;&gt;Node10</title>
<path fill="none" stroke="midnightblue" d="M290.25,-380.48C283.22,-367.97 269.51,-343.93 257,-324 249.93,-312.74 241.6,-300.35 234.95,-290.66"/>
<polygon fill="midnightblue" stroke="midnightblue" points="237.76,-288.57 229.19,-282.33 232,-292.54 237.76,-288.57"/>
</g>
<!-- Node11 -->
<g id="node11" class="node">
<title>Node11</title>
<g id="a_node11"><a xlink:href="ARQ_8h.html" target="_top" xlink:title=" ">
<polygon fill="white" stroke="black" points="66,-129 66,-148 122,-148 122,-129 66,-129"/>
<text text-anchor="middle" x="94" y="-136" font-family="Helvetica,sans-Serif" font-size="10.00">ar/ARQ.h</text>
</a>
</g>
</g>
<!-- Node9&#45;&gt;Node11 -->
<g id="edge16" class="edge">
<title>Node9&#45;&gt;Node11</title>
<path fill="none" stroke="midnightblue" d="M269.9,-388.96C235.93,-387.48 175.68,-379.6 142,-344 92.5,-291.68 90.81,-198.37 92.62,-158.46"/>
<polygon fill="midnightblue" stroke="midnightblue" points="96.12,-158.48 93.22,-148.29 89.14,-158.07 96.12,-158.48"/>
</g>
<!-- Node12 -->
<g id="node12" class="node">
<title>Node12</title>
<g id="a_node12"><a xlink:href="mwcc_8h.html" target="_top" xlink:title=" ">
<polygon fill="white" stroke="black" points="198,-324.5 198,-343.5 248,-343.5 248,-324.5 198,-324.5"/>
<text text-anchor="middle" x="223" y="-331.5" font-family="Helvetica,sans-Serif" font-size="10.00">mwcc.h</text>
</a>
</g>
</g>
<!-- Node9&#45;&gt;Node12 -->
<g id="edge18" class="edge">
<title>Node9&#45;&gt;Node12</title>
<path fill="none" stroke="midnightblue" d="M283.43,-380.32C272.58,-372.18 256.12,-359.84 243.12,-350.09"/>
<polygon fill="midnightblue" stroke="midnightblue" points="244.88,-347.03 234.78,-343.83 240.68,-352.63 244.88,-347.03"/>
</g>
<!-- Node13 -->
<g id="node13" class="node">
<title>Node13</title>
<g id="a_node13"><a xlink:href="OS_8h.html" target="_top" xlink:title=" ">
<polygon fill="white" stroke="black" points="140,-129 140,-148 192,-148 192,-129 140,-129"/>
<text text-anchor="middle" x="166" y="-136" font-family="Helvetica,sans-Serif" font-size="10.00">os/OS.h</text>
</a>
</g>
</g>
<!-- Node9&#45;&gt;Node13 -->
<g id="edge19" class="edge">
<title>Node9&#45;&gt;Node13</title>
<path fill="none" stroke="midnightblue" d="M269.9,-389.12C237.48,-387.74 182.11,-379.9 156,-344 114.72,-287.24 143.06,-196.39 158.19,-157.8"/>
<polygon fill="midnightblue" stroke="midnightblue" points="161.5,-158.95 162.04,-148.37 155.02,-156.31 161.5,-158.95"/>
</g>
<!-- Node15 -->
<g id="node15" class="node">
<title>Node15</title>
<g id="a_node15"><a xlink:href="variables_8h.html" target="_top" xlink:title=" ">
<polygon fill="white" stroke="black" points="422.5,-324.5 422.5,-343.5 485.5,-343.5 485.5,-324.5 422.5,-324.5"/>
<text text-anchor="middle" x="454" y="-331.5" font-family="Helvetica,sans-Serif" font-size="10.00">variables.h</text>
</a>
</g>
</g>
<!-- Node9&#45;&gt;Node15 -->
<g id="edge23" class="edge">
<title>Node9&#45;&gt;Node15</title>
<path fill="none" stroke="midnightblue" d="M320.19,-380.44C346.94,-371.36 389.4,-356.94 419.31,-346.78"/>
<polygon fill="midnightblue" stroke="midnightblue" points="420.58,-350.05 428.92,-343.52 418.33,-343.42 420.58,-350.05"/>
</g>
<!-- Node10&#45;&gt;Node5 -->
<g id="edge15" class="edge">
<title>Node10&#45;&gt;Node5</title>
<path fill="none" stroke="midnightblue" d="M223.37,-262.57C224.29,-247.18 227.42,-214.89 238,-190 266.65,-122.57 277.4,-102.51 334,-56 351.84,-41.34 375.24,-30.41 394.81,-23"/>
<polygon fill="midnightblue" stroke="midnightblue" points="396.14,-26.24 404.35,-19.54 393.76,-19.66 396.14,-26.24"/>
</g>
<!-- Node11&#45;&gt;Node5 -->
<g id="edge17" class="edge">
<title>Node11&#45;&gt;Node5</title>
<path fill="none" stroke="midnightblue" d="M94.3,-128.99C95.38,-112.13 100.35,-74.56 123,-56 161.7,-24.29 304.9,-14.91 382.4,-12.15"/>
<polygon fill="midnightblue" stroke="midnightblue" points="382.55,-15.65 392.42,-11.82 382.31,-8.65 382.55,-15.65"/>
</g>
<!-- Node13&#45;&gt;Node5 -->
<g id="edge20" class="edge">
<title>Node13&#45;&gt;Node5</title>
<path fill="none" stroke="midnightblue" d="M157.26,-128.93C142,-112.95 113.87,-78.21 133,-56 164.51,-19.41 304.81,-12.15 381.87,-10.98"/>
<polygon fill="midnightblue" stroke="midnightblue" points="382.35,-14.47 392.31,-10.85 382.27,-7.47 382.35,-14.47"/>
</g>
<!-- Node14 -->
<g id="node14" class="node">
<title>Node14</title>
<g id="a_node14"><a xlink:href="dvd_8h.html" target="_top" xlink:title=" ">
<polygon fill="white" stroke="black" points="142.5,-62 142.5,-81 201.5,-81 201.5,-62 142.5,-62"/>
<text text-anchor="middle" x="172" y="-69" font-family="Helvetica,sans-Serif" font-size="10.00">dvd/dvd.h</text>
</a>
</g>
</g>
<!-- Node13&#45;&gt;Node14 -->
<g id="edge21" class="edge">
<title>Node13&#45;&gt;Node14</title>
<path fill="none" stroke="midnightblue" d="M166.81,-128.73C167.69,-119.18 169.13,-103.62 170.27,-91.28"/>
<polygon fill="midnightblue" stroke="midnightblue" points="173.77,-91.41 171.2,-81.13 166.8,-90.76 173.77,-91.41"/>
</g>
<!-- Node14&#45;&gt;Node5 -->
<g id="edge22" class="edge">
<title>Node14&#45;&gt;Node5</title>
<path fill="none" stroke="midnightblue" d="M196.52,-61.87C202.82,-59.8 209.63,-57.7 216,-56 272.38,-40.92 338.13,-27.91 382.35,-19.81"/>
<polygon fill="midnightblue" stroke="midnightblue" points="383.07,-23.24 392.28,-18.01 381.82,-16.35 383.07,-23.24"/>
</g>
<!-- Node15&#45;&gt;Node8 -->
<g id="edge24" class="edge">
<title>Node15&#45;&gt;Node8</title>
<path fill="none" stroke="midnightblue" d="M485.55,-329.42C511.21,-324.66 545.87,-313.61 563,-288 570.66,-276.55 566.99,-270.19 563,-257 557.43,-238.6 544.57,-239.4 539,-221 535.01,-207.81 535.49,-203.32 539,-190 549.23,-151.24 579.62,-115.24 601.13,-93.56"/>
<polygon fill="midnightblue" stroke="midnightblue" points="603.63,-96.01 608.32,-86.51 598.73,-91.01 603.63,-96.01"/>
</g>
<!-- Node16 -->
<g id="node16" class="node">
<title>Node16</title>
<g id="a_node16"><a xlink:href="JUTXfb_8h.html" target="_top" xlink:title=" ">
<polygon fill="white" stroke="black" points="429.5,-257.5 429.5,-287.5 554.5,-287.5 554.5,-257.5 429.5,-257.5"/>
<text text-anchor="start" x="437.5" y="-275.5" font-family="Helvetica,sans-Serif" font-size="10.00">JSystem/JUtility/JUTXfb</text>
<text text-anchor="middle" x="492" y="-264.5" font-family="Helvetica,sans-Serif" font-size="10.00">/JUTXfb.h</text>
</a>
</g>
</g>
<!-- Node15&#45;&gt;Node16 -->
<g id="edge25" class="edge">
<title>Node15&#45;&gt;Node16</title>
<path fill="none" stroke="midnightblue" d="M459.44,-324.48C464.16,-317.09 471.19,-306.08 477.52,-296.17"/>
<polygon fill="midnightblue" stroke="midnightblue" points="480.61,-297.83 483.04,-287.52 474.71,-294.07 480.61,-297.83"/>
</g>
<!-- Node19 -->
<g id="node19" class="node">
<title>Node19</title>
<g id="a_node19"><a xlink:href="c__xyz_8h.html" target="_top" xlink:title=" ">
<polygon fill="white" stroke="black" points="304.5,-263 304.5,-282 411.5,-282 411.5,-263 304.5,-263"/>
<text text-anchor="middle" x="358" y="-270" font-family="Helvetica,sans-Serif" font-size="10.00">SComponent/c_xyz.h</text>
</a>
</g>
</g>
<!-- Node15&#45;&gt;Node19 -->
<g id="edge33" class="edge">
<title>Node15&#45;&gt;Node19</title>
<path fill="none" stroke="midnightblue" d="M440.25,-324.48C424.63,-314.8 398.94,-298.87 380.42,-287.39"/>
<polygon fill="midnightblue" stroke="midnightblue" points="382.07,-284.3 371.73,-282.01 378.38,-290.25 382.07,-284.3"/>
</g>
<!-- Node16&#45;&gt;Node5 -->
<g id="edge30" class="edge">
<title>Node16&#45;&gt;Node5</title>
<path fill="none" stroke="midnightblue" d="M489.34,-257.11C484.36,-230.54 473.15,-171.98 462,-123 455.18,-93.05 452.74,-85.73 445,-56 442.73,-47.28 440.17,-37.64 437.99,-29.51"/>
<polygon fill="midnightblue" stroke="midnightblue" points="441.31,-28.37 435.33,-19.62 434.55,-30.18 441.31,-28.37"/>
</g>
<!-- Node17 -->
<g id="node17" class="node">
<title>Node17</title>
<g id="a_node17"><a xlink:href="JKRHeap_8h.html" target="_top" xlink:title=" ">
<polygon fill="white" stroke="black" points="548,-190.5 548,-220.5 684,-220.5 684,-190.5 548,-190.5"/>
<text text-anchor="start" x="556" y="-208.5" font-family="Helvetica,sans-Serif" font-size="10.00">JSystem/JKernel/JKRHeap</text>
<text text-anchor="middle" x="616" y="-197.5" font-family="Helvetica,sans-Serif" font-size="10.00">/JKRHeap.h</text>
</a>
</g>
</g>
<!-- Node16&#45;&gt;Node17 -->
<g id="edge26" class="edge">
<title>Node16&#45;&gt;Node17</title>
<path fill="none" stroke="midnightblue" d="M518.91,-257.4C536.86,-247.98 560.67,-235.5 580.22,-225.26"/>
<polygon fill="midnightblue" stroke="midnightblue" points="581.91,-228.32 589.15,-220.58 578.66,-222.12 581.91,-228.32"/>
</g>
<!-- Node18 -->
<g id="node18" class="node">
<title>Node18</title>
<g id="a_node18"><a xlink:href="GX_8h.html" target="_top" xlink:title=" ">
<polygon fill="white" stroke="black" points="402.5,-129 402.5,-148 453.5,-148 453.5,-129 402.5,-129"/>
<text text-anchor="middle" x="428" y="-136" font-family="Helvetica,sans-Serif" font-size="10.00">gx/GX.h</text>
</a>
</g>
</g>
<!-- Node16&#45;&gt;Node18 -->
<g id="edge31" class="edge">
<title>Node16&#45;&gt;Node18</title>
<path fill="none" stroke="midnightblue" d="M485.15,-257.37C473.42,-233.18 449.52,-183.88 436.65,-157.35"/>
<polygon fill="midnightblue" stroke="midnightblue" points="439.68,-155.57 432.17,-148.1 433.38,-158.62 439.68,-155.57"/>
</g>
<!-- Node17&#45;&gt;Node5 -->
<g id="edge28" class="edge">
<title>Node17&#45;&gt;Node5</title>
<path fill="none" stroke="midnightblue" d="M604.88,-190.3C577.54,-155.44 508.33,-67.62 496,-56 483.72,-44.43 468.33,-33.39 455.84,-25.13"/>
<polygon fill="midnightblue" stroke="midnightblue" points="457.64,-22.13 447.34,-19.65 453.85,-28.01 457.64,-22.13"/>
</g>
<!-- Node17&#45;&gt;Node7 -->
<g id="edge27" class="edge">
<title>Node17&#45;&gt;Node7</title>
<path fill="none" stroke="midnightblue" d="M625.98,-190.4C631.89,-182.05 639.5,-171.29 646.21,-161.81"/>
<polygon fill="midnightblue" stroke="midnightblue" points="649.12,-163.76 652.04,-153.58 643.4,-159.72 649.12,-163.76"/>
</g>
<!-- Node17&#45;&gt;Node9 -->
<g id="edge29" class="edge">
<title>Node17&#45;&gt;Node9</title>
<path fill="none" stroke="midnightblue" d="M616.1,-220.64C615.51,-238.16 612.14,-268.12 597,-288 532.74,-372.36 395.22,-387.01 330.31,-389.05"/>
<polygon fill="midnightblue" stroke="midnightblue" points="330.09,-385.55 320.17,-389.28 330.25,-392.55 330.09,-385.55"/>
</g>
<!-- Node18&#45;&gt;Node5 -->
<g id="edge32" class="edge">
<title>Node18&#45;&gt;Node5</title>
<path fill="none" stroke="midnightblue" d="M428.34,-128.81C429.15,-108.49 431.16,-57.55 432.26,-29.78"/>
<polygon fill="midnightblue" stroke="midnightblue" points="435.76,-29.89 432.65,-19.76 428.76,-29.61 435.76,-29.89"/>
</g>
<!-- Node19&#45;&gt;Node9 -->
<g id="edge36" class="edge">
<title>Node19&#45;&gt;Node9</title>
<path fill="none" stroke="midnightblue" d="M355.09,-282.05C350.31,-295.62 340.11,-322.73 328,-344 322.37,-353.89 314.95,-364.18 308.58,-372.42"/>
<polygon fill="midnightblue" stroke="midnightblue" points="305.69,-370.44 302.21,-380.44 311.17,-374.79 305.69,-370.44"/>
</g>
<!-- Node20 -->
<g id="node20" class="node">
<title>Node20</title>
<g id="a_node20"><a xlink:href="c__math_8h.html" target="_top" xlink:title=" ">
<polygon fill="white" stroke="black" points="247,-196 247,-215 363,-215 363,-196 247,-196"/>
<text text-anchor="middle" x="305" y="-203" font-family="Helvetica,sans-Serif" font-size="10.00">SComponent/c_math.h</text>
</a>
</g>
</g>
<!-- Node19&#45;&gt;Node20 -->
<g id="edge34" class="edge">
<title>Node19&#45;&gt;Node20</title>
<path fill="none" stroke="midnightblue" d="M350.85,-262.73C342.59,-252.6 328.8,-235.69 318.5,-223.06"/>
<polygon fill="midnightblue" stroke="midnightblue" points="321.07,-220.67 312.03,-215.13 315.64,-225.09 321.07,-220.67"/>
</g>
<!-- Node21 -->
<g id="node21" class="node">
<title>Node21</title>
<g id="a_node21"><a xlink:href="mtx__vec_8h.html" target="_top" xlink:title=" ">
<polygon fill="white" stroke="black" points="343.5,-62 343.5,-81 404.5,-81 404.5,-62 343.5,-62"/>
<text text-anchor="middle" x="374" y="-69" font-family="Helvetica,sans-Serif" font-size="10.00">mtx_vec.h</text>
</a>
</g>
</g>
<!-- Node19&#45;&gt;Node21 -->
<g id="edge37" class="edge">
<title>Node19&#45;&gt;Node21</title>
<path fill="none" stroke="midnightblue" d="M361.18,-262.71C364.61,-252.75 369.86,-235.95 372,-221 378.6,-174.79 376.87,-119.66 375.28,-91.35"/>
<polygon fill="midnightblue" stroke="midnightblue" points="378.77,-91.03 374.66,-81.26 371.78,-91.46 378.77,-91.03"/>
</g>
<!-- Node20&#45;&gt;Node9 -->
<g id="edge35" class="edge">
<title>Node20&#45;&gt;Node9</title>
<path fill="none" stroke="midnightblue" d="M302.79,-215C300.31,-224.98 296.47,-242.06 295,-257 291.06,-297.15 292.54,-344.5 293.85,-370.16"/>
<polygon fill="midnightblue" stroke="midnightblue" points="290.36,-370.53 294.42,-380.32 297.35,-370.14 290.36,-370.53"/>
</g>
<!-- Node21&#45;&gt;Node5 -->
<g id="edge38" class="edge">
<title>Node21&#45;&gt;Node5</title>
<path fill="none" stroke="midnightblue" d="M382.45,-61.98C391.57,-52.78 406.27,-37.96 417.48,-26.66"/>
<polygon fill="midnightblue" stroke="midnightblue" points="420.01,-29.07 424.56,-19.51 415.04,-24.15 420.01,-29.07"/>
</g>
<!-- Node22&#45;&gt;Node5 -->
<g id="edge42" class="edge">
<title>Node22&#45;&gt;Node5</title>
<path fill="none" stroke="midnightblue" d="M854.19,-190.16C847.41,-159.77 827.11,-88.97 780,-56 733.24,-23.27 568.16,-14.34 483.66,-11.91"/>
<polygon fill="midnightblue" stroke="midnightblue" points="483.61,-8.41 473.52,-11.64 483.42,-15.41 483.61,-8.41"/>
</g>
<!-- Node22&#45;&gt;Node7 -->
<g id="edge41" class="edge">
<title>Node22&#45;&gt;Node7</title>
<path fill="none" stroke="midnightblue" d="M814.69,-190.4C785.05,-180.52 745.26,-167.25 713.73,-156.74"/>
<polygon fill="midnightblue" stroke="midnightblue" points="714.82,-153.42 704.23,-153.58 712.61,-160.06 714.82,-153.42"/>
</g>
</g>
</svg>
