<?xml version="1.0" encoding="UTF-8" standalone="no"?>
<!DOCTYPE svg PUBLIC "-//W3C//DTD SVG 1.1//EN"
 "http://www.w3.org/Graphics/SVG/1.1/DTD/svg11.dtd">
<!-- Generated by graphviz version 2.46.1 (20210215.1649)
 -->
<!-- Title: include/JSystem/JKernel/JKRDvdAramRipper/JKRDvdAramRipper.h Pages: 1 -->
<!--zoomable 687 -->
<svg id="main" version="1.1" xmlns="http://www.w3.org/2000/svg" xmlns:xlink="http://www.w3.org/1999/xlink" xml:space="preserve" onload="init(evt)">
<style type="text/css"><![CDATA[
.edge:hover path { stroke: red; }
.edge:hover polygon { stroke: red; fill: red; }
]]></style>
<script type="text/javascript"><![CDATA[
var edges = document.getElementsByTagName('g');
if (edges && edges.length) {
  for (var i=0;i<edges.length;i++) {
    if (edges[i].id.substr(0,4)=='edge') {
      edges[i].setAttribute('class','edge');
    }
  }
}
]]></script>
        <defs>
                <circle id="rim" cx="0" cy="0" r="7"/>
                <circle id="rim2" cx="0" cy="0" r="3.5"/>
                <g id="zoomPlus">
                        <use xlink:href="#rim" fill="#404040">
                                <set attributeName="fill" to="#808080" begin="zoomplus.mouseover" end="zoomplus.mouseout"/>
                        </use>
                        <path d="M-4,0h8M0,-4v8" fill="none" stroke="white" stroke-width="1.5" pointer-events="none"/>
                </g>
                <g id="zoomMin">
                        <use xlink:href="#rim" fill="#404040">
                                <set attributeName="fill" to="#808080" begin="zoomminus.mouseover" end="zoomminus.mouseout"/>
                        </use>
                        <path d="M-4,0h8" fill="none" stroke="white" stroke-width="1.5" pointer-events="none"/>
                </g>
                <g id="dirArrow">
                        <path fill="none" stroke="white" stroke-width="1.5" d="M0,-3.0v7 M-2.5,-0.5L0,-3.0L2.5,-0.5"/>
                </g>
               <g id="resetDef">
                       <use xlink:href="#rim2" fill="#404040">
                               <set attributeName="fill" to="#808080" begin="reset.mouseover" end="reset.mouseout"/>
                       </use>
               </g>
        </defs>

<script type="text/javascript">
var viewWidth = 1265;
var viewHeight = 687;
var sectionId = 'dynsection-0';
</script>
<script xlink:href="svgpan.js"/>
<svg id="graph" class="graph">
<g id="viewport">
<title>include/JSystem/JKernel/JKRDvdAramRipper/JKRDvdAramRipper.h</title>
<polygon fill="white" stroke="transparent" points="-4,4 -4,-683 1261.36,-683 1261.36,4 -4,4"/>
<!-- Node1 -->
<g id="node1" class="node">
<title>Node1</title>
<g id="a_node1"><a xlink:title=" ">
<polygon fill="#bfbfbf" stroke="black" points="882,-637.5 882,-678.5 1051,-678.5 1051,-637.5 882,-637.5"/>
<text text-anchor="start" x="890" y="-666.5" font-family="Helvetica,sans-Serif" font-size="10.00">include/JSystem/JKernel</text>
<text text-anchor="start" x="890" y="-655.5" font-family="Helvetica,sans-Serif" font-size="10.00">/JKRDvdAramRipper/JKRDvdAram</text>
<text text-anchor="middle" x="966.5" y="-644.5" font-family="Helvetica,sans-Serif" font-size="10.00">Ripper.h</text>
</a>
</g>
</g>
<!-- Node2 -->
<g id="node2" class="node">
<title>Node2</title>
<g id="a_node2"><a xlink:href="JKRDvdRipper_8h.html" target="_top" xlink:title=" ">
<polygon fill="white" stroke="black" points="780.5,-570.5 780.5,-600.5 938.5,-600.5 938.5,-570.5 780.5,-570.5"/>
<text text-anchor="start" x="788.5" y="-588.5" font-family="Helvetica,sans-Serif" font-size="10.00">JSystem/JKernel/JKRDvdRipper</text>
<text text-anchor="middle" x="859.5" y="-577.5" font-family="Helvetica,sans-Serif" font-size="10.00">/JKRDvdRipper.h</text>
</a>
</g>
</g>
<!-- Node1&#45;&gt;Node2 -->
<g id="edge1" class="edge">
<title>Node1&#45;&gt;Node2</title>
<path fill="none" stroke="midnightblue" d="M936.69,-637.36C922.05,-627.71 904.43,-616.11 889.73,-606.42"/>
<polygon fill="midnightblue" stroke="midnightblue" points="891.28,-603.25 881.01,-600.67 887.43,-609.09 891.28,-603.25"/>
</g>
<!-- Node6 -->
<g id="node6" class="node">
<title>Node6</title>
<g id="a_node6"><a xlink:href="types_8h.html" target="_top" xlink:title=" ">
<polygon fill="white" stroke="black" points="658,-0.5 658,-19.5 739,-19.5 739,-0.5 658,-0.5"/>
<text text-anchor="middle" x="698.5" y="-7.5" font-family="Helvetica,sans-Serif" font-size="10.00">dolphin/types.h</text>
</a>
</g>
</g>
<!-- Node1&#45;&gt;Node6 -->
<g id="edge46" class="edge">
<title>Node1&#45;&gt;Node6</title>
<path fill="none" stroke="midnightblue" d="M966.5,-637.42C966.5,-610.75 966.5,-561.51 966.5,-519.5 966.5,-519.5 966.5,-519.5 966.5,-137.5 966.5,-95.69 953.43,-80.44 919.5,-56 892.81,-36.77 805.93,-23.4 749.39,-16.48"/>
<polygon fill="midnightblue" stroke="midnightblue" points="749.55,-12.97 739.2,-15.26 748.72,-19.92 749.55,-12.97"/>
</g>
<!-- Node21 -->
<g id="node21" class="node">
<title>Node21</title>
<g id="a_node21"><a xlink:href="JSUFileInputStream_8h.html" target="_top" xlink:title=" ">
<polygon fill="white" stroke="black" points="994,-257.5 994,-287.5 1163,-287.5 1163,-257.5 994,-257.5"/>
<text text-anchor="start" x="1002" y="-275.5" font-family="Helvetica,sans-Serif" font-size="10.00">JSystem/JSupport/JSUFile</text>
<text text-anchor="middle" x="1078.5" y="-264.5" font-family="Helvetica,sans-Serif" font-size="10.00">InputStream/JSUFileInputStream.h</text>
</a>
</g>
</g>
<!-- Node1&#45;&gt;Node21 -->
<g id="edge38" class="edge">
<title>Node1&#45;&gt;Node21</title>
<path fill="none" stroke="midnightblue" d="M985.43,-637.41C1007.64,-612.26 1041.5,-566.27 1041.5,-519.5 1041.5,-519.5 1041.5,-519.5 1041.5,-389 1041.5,-355.8 1055.53,-319.68 1066.32,-296.84"/>
<polygon fill="midnightblue" stroke="midnightblue" points="1069.58,-298.14 1070.83,-287.62 1063.29,-295.06 1069.58,-298.14"/>
</g>
<!-- Node3 -->
<g id="node3" class="node">
<title>Node3</title>
<g id="a_node3"><a xlink:href="JKRDecomp_8h.html" target="_top" xlink:title=" ">
<polygon fill="white" stroke="black" points="180,-503.5 180,-533.5 329,-533.5 329,-503.5 180,-503.5"/>
<text text-anchor="start" x="188" y="-521.5" font-family="Helvetica,sans-Serif" font-size="10.00">JSystem/JKernel/JKRDecomp</text>
<text text-anchor="middle" x="254.5" y="-510.5" font-family="Helvetica,sans-Serif" font-size="10.00">/JKRDecomp.h</text>
</a>
</g>
</g>
<!-- Node2&#45;&gt;Node3 -->
<g id="edge2" class="edge">
<title>Node2&#45;&gt;Node3</title>
<path fill="none" stroke="midnightblue" d="M780.41,-576C666.34,-563.75 456.53,-541.21 339.34,-528.62"/>
<polygon fill="midnightblue" stroke="midnightblue" points="339.65,-525.13 329.33,-527.54 338.9,-532.09 339.65,-525.13"/>
</g>
<!-- Node2&#45;&gt;Node6 -->
<g id="edge37" class="edge">
<title>Node2&#45;&gt;Node6</title>
<path fill="none" stroke="midnightblue" d="M872.8,-570.34C892.85,-547.46 928.5,-500.08 928.5,-452.5 928.5,-452.5 928.5,-452.5 928.5,-137.5 928.5,-97.53 921.52,-81.2 890.5,-56 850.61,-23.59 791.48,-13.71 749.39,-11.09"/>
<polygon fill="midnightblue" stroke="midnightblue" points="749.51,-7.59 739.35,-10.58 749.16,-14.59 749.51,-7.59"/>
</g>
<!-- Node4 -->
<g id="node4" class="node">
<title>Node4</title>
<g id="a_node4"><a xlink:href="JKRCompression_8h.html" target="_top" xlink:title=" ">
<polygon fill="white" stroke="black" points="0,-129 0,-148 177,-148 177,-129 0,-129"/>
<text text-anchor="middle" x="88.5" y="-136" font-family="Helvetica,sans-Serif" font-size="10.00">JSystem/JKernel/JKRCompression.h</text>
</a>
</g>
</g>
<!-- Node3&#45;&gt;Node4 -->
<g id="edge3" class="edge">
<title>Node3&#45;&gt;Node4</title>
<path fill="none" stroke="midnightblue" d="M230.22,-503.43C216.79,-494.53 200.79,-481.91 190.5,-467 170.37,-437.85 166.5,-426.42 166.5,-391 166.5,-391 166.5,-391 166.5,-271.5 166.5,-223.88 128.41,-178.35 105.46,-155.25"/>
<polygon fill="midnightblue" stroke="midnightblue" points="107.67,-152.51 98.06,-148.04 102.79,-157.53 107.67,-152.51"/>
</g>
<!-- Node3&#45;&gt;Node6 -->
<g id="edge36" class="edge">
<title>Node3&#45;&gt;Node6</title>
<path fill="none" stroke="midnightblue" d="M244.02,-503.12C237.33,-493.34 228.92,-479.9 223.5,-467 210.01,-434.9 204.5,-425.82 204.5,-391 204.5,-391 204.5,-391 204.5,-137.5 204.5,-94.53 219.92,-78.54 256.5,-56 320.86,-16.35 545.8,-11.04 647.68,-10.72"/>
<polygon fill="midnightblue" stroke="midnightblue" points="647.73,-14.22 657.72,-10.71 647.72,-7.22 647.73,-14.22"/>
</g>
<!-- Node7 -->
<g id="node7" class="node">
<title>Node7</title>
<g id="a_node7"><a xlink:href="JKRThread_8h.html" target="_top" xlink:title=" ">
<polygon fill="white" stroke="black" points="233,-436.5 233,-466.5 376,-466.5 376,-436.5 233,-436.5"/>
<text text-anchor="start" x="241" y="-454.5" font-family="Helvetica,sans-Serif" font-size="10.00">JSystem/JKernel/JKRThread</text>
<text text-anchor="middle" x="304.5" y="-443.5" font-family="Helvetica,sans-Serif" font-size="10.00">/JKRThread.h</text>
</a>
</g>
</g>
<!-- Node3&#45;&gt;Node7 -->
<g id="edge7" class="edge">
<title>Node3&#45;&gt;Node7</title>
<path fill="none" stroke="midnightblue" d="M265.35,-503.4C271.84,-494.96 280.22,-484.07 287.56,-474.52"/>
<polygon fill="midnightblue" stroke="midnightblue" points="290.35,-476.64 293.67,-466.58 284.8,-472.37 290.35,-476.64"/>
</g>
<!-- Node5 -->
<g id="node5" class="node">
<title>Node5</title>
<g id="a_node5"><a xlink:href="SArc_8h.html" target="_top" xlink:title=" ">
<polygon fill="white" stroke="black" points="15,-62 15,-81 138,-81 138,-62 15,-62"/>
<text text-anchor="middle" x="76.5" y="-69" font-family="Helvetica,sans-Serif" font-size="10.00">JSystem/JKernel/SArc.h</text>
</a>
</g>
</g>
<!-- Node4&#45;&gt;Node5 -->
<g id="edge4" class="edge">
<title>Node4&#45;&gt;Node5</title>
<path fill="none" stroke="midnightblue" d="M86.88,-128.73C85.12,-119.18 82.24,-103.62 79.97,-91.28"/>
<polygon fill="midnightblue" stroke="midnightblue" points="83.35,-90.33 78.09,-81.13 76.47,-91.6 83.35,-90.33"/>
</g>
<!-- Node4&#45;&gt;Node6 -->
<g id="edge6" class="edge">
<title>Node4&#45;&gt;Node6</title>
<path fill="none" stroke="midnightblue" d="M98.78,-128.72C122.51,-108.54 179.88,-60.26 190.5,-56 272.59,-23.1 535.89,-14.14 647.61,-11.8"/>
<polygon fill="midnightblue" stroke="midnightblue" points="647.69,-15.3 657.62,-11.6 647.55,-8.3 647.69,-15.3"/>
</g>
<!-- Node5&#45;&gt;Node6 -->
<g id="edge5" class="edge">
<title>Node5&#45;&gt;Node6</title>
<path fill="none" stroke="midnightblue" d="M116.99,-61.95C128.43,-59.76 140.92,-57.58 152.5,-56 333.9,-31.29 551.2,-18.3 647.85,-13.37"/>
<polygon fill="midnightblue" stroke="midnightblue" points="648.12,-16.86 657.93,-12.87 647.76,-9.87 648.12,-16.86"/>
</g>
<!-- Node7&#45;&gt;Node6 -->
<g id="edge12" class="edge">
<title>Node7&#45;&gt;Node6</title>
<path fill="none" stroke="midnightblue" d="M291.05,-436.49C272.81,-415.97 242.5,-375.74 242.5,-335 242.5,-335 242.5,-335 242.5,-137.5 242.5,-92.78 262.88,-78.55 301.5,-56 359.09,-22.37 554.16,-13.87 647.68,-11.73"/>
<polygon fill="midnightblue" stroke="midnightblue" points="647.83,-15.22 657.75,-11.51 647.68,-8.22 647.83,-15.22"/>
</g>
<!-- Node8 -->
<g id="node8" class="node">
<title>Node8</title>
<g id="a_node8"><a xlink:href="JKRDisposer_8h.html" target="_top" xlink:title=" ">
<polygon fill="white" stroke="black" points="271,-123.5 271,-153.5 422,-153.5 422,-123.5 271,-123.5"/>
<text text-anchor="start" x="279" y="-141.5" font-family="Helvetica,sans-Serif" font-size="10.00">JSystem/JKernel/JKRDisposer</text>
<text text-anchor="middle" x="346.5" y="-130.5" font-family="Helvetica,sans-Serif" font-size="10.00">/JKRDisposer.h</text>
</a>
</g>
</g>
<!-- Node7&#45;&gt;Node8 -->
<g id="edge8" class="edge">
<title>Node7&#45;&gt;Node8</title>
<path fill="none" stroke="midnightblue" d="M299.64,-436.47C292.63,-414.93 280.5,-372.27 280.5,-335 280.5,-335 280.5,-335 280.5,-271.5 280.5,-234.31 282.02,-222.83 299.5,-190 305.19,-179.32 313.71,-169.2 321.94,-160.86"/>
<polygon fill="midnightblue" stroke="midnightblue" points="324.56,-163.2 329.33,-153.74 319.7,-158.16 324.56,-163.2"/>
</g>
<!-- Node10 -->
<g id="node10" class="node">
<title>Node10</title>
<g id="a_node10"><a xlink:href="global_8h.html" target="_top" xlink:title=" ">
<polygon fill="white" stroke="black" points="671.5,-380.5 671.5,-399.5 721.5,-399.5 721.5,-380.5 671.5,-380.5"/>
<text text-anchor="middle" x="696.5" y="-387.5" font-family="Helvetica,sans-Serif" font-size="10.00">global.h</text>
</a>
</g>
</g>
<!-- Node7&#45;&gt;Node10 -->
<g id="edge13" class="edge">
<title>Node7&#45;&gt;Node10</title>
<path fill="none" stroke="midnightblue" d="M376.4,-439.59C460.78,-426.78 597.28,-406.06 661.27,-396.35"/>
<polygon fill="midnightblue" stroke="midnightblue" points="661.9,-399.79 671.27,-394.83 660.85,-392.87 661.9,-399.79"/>
</g>
<!-- Node8&#45;&gt;Node6 -->
<g id="edge11" class="edge">
<title>Node8&#45;&gt;Node6</title>
<path fill="none" stroke="midnightblue" d="M331.98,-123.32C315.74,-105.77 293.89,-75.78 311.5,-56 333.49,-31.3 547.76,-18.08 647.68,-13.21"/>
<polygon fill="midnightblue" stroke="midnightblue" points="648.02,-16.7 657.84,-12.72 647.69,-9.7 648.02,-16.7"/>
</g>
<!-- Node9 -->
<g id="node9" class="node">
<title>Node9</title>
<g id="a_node9"><a xlink:href="JSUList_8h.html" target="_top" xlink:title=" ">
<polygon fill="white" stroke="black" points="320.5,-56.5 320.5,-86.5 456.5,-86.5 456.5,-56.5 320.5,-56.5"/>
<text text-anchor="start" x="328.5" y="-74.5" font-family="Helvetica,sans-Serif" font-size="10.00">JSystem/JSupport/JSUList</text>
<text text-anchor="middle" x="388.5" y="-63.5" font-family="Helvetica,sans-Serif" font-size="10.00">/JSUList.h</text>
</a>
</g>
</g>
<!-- Node8&#45;&gt;Node9 -->
<g id="edge9" class="edge">
<title>Node8&#45;&gt;Node9</title>
<path fill="none" stroke="midnightblue" d="M355.61,-123.4C360.95,-115.13 367.82,-104.51 373.9,-95.1"/>
<polygon fill="midnightblue" stroke="midnightblue" points="376.92,-96.88 379.4,-86.58 371.04,-93.08 376.92,-96.88"/>
</g>
<!-- Node9&#45;&gt;Node6 -->
<g id="edge10" class="edge">
<title>Node9&#45;&gt;Node6</title>
<path fill="none" stroke="midnightblue" d="M456.53,-57.44C514.18,-46.38 595.55,-30.76 647.67,-20.76"/>
<polygon fill="midnightblue" stroke="midnightblue" points="648.53,-24.16 657.69,-18.83 647.21,-17.28 648.53,-24.16"/>
</g>
<!-- Node10&#45;&gt;Node6 -->
<g id="edge14" class="edge">
<title>Node10&#45;&gt;Node6</title>
<path fill="none" stroke="midnightblue" d="M694.76,-380.42C693.03,-371.4 690.49,-356.77 689.5,-344 688.81,-335.14 689.37,-332.89 689.5,-324 691.1,-212.52 695.91,-78.77 697.76,-29.99"/>
<polygon fill="midnightblue" stroke="midnightblue" points="701.27,-29.84 698.16,-19.71 694.28,-29.57 701.27,-29.84"/>
</g>
<!-- Node11 -->
<g id="node11" class="node">
<title>Node11</title>
<g id="a_node11"><a xlink:href="AR_8h.html" target="_top" xlink:title=" ">
<polygon fill="white" stroke="black" points="699,-324.5 699,-343.5 748,-343.5 748,-324.5 699,-324.5"/>
<text text-anchor="middle" x="723.5" y="-331.5" font-family="Helvetica,sans-Serif" font-size="10.00">ar/AR.h</text>
</a>
</g>
</g>
<!-- Node10&#45;&gt;Node11 -->
<g id="edge15" class="edge">
<title>Node10&#45;&gt;Node11</title>
<path fill="none" stroke="midnightblue" d="M700.96,-380.08C704.65,-372.69 710.02,-361.95 714.59,-352.81"/>
<polygon fill="midnightblue" stroke="midnightblue" points="717.78,-354.26 719.12,-343.75 711.52,-351.13 717.78,-354.26"/>
</g>
<!-- Node12 -->
<g id="node12" class="node">
<title>Node12</title>
<g id="a_node12"><a xlink:href="ARQ_8h.html" target="_top" xlink:title=" ">
<polygon fill="white" stroke="black" points="777.5,-263 777.5,-282 833.5,-282 833.5,-263 777.5,-263"/>
<text text-anchor="middle" x="805.5" y="-270" font-family="Helvetica,sans-Serif" font-size="10.00">ar/ARQ.h</text>
</a>
</g>
</g>
<!-- Node10&#45;&gt;Node12 -->
<g id="edge17" class="edge">
<title>Node10&#45;&gt;Node12</title>
<path fill="none" stroke="midnightblue" d="M721.69,-388.37C752.06,-386.09 801.94,-377.16 825.5,-344 836.85,-328.02 827.3,-305.75 817.89,-290.54"/>
<polygon fill="midnightblue" stroke="midnightblue" points="820.71,-288.46 812.24,-282.1 814.9,-292.36 820.71,-288.46"/>
</g>
<!-- Node13 -->
<g id="node13" class="node">
<title>Node13</title>
<g id="a_node13"><a xlink:href="mwcc_8h.html" target="_top" xlink:title=" ">
<polygon fill="white" stroke="black" points="766.5,-324.5 766.5,-343.5 816.5,-343.5 816.5,-324.5 766.5,-324.5"/>
<text text-anchor="middle" x="791.5" y="-331.5" font-family="Helvetica,sans-Serif" font-size="10.00">mwcc.h</text>
</a>
</g>
</g>
<!-- Node10&#45;&gt;Node13 -->
<g id="edge19" class="edge">
<title>Node10&#45;&gt;Node13</title>
<path fill="none" stroke="midnightblue" d="M711.76,-380.32C726.72,-371.82 749.75,-358.73 767.23,-348.8"/>
<polygon fill="midnightblue" stroke="midnightblue" points="769.31,-351.64 776.27,-343.65 765.85,-345.55 769.31,-351.64"/>
</g>
<!-- Node14 -->
<g id="node14" class="node">
<title>Node14</title>
<g id="a_node14"><a xlink:href="OS_8h.html" target="_top" xlink:title=" ">
<polygon fill="white" stroke="black" points="848.5,-129 848.5,-148 900.5,-148 900.5,-129 848.5,-129"/>
<text text-anchor="middle" x="874.5" y="-136" font-family="Helvetica,sans-Serif" font-size="10.00">os/OS.h</text>
</a>
</g>
</g>
<!-- Node10&#45;&gt;Node14 -->
<g id="edge20" class="edge">
<title>Node10&#45;&gt;Node14</title>
<path fill="none" stroke="midnightblue" d="M721.69,-388.89C754.72,-387.28 812.03,-379.19 842.5,-344 888.95,-290.34 882.78,-197.76 877.53,-158.25"/>
<polygon fill="midnightblue" stroke="midnightblue" points="880.97,-157.57 876.05,-148.19 874.04,-158.59 880.97,-157.57"/>
</g>
<!-- Node16 -->
<g id="node16" class="node">
<title>Node16</title>
<g id="a_node16"><a xlink:href="variables_8h.html" target="_top" xlink:title=" ">
<polygon fill="white" stroke="black" points="560,-324.5 560,-343.5 623,-343.5 623,-324.5 560,-324.5"/>
<text text-anchor="middle" x="591.5" y="-331.5" font-family="Helvetica,sans-Serif" font-size="10.00">variables.h</text>
</a>
</g>
</g>
<!-- Node10&#45;&gt;Node16 -->
<g id="edge24" class="edge">
<title>Node10&#45;&gt;Node16</title>
<path fill="none" stroke="midnightblue" d="M679.63,-380.32C662.79,-371.66 636.69,-358.24 617.26,-348.25"/>
<polygon fill="midnightblue" stroke="midnightblue" points="618.82,-345.12 608.33,-343.65 615.62,-351.34 618.82,-345.12"/>
</g>
<!-- Node11&#45;&gt;Node6 -->
<g id="edge16" class="edge">
<title>Node11&#45;&gt;Node6</title>
<path fill="none" stroke="midnightblue" d="M724.99,-324.44C728.41,-304.08 736.5,-251.1 736.5,-206.5 736.5,-206.5 736.5,-206.5 736.5,-137.5 736.5,-97.35 718.72,-52.95 707.49,-28.89"/>
<polygon fill="midnightblue" stroke="midnightblue" points="710.51,-27.1 703.01,-19.63 704.21,-30.15 710.51,-27.1"/>
</g>
<!-- Node12&#45;&gt;Node6 -->
<g id="edge18" class="edge">
<title>Node12&#45;&gt;Node6</title>
<path fill="none" stroke="midnightblue" d="M805.13,-262.98C803.44,-232.56 794.56,-127.27 750.5,-56 743.05,-43.94 731.32,-33.39 720.89,-25.54"/>
<polygon fill="midnightblue" stroke="midnightblue" points="722.73,-22.55 712.55,-19.6 718.67,-28.25 722.73,-22.55"/>
</g>
<!-- Node14&#45;&gt;Node6 -->
<g id="edge21" class="edge">
<title>Node14&#45;&gt;Node6</title>
<path fill="none" stroke="midnightblue" d="M877.09,-128.72C881.32,-112.4 887.64,-77.12 870.5,-56 855.26,-37.23 794.27,-24.58 749.22,-17.59"/>
<polygon fill="midnightblue" stroke="midnightblue" points="749.71,-14.13 739.3,-16.1 748.67,-21.05 749.71,-14.13"/>
</g>
<!-- Node15 -->
<g id="node15" class="node">
<title>Node15</title>
<g id="a_node15"><a xlink:href="dvd_8h.html" target="_top" xlink:title=" ">
<polygon fill="white" stroke="black" points="803,-62 803,-81 862,-81 862,-62 803,-62"/>
<text text-anchor="middle" x="832.5" y="-69" font-family="Helvetica,sans-Serif" font-size="10.00">dvd/dvd.h</text>
</a>
</g>
</g>
<!-- Node14&#45;&gt;Node15 -->
<g id="edge22" class="edge">
<title>Node14&#45;&gt;Node15</title>
<path fill="none" stroke="midnightblue" d="M868.84,-128.73C862.41,-118.79 851.78,-102.34 843.67,-89.79"/>
<polygon fill="midnightblue" stroke="midnightblue" points="846.44,-87.63 838.07,-81.13 840.56,-91.43 846.44,-87.63"/>
</g>
<!-- Node15&#45;&gt;Node6 -->
<g id="edge23" class="edge">
<title>Node15&#45;&gt;Node6</title>
<path fill="none" stroke="midnightblue" d="M813.3,-61.98C790.71,-51.95 753,-35.2 727,-23.65"/>
<polygon fill="midnightblue" stroke="midnightblue" points="728.22,-20.37 717.66,-19.51 725.38,-26.77 728.22,-20.37"/>
</g>
<!-- Node16&#45;&gt;Node9 -->
<g id="edge25" class="edge">
<title>Node16&#45;&gt;Node9</title>
<path fill="none" stroke="midnightblue" d="M559.71,-325.66C537.89,-319.11 509.69,-307.48 491.5,-288 478.16,-273.71 440.28,-139.92 430.5,-123 424.62,-112.82 416.67,-102.66 409.26,-94.14"/>
<polygon fill="midnightblue" stroke="midnightblue" points="411.71,-91.63 402.42,-86.53 406.51,-96.31 411.71,-91.63"/>
</g>
<!-- Node17 -->
<g id="node17" class="node">
<title>Node17</title>
<g id="a_node17"><a xlink:href="JUTXfb_8h.html" target="_top" xlink:title=" ">
<polygon fill="white" stroke="black" points="501,-257.5 501,-287.5 626,-287.5 626,-257.5 501,-257.5"/>
<text text-anchor="start" x="509" y="-275.5" font-family="Helvetica,sans-Serif" font-size="10.00">JSystem/JUtility/JUTXfb</text>
<text text-anchor="middle" x="563.5" y="-264.5" font-family="Helvetica,sans-Serif" font-size="10.00">/JUTXfb.h</text>
</a>
</g>
</g>
<!-- Node16&#45;&gt;Node17 -->
<g id="edge26" class="edge">
<title>Node16&#45;&gt;Node17</title>
<path fill="none" stroke="midnightblue" d="M587.49,-324.48C584.09,-317.25 579.04,-306.53 574.45,-296.78"/>
<polygon fill="midnightblue" stroke="midnightblue" points="577.52,-295.08 570.1,-287.52 571.19,-298.06 577.52,-295.08"/>
</g>
<!-- Node20 -->
<g id="node20" class="node">
<title>Node20</title>
<g id="a_node20"><a xlink:href="mtx__vec_8h.html" target="_top" xlink:title=" ">
<polygon fill="white" stroke="black" points="609,-196 609,-215 670,-215 670,-196 609,-196"/>
<text text-anchor="middle" x="639.5" y="-203" font-family="Helvetica,sans-Serif" font-size="10.00">mtx_vec.h</text>
</a>
</g>
</g>
<!-- Node16&#45;&gt;Node20 -->
<g id="edge34" class="edge">
<title>Node16&#45;&gt;Node20</title>
<path fill="none" stroke="midnightblue" d="M603.77,-324.21C614,-316.09 627.92,-303.05 634.5,-288 643.26,-267.95 643.28,-242.44 641.9,-225.35"/>
<polygon fill="midnightblue" stroke="midnightblue" points="645.35,-224.62 640.82,-215.04 638.38,-225.35 645.35,-224.62"/>
</g>
<!-- Node17&#45;&gt;Node6 -->
<g id="edge31" class="edge">
<title>Node17&#45;&gt;Node6</title>
<path fill="none" stroke="midnightblue" d="M569.27,-257.49C576.11,-241.13 588.02,-213.32 599.5,-190 629.45,-129.15 639.31,-115.14 672.5,-56 677.64,-46.84 683.48,-36.7 688.33,-28.37"/>
<polygon fill="midnightblue" stroke="midnightblue" points="691.43,-29.99 693.45,-19.59 685.39,-26.46 691.43,-29.99"/>
</g>
<!-- Node18 -->
<g id="node18" class="node">
<title>Node18</title>
<g id="a_node18"><a xlink:href="JKRHeap_8h.html" target="_top" xlink:title=" ">
<polygon fill="white" stroke="black" points="308.5,-190.5 308.5,-220.5 444.5,-220.5 444.5,-190.5 308.5,-190.5"/>
<text text-anchor="start" x="316.5" y="-208.5" font-family="Helvetica,sans-Serif" font-size="10.00">JSystem/JKernel/JKRHeap</text>
<text text-anchor="middle" x="376.5" y="-197.5" font-family="Helvetica,sans-Serif" font-size="10.00">/JKRHeap.h</text>
</a>
</g>
</g>
<!-- Node17&#45;&gt;Node18 -->
<g id="edge27" class="edge">
<title>Node17&#45;&gt;Node18</title>
<path fill="none" stroke="midnightblue" d="M522.92,-257.4C494.62,-247.56 456.67,-234.37 426.5,-223.88"/>
<polygon fill="midnightblue" stroke="midnightblue" points="427.59,-220.55 417,-220.58 425.29,-227.17 427.59,-220.55"/>
</g>
<!-- Node19 -->
<g id="node19" class="node">
<title>Node19</title>
<g id="a_node19"><a xlink:href="GX_8h.html" target="_top" xlink:title=" ">
<polygon fill="white" stroke="black" points="501,-196 501,-215 552,-215 552,-196 501,-196"/>
<text text-anchor="middle" x="526.5" y="-203" font-family="Helvetica,sans-Serif" font-size="10.00">gx/GX.h</text>
</a>
</g>
</g>
<!-- Node17&#45;&gt;Node19 -->
<g id="edge32" class="edge">
<title>Node17&#45;&gt;Node19</title>
<path fill="none" stroke="midnightblue" d="M555.47,-257.4C549.87,-247.56 542.37,-234.38 536.4,-223.89"/>
<polygon fill="midnightblue" stroke="midnightblue" points="539.44,-222.15 531.45,-215.19 533.35,-225.62 539.44,-222.15"/>
</g>
<!-- Node18&#45;&gt;Node6 -->
<g id="edge29" class="edge">
<title>Node18&#45;&gt;Node6</title>
<path fill="none" stroke="midnightblue" d="M391.67,-190.31C429.48,-155.06 526.1,-65.61 543.5,-56 576.03,-38.03 616.47,-26.6 647.88,-19.76"/>
<polygon fill="midnightblue" stroke="midnightblue" points="648.67,-23.17 657.74,-17.69 647.23,-16.32 648.67,-23.17"/>
</g>
<!-- Node18&#45;&gt;Node8 -->
<g id="edge28" class="edge">
<title>Node18&#45;&gt;Node8</title>
<path fill="none" stroke="midnightblue" d="M369.99,-190.4C366.26,-182.3 361.47,-171.94 357.2,-162.69"/>
<polygon fill="midnightblue" stroke="midnightblue" points="360.37,-161.19 353,-153.58 354.01,-164.12 360.37,-161.19"/>
</g>
<!-- Node18&#45;&gt;Node10 -->
<g id="edge30" class="edge">
<title>Node18&#45;&gt;Node10</title>
<path fill="none" stroke="midnightblue" d="M388.95,-220.79C404.29,-237.92 431.64,-266.96 458.5,-288 496.18,-317.52 506.85,-324.36 550.5,-344 586.96,-360.41 631.1,-373.09 661.23,-380.75"/>
<polygon fill="midnightblue" stroke="midnightblue" points="660.73,-384.23 671.27,-383.25 662.41,-377.44 660.73,-384.23"/>
</g>
<!-- Node19&#45;&gt;Node6 -->
<g id="edge33" class="edge">
<title>Node19&#45;&gt;Node6</title>
<path fill="none" stroke="midnightblue" d="M526.2,-195.8C525.81,-170.63 528.17,-96.92 566.5,-56 587.58,-33.49 620.36,-22.24 647.97,-16.62"/>
<polygon fill="midnightblue" stroke="midnightblue" points="648.68,-20.05 657.88,-14.79 647.41,-13.16 648.68,-20.05"/>
</g>
<!-- Node20&#45;&gt;Node6 -->
<g id="edge35" class="edge">
<title>Node20&#45;&gt;Node6</title>
<path fill="none" stroke="midnightblue" d="M642.12,-195.79C649,-172.88 668.21,-109.05 684.5,-56 687.21,-47.19 690.24,-37.42 692.79,-29.24"/>
<polygon fill="midnightblue" stroke="midnightblue" points="696.16,-30.21 695.8,-19.62 689.47,-28.12 696.16,-30.21"/>
</g>
<!-- Node21&#45;&gt;Node6 -->
<g id="edge45" class="edge">
<title>Node21&#45;&gt;Node6</title>
<path fill="none" stroke="midnightblue" d="M1064.06,-257.11C1055.12,-247.54 1043.97,-234.33 1036.5,-221 998.66,-153.43 1039.68,-105.94 980.5,-56 946.42,-27.24 820.97,-16.68 749.41,-12.94"/>
<polygon fill="midnightblue" stroke="midnightblue" points="749.42,-9.44 739.25,-12.44 749.07,-16.43 749.42,-9.44"/>
</g>
<!-- Node22 -->
<g id="node22" class="node">
<title>Node22</title>
<g id="a_node22"><a xlink:href="JSURandomInputStream_8h.html" target="_top" xlink:title=" ">
<polygon fill="white" stroke="black" points="1046,-190.5 1046,-220.5 1235,-220.5 1235,-190.5 1046,-190.5"/>
<text text-anchor="start" x="1054" y="-208.5" font-family="Helvetica,sans-Serif" font-size="10.00">JSystem/JSupport/JSURandom</text>
<text text-anchor="middle" x="1140.5" y="-197.5" font-family="Helvetica,sans-Serif" font-size="10.00">InputStream/JSURandomInputStream.h</text>
</a>
</g>
</g>
<!-- Node21&#45;&gt;Node22 -->
<g id="edge39" class="edge">
<title>Node21&#45;&gt;Node22</title>
<path fill="none" stroke="midnightblue" d="M1091.95,-257.4C1100.16,-248.79 1110.81,-237.63 1120.05,-227.94"/>
<polygon fill="midnightblue" stroke="midnightblue" points="1122.7,-230.23 1127.07,-220.58 1117.64,-225.4 1122.7,-230.23"/>
</g>
<!-- Node22&#45;&gt;Node6 -->
<g id="edge44" class="edge">
<title>Node22&#45;&gt;Node6</title>
<path fill="none" stroke="midnightblue" d="M1173.09,-190.39C1189.32,-181.92 1208.07,-169.72 1220.5,-154 1248.25,-118.91 1273.81,-88.91 1243.5,-56 1210.39,-20.05 877.91,-12.82 749.1,-11.36"/>
<polygon fill="midnightblue" stroke="midnightblue" points="749.13,-7.86 739.1,-11.26 749.06,-14.86 749.13,-7.86"/>
</g>
<!-- Node23 -->
<g id="node23" class="node">
<title>Node23</title>
<g id="a_node23"><a xlink:href="JSUInputStream_8h.html" target="_top" xlink:title=" ">
<polygon fill="white" stroke="black" points="1070,-123.5 1070,-153.5 1211,-153.5 1211,-123.5 1070,-123.5"/>
<text text-anchor="start" x="1078" y="-141.5" font-family="Helvetica,sans-Serif" font-size="10.00">JSystem/JSupport/JSUInput</text>
<text text-anchor="middle" x="1140.5" y="-130.5" font-family="Helvetica,sans-Serif" font-size="10.00">Stream.h</text>
</a>
</g>
</g>
<!-- Node22&#45;&gt;Node23 -->
<g id="edge40" class="edge">
<title>Node22&#45;&gt;Node23</title>
<path fill="none" stroke="midnightblue" d="M1140.5,-190.4C1140.5,-182.64 1140.5,-172.81 1140.5,-163.86"/>
<polygon fill="midnightblue" stroke="midnightblue" points="1144,-163.58 1140.5,-153.58 1137,-163.58 1144,-163.58"/>
</g>
<!-- Node23&#45;&gt;Node6 -->
<g id="edge43" class="edge">
<title>Node23&#45;&gt;Node6</title>
<path fill="none" stroke="midnightblue" d="M1117.81,-123.46C1101.9,-113.51 1080.22,-99.71 1061.5,-87 1042.01,-73.76 1040.36,-64.79 1018.5,-56 928.63,-19.88 814.44,-12.01 749.61,-10.72"/>
<polygon fill="midnightblue" stroke="midnightblue" points="749.3,-7.21 739.25,-10.56 749.2,-14.21 749.3,-7.21"/>
</g>
<!-- Node24 -->
<g id="node24" class="node">
<title>Node24</title>
<g id="a_node24"><a xlink:href="JSUIosBase_8h.html" target="_top" xlink:title=" ">
<polygon fill="white" stroke="black" points="1071,-62 1071,-81 1234,-81 1234,-62 1071,-62"/>
<text text-anchor="middle" x="1152.5" y="-69" font-family="Helvetica,sans-Serif" font-size="10.00">JSystem/JSupport/JSUIosBase.h</text>
</a>
</g>
</g>
<!-- Node23&#45;&gt;Node24 -->
<g id="edge41" class="edge">
<title>Node23&#45;&gt;Node24</title>
<path fill="none" stroke="midnightblue" d="M1143.1,-123.4C1144.85,-113.96 1147.16,-101.45 1149.05,-91.19"/>
<polygon fill="midnightblue" stroke="midnightblue" points="1152.52,-91.66 1150.89,-81.19 1145.64,-90.39 1152.52,-91.66"/>
</g>
<!-- Node24&#45;&gt;Node6 -->
<g id="edge42" class="edge">
<title>Node24&#45;&gt;Node6</title>
<path fill="none" stroke="midnightblue" d="M1097.71,-61.98C1084.24,-59.96 1069.86,-57.85 1056.5,-56 947.16,-40.87 818.73,-25.25 749.3,-16.98"/>
<polygon fill="midnightblue" stroke="midnightblue" points="749.42,-13.47 739.08,-15.77 748.6,-20.42 749.42,-13.47"/>
</g>
</g>
</svg>
        <g id="navigator" transform="translate(0 0)" fill="#404254">
                <rect fill="#f2f5e9" fill-opacity="0.5" stroke="#606060" stroke-width=".5" x="0" y="0" width="60" height="60"/>
                <use id="zoomplus" xlink:href="#zoomPlus" x="17" y="9" onmousedown="handleZoom(evt,'in')"/>
                <use id="zoomminus" xlink:href="#zoomMin" x="42" y="9" onmousedown="handleZoom(evt,'out')"/>
                <use id="reset" xlink:href="#resetDef" x="30" y="36" onmousedown="handleReset()"/>
                <g id="arrowUp" xlink:href="#dirArrow" transform="translate(30 24)" onmousedown="handlePan(0,-1)">
                  <use xlink:href="#rim" fill="#404040">
                        <set attributeName="fill" to="#808080" begin="arrowUp.mouseover" end="arrowUp.mouseout"/>
                  </use>
                  <path fill="none" stroke="white" stroke-width="1.5" d="M0,-3.0v7 M-2.5,-0.5L0,-3.0L2.5,-0.5"/>
                </g>
                <g id="arrowRight" xlink:href="#dirArrow" transform="rotate(90) translate(36 -43)" onmousedown="handlePan(1,0)">
                  <use xlink:href="#rim" fill="#404040">
                        <set attributeName="fill" to="#808080" begin="arrowRight.mouseover" end="arrowRight.mouseout"/>
                  </use>
                  <path fill="none" stroke="white" stroke-width="1.5" d="M0,-3.0v7 M-2.5,-0.5L0,-3.0L2.5,-0.5"/>
                </g>
                <g id="arrowDown" xlink:href="#dirArrow" transform="rotate(180) translate(-30 -48)" onmousedown="handlePan(0,1)">
                  <use xlink:href="#rim" fill="#404040">
                        <set attributeName="fill" to="#808080" begin="arrowDown.mouseover" end="arrowDown.mouseout"/>
                  </use>
                  <path fill="none" stroke="white" stroke-width="1.5" d="M0,-3.0v7 M-2.5,-0.5L0,-3.0L2.5,-0.5"/>
                </g>
                <g id="arrowLeft" xlink:href="#dirArrow" transform="rotate(270) translate(-36 17)" onmousedown="handlePan(-1,0)">
                  <use xlink:href="#rim" fill="#404040">
                        <set attributeName="fill" to="#808080" begin="arrowLeft.mouseover" end="arrowLeft.mouseout"/>
                  </use>
                  <path fill="none" stroke="white" stroke-width="1.5" d="M0,-3.0v7 M-2.5,-0.5L0,-3.0L2.5,-0.5"/>
                </g>
        </g>
        <svg viewBox="0 0 15 15" width="100%" height="30px" preserveAspectRatio="xMaxYMin meet">
         <g id="arrow_out" transform="scale(0.3 0.3)">
          <a xlink:href="JKRDvdAramRipper_8h__incl_org.svg" target="_base">
           <rect id="button" ry="5" rx="5" y="6" x="6" height="38" width="38"
                fill="#f2f5e9" fill-opacity="0.5" stroke="#606060" stroke-width="1.0"/>
           <path id="arrow"
             d="M 11.500037,31.436501 C 11.940474,20.09759 22.043105,11.32322 32.158766,21.979434 L 37.068811,17.246167 C 37.068811,17.246167 37.088388,32 37.088388,32 L 22.160133,31.978069 C 22.160133,31.978069 26.997745,27.140456 26.997745,27.140456 C 18.528582,18.264221 13.291696,25.230495 11.500037,31.436501 z"
             style="fill:#404040;"/>
          </a>
         </g>
        </svg>
</svg>
