<?xml version="1.0" encoding="UTF-8" standalone="no"?>
<!DOCTYPE svg PUBLIC "-//W3C//DTD SVG 1.1//EN"
 "http://www.w3.org/Graphics/SVG/1.1/DTD/svg11.dtd">
<!-- Generated by graphviz version 2.46.1 (20210215.1649)
 -->
<!-- Title: include/JSystem/JKernel/JKRDvdFile/JKRDvdFile.h Pages: 1 -->
<svg width="793pt" height="475pt"
 viewBox="0.00 0.00 793.00 475.00" xmlns="http://www.w3.org/2000/svg" xmlns:xlink="http://www.w3.org/1999/xlink">
<g id="graph0" class="graph" transform="scale(1 1) rotate(0) translate(4 471)">
<title>include/JSystem/JKernel/JKRDvdFile/JKRDvdFile.h</title>
<polygon fill="white" stroke="transparent" points="-4,4 -4,-471 789,-471 789,4 -4,4"/>
<!-- Node1 -->
<g id="node1" class="node">
<title>Node1</title>
<g id="a_node1"><a xlink:title=" ">
<polygon fill="#bfbfbf" stroke="black" points="44,-436.5 44,-466.5 178,-466.5 178,-436.5 44,-436.5"/>
<text text-anchor="start" x="52" y="-454.5" font-family="Helvetica,sans-Serif" font-size="10.00">include/JSystem/JKernel</text>
<text text-anchor="middle" x="111" y="-443.5" font-family="Helvetica,sans-Serif" font-size="10.00">/JKRDvdFile/JKRDvdFile.h</text>
</a>
</g>
</g>
<!-- Node2 -->
<g id="node2" class="node">
<title>Node2</title>
<g id="a_node2"><a xlink:href="JKRFile_8h.html" target="_top" xlink:title=" ">
<polygon fill="white" stroke="black" points="66,-190.5 66,-220.5 194,-220.5 194,-190.5 66,-190.5"/>
<text text-anchor="start" x="74" y="-208.5" font-family="Helvetica,sans-Serif" font-size="10.00">JSystem/JKernel/JKRFile</text>
<text text-anchor="middle" x="130" y="-197.5" font-family="Helvetica,sans-Serif" font-size="10.00">/JKRFile.h</text>
</a>
</g>
</g>
<!-- Node1&#45;&gt;Node2 -->
<g id="edge1" class="edge">
<title>Node1&#45;&gt;Node2</title>
<path fill="none" stroke="midnightblue" d="M112.1,-436.33C115.23,-396.15 124.19,-281.17 128.11,-230.72"/>
<polygon fill="midnightblue" stroke="midnightblue" points="131.61,-230.95 128.89,-220.71 124.63,-230.41 131.61,-230.95"/>
</g>
<!-- Node5 -->
<g id="node5" class="node">
<title>Node5</title>
<g id="a_node5"><a xlink:href="types_8h.html" target="_top" xlink:title=" ">
<polygon fill="white" stroke="black" points="302.5,-0.5 302.5,-19.5 383.5,-19.5 383.5,-0.5 302.5,-0.5"/>
<text text-anchor="middle" x="343" y="-7.5" font-family="Helvetica,sans-Serif" font-size="10.00">dolphin/types.h</text>
</a>
</g>
</g>
<!-- Node1&#45;&gt;Node5 -->
<g id="edge7" class="edge">
<title>Node1&#45;&gt;Node5</title>
<path fill="none" stroke="midnightblue" d="M82.41,-436.48C49.53,-418.11 0,-382.56 0,-335 0,-335 0,-335 0,-137.5 0,-89.75 28.38,-79.4 70,-56 107.19,-35.09 224.21,-21.53 292.37,-15.19"/>
<polygon fill="midnightblue" stroke="midnightblue" points="292.82,-18.66 302.46,-14.27 292.18,-11.69 292.82,-18.66"/>
</g>
<!-- Node6 -->
<g id="node6" class="node">
<title>Node6</title>
<g id="a_node6"><a xlink:href="dvd_8h.html" target="_top" xlink:title=" ">
<polygon fill="white" stroke="black" points="42.5,-263 42.5,-282 101.5,-282 101.5,-263 42.5,-263"/>
<text text-anchor="middle" x="72" y="-270" font-family="Helvetica,sans-Serif" font-size="10.00">dvd/dvd.h</text>
</a>
</g>
</g>
<!-- Node1&#45;&gt;Node6 -->
<g id="edge8" class="edge">
<title>Node1&#45;&gt;Node6</title>
<path fill="none" stroke="midnightblue" d="M107.87,-436.31C100.89,-404.63 84.03,-328.11 76.17,-292.42"/>
<polygon fill="midnightblue" stroke="midnightblue" points="79.53,-291.39 73.96,-282.37 72.69,-292.89 79.53,-291.39"/>
</g>
<!-- Node7 -->
<g id="node7" class="node">
<title>Node7</title>
<g id="a_node7"><a xlink:href="global_8h.html" target="_top" xlink:title=" ">
<polygon fill="white" stroke="black" points="489,-380.5 489,-399.5 539,-399.5 539,-380.5 489,-380.5"/>
<text text-anchor="middle" x="514" y="-387.5" font-family="Helvetica,sans-Serif" font-size="10.00">global.h</text>
</a>
</g>
</g>
<!-- Node1&#45;&gt;Node7 -->
<g id="edge10" class="edge">
<title>Node1&#45;&gt;Node7</title>
<path fill="none" stroke="midnightblue" d="M178.45,-440.54C265.02,-427.76 411.99,-406.06 478.92,-396.18"/>
<polygon fill="midnightblue" stroke="midnightblue" points="479.58,-399.62 488.96,-394.7 478.55,-392.7 479.58,-399.62"/>
</g>
<!-- Node3 -->
<g id="node3" class="node">
<title>Node3</title>
<g id="a_node3"><a xlink:href="JKRDisposer_8h.html" target="_top" xlink:title=" ">
<polygon fill="white" stroke="black" points="221.5,-123.5 221.5,-153.5 372.5,-153.5 372.5,-123.5 221.5,-123.5"/>
<text text-anchor="start" x="229.5" y="-141.5" font-family="Helvetica,sans-Serif" font-size="10.00">JSystem/JKernel/JKRDisposer</text>
<text text-anchor="middle" x="297" y="-130.5" font-family="Helvetica,sans-Serif" font-size="10.00">/JKRDisposer.h</text>
</a>
</g>
</g>
<!-- Node2&#45;&gt;Node3 -->
<g id="edge2" class="edge">
<title>Node2&#45;&gt;Node3</title>
<path fill="none" stroke="midnightblue" d="M166.24,-190.4C191.18,-180.69 224.53,-167.71 251.3,-157.29"/>
<polygon fill="midnightblue" stroke="midnightblue" points="252.78,-160.47 260.83,-153.58 250.25,-153.94 252.78,-160.47"/>
</g>
<!-- Node2&#45;&gt;Node5 -->
<g id="edge6" class="edge">
<title>Node2&#45;&gt;Node5</title>
<path fill="none" stroke="midnightblue" d="M118.83,-190.43C111.91,-180.79 103.67,-167.37 100,-154 88.47,-112 72.15,-89.49 100,-56 123.94,-27.22 228.19,-16.76 292.11,-13.03"/>
<polygon fill="midnightblue" stroke="midnightblue" points="292.6,-16.5 302.39,-12.46 292.21,-9.52 292.6,-16.5"/>
</g>
<!-- Node4 -->
<g id="node4" class="node">
<title>Node4</title>
<g id="a_node4"><a xlink:href="JSUList_8h.html" target="_top" xlink:title=" ">
<polygon fill="white" stroke="black" points="275,-56.5 275,-86.5 411,-86.5 411,-56.5 275,-56.5"/>
<text text-anchor="start" x="283" y="-74.5" font-family="Helvetica,sans-Serif" font-size="10.00">JSystem/JSupport/JSUList</text>
<text text-anchor="middle" x="343" y="-63.5" font-family="Helvetica,sans-Serif" font-size="10.00">/JSUList.h</text>
</a>
</g>
</g>
<!-- Node3&#45;&gt;Node4 -->
<g id="edge3" class="edge">
<title>Node3&#45;&gt;Node4</title>
<path fill="none" stroke="midnightblue" d="M306.98,-123.4C312.89,-115.05 320.5,-104.29 327.21,-94.81"/>
<polygon fill="midnightblue" stroke="midnightblue" points="330.12,-96.76 333.04,-86.58 324.4,-92.72 330.12,-96.76"/>
</g>
<!-- Node3&#45;&gt;Node5 -->
<g id="edge5" class="edge">
<title>Node3&#45;&gt;Node5</title>
<path fill="none" stroke="midnightblue" d="M284.28,-123.35C270.86,-106.6 253.27,-78.19 266,-56 274.62,-40.99 290.39,-30.5 305.43,-23.46"/>
<polygon fill="midnightblue" stroke="midnightblue" points="306.82,-26.67 314.63,-19.51 304.06,-20.24 306.82,-26.67"/>
</g>
<!-- Node4&#45;&gt;Node5 -->
<g id="edge4" class="edge">
<title>Node4&#45;&gt;Node5</title>
<path fill="none" stroke="midnightblue" d="M343,-56.4C343,-48.47 343,-38.46 343,-29.86"/>
<polygon fill="midnightblue" stroke="midnightblue" points="346.5,-29.66 343,-19.66 339.5,-29.66 346.5,-29.66"/>
</g>
<!-- Node6&#45;&gt;Node5 -->
<g id="edge9" class="edge">
<title>Node6&#45;&gt;Node5</title>
<path fill="none" stroke="midnightblue" d="M68.55,-262.73C64.84,-252.8 59.18,-236.02 57,-221 48.58,-163.06 80.82,-57.16 82,-56 110.98,-27.42 224.69,-16.85 292.09,-13.05"/>
<polygon fill="midnightblue" stroke="midnightblue" points="292.68,-16.52 302.48,-12.49 292.31,-9.53 292.68,-16.52"/>
</g>
<!-- Node7&#45;&gt;Node5 -->
<g id="edge11" class="edge">
<title>Node7&#45;&gt;Node5</title>
<path fill="none" stroke="midnightblue" d="M527.93,-380.32C567.7,-354.34 677.15,-273.8 650,-190 627.34,-120.06 614.59,-96.15 553,-56 505.04,-24.74 439.07,-14.79 393.94,-11.83"/>
<polygon fill="midnightblue" stroke="midnightblue" points="393.98,-8.33 383.8,-11.26 393.58,-15.32 393.98,-8.33"/>
</g>
<!-- Node8 -->
<g id="node8" class="node">
<title>Node8</title>
<g id="a_node8"><a xlink:href="AR_8h.html" target="_top" xlink:title=" ">
<polygon fill="white" stroke="black" points="682.5,-129 682.5,-148 731.5,-148 731.5,-129 682.5,-129"/>
<text text-anchor="middle" x="707" y="-136" font-family="Helvetica,sans-Serif" font-size="10.00">ar/AR.h</text>
</a>
</g>
</g>
<!-- Node7&#45;&gt;Node8 -->
<g id="edge12" class="edge">
<title>Node7&#45;&gt;Node8</title>
<path fill="none" stroke="midnightblue" d="M539.14,-385.78C581.49,-379.81 664.27,-365.63 683,-344 729.32,-290.51 718.36,-197.49 711.01,-158.04"/>
<polygon fill="midnightblue" stroke="midnightblue" points="714.43,-157.33 709.03,-148.21 707.57,-158.7 714.43,-157.33"/>
</g>
<!-- Node9 -->
<g id="node9" class="node">
<title>Node9</title>
<g id="a_node9"><a xlink:href="ARQ_8h.html" target="_top" xlink:title=" ">
<polygon fill="white" stroke="black" points="729,-62 729,-81 785,-81 785,-62 729,-62"/>
<text text-anchor="middle" x="757" y="-69" font-family="Helvetica,sans-Serif" font-size="10.00">ar/ARQ.h</text>
</a>
</g>
</g>
<!-- Node7&#45;&gt;Node9 -->
<g id="edge14" class="edge">
<title>Node7&#45;&gt;Node9</title>
<path fill="none" stroke="midnightblue" d="M539.4,-388.59C602.25,-386.1 760,-370.22 760,-273.5 760,-273.5 760,-273.5 760,-204.5 760,-164.15 758.58,-116.87 757.7,-91.28"/>
<polygon fill="midnightblue" stroke="midnightblue" points="761.19,-91.02 757.33,-81.15 754.19,-91.27 761.19,-91.02"/>
</g>
<!-- Node10 -->
<g id="node10" class="node">
<title>Node10</title>
<g id="a_node10"><a xlink:href="mwcc_8h.html" target="_top" xlink:title=" ">
<polygon fill="white" stroke="black" points="240,-324.5 240,-343.5 290,-343.5 290,-324.5 240,-324.5"/>
<text text-anchor="middle" x="265" y="-331.5" font-family="Helvetica,sans-Serif" font-size="10.00">mwcc.h</text>
</a>
</g>
</g>
<!-- Node7&#45;&gt;Node10 -->
<g id="edge16" class="edge">
<title>Node7&#45;&gt;Node10</title>
<path fill="none" stroke="midnightblue" d="M488.75,-384.16C450.21,-376.68 374.18,-361.55 300.17,-344.18"/>
<polygon fill="midnightblue" stroke="midnightblue" points="300.75,-340.72 290.21,-341.83 299.14,-347.54 300.75,-340.72"/>
</g>
<!-- Node11 -->
<g id="node11" class="node">
<title>Node11</title>
<g id="a_node11"><a xlink:href="OS_8h.html" target="_top" xlink:title=" ">
<polygon fill="white" stroke="black" points="308,-324.5 308,-343.5 360,-343.5 360,-324.5 308,-324.5"/>
<text text-anchor="middle" x="334" y="-331.5" font-family="Helvetica,sans-Serif" font-size="10.00">os/OS.h</text>
</a>
</g>
</g>
<!-- Node7&#45;&gt;Node11 -->
<g id="edge17" class="edge">
<title>Node7&#45;&gt;Node11</title>
<path fill="none" stroke="midnightblue" d="M488.97,-381.49C458.11,-372.23 405.43,-356.43 370.17,-345.85"/>
<polygon fill="midnightblue" stroke="midnightblue" points="370.86,-342.4 360.28,-342.88 368.85,-349.11 370.86,-342.4"/>
</g>
<!-- Node12 -->
<g id="node12" class="node">
<title>Node12</title>
<g id="a_node12"><a xlink:href="variables_8h.html" target="_top" xlink:title=" ">
<polygon fill="white" stroke="black" points="414.5,-324.5 414.5,-343.5 477.5,-343.5 477.5,-324.5 414.5,-324.5"/>
<text text-anchor="middle" x="446" y="-331.5" font-family="Helvetica,sans-Serif" font-size="10.00">variables.h</text>
</a>
</g>
</g>
<!-- Node7&#45;&gt;Node12 -->
<g id="edge20" class="edge">
<title>Node7&#45;&gt;Node12</title>
<path fill="none" stroke="midnightblue" d="M503.07,-380.32C492.83,-372.18 477.28,-359.84 465,-350.09"/>
<polygon fill="midnightblue" stroke="midnightblue" points="467.13,-347.31 457.12,-343.83 462.78,-352.79 467.13,-347.31"/>
</g>
<!-- Node8&#45;&gt;Node5 -->
<g id="edge13" class="edge">
<title>Node8&#45;&gt;Node5</title>
<path fill="none" stroke="midnightblue" d="M705.62,-128.9C702.4,-111.89 692.7,-74.05 668,-56 625.41,-24.88 474.37,-15.24 394.07,-12.28"/>
<polygon fill="midnightblue" stroke="midnightblue" points="393.81,-8.77 383.7,-11.92 393.57,-15.77 393.81,-8.77"/>
</g>
<!-- Node9&#45;&gt;Node5 -->
<g id="edge15" class="edge">
<title>Node9&#45;&gt;Node5</title>
<path fill="none" stroke="midnightblue" d="M733.41,-61.97C726.58,-59.75 719.05,-57.55 712,-56 599.81,-31.32 465.24,-19.21 393.65,-14.11"/>
<polygon fill="midnightblue" stroke="midnightblue" points="393.77,-10.61 383.56,-13.41 393.29,-17.6 393.77,-10.61"/>
</g>
<!-- Node11&#45;&gt;Node5 -->
<g id="edge18" class="edge">
<title>Node11&#45;&gt;Node5</title>
<path fill="none" stroke="midnightblue" d="M327.78,-324.29C310.35,-300.34 258.66,-232.5 203,-190 175.19,-168.77 151.22,-183.86 133,-154 125.82,-142.24 126.92,-135.36 133,-123 162.84,-62.35 240.3,-33.48 292.33,-20.54"/>
<polygon fill="midnightblue" stroke="midnightblue" points="293.46,-23.87 302.38,-18.16 291.84,-17.06 293.46,-23.87"/>
</g>
<!-- Node11&#45;&gt;Node6 -->
<g id="edge19" class="edge">
<title>Node11&#45;&gt;Node6</title>
<path fill="none" stroke="midnightblue" d="M307.65,-326.13C304.73,-325.39 301.81,-324.67 299,-324 233.62,-308.33 157.24,-291.67 111.84,-281.95"/>
<polygon fill="midnightblue" stroke="midnightblue" points="112.33,-278.47 101.82,-279.81 110.87,-285.32 112.33,-278.47"/>
</g>
<!-- Node12&#45;&gt;Node4 -->
<g id="edge21" class="edge">
<title>Node12&#45;&gt;Node4</title>
<path fill="none" stroke="midnightblue" d="M440.27,-324.39C434.64,-315.58 426.17,-301.33 421,-288 393.78,-217.73 414.43,-191.02 382,-123 377.21,-112.95 370.17,-103.01 363.38,-94.64"/>
<polygon fill="midnightblue" stroke="midnightblue" points="365.91,-92.21 356.78,-86.85 360.58,-96.74 365.91,-92.21"/>
</g>
<!-- Node13 -->
<g id="node13" class="node">
<title>Node13</title>
<g id="a_node13"><a xlink:href="JUTXfb_8h.html" target="_top" xlink:title=" ">
<polygon fill="white" stroke="black" points="429.5,-257.5 429.5,-287.5 554.5,-287.5 554.5,-257.5 429.5,-257.5"/>
<text text-anchor="start" x="437.5" y="-275.5" font-family="Helvetica,sans-Serif" font-size="10.00">JSystem/JUtility/JUTXfb</text>
<text text-anchor="middle" x="492" y="-264.5" font-family="Helvetica,sans-Serif" font-size="10.00">/JUTXfb.h</text>
</a>
</g>
</g>
<!-- Node12&#45;&gt;Node13 -->
<g id="edge22" class="edge">
<title>Node12&#45;&gt;Node13</title>
<path fill="none" stroke="midnightblue" d="M452.59,-324.48C458.41,-316.94 467.16,-305.63 474.94,-295.57"/>
<polygon fill="midnightblue" stroke="midnightblue" points="477.81,-297.58 481.16,-287.52 472.27,-293.29 477.81,-297.58"/>
</g>
<!-- Node16 -->
<g id="node16" class="node">
<title>Node16</title>
<g id="a_node16"><a xlink:href="mtx__vec_8h.html" target="_top" xlink:title=" ">
<polygon fill="white" stroke="black" points="142.5,-129 142.5,-148 203.5,-148 203.5,-129 142.5,-129"/>
<text text-anchor="middle" x="173" y="-136" font-family="Helvetica,sans-Serif" font-size="10.00">mtx_vec.h</text>
</a>
</g>
</g>
<!-- Node12&#45;&gt;Node16 -->
<g id="edge30" class="edge">
<title>Node12&#45;&gt;Node16</title>
<path fill="none" stroke="midnightblue" d="M433.92,-324.44C391.29,-294.22 247.59,-192.37 193.67,-154.15"/>
<polygon fill="midnightblue" stroke="midnightblue" points="195.44,-151.11 185.25,-148.18 191.39,-156.82 195.44,-151.11"/>
</g>
<!-- Node13&#45;&gt;Node5 -->
<g id="edge27" class="edge">
<title>Node13&#45;&gt;Node5</title>
<path fill="none" stroke="midnightblue" d="M490.7,-257.27C486.63,-220.18 471.23,-119.07 420,-56 408.44,-41.77 391.1,-31.07 375.8,-23.69"/>
<polygon fill="midnightblue" stroke="midnightblue" points="377.16,-20.46 366.6,-19.52 374.26,-26.84 377.16,-20.46"/>
</g>
<!-- Node14 -->
<g id="node14" class="node">
<title>Node14</title>
<g id="a_node14"><a xlink:href="JKRHeap_8h.html" target="_top" xlink:title=" ">
<polygon fill="white" stroke="black" points="505,-190.5 505,-220.5 641,-220.5 641,-190.5 505,-190.5"/>
<text text-anchor="start" x="513" y="-208.5" font-family="Helvetica,sans-Serif" font-size="10.00">JSystem/JKernel/JKRHeap</text>
<text text-anchor="middle" x="573" y="-197.5" font-family="Helvetica,sans-Serif" font-size="10.00">/JKRHeap.h</text>
</a>
</g>
</g>
<!-- Node13&#45;&gt;Node14 -->
<g id="edge23" class="edge">
<title>Node13&#45;&gt;Node14</title>
<path fill="none" stroke="midnightblue" d="M509.58,-257.4C520.61,-248.54 535.04,-236.96 547.35,-227.09"/>
<polygon fill="midnightblue" stroke="midnightblue" points="549.85,-229.56 555.46,-220.58 545.47,-224.11 549.85,-229.56"/>
</g>
<!-- Node15 -->
<g id="node15" class="node">
<title>Node15</title>
<g id="a_node15"><a xlink:href="GX_8h.html" target="_top" xlink:title=" ">
<polygon fill="white" stroke="black" points="467.5,-62 467.5,-81 518.5,-81 518.5,-62 467.5,-62"/>
<text text-anchor="middle" x="493" y="-69" font-family="Helvetica,sans-Serif" font-size="10.00">gx/GX.h</text>
</a>
</g>
</g>
<!-- Node13&#45;&gt;Node15 -->
<g id="edge28" class="edge">
<title>Node13&#45;&gt;Node15</title>
<path fill="none" stroke="midnightblue" d="M492.07,-257.19C492.25,-221.99 492.71,-131.17 492.9,-91.51"/>
<polygon fill="midnightblue" stroke="midnightblue" points="496.41,-91.38 492.96,-81.36 489.41,-91.34 496.41,-91.38"/>
</g>
<!-- Node14&#45;&gt;Node3 -->
<g id="edge24" class="edge">
<title>Node14&#45;&gt;Node3</title>
<path fill="none" stroke="midnightblue" d="M513.45,-190.48C470.34,-180.32 411.94,-166.57 366.66,-155.91"/>
<polygon fill="midnightblue" stroke="midnightblue" points="367.45,-152.5 356.92,-153.61 365.85,-159.31 367.45,-152.5"/>
</g>
<!-- Node14&#45;&gt;Node5 -->
<g id="edge25" class="edge">
<title>Node14&#45;&gt;Node5</title>
<path fill="none" stroke="midnightblue" d="M573.07,-190.28C572.42,-160.75 566.56,-92.47 528,-56 508.83,-37.87 441.63,-24.85 393.75,-17.62"/>
<polygon fill="midnightblue" stroke="midnightblue" points="394.25,-14.16 383.85,-16.17 393.24,-21.08 394.25,-14.16"/>
</g>
<!-- Node14&#45;&gt;Node7 -->
<g id="edge26" class="edge">
<title>Node14&#45;&gt;Node7</title>
<path fill="none" stroke="midnightblue" d="M572.92,-220.63C572.5,-237.12 570.72,-265.05 564,-288 554.92,-319 536.76,-352.03 525,-371.57"/>
<polygon fill="midnightblue" stroke="midnightblue" points="521.92,-369.89 519.67,-380.24 527.89,-373.56 521.92,-369.89"/>
</g>
<!-- Node15&#45;&gt;Node5 -->
<g id="edge29" class="edge">
<title>Node15&#45;&gt;Node5</title>
<path fill="none" stroke="midnightblue" d="M471.51,-61.98C445.89,-51.81 402.89,-34.76 373.76,-23.2"/>
<polygon fill="midnightblue" stroke="midnightblue" points="375.04,-19.94 364.45,-19.51 372.46,-26.45 375.04,-19.94"/>
</g>
<!-- Node16&#45;&gt;Node5 -->
<g id="edge31" class="edge">
<title>Node16&#45;&gt;Node5</title>
<path fill="none" stroke="midnightblue" d="M180.53,-128.83C194.61,-112.98 226.35,-78.87 258,-56 275.42,-43.41 296.82,-32.1 313.78,-23.97"/>
<polygon fill="midnightblue" stroke="midnightblue" points="315.62,-26.98 323.2,-19.57 312.66,-20.64 315.62,-26.98"/>
</g>
</g>
</svg>
