<?xml version="1.0" encoding="UTF-8" standalone="no"?>
<!DOCTYPE svg PUBLIC "-//W3C//DTD SVG 1.1//EN"
 "http://www.w3.org/Graphics/SVG/1.1/DTD/svg11.dtd">
<!-- Generated by graphviz version 2.46.1 (20210215.1649)
 -->
<!-- Title: libs/JSystem/JKernel/JKRDvdArchive.cpp Pages: 1 -->
<!--zoomable 743 -->
<svg id="main" version="1.1" xmlns="http://www.w3.org/2000/svg" xmlns:xlink="http://www.w3.org/1999/xlink" xml:space="preserve" onload="init(evt)">
<style type="text/css"><![CDATA[
.edge:hover path { stroke: red; }
.edge:hover polygon { stroke: red; fill: red; }
]]></style>
<script type="text/javascript"><![CDATA[
var edges = document.getElementsByTagName('g');
if (edges && edges.length) {
  for (var i=0;i<edges.length;i++) {
    if (edges[i].id.substr(0,4)=='edge') {
      edges[i].setAttribute('class','edge');
    }
  }
}
]]></script>
        <defs>
                <circle id="rim" cx="0" cy="0" r="7"/>
                <circle id="rim2" cx="0" cy="0" r="3.5"/>
                <g id="zoomPlus">
                        <use xlink:href="#rim" fill="#404040">
                                <set attributeName="fill" to="#808080" begin="zoomplus.mouseover" end="zoomplus.mouseout"/>
                        </use>
                        <path d="M-4,0h8M0,-4v8" fill="none" stroke="white" stroke-width="1.5" pointer-events="none"/>
                </g>
                <g id="zoomMin">
                        <use xlink:href="#rim" fill="#404040">
                                <set attributeName="fill" to="#808080" begin="zoomminus.mouseover" end="zoomminus.mouseout"/>
                        </use>
                        <path d="M-4,0h8" fill="none" stroke="white" stroke-width="1.5" pointer-events="none"/>
                </g>
                <g id="dirArrow">
                        <path fill="none" stroke="white" stroke-width="1.5" d="M0,-3.0v7 M-2.5,-0.5L0,-3.0L2.5,-0.5"/>
                </g>
               <g id="resetDef">
                       <use xlink:href="#rim2" fill="#404040">
                               <set attributeName="fill" to="#808080" begin="reset.mouseover" end="reset.mouseout"/>
                       </use>
               </g>
        </defs>

<script type="text/javascript">
var viewWidth = 1476;
var viewHeight = 743;
var sectionId = 'dynsection-0';
</script>
<script xlink:href="svgpan.js"/>
<svg id="graph" class="graph">
<g id="viewport">
<title>libs/JSystem/JKernel/JKRDvdArchive.cpp</title>
<polygon fill="white" stroke="transparent" points="-4,4 -4,-739 1471.5,-739 1471.5,4 -4,4"/>
<!-- Node1 -->
<g id="node1" class="node">
<title>Node1</title>
<g id="a_node1"><a xlink:title=" ">
<polygon fill="#bfbfbf" stroke="black" points="1002.5,-704.5 1002.5,-734.5 1111.5,-734.5 1111.5,-704.5 1002.5,-704.5"/>
<text text-anchor="start" x="1010.5" y="-722.5" font-family="Helvetica,sans-Serif" font-size="10.00">libs/JSystem/JKernel</text>
<text text-anchor="middle" x="1057" y="-711.5" font-family="Helvetica,sans-Serif" font-size="10.00">/JKRDvdArchive.cpp</text>
</a>
</g>
</g>
<!-- Node2 -->
<g id="node2" class="node">
<title>Node2</title>
<g id="a_node2"><a xlink:href="JKRDvdArchive_8h.html" target="_top" xlink:title=" ">
<polygon fill="white" stroke="black" points="102.5,-637.5 102.5,-667.5 265.5,-667.5 265.5,-637.5 102.5,-637.5"/>
<text text-anchor="start" x="110.5" y="-655.5" font-family="Helvetica,sans-Serif" font-size="10.00">JSystem/JKernel/JKRDvdArchive</text>
<text text-anchor="middle" x="184" y="-644.5" font-family="Helvetica,sans-Serif" font-size="10.00">/JKRDvdArchive.h</text>
</a>
</g>
</g>
<!-- Node1&#45;&gt;Node2 -->
<g id="edge1" class="edge">
<title>Node1&#45;&gt;Node2</title>
<path fill="none" stroke="midnightblue" d="M1002.39,-714.43C856.58,-703.58 456.91,-673.82 275.6,-660.32"/>
<polygon fill="midnightblue" stroke="midnightblue" points="275.79,-656.82 265.55,-659.57 275.27,-663.81 275.79,-656.82"/>
</g>
<!-- Node11 -->
<g id="node11" class="node">
<title>Node11</title>
<g id="a_node11"><a xlink:href="global_8h.html" target="_top" xlink:title=" ">
<polygon fill="white" stroke="black" points="914,-380.5 914,-399.5 964,-399.5 964,-380.5 914,-380.5"/>
<text text-anchor="middle" x="939" y="-387.5" font-family="Helvetica,sans-Serif" font-size="10.00">global.h</text>
</a>
</g>
</g>
<!-- Node1&#45;&gt;Node11 -->
<g id="edge57" class="edge">
<title>Node1&#45;&gt;Node11</title>
<path fill="none" stroke="midnightblue" d="M1044.47,-704.2C1025.58,-681.13 992,-633.5 992,-586.5 992,-586.5 992,-586.5 992,-517.5 992,-475.64 967.01,-431.63 951.35,-408.15"/>
<polygon fill="midnightblue" stroke="midnightblue" points="954.06,-405.91 945.5,-399.67 948.3,-409.89 954.06,-405.91"/>
</g>
<!-- Node23 -->
<g id="node23" class="node">
<title>Node23</title>
<g id="a_node23"><a xlink:href="JKRDvdFile_8h.html" target="_top" xlink:title=" ">
<polygon fill="white" stroke="black" points="1154,-436.5 1154,-466.5 1300,-466.5 1300,-436.5 1154,-436.5"/>
<text text-anchor="start" x="1162" y="-454.5" font-family="Helvetica,sans-Serif" font-size="10.00">JSystem/JKernel/JKRDvdFile</text>
<text text-anchor="middle" x="1227" y="-443.5" font-family="Helvetica,sans-Serif" font-size="10.00">/JKRDvdFile.h</text>
</a>
</g>
</g>
<!-- Node1&#45;&gt;Node23 -->
<g id="edge44" class="edge">
<title>Node1&#45;&gt;Node23</title>
<path fill="none" stroke="midnightblue" d="M1066.14,-704.2C1094.05,-660.53 1178.34,-528.64 1212.44,-475.28"/>
<polygon fill="midnightblue" stroke="midnightblue" points="1215.59,-476.86 1218.02,-466.55 1209.69,-473.09 1215.59,-476.86"/>
</g>
<!-- Node25 -->
<g id="node25" class="node">
<title>Node25</title>
<g id="a_node25"><a xlink:href="JKRDvdRipper_8h.html" target="_top" xlink:title=" ">
<polygon fill="white" stroke="black" points="391,-570.5 391,-600.5 549,-600.5 549,-570.5 391,-570.5"/>
<text text-anchor="start" x="399" y="-588.5" font-family="Helvetica,sans-Serif" font-size="10.00">JSystem/JKernel/JKRDvdRipper</text>
<text text-anchor="middle" x="470" y="-577.5" font-family="Helvetica,sans-Serif" font-size="10.00">/JKRDvdRipper.h</text>
</a>
</g>
</g>
<!-- Node1&#45;&gt;Node25 -->
<g id="edge51" class="edge">
<title>Node1&#45;&gt;Node25</title>
<path fill="none" stroke="midnightblue" d="M1002.3,-706.2C896,-682.3 661.52,-629.57 542.44,-602.79"/>
<polygon fill="midnightblue" stroke="midnightblue" points="543.2,-599.37 532.68,-600.6 541.67,-606.2 543.2,-599.37"/>
</g>
<!-- Node26 -->
<g id="node26" class="node">
<title>Node26</title>
<g id="a_node26"><a xlink:href="JKRExpHeap_8h.html" target="_top" xlink:title=" ">
<polygon fill="white" stroke="black" points="1047,-257.5 1047,-287.5 1199,-287.5 1199,-257.5 1047,-257.5"/>
<text text-anchor="start" x="1055" y="-275.5" font-family="Helvetica,sans-Serif" font-size="10.00">JSystem/JKernel/JKRExpHeap</text>
<text text-anchor="middle" x="1123" y="-264.5" font-family="Helvetica,sans-Serif" font-size="10.00">/JKRExpHeap.h</text>
</a>
</g>
</g>
<!-- Node1&#45;&gt;Node26 -->
<g id="edge54" class="edge">
<title>Node1&#45;&gt;Node26</title>
<path fill="none" stroke="midnightblue" d="M1057,-704.24C1057,-680.03 1057,-629.35 1057,-586.5 1057,-586.5 1057,-586.5 1057,-389 1057,-352.39 1082.31,-316.83 1101.58,-295.06"/>
<polygon fill="midnightblue" stroke="midnightblue" points="1104.17,-297.42 1108.35,-287.68 1099.01,-292.68 1104.17,-297.42"/>
</g>
<!-- Node27 -->
<g id="node27" class="node">
<title>Node27</title>
<g id="a_node27"><a xlink:title=" ">
<polygon fill="white" stroke="#bfbfbf" points="1123.5,-637.5 1123.5,-667.5 1286.5,-667.5 1286.5,-637.5 1123.5,-637.5"/>
<text text-anchor="start" x="1131.5" y="-655.5" font-family="Helvetica,sans-Serif" font-size="10.00">JSystem/JKernel/JKRDvdArchive</text>
<text text-anchor="middle" x="1205" y="-644.5" font-family="Helvetica,sans-Serif" font-size="10.00">/asm/func_802D7DB4.s</text>
</a>
</g>
</g>
<!-- Node1&#45;&gt;Node27 -->
<g id="edge58" class="edge">
<title>Node1&#45;&gt;Node27</title>
<path fill="none" stroke="midnightblue" d="M1089.11,-704.4C1110.93,-694.81 1139.99,-682.05 1163.56,-671.7"/>
<polygon fill="midnightblue" stroke="midnightblue" points="1165.2,-674.8 1172.95,-667.58 1162.39,-668.39 1165.2,-674.8"/>
</g>
<!-- Node28 -->
<g id="node28" class="node">
<title>Node28</title>
<g id="a_node28"><a xlink:title=" ">
<polygon fill="white" stroke="#bfbfbf" points="1304.5,-637.5 1304.5,-667.5 1467.5,-667.5 1467.5,-637.5 1304.5,-637.5"/>
<text text-anchor="start" x="1312.5" y="-655.5" font-family="Helvetica,sans-Serif" font-size="10.00">JSystem/JKernel/JKRDvdArchive</text>
<text text-anchor="middle" x="1386" y="-644.5" font-family="Helvetica,sans-Serif" font-size="10.00">/asm/func_802D8168.s</text>
</a>
</g>
</g>
<!-- Node1&#45;&gt;Node28 -->
<g id="edge59" class="edge">
<title>Node1&#45;&gt;Node28</title>
<path fill="none" stroke="midnightblue" d="M1111.7,-707.69C1164.49,-697.26 1245.04,-681.35 1305.22,-669.46"/>
<polygon fill="midnightblue" stroke="midnightblue" points="1305.94,-672.88 1315.07,-667.51 1304.58,-666.02 1305.94,-672.88"/>
</g>
<!-- Node3 -->
<g id="node3" class="node">
<title>Node3</title>
<g id="a_node3"><a xlink:href="JKRArchive_8h.html" target="_top" xlink:title=" ">
<polygon fill="white" stroke="black" points="111,-570.5 111,-600.5 257,-600.5 257,-570.5 111,-570.5"/>
<text text-anchor="start" x="119" y="-588.5" font-family="Helvetica,sans-Serif" font-size="10.00">JSystem/JKernel/JKRArchive</text>
<text text-anchor="middle" x="184" y="-577.5" font-family="Helvetica,sans-Serif" font-size="10.00">/JKRArchive.h</text>
</a>
</g>
</g>
<!-- Node2&#45;&gt;Node3 -->
<g id="edge2" class="edge">
<title>Node2&#45;&gt;Node3</title>
<path fill="none" stroke="midnightblue" d="M184,-637.4C184,-629.64 184,-619.81 184,-610.86"/>
<polygon fill="midnightblue" stroke="midnightblue" points="187.5,-610.58 184,-600.58 180.5,-610.58 187.5,-610.58"/>
</g>
<!-- Node7 -->
<g id="node7" class="node">
<title>Node7</title>
<g id="a_node7"><a xlink:href="types_8h.html" target="_top" xlink:title=" ">
<polygon fill="white" stroke="black" points="628.5,-0.5 628.5,-19.5 709.5,-19.5 709.5,-0.5 628.5,-0.5"/>
<text text-anchor="middle" x="669" y="-7.5" font-family="Helvetica,sans-Serif" font-size="10.00">dolphin/types.h</text>
</a>
</g>
</g>
<!-- Node2&#45;&gt;Node7 -->
<g id="edge43" class="edge">
<title>Node2&#45;&gt;Node7</title>
<path fill="none" stroke="midnightblue" d="M129.29,-637.43C75.05,-619.79 0,-583.78 0,-519.5 0,-519.5 0,-519.5 0,-137.5 0,-90.33 26.05,-77.58 68,-56 116.34,-31.13 482.32,-16.98 618.32,-12.54"/>
<polygon fill="midnightblue" stroke="midnightblue" points="618.59,-16.03 628.47,-12.21 618.36,-9.04 618.59,-16.03"/>
</g>
<!-- Node4 -->
<g id="node4" class="node">
<title>Node4</title>
<g id="a_node4"><a xlink:href="JKRDecomp_8h.html" target="_top" xlink:title=" ">
<polygon fill="white" stroke="black" points="293.5,-503.5 293.5,-533.5 442.5,-533.5 442.5,-503.5 293.5,-503.5"/>
<text text-anchor="start" x="301.5" y="-521.5" font-family="Helvetica,sans-Serif" font-size="10.00">JSystem/JKernel/JKRDecomp</text>
<text text-anchor="middle" x="368" y="-510.5" font-family="Helvetica,sans-Serif" font-size="10.00">/JKRDecomp.h</text>
</a>
</g>
</g>
<!-- Node3&#45;&gt;Node4 -->
<g id="edge3" class="edge">
<title>Node3&#45;&gt;Node4</title>
<path fill="none" stroke="midnightblue" d="M223.93,-570.4C251.65,-560.6 288.79,-547.48 318.42,-537.02"/>
<polygon fill="midnightblue" stroke="midnightblue" points="319.89,-540.21 328.15,-533.58 317.56,-533.61 319.89,-540.21"/>
</g>
<!-- Node6 -->
<g id="node6" class="node">
<title>Node6</title>
<g id="a_node6"><a xlink:href="SArc_8h.html" target="_top" xlink:title=" ">
<polygon fill="white" stroke="black" points="66.5,-380.5 66.5,-399.5 189.5,-399.5 189.5,-380.5 66.5,-380.5"/>
<text text-anchor="middle" x="128" y="-387.5" font-family="Helvetica,sans-Serif" font-size="10.00">JSystem/JKernel/SArc.h</text>
</a>
</g>
</g>
<!-- Node3&#45;&gt;Node6 -->
<g id="edge41" class="edge">
<title>Node3&#45;&gt;Node6</title>
<path fill="none" stroke="midnightblue" d="M168.29,-570.45C146.87,-550.12 109.51,-510.18 95,-467 90.61,-453.94 90.71,-449.09 95,-436 98.49,-425.34 105.57,-415.12 112.29,-407.12"/>
<polygon fill="midnightblue" stroke="midnightblue" points="114.9,-409.44 118.98,-399.66 109.7,-404.76 114.9,-409.44"/>
</g>
<!-- Node3&#45;&gt;Node7 -->
<g id="edge42" class="edge">
<title>Node3&#45;&gt;Node7</title>
<path fill="none" stroke="midnightblue" d="M147.53,-570.34C104.29,-550.89 38,-511.44 38,-452.5 38,-452.5 38,-452.5 38,-137.5 38,-19.53 467.4,-10.11 617.75,-10.43"/>
<polygon fill="midnightblue" stroke="midnightblue" points="618.07,-13.93 628.08,-10.46 618.1,-6.93 618.07,-13.93"/>
</g>
<!-- Node22 -->
<g id="node22" class="node">
<title>Node22</title>
<g id="a_node22"><a xlink:href="JKRFileLoader_8h.html" target="_top" xlink:title=" ">
<polygon fill="white" stroke="black" points="284,-190.5 284,-220.5 442,-220.5 442,-190.5 284,-190.5"/>
<text text-anchor="start" x="292" y="-208.5" font-family="Helvetica,sans-Serif" font-size="10.00">JSystem/JKernel/JKRFileLoader</text>
<text text-anchor="middle" x="363" y="-197.5" font-family="Helvetica,sans-Serif" font-size="10.00">/JKRFileLoader.h</text>
</a>
</g>
</g>
<!-- Node3&#45;&gt;Node22 -->
<g id="edge38" class="edge">
<title>Node3&#45;&gt;Node22</title>
<path fill="none" stroke="midnightblue" d="M201.2,-570.48C224.91,-550.19 267.28,-510.3 290,-467 306.13,-436.26 308,-425.71 308,-391 308,-391 308,-391 308,-333 308,-294.14 330.1,-253.72 346.28,-229.33"/>
<polygon fill="midnightblue" stroke="midnightblue" points="349.36,-231.03 352.13,-220.8 343.59,-227.06 349.36,-231.03"/>
</g>
<!-- Node5 -->
<g id="node5" class="node">
<title>Node5</title>
<g id="a_node5"><a xlink:href="JKRCompression_8h.html" target="_top" xlink:title=" ">
<polygon fill="white" stroke="black" points="103.5,-442 103.5,-461 280.5,-461 280.5,-442 103.5,-442"/>
<text text-anchor="middle" x="192" y="-449" font-family="Helvetica,sans-Serif" font-size="10.00">JSystem/JKernel/JKRCompression.h</text>
</a>
</g>
</g>
<!-- Node4&#45;&gt;Node5 -->
<g id="edge4" class="edge">
<title>Node4&#45;&gt;Node5</title>
<path fill="none" stroke="midnightblue" d="M329.81,-503.4C298.38,-491.79 254.32,-475.51 224.54,-464.52"/>
<polygon fill="midnightblue" stroke="midnightblue" points="225.63,-461.19 215.03,-461.01 223.2,-467.75 225.63,-461.19"/>
</g>
<!-- Node4&#45;&gt;Node7 -->
<g id="edge37" class="edge">
<title>Node4&#45;&gt;Node7</title>
<path fill="none" stroke="midnightblue" d="M363.86,-503.22C357.49,-479.94 346,-432.24 346,-391 346,-391 346,-391 346,-333 346,-262.04 252.8,-257.4 275,-190 298.16,-119.67 310.6,-94.26 374,-56 414.11,-31.8 544.78,-19.33 618.04,-14.1"/>
<polygon fill="midnightblue" stroke="midnightblue" points="618.68,-17.56 628.41,-13.38 618.19,-10.58 618.68,-17.56"/>
</g>
<!-- Node8 -->
<g id="node8" class="node">
<title>Node8</title>
<g id="a_node8"><a xlink:href="JKRThread_8h.html" target="_top" xlink:title=" ">
<polygon fill="white" stroke="black" points="498.5,-436.5 498.5,-466.5 641.5,-466.5 641.5,-436.5 498.5,-436.5"/>
<text text-anchor="start" x="506.5" y="-454.5" font-family="Helvetica,sans-Serif" font-size="10.00">JSystem/JKernel/JKRThread</text>
<text text-anchor="middle" x="570" y="-443.5" font-family="Helvetica,sans-Serif" font-size="10.00">/JKRThread.h</text>
</a>
</g>
</g>
<!-- Node4&#45;&gt;Node8 -->
<g id="edge8" class="edge">
<title>Node4&#45;&gt;Node8</title>
<path fill="none" stroke="midnightblue" d="M411.83,-503.4C442.54,-493.52 483.75,-480.25 516.41,-469.74"/>
<polygon fill="midnightblue" stroke="midnightblue" points="517.81,-472.97 526.25,-466.58 515.66,-466.31 517.81,-472.97"/>
</g>
<!-- Node5&#45;&gt;Node6 -->
<g id="edge5" class="edge">
<title>Node5&#45;&gt;Node6</title>
<path fill="none" stroke="midnightblue" d="M182.83,-441.98C172.85,-432.7 156.69,-417.67 144.49,-406.33"/>
<polygon fill="midnightblue" stroke="midnightblue" points="146.86,-403.75 137.15,-399.51 142.09,-408.88 146.86,-403.75"/>
</g>
<!-- Node5&#45;&gt;Node7 -->
<g id="edge7" class="edge">
<title>Node5&#45;&gt;Node7</title>
<path fill="none" stroke="midnightblue" d="M195.29,-441.96C202.29,-423.01 218,-375.9 218,-335 218,-335 218,-335 218,-137.5 218,-99.74 212.99,-80.17 242,-56 270.4,-32.33 511.23,-18.32 618.18,-13.22"/>
<polygon fill="midnightblue" stroke="midnightblue" points="618.58,-16.7 628.41,-12.73 618.25,-9.71 618.58,-16.7"/>
</g>
<!-- Node6&#45;&gt;Node7 -->
<g id="edge6" class="edge">
<title>Node6&#45;&gt;Node7</title>
<path fill="none" stroke="midnightblue" d="M131.29,-380.46C138.29,-361.51 154,-314.4 154,-273.5 154,-273.5 154,-273.5 154,-137.5 154,-95 167.96,-78.52 204,-56 271.98,-13.52 512.21,-9.81 618.16,-10.33"/>
<polygon fill="midnightblue" stroke="midnightblue" points="618.27,-13.83 628.29,-10.39 618.31,-6.83 618.27,-13.83"/>
</g>
<!-- Node8&#45;&gt;Node7 -->
<g id="edge13" class="edge">
<title>Node8&#45;&gt;Node7</title>
<path fill="none" stroke="midnightblue" d="M556.55,-436.49C538.31,-415.97 508,-375.74 508,-335 508,-335 508,-335 508,-271.5 508,-175.52 453.91,-123.64 522,-56 547.46,-30.71 586.72,-19.57 618.27,-14.7"/>
<polygon fill="midnightblue" stroke="midnightblue" points="618.78,-18.16 628.21,-13.32 617.83,-11.22 618.78,-18.16"/>
</g>
<!-- Node9 -->
<g id="node9" class="node">
<title>Node9</title>
<g id="a_node9"><a xlink:href="JKRDisposer_8h.html" target="_top" xlink:title=" ">
<polygon fill="white" stroke="black" points="585.5,-123.5 585.5,-153.5 736.5,-153.5 736.5,-123.5 585.5,-123.5"/>
<text text-anchor="start" x="593.5" y="-141.5" font-family="Helvetica,sans-Serif" font-size="10.00">JSystem/JKernel/JKRDisposer</text>
<text text-anchor="middle" x="661" y="-130.5" font-family="Helvetica,sans-Serif" font-size="10.00">/JKRDisposer.h</text>
</a>
</g>
</g>
<!-- Node8&#45;&gt;Node9 -->
<g id="edge9" class="edge">
<title>Node8&#45;&gt;Node9</title>
<path fill="none" stroke="midnightblue" d="M574.15,-436.33C588.48,-387.35 636.02,-224.88 654.01,-163.37"/>
<polygon fill="midnightblue" stroke="midnightblue" points="657.38,-164.33 656.83,-153.75 650.66,-162.37 657.38,-164.33"/>
</g>
<!-- Node8&#45;&gt;Node11 -->
<g id="edge14" class="edge">
<title>Node8&#45;&gt;Node11</title>
<path fill="none" stroke="midnightblue" d="M641.58,-438.96C720.27,-426.27 843.49,-406.4 903.61,-396.71"/>
<polygon fill="midnightblue" stroke="midnightblue" points="904.42,-400.12 913.74,-395.07 903.31,-393.21 904.42,-400.12"/>
</g>
<!-- Node9&#45;&gt;Node7 -->
<g id="edge12" class="edge">
<title>Node9&#45;&gt;Node7</title>
<path fill="none" stroke="midnightblue" d="M652.65,-123.29C644.15,-106.96 633.11,-79.41 640,-56 643.01,-45.76 649.15,-35.66 655.01,-27.63"/>
<polygon fill="midnightblue" stroke="midnightblue" points="657.93,-29.58 661.33,-19.54 652.41,-25.27 657.93,-29.58"/>
</g>
<!-- Node10 -->
<g id="node10" class="node">
<title>Node10</title>
<g id="a_node10"><a xlink:href="JSUList_8h.html" target="_top" xlink:title=" ">
<polygon fill="white" stroke="black" points="649,-56.5 649,-86.5 785,-86.5 785,-56.5 649,-56.5"/>
<text text-anchor="start" x="657" y="-74.5" font-family="Helvetica,sans-Serif" font-size="10.00">JSystem/JSupport/JSUList</text>
<text text-anchor="middle" x="717" y="-63.5" font-family="Helvetica,sans-Serif" font-size="10.00">/JSUList.h</text>
</a>
</g>
</g>
<!-- Node9&#45;&gt;Node10 -->
<g id="edge10" class="edge">
<title>Node9&#45;&gt;Node10</title>
<path fill="none" stroke="midnightblue" d="M673.15,-123.4C680.49,-114.88 689.99,-103.85 698.28,-94.23"/>
<polygon fill="midnightblue" stroke="midnightblue" points="701,-96.44 704.87,-86.58 695.69,-91.87 701,-96.44"/>
</g>
<!-- Node10&#45;&gt;Node7 -->
<g id="edge11" class="edge">
<title>Node10&#45;&gt;Node7</title>
<path fill="none" stroke="midnightblue" d="M705.62,-56.4C698.65,-47.75 689.69,-36.64 682.37,-27.58"/>
<polygon fill="midnightblue" stroke="midnightblue" points="684.99,-25.24 675.98,-19.66 679.54,-29.64 684.99,-25.24"/>
</g>
<!-- Node11&#45;&gt;Node7 -->
<g id="edge15" class="edge">
<title>Node11&#45;&gt;Node7</title>
<path fill="none" stroke="midnightblue" d="M913.93,-386.22C875.33,-381.32 799.55,-369.16 740,-344 617.87,-292.39 562.93,-275.57 510,-154 482.45,-90.74 578.69,-43.97 633.51,-23.08"/>
<polygon fill="midnightblue" stroke="midnightblue" points="634.74,-26.36 642.9,-19.6 632.31,-19.79 634.74,-26.36"/>
</g>
<!-- Node12 -->
<g id="node12" class="node">
<title>Node12</title>
<g id="a_node12"><a xlink:href="AR_8h.html" target="_top" xlink:title=" ">
<polygon fill="white" stroke="black" points="518.5,-129 518.5,-148 567.5,-148 567.5,-129 518.5,-129"/>
<text text-anchor="middle" x="543" y="-136" font-family="Helvetica,sans-Serif" font-size="10.00">ar/AR.h</text>
</a>
</g>
</g>
<!-- Node11&#45;&gt;Node12 -->
<g id="edge16" class="edge">
<title>Node11&#45;&gt;Node12</title>
<path fill="none" stroke="midnightblue" d="M913.83,-385.57C880.82,-380.3 821.83,-368.18 777,-344 681.2,-292.33 591.07,-195.1 557.17,-156.2"/>
<polygon fill="midnightblue" stroke="midnightblue" points="559.64,-153.71 550.46,-148.42 554.34,-158.28 559.64,-153.71"/>
</g>
<!-- Node13 -->
<g id="node13" class="node">
<title>Node13</title>
<g id="a_node13"><a xlink:href="ARQ_8h.html" target="_top" xlink:title=" ">
<polygon fill="white" stroke="black" points="998,-62 998,-81 1054,-81 1054,-62 998,-62"/>
<text text-anchor="middle" x="1026" y="-69" font-family="Helvetica,sans-Serif" font-size="10.00">ar/ARQ.h</text>
</a>
</g>
</g>
<!-- Node11&#45;&gt;Node13 -->
<g id="edge18" class="edge">
<title>Node11&#45;&gt;Node13</title>
<path fill="none" stroke="midnightblue" d="M956.17,-380.41C969.95,-372.68 988.77,-360.07 1000,-344 1055.63,-264.4 1038.81,-138.09 1029.92,-91"/>
<polygon fill="midnightblue" stroke="midnightblue" points="1033.33,-90.16 1027.93,-81.04 1026.46,-91.53 1033.33,-90.16"/>
</g>
<!-- Node14 -->
<g id="node14" class="node">
<title>Node14</title>
<g id="a_node14"><a xlink:href="mwcc_8h.html" target="_top" xlink:title=" ">
<polygon fill="white" stroke="black" points="941,-324.5 941,-343.5 991,-343.5 991,-324.5 941,-324.5"/>
<text text-anchor="middle" x="966" y="-331.5" font-family="Helvetica,sans-Serif" font-size="10.00">mwcc.h</text>
</a>
</g>
</g>
<!-- Node11&#45;&gt;Node14 -->
<g id="edge20" class="edge">
<title>Node11&#45;&gt;Node14</title>
<path fill="none" stroke="midnightblue" d="M943.46,-380.08C947.15,-372.69 952.52,-361.95 957.09,-352.81"/>
<polygon fill="midnightblue" stroke="midnightblue" points="960.28,-354.26 961.62,-343.75 954.02,-351.13 960.28,-354.26"/>
</g>
<!-- Node15 -->
<g id="node15" class="node">
<title>Node15</title>
<g id="a_node15"><a xlink:href="OS_8h.html" target="_top" xlink:title=" ">
<polygon fill="white" stroke="black" points="1255,-324.5 1255,-343.5 1307,-343.5 1307,-324.5 1255,-324.5"/>
<text text-anchor="middle" x="1281" y="-331.5" font-family="Helvetica,sans-Serif" font-size="10.00">os/OS.h</text>
</a>
</g>
</g>
<!-- Node11&#45;&gt;Node15 -->
<g id="edge21" class="edge">
<title>Node11&#45;&gt;Node15</title>
<path fill="none" stroke="midnightblue" d="M964.15,-385.03C1024.01,-375.58 1175.16,-351.71 1244.82,-340.71"/>
<polygon fill="midnightblue" stroke="midnightblue" points="1245.55,-344.14 1254.88,-339.12 1244.46,-337.23 1245.55,-344.14"/>
</g>
<!-- Node17 -->
<g id="node17" class="node">
<title>Node17</title>
<g id="a_node17"><a xlink:href="variables_8h.html" target="_top" xlink:title=" ">
<polygon fill="white" stroke="black" points="785.5,-324.5 785.5,-343.5 848.5,-343.5 848.5,-324.5 785.5,-324.5"/>
<text text-anchor="middle" x="817" y="-331.5" font-family="Helvetica,sans-Serif" font-size="10.00">variables.h</text>
</a>
</g>
</g>
<!-- Node11&#45;&gt;Node17 -->
<g id="edge25" class="edge">
<title>Node11&#45;&gt;Node17</title>
<path fill="none" stroke="midnightblue" d="M919.67,-380.44C899.68,-371.6 868.26,-357.69 845.44,-347.59"/>
<polygon fill="midnightblue" stroke="midnightblue" points="846.8,-344.36 836.24,-343.52 843.97,-350.76 846.8,-344.36"/>
</g>
<!-- Node12&#45;&gt;Node7 -->
<g id="edge17" class="edge">
<title>Node12&#45;&gt;Node7</title>
<path fill="none" stroke="midnightblue" d="M551.66,-128.81C572.61,-107.77 626.28,-53.89 653.16,-26.9"/>
<polygon fill="midnightblue" stroke="midnightblue" points="655.7,-29.31 660.28,-19.76 650.74,-24.37 655.7,-29.31"/>
</g>
<!-- Node13&#45;&gt;Node7 -->
<g id="edge19" class="edge">
<title>Node13&#45;&gt;Node7</title>
<path fill="none" stroke="midnightblue" d="M997.82,-62.12C989.85,-59.93 981.12,-57.71 973,-56 884.65,-37.45 780.28,-23.76 719.67,-16.61"/>
<polygon fill="midnightblue" stroke="midnightblue" points="719.94,-13.12 709.6,-15.44 719.12,-20.07 719.94,-13.12"/>
</g>
<!-- Node15&#45;&gt;Node7 -->
<g id="edge22" class="edge">
<title>Node15&#45;&gt;Node7</title>
<path fill="none" stroke="midnightblue" d="M1280.54,-324.41C1279.49,-303.99 1277,-250.89 1277,-206.5 1277,-206.5 1277,-206.5 1277,-137.5 1277,-24.05 866.12,-11.64 719.9,-10.81"/>
<polygon fill="midnightblue" stroke="midnightblue" points="719.85,-7.31 709.84,-10.77 719.82,-14.31 719.85,-7.31"/>
</g>
<!-- Node16 -->
<g id="node16" class="node">
<title>Node16</title>
<g id="a_node16"><a xlink:href="dvd_8h.html" target="_top" xlink:title=" ">
<polygon fill="white" stroke="black" points="1305.5,-263 1305.5,-282 1364.5,-282 1364.5,-263 1305.5,-263"/>
<text text-anchor="middle" x="1335" y="-270" font-family="Helvetica,sans-Serif" font-size="10.00">dvd/dvd.h</text>
</a>
</g>
</g>
<!-- Node15&#45;&gt;Node16 -->
<g id="edge23" class="edge">
<title>Node15&#45;&gt;Node16</title>
<path fill="none" stroke="midnightblue" d="M1288.74,-324.48C1297,-315.37 1310.28,-300.74 1320.49,-289.48"/>
<polygon fill="midnightblue" stroke="midnightblue" points="1323.15,-291.77 1327.28,-282.01 1317.97,-287.06 1323.15,-291.77"/>
</g>
<!-- Node16&#45;&gt;Node7 -->
<g id="edge24" class="edge">
<title>Node16&#45;&gt;Node7</title>
<path fill="none" stroke="midnightblue" d="M1336.45,-262.76C1341.36,-229.66 1353.83,-111.19 1291,-56 1248.5,-18.66 860.75,-12.3 719.86,-11.22"/>
<polygon fill="midnightblue" stroke="midnightblue" points="719.78,-7.72 709.76,-11.15 719.73,-14.72 719.78,-7.72"/>
</g>
<!-- Node17&#45;&gt;Node10 -->
<g id="edge26" class="edge">
<title>Node17&#45;&gt;Node10</title>
<path fill="none" stroke="midnightblue" d="M812.17,-324.23C807.38,-315.3 800.05,-300.96 795,-288 767.22,-216.73 776.14,-193.31 746,-123 741.96,-113.58 736.58,-103.71 731.54,-95.21"/>
<polygon fill="midnightblue" stroke="midnightblue" points="734.5,-93.33 726.3,-86.62 728.52,-96.98 734.5,-93.33"/>
</g>
<!-- Node18 -->
<g id="node18" class="node">
<title>Node18</title>
<g id="a_node18"><a xlink:href="JUTXfb_8h.html" target="_top" xlink:title=" ">
<polygon fill="white" stroke="black" points="810.5,-257.5 810.5,-287.5 935.5,-287.5 935.5,-257.5 810.5,-257.5"/>
<text text-anchor="start" x="818.5" y="-275.5" font-family="Helvetica,sans-Serif" font-size="10.00">JSystem/JUtility/JUTXfb</text>
<text text-anchor="middle" x="873" y="-264.5" font-family="Helvetica,sans-Serif" font-size="10.00">/JUTXfb.h</text>
</a>
</g>
</g>
<!-- Node17&#45;&gt;Node18 -->
<g id="edge27" class="edge">
<title>Node17&#45;&gt;Node18</title>
<path fill="none" stroke="midnightblue" d="M825.02,-324.48C832.25,-316.79 843.19,-305.17 852.8,-294.96"/>
<polygon fill="midnightblue" stroke="midnightblue" points="855.5,-297.2 859.8,-287.52 850.4,-292.41 855.5,-297.2"/>
</g>
<!-- Node21 -->
<g id="node21" class="node">
<title>Node21</title>
<g id="a_node21"><a xlink:href="mtx__vec_8h.html" target="_top" xlink:title=" ">
<polygon fill="white" stroke="black" points="793.5,-129 793.5,-148 854.5,-148 854.5,-129 793.5,-129"/>
<text text-anchor="middle" x="824" y="-136" font-family="Helvetica,sans-Serif" font-size="10.00">mtx_vec.h</text>
</a>
</g>
</g>
<!-- Node17&#45;&gt;Node21 -->
<g id="edge35" class="edge">
<title>Node17&#45;&gt;Node21</title>
<path fill="none" stroke="midnightblue" d="M813.14,-324.25C809.44,-315.33 804.11,-301.01 802,-288 794.41,-241.21 808.7,-185.96 817.62,-157.88"/>
<polygon fill="midnightblue" stroke="midnightblue" points="821,-158.81 820.83,-148.22 814.36,-156.61 821,-158.81"/>
</g>
<!-- Node18&#45;&gt;Node7 -->
<g id="edge32" class="edge">
<title>Node18&#45;&gt;Node7</title>
<path fill="none" stroke="midnightblue" d="M874.21,-257.32C875.69,-241.02 878.43,-213.5 882,-190 891.05,-130.47 940.33,-102.44 902,-56 879.38,-28.59 781.43,-17.69 719.95,-13.49"/>
<polygon fill="midnightblue" stroke="midnightblue" points="719.88,-9.98 709.67,-12.83 719.43,-16.96 719.88,-9.98"/>
</g>
<!-- Node19 -->
<g id="node19" class="node">
<title>Node19</title>
<g id="a_node19"><a xlink:href="JKRHeap_8h.html" target="_top" xlink:title=" ">
<polygon fill="white" stroke="black" points="891,-190.5 891,-220.5 1027,-220.5 1027,-190.5 891,-190.5"/>
<text text-anchor="start" x="899" y="-208.5" font-family="Helvetica,sans-Serif" font-size="10.00">JSystem/JKernel/JKRHeap</text>
<text text-anchor="middle" x="959" y="-197.5" font-family="Helvetica,sans-Serif" font-size="10.00">/JKRHeap.h</text>
</a>
</g>
</g>
<!-- Node18&#45;&gt;Node19 -->
<g id="edge28" class="edge">
<title>Node18&#45;&gt;Node19</title>
<path fill="none" stroke="midnightblue" d="M891.66,-257.4C903.49,-248.45 918.99,-236.74 932.14,-226.8"/>
<polygon fill="midnightblue" stroke="midnightblue" points="934.51,-229.4 940.38,-220.58 930.29,-223.81 934.51,-229.4"/>
</g>
<!-- Node20 -->
<g id="node20" class="node">
<title>Node20</title>
<g id="a_node20"><a xlink:href="GX_8h.html" target="_top" xlink:title=" ">
<polygon fill="white" stroke="black" points="841.5,-62 841.5,-81 892.5,-81 892.5,-62 841.5,-62"/>
<text text-anchor="middle" x="867" y="-69" font-family="Helvetica,sans-Serif" font-size="10.00">gx/GX.h</text>
</a>
</g>
</g>
<!-- Node18&#45;&gt;Node20 -->
<g id="edge33" class="edge">
<title>Node18&#45;&gt;Node20</title>
<path fill="none" stroke="midnightblue" d="M864.04,-257.1C858.5,-247.33 851.9,-233.88 849,-221 845.97,-207.56 846.3,-203.51 849,-190 852.4,-173 860.29,-170.93 864,-154 868.63,-132.87 868.8,-107.94 868.19,-91.27"/>
<polygon fill="midnightblue" stroke="midnightblue" points="871.68,-91 867.68,-81.19 864.69,-91.36 871.68,-91"/>
</g>
<!-- Node19&#45;&gt;Node7 -->
<g id="edge30" class="edge">
<title>Node19&#45;&gt;Node7</title>
<path fill="none" stroke="midnightblue" d="M961.54,-190.29C965.92,-160.77 971.25,-92.51 935,-56 905.62,-26.4 788.36,-16.2 719.73,-12.74"/>
<polygon fill="midnightblue" stroke="midnightblue" points="719.72,-9.24 709.56,-12.26 719.39,-16.23 719.72,-9.24"/>
</g>
<!-- Node19&#45;&gt;Node9 -->
<g id="edge29" class="edge">
<title>Node19&#45;&gt;Node9</title>
<path fill="none" stroke="midnightblue" d="M894.71,-190.48C847.88,-180.26 784.35,-166.41 735.35,-155.72"/>
<polygon fill="midnightblue" stroke="midnightblue" points="735.95,-152.27 725.44,-153.55 734.46,-159.11 735.95,-152.27"/>
</g>
<!-- Node19&#45;&gt;Node11 -->
<g id="edge31" class="edge">
<title>Node19&#45;&gt;Node11</title>
<path fill="none" stroke="midnightblue" d="M957.36,-220.5C955.27,-236.87 951.16,-264.68 945,-288 940.65,-304.45 934.93,-307.24 932,-324 930.47,-332.76 931.31,-335.14 932,-344 932.68,-352.78 934.09,-362.44 935.47,-370.55"/>
<polygon fill="midnightblue" stroke="midnightblue" points="932.03,-371.2 937.26,-380.42 938.92,-369.96 932.03,-371.2"/>
</g>
<!-- Node20&#45;&gt;Node7 -->
<g id="edge34" class="edge">
<title>Node20&#45;&gt;Node7</title>
<path fill="none" stroke="midnightblue" d="M844.25,-61.94C838.64,-59.91 832.62,-57.82 827,-56 788.19,-43.45 743.43,-30.88 711.48,-22.23"/>
<polygon fill="midnightblue" stroke="midnightblue" points="712.15,-18.78 701.58,-19.56 710.32,-25.54 712.15,-18.78"/>
</g>
<!-- Node21&#45;&gt;Node7 -->
<g id="edge36" class="edge">
<title>Node21&#45;&gt;Node7</title>
<path fill="none" stroke="midnightblue" d="M823.16,-128.59C821.15,-112.04 814.54,-76.4 794,-56 773.99,-36.13 744.58,-24.98 719.31,-18.74"/>
<polygon fill="midnightblue" stroke="midnightblue" points="720.03,-15.32 709.5,-16.51 718.48,-22.14 720.03,-15.32"/>
</g>
<!-- Node22&#45;&gt;Node7 -->
<g id="edge40" class="edge">
<title>Node22&#45;&gt;Node7</title>
<path fill="none" stroke="midnightblue" d="M361.87,-190.13C360.37,-160.32 361.57,-91.53 400,-56 430.96,-27.38 549.05,-16.8 618.04,-13.01"/>
<polygon fill="midnightblue" stroke="midnightblue" points="618.46,-16.5 628.26,-12.48 618.09,-9.51 618.46,-16.5"/>
</g>
<!-- Node22&#45;&gt;Node9 -->
<g id="edge39" class="edge">
<title>Node22&#45;&gt;Node9</title>
<path fill="none" stroke="midnightblue" d="M427.29,-190.48C474.12,-180.26 537.65,-166.41 586.65,-155.72"/>
<polygon fill="midnightblue" stroke="midnightblue" points="587.54,-159.11 596.56,-153.55 586.05,-152.27 587.54,-159.11"/>
</g>
<!-- Node23&#45;&gt;Node7 -->
<g id="edge48" class="edge">
<title>Node23&#45;&gt;Node7</title>
<path fill="none" stroke="midnightblue" d="M1283.2,-436.47C1331.36,-420.68 1393,-389.77 1393,-335 1393,-335 1393,-335 1393,-137.5 1393,-87.97 1361.71,-77.31 1317,-56 1263.68,-30.58 863.63,-16.63 720.08,-12.4"/>
<polygon fill="midnightblue" stroke="midnightblue" points="719.89,-8.89 709.79,-12.1 719.69,-15.89 719.89,-8.89"/>
</g>
<!-- Node23&#45;&gt;Node11 -->
<g id="edge50" class="edge">
<title>Node23&#45;&gt;Node11</title>
<path fill="none" stroke="midnightblue" d="M1159.11,-436.47C1101.1,-424.49 1019.97,-407.73 974.14,-398.26"/>
<polygon fill="midnightblue" stroke="midnightblue" points="974.61,-394.78 964.11,-396.19 973.19,-401.64 974.61,-394.78"/>
</g>
<!-- Node23&#45;&gt;Node16 -->
<g id="edge49" class="edge">
<title>Node23&#45;&gt;Node16</title>
<path fill="none" stroke="midnightblue" d="M1242.25,-436.5C1262.1,-417.44 1296.54,-381.41 1316,-344 1324.58,-327.51 1329.56,-306.78 1332.26,-292.08"/>
<polygon fill="midnightblue" stroke="midnightblue" points="1335.71,-292.62 1333.89,-282.18 1328.81,-291.48 1335.71,-292.62"/>
</g>
<!-- Node24 -->
<g id="node24" class="node">
<title>Node24</title>
<g id="a_node24"><a xlink:href="JKRFile_8h.html" target="_top" xlink:title=" ">
<polygon fill="white" stroke="black" points="1121,-190.5 1121,-220.5 1249,-220.5 1249,-190.5 1121,-190.5"/>
<text text-anchor="start" x="1129" y="-208.5" font-family="Helvetica,sans-Serif" font-size="10.00">JSystem/JKernel/JKRFile</text>
<text text-anchor="middle" x="1185" y="-197.5" font-family="Helvetica,sans-Serif" font-size="10.00">/JKRFile.h</text>
</a>
</g>
</g>
<!-- Node23&#45;&gt;Node24 -->
<g id="edge45" class="edge">
<title>Node23&#45;&gt;Node24</title>
<path fill="none" stroke="midnightblue" d="M1227.19,-436.13C1227.26,-403.63 1225.53,-322.2 1208,-257 1205.52,-247.77 1201.51,-238.11 1197.52,-229.74"/>
<polygon fill="midnightblue" stroke="midnightblue" points="1200.56,-227.99 1192.96,-220.61 1194.3,-231.12 1200.56,-227.99"/>
</g>
<!-- Node24&#45;&gt;Node7 -->
<g id="edge47" class="edge">
<title>Node24&#45;&gt;Node7</title>
<path fill="none" stroke="midnightblue" d="M1182.16,-190.06C1175.3,-159.47 1154.76,-88.31 1107,-56 1044.95,-14.02 821.13,-9.95 719.65,-10.34"/>
<polygon fill="midnightblue" stroke="midnightblue" points="719.62,-6.84 709.64,-10.4 719.66,-13.84 719.62,-6.84"/>
</g>
<!-- Node24&#45;&gt;Node9 -->
<g id="edge46" class="edge">
<title>Node24&#45;&gt;Node9</title>
<path fill="none" stroke="midnightblue" d="M1120.75,-196.53C1026.76,-184.87 851.61,-163.14 746.73,-150.13"/>
<polygon fill="midnightblue" stroke="midnightblue" points="747.16,-146.66 736.81,-148.9 746.3,-153.61 747.16,-146.66"/>
</g>
<!-- Node25&#45;&gt;Node4 -->
<g id="edge52" class="edge">
<title>Node25&#45;&gt;Node4</title>
<path fill="none" stroke="midnightblue" d="M447.87,-570.4C433.43,-561.2 414.4,-549.07 398.53,-538.95"/>
<polygon fill="midnightblue" stroke="midnightblue" points="400.4,-536 390.09,-533.58 396.64,-541.9 400.4,-536"/>
</g>
<!-- Node25&#45;&gt;Node7 -->
<g id="edge53" class="edge">
<title>Node25&#45;&gt;Node7</title>
<path fill="none" stroke="midnightblue" d="M470,-570.24C470,-546.03 470,-495.35 470,-452.5 470,-452.5 470,-452.5 470,-271.5 470,-175.13 428.95,-127.11 494,-56 510.63,-37.82 572.77,-25 618.29,-17.82"/>
<polygon fill="midnightblue" stroke="midnightblue" points="618.95,-21.26 628.3,-16.28 617.89,-14.34 618.95,-21.26"/>
</g>
<!-- Node26&#45;&gt;Node7 -->
<g id="edge56" class="edge">
<title>Node26&#45;&gt;Node7</title>
<path fill="none" stroke="midnightblue" d="M1119.49,-257.21C1107.86,-210.17 1070.94,-62.78 1063,-56 1037.36,-34.12 820.41,-19.38 719.83,-13.66"/>
<polygon fill="midnightblue" stroke="midnightblue" points="719.78,-10.16 709.6,-13.09 719.39,-17.14 719.78,-10.16"/>
</g>
<!-- Node26&#45;&gt;Node19 -->
<g id="edge55" class="edge">
<title>Node26&#45;&gt;Node19</title>
<path fill="none" stroke="midnightblue" d="M1087.41,-257.4C1062.91,-247.69 1030.17,-234.71 1003.88,-224.29"/>
<polygon fill="midnightblue" stroke="midnightblue" points="1005.1,-221.01 994.52,-220.58 1002.52,-227.51 1005.1,-221.01"/>
</g>
</g>
</svg>
        <g id="navigator" transform="translate(0 0)" fill="#404254">
                <rect fill="#f2f5e9" fill-opacity="0.5" stroke="#606060" stroke-width=".5" x="0" y="0" width="60" height="60"/>
                <use id="zoomplus" xlink:href="#zoomPlus" x="17" y="9" onmousedown="handleZoom(evt,'in')"/>
                <use id="zoomminus" xlink:href="#zoomMin" x="42" y="9" onmousedown="handleZoom(evt,'out')"/>
                <use id="reset" xlink:href="#resetDef" x="30" y="36" onmousedown="handleReset()"/>
                <g id="arrowUp" xlink:href="#dirArrow" transform="translate(30 24)" onmousedown="handlePan(0,-1)">
                  <use xlink:href="#rim" fill="#404040">
                        <set attributeName="fill" to="#808080" begin="arrowUp.mouseover" end="arrowUp.mouseout"/>
                  </use>
                  <path fill="none" stroke="white" stroke-width="1.5" d="M0,-3.0v7 M-2.5,-0.5L0,-3.0L2.5,-0.5"/>
                </g>
                <g id="arrowRight" xlink:href="#dirArrow" transform="rotate(90) translate(36 -43)" onmousedown="handlePan(1,0)">
                  <use xlink:href="#rim" fill="#404040">
                        <set attributeName="fill" to="#808080" begin="arrowRight.mouseover" end="arrowRight.mouseout"/>
                  </use>
                  <path fill="none" stroke="white" stroke-width="1.5" d="M0,-3.0v7 M-2.5,-0.5L0,-3.0L2.5,-0.5"/>
                </g>
                <g id="arrowDown" xlink:href="#dirArrow" transform="rotate(180) translate(-30 -48)" onmousedown="handlePan(0,1)">
                  <use xlink:href="#rim" fill="#404040">
                        <set attributeName="fill" to="#808080" begin="arrowDown.mouseover" end="arrowDown.mouseout"/>
                  </use>
                  <path fill="none" stroke="white" stroke-width="1.5" d="M0,-3.0v7 M-2.5,-0.5L0,-3.0L2.5,-0.5"/>
                </g>
                <g id="arrowLeft" xlink:href="#dirArrow" transform="rotate(270) translate(-36 17)" onmousedown="handlePan(-1,0)">
                  <use xlink:href="#rim" fill="#404040">
                        <set attributeName="fill" to="#808080" begin="arrowLeft.mouseover" end="arrowLeft.mouseout"/>
                  </use>
                  <path fill="none" stroke="white" stroke-width="1.5" d="M0,-3.0v7 M-2.5,-0.5L0,-3.0L2.5,-0.5"/>
                </g>
        </g>
        <svg viewBox="0 0 15 15" width="100%" height="30px" preserveAspectRatio="xMaxYMin meet">
         <g id="arrow_out" transform="scale(0.3 0.3)">
          <a xlink:href="JKRDvdArchive_8cpp__incl_org.svg" target="_base">
           <rect id="button" ry="5" rx="5" y="6" x="6" height="38" width="38"
                fill="#f2f5e9" fill-opacity="0.5" stroke="#606060" stroke-width="1.0"/>
           <path id="arrow"
             d="M 11.500037,31.436501 C 11.940474,20.09759 22.043105,11.32322 32.158766,21.979434 L 37.068811,17.246167 C 37.068811,17.246167 37.088388,32 37.088388,32 L 22.160133,31.978069 C 22.160133,31.978069 26.997745,27.140456 26.997745,27.140456 C 18.528582,18.264221 13.291696,25.230495 11.500037,31.436501 z"
             style="fill:#404040;"/>
          </a>
         </g>
        </svg>
</svg>
