<?xml version="1.0" encoding="UTF-8" standalone="no"?>
<!DOCTYPE svg PUBLIC "-//W3C//DTD SVG 1.1//EN"
 "http://www.w3.org/Graphics/SVG/1.1/DTD/svg11.dtd">
<!-- Generated by graphviz version 2.46.0 (20210122.1329)
 -->
<!-- Title: libs/JSystem/JKernel/JKRDvdRipper.cpp Pages: 1 -->
<svg width="2445pt" height="676pt"
 viewBox="0.00 0.00 2445.00 676.00" xmlns="http://www.w3.org/2000/svg" xmlns:xlink="http://www.w3.org/1999/xlink">
<g id="graph0" class="graph" transform="scale(1 1) rotate(0) translate(4 672)">
<title>libs/JSystem/JKernel/JKRDvdRipper.cpp</title>
<polygon fill="white" stroke="transparent" points="-4,4 -4,-672 2441,-672 2441,4 -4,4"/>
<!-- Node1 -->
<g id="node1" class="node">
<title>Node1</title>
<g id="a_node1"><a xlink:title=" ">
<polygon fill="#bfbfbf" stroke="black" points="1423.5,-637.5 1423.5,-667.5 1532.5,-667.5 1532.5,-637.5 1423.5,-637.5"/>
<text text-anchor="start" x="1431.5" y="-655.5" font-family="Helvetica,sans-Serif" font-size="10.00">libs/JSystem/JKernel</text>
<text text-anchor="middle" x="1478" y="-644.5" font-family="Helvetica,sans-Serif" font-size="10.00">/JKRDvdRipper.cpp</text>
</a>
</g>
</g>
<!-- Node2 -->
<g id="node2" class="node">
<title>Node2</title>
<g id="a_node2"><a xlink:href="JKRDvdRipper_8h.html" target="_top" xlink:title=" ">
<polygon fill="white" stroke="black" points="75,-570.5 75,-600.5 233,-600.5 233,-570.5 75,-570.5"/>
<text text-anchor="start" x="83" y="-588.5" font-family="Helvetica,sans-Serif" font-size="10.00">JSystem/JKernel/JKRDvdRipper</text>
<text text-anchor="middle" x="154" y="-577.5" font-family="Helvetica,sans-Serif" font-size="10.00">/JKRDvdRipper.h</text>
</a>
</g>
</g>
<!-- Node1&#45;&gt;Node2 -->
<g id="edge1" class="edge">
<title>Node1&#45;&gt;Node2</title>
<path fill="none" stroke="midnightblue" d="M1423.21,-648.81C1218.52,-638.76 497.42,-603.36 243.38,-590.89"/>
<polygon fill="midnightblue" stroke="midnightblue" points="243.25,-587.38 233.09,-590.38 242.91,-594.37 243.25,-587.38"/>
</g>
<!-- Node10 -->
<g id="node10" class="node">
<title>Node10</title>
<g id="a_node10"><a xlink:href="global_8h.html" target="_top" xlink:title=" ">
<polygon fill="white" stroke="black" points="556,-380.5 556,-399.5 606,-399.5 606,-380.5 556,-380.5"/>
<text text-anchor="middle" x="581" y="-387.5" font-family="Helvetica,sans-Serif" font-size="10.00">global.h</text>
</a>
</g>
</g>
<!-- Node1&#45;&gt;Node10 -->
<g id="edge46" class="edge">
<title>Node1&#45;&gt;Node10</title>
<path fill="none" stroke="midnightblue" d="M1423.25,-651.85C1333.88,-651.07 1151.9,-643.74 1005,-601 840.66,-553.19 662.97,-444.1 602.52,-405.15"/>
<polygon fill="midnightblue" stroke="midnightblue" points="604.14,-402.02 593.84,-399.52 600.33,-407.9 604.14,-402.02"/>
</g>
<!-- Node17 -->
<g id="node17" class="node">
<title>Node17</title>
<g id="a_node17"><a xlink:href="dvd_8h.html" target="_top" xlink:title=" ">
<polygon fill="white" stroke="black" points="977.5,-196 977.5,-215 1036.5,-215 1036.5,-196 977.5,-196"/>
<text text-anchor="middle" x="1007" y="-203" font-family="Helvetica,sans-Serif" font-size="10.00">dvd/dvd.h</text>
</a>
</g>
</g>
<!-- Node1&#45;&gt;Node17 -->
<g id="edge45" class="edge">
<title>Node1&#45;&gt;Node17</title>
<path fill="none" stroke="midnightblue" d="M1423.16,-648.7C1311.59,-642.52 1066.27,-626.2 1038,-601 1010.24,-576.25 1019,-556.69 1019,-519.5 1019,-519.5 1019,-519.5 1019,-333 1019,-294.53 1013.43,-249.77 1009.88,-225.14"/>
<polygon fill="midnightblue" stroke="midnightblue" points="1013.31,-224.44 1008.38,-215.06 1006.39,-225.47 1013.31,-224.44"/>
</g>
<!-- Node24 -->
<g id="node24" class="node">
<title>Node24</title>
<g id="a_node24"><a xlink:title=" ">
<polygon fill="white" stroke="#bfbfbf" points="1047,-570.5 1047,-600.5 1205,-600.5 1205,-570.5 1047,-570.5"/>
<text text-anchor="start" x="1055" y="-588.5" font-family="Helvetica,sans-Serif" font-size="10.00">JSystem/JKernel/JKRDvdRipper</text>
<text text-anchor="middle" x="1126" y="-577.5" font-family="Helvetica,sans-Serif" font-size="10.00">/asm/func_802D9B98.s</text>
</a>
</g>
</g>
<!-- Node1&#45;&gt;Node24 -->
<g id="edge47" class="edge">
<title>Node1&#45;&gt;Node24</title>
<path fill="none" stroke="midnightblue" d="M1423.39,-641.42C1366.91,-630.99 1277.91,-614.55 1211.97,-602.38"/>
<polygon fill="midnightblue" stroke="midnightblue" points="1212.48,-598.91 1202.01,-600.54 1211.21,-605.79 1212.48,-598.91"/>
</g>
<!-- Node25 -->
<g id="node25" class="node">
<title>Node25</title>
<g id="a_node25"><a xlink:title=" ">
<polygon fill="white" stroke="#bfbfbf" points="1223,-570.5 1223,-600.5 1381,-600.5 1381,-570.5 1223,-570.5"/>
<text text-anchor="start" x="1231" y="-588.5" font-family="Helvetica,sans-Serif" font-size="10.00">JSystem/JKernel/JKRDvdRipper</text>
<text text-anchor="middle" x="1302" y="-577.5" font-family="Helvetica,sans-Serif" font-size="10.00">/asm/func_802D9C54.s</text>
</a>
</g>
</g>
<!-- Node1&#45;&gt;Node25 -->
<g id="edge48" class="edge">
<title>Node1&#45;&gt;Node25</title>
<path fill="none" stroke="midnightblue" d="M1439.81,-637.4C1413.4,-627.64 1378.07,-614.59 1349.8,-604.15"/>
<polygon fill="midnightblue" stroke="midnightblue" points="1350.71,-600.76 1340.11,-600.58 1348.28,-607.32 1350.71,-600.76"/>
</g>
<!-- Node26 -->
<g id="node26" class="node">
<title>Node26</title>
<g id="a_node26"><a xlink:title=" ">
<polygon fill="white" stroke="#bfbfbf" points="1399,-570.5 1399,-600.5 1557,-600.5 1557,-570.5 1399,-570.5"/>
<text text-anchor="start" x="1407" y="-588.5" font-family="Helvetica,sans-Serif" font-size="10.00">JSystem/JKernel/JKRDvdRipper</text>
<text text-anchor="middle" x="1478" y="-577.5" font-family="Helvetica,sans-Serif" font-size="10.00">/asm/func_802D9D10.s</text>
</a>
</g>
</g>
<!-- Node1&#45;&gt;Node26 -->
<g id="edge49" class="edge">
<title>Node1&#45;&gt;Node26</title>
<path fill="none" stroke="midnightblue" d="M1478,-637.4C1478,-629.64 1478,-619.81 1478,-610.86"/>
<polygon fill="midnightblue" stroke="midnightblue" points="1481.5,-610.58 1478,-600.58 1474.5,-610.58 1481.5,-610.58"/>
</g>
<!-- Node27 -->
<g id="node27" class="node">
<title>Node27</title>
<g id="a_node27"><a xlink:title=" ">
<polygon fill="white" stroke="#bfbfbf" points="1575,-570.5 1575,-600.5 1733,-600.5 1733,-570.5 1575,-570.5"/>
<text text-anchor="start" x="1583" y="-588.5" font-family="Helvetica,sans-Serif" font-size="10.00">JSystem/JKernel/JKRDvdRipper</text>
<text text-anchor="middle" x="1654" y="-577.5" font-family="Helvetica,sans-Serif" font-size="10.00">/asm/func_802DA1E4.s</text>
</a>
</g>
</g>
<!-- Node1&#45;&gt;Node27 -->
<g id="edge50" class="edge">
<title>Node1&#45;&gt;Node27</title>
<path fill="none" stroke="midnightblue" d="M1516.19,-637.4C1542.6,-627.64 1577.93,-614.59 1606.2,-604.15"/>
<polygon fill="midnightblue" stroke="midnightblue" points="1607.72,-607.32 1615.89,-600.58 1605.29,-600.76 1607.72,-607.32"/>
</g>
<!-- Node28 -->
<g id="node28" class="node">
<title>Node28</title>
<g id="a_node28"><a xlink:title=" ">
<polygon fill="white" stroke="#bfbfbf" points="1751,-570.5 1751,-600.5 1909,-600.5 1909,-570.5 1751,-570.5"/>
<text text-anchor="start" x="1759" y="-588.5" font-family="Helvetica,sans-Serif" font-size="10.00">JSystem/JKernel/JKRDvdRipper</text>
<text text-anchor="middle" x="1830" y="-577.5" font-family="Helvetica,sans-Serif" font-size="10.00">/asm/func_802DA35C.s</text>
</a>
</g>
</g>
<!-- Node1&#45;&gt;Node28 -->
<g id="edge51" class="edge">
<title>Node1&#45;&gt;Node28</title>
<path fill="none" stroke="midnightblue" d="M1532.61,-641.42C1589.09,-630.99 1678.09,-614.55 1744.03,-602.38"/>
<polygon fill="midnightblue" stroke="midnightblue" points="1744.79,-605.79 1753.99,-600.54 1743.52,-598.91 1744.79,-605.79"/>
</g>
<!-- Node29 -->
<g id="node29" class="node">
<title>Node29</title>
<g id="a_node29"><a xlink:title=" ">
<polygon fill="white" stroke="#bfbfbf" points="1927,-570.5 1927,-600.5 2085,-600.5 2085,-570.5 1927,-570.5"/>
<text text-anchor="start" x="1935" y="-588.5" font-family="Helvetica,sans-Serif" font-size="10.00">JSystem/JKernel/JKRDvdRipper</text>
<text text-anchor="middle" x="2006" y="-577.5" font-family="Helvetica,sans-Serif" font-size="10.00">/asm/func_802DA60C.s</text>
</a>
</g>
</g>
<!-- Node1&#45;&gt;Node29 -->
<g id="edge52" class="edge">
<title>Node1&#45;&gt;Node29</title>
<path fill="none" stroke="midnightblue" d="M1532.64,-646.1C1614.06,-637.86 1772.28,-621.11 1916.93,-601.11"/>
<polygon fill="midnightblue" stroke="midnightblue" points="1917.45,-604.57 1926.87,-599.73 1916.49,-597.64 1917.45,-604.57"/>
</g>
<!-- Node30 -->
<g id="node30" class="node">
<title>Node30</title>
<g id="a_node30"><a xlink:title=" ">
<polygon fill="white" stroke="#bfbfbf" points="2103,-570.5 2103,-600.5 2261,-600.5 2261,-570.5 2103,-570.5"/>
<text text-anchor="start" x="2111" y="-588.5" font-family="Helvetica,sans-Serif" font-size="10.00">JSystem/JKernel/JKRDvdRipper</text>
<text text-anchor="middle" x="2182" y="-577.5" font-family="Helvetica,sans-Serif" font-size="10.00">/asm/func_802DA6D8.s</text>
</a>
</g>
</g>
<!-- Node1&#45;&gt;Node30 -->
<g id="edge53" class="edge">
<title>Node1&#45;&gt;Node30</title>
<path fill="none" stroke="midnightblue" d="M1532.54,-648.53C1638.49,-642.42 1879.7,-626.94 2092.77,-601.09"/>
<polygon fill="midnightblue" stroke="midnightblue" points="2093.39,-604.54 2102.89,-599.85 2092.54,-597.59 2093.39,-604.54"/>
</g>
<!-- Node31 -->
<g id="node31" class="node">
<title>Node31</title>
<g id="a_node31"><a xlink:title=" ">
<polygon fill="white" stroke="#bfbfbf" points="2279,-570.5 2279,-600.5 2437,-600.5 2437,-570.5 2279,-570.5"/>
<text text-anchor="start" x="2287" y="-588.5" font-family="Helvetica,sans-Serif" font-size="10.00">JSystem/JKernel/JKRDvdRipper</text>
<text text-anchor="middle" x="2358" y="-577.5" font-family="Helvetica,sans-Serif" font-size="10.00">/asm/func_802DA7D4.s</text>
</a>
</g>
</g>
<!-- Node1&#45;&gt;Node31 -->
<g id="edge54" class="edge">
<title>Node1&#45;&gt;Node31</title>
<path fill="none" stroke="midnightblue" d="M1532.9,-649.88C1660.36,-645.72 1986.4,-632.75 2268.87,-601.05"/>
<polygon fill="midnightblue" stroke="midnightblue" points="2269.36,-604.52 2278.9,-599.92 2268.57,-597.56 2269.36,-604.52"/>
</g>
<!-- Node3 -->
<g id="node3" class="node">
<title>Node3</title>
<g id="a_node3"><a xlink:href="JKRDecomp_8h.html" target="_top" xlink:title=" ">
<polygon fill="white" stroke="black" points="79.5,-503.5 79.5,-533.5 228.5,-533.5 228.5,-503.5 79.5,-503.5"/>
<text text-anchor="start" x="87.5" y="-521.5" font-family="Helvetica,sans-Serif" font-size="10.00">JSystem/JKernel/JKRDecomp</text>
<text text-anchor="middle" x="154" y="-510.5" font-family="Helvetica,sans-Serif" font-size="10.00">/JKRDecomp.h</text>
</a>
</g>
</g>
<!-- Node2&#45;&gt;Node3 -->
<g id="edge2" class="edge">
<title>Node2&#45;&gt;Node3</title>
<path fill="none" stroke="midnightblue" d="M154,-570.4C154,-562.64 154,-552.81 154,-543.86"/>
<polygon fill="midnightblue" stroke="midnightblue" points="157.5,-543.58 154,-533.58 150.5,-543.58 157.5,-543.58"/>
</g>
<!-- Node6 -->
<g id="node6" class="node">
<title>Node6</title>
<g id="a_node6"><a xlink:href="types_8h.html" target="_top" xlink:title=" ">
<polygon fill="white" stroke="black" points="402.5,-0.5 402.5,-19.5 483.5,-19.5 483.5,-0.5 402.5,-0.5"/>
<text text-anchor="middle" x="443" y="-7.5" font-family="Helvetica,sans-Serif" font-size="10.00">dolphin/types.h</text>
</a>
</g>
</g>
<!-- Node2&#45;&gt;Node6 -->
<g id="edge44" class="edge">
<title>Node2&#45;&gt;Node6</title>
<path fill="none" stroke="midnightblue" d="M114.34,-570.42C68.71,-551.38 0,-512.72 0,-452.5 0,-452.5 0,-452.5 0,-137.5 0,-94.53 15.57,-78.78 52,-56 107.58,-21.25 299.46,-13.31 392.13,-11.52"/>
<polygon fill="midnightblue" stroke="midnightblue" points="392.45,-15.01 402.39,-11.33 392.32,-8.01 392.45,-15.01"/>
</g>
<!-- Node4 -->
<g id="node4" class="node">
<title>Node4</title>
<g id="a_node4"><a xlink:href="JKRCompression_8h.html" target="_top" xlink:title=" ">
<polygon fill="white" stroke="black" points="65.5,-129 65.5,-148 242.5,-148 242.5,-129 65.5,-129"/>
<text text-anchor="middle" x="154" y="-136" font-family="Helvetica,sans-Serif" font-size="10.00">JSystem/JKernel/JKRCompression.h</text>
</a>
</g>
</g>
<!-- Node3&#45;&gt;Node4 -->
<g id="edge3" class="edge">
<title>Node3&#45;&gt;Node4</title>
<path fill="none" stroke="midnightblue" d="M154,-503.46C154,-480.12 154,-431.85 154,-391 154,-391 154,-391 154,-271.5 154,-231.16 154,-183.88 154,-158.28"/>
<polygon fill="midnightblue" stroke="midnightblue" points="157.5,-158.15 154,-148.15 150.5,-158.15 157.5,-158.15"/>
</g>
<!-- Node3&#45;&gt;Node6 -->
<g id="edge43" class="edge">
<title>Node3&#45;&gt;Node6</title>
<path fill="none" stroke="midnightblue" d="M126.8,-503.35C92.52,-483.34 38,-443.29 38,-391 38,-391 38,-391 38,-137.5 38,-92.26 59.94,-78.84 99,-56 147.66,-27.54 309.09,-16.64 392.35,-12.84"/>
<polygon fill="midnightblue" stroke="midnightblue" points="392.51,-16.33 402.35,-12.4 392.2,-9.34 392.51,-16.33"/>
</g>
<!-- Node7 -->
<g id="node7" class="node">
<title>Node7</title>
<g id="a_node7"><a xlink:href="JKRThread_8h.html" target="_top" xlink:title=" ">
<polygon fill="white" stroke="black" points="235.5,-436.5 235.5,-466.5 378.5,-466.5 378.5,-436.5 235.5,-436.5"/>
<text text-anchor="start" x="243.5" y="-454.5" font-family="Helvetica,sans-Serif" font-size="10.00">JSystem/JKernel/JKRThread</text>
<text text-anchor="middle" x="307" y="-443.5" font-family="Helvetica,sans-Serif" font-size="10.00">/JKRThread.h</text>
</a>
</g>
</g>
<!-- Node3&#45;&gt;Node7 -->
<g id="edge7" class="edge">
<title>Node3&#45;&gt;Node7</title>
<path fill="none" stroke="midnightblue" d="M187.2,-503.4C209.85,-493.77 240.07,-480.94 264.48,-470.56"/>
<polygon fill="midnightblue" stroke="midnightblue" points="266.03,-473.71 273.87,-466.58 263.29,-467.27 266.03,-473.71"/>
</g>
<!-- Node5 -->
<g id="node5" class="node">
<title>Node5</title>
<g id="a_node5"><a xlink:href="SArc_8h.html" target="_top" xlink:title=" ">
<polygon fill="white" stroke="black" points="118.5,-62 118.5,-81 241.5,-81 241.5,-62 118.5,-62"/>
<text text-anchor="middle" x="180" y="-69" font-family="Helvetica,sans-Serif" font-size="10.00">JSystem/JKernel/SArc.h</text>
</a>
</g>
</g>
<!-- Node4&#45;&gt;Node5 -->
<g id="edge4" class="edge">
<title>Node4&#45;&gt;Node5</title>
<path fill="none" stroke="midnightblue" d="M157.51,-128.73C161.4,-118.99 167.81,-102.98 172.79,-90.53"/>
<polygon fill="midnightblue" stroke="midnightblue" points="176.08,-91.71 176.55,-81.13 169.59,-89.11 176.08,-91.71"/>
</g>
<!-- Node4&#45;&gt;Node6 -->
<g id="edge6" class="edge">
<title>Node4&#45;&gt;Node6</title>
<path fill="none" stroke="midnightblue" d="M142.84,-128.9C123.73,-113.17 88.68,-79.24 109,-56 145.18,-14.61 308.21,-9.74 392.37,-10.07"/>
<polygon fill="midnightblue" stroke="midnightblue" points="392.45,-13.57 402.47,-10.14 392.49,-6.57 392.45,-13.57"/>
</g>
<!-- Node5&#45;&gt;Node6 -->
<g id="edge5" class="edge">
<title>Node5&#45;&gt;Node6</title>
<path fill="none" stroke="midnightblue" d="M217.68,-61.98C264.55,-51.37 344.61,-33.26 395.6,-21.72"/>
<polygon fill="midnightblue" stroke="midnightblue" points="396.41,-25.13 405.39,-19.51 394.86,-18.3 396.41,-25.13"/>
</g>
<!-- Node7&#45;&gt;Node6 -->
<g id="edge12" class="edge">
<title>Node7&#45;&gt;Node6</title>
<path fill="none" stroke="midnightblue" d="M299.13,-436.41C288,-415.13 269,-373.21 269,-335 269,-335 269,-335 269,-271.5 269,-171.2 268.59,-130.27 336,-56 350.84,-39.65 372.58,-29.05 392.59,-22.28"/>
<polygon fill="midnightblue" stroke="midnightblue" points="393.75,-25.58 402.24,-19.25 391.65,-18.91 393.75,-25.58"/>
</g>
<!-- Node8 -->
<g id="node8" class="node">
<title>Node8</title>
<g id="a_node8"><a xlink:href="JKRDisposer_8h.html" target="_top" xlink:title=" ">
<polygon fill="white" stroke="black" points="443.5,-123.5 443.5,-153.5 594.5,-153.5 594.5,-123.5 443.5,-123.5"/>
<text text-anchor="start" x="451.5" y="-141.5" font-family="Helvetica,sans-Serif" font-size="10.00">JSystem/JKernel/JKRDisposer</text>
<text text-anchor="middle" x="519" y="-130.5" font-family="Helvetica,sans-Serif" font-size="10.00">/JKRDisposer.h</text>
</a>
</g>
</g>
<!-- Node7&#45;&gt;Node8 -->
<g id="edge8" class="edge">
<title>Node7&#45;&gt;Node8</title>
<path fill="none" stroke="midnightblue" d="M314.87,-436.41C326,-415.13 345,-373.21 345,-335 345,-335 345,-335 345,-271.5 345,-212.37 409.57,-176.3 460.04,-157.13"/>
<polygon fill="midnightblue" stroke="midnightblue" points="461.41,-160.36 469.6,-153.63 459.01,-153.78 461.41,-160.36"/>
</g>
<!-- Node7&#45;&gt;Node10 -->
<g id="edge13" class="edge">
<title>Node7&#45;&gt;Node10</title>
<path fill="none" stroke="midnightblue" d="M371.59,-436.47C426.08,-424.64 502.01,-408.15 545.89,-398.63"/>
<polygon fill="midnightblue" stroke="midnightblue" points="546.76,-402.02 555.79,-396.47 545.28,-395.18 546.76,-402.02"/>
</g>
<!-- Node8&#45;&gt;Node6 -->
<g id="edge11" class="edge">
<title>Node8&#45;&gt;Node6</title>
<path fill="none" stroke="midnightblue" d="M510.58,-123.48C496.66,-100.31 468.88,-54.07 453.63,-28.69"/>
<polygon fill="midnightblue" stroke="midnightblue" points="456.43,-26.56 448.28,-19.79 450.43,-30.16 456.43,-26.56"/>
</g>
<!-- Node9 -->
<g id="node9" class="node">
<title>Node9</title>
<g id="a_node9"><a xlink:href="JSUList_8h.html" target="_top" xlink:title=" ">
<polygon fill="white" stroke="black" points="499,-56.5 499,-86.5 635,-86.5 635,-56.5 499,-56.5"/>
<text text-anchor="start" x="507" y="-74.5" font-family="Helvetica,sans-Serif" font-size="10.00">JSystem/JSupport/JSUList</text>
<text text-anchor="middle" x="567" y="-63.5" font-family="Helvetica,sans-Serif" font-size="10.00">/JSUList.h</text>
</a>
</g>
</g>
<!-- Node8&#45;&gt;Node9 -->
<g id="edge9" class="edge">
<title>Node8&#45;&gt;Node9</title>
<path fill="none" stroke="midnightblue" d="M529.42,-123.4C535.58,-115.05 543.53,-104.29 550.52,-94.81"/>
<polygon fill="midnightblue" stroke="midnightblue" points="553.48,-96.7 556.61,-86.58 547.85,-92.54 553.48,-96.7"/>
</g>
<!-- Node9&#45;&gt;Node6 -->
<g id="edge10" class="edge">
<title>Node9&#45;&gt;Node6</title>
<path fill="none" stroke="midnightblue" d="M537.61,-56.4C517.18,-46.59 490.14,-33.62 470.2,-24.05"/>
<polygon fill="midnightblue" stroke="midnightblue" points="471.57,-20.83 461.04,-19.66 468.54,-27.14 471.57,-20.83"/>
</g>
<!-- Node10&#45;&gt;Node6 -->
<g id="edge14" class="edge">
<title>Node10&#45;&gt;Node6</title>
<path fill="none" stroke="midnightblue" d="M555.77,-389.8C515.76,-389.74 437.26,-384.04 388,-344 366.71,-326.69 371.19,-313.86 362,-288 336.92,-217.45 310.15,-195.72 328,-123 336.01,-90.37 339.62,-80.12 363,-56 376.41,-42.17 395,-31.36 410.88,-23.81"/>
<polygon fill="midnightblue" stroke="midnightblue" points="412.68,-26.84 420.35,-19.53 409.8,-20.46 412.68,-26.84"/>
</g>
<!-- Node11 -->
<g id="node11" class="node">
<title>Node11</title>
<g id="a_node11"><a xlink:href="AR_8h.html" target="_top" xlink:title=" ">
<polygon fill="white" stroke="black" points="337.5,-129 337.5,-148 386.5,-148 386.5,-129 337.5,-129"/>
<text text-anchor="middle" x="362" y="-136" font-family="Helvetica,sans-Serif" font-size="10.00">ar/AR.h</text>
</a>
</g>
</g>
<!-- Node10&#45;&gt;Node11 -->
<g id="edge15" class="edge">
<title>Node10&#45;&gt;Node11</title>
<path fill="none" stroke="midnightblue" d="M555.69,-385.73C512.55,-379.64 427.47,-365.23 407,-344 357.17,-292.31 357.44,-198.66 360.17,-158.56"/>
<polygon fill="midnightblue" stroke="midnightblue" points="363.68,-158.59 361,-148.34 356.7,-158.02 363.68,-158.59"/>
</g>
<!-- Node12 -->
<g id="node12" class="node">
<title>Node12</title>
<g id="a_node12"><a xlink:href="ARQ_8h.html" target="_top" xlink:title=" ">
<polygon fill="white" stroke="black" points="387,-62 387,-81 443,-81 443,-62 387,-62"/>
<text text-anchor="middle" x="415" y="-69" font-family="Helvetica,sans-Serif" font-size="10.00">ar/ARQ.h</text>
</a>
</g>
</g>
<!-- Node10&#45;&gt;Node12 -->
<g id="edge17" class="edge">
<title>Node10&#45;&gt;Node12</title>
<path fill="none" stroke="midnightblue" d="M556.22,-380.35C538.18,-373.02 514.18,-360.96 498,-344 428.09,-270.69 416.94,-140.1 415.25,-91.45"/>
<polygon fill="midnightblue" stroke="midnightblue" points="418.75,-91.32 415.01,-81.4 411.75,-91.49 418.75,-91.32"/>
</g>
<!-- Node13 -->
<g id="node13" class="node">
<title>Node13</title>
<g id="a_node13"><a xlink:href="functions_8h.html" target="_top" xlink:title=" ">
<polygon fill="white" stroke="black" points="872,-324.5 872,-343.5 936,-343.5 936,-324.5 872,-324.5"/>
<text text-anchor="middle" x="904" y="-331.5" font-family="Helvetica,sans-Serif" font-size="10.00">functions.h</text>
</a>
</g>
</g>
<!-- Node10&#45;&gt;Node13 -->
<g id="edge19" class="edge">
<title>Node10&#45;&gt;Node13</title>
<path fill="none" stroke="midnightblue" d="M606.25,-385.18C655,-377.73 765.44,-360.57 858,-344 859.26,-343.77 860.54,-343.54 861.83,-343.31"/>
<polygon fill="midnightblue" stroke="midnightblue" points="862.67,-346.71 871.85,-341.43 861.38,-339.83 862.67,-346.71"/>
</g>
<!-- Node15 -->
<g id="node15" class="node">
<title>Node15</title>
<g id="a_node15"><a xlink:href="mwcc_8h.html" target="_top" xlink:title=" ">
<polygon fill="white" stroke="black" points="833,-263 833,-282 883,-282 883,-263 833,-263"/>
<text text-anchor="middle" x="858" y="-270" font-family="Helvetica,sans-Serif" font-size="10.00">mwcc.h</text>
</a>
</g>
</g>
<!-- Node10&#45;&gt;Node15 -->
<g id="edge27" class="edge">
<title>Node10&#45;&gt;Node15</title>
<path fill="none" stroke="midnightblue" d="M606.1,-386.95C660.09,-382.11 785.1,-368.52 819,-344 836.5,-331.35 847.07,-308.32 852.71,-292.03"/>
<polygon fill="midnightblue" stroke="midnightblue" points="856.19,-292.63 855.85,-282.04 849.52,-290.53 856.19,-292.63"/>
</g>
<!-- Node16 -->
<g id="node16" class="node">
<title>Node16</title>
<g id="a_node16"><a xlink:href="OS_8h.html" target="_top" xlink:title=" ">
<polygon fill="white" stroke="black" points="939,-263 939,-282 991,-282 991,-263 939,-263"/>
<text text-anchor="middle" x="965" y="-270" font-family="Helvetica,sans-Serif" font-size="10.00">os/OS.h</text>
</a>
</g>
</g>
<!-- Node10&#45;&gt;Node16 -->
<g id="edge28" class="edge">
<title>Node10&#45;&gt;Node16</title>
<path fill="none" stroke="midnightblue" d="M606.06,-389.37C679.79,-389.94 894,-387.72 945,-344 959.77,-331.34 964.03,-308.66 965.07,-292.44"/>
<polygon fill="midnightblue" stroke="midnightblue" points="968.58,-292.1 965.36,-282 961.58,-291.9 968.58,-292.1"/>
</g>
<!-- Node18 -->
<g id="node18" class="node">
<title>Node18</title>
<g id="a_node18"><a xlink:href="variables_8h.html" target="_top" xlink:title=" ">
<polygon fill="white" stroke="black" points="580.5,-324.5 580.5,-343.5 643.5,-343.5 643.5,-324.5 580.5,-324.5"/>
<text text-anchor="middle" x="612" y="-331.5" font-family="Helvetica,sans-Serif" font-size="10.00">variables.h</text>
</a>
</g>
</g>
<!-- Node10&#45;&gt;Node18 -->
<g id="edge29" class="edge">
<title>Node10&#45;&gt;Node18</title>
<path fill="none" stroke="midnightblue" d="M586.12,-380.08C590.41,-372.61 596.66,-361.72 601.94,-352.52"/>
<polygon fill="midnightblue" stroke="midnightblue" points="605.03,-354.17 606.98,-343.75 598.96,-350.68 605.03,-354.17"/>
</g>
<!-- Node11&#45;&gt;Node6 -->
<g id="edge16" class="edge">
<title>Node11&#45;&gt;Node6</title>
<path fill="none" stroke="midnightblue" d="M361.65,-128.86C361.43,-113.07 362.92,-79.04 378,-56 386.77,-42.6 401.05,-32.07 413.99,-24.57"/>
<polygon fill="midnightblue" stroke="midnightblue" points="415.95,-27.49 423.08,-19.65 412.62,-21.33 415.95,-27.49"/>
</g>
<!-- Node12&#45;&gt;Node6 -->
<g id="edge18" class="edge">
<title>Node12&#45;&gt;Node6</title>
<path fill="none" stroke="midnightblue" d="M419.01,-61.98C423.09,-53.32 429.52,-39.65 434.7,-28.65"/>
<polygon fill="midnightblue" stroke="midnightblue" points="437.9,-30.05 439,-19.51 431.57,-27.07 437.9,-30.05"/>
</g>
<!-- Node14 -->
<g id="node14" class="node">
<title>Node14</title>
<g id="a_node14"><a xlink:href="mtx__vec_8h.html" target="_top" xlink:title=" ">
<polygon fill="white" stroke="black" points="844.5,-129 844.5,-148 905.5,-148 905.5,-129 844.5,-129"/>
<text text-anchor="middle" x="875" y="-136" font-family="Helvetica,sans-Serif" font-size="10.00">mtx_vec.h</text>
</a>
</g>
</g>
<!-- Node13&#45;&gt;Node14 -->
<g id="edge20" class="edge">
<title>Node13&#45;&gt;Node14</title>
<path fill="none" stroke="midnightblue" d="M902.72,-324.44C898.35,-295.29 883.99,-199.47 877.84,-158.43"/>
<polygon fill="midnightblue" stroke="midnightblue" points="881.28,-157.78 876.33,-148.41 874.36,-158.82 881.28,-157.78"/>
</g>
<!-- Node13&#45;&gt;Node15 -->
<g id="edge22" class="edge">
<title>Node13&#45;&gt;Node15</title>
<path fill="none" stroke="midnightblue" d="M897.41,-324.48C890.51,-315.55 879.5,-301.31 870.87,-290.14"/>
<polygon fill="midnightblue" stroke="midnightblue" points="873.46,-287.78 864.58,-282.01 867.93,-292.06 873.46,-287.78"/>
</g>
<!-- Node13&#45;&gt;Node16 -->
<g id="edge23" class="edge">
<title>Node13&#45;&gt;Node16</title>
<path fill="none" stroke="midnightblue" d="M912.74,-324.48C922.16,-315.28 937.36,-300.46 948.95,-289.16"/>
<polygon fill="midnightblue" stroke="midnightblue" points="951.56,-291.5 956.28,-282.01 946.67,-286.49 951.56,-291.5"/>
</g>
<!-- Node14&#45;&gt;Node6 -->
<g id="edge21" class="edge">
<title>Node14&#45;&gt;Node6</title>
<path fill="none" stroke="midnightblue" d="M869.93,-128.75C859.4,-111.48 833.33,-73.19 800,-56 747.71,-29.04 579.13,-17.39 493.67,-13.12"/>
<polygon fill="midnightblue" stroke="midnightblue" points="493.83,-9.62 483.67,-12.63 493.49,-16.61 493.83,-9.62"/>
</g>
<!-- Node16&#45;&gt;Node6 -->
<g id="edge24" class="edge">
<title>Node16&#45;&gt;Node6</title>
<path fill="none" stroke="midnightblue" d="M963.7,-262.71C959.77,-238.52 946.26,-169.63 914,-123 887.42,-84.58 875.98,-74.32 833,-56 773.08,-30.46 585.24,-17.97 493.89,-13.28"/>
<polygon fill="midnightblue" stroke="midnightblue" points="493.93,-9.78 483.77,-12.78 493.58,-16.77 493.93,-9.78"/>
</g>
<!-- Node16&#45;&gt;Node17 -->
<g id="edge25" class="edge">
<title>Node16&#45;&gt;Node17</title>
<path fill="none" stroke="midnightblue" d="M970.66,-262.73C977.09,-252.79 987.72,-236.34 995.83,-223.79"/>
<polygon fill="midnightblue" stroke="midnightblue" points="998.94,-225.43 1001.43,-215.13 993.06,-221.63 998.94,-225.43"/>
</g>
<!-- Node17&#45;&gt;Node6 -->
<g id="edge26" class="edge">
<title>Node17&#45;&gt;Node6</title>
<path fill="none" stroke="midnightblue" d="M1007.47,-195.67C1008.34,-169.49 1006.95,-91.87 963,-56 927.19,-26.77 618.09,-15.55 494.12,-12.2"/>
<polygon fill="midnightblue" stroke="midnightblue" points="493.85,-8.69 483.76,-11.92 493.67,-15.69 493.85,-8.69"/>
</g>
<!-- Node18&#45;&gt;Node9 -->
<g id="edge30" class="edge">
<title>Node18&#45;&gt;Node9</title>
<path fill="none" stroke="midnightblue" d="M613.34,-324.28C617.52,-294.89 628.5,-197.2 603,-123 599.52,-112.87 593.31,-102.99 587.02,-94.7"/>
<polygon fill="midnightblue" stroke="midnightblue" points="589.55,-92.26 580.54,-86.68 584.1,-96.66 589.55,-92.26"/>
</g>
<!-- Node19 -->
<g id="node19" class="node">
<title>Node19</title>
<g id="a_node19"><a xlink:href="JUTXfb_8h.html" target="_top" xlink:title=" ">
<polygon fill="white" stroke="black" points="651.5,-257.5 651.5,-287.5 776.5,-287.5 776.5,-257.5 651.5,-257.5"/>
<text text-anchor="start" x="659.5" y="-275.5" font-family="Helvetica,sans-Serif" font-size="10.00">JSystem/JUtility/JUTXfb</text>
<text text-anchor="middle" x="714" y="-264.5" font-family="Helvetica,sans-Serif" font-size="10.00">/JUTXfb.h</text>
</a>
</g>
</g>
<!-- Node18&#45;&gt;Node19 -->
<g id="edge31" class="edge">
<title>Node18&#45;&gt;Node19</title>
<path fill="none" stroke="midnightblue" d="M626.61,-324.48C640.82,-316.19 662.87,-303.32 681.27,-292.59"/>
<polygon fill="midnightblue" stroke="midnightblue" points="683.09,-295.58 689.96,-287.52 679.56,-289.54 683.09,-295.58"/>
</g>
<!-- Node22 -->
<g id="node22" class="node">
<title>Node22</title>
<g id="a_node22"><a xlink:href="c__xyz_8h.html" target="_top" xlink:title=" ">
<polygon fill="white" stroke="black" points="487.5,-263 487.5,-282 594.5,-282 594.5,-263 487.5,-263"/>
<text text-anchor="middle" x="541" y="-270" font-family="Helvetica,sans-Serif" font-size="10.00">SComponent/c_xyz.h</text>
</a>
</g>
</g>
<!-- Node18&#45;&gt;Node22 -->
<g id="edge39" class="edge">
<title>Node18&#45;&gt;Node22</title>
<path fill="none" stroke="midnightblue" d="M601.83,-324.48C590.65,-315.11 572.48,-299.88 558.91,-288.51"/>
<polygon fill="midnightblue" stroke="midnightblue" points="561.07,-285.75 551.15,-282.01 556.57,-291.11 561.07,-285.75"/>
</g>
<!-- Node19&#45;&gt;Node6 -->
<g id="edge36" class="edge">
<title>Node19&#45;&gt;Node6</title>
<path fill="none" stroke="midnightblue" d="M711.3,-257.39C702.74,-214.05 674.91,-84.14 644,-56 622.31,-36.25 545.87,-23.33 493.76,-16.6"/>
<polygon fill="midnightblue" stroke="midnightblue" points="494.04,-13.11 483.68,-15.34 493.17,-20.06 494.04,-13.11"/>
</g>
<!-- Node20 -->
<g id="node20" class="node">
<title>Node20</title>
<g id="a_node20"><a xlink:href="JKRHeap_8h.html" target="_top" xlink:title=" ">
<polygon fill="white" stroke="black" points="733,-190.5 733,-220.5 869,-220.5 869,-190.5 733,-190.5"/>
<text text-anchor="start" x="741" y="-208.5" font-family="Helvetica,sans-Serif" font-size="10.00">JSystem/JKernel/JKRHeap</text>
<text text-anchor="middle" x="801" y="-197.5" font-family="Helvetica,sans-Serif" font-size="10.00">/JKRHeap.h</text>
</a>
</g>
</g>
<!-- Node19&#45;&gt;Node20 -->
<g id="edge32" class="edge">
<title>Node19&#45;&gt;Node20</title>
<path fill="none" stroke="midnightblue" d="M732.88,-257.4C744.85,-248.45 760.53,-236.74 773.83,-226.8"/>
<polygon fill="midnightblue" stroke="midnightblue" points="776.24,-229.37 782.16,-220.58 772.05,-223.76 776.24,-229.37"/>
</g>
<!-- Node21 -->
<g id="node21" class="node">
<title>Node21</title>
<g id="a_node21"><a xlink:href="GX_8h.html" target="_top" xlink:title=" ">
<polygon fill="white" stroke="black" points="691.5,-62 691.5,-81 742.5,-81 742.5,-62 691.5,-62"/>
<text text-anchor="middle" x="717" y="-69" font-family="Helvetica,sans-Serif" font-size="10.00">gx/GX.h</text>
</a>
</g>
</g>
<!-- Node19&#45;&gt;Node21 -->
<g id="edge37" class="edge">
<title>Node19&#45;&gt;Node21</title>
<path fill="none" stroke="midnightblue" d="M714.22,-257.19C714.75,-221.99 716.12,-131.17 716.71,-91.51"/>
<polygon fill="midnightblue" stroke="midnightblue" points="720.22,-91.41 716.87,-81.36 713.22,-91.31 720.22,-91.41"/>
</g>
<!-- Node20&#45;&gt;Node6 -->
<g id="edge34" class="edge">
<title>Node20&#45;&gt;Node6</title>
<path fill="none" stroke="midnightblue" d="M800.83,-190.4C799.65,-160.47 792.35,-90.52 751,-56 712.96,-24.25 571.38,-14.9 494.12,-12.14"/>
<polygon fill="midnightblue" stroke="midnightblue" points="493.77,-8.63 483.66,-11.8 493.54,-15.63 493.77,-8.63"/>
</g>
<!-- Node20&#45;&gt;Node8 -->
<g id="edge33" class="edge">
<title>Node20&#45;&gt;Node8</title>
<path fill="none" stroke="midnightblue" d="M740.16,-190.48C696.11,-180.32 636.44,-166.57 590.17,-155.91"/>
<polygon fill="midnightblue" stroke="midnightblue" points="590.75,-152.45 580.22,-153.61 589.18,-159.27 590.75,-152.45"/>
</g>
<!-- Node20&#45;&gt;Node10 -->
<g id="edge35" class="edge">
<title>Node20&#45;&gt;Node10</title>
<path fill="none" stroke="midnightblue" d="M801.83,-220.7C802.1,-238.28 800.06,-268.29 785,-288 742.84,-343.18 662.45,-370.19 616.17,-381.71"/>
<polygon fill="midnightblue" stroke="midnightblue" points="615.2,-378.34 606.29,-384.06 616.83,-385.15 615.2,-378.34"/>
</g>
<!-- Node21&#45;&gt;Node6 -->
<g id="edge38" class="edge">
<title>Node21&#45;&gt;Node6</title>
<path fill="none" stroke="midnightblue" d="M695.19,-61.89C689.34,-59.78 682.98,-57.65 677,-56 614.76,-38.85 541.45,-25.89 493.7,-18.38"/>
<polygon fill="midnightblue" stroke="midnightblue" points="494.03,-14.89 483.61,-16.82 492.96,-21.81 494.03,-14.89"/>
</g>
<!-- Node22&#45;&gt;Node10 -->
<g id="edge42" class="edge">
<title>Node22&#45;&gt;Node10</title>
<path fill="none" stroke="midnightblue" d="M544.04,-282.28C550.56,-301.1 565.99,-345.66 574.71,-370.84"/>
<polygon fill="midnightblue" stroke="midnightblue" points="571.41,-372.01 577.99,-380.32 578.03,-369.72 571.41,-372.01"/>
</g>
<!-- Node23 -->
<g id="node23" class="node">
<title>Node23</title>
<g id="a_node23"><a xlink:href="c__math_8h.html" target="_top" xlink:title=" ">
<polygon fill="white" stroke="black" points="464,-196 464,-215 580,-215 580,-196 464,-196"/>
<text text-anchor="middle" x="522" y="-203" font-family="Helvetica,sans-Serif" font-size="10.00">SComponent/c_math.h</text>
</a>
</g>
</g>
<!-- Node22&#45;&gt;Node23 -->
<g id="edge40" class="edge">
<title>Node22&#45;&gt;Node23</title>
<path fill="none" stroke="midnightblue" d="M538.44,-262.73C535.62,-253.09 531,-237.3 527.38,-224.91"/>
<polygon fill="midnightblue" stroke="midnightblue" points="530.69,-223.74 524.52,-215.13 523.97,-225.71 530.69,-223.74"/>
</g>
<!-- Node23&#45;&gt;Node10 -->
<g id="edge41" class="edge">
<title>Node23&#45;&gt;Node10</title>
<path fill="none" stroke="midnightblue" d="M510.83,-215.13C500.08,-224.21 484.53,-239.58 478,-257 473.17,-269.9 472.67,-275.3 478,-288 494.15,-326.46 532.88,-357.62 557.98,-374.71"/>
<polygon fill="midnightblue" stroke="midnightblue" points="556.26,-377.77 566.54,-380.35 560.12,-371.93 556.26,-377.77"/>
</g>
</g>
</svg>
