<?xml version="1.0" encoding="UTF-8" standalone="no"?>
<!DOCTYPE svg PUBLIC "-//W3C//DTD SVG 1.1//EN"
 "http://www.w3.org/Graphics/SVG/1.1/DTD/svg11.dtd">
<!-- Generated by graphviz version 2.46.1 (20210215.1649)
 -->
<!-- Title: libs/JSystem/JKernel/JKRDecomp.cpp Pages: 1 -->
<!--zoomable 609 -->
<svg id="main" version="1.1" xmlns="http://www.w3.org/2000/svg" xmlns:xlink="http://www.w3.org/1999/xlink" xml:space="preserve" onload="init(evt)">
<style type="text/css"><![CDATA[
.edge:hover path { stroke: red; }
.edge:hover polygon { stroke: red; fill: red; }
]]></style>
<script type="text/javascript"><![CDATA[
var edges = document.getElementsByTagName('g');
if (edges && edges.length) {
  for (var i=0;i<edges.length;i++) {
    if (edges[i].id.substr(0,4)=='edge') {
      edges[i].setAttribute('class','edge');
    }
  }
}
]]></script>
        <defs>
                <circle id="rim" cx="0" cy="0" r="7"/>
                <circle id="rim2" cx="0" cy="0" r="3.5"/>
                <g id="zoomPlus">
                        <use xlink:href="#rim" fill="#404040">
                                <set attributeName="fill" to="#808080" begin="zoomplus.mouseover" end="zoomplus.mouseout"/>
                        </use>
                        <path d="M-4,0h8M0,-4v8" fill="none" stroke="white" stroke-width="1.5" pointer-events="none"/>
                </g>
                <g id="zoomMin">
                        <use xlink:href="#rim" fill="#404040">
                                <set attributeName="fill" to="#808080" begin="zoomminus.mouseover" end="zoomminus.mouseout"/>
                        </use>
                        <path d="M-4,0h8" fill="none" stroke="white" stroke-width="1.5" pointer-events="none"/>
                </g>
                <g id="dirArrow">
                        <path fill="none" stroke="white" stroke-width="1.5" d="M0,-3.0v7 M-2.5,-0.5L0,-3.0L2.5,-0.5"/>
                </g>
               <g id="resetDef">
                       <use xlink:href="#rim2" fill="#404040">
                               <set attributeName="fill" to="#808080" begin="reset.mouseover" end="reset.mouseout"/>
                       </use>
               </g>
        </defs>

<script type="text/javascript">
var viewWidth = 1315;
var viewHeight = 609;
var sectionId = 'dynsection-0';
</script>
<script xlink:href="svgpan.js"/>
<svg id="graph" class="graph">
<g id="viewport">
<title>libs/JSystem/JKernel/JKRDecomp.cpp</title>
<polygon fill="white" stroke="transparent" points="-4,4 -4,-605 1311,-605 1311,4 -4,4"/>
<!-- Node1 -->
<g id="node1" class="node">
<title>Node1</title>
<g id="a_node1"><a xlink:title=" ">
<polygon fill="#bfbfbf" stroke="black" points="909,-570.5 909,-600.5 1018,-600.5 1018,-570.5 909,-570.5"/>
<text text-anchor="start" x="917" y="-588.5" font-family="Helvetica,sans-Serif" font-size="10.00">libs/JSystem/JKernel</text>
<text text-anchor="middle" x="963.5" y="-577.5" font-family="Helvetica,sans-Serif" font-size="10.00">/JKRDecomp.cpp</text>
</a>
</g>
</g>
<!-- Node2 -->
<g id="node2" class="node">
<title>Node2</title>
<g id="a_node2"><a xlink:href="JKRDecomp_8h.html" target="_top" xlink:title=" ">
<polygon fill="white" stroke="black" points="189,-503.5 189,-533.5 338,-533.5 338,-503.5 189,-503.5"/>
<text text-anchor="start" x="197" y="-521.5" font-family="Helvetica,sans-Serif" font-size="10.00">JSystem/JKernel/JKRDecomp</text>
<text text-anchor="middle" x="263.5" y="-510.5" font-family="Helvetica,sans-Serif" font-size="10.00">/JKRDecomp.h</text>
</a>
</g>
</g>
<!-- Node1&#45;&gt;Node2 -->
<g id="edge1" class="edge">
<title>Node1&#45;&gt;Node2</title>
<path fill="none" stroke="midnightblue" d="M908.86,-579.43C787.34,-568.14 493.93,-540.9 348.35,-527.38"/>
<polygon fill="midnightblue" stroke="midnightblue" points="348.41,-523.87 338.13,-526.43 347.76,-530.84 348.41,-523.87"/>
</g>
<!-- Node9 -->
<g id="node9" class="node">
<title>Node9</title>
<g id="a_node9"><a xlink:href="global_8h.html" target="_top" xlink:title=" ">
<polygon fill="white" stroke="black" points="665.5,-380.5 665.5,-399.5 715.5,-399.5 715.5,-380.5 665.5,-380.5"/>
<text text-anchor="middle" x="690.5" y="-387.5" font-family="Helvetica,sans-Serif" font-size="10.00">global.h</text>
</a>
</g>
</g>
<!-- Node1&#45;&gt;Node9 -->
<g id="edge41" class="edge">
<title>Node1&#45;&gt;Node9</title>
<path fill="none" stroke="midnightblue" d="M943.43,-570.27C893.01,-534.54 761.5,-441.32 710.82,-405.4"/>
<polygon fill="midnightblue" stroke="midnightblue" points="712.78,-402.5 702.6,-399.58 708.74,-408.22 712.78,-402.5"/>
</g>
<!-- Node20 -->
<g id="node20" class="node">
<title>Node20</title>
<g id="a_node20"><a xlink:href="JKRAramPiece_8h.html" target="_top" xlink:title=" ">
<polygon fill="white" stroke="black" points="810,-190.5 810,-220.5 971,-220.5 971,-190.5 810,-190.5"/>
<text text-anchor="start" x="818" y="-208.5" font-family="Helvetica,sans-Serif" font-size="10.00">JSystem/JKernel/JKRAramPiece</text>
<text text-anchor="middle" x="890.5" y="-197.5" font-family="Helvetica,sans-Serif" font-size="10.00">/JKRAramPiece.h</text>
</a>
</g>
</g>
<!-- Node1&#45;&gt;Node20 -->
<g id="edge36" class="edge">
<title>Node1&#45;&gt;Node20</title>
<path fill="none" stroke="midnightblue" d="M963.5,-570.24C963.5,-546.03 963.5,-495.35 963.5,-452.5 963.5,-452.5 963.5,-452.5 963.5,-333 963.5,-291.54 933.72,-251.43 912.2,-227.87"/>
<polygon fill="midnightblue" stroke="midnightblue" points="914.68,-225.4 905.27,-220.53 909.59,-230.21 914.68,-225.4"/>
</g>
<!-- Node21 -->
<g id="node21" class="node">
<title>Node21</title>
<g id="a_node21"><a xlink:title=" ">
<polygon fill="white" stroke="#bfbfbf" points="991,-503.5 991,-533.5 1140,-533.5 1140,-503.5 991,-503.5"/>
<text text-anchor="start" x="999" y="-521.5" font-family="Helvetica,sans-Serif" font-size="10.00">JSystem/JKernel/JKRDecomp</text>
<text text-anchor="middle" x="1065.5" y="-510.5" font-family="Helvetica,sans-Serif" font-size="10.00">/asm/func_802DBA58.s</text>
</a>
</g>
</g>
<!-- Node1&#45;&gt;Node21 -->
<g id="edge42" class="edge">
<title>Node1&#45;&gt;Node21</title>
<path fill="none" stroke="midnightblue" d="M985.63,-570.4C1000.07,-561.2 1019.1,-549.07 1034.97,-538.95"/>
<polygon fill="midnightblue" stroke="midnightblue" points="1036.86,-541.9 1043.41,-533.58 1033.1,-536 1036.86,-541.9"/>
</g>
<!-- Node22 -->
<g id="node22" class="node">
<title>Node22</title>
<g id="a_node22"><a xlink:title=" ">
<polygon fill="white" stroke="#bfbfbf" points="1158,-503.5 1158,-533.5 1307,-533.5 1307,-503.5 1158,-503.5"/>
<text text-anchor="start" x="1166" y="-521.5" font-family="Helvetica,sans-Serif" font-size="10.00">JSystem/JKernel/JKRDecomp</text>
<text text-anchor="middle" x="1232.5" y="-510.5" font-family="Helvetica,sans-Serif" font-size="10.00">/asm/func_802DBC14.s</text>
</a>
</g>
</g>
<!-- Node1&#45;&gt;Node22 -->
<g id="edge43" class="edge">
<title>Node1&#45;&gt;Node22</title>
<path fill="none" stroke="midnightblue" d="M1018.26,-571.27C1060.62,-561.03 1119.5,-546.8 1164.82,-535.85"/>
<polygon fill="midnightblue" stroke="midnightblue" points="1165.66,-539.25 1174.56,-533.5 1164.02,-532.45 1165.66,-539.25"/>
</g>
<!-- Node3 -->
<g id="node3" class="node">
<title>Node3</title>
<g id="a_node3"><a xlink:href="JKRCompression_8h.html" target="_top" xlink:title=" ">
<polygon fill="white" stroke="black" points="0,-129 0,-148 177,-148 177,-129 0,-129"/>
<text text-anchor="middle" x="88.5" y="-136" font-family="Helvetica,sans-Serif" font-size="10.00">JSystem/JKernel/JKRCompression.h</text>
</a>
</g>
</g>
<!-- Node2&#45;&gt;Node3 -->
<g id="edge2" class="edge">
<title>Node2&#45;&gt;Node3</title>
<path fill="none" stroke="midnightblue" d="M229.18,-503.49C188.89,-484.5 127.5,-446.46 127.5,-391 127.5,-391 127.5,-391 127.5,-271.5 127.5,-229.26 108.91,-182.43 97.4,-157.48"/>
<polygon fill="midnightblue" stroke="midnightblue" points="100.44,-155.72 92.97,-148.2 94.12,-158.73 100.44,-155.72"/>
</g>
<!-- Node5 -->
<g id="node5" class="node">
<title>Node5</title>
<g id="a_node5"><a xlink:href="types_8h.html" target="_top" xlink:title=" ">
<polygon fill="white" stroke="black" points="505,-0.5 505,-19.5 586,-19.5 586,-0.5 505,-0.5"/>
<text text-anchor="middle" x="545.5" y="-7.5" font-family="Helvetica,sans-Serif" font-size="10.00">dolphin/types.h</text>
</a>
</g>
</g>
<!-- Node2&#45;&gt;Node5 -->
<g id="edge35" class="edge">
<title>Node2&#45;&gt;Node5</title>
<path fill="none" stroke="midnightblue" d="M251.84,-503.33C234.65,-480.93 204.5,-435.35 204.5,-391 204.5,-391 204.5,-391 204.5,-137.5 204.5,-94.77 219.82,-79.52 255.5,-56 293.87,-30.71 422.14,-18.72 494.58,-13.84"/>
<polygon fill="midnightblue" stroke="midnightblue" points="495.09,-17.31 504.84,-13.17 494.64,-10.33 495.09,-17.31"/>
</g>
<!-- Node6 -->
<g id="node6" class="node">
<title>Node6</title>
<g id="a_node6"><a xlink:href="JKRThread_8h.html" target="_top" xlink:title=" ">
<polygon fill="white" stroke="black" points="281,-436.5 281,-466.5 424,-466.5 424,-436.5 281,-436.5"/>
<text text-anchor="start" x="289" y="-454.5" font-family="Helvetica,sans-Serif" font-size="10.00">JSystem/JKernel/JKRThread</text>
<text text-anchor="middle" x="352.5" y="-443.5" font-family="Helvetica,sans-Serif" font-size="10.00">/JKRThread.h</text>
</a>
</g>
</g>
<!-- Node2&#45;&gt;Node6 -->
<g id="edge6" class="edge">
<title>Node2&#45;&gt;Node6</title>
<path fill="none" stroke="midnightblue" d="M282.81,-503.4C295.17,-494.37 311.4,-482.51 325.09,-472.52"/>
<polygon fill="midnightblue" stroke="midnightblue" points="327.21,-475.3 333.23,-466.58 323.09,-469.65 327.21,-475.3"/>
</g>
<!-- Node4 -->
<g id="node4" class="node">
<title>Node4</title>
<g id="a_node4"><a xlink:href="SArc_8h.html" target="_top" xlink:title=" ">
<polygon fill="white" stroke="black" points="15,-62 15,-81 138,-81 138,-62 15,-62"/>
<text text-anchor="middle" x="76.5" y="-69" font-family="Helvetica,sans-Serif" font-size="10.00">JSystem/JKernel/SArc.h</text>
</a>
</g>
</g>
<!-- Node3&#45;&gt;Node4 -->
<g id="edge3" class="edge">
<title>Node3&#45;&gt;Node4</title>
<path fill="none" stroke="midnightblue" d="M86.88,-128.73C85.12,-119.18 82.24,-103.62 79.97,-91.28"/>
<polygon fill="midnightblue" stroke="midnightblue" points="83.35,-90.33 78.09,-81.13 76.47,-91.6 83.35,-90.33"/>
</g>
<!-- Node3&#45;&gt;Node5 -->
<g id="edge5" class="edge">
<title>Node3&#45;&gt;Node5</title>
<path fill="none" stroke="midnightblue" d="M98.79,-128.75C122.55,-108.62 179.96,-60.46 190.5,-56 244.19,-33.29 409.95,-19.69 494.61,-14.05"/>
<polygon fill="midnightblue" stroke="midnightblue" points="495.01,-17.53 504.76,-13.39 494.55,-10.55 495.01,-17.53"/>
</g>
<!-- Node4&#45;&gt;Node5 -->
<g id="edge4" class="edge">
<title>Node4&#45;&gt;Node5</title>
<path fill="none" stroke="midnightblue" d="M118.22,-61.96C129.33,-59.85 141.35,-57.7 152.5,-56 274.89,-37.34 419.79,-22.65 494.8,-15.59"/>
<polygon fill="midnightblue" stroke="midnightblue" points="495.29,-19.06 504.92,-14.64 494.63,-12.09 495.29,-19.06"/>
</g>
<!-- Node6&#45;&gt;Node5 -->
<g id="edge11" class="edge">
<title>Node6&#45;&gt;Node5</title>
<path fill="none" stroke="midnightblue" d="M324.17,-436.42C291.58,-417.98 242.5,-382.35 242.5,-335 242.5,-335 242.5,-335 242.5,-137.5 242.5,-29.45 408.61,-12.05 494.85,-10.3"/>
<polygon fill="midnightblue" stroke="midnightblue" points="495,-13.8 504.95,-10.16 494.9,-6.8 495,-13.8"/>
</g>
<!-- Node7 -->
<g id="node7" class="node">
<title>Node7</title>
<g id="a_node7"><a xlink:href="JKRDisposer_8h.html" target="_top" xlink:title=" ">
<polygon fill="white" stroke="black" points="309,-123.5 309,-153.5 460,-153.5 460,-123.5 309,-123.5"/>
<text text-anchor="start" x="317" y="-141.5" font-family="Helvetica,sans-Serif" font-size="10.00">JSystem/JKernel/JKRDisposer</text>
<text text-anchor="middle" x="384.5" y="-130.5" font-family="Helvetica,sans-Serif" font-size="10.00">/JKRDisposer.h</text>
</a>
</g>
</g>
<!-- Node6&#45;&gt;Node7 -->
<g id="edge7" class="edge">
<title>Node6&#45;&gt;Node7</title>
<path fill="none" stroke="midnightblue" d="M357.85,-436.28C370.92,-400.67 404.24,-304.53 415.5,-221 417.34,-207.35 419.24,-203.26 415.5,-190 412.71,-180.11 407.38,-170.25 401.91,-161.91"/>
<polygon fill="midnightblue" stroke="midnightblue" points="404.64,-159.7 396.04,-153.51 398.9,-163.71 404.64,-159.7"/>
</g>
<!-- Node6&#45;&gt;Node9 -->
<g id="edge12" class="edge">
<title>Node6&#45;&gt;Node9</title>
<path fill="none" stroke="midnightblue" d="M424.18,-437.88C495.18,-425.38 600.94,-406.77 655.36,-397.19"/>
<polygon fill="midnightblue" stroke="midnightblue" points="655.97,-400.63 665.22,-395.45 654.76,-393.74 655.97,-400.63"/>
</g>
<!-- Node7&#45;&gt;Node5 -->
<g id="edge10" class="edge">
<title>Node7&#45;&gt;Node5</title>
<path fill="none" stroke="midnightblue" d="M398.49,-123.43C415.65,-106.52 445.98,-77.7 474.5,-56 489.55,-44.55 507.56,-33.16 521.68,-24.7"/>
<polygon fill="midnightblue" stroke="midnightblue" points="523.49,-27.7 530.32,-19.6 519.93,-21.67 523.49,-27.7"/>
</g>
<!-- Node8 -->
<g id="node8" class="node">
<title>Node8</title>
<g id="a_node8"><a xlink:href="JSUList_8h.html" target="_top" xlink:title=" ">
<polygon fill="white" stroke="black" points="592.5,-56.5 592.5,-86.5 728.5,-86.5 728.5,-56.5 592.5,-56.5"/>
<text text-anchor="start" x="600.5" y="-74.5" font-family="Helvetica,sans-Serif" font-size="10.00">JSystem/JSupport/JSUList</text>
<text text-anchor="middle" x="660.5" y="-63.5" font-family="Helvetica,sans-Serif" font-size="10.00">/JSUList.h</text>
</a>
</g>
</g>
<!-- Node7&#45;&gt;Node8 -->
<g id="edge8" class="edge">
<title>Node7&#45;&gt;Node8</title>
<path fill="none" stroke="midnightblue" d="M444.05,-123.48C487.16,-113.32 545.56,-99.57 590.84,-88.91"/>
<polygon fill="midnightblue" stroke="midnightblue" points="591.65,-92.31 600.58,-86.61 590.05,-85.5 591.65,-92.31"/>
</g>
<!-- Node8&#45;&gt;Node5 -->
<g id="edge9" class="edge">
<title>Node8&#45;&gt;Node5</title>
<path fill="none" stroke="midnightblue" d="M633.25,-56.4C614.47,-46.68 589.67,-33.86 571.23,-24.31"/>
<polygon fill="midnightblue" stroke="midnightblue" points="572.72,-21.14 562.23,-19.66 569.51,-27.36 572.72,-21.14"/>
</g>
<!-- Node9&#45;&gt;Node5 -->
<g id="edge13" class="edge">
<title>Node9&#45;&gt;Node5</title>
<path fill="none" stroke="midnightblue" d="M690.5,-380.31C690.5,-361.06 690.5,-313.4 690.5,-273.5 690.5,-273.5 690.5,-273.5 690.5,-204.5 690.5,-167.31 693.49,-156.57 709.5,-123 718.23,-104.7 730.92,-106.17 737.5,-87 741.97,-73.97 746.06,-66.8 737.5,-56 720.19,-34.16 647.26,-21.9 596.44,-15.87"/>
<polygon fill="midnightblue" stroke="midnightblue" points="596.61,-12.37 586.28,-14.71 595.82,-19.32 596.61,-12.37"/>
</g>
<!-- Node10 -->
<g id="node10" class="node">
<title>Node10</title>
<g id="a_node10"><a xlink:href="AR_8h.html" target="_top" xlink:title=" ">
<polygon fill="white" stroke="black" points="757,-263 757,-282 806,-282 806,-263 757,-263"/>
<text text-anchor="middle" x="781.5" y="-270" font-family="Helvetica,sans-Serif" font-size="10.00">ar/AR.h</text>
</a>
</g>
</g>
<!-- Node9&#45;&gt;Node10 -->
<g id="edge14" class="edge">
<title>Node9&#45;&gt;Node10</title>
<path fill="none" stroke="midnightblue" d="M702.73,-380.39C714.03,-372.01 730.77,-358.47 742.5,-344 755.67,-327.76 766.76,-306.44 773.71,-291.52"/>
<polygon fill="midnightblue" stroke="midnightblue" points="776.92,-292.91 777.83,-282.35 770.54,-290.04 776.92,-292.91"/>
</g>
<!-- Node11 -->
<g id="node11" class="node">
<title>Node11</title>
<g id="a_node11"><a xlink:href="ARQ_8h.html" target="_top" xlink:title=" ">
<polygon fill="white" stroke="black" points="718.5,-129 718.5,-148 774.5,-148 774.5,-129 718.5,-129"/>
<text text-anchor="middle" x="746.5" y="-136" font-family="Helvetica,sans-Serif" font-size="10.00">ar/ARQ.h</text>
</a>
</g>
</g>
<!-- Node9&#45;&gt;Node11 -->
<g id="edge16" class="edge">
<title>Node9&#45;&gt;Node11</title>
<path fill="none" stroke="midnightblue" d="M693.44,-380.45C696.47,-371.45 701.19,-356.84 704.5,-344 721.96,-276.22 736.98,-194.34 743.3,-158.19"/>
<polygon fill="midnightblue" stroke="midnightblue" points="746.78,-158.59 745.04,-148.14 739.89,-157.4 746.78,-158.59"/>
</g>
<!-- Node12 -->
<g id="node12" class="node">
<title>Node12</title>
<g id="a_node12"><a xlink:href="mwcc_8h.html" target="_top" xlink:title=" ">
<polygon fill="white" stroke="black" points="530.5,-324.5 530.5,-343.5 580.5,-343.5 580.5,-324.5 530.5,-324.5"/>
<text text-anchor="middle" x="555.5" y="-331.5" font-family="Helvetica,sans-Serif" font-size="10.00">mwcc.h</text>
</a>
</g>
</g>
<!-- Node9&#45;&gt;Node12 -->
<g id="edge18" class="edge">
<title>Node9&#45;&gt;Node12</title>
<path fill="none" stroke="midnightblue" d="M669.11,-380.44C646.79,-371.52 611.6,-357.44 586.29,-347.32"/>
<polygon fill="midnightblue" stroke="midnightblue" points="587.38,-343.98 576.79,-343.52 584.78,-350.48 587.38,-343.98"/>
</g>
<!-- Node13 -->
<g id="node13" class="node">
<title>Node13</title>
<g id="a_node13"><a xlink:href="OS_8h.html" target="_top" xlink:title=" ">
<polygon fill="white" stroke="black" points="885.5,-129 885.5,-148 937.5,-148 937.5,-129 885.5,-129"/>
<text text-anchor="middle" x="911.5" y="-136" font-family="Helvetica,sans-Serif" font-size="10.00">os/OS.h</text>
</a>
</g>
</g>
<!-- Node9&#45;&gt;Node13 -->
<g id="edge19" class="edge">
<title>Node9&#45;&gt;Node13</title>
<path fill="none" stroke="midnightblue" d="M715.93,-383.32C775.18,-368.56 921.81,-322.83 980.5,-221 987.38,-209.06 986.73,-202.29 980.5,-190 972.16,-173.56 955.66,-161.18 940.9,-152.8"/>
<polygon fill="midnightblue" stroke="midnightblue" points="942.49,-149.68 932.01,-148.09 939.21,-155.86 942.49,-149.68"/>
</g>
<!-- Node15 -->
<g id="node15" class="node">
<title>Node15</title>
<g id="a_node15"><a xlink:href="variables_8h.html" target="_top" xlink:title=" ">
<polygon fill="white" stroke="black" points="599,-324.5 599,-343.5 662,-343.5 662,-324.5 599,-324.5"/>
<text text-anchor="middle" x="630.5" y="-331.5" font-family="Helvetica,sans-Serif" font-size="10.00">variables.h</text>
</a>
</g>
</g>
<!-- Node9&#45;&gt;Node15 -->
<g id="edge23" class="edge">
<title>Node9&#45;&gt;Node15</title>
<path fill="none" stroke="midnightblue" d="M680.86,-380.32C671.99,-372.34 658.63,-360.31 647.89,-350.65"/>
<polygon fill="midnightblue" stroke="midnightblue" points="650.09,-347.92 640.32,-343.83 645.41,-353.13 650.09,-347.92"/>
</g>
<!-- Node10&#45;&gt;Node5 -->
<g id="edge15" class="edge">
<title>Node10&#45;&gt;Node5</title>
<path fill="none" stroke="midnightblue" d="M783.24,-262.8C790.29,-226.54 815.07,-87.94 788.5,-56 764.56,-27.22 660.31,-16.76 596.39,-13.03"/>
<polygon fill="midnightblue" stroke="midnightblue" points="596.29,-9.52 586.11,-12.46 595.9,-16.5 596.29,-9.52"/>
</g>
<!-- Node11&#45;&gt;Node5 -->
<g id="edge17" class="edge">
<title>Node11&#45;&gt;Node5</title>
<path fill="none" stroke="midnightblue" d="M753.62,-128.87C765.98,-112.79 788.45,-77.9 770.5,-56 748.94,-29.7 656.04,-18.46 596.56,-13.9"/>
<polygon fill="midnightblue" stroke="midnightblue" points="596.46,-10.38 586.23,-13.15 595.95,-17.36 596.46,-10.38"/>
</g>
<!-- Node13&#45;&gt;Node5 -->
<g id="edge20" class="edge">
<title>Node13&#45;&gt;Node5</title>
<path fill="none" stroke="midnightblue" d="M907.39,-128.83C898.78,-111.69 877.07,-73.63 846.5,-56 804.91,-32.02 670.72,-19.41 596.33,-14.11"/>
<polygon fill="midnightblue" stroke="midnightblue" points="596.47,-10.61 586.25,-13.41 595.98,-17.6 596.47,-10.61"/>
</g>
<!-- Node14 -->
<g id="node14" class="node">
<title>Node14</title>
<g id="a_node14"><a xlink:href="dvd_8h.html" target="_top" xlink:title=" ">
<polygon fill="white" stroke="black" points="899,-62 899,-81 958,-81 958,-62 899,-62"/>
<text text-anchor="middle" x="928.5" y="-69" font-family="Helvetica,sans-Serif" font-size="10.00">dvd/dvd.h</text>
</a>
</g>
</g>
<!-- Node13&#45;&gt;Node14 -->
<g id="edge21" class="edge">
<title>Node13&#45;&gt;Node14</title>
<path fill="none" stroke="midnightblue" d="M913.79,-128.73C916.32,-119.09 920.44,-103.3 923.69,-90.91"/>
<polygon fill="midnightblue" stroke="midnightblue" points="927.1,-91.69 926.24,-81.13 920.33,-89.92 927.1,-91.69"/>
</g>
<!-- Node14&#45;&gt;Node5 -->
<g id="edge22" class="edge">
<title>Node14&#45;&gt;Node5</title>
<path fill="none" stroke="midnightblue" d="M904.98,-61.85C898.42,-59.69 891.24,-57.54 884.5,-56 783.7,-32.91 663.13,-20.41 596.36,-14.78"/>
<polygon fill="midnightblue" stroke="midnightblue" points="596.37,-11.27 586.12,-13.93 595.79,-18.24 596.37,-11.27"/>
</g>
<!-- Node15&#45;&gt;Node8 -->
<g id="edge24" class="edge">
<title>Node15&#45;&gt;Node8</title>
<path fill="none" stroke="midnightblue" d="M631.5,-324.33C635.61,-288.66 651.29,-152.45 657.72,-96.6"/>
<polygon fill="midnightblue" stroke="midnightblue" points="661.21,-96.89 658.88,-86.56 654.26,-96.09 661.21,-96.89"/>
</g>
<!-- Node16 -->
<g id="node16" class="node">
<title>Node16</title>
<g id="a_node16"><a xlink:href="JUTXfb_8h.html" target="_top" xlink:title=" ">
<polygon fill="white" stroke="black" points="420,-257.5 420,-287.5 545,-287.5 545,-257.5 420,-257.5"/>
<text text-anchor="start" x="428" y="-275.5" font-family="Helvetica,sans-Serif" font-size="10.00">JSystem/JUtility/JUTXfb</text>
<text text-anchor="middle" x="482.5" y="-264.5" font-family="Helvetica,sans-Serif" font-size="10.00">/JUTXfb.h</text>
</a>
</g>
</g>
<!-- Node15&#45;&gt;Node16 -->
<g id="edge25" class="edge">
<title>Node15&#45;&gt;Node16</title>
<path fill="none" stroke="midnightblue" d="M609.3,-324.48C587.85,-315.85 554.05,-302.26 526.74,-291.29"/>
<polygon fill="midnightblue" stroke="midnightblue" points="527.96,-288.01 517.38,-287.52 525.35,-294.5 527.96,-288.01"/>
</g>
<!-- Node19 -->
<g id="node19" class="node">
<title>Node19</title>
<g id="a_node19"><a xlink:href="mtx__vec_8h.html" target="_top" xlink:title=" ">
<polygon fill="white" stroke="black" points="563,-263 563,-282 624,-282 624,-263 563,-263"/>
<text text-anchor="middle" x="593.5" y="-270" font-family="Helvetica,sans-Serif" font-size="10.00">mtx_vec.h</text>
</a>
</g>
</g>
<!-- Node15&#45;&gt;Node19 -->
<g id="edge33" class="edge">
<title>Node15&#45;&gt;Node19</title>
<path fill="none" stroke="midnightblue" d="M625.2,-324.48C619.76,-315.73 611.14,-301.87 604.26,-290.81"/>
<polygon fill="midnightblue" stroke="midnightblue" points="607.04,-288.65 598.79,-282.01 601.1,-292.35 607.04,-288.65"/>
</g>
<!-- Node16&#45;&gt;Node5 -->
<g id="edge30" class="edge">
<title>Node16&#45;&gt;Node5</title>
<path fill="none" stroke="midnightblue" d="M484.51,-257.28C486.93,-240.96 491.3,-213.4 496.5,-190 509.63,-130.92 529.87,-62.16 539.72,-29.74"/>
<polygon fill="midnightblue" stroke="midnightblue" points="543.17,-30.45 542.74,-19.86 536.47,-28.4 543.17,-30.45"/>
</g>
<!-- Node17 -->
<g id="node17" class="node">
<title>Node17</title>
<g id="a_node17"><a xlink:href="JKRHeap_8h.html" target="_top" xlink:title=" ">
<polygon fill="white" stroke="black" points="270.5,-190.5 270.5,-220.5 406.5,-220.5 406.5,-190.5 270.5,-190.5"/>
<text text-anchor="start" x="278.5" y="-208.5" font-family="Helvetica,sans-Serif" font-size="10.00">JSystem/JKernel/JKRHeap</text>
<text text-anchor="middle" x="338.5" y="-197.5" font-family="Helvetica,sans-Serif" font-size="10.00">/JKRHeap.h</text>
</a>
</g>
</g>
<!-- Node16&#45;&gt;Node17 -->
<g id="edge26" class="edge">
<title>Node16&#45;&gt;Node17</title>
<path fill="none" stroke="midnightblue" d="M451.25,-257.4C430.03,-247.81 401.75,-235.05 378.82,-224.7"/>
<polygon fill="midnightblue" stroke="midnightblue" points="380.24,-221.5 369.68,-220.58 377.36,-227.88 380.24,-221.5"/>
</g>
<!-- Node18 -->
<g id="node18" class="node">
<title>Node18</title>
<g id="a_node18"><a xlink:href="GX_8h.html" target="_top" xlink:title=" ">
<polygon fill="white" stroke="black" points="506,-196 506,-215 557,-215 557,-196 506,-196"/>
<text text-anchor="middle" x="531.5" y="-203" font-family="Helvetica,sans-Serif" font-size="10.00">gx/GX.h</text>
</a>
</g>
</g>
<!-- Node16&#45;&gt;Node18 -->
<g id="edge31" class="edge">
<title>Node16&#45;&gt;Node18</title>
<path fill="none" stroke="midnightblue" d="M493.13,-257.4C500.7,-247.36 510.89,-233.84 518.87,-223.25"/>
<polygon fill="midnightblue" stroke="midnightblue" points="521.72,-225.29 524.95,-215.19 516.13,-221.07 521.72,-225.29"/>
</g>
<!-- Node17&#45;&gt;Node5 -->
<g id="edge28" class="edge">
<title>Node17&#45;&gt;Node5</title>
<path fill="none" stroke="midnightblue" d="M323.2,-190.46C306.98,-173.82 285.5,-145.51 299.5,-123 341.47,-55.53 435.55,-28.31 494.44,-17.62"/>
<polygon fill="midnightblue" stroke="midnightblue" points="495.38,-21.01 504.65,-15.87 494.2,-14.11 495.38,-21.01"/>
</g>
<!-- Node17&#45;&gt;Node7 -->
<g id="edge27" class="edge">
<title>Node17&#45;&gt;Node7</title>
<path fill="none" stroke="midnightblue" d="M348.48,-190.4C354.39,-182.05 362,-171.29 368.71,-161.81"/>
<polygon fill="midnightblue" stroke="midnightblue" points="371.62,-163.76 374.54,-153.58 365.9,-159.72 371.62,-163.76"/>
</g>
<!-- Node17&#45;&gt;Node9 -->
<g id="edge29" class="edge">
<title>Node17&#45;&gt;Node9</title>
<path fill="none" stroke="midnightblue" d="M348.36,-220.66C361.13,-238.19 384.79,-268.16 410.5,-288 486.18,-346.4 598.69,-373.14 655.29,-383.48"/>
<polygon fill="midnightblue" stroke="midnightblue" points="654.73,-386.93 665.18,-385.22 655.94,-380.04 654.73,-386.93"/>
</g>
<!-- Node18&#45;&gt;Node5 -->
<g id="edge32" class="edge">
<title>Node18&#45;&gt;Node5</title>
<path fill="none" stroke="midnightblue" d="M532.12,-195.94C534.23,-166.79 541.16,-70.97 544.13,-29.93"/>
<polygon fill="midnightblue" stroke="midnightblue" points="547.62,-30.13 544.86,-19.91 540.64,-29.63 547.62,-30.13"/>
</g>
<!-- Node19&#45;&gt;Node5 -->
<g id="edge34" class="edge">
<title>Node19&#45;&gt;Node5</title>
<path fill="none" stroke="midnightblue" d="M591.9,-262.83C585.11,-225.98 558.55,-81.83 548.97,-29.83"/>
<polygon fill="midnightblue" stroke="midnightblue" points="552.36,-28.9 547.1,-19.7 545.47,-30.17 552.36,-28.9"/>
</g>
<!-- Node20&#45;&gt;Node5 -->
<g id="edge39" class="edge">
<title>Node20&#45;&gt;Node5</title>
<path fill="none" stroke="midnightblue" d="M910.89,-190.46C922.79,-181.32 937.24,-168.44 946.5,-154 970.55,-116.51 997.28,-89.13 967.5,-56 943.07,-28.82 703.06,-16.74 596.28,-12.68"/>
<polygon fill="midnightblue" stroke="midnightblue" points="596.19,-9.18 586.07,-12.3 595.93,-16.17 596.19,-9.18"/>
</g>
<!-- Node20&#45;&gt;Node8 -->
<g id="edge37" class="edge">
<title>Node20&#45;&gt;Node8</title>
<path fill="none" stroke="midnightblue" d="M874.76,-190.38C854.67,-172.89 818.35,-142.97 783.5,-123 760.89,-110.05 734.31,-98.7 711.65,-90.06"/>
<polygon fill="midnightblue" stroke="midnightblue" points="712.79,-86.75 702.2,-86.52 710.34,-93.31 712.79,-86.75"/>
</g>
<!-- Node20&#45;&gt;Node11 -->
<g id="edge38" class="edge">
<title>Node20&#45;&gt;Node11</title>
<path fill="none" stroke="midnightblue" d="M859.25,-190.4C834.1,-179.04 799.05,-163.22 774.73,-152.24"/>
<polygon fill="midnightblue" stroke="midnightblue" points="775.9,-148.93 765.35,-148.01 773.02,-155.31 775.9,-148.93"/>
</g>
<!-- Node20&#45;&gt;Node13 -->
<g id="edge40" class="edge">
<title>Node20&#45;&gt;Node13</title>
<path fill="none" stroke="midnightblue" d="M895.06,-190.4C898.14,-180.86 902.23,-168.18 905.57,-157.86"/>
<polygon fill="midnightblue" stroke="midnightblue" points="908.95,-158.79 908.69,-148.19 902.29,-156.63 908.95,-158.79"/>
</g>
</g>
</svg>
        <g id="navigator" transform="translate(0 0)" fill="#404254">
                <rect fill="#f2f5e9" fill-opacity="0.5" stroke="#606060" stroke-width=".5" x="0" y="0" width="60" height="60"/>
                <use id="zoomplus" xlink:href="#zoomPlus" x="17" y="9" onmousedown="handleZoom(evt,'in')"/>
                <use id="zoomminus" xlink:href="#zoomMin" x="42" y="9" onmousedown="handleZoom(evt,'out')"/>
                <use id="reset" xlink:href="#resetDef" x="30" y="36" onmousedown="handleReset()"/>
                <g id="arrowUp" xlink:href="#dirArrow" transform="translate(30 24)" onmousedown="handlePan(0,-1)">
                  <use xlink:href="#rim" fill="#404040">
                        <set attributeName="fill" to="#808080" begin="arrowUp.mouseover" end="arrowUp.mouseout"/>
                  </use>
                  <path fill="none" stroke="white" stroke-width="1.5" d="M0,-3.0v7 M-2.5,-0.5L0,-3.0L2.5,-0.5"/>
                </g>
                <g id="arrowRight" xlink:href="#dirArrow" transform="rotate(90) translate(36 -43)" onmousedown="handlePan(1,0)">
                  <use xlink:href="#rim" fill="#404040">
                        <set attributeName="fill" to="#808080" begin="arrowRight.mouseover" end="arrowRight.mouseout"/>
                  </use>
                  <path fill="none" stroke="white" stroke-width="1.5" d="M0,-3.0v7 M-2.5,-0.5L0,-3.0L2.5,-0.5"/>
                </g>
                <g id="arrowDown" xlink:href="#dirArrow" transform="rotate(180) translate(-30 -48)" onmousedown="handlePan(0,1)">
                  <use xlink:href="#rim" fill="#404040">
                        <set attributeName="fill" to="#808080" begin="arrowDown.mouseover" end="arrowDown.mouseout"/>
                  </use>
                  <path fill="none" stroke="white" stroke-width="1.5" d="M0,-3.0v7 M-2.5,-0.5L0,-3.0L2.5,-0.5"/>
                </g>
                <g id="arrowLeft" xlink:href="#dirArrow" transform="rotate(270) translate(-36 17)" onmousedown="handlePan(-1,0)">
                  <use xlink:href="#rim" fill="#404040">
                        <set attributeName="fill" to="#808080" begin="arrowLeft.mouseover" end="arrowLeft.mouseout"/>
                  </use>
                  <path fill="none" stroke="white" stroke-width="1.5" d="M0,-3.0v7 M-2.5,-0.5L0,-3.0L2.5,-0.5"/>
                </g>
        </g>
        <svg viewBox="0 0 15 15" width="100%" height="30px" preserveAspectRatio="xMaxYMin meet">
         <g id="arrow_out" transform="scale(0.3 0.3)">
          <a xlink:href="JKRDecomp_8cpp__incl_org.svg" target="_base">
           <rect id="button" ry="5" rx="5" y="6" x="6" height="38" width="38"
                fill="#f2f5e9" fill-opacity="0.5" stroke="#606060" stroke-width="1.0"/>
           <path id="arrow"
             d="M 11.500037,31.436501 C 11.940474,20.09759 22.043105,11.32322 32.158766,21.979434 L 37.068811,17.246167 C 37.068811,17.246167 37.088388,32 37.088388,32 L 22.160133,31.978069 C 22.160133,31.978069 26.997745,27.140456 26.997745,27.140456 C 18.528582,18.264221 13.291696,25.230495 11.500037,31.436501 z"
             style="fill:#404040;"/>
          </a>
         </g>
        </svg>
</svg>
