<?xml version="1.0" encoding="UTF-8" standalone="no"?>
<!DOCTYPE svg PUBLIC "-//W3C//DTD SVG 1.1//EN"
 "http://www.w3.org/Graphics/SVG/1.1/DTD/svg11.dtd">
<!-- Generated by graphviz version 2.46.0 (20210122.1329)
 -->
<!-- Title: include/JSystem/JKernel/JKRExpHeap/JKRExpHeap.h Pages: 1 -->
<!--zoomable 374 -->
<svg id="main" version="1.1" xmlns="http://www.w3.org/2000/svg" xmlns:xlink="http://www.w3.org/1999/xlink" xml:space="preserve" onload="init(evt)">
<style type="text/css"><![CDATA[
.edge:hover path { stroke: red; }
.edge:hover polygon { stroke: red; fill: red; }
]]></style>
<script type="text/javascript"><![CDATA[
var edges = document.getElementsByTagName('g');
if (edges && edges.length) {
  for (var i=0;i<edges.length;i++) {
    if (edges[i].id.substr(0,4)=='edge') {
      edges[i].setAttribute('class','edge');
    }
  }
}
]]></script>
        <defs>
                <circle id="rim" cx="0" cy="0" r="7"/>
                <circle id="rim2" cx="0" cy="0" r="3.5"/>
                <g id="zoomPlus">
                        <use xlink:href="#rim" fill="#404040">
                                <set attributeName="fill" to="#808080" begin="zoomplus.mouseover" end="zoomplus.mouseout"/>
                        </use>
                        <path d="M-4,0h8M0,-4v8" fill="none" stroke="white" stroke-width="1.5" pointer-events="none"/>
                </g>
                <g id="zoomMin">
                        <use xlink:href="#rim" fill="#404040">
                                <set attributeName="fill" to="#808080" begin="zoomminus.mouseover" end="zoomminus.mouseout"/>
                        </use>
                        <path d="M-4,0h8" fill="none" stroke="white" stroke-width="1.5" pointer-events="none"/>
                </g>
                <g id="dirArrow">
                        <path fill="none" stroke="white" stroke-width="1.5" d="M0,-3.0v7 M-2.5,-0.5L0,-3.0L2.5,-0.5"/>
                </g>
               <g id="resetDef">
                       <use xlink:href="#rim2" fill="#404040">
                               <set attributeName="fill" to="#808080" begin="reset.mouseover" end="reset.mouseout"/>
                       </use>
               </g>
        </defs>

<script type="text/javascript">
var viewWidth = 5334;
var viewHeight = 374;
var sectionId = 'dynsection-1';
</script>
<script xlink:href="svgpan.js"/>
<svg id="graph" class="graph">
<g id="viewport">
<title>include/JSystem/JKernel/JKRExpHeap/JKRExpHeap.h</title>
<polygon fill="white" stroke="transparent" points="-4,4 -4,-370 5330,-370 5330,4 -4,4"/>
<!-- Node1 -->
<g id="node1" class="node">
<title>Node1</title>
<g id="a_node1"><a xlink:title=" ">
<polygon fill="#bfbfbf" stroke="black" points="772.5,-335.5 772.5,-365.5 918.5,-365.5 918.5,-335.5 772.5,-335.5"/>
<text text-anchor="start" x="780.5" y="-353.5" font-family="Helvetica,sans-Serif" font-size="10.00">include/JSystem/JKernel</text>
<text text-anchor="middle" x="845.5" y="-342.5" font-family="Helvetica,sans-Serif" font-size="10.00">/JKRExpHeap/JKRExpHeap.h</text>
</a>
</g>
</g>
<!-- Node2 -->
<g id="node2" class="node">
<title>Node2</title>
<g id="a_node2"><a xlink:href="JKRAram_8cpp.html" target="_top" xlink:title=" ">
<polygon fill="white" stroke="black" points="597,-268.5 597,-298.5 706,-298.5 706,-268.5 597,-268.5"/>
<text text-anchor="start" x="605" y="-286.5" font-family="Helvetica,sans-Serif" font-size="10.00">libs/JSystem/JKernel</text>
<text text-anchor="middle" x="651.5" y="-275.5" font-family="Helvetica,sans-Serif" font-size="10.00">/JKRAram.cpp</text>
</a>
</g>
</g>
<!-- Node1&#45;&gt;Node2 -->
<g id="edge1" class="edge">
<title>Node1&#45;&gt;Node2</title>
<path fill="none" stroke="midnightblue" d="M793.54,-332.09C762.23,-321.6 722.86,-308.41 693.51,-298.58"/>
<polygon fill="midnightblue" stroke="midnightblue" points="792.81,-335.54 803.4,-335.4 795.03,-328.9 792.81,-335.54"/>
</g>
<!-- Node3 -->
<g id="node3" class="node">
<title>Node3</title>
<g id="a_node3"><a xlink:href="JKRExpHeap_8cpp.html" target="_top" xlink:title=" ">
<polygon fill="white" stroke="black" points="724,-268.5 724,-298.5 833,-298.5 833,-268.5 724,-268.5"/>
<text text-anchor="start" x="732" y="-286.5" font-family="Helvetica,sans-Serif" font-size="10.00">libs/JSystem/JKernel</text>
<text text-anchor="middle" x="778.5" y="-275.5" font-family="Helvetica,sans-Serif" font-size="10.00">/JKRExpHeap.cpp</text>
</a>
</g>
</g>
<!-- Node1&#45;&gt;Node3 -->
<g id="edge2" class="edge">
<title>Node1&#45;&gt;Node3</title>
<path fill="none" stroke="midnightblue" d="M823.66,-328.31C813.61,-318.56 801.96,-307.26 793.01,-298.58"/>
<polygon fill="midnightblue" stroke="midnightblue" points="821.35,-330.94 830.96,-335.4 826.22,-325.92 821.35,-330.94"/>
</g>
<!-- Node4 -->
<g id="node4" class="node">
<title>Node4</title>
<g id="a_node4"><a xlink:href="m__Do__ext_8h.html" target="_top" xlink:title=" ">
<polygon fill="white" stroke="black" points="851.5,-268.5 851.5,-298.5 973.5,-298.5 973.5,-268.5 851.5,-268.5"/>
<text text-anchor="start" x="859.5" y="-286.5" font-family="Helvetica,sans-Serif" font-size="10.00">include/m_Do/m_Do_ext</text>
<text text-anchor="middle" x="912.5" y="-275.5" font-family="Helvetica,sans-Serif" font-size="10.00">/m_Do_ext.h</text>
</a>
</g>
</g>
<!-- Node1&#45;&gt;Node4 -->
<g id="edge3" class="edge">
<title>Node1&#45;&gt;Node4</title>
<path fill="none" stroke="midnightblue" d="M867.34,-328.31C877.39,-318.56 889.04,-307.26 897.99,-298.58"/>
<polygon fill="midnightblue" stroke="midnightblue" points="864.78,-325.92 860.04,-335.4 869.65,-330.94 864.78,-325.92"/>
</g>
<!-- Node47 -->
<g id="node47" class="node">
<title>Node47</title>
<g id="a_node47"><a xlink:href="m__Do__main_8h.html" target="_top" xlink:title=" ">
<polygon fill="white" stroke="black" points="4812,-134.5 4812,-164.5 4943,-164.5 4943,-134.5 4812,-134.5"/>
<text text-anchor="start" x="4820" y="-152.5" font-family="Helvetica,sans-Serif" font-size="10.00">include/m_Do/m_Do_main</text>
<text text-anchor="middle" x="4877.5" y="-141.5" font-family="Helvetica,sans-Serif" font-size="10.00">/m_Do_main.h</text>
</a>
</g>
</g>
<!-- Node1&#45;&gt;Node47 -->
<g id="edge53" class="edge">
<title>Node1&#45;&gt;Node47</title>
<path fill="none" stroke="midnightblue" d="M929.09,-345.69C1243.24,-331.32 2383.18,-278.89 3322.5,-232 3899.96,-203.17 4597.9,-165.63 4811.95,-154.05"/>
<polygon fill="midnightblue" stroke="midnightblue" points="928.54,-342.21 918.71,-346.16 928.86,-349.2 928.54,-342.21"/>
</g>
<!-- Node5 -->
<g id="node5" class="node">
<title>Node5</title>
<g id="a_node5"><a xlink:href="d__com__inf__game_8cpp.html" target="_top" xlink:title=" ">
<polygon fill="white" stroke="black" points="3541,-0.5 3541,-30.5 3660,-30.5 3660,-0.5 3541,-0.5"/>
<text text-anchor="start" x="3549" y="-18.5" font-family="Helvetica,sans-Serif" font-size="10.00">src/d/d_com/d_com_inf</text>
<text text-anchor="middle" x="3600.5" y="-7.5" font-family="Helvetica,sans-Serif" font-size="10.00">_game.cpp</text>
</a>
</g>
</g>
<!-- Node4&#45;&gt;Node5 -->
<g id="edge4" class="edge">
<title>Node4&#45;&gt;Node5</title>
<path fill="none" stroke="midnightblue" d="M843.09,-266.05C692.13,-229.6 344.84,-141.78 312.5,-98 304.31,-86.92 302.83,-76.82 312.5,-67 341.97,-37.07 3098.25,-19.48 3540.84,-16.85"/>
<polygon fill="midnightblue" stroke="midnightblue" points="842.64,-269.54 853.18,-268.48 844.27,-262.74 842.64,-269.54"/>
</g>
<!-- Node6 -->
<g id="node6" class="node">
<title>Node6</title>
<g id="a_node6"><a xlink:href="d__meter__HIO_8cpp.html" target="_top" xlink:title=" ">
<polygon fill="white" stroke="black" points="0,-201.5 0,-231.5 115,-231.5 115,-201.5 0,-201.5"/>
<text text-anchor="start" x="8" y="-219.5" font-family="Helvetica,sans-Serif" font-size="10.00">src/d/d_meter/d_meter</text>
<text text-anchor="middle" x="57.5" y="-208.5" font-family="Helvetica,sans-Serif" font-size="10.00">_HIO.cpp</text>
</a>
</g>
</g>
<!-- Node4&#45;&gt;Node6 -->
<g id="edge5" class="edge">
<title>Node4&#45;&gt;Node6</title>
<path fill="none" stroke="midnightblue" d="M841.8,-268.04C841.7,-268.03 841.6,-268.01 841.5,-268 524.95,-227.96 440.81,-273.88 124.5,-232 121.43,-231.59 118.3,-231.12 115.14,-230.6"/>
<polygon fill="midnightblue" stroke="midnightblue" points="841.01,-271.46 851.41,-269.41 842,-264.53 841.01,-271.46"/>
</g>
<!-- Node7 -->
<g id="node7" class="node">
<title>Node7</title>
<g id="a_node7"><a xlink:href="m__Do__main_8cpp.html" target="_top" xlink:title=" ">
<polygon fill="white" stroke="black" points="4735,-73 4735,-92 4866,-92 4866,-73 4735,-73"/>
<text text-anchor="middle" x="4800.5" y="-80" font-family="Helvetica,sans-Serif" font-size="10.00">src/m_Do/m_Do_main.cpp</text>
</a>
</g>
</g>
<!-- Node4&#45;&gt;Node7 -->
<g id="edge6" class="edge">
<title>Node4&#45;&gt;Node7</title>
<path fill="none" stroke="midnightblue" d="M983.72,-282.83C1367.01,-283.82 3222.89,-278.67 4725.5,-98 4737.48,-96.56 4750.42,-94.31 4762.13,-92.01"/>
<polygon fill="midnightblue" stroke="midnightblue" points="983.62,-279.33 973.61,-282.8 983.6,-286.33 983.62,-279.33"/>
</g>
<!-- Node8 -->
<g id="node8" class="node">
<title>Node8</title>
<g id="a_node8"><a xlink:href="m__Do__printf_8cpp.html" target="_top" xlink:title=" ">
<polygon fill="white" stroke="black" points="133.5,-207 133.5,-226 265.5,-226 265.5,-207 133.5,-207"/>
<text text-anchor="middle" x="199.5" y="-214" font-family="Helvetica,sans-Serif" font-size="10.00">src/m_Do/m_Do_printf.cpp</text>
</a>
</g>
</g>
<!-- Node4&#45;&gt;Node8 -->
<g id="edge7" class="edge">
<title>Node4&#45;&gt;Node8</title>
<path fill="none" stroke="midnightblue" d="M841.8,-268.04C841.7,-268.03 841.6,-268.01 841.5,-268 593.41,-234.88 527.94,-262.37 279.5,-232 267.03,-230.48 253.56,-228.26 241.3,-226.01"/>
<polygon fill="midnightblue" stroke="midnightblue" points="840.99,-271.46 851.4,-269.47 842.02,-264.53 840.99,-271.46"/>
</g>
<!-- Node9 -->
<g id="node9" class="node">
<title>Node9</title>
<g id="a_node9"><a xlink:href="d__attention_8h.html" target="_top" xlink:title=" ">
<polygon fill="white" stroke="black" points="1572,-201.5 1572,-231.5 1679,-231.5 1679,-201.5 1572,-201.5"/>
<text text-anchor="start" x="1580" y="-219.5" font-family="Helvetica,sans-Serif" font-size="10.00">include/d/d_attention</text>
<text text-anchor="middle" x="1625.5" y="-208.5" font-family="Helvetica,sans-Serif" font-size="10.00">/d_attention.h</text>
</a>
</g>
</g>
<!-- Node4&#45;&gt;Node9 -->
<g id="edge8" class="edge">
<title>Node4&#45;&gt;Node9</title>
<path fill="none" stroke="midnightblue" d="M983.56,-276.02C1126.27,-263.01 1444.88,-233.97 1571.81,-222.39"/>
<polygon fill="midnightblue" stroke="midnightblue" points="983.24,-272.54 973.6,-276.93 983.87,-279.51 983.24,-272.54"/>
</g>
<!-- Node10 -->
<g id="node10" class="node">
<title>Node10</title>
<g id="a_node10"><a xlink:href="d__com__inf__game_8h.html" target="_top" xlink:title=" ">
<polygon fill="white" stroke="black" points="2708.5,-134.5 2708.5,-164.5 2854.5,-164.5 2854.5,-134.5 2708.5,-134.5"/>
<text text-anchor="start" x="2716.5" y="-152.5" font-family="Helvetica,sans-Serif" font-size="10.00">include/d/d_com/d_com</text>
<text text-anchor="middle" x="2781.5" y="-141.5" font-family="Helvetica,sans-Serif" font-size="10.00">_inf_game/d_com_inf_game.h</text>
</a>
</g>
</g>
<!-- Node9&#45;&gt;Node10 -->
<g id="edge9" class="edge">
<title>Node9&#45;&gt;Node10</title>
<path fill="none" stroke="midnightblue" d="M1689.33,-211.91C1888.38,-200.72 2497.05,-166.49 2708.34,-154.61"/>
<polygon fill="midnightblue" stroke="midnightblue" points="1689.11,-208.42 1679.32,-212.47 1689.5,-215.41 1689.11,-208.42"/>
</g>
<!-- Node10&#45;&gt;Node5 -->
<g id="edge12" class="edge">
<title>Node10&#45;&gt;Node5</title>
<path fill="none" stroke="midnightblue" d="M2864.65,-146.68C3075.63,-141.65 3617.03,-126.07 3643.5,-98 3662.38,-77.98 3636.48,-48.07 3617.45,-30.6"/>
<polygon fill="midnightblue" stroke="midnightblue" points="2864.46,-143.18 2854.55,-146.92 2864.63,-150.18 2864.46,-143.18"/>
</g>
<!-- Node10&#45;&gt;Node7 -->
<g id="edge36" class="edge">
<title>Node10&#45;&gt;Node7</title>
<path fill="none" stroke="midnightblue" d="M2864.8,-147.15C3212.56,-141.39 4539.12,-118.3 4725.5,-98 4737.76,-96.66 4751.01,-94.39 4762.91,-92.03"/>
<polygon fill="midnightblue" stroke="midnightblue" points="2864.49,-143.65 2854.55,-147.32 2864.61,-150.65 2864.49,-143.65"/>
</g>
<!-- Node11 -->
<g id="node11" class="node">
<title>Node11</title>
<g id="a_node11"><a xlink:href="d__attention_8cpp.html" target="_top" xlink:title=" ">
<polygon fill="white" stroke="black" points="3817,-6 3817,-25 3924,-25 3924,-6 3817,-6"/>
<text text-anchor="middle" x="3870.5" y="-13" font-family="Helvetica,sans-Serif" font-size="10.00">src/d/d_attention.cpp</text>
</a>
</g>
</g>
<!-- Node10&#45;&gt;Node11 -->
<g id="edge10" class="edge">
<title>Node10&#45;&gt;Node11</title>
<path fill="none" stroke="midnightblue" d="M2864.63,-148.56C3095.05,-148.16 3730.35,-142.95 3812.5,-98 3842.36,-81.66 3860.5,-42.57 3867.36,-25.14"/>
<polygon fill="midnightblue" stroke="midnightblue" points="2864.62,-145.06 2854.62,-148.58 2864.63,-152.06 2864.62,-145.06"/>
</g>
<!-- Node12 -->
<g id="node12" class="node">
<title>Node12</title>
<g id="a_node12"><a xlink:href="d__camera_8cpp.html" target="_top" xlink:title=" ">
<polygon fill="white" stroke="black" points="4171.5,-73 4171.5,-92 4273.5,-92 4273.5,-73 4171.5,-73"/>
<text text-anchor="middle" x="4222.5" y="-80" font-family="Helvetica,sans-Serif" font-size="10.00">src/d/d_camera.cpp</text>
</a>
</g>
</g>
<!-- Node10&#45;&gt;Node12 -->
<g id="edge11" class="edge">
<title>Node10&#45;&gt;Node12</title>
<path fill="none" stroke="midnightblue" d="M2864.79,-147.44C3122.62,-143.84 3905.4,-130.47 4157.5,-98 4168.05,-96.64 4179.41,-94.39 4189.64,-92.06"/>
<polygon fill="midnightblue" stroke="midnightblue" points="2864.69,-143.94 2854.74,-147.58 2864.79,-150.94 2864.69,-143.94"/>
</g>
<!-- Node13 -->
<g id="node13" class="node">
<title>Node13</title>
<g id="a_node13"><a xlink:href="d__file__sel__info_8cpp.html" target="_top" xlink:title=" ">
<polygon fill="white" stroke="black" points="4291,-67.5 4291,-97.5 4380,-97.5 4380,-67.5 4291,-67.5"/>
<text text-anchor="start" x="4299" y="-85.5" font-family="Helvetica,sans-Serif" font-size="10.00">src/d/d_file/d_file</text>
<text text-anchor="middle" x="4335.5" y="-74.5" font-family="Helvetica,sans-Serif" font-size="10.00">_sel_info.cpp</text>
</a>
</g>
</g>
<!-- Node10&#45;&gt;Node13 -->
<g id="edge13" class="edge">
<title>Node10&#45;&gt;Node13</title>
<path fill="none" stroke="midnightblue" d="M2864.81,-148.25C3138.13,-147.04 4005.86,-139.91 4282.5,-98 4285.24,-97.59 4288.03,-97.08 4290.84,-96.51"/>
<polygon fill="midnightblue" stroke="midnightblue" points="2864.55,-144.75 2854.56,-148.3 2864.58,-151.75 2864.55,-144.75"/>
</g>
<!-- Node14 -->
<g id="node14" class="node">
<title>Node14</title>
<g id="a_node14"><a xlink:href="d__item_8cpp.html" target="_top" xlink:title=" ">
<polygon fill="white" stroke="black" points="3678,-6 3678,-25 3799,-25 3799,-6 3678,-6"/>
<text text-anchor="middle" x="3738.5" y="-13" font-family="Helvetica,sans-Serif" font-size="10.00">src/d/d_item/d_item.cpp</text>
</a>
</g>
</g>
<!-- Node10&#45;&gt;Node14 -->
<g id="edge14" class="edge">
<title>Node10&#45;&gt;Node14</title>
<path fill="none" stroke="midnightblue" d="M2864.85,-147.44C3101.69,-144.03 3763.61,-131.52 3795.5,-98 3818.11,-74.23 3775.76,-40.85 3752.42,-25.22"/>
<polygon fill="midnightblue" stroke="midnightblue" points="2864.53,-143.95 2854.58,-147.59 2864.63,-150.94 2864.53,-143.95"/>
</g>
<!-- Node15 -->
<g id="node15" class="node">
<title>Node15</title>
<g id="a_node15"><a xlink:href="d__kankyo__rain_8cpp.html" target="_top" xlink:title=" ">
<polygon fill="white" stroke="black" points="4437,-67.5 4437,-97.5 4564,-97.5 4564,-67.5 4437,-67.5"/>
<text text-anchor="start" x="4445" y="-85.5" font-family="Helvetica,sans-Serif" font-size="10.00">src/d/d_kankyo/d_kankyo</text>
<text text-anchor="middle" x="4500.5" y="-74.5" font-family="Helvetica,sans-Serif" font-size="10.00">_rain.cpp</text>
</a>
</g>
</g>
<!-- Node10&#45;&gt;Node15 -->
<g id="edge15" class="edge">
<title>Node10&#45;&gt;Node15</title>
<path fill="none" stroke="midnightblue" d="M2864.51,-147.63C3153.66,-144.32 4115.65,-131.05 4422.5,-98 4427.16,-97.5 4431.95,-96.87 4436.77,-96.17"/>
<polygon fill="midnightblue" stroke="midnightblue" points="2864.47,-144.13 2854.51,-147.74 2864.55,-151.13 2864.47,-144.13"/>
</g>
<!-- Node16 -->
<g id="node16" class="node">
<title>Node16</title>
<g id="a_node16"><a xlink:href="d__kankyo__wether_8cpp.html" target="_top" xlink:title=" ">
<polygon fill="white" stroke="black" points="322,-67.5 322,-97.5 449,-97.5 449,-67.5 322,-67.5"/>
<text text-anchor="start" x="330" y="-85.5" font-family="Helvetica,sans-Serif" font-size="10.00">src/d/d_kankyo/d_kankyo</text>
<text text-anchor="middle" x="385.5" y="-74.5" font-family="Helvetica,sans-Serif" font-size="10.00">_wether.cpp</text>
</a>
</g>
</g>
<!-- Node10&#45;&gt;Node16 -->
<g id="edge16" class="edge">
<title>Node10&#45;&gt;Node16</title>
<path fill="none" stroke="midnightblue" d="M2698.11,-148.67C2336.82,-149.08 904.83,-147.51 457.5,-98 454.71,-97.69 451.87,-97.33 449.01,-96.92"/>
<polygon fill="midnightblue" stroke="midnightblue" points="2698.23,-152.17 2708.23,-148.65 2698.23,-145.17 2698.23,-152.17"/>
</g>
<!-- Node17 -->
<g id="node17" class="node">
<title>Node17</title>
<g id="a_node17"><a xlink:href="d__kankyo_8cpp.html" target="_top" xlink:title=" ">
<polygon fill="white" stroke="black" points="467,-73 467,-92 568,-92 568,-73 467,-73"/>
<text text-anchor="middle" x="517.5" y="-80" font-family="Helvetica,sans-Serif" font-size="10.00">src/d/d_kankyo.cpp</text>
</a>
</g>
</g>
<!-- Node10&#45;&gt;Node17 -->
<g id="edge17" class="edge">
<title>Node10&#45;&gt;Node17</title>
<path fill="none" stroke="midnightblue" d="M2698.11,-147.67C2321.6,-143.76 789.33,-126.25 576.5,-98 566.67,-96.7 556.11,-94.39 546.67,-92"/>
<polygon fill="midnightblue" stroke="midnightblue" points="2698.34,-151.17 2708.38,-147.77 2698.42,-144.17 2698.34,-151.17"/>
</g>
<!-- Node18 -->
<g id="node18" class="node">
<title>Node18</title>
<g id="a_node18"><a xlink:href="d__kantera__icon__meter_8cpp.html" target="_top" xlink:title=" ">
<polygon fill="white" stroke="black" points="586,-67.5 586,-97.5 693,-97.5 693,-67.5 586,-67.5"/>
<text text-anchor="start" x="594" y="-85.5" font-family="Helvetica,sans-Serif" font-size="10.00">src/d/d_kantera_icon</text>
<text text-anchor="middle" x="639.5" y="-74.5" font-family="Helvetica,sans-Serif" font-size="10.00">_meter.cpp</text>
</a>
</g>
</g>
<!-- Node10&#45;&gt;Node18 -->
<g id="edge18" class="edge">
<title>Node10&#45;&gt;Node18</title>
<path fill="none" stroke="midnightblue" d="M2698.08,-148.76C2360.86,-149.46 1097.58,-148.58 701.5,-98 698.76,-97.65 695.96,-97.23 693.15,-96.76"/>
<polygon fill="midnightblue" stroke="midnightblue" points="2698.27,-152.26 2708.26,-148.74 2698.26,-145.26 2698.27,-152.26"/>
</g>
<!-- Node19 -->
<g id="node19" class="node">
<title>Node19</title>
<g id="a_node19"><a xlink:href="d__kyeff_8cpp.html" target="_top" xlink:title=" ">
<polygon fill="white" stroke="black" points="711,-73 711,-92 824,-92 824,-73 711,-73"/>
<text text-anchor="middle" x="767.5" y="-80" font-family="Helvetica,sans-Serif" font-size="10.00">src/d/d_ky/d_kyeff.cpp</text>
</a>
</g>
</g>
<!-- Node10&#45;&gt;Node19 -->
<g id="edge19" class="edge">
<title>Node10&#45;&gt;Node19</title>
<path fill="none" stroke="midnightblue" d="M2698.03,-148.49C2374.35,-148.11 1201.8,-143.54 832.5,-98 821.83,-96.68 810.33,-94.41 800.02,-92.05"/>
<polygon fill="midnightblue" stroke="midnightblue" points="2698.27,-151.99 2708.27,-148.5 2698.28,-144.99 2698.27,-151.99"/>
</g>
<!-- Node20 -->
<g id="node20" class="node">
<title>Node20</title>
<g id="a_node20"><a xlink:href="d__meter__button_8cpp.html" target="_top" xlink:title=" ">
<polygon fill="white" stroke="black" points="842,-67.5 842,-97.5 957,-97.5 957,-67.5 842,-67.5"/>
<text text-anchor="start" x="850" y="-85.5" font-family="Helvetica,sans-Serif" font-size="10.00">src/d/d_meter/d_meter</text>
<text text-anchor="middle" x="899.5" y="-74.5" font-family="Helvetica,sans-Serif" font-size="10.00">_button.cpp</text>
</a>
</g>
</g>
<!-- Node10&#45;&gt;Node20 -->
<g id="edge20" class="edge">
<title>Node10&#45;&gt;Node20</title>
<path fill="none" stroke="midnightblue" d="M2698.11,-148.27C2388.81,-147.08 1307.54,-139.95 965.5,-98 962.82,-97.67 960.09,-97.29 957.34,-96.85"/>
<polygon fill="midnightblue" stroke="midnightblue" points="2698.33,-151.77 2708.35,-148.31 2698.36,-144.77 2698.33,-151.77"/>
</g>
<!-- Node21 -->
<g id="node21" class="node">
<title>Node21</title>
<g id="a_node21"><a xlink:href="d__meter__haihai_8cpp.html" target="_top" xlink:title=" ">
<polygon fill="white" stroke="black" points="975,-67.5 975,-97.5 1090,-97.5 1090,-67.5 975,-67.5"/>
<text text-anchor="start" x="983" y="-85.5" font-family="Helvetica,sans-Serif" font-size="10.00">src/d/d_meter/d_meter</text>
<text text-anchor="middle" x="1032.5" y="-74.5" font-family="Helvetica,sans-Serif" font-size="10.00">_haihai.cpp</text>
</a>
</g>
</g>
<!-- Node10&#45;&gt;Node21 -->
<g id="edge21" class="edge">
<title>Node10&#45;&gt;Node21</title>
<path fill="none" stroke="midnightblue" d="M2697.84,-148.05C2403.02,-146.15 1413.16,-136.94 1098.5,-98 1095.82,-97.67 1093.09,-97.28 1090.34,-96.85"/>
<polygon fill="midnightblue" stroke="midnightblue" points="2698.01,-151.55 2708.03,-148.12 2698.06,-144.55 2698.01,-151.55"/>
</g>
<!-- Node22 -->
<g id="node22" class="node">
<title>Node22</title>
<g id="a_node22"><a xlink:href="d__meter__hakusha_8cpp.html" target="_top" xlink:title=" ">
<polygon fill="white" stroke="black" points="1108,-67.5 1108,-97.5 1223,-97.5 1223,-67.5 1108,-67.5"/>
<text text-anchor="start" x="1116" y="-85.5" font-family="Helvetica,sans-Serif" font-size="10.00">src/d/d_meter/d_meter</text>
<text text-anchor="middle" x="1165.5" y="-74.5" font-family="Helvetica,sans-Serif" font-size="10.00">_hakusha.cpp</text>
</a>
</g>
</g>
<!-- Node10&#45;&gt;Node22 -->
<g id="edge22" class="edge">
<title>Node10&#45;&gt;Node22</title>
<path fill="none" stroke="midnightblue" d="M2698.38,-147.81C2419.6,-145.16 1519.15,-133.97 1231.5,-98 1228.82,-97.67 1226.09,-97.27 1223.34,-96.84"/>
<polygon fill="midnightblue" stroke="midnightblue" points="2698.4,-151.31 2708.43,-147.9 2698.46,-144.31 2698.4,-151.31"/>
</g>
<!-- Node23 -->
<g id="node23" class="node">
<title>Node23</title>
<g id="a_node23"><a xlink:href="d__meter__map_8cpp.html" target="_top" xlink:title=" ">
<polygon fill="white" stroke="black" points="1241,-67.5 1241,-97.5 1356,-97.5 1356,-67.5 1241,-67.5"/>
<text text-anchor="start" x="1249" y="-85.5" font-family="Helvetica,sans-Serif" font-size="10.00">src/d/d_meter/d_meter</text>
<text text-anchor="middle" x="1298.5" y="-74.5" font-family="Helvetica,sans-Serif" font-size="10.00">_map.cpp</text>
</a>
</g>
</g>
<!-- Node10&#45;&gt;Node23 -->
<g id="edge23" class="edge">
<title>Node10&#45;&gt;Node23</title>
<path fill="none" stroke="midnightblue" d="M2698.03,-147.5C2434.92,-144.06 1624.92,-130.97 1364.5,-98 1361.82,-97.66 1359.09,-97.27 1356.34,-96.83"/>
<polygon fill="midnightblue" stroke="midnightblue" points="2698.24,-151.01 2708.28,-147.64 2698.33,-144.01 2698.24,-151.01"/>
</g>
<!-- Node24 -->
<g id="node24" class="node">
<title>Node24</title>
<g id="a_node24"><a xlink:href="d__meter__string_8cpp.html" target="_top" xlink:title=" ">
<polygon fill="white" stroke="black" points="1374,-67.5 1374,-97.5 1489,-97.5 1489,-67.5 1374,-67.5"/>
<text text-anchor="start" x="1382" y="-85.5" font-family="Helvetica,sans-Serif" font-size="10.00">src/d/d_meter/d_meter</text>
<text text-anchor="middle" x="1431.5" y="-74.5" font-family="Helvetica,sans-Serif" font-size="10.00">_string.cpp</text>
</a>
</g>
</g>
<!-- Node10&#45;&gt;Node24 -->
<g id="edge24" class="edge">
<title>Node10&#45;&gt;Node24</title>
<path fill="none" stroke="midnightblue" d="M2697.96,-147.15C2451.63,-142.85 1730.91,-127.99 1497.5,-98 1494.82,-97.66 1492.1,-97.26 1489.35,-96.82"/>
<polygon fill="midnightblue" stroke="midnightblue" points="2698.22,-150.65 2708.28,-147.32 2698.34,-143.65 2698.22,-150.65"/>
</g>
<!-- Node25 -->
<g id="node25" class="node">
<title>Node25</title>
<g id="a_node25"><a xlink:href="d__meter2__draw_8cpp.html" target="_top" xlink:title=" ">
<polygon fill="white" stroke="black" points="1507,-67.5 1507,-97.5 1632,-97.5 1632,-67.5 1507,-67.5"/>
<text text-anchor="start" x="1515" y="-85.5" font-family="Helvetica,sans-Serif" font-size="10.00">src/d/d_meter2/d_meter2</text>
<text text-anchor="middle" x="1569.5" y="-74.5" font-family="Helvetica,sans-Serif" font-size="10.00">_draw.cpp</text>
</a>
</g>
</g>
<!-- Node10&#45;&gt;Node25 -->
<g id="edge25" class="edge">
<title>Node10&#45;&gt;Node25</title>
<path fill="none" stroke="midnightblue" d="M2698.37,-149.2C2509.7,-149.84 2034.94,-146.04 1641.5,-98 1638.46,-97.63 1635.36,-97.2 1632.24,-96.73"/>
<polygon fill="midnightblue" stroke="midnightblue" points="2698.5,-152.7 2708.49,-149.16 2698.48,-145.7 2698.5,-152.7"/>
</g>
<!-- Node26 -->
<g id="node26" class="node">
<title>Node26</title>
<g id="a_node26"><a xlink:href="d__meter2__info_8cpp.html" target="_top" xlink:title=" ">
<polygon fill="white" stroke="black" points="1650,-67.5 1650,-97.5 1775,-97.5 1775,-67.5 1650,-67.5"/>
<text text-anchor="start" x="1658" y="-85.5" font-family="Helvetica,sans-Serif" font-size="10.00">src/d/d_meter2/d_meter2</text>
<text text-anchor="middle" x="1712.5" y="-74.5" font-family="Helvetica,sans-Serif" font-size="10.00">_info.cpp</text>
</a>
</g>
</g>
<!-- Node10&#45;&gt;Node26 -->
<g id="edge26" class="edge">
<title>Node10&#45;&gt;Node26</title>
<path fill="none" stroke="midnightblue" d="M2698.08,-148.44C2526.4,-147.39 2121.34,-140.21 1784.5,-98 1781.46,-97.62 1778.36,-97.18 1775.24,-96.7"/>
<polygon fill="midnightblue" stroke="midnightblue" points="2698.29,-151.94 2708.31,-148.49 2698.33,-144.94 2698.29,-151.94"/>
</g>
<!-- Node27 -->
<g id="node27" class="node">
<title>Node27</title>
<g id="a_node27"><a xlink:href="d__meter2_8cpp.html" target="_top" xlink:title=" ">
<polygon fill="white" stroke="black" points="1793.5,-73 1793.5,-92 1893.5,-92 1893.5,-73 1793.5,-73"/>
<text text-anchor="middle" x="1843.5" y="-80" font-family="Helvetica,sans-Serif" font-size="10.00">src/d/d_meter2.cpp</text>
</a>
</g>
</g>
<!-- Node10&#45;&gt;Node27 -->
<g id="edge27" class="edge">
<title>Node10&#45;&gt;Node27</title>
<path fill="none" stroke="midnightblue" d="M2698.47,-148.67C2542.04,-147.91 2193.34,-141 1903.5,-98 1893.85,-96.57 1883.48,-94.32 1874.12,-92.02"/>
<polygon fill="midnightblue" stroke="midnightblue" points="2698.47,-152.17 2708.49,-148.72 2698.5,-145.17 2698.47,-152.17"/>
</g>
<!-- Node28 -->
<g id="node28" class="node">
<title>Node28</title>
<g id="a_node28"><a xlink:href="d__save_8cpp.html" target="_top" xlink:title=" ">
<polygon fill="white" stroke="black" points="1912,-73 1912,-92 2037,-92 2037,-73 1912,-73"/>
<text text-anchor="middle" x="1974.5" y="-80" font-family="Helvetica,sans-Serif" font-size="10.00">src/d/d_save/d_save.cpp</text>
</a>
</g>
</g>
<!-- Node10&#45;&gt;Node28 -->
<g id="edge28" class="edge">
<title>Node10&#45;&gt;Node28</title>
<path fill="none" stroke="midnightblue" d="M2698.03,-146.3C2561.32,-141.9 2281.39,-129.59 2046.5,-98 2035.25,-96.49 2023.12,-94.27 2012.09,-92.03"/>
<polygon fill="midnightblue" stroke="midnightblue" points="2698.31,-149.81 2708.42,-146.63 2698.53,-142.81 2698.31,-149.81"/>
</g>
<!-- Node29 -->
<g id="node29" class="node">
<title>Node29</title>
<g id="a_node29"><a xlink:href="d__save__HIO_8cpp.html" target="_top" xlink:title=" ">
<polygon fill="white" stroke="black" points="4781,-0.5 4781,-30.5 4888,-30.5 4888,-0.5 4781,-0.5"/>
<text text-anchor="start" x="4789" y="-18.5" font-family="Helvetica,sans-Serif" font-size="10.00">src/d/d_save/d_save</text>
<text text-anchor="middle" x="4834.5" y="-7.5" font-family="Helvetica,sans-Serif" font-size="10.00">_HIO.cpp</text>
</a>
</g>
</g>
<!-- Node10&#45;&gt;Node29 -->
<g id="edge29" class="edge">
<title>Node10&#45;&gt;Node29</title>
<path fill="none" stroke="midnightblue" d="M2864.81,-147.34C3184.36,-142.69 4317.47,-124.41 4389.5,-98 4410.29,-90.38 4408.09,-75.58 4428.5,-67 4490.96,-40.76 4685.75,-25.59 4780.99,-19.56"/>
<polygon fill="midnightblue" stroke="midnightblue" points="2864.64,-143.84 2854.69,-147.48 2864.74,-150.84 2864.64,-143.84"/>
</g>
<!-- Node30 -->
<g id="node30" class="node">
<title>Node30</title>
<g id="a_node30"><a xlink:href="d__stage_8cpp.html" target="_top" xlink:title=" ">
<polygon fill="white" stroke="black" points="2055.5,-73 2055.5,-92 2149.5,-92 2149.5,-73 2055.5,-73"/>
<text text-anchor="middle" x="2102.5" y="-80" font-family="Helvetica,sans-Serif" font-size="10.00">src/d/d_stage.cpp</text>
</a>
</g>
</g>
<!-- Node10&#45;&gt;Node30 -->
<g id="edge30" class="edge">
<title>Node10&#45;&gt;Node30</title>
<path fill="none" stroke="midnightblue" d="M2697.88,-146.3C2577.77,-142.1 2349.81,-130.27 2158.5,-98 2149.69,-96.51 2140.23,-94.31 2131.65,-92.06"/>
<polygon fill="midnightblue" stroke="midnightblue" points="2697.99,-149.8 2708.1,-146.64 2698.23,-142.81 2697.99,-149.8"/>
</g>
<!-- Node31 -->
<g id="node31" class="node">
<title>Node31</title>
<g id="a_node31"><a xlink:href="f__pc__manager_8cpp.html" target="_top" xlink:title=" ">
<polygon fill="white" stroke="black" points="4079.5,-6 4079.5,-25 4219.5,-25 4219.5,-6 4079.5,-6"/>
<text text-anchor="middle" x="4149.5" y="-13" font-family="Helvetica,sans-Serif" font-size="10.00">src/f/f_pc/f_pc_manager.cpp</text>
</a>
</g>
</g>
<!-- Node10&#45;&gt;Node31 -->
<g id="edge31" class="edge">
<title>Node10&#45;&gt;Node31</title>
<path fill="none" stroke="midnightblue" d="M2865.15,-148C3151.06,-145.97 4074.51,-136.43 4124.5,-98 4147.38,-80.41 4149.91,-42.33 4149.82,-25.18"/>
<polygon fill="midnightblue" stroke="midnightblue" points="2864.82,-144.51 2854.85,-148.08 2864.87,-151.51 2864.82,-144.51"/>
</g>
<!-- Node32 -->
<g id="node32" class="node">
<title>Node32</title>
<g id="a_node32"><a xlink:href="m__Do__audio_8cpp.html" target="_top" xlink:title=" ">
<polygon fill="white" stroke="black" points="4582.5,-73 4582.5,-92 4716.5,-92 4716.5,-73 4582.5,-73"/>
<text text-anchor="middle" x="4649.5" y="-80" font-family="Helvetica,sans-Serif" font-size="10.00">src/m_Do/m_Do_audio.cpp</text>
</a>
</g>
</g>
<!-- Node10&#45;&gt;Node32 -->
<g id="edge32" class="edge">
<title>Node10&#45;&gt;Node32</title>
<path fill="none" stroke="midnightblue" d="M2864.79,-147.93C3171.25,-145.54 4235.82,-134.73 4573.5,-98 4585.92,-96.65 4599.34,-94.37 4611.41,-92.01"/>
<polygon fill="midnightblue" stroke="midnightblue" points="2864.62,-144.43 2854.65,-148 2864.67,-151.43 2864.62,-144.43"/>
</g>
<!-- Node33 -->
<g id="node33" class="node">
<title>Node33</title>
<g id="a_node33"><a xlink:href="m__Do__graphic_8cpp.html" target="_top" xlink:title=" ">
<polygon fill="white" stroke="black" points="4884.5,-73 4884.5,-92 5026.5,-92 5026.5,-73 4884.5,-73"/>
<text text-anchor="middle" x="4955.5" y="-80" font-family="Helvetica,sans-Serif" font-size="10.00">src/m_Do/m_Do_graphic.cpp</text>
</a>
</g>
</g>
<!-- Node10&#45;&gt;Node33 -->
<g id="edge33" class="edge">
<title>Node10&#45;&gt;Node33</title>
<path fill="none" stroke="midnightblue" d="M2864.85,-148.22C3203.23,-146.81 4475.37,-138.84 4875.5,-98 4888.56,-96.67 4902.69,-94.39 4915.39,-92.03"/>
<polygon fill="midnightblue" stroke="midnightblue" points="2864.62,-144.72 2854.63,-148.26 2864.65,-151.72 2864.62,-144.72"/>
</g>
<!-- Node34 -->
<g id="node34" class="node">
<title>Node34</title>
<g id="a_node34"><a xlink:href="m__Do__lib_8cpp.html" target="_top" xlink:title=" ">
<polygon fill="white" stroke="black" points="2167.5,-73 2167.5,-92 2287.5,-92 2287.5,-73 2167.5,-73"/>
<text text-anchor="middle" x="2227.5" y="-80" font-family="Helvetica,sans-Serif" font-size="10.00">src/m_Do/m_Do_lib.cpp</text>
</a>
</g>
</g>
<!-- Node10&#45;&gt;Node34 -->
<g id="edge34" class="edge">
<title>Node10&#45;&gt;Node34</title>
<path fill="none" stroke="midnightblue" d="M2698.22,-142.36C2601.52,-134.65 2437.39,-119.73 2297.5,-98 2286.95,-96.36 2275.59,-94.19 2265.16,-92.02"/>
<polygon fill="midnightblue" stroke="midnightblue" points="2697.98,-145.86 2708.23,-143.16 2698.54,-138.88 2697.98,-145.86"/>
</g>
<!-- Node35 -->
<g id="node35" class="node">
<title>Node35</title>
<g id="a_node35"><a xlink:href="m__Do__machine__exception_8cpp.html" target="_top" xlink:title=" ">
<polygon fill="white" stroke="black" points="2306,-67.5 2306,-97.5 2435,-97.5 2435,-67.5 2306,-67.5"/>
<text text-anchor="start" x="2314" y="-85.5" font-family="Helvetica,sans-Serif" font-size="10.00">src/m_Do/m_Do_machine</text>
<text text-anchor="middle" x="2370.5" y="-74.5" font-family="Helvetica,sans-Serif" font-size="10.00">_exception.cpp</text>
</a>
</g>
</g>
<!-- Node10&#45;&gt;Node35 -->
<g id="edge35" class="edge">
<title>Node10&#45;&gt;Node35</title>
<path fill="none" stroke="midnightblue" d="M2698.11,-137.06C2629.81,-127.44 2530.72,-112.9 2444.5,-98 2441.4,-97.46 2438.24,-96.9 2435.04,-96.32"/>
<polygon fill="midnightblue" stroke="midnightblue" points="2697.99,-140.58 2708.38,-138.5 2698.96,-133.65 2697.99,-140.58"/>
</g>
<!-- Node36 -->
<g id="node36" class="node">
<title>Node36</title>
<g id="a_node36"><a xlink:href="m__Do__ext_8cpp.html" target="_top" xlink:title=" ">
<polygon fill="white" stroke="black" points="2453,-73 2453,-92 2576,-92 2576,-73 2453,-73"/>
<text text-anchor="middle" x="2514.5" y="-80" font-family="Helvetica,sans-Serif" font-size="10.00">src/m_Do/m_Do_ext.cpp</text>
</a>
</g>
</g>
<!-- Node10&#45;&gt;Node36 -->
<g id="edge37" class="edge">
<title>Node10&#45;&gt;Node36</title>
<path fill="none" stroke="midnightblue" d="M2714.01,-132.07C2661.65,-119.32 2591.19,-102.17 2549.53,-92.03"/>
<polygon fill="midnightblue" stroke="midnightblue" points="2713.35,-135.51 2723.89,-134.48 2715.01,-128.71 2713.35,-135.51"/>
</g>
<!-- Node37 -->
<g id="node37" class="node">
<title>Node37</title>
<g id="a_node37"><a xlink:href="m__Do__MemCardRWmng_8cpp.html" target="_top" xlink:title=" ">
<polygon fill="white" stroke="black" points="2594,-73 2594,-92 2781,-92 2781,-73 2594,-73"/>
<text text-anchor="middle" x="2687.5" y="-80" font-family="Helvetica,sans-Serif" font-size="10.00">src/m_Do/m_Do_MemCardRWmng.cpp</text>
</a>
</g>
</g>
<!-- Node10&#45;&gt;Node37 -->
<g id="edge38" class="edge">
<title>Node10&#45;&gt;Node37</title>
<path fill="none" stroke="midnightblue" d="M2752.78,-128.64C2735.04,-116.37 2713.19,-101.26 2699.8,-92.01"/>
<polygon fill="midnightblue" stroke="midnightblue" points="2750.89,-131.59 2761.1,-134.4 2754.87,-125.83 2750.89,-131.59"/>
</g>
<!-- Node38 -->
<g id="node38" class="node">
<title>Node38</title>
<g id="a_node38"><a xlink:href="Z2LinkMgr_8cpp.html" target="_top" xlink:title=" ">
<polygon fill="white" stroke="black" points="2799.5,-73 2799.5,-92 2951.5,-92 2951.5,-73 2799.5,-73"/>
<text text-anchor="middle" x="2875.5" y="-80" font-family="Helvetica,sans-Serif" font-size="10.00">libs/Z2AudioLib/Z2LinkMgr.cpp</text>
</a>
</g>
</g>
<!-- Node10&#45;&gt;Node38 -->
<g id="edge39" class="edge">
<title>Node10&#45;&gt;Node38</title>
<path fill="none" stroke="midnightblue" d="M2810.22,-128.64C2827.96,-116.37 2849.81,-101.26 2863.2,-92.01"/>
<polygon fill="midnightblue" stroke="midnightblue" points="2808.13,-125.83 2801.9,-134.4 2812.11,-131.59 2808.13,-125.83"/>
</g>
<!-- Node39 -->
<g id="node39" class="node">
<title>Node39</title>
<g id="a_node39"><a xlink:href="Z2EnvSeMgr_8cpp.html" target="_top" xlink:title=" ">
<polygon fill="white" stroke="black" points="2970,-73 2970,-92 3131,-92 3131,-73 2970,-73"/>
<text text-anchor="middle" x="3050.5" y="-80" font-family="Helvetica,sans-Serif" font-size="10.00">libs/Z2AudioLib/Z2EnvSeMgr.cpp</text>
</a>
</g>
</g>
<!-- Node10&#45;&gt;Node39 -->
<g id="edge40" class="edge">
<title>Node10&#45;&gt;Node39</title>
<path fill="none" stroke="midnightblue" d="M2849.5,-132.07C2902.25,-119.32 2973.24,-102.17 3015.2,-92.03"/>
<polygon fill="midnightblue" stroke="midnightblue" points="2848.44,-128.73 2839.54,-134.48 2850.08,-135.53 2848.44,-128.73"/>
</g>
<!-- Node40 -->
<g id="node40" class="node">
<title>Node40</title>
<g id="a_node40"><a xlink:href="Z2SceneMgr_8cpp.html" target="_top" xlink:title=" ">
<polygon fill="white" stroke="black" points="3149,-73 3149,-92 3310,-92 3310,-73 3149,-73"/>
<text text-anchor="middle" x="3229.5" y="-80" font-family="Helvetica,sans-Serif" font-size="10.00">libs/Z2AudioLib/Z2SceneMgr.cpp</text>
</a>
</g>
</g>
<!-- Node10&#45;&gt;Node40 -->
<g id="edge41" class="edge">
<title>Node10&#45;&gt;Node40</title>
<path fill="none" stroke="midnightblue" d="M2864.82,-137.3C2937.63,-127.39 3046.15,-112.32 3140.5,-98 3152.73,-96.14 3165.88,-94.05 3178.23,-92.05"/>
<polygon fill="midnightblue" stroke="midnightblue" points="2864.23,-133.85 2854.79,-138.66 2865.17,-140.79 2864.23,-133.85"/>
</g>
<!-- Node41 -->
<g id="node41" class="node">
<title>Node41</title>
<g id="a_node41"><a xlink:href="Z2SoundMgr_8cpp.html" target="_top" xlink:title=" ">
<polygon fill="white" stroke="black" points="3328,-73 3328,-92 3489,-92 3489,-73 3328,-73"/>
<text text-anchor="middle" x="3408.5" y="-80" font-family="Helvetica,sans-Serif" font-size="10.00">libs/Z2AudioLib/Z2SoundMgr.cpp</text>
</a>
</g>
</g>
<!-- Node10&#45;&gt;Node41 -->
<g id="edge42" class="edge">
<title>Node10&#45;&gt;Node41</title>
<path fill="none" stroke="midnightblue" d="M2864.76,-142.45C2970.65,-134.35 3159.04,-118.58 3319.5,-98 3332.7,-96.31 3346.94,-94.14 3360.09,-92"/>
<polygon fill="midnightblue" stroke="midnightblue" points="2864.48,-138.96 2854.77,-143.21 2865.01,-145.94 2864.48,-138.96"/>
</g>
<!-- Node42 -->
<g id="node42" class="node">
<title>Node42</title>
<g id="a_node42"><a xlink:href="Z2StatusMgr_8cpp.html" target="_top" xlink:title=" ">
<polygon fill="white" stroke="black" points="3507,-67.5 3507,-97.5 3634,-97.5 3634,-67.5 3507,-67.5"/>
<text text-anchor="start" x="3515" y="-85.5" font-family="Helvetica,sans-Serif" font-size="10.00">libs/Z2AudioLib/Z2Status</text>
<text text-anchor="middle" x="3570.5" y="-74.5" font-family="Helvetica,sans-Serif" font-size="10.00">Mgr.cpp</text>
</a>
</g>
</g>
<!-- Node10&#45;&gt;Node42 -->
<g id="edge43" class="edge">
<title>Node10&#45;&gt;Node42</title>
<path fill="none" stroke="midnightblue" d="M2864.78,-146.1C2998.8,-141.47 3270.42,-128.87 3498.5,-98 3501.28,-97.62 3504.11,-97.21 3506.97,-96.75"/>
<polygon fill="midnightblue" stroke="midnightblue" points="2864.46,-142.61 2854.59,-146.45 2864.7,-149.61 2864.46,-142.61"/>
</g>
<!-- Node43 -->
<g id="node43" class="node">
<title>Node43</title>
<g id="a_node43"><a xlink:href="d__a__alink_8h.html" target="_top" xlink:title=" ">
<polygon fill="white" stroke="black" points="3881,-67.5 3881,-97.5 4000,-97.5 4000,-67.5 3881,-67.5"/>
<text text-anchor="start" x="3889" y="-85.5" font-family="Helvetica,sans-Serif" font-size="10.00">include/d/d_a/d_a_alink</text>
<text text-anchor="middle" x="3940.5" y="-74.5" font-family="Helvetica,sans-Serif" font-size="10.00">/d_a_alink.h</text>
</a>
</g>
</g>
<!-- Node10&#45;&gt;Node43 -->
<g id="edge44" class="edge">
<title>Node10&#45;&gt;Node43</title>
<path fill="none" stroke="midnightblue" d="M2864.55,-148.78C3046.68,-148.5 3494.65,-142.84 3866.5,-98 3871.18,-97.44 3876.01,-96.74 3880.85,-95.97"/>
<polygon fill="midnightblue" stroke="midnightblue" points="2864.5,-145.28 2854.51,-148.79 2864.51,-152.28 2864.5,-145.28"/>
</g>
<!-- Node45 -->
<g id="node45" class="node">
<title>Node45</title>
<g id="a_node45"><a xlink:href="d__item_8h.html" target="_top" xlink:title=" ">
<polygon fill="white" stroke="black" points="3690.5,-67.5 3690.5,-97.5 3786.5,-97.5 3786.5,-67.5 3690.5,-67.5"/>
<text text-anchor="start" x="3698.5" y="-85.5" font-family="Helvetica,sans-Serif" font-size="10.00">include/d/d_item/d</text>
<text text-anchor="middle" x="3738.5" y="-74.5" font-family="Helvetica,sans-Serif" font-size="10.00">_item/d_item.h</text>
</a>
</g>
</g>
<!-- Node10&#45;&gt;Node45 -->
<g id="edge47" class="edge">
<title>Node10&#45;&gt;Node45</title>
<path fill="none" stroke="midnightblue" d="M2864.89,-148.6C3023.7,-147.74 3380.13,-140.69 3676.5,-98 3680.99,-97.35 3685.63,-96.54 3690.25,-95.64"/>
<polygon fill="midnightblue" stroke="midnightblue" points="2864.71,-145.1 2854.72,-148.65 2864.74,-152.1 2864.71,-145.1"/>
</g>
<!-- Node46 -->
<g id="node46" class="node">
<title>Node46</title>
<g id="a_node46"><a xlink:href="f__pc__manager_8h.html" target="_top" xlink:title=" ">
<polygon fill="white" stroke="black" points="4018,-67.5 4018,-97.5 4115,-97.5 4115,-67.5 4018,-67.5"/>
<text text-anchor="start" x="4026" y="-85.5" font-family="Helvetica,sans-Serif" font-size="10.00">include/f/f_pc/f_pc</text>
<text text-anchor="middle" x="4066.5" y="-74.5" font-family="Helvetica,sans-Serif" font-size="10.00">_manager.h</text>
</a>
</g>
</g>
<!-- Node10&#45;&gt;Node46 -->
<g id="edge50" class="edge">
<title>Node10&#45;&gt;Node46</title>
<path fill="none" stroke="midnightblue" d="M2864.78,-147.33C3103.6,-143.62 3787.83,-130.39 4009.5,-98 4012.23,-97.6 4015.01,-97.13 4017.82,-96.59"/>
<polygon fill="midnightblue" stroke="midnightblue" points="2864.71,-143.83 2854.77,-147.49 2864.82,-150.83 2864.71,-143.83"/>
</g>
<!-- Node43&#45;&gt;Node11 -->
<g id="edge45" class="edge">
<title>Node43&#45;&gt;Node11</title>
<path fill="none" stroke="midnightblue" d="M3917.71,-60.34C3904.85,-48.4 3889.49,-34.14 3879.86,-25.19"/>
<polygon fill="midnightblue" stroke="midnightblue" points="3915.6,-63.16 3925.31,-67.4 3920.36,-58.03 3915.6,-63.16"/>
</g>
<!-- Node44 -->
<g id="node44" class="node">
<title>Node44</title>
<g id="a_node44"><a xlink:href="d__a__alink_8cpp.html" target="_top" xlink:title=" ">
<polygon fill="white" stroke="black" points="3942,-6 3942,-25 4061,-25 4061,-6 3942,-6"/>
<text text-anchor="middle" x="4001.5" y="-13" font-family="Helvetica,sans-Serif" font-size="10.00">src/d/d_a/d_a_alink.cpp</text>
</a>
</g>
</g>
<!-- Node43&#45;&gt;Node44 -->
<g id="edge46" class="edge">
<title>Node43&#45;&gt;Node44</title>
<path fill="none" stroke="midnightblue" d="M3960.68,-60C3971.81,-48.13 3985.03,-34.05 3993.34,-25.19"/>
<polygon fill="midnightblue" stroke="midnightblue" points="3958.03,-57.71 3953.74,-67.4 3963.13,-62.5 3958.03,-57.71"/>
</g>
<!-- Node45&#45;&gt;Node5 -->
<g id="edge48" class="edge">
<title>Node45&#45;&gt;Node5</title>
<path fill="none" stroke="midnightblue" d="M3699.5,-63.13C3677.57,-52.8 3650.63,-40.11 3630.39,-30.58"/>
<polygon fill="midnightblue" stroke="midnightblue" points="3698.02,-66.3 3708.56,-67.4 3701,-59.97 3698.02,-66.3"/>
</g>
<!-- Node45&#45;&gt;Node14 -->
<g id="edge49" class="edge">
<title>Node45&#45;&gt;Node14</title>
<path fill="none" stroke="midnightblue" d="M3738.5,-57.25C3738.5,-46.02 3738.5,-33.38 3738.5,-25.19"/>
<polygon fill="midnightblue" stroke="midnightblue" points="3735,-57.4 3738.5,-67.4 3742,-57.4 3735,-57.4"/>
</g>
<!-- Node46&#45;&gt;Node31 -->
<g id="edge52" class="edge">
<title>Node46&#45;&gt;Node31</title>
<path fill="none" stroke="midnightblue" d="M4092.67,-61.01C4108.08,-48.94 4126.76,-34.3 4138.4,-25.19"/>
<polygon fill="midnightblue" stroke="midnightblue" points="4090.22,-58.47 4084.51,-67.4 4094.54,-63.99 4090.22,-58.47"/>
</g>
<!-- Node46&#45;&gt;Node44 -->
<g id="edge51" class="edge">
<title>Node46&#45;&gt;Node44</title>
<path fill="none" stroke="midnightblue" d="M4045,-60C4033.13,-48.13 4019.05,-34.05 4010.19,-25.19"/>
<polygon fill="midnightblue" stroke="midnightblue" points="4042.85,-62.8 4052.4,-67.4 4047.8,-57.85 4042.85,-62.8"/>
</g>
<!-- Node47&#45;&gt;Node7 -->
<g id="edge57" class="edge">
<title>Node47&#45;&gt;Node7</title>
<path fill="none" stroke="midnightblue" d="M4852.83,-127.67C4838.61,-115.67 4821.49,-101.22 4810.8,-92.19"/>
<polygon fill="midnightblue" stroke="midnightblue" points="4850.89,-130.62 4860.79,-134.4 4855.41,-125.27 4850.89,-130.62"/>
</g>
<!-- Node47&#45;&gt;Node32 -->
<g id="edge54" class="edge">
<title>Node47&#45;&gt;Node32</title>
<path fill="none" stroke="midnightblue" d="M4818.47,-131.67C4773.91,-118.97 4714.62,-102.06 4679.42,-92.03"/>
<polygon fill="midnightblue" stroke="midnightblue" points="4817.73,-135.1 4828.31,-134.48 4819.65,-128.37 4817.73,-135.1"/>
</g>
<!-- Node47&#45;&gt;Node33 -->
<g id="edge56" class="edge">
<title>Node47&#45;&gt;Node33</title>
<path fill="none" stroke="midnightblue" d="M4902.49,-127.67C4916.9,-115.67 4934.24,-101.22 4945.07,-92.19"/>
<polygon fill="midnightblue" stroke="midnightblue" points="4899.87,-125.31 4894.42,-134.4 4904.35,-130.68 4899.87,-125.31"/>
</g>
<!-- Node48 -->
<g id="node48" class="node">
<title>Node48</title>
<g id="a_node48"><a xlink:href="m__Do__controller__pad_8cpp.html" target="_top" xlink:title=" ">
<polygon fill="white" stroke="black" points="5044.5,-67.5 5044.5,-97.5 5176.5,-97.5 5176.5,-67.5 5044.5,-67.5"/>
<text text-anchor="start" x="5052.5" y="-85.5" font-family="Helvetica,sans-Serif" font-size="10.00">src/m_Do/m_Do_controller</text>
<text text-anchor="middle" x="5110.5" y="-74.5" font-family="Helvetica,sans-Serif" font-size="10.00">_pad.cpp</text>
</a>
</g>
</g>
<!-- Node47&#45;&gt;Node48 -->
<g id="edge55" class="edge">
<title>Node47&#45;&gt;Node48</title>
<path fill="none" stroke="midnightblue" d="M4937.67,-131.71C4975.58,-121.14 5023.99,-107.63 5059.92,-97.61"/>
<polygon fill="midnightblue" stroke="midnightblue" points="4936.46,-128.42 4927.77,-134.48 4938.34,-135.16 4936.46,-128.42"/>
</g>
<!-- Node49 -->
<g id="node49" class="node">
<title>Node49</title>
<g id="a_node49"><a xlink:href="d__save__HIO_8h.html" target="_top" xlink:title=" ">
<polygon fill="white" stroke="black" points="5195,-67.5 5195,-97.5 5326,-97.5 5326,-67.5 5195,-67.5"/>
<text text-anchor="start" x="5203" y="-85.5" font-family="Helvetica,sans-Serif" font-size="10.00">include/d/d_save/d</text>
<text text-anchor="middle" x="5260.5" y="-74.5" font-family="Helvetica,sans-Serif" font-size="10.00">_save_HIO/d_save_HIO.h</text>
</a>
</g>
</g>
<!-- Node47&#45;&gt;Node49 -->
<g id="edge58" class="edge">
<title>Node47&#45;&gt;Node49</title>
<path fill="none" stroke="midnightblue" d="M4953.24,-136.7C5015.64,-126.82 5106.42,-112.12 5185.5,-98 5188.5,-97.46 5191.57,-96.91 5194.67,-96.34"/>
<polygon fill="midnightblue" stroke="midnightblue" points="4952.41,-133.28 4943.08,-138.3 4953.51,-140.2 4952.41,-133.28"/>
</g>
<!-- Node49&#45;&gt;Node29 -->
<g id="edge59" class="edge">
<title>Node49&#45;&gt;Node29</title>
<path fill="none" stroke="midnightblue" d="M5184.62,-66.9C5073.29,-48.32 4955.08,-32.2 4888.14,-23.4"/>
<polygon fill="midnightblue" stroke="midnightblue" points="5184.24,-70.39 5194.68,-68.59 5185.4,-63.48 5184.24,-70.39"/>
</g>
</g>
</svg>
        <g id="navigator" transform="translate(0 0)" fill="#404254">
                <rect fill="#f2f5e9" fill-opacity="0.5" stroke="#606060" stroke-width=".5" x="0" y="0" width="60" height="60"/>
                <use id="zoomplus" xlink:href="#zoomPlus" x="17" y="9" onmousedown="handleZoom(evt,'in')"/>
                <use id="zoomminus" xlink:href="#zoomMin" x="42" y="9" onmousedown="handleZoom(evt,'out')"/>
                <use id="reset" xlink:href="#resetDef" x="30" y="36" onmousedown="handleReset()"/>
                <g id="arrowUp" xlink:href="#dirArrow" transform="translate(30 24)" onmousedown="handlePan(0,-1)">
                  <use xlink:href="#rim" fill="#404040">
                        <set attributeName="fill" to="#808080" begin="arrowUp.mouseover" end="arrowUp.mouseout"/>
                  </use>
                  <path fill="none" stroke="white" stroke-width="1.5" d="M0,-3.0v7 M-2.5,-0.5L0,-3.0L2.5,-0.5"/>
                </g>
                <g id="arrowRight" xlink:href="#dirArrow" transform="rotate(90) translate(36 -43)" onmousedown="handlePan(1,0)">
                  <use xlink:href="#rim" fill="#404040">
                        <set attributeName="fill" to="#808080" begin="arrowRight.mouseover" end="arrowRight.mouseout"/>
                  </use>
                  <path fill="none" stroke="white" stroke-width="1.5" d="M0,-3.0v7 M-2.5,-0.5L0,-3.0L2.5,-0.5"/>
                </g>
                <g id="arrowDown" xlink:href="#dirArrow" transform="rotate(180) translate(-30 -48)" onmousedown="handlePan(0,1)">
                  <use xlink:href="#rim" fill="#404040">
                        <set attributeName="fill" to="#808080" begin="arrowDown.mouseover" end="arrowDown.mouseout"/>
                  </use>
                  <path fill="none" stroke="white" stroke-width="1.5" d="M0,-3.0v7 M-2.5,-0.5L0,-3.0L2.5,-0.5"/>
                </g>
                <g id="arrowLeft" xlink:href="#dirArrow" transform="rotate(270) translate(-36 17)" onmousedown="handlePan(-1,0)">
                  <use xlink:href="#rim" fill="#404040">
                        <set attributeName="fill" to="#808080" begin="arrowLeft.mouseover" end="arrowLeft.mouseout"/>
                  </use>
                  <path fill="none" stroke="white" stroke-width="1.5" d="M0,-3.0v7 M-2.5,-0.5L0,-3.0L2.5,-0.5"/>
                </g>
        </g>
        <svg viewBox="0 0 15 15" width="100%" height="30px" preserveAspectRatio="xMaxYMin meet">
         <g id="arrow_out" transform="scale(0.3 0.3)">
          <a xlink:href="JKRExpHeap_8h__dep__incl_org.svg" target="_base">
           <rect id="button" ry="5" rx="5" y="6" x="6" height="38" width="38"
                fill="#f2f5e9" fill-opacity="0.5" stroke="#606060" stroke-width="1.0"/>
           <path id="arrow"
             d="M 11.500037,31.436501 C 11.940474,20.09759 22.043105,11.32322 32.158766,21.979434 L 37.068811,17.246167 C 37.068811,17.246167 37.088388,32 37.088388,32 L 22.160133,31.978069 C 22.160133,31.978069 26.997745,27.140456 26.997745,27.140456 C 18.528582,18.264221 13.291696,25.230495 11.500037,31.436501 z"
             style="fill:#404040;"/>
          </a>
         </g>
        </svg>
</svg>
