<?xml version="1.0" encoding="UTF-8" standalone="no"?>
<!DOCTYPE svg PUBLIC "-//W3C//DTD SVG 1.1//EN"
 "http://www.w3.org/Graphics/SVG/1.1/DTD/svg11.dtd">
<!-- Generated by graphviz version 2.46.1 (20210215.1649)
 -->
<!-- Title: include/JSystem/JKernel/JKRFileLoader/JKRFileLoader.h Pages: 1 -->
<svg width="3806pt" height="374pt"
 viewBox="0.00 0.00 3806.00 374.00" xmlns="http://www.w3.org/2000/svg" xmlns:xlink="http://www.w3.org/1999/xlink">
<g id="graph0" class="graph" transform="scale(1 1) rotate(0) translate(4 370)">
<title>include/JSystem/JKernel/JKRFileLoader/JKRFileLoader.h</title>
<polygon fill="white" stroke="transparent" points="-4,4 -4,-370 3802,-370 3802,4 -4,4"/>
<!-- Node1 -->
<g id="node1" class="node">
<title>Node1</title>
<g id="a_node1"><a xlink:title=" ">
<polygon fill="#bfbfbf" stroke="black" points="3345,-335.5 3345,-365.5 3504,-365.5 3504,-335.5 3345,-335.5"/>
<text text-anchor="start" x="3353" y="-353.5" font-family="Helvetica,sans-Serif" font-size="10.00">include/JSystem/JKernel</text>
<text text-anchor="middle" x="3424.5" y="-342.5" font-family="Helvetica,sans-Serif" font-size="10.00">/JKRFileLoader/JKRFileLoader.h</text>
</a>
</g>
</g>
<!-- Node2 -->
<g id="node2" class="node">
<title>Node2</title>
<g id="a_node2"><a xlink:href="JKRArchivePub_8cpp.html" target="_top" xlink:title=" ">
<polygon fill="white" stroke="black" points="3172,-129 3172,-159 3281,-159 3281,-129 3172,-129"/>
<text text-anchor="start" x="3180" y="-147" font-family="Helvetica,sans-Serif" font-size="10.00">libs/JSystem/JKernel</text>
<text text-anchor="middle" x="3226.5" y="-136" font-family="Helvetica,sans-Serif" font-size="10.00">/JKRArchivePub.cpp</text>
</a>
</g>
</g>
<!-- Node1&#45;&gt;Node2 -->
<g id="edge1" class="edge">
<title>Node1&#45;&gt;Node2</title>
<path fill="none" stroke="midnightblue" d="M3437.53,-326.45C3453.57,-294.66 3475.35,-237.21 3446.5,-201 3401.89,-145.01 3358.56,-183.85 3289.5,-165 3282.86,-163.19 3275.87,-161.13 3269.06,-159.03"/>
<polygon fill="midnightblue" stroke="midnightblue" points="3434.36,-324.96 3432.8,-335.44 3440.56,-328.22 3434.36,-324.96"/>
</g>
<!-- Node3 -->
<g id="node3" class="node">
<title>Node3</title>
<g id="a_node3"><a xlink:href="JKRFileLoader_8cpp.html" target="_top" xlink:title=" ">
<polygon fill="white" stroke="black" points="3329,-268.5 3329,-298.5 3438,-298.5 3438,-268.5 3329,-268.5"/>
<text text-anchor="start" x="3337" y="-286.5" font-family="Helvetica,sans-Serif" font-size="10.00">libs/JSystem/JKernel</text>
<text text-anchor="middle" x="3383.5" y="-275.5" font-family="Helvetica,sans-Serif" font-size="10.00">/JKRFileLoader.cpp</text>
</a>
</g>
</g>
<!-- Node1&#45;&gt;Node3 -->
<g id="edge2" class="edge">
<title>Node1&#45;&gt;Node3</title>
<path fill="none" stroke="midnightblue" d="M3410.22,-326.87C3404.29,-317.46 3397.59,-306.83 3392.38,-298.58"/>
<polygon fill="midnightblue" stroke="midnightblue" points="3407.31,-328.81 3415.6,-335.4 3413.23,-325.07 3407.31,-328.81"/>
</g>
<!-- Node4 -->
<g id="node4" class="node">
<title>Node4</title>
<g id="a_node4"><a xlink:href="JKRArchive_8h.html" target="_top" xlink:title=" ">
<polygon fill="white" stroke="black" points="2927.5,-268.5 2927.5,-298.5 3061.5,-298.5 3061.5,-268.5 2927.5,-268.5"/>
<text text-anchor="start" x="2935.5" y="-286.5" font-family="Helvetica,sans-Serif" font-size="10.00">include/JSystem/JKernel</text>
<text text-anchor="middle" x="2994.5" y="-275.5" font-family="Helvetica,sans-Serif" font-size="10.00">/JKRArchive/JKRArchive.h</text>
</a>
</g>
</g>
<!-- Node1&#45;&gt;Node4 -->
<g id="edge3" class="edge">
<title>Node1&#45;&gt;Node4</title>
<path fill="none" stroke="midnightblue" d="M3334.64,-335.92C3253.24,-323.61 3135.13,-305.76 3061.67,-294.65"/>
<polygon fill="midnightblue" stroke="midnightblue" points="3334.47,-339.43 3344.88,-337.46 3335.51,-332.51 3334.47,-339.43"/>
</g>
<!-- Node76 -->
<g id="node49" class="node">
<title>Node76</title>
<g id="a_node49"><a xlink:href="JKRFileCache_8h.html" target="_top" xlink:title=" ">
<polygon fill="white" stroke="black" points="3580,-268.5 3580,-298.5 3735,-298.5 3735,-268.5 3580,-268.5"/>
<text text-anchor="start" x="3588" y="-286.5" font-family="Helvetica,sans-Serif" font-size="10.00">include/JSystem/JKernel</text>
<text text-anchor="middle" x="3657.5" y="-275.5" font-family="Helvetica,sans-Serif" font-size="10.00">/JKRFileCache/JKRFileCache.h</text>
</a>
</g>
</g>
<!-- Node1&#45;&gt;Node76 -->
<g id="edge57" class="edge">
<title>Node1&#45;&gt;Node76</title>
<path fill="none" stroke="midnightblue" d="M3484.67,-332.71C3522.58,-322.14 3570.99,-308.63 3606.92,-298.61"/>
<polygon fill="midnightblue" stroke="midnightblue" points="3483.46,-329.42 3474.77,-335.48 3485.34,-336.16 3483.46,-329.42"/>
</g>
<!-- Node4&#45;&gt;Node2 -->
<g id="edge5" class="edge">
<title>Node4&#45;&gt;Node2</title>
<path fill="none" stroke="midnightblue" d="M3036.46,-264.07C3055.07,-255.26 3076.91,-244.02 3095.5,-232 3113.8,-220.17 3115.67,-213.54 3133.5,-201 3155.54,-185.49 3181.98,-169.84 3201.02,-159.04"/>
<polygon fill="midnightblue" stroke="midnightblue" points="3034.92,-260.93 3027.34,-268.32 3037.88,-267.27 3034.92,-260.93"/>
</g>
<!-- Node5 -->
<g id="node5" class="node">
<title>Node5</title>
<g id="a_node5"><a xlink:href="JKRArchivePri_8cpp.html" target="_top" xlink:title=" ">
<polygon fill="white" stroke="black" points="3329,-201.5 3329,-231.5 3438,-231.5 3438,-201.5 3329,-201.5"/>
<text text-anchor="start" x="3337" y="-219.5" font-family="Helvetica,sans-Serif" font-size="10.00">libs/JSystem/JKernel</text>
<text text-anchor="middle" x="3383.5" y="-208.5" font-family="Helvetica,sans-Serif" font-size="10.00">/JKRArchivePri.cpp</text>
</a>
</g>
</g>
<!-- Node4&#45;&gt;Node5 -->
<g id="edge4" class="edge">
<title>Node4&#45;&gt;Node5</title>
<path fill="none" stroke="midnightblue" d="M3071.55,-272.05C3137.57,-262.73 3235.07,-248.1 3319.5,-232 3322.52,-231.42 3325.62,-230.81 3328.74,-230.17"/>
<polygon fill="midnightblue" stroke="midnightblue" points="3071.06,-268.58 3061.64,-273.44 3072.03,-275.51 3071.06,-268.58"/>
</g>
<!-- Node6 -->
<g id="node6" class="node">
<title>Node6</title>
<g id="a_node6"><a xlink:href="JKRFileFinder_8cpp.html" target="_top" xlink:title=" ">
<polygon fill="white" stroke="black" points="2284,-201.5 2284,-231.5 2393,-231.5 2393,-201.5 2284,-201.5"/>
<text text-anchor="start" x="2292" y="-219.5" font-family="Helvetica,sans-Serif" font-size="10.00">libs/JSystem/JKernel</text>
<text text-anchor="middle" x="2338.5" y="-208.5" font-family="Helvetica,sans-Serif" font-size="10.00">/JKRFileFinder.cpp</text>
</a>
</g>
</g>
<!-- Node4&#45;&gt;Node6 -->
<g id="edge6" class="edge">
<title>Node4&#45;&gt;Node6</title>
<path fill="none" stroke="midnightblue" d="M2917.1,-279.4C2803.48,-274.06 2585.12,-260.8 2401.5,-232 2398.73,-231.57 2395.9,-231.08 2393.04,-230.55"/>
<polygon fill="midnightblue" stroke="midnightblue" points="2917.28,-282.91 2927.43,-279.88 2917.6,-275.92 2917.28,-282.91"/>
</g>
<!-- Node7 -->
<g id="node7" class="node">
<title>Node7</title>
<g id="a_node7"><a xlink:href="d__file__sel__info_8h.html" target="_top" xlink:title=" ">
<polygon fill="white" stroke="black" points="791.5,-123.5 791.5,-164.5 889.5,-164.5 889.5,-123.5 791.5,-123.5"/>
<text text-anchor="start" x="799.5" y="-152.5" font-family="Helvetica,sans-Serif" font-size="10.00">include/d/d_file/d</text>
<text text-anchor="start" x="799.5" y="-141.5" font-family="Helvetica,sans-Serif" font-size="10.00">_file_sel_info/d_file</text>
<text text-anchor="middle" x="840.5" y="-130.5" font-family="Helvetica,sans-Serif" font-size="10.00">_sel_info.h</text>
</a>
</g>
</g>
<!-- Node4&#45;&gt;Node7 -->
<g id="edge7" class="edge">
<title>Node4&#45;&gt;Node7</title>
<path fill="none" stroke="midnightblue" d="M2917.21,-277.57C2571.35,-255.49 1170.47,-166.06 889.65,-148.14"/>
<polygon fill="midnightblue" stroke="midnightblue" points="2917.17,-281.07 2927.38,-278.22 2917.62,-274.09 2917.17,-281.07"/>
</g>
<!-- Node9 -->
<g id="node9" class="node">
<title>Node9</title>
<g id="a_node9"><a xlink:href="d__resource_8h.html" target="_top" xlink:title=" ">
<polygon fill="white" stroke="black" points="2411,-201.5 2411,-231.5 2518,-231.5 2518,-201.5 2411,-201.5"/>
<text text-anchor="start" x="2419" y="-219.5" font-family="Helvetica,sans-Serif" font-size="10.00">include/d/d_resource</text>
<text text-anchor="middle" x="2464.5" y="-208.5" font-family="Helvetica,sans-Serif" font-size="10.00">/d_resource.h</text>
</a>
</g>
</g>
<!-- Node4&#45;&gt;Node9 -->
<g id="edge9" class="edge">
<title>Node4&#45;&gt;Node9</title>
<path fill="none" stroke="midnightblue" d="M2917.42,-276.57C2825.26,-268.92 2666.51,-253.91 2531.5,-232 2527.15,-231.29 2522.66,-230.49 2518.16,-229.63"/>
<polygon fill="midnightblue" stroke="midnightblue" points="2917.25,-280.07 2927.5,-277.4 2917.82,-273.09 2917.25,-280.07"/>
</g>
<!-- Node55 -->
<g id="node37" class="node">
<title>Node55</title>
<g id="a_node37"><a xlink:href="J2DPane_8h.html" target="_top" xlink:title=" ">
<polygon fill="white" stroke="black" points="2541,-201.5 2541,-231.5 2676,-231.5 2676,-201.5 2541,-201.5"/>
<text text-anchor="start" x="2549" y="-219.5" font-family="Helvetica,sans-Serif" font-size="10.00">include/JSystem/J2DGraph</text>
<text text-anchor="middle" x="2608.5" y="-208.5" font-family="Helvetica,sans-Serif" font-size="10.00">/J2DPane.h</text>
</a>
</g>
</g>
<!-- Node4&#45;&gt;Node55 -->
<g id="edge40" class="edge">
<title>Node4&#45;&gt;Node55</title>
<path fill="none" stroke="midnightblue" d="M2917.6,-269.56C2857,-259.36 2770.35,-244.78 2694.5,-232 2688.53,-230.99 2682.32,-229.95 2676.1,-228.9"/>
<polygon fill="midnightblue" stroke="midnightblue" points="2917.03,-273.01 2927.48,-271.22 2918.2,-266.11 2917.03,-273.01"/>
</g>
<!-- Node57 -->
<g id="node39" class="node">
<title>Node57</title>
<g id="a_node39"><a xlink:href="JKRAramArchive_8h.html" target="_top" xlink:title=" ">
<polygon fill="white" stroke="black" points="2703.5,-201.5 2703.5,-231.5 2883.5,-231.5 2883.5,-201.5 2703.5,-201.5"/>
<text text-anchor="start" x="2711.5" y="-219.5" font-family="Helvetica,sans-Serif" font-size="10.00">include/JSystem/JKernel</text>
<text text-anchor="middle" x="2793.5" y="-208.5" font-family="Helvetica,sans-Serif" font-size="10.00">/JKRAramArchive/JKRAramArchive.h</text>
</a>
</g>
</g>
<!-- Node4&#45;&gt;Node57 -->
<g id="edge42" class="edge">
<title>Node4&#45;&gt;Node57</title>
<path fill="none" stroke="midnightblue" d="M2941.09,-265.23C2908.57,-254.71 2867.56,-241.45 2837.03,-231.58"/>
<polygon fill="midnightblue" stroke="midnightblue" points="2940.29,-268.65 2950.89,-268.4 2942.45,-261.99 2940.29,-268.65"/>
</g>
<!-- Node70 -->
<g id="node43" class="node">
<title>Node70</title>
<g id="a_node43"><a xlink:href="JKRCompArchive_8h.html" target="_top" xlink:title=" ">
<polygon fill="white" stroke="black" points="2902,-201.5 2902,-231.5 3087,-231.5 3087,-201.5 2902,-201.5"/>
<text text-anchor="start" x="2910" y="-219.5" font-family="Helvetica,sans-Serif" font-size="10.00">include/JSystem/JKernel</text>
<text text-anchor="middle" x="2994.5" y="-208.5" font-family="Helvetica,sans-Serif" font-size="10.00">/JKRCompArchive/JKRCompArchive.h</text>
</a>
</g>
</g>
<!-- Node4&#45;&gt;Node70 -->
<g id="edge48" class="edge">
<title>Node4&#45;&gt;Node70</title>
<path fill="none" stroke="midnightblue" d="M2994.5,-258.11C2994.5,-249.15 2994.5,-239.32 2994.5,-231.58"/>
<polygon fill="midnightblue" stroke="midnightblue" points="2991,-258.4 2994.5,-268.4 2998,-258.4 2991,-258.4"/>
</g>
<!-- Node72 -->
<g id="node45" class="node">
<title>Node72</title>
<g id="a_node45"><a xlink:href="JKRDvdArchive_8h.html" target="_top" xlink:title=" ">
<polygon fill="white" stroke="black" points="3142.5,-201.5 3142.5,-231.5 3310.5,-231.5 3310.5,-201.5 3142.5,-201.5"/>
<text text-anchor="start" x="3150.5" y="-219.5" font-family="Helvetica,sans-Serif" font-size="10.00">include/JSystem/JKernel</text>
<text text-anchor="middle" x="3226.5" y="-208.5" font-family="Helvetica,sans-Serif" font-size="10.00">/JKRDvdArchive/JKRDvdArchive.h</text>
</a>
</g>
</g>
<!-- Node4&#45;&gt;Node72 -->
<g id="edge51" class="edge">
<title>Node4&#45;&gt;Node72</title>
<path fill="none" stroke="midnightblue" d="M3054.41,-265.71C3092.16,-255.14 3140.36,-241.63 3176.13,-231.61"/>
<polygon fill="midnightblue" stroke="midnightblue" points="3053.24,-262.41 3044.55,-268.48 3055.13,-269.15 3053.24,-262.41"/>
</g>
<!-- Node74 -->
<g id="node47" class="node">
<title>Node74</title>
<g id="a_node47"><a xlink:href="JKRMemArchive_8h.html" target="_top" xlink:title=" ">
<polygon fill="white" stroke="black" points="3494,-201.5 3494,-231.5 3671,-231.5 3671,-201.5 3494,-201.5"/>
<text text-anchor="start" x="3502" y="-219.5" font-family="Helvetica,sans-Serif" font-size="10.00">include/JSystem/JKernel</text>
<text text-anchor="middle" x="3582.5" y="-208.5" font-family="Helvetica,sans-Serif" font-size="10.00">/JKRMemArchive/JKRMemArchive.h</text>
</a>
</g>
</g>
<!-- Node4&#45;&gt;Node74 -->
<g id="edge54" class="edge">
<title>Node4&#45;&gt;Node74</title>
<path fill="none" stroke="midnightblue" d="M3071.93,-273.94C3180.9,-261.89 3379.01,-239.99 3493.78,-227.31"/>
<polygon fill="midnightblue" stroke="midnightblue" points="3071.22,-270.5 3061.66,-275.08 3071.99,-277.46 3071.22,-270.5"/>
</g>
<!-- Node8 -->
<g id="node8" class="node">
<title>Node8</title>
<g id="a_node8"><a xlink:href="d__file__sel__info_8cpp.html" target="_top" xlink:title=" ">
<polygon fill="white" stroke="black" points="0,-56.5 0,-86.5 89,-86.5 89,-56.5 0,-56.5"/>
<text text-anchor="start" x="8" y="-74.5" font-family="Helvetica,sans-Serif" font-size="10.00">src/d/d_file/d_file</text>
<text text-anchor="middle" x="44.5" y="-63.5" font-family="Helvetica,sans-Serif" font-size="10.00">_sel_info.cpp</text>
</a>
</g>
</g>
<!-- Node7&#45;&gt;Node8 -->
<g id="edge8" class="edge">
<title>Node7&#45;&gt;Node8</title>
<path fill="none" stroke="midnightblue" d="M781.18,-142.38C654.63,-140.21 349.19,-130.5 97.5,-87 94.77,-86.53 91.99,-85.98 89.18,-85.37"/>
<polygon fill="midnightblue" stroke="midnightblue" points="781.37,-145.88 791.42,-142.54 781.48,-138.88 781.37,-145.88"/>
</g>
<!-- Node10 -->
<g id="node10" class="node">
<title>Node10</title>
<g id="a_node10"><a xlink:href="d__a__alink_8h.html" target="_top" xlink:title=" ">
<polygon fill="white" stroke="black" points="3079,-56.5 3079,-86.5 3198,-86.5 3198,-56.5 3079,-56.5"/>
<text text-anchor="start" x="3087" y="-74.5" font-family="Helvetica,sans-Serif" font-size="10.00">include/d/d_a/d_a_alink</text>
<text text-anchor="middle" x="3138.5" y="-63.5" font-family="Helvetica,sans-Serif" font-size="10.00">/d_a_alink.h</text>
</a>
</g>
</g>
<!-- Node9&#45;&gt;Node10 -->
<g id="edge10" class="edge">
<title>Node9&#45;&gt;Node10</title>
<path fill="none" stroke="midnightblue" d="M2460.9,-191.21C2459.26,-169.92 2460.91,-139.82 2479.5,-123 2528.2,-78.93 3004.41,-95.78 3069.5,-87 3072.53,-86.59 3075.63,-86.12 3078.75,-85.61"/>
<polygon fill="midnightblue" stroke="midnightblue" points="2457.45,-191.85 2461.99,-201.42 2464.41,-191.11 2457.45,-191.85"/>
</g>
<!-- Node13 -->
<g id="node13" class="node">
<title>Node13</title>
<g id="a_node13"><a xlink:href="d__com__inf__game_8h.html" target="_top" xlink:title=" ">
<polygon fill="white" stroke="red" points="1702.5,-129 1702.5,-159 1848.5,-159 1848.5,-129 1702.5,-129"/>
<text text-anchor="start" x="1710.5" y="-147" font-family="Helvetica,sans-Serif" font-size="10.00">include/d/d_com/d_com</text>
<text text-anchor="middle" x="1775.5" y="-136" font-family="Helvetica,sans-Serif" font-size="10.00">_inf_game/d_com_inf_game.h</text>
</a>
</g>
</g>
<!-- Node9&#45;&gt;Node13 -->
<g id="edge13" class="edge">
<title>Node9&#45;&gt;Node13</title>
<path fill="none" stroke="midnightblue" d="M2400.9,-201.06C2195.34,-168.94 1964.04,-154.19 1848.67,-148.29"/>
<polygon fill="midnightblue" stroke="midnightblue" points="2400.56,-204.55 2410.98,-202.66 2401.65,-197.64 2400.56,-204.55"/>
</g>
<!-- Node11 -->
<g id="node11" class="node">
<title>Node11</title>
<g id="a_node11"><a xlink:href="d__attention_8cpp.html" target="_top" xlink:title=" ">
<polygon fill="white" stroke="black" points="2916,-0.5 2916,-19.5 3023,-19.5 3023,-0.5 2916,-0.5"/>
<text text-anchor="middle" x="2969.5" y="-7.5" font-family="Helvetica,sans-Serif" font-size="10.00">src/d/d_attention.cpp</text>
</a>
</g>
</g>
<!-- Node10&#45;&gt;Node11 -->
<g id="edge11" class="edge">
<title>Node10&#45;&gt;Node11</title>
<path fill="none" stroke="midnightblue" d="M3088.63,-52.94C3057.5,-41.98 3018.77,-28.35 2994.09,-19.66"/>
<polygon fill="midnightblue" stroke="midnightblue" points="3087.85,-56.38 3098.45,-56.4 3090.18,-49.78 3087.85,-56.38"/>
</g>
<!-- Node12 -->
<g id="node12" class="node">
<title>Node12</title>
<g id="a_node12"><a xlink:href="d__a__alink_8cpp.html" target="_top" xlink:title=" ">
<polygon fill="white" stroke="black" points="3079,-0.5 3079,-19.5 3198,-19.5 3198,-0.5 3079,-0.5"/>
<text text-anchor="middle" x="3138.5" y="-7.5" font-family="Helvetica,sans-Serif" font-size="10.00">src/d/d_a/d_a_alink.cpp</text>
</a>
</g>
</g>
<!-- Node10&#45;&gt;Node12 -->
<g id="edge12" class="edge">
<title>Node10&#45;&gt;Node12</title>
<path fill="none" stroke="midnightblue" d="M3138.5,-46.29C3138.5,-36.86 3138.5,-26.65 3138.5,-19.66"/>
<polygon fill="midnightblue" stroke="midnightblue" points="3135,-46.4 3138.5,-56.4 3142,-46.4 3135,-46.4"/>
</g>
<!-- Node13&#45;&gt;Node8 -->
<g id="edge17" class="edge">
<title>Node13&#45;&gt;Node8</title>
<path fill="none" stroke="midnightblue" d="M1692.23,-141.36C1375.5,-134.98 255.6,-110.93 97.5,-87 94.76,-86.59 91.97,-86.08 89.16,-85.51"/>
<polygon fill="midnightblue" stroke="midnightblue" points="1692.2,-144.86 1702.27,-141.56 1692.34,-137.86 1692.2,-144.86"/>
</g>
<!-- Node13&#45;&gt;Node10 -->
<g id="edge39" class="edge">
<title>Node13&#45;&gt;Node10</title>
<path fill="none" stroke="midnightblue" d="M1858.93,-140.19C2126.11,-131.06 2950.14,-102.02 3069.5,-87 3072.54,-86.62 3075.64,-86.17 3078.76,-85.68"/>
<polygon fill="midnightblue" stroke="midnightblue" points="1858.78,-136.69 1848.9,-140.53 1859.02,-143.68 1858.78,-136.69"/>
</g>
<!-- Node13&#45;&gt;Node11 -->
<g id="edge14" class="edge">
<title>Node13&#45;&gt;Node11</title>
<path fill="none" stroke="midnightblue" d="M1858.98,-140.81C2113.48,-133.87 2865.09,-111.4 2911.5,-87 2940,-72.01 2958.61,-36.1 2965.96,-19.58"/>
<polygon fill="midnightblue" stroke="midnightblue" points="1858.59,-137.32 1848.69,-141.09 1858.78,-144.31 1858.59,-137.32"/>
</g>
<!-- Node14 -->
<g id="node14" class="node">
<title>Node14</title>
<g id="a_node14"><a xlink:href="d__camera_8cpp.html" target="_top" xlink:title=" ">
<polygon fill="white" stroke="black" points="2958.5,-62 2958.5,-81 3060.5,-81 3060.5,-62 2958.5,-62"/>
<text text-anchor="middle" x="3009.5" y="-69" font-family="Helvetica,sans-Serif" font-size="10.00">src/d/d_camera.cpp</text>
</a>
</g>
</g>
<!-- Node13&#45;&gt;Node14 -->
<g id="edge15" class="edge">
<title>Node13&#45;&gt;Node14</title>
<path fill="none" stroke="midnightblue" d="M1858.72,-140.87C2089.48,-134.67 2734.3,-115.27 2944.5,-87 2954.93,-85.6 2966.16,-83.36 2976.3,-81.06"/>
<polygon fill="midnightblue" stroke="midnightblue" points="1858.61,-137.37 1848.7,-141.14 1858.79,-144.37 1858.61,-137.37"/>
</g>
<!-- Node15 -->
<g id="node15" class="node">
<title>Node15</title>
<g id="a_node15"><a xlink:href="d__com__inf__game_8cpp.html" target="_top" xlink:title=" ">
<polygon fill="white" stroke="black" points="107,-56.5 107,-86.5 226,-86.5 226,-56.5 107,-56.5"/>
<text text-anchor="start" x="115" y="-74.5" font-family="Helvetica,sans-Serif" font-size="10.00">src/d/d_com/d_com_inf</text>
<text text-anchor="middle" x="166.5" y="-63.5" font-family="Helvetica,sans-Serif" font-size="10.00">_game.cpp</text>
</a>
</g>
</g>
<!-- Node13&#45;&gt;Node15 -->
<g id="edge16" class="edge">
<title>Node13&#45;&gt;Node15</title>
<path fill="none" stroke="midnightblue" d="M1691.93,-140.81C1391.87,-132.85 379.08,-104.9 234.5,-87 231.74,-86.66 228.94,-86.26 226.1,-85.82"/>
<polygon fill="midnightblue" stroke="midnightblue" points="1692.21,-144.32 1702.3,-141.09 1692.39,-137.32 1692.21,-144.32"/>
</g>
<!-- Node16 -->
<g id="node16" class="node">
<title>Node16</title>
<g id="a_node16"><a xlink:href="d__item_8cpp.html" target="_top" xlink:title=" ">
<polygon fill="white" stroke="black" points="244,-62 244,-81 365,-81 365,-62 244,-62"/>
<text text-anchor="middle" x="304.5" y="-69" font-family="Helvetica,sans-Serif" font-size="10.00">src/d/d_item/d_item.cpp</text>
</a>
</g>
</g>
<!-- Node13&#45;&gt;Node16 -->
<g id="edge18" class="edge">
<title>Node13&#45;&gt;Node16</title>
<path fill="none" stroke="midnightblue" d="M1692.02,-141.5C1430.78,-136.51 630.99,-118.97 373.5,-87 362.32,-85.61 350.27,-83.35 339.41,-81.02"/>
<polygon fill="midnightblue" stroke="midnightblue" points="1692.13,-145 1702.2,-141.69 1692.27,-138 1692.13,-145"/>
</g>
<!-- Node17 -->
<g id="node17" class="node">
<title>Node17</title>
<g id="a_node17"><a xlink:href="d__kankyo__rain_8cpp.html" target="_top" xlink:title=" ">
<polygon fill="white" stroke="black" points="383,-56.5 383,-86.5 510,-86.5 510,-56.5 383,-56.5"/>
<text text-anchor="start" x="391" y="-74.5" font-family="Helvetica,sans-Serif" font-size="10.00">src/d/d_kankyo/d_kankyo</text>
<text text-anchor="middle" x="446.5" y="-63.5" font-family="Helvetica,sans-Serif" font-size="10.00">_rain.cpp</text>
</a>
</g>
</g>
<!-- Node13&#45;&gt;Node17 -->
<g id="edge19" class="edge">
<title>Node13&#45;&gt;Node17</title>
<path fill="none" stroke="midnightblue" d="M1691.96,-143.71C1489.72,-144.48 958.07,-140.73 518.5,-87 515.72,-86.66 512.88,-86.27 510.02,-85.84"/>
<polygon fill="midnightblue" stroke="midnightblue" points="1692.22,-147.21 1702.2,-143.67 1692.19,-140.21 1692.22,-147.21"/>
</g>
<!-- Node18 -->
<g id="node18" class="node">
<title>Node18</title>
<g id="a_node18"><a xlink:href="d__kankyo__wether_8cpp.html" target="_top" xlink:title=" ">
<polygon fill="white" stroke="black" points="528,-56.5 528,-86.5 655,-86.5 655,-56.5 528,-56.5"/>
<text text-anchor="start" x="536" y="-74.5" font-family="Helvetica,sans-Serif" font-size="10.00">src/d/d_kankyo/d_kankyo</text>
<text text-anchor="middle" x="591.5" y="-63.5" font-family="Helvetica,sans-Serif" font-size="10.00">_wether.cpp</text>
</a>
</g>
</g>
<!-- Node13&#45;&gt;Node18 -->
<g id="edge20" class="edge">
<title>Node13&#45;&gt;Node18</title>
<path fill="none" stroke="midnightblue" d="M1692.09,-143.02C1506.49,-142.13 1045.64,-134.83 663.5,-87 660.72,-86.65 657.88,-86.26 655.02,-85.82"/>
<polygon fill="midnightblue" stroke="midnightblue" points="1692.3,-146.52 1702.31,-143.06 1692.33,-139.52 1692.3,-146.52"/>
</g>
<!-- Node19 -->
<g id="node19" class="node">
<title>Node19</title>
<g id="a_node19"><a xlink:href="d__kankyo_8cpp.html" target="_top" xlink:title=" ">
<polygon fill="white" stroke="black" points="673,-62 673,-81 774,-81 774,-62 673,-62"/>
<text text-anchor="middle" x="723.5" y="-69" font-family="Helvetica,sans-Serif" font-size="10.00">src/d/d_kankyo.cpp</text>
</a>
</g>
</g>
<!-- Node13&#45;&gt;Node19 -->
<g id="edge21" class="edge">
<title>Node13&#45;&gt;Node19</title>
<path fill="none" stroke="midnightblue" d="M1692.25,-143.47C1520.95,-143.32 1116.98,-137.09 782.5,-87 773.01,-85.58 762.81,-83.34 753.6,-81.03"/>
<polygon fill="midnightblue" stroke="midnightblue" points="1692.46,-146.97 1702.46,-143.48 1692.46,-139.97 1692.46,-146.97"/>
</g>
<!-- Node20 -->
<g id="node20" class="node">
<title>Node20</title>
<g id="a_node20"><a xlink:href="d__kantera__icon__meter_8cpp.html" target="_top" xlink:title=" ">
<polygon fill="white" stroke="black" points="792,-56.5 792,-86.5 899,-86.5 899,-56.5 792,-56.5"/>
<text text-anchor="start" x="800" y="-74.5" font-family="Helvetica,sans-Serif" font-size="10.00">src/d/d_kantera_icon</text>
<text text-anchor="middle" x="845.5" y="-63.5" font-family="Helvetica,sans-Serif" font-size="10.00">_meter.cpp</text>
</a>
</g>
</g>
<!-- Node13&#45;&gt;Node20 -->
<g id="edge22" class="edge">
<title>Node13&#45;&gt;Node20</title>
<path fill="none" stroke="midnightblue" d="M1692.08,-142.19C1536.83,-139.68 1193.34,-129.35 907.5,-87 904.77,-86.59 901.98,-86.13 899.16,-85.62"/>
<polygon fill="midnightblue" stroke="midnightblue" points="1692.43,-145.7 1702.48,-142.35 1692.54,-138.7 1692.43,-145.7"/>
</g>
<!-- Node21 -->
<g id="node21" class="node">
<title>Node21</title>
<g id="a_node21"><a xlink:href="d__kyeff_8cpp.html" target="_top" xlink:title=" ">
<polygon fill="white" stroke="black" points="917,-62 917,-81 1030,-81 1030,-62 917,-62"/>
<text text-anchor="middle" x="973.5" y="-69" font-family="Helvetica,sans-Serif" font-size="10.00">src/d/d_ky/d_kyeff.cpp</text>
</a>
</g>
</g>
<!-- Node13&#45;&gt;Node21 -->
<g id="edge23" class="edge">
<title>Node13&#45;&gt;Node21</title>
<path fill="none" stroke="midnightblue" d="M1692.4,-140.57C1555.47,-135.71 1274.08,-122.04 1038.5,-87 1028.32,-85.49 1017.36,-83.27 1007.4,-81.03"/>
<polygon fill="midnightblue" stroke="midnightblue" points="1692.29,-144.07 1702.41,-140.92 1692.54,-137.08 1692.29,-144.07"/>
</g>
<!-- Node22 -->
<g id="node22" class="node">
<title>Node22</title>
<g id="a_node22"><a xlink:href="d__meter__button_8cpp.html" target="_top" xlink:title=" ">
<polygon fill="white" stroke="black" points="1048,-56.5 1048,-86.5 1163,-86.5 1163,-56.5 1048,-56.5"/>
<text text-anchor="start" x="1056" y="-74.5" font-family="Helvetica,sans-Serif" font-size="10.00">src/d/d_meter/d_meter</text>
<text text-anchor="middle" x="1105.5" y="-63.5" font-family="Helvetica,sans-Serif" font-size="10.00">_button.cpp</text>
</a>
</g>
</g>
<!-- Node13&#45;&gt;Node22 -->
<g id="edge24" class="edge">
<title>Node13&#45;&gt;Node22</title>
<path fill="none" stroke="midnightblue" d="M1691.85,-138.53C1574.89,-131.53 1356.1,-115.72 1171.5,-87 1168.72,-86.57 1165.88,-86.09 1163.01,-85.58"/>
<polygon fill="midnightblue" stroke="midnightblue" points="1691.97,-142.04 1702.16,-139.14 1692.38,-135.05 1691.97,-142.04"/>
</g>
<!-- Node23 -->
<g id="node23" class="node">
<title>Node23</title>
<g id="a_node23"><a xlink:href="d__meter__haihai_8cpp.html" target="_top" xlink:title=" ">
<polygon fill="white" stroke="black" points="1181,-56.5 1181,-86.5 1296,-86.5 1296,-56.5 1181,-56.5"/>
<text text-anchor="start" x="1189" y="-74.5" font-family="Helvetica,sans-Serif" font-size="10.00">src/d/d_meter/d_meter</text>
<text text-anchor="middle" x="1238.5" y="-63.5" font-family="Helvetica,sans-Serif" font-size="10.00">_haihai.cpp</text>
</a>
</g>
</g>
<!-- Node13&#45;&gt;Node23 -->
<g id="edge25" class="edge">
<title>Node13&#45;&gt;Node23</title>
<path fill="none" stroke="midnightblue" d="M1692.1,-135.57C1597.68,-126.59 1439.44,-109.79 1304.5,-87 1301.72,-86.53 1298.89,-86.02 1296.03,-85.49"/>
<polygon fill="midnightblue" stroke="midnightblue" points="1691.88,-139.07 1702.16,-136.52 1692.53,-132.1 1691.88,-139.07"/>
</g>
<!-- Node24 -->
<g id="node24" class="node">
<title>Node24</title>
<g id="a_node24"><a xlink:href="d__meter__hakusha_8cpp.html" target="_top" xlink:title=" ">
<polygon fill="white" stroke="black" points="1314,-56.5 1314,-86.5 1429,-86.5 1429,-56.5 1314,-56.5"/>
<text text-anchor="start" x="1322" y="-74.5" font-family="Helvetica,sans-Serif" font-size="10.00">src/d/d_meter/d_meter</text>
<text text-anchor="middle" x="1371.5" y="-63.5" font-family="Helvetica,sans-Serif" font-size="10.00">_hakusha.cpp</text>
</a>
</g>
</g>
<!-- Node13&#45;&gt;Node24 -->
<g id="edge26" class="edge">
<title>Node13&#45;&gt;Node24</title>
<path fill="none" stroke="midnightblue" d="M1692.57,-130.49C1624.01,-119.86 1524.21,-103.7 1437.5,-87 1434.74,-86.47 1431.91,-85.91 1429.06,-85.33"/>
<polygon fill="midnightblue" stroke="midnightblue" points="1692.03,-133.95 1702.45,-132.02 1693.1,-127.03 1692.03,-133.95"/>
</g>
<!-- Node25 -->
<g id="node25" class="node">
<title>Node25</title>
<g id="a_node25"><a xlink:href="d__meter__map_8cpp.html" target="_top" xlink:title=" ">
<polygon fill="white" stroke="black" points="1447,-56.5 1447,-86.5 1562,-86.5 1562,-56.5 1447,-56.5"/>
<text text-anchor="start" x="1455" y="-74.5" font-family="Helvetica,sans-Serif" font-size="10.00">src/d/d_meter/d_meter</text>
<text text-anchor="middle" x="1504.5" y="-63.5" font-family="Helvetica,sans-Serif" font-size="10.00">_map.cpp</text>
</a>
</g>
</g>
<!-- Node13&#45;&gt;Node25 -->
<g id="edge27" class="edge">
<title>Node13&#45;&gt;Node25</title>
<path fill="none" stroke="midnightblue" d="M1711.67,-126.39C1665.16,-114.29 1602.83,-98.08 1558.73,-86.61"/>
<polygon fill="midnightblue" stroke="midnightblue" points="1711.08,-129.86 1721.64,-128.99 1712.84,-123.08 1711.08,-129.86"/>
</g>
<!-- Node26 -->
<g id="node26" class="node">
<title>Node26</title>
<g id="a_node26"><a xlink:href="d__meter__string_8cpp.html" target="_top" xlink:title=" ">
<polygon fill="white" stroke="black" points="1580,-56.5 1580,-86.5 1695,-86.5 1695,-56.5 1580,-56.5"/>
<text text-anchor="start" x="1588" y="-74.5" font-family="Helvetica,sans-Serif" font-size="10.00">src/d/d_meter/d_meter</text>
<text text-anchor="middle" x="1637.5" y="-63.5" font-family="Helvetica,sans-Serif" font-size="10.00">_string.cpp</text>
</a>
</g>
</g>
<!-- Node13&#45;&gt;Node26 -->
<g id="edge28" class="edge">
<title>Node13&#45;&gt;Node26</title>
<path fill="none" stroke="midnightblue" d="M1738.73,-124.22C1715.58,-112.39 1686.19,-97.37 1665.05,-86.57"/>
<polygon fill="midnightblue" stroke="midnightblue" points="1737.41,-127.47 1747.91,-128.9 1740.59,-121.24 1737.41,-127.47"/>
</g>
<!-- Node27 -->
<g id="node27" class="node">
<title>Node27</title>
<g id="a_node27"><a xlink:href="d__meter2__draw_8cpp.html" target="_top" xlink:title=" ">
<polygon fill="white" stroke="black" points="1713,-56.5 1713,-86.5 1838,-86.5 1838,-56.5 1713,-56.5"/>
<text text-anchor="start" x="1721" y="-74.5" font-family="Helvetica,sans-Serif" font-size="10.00">src/d/d_meter2/d_meter2</text>
<text text-anchor="middle" x="1775.5" y="-63.5" font-family="Helvetica,sans-Serif" font-size="10.00">_draw.cpp</text>
</a>
</g>
</g>
<!-- Node13&#45;&gt;Node27 -->
<g id="edge29" class="edge">
<title>Node13&#45;&gt;Node27</title>
<path fill="none" stroke="midnightblue" d="M1775.5,-118.73C1775.5,-108.07 1775.5,-95.91 1775.5,-86.75"/>
<polygon fill="midnightblue" stroke="midnightblue" points="1772,-118.73 1775.5,-128.73 1779,-118.73 1772,-118.73"/>
</g>
<!-- Node28 -->
<g id="node28" class="node">
<title>Node28</title>
<g id="a_node28"><a xlink:href="d__meter2__info_8cpp.html" target="_top" xlink:title=" ">
<polygon fill="white" stroke="black" points="1856,-56.5 1856,-86.5 1981,-86.5 1981,-56.5 1856,-56.5"/>
<text text-anchor="start" x="1864" y="-74.5" font-family="Helvetica,sans-Serif" font-size="10.00">src/d/d_meter2/d_meter2</text>
<text text-anchor="middle" x="1918.5" y="-63.5" font-family="Helvetica,sans-Serif" font-size="10.00">_info.cpp</text>
</a>
</g>
</g>
<!-- Node13&#45;&gt;Node28 -->
<g id="edge30" class="edge">
<title>Node13&#45;&gt;Node28</title>
<path fill="none" stroke="midnightblue" d="M1813.28,-124.37C1837.32,-112.52 1867.95,-97.42 1889.96,-86.57"/>
<polygon fill="midnightblue" stroke="midnightblue" points="1811.52,-121.34 1804.09,-128.9 1814.61,-127.62 1811.52,-121.34"/>
</g>
<!-- Node29 -->
<g id="node29" class="node">
<title>Node29</title>
<g id="a_node29"><a xlink:href="d__meter2_8cpp.html" target="_top" xlink:title=" ">
<polygon fill="white" stroke="black" points="1999.5,-62 1999.5,-81 2099.5,-81 2099.5,-62 1999.5,-62"/>
<text text-anchor="middle" x="2049.5" y="-69" font-family="Helvetica,sans-Serif" font-size="10.00">src/d/d_meter2.cpp</text>
</a>
</g>
</g>
<!-- Node13&#45;&gt;Node29 -->
<g id="edge31" class="edge">
<title>Node13&#45;&gt;Node29</title>
<path fill="none" stroke="midnightblue" d="M1839.67,-126.49C1894.96,-112.26 1972.58,-92.29 2016.25,-81.05"/>
<polygon fill="midnightblue" stroke="midnightblue" points="1838.77,-123.11 1829.96,-128.99 1840.52,-129.88 1838.77,-123.11"/>
</g>
<!-- Node30 -->
<g id="node30" class="node">
<title>Node30</title>
<g id="a_node30"><a xlink:href="d__save_8cpp.html" target="_top" xlink:title=" ">
<polygon fill="white" stroke="black" points="3216,-62 3216,-81 3341,-81 3341,-62 3216,-62"/>
<text text-anchor="middle" x="3278.5" y="-69" font-family="Helvetica,sans-Serif" font-size="10.00">src/d/d_save/d_save.cpp</text>
</a>
</g>
</g>
<!-- Node13&#45;&gt;Node30 -->
<g id="edge32" class="edge">
<title>Node13&#45;&gt;Node30</title>
<path fill="none" stroke="midnightblue" d="M1858.82,-140.52C2144.35,-131.9 3073.06,-102.94 3206.5,-87 3218.15,-85.61 3230.72,-83.34 3242.05,-81.01"/>
<polygon fill="midnightblue" stroke="midnightblue" points="1858.42,-137.03 1848.53,-140.83 1858.63,-144.02 1858.42,-137.03"/>
</g>
<!-- Node31 -->
<g id="node31" class="node">
<title>Node31</title>
<g id="a_node31"><a xlink:href="d__save__HIO_8cpp.html" target="_top" xlink:title=" ">
<polygon fill="white" stroke="black" points="2118,-56.5 2118,-86.5 2225,-86.5 2225,-56.5 2118,-56.5"/>
<text text-anchor="start" x="2126" y="-74.5" font-family="Helvetica,sans-Serif" font-size="10.00">src/d/d_save/d_save</text>
<text text-anchor="middle" x="2171.5" y="-63.5" font-family="Helvetica,sans-Serif" font-size="10.00">_HIO.cpp</text>
</a>
</g>
</g>
<!-- Node13&#45;&gt;Node31 -->
<g id="edge33" class="edge">
<title>Node13&#45;&gt;Node31</title>
<path fill="none" stroke="midnightblue" d="M1858.96,-130.38C1926.47,-119.83 2023.87,-103.84 2108.5,-87 2111.58,-86.39 2114.74,-85.73 2117.93,-85.06"/>
<polygon fill="midnightblue" stroke="midnightblue" points="1858.15,-126.96 1848.81,-131.96 1859.23,-133.88 1858.15,-126.96"/>
</g>
<!-- Node32 -->
<g id="node32" class="node">
<title>Node32</title>
<g id="a_node32"><a xlink:href="d__stage_8cpp.html" target="_top" xlink:title=" ">
<polygon fill="white" stroke="black" points="2243.5,-62 2243.5,-81 2337.5,-81 2337.5,-62 2243.5,-62"/>
<text text-anchor="middle" x="2290.5" y="-69" font-family="Helvetica,sans-Serif" font-size="10.00">src/d/d_stage.cpp</text>
</a>
</g>
</g>
<!-- Node13&#45;&gt;Node32 -->
<g id="edge34" class="edge">
<title>Node13&#45;&gt;Node32</title>
<path fill="none" stroke="midnightblue" d="M1858.62,-136.05C1950.76,-127.6 2103.54,-111.37 2233.5,-87 2242.13,-85.38 2251.4,-83.21 2259.89,-81.05"/>
<polygon fill="midnightblue" stroke="midnightblue" points="1858.16,-132.57 1848.52,-136.97 1858.8,-139.55 1858.16,-132.57"/>
</g>
<!-- Node33 -->
<g id="node33" class="node">
<title>Node33</title>
<g id="a_node33"><a xlink:href="f__op__actor__mng_8cpp.html" target="_top" xlink:title=" ">
<polygon fill="white" stroke="black" points="2356,-56.5 2356,-86.5 2463,-86.5 2463,-56.5 2356,-56.5"/>
<text text-anchor="start" x="2364" y="-74.5" font-family="Helvetica,sans-Serif" font-size="10.00">src/f/f_op/f_op_actor</text>
<text text-anchor="middle" x="2409.5" y="-63.5" font-family="Helvetica,sans-Serif" font-size="10.00">_mng.cpp</text>
</a>
</g>
</g>
<!-- Node13&#45;&gt;Node33 -->
<g id="edge35" class="edge">
<title>Node13&#45;&gt;Node33</title>
<path fill="none" stroke="midnightblue" d="M1859.08,-138.18C1970.73,-130.97 2174.43,-115.12 2346.5,-87 2349.6,-86.49 2352.78,-85.92 2355.98,-85.31"/>
<polygon fill="midnightblue" stroke="midnightblue" points="1858.66,-134.7 1848.9,-138.83 1859.1,-141.68 1858.66,-134.7"/>
</g>
<!-- Node34 -->
<g id="node34" class="node">
<title>Node34</title>
<g id="a_node34"><a xlink:href="f__op__camera_8cpp.html" target="_top" xlink:title=" ">
<polygon fill="white" stroke="black" points="2481,-62 2481,-81 2616,-81 2616,-62 2481,-62"/>
<text text-anchor="middle" x="2548.5" y="-69" font-family="Helvetica,sans-Serif" font-size="10.00">src/f/f_op/f_op_camera.cpp</text>
</a>
</g>
</g>
<!-- Node13&#45;&gt;Node34 -->
<g id="edge36" class="edge">
<title>Node13&#45;&gt;Node34</title>
<path fill="none" stroke="midnightblue" d="M1859.02,-139.14C1989.98,-132.45 2251.43,-116.49 2471.5,-87 2483.23,-85.43 2495.88,-83.25 2507.47,-81.06"/>
<polygon fill="midnightblue" stroke="midnightblue" points="1858.48,-135.66 1848.67,-139.67 1858.83,-142.66 1858.48,-135.66"/>
</g>
<!-- Node35 -->
<g id="node35" class="node">
<title>Node35</title>
<g id="a_node35"><a xlink:href="f__op__kankyo_8cpp.html" target="_top" xlink:title=" ">
<polygon fill="white" stroke="black" points="2634.5,-62 2634.5,-81 2768.5,-81 2768.5,-62 2634.5,-62"/>
<text text-anchor="middle" x="2701.5" y="-69" font-family="Helvetica,sans-Serif" font-size="10.00">src/f/f_op/f_op_kankyo.cpp</text>
</a>
</g>
</g>
<!-- Node13&#45;&gt;Node35 -->
<g id="edge37" class="edge">
<title>Node13&#45;&gt;Node35</title>
<path fill="none" stroke="midnightblue" d="M1858.97,-140.82C2011.52,-136.1 2345.33,-122.36 2624.5,-87 2636.51,-85.48 2649.48,-83.26 2661.28,-81.02"/>
<polygon fill="midnightblue" stroke="midnightblue" points="1858.64,-137.33 1848.75,-141.13 1858.85,-144.33 1858.64,-137.33"/>
</g>
<!-- Node36 -->
<g id="node36" class="node">
<title>Node36</title>
<g id="a_node36"><a xlink:href="f__op__kankyo__mng_8cpp.html" target="_top" xlink:title=" ">
<polygon fill="white" stroke="black" points="2786.5,-56.5 2786.5,-86.5 2902.5,-86.5 2902.5,-56.5 2786.5,-56.5"/>
<text text-anchor="start" x="2794.5" y="-74.5" font-family="Helvetica,sans-Serif" font-size="10.00">src/f/f_op/f_op_kankyo</text>
<text text-anchor="middle" x="2844.5" y="-63.5" font-family="Helvetica,sans-Serif" font-size="10.00">_mng.cpp</text>
</a>
</g>
</g>
<!-- Node13&#45;&gt;Node36 -->
<g id="edge38" class="edge">
<title>Node13&#45;&gt;Node36</title>
<path fill="none" stroke="midnightblue" d="M1858.81,-142.76C2031.13,-141.3 2438.93,-132.81 2777.5,-87 2780.45,-86.6 2783.46,-86.14 2786.49,-85.64"/>
<polygon fill="midnightblue" stroke="midnightblue" points="1858.77,-139.26 1848.79,-142.84 1858.82,-146.26 1858.77,-139.26"/>
</g>
<!-- Node56 -->
<g id="node38" class="node">
<title>Node56</title>
<g id="a_node38"><a xlink:href="J2DPane_8cpp.html" target="_top" xlink:title=" ">
<polygon fill="white" stroke="black" points="2489,-129 2489,-159 2608,-159 2608,-129 2489,-129"/>
<text text-anchor="start" x="2497" y="-147" font-family="Helvetica,sans-Serif" font-size="10.00">libs/JSystem/J2DGraph</text>
<text text-anchor="middle" x="2548.5" y="-136" font-family="Helvetica,sans-Serif" font-size="10.00">/J2DPane.cpp</text>
</a>
</g>
</g>
<!-- Node55&#45;&gt;Node56 -->
<g id="edge41" class="edge">
<title>Node55&#45;&gt;Node56</title>
<path fill="none" stroke="midnightblue" d="M2589.81,-193.54C2580.29,-182.36 2569,-169.08 2560.62,-159.25"/>
<polygon fill="midnightblue" stroke="midnightblue" points="2587.21,-195.89 2596.36,-201.23 2592.54,-191.35 2587.21,-195.89"/>
</g>
<!-- Node57&#45;&gt;Node2 -->
<g id="edge44" class="edge">
<title>Node57&#45;&gt;Node2</title>
<path fill="none" stroke="midnightblue" d="M2893.59,-200.88C3014.14,-184.57 3047.41,-190.46 3162.5,-165 3169.89,-163.37 3177.65,-161.27 3185.12,-159.06"/>
<polygon fill="midnightblue" stroke="midnightblue" points="2893.03,-197.42 2883.6,-202.25 2893.99,-204.36 2893.03,-197.42"/>
</g>
<!-- Node58 -->
<g id="node40" class="node">
<title>Node58</title>
<g id="a_node40"><a xlink:href="JKRAramArchive_8cpp.html" target="_top" xlink:title=" ">
<polygon fill="white" stroke="black" points="2779,-129 2779,-159 2892,-159 2892,-129 2779,-129"/>
<text text-anchor="start" x="2787" y="-147" font-family="Helvetica,sans-Serif" font-size="10.00">libs/JSystem/JKernel</text>
<text text-anchor="middle" x="2835.5" y="-136" font-family="Helvetica,sans-Serif" font-size="10.00">/JKRAramArchive.cpp</text>
</a>
</g>
</g>
<!-- Node57&#45;&gt;Node58 -->
<g id="edge43" class="edge">
<title>Node57&#45;&gt;Node58</title>
<path fill="none" stroke="midnightblue" d="M2807.17,-192.56C2813.7,-181.59 2821.32,-168.8 2827.01,-159.25"/>
<polygon fill="midnightblue" stroke="midnightblue" points="2804.11,-190.85 2802,-201.23 2810.12,-194.43 2804.11,-190.85"/>
</g>
<!-- Node59 -->
<g id="node41" class="node">
<title>Node59</title>
<g id="a_node41"><a xlink:href="d__lib_8h.html" target="_top" xlink:title=" ">
<polygon fill="white" stroke="red" points="2910.5,-134.5 2910.5,-153.5 3020.5,-153.5 3020.5,-134.5 2910.5,-134.5"/>
<text text-anchor="middle" x="2965.5" y="-141.5" font-family="Helvetica,sans-Serif" font-size="10.00">include/d/d_lib/d_lib.h</text>
</a>
</g>
</g>
<!-- Node57&#45;&gt;Node59 -->
<g id="edge45" class="edge">
<title>Node57&#45;&gt;Node59</title>
<path fill="none" stroke="midnightblue" d="M2837.26,-197.56C2871.71,-183.44 2918.18,-164.4 2944.68,-153.53"/>
<polygon fill="midnightblue" stroke="midnightblue" points="2835.82,-194.37 2827.89,-201.4 2838.47,-200.85 2835.82,-194.37"/>
</g>
<!-- Node61 -->
<g id="node42" class="node">
<title>Node61</title>
<g id="a_node42"><a xlink:href="Z2AudioMgr_8h.html" target="_top" xlink:title=" ">
<polygon fill="white" stroke="red" points="2626,-129 2626,-159 2761,-159 2761,-129 2626,-129"/>
<text text-anchor="start" x="2634" y="-147" font-family="Helvetica,sans-Serif" font-size="10.00">include/Z2AudioLib</text>
<text text-anchor="middle" x="2693.5" y="-136" font-family="Helvetica,sans-Serif" font-size="10.00">/Z2AudioMgr/Z2AudioMgr.h</text>
</a>
</g>
</g>
<!-- Node57&#45;&gt;Node61 -->
<g id="edge46" class="edge">
<title>Node57&#45;&gt;Node61</title>
<path fill="none" stroke="midnightblue" d="M2765.03,-195.43C2748.52,-183.79 2728.14,-169.42 2713.37,-159"/>
<polygon fill="midnightblue" stroke="midnightblue" points="2763.07,-198.33 2773.26,-201.23 2767.11,-192.61 2763.07,-198.33"/>
</g>
<!-- Node61&#45;&gt;Node30 -->
<g id="edge47" class="edge">
<title>Node61&#45;&gt;Node30</title>
<path fill="none" stroke="midnightblue" d="M2751.81,-126.55C2757.76,-125.21 2763.73,-123.99 2769.5,-123 2961.58,-90.08 3013.54,-114.28 3206.5,-87 3217.61,-85.43 3229.59,-83.22 3240.53,-81.01"/>
<polygon fill="midnightblue" stroke="midnightblue" points="2750.79,-123.2 2741.87,-128.92 2752.41,-130.01 2750.79,-123.2"/>
</g>
<!-- Node70&#45;&gt;Node2 -->
<g id="edge49" class="edge">
<title>Node70&#45;&gt;Node2</title>
<path fill="none" stroke="midnightblue" d="M3051.41,-198.56C3083.97,-188.83 3125.56,-176.32 3162.5,-165 3168.73,-163.09 3175.3,-161.06 3181.76,-159.05"/>
<polygon fill="midnightblue" stroke="midnightblue" points="3050.19,-195.27 3041.61,-201.49 3052.2,-201.98 3050.19,-195.27"/>
</g>
<!-- Node71 -->
<g id="node44" class="node">
<title>Node71</title>
<g id="a_node44"><a xlink:href="JKRCompArchive_8cpp.html" target="_top" xlink:title=" ">
<polygon fill="white" stroke="black" points="3039,-129 3039,-159 3154,-159 3154,-129 3039,-129"/>
<text text-anchor="start" x="3047" y="-147" font-family="Helvetica,sans-Serif" font-size="10.00">libs/JSystem/JKernel</text>
<text text-anchor="middle" x="3096.5" y="-136" font-family="Helvetica,sans-Serif" font-size="10.00">/JKRCompArchive.cpp</text>
</a>
</g>
</g>
<!-- Node70&#45;&gt;Node71 -->
<g id="edge50" class="edge">
<title>Node70&#45;&gt;Node71</title>
<path fill="none" stroke="midnightblue" d="M3023.54,-195.43C3040.38,-183.79 3061.16,-169.42 3076.24,-159"/>
<polygon fill="midnightblue" stroke="midnightblue" points="3021.38,-192.67 3015.14,-201.23 3025.36,-198.43 3021.38,-192.67"/>
</g>
<!-- Node72&#45;&gt;Node2 -->
<g id="edge52" class="edge">
<title>Node72&#45;&gt;Node2</title>
<path fill="none" stroke="midnightblue" d="M3226.5,-191.23C3226.5,-180.57 3226.5,-168.41 3226.5,-159.25"/>
<polygon fill="midnightblue" stroke="midnightblue" points="3223,-191.23 3226.5,-201.23 3230,-191.23 3223,-191.23"/>
</g>
<!-- Node73 -->
<g id="node46" class="node">
<title>Node73</title>
<g id="a_node46"><a xlink:href="JKRDvdArchive_8cpp.html" target="_top" xlink:title=" ">
<polygon fill="white" stroke="black" points="3299,-129 3299,-159 3408,-159 3408,-129 3299,-129"/>
<text text-anchor="start" x="3307" y="-147" font-family="Helvetica,sans-Serif" font-size="10.00">libs/JSystem/JKernel</text>
<text text-anchor="middle" x="3353.5" y="-136" font-family="Helvetica,sans-Serif" font-size="10.00">/JKRDvdArchive.cpp</text>
</a>
</g>
</g>
<!-- Node72&#45;&gt;Node73 -->
<g id="edge53" class="edge">
<title>Node72&#45;&gt;Node73</title>
<path fill="none" stroke="midnightblue" d="M3260.91,-196.4C3282.12,-184.62 3308.87,-169.78 3328.15,-159.07"/>
<polygon fill="midnightblue" stroke="midnightblue" points="3258.94,-193.49 3251.9,-201.4 3262.34,-199.61 3258.94,-193.49"/>
</g>
<!-- Node74&#45;&gt;Node2 -->
<g id="edge55" class="edge">
<title>Node74&#45;&gt;Node2</title>
<path fill="none" stroke="midnightblue" d="M3483.6,-199.94C3413.41,-188.61 3325.53,-173.78 3289.5,-165 3282.48,-163.29 3275.09,-161.21 3267.95,-159.04"/>
<polygon fill="midnightblue" stroke="midnightblue" points="3483.39,-203.45 3493.81,-201.58 3484.5,-196.54 3483.39,-203.45"/>
</g>
<!-- Node75 -->
<g id="node48" class="node">
<title>Node75</title>
<g id="a_node48"><a xlink:href="JKRMemArchive_8cpp.html" target="_top" xlink:title=" ">
<polygon fill="white" stroke="black" points="3527,-129 3527,-159 3638,-159 3638,-129 3527,-129"/>
<text text-anchor="start" x="3535" y="-147" font-family="Helvetica,sans-Serif" font-size="10.00">libs/JSystem/JKernel</text>
<text text-anchor="middle" x="3582.5" y="-136" font-family="Helvetica,sans-Serif" font-size="10.00">/JKRMemArchive.cpp</text>
</a>
</g>
</g>
<!-- Node74&#45;&gt;Node75 -->
<g id="edge56" class="edge">
<title>Node74&#45;&gt;Node75</title>
<path fill="none" stroke="midnightblue" d="M3582.5,-191.23C3582.5,-180.57 3582.5,-168.41 3582.5,-159.25"/>
<polygon fill="midnightblue" stroke="midnightblue" points="3579,-191.23 3582.5,-201.23 3586,-191.23 3579,-191.23"/>
</g>
<!-- Node77 -->
<g id="node50" class="node">
<title>Node77</title>
<g id="a_node50"><a xlink:href="JKRFileCache_8cpp.html" target="_top" xlink:title=" ">
<polygon fill="white" stroke="black" points="3689,-201.5 3689,-231.5 3798,-231.5 3798,-201.5 3689,-201.5"/>
<text text-anchor="start" x="3697" y="-219.5" font-family="Helvetica,sans-Serif" font-size="10.00">libs/JSystem/JKernel</text>
<text text-anchor="middle" x="3743.5" y="-208.5" font-family="Helvetica,sans-Serif" font-size="10.00">/JKRFileCache.cpp</text>
</a>
</g>
</g>
<!-- Node76&#45;&gt;Node77 -->
<g id="edge58" class="edge">
<title>Node76&#45;&gt;Node77</title>
<path fill="none" stroke="midnightblue" d="M3684.4,-262.17C3697.55,-252.23 3713.05,-240.51 3724.88,-231.58"/>
<polygon fill="midnightblue" stroke="midnightblue" points="3682.03,-259.57 3676.16,-268.4 3686.25,-265.16 3682.03,-259.57"/>
</g>
</g>
</svg>
