<?xml version="1.0" encoding="UTF-8" standalone="no"?>
<!DOCTYPE svg PUBLIC "-//W3C//DTD SVG 1.1//EN"
 "http://www.w3.org/Graphics/SVG/1.1/DTD/svg11.dtd">
<!-- Generated by graphviz version 2.46.1 (20210215.1649)
 -->
<!-- Title: libs/JSystem/JKernel/JKRFileLoader.cpp Pages: 1 -->
<!--zoomable 486 -->
<svg id="main" version="1.1" xmlns="http://www.w3.org/2000/svg" xmlns:xlink="http://www.w3.org/1999/xlink" xml:space="preserve" onload="init(evt)">
<style type="text/css"><![CDATA[
.edge:hover path { stroke: red; }
.edge:hover polygon { stroke: red; fill: red; }
]]></style>
<script type="text/javascript"><![CDATA[
var edges = document.getElementsByTagName('g');
if (edges && edges.length) {
  for (var i=0;i<edges.length;i++) {
    if (edges[i].id.substr(0,4)=='edge') {
      edges[i].setAttribute('class','edge');
    }
  }
}
]]></script>
        <defs>
                <circle id="rim" cx="0" cy="0" r="7"/>
                <circle id="rim2" cx="0" cy="0" r="3.5"/>
                <g id="zoomPlus">
                        <use xlink:href="#rim" fill="#404040">
                                <set attributeName="fill" to="#808080" begin="zoomplus.mouseover" end="zoomplus.mouseout"/>
                        </use>
                        <path d="M-4,0h8M0,-4v8" fill="none" stroke="white" stroke-width="1.5" pointer-events="none"/>
                </g>
                <g id="zoomMin">
                        <use xlink:href="#rim" fill="#404040">
                                <set attributeName="fill" to="#808080" begin="zoomminus.mouseover" end="zoomminus.mouseout"/>
                        </use>
                        <path d="M-4,0h8" fill="none" stroke="white" stroke-width="1.5" pointer-events="none"/>
                </g>
                <g id="dirArrow">
                        <path fill="none" stroke="white" stroke-width="1.5" d="M0,-3.0v7 M-2.5,-0.5L0,-3.0L2.5,-0.5"/>
                </g>
               <g id="resetDef">
                       <use xlink:href="#rim2" fill="#404040">
                               <set attributeName="fill" to="#808080" begin="reset.mouseover" end="reset.mouseout"/>
                       </use>
               </g>
        </defs>

<script type="text/javascript">
var viewWidth = 786;
var viewHeight = 486;
var sectionId = 'dynsection-0';
</script>
<script xlink:href="svgpan.js"/>
<svg id="graph" class="graph">
<g id="viewport">
<title>libs/JSystem/JKernel/JKRFileLoader.cpp</title>
<polygon fill="white" stroke="transparent" points="-4,4 -4,-482 781.5,-482 781.5,4 -4,4"/>
<!-- Node1 -->
<g id="node1" class="node">
<title>Node1</title>
<g id="a_node1"><a xlink:title=" ">
<polygon fill="#bfbfbf" stroke="black" points="510.5,-447.5 510.5,-477.5 619.5,-477.5 619.5,-447.5 510.5,-447.5"/>
<text text-anchor="start" x="518.5" y="-465.5" font-family="Helvetica,sans-Serif" font-size="10.00">libs/JSystem/JKernel</text>
<text text-anchor="middle" x="565" y="-454.5" font-family="Helvetica,sans-Serif" font-size="10.00">/JKRFileLoader.cpp</text>
</a>
</g>
</g>
<!-- Node2 -->
<g id="node2" class="node">
<title>Node2</title>
<g id="a_node2"><a xlink:href="JKRFileLoader_8h.html" target="_top" xlink:title=" ">
<polygon fill="white" stroke="black" points="0,-190.5 0,-220.5 158,-220.5 158,-190.5 0,-190.5"/>
<text text-anchor="start" x="8" y="-208.5" font-family="Helvetica,sans-Serif" font-size="10.00">JSystem/JKernel/JKRFileLoader</text>
<text text-anchor="middle" x="79" y="-197.5" font-family="Helvetica,sans-Serif" font-size="10.00">/JKRFileLoader.h</text>
</a>
</g>
</g>
<!-- Node1&#45;&gt;Node2 -->
<g id="edge1" class="edge">
<title>Node1&#45;&gt;Node2</title>
<path fill="none" stroke="midnightblue" d="M528.77,-447.46C460.6,-420.43 309.46,-357.68 191,-288 159.57,-269.51 126.08,-244.33 104,-226.88"/>
<polygon fill="midnightblue" stroke="midnightblue" points="106.12,-224.09 96.12,-220.59 101.76,-229.56 106.12,-224.09"/>
</g>
<!-- Node6 -->
<g id="node6" class="node">
<title>Node6</title>
<g id="a_node6"><a xlink:href="global_8h.html" target="_top" xlink:title=" ">
<polygon fill="white" stroke="black" points="540,-386 540,-405 590,-405 590,-386 540,-386"/>
<text text-anchor="middle" x="565" y="-393" font-family="Helvetica,sans-Serif" font-size="10.00">global.h</text>
</a>
</g>
</g>
<!-- Node1&#45;&gt;Node6 -->
<g id="edge7" class="edge">
<title>Node1&#45;&gt;Node6</title>
<path fill="none" stroke="midnightblue" d="M565,-447.4C565,-438.06 565,-425.71 565,-415.52"/>
<polygon fill="midnightblue" stroke="midnightblue" points="568.5,-415.19 565,-405.19 561.5,-415.19 568.5,-415.19"/>
</g>
<!-- Node17 -->
<g id="node17" class="node">
<title>Node17</title>
<g id="a_node17"><a xlink:title=" ">
<polygon fill="white" stroke="#bfbfbf" points="608,-380.5 608,-410.5 766,-410.5 766,-380.5 608,-380.5"/>
<text text-anchor="start" x="616" y="-398.5" font-family="Helvetica,sans-Serif" font-size="10.00">JSystem/JKernel/JKRFileLoader</text>
<text text-anchor="middle" x="687" y="-387.5" font-family="Helvetica,sans-Serif" font-size="10.00">/asm/func_802D44C4.s</text>
</a>
</g>
</g>
<!-- Node1&#45;&gt;Node17 -->
<g id="edge30" class="edge">
<title>Node1&#45;&gt;Node17</title>
<path fill="none" stroke="midnightblue" d="M591.47,-447.4C609.06,-438.03 632.35,-425.62 651.54,-415.39"/>
<polygon fill="midnightblue" stroke="midnightblue" points="653.4,-418.37 660.58,-410.58 650.11,-412.19 653.4,-418.37"/>
</g>
<!-- Node3 -->
<g id="node3" class="node">
<title>Node3</title>
<g id="a_node3"><a xlink:href="JKRDisposer_8h.html" target="_top" xlink:title=" ">
<polygon fill="white" stroke="black" points="252.5,-123.5 252.5,-153.5 403.5,-153.5 403.5,-123.5 252.5,-123.5"/>
<text text-anchor="start" x="260.5" y="-141.5" font-family="Helvetica,sans-Serif" font-size="10.00">JSystem/JKernel/JKRDisposer</text>
<text text-anchor="middle" x="328" y="-130.5" font-family="Helvetica,sans-Serif" font-size="10.00">/JKRDisposer.h</text>
</a>
</g>
</g>
<!-- Node2&#45;&gt;Node3 -->
<g id="edge2" class="edge">
<title>Node2&#45;&gt;Node3</title>
<path fill="none" stroke="midnightblue" d="M132.72,-190.48C171.29,-180.41 223.42,-166.8 264.12,-156.17"/>
<polygon fill="midnightblue" stroke="midnightblue" points="265.15,-159.52 273.94,-153.61 263.38,-152.75 265.15,-159.52"/>
</g>
<!-- Node5 -->
<g id="node5" class="node">
<title>Node5</title>
<g id="a_node5"><a xlink:href="types_8h.html" target="_top" xlink:title=" ">
<polygon fill="white" stroke="black" points="442.5,-0.5 442.5,-19.5 523.5,-19.5 523.5,-0.5 442.5,-0.5"/>
<text text-anchor="middle" x="483" y="-7.5" font-family="Helvetica,sans-Serif" font-size="10.00">dolphin/types.h</text>
</a>
</g>
</g>
<!-- Node2&#45;&gt;Node5 -->
<g id="edge6" class="edge">
<title>Node2&#45;&gt;Node5</title>
<path fill="none" stroke="midnightblue" d="M83.39,-190.15C93.5,-159.73 121.54,-88.88 172,-56 213.85,-28.73 354.98,-17.45 431.93,-13.23"/>
<polygon fill="midnightblue" stroke="midnightblue" points="432.54,-16.71 442.35,-12.68 432.17,-9.72 432.54,-16.71"/>
</g>
<!-- Node4 -->
<g id="node4" class="node">
<title>Node4</title>
<g id="a_node4"><a xlink:href="JSUList_8h.html" target="_top" xlink:title=" ">
<polygon fill="white" stroke="black" points="290,-56.5 290,-86.5 426,-86.5 426,-56.5 290,-56.5"/>
<text text-anchor="start" x="298" y="-74.5" font-family="Helvetica,sans-Serif" font-size="10.00">JSystem/JSupport/JSUList</text>
<text text-anchor="middle" x="358" y="-63.5" font-family="Helvetica,sans-Serif" font-size="10.00">/JSUList.h</text>
</a>
</g>
</g>
<!-- Node3&#45;&gt;Node4 -->
<g id="edge3" class="edge">
<title>Node3&#45;&gt;Node4</title>
<path fill="none" stroke="midnightblue" d="M334.51,-123.4C338.24,-115.3 343.03,-104.94 347.3,-95.69"/>
<polygon fill="midnightblue" stroke="midnightblue" points="350.49,-97.12 351.5,-86.58 344.13,-94.19 350.49,-97.12"/>
</g>
<!-- Node3&#45;&gt;Node5 -->
<g id="edge5" class="edge">
<title>Node3&#45;&gt;Node5</title>
<path fill="none" stroke="midnightblue" d="M309.77,-123.42C290.06,-106.5 263.63,-77.66 281,-56 299.63,-32.76 378.87,-20.75 432.39,-15.17"/>
<polygon fill="midnightblue" stroke="midnightblue" points="432.79,-18.64 442.4,-14.17 432.1,-11.68 432.79,-18.64"/>
</g>
<!-- Node4&#45;&gt;Node5 -->
<g id="edge4" class="edge">
<title>Node4&#45;&gt;Node5</title>
<path fill="none" stroke="midnightblue" d="M387.62,-56.4C408.22,-46.59 435.48,-33.62 455.58,-24.05"/>
<polygon fill="midnightblue" stroke="midnightblue" points="457.29,-27.12 464.81,-19.66 454.28,-20.8 457.29,-27.12"/>
</g>
<!-- Node6&#45;&gt;Node5 -->
<g id="edge8" class="edge">
<title>Node6&#45;&gt;Node5</title>
<path fill="none" stroke="midnightblue" d="M562.67,-385.77C557.6,-365.96 546,-316.03 546,-273.5 546,-273.5 546,-273.5 546,-204.5 546,-138.45 583.46,-114.08 552,-56 544.25,-41.7 529.77,-31.22 516.06,-23.99"/>
<polygon fill="midnightblue" stroke="midnightblue" points="517.31,-20.71 506.79,-19.5 514.26,-27.01 517.31,-20.71"/>
</g>
<!-- Node7 -->
<g id="node7" class="node">
<title>Node7</title>
<g id="a_node7"><a xlink:href="AR_8h.html" target="_top" xlink:title=" ">
<polygon fill="white" stroke="black" points="574.5,-129 574.5,-148 623.5,-148 623.5,-129 574.5,-129"/>
<text text-anchor="middle" x="599" y="-136" font-family="Helvetica,sans-Serif" font-size="10.00">ar/AR.h</text>
</a>
</g>
</g>
<!-- Node6&#45;&gt;Node7 -->
<g id="edge9" class="edge">
<title>Node6&#45;&gt;Node7</title>
<path fill="none" stroke="midnightblue" d="M566.17,-385.72C571.03,-349.25 589.71,-209.18 596.51,-158.2"/>
<polygon fill="midnightblue" stroke="midnightblue" points="599.98,-158.62 597.83,-148.24 593.04,-157.69 599.98,-158.62"/>
</g>
<!-- Node8 -->
<g id="node8" class="node">
<title>Node8</title>
<g id="a_node8"><a xlink:href="ARQ_8h.html" target="_top" xlink:title=" ">
<polygon fill="white" stroke="black" points="618,-263 618,-282 674,-282 674,-263 618,-263"/>
<text text-anchor="middle" x="646" y="-270" font-family="Helvetica,sans-Serif" font-size="10.00">ar/ARQ.h</text>
</a>
</g>
</g>
<!-- Node6&#45;&gt;Node8 -->
<g id="edge11" class="edge">
<title>Node6&#45;&gt;Node8</title>
<path fill="none" stroke="midnightblue" d="M570.83,-385.8C584.14,-365.91 616.98,-316.85 634.52,-290.65"/>
<polygon fill="midnightblue" stroke="midnightblue" points="637.57,-292.38 640.23,-282.12 631.76,-288.49 637.57,-292.38"/>
</g>
<!-- Node9 -->
<g id="node9" class="node">
<title>Node9</title>
<g id="a_node9"><a xlink:href="mwcc_8h.html" target="_top" xlink:title=" ">
<polygon fill="white" stroke="black" points="650,-324.5 650,-343.5 700,-343.5 700,-324.5 650,-324.5"/>
<text text-anchor="middle" x="675" y="-331.5" font-family="Helvetica,sans-Serif" font-size="10.00">mwcc.h</text>
</a>
</g>
</g>
<!-- Node6&#45;&gt;Node9 -->
<g id="edge13" class="edge">
<title>Node6&#45;&gt;Node9</title>
<path fill="none" stroke="midnightblue" d="M580.76,-385.98C598.98,-376.12 629.17,-359.79 650.47,-348.27"/>
<polygon fill="midnightblue" stroke="midnightblue" points="652.14,-351.35 659.27,-343.51 648.81,-345.19 652.14,-351.35"/>
</g>
<!-- Node10 -->
<g id="node10" class="node">
<title>Node10</title>
<g id="a_node10"><a xlink:href="OS_8h.html" target="_top" xlink:title=" ">
<polygon fill="white" stroke="black" points="702,-129 702,-148 754,-148 754,-129 702,-129"/>
<text text-anchor="middle" x="728" y="-136" font-family="Helvetica,sans-Serif" font-size="10.00">os/OS.h</text>
</a>
</g>
</g>
<!-- Node6&#45;&gt;Node10 -->
<g id="edge14" class="edge">
<title>Node6&#45;&gt;Node10</title>
<path fill="none" stroke="midnightblue" d="M584.3,-385.93C589.07,-383.9 594.19,-381.81 599,-380 647.15,-361.89 676.91,-384.21 709,-344 752.93,-288.96 740.38,-197.12 732.36,-158.03"/>
<polygon fill="midnightblue" stroke="midnightblue" points="735.74,-157.1 730.17,-148.08 728.9,-158.6 735.74,-157.1"/>
</g>
<!-- Node12 -->
<g id="node12" class="node">
<title>Node12</title>
<g id="a_node12"><a xlink:href="variables_8h.html" target="_top" xlink:title=" ">
<polygon fill="white" stroke="black" points="446.5,-324.5 446.5,-343.5 509.5,-343.5 509.5,-324.5 446.5,-324.5"/>
<text text-anchor="middle" x="478" y="-331.5" font-family="Helvetica,sans-Serif" font-size="10.00">variables.h</text>
</a>
</g>
</g>
<!-- Node6&#45;&gt;Node12 -->
<g id="edge18" class="edge">
<title>Node6&#45;&gt;Node12</title>
<path fill="none" stroke="midnightblue" d="M552.54,-385.98C538.58,-376.43 515.74,-360.81 499.01,-349.37"/>
<polygon fill="midnightblue" stroke="midnightblue" points="500.67,-346.27 490.44,-343.51 496.72,-352.04 500.67,-346.27"/>
</g>
<!-- Node7&#45;&gt;Node5 -->
<g id="edge10" class="edge">
<title>Node7&#45;&gt;Node5</title>
<path fill="none" stroke="midnightblue" d="M600.13,-128.85C601.73,-112.72 602.84,-77.76 586,-56 573.03,-39.23 552.51,-28.59 533.2,-21.9"/>
<polygon fill="midnightblue" stroke="midnightblue" points="534.14,-18.53 523.55,-18.83 532.02,-25.2 534.14,-18.53"/>
</g>
<!-- Node8&#45;&gt;Node5 -->
<g id="edge12" class="edge">
<title>Node8&#45;&gt;Node5</title>
<path fill="none" stroke="midnightblue" d="M647.5,-262.97C652.64,-230.65 666.14,-114.61 607,-56 587.34,-36.52 558.61,-25.4 533.75,-19.09"/>
<polygon fill="midnightblue" stroke="midnightblue" points="534.27,-15.62 523.73,-16.75 532.67,-22.44 534.27,-15.62"/>
</g>
<!-- Node10&#45;&gt;Node5 -->
<g id="edge15" class="edge">
<title>Node10&#45;&gt;Node5</title>
<path fill="none" stroke="midnightblue" d="M723.93,-128.8C715.57,-111.97 694.83,-74.92 666,-56 626.2,-29.88 572.53,-18.92 533.61,-14.32"/>
<polygon fill="midnightblue" stroke="midnightblue" points="533.87,-10.82 523.55,-13.23 533.12,-17.78 533.87,-10.82"/>
</g>
<!-- Node11 -->
<g id="node11" class="node">
<title>Node11</title>
<g id="a_node11"><a xlink:href="dvd_8h.html" target="_top" xlink:title=" ">
<polygon fill="white" stroke="black" points="718.5,-62 718.5,-81 777.5,-81 777.5,-62 718.5,-62"/>
<text text-anchor="middle" x="748" y="-69" font-family="Helvetica,sans-Serif" font-size="10.00">dvd/dvd.h</text>
</a>
</g>
</g>
<!-- Node10&#45;&gt;Node11 -->
<g id="edge16" class="edge">
<title>Node10&#45;&gt;Node11</title>
<path fill="none" stroke="midnightblue" d="M730.7,-128.73C733.67,-119.09 738.52,-103.3 742.34,-90.91"/>
<polygon fill="midnightblue" stroke="midnightblue" points="745.75,-91.71 745.35,-81.13 739.06,-89.66 745.75,-91.71"/>
</g>
<!-- Node11&#45;&gt;Node5 -->
<g id="edge17" class="edge">
<title>Node11&#45;&gt;Node5</title>
<path fill="none" stroke="midnightblue" d="M723.49,-61.86C717.18,-59.79 710.37,-57.69 704,-56 646.25,-40.66 578.81,-27.62 533.76,-19.58"/>
<polygon fill="midnightblue" stroke="midnightblue" points="534.11,-16.09 523.66,-17.8 532.9,-22.99 534.11,-16.09"/>
</g>
<!-- Node12&#45;&gt;Node4 -->
<g id="edge19" class="edge">
<title>Node12&#45;&gt;Node4</title>
<path fill="none" stroke="midnightblue" d="M476.89,-324.34C472.73,-294.33 455.97,-192.86 412,-123 405,-111.88 394.97,-101.58 385.45,-93.22"/>
<polygon fill="midnightblue" stroke="midnightblue" points="387.56,-90.43 377.65,-86.68 383.06,-95.79 387.56,-90.43"/>
</g>
<!-- Node13 -->
<g id="node13" class="node">
<title>Node13</title>
<g id="a_node13"><a xlink:href="JUTXfb_8h.html" target="_top" xlink:title=" ">
<polygon fill="white" stroke="black" points="200.5,-257.5 200.5,-287.5 325.5,-287.5 325.5,-257.5 200.5,-257.5"/>
<text text-anchor="start" x="208.5" y="-275.5" font-family="Helvetica,sans-Serif" font-size="10.00">JSystem/JUtility/JUTXfb</text>
<text text-anchor="middle" x="263" y="-264.5" font-family="Helvetica,sans-Serif" font-size="10.00">/JUTXfb.h</text>
</a>
</g>
</g>
<!-- Node12&#45;&gt;Node13 -->
<g id="edge20" class="edge">
<title>Node12&#45;&gt;Node13</title>
<path fill="none" stroke="midnightblue" d="M447.2,-324.48C415.02,-315.57 363.7,-301.37 323.4,-290.22"/>
<polygon fill="midnightblue" stroke="midnightblue" points="324.24,-286.82 313.67,-287.52 322.38,-293.56 324.24,-286.82"/>
</g>
<!-- Node16 -->
<g id="node16" class="node">
<title>Node16</title>
<g id="a_node16"><a xlink:href="mtx__vec_8h.html" target="_top" xlink:title=" ">
<polygon fill="white" stroke="black" points="482.5,-62 482.5,-81 543.5,-81 543.5,-62 482.5,-62"/>
<text text-anchor="middle" x="513" y="-69" font-family="Helvetica,sans-Serif" font-size="10.00">mtx_vec.h</text>
</a>
</g>
</g>
<!-- Node12&#45;&gt;Node16 -->
<g id="edge28" class="edge">
<title>Node12&#45;&gt;Node16</title>
<path fill="none" stroke="midnightblue" d="M479.16,-324.33C484.12,-287.48 503.48,-143.33 510.47,-91.33"/>
<polygon fill="midnightblue" stroke="midnightblue" points="513.97,-91.58 511.83,-81.2 507.03,-90.64 513.97,-91.58"/>
</g>
<!-- Node13&#45;&gt;Node5 -->
<g id="edge25" class="edge">
<title>Node13&#45;&gt;Node5</title>
<path fill="none" stroke="midnightblue" d="M238.41,-257.29C225.91,-248.59 211.91,-236.19 205,-221 181.46,-169.29 198.28,-98.77 246,-56 272.83,-31.95 370.64,-19.9 431.91,-14.59"/>
<polygon fill="midnightblue" stroke="midnightblue" points="432.48,-18.05 442.15,-13.73 431.9,-11.08 432.48,-18.05"/>
</g>
<!-- Node14 -->
<g id="node14" class="node">
<title>Node14</title>
<g id="a_node14"><a xlink:href="JKRHeap_8h.html" target="_top" xlink:title=" ">
<polygon fill="white" stroke="black" points="284,-190.5 284,-220.5 420,-220.5 420,-190.5 284,-190.5"/>
<text text-anchor="start" x="292" y="-208.5" font-family="Helvetica,sans-Serif" font-size="10.00">JSystem/JKernel/JKRHeap</text>
<text text-anchor="middle" x="352" y="-197.5" font-family="Helvetica,sans-Serif" font-size="10.00">/JKRHeap.h</text>
</a>
</g>
</g>
<!-- Node13&#45;&gt;Node14 -->
<g id="edge21" class="edge">
<title>Node13&#45;&gt;Node14</title>
<path fill="none" stroke="midnightblue" d="M282.31,-257.4C294.67,-248.37 310.9,-236.51 324.59,-226.52"/>
<polygon fill="midnightblue" stroke="midnightblue" points="326.71,-229.3 332.73,-220.58 322.59,-223.65 326.71,-229.3"/>
</g>
<!-- Node15 -->
<g id="node15" class="node">
<title>Node15</title>
<g id="a_node15"><a xlink:href="GX_8h.html" target="_top" xlink:title=" ">
<polygon fill="white" stroke="black" points="214.5,-196 214.5,-215 265.5,-215 265.5,-196 214.5,-196"/>
<text text-anchor="middle" x="240" y="-203" font-family="Helvetica,sans-Serif" font-size="10.00">gx/GX.h</text>
</a>
</g>
</g>
<!-- Node13&#45;&gt;Node15 -->
<g id="edge26" class="edge">
<title>Node13&#45;&gt;Node15</title>
<path fill="none" stroke="midnightblue" d="M258.01,-257.4C254.64,-247.86 250.15,-235.18 246.5,-224.86"/>
<polygon fill="midnightblue" stroke="midnightblue" points="249.71,-223.45 243.08,-215.19 243.11,-225.79 249.71,-223.45"/>
</g>
<!-- Node14&#45;&gt;Node3 -->
<g id="edge22" class="edge">
<title>Node14&#45;&gt;Node3</title>
<path fill="none" stroke="midnightblue" d="M346.79,-190.4C343.84,-182.39 340.06,-172.16 336.67,-162.98"/>
<polygon fill="midnightblue" stroke="midnightblue" points="339.94,-161.75 333.2,-153.58 333.38,-164.17 339.94,-161.75"/>
</g>
<!-- Node14&#45;&gt;Node5 -->
<g id="edge23" class="edge">
<title>Node14&#45;&gt;Node5</title>
<path fill="none" stroke="midnightblue" d="M372.78,-190.38C385.29,-181.12 400.9,-168.13 412,-154 443.43,-114 466.29,-57.84 476.71,-29.26"/>
<polygon fill="midnightblue" stroke="midnightblue" points="480.04,-30.35 480.09,-19.75 473.44,-28.01 480.04,-30.35"/>
</g>
<!-- Node14&#45;&gt;Node6 -->
<g id="edge24" class="edge">
<title>Node14&#45;&gt;Node6</title>
<path fill="none" stroke="midnightblue" d="M357.19,-220.64C367.96,-248.12 395.23,-309.07 437,-344 463.98,-366.56 502.25,-379.87 529.91,-387.11"/>
<polygon fill="midnightblue" stroke="midnightblue" points="529.39,-390.59 539.94,-389.6 531.08,-383.8 529.39,-390.59"/>
</g>
<!-- Node15&#45;&gt;Node5 -->
<g id="edge27" class="edge">
<title>Node15&#45;&gt;Node5</title>
<path fill="none" stroke="midnightblue" d="M238.68,-195.99C235.19,-170.02 228.74,-91.43 272,-56 296.09,-36.27 377.91,-23.18 432.3,-16.44"/>
<polygon fill="midnightblue" stroke="midnightblue" points="432.94,-19.88 442.45,-15.21 432.1,-12.93 432.94,-19.88"/>
</g>
<!-- Node16&#45;&gt;Node5 -->
<g id="edge29" class="edge">
<title>Node16&#45;&gt;Node5</title>
<path fill="none" stroke="midnightblue" d="M508.7,-61.98C504.34,-53.32 497.44,-39.65 491.9,-28.65"/>
<polygon fill="midnightblue" stroke="midnightblue" points="494.92,-26.86 487.29,-19.51 488.67,-30.01 494.92,-26.86"/>
</g>
</g>
</svg>
        <g id="navigator" transform="translate(0 0)" fill="#404254">
                <rect fill="#f2f5e9" fill-opacity="0.5" stroke="#606060" stroke-width=".5" x="0" y="0" width="60" height="60"/>
                <use id="zoomplus" xlink:href="#zoomPlus" x="17" y="9" onmousedown="handleZoom(evt,'in')"/>
                <use id="zoomminus" xlink:href="#zoomMin" x="42" y="9" onmousedown="handleZoom(evt,'out')"/>
                <use id="reset" xlink:href="#resetDef" x="30" y="36" onmousedown="handleReset()"/>
                <g id="arrowUp" xlink:href="#dirArrow" transform="translate(30 24)" onmousedown="handlePan(0,-1)">
                  <use xlink:href="#rim" fill="#404040">
                        <set attributeName="fill" to="#808080" begin="arrowUp.mouseover" end="arrowUp.mouseout"/>
                  </use>
                  <path fill="none" stroke="white" stroke-width="1.5" d="M0,-3.0v7 M-2.5,-0.5L0,-3.0L2.5,-0.5"/>
                </g>
                <g id="arrowRight" xlink:href="#dirArrow" transform="rotate(90) translate(36 -43)" onmousedown="handlePan(1,0)">
                  <use xlink:href="#rim" fill="#404040">
                        <set attributeName="fill" to="#808080" begin="arrowRight.mouseover" end="arrowRight.mouseout"/>
                  </use>
                  <path fill="none" stroke="white" stroke-width="1.5" d="M0,-3.0v7 M-2.5,-0.5L0,-3.0L2.5,-0.5"/>
                </g>
                <g id="arrowDown" xlink:href="#dirArrow" transform="rotate(180) translate(-30 -48)" onmousedown="handlePan(0,1)">
                  <use xlink:href="#rim" fill="#404040">
                        <set attributeName="fill" to="#808080" begin="arrowDown.mouseover" end="arrowDown.mouseout"/>
                  </use>
                  <path fill="none" stroke="white" stroke-width="1.5" d="M0,-3.0v7 M-2.5,-0.5L0,-3.0L2.5,-0.5"/>
                </g>
                <g id="arrowLeft" xlink:href="#dirArrow" transform="rotate(270) translate(-36 17)" onmousedown="handlePan(-1,0)">
                  <use xlink:href="#rim" fill="#404040">
                        <set attributeName="fill" to="#808080" begin="arrowLeft.mouseover" end="arrowLeft.mouseout"/>
                  </use>
                  <path fill="none" stroke="white" stroke-width="1.5" d="M0,-3.0v7 M-2.5,-0.5L0,-3.0L2.5,-0.5"/>
                </g>
        </g>
        <svg viewBox="0 0 15 15" width="100%" height="30px" preserveAspectRatio="xMaxYMin meet">
         <g id="arrow_out" transform="scale(0.3 0.3)">
          <a xlink:href="JKRFileLoader_8cpp__incl_org.svg" target="_base">
           <rect id="button" ry="5" rx="5" y="6" x="6" height="38" width="38"
                fill="#f2f5e9" fill-opacity="0.5" stroke="#606060" stroke-width="1.0"/>
           <path id="arrow"
             d="M 11.500037,31.436501 C 11.940474,20.09759 22.043105,11.32322 32.158766,21.979434 L 37.068811,17.246167 C 37.068811,17.246167 37.088388,32 37.088388,32 L 22.160133,31.978069 C 22.160133,31.978069 26.997745,27.140456 26.997745,27.140456 C 18.528582,18.264221 13.291696,25.230495 11.500037,31.436501 z"
             style="fill:#404040;"/>
          </a>
         </g>
        </svg>
</svg>
