<?xml version="1.0" encoding="UTF-8" standalone="no"?>
<!DOCTYPE svg PUBLIC "-//W3C//DTD SVG 1.1//EN"
 "http://www.w3.org/Graphics/SVG/1.1/DTD/svg11.dtd">
<!-- Generated by graphviz version 2.46.1 (20210215.1649)
 -->
<!-- Title: include/JSystem/JKernel/JKRFileFinder/JKRFileFinder.h Pages: 1 -->
<svg width="161pt" height="151pt"
 viewBox="0.00 0.00 161.00 151.00" xmlns="http://www.w3.org/2000/svg" xmlns:xlink="http://www.w3.org/1999/xlink">
<g id="graph0" class="graph" transform="scale(1 1) rotate(0) translate(4 147)">
<title>include/JSystem/JKernel/JKRFileFinder/JKRFileFinder.h</title>
<polygon fill="white" stroke="transparent" points="-4,4 -4,-147 157,-147 157,4 -4,4"/>
<!-- Node1 -->
<g id="node1" class="node">
<title>Node1</title>
<g id="a_node1"><a xlink:title=" ">
<polygon fill="#bfbfbf" stroke="black" points="0,-112.5 0,-142.5 153,-142.5 153,-112.5 0,-112.5"/>
<text text-anchor="start" x="8" y="-130.5" font-family="Helvetica,sans-Serif" font-size="10.00">include/JSystem/JKernel</text>
<text text-anchor="middle" x="76.5" y="-119.5" font-family="Helvetica,sans-Serif" font-size="10.00">/JKRFileFinder/JKRFileFinder.h</text>
</a>
</g>
</g>
<!-- Node2 -->
<g id="node2" class="node">
<title>Node2</title>
<g id="a_node2"><a xlink:href="types_8h.html" target="_top" xlink:title=" ">
<polygon fill="white" stroke="black" points="36,-0.5 36,-19.5 117,-19.5 117,-0.5 36,-0.5"/>
<text text-anchor="middle" x="76.5" y="-7.5" font-family="Helvetica,sans-Serif" font-size="10.00">dolphin/types.h</text>
</a>
</g>
</g>
<!-- Node1&#45;&gt;Node2 -->
<g id="edge1" class="edge">
<title>Node1&#45;&gt;Node2</title>
<path fill="none" stroke="midnightblue" d="M72.43,-112.49C68.79,-98.29 64.34,-75.66 66.5,-56 67.47,-47.14 69.49,-37.47 71.46,-29.38"/>
<polygon fill="midnightblue" stroke="midnightblue" points="74.89,-30.09 74.02,-19.53 68.12,-28.33 74.89,-30.09"/>
</g>
<!-- Node3 -->
<g id="node3" class="node">
<title>Node3</title>
<g id="a_node3"><a xlink:href="dvd_8h.html" target="_top" xlink:title=" ">
<polygon fill="white" stroke="black" points="76,-56.5 76,-75.5 135,-75.5 135,-56.5 76,-56.5"/>
<text text-anchor="middle" x="105.5" y="-63.5" font-family="Helvetica,sans-Serif" font-size="10.00">dvd/dvd.h</text>
</a>
</g>
</g>
<!-- Node1&#45;&gt;Node3 -->
<g id="edge2" class="edge">
<title>Node1&#45;&gt;Node3</title>
<path fill="none" stroke="midnightblue" d="M83.37,-112.4C87.41,-104.11 92.56,-93.55 96.87,-84.71"/>
<polygon fill="midnightblue" stroke="midnightblue" points="100.05,-86.18 101.28,-75.66 93.75,-83.11 100.05,-86.18"/>
</g>
<!-- Node3&#45;&gt;Node2 -->
<g id="edge3" class="edge">
<title>Node3&#45;&gt;Node2</title>
<path fill="none" stroke="midnightblue" d="M100.71,-56.08C96.74,-48.69 90.97,-37.95 86.07,-28.81"/>
<polygon fill="midnightblue" stroke="midnightblue" points="89.01,-26.91 81.2,-19.75 82.85,-30.22 89.01,-26.91"/>
</g>
</g>
</svg>
