<?xml version="1.0" encoding="UTF-8" standalone="no"?>
<!DOCTYPE svg PUBLIC "-//W3C//DTD SVG 1.1//EN"
 "http://www.w3.org/Graphics/SVG/1.1/DTD/svg11.dtd">
<!-- Generated by graphviz version 2.46.0 (20210122.1329)
 -->
<!-- Title: include/JSystem/JKernel/JKRFile/JKRFile.h Pages: 1 -->
<svg width="221pt" height="229pt"
 viewBox="0.00 0.00 220.50 229.00" xmlns="http://www.w3.org/2000/svg" xmlns:xlink="http://www.w3.org/1999/xlink">
<g id="graph0" class="graph" transform="scale(1 1) rotate(0) translate(4 225)">
<title>include/JSystem/JKernel/JKRFile/JKRFile.h</title>
<polygon fill="white" stroke="transparent" points="-4,4 -4,-225 216.5,-225 216.5,4 -4,4"/>
<!-- Node1 -->
<g id="node1" class="node">
<title>Node1</title>
<g id="a_node1"><a xlink:title=" ">
<polygon fill="#bfbfbf" stroke="black" points="87.5,-190.5 87.5,-220.5 212.5,-220.5 212.5,-190.5 87.5,-190.5"/>
<text text-anchor="start" x="95.5" y="-208.5" font-family="Helvetica,sans-Serif" font-size="10.00">include/JSystem/JKernel</text>
<text text-anchor="middle" x="150" y="-197.5" font-family="Helvetica,sans-Serif" font-size="10.00">/JKRFile/JKRFile.h</text>
</a>
</g>
</g>
<!-- Node2 -->
<g id="node2" class="node">
<title>Node2</title>
<g id="a_node2"><a xlink:href="JKRDisposer_8h.html" target="_top" xlink:title=" ">
<polygon fill="white" stroke="black" points="22.5,-123.5 22.5,-153.5 173.5,-153.5 173.5,-123.5 22.5,-123.5"/>
<text text-anchor="start" x="30.5" y="-141.5" font-family="Helvetica,sans-Serif" font-size="10.00">JSystem/JKernel/JKRDisposer</text>
<text text-anchor="middle" x="98" y="-130.5" font-family="Helvetica,sans-Serif" font-size="10.00">/JKRDisposer.h</text>
</a>
</g>
</g>
<!-- Node1&#45;&gt;Node2 -->
<g id="edge1" class="edge">
<title>Node1&#45;&gt;Node2</title>
<path fill="none" stroke="midnightblue" d="M138.72,-190.4C131.97,-181.96 123.25,-171.07 115.62,-161.52"/>
<polygon fill="midnightblue" stroke="midnightblue" points="118.24,-159.2 109.26,-153.58 112.78,-163.57 118.24,-159.2"/>
</g>
<!-- Node4 -->
<g id="node4" class="node">
<title>Node4</title>
<g id="a_node4"><a xlink:href="types_8h.html" target="_top" xlink:title=" ">
<polygon fill="white" stroke="black" points="123.5,-0.5 123.5,-19.5 204.5,-19.5 204.5,-0.5 123.5,-0.5"/>
<text text-anchor="middle" x="164" y="-7.5" font-family="Helvetica,sans-Serif" font-size="10.00">dolphin/types.h</text>
</a>
</g>
</g>
<!-- Node1&#45;&gt;Node4 -->
<g id="edge5" class="edge">
<title>Node1&#45;&gt;Node4</title>
<path fill="none" stroke="midnightblue" d="M162.24,-190.12C169.54,-180.57 178.12,-167.36 182,-154 194.68,-110.3 180.26,-56.52 170.85,-29.04"/>
<polygon fill="midnightblue" stroke="midnightblue" points="174.12,-27.79 167.44,-19.57 167.53,-30.16 174.12,-27.79"/>
</g>
<!-- Node3 -->
<g id="node3" class="node">
<title>Node3</title>
<g id="a_node3"><a xlink:href="JSUList_8h.html" target="_top" xlink:title=" ">
<polygon fill="white" stroke="black" points="0,-56.5 0,-86.5 136,-86.5 136,-56.5 0,-56.5"/>
<text text-anchor="start" x="8" y="-74.5" font-family="Helvetica,sans-Serif" font-size="10.00">JSystem/JSupport/JSUList</text>
<text text-anchor="middle" x="68" y="-63.5" font-family="Helvetica,sans-Serif" font-size="10.00">/JSUList.h</text>
</a>
</g>
</g>
<!-- Node2&#45;&gt;Node3 -->
<g id="edge2" class="edge">
<title>Node2&#45;&gt;Node3</title>
<path fill="none" stroke="midnightblue" d="M91.49,-123.4C87.76,-115.3 82.97,-104.94 78.7,-95.69"/>
<polygon fill="midnightblue" stroke="midnightblue" points="81.87,-94.19 74.5,-86.58 75.51,-97.12 81.87,-94.19"/>
</g>
<!-- Node2&#45;&gt;Node4 -->
<g id="edge4" class="edge">
<title>Node2&#45;&gt;Node4</title>
<path fill="none" stroke="midnightblue" d="M115.09,-123.21C125.2,-113.89 137.46,-100.9 145,-87 154.71,-69.11 159.56,-46.16 161.91,-30.18"/>
<polygon fill="midnightblue" stroke="midnightblue" points="165.43,-30.32 163.22,-19.95 158.48,-29.43 165.43,-30.32"/>
</g>
<!-- Node3&#45;&gt;Node4 -->
<g id="edge3" class="edge">
<title>Node3&#45;&gt;Node4</title>
<path fill="none" stroke="midnightblue" d="M90.75,-56.4C105.99,-46.95 125.99,-34.56 141.24,-25.11"/>
<polygon fill="midnightblue" stroke="midnightblue" points="143.38,-27.9 150.03,-19.66 139.69,-21.95 143.38,-27.9"/>
</g>
</g>
</svg>
