<?xml version="1.0" encoding="UTF-8" standalone="no"?>
<!DOCTYPE svg PUBLIC "-//W3C//DTD SVG 1.1//EN"
 "http://www.w3.org/Graphics/SVG/1.1/DTD/svg11.dtd">
<!-- Generated by graphviz version 2.46.0 (20210122.1329)
 -->
<!-- Title: libs/JSystem/JKernel/JKRMemArchive.cpp Pages: 1 -->
<!--zoomable 743 -->
<svg id="main" version="1.1" xmlns="http://www.w3.org/2000/svg" xmlns:xlink="http://www.w3.org/1999/xlink" xml:space="preserve" onload="init(evt)">
<style type="text/css"><![CDATA[
.edge:hover path { stroke: red; }
.edge:hover polygon { stroke: red; fill: red; }
]]></style>
<script type="text/javascript"><![CDATA[
var edges = document.getElementsByTagName('g');
if (edges && edges.length) {
  for (var i=0;i<edges.length;i++) {
    if (edges[i].id.substr(0,4)=='edge') {
      edges[i].setAttribute('class','edge');
    }
  }
}
]]></script>
        <defs>
                <circle id="rim" cx="0" cy="0" r="7"/>
                <circle id="rim2" cx="0" cy="0" r="3.5"/>
                <g id="zoomPlus">
                        <use xlink:href="#rim" fill="#404040">
                                <set attributeName="fill" to="#808080" begin="zoomplus.mouseover" end="zoomplus.mouseout"/>
                        </use>
                        <path d="M-4,0h8M0,-4v8" fill="none" stroke="white" stroke-width="1.5" pointer-events="none"/>
                </g>
                <g id="zoomMin">
                        <use xlink:href="#rim" fill="#404040">
                                <set attributeName="fill" to="#808080" begin="zoomminus.mouseover" end="zoomminus.mouseout"/>
                        </use>
                        <path d="M-4,0h8" fill="none" stroke="white" stroke-width="1.5" pointer-events="none"/>
                </g>
                <g id="dirArrow">
                        <path fill="none" stroke="white" stroke-width="1.5" d="M0,-3.0v7 M-2.5,-0.5L0,-3.0L2.5,-0.5"/>
                </g>
               <g id="resetDef">
                       <use xlink:href="#rim2" fill="#404040">
                               <set attributeName="fill" to="#808080" begin="reset.mouseover" end="reset.mouseout"/>
                       </use>
               </g>
        </defs>

<script type="text/javascript">
var viewWidth = 1582;
var viewHeight = 743;
var sectionId = 'dynsection-0';
</script>
<script xlink:href="svgpan.js"/>
<svg id="graph" class="graph">
<g id="viewport">
<title>libs/JSystem/JKernel/JKRMemArchive.cpp</title>
<polygon fill="white" stroke="transparent" points="-4,4 -4,-739 1577.5,-739 1577.5,4 -4,4"/>
<!-- Node1 -->
<g id="node1" class="node">
<title>Node1</title>
<g id="a_node1"><a xlink:title=" ">
<polygon fill="#bfbfbf" stroke="black" points="1138.5,-704.5 1138.5,-734.5 1249.5,-734.5 1249.5,-704.5 1138.5,-704.5"/>
<text text-anchor="start" x="1146.5" y="-722.5" font-family="Helvetica,sans-Serif" font-size="10.00">libs/JSystem/JKernel</text>
<text text-anchor="middle" x="1194" y="-711.5" font-family="Helvetica,sans-Serif" font-size="10.00">/JKRMemArchive.cpp</text>
</a>
</g>
</g>
<!-- Node2 -->
<g id="node2" class="node">
<title>Node2</title>
<g id="a_node2"><a xlink:href="JKRMemArchive_8h.html" target="_top" xlink:title=" ">
<polygon fill="white" stroke="black" points="121.5,-637.5 121.5,-667.5 288.5,-667.5 288.5,-637.5 121.5,-637.5"/>
<text text-anchor="start" x="129.5" y="-655.5" font-family="Helvetica,sans-Serif" font-size="10.00">JSystem/JKernel/JKRMemArchive</text>
<text text-anchor="middle" x="205" y="-644.5" font-family="Helvetica,sans-Serif" font-size="10.00">/JKRMemArchive.h</text>
</a>
</g>
</g>
<!-- Node1&#45;&gt;Node2 -->
<g id="edge1" class="edge">
<title>Node1&#45;&gt;Node2</title>
<path fill="none" stroke="midnightblue" d="M1138.35,-714.84C975.97,-704.17 501.44,-672.98 298.65,-659.66"/>
<polygon fill="midnightblue" stroke="midnightblue" points="298.83,-656.16 288.62,-659 298.37,-663.14 298.83,-656.16"/>
</g>
<!-- Node11 -->
<g id="node11" class="node">
<title>Node11</title>
<g id="a_node11"><a xlink:href="global_8h.html" target="_top" xlink:title=" ">
<polygon fill="white" stroke="black" points="965,-380.5 965,-399.5 1015,-399.5 1015,-380.5 965,-380.5"/>
<text text-anchor="middle" x="990" y="-387.5" font-family="Helvetica,sans-Serif" font-size="10.00">global.h</text>
</a>
</g>
</g>
<!-- Node1&#45;&gt;Node11 -->
<g id="edge51" class="edge">
<title>Node1&#45;&gt;Node11</title>
<path fill="none" stroke="midnightblue" d="M1194,-704.24C1194,-680.03 1194,-629.35 1194,-586.5 1194,-586.5 1194,-586.5 1194,-517.5 1194,-438.87 1083.19,-407.43 1024.91,-396.33"/>
<polygon fill="midnightblue" stroke="midnightblue" points="1025.48,-392.88 1015.01,-394.55 1024.23,-399.77 1025.48,-392.88"/>
</g>
<!-- Node25 -->
<g id="node25" class="node">
<title>Node25</title>
<g id="a_node25"><a xlink:href="JKRDvdRipper_8h.html" target="_top" xlink:title=" ">
<polygon fill="white" stroke="black" points="1008,-570.5 1008,-600.5 1166,-600.5 1166,-570.5 1008,-570.5"/>
<text text-anchor="start" x="1016" y="-588.5" font-family="Helvetica,sans-Serif" font-size="10.00">JSystem/JKernel/JKRDvdRipper</text>
<text text-anchor="middle" x="1087" y="-577.5" font-family="Helvetica,sans-Serif" font-size="10.00">/JKRDvdRipper.h</text>
</a>
</g>
</g>
<!-- Node1&#45;&gt;Node25 -->
<g id="edge48" class="edge">
<title>Node1&#45;&gt;Node25</title>
<path fill="none" stroke="midnightblue" d="M1182.55,-704.37C1163.89,-681.35 1126.78,-635.57 1104.7,-608.34"/>
<polygon fill="midnightblue" stroke="midnightblue" points="1107.38,-606.09 1098.37,-600.52 1101.95,-610.5 1107.38,-606.09"/>
</g>
<!-- Node26 -->
<g id="node26" class="node">
<title>Node26</title>
<g id="a_node26"><a xlink:title=" ">
<polygon fill="white" stroke="#bfbfbf" points="1221.5,-637.5 1221.5,-667.5 1388.5,-667.5 1388.5,-637.5 1221.5,-637.5"/>
<text text-anchor="start" x="1229.5" y="-655.5" font-family="Helvetica,sans-Serif" font-size="10.00">JSystem/JKernel/JKRMemArchive</text>
<text text-anchor="middle" x="1305" y="-644.5" font-family="Helvetica,sans-Serif" font-size="10.00">/asm/func_802D6BCC.s</text>
</a>
</g>
</g>
<!-- Node1&#45;&gt;Node26 -->
<g id="edge52" class="edge">
<title>Node1&#45;&gt;Node26</title>
<path fill="none" stroke="midnightblue" d="M1218.09,-704.4C1233.94,-695.11 1254.89,-682.84 1272.26,-672.67"/>
<polygon fill="midnightblue" stroke="midnightblue" points="1274.1,-675.65 1280.96,-667.58 1270.56,-669.61 1274.1,-675.65"/>
</g>
<!-- Node27 -->
<g id="node27" class="node">
<title>Node27</title>
<g id="a_node27"><a xlink:title=" ">
<polygon fill="white" stroke="#bfbfbf" points="1406.5,-637.5 1406.5,-667.5 1573.5,-667.5 1573.5,-637.5 1406.5,-637.5"/>
<text text-anchor="start" x="1414.5" y="-655.5" font-family="Helvetica,sans-Serif" font-size="10.00">JSystem/JKernel/JKRMemArchive</text>
<text text-anchor="middle" x="1490" y="-644.5" font-family="Helvetica,sans-Serif" font-size="10.00">/asm/func_802D6D30.s</text>
</a>
</g>
</g>
<!-- Node1&#45;&gt;Node27 -->
<g id="edge53" class="edge">
<title>Node1&#45;&gt;Node27</title>
<path fill="none" stroke="midnightblue" d="M1249.68,-706.27C1296.8,-695.93 1364.7,-681.01 1416.32,-669.68"/>
<polygon fill="midnightblue" stroke="midnightblue" points="1417.07,-673.1 1426.09,-667.53 1415.57,-666.26 1417.07,-673.1"/>
</g>
<!-- Node3 -->
<g id="node3" class="node">
<title>Node3</title>
<g id="a_node3"><a xlink:href="JKRArchive_8h.html" target="_top" xlink:title=" ">
<polygon fill="white" stroke="black" points="132,-570.5 132,-600.5 278,-600.5 278,-570.5 132,-570.5"/>
<text text-anchor="start" x="140" y="-588.5" font-family="Helvetica,sans-Serif" font-size="10.00">JSystem/JKernel/JKRArchive</text>
<text text-anchor="middle" x="205" y="-577.5" font-family="Helvetica,sans-Serif" font-size="10.00">/JKRArchive.h</text>
</a>
</g>
</g>
<!-- Node2&#45;&gt;Node3 -->
<g id="edge2" class="edge">
<title>Node2&#45;&gt;Node3</title>
<path fill="none" stroke="midnightblue" d="M205,-637.4C205,-629.64 205,-619.81 205,-610.86"/>
<polygon fill="midnightblue" stroke="midnightblue" points="208.5,-610.58 205,-600.58 201.5,-610.58 208.5,-610.58"/>
</g>
<!-- Node7 -->
<g id="node7" class="node">
<title>Node7</title>
<g id="a_node7"><a xlink:href="types_8h.html" target="_top" xlink:title=" ">
<polygon fill="white" stroke="black" points="589.5,-0.5 589.5,-19.5 670.5,-19.5 670.5,-0.5 589.5,-0.5"/>
<text text-anchor="middle" x="630" y="-7.5" font-family="Helvetica,sans-Serif" font-size="10.00">dolphin/types.h</text>
</a>
</g>
</g>
<!-- Node2&#45;&gt;Node7 -->
<g id="edge47" class="edge">
<title>Node2&#45;&gt;Node7</title>
<path fill="none" stroke="midnightblue" d="M137.02,-637.44C77.35,-620.66 0,-586.06 0,-519.5 0,-519.5 0,-519.5 0,-137.5 0,-92.52 20.69,-77.86 60,-56 104.77,-31.11 447.9,-17.1 579.16,-12.61"/>
<polygon fill="midnightblue" stroke="midnightblue" points="579.47,-16.1 589.35,-12.27 579.24,-9.1 579.47,-16.1"/>
</g>
<!-- Node4 -->
<g id="node4" class="node">
<title>Node4</title>
<g id="a_node4"><a xlink:href="JKRDecomp_8h.html" target="_top" xlink:title=" ">
<polygon fill="white" stroke="black" points="348.5,-503.5 348.5,-533.5 497.5,-533.5 497.5,-503.5 348.5,-503.5"/>
<text text-anchor="start" x="356.5" y="-521.5" font-family="Helvetica,sans-Serif" font-size="10.00">JSystem/JKernel/JKRDecomp</text>
<text text-anchor="middle" x="423" y="-510.5" font-family="Helvetica,sans-Serif" font-size="10.00">/JKRDecomp.h</text>
</a>
</g>
</g>
<!-- Node3&#45;&gt;Node4 -->
<g id="edge3" class="edge">
<title>Node3&#45;&gt;Node4</title>
<path fill="none" stroke="midnightblue" d="M252.03,-570.48C285.44,-560.51 330.48,-547.09 365.94,-536.51"/>
<polygon fill="midnightblue" stroke="midnightblue" points="367.09,-539.82 375.67,-533.61 365.09,-533.11 367.09,-539.82"/>
</g>
<!-- Node6 -->
<g id="node6" class="node">
<title>Node6</title>
<g id="a_node6"><a xlink:href="SArc_8h.html" target="_top" xlink:title=" ">
<polygon fill="white" stroke="black" points="66.5,-380.5 66.5,-399.5 189.5,-399.5 189.5,-380.5 66.5,-380.5"/>
<text text-anchor="middle" x="128" y="-387.5" font-family="Helvetica,sans-Serif" font-size="10.00">JSystem/JKernel/SArc.h</text>
</a>
</g>
</g>
<!-- Node3&#45;&gt;Node6 -->
<g id="edge45" class="edge">
<title>Node3&#45;&gt;Node6</title>
<path fill="none" stroke="midnightblue" d="M187.51,-570.43C164.14,-550.36 123.84,-511.06 108,-467 100.96,-447.41 109.42,-424.17 117.4,-408.6"/>
<polygon fill="midnightblue" stroke="midnightblue" points="120.61,-410.02 122.41,-399.58 114.49,-406.62 120.61,-410.02"/>
</g>
<!-- Node3&#45;&gt;Node7 -->
<g id="edge46" class="edge">
<title>Node3&#45;&gt;Node7</title>
<path fill="none" stroke="midnightblue" d="M159.37,-570.44C109.92,-552.03 38,-514.59 38,-452.5 38,-452.5 38,-452.5 38,-137.5 38,-77.72 89.3,-77.71 145,-56 223.06,-25.57 470.85,-15.29 578.85,-12.19"/>
<polygon fill="midnightblue" stroke="midnightblue" points="579.27,-15.68 589.17,-11.91 579.07,-8.69 579.27,-15.68"/>
</g>
<!-- Node24 -->
<g id="node24" class="node">
<title>Node24</title>
<g id="a_node24"><a xlink:href="JKRFileLoader_8h.html" target="_top" xlink:title=" ">
<polygon fill="white" stroke="black" points="220,-190.5 220,-220.5 378,-220.5 378,-190.5 220,-190.5"/>
<text text-anchor="start" x="228" y="-208.5" font-family="Helvetica,sans-Serif" font-size="10.00">JSystem/JKernel/JKRFileLoader</text>
<text text-anchor="middle" x="299" y="-197.5" font-family="Helvetica,sans-Serif" font-size="10.00">/JKRFileLoader.h</text>
</a>
</g>
</g>
<!-- Node3&#45;&gt;Node24 -->
<g id="edge42" class="edge">
<title>Node3&#45;&gt;Node24</title>
<path fill="none" stroke="midnightblue" d="M230.74,-570.33C264.92,-549.41 321,-506.8 321,-452.5 321,-452.5 321,-452.5 321,-333 321,-296.92 312.2,-255.89 305.74,-230.59"/>
<polygon fill="midnightblue" stroke="midnightblue" points="309.08,-229.55 303.14,-220.78 302.31,-231.34 309.08,-229.55"/>
</g>
<!-- Node5 -->
<g id="node5" class="node">
<title>Node5</title>
<g id="a_node5"><a xlink:href="JKRCompression_8h.html" target="_top" xlink:title=" ">
<polygon fill="white" stroke="black" points="116.5,-442 116.5,-461 293.5,-461 293.5,-442 116.5,-442"/>
<text text-anchor="middle" x="205" y="-449" font-family="Helvetica,sans-Serif" font-size="10.00">JSystem/JKernel/JKRCompression.h</text>
</a>
</g>
</g>
<!-- Node4&#45;&gt;Node5 -->
<g id="edge4" class="edge">
<title>Node4&#45;&gt;Node5</title>
<path fill="none" stroke="midnightblue" d="M375.97,-503.48C336.38,-491.67 280.46,-475 243.5,-463.98"/>
<polygon fill="midnightblue" stroke="midnightblue" points="244.19,-460.53 233.6,-461.03 242.19,-467.24 244.19,-460.53"/>
</g>
<!-- Node4&#45;&gt;Node7 -->
<g id="edge41" class="edge">
<title>Node4&#45;&gt;Node7</title>
<path fill="none" stroke="midnightblue" d="M419.8,-503.17C414.88,-479.8 406,-431.99 406,-391 406,-391 406,-391 406,-271.5 406,-175.7 336.89,-127.2 401,-56 424.26,-30.17 519.2,-18.75 579.3,-14.03"/>
<polygon fill="midnightblue" stroke="midnightblue" points="579.65,-17.51 589.36,-13.27 579.12,-10.53 579.65,-17.51"/>
</g>
<!-- Node8 -->
<g id="node8" class="node">
<title>Node8</title>
<g id="a_node8"><a xlink:href="JKRThread_8h.html" target="_top" xlink:title=" ">
<polygon fill="white" stroke="black" points="434.5,-436.5 434.5,-466.5 577.5,-466.5 577.5,-436.5 434.5,-436.5"/>
<text text-anchor="start" x="442.5" y="-454.5" font-family="Helvetica,sans-Serif" font-size="10.00">JSystem/JKernel/JKRThread</text>
<text text-anchor="middle" x="506" y="-443.5" font-family="Helvetica,sans-Serif" font-size="10.00">/JKRThread.h</text>
</a>
</g>
</g>
<!-- Node4&#45;&gt;Node8 -->
<g id="edge8" class="edge">
<title>Node4&#45;&gt;Node8</title>
<path fill="none" stroke="midnightblue" d="M441.01,-503.4C452.43,-494.45 467.39,-482.74 480.08,-472.8"/>
<polygon fill="midnightblue" stroke="midnightblue" points="482.31,-475.5 488.03,-466.58 477.99,-469.99 482.31,-475.5"/>
</g>
<!-- Node5&#45;&gt;Node6 -->
<g id="edge5" class="edge">
<title>Node5&#45;&gt;Node6</title>
<path fill="none" stroke="midnightblue" d="M193.97,-441.98C181.73,-432.52 161.77,-417.1 147.01,-405.69"/>
<polygon fill="midnightblue" stroke="midnightblue" points="149.06,-402.85 139.01,-399.51 144.78,-408.39 149.06,-402.85"/>
</g>
<!-- Node5&#45;&gt;Node7 -->
<g id="edge7" class="edge">
<title>Node5&#45;&gt;Node7</title>
<path fill="none" stroke="midnightblue" d="M204.52,-441.83C202.46,-402.2 195.03,-238.2 211,-190 233.96,-120.7 243.61,-93.91 306,-56 350.82,-28.76 499.63,-17.4 579.04,-13.19"/>
<polygon fill="midnightblue" stroke="midnightblue" points="579.49,-16.67 589.3,-12.66 579.13,-9.68 579.49,-16.67"/>
</g>
<!-- Node6&#45;&gt;Node7 -->
<g id="edge6" class="edge">
<title>Node6&#45;&gt;Node7</title>
<path fill="none" stroke="midnightblue" d="M129.65,-380.34C133.14,-361.17 141,-313.66 141,-273.5 141,-273.5 141,-273.5 141,-137.5 141,-97.72 145.67,-79.18 178,-56 210.02,-33.05 467.4,-18.51 578.85,-13.24"/>
<polygon fill="midnightblue" stroke="midnightblue" points="579.34,-16.72 589.17,-12.75 579.02,-9.72 579.34,-16.72"/>
</g>
<!-- Node8&#45;&gt;Node7 -->
<g id="edge13" class="edge">
<title>Node8&#45;&gt;Node7</title>
<path fill="none" stroke="midnightblue" d="M492.55,-436.49C474.31,-415.97 444,-375.74 444,-335 444,-335 444,-335 444,-271.5 444,-233.74 433.03,-225.44 420,-190 413.96,-173.57 407.63,-171.13 404,-154 394.62,-109.81 396.59,-85.28 431,-56 453.07,-37.22 528.2,-24.07 579.56,-17.02"/>
<polygon fill="midnightblue" stroke="midnightblue" points="580.04,-20.48 589.49,-15.69 579.12,-13.55 580.04,-20.48"/>
</g>
<!-- Node9 -->
<g id="node9" class="node">
<title>Node9</title>
<g id="a_node9"><a xlink:href="JKRDisposer_8h.html" target="_top" xlink:title=" ">
<polygon fill="white" stroke="black" points="412.5,-123.5 412.5,-153.5 563.5,-153.5 563.5,-123.5 412.5,-123.5"/>
<text text-anchor="start" x="420.5" y="-141.5" font-family="Helvetica,sans-Serif" font-size="10.00">JSystem/JKernel/JKRDisposer</text>
<text text-anchor="middle" x="488" y="-130.5" font-family="Helvetica,sans-Serif" font-size="10.00">/JKRDisposer.h</text>
</a>
</g>
</g>
<!-- Node8&#45;&gt;Node9 -->
<g id="edge9" class="edge">
<title>Node8&#45;&gt;Node9</title>
<path fill="none" stroke="midnightblue" d="M503.17,-436.34C499.08,-414.63 492,-371.76 492,-335 492,-335 492,-335 492,-271.5 492,-233.99 490.37,-190.5 489.19,-164"/>
<polygon fill="midnightblue" stroke="midnightblue" points="492.67,-163.58 488.72,-153.75 485.68,-163.91 492.67,-163.58"/>
</g>
<!-- Node8&#45;&gt;Node11 -->
<g id="edge14" class="edge">
<title>Node8&#45;&gt;Node11</title>
<path fill="none" stroke="midnightblue" d="M577.68,-441.69C683.07,-428.73 875.89,-405.03 954.86,-395.32"/>
<polygon fill="midnightblue" stroke="midnightblue" points="955.29,-398.79 964.79,-394.1 954.44,-391.85 955.29,-398.79"/>
</g>
<!-- Node9&#45;&gt;Node7 -->
<g id="edge12" class="edge">
<title>Node9&#45;&gt;Node7</title>
<path fill="none" stroke="midnightblue" d="M469.82,-123.46C450.16,-106.58 423.79,-77.79 441,-56 457.97,-34.52 529.4,-22.19 579.41,-16.04"/>
<polygon fill="midnightblue" stroke="midnightblue" points="579.9,-19.5 589.42,-14.85 579.07,-12.55 579.9,-19.5"/>
</g>
<!-- Node10 -->
<g id="node10" class="node">
<title>Node10</title>
<g id="a_node10"><a xlink:href="JSUList_8h.html" target="_top" xlink:title=" ">
<polygon fill="white" stroke="black" points="450,-56.5 450,-86.5 586,-86.5 586,-56.5 450,-56.5"/>
<text text-anchor="start" x="458" y="-74.5" font-family="Helvetica,sans-Serif" font-size="10.00">JSystem/JSupport/JSUList</text>
<text text-anchor="middle" x="518" y="-63.5" font-family="Helvetica,sans-Serif" font-size="10.00">/JSUList.h</text>
</a>
</g>
</g>
<!-- Node9&#45;&gt;Node10 -->
<g id="edge10" class="edge">
<title>Node9&#45;&gt;Node10</title>
<path fill="none" stroke="midnightblue" d="M494.51,-123.4C498.24,-115.3 503.03,-104.94 507.3,-95.69"/>
<polygon fill="midnightblue" stroke="midnightblue" points="510.49,-97.12 511.5,-86.58 504.13,-94.19 510.49,-97.12"/>
</g>
<!-- Node10&#45;&gt;Node7 -->
<g id="edge11" class="edge">
<title>Node10&#45;&gt;Node7</title>
<path fill="none" stroke="midnightblue" d="M544.54,-56.4C562.66,-46.77 586.54,-34.09 604.44,-24.58"/>
<polygon fill="midnightblue" stroke="midnightblue" points="606.51,-27.44 613.7,-19.66 603.23,-21.26 606.51,-27.44"/>
</g>
<!-- Node11&#45;&gt;Node7 -->
<g id="edge15" class="edge">
<title>Node11&#45;&gt;Node7</title>
<path fill="none" stroke="midnightblue" d="M991.32,-380.26C996.3,-346.28 1012.68,-223.1 994,-190 929.2,-75.2 764.54,-32.58 680.71,-17.96"/>
<polygon fill="midnightblue" stroke="midnightblue" points="681.1,-14.48 670.65,-16.28 679.94,-21.38 681.1,-14.48"/>
</g>
<!-- Node12 -->
<g id="node12" class="node">
<title>Node12</title>
<g id="a_node12"><a xlink:href="AR_8h.html" target="_top" xlink:title=" ">
<polygon fill="white" stroke="black" points="1018.5,-263 1018.5,-282 1067.5,-282 1067.5,-263 1018.5,-263"/>
<text text-anchor="middle" x="1043" y="-270" font-family="Helvetica,sans-Serif" font-size="10.00">ar/AR.h</text>
</a>
</g>
</g>
<!-- Node11&#45;&gt;Node12 -->
<g id="edge16" class="edge">
<title>Node11&#45;&gt;Node12</title>
<path fill="none" stroke="midnightblue" d="M993.98,-380.32C1002.62,-361.51 1023.2,-316.65 1034.76,-291.46"/>
<polygon fill="midnightblue" stroke="midnightblue" points="1037.98,-292.83 1038.97,-282.28 1031.62,-289.91 1037.98,-292.83"/>
</g>
<!-- Node13 -->
<g id="node13" class="node">
<title>Node13</title>
<g id="a_node13"><a xlink:href="ARQ_8h.html" target="_top" xlink:title=" ">
<polygon fill="white" stroke="black" points="1068,-129 1068,-148 1124,-148 1124,-129 1068,-129"/>
<text text-anchor="middle" x="1096" y="-136" font-family="Helvetica,sans-Serif" font-size="10.00">ar/ARQ.h</text>
</a>
</g>
</g>
<!-- Node11&#45;&gt;Node13 -->
<g id="edge18" class="edge">
<title>Node11&#45;&gt;Node13</title>
<path fill="none" stroke="midnightblue" d="M1000.81,-380.34C1019.87,-364.36 1059.15,-328.19 1077,-288 1096.28,-244.59 1097.72,-187.49 1096.96,-158.36"/>
<polygon fill="midnightblue" stroke="midnightblue" points="1100.46,-158.19 1096.58,-148.33 1093.46,-158.46 1100.46,-158.19"/>
</g>
<!-- Node14 -->
<g id="node14" class="node">
<title>Node14</title>
<g id="a_node14"><a xlink:href="mwcc_8h.html" target="_top" xlink:title=" ">
<polygon fill="white" stroke="black" points="1113,-324.5 1113,-343.5 1163,-343.5 1163,-324.5 1113,-324.5"/>
<text text-anchor="middle" x="1138" y="-331.5" font-family="Helvetica,sans-Serif" font-size="10.00">mwcc.h</text>
</a>
</g>
</g>
<!-- Node11&#45;&gt;Node14 -->
<g id="edge20" class="edge">
<title>Node11&#45;&gt;Node14</title>
<path fill="none" stroke="midnightblue" d="M1013.45,-380.44C1038.13,-371.44 1077.19,-357.19 1104.98,-347.05"/>
<polygon fill="midnightblue" stroke="midnightblue" points="1106.46,-350.23 1114.66,-343.52 1104.06,-343.66 1106.46,-350.23"/>
</g>
<!-- Node15 -->
<g id="node15" class="node">
<title>Node15</title>
<g id="a_node15"><a xlink:href="OS_8h.html" target="_top" xlink:title=" ">
<polygon fill="white" stroke="black" points="1152,-129 1152,-148 1204,-148 1204,-129 1152,-129"/>
<text text-anchor="middle" x="1178" y="-136" font-family="Helvetica,sans-Serif" font-size="10.00">os/OS.h</text>
</a>
</g>
</g>
<!-- Node11&#45;&gt;Node15 -->
<g id="edge21" class="edge">
<title>Node11&#45;&gt;Node15</title>
<path fill="none" stroke="midnightblue" d="M1015.11,-386.49C1060.3,-381.4 1152.43,-368.26 1172,-344 1216.14,-289.29 1195.61,-196.93 1184.03,-157.85"/>
<polygon fill="midnightblue" stroke="midnightblue" points="1187.31,-156.62 1180.99,-148.12 1180.63,-158.7 1187.31,-156.62"/>
</g>
<!-- Node17 -->
<g id="node17" class="node">
<title>Node17</title>
<g id="a_node17"><a xlink:href="variables_8h.html" target="_top" xlink:title=" ">
<polygon fill="white" stroke="black" points="665.5,-324.5 665.5,-343.5 728.5,-343.5 728.5,-324.5 665.5,-324.5"/>
<text text-anchor="middle" x="697" y="-331.5" font-family="Helvetica,sans-Serif" font-size="10.00">variables.h</text>
</a>
</g>
</g>
<!-- Node11&#45;&gt;Node17 -->
<g id="edge25" class="edge">
<title>Node11&#45;&gt;Node17</title>
<path fill="none" stroke="midnightblue" d="M964.77,-384.35C914.38,-375.06 800.84,-354.14 739.03,-342.75"/>
<polygon fill="midnightblue" stroke="midnightblue" points="739.31,-339.24 728.84,-340.87 738.04,-346.12 739.31,-339.24"/>
</g>
<!-- Node12&#45;&gt;Node7 -->
<g id="edge17" class="edge">
<title>Node12&#45;&gt;Node7</title>
<path fill="none" stroke="midnightblue" d="M1045.15,-262.94C1052.71,-230.51 1074.64,-114.14 1016,-56 992.6,-32.8 780.17,-18.81 680.81,-13.48"/>
<polygon fill="midnightblue" stroke="midnightblue" points="680.87,-9.97 670.7,-12.94 680.5,-16.96 680.87,-9.97"/>
</g>
<!-- Node13&#45;&gt;Node7 -->
<g id="edge19" class="edge">
<title>Node13&#45;&gt;Node7</title>
<path fill="none" stroke="midnightblue" d="M1094.34,-128.81C1090.57,-111.64 1079.61,-73.54 1054,-56 994.49,-15.26 779.93,-10.47 680.83,-10.5"/>
<polygon fill="midnightblue" stroke="midnightblue" points="680.74,-7 670.75,-10.52 680.76,-14 680.74,-7"/>
</g>
<!-- Node15&#45;&gt;Node7 -->
<g id="edge22" class="edge">
<title>Node15&#45;&gt;Node7</title>
<path fill="none" stroke="midnightblue" d="M1180.9,-128.97C1185.91,-112.42 1193.98,-75.86 1175,-56 1141.27,-20.7 809.82,-13.07 680.91,-11.44"/>
<polygon fill="midnightblue" stroke="midnightblue" points="680.58,-7.94 670.53,-11.32 680.49,-14.94 680.58,-7.94"/>
</g>
<!-- Node16 -->
<g id="node16" class="node">
<title>Node16</title>
<g id="a_node16"><a xlink:href="dvd_8h.html" target="_top" xlink:title=" ">
<polygon fill="white" stroke="black" points="1106.5,-62 1106.5,-81 1165.5,-81 1165.5,-62 1106.5,-62"/>
<text text-anchor="middle" x="1136" y="-69" font-family="Helvetica,sans-Serif" font-size="10.00">dvd/dvd.h</text>
</a>
</g>
</g>
<!-- Node15&#45;&gt;Node16 -->
<g id="edge23" class="edge">
<title>Node15&#45;&gt;Node16</title>
<path fill="none" stroke="midnightblue" d="M1172.34,-128.73C1165.91,-118.79 1155.28,-102.34 1147.17,-89.79"/>
<polygon fill="midnightblue" stroke="midnightblue" points="1149.94,-87.63 1141.57,-81.13 1144.06,-91.43 1149.94,-87.63"/>
</g>
<!-- Node16&#45;&gt;Node7 -->
<g id="edge24" class="edge">
<title>Node16&#45;&gt;Node7</title>
<path fill="none" stroke="midnightblue" d="M1113.43,-62C1106.62,-59.73 1099.08,-57.49 1092,-56 944.77,-24.97 766.54,-15.27 680.85,-12.29"/>
<polygon fill="midnightblue" stroke="midnightblue" points="680.73,-8.78 670.62,-11.95 680.5,-15.78 680.73,-8.78"/>
</g>
<!-- Node17&#45;&gt;Node10 -->
<g id="edge26" class="edge">
<title>Node17&#45;&gt;Node10</title>
<path fill="none" stroke="midnightblue" d="M665.38,-325.14C645.36,-318.53 620.59,-307.02 606,-288 560.47,-228.67 609.69,-188.17 573,-123 566.59,-111.62 556.7,-101.37 547.07,-93.13"/>
<polygon fill="midnightblue" stroke="midnightblue" points="549.1,-90.26 539.12,-86.7 544.69,-95.71 549.1,-90.26"/>
</g>
<!-- Node18 -->
<g id="node18" class="node">
<title>Node18</title>
<g id="a_node18"><a xlink:href="JUTXfb_8h.html" target="_top" xlink:title=" ">
<polygon fill="white" stroke="black" points="614.5,-257.5 614.5,-287.5 739.5,-287.5 739.5,-257.5 614.5,-257.5"/>
<text text-anchor="start" x="622.5" y="-275.5" font-family="Helvetica,sans-Serif" font-size="10.00">JSystem/JUtility/JUTXfb</text>
<text text-anchor="middle" x="677" y="-264.5" font-family="Helvetica,sans-Serif" font-size="10.00">/JUTXfb.h</text>
</a>
</g>
</g>
<!-- Node17&#45;&gt;Node18 -->
<g id="edge27" class="edge">
<title>Node17&#45;&gt;Node18</title>
<path fill="none" stroke="midnightblue" d="M694.13,-324.48C691.73,-317.32 688.18,-306.75 684.93,-297.08"/>
<polygon fill="midnightblue" stroke="midnightblue" points="688.22,-295.89 681.71,-287.52 681.58,-298.12 688.22,-295.89"/>
</g>
<!-- Node21 -->
<g id="node21" class="node">
<title>Node21</title>
<g id="a_node21"><a xlink:href="c__xyz_8h.html" target="_top" xlink:title=" ">
<polygon fill="white" stroke="black" points="802.5,-263 802.5,-282 909.5,-282 909.5,-263 802.5,-263"/>
<text text-anchor="middle" x="856" y="-270" font-family="Helvetica,sans-Serif" font-size="10.00">SComponent/c_xyz.h</text>
</a>
</g>
</g>
<!-- Node17&#45;&gt;Node21 -->
<g id="edge35" class="edge">
<title>Node17&#45;&gt;Node21</title>
<path fill="none" stroke="midnightblue" d="M719.78,-324.48C747.05,-314.27 792.91,-297.11 823.8,-285.55"/>
<polygon fill="midnightblue" stroke="midnightblue" points="825.12,-288.79 833.26,-282.01 822.67,-282.24 825.12,-288.79"/>
</g>
<!-- Node18&#45;&gt;Node7 -->
<g id="edge32" class="edge">
<title>Node18&#45;&gt;Node7</title>
<path fill="none" stroke="midnightblue" d="M673.88,-257.43C671.79,-247.35 669.21,-233.41 668,-221 660.88,-148 689.43,-125.16 665,-56 661.18,-45.2 653.66,-34.96 646.56,-26.99"/>
<polygon fill="midnightblue" stroke="midnightblue" points="648.93,-24.4 639.49,-19.57 643.86,-29.22 648.93,-24.4"/>
</g>
<!-- Node19 -->
<g id="node19" class="node">
<title>Node19</title>
<g id="a_node19"><a xlink:href="JKRHeap_8h.html" target="_top" xlink:title=" ">
<polygon fill="white" stroke="black" points="677,-190.5 677,-220.5 813,-220.5 813,-190.5 677,-190.5"/>
<text text-anchor="start" x="685" y="-208.5" font-family="Helvetica,sans-Serif" font-size="10.00">JSystem/JKernel/JKRHeap</text>
<text text-anchor="middle" x="745" y="-197.5" font-family="Helvetica,sans-Serif" font-size="10.00">/JKRHeap.h</text>
</a>
</g>
</g>
<!-- Node18&#45;&gt;Node19 -->
<g id="edge28" class="edge">
<title>Node18&#45;&gt;Node19</title>
<path fill="none" stroke="midnightblue" d="M691.75,-257.4C700.84,-248.71 712.67,-237.4 722.87,-227.66"/>
<polygon fill="midnightblue" stroke="midnightblue" points="725.46,-230.02 730.27,-220.58 720.63,-224.96 725.46,-230.02"/>
</g>
<!-- Node20 -->
<g id="node20" class="node">
<title>Node20</title>
<g id="a_node20"><a xlink:href="GX_8h.html" target="_top" xlink:title=" ">
<polygon fill="white" stroke="black" points="604.5,-62 604.5,-81 655.5,-81 655.5,-62 604.5,-62"/>
<text text-anchor="middle" x="630" y="-69" font-family="Helvetica,sans-Serif" font-size="10.00">gx/GX.h</text>
</a>
</g>
</g>
<!-- Node18&#45;&gt;Node20 -->
<g id="edge33" class="edge">
<title>Node18&#45;&gt;Node20</title>
<path fill="none" stroke="midnightblue" d="M660.75,-257.33C651.35,-248.05 640.35,-235.07 635,-221 618.23,-176.94 622.85,-120.12 626.87,-91.2"/>
<polygon fill="midnightblue" stroke="midnightblue" points="630.34,-91.67 628.39,-81.25 623.42,-90.61 630.34,-91.67"/>
</g>
<!-- Node19&#45;&gt;Node7 -->
<g id="edge30" class="edge">
<title>Node19&#45;&gt;Node7</title>
<path fill="none" stroke="midnightblue" d="M743.68,-190.39C740.41,-162.22 729.76,-98.09 698,-56 687.89,-42.59 672.54,-31.95 658.99,-24.39"/>
<polygon fill="midnightblue" stroke="midnightblue" points="660.46,-21.2 649.98,-19.65 657.2,-27.4 660.46,-21.2"/>
</g>
<!-- Node19&#45;&gt;Node9 -->
<g id="edge29" class="edge">
<title>Node19&#45;&gt;Node9</title>
<path fill="none" stroke="midnightblue" d="M689.55,-190.48C649.66,-180.39 595.71,-166.74 553.66,-156.11"/>
<polygon fill="midnightblue" stroke="midnightblue" points="554.35,-152.67 543.79,-153.61 552.63,-159.46 554.35,-152.67"/>
</g>
<!-- Node19&#45;&gt;Node11 -->
<g id="edge31" class="edge">
<title>Node19&#45;&gt;Node11</title>
<path fill="none" stroke="midnightblue" d="M750.7,-220.76C758.34,-238.4 773.37,-268.48 794,-288 841.49,-332.94 912.86,-362.87 955.11,-377.82"/>
<polygon fill="midnightblue" stroke="midnightblue" points="954.08,-381.17 964.68,-381.12 956.37,-374.55 954.08,-381.17"/>
</g>
<!-- Node20&#45;&gt;Node7 -->
<g id="edge34" class="edge">
<title>Node20&#45;&gt;Node7</title>
<path fill="none" stroke="midnightblue" d="M630,-61.98C630,-53.58 630,-40.48 630,-29.66"/>
<polygon fill="midnightblue" stroke="midnightblue" points="633.5,-29.51 630,-19.51 626.5,-29.51 633.5,-29.51"/>
</g>
<!-- Node21&#45;&gt;Node11 -->
<g id="edge38" class="edge">
<title>Node21&#45;&gt;Node11</title>
<path fill="none" stroke="midnightblue" d="M863.59,-282.27C875.81,-296.15 900.92,-323.68 925,-344 938.34,-355.25 954.46,-366.43 967.31,-374.83"/>
<polygon fill="midnightblue" stroke="midnightblue" points="965.7,-377.95 976,-380.41 969.48,-372.06 965.7,-377.95"/>
</g>
<!-- Node22 -->
<g id="node22" class="node">
<title>Node22</title>
<g id="a_node22"><a xlink:href="c__math_8h.html" target="_top" xlink:title=" ">
<polygon fill="white" stroke="black" points="869,-196 869,-215 985,-215 985,-196 869,-196"/>
<text text-anchor="middle" x="927" y="-203" font-family="Helvetica,sans-Serif" font-size="10.00">SComponent/c_math.h</text>
</a>
</g>
</g>
<!-- Node21&#45;&gt;Node22 -->
<g id="edge36" class="edge">
<title>Node21&#45;&gt;Node22</title>
<path fill="none" stroke="midnightblue" d="M865.58,-262.73C876.97,-252.31 896.19,-234.71 910.1,-221.97"/>
<polygon fill="midnightblue" stroke="midnightblue" points="912.56,-224.46 917.58,-215.13 907.84,-219.3 912.56,-224.46"/>
</g>
<!-- Node23 -->
<g id="node23" class="node">
<title>Node23</title>
<g id="a_node23"><a xlink:href="mtx__vec_8h.html" target="_top" xlink:title=" ">
<polygon fill="white" stroke="black" points="792.5,-129 792.5,-148 853.5,-148 853.5,-129 792.5,-129"/>
<text text-anchor="middle" x="823" y="-136" font-family="Helvetica,sans-Serif" font-size="10.00">mtx_vec.h</text>
</a>
</g>
</g>
<!-- Node21&#45;&gt;Node23 -->
<g id="edge39" class="edge">
<title>Node21&#45;&gt;Node23</title>
<path fill="none" stroke="midnightblue" d="M853.83,-262.84C848.54,-241.67 834.86,-186.95 827.63,-158.03"/>
<polygon fill="midnightblue" stroke="midnightblue" points="830.95,-156.87 825.13,-148.02 824.16,-158.57 830.95,-156.87"/>
</g>
<!-- Node22&#45;&gt;Node11 -->
<g id="edge37" class="edge">
<title>Node22&#45;&gt;Node11</title>
<path fill="none" stroke="midnightblue" d="M930.01,-215.21C939.72,-243.33 970.35,-332.07 983.69,-370.72"/>
<polygon fill="midnightblue" stroke="midnightblue" points="980.39,-371.89 986.96,-380.2 987.01,-369.6 980.39,-371.89"/>
</g>
<!-- Node23&#45;&gt;Node7 -->
<g id="edge40" class="edge">
<title>Node23&#45;&gt;Node7</title>
<path fill="none" stroke="midnightblue" d="M816.1,-128.76C802.88,-112.51 772.38,-77.32 740,-56 718.18,-41.63 691.04,-30.47 669.17,-22.86"/>
<polygon fill="midnightblue" stroke="midnightblue" points="670.13,-19.49 659.54,-19.61 667.9,-26.12 670.13,-19.49"/>
</g>
<!-- Node24&#45;&gt;Node7 -->
<g id="edge44" class="edge">
<title>Node24&#45;&gt;Node7</title>
<path fill="none" stroke="midnightblue" d="M297.39,-190.13C294.93,-160.3 293.97,-91.5 332,-56 366.93,-23.39 503.73,-14.41 579.24,-11.94"/>
<polygon fill="midnightblue" stroke="midnightblue" points="579.58,-15.43 589.47,-11.63 579.37,-8.43 579.58,-15.43"/>
</g>
<!-- Node24&#45;&gt;Node9 -->
<g id="edge43" class="edge">
<title>Node24&#45;&gt;Node9</title>
<path fill="none" stroke="midnightblue" d="M340.01,-190.4C368.62,-180.56 406.97,-167.37 437.47,-156.88"/>
<polygon fill="midnightblue" stroke="midnightblue" points="438.75,-160.14 447.07,-153.58 436.48,-153.52 438.75,-160.14"/>
</g>
<!-- Node25&#45;&gt;Node4 -->
<g id="edge49" class="edge">
<title>Node25&#45;&gt;Node4</title>
<path fill="none" stroke="midnightblue" d="M1007.89,-576.76C882,-564.43 637.12,-540.46 507.76,-527.8"/>
<polygon fill="midnightblue" stroke="midnightblue" points="507.81,-524.29 497.51,-526.79 507.12,-531.25 507.81,-524.29"/>
</g>
<!-- Node25&#45;&gt;Node7 -->
<g id="edge50" class="edge">
<title>Node25&#45;&gt;Node7</title>
<path fill="none" stroke="midnightblue" d="M1108.4,-570.28C1148.73,-541.57 1232,-472.44 1232,-391 1232,-391 1232,-391 1232,-137.5 1232,-97.53 1226.83,-78.8 1194,-56 1152.42,-27.12 812.02,-15.57 681.07,-12.17"/>
<polygon fill="midnightblue" stroke="midnightblue" points="680.99,-8.67 670.9,-11.91 680.81,-15.66 680.99,-8.67"/>
</g>
</g>
</svg>
        <g id="navigator" transform="translate(0 0)" fill="#404254">
                <rect fill="#f2f5e9" fill-opacity="0.5" stroke="#606060" stroke-width=".5" x="0" y="0" width="60" height="60"/>
                <use id="zoomplus" xlink:href="#zoomPlus" x="17" y="9" onmousedown="handleZoom(evt,'in')"/>
                <use id="zoomminus" xlink:href="#zoomMin" x="42" y="9" onmousedown="handleZoom(evt,'out')"/>
                <use id="reset" xlink:href="#resetDef" x="30" y="36" onmousedown="handleReset()"/>
                <g id="arrowUp" xlink:href="#dirArrow" transform="translate(30 24)" onmousedown="handlePan(0,-1)">
                  <use xlink:href="#rim" fill="#404040">
                        <set attributeName="fill" to="#808080" begin="arrowUp.mouseover" end="arrowUp.mouseout"/>
                  </use>
                  <path fill="none" stroke="white" stroke-width="1.5" d="M0,-3.0v7 M-2.5,-0.5L0,-3.0L2.5,-0.5"/>
                </g>
                <g id="arrowRight" xlink:href="#dirArrow" transform="rotate(90) translate(36 -43)" onmousedown="handlePan(1,0)">
                  <use xlink:href="#rim" fill="#404040">
                        <set attributeName="fill" to="#808080" begin="arrowRight.mouseover" end="arrowRight.mouseout"/>
                  </use>
                  <path fill="none" stroke="white" stroke-width="1.5" d="M0,-3.0v7 M-2.5,-0.5L0,-3.0L2.5,-0.5"/>
                </g>
                <g id="arrowDown" xlink:href="#dirArrow" transform="rotate(180) translate(-30 -48)" onmousedown="handlePan(0,1)">
                  <use xlink:href="#rim" fill="#404040">
                        <set attributeName="fill" to="#808080" begin="arrowDown.mouseover" end="arrowDown.mouseout"/>
                  </use>
                  <path fill="none" stroke="white" stroke-width="1.5" d="M0,-3.0v7 M-2.5,-0.5L0,-3.0L2.5,-0.5"/>
                </g>
                <g id="arrowLeft" xlink:href="#dirArrow" transform="rotate(270) translate(-36 17)" onmousedown="handlePan(-1,0)">
                  <use xlink:href="#rim" fill="#404040">
                        <set attributeName="fill" to="#808080" begin="arrowLeft.mouseover" end="arrowLeft.mouseout"/>
                  </use>
                  <path fill="none" stroke="white" stroke-width="1.5" d="M0,-3.0v7 M-2.5,-0.5L0,-3.0L2.5,-0.5"/>
                </g>
        </g>
        <svg viewBox="0 0 15 15" width="100%" height="30px" preserveAspectRatio="xMaxYMin meet">
         <g id="arrow_out" transform="scale(0.3 0.3)">
          <a xlink:href="JKRMemArchive_8cpp__incl_org.svg" target="_base">
           <rect id="button" ry="5" rx="5" y="6" x="6" height="38" width="38"
                fill="#f2f5e9" fill-opacity="0.5" stroke="#606060" stroke-width="1.0"/>
           <path id="arrow"
             d="M 11.500037,31.436501 C 11.940474,20.09759 22.043105,11.32322 32.158766,21.979434 L 37.068811,17.246167 C 37.068811,17.246167 37.088388,32 37.088388,32 L 22.160133,31.978069 C 22.160133,31.978069 26.997745,27.140456 26.997745,27.140456 C 18.528582,18.264221 13.291696,25.230495 11.500037,31.436501 z"
             style="fill:#404040;"/>
          </a>
         </g>
        </svg>
</svg>
