<?xml version="1.0" encoding="UTF-8" standalone="no"?>
<!DOCTYPE svg PUBLIC "-//W3C//DTD SVG 1.1//EN"
 "http://www.w3.org/Graphics/SVG/1.1/DTD/svg11.dtd">
<!-- Generated by graphviz version 2.46.0 (20210122.1329)
 -->
<!-- Title: libs/JSystem/JKernel/JKRSolidHeap.cpp Pages: 1 -->
<!--zoomable 475 -->
<svg id="main" version="1.1" xmlns="http://www.w3.org/2000/svg" xmlns:xlink="http://www.w3.org/1999/xlink" xml:space="preserve" onload="init(evt)">
<style type="text/css"><![CDATA[
.edge:hover path { stroke: red; }
.edge:hover polygon { stroke: red; fill: red; }
]]></style>
<script type="text/javascript"><![CDATA[
var edges = document.getElementsByTagName('g');
if (edges && edges.length) {
  for (var i=0;i<edges.length;i++) {
    if (edges[i].id.substr(0,4)=='edge') {
      edges[i].setAttribute('class','edge');
    }
  }
}
]]></script>
        <defs>
                <circle id="rim" cx="0" cy="0" r="7"/>
                <circle id="rim2" cx="0" cy="0" r="3.5"/>
                <g id="zoomPlus">
                        <use xlink:href="#rim" fill="#404040">
                                <set attributeName="fill" to="#808080" begin="zoomplus.mouseover" end="zoomplus.mouseout"/>
                        </use>
                        <path d="M-4,0h8M0,-4v8" fill="none" stroke="white" stroke-width="1.5" pointer-events="none"/>
                </g>
                <g id="zoomMin">
                        <use xlink:href="#rim" fill="#404040">
                                <set attributeName="fill" to="#808080" begin="zoomminus.mouseover" end="zoomminus.mouseout"/>
                        </use>
                        <path d="M-4,0h8" fill="none" stroke="white" stroke-width="1.5" pointer-events="none"/>
                </g>
                <g id="dirArrow">
                        <path fill="none" stroke="white" stroke-width="1.5" d="M0,-3.0v7 M-2.5,-0.5L0,-3.0L2.5,-0.5"/>
                </g>
               <g id="resetDef">
                       <use xlink:href="#rim2" fill="#404040">
                               <set attributeName="fill" to="#808080" begin="reset.mouseover" end="reset.mouseout"/>
                       </use>
               </g>
        </defs>

<script type="text/javascript">
var viewWidth = 1266;
var viewHeight = 475;
var sectionId = 'dynsection-0';
</script>
<script xlink:href="svgpan.js"/>
<svg id="graph" class="graph">
<g id="viewport">
<title>libs/JSystem/JKernel/JKRSolidHeap.cpp</title>
<polygon fill="white" stroke="transparent" points="-4,4 -4,-471 1261.5,-471 1261.5,4 -4,4"/>
<!-- Node1 -->
<g id="node1" class="node">
<title>Node1</title>
<g id="a_node1"><a xlink:title=" ">
<polygon fill="#bfbfbf" stroke="black" points="734,-436.5 734,-466.5 843,-466.5 843,-436.5 734,-436.5"/>
<text text-anchor="start" x="742" y="-454.5" font-family="Helvetica,sans-Serif" font-size="10.00">libs/JSystem/JKernel</text>
<text text-anchor="middle" x="788.5" y="-443.5" font-family="Helvetica,sans-Serif" font-size="10.00">/JKRSolidHeap.cpp</text>
</a>
</g>
</g>
<!-- Node2 -->
<g id="node2" class="node">
<title>Node2</title>
<g id="a_node2"><a xlink:href="JKRSolidHeap_8h.html" target="_top" xlink:title=" ">
<polygon fill="white" stroke="black" points="485.5,-369.5 485.5,-399.5 619.5,-399.5 619.5,-369.5 485.5,-369.5"/>
<text text-anchor="start" x="493.5" y="-387.5" font-family="Helvetica,sans-Serif" font-size="10.00">JSystem/JKernel/JKRSolid</text>
<text text-anchor="middle" x="552.5" y="-376.5" font-family="Helvetica,sans-Serif" font-size="10.00">Heap/JKRSolidHeap.h</text>
</a>
</g>
</g>
<!-- Node1&#45;&gt;Node2 -->
<g id="edge1" class="edge">
<title>Node1&#45;&gt;Node2</title>
<path fill="none" stroke="midnightblue" d="M737.58,-436.48C701.26,-426.47 652.24,-412.97 613.78,-402.38"/>
<polygon fill="midnightblue" stroke="midnightblue" points="614.3,-398.89 603.73,-399.61 612.45,-405.64 614.3,-398.89"/>
</g>
<!-- Node7 -->
<g id="node7" class="node">
<title>Node7</title>
<g id="a_node7"><a xlink:href="global_8h.html" target="_top" xlink:title=" ">
<polygon fill="white" stroke="black" points="222.5,-246.5 222.5,-265.5 272.5,-265.5 272.5,-246.5 222.5,-246.5"/>
<text text-anchor="middle" x="247.5" y="-253.5" font-family="Helvetica,sans-Serif" font-size="10.00">global.h</text>
</a>
</g>
</g>
<!-- Node1&#45;&gt;Node7 -->
<g id="edge33" class="edge">
<title>Node1&#45;&gt;Node7</title>
<path fill="none" stroke="midnightblue" d="M733.84,-448.19C670.2,-444.04 562.8,-432.42 476.5,-400 391.19,-367.96 303.38,-302.11 266.07,-272.28"/>
<polygon fill="midnightblue" stroke="midnightblue" points="268.08,-269.4 258.1,-265.84 263.68,-274.85 268.08,-269.4"/>
</g>
<!-- Node19 -->
<g id="node19" class="node">
<title>Node19</title>
<g id="a_node19"><a xlink:title=" ">
<polygon fill="white" stroke="#bfbfbf" points="637.5,-369.5 637.5,-399.5 779.5,-399.5 779.5,-369.5 637.5,-369.5"/>
<text text-anchor="start" x="645.5" y="-387.5" font-family="Helvetica,sans-Serif" font-size="10.00">JSystem/JKernel/JKRSolid</text>
<text text-anchor="middle" x="708.5" y="-376.5" font-family="Helvetica,sans-Serif" font-size="10.00">Heap/asm/func_802D0BF4.s</text>
</a>
</g>
</g>
<!-- Node1&#45;&gt;Node19 -->
<g id="edge34" class="edge">
<title>Node1&#45;&gt;Node19</title>
<path fill="none" stroke="midnightblue" d="M771.14,-436.4C760.24,-427.54 745.99,-415.96 733.84,-406.09"/>
<polygon fill="midnightblue" stroke="midnightblue" points="735.79,-403.17 725.82,-399.58 731.38,-408.6 735.79,-403.17"/>
</g>
<!-- Node20 -->
<g id="node20" class="node">
<title>Node20</title>
<g id="a_node20"><a xlink:title=" ">
<polygon fill="white" stroke="#bfbfbf" points="798,-369.5 798,-399.5 939,-399.5 939,-369.5 798,-369.5"/>
<text text-anchor="start" x="806" y="-387.5" font-family="Helvetica,sans-Serif" font-size="10.00">JSystem/JKernel/JKRSolid</text>
<text text-anchor="middle" x="868.5" y="-376.5" font-family="Helvetica,sans-Serif" font-size="10.00">Heap/asm/func_802D0D58.s</text>
</a>
</g>
</g>
<!-- Node1&#45;&gt;Node20 -->
<g id="edge35" class="edge">
<title>Node1&#45;&gt;Node20</title>
<path fill="none" stroke="midnightblue" d="M805.86,-436.4C816.76,-427.54 831.01,-415.96 843.16,-406.09"/>
<polygon fill="midnightblue" stroke="midnightblue" points="845.62,-408.6 851.18,-399.58 841.21,-403.17 845.62,-408.6"/>
</g>
<!-- Node21 -->
<g id="node21" class="node">
<title>Node21</title>
<g id="a_node21"><a xlink:title=" ">
<polygon fill="white" stroke="#bfbfbf" points="957.5,-369.5 957.5,-399.5 1097.5,-399.5 1097.5,-369.5 957.5,-369.5"/>
<text text-anchor="start" x="965.5" y="-387.5" font-family="Helvetica,sans-Serif" font-size="10.00">JSystem/JKernel/JKRSolid</text>
<text text-anchor="middle" x="1027.5" y="-376.5" font-family="Helvetica,sans-Serif" font-size="10.00">Heap/asm/func_802D0E20.s</text>
</a>
</g>
</g>
<!-- Node1&#45;&gt;Node21 -->
<g id="edge36" class="edge">
<title>Node1&#45;&gt;Node21</title>
<path fill="none" stroke="midnightblue" d="M840.07,-436.48C877,-426.43 926.91,-412.86 965.94,-402.24"/>
<polygon fill="midnightblue" stroke="midnightblue" points="966.88,-405.61 975.62,-399.61 965.05,-398.86 966.88,-405.61"/>
</g>
<!-- Node22 -->
<g id="node22" class="node">
<title>Node22</title>
<g id="a_node22"><a xlink:title=" ">
<polygon fill="white" stroke="#bfbfbf" points="1115.5,-369.5 1115.5,-399.5 1257.5,-399.5 1257.5,-369.5 1115.5,-369.5"/>
<text text-anchor="start" x="1123.5" y="-387.5" font-family="Helvetica,sans-Serif" font-size="10.00">JSystem/JKernel/JKRSolid</text>
<text text-anchor="middle" x="1186.5" y="-376.5" font-family="Helvetica,sans-Serif" font-size="10.00">Heap/asm/func_802D11FC.s</text>
</a>
</g>
</g>
<!-- Node1&#45;&gt;Node22 -->
<g id="edge37" class="edge">
<title>Node1&#45;&gt;Node22</title>
<path fill="none" stroke="midnightblue" d="M843.14,-442.19C904.44,-432.79 1007.09,-416.8 1105.31,-400.18"/>
<polygon fill="midnightblue" stroke="midnightblue" points="1106.14,-403.59 1115.41,-398.47 1104.97,-396.69 1106.14,-403.59"/>
</g>
<!-- Node3 -->
<g id="node3" class="node">
<title>Node3</title>
<g id="a_node3"><a xlink:href="JKRHeap_8h.html" target="_top" xlink:title=" ">
<polygon fill="white" stroke="black" points="484.5,-302.5 484.5,-332.5 620.5,-332.5 620.5,-302.5 484.5,-302.5"/>
<text text-anchor="start" x="492.5" y="-320.5" font-family="Helvetica,sans-Serif" font-size="10.00">JSystem/JKernel/JKRHeap</text>
<text text-anchor="middle" x="552.5" y="-309.5" font-family="Helvetica,sans-Serif" font-size="10.00">/JKRHeap.h</text>
</a>
</g>
</g>
<!-- Node2&#45;&gt;Node3 -->
<g id="edge2" class="edge">
<title>Node2&#45;&gt;Node3</title>
<path fill="none" stroke="midnightblue" d="M552.5,-369.4C552.5,-361.64 552.5,-351.81 552.5,-342.86"/>
<polygon fill="midnightblue" stroke="midnightblue" points="556,-342.58 552.5,-332.58 549,-342.58 556,-342.58"/>
</g>
<!-- Node6 -->
<g id="node6" class="node">
<title>Node6</title>
<g id="a_node6"><a xlink:href="types_8h.html" target="_top" xlink:title=" ">
<polygon fill="white" stroke="black" points="421,-0.5 421,-19.5 502,-19.5 502,-0.5 421,-0.5"/>
<text text-anchor="middle" x="461.5" y="-7.5" font-family="Helvetica,sans-Serif" font-size="10.00">dolphin/types.h</text>
</a>
</g>
</g>
<!-- Node2&#45;&gt;Node6 -->
<g id="edge32" class="edge">
<title>Node2&#45;&gt;Node6</title>
<path fill="none" stroke="midnightblue" d="M602.99,-369.41C677.06,-347.23 806.5,-302.01 806.5,-257 806.5,-257 806.5,-257 806.5,-126.5 806.5,-76.04 763.54,-76.67 717.5,-56 650.73,-26.03 565.81,-15.97 512.54,-12.62"/>
<polygon fill="midnightblue" stroke="midnightblue" points="512.5,-9.12 502.32,-12.04 512.11,-16.11 512.5,-9.12"/>
</g>
<!-- Node4 -->
<g id="node4" class="node">
<title>Node4</title>
<g id="a_node4"><a xlink:href="JKRDisposer_8h.html" target="_top" xlink:title=" ">
<polygon fill="white" stroke="black" points="559,-179.5 559,-209.5 710,-209.5 710,-179.5 559,-179.5"/>
<text text-anchor="start" x="567" y="-197.5" font-family="Helvetica,sans-Serif" font-size="10.00">JSystem/JKernel/JKRDisposer</text>
<text text-anchor="middle" x="634.5" y="-186.5" font-family="Helvetica,sans-Serif" font-size="10.00">/JKRDisposer.h</text>
</a>
</g>
</g>
<!-- Node3&#45;&gt;Node4 -->
<g id="edge3" class="edge">
<title>Node3&#45;&gt;Node4</title>
<path fill="none" stroke="midnightblue" d="M562.23,-302.14C576.28,-281.4 602.41,-242.85 619.1,-218.22"/>
<polygon fill="midnightblue" stroke="midnightblue" points="622.07,-220.08 624.78,-209.84 616.28,-216.15 622.07,-220.08"/>
</g>
<!-- Node3&#45;&gt;Node6 -->
<g id="edge7" class="edge">
<title>Node3&#45;&gt;Node6</title>
<path fill="none" stroke="midnightblue" d="M620.55,-307.29C683.86,-294.44 768.5,-264.38 768.5,-195.5 768.5,-195.5 768.5,-195.5 768.5,-126.5 768.5,-75.34 723.96,-77.43 677.5,-56 624.26,-31.44 557.46,-20.16 512.35,-15.06"/>
<polygon fill="midnightblue" stroke="midnightblue" points="512.54,-11.56 502.22,-13.98 511.79,-18.52 512.54,-11.56"/>
</g>
<!-- Node3&#45;&gt;Node7 -->
<g id="edge8" class="edge">
<title>Node3&#45;&gt;Node7</title>
<path fill="none" stroke="midnightblue" d="M484.43,-303.22C421.82,-291.01 331.48,-273.38 282.41,-263.81"/>
<polygon fill="midnightblue" stroke="midnightblue" points="283.08,-260.38 272.6,-261.9 281.74,-267.25 283.08,-260.38"/>
</g>
<!-- Node5 -->
<g id="node5" class="node">
<title>Node5</title>
<g id="a_node5"><a xlink:href="JSUList_8h.html" target="_top" xlink:title=" ">
<polygon fill="white" stroke="black" points="566.5,-112.5 566.5,-142.5 702.5,-142.5 702.5,-112.5 566.5,-112.5"/>
<text text-anchor="start" x="574.5" y="-130.5" font-family="Helvetica,sans-Serif" font-size="10.00">JSystem/JSupport/JSUList</text>
<text text-anchor="middle" x="634.5" y="-119.5" font-family="Helvetica,sans-Serif" font-size="10.00">/JSUList.h</text>
</a>
</g>
</g>
<!-- Node4&#45;&gt;Node5 -->
<g id="edge4" class="edge">
<title>Node4&#45;&gt;Node5</title>
<path fill="none" stroke="midnightblue" d="M634.5,-179.4C634.5,-171.64 634.5,-161.81 634.5,-152.86"/>
<polygon fill="midnightblue" stroke="midnightblue" points="638,-152.58 634.5,-142.58 631,-152.58 638,-152.58"/>
</g>
<!-- Node4&#45;&gt;Node6 -->
<g id="edge6" class="edge">
<title>Node4&#45;&gt;Node6</title>
<path fill="none" stroke="midnightblue" d="M670.49,-179.35C686.05,-171.22 702.69,-159.32 711.5,-143 718.05,-130.88 719.15,-123.46 711.5,-112 667.36,-45.9 571.78,-23.05 512.43,-15.16"/>
<polygon fill="midnightblue" stroke="midnightblue" points="512.5,-11.64 502.15,-13.89 511.64,-18.59 512.5,-11.64"/>
</g>
<!-- Node5&#45;&gt;Node6 -->
<g id="edge5" class="edge">
<title>Node5&#45;&gt;Node6</title>
<path fill="none" stroke="midnightblue" d="M619.41,-112.47C602.8,-97.44 574.95,-73.4 548.5,-56 529.8,-43.7 507.33,-32.15 489.91,-23.83"/>
<polygon fill="midnightblue" stroke="midnightblue" points="491.35,-20.64 480.81,-19.56 488.38,-26.98 491.35,-20.64"/>
</g>
<!-- Node7&#45;&gt;Node6 -->
<g id="edge9" class="edge">
<title>Node7&#45;&gt;Node6</title>
<path fill="none" stroke="midnightblue" d="M224.49,-246.44C207.52,-239.08 184.97,-226.97 170.5,-210 141.26,-175.71 128.03,-153.94 144.5,-112 156.91,-80.39 166.62,-72.14 196.5,-56 232.65,-36.47 344.44,-22.52 410.71,-15.71"/>
<polygon fill="midnightblue" stroke="midnightblue" points="411.34,-19.16 420.94,-14.68 410.64,-12.2 411.34,-19.16"/>
</g>
<!-- Node8 -->
<g id="node8" class="node">
<title>Node8</title>
<g id="a_node8"><a xlink:href="AR_8h.html" target="_top" xlink:title=" ">
<polygon fill="white" stroke="black" points="154,-118 154,-137 203,-137 203,-118 154,-118"/>
<text text-anchor="middle" x="178.5" y="-125" font-family="Helvetica,sans-Serif" font-size="10.00">ar/AR.h</text>
</a>
</g>
</g>
<!-- Node7&#45;&gt;Node8 -->
<g id="edge10" class="edge">
<title>Node7&#45;&gt;Node8</title>
<path fill="none" stroke="midnightblue" d="M226.26,-246.47C211.2,-239.19 192.03,-227.16 182.5,-210 171.72,-190.6 172.64,-164.42 174.97,-147.02"/>
<polygon fill="midnightblue" stroke="midnightblue" points="178.45,-147.45 176.6,-137.02 171.54,-146.33 178.45,-147.45"/>
</g>
<!-- Node9 -->
<g id="node9" class="node">
<title>Node9</title>
<g id="a_node9"><a xlink:href="ARQ_8h.html" target="_top" xlink:title=" ">
<polygon fill="white" stroke="black" points="191.5,-185 191.5,-204 247.5,-204 247.5,-185 191.5,-185"/>
<text text-anchor="middle" x="219.5" y="-192" font-family="Helvetica,sans-Serif" font-size="10.00">ar/ARQ.h</text>
</a>
</g>
</g>
<!-- Node7&#45;&gt;Node9 -->
<g id="edge12" class="edge">
<title>Node7&#45;&gt;Node9</title>
<path fill="none" stroke="midnightblue" d="M243.49,-246.48C239.41,-237.82 232.98,-224.15 227.8,-213.15"/>
<polygon fill="midnightblue" stroke="midnightblue" points="230.93,-211.57 223.5,-204.01 224.6,-214.55 230.93,-211.57"/>
</g>
<!-- Node10 -->
<g id="node10" class="node">
<title>Node10</title>
<g id="a_node10"><a xlink:href="mwcc_8h.html" target="_top" xlink:title=" ">
<polygon fill="white" stroke="black" points="9.5,-185 9.5,-204 59.5,-204 59.5,-185 9.5,-185"/>
<text text-anchor="middle" x="34.5" y="-192" font-family="Helvetica,sans-Serif" font-size="10.00">mwcc.h</text>
</a>
</g>
</g>
<!-- Node7&#45;&gt;Node10 -->
<g id="edge14" class="edge">
<title>Node7&#45;&gt;Node10</title>
<path fill="none" stroke="midnightblue" d="M222.49,-249.39C188.49,-241.56 125.89,-226.47 73.5,-210 70.94,-209.2 68.3,-208.32 65.66,-207.41"/>
<polygon fill="midnightblue" stroke="midnightblue" points="66.82,-204.11 56.23,-204.03 64.46,-210.7 66.82,-204.11"/>
</g>
<!-- Node11 -->
<g id="node11" class="node">
<title>Node11</title>
<g id="a_node11"><a xlink:href="OS_8h.html" target="_top" xlink:title=" ">
<polygon fill="white" stroke="black" points="45.5,-118 45.5,-137 97.5,-137 97.5,-118 45.5,-118"/>
<text text-anchor="middle" x="71.5" y="-125" font-family="Helvetica,sans-Serif" font-size="10.00">os/OS.h</text>
</a>
</g>
</g>
<!-- Node7&#45;&gt;Node11 -->
<g id="edge15" class="edge">
<title>Node7&#45;&gt;Node11</title>
<path fill="none" stroke="midnightblue" d="M222.29,-252.55C192.59,-248.45 143.27,-237.7 111.5,-210 92.42,-193.37 81.54,-165.53 76.08,-147.09"/>
<polygon fill="midnightblue" stroke="midnightblue" points="79.4,-145.98 73.41,-137.25 72.65,-147.81 79.4,-145.98"/>
</g>
<!-- Node13 -->
<g id="node13" class="node">
<title>Node13</title>
<g id="a_node13"><a xlink:href="variables_8h.html" target="_top" xlink:title=" ">
<polygon fill="white" stroke="black" points="381,-185 381,-204 444,-204 444,-185 381,-185"/>
<text text-anchor="middle" x="412.5" y="-192" font-family="Helvetica,sans-Serif" font-size="10.00">variables.h</text>
</a>
</g>
</g>
<!-- Node7&#45;&gt;Node13 -->
<g id="edge19" class="edge">
<title>Node7&#45;&gt;Node13</title>
<path fill="none" stroke="midnightblue" d="M271.14,-246.48C299.44,-236.27 347.03,-219.11 379.09,-207.55"/>
<polygon fill="midnightblue" stroke="midnightblue" points="380.68,-210.69 388.9,-204.01 378.31,-204.11 380.68,-210.69"/>
</g>
<!-- Node8&#45;&gt;Node6 -->
<g id="edge11" class="edge">
<title>Node8&#45;&gt;Node6</title>
<path fill="none" stroke="midnightblue" d="M180.64,-117.95C184.9,-102.84 195.93,-71.53 217.5,-56 247.72,-34.25 348.39,-21.35 410.59,-15.27"/>
<polygon fill="midnightblue" stroke="midnightblue" points="410.97,-18.75 420.6,-14.32 410.31,-11.78 410.97,-18.75"/>
</g>
<!-- Node9&#45;&gt;Node6 -->
<g id="edge13" class="edge">
<title>Node9&#45;&gt;Node6</title>
<path fill="none" stroke="midnightblue" d="M218.57,-184.93C216.48,-160.85 214.13,-91.95 250.5,-56 272.71,-34.05 355.51,-21.6 410.55,-15.59"/>
<polygon fill="midnightblue" stroke="midnightblue" points="411.24,-19.04 420.82,-14.51 410.5,-12.07 411.24,-19.04"/>
</g>
<!-- Node11&#45;&gt;Node6 -->
<g id="edge16" class="edge">
<title>Node11&#45;&gt;Node6</title>
<path fill="none" stroke="midnightblue" d="M73.68,-117.83C78.02,-102.52 89.3,-70.9 111.5,-56 159.29,-23.91 325.5,-14.69 410.54,-12.05"/>
<polygon fill="midnightblue" stroke="midnightblue" points="410.84,-15.54 420.74,-11.75 410.64,-8.54 410.84,-15.54"/>
</g>
<!-- Node12 -->
<g id="node12" class="node">
<title>Node12</title>
<g id="a_node12"><a xlink:href="dvd_8h.html" target="_top" xlink:title=" ">
<polygon fill="white" stroke="black" points="0,-56.5 0,-75.5 59,-75.5 59,-56.5 0,-56.5"/>
<text text-anchor="middle" x="29.5" y="-63.5" font-family="Helvetica,sans-Serif" font-size="10.00">dvd/dvd.h</text>
</a>
</g>
</g>
<!-- Node11&#45;&gt;Node12 -->
<g id="edge17" class="edge">
<title>Node11&#45;&gt;Node12</title>
<path fill="none" stroke="midnightblue" d="M65.48,-117.98C59.24,-109.14 49.33,-95.09 41.48,-83.98"/>
<polygon fill="midnightblue" stroke="midnightblue" points="44.13,-81.66 35.51,-75.51 38.41,-85.7 44.13,-81.66"/>
</g>
<!-- Node12&#45;&gt;Node6 -->
<g id="edge18" class="edge">
<title>Node12&#45;&gt;Node6</title>
<path fill="none" stroke="midnightblue" d="M59.26,-58.55C64.01,-57.63 68.88,-56.74 73.5,-56 193.89,-36.74 336.56,-22.34 410.83,-15.47"/>
<polygon fill="midnightblue" stroke="midnightblue" points="411.21,-18.95 420.84,-14.55 410.57,-11.98 411.21,-18.95"/>
</g>
<!-- Node13&#45;&gt;Node5 -->
<g id="edge20" class="edge">
<title>Node13&#45;&gt;Node5</title>
<path fill="none" stroke="midnightblue" d="M441.98,-184.87C476.23,-174.84 533.56,-158.06 576.77,-145.4"/>
<polygon fill="midnightblue" stroke="midnightblue" points="577.98,-148.7 586.59,-142.53 576.01,-141.98 577.98,-148.7"/>
</g>
<!-- Node14 -->
<g id="node14" class="node">
<title>Node14</title>
<g id="a_node14"><a xlink:href="JUTXfb_8h.html" target="_top" xlink:title=" ">
<polygon fill="white" stroke="black" points="423,-112.5 423,-142.5 548,-142.5 548,-112.5 423,-112.5"/>
<text text-anchor="start" x="431" y="-130.5" font-family="Helvetica,sans-Serif" font-size="10.00">JSystem/JUtility/JUTXfb</text>
<text text-anchor="middle" x="485.5" y="-119.5" font-family="Helvetica,sans-Serif" font-size="10.00">/JUTXfb.h</text>
</a>
</g>
</g>
<!-- Node13&#45;&gt;Node14 -->
<g id="edge21" class="edge">
<title>Node13&#45;&gt;Node14</title>
<path fill="none" stroke="midnightblue" d="M422.35,-184.73C432.5,-175.7 448.69,-161.27 462.14,-149.3"/>
<polygon fill="midnightblue" stroke="midnightblue" points="464.54,-151.85 469.68,-142.59 459.88,-146.63 464.54,-151.85"/>
</g>
<!-- Node16 -->
<g id="node16" class="node">
<title>Node16</title>
<g id="a_node16"><a xlink:href="c__xyz_8h.html" target="_top" xlink:title=" ">
<polygon fill="white" stroke="black" points="298,-118 298,-137 405,-137 405,-118 298,-118"/>
<text text-anchor="middle" x="351.5" y="-125" font-family="Helvetica,sans-Serif" font-size="10.00">SComponent/c_xyz.h</text>
</a>
</g>
</g>
<!-- Node13&#45;&gt;Node16 -->
<g id="edge26" class="edge">
<title>Node13&#45;&gt;Node16</title>
<path fill="none" stroke="midnightblue" d="M404.27,-184.73C394.67,-174.5 378.59,-157.36 366.7,-144.69"/>
<polygon fill="midnightblue" stroke="midnightblue" points="368.99,-142.02 359.6,-137.13 363.89,-146.81 368.99,-142.02"/>
</g>
<!-- Node14&#45;&gt;Node3 -->
<g id="edge22" class="edge">
<title>Node14&#45;&gt;Node3</title>
<path fill="none" stroke="midnightblue" d="M490.5,-142.54C501.9,-174.51 529.88,-253.04 544.03,-292.72"/>
<polygon fill="midnightblue" stroke="midnightblue" points="540.81,-294.12 547.46,-302.37 547.4,-291.77 540.81,-294.12"/>
</g>
<!-- Node14&#45;&gt;Node6 -->
<g id="edge23" class="edge">
<title>Node14&#45;&gt;Node6</title>
<path fill="none" stroke="midnightblue" d="M505.81,-112.37C523.17,-98.45 543.7,-76.36 532.5,-56 524.61,-41.66 510.01,-31.25 496.1,-24.08"/>
<polygon fill="midnightblue" stroke="midnightblue" points="497.2,-20.73 486.66,-19.62 494.21,-27.06 497.2,-20.73"/>
</g>
<!-- Node15 -->
<g id="node15" class="node">
<title>Node15</title>
<g id="a_node15"><a xlink:href="GX_8h.html" target="_top" xlink:title=" ">
<polygon fill="white" stroke="black" points="473,-56.5 473,-75.5 524,-75.5 524,-56.5 473,-56.5"/>
<text text-anchor="middle" x="498.5" y="-63.5" font-family="Helvetica,sans-Serif" font-size="10.00">gx/GX.h</text>
</a>
</g>
</g>
<!-- Node14&#45;&gt;Node15 -->
<g id="edge24" class="edge">
<title>Node14&#45;&gt;Node15</title>
<path fill="none" stroke="midnightblue" d="M488.58,-112.4C490.33,-104.38 492.55,-94.23 494.44,-85.57"/>
<polygon fill="midnightblue" stroke="midnightblue" points="497.89,-86.17 496.61,-75.66 491.05,-84.68 497.89,-86.17"/>
</g>
<!-- Node15&#45;&gt;Node6 -->
<g id="edge25" class="edge">
<title>Node15&#45;&gt;Node6</title>
<path fill="none" stroke="midnightblue" d="M492.39,-56.08C487.22,-48.53 479.65,-37.49 473.31,-28.23"/>
<polygon fill="midnightblue" stroke="midnightblue" points="476.04,-26.02 467.5,-19.75 470.26,-29.98 476.04,-26.02"/>
</g>
<!-- Node16&#45;&gt;Node7 -->
<g id="edge29" class="edge">
<title>Node16&#45;&gt;Node7</title>
<path fill="none" stroke="midnightblue" d="M345.26,-137.29C334.38,-152.47 311.05,-184.45 289.5,-210 281.15,-219.91 271.28,-230.52 263.22,-238.95"/>
<polygon fill="midnightblue" stroke="midnightblue" points="260.57,-236.65 256.14,-246.28 265.61,-241.52 260.57,-236.65"/>
</g>
<!-- Node17 -->
<g id="node17" class="node">
<title>Node17</title>
<g id="a_node17"><a xlink:href="c__math_8h.html" target="_top" xlink:title=" ">
<polygon fill="white" stroke="black" points="259.5,-56.5 259.5,-75.5 375.5,-75.5 375.5,-56.5 259.5,-56.5"/>
<text text-anchor="middle" x="317.5" y="-63.5" font-family="Helvetica,sans-Serif" font-size="10.00">SComponent/c_math.h</text>
</a>
</g>
</g>
<!-- Node16&#45;&gt;Node17 -->
<g id="edge27" class="edge">
<title>Node16&#45;&gt;Node17</title>
<path fill="none" stroke="midnightblue" d="M346.63,-117.98C341.63,-109.23 333.71,-95.37 327.39,-84.31"/>
<polygon fill="midnightblue" stroke="midnightblue" points="330.36,-82.46 322.36,-75.51 324.28,-85.93 330.36,-82.46"/>
</g>
<!-- Node18 -->
<g id="node18" class="node">
<title>Node18</title>
<g id="a_node18"><a xlink:href="mtx__vec_8h.html" target="_top" xlink:title=" ">
<polygon fill="white" stroke="black" points="394,-56.5 394,-75.5 455,-75.5 455,-56.5 394,-56.5"/>
<text text-anchor="middle" x="424.5" y="-63.5" font-family="Helvetica,sans-Serif" font-size="10.00">mtx_vec.h</text>
</a>
</g>
</g>
<!-- Node16&#45;&gt;Node18 -->
<g id="edge30" class="edge">
<title>Node16&#45;&gt;Node18</title>
<path fill="none" stroke="midnightblue" d="M361.96,-117.98C373.45,-108.61 392.13,-93.38 406.09,-82.01"/>
<polygon fill="midnightblue" stroke="midnightblue" points="408.52,-84.54 414.06,-75.51 404.1,-79.11 408.52,-84.54"/>
</g>
<!-- Node17&#45;&gt;Node7 -->
<g id="edge28" class="edge">
<title>Node17&#45;&gt;Node7</title>
<path fill="none" stroke="midnightblue" d="M310.92,-75.52C304.44,-84.26 294.64,-98.46 288.5,-112 269.18,-154.58 256.68,-208.46 251.02,-236.36"/>
<polygon fill="midnightblue" stroke="midnightblue" points="247.56,-235.82 249.07,-246.31 254.43,-237.17 247.56,-235.82"/>
</g>
<!-- Node18&#45;&gt;Node6 -->
<g id="edge31" class="edge">
<title>Node18&#45;&gt;Node6</title>
<path fill="none" stroke="midnightblue" d="M430.61,-56.08C435.78,-48.53 443.35,-37.49 449.69,-28.23"/>
<polygon fill="midnightblue" stroke="midnightblue" points="452.74,-29.98 455.5,-19.75 446.96,-26.02 452.74,-29.98"/>
</g>
</g>
</svg>
        <g id="navigator" transform="translate(0 0)" fill="#404254">
                <rect fill="#f2f5e9" fill-opacity="0.5" stroke="#606060" stroke-width=".5" x="0" y="0" width="60" height="60"/>
                <use id="zoomplus" xlink:href="#zoomPlus" x="17" y="9" onmousedown="handleZoom(evt,'in')"/>
                <use id="zoomminus" xlink:href="#zoomMin" x="42" y="9" onmousedown="handleZoom(evt,'out')"/>
                <use id="reset" xlink:href="#resetDef" x="30" y="36" onmousedown="handleReset()"/>
                <g id="arrowUp" xlink:href="#dirArrow" transform="translate(30 24)" onmousedown="handlePan(0,-1)">
                  <use xlink:href="#rim" fill="#404040">
                        <set attributeName="fill" to="#808080" begin="arrowUp.mouseover" end="arrowUp.mouseout"/>
                  </use>
                  <path fill="none" stroke="white" stroke-width="1.5" d="M0,-3.0v7 M-2.5,-0.5L0,-3.0L2.5,-0.5"/>
                </g>
                <g id="arrowRight" xlink:href="#dirArrow" transform="rotate(90) translate(36 -43)" onmousedown="handlePan(1,0)">
                  <use xlink:href="#rim" fill="#404040">
                        <set attributeName="fill" to="#808080" begin="arrowRight.mouseover" end="arrowRight.mouseout"/>
                  </use>
                  <path fill="none" stroke="white" stroke-width="1.5" d="M0,-3.0v7 M-2.5,-0.5L0,-3.0L2.5,-0.5"/>
                </g>
                <g id="arrowDown" xlink:href="#dirArrow" transform="rotate(180) translate(-30 -48)" onmousedown="handlePan(0,1)">
                  <use xlink:href="#rim" fill="#404040">
                        <set attributeName="fill" to="#808080" begin="arrowDown.mouseover" end="arrowDown.mouseout"/>
                  </use>
                  <path fill="none" stroke="white" stroke-width="1.5" d="M0,-3.0v7 M-2.5,-0.5L0,-3.0L2.5,-0.5"/>
                </g>
                <g id="arrowLeft" xlink:href="#dirArrow" transform="rotate(270) translate(-36 17)" onmousedown="handlePan(-1,0)">
                  <use xlink:href="#rim" fill="#404040">
                        <set attributeName="fill" to="#808080" begin="arrowLeft.mouseover" end="arrowLeft.mouseout"/>
                  </use>
                  <path fill="none" stroke="white" stroke-width="1.5" d="M0,-3.0v7 M-2.5,-0.5L0,-3.0L2.5,-0.5"/>
                </g>
        </g>
        <svg viewBox="0 0 15 15" width="100%" height="30px" preserveAspectRatio="xMaxYMin meet">
         <g id="arrow_out" transform="scale(0.3 0.3)">
          <a xlink:href="JKRSolidHeap_8cpp__incl_org.svg" target="_base">
           <rect id="button" ry="5" rx="5" y="6" x="6" height="38" width="38"
                fill="#f2f5e9" fill-opacity="0.5" stroke="#606060" stroke-width="1.0"/>
           <path id="arrow"
             d="M 11.500037,31.436501 C 11.940474,20.09759 22.043105,11.32322 32.158766,21.979434 L 37.068811,17.246167 C 37.068811,17.246167 37.088388,32 37.088388,32 L 22.160133,31.978069 C 22.160133,31.978069 26.997745,27.140456 26.997745,27.140456 C 18.528582,18.264221 13.291696,25.230495 11.500037,31.436501 z"
             style="fill:#404040;"/>
          </a>
         </g>
        </svg>
</svg>
