<?xml version="1.0" encoding="UTF-8" standalone="no"?>
<!DOCTYPE svg PUBLIC "-//W3C//DTD SVG 1.1//EN"
 "http://www.w3.org/Graphics/SVG/1.1/DTD/svg11.dtd">
<!-- Generated by graphviz version 2.46.0 (20210122.1329)
 -->
<!-- Title: include/JSystem/JKernel/JKRThread/JKRThread.h Pages: 1 -->
<svg width="897pt" height="475pt"
 viewBox="0.00 0.00 897.00 475.00" xmlns="http://www.w3.org/2000/svg" xmlns:xlink="http://www.w3.org/1999/xlink">
<g id="graph0" class="graph" transform="scale(1 1) rotate(0) translate(4 471)">
<title>include/JSystem/JKernel/JKRThread/JKRThread.h</title>
<polygon fill="white" stroke="transparent" points="-4,4 -4,-471 893,-471 893,4 -4,4"/>
<!-- Node1 -->
<g id="node1" class="node">
<title>Node1</title>
<g id="a_node1"><a xlink:title=" ">
<polygon fill="#bfbfbf" stroke="black" points="15,-436.5 15,-466.5 143,-466.5 143,-436.5 15,-436.5"/>
<text text-anchor="start" x="23" y="-454.5" font-family="Helvetica,sans-Serif" font-size="10.00">include/JSystem/JKernel</text>
<text text-anchor="middle" x="79" y="-443.5" font-family="Helvetica,sans-Serif" font-size="10.00">/JKRThread/JKRThread.h</text>
</a>
</g>
</g>
<!-- Node2 -->
<g id="node2" class="node">
<title>Node2</title>
<g id="a_node2"><a xlink:href="JKRDisposer_8h.html" target="_top" xlink:title=" ">
<polygon fill="white" stroke="black" points="28.5,-123.5 28.5,-153.5 179.5,-153.5 179.5,-123.5 28.5,-123.5"/>
<text text-anchor="start" x="36.5" y="-141.5" font-family="Helvetica,sans-Serif" font-size="10.00">JSystem/JKernel/JKRDisposer</text>
<text text-anchor="middle" x="104" y="-130.5" font-family="Helvetica,sans-Serif" font-size="10.00">/JKRDisposer.h</text>
</a>
</g>
</g>
<!-- Node1&#45;&gt;Node2 -->
<g id="edge1" class="edge">
<title>Node1&#45;&gt;Node2</title>
<path fill="none" stroke="midnightblue" d="M79,-436.28C79,-414.48 79,-371.49 79,-335 79,-335 79,-335 79,-271.5 79,-233.17 89.3,-189.65 96.68,-163.4"/>
<polygon fill="midnightblue" stroke="midnightblue" points="100.1,-164.17 99.53,-153.59 93.38,-162.22 100.1,-164.17"/>
</g>
<!-- Node4 -->
<g id="node4" class="node">
<title>Node4</title>
<g id="a_node4"><a xlink:href="types_8h.html" target="_top" xlink:title=" ">
<polygon fill="white" stroke="black" points="441.5,-0.5 441.5,-19.5 522.5,-19.5 522.5,-0.5 441.5,-0.5"/>
<text text-anchor="middle" x="482" y="-7.5" font-family="Helvetica,sans-Serif" font-size="10.00">dolphin/types.h</text>
</a>
</g>
</g>
<!-- Node1&#45;&gt;Node4 -->
<g id="edge5" class="edge">
<title>Node1&#45;&gt;Node4</title>
<path fill="none" stroke="midnightblue" d="M60.68,-436.24C37.34,-416.32 0,-377.76 0,-335 0,-335 0,-335 0,-137.5 0,-49.04 307.58,-21.18 431.33,-13.56"/>
<polygon fill="midnightblue" stroke="midnightblue" points="431.55,-17.05 441.32,-12.96 431.13,-10.06 431.55,-17.05"/>
</g>
<!-- Node5 -->
<g id="node5" class="node">
<title>Node5</title>
<g id="a_node5"><a xlink:href="global_8h.html" target="_top" xlink:title=" ">
<polygon fill="white" stroke="black" points="575,-380.5 575,-399.5 625,-399.5 625,-380.5 575,-380.5"/>
<text text-anchor="middle" x="600" y="-387.5" font-family="Helvetica,sans-Serif" font-size="10.00">global.h</text>
</a>
</g>
</g>
<!-- Node1&#45;&gt;Node5 -->
<g id="edge6" class="edge">
<title>Node1&#45;&gt;Node5</title>
<path fill="none" stroke="midnightblue" d="M143.15,-443.17C254.11,-430.5 478.32,-404.9 564.83,-395.02"/>
<polygon fill="midnightblue" stroke="midnightblue" points="565.38,-398.48 574.92,-393.86 564.59,-391.52 565.38,-398.48"/>
</g>
<!-- Node3 -->
<g id="node3" class="node">
<title>Node3</title>
<g id="a_node3"><a xlink:href="JSUList_8h.html" target="_top" xlink:title=" ">
<polygon fill="white" stroke="black" points="236,-56.5 236,-86.5 372,-86.5 372,-56.5 236,-56.5"/>
<text text-anchor="start" x="244" y="-74.5" font-family="Helvetica,sans-Serif" font-size="10.00">JSystem/JSupport/JSUList</text>
<text text-anchor="middle" x="304" y="-63.5" font-family="Helvetica,sans-Serif" font-size="10.00">/JSUList.h</text>
</a>
</g>
</g>
<!-- Node2&#45;&gt;Node3 -->
<g id="edge2" class="edge">
<title>Node2&#45;&gt;Node3</title>
<path fill="none" stroke="midnightblue" d="M147.4,-123.4C177.8,-113.52 218.61,-100.25 250.94,-89.74"/>
<polygon fill="midnightblue" stroke="midnightblue" points="252.26,-93 260.69,-86.58 250.1,-86.34 252.26,-93"/>
</g>
<!-- Node2&#45;&gt;Node4 -->
<g id="edge4" class="edge">
<title>Node2&#45;&gt;Node4</title>
<path fill="none" stroke="midnightblue" d="M115.07,-123.28C130.54,-104.51 160.52,-71.98 194,-56 270.9,-19.28 371.24,-11.4 430.92,-10.3"/>
<polygon fill="midnightblue" stroke="midnightblue" points="431.25,-13.8 441.21,-10.17 431.17,-6.8 431.25,-13.8"/>
</g>
<!-- Node3&#45;&gt;Node4 -->
<g id="edge3" class="edge">
<title>Node3&#45;&gt;Node4</title>
<path fill="none" stroke="midnightblue" d="M346.18,-56.4C376.81,-46.16 417.77,-32.47 446.67,-22.81"/>
<polygon fill="midnightblue" stroke="midnightblue" points="447.98,-26.06 456.36,-19.57 445.77,-19.42 447.98,-26.06"/>
</g>
<!-- Node5&#45;&gt;Node4 -->
<g id="edge7" class="edge">
<title>Node5&#45;&gt;Node4</title>
<path fill="none" stroke="midnightblue" d="M625.43,-384.56C651.56,-378.91 692.25,-367 720,-344 751.97,-317.51 760.28,-298.04 754,-257 738.84,-157.98 737.42,-108.33 652,-56 615.63,-33.72 568.32,-22.36 532.85,-16.63"/>
<polygon fill="midnightblue" stroke="midnightblue" points="533.13,-13.13 522.72,-15.09 532.08,-20.05 533.13,-13.13"/>
</g>
<!-- Node6 -->
<g id="node6" class="node">
<title>Node6</title>
<g id="a_node6"><a xlink:href="AR_8h.html" target="_top" xlink:title=" ">
<polygon fill="white" stroke="black" points="786.5,-129 786.5,-148 835.5,-148 835.5,-129 786.5,-129"/>
<text text-anchor="middle" x="811" y="-136" font-family="Helvetica,sans-Serif" font-size="10.00">ar/AR.h</text>
</a>
</g>
</g>
<!-- Node5&#45;&gt;Node6 -->
<g id="edge8" class="edge">
<title>Node5&#45;&gt;Node6</title>
<path fill="none" stroke="midnightblue" d="M625.23,-386.46C671.17,-381.3 765.72,-367.98 787,-344 833.96,-291.08 822.65,-197.74 815.1,-158.13"/>
<polygon fill="midnightblue" stroke="midnightblue" points="818.52,-157.35 813.08,-148.25 811.66,-158.75 818.52,-157.35"/>
</g>
<!-- Node7 -->
<g id="node7" class="node">
<title>Node7</title>
<g id="a_node7"><a xlink:href="ARQ_8h.html" target="_top" xlink:title=" ">
<polygon fill="white" stroke="black" points="833,-62 833,-81 889,-81 889,-62 833,-62"/>
<text text-anchor="middle" x="861" y="-69" font-family="Helvetica,sans-Serif" font-size="10.00">ar/ARQ.h</text>
</a>
</g>
</g>
<!-- Node5&#45;&gt;Node7 -->
<g id="edge10" class="edge">
<title>Node5&#45;&gt;Node7</title>
<path fill="none" stroke="midnightblue" d="M625.31,-389.31C691.39,-388.66 864,-377.06 864,-273.5 864,-273.5 864,-273.5 864,-204.5 864,-164.15 862.58,-116.87 861.7,-91.28"/>
<polygon fill="midnightblue" stroke="midnightblue" points="865.19,-91.02 861.33,-81.15 858.19,-91.27 865.19,-91.02"/>
</g>
<!-- Node8 -->
<g id="node8" class="node">
<title>Node8</title>
<g id="a_node8"><a xlink:href="functions_8h.html" target="_top" xlink:title=" ">
<polygon fill="white" stroke="black" points="628,-324.5 628,-343.5 692,-343.5 692,-324.5 628,-324.5"/>
<text text-anchor="middle" x="660" y="-331.5" font-family="Helvetica,sans-Serif" font-size="10.00">functions.h</text>
</a>
</g>
</g>
<!-- Node5&#45;&gt;Node8 -->
<g id="edge12" class="edge">
<title>Node5&#45;&gt;Node8</title>
<path fill="none" stroke="midnightblue" d="M609.64,-380.32C618.51,-372.34 631.87,-360.31 642.61,-350.65"/>
<polygon fill="midnightblue" stroke="midnightblue" points="645.09,-353.13 650.18,-343.83 640.41,-347.92 645.09,-353.13"/>
</g>
<!-- Node10 -->
<g id="node10" class="node">
<title>Node10</title>
<g id="a_node10"><a xlink:href="mwcc_8h.html" target="_top" xlink:title=" ">
<polygon fill="white" stroke="black" points="695,-263 695,-282 745,-282 745,-263 695,-263"/>
<text text-anchor="middle" x="720" y="-270" font-family="Helvetica,sans-Serif" font-size="10.00">mwcc.h</text>
</a>
</g>
</g>
<!-- Node5&#45;&gt;Node10 -->
<g id="edge20" class="edge">
<title>Node5&#45;&gt;Node10</title>
<path fill="none" stroke="midnightblue" d="M625.28,-384.18C648.29,-378.49 681.54,-366.76 701,-344 713.33,-329.58 717.74,-307.92 719.27,-292.42"/>
<polygon fill="midnightblue" stroke="midnightblue" points="722.77,-292.63 719.95,-282.41 715.78,-292.15 722.77,-292.63"/>
</g>
<!-- Node11 -->
<g id="node11" class="node">
<title>Node11</title>
<g id="a_node11"><a xlink:href="OS_8h.html" target="_top" xlink:title=" ">
<polygon fill="white" stroke="black" points="587,-263 587,-282 639,-282 639,-263 587,-263"/>
<text text-anchor="middle" x="613" y="-270" font-family="Helvetica,sans-Serif" font-size="10.00">os/OS.h</text>
</a>
</g>
</g>
<!-- Node5&#45;&gt;Node11 -->
<g id="edge21" class="edge">
<title>Node5&#45;&gt;Node11</title>
<path fill="none" stroke="midnightblue" d="M600.98,-380.32C603.07,-361.76 608.01,-317.84 610.86,-292.47"/>
<polygon fill="midnightblue" stroke="midnightblue" points="614.37,-292.61 612.01,-282.28 607.41,-291.83 614.37,-292.61"/>
</g>
<!-- Node13 -->
<g id="node13" class="node">
<title>Node13</title>
<g id="a_node13"><a xlink:href="variables_8h.html" target="_top" xlink:title=" ">
<polygon fill="white" stroke="black" points="359.5,-324.5 359.5,-343.5 422.5,-343.5 422.5,-324.5 359.5,-324.5"/>
<text text-anchor="middle" x="391" y="-331.5" font-family="Helvetica,sans-Serif" font-size="10.00">variables.h</text>
</a>
</g>
</g>
<!-- Node5&#45;&gt;Node13 -->
<g id="edge22" class="edge">
<title>Node5&#45;&gt;Node13</title>
<path fill="none" stroke="midnightblue" d="M574.79,-382.49C539.51,-373.37 474.98,-356.7 432.54,-345.73"/>
<polygon fill="midnightblue" stroke="midnightblue" points="433.34,-342.33 422.79,-343.21 431.59,-349.1 433.34,-342.33"/>
</g>
<!-- Node6&#45;&gt;Node4 -->
<g id="edge9" class="edge">
<title>Node6&#45;&gt;Node4</title>
<path fill="none" stroke="midnightblue" d="M809.59,-128.93C806.33,-111.98 796.55,-74.25 772,-56 735.07,-28.55 605.9,-17.43 533.02,-13.27"/>
<polygon fill="midnightblue" stroke="midnightblue" points="532.87,-9.75 522.7,-12.7 532.49,-16.74 532.87,-9.75"/>
</g>
<!-- Node7&#45;&gt;Node4 -->
<g id="edge11" class="edge">
<title>Node7&#45;&gt;Node4</title>
<path fill="none" stroke="midnightblue" d="M836.93,-61.87C830.22,-59.71 822.88,-57.56 816,-56 716.88,-33.54 598.49,-20.84 532.62,-15"/>
<polygon fill="midnightblue" stroke="midnightblue" points="532.78,-11.5 522.51,-14.12 532.17,-18.47 532.78,-11.5"/>
</g>
<!-- Node9 -->
<g id="node9" class="node">
<title>Node9</title>
<g id="a_node9"><a xlink:href="mtx__vec_8h.html" target="_top" xlink:title=" ">
<polygon fill="white" stroke="black" points="641.5,-129 641.5,-148 702.5,-148 702.5,-129 641.5,-129"/>
<text text-anchor="middle" x="672" y="-136" font-family="Helvetica,sans-Serif" font-size="10.00">mtx_vec.h</text>
</a>
</g>
</g>
<!-- Node8&#45;&gt;Node9 -->
<g id="edge13" class="edge">
<title>Node8&#45;&gt;Node9</title>
<path fill="none" stroke="midnightblue" d="M660.53,-324.44C662.34,-295.29 668.28,-199.47 670.83,-158.43"/>
<polygon fill="midnightblue" stroke="midnightblue" points="674.32,-158.6 671.45,-148.41 667.34,-158.17 674.32,-158.6"/>
</g>
<!-- Node8&#45;&gt;Node10 -->
<g id="edge15" class="edge">
<title>Node8&#45;&gt;Node10</title>
<path fill="none" stroke="midnightblue" d="M668.6,-324.48C677.86,-315.28 692.82,-300.46 704.21,-289.16"/>
<polygon fill="midnightblue" stroke="midnightblue" points="706.78,-291.54 711.42,-282.01 701.85,-286.57 706.78,-291.54"/>
</g>
<!-- Node8&#45;&gt;Node11 -->
<g id="edge16" class="edge">
<title>Node8&#45;&gt;Node11</title>
<path fill="none" stroke="midnightblue" d="M653.27,-324.48C646.22,-315.55 634.97,-301.31 626.15,-290.14"/>
<polygon fill="midnightblue" stroke="midnightblue" points="628.67,-287.69 619.72,-282.01 623.17,-292.03 628.67,-287.69"/>
</g>
<!-- Node9&#45;&gt;Node4 -->
<g id="edge14" class="edge">
<title>Node9&#45;&gt;Node4</title>
<path fill="none" stroke="midnightblue" d="M669.64,-128.96C664.62,-112.4 651.31,-75.8 627,-56 600.19,-34.16 562.79,-22.89 532.69,-17.09"/>
<polygon fill="midnightblue" stroke="midnightblue" points="533.24,-13.63 522.78,-15.32 532.01,-20.52 533.24,-13.63"/>
</g>
<!-- Node11&#45;&gt;Node4 -->
<g id="edge17" class="edge">
<title>Node11&#45;&gt;Node4</title>
<path fill="none" stroke="midnightblue" d="M613.54,-262.6C614.98,-230.9 615.85,-121.82 565,-56 553.52,-41.14 535.71,-30.57 519.52,-23.43"/>
<polygon fill="midnightblue" stroke="midnightblue" points="520.81,-20.18 510.23,-19.61 518.15,-26.65 520.81,-20.18"/>
</g>
<!-- Node12 -->
<g id="node12" class="node">
<title>Node12</title>
<g id="a_node12"><a xlink:href="dvd_8h.html" target="_top" xlink:title=" ">
<polygon fill="white" stroke="black" points="496.5,-62 496.5,-81 555.5,-81 555.5,-62 496.5,-62"/>
<text text-anchor="middle" x="526" y="-69" font-family="Helvetica,sans-Serif" font-size="10.00">dvd/dvd.h</text>
</a>
</g>
</g>
<!-- Node11&#45;&gt;Node12 -->
<g id="edge18" class="edge">
<title>Node11&#45;&gt;Node12</title>
<path fill="none" stroke="midnightblue" d="M609.26,-262.95C596.16,-232.97 552.11,-132.23 533.94,-90.67"/>
<polygon fill="midnightblue" stroke="midnightblue" points="537.04,-89 529.82,-81.24 530.62,-91.81 537.04,-89"/>
</g>
<!-- Node12&#45;&gt;Node4 -->
<g id="edge19" class="edge">
<title>Node12&#45;&gt;Node4</title>
<path fill="none" stroke="midnightblue" d="M519.7,-61.98C513.1,-53.05 502.56,-38.81 494.31,-27.64"/>
<polygon fill="midnightblue" stroke="midnightblue" points="497.05,-25.47 488.29,-19.51 491.42,-29.63 497.05,-25.47"/>
</g>
<!-- Node13&#45;&gt;Node3 -->
<g id="edge23" class="edge">
<title>Node13&#45;&gt;Node3</title>
<path fill="none" stroke="midnightblue" d="M359.38,-325.48C327.44,-317.16 281.36,-302.95 271,-288 229.8,-228.55 268.51,-137.76 290.77,-95.56"/>
<polygon fill="midnightblue" stroke="midnightblue" points="293.93,-97.07 295.63,-86.62 287.78,-93.73 293.93,-97.07"/>
</g>
<!-- Node14 -->
<g id="node14" class="node">
<title>Node14</title>
<g id="a_node14"><a xlink:href="JUTXfb_8h.html" target="_top" xlink:title=" ">
<polygon fill="white" stroke="black" points="280.5,-257.5 280.5,-287.5 405.5,-287.5 405.5,-257.5 280.5,-257.5"/>
<text text-anchor="start" x="288.5" y="-275.5" font-family="Helvetica,sans-Serif" font-size="10.00">JSystem/JUtility/JUTXfb</text>
<text text-anchor="middle" x="343" y="-264.5" font-family="Helvetica,sans-Serif" font-size="10.00">/JUTXfb.h</text>
</a>
</g>
</g>
<!-- Node13&#45;&gt;Node14 -->
<g id="edge24" class="edge">
<title>Node13&#45;&gt;Node14</title>
<path fill="none" stroke="midnightblue" d="M384.12,-324.48C378.05,-316.94 368.92,-305.63 360.8,-295.57"/>
<polygon fill="midnightblue" stroke="midnightblue" points="363.32,-293.11 354.31,-287.52 357.87,-297.5 363.32,-293.11"/>
</g>
<!-- Node17 -->
<g id="node17" class="node">
<title>Node17</title>
<g id="a_node17"><a xlink:href="c__xyz_8h.html" target="_top" xlink:title=" ">
<polygon fill="white" stroke="black" points="423.5,-263 423.5,-282 530.5,-282 530.5,-263 423.5,-263"/>
<text text-anchor="middle" x="477" y="-270" font-family="Helvetica,sans-Serif" font-size="10.00">SComponent/c_xyz.h</text>
</a>
</g>
</g>
<!-- Node13&#45;&gt;Node17 -->
<g id="edge32" class="edge">
<title>Node13&#45;&gt;Node17</title>
<path fill="none" stroke="midnightblue" d="M403.32,-324.48C417.12,-314.93 439.7,-299.31 456.23,-287.87"/>
<polygon fill="midnightblue" stroke="midnightblue" points="458.47,-290.58 464.7,-282.01 454.49,-284.82 458.47,-290.58"/>
</g>
<!-- Node14&#45;&gt;Node4 -->
<g id="edge29" class="edge">
<title>Node14&#45;&gt;Node4</title>
<path fill="none" stroke="midnightblue" d="M354.4,-257.39C362.11,-247.52 372.26,-233.85 380,-221 420.93,-153.06 458.88,-66.29 474.5,-29.17"/>
<polygon fill="midnightblue" stroke="midnightblue" points="477.83,-30.27 478.45,-19.69 471.37,-27.57 477.83,-30.27"/>
</g>
<!-- Node15 -->
<g id="node15" class="node">
<title>Node15</title>
<g id="a_node15"><a xlink:href="JKRHeap_8h.html" target="_top" xlink:title=" ">
<polygon fill="white" stroke="black" points="107,-190.5 107,-220.5 243,-220.5 243,-190.5 107,-190.5"/>
<text text-anchor="start" x="115" y="-208.5" font-family="Helvetica,sans-Serif" font-size="10.00">JSystem/JKernel/JKRHeap</text>
<text text-anchor="middle" x="175" y="-197.5" font-family="Helvetica,sans-Serif" font-size="10.00">/JKRHeap.h</text>
</a>
</g>
</g>
<!-- Node14&#45;&gt;Node15 -->
<g id="edge25" class="edge">
<title>Node14&#45;&gt;Node15</title>
<path fill="none" stroke="midnightblue" d="M306.55,-257.4C281.45,-247.69 247.91,-234.71 220.98,-224.29"/>
<polygon fill="midnightblue" stroke="midnightblue" points="221.97,-220.92 211.38,-220.58 219.45,-227.45 221.97,-220.92"/>
</g>
<!-- Node16 -->
<g id="node16" class="node">
<title>Node16</title>
<g id="a_node16"><a xlink:href="GX_8h.html" target="_top" xlink:title=" ">
<polygon fill="white" stroke="black" points="320.5,-196 320.5,-215 371.5,-215 371.5,-196 320.5,-196"/>
<text text-anchor="middle" x="346" y="-203" font-family="Helvetica,sans-Serif" font-size="10.00">gx/GX.h</text>
</a>
</g>
</g>
<!-- Node14&#45;&gt;Node16 -->
<g id="edge30" class="edge">
<title>Node14&#45;&gt;Node16</title>
<path fill="none" stroke="midnightblue" d="M343.65,-257.4C344.09,-247.96 344.66,-235.45 345.14,-225.19"/>
<polygon fill="midnightblue" stroke="midnightblue" points="348.63,-225.35 345.6,-215.19 341.64,-225.02 348.63,-225.35"/>
</g>
<!-- Node15&#45;&gt;Node2 -->
<g id="edge26" class="edge">
<title>Node15&#45;&gt;Node2</title>
<path fill="none" stroke="midnightblue" d="M159.59,-190.4C150.01,-181.62 137.51,-170.18 126.8,-160.37"/>
<polygon fill="midnightblue" stroke="midnightblue" points="129.12,-157.75 119.38,-153.58 124.39,-162.91 129.12,-157.75"/>
</g>
<!-- Node15&#45;&gt;Node4 -->
<g id="edge27" class="edge">
<title>Node15&#45;&gt;Node4</title>
<path fill="none" stroke="midnightblue" d="M179.1,-190.25C189.4,-154.84 216.33,-65.06 227,-56 257.08,-30.44 365.88,-18.77 431.25,-13.96"/>
<polygon fill="midnightblue" stroke="midnightblue" points="431.62,-17.45 441.35,-13.25 431.13,-10.46 431.62,-17.45"/>
</g>
<!-- Node15&#45;&gt;Node5 -->
<g id="edge28" class="edge">
<title>Node15&#45;&gt;Node5</title>
<path fill="none" stroke="midnightblue" d="M183.22,-220.76C193.97,-238.39 214.24,-268.46 238,-288 336.27,-368.81 494.86,-385.11 564.86,-388.29"/>
<polygon fill="midnightblue" stroke="midnightblue" points="564.79,-391.79 574.92,-388.69 565.07,-384.8 564.79,-391.79"/>
</g>
<!-- Node16&#45;&gt;Node4 -->
<g id="edge31" class="edge">
<title>Node16&#45;&gt;Node4</title>
<path fill="none" stroke="midnightblue" d="M349.1,-195.69C357.92,-171.45 385.1,-102.43 424,-56 434.04,-44.01 447.79,-33.18 459.37,-25.14"/>
<polygon fill="midnightblue" stroke="midnightblue" points="461.34,-28.04 467.72,-19.57 457.46,-22.21 461.34,-28.04"/>
</g>
<!-- Node17&#45;&gt;Node5 -->
<g id="edge35" class="edge">
<title>Node17&#45;&gt;Node5</title>
<path fill="none" stroke="midnightblue" d="M484.65,-282.06C496.93,-295.65 521.99,-322.8 545,-344 556.45,-354.56 569.99,-365.64 580.76,-374.17"/>
<polygon fill="midnightblue" stroke="midnightblue" points="578.69,-377 588.72,-380.41 583.01,-371.48 578.69,-377"/>
</g>
<!-- Node18 -->
<g id="node18" class="node">
<title>Node18</title>
<g id="a_node18"><a xlink:href="c__math_8h.html" target="_top" xlink:title=" ">
<polygon fill="white" stroke="black" points="431,-196 431,-215 547,-215 547,-196 431,-196"/>
<text text-anchor="middle" x="489" y="-203" font-family="Helvetica,sans-Serif" font-size="10.00">SComponent/c_math.h</text>
</a>
</g>
</g>
<!-- Node17&#45;&gt;Node18 -->
<g id="edge33" class="edge">
<title>Node17&#45;&gt;Node18</title>
<path fill="none" stroke="midnightblue" d="M478.62,-262.73C480.38,-253.18 483.26,-237.62 485.53,-225.28"/>
<polygon fill="midnightblue" stroke="midnightblue" points="489.03,-225.6 487.41,-215.13 482.15,-224.33 489.03,-225.6"/>
</g>
<!-- Node18&#45;&gt;Node5 -->
<g id="edge34" class="edge">
<title>Node18&#45;&gt;Node5</title>
<path fill="none" stroke="midnightblue" d="M499.66,-215.28C510.61,-224.72 527.6,-240.58 539,-257 564.93,-294.37 584.58,-344.52 593.94,-370.95"/>
<polygon fill="midnightblue" stroke="midnightblue" points="590.64,-372.12 597.21,-380.43 597.26,-369.84 590.64,-372.12"/>
</g>
</g>
</svg>
