<?xml version="1.0" encoding="UTF-8" standalone="no"?>
<!DOCTYPE svg PUBLIC "-//W3C//DTD SVG 1.1//EN"
 "http://www.w3.org/Graphics/SVG/1.1/DTD/svg11.dtd">
<!-- Generated by graphviz version 2.46.1 (20210215.1649)
 -->
<!-- Title: include/JSystem/JKernel/JKRThread/JKRThread.h Pages: 1 -->
<svg width="3036pt" height="441pt"
 viewBox="0.00 0.00 3036.00 441.00" xmlns="http://www.w3.org/2000/svg" xmlns:xlink="http://www.w3.org/1999/xlink">
<g id="graph0" class="graph" transform="scale(1 1) rotate(0) translate(4 437)">
<title>include/JSystem/JKernel/JKRThread/JKRThread.h</title>
<polygon fill="white" stroke="transparent" points="-4,4 -4,-437 3032,-437 3032,4 -4,4"/>
<!-- Node1 -->
<g id="node1" class="node">
<title>Node1</title>
<g id="a_node1"><a xlink:title=" ">
<polygon fill="#bfbfbf" stroke="black" points="209.5,-402.5 209.5,-432.5 337.5,-432.5 337.5,-402.5 209.5,-402.5"/>
<text text-anchor="start" x="217.5" y="-420.5" font-family="Helvetica,sans-Serif" font-size="10.00">include/JSystem/JKernel</text>
<text text-anchor="middle" x="273.5" y="-409.5" font-family="Helvetica,sans-Serif" font-size="10.00">/JKRThread/JKRThread.h</text>
</a>
</g>
</g>
<!-- Node2 -->
<g id="node2" class="node">
<title>Node2</title>
<g id="a_node2"><a xlink:href="JKRThread_8cpp.html" target="_top" xlink:title=" ">
<polygon fill="white" stroke="black" points="0,-335.5 0,-365.5 109,-365.5 109,-335.5 0,-335.5"/>
<text text-anchor="start" x="8" y="-353.5" font-family="Helvetica,sans-Serif" font-size="10.00">libs/JSystem/JKernel</text>
<text text-anchor="middle" x="54.5" y="-342.5" font-family="Helvetica,sans-Serif" font-size="10.00">/JKRThread.cpp</text>
</a>
</g>
</g>
<!-- Node1&#45;&gt;Node2 -->
<g id="edge1" class="edge">
<title>Node1&#45;&gt;Node2</title>
<path fill="none" stroke="midnightblue" d="M216.49,-399.58C180.92,-389.02 135.67,-375.59 102.04,-365.61"/>
<polygon fill="midnightblue" stroke="midnightblue" points="215.67,-402.99 226.25,-402.48 217.66,-396.28 215.67,-402.99"/>
</g>
<!-- Node3 -->
<g id="node3" class="node">
<title>Node3</title>
<g id="a_node3"><a xlink:href="JKRAram_8h.html" target="_top" xlink:title=" ">
<polygon fill="white" stroke="black" points="193,-196 193,-226 318,-226 318,-196 193,-196"/>
<text text-anchor="start" x="201" y="-214" font-family="Helvetica,sans-Serif" font-size="10.00">include/JSystem/JKernel</text>
<text text-anchor="middle" x="255.5" y="-203" font-family="Helvetica,sans-Serif" font-size="10.00">/JKRAram/JKRAram.h</text>
</a>
</g>
</g>
<!-- Node1&#45;&gt;Node3 -->
<g id="edge2" class="edge">
<title>Node1&#45;&gt;Node3</title>
<path fill="none" stroke="midnightblue" d="M296.07,-394.62C303.05,-386.38 309.86,-376.46 313.5,-366 318.03,-352.99 315.21,-348.67 313.5,-335 309.69,-304.52 309.59,-295.79 296.5,-268 289.21,-252.52 277.39,-236.98 268.31,-226.22"/>
<polygon fill="midnightblue" stroke="midnightblue" points="293.28,-392.49 289.15,-402.25 298.46,-397.19 293.28,-392.49"/>
</g>
<!-- Node11 -->
<g id="node11" class="node">
<title>Node11</title>
<g id="a_node11"><a xlink:href="JKRAramStream_8h.html" target="_top" xlink:title=" ">
<polygon fill="white" stroke="black" points="127,-335.5 127,-365.5 304,-365.5 304,-335.5 127,-335.5"/>
<text text-anchor="start" x="135" y="-353.5" font-family="Helvetica,sans-Serif" font-size="10.00">include/JSystem/JKernel</text>
<text text-anchor="middle" x="215.5" y="-342.5" font-family="Helvetica,sans-Serif" font-size="10.00">/JKRAramStream/JKRAramStream.h</text>
</a>
</g>
</g>
<!-- Node1&#45;&gt;Node11 -->
<g id="edge10" class="edge">
<title>Node1&#45;&gt;Node11</title>
<path fill="none" stroke="midnightblue" d="M254.08,-394.74C245.5,-385.12 235.66,-374.09 228.06,-365.58"/>
<polygon fill="midnightblue" stroke="midnightblue" points="251.65,-397.26 260.91,-402.4 256.87,-392.6 251.65,-397.26"/>
</g>
<!-- Node13 -->
<g id="node13" class="node">
<title>Node13</title>
<g id="a_node13"><a xlink:href="JKRDecomp_8h.html" target="_top" xlink:title=" ">
<polygon fill="white" stroke="black" points="590.5,-335.5 590.5,-365.5 730.5,-365.5 730.5,-335.5 590.5,-335.5"/>
<text text-anchor="start" x="598.5" y="-353.5" font-family="Helvetica,sans-Serif" font-size="10.00">include/JSystem/JKernel</text>
<text text-anchor="middle" x="660.5" y="-342.5" font-family="Helvetica,sans-Serif" font-size="10.00">/JKRDecomp/JKRDecomp.h</text>
</a>
</g>
</g>
<!-- Node1&#45;&gt;Node13 -->
<g id="edge13" class="edge">
<title>Node1&#45;&gt;Node13</title>
<path fill="none" stroke="midnightblue" d="M347.91,-404C417.9,-392.25 521.9,-374.78 590.44,-363.27"/>
<polygon fill="midnightblue" stroke="midnightblue" points="347.12,-400.59 337.84,-405.69 348.28,-407.49 347.12,-400.59"/>
</g>
<!-- Node4 -->
<g id="node4" class="node">
<title>Node4</title>
<g id="a_node4"><a xlink:href="m__Do__machine__exception_8cpp.html" target="_top" xlink:title=" ">
<polygon fill="white" stroke="black" points="850,-56.5 850,-86.5 979,-86.5 979,-56.5 850,-56.5"/>
<text text-anchor="start" x="858" y="-74.5" font-family="Helvetica,sans-Serif" font-size="10.00">src/m_Do/m_Do_machine</text>
<text text-anchor="middle" x="914.5" y="-63.5" font-family="Helvetica,sans-Serif" font-size="10.00">_exception.cpp</text>
</a>
</g>
</g>
<!-- Node3&#45;&gt;Node4 -->
<g id="edge3" class="edge">
<title>Node3&#45;&gt;Node4</title>
<path fill="none" stroke="midnightblue" d="M257.71,-185.79C260.94,-165.56 268.9,-137.72 288.5,-123 332.66,-89.82 699.09,-77.53 849.97,-73.84"/>
<polygon fill="midnightblue" stroke="midnightblue" points="254.22,-185.46 256.39,-195.84 261.16,-186.38 254.22,-185.46"/>
</g>
<!-- Node5 -->
<g id="node5" class="node">
<title>Node5</title>
<g id="a_node5"><a xlink:href="m__Do__main_8cpp.html" target="_top" xlink:title=" ">
<polygon fill="white" stroke="black" points="355,-62 355,-81 486,-81 486,-62 355,-62"/>
<text text-anchor="middle" x="420.5" y="-69" font-family="Helvetica,sans-Serif" font-size="10.00">src/m_Do/m_Do_main.cpp</text>
</a>
</g>
</g>
<!-- Node3&#45;&gt;Node5 -->
<g id="edge4" class="edge">
<title>Node3&#45;&gt;Node5</title>
<path fill="none" stroke="midnightblue" d="M247.98,-186.07C243.59,-167.11 241.22,-140.92 254.5,-123 277.46,-92.02 318.96,-79.4 354.72,-74.52"/>
<polygon fill="midnightblue" stroke="midnightblue" points="244.6,-186.99 250.54,-195.76 251.37,-185.2 244.6,-186.99"/>
</g>
<!-- Node6 -->
<g id="node6" class="node">
<title>Node6</title>
<g id="a_node6"><a xlink:href="JKRAram_8cpp.html" target="_top" xlink:title=" ">
<polygon fill="white" stroke="black" points="93,-123.5 93,-153.5 202,-153.5 202,-123.5 93,-123.5"/>
<text text-anchor="start" x="101" y="-141.5" font-family="Helvetica,sans-Serif" font-size="10.00">libs/JSystem/JKernel</text>
<text text-anchor="middle" x="147.5" y="-130.5" font-family="Helvetica,sans-Serif" font-size="10.00">/JKRAram.cpp</text>
</a>
</g>
</g>
<!-- Node3&#45;&gt;Node6 -->
<g id="edge5" class="edge">
<title>Node3&#45;&gt;Node6</title>
<path fill="none" stroke="midnightblue" d="M225.51,-190.42C207.59,-178.72 185.24,-164.13 169.06,-153.57"/>
<polygon fill="midnightblue" stroke="midnightblue" points="223.62,-193.37 233.9,-195.9 227.44,-187.51 223.62,-193.37"/>
</g>
<!-- Node7 -->
<g id="node7" class="node">
<title>Node7</title>
<g id="a_node7"><a xlink:href="JKRAramArchive_8cpp.html" target="_top" xlink:title=" ">
<polygon fill="white" stroke="black" points="567,-123.5 567,-153.5 680,-153.5 680,-123.5 567,-123.5"/>
<text text-anchor="start" x="575" y="-141.5" font-family="Helvetica,sans-Serif" font-size="10.00">libs/JSystem/JKernel</text>
<text text-anchor="middle" x="623.5" y="-130.5" font-family="Helvetica,sans-Serif" font-size="10.00">/JKRAramArchive.cpp</text>
</a>
</g>
</g>
<!-- Node3&#45;&gt;Node7 -->
<g id="edge6" class="edge">
<title>Node3&#45;&gt;Node7</title>
<path fill="none" stroke="midnightblue" d="M312.96,-193.4C317.86,-192.18 322.76,-191.02 327.5,-190 429.06,-168.06 456.41,-173.32 558.5,-154 561.23,-153.48 564.01,-152.94 566.82,-152.37"/>
<polygon fill="midnightblue" stroke="midnightblue" points="311.75,-190.1 302.94,-195.98 313.5,-196.87 311.75,-190.1"/>
</g>
<!-- Node8 -->
<g id="node8" class="node">
<title>Node8</title>
<g id="a_node8"><a xlink:href="JKRAramPiece_8cpp.html" target="_top" xlink:title=" ">
<polygon fill="white" stroke="black" points="440,-123.5 440,-153.5 549,-153.5 549,-123.5 440,-123.5"/>
<text text-anchor="start" x="448" y="-141.5" font-family="Helvetica,sans-Serif" font-size="10.00">libs/JSystem/JKernel</text>
<text text-anchor="middle" x="494.5" y="-130.5" font-family="Helvetica,sans-Serif" font-size="10.00">/JKRAramPiece.cpp</text>
</a>
</g>
</g>
<!-- Node3&#45;&gt;Node8 -->
<g id="edge7" class="edge">
<title>Node3&#45;&gt;Node8</title>
<path fill="none" stroke="midnightblue" d="M312.83,-193.09C353.73,-181.02 408.11,-164.98 446.68,-153.61"/>
<polygon fill="midnightblue" stroke="midnightblue" points="311.61,-189.8 303,-195.99 313.59,-196.51 311.61,-189.8"/>
</g>
<!-- Node9 -->
<g id="node9" class="node">
<title>Node9</title>
<g id="a_node9"><a xlink:href="JKRCompArchive_8cpp.html" target="_top" xlink:title=" ">
<polygon fill="white" stroke="black" points="980,-123.5 980,-153.5 1095,-153.5 1095,-123.5 980,-123.5"/>
<text text-anchor="start" x="988" y="-141.5" font-family="Helvetica,sans-Serif" font-size="10.00">libs/JSystem/JKernel</text>
<text text-anchor="middle" x="1037.5" y="-130.5" font-family="Helvetica,sans-Serif" font-size="10.00">/JKRCompArchive.cpp</text>
</a>
</g>
</g>
<!-- Node3&#45;&gt;Node9 -->
<g id="edge8" class="edge">
<title>Node3&#45;&gt;Node9</title>
<path fill="none" stroke="midnightblue" d="M310.61,-193.4C316.28,-192.08 321.98,-190.91 327.5,-190 609.91,-143.43 686.86,-192.39 970.5,-154 973.57,-153.58 976.7,-153.1 979.86,-152.58"/>
<polygon fill="midnightblue" stroke="midnightblue" points="309.35,-190.1 300.49,-195.91 311.04,-196.9 309.35,-190.1"/>
</g>
<!-- Node10 -->
<g id="node10" class="node">
<title>Node10</title>
<g id="a_node10"><a xlink:href="JKRDvdAramRipper_8cpp.html" target="_top" xlink:title=" ">
<polygon fill="white" stroke="black" points="297,-123.5 297,-153.5 422,-153.5 422,-123.5 297,-123.5"/>
<text text-anchor="start" x="305" y="-141.5" font-family="Helvetica,sans-Serif" font-size="10.00">libs/JSystem/JKernel</text>
<text text-anchor="middle" x="359.5" y="-130.5" font-family="Helvetica,sans-Serif" font-size="10.00">/JKRDvdAramRipper.cpp</text>
</a>
</g>
</g>
<!-- Node3&#45;&gt;Node10 -->
<g id="edge9" class="edge">
<title>Node3&#45;&gt;Node10</title>
<path fill="none" stroke="midnightblue" d="M285.11,-189.93C302.27,-178.29 323.47,-163.92 338.84,-153.5"/>
<polygon fill="midnightblue" stroke="midnightblue" points="282.86,-187.23 276.55,-195.73 286.79,-193.02 282.86,-187.23"/>
</g>
<!-- Node11&#45;&gt;Node6 -->
<g id="edge11" class="edge">
<title>Node11&#45;&gt;Node6</title>
<path fill="none" stroke="midnightblue" d="M189.4,-328.16C181.06,-319.93 172.65,-309.88 167.5,-299 144.08,-249.57 144.8,-182.33 146.42,-153.53"/>
<polygon fill="midnightblue" stroke="midnightblue" points="187.24,-330.93 196.95,-335.17 192.01,-325.8 187.24,-330.93"/>
</g>
<!-- Node12 -->
<g id="node12" class="node">
<title>Node12</title>
<g id="a_node12"><a xlink:href="JKRAramStream_8cpp.html" target="_top" xlink:title=" ">
<polygon fill="white" stroke="black" points="176,-268.5 176,-298.5 287,-298.5 287,-268.5 176,-268.5"/>
<text text-anchor="start" x="184" y="-286.5" font-family="Helvetica,sans-Serif" font-size="10.00">libs/JSystem/JKernel</text>
<text text-anchor="middle" x="231.5" y="-275.5" font-family="Helvetica,sans-Serif" font-size="10.00">/JKRAramStream.cpp</text>
</a>
</g>
</g>
<!-- Node11&#45;&gt;Node12 -->
<g id="edge12" class="edge">
<title>Node11&#45;&gt;Node12</title>
<path fill="none" stroke="midnightblue" d="M221.43,-325.4C223.66,-316.37 226.11,-306.41 228.04,-298.58"/>
<polygon fill="midnightblue" stroke="midnightblue" points="217.96,-324.85 218.97,-335.4 224.76,-326.52 217.96,-324.85"/>
</g>
<!-- Node13&#45;&gt;Node8 -->
<g id="edge14" class="edge">
<title>Node13&#45;&gt;Node8</title>
<path fill="none" stroke="midnightblue" d="M664.91,-325.24C669.66,-291.11 672.8,-228.77 641.5,-190 629.51,-175.15 585.86,-161.28 549.22,-151.86"/>
<polygon fill="midnightblue" stroke="midnightblue" points="661.43,-324.85 663.36,-335.26 668.35,-325.92 661.43,-324.85"/>
</g>
<!-- Node14 -->
<g id="node14" class="node">
<title>Node14</title>
<g id="a_node14"><a xlink:href="JKRDecomp_8cpp.html" target="_top" xlink:title=" ">
<polygon fill="white" stroke="black" points="689,-268.5 689,-298.5 798,-298.5 798,-268.5 689,-268.5"/>
<text text-anchor="start" x="697" y="-286.5" font-family="Helvetica,sans-Serif" font-size="10.00">libs/JSystem/JKernel</text>
<text text-anchor="middle" x="743.5" y="-275.5" font-family="Helvetica,sans-Serif" font-size="10.00">/JKRDecomp.cpp</text>
</a>
</g>
</g>
<!-- Node13&#45;&gt;Node14 -->
<g id="edge15" class="edge">
<title>Node13&#45;&gt;Node14</title>
<path fill="none" stroke="midnightblue" d="M686.46,-329.17C699.15,-319.23 714.11,-307.51 725.53,-298.58"/>
<polygon fill="midnightblue" stroke="midnightblue" points="684.22,-326.47 678.51,-335.4 688.54,-331.99 684.22,-326.47"/>
</g>
<!-- Node15 -->
<g id="node15" class="node">
<title>Node15</title>
<g id="a_node15"><a xlink:href="JKRArchive_8h.html" target="_top" xlink:title=" ">
<polygon fill="white" stroke="black" points="1499.5,-268.5 1499.5,-298.5 1633.5,-298.5 1633.5,-268.5 1499.5,-268.5"/>
<text text-anchor="start" x="1507.5" y="-286.5" font-family="Helvetica,sans-Serif" font-size="10.00">include/JSystem/JKernel</text>
<text text-anchor="middle" x="1566.5" y="-275.5" font-family="Helvetica,sans-Serif" font-size="10.00">/JKRArchive/JKRArchive.h</text>
</a>
</g>
</g>
<!-- Node13&#45;&gt;Node15 -->
<g id="edge16" class="edge">
<title>Node13&#45;&gt;Node15</title>
<path fill="none" stroke="midnightblue" d="M740.83,-343.74C917.23,-331.08 1335.69,-301.06 1499.29,-289.32"/>
<polygon fill="midnightblue" stroke="midnightblue" points="740.56,-340.25 730.84,-344.45 741.06,-347.23 740.56,-340.25"/>
</g>
<!-- Node84 -->
<g id="node48" class="node">
<title>Node84</title>
<g id="a_node48"><a xlink:href="JKRDvdRipper_8h.html" target="_top" xlink:title=" ">
<polygon fill="white" stroke="black" points="474.5,-268.5 474.5,-298.5 632.5,-298.5 632.5,-268.5 474.5,-268.5"/>
<text text-anchor="start" x="482.5" y="-286.5" font-family="Helvetica,sans-Serif" font-size="10.00">include/JSystem/JKernel</text>
<text text-anchor="middle" x="553.5" y="-275.5" font-family="Helvetica,sans-Serif" font-size="10.00">/JKRDvdRipper/JKRDvdRipper.h</text>
</a>
</g>
</g>
<!-- Node13&#45;&gt;Node84 -->
<g id="edge60" class="edge">
<title>Node13&#45;&gt;Node84</title>
<path fill="none" stroke="midnightblue" d="M628.42,-330.02C611.77,-319.9 591.81,-307.77 576.67,-298.58"/>
<polygon fill="midnightblue" stroke="midnightblue" points="626.92,-333.2 637.28,-335.4 630.55,-327.21 626.92,-333.2"/>
</g>
<!-- Node16 -->
<g id="node16" class="node">
<title>Node16</title>
<g id="a_node16"><a xlink:href="JKRArchivePri_8cpp.html" target="_top" xlink:title=" ">
<polygon fill="white" stroke="black" points="1351,-196 1351,-226 1460,-226 1460,-196 1351,-196"/>
<text text-anchor="start" x="1359" y="-214" font-family="Helvetica,sans-Serif" font-size="10.00">libs/JSystem/JKernel</text>
<text text-anchor="middle" x="1405.5" y="-203" font-family="Helvetica,sans-Serif" font-size="10.00">/JKRArchivePri.cpp</text>
</a>
</g>
</g>
<!-- Node15&#45;&gt;Node16 -->
<g id="edge17" class="edge">
<title>Node15&#45;&gt;Node16</title>
<path fill="none" stroke="midnightblue" d="M1525.04,-264.34C1497.82,-252.42 1462.74,-237.07 1437.64,-226.07"/>
<polygon fill="midnightblue" stroke="midnightblue" points="1523.74,-267.6 1534.31,-268.4 1526.55,-261.19 1523.74,-267.6"/>
</g>
<!-- Node17 -->
<g id="node17" class="node">
<title>Node17</title>
<g id="a_node17"><a xlink:href="JKRArchivePub_8cpp.html" target="_top" xlink:title=" ">
<polygon fill="white" stroke="black" points="1240,-123.5 1240,-153.5 1349,-153.5 1349,-123.5 1240,-123.5"/>
<text text-anchor="start" x="1248" y="-141.5" font-family="Helvetica,sans-Serif" font-size="10.00">libs/JSystem/JKernel</text>
<text text-anchor="middle" x="1294.5" y="-130.5" font-family="Helvetica,sans-Serif" font-size="10.00">/JKRArchivePub.cpp</text>
</a>
</g>
</g>
<!-- Node15&#45;&gt;Node17 -->
<g id="edge18" class="edge">
<title>Node15&#45;&gt;Node17</title>
<path fill="none" stroke="midnightblue" d="M1643.8,-276.01C1726.35,-266.23 1839.27,-242.87 1791.5,-190 1791.5,-190 1478.22,-158.17 1349.11,-145.05"/>
<polygon fill="midnightblue" stroke="midnightblue" points="1643.18,-272.56 1633.64,-277.17 1643.97,-279.51 1643.18,-272.56"/>
</g>
<!-- Node18 -->
<g id="node18" class="node">
<title>Node18</title>
<g id="a_node18"><a xlink:href="JKRFileFinder_8cpp.html" target="_top" xlink:title=" ">
<polygon fill="white" stroke="black" points="1673,-196 1673,-226 1782,-226 1782,-196 1673,-196"/>
<text text-anchor="start" x="1681" y="-214" font-family="Helvetica,sans-Serif" font-size="10.00">libs/JSystem/JKernel</text>
<text text-anchor="middle" x="1727.5" y="-203" font-family="Helvetica,sans-Serif" font-size="10.00">/JKRFileFinder.cpp</text>
</a>
</g>
</g>
<!-- Node15&#45;&gt;Node18 -->
<g id="edge19" class="edge">
<title>Node15&#45;&gt;Node18</title>
<path fill="none" stroke="midnightblue" d="M1607.96,-264.34C1635.18,-252.42 1670.26,-237.07 1695.36,-226.07"/>
<polygon fill="midnightblue" stroke="midnightblue" points="1606.45,-261.19 1598.69,-268.4 1609.26,-267.6 1606.45,-261.19"/>
</g>
<!-- Node19 -->
<g id="node19" class="node">
<title>Node19</title>
<g id="a_node19"><a xlink:href="d__file__sel__info_8h.html" target="_top" xlink:title=" ">
<polygon fill="white" stroke="black" points="1838.5,-190.5 1838.5,-231.5 1936.5,-231.5 1936.5,-190.5 1838.5,-190.5"/>
<text text-anchor="start" x="1846.5" y="-219.5" font-family="Helvetica,sans-Serif" font-size="10.00">include/d/d_file/d</text>
<text text-anchor="start" x="1846.5" y="-208.5" font-family="Helvetica,sans-Serif" font-size="10.00">_file_sel_info/d_file</text>
<text text-anchor="middle" x="1887.5" y="-197.5" font-family="Helvetica,sans-Serif" font-size="10.00">_sel_info.h</text>
</a>
</g>
</g>
<!-- Node15&#45;&gt;Node19 -->
<g id="edge20" class="edge">
<title>Node15&#45;&gt;Node19</title>
<path fill="none" stroke="midnightblue" d="M1643.59,-269.79C1695.13,-260.7 1764.29,-247.4 1824.5,-232 1829.06,-230.83 1833.77,-229.53 1838.48,-228.16"/>
<polygon fill="midnightblue" stroke="midnightblue" points="1642.77,-266.38 1633.52,-271.54 1643.97,-273.27 1642.77,-266.38"/>
</g>
<!-- Node21 -->
<g id="node21" class="node">
<title>Node21</title>
<g id="a_node21"><a xlink:href="d__resource_8h.html" target="_top" xlink:title=" ">
<polygon fill="white" stroke="black" points="1954,-196 1954,-226 2061,-226 2061,-196 1954,-196"/>
<text text-anchor="start" x="1962" y="-214" font-family="Helvetica,sans-Serif" font-size="10.00">include/d/d_resource</text>
<text text-anchor="middle" x="2007.5" y="-203" font-family="Helvetica,sans-Serif" font-size="10.00">/d_resource.h</text>
</a>
</g>
</g>
<!-- Node15&#45;&gt;Node21 -->
<g id="edge22" class="edge">
<title>Node15&#45;&gt;Node21</title>
<path fill="none" stroke="midnightblue" d="M1643.66,-276.31C1720.75,-269.17 1842.33,-255.32 1945.5,-232 1952.67,-230.38 1960.2,-228.29 1967.44,-226.08"/>
<polygon fill="midnightblue" stroke="midnightblue" points="1643.19,-272.84 1633.55,-277.23 1643.83,-279.81 1643.19,-272.84"/>
</g>
<!-- Node65 -->
<g id="node38" class="node">
<title>Node65</title>
<g id="a_node38"><a xlink:href="J2DPane_8h.html" target="_top" xlink:title=" ">
<polygon fill="white" stroke="black" points="2085,-196 2085,-226 2220,-226 2220,-196 2085,-196"/>
<text text-anchor="start" x="2093" y="-214" font-family="Helvetica,sans-Serif" font-size="10.00">include/JSystem/J2DGraph</text>
<text text-anchor="middle" x="2152.5" y="-203" font-family="Helvetica,sans-Serif" font-size="10.00">/J2DPane.h</text>
</a>
</g>
</g>
<!-- Node15&#45;&gt;Node65 -->
<g id="edge44" class="edge">
<title>Node15&#45;&gt;Node65</title>
<path fill="none" stroke="midnightblue" d="M1644,-278.1C1743.34,-271.69 1920.65,-257.65 2070.5,-232 2080.03,-230.37 2090.1,-228.25 2099.79,-226"/>
<polygon fill="midnightblue" stroke="midnightblue" points="1643.51,-274.62 1633.75,-278.75 1643.95,-281.61 1643.51,-274.62"/>
</g>
<!-- Node67 -->
<g id="node40" class="node">
<title>Node67</title>
<g id="a_node40"><a xlink:href="JKRAramArchive_8h.html" target="_top" xlink:title=" ">
<polygon fill="white" stroke="black" points="688.5,-196 688.5,-226 868.5,-226 868.5,-196 688.5,-196"/>
<text text-anchor="start" x="696.5" y="-214" font-family="Helvetica,sans-Serif" font-size="10.00">include/JSystem/JKernel</text>
<text text-anchor="middle" x="778.5" y="-203" font-family="Helvetica,sans-Serif" font-size="10.00">/JKRAramArchive/JKRAramArchive.h</text>
</a>
</g>
</g>
<!-- Node15&#45;&gt;Node67 -->
<g id="edge46" class="edge">
<title>Node15&#45;&gt;Node67</title>
<path fill="none" stroke="midnightblue" d="M1489.35,-278.21C1367.31,-271.04 1122.33,-255.09 915.5,-232 900.33,-230.31 884.26,-228.22 868.66,-226.05"/>
<polygon fill="midnightblue" stroke="midnightblue" points="1489.17,-281.7 1499.35,-278.79 1489.57,-274.71 1489.17,-281.7"/>
</g>
<!-- Node79 -->
<g id="node43" class="node">
<title>Node79</title>
<g id="a_node43"><a xlink:href="JKRCompArchive_8h.html" target="_top" xlink:title=" ">
<polygon fill="white" stroke="black" points="924,-196 924,-226 1109,-226 1109,-196 924,-196"/>
<text text-anchor="start" x="932" y="-214" font-family="Helvetica,sans-Serif" font-size="10.00">include/JSystem/JKernel</text>
<text text-anchor="middle" x="1016.5" y="-203" font-family="Helvetica,sans-Serif" font-size="10.00">/JKRCompArchive/JKRCompArchive.h</text>
</a>
</g>
</g>
<!-- Node15&#45;&gt;Node79 -->
<g id="edge51" class="edge">
<title>Node15&#45;&gt;Node79</title>
<path fill="none" stroke="midnightblue" d="M1489.24,-275.79C1399.57,-267.54 1247.38,-252.13 1117.5,-232 1106.37,-230.28 1094.6,-228.19 1083.18,-226.02"/>
<polygon fill="midnightblue" stroke="midnightblue" points="1489.05,-279.28 1499.33,-276.71 1489.69,-272.31 1489.05,-279.28"/>
</g>
<!-- Node80 -->
<g id="node44" class="node">
<title>Node80</title>
<g id="a_node44"><a xlink:href="JKRDvdArchive_8h.html" target="_top" xlink:title=" ">
<polygon fill="white" stroke="black" points="1126.5,-196 1126.5,-226 1294.5,-226 1294.5,-196 1126.5,-196"/>
<text text-anchor="start" x="1134.5" y="-214" font-family="Helvetica,sans-Serif" font-size="10.00">include/JSystem/JKernel</text>
<text text-anchor="middle" x="1210.5" y="-203" font-family="Helvetica,sans-Serif" font-size="10.00">/JKRDvdArchive/JKRDvdArchive.h</text>
</a>
</g>
</g>
<!-- Node15&#45;&gt;Node80 -->
<g id="edge54" class="edge">
<title>Node15&#45;&gt;Node80</title>
<path fill="none" stroke="midnightblue" d="M1489.03,-267.16C1427.19,-254.91 1341.26,-237.9 1281.26,-226.01"/>
<polygon fill="midnightblue" stroke="midnightblue" points="1488.63,-270.65 1499.12,-269.16 1489.99,-263.78 1488.63,-270.65"/>
</g>
<!-- Node82 -->
<g id="node46" class="node">
<title>Node82</title>
<g id="a_node46"><a xlink:href="JKRMemArchive_8h.html" target="_top" xlink:title=" ">
<polygon fill="white" stroke="black" points="1478,-196 1478,-226 1655,-226 1655,-196 1478,-196"/>
<text text-anchor="start" x="1486" y="-214" font-family="Helvetica,sans-Serif" font-size="10.00">include/JSystem/JKernel</text>
<text text-anchor="middle" x="1566.5" y="-203" font-family="Helvetica,sans-Serif" font-size="10.00">/JKRMemArchive/JKRMemArchive.h</text>
</a>
</g>
</g>
<!-- Node15&#45;&gt;Node82 -->
<g id="edge57" class="edge">
<title>Node15&#45;&gt;Node82</title>
<path fill="none" stroke="midnightblue" d="M1566.5,-258.23C1566.5,-247.57 1566.5,-235.41 1566.5,-226.25"/>
<polygon fill="midnightblue" stroke="midnightblue" points="1563,-258.23 1566.5,-268.23 1570,-258.23 1563,-258.23"/>
</g>
<!-- Node20 -->
<g id="node20" class="node">
<title>Node20</title>
<g id="a_node20"><a xlink:href="d__file__sel__info_8cpp.html" target="_top" xlink:title=" ">
<polygon fill="white" stroke="black" points="1170,-56.5 1170,-86.5 1259,-86.5 1259,-56.5 1170,-56.5"/>
<text text-anchor="start" x="1178" y="-74.5" font-family="Helvetica,sans-Serif" font-size="10.00">src/d/d_file/d_file</text>
<text text-anchor="middle" x="1214.5" y="-63.5" font-family="Helvetica,sans-Serif" font-size="10.00">_sel_info.cpp</text>
</a>
</g>
</g>
<!-- Node19&#45;&gt;Node20 -->
<g id="edge21" class="edge">
<title>Node19&#45;&gt;Node20</title>
<path fill="none" stroke="midnightblue" d="M1828.55,-194.61C1786.2,-183.49 1727.77,-168.03 1676.5,-154 1627.51,-140.6 1616.31,-132.96 1566.5,-123 1435.68,-96.83 1399.47,-112.36 1268.5,-87 1265.45,-86.41 1262.32,-85.74 1259.18,-85.02"/>
<polygon fill="midnightblue" stroke="midnightblue" points="1827.85,-198.05 1838.41,-197.2 1829.63,-191.28 1827.85,-198.05"/>
</g>
<!-- Node22 -->
<g id="node22" class="node">
<title>Node22</title>
<g id="a_node22"><a xlink:href="d__a__alink_8h.html" target="_top" xlink:title=" ">
<polygon fill="white" stroke="black" points="1277,-56.5 1277,-86.5 1396,-86.5 1396,-56.5 1277,-56.5"/>
<text text-anchor="start" x="1285" y="-74.5" font-family="Helvetica,sans-Serif" font-size="10.00">include/d/d_a/d_a_alink</text>
<text text-anchor="middle" x="1336.5" y="-63.5" font-family="Helvetica,sans-Serif" font-size="10.00">/d_a_alink.h</text>
</a>
</g>
</g>
<!-- Node21&#45;&gt;Node22 -->
<g id="edge23" class="edge">
<title>Node21&#45;&gt;Node22</title>
<path fill="none" stroke="midnightblue" d="M1955.63,-192.98C1952.21,-191.95 1948.81,-190.94 1945.5,-190 1827.02,-156.18 1797.54,-146.04 1676.5,-123 1557.14,-100.28 1525.26,-107.51 1405.5,-87 1402.48,-86.48 1399.4,-85.93 1396.29,-85.35"/>
<polygon fill="midnightblue" stroke="midnightblue" points="1954.67,-196.35 1965.26,-195.95 1956.74,-189.66 1954.67,-196.35"/>
</g>
<!-- Node25 -->
<g id="node25" class="node">
<title>Node25</title>
<g id="a_node25"><a xlink:href="d__com__inf__game_8h.html" target="_top" xlink:title=" ">
<polygon fill="white" stroke="red" points="1931.5,-123.5 1931.5,-153.5 2077.5,-153.5 2077.5,-123.5 1931.5,-123.5"/>
<text text-anchor="start" x="1939.5" y="-141.5" font-family="Helvetica,sans-Serif" font-size="10.00">include/d/d_com/d_com</text>
<text text-anchor="middle" x="2004.5" y="-130.5" font-family="Helvetica,sans-Serif" font-size="10.00">_inf_game/d_com_inf_game.h</text>
</a>
</g>
</g>
<!-- Node21&#45;&gt;Node25 -->
<g id="edge26" class="edge">
<title>Node21&#45;&gt;Node25</title>
<path fill="none" stroke="midnightblue" d="M2006.47,-185.73C2006.01,-175.07 2005.5,-162.91 2005.11,-153.75"/>
<polygon fill="midnightblue" stroke="midnightblue" points="2002.97,-185.89 2006.89,-195.73 2009.96,-185.59 2002.97,-185.89"/>
</g>
<!-- Node23 -->
<g id="node23" class="node">
<title>Node23</title>
<g id="a_node23"><a xlink:href="d__attention_8cpp.html" target="_top" xlink:title=" ">
<polygon fill="white" stroke="black" points="1991,-0.5 1991,-19.5 2098,-19.5 2098,-0.5 1991,-0.5"/>
<text text-anchor="middle" x="2044.5" y="-7.5" font-family="Helvetica,sans-Serif" font-size="10.00">src/d/d_attention.cpp</text>
</a>
</g>
</g>
<!-- Node22&#45;&gt;Node23 -->
<g id="edge24" class="edge">
<title>Node22&#45;&gt;Node23</title>
<path fill="none" stroke="midnightblue" d="M1406.49,-56C1628.93,-25.59 1882.27,-15.47 1990.8,-12.3"/>
<polygon fill="midnightblue" stroke="midnightblue" points="1405.68,-52.58 1396.25,-57.42 1406.64,-59.52 1405.68,-52.58"/>
</g>
<!-- Node24 -->
<g id="node24" class="node">
<title>Node24</title>
<g id="a_node24"><a xlink:href="d__a__alink_8cpp.html" target="_top" xlink:title=" ">
<polygon fill="white" stroke="black" points="1277,-0.5 1277,-19.5 1396,-19.5 1396,-0.5 1277,-0.5"/>
<text text-anchor="middle" x="1336.5" y="-7.5" font-family="Helvetica,sans-Serif" font-size="10.00">src/d/d_a/d_a_alink.cpp</text>
</a>
</g>
</g>
<!-- Node22&#45;&gt;Node24 -->
<g id="edge25" class="edge">
<title>Node22&#45;&gt;Node24</title>
<path fill="none" stroke="midnightblue" d="M1336.5,-46.29C1336.5,-36.86 1336.5,-26.65 1336.5,-19.66"/>
<polygon fill="midnightblue" stroke="midnightblue" points="1333,-46.4 1336.5,-56.4 1340,-46.4 1333,-46.4"/>
</g>
<!-- Node25&#45;&gt;Node4 -->
<g id="edge41" class="edge">
<title>Node25&#45;&gt;Node4</title>
<path fill="none" stroke="midnightblue" d="M1921.28,-132.54C1711.9,-120.05 1166.66,-87.54 979.04,-76.35"/>
<polygon fill="midnightblue" stroke="midnightblue" points="1921.1,-136.03 1931.29,-133.13 1921.52,-129.05 1921.1,-136.03"/>
</g>
<!-- Node25&#45;&gt;Node5 -->
<g id="edge42" class="edge">
<title>Node25&#45;&gt;Node5</title>
<path fill="none" stroke="midnightblue" d="M1921.19,-134.08C1641.29,-122.6 738.17,-85.54 486.28,-75.2"/>
<polygon fill="midnightblue" stroke="midnightblue" points="1921.14,-137.58 1931.28,-134.5 1921.43,-130.59 1921.14,-137.58"/>
</g>
<!-- Node25&#45;&gt;Node20 -->
<g id="edge30" class="edge">
<title>Node25&#45;&gt;Node20</title>
<path fill="none" stroke="midnightblue" d="M1921.38,-133.83C1756.21,-126.2 1392.01,-107.62 1268.5,-87 1265.44,-86.49 1262.29,-85.88 1259.14,-85.2"/>
<polygon fill="midnightblue" stroke="midnightblue" points="1921.34,-137.33 1931.49,-134.29 1921.66,-130.34 1921.34,-137.33"/>
</g>
<!-- Node25&#45;&gt;Node22 -->
<g id="edge43" class="edge">
<title>Node25&#45;&gt;Node22</title>
<path fill="none" stroke="midnightblue" d="M1921.05,-129.5C1897.88,-127.33 1872.72,-125.03 1849.5,-123 1652.27,-105.78 1601.43,-115.41 1405.5,-87 1402.47,-86.56 1399.38,-86.07 1396.26,-85.54"/>
<polygon fill="midnightblue" stroke="midnightblue" points="1920.91,-133 1931.19,-130.45 1921.56,-126.03 1920.91,-133"/>
</g>
<!-- Node25&#45;&gt;Node23 -->
<g id="edge27" class="edge">
<title>Node25&#45;&gt;Node23</title>
<path fill="none" stroke="midnightblue" d="M2087.97,-123.35C2178.95,-117.04 2565.02,-127.19 2602.5,-87 2611.9,-76.92 2611.84,-66.13 2602.5,-56 2568.72,-19.39 2231.22,-12.56 2098.09,-11.29"/>
<polygon fill="midnightblue" stroke="midnightblue" points="2087.4,-119.89 2077.76,-124.28 2088.04,-126.86 2087.4,-119.89"/>
</g>
<!-- Node26 -->
<g id="node26" class="node">
<title>Node26</title>
<g id="a_node26"><a xlink:href="d__camera_8cpp.html" target="_top" xlink:title=" ">
<polygon fill="white" stroke="black" points="2649.5,-62 2649.5,-81 2751.5,-81 2751.5,-62 2649.5,-62"/>
<text text-anchor="middle" x="2700.5" y="-69" font-family="Helvetica,sans-Serif" font-size="10.00">src/d/d_camera.cpp</text>
</a>
</g>
</g>
<!-- Node25&#45;&gt;Node26 -->
<g id="edge28" class="edge">
<title>Node25&#45;&gt;Node26</title>
<path fill="none" stroke="midnightblue" d="M2087.99,-123.05C2331.63,-94.7 2397.2,-121.2 2635.5,-87 2645.8,-85.52 2656.89,-83.29 2666.95,-81.02"/>
<polygon fill="midnightblue" stroke="midnightblue" points="2087.28,-119.61 2077.76,-124.26 2088.1,-126.56 2087.28,-119.61"/>
</g>
<!-- Node27 -->
<g id="node27" class="node">
<title>Node27</title>
<g id="a_node27"><a xlink:href="d__com__inf__game_8cpp.html" target="_top" xlink:title=" ">
<polygon fill="white" stroke="black" points="2770,-56.5 2770,-86.5 2889,-86.5 2889,-56.5 2770,-56.5"/>
<text text-anchor="start" x="2778" y="-74.5" font-family="Helvetica,sans-Serif" font-size="10.00">src/d/d_com/d_com_inf</text>
<text text-anchor="middle" x="2829.5" y="-63.5" font-family="Helvetica,sans-Serif" font-size="10.00">_game.cpp</text>
</a>
</g>
</g>
<!-- Node25&#45;&gt;Node27 -->
<g id="edge29" class="edge">
<title>Node25&#45;&gt;Node27</title>
<path fill="none" stroke="midnightblue" d="M2088.02,-123.06C2386.91,-89.98 2466.84,-125.48 2760.5,-87 2763.53,-86.6 2766.63,-86.14 2769.76,-85.64"/>
<polygon fill="midnightblue" stroke="midnightblue" points="2087.3,-119.62 2077.75,-124.21 2088.08,-126.58 2087.3,-119.62"/>
</g>
<!-- Node28 -->
<g id="node28" class="node">
<title>Node28</title>
<g id="a_node28"><a xlink:href="d__item_8cpp.html" target="_top" xlink:title=" ">
<polygon fill="white" stroke="black" points="2907,-62 2907,-81 3028,-81 3028,-62 2907,-62"/>
<text text-anchor="middle" x="2967.5" y="-69" font-family="Helvetica,sans-Serif" font-size="10.00">src/d/d_item/d_item.cpp</text>
</a>
</g>
</g>
<!-- Node25&#45;&gt;Node28 -->
<g id="edge31" class="edge">
<title>Node25&#45;&gt;Node28</title>
<path fill="none" stroke="midnightblue" d="M2087.93,-123.08C2447.95,-84.76 2543.87,-131.83 2898.5,-87 2909.55,-85.6 2921.46,-83.37 2932.23,-81.06"/>
<polygon fill="midnightblue" stroke="midnightblue" points="2087.31,-119.62 2077.75,-124.18 2088.07,-126.58 2087.31,-119.62"/>
</g>
<!-- Node29 -->
<g id="node29" class="node">
<title>Node29</title>
<g id="a_node29"><a xlink:href="d__kankyo__rain_8cpp.html" target="_top" xlink:title=" ">
<polygon fill="white" stroke="black" points="1414,-56.5 1414,-86.5 1541,-86.5 1541,-56.5 1414,-56.5"/>
<text text-anchor="start" x="1422" y="-74.5" font-family="Helvetica,sans-Serif" font-size="10.00">src/d/d_kankyo/d_kankyo</text>
<text text-anchor="middle" x="1477.5" y="-63.5" font-family="Helvetica,sans-Serif" font-size="10.00">_rain.cpp</text>
</a>
</g>
</g>
<!-- Node25&#45;&gt;Node29 -->
<g id="edge32" class="edge">
<title>Node25&#45;&gt;Node29</title>
<path fill="none" stroke="midnightblue" d="M1921.25,-129.1C1810.29,-117.76 1619.85,-97.72 1550.5,-87 1547.44,-86.53 1544.3,-86.01 1541.14,-85.47"/>
<polygon fill="midnightblue" stroke="midnightblue" points="1921.1,-132.6 1931.4,-130.14 1921.81,-125.64 1921.1,-132.6"/>
</g>
<!-- Node30 -->
<g id="node30" class="node">
<title>Node30</title>
<g id="a_node30"><a xlink:href="d__kankyo__wether_8cpp.html" target="_top" xlink:title=" ">
<polygon fill="white" stroke="black" points="1559,-56.5 1559,-86.5 1686,-86.5 1686,-56.5 1559,-56.5"/>
<text text-anchor="start" x="1567" y="-74.5" font-family="Helvetica,sans-Serif" font-size="10.00">src/d/d_kankyo/d_kankyo</text>
<text text-anchor="middle" x="1622.5" y="-63.5" font-family="Helvetica,sans-Serif" font-size="10.00">_wether.cpp</text>
</a>
</g>
</g>
<!-- Node25&#45;&gt;Node30 -->
<g id="edge33" class="edge">
<title>Node25&#45;&gt;Node30</title>
<path fill="none" stroke="midnightblue" d="M1921.17,-124.67C1858.91,-114.89 1771.76,-100.8 1695.5,-87 1692.45,-86.45 1689.33,-85.87 1686.18,-85.28"/>
<polygon fill="midnightblue" stroke="midnightblue" points="1920.91,-128.17 1931.33,-126.26 1922,-121.26 1920.91,-128.17"/>
</g>
<!-- Node31 -->
<g id="node31" class="node">
<title>Node31</title>
<g id="a_node31"><a xlink:href="d__kankyo_8cpp.html" target="_top" xlink:title=" ">
<polygon fill="white" stroke="black" points="1704,-62 1704,-81 1805,-81 1805,-62 1704,-62"/>
<text text-anchor="middle" x="1754.5" y="-69" font-family="Helvetica,sans-Serif" font-size="10.00">src/d/d_kankyo.cpp</text>
</a>
</g>
</g>
<!-- Node25&#45;&gt;Node31 -->
<g id="edge34" class="edge">
<title>Node25&#45;&gt;Node31</title>
<path fill="none" stroke="midnightblue" d="M1940.69,-120.91C1891.73,-108.18 1826.14,-91.13 1787.3,-81.03"/>
<polygon fill="midnightblue" stroke="midnightblue" points="1940,-124.35 1950.56,-123.48 1941.76,-117.57 1940,-124.35"/>
</g>
<!-- Node32 -->
<g id="node32" class="node">
<title>Node32</title>
<g id="a_node32"><a xlink:href="d__kantera__icon__meter_8cpp.html" target="_top" xlink:title=" ">
<polygon fill="white" stroke="black" points="1823,-56.5 1823,-86.5 1930,-86.5 1930,-56.5 1823,-56.5"/>
<text text-anchor="start" x="1831" y="-74.5" font-family="Helvetica,sans-Serif" font-size="10.00">src/d/d_kantera_icon</text>
<text text-anchor="middle" x="1876.5" y="-63.5" font-family="Helvetica,sans-Serif" font-size="10.00">_meter.cpp</text>
</a>
</g>
</g>
<!-- Node25&#45;&gt;Node32 -->
<g id="edge35" class="edge">
<title>Node25&#45;&gt;Node32</title>
<path fill="none" stroke="midnightblue" d="M1967.78,-118.85C1947.54,-108.58 1922.83,-96.03 1904.22,-86.58"/>
<polygon fill="midnightblue" stroke="midnightblue" points="1966.22,-121.99 1976.73,-123.4 1969.39,-115.75 1966.22,-121.99"/>
</g>
<!-- Node33 -->
<g id="node33" class="node">
<title>Node33</title>
<g id="a_node33"><a xlink:href="d__kyeff_8cpp.html" target="_top" xlink:title=" ">
<polygon fill="white" stroke="black" points="1948,-62 1948,-81 2061,-81 2061,-62 1948,-62"/>
<text text-anchor="middle" x="2004.5" y="-69" font-family="Helvetica,sans-Serif" font-size="10.00">src/d/d_ky/d_kyeff.cpp</text>
</a>
</g>
</g>
<!-- Node25&#45;&gt;Node33 -->
<g id="edge36" class="edge">
<title>Node25&#45;&gt;Node33</title>
<path fill="none" stroke="midnightblue" d="M2004.5,-113.25C2004.5,-102.02 2004.5,-89.38 2004.5,-81.19"/>
<polygon fill="midnightblue" stroke="midnightblue" points="2001,-113.4 2004.5,-123.4 2008,-113.4 2001,-113.4"/>
</g>
<!-- Node34 -->
<g id="node34" class="node">
<title>Node34</title>
<g id="a_node34"><a xlink:href="d__meter__button_8cpp.html" target="_top" xlink:title=" ">
<polygon fill="white" stroke="black" points="2079,-56.5 2079,-86.5 2194,-86.5 2194,-56.5 2079,-56.5"/>
<text text-anchor="start" x="2087" y="-74.5" font-family="Helvetica,sans-Serif" font-size="10.00">src/d/d_meter/d_meter</text>
<text text-anchor="middle" x="2136.5" y="-63.5" font-family="Helvetica,sans-Serif" font-size="10.00">_button.cpp</text>
</a>
</g>
</g>
<!-- Node25&#45;&gt;Node34 -->
<g id="edge37" class="edge">
<title>Node25&#45;&gt;Node34</title>
<path fill="none" stroke="midnightblue" d="M2042.37,-118.85C2063.24,-108.58 2088.73,-96.03 2107.91,-86.58"/>
<polygon fill="midnightblue" stroke="midnightblue" points="2040.57,-115.84 2033.14,-123.4 2043.66,-122.12 2040.57,-115.84"/>
</g>
<!-- Node35 -->
<g id="node35" class="node">
<title>Node35</title>
<g id="a_node35"><a xlink:href="d__meter__haihai_8cpp.html" target="_top" xlink:title=" ">
<polygon fill="white" stroke="black" points="2212,-56.5 2212,-86.5 2327,-86.5 2327,-56.5 2212,-56.5"/>
<text text-anchor="start" x="2220" y="-74.5" font-family="Helvetica,sans-Serif" font-size="10.00">src/d/d_meter/d_meter</text>
<text text-anchor="middle" x="2269.5" y="-63.5" font-family="Helvetica,sans-Serif" font-size="10.00">_haihai.cpp</text>
</a>
</g>
</g>
<!-- Node25&#45;&gt;Node35 -->
<g id="edge38" class="edge">
<title>Node25&#45;&gt;Node35</title>
<path fill="none" stroke="midnightblue" d="M2071.56,-121.05C2114.88,-110.43 2170.67,-96.74 2211.97,-86.61"/>
<polygon fill="midnightblue" stroke="midnightblue" points="2070.55,-117.69 2061.67,-123.48 2072.22,-124.49 2070.55,-117.69"/>
</g>
<!-- Node36 -->
<g id="node36" class="node">
<title>Node36</title>
<g id="a_node36"><a xlink:href="d__meter__hakusha_8cpp.html" target="_top" xlink:title=" ">
<polygon fill="white" stroke="black" points="2345,-56.5 2345,-86.5 2460,-86.5 2460,-56.5 2345,-56.5"/>
<text text-anchor="start" x="2353" y="-74.5" font-family="Helvetica,sans-Serif" font-size="10.00">src/d/d_meter/d_meter</text>
<text text-anchor="middle" x="2402.5" y="-63.5" font-family="Helvetica,sans-Serif" font-size="10.00">_hakusha.cpp</text>
</a>
</g>
</g>
<!-- Node25&#45;&gt;Node36 -->
<g id="edge39" class="edge">
<title>Node25&#45;&gt;Node36</title>
<path fill="none" stroke="midnightblue" d="M2087.79,-122.99C2199.6,-105.45 2229.6,-106.44 2336.5,-87 2339.27,-86.5 2342.1,-85.96 2344.96,-85.4"/>
<polygon fill="midnightblue" stroke="midnightblue" points="2087.13,-119.55 2077.8,-124.57 2088.23,-126.47 2087.13,-119.55"/>
</g>
<!-- Node37 -->
<g id="node37" class="node">
<title>Node37</title>
<g id="a_node37"><a xlink:href="d__meter__map_8cpp.html" target="_top" xlink:title=" ">
<polygon fill="white" stroke="black" points="2478,-56.5 2478,-86.5 2593,-86.5 2593,-56.5 2478,-56.5"/>
<text text-anchor="start" x="2486" y="-74.5" font-family="Helvetica,sans-Serif" font-size="10.00">src/d/d_meter/d_meter</text>
<text text-anchor="middle" x="2535.5" y="-63.5" font-family="Helvetica,sans-Serif" font-size="10.00">_map.cpp</text>
</a>
</g>
</g>
<!-- Node25&#45;&gt;Node37 -->
<g id="edge40" class="edge">
<title>Node25&#45;&gt;Node37</title>
<path fill="none" stroke="midnightblue" d="M2087.84,-123.04C2258.25,-100.79 2304.23,-112.84 2469.5,-87 2472.28,-86.57 2475.12,-86.08 2477.99,-85.57"/>
<polygon fill="midnightblue" stroke="midnightblue" points="2087.22,-119.59 2077.77,-124.38 2088.15,-126.53 2087.22,-119.59"/>
</g>
<!-- Node66 -->
<g id="node39" class="node">
<title>Node66</title>
<g id="a_node39"><a xlink:href="J2DPane_8cpp.html" target="_top" xlink:title=" ">
<polygon fill="white" stroke="black" points="2096,-123.5 2096,-153.5 2215,-153.5 2215,-123.5 2096,-123.5"/>
<text text-anchor="start" x="2104" y="-141.5" font-family="Helvetica,sans-Serif" font-size="10.00">libs/JSystem/J2DGraph</text>
<text text-anchor="middle" x="2155.5" y="-130.5" font-family="Helvetica,sans-Serif" font-size="10.00">/J2DPane.cpp</text>
</a>
</g>
</g>
<!-- Node65&#45;&gt;Node66 -->
<g id="edge45" class="edge">
<title>Node65&#45;&gt;Node66</title>
<path fill="none" stroke="midnightblue" d="M2153.53,-185.73C2153.99,-175.07 2154.5,-162.91 2154.89,-153.75"/>
<polygon fill="midnightblue" stroke="midnightblue" points="2150.04,-185.59 2153.11,-195.73 2157.03,-185.89 2150.04,-185.59"/>
</g>
<!-- Node67&#45;&gt;Node7 -->
<g id="edge47" class="edge">
<title>Node67&#45;&gt;Node7</title>
<path fill="none" stroke="midnightblue" d="M738.24,-191.69C712.08,-179.79 678.5,-164.52 654.44,-153.57"/>
<polygon fill="midnightblue" stroke="midnightblue" points="736.95,-194.95 747.51,-195.9 739.85,-188.58 736.95,-194.95"/>
</g>
<!-- Node67&#45;&gt;Node17 -->
<g id="edge48" class="edge">
<title>Node67&#45;&gt;Node17</title>
<path fill="none" stroke="midnightblue" d="M878.63,-195.01C891.04,-193.26 903.56,-191.55 915.5,-190 1055.67,-171.79 1092.18,-177.89 1231.5,-154 1234.27,-153.53 1237.09,-153.01 1239.94,-152.45"/>
<polygon fill="midnightblue" stroke="midnightblue" points="878.13,-191.55 868.72,-196.42 879.11,-198.48 878.13,-191.55"/>
</g>
<!-- Node68 -->
<g id="node41" class="node">
<title>Node68</title>
<g id="a_node41"><a xlink:href="d__lib_8h.html" target="_top" xlink:title=" ">
<polygon fill="white" stroke="red" points="851.5,-129 851.5,-148 961.5,-148 961.5,-129 851.5,-129"/>
<text text-anchor="middle" x="906.5" y="-136" font-family="Helvetica,sans-Serif" font-size="10.00">include/d/d_lib/d_lib.h</text>
</a>
</g>
</g>
<!-- Node67&#45;&gt;Node68 -->
<g id="edge49" class="edge">
<title>Node67&#45;&gt;Node68</title>
<path fill="none" stroke="midnightblue" d="M813.06,-190.97C838.47,-176.97 871.79,-158.62 891.01,-148.03"/>
<polygon fill="midnightblue" stroke="midnightblue" points="811.17,-188.01 804.1,-195.9 814.54,-194.14 811.17,-188.01"/>
</g>
<!-- Node70 -->
<g id="node42" class="node">
<title>Node70</title>
<g id="a_node42"><a xlink:href="Z2AudioMgr_8h.html" target="_top" xlink:title=" ">
<polygon fill="white" stroke="red" points="698,-123.5 698,-153.5 833,-153.5 833,-123.5 698,-123.5"/>
<text text-anchor="start" x="706" y="-141.5" font-family="Helvetica,sans-Serif" font-size="10.00">include/Z2AudioLib</text>
<text text-anchor="middle" x="765.5" y="-130.5" font-family="Helvetica,sans-Serif" font-size="10.00">/Z2AudioMgr/Z2AudioMgr.h</text>
</a>
</g>
</g>
<!-- Node67&#45;&gt;Node70 -->
<g id="edge50" class="edge">
<title>Node67&#45;&gt;Node70</title>
<path fill="none" stroke="midnightblue" d="M774.03,-185.73C772.06,-175.07 769.82,-162.91 768.13,-153.75"/>
<polygon fill="midnightblue" stroke="midnightblue" points="770.61,-186.53 775.87,-195.73 777.5,-185.26 770.61,-186.53"/>
</g>
<!-- Node79&#45;&gt;Node9 -->
<g id="edge53" class="edge">
<title>Node79&#45;&gt;Node9</title>
<path fill="none" stroke="midnightblue" d="M1023.63,-186.06C1026.83,-175.32 1030.5,-163.01 1033.26,-153.75"/>
<polygon fill="midnightblue" stroke="midnightblue" points="1020.25,-185.15 1020.75,-195.73 1026.96,-187.15 1020.25,-185.15"/>
</g>
<!-- Node79&#45;&gt;Node17 -->
<g id="edge52" class="edge">
<title>Node79&#45;&gt;Node17</title>
<path fill="none" stroke="midnightblue" d="M1081.75,-193.45C1129.82,-181.26 1194.45,-164.87 1239.82,-153.37"/>
<polygon fill="midnightblue" stroke="midnightblue" points="1080.59,-190.14 1071.76,-195.99 1082.31,-196.92 1080.59,-190.14"/>
</g>
<!-- Node80&#45;&gt;Node17 -->
<g id="edge55" class="edge">
<title>Node80&#45;&gt;Node17</title>
<path fill="none" stroke="midnightblue" d="M1235.18,-189.29C1248.91,-177.77 1265.63,-163.73 1277.81,-153.5"/>
<polygon fill="midnightblue" stroke="midnightblue" points="1232.91,-186.62 1227.5,-195.73 1237.41,-191.99 1232.91,-186.62"/>
</g>
<!-- Node81 -->
<g id="node45" class="node">
<title>Node81</title>
<g id="a_node45"><a xlink:href="JKRDvdArchive_8cpp.html" target="_top" xlink:title=" ">
<polygon fill="white" stroke="black" points="1113,-123.5 1113,-153.5 1222,-153.5 1222,-123.5 1113,-123.5"/>
<text text-anchor="start" x="1121" y="-141.5" font-family="Helvetica,sans-Serif" font-size="10.00">libs/JSystem/JKernel</text>
<text text-anchor="middle" x="1167.5" y="-130.5" font-family="Helvetica,sans-Serif" font-size="10.00">/JKRDvdArchive.cpp</text>
</a>
</g>
</g>
<!-- Node80&#45;&gt;Node81 -->
<g id="edge56" class="edge">
<title>Node80&#45;&gt;Node81</title>
<path fill="none" stroke="midnightblue" d="M1196.51,-187.06C1189.81,-176.09 1182.01,-163.3 1176.19,-153.75"/>
<polygon fill="midnightblue" stroke="midnightblue" points="1193.6,-189.02 1201.8,-195.73 1199.58,-185.37 1193.6,-189.02"/>
</g>
<!-- Node82&#45;&gt;Node17 -->
<g id="edge58" class="edge">
<title>Node82&#45;&gt;Node17</title>
<path fill="none" stroke="midnightblue" d="M1502.72,-193.47C1456.01,-181.36 1393.29,-165.1 1348.93,-153.61"/>
<polygon fill="midnightblue" stroke="midnightblue" points="1501.88,-196.87 1512.44,-195.99 1503.63,-190.09 1501.88,-196.87"/>
</g>
<!-- Node83 -->
<g id="node47" class="node">
<title>Node83</title>
<g id="a_node47"><a xlink:href="JKRMemArchive_8cpp.html" target="_top" xlink:title=" ">
<polygon fill="white" stroke="black" points="1446,-123.5 1446,-153.5 1557,-153.5 1557,-123.5 1446,-123.5"/>
<text text-anchor="start" x="1454" y="-141.5" font-family="Helvetica,sans-Serif" font-size="10.00">libs/JSystem/JKernel</text>
<text text-anchor="middle" x="1501.5" y="-130.5" font-family="Helvetica,sans-Serif" font-size="10.00">/JKRMemArchive.cpp</text>
</a>
</g>
</g>
<!-- Node82&#45;&gt;Node83 -->
<g id="edge59" class="edge">
<title>Node82&#45;&gt;Node83</title>
<path fill="none" stroke="midnightblue" d="M1546.55,-188.36C1536.18,-177.11 1523.79,-163.68 1514.63,-153.75"/>
<polygon fill="midnightblue" stroke="midnightblue" points="1543.99,-190.75 1553.35,-195.73 1549.14,-186.01 1543.99,-190.75"/>
</g>
<!-- Node84&#45;&gt;Node3 -->
<g id="edge64" class="edge">
<title>Node84&#45;&gt;Node3</title>
<path fill="none" stroke="midnightblue" d="M476.53,-266.32C432.72,-256.86 376.89,-244.37 327.5,-232 320.2,-230.17 312.51,-228.15 304.99,-226.1"/>
<polygon fill="midnightblue" stroke="midnightblue" points="476.03,-269.79 486.54,-268.48 477.5,-262.95 476.03,-269.79"/>
</g>
<!-- Node84&#45;&gt;Node81 -->
<g id="edge61" class="edge">
<title>Node84&#45;&gt;Node81</title>
<path fill="none" stroke="midnightblue" d="M642.68,-271.7C731.36,-260.47 857.09,-243.02 877.5,-232 899.65,-220.04 893.55,-202.33 915.5,-190 990.05,-148.12 1020.82,-171.59 1104.5,-154 1107.25,-153.42 1110.06,-152.82 1112.89,-152.2"/>
<polygon fill="midnightblue" stroke="midnightblue" points="642.08,-268.25 632.6,-272.98 642.96,-275.2 642.08,-268.25"/>
</g>
<!-- Node84&#45;&gt;Node83 -->
<g id="edge63" class="edge">
<title>Node84&#45;&gt;Node83</title>
<path fill="none" stroke="midnightblue" d="M642.78,-271.67C655.43,-270.32 668.29,-269.05 680.5,-268 818.67,-256.13 1178.04,-291.08 1303.5,-232 1326.55,-221.15 1320.99,-203.64 1342.5,-190 1373.93,-170.07 1413.87,-157.43 1445.86,-149.77"/>
<polygon fill="midnightblue" stroke="midnightblue" points="642.26,-268.21 632.7,-272.77 643.01,-275.16 642.26,-268.21"/>
</g>
<!-- Node85 -->
<g id="node49" class="node">
<title>Node85</title>
<g id="a_node49"><a xlink:href="JKRDvdRipper_8cpp.html" target="_top" xlink:title=" ">
<polygon fill="white" stroke="black" points="523,-196 523,-226 632,-226 632,-196 523,-196"/>
<text text-anchor="start" x="531" y="-214" font-family="Helvetica,sans-Serif" font-size="10.00">libs/JSystem/JKernel</text>
<text text-anchor="middle" x="577.5" y="-203" font-family="Helvetica,sans-Serif" font-size="10.00">/JKRDvdRipper.cpp</text>
</a>
</g>
</g>
<!-- Node84&#45;&gt;Node85 -->
<g id="edge62" class="edge">
<title>Node84&#45;&gt;Node85</title>
<path fill="none" stroke="midnightblue" d="M561.65,-258.56C565.31,-247.82 569.5,-235.51 572.65,-226.25"/>
<polygon fill="midnightblue" stroke="midnightblue" points="558.27,-257.64 558.36,-268.23 564.89,-259.89 558.27,-257.64"/>
</g>
<!-- Node86 -->
<g id="node50" class="node">
<title>Node86</title>
<g id="a_node50"><a xlink:href="JKRDvdAramRipper_8h.html" target="_top" xlink:title=" ">
<polygon fill="white" stroke="black" points="336,-190.5 336,-231.5 505,-231.5 505,-190.5 336,-190.5"/>
<text text-anchor="start" x="344" y="-219.5" font-family="Helvetica,sans-Serif" font-size="10.00">include/JSystem/JKernel</text>
<text text-anchor="start" x="344" y="-208.5" font-family="Helvetica,sans-Serif" font-size="10.00">/JKRDvdAramRipper/JKRDvdAram</text>
<text text-anchor="middle" x="420.5" y="-197.5" font-family="Helvetica,sans-Serif" font-size="10.00">Ripper.h</text>
</a>
</g>
</g>
<!-- Node84&#45;&gt;Node86 -->
<g id="edge65" class="edge">
<title>Node84&#45;&gt;Node86</title>
<path fill="none" stroke="midnightblue" d="M517.82,-263.59C499.12,-253.68 476.25,-241.55 457.37,-231.55"/>
<polygon fill="midnightblue" stroke="midnightblue" points="516.43,-266.81 526.91,-268.4 519.71,-260.63 516.43,-266.81"/>
</g>
<!-- Node86&#45;&gt;Node10 -->
<g id="edge66" class="edge">
<title>Node86&#45;&gt;Node10</title>
<path fill="none" stroke="midnightblue" d="M396.9,-182.73C388.39,-172.89 379.13,-162.19 371.95,-153.89"/>
<polygon fill="midnightblue" stroke="midnightblue" points="394.32,-185.09 403.51,-190.36 399.61,-180.51 394.32,-185.09"/>
</g>
</g>
</svg>
