<?xml version="1.0" encoding="UTF-8" standalone="no"?>
<!DOCTYPE svg PUBLIC "-//W3C//DTD SVG 1.1//EN"
 "http://www.w3.org/Graphics/SVG/1.1/DTD/svg11.dtd">
<!-- Generated by graphviz version 2.46.0 (20210122.1329)
 -->
<!-- Title: include/JSystem/JKernel/JKRThread/JKRThread.h Pages: 1 -->
<!--zoomable 475 -->
<svg id="main" version="1.1" xmlns="http://www.w3.org/2000/svg" xmlns:xlink="http://www.w3.org/1999/xlink" xml:space="preserve" onload="init(evt)">
<style type="text/css"><![CDATA[
.edge:hover path { stroke: red; }
.edge:hover polygon { stroke: red; fill: red; }
]]></style>
<script type="text/javascript"><![CDATA[
var edges = document.getElementsByTagName('g');
if (edges && edges.length) {
  for (var i=0;i<edges.length;i++) {
    if (edges[i].id.substr(0,4)=='edge') {
      edges[i].setAttribute('class','edge');
    }
  }
}
]]></script>
        <defs>
                <circle id="rim" cx="0" cy="0" r="7"/>
                <circle id="rim2" cx="0" cy="0" r="3.5"/>
                <g id="zoomPlus">
                        <use xlink:href="#rim" fill="#404040">
                                <set attributeName="fill" to="#808080" begin="zoomplus.mouseover" end="zoomplus.mouseout"/>
                        </use>
                        <path d="M-4,0h8M0,-4v8" fill="none" stroke="white" stroke-width="1.5" pointer-events="none"/>
                </g>
                <g id="zoomMin">
                        <use xlink:href="#rim" fill="#404040">
                                <set attributeName="fill" to="#808080" begin="zoomminus.mouseover" end="zoomminus.mouseout"/>
                        </use>
                        <path d="M-4,0h8" fill="none" stroke="white" stroke-width="1.5" pointer-events="none"/>
                </g>
                <g id="dirArrow">
                        <path fill="none" stroke="white" stroke-width="1.5" d="M0,-3.0v7 M-2.5,-0.5L0,-3.0L2.5,-0.5"/>
                </g>
               <g id="resetDef">
                       <use xlink:href="#rim2" fill="#404040">
                               <set attributeName="fill" to="#808080" begin="reset.mouseover" end="reset.mouseout"/>
                       </use>
               </g>
        </defs>

<script type="text/javascript">
var viewWidth = 758;
var viewHeight = 475;
var sectionId = 'dynsection-0';
</script>
<script xlink:href="svgpan.js"/>
<svg id="graph" class="graph">
<g id="viewport">
<title>include/JSystem/JKernel/JKRThread/JKRThread.h</title>
<polygon fill="white" stroke="transparent" points="-4,4 -4,-471 753.5,-471 753.5,4 -4,4"/>
<!-- Node1 -->
<g id="node1" class="node">
<title>Node1</title>
<g id="a_node1"><a xlink:title=" ">
<polygon fill="#bfbfbf" stroke="black" points="44,-436.5 44,-466.5 172,-466.5 172,-436.5 44,-436.5"/>
<text text-anchor="start" x="52" y="-454.5" font-family="Helvetica,sans-Serif" font-size="10.00">include/JSystem/JKernel</text>
<text text-anchor="middle" x="108" y="-443.5" font-family="Helvetica,sans-Serif" font-size="10.00">/JKRThread/JKRThread.h</text>
</a>
</g>
</g>
<!-- Node2 -->
<g id="node2" class="node">
<title>Node2</title>
<g id="a_node2"><a xlink:href="JKRDisposer_8h.html" target="_top" xlink:title=" ">
<polygon fill="white" stroke="black" points="120.5,-123.5 120.5,-153.5 271.5,-153.5 271.5,-123.5 120.5,-123.5"/>
<text text-anchor="start" x="128.5" y="-141.5" font-family="Helvetica,sans-Serif" font-size="10.00">JSystem/JKernel/JKRDisposer</text>
<text text-anchor="middle" x="196" y="-130.5" font-family="Helvetica,sans-Serif" font-size="10.00">/JKRDisposer.h</text>
</a>
</g>
</g>
<!-- Node1&#45;&gt;Node2 -->
<g id="edge1" class="edge">
<title>Node1&#45;&gt;Node2</title>
<path fill="none" stroke="midnightblue" d="M108,-436.28C108,-414.48 108,-371.49 108,-335 108,-335 108,-335 108,-271.5 108,-226.07 144.53,-184.39 170.52,-160.48"/>
<polygon fill="midnightblue" stroke="midnightblue" points="173.05,-162.91 178.19,-153.65 168.4,-157.68 173.05,-162.91"/>
</g>
<!-- Node4 -->
<g id="node4" class="node">
<title>Node4</title>
<g id="a_node4"><a xlink:href="types_8h.html" target="_top" xlink:title=" ">
<polygon fill="white" stroke="black" points="389.5,-0.5 389.5,-19.5 470.5,-19.5 470.5,-0.5 389.5,-0.5"/>
<text text-anchor="middle" x="430" y="-7.5" font-family="Helvetica,sans-Serif" font-size="10.00">dolphin/types.h</text>
</a>
</g>
</g>
<!-- Node1&#45;&gt;Node4 -->
<g id="edge5" class="edge">
<title>Node1&#45;&gt;Node4</title>
<path fill="none" stroke="midnightblue" d="M80.47,-436.44C48.47,-417.92 0,-382.08 0,-335 0,-335 0,-335 0,-137.5 0,-93.8 17.71,-78.78 55,-56 108.22,-23.49 289.39,-14.45 378.99,-11.95"/>
<polygon fill="midnightblue" stroke="midnightblue" points="379.28,-15.44 389.18,-11.68 379.1,-8.44 379.28,-15.44"/>
</g>
<!-- Node5 -->
<g id="node5" class="node">
<title>Node5</title>
<g id="a_node5"><a xlink:href="global_8h.html" target="_top" xlink:title=" ">
<polygon fill="white" stroke="black" points="496,-380.5 496,-399.5 546,-399.5 546,-380.5 496,-380.5"/>
<text text-anchor="middle" x="521" y="-387.5" font-family="Helvetica,sans-Serif" font-size="10.00">global.h</text>
</a>
</g>
</g>
<!-- Node1&#45;&gt;Node5 -->
<g id="edge6" class="edge">
<title>Node1&#45;&gt;Node5</title>
<path fill="none" stroke="midnightblue" d="M172.08,-441.27C260.22,-428.57 415.86,-406.15 485.54,-396.11"/>
<polygon fill="midnightblue" stroke="midnightblue" points="486.17,-399.55 495.57,-394.66 485.17,-392.63 486.17,-399.55"/>
</g>
<!-- Node3 -->
<g id="node3" class="node">
<title>Node3</title>
<g id="a_node3"><a xlink:href="JSUList_8h.html" target="_top" xlink:title=" ">
<polygon fill="white" stroke="black" points="304,-56.5 304,-86.5 440,-86.5 440,-56.5 304,-56.5"/>
<text text-anchor="start" x="312" y="-74.5" font-family="Helvetica,sans-Serif" font-size="10.00">JSystem/JSupport/JSUList</text>
<text text-anchor="middle" x="372" y="-63.5" font-family="Helvetica,sans-Serif" font-size="10.00">/JSUList.h</text>
</a>
</g>
</g>
<!-- Node2&#45;&gt;Node3 -->
<g id="edge2" class="edge">
<title>Node2&#45;&gt;Node3</title>
<path fill="none" stroke="midnightblue" d="M234.19,-123.4C260.6,-113.64 295.93,-100.59 324.2,-90.15"/>
<polygon fill="midnightblue" stroke="midnightblue" points="325.72,-93.32 333.89,-86.58 323.29,-86.76 325.72,-93.32"/>
</g>
<!-- Node2&#45;&gt;Node4 -->
<g id="edge4" class="edge">
<title>Node2&#45;&gt;Node4</title>
<path fill="none" stroke="midnightblue" d="M203.62,-123.4C214.25,-105.07 235.28,-73.35 262,-56 297.38,-33.03 344.18,-21.73 379.4,-16.2"/>
<polygon fill="midnightblue" stroke="midnightblue" points="380.08,-19.64 389.46,-14.73 379.06,-12.71 380.08,-19.64"/>
</g>
<!-- Node3&#45;&gt;Node4 -->
<g id="edge3" class="edge">
<title>Node3&#45;&gt;Node4</title>
<path fill="none" stroke="midnightblue" d="M385.75,-56.4C394.35,-47.58 405.45,-36.18 414.39,-27.02"/>
<polygon fill="midnightblue" stroke="midnightblue" points="417.09,-29.26 421.56,-19.66 412.07,-24.38 417.09,-29.26"/>
</g>
<!-- Node5&#45;&gt;Node4 -->
<g id="edge7" class="edge">
<title>Node5&#45;&gt;Node4</title>
<path fill="none" stroke="midnightblue" d="M524.42,-380.35C539.88,-339.73 599.44,-165.4 529,-56 518.03,-38.97 498.87,-28.31 480.3,-21.67"/>
<polygon fill="midnightblue" stroke="midnightblue" points="481.29,-18.31 470.7,-18.55 479.13,-24.97 481.29,-18.31"/>
</g>
<!-- Node6 -->
<g id="node6" class="node">
<title>Node6</title>
<g id="a_node6"><a xlink:href="AR_8h.html" target="_top" xlink:title=" ">
<polygon fill="white" stroke="black" points="568.5,-263 568.5,-282 617.5,-282 617.5,-263 568.5,-263"/>
<text text-anchor="middle" x="593" y="-270" font-family="Helvetica,sans-Serif" font-size="10.00">ar/AR.h</text>
</a>
</g>
</g>
<!-- Node5&#45;&gt;Node6 -->
<g id="edge8" class="edge">
<title>Node5&#45;&gt;Node6</title>
<path fill="none" stroke="midnightblue" d="M527.92,-380.27C534.85,-371.37 545.65,-357.06 554,-344 565.04,-326.74 576.21,-306.16 583.75,-291.7"/>
<polygon fill="midnightblue" stroke="midnightblue" points="587.08,-292.88 588.55,-282.39 580.86,-289.68 587.08,-292.88"/>
</g>
<!-- Node7 -->
<g id="node7" class="node">
<title>Node7</title>
<g id="a_node7"><a xlink:href="ARQ_8h.html" target="_top" xlink:title=" ">
<polygon fill="white" stroke="black" points="616,-129 616,-148 672,-148 672,-129 616,-129"/>
<text text-anchor="middle" x="644" y="-136" font-family="Helvetica,sans-Serif" font-size="10.00">ar/ARQ.h</text>
</a>
</g>
</g>
<!-- Node5&#45;&gt;Node7 -->
<g id="edge10" class="edge">
<title>Node5&#45;&gt;Node7</title>
<path fill="none" stroke="midnightblue" d="M535.53,-380.31C559.51,-365.07 606.73,-330.99 627,-288 647.32,-244.9 647.24,-187.23 645.56,-158.06"/>
<polygon fill="midnightblue" stroke="midnightblue" points="649.05,-157.78 644.86,-148.06 642.07,-158.28 649.05,-157.78"/>
</g>
<!-- Node8 -->
<g id="node8" class="node">
<title>Node8</title>
<g id="a_node8"><a xlink:href="mwcc_8h.html" target="_top" xlink:title=" ">
<polygon fill="white" stroke="black" points="662,-324.5 662,-343.5 712,-343.5 712,-324.5 662,-324.5"/>
<text text-anchor="middle" x="687" y="-331.5" font-family="Helvetica,sans-Serif" font-size="10.00">mwcc.h</text>
</a>
</g>
</g>
<!-- Node5&#45;&gt;Node8 -->
<g id="edge12" class="edge">
<title>Node5&#45;&gt;Node8</title>
<path fill="none" stroke="midnightblue" d="M546.21,-380.8C574.45,-371.61 620.4,-356.67 652.08,-346.36"/>
<polygon fill="midnightblue" stroke="midnightblue" points="653.4,-349.61 661.82,-343.19 651.23,-342.96 653.4,-349.61"/>
</g>
<!-- Node9 -->
<g id="node9" class="node">
<title>Node9</title>
<g id="a_node9"><a xlink:href="OS_8h.html" target="_top" xlink:title=" ">
<polygon fill="white" stroke="black" points="694,-129 694,-148 746,-148 746,-129 694,-129"/>
<text text-anchor="middle" x="720" y="-136" font-family="Helvetica,sans-Serif" font-size="10.00">os/OS.h</text>
</a>
</g>
</g>
<!-- Node5&#45;&gt;Node9 -->
<g id="edge13" class="edge">
<title>Node5&#45;&gt;Node9</title>
<path fill="none" stroke="midnightblue" d="M546.34,-387.14C595.16,-382.96 699.38,-371.03 721,-344 764.99,-289.01 740.21,-196.47 726.82,-157.57"/>
<polygon fill="midnightblue" stroke="midnightblue" points="730.09,-156.33 723.41,-148.1 723.51,-158.7 730.09,-156.33"/>
</g>
<!-- Node11 -->
<g id="node11" class="node">
<title>Node11</title>
<g id="a_node11"><a xlink:href="variables_8h.html" target="_top" xlink:title=" ">
<polygon fill="white" stroke="black" points="338.5,-324.5 338.5,-343.5 401.5,-343.5 401.5,-324.5 338.5,-324.5"/>
<text text-anchor="middle" x="370" y="-331.5" font-family="Helvetica,sans-Serif" font-size="10.00">variables.h</text>
</a>
</g>
</g>
<!-- Node5&#45;&gt;Node11 -->
<g id="edge17" class="edge">
<title>Node5&#45;&gt;Node11</title>
<path fill="none" stroke="midnightblue" d="M497.07,-380.44C471.78,-371.4 431.7,-357.06 403.32,-346.92"/>
<polygon fill="midnightblue" stroke="midnightblue" points="404.41,-343.59 393.81,-343.52 402.05,-350.18 404.41,-343.59"/>
</g>
<!-- Node6&#45;&gt;Node4 -->
<g id="edge9" class="edge">
<title>Node6&#45;&gt;Node4</title>
<path fill="none" stroke="midnightblue" d="M594.63,-262.86C600.1,-231.1 614.61,-119.42 562,-56 542.1,-32.02 508.85,-20.78 480.7,-15.53"/>
<polygon fill="midnightblue" stroke="midnightblue" points="481.03,-12.03 470.6,-13.85 479.89,-18.94 481.03,-12.03"/>
</g>
<!-- Node7&#45;&gt;Node4 -->
<g id="edge11" class="edge">
<title>Node7&#45;&gt;Node4</title>
<path fill="none" stroke="midnightblue" d="M641.82,-128.87C637.14,-112.15 624.5,-75.3 600,-56 565.91,-29.15 517.27,-18.24 480.75,-13.85"/>
<polygon fill="midnightblue" stroke="midnightblue" points="481.1,-10.37 470.79,-12.78 480.35,-17.33 481.1,-10.37"/>
</g>
<!-- Node9&#45;&gt;Node4 -->
<g id="edge14" class="edge">
<title>Node9&#45;&gt;Node4</title>
<path fill="none" stroke="midnightblue" d="M712.6,-128.82C697.78,-112.01 662.63,-75.01 625,-56 579.26,-32.89 521.49,-21.47 480.74,-15.94"/>
<polygon fill="midnightblue" stroke="midnightblue" points="481.13,-12.46 470.77,-14.66 480.24,-19.41 481.13,-12.46"/>
</g>
<!-- Node10 -->
<g id="node10" class="node">
<title>Node10</title>
<g id="a_node10"><a xlink:href="dvd_8h.html" target="_top" xlink:title=" ">
<polygon fill="white" stroke="black" points="690.5,-62 690.5,-81 749.5,-81 749.5,-62 690.5,-62"/>
<text text-anchor="middle" x="720" y="-69" font-family="Helvetica,sans-Serif" font-size="10.00">dvd/dvd.h</text>
</a>
</g>
</g>
<!-- Node9&#45;&gt;Node10 -->
<g id="edge15" class="edge">
<title>Node9&#45;&gt;Node10</title>
<path fill="none" stroke="midnightblue" d="M720,-128.73C720,-119.18 720,-103.62 720,-91.28"/>
<polygon fill="midnightblue" stroke="midnightblue" points="723.5,-91.13 720,-81.13 716.5,-91.13 723.5,-91.13"/>
</g>
<!-- Node10&#45;&gt;Node4 -->
<g id="edge16" class="edge">
<title>Node10&#45;&gt;Node4</title>
<path fill="none" stroke="midnightblue" d="M695.97,-61.92C689.53,-59.8 682.55,-57.67 676,-56 609.29,-38.99 530.83,-25.79 480.78,-18.2"/>
<polygon fill="midnightblue" stroke="midnightblue" points="481.26,-14.73 470.85,-16.71 480.22,-21.66 481.26,-14.73"/>
</g>
<!-- Node11&#45;&gt;Node3 -->
<g id="edge18" class="edge">
<title>Node11&#45;&gt;Node3</title>
<path fill="none" stroke="midnightblue" d="M366.91,-324.17C363.95,-315.2 359.68,-300.83 358,-288 348.94,-218.87 360.43,-136.47 367.39,-96.55"/>
<polygon fill="midnightblue" stroke="midnightblue" points="370.84,-97.15 369.18,-86.68 363.95,-95.9 370.84,-97.15"/>
</g>
<!-- Node12 -->
<g id="node12" class="node">
<title>Node12</title>
<g id="a_node12"><a xlink:href="JUTXfb_8h.html" target="_top" xlink:title=" ">
<polygon fill="white" stroke="black" points="139.5,-257.5 139.5,-287.5 264.5,-287.5 264.5,-257.5 139.5,-257.5"/>
<text text-anchor="start" x="147.5" y="-275.5" font-family="Helvetica,sans-Serif" font-size="10.00">JSystem/JUtility/JUTXfb</text>
<text text-anchor="middle" x="202" y="-264.5" font-family="Helvetica,sans-Serif" font-size="10.00">/JUTXfb.h</text>
</a>
</g>
</g>
<!-- Node11&#45;&gt;Node12 -->
<g id="edge19" class="edge">
<title>Node11&#45;&gt;Node12</title>
<path fill="none" stroke="midnightblue" d="M345.93,-324.48C321.37,-315.78 282.55,-302.03 251.41,-291"/>
<polygon fill="midnightblue" stroke="midnightblue" points="252.19,-287.56 241.59,-287.52 249.85,-294.16 252.19,-287.56"/>
</g>
<!-- Node15 -->
<g id="node15" class="node">
<title>Node15</title>
<g id="a_node15"><a xlink:href="c__xyz_8h.html" target="_top" xlink:title=" ">
<polygon fill="white" stroke="black" points="366.5,-263 366.5,-282 473.5,-282 473.5,-263 366.5,-263"/>
<text text-anchor="middle" x="420" y="-270" font-family="Helvetica,sans-Serif" font-size="10.00">SComponent/c_xyz.h</text>
</a>
</g>
</g>
<!-- Node11&#45;&gt;Node15 -->
<g id="edge27" class="edge">
<title>Node11&#45;&gt;Node15</title>
<path fill="none" stroke="midnightblue" d="M377.16,-324.48C384.74,-315.46 396.87,-301.02 406.29,-289.81"/>
<polygon fill="midnightblue" stroke="midnightblue" points="409.1,-291.92 412.85,-282.01 403.74,-287.41 409.1,-291.92"/>
</g>
<!-- Node12&#45;&gt;Node4 -->
<g id="edge24" class="edge">
<title>Node12&#45;&gt;Node4</title>
<path fill="none" stroke="midnightblue" d="M181.85,-257.35C147.14,-231.15 82.41,-173.18 111,-123 164,-29.96 303.44,-12.65 379.22,-10.38"/>
<polygon fill="midnightblue" stroke="midnightblue" points="379.56,-13.87 389.48,-10.15 379.4,-6.88 379.56,-13.87"/>
</g>
<!-- Node13 -->
<g id="node13" class="node">
<title>Node13</title>
<g id="a_node13"><a xlink:href="JKRHeap_8h.html" target="_top" xlink:title=" ">
<polygon fill="white" stroke="black" points="174,-190.5 174,-220.5 310,-220.5 310,-190.5 174,-190.5"/>
<text text-anchor="start" x="182" y="-208.5" font-family="Helvetica,sans-Serif" font-size="10.00">JSystem/JKernel/JKRHeap</text>
<text text-anchor="middle" x="242" y="-197.5" font-family="Helvetica,sans-Serif" font-size="10.00">/JKRHeap.h</text>
</a>
</g>
</g>
<!-- Node12&#45;&gt;Node13 -->
<g id="edge20" class="edge">
<title>Node12&#45;&gt;Node13</title>
<path fill="none" stroke="midnightblue" d="M210.68,-257.4C215.76,-249.13 222.3,-238.51 228.09,-229.1"/>
<polygon fill="midnightblue" stroke="midnightblue" points="231.08,-230.93 233.34,-220.58 225.12,-227.26 231.08,-230.93"/>
</g>
<!-- Node14 -->
<g id="node14" class="node">
<title>Node14</title>
<g id="a_node14"><a xlink:href="GX_8h.html" target="_top" xlink:title=" ">
<polygon fill="white" stroke="black" points="28.5,-196 28.5,-215 79.5,-215 79.5,-196 28.5,-196"/>
<text text-anchor="middle" x="54" y="-203" font-family="Helvetica,sans-Serif" font-size="10.00">gx/GX.h</text>
</a>
</g>
</g>
<!-- Node12&#45;&gt;Node14 -->
<g id="edge25" class="edge">
<title>Node12&#45;&gt;Node14</title>
<path fill="none" stroke="midnightblue" d="M169.89,-257.4C143.92,-245.99 107.69,-230.08 82.68,-219.1"/>
<polygon fill="midnightblue" stroke="midnightblue" points="83.93,-215.82 73.37,-215.01 81.12,-222.23 83.93,-215.82"/>
</g>
<!-- Node13&#45;&gt;Node2 -->
<g id="edge21" class="edge">
<title>Node13&#45;&gt;Node2</title>
<path fill="none" stroke="midnightblue" d="M232.02,-190.4C226.11,-182.05 218.5,-171.29 211.79,-161.81"/>
<polygon fill="midnightblue" stroke="midnightblue" points="214.6,-159.72 205.96,-153.58 208.88,-163.76 214.6,-159.72"/>
</g>
<!-- Node13&#45;&gt;Node4 -->
<g id="edge22" class="edge">
<title>Node13&#45;&gt;Node4</title>
<path fill="none" stroke="midnightblue" d="M256.19,-190.34C264.81,-180.87 275.22,-167.67 281,-154 298.12,-113.47 266.81,-89.78 295,-56 315.67,-31.23 350.39,-20.02 379.44,-14.98"/>
<polygon fill="midnightblue" stroke="midnightblue" points="380.09,-18.42 389.45,-13.45 379.03,-11.5 380.09,-18.42"/>
</g>
<!-- Node13&#45;&gt;Node5 -->
<g id="edge23" class="edge">
<title>Node13&#45;&gt;Node5</title>
<path fill="none" stroke="midnightblue" d="M250.69,-220.7C271.72,-254.99 324.1,-339.82 330,-344 376.92,-377.25 445.01,-386.21 485.95,-388.47"/>
<polygon fill="midnightblue" stroke="midnightblue" points="485.85,-391.96 495.99,-388.91 486.16,-384.97 485.85,-391.96"/>
</g>
<!-- Node14&#45;&gt;Node4 -->
<g id="edge26" class="edge">
<title>Node14&#45;&gt;Node4</title>
<path fill="none" stroke="midnightblue" d="M52.29,-195.9C47.77,-170.35 38.4,-94.31 78,-56 119.91,-15.45 292.32,-10.27 379.31,-10.32"/>
<polygon fill="midnightblue" stroke="midnightblue" points="379.47,-13.82 389.48,-10.35 379.49,-6.82 379.47,-13.82"/>
</g>
<!-- Node15&#45;&gt;Node5 -->
<g id="edge30" class="edge">
<title>Node15&#45;&gt;Node5</title>
<path fill="none" stroke="midnightblue" d="M427.68,-282.28C444.51,-301.52 484.85,-347.66 506.57,-372.5"/>
<polygon fill="midnightblue" stroke="midnightblue" points="504.19,-375.09 513.41,-380.32 509.46,-370.49 504.19,-375.09"/>
</g>
<!-- Node16 -->
<g id="node16" class="node">
<title>Node16</title>
<g id="a_node16"><a xlink:href="c__math_8h.html" target="_top" xlink:title=" ">
<polygon fill="white" stroke="black" points="404,-196 404,-215 520,-215 520,-196 404,-196"/>
<text text-anchor="middle" x="462" y="-203" font-family="Helvetica,sans-Serif" font-size="10.00">SComponent/c_math.h</text>
</a>
</g>
</g>
<!-- Node15&#45;&gt;Node16 -->
<g id="edge28" class="edge">
<title>Node15&#45;&gt;Node16</title>
<path fill="none" stroke="midnightblue" d="M425.66,-262.73C432.09,-252.79 442.72,-236.34 450.83,-223.79"/>
<polygon fill="midnightblue" stroke="midnightblue" points="453.94,-225.43 456.43,-215.13 448.06,-221.63 453.94,-225.43"/>
</g>
<!-- Node17 -->
<g id="node17" class="node">
<title>Node17</title>
<g id="a_node17"><a xlink:href="mtx__vec_8h.html" target="_top" xlink:title=" ">
<polygon fill="white" stroke="black" points="458.5,-62 458.5,-81 519.5,-81 519.5,-62 458.5,-62"/>
<text text-anchor="middle" x="489" y="-69" font-family="Helvetica,sans-Serif" font-size="10.00">mtx_vec.h</text>
</a>
</g>
</g>
<!-- Node15&#45;&gt;Node17 -->
<g id="edge31" class="edge">
<title>Node15&#45;&gt;Node17</title>
<path fill="none" stroke="midnightblue" d="M413.7,-262.86C403.59,-247.9 385.79,-216.26 395,-190 410.02,-147.19 447.92,-108.39 470.75,-87.86"/>
<polygon fill="midnightblue" stroke="midnightblue" points="473.19,-90.37 478.4,-81.15 468.58,-85.11 473.19,-90.37"/>
</g>
<!-- Node16&#45;&gt;Node5 -->
<g id="edge29" class="edge">
<title>Node16&#45;&gt;Node5</title>
<path fill="none" stroke="midnightblue" d="M466.03,-215.32C470.5,-225.31 477.79,-242.13 483,-257 496.95,-296.8 509.76,-344.6 516.35,-370.35"/>
<polygon fill="midnightblue" stroke="midnightblue" points="513,-371.41 518.85,-380.24 519.79,-369.69 513,-371.41"/>
</g>
<!-- Node17&#45;&gt;Node4 -->
<g id="edge32" class="edge">
<title>Node17&#45;&gt;Node4</title>
<path fill="none" stroke="midnightblue" d="M480.55,-61.98C471.43,-52.78 456.73,-37.96 445.52,-26.66"/>
<polygon fill="midnightblue" stroke="midnightblue" points="447.96,-24.15 438.44,-19.51 442.99,-29.07 447.96,-24.15"/>
</g>
</g>
</svg>
        <g id="navigator" transform="translate(0 0)" fill="#404254">
                <rect fill="#f2f5e9" fill-opacity="0.5" stroke="#606060" stroke-width=".5" x="0" y="0" width="60" height="60"/>
                <use id="zoomplus" xlink:href="#zoomPlus" x="17" y="9" onmousedown="handleZoom(evt,'in')"/>
                <use id="zoomminus" xlink:href="#zoomMin" x="42" y="9" onmousedown="handleZoom(evt,'out')"/>
                <use id="reset" xlink:href="#resetDef" x="30" y="36" onmousedown="handleReset()"/>
                <g id="arrowUp" xlink:href="#dirArrow" transform="translate(30 24)" onmousedown="handlePan(0,-1)">
                  <use xlink:href="#rim" fill="#404040">
                        <set attributeName="fill" to="#808080" begin="arrowUp.mouseover" end="arrowUp.mouseout"/>
                  </use>
                  <path fill="none" stroke="white" stroke-width="1.5" d="M0,-3.0v7 M-2.5,-0.5L0,-3.0L2.5,-0.5"/>
                </g>
                <g id="arrowRight" xlink:href="#dirArrow" transform="rotate(90) translate(36 -43)" onmousedown="handlePan(1,0)">
                  <use xlink:href="#rim" fill="#404040">
                        <set attributeName="fill" to="#808080" begin="arrowRight.mouseover" end="arrowRight.mouseout"/>
                  </use>
                  <path fill="none" stroke="white" stroke-width="1.5" d="M0,-3.0v7 M-2.5,-0.5L0,-3.0L2.5,-0.5"/>
                </g>
                <g id="arrowDown" xlink:href="#dirArrow" transform="rotate(180) translate(-30 -48)" onmousedown="handlePan(0,1)">
                  <use xlink:href="#rim" fill="#404040">
                        <set attributeName="fill" to="#808080" begin="arrowDown.mouseover" end="arrowDown.mouseout"/>
                  </use>
                  <path fill="none" stroke="white" stroke-width="1.5" d="M0,-3.0v7 M-2.5,-0.5L0,-3.0L2.5,-0.5"/>
                </g>
                <g id="arrowLeft" xlink:href="#dirArrow" transform="rotate(270) translate(-36 17)" onmousedown="handlePan(-1,0)">
                  <use xlink:href="#rim" fill="#404040">
                        <set attributeName="fill" to="#808080" begin="arrowLeft.mouseover" end="arrowLeft.mouseout"/>
                  </use>
                  <path fill="none" stroke="white" stroke-width="1.5" d="M0,-3.0v7 M-2.5,-0.5L0,-3.0L2.5,-0.5"/>
                </g>
        </g>
        <svg viewBox="0 0 15 15" width="100%" height="30px" preserveAspectRatio="xMaxYMin meet">
         <g id="arrow_out" transform="scale(0.3 0.3)">
          <a xlink:href="JKRThread_8h__incl_org.svg" target="_base">
           <rect id="button" ry="5" rx="5" y="6" x="6" height="38" width="38"
                fill="#f2f5e9" fill-opacity="0.5" stroke="#606060" stroke-width="1.0"/>
           <path id="arrow"
             d="M 11.500037,31.436501 C 11.940474,20.09759 22.043105,11.32322 32.158766,21.979434 L 37.068811,17.246167 C 37.068811,17.246167 37.088388,32 37.088388,32 L 22.160133,31.978069 C 22.160133,31.978069 26.997745,27.140456 26.997745,27.140456 C 18.528582,18.264221 13.291696,25.230495 11.500037,31.436501 z"
             style="fill:#404040;"/>
          </a>
         </g>
        </svg>
</svg>
