<?xml version="1.0" encoding="UTF-8" standalone="no"?>
<!DOCTYPE svg PUBLIC "-//W3C//DTD SVG 1.1//EN"
 "http://www.w3.org/Graphics/SVG/1.1/DTD/svg11.dtd">
<!-- Generated by graphviz version 2.46.0 (20210122.1329)
 -->
<!-- Title: include/JSystem/JSupport/JSUFileInputStream/JSUFileInputStream.h Pages: 1 -->
<svg width="298pt" height="296pt"
 viewBox="0.00 0.00 297.50 296.00" xmlns="http://www.w3.org/2000/svg" xmlns:xlink="http://www.w3.org/1999/xlink">
<g id="graph0" class="graph" transform="scale(1 1) rotate(0) translate(4 292)">
<title>include/JSystem/JSupport/JSUFileInputStream/JSUFileInputStream.h</title>
<polygon fill="white" stroke="transparent" points="-4,4 -4,-292 293.5,-292 293.5,4 -4,4"/>
<!-- Node1 -->
<g id="node1" class="node">
<title>Node1</title>
<g id="a_node1"><a xlink:title=" ">
<polygon fill="#bfbfbf" stroke="black" points="121.5,-246.5 121.5,-287.5 289.5,-287.5 289.5,-246.5 121.5,-246.5"/>
<text text-anchor="start" x="129.5" y="-275.5" font-family="Helvetica,sans-Serif" font-size="10.00">include/JSystem/JSupport</text>
<text text-anchor="start" x="129.5" y="-264.5" font-family="Helvetica,sans-Serif" font-size="10.00">/JSUFileInputStream/JSUFileInput</text>
<text text-anchor="middle" x="205.5" y="-253.5" font-family="Helvetica,sans-Serif" font-size="10.00">Stream.h</text>
</a>
</g>
</g>
<!-- Node2 -->
<g id="node2" class="node">
<title>Node2</title>
<g id="a_node2"><a xlink:href="JSURandomInputStream_8h.html" target="_top" xlink:title=" ">
<polygon fill="white" stroke="black" points="50,-179.5 50,-209.5 239,-209.5 239,-179.5 50,-179.5"/>
<text text-anchor="start" x="58" y="-197.5" font-family="Helvetica,sans-Serif" font-size="10.00">JSystem/JSupport/JSURandom</text>
<text text-anchor="middle" x="144.5" y="-186.5" font-family="Helvetica,sans-Serif" font-size="10.00">InputStream/JSURandomInputStream.h</text>
</a>
</g>
</g>
<!-- Node1&#45;&gt;Node2 -->
<g id="edge1" class="edge">
<title>Node1&#45;&gt;Node2</title>
<path fill="none" stroke="midnightblue" d="M188.51,-246.36C180.76,-237.41 171.57,-226.78 163.58,-217.56"/>
<polygon fill="midnightblue" stroke="midnightblue" points="166.14,-215.16 156.95,-209.89 160.85,-219.74 166.14,-215.16"/>
</g>
<!-- Node5 -->
<g id="node5" class="node">
<title>Node5</title>
<g id="a_node5"><a xlink:href="types_8h.html" target="_top" xlink:title=" ">
<polygon fill="white" stroke="black" points="170,-0.5 170,-19.5 251,-19.5 251,-0.5 170,-0.5"/>
<text text-anchor="middle" x="210.5" y="-7.5" font-family="Helvetica,sans-Serif" font-size="10.00">dolphin/types.h</text>
</a>
</g>
</g>
<!-- Node1&#45;&gt;Node5 -->
<g id="edge7" class="edge">
<title>Node1&#45;&gt;Node5</title>
<path fill="none" stroke="midnightblue" d="M225.22,-246.33C233.84,-236.35 243,-223.49 247.5,-210 258.22,-177.84 258.49,-134.22 234.5,-56 231.51,-46.27 226.37,-36.2 221.6,-28.06"/>
<polygon fill="midnightblue" stroke="midnightblue" points="224.57,-26.2 216.34,-19.52 218.61,-29.87 224.57,-26.2"/>
</g>
<!-- Node3 -->
<g id="node3" class="node">
<title>Node3</title>
<g id="a_node3"><a xlink:href="JSUInputStream_8h.html" target="_top" xlink:title=" ">
<polygon fill="white" stroke="black" points="60,-112.5 60,-142.5 201,-142.5 201,-112.5 60,-112.5"/>
<text text-anchor="start" x="68" y="-130.5" font-family="Helvetica,sans-Serif" font-size="10.00">JSystem/JSupport/JSUInput</text>
<text text-anchor="middle" x="130.5" y="-119.5" font-family="Helvetica,sans-Serif" font-size="10.00">Stream.h</text>
</a>
</g>
</g>
<!-- Node2&#45;&gt;Node3 -->
<g id="edge2" class="edge">
<title>Node2&#45;&gt;Node3</title>
<path fill="none" stroke="midnightblue" d="M141.46,-179.4C139.77,-171.56 137.63,-161.6 135.68,-152.57"/>
<polygon fill="midnightblue" stroke="midnightblue" points="139.06,-151.62 133.53,-142.58 132.22,-153.09 139.06,-151.62"/>
</g>
<!-- Node2&#45;&gt;Node5 -->
<g id="edge6" class="edge">
<title>Node2&#45;&gt;Node5</title>
<path fill="none" stroke="midnightblue" d="M172.94,-179.32C186.65,-170.83 201.78,-158.63 209.5,-143 227.71,-106.15 220.89,-56.13 215.18,-29.49"/>
<polygon fill="midnightblue" stroke="midnightblue" points="218.56,-28.56 212.87,-19.61 211.74,-30.15 218.56,-28.56"/>
</g>
<!-- Node4 -->
<g id="node4" class="node">
<title>Node4</title>
<g id="a_node4"><a xlink:href="JSUIosBase_8h.html" target="_top" xlink:title=" ">
<polygon fill="white" stroke="black" points="0,-56.5 0,-75.5 163,-75.5 163,-56.5 0,-56.5"/>
<text text-anchor="middle" x="81.5" y="-63.5" font-family="Helvetica,sans-Serif" font-size="10.00">JSystem/JSupport/JSUIosBase.h</text>
</a>
</g>
</g>
<!-- Node3&#45;&gt;Node4 -->
<g id="edge3" class="edge">
<title>Node3&#45;&gt;Node4</title>
<path fill="none" stroke="midnightblue" d="M118.89,-112.4C111.77,-103.75 102.62,-92.64 95.15,-83.58"/>
<polygon fill="midnightblue" stroke="midnightblue" points="97.69,-81.15 88.63,-75.66 92.29,-85.6 97.69,-81.15"/>
</g>
<!-- Node3&#45;&gt;Node5 -->
<g id="edge5" class="edge">
<title>Node3&#45;&gt;Node5</title>
<path fill="none" stroke="midnightblue" d="M142.9,-112.34C151.34,-102.44 162.56,-88.76 171.5,-76 182.33,-60.54 193.27,-42 200.79,-28.68"/>
<polygon fill="midnightblue" stroke="midnightblue" points="204.01,-30.09 205.82,-19.66 197.9,-26.69 204.01,-30.09"/>
</g>
<!-- Node4&#45;&gt;Node5 -->
<g id="edge4" class="edge">
<title>Node4&#45;&gt;Node5</title>
<path fill="none" stroke="midnightblue" d="M101.94,-56.44C123.17,-47.56 156.6,-33.56 180.75,-23.45"/>
<polygon fill="midnightblue" stroke="midnightblue" points="182.28,-26.61 190.16,-19.52 179.58,-20.15 182.28,-26.61"/>
</g>
</g>
</svg>
