<?xml version="1.0" encoding="UTF-8" standalone="no"?>
<!DOCTYPE svg PUBLIC "-//W3C//DTD SVG 1.1//EN"
 "http://www.w3.org/Graphics/SVG/1.1/DTD/svg11.dtd">
<!-- Generated by graphviz version 2.46.1 (20210215.1649)
 -->
<!-- Title: include/JSystem/JUtility/JUTConsole/JUTConsole.h Pages: 1 -->
<svg width="721pt" height="464pt"
 viewBox="0.00 0.00 720.95 464.00" xmlns="http://www.w3.org/2000/svg" xmlns:xlink="http://www.w3.org/1999/xlink">
<g id="graph0" class="graph" transform="scale(1 1) rotate(0) translate(4 460)">
<title>include/JSystem/JUtility/JUTConsole/JUTConsole.h</title>
<polygon fill="white" stroke="transparent" points="-4,4 -4,-460 716.95,-460 716.95,4 -4,4"/>
<!-- Node1 -->
<g id="node1" class="node">
<title>Node1</title>
<g id="a_node1"><a xlink:title=" ">
<polygon fill="#bfbfbf" stroke="black" points="278,-425.5 278,-455.5 416,-455.5 416,-425.5 278,-425.5"/>
<text text-anchor="start" x="286" y="-443.5" font-family="Helvetica,sans-Serif" font-size="10.00">include/JSystem/JUtility</text>
<text text-anchor="middle" x="347" y="-432.5" font-family="Helvetica,sans-Serif" font-size="10.00">/JUTConsole/JUTConsole.h</text>
</a>
</g>
</g>
<!-- Node2 -->
<g id="node2" class="node">
<title>Node2</title>
<g id="a_node2"><a xlink:href="JKRHeap_8h.html" target="_top" xlink:title=" ">
<polygon fill="white" stroke="black" points="227,-302.5 227,-332.5 363,-332.5 363,-302.5 227,-302.5"/>
<text text-anchor="start" x="235" y="-320.5" font-family="Helvetica,sans-Serif" font-size="10.00">JSystem/JKernel/JKRHeap</text>
<text text-anchor="middle" x="295" y="-309.5" font-family="Helvetica,sans-Serif" font-size="10.00">/JKRHeap.h</text>
</a>
</g>
</g>
<!-- Node1&#45;&gt;Node2 -->
<g id="edge1" class="edge">
<title>Node1&#45;&gt;Node2</title>
<path fill="none" stroke="midnightblue" d="M335.88,-425.18C328.77,-415.44 319.82,-402 314,-389 307.35,-374.16 302.6,-356.48 299.5,-342.55"/>
<polygon fill="midnightblue" stroke="midnightblue" points="302.93,-341.8 297.46,-332.72 296.07,-343.23 302.93,-341.8"/>
</g>
<!-- Node4 -->
<g id="node4" class="node">
<title>Node4</title>
<g id="a_node4"><a xlink:href="JSUList_8h.html" target="_top" xlink:title=" ">
<polygon fill="white" stroke="black" points="420,-112.5 420,-142.5 556,-142.5 556,-112.5 420,-112.5"/>
<text text-anchor="start" x="428" y="-130.5" font-family="Helvetica,sans-Serif" font-size="10.00">JSystem/JSupport/JSUList</text>
<text text-anchor="middle" x="488" y="-119.5" font-family="Helvetica,sans-Serif" font-size="10.00">/JSUList.h</text>
</a>
</g>
</g>
<!-- Node1&#45;&gt;Node4 -->
<g id="edge27" class="edge">
<title>Node1&#45;&gt;Node4</title>
<path fill="none" stroke="midnightblue" d="M416.41,-429.42C516.64,-412.88 690,-375.96 690,-318.5 690,-318.5 690,-318.5 690,-255 690,-193.88 622.75,-161.18 565.86,-144.45"/>
<polygon fill="midnightblue" stroke="midnightblue" points="566.68,-141.04 556.11,-141.7 564.78,-147.78 566.68,-141.04"/>
</g>
<!-- Node5 -->
<g id="node5" class="node">
<title>Node5</title>
<g id="a_node5"><a xlink:href="types_8h.html" target="_top" xlink:title=" ">
<polygon fill="white" stroke="black" points="235.5,-0.5 235.5,-19.5 316.5,-19.5 316.5,-0.5 235.5,-0.5"/>
<text text-anchor="middle" x="276" y="-7.5" font-family="Helvetica,sans-Serif" font-size="10.00">dolphin/types.h</text>
</a>
</g>
</g>
<!-- Node1&#45;&gt;Node5 -->
<g id="edge33" class="edge">
<title>Node1&#45;&gt;Node5</title>
<path fill="none" stroke="midnightblue" d="M277.61,-429.7C176.35,-413.42 0,-376.72 0,-318.5 0,-318.5 0,-318.5 0,-126.5 0,-30.06 145.17,-12.75 224.94,-10.53"/>
<polygon fill="midnightblue" stroke="midnightblue" points="225.35,-14.02 235.28,-10.31 225.2,-7.02 225.35,-14.02"/>
</g>
<!-- Node16 -->
<g id="node16" class="node">
<title>Node16</title>
<g id="a_node16"><a xlink:href="JUTResFont_8h.html" target="_top" xlink:title=" ">
<polygon fill="white" stroke="black" points="323,-369.5 323,-388.5 477,-388.5 477,-369.5 323,-369.5"/>
<text text-anchor="middle" x="400" y="-376.5" font-family="Helvetica,sans-Serif" font-size="10.00">JSystem/JUtility/JUTResFont.h</text>
</a>
</g>
</g>
<!-- Node1&#45;&gt;Node16 -->
<g id="edge28" class="edge">
<title>Node1&#45;&gt;Node16</title>
<path fill="none" stroke="midnightblue" d="M359.56,-425.4C367.34,-416.66 377.36,-405.41 385.48,-396.3"/>
<polygon fill="midnightblue" stroke="midnightblue" points="388.25,-398.45 392.29,-388.66 383.02,-393.8 388.25,-398.45"/>
</g>
<!-- Node3 -->
<g id="node3" class="node">
<title>Node3</title>
<g id="a_node3"><a xlink:href="JKRDisposer_8h.html" target="_top" xlink:title=" ">
<polygon fill="white" stroke="black" points="142.5,-179.5 142.5,-209.5 293.5,-209.5 293.5,-179.5 142.5,-179.5"/>
<text text-anchor="start" x="150.5" y="-197.5" font-family="Helvetica,sans-Serif" font-size="10.00">JSystem/JKernel/JKRDisposer</text>
<text text-anchor="middle" x="218" y="-186.5" font-family="Helvetica,sans-Serif" font-size="10.00">/JKRDisposer.h</text>
</a>
</g>
</g>
<!-- Node2&#45;&gt;Node3 -->
<g id="edge2" class="edge">
<title>Node2&#45;&gt;Node3</title>
<path fill="none" stroke="midnightblue" d="M285.86,-302.14C272.72,-281.5 248.35,-243.19 232.67,-218.55"/>
<polygon fill="midnightblue" stroke="midnightblue" points="235.45,-216.39 227.12,-209.84 229.54,-220.15 235.45,-216.39"/>
</g>
<!-- Node2&#45;&gt;Node5 -->
<g id="edge6" class="edge">
<title>Node2&#45;&gt;Node5</title>
<path fill="none" stroke="midnightblue" d="M226.8,-313.02C150.67,-305.03 38,-279.09 38,-195.5 38,-195.5 38,-195.5 38,-126.5 38,-90.47 49.08,-77.49 78,-56 120.74,-24.24 181.97,-14.29 225,-11.47"/>
<polygon fill="midnightblue" stroke="midnightblue" points="225.45,-14.95 235.25,-10.91 225.07,-7.97 225.45,-14.95"/>
</g>
<!-- Node6 -->
<g id="node6" class="node">
<title>Node6</title>
<g id="a_node6"><a xlink:href="global_8h.html" target="_top" xlink:title=" ">
<polygon fill="white" stroke="black" points="316,-246.5 316,-265.5 366,-265.5 366,-246.5 316,-246.5"/>
<text text-anchor="middle" x="341" y="-253.5" font-family="Helvetica,sans-Serif" font-size="10.00">global.h</text>
</a>
</g>
</g>
<!-- Node2&#45;&gt;Node6 -->
<g id="edge7" class="edge">
<title>Node2&#45;&gt;Node6</title>
<path fill="none" stroke="midnightblue" d="M305.9,-302.4C312.59,-293.75 321.18,-282.64 328.18,-273.58"/>
<polygon fill="midnightblue" stroke="midnightblue" points="330.96,-275.71 334.31,-265.66 325.42,-271.43 330.96,-275.71"/>
</g>
<!-- Node3&#45;&gt;Node4 -->
<g id="edge3" class="edge">
<title>Node3&#45;&gt;Node4</title>
<path fill="none" stroke="midnightblue" d="M276.25,-179.48C318.34,-169.34 375.32,-155.63 419.58,-144.97"/>
<polygon fill="midnightblue" stroke="midnightblue" points="420.48,-148.35 429.39,-142.61 418.84,-141.55 420.48,-148.35"/>
</g>
<!-- Node3&#45;&gt;Node5 -->
<g id="edge5" class="edge">
<title>Node3&#45;&gt;Node5</title>
<path fill="none" stroke="midnightblue" d="M210.89,-179.14C198.97,-152.84 178.36,-95.98 201,-56 209.35,-41.26 224.66,-30.82 239.29,-23.73"/>
<polygon fill="midnightblue" stroke="midnightblue" points="241,-26.8 248.72,-19.55 238.16,-20.4 241,-26.8"/>
</g>
<!-- Node4&#45;&gt;Node5 -->
<g id="edge4" class="edge">
<title>Node4&#45;&gt;Node5</title>
<path fill="none" stroke="midnightblue" d="M469.97,-112.25C450.17,-97.02 417.04,-72.82 386,-56 361.77,-42.87 332.89,-31.2 310.8,-23.03"/>
<polygon fill="midnightblue" stroke="midnightblue" points="311.76,-19.65 301.17,-19.53 309.37,-26.23 311.76,-19.65"/>
</g>
<!-- Node6&#45;&gt;Node5 -->
<g id="edge8" class="edge">
<title>Node6&#45;&gt;Node5</title>
<path fill="none" stroke="midnightblue" d="M315.66,-253.53C262.57,-249.91 142.32,-238.68 115,-210 67.39,-160.03 52.49,-110.37 95,-56 110.93,-35.62 177.48,-23.15 225.26,-16.66"/>
<polygon fill="midnightblue" stroke="midnightblue" points="225.99,-20.09 235.45,-15.32 225.08,-13.15 225.99,-20.09"/>
</g>
<!-- Node7 -->
<g id="node7" class="node">
<title>Node7</title>
<g id="a_node7"><a xlink:href="AR_8h.html" target="_top" xlink:title=" ">
<polygon fill="white" stroke="black" points="104.5,-56.5 104.5,-75.5 153.5,-75.5 153.5,-56.5 104.5,-56.5"/>
<text text-anchor="middle" x="129" y="-63.5" font-family="Helvetica,sans-Serif" font-size="10.00">ar/AR.h</text>
</a>
</g>
</g>
<!-- Node6&#45;&gt;Node7 -->
<g id="edge9" class="edge">
<title>Node6&#45;&gt;Node7</title>
<path fill="none" stroke="midnightblue" d="M315.89,-253.33C265.77,-249.44 156.13,-237.86 133,-210 103.6,-174.59 114.67,-115.5 123.02,-85.58"/>
<polygon fill="midnightblue" stroke="midnightblue" points="126.48,-86.24 126,-75.65 119.78,-84.22 126.48,-86.24"/>
</g>
<!-- Node8 -->
<g id="node8" class="node">
<title>Node8</title>
<g id="a_node8"><a xlink:href="ARQ_8h.html" target="_top" xlink:title=" ">
<polygon fill="white" stroke="black" points="210,-56.5 210,-75.5 266,-75.5 266,-56.5 210,-56.5"/>
<text text-anchor="middle" x="238" y="-63.5" font-family="Helvetica,sans-Serif" font-size="10.00">ar/ARQ.h</text>
</a>
</g>
</g>
<!-- Node6&#45;&gt;Node8 -->
<g id="edge11" class="edge">
<title>Node6&#45;&gt;Node8</title>
<path fill="none" stroke="midnightblue" d="M337.84,-246.42C332.14,-231.67 319.14,-200.99 302,-179 287.09,-159.88 274.13,-163.39 261,-143 249.71,-125.47 243.73,-102.11 240.73,-85.94"/>
<polygon fill="midnightblue" stroke="midnightblue" points="244.11,-84.93 239.04,-75.63 237.2,-86.06 244.11,-84.93"/>
</g>
<!-- Node9 -->
<g id="node9" class="node">
<title>Node9</title>
<g id="a_node9"><a xlink:href="mwcc_8h.html" target="_top" xlink:title=" ">
<polygon fill="white" stroke="black" points="388,-185 388,-204 438,-204 438,-185 388,-185"/>
<text text-anchor="middle" x="413" y="-192" font-family="Helvetica,sans-Serif" font-size="10.00">mwcc.h</text>
</a>
</g>
</g>
<!-- Node6&#45;&gt;Node9 -->
<g id="edge13" class="edge">
<title>Node6&#45;&gt;Node9</title>
<path fill="none" stroke="midnightblue" d="M351.32,-246.48C362.65,-237.11 381.07,-221.88 394.84,-210.51"/>
<polygon fill="midnightblue" stroke="midnightblue" points="397.22,-213.08 402.7,-204.01 392.77,-207.68 397.22,-213.08"/>
</g>
<!-- Node10 -->
<g id="node10" class="node">
<title>Node10</title>
<g id="a_node10"><a xlink:href="OS_8h.html" target="_top" xlink:title=" ">
<polygon fill="white" stroke="black" points="270,-118 270,-137 322,-137 322,-118 270,-118"/>
<text text-anchor="middle" x="296" y="-125" font-family="Helvetica,sans-Serif" font-size="10.00">os/OS.h</text>
</a>
</g>
</g>
<!-- Node6&#45;&gt;Node10 -->
<g id="edge14" class="edge">
<title>Node6&#45;&gt;Node10</title>
<path fill="none" stroke="midnightblue" d="M342.07,-246.21C343.48,-231.67 344.84,-201.95 336,-179 330.96,-165.92 321.27,-153.55 312.69,-144.32"/>
<polygon fill="midnightblue" stroke="midnightblue" points="315.09,-141.77 305.58,-137.09 310.1,-146.67 315.09,-141.77"/>
</g>
<!-- Node12 -->
<g id="node12" class="node">
<title>Node12</title>
<g id="a_node12"><a xlink:href="variables_8h.html" target="_top" xlink:title=" ">
<polygon fill="white" stroke="black" points="456.5,-185 456.5,-204 519.5,-204 519.5,-185 456.5,-185"/>
<text text-anchor="middle" x="488" y="-192" font-family="Helvetica,sans-Serif" font-size="10.00">variables.h</text>
</a>
</g>
</g>
<!-- Node6&#45;&gt;Node12 -->
<g id="edge18" class="edge">
<title>Node6&#45;&gt;Node12</title>
<path fill="none" stroke="midnightblue" d="M362.06,-246.48C387.06,-236.36 428.94,-219.4 457.49,-207.85"/>
<polygon fill="midnightblue" stroke="midnightblue" points="459.02,-211.01 466.98,-204.01 456.39,-204.52 459.02,-211.01"/>
</g>
<!-- Node7&#45;&gt;Node5 -->
<g id="edge10" class="edge">
<title>Node7&#45;&gt;Node5</title>
<path fill="none" stroke="midnightblue" d="M152.29,-56.44C176.81,-47.44 215.6,-33.19 243.2,-23.05"/>
<polygon fill="midnightblue" stroke="midnightblue" points="244.64,-26.25 252.82,-19.52 242.22,-19.68 244.64,-26.25"/>
</g>
<!-- Node8&#45;&gt;Node5 -->
<g id="edge12" class="edge">
<title>Node8&#45;&gt;Node5</title>
<path fill="none" stroke="midnightblue" d="M244.27,-56.08C249.64,-48.46 257.52,-37.26 264.08,-27.94"/>
<polygon fill="midnightblue" stroke="midnightblue" points="266.95,-29.94 269.84,-19.75 261.22,-25.91 266.95,-29.94"/>
</g>
<!-- Node10&#45;&gt;Node5 -->
<g id="edge15" class="edge">
<title>Node10&#45;&gt;Node5</title>
<path fill="none" stroke="midnightblue" d="M311.91,-117.8C332.96,-105.09 365.86,-80.31 352,-56 343.59,-41.25 328.23,-30.84 313.52,-23.77"/>
<polygon fill="midnightblue" stroke="midnightblue" points="314.58,-20.42 304.02,-19.6 311.76,-26.83 314.58,-20.42"/>
</g>
<!-- Node11 -->
<g id="node11" class="node">
<title>Node11</title>
<g id="a_node11"><a xlink:href="dvd_8h.html" target="_top" xlink:title=" ">
<polygon fill="white" stroke="black" points="284.5,-56.5 284.5,-75.5 343.5,-75.5 343.5,-56.5 284.5,-56.5"/>
<text text-anchor="middle" x="314" y="-63.5" font-family="Helvetica,sans-Serif" font-size="10.00">dvd/dvd.h</text>
</a>
</g>
</g>
<!-- Node10&#45;&gt;Node11 -->
<g id="edge16" class="edge">
<title>Node10&#45;&gt;Node11</title>
<path fill="none" stroke="midnightblue" d="M298.58,-117.98C301.15,-109.49 305.17,-96.2 308.46,-85.32"/>
<polygon fill="midnightblue" stroke="midnightblue" points="311.88,-86.09 311.43,-75.51 305.18,-84.07 311.88,-86.09"/>
</g>
<!-- Node11&#45;&gt;Node5 -->
<g id="edge17" class="edge">
<title>Node11&#45;&gt;Node5</title>
<path fill="none" stroke="midnightblue" d="M307.73,-56.08C302.36,-48.46 294.48,-37.26 287.92,-27.94"/>
<polygon fill="midnightblue" stroke="midnightblue" points="290.78,-25.91 282.16,-19.75 285.05,-29.94 290.78,-25.91"/>
</g>
<!-- Node12&#45;&gt;Node4 -->
<g id="edge19" class="edge">
<title>Node12&#45;&gt;Node4</title>
<path fill="none" stroke="midnightblue" d="M488,-184.73C488,-176.54 488,-163.92 488,-152.71"/>
<polygon fill="midnightblue" stroke="midnightblue" points="491.5,-152.59 488,-142.59 484.5,-152.59 491.5,-152.59"/>
</g>
<!-- Node13 -->
<g id="node13" class="node">
<title>Node13</title>
<g id="a_node13"><a xlink:href="JUTXfb_8h.html" target="_top" xlink:title=" ">
<polygon fill="white" stroke="black" points="574.5,-112.5 574.5,-142.5 699.5,-142.5 699.5,-112.5 574.5,-112.5"/>
<text text-anchor="start" x="582.5" y="-130.5" font-family="Helvetica,sans-Serif" font-size="10.00">JSystem/JUtility/JUTXfb</text>
<text text-anchor="middle" x="637" y="-119.5" font-family="Helvetica,sans-Serif" font-size="10.00">/JUTXfb.h</text>
</a>
</g>
</g>
<!-- Node12&#45;&gt;Node13 -->
<g id="edge20" class="edge">
<title>Node12&#45;&gt;Node13</title>
<path fill="none" stroke="midnightblue" d="M507.79,-184.87C530.05,-175.16 566.83,-159.11 595.48,-146.61"/>
<polygon fill="midnightblue" stroke="midnightblue" points="597.08,-149.73 604.84,-142.53 594.28,-143.32 597.08,-149.73"/>
</g>
<!-- Node15 -->
<g id="node15" class="node">
<title>Node15</title>
<g id="a_node15"><a xlink:href="mtx__vec_8h.html" target="_top" xlink:title=" ">
<polygon fill="white" stroke="black" points="340.5,-118 340.5,-137 401.5,-137 401.5,-118 340.5,-118"/>
<text text-anchor="middle" x="371" y="-125" font-family="Helvetica,sans-Serif" font-size="10.00">mtx_vec.h</text>
</a>
</g>
</g>
<!-- Node12&#45;&gt;Node15 -->
<g id="edge25" class="edge">
<title>Node12&#45;&gt;Node15</title>
<path fill="none" stroke="midnightblue" d="M472.22,-184.73C452.49,-173.77 418.49,-154.88 395.39,-142.05"/>
<polygon fill="midnightblue" stroke="midnightblue" points="396.97,-138.92 386.53,-137.13 393.57,-145.04 396.97,-138.92"/>
</g>
<!-- Node13&#45;&gt;Node2 -->
<g id="edge21" class="edge">
<title>Node13&#45;&gt;Node2</title>
<path fill="none" stroke="midnightblue" d="M620.42,-142.67C599.71,-159.95 562.75,-189.39 528,-210 466.27,-246.62 389.77,-279.39 341.66,-298.62"/>
<polygon fill="midnightblue" stroke="midnightblue" points="340.14,-295.45 332.13,-302.39 342.72,-301.96 340.14,-295.45"/>
</g>
<!-- Node13&#45;&gt;Node5 -->
<g id="edge22" class="edge">
<title>Node13&#45;&gt;Node5</title>
<path fill="none" stroke="midnightblue" d="M593.18,-112.44C548.78,-98.2 478.12,-75.55 417,-56 381.42,-44.62 340.79,-31.66 312.31,-22.58"/>
<polygon fill="midnightblue" stroke="midnightblue" points="313.36,-19.24 302.77,-19.53 311.24,-25.91 313.36,-19.24"/>
</g>
<!-- Node14 -->
<g id="node14" class="node">
<title>Node14</title>
<g id="a_node14"><a xlink:href="GX_8h.html" target="_top" xlink:title=" ">
<polygon fill="white" stroke="black" points="611.5,-56.5 611.5,-75.5 662.5,-75.5 662.5,-56.5 611.5,-56.5"/>
<text text-anchor="middle" x="637" y="-63.5" font-family="Helvetica,sans-Serif" font-size="10.00">gx/GX.h</text>
</a>
</g>
</g>
<!-- Node13&#45;&gt;Node14 -->
<g id="edge23" class="edge">
<title>Node13&#45;&gt;Node14</title>
<path fill="none" stroke="midnightblue" d="M637,-112.4C637,-104.47 637,-94.46 637,-85.86"/>
<polygon fill="midnightblue" stroke="midnightblue" points="640.5,-85.66 637,-75.66 633.5,-85.66 640.5,-85.66"/>
</g>
<!-- Node14&#45;&gt;Node5 -->
<g id="edge24" class="edge">
<title>Node14&#45;&gt;Node5</title>
<path fill="none" stroke="midnightblue" d="M611.33,-61.16C552.05,-52.29 404.77,-30.26 326.6,-18.57"/>
<polygon fill="midnightblue" stroke="midnightblue" points="326.91,-15.08 316.5,-17.06 325.88,-22 326.91,-15.08"/>
</g>
<!-- Node15&#45;&gt;Node5 -->
<g id="edge26" class="edge">
<title>Node15&#45;&gt;Node5</title>
<path fill="none" stroke="midnightblue" d="M373.25,-117.85C376.4,-103.65 380.47,-75.07 368,-56 357.75,-40.33 340.36,-29.93 323.44,-23.13"/>
<polygon fill="midnightblue" stroke="midnightblue" points="324.19,-19.67 313.59,-19.52 321.78,-26.25 324.19,-19.67"/>
</g>
<!-- Node16&#45;&gt;Node2 -->
<g id="edge29" class="edge">
<title>Node16&#45;&gt;Node2</title>
<path fill="none" stroke="midnightblue" d="M384.96,-369.48C370.34,-361.19 347.63,-348.32 328.69,-337.59"/>
<polygon fill="midnightblue" stroke="midnightblue" points="330.17,-334.41 319.75,-332.52 326.72,-340.5 330.17,-334.41"/>
</g>
<!-- Node17 -->
<g id="node17" class="node">
<title>Node17</title>
<g id="a_node17"><a xlink:href="JUTFont_8h.html" target="_top" xlink:title=" ">
<polygon fill="white" stroke="black" points="381.5,-302.5 381.5,-332.5 510.5,-332.5 510.5,-302.5 381.5,-302.5"/>
<text text-anchor="start" x="389.5" y="-320.5" font-family="Helvetica,sans-Serif" font-size="10.00">JSystem/JUtility/JUTFont</text>
<text text-anchor="middle" x="446" y="-309.5" font-family="Helvetica,sans-Serif" font-size="10.00">/JUTFont.h</text>
</a>
</g>
</g>
<!-- Node16&#45;&gt;Node17 -->
<g id="edge30" class="edge">
<title>Node16&#45;&gt;Node17</title>
<path fill="none" stroke="midnightblue" d="M406.59,-369.48C412.41,-361.94 421.16,-350.63 428.94,-340.57"/>
<polygon fill="midnightblue" stroke="midnightblue" points="431.81,-342.58 435.16,-332.52 426.27,-338.29 431.81,-342.58"/>
</g>
<!-- Node17&#45;&gt;Node6 -->
<g id="edge31" class="edge">
<title>Node17&#45;&gt;Node6</title>
<path fill="none" stroke="midnightblue" d="M421.12,-302.4C404.29,-292.86 382.16,-280.32 365.43,-270.84"/>
<polygon fill="midnightblue" stroke="midnightblue" points="366.7,-267.54 356.28,-265.66 363.25,-273.63 366.7,-267.54"/>
</g>
<!-- Node17&#45;&gt;Node14 -->
<g id="edge32" class="edge">
<title>Node17&#45;&gt;Node14</title>
<path fill="none" stroke="midnightblue" d="M489.53,-302.48C551.19,-280 661.59,-229.39 708,-143 714.52,-130.86 714.64,-124.07 708,-112 700.11,-97.66 685.51,-87.25 671.6,-80.08"/>
<polygon fill="midnightblue" stroke="midnightblue" points="672.7,-76.73 662.16,-75.62 669.71,-83.06 672.7,-76.73"/>
</g>
</g>
</svg>
