<?xml version="1.0" encoding="UTF-8" standalone="no"?>
<!DOCTYPE svg PUBLIC "-//W3C//DTD SVG 1.1//EN"
 "http://www.w3.org/Graphics/SVG/1.1/DTD/svg11.dtd">
<!-- Generated by graphviz version 2.46.0 (20210122.1329)
 -->
<!-- Title: include/JSystem/JUtility/JUTGamePad/JUTGamePad.h Pages: 1 -->
<svg width="1351pt" height="173pt"
 viewBox="0.00 0.00 1351.00 173.00" xmlns="http://www.w3.org/2000/svg" xmlns:xlink="http://www.w3.org/1999/xlink">
<g id="graph0" class="graph" transform="scale(1 1) rotate(0) translate(4 169)">
<title>include/JSystem/JUtility/JUTGamePad/JUTGamePad.h</title>
<polygon fill="white" stroke="transparent" points="-4,4 -4,-169 1347,-169 1347,4 -4,4"/>
<!-- Node1 -->
<g id="node1" class="node">
<title>Node1</title>
<g id="a_node1"><a xlink:title=" ">
<polygon fill="#bfbfbf" stroke="black" points="456.5,-134.5 456.5,-164.5 611.5,-164.5 611.5,-134.5 456.5,-134.5"/>
<text text-anchor="start" x="464.5" y="-152.5" font-family="Helvetica,sans-Serif" font-size="10.00">include/JSystem/JUtility</text>
<text text-anchor="middle" x="534" y="-141.5" font-family="Helvetica,sans-Serif" font-size="10.00">/JUTGamePad/JUTGamePad.h</text>
</a>
</g>
</g>
<!-- Node2 -->
<g id="node2" class="node">
<title>Node2</title>
<g id="a_node2"><a xlink:href="d__lib_8cpp.html" target="_top" xlink:title=" ">
<polygon fill="white" stroke="black" points="0,-6 0,-25 80,-25 80,-6 0,-6"/>
<text text-anchor="middle" x="40" y="-13" font-family="Helvetica,sans-Serif" font-size="10.00">src/d/d_lib.cpp</text>
</a>
</g>
</g>
<!-- Node1&#45;&gt;Node2 -->
<g id="edge1" class="edge">
<title>Node1&#45;&gt;Node2</title>
<path fill="none" stroke="midnightblue" d="M456.53,-132.34C413.49,-123.02 359.08,-110.66 311,-98 220.49,-74.17 114.62,-40.68 66.37,-25.1"/>
<polygon fill="midnightblue" stroke="midnightblue" points="455.86,-135.78 466.37,-134.46 457.33,-128.93 455.86,-135.78"/>
</g>
<!-- Node3 -->
<g id="node3" class="node">
<title>Node3</title>
<g id="a_node3"><a xlink:href="m__Do__controller__pad_8cpp.html" target="_top" xlink:title=" ">
<polygon fill="white" stroke="black" points="98,-0.5 98,-30.5 230,-30.5 230,-0.5 98,-0.5"/>
<text text-anchor="start" x="106" y="-18.5" font-family="Helvetica,sans-Serif" font-size="10.00">src/m_Do/m_Do_controller</text>
<text text-anchor="middle" x="164" y="-7.5" font-family="Helvetica,sans-Serif" font-size="10.00">_pad.cpp</text>
</a>
</g>
</g>
<!-- Node1&#45;&gt;Node3 -->
<g id="edge2" class="edge">
<title>Node1&#45;&gt;Node3</title>
<path fill="none" stroke="midnightblue" d="M485.18,-131.08C411.03,-104.63 271.5,-54.85 203.4,-30.56"/>
<polygon fill="midnightblue" stroke="midnightblue" points="484.16,-134.43 494.75,-134.5 486.51,-127.84 484.16,-134.43"/>
</g>
<!-- Node4 -->
<g id="node4" class="node">
<title>Node4</title>
<g id="a_node4"><a xlink:href="m__Do__graphic_8cpp.html" target="_top" xlink:title=" ">
<polygon fill="white" stroke="black" points="627,-73 627,-92 769,-92 769,-73 627,-73"/>
<text text-anchor="middle" x="698" y="-80" font-family="Helvetica,sans-Serif" font-size="10.00">src/m_Do/m_Do_graphic.cpp</text>
</a>
</g>
</g>
<!-- Node1&#45;&gt;Node4 -->
<g id="edge3" class="edge">
<title>Node1&#45;&gt;Node4</title>
<path fill="none" stroke="midnightblue" d="M579.11,-130.62C610.85,-118.04 651.91,-101.77 676.54,-92.01"/>
<polygon fill="midnightblue" stroke="midnightblue" points="577.59,-127.46 569.59,-134.4 580.17,-133.97 577.59,-127.46"/>
</g>
<!-- Node5 -->
<g id="node5" class="node">
<title>Node5</title>
<g id="a_node5"><a xlink:href="JUTGamePad_8cpp.html" target="_top" xlink:title=" ">
<polygon fill="white" stroke="black" points="787,-67.5 787,-97.5 893,-97.5 893,-67.5 787,-67.5"/>
<text text-anchor="start" x="795" y="-85.5" font-family="Helvetica,sans-Serif" font-size="10.00">libs/JSystem/JUtility</text>
<text text-anchor="middle" x="840" y="-74.5" font-family="Helvetica,sans-Serif" font-size="10.00">/JUTGamePad.cpp</text>
</a>
</g>
</g>
<!-- Node1&#45;&gt;Node5 -->
<g id="edge4" class="edge">
<title>Node1&#45;&gt;Node5</title>
<path fill="none" stroke="midnightblue" d="M614,-132.48C661.68,-122.8 723.38,-110.04 778,-98 780.91,-97.36 783.9,-96.69 786.92,-96.01"/>
<polygon fill="midnightblue" stroke="midnightblue" points="613.15,-129.08 604.04,-134.5 614.54,-135.94 613.15,-129.08"/>
</g>
<!-- Node6 -->
<g id="node6" class="node">
<title>Node6</title>
<g id="a_node6"><a xlink:href="m__Do__controller__pad_8h.html" target="_top" xlink:title=" ">
<polygon fill="white" stroke="black" points="459.5,-67.5 459.5,-97.5 608.5,-97.5 608.5,-67.5 459.5,-67.5"/>
<text text-anchor="start" x="467.5" y="-85.5" font-family="Helvetica,sans-Serif" font-size="10.00">include/m_Do/m_Do_controller</text>
<text text-anchor="middle" x="534" y="-74.5" font-family="Helvetica,sans-Serif" font-size="10.00">_pad/m_Do_controller_pad.h</text>
</a>
</g>
</g>
<!-- Node1&#45;&gt;Node6 -->
<g id="edge5" class="edge">
<title>Node1&#45;&gt;Node6</title>
<path fill="none" stroke="midnightblue" d="M534,-124.11C534,-115.15 534,-105.32 534,-97.58"/>
<polygon fill="midnightblue" stroke="midnightblue" points="530.5,-124.4 534,-134.4 537.5,-124.4 530.5,-124.4"/>
</g>
<!-- Node6&#45;&gt;Node2 -->
<g id="edge9" class="edge">
<title>Node6&#45;&gt;Node2</title>
<path fill="none" stroke="midnightblue" d="M449.21,-76.3C359.16,-69.75 213,-56.18 89,-31 81.35,-29.45 73.17,-27.25 65.73,-25.03"/>
<polygon fill="midnightblue" stroke="midnightblue" points="449.14,-79.81 459.37,-77.03 449.64,-72.82 449.14,-79.81"/>
</g>
<!-- Node6&#45;&gt;Node3 -->
<g id="edge13" class="edge">
<title>Node6&#45;&gt;Node3</title>
<path fill="none" stroke="midnightblue" d="M449.34,-67.5C390.32,-57.62 309.79,-43.9 239,-31 236.13,-30.48 233.2,-29.94 230.24,-29.39"/>
<polygon fill="midnightblue" stroke="midnightblue" points="448.92,-70.98 459.36,-69.18 450.07,-64.08 448.92,-70.98"/>
</g>
<!-- Node7 -->
<g id="node7" class="node">
<title>Node7</title>
<g id="a_node7"><a xlink:href="d__attention_8cpp.html" target="_top" xlink:title=" ">
<polygon fill="white" stroke="black" points="550.5,-6 550.5,-25 657.5,-25 657.5,-6 550.5,-6"/>
<text text-anchor="middle" x="604" y="-13" font-family="Helvetica,sans-Serif" font-size="10.00">src/d/d_attention.cpp</text>
</a>
</g>
</g>
<!-- Node6&#45;&gt;Node7 -->
<g id="edge6" class="edge">
<title>Node6&#45;&gt;Node7</title>
<path fill="none" stroke="midnightblue" d="M556.79,-60.34C569.65,-48.4 585.01,-34.14 594.64,-25.19"/>
<polygon fill="midnightblue" stroke="midnightblue" points="554.14,-58.03 549.19,-67.4 558.9,-63.16 554.14,-58.03"/>
</g>
<!-- Node8 -->
<g id="node8" class="node">
<title>Node8</title>
<g id="a_node8"><a xlink:href="d__camera_8cpp.html" target="_top" xlink:title=" ">
<polygon fill="white" stroke="black" points="675,-6 675,-25 777,-25 777,-6 675,-6"/>
<text text-anchor="middle" x="726" y="-13" font-family="Helvetica,sans-Serif" font-size="10.00">src/d/d_camera.cpp</text>
</a>
</g>
</g>
<!-- Node6&#45;&gt;Node8 -->
<g id="edge7" class="edge">
<title>Node6&#45;&gt;Node8</title>
<path fill="none" stroke="midnightblue" d="M585.37,-64.11C622.73,-51.46 671.67,-34.89 700.87,-25.01"/>
<polygon fill="midnightblue" stroke="midnightblue" points="584.01,-60.87 575.66,-67.4 586.26,-67.5 584.01,-60.87"/>
</g>
<!-- Node9 -->
<g id="node9" class="node">
<title>Node9</title>
<g id="a_node9"><a xlink:href="d__com__inf__game_8cpp.html" target="_top" xlink:title=" ">
<polygon fill="white" stroke="black" points="795.5,-0.5 795.5,-30.5 914.5,-30.5 914.5,-0.5 795.5,-0.5"/>
<text text-anchor="start" x="803.5" y="-18.5" font-family="Helvetica,sans-Serif" font-size="10.00">src/d/d_com/d_com_inf</text>
<text text-anchor="middle" x="855" y="-7.5" font-family="Helvetica,sans-Serif" font-size="10.00">_game.cpp</text>
</a>
</g>
</g>
<!-- Node6&#45;&gt;Node9 -->
<g id="edge8" class="edge">
<title>Node6&#45;&gt;Node9</title>
<path fill="none" stroke="midnightblue" d="M614.91,-65.49C664.35,-55.65 728.85,-42.73 786,-31 789,-30.38 792.07,-29.75 795.17,-29.11"/>
<polygon fill="midnightblue" stroke="midnightblue" points="614.04,-62.09 604.91,-67.47 615.4,-68.96 614.04,-62.09"/>
</g>
<!-- Node10 -->
<g id="node10" class="node">
<title>Node10</title>
<g id="a_node10"><a xlink:href="d__meter__map_8cpp.html" target="_top" xlink:title=" ">
<polygon fill="white" stroke="black" points="932.5,-0.5 932.5,-30.5 1047.5,-30.5 1047.5,-0.5 932.5,-0.5"/>
<text text-anchor="start" x="940.5" y="-18.5" font-family="Helvetica,sans-Serif" font-size="10.00">src/d/d_meter/d_meter</text>
<text text-anchor="middle" x="990" y="-7.5" font-family="Helvetica,sans-Serif" font-size="10.00">_map.cpp</text>
</a>
</g>
</g>
<!-- Node6&#45;&gt;Node10 -->
<g id="edge10" class="edge">
<title>Node6&#45;&gt;Node10</title>
<path fill="none" stroke="midnightblue" d="M618.63,-66.97C755.24,-47.63 792.12,-53.19 924,-31 926.78,-30.53 929.61,-30.03 932.47,-29.49"/>
<polygon fill="midnightblue" stroke="midnightblue" points="618.02,-63.52 608.62,-68.4 619.02,-70.45 618.02,-63.52"/>
</g>
<!-- Node11 -->
<g id="node11" class="node">
<title>Node11</title>
<g id="a_node11"><a xlink:href="d__a__alink_8cpp.html" target="_top" xlink:title=" ">
<polygon fill="white" stroke="black" points="1065.5,-6 1065.5,-25 1184.5,-25 1184.5,-6 1065.5,-6"/>
<text text-anchor="middle" x="1125" y="-13" font-family="Helvetica,sans-Serif" font-size="10.00">src/d/d_a/d_a_alink.cpp</text>
</a>
</g>
</g>
<!-- Node6&#45;&gt;Node11 -->
<g id="edge11" class="edge">
<title>Node6&#45;&gt;Node11</title>
<path fill="none" stroke="midnightblue" d="M618.62,-67.01C813.94,-42.88 866.53,-59 1057,-31 1067.51,-29.46 1078.83,-27.26 1089.16,-25.04"/>
<polygon fill="midnightblue" stroke="midnightblue" points="618.09,-63.55 608.6,-68.27 618.96,-70.49 618.09,-63.55"/>
</g>
<!-- Node12 -->
<g id="node12" class="node">
<title>Node12</title>
<g id="a_node12"><a xlink:href="f__pc__manager_8cpp.html" target="_top" xlink:title=" ">
<polygon fill="white" stroke="black" points="1203,-6 1203,-25 1343,-25 1343,-6 1203,-6"/>
<text text-anchor="middle" x="1273" y="-13" font-family="Helvetica,sans-Serif" font-size="10.00">src/f/f_pc/f_pc_manager.cpp</text>
</a>
</g>
</g>
<!-- Node6&#45;&gt;Node12 -->
<g id="edge12" class="edge">
<title>Node6&#45;&gt;Node12</title>
<path fill="none" stroke="midnightblue" d="M618.56,-67.04C874.48,-37.77 942.64,-61.81 1194,-31 1206.32,-29.49 1219.62,-27.28 1231.73,-25.03"/>
<polygon fill="midnightblue" stroke="midnightblue" points="618.12,-63.56 608.59,-68.19 618.93,-70.52 618.12,-63.56"/>
</g>
<!-- Node13 -->
<g id="node13" class="node">
<title>Node13</title>
<g id="a_node13"><a xlink:href="m__Do__main_8cpp.html" target="_top" xlink:title=" ">
<polygon fill="white" stroke="black" points="248.5,-6 248.5,-25 379.5,-25 379.5,-6 248.5,-6"/>
<text text-anchor="middle" x="314" y="-13" font-family="Helvetica,sans-Serif" font-size="10.00">src/m_Do/m_Do_main.cpp</text>
</a>
</g>
</g>
<!-- Node6&#45;&gt;Node13 -->
<g id="edge14" class="edge">
<title>Node6&#45;&gt;Node13</title>
<path fill="none" stroke="midnightblue" d="M476.77,-64.59C433.8,-51.9 376.76,-35.04 342.87,-25.03"/>
<polygon fill="midnightblue" stroke="midnightblue" points="475.95,-68 486.53,-67.48 477.94,-61.29 475.95,-68"/>
</g>
<!-- Node14 -->
<g id="node14" class="node">
<title>Node14</title>
<g id="a_node14"><a xlink:href="c__API__controller__pad_8cpp.html" target="_top" xlink:title=" ">
<polygon fill="white" stroke="black" points="398,-0.5 398,-30.5 532,-30.5 532,-0.5 398,-0.5"/>
<text text-anchor="start" x="406" y="-18.5" font-family="Helvetica,sans-Serif" font-size="10.00">libs/SSystem/SComponent</text>
<text text-anchor="middle" x="465" y="-7.5" font-family="Helvetica,sans-Serif" font-size="10.00">/c_API_controller_pad.cpp</text>
</a>
</g>
</g>
<!-- Node6&#45;&gt;Node14 -->
<g id="edge15" class="edge">
<title>Node6&#45;&gt;Node14</title>
<path fill="none" stroke="midnightblue" d="M511.51,-60.31C501.16,-50.56 489.16,-39.26 479.94,-30.58"/>
<polygon fill="midnightblue" stroke="midnightblue" points="509.35,-63.09 519.03,-67.4 514.15,-57.99 509.35,-63.09"/>
</g>
</g>
</svg>
