<?xml version="1.0" encoding="UTF-8" standalone="no"?>
<!DOCTYPE svg PUBLIC "-//W3C//DTD SVG 1.1//EN"
 "http://www.w3.org/Graphics/SVG/1.1/DTD/svg11.dtd">
<!-- Generated by graphviz version 2.46.1 (20210215.1649)
 -->
<!-- Title: include/JSystem/JUtility/JUTTexture.h Pages: 1 -->
<svg width="677pt" height="173pt"
 viewBox="0.00 0.00 677.00 173.00" xmlns="http://www.w3.org/2000/svg" xmlns:xlink="http://www.w3.org/1999/xlink">
<g id="graph0" class="graph" transform="scale(1 1) rotate(0) translate(4 169)">
<title>include/JSystem/JUtility/JUTTexture.h</title>
<polygon fill="white" stroke="transparent" points="-4,4 -4,-169 673,-169 673,4 -4,4"/>
<!-- Node1 -->
<g id="node1" class="node">
<title>Node1</title>
<g id="a_node1"><a xlink:title=" ">
<polygon fill="#bfbfbf" stroke="black" points="123.5,-134.5 123.5,-164.5 245.5,-164.5 245.5,-134.5 123.5,-134.5"/>
<text text-anchor="start" x="131.5" y="-152.5" font-family="Helvetica,sans-Serif" font-size="10.00">include/JSystem/JUtility</text>
<text text-anchor="middle" x="184.5" y="-141.5" font-family="Helvetica,sans-Serif" font-size="10.00">/JUTTexture.h</text>
</a>
</g>
</g>
<!-- Node2 -->
<g id="node2" class="node">
<title>Node2</title>
<g id="a_node2"><a xlink:href="J2DPane_8h.html" target="_top" xlink:title=" ">
<polygon fill="white" stroke="black" points="39,-67.5 39,-97.5 174,-97.5 174,-67.5 39,-67.5"/>
<text text-anchor="start" x="47" y="-85.5" font-family="Helvetica,sans-Serif" font-size="10.00">include/JSystem/J2DGraph</text>
<text text-anchor="middle" x="106.5" y="-74.5" font-family="Helvetica,sans-Serif" font-size="10.00">/J2DPane.h</text>
</a>
</g>
</g>
<!-- Node1&#45;&gt;Node2 -->
<g id="edge1" class="edge">
<title>Node1&#45;&gt;Node2</title>
<path fill="none" stroke="midnightblue" d="M159.76,-127.88C147.91,-118.01 134.02,-106.43 123.39,-97.58"/>
<polygon fill="midnightblue" stroke="midnightblue" points="157.65,-130.68 167.58,-134.4 162.13,-125.31 157.65,-130.68"/>
</g>
<!-- Node4 -->
<g id="node4" class="node">
<title>Node4</title>
<g id="a_node4"><a xlink:href="m__Do__graphic_8h.html" target="_top" xlink:title=" ">
<polygon fill="white" stroke="black" points="238,-67.5 238,-97.5 379,-97.5 379,-67.5 238,-67.5"/>
<text text-anchor="start" x="246" y="-85.5" font-family="Helvetica,sans-Serif" font-size="10.00">include/m_Do/m_Do_graphic</text>
<text text-anchor="middle" x="308.5" y="-74.5" font-family="Helvetica,sans-Serif" font-size="10.00">/m_Do_graphic.h</text>
</a>
</g>
</g>
<!-- Node1&#45;&gt;Node4 -->
<g id="edge3" class="edge">
<title>Node1&#45;&gt;Node4</title>
<path fill="none" stroke="midnightblue" d="M220.34,-129.71C239.89,-119.46 263.7,-106.98 281.65,-97.58"/>
<polygon fill="midnightblue" stroke="midnightblue" points="218.64,-126.65 211.41,-134.4 221.89,-132.85 218.64,-126.65"/>
</g>
<!-- Node3 -->
<g id="node3" class="node">
<title>Node3</title>
<g id="a_node3"><a xlink:href="J2DPane_8cpp.html" target="_top" xlink:title=" ">
<polygon fill="white" stroke="black" points="0,-0.5 0,-30.5 119,-30.5 119,-0.5 0,-0.5"/>
<text text-anchor="start" x="8" y="-18.5" font-family="Helvetica,sans-Serif" font-size="10.00">libs/JSystem/J2DGraph</text>
<text text-anchor="middle" x="59.5" y="-7.5" font-family="Helvetica,sans-Serif" font-size="10.00">/J2DPane.cpp</text>
</a>
</g>
</g>
<!-- Node2&#45;&gt;Node3 -->
<g id="edge2" class="edge">
<title>Node2&#45;&gt;Node3</title>
<path fill="none" stroke="midnightblue" d="M90.34,-59.16C83.49,-49.68 75.71,-38.92 69.68,-30.58"/>
<polygon fill="midnightblue" stroke="midnightblue" points="87.61,-61.34 96.3,-67.4 93.28,-57.24 87.61,-61.34"/>
</g>
<!-- Node5 -->
<g id="node5" class="node">
<title>Node5</title>
<g id="a_node5"><a xlink:href="d__camera_8cpp.html" target="_top" xlink:title=" ">
<polygon fill="white" stroke="black" points="137.5,-6 137.5,-25 239.5,-25 239.5,-6 137.5,-6"/>
<text text-anchor="middle" x="188.5" y="-13" font-family="Helvetica,sans-Serif" font-size="10.00">src/d/d_camera.cpp</text>
</a>
</g>
</g>
<!-- Node4&#45;&gt;Node5 -->
<g id="edge4" class="edge">
<title>Node4&#45;&gt;Node5</title>
<path fill="none" stroke="midnightblue" d="M273.37,-62.47C250.46,-50.06 221.68,-34.47 204.21,-25.01"/>
<polygon fill="midnightblue" stroke="midnightblue" points="272,-65.71 282.46,-67.4 275.34,-59.56 272,-65.71"/>
</g>
<!-- Node6 -->
<g id="node6" class="node">
<title>Node6</title>
<g id="a_node6"><a xlink:href="d__kankyo_8cpp.html" target="_top" xlink:title=" ">
<polygon fill="white" stroke="black" points="258,-6 258,-25 359,-25 359,-6 258,-6"/>
<text text-anchor="middle" x="308.5" y="-13" font-family="Helvetica,sans-Serif" font-size="10.00">src/d/d_kankyo.cpp</text>
</a>
</g>
</g>
<!-- Node4&#45;&gt;Node6 -->
<g id="edge5" class="edge">
<title>Node4&#45;&gt;Node6</title>
<path fill="none" stroke="midnightblue" d="M308.5,-57.25C308.5,-46.02 308.5,-33.38 308.5,-25.19"/>
<polygon fill="midnightblue" stroke="midnightblue" points="305,-57.4 308.5,-67.4 312,-57.4 305,-57.4"/>
</g>
<!-- Node7 -->
<g id="node7" class="node">
<title>Node7</title>
<g id="a_node7"><a xlink:href="m__Do__graphic_8cpp.html" target="_top" xlink:title=" ">
<polygon fill="white" stroke="black" points="377.5,-6 377.5,-25 519.5,-25 519.5,-6 377.5,-6"/>
<text text-anchor="middle" x="448.5" y="-13" font-family="Helvetica,sans-Serif" font-size="10.00">src/m_Do/m_Do_graphic.cpp</text>
</a>
</g>
</g>
<!-- Node4&#45;&gt;Node7 -->
<g id="edge6" class="edge">
<title>Node4&#45;&gt;Node7</title>
<path fill="none" stroke="midnightblue" d="M348.06,-63.13C375.01,-50.62 409.43,-34.64 430.18,-25.01"/>
<polygon fill="midnightblue" stroke="midnightblue" points="346.47,-60.01 338.88,-67.4 349.42,-66.36 346.47,-60.01"/>
</g>
<!-- Node8 -->
<g id="node8" class="node">
<title>Node8</title>
<g id="a_node8"><a xlink:href="m__Do__main_8cpp.html" target="_top" xlink:title=" ">
<polygon fill="white" stroke="black" points="538,-6 538,-25 669,-25 669,-6 538,-6"/>
<text text-anchor="middle" x="603.5" y="-13" font-family="Helvetica,sans-Serif" font-size="10.00">src/m_Do/m_Do_main.cpp</text>
</a>
</g>
</g>
<!-- Node4&#45;&gt;Node8 -->
<g id="edge7" class="edge">
<title>Node4&#45;&gt;Node8</title>
<path fill="none" stroke="midnightblue" d="M381.99,-65.31C439.95,-52.54 518.48,-35.23 564.79,-25.03"/>
<polygon fill="midnightblue" stroke="midnightblue" points="381.16,-61.91 372.15,-67.48 382.67,-68.74 381.16,-61.91"/>
</g>
</g>
</svg>
