<?xml version="1.0" encoding="UTF-8" standalone="no"?>
<!DOCTYPE svg PUBLIC "-//W3C//DTD SVG 1.1//EN"
 "http://www.w3.org/Graphics/SVG/1.1/DTD/svg11.dtd">
<!-- Generated by graphviz version 2.46.1 (20210215.1649)
 -->
<!-- Title: libs/JSystem/JUtility/JUTXfb.cpp Pages: 1 -->
<svg width="724pt" height="430pt"
 viewBox="0.00 0.00 724.00 430.00" xmlns="http://www.w3.org/2000/svg" xmlns:xlink="http://www.w3.org/1999/xlink">
<g id="graph0" class="graph" transform="scale(1 1) rotate(0) translate(4 426)">
<title>libs/JSystem/JUtility/JUTXfb.cpp</title>
<polygon fill="white" stroke="transparent" points="-4,4 -4,-426 720,-426 720,4 -4,4"/>
<!-- Node1 -->
<g id="node1" class="node">
<title>Node1</title>
<g id="a_node1"><a xlink:title=" ">
<polygon fill="#bfbfbf" stroke="black" points="454,-391.5 454,-421.5 560,-421.5 560,-391.5 454,-391.5"/>
<text text-anchor="start" x="462" y="-409.5" font-family="Helvetica,sans-Serif" font-size="10.00">libs/JSystem/JUtility</text>
<text text-anchor="middle" x="507" y="-398.5" font-family="Helvetica,sans-Serif" font-size="10.00">/JUTXfb.cpp</text>
</a>
</g>
</g>
<!-- Node2 -->
<g id="node2" class="node">
<title>Node2</title>
<g id="a_node2"><a xlink:href="JUTXfb_8h.html" target="_top" xlink:title=" ">
<polygon fill="white" stroke="black" points="248.5,-324.5 248.5,-354.5 373.5,-354.5 373.5,-324.5 248.5,-324.5"/>
<text text-anchor="start" x="256.5" y="-342.5" font-family="Helvetica,sans-Serif" font-size="10.00">JSystem/JUtility/JUTXfb</text>
<text text-anchor="middle" x="311" y="-331.5" font-family="Helvetica,sans-Serif" font-size="10.00">/JUTXfb.h</text>
</a>
</g>
</g>
<!-- Node1&#45;&gt;Node2 -->
<g id="edge1" class="edge">
<title>Node1&#45;&gt;Node2</title>
<path fill="none" stroke="midnightblue" d="M464.47,-391.4C434.68,-381.52 394.68,-368.25 362.99,-357.74"/>
<polygon fill="midnightblue" stroke="midnightblue" points="364.04,-354.4 353.45,-354.58 361.84,-361.05 364.04,-354.4"/>
</g>
<!-- Node7 -->
<g id="node7" class="node">
<title>Node7</title>
<g id="a_node7"><a xlink:href="global_8h.html" target="_top" xlink:title=" ">
<polygon fill="white" stroke="black" points="372,-196 372,-215 422,-215 422,-196 372,-196"/>
<text text-anchor="middle" x="397" y="-203" font-family="Helvetica,sans-Serif" font-size="10.00">global.h</text>
</a>
</g>
</g>
<!-- Node1&#45;&gt;Node7 -->
<g id="edge32" class="edge">
<title>Node1&#45;&gt;Node7</title>
<path fill="none" stroke="midnightblue" d="M499.09,-391.19C479.42,-355.61 428.35,-263.22 406.81,-224.25"/>
<polygon fill="midnightblue" stroke="midnightblue" points="409.8,-222.42 401.9,-215.36 403.67,-225.81 409.8,-222.42"/>
</g>
<!-- Node16 -->
<g id="node16" class="node">
<title>Node16</title>
<g id="a_node16"><a xlink:href="JUTVideo_8h.html" target="_top" xlink:title=" ">
<polygon fill="white" stroke="black" points="505,-190.5 505,-220.5 639,-220.5 639,-190.5 505,-190.5"/>
<text text-anchor="start" x="513" y="-208.5" font-family="Helvetica,sans-Serif" font-size="10.00">JSystem/JUtility/JUTVideo</text>
<text text-anchor="middle" x="572" y="-197.5" font-family="Helvetica,sans-Serif" font-size="10.00">/JUTVideo.h</text>
</a>
</g>
</g>
<!-- Node1&#45;&gt;Node16 -->
<g id="edge27" class="edge">
<title>Node1&#45;&gt;Node16</title>
<path fill="none" stroke="midnightblue" d="M511.67,-391.19C522.73,-357.34 550.58,-272.08 564.22,-230.31"/>
<polygon fill="midnightblue" stroke="midnightblue" points="567.59,-231.27 567.37,-220.68 560.94,-229.1 567.59,-231.27"/>
</g>
<!-- Node18 -->
<g id="node18" class="node">
<title>Node18</title>
<g id="a_node18"><a xlink:title=" ">
<polygon fill="white" stroke="#bfbfbf" points="554.5,-324.5 554.5,-354.5 679.5,-354.5 679.5,-324.5 554.5,-324.5"/>
<text text-anchor="start" x="562.5" y="-342.5" font-family="Helvetica,sans-Serif" font-size="10.00">JSystem/JUtility/JUTXfb</text>
<text text-anchor="middle" x="617" y="-331.5" font-family="Helvetica,sans-Serif" font-size="10.00">/asm/func_802E5260.s</text>
</a>
</g>
</g>
<!-- Node1&#45;&gt;Node18 -->
<g id="edge33" class="edge">
<title>Node1&#45;&gt;Node18</title>
<path fill="none" stroke="midnightblue" d="M530.87,-391.4C546.58,-382.11 567.35,-369.84 584.55,-359.67"/>
<polygon fill="midnightblue" stroke="midnightblue" points="586.35,-362.68 593.18,-354.58 582.79,-356.65 586.35,-362.68"/>
</g>
<!-- Node3 -->
<g id="node3" class="node">
<title>Node3</title>
<g id="a_node3"><a xlink:href="JKRHeap_8h.html" target="_top" xlink:title=" ">
<polygon fill="white" stroke="black" points="243,-257.5 243,-287.5 379,-287.5 379,-257.5 243,-257.5"/>
<text text-anchor="start" x="251" y="-275.5" font-family="Helvetica,sans-Serif" font-size="10.00">JSystem/JKernel/JKRHeap</text>
<text text-anchor="middle" x="311" y="-264.5" font-family="Helvetica,sans-Serif" font-size="10.00">/JKRHeap.h</text>
</a>
</g>
</g>
<!-- Node2&#45;&gt;Node3 -->
<g id="edge2" class="edge">
<title>Node2&#45;&gt;Node3</title>
<path fill="none" stroke="midnightblue" d="M311,-324.4C311,-316.64 311,-306.81 311,-297.86"/>
<polygon fill="midnightblue" stroke="midnightblue" points="314.5,-297.58 311,-287.58 307.5,-297.58 314.5,-297.58"/>
</g>
<!-- Node6 -->
<g id="node6" class="node">
<title>Node6</title>
<g id="a_node6"><a xlink:href="types_8h.html" target="_top" xlink:title=" ">
<polygon fill="white" stroke="black" points="333.5,-0.5 333.5,-19.5 414.5,-19.5 414.5,-0.5 333.5,-0.5"/>
<text text-anchor="middle" x="374" y="-7.5" font-family="Helvetica,sans-Serif" font-size="10.00">dolphin/types.h</text>
</a>
</g>
</g>
<!-- Node2&#45;&gt;Node6 -->
<g id="edge24" class="edge">
<title>Node2&#45;&gt;Node6</title>
<path fill="none" stroke="midnightblue" d="M248.44,-338.56C157.62,-334.99 0,-313.4 0,-206.5 0,-206.5 0,-206.5 0,-137.5 0,-95.69 12.31,-79.34 47,-56 91.02,-26.38 242.47,-16.07 322.88,-12.63"/>
<polygon fill="midnightblue" stroke="midnightblue" points="323.42,-16.11 333.27,-12.2 323.14,-9.11 323.42,-16.11"/>
</g>
<!-- Node15 -->
<g id="node15" class="node">
<title>Node15</title>
<g id="a_node15"><a xlink:href="GX_8h.html" target="_top" xlink:title=" ">
<polygon fill="white" stroke="black" points="572.5,-129 572.5,-148 623.5,-148 623.5,-129 572.5,-129"/>
<text text-anchor="middle" x="598" y="-136" font-family="Helvetica,sans-Serif" font-size="10.00">gx/GX.h</text>
</a>
</g>
</g>
<!-- Node2&#45;&gt;Node15 -->
<g id="edge25" class="edge">
<title>Node2&#45;&gt;Node15</title>
<path fill="none" stroke="midnightblue" d="M334.56,-324.39C350.15,-314.73 370.81,-301.31 388,-288 439.26,-248.33 442.44,-226.51 496,-190 508.81,-181.27 544.25,-164.26 569.76,-152.41"/>
<polygon fill="midnightblue" stroke="midnightblue" points="571.37,-155.52 578.98,-148.15 568.44,-149.16 571.37,-155.52"/>
</g>
<!-- Node4 -->
<g id="node4" class="node">
<title>Node4</title>
<g id="a_node4"><a xlink:href="JKRDisposer_8h.html" target="_top" xlink:title=" ">
<polygon fill="white" stroke="black" points="30.5,-123.5 30.5,-153.5 181.5,-153.5 181.5,-123.5 30.5,-123.5"/>
<text text-anchor="start" x="38.5" y="-141.5" font-family="Helvetica,sans-Serif" font-size="10.00">JSystem/JKernel/JKRDisposer</text>
<text text-anchor="middle" x="106" y="-130.5" font-family="Helvetica,sans-Serif" font-size="10.00">/JKRDisposer.h</text>
</a>
</g>
</g>
<!-- Node3&#45;&gt;Node4 -->
<g id="edge3" class="edge">
<title>Node3&#45;&gt;Node4</title>
<path fill="none" stroke="midnightblue" d="M289.06,-257.37C252.3,-233.7 178.2,-185.99 136.43,-159.09"/>
<polygon fill="midnightblue" stroke="midnightblue" points="138.08,-156 127.78,-153.52 134.29,-161.88 138.08,-156"/>
</g>
<!-- Node3&#45;&gt;Node6 -->
<g id="edge7" class="edge">
<title>Node3&#45;&gt;Node6</title>
<path fill="none" stroke="midnightblue" d="M308.46,-257.27C304.21,-230.45 297.29,-170.84 310,-123 319.81,-86.04 345,-48.57 360.7,-27.7"/>
<polygon fill="midnightblue" stroke="midnightblue" points="363.62,-29.64 366.96,-19.58 358.08,-25.36 363.62,-29.64"/>
</g>
<!-- Node3&#45;&gt;Node7 -->
<g id="edge8" class="edge">
<title>Node3&#45;&gt;Node7</title>
<path fill="none" stroke="midnightblue" d="M329.66,-257.4C343.73,-246.76 362.99,-232.2 377.31,-221.38"/>
<polygon fill="midnightblue" stroke="midnightblue" points="379.63,-224.02 385.5,-215.19 375.41,-218.43 379.63,-224.02"/>
</g>
<!-- Node5 -->
<g id="node5" class="node">
<title>Node5</title>
<g id="a_node5"><a xlink:href="JSUList_8h.html" target="_top" xlink:title=" ">
<polygon fill="white" stroke="black" points="66,-56.5 66,-86.5 202,-86.5 202,-56.5 66,-56.5"/>
<text text-anchor="start" x="74" y="-74.5" font-family="Helvetica,sans-Serif" font-size="10.00">JSystem/JSupport/JSUList</text>
<text text-anchor="middle" x="134" y="-63.5" font-family="Helvetica,sans-Serif" font-size="10.00">/JSUList.h</text>
</a>
</g>
</g>
<!-- Node4&#45;&gt;Node5 -->
<g id="edge4" class="edge">
<title>Node4&#45;&gt;Node5</title>
<path fill="none" stroke="midnightblue" d="M112.08,-123.4C115.52,-115.39 119.93,-105.16 123.89,-95.98"/>
<polygon fill="midnightblue" stroke="midnightblue" points="127.19,-97.15 127.94,-86.58 120.77,-94.38 127.19,-97.15"/>
</g>
<!-- Node4&#45;&gt;Node6 -->
<g id="edge6" class="edge">
<title>Node4&#45;&gt;Node6</title>
<path fill="none" stroke="midnightblue" d="M86.9,-123.26C66.25,-106.18 38.6,-77.19 57,-56 90.83,-17.03 242.33,-10.92 323.02,-10.5"/>
<polygon fill="midnightblue" stroke="midnightblue" points="323.45,-14 333.45,-10.48 323.44,-7 323.45,-14"/>
</g>
<!-- Node5&#45;&gt;Node6 -->
<g id="edge5" class="edge">
<title>Node5&#45;&gt;Node6</title>
<path fill="none" stroke="midnightblue" d="M190.57,-56.47C233.15,-45.92 290.68,-31.66 329.89,-21.94"/>
<polygon fill="midnightblue" stroke="midnightblue" points="330.82,-25.31 339.69,-19.51 329.14,-18.52 330.82,-25.31"/>
</g>
<!-- Node7&#45;&gt;Node6 -->
<g id="edge9" class="edge">
<title>Node7&#45;&gt;Node6</title>
<path fill="none" stroke="midnightblue" d="M395.19,-195.89C392.02,-180.97 385.1,-149.38 378,-123 373.65,-106.84 369.47,-103.55 367,-87 364.96,-73.37 365.94,-69.74 367,-56 367.68,-47.22 369.09,-37.56 370.47,-29.45"/>
<polygon fill="midnightblue" stroke="midnightblue" points="373.92,-30.04 372.26,-19.58 367.03,-28.8 373.92,-30.04"/>
</g>
<!-- Node8 -->
<g id="node8" class="node">
<title>Node8</title>
<g id="a_node8"><a xlink:href="AR_8h.html" target="_top" xlink:title=" ">
<polygon fill="white" stroke="black" points="376.5,-62 376.5,-81 425.5,-81 425.5,-62 376.5,-62"/>
<text text-anchor="middle" x="401" y="-69" font-family="Helvetica,sans-Serif" font-size="10.00">ar/AR.h</text>
</a>
</g>
</g>
<!-- Node7&#45;&gt;Node8 -->
<g id="edge10" class="edge">
<title>Node7&#45;&gt;Node8</title>
<path fill="none" stroke="midnightblue" d="M400.22,-195.71C403.68,-185.76 408.96,-168.96 411,-154 413.94,-132.42 409.81,-107.58 406,-91.05"/>
<polygon fill="midnightblue" stroke="midnightblue" points="409.33,-89.93 403.51,-81.08 402.54,-91.63 409.33,-89.93"/>
</g>
<!-- Node9 -->
<g id="node9" class="node">
<title>Node9</title>
<g id="a_node9"><a xlink:href="ARQ_8h.html" target="_top" xlink:title=" ">
<polygon fill="white" stroke="black" points="444,-62 444,-81 500,-81 500,-62 444,-62"/>
<text text-anchor="middle" x="472" y="-69" font-family="Helvetica,sans-Serif" font-size="10.00">ar/ARQ.h</text>
</a>
</g>
</g>
<!-- Node7&#45;&gt;Node9 -->
<g id="edge12" class="edge">
<title>Node7&#45;&gt;Node9</title>
<path fill="none" stroke="midnightblue" d="M401.95,-195.93C407.73,-185.9 417.6,-168.76 426,-154 438.52,-132.02 452.82,-106.63 462.11,-90.11"/>
<polygon fill="midnightblue" stroke="midnightblue" points="465.34,-91.51 467.19,-81.08 459.24,-88.08 465.34,-91.51"/>
</g>
<!-- Node10 -->
<g id="node10" class="node">
<title>Node10</title>
<g id="a_node10"><a xlink:href="mwcc_8h.html" target="_top" xlink:title=" ">
<polygon fill="white" stroke="black" points="319,-129 319,-148 369,-148 369,-129 319,-129"/>
<text text-anchor="middle" x="344" y="-136" font-family="Helvetica,sans-Serif" font-size="10.00">mwcc.h</text>
</a>
</g>
</g>
<!-- Node7&#45;&gt;Node10 -->
<g id="edge14" class="edge">
<title>Node7&#45;&gt;Node10</title>
<path fill="none" stroke="midnightblue" d="M389.85,-195.73C381.59,-185.6 367.8,-168.69 357.5,-156.06"/>
<polygon fill="midnightblue" stroke="midnightblue" points="360.07,-153.67 351.03,-148.13 354.64,-158.09 360.07,-153.67"/>
</g>
<!-- Node11 -->
<g id="node11" class="node">
<title>Node11</title>
<g id="a_node11"><a xlink:href="OS_8h.html" target="_top" xlink:title=" ">
<polygon fill="white" stroke="black" points="502,-129 502,-148 554,-148 554,-129 502,-129"/>
<text text-anchor="middle" x="528" y="-136" font-family="Helvetica,sans-Serif" font-size="10.00">os/OS.h</text>
</a>
</g>
</g>
<!-- Node7&#45;&gt;Node11 -->
<g id="edge15" class="edge">
<title>Node7&#45;&gt;Node11</title>
<path fill="none" stroke="midnightblue" d="M414.4,-195.87C436.61,-184.84 475.29,-165.66 501.26,-152.77"/>
<polygon fill="midnightblue" stroke="midnightblue" points="503.13,-155.75 510.53,-148.17 500.02,-149.48 503.13,-155.75"/>
</g>
<!-- Node13 -->
<g id="node13" class="node">
<title>Node13</title>
<g id="a_node13"><a xlink:href="variables_8h.html" target="_top" xlink:title=" ">
<polygon fill="white" stroke="black" points="199.5,-129 199.5,-148 262.5,-148 262.5,-129 199.5,-129"/>
<text text-anchor="middle" x="231" y="-136" font-family="Helvetica,sans-Serif" font-size="10.00">variables.h</text>
</a>
</g>
</g>
<!-- Node7&#45;&gt;Node13 -->
<g id="edge19" class="edge">
<title>Node7&#45;&gt;Node13</title>
<path fill="none" stroke="midnightblue" d="M374.96,-195.87C346.1,-184.57 295.35,-164.7 262.46,-151.82"/>
<polygon fill="midnightblue" stroke="midnightblue" points="263.46,-148.45 252.87,-148.06 260.91,-154.97 263.46,-148.45"/>
</g>
<!-- Node8&#45;&gt;Node6 -->
<g id="edge11" class="edge">
<title>Node8&#45;&gt;Node6</title>
<path fill="none" stroke="midnightblue" d="M397.13,-61.98C393.2,-53.32 387,-39.65 382.01,-28.65"/>
<polygon fill="midnightblue" stroke="midnightblue" points="385.18,-27.17 377.86,-19.51 378.81,-30.06 385.18,-27.17"/>
</g>
<!-- Node9&#45;&gt;Node6 -->
<g id="edge13" class="edge">
<title>Node9&#45;&gt;Node6</title>
<path fill="none" stroke="midnightblue" d="M457.96,-61.98C441.95,-52.25 415.55,-36.23 396.63,-24.74"/>
<polygon fill="midnightblue" stroke="midnightblue" points="398.38,-21.71 388.01,-19.51 394.75,-27.69 398.38,-21.71"/>
</g>
<!-- Node11&#45;&gt;Node6 -->
<g id="edge16" class="edge">
<title>Node11&#45;&gt;Node6</title>
<path fill="none" stroke="midnightblue" d="M528.55,-128.63C529.08,-112.15 527.79,-76.62 509,-56 487.42,-32.32 453.05,-21.08 424.39,-15.76"/>
<polygon fill="midnightblue" stroke="midnightblue" points="424.96,-12.3 414.52,-14.11 423.81,-19.21 424.96,-12.3"/>
</g>
<!-- Node12 -->
<g id="node12" class="node">
<title>Node12</title>
<g id="a_node12"><a xlink:href="dvd_8h.html" target="_top" xlink:title=" ">
<polygon fill="white" stroke="black" points="556.5,-62 556.5,-81 615.5,-81 615.5,-62 556.5,-62"/>
<text text-anchor="middle" x="586" y="-69" font-family="Helvetica,sans-Serif" font-size="10.00">dvd/dvd.h</text>
</a>
</g>
</g>
<!-- Node11&#45;&gt;Node12 -->
<g id="edge17" class="edge">
<title>Node11&#45;&gt;Node12</title>
<path fill="none" stroke="midnightblue" d="M535.82,-128.73C544.95,-118.5 560.24,-101.36 571.55,-88.69"/>
<polygon fill="midnightblue" stroke="midnightblue" points="574.26,-90.92 578.3,-81.13 569.03,-86.26 574.26,-90.92"/>
</g>
<!-- Node12&#45;&gt;Node6 -->
<g id="edge18" class="edge">
<title>Node12&#45;&gt;Node6</title>
<path fill="none" stroke="midnightblue" d="M560.95,-61.97C554.77,-59.95 548.17,-57.84 542,-56 500.31,-43.56 452.32,-30.87 418.34,-22.15"/>
<polygon fill="midnightblue" stroke="midnightblue" points="418.82,-18.66 408.27,-19.57 417.09,-25.44 418.82,-18.66"/>
</g>
<!-- Node13&#45;&gt;Node2 -->
<g id="edge21" class="edge">
<title>Node13&#45;&gt;Node2</title>
<path fill="none" stroke="midnightblue" d="M228.54,-148.25C222.28,-172.37 208.04,-241.07 234,-288 241.36,-301.3 253.87,-311.68 266.69,-319.49"/>
<polygon fill="midnightblue" stroke="midnightblue" points="265.13,-322.62 275.56,-324.48 268.56,-316.52 265.13,-322.62"/>
</g>
<!-- Node13&#45;&gt;Node5 -->
<g id="edge20" class="edge">
<title>Node13&#45;&gt;Node5</title>
<path fill="none" stroke="midnightblue" d="M217.92,-128.73C204.05,-119.44 181.7,-104.46 163.54,-92.3"/>
<polygon fill="midnightblue" stroke="midnightblue" points="165.28,-89.25 155.03,-86.59 161.38,-95.06 165.28,-89.25"/>
</g>
<!-- Node14 -->
<g id="node14" class="node">
<title>Node14</title>
<g id="a_node14"><a xlink:href="mtx__vec_8h.html" target="_top" xlink:title=" ">
<polygon fill="white" stroke="black" points="220.5,-62 220.5,-81 281.5,-81 281.5,-62 220.5,-62"/>
<text text-anchor="middle" x="251" y="-69" font-family="Helvetica,sans-Serif" font-size="10.00">mtx_vec.h</text>
</a>
</g>
</g>
<!-- Node13&#45;&gt;Node14 -->
<g id="edge22" class="edge">
<title>Node13&#45;&gt;Node14</title>
<path fill="none" stroke="midnightblue" d="M233.7,-128.73C236.67,-119.09 241.52,-103.3 245.34,-90.91"/>
<polygon fill="midnightblue" stroke="midnightblue" points="248.75,-91.71 248.35,-81.13 242.06,-89.66 248.75,-91.71"/>
</g>
<!-- Node14&#45;&gt;Node6 -->
<g id="edge23" class="edge">
<title>Node14&#45;&gt;Node6</title>
<path fill="none" stroke="midnightblue" d="M268.62,-61.98C289.17,-52.03 323.36,-35.49 347.21,-23.96"/>
<polygon fill="midnightblue" stroke="midnightblue" points="348.93,-27.01 356.41,-19.51 345.88,-20.71 348.93,-27.01"/>
</g>
<!-- Node15&#45;&gt;Node6 -->
<g id="edge26" class="edge">
<title>Node15&#45;&gt;Node6</title>
<path fill="none" stroke="midnightblue" d="M605.66,-128.88C618.99,-112.82 643.36,-77.95 625,-56 599.99,-26.11 490.64,-16.05 424.8,-12.68"/>
<polygon fill="midnightblue" stroke="midnightblue" points="424.78,-9.17 414.63,-12.19 424.45,-16.17 424.78,-9.17"/>
</g>
<!-- Node16&#45;&gt;Node11 -->
<g id="edge29" class="edge">
<title>Node16&#45;&gt;Node11</title>
<path fill="none" stroke="midnightblue" d="M562.45,-190.4C555.73,-180.46 546.69,-167.11 539.56,-156.57"/>
<polygon fill="midnightblue" stroke="midnightblue" points="542.39,-154.51 533.89,-148.19 536.59,-158.44 542.39,-154.51"/>
</g>
<!-- Node16&#45;&gt;Node15 -->
<g id="edge28" class="edge">
<title>Node16&#45;&gt;Node15</title>
<path fill="none" stroke="midnightblue" d="M577.64,-190.4C581.49,-180.76 586.63,-167.91 590.79,-157.54"/>
<polygon fill="midnightblue" stroke="midnightblue" points="594.06,-158.78 594.52,-148.19 587.56,-156.18 594.06,-158.78"/>
</g>
<!-- Node17 -->
<g id="node17" class="node">
<title>Node17</title>
<g id="a_node17"><a xlink:href="VI_8h.html" target="_top" xlink:title=" ">
<polygon fill="white" stroke="black" points="672,-62 672,-81 716,-81 716,-62 672,-62"/>
<text text-anchor="middle" x="694" y="-69" font-family="Helvetica,sans-Serif" font-size="10.00">vi/VI.h</text>
</a>
</g>
</g>
<!-- Node16&#45;&gt;Node17 -->
<g id="edge30" class="edge">
<title>Node16&#45;&gt;Node17</title>
<path fill="none" stroke="midnightblue" d="M591.42,-190.33C603.94,-180.75 620.2,-167.44 633,-154 652.54,-133.48 671.53,-106.7 682.99,-89.55"/>
<polygon fill="midnightblue" stroke="midnightblue" points="685.97,-91.39 688.54,-81.11 680.12,-87.54 685.97,-91.39"/>
</g>
<!-- Node17&#45;&gt;Node6 -->
<g id="edge31" class="edge">
<title>Node17&#45;&gt;Node6</title>
<path fill="none" stroke="midnightblue" d="M674.85,-61.85C669.48,-59.69 663.58,-57.55 658,-56 578.06,-33.87 482.25,-21.51 424.85,-15.56"/>
<polygon fill="midnightblue" stroke="midnightblue" points="424.89,-12.05 414.59,-14.52 424.18,-19.01 424.89,-12.05"/>
</g>
</g>
</svg>
