<?xml version="1.0" encoding="UTF-8" standalone="no"?>
<!DOCTYPE svg PUBLIC "-//W3C//DTD SVG 1.1//EN"
 "http://www.w3.org/Graphics/SVG/1.1/DTD/svg11.dtd">
<!-- Generated by graphviz version 2.46.0 (20210122.1329)
 -->
<!-- Title: include/m_Do/m_Do_controller_pad/m_Do_controller_pad.h Pages: 1 -->
<!--zoomable 106 -->
<svg id="main" version="1.1" xmlns="http://www.w3.org/2000/svg" xmlns:xlink="http://www.w3.org/1999/xlink" xml:space="preserve" onload="init(evt)">
<style type="text/css"><![CDATA[
.edge:hover path { stroke: red; }
.edge:hover polygon { stroke: red; fill: red; }
]]></style>
<script type="text/javascript"><![CDATA[
var edges = document.getElementsByTagName('g');
if (edges && edges.length) {
  for (var i=0;i<edges.length;i++) {
    if (edges[i].id.substr(0,4)=='edge') {
      edges[i].setAttribute('class','edge');
    }
  }
}
]]></script>
        <defs>
                <circle id="rim" cx="0" cy="0" r="7"/>
                <circle id="rim2" cx="0" cy="0" r="3.5"/>
                <g id="zoomPlus">
                        <use xlink:href="#rim" fill="#404040">
                                <set attributeName="fill" to="#808080" begin="zoomplus.mouseover" end="zoomplus.mouseout"/>
                        </use>
                        <path d="M-4,0h8M0,-4v8" fill="none" stroke="white" stroke-width="1.5" pointer-events="none"/>
                </g>
                <g id="zoomMin">
                        <use xlink:href="#rim" fill="#404040">
                                <set attributeName="fill" to="#808080" begin="zoomminus.mouseover" end="zoomminus.mouseout"/>
                        </use>
                        <path d="M-4,0h8" fill="none" stroke="white" stroke-width="1.5" pointer-events="none"/>
                </g>
                <g id="dirArrow">
                        <path fill="none" stroke="white" stroke-width="1.5" d="M0,-3.0v7 M-2.5,-0.5L0,-3.0L2.5,-0.5"/>
                </g>
               <g id="resetDef">
                       <use xlink:href="#rim2" fill="#404040">
                               <set attributeName="fill" to="#808080" begin="reset.mouseover" end="reset.mouseout"/>
                       </use>
               </g>
        </defs>

<script type="text/javascript">
var viewWidth = 1353;
var viewHeight = 106;
var sectionId = 'dynsection-1';
</script>
<script xlink:href="svgpan.js"/>
<svg id="graph" class="graph">
<g id="viewport">
<title>include/m_Do/m_Do_controller_pad/m_Do_controller_pad.h</title>
<polygon fill="white" stroke="transparent" points="-4,4 -4,-102 1348.5,-102 1348.5,4 -4,4"/>
<!-- Node1 -->
<g id="node1" class="node">
<title>Node1</title>
<g id="a_node1"><a xlink:title=" ">
<polygon fill="#bfbfbf" stroke="black" points="537,-67.5 537,-97.5 686,-97.5 686,-67.5 537,-67.5"/>
<text text-anchor="start" x="545" y="-85.5" font-family="Helvetica,sans-Serif" font-size="10.00">include/m_Do/m_Do_controller</text>
<text text-anchor="middle" x="611.5" y="-74.5" font-family="Helvetica,sans-Serif" font-size="10.00">_pad/m_Do_controller_pad.h</text>
</a>
</g>
</g>
<!-- Node2 -->
<g id="node2" class="node">
<title>Node2</title>
<g id="a_node2"><a xlink:href="d__attention_8cpp.html" target="_top" xlink:title=" ">
<polygon fill="white" stroke="black" points="0,-6 0,-25 107,-25 107,-6 0,-6"/>
<text text-anchor="middle" x="53.5" y="-13" font-family="Helvetica,sans-Serif" font-size="10.00">src/d/d_attention.cpp</text>
</a>
</g>
</g>
<!-- Node1&#45;&gt;Node2 -->
<g id="edge1" class="edge">
<title>Node1&#45;&gt;Node2</title>
<path fill="none" stroke="midnightblue" d="M526.47,-76.17C427.33,-69.2 258.76,-54.94 115.5,-31 106.01,-29.41 95.82,-27.23 86.48,-25.04"/>
<polygon fill="midnightblue" stroke="midnightblue" points="526.52,-79.69 536.74,-76.89 527,-72.7 526.52,-79.69"/>
</g>
<!-- Node3 -->
<g id="node3" class="node">
<title>Node3</title>
<g id="a_node3"><a xlink:href="d__camera_8cpp.html" target="_top" xlink:title=" ">
<polygon fill="white" stroke="black" points="124.5,-6 124.5,-25 226.5,-25 226.5,-6 124.5,-6"/>
<text text-anchor="middle" x="175.5" y="-13" font-family="Helvetica,sans-Serif" font-size="10.00">src/d/d_camera.cpp</text>
</a>
</g>
</g>
<!-- Node1&#45;&gt;Node3 -->
<g id="edge2" class="edge">
<title>Node1&#45;&gt;Node3</title>
<path fill="none" stroke="midnightblue" d="M526.88,-72.67C450.41,-64.09 334.94,-49.64 235.5,-31 226.55,-29.32 216.92,-27.16 208.06,-25.02"/>
<polygon fill="midnightblue" stroke="midnightblue" points="526.62,-76.16 536.94,-73.79 527.39,-69.21 526.62,-76.16"/>
</g>
<!-- Node4 -->
<g id="node4" class="node">
<title>Node4</title>
<g id="a_node4"><a xlink:href="d__com__inf__game_8cpp.html" target="_top" xlink:title=" ">
<polygon fill="white" stroke="black" points="245,-0.5 245,-30.5 364,-30.5 364,-0.5 245,-0.5"/>
<text text-anchor="start" x="253" y="-18.5" font-family="Helvetica,sans-Serif" font-size="10.00">src/d/d_com/d_com_inf</text>
<text text-anchor="middle" x="304.5" y="-7.5" font-family="Helvetica,sans-Serif" font-size="10.00">_game.cpp</text>
</a>
</g>
</g>
<!-- Node1&#45;&gt;Node4 -->
<g id="edge3" class="edge">
<title>Node1&#45;&gt;Node4</title>
<path fill="none" stroke="midnightblue" d="M535.26,-65.36C482.38,-54.16 412.96,-39.46 364.12,-29.12"/>
<polygon fill="midnightblue" stroke="midnightblue" points="534.76,-68.83 545.26,-67.48 536.21,-61.98 534.76,-68.83"/>
</g>
<!-- Node5 -->
<g id="node5" class="node">
<title>Node5</title>
<g id="a_node5"><a xlink:href="d__lib_8cpp.html" target="_top" xlink:title=" ">
<polygon fill="white" stroke="black" points="382.5,-6 382.5,-25 462.5,-25 462.5,-6 382.5,-6"/>
<text text-anchor="middle" x="422.5" y="-13" font-family="Helvetica,sans-Serif" font-size="10.00">src/d/d_lib.cpp</text>
</a>
</g>
</g>
<!-- Node1&#45;&gt;Node5 -->
<g id="edge4" class="edge">
<title>Node1&#45;&gt;Node5</title>
<path fill="none" stroke="midnightblue" d="M560.93,-64.11C524.16,-51.46 475.98,-34.89 447.24,-25.01"/>
<polygon fill="midnightblue" stroke="midnightblue" points="559.9,-67.45 570.49,-67.4 562.17,-60.83 559.9,-67.45"/>
</g>
<!-- Node6 -->
<g id="node6" class="node">
<title>Node6</title>
<g id="a_node6"><a xlink:href="d__meter__map_8cpp.html" target="_top" xlink:title=" ">
<polygon fill="white" stroke="black" points="481,-0.5 481,-30.5 596,-30.5 596,-0.5 481,-0.5"/>
<text text-anchor="start" x="489" y="-18.5" font-family="Helvetica,sans-Serif" font-size="10.00">src/d/d_meter/d_meter</text>
<text text-anchor="middle" x="538.5" y="-7.5" font-family="Helvetica,sans-Serif" font-size="10.00">_map.cpp</text>
</a>
</g>
</g>
<!-- Node1&#45;&gt;Node6 -->
<g id="edge5" class="edge">
<title>Node1&#45;&gt;Node6</title>
<path fill="none" stroke="midnightblue" d="M588.03,-60.6C577,-50.78 564.16,-39.34 554.31,-30.58"/>
<polygon fill="midnightblue" stroke="midnightblue" points="585.86,-63.36 595.66,-67.4 590.52,-58.13 585.86,-63.36"/>
</g>
<!-- Node7 -->
<g id="node7" class="node">
<title>Node7</title>
<g id="a_node7"><a xlink:href="f__pc__manager_8cpp.html" target="_top" xlink:title=" ">
<polygon fill="white" stroke="black" points="614.5,-6 614.5,-25 754.5,-25 754.5,-6 614.5,-6"/>
<text text-anchor="middle" x="684.5" y="-13" font-family="Helvetica,sans-Serif" font-size="10.00">src/f/f_pc/f_pc_manager.cpp</text>
</a>
</g>
</g>
<!-- Node1&#45;&gt;Node7 -->
<g id="edge6" class="edge">
<title>Node1&#45;&gt;Node7</title>
<path fill="none" stroke="midnightblue" d="M634.89,-60.67C648.37,-48.67 664.6,-34.22 674.74,-25.19"/>
<polygon fill="midnightblue" stroke="midnightblue" points="632.48,-58.13 627.34,-67.4 637.14,-63.36 632.48,-58.13"/>
</g>
<!-- Node8 -->
<g id="node8" class="node">
<title>Node8</title>
<g id="a_node8"><a xlink:href="d__a__alink_8cpp.html" target="_top" xlink:title=" ">
<polygon fill="white" stroke="black" points="773,-6 773,-25 892,-25 892,-6 773,-6"/>
<text text-anchor="middle" x="832.5" y="-13" font-family="Helvetica,sans-Serif" font-size="10.00">src/d/d_a/d_a_alink.cpp</text>
</a>
</g>
</g>
<!-- Node1&#45;&gt;Node8 -->
<g id="edge7" class="edge">
<title>Node1&#45;&gt;Node8</title>
<path fill="none" stroke="midnightblue" d="M668.99,-64.59C712.15,-51.9 769.45,-35.04 803.5,-25.03"/>
<polygon fill="midnightblue" stroke="midnightblue" points="667.79,-61.3 659.18,-67.48 669.76,-68.01 667.79,-61.3"/>
</g>
<!-- Node9 -->
<g id="node9" class="node">
<title>Node9</title>
<g id="a_node9"><a xlink:href="m__Do__controller__pad_8cpp.html" target="_top" xlink:title=" ">
<polygon fill="white" stroke="black" points="910.5,-0.5 910.5,-30.5 1042.5,-30.5 1042.5,-0.5 910.5,-0.5"/>
<text text-anchor="start" x="918.5" y="-18.5" font-family="Helvetica,sans-Serif" font-size="10.00">src/m_Do/m_Do_controller</text>
<text text-anchor="middle" x="976.5" y="-7.5" font-family="Helvetica,sans-Serif" font-size="10.00">_pad.cpp</text>
</a>
</g>
</g>
<!-- Node1&#45;&gt;Node9 -->
<g id="edge8" class="edge">
<title>Node1&#45;&gt;Node9</title>
<path fill="none" stroke="midnightblue" d="M696.27,-67.17C754.13,-57.28 832.51,-43.68 901.5,-31 904.37,-30.47 907.3,-29.93 910.26,-29.38"/>
<polygon fill="midnightblue" stroke="midnightblue" points="695.34,-63.77 686.07,-68.91 696.52,-70.67 695.34,-63.77"/>
</g>
<!-- Node10 -->
<g id="node10" class="node">
<title>Node10</title>
<g id="a_node10"><a xlink:href="m__Do__main_8cpp.html" target="_top" xlink:title=" ">
<polygon fill="white" stroke="black" points="1061,-6 1061,-25 1192,-25 1192,-6 1061,-6"/>
<text text-anchor="middle" x="1126.5" y="-13" font-family="Helvetica,sans-Serif" font-size="10.00">src/m_Do/m_Do_main.cpp</text>
</a>
</g>
</g>
<!-- Node1&#45;&gt;Node10 -->
<g id="edge9" class="edge">
<title>Node1&#45;&gt;Node10</title>
<path fill="none" stroke="midnightblue" d="M696.1,-73.73C784.88,-65.13 928.38,-49.94 1051.5,-31 1062.51,-29.31 1074.37,-27.16 1085.34,-25.05"/>
<polygon fill="midnightblue" stroke="midnightblue" points="695.7,-70.26 686.08,-74.7 696.37,-77.22 695.7,-70.26"/>
</g>
<!-- Node11 -->
<g id="node11" class="node">
<title>Node11</title>
<g id="a_node11"><a xlink:href="c__API__controller__pad_8cpp.html" target="_top" xlink:title=" ">
<polygon fill="white" stroke="black" points="1210.5,-0.5 1210.5,-30.5 1344.5,-30.5 1344.5,-0.5 1210.5,-0.5"/>
<text text-anchor="start" x="1218.5" y="-18.5" font-family="Helvetica,sans-Serif" font-size="10.00">libs/SSystem/SComponent</text>
<text text-anchor="middle" x="1277.5" y="-7.5" font-family="Helvetica,sans-Serif" font-size="10.00">/c_API_controller_pad.cpp</text>
</a>
</g>
</g>
<!-- Node1&#45;&gt;Node11 -->
<g id="edge10" class="edge">
<title>Node1&#45;&gt;Node11</title>
<path fill="none" stroke="midnightblue" d="M696.42,-76.99C811.33,-70.26 1022.57,-55.66 1201.5,-31 1204.43,-30.6 1207.41,-30.16 1210.43,-29.69"/>
<polygon fill="midnightblue" stroke="midnightblue" points="696.06,-73.5 686.28,-77.58 696.47,-80.49 696.06,-73.5"/>
</g>
</g>
</svg>
        <g id="navigator" transform="translate(0 0)" fill="#404254">
                <rect fill="#f2f5e9" fill-opacity="0.5" stroke="#606060" stroke-width=".5" x="0" y="0" width="60" height="60"/>
                <use id="zoomplus" xlink:href="#zoomPlus" x="17" y="9" onmousedown="handleZoom(evt,'in')"/>
                <use id="zoomminus" xlink:href="#zoomMin" x="42" y="9" onmousedown="handleZoom(evt,'out')"/>
                <use id="reset" xlink:href="#resetDef" x="30" y="36" onmousedown="handleReset()"/>
                <g id="arrowUp" xlink:href="#dirArrow" transform="translate(30 24)" onmousedown="handlePan(0,-1)">
                  <use xlink:href="#rim" fill="#404040">
                        <set attributeName="fill" to="#808080" begin="arrowUp.mouseover" end="arrowUp.mouseout"/>
                  </use>
                  <path fill="none" stroke="white" stroke-width="1.5" d="M0,-3.0v7 M-2.5,-0.5L0,-3.0L2.5,-0.5"/>
                </g>
                <g id="arrowRight" xlink:href="#dirArrow" transform="rotate(90) translate(36 -43)" onmousedown="handlePan(1,0)">
                  <use xlink:href="#rim" fill="#404040">
                        <set attributeName="fill" to="#808080" begin="arrowRight.mouseover" end="arrowRight.mouseout"/>
                  </use>
                  <path fill="none" stroke="white" stroke-width="1.5" d="M0,-3.0v7 M-2.5,-0.5L0,-3.0L2.5,-0.5"/>
                </g>
                <g id="arrowDown" xlink:href="#dirArrow" transform="rotate(180) translate(-30 -48)" onmousedown="handlePan(0,1)">
                  <use xlink:href="#rim" fill="#404040">
                        <set attributeName="fill" to="#808080" begin="arrowDown.mouseover" end="arrowDown.mouseout"/>
                  </use>
                  <path fill="none" stroke="white" stroke-width="1.5" d="M0,-3.0v7 M-2.5,-0.5L0,-3.0L2.5,-0.5"/>
                </g>
                <g id="arrowLeft" xlink:href="#dirArrow" transform="rotate(270) translate(-36 17)" onmousedown="handlePan(-1,0)">
                  <use xlink:href="#rim" fill="#404040">
                        <set attributeName="fill" to="#808080" begin="arrowLeft.mouseover" end="arrowLeft.mouseout"/>
                  </use>
                  <path fill="none" stroke="white" stroke-width="1.5" d="M0,-3.0v7 M-2.5,-0.5L0,-3.0L2.5,-0.5"/>
                </g>
        </g>
        <svg viewBox="0 0 15 15" width="100%" height="30px" preserveAspectRatio="xMaxYMin meet">
         <g id="arrow_out" transform="scale(0.3 0.3)">
          <a xlink:href="m__Do__controller__pad_8h__dep__incl_org.svg" target="_base">
           <rect id="button" ry="5" rx="5" y="6" x="6" height="38" width="38"
                fill="#f2f5e9" fill-opacity="0.5" stroke="#606060" stroke-width="1.0"/>
           <path id="arrow"
             d="M 11.500037,31.436501 C 11.940474,20.09759 22.043105,11.32322 32.158766,21.979434 L 37.068811,17.246167 C 37.068811,17.246167 37.088388,32 37.088388,32 L 22.160133,31.978069 C 22.160133,31.978069 26.997745,27.140456 26.997745,27.140456 C 18.528582,18.264221 13.291696,25.230495 11.500037,31.436501 z"
             style="fill:#404040;"/>
          </a>
         </g>
        </svg>
</svg>
