<?xml version="1.0" encoding="UTF-8" standalone="no"?>
<!DOCTYPE svg PUBLIC "-//W3C//DTD SVG 1.1//EN"
 "http://www.w3.org/Graphics/SVG/1.1/DTD/svg11.dtd">
<!-- Generated by graphviz version 2.46.0 (20210122.1329)
 -->
<!-- Title: include/m_Do/m_Do_main/m_Do_main.h Pages: 1 -->
<svg width="950pt" height="475pt"
 viewBox="0.00 0.00 950.10 475.00" xmlns="http://www.w3.org/2000/svg" xmlns:xlink="http://www.w3.org/1999/xlink">
<g id="graph0" class="graph" transform="scale(1 1) rotate(0) translate(4 471)">
<title>include/m_Do/m_Do_main/m_Do_main.h</title>
<polygon fill="white" stroke="transparent" points="-4,4 -4,-471 946.1,-471 946.1,4 -4,4"/>
<!-- Node1 -->
<g id="node1" class="node">
<title>Node1</title>
<g id="a_node1"><a xlink:title=" ">
<polygon fill="#bfbfbf" stroke="black" points="690,-436.5 690,-466.5 821,-466.5 821,-436.5 690,-436.5"/>
<text text-anchor="start" x="698" y="-454.5" font-family="Helvetica,sans-Serif" font-size="10.00">include/m_Do/m_Do_main</text>
<text text-anchor="middle" x="755.5" y="-443.5" font-family="Helvetica,sans-Serif" font-size="10.00">/m_Do_main.h</text>
</a>
</g>
</g>
<!-- Node2 -->
<g id="node2" class="node">
<title>Node2</title>
<g id="a_node2"><a xlink:href="JKRExpHeap_8h.html" target="_top" xlink:title=" ">
<polygon fill="white" stroke="black" points="760.5,-369.5 760.5,-399.5 912.5,-399.5 912.5,-369.5 760.5,-369.5"/>
<text text-anchor="start" x="768.5" y="-387.5" font-family="Helvetica,sans-Serif" font-size="10.00">JSystem/JKernel/JKRExpHeap</text>
<text text-anchor="middle" x="836.5" y="-376.5" font-family="Helvetica,sans-Serif" font-size="10.00">/JKRExpHeap.h</text>
</a>
</g>
</g>
<!-- Node1&#45;&gt;Node2 -->
<g id="edge1" class="edge">
<title>Node1&#45;&gt;Node2</title>
<path fill="none" stroke="midnightblue" d="M773.08,-436.4C784.11,-427.54 798.54,-415.96 810.85,-406.09"/>
<polygon fill="midnightblue" stroke="midnightblue" points="813.35,-408.56 818.96,-399.58 808.97,-403.11 813.35,-408.56"/>
</g>
<!-- Node3 -->
<g id="node3" class="node">
<title>Node3</title>
<g id="a_node3"><a xlink:href="JKRHeap_8h.html" target="_top" xlink:title=" ">
<polygon fill="white" stroke="black" points="583.5,-302.5 583.5,-332.5 719.5,-332.5 719.5,-302.5 583.5,-302.5"/>
<text text-anchor="start" x="591.5" y="-320.5" font-family="Helvetica,sans-Serif" font-size="10.00">JSystem/JKernel/JKRHeap</text>
<text text-anchor="middle" x="651.5" y="-309.5" font-family="Helvetica,sans-Serif" font-size="10.00">/JKRHeap.h</text>
</a>
</g>
</g>
<!-- Node1&#45;&gt;Node3 -->
<g id="edge33" class="edge">
<title>Node1&#45;&gt;Node3</title>
<path fill="none" stroke="midnightblue" d="M689.61,-446.7C656.91,-441.08 620.1,-428.32 599.5,-400 584.92,-379.96 604.46,-355.92 623.61,-339.17"/>
<polygon fill="midnightblue" stroke="midnightblue" points="625.96,-341.77 631.41,-332.69 621.48,-336.38 625.96,-341.77"/>
</g>
<!-- Node6 -->
<g id="node6" class="node">
<title>Node6</title>
<g id="a_node6"><a xlink:href="types_8h.html" target="_top" xlink:title=" ">
<polygon fill="white" stroke="black" points="477,-0.5 477,-19.5 558,-19.5 558,-0.5 477,-0.5"/>
<text text-anchor="middle" x="517.5" y="-7.5" font-family="Helvetica,sans-Serif" font-size="10.00">dolphin/types.h</text>
</a>
</g>
</g>
<!-- Node1&#45;&gt;Node6 -->
<g id="edge37" class="edge">
<title>Node1&#45;&gt;Node6</title>
<path fill="none" stroke="midnightblue" d="M821.21,-445.96C855.59,-440.18 895.77,-427.49 921.5,-400 946.91,-372.84 940.5,-355.69 940.5,-318.5 940.5,-318.5 940.5,-318.5 940.5,-126.5 940.5,-50.09 680.42,-22.5 568.13,-14.14"/>
<polygon fill="midnightblue" stroke="midnightblue" points="568.29,-10.64 558.06,-13.41 567.78,-17.63 568.29,-10.64"/>
</g>
<!-- Node19 -->
<g id="node19" class="node">
<title>Node19</title>
<g id="a_node19"><a xlink:href="JKRSolidHeap_8h.html" target="_top" xlink:title=" ">
<polygon fill="white" stroke="black" points="608.5,-369.5 608.5,-399.5 742.5,-399.5 742.5,-369.5 608.5,-369.5"/>
<text text-anchor="start" x="616.5" y="-387.5" font-family="Helvetica,sans-Serif" font-size="10.00">JSystem/JKernel/JKRSolid</text>
<text text-anchor="middle" x="675.5" y="-376.5" font-family="Helvetica,sans-Serif" font-size="10.00">Heap/JKRSolidHeap.h</text>
</a>
</g>
</g>
<!-- Node1&#45;&gt;Node19 -->
<g id="edge34" class="edge">
<title>Node1&#45;&gt;Node19</title>
<path fill="none" stroke="midnightblue" d="M738.14,-436.4C727.24,-427.54 712.99,-415.96 700.84,-406.09"/>
<polygon fill="midnightblue" stroke="midnightblue" points="702.79,-403.17 692.82,-399.58 698.38,-408.6 702.79,-403.17"/>
</g>
<!-- Node2&#45;&gt;Node3 -->
<g id="edge2" class="edge">
<title>Node2&#45;&gt;Node3</title>
<path fill="none" stroke="midnightblue" d="M796.36,-369.4C768.48,-359.6 731.14,-346.48 701.35,-336.02"/>
<polygon fill="midnightblue" stroke="midnightblue" points="702.16,-332.59 691.56,-332.58 699.84,-339.19 702.16,-332.59"/>
</g>
<!-- Node2&#45;&gt;Node6 -->
<g id="edge32" class="edge">
<title>Node2&#45;&gt;Node6</title>
<path fill="none" stroke="midnightblue" d="M838.95,-369.13C842.71,-345.72 849.5,-297.84 849.5,-257 849.5,-257 849.5,-257 849.5,-126.5 849.5,-84.18 822.64,-76.29 785.5,-56 748.95,-36.03 635.34,-22.2 568.35,-15.54"/>
<polygon fill="midnightblue" stroke="midnightblue" points="568.31,-12.02 558.02,-14.54 567.63,-18.99 568.31,-12.02"/>
</g>
<!-- Node4 -->
<g id="node4" class="node">
<title>Node4</title>
<g id="a_node4"><a xlink:href="JKRDisposer_8h.html" target="_top" xlink:title=" ">
<polygon fill="white" stroke="black" points="576,-179.5 576,-209.5 727,-209.5 727,-179.5 576,-179.5"/>
<text text-anchor="start" x="584" y="-197.5" font-family="Helvetica,sans-Serif" font-size="10.00">JSystem/JKernel/JKRDisposer</text>
<text text-anchor="middle" x="651.5" y="-186.5" font-family="Helvetica,sans-Serif" font-size="10.00">/JKRDisposer.h</text>
</a>
</g>
</g>
<!-- Node3&#45;&gt;Node4 -->
<g id="edge3" class="edge">
<title>Node3&#45;&gt;Node4</title>
<path fill="none" stroke="midnightblue" d="M651.5,-302.14C651.5,-281.86 651.5,-244.53 651.5,-219.86"/>
<polygon fill="midnightblue" stroke="midnightblue" points="655,-219.84 651.5,-209.84 648,-219.84 655,-219.84"/>
</g>
<!-- Node3&#45;&gt;Node6 -->
<g id="edge7" class="edge">
<title>Node3&#45;&gt;Node6</title>
<path fill="none" stroke="midnightblue" d="M682.6,-302.38C718.75,-283.58 773.5,-246.66 773.5,-195.5 773.5,-195.5 773.5,-195.5 773.5,-126.5 773.5,-37.32 642.83,-16.61 568.2,-12.06"/>
<polygon fill="midnightblue" stroke="midnightblue" points="568.24,-8.56 558.06,-11.52 567.86,-15.55 568.24,-8.56"/>
</g>
<!-- Node7 -->
<g id="node7" class="node">
<title>Node7</title>
<g id="a_node7"><a xlink:href="global_8h.html" target="_top" xlink:title=" ">
<polygon fill="white" stroke="black" points="210.5,-246.5 210.5,-265.5 260.5,-265.5 260.5,-246.5 210.5,-246.5"/>
<text text-anchor="middle" x="235.5" y="-253.5" font-family="Helvetica,sans-Serif" font-size="10.00">global.h</text>
</a>
</g>
</g>
<!-- Node3&#45;&gt;Node7 -->
<g id="edge8" class="edge">
<title>Node3&#45;&gt;Node7</title>
<path fill="none" stroke="midnightblue" d="M583.27,-306.74C493.6,-293.92 339.42,-271.86 270.53,-262.01"/>
<polygon fill="midnightblue" stroke="midnightblue" points="271.01,-258.54 260.61,-260.59 270.02,-265.47 271.01,-258.54"/>
</g>
<!-- Node5 -->
<g id="node5" class="node">
<title>Node5</title>
<g id="a_node5"><a xlink:href="JSUList_8h.html" target="_top" xlink:title=" ">
<polygon fill="white" stroke="black" points="571.5,-112.5 571.5,-142.5 707.5,-142.5 707.5,-112.5 571.5,-112.5"/>
<text text-anchor="start" x="579.5" y="-130.5" font-family="Helvetica,sans-Serif" font-size="10.00">JSystem/JSupport/JSUList</text>
<text text-anchor="middle" x="639.5" y="-119.5" font-family="Helvetica,sans-Serif" font-size="10.00">/JSUList.h</text>
</a>
</g>
</g>
<!-- Node4&#45;&gt;Node5 -->
<g id="edge4" class="edge">
<title>Node4&#45;&gt;Node5</title>
<path fill="none" stroke="midnightblue" d="M648.9,-179.4C647.45,-171.56 645.61,-161.6 643.94,-152.57"/>
<polygon fill="midnightblue" stroke="midnightblue" points="647.36,-151.77 642.1,-142.58 640.47,-153.05 647.36,-151.77"/>
</g>
<!-- Node4&#45;&gt;Node6 -->
<g id="edge6" class="edge">
<title>Node4&#45;&gt;Node6</title>
<path fill="none" stroke="midnightblue" d="M679.98,-179.35C693.71,-170.86 708.84,-158.66 716.5,-143 722.56,-130.62 723.71,-123.74 716.5,-112 684.33,-59.6 615.56,-33.35 567.94,-20.97"/>
<polygon fill="midnightblue" stroke="midnightblue" points="568.67,-17.54 558.12,-18.53 566.98,-24.34 568.67,-17.54"/>
</g>
<!-- Node5&#45;&gt;Node6 -->
<g id="edge5" class="edge">
<title>Node5&#45;&gt;Node6</title>
<path fill="none" stroke="midnightblue" d="M628.87,-112.44C617.3,-97.6 597.87,-73.92 578.5,-56 566.34,-44.75 551.38,-33.68 539.33,-25.33"/>
<polygon fill="midnightblue" stroke="midnightblue" points="541,-22.24 530.76,-19.53 537.07,-28.04 541,-22.24"/>
</g>
<!-- Node7&#45;&gt;Node6 -->
<g id="edge9" class="edge">
<title>Node7&#45;&gt;Node6</title>
<path fill="none" stroke="midnightblue" d="M233.28,-246.38C225.95,-215.73 205.82,-110.94 257.5,-56 285.34,-26.4 399.44,-16.22 466.89,-12.75"/>
<polygon fill="midnightblue" stroke="midnightblue" points="467.07,-16.25 476.89,-12.27 466.73,-9.25 467.07,-16.25"/>
</g>
<!-- Node8 -->
<g id="node8" class="node">
<title>Node8</title>
<g id="a_node8"><a xlink:href="AR_8h.html" target="_top" xlink:title=" ">
<polygon fill="white" stroke="black" points="0,-118 0,-137 49,-137 49,-118 0,-118"/>
<text text-anchor="middle" x="24.5" y="-125" font-family="Helvetica,sans-Serif" font-size="10.00">ar/AR.h</text>
</a>
</g>
</g>
<!-- Node7&#45;&gt;Node8 -->
<g id="edge10" class="edge">
<title>Node7&#45;&gt;Node8</title>
<path fill="none" stroke="midnightblue" d="M210.25,-252.79C162.09,-248.05 59.85,-235.2 36.5,-210 20.96,-193.23 20.15,-165.63 21.73,-147.27"/>
<polygon fill="midnightblue" stroke="midnightblue" points="25.22,-147.54 22.91,-137.2 18.27,-146.72 25.22,-147.54"/>
</g>
<!-- Node9 -->
<g id="node9" class="node">
<title>Node9</title>
<g id="a_node9"><a xlink:href="ARQ_8h.html" target="_top" xlink:title=" ">
<polygon fill="white" stroke="black" points="113.5,-185 113.5,-204 169.5,-204 169.5,-185 113.5,-185"/>
<text text-anchor="middle" x="141.5" y="-192" font-family="Helvetica,sans-Serif" font-size="10.00">ar/ARQ.h</text>
</a>
</g>
</g>
<!-- Node7&#45;&gt;Node9 -->
<g id="edge12" class="edge">
<title>Node7&#45;&gt;Node9</title>
<path fill="none" stroke="midnightblue" d="M222.03,-246.48C206.82,-236.84 181.81,-221.02 163.7,-209.55"/>
<polygon fill="midnightblue" stroke="midnightblue" points="165.26,-206.4 154.94,-204.01 161.52,-212.31 165.26,-206.4"/>
</g>
<!-- Node10 -->
<g id="node10" class="node">
<title>Node10</title>
<g id="a_node10"><a xlink:href="mwcc_8h.html" target="_top" xlink:title=" ">
<polygon fill="white" stroke="black" points="45.5,-185 45.5,-204 95.5,-204 95.5,-185 45.5,-185"/>
<text text-anchor="middle" x="70.5" y="-192" font-family="Helvetica,sans-Serif" font-size="10.00">mwcc.h</text>
</a>
</g>
</g>
<!-- Node7&#45;&gt;Node10 -->
<g id="edge14" class="edge">
<title>Node7&#45;&gt;Node10</title>
<path fill="none" stroke="midnightblue" d="M210.19,-246.91C183.66,-238.29 140.86,-223.98 104.5,-210 102.85,-209.37 101.17,-208.7 99.47,-208.02"/>
<polygon fill="midnightblue" stroke="midnightblue" points="100.4,-204.62 89.82,-204.02 97.72,-211.08 100.4,-204.62"/>
</g>
<!-- Node11 -->
<g id="node11" class="node">
<title>Node11</title>
<g id="a_node11"><a xlink:href="OS_8h.html" target="_top" xlink:title=" ">
<polygon fill="white" stroke="black" points="155.5,-118 155.5,-137 207.5,-137 207.5,-118 155.5,-118"/>
<text text-anchor="middle" x="181.5" y="-125" font-family="Helvetica,sans-Serif" font-size="10.00">os/OS.h</text>
</a>
</g>
</g>
<!-- Node7&#45;&gt;Node11 -->
<g id="edge15" class="edge">
<title>Node7&#45;&gt;Node11</title>
<path fill="none" stroke="midnightblue" d="M231.79,-246.31C223.04,-225.81 200.98,-174.15 189.2,-146.54"/>
<polygon fill="midnightblue" stroke="midnightblue" points="192.38,-145.08 185.24,-137.26 185.94,-147.83 192.38,-145.08"/>
</g>
<!-- Node13 -->
<g id="node13" class="node">
<title>Node13</title>
<g id="a_node13"><a xlink:href="variables_8h.html" target="_top" xlink:title=" ">
<polygon fill="white" stroke="black" points="436,-185 436,-204 499,-204 499,-185 436,-185"/>
<text text-anchor="middle" x="467.5" y="-192" font-family="Helvetica,sans-Serif" font-size="10.00">variables.h</text>
</a>
</g>
</g>
<!-- Node7&#45;&gt;Node13 -->
<g id="edge19" class="edge">
<title>Node7&#45;&gt;Node13</title>
<path fill="none" stroke="midnightblue" d="M260.59,-248.78C295.08,-240.2 359.06,-224.19 413.5,-210 417.62,-208.93 421.92,-207.79 426.2,-206.66"/>
<polygon fill="midnightblue" stroke="midnightblue" points="427.35,-209.97 436.11,-204.01 425.55,-203.21 427.35,-209.97"/>
</g>
<!-- Node8&#45;&gt;Node6 -->
<g id="edge11" class="edge">
<title>Node8&#45;&gt;Node6</title>
<path fill="none" stroke="midnightblue" d="M27.37,-117.74C32.93,-102.28 46.78,-70.43 70.5,-56 135.89,-16.22 363.74,-10.99 466.52,-10.71"/>
<polygon fill="midnightblue" stroke="midnightblue" points="466.66,-14.21 476.65,-10.7 466.65,-7.21 466.66,-14.21"/>
</g>
<!-- Node9&#45;&gt;Node6 -->
<g id="edge13" class="edge">
<title>Node9&#45;&gt;Node6</title>
<path fill="none" stroke="midnightblue" d="M134.36,-184.85C115.69,-161.15 69.1,-94.34 103.5,-56 127.39,-29.37 361.77,-17.02 466.91,-12.79"/>
<polygon fill="midnightblue" stroke="midnightblue" points="467.12,-16.28 476.97,-12.39 466.84,-9.29 467.12,-16.28"/>
</g>
<!-- Node11&#45;&gt;Node6 -->
<g id="edge16" class="edge">
<title>Node11&#45;&gt;Node6</title>
<path fill="none" stroke="midnightblue" d="M184.08,-117.87C189.13,-102.62 201.83,-71.1 224.5,-56 263.23,-30.2 393.47,-18.39 466.6,-13.69"/>
<polygon fill="midnightblue" stroke="midnightblue" points="467.19,-17.16 476.95,-13.04 466.75,-10.17 467.19,-17.16"/>
</g>
<!-- Node12 -->
<g id="node12" class="node">
<title>Node12</title>
<g id="a_node12"><a xlink:href="dvd_8h.html" target="_top" xlink:title=" ">
<polygon fill="white" stroke="black" points="113,-56.5 113,-75.5 172,-75.5 172,-56.5 113,-56.5"/>
<text text-anchor="middle" x="142.5" y="-63.5" font-family="Helvetica,sans-Serif" font-size="10.00">dvd/dvd.h</text>
</a>
</g>
</g>
<!-- Node11&#45;&gt;Node12 -->
<g id="edge17" class="edge">
<title>Node11&#45;&gt;Node12</title>
<path fill="none" stroke="midnightblue" d="M175.91,-117.98C170.12,-109.14 160.91,-95.09 153.63,-83.98"/>
<polygon fill="midnightblue" stroke="midnightblue" points="156.49,-81.95 148.08,-75.51 150.63,-85.79 156.49,-81.95"/>
</g>
<!-- Node12&#45;&gt;Node6 -->
<g id="edge18" class="edge">
<title>Node12&#45;&gt;Node6</title>
<path fill="none" stroke="midnightblue" d="M172.27,-58.63C177.02,-57.7 181.89,-56.78 186.5,-56 285.41,-39.18 401.79,-24.54 466.87,-16.82"/>
<polygon fill="midnightblue" stroke="midnightblue" points="467.34,-20.29 476.86,-15.64 466.52,-13.34 467.34,-20.29"/>
</g>
<!-- Node13&#45;&gt;Node5 -->
<g id="edge20" class="edge">
<title>Node13&#45;&gt;Node5</title>
<path fill="none" stroke="midnightblue" d="M490.34,-184.87C516.37,-175.03 559.61,-158.69 592.85,-146.13"/>
<polygon fill="midnightblue" stroke="midnightblue" points="594.26,-149.34 602.38,-142.53 591.79,-142.79 594.26,-149.34"/>
</g>
<!-- Node14 -->
<g id="node14" class="node">
<title>Node14</title>
<g id="a_node14"><a xlink:href="JUTXfb_8h.html" target="_top" xlink:title=" ">
<polygon fill="white" stroke="black" points="428,-112.5 428,-142.5 553,-142.5 553,-112.5 428,-112.5"/>
<text text-anchor="start" x="436" y="-130.5" font-family="Helvetica,sans-Serif" font-size="10.00">JSystem/JUtility/JUTXfb</text>
<text text-anchor="middle" x="490.5" y="-119.5" font-family="Helvetica,sans-Serif" font-size="10.00">/JUTXfb.h</text>
</a>
</g>
</g>
<!-- Node13&#45;&gt;Node14 -->
<g id="edge21" class="edge">
<title>Node13&#45;&gt;Node14</title>
<path fill="none" stroke="midnightblue" d="M470.6,-184.73C473.56,-176.37 478.15,-163.4 482.18,-152.02"/>
<polygon fill="midnightblue" stroke="midnightblue" points="485.48,-153.18 485.51,-142.59 478.88,-150.85 485.48,-153.18"/>
</g>
<!-- Node16 -->
<g id="node16" class="node">
<title>Node16</title>
<g id="a_node16"><a xlink:href="c__xyz_8h.html" target="_top" xlink:title=" ">
<polygon fill="white" stroke="black" points="264,-118 264,-137 371,-137 371,-118 264,-118"/>
<text text-anchor="middle" x="317.5" y="-125" font-family="Helvetica,sans-Serif" font-size="10.00">SComponent/c_xyz.h</text>
</a>
</g>
</g>
<!-- Node13&#45;&gt;Node16 -->
<g id="edge26" class="edge">
<title>Node13&#45;&gt;Node16</title>
<path fill="none" stroke="midnightblue" d="M447.58,-184.87C421.81,-173.7 376.68,-154.15 346.95,-141.26"/>
<polygon fill="midnightblue" stroke="midnightblue" points="348.07,-137.93 337.5,-137.17 345.29,-144.35 348.07,-137.93"/>
</g>
<!-- Node14&#45;&gt;Node3 -->
<g id="edge22" class="edge">
<title>Node14&#45;&gt;Node3</title>
<path fill="none" stroke="midnightblue" d="M502.52,-142.54C530.37,-175.05 599.45,-255.72 632.84,-294.71"/>
<polygon fill="midnightblue" stroke="midnightblue" points="630.24,-297.05 639.4,-302.37 635.55,-292.5 630.24,-297.05"/>
</g>
<!-- Node14&#45;&gt;Node6 -->
<g id="edge23" class="edge">
<title>Node14&#45;&gt;Node6</title>
<path fill="none" stroke="midnightblue" d="M493.81,-112.34C498.68,-91.53 507.76,-52.66 513.16,-29.58"/>
<polygon fill="midnightblue" stroke="midnightblue" points="516.61,-30.2 515.47,-19.67 509.79,-28.61 516.61,-30.2"/>
</g>
<!-- Node15 -->
<g id="node15" class="node">
<title>Node15</title>
<g id="a_node15"><a xlink:href="GX_8h.html" target="_top" xlink:title=" ">
<polygon fill="white" stroke="black" points="519,-56.5 519,-75.5 570,-75.5 570,-56.5 519,-56.5"/>
<text text-anchor="middle" x="544.5" y="-63.5" font-family="Helvetica,sans-Serif" font-size="10.00">gx/GX.h</text>
</a>
</g>
</g>
<!-- Node14&#45;&gt;Node15 -->
<g id="edge24" class="edge">
<title>Node14&#45;&gt;Node15</title>
<path fill="none" stroke="midnightblue" d="M503.3,-112.4C511.22,-103.66 521.44,-92.41 529.71,-83.3"/>
<polygon fill="midnightblue" stroke="midnightblue" points="532.51,-85.42 536.64,-75.66 527.33,-80.71 532.51,-85.42"/>
</g>
<!-- Node15&#45;&gt;Node6 -->
<g id="edge25" class="edge">
<title>Node15&#45;&gt;Node6</title>
<path fill="none" stroke="midnightblue" d="M540.04,-56.08C536.35,-48.69 530.98,-37.95 526.41,-28.81"/>
<polygon fill="midnightblue" stroke="midnightblue" points="529.48,-27.13 521.88,-19.75 523.22,-30.26 529.48,-27.13"/>
</g>
<!-- Node16&#45;&gt;Node7 -->
<g id="edge29" class="edge">
<title>Node16&#45;&gt;Node7</title>
<path fill="none" stroke="midnightblue" d="M311.82,-137.26C298.38,-157.99 264.41,-210.4 246.67,-237.76"/>
<polygon fill="midnightblue" stroke="midnightblue" points="243.64,-236.01 241.14,-246.31 249.51,-239.82 243.64,-236.01"/>
</g>
<!-- Node17 -->
<g id="node17" class="node">
<title>Node17</title>
<g id="a_node17"><a xlink:href="c__math_8h.html" target="_top" xlink:title=" ">
<polygon fill="white" stroke="black" points="346.5,-56.5 346.5,-75.5 462.5,-75.5 462.5,-56.5 346.5,-56.5"/>
<text text-anchor="middle" x="404.5" y="-63.5" font-family="Helvetica,sans-Serif" font-size="10.00">SComponent/c_math.h</text>
</a>
</g>
</g>
<!-- Node16&#45;&gt;Node17 -->
<g id="edge27" class="edge">
<title>Node16&#45;&gt;Node17</title>
<path fill="none" stroke="midnightblue" d="M329.96,-117.98C343.92,-108.43 366.76,-92.81 383.49,-81.37"/>
<polygon fill="midnightblue" stroke="midnightblue" points="385.78,-84.04 392.06,-75.51 381.83,-78.27 385.78,-84.04"/>
</g>
<!-- Node18 -->
<g id="node18" class="node">
<title>Node18</title>
<g id="a_node18"><a xlink:href="mtx__vec_8h.html" target="_top" xlink:title=" ">
<polygon fill="white" stroke="black" points="267,-56.5 267,-75.5 328,-75.5 328,-56.5 267,-56.5"/>
<text text-anchor="middle" x="297.5" y="-63.5" font-family="Helvetica,sans-Serif" font-size="10.00">mtx_vec.h</text>
</a>
</g>
</g>
<!-- Node16&#45;&gt;Node18 -->
<g id="edge30" class="edge">
<title>Node16&#45;&gt;Node18</title>
<path fill="none" stroke="midnightblue" d="M314.63,-117.98C311.78,-109.49 307.32,-96.2 303.66,-85.32"/>
<polygon fill="midnightblue" stroke="midnightblue" points="306.86,-83.87 300.36,-75.51 300.23,-86.1 306.86,-83.87"/>
</g>
<!-- Node17&#45;&gt;Node7 -->
<g id="edge28" class="edge">
<title>Node17&#45;&gt;Node7</title>
<path fill="none" stroke="midnightblue" d="M403.33,-75.72C400.97,-90.67 394.54,-121.65 379.5,-143 347.96,-187.77 293.32,-223.16 261.18,-241.42"/>
<polygon fill="midnightblue" stroke="midnightblue" points="259.41,-238.4 252.37,-246.31 262.81,-244.52 259.41,-238.4"/>
</g>
<!-- Node18&#45;&gt;Node6 -->
<g id="edge31" class="edge">
<title>Node18&#45;&gt;Node6</title>
<path fill="none" stroke="midnightblue" d="M328.09,-57.49C365.69,-48.26 429.8,-32.53 472.89,-21.95"/>
<polygon fill="midnightblue" stroke="midnightblue" points="473.95,-25.29 482.82,-19.51 472.28,-18.5 473.95,-25.29"/>
</g>
<!-- Node19&#45;&gt;Node3 -->
<g id="edge35" class="edge">
<title>Node19&#45;&gt;Node3</title>
<path fill="none" stroke="midnightblue" d="M670.29,-369.4C667.34,-361.39 663.56,-351.16 660.17,-341.98"/>
<polygon fill="midnightblue" stroke="midnightblue" points="663.44,-340.75 656.7,-332.58 656.88,-343.17 663.44,-340.75"/>
</g>
<!-- Node19&#45;&gt;Node6 -->
<g id="edge36" class="edge">
<title>Node19&#45;&gt;Node6</title>
<path fill="none" stroke="midnightblue" d="M709.82,-369.49C750.11,-350.5 811.5,-312.46 811.5,-257 811.5,-257 811.5,-257 811.5,-126.5 811.5,-87.03 791.12,-76.67 757.5,-56 726.52,-36.95 629.26,-23.22 568.48,-16.24"/>
<polygon fill="midnightblue" stroke="midnightblue" points="568.65,-12.74 558.32,-15.1 567.87,-19.69 568.65,-12.74"/>
</g>
</g>
</svg>
