<?xml version="1.0" encoding="UTF-8" standalone="no"?>
<!DOCTYPE svg PUBLIC "-//W3C//DTD SVG 1.1//EN"
 "http://www.w3.org/Graphics/SVG/1.1/DTD/svg11.dtd">
<!-- Generated by graphviz version 2.46.0 (20210122.1329)
 -->
<!-- Title: include/m_Do/m_Do_graphic/m_Do_graphic.h Pages: 1 -->
<svg width="540pt" height="95pt"
 viewBox="0.00 0.00 539.50 95.00" xmlns="http://www.w3.org/2000/svg" xmlns:xlink="http://www.w3.org/1999/xlink">
<g id="graph0" class="graph" transform="scale(1 1) rotate(0) translate(4 91)">
<title>include/m_Do/m_Do_graphic/m_Do_graphic.h</title>
<polygon fill="white" stroke="transparent" points="-4,4 -4,-91 535.5,-91 535.5,4 -4,4"/>
<!-- Node1 -->
<g id="node1" class="node">
<title>Node1</title>
<g id="a_node1"><a xlink:title=" ">
<polygon fill="#bfbfbf" stroke="black" points="170.5,-56.5 170.5,-86.5 311.5,-86.5 311.5,-56.5 170.5,-56.5"/>
<text text-anchor="start" x="178.5" y="-74.5" font-family="Helvetica,sans-Serif" font-size="10.00">include/m_Do/m_Do_graphic</text>
<text text-anchor="middle" x="241" y="-63.5" font-family="Helvetica,sans-Serif" font-size="10.00">/m_Do_graphic.h</text>
</a>
</g>
</g>
<!-- Node2 -->
<g id="node2" class="node">
<title>Node2</title>
<g id="a_node2"><a xlink:href="d__camera_8cpp.html" target="_top" xlink:title=" ">
<polygon fill="white" stroke="black" points="0,-0.5 0,-19.5 102,-19.5 102,-0.5 0,-0.5"/>
<text text-anchor="middle" x="51" y="-7.5" font-family="Helvetica,sans-Serif" font-size="10.00">src/d/d_camera.cpp</text>
</a>
</g>
</g>
<!-- Node1&#45;&gt;Node2 -->
<g id="edge1" class="edge">
<title>Node1&#45;&gt;Node2</title>
<path fill="none" stroke="midnightblue" d="M186.27,-53.36C150.92,-42.29 106.46,-28.37 78.37,-19.57"/>
<polygon fill="midnightblue" stroke="midnightblue" points="185.38,-56.75 195.97,-56.4 187.48,-50.07 185.38,-56.75"/>
</g>
<!-- Node3 -->
<g id="node3" class="node">
<title>Node3</title>
<g id="a_node3"><a xlink:href="d__kankyo_8cpp.html" target="_top" xlink:title=" ">
<polygon fill="white" stroke="black" points="120.5,-0.5 120.5,-19.5 221.5,-19.5 221.5,-0.5 120.5,-0.5"/>
<text text-anchor="middle" x="171" y="-7.5" font-family="Helvetica,sans-Serif" font-size="10.00">src/d/d_kankyo.cpp</text>
</a>
</g>
</g>
<!-- Node1&#45;&gt;Node3 -->
<g id="edge2" class="edge">
<title>Node1&#45;&gt;Node3</title>
<path fill="none" stroke="midnightblue" d="M216.76,-49.89C204.58,-39.54 190.48,-27.56 181.19,-19.66"/>
<polygon fill="midnightblue" stroke="midnightblue" points="214.52,-52.59 224.41,-56.4 219.06,-47.26 214.52,-52.59"/>
</g>
<!-- Node4 -->
<g id="node4" class="node">
<title>Node4</title>
<g id="a_node4"><a xlink:href="m__Do__graphic_8cpp.html" target="_top" xlink:title=" ">
<polygon fill="white" stroke="black" points="240,-0.5 240,-19.5 382,-19.5 382,-0.5 240,-0.5"/>
<text text-anchor="middle" x="311" y="-7.5" font-family="Helvetica,sans-Serif" font-size="10.00">src/m_Do/m_Do_graphic.cpp</text>
</a>
</g>
</g>
<!-- Node1&#45;&gt;Node4 -->
<g id="edge3" class="edge">
<title>Node1&#45;&gt;Node4</title>
<path fill="none" stroke="midnightblue" d="M265.24,-49.89C277.42,-39.54 291.52,-27.56 300.81,-19.66"/>
<polygon fill="midnightblue" stroke="midnightblue" points="262.94,-47.26 257.59,-56.4 267.48,-52.59 262.94,-47.26"/>
</g>
<!-- Node5 -->
<g id="node5" class="node">
<title>Node5</title>
<g id="a_node5"><a xlink:href="m__Do__main_8cpp.html" target="_top" xlink:title=" ">
<polygon fill="white" stroke="black" points="400.5,-0.5 400.5,-19.5 531.5,-19.5 531.5,-0.5 400.5,-0.5"/>
<text text-anchor="middle" x="466" y="-7.5" font-family="Helvetica,sans-Serif" font-size="10.00">src/m_Do/m_Do_main.cpp</text>
</a>
</g>
</g>
<!-- Node1&#45;&gt;Node5 -->
<g id="edge4" class="edge">
<title>Node1&#45;&gt;Node5</title>
<path fill="none" stroke="midnightblue" d="M303.96,-53.85C346.2,-42.68 400.09,-28.43 433.83,-19.51"/>
<polygon fill="midnightblue" stroke="midnightblue" points="302.81,-50.53 294.04,-56.47 304.6,-57.3 302.81,-50.53"/>
</g>
</g>
</svg>
