<?xml version="1.0" encoding="UTF-8" standalone="no"?>
<!DOCTYPE svg PUBLIC "-//W3C//DTD SVG 1.1//EN"
 "http://www.w3.org/Graphics/SVG/1.1/DTD/svg11.dtd">
<!-- Generated by graphviz version 2.46.0 (20210122.1329)
 -->
<!-- Title: include/m_Do/m_Do_audio/m_Do_audio.h Pages: 1 -->
<svg width="2764pt" height="106pt"
 viewBox="0.00 0.00 2764.00 106.00" xmlns="http://www.w3.org/2000/svg" xmlns:xlink="http://www.w3.org/1999/xlink">
<g id="graph0" class="graph" transform="scale(1 1) rotate(0) translate(4 102)">
<title>include/m_Do/m_Do_audio/m_Do_audio.h</title>
<polygon fill="white" stroke="transparent" points="-4,4 -4,-102 2760,-102 2760,4 -4,4"/>
<!-- Node1 -->
<g id="node1" class="node">
<title>Node1</title>
<g id="a_node1"><a xlink:title=" ">
<polygon fill="#bfbfbf" stroke="black" points="1170,-67.5 1170,-97.5 1303,-97.5 1303,-67.5 1170,-67.5"/>
<text text-anchor="start" x="1178" y="-85.5" font-family="Helvetica,sans-Serif" font-size="10.00">include/m_Do/m_Do_audio</text>
<text text-anchor="middle" x="1236.5" y="-74.5" font-family="Helvetica,sans-Serif" font-size="10.00">/m_Do_audio.h</text>
</a>
</g>
</g>
<!-- Node2 -->
<g id="node2" class="node">
<title>Node2</title>
<g id="a_node2"><a xlink:href="d__attention_8cpp.html" target="_top" xlink:title=" ">
<polygon fill="white" stroke="black" points="0,-6 0,-25 107,-25 107,-6 0,-6"/>
<text text-anchor="middle" x="53.5" y="-13" font-family="Helvetica,sans-Serif" font-size="10.00">src/d/d_attention.cpp</text>
</a>
</g>
</g>
<!-- Node1&#45;&gt;Node2 -->
<g id="edge1" class="edge">
<title>Node1&#45;&gt;Node2</title>
<path fill="none" stroke="midnightblue" d="M1159.53,-79.89C940.7,-75 317.81,-58.97 115.5,-31 105.43,-29.61 94.59,-27.34 84.83,-25.01"/>
<polygon fill="midnightblue" stroke="midnightblue" points="1159.56,-83.39 1169.64,-80.11 1159.72,-76.39 1159.56,-83.39"/>
</g>
<!-- Node3 -->
<g id="node3" class="node">
<title>Node3</title>
<g id="a_node3"><a xlink:href="d__camera_8cpp.html" target="_top" xlink:title=" ">
<polygon fill="white" stroke="black" points="124.5,-6 124.5,-25 226.5,-25 226.5,-6 124.5,-6"/>
<text text-anchor="middle" x="175.5" y="-13" font-family="Helvetica,sans-Serif" font-size="10.00">src/d/d_camera.cpp</text>
</a>
</g>
</g>
<!-- Node1&#45;&gt;Node3 -->
<g id="edge2" class="edge">
<title>Node1&#45;&gt;Node3</title>
<path fill="none" stroke="midnightblue" d="M1159.46,-79.48C957.05,-73.86 413.55,-56.77 235.5,-31 225.85,-29.6 215.48,-27.37 206.12,-25.06"/>
<polygon fill="midnightblue" stroke="midnightblue" points="1159.62,-82.98 1169.71,-79.76 1159.81,-75.98 1159.62,-82.98"/>
</g>
<!-- Node4 -->
<g id="node4" class="node">
<title>Node4</title>
<g id="a_node4"><a xlink:href="d__com__inf__game_8cpp.html" target="_top" xlink:title=" ">
<polygon fill="white" stroke="black" points="245,-0.5 245,-30.5 364,-30.5 364,-0.5 245,-0.5"/>
<text text-anchor="start" x="253" y="-18.5" font-family="Helvetica,sans-Serif" font-size="10.00">src/d/d_com/d_com_inf</text>
<text text-anchor="middle" x="304.5" y="-7.5" font-family="Helvetica,sans-Serif" font-size="10.00">_game.cpp</text>
</a>
</g>
</g>
<!-- Node1&#45;&gt;Node4 -->
<g id="edge3" class="edge">
<title>Node1&#45;&gt;Node4</title>
<path fill="none" stroke="midnightblue" d="M1159.66,-80.91C1008.31,-78.89 661.25,-70 372.5,-31 369.75,-30.63 366.94,-30.21 364.11,-29.75"/>
<polygon fill="midnightblue" stroke="midnightblue" points="1159.73,-84.41 1169.78,-81.04 1159.82,-77.41 1159.73,-84.41"/>
</g>
<!-- Node5 -->
<g id="node5" class="node">
<title>Node5</title>
<g id="a_node5"><a xlink:href="d__kankyo__wether_8cpp.html" target="_top" xlink:title=" ">
<polygon fill="white" stroke="black" points="382,-0.5 382,-30.5 509,-30.5 509,-0.5 382,-0.5"/>
<text text-anchor="start" x="390" y="-18.5" font-family="Helvetica,sans-Serif" font-size="10.00">src/d/d_kankyo/d_kankyo</text>
<text text-anchor="middle" x="445.5" y="-7.5" font-family="Helvetica,sans-Serif" font-size="10.00">_wether.cpp</text>
</a>
</g>
</g>
<!-- Node1&#45;&gt;Node5 -->
<g id="edge4" class="edge">
<title>Node1&#45;&gt;Node5</title>
<path fill="none" stroke="midnightblue" d="M1159.79,-79.35C1027.96,-74.93 750.15,-62.46 517.5,-31 514.72,-30.62 511.89,-30.21 509.03,-29.75"/>
<polygon fill="midnightblue" stroke="midnightblue" points="1159.68,-82.85 1169.79,-79.68 1159.91,-75.85 1159.68,-82.85"/>
</g>
<!-- Node6 -->
<g id="node6" class="node">
<title>Node6</title>
<g id="a_node6"><a xlink:href="d__kankyo_8cpp.html" target="_top" xlink:title=" ">
<polygon fill="white" stroke="black" points="527,-6 527,-25 628,-25 628,-6 527,-6"/>
<text text-anchor="middle" x="577.5" y="-13" font-family="Helvetica,sans-Serif" font-size="10.00">src/d/d_kankyo.cpp</text>
</a>
</g>
</g>
<!-- Node1&#45;&gt;Node6 -->
<g id="edge5" class="edge">
<title>Node1&#45;&gt;Node6</title>
<path fill="none" stroke="midnightblue" d="M1159.87,-78.9C1045.33,-74.15 823,-61.57 636.5,-31 627.24,-29.48 617.28,-27.27 608.24,-25.02"/>
<polygon fill="midnightblue" stroke="midnightblue" points="1159.8,-82.4 1169.94,-79.31 1160.09,-75.41 1159.8,-82.4"/>
</g>
<!-- Node7 -->
<g id="node7" class="node">
<title>Node7</title>
<g id="a_node7"><a xlink:href="d__kyeff_8cpp.html" target="_top" xlink:title=" ">
<polygon fill="white" stroke="black" points="646,-6 646,-25 759,-25 759,-6 646,-6"/>
<text text-anchor="middle" x="702.5" y="-13" font-family="Helvetica,sans-Serif" font-size="10.00">src/d/d_ky/d_kyeff.cpp</text>
</a>
</g>
</g>
<!-- Node1&#45;&gt;Node7 -->
<g id="edge6" class="edge">
<title>Node1&#45;&gt;Node7</title>
<path fill="none" stroke="midnightblue" d="M1159.59,-75.88C1066.39,-68.46 904.77,-53.63 767.5,-31 757.69,-29.38 747.13,-27.22 737.44,-25.05"/>
<polygon fill="midnightblue" stroke="midnightblue" points="1159.53,-79.39 1169.78,-76.69 1160.08,-72.41 1159.53,-79.39"/>
</g>
<!-- Node8 -->
<g id="node8" class="node">
<title>Node8</title>
<g id="a_node8"><a xlink:href="d__meter__button_8cpp.html" target="_top" xlink:title=" ">
<polygon fill="white" stroke="black" points="777,-0.5 777,-30.5 892,-30.5 892,-0.5 777,-0.5"/>
<text text-anchor="start" x="785" y="-18.5" font-family="Helvetica,sans-Serif" font-size="10.00">src/d/d_meter/d_meter</text>
<text text-anchor="middle" x="834.5" y="-7.5" font-family="Helvetica,sans-Serif" font-size="10.00">_button.cpp</text>
</a>
</g>
</g>
<!-- Node1&#45;&gt;Node8 -->
<g id="edge7" class="edge">
<title>Node1&#45;&gt;Node8</title>
<path fill="none" stroke="midnightblue" d="M1159.74,-71.46C1091.48,-62.17 989.05,-47.36 900.5,-31 897.73,-30.49 894.9,-29.95 892.05,-29.38"/>
<polygon fill="midnightblue" stroke="midnightblue" points="1159.6,-74.97 1169.98,-72.84 1160.54,-68.03 1159.6,-74.97"/>
</g>
<!-- Node9 -->
<g id="node9" class="node">
<title>Node9</title>
<g id="a_node9"><a xlink:href="d__meter__map_8cpp.html" target="_top" xlink:title=" ">
<polygon fill="white" stroke="black" points="910,-0.5 910,-30.5 1025,-30.5 1025,-0.5 910,-0.5"/>
<text text-anchor="start" x="918" y="-18.5" font-family="Helvetica,sans-Serif" font-size="10.00">src/d/d_meter/d_meter</text>
<text text-anchor="middle" x="967.5" y="-7.5" font-family="Helvetica,sans-Serif" font-size="10.00">_map.cpp</text>
</a>
</g>
</g>
<!-- Node1&#45;&gt;Node9 -->
<g id="edge8" class="edge">
<title>Node1&#45;&gt;Node9</title>
<path fill="none" stroke="midnightblue" d="M1168.67,-65.11C1124.5,-54.44 1067.48,-40.66 1025.43,-30.5"/>
<polygon fill="midnightblue" stroke="midnightblue" points="1167.92,-68.53 1178.46,-67.48 1169.56,-61.73 1167.92,-68.53"/>
</g>
<!-- Node10 -->
<g id="node10" class="node">
<title>Node10</title>
<g id="a_node10"><a xlink:href="d__meter2__draw_8cpp.html" target="_top" xlink:title=" ">
<polygon fill="white" stroke="black" points="1043,-0.5 1043,-30.5 1168,-30.5 1168,-0.5 1043,-0.5"/>
<text text-anchor="start" x="1051" y="-18.5" font-family="Helvetica,sans-Serif" font-size="10.00">src/d/d_meter2/d_meter2</text>
<text text-anchor="middle" x="1105.5" y="-7.5" font-family="Helvetica,sans-Serif" font-size="10.00">_draw.cpp</text>
</a>
</g>
</g>
<!-- Node1&#45;&gt;Node10 -->
<g id="edge9" class="edge">
<title>Node1&#45;&gt;Node10</title>
<path fill="none" stroke="midnightblue" d="M1198.92,-62.85C1178.21,-52.58 1152.91,-40.03 1133.87,-30.58"/>
<polygon fill="midnightblue" stroke="midnightblue" points="1197.56,-66.09 1208.07,-67.4 1200.67,-59.82 1197.56,-66.09"/>
</g>
<!-- Node11 -->
<g id="node11" class="node">
<title>Node11</title>
<g id="a_node11"><a xlink:href="d__meter2_8cpp.html" target="_top" xlink:title=" ">
<polygon fill="white" stroke="black" points="1186.5,-6 1186.5,-25 1286.5,-25 1286.5,-6 1186.5,-6"/>
<text text-anchor="middle" x="1236.5" y="-13" font-family="Helvetica,sans-Serif" font-size="10.00">src/d/d_meter2.cpp</text>
</a>
</g>
</g>
<!-- Node1&#45;&gt;Node11 -->
<g id="edge10" class="edge">
<title>Node1&#45;&gt;Node11</title>
<path fill="none" stroke="midnightblue" d="M1236.5,-57.25C1236.5,-46.02 1236.5,-33.38 1236.5,-25.19"/>
<polygon fill="midnightblue" stroke="midnightblue" points="1233,-57.4 1236.5,-67.4 1240,-57.4 1233,-57.4"/>
</g>
<!-- Node12 -->
<g id="node12" class="node">
<title>Node12</title>
<g id="a_node12"><a xlink:href="d__a__alink_8cpp.html" target="_top" xlink:title=" ">
<polygon fill="white" stroke="black" points="1305,-6 1305,-25 1424,-25 1424,-6 1305,-6"/>
<text text-anchor="middle" x="1364.5" y="-13" font-family="Helvetica,sans-Serif" font-size="10.00">src/d/d_a/d_a_alink.cpp</text>
</a>
</g>
</g>
<!-- Node1&#45;&gt;Node12 -->
<g id="edge11" class="edge">
<title>Node1&#45;&gt;Node12</title>
<path fill="none" stroke="midnightblue" d="M1273.32,-62.8C1297.86,-50.34 1328.94,-34.56 1347.75,-25.01"/>
<polygon fill="midnightblue" stroke="midnightblue" points="1271.61,-59.75 1264.27,-67.4 1274.78,-65.99 1271.61,-59.75"/>
</g>
<!-- Node13 -->
<g id="node13" class="node">
<title>Node13</title>
<g id="a_node13"><a xlink:href="m__Do__audio_8cpp.html" target="_top" xlink:title=" ">
<polygon fill="white" stroke="black" points="1442.5,-6 1442.5,-25 1576.5,-25 1576.5,-6 1442.5,-6"/>
<text text-anchor="middle" x="1509.5" y="-13" font-family="Helvetica,sans-Serif" font-size="10.00">src/m_Do/m_Do_audio.cpp</text>
</a>
</g>
</g>
<!-- Node1&#45;&gt;Node13 -->
<g id="edge12" class="edge">
<title>Node1&#45;&gt;Node13</title>
<path fill="none" stroke="midnightblue" d="M1305.17,-65.15C1358.74,-52.39 1431,-35.19 1473.68,-25.03"/>
<polygon fill="midnightblue" stroke="midnightblue" points="1304.32,-61.75 1295.4,-67.48 1305.94,-68.56 1304.32,-61.75"/>
</g>
<!-- Node14 -->
<g id="node14" class="node">
<title>Node14</title>
<g id="a_node14"><a xlink:href="m__Do__main_8cpp.html" target="_top" xlink:title=" ">
<polygon fill="white" stroke="black" points="1595,-6 1595,-25 1726,-25 1726,-6 1595,-6"/>
<text text-anchor="middle" x="1660.5" y="-13" font-family="Helvetica,sans-Serif" font-size="10.00">src/m_Do/m_Do_main.cpp</text>
</a>
</g>
</g>
<!-- Node1&#45;&gt;Node14 -->
<g id="edge13" class="edge">
<title>Node1&#45;&gt;Node14</title>
<path fill="none" stroke="midnightblue" d="M1313.4,-71.44C1384.22,-61.91 1492.15,-46.77 1585.5,-31 1596.09,-29.21 1607.49,-27.1 1618.12,-25.06"/>
<polygon fill="midnightblue" stroke="midnightblue" points="1312.67,-68 1303.23,-72.8 1313.6,-74.94 1312.67,-68"/>
</g>
<!-- Node15 -->
<g id="node15" class="node">
<title>Node15</title>
<g id="a_node15"><a xlink:href="Z2AudioMgr_8cpp.html" target="_top" xlink:title=" ">
<polygon fill="white" stroke="black" points="1744.5,-6 1744.5,-25 1902.5,-25 1902.5,-6 1744.5,-6"/>
<text text-anchor="middle" x="1823.5" y="-13" font-family="Helvetica,sans-Serif" font-size="10.00">libs/Z2AudioLib/Z2AudioMgr.cpp</text>
</a>
</g>
</g>
<!-- Node1&#45;&gt;Node15 -->
<g id="edge14" class="edge">
<title>Node1&#45;&gt;Node15</title>
<path fill="none" stroke="midnightblue" d="M1313.37,-75.22C1411.52,-66.86 1586.48,-50.8 1735.5,-31 1748.39,-29.29 1762.3,-27.14 1775.17,-25.02"/>
<polygon fill="midnightblue" stroke="midnightblue" points="1312.91,-71.75 1303.24,-76.08 1313.5,-78.72 1312.91,-71.75"/>
</g>
<!-- Node16 -->
<g id="node16" class="node">
<title>Node16</title>
<g id="a_node16"><a xlink:href="Z2Creature_8cpp.html" target="_top" xlink:title=" ">
<polygon fill="white" stroke="black" points="1921,-6 1921,-25 2074,-25 2074,-6 1921,-6"/>
<text text-anchor="middle" x="1997.5" y="-13" font-family="Helvetica,sans-Serif" font-size="10.00">libs/Z2AudioLib/Z2Creature.cpp</text>
</a>
</g>
</g>
<!-- Node1&#45;&gt;Node16 -->
<g id="edge15" class="edge">
<title>Node1&#45;&gt;Node16</title>
<path fill="none" stroke="midnightblue" d="M1313.56,-78.05C1439.15,-71.92 1695.63,-57.22 1911.5,-31 1924.58,-29.41 1938.7,-27.23 1951.64,-25.04"/>
<polygon fill="midnightblue" stroke="midnightblue" points="1313.1,-74.57 1303.29,-78.55 1313.44,-81.56 1313.1,-74.57"/>
</g>
<!-- Node17 -->
<g id="node17" class="node">
<title>Node17</title>
<g id="a_node17"><a xlink:href="Z2SeMgr_8cpp.html" target="_top" xlink:title=" ">
<polygon fill="white" stroke="black" points="2092,-6 2092,-25 2237,-25 2237,-6 2092,-6"/>
<text text-anchor="middle" x="2164.5" y="-13" font-family="Helvetica,sans-Serif" font-size="10.00">libs/Z2AudioLib/Z2SeMgr.cpp</text>
</a>
</g>
</g>
<!-- Node1&#45;&gt;Node17 -->
<g id="edge16" class="edge">
<title>Node1&#45;&gt;Node17</title>
<path fill="none" stroke="midnightblue" d="M1313.58,-79.94C1462.73,-76.24 1801.01,-64.59 2083.5,-31 2096.13,-29.5 2109.76,-27.29 2122.18,-25.04"/>
<polygon fill="midnightblue" stroke="midnightblue" points="1313.08,-76.45 1303.17,-80.19 1313.25,-83.44 1313.08,-76.45"/>
</g>
<!-- Node18 -->
<g id="node18" class="node">
<title>Node18</title>
<g id="a_node18"><a xlink:href="Z2SoundMgr_8cpp.html" target="_top" xlink:title=" ">
<polygon fill="white" stroke="black" points="2255,-6 2255,-25 2416,-25 2416,-6 2255,-6"/>
<text text-anchor="middle" x="2335.5" y="-13" font-family="Helvetica,sans-Serif" font-size="10.00">libs/Z2AudioLib/Z2SoundMgr.cpp</text>
</a>
</g>
</g>
<!-- Node1&#45;&gt;Node18 -->
<g id="edge17" class="edge">
<title>Node1&#45;&gt;Node18</title>
<path fill="none" stroke="midnightblue" d="M1313.22,-80.58C1482.26,-77.92 1899.4,-67.84 2246.5,-31 2260.51,-29.51 2275.67,-27.28 2289.44,-25.01"/>
<polygon fill="midnightblue" stroke="midnightblue" points="1313.12,-77.08 1303.17,-80.73 1313.23,-84.08 1313.12,-77.08"/>
</g>
<!-- Node19 -->
<g id="node19" class="node">
<title>Node19</title>
<g id="a_node19"><a xlink:href="Z2SoundStarter_8cpp.html" target="_top" xlink:title=" ">
<polygon fill="white" stroke="black" points="2434,-6 2434,-25 2607,-25 2607,-6 2434,-6"/>
<text text-anchor="middle" x="2520.5" y="-13" font-family="Helvetica,sans-Serif" font-size="10.00">libs/Z2AudioLib/Z2SoundStarter.cpp</text>
</a>
</g>
</g>
<!-- Node1&#45;&gt;Node19 -->
<g id="edge18" class="edge">
<title>Node1&#45;&gt;Node19</title>
<path fill="none" stroke="midnightblue" d="M1313.19,-81.13C1502.5,-79.61 2007.01,-71.7 2425.5,-31 2440.45,-29.55 2456.62,-27.32 2471.32,-25.05"/>
<polygon fill="midnightblue" stroke="midnightblue" points="1313.04,-77.64 1303.07,-81.21 1313.09,-84.64 1313.04,-77.64"/>
</g>
<!-- Node20 -->
<g id="node20" class="node">
<title>Node20</title>
<g id="a_node20"><a xlink:href="Z2SpeechMgr2_8cpp.html" target="_top" xlink:title=" ">
<polygon fill="white" stroke="black" points="2625,-0.5 2625,-30.5 2756,-30.5 2756,-0.5 2625,-0.5"/>
<text text-anchor="start" x="2633" y="-18.5" font-family="Helvetica,sans-Serif" font-size="10.00">libs/Z2AudioLib/Z2Speech</text>
<text text-anchor="middle" x="2690.5" y="-7.5" font-family="Helvetica,sans-Serif" font-size="10.00">Mgr2.cpp</text>
</a>
</g>
</g>
<!-- Node1&#45;&gt;Node20 -->
<g id="edge19" class="edge">
<title>Node1&#45;&gt;Node20</title>
<path fill="none" stroke="midnightblue" d="M1313.31,-80.28C1564.65,-76.03 2361.04,-60.52 2616.5,-31 2619.23,-30.68 2622.01,-30.32 2624.82,-29.93"/>
<polygon fill="midnightblue" stroke="midnightblue" points="1313.11,-76.78 1303.17,-80.45 1313.23,-83.78 1313.11,-76.78"/>
</g>
</g>
</svg>
