<?xml version="1.0" encoding="UTF-8" standalone="no"?>
<!DOCTYPE svg PUBLIC "-//W3C//DTD SVG 1.1//EN"
 "http://www.w3.org/Graphics/SVG/1.1/DTD/svg11.dtd">
<!-- Generated by graphviz version 2.46.1 (20210215.1649)
 -->
<!-- Title: include/m_Do/m_Do_main/m_Do_main.h Pages: 1 -->
<svg width="959pt" height="542pt"
 viewBox="0.00 0.00 959.00 542.00" xmlns="http://www.w3.org/2000/svg" xmlns:xlink="http://www.w3.org/1999/xlink">
<g id="graph0" class="graph" transform="scale(1 1) rotate(0) translate(4 538)">
<title>include/m_Do/m_Do_main/m_Do_main.h</title>
<polygon fill="white" stroke="transparent" points="-4,4 -4,-538 955,-538 955,4 -4,4"/>
<!-- Node1 -->
<g id="node1" class="node">
<title>Node1</title>
<g id="a_node1"><a xlink:title=" ">
<polygon fill="#bfbfbf" stroke="black" points="199.5,-503.5 199.5,-533.5 330.5,-533.5 330.5,-503.5 199.5,-503.5"/>
<text text-anchor="start" x="207.5" y="-521.5" font-family="Helvetica,sans-Serif" font-size="10.00">include/m_Do/m_Do_main</text>
<text text-anchor="middle" x="265" y="-510.5" font-family="Helvetica,sans-Serif" font-size="10.00">/m_Do_main.h</text>
</a>
</g>
</g>
<!-- Node2 -->
<g id="node2" class="node">
<title>Node2</title>
<g id="a_node2"><a xlink:href="JKRExpHeap_8h.html" target="_top" xlink:title=" ">
<polygon fill="white" stroke="black" points="28,-369.5 28,-399.5 180,-399.5 180,-369.5 28,-369.5"/>
<text text-anchor="start" x="36" y="-387.5" font-family="Helvetica,sans-Serif" font-size="10.00">JSystem/JKernel/JKRExpHeap</text>
<text text-anchor="middle" x="104" y="-376.5" font-family="Helvetica,sans-Serif" font-size="10.00">/JKRExpHeap.h</text>
</a>
</g>
</g>
<!-- Node1&#45;&gt;Node2 -->
<g id="edge1" class="edge">
<title>Node1&#45;&gt;Node2</title>
<path fill="none" stroke="midnightblue" d="M247.77,-503.37C219.2,-479.95 161.92,-432.99 128.94,-405.94"/>
<polygon fill="midnightblue" stroke="midnightblue" points="131.06,-403.16 121.11,-399.52 126.62,-408.57 131.06,-403.16"/>
</g>
<!-- Node3 -->
<g id="node3" class="node">
<title>Node3</title>
<g id="a_node3"><a xlink:href="JKRHeap_8h.html" target="_top" xlink:title=" ">
<polygon fill="white" stroke="black" points="311,-302.5 311,-332.5 447,-332.5 447,-302.5 311,-302.5"/>
<text text-anchor="start" x="319" y="-320.5" font-family="Helvetica,sans-Serif" font-size="10.00">JSystem/JKernel/JKRHeap</text>
<text text-anchor="middle" x="379" y="-309.5" font-family="Helvetica,sans-Serif" font-size="10.00">/JKRHeap.h</text>
</a>
</g>
</g>
<!-- Node1&#45;&gt;Node3 -->
<g id="edge29" class="edge">
<title>Node1&#45;&gt;Node3</title>
<path fill="none" stroke="midnightblue" d="M275.02,-503.42C290.22,-481.76 319.6,-438.69 341,-400 351.51,-380.99 361.82,-358.57 369.04,-342.07"/>
<polygon fill="midnightblue" stroke="midnightblue" points="372.37,-343.2 373.12,-332.63 365.94,-340.43 372.37,-343.2"/>
</g>
<!-- Node6 -->
<g id="node6" class="node">
<title>Node6</title>
<g id="a_node6"><a xlink:href="types_8h.html" target="_top" xlink:title=" ">
<polygon fill="white" stroke="black" points="519.5,-0.5 519.5,-19.5 600.5,-19.5 600.5,-0.5 519.5,-0.5"/>
<text text-anchor="middle" x="560" y="-7.5" font-family="Helvetica,sans-Serif" font-size="10.00">dolphin/types.h</text>
</a>
</g>
</g>
<!-- Node1&#45;&gt;Node6 -->
<g id="edge42" class="edge">
<title>Node1&#45;&gt;Node6</title>
<path fill="none" stroke="midnightblue" d="M199.49,-512.91C121.02,-503.44 0,-474.42 0,-385.5 0,-385.5 0,-385.5 0,-126.5 0,-23.1 370.84,-11.5 508.96,-10.77"/>
<polygon fill="midnightblue" stroke="midnightblue" points="509.29,-14.27 519.28,-10.73 509.26,-7.27 509.29,-14.27"/>
</g>
<!-- Node17 -->
<g id="node17" class="node">
<title>Node17</title>
<g id="a_node17"><a xlink:href="JKRSolidHeap_8h.html" target="_top" xlink:title=" ">
<polygon fill="white" stroke="black" points="198,-369.5 198,-399.5 332,-399.5 332,-369.5 198,-369.5"/>
<text text-anchor="start" x="206" y="-387.5" font-family="Helvetica,sans-Serif" font-size="10.00">JSystem/JKernel/JKRSolid</text>
<text text-anchor="middle" x="265" y="-376.5" font-family="Helvetica,sans-Serif" font-size="10.00">Heap/JKRSolidHeap.h</text>
</a>
</g>
</g>
<!-- Node1&#45;&gt;Node17 -->
<g id="edge30" class="edge">
<title>Node1&#45;&gt;Node17</title>
<path fill="none" stroke="midnightblue" d="M265,-503.37C265,-481.04 265,-437.31 265,-409.85"/>
<polygon fill="midnightblue" stroke="midnightblue" points="268.5,-409.52 265,-399.52 261.5,-409.52 268.5,-409.52"/>
</g>
<!-- Node18 -->
<g id="node18" class="node">
<title>Node18</title>
<g id="a_node18"><a xlink:href="JUTConsole_8h.html" target="_top" xlink:title=" ">
<polygon fill="white" stroke="black" points="430.5,-436.5 430.5,-466.5 575.5,-466.5 575.5,-436.5 430.5,-436.5"/>
<text text-anchor="start" x="438.5" y="-454.5" font-family="Helvetica,sans-Serif" font-size="10.00">JSystem/JUtility/JUTConsole</text>
<text text-anchor="middle" x="503" y="-443.5" font-family="Helvetica,sans-Serif" font-size="10.00">/JUTConsole.h</text>
</a>
</g>
</g>
<!-- Node1&#45;&gt;Node18 -->
<g id="edge33" class="edge">
<title>Node1&#45;&gt;Node18</title>
<path fill="none" stroke="midnightblue" d="M316.35,-503.48C352.98,-493.47 402.41,-479.97 441.2,-469.38"/>
<polygon fill="midnightblue" stroke="midnightblue" points="442.61,-472.62 451.33,-466.61 440.76,-465.87 442.61,-472.62"/>
</g>
<!-- Node2&#45;&gt;Node3 -->
<g id="edge2" class="edge">
<title>Node2&#45;&gt;Node3</title>
<path fill="none" stroke="midnightblue" d="M163.33,-369.48C206.2,-359.34 264.24,-345.63 309.31,-334.97"/>
<polygon fill="midnightblue" stroke="midnightblue" points="310.37,-338.32 319.3,-332.61 308.76,-331.51 310.37,-338.32"/>
</g>
<!-- Node2&#45;&gt;Node6 -->
<g id="edge28" class="edge">
<title>Node2&#45;&gt;Node6</title>
<path fill="none" stroke="midnightblue" d="M104.92,-369.47C106.36,-346.14 109,-297.88 109,-257 109,-257 109,-257 109,-126.5 109,-44.71 390.89,-20.05 508.95,-13.31"/>
<polygon fill="midnightblue" stroke="midnightblue" points="509.39,-16.79 519.18,-12.75 509,-9.81 509.39,-16.79"/>
</g>
<!-- Node4 -->
<g id="node4" class="node">
<title>Node4</title>
<g id="a_node4"><a xlink:href="JKRDisposer_8h.html" target="_top" xlink:title=" ">
<polygon fill="white" stroke="black" points="199.5,-179.5 199.5,-209.5 350.5,-209.5 350.5,-179.5 199.5,-179.5"/>
<text text-anchor="start" x="207.5" y="-197.5" font-family="Helvetica,sans-Serif" font-size="10.00">JSystem/JKernel/JKRDisposer</text>
<text text-anchor="middle" x="275" y="-186.5" font-family="Helvetica,sans-Serif" font-size="10.00">/JKRDisposer.h</text>
</a>
</g>
</g>
<!-- Node3&#45;&gt;Node4 -->
<g id="edge3" class="edge">
<title>Node3&#45;&gt;Node4</title>
<path fill="none" stroke="midnightblue" d="M366.66,-302.14C348.68,-281.22 315.12,-242.17 293.98,-217.58"/>
<polygon fill="midnightblue" stroke="midnightblue" points="296.5,-215.14 287.32,-209.84 291.19,-219.7 296.5,-215.14"/>
</g>
<!-- Node3&#45;&gt;Node6 -->
<g id="edge7" class="edge">
<title>Node3&#45;&gt;Node6</title>
<path fill="none" stroke="midnightblue" d="M379.21,-302.23C379.09,-276.56 376.59,-221.32 359,-179 351.32,-160.53 338.32,-161.97 332,-143 327.64,-129.93 324.49,-123.55 332,-112 371.04,-52 454.76,-27.37 509.16,-17.46"/>
<polygon fill="midnightblue" stroke="midnightblue" points="510.03,-20.86 519.29,-15.71 508.85,-13.96 510.03,-20.86"/>
</g>
<!-- Node7 -->
<g id="node7" class="node">
<title>Node7</title>
<g id="a_node7"><a xlink:href="global_8h.html" target="_top" xlink:title=" ">
<polygon fill="white" stroke="black" points="710,-246.5 710,-265.5 760,-265.5 760,-246.5 710,-246.5"/>
<text text-anchor="middle" x="735" y="-253.5" font-family="Helvetica,sans-Serif" font-size="10.00">global.h</text>
</a>
</g>
</g>
<!-- Node3&#45;&gt;Node7 -->
<g id="edge8" class="edge">
<title>Node3&#45;&gt;Node7</title>
<path fill="none" stroke="midnightblue" d="M447.22,-305.1C522.64,-292.49 641.21,-272.68 699.81,-262.88"/>
<polygon fill="midnightblue" stroke="midnightblue" points="700.4,-266.33 709.69,-261.23 699.25,-259.43 700.4,-266.33"/>
</g>
<!-- Node5 -->
<g id="node5" class="node">
<title>Node5</title>
<g id="a_node5"><a xlink:href="JSUList_8h.html" target="_top" xlink:title=" ">
<polygon fill="white" stroke="black" points="341,-112.5 341,-142.5 477,-142.5 477,-112.5 341,-112.5"/>
<text text-anchor="start" x="349" y="-130.5" font-family="Helvetica,sans-Serif" font-size="10.00">JSystem/JSupport/JSUList</text>
<text text-anchor="middle" x="409" y="-119.5" font-family="Helvetica,sans-Serif" font-size="10.00">/JSUList.h</text>
</a>
</g>
</g>
<!-- Node4&#45;&gt;Node5 -->
<g id="edge4" class="edge">
<title>Node4&#45;&gt;Node5</title>
<path fill="none" stroke="midnightblue" d="M304.08,-179.4C323.65,-169.9 349.68,-157.28 370.91,-146.98"/>
<polygon fill="midnightblue" stroke="midnightblue" points="372.51,-150.09 379.98,-142.58 369.46,-143.79 372.51,-150.09"/>
</g>
<!-- Node4&#45;&gt;Node6 -->
<g id="edge6" class="edge">
<title>Node4&#45;&gt;Node6</title>
<path fill="none" stroke="midnightblue" d="M272.74,-179.49C269.13,-151.69 265.55,-89.38 299,-56 327.87,-27.19 442.05,-16.7 509.45,-12.97"/>
<polygon fill="midnightblue" stroke="midnightblue" points="509.64,-16.47 519.45,-12.45 509.28,-9.48 509.64,-16.47"/>
</g>
<!-- Node5&#45;&gt;Node6 -->
<g id="edge5" class="edge">
<title>Node5&#45;&gt;Node6</title>
<path fill="none" stroke="midnightblue" d="M427.52,-112.34C456.21,-90.39 511.14,-48.37 540.45,-25.95"/>
<polygon fill="midnightblue" stroke="midnightblue" points="542.85,-28.52 548.67,-19.67 538.6,-22.96 542.85,-28.52"/>
</g>
<!-- Node7&#45;&gt;Node6 -->
<g id="edge9" class="edge">
<title>Node7&#45;&gt;Node6</title>
<path fill="none" stroke="midnightblue" d="M760.08,-248.63C783.3,-241.84 817.92,-229.37 843,-210 898.06,-167.49 925.85,-98.78 871,-56 831.43,-25.13 688.09,-15.39 610.59,-12.35"/>
<polygon fill="midnightblue" stroke="midnightblue" points="610.68,-8.85 600.56,-11.98 610.42,-15.85 610.68,-8.85"/>
</g>
<!-- Node8 -->
<g id="node8" class="node">
<title>Node8</title>
<g id="a_node8"><a xlink:href="AR_8h.html" target="_top" xlink:title=" ">
<polygon fill="white" stroke="black" points="642.5,-56.5 642.5,-75.5 691.5,-75.5 691.5,-56.5 642.5,-56.5"/>
<text text-anchor="middle" x="667" y="-63.5" font-family="Helvetica,sans-Serif" font-size="10.00">ar/AR.h</text>
</a>
</g>
</g>
<!-- Node7&#45;&gt;Node8 -->
<g id="edge10" class="edge">
<title>Node7&#45;&gt;Node8</title>
<path fill="none" stroke="midnightblue" d="M739.12,-246.18C749.52,-222.52 774.17,-156.47 748,-112 737.91,-94.85 718.65,-83.76 701.45,-76.89"/>
<polygon fill="midnightblue" stroke="midnightblue" points="702.23,-73.45 691.64,-73.31 699.83,-80.03 702.23,-73.45"/>
</g>
<!-- Node9 -->
<g id="node9" class="node">
<title>Node9</title>
<g id="a_node9"><a xlink:href="ARQ_8h.html" target="_top" xlink:title=" ">
<polygon fill="white" stroke="black" points="710,-56.5 710,-75.5 766,-75.5 766,-56.5 710,-56.5"/>
<text text-anchor="middle" x="738" y="-63.5" font-family="Helvetica,sans-Serif" font-size="10.00">ar/ARQ.h</text>
</a>
</g>
</g>
<!-- Node7&#45;&gt;Node9 -->
<g id="edge12" class="edge">
<title>Node7&#45;&gt;Node9</title>
<path fill="none" stroke="midnightblue" d="M748.79,-246.19C759.83,-238.24 774.5,-225.45 781,-210 797.89,-169.85 797.21,-152.43 781,-112 776.32,-100.33 767.01,-89.97 758.24,-82.14"/>
<polygon fill="midnightblue" stroke="midnightblue" points="760.42,-79.4 750.5,-75.7 755.95,-84.78 760.42,-79.4"/>
</g>
<!-- Node10 -->
<g id="node10" class="node">
<title>Node10</title>
<g id="a_node10"><a xlink:href="mwcc_8h.html" target="_top" xlink:title=" ">
<polygon fill="white" stroke="black" points="506,-185 506,-204 556,-204 556,-185 506,-185"/>
<text text-anchor="middle" x="531" y="-192" font-family="Helvetica,sans-Serif" font-size="10.00">mwcc.h</text>
</a>
</g>
</g>
<!-- Node7&#45;&gt;Node10 -->
<g id="edge14" class="edge">
<title>Node7&#45;&gt;Node10</title>
<path fill="none" stroke="midnightblue" d="M709.78,-249.39C676.48,-241.73 616.18,-226.99 566,-210 564.08,-209.35 562.12,-208.65 560.16,-207.92"/>
<polygon fill="midnightblue" stroke="midnightblue" points="561.03,-204.5 550.45,-204.09 558.47,-211.01 561.03,-204.5"/>
</g>
<!-- Node11 -->
<g id="node11" class="node">
<title>Node11</title>
<g id="a_node11"><a xlink:href="OS_8h.html" target="_top" xlink:title=" ">
<polygon fill="white" stroke="black" points="833,-118 833,-137 885,-137 885,-118 833,-118"/>
<text text-anchor="middle" x="859" y="-125" font-family="Helvetica,sans-Serif" font-size="10.00">os/OS.h</text>
</a>
</g>
</g>
<!-- Node7&#45;&gt;Node11 -->
<g id="edge15" class="edge">
<title>Node7&#45;&gt;Node11</title>
<path fill="none" stroke="midnightblue" d="M760.05,-246.39C778.29,-239.07 802.57,-227.02 819,-210 836.49,-191.88 847.72,-164.64 853.7,-146.72"/>
<polygon fill="midnightblue" stroke="midnightblue" points="857.05,-147.74 856.69,-137.15 850.37,-145.65 857.05,-147.74"/>
</g>
<!-- Node13 -->
<g id="node13" class="node">
<title>Node13</title>
<g id="a_node13"><a xlink:href="variables_8h.html" target="_top" xlink:title=" ">
<polygon fill="white" stroke="black" points="574.5,-185 574.5,-204 637.5,-204 637.5,-185 574.5,-185"/>
<text text-anchor="middle" x="606" y="-192" font-family="Helvetica,sans-Serif" font-size="10.00">variables.h</text>
</a>
</g>
</g>
<!-- Node7&#45;&gt;Node13 -->
<g id="edge19" class="edge">
<title>Node7&#45;&gt;Node13</title>
<path fill="none" stroke="midnightblue" d="M716.52,-246.48C694.87,-236.49 658.79,-219.85 633.77,-208.31"/>
<polygon fill="midnightblue" stroke="midnightblue" points="634.99,-205.02 624.45,-204.01 632.06,-211.38 634.99,-205.02"/>
</g>
<!-- Node8&#45;&gt;Node6 -->
<g id="edge11" class="edge">
<title>Node8&#45;&gt;Node6</title>
<path fill="none" stroke="midnightblue" d="M649.81,-56.32C632.65,-47.66 606.05,-34.24 586.25,-24.25"/>
<polygon fill="midnightblue" stroke="midnightblue" points="587.65,-21.04 577.15,-19.65 584.5,-27.28 587.65,-21.04"/>
</g>
<!-- Node9&#45;&gt;Node6 -->
<g id="edge13" class="edge">
<title>Node9&#45;&gt;Node6</title>
<path fill="none" stroke="midnightblue" d="M709.8,-56.44C679.59,-47.28 631.49,-32.69 597.97,-22.52"/>
<polygon fill="midnightblue" stroke="midnightblue" points="598.66,-19.07 588.07,-19.52 596.63,-25.77 598.66,-19.07"/>
</g>
<!-- Node11&#45;&gt;Node6 -->
<g id="edge16" class="edge">
<title>Node11&#45;&gt;Node6</title>
<path fill="none" stroke="midnightblue" d="M861.29,-117.79C864.61,-102.98 868.77,-72.87 853,-56 820.95,-21.71 685.8,-13.44 610.76,-11.52"/>
<polygon fill="midnightblue" stroke="midnightblue" points="610.66,-8.01 600.58,-11.29 610.5,-15.01 610.66,-8.01"/>
</g>
<!-- Node12 -->
<g id="node12" class="node">
<title>Node12</title>
<g id="a_node12"><a xlink:href="dvd_8h.html" target="_top" xlink:title=" ">
<polygon fill="white" stroke="black" points="784.5,-56.5 784.5,-75.5 843.5,-75.5 843.5,-56.5 784.5,-56.5"/>
<text text-anchor="middle" x="814" y="-63.5" font-family="Helvetica,sans-Serif" font-size="10.00">dvd/dvd.h</text>
</a>
</g>
</g>
<!-- Node11&#45;&gt;Node12 -->
<g id="edge17" class="edge">
<title>Node11&#45;&gt;Node12</title>
<path fill="none" stroke="midnightblue" d="M852.55,-117.98C845.8,-109.05 835.03,-94.81 826.59,-83.64"/>
<polygon fill="midnightblue" stroke="midnightblue" points="829.26,-81.37 820.44,-75.51 823.68,-85.6 829.26,-81.37"/>
</g>
<!-- Node12&#45;&gt;Node6 -->
<g id="edge18" class="edge">
<title>Node12&#45;&gt;Node6</title>
<path fill="none" stroke="midnightblue" d="M784.2,-58.06C781.1,-57.35 777.99,-56.66 775,-56 718.97,-43.67 654.54,-30.29 610.94,-21.36"/>
<polygon fill="midnightblue" stroke="midnightblue" points="611.37,-17.87 600.87,-19.29 609.97,-24.73 611.37,-17.87"/>
</g>
<!-- Node13&#45;&gt;Node5 -->
<g id="edge20" class="edge">
<title>Node13&#45;&gt;Node5</title>
<path fill="none" stroke="midnightblue" d="M582.19,-184.96C576.56,-182.97 570.58,-180.89 565,-179 531.33,-167.6 493.38,-155.3 463.35,-145.7"/>
<polygon fill="midnightblue" stroke="midnightblue" points="464.08,-142.26 453.48,-142.55 461.95,-148.93 464.08,-142.26"/>
</g>
<!-- Node14 -->
<g id="node14" class="node">
<title>Node14</title>
<g id="a_node14"><a xlink:href="JUTXfb_8h.html" target="_top" xlink:title=" ">
<polygon fill="white" stroke="black" points="495.5,-112.5 495.5,-142.5 620.5,-142.5 620.5,-112.5 495.5,-112.5"/>
<text text-anchor="start" x="503.5" y="-130.5" font-family="Helvetica,sans-Serif" font-size="10.00">JSystem/JUtility/JUTXfb</text>
<text text-anchor="middle" x="558" y="-119.5" font-family="Helvetica,sans-Serif" font-size="10.00">/JUTXfb.h</text>
</a>
</g>
</g>
<!-- Node13&#45;&gt;Node14 -->
<g id="edge21" class="edge">
<title>Node13&#45;&gt;Node14</title>
<path fill="none" stroke="midnightblue" d="M599.53,-184.73C593.1,-176.03 582.99,-162.34 574.36,-150.65"/>
<polygon fill="midnightblue" stroke="midnightblue" points="577.16,-148.55 568.4,-142.59 571.53,-152.71 577.16,-148.55"/>
</g>
<!-- Node16 -->
<g id="node16" class="node">
<title>Node16</title>
<g id="a_node16"><a xlink:href="mtx__vec_8h.html" target="_top" xlink:title=" ">
<polygon fill="white" stroke="black" points="677.5,-118 677.5,-137 738.5,-137 738.5,-118 677.5,-118"/>
<text text-anchor="middle" x="708" y="-125" font-family="Helvetica,sans-Serif" font-size="10.00">mtx_vec.h</text>
</a>
</g>
</g>
<!-- Node13&#45;&gt;Node16 -->
<g id="edge26" class="edge">
<title>Node13&#45;&gt;Node16</title>
<path fill="none" stroke="midnightblue" d="M619.76,-184.73C636.73,-173.92 665.81,-155.38 685.93,-142.57"/>
<polygon fill="midnightblue" stroke="midnightblue" points="687.91,-145.45 694.46,-137.13 684.15,-139.55 687.91,-145.45"/>
</g>
<!-- Node14&#45;&gt;Node3 -->
<g id="edge22" class="edge">
<title>Node14&#45;&gt;Node3</title>
<path fill="none" stroke="midnightblue" d="M539.42,-142.53C526.96,-152.27 510.44,-165.8 497,-179 458.36,-216.96 418.32,-266.06 396.24,-294.14"/>
<polygon fill="midnightblue" stroke="midnightblue" points="393.38,-292.11 389.98,-302.15 398.9,-296.42 393.38,-292.11"/>
</g>
<!-- Node14&#45;&gt;Node6 -->
<g id="edge23" class="edge">
<title>Node14&#45;&gt;Node6</title>
<path fill="none" stroke="midnightblue" d="M544.55,-112.27C533.02,-98.27 519.25,-76.14 526,-56 529.6,-45.25 536.9,-35.02 543.82,-27.04"/>
<polygon fill="midnightblue" stroke="midnightblue" points="546.48,-29.32 550.71,-19.61 541.35,-24.56 546.48,-29.32"/>
</g>
<!-- Node15 -->
<g id="node15" class="node">
<title>Node15</title>
<g id="a_node15"><a xlink:href="GX_8h.html" target="_top" xlink:title=" ">
<polygon fill="white" stroke="black" points="534.5,-56.5 534.5,-75.5 585.5,-75.5 585.5,-56.5 534.5,-56.5"/>
<text text-anchor="middle" x="560" y="-63.5" font-family="Helvetica,sans-Serif" font-size="10.00">gx/GX.h</text>
</a>
</g>
</g>
<!-- Node14&#45;&gt;Node15 -->
<g id="edge24" class="edge">
<title>Node14&#45;&gt;Node15</title>
<path fill="none" stroke="midnightblue" d="M558.47,-112.4C558.74,-104.47 559.08,-94.46 559.37,-85.86"/>
<polygon fill="midnightblue" stroke="midnightblue" points="562.87,-85.77 559.71,-75.66 555.87,-85.53 562.87,-85.77"/>
</g>
<!-- Node15&#45;&gt;Node6 -->
<g id="edge25" class="edge">
<title>Node15&#45;&gt;Node6</title>
<path fill="none" stroke="midnightblue" d="M560,-56.08C560,-49.01 560,-38.86 560,-29.99"/>
<polygon fill="midnightblue" stroke="midnightblue" points="563.5,-29.75 560,-19.75 556.5,-29.75 563.5,-29.75"/>
</g>
<!-- Node16&#45;&gt;Node6 -->
<g id="edge27" class="edge">
<title>Node16&#45;&gt;Node6</title>
<path fill="none" stroke="midnightblue" d="M694.28,-117.86C679.16,-108.16 654.28,-91.73 634,-76 613.48,-60.08 591.26,-40.17 576.58,-26.61"/>
<polygon fill="midnightblue" stroke="midnightblue" points="578.97,-24.05 569.26,-19.8 574.2,-29.17 578.97,-24.05"/>
</g>
<!-- Node17&#45;&gt;Node3 -->
<g id="edge31" class="edge">
<title>Node17&#45;&gt;Node3</title>
<path fill="none" stroke="midnightblue" d="M289.74,-369.4C306.02,-360.11 327.54,-347.84 345.37,-337.67"/>
<polygon fill="midnightblue" stroke="midnightblue" points="347.36,-340.57 354.31,-332.58 343.89,-334.49 347.36,-340.57"/>
</g>
<!-- Node17&#45;&gt;Node6 -->
<g id="edge32" class="edge">
<title>Node17&#45;&gt;Node6</title>
<path fill="none" stroke="midnightblue" d="M244.6,-369.34C216.96,-348.31 171,-305.98 171,-257 171,-257 171,-257 171,-126.5 171,-56.7 404.06,-25.76 509.39,-15.34"/>
<polygon fill="midnightblue" stroke="midnightblue" points="509.85,-18.81 519.47,-14.36 509.18,-11.84 509.85,-18.81"/>
</g>
<!-- Node18&#45;&gt;Node3 -->
<g id="edge34" class="edge">
<title>Node18&#45;&gt;Node3</title>
<path fill="none" stroke="midnightblue" d="M468.66,-436.32C451.41,-427.83 431.21,-415.63 417,-400 401.9,-383.39 391.77,-359.73 385.8,-342.18"/>
<polygon fill="midnightblue" stroke="midnightblue" points="389.13,-341.11 382.75,-332.65 382.46,-343.24 389.13,-341.11"/>
</g>
<!-- Node18&#45;&gt;Node5 -->
<g id="edge35" class="edge">
<title>Node18&#45;&gt;Node5</title>
<path fill="none" stroke="midnightblue" d="M545.33,-436.3C562.02,-428.39 579.45,-416.68 589,-400 595.84,-388.04 593.35,-382.07 589,-369 557.75,-275.09 473.92,-188.25 432.63,-149.61"/>
<polygon fill="midnightblue" stroke="midnightblue" points="434.93,-146.96 425.21,-142.75 430.18,-152.1 434.93,-146.96"/>
</g>
<!-- Node18&#45;&gt;Node6 -->
<g id="edge41" class="edge">
<title>Node18&#45;&gt;Node6</title>
<path fill="none" stroke="midnightblue" d="M575.98,-444.17C702.92,-431.12 951,-395.73 951,-318.5 951,-318.5 951,-318.5 951,-126.5 951,-85.93 928.44,-75.75 893,-56 845.75,-29.67 692.25,-17.88 611.2,-13.37"/>
<polygon fill="midnightblue" stroke="midnightblue" points="610.91,-9.85 600.74,-12.81 610.53,-16.84 610.91,-9.85"/>
</g>
<!-- Node19 -->
<g id="node19" class="node">
<title>Node19</title>
<g id="a_node19"><a xlink:href="JUTResFont_8h.html" target="_top" xlink:title=" ">
<polygon fill="white" stroke="black" points="426,-375 426,-394 580,-394 580,-375 426,-375"/>
<text text-anchor="middle" x="503" y="-382" font-family="Helvetica,sans-Serif" font-size="10.00">JSystem/JUtility/JUTResFont.h</text>
</a>
</g>
</g>
<!-- Node18&#45;&gt;Node19 -->
<g id="edge36" class="edge">
<title>Node18&#45;&gt;Node19</title>
<path fill="none" stroke="midnightblue" d="M503,-436.4C503,-427.06 503,-414.71 503,-404.52"/>
<polygon fill="midnightblue" stroke="midnightblue" points="506.5,-404.19 503,-394.19 499.5,-404.19 506.5,-404.19"/>
</g>
<!-- Node19&#45;&gt;Node3 -->
<g id="edge37" class="edge">
<title>Node19&#45;&gt;Node3</title>
<path fill="none" stroke="midnightblue" d="M486.53,-374.87C468.39,-365.36 438.64,-349.77 415.03,-337.39"/>
<polygon fill="midnightblue" stroke="midnightblue" points="416.48,-334.19 406,-332.65 413.23,-340.39 416.48,-334.19"/>
</g>
<!-- Node20 -->
<g id="node20" class="node">
<title>Node20</title>
<g id="a_node20"><a xlink:href="JUTFont_8h.html" target="_top" xlink:title=" ">
<polygon fill="white" stroke="black" points="601.5,-302.5 601.5,-332.5 730.5,-332.5 730.5,-302.5 601.5,-302.5"/>
<text text-anchor="start" x="609.5" y="-320.5" font-family="Helvetica,sans-Serif" font-size="10.00">JSystem/JUtility/JUTFont</text>
<text text-anchor="middle" x="666" y="-309.5" font-family="Helvetica,sans-Serif" font-size="10.00">/JUTFont.h</text>
</a>
</g>
</g>
<!-- Node19&#45;&gt;Node20 -->
<g id="edge38" class="edge">
<title>Node19&#45;&gt;Node20</title>
<path fill="none" stroke="midnightblue" d="M524.65,-374.87C549.21,-365.07 589.94,-348.83 621.39,-336.29"/>
<polygon fill="midnightblue" stroke="midnightblue" points="622.83,-339.48 630.82,-332.53 620.24,-332.98 622.83,-339.48"/>
</g>
<!-- Node20&#45;&gt;Node7 -->
<g id="edge39" class="edge">
<title>Node20&#45;&gt;Node7</title>
<path fill="none" stroke="midnightblue" d="M682.35,-302.4C692.9,-293.31 706.6,-281.49 717.38,-272.19"/>
<polygon fill="midnightblue" stroke="midnightblue" points="719.67,-274.84 724.96,-265.66 715.1,-269.54 719.67,-274.84"/>
</g>
<!-- Node20&#45;&gt;Node15 -->
<g id="edge40" class="edge">
<title>Node20&#45;&gt;Node15</title>
<path fill="none" stroke="midnightblue" d="M667.44,-302.27C670.3,-266.57 673.07,-171.83 630,-112 620.12,-98.28 604.65,-87.7 590.77,-80.26"/>
<polygon fill="midnightblue" stroke="midnightblue" points="592,-76.96 581.49,-75.61 588.86,-83.22 592,-76.96"/>
</g>
</g>
</svg>
