<?xml version="1.0" encoding="UTF-8" standalone="no"?>
<!DOCTYPE svg PUBLIC "-//W3C//DTD SVG 1.1//EN"
 "http://www.w3.org/Graphics/SVG/1.1/DTD/svg11.dtd">
<!-- Generated by graphviz version 2.46.0 (20210122.1329)
 -->
<!-- Title: include/m_Do/m_Do_controller_pad/m_Do_controller_pad.h Pages: 1 -->
<!--zoomable 609 -->
<svg id="main" version="1.1" xmlns="http://www.w3.org/2000/svg" xmlns:xlink="http://www.w3.org/1999/xlink" xml:space="preserve" onload="init(evt)">
<style type="text/css"><![CDATA[
.edge:hover path { stroke: red; }
.edge:hover polygon { stroke: red; fill: red; }
]]></style>
<script type="text/javascript"><![CDATA[
var edges = document.getElementsByTagName('g');
if (edges && edges.length) {
  for (var i=0;i<edges.length;i++) {
    if (edges[i].id.substr(0,4)=='edge') {
      edges[i].setAttribute('class','edge');
    }
  }
}
]]></script>
        <defs>
                <circle id="rim" cx="0" cy="0" r="7"/>
                <circle id="rim2" cx="0" cy="0" r="3.5"/>
                <g id="zoomPlus">
                        <use xlink:href="#rim" fill="#404040">
                                <set attributeName="fill" to="#808080" begin="zoomplus.mouseover" end="zoomplus.mouseout"/>
                        </use>
                        <path d="M-4,0h8M0,-4v8" fill="none" stroke="white" stroke-width="1.5" pointer-events="none"/>
                </g>
                <g id="zoomMin">
                        <use xlink:href="#rim" fill="#404040">
                                <set attributeName="fill" to="#808080" begin="zoomminus.mouseover" end="zoomminus.mouseout"/>
                        </use>
                        <path d="M-4,0h8" fill="none" stroke="white" stroke-width="1.5" pointer-events="none"/>
                </g>
                <g id="dirArrow">
                        <path fill="none" stroke="white" stroke-width="1.5" d="M0,-3.0v7 M-2.5,-0.5L0,-3.0L2.5,-0.5"/>
                </g>
               <g id="resetDef">
                       <use xlink:href="#rim2" fill="#404040">
                               <set attributeName="fill" to="#808080" begin="reset.mouseover" end="reset.mouseout"/>
                       </use>
               </g>
        </defs>

<script type="text/javascript">
var viewWidth = 828;
var viewHeight = 609;
var sectionId = 'dynsection-0';
</script>
<script xlink:href="svgpan.js"/>
<svg id="graph" class="graph">
<g id="viewport">
<title>include/m_Do/m_Do_controller_pad/m_Do_controller_pad.h</title>
<polygon fill="white" stroke="transparent" points="-4,4 -4,-605 823.5,-605 823.5,4 -4,4"/>
<!-- Node1 -->
<g id="node1" class="node">
<title>Node1</title>
<g id="a_node1"><a xlink:title=" ">
<polygon fill="#bfbfbf" stroke="black" points="228.5,-570.5 228.5,-600.5 377.5,-600.5 377.5,-570.5 228.5,-570.5"/>
<text text-anchor="start" x="236.5" y="-588.5" font-family="Helvetica,sans-Serif" font-size="10.00">include/m_Do/m_Do_controller</text>
<text text-anchor="middle" x="303" y="-577.5" font-family="Helvetica,sans-Serif" font-size="10.00">_pad/m_Do_controller_pad.h</text>
</a>
</g>
</g>
<!-- Node2 -->
<g id="node2" class="node">
<title>Node2</title>
<g id="a_node2"><a xlink:href="JUTGamePad_8h.html" target="_top" xlink:title=" ">
<polygon fill="white" stroke="black" points="187,-503.5 187,-533.5 323,-533.5 323,-503.5 187,-503.5"/>
<text text-anchor="start" x="195" y="-521.5" font-family="Helvetica,sans-Serif" font-size="10.00">JSystem/JUtility/JUTGame</text>
<text text-anchor="middle" x="255" y="-510.5" font-family="Helvetica,sans-Serif" font-size="10.00">Pad/JUTGamePad.h</text>
</a>
</g>
</g>
<!-- Node1&#45;&gt;Node2 -->
<g id="edge1" class="edge">
<title>Node1&#45;&gt;Node2</title>
<path fill="none" stroke="midnightblue" d="M292.58,-570.4C286.42,-562.05 278.47,-551.29 271.48,-541.81"/>
<polygon fill="midnightblue" stroke="midnightblue" points="274.15,-539.54 265.39,-533.58 268.52,-543.7 274.15,-539.54"/>
</g>
<!-- Node20 -->
<g id="node20" class="node">
<title>Node20</title>
<g id="a_node20"><a xlink:href="c__API__controller__pad_8h.html" target="_top" xlink:title=" ">
<polygon fill="white" stroke="black" points="290,-436.5 290,-466.5 438,-466.5 438,-436.5 290,-436.5"/>
<text text-anchor="start" x="298" y="-454.5" font-family="Helvetica,sans-Serif" font-size="10.00">SComponent/c_API_controller</text>
<text text-anchor="middle" x="364" y="-443.5" font-family="Helvetica,sans-Serif" font-size="10.00">_pad.h</text>
</a>
</g>
</g>
<!-- Node1&#45;&gt;Node20 -->
<g id="edge37" class="edge">
<title>Node1&#45;&gt;Node20</title>
<path fill="none" stroke="midnightblue" d="M311.95,-570.22C318,-560.27 325.96,-546.58 332,-534 341.16,-514.94 349.81,-492.52 355.81,-476.03"/>
<polygon fill="midnightblue" stroke="midnightblue" points="359.1,-477.2 359.17,-466.61 352.51,-474.85 359.1,-477.2"/>
</g>
<!-- Node3 -->
<g id="node3" class="node">
<title>Node3</title>
<g id="a_node3"><a xlink:href="JKRDisposer_8h.html" target="_top" xlink:title=" ">
<polygon fill="white" stroke="black" points="668.5,-123.5 668.5,-153.5 819.5,-153.5 819.5,-123.5 668.5,-123.5"/>
<text text-anchor="start" x="676.5" y="-141.5" font-family="Helvetica,sans-Serif" font-size="10.00">JSystem/JKernel/JKRDisposer</text>
<text text-anchor="middle" x="744" y="-130.5" font-family="Helvetica,sans-Serif" font-size="10.00">/JKRDisposer.h</text>
</a>
</g>
</g>
<!-- Node2&#45;&gt;Node3 -->
<g id="edge2" class="edge">
<title>Node2&#45;&gt;Node3</title>
<path fill="none" stroke="midnightblue" d="M323.26,-515.7C468.3,-510.03 794,-486.64 794,-391 794,-391 794,-391 794,-271.5 794,-234.31 789.13,-224.4 775,-190 771.1,-180.5 765.52,-170.72 760.17,-162.33"/>
<polygon fill="midnightblue" stroke="midnightblue" points="762.99,-160.25 754.54,-153.86 757.16,-164.12 762.99,-160.25"/>
</g>
<!-- Node4 -->
<g id="node4" class="node">
<title>Node4</title>
<g id="a_node4"><a xlink:href="JSUList_8h.html" target="_top" xlink:title=" ">
<polygon fill="white" stroke="black" points="368,-56.5 368,-86.5 504,-86.5 504,-56.5 368,-56.5"/>
<text text-anchor="start" x="376" y="-74.5" font-family="Helvetica,sans-Serif" font-size="10.00">JSystem/JSupport/JSUList</text>
<text text-anchor="middle" x="436" y="-63.5" font-family="Helvetica,sans-Serif" font-size="10.00">/JSUList.h</text>
</a>
</g>
</g>
<!-- Node2&#45;&gt;Node4 -->
<g id="edge6" class="edge">
<title>Node2&#45;&gt;Node4</title>
<path fill="none" stroke="midnightblue" d="M323.03,-514.46C403.31,-506.79 526,-480.44 526,-391 526,-391 526,-391 526,-204.5 526,-158.75 488.64,-117.16 462.06,-93.36"/>
<polygon fill="midnightblue" stroke="midnightblue" points="464.06,-90.46 454.21,-86.56 459.48,-95.75 464.06,-90.46"/>
</g>
<!-- Node5 -->
<g id="node5" class="node">
<title>Node5</title>
<g id="a_node5"><a xlink:href="types_8h.html" target="_top" xlink:title=" ">
<polygon fill="white" stroke="black" points="244.5,-0.5 244.5,-19.5 325.5,-19.5 325.5,-0.5 244.5,-0.5"/>
<text text-anchor="middle" x="285" y="-7.5" font-family="Helvetica,sans-Serif" font-size="10.00">dolphin/types.h</text>
</a>
</g>
</g>
<!-- Node2&#45;&gt;Node5 -->
<g id="edge7" class="edge">
<title>Node2&#45;&gt;Node5</title>
<path fill="none" stroke="midnightblue" d="M187,-512.58C111.46,-502.98 0,-474.64 0,-391 0,-391 0,-391 0,-137.5 0,-36.14 152.46,-15.38 234.37,-11.54"/>
<polygon fill="midnightblue" stroke="midnightblue" points="234.62,-15.03 244.47,-11.13 234.34,-8.04 234.62,-15.03"/>
</g>
<!-- Node6 -->
<g id="node6" class="node">
<title>Node6</title>
<g id="a_node6"><a xlink:href="OS_8h.html" target="_top" xlink:title=" ">
<polygon fill="white" stroke="black" points="80,-324.5 80,-343.5 132,-343.5 132,-324.5 80,-324.5"/>
<text text-anchor="middle" x="106" y="-331.5" font-family="Helvetica,sans-Serif" font-size="10.00">os/OS.h</text>
</a>
</g>
</g>
<!-- Node2&#45;&gt;Node6 -->
<g id="edge8" class="edge">
<title>Node2&#45;&gt;Node6</title>
<path fill="none" stroke="midnightblue" d="M238.85,-503.12C228.22,-493.35 214.25,-479.9 203,-467 169.05,-428.05 134.43,-377.9 117.19,-352.06"/>
<polygon fill="midnightblue" stroke="midnightblue" points="120.1,-350.12 111.66,-343.71 114.27,-353.98 120.1,-350.12"/>
</g>
<!-- Node8 -->
<g id="node8" class="node">
<title>Node8</title>
<g id="a_node8"><a xlink:href="pad_8h.html" target="_top" xlink:title=" ">
<polygon fill="white" stroke="black" points="212.5,-442 212.5,-461 271.5,-461 271.5,-442 212.5,-442"/>
<text text-anchor="middle" x="242" y="-449" font-family="Helvetica,sans-Serif" font-size="10.00">pad/pad.h</text>
</a>
</g>
</g>
<!-- Node2&#45;&gt;Node8 -->
<g id="edge12" class="edge">
<title>Node2&#45;&gt;Node8</title>
<path fill="none" stroke="midnightblue" d="M252.18,-503.4C250.29,-493.96 247.79,-481.45 245.74,-471.19"/>
<polygon fill="midnightblue" stroke="midnightblue" points="249.13,-470.31 243.74,-461.19 242.27,-471.69 249.13,-470.31"/>
</g>
<!-- Node3&#45;&gt;Node4 -->
<g id="edge3" class="edge">
<title>Node3&#45;&gt;Node4</title>
<path fill="none" stroke="midnightblue" d="M677.55,-123.48C629.05,-113.24 563.22,-99.35 512.53,-88.65"/>
<polygon fill="midnightblue" stroke="midnightblue" points="513.11,-85.2 502.6,-86.55 511.66,-92.04 513.11,-85.2"/>
</g>
<!-- Node3&#45;&gt;Node5 -->
<g id="edge5" class="edge">
<title>Node3&#45;&gt;Node5</title>
<path fill="none" stroke="midnightblue" d="M733.27,-123.44C717.97,-104.53 687.94,-71.51 654,-56 598.44,-30.61 423.27,-18.16 335.77,-13.4"/>
<polygon fill="midnightblue" stroke="midnightblue" points="335.72,-9.89 325.55,-12.86 335.35,-16.88 335.72,-9.89"/>
</g>
<!-- Node4&#45;&gt;Node5 -->
<g id="edge4" class="edge">
<title>Node4&#45;&gt;Node5</title>
<path fill="none" stroke="midnightblue" d="M400.22,-56.4C374.77,-46.37 340.9,-33.03 316.48,-23.4"/>
<polygon fill="midnightblue" stroke="midnightblue" points="317.56,-20.07 306.97,-19.66 314.99,-26.58 317.56,-20.07"/>
</g>
<!-- Node6&#45;&gt;Node5 -->
<g id="edge9" class="edge">
<title>Node6&#45;&gt;Node5</title>
<path fill="none" stroke="midnightblue" d="M107.15,-324.43C109.77,-304.04 116,-251 116,-206.5 116,-206.5 116,-206.5 116,-137.5 116,-100.31 109.53,-83.11 135,-56 160.36,-29 201.22,-17.99 233.89,-13.6"/>
<polygon fill="midnightblue" stroke="midnightblue" points="234.66,-17.04 244.18,-12.4 233.84,-10.09 234.66,-17.04"/>
</g>
<!-- Node7 -->
<g id="node7" class="node">
<title>Node7</title>
<g id="a_node7"><a xlink:href="dvd_8h.html" target="_top" xlink:title=" ">
<polygon fill="white" stroke="black" points="28.5,-129 28.5,-148 87.5,-148 87.5,-129 28.5,-129"/>
<text text-anchor="middle" x="58" y="-136" font-family="Helvetica,sans-Serif" font-size="10.00">dvd/dvd.h</text>
</a>
</g>
</g>
<!-- Node6&#45;&gt;Node7 -->
<g id="edge10" class="edge">
<title>Node6&#45;&gt;Node7</title>
<path fill="none" stroke="midnightblue" d="M103.88,-324.44C96.63,-295.22 72.77,-199.06 62.63,-158.17"/>
<polygon fill="midnightblue" stroke="midnightblue" points="66.01,-157.27 60.21,-148.41 59.22,-158.96 66.01,-157.27"/>
</g>
<!-- Node7&#45;&gt;Node5 -->
<g id="edge11" class="edge">
<title>Node7&#45;&gt;Node5</title>
<path fill="none" stroke="midnightblue" d="M60.15,-128.83C64.78,-112.05 77.33,-75.09 102,-56 139.97,-26.63 194.53,-16.14 234.19,-12.54"/>
<polygon fill="midnightblue" stroke="midnightblue" points="234.5,-16.03 244.19,-11.75 233.94,-9.05 234.5,-16.03"/>
</g>
<!-- Node9 -->
<g id="node9" class="node">
<title>Node9</title>
<g id="a_node9"><a xlink:href="global_8h.html" target="_top" xlink:title=" ">
<polygon fill="white" stroke="black" points="279,-380.5 279,-399.5 329,-399.5 329,-380.5 279,-380.5"/>
<text text-anchor="middle" x="304" y="-387.5" font-family="Helvetica,sans-Serif" font-size="10.00">global.h</text>
</a>
</g>
</g>
<!-- Node8&#45;&gt;Node9 -->
<g id="edge13" class="edge">
<title>Node8&#45;&gt;Node9</title>
<path fill="none" stroke="midnightblue" d="M250.88,-441.98C260.46,-432.78 275.91,-417.96 287.69,-406.66"/>
<polygon fill="midnightblue" stroke="midnightblue" points="290.34,-408.96 295.13,-399.51 285.49,-403.91 290.34,-408.96"/>
</g>
<!-- Node9&#45;&gt;Node5 -->
<g id="edge14" class="edge">
<title>Node9&#45;&gt;Node5</title>
<path fill="none" stroke="midnightblue" d="M278.65,-382.06C259.04,-375.41 232.69,-363.46 217,-344 196.64,-318.73 198,-305.95 198,-273.5 198,-273.5 198,-273.5 198,-204.5 198,-133.46 247.38,-59.63 271.74,-27.54"/>
<polygon fill="midnightblue" stroke="midnightblue" points="274.51,-29.67 277.88,-19.63 268.98,-25.38 274.51,-29.67"/>
</g>
<!-- Node9&#45;&gt;Node6 -->
<g id="edge20" class="edge">
<title>Node9&#45;&gt;Node6</title>
<path fill="none" stroke="midnightblue" d="M278.92,-382.16C244.27,-372.71 181.54,-355.6 141.92,-344.8"/>
<polygon fill="midnightblue" stroke="midnightblue" points="142.7,-341.38 132.13,-342.13 140.86,-348.13 142.7,-341.38"/>
</g>
<!-- Node10 -->
<g id="node10" class="node">
<title>Node10</title>
<g id="a_node10"><a xlink:href="AR_8h.html" target="_top" xlink:title=" ">
<polygon fill="white" stroke="black" points="226.5,-129 226.5,-148 275.5,-148 275.5,-129 226.5,-129"/>
<text text-anchor="middle" x="251" y="-136" font-family="Helvetica,sans-Serif" font-size="10.00">ar/AR.h</text>
</a>
</g>
</g>
<!-- Node9&#45;&gt;Node10 -->
<g id="edge15" class="edge">
<title>Node9&#45;&gt;Node10</title>
<path fill="none" stroke="midnightblue" d="M302.47,-380.22C300.02,-367.37 294.47,-342.93 285,-324 276.05,-306.11 264.77,-306.82 258,-288 242.11,-243.81 245.27,-187.43 248.43,-158.5"/>
<polygon fill="midnightblue" stroke="midnightblue" points="251.95,-158.56 249.68,-148.21 245,-157.72 251.95,-158.56"/>
</g>
<!-- Node11 -->
<g id="node11" class="node">
<title>Node11</title>
<g id="a_node11"><a xlink:href="ARQ_8h.html" target="_top" xlink:title=" ">
<polygon fill="white" stroke="black" points="144,-62 144,-81 200,-81 200,-62 144,-62"/>
<text text-anchor="middle" x="172" y="-69" font-family="Helvetica,sans-Serif" font-size="10.00">ar/ARQ.h</text>
</a>
</g>
</g>
<!-- Node9&#45;&gt;Node11 -->
<g id="edge17" class="edge">
<title>Node9&#45;&gt;Node11</title>
<path fill="none" stroke="midnightblue" d="M278.98,-385.97C252.02,-381.43 209.56,-370.35 184,-344 160.96,-320.24 160,-306.6 160,-273.5 160,-273.5 160,-273.5 160,-204.5 160,-163.99 165.67,-116.78 169.22,-91.23"/>
<polygon fill="midnightblue" stroke="midnightblue" points="172.71,-91.52 170.67,-81.12 165.78,-90.53 172.71,-91.52"/>
</g>
<!-- Node12 -->
<g id="node12" class="node">
<title>Node12</title>
<g id="a_node12"><a xlink:href="mwcc_8h.html" target="_top" xlink:title=" ">
<polygon fill="white" stroke="black" points="226,-324.5 226,-343.5 276,-343.5 276,-324.5 226,-324.5"/>
<text text-anchor="middle" x="251" y="-331.5" font-family="Helvetica,sans-Serif" font-size="10.00">mwcc.h</text>
</a>
</g>
</g>
<!-- Node9&#45;&gt;Node12 -->
<g id="edge19" class="edge">
<title>Node9&#45;&gt;Node12</title>
<path fill="none" stroke="midnightblue" d="M295.25,-380.08C287.53,-372.22 276.1,-360.57 266.78,-351.08"/>
<polygon fill="midnightblue" stroke="midnightblue" points="269.09,-348.44 259.59,-343.75 264.1,-353.34 269.09,-348.44"/>
</g>
<!-- Node13 -->
<g id="node13" class="node">
<title>Node13</title>
<g id="a_node13"><a xlink:href="variables_8h.html" target="_top" xlink:title=" ">
<polygon fill="white" stroke="black" points="432.5,-324.5 432.5,-343.5 495.5,-343.5 495.5,-324.5 432.5,-324.5"/>
<text text-anchor="middle" x="464" y="-331.5" font-family="Helvetica,sans-Serif" font-size="10.00">variables.h</text>
</a>
</g>
</g>
<!-- Node9&#45;&gt;Node13 -->
<g id="edge21" class="edge">
<title>Node9&#45;&gt;Node13</title>
<path fill="none" stroke="midnightblue" d="M329.35,-380.44C356.27,-371.36 399,-356.94 429.09,-346.78"/>
<polygon fill="midnightblue" stroke="midnightblue" points="430.41,-350.03 438.77,-343.52 428.17,-343.4 430.41,-350.03"/>
</g>
<!-- Node10&#45;&gt;Node5 -->
<g id="edge16" class="edge">
<title>Node10&#45;&gt;Node5</title>
<path fill="none" stroke="midnightblue" d="M253.34,-128.81C258.8,-108.49 272.49,-57.55 279.95,-29.78"/>
<polygon fill="midnightblue" stroke="midnightblue" points="283.43,-30.32 282.65,-19.76 276.67,-28.5 283.43,-30.32"/>
</g>
<!-- Node11&#45;&gt;Node5 -->
<g id="edge18" class="edge">
<title>Node11&#45;&gt;Node5</title>
<path fill="none" stroke="midnightblue" d="M188.19,-61.98C206.9,-52.12 237.92,-35.79 259.8,-24.27"/>
<polygon fill="midnightblue" stroke="midnightblue" points="261.62,-27.27 268.84,-19.51 258.36,-21.07 261.62,-27.27"/>
</g>
<!-- Node13&#45;&gt;Node4 -->
<g id="edge22" class="edge">
<title>Node13&#45;&gt;Node4</title>
<path fill="none" stroke="midnightblue" d="M465.34,-324.24C468.56,-301.8 475.95,-240.45 469,-190 464.42,-156.72 452.85,-119.6 444.71,-96.15"/>
<polygon fill="midnightblue" stroke="midnightblue" points="448,-94.95 441.36,-86.7 441.41,-97.3 448,-94.95"/>
</g>
<!-- Node14 -->
<g id="node14" class="node">
<title>Node14</title>
<g id="a_node14"><a xlink:href="JUTXfb_8h.html" target="_top" xlink:title=" ">
<polygon fill="white" stroke="black" points="554.5,-257.5 554.5,-287.5 679.5,-287.5 679.5,-257.5 554.5,-257.5"/>
<text text-anchor="start" x="562.5" y="-275.5" font-family="Helvetica,sans-Serif" font-size="10.00">JSystem/JUtility/JUTXfb</text>
<text text-anchor="middle" x="617" y="-264.5" font-family="Helvetica,sans-Serif" font-size="10.00">/JUTXfb.h</text>
</a>
</g>
</g>
<!-- Node13&#45;&gt;Node14 -->
<g id="edge23" class="edge">
<title>Node13&#45;&gt;Node14</title>
<path fill="none" stroke="midnightblue" d="M485.92,-324.48C508.1,-315.85 543.04,-302.26 571.27,-291.29"/>
<polygon fill="midnightblue" stroke="midnightblue" points="572.89,-294.41 580.94,-287.52 570.35,-287.89 572.89,-294.41"/>
</g>
<!-- Node17 -->
<g id="node17" class="node">
<title>Node17</title>
<g id="a_node17"><a xlink:href="c__xyz_8h.html" target="_top" xlink:title=" ">
<polygon fill="white" stroke="black" points="267.5,-263 267.5,-282 374.5,-282 374.5,-263 267.5,-263"/>
<text text-anchor="middle" x="321" y="-270" font-family="Helvetica,sans-Serif" font-size="10.00">SComponent/c_xyz.h</text>
</a>
</g>
</g>
<!-- Node13&#45;&gt;Node17 -->
<g id="edge31" class="edge">
<title>Node13&#45;&gt;Node17</title>
<path fill="none" stroke="midnightblue" d="M443.51,-324.48C419.19,-314.36 378.45,-297.4 350.68,-285.85"/>
<polygon fill="midnightblue" stroke="midnightblue" points="352.03,-282.62 341.45,-282.01 349.34,-289.08 352.03,-282.62"/>
</g>
<!-- Node14&#45;&gt;Node5 -->
<g id="edge28" class="edge">
<title>Node14&#45;&gt;Node5</title>
<path fill="none" stroke="midnightblue" d="M616.86,-257.4C616.13,-214.12 611.55,-84.36 583,-56 549.1,-22.32 411.86,-13.79 336.01,-11.67"/>
<polygon fill="midnightblue" stroke="midnightblue" points="335.82,-8.17 325.74,-11.41 335.64,-15.16 335.82,-8.17"/>
</g>
<!-- Node15 -->
<g id="node15" class="node">
<title>Node15</title>
<g id="a_node15"><a xlink:href="JKRHeap_8h.html" target="_top" xlink:title=" ">
<polygon fill="white" stroke="black" points="630,-190.5 630,-220.5 766,-220.5 766,-190.5 630,-190.5"/>
<text text-anchor="start" x="638" y="-208.5" font-family="Helvetica,sans-Serif" font-size="10.00">JSystem/JKernel/JKRHeap</text>
<text text-anchor="middle" x="698" y="-197.5" font-family="Helvetica,sans-Serif" font-size="10.00">/JKRHeap.h</text>
</a>
</g>
</g>
<!-- Node14&#45;&gt;Node15 -->
<g id="edge24" class="edge">
<title>Node14&#45;&gt;Node15</title>
<path fill="none" stroke="midnightblue" d="M634.58,-257.4C645.61,-248.54 660.04,-236.96 672.35,-227.09"/>
<polygon fill="midnightblue" stroke="midnightblue" points="674.85,-229.56 680.46,-220.58 670.47,-224.11 674.85,-229.56"/>
</g>
<!-- Node16 -->
<g id="node16" class="node">
<title>Node16</title>
<g id="a_node16"><a xlink:href="GX_8h.html" target="_top" xlink:title=" ">
<polygon fill="white" stroke="black" points="522.5,-62 522.5,-81 573.5,-81 573.5,-62 522.5,-62"/>
<text text-anchor="middle" x="548" y="-69" font-family="Helvetica,sans-Serif" font-size="10.00">gx/GX.h</text>
</a>
</g>
</g>
<!-- Node14&#45;&gt;Node16 -->
<g id="edge29" class="edge">
<title>Node14&#45;&gt;Node16</title>
<path fill="none" stroke="midnightblue" d="M607.59,-257.42C601.34,-247.56 593.33,-233.89 588,-221 569.43,-176.11 557.05,-120.02 551.44,-91.33"/>
<polygon fill="midnightblue" stroke="midnightblue" points="554.81,-90.3 549.51,-81.13 547.93,-91.6 554.81,-90.3"/>
</g>
<!-- Node15&#45;&gt;Node3 -->
<g id="edge25" class="edge">
<title>Node15&#45;&gt;Node3</title>
<path fill="none" stroke="midnightblue" d="M707.98,-190.4C713.89,-182.05 721.5,-171.29 728.21,-161.81"/>
<polygon fill="midnightblue" stroke="midnightblue" points="731.12,-163.76 734.04,-153.58 725.4,-159.72 731.12,-163.76"/>
</g>
<!-- Node15&#45;&gt;Node5 -->
<g id="edge26" class="edge">
<title>Node15&#45;&gt;Node5</title>
<path fill="none" stroke="midnightblue" d="M685.78,-190.08C677.84,-180.3 667.59,-166.85 660,-154 635.72,-112.89 654.24,-84.59 616,-56 572.74,-23.66 417.17,-14.56 335.65,-12"/>
<polygon fill="midnightblue" stroke="midnightblue" points="335.71,-8.5 325.61,-11.7 335.5,-15.5 335.71,-8.5"/>
</g>
<!-- Node15&#45;&gt;Node9 -->
<g id="edge27" class="edge">
<title>Node15&#45;&gt;Node9</title>
<path fill="none" stroke="midnightblue" d="M700.74,-220.67C703.32,-238.5 704.74,-269.06 689,-288 643.9,-342.27 425.72,-374.23 339.33,-384.94"/>
<polygon fill="midnightblue" stroke="midnightblue" points="338.73,-381.48 329.23,-386.17 339.58,-388.43 338.73,-381.48"/>
</g>
<!-- Node16&#45;&gt;Node5 -->
<g id="edge30" class="edge">
<title>Node16&#45;&gt;Node5</title>
<path fill="none" stroke="midnightblue" d="M529.36,-61.98C524.14,-59.81 518.41,-57.64 513,-56 453.22,-37.91 382.37,-25.25 335.7,-18.06"/>
<polygon fill="midnightblue" stroke="midnightblue" points="335.95,-14.56 325.54,-16.52 334.9,-21.48 335.95,-14.56"/>
</g>
<!-- Node17&#45;&gt;Node9 -->
<g id="edge34" class="edge">
<title>Node17&#45;&gt;Node9</title>
<path fill="none" stroke="midnightblue" d="M321.35,-282.26C321.72,-295.67 321.82,-322.03 318,-344 316.44,-352.97 313.59,-362.64 310.87,-370.71"/>
<polygon fill="midnightblue" stroke="midnightblue" points="307.55,-369.61 307.48,-380.2 314.14,-371.96 307.55,-369.61"/>
</g>
<!-- Node18 -->
<g id="node18" class="node">
<title>Node18</title>
<g id="a_node18"><a xlink:href="c__math_8h.html" target="_top" xlink:title=" ">
<polygon fill="white" stroke="black" points="344,-196 344,-215 460,-215 460,-196 344,-196"/>
<text text-anchor="middle" x="402" y="-203" font-family="Helvetica,sans-Serif" font-size="10.00">SComponent/c_math.h</text>
</a>
</g>
</g>
<!-- Node17&#45;&gt;Node18 -->
<g id="edge32" class="edge">
<title>Node17&#45;&gt;Node18</title>
<path fill="none" stroke="midnightblue" d="M331.92,-262.73C345.04,-252.21 367.26,-234.38 383.16,-221.62"/>
<polygon fill="midnightblue" stroke="midnightblue" points="385.64,-224.12 391.25,-215.13 381.26,-218.66 385.64,-224.12"/>
</g>
<!-- Node19 -->
<g id="node19" class="node">
<title>Node19</title>
<g id="a_node19"><a xlink:href="mtx__vec_8h.html" target="_top" xlink:title=" ">
<polygon fill="white" stroke="black" points="264.5,-196 264.5,-215 325.5,-215 325.5,-196 264.5,-196"/>
<text text-anchor="middle" x="295" y="-203" font-family="Helvetica,sans-Serif" font-size="10.00">mtx_vec.h</text>
</a>
</g>
</g>
<!-- Node17&#45;&gt;Node19 -->
<g id="edge35" class="edge">
<title>Node17&#45;&gt;Node19</title>
<path fill="none" stroke="midnightblue" d="M317.49,-262.73C313.6,-252.99 307.19,-236.98 302.21,-224.53"/>
<polygon fill="midnightblue" stroke="midnightblue" points="305.41,-223.11 298.45,-215.13 298.92,-225.71 305.41,-223.11"/>
</g>
<!-- Node18&#45;&gt;Node9 -->
<g id="edge33" class="edge">
<title>Node18&#45;&gt;Node9</title>
<path fill="none" stroke="midnightblue" d="M401.19,-215.48C399.51,-230.96 394.79,-263.36 383,-288 366.93,-321.58 338.14,-354.4 320.11,-373.11"/>
<polygon fill="midnightblue" stroke="midnightblue" points="317.4,-370.86 312.88,-380.45 322.39,-375.77 317.4,-370.86"/>
</g>
<!-- Node19&#45;&gt;Node5 -->
<g id="edge36" class="edge">
<title>Node19&#45;&gt;Node5</title>
<path fill="none" stroke="midnightblue" d="M294.56,-195.94C293.05,-166.79 288.1,-70.97 285.98,-29.93"/>
<polygon fill="midnightblue" stroke="midnightblue" points="289.47,-29.71 285.46,-19.91 282.48,-30.07 289.47,-29.71"/>
</g>
<!-- Node20&#45;&gt;Node9 -->
<g id="edge38" class="edge">
<title>Node20&#45;&gt;Node9</title>
<path fill="none" stroke="midnightblue" d="M349.78,-436.4C340.79,-427.49 329.16,-415.95 319.87,-406.74"/>
<polygon fill="midnightblue" stroke="midnightblue" points="322.3,-404.21 312.73,-399.66 317.37,-409.18 322.3,-404.21"/>
</g>
</g>
</svg>
        <g id="navigator" transform="translate(0 0)" fill="#404254">
                <rect fill="#f2f5e9" fill-opacity="0.5" stroke="#606060" stroke-width=".5" x="0" y="0" width="60" height="60"/>
                <use id="zoomplus" xlink:href="#zoomPlus" x="17" y="9" onmousedown="handleZoom(evt,'in')"/>
                <use id="zoomminus" xlink:href="#zoomMin" x="42" y="9" onmousedown="handleZoom(evt,'out')"/>
                <use id="reset" xlink:href="#resetDef" x="30" y="36" onmousedown="handleReset()"/>
                <g id="arrowUp" xlink:href="#dirArrow" transform="translate(30 24)" onmousedown="handlePan(0,-1)">
                  <use xlink:href="#rim" fill="#404040">
                        <set attributeName="fill" to="#808080" begin="arrowUp.mouseover" end="arrowUp.mouseout"/>
                  </use>
                  <path fill="none" stroke="white" stroke-width="1.5" d="M0,-3.0v7 M-2.5,-0.5L0,-3.0L2.5,-0.5"/>
                </g>
                <g id="arrowRight" xlink:href="#dirArrow" transform="rotate(90) translate(36 -43)" onmousedown="handlePan(1,0)">
                  <use xlink:href="#rim" fill="#404040">
                        <set attributeName="fill" to="#808080" begin="arrowRight.mouseover" end="arrowRight.mouseout"/>
                  </use>
                  <path fill="none" stroke="white" stroke-width="1.5" d="M0,-3.0v7 M-2.5,-0.5L0,-3.0L2.5,-0.5"/>
                </g>
                <g id="arrowDown" xlink:href="#dirArrow" transform="rotate(180) translate(-30 -48)" onmousedown="handlePan(0,1)">
                  <use xlink:href="#rim" fill="#404040">
                        <set attributeName="fill" to="#808080" begin="arrowDown.mouseover" end="arrowDown.mouseout"/>
                  </use>
                  <path fill="none" stroke="white" stroke-width="1.5" d="M0,-3.0v7 M-2.5,-0.5L0,-3.0L2.5,-0.5"/>
                </g>
                <g id="arrowLeft" xlink:href="#dirArrow" transform="rotate(270) translate(-36 17)" onmousedown="handlePan(-1,0)">
                  <use xlink:href="#rim" fill="#404040">
                        <set attributeName="fill" to="#808080" begin="arrowLeft.mouseover" end="arrowLeft.mouseout"/>
                  </use>
                  <path fill="none" stroke="white" stroke-width="1.5" d="M0,-3.0v7 M-2.5,-0.5L0,-3.0L2.5,-0.5"/>
                </g>
        </g>
        <svg viewBox="0 0 15 15" width="100%" height="30px" preserveAspectRatio="xMaxYMin meet">
         <g id="arrow_out" transform="scale(0.3 0.3)">
          <a xlink:href="m__Do__controller__pad_8h__incl_org.svg" target="_base">
           <rect id="button" ry="5" rx="5" y="6" x="6" height="38" width="38"
                fill="#f2f5e9" fill-opacity="0.5" stroke="#606060" stroke-width="1.0"/>
           <path id="arrow"
             d="M 11.500037,31.436501 C 11.940474,20.09759 22.043105,11.32322 32.158766,21.979434 L 37.068811,17.246167 C 37.068811,17.246167 37.088388,32 37.088388,32 L 22.160133,31.978069 C 22.160133,31.978069 26.997745,27.140456 26.997745,27.140456 C 18.528582,18.264221 13.291696,25.230495 11.500037,31.436501 z"
             style="fill:#404040;"/>
          </a>
         </g>
        </svg>
</svg>
