<?xml version="1.0" encoding="UTF-8" standalone="no"?>
<!DOCTYPE svg PUBLIC "-//W3C//DTD SVG 1.1//EN"
 "http://www.w3.org/Graphics/SVG/1.1/DTD/svg11.dtd">
<!-- Generated by graphviz version 2.46.0 (20210122.1329)
 -->
<!-- Title: include/m_Do/m_Do_dvd_thread/m_Do_dvd_thread.h Pages: 1 -->
<svg width="4797pt" height="307pt"
 viewBox="0.00 0.00 4797.00 307.00" xmlns="http://www.w3.org/2000/svg" xmlns:xlink="http://www.w3.org/1999/xlink">
<g id="graph0" class="graph" transform="scale(1 1) rotate(0) translate(4 303)">
<title>include/m_Do/m_Do_dvd_thread/m_Do_dvd_thread.h</title>
<polygon fill="white" stroke="transparent" points="-4,4 -4,-303 4793,-303 4793,4 -4,4"/>
<!-- Node1 -->
<g id="node1" class="node">
<title>Node1</title>
<g id="a_node1"><a xlink:title=" ">
<polygon fill="#bfbfbf" stroke="black" points="1139.5,-268.5 1139.5,-298.5 1277.5,-298.5 1277.5,-268.5 1139.5,-268.5"/>
<text text-anchor="start" x="1147.5" y="-286.5" font-family="Helvetica,sans-Serif" font-size="10.00">include/m_Do/m_Do_dvd</text>
<text text-anchor="middle" x="1208.5" y="-275.5" font-family="Helvetica,sans-Serif" font-size="10.00">_thread/m_Do_dvd_thread.h</text>
</a>
</g>
</g>
<!-- Node2 -->
<g id="node2" class="node">
<title>Node2</title>
<g id="a_node2"><a xlink:href="m__Do__main_8cpp.html" target="_top" xlink:title=" ">
<polygon fill="white" stroke="black" points="0,-73 0,-92 131,-92 131,-73 0,-73"/>
<text text-anchor="middle" x="65.5" y="-80" font-family="Helvetica,sans-Serif" font-size="10.00">src/m_Do/m_Do_main.cpp</text>
</a>
</g>
</g>
<!-- Node1&#45;&gt;Node2 -->
<g id="edge1" class="edge">
<title>Node1&#45;&gt;Node2</title>
<path fill="none" stroke="midnightblue" d="M1129.27,-268.71C908.87,-230.33 293.06,-123.12 114.57,-92.04"/>
<polygon fill="midnightblue" stroke="midnightblue" points="1128.7,-272.16 1139.15,-270.43 1129.9,-265.26 1128.7,-272.16"/>
</g>
<!-- Node3 -->
<g id="node3" class="node">
<title>Node3</title>
<g id="a_node3"><a xlink:href="d__resource_8h.html" target="_top" xlink:title=" ">
<polygon fill="white" stroke="black" points="2299,-201.5 2299,-231.5 2406,-231.5 2406,-201.5 2299,-201.5"/>
<text text-anchor="start" x="2307" y="-219.5" font-family="Helvetica,sans-Serif" font-size="10.00">include/d/d_resource</text>
<text text-anchor="middle" x="2352.5" y="-208.5" font-family="Helvetica,sans-Serif" font-size="10.00">/d_resource.h</text>
</a>
</g>
</g>
<!-- Node1&#45;&gt;Node3 -->
<g id="edge2" class="edge">
<title>Node1&#45;&gt;Node3</title>
<path fill="none" stroke="midnightblue" d="M1288.04,-277.98C1507.05,-265.54 2114.8,-231.01 2298.94,-220.54"/>
<polygon fill="midnightblue" stroke="midnightblue" points="1287.7,-274.49 1277.91,-278.56 1288.1,-281.48 1287.7,-274.49"/>
</g>
<!-- Node4 -->
<g id="node4" class="node">
<title>Node4</title>
<g id="a_node4"><a xlink:href="d__a__alink_8h.html" target="_top" xlink:title=" ">
<polygon fill="white" stroke="black" points="4632,-67.5 4632,-97.5 4751,-97.5 4751,-67.5 4632,-67.5"/>
<text text-anchor="start" x="4640" y="-85.5" font-family="Helvetica,sans-Serif" font-size="10.00">include/d/d_a/d_a_alink</text>
<text text-anchor="middle" x="4691.5" y="-74.5" font-family="Helvetica,sans-Serif" font-size="10.00">/d_a_alink.h</text>
</a>
</g>
</g>
<!-- Node3&#45;&gt;Node4 -->
<g id="edge3" class="edge">
<title>Node3&#45;&gt;Node4</title>
<path fill="none" stroke="midnightblue" d="M2416.38,-215.89C2685.72,-216.74 3754.9,-212.35 4623.5,-98 4626.25,-97.64 4629.06,-97.22 4631.89,-96.77"/>
<polygon fill="midnightblue" stroke="midnightblue" points="2416.03,-212.39 2406.01,-215.85 2416,-219.39 2416.03,-212.39"/>
</g>
<!-- Node7 -->
<g id="node7" class="node">
<title>Node7</title>
<g id="a_node7"><a xlink:href="d__com__inf__game_8h.html" target="_top" xlink:title=" ">
<polygon fill="white" stroke="black" points="2279.5,-134.5 2279.5,-164.5 2425.5,-164.5 2425.5,-134.5 2279.5,-134.5"/>
<text text-anchor="start" x="2287.5" y="-152.5" font-family="Helvetica,sans-Serif" font-size="10.00">include/d/d_com/d_com</text>
<text text-anchor="middle" x="2352.5" y="-141.5" font-family="Helvetica,sans-Serif" font-size="10.00">_inf_game/d_com_inf_game.h</text>
</a>
</g>
</g>
<!-- Node3&#45;&gt;Node7 -->
<g id="edge6" class="edge">
<title>Node3&#45;&gt;Node7</title>
<path fill="none" stroke="midnightblue" d="M2352.5,-191.11C2352.5,-182.15 2352.5,-172.32 2352.5,-164.58"/>
<polygon fill="midnightblue" stroke="midnightblue" points="2349,-191.4 2352.5,-201.4 2356,-191.4 2349,-191.4"/>
</g>
<!-- Node5 -->
<g id="node5" class="node">
<title>Node5</title>
<g id="a_node5"><a xlink:href="d__attention_8cpp.html" target="_top" xlink:title=" ">
<polygon fill="white" stroke="black" points="4682,-6 4682,-25 4789,-25 4789,-6 4682,-6"/>
<text text-anchor="middle" x="4735.5" y="-13" font-family="Helvetica,sans-Serif" font-size="10.00">src/d/d_attention.cpp</text>
</a>
</g>
</g>
<!-- Node4&#45;&gt;Node5 -->
<g id="edge4" class="edge">
<title>Node4&#45;&gt;Node5</title>
<path fill="none" stroke="midnightblue" d="M4706.75,-58.97C4714.63,-47.33 4723.79,-33.8 4729.61,-25.19"/>
<polygon fill="midnightblue" stroke="midnightblue" points="4703.75,-57.15 4701.05,-67.4 4709.55,-61.08 4703.75,-57.15"/>
</g>
<!-- Node6 -->
<g id="node6" class="node">
<title>Node6</title>
<g id="a_node6"><a xlink:href="d__a__alink_8cpp.html" target="_top" xlink:title=" ">
<polygon fill="white" stroke="black" points="4472,-6 4472,-25 4591,-25 4591,-6 4472,-6"/>
<text text-anchor="middle" x="4531.5" y="-13" font-family="Helvetica,sans-Serif" font-size="10.00">src/d/d_a/d_a_alink.cpp</text>
</a>
</g>
</g>
<!-- Node4&#45;&gt;Node6 -->
<g id="edge5" class="edge">
<title>Node4&#45;&gt;Node6</title>
<path fill="none" stroke="midnightblue" d="M4647.49,-63.62C4616.52,-51.04 4576.46,-34.77 4552.44,-25.01"/>
<polygon fill="midnightblue" stroke="midnightblue" points="4646.2,-66.87 4656.78,-67.4 4648.84,-60.39 4646.2,-66.87"/>
</g>
<!-- Node7&#45;&gt;Node2 -->
<g id="edge33" class="edge">
<title>Node7&#45;&gt;Node2</title>
<path fill="none" stroke="midnightblue" d="M2269.07,-147.36C1892.37,-142.13 359.29,-119.69 145.5,-98 132.44,-96.68 118.31,-94.4 105.61,-92.04"/>
<polygon fill="midnightblue" stroke="midnightblue" points="2269.3,-150.87 2279.34,-147.51 2269.39,-143.87 2269.3,-150.87"/>
</g>
<!-- Node7&#45;&gt;Node4 -->
<g id="edge41" class="edge">
<title>Node7&#45;&gt;Node4</title>
<path fill="none" stroke="midnightblue" d="M2435.85,-147.58C2819.18,-143.2 4403.39,-123.68 4623.5,-98 4626.26,-97.68 4629.07,-97.3 4631.9,-96.87"/>
<polygon fill="midnightblue" stroke="midnightblue" points="2435.63,-144.08 2425.67,-147.69 2435.71,-151.08 2435.63,-144.08"/>
</g>
<!-- Node7&#45;&gt;Node5 -->
<g id="edge7" class="edge">
<title>Node7&#45;&gt;Node5</title>
<path fill="none" stroke="midnightblue" d="M2436.05,-148.34C2856.13,-147.32 4718.98,-140.4 4760.5,-98 4780.38,-77.7 4756.38,-42 4743.13,-25.43"/>
<polygon fill="midnightblue" stroke="midnightblue" points="2435.8,-144.84 2425.81,-148.36 2435.82,-151.84 2435.8,-144.84"/>
</g>
<!-- Node8 -->
<g id="node8" class="node">
<title>Node8</title>
<g id="a_node8"><a xlink:href="d__camera_8cpp.html" target="_top" xlink:title=" ">
<polygon fill="white" stroke="black" points="4290.5,-73 4290.5,-92 4392.5,-92 4392.5,-73 4290.5,-73"/>
<text text-anchor="middle" x="4341.5" y="-80" font-family="Helvetica,sans-Serif" font-size="10.00">src/d/d_camera.cpp</text>
</a>
</g>
</g>
<!-- Node7&#45;&gt;Node8 -->
<g id="edge8" class="edge">
<title>Node7&#45;&gt;Node8</title>
<path fill="none" stroke="midnightblue" d="M2435.82,-147.26C2781.4,-142 4092.5,-120.72 4276.5,-98 4287.17,-96.68 4298.67,-94.41 4308.98,-92.05"/>
<polygon fill="midnightblue" stroke="midnightblue" points="2435.58,-143.77 2425.64,-147.42 2435.69,-150.77 2435.58,-143.77"/>
</g>
<!-- Node9 -->
<g id="node9" class="node">
<title>Node9</title>
<g id="a_node9"><a xlink:href="d__com__inf__game_8cpp.html" target="_top" xlink:title=" ">
<polygon fill="white" stroke="black" points="138,-0.5 138,-30.5 257,-30.5 257,-0.5 138,-0.5"/>
<text text-anchor="start" x="146" y="-18.5" font-family="Helvetica,sans-Serif" font-size="10.00">src/d/d_com/d_com_inf</text>
<text text-anchor="middle" x="197.5" y="-7.5" font-family="Helvetica,sans-Serif" font-size="10.00">_game.cpp</text>
</a>
</g>
</g>
<!-- Node7&#45;&gt;Node9 -->
<g id="edge9" class="edge">
<title>Node7&#45;&gt;Node9</title>
<path fill="none" stroke="midnightblue" d="M2269.05,-147.34C1872.53,-141.76 197.11,-117.04 178.5,-98 160.83,-79.92 175.96,-48.77 187.46,-30.66"/>
<polygon fill="midnightblue" stroke="midnightblue" points="2269.25,-150.85 2279.3,-147.49 2269.35,-143.85 2269.25,-150.85"/>
</g>
<!-- Node10 -->
<g id="node10" class="node">
<title>Node10</title>
<g id="a_node10"><a xlink:href="d__file__sel__info_8cpp.html" target="_top" xlink:title=" ">
<polygon fill="white" stroke="black" points="4525,-67.5 4525,-97.5 4614,-97.5 4614,-67.5 4525,-67.5"/>
<text text-anchor="start" x="4533" y="-85.5" font-family="Helvetica,sans-Serif" font-size="10.00">src/d/d_file/d_file</text>
<text text-anchor="middle" x="4569.5" y="-74.5" font-family="Helvetica,sans-Serif" font-size="10.00">_sel_info.cpp</text>
</a>
</g>
</g>
<!-- Node7&#45;&gt;Node10 -->
<g id="edge10" class="edge">
<title>Node7&#45;&gt;Node10</title>
<path fill="none" stroke="midnightblue" d="M2435.9,-147.76C2808.1,-144.27 4308.3,-128.44 4516.5,-98 4519.24,-97.6 4522.03,-97.1 4524.84,-96.54"/>
<polygon fill="midnightblue" stroke="midnightblue" points="2435.71,-144.26 2425.74,-147.85 2435.77,-151.26 2435.71,-144.26"/>
</g>
<!-- Node11 -->
<g id="node11" class="node">
<title>Node11</title>
<g id="a_node11"><a xlink:href="d__item_8cpp.html" target="_top" xlink:title=" ">
<polygon fill="white" stroke="black" points="2224,-6 2224,-25 2345,-25 2345,-6 2224,-6"/>
<text text-anchor="middle" x="2284.5" y="-13" font-family="Helvetica,sans-Serif" font-size="10.00">src/d/d_item/d_item.cpp</text>
</a>
</g>
</g>
<!-- Node7&#45;&gt;Node11 -->
<g id="edge11" class="edge">
<title>Node7&#45;&gt;Node11</title>
<path fill="none" stroke="midnightblue" d="M2436.02,-147.8C2793.05,-144.59 4174.24,-130.13 4205.5,-98 4215.11,-88.13 4215.11,-76.87 4205.5,-67 4172.26,-32.87 2667.91,-19.43 2345.09,-16.94"/>
<polygon fill="midnightblue" stroke="midnightblue" points="2435.73,-144.3 2425.76,-147.89 2435.79,-151.3 2435.73,-144.3"/>
</g>
<!-- Node12 -->
<g id="node12" class="node">
<title>Node12</title>
<g id="a_node12"><a xlink:href="d__kankyo__rain_8cpp.html" target="_top" xlink:title=" ">
<polygon fill="white" stroke="black" points="302,-67.5 302,-97.5 429,-97.5 429,-67.5 302,-67.5"/>
<text text-anchor="start" x="310" y="-85.5" font-family="Helvetica,sans-Serif" font-size="10.00">src/d/d_kankyo/d_kankyo</text>
<text text-anchor="middle" x="365.5" y="-74.5" font-family="Helvetica,sans-Serif" font-size="10.00">_rain.cpp</text>
</a>
</g>
</g>
<!-- Node7&#45;&gt;Node12 -->
<g id="edge12" class="edge">
<title>Node7&#45;&gt;Node12</title>
<path fill="none" stroke="midnightblue" d="M2269.17,-148.21C1949.34,-146.82 800.29,-139 437.5,-98 434.71,-97.68 431.87,-97.32 429.01,-96.91"/>
<polygon fill="midnightblue" stroke="midnightblue" points="2269.27,-151.71 2279.29,-148.26 2269.3,-144.71 2269.27,-151.71"/>
</g>
<!-- Node13 -->
<g id="node13" class="node">
<title>Node13</title>
<g id="a_node13"><a xlink:href="d__kankyo__wether_8cpp.html" target="_top" xlink:title=" ">
<polygon fill="white" stroke="black" points="447,-67.5 447,-97.5 574,-97.5 574,-67.5 447,-67.5"/>
<text text-anchor="start" x="455" y="-85.5" font-family="Helvetica,sans-Serif" font-size="10.00">src/d/d_kankyo/d_kankyo</text>
<text text-anchor="middle" x="510.5" y="-74.5" font-family="Helvetica,sans-Serif" font-size="10.00">_wether.cpp</text>
</a>
</g>
</g>
<!-- Node7&#45;&gt;Node13 -->
<g id="edge13" class="edge">
<title>Node7&#45;&gt;Node13</title>
<path fill="none" stroke="midnightblue" d="M2269.18,-148C1965.1,-145.9 915.46,-136 582.5,-98 579.71,-97.68 576.87,-97.31 574.01,-96.9"/>
<polygon fill="midnightblue" stroke="midnightblue" points="2269.23,-151.5 2279.26,-148.07 2269.28,-144.5 2269.23,-151.5"/>
</g>
<!-- Node14 -->
<g id="node14" class="node">
<title>Node14</title>
<g id="a_node14"><a xlink:href="d__kankyo_8cpp.html" target="_top" xlink:title=" ">
<polygon fill="white" stroke="black" points="592,-73 592,-92 693,-92 693,-73 592,-73"/>
<text text-anchor="middle" x="642.5" y="-80" font-family="Helvetica,sans-Serif" font-size="10.00">src/d/d_kankyo.cpp</text>
</a>
</g>
</g>
<!-- Node7&#45;&gt;Node14 -->
<g id="edge14" class="edge">
<title>Node7&#45;&gt;Node14</title>
<path fill="none" stroke="midnightblue" d="M2269.41,-148.27C1978.85,-147.1 1009.32,-140.06 701.5,-98 691.78,-96.67 681.34,-94.4 671.98,-92.03"/>
<polygon fill="midnightblue" stroke="midnightblue" points="2269.44,-151.77 2279.45,-148.31 2269.47,-144.77 2269.44,-151.77"/>
</g>
<!-- Node15 -->
<g id="node15" class="node">
<title>Node15</title>
<g id="a_node15"><a xlink:href="d__kantera__icon__meter_8cpp.html" target="_top" xlink:title=" ">
<polygon fill="white" stroke="black" points="711,-67.5 711,-97.5 818,-97.5 818,-67.5 711,-67.5"/>
<text text-anchor="start" x="719" y="-85.5" font-family="Helvetica,sans-Serif" font-size="10.00">src/d/d_kantera_icon</text>
<text text-anchor="middle" x="764.5" y="-74.5" font-family="Helvetica,sans-Serif" font-size="10.00">_meter.cpp</text>
</a>
</g>
</g>
<!-- Node7&#45;&gt;Node15 -->
<g id="edge15" class="edge">
<title>Node7&#45;&gt;Node15</title>
<path fill="none" stroke="midnightblue" d="M2268.82,-147.9C1992.2,-145.57 1108.82,-135.31 826.5,-98 823.76,-97.64 820.96,-97.21 818.15,-96.73"/>
<polygon fill="midnightblue" stroke="midnightblue" points="2269.16,-151.4 2279.19,-147.98 2269.22,-144.4 2269.16,-151.4"/>
</g>
<!-- Node16 -->
<g id="node16" class="node">
<title>Node16</title>
<g id="a_node16"><a xlink:href="d__kyeff_8cpp.html" target="_top" xlink:title=" ">
<polygon fill="white" stroke="black" points="836,-73 836,-92 949,-92 949,-73 836,-73"/>
<text text-anchor="middle" x="892.5" y="-80" font-family="Helvetica,sans-Serif" font-size="10.00">src/d/d_ky/d_kyeff.cpp</text>
</a>
</g>
</g>
<!-- Node7&#45;&gt;Node16 -->
<g id="edge16" class="edge">
<title>Node7&#45;&gt;Node16</title>
<path fill="none" stroke="midnightblue" d="M2268.97,-147.48C2008.52,-144 1213.38,-130.89 957.5,-98 946.95,-96.64 935.59,-94.39 925.36,-92.06"/>
<polygon fill="midnightblue" stroke="midnightblue" points="2269.07,-150.99 2279.12,-147.62 2269.17,-143.99 2269.07,-150.99"/>
</g>
<!-- Node17 -->
<g id="node17" class="node">
<title>Node17</title>
<g id="a_node17"><a xlink:href="d__meter__button_8cpp.html" target="_top" xlink:title=" ">
<polygon fill="white" stroke="black" points="967,-67.5 967,-97.5 1082,-97.5 1082,-67.5 967,-67.5"/>
<text text-anchor="start" x="975" y="-85.5" font-family="Helvetica,sans-Serif" font-size="10.00">src/d/d_meter/d_meter</text>
<text text-anchor="middle" x="1024.5" y="-74.5" font-family="Helvetica,sans-Serif" font-size="10.00">_button.cpp</text>
</a>
</g>
</g>
<!-- Node7&#45;&gt;Node17 -->
<g id="edge17" class="edge">
<title>Node7&#45;&gt;Node17</title>
<path fill="none" stroke="midnightblue" d="M2269.11,-147.08C2025.8,-142.64 1319.5,-127.5 1090.5,-98 1087.82,-97.66 1085.1,-97.26 1082.35,-96.81"/>
<polygon fill="midnightblue" stroke="midnightblue" points="2269.25,-150.59 2279.31,-147.27 2269.37,-143.59 2269.25,-150.59"/>
</g>
<!-- Node18 -->
<g id="node18" class="node">
<title>Node18</title>
<g id="a_node18"><a xlink:href="d__meter__haihai_8cpp.html" target="_top" xlink:title=" ">
<polygon fill="white" stroke="black" points="1100,-67.5 1100,-97.5 1215,-97.5 1215,-67.5 1100,-67.5"/>
<text text-anchor="start" x="1108" y="-85.5" font-family="Helvetica,sans-Serif" font-size="10.00">src/d/d_meter/d_meter</text>
<text text-anchor="middle" x="1157.5" y="-74.5" font-family="Helvetica,sans-Serif" font-size="10.00">_haihai.cpp</text>
</a>
</g>
</g>
<!-- Node7&#45;&gt;Node18 -->
<g id="edge18" class="edge">
<title>Node7&#45;&gt;Node18</title>
<path fill="none" stroke="midnightblue" d="M2269.02,-146.62C2043.53,-141.26 1425.63,-124.52 1223.5,-98 1220.82,-97.65 1218.1,-97.24 1215.35,-96.8"/>
<polygon fill="midnightblue" stroke="midnightblue" points="2269.05,-150.13 2279.13,-146.86 2269.22,-143.13 2269.05,-150.13"/>
</g>
<!-- Node19 -->
<g id="node19" class="node">
<title>Node19</title>
<g id="a_node19"><a xlink:href="d__meter__hakusha_8cpp.html" target="_top" xlink:title=" ">
<polygon fill="white" stroke="black" points="1233,-67.5 1233,-97.5 1348,-97.5 1348,-67.5 1233,-67.5"/>
<text text-anchor="start" x="1241" y="-85.5" font-family="Helvetica,sans-Serif" font-size="10.00">src/d/d_meter/d_meter</text>
<text text-anchor="middle" x="1290.5" y="-74.5" font-family="Helvetica,sans-Serif" font-size="10.00">_hakusha.cpp</text>
</a>
</g>
</g>
<!-- Node7&#45;&gt;Node19 -->
<g id="edge19" class="edge">
<title>Node7&#45;&gt;Node19</title>
<path fill="none" stroke="midnightblue" d="M2269.1,-148.92C2097.47,-148.76 1692.62,-143.13 1356.5,-98 1353.83,-97.64 1351.1,-97.23 1348.35,-96.78"/>
<polygon fill="midnightblue" stroke="midnightblue" points="2269.33,-152.42 2279.33,-148.92 2269.33,-145.42 2269.33,-152.42"/>
</g>
<!-- Node20 -->
<g id="node20" class="node">
<title>Node20</title>
<g id="a_node20"><a xlink:href="d__meter__map_8cpp.html" target="_top" xlink:title=" ">
<polygon fill="white" stroke="black" points="1366,-67.5 1366,-97.5 1481,-97.5 1481,-67.5 1366,-67.5"/>
<text text-anchor="start" x="1374" y="-85.5" font-family="Helvetica,sans-Serif" font-size="10.00">src/d/d_meter/d_meter</text>
<text text-anchor="middle" x="1423.5" y="-74.5" font-family="Helvetica,sans-Serif" font-size="10.00">_map.cpp</text>
</a>
</g>
</g>
<!-- Node7&#45;&gt;Node20 -->
<g id="edge20" class="edge">
<title>Node7&#45;&gt;Node20</title>
<path fill="none" stroke="midnightblue" d="M2269.03,-147.98C2114.48,-146.05 1773.62,-137.27 1489.5,-98 1486.83,-97.63 1484.1,-97.21 1481.36,-96.75"/>
<polygon fill="midnightblue" stroke="midnightblue" points="2269.34,-151.48 2279.38,-148.1 2269.42,-144.49 2269.34,-151.48"/>
</g>
<!-- Node21 -->
<g id="node21" class="node">
<title>Node21</title>
<g id="a_node21"><a xlink:href="d__meter__string_8cpp.html" target="_top" xlink:title=" ">
<polygon fill="white" stroke="black" points="1499,-67.5 1499,-97.5 1614,-97.5 1614,-67.5 1499,-67.5"/>
<text text-anchor="start" x="1507" y="-85.5" font-family="Helvetica,sans-Serif" font-size="10.00">src/d/d_meter/d_meter</text>
<text text-anchor="middle" x="1556.5" y="-74.5" font-family="Helvetica,sans-Serif" font-size="10.00">_string.cpp</text>
</a>
</g>
</g>
<!-- Node7&#45;&gt;Node21 -->
<g id="edge21" class="edge">
<title>Node7&#45;&gt;Node21</title>
<path fill="none" stroke="midnightblue" d="M2268.99,-146.72C2132.93,-142.91 1855.2,-131.43 1622.5,-98 1619.71,-97.6 1616.87,-97.15 1614,-96.66"/>
<polygon fill="midnightblue" stroke="midnightblue" points="2269.24,-150.22 2279.34,-147 2269.44,-143.23 2269.24,-150.22"/>
</g>
<!-- Node22 -->
<g id="node22" class="node">
<title>Node22</title>
<g id="a_node22"><a xlink:href="d__meter2__draw_8cpp.html" target="_top" xlink:title=" ">
<polygon fill="white" stroke="black" points="1632,-67.5 1632,-97.5 1757,-97.5 1757,-67.5 1632,-67.5"/>
<text text-anchor="start" x="1640" y="-85.5" font-family="Helvetica,sans-Serif" font-size="10.00">src/d/d_meter2/d_meter2</text>
<text text-anchor="middle" x="1694.5" y="-74.5" font-family="Helvetica,sans-Serif" font-size="10.00">_draw.cpp</text>
</a>
</g>
</g>
<!-- Node7&#45;&gt;Node22 -->
<g id="edge22" class="edge">
<title>Node7&#45;&gt;Node22</title>
<path fill="none" stroke="midnightblue" d="M2269.38,-144.38C2155.32,-138.04 1944.1,-123.83 1765.5,-98 1762.76,-97.6 1759.97,-97.17 1757.15,-96.7"/>
<polygon fill="midnightblue" stroke="midnightblue" points="2269.26,-147.88 2279.44,-144.94 2269.64,-140.89 2269.26,-147.88"/>
</g>
<!-- Node23 -->
<g id="node23" class="node">
<title>Node23</title>
<g id="a_node23"><a xlink:href="d__meter2__info_8cpp.html" target="_top" xlink:title=" ">
<polygon fill="white" stroke="black" points="1775,-67.5 1775,-97.5 1900,-97.5 1900,-67.5 1775,-67.5"/>
<text text-anchor="start" x="1783" y="-85.5" font-family="Helvetica,sans-Serif" font-size="10.00">src/d/d_meter2/d_meter2</text>
<text text-anchor="middle" x="1837.5" y="-74.5" font-family="Helvetica,sans-Serif" font-size="10.00">_info.cpp</text>
</a>
</g>
</g>
<!-- Node7&#45;&gt;Node23 -->
<g id="edge23" class="edge">
<title>Node7&#45;&gt;Node23</title>
<path fill="none" stroke="midnightblue" d="M2269.28,-141.15C2180.03,-132.77 2034.3,-117.64 1909.5,-98 1906.48,-97.52 1903.39,-97.01 1900.27,-96.47"/>
<polygon fill="midnightblue" stroke="midnightblue" points="2269.06,-144.64 2279.34,-142.09 2269.71,-137.67 2269.06,-144.64"/>
</g>
<!-- Node24 -->
<g id="node24" class="node">
<title>Node24</title>
<g id="a_node24"><a xlink:href="d__meter2_8cpp.html" target="_top" xlink:title=" ">
<polygon fill="white" stroke="black" points="1918.5,-73 1918.5,-92 2018.5,-92 2018.5,-73 1918.5,-73"/>
<text text-anchor="middle" x="1968.5" y="-80" font-family="Helvetica,sans-Serif" font-size="10.00">src/d/d_meter2.cpp</text>
</a>
</g>
</g>
<!-- Node7&#45;&gt;Node24 -->
<g id="edge24" class="edge">
<title>Node7&#45;&gt;Node24</title>
<path fill="none" stroke="midnightblue" d="M2269.34,-137.61C2203.46,-128.49 2109.25,-114.36 2027.5,-98 2018.92,-96.28 2009.7,-94.15 2001.15,-92.06"/>
<polygon fill="midnightblue" stroke="midnightblue" points="2268.87,-141.07 2279.25,-138.97 2269.82,-134.14 2268.87,-141.07"/>
</g>
<!-- Node25 -->
<g id="node25" class="node">
<title>Node25</title>
<g id="a_node25"><a xlink:href="d__save_8cpp.html" target="_top" xlink:title=" ">
<polygon fill="white" stroke="black" points="2037,-73 2037,-92 2162,-92 2162,-73 2037,-73"/>
<text text-anchor="middle" x="2099.5" y="-80" font-family="Helvetica,sans-Serif" font-size="10.00">src/d/d_save/d_save.cpp</text>
</a>
</g>
</g>
<!-- Node7&#45;&gt;Node25 -->
<g id="edge25" class="edge">
<title>Node7&#45;&gt;Node25</title>
<path fill="none" stroke="midnightblue" d="M2287.93,-131.91C2238.38,-119.18 2172,-102.13 2132.7,-92.03"/>
<polygon fill="midnightblue" stroke="midnightblue" points="2287.36,-135.38 2297.91,-134.48 2289.1,-128.6 2287.36,-135.38"/>
</g>
<!-- Node26 -->
<g id="node26" class="node">
<title>Node26</title>
<g id="a_node26"><a xlink:href="d__save__HIO_8cpp.html" target="_top" xlink:title=" ">
<polygon fill="white" stroke="black" points="2180,-67.5 2180,-97.5 2287,-97.5 2287,-67.5 2180,-67.5"/>
<text text-anchor="start" x="2188" y="-85.5" font-family="Helvetica,sans-Serif" font-size="10.00">src/d/d_save/d_save</text>
<text text-anchor="middle" x="2233.5" y="-74.5" font-family="Helvetica,sans-Serif" font-size="10.00">_HIO.cpp</text>
</a>
</g>
</g>
<!-- Node7&#45;&gt;Node26 -->
<g id="edge26" class="edge">
<title>Node7&#45;&gt;Node26</title>
<path fill="none" stroke="midnightblue" d="M2317.85,-129.57C2299.13,-119.35 2276.41,-106.94 2259.27,-97.58"/>
<polygon fill="midnightblue" stroke="midnightblue" points="2316.22,-132.67 2326.68,-134.4 2319.58,-126.53 2316.22,-132.67"/>
</g>
<!-- Node27 -->
<g id="node27" class="node">
<title>Node27</title>
<g id="a_node27"><a xlink:href="d__stage_8cpp.html" target="_top" xlink:title=" ">
<polygon fill="white" stroke="black" points="2305.5,-73 2305.5,-92 2399.5,-92 2399.5,-73 2305.5,-73"/>
<text text-anchor="middle" x="2352.5" y="-80" font-family="Helvetica,sans-Serif" font-size="10.00">src/d/d_stage.cpp</text>
</a>
</g>
</g>
<!-- Node7&#45;&gt;Node27 -->
<g id="edge27" class="edge">
<title>Node7&#45;&gt;Node27</title>
<path fill="none" stroke="midnightblue" d="M2352.5,-124.25C2352.5,-113.02 2352.5,-100.38 2352.5,-92.19"/>
<polygon fill="midnightblue" stroke="midnightblue" points="2349,-124.4 2352.5,-134.4 2356,-124.4 2349,-124.4"/>
</g>
<!-- Node28 -->
<g id="node28" class="node">
<title>Node28</title>
<g id="a_node28"><a xlink:href="f__pc__manager_8cpp.html" target="_top" xlink:title=" ">
<polygon fill="white" stroke="black" points="4252.5,-6 4252.5,-25 4392.5,-25 4392.5,-6 4252.5,-6"/>
<text text-anchor="middle" x="4322.5" y="-13" font-family="Helvetica,sans-Serif" font-size="10.00">src/f/f_pc/f_pc_manager.cpp</text>
</a>
</g>
</g>
<!-- Node7&#45;&gt;Node28 -->
<g id="edge28" class="edge">
<title>Node7&#45;&gt;Node28</title>
<path fill="none" stroke="midnightblue" d="M2435.87,-147.75C2787.81,-144.37 4137.82,-129.43 4222.5,-98 4263.86,-82.65 4300.78,-42.66 4315.6,-25.04"/>
<polygon fill="midnightblue" stroke="midnightblue" points="2435.71,-144.25 2425.75,-147.84 2435.78,-151.25 2435.71,-144.25"/>
</g>
<!-- Node29 -->
<g id="node29" class="node">
<title>Node29</title>
<g id="a_node29"><a xlink:href="m__Do__audio_8cpp.html" target="_top" xlink:title=" ">
<polygon fill="white" stroke="black" points="2417.5,-73 2417.5,-92 2551.5,-92 2551.5,-73 2417.5,-73"/>
<text text-anchor="middle" x="2484.5" y="-80" font-family="Helvetica,sans-Serif" font-size="10.00">src/m_Do/m_Do_audio.cpp</text>
</a>
</g>
</g>
<!-- Node7&#45;&gt;Node29 -->
<g id="edge29" class="edge">
<title>Node7&#45;&gt;Node29</title>
<path fill="none" stroke="midnightblue" d="M2390.14,-129.97C2415.49,-117.48 2447.75,-101.6 2467.22,-92.01"/>
<polygon fill="midnightblue" stroke="midnightblue" points="2388.57,-126.84 2381.14,-134.4 2391.66,-133.12 2388.57,-126.84"/>
</g>
<!-- Node30 -->
<g id="node30" class="node">
<title>Node30</title>
<g id="a_node30"><a xlink:href="m__Do__graphic_8cpp.html" target="_top" xlink:title=" ">
<polygon fill="white" stroke="black" points="2569.5,-73 2569.5,-92 2711.5,-92 2711.5,-73 2569.5,-73"/>
<text text-anchor="middle" x="2640.5" y="-80" font-family="Helvetica,sans-Serif" font-size="10.00">src/m_Do/m_Do_graphic.cpp</text>
</a>
</g>
</g>
<!-- Node7&#45;&gt;Node30 -->
<g id="edge30" class="edge">
<title>Node7&#45;&gt;Node30</title>
<path fill="none" stroke="midnightblue" d="M2424.6,-132.23C2481.14,-119.47 2557.59,-102.21 2602.71,-92.03"/>
<polygon fill="midnightblue" stroke="midnightblue" points="2423.62,-128.86 2414.64,-134.48 2425.16,-135.69 2423.62,-128.86"/>
</g>
<!-- Node31 -->
<g id="node31" class="node">
<title>Node31</title>
<g id="a_node31"><a xlink:href="m__Do__lib_8cpp.html" target="_top" xlink:title=" ">
<polygon fill="white" stroke="black" points="2729.5,-73 2729.5,-92 2849.5,-92 2849.5,-73 2729.5,-73"/>
<text text-anchor="middle" x="2789.5" y="-80" font-family="Helvetica,sans-Serif" font-size="10.00">src/m_Do/m_Do_lib.cpp</text>
</a>
</g>
</g>
<!-- Node7&#45;&gt;Node31 -->
<g id="edge31" class="edge">
<title>Node7&#45;&gt;Node31</title>
<path fill="none" stroke="midnightblue" d="M2435.99,-138.75C2510.75,-129.62 2623.25,-114.87 2720.5,-98 2730.51,-96.26 2741.28,-94.13 2751.27,-92.04"/>
<polygon fill="midnightblue" stroke="midnightblue" points="2435.2,-135.32 2425.7,-140 2436.05,-142.27 2435.2,-135.32"/>
</g>
<!-- Node32 -->
<g id="node32" class="node">
<title>Node32</title>
<g id="a_node32"><a xlink:href="m__Do__machine__exception_8cpp.html" target="_top" xlink:title=" ">
<polygon fill="white" stroke="black" points="2868,-67.5 2868,-97.5 2997,-97.5 2997,-67.5 2868,-67.5"/>
<text text-anchor="start" x="2876" y="-85.5" font-family="Helvetica,sans-Serif" font-size="10.00">src/m_Do/m_Do_machine</text>
<text text-anchor="middle" x="2932.5" y="-74.5" font-family="Helvetica,sans-Serif" font-size="10.00">_exception.cpp</text>
</a>
</g>
</g>
<!-- Node7&#45;&gt;Node32 -->
<g id="edge32" class="edge">
<title>Node7&#45;&gt;Node32</title>
<path fill="none" stroke="midnightblue" d="M2435.76,-142.6C2536.28,-134.93 2710.31,-119.86 2858.5,-98 2861.61,-97.54 2864.78,-97.04 2867.99,-96.51"/>
<polygon fill="midnightblue" stroke="midnightblue" points="2435.37,-139.12 2425.67,-143.37 2435.9,-146.1 2435.37,-139.12"/>
</g>
<!-- Node33 -->
<g id="node33" class="node">
<title>Node33</title>
<g id="a_node33"><a xlink:href="m__Do__ext_8cpp.html" target="_top" xlink:title=" ">
<polygon fill="white" stroke="black" points="3015,-73 3015,-92 3138,-92 3138,-73 3015,-73"/>
<text text-anchor="middle" x="3076.5" y="-80" font-family="Helvetica,sans-Serif" font-size="10.00">src/m_Do/m_Do_ext.cpp</text>
</a>
</g>
</g>
<!-- Node7&#45;&gt;Node33 -->
<g id="edge34" class="edge">
<title>Node7&#45;&gt;Node33</title>
<path fill="none" stroke="midnightblue" d="M2436.14,-145.45C2560.87,-140.13 2802.78,-126.84 3006.5,-98 3017.31,-96.47 3028.96,-94.28 3039.6,-92.06"/>
<polygon fill="midnightblue" stroke="midnightblue" points="2435.75,-141.96 2425.9,-145.88 2436.04,-148.96 2435.75,-141.96"/>
</g>
<!-- Node34 -->
<g id="node34" class="node">
<title>Node34</title>
<g id="a_node34"><a xlink:href="m__Do__MemCardRWmng_8cpp.html" target="_top" xlink:title=" ">
<polygon fill="white" stroke="black" points="3156,-73 3156,-92 3343,-92 3343,-73 3156,-73"/>
<text text-anchor="middle" x="3249.5" y="-80" font-family="Helvetica,sans-Serif" font-size="10.00">src/m_Do/m_Do_MemCardRWmng.cpp</text>
</a>
</g>
</g>
<!-- Node7&#45;&gt;Node34 -->
<g id="edge35" class="edge">
<title>Node7&#45;&gt;Node34</title>
<path fill="none" stroke="midnightblue" d="M2435.69,-145.35C2580.59,-139.38 2888.54,-124.59 3147.5,-98 3162.98,-96.41 3179.72,-94.23 3195.07,-92.04"/>
<polygon fill="midnightblue" stroke="midnightblue" points="2435.4,-141.86 2425.55,-145.76 2435.68,-148.85 2435.4,-141.86"/>
</g>
<!-- Node35 -->
<g id="node35" class="node">
<title>Node35</title>
<g id="a_node35"><a xlink:href="Z2LinkMgr_8cpp.html" target="_top" xlink:title=" ">
<polygon fill="white" stroke="black" points="3361.5,-73 3361.5,-92 3513.5,-92 3513.5,-73 3361.5,-73"/>
<text text-anchor="middle" x="3437.5" y="-80" font-family="Helvetica,sans-Serif" font-size="10.00">libs/Z2AudioLib/Z2LinkMgr.cpp</text>
</a>
</g>
</g>
<!-- Node7&#45;&gt;Node35 -->
<g id="edge36" class="edge">
<title>Node7&#45;&gt;Node35</title>
<path fill="none" stroke="midnightblue" d="M2435.75,-147.63C2607.59,-145.09 3013.84,-135.3 3352.5,-98 3365.89,-96.52 3380.37,-94.29 3393.52,-92.02"/>
<polygon fill="midnightblue" stroke="midnightblue" points="2435.46,-144.13 2425.51,-147.77 2435.56,-151.13 2435.46,-144.13"/>
</g>
<!-- Node36 -->
<g id="node36" class="node">
<title>Node36</title>
<g id="a_node36"><a xlink:href="Z2EnvSeMgr_8cpp.html" target="_top" xlink:title=" ">
<polygon fill="white" stroke="black" points="3532,-73 3532,-92 3693,-92 3693,-73 3532,-73"/>
<text text-anchor="middle" x="3612.5" y="-80" font-family="Helvetica,sans-Serif" font-size="10.00">libs/Z2AudioLib/Z2EnvSeMgr.cpp</text>
</a>
</g>
</g>
<!-- Node7&#45;&gt;Node36 -->
<g id="edge37" class="edge">
<title>Node7&#45;&gt;Node36</title>
<path fill="none" stroke="midnightblue" d="M2435.63,-148.23C2627.59,-146.9 3116.38,-139.34 3522.5,-98 3536.67,-96.56 3552,-94.34 3565.92,-92.06"/>
<polygon fill="midnightblue" stroke="midnightblue" points="2435.59,-144.73 2425.62,-148.3 2435.64,-151.73 2435.59,-144.73"/>
</g>
<!-- Node37 -->
<g id="node37" class="node">
<title>Node37</title>
<g id="a_node37"><a xlink:href="Z2SceneMgr_8cpp.html" target="_top" xlink:title=" ">
<polygon fill="white" stroke="black" points="3711,-73 3711,-92 3872,-92 3872,-73 3711,-73"/>
<text text-anchor="middle" x="3791.5" y="-80" font-family="Helvetica,sans-Serif" font-size="10.00">libs/Z2AudioLib/Z2SceneMgr.cpp</text>
</a>
</g>
</g>
<!-- Node7&#45;&gt;Node37 -->
<g id="edge38" class="edge">
<title>Node7&#45;&gt;Node37</title>
<path fill="none" stroke="midnightblue" d="M2435.63,-148.97C2647.48,-149.39 3224.6,-145.68 3702.5,-98 3716.68,-96.59 3732.02,-94.34 3745.91,-92.04"/>
<polygon fill="midnightblue" stroke="midnightblue" points="2435.53,-145.47 2425.52,-148.95 2435.51,-152.47 2435.53,-145.47"/>
</g>
<!-- Node38 -->
<g id="node38" class="node">
<title>Node38</title>
<g id="a_node38"><a xlink:href="Z2SoundMgr_8cpp.html" target="_top" xlink:title=" ">
<polygon fill="white" stroke="black" points="3890,-73 3890,-92 4051,-92 4051,-73 3890,-73"/>
<text text-anchor="middle" x="3970.5" y="-80" font-family="Helvetica,sans-Serif" font-size="10.00">libs/Z2AudioLib/Z2SoundMgr.cpp</text>
</a>
</g>
</g>
<!-- Node7&#45;&gt;Node38 -->
<g id="edge39" class="edge">
<title>Node7&#45;&gt;Node38</title>
<path fill="none" stroke="midnightblue" d="M2436.26,-147.15C2713.15,-142.48 3597.52,-125.71 3881.5,-98 3895.83,-96.6 3911.36,-94.34 3925.37,-92.01"/>
<polygon fill="midnightblue" stroke="midnightblue" points="2435.82,-143.66 2425.88,-147.33 2435.94,-150.66 2435.82,-143.66"/>
</g>
<!-- Node39 -->
<g id="node39" class="node">
<title>Node39</title>
<g id="a_node39"><a xlink:href="Z2StatusMgr_8cpp.html" target="_top" xlink:title=" ">
<polygon fill="white" stroke="black" points="4069,-67.5 4069,-97.5 4196,-97.5 4196,-67.5 4069,-67.5"/>
<text text-anchor="start" x="4077" y="-85.5" font-family="Helvetica,sans-Serif" font-size="10.00">libs/Z2AudioLib/Z2Status</text>
<text text-anchor="middle" x="4132.5" y="-74.5" font-family="Helvetica,sans-Serif" font-size="10.00">Mgr.cpp</text>
</a>
</g>
</g>
<!-- Node7&#45;&gt;Node39 -->
<g id="edge40" class="edge">
<title>Node7&#45;&gt;Node39</title>
<path fill="none" stroke="midnightblue" d="M2435.85,-147.9C2733.07,-145.48 3740.28,-134.71 4060.5,-98 4063.29,-97.68 4066.13,-97.31 4068.99,-96.9"/>
<polygon fill="midnightblue" stroke="midnightblue" points="2435.55,-144.41 2425.58,-147.99 2435.61,-151.41 2435.55,-144.41"/>
</g>
<!-- Node40 -->
<g id="node40" class="node">
<title>Node40</title>
<g id="a_node40"><a xlink:href="d__item_8h.html" target="_top" xlink:title=" ">
<polygon fill="white" stroke="black" points="187.5,-67.5 187.5,-97.5 283.5,-97.5 283.5,-67.5 187.5,-67.5"/>
<text text-anchor="start" x="195.5" y="-85.5" font-family="Helvetica,sans-Serif" font-size="10.00">include/d/d_item/d</text>
<text text-anchor="middle" x="235.5" y="-74.5" font-family="Helvetica,sans-Serif" font-size="10.00">_item/d_item.h</text>
</a>
</g>
</g>
<!-- Node7&#45;&gt;Node40 -->
<g id="edge42" class="edge">
<title>Node7&#45;&gt;Node40</title>
<path fill="none" stroke="midnightblue" d="M2269.29,-147.56C1908.7,-143.36 490.23,-125.22 292.5,-98 289.57,-97.6 286.57,-97.1 283.55,-96.53"/>
<polygon fill="midnightblue" stroke="midnightblue" points="2269.36,-151.07 2279.4,-147.68 2269.44,-144.07 2269.36,-151.07"/>
</g>
<!-- Node41 -->
<g id="node41" class="node">
<title>Node41</title>
<g id="a_node41"><a xlink:href="f__pc__manager_8h.html" target="_top" xlink:title=" ">
<polygon fill="white" stroke="black" points="4410,-67.5 4410,-97.5 4507,-97.5 4507,-67.5 4410,-67.5"/>
<text text-anchor="start" x="4418" y="-85.5" font-family="Helvetica,sans-Serif" font-size="10.00">include/f/f_pc/f_pc</text>
<text text-anchor="middle" x="4458.5" y="-74.5" font-family="Helvetica,sans-Serif" font-size="10.00">_manager.h</text>
</a>
</g>
</g>
<!-- Node7&#45;&gt;Node41 -->
<g id="edge45" class="edge">
<title>Node7&#45;&gt;Node41</title>
<path fill="none" stroke="midnightblue" d="M2435.86,-147.55C2795.5,-143.31 4204.94,-125.07 4401.5,-98 4404.23,-97.62 4407.02,-97.17 4409.82,-96.65"/>
<polygon fill="midnightblue" stroke="midnightblue" points="2435.74,-144.05 2425.78,-147.67 2435.82,-151.05 2435.74,-144.05"/>
</g>
<!-- Node40&#45;&gt;Node9 -->
<g id="edge43" class="edge">
<title>Node40&#45;&gt;Node9</title>
<path fill="none" stroke="midnightblue" d="M222.1,-58.58C216.64,-49.24 210.51,-38.75 205.73,-30.58"/>
<polygon fill="midnightblue" stroke="midnightblue" points="219.19,-60.53 227.25,-67.4 225.23,-57 219.19,-60.53"/>
</g>
<!-- Node40&#45;&gt;Node11 -->
<g id="edge44" class="edge">
<title>Node40&#45;&gt;Node11</title>
<path fill="none" stroke="midnightblue" d="M293.58,-67.12C700.06,-13.61 1935.38,-15.11 2223.83,-16.21"/>
<polygon fill="midnightblue" stroke="midnightblue" points="292.99,-63.66 283.55,-68.47 293.93,-70.6 292.99,-63.66"/>
</g>
<!-- Node41&#45;&gt;Node6 -->
<g id="edge46" class="edge">
<title>Node41&#45;&gt;Node6</title>
<path fill="none" stroke="midnightblue" d="M4481.89,-60.67C4495.37,-48.67 4511.6,-34.22 4521.74,-25.19"/>
<polygon fill="midnightblue" stroke="midnightblue" points="4479.48,-58.13 4474.34,-67.4 4484.14,-63.36 4479.48,-58.13"/>
</g>
<!-- Node41&#45;&gt;Node28 -->
<g id="edge47" class="edge">
<title>Node41&#45;&gt;Node28</title>
<path fill="none" stroke="midnightblue" d="M4419.72,-62.97C4393.6,-50.48 4360.37,-34.6 4340.3,-25.01"/>
<polygon fill="midnightblue" stroke="midnightblue" points="4418.46,-66.24 4428.99,-67.4 4421.48,-59.93 4418.46,-66.24"/>
</g>
</g>
</svg>
