<?xml version="1.0" encoding="UTF-8" standalone="no"?>
<!DOCTYPE svg PUBLIC "-//W3C//DTD SVG 1.1//EN"
 "http://www.w3.org/Graphics/SVG/1.1/DTD/svg11.dtd">
<!-- Generated by graphviz version 2.46.1 (20210215.1649)
 -->
<!-- Title: include/m_Do/m_Do_controller_pad/m_Do_controller_pad.h Pages: 1 -->
<!--zoomable 106 -->
<svg id="main" version="1.1" xmlns="http://www.w3.org/2000/svg" xmlns:xlink="http://www.w3.org/1999/xlink" xml:space="preserve" onload="init(evt)">
<style type="text/css"><![CDATA[
.edge:hover path { stroke: red; }
.edge:hover polygon { stroke: red; fill: red; }
]]></style>
<script type="text/javascript"><![CDATA[
var edges = document.getElementsByTagName('g');
if (edges && edges.length) {
  for (var i=0;i<edges.length;i++) {
    if (edges[i].id.substr(0,4)=='edge') {
      edges[i].setAttribute('class','edge');
    }
  }
}
]]></script>
        <defs>
                <circle id="rim" cx="0" cy="0" r="7"/>
                <circle id="rim2" cx="0" cy="0" r="3.5"/>
                <g id="zoomPlus">
                        <use xlink:href="#rim" fill="#404040">
                                <set attributeName="fill" to="#808080" begin="zoomplus.mouseover" end="zoomplus.mouseout"/>
                        </use>
                        <path d="M-4,0h8M0,-4v8" fill="none" stroke="white" stroke-width="1.5" pointer-events="none"/>
                </g>
                <g id="zoomMin">
                        <use xlink:href="#rim" fill="#404040">
                                <set attributeName="fill" to="#808080" begin="zoomminus.mouseover" end="zoomminus.mouseout"/>
                        </use>
                        <path d="M-4,0h8" fill="none" stroke="white" stroke-width="1.5" pointer-events="none"/>
                </g>
                <g id="dirArrow">
                        <path fill="none" stroke="white" stroke-width="1.5" d="M0,-3.0v7 M-2.5,-0.5L0,-3.0L2.5,-0.5"/>
                </g>
               <g id="resetDef">
                       <use xlink:href="#rim2" fill="#404040">
                               <set attributeName="fill" to="#808080" begin="reset.mouseover" end="reset.mouseout"/>
                       </use>
               </g>
        </defs>

<script type="text/javascript">
var viewWidth = 1635;
var viewHeight = 106;
var sectionId = 'dynsection-1';
</script>
<script xlink:href="svgpan.js"/>
<svg id="graph" class="graph">
<g id="viewport">
<title>include/m_Do/m_Do_controller_pad/m_Do_controller_pad.h</title>
<polygon fill="white" stroke="transparent" points="-4,4 -4,-102 1630.5,-102 1630.5,4 -4,4"/>
<!-- Node1 -->
<g id="node1" class="node">
<title>Node1</title>
<g id="a_node1"><a xlink:title=" ">
<polygon fill="#bfbfbf" stroke="black" points="664,-67.5 664,-97.5 813,-97.5 813,-67.5 664,-67.5"/>
<text text-anchor="start" x="672" y="-85.5" font-family="Helvetica,sans-Serif" font-size="10.00">include/m_Do/m_Do_controller</text>
<text text-anchor="middle" x="738.5" y="-74.5" font-family="Helvetica,sans-Serif" font-size="10.00">_pad/m_Do_controller_pad.h</text>
</a>
</g>
</g>
<!-- Node2 -->
<g id="node2" class="node">
<title>Node2</title>
<g id="a_node2"><a xlink:href="d__attention_8cpp.html" target="_top" xlink:title=" ">
<polygon fill="white" stroke="black" points="0,-6 0,-25 107,-25 107,-6 0,-6"/>
<text text-anchor="middle" x="53.5" y="-13" font-family="Helvetica,sans-Serif" font-size="10.00">src/d/d_attention.cpp</text>
</a>
</g>
</g>
<!-- Node1&#45;&gt;Node2 -->
<g id="edge1" class="edge">
<title>Node1&#45;&gt;Node2</title>
<path fill="none" stroke="midnightblue" d="M653.51,-78.62C533.14,-73.63 306.4,-60.89 115.5,-31 105.78,-29.48 95.32,-27.26 85.82,-25.02"/>
<polygon fill="midnightblue" stroke="midnightblue" points="653.62,-82.13 663.76,-79.04 653.91,-75.13 653.62,-82.13"/>
</g>
<!-- Node3 -->
<g id="node3" class="node">
<title>Node3</title>
<g id="a_node3"><a xlink:href="d__camera_8cpp.html" target="_top" xlink:title=" ">
<polygon fill="white" stroke="black" points="124.5,-6 124.5,-25 226.5,-25 226.5,-6 124.5,-6"/>
<text text-anchor="middle" x="175.5" y="-13" font-family="Helvetica,sans-Serif" font-size="10.00">src/d/d_camera.cpp</text>
</a>
</g>
</g>
<!-- Node1&#45;&gt;Node3 -->
<g id="edge2" class="edge">
<title>Node1&#45;&gt;Node3</title>
<path fill="none" stroke="midnightblue" d="M653.84,-76.56C553.5,-69.88 381.47,-55.84 235.5,-31 226.31,-29.44 216.44,-27.26 207.4,-25.07"/>
<polygon fill="midnightblue" stroke="midnightblue" points="653.72,-80.05 663.93,-77.22 654.18,-73.07 653.72,-80.05"/>
</g>
<!-- Node4 -->
<g id="node4" class="node">
<title>Node4</title>
<g id="a_node4"><a xlink:href="d__com__inf__game_8cpp.html" target="_top" xlink:title=" ">
<polygon fill="white" stroke="black" points="245,-0.5 245,-30.5 364,-30.5 364,-0.5 245,-0.5"/>
<text text-anchor="start" x="253" y="-18.5" font-family="Helvetica,sans-Serif" font-size="10.00">src/d/d_com/d_com_inf</text>
<text text-anchor="middle" x="304.5" y="-7.5" font-family="Helvetica,sans-Serif" font-size="10.00">_game.cpp</text>
</a>
</g>
</g>
<!-- Node1&#45;&gt;Node4 -->
<g id="edge3" class="edge">
<title>Node1&#45;&gt;Node4</title>
<path fill="none" stroke="midnightblue" d="M653.6,-71.45C579.46,-62.28 469.06,-47.63 373.5,-31 370.49,-30.48 367.4,-29.91 364.29,-29.33"/>
<polygon fill="midnightblue" stroke="midnightblue" points="653.46,-74.96 663.81,-72.71 654.32,-68.02 653.46,-74.96"/>
</g>
<!-- Node5 -->
<g id="node5" class="node">
<title>Node5</title>
<g id="a_node5"><a xlink:href="d__lib_8cpp.html" target="_top" xlink:title=" ">
<polygon fill="white" stroke="black" points="382.5,-6 382.5,-25 462.5,-25 462.5,-6 382.5,-6"/>
<text text-anchor="middle" x="422.5" y="-13" font-family="Helvetica,sans-Serif" font-size="10.00">src/d/d_lib.cpp</text>
</a>
</g>
</g>
<!-- Node1&#45;&gt;Node5 -->
<g id="edge4" class="edge">
<title>Node1&#45;&gt;Node5</title>
<path fill="none" stroke="midnightblue" d="M653.85,-67.74C601.12,-58.61 532.02,-45.64 471.5,-31 464.34,-29.27 456.68,-27.14 449.58,-25.04"/>
<polygon fill="midnightblue" stroke="midnightblue" points="653.39,-71.21 663.84,-69.45 654.57,-64.31 653.39,-71.21"/>
</g>
<!-- Node6 -->
<g id="node6" class="node">
<title>Node6</title>
<g id="a_node6"><a xlink:href="d__meter__map_8cpp.html" target="_top" xlink:title=" ">
<polygon fill="white" stroke="black" points="481,-0.5 481,-30.5 596,-30.5 596,-0.5 481,-0.5"/>
<text text-anchor="start" x="489" y="-18.5" font-family="Helvetica,sans-Serif" font-size="10.00">src/d/d_meter/d_meter</text>
<text text-anchor="middle" x="538.5" y="-7.5" font-family="Helvetica,sans-Serif" font-size="10.00">_map.cpp</text>
</a>
</g>
</g>
<!-- Node1&#45;&gt;Node6 -->
<g id="edge5" class="edge">
<title>Node1&#45;&gt;Node6</title>
<path fill="none" stroke="midnightblue" d="M685.35,-64.23C653,-53.71 612.19,-40.45 581.81,-30.58"/>
<polygon fill="midnightblue" stroke="midnightblue" points="684.51,-67.63 695.1,-67.4 686.67,-60.98 684.51,-67.63"/>
</g>
<!-- Node7 -->
<g id="node7" class="node">
<title>Node7</title>
<g id="a_node7"><a xlink:href="d__a__alink_8cpp.html" target="_top" xlink:title=" ">
<polygon fill="white" stroke="black" points="614,-6 614,-25 733,-25 733,-6 614,-6"/>
<text text-anchor="middle" x="673.5" y="-13" font-family="Helvetica,sans-Serif" font-size="10.00">src/d/d_a/d_a_alink.cpp</text>
</a>
</g>
</g>
<!-- Node1&#45;&gt;Node7 -->
<g id="edge6" class="edge">
<title>Node1&#45;&gt;Node7</title>
<path fill="none" stroke="midnightblue" d="M717,-60C705.13,-48.13 691.05,-34.05 682.19,-25.19"/>
<polygon fill="midnightblue" stroke="midnightblue" points="714.85,-62.8 724.4,-67.4 719.8,-57.85 714.85,-62.8"/>
</g>
<!-- Node8 -->
<g id="node8" class="node">
<title>Node8</title>
<g id="a_node8"><a xlink:href="f__ap__game_8cpp.html" target="_top" xlink:title=" ">
<polygon fill="white" stroke="black" points="751,-6 751,-25 856,-25 856,-6 751,-6"/>
<text text-anchor="middle" x="803.5" y="-13" font-family="Helvetica,sans-Serif" font-size="10.00">src/f/f_ap_game.cpp</text>
</a>
</g>
</g>
<!-- Node1&#45;&gt;Node8 -->
<g id="edge7" class="edge">
<title>Node1&#45;&gt;Node8</title>
<path fill="none" stroke="midnightblue" d="M760,-60C771.87,-48.13 785.95,-34.05 794.81,-25.19"/>
<polygon fill="midnightblue" stroke="midnightblue" points="757.2,-57.85 752.6,-67.4 762.15,-62.8 757.2,-57.85"/>
</g>
<!-- Node9 -->
<g id="node9" class="node">
<title>Node9</title>
<g id="a_node9"><a xlink:href="f__pc__manager_8cpp.html" target="_top" xlink:title=" ">
<polygon fill="white" stroke="black" points="874.5,-6 874.5,-25 1014.5,-25 1014.5,-6 874.5,-6"/>
<text text-anchor="middle" x="944.5" y="-13" font-family="Helvetica,sans-Serif" font-size="10.00">src/f/f_pc/f_pc_manager.cpp</text>
</a>
</g>
</g>
<!-- Node1&#45;&gt;Node9 -->
<g id="edge8" class="edge">
<title>Node1&#45;&gt;Node9</title>
<path fill="none" stroke="midnightblue" d="M792.6,-64.43C832.77,-51.75 885.87,-35 917.47,-25.03"/>
<polygon fill="midnightblue" stroke="midnightblue" points="791.43,-61.13 782.95,-67.48 793.54,-67.8 791.43,-61.13"/>
</g>
<!-- Node10 -->
<g id="node10" class="node">
<title>Node10</title>
<g id="a_node10"><a xlink:href="m__Do__controller__pad_8cpp.html" target="_top" xlink:title=" ">
<polygon fill="white" stroke="black" points="1032.5,-0.5 1032.5,-30.5 1164.5,-30.5 1164.5,-0.5 1032.5,-0.5"/>
<text text-anchor="start" x="1040.5" y="-18.5" font-family="Helvetica,sans-Serif" font-size="10.00">src/m_Do/m_Do_controller</text>
<text text-anchor="middle" x="1098.5" y="-7.5" font-family="Helvetica,sans-Serif" font-size="10.00">_pad.cpp</text>
</a>
</g>
</g>
<!-- Node1&#45;&gt;Node10 -->
<g id="edge9" class="edge">
<title>Node1&#45;&gt;Node10</title>
<path fill="none" stroke="midnightblue" d="M823.26,-66.84C879.98,-56.94 956.26,-43.46 1023.5,-31 1026.37,-30.47 1029.3,-29.92 1032.26,-29.37"/>
<polygon fill="midnightblue" stroke="midnightblue" points="822.52,-63.41 813.27,-68.58 823.72,-70.31 822.52,-63.41"/>
</g>
<!-- Node11 -->
<g id="node11" class="node">
<title>Node11</title>
<g id="a_node11"><a xlink:href="m__Do__graphic_8cpp.html" target="_top" xlink:title=" ">
<polygon fill="white" stroke="black" points="1182.5,-6 1182.5,-25 1324.5,-25 1324.5,-6 1182.5,-6"/>
<text text-anchor="middle" x="1253.5" y="-13" font-family="Helvetica,sans-Serif" font-size="10.00">src/m_Do/m_Do_graphic.cpp</text>
</a>
</g>
</g>
<!-- Node1&#45;&gt;Node11 -->
<g id="edge10" class="edge">
<title>Node1&#45;&gt;Node11</title>
<path fill="none" stroke="midnightblue" d="M823.53,-73.25C911.37,-64.34 1052.33,-49 1173.5,-31 1185.09,-29.28 1197.57,-27.15 1209.15,-25.06"/>
<polygon fill="midnightblue" stroke="midnightblue" points="822.95,-69.79 813.35,-74.27 823.66,-76.75 822.95,-69.79"/>
</g>
<!-- Node12 -->
<g id="node12" class="node">
<title>Node12</title>
<g id="a_node12"><a xlink:href="m__Do__main_8cpp.html" target="_top" xlink:title=" ">
<polygon fill="white" stroke="black" points="1343,-6 1343,-25 1474,-25 1474,-6 1343,-6"/>
<text text-anchor="middle" x="1408.5" y="-13" font-family="Helvetica,sans-Serif" font-size="10.00">src/m_Do/m_Do_main.cpp</text>
</a>
</g>
</g>
<!-- Node1&#45;&gt;Node12 -->
<g id="edge11" class="edge">
<title>Node1&#45;&gt;Node12</title>
<path fill="none" stroke="midnightblue" d="M823.67,-77.12C939.46,-70.53 1152.83,-56.06 1333.5,-31 1344.93,-29.41 1357.25,-27.23 1368.54,-25.04"/>
<polygon fill="midnightblue" stroke="midnightblue" points="823.24,-73.64 813.46,-77.7 823.64,-80.63 823.24,-73.64"/>
</g>
<!-- Node13 -->
<g id="node13" class="node">
<title>Node13</title>
<g id="a_node13"><a xlink:href="c__API__controller__pad_8cpp.html" target="_top" xlink:title=" ">
<polygon fill="white" stroke="black" points="1492.5,-0.5 1492.5,-30.5 1626.5,-30.5 1626.5,-0.5 1492.5,-0.5"/>
<text text-anchor="start" x="1500.5" y="-18.5" font-family="Helvetica,sans-Serif" font-size="10.00">libs/SSystem/SComponent</text>
<text text-anchor="middle" x="1559.5" y="-7.5" font-family="Helvetica,sans-Serif" font-size="10.00">/c_API_controller_pad.cpp</text>
</a>
</g>
</g>
<!-- Node1&#45;&gt;Node13 -->
<g id="edge12" class="edge">
<title>Node1&#45;&gt;Node13</title>
<path fill="none" stroke="midnightblue" d="M823.2,-79.09C961.76,-74.4 1245.33,-61.68 1483.5,-31 1486.43,-30.62 1489.42,-30.2 1492.43,-29.75"/>
<polygon fill="midnightblue" stroke="midnightblue" points="822.95,-75.6 813.07,-79.43 823.19,-82.59 822.95,-75.6"/>
</g>
</g>
</svg>
        <g id="navigator" transform="translate(0 0)" fill="#404254">
                <rect fill="#f2f5e9" fill-opacity="0.5" stroke="#606060" stroke-width=".5" x="0" y="0" width="60" height="60"/>
                <use id="zoomplus" xlink:href="#zoomPlus" x="17" y="9" onmousedown="handleZoom(evt,'in')"/>
                <use id="zoomminus" xlink:href="#zoomMin" x="42" y="9" onmousedown="handleZoom(evt,'out')"/>
                <use id="reset" xlink:href="#resetDef" x="30" y="36" onmousedown="handleReset()"/>
                <g id="arrowUp" xlink:href="#dirArrow" transform="translate(30 24)" onmousedown="handlePan(0,-1)">
                  <use xlink:href="#rim" fill="#404040">
                        <set attributeName="fill" to="#808080" begin="arrowUp.mouseover" end="arrowUp.mouseout"/>
                  </use>
                  <path fill="none" stroke="white" stroke-width="1.5" d="M0,-3.0v7 M-2.5,-0.5L0,-3.0L2.5,-0.5"/>
                </g>
                <g id="arrowRight" xlink:href="#dirArrow" transform="rotate(90) translate(36 -43)" onmousedown="handlePan(1,0)">
                  <use xlink:href="#rim" fill="#404040">
                        <set attributeName="fill" to="#808080" begin="arrowRight.mouseover" end="arrowRight.mouseout"/>
                  </use>
                  <path fill="none" stroke="white" stroke-width="1.5" d="M0,-3.0v7 M-2.5,-0.5L0,-3.0L2.5,-0.5"/>
                </g>
                <g id="arrowDown" xlink:href="#dirArrow" transform="rotate(180) translate(-30 -48)" onmousedown="handlePan(0,1)">
                  <use xlink:href="#rim" fill="#404040">
                        <set attributeName="fill" to="#808080" begin="arrowDown.mouseover" end="arrowDown.mouseout"/>
                  </use>
                  <path fill="none" stroke="white" stroke-width="1.5" d="M0,-3.0v7 M-2.5,-0.5L0,-3.0L2.5,-0.5"/>
                </g>
                <g id="arrowLeft" xlink:href="#dirArrow" transform="rotate(270) translate(-36 17)" onmousedown="handlePan(-1,0)">
                  <use xlink:href="#rim" fill="#404040">
                        <set attributeName="fill" to="#808080" begin="arrowLeft.mouseover" end="arrowLeft.mouseout"/>
                  </use>
                  <path fill="none" stroke="white" stroke-width="1.5" d="M0,-3.0v7 M-2.5,-0.5L0,-3.0L2.5,-0.5"/>
                </g>
        </g>
        <svg viewBox="0 0 15 15" width="100%" height="30px" preserveAspectRatio="xMaxYMin meet">
         <g id="arrow_out" transform="scale(0.3 0.3)">
          <a xlink:href="m__Do__controller__pad_8h__dep__incl_org.svg" target="_base">
           <rect id="button" ry="5" rx="5" y="6" x="6" height="38" width="38"
                fill="#f2f5e9" fill-opacity="0.5" stroke="#606060" stroke-width="1.0"/>
           <path id="arrow"
             d="M 11.500037,31.436501 C 11.940474,20.09759 22.043105,11.32322 32.158766,21.979434 L 37.068811,17.246167 C 37.068811,17.246167 37.088388,32 37.088388,32 L 22.160133,31.978069 C 22.160133,31.978069 26.997745,27.140456 26.997745,27.140456 C 18.528582,18.264221 13.291696,25.230495 11.500037,31.436501 z"
             style="fill:#404040;"/>
          </a>
         </g>
        </svg>
</svg>
