<?xml version="1.0" encoding="UTF-8" standalone="no"?>
<!DOCTYPE svg PUBLIC "-//W3C//DTD SVG 1.1//EN"
 "http://www.w3.org/Graphics/SVG/1.1/DTD/svg11.dtd">
<!-- Generated by graphviz version 2.46.1 (20210215.1649)
 -->
<!-- Title: src/m_Do/m_Do_machine.cpp Pages: 1 -->
<!--zoomable 531 -->
<svg id="main" version="1.1" xmlns="http://www.w3.org/2000/svg" xmlns:xlink="http://www.w3.org/1999/xlink" xml:space="preserve" onload="init(evt)">
<style type="text/css"><![CDATA[
.edge:hover path { stroke: red; }
.edge:hover polygon { stroke: red; fill: red; }
]]></style>
<script type="text/javascript"><![CDATA[
var edges = document.getElementsByTagName('g');
if (edges && edges.length) {
  for (var i=0;i<edges.length;i++) {
    if (edges[i].id.substr(0,4)=='edge') {
      edges[i].setAttribute('class','edge');
    }
  }
}
]]></script>
        <defs>
                <circle id="rim" cx="0" cy="0" r="7"/>
                <circle id="rim2" cx="0" cy="0" r="3.5"/>
                <g id="zoomPlus">
                        <use xlink:href="#rim" fill="#404040">
                                <set attributeName="fill" to="#808080" begin="zoomplus.mouseover" end="zoomplus.mouseout"/>
                        </use>
                        <path d="M-4,0h8M0,-4v8" fill="none" stroke="white" stroke-width="1.5" pointer-events="none"/>
                </g>
                <g id="zoomMin">
                        <use xlink:href="#rim" fill="#404040">
                                <set attributeName="fill" to="#808080" begin="zoomminus.mouseover" end="zoomminus.mouseout"/>
                        </use>
                        <path d="M-4,0h8" fill="none" stroke="white" stroke-width="1.5" pointer-events="none"/>
                </g>
                <g id="dirArrow">
                        <path fill="none" stroke="white" stroke-width="1.5" d="M0,-3.0v7 M-2.5,-0.5L0,-3.0L2.5,-0.5"/>
                </g>
               <g id="resetDef">
                       <use xlink:href="#rim2" fill="#404040">
                               <set attributeName="fill" to="#808080" begin="reset.mouseover" end="reset.mouseout"/>
                       </use>
               </g>
        </defs>

<script type="text/javascript">
var viewWidth = 2746;
var viewHeight = 531;
var sectionId = 'dynsection-0';
</script>
<script xlink:href="svgpan.js"/>
<svg id="graph" class="graph">
<g id="viewport">
<title>src/m_Do/m_Do_machine.cpp</title>
<polygon fill="white" stroke="transparent" points="-4,4 -4,-527 2742,-527 2742,4 -4,4"/>
<!-- Node1 -->
<g id="node1" class="node">
<title>Node1</title>
<g id="a_node1"><a xlink:title=" ">
<polygon fill="#bfbfbf" stroke="black" points="1381.5,-503.5 1381.5,-522.5 1528.5,-522.5 1528.5,-503.5 1381.5,-503.5"/>
<text text-anchor="middle" x="1455" y="-510.5" font-family="Helvetica,sans-Serif" font-size="10.00">src/m_Do/m_Do_machine.cpp</text>
</a>
</g>
</g>
<!-- Node2 -->
<g id="node2" class="node">
<title>Node2</title>
<g id="a_node2"><a xlink:href="JKRExpHeap_8h.html" target="_top" xlink:title=" ">
<polygon fill="white" stroke="black" points="171,-369.5 171,-399.5 323,-399.5 323,-369.5 171,-369.5"/>
<text text-anchor="start" x="179" y="-387.5" font-family="Helvetica,sans-Serif" font-size="10.00">JSystem/JKernel/JKRExpHeap</text>
<text text-anchor="middle" x="247" y="-376.5" font-family="Helvetica,sans-Serif" font-size="10.00">/JKRExpHeap.h</text>
</a>
</g>
</g>
<!-- Node1&#45;&gt;Node2 -->
<g id="edge1" class="edge">
<title>Node1&#45;&gt;Node2</title>
<path fill="none" stroke="midnightblue" d="M1381.24,-510.51C1193.28,-506.37 699.76,-493.28 538,-467 451.11,-452.88 353.11,-422.26 295.89,-402.83"/>
<polygon fill="midnightblue" stroke="midnightblue" points="296.97,-399.5 286.38,-399.58 294.71,-406.13 296.97,-399.5"/>
</g>
<!-- Node7 -->
<g id="node7" class="node">
<title>Node7</title>
<g id="a_node7"><a xlink:href="global_8h.html" target="_top" xlink:title=" ">
<polygon fill="white" stroke="black" points="127,-246.5 127,-265.5 177,-265.5 177,-246.5 127,-246.5"/>
<text text-anchor="middle" x="152" y="-253.5" font-family="Helvetica,sans-Serif" font-size="10.00">global.h</text>
</a>
</g>
</g>
<!-- Node1&#45;&gt;Node7 -->
<g id="edge38" class="edge">
<title>Node1&#45;&gt;Node7</title>
<path fill="none" stroke="midnightblue" d="M1381.17,-511.02C1174.43,-507.93 592.63,-496.75 404,-467 293.76,-449.61 232.63,-486.41 162,-400 132.81,-364.29 140.64,-305.34 147.19,-275.51"/>
<polygon fill="midnightblue" stroke="midnightblue" points="150.64,-276.16 149.56,-265.62 143.83,-274.53 150.64,-276.16"/>
</g>
<!-- Node17 -->
<g id="node17" class="node">
<title>Node17</title>
<g id="a_node17"><a xlink:href="JUTConsole_8h.html" target="_top" xlink:title=" ">
<polygon fill="white" stroke="black" points="546.5,-436.5 546.5,-466.5 691.5,-466.5 691.5,-436.5 546.5,-436.5"/>
<text text-anchor="start" x="554.5" y="-454.5" font-family="Helvetica,sans-Serif" font-size="10.00">JSystem/JUtility/JUTConsole</text>
<text text-anchor="middle" x="619" y="-443.5" font-family="Helvetica,sans-Serif" font-size="10.00">/JUTConsole.h</text>
</a>
</g>
</g>
<!-- Node1&#45;&gt;Node17 -->
<g id="edge29" class="edge">
<title>Node1&#45;&gt;Node17</title>
<path fill="none" stroke="midnightblue" d="M1381.35,-508.8C1251.31,-502.84 972.58,-488.63 738,-467 726.26,-465.92 713.89,-464.6 701.75,-463.22"/>
<polygon fill="midnightblue" stroke="midnightblue" points="701.95,-459.72 691.61,-462.03 701.14,-466.67 701.95,-459.72"/>
</g>
<!-- Node20 -->
<g id="node20" class="node">
<title>Node20</title>
<g id="a_node20"><a xlink:href="m__Do__Reset_8h.html" target="_top" xlink:title=" ">
<polygon fill="white" stroke="black" points="742,-179.5 742,-209.5 872,-209.5 872,-179.5 742,-179.5"/>
<text text-anchor="start" x="750" y="-197.5" font-family="Helvetica,sans-Serif" font-size="10.00">m_Do/m_Do_Reset/m_Do</text>
<text text-anchor="middle" x="807" y="-186.5" font-family="Helvetica,sans-Serif" font-size="10.00">_Reset.h</text>
</a>
</g>
</g>
<!-- Node1&#45;&gt;Node20 -->
<g id="edge39" class="edge">
<title>Node1&#45;&gt;Node20</title>
<path fill="none" stroke="midnightblue" d="M1381.41,-512.02C1214.23,-511.4 816.71,-505.79 771,-467 742.64,-442.93 752,-422.69 752,-385.5 752,-385.5 752,-385.5 752,-316.5 752,-279.47 773.62,-241.31 789.75,-217.99"/>
<polygon fill="midnightblue" stroke="midnightblue" points="792.63,-219.98 795.6,-209.82 786.94,-215.91 792.63,-219.98"/>
</g>
<!-- Node21 -->
<g id="node21" class="node">
<title>Node21</title>
<g id="a_node21"><a xlink:title=" ">
<polygon fill="white" stroke="#bfbfbf" points="780,-436.5 780,-466.5 914,-466.5 914,-436.5 780,-436.5"/>
<text text-anchor="start" x="788" y="-454.5" font-family="Helvetica,sans-Serif" font-size="10.00">m_Do/m_Do_machine/asm</text>
<text text-anchor="middle" x="847" y="-443.5" font-family="Helvetica,sans-Serif" font-size="10.00">/func_8000B1EC.s</text>
</a>
</g>
</g>
<!-- Node1&#45;&gt;Node21 -->
<g id="edge42" class="edge">
<title>Node1&#45;&gt;Node21</title>
<path fill="none" stroke="midnightblue" d="M1381.15,-508.19C1280.19,-502.44 1093.25,-489.85 924.16,-467.06"/>
<polygon fill="midnightblue" stroke="midnightblue" points="924.46,-463.57 914.07,-465.69 923.51,-470.51 924.46,-463.57"/>
</g>
<!-- Node22 -->
<g id="node22" class="node">
<title>Node22</title>
<g id="a_node22"><a xlink:title=" ">
<polygon fill="white" stroke="#bfbfbf" points="932,-436.5 932,-466.5 1066,-466.5 1066,-436.5 932,-436.5"/>
<text text-anchor="start" x="940" y="-454.5" font-family="Helvetica,sans-Serif" font-size="10.00">m_Do/m_Do_machine/asm</text>
<text text-anchor="middle" x="999" y="-443.5" font-family="Helvetica,sans-Serif" font-size="10.00">/func_8000B3EC.s</text>
</a>
</g>
</g>
<!-- Node1&#45;&gt;Node22 -->
<g id="edge43" class="edge">
<title>Node1&#45;&gt;Node22</title>
<path fill="none" stroke="midnightblue" d="M1381.23,-504.82C1306.76,-497.23 1188.23,-484.17 1076.22,-467.12"/>
<polygon fill="midnightblue" stroke="midnightblue" points="1076.51,-463.62 1066.09,-465.57 1075.45,-470.54 1076.51,-463.62"/>
</g>
<!-- Node23 -->
<g id="node23" class="node">
<title>Node23</title>
<g id="a_node23"><a xlink:title=" ">
<polygon fill="white" stroke="#bfbfbf" points="1084,-436.5 1084,-466.5 1218,-466.5 1218,-436.5 1084,-436.5"/>
<text text-anchor="start" x="1092" y="-454.5" font-family="Helvetica,sans-Serif" font-size="10.00">m_Do/m_Do_machine/asm</text>
<text text-anchor="middle" x="1151" y="-443.5" font-family="Helvetica,sans-Serif" font-size="10.00">/func_8000B5C8.s</text>
</a>
</g>
</g>
<!-- Node1&#45;&gt;Node23 -->
<g id="edge44" class="edge">
<title>Node1&#45;&gt;Node23</title>
<path fill="none" stroke="midnightblue" d="M1411.44,-503.48C1363.64,-494.12 1285.99,-478.92 1227.89,-467.55"/>
<polygon fill="midnightblue" stroke="midnightblue" points="1228.49,-464.1 1218.01,-465.62 1227.15,-470.97 1228.49,-464.1"/>
</g>
<!-- Node24 -->
<g id="node24" class="node">
<title>Node24</title>
<g id="a_node24"><a xlink:title=" ">
<polygon fill="white" stroke="#bfbfbf" points="1236,-436.5 1236,-466.5 1370,-466.5 1370,-436.5 1236,-436.5"/>
<text text-anchor="start" x="1244" y="-454.5" font-family="Helvetica,sans-Serif" font-size="10.00">m_Do/m_Do_machine/asm</text>
<text text-anchor="middle" x="1303" y="-443.5" font-family="Helvetica,sans-Serif" font-size="10.00">/func_8000B668.s</text>
</a>
</g>
</g>
<!-- Node1&#45;&gt;Node24 -->
<g id="edge45" class="edge">
<title>Node1&#45;&gt;Node24</title>
<path fill="none" stroke="midnightblue" d="M1433.22,-503.48C1411.19,-494.85 1376.48,-481.26 1348.43,-470.29"/>
<polygon fill="midnightblue" stroke="midnightblue" points="1349.41,-466.91 1338.82,-466.52 1346.86,-473.43 1349.41,-466.91"/>
</g>
<!-- Node25 -->
<g id="node25" class="node">
<title>Node25</title>
<g id="a_node25"><a xlink:title=" ">
<polygon fill="white" stroke="#bfbfbf" points="1388,-436.5 1388,-466.5 1522,-466.5 1522,-436.5 1388,-436.5"/>
<text text-anchor="start" x="1396" y="-454.5" font-family="Helvetica,sans-Serif" font-size="10.00">m_Do/m_Do_machine/asm</text>
<text text-anchor="middle" x="1455" y="-443.5" font-family="Helvetica,sans-Serif" font-size="10.00">/func_8000B68C.s</text>
</a>
</g>
</g>
<!-- Node1&#45;&gt;Node25 -->
<g id="edge46" class="edge">
<title>Node1&#45;&gt;Node25</title>
<path fill="none" stroke="midnightblue" d="M1455,-503.48C1455,-496.47 1455,-486.19 1455,-476.7"/>
<polygon fill="midnightblue" stroke="midnightblue" points="1458.5,-476.52 1455,-466.52 1451.5,-476.52 1458.5,-476.52"/>
</g>
<!-- Node26 -->
<g id="node26" class="node">
<title>Node26</title>
<g id="a_node26"><a xlink:title=" ">
<polygon fill="white" stroke="#bfbfbf" points="1540,-436.5 1540,-466.5 1674,-466.5 1674,-436.5 1540,-436.5"/>
<text text-anchor="start" x="1548" y="-454.5" font-family="Helvetica,sans-Serif" font-size="10.00">m_Do/m_Do_machine/asm</text>
<text text-anchor="middle" x="1607" y="-443.5" font-family="Helvetica,sans-Serif" font-size="10.00">/func_8000B73C.s</text>
</a>
</g>
</g>
<!-- Node1&#45;&gt;Node26 -->
<g id="edge47" class="edge">
<title>Node1&#45;&gt;Node26</title>
<path fill="none" stroke="midnightblue" d="M1476.78,-503.48C1498.81,-494.85 1533.52,-481.26 1561.57,-470.29"/>
<polygon fill="midnightblue" stroke="midnightblue" points="1563.14,-473.43 1571.18,-466.52 1560.59,-466.91 1563.14,-473.43"/>
</g>
<!-- Node27 -->
<g id="node27" class="node">
<title>Node27</title>
<g id="a_node27"><a xlink:title=" ">
<polygon fill="white" stroke="#bfbfbf" points="1692,-436.5 1692,-466.5 1826,-466.5 1826,-436.5 1692,-436.5"/>
<text text-anchor="start" x="1700" y="-454.5" font-family="Helvetica,sans-Serif" font-size="10.00">m_Do/m_Do_machine/asm</text>
<text text-anchor="middle" x="1759" y="-443.5" font-family="Helvetica,sans-Serif" font-size="10.00">/func_8000B768.s</text>
</a>
</g>
</g>
<!-- Node1&#45;&gt;Node27 -->
<g id="edge48" class="edge">
<title>Node1&#45;&gt;Node27</title>
<path fill="none" stroke="midnightblue" d="M1498.56,-503.48C1546.36,-494.12 1624.01,-478.92 1682.11,-467.55"/>
<polygon fill="midnightblue" stroke="midnightblue" points="1682.85,-470.97 1691.99,-465.62 1681.51,-464.1 1682.85,-470.97"/>
</g>
<!-- Node28 -->
<g id="node28" class="node">
<title>Node28</title>
<g id="a_node28"><a xlink:title=" ">
<polygon fill="white" stroke="#bfbfbf" points="1844,-436.5 1844,-466.5 1978,-466.5 1978,-436.5 1844,-436.5"/>
<text text-anchor="start" x="1852" y="-454.5" font-family="Helvetica,sans-Serif" font-size="10.00">m_Do/m_Do_machine/asm</text>
<text text-anchor="middle" x="1911" y="-443.5" font-family="Helvetica,sans-Serif" font-size="10.00">/func_8000B798.s</text>
</a>
</g>
</g>
<!-- Node1&#45;&gt;Node28 -->
<g id="edge49" class="edge">
<title>Node1&#45;&gt;Node28</title>
<path fill="none" stroke="midnightblue" d="M1528.77,-504.82C1603.24,-497.23 1721.77,-484.17 1833.78,-467.12"/>
<polygon fill="midnightblue" stroke="midnightblue" points="1834.55,-470.54 1843.91,-465.57 1833.49,-463.62 1834.55,-470.54"/>
</g>
<!-- Node29 -->
<g id="node29" class="node">
<title>Node29</title>
<g id="a_node29"><a xlink:title=" ">
<polygon fill="white" stroke="#bfbfbf" points="1996,-436.5 1996,-466.5 2130,-466.5 2130,-436.5 1996,-436.5"/>
<text text-anchor="start" x="2004" y="-454.5" font-family="Helvetica,sans-Serif" font-size="10.00">m_Do/m_Do_machine/asm</text>
<text text-anchor="middle" x="2063" y="-443.5" font-family="Helvetica,sans-Serif" font-size="10.00">/func_8000B7C8.s</text>
</a>
</g>
</g>
<!-- Node1&#45;&gt;Node29 -->
<g id="edge50" class="edge">
<title>Node1&#45;&gt;Node29</title>
<path fill="none" stroke="midnightblue" d="M1528.85,-508.19C1629.81,-502.44 1816.75,-489.85 1985.84,-467.06"/>
<polygon fill="midnightblue" stroke="midnightblue" points="1986.49,-470.51 1995.93,-465.69 1985.54,-463.57 1986.49,-470.51"/>
</g>
<!-- Node30 -->
<g id="node30" class="node">
<title>Node30</title>
<g id="a_node30"><a xlink:title=" ">
<polygon fill="white" stroke="#bfbfbf" points="2148,-436.5 2148,-466.5 2282,-466.5 2282,-436.5 2148,-436.5"/>
<text text-anchor="start" x="2156" y="-454.5" font-family="Helvetica,sans-Serif" font-size="10.00">m_Do/m_Do_machine/asm</text>
<text text-anchor="middle" x="2215" y="-443.5" font-family="Helvetica,sans-Serif" font-size="10.00">/func_8000B95C.s</text>
</a>
</g>
</g>
<!-- Node1&#45;&gt;Node30 -->
<g id="edge51" class="edge">
<title>Node1&#45;&gt;Node30</title>
<path fill="none" stroke="midnightblue" d="M1528.67,-510.12C1652.49,-506.3 1910.26,-495.57 2137.81,-467.04"/>
<polygon fill="midnightblue" stroke="midnightblue" points="2138.45,-470.49 2147.93,-465.76 2137.57,-463.54 2138.45,-470.49"/>
</g>
<!-- Node31 -->
<g id="node31" class="node">
<title>Node31</title>
<g id="a_node31"><a xlink:title=" ">
<polygon fill="white" stroke="#bfbfbf" points="2300,-436.5 2300,-466.5 2434,-466.5 2434,-436.5 2300,-436.5"/>
<text text-anchor="start" x="2308" y="-454.5" font-family="Helvetica,sans-Serif" font-size="10.00">m_Do/m_Do_machine/asm</text>
<text text-anchor="middle" x="2367" y="-443.5" font-family="Helvetica,sans-Serif" font-size="10.00">/func_8000BCF4.s</text>
</a>
</g>
</g>
<!-- Node1&#45;&gt;Node31 -->
<g id="edge52" class="edge">
<title>Node1&#45;&gt;Node31</title>
<path fill="none" stroke="midnightblue" d="M1528.54,-511.36C1672.75,-509.39 2002.87,-501.31 2289.75,-467.03"/>
<polygon fill="midnightblue" stroke="midnightblue" points="2290.43,-470.48 2299.94,-465.8 2289.59,-463.53 2290.43,-470.48"/>
</g>
<!-- Node32 -->
<g id="node32" class="node">
<title>Node32</title>
<g id="a_node32"><a xlink:title=" ">
<polygon fill="white" stroke="#bfbfbf" points="2452,-436.5 2452,-466.5 2586,-466.5 2586,-436.5 2452,-436.5"/>
<text text-anchor="start" x="2460" y="-454.5" font-family="Helvetica,sans-Serif" font-size="10.00">m_Do/m_Do_machine/asm</text>
<text text-anchor="middle" x="2519" y="-443.5" font-family="Helvetica,sans-Serif" font-size="10.00">/func_8000BCF8.s</text>
</a>
</g>
</g>
<!-- Node1&#45;&gt;Node32 -->
<g id="edge53" class="edge">
<title>Node1&#45;&gt;Node32</title>
<path fill="none" stroke="midnightblue" d="M1528.73,-512.24C1691.76,-511.98 2095.22,-507.06 2441.96,-467"/>
<polygon fill="midnightblue" stroke="midnightblue" points="2442.42,-470.47 2451.94,-465.83 2441.61,-463.52 2442.42,-470.47"/>
</g>
<!-- Node33 -->
<g id="node33" class="node">
<title>Node33</title>
<g id="a_node33"><a xlink:title=" ">
<polygon fill="white" stroke="#bfbfbf" points="2604,-436.5 2604,-466.5 2738,-466.5 2738,-436.5 2604,-436.5"/>
<text text-anchor="start" x="2612" y="-454.5" font-family="Helvetica,sans-Serif" font-size="10.00">m_Do/m_Do_machine/asm</text>
<text text-anchor="middle" x="2671" y="-443.5" font-family="Helvetica,sans-Serif" font-size="10.00">/func_8000BD44.s</text>
</a>
</g>
</g>
<!-- Node1&#45;&gt;Node33 -->
<g id="edge54" class="edge">
<title>Node1&#45;&gt;Node33</title>
<path fill="none" stroke="midnightblue" d="M1528.66,-510.53C1743.51,-506.01 2367.98,-491.24 2593.82,-466.98"/>
<polygon fill="midnightblue" stroke="midnightblue" points="2594.39,-470.44 2603.95,-465.85 2593.62,-463.48 2594.39,-470.44"/>
</g>
<!-- Node3 -->
<g id="node3" class="node">
<title>Node3</title>
<g id="a_node3"><a xlink:href="JKRHeap_8h.html" target="_top" xlink:title=" ">
<polygon fill="white" stroke="black" points="518,-302.5 518,-332.5 654,-332.5 654,-302.5 518,-302.5"/>
<text text-anchor="start" x="526" y="-320.5" font-family="Helvetica,sans-Serif" font-size="10.00">JSystem/JKernel/JKRHeap</text>
<text text-anchor="middle" x="586" y="-309.5" font-family="Helvetica,sans-Serif" font-size="10.00">/JKRHeap.h</text>
</a>
</g>
</g>
<!-- Node2&#45;&gt;Node3 -->
<g id="edge2" class="edge">
<title>Node2&#45;&gt;Node3</title>
<path fill="none" stroke="midnightblue" d="M320.14,-369.48C375.5,-358.86 451.4,-344.31 507.93,-333.47"/>
<polygon fill="midnightblue" stroke="midnightblue" points="508.73,-336.88 517.89,-331.56 507.41,-330 508.73,-336.88"/>
</g>
<!-- Node6 -->
<g id="node6" class="node">
<title>Node6</title>
<g id="a_node6"><a xlink:href="types_8h.html" target="_top" xlink:title=" ">
<polygon fill="white" stroke="black" points="312.5,-0.5 312.5,-19.5 393.5,-19.5 393.5,-0.5 312.5,-0.5"/>
<text text-anchor="middle" x="353" y="-7.5" font-family="Helvetica,sans-Serif" font-size="10.00">dolphin/types.h</text>
</a>
</g>
</g>
<!-- Node2&#45;&gt;Node6 -->
<g id="edge28" class="edge">
<title>Node2&#45;&gt;Node6</title>
<path fill="none" stroke="midnightblue" d="M170.88,-376.32C98.3,-364.79 0,-334.81 0,-257 0,-257 0,-257 0,-126.5 0,-90.03 11.67,-76.25 42,-56 83.55,-28.26 224.81,-17.18 301.86,-13.12"/>
<polygon fill="midnightblue" stroke="midnightblue" points="302.47,-16.59 312.28,-12.59 302.12,-9.6 302.47,-16.59"/>
</g>
<!-- Node4 -->
<g id="node4" class="node">
<title>Node4</title>
<g id="a_node4"><a xlink:href="JKRDisposer_8h.html" target="_top" xlink:title=" ">
<polygon fill="white" stroke="black" points="368.5,-179.5 368.5,-209.5 519.5,-209.5 519.5,-179.5 368.5,-179.5"/>
<text text-anchor="start" x="376.5" y="-197.5" font-family="Helvetica,sans-Serif" font-size="10.00">JSystem/JKernel/JKRDisposer</text>
<text text-anchor="middle" x="444" y="-186.5" font-family="Helvetica,sans-Serif" font-size="10.00">/JKRDisposer.h</text>
</a>
</g>
</g>
<!-- Node3&#45;&gt;Node4 -->
<g id="edge3" class="edge">
<title>Node3&#45;&gt;Node4</title>
<path fill="none" stroke="midnightblue" d="M569.43,-302.38C544.53,-281.16 497.3,-240.91 468.43,-216.32"/>
<polygon fill="midnightblue" stroke="midnightblue" points="470.34,-213.35 460.46,-209.53 465.8,-218.68 470.34,-213.35"/>
</g>
<!-- Node3&#45;&gt;Node6 -->
<g id="edge7" class="edge">
<title>Node3&#45;&gt;Node6</title>
<path fill="none" stroke="midnightblue" d="M606.42,-302.28C632.98,-281.94 676,-241.84 676,-195.5 676,-195.5 676,-195.5 676,-126.5 676,-69.37 494.59,-33 403.67,-18.36"/>
<polygon fill="midnightblue" stroke="midnightblue" points="404.01,-14.87 393.58,-16.76 402.91,-21.78 404.01,-14.87"/>
</g>
<!-- Node3&#45;&gt;Node7 -->
<g id="edge8" class="edge">
<title>Node3&#45;&gt;Node7</title>
<path fill="none" stroke="midnightblue" d="M517.6,-303.4C514.7,-302.91 511.82,-302.44 509,-302 391.5,-283.55 251.3,-267.65 187.16,-260.72"/>
<polygon fill="midnightblue" stroke="midnightblue" points="187.49,-257.23 177.18,-259.64 186.75,-264.19 187.49,-257.23"/>
</g>
<!-- Node5 -->
<g id="node5" class="node">
<title>Node5</title>
<g id="a_node5"><a xlink:href="JSUList_8h.html" target="_top" xlink:title=" ">
<polygon fill="white" stroke="black" points="292,-112.5 292,-142.5 428,-142.5 428,-112.5 292,-112.5"/>
<text text-anchor="start" x="300" y="-130.5" font-family="Helvetica,sans-Serif" font-size="10.00">JSystem/JSupport/JSUList</text>
<text text-anchor="middle" x="360" y="-119.5" font-family="Helvetica,sans-Serif" font-size="10.00">/JSUList.h</text>
</a>
</g>
</g>
<!-- Node4&#45;&gt;Node5 -->
<g id="edge4" class="edge">
<title>Node4&#45;&gt;Node5</title>
<path fill="none" stroke="midnightblue" d="M425.77,-179.4C414.22,-170.45 399.08,-158.74 386.24,-148.8"/>
<polygon fill="midnightblue" stroke="midnightblue" points="388.24,-145.93 378.19,-142.58 383.96,-151.46 388.24,-145.93"/>
</g>
<!-- Node4&#45;&gt;Node6 -->
<g id="edge6" class="edge">
<title>Node4&#45;&gt;Node6</title>
<path fill="none" stroke="midnightblue" d="M445.28,-179.35C446.25,-162.61 446.12,-134.2 437,-112 422.53,-76.77 391.2,-44.53 371.15,-26.36"/>
<polygon fill="midnightblue" stroke="midnightblue" points="373.4,-23.68 363.59,-19.69 368.77,-28.93 373.4,-23.68"/>
</g>
<!-- Node5&#45;&gt;Node6 -->
<g id="edge5" class="edge">
<title>Node5&#45;&gt;Node6</title>
<path fill="none" stroke="midnightblue" d="M359.14,-112.34C357.89,-91.62 355.55,-53.02 354.15,-29.9"/>
<polygon fill="midnightblue" stroke="midnightblue" points="357.62,-29.44 353.53,-19.67 350.64,-29.86 357.62,-29.44"/>
</g>
<!-- Node7&#45;&gt;Node6 -->
<g id="edge9" class="edge">
<title>Node7&#45;&gt;Node6</title>
<path fill="none" stroke="midnightblue" d="M141.34,-246.13C106.82,-216.36 3.35,-118.42 57,-56 87.98,-19.95 225.78,-12.44 301.95,-11.09"/>
<polygon fill="midnightblue" stroke="midnightblue" points="302.33,-14.59 312.28,-10.94 302.23,-7.59 302.33,-14.59"/>
</g>
<!-- Node8 -->
<g id="node8" class="node">
<title>Node8</title>
<g id="a_node8"><a xlink:href="AR_8h.html" target="_top" xlink:title=" ">
<polygon fill="white" stroke="black" points="66.5,-56.5 66.5,-75.5 115.5,-75.5 115.5,-56.5 66.5,-56.5"/>
<text text-anchor="middle" x="91" y="-63.5" font-family="Helvetica,sans-Serif" font-size="10.00">ar/AR.h</text>
</a>
</g>
</g>
<!-- Node7&#45;&gt;Node8 -->
<g id="edge10" class="edge">
<title>Node7&#45;&gt;Node8</title>
<path fill="none" stroke="midnightblue" d="M146.31,-246.37C140.71,-237.55 132.26,-223.3 127,-210 109.94,-166.9 99.01,-113.24 94.06,-85.51"/>
<polygon fill="midnightblue" stroke="midnightblue" points="97.51,-84.88 92.36,-75.62 90.61,-86.07 97.51,-84.88"/>
</g>
<!-- Node9 -->
<g id="node9" class="node">
<title>Node9</title>
<g id="a_node9"><a xlink:href="ARQ_8h.html" target="_top" xlink:title=" ">
<polygon fill="white" stroke="black" points="134,-56.5 134,-75.5 190,-75.5 190,-56.5 134,-56.5"/>
<text text-anchor="middle" x="162" y="-63.5" font-family="Helvetica,sans-Serif" font-size="10.00">ar/ARQ.h</text>
</a>
</g>
</g>
<!-- Node7&#45;&gt;Node9 -->
<g id="edge12" class="edge">
<title>Node7&#45;&gt;Node9</title>
<path fill="none" stroke="midnightblue" d="M148.44,-246.43C139.61,-223.93 118.43,-161.49 133,-112 136.01,-101.76 142.15,-91.66 148.01,-83.63"/>
<polygon fill="midnightblue" stroke="midnightblue" points="150.93,-85.58 154.33,-75.54 145.41,-81.27 150.93,-85.58"/>
</g>
<!-- Node10 -->
<g id="node10" class="node">
<title>Node10</title>
<g id="a_node10"><a xlink:href="mwcc_8h.html" target="_top" xlink:title=" ">
<polygon fill="white" stroke="black" points="180,-185 180,-204 230,-204 230,-185 180,-185"/>
<text text-anchor="middle" x="205" y="-192" font-family="Helvetica,sans-Serif" font-size="10.00">mwcc.h</text>
</a>
</g>
</g>
<!-- Node7&#45;&gt;Node10 -->
<g id="edge14" class="edge">
<title>Node7&#45;&gt;Node10</title>
<path fill="none" stroke="midnightblue" d="M159.59,-246.48C167.7,-237.37 180.73,-222.74 190.76,-211.48"/>
<polygon fill="midnightblue" stroke="midnightblue" points="193.38,-213.8 197.42,-204.01 188.16,-209.15 193.38,-213.8"/>
</g>
<!-- Node11 -->
<g id="node11" class="node">
<title>Node11</title>
<g id="a_node11"><a xlink:href="OS_8h.html" target="_top" xlink:title=" ">
<polygon fill="white" stroke="black" points="142,-118 142,-137 194,-137 194,-118 142,-118"/>
<text text-anchor="middle" x="168" y="-125" font-family="Helvetica,sans-Serif" font-size="10.00">os/OS.h</text>
</a>
</g>
</g>
<!-- Node7&#45;&gt;Node11 -->
<g id="edge15" class="edge">
<title>Node7&#45;&gt;Node11</title>
<path fill="none" stroke="midnightblue" d="M153.1,-246.31C155.67,-225.99 162.11,-175.05 165.63,-147.28"/>
<polygon fill="midnightblue" stroke="midnightblue" points="169.11,-147.62 166.89,-137.26 162.17,-146.74 169.11,-147.62"/>
</g>
<!-- Node13 -->
<g id="node13" class="node">
<title>Node13</title>
<g id="a_node13"><a xlink:href="variables_8h.html" target="_top" xlink:title=" ">
<polygon fill="white" stroke="black" points="248.5,-185 248.5,-204 311.5,-204 311.5,-185 248.5,-185"/>
<text text-anchor="middle" x="280" y="-192" font-family="Helvetica,sans-Serif" font-size="10.00">variables.h</text>
</a>
</g>
</g>
<!-- Node7&#45;&gt;Node13 -->
<g id="edge19" class="edge">
<title>Node7&#45;&gt;Node13</title>
<path fill="none" stroke="midnightblue" d="M170.34,-246.48C191.82,-236.49 227.62,-219.85 252.45,-208.31"/>
<polygon fill="midnightblue" stroke="midnightblue" points="254.1,-211.4 261.69,-204.01 251.15,-205.05 254.1,-211.4"/>
</g>
<!-- Node8&#45;&gt;Node6 -->
<g id="edge11" class="edge">
<title>Node8&#45;&gt;Node6</title>
<path fill="none" stroke="midnightblue" d="M115.84,-58.23C118.92,-57.45 122.03,-56.69 125,-56 185.67,-42 256.05,-28.52 302.39,-20.03"/>
<polygon fill="midnightblue" stroke="midnightblue" points="303.26,-23.43 312.47,-18.19 302.01,-16.54 303.26,-23.43"/>
</g>
<!-- Node9&#45;&gt;Node6 -->
<g id="edge13" class="edge">
<title>Node9&#45;&gt;Node6</title>
<path fill="none" stroke="midnightblue" d="M190.18,-57.03C222.62,-47.86 276.15,-32.73 312.91,-22.33"/>
<polygon fill="midnightblue" stroke="midnightblue" points="314.14,-25.62 322.81,-19.54 312.23,-18.89 314.14,-25.62"/>
</g>
<!-- Node11&#45;&gt;Node6 -->
<g id="edge16" class="edge">
<title>Node11&#45;&gt;Node6</title>
<path fill="none" stroke="midnightblue" d="M188.1,-117.86C214.85,-106.23 260.57,-85.87 276,-76 298.63,-61.52 321.82,-41.02 336.75,-26.94"/>
<polygon fill="midnightblue" stroke="midnightblue" points="339.34,-29.3 344.14,-19.85 334.5,-24.25 339.34,-29.3"/>
</g>
<!-- Node12 -->
<g id="node12" class="node">
<title>Node12</title>
<g id="a_node12"><a xlink:href="dvd_8h.html" target="_top" xlink:title=" ">
<polygon fill="white" stroke="black" points="208.5,-56.5 208.5,-75.5 267.5,-75.5 267.5,-56.5 208.5,-56.5"/>
<text text-anchor="middle" x="238" y="-63.5" font-family="Helvetica,sans-Serif" font-size="10.00">dvd/dvd.h</text>
</a>
</g>
</g>
<!-- Node11&#45;&gt;Node12 -->
<g id="edge17" class="edge">
<title>Node11&#45;&gt;Node12</title>
<path fill="none" stroke="midnightblue" d="M178.03,-117.98C189.05,-108.61 206.96,-93.38 220.34,-82.01"/>
<polygon fill="midnightblue" stroke="midnightblue" points="222.64,-84.65 227.99,-75.51 218.1,-79.32 222.64,-84.65"/>
</g>
<!-- Node12&#45;&gt;Node6 -->
<g id="edge18" class="edge">
<title>Node12&#45;&gt;Node6</title>
<path fill="none" stroke="midnightblue" d="M256.22,-56.44C274.9,-47.68 304.16,-33.94 325.62,-23.86"/>
<polygon fill="midnightblue" stroke="midnightblue" points="327.3,-26.93 334.86,-19.52 324.32,-20.6 327.3,-26.93"/>
</g>
<!-- Node13&#45;&gt;Node5 -->
<g id="edge20" class="edge">
<title>Node13&#45;&gt;Node5</title>
<path fill="none" stroke="midnightblue" d="M290.79,-184.73C302.02,-175.61 320,-161 334.81,-148.96"/>
<polygon fill="midnightblue" stroke="midnightblue" points="337.11,-151.61 342.66,-142.59 332.69,-146.18 337.11,-151.61"/>
</g>
<!-- Node14 -->
<g id="node14" class="node">
<title>Node14</title>
<g id="a_node14"><a xlink:href="JUTXfb_8h.html" target="_top" xlink:title=" ">
<polygon fill="white" stroke="black" points="522.5,-112.5 522.5,-142.5 647.5,-142.5 647.5,-112.5 522.5,-112.5"/>
<text text-anchor="start" x="530.5" y="-130.5" font-family="Helvetica,sans-Serif" font-size="10.00">JSystem/JUtility/JUTXfb</text>
<text text-anchor="middle" x="585" y="-119.5" font-family="Helvetica,sans-Serif" font-size="10.00">/JUTXfb.h</text>
</a>
</g>
</g>
<!-- Node13&#45;&gt;Node14 -->
<g id="edge21" class="edge">
<title>Node13&#45;&gt;Node14</title>
<path fill="none" stroke="midnightblue" d="M311.78,-186.73C358.92,-176.68 448.66,-157.56 512.42,-143.97"/>
<polygon fill="midnightblue" stroke="midnightblue" points="513.37,-147.34 522.42,-141.84 511.91,-140.5 513.37,-147.34"/>
</g>
<!-- Node16 -->
<g id="node16" class="node">
<title>Node16</title>
<g id="a_node16"><a xlink:href="mtx__vec_8h.html" target="_top" xlink:title=" ">
<polygon fill="white" stroke="black" points="212.5,-118 212.5,-137 273.5,-137 273.5,-118 212.5,-118"/>
<text text-anchor="middle" x="243" y="-125" font-family="Helvetica,sans-Serif" font-size="10.00">mtx_vec.h</text>
</a>
</g>
</g>
<!-- Node13&#45;&gt;Node16 -->
<g id="edge26" class="edge">
<title>Node13&#45;&gt;Node16</title>
<path fill="none" stroke="midnightblue" d="M275.01,-184.73C269.41,-174.89 260.17,-158.66 253.05,-146.16"/>
<polygon fill="midnightblue" stroke="midnightblue" points="255.9,-144.09 247.91,-137.13 249.82,-147.55 255.9,-144.09"/>
</g>
<!-- Node14&#45;&gt;Node3 -->
<g id="edge22" class="edge">
<title>Node14&#45;&gt;Node3</title>
<path fill="none" stroke="midnightblue" d="M585.07,-142.54C585.24,-174.37 585.66,-252.37 585.87,-292.21"/>
<polygon fill="midnightblue" stroke="midnightblue" points="582.37,-292.39 585.92,-302.37 589.37,-292.35 582.37,-292.39"/>
</g>
<!-- Node14&#45;&gt;Node6 -->
<g id="edge23" class="edge">
<title>Node14&#45;&gt;Node6</title>
<path fill="none" stroke="midnightblue" d="M580.78,-112.26C575.24,-96.1 563.93,-70.17 545,-56 504.06,-25.36 445.55,-15.16 403.89,-11.97"/>
<polygon fill="midnightblue" stroke="midnightblue" points="403.9,-8.46 393.69,-11.3 403.44,-15.45 403.9,-8.46"/>
</g>
<!-- Node15 -->
<g id="node15" class="node">
<title>Node15</title>
<g id="a_node15"><a xlink:href="GX_8h.html" target="_top" xlink:title=" ">
<polygon fill="white" stroke="black" points="484.5,-56.5 484.5,-75.5 535.5,-75.5 535.5,-56.5 484.5,-56.5"/>
<text text-anchor="middle" x="510" y="-63.5" font-family="Helvetica,sans-Serif" font-size="10.00">gx/GX.h</text>
</a>
</g>
</g>
<!-- Node14&#45;&gt;Node15 -->
<g id="edge24" class="edge">
<title>Node14&#45;&gt;Node15</title>
<path fill="none" stroke="midnightblue" d="M567.23,-112.4C555.65,-103.22 540.58,-91.26 528.8,-81.92"/>
<polygon fill="midnightblue" stroke="midnightblue" points="530.92,-79.13 520.91,-75.66 526.57,-84.61 530.92,-79.13"/>
</g>
<!-- Node15&#45;&gt;Node6 -->
<g id="edge25" class="edge">
<title>Node15&#45;&gt;Node6</title>
<path fill="none" stroke="midnightblue" d="M485.12,-56.44C458.71,-47.36 416.78,-32.94 387.26,-22.78"/>
<polygon fill="midnightblue" stroke="midnightblue" points="388.36,-19.46 377.76,-19.52 386.08,-26.08 388.36,-19.46"/>
</g>
<!-- Node16&#45;&gt;Node6 -->
<g id="edge27" class="edge">
<title>Node16&#45;&gt;Node6</title>
<path fill="none" stroke="midnightblue" d="M257.19,-117.86C271.58,-108.65 293.93,-93.08 310,-76 323.57,-61.56 335.69,-42.37 343.57,-28.59"/>
<polygon fill="midnightblue" stroke="midnightblue" points="346.74,-30.1 348.53,-19.66 340.62,-26.71 346.74,-30.1"/>
</g>
<!-- Node17&#45;&gt;Node3 -->
<g id="edge30" class="edge">
<title>Node17&#45;&gt;Node3</title>
<path fill="none" stroke="midnightblue" d="M615.88,-436.32C612.25,-420.03 606,-392.51 600,-369 597.79,-360.32 595.21,-350.85 592.87,-342.48"/>
<polygon fill="midnightblue" stroke="midnightblue" points="596.16,-341.28 590.08,-332.61 589.43,-343.18 596.16,-341.28"/>
</g>
<!-- Node17&#45;&gt;Node5 -->
<g id="edge31" class="edge">
<title>Node17&#45;&gt;Node5</title>
<path fill="none" stroke="midnightblue" d="M546.48,-443.19C481.41,-432.04 391.74,-403.92 362,-333 336.52,-272.24 346.93,-192.12 354.58,-152.63"/>
<polygon fill="midnightblue" stroke="midnightblue" points="358.06,-153.12 356.64,-142.62 351.2,-151.71 358.06,-153.12"/>
</g>
<!-- Node17&#45;&gt;Node6 -->
<g id="edge37" class="edge">
<title>Node17&#45;&gt;Node6</title>
<path fill="none" stroke="midnightblue" d="M638.68,-436.31C666.51,-414.43 714,-369.6 714,-318.5 714,-318.5 714,-318.5 714,-126.5 714,-72.48 664.87,-76.76 615,-56 545.35,-27.01 457.82,-16.69 403.65,-13.02"/>
<polygon fill="midnightblue" stroke="midnightblue" points="403.8,-9.53 393.6,-12.39 403.36,-16.51 403.8,-9.53"/>
</g>
<!-- Node18 -->
<g id="node18" class="node">
<title>Node18</title>
<g id="a_node18"><a xlink:href="JUTResFont_8h.html" target="_top" xlink:title=" ">
<polygon fill="white" stroke="black" points="437,-375 437,-394 591,-394 591,-375 437,-375"/>
<text text-anchor="middle" x="514" y="-382" font-family="Helvetica,sans-Serif" font-size="10.00">JSystem/JUtility/JUTResFont.h</text>
</a>
</g>
</g>
<!-- Node17&#45;&gt;Node18 -->
<g id="edge32" class="edge">
<title>Node17&#45;&gt;Node18</title>
<path fill="none" stroke="midnightblue" d="M596.22,-436.4C578.45,-425.39 553.9,-410.2 536.26,-399.28"/>
<polygon fill="midnightblue" stroke="midnightblue" points="538.09,-396.29 527.74,-394.01 534.4,-402.25 538.09,-396.29"/>
</g>
<!-- Node18&#45;&gt;Node3 -->
<g id="edge33" class="edge">
<title>Node18&#45;&gt;Node3</title>
<path fill="none" stroke="midnightblue" d="M523.71,-374.73C533.72,-365.7 549.7,-351.27 562.96,-339.3"/>
<polygon fill="midnightblue" stroke="midnightblue" points="565.32,-341.89 570.39,-332.59 560.63,-336.69 565.32,-341.89"/>
</g>
<!-- Node19 -->
<g id="node19" class="node">
<title>Node19</title>
<g id="a_node19"><a xlink:href="JUTFont_8h.html" target="_top" xlink:title=" ">
<polygon fill="white" stroke="black" points="370.5,-302.5 370.5,-332.5 499.5,-332.5 499.5,-302.5 370.5,-302.5"/>
<text text-anchor="start" x="378.5" y="-320.5" font-family="Helvetica,sans-Serif" font-size="10.00">JSystem/JUtility/JUTFont</text>
<text text-anchor="middle" x="435" y="-309.5" font-family="Helvetica,sans-Serif" font-size="10.00">/JUTFont.h</text>
</a>
</g>
</g>
<!-- Node18&#45;&gt;Node19 -->
<g id="edge34" class="edge">
<title>Node18&#45;&gt;Node19</title>
<path fill="none" stroke="midnightblue" d="M503.35,-374.73C492.26,-365.61 474.5,-351 459.87,-338.96"/>
<polygon fill="midnightblue" stroke="midnightblue" points="462.07,-336.24 452.12,-332.59 457.62,-341.65 462.07,-336.24"/>
</g>
<!-- Node19&#45;&gt;Node7 -->
<g id="edge35" class="edge">
<title>Node19&#45;&gt;Node7</title>
<path fill="none" stroke="midnightblue" d="M370.43,-302.92C313.52,-290.96 232.77,-273.98 187.08,-264.37"/>
<polygon fill="midnightblue" stroke="midnightblue" points="187.57,-260.9 177.06,-262.27 186.13,-267.75 187.57,-260.9"/>
</g>
<!-- Node19&#45;&gt;Node15 -->
<g id="edge36" class="edge">
<title>Node19&#45;&gt;Node15</title>
<path fill="none" stroke="midnightblue" d="M453.87,-302.44C476.72,-284.11 514,-249.68 529,-210 533.87,-197.11 531.7,-192.51 529,-179 525.6,-162 517.84,-159.9 514,-143 509.66,-123.9 509,-101.44 509.22,-85.92"/>
<polygon fill="midnightblue" stroke="midnightblue" points="512.73,-85.66 509.51,-75.56 505.73,-85.46 512.73,-85.66"/>
</g>
<!-- Node20&#45;&gt;Node6 -->
<g id="edge41" class="edge">
<title>Node20&#45;&gt;Node6</title>
<path fill="none" stroke="midnightblue" d="M803.43,-179.29C795.41,-150.55 773.01,-85.77 728,-56 675.92,-21.55 493.77,-13.45 403.91,-11.56"/>
<polygon fill="midnightblue" stroke="midnightblue" points="403.75,-8.06 393.69,-11.37 403.62,-15.06 403.75,-8.06"/>
</g>
<!-- Node20&#45;&gt;Node14 -->
<g id="edge40" class="edge">
<title>Node20&#45;&gt;Node14</title>
<path fill="none" stroke="midnightblue" d="M759.1,-179.48C725.08,-169.51 679.22,-156.09 643.1,-145.51"/>
<polygon fill="midnightblue" stroke="midnightblue" points="643.77,-142.06 633.19,-142.61 641.81,-148.78 643.77,-142.06"/>
</g>
</g>
</svg>
        <g id="navigator" transform="translate(0 0)" fill="#404254">
                <rect fill="#f2f5e9" fill-opacity="0.5" stroke="#606060" stroke-width=".5" x="0" y="0" width="60" height="60"/>
                <use id="zoomplus" xlink:href="#zoomPlus" x="17" y="9" onmousedown="handleZoom(evt,'in')"/>
                <use id="zoomminus" xlink:href="#zoomMin" x="42" y="9" onmousedown="handleZoom(evt,'out')"/>
                <use id="reset" xlink:href="#resetDef" x="30" y="36" onmousedown="handleReset()"/>
                <g id="arrowUp" xlink:href="#dirArrow" transform="translate(30 24)" onmousedown="handlePan(0,-1)">
                  <use xlink:href="#rim" fill="#404040">
                        <set attributeName="fill" to="#808080" begin="arrowUp.mouseover" end="arrowUp.mouseout"/>
                  </use>
                  <path fill="none" stroke="white" stroke-width="1.5" d="M0,-3.0v7 M-2.5,-0.5L0,-3.0L2.5,-0.5"/>
                </g>
                <g id="arrowRight" xlink:href="#dirArrow" transform="rotate(90) translate(36 -43)" onmousedown="handlePan(1,0)">
                  <use xlink:href="#rim" fill="#404040">
                        <set attributeName="fill" to="#808080" begin="arrowRight.mouseover" end="arrowRight.mouseout"/>
                  </use>
                  <path fill="none" stroke="white" stroke-width="1.5" d="M0,-3.0v7 M-2.5,-0.5L0,-3.0L2.5,-0.5"/>
                </g>
                <g id="arrowDown" xlink:href="#dirArrow" transform="rotate(180) translate(-30 -48)" onmousedown="handlePan(0,1)">
                  <use xlink:href="#rim" fill="#404040">
                        <set attributeName="fill" to="#808080" begin="arrowDown.mouseover" end="arrowDown.mouseout"/>
                  </use>
                  <path fill="none" stroke="white" stroke-width="1.5" d="M0,-3.0v7 M-2.5,-0.5L0,-3.0L2.5,-0.5"/>
                </g>
                <g id="arrowLeft" xlink:href="#dirArrow" transform="rotate(270) translate(-36 17)" onmousedown="handlePan(-1,0)">
                  <use xlink:href="#rim" fill="#404040">
                        <set attributeName="fill" to="#808080" begin="arrowLeft.mouseover" end="arrowLeft.mouseout"/>
                  </use>
                  <path fill="none" stroke="white" stroke-width="1.5" d="M0,-3.0v7 M-2.5,-0.5L0,-3.0L2.5,-0.5"/>
                </g>
        </g>
        <svg viewBox="0 0 15 15" width="100%" height="30px" preserveAspectRatio="xMaxYMin meet">
         <g id="arrow_out" transform="scale(0.3 0.3)">
          <a xlink:href="m__Do__machine_8cpp__incl_org.svg" target="_base">
           <rect id="button" ry="5" rx="5" y="6" x="6" height="38" width="38"
                fill="#f2f5e9" fill-opacity="0.5" stroke="#606060" stroke-width="1.0"/>
           <path id="arrow"
             d="M 11.500037,31.436501 C 11.940474,20.09759 22.043105,11.32322 32.158766,21.979434 L 37.068811,17.246167 C 37.068811,17.246167 37.088388,32 37.088388,32 L 22.160133,31.978069 C 22.160133,31.978069 26.997745,27.140456 26.997745,27.140456 C 18.528582,18.264221 13.291696,25.230495 11.500037,31.436501 z"
             style="fill:#404040;"/>
          </a>
         </g>
        </svg>
</svg>
