<?xml version="1.0" encoding="UTF-8" standalone="no"?>
<!DOCTYPE svg PUBLIC "-//W3C//DTD SVG 1.1//EN"
 "http://www.w3.org/Graphics/SVG/1.1/DTD/svg11.dtd">
<!-- Generated by graphviz version 2.46.0 (20210122.1329)
 -->
<!-- Title: include/mtx_vec.h Pages: 1 -->
<svg width="5922pt" height="285pt"
 viewBox="0.00 0.00 5922.00 285.00" xmlns="http://www.w3.org/2000/svg" xmlns:xlink="http://www.w3.org/1999/xlink">
<g id="graph0" class="graph" transform="scale(1 1) rotate(0) translate(4 281)">
<title>include/mtx_vec.h</title>
<polygon fill="white" stroke="transparent" points="-4,4 -4,-281 5918,-281 5918,4 -4,4"/>
<!-- Node1 -->
<g id="node1" class="node">
<title>Node1</title>
<g id="a_node1"><a xlink:title=" ">
<polygon fill="#bfbfbf" stroke="black" points="3625,-257.5 3625,-276.5 3720,-276.5 3720,-257.5 3625,-257.5"/>
<text text-anchor="middle" x="3672.5" y="-264.5" font-family="Helvetica,sans-Serif" font-size="10.00">include/mtx_vec.h</text>
</a>
</g>
</g>
<!-- Node2 -->
<g id="node2" class="node">
<title>Node2</title>
<g id="a_node2"><a xlink:href="c__m3d__g__lin_8cpp.html" target="_top" xlink:title=" ">
<polygon fill="white" stroke="black" points="3471.5,-190.5 3471.5,-220.5 3605.5,-220.5 3605.5,-190.5 3471.5,-190.5"/>
<text text-anchor="start" x="3479.5" y="-208.5" font-family="Helvetica,sans-Serif" font-size="10.00">libs/SSystem/SComponent</text>
<text text-anchor="middle" x="3538.5" y="-197.5" font-family="Helvetica,sans-Serif" font-size="10.00">/c_m3d_g_lin.cpp</text>
</a>
</g>
</g>
<!-- Node1&#45;&gt;Node2 -->
<g id="edge1" class="edge">
<title>Node1&#45;&gt;Node2</title>
<path fill="none" stroke="midnightblue" d="M3643.97,-253.33C3622.29,-243.7 3592.48,-230.47 3570.08,-220.52"/>
<polygon fill="midnightblue" stroke="midnightblue" points="3642.74,-256.62 3653.3,-257.48 3645.58,-250.22 3642.74,-256.62"/>
</g>
<!-- Node3 -->
<g id="node3" class="node">
<title>Node3</title>
<g id="a_node3"><a xlink:href="functions_8h.html" target="_top" xlink:title=" ">
<polygon fill="white" stroke="black" points="3623.5,-196 3623.5,-215 3721.5,-215 3721.5,-196 3623.5,-196"/>
<text text-anchor="middle" x="3672.5" y="-203" font-family="Helvetica,sans-Serif" font-size="10.00">include/functions.h</text>
</a>
</g>
</g>
<!-- Node1&#45;&gt;Node3 -->
<g id="edge2" class="edge">
<title>Node1&#45;&gt;Node3</title>
<path fill="none" stroke="midnightblue" d="M3672.5,-247.32C3672.5,-236.5 3672.5,-223.4 3672.5,-215.01"/>
<polygon fill="midnightblue" stroke="midnightblue" points="3669,-247.48 3672.5,-257.48 3676,-247.48 3669,-247.48"/>
</g>
<!-- Node171 -->
<g id="node49" class="node">
<title>Node171</title>
<g id="a_node49"><a xlink:href="J2DPane_8h.html" target="_top" xlink:title=" ">
<polygon fill="white" stroke="black" points="5779,-67.5 5779,-97.5 5914,-97.5 5914,-67.5 5779,-67.5"/>
<text text-anchor="start" x="5787" y="-85.5" font-family="Helvetica,sans-Serif" font-size="10.00">include/JSystem/J2DGraph</text>
<text text-anchor="middle" x="5846.5" y="-74.5" font-family="Helvetica,sans-Serif" font-size="10.00">/J2DPane.h</text>
</a>
</g>
</g>
<!-- Node1&#45;&gt;Node171 -->
<g id="edge50" class="edge">
<title>Node1&#45;&gt;Node171</title>
<path fill="none" stroke="midnightblue" d="M3730.54,-263.67C3977.61,-253.25 4965.94,-206.64 5770.5,-98 5773.16,-97.64 5775.87,-97.25 5778.61,-96.83"/>
<polygon fill="midnightblue" stroke="midnightblue" points="3730.2,-260.18 3720.35,-264.09 3730.49,-267.17 3730.2,-260.18"/>
</g>
<!-- Node4 -->
<g id="node4" class="node">
<title>Node4</title>
<g id="a_node4"><a xlink:href="global_8h.html" target="_top" xlink:title=" ">
<polygon fill="white" stroke="red" points="2932,-134.5 2932,-153.5 3015,-153.5 3015,-134.5 2932,-134.5"/>
<text text-anchor="middle" x="2973.5" y="-141.5" font-family="Helvetica,sans-Serif" font-size="10.00">include/global.h</text>
</a>
</g>
</g>
<!-- Node3&#45;&gt;Node4 -->
<g id="edge3" class="edge">
<title>Node3&#45;&gt;Node4</title>
<path fill="none" stroke="midnightblue" d="M3632.64,-193.57C3626.6,-192.19 3620.41,-190.94 3614.5,-190 3390.29,-154.38 3117.49,-146.96 3015.03,-145.41"/>
<polygon fill="midnightblue" stroke="midnightblue" points="3632.06,-197.03 3642.6,-195.96 3633.7,-190.22 3632.06,-197.03"/>
</g>
<!-- Node5 -->
<g id="node5" class="node">
<title>Node5</title>
<g id="a_node5"><a xlink:href="d__a__horse__static_8cpp.html" target="_top" xlink:title=" ">
<polygon fill="white" stroke="black" points="0,-67.5 0,-97.5 105,-97.5 105,-67.5 0,-67.5"/>
<text text-anchor="start" x="8" y="-85.5" font-family="Helvetica,sans-Serif" font-size="10.00">src/d/d_a/d_a_horse</text>
<text text-anchor="middle" x="52.5" y="-74.5" font-family="Helvetica,sans-Serif" font-size="10.00">_static.cpp</text>
</a>
</g>
</g>
<!-- Node4&#45;&gt;Node5 -->
<g id="edge4" class="edge">
<title>Node4&#45;&gt;Node5</title>
<path fill="none" stroke="midnightblue" d="M2921.64,-142.85C2558.54,-141.73 403.11,-133.6 114.5,-98 111.43,-97.62 108.29,-97.15 105.13,-96.62"/>
<polygon fill="midnightblue" stroke="midnightblue" points="2921.85,-146.35 2931.86,-142.88 2921.87,-139.35 2921.85,-146.35"/>
</g>
<!-- Node6 -->
<g id="node6" class="node">
<title>Node6</title>
<g id="a_node6"><a xlink:href="d__a__item__static_8cpp.html" target="_top" xlink:title=" ">
<polygon fill="white" stroke="black" points="123.5,-67.5 123.5,-97.5 223.5,-97.5 223.5,-67.5 123.5,-67.5"/>
<text text-anchor="start" x="131.5" y="-85.5" font-family="Helvetica,sans-Serif" font-size="10.00">src/d/d_a/d_a_item</text>
<text text-anchor="middle" x="173.5" y="-74.5" font-family="Helvetica,sans-Serif" font-size="10.00">_static.cpp</text>
</a>
</g>
</g>
<!-- Node4&#45;&gt;Node6 -->
<g id="edge5" class="edge">
<title>Node4&#45;&gt;Node6</title>
<path fill="none" stroke="midnightblue" d="M2921.57,-142.85C2566.98,-141.73 508.41,-133.71 232.5,-98 229.57,-97.62 226.58,-97.15 223.57,-96.62"/>
<polygon fill="midnightblue" stroke="midnightblue" points="2921.79,-146.35 2931.8,-142.88 2921.81,-139.35 2921.79,-146.35"/>
</g>
<!-- Node7 -->
<g id="node7" class="node">
<title>Node7</title>
<g id="a_node7"><a xlink:href="d__attention_8cpp.html" target="_top" xlink:title=" ">
<polygon fill="white" stroke="black" points="242,-73 242,-92 349,-92 349,-73 242,-73"/>
<text text-anchor="middle" x="295.5" y="-80" font-family="Helvetica,sans-Serif" font-size="10.00">src/d/d_attention.cpp</text>
</a>
</g>
</g>
<!-- Node4&#45;&gt;Node7 -->
<g id="edge6" class="edge">
<title>Node4&#45;&gt;Node7</title>
<path fill="none" stroke="midnightblue" d="M2921.79,-142.77C2577.31,-141.16 620.45,-130.63 357.5,-98 347.19,-96.72 336.09,-94.43 326.17,-92.03"/>
<polygon fill="midnightblue" stroke="midnightblue" points="2921.96,-146.27 2931.97,-142.82 2921.99,-139.27 2921.96,-146.27"/>
</g>
<!-- Node8 -->
<g id="node8" class="node">
<title>Node8</title>
<g id="a_node8"><a xlink:href="d__bg__s__poly__pass__chk_8cpp.html" target="_top" xlink:title=" ">
<polygon fill="white" stroke="black" points="367,-67.5 367,-97.5 486,-97.5 486,-67.5 367,-67.5"/>
<text text-anchor="start" x="375" y="-85.5" font-family="Helvetica,sans-Serif" font-size="10.00">src/d/d_bg/d_bg_s_poly</text>
<text text-anchor="middle" x="426.5" y="-74.5" font-family="Helvetica,sans-Serif" font-size="10.00">_pass_chk.cpp</text>
</a>
</g>
</g>
<!-- Node4&#45;&gt;Node8 -->
<g id="edge7" class="edge">
<title>Node4&#45;&gt;Node8</title>
<path fill="none" stroke="midnightblue" d="M2921.38,-142.66C2586.47,-140.36 743.18,-126.5 494.5,-98 491.74,-97.68 488.93,-97.31 486.1,-96.88"/>
<polygon fill="midnightblue" stroke="midnightblue" points="2921.73,-146.16 2931.75,-142.73 2921.78,-139.16 2921.73,-146.16"/>
</g>
<!-- Node9 -->
<g id="node9" class="node">
<title>Node9</title>
<g id="a_node9"><a xlink:href="d__com__inf__game_8cpp.html" target="_top" xlink:title=" ">
<polygon fill="white" stroke="black" points="504,-67.5 504,-97.5 623,-97.5 623,-67.5 504,-67.5"/>
<text text-anchor="start" x="512" y="-85.5" font-family="Helvetica,sans-Serif" font-size="10.00">src/d/d_com/d_com_inf</text>
<text text-anchor="middle" x="563.5" y="-74.5" font-family="Helvetica,sans-Serif" font-size="10.00">_game.cpp</text>
</a>
</g>
</g>
<!-- Node4&#45;&gt;Node9 -->
<g id="edge8" class="edge">
<title>Node4&#45;&gt;Node9</title>
<path fill="none" stroke="midnightblue" d="M2921.71,-142.6C2598.61,-140.01 865.8,-124.98 631.5,-98 628.74,-97.68 625.93,-97.3 623.1,-96.88"/>
<polygon fill="midnightblue" stroke="midnightblue" points="2921.7,-146.1 2931.73,-142.68 2921.76,-139.1 2921.7,-146.1"/>
</g>
<!-- Node10 -->
<g id="node10" class="node">
<title>Node10</title>
<g id="a_node10"><a xlink:href="d__file__sel__info_8cpp.html" target="_top" xlink:title=" ">
<polygon fill="white" stroke="black" points="641,-67.5 641,-97.5 730,-97.5 730,-67.5 641,-67.5"/>
<text text-anchor="start" x="649" y="-85.5" font-family="Helvetica,sans-Serif" font-size="10.00">src/d/d_file/d_file</text>
<text text-anchor="middle" x="685.5" y="-74.5" font-family="Helvetica,sans-Serif" font-size="10.00">_sel_info.cpp</text>
</a>
</g>
</g>
<!-- Node4&#45;&gt;Node10 -->
<g id="edge9" class="edge">
<title>Node4&#45;&gt;Node10</title>
<path fill="none" stroke="midnightblue" d="M2921.59,-142.72C2606.91,-140.94 960.68,-130.12 738.5,-98 735.76,-97.6 732.96,-97.11 730.16,-96.55"/>
<polygon fill="midnightblue" stroke="midnightblue" points="2921.78,-146.22 2931.8,-142.78 2921.82,-139.22 2921.78,-146.22"/>
</g>
<!-- Node11 -->
<g id="node11" class="node">
<title>Node11</title>
<g id="a_node11"><a xlink:href="d__item_8cpp.html" target="_top" xlink:title=" ">
<polygon fill="white" stroke="black" points="748,-73 748,-92 869,-92 869,-73 748,-73"/>
<text text-anchor="middle" x="808.5" y="-80" font-family="Helvetica,sans-Serif" font-size="10.00">src/d/d_item/d_item.cpp</text>
</a>
</g>
</g>
<!-- Node4&#45;&gt;Node11 -->
<g id="edge10" class="edge">
<title>Node4&#45;&gt;Node11</title>
<path fill="none" stroke="midnightblue" d="M2921.58,-143.19C2639.76,-144.04 1291.18,-145.49 877.5,-98 866.19,-96.7 853.99,-94.43 843.04,-92.07"/>
<polygon fill="midnightblue" stroke="midnightblue" points="2921.93,-146.69 2931.92,-143.16 2921.91,-139.69 2921.93,-146.69"/>
</g>
<!-- Node12 -->
<g id="node12" class="node">
<title>Node12</title>
<g id="a_node12"><a xlink:href="d__kankyo__data_8cpp.html" target="_top" xlink:title=" ">
<polygon fill="white" stroke="black" points="887,-67.5 887,-97.5 1014,-97.5 1014,-67.5 887,-67.5"/>
<text text-anchor="start" x="895" y="-85.5" font-family="Helvetica,sans-Serif" font-size="10.00">src/d/d_kankyo/d_kankyo</text>
<text text-anchor="middle" x="950.5" y="-74.5" font-family="Helvetica,sans-Serif" font-size="10.00">_data.cpp</text>
</a>
</g>
</g>
<!-- Node4&#45;&gt;Node12 -->
<g id="edge11" class="edge">
<title>Node4&#45;&gt;Node12</title>
<path fill="none" stroke="midnightblue" d="M2921.33,-143.04C2650.83,-143.04 1405.87,-140.69 1022.5,-98 1019.71,-97.69 1016.87,-97.33 1014.01,-96.92"/>
<polygon fill="midnightblue" stroke="midnightblue" points="2921.64,-146.54 2931.64,-143.04 2921.64,-139.54 2921.64,-146.54"/>
</g>
<!-- Node13 -->
<g id="node13" class="node">
<title>Node13</title>
<g id="a_node13"><a xlink:href="d__kankyo__rain_8cpp.html" target="_top" xlink:title=" ">
<polygon fill="white" stroke="black" points="1032,-67.5 1032,-97.5 1159,-97.5 1159,-67.5 1032,-67.5"/>
<text text-anchor="start" x="1040" y="-85.5" font-family="Helvetica,sans-Serif" font-size="10.00">src/d/d_kankyo/d_kankyo</text>
<text text-anchor="middle" x="1095.5" y="-74.5" font-family="Helvetica,sans-Serif" font-size="10.00">_rain.cpp</text>
</a>
</g>
</g>
<!-- Node4&#45;&gt;Node13 -->
<g id="edge12" class="edge">
<title>Node4&#45;&gt;Node13</title>
<path fill="none" stroke="midnightblue" d="M2921.52,-142.92C2663.7,-142.37 1520.65,-137.65 1167.5,-98 1164.71,-97.69 1161.87,-97.32 1159.01,-96.91"/>
<polygon fill="midnightblue" stroke="midnightblue" points="2921.71,-146.43 2931.72,-142.95 2921.73,-139.43 2921.71,-146.43"/>
</g>
<!-- Node14 -->
<g id="node14" class="node">
<title>Node14</title>
<g id="a_node14"><a xlink:href="d__kankyo__wether_8cpp.html" target="_top" xlink:title=" ">
<polygon fill="white" stroke="black" points="1177,-67.5 1177,-97.5 1304,-97.5 1304,-67.5 1177,-67.5"/>
<text text-anchor="start" x="1185" y="-85.5" font-family="Helvetica,sans-Serif" font-size="10.00">src/d/d_kankyo/d_kankyo</text>
<text text-anchor="middle" x="1240.5" y="-74.5" font-family="Helvetica,sans-Serif" font-size="10.00">_wether.cpp</text>
</a>
</g>
</g>
<!-- Node4&#45;&gt;Node14 -->
<g id="edge13" class="edge">
<title>Node4&#45;&gt;Node14</title>
<path fill="none" stroke="midnightblue" d="M2921.78,-142.79C2677.26,-141.64 1635.52,-134.63 1312.5,-98 1309.71,-97.68 1306.87,-97.32 1304.01,-96.9"/>
<polygon fill="midnightblue" stroke="midnightblue" points="2921.81,-146.29 2931.82,-142.84 2921.84,-139.29 2921.81,-146.29"/>
</g>
<!-- Node15 -->
<g id="node15" class="node">
<title>Node15</title>
<g id="a_node15"><a xlink:href="d__kankyo_8cpp.html" target="_top" xlink:title=" ">
<polygon fill="white" stroke="black" points="1322,-73 1322,-92 1423,-92 1423,-73 1322,-73"/>
<text text-anchor="middle" x="1372.5" y="-80" font-family="Helvetica,sans-Serif" font-size="10.00">src/d/d_kankyo.cpp</text>
</a>
</g>
</g>
<!-- Node4&#45;&gt;Node15 -->
<g id="edge14" class="edge">
<title>Node4&#45;&gt;Node15</title>
<path fill="none" stroke="midnightblue" d="M2921.74,-142.96C2687.94,-142.56 1728.97,-138.43 1431.5,-98 1421.78,-96.68 1411.34,-94.4 1401.98,-92.04"/>
<polygon fill="midnightblue" stroke="midnightblue" points="2921.99,-146.46 2932,-142.98 2922,-139.46 2921.99,-146.46"/>
</g>
<!-- Node16 -->
<g id="node16" class="node">
<title>Node16</title>
<g id="a_node16"><a xlink:href="d__kantera__icon__meter_8cpp.html" target="_top" xlink:title=" ">
<polygon fill="white" stroke="black" points="1441,-67.5 1441,-97.5 1548,-97.5 1548,-67.5 1441,-67.5"/>
<text text-anchor="start" x="1449" y="-85.5" font-family="Helvetica,sans-Serif" font-size="10.00">src/d/d_kantera_icon</text>
<text text-anchor="middle" x="1494.5" y="-74.5" font-family="Helvetica,sans-Serif" font-size="10.00">_meter.cpp</text>
</a>
</g>
</g>
<!-- Node4&#45;&gt;Node16 -->
<g id="edge15" class="edge">
<title>Node4&#45;&gt;Node16</title>
<path fill="none" stroke="midnightblue" d="M2921.69,-142.7C2699.85,-141.22 1829.12,-133.23 1557.5,-98 1554.49,-97.61 1551.42,-97.14 1548.33,-96.61"/>
<polygon fill="midnightblue" stroke="midnightblue" points="2921.73,-146.2 2931.75,-142.77 2921.78,-139.2 2921.73,-146.2"/>
</g>
<!-- Node17 -->
<g id="node17" class="node">
<title>Node17</title>
<g id="a_node17"><a xlink:href="d__lib_8cpp.html" target="_top" xlink:title=" ">
<polygon fill="white" stroke="black" points="1566.5,-73 1566.5,-92 1646.5,-92 1646.5,-73 1566.5,-73"/>
<text text-anchor="middle" x="1606.5" y="-80" font-family="Helvetica,sans-Serif" font-size="10.00">src/d/d_lib.cpp</text>
</a>
</g>
</g>
<!-- Node4&#45;&gt;Node17 -->
<g id="edge16" class="edge">
<title>Node4&#45;&gt;Node17</title>
<path fill="none" stroke="midnightblue" d="M2921.45,-142.98C2708.84,-142.63 1905.66,-138.61 1655.5,-98 1647.36,-96.68 1638.66,-94.4 1630.89,-92.04"/>
<polygon fill="midnightblue" stroke="midnightblue" points="2921.71,-146.48 2931.71,-143 2921.72,-139.48 2921.71,-146.48"/>
</g>
<!-- Node18 -->
<g id="node18" class="node">
<title>Node18</title>
<g id="a_node18"><a xlink:href="d__meter__button_8cpp.html" target="_top" xlink:title=" ">
<polygon fill="white" stroke="black" points="1665,-67.5 1665,-97.5 1780,-97.5 1780,-67.5 1665,-67.5"/>
<text text-anchor="start" x="1673" y="-85.5" font-family="Helvetica,sans-Serif" font-size="10.00">src/d/d_meter/d_meter</text>
<text text-anchor="middle" x="1722.5" y="-74.5" font-family="Helvetica,sans-Serif" font-size="10.00">_button.cpp</text>
</a>
</g>
</g>
<!-- Node4&#45;&gt;Node18 -->
<g id="edge17" class="edge">
<title>Node4&#45;&gt;Node18</title>
<path fill="none" stroke="midnightblue" d="M2921.63,-142.26C2723.26,-139.24 2012.58,-126.64 1788.5,-98 1785.82,-97.66 1783.1,-97.26 1780.35,-96.82"/>
<polygon fill="midnightblue" stroke="midnightblue" points="2921.73,-145.76 2931.78,-142.41 2921.83,-138.76 2921.73,-145.76"/>
</g>
<!-- Node19 -->
<g id="node19" class="node">
<title>Node19</title>
<g id="a_node19"><a xlink:href="d__meter__haihai_8cpp.html" target="_top" xlink:title=" ">
<polygon fill="white" stroke="black" points="1798,-67.5 1798,-97.5 1913,-97.5 1913,-67.5 1798,-67.5"/>
<text text-anchor="start" x="1806" y="-85.5" font-family="Helvetica,sans-Serif" font-size="10.00">src/d/d_meter/d_meter</text>
<text text-anchor="middle" x="1855.5" y="-74.5" font-family="Helvetica,sans-Serif" font-size="10.00">_haihai.cpp</text>
</a>
</g>
</g>
<!-- Node4&#45;&gt;Node19 -->
<g id="edge18" class="edge">
<title>Node4&#45;&gt;Node19</title>
<path fill="none" stroke="midnightblue" d="M2921.79,-141.98C2738.22,-138.16 2118.33,-123.63 1921.5,-98 1918.82,-97.65 1916.1,-97.25 1913.35,-96.8"/>
<polygon fill="midnightblue" stroke="midnightblue" points="2921.91,-145.48 2931.98,-142.19 2922.06,-138.48 2921.91,-145.48"/>
</g>
<!-- Node20 -->
<g id="node20" class="node">
<title>Node20</title>
<g id="a_node20"><a xlink:href="d__meter__hakusha_8cpp.html" target="_top" xlink:title=" ">
<polygon fill="white" stroke="black" points="1931,-67.5 1931,-97.5 2046,-97.5 2046,-67.5 1931,-67.5"/>
<text text-anchor="start" x="1939" y="-85.5" font-family="Helvetica,sans-Serif" font-size="10.00">src/d/d_meter/d_meter</text>
<text text-anchor="middle" x="1988.5" y="-74.5" font-family="Helvetica,sans-Serif" font-size="10.00">_hakusha.cpp</text>
</a>
</g>
</g>
<!-- Node4&#45;&gt;Node20 -->
<g id="edge19" class="edge">
<title>Node4&#45;&gt;Node20</title>
<path fill="none" stroke="midnightblue" d="M2921.54,-143.49C2781.1,-144.16 2382.37,-141.73 2054.5,-98 2051.83,-97.64 2049.1,-97.23 2046.35,-96.78"/>
<polygon fill="midnightblue" stroke="midnightblue" points="2921.62,-146.99 2931.6,-143.43 2921.58,-139.99 2921.62,-146.99"/>
</g>
<!-- Node21 -->
<g id="node21" class="node">
<title>Node21</title>
<g id="a_node21"><a xlink:href="d__meter__HIO_8cpp.html" target="_top" xlink:title=" ">
<polygon fill="white" stroke="black" points="2064,-67.5 2064,-97.5 2179,-97.5 2179,-67.5 2064,-67.5"/>
<text text-anchor="start" x="2072" y="-85.5" font-family="Helvetica,sans-Serif" font-size="10.00">src/d/d_meter/d_meter</text>
<text text-anchor="middle" x="2121.5" y="-74.5" font-family="Helvetica,sans-Serif" font-size="10.00">_HIO.cpp</text>
</a>
</g>
</g>
<!-- Node4&#45;&gt;Node21 -->
<g id="edge20" class="edge">
<title>Node4&#45;&gt;Node21</title>
<path fill="none" stroke="midnightblue" d="M2921.8,-142.88C2795.69,-141.96 2462.43,-135.83 2187.5,-98 2184.83,-97.63 2182.1,-97.21 2179.35,-96.76"/>
<polygon fill="midnightblue" stroke="midnightblue" points="2921.92,-146.38 2931.94,-142.94 2921.97,-139.38 2921.92,-146.38"/>
</g>
<!-- Node22 -->
<g id="node22" class="node">
<title>Node22</title>
<g id="a_node22"><a xlink:href="d__meter__map_8cpp.html" target="_top" xlink:title=" ">
<polygon fill="white" stroke="black" points="2197,-67.5 2197,-97.5 2312,-97.5 2312,-67.5 2197,-67.5"/>
<text text-anchor="start" x="2205" y="-85.5" font-family="Helvetica,sans-Serif" font-size="10.00">src/d/d_meter/d_meter</text>
<text text-anchor="middle" x="2254.5" y="-74.5" font-family="Helvetica,sans-Serif" font-size="10.00">_map.cpp</text>
</a>
</g>
</g>
<!-- Node4&#45;&gt;Node22 -->
<g id="edge21" class="edge">
<title>Node4&#45;&gt;Node22</title>
<path fill="none" stroke="midnightblue" d="M2921.39,-142.01C2810.37,-139.34 2542.53,-129.86 2320.5,-98 2317.71,-97.6 2314.87,-97.15 2312,-96.66"/>
<polygon fill="midnightblue" stroke="midnightblue" points="2921.56,-145.52 2931.64,-142.25 2921.72,-138.52 2921.56,-145.52"/>
</g>
<!-- Node23 -->
<g id="node23" class="node">
<title>Node23</title>
<g id="a_node23"><a xlink:href="d__meter__string_8cpp.html" target="_top" xlink:title=" ">
<polygon fill="white" stroke="black" points="2330,-67.5 2330,-97.5 2445,-97.5 2445,-67.5 2330,-67.5"/>
<text text-anchor="start" x="2338" y="-85.5" font-family="Helvetica,sans-Serif" font-size="10.00">src/d/d_meter/d_meter</text>
<text text-anchor="middle" x="2387.5" y="-74.5" font-family="Helvetica,sans-Serif" font-size="10.00">_string.cpp</text>
</a>
</g>
</g>
<!-- Node4&#45;&gt;Node23 -->
<g id="edge22" class="edge">
<title>Node4&#45;&gt;Node23</title>
<path fill="none" stroke="midnightblue" d="M2921.75,-140.75C2827.96,-136.18 2623.81,-123.97 2453.5,-98 2450.72,-97.58 2447.87,-97.1 2445.01,-96.6"/>
<polygon fill="midnightblue" stroke="midnightblue" points="2921.67,-144.25 2931.83,-141.23 2922.01,-137.26 2921.67,-144.25"/>
</g>
<!-- Node24 -->
<g id="node24" class="node">
<title>Node24</title>
<g id="a_node24"><a xlink:href="d__meter_8cpp.html" target="_top" xlink:title=" ">
<polygon fill="white" stroke="black" points="2463,-73 2463,-92 2558,-92 2558,-73 2463,-73"/>
<text text-anchor="middle" x="2510.5" y="-80" font-family="Helvetica,sans-Serif" font-size="10.00">src/d/d_meter.cpp</text>
</a>
</g>
</g>
<!-- Node4&#45;&gt;Node24 -->
<g id="edge23" class="edge">
<title>Node4&#45;&gt;Node24</title>
<path fill="none" stroke="midnightblue" d="M2921.91,-139.68C2844.31,-134.14 2693.14,-121.27 2566.5,-98 2557.91,-96.42 2548.69,-94.24 2540.26,-92.05"/>
<polygon fill="midnightblue" stroke="midnightblue" points="2921.69,-143.17 2931.91,-140.38 2922.18,-136.19 2921.69,-143.17"/>
</g>
<!-- Node25 -->
<g id="node25" class="node">
<title>Node25</title>
<g id="a_node25"><a xlink:href="d__meter2__draw_8cpp.html" target="_top" xlink:title=" ">
<polygon fill="white" stroke="black" points="2576,-67.5 2576,-97.5 2701,-97.5 2701,-67.5 2576,-67.5"/>
<text text-anchor="start" x="2584" y="-85.5" font-family="Helvetica,sans-Serif" font-size="10.00">src/d/d_meter2/d_meter2</text>
<text text-anchor="middle" x="2638.5" y="-74.5" font-family="Helvetica,sans-Serif" font-size="10.00">_draw.cpp</text>
</a>
</g>
</g>
<!-- Node4&#45;&gt;Node25 -->
<g id="edge24" class="edge">
<title>Node4&#45;&gt;Node25</title>
<path fill="none" stroke="midnightblue" d="M2921.93,-134.72C2868.65,-126.05 2783.13,-111.79 2709.5,-98 2706.78,-97.49 2704,-96.96 2701.2,-96.42"/>
<polygon fill="midnightblue" stroke="midnightblue" points="2921.38,-138.18 2931.82,-136.33 2922.51,-131.27 2921.38,-138.18"/>
</g>
<!-- Node26 -->
<g id="node26" class="node">
<title>Node26</title>
<g id="a_node26"><a xlink:href="d__meter2__info_8cpp.html" target="_top" xlink:title=" ">
<polygon fill="white" stroke="black" points="2719,-67.5 2719,-97.5 2844,-97.5 2844,-67.5 2719,-67.5"/>
<text text-anchor="start" x="2727" y="-85.5" font-family="Helvetica,sans-Serif" font-size="10.00">src/d/d_meter2/d_meter2</text>
<text text-anchor="middle" x="2781.5" y="-74.5" font-family="Helvetica,sans-Serif" font-size="10.00">_info.cpp</text>
</a>
</g>
</g>
<!-- Node4&#45;&gt;Node26 -->
<g id="edge25" class="edge">
<title>Node4&#45;&gt;Node26</title>
<path fill="none" stroke="midnightblue" d="M2936.34,-131.48C2905.03,-121.78 2860.14,-107.87 2826.75,-97.52"/>
<polygon fill="midnightblue" stroke="midnightblue" points="2935.4,-134.86 2945.99,-134.48 2937.48,-128.17 2935.4,-134.86"/>
</g>
<!-- Node27 -->
<g id="node27" class="node">
<title>Node27</title>
<g id="a_node27"><a xlink:href="d__meter2_8cpp.html" target="_top" xlink:title=" ">
<polygon fill="white" stroke="black" points="2862.5,-73 2862.5,-92 2962.5,-92 2962.5,-73 2862.5,-73"/>
<text text-anchor="middle" x="2912.5" y="-80" font-family="Helvetica,sans-Serif" font-size="10.00">src/d/d_meter2.cpp</text>
</a>
</g>
</g>
<!-- Node4&#45;&gt;Node27 -->
<g id="edge26" class="edge">
<title>Node4&#45;&gt;Node27</title>
<path fill="none" stroke="midnightblue" d="M2957.43,-127.32C2945.84,-116.02 2930.64,-101.19 2921.22,-92.01"/>
<polygon fill="midnightblue" stroke="midnightblue" points="2955.16,-130 2964.76,-134.48 2960.05,-124.99 2955.16,-130"/>
</g>
<!-- Node28 -->
<g id="node28" class="node">
<title>Node28</title>
<g id="a_node28"><a xlink:href="d__save__HIO_8cpp.html" target="_top" xlink:title=" ">
<polygon fill="white" stroke="black" points="2981,-67.5 2981,-97.5 3088,-97.5 3088,-67.5 2981,-67.5"/>
<text text-anchor="start" x="2989" y="-85.5" font-family="Helvetica,sans-Serif" font-size="10.00">src/d/d_save/d_save</text>
<text text-anchor="middle" x="3034.5" y="-74.5" font-family="Helvetica,sans-Serif" font-size="10.00">_HIO.cpp</text>
</a>
</g>
</g>
<!-- Node4&#45;&gt;Node28 -->
<g id="edge27" class="edge">
<title>Node4&#45;&gt;Node28</title>
<path fill="none" stroke="midnightblue" d="M2989.53,-127.37C2999.01,-118.11 3010.94,-106.48 3020.12,-97.52"/>
<polygon fill="midnightblue" stroke="midnightblue" points="2986.95,-124.99 2982.24,-134.48 2991.84,-130 2986.95,-124.99"/>
</g>
<!-- Node29 -->
<g id="node29" class="node">
<title>Node29</title>
<g id="a_node29"><a xlink:href="d__stage_8cpp.html" target="_top" xlink:title=" ">
<polygon fill="white" stroke="black" points="3106.5,-73 3106.5,-92 3200.5,-92 3200.5,-73 3106.5,-73"/>
<text text-anchor="middle" x="3153.5" y="-80" font-family="Helvetica,sans-Serif" font-size="10.00">src/d/d_stage.cpp</text>
</a>
</g>
</g>
<!-- Node4&#45;&gt;Node29 -->
<g id="edge28" class="edge">
<title>Node4&#45;&gt;Node29</title>
<path fill="none" stroke="midnightblue" d="M3009.1,-131.23C3044.09,-119.67 3096.64,-102.3 3127.76,-92.01"/>
<polygon fill="midnightblue" stroke="midnightblue" points="3007.69,-128.01 2999.29,-134.48 3009.88,-134.66 3007.69,-128.01"/>
</g>
<!-- Node30 -->
<g id="node30" class="node">
<title>Node30</title>
<g id="a_node30"><a xlink:href="f__op__actor__tag_8cpp.html" target="_top" xlink:title=" ">
<polygon fill="white" stroke="black" points="3219,-67.5 3219,-97.5 3326,-97.5 3326,-67.5 3219,-67.5"/>
<text text-anchor="start" x="3227" y="-85.5" font-family="Helvetica,sans-Serif" font-size="10.00">src/f/f_op/f_op_actor</text>
<text text-anchor="middle" x="3272.5" y="-74.5" font-family="Helvetica,sans-Serif" font-size="10.00">_tag.cpp</text>
</a>
</g>
</g>
<!-- Node4&#45;&gt;Node30 -->
<g id="edge29" class="edge">
<title>Node4&#45;&gt;Node30</title>
<path fill="none" stroke="midnightblue" d="M3025.5,-133.67C3073.39,-124.94 3146.38,-111.28 3209.5,-98 3212.58,-97.35 3215.73,-96.67 3218.91,-95.98"/>
<polygon fill="midnightblue" stroke="midnightblue" points="3024.59,-130.28 3015.37,-135.51 3025.84,-137.16 3024.59,-130.28"/>
</g>
<!-- Node31 -->
<g id="node31" class="node">
<title>Node31</title>
<g id="a_node31"><a xlink:href="f__pc__line_8cpp.html" target="_top" xlink:title=" ">
<polygon fill="white" stroke="black" points="3344.5,-73 3344.5,-92 3462.5,-92 3462.5,-73 3344.5,-73"/>
<text text-anchor="middle" x="3403.5" y="-80" font-family="Helvetica,sans-Serif" font-size="10.00">src/f/f_pc/f_pc_line.cpp</text>
</a>
</g>
</g>
<!-- Node4&#45;&gt;Node31 -->
<g id="edge30" class="edge">
<title>Node4&#45;&gt;Node31</title>
<path fill="none" stroke="midnightblue" d="M3025.43,-137.9C3095.75,-130.68 3225.03,-116.29 3334.5,-98 3344.64,-96.31 3355.56,-94.16 3365.65,-92.05"/>
<polygon fill="midnightblue" stroke="midnightblue" points="3024.67,-134.46 3015.08,-138.95 3025.38,-141.42 3024.67,-134.46"/>
</g>
<!-- Node32 -->
<g id="node32" class="node">
<title>Node32</title>
<g id="a_node32"><a xlink:href="f__pc__manager_8cpp.html" target="_top" xlink:title=" ">
<polygon fill="white" stroke="black" points="3480.5,-73 3480.5,-92 3620.5,-92 3620.5,-73 3480.5,-73"/>
<text text-anchor="middle" x="3550.5" y="-80" font-family="Helvetica,sans-Serif" font-size="10.00">src/f/f_pc/f_pc_manager.cpp</text>
</a>
</g>
</g>
<!-- Node4&#45;&gt;Node32 -->
<g id="edge31" class="edge">
<title>Node4&#45;&gt;Node32</title>
<path fill="none" stroke="midnightblue" d="M3025.31,-139.88C3116.03,-134.08 3309.38,-120.16 3471.5,-98 3483.38,-96.38 3496.2,-94.21 3507.98,-92.04"/>
<polygon fill="midnightblue" stroke="midnightblue" points="3025.05,-136.39 3015.29,-140.52 3025.49,-143.38 3025.05,-136.39"/>
</g>
<!-- Node33 -->
<g id="node33" class="node">
<title>Node33</title>
<g id="a_node33"><a xlink:href="m__Do__audio_8cpp.html" target="_top" xlink:title=" ">
<polygon fill="white" stroke="black" points="3638.5,-73 3638.5,-92 3772.5,-92 3772.5,-73 3638.5,-73"/>
<text text-anchor="middle" x="3705.5" y="-80" font-family="Helvetica,sans-Serif" font-size="10.00">src/m_Do/m_Do_audio.cpp</text>
</a>
</g>
</g>
<!-- Node4&#45;&gt;Node33 -->
<g id="edge32" class="edge">
<title>Node4&#45;&gt;Node33</title>
<path fill="none" stroke="midnightblue" d="M3025.37,-141.56C3136.52,-138 3405.76,-126.91 3629.5,-98 3641.36,-96.47 3654.15,-94.25 3665.81,-92.01"/>
<polygon fill="midnightblue" stroke="midnightblue" points="3025,-138.07 3015.12,-141.88 3025.22,-145.06 3025,-138.07"/>
</g>
<!-- Node34 -->
<g id="node34" class="node">
<title>Node34</title>
<g id="a_node34"><a xlink:href="m__Do__controller__pad_8cpp.html" target="_top" xlink:title=" ">
<polygon fill="white" stroke="black" points="3790.5,-67.5 3790.5,-97.5 3922.5,-97.5 3922.5,-67.5 3790.5,-67.5"/>
<text text-anchor="start" x="3798.5" y="-85.5" font-family="Helvetica,sans-Serif" font-size="10.00">src/m_Do/m_Do_controller</text>
<text text-anchor="middle" x="3856.5" y="-74.5" font-family="Helvetica,sans-Serif" font-size="10.00">_pad.cpp</text>
</a>
</g>
</g>
<!-- Node4&#45;&gt;Node34 -->
<g id="edge33" class="edge">
<title>Node4&#45;&gt;Node34</title>
<path fill="none" stroke="midnightblue" d="M3025.66,-142.54C3154.45,-140.86 3497.72,-133.17 3781.5,-98 3784.4,-97.64 3787.35,-97.24 3790.32,-96.8"/>
<polygon fill="midnightblue" stroke="midnightblue" points="3025.26,-139.04 3015.31,-142.66 3025.35,-146.04 3025.26,-139.04"/>
</g>
<!-- Node35 -->
<g id="node35" class="node">
<title>Node35</title>
<g id="a_node35"><a xlink:href="m__Do__main_8cpp.html" target="_top" xlink:title=" ">
<polygon fill="white" stroke="black" points="3941,-73 3941,-92 4072,-92 4072,-73 3941,-73"/>
<text text-anchor="middle" x="4006.5" y="-80" font-family="Helvetica,sans-Serif" font-size="10.00">src/m_Do/m_Do_main.cpp</text>
</a>
</g>
</g>
<!-- Node4&#45;&gt;Node35 -->
<g id="edge34" class="edge">
<title>Node4&#45;&gt;Node35</title>
<path fill="none" stroke="midnightblue" d="M3025.55,-143.18C3169.94,-143.12 3587.55,-139.11 3931.5,-98 3943.48,-96.57 3956.42,-94.32 3968.13,-92.02"/>
<polygon fill="midnightblue" stroke="midnightblue" points="3025.23,-139.68 3015.23,-143.18 3025.23,-146.68 3025.23,-139.68"/>
</g>
<!-- Node36 -->
<g id="node36" class="node">
<title>Node36</title>
<g id="a_node36"><a xlink:href="m__Do__Reset_8cpp.html" target="_top" xlink:title=" ">
<polygon fill="white" stroke="black" points="4090.5,-73 4090.5,-92 4226.5,-92 4226.5,-73 4090.5,-73"/>
<text text-anchor="middle" x="4158.5" y="-80" font-family="Helvetica,sans-Serif" font-size="10.00">src/m_Do/m_Do_Reset.cpp</text>
</a>
</g>
</g>
<!-- Node4&#45;&gt;Node36 -->
<g id="edge35" class="edge">
<title>Node4&#45;&gt;Node36</title>
<path fill="none" stroke="midnightblue" d="M3025.54,-143.52C3184.29,-144.55 3676.22,-143.56 4080.5,-98 4092.96,-96.6 4106.41,-94.36 4118.58,-92.06"/>
<polygon fill="midnightblue" stroke="midnightblue" points="3025.15,-140.02 3015.13,-143.45 3025.1,-147.02 3025.15,-140.02"/>
</g>
<!-- Node37 -->
<g id="node37" class="node">
<title>Node37</title>
<g id="a_node37"><a xlink:href="binary_8cpp.html" target="_top" xlink:title=" ">
<polygon fill="white" stroke="black" points="4245,-67.5 4245,-97.5 4358,-97.5 4358,-67.5 4245,-67.5"/>
<text text-anchor="start" x="4253" y="-85.5" font-family="Helvetica,sans-Serif" font-size="10.00">libs/JSystem/JGadget</text>
<text text-anchor="middle" x="4301.5" y="-74.5" font-family="Helvetica,sans-Serif" font-size="10.00">/binary.cpp</text>
</a>
</g>
</g>
<!-- Node4&#45;&gt;Node37 -->
<g id="edge36" class="edge">
<title>Node4&#45;&gt;Node37</title>
<path fill="none" stroke="midnightblue" d="M3025.28,-142.4C3231.6,-139.82 3995.53,-128.39 4235.5,-98 4238.53,-97.62 4241.62,-97.16 4244.73,-96.65"/>
<polygon fill="midnightblue" stroke="midnightblue" points="3024.99,-138.9 3015.03,-142.53 3025.07,-145.9 3024.99,-138.9"/>
</g>
<!-- Node38 -->
<g id="node38" class="node">
<title>Node38</title>
<g id="a_node38"><a xlink:href="JKRAramArchive_8cpp.html" target="_top" xlink:title=" ">
<polygon fill="white" stroke="black" points="4376,-67.5 4376,-97.5 4489,-97.5 4489,-67.5 4376,-67.5"/>
<text text-anchor="start" x="4384" y="-85.5" font-family="Helvetica,sans-Serif" font-size="10.00">libs/JSystem/JKernel</text>
<text text-anchor="middle" x="4432.5" y="-74.5" font-family="Helvetica,sans-Serif" font-size="10.00">/JKRAramArchive.cpp</text>
</a>
</g>
</g>
<!-- Node4&#45;&gt;Node38 -->
<g id="edge37" class="edge">
<title>Node4&#45;&gt;Node38</title>
<path fill="none" stroke="midnightblue" d="M3025.52,-142.6C3245.4,-140.71 4099.56,-131.35 4366.5,-98 4369.53,-97.62 4372.62,-97.17 4375.73,-96.67"/>
<polygon fill="midnightblue" stroke="midnightblue" points="3025.2,-139.1 3015.23,-142.69 3025.26,-146.1 3025.2,-139.1"/>
</g>
<!-- Node39 -->
<g id="node39" class="node">
<title>Node39</title>
<g id="a_node39"><a xlink:href="JKRAramBlock_8cpp.html" target="_top" xlink:title=" ">
<polygon fill="white" stroke="black" points="4507,-67.5 4507,-97.5 4616,-97.5 4616,-67.5 4507,-67.5"/>
<text text-anchor="start" x="4515" y="-85.5" font-family="Helvetica,sans-Serif" font-size="10.00">libs/JSystem/JKernel</text>
<text text-anchor="middle" x="4561.5" y="-74.5" font-family="Helvetica,sans-Serif" font-size="10.00">/JKRAramBlock.cpp</text>
</a>
</g>
</g>
<!-- Node4&#45;&gt;Node39 -->
<g id="edge38" class="edge">
<title>Node4&#45;&gt;Node39</title>
<path fill="none" stroke="midnightblue" d="M3025.41,-142.81C3257.72,-141.77 4203.48,-135.29 4497.5,-98 4500.55,-97.61 4503.67,-97.15 4506.81,-96.62"/>
<polygon fill="midnightblue" stroke="midnightblue" points="3025.19,-139.31 3015.2,-142.86 3025.22,-146.31 3025.19,-139.31"/>
</g>
<!-- Node40 -->
<g id="node40" class="node">
<title>Node40</title>
<g id="a_node40"><a xlink:href="JKRAramHeap_8cpp.html" target="_top" xlink:title=" ">
<polygon fill="white" stroke="black" points="4634,-67.5 4634,-97.5 4743,-97.5 4743,-67.5 4634,-67.5"/>
<text text-anchor="start" x="4642" y="-85.5" font-family="Helvetica,sans-Serif" font-size="10.00">libs/JSystem/JKernel</text>
<text text-anchor="middle" x="4688.5" y="-74.5" font-family="Helvetica,sans-Serif" font-size="10.00">/JKRAramHeap.cpp</text>
</a>
</g>
</g>
<!-- Node4&#45;&gt;Node40 -->
<g id="edge39" class="edge">
<title>Node4&#45;&gt;Node40</title>
<path fill="none" stroke="midnightblue" d="M3025.32,-142.95C3269.2,-142.51 4304.06,-138.27 4624.5,-98 4627.55,-97.62 4630.67,-97.15 4633.81,-96.63"/>
<polygon fill="midnightblue" stroke="midnightblue" points="3025.3,-139.45 3015.31,-142.97 3025.32,-146.45 3025.3,-139.45"/>
</g>
<!-- Node41 -->
<g id="node41" class="node">
<title>Node41</title>
<g id="a_node41"><a xlink:href="JKRAram_8cpp.html" target="_top" xlink:title=" ">
<polygon fill="white" stroke="black" points="4761,-67.5 4761,-97.5 4870,-97.5 4870,-67.5 4761,-67.5"/>
<text text-anchor="start" x="4769" y="-85.5" font-family="Helvetica,sans-Serif" font-size="10.00">libs/JSystem/JKernel</text>
<text text-anchor="middle" x="4815.5" y="-74.5" font-family="Helvetica,sans-Serif" font-size="10.00">/JKRAram.cpp</text>
</a>
</g>
</g>
<!-- Node4&#45;&gt;Node41 -->
<g id="edge40" class="edge">
<title>Node4&#45;&gt;Node41</title>
<path fill="none" stroke="midnightblue" d="M3025.11,-143.07C3279.83,-143.2 4404.52,-141.27 4751.5,-98 4754.55,-97.62 4757.67,-97.16 4760.81,-96.64"/>
<polygon fill="midnightblue" stroke="midnightblue" points="3025.03,-139.57 3015.03,-143.06 3025.02,-146.57 3025.03,-139.57"/>
</g>
<!-- Node42 -->
<g id="node42" class="node">
<title>Node42</title>
<g id="a_node42"><a xlink:href="JKRAramPiece_8cpp.html" target="_top" xlink:title=" ">
<polygon fill="white" stroke="black" points="4888,-67.5 4888,-97.5 4997,-97.5 4997,-67.5 4888,-67.5"/>
<text text-anchor="start" x="4896" y="-85.5" font-family="Helvetica,sans-Serif" font-size="10.00">libs/JSystem/JKernel</text>
<text text-anchor="middle" x="4942.5" y="-74.5" font-family="Helvetica,sans-Serif" font-size="10.00">/JKRAramPiece.cpp</text>
</a>
</g>
</g>
<!-- Node4&#45;&gt;Node42 -->
<g id="edge41" class="edge">
<title>Node4&#45;&gt;Node42</title>
<path fill="none" stroke="midnightblue" d="M3025.32,-143.17C3291.31,-143.84 4505.11,-144.24 4878.5,-98 4881.55,-97.62 4884.67,-97.16 4887.81,-96.64"/>
<polygon fill="midnightblue" stroke="midnightblue" points="3025.19,-139.67 3015.18,-143.14 3025.17,-146.67 3025.19,-139.67"/>
</g>
<!-- Node43 -->
<g id="node43" class="node">
<title>Node43</title>
<g id="a_node43"><a xlink:href="JKRAramStream_8cpp.html" target="_top" xlink:title=" ">
<polygon fill="white" stroke="black" points="5015,-67.5 5015,-97.5 5126,-97.5 5126,-67.5 5015,-67.5"/>
<text text-anchor="start" x="5023" y="-85.5" font-family="Helvetica,sans-Serif" font-size="10.00">libs/JSystem/JKernel</text>
<text text-anchor="middle" x="5070.5" y="-74.5" font-family="Helvetica,sans-Serif" font-size="10.00">/JKRAramStream.cpp</text>
</a>
</g>
</g>
<!-- Node4&#45;&gt;Node43 -->
<g id="edge42" class="edge">
<title>Node4&#45;&gt;Node43</title>
<path fill="none" stroke="midnightblue" d="M3025.18,-143.24C3301.34,-144.29 4605.4,-146.57 5005.5,-98 5008.6,-97.62 5011.77,-97.17 5014.96,-96.65"/>
<polygon fill="midnightblue" stroke="midnightblue" points="3025.05,-139.74 3015.04,-143.2 3025.03,-146.74 3025.05,-139.74"/>
</g>
<!-- Node44 -->
<g id="node44" class="node">
<title>Node44</title>
<g id="a_node44"><a xlink:href="JKRArchivePri_8cpp.html" target="_top" xlink:title=" ">
<polygon fill="white" stroke="black" points="5144,-67.5 5144,-97.5 5253,-97.5 5253,-67.5 5144,-67.5"/>
<text text-anchor="start" x="5152" y="-85.5" font-family="Helvetica,sans-Serif" font-size="10.00">libs/JSystem/JKernel</text>
<text text-anchor="middle" x="5198.5" y="-74.5" font-family="Helvetica,sans-Serif" font-size="10.00">/JKRArchivePri.cpp</text>
</a>
</g>
</g>
<!-- Node4&#45;&gt;Node44 -->
<g id="edge43" class="edge">
<title>Node4&#45;&gt;Node44</title>
<path fill="none" stroke="midnightblue" d="M3025.6,-142.55C3334.5,-139.77 4919.5,-124.32 5134.5,-98 5137.55,-97.63 5140.67,-97.17 5143.82,-96.65"/>
<polygon fill="midnightblue" stroke="midnightblue" points="3025.12,-139.05 3015.15,-142.64 3025.18,-146.05 3025.12,-139.05"/>
</g>
<!-- Node45 -->
<g id="node45" class="node">
<title>Node45</title>
<g id="a_node45"><a xlink:href="JKRAssertHeap_8cpp.html" target="_top" xlink:title=" ">
<polygon fill="white" stroke="black" points="5271,-67.5 5271,-97.5 5380,-97.5 5380,-67.5 5271,-67.5"/>
<text text-anchor="start" x="5279" y="-85.5" font-family="Helvetica,sans-Serif" font-size="10.00">libs/JSystem/JKernel</text>
<text text-anchor="middle" x="5325.5" y="-74.5" font-family="Helvetica,sans-Serif" font-size="10.00">/JKRAssertHeap.cpp</text>
</a>
</g>
</g>
<!-- Node4&#45;&gt;Node45 -->
<g id="edge44" class="edge">
<title>Node4&#45;&gt;Node45</title>
<path fill="none" stroke="midnightblue" d="M3025.61,-142.62C3345.23,-140.21 5034.08,-126.22 5262.5,-98 5265.28,-97.66 5268.13,-97.24 5270.99,-96.77"/>
<polygon fill="midnightblue" stroke="midnightblue" points="3025.23,-139.12 3015.26,-142.7 3025.28,-146.12 3025.23,-139.12"/>
</g>
<!-- Node46 -->
<g id="node46" class="node">
<title>Node46</title>
<g id="a_node46"><a xlink:href="JKRArchivePub_8cpp.html" target="_top" xlink:title=" ">
<polygon fill="white" stroke="black" points="5398,-67.5 5398,-97.5 5507,-97.5 5507,-67.5 5398,-67.5"/>
<text text-anchor="start" x="5406" y="-85.5" font-family="Helvetica,sans-Serif" font-size="10.00">libs/JSystem/JKernel</text>
<text text-anchor="middle" x="5452.5" y="-74.5" font-family="Helvetica,sans-Serif" font-size="10.00">/JKRArchivePub.cpp</text>
</a>
</g>
</g>
<!-- Node4&#45;&gt;Node46 -->
<g id="edge45" class="edge">
<title>Node4&#45;&gt;Node46</title>
<path fill="none" stroke="midnightblue" d="M3025.35,-142.68C3354.56,-140.57 5147.63,-127.76 5389.5,-98 5392.28,-97.66 5395.13,-97.24 5397.99,-96.78"/>
<polygon fill="midnightblue" stroke="midnightblue" points="3025.12,-139.18 3015.15,-142.75 3025.17,-146.18 3025.12,-139.18"/>
</g>
<!-- Node47 -->
<g id="node47" class="node">
<title>Node47</title>
<g id="a_node47"><a xlink:href="JKRDecomp_8cpp.html" target="_top" xlink:title=" ">
<polygon fill="white" stroke="black" points="5525,-67.5 5525,-97.5 5634,-97.5 5634,-67.5 5525,-67.5"/>
<text text-anchor="start" x="5533" y="-85.5" font-family="Helvetica,sans-Serif" font-size="10.00">libs/JSystem/JKernel</text>
<text text-anchor="middle" x="5579.5" y="-74.5" font-family="Helvetica,sans-Serif" font-size="10.00">/JKRDecomp.cpp</text>
</a>
</g>
</g>
<!-- Node4&#45;&gt;Node47 -->
<g id="edge46" class="edge">
<title>Node4&#45;&gt;Node47</title>
<path fill="none" stroke="midnightblue" d="M3025.38,-142.73C3364.67,-140.9 5261.24,-129.29 5516.5,-98 5519.29,-97.66 5522.13,-97.25 5524.99,-96.78"/>
<polygon fill="midnightblue" stroke="midnightblue" points="3025.32,-139.23 3015.34,-142.79 3025.36,-146.23 3025.32,-139.23"/>
</g>
<!-- Node48 -->
<g id="node48" class="node">
<title>Node48</title>
<g id="a_node48"><a xlink:href="JKRDisposer_8cpp.html" target="_top" xlink:title=" ">
<polygon fill="white" stroke="black" points="5652,-67.5 5652,-97.5 5761,-97.5 5761,-67.5 5652,-67.5"/>
<text text-anchor="start" x="5660" y="-85.5" font-family="Helvetica,sans-Serif" font-size="10.00">libs/JSystem/JKernel</text>
<text text-anchor="middle" x="5706.5" y="-74.5" font-family="Helvetica,sans-Serif" font-size="10.00">/JKRDisposer.cpp</text>
</a>
</g>
</g>
<!-- Node4&#45;&gt;Node48 -->
<g id="edge47" class="edge">
<title>Node4&#45;&gt;Node48</title>
<path fill="none" stroke="midnightblue" d="M3025.18,-142.78C3373.69,-141.21 5374.78,-130.82 5643.5,-98 5646.29,-97.66 5649.13,-97.25 5651.99,-96.78"/>
<polygon fill="midnightblue" stroke="midnightblue" points="3025.11,-139.28 3015.12,-142.83 3025.14,-146.28 3025.11,-139.28"/>
</g>
<!-- Node4&#45;&gt;Node171 -->
<g id="edge48" class="edge">
<title>Node4&#45;&gt;Node171</title>
<path fill="none" stroke="midnightblue" d="M3025.35,-142.7C3383.8,-140.59 5487.8,-127.02 5770.5,-98 5773.17,-97.73 5775.89,-97.41 5778.63,-97.05"/>
<polygon fill="midnightblue" stroke="midnightblue" points="3025.24,-139.21 3015.26,-142.76 3025.28,-146.21 3025.24,-139.21"/>
</g>
<!-- Node172 -->
<g id="node50" class="node">
<title>Node172</title>
<g id="a_node50"><a xlink:href="J2DPane_8cpp.html" target="_top" xlink:title=" ">
<polygon fill="white" stroke="black" points="5787,-0.5 5787,-30.5 5906,-30.5 5906,-0.5 5787,-0.5"/>
<text text-anchor="start" x="5795" y="-18.5" font-family="Helvetica,sans-Serif" font-size="10.00">libs/JSystem/J2DGraph</text>
<text text-anchor="middle" x="5846.5" y="-7.5" font-family="Helvetica,sans-Serif" font-size="10.00">/J2DPane.cpp</text>
</a>
</g>
</g>
<!-- Node171&#45;&gt;Node172 -->
<g id="edge49" class="edge">
<title>Node171&#45;&gt;Node172</title>
<path fill="none" stroke="midnightblue" d="M5846.5,-57.11C5846.5,-48.15 5846.5,-38.32 5846.5,-30.58"/>
<polygon fill="midnightblue" stroke="midnightblue" points="5843,-57.4 5846.5,-67.4 5850,-57.4 5843,-57.4"/>
</g>
</g>
</svg>
