<?xml version="1.0" encoding="UTF-8" standalone="no"?>
<!DOCTYPE svg PUBLIC "-//W3C//DTD SVG 1.1//EN"
 "http://www.w3.org/Graphics/SVG/1.1/DTD/svg11.dtd">
<!-- Generated by graphviz version 2.46.0 (20210122.1329)
 -->
<!-- Title: include/mwcc.h Pages: 1 -->
<!--zoomable 151 -->
<svg id="main" version="1.1" xmlns="http://www.w3.org/2000/svg" xmlns:xlink="http://www.w3.org/1999/xlink" xml:space="preserve" onload="init(evt)">
<style type="text/css"><![CDATA[
.edge:hover path { stroke: red; }
.edge:hover polygon { stroke: red; fill: red; }
]]></style>
<script type="text/javascript"><![CDATA[
var edges = document.getElementsByTagName('g');
if (edges && edges.length) {
  for (var i=0;i<edges.length;i++) {
    if (edges[i].id.substr(0,4)=='edge') {
      edges[i].setAttribute('class','edge');
    }
  }
}
]]></script>
        <defs>
                <circle id="rim" cx="0" cy="0" r="7"/>
                <circle id="rim2" cx="0" cy="0" r="3.5"/>
                <g id="zoomPlus">
                        <use xlink:href="#rim" fill="#404040">
                                <set attributeName="fill" to="#808080" begin="zoomplus.mouseover" end="zoomplus.mouseout"/>
                        </use>
                        <path d="M-4,0h8M0,-4v8" fill="none" stroke="white" stroke-width="1.5" pointer-events="none"/>
                </g>
                <g id="zoomMin">
                        <use xlink:href="#rim" fill="#404040">
                                <set attributeName="fill" to="#808080" begin="zoomminus.mouseover" end="zoomminus.mouseout"/>
                        </use>
                        <path d="M-4,0h8" fill="none" stroke="white" stroke-width="1.5" pointer-events="none"/>
                </g>
                <g id="dirArrow">
                        <path fill="none" stroke="white" stroke-width="1.5" d="M0,-3.0v7 M-2.5,-0.5L0,-3.0L2.5,-0.5"/>
                </g>
               <g id="resetDef">
                       <use xlink:href="#rim2" fill="#404040">
                               <set attributeName="fill" to="#808080" begin="reset.mouseover" end="reset.mouseout"/>
                       </use>
               </g>
        </defs>

<script type="text/javascript">
var viewWidth = 6655;
var viewHeight = 151;
var sectionId = 'dynsection-0';
</script>
<script xlink:href="svgpan.js"/>
<svg id="graph" class="graph">
<g id="viewport">
<title>include/mwcc.h</title>
<polygon fill="white" stroke="transparent" points="-4,4 -4,-147 6651,-147 6651,4 -4,4"/>
<!-- Node1 -->
<g id="node1" class="node">
<title>Node1</title>
<g id="a_node1"><a xlink:title=" ">
<polygon fill="#bfbfbf" stroke="black" points="3068.5,-123.5 3068.5,-142.5 3152.5,-142.5 3152.5,-123.5 3068.5,-123.5"/>
<text text-anchor="middle" x="3110.5" y="-130.5" font-family="Helvetica,sans-Serif" font-size="10.00">include/mwcc.h</text>
</a>
</g>
</g>
<!-- Node2 -->
<g id="node2" class="node">
<title>Node2</title>
<g id="a_node2"><a xlink:href="global_8h.html" target="_top" xlink:title=" ">
<polygon fill="white" stroke="red" points="3069,-67.5 3069,-86.5 3152,-86.5 3152,-67.5 3069,-67.5"/>
<text text-anchor="middle" x="3110.5" y="-74.5" font-family="Helvetica,sans-Serif" font-size="10.00">include/global.h</text>
</a>
</g>
</g>
<!-- Node1&#45;&gt;Node2 -->
<g id="edge1" class="edge">
<title>Node1&#45;&gt;Node2</title>
<path fill="none" stroke="midnightblue" d="M3110.5,-112.8C3110.5,-103.91 3110.5,-93.78 3110.5,-86.75"/>
<polygon fill="midnightblue" stroke="midnightblue" points="3107,-113.08 3110.5,-123.08 3114,-113.08 3107,-113.08"/>
</g>
<!-- Node3 -->
<g id="node3" class="node">
<title>Node3</title>
<g id="a_node3"><a xlink:href="d__a__horse__static_8cpp.html" target="_top" xlink:title=" ">
<polygon fill="white" stroke="black" points="0,-0.5 0,-30.5 105,-30.5 105,-0.5 0,-0.5"/>
<text text-anchor="start" x="8" y="-18.5" font-family="Helvetica,sans-Serif" font-size="10.00">src/d/d_a/d_a_horse</text>
<text text-anchor="middle" x="52.5" y="-7.5" font-family="Helvetica,sans-Serif" font-size="10.00">_static.cpp</text>
</a>
</g>
</g>
<!-- Node2&#45;&gt;Node3 -->
<g id="edge2" class="edge">
<title>Node2&#45;&gt;Node3</title>
<path fill="none" stroke="midnightblue" d="M3058.52,-75.89C2685.13,-75.03 417.58,-68.28 114.5,-31 111.43,-30.62 108.29,-30.15 105.13,-29.62"/>
<polygon fill="midnightblue" stroke="midnightblue" points="3058.76,-79.39 3068.76,-75.92 3058.77,-72.39 3058.76,-79.39"/>
</g>
<!-- Node4 -->
<g id="node4" class="node">
<title>Node4</title>
<g id="a_node4"><a xlink:href="d__a__item__static_8cpp.html" target="_top" xlink:title=" ">
<polygon fill="white" stroke="black" points="123.5,-0.5 123.5,-30.5 223.5,-30.5 223.5,-0.5 123.5,-0.5"/>
<text text-anchor="start" x="131.5" y="-18.5" font-family="Helvetica,sans-Serif" font-size="10.00">src/d/d_a/d_a_item</text>
<text text-anchor="middle" x="173.5" y="-7.5" font-family="Helvetica,sans-Serif" font-size="10.00">_static.cpp</text>
</a>
</g>
</g>
<!-- Node2&#45;&gt;Node4 -->
<g id="edge3" class="edge">
<title>Node2&#45;&gt;Node4</title>
<path fill="none" stroke="midnightblue" d="M3058.58,-75.89C2693.89,-75.05 522.9,-68.47 232.5,-31 229.57,-30.62 226.58,-30.15 223.57,-29.62"/>
<polygon fill="midnightblue" stroke="midnightblue" points="3058.83,-79.39 3068.84,-75.92 3058.85,-72.39 3058.83,-79.39"/>
</g>
<!-- Node5 -->
<g id="node5" class="node">
<title>Node5</title>
<g id="a_node5"><a xlink:href="d__attention_8cpp.html" target="_top" xlink:title=" ">
<polygon fill="white" stroke="black" points="242,-6 242,-25 349,-25 349,-6 242,-6"/>
<text text-anchor="middle" x="295.5" y="-13" font-family="Helvetica,sans-Serif" font-size="10.00">src/d/d_attention.cpp</text>
</a>
</g>
</g>
<!-- Node2&#45;&gt;Node5 -->
<g id="edge4" class="edge">
<title>Node2&#45;&gt;Node5</title>
<path fill="none" stroke="midnightblue" d="M3058.63,-75.82C2703.33,-74.49 634.89,-65.3 357.5,-31 347.19,-29.72 336.09,-27.43 326.17,-25.04"/>
<polygon fill="midnightblue" stroke="midnightblue" points="3058.86,-79.32 3068.87,-75.86 3058.89,-72.32 3058.86,-79.32"/>
</g>
<!-- Node6 -->
<g id="node6" class="node">
<title>Node6</title>
<g id="a_node6"><a xlink:href="d__bg__s__poly__pass__chk_8cpp.html" target="_top" xlink:title=" ">
<polygon fill="white" stroke="black" points="367,-0.5 367,-30.5 486,-30.5 486,-0.5 367,-0.5"/>
<text text-anchor="start" x="375" y="-18.5" font-family="Helvetica,sans-Serif" font-size="10.00">src/d/d_bg/d_bg_s_poly</text>
<text text-anchor="middle" x="426.5" y="-7.5" font-family="Helvetica,sans-Serif" font-size="10.00">_pass_chk.cpp</text>
</a>
</g>
</g>
<!-- Node2&#45;&gt;Node6 -->
<g id="edge5" class="edge">
<title>Node2&#45;&gt;Node6</title>
<path fill="none" stroke="midnightblue" d="M3058.79,-75.71C2714.37,-73.7 757.76,-61.05 494.5,-31 491.74,-30.69 488.93,-30.31 486.1,-29.89"/>
<polygon fill="midnightblue" stroke="midnightblue" points="3058.96,-79.21 3068.98,-75.77 3059,-72.21 3058.96,-79.21"/>
</g>
<!-- Node7 -->
<g id="node7" class="node">
<title>Node7</title>
<g id="a_node7"><a xlink:href="d__com__inf__game_8cpp.html" target="_top" xlink:title=" ">
<polygon fill="white" stroke="black" points="504,-0.5 504,-30.5 623,-30.5 623,-0.5 504,-0.5"/>
<text text-anchor="start" x="512" y="-18.5" font-family="Helvetica,sans-Serif" font-size="10.00">src/d/d_com/d_com_inf</text>
<text text-anchor="middle" x="563.5" y="-7.5" font-family="Helvetica,sans-Serif" font-size="10.00">_game.cpp</text>
</a>
</g>
</g>
<!-- Node2&#45;&gt;Node7 -->
<g id="edge6" class="edge">
<title>Node2&#45;&gt;Node7</title>
<path fill="none" stroke="midnightblue" d="M3058.38,-75.66C2723.47,-73.36 880.18,-59.5 631.5,-31 628.74,-30.68 625.93,-30.31 623.1,-29.88"/>
<polygon fill="midnightblue" stroke="midnightblue" points="3058.73,-79.16 3068.75,-75.73 3058.78,-72.16 3058.73,-79.16"/>
</g>
<!-- Node8 -->
<g id="node8" class="node">
<title>Node8</title>
<g id="a_node8"><a xlink:href="d__file__sel__info_8cpp.html" target="_top" xlink:title=" ">
<polygon fill="white" stroke="black" points="641,-0.5 641,-30.5 730,-30.5 730,-0.5 641,-0.5"/>
<text text-anchor="start" x="649" y="-18.5" font-family="Helvetica,sans-Serif" font-size="10.00">src/d/d_file/d_file</text>
<text text-anchor="middle" x="685.5" y="-7.5" font-family="Helvetica,sans-Serif" font-size="10.00">_sel_info.cpp</text>
</a>
</g>
</g>
<!-- Node2&#45;&gt;Node8 -->
<g id="edge7" class="edge">
<title>Node2&#45;&gt;Node8</title>
<path fill="none" stroke="midnightblue" d="M3058.54,-75.79C2732.52,-74.35 975.06,-65.06 738.5,-31 735.76,-30.61 732.96,-30.11 730.15,-29.55"/>
<polygon fill="midnightblue" stroke="midnightblue" points="3058.64,-79.29 3068.65,-75.83 3058.67,-72.29 3058.64,-79.29"/>
</g>
<!-- Node9 -->
<g id="node9" class="node">
<title>Node9</title>
<g id="a_node9"><a xlink:href="d__item_8cpp.html" target="_top" xlink:title=" ">
<polygon fill="white" stroke="black" points="748,-6 748,-25 869,-25 869,-6 748,-6"/>
<text text-anchor="middle" x="808.5" y="-13" font-family="Helvetica,sans-Serif" font-size="10.00">src/d/d_item/d_item.cpp</text>
</a>
</g>
</g>
<!-- Node2&#45;&gt;Node9 -->
<g id="edge8" class="edge">
<title>Node2&#45;&gt;Node9</title>
<path fill="none" stroke="midnightblue" d="M3058.5,-76.27C2765.69,-77.61 1319.89,-81.49 877.5,-31 866.07,-29.7 853.73,-27.39 842.69,-25"/>
<polygon fill="midnightblue" stroke="midnightblue" points="3058.84,-79.77 3068.83,-76.22 3058.81,-72.77 3058.84,-79.77"/>
</g>
<!-- Node10 -->
<g id="node10" class="node">
<title>Node10</title>
<g id="a_node10"><a xlink:href="d__kankyo__data_8cpp.html" target="_top" xlink:title=" ">
<polygon fill="white" stroke="black" points="887,-0.5 887,-30.5 1014,-30.5 1014,-0.5 887,-0.5"/>
<text text-anchor="start" x="895" y="-18.5" font-family="Helvetica,sans-Serif" font-size="10.00">src/d/d_kankyo/d_kankyo</text>
<text text-anchor="middle" x="950.5" y="-7.5" font-family="Helvetica,sans-Serif" font-size="10.00">_data.cpp</text>
</a>
</g>
</g>
<!-- Node2&#45;&gt;Node10 -->
<g id="edge9" class="edge">
<title>Node2&#45;&gt;Node10</title>
<path fill="none" stroke="midnightblue" d="M3058.33,-76.13C2776.63,-76.63 1434.57,-76.57 1022.5,-31 1019.71,-30.69 1016.87,-30.33 1014.01,-29.92"/>
<polygon fill="midnightblue" stroke="midnightblue" points="3058.67,-79.63 3068.67,-76.11 3058.66,-72.63 3058.67,-79.63"/>
</g>
<!-- Node11 -->
<g id="node11" class="node">
<title>Node11</title>
<g id="a_node11"><a xlink:href="d__kankyo__rain_8cpp.html" target="_top" xlink:title=" ">
<polygon fill="white" stroke="black" points="1032,-0.5 1032,-30.5 1159,-30.5 1159,-0.5 1032,-0.5"/>
<text text-anchor="start" x="1040" y="-18.5" font-family="Helvetica,sans-Serif" font-size="10.00">src/d/d_kankyo/d_kankyo</text>
<text text-anchor="middle" x="1095.5" y="-7.5" font-family="Helvetica,sans-Serif" font-size="10.00">_rain.cpp</text>
</a>
</g>
</g>
<!-- Node2&#45;&gt;Node11 -->
<g id="edge10" class="edge">
<title>Node2&#45;&gt;Node11</title>
<path fill="none" stroke="midnightblue" d="M3058.54,-76.03C2789.16,-76 1549.3,-73.53 1167.5,-31 1164.71,-30.69 1161.87,-30.33 1159.01,-29.92"/>
<polygon fill="midnightblue" stroke="midnightblue" points="3058.81,-79.53 3068.81,-76.03 3058.81,-72.53 3058.81,-79.53"/>
</g>
<!-- Node12 -->
<g id="node12" class="node">
<title>Node12</title>
<g id="a_node12"><a xlink:href="d__kankyo__wether_8cpp.html" target="_top" xlink:title=" ">
<polygon fill="white" stroke="black" points="1177,-0.5 1177,-30.5 1304,-30.5 1304,-0.5 1177,-0.5"/>
<text text-anchor="start" x="1185" y="-18.5" font-family="Helvetica,sans-Serif" font-size="10.00">src/d/d_kankyo/d_kankyo</text>
<text text-anchor="middle" x="1240.5" y="-7.5" font-family="Helvetica,sans-Serif" font-size="10.00">_wether.cpp</text>
</a>
</g>
</g>
<!-- Node2&#45;&gt;Node12 -->
<g id="edge11" class="edge">
<title>Node2&#45;&gt;Node12</title>
<path fill="none" stroke="midnightblue" d="M3058.75,-75.92C2802.08,-75.33 1664.08,-70.5 1312.5,-31 1309.71,-30.69 1306.87,-30.32 1304.01,-29.91"/>
<polygon fill="midnightblue" stroke="midnightblue" points="3058.9,-79.42 3068.91,-75.94 3058.91,-72.42 3058.9,-79.42"/>
</g>
<!-- Node13 -->
<g id="node13" class="node">
<title>Node13</title>
<g id="a_node13"><a xlink:href="d__kankyo_8cpp.html" target="_top" xlink:title=" ">
<polygon fill="white" stroke="black" points="1322,-6 1322,-25 1423,-25 1423,-6 1322,-6"/>
<text text-anchor="middle" x="1372.5" y="-13" font-family="Helvetica,sans-Serif" font-size="10.00">src/d/d_kankyo.cpp</text>
</a>
</g>
</g>
<!-- Node2&#45;&gt;Node13 -->
<g id="edge12" class="edge">
<title>Node2&#45;&gt;Node13</title>
<path fill="none" stroke="midnightblue" d="M3058.59,-76.1C2812,-76.37 1757.35,-74.89 1431.5,-31 1421.78,-29.69 1411.33,-27.42 1401.97,-25.06"/>
<polygon fill="midnightblue" stroke="midnightblue" points="3058.72,-79.6 3068.71,-76.09 3058.71,-72.6 3058.72,-79.6"/>
</g>
<!-- Node14 -->
<g id="node14" class="node">
<title>Node14</title>
<g id="a_node14"><a xlink:href="d__kantera__icon__meter_8cpp.html" target="_top" xlink:title=" ">
<polygon fill="white" stroke="black" points="1441,-0.5 1441,-30.5 1548,-30.5 1548,-0.5 1441,-0.5"/>
<text text-anchor="start" x="1449" y="-18.5" font-family="Helvetica,sans-Serif" font-size="10.00">src/d/d_kantera_icon</text>
<text text-anchor="middle" x="1494.5" y="-7.5" font-family="Helvetica,sans-Serif" font-size="10.00">_meter.cpp</text>
</a>
</g>
</g>
<!-- Node2&#45;&gt;Node14 -->
<g id="edge13" class="edge">
<title>Node2&#45;&gt;Node14</title>
<path fill="none" stroke="midnightblue" d="M3058.35,-75.9C2822.77,-75.21 1856.51,-70.02 1556.5,-31 1553.76,-30.64 1550.96,-30.22 1548.15,-29.74"/>
<polygon fill="midnightblue" stroke="midnightblue" points="3058.67,-79.4 3068.68,-75.92 3058.69,-72.4 3058.67,-79.4"/>
</g>
<!-- Node15 -->
<g id="node15" class="node">
<title>Node15</title>
<g id="a_node15"><a xlink:href="d__kyeff2_8cpp.html" target="_top" xlink:title=" ">
<polygon fill="white" stroke="black" points="1566,-6 1566,-25 1685,-25 1685,-6 1566,-6"/>
<text text-anchor="middle" x="1625.5" y="-13" font-family="Helvetica,sans-Serif" font-size="10.00">src/d/d_ky/d_kyeff2.cpp</text>
</a>
</g>
</g>
<!-- Node2&#45;&gt;Node15 -->
<g id="edge14" class="edge">
<title>Node2&#45;&gt;Node15</title>
<path fill="none" stroke="midnightblue" d="M3058.7,-75.57C2836.94,-73.55 1966.44,-63.64 1694.5,-31 1683.32,-29.66 1671.26,-27.41 1660.4,-25.08"/>
<polygon fill="midnightblue" stroke="midnightblue" points="3058.74,-79.07 3068.77,-75.66 3058.8,-72.07 3058.74,-79.07"/>
</g>
<!-- Node16 -->
<g id="node16" class="node">
<title>Node16</title>
<g id="a_node16"><a xlink:href="d__lib_8cpp.html" target="_top" xlink:title=" ">
<polygon fill="white" stroke="black" points="1703.5,-6 1703.5,-25 1783.5,-25 1783.5,-6 1703.5,-6"/>
<text text-anchor="middle" x="1743.5" y="-13" font-family="Helvetica,sans-Serif" font-size="10.00">src/d/d_lib.cpp</text>
</a>
</g>
</g>
<!-- Node2&#45;&gt;Node16 -->
<g id="edge15" class="edge">
<title>Node2&#45;&gt;Node16</title>
<path fill="none" stroke="midnightblue" d="M3058.45,-75.98C2845.84,-75.63 2042.66,-71.61 1792.5,-31 1784.36,-29.68 1775.66,-27.4 1767.89,-25.04"/>
<polygon fill="midnightblue" stroke="midnightblue" points="3058.71,-79.48 3068.71,-76 3058.72,-72.48 3058.71,-79.48"/>
</g>
<!-- Node17 -->
<g id="node17" class="node">
<title>Node17</title>
<g id="a_node17"><a xlink:href="d__meter__button_8cpp.html" target="_top" xlink:title=" ">
<polygon fill="white" stroke="black" points="1802,-0.5 1802,-30.5 1917,-30.5 1917,-0.5 1802,-0.5"/>
<text text-anchor="start" x="1810" y="-18.5" font-family="Helvetica,sans-Serif" font-size="10.00">src/d/d_meter/d_meter</text>
<text text-anchor="middle" x="1859.5" y="-7.5" font-family="Helvetica,sans-Serif" font-size="10.00">_button.cpp</text>
</a>
</g>
</g>
<!-- Node2&#45;&gt;Node17 -->
<g id="edge16" class="edge">
<title>Node2&#45;&gt;Node17</title>
<path fill="none" stroke="midnightblue" d="M3058.63,-75.26C2860.26,-72.24 2149.58,-59.64 1925.5,-31 1922.82,-30.66 1920.1,-30.26 1917.35,-29.82"/>
<polygon fill="midnightblue" stroke="midnightblue" points="3058.73,-78.76 3068.78,-75.41 3058.83,-71.76 3058.73,-78.76"/>
</g>
<!-- Node18 -->
<g id="node18" class="node">
<title>Node18</title>
<g id="a_node18"><a xlink:href="d__meter__haihai_8cpp.html" target="_top" xlink:title=" ">
<polygon fill="white" stroke="black" points="1935,-0.5 1935,-30.5 2050,-30.5 2050,-0.5 1935,-0.5"/>
<text text-anchor="start" x="1943" y="-18.5" font-family="Helvetica,sans-Serif" font-size="10.00">src/d/d_meter/d_meter</text>
<text text-anchor="middle" x="1992.5" y="-7.5" font-family="Helvetica,sans-Serif" font-size="10.00">_haihai.cpp</text>
</a>
</g>
</g>
<!-- Node2&#45;&gt;Node18 -->
<g id="edge17" class="edge">
<title>Node2&#45;&gt;Node18</title>
<path fill="none" stroke="midnightblue" d="M3058.79,-74.98C2875.22,-71.16 2255.33,-56.63 2058.5,-31 2055.82,-30.65 2053.1,-30.25 2050.35,-29.8"/>
<polygon fill="midnightblue" stroke="midnightblue" points="3058.91,-78.48 3068.98,-75.19 3059.06,-71.48 3058.91,-78.48"/>
</g>
<!-- Node19 -->
<g id="node19" class="node">
<title>Node19</title>
<g id="a_node19"><a xlink:href="d__meter__hakusha_8cpp.html" target="_top" xlink:title=" ">
<polygon fill="white" stroke="black" points="2068,-0.5 2068,-30.5 2183,-30.5 2183,-0.5 2068,-0.5"/>
<text text-anchor="start" x="2076" y="-18.5" font-family="Helvetica,sans-Serif" font-size="10.00">src/d/d_meter/d_meter</text>
<text text-anchor="middle" x="2125.5" y="-7.5" font-family="Helvetica,sans-Serif" font-size="10.00">_hakusha.cpp</text>
</a>
</g>
</g>
<!-- Node2&#45;&gt;Node19 -->
<g id="edge18" class="edge">
<title>Node2&#45;&gt;Node19</title>
<path fill="none" stroke="midnightblue" d="M3058.54,-76.49C2918.1,-77.16 2519.37,-74.73 2191.5,-31 2188.83,-30.64 2186.1,-30.23 2183.35,-29.78"/>
<polygon fill="midnightblue" stroke="midnightblue" points="3058.62,-79.99 3068.6,-76.43 3058.58,-72.99 3058.62,-79.99"/>
</g>
<!-- Node20 -->
<g id="node20" class="node">
<title>Node20</title>
<g id="a_node20"><a xlink:href="d__meter__HIO_8cpp.html" target="_top" xlink:title=" ">
<polygon fill="white" stroke="black" points="2201,-0.5 2201,-30.5 2316,-30.5 2316,-0.5 2201,-0.5"/>
<text text-anchor="start" x="2209" y="-18.5" font-family="Helvetica,sans-Serif" font-size="10.00">src/d/d_meter/d_meter</text>
<text text-anchor="middle" x="2258.5" y="-7.5" font-family="Helvetica,sans-Serif" font-size="10.00">_HIO.cpp</text>
</a>
</g>
</g>
<!-- Node2&#45;&gt;Node20 -->
<g id="edge19" class="edge">
<title>Node2&#45;&gt;Node20</title>
<path fill="none" stroke="midnightblue" d="M3058.8,-75.88C2932.69,-74.96 2599.43,-68.83 2324.5,-31 2321.83,-30.63 2319.1,-30.21 2316.35,-29.76"/>
<polygon fill="midnightblue" stroke="midnightblue" points="3058.92,-79.38 3068.94,-75.94 3058.97,-72.38 3058.92,-79.38"/>
</g>
<!-- Node21 -->
<g id="node21" class="node">
<title>Node21</title>
<g id="a_node21"><a xlink:href="d__meter__map_8cpp.html" target="_top" xlink:title=" ">
<polygon fill="white" stroke="black" points="2334,-0.5 2334,-30.5 2449,-30.5 2449,-0.5 2334,-0.5"/>
<text text-anchor="start" x="2342" y="-18.5" font-family="Helvetica,sans-Serif" font-size="10.00">src/d/d_meter/d_meter</text>
<text text-anchor="middle" x="2391.5" y="-7.5" font-family="Helvetica,sans-Serif" font-size="10.00">_map.cpp</text>
</a>
</g>
</g>
<!-- Node2&#45;&gt;Node21 -->
<g id="edge20" class="edge">
<title>Node2&#45;&gt;Node21</title>
<path fill="none" stroke="midnightblue" d="M3058.39,-75.01C2947.37,-72.34 2679.53,-62.86 2457.5,-31 2454.71,-30.6 2451.87,-30.15 2449,-29.66"/>
<polygon fill="midnightblue" stroke="midnightblue" points="3058.56,-78.52 3068.64,-75.25 3058.72,-71.52 3058.56,-78.52"/>
</g>
<!-- Node22 -->
<g id="node22" class="node">
<title>Node22</title>
<g id="a_node22"><a xlink:href="d__meter__string_8cpp.html" target="_top" xlink:title=" ">
<polygon fill="white" stroke="black" points="2467,-0.5 2467,-30.5 2582,-30.5 2582,-0.5 2467,-0.5"/>
<text text-anchor="start" x="2475" y="-18.5" font-family="Helvetica,sans-Serif" font-size="10.00">src/d/d_meter/d_meter</text>
<text text-anchor="middle" x="2524.5" y="-7.5" font-family="Helvetica,sans-Serif" font-size="10.00">_string.cpp</text>
</a>
</g>
</g>
<!-- Node2&#45;&gt;Node22 -->
<g id="edge21" class="edge">
<title>Node2&#45;&gt;Node22</title>
<path fill="none" stroke="midnightblue" d="M3058.75,-73.75C2964.96,-69.18 2760.81,-56.97 2590.5,-31 2587.72,-30.58 2584.87,-30.1 2582.01,-29.6"/>
<polygon fill="midnightblue" stroke="midnightblue" points="3058.67,-77.25 3068.83,-74.23 3059.01,-70.26 3058.67,-77.25"/>
</g>
<!-- Node23 -->
<g id="node23" class="node">
<title>Node23</title>
<g id="a_node23"><a xlink:href="d__meter_8cpp.html" target="_top" xlink:title=" ">
<polygon fill="white" stroke="black" points="2600,-6 2600,-25 2695,-25 2695,-6 2600,-6"/>
<text text-anchor="middle" x="2647.5" y="-13" font-family="Helvetica,sans-Serif" font-size="10.00">src/d/d_meter.cpp</text>
</a>
</g>
</g>
<!-- Node2&#45;&gt;Node23 -->
<g id="edge22" class="edge">
<title>Node2&#45;&gt;Node23</title>
<path fill="none" stroke="midnightblue" d="M3058.91,-72.68C2981.31,-67.14 2830.14,-54.27 2703.5,-31 2694.91,-29.42 2685.69,-27.24 2677.26,-25.05"/>
<polygon fill="midnightblue" stroke="midnightblue" points="3058.69,-76.17 3068.91,-73.38 3059.18,-69.19 3058.69,-76.17"/>
</g>
<!-- Node24 -->
<g id="node24" class="node">
<title>Node24</title>
<g id="a_node24"><a xlink:href="d__meter2__draw_8cpp.html" target="_top" xlink:title=" ">
<polygon fill="white" stroke="black" points="2713,-0.5 2713,-30.5 2838,-30.5 2838,-0.5 2713,-0.5"/>
<text text-anchor="start" x="2721" y="-18.5" font-family="Helvetica,sans-Serif" font-size="10.00">src/d/d_meter2/d_meter2</text>
<text text-anchor="middle" x="2775.5" y="-7.5" font-family="Helvetica,sans-Serif" font-size="10.00">_draw.cpp</text>
</a>
</g>
</g>
<!-- Node2&#45;&gt;Node24 -->
<g id="edge23" class="edge">
<title>Node2&#45;&gt;Node24</title>
<path fill="none" stroke="midnightblue" d="M3058.93,-67.72C3005.65,-59.05 2920.13,-44.79 2846.5,-31 2843.78,-30.49 2841,-29.96 2838.2,-29.42"/>
<polygon fill="midnightblue" stroke="midnightblue" points="3058.38,-71.18 3068.82,-69.33 3059.51,-64.27 3058.38,-71.18"/>
</g>
<!-- Node25 -->
<g id="node25" class="node">
<title>Node25</title>
<g id="a_node25"><a xlink:href="d__meter2__info_8cpp.html" target="_top" xlink:title=" ">
<polygon fill="white" stroke="black" points="2856,-0.5 2856,-30.5 2981,-30.5 2981,-0.5 2856,-0.5"/>
<text text-anchor="start" x="2864" y="-18.5" font-family="Helvetica,sans-Serif" font-size="10.00">src/d/d_meter2/d_meter2</text>
<text text-anchor="middle" x="2918.5" y="-7.5" font-family="Helvetica,sans-Serif" font-size="10.00">_info.cpp</text>
</a>
</g>
</g>
<!-- Node2&#45;&gt;Node25 -->
<g id="edge24" class="edge">
<title>Node2&#45;&gt;Node25</title>
<path fill="none" stroke="midnightblue" d="M3073.34,-64.48C3042.03,-54.78 2997.14,-40.87 2963.75,-30.52"/>
<polygon fill="midnightblue" stroke="midnightblue" points="3072.4,-67.86 3082.99,-67.48 3074.48,-61.17 3072.4,-67.86"/>
</g>
<!-- Node26 -->
<g id="node26" class="node">
<title>Node26</title>
<g id="a_node26"><a xlink:href="d__meter2_8cpp.html" target="_top" xlink:title=" ">
<polygon fill="white" stroke="black" points="2999.5,-6 2999.5,-25 3099.5,-25 3099.5,-6 2999.5,-6"/>
<text text-anchor="middle" x="3049.5" y="-13" font-family="Helvetica,sans-Serif" font-size="10.00">src/d/d_meter2.cpp</text>
</a>
</g>
</g>
<!-- Node2&#45;&gt;Node26 -->
<g id="edge25" class="edge">
<title>Node2&#45;&gt;Node26</title>
<path fill="none" stroke="midnightblue" d="M3094.43,-60.32C3082.84,-49.02 3067.64,-34.19 3058.22,-25.01"/>
<polygon fill="midnightblue" stroke="midnightblue" points="3092.16,-63 3101.76,-67.48 3097.05,-57.99 3092.16,-63"/>
</g>
<!-- Node27 -->
<g id="node27" class="node">
<title>Node27</title>
<g id="a_node27"><a xlink:href="d__save__HIO_8cpp.html" target="_top" xlink:title=" ">
<polygon fill="white" stroke="black" points="3118,-0.5 3118,-30.5 3225,-30.5 3225,-0.5 3118,-0.5"/>
<text text-anchor="start" x="3126" y="-18.5" font-family="Helvetica,sans-Serif" font-size="10.00">src/d/d_save/d_save</text>
<text text-anchor="middle" x="3171.5" y="-7.5" font-family="Helvetica,sans-Serif" font-size="10.00">_HIO.cpp</text>
</a>
</g>
</g>
<!-- Node2&#45;&gt;Node27 -->
<g id="edge26" class="edge">
<title>Node2&#45;&gt;Node27</title>
<path fill="none" stroke="midnightblue" d="M3126.53,-60.37C3136.01,-51.11 3147.94,-39.48 3157.12,-30.52"/>
<polygon fill="midnightblue" stroke="midnightblue" points="3123.95,-57.99 3119.24,-67.48 3128.84,-63 3123.95,-57.99"/>
</g>
<!-- Node28 -->
<g id="node28" class="node">
<title>Node28</title>
<g id="a_node28"><a xlink:href="d__stage_8cpp.html" target="_top" xlink:title=" ">
<polygon fill="white" stroke="black" points="3243.5,-6 3243.5,-25 3337.5,-25 3337.5,-6 3243.5,-6"/>
<text text-anchor="middle" x="3290.5" y="-13" font-family="Helvetica,sans-Serif" font-size="10.00">src/d/d_stage.cpp</text>
</a>
</g>
</g>
<!-- Node2&#45;&gt;Node28 -->
<g id="edge27" class="edge">
<title>Node2&#45;&gt;Node28</title>
<path fill="none" stroke="midnightblue" d="M3146.1,-64.23C3181.09,-52.67 3233.64,-35.3 3264.76,-25.01"/>
<polygon fill="midnightblue" stroke="midnightblue" points="3144.69,-61.01 3136.29,-67.48 3146.88,-67.66 3144.69,-61.01"/>
</g>
<!-- Node29 -->
<g id="node29" class="node">
<title>Node29</title>
<g id="a_node29"><a xlink:href="f__op__actor__tag_8cpp.html" target="_top" xlink:title=" ">
<polygon fill="white" stroke="black" points="3356,-0.5 3356,-30.5 3463,-30.5 3463,-0.5 3356,-0.5"/>
<text text-anchor="start" x="3364" y="-18.5" font-family="Helvetica,sans-Serif" font-size="10.00">src/f/f_op/f_op_actor</text>
<text text-anchor="middle" x="3409.5" y="-7.5" font-family="Helvetica,sans-Serif" font-size="10.00">_tag.cpp</text>
</a>
</g>
</g>
<!-- Node2&#45;&gt;Node29 -->
<g id="edge28" class="edge">
<title>Node2&#45;&gt;Node29</title>
<path fill="none" stroke="midnightblue" d="M3162.5,-66.67C3210.39,-57.94 3283.38,-44.28 3346.5,-31 3349.58,-30.35 3352.73,-29.67 3355.91,-28.98"/>
<polygon fill="midnightblue" stroke="midnightblue" points="3161.59,-63.28 3152.37,-68.51 3162.84,-70.16 3161.59,-63.28"/>
</g>
<!-- Node30 -->
<g id="node30" class="node">
<title>Node30</title>
<g id="a_node30"><a xlink:href="f__pc__line_8cpp.html" target="_top" xlink:title=" ">
<polygon fill="white" stroke="black" points="3481.5,-6 3481.5,-25 3599.5,-25 3599.5,-6 3481.5,-6"/>
<text text-anchor="middle" x="3540.5" y="-13" font-family="Helvetica,sans-Serif" font-size="10.00">src/f/f_pc/f_pc_line.cpp</text>
</a>
</g>
</g>
<!-- Node2&#45;&gt;Node30 -->
<g id="edge29" class="edge">
<title>Node2&#45;&gt;Node30</title>
<path fill="none" stroke="midnightblue" d="M3162.58,-70.95C3233.1,-63.8 3362.76,-49.49 3472.5,-31 3482.5,-29.32 3493.26,-27.18 3503.2,-25.06"/>
<polygon fill="midnightblue" stroke="midnightblue" points="3161.8,-67.52 3152.2,-72 3162.5,-74.48 3161.8,-67.52"/>
</g>
<!-- Node31 -->
<g id="node31" class="node">
<title>Node31</title>
<g id="a_node31"><a xlink:href="f__pc__manager_8cpp.html" target="_top" xlink:title=" ">
<polygon fill="white" stroke="black" points="3617.5,-6 3617.5,-25 3757.5,-25 3757.5,-6 3617.5,-6"/>
<text text-anchor="middle" x="3687.5" y="-13" font-family="Helvetica,sans-Serif" font-size="10.00">src/f/f_pc/f_pc_manager.cpp</text>
</a>
</g>
</g>
<!-- Node2&#45;&gt;Node31 -->
<g id="edge30" class="edge">
<title>Node2&#45;&gt;Node31</title>
<path fill="none" stroke="midnightblue" d="M3162.31,-72.88C3253.03,-67.08 3446.38,-53.16 3608.5,-31 3620.38,-29.38 3633.2,-27.21 3644.98,-25.04"/>
<polygon fill="midnightblue" stroke="midnightblue" points="3162.05,-69.39 3152.29,-73.52 3162.49,-76.38 3162.05,-69.39"/>
</g>
<!-- Node32 -->
<g id="node32" class="node">
<title>Node32</title>
<g id="a_node32"><a xlink:href="m__Do__audio_8cpp.html" target="_top" xlink:title=" ">
<polygon fill="white" stroke="black" points="3775.5,-6 3775.5,-25 3909.5,-25 3909.5,-6 3775.5,-6"/>
<text text-anchor="middle" x="3842.5" y="-13" font-family="Helvetica,sans-Serif" font-size="10.00">src/m_Do/m_Do_audio.cpp</text>
</a>
</g>
</g>
<!-- Node2&#45;&gt;Node32 -->
<g id="edge31" class="edge">
<title>Node2&#45;&gt;Node32</title>
<path fill="none" stroke="midnightblue" d="M3162.37,-74.56C3273.52,-71 3542.76,-59.91 3766.5,-31 3778.36,-29.47 3791.15,-27.25 3802.81,-25.01"/>
<polygon fill="midnightblue" stroke="midnightblue" points="3162,-71.07 3152.12,-74.88 3162.22,-78.06 3162,-71.07"/>
</g>
<!-- Node33 -->
<g id="node33" class="node">
<title>Node33</title>
<g id="a_node33"><a xlink:href="m__Do__controller__pad_8cpp.html" target="_top" xlink:title=" ">
<polygon fill="white" stroke="black" points="3927.5,-0.5 3927.5,-30.5 4059.5,-30.5 4059.5,-0.5 3927.5,-0.5"/>
<text text-anchor="start" x="3935.5" y="-18.5" font-family="Helvetica,sans-Serif" font-size="10.00">src/m_Do/m_Do_controller</text>
<text text-anchor="middle" x="3993.5" y="-7.5" font-family="Helvetica,sans-Serif" font-size="10.00">_pad.cpp</text>
</a>
</g>
</g>
<!-- Node2&#45;&gt;Node33 -->
<g id="edge32" class="edge">
<title>Node2&#45;&gt;Node33</title>
<path fill="none" stroke="midnightblue" d="M3162.66,-75.54C3291.45,-73.86 3634.72,-66.17 3918.5,-31 3921.4,-30.64 3924.35,-30.24 3927.32,-29.8"/>
<polygon fill="midnightblue" stroke="midnightblue" points="3162.26,-72.04 3152.31,-75.66 3162.35,-79.04 3162.26,-72.04"/>
</g>
<!-- Node34 -->
<g id="node34" class="node">
<title>Node34</title>
<g id="a_node34"><a xlink:href="m__Do__dvd__thread_8cpp.html" target="_top" xlink:title=" ">
<polygon fill="white" stroke="black" points="4077.5,-6 4077.5,-25 4235.5,-25 4235.5,-6 4077.5,-6"/>
<text text-anchor="middle" x="4156.5" y="-13" font-family="Helvetica,sans-Serif" font-size="10.00">src/m_Do/m_Do_dvd_thread.cpp</text>
</a>
</g>
</g>
<!-- Node2&#45;&gt;Node34 -->
<g id="edge33" class="edge">
<title>Node2&#45;&gt;Node34</title>
<path fill="none" stroke="midnightblue" d="M3162.49,-75.68C3306.74,-74.34 3724.01,-67.35 4068.5,-31 4082.36,-29.54 4097.35,-27.31 4110.96,-25.04"/>
<polygon fill="midnightblue" stroke="midnightblue" points="3162.15,-72.18 3152.18,-75.77 3162.21,-79.18 3162.15,-72.18"/>
</g>
<!-- Node35 -->
<g id="node35" class="node">
<title>Node35</title>
<g id="a_node35"><a xlink:href="m__Do__DVDError_8cpp.html" target="_top" xlink:title=" ">
<polygon fill="white" stroke="black" points="4254,-6 4254,-25 4405,-25 4405,-6 4254,-6"/>
<text text-anchor="middle" x="4329.5" y="-13" font-family="Helvetica,sans-Serif" font-size="10.00">src/m_Do/m_Do_DVDError.cpp</text>
</a>
</g>
</g>
<!-- Node2&#45;&gt;Node35 -->
<g id="edge34" class="edge">
<title>Node2&#45;&gt;Node35</title>
<path fill="none" stroke="midnightblue" d="M3162.18,-76.32C3322.98,-76.82 3828.64,-74.54 4244.5,-31 4258.05,-29.58 4272.71,-27.34 4285.97,-25.04"/>
<polygon fill="midnightblue" stroke="midnightblue" points="3162.1,-72.82 3152.09,-76.29 3162.07,-79.82 3162.1,-72.82"/>
</g>
<!-- Node36 -->
<g id="node36" class="node">
<title>Node36</title>
<g id="a_node36"><a xlink:href="m__Do__graphic_8cpp.html" target="_top" xlink:title=" ">
<polygon fill="white" stroke="black" points="4423.5,-6 4423.5,-25 4565.5,-25 4565.5,-6 4423.5,-6"/>
<text text-anchor="middle" x="4494.5" y="-13" font-family="Helvetica,sans-Serif" font-size="10.00">src/m_Do/m_Do_graphic.cpp</text>
</a>
</g>
</g>
<!-- Node2&#45;&gt;Node36 -->
<g id="edge35" class="edge">
<title>Node2&#45;&gt;Node36</title>
<path fill="none" stroke="midnightblue" d="M3162.24,-75.22C3372.74,-71.87 4165.32,-57.74 4414.5,-31 4427.41,-29.61 4441.38,-27.35 4453.97,-25.02"/>
<polygon fill="midnightblue" stroke="midnightblue" points="3162.03,-71.72 3152.09,-75.38 3162.14,-78.72 3162.03,-71.72"/>
</g>
<!-- Node37 -->
<g id="node37" class="node">
<title>Node37</title>
<g id="a_node37"><a xlink:href="m__Do__lib_8cpp.html" target="_top" xlink:title=" ">
<polygon fill="white" stroke="black" points="4583.5,-6 4583.5,-25 4703.5,-25 4703.5,-6 4583.5,-6"/>
<text text-anchor="middle" x="4643.5" y="-13" font-family="Helvetica,sans-Serif" font-size="10.00">src/m_Do/m_Do_lib.cpp</text>
</a>
</g>
</g>
<!-- Node2&#45;&gt;Node37 -->
<g id="edge36" class="edge">
<title>Node2&#45;&gt;Node37</title>
<path fill="none" stroke="midnightblue" d="M3162.54,-75.63C3389.35,-73.84 4292.71,-64.67 4574.5,-31 4585.8,-29.65 4598,-27.37 4608.95,-25.01"/>
<polygon fill="midnightblue" stroke="midnightblue" points="3162.23,-72.13 3152.26,-75.71 3162.29,-79.13 3162.23,-72.13"/>
</g>
<!-- Node38 -->
<g id="node38" class="node">
<title>Node38</title>
<g id="a_node38"><a xlink:href="m__Do__machine_8cpp.html" target="_top" xlink:title=" ">
<polygon fill="white" stroke="black" points="4722,-6 4722,-25 4869,-25 4869,-6 4722,-6"/>
<text text-anchor="middle" x="4795.5" y="-13" font-family="Helvetica,sans-Serif" font-size="10.00">src/m_Do/m_Do_machine.cpp</text>
</a>
</g>
</g>
<!-- Node2&#45;&gt;Node38 -->
<g id="edge37" class="edge">
<title>Node2&#45;&gt;Node38</title>
<path fill="none" stroke="midnightblue" d="M3162.27,-75.56C3401.5,-73.35 4401.37,-62.38 4712.5,-31 4725.89,-29.65 4740.38,-27.4 4753.44,-25.07"/>
<polygon fill="midnightblue" stroke="midnightblue" points="3162.08,-72.06 3152.11,-75.65 3162.15,-79.06 3162.08,-72.06"/>
</g>
<!-- Node39 -->
<g id="node39" class="node">
<title>Node39</title>
<g id="a_node39"><a xlink:href="m__Do__machine__exception_8cpp.html" target="_top" xlink:title=" ">
<polygon fill="white" stroke="black" points="4887,-0.5 4887,-30.5 5016,-30.5 5016,-0.5 4887,-0.5"/>
<text text-anchor="start" x="4895" y="-18.5" font-family="Helvetica,sans-Serif" font-size="10.00">src/m_Do/m_Do_machine</text>
<text text-anchor="middle" x="4951.5" y="-7.5" font-family="Helvetica,sans-Serif" font-size="10.00">_exception.cpp</text>
</a>
</g>
</g>
<!-- Node2&#45;&gt;Node39 -->
<g id="edge38" class="edge">
<title>Node2&#45;&gt;Node39</title>
<path fill="none" stroke="midnightblue" d="M3162.22,-75.87C3416.2,-75.08 4533.11,-69.41 4878.5,-31 4881.2,-30.7 4883.94,-30.35 4886.71,-29.97"/>
<polygon fill="midnightblue" stroke="midnightblue" points="3162.15,-72.37 3152.16,-75.91 3162.17,-79.37 3162.15,-72.37"/>
</g>
<!-- Node40 -->
<g id="node40" class="node">
<title>Node40</title>
<g id="a_node40"><a xlink:href="m__Do__main_8cpp.html" target="_top" xlink:title=" ">
<polygon fill="white" stroke="black" points="5034,-6 5034,-25 5165,-25 5165,-6 5034,-6"/>
<text text-anchor="middle" x="5099.5" y="-13" font-family="Helvetica,sans-Serif" font-size="10.00">src/m_Do/m_Do_main.cpp</text>
</a>
</g>
</g>
<!-- Node2&#45;&gt;Node40 -->
<g id="edge39" class="edge">
<title>Node2&#45;&gt;Node40</title>
<path fill="none" stroke="midnightblue" d="M3162.57,-75.97C3429.84,-75.66 4649.5,-71.95 5025.5,-31 5037.6,-29.68 5050.68,-27.41 5062.42,-25.05"/>
<polygon fill="midnightblue" stroke="midnightblue" points="3162.37,-72.47 3152.38,-75.98 3162.38,-79.47 3162.37,-72.47"/>
</g>
<!-- Node41 -->
<g id="node41" class="node">
<title>Node41</title>
<g id="a_node41"><a xlink:href="m__Do__ext_8cpp.html" target="_top" xlink:title=" ">
<polygon fill="white" stroke="black" points="5183,-6 5183,-25 5306,-25 5306,-6 5183,-6"/>
<text text-anchor="middle" x="5244.5" y="-13" font-family="Helvetica,sans-Serif" font-size="10.00">src/m_Do/m_Do_ext.cpp</text>
</a>
</g>
</g>
<!-- Node2&#45;&gt;Node41 -->
<g id="edge40" class="edge">
<title>Node2&#45;&gt;Node41</title>
<path fill="none" stroke="midnightblue" d="M3162.53,-76.15C3442,-76.77 4767.51,-77.2 5174.5,-31 5185.97,-29.7 5198.34,-27.43 5209.45,-25.07"/>
<polygon fill="midnightblue" stroke="midnightblue" points="3162.28,-72.65 3152.27,-76.13 3162.26,-79.65 3162.28,-72.65"/>
</g>
<!-- Node42 -->
<g id="node42" class="node">
<title>Node42</title>
<g id="a_node42"><a xlink:href="m__Do__MemCard_8cpp.html" target="_top" xlink:title=" ">
<polygon fill="white" stroke="black" points="5324.5,-6 5324.5,-25 5476.5,-25 5476.5,-6 5324.5,-6"/>
<text text-anchor="middle" x="5400.5" y="-13" font-family="Helvetica,sans-Serif" font-size="10.00">src/m_Do/m_Do_MemCard.cpp</text>
</a>
</g>
</g>
<!-- Node2&#45;&gt;Node42 -->
<g id="edge41" class="edge">
<title>Node2&#45;&gt;Node42</title>
<path fill="none" stroke="midnightblue" d="M3162.28,-75.99C3452.34,-75.77 4878.03,-72.55 5315.5,-31 5329.36,-29.68 5344.37,-27.41 5357.86,-25.05"/>
<polygon fill="midnightblue" stroke="midnightblue" points="3162.05,-72.49 3152.06,-76 3162.06,-79.49 3162.05,-72.49"/>
</g>
<!-- Node43 -->
<g id="node43" class="node">
<title>Node43</title>
<g id="a_node43"><a xlink:href="m__Do__MemCardRWmng_8cpp.html" target="_top" xlink:title=" ">
<polygon fill="white" stroke="black" points="5495,-6 5495,-25 5682,-25 5682,-6 5495,-6"/>
<text text-anchor="middle" x="5588.5" y="-13" font-family="Helvetica,sans-Serif" font-size="10.00">src/m_Do/m_Do_MemCardRWmng.cpp</text>
</a>
</g>
</g>
<!-- Node2&#45;&gt;Node43 -->
<g id="edge42" class="edge">
<title>Node2&#45;&gt;Node43</title>
<path fill="none" stroke="midnightblue" d="M3162.33,-75.87C3465.47,-74.99 5011.67,-68.7 5485.5,-31 5502.24,-29.67 5520.41,-27.39 5536.76,-25.03"/>
<polygon fill="midnightblue" stroke="midnightblue" points="3162.07,-72.37 3152.08,-75.9 3162.09,-79.37 3162.07,-72.37"/>
</g>
<!-- Node44 -->
<g id="node44" class="node">
<title>Node44</title>
<g id="a_node44"><a xlink:href="m__Do__mtx_8cpp.html" target="_top" xlink:title=" ">
<polygon fill="white" stroke="black" points="5700.5,-6 5700.5,-25 5826.5,-25 5826.5,-6 5700.5,-6"/>
<text text-anchor="middle" x="5763.5" y="-13" font-family="Helvetica,sans-Serif" font-size="10.00">src/m_Do/m_Do_mtx.cpp</text>
</a>
</g>
</g>
<!-- Node2&#45;&gt;Node44 -->
<g id="edge43" class="edge">
<title>Node2&#45;&gt;Node44</title>
<path fill="none" stroke="midnightblue" d="M3162.6,-75.66C3505.4,-73.35 5431.88,-59.17 5691.5,-31 5703.42,-29.71 5716.29,-27.41 5727.81,-25.02"/>
<polygon fill="midnightblue" stroke="midnightblue" points="3162.43,-72.16 3152.46,-75.73 3162.48,-79.16 3162.43,-72.16"/>
</g>
<!-- Node45 -->
<g id="node45" class="node">
<title>Node45</title>
<g id="a_node45"><a xlink:href="m__Do__printf_8cpp.html" target="_top" xlink:title=" ">
<polygon fill="white" stroke="black" points="5844.5,-6 5844.5,-25 5976.5,-25 5976.5,-6 5844.5,-6"/>
<text text-anchor="middle" x="5910.5" y="-13" font-family="Helvetica,sans-Serif" font-size="10.00">src/m_Do/m_Do_printf.cpp</text>
</a>
</g>
</g>
<!-- Node2&#45;&gt;Node45 -->
<g id="edge44" class="edge">
<title>Node2&#45;&gt;Node45</title>
<path fill="none" stroke="midnightblue" d="M3162.39,-75.69C3515.59,-73.5 5560.47,-59.64 5835.5,-31 5847.9,-29.71 5861.3,-27.41 5873.31,-25.02"/>
<polygon fill="midnightblue" stroke="midnightblue" points="3162.18,-72.19 3152.2,-75.75 3162.22,-79.19 3162.18,-72.19"/>
</g>
<!-- Node46 -->
<g id="node46" class="node">
<title>Node46</title>
<g id="a_node46"><a xlink:href="m__Do__Reset_8cpp.html" target="_top" xlink:title=" ">
<polygon fill="white" stroke="black" points="5994.5,-6 5994.5,-25 6130.5,-25 6130.5,-6 5994.5,-6"/>
<text text-anchor="middle" x="6062.5" y="-13" font-family="Helvetica,sans-Serif" font-size="10.00">src/m_Do/m_Do_Reset.cpp</text>
</a>
</g>
</g>
<!-- Node2&#45;&gt;Node46 -->
<g id="edge45" class="edge">
<title>Node2&#45;&gt;Node46</title>
<path fill="none" stroke="midnightblue" d="M3162.34,-75.72C3526.52,-73.7 5694.49,-60.46 5985.5,-31 5998.22,-29.71 6011.98,-27.42 6024.3,-25.02"/>
<polygon fill="midnightblue" stroke="midnightblue" points="3162.08,-72.22 3152.1,-75.78 3162.12,-79.22 3162.08,-72.22"/>
</g>
<!-- Node47 -->
<g id="node47" class="node">
<title>Node47</title>
<g id="a_node47"><a xlink:href="binary_8cpp.html" target="_top" xlink:title=" ">
<polygon fill="white" stroke="black" points="6149,-0.5 6149,-30.5 6262,-30.5 6262,-0.5 6149,-0.5"/>
<text text-anchor="start" x="6157" y="-18.5" font-family="Helvetica,sans-Serif" font-size="10.00">libs/JSystem/JGadget</text>
<text text-anchor="middle" x="6205.5" y="-7.5" font-family="Helvetica,sans-Serif" font-size="10.00">/binary.cpp</text>
</a>
</g>
</g>
<!-- Node2&#45;&gt;Node47 -->
<g id="edge46" class="edge">
<title>Node2&#45;&gt;Node47</title>
<path fill="none" stroke="midnightblue" d="M3162.17,-75.86C3536.96,-74.76 5832.6,-66.62 6139.5,-31 6142.53,-30.65 6145.63,-30.22 6148.74,-29.73"/>
<polygon fill="midnightblue" stroke="midnightblue" points="3162.14,-72.36 3152.15,-75.89 3162.16,-79.36 3162.14,-72.36"/>
</g>
<!-- Node48 -->
<g id="node48" class="node">
<title>Node48</title>
<g id="a_node48"><a xlink:href="JKRAramArchive_8cpp.html" target="_top" xlink:title=" ">
<polygon fill="white" stroke="black" points="6280,-0.5 6280,-30.5 6393,-30.5 6393,-0.5 6280,-0.5"/>
<text text-anchor="start" x="6288" y="-18.5" font-family="Helvetica,sans-Serif" font-size="10.00">libs/JSystem/JKernel</text>
<text text-anchor="middle" x="6336.5" y="-7.5" font-family="Helvetica,sans-Serif" font-size="10.00">/JKRAramArchive.cpp</text>
</a>
</g>
</g>
<!-- Node2&#45;&gt;Node48 -->
<g id="edge47" class="edge">
<title>Node2&#45;&gt;Node48</title>
<path fill="none" stroke="midnightblue" d="M3162.28,-75.9C3546.71,-75.11 5950.68,-68.66 6271.5,-31 6274.26,-30.68 6277.07,-30.29 6279.9,-29.84"/>
<polygon fill="midnightblue" stroke="midnightblue" points="3162.01,-72.4 3152.01,-75.93 3162.02,-79.4 3162.01,-72.4"/>
</g>
<!-- Node49 -->
<g id="node49" class="node">
<title>Node49</title>
<g id="a_node49"><a xlink:href="JKRAramBlock_8cpp.html" target="_top" xlink:title=" ">
<polygon fill="white" stroke="black" points="6411,-0.5 6411,-30.5 6520,-30.5 6520,-0.5 6411,-0.5"/>
<text text-anchor="start" x="6419" y="-18.5" font-family="Helvetica,sans-Serif" font-size="10.00">libs/JSystem/JKernel</text>
<text text-anchor="middle" x="6465.5" y="-7.5" font-family="Helvetica,sans-Serif" font-size="10.00">/JKRAramBlock.cpp</text>
</a>
</g>
</g>
<!-- Node2&#45;&gt;Node49 -->
<g id="edge48" class="edge">
<title>Node2&#45;&gt;Node49</title>
<path fill="none" stroke="midnightblue" d="M3162.26,-75.96C3555.66,-75.54 6067.9,-71.33 6402.5,-31 6405.29,-30.66 6408.13,-30.26 6410.99,-29.79"/>
<polygon fill="midnightblue" stroke="midnightblue" points="3162.03,-72.46 3152.03,-75.97 3162.03,-79.46 3162.03,-72.46"/>
</g>
<!-- Node50 -->
<g id="node50" class="node">
<title>Node50</title>
<g id="a_node50"><a xlink:href="JKRAramHeap_8cpp.html" target="_top" xlink:title=" ">
<polygon fill="white" stroke="black" points="6538,-0.5 6538,-30.5 6647,-30.5 6647,-0.5 6538,-0.5"/>
<text text-anchor="start" x="6546" y="-18.5" font-family="Helvetica,sans-Serif" font-size="10.00">libs/JSystem/JKernel</text>
<text text-anchor="middle" x="6592.5" y="-7.5" font-family="Helvetica,sans-Serif" font-size="10.00">/JKRAramHeap.cpp</text>
</a>
</g>
</g>
<!-- Node2&#45;&gt;Node50 -->
<g id="edge49" class="edge">
<title>Node2&#45;&gt;Node50</title>
<path fill="none" stroke="midnightblue" d="M3162.36,-75.99C3564.69,-75.78 6181.44,-72.86 6529.5,-31 6532.29,-30.66 6535.13,-30.26 6537.99,-29.79"/>
<polygon fill="midnightblue" stroke="midnightblue" points="3162.18,-72.49 3152.18,-75.99 3162.18,-79.49 3162.18,-72.49"/>
</g>
</g>
</svg>
        <g id="navigator" transform="translate(0 0)" fill="#404254">
                <rect fill="#f2f5e9" fill-opacity="0.5" stroke="#606060" stroke-width=".5" x="0" y="0" width="60" height="60"/>
                <use id="zoomplus" xlink:href="#zoomPlus" x="17" y="9" onmousedown="handleZoom(evt,'in')"/>
                <use id="zoomminus" xlink:href="#zoomMin" x="42" y="9" onmousedown="handleZoom(evt,'out')"/>
                <use id="reset" xlink:href="#resetDef" x="30" y="36" onmousedown="handleReset()"/>
                <g id="arrowUp" xlink:href="#dirArrow" transform="translate(30 24)" onmousedown="handlePan(0,-1)">
                  <use xlink:href="#rim" fill="#404040">
                        <set attributeName="fill" to="#808080" begin="arrowUp.mouseover" end="arrowUp.mouseout"/>
                  </use>
                  <path fill="none" stroke="white" stroke-width="1.5" d="M0,-3.0v7 M-2.5,-0.5L0,-3.0L2.5,-0.5"/>
                </g>
                <g id="arrowRight" xlink:href="#dirArrow" transform="rotate(90) translate(36 -43)" onmousedown="handlePan(1,0)">
                  <use xlink:href="#rim" fill="#404040">
                        <set attributeName="fill" to="#808080" begin="arrowRight.mouseover" end="arrowRight.mouseout"/>
                  </use>
                  <path fill="none" stroke="white" stroke-width="1.5" d="M0,-3.0v7 M-2.5,-0.5L0,-3.0L2.5,-0.5"/>
                </g>
                <g id="arrowDown" xlink:href="#dirArrow" transform="rotate(180) translate(-30 -48)" onmousedown="handlePan(0,1)">
                  <use xlink:href="#rim" fill="#404040">
                        <set attributeName="fill" to="#808080" begin="arrowDown.mouseover" end="arrowDown.mouseout"/>
                  </use>
                  <path fill="none" stroke="white" stroke-width="1.5" d="M0,-3.0v7 M-2.5,-0.5L0,-3.0L2.5,-0.5"/>
                </g>
                <g id="arrowLeft" xlink:href="#dirArrow" transform="rotate(270) translate(-36 17)" onmousedown="handlePan(-1,0)">
                  <use xlink:href="#rim" fill="#404040">
                        <set attributeName="fill" to="#808080" begin="arrowLeft.mouseover" end="arrowLeft.mouseout"/>
                  </use>
                  <path fill="none" stroke="white" stroke-width="1.5" d="M0,-3.0v7 M-2.5,-0.5L0,-3.0L2.5,-0.5"/>
                </g>
        </g>
        <svg viewBox="0 0 15 15" width="100%" height="30px" preserveAspectRatio="xMaxYMin meet">
         <g id="arrow_out" transform="scale(0.3 0.3)">
          <a xlink:href="mwcc_8h__dep__incl_org.svg" target="_base">
           <rect id="button" ry="5" rx="5" y="6" x="6" height="38" width="38"
                fill="#f2f5e9" fill-opacity="0.5" stroke="#606060" stroke-width="1.0"/>
           <path id="arrow"
             d="M 11.500037,31.436501 C 11.940474,20.09759 22.043105,11.32322 32.158766,21.979434 L 37.068811,17.246167 C 37.068811,17.246167 37.088388,32 37.088388,32 L 22.160133,31.978069 C 22.160133,31.978069 26.997745,27.140456 26.997745,27.140456 C 18.528582,18.264221 13.291696,25.230495 11.500037,31.436501 z"
             style="fill:#404040;"/>
          </a>
         </g>
        </svg>
</svg>
