<?xml version="1.0" encoding="UTF-8" standalone="no"?>
<!DOCTYPE svg PUBLIC "-//W3C//DTD SVG 1.1//EN"
 "http://www.w3.org/Graphics/SVG/1.1/DTD/svg11.dtd">
<!-- Generated by graphviz version 2.46.1 (20210215.1649)
 -->
<!-- Title: include/os/OS.h Pages: 1 -->
<svg width="5502pt" height="229pt"
 viewBox="0.00 0.00 5501.50 229.00" xmlns="http://www.w3.org/2000/svg" xmlns:xlink="http://www.w3.org/1999/xlink">
<g id="graph0" class="graph" transform="scale(1 1) rotate(0) translate(4 225)">
<title>include/os/OS.h</title>
<polygon fill="white" stroke="transparent" points="-4,4 -4,-225 5497.5,-225 5497.5,4 -4,4"/>
<!-- Node1 -->
<g id="node1" class="node">
<title>Node1</title>
<g id="a_node1"><a xlink:title=" ">
<polygon fill="#bfbfbf" stroke="black" points="4868.5,-201.5 4868.5,-220.5 4954.5,-220.5 4954.5,-201.5 4868.5,-201.5"/>
<text text-anchor="middle" x="4911.5" y="-208.5" font-family="Helvetica,sans-Serif" font-size="10.00">include/os/OS.h</text>
</a>
</g>
</g>
<!-- Node2 -->
<g id="node2" class="node">
<title>Node2</title>
<g id="a_node2"><a xlink:href="d__kankyo_8cpp.html" target="_top" xlink:title=" ">
<polygon fill="white" stroke="black" points="0,-73 0,-92 101,-92 101,-73 0,-73"/>
<text text-anchor="middle" x="50.5" y="-80" font-family="Helvetica,sans-Serif" font-size="10.00">src/d/d_kankyo.cpp</text>
</a>
</g>
</g>
<!-- Node1&#45;&gt;Node2 -->
<g id="edge1" class="edge">
<title>Node1&#45;&gt;Node2</title>
<path fill="none" stroke="midnightblue" d="M4858.1,-209.05C4609.6,-204.61 3541.41,-185.25 2665.5,-165 1529.41,-138.73 1235.76,-249.37 109.5,-98 99.78,-96.69 89.33,-94.42 79.97,-92.06"/>
<polygon fill="midnightblue" stroke="midnightblue" points="4858.24,-212.55 4868.3,-209.23 4858.37,-205.56 4858.24,-212.55"/>
</g>
<!-- Node3 -->
<g id="node3" class="node">
<title>Node3</title>
<g id="a_node3"><a xlink:href="d__kyeff_8cpp.html" target="_top" xlink:title=" ">
<polygon fill="white" stroke="black" points="2675,-140 2675,-159 2788,-159 2788,-140 2675,-140"/>
<text text-anchor="middle" x="2731.5" y="-147" font-family="Helvetica,sans-Serif" font-size="10.00">src/d/d_ky/d_kyeff.cpp</text>
</a>
</g>
</g>
<!-- Node1&#45;&gt;Node3 -->
<g id="edge2" class="edge">
<title>Node1&#45;&gt;Node3</title>
<path fill="none" stroke="midnightblue" d="M4858.14,-210.3C4571.61,-211.68 3213.16,-215.4 2796.5,-165 2785.71,-163.69 2774.08,-161.39 2763.68,-159"/>
<polygon fill="midnightblue" stroke="midnightblue" points="4858.28,-213.8 4868.26,-210.25 4858.25,-206.8 4858.28,-213.8"/>
</g>
<!-- Node4 -->
<g id="node4" class="node">
<title>Node4</title>
<g id="a_node4"><a xlink:href="d__lib_8cpp.html" target="_top" xlink:title=" ">
<polygon fill="white" stroke="black" points="5207.5,-73 5207.5,-92 5287.5,-92 5287.5,-73 5207.5,-73"/>
<text text-anchor="middle" x="5247.5" y="-80" font-family="Helvetica,sans-Serif" font-size="10.00">src/d/d_lib.cpp</text>
</a>
</g>
</g>
<!-- Node1&#45;&gt;Node4 -->
<g id="edge3" class="edge">
<title>Node1&#45;&gt;Node4</title>
<path fill="none" stroke="midnightblue" d="M4919.78,-192.11C4929.02,-174.3 4945.71,-147.71 4968.5,-134 5056.78,-80.89 5096.94,-120.39 5197.5,-98 5205,-96.33 5213.03,-94.17 5220.41,-92.03"/>
<polygon fill="midnightblue" stroke="midnightblue" points="4916.59,-190.67 4915.32,-201.19 4922.87,-193.75 4916.59,-190.67"/>
</g>
<!-- Node5 -->
<g id="node5" class="node">
<title>Node5</title>
<g id="a_node5"><a xlink:href="d__save_8cpp.html" target="_top" xlink:title=" ">
<polygon fill="white" stroke="black" points="4720,-140 4720,-159 4845,-159 4845,-140 4720,-140"/>
<text text-anchor="middle" x="4782.5" y="-147" font-family="Helvetica,sans-Serif" font-size="10.00">src/d/d_save/d_save.cpp</text>
</a>
</g>
</g>
<!-- Node1&#45;&gt;Node5 -->
<g id="edge4" class="edge">
<title>Node1&#45;&gt;Node5</title>
<path fill="none" stroke="midnightblue" d="M4883.69,-197.17C4858.66,-185.63 4822.58,-168.99 4800.95,-159.01"/>
<polygon fill="midnightblue" stroke="midnightblue" points="4882.47,-200.46 4893.02,-201.48 4885.4,-194.11 4882.47,-200.46"/>
</g>
<!-- Node6 -->
<g id="node6" class="node">
<title>Node6</title>
<g id="a_node6"><a xlink:href="m__Do__printf_8cpp.html" target="_top" xlink:title=" ">
<polygon fill="white" stroke="black" points="5037.5,-6 5037.5,-25 5169.5,-25 5169.5,-6 5037.5,-6"/>
<text text-anchor="middle" x="5103.5" y="-13" font-family="Helvetica,sans-Serif" font-size="10.00">src/m_Do/m_Do_printf.cpp</text>
</a>
</g>
</g>
<!-- Node1&#45;&gt;Node6 -->
<g id="edge5" class="edge">
<title>Node1&#45;&gt;Node6</title>
<path fill="none" stroke="midnightblue" d="M4964.69,-208.09C5070.84,-203.74 5300.88,-191.34 5324.5,-165 5347.62,-139.23 5308.01,-77 5296.5,-67 5261.6,-36.67 5210.61,-24.24 5169.81,-19.29"/>
<polygon fill="midnightblue" stroke="midnightblue" points="4964.36,-204.6 4954.51,-208.5 4964.64,-211.6 4964.36,-204.6"/>
</g>
<!-- Node7 -->
<g id="node7" class="node">
<title>Node7</title>
<g id="a_node7"><a xlink:href="global_8h.html" target="_top" xlink:title=" ">
<polygon fill="white" stroke="red" points="2806,-140 2806,-159 2889,-159 2889,-140 2806,-140"/>
<text text-anchor="middle" x="2847.5" y="-147" font-family="Helvetica,sans-Serif" font-size="10.00">include/global.h</text>
</a>
</g>
</g>
<!-- Node1&#45;&gt;Node7 -->
<g id="edge6" class="edge">
<title>Node1&#45;&gt;Node7</title>
<path fill="none" stroke="midnightblue" d="M4858.02,-208.46C4564.23,-199.99 3150.4,-159.23 2889.08,-151.7"/>
<polygon fill="midnightblue" stroke="midnightblue" points="4858.29,-211.97 4868.39,-208.76 4858.5,-204.97 4858.29,-211.97"/>
</g>
<!-- Node213 -->
<g id="node46" class="node">
<title>Node213</title>
<g id="a_node46"><a xlink:href="m__Do__ext_8h.html" target="_top" xlink:title=" ">
<polygon fill="white" stroke="red" points="4841.5,-67.5 4841.5,-97.5 4963.5,-97.5 4963.5,-67.5 4841.5,-67.5"/>
<text text-anchor="start" x="4849.5" y="-85.5" font-family="Helvetica,sans-Serif" font-size="10.00">include/m_Do/m_Do_ext</text>
<text text-anchor="middle" x="4902.5" y="-74.5" font-family="Helvetica,sans-Serif" font-size="10.00">/m_Do_ext.h</text>
</a>
</g>
</g>
<!-- Node1&#45;&gt;Node213 -->
<g id="edge59" class="edge">
<title>Node1&#45;&gt;Node213</title>
<path fill="none" stroke="midnightblue" d="M4904.45,-191.74C4901.69,-183.67 4898.87,-174 4897.5,-165 4893.94,-141.59 4897.15,-114.04 4899.82,-97.72"/>
<polygon fill="midnightblue" stroke="midnightblue" points="4901.19,-193.02 4907.9,-201.22 4907.77,-190.63 4901.19,-193.02"/>
</g>
<!-- Node279 -->
<g id="node47" class="node">
<title>Node279</title>
<g id="a_node47"><a xlink:href="m__Do__printf_8h.html" target="_top" xlink:title=" ">
<polygon fill="white" stroke="red" points="5058,-67.5 5058,-97.5 5189,-97.5 5189,-67.5 5058,-67.5"/>
<text text-anchor="start" x="5066" y="-85.5" font-family="Helvetica,sans-Serif" font-size="10.00">include/m_Do/m_Do_printf</text>
<text text-anchor="middle" x="5123.5" y="-74.5" font-family="Helvetica,sans-Serif" font-size="10.00">/m_Do_printf.h</text>
</a>
</g>
</g>
<!-- Node1&#45;&gt;Node279 -->
<g id="edge60" class="edge">
<title>Node1&#45;&gt;Node279</title>
<path fill="none" stroke="midnightblue" d="M4912.46,-191.33C4914.36,-174.1 4919.84,-148.99 4935.5,-134 4944.73,-125.16 5008.68,-109.14 5059.47,-97.51"/>
<polygon fill="midnightblue" stroke="midnightblue" points="4908.97,-191.08 4911.66,-201.32 4915.95,-191.63 4908.97,-191.08"/>
</g>
<!-- Node346 -->
<g id="node48" class="node">
<title>Node346</title>
<g id="a_node48"><a xlink:href="JKRAramPiece_8h.html" target="_top" xlink:title=" ">
<polygon fill="white" stroke="red" points="5151.5,-134.5 5151.5,-164.5 5315.5,-164.5 5315.5,-134.5 5151.5,-134.5"/>
<text text-anchor="start" x="5159.5" y="-152.5" font-family="Helvetica,sans-Serif" font-size="10.00">include/JSystem/JKernel</text>
<text text-anchor="middle" x="5233.5" y="-141.5" font-family="Helvetica,sans-Serif" font-size="10.00">/JKRAramPiece/JKRAramPiece.h</text>
</a>
</g>
</g>
<!-- Node1&#45;&gt;Node346 -->
<g id="edge55" class="edge">
<title>Node1&#45;&gt;Node346</title>
<path fill="none" stroke="midnightblue" d="M4964.72,-200.17C5017.33,-190.44 5098.33,-175.48 5157.66,-164.51"/>
<polygon fill="midnightblue" stroke="midnightblue" points="4963.79,-196.78 4954.59,-202.04 4965.06,-203.66 4963.79,-196.78"/>
</g>
<!-- Node281 -->
<g id="node49" class="node">
<title>Node281</title>
<g id="a_node49"><a xlink:href="JUTGamePad_8h.html" target="_top" xlink:title=" ">
<polygon fill="white" stroke="red" points="4978,-134.5 4978,-164.5 5133,-164.5 5133,-134.5 4978,-134.5"/>
<text text-anchor="start" x="4986" y="-152.5" font-family="Helvetica,sans-Serif" font-size="10.00">include/JSystem/JUtility</text>
<text text-anchor="middle" x="5055.5" y="-141.5" font-family="Helvetica,sans-Serif" font-size="10.00">/JUTGamePad/JUTGamePad.h</text>
</a>
</g>
</g>
<!-- Node1&#45;&gt;Node281 -->
<g id="edge56" class="edge">
<title>Node1&#45;&gt;Node281</title>
<path fill="none" stroke="midnightblue" d="M4941.53,-197.59C4964.88,-187.94 4997.28,-174.56 5021.56,-164.52"/>
<polygon fill="midnightblue" stroke="midnightblue" points="4940.04,-194.42 4932.13,-201.48 4942.71,-200.89 4940.04,-194.42"/>
</g>
<!-- Node347 -->
<g id="node50" class="node">
<title>Node347</title>
<g id="a_node50"><a xlink:href="JUTVideo_8h.html" target="_top" xlink:title=" ">
<polygon fill="white" stroke="red" points="5371.5,-134.5 5371.5,-164.5 5493.5,-164.5 5493.5,-134.5 5371.5,-134.5"/>
<text text-anchor="start" x="5379.5" y="-152.5" font-family="Helvetica,sans-Serif" font-size="10.00">include/JSystem/JUtility</text>
<text text-anchor="middle" x="5432.5" y="-141.5" font-family="Helvetica,sans-Serif" font-size="10.00">/JUTVideo/JUTVideo.h</text>
</a>
</g>
</g>
<!-- Node1&#45;&gt;Node347 -->
<g id="edge58" class="edge">
<title>Node1&#45;&gt;Node347</title>
<path fill="none" stroke="midnightblue" d="M4964.76,-206.19C5048.59,-199.85 5216.32,-185.73 5357.5,-165 5361.96,-164.35 5366.56,-163.61 5371.18,-162.82"/>
<polygon fill="midnightblue" stroke="midnightblue" points="4964.42,-202.71 4954.71,-206.95 4964.95,-209.69 4964.42,-202.71"/>
</g>
<!-- Node7&#45;&gt;Node2 -->
<g id="edge17" class="edge">
<title>Node7&#45;&gt;Node2</title>
<path fill="none" stroke="midnightblue" d="M2812.45,-137.23C2807.15,-135.91 2801.72,-134.76 2796.5,-134 2205.62,-47.6 701.84,-173.75 109.5,-98 99.67,-96.74 89.1,-94.45 79.66,-92.06"/>
<polygon fill="midnightblue" stroke="midnightblue" points="2811.8,-140.68 2822.36,-139.93 2813.64,-133.93 2811.8,-140.68"/>
</g>
<!-- Node7&#45;&gt;Node4 -->
<g id="edge20" class="edge">
<title>Node7&#45;&gt;Node4</title>
<path fill="none" stroke="midnightblue" d="M2899.5,-148.2C3223.89,-146.19 4963.56,-133.81 5197.5,-98 5205.9,-96.71 5214.87,-94.42 5222.86,-92.03"/>
<polygon fill="midnightblue" stroke="midnightblue" points="2899.42,-144.7 2889.44,-148.26 2899.46,-151.7 2899.42,-144.7"/>
</g>
<!-- Node7&#45;&gt;Node6 -->
<g id="edge47" class="edge">
<title>Node7&#45;&gt;Node6</title>
<path fill="none" stroke="midnightblue" d="M2899.33,-148.15C3216.8,-145.88 4888.37,-132.32 4990.5,-98 5035.67,-82.82 5078.24,-42.74 5095.46,-25.07"/>
<polygon fill="midnightblue" stroke="midnightblue" points="2899.02,-144.65 2889.04,-148.22 2899.07,-151.65 2899.02,-144.65"/>
</g>
<!-- Node8 -->
<g id="node8" class="node">
<title>Node8</title>
<g id="a_node8"><a xlink:href="d__a__horse__static_8cpp.html" target="_top" xlink:title=" ">
<polygon fill="white" stroke="black" points="3617,-67.5 3617,-97.5 3722,-97.5 3722,-67.5 3617,-67.5"/>
<text text-anchor="start" x="3625" y="-85.5" font-family="Helvetica,sans-Serif" font-size="10.00">src/d/d_a/d_a_horse</text>
<text text-anchor="middle" x="3669.5" y="-74.5" font-family="Helvetica,sans-Serif" font-size="10.00">_static.cpp</text>
</a>
</g>
</g>
<!-- Node7&#45;&gt;Node8 -->
<g id="edge7" class="edge">
<title>Node7&#45;&gt;Node8</title>
<path fill="none" stroke="midnightblue" d="M2899.66,-147.96C3023.28,-146.05 3343.48,-137.37 3607.5,-98 3610.56,-97.54 3613.69,-97.01 3616.85,-96.43"/>
<polygon fill="midnightblue" stroke="midnightblue" points="2899.31,-144.47 2889.36,-148.11 2899.41,-151.47 2899.31,-144.47"/>
</g>
<!-- Node9 -->
<g id="node9" class="node">
<title>Node9</title>
<g id="a_node9"><a xlink:href="d__a__item__static_8cpp.html" target="_top" xlink:title=" ">
<polygon fill="white" stroke="black" points="3740.5,-67.5 3740.5,-97.5 3840.5,-97.5 3840.5,-67.5 3740.5,-67.5"/>
<text text-anchor="start" x="3748.5" y="-85.5" font-family="Helvetica,sans-Serif" font-size="10.00">src/d/d_a/d_a_item</text>
<text text-anchor="middle" x="3790.5" y="-74.5" font-family="Helvetica,sans-Serif" font-size="10.00">_static.cpp</text>
</a>
</g>
</g>
<!-- Node7&#45;&gt;Node9 -->
<g id="edge8" class="edge">
<title>Node7&#45;&gt;Node9</title>
<path fill="none" stroke="midnightblue" d="M2899.33,-148.78C3036.03,-148.82 3417.41,-144.4 3730.5,-98 3733.68,-97.53 3736.94,-96.97 3740.21,-96.35"/>
<polygon fill="midnightblue" stroke="midnightblue" points="2899.15,-145.28 2889.15,-148.77 2899.14,-152.28 2899.15,-145.28"/>
</g>
<!-- Node10 -->
<g id="node10" class="node">
<title>Node10</title>
<g id="a_node10"><a xlink:href="d__attention_8cpp.html" target="_top" xlink:title=" ">
<polygon fill="white" stroke="black" points="2608,-6 2608,-25 2715,-25 2715,-6 2608,-6"/>
<text text-anchor="middle" x="2661.5" y="-13" font-family="Helvetica,sans-Serif" font-size="10.00">src/d/d_attention.cpp</text>
</a>
</g>
</g>
<!-- Node7&#45;&gt;Node10 -->
<g id="edge9" class="edge">
<title>Node7&#45;&gt;Node10</title>
<path fill="none" stroke="midnightblue" d="M2812.45,-137.25C2807.15,-135.93 2801.72,-134.77 2796.5,-134 2738.46,-125.4 725.63,-139.84 684.5,-98 674.84,-88.17 674.88,-76.87 684.5,-67 719.04,-31.57 2294.99,-19 2607.84,-16.85"/>
<polygon fill="midnightblue" stroke="midnightblue" points="2811.79,-140.7 2822.36,-139.95 2813.63,-133.95 2811.79,-140.7"/>
</g>
<!-- Node11 -->
<g id="node11" class="node">
<title>Node11</title>
<g id="a_node11"><a xlink:href="d__bg__s__poly__pass__chk_8cpp.html" target="_top" xlink:title=" ">
<polygon fill="white" stroke="black" points="3859,-67.5 3859,-97.5 3978,-97.5 3978,-67.5 3859,-67.5"/>
<text text-anchor="start" x="3867" y="-85.5" font-family="Helvetica,sans-Serif" font-size="10.00">src/d/d_bg/d_bg_s_poly</text>
<text text-anchor="middle" x="3918.5" y="-74.5" font-family="Helvetica,sans-Serif" font-size="10.00">_pass_chk.cpp</text>
</a>
</g>
</g>
<!-- Node7&#45;&gt;Node11 -->
<g id="edge10" class="edge">
<title>Node7&#45;&gt;Node11</title>
<path fill="none" stroke="midnightblue" d="M2899.43,-148.74C3048.12,-148.83 3488.08,-144.79 3849.5,-98 3852.53,-97.61 3855.64,-97.15 3858.76,-96.65"/>
<polygon fill="midnightblue" stroke="midnightblue" points="2899.23,-145.24 2889.23,-148.73 2899.22,-152.24 2899.23,-145.24"/>
</g>
<!-- Node12 -->
<g id="node12" class="node">
<title>Node12</title>
<g id="a_node12"><a xlink:href="d__com__inf__game_8cpp.html" target="_top" xlink:title=" ">
<polygon fill="white" stroke="black" points="4862,-0.5 4862,-30.5 4981,-30.5 4981,-0.5 4862,-0.5"/>
<text text-anchor="start" x="4870" y="-18.5" font-family="Helvetica,sans-Serif" font-size="10.00">src/d/d_com/d_com_inf</text>
<text text-anchor="middle" x="4921.5" y="-7.5" font-family="Helvetica,sans-Serif" font-size="10.00">_game.cpp</text>
</a>
</g>
</g>
<!-- Node7&#45;&gt;Node12 -->
<g id="edge11" class="edge">
<title>Node7&#45;&gt;Node12</title>
<path fill="none" stroke="midnightblue" d="M2899.6,-148.26C3222.22,-146.64 4935.14,-136.26 4972.5,-98 4992.44,-77.58 4962.99,-48.08 4941.23,-30.73"/>
<polygon fill="midnightblue" stroke="midnightblue" points="2899.13,-144.76 2889.15,-148.31 2899.17,-151.76 2899.13,-144.76"/>
</g>
<!-- Node13 -->
<g id="node13" class="node">
<title>Node13</title>
<g id="a_node13"><a xlink:href="d__file__sel__info_8cpp.html" target="_top" xlink:title=" ">
<polygon fill="white" stroke="black" points="3996,-67.5 3996,-97.5 4085,-97.5 4085,-67.5 3996,-67.5"/>
<text text-anchor="start" x="4004" y="-85.5" font-family="Helvetica,sans-Serif" font-size="10.00">src/d/d_file/d_file</text>
<text text-anchor="middle" x="4040.5" y="-74.5" font-family="Helvetica,sans-Serif" font-size="10.00">_sel_info.cpp</text>
</a>
</g>
</g>
<!-- Node7&#45;&gt;Node13 -->
<g id="edge12" class="edge">
<title>Node7&#45;&gt;Node13</title>
<path fill="none" stroke="midnightblue" d="M2899.3,-147.7C3092.74,-144.49 3772.57,-131.06 3986.5,-98 3989.57,-97.53 3992.72,-96.94 3995.87,-96.29"/>
<polygon fill="midnightblue" stroke="midnightblue" points="2899.07,-144.21 2889.13,-147.87 2899.18,-151.2 2899.07,-144.21"/>
</g>
<!-- Node14 -->
<g id="node14" class="node">
<title>Node14</title>
<g id="a_node14"><a xlink:href="d__item_8cpp.html" target="_top" xlink:title=" ">
<polygon fill="white" stroke="black" points="4103,-73 4103,-92 4224,-92 4224,-73 4103,-73"/>
<text text-anchor="middle" x="4163.5" y="-80" font-family="Helvetica,sans-Serif" font-size="10.00">src/d/d_item/d_item.cpp</text>
</a>
</g>
</g>
<!-- Node7&#45;&gt;Node14 -->
<g id="edge13" class="edge">
<title>Node7&#45;&gt;Node14</title>
<path fill="none" stroke="midnightblue" d="M2899.3,-147.53C3103.97,-143.53 3856.69,-127.13 4093.5,-98 4104.83,-96.61 4117.06,-94.34 4128.08,-92.01"/>
<polygon fill="midnightblue" stroke="midnightblue" points="2899.06,-144.04 2889.13,-147.73 2899.19,-151.04 2899.06,-144.04"/>
</g>
<!-- Node15 -->
<g id="node15" class="node">
<title>Node15</title>
<g id="a_node15"><a xlink:href="d__kankyo__data_8cpp.html" target="_top" xlink:title=" ">
<polygon fill="white" stroke="black" points="4281,-67.5 4281,-97.5 4408,-97.5 4408,-67.5 4281,-67.5"/>
<text text-anchor="start" x="4289" y="-85.5" font-family="Helvetica,sans-Serif" font-size="10.00">src/d/d_kankyo/d_kankyo</text>
<text text-anchor="middle" x="4344.5" y="-74.5" font-family="Helvetica,sans-Serif" font-size="10.00">_data.cpp</text>
</a>
</g>
</g>
<!-- Node7&#45;&gt;Node15 -->
<g id="edge14" class="edge">
<title>Node7&#45;&gt;Node15</title>
<path fill="none" stroke="midnightblue" d="M2899.39,-147.68C3121.55,-144.04 3993.64,-128.05 4266.5,-98 4271.15,-97.49 4275.95,-96.86 4280.76,-96.14"/>
<polygon fill="midnightblue" stroke="midnightblue" points="2899.25,-144.19 2889.31,-147.85 2899.36,-151.19 2899.25,-144.19"/>
</g>
<!-- Node16 -->
<g id="node16" class="node">
<title>Node16</title>
<g id="a_node16"><a xlink:href="d__kankyo__rain_8cpp.html" target="_top" xlink:title=" ">
<polygon fill="white" stroke="black" points="4426,-67.5 4426,-97.5 4553,-97.5 4553,-67.5 4426,-67.5"/>
<text text-anchor="start" x="4434" y="-85.5" font-family="Helvetica,sans-Serif" font-size="10.00">src/d/d_kankyo/d_kankyo</text>
<text text-anchor="middle" x="4489.5" y="-74.5" font-family="Helvetica,sans-Serif" font-size="10.00">_rain.cpp</text>
</a>
</g>
</g>
<!-- Node7&#45;&gt;Node16 -->
<g id="edge15" class="edge">
<title>Node7&#45;&gt;Node16</title>
<path fill="none" stroke="midnightblue" d="M2899.39,-147.97C3135.82,-145.4 4112.68,-132.82 4416.5,-98 4419.58,-97.65 4422.73,-97.23 4425.9,-96.77"/>
<polygon fill="midnightblue" stroke="midnightblue" points="2899.3,-144.47 2889.34,-148.08 2899.38,-151.47 2899.3,-144.47"/>
</g>
<!-- Node17 -->
<g id="node17" class="node">
<title>Node17</title>
<g id="a_node17"><a xlink:href="d__kankyo__wether_8cpp.html" target="_top" xlink:title=" ">
<polygon fill="white" stroke="black" points="4571,-67.5 4571,-97.5 4698,-97.5 4698,-67.5 4571,-67.5"/>
<text text-anchor="start" x="4579" y="-85.5" font-family="Helvetica,sans-Serif" font-size="10.00">src/d/d_kankyo/d_kankyo</text>
<text text-anchor="middle" x="4634.5" y="-74.5" font-family="Helvetica,sans-Serif" font-size="10.00">_wether.cpp</text>
</a>
</g>
</g>
<!-- Node7&#45;&gt;Node17 -->
<g id="edge16" class="edge">
<title>Node7&#45;&gt;Node17</title>
<path fill="none" stroke="midnightblue" d="M2899.63,-148.14C3149.66,-146.21 4227.6,-135.81 4561.5,-98 4564.58,-97.65 4567.73,-97.24 4570.9,-96.78"/>
<polygon fill="midnightblue" stroke="midnightblue" points="2899.35,-144.64 2889.37,-148.21 2899.4,-151.64 2899.35,-144.64"/>
</g>
<!-- Node18 -->
<g id="node18" class="node">
<title>Node18</title>
<g id="a_node18"><a xlink:href="d__kantera__icon__meter_8cpp.html" target="_top" xlink:title=" ">
<polygon fill="white" stroke="black" points="4716,-67.5 4716,-97.5 4823,-97.5 4823,-67.5 4716,-67.5"/>
<text text-anchor="start" x="4724" y="-85.5" font-family="Helvetica,sans-Serif" font-size="10.00">src/d/d_kantera_icon</text>
<text text-anchor="middle" x="4769.5" y="-74.5" font-family="Helvetica,sans-Serif" font-size="10.00">_meter.cpp</text>
</a>
</g>
</g>
<!-- Node7&#45;&gt;Node18 -->
<g id="edge18" class="edge">
<title>Node7&#45;&gt;Node18</title>
<path fill="none" stroke="midnightblue" d="M2899.35,-148.49C3161.52,-148.2 4342.84,-144.32 4706.5,-98 4709.51,-97.62 4712.58,-97.15 4715.67,-96.63"/>
<polygon fill="midnightblue" stroke="midnightblue" points="2899.34,-144.99 2889.34,-148.5 2899.34,-151.99 2899.34,-144.99"/>
</g>
<!-- Node19 -->
<g id="node19" class="node">
<title>Node19</title>
<g id="a_node19"><a xlink:href="d__kyeff2_8cpp.html" target="_top" xlink:title=" ">
<polygon fill="white" stroke="black" points="119,-73 119,-92 238,-92 238,-73 119,-73"/>
<text text-anchor="middle" x="178.5" y="-80" font-family="Helvetica,sans-Serif" font-size="10.00">src/d/d_ky/d_kyeff2.cpp</text>
</a>
</g>
</g>
<!-- Node7&#45;&gt;Node19 -->
<g id="edge19" class="edge">
<title>Node7&#45;&gt;Node19</title>
<path fill="none" stroke="midnightblue" d="M2812.45,-137.24C2807.15,-135.91 2801.72,-134.76 2796.5,-134 2235.77,-51.8 809.67,-161.4 246.5,-98 235.22,-96.73 223.06,-94.44 212.18,-92.05"/>
<polygon fill="midnightblue" stroke="midnightblue" points="2811.8,-140.69 2822.36,-139.94 2813.64,-133.93 2811.8,-140.69"/>
</g>
<!-- Node20 -->
<g id="node20" class="node">
<title>Node20</title>
<g id="a_node20"><a xlink:href="d__meter__button_8cpp.html" target="_top" xlink:title=" ">
<polygon fill="white" stroke="black" points="256,-67.5 256,-97.5 371,-97.5 371,-67.5 256,-67.5"/>
<text text-anchor="start" x="264" y="-85.5" font-family="Helvetica,sans-Serif" font-size="10.00">src/d/d_meter/d_meter</text>
<text text-anchor="middle" x="313.5" y="-74.5" font-family="Helvetica,sans-Serif" font-size="10.00">_button.cpp</text>
</a>
</g>
</g>
<!-- Node7&#45;&gt;Node20 -->
<g id="edge21" class="edge">
<title>Node7&#45;&gt;Node20</title>
<path fill="none" stroke="midnightblue" d="M2812.45,-137.24C2807.15,-135.92 2801.72,-134.77 2796.5,-134 2265.04,-55.88 913.09,-159.95 379.5,-98 376.82,-97.69 374.09,-97.32 371.34,-96.9"/>
<polygon fill="midnightblue" stroke="midnightblue" points="2811.79,-140.69 2822.36,-139.94 2813.64,-133.94 2811.79,-140.69"/>
</g>
<!-- Node21 -->
<g id="node21" class="node">
<title>Node21</title>
<g id="a_node21"><a xlink:href="d__meter__haihai_8cpp.html" target="_top" xlink:title=" ">
<polygon fill="white" stroke="black" points="389,-67.5 389,-97.5 504,-97.5 504,-67.5 389,-67.5"/>
<text text-anchor="start" x="397" y="-85.5" font-family="Helvetica,sans-Serif" font-size="10.00">src/d/d_meter/d_meter</text>
<text text-anchor="middle" x="446.5" y="-74.5" font-family="Helvetica,sans-Serif" font-size="10.00">_haihai.cpp</text>
</a>
</g>
</g>
<!-- Node7&#45;&gt;Node21 -->
<g id="edge22" class="edge">
<title>Node7&#45;&gt;Node21</title>
<path fill="none" stroke="midnightblue" d="M2812.45,-137.24C2807.15,-135.92 2801.72,-134.77 2796.5,-134 2294.31,-59.96 1016.71,-156.76 512.5,-98 509.82,-97.69 507.09,-97.31 504.34,-96.89"/>
<polygon fill="midnightblue" stroke="midnightblue" points="2811.79,-140.69 2822.36,-139.95 2813.63,-133.94 2811.79,-140.69"/>
</g>
<!-- Node22 -->
<g id="node22" class="node">
<title>Node22</title>
<g id="a_node22"><a xlink:href="d__meter__hakusha_8cpp.html" target="_top" xlink:title=" ">
<polygon fill="white" stroke="black" points="522,-67.5 522,-97.5 637,-97.5 637,-67.5 522,-67.5"/>
<text text-anchor="start" x="530" y="-85.5" font-family="Helvetica,sans-Serif" font-size="10.00">src/d/d_meter/d_meter</text>
<text text-anchor="middle" x="579.5" y="-74.5" font-family="Helvetica,sans-Serif" font-size="10.00">_hakusha.cpp</text>
</a>
</g>
</g>
<!-- Node7&#45;&gt;Node22 -->
<g id="edge23" class="edge">
<title>Node7&#45;&gt;Node22</title>
<path fill="none" stroke="midnightblue" d="M2812.45,-137.25C2807.15,-135.92 2801.72,-134.77 2796.5,-134 2324.9,-64.22 1125.47,-149.27 651.5,-98 646.81,-97.49 641.97,-96.83 637.12,-96.06"/>
<polygon fill="midnightblue" stroke="midnightblue" points="2811.79,-140.7 2822.36,-139.95 2813.63,-133.94 2811.79,-140.7"/>
</g>
<!-- Node23 -->
<g id="node23" class="node">
<title>Node23</title>
<g id="a_node23"><a xlink:href="d__meter__HIO_8cpp.html" target="_top" xlink:title=" ">
<polygon fill="white" stroke="black" points="4462,-0.5 4462,-30.5 4577,-30.5 4577,-0.5 4462,-0.5"/>
<text text-anchor="start" x="4470" y="-18.5" font-family="Helvetica,sans-Serif" font-size="10.00">src/d/d_meter/d_meter</text>
<text text-anchor="middle" x="4519.5" y="-7.5" font-family="Helvetica,sans-Serif" font-size="10.00">_HIO.cpp</text>
</a>
</g>
</g>
<!-- Node7&#45;&gt;Node23 -->
<g id="edge24" class="edge">
<title>Node7&#45;&gt;Node23</title>
<path fill="none" stroke="midnightblue" d="M2899.38,-148.52C3135.88,-148.36 4105.81,-144.82 4232.5,-98 4253.27,-90.32 4251.43,-76.36 4271.5,-67 4332.83,-38.41 4410.12,-25.94 4461.97,-20.55"/>
<polygon fill="midnightblue" stroke="midnightblue" points="2899.32,-145.02 2889.32,-148.53 2899.32,-152.02 2899.32,-145.02"/>
</g>
<!-- Node24 -->
<g id="node24" class="node">
<title>Node24</title>
<g id="a_node24"><a xlink:href="d__meter__map_8cpp.html" target="_top" xlink:title=" ">
<polygon fill="white" stroke="black" points="694,-67.5 694,-97.5 809,-97.5 809,-67.5 694,-67.5"/>
<text text-anchor="start" x="702" y="-85.5" font-family="Helvetica,sans-Serif" font-size="10.00">src/d/d_meter/d_meter</text>
<text text-anchor="middle" x="751.5" y="-74.5" font-family="Helvetica,sans-Serif" font-size="10.00">_map.cpp</text>
</a>
</g>
</g>
<!-- Node7&#45;&gt;Node24 -->
<g id="edge25" class="edge">
<title>Node7&#45;&gt;Node24</title>
<path fill="none" stroke="midnightblue" d="M2812.45,-137.25C2807.15,-135.93 2801.72,-134.78 2796.5,-134 2361.43,-69.31 1254.33,-149.44 817.5,-98 814.82,-97.68 812.09,-97.31 809.34,-96.89"/>
<polygon fill="midnightblue" stroke="midnightblue" points="2811.79,-140.7 2822.36,-139.96 2813.63,-133.95 2811.79,-140.7"/>
</g>
<!-- Node25 -->
<g id="node25" class="node">
<title>Node25</title>
<g id="a_node25"><a xlink:href="d__meter__string_8cpp.html" target="_top" xlink:title=" ">
<polygon fill="white" stroke="black" points="827,-67.5 827,-97.5 942,-97.5 942,-67.5 827,-67.5"/>
<text text-anchor="start" x="835" y="-85.5" font-family="Helvetica,sans-Serif" font-size="10.00">src/d/d_meter/d_meter</text>
<text text-anchor="middle" x="884.5" y="-74.5" font-family="Helvetica,sans-Serif" font-size="10.00">_string.cpp</text>
</a>
</g>
</g>
<!-- Node7&#45;&gt;Node25 -->
<g id="edge26" class="edge">
<title>Node7&#45;&gt;Node25</title>
<path fill="none" stroke="midnightblue" d="M2812.44,-137.26C2807.15,-135.94 2801.71,-134.78 2796.5,-134 2390.7,-73.39 1357.95,-146.25 950.5,-98 947.82,-97.68 945.09,-97.31 942.34,-96.88"/>
<polygon fill="midnightblue" stroke="midnightblue" points="2811.79,-140.71 2822.36,-139.96 2813.63,-133.96 2811.79,-140.71"/>
</g>
<!-- Node26 -->
<g id="node26" class="node">
<title>Node26</title>
<g id="a_node26"><a xlink:href="d__meter_8cpp.html" target="_top" xlink:title=" ">
<polygon fill="white" stroke="black" points="960,-73 960,-92 1055,-92 1055,-73 960,-73"/>
<text text-anchor="middle" x="1007.5" y="-80" font-family="Helvetica,sans-Serif" font-size="10.00">src/d/d_meter.cpp</text>
</a>
</g>
</g>
<!-- Node7&#45;&gt;Node26 -->
<g id="edge27" class="edge">
<title>Node7&#45;&gt;Node26</title>
<path fill="none" stroke="midnightblue" d="M2812.44,-137.27C2807.15,-135.94 2801.71,-134.78 2796.5,-134 2415.57,-76.86 1445.08,-150.63 1063.5,-98 1054.15,-96.71 1044.11,-94.41 1035.16,-92.02"/>
<polygon fill="midnightblue" stroke="midnightblue" points="2811.79,-140.72 2822.36,-139.97 2813.63,-133.96 2811.79,-140.72"/>
</g>
<!-- Node27 -->
<g id="node27" class="node">
<title>Node27</title>
<g id="a_node27"><a xlink:href="d__meter2__draw_8cpp.html" target="_top" xlink:title=" ">
<polygon fill="white" stroke="black" points="1073,-67.5 1073,-97.5 1198,-97.5 1198,-67.5 1073,-67.5"/>
<text text-anchor="start" x="1081" y="-85.5" font-family="Helvetica,sans-Serif" font-size="10.00">src/d/d_meter2/d_meter2</text>
<text text-anchor="middle" x="1135.5" y="-74.5" font-family="Helvetica,sans-Serif" font-size="10.00">_draw.cpp</text>
</a>
</g>
</g>
<!-- Node7&#45;&gt;Node27 -->
<g id="edge28" class="edge">
<title>Node7&#45;&gt;Node27</title>
<path fill="none" stroke="midnightblue" d="M2812.44,-137.28C2807.15,-135.95 2801.71,-134.79 2796.5,-134 2447.04,-81.25 1557.71,-137.52 1206.5,-98 1203.75,-97.69 1200.95,-97.33 1198.12,-96.92"/>
<polygon fill="midnightblue" stroke="midnightblue" points="2811.79,-140.73 2822.36,-139.98 2813.63,-133.97 2811.79,-140.73"/>
</g>
<!-- Node28 -->
<g id="node28" class="node">
<title>Node28</title>
<g id="a_node28"><a xlink:href="d__meter2__info_8cpp.html" target="_top" xlink:title=" ">
<polygon fill="white" stroke="black" points="1216,-67.5 1216,-97.5 1341,-97.5 1341,-67.5 1216,-67.5"/>
<text text-anchor="start" x="1224" y="-85.5" font-family="Helvetica,sans-Serif" font-size="10.00">src/d/d_meter2/d_meter2</text>
<text text-anchor="middle" x="1278.5" y="-74.5" font-family="Helvetica,sans-Serif" font-size="10.00">_info.cpp</text>
</a>
</g>
</g>
<!-- Node7&#45;&gt;Node28 -->
<g id="edge29" class="edge">
<title>Node7&#45;&gt;Node28</title>
<path fill="none" stroke="midnightblue" d="M2812.44,-137.29C2807.15,-135.96 2801.71,-134.79 2796.5,-134 2478.72,-85.66 1669.93,-133.86 1350.5,-98 1347.46,-97.66 1344.36,-97.25 1341.23,-96.8"/>
<polygon fill="midnightblue" stroke="midnightblue" points="2811.79,-140.74 2822.36,-139.99 2813.63,-133.98 2811.79,-140.74"/>
</g>
<!-- Node29 -->
<g id="node29" class="node">
<title>Node29</title>
<g id="a_node29"><a xlink:href="d__meter2_8cpp.html" target="_top" xlink:title=" ">
<polygon fill="white" stroke="black" points="1359.5,-73 1359.5,-92 1459.5,-92 1459.5,-73 1359.5,-73"/>
<text text-anchor="middle" x="1409.5" y="-80" font-family="Helvetica,sans-Serif" font-size="10.00">src/d/d_meter2.cpp</text>
</a>
</g>
</g>
<!-- Node7&#45;&gt;Node29 -->
<g id="edge30" class="edge">
<title>Node7&#45;&gt;Node29</title>
<path fill="none" stroke="midnightblue" d="M2812.27,-137.25C2807.03,-135.94 2801.66,-134.79 2796.5,-134 2212.87,-44.57 2053.64,-176.91 1468.5,-98 1458.78,-96.69 1448.33,-94.42 1438.97,-92.06"/>
<polygon fill="midnightblue" stroke="midnightblue" points="2811.53,-140.68 2822.09,-139.93 2813.36,-133.92 2811.53,-140.68"/>
</g>
<!-- Node30 -->
<g id="node30" class="node">
<title>Node30</title>
<g id="a_node30"><a xlink:href="d__save__HIO_8cpp.html" target="_top" xlink:title=" ">
<polygon fill="white" stroke="black" points="1478,-67.5 1478,-97.5 1585,-97.5 1585,-67.5 1478,-67.5"/>
<text text-anchor="start" x="1486" y="-85.5" font-family="Helvetica,sans-Serif" font-size="10.00">src/d/d_save/d_save</text>
<text text-anchor="middle" x="1531.5" y="-74.5" font-family="Helvetica,sans-Serif" font-size="10.00">_HIO.cpp</text>
</a>
</g>
</g>
<!-- Node7&#45;&gt;Node30 -->
<g id="edge31" class="edge">
<title>Node7&#45;&gt;Node30</title>
<path fill="none" stroke="midnightblue" d="M2812.27,-137.27C2807.03,-135.95 2801.66,-134.8 2796.5,-134 2268.32,-52.3 2124.58,-166.27 1594.5,-98 1591.49,-97.61 1588.42,-97.15 1585.33,-96.62"/>
<polygon fill="midnightblue" stroke="midnightblue" points="2811.52,-140.69 2822.09,-139.94 2813.36,-133.94 2811.52,-140.69"/>
</g>
<!-- Node31 -->
<g id="node31" class="node">
<title>Node31</title>
<g id="a_node31"><a xlink:href="d__stage_8cpp.html" target="_top" xlink:title=" ">
<polygon fill="white" stroke="black" points="1603.5,-73 1603.5,-92 1697.5,-92 1697.5,-73 1603.5,-73"/>
<text text-anchor="middle" x="1650.5" y="-80" font-family="Helvetica,sans-Serif" font-size="10.00">src/d/d_stage.cpp</text>
</a>
</g>
</g>
<!-- Node7&#45;&gt;Node31 -->
<g id="edge32" class="edge">
<title>Node7&#45;&gt;Node31</title>
<path fill="none" stroke="midnightblue" d="M2812.27,-137.28C2807.03,-135.96 2801.65,-134.81 2796.5,-134 2317.6,-59.17 2186.25,-167.17 1706.5,-98 1697.26,-96.67 1687.34,-94.39 1678.45,-92.03"/>
<polygon fill="midnightblue" stroke="midnightblue" points="2811.52,-140.71 2822.09,-139.96 2813.36,-133.95 2811.52,-140.71"/>
</g>
<!-- Node32 -->
<g id="node32" class="node">
<title>Node32</title>
<g id="a_node32"><a xlink:href="f__ap__game_8cpp.html" target="_top" xlink:title=" ">
<polygon fill="white" stroke="black" points="1716,-73 1716,-92 1821,-92 1821,-73 1716,-73"/>
<text text-anchor="middle" x="1768.5" y="-80" font-family="Helvetica,sans-Serif" font-size="10.00">src/f/f_ap_game.cpp</text>
</a>
</g>
</g>
<!-- Node7&#45;&gt;Node32 -->
<g id="edge33" class="edge">
<title>Node7&#45;&gt;Node32</title>
<path fill="none" stroke="midnightblue" d="M2812.26,-137.3C2807.02,-135.98 2801.65,-134.82 2796.5,-134 2371.72,-66.71 2255.65,-156.01 1829.5,-98 1819.58,-96.65 1808.91,-94.4 1799.31,-92.06"/>
<polygon fill="midnightblue" stroke="midnightblue" points="2811.52,-140.73 2822.09,-139.98 2813.36,-133.97 2811.52,-140.73"/>
</g>
<!-- Node33 -->
<g id="node33" class="node">
<title>Node33</title>
<g id="a_node33"><a xlink:href="f__op__actor__tag_8cpp.html" target="_top" xlink:title=" ">
<polygon fill="white" stroke="black" points="1839,-67.5 1839,-97.5 1946,-97.5 1946,-67.5 1839,-67.5"/>
<text text-anchor="start" x="1847" y="-85.5" font-family="Helvetica,sans-Serif" font-size="10.00">src/f/f_op/f_op_actor</text>
<text text-anchor="middle" x="1892.5" y="-74.5" font-family="Helvetica,sans-Serif" font-size="10.00">_tag.cpp</text>
</a>
</g>
</g>
<!-- Node7&#45;&gt;Node33 -->
<g id="edge34" class="edge">
<title>Node7&#45;&gt;Node33</title>
<path fill="none" stroke="midnightblue" d="M2812.09,-137.28C2806.9,-135.98 2801.59,-134.82 2796.5,-134 2426.71,-74.37 2325.59,-148.87 1954.5,-98 1951.76,-97.62 1948.97,-97.18 1946.15,-96.7"/>
<polygon fill="midnightblue" stroke="midnightblue" points="2811.25,-140.68 2821.82,-139.93 2813.09,-133.93 2811.25,-140.68"/>
</g>
<!-- Node34 -->
<g id="node34" class="node">
<title>Node34</title>
<g id="a_node34"><a xlink:href="f__op__camera_8cpp.html" target="_top" xlink:title=" ">
<polygon fill="white" stroke="black" points="1964,-73 1964,-92 2099,-92 2099,-73 1964,-73"/>
<text text-anchor="middle" x="2031.5" y="-80" font-family="Helvetica,sans-Serif" font-size="10.00">src/f/f_op/f_op_camera.cpp</text>
</a>
</g>
</g>
<!-- Node7&#45;&gt;Node34 -->
<g id="edge35" class="edge">
<title>Node7&#45;&gt;Node34</title>
<path fill="none" stroke="midnightblue" d="M2812.08,-137.33C2806.9,-136.02 2801.59,-134.85 2796.5,-134 2494,-83.75 2411.92,-134.82 2107.5,-98 2095.5,-96.55 2082.54,-94.33 2070.79,-92.05"/>
<polygon fill="midnightblue" stroke="midnightblue" points="2811.24,-140.73 2821.81,-139.98 2813.08,-133.97 2811.24,-140.73"/>
</g>
<!-- Node35 -->
<g id="node35" class="node">
<title>Node35</title>
<g id="a_node35"><a xlink:href="f__op__camera__mng_8cpp.html" target="_top" xlink:title=" ">
<polygon fill="white" stroke="black" points="2117,-67.5 2117,-97.5 2234,-97.5 2234,-67.5 2117,-67.5"/>
<text text-anchor="start" x="2125" y="-85.5" font-family="Helvetica,sans-Serif" font-size="10.00">src/f/f_op/f_op_camera</text>
<text text-anchor="middle" x="2175.5" y="-74.5" font-family="Helvetica,sans-Serif" font-size="10.00">_mng.cpp</text>
</a>
</g>
</g>
<!-- Node7&#45;&gt;Node35 -->
<g id="edge36" class="edge">
<title>Node7&#45;&gt;Node35</title>
<path fill="none" stroke="midnightblue" d="M2811.51,-137.25C2806.51,-135.98 2801.4,-134.85 2796.5,-134 2553.79,-92.09 2487.47,-131.77 2243.5,-98 2240.39,-97.57 2237.21,-97.08 2234.01,-96.54"/>
<polygon fill="midnightblue" stroke="midnightblue" points="2810.97,-140.73 2821.54,-139.97 2812.81,-133.97 2810.97,-140.73"/>
</g>
<!-- Node36 -->
<g id="node36" class="node">
<title>Node36</title>
<g id="a_node36"><a xlink:href="f__op__draw__iter_8cpp.html" target="_top" xlink:title=" ">
<polygon fill="white" stroke="black" points="2252.5,-67.5 2252.5,-97.5 2358.5,-97.5 2358.5,-67.5 2252.5,-67.5"/>
<text text-anchor="start" x="2260.5" y="-85.5" font-family="Helvetica,sans-Serif" font-size="10.00">src/f/f_op/f_op_draw</text>
<text text-anchor="middle" x="2305.5" y="-74.5" font-family="Helvetica,sans-Serif" font-size="10.00">_iter.cpp</text>
</a>
</g>
</g>
<!-- Node7&#45;&gt;Node36 -->
<g id="edge37" class="edge">
<title>Node7&#45;&gt;Node36</title>
<path fill="none" stroke="midnightblue" d="M2811.33,-137.29C2806.38,-136.03 2801.34,-134.88 2796.5,-134 2608.27,-99.68 2556.49,-127.87 2367.5,-98 2364.66,-97.55 2361.76,-97.04 2358.84,-96.5"/>
<polygon fill="midnightblue" stroke="midnightblue" points="2810.69,-140.74 2821.26,-139.99 2812.53,-133.99 2810.69,-140.74"/>
</g>
<!-- Node37 -->
<g id="node37" class="node">
<title>Node37</title>
<g id="a_node37"><a xlink:href="f__op__draw__tag_8cpp.html" target="_top" xlink:title=" ">
<polygon fill="white" stroke="black" points="2376.5,-67.5 2376.5,-97.5 2482.5,-97.5 2482.5,-67.5 2376.5,-67.5"/>
<text text-anchor="start" x="2384.5" y="-85.5" font-family="Helvetica,sans-Serif" font-size="10.00">src/f/f_op/f_op_draw</text>
<text text-anchor="middle" x="2429.5" y="-74.5" font-family="Helvetica,sans-Serif" font-size="10.00">_tag.cpp</text>
</a>
</g>
</g>
<!-- Node7&#45;&gt;Node37 -->
<g id="edge38" class="edge">
<title>Node7&#45;&gt;Node37</title>
<path fill="none" stroke="midnightblue" d="M2810.43,-137.22C2805.76,-136.02 2801.04,-134.91 2796.5,-134 2662.65,-107.25 2625.94,-121.58 2491.5,-98 2488.56,-97.48 2485.55,-96.92 2482.52,-96.31"/>
<polygon fill="midnightblue" stroke="midnightblue" points="2809.87,-140.69 2820.43,-139.94 2811.7,-133.94 2809.87,-140.69"/>
</g>
<!-- Node38 -->
<g id="node38" class="node">
<title>Node38</title>
<g id="a_node38"><a xlink:href="f__op__kankyo_8cpp.html" target="_top" xlink:title=" ">
<polygon fill="white" stroke="black" points="2500.5,-73 2500.5,-92 2634.5,-92 2634.5,-73 2500.5,-73"/>
<text text-anchor="middle" x="2567.5" y="-80" font-family="Helvetica,sans-Serif" font-size="10.00">src/f/f_op/f_op_kankyo.cpp</text>
</a>
</g>
</g>
<!-- Node7&#45;&gt;Node38 -->
<g id="edge39" class="edge">
<title>Node7&#45;&gt;Node38</title>
<path fill="none" stroke="midnightblue" d="M2809.02,-137.29C2804.8,-136.15 2800.57,-135.03 2796.5,-134 2731.76,-117.67 2655.99,-101.54 2609.88,-92.05"/>
<polygon fill="midnightblue" stroke="midnightblue" points="2808.15,-140.69 2818.72,-139.99 2810.02,-133.94 2808.15,-140.69"/>
</g>
<!-- Node39 -->
<g id="node39" class="node">
<title>Node39</title>
<g id="a_node39"><a xlink:href="f__op__kankyo__mng_8cpp.html" target="_top" xlink:title=" ">
<polygon fill="white" stroke="black" points="2652.5,-67.5 2652.5,-97.5 2768.5,-97.5 2768.5,-67.5 2652.5,-67.5"/>
<text text-anchor="start" x="2660.5" y="-85.5" font-family="Helvetica,sans-Serif" font-size="10.00">src/f/f_op/f_op_kankyo</text>
<text text-anchor="middle" x="2710.5" y="-74.5" font-family="Helvetica,sans-Serif" font-size="10.00">_mng.cpp</text>
</a>
</g>
</g>
<!-- Node7&#45;&gt;Node39 -->
<g id="edge40" class="edge">
<title>Node7&#45;&gt;Node39</title>
<path fill="none" stroke="midnightblue" d="M2820.04,-135.47C2796.88,-124.49 2763.81,-108.79 2740.07,-97.53"/>
<polygon fill="midnightblue" stroke="midnightblue" points="2818.77,-138.74 2829.31,-139.87 2821.77,-132.42 2818.77,-138.74"/>
</g>
<!-- Node40 -->
<g id="node40" class="node">
<title>Node40</title>
<g id="a_node40"><a xlink:href="f__op__msg_8cpp.html" target="_top" xlink:title=" ">
<polygon fill="white" stroke="black" points="2786.5,-73 2786.5,-92 2908.5,-92 2908.5,-73 2786.5,-73"/>
<text text-anchor="middle" x="2847.5" y="-80" font-family="Helvetica,sans-Serif" font-size="10.00">src/f/f_op/f_op_msg.cpp</text>
</a>
</g>
</g>
<!-- Node7&#45;&gt;Node40 -->
<g id="edge41" class="edge">
<title>Node7&#45;&gt;Node40</title>
<path fill="none" stroke="midnightblue" d="M2847.5,-129.54C2847.5,-117.17 2847.5,-101.62 2847.5,-92.13"/>
<polygon fill="midnightblue" stroke="midnightblue" points="2844,-129.73 2847.5,-139.73 2851,-129.73 2844,-129.73"/>
</g>
<!-- Node41 -->
<g id="node41" class="node">
<title>Node41</title>
<g id="a_node41"><a xlink:href="f__op__msg__mng_8cpp.html" target="_top" xlink:title=" ">
<polygon fill="white" stroke="black" points="2926.5,-67.5 2926.5,-97.5 3030.5,-97.5 3030.5,-67.5 2926.5,-67.5"/>
<text text-anchor="start" x="2934.5" y="-85.5" font-family="Helvetica,sans-Serif" font-size="10.00">src/f/f_op/f_op_msg</text>
<text text-anchor="middle" x="2978.5" y="-74.5" font-family="Helvetica,sans-Serif" font-size="10.00">_mng.cpp</text>
</a>
</g>
</g>
<!-- Node7&#45;&gt;Node41 -->
<g id="edge42" class="edge">
<title>Node7&#45;&gt;Node41</title>
<path fill="none" stroke="midnightblue" d="M2874.02,-135.34C2896.07,-124.4 2927.39,-108.86 2949.98,-97.65"/>
<polygon fill="midnightblue" stroke="midnightblue" points="2872.3,-132.29 2864.9,-139.87 2875.41,-138.56 2872.3,-132.29"/>
</g>
<!-- Node42 -->
<g id="node42" class="node">
<title>Node42</title>
<g id="a_node42"><a xlink:href="f__op__overlap_8cpp.html" target="_top" xlink:title=" ">
<polygon fill="white" stroke="black" points="3048.5,-73 3048.5,-92 3182.5,-92 3182.5,-73 3048.5,-73"/>
<text text-anchor="middle" x="3115.5" y="-80" font-family="Helvetica,sans-Serif" font-size="10.00">src/f/f_op/f_op_overlap.cpp</text>
</a>
</g>
</g>
<!-- Node7&#45;&gt;Node42 -->
<g id="edge43" class="edge">
<title>Node7&#45;&gt;Node42</title>
<path fill="none" stroke="midnightblue" d="M2892.59,-137.56C2945.42,-124.75 3031.86,-103.78 3080.11,-92.08"/>
<polygon fill="midnightblue" stroke="midnightblue" points="2891.71,-134.18 2882.81,-139.94 2893.36,-140.98 2891.71,-134.18"/>
</g>
<!-- Node43 -->
<g id="node43" class="node">
<title>Node43</title>
<g id="a_node43"><a xlink:href="f__op__overlap__mng_8cpp.html" target="_top" xlink:title=" ">
<polygon fill="white" stroke="black" points="3200.5,-67.5 3200.5,-97.5 3316.5,-97.5 3316.5,-67.5 3200.5,-67.5"/>
<text text-anchor="start" x="3208.5" y="-85.5" font-family="Helvetica,sans-Serif" font-size="10.00">src/f/f_op/f_op_overlap</text>
<text text-anchor="middle" x="3258.5" y="-74.5" font-family="Helvetica,sans-Serif" font-size="10.00">_mng.cpp</text>
</a>
</g>
</g>
<!-- Node7&#45;&gt;Node43 -->
<g id="edge44" class="edge">
<title>Node7&#45;&gt;Node43</title>
<path fill="none" stroke="midnightblue" d="M2899.17,-142.02C2966.62,-133.31 3088.26,-116.73 3191.5,-98 3194.43,-97.47 3197.42,-96.9 3200.44,-96.31"/>
<polygon fill="midnightblue" stroke="midnightblue" points="2898.69,-138.55 2889.22,-143.3 2899.58,-145.49 2898.69,-138.55"/>
</g>
<!-- Node44 -->
<g id="node44" class="node">
<title>Node44</title>
<g id="a_node44"><a xlink:href="f__op__scene_8cpp.html" target="_top" xlink:title=" ">
<polygon fill="white" stroke="black" points="3335,-73 3335,-92 3464,-92 3464,-73 3335,-73"/>
<text text-anchor="middle" x="3399.5" y="-80" font-family="Helvetica,sans-Serif" font-size="10.00">src/f/f_op/f_op_scene.cpp</text>
</a>
</g>
</g>
<!-- Node7&#45;&gt;Node44 -->
<g id="edge45" class="edge">
<title>Node7&#45;&gt;Node44</title>
<path fill="none" stroke="midnightblue" d="M2899.2,-144.54C2987.08,-137.48 3171.11,-121.23 3325.5,-98 3336.5,-96.34 3348.36,-94.19 3359.29,-92.05"/>
<polygon fill="midnightblue" stroke="midnightblue" points="2898.91,-141.06 2889.22,-145.34 2899.46,-148.03 2898.91,-141.06"/>
</g>
<!-- Node45 -->
<g id="node45" class="node">
<title>Node45</title>
<g id="a_node45"><a xlink:href="f__op__overlap__req_8cpp.html" target="_top" xlink:title=" ">
<polygon fill="white" stroke="black" points="3482.5,-67.5 3482.5,-97.5 3598.5,-97.5 3598.5,-67.5 3482.5,-67.5"/>
<text text-anchor="start" x="3490.5" y="-85.5" font-family="Helvetica,sans-Serif" font-size="10.00">src/f/f_op/f_op_overlap</text>
<text text-anchor="middle" x="3540.5" y="-74.5" font-family="Helvetica,sans-Serif" font-size="10.00">_req.cpp</text>
</a>
</g>
</g>
<!-- Node7&#45;&gt;Node45 -->
<g id="edge46" class="edge">
<title>Node7&#45;&gt;Node45</title>
<path fill="none" stroke="midnightblue" d="M2899.26,-146.59C3006.62,-142.12 3261.15,-128.94 3472.5,-98 3475.72,-97.53 3479.03,-96.99 3482.35,-96.42"/>
<polygon fill="midnightblue" stroke="midnightblue" points="2898.88,-143.1 2889.03,-147 2899.16,-150.09 2898.88,-143.1"/>
</g>
<!-- Node7&#45;&gt;Node213 -->
<g id="edge48" class="edge">
<title>Node7&#45;&gt;Node213</title>
<path fill="none" stroke="midnightblue" d="M2899.26,-148.42C3171.64,-147.79 4441.12,-142.48 4831.5,-98 4834.75,-97.63 4838.07,-97.19 4841.42,-96.68"/>
<polygon fill="midnightblue" stroke="midnightblue" points="2899.25,-144.92 2889.25,-148.44 2899.26,-151.92 2899.25,-144.92"/>
</g>
<!-- Node7&#45;&gt;Node279 -->
<g id="edge53" class="edge">
<title>Node7&#45;&gt;Node279</title>
<path fill="none" stroke="midnightblue" d="M2899.55,-148.41C3189.53,-147.73 4608.3,-142.17 5043.5,-98 5048.13,-97.53 5052.9,-96.94 5057.69,-96.27"/>
<polygon fill="midnightblue" stroke="midnightblue" points="2899.31,-144.91 2889.32,-148.43 2899.33,-151.91 2899.31,-144.91"/>
</g>
<!-- Node213&#45;&gt;Node6 -->
<g id="edge52" class="edge">
<title>Node213&#45;&gt;Node6</title>
<path fill="none" stroke="midnightblue" d="M4955.78,-64.27C4994.95,-51.6 5046.5,-34.93 5077.19,-25.01"/>
<polygon fill="midnightblue" stroke="midnightblue" points="4954.55,-60.99 4946.11,-67.4 4956.71,-67.65 4954.55,-60.99"/>
</g>
<!-- Node213&#45;&gt;Node10 -->
<g id="edge49" class="edge">
<title>Node213&#45;&gt;Node10</title>
<path fill="none" stroke="midnightblue" d="M4831.8,-67.03C4831.7,-67.02 4831.6,-67.01 4831.5,-67 4403.21,-18.67 3007.71,-16.39 2715.47,-16.45"/>
<polygon fill="midnightblue" stroke="midnightblue" points="4831.05,-70.46 4841.42,-68.31 4831.96,-63.53 4831.05,-70.46"/>
</g>
<!-- Node213&#45;&gt;Node12 -->
<g id="edge50" class="edge">
<title>Node213&#45;&gt;Node12</title>
<path fill="none" stroke="midnightblue" d="M4909.46,-57.7C4912.12,-48.59 4915.07,-38.49 4917.39,-30.58"/>
<polygon fill="midnightblue" stroke="midnightblue" points="4906.07,-56.82 4906.62,-67.4 4912.79,-58.78 4906.07,-56.82"/>
</g>
<!-- Node213&#45;&gt;Node23 -->
<g id="edge51" class="edge">
<title>Node213&#45;&gt;Node23</title>
<path fill="none" stroke="midnightblue" d="M4831.8,-67.06C4831.7,-67.04 4831.6,-67.02 4831.5,-67 4742.98,-50.8 4639.83,-34.63 4577.13,-25.1"/>
<polygon fill="midnightblue" stroke="midnightblue" points="4830.87,-70.44 4841.34,-68.84 4832.16,-63.56 4830.87,-70.44"/>
</g>
<!-- Node279&#45;&gt;Node6 -->
<g id="edge54" class="edge">
<title>Node279&#45;&gt;Node6</title>
<path fill="none" stroke="midnightblue" d="M5116.15,-57.6C5112.66,-46.28 5108.72,-33.46 5106.18,-25.19"/>
<polygon fill="midnightblue" stroke="midnightblue" points="5112.87,-58.87 5119.16,-67.4 5119.56,-56.81 5112.87,-58.87"/>
</g>
<!-- Node281&#45;&gt;Node4 -->
<g id="edge57" class="edge">
<title>Node281&#45;&gt;Node4</title>
<path fill="none" stroke="midnightblue" d="M5106.87,-131.11C5144.23,-118.46 5193.17,-101.89 5222.37,-92.01"/>
<polygon fill="midnightblue" stroke="midnightblue" points="5105.51,-127.87 5097.16,-134.4 5107.76,-134.5 5105.51,-127.87"/>
</g>
</g>
</svg>
