<?xml version="1.0" encoding="UTF-8" standalone="no"?>
<!DOCTYPE svg PUBLIC "-//W3C//DTD SVG 1.1//EN"
 "http://www.w3.org/Graphics/SVG/1.1/DTD/svg11.dtd">
<!-- Generated by graphviz version 2.46.0 (20210122.1329)
 -->
<!-- Title: include/pad/pad.h Pages: 1 -->
<svg width="1351pt" height="229pt"
 viewBox="0.00 0.00 1351.00 229.00" xmlns="http://www.w3.org/2000/svg" xmlns:xlink="http://www.w3.org/1999/xlink">
<g id="graph0" class="graph" transform="scale(1 1) rotate(0) translate(4 225)">
<title>include/pad/pad.h</title>
<polygon fill="white" stroke="transparent" points="-4,4 -4,-225 1347,-225 1347,4 -4,4"/>
<!-- Node1 -->
<g id="node1" class="node">
<title>Node1</title>
<g id="a_node1"><a xlink:title=" ">
<polygon fill="#bfbfbf" stroke="black" points="1006,-201.5 1006,-220.5 1098,-220.5 1098,-201.5 1006,-201.5"/>
<text text-anchor="middle" x="1052" y="-208.5" font-family="Helvetica,sans-Serif" font-size="10.00">include/pad/pad.h</text>
</a>
</g>
</g>
<!-- Node2 -->
<g id="node2" class="node">
<title>Node2</title>
<g id="a_node2"><a xlink:href="m__Do__controller__pad_8cpp.html" target="_top" xlink:title=" ">
<polygon fill="white" stroke="black" points="1211,-0.5 1211,-30.5 1343,-30.5 1343,-0.5 1211,-0.5"/>
<text text-anchor="start" x="1219" y="-18.5" font-family="Helvetica,sans-Serif" font-size="10.00">src/m_Do/m_Do_controller</text>
<text text-anchor="middle" x="1277" y="-7.5" font-family="Helvetica,sans-Serif" font-size="10.00">_pad.cpp</text>
</a>
</g>
</g>
<!-- Node1&#45;&gt;Node2 -->
<g id="edge1" class="edge">
<title>Node1&#45;&gt;Node2</title>
<path fill="none" stroke="midnightblue" d="M1069.79,-194.7C1112.33,-158.12 1219.44,-66 1260.57,-30.63"/>
<polygon fill="midnightblue" stroke="midnightblue" points="1067.26,-192.26 1061.96,-201.44 1071.82,-197.57 1067.26,-192.26"/>
</g>
<!-- Node3 -->
<g id="node3" class="node">
<title>Node3</title>
<g id="a_node3"><a xlink:href="JUTGamePad_8h.html" target="_top" xlink:title=" ">
<polygon fill="white" stroke="black" points="915.5,-134.5 915.5,-164.5 1070.5,-164.5 1070.5,-134.5 915.5,-134.5"/>
<text text-anchor="start" x="923.5" y="-152.5" font-family="Helvetica,sans-Serif" font-size="10.00">include/JSystem/JUtility</text>
<text text-anchor="middle" x="993" y="-141.5" font-family="Helvetica,sans-Serif" font-size="10.00">/JUTGamePad/JUTGamePad.h</text>
</a>
</g>
</g>
<!-- Node1&#45;&gt;Node3 -->
<g id="edge2" class="edge">
<title>Node1&#45;&gt;Node3</title>
<path fill="none" stroke="midnightblue" d="M1036.5,-194.37C1027.32,-185.11 1015.79,-173.48 1006.91,-164.52"/>
<polygon fill="midnightblue" stroke="midnightblue" points="1034.02,-196.84 1043.55,-201.48 1038.99,-191.91 1034.02,-196.84"/>
</g>
<!-- Node3&#45;&gt;Node2 -->
<g id="edge4" class="edge">
<title>Node3&#45;&gt;Node2</title>
<path fill="none" stroke="midnightblue" d="M1032.23,-130.26C1089.56,-103.62 1195.02,-54.6 1246.76,-30.56"/>
<polygon fill="midnightblue" stroke="midnightblue" points="1030.72,-127.11 1023.12,-134.5 1033.67,-133.46 1030.72,-127.11"/>
</g>
<!-- Node4 -->
<g id="node4" class="node">
<title>Node4</title>
<g id="a_node4"><a xlink:href="d__lib_8cpp.html" target="_top" xlink:title=" ">
<polygon fill="white" stroke="black" points="0,-6 0,-25 80,-25 80,-6 0,-6"/>
<text text-anchor="middle" x="40" y="-13" font-family="Helvetica,sans-Serif" font-size="10.00">src/d/d_lib.cpp</text>
</a>
</g>
</g>
<!-- Node3&#45;&gt;Node4 -->
<g id="edge3" class="edge">
<title>Node3&#45;&gt;Node4</title>
<path fill="none" stroke="midnightblue" d="M904.78,-141.73C742.13,-128.22 384.61,-93.67 89,-31 81.45,-29.4 73.37,-27.21 66,-25.02"/>
<polygon fill="midnightblue" stroke="midnightblue" points="904.95,-145.26 915.21,-142.59 905.53,-138.28 904.95,-145.26"/>
</g>
<!-- Node5 -->
<g id="node5" class="node">
<title>Node5</title>
<g id="a_node5"><a xlink:href="JUTGamePad_8cpp.html" target="_top" xlink:title=" ">
<polygon fill="white" stroke="black" points="940,-67.5 940,-97.5 1046,-97.5 1046,-67.5 940,-67.5"/>
<text text-anchor="start" x="948" y="-85.5" font-family="Helvetica,sans-Serif" font-size="10.00">libs/JSystem/JUtility</text>
<text text-anchor="middle" x="993" y="-74.5" font-family="Helvetica,sans-Serif" font-size="10.00">/JUTGamePad.cpp</text>
</a>
</g>
</g>
<!-- Node3&#45;&gt;Node5 -->
<g id="edge5" class="edge">
<title>Node3&#45;&gt;Node5</title>
<path fill="none" stroke="midnightblue" d="M993,-124.11C993,-115.15 993,-105.32 993,-97.58"/>
<polygon fill="midnightblue" stroke="midnightblue" points="989.5,-124.4 993,-134.4 996.5,-124.4 989.5,-124.4"/>
</g>
<!-- Node6 -->
<g id="node6" class="node">
<title>Node6</title>
<g id="a_node6"><a xlink:href="m__Do__controller__pad_8h.html" target="_top" xlink:title=" ">
<polygon fill="white" stroke="black" points="609.5,-67.5 609.5,-97.5 758.5,-97.5 758.5,-67.5 609.5,-67.5"/>
<text text-anchor="start" x="617.5" y="-85.5" font-family="Helvetica,sans-Serif" font-size="10.00">include/m_Do/m_Do_controller</text>
<text text-anchor="middle" x="684" y="-74.5" font-family="Helvetica,sans-Serif" font-size="10.00">_pad/m_Do_controller_pad.h</text>
</a>
</g>
</g>
<!-- Node3&#45;&gt;Node6 -->
<g id="edge6" class="edge">
<title>Node3&#45;&gt;Node6</title>
<path fill="none" stroke="midnightblue" d="M916.38,-132.38C865.55,-121.69 799.5,-107.8 750.81,-97.55"/>
<polygon fill="midnightblue" stroke="midnightblue" points="915.83,-135.84 926.33,-134.48 917.27,-128.99 915.83,-135.84"/>
</g>
<!-- Node6&#45;&gt;Node2 -->
<g id="edge14" class="edge">
<title>Node6&#45;&gt;Node2</title>
<path fill="none" stroke="midnightblue" d="M768.91,-75.68C871.76,-68.06 1050.12,-53.03 1202,-31 1204.89,-30.58 1207.83,-30.13 1210.8,-29.65"/>
<polygon fill="midnightblue" stroke="midnightblue" points="768.61,-72.19 758.89,-76.41 769.12,-79.17 768.61,-72.19"/>
</g>
<!-- Node6&#45;&gt;Node4 -->
<g id="edge10" class="edge">
<title>Node6&#45;&gt;Node4</title>
<path fill="none" stroke="midnightblue" d="M598.89,-79.69C482.74,-76 268.49,-64.81 89,-31 81.15,-29.52 72.77,-27.29 65.19,-25.02"/>
<polygon fill="midnightblue" stroke="midnightblue" points="599.03,-83.2 609.14,-80.01 599.25,-76.2 599.03,-83.2"/>
</g>
<!-- Node7 -->
<g id="node7" class="node">
<title>Node7</title>
<g id="a_node7"><a xlink:href="d__attention_8cpp.html" target="_top" xlink:title=" ">
<polygon fill="white" stroke="black" points="98.5,-6 98.5,-25 205.5,-25 205.5,-6 98.5,-6"/>
<text text-anchor="middle" x="152" y="-13" font-family="Helvetica,sans-Serif" font-size="10.00">src/d/d_attention.cpp</text>
</a>
</g>
</g>
<!-- Node6&#45;&gt;Node7 -->
<g id="edge7" class="edge">
<title>Node6&#45;&gt;Node7</title>
<path fill="none" stroke="midnightblue" d="M599.06,-75.53C504.59,-68.15 347.68,-53.73 214,-31 204.52,-29.39 194.32,-27.2 184.99,-25.01"/>
<polygon fill="midnightblue" stroke="midnightblue" points="598.89,-79.02 609.13,-76.3 599.43,-72.05 598.89,-79.02"/>
</g>
<!-- Node8 -->
<g id="node8" class="node">
<title>Node8</title>
<g id="a_node8"><a xlink:href="d__camera_8cpp.html" target="_top" xlink:title=" ">
<polygon fill="white" stroke="black" points="223,-6 223,-25 325,-25 325,-6 223,-6"/>
<text text-anchor="middle" x="274" y="-13" font-family="Helvetica,sans-Serif" font-size="10.00">src/d/d_camera.cpp</text>
</a>
</g>
</g>
<!-- Node6&#45;&gt;Node8 -->
<g id="edge8" class="edge">
<title>Node6&#45;&gt;Node8</title>
<path fill="none" stroke="midnightblue" d="M598.99,-71.5C527.88,-62.6 423.92,-48.31 334,-31 325.16,-29.3 315.66,-27.15 306.89,-25.04"/>
<polygon fill="midnightblue" stroke="midnightblue" points="598.88,-75.02 609.24,-72.78 599.75,-68.07 598.88,-75.02"/>
</g>
<!-- Node9 -->
<g id="node9" class="node">
<title>Node9</title>
<g id="a_node9"><a xlink:href="d__com__inf__game_8cpp.html" target="_top" xlink:title=" ">
<polygon fill="white" stroke="black" points="343.5,-0.5 343.5,-30.5 462.5,-30.5 462.5,-0.5 343.5,-0.5"/>
<text text-anchor="start" x="351.5" y="-18.5" font-family="Helvetica,sans-Serif" font-size="10.00">src/d/d_com/d_com_inf</text>
<text text-anchor="middle" x="403" y="-7.5" font-family="Helvetica,sans-Serif" font-size="10.00">_game.cpp</text>
</a>
</g>
</g>
<!-- Node6&#45;&gt;Node9 -->
<g id="edge9" class="edge">
<title>Node6&#45;&gt;Node9</title>
<path fill="none" stroke="midnightblue" d="M613.37,-65.16C566.85,-54.4 506.64,-40.47 462.55,-30.28"/>
<polygon fill="midnightblue" stroke="midnightblue" points="612.84,-68.63 623.37,-67.48 614.42,-61.81 612.84,-68.63"/>
</g>
<!-- Node10 -->
<g id="node10" class="node">
<title>Node10</title>
<g id="a_node10"><a xlink:href="d__meter__map_8cpp.html" target="_top" xlink:title=" ">
<polygon fill="white" stroke="black" points="480.5,-0.5 480.5,-30.5 595.5,-30.5 595.5,-0.5 480.5,-0.5"/>
<text text-anchor="start" x="488.5" y="-18.5" font-family="Helvetica,sans-Serif" font-size="10.00">src/d/d_meter/d_meter</text>
<text text-anchor="middle" x="538" y="-7.5" font-family="Helvetica,sans-Serif" font-size="10.00">_map.cpp</text>
</a>
</g>
</g>
<!-- Node6&#45;&gt;Node10 -->
<g id="edge11" class="edge">
<title>Node6&#45;&gt;Node10</title>
<path fill="none" stroke="midnightblue" d="M643.05,-63.27C619.8,-52.92 591.13,-40.15 569.62,-30.58"/>
<polygon fill="midnightblue" stroke="midnightblue" points="641.76,-66.53 652.32,-67.4 644.61,-60.13 641.76,-66.53"/>
</g>
<!-- Node11 -->
<g id="node11" class="node">
<title>Node11</title>
<g id="a_node11"><a xlink:href="f__pc__manager_8cpp.html" target="_top" xlink:title=" ">
<polygon fill="white" stroke="black" points="614,-6 614,-25 754,-25 754,-6 614,-6"/>
<text text-anchor="middle" x="684" y="-13" font-family="Helvetica,sans-Serif" font-size="10.00">src/f/f_pc/f_pc_manager.cpp</text>
</a>
</g>
</g>
<!-- Node6&#45;&gt;Node11 -->
<g id="edge12" class="edge">
<title>Node6&#45;&gt;Node11</title>
<path fill="none" stroke="midnightblue" d="M684,-57.25C684,-46.02 684,-33.38 684,-25.19"/>
<polygon fill="midnightblue" stroke="midnightblue" points="680.5,-57.4 684,-67.4 687.5,-57.4 680.5,-57.4"/>
</g>
<!-- Node12 -->
<g id="node12" class="node">
<title>Node12</title>
<g id="a_node12"><a xlink:href="d__a__alink_8cpp.html" target="_top" xlink:title=" ">
<polygon fill="white" stroke="black" points="772.5,-6 772.5,-25 891.5,-25 891.5,-6 772.5,-6"/>
<text text-anchor="middle" x="832" y="-13" font-family="Helvetica,sans-Serif" font-size="10.00">src/d/d_a/d_a_alink.cpp</text>
</a>
</g>
</g>
<!-- Node6&#45;&gt;Node12 -->
<g id="edge13" class="edge">
<title>Node6&#45;&gt;Node12</title>
<path fill="none" stroke="midnightblue" d="M725.45,-63.3C753.99,-50.76 790.6,-34.68 812.63,-25.01"/>
<polygon fill="midnightblue" stroke="midnightblue" points="723.86,-60.17 716.11,-67.4 726.68,-66.58 723.86,-60.17"/>
</g>
<!-- Node13 -->
<g id="node13" class="node">
<title>Node13</title>
<g id="a_node13"><a xlink:href="m__Do__main_8cpp.html" target="_top" xlink:title=" ">
<polygon fill="white" stroke="black" points="909.5,-6 909.5,-25 1040.5,-25 1040.5,-6 909.5,-6"/>
<text text-anchor="middle" x="975" y="-13" font-family="Helvetica,sans-Serif" font-size="10.00">src/m_Do/m_Do_main.cpp</text>
</a>
</g>
</g>
<!-- Node6&#45;&gt;Node13 -->
<g id="edge15" class="edge">
<title>Node6&#45;&gt;Node13</title>
<path fill="none" stroke="midnightblue" d="M756.85,-65.23C813.98,-52.47 891.23,-35.21 936.82,-25.03"/>
<polygon fill="midnightblue" stroke="midnightblue" points="755.78,-61.88 746.78,-67.48 757.31,-68.71 755.78,-61.88"/>
</g>
<!-- Node14 -->
<g id="node14" class="node">
<title>Node14</title>
<g id="a_node14"><a xlink:href="c__API__controller__pad_8cpp.html" target="_top" xlink:title=" ">
<polygon fill="white" stroke="black" points="1059,-0.5 1059,-30.5 1193,-30.5 1193,-0.5 1059,-0.5"/>
<text text-anchor="start" x="1067" y="-18.5" font-family="Helvetica,sans-Serif" font-size="10.00">libs/SSystem/SComponent</text>
<text text-anchor="middle" x="1126" y="-7.5" font-family="Helvetica,sans-Serif" font-size="10.00">/c_API_controller_pad.cpp</text>
</a>
</g>
</g>
<!-- Node6&#45;&gt;Node14 -->
<g id="edge16" class="edge">
<title>Node6&#45;&gt;Node14</title>
<path fill="none" stroke="midnightblue" d="M769.06,-71.02C843.36,-61.57 954.03,-46.76 1050,-31 1052.92,-30.52 1055.89,-30.02 1058.9,-29.5"/>
<polygon fill="midnightblue" stroke="midnightblue" points="768.3,-67.59 758.82,-72.32 769.18,-74.53 768.3,-67.59"/>
</g>
</g>
</svg>
