<?xml version="1.0" encoding="UTF-8" standalone="no"?>
<!DOCTYPE svg PUBLIC "-//W3C//DTD SVG 1.1//EN"
 "http://www.w3.org/Graphics/SVG/1.1/DTD/svg11.dtd">
<!-- Generated by graphviz version 2.46.1 (20210215.1649)
 -->
<!-- Title: include/JSystem/JMath/random.h Pages: 1 -->
<!--zoomable 229 -->
<svg id="main" version="1.1" xmlns="http://www.w3.org/2000/svg" xmlns:xlink="http://www.w3.org/1999/xlink" xml:space="preserve" onload="init(evt)">
<style type="text/css"><![CDATA[
.edge:hover path { stroke: red; }
.edge:hover polygon { stroke: red; fill: red; }
]]></style>
<script type="text/javascript"><![CDATA[
var edges = document.getElementsByTagName('g');
if (edges && edges.length) {
  for (var i=0;i<edges.length;i++) {
    if (edges[i].id.substr(0,4)=='edge') {
      edges[i].setAttribute('class','edge');
    }
  }
}
]]></script>
        <defs>
                <circle id="rim" cx="0" cy="0" r="7"/>
                <circle id="rim2" cx="0" cy="0" r="3.5"/>
                <g id="zoomPlus">
                        <use xlink:href="#rim" fill="#404040">
                                <set attributeName="fill" to="#808080" begin="zoomplus.mouseover" end="zoomplus.mouseout"/>
                        </use>
                        <path d="M-4,0h8M0,-4v8" fill="none" stroke="white" stroke-width="1.5" pointer-events="none"/>
                </g>
                <g id="zoomMin">
                        <use xlink:href="#rim" fill="#404040">
                                <set attributeName="fill" to="#808080" begin="zoomminus.mouseover" end="zoomminus.mouseout"/>
                        </use>
                        <path d="M-4,0h8" fill="none" stroke="white" stroke-width="1.5" pointer-events="none"/>
                </g>
                <g id="dirArrow">
                        <path fill="none" stroke="white" stroke-width="1.5" d="M0,-3.0v7 M-2.5,-0.5L0,-3.0L2.5,-0.5"/>
                </g>
               <g id="resetDef">
                       <use xlink:href="#rim2" fill="#404040">
                               <set attributeName="fill" to="#808080" begin="reset.mouseover" end="reset.mouseout"/>
                       </use>
               </g>
        </defs>

<script type="text/javascript">
var viewWidth = 2630;
var viewHeight = 229;
var sectionId = 'dynsection-1';
</script>
<script xlink:href="svgpan.js"/>
<svg id="graph" class="graph">
<g id="viewport">
<title>include/JSystem/JMath/random.h</title>
<polygon fill="white" stroke="transparent" points="-4,4 -4,-225 2625.5,-225 2625.5,4 -4,4"/>
<!-- Node1 -->
<g id="node1" class="node">
<title>Node1</title>
<g id="a_node1"><a xlink:title=" ">
<polygon fill="#bfbfbf" stroke="black" points="495.5,-190.5 495.5,-220.5 614.5,-220.5 614.5,-190.5 495.5,-190.5"/>
<text text-anchor="start" x="503.5" y="-208.5" font-family="Helvetica,sans-Serif" font-size="10.00">include/JSystem/JMath</text>
<text text-anchor="middle" x="555" y="-197.5" font-family="Helvetica,sans-Serif" font-size="10.00">/random.h</text>
</a>
</g>
</g>
<!-- Node2 -->
<g id="node2" class="node">
<title>Node2</title>
<g id="a_node2"><a xlink:href="random_8cpp.html" target="_top" xlink:title=" ">
<polygon fill="white" stroke="black" points="352.5,-123.5 352.5,-153.5 455.5,-153.5 455.5,-123.5 352.5,-123.5"/>
<text text-anchor="start" x="360.5" y="-141.5" font-family="Helvetica,sans-Serif" font-size="10.00">libs/JSystem/JMath</text>
<text text-anchor="middle" x="404" y="-130.5" font-family="Helvetica,sans-Serif" font-size="10.00">/random.cpp</text>
</a>
</g>
</g>
<!-- Node1&#45;&gt;Node2 -->
<g id="edge1" class="edge">
<title>Node1&#45;&gt;Node2</title>
<path fill="none" stroke="midnightblue" d="M512.97,-186.41C488.86,-176.03 459.05,-163.2 436.7,-153.58"/>
<polygon fill="midnightblue" stroke="midnightblue" points="511.67,-189.66 522.24,-190.4 514.43,-183.23 511.67,-189.66"/>
</g>
<!-- Node3 -->
<g id="node3" class="node">
<title>Node3</title>
<g id="a_node3"><a xlink:href="Z2Calc_8h.html" target="_top" xlink:title=" ">
<polygon fill="white" stroke="black" points="1455,-123.5 1455,-153.5 1555,-153.5 1555,-123.5 1455,-123.5"/>
<text text-anchor="start" x="1463" y="-141.5" font-family="Helvetica,sans-Serif" font-size="10.00">include/Z2AudioLib</text>
<text text-anchor="middle" x="1505" y="-130.5" font-family="Helvetica,sans-Serif" font-size="10.00">/Z2Calc/Z2Calc.h</text>
</a>
</g>
</g>
<!-- Node1&#45;&gt;Node3 -->
<g id="edge2" class="edge">
<title>Node1&#45;&gt;Node3</title>
<path fill="none" stroke="midnightblue" d="M624.82,-199.72C807.5,-187.22 1296.43,-153.77 1454.76,-142.94"/>
<polygon fill="midnightblue" stroke="midnightblue" points="624.52,-196.23 614.79,-200.41 625,-203.22 624.52,-196.23"/>
</g>
<!-- Node16 -->
<g id="node16" class="node">
<title>Node16</title>
<g id="a_node16"><a xlink:href="Z2SpeechMgr2_8h.html" target="_top" xlink:title=" ">
<polygon fill="white" stroke="black" points="474,-123.5 474,-153.5 636,-153.5 636,-123.5 474,-123.5"/>
<text text-anchor="start" x="482" y="-141.5" font-family="Helvetica,sans-Serif" font-size="10.00">include/Z2AudioLib</text>
<text text-anchor="middle" x="555" y="-130.5" font-family="Helvetica,sans-Serif" font-size="10.00">/Z2SpeechMgr2/Z2SpeechMgr2.h</text>
</a>
</g>
</g>
<!-- Node1&#45;&gt;Node16 -->
<g id="edge15" class="edge">
<title>Node1&#45;&gt;Node16</title>
<path fill="none" stroke="midnightblue" d="M555,-180.11C555,-171.15 555,-161.32 555,-153.58"/>
<polygon fill="midnightblue" stroke="midnightblue" points="551.5,-180.4 555,-190.4 558.5,-180.4 551.5,-180.4"/>
</g>
<!-- Node4 -->
<g id="node4" class="node">
<title>Node4</title>
<g id="a_node4"><a xlink:href="Z2Audience_8cpp.html" target="_top" xlink:title=" ">
<polygon fill="white" stroke="black" points="1261.5,-62 1261.5,-81 1418.5,-81 1418.5,-62 1261.5,-62"/>
<text text-anchor="middle" x="1340" y="-69" font-family="Helvetica,sans-Serif" font-size="10.00">libs/Z2AudioLib/Z2Audience.cpp</text>
</a>
</g>
</g>
<!-- Node3&#45;&gt;Node4 -->
<g id="edge3" class="edge">
<title>Node3&#45;&gt;Node4</title>
<path fill="none" stroke="midnightblue" d="M1459.62,-119.62C1427.68,-107.04 1386.37,-90.77 1361.59,-81.01"/>
<polygon fill="midnightblue" stroke="midnightblue" points="1458.61,-122.99 1469.2,-123.4 1461.18,-116.47 1458.61,-122.99"/>
</g>
<!-- Node5 -->
<g id="node5" class="node">
<title>Node5</title>
<g id="a_node5"><a xlink:href="Z2Calc_8cpp.html" target="_top" xlink:title=" ">
<polygon fill="white" stroke="black" points="1437,-62 1437,-81 1573,-81 1573,-62 1437,-62"/>
<text text-anchor="middle" x="1505" y="-69" font-family="Helvetica,sans-Serif" font-size="10.00">libs/Z2AudioLib/Z2Calc.cpp</text>
</a>
</g>
</g>
<!-- Node3&#45;&gt;Node5 -->
<g id="edge4" class="edge">
<title>Node3&#45;&gt;Node5</title>
<path fill="none" stroke="midnightblue" d="M1505,-113.25C1505,-102.02 1505,-89.38 1505,-81.19"/>
<polygon fill="midnightblue" stroke="midnightblue" points="1501.5,-113.4 1505,-123.4 1508.5,-113.4 1501.5,-113.4"/>
</g>
<!-- Node6 -->
<g id="node6" class="node">
<title>Node6</title>
<g id="a_node6"><a xlink:href="Z2Creature_8cpp.html" target="_top" xlink:title=" ">
<polygon fill="white" stroke="black" points="623.5,-62 623.5,-81 776.5,-81 776.5,-62 623.5,-62"/>
<text text-anchor="middle" x="700" y="-69" font-family="Helvetica,sans-Serif" font-size="10.00">libs/Z2AudioLib/Z2Creature.cpp</text>
</a>
</g>
</g>
<!-- Node3&#45;&gt;Node6 -->
<g id="edge5" class="edge">
<title>Node3&#45;&gt;Node6</title>
<path fill="none" stroke="midnightblue" d="M1444.68,-135.24C1320.87,-130.17 1029.23,-115.98 786,-87 772.77,-85.42 758.47,-83.22 745.41,-81"/>
<polygon fill="midnightblue" stroke="midnightblue" points="1444.59,-138.74 1454.72,-135.65 1444.87,-131.74 1444.59,-138.74"/>
</g>
<!-- Node7 -->
<g id="node7" class="node">
<title>Node7</title>
<g id="a_node7"><a xlink:href="Z2EnvSeMgr_8cpp.html" target="_top" xlink:title=" ">
<polygon fill="white" stroke="black" points="1591.5,-62 1591.5,-81 1752.5,-81 1752.5,-62 1591.5,-62"/>
<text text-anchor="middle" x="1672" y="-69" font-family="Helvetica,sans-Serif" font-size="10.00">libs/Z2AudioLib/Z2EnvSeMgr.cpp</text>
</a>
</g>
</g>
<!-- Node3&#45;&gt;Node7 -->
<g id="edge6" class="edge">
<title>Node3&#45;&gt;Node7</title>
<path fill="none" stroke="midnightblue" d="M1550.93,-119.62C1583.26,-107.04 1625.07,-90.77 1650.14,-81.01"/>
<polygon fill="midnightblue" stroke="midnightblue" points="1549.29,-116.51 1541.24,-123.4 1551.83,-123.03 1549.29,-116.51"/>
</g>
<!-- Node8 -->
<g id="node8" class="node">
<title>Node8</title>
<g id="a_node8"><a xlink:href="Z2LinkMgr_8cpp.html" target="_top" xlink:title=" ">
<polygon fill="white" stroke="black" points="1771,-62 1771,-81 1923,-81 1923,-62 1771,-62"/>
<text text-anchor="middle" x="1847" y="-69" font-family="Helvetica,sans-Serif" font-size="10.00">libs/Z2AudioLib/Z2LinkMgr.cpp</text>
</a>
</g>
</g>
<!-- Node3&#45;&gt;Node8 -->
<g id="edge7" class="edge">
<title>Node3&#45;&gt;Node8</title>
<path fill="none" stroke="midnightblue" d="M1565.2,-126.06C1632.97,-113.18 1741.53,-92.55 1802.22,-81.01"/>
<polygon fill="midnightblue" stroke="midnightblue" points="1564.27,-122.67 1555.1,-127.98 1565.57,-129.55 1564.27,-122.67"/>
</g>
<!-- Node9 -->
<g id="node9" class="node">
<title>Node9</title>
<g id="a_node9"><a xlink:href="Z2SeMgr_8cpp.html" target="_top" xlink:title=" ">
<polygon fill="white" stroke="black" points="794.5,-62 794.5,-81 939.5,-81 939.5,-62 794.5,-62"/>
<text text-anchor="middle" x="867" y="-69" font-family="Helvetica,sans-Serif" font-size="10.00">libs/Z2AudioLib/Z2SeMgr.cpp</text>
</a>
</g>
</g>
<!-- Node3&#45;&gt;Node9 -->
<g id="edge8" class="edge">
<title>Node3&#45;&gt;Node9</title>
<path fill="none" stroke="midnightblue" d="M1444.48,-133.68C1342.14,-126.85 1128.49,-110.98 949,-87 936.68,-85.35 923.38,-83.18 911.15,-81.01"/>
<polygon fill="midnightblue" stroke="midnightblue" points="1444.41,-137.19 1454.62,-134.36 1444.88,-130.2 1444.41,-137.19"/>
</g>
<!-- Node10 -->
<g id="node10" class="node">
<title>Node10</title>
<g id="a_node10"><a xlink:href="Z2SoundInfo_8cpp.html" target="_top" xlink:title=" ">
<polygon fill="white" stroke="black" points="1941.5,-62 1941.5,-81 2102.5,-81 2102.5,-62 1941.5,-62"/>
<text text-anchor="middle" x="2022" y="-69" font-family="Helvetica,sans-Serif" font-size="10.00">libs/Z2AudioLib/Z2SoundInfo.cpp</text>
</a>
</g>
</g>
<!-- Node3&#45;&gt;Node10 -->
<g id="edge9" class="edge">
<title>Node3&#45;&gt;Node10</title>
<path fill="none" stroke="midnightblue" d="M1565.02,-131.21C1647.75,-122.35 1801.41,-105.23 1932,-87 1944.85,-85.21 1958.71,-83.07 1971.6,-81"/>
<polygon fill="midnightblue" stroke="midnightblue" points="1564.62,-127.73 1555.05,-132.27 1565.36,-134.69 1564.62,-127.73"/>
</g>
<!-- Node11 -->
<g id="node11" class="node">
<title>Node11</title>
<g id="a_node11"><a xlink:href="Z2SeqMgr_8cpp.html" target="_top" xlink:title=" ">
<polygon fill="white" stroke="black" points="2121,-62 2121,-81 2271,-81 2271,-62 2121,-62"/>
<text text-anchor="middle" x="2196" y="-69" font-family="Helvetica,sans-Serif" font-size="10.00">libs/Z2AudioLib/Z2SeqMgr.cpp</text>
</a>
</g>
</g>
<!-- Node3&#45;&gt;Node11 -->
<g id="edge10" class="edge">
<title>Node3&#45;&gt;Node11</title>
<path fill="none" stroke="midnightblue" d="M1565.29,-134.25C1674.58,-127.96 1912.58,-112.46 2112,-87 2124.62,-85.39 2138.25,-83.22 2150.77,-81.06"/>
<polygon fill="midnightblue" stroke="midnightblue" points="1564.91,-130.76 1555.12,-134.83 1565.3,-137.75 1564.91,-130.76"/>
</g>
<!-- Node12 -->
<g id="node12" class="node">
<title>Node12</title>
<g id="a_node12"><a xlink:href="Z2SoundObjMgr_8cpp.html" target="_top" xlink:title=" ">
<polygon fill="white" stroke="black" points="2289.5,-56.5 2289.5,-86.5 2430.5,-86.5 2430.5,-56.5 2289.5,-56.5"/>
<text text-anchor="start" x="2297.5" y="-74.5" font-family="Helvetica,sans-Serif" font-size="10.00">libs/Z2AudioLib/Z2SoundObj</text>
<text text-anchor="middle" x="2360" y="-63.5" font-family="Helvetica,sans-Serif" font-size="10.00">Mgr.cpp</text>
</a>
</g>
</g>
<!-- Node3&#45;&gt;Node12 -->
<g id="edge11" class="edge">
<title>Node3&#45;&gt;Node12</title>
<path fill="none" stroke="midnightblue" d="M1565.25,-135.92C1695.89,-131.97 2014.84,-119.56 2280,-87 2283.08,-86.62 2286.23,-86.2 2289.4,-85.75"/>
<polygon fill="midnightblue" stroke="midnightblue" points="1564.94,-132.42 1555.05,-136.22 1565.15,-139.42 1564.94,-132.42"/>
</g>
<!-- Node13 -->
<g id="node13" class="node">
<title>Node13</title>
<g id="a_node13"><a xlink:href="Z2SoundObject_8cpp.html" target="_top" xlink:title=" ">
<polygon fill="white" stroke="black" points="2448.5,-62 2448.5,-81 2621.5,-81 2621.5,-62 2448.5,-62"/>
<text text-anchor="middle" x="2535" y="-69" font-family="Helvetica,sans-Serif" font-size="10.00">libs/Z2AudioLib/Z2SoundObject.cpp</text>
</a>
</g>
</g>
<!-- Node3&#45;&gt;Node13 -->
<g id="edge12" class="edge">
<title>Node3&#45;&gt;Node13</title>
<path fill="none" stroke="midnightblue" d="M1565.34,-136.28C1714.24,-132.82 2110.94,-120.92 2440,-87 2454.77,-85.48 2470.75,-83.26 2485.32,-81.02"/>
<polygon fill="midnightblue" stroke="midnightblue" points="1564.97,-132.79 1555.05,-136.51 1565.13,-139.78 1564.97,-132.79"/>
</g>
<!-- Node14 -->
<g id="node14" class="node">
<title>Node14</title>
<g id="a_node14"><a xlink:href="Z2StatusMgr_8cpp.html" target="_top" xlink:title=" ">
<polygon fill="white" stroke="black" points="957.5,-56.5 957.5,-86.5 1084.5,-86.5 1084.5,-56.5 957.5,-56.5"/>
<text text-anchor="start" x="965.5" y="-74.5" font-family="Helvetica,sans-Serif" font-size="10.00">libs/Z2AudioLib/Z2Status</text>
<text text-anchor="middle" x="1021" y="-63.5" font-family="Helvetica,sans-Serif" font-size="10.00">Mgr.cpp</text>
</a>
</g>
</g>
<!-- Node3&#45;&gt;Node14 -->
<g id="edge13" class="edge">
<title>Node3&#45;&gt;Node14</title>
<path fill="none" stroke="midnightblue" d="M1444.44,-131.47C1364.1,-123.15 1217.98,-106.9 1094,-87 1090.94,-86.51 1087.81,-85.98 1084.65,-85.43"/>
<polygon fill="midnightblue" stroke="midnightblue" points="1444.55,-135 1454.85,-132.54 1445.26,-128.04 1444.55,-135"/>
</g>
<!-- Node15 -->
<g id="node15" class="node">
<title>Node15</title>
<g id="a_node15"><a xlink:href="Z2WolfHowlMgr_8cpp.html" target="_top" xlink:title=" ">
<polygon fill="white" stroke="black" points="1103,-56.5 1103,-86.5 1243,-86.5 1243,-56.5 1103,-56.5"/>
<text text-anchor="start" x="1111" y="-74.5" font-family="Helvetica,sans-Serif" font-size="10.00">libs/Z2AudioLib/Z2WolfHowl</text>
<text text-anchor="middle" x="1173" y="-63.5" font-family="Helvetica,sans-Serif" font-size="10.00">Mgr.cpp</text>
</a>
</g>
</g>
<!-- Node3&#45;&gt;Node15 -->
<g id="edge14" class="edge">
<title>Node3&#45;&gt;Node15</title>
<path fill="none" stroke="midnightblue" d="M1445.03,-125.76C1388.28,-114.65 1303.08,-97.97 1243.19,-86.24"/>
<polygon fill="midnightblue" stroke="midnightblue" points="1444.45,-129.21 1454.94,-127.7 1445.8,-122.34 1444.45,-129.21"/>
</g>
<!-- Node16&#45;&gt;Node6 -->
<g id="edge17" class="edge">
<title>Node16&#45;&gt;Node6</title>
<path fill="none" stroke="midnightblue" d="M595.61,-119.3C623.57,-106.76 659.44,-90.68 681.02,-81.01"/>
<polygon fill="midnightblue" stroke="midnightblue" points="594.16,-116.11 586.46,-123.4 597.02,-122.5 594.16,-116.11"/>
</g>
<!-- Node16&#45;&gt;Node9 -->
<g id="edge18" class="edge">
<title>Node16&#45;&gt;Node9</title>
<path fill="none" stroke="midnightblue" d="M632.34,-121.39C693.68,-108.61 776.98,-91.25 826.06,-81.03"/>
<polygon fill="midnightblue" stroke="midnightblue" points="631.39,-118.01 622.32,-123.48 632.82,-124.86 631.39,-118.01"/>
</g>
<!-- Node17 -->
<g id="node17" class="node">
<title>Node17</title>
<g id="a_node17"><a xlink:href="Z2AudioMgr_8cpp.html" target="_top" xlink:title=" ">
<polygon fill="white" stroke="black" points="0,-62 0,-81 158,-81 158,-62 0,-62"/>
<text text-anchor="middle" x="79" y="-69" font-family="Helvetica,sans-Serif" font-size="10.00">libs/Z2AudioLib/Z2AudioMgr.cpp</text>
</a>
</g>
</g>
<!-- Node16&#45;&gt;Node17 -->
<g id="edge16" class="edge">
<title>Node16&#45;&gt;Node17</title>
<path fill="none" stroke="midnightblue" d="M463.5,-122.82C331.63,-104.47 296.43,-105.24 168,-87 155.45,-85.22 141.93,-83.11 129.31,-81.06"/>
<polygon fill="midnightblue" stroke="midnightblue" points="463.2,-126.31 473.59,-124.24 464.17,-119.38 463.2,-126.31"/>
</g>
<!-- Node18 -->
<g id="node18" class="node">
<title>Node18</title>
<g id="a_node18"><a xlink:href="Z2SoundMgr_8cpp.html" target="_top" xlink:title=" ">
<polygon fill="white" stroke="black" points="176.5,-62 176.5,-81 337.5,-81 337.5,-62 176.5,-62"/>
<text text-anchor="middle" x="257" y="-69" font-family="Helvetica,sans-Serif" font-size="10.00">libs/Z2AudioLib/Z2SoundMgr.cpp</text>
</a>
</g>
</g>
<!-- Node16&#45;&gt;Node18 -->
<g id="edge19" class="edge">
<title>Node16&#45;&gt;Node18</title>
<path fill="none" stroke="midnightblue" d="M480.76,-121.31C422.22,-108.54 342.88,-91.23 296.1,-81.03"/>
<polygon fill="midnightblue" stroke="midnightblue" points="480.19,-124.76 490.71,-123.48 481.68,-117.93 480.19,-124.76"/>
</g>
<!-- Node19 -->
<g id="node19" class="node">
<title>Node19</title>
<g id="a_node19"><a xlink:href="Z2SpeechMgr2_8cpp.html" target="_top" xlink:title=" ">
<polygon fill="white" stroke="black" points="355.5,-56.5 355.5,-86.5 486.5,-86.5 486.5,-56.5 355.5,-56.5"/>
<text text-anchor="start" x="363.5" y="-74.5" font-family="Helvetica,sans-Serif" font-size="10.00">libs/Z2AudioLib/Z2Speech</text>
<text text-anchor="middle" x="421" y="-63.5" font-family="Helvetica,sans-Serif" font-size="10.00">Mgr2.cpp</text>
</a>
</g>
</g>
<!-- Node16&#45;&gt;Node19 -->
<g id="edge20" class="edge">
<title>Node16&#45;&gt;Node19</title>
<path fill="none" stroke="midnightblue" d="M516.85,-118.99C495.61,-108.69 469.59,-96.07 450.02,-86.58"/>
<polygon fill="midnightblue" stroke="midnightblue" points="515.4,-122.18 525.92,-123.4 518.45,-115.88 515.4,-122.18"/>
</g>
<!-- Node20 -->
<g id="node20" class="node">
<title>Node20</title>
<g id="a_node20"><a xlink:href="Z2AudioLib_8h.html" target="_top" xlink:title=" ">
<polygon fill="white" stroke="black" points="505,-56.5 505,-86.5 605,-86.5 605,-56.5 505,-56.5"/>
<text text-anchor="start" x="513" y="-74.5" font-family="Helvetica,sans-Serif" font-size="10.00">include/Z2AudioLib</text>
<text text-anchor="middle" x="555" y="-63.5" font-family="Helvetica,sans-Serif" font-size="10.00">/Z2AudioLib.h</text>
</a>
</g>
</g>
<!-- Node16&#45;&gt;Node20 -->
<g id="edge21" class="edge">
<title>Node16&#45;&gt;Node20</title>
<path fill="none" stroke="midnightblue" d="M555,-113.11C555,-104.15 555,-94.32 555,-86.58"/>
<polygon fill="midnightblue" stroke="midnightblue" points="551.5,-113.4 555,-123.4 558.5,-113.4 551.5,-113.4"/>
</g>
<!-- Node21 -->
<g id="node21" class="node">
<title>Node21</title>
<g id="a_node21"><a xlink:href="m__Do__audio_8cpp.html" target="_top" xlink:title=" ">
<polygon fill="white" stroke="black" points="488,-0.5 488,-19.5 622,-19.5 622,-0.5 488,-0.5"/>
<text text-anchor="middle" x="555" y="-7.5" font-family="Helvetica,sans-Serif" font-size="10.00">src/m_Do/m_Do_audio.cpp</text>
</a>
</g>
</g>
<!-- Node20&#45;&gt;Node21 -->
<g id="edge22" class="edge">
<title>Node20&#45;&gt;Node21</title>
<path fill="none" stroke="midnightblue" d="M555,-46.29C555,-36.86 555,-26.65 555,-19.66"/>
<polygon fill="midnightblue" stroke="midnightblue" points="551.5,-46.4 555,-56.4 558.5,-46.4 551.5,-46.4"/>
</g>
</g>
</svg>
        <g id="navigator" transform="translate(0 0)" fill="#404254">
                <rect fill="#f2f5e9" fill-opacity="0.5" stroke="#606060" stroke-width=".5" x="0" y="0" width="60" height="60"/>
                <use id="zoomplus" xlink:href="#zoomPlus" x="17" y="9" onmousedown="handleZoom(evt,'in')"/>
                <use id="zoomminus" xlink:href="#zoomMin" x="42" y="9" onmousedown="handleZoom(evt,'out')"/>
                <use id="reset" xlink:href="#resetDef" x="30" y="36" onmousedown="handleReset()"/>
                <g id="arrowUp" xlink:href="#dirArrow" transform="translate(30 24)" onmousedown="handlePan(0,-1)">
                  <use xlink:href="#rim" fill="#404040">
                        <set attributeName="fill" to="#808080" begin="arrowUp.mouseover" end="arrowUp.mouseout"/>
                  </use>
                  <path fill="none" stroke="white" stroke-width="1.5" d="M0,-3.0v7 M-2.5,-0.5L0,-3.0L2.5,-0.5"/>
                </g>
                <g id="arrowRight" xlink:href="#dirArrow" transform="rotate(90) translate(36 -43)" onmousedown="handlePan(1,0)">
                  <use xlink:href="#rim" fill="#404040">
                        <set attributeName="fill" to="#808080" begin="arrowRight.mouseover" end="arrowRight.mouseout"/>
                  </use>
                  <path fill="none" stroke="white" stroke-width="1.5" d="M0,-3.0v7 M-2.5,-0.5L0,-3.0L2.5,-0.5"/>
                </g>
                <g id="arrowDown" xlink:href="#dirArrow" transform="rotate(180) translate(-30 -48)" onmousedown="handlePan(0,1)">
                  <use xlink:href="#rim" fill="#404040">
                        <set attributeName="fill" to="#808080" begin="arrowDown.mouseover" end="arrowDown.mouseout"/>
                  </use>
                  <path fill="none" stroke="white" stroke-width="1.5" d="M0,-3.0v7 M-2.5,-0.5L0,-3.0L2.5,-0.5"/>
                </g>
                <g id="arrowLeft" xlink:href="#dirArrow" transform="rotate(270) translate(-36 17)" onmousedown="handlePan(-1,0)">
                  <use xlink:href="#rim" fill="#404040">
                        <set attributeName="fill" to="#808080" begin="arrowLeft.mouseover" end="arrowLeft.mouseout"/>
                  </use>
                  <path fill="none" stroke="white" stroke-width="1.5" d="M0,-3.0v7 M-2.5,-0.5L0,-3.0L2.5,-0.5"/>
                </g>
        </g>
        <svg viewBox="0 0 15 15" width="100%" height="30px" preserveAspectRatio="xMaxYMin meet">
         <g id="arrow_out" transform="scale(0.3 0.3)">
          <a xlink:href="random_8h__dep__incl_org.svg" target="_base">
           <rect id="button" ry="5" rx="5" y="6" x="6" height="38" width="38"
                fill="#f2f5e9" fill-opacity="0.5" stroke="#606060" stroke-width="1.0"/>
           <path id="arrow"
             d="M 11.500037,31.436501 C 11.940474,20.09759 22.043105,11.32322 32.158766,21.979434 L 37.068811,17.246167 C 37.068811,17.246167 37.088388,32 37.088388,32 L 22.160133,31.978069 C 22.160133,31.978069 26.997745,27.140456 26.997745,27.140456 C 18.528582,18.264221 13.291696,25.230495 11.500037,31.436501 z"
             style="fill:#404040;"/>
          </a>
         </g>
        </svg>
</svg>
