<?xml version="1.0" encoding="UTF-8" standalone="no"?>
<!DOCTYPE svg PUBLIC "-//W3C//DTD SVG 1.1//EN"
 "http://www.w3.org/Graphics/SVG/1.1/DTD/svg11.dtd">
<!-- Generated by graphviz version 2.46.0 (20210122.1329)
 -->
<!-- Title: include/JSystem/JKernel/SArc.h Pages: 1 -->
<svg width="3585pt" height="519pt"
 viewBox="0.00 0.00 3584.50 519.00" xmlns="http://www.w3.org/2000/svg" xmlns:xlink="http://www.w3.org/1999/xlink">
<g id="graph0" class="graph" transform="scale(1 1) rotate(0) translate(4 515)">
<title>include/JSystem/JKernel/SArc.h</title>
<polygon fill="white" stroke="transparent" points="-4,4 -4,-515 3580.5,-515 3580.5,4 -4,4"/>
<!-- Node1 -->
<g id="node1" class="node">
<title>Node1</title>
<g id="a_node1"><a xlink:title=" ">
<polygon fill="#bfbfbf" stroke="black" points="2829,-480.5 2829,-510.5 2954,-510.5 2954,-480.5 2829,-480.5"/>
<text text-anchor="start" x="2837" y="-498.5" font-family="Helvetica,sans-Serif" font-size="10.00">include/JSystem/JKernel</text>
<text text-anchor="middle" x="2891.5" y="-487.5" font-family="Helvetica,sans-Serif" font-size="10.00">/SArc.h</text>
</a>
</g>
</g>
<!-- Node2 -->
<g id="node2" class="node">
<title>Node2</title>
<g id="a_node2"><a xlink:href="JKRArchive_8h.html" target="_top" xlink:title=" ">
<polygon fill="white" stroke="black" points="2695.5,-279.5 2695.5,-309.5 2829.5,-309.5 2829.5,-279.5 2695.5,-279.5"/>
<text text-anchor="start" x="2703.5" y="-297.5" font-family="Helvetica,sans-Serif" font-size="10.00">include/JSystem/JKernel</text>
<text text-anchor="middle" x="2762.5" y="-286.5" font-family="Helvetica,sans-Serif" font-size="10.00">/JKRArchive/JKRArchive.h</text>
</a>
</g>
</g>
<!-- Node1&#45;&gt;Node2 -->
<g id="edge1" class="edge">
<title>Node1&#45;&gt;Node2</title>
<path fill="none" stroke="midnightblue" d="M2876.65,-471.59C2849.75,-430.1 2793.74,-343.68 2771.69,-309.68"/>
<polygon fill="midnightblue" stroke="midnightblue" points="2873.85,-473.7 2882.22,-480.19 2879.72,-469.89 2873.85,-473.7"/>
</g>
<!-- Node63 -->
<g id="node45" class="node">
<title>Node63</title>
<g id="a_node45"><a xlink:href="JKRCompression_8h.html" target="_top" xlink:title=" ">
<polygon fill="white" stroke="black" points="2878,-413.5 2878,-443.5 3003,-443.5 3003,-413.5 2878,-413.5"/>
<text text-anchor="start" x="2886" y="-431.5" font-family="Helvetica,sans-Serif" font-size="10.00">include/JSystem/JKernel</text>
<text text-anchor="middle" x="2940.5" y="-420.5" font-family="Helvetica,sans-Serif" font-size="10.00">/JKRCompression.h</text>
</a>
</g>
</g>
<!-- Node1&#45;&gt;Node63 -->
<g id="edge54" class="edge">
<title>Node1&#45;&gt;Node63</title>
<path fill="none" stroke="midnightblue" d="M2908.34,-472.16C2915.49,-462.68 2923.6,-451.92 2929.89,-443.58"/>
<polygon fill="midnightblue" stroke="midnightblue" points="2905.36,-470.3 2902.13,-480.4 2910.95,-474.52 2905.36,-470.3"/>
</g>
<!-- Node3 -->
<g id="node3" class="node">
<title>Node3</title>
<g id="a_node3"><a xlink:href="JKRArchivePri_8cpp.html" target="_top" xlink:title=" ">
<polygon fill="white" stroke="black" points="3291,-212.5 3291,-242.5 3400,-242.5 3400,-212.5 3291,-212.5"/>
<text text-anchor="start" x="3299" y="-230.5" font-family="Helvetica,sans-Serif" font-size="10.00">libs/JSystem/JKernel</text>
<text text-anchor="middle" x="3345.5" y="-219.5" font-family="Helvetica,sans-Serif" font-size="10.00">/JKRArchivePri.cpp</text>
</a>
</g>
</g>
<!-- Node2&#45;&gt;Node3 -->
<g id="edge2" class="edge">
<title>Node2&#45;&gt;Node3</title>
<path fill="none" stroke="midnightblue" d="M2839.74,-279.09C3037.04,-253.35 3090.53,-272.73 3282.5,-243 3285.27,-242.57 3288.1,-242.09 3290.96,-241.56"/>
<polygon fill="midnightblue" stroke="midnightblue" points="2839.08,-275.64 2829.62,-280.43 2840,-282.58 2839.08,-275.64"/>
</g>
<!-- Node4 -->
<g id="node4" class="node">
<title>Node4</title>
<g id="a_node4"><a xlink:href="JKRArchivePub_8cpp.html" target="_top" xlink:title=" ">
<polygon fill="white" stroke="black" points="2940,-140 2940,-170 3049,-170 3049,-140 2940,-140"/>
<text text-anchor="start" x="2948" y="-158" font-family="Helvetica,sans-Serif" font-size="10.00">libs/JSystem/JKernel</text>
<text text-anchor="middle" x="2994.5" y="-147" font-family="Helvetica,sans-Serif" font-size="10.00">/JKRArchivePub.cpp</text>
</a>
</g>
</g>
<!-- Node2&#45;&gt;Node4 -->
<g id="edge3" class="edge">
<title>Node2&#45;&gt;Node4</title>
<path fill="none" stroke="midnightblue" d="M2804.96,-275.24C2823.77,-266.46 2845.82,-255.2 2864.5,-243 2882.46,-231.27 2884.04,-224.46 2901.5,-212 2923.29,-196.46 2949.52,-180.93 2968.56,-170.18"/>
<polygon fill="midnightblue" stroke="midnightblue" points="2803.37,-272.12 2795.74,-279.47 2806.29,-278.49 2803.37,-272.12"/>
</g>
<!-- Node5 -->
<g id="node5" class="node">
<title>Node5</title>
<g id="a_node5"><a xlink:href="JKRFileFinder_8cpp.html" target="_top" xlink:title=" ">
<polygon fill="white" stroke="black" points="2052,-212.5 2052,-242.5 2161,-242.5 2161,-212.5 2052,-212.5"/>
<text text-anchor="start" x="2060" y="-230.5" font-family="Helvetica,sans-Serif" font-size="10.00">libs/JSystem/JKernel</text>
<text text-anchor="middle" x="2106.5" y="-219.5" font-family="Helvetica,sans-Serif" font-size="10.00">/JKRFileFinder.cpp</text>
</a>
</g>
</g>
<!-- Node2&#45;&gt;Node5 -->
<g id="edge4" class="edge">
<title>Node2&#45;&gt;Node5</title>
<path fill="none" stroke="midnightblue" d="M2684.79,-290.29C2571.25,-284.82 2353.61,-271.41 2170.5,-243 2167.46,-242.53 2164.35,-241.99 2161.22,-241.42"/>
<polygon fill="midnightblue" stroke="midnightblue" points="2684.96,-293.8 2695.11,-290.77 2685.29,-286.81 2684.96,-293.8"/>
</g>
<!-- Node6 -->
<g id="node6" class="node">
<title>Node6</title>
<g id="a_node6"><a xlink:href="d__file__sel__info_8h.html" target="_top" xlink:title=" ">
<polygon fill="white" stroke="black" points="657.5,-134.5 657.5,-175.5 755.5,-175.5 755.5,-134.5 657.5,-134.5"/>
<text text-anchor="start" x="665.5" y="-163.5" font-family="Helvetica,sans-Serif" font-size="10.00">include/d/d_file/d</text>
<text text-anchor="start" x="665.5" y="-152.5" font-family="Helvetica,sans-Serif" font-size="10.00">_file_sel_info/d_file</text>
<text text-anchor="middle" x="706.5" y="-141.5" font-family="Helvetica,sans-Serif" font-size="10.00">_sel_info.h</text>
</a>
</g>
</g>
<!-- Node2&#45;&gt;Node6 -->
<g id="edge5" class="edge">
<title>Node2&#45;&gt;Node6</title>
<path fill="none" stroke="midnightblue" d="M2685.17,-288.33C2350.1,-265.92 1028.34,-177.52 755.81,-159.3"/>
<polygon fill="midnightblue" stroke="midnightblue" points="2685.05,-291.83 2695.26,-289 2685.52,-284.84 2685.05,-291.83"/>
</g>
<!-- Node8 -->
<g id="node8" class="node">
<title>Node8</title>
<g id="a_node8"><a xlink:href="d__resource_8h.html" target="_top" xlink:title=" ">
<polygon fill="white" stroke="black" points="2179,-212.5 2179,-242.5 2286,-242.5 2286,-212.5 2179,-212.5"/>
<text text-anchor="start" x="2187" y="-230.5" font-family="Helvetica,sans-Serif" font-size="10.00">include/d/d_resource</text>
<text text-anchor="middle" x="2232.5" y="-219.5" font-family="Helvetica,sans-Serif" font-size="10.00">/d_resource.h</text>
</a>
</g>
</g>
<!-- Node2&#45;&gt;Node8 -->
<g id="edge7" class="edge">
<title>Node2&#45;&gt;Node8</title>
<path fill="none" stroke="midnightblue" d="M2685.2,-287.46C2593.19,-279.71 2435.06,-264.64 2300.5,-243 2295.85,-242.25 2291.04,-241.4 2286.23,-240.48"/>
<polygon fill="midnightblue" stroke="midnightblue" points="2685.01,-290.95 2695.27,-288.3 2685.59,-283.98 2685.01,-290.95"/>
</g>
<!-- Node42 -->
<g id="node33" class="node">
<title>Node42</title>
<g id="a_node33"><a xlink:href="J2DPane_8h.html" target="_top" xlink:title=" ">
<polygon fill="white" stroke="black" points="2309,-212.5 2309,-242.5 2444,-242.5 2444,-212.5 2309,-212.5"/>
<text text-anchor="start" x="2317" y="-230.5" font-family="Helvetica,sans-Serif" font-size="10.00">include/JSystem/J2DGraph</text>
<text text-anchor="middle" x="2376.5" y="-219.5" font-family="Helvetica,sans-Serif" font-size="10.00">/J2DPane.h</text>
</a>
</g>
</g>
<!-- Node2&#45;&gt;Node42 -->
<g id="edge36" class="edge">
<title>Node2&#45;&gt;Node42</title>
<path fill="none" stroke="midnightblue" d="M2685.6,-280.56C2625,-270.36 2538.35,-255.78 2462.5,-243 2456.53,-241.99 2450.32,-240.95 2444.1,-239.9"/>
<polygon fill="midnightblue" stroke="midnightblue" points="2685.03,-284.01 2695.48,-282.22 2686.2,-277.11 2685.03,-284.01"/>
</g>
<!-- Node44 -->
<g id="node35" class="node">
<title>Node44</title>
<g id="a_node35"><a xlink:href="JKRAramArchive_8h.html" target="_top" xlink:title=" ">
<polygon fill="white" stroke="black" points="2471.5,-212.5 2471.5,-242.5 2651.5,-242.5 2651.5,-212.5 2471.5,-212.5"/>
<text text-anchor="start" x="2479.5" y="-230.5" font-family="Helvetica,sans-Serif" font-size="10.00">include/JSystem/JKernel</text>
<text text-anchor="middle" x="2561.5" y="-219.5" font-family="Helvetica,sans-Serif" font-size="10.00">/JKRAramArchive/JKRAramArchive.h</text>
</a>
</g>
</g>
<!-- Node2&#45;&gt;Node44 -->
<g id="edge38" class="edge">
<title>Node2&#45;&gt;Node44</title>
<path fill="none" stroke="midnightblue" d="M2709.09,-276.23C2676.57,-265.71 2635.56,-252.45 2605.03,-242.58"/>
<polygon fill="midnightblue" stroke="midnightblue" points="2708.29,-279.65 2718.89,-279.4 2710.45,-272.99 2708.29,-279.65"/>
</g>
<!-- Node57 -->
<g id="node39" class="node">
<title>Node57</title>
<g id="a_node39"><a xlink:href="JKRCompArchive_8h.html" target="_top" xlink:title=" ">
<polygon fill="white" stroke="black" points="2670,-212.5 2670,-242.5 2855,-242.5 2855,-212.5 2670,-212.5"/>
<text text-anchor="start" x="2678" y="-230.5" font-family="Helvetica,sans-Serif" font-size="10.00">include/JSystem/JKernel</text>
<text text-anchor="middle" x="2762.5" y="-219.5" font-family="Helvetica,sans-Serif" font-size="10.00">/JKRCompArchive/JKRCompArchive.h</text>
</a>
</g>
</g>
<!-- Node2&#45;&gt;Node57 -->
<g id="edge45" class="edge">
<title>Node2&#45;&gt;Node57</title>
<path fill="none" stroke="midnightblue" d="M2762.5,-269.11C2762.5,-260.15 2762.5,-250.32 2762.5,-242.58"/>
<polygon fill="midnightblue" stroke="midnightblue" points="2759,-269.4 2762.5,-279.4 2766,-269.4 2759,-269.4"/>
</g>
<!-- Node59 -->
<g id="node41" class="node">
<title>Node59</title>
<g id="a_node41"><a xlink:href="JKRDvdArchive_8h.html" target="_top" xlink:title=" ">
<polygon fill="white" stroke="black" points="2910.5,-212.5 2910.5,-242.5 3078.5,-242.5 3078.5,-212.5 2910.5,-212.5"/>
<text text-anchor="start" x="2918.5" y="-230.5" font-family="Helvetica,sans-Serif" font-size="10.00">include/JSystem/JKernel</text>
<text text-anchor="middle" x="2994.5" y="-219.5" font-family="Helvetica,sans-Serif" font-size="10.00">/JKRDvdArchive/JKRDvdArchive.h</text>
</a>
</g>
</g>
<!-- Node2&#45;&gt;Node59 -->
<g id="edge48" class="edge">
<title>Node2&#45;&gt;Node59</title>
<path fill="none" stroke="midnightblue" d="M2822.41,-276.71C2860.16,-266.14 2908.36,-252.63 2944.13,-242.61"/>
<polygon fill="midnightblue" stroke="midnightblue" points="2821.24,-273.41 2812.55,-279.48 2823.13,-280.15 2821.24,-273.41"/>
</g>
<!-- Node61 -->
<g id="node43" class="node">
<title>Node61</title>
<g id="a_node43"><a xlink:href="JKRMemArchive_8h.html" target="_top" xlink:title=" ">
<polygon fill="white" stroke="black" points="3096,-212.5 3096,-242.5 3273,-242.5 3273,-212.5 3096,-212.5"/>
<text text-anchor="start" x="3104" y="-230.5" font-family="Helvetica,sans-Serif" font-size="10.00">include/JSystem/JKernel</text>
<text text-anchor="middle" x="3184.5" y="-219.5" font-family="Helvetica,sans-Serif" font-size="10.00">/JKRMemArchive/JKRMemArchive.h</text>
</a>
</g>
</g>
<!-- Node2&#45;&gt;Node61 -->
<g id="edge51" class="edge">
<title>Node2&#45;&gt;Node61</title>
<path fill="none" stroke="midnightblue" d="M2839.62,-279.03C2951.01,-260.6 2980.43,-258.77 3087.5,-243 3090.28,-242.59 3093.1,-242.17 3095.96,-241.75"/>
<polygon fill="midnightblue" stroke="midnightblue" points="2838.95,-275.59 2829.66,-280.68 2840.1,-282.49 2838.95,-275.59"/>
</g>
<!-- Node7 -->
<g id="node7" class="node">
<title>Node7</title>
<g id="a_node7"><a xlink:href="d__file__sel__info_8cpp.html" target="_top" xlink:title=" ">
<polygon fill="white" stroke="black" points="0,-67.5 0,-97.5 89,-97.5 89,-67.5 0,-67.5"/>
<text text-anchor="start" x="8" y="-85.5" font-family="Helvetica,sans-Serif" font-size="10.00">src/d/d_file/d_file</text>
<text text-anchor="middle" x="44.5" y="-74.5" font-family="Helvetica,sans-Serif" font-size="10.00">_sel_info.cpp</text>
</a>
</g>
</g>
<!-- Node6&#45;&gt;Node7 -->
<g id="edge6" class="edge">
<title>Node6&#45;&gt;Node7</title>
<path fill="none" stroke="midnightblue" d="M646.98,-151.99C537.44,-147.52 296.88,-134.15 97.5,-98 94.78,-97.51 91.99,-96.94 89.19,-96.32"/>
<polygon fill="midnightblue" stroke="midnightblue" points="647.03,-155.49 657.16,-152.39 647.31,-148.5 647.03,-155.49"/>
</g>
<!-- Node9 -->
<g id="node9" class="node">
<title>Node9</title>
<g id="a_node9"><a xlink:href="d__a__alink_8h.html" target="_top" xlink:title=" ">
<polygon fill="white" stroke="black" points="2383,-67.5 2383,-97.5 2502,-97.5 2502,-67.5 2383,-67.5"/>
<text text-anchor="start" x="2391" y="-85.5" font-family="Helvetica,sans-Serif" font-size="10.00">include/d/d_a/d_a_alink</text>
<text text-anchor="middle" x="2442.5" y="-74.5" font-family="Helvetica,sans-Serif" font-size="10.00">/d_a_alink.h</text>
</a>
</g>
</g>
<!-- Node8&#45;&gt;Node9 -->
<g id="edge8" class="edge">
<title>Node8&#45;&gt;Node9</title>
<path fill="none" stroke="midnightblue" d="M2229.97,-202.02C2229.24,-181.32 2231.76,-152.2 2248.5,-134 2253.21,-128.89 2327.58,-110.49 2382.85,-97.38"/>
<polygon fill="midnightblue" stroke="midnightblue" points="2226.49,-202.5 2230.61,-212.26 2233.48,-202.06 2226.49,-202.5"/>
</g>
<!-- Node13 -->
<g id="node13" class="node">
<title>Node13</title>
<g id="a_node13"><a xlink:href="d__com__inf__game_8h.html" target="_top" xlink:title=" ">
<polygon fill="white" stroke="red" points="1434.5,-140 1434.5,-170 1580.5,-170 1580.5,-140 1434.5,-140"/>
<text text-anchor="start" x="1442.5" y="-158" font-family="Helvetica,sans-Serif" font-size="10.00">include/d/d_com/d_com</text>
<text text-anchor="middle" x="1507.5" y="-147" font-family="Helvetica,sans-Serif" font-size="10.00">_inf_game/d_com_inf_game.h</text>
</a>
</g>
</g>
<!-- Node8&#45;&gt;Node13 -->
<g id="edge13" class="edge">
<title>Node8&#45;&gt;Node13</title>
<path fill="none" stroke="midnightblue" d="M2168.76,-211.86C1950.04,-177.88 1701.23,-163.91 1580.52,-158.69"/>
<polygon fill="midnightblue" stroke="midnightblue" points="2168.4,-215.35 2178.83,-213.44 2169.49,-208.43 2168.4,-215.35"/>
</g>
<!-- Node10 -->
<g id="node10" class="node">
<title>Node10</title>
<g id="a_node10"><a xlink:href="d__attention_8cpp.html" target="_top" xlink:title=" ">
<polygon fill="white" stroke="black" points="2150,-6 2150,-25 2257,-25 2257,-6 2150,-6"/>
<text text-anchor="middle" x="2203.5" y="-13" font-family="Helvetica,sans-Serif" font-size="10.00">src/d/d_attention.cpp</text>
</a>
</g>
</g>
<!-- Node9&#45;&gt;Node10 -->
<g id="edge9" class="edge">
<title>Node9&#45;&gt;Node10</title>
<path fill="none" stroke="midnightblue" d="M2381.21,-64.83C2334.43,-52.11 2271.91,-35.11 2234.86,-25.03"/>
<polygon fill="midnightblue" stroke="midnightblue" points="2380.37,-68.23 2390.93,-67.48 2382.2,-61.47 2380.37,-68.23"/>
</g>
<!-- Node11 -->
<g id="node11" class="node">
<title>Node11</title>
<g id="a_node11"><a xlink:href="d__a__alink_8cpp.html" target="_top" xlink:title=" ">
<polygon fill="white" stroke="black" points="2523,-6 2523,-25 2642,-25 2642,-6 2523,-6"/>
<text text-anchor="middle" x="2582.5" y="-13" font-family="Helvetica,sans-Serif" font-size="10.00">src/d/d_a/d_a_alink.cpp</text>
</a>
</g>
</g>
<!-- Node9&#45;&gt;Node11 -->
<g id="edge10" class="edge">
<title>Node9&#45;&gt;Node11</title>
<path fill="none" stroke="midnightblue" d="M2482.06,-63.13C2509.01,-50.62 2543.43,-34.64 2564.18,-25.01"/>
<polygon fill="midnightblue" stroke="midnightblue" points="2480.47,-60.01 2472.88,-67.4 2483.42,-66.36 2480.47,-60.01"/>
</g>
<!-- Node12 -->
<g id="node12" class="node">
<title>Node12</title>
<g id="a_node12"><a xlink:href="d__a__player_8h.html" target="_top" xlink:title=" ">
<polygon fill="white" stroke="black" points="2380.5,-0.5 2380.5,-30.5 2504.5,-30.5 2504.5,-0.5 2380.5,-0.5"/>
<text text-anchor="start" x="2388.5" y="-18.5" font-family="Helvetica,sans-Serif" font-size="10.00">include/d/d_a/d_a_player</text>
<text text-anchor="middle" x="2442.5" y="-7.5" font-family="Helvetica,sans-Serif" font-size="10.00">/d_a_player.h</text>
</a>
</g>
</g>
<!-- Node9&#45;&gt;Node12 -->
<g id="edge11" class="edge">
<title>Node9&#45;&gt;Node12</title>
<path fill="none" stroke="midnightblue" d="M2435.95,-57.4C2435.51,-48.37 2435.8,-38.41 2436.83,-30.58"/>
<polygon fill="midnightblue" stroke="midnightblue" points="2432.47,-57.74 2436.82,-67.4 2439.44,-57.13 2432.47,-57.74"/>
</g>
<!-- Node12&#45;&gt;Node9 -->
<g id="edge12" class="edge">
<title>Node12&#45;&gt;Node9</title>
<path fill="none" stroke="midnightblue" d="M2449.04,-40.57C2449.49,-49.6 2449.21,-59.56 2448.18,-67.4"/>
<polygon fill="midnightblue" stroke="midnightblue" points="2452.53,-40.24 2448.17,-30.58 2445.55,-40.84 2452.53,-40.24"/>
</g>
<!-- Node13&#45;&gt;Node7 -->
<g id="edge17" class="edge">
<title>Node13&#45;&gt;Node7</title>
<path fill="none" stroke="midnightblue" d="M1423.9,-151.79C1140.74,-144.14 228.14,-118.19 97.5,-98 94.77,-97.58 91.97,-97.06 89.16,-96.49"/>
<polygon fill="midnightblue" stroke="midnightblue" points="1424.02,-155.29 1434.11,-152.06 1424.21,-148.3 1424.02,-155.29"/>
</g>
<!-- Node13&#45;&gt;Node9 -->
<g id="edge35" class="edge">
<title>Node13&#45;&gt;Node9</title>
<path fill="none" stroke="midnightblue" d="M1591.04,-152.64C1746.13,-149.22 2088.77,-137.48 2374.5,-98 2377.25,-97.62 2380.06,-97.19 2382.88,-96.73"/>
<polygon fill="midnightblue" stroke="midnightblue" points="1590.57,-149.15 1580.65,-152.86 1590.72,-156.15 1590.57,-149.15"/>
</g>
<!-- Node13&#45;&gt;Node10 -->
<g id="edge14" class="edge">
<title>Node13&#45;&gt;Node10</title>
<path fill="none" stroke="midnightblue" d="M1590.67,-151.73C1727.21,-147.03 1992.37,-133.51 2078.5,-98 2098.65,-89.69 2098.57,-79.4 2116.5,-67 2140.06,-50.71 2169.14,-34.56 2186.99,-25.07"/>
<polygon fill="midnightblue" stroke="midnightblue" points="1590.54,-148.23 1580.66,-152.07 1590.78,-155.23 1590.54,-148.23"/>
</g>
<!-- Node14 -->
<g id="node14" class="node">
<title>Node14</title>
<g id="a_node14"><a xlink:href="d__camera_8cpp.html" target="_top" xlink:title=" ">
<polygon fill="white" stroke="black" points="2125.5,-73 2125.5,-92 2227.5,-92 2227.5,-73 2125.5,-73"/>
<text text-anchor="middle" x="2176.5" y="-80" font-family="Helvetica,sans-Serif" font-size="10.00">src/d/d_camera.cpp</text>
</a>
</g>
</g>
<!-- Node13&#45;&gt;Node14 -->
<g id="edge15" class="edge">
<title>Node13&#45;&gt;Node14</title>
<path fill="none" stroke="midnightblue" d="M1591.17,-149.61C1708.14,-142.71 1926.95,-127.02 2111.5,-98 2121.44,-96.44 2132.13,-94.26 2141.91,-92.07"/>
<polygon fill="midnightblue" stroke="midnightblue" points="1590.64,-146.14 1580.86,-150.21 1591.04,-153.12 1590.64,-146.14"/>
</g>
<!-- Node15 -->
<g id="node15" class="node">
<title>Node15</title>
<g id="a_node15"><a xlink:href="d__com__inf__game_8cpp.html" target="_top" xlink:title=" ">
<polygon fill="white" stroke="black" points="2246,-67.5 2246,-97.5 2365,-97.5 2365,-67.5 2246,-67.5"/>
<text text-anchor="start" x="2254" y="-85.5" font-family="Helvetica,sans-Serif" font-size="10.00">src/d/d_com/d_com_inf</text>
<text text-anchor="middle" x="2305.5" y="-74.5" font-family="Helvetica,sans-Serif" font-size="10.00">_game.cpp</text>
</a>
</g>
</g>
<!-- Node13&#45;&gt;Node15 -->
<g id="edge16" class="edge">
<title>Node13&#45;&gt;Node15</title>
<path fill="none" stroke="midnightblue" d="M1590.86,-151.14C1726.68,-145.67 2003.96,-131.22 2236.5,-98 2239.53,-97.57 2242.63,-97.08 2245.75,-96.56"/>
<polygon fill="midnightblue" stroke="midnightblue" points="1590.39,-147.65 1580.53,-151.54 1590.66,-154.65 1590.39,-147.65"/>
</g>
<!-- Node16 -->
<g id="node16" class="node">
<title>Node16</title>
<g id="a_node16"><a xlink:href="d__item_8cpp.html" target="_top" xlink:title=" ">
<polygon fill="white" stroke="black" points="107,-73 107,-92 228,-92 228,-73 107,-73"/>
<text text-anchor="middle" x="167.5" y="-80" font-family="Helvetica,sans-Serif" font-size="10.00">src/d/d_item/d_item.cpp</text>
</a>
</g>
</g>
<!-- Node13&#45;&gt;Node16 -->
<g id="edge18" class="edge">
<title>Node13&#45;&gt;Node16</title>
<path fill="none" stroke="midnightblue" d="M1423.96,-152.1C1179.34,-146.25 467.38,-127.15 236.5,-98 225.45,-96.6 213.54,-94.37 202.77,-92.07"/>
<polygon fill="midnightblue" stroke="midnightblue" points="1424.13,-155.6 1434.21,-152.34 1424.29,-148.61 1424.13,-155.6"/>
</g>
<!-- Node17 -->
<g id="node17" class="node">
<title>Node17</title>
<g id="a_node17"><a xlink:href="d__kankyo__rain_8cpp.html" target="_top" xlink:title=" ">
<polygon fill="white" stroke="black" points="246,-67.5 246,-97.5 373,-97.5 373,-67.5 246,-67.5"/>
<text text-anchor="start" x="254" y="-85.5" font-family="Helvetica,sans-Serif" font-size="10.00">src/d/d_kankyo/d_kankyo</text>
<text text-anchor="middle" x="309.5" y="-74.5" font-family="Helvetica,sans-Serif" font-size="10.00">_rain.cpp</text>
</a>
</g>
</g>
<!-- Node13&#45;&gt;Node17 -->
<g id="edge19" class="edge">
<title>Node13&#45;&gt;Node17</title>
<path fill="none" stroke="midnightblue" d="M1424.35,-154.09C1237.3,-153.38 769.36,-146.43 381.5,-98 378.72,-97.65 375.88,-97.26 373.02,-96.83"/>
<polygon fill="midnightblue" stroke="midnightblue" points="1424.38,-157.59 1434.39,-154.13 1424.4,-150.59 1424.38,-157.59"/>
</g>
<!-- Node18 -->
<g id="node18" class="node">
<title>Node18</title>
<g id="a_node18"><a xlink:href="d__kankyo__wether_8cpp.html" target="_top" xlink:title=" ">
<polygon fill="white" stroke="black" points="391,-67.5 391,-97.5 518,-97.5 518,-67.5 391,-67.5"/>
<text text-anchor="start" x="399" y="-85.5" font-family="Helvetica,sans-Serif" font-size="10.00">src/d/d_kankyo/d_kankyo</text>
<text text-anchor="middle" x="454.5" y="-74.5" font-family="Helvetica,sans-Serif" font-size="10.00">_wether.cpp</text>
</a>
</g>
</g>
<!-- Node13&#45;&gt;Node18 -->
<g id="edge20" class="edge">
<title>Node13&#45;&gt;Node18</title>
<path fill="none" stroke="midnightblue" d="M1424.15,-153.22C1254.49,-150.75 857.08,-140.51 526.5,-98 523.72,-97.64 520.88,-97.24 518.02,-96.8"/>
<polygon fill="midnightblue" stroke="midnightblue" points="1424.21,-156.72 1434.26,-153.36 1424.31,-149.72 1424.21,-156.72"/>
</g>
<!-- Node19 -->
<g id="node19" class="node">
<title>Node19</title>
<g id="a_node19"><a xlink:href="d__kankyo_8cpp.html" target="_top" xlink:title=" ">
<polygon fill="white" stroke="black" points="536,-73 536,-92 637,-92 637,-73 536,-73"/>
<text text-anchor="middle" x="586.5" y="-80" font-family="Helvetica,sans-Serif" font-size="10.00">src/d/d_kankyo.cpp</text>
</a>
</g>
</g>
<!-- Node13&#45;&gt;Node19 -->
<g id="edge21" class="edge">
<title>Node13&#45;&gt;Node19</title>
<path fill="none" stroke="midnightblue" d="M1424.02,-153.45C1269.49,-151.34 928.76,-141.66 645.5,-98 636.12,-96.55 626.04,-94.33 616.92,-92.06"/>
<polygon fill="midnightblue" stroke="midnightblue" points="1424.33,-156.95 1434.38,-153.58 1424.42,-149.95 1424.33,-156.95"/>
</g>
<!-- Node20 -->
<g id="node20" class="node">
<title>Node20</title>
<g id="a_node20"><a xlink:href="d__kantera__icon__meter_8cpp.html" target="_top" xlink:title=" ">
<polygon fill="white" stroke="black" points="655,-67.5 655,-97.5 762,-97.5 762,-67.5 655,-67.5"/>
<text text-anchor="start" x="663" y="-85.5" font-family="Helvetica,sans-Serif" font-size="10.00">src/d/d_kantera_icon</text>
<text text-anchor="middle" x="708.5" y="-74.5" font-family="Helvetica,sans-Serif" font-size="10.00">_meter.cpp</text>
</a>
</g>
</g>
<!-- Node13&#45;&gt;Node20 -->
<g id="edge22" class="edge">
<title>Node13&#45;&gt;Node20</title>
<path fill="none" stroke="midnightblue" d="M1424.36,-151.85C1287.36,-147.37 1005.89,-134.25 770.5,-98 767.77,-97.58 764.98,-97.1 762.17,-96.58"/>
<polygon fill="midnightblue" stroke="midnightblue" points="1424.27,-155.35 1434.37,-152.17 1424.49,-148.35 1424.27,-155.35"/>
</g>
<!-- Node21 -->
<g id="node21" class="node">
<title>Node21</title>
<g id="a_node21"><a xlink:href="d__meter__button_8cpp.html" target="_top" xlink:title=" ">
<polygon fill="white" stroke="black" points="780,-67.5 780,-97.5 895,-97.5 895,-67.5 780,-67.5"/>
<text text-anchor="start" x="788" y="-85.5" font-family="Helvetica,sans-Serif" font-size="10.00">src/d/d_meter/d_meter</text>
<text text-anchor="middle" x="837.5" y="-74.5" font-family="Helvetica,sans-Serif" font-size="10.00">_button.cpp</text>
</a>
</g>
</g>
<!-- Node13&#45;&gt;Node21 -->
<g id="edge23" class="edge">
<title>Node13&#45;&gt;Node21</title>
<path fill="none" stroke="midnightblue" d="M1423.85,-149.53C1306.89,-142.53 1088.1,-126.72 903.5,-98 900.72,-97.57 897.88,-97.09 895.01,-96.58"/>
<polygon fill="midnightblue" stroke="midnightblue" points="1423.97,-153.04 1434.16,-150.14 1424.38,-146.05 1423.97,-153.04"/>
</g>
<!-- Node22 -->
<g id="node22" class="node">
<title>Node22</title>
<g id="a_node22"><a xlink:href="d__meter__haihai_8cpp.html" target="_top" xlink:title=" ">
<polygon fill="white" stroke="black" points="913,-67.5 913,-97.5 1028,-97.5 1028,-67.5 913,-67.5"/>
<text text-anchor="start" x="921" y="-85.5" font-family="Helvetica,sans-Serif" font-size="10.00">src/d/d_meter/d_meter</text>
<text text-anchor="middle" x="970.5" y="-74.5" font-family="Helvetica,sans-Serif" font-size="10.00">_haihai.cpp</text>
</a>
</g>
</g>
<!-- Node13&#45;&gt;Node22 -->
<g id="edge24" class="edge">
<title>Node13&#45;&gt;Node22</title>
<path fill="none" stroke="midnightblue" d="M1424.1,-146.57C1329.68,-137.59 1171.44,-120.79 1036.5,-98 1033.72,-97.53 1030.89,-97.02 1028.03,-96.49"/>
<polygon fill="midnightblue" stroke="midnightblue" points="1423.88,-150.07 1434.16,-147.52 1424.53,-143.1 1423.88,-150.07"/>
</g>
<!-- Node23 -->
<g id="node23" class="node">
<title>Node23</title>
<g id="a_node23"><a xlink:href="d__meter__hakusha_8cpp.html" target="_top" xlink:title=" ">
<polygon fill="white" stroke="black" points="1046,-67.5 1046,-97.5 1161,-97.5 1161,-67.5 1046,-67.5"/>
<text text-anchor="start" x="1054" y="-85.5" font-family="Helvetica,sans-Serif" font-size="10.00">src/d/d_meter/d_meter</text>
<text text-anchor="middle" x="1103.5" y="-74.5" font-family="Helvetica,sans-Serif" font-size="10.00">_hakusha.cpp</text>
</a>
</g>
</g>
<!-- Node13&#45;&gt;Node23 -->
<g id="edge25" class="edge">
<title>Node13&#45;&gt;Node23</title>
<path fill="none" stroke="midnightblue" d="M1424.57,-141.49C1356.01,-130.86 1256.21,-114.7 1169.5,-98 1166.74,-97.47 1163.91,-96.91 1161.06,-96.33"/>
<polygon fill="midnightblue" stroke="midnightblue" points="1424.03,-144.95 1434.45,-143.02 1425.1,-138.03 1424.03,-144.95"/>
</g>
<!-- Node24 -->
<g id="node24" class="node">
<title>Node24</title>
<g id="a_node24"><a xlink:href="d__meter__map_8cpp.html" target="_top" xlink:title=" ">
<polygon fill="white" stroke="black" points="1179,-67.5 1179,-97.5 1294,-97.5 1294,-67.5 1179,-67.5"/>
<text text-anchor="start" x="1187" y="-85.5" font-family="Helvetica,sans-Serif" font-size="10.00">src/d/d_meter/d_meter</text>
<text text-anchor="middle" x="1236.5" y="-74.5" font-family="Helvetica,sans-Serif" font-size="10.00">_map.cpp</text>
</a>
</g>
</g>
<!-- Node13&#45;&gt;Node24 -->
<g id="edge26" class="edge">
<title>Node13&#45;&gt;Node24</title>
<path fill="none" stroke="midnightblue" d="M1443.67,-137.39C1397.16,-125.29 1334.83,-109.08 1290.73,-97.61"/>
<polygon fill="midnightblue" stroke="midnightblue" points="1443.08,-140.86 1453.64,-139.99 1444.84,-134.08 1443.08,-140.86"/>
</g>
<!-- Node25 -->
<g id="node25" class="node">
<title>Node25</title>
<g id="a_node25"><a xlink:href="d__meter__string_8cpp.html" target="_top" xlink:title=" ">
<polygon fill="white" stroke="black" points="1312,-67.5 1312,-97.5 1427,-97.5 1427,-67.5 1312,-67.5"/>
<text text-anchor="start" x="1320" y="-85.5" font-family="Helvetica,sans-Serif" font-size="10.00">src/d/d_meter/d_meter</text>
<text text-anchor="middle" x="1369.5" y="-74.5" font-family="Helvetica,sans-Serif" font-size="10.00">_string.cpp</text>
</a>
</g>
</g>
<!-- Node13&#45;&gt;Node25 -->
<g id="edge27" class="edge">
<title>Node13&#45;&gt;Node25</title>
<path fill="none" stroke="midnightblue" d="M1470.73,-135.22C1447.58,-123.39 1418.19,-108.37 1397.05,-97.57"/>
<polygon fill="midnightblue" stroke="midnightblue" points="1469.41,-138.47 1479.91,-139.9 1472.59,-132.24 1469.41,-138.47"/>
</g>
<!-- Node26 -->
<g id="node26" class="node">
<title>Node26</title>
<g id="a_node26"><a xlink:href="d__meter2__draw_8cpp.html" target="_top" xlink:title=" ">
<polygon fill="white" stroke="black" points="1445,-67.5 1445,-97.5 1570,-97.5 1570,-67.5 1445,-67.5"/>
<text text-anchor="start" x="1453" y="-85.5" font-family="Helvetica,sans-Serif" font-size="10.00">src/d/d_meter2/d_meter2</text>
<text text-anchor="middle" x="1507.5" y="-74.5" font-family="Helvetica,sans-Serif" font-size="10.00">_draw.cpp</text>
</a>
</g>
</g>
<!-- Node13&#45;&gt;Node26 -->
<g id="edge28" class="edge">
<title>Node13&#45;&gt;Node26</title>
<path fill="none" stroke="midnightblue" d="M1507.5,-129.73C1507.5,-119.07 1507.5,-106.91 1507.5,-97.75"/>
<polygon fill="midnightblue" stroke="midnightblue" points="1504,-129.73 1507.5,-139.73 1511,-129.73 1504,-129.73"/>
</g>
<!-- Node27 -->
<g id="node27" class="node">
<title>Node27</title>
<g id="a_node27"><a xlink:href="d__meter2__info_8cpp.html" target="_top" xlink:title=" ">
<polygon fill="white" stroke="black" points="1588,-67.5 1588,-97.5 1713,-97.5 1713,-67.5 1588,-67.5"/>
<text text-anchor="start" x="1596" y="-85.5" font-family="Helvetica,sans-Serif" font-size="10.00">src/d/d_meter2/d_meter2</text>
<text text-anchor="middle" x="1650.5" y="-74.5" font-family="Helvetica,sans-Serif" font-size="10.00">_info.cpp</text>
</a>
</g>
</g>
<!-- Node13&#45;&gt;Node27 -->
<g id="edge29" class="edge">
<title>Node13&#45;&gt;Node27</title>
<path fill="none" stroke="midnightblue" d="M1545.28,-135.37C1569.32,-123.52 1599.95,-108.42 1621.96,-97.57"/>
<polygon fill="midnightblue" stroke="midnightblue" points="1543.52,-132.34 1536.09,-139.9 1546.61,-138.62 1543.52,-132.34"/>
</g>
<!-- Node28 -->
<g id="node28" class="node">
<title>Node28</title>
<g id="a_node28"><a xlink:href="d__meter2_8cpp.html" target="_top" xlink:title=" ">
<polygon fill="white" stroke="black" points="1731.5,-73 1731.5,-92 1831.5,-92 1831.5,-73 1731.5,-73"/>
<text text-anchor="middle" x="1781.5" y="-80" font-family="Helvetica,sans-Serif" font-size="10.00">src/d/d_meter2.cpp</text>
</a>
</g>
</g>
<!-- Node13&#45;&gt;Node28 -->
<g id="edge30" class="edge">
<title>Node13&#45;&gt;Node28</title>
<path fill="none" stroke="midnightblue" d="M1571.67,-137.49C1626.96,-123.26 1704.58,-103.29 1748.25,-92.05"/>
<polygon fill="midnightblue" stroke="midnightblue" points="1570.77,-134.11 1561.96,-139.99 1572.52,-140.88 1570.77,-134.11"/>
</g>
<!-- Node29 -->
<g id="node29" class="node">
<title>Node29</title>
<g id="a_node29"><a xlink:href="d__save_8cpp.html" target="_top" xlink:title=" ">
<polygon fill="white" stroke="black" points="2520,-73 2520,-92 2645,-92 2645,-73 2520,-73"/>
<text text-anchor="middle" x="2582.5" y="-80" font-family="Helvetica,sans-Serif" font-size="10.00">src/d/d_save/d_save.cpp</text>
</a>
</g>
</g>
<!-- Node13&#45;&gt;Node29 -->
<g id="edge31" class="edge">
<title>Node13&#45;&gt;Node29</title>
<path fill="none" stroke="midnightblue" d="M1590.61,-153.45C1763,-151.41 2171.78,-141.93 2511.5,-98 2522.73,-96.55 2534.84,-94.32 2545.82,-92.05"/>
<polygon fill="midnightblue" stroke="midnightblue" points="1590.55,-149.95 1580.59,-153.56 1590.63,-156.95 1590.55,-149.95"/>
</g>
<!-- Node30 -->
<g id="node30" class="node">
<title>Node30</title>
<g id="a_node30"><a xlink:href="d__save__HIO_8cpp.html" target="_top" xlink:title=" ">
<polygon fill="white" stroke="black" points="1850,-67.5 1850,-97.5 1957,-97.5 1957,-67.5 1850,-67.5"/>
<text text-anchor="start" x="1858" y="-85.5" font-family="Helvetica,sans-Serif" font-size="10.00">src/d/d_save/d_save</text>
<text text-anchor="middle" x="1903.5" y="-74.5" font-family="Helvetica,sans-Serif" font-size="10.00">_HIO.cpp</text>
</a>
</g>
</g>
<!-- Node13&#45;&gt;Node30 -->
<g id="edge32" class="edge">
<title>Node13&#45;&gt;Node30</title>
<path fill="none" stroke="midnightblue" d="M1590.96,-141.38C1658.47,-130.83 1755.87,-114.84 1840.5,-98 1843.58,-97.39 1846.74,-96.73 1849.93,-96.06"/>
<polygon fill="midnightblue" stroke="midnightblue" points="1590.15,-137.96 1580.81,-142.96 1591.23,-144.88 1590.15,-137.96"/>
</g>
<!-- Node31 -->
<g id="node31" class="node">
<title>Node31</title>
<g id="a_node31"><a xlink:href="d__stage_8cpp.html" target="_top" xlink:title=" ">
<polygon fill="white" stroke="black" points="1975.5,-73 1975.5,-92 2069.5,-92 2069.5,-73 1975.5,-73"/>
<text text-anchor="middle" x="2022.5" y="-80" font-family="Helvetica,sans-Serif" font-size="10.00">src/d/d_stage.cpp</text>
</a>
</g>
</g>
<!-- Node13&#45;&gt;Node31 -->
<g id="edge33" class="edge">
<title>Node13&#45;&gt;Node31</title>
<path fill="none" stroke="midnightblue" d="M1590.62,-147.05C1682.76,-138.6 1835.54,-122.37 1965.5,-98 1974.13,-96.38 1983.4,-94.21 1991.89,-92.05"/>
<polygon fill="midnightblue" stroke="midnightblue" points="1590.16,-143.57 1580.52,-147.97 1590.8,-150.55 1590.16,-143.57"/>
</g>
<!-- Node32 -->
<g id="node32" class="node">
<title>Node32</title>
<g id="a_node32"><a xlink:href="f__pc__manager_8cpp.html" target="_top" xlink:title=" ">
<polygon fill="white" stroke="black" points="2663.5,-73 2663.5,-92 2803.5,-92 2803.5,-73 2663.5,-73"/>
<text text-anchor="middle" x="2733.5" y="-80" font-family="Helvetica,sans-Serif" font-size="10.00">src/f/f_pc/f_pc_manager.cpp</text>
</a>
</g>
</g>
<!-- Node13&#45;&gt;Node32 -->
<g id="edge34" class="edge">
<title>Node13&#45;&gt;Node32</title>
<path fill="none" stroke="midnightblue" d="M1590.74,-153.71C1780.22,-152.24 2258.02,-143.86 2654.5,-98 2666.97,-96.56 2680.43,-94.34 2692.65,-92.06"/>
<polygon fill="midnightblue" stroke="midnightblue" points="1590.55,-150.22 1580.57,-153.79 1590.6,-157.22 1590.55,-150.22"/>
</g>
<!-- Node43 -->
<g id="node34" class="node">
<title>Node43</title>
<g id="a_node34"><a xlink:href="J2DPane_8cpp.html" target="_top" xlink:title=" ">
<polygon fill="white" stroke="black" points="2257,-140 2257,-170 2376,-170 2376,-140 2257,-140"/>
<text text-anchor="start" x="2265" y="-158" font-family="Helvetica,sans-Serif" font-size="10.00">libs/JSystem/J2DGraph</text>
<text text-anchor="middle" x="2316.5" y="-147" font-family="Helvetica,sans-Serif" font-size="10.00">/J2DPane.cpp</text>
</a>
</g>
</g>
<!-- Node42&#45;&gt;Node43 -->
<g id="edge37" class="edge">
<title>Node42&#45;&gt;Node43</title>
<path fill="none" stroke="midnightblue" d="M2357.81,-204.54C2348.29,-193.36 2337,-180.08 2328.62,-170.25"/>
<polygon fill="midnightblue" stroke="midnightblue" points="2355.21,-206.89 2364.36,-212.23 2360.54,-202.35 2355.21,-206.89"/>
</g>
<!-- Node44&#45;&gt;Node4 -->
<g id="edge40" class="edge">
<title>Node44&#45;&gt;Node4</title>
<path fill="none" stroke="midnightblue" d="M2661.77,-211.99C2783.15,-195.66 2816.47,-201.72 2931.5,-176 2938.78,-174.37 2946.42,-172.28 2953.78,-170.07"/>
<polygon fill="midnightblue" stroke="midnightblue" points="2661.14,-208.55 2651.71,-213.37 2662.09,-215.48 2661.14,-208.55"/>
</g>
<!-- Node45 -->
<g id="node36" class="node">
<title>Node45</title>
<g id="a_node36"><a xlink:href="JKRAramArchive_8cpp.html" target="_top" xlink:title=" ">
<polygon fill="white" stroke="black" points="2547,-140 2547,-170 2660,-170 2660,-140 2547,-140"/>
<text text-anchor="start" x="2555" y="-158" font-family="Helvetica,sans-Serif" font-size="10.00">libs/JSystem/JKernel</text>
<text text-anchor="middle" x="2603.5" y="-147" font-family="Helvetica,sans-Serif" font-size="10.00">/JKRAramArchive.cpp</text>
</a>
</g>
</g>
<!-- Node44&#45;&gt;Node45 -->
<g id="edge39" class="edge">
<title>Node44&#45;&gt;Node45</title>
<path fill="none" stroke="midnightblue" d="M2575.17,-203.56C2581.7,-192.59 2589.32,-179.8 2595.01,-170.25"/>
<polygon fill="midnightblue" stroke="midnightblue" points="2572.11,-201.85 2570,-212.23 2578.12,-205.43 2572.11,-201.85"/>
</g>
<!-- Node46 -->
<g id="node37" class="node">
<title>Node46</title>
<g id="a_node37"><a xlink:href="d__lib_8h.html" target="_top" xlink:title=" ">
<polygon fill="white" stroke="red" points="2678.5,-145.5 2678.5,-164.5 2788.5,-164.5 2788.5,-145.5 2678.5,-145.5"/>
<text text-anchor="middle" x="2733.5" y="-152.5" font-family="Helvetica,sans-Serif" font-size="10.00">include/d/d_lib/d_lib.h</text>
</a>
</g>
</g>
<!-- Node44&#45;&gt;Node46 -->
<g id="edge41" class="edge">
<title>Node44&#45;&gt;Node46</title>
<path fill="none" stroke="midnightblue" d="M2605.26,-208.56C2639.71,-194.44 2686.18,-175.4 2712.68,-164.53"/>
<polygon fill="midnightblue" stroke="midnightblue" points="2603.82,-205.37 2595.89,-212.4 2606.47,-211.85 2603.82,-205.37"/>
</g>
<!-- Node48 -->
<g id="node38" class="node">
<title>Node48</title>
<g id="a_node38"><a xlink:href="Z2AudioMgr_8h.html" target="_top" xlink:title=" ">
<polygon fill="white" stroke="red" points="2394,-140 2394,-170 2529,-170 2529,-140 2394,-140"/>
<text text-anchor="start" x="2402" y="-158" font-family="Helvetica,sans-Serif" font-size="10.00">include/Z2AudioLib</text>
<text text-anchor="middle" x="2461.5" y="-147" font-family="Helvetica,sans-Serif" font-size="10.00">/Z2AudioMgr/Z2AudioMgr.h</text>
</a>
</g>
</g>
<!-- Node44&#45;&gt;Node48 -->
<g id="edge43" class="edge">
<title>Node44&#45;&gt;Node48</title>
<path fill="none" stroke="midnightblue" d="M2533.03,-206.43C2516.52,-194.79 2496.14,-180.42 2481.37,-170"/>
<polygon fill="midnightblue" stroke="midnightblue" points="2531.07,-209.33 2541.26,-212.23 2535.11,-203.61 2531.07,-209.33"/>
</g>
<!-- Node46&#45;&gt;Node32 -->
<g id="edge42" class="edge">
<title>Node46&#45;&gt;Node32</title>
<path fill="none" stroke="midnightblue" d="M2733.5,-134.94C2733.5,-121.03 2733.5,-102.82 2733.5,-92.22"/>
<polygon fill="midnightblue" stroke="midnightblue" points="2730,-135.36 2733.5,-145.36 2737,-135.36 2730,-135.36"/>
</g>
<!-- Node48&#45;&gt;Node29 -->
<g id="edge44" class="edge">
<title>Node48&#45;&gt;Node29</title>
<path fill="none" stroke="midnightblue" d="M2494.48,-134.78C2518.46,-120.81 2549.77,-102.57 2567.85,-92.03"/>
<polygon fill="midnightblue" stroke="midnightblue" points="2492.57,-131.84 2485.7,-139.9 2496.1,-137.89 2492.57,-131.84"/>
</g>
<!-- Node57&#45;&gt;Node4 -->
<g id="edge46" class="edge">
<title>Node57&#45;&gt;Node4</title>
<path fill="none" stroke="midnightblue" d="M2820.13,-209.54C2852.83,-199.86 2894.5,-187.4 2931.5,-176 2937.64,-174.11 2944.11,-172.09 2950.47,-170.08"/>
<polygon fill="midnightblue" stroke="midnightblue" points="2818.88,-206.26 2810.28,-212.46 2820.86,-212.98 2818.88,-206.26"/>
</g>
<!-- Node58 -->
<g id="node40" class="node">
<title>Node58</title>
<g id="a_node40"><a xlink:href="JKRCompArchive_8cpp.html" target="_top" xlink:title=" ">
<polygon fill="white" stroke="black" points="2807,-140 2807,-170 2922,-170 2922,-140 2807,-140"/>
<text text-anchor="start" x="2815" y="-158" font-family="Helvetica,sans-Serif" font-size="10.00">libs/JSystem/JKernel</text>
<text text-anchor="middle" x="2864.5" y="-147" font-family="Helvetica,sans-Serif" font-size="10.00">/JKRCompArchive.cpp</text>
</a>
</g>
</g>
<!-- Node57&#45;&gt;Node58 -->
<g id="edge47" class="edge">
<title>Node57&#45;&gt;Node58</title>
<path fill="none" stroke="midnightblue" d="M2791.54,-206.43C2808.38,-194.79 2829.16,-180.42 2844.24,-170"/>
<polygon fill="midnightblue" stroke="midnightblue" points="2789.38,-203.67 2783.14,-212.23 2793.36,-209.43 2789.38,-203.67"/>
</g>
<!-- Node59&#45;&gt;Node4 -->
<g id="edge49" class="edge">
<title>Node59&#45;&gt;Node4</title>
<path fill="none" stroke="midnightblue" d="M2994.5,-202.23C2994.5,-191.57 2994.5,-179.41 2994.5,-170.25"/>
<polygon fill="midnightblue" stroke="midnightblue" points="2991,-202.23 2994.5,-212.23 2998,-202.23 2991,-202.23"/>
</g>
<!-- Node60 -->
<g id="node42" class="node">
<title>Node60</title>
<g id="a_node42"><a xlink:href="JKRDvdArchive_8cpp.html" target="_top" xlink:title=" ">
<polygon fill="white" stroke="black" points="3191,-140 3191,-170 3300,-170 3300,-140 3191,-140"/>
<text text-anchor="start" x="3199" y="-158" font-family="Helvetica,sans-Serif" font-size="10.00">libs/JSystem/JKernel</text>
<text text-anchor="middle" x="3245.5" y="-147" font-family="Helvetica,sans-Serif" font-size="10.00">/JKRDvdArchive.cpp</text>
</a>
</g>
</g>
<!-- Node59&#45;&gt;Node60 -->
<g id="edge50" class="edge">
<title>Node59&#45;&gt;Node60</title>
<path fill="none" stroke="midnightblue" d="M3054.17,-209.74C3097.18,-197.66 3154.6,-181.53 3195.28,-170.11"/>
<polygon fill="midnightblue" stroke="midnightblue" points="3053.07,-206.41 3044.39,-212.49 3054.96,-213.15 3053.07,-206.41"/>
</g>
<!-- Node61&#45;&gt;Node4 -->
<g id="edge52" class="edge">
<title>Node61&#45;&gt;Node4</title>
<path fill="none" stroke="midnightblue" d="M3136.82,-208.81C3104.53,-196.83 3062.44,-181.21 3032.43,-170.07"/>
<polygon fill="midnightblue" stroke="midnightblue" points="3135.91,-212.21 3146.51,-212.4 3138.35,-205.64 3135.91,-212.21"/>
</g>
<!-- Node62 -->
<g id="node44" class="node">
<title>Node62</title>
<g id="a_node44"><a xlink:href="JKRMemArchive_8cpp.html" target="_top" xlink:title=" ">
<polygon fill="white" stroke="black" points="3380,-140 3380,-170 3491,-170 3491,-140 3380,-140"/>
<text text-anchor="start" x="3388" y="-158" font-family="Helvetica,sans-Serif" font-size="10.00">libs/JSystem/JKernel</text>
<text text-anchor="middle" x="3435.5" y="-147" font-family="Helvetica,sans-Serif" font-size="10.00">/JKRMemArchive.cpp</text>
</a>
</g>
</g>
<!-- Node61&#45;&gt;Node62 -->
<g id="edge53" class="edge">
<title>Node61&#45;&gt;Node62</title>
<path fill="none" stroke="midnightblue" d="M3244.17,-209.74C3287.18,-197.66 3344.6,-181.53 3385.28,-170.11"/>
<polygon fill="midnightblue" stroke="midnightblue" points="3243.07,-206.41 3234.39,-212.49 3244.96,-213.15 3243.07,-206.41"/>
</g>
<!-- Node64 -->
<g id="node46" class="node">
<title>Node64</title>
<g id="a_node46"><a xlink:href="JKRDecomp_8h.html" target="_top" xlink:title=" ">
<polygon fill="white" stroke="black" points="2895.5,-346.5 2895.5,-376.5 3035.5,-376.5 3035.5,-346.5 2895.5,-346.5"/>
<text text-anchor="start" x="2903.5" y="-364.5" font-family="Helvetica,sans-Serif" font-size="10.00">include/JSystem/JKernel</text>
<text text-anchor="middle" x="2965.5" y="-353.5" font-family="Helvetica,sans-Serif" font-size="10.00">/JKRDecomp/JKRDecomp.h</text>
</a>
</g>
</g>
<!-- Node63&#45;&gt;Node64 -->
<g id="edge55" class="edge">
<title>Node63&#45;&gt;Node64</title>
<path fill="none" stroke="midnightblue" d="M2949.54,-403.99C2953.08,-394.8 2957.01,-384.58 2960.09,-376.58"/>
<polygon fill="midnightblue" stroke="midnightblue" points="2946.25,-402.81 2945.92,-413.4 2952.78,-405.32 2946.25,-402.81"/>
</g>
<!-- Node64&#45;&gt;Node2 -->
<g id="edge59" class="edge">
<title>Node64&#45;&gt;Node2</title>
<path fill="none" stroke="midnightblue" d="M2911.56,-343.23C2878.72,-332.71 2837.3,-319.45 2806.46,-309.58"/>
<polygon fill="midnightblue" stroke="midnightblue" points="2910.86,-346.68 2921.45,-346.4 2913,-340.01 2910.86,-346.68"/>
</g>
<!-- Node65 -->
<g id="node47" class="node">
<title>Node65</title>
<g id="a_node47"><a xlink:href="JKRAram_8cpp.html" target="_top" xlink:title=" ">
<polygon fill="white" stroke="black" points="3141,-279.5 3141,-309.5 3250,-309.5 3250,-279.5 3141,-279.5"/>
<text text-anchor="start" x="3149" y="-297.5" font-family="Helvetica,sans-Serif" font-size="10.00">libs/JSystem/JKernel</text>
<text text-anchor="middle" x="3195.5" y="-286.5" font-family="Helvetica,sans-Serif" font-size="10.00">/JKRAram.cpp</text>
</a>
</g>
</g>
<!-- Node64&#45;&gt;Node65 -->
<g id="edge56" class="edge">
<title>Node64&#45;&gt;Node65</title>
<path fill="none" stroke="midnightblue" d="M3024.89,-343.71C3062.32,-333.14 3110.1,-319.63 3145.57,-309.61"/>
<polygon fill="midnightblue" stroke="midnightblue" points="3023.79,-340.39 3015.12,-346.48 3025.7,-347.12 3023.79,-340.39"/>
</g>
<!-- Node66 -->
<g id="node48" class="node">
<title>Node66</title>
<g id="a_node48"><a xlink:href="JKRAramPiece_8cpp.html" target="_top" xlink:title=" ">
<polygon fill="white" stroke="black" points="2848,-279.5 2848,-309.5 2957,-309.5 2957,-279.5 2848,-279.5"/>
<text text-anchor="start" x="2856" y="-297.5" font-family="Helvetica,sans-Serif" font-size="10.00">libs/JSystem/JKernel</text>
<text text-anchor="middle" x="2902.5" y="-286.5" font-family="Helvetica,sans-Serif" font-size="10.00">/JKRAramPiece.cpp</text>
</a>
</g>
</g>
<!-- Node64&#45;&gt;Node66 -->
<g id="edge57" class="edge">
<title>Node64&#45;&gt;Node66</title>
<path fill="none" stroke="midnightblue" d="M2944.69,-339.02C2935.3,-329.34 2924.48,-318.17 2916.14,-309.58"/>
<polygon fill="midnightblue" stroke="midnightblue" points="2942.36,-341.65 2951.83,-346.4 2947.38,-336.78 2942.36,-341.65"/>
</g>
<!-- Node67 -->
<g id="node49" class="node">
<title>Node67</title>
<g id="a_node49"><a xlink:href="JKRDecomp_8cpp.html" target="_top" xlink:title=" ">
<polygon fill="white" stroke="black" points="2975,-279.5 2975,-309.5 3084,-309.5 3084,-279.5 2975,-279.5"/>
<text text-anchor="start" x="2983" y="-297.5" font-family="Helvetica,sans-Serif" font-size="10.00">libs/JSystem/JKernel</text>
<text text-anchor="middle" x="3029.5" y="-286.5" font-family="Helvetica,sans-Serif" font-size="10.00">/JKRDecomp.cpp</text>
</a>
</g>
</g>
<!-- Node64&#45;&gt;Node67 -->
<g id="edge58" class="edge">
<title>Node64&#45;&gt;Node67</title>
<path fill="none" stroke="midnightblue" d="M2986.65,-339.02C2996.18,-329.34 3007.17,-318.17 3015.64,-309.58"/>
<polygon fill="midnightblue" stroke="midnightblue" points="2983.91,-336.81 2979.39,-346.4 2988.9,-341.73 2983.91,-336.81"/>
</g>
<!-- Node68 -->
<g id="node50" class="node">
<title>Node68</title>
<g id="a_node50"><a xlink:href="JKRDvdRipper_8h.html" target="_top" xlink:title=" ">
<polygon fill="white" stroke="red" points="3418.5,-212.5 3418.5,-242.5 3576.5,-242.5 3576.5,-212.5 3418.5,-212.5"/>
<text text-anchor="start" x="3426.5" y="-230.5" font-family="Helvetica,sans-Serif" font-size="10.00">include/JSystem/JKernel</text>
<text text-anchor="middle" x="3497.5" y="-219.5" font-family="Helvetica,sans-Serif" font-size="10.00">/JKRDvdRipper/JKRDvdRipper.h</text>
</a>
</g>
</g>
<!-- Node64&#45;&gt;Node68 -->
<g id="edge60" class="edge">
<title>Node64&#45;&gt;Node68</title>
<path fill="none" stroke="midnightblue" d="M3019.96,-343.05C3043.33,-334.55 3070.5,-323.28 3093.5,-310 3112.67,-298.93 3112.11,-287.63 3132.5,-279 3246.83,-230.61 3286.68,-261.09 3409.5,-243 3412.41,-242.57 3415.37,-242.13 3418.37,-241.67"/>
<polygon fill="midnightblue" stroke="midnightblue" points="3018.78,-339.76 3010.53,-346.41 3021.13,-346.35 3018.78,-339.76"/>
</g>
<!-- Node68&#45;&gt;Node60 -->
<g id="edge61" class="edge">
<title>Node68&#45;&gt;Node60</title>
<path fill="none" stroke="midnightblue" d="M3437.6,-209.74C3394.41,-197.66 3336.77,-181.53 3295.92,-170.11"/>
<polygon fill="midnightblue" stroke="midnightblue" points="3436.84,-213.16 3447.41,-212.49 3438.72,-206.42 3436.84,-213.16"/>
</g>
<!-- Node68&#45;&gt;Node62 -->
<g id="edge62" class="edge">
<title>Node68&#45;&gt;Node62</title>
<path fill="none" stroke="midnightblue" d="M3478.19,-204.54C3468.35,-193.36 3456.68,-180.08 3448.03,-170.25"/>
<polygon fill="midnightblue" stroke="midnightblue" points="3475.72,-207.04 3484.95,-212.23 3480.98,-202.41 3475.72,-207.04"/>
</g>
</g>
</svg>
