<?xml version="1.0" encoding="UTF-8" standalone="no"?>
<!DOCTYPE svg PUBLIC "-//W3C//DTD SVG 1.1//EN"
 "http://www.w3.org/Graphics/SVG/1.1/DTD/svg11.dtd">
<!-- Generated by graphviz version 2.46.1 (20210215.1649)
 -->
<!-- Title: include/JSystem/JGadget/search.h Pages: 1 -->
<svg width="260pt" height="240pt"
 viewBox="0.00 0.00 260.00 240.00" xmlns="http://www.w3.org/2000/svg" xmlns:xlink="http://www.w3.org/1999/xlink">
<g id="graph0" class="graph" transform="scale(1 1) rotate(0) translate(4 236)">
<title>include/JSystem/JGadget/search.h</title>
<polygon fill="white" stroke="transparent" points="-4,4 -4,-236 256,-236 256,4 -4,4"/>
<!-- Node1 -->
<g id="node1" class="node">
<title>Node1</title>
<g id="a_node1"><a xlink:title=" ">
<polygon fill="#bfbfbf" stroke="black" points="57.5,-201.5 57.5,-231.5 185.5,-231.5 185.5,-201.5 57.5,-201.5"/>
<text text-anchor="start" x="65.5" y="-219.5" font-family="Helvetica,sans-Serif" font-size="10.00">include/JSystem/JGadget</text>
<text text-anchor="middle" x="121.5" y="-208.5" font-family="Helvetica,sans-Serif" font-size="10.00">/search.h</text>
</a>
</g>
</g>
<!-- Node2 -->
<g id="node2" class="node">
<title>Node2</title>
<g id="a_node2"><a xlink:href="functionvalue_8h.html" target="_top" xlink:title=" ">
<polygon fill="white" stroke="black" points="59,-134.5 59,-164.5 184,-164.5 184,-134.5 59,-134.5"/>
<text text-anchor="start" x="67" y="-152.5" font-family="Helvetica,sans-Serif" font-size="10.00">include/JSystem/JStudio</text>
<text text-anchor="middle" x="121.5" y="-141.5" font-family="Helvetica,sans-Serif" font-size="10.00">/functionvalue.h</text>
</a>
</g>
</g>
<!-- Node1&#45;&gt;Node2 -->
<g id="edge1" class="edge">
<title>Node1&#45;&gt;Node2</title>
<path fill="none" stroke="midnightblue" d="M121.5,-191.11C121.5,-182.15 121.5,-172.32 121.5,-164.58"/>
<polygon fill="midnightblue" stroke="midnightblue" points="118,-191.4 121.5,-201.4 125,-191.4 118,-191.4"/>
</g>
<!-- Node3 -->
<g id="node3" class="node">
<title>Node3</title>
<g id="a_node3"><a xlink:href="functionvalue_8cpp.html" target="_top" xlink:title=" ">
<polygon fill="white" stroke="black" points="0,-67.5 0,-97.5 109,-97.5 109,-67.5 0,-67.5"/>
<text text-anchor="start" x="8" y="-85.5" font-family="Helvetica,sans-Serif" font-size="10.00">libs/JSystem/JStudio</text>
<text text-anchor="middle" x="54.5" y="-74.5" font-family="Helvetica,sans-Serif" font-size="10.00">/functionvalue.cpp</text>
</a>
</g>
</g>
<!-- Node2&#45;&gt;Node3 -->
<g id="edge2" class="edge">
<title>Node2&#45;&gt;Node3</title>
<path fill="none" stroke="midnightblue" d="M99.66,-127.31C89.61,-117.56 77.96,-106.26 69.01,-97.58"/>
<polygon fill="midnightblue" stroke="midnightblue" points="97.35,-129.94 106.96,-134.4 102.22,-124.92 97.35,-129.94"/>
</g>
<!-- Node4 -->
<g id="node4" class="node">
<title>Node4</title>
<g id="a_node4"><a xlink:href="fvb_8h.html" target="_top" xlink:title=" ">
<polygon fill="white" stroke="black" points="127,-67.5 127,-97.5 252,-97.5 252,-67.5 127,-67.5"/>
<text text-anchor="start" x="135" y="-85.5" font-family="Helvetica,sans-Serif" font-size="10.00">include/JSystem/JStudio</text>
<text text-anchor="middle" x="189.5" y="-74.5" font-family="Helvetica,sans-Serif" font-size="10.00">/fvb.h</text>
</a>
</g>
</g>
<!-- Node2&#45;&gt;Node4 -->
<g id="edge3" class="edge">
<title>Node2&#45;&gt;Node4</title>
<path fill="none" stroke="midnightblue" d="M143.67,-127.31C153.87,-117.56 165.69,-106.26 174.77,-97.58"/>
<polygon fill="midnightblue" stroke="midnightblue" points="141.07,-124.96 136.25,-134.4 145.9,-130.02 141.07,-124.96"/>
</g>
<!-- Node5 -->
<g id="node5" class="node">
<title>Node5</title>
<g id="a_node5"><a xlink:href="fvb_8cpp.html" target="_top" xlink:title=" ">
<polygon fill="white" stroke="black" points="135,-0.5 135,-30.5 244,-30.5 244,-0.5 135,-0.5"/>
<text text-anchor="start" x="143" y="-18.5" font-family="Helvetica,sans-Serif" font-size="10.00">libs/JSystem/JStudio</text>
<text text-anchor="middle" x="189.5" y="-7.5" font-family="Helvetica,sans-Serif" font-size="10.00">/fvb.cpp</text>
</a>
</g>
</g>
<!-- Node4&#45;&gt;Node5 -->
<g id="edge4" class="edge">
<title>Node4&#45;&gt;Node5</title>
<path fill="none" stroke="midnightblue" d="M189.5,-57.11C189.5,-48.15 189.5,-38.32 189.5,-30.58"/>
<polygon fill="midnightblue" stroke="midnightblue" points="186,-57.4 189.5,-67.4 193,-57.4 186,-57.4"/>
</g>
</g>
</svg>
