<?xml version="1.0" encoding="UTF-8" standalone="no"?>
<!DOCTYPE svg PUBLIC "-//W3C//DTD SVG 1.1//EN"
 "http://www.w3.org/Graphics/SVG/1.1/DTD/svg11.dtd">
<!-- Generated by graphviz version 2.46.0 (20210122.1329)
 -->
<!-- Title: JKRAramPiece::Message Pages: 1 -->
<svg width="802pt" height="335pt"
 viewBox="0.00 0.00 801.50 335.00" xmlns="http://www.w3.org/2000/svg" xmlns:xlink="http://www.w3.org/1999/xlink">
<g id="graph0" class="graph" transform="scale(1 1) rotate(0) translate(4 331)">
<title>JKRAramPiece::Message</title>
<polygon fill="white" stroke="transparent" points="-4,4 -4,-331 797.5,-331 797.5,4 -4,4"/>
<!-- Node1 -->
<g id="node1" class="node">
<title>Node1</title>
<g id="a_node1"><a xlink:title=" ">
<polygon fill="#bfbfbf" stroke="black" points="77.5,-0.5 77.5,-19.5 205.5,-19.5 205.5,-0.5 77.5,-0.5"/>
<text text-anchor="middle" x="141.5" y="-7.5" font-family="Helvetica,sans-Serif" font-size="10.00">JKRAramPiece::Message</text>
</a>
</g>
</g>
<!-- Node2 -->
<g id="node2" class="node">
<title>Node2</title>
<g id="a_node2"><a xlink:href="classJKRAMCommand.html" target="_top" xlink:title=" ">
<polygon fill="white" stroke="black" points="163,-68.5 163,-87.5 258,-87.5 258,-68.5 163,-68.5"/>
<text text-anchor="middle" x="210.5" y="-75.5" font-family="Helvetica,sans-Serif" font-size="10.00">JKRAMCommand</text>
</a>
</g>
</g>
<!-- Node2&#45;&gt;Node1 -->
<g id="edge1" class="edge">
<title>Node2&#45;&gt;Node1</title>
<path fill="none" stroke="#9a32cd" stroke-dasharray="5,2" d="M159.53,-63.95C152.85,-60.17 146.83,-55.29 142.5,-49 136.58,-40.41 137.59,-27.95 139.23,-19.67"/>
<polygon fill="#9a32cd" stroke="#9a32cd" points="158.43,-67.3 168.96,-68.46 161.45,-60.99 158.43,-67.3"/>
<text text-anchor="middle" x="165.5" y="-41" font-family="Helvetica,sans-Serif" font-size="10.00"> command</text>
</g>
<!-- Node15 -->
<g id="node15" class="node">
<title>Node15</title>
<g id="a_node15"><a xlink:href="classJKRDecompCommand.html" target="_top" xlink:title=" ">
<polygon fill="white" stroke="black" points="266.5,-0.5 266.5,-19.5 382.5,-19.5 382.5,-0.5 266.5,-0.5"/>
<text text-anchor="middle" x="324.5" y="-7.5" font-family="Helvetica,sans-Serif" font-size="10.00">JKRDecompCommand</text>
</a>
</g>
</g>
<!-- Node2&#45;&gt;Node15 -->
<g id="edge21" class="edge">
<title>Node2&#45;&gt;Node15</title>
<path fill="none" stroke="#9a32cd" stroke-dasharray="5,2" d="M267.99,-66.72C280.24,-62.64 292.49,-56.94 302.5,-49 312.17,-41.32 318.41,-28.15 321.69,-19.5"/>
<polygon fill="#9a32cd" stroke="#9a32cd" points="266.77,-63.43 258.2,-69.66 268.79,-70.14 266.77,-63.43"/>
<text text-anchor="middle" x="346.5" y="-41" font-family="Helvetica,sans-Serif" font-size="10.00"> mAMCommand</text>
</g>
<!-- Node3 -->
<g id="node3" class="node">
<title>Node3</title>
<g id="a_node3"><a xlink:href="classJKRAramBlock.html" target="_top" xlink:title=" ">
<polygon fill="white" stroke="black" points="259,-148.5 259,-167.5 342,-167.5 342,-148.5 259,-148.5"/>
<text text-anchor="middle" x="300.5" y="-155.5" font-family="Helvetica,sans-Serif" font-size="10.00">JKRAramBlock</text>
</a>
</g>
</g>
<!-- Node3&#45;&gt;Node2 -->
<g id="edge2" class="edge">
<title>Node3&#45;&gt;Node2</title>
<path fill="none" stroke="#9a32cd" stroke-dasharray="5,2" d="M260.67,-144.56C252.02,-140.56 243.4,-135.45 236.5,-129 224.06,-117.37 216.52,-98.45 212.97,-87.52"/>
<polygon fill="#9a32cd" stroke="#9a32cd" points="259.43,-147.83 270,-148.47 262.13,-141.38 259.43,-147.83"/>
<text text-anchor="middle" x="266" y="-115.5" font-family="Helvetica,sans-Serif" font-size="10.00"> mAramBlock</text>
</g>
<!-- Node4 -->
<g id="node4" class="node">
<title>Node4</title>
<g id="a_node4"><a xlink:href="classJSULink.html" target="_top" xlink:title=" ">
<polygon fill="white" stroke="black" points="204.5,-227.5 204.5,-246.5 342.5,-246.5 342.5,-227.5 204.5,-227.5"/>
<text text-anchor="middle" x="273.5" y="-234.5" font-family="Helvetica,sans-Serif" font-size="10.00">JSULink&lt; JKRAramBlock &gt;</text>
</a>
</g>
</g>
<!-- Node4&#45;&gt;Node3 -->
<g id="edge3" class="edge">
<title>Node4&#45;&gt;Node3</title>
<path fill="none" stroke="#9a32cd" stroke-dasharray="5,2" d="M279.89,-217.77C285.42,-202.02 293.16,-179.92 297.41,-167.81"/>
<polygon fill="#9a32cd" stroke="#9a32cd" points="276.5,-216.87 276.49,-227.47 283.1,-219.19 276.5,-216.87"/>
<text text-anchor="middle" x="317" y="-195.5" font-family="Helvetica,sans-Serif" font-size="10.00"> mBlockLink</text>
</g>
<!-- Node5 -->
<g id="node5" class="node">
<title>Node5</title>
<g id="a_node5"><a xlink:href="classJSUPtrLink.html" target="_top" xlink:title=" ">
<polygon fill="white" stroke="black" points="275.5,-306.5 275.5,-325.5 343.5,-325.5 343.5,-306.5 275.5,-306.5"/>
<text text-anchor="middle" x="309.5" y="-313.5" font-family="Helvetica,sans-Serif" font-size="10.00">JSUPtrLink</text>
</a>
</g>
</g>
<!-- Node5&#45;&gt;Node4 -->
<g id="edge4" class="edge">
<title>Node5&#45;&gt;Node4</title>
<path fill="none" stroke="midnightblue" d="M301.19,-297.22C293.81,-281.44 283.34,-259.04 277.62,-246.81"/>
<polygon fill="midnightblue" stroke="midnightblue" points="298.1,-298.89 305.51,-306.47 304.45,-295.92 298.1,-298.89"/>
</g>
<!-- Node5&#45;&gt;Node5 -->
<g id="edge5" class="edge">
<title>Node5&#45;&gt;Node5</title>
<path fill="none" stroke="#9a32cd" stroke-dasharray="5,2" d="M353.65,-322.27C358.42,-321.07 361.5,-318.98 361.5,-316 361.5,-311.23 353.63,-308.74 343.51,-308.52"/>
<polygon fill="#9a32cd" stroke="#9a32cd" points="353.02,-318.82 343.51,-323.48 353.85,-325.77 353.02,-318.82"/>
<text text-anchor="middle" x="377" y="-319" font-family="Helvetica,sans-Serif" font-size="10.00"> mNext</text>
<text text-anchor="middle" x="377" y="-308" font-family="Helvetica,sans-Serif" font-size="10.00">mPrev</text>
</g>
<!-- Node6 -->
<g id="node6" class="node">
<title>Node6</title>
<g id="a_node6"><a xlink:href="classJSUPtrList.html" target="_top" xlink:title=" ">
<polygon fill="white" stroke="black" points="361,-227.5 361,-246.5 426,-246.5 426,-227.5 361,-227.5"/>
<text text-anchor="middle" x="393.5" y="-234.5" font-family="Helvetica,sans-Serif" font-size="10.00">JSUPtrList</text>
</a>
</g>
</g>
<!-- Node5&#45;&gt;Node6 -->
<g id="edge7" class="edge">
<title>Node5&#45;&gt;Node6</title>
<path fill="none" stroke="#9a32cd" stroke-dasharray="5,2" d="M311.54,-296.34C313.55,-285.98 317.55,-273.51 325.5,-265 334.86,-254.97 348.43,-248.6 360.98,-244.59"/>
<polygon fill="#9a32cd" stroke="#9a32cd" points="308.04,-296.06 310.04,-306.46 314.97,-297.08 308.04,-296.06"/>
<text text-anchor="middle" x="342.5" y="-279" font-family="Helvetica,sans-Serif" font-size="10.00"> mHead</text>
<text text-anchor="middle" x="342.5" y="-268" font-family="Helvetica,sans-Serif" font-size="10.00">mTail</text>
</g>
<!-- Node7 -->
<g id="node7" class="node">
<title>Node7</title>
<g id="a_node7"><a xlink:href="classJSULink.html" target="_top" xlink:title=" ">
<polygon fill="white" stroke="black" points="0,-188.5 0,-207.5 149,-207.5 149,-188.5 0,-188.5"/>
<text text-anchor="middle" x="74.5" y="-195.5" font-family="Helvetica,sans-Serif" font-size="10.00">JSULink&lt; JKRAMCommand &gt;</text>
</a>
</g>
</g>
<!-- Node5&#45;&gt;Node7 -->
<g id="edge9" class="edge">
<title>Node5&#45;&gt;Node7</title>
<path fill="none" stroke="midnightblue" d="M282.98,-301.91C234.42,-277.94 132.49,-227.62 91.81,-207.54"/>
<polygon fill="midnightblue" stroke="midnightblue" points="281.7,-305.18 292.22,-306.47 284.8,-298.91 281.7,-305.18"/>
</g>
<!-- Node6&#45;&gt;Node5 -->
<g id="edge6" class="edge">
<title>Node6&#45;&gt;Node5</title>
<path fill="none" stroke="#9a32cd" stroke-dasharray="5,2" d="M385.63,-255.74C380.46,-265.86 372.92,-278.23 363.5,-287 354.61,-295.28 342.81,-301.77 332.51,-306.41"/>
<polygon fill="#9a32cd" stroke="#9a32cd" points="388.85,-257.12 389.98,-246.59 382.53,-254.11 388.85,-257.12"/>
<text text-anchor="middle" x="393.5" y="-273.5" font-family="Helvetica,sans-Serif" font-size="10.00"> mList</text>
</g>
<!-- Node7&#45;&gt;Node2 -->
<g id="edge8" class="edge">
<title>Node7&#45;&gt;Node2</title>
<path fill="none" stroke="#9a32cd" stroke-dasharray="5,2" d="M65.83,-178.69C62.42,-168.65 60.56,-156.37 66.5,-147 87.66,-113.6 130.11,-96.3 163.47,-87.53"/>
<polygon fill="#9a32cd" stroke="#9a32cd" points="62.67,-180.2 69.69,-188.14 69.15,-177.56 62.67,-180.2"/>
<text text-anchor="middle" x="92.5" y="-161" font-family="Helvetica,sans-Serif" font-size="10.00"> field_0x30</text>
<text text-anchor="middle" x="92.5" y="-150" font-family="Helvetica,sans-Serif" font-size="10.00">mPieceLink</text>
</g>
<!-- Node8 -->
<g id="node8" class="node">
<title>Node8</title>
<g id="a_node8"><a xlink:href="structOSMessageQueue.html" target="_top" xlink:title=" ">
<polygon fill="white" stroke="black" points="360,-148.5 360,-167.5 459,-167.5 459,-148.5 360,-148.5"/>
<text text-anchor="middle" x="409.5" y="-155.5" font-family="Helvetica,sans-Serif" font-size="10.00">OSMessageQueue</text>
</a>
</g>
</g>
<!-- Node8&#45;&gt;Node2 -->
<g id="edge10" class="edge">
<title>Node8&#45;&gt;Node2</title>
<path fill="none" stroke="#9a32cd" stroke-dasharray="5,2" d="M357.52,-145.54C344.28,-141.42 330.43,-136 318.5,-129 306.3,-121.84 307.63,-114.28 295.5,-107 281.11,-98.36 263.74,-92.03 248.45,-87.59"/>
<polygon fill="#9a32cd" stroke="#9a32cd" points="356.91,-149 367.49,-148.44 358.87,-142.28 356.91,-149"/>
<text text-anchor="middle" x="357" y="-121" font-family="Helvetica,sans-Serif" font-size="10.00"> field_0x5C</text>
<text text-anchor="middle" x="357" y="-110" font-family="Helvetica,sans-Serif" font-size="10.00">mMessageQueue</text>
</g>
<!-- Node8&#45;&gt;Node15 -->
<g id="edge22" class="edge">
<title>Node8&#45;&gt;Node15</title>
<path fill="none" stroke="#9a32cd" stroke-dasharray="5,2" d="M410.73,-138.27C411.39,-112.79 408.84,-67.07 385.5,-38 378.68,-29.51 368.65,-23.62 358.68,-19.55"/>
<polygon fill="#9a32cd" stroke="#9a32cd" points="407.22,-138.27 410.26,-148.41 414.22,-138.58 407.22,-138.27"/>
<text text-anchor="middle" x="445" y="-81" font-family="Helvetica,sans-Serif" font-size="10.00"> field_0x1c</text>
<text text-anchor="middle" x="445" y="-70" font-family="Helvetica,sans-Serif" font-size="10.00">mMessageQueue</text>
</g>
<!-- Node9 -->
<g id="node9" class="node">
<title>Node9</title>
<g id="a_node9"><a xlink:href="structOSThreadQueue.html" target="_top" xlink:title=" ">
<polygon fill="white" stroke="black" points="461,-227.5 461,-246.5 550,-246.5 550,-227.5 461,-227.5"/>
<text text-anchor="middle" x="505.5" y="-234.5" font-family="Helvetica,sans-Serif" font-size="10.00">OSThreadQueue</text>
</a>
</g>
</g>
<!-- Node9&#45;&gt;Node8 -->
<g id="edge11" class="edge">
<title>Node9&#45;&gt;Node8</title>
<path fill="none" stroke="#9a32cd" stroke-dasharray="5,2" d="M451.13,-226.35C433,-221.96 416,-216.14 410.5,-209 401.38,-197.17 404.06,-178.67 406.81,-167.8"/>
<polygon fill="#9a32cd" stroke="#9a32cd" points="450.43,-229.78 460.95,-228.58 451.97,-222.96 450.43,-229.78"/>
<text text-anchor="middle" x="447" y="-201" font-family="Helvetica,sans-Serif" font-size="10.00"> receiving_queue</text>
<text text-anchor="middle" x="447" y="-190" font-family="Helvetica,sans-Serif" font-size="10.00">sending_queue</text>
</g>
<!-- Node10 -->
<g id="node10" class="node">
<title>Node10</title>
<g id="a_node10"><a xlink:href="structOSThread.html" target="_top" xlink:title=" ">
<polygon fill="white" stroke="black" points="594,-148.5 594,-167.5 655,-167.5 655,-148.5 594,-148.5"/>
<text text-anchor="middle" x="624.5" y="-155.5" font-family="Helvetica,sans-Serif" font-size="10.00">OSThread</text>
</a>
</g>
</g>
<!-- Node9&#45;&gt;Node10 -->
<g id="edge15" class="edge">
<title>Node9&#45;&gt;Node10</title>
<path fill="none" stroke="#9a32cd" stroke-dasharray="5,2" d="M524.44,-220.73C537.35,-210.63 555.02,-197.39 571.5,-187 582.77,-179.9 596.02,-172.9 606.45,-167.67"/>
<polygon fill="#9a32cd" stroke="#9a32cd" points="522.01,-218.19 516.34,-227.14 526.36,-223.68 522.01,-218.19"/>
<text text-anchor="middle" x="596" y="-201" font-family="Helvetica,sans-Serif" font-size="10.00"> join_queue</text>
<text text-anchor="middle" x="596" y="-190" font-family="Helvetica,sans-Serif" font-size="10.00">queue</text>
</g>
<!-- Node10&#45;&gt;Node9 -->
<g id="edge12" class="edge">
<title>Node10&#45;&gt;Node9</title>
<path fill="none" stroke="#9a32cd" stroke-dasharray="5,2" d="M583.64,-163.38C553.53,-167.54 516.2,-174.98 506.5,-187 497.31,-198.39 500.02,-216.59 502.78,-227.31"/>
<polygon fill="#9a32cd" stroke="#9a32cd" points="584.47,-166.8 593.94,-162.04 583.57,-159.86 584.47,-166.8"/>
<text text-anchor="middle" x="518.5" y="-201" font-family="Helvetica,sans-Serif" font-size="10.00"> head</text>
<text text-anchor="middle" x="518.5" y="-190" font-family="Helvetica,sans-Serif" font-size="10.00">tail</text>
</g>
<!-- Node11 -->
<g id="node11" class="node">
<title>Node11</title>
<g id="a_node11"><a xlink:href="structOSThreadLink.html" target="_top" xlink:title=" ">
<polygon fill="white" stroke="black" points="551.5,-68.5 551.5,-87.5 631.5,-87.5 631.5,-68.5 551.5,-68.5"/>
<text text-anchor="middle" x="591.5" y="-75.5" font-family="Helvetica,sans-Serif" font-size="10.00">OSThreadLink</text>
</a>
</g>
</g>
<!-- Node10&#45;&gt;Node11 -->
<g id="edge14" class="edge">
<title>Node10&#45;&gt;Node11</title>
<path fill="none" stroke="#9a32cd" stroke-dasharray="5,2" d="M652.47,-142.75C657.31,-138.96 661.69,-134.39 664.5,-129 669.02,-120.33 670.04,-115.06 664.5,-107 656.89,-95.93 644.25,-89.23 631.6,-85.18"/>
<polygon fill="#9a32cd" stroke="#9a32cd" points="650.43,-139.91 644.07,-148.38 654.32,-145.72 650.43,-139.91"/>
<text text-anchor="middle" x="678" y="-121" font-family="Helvetica,sans-Serif" font-size="10.00"> next</text>
<text text-anchor="middle" x="678" y="-110" font-family="Helvetica,sans-Serif" font-size="10.00">prev</text>
</g>
<!-- Node11&#45;&gt;Node10 -->
<g id="edge13" class="edge">
<title>Node11&#45;&gt;Node10</title>
<path fill="none" stroke="#9a32cd" stroke-dasharray="5,2" d="M580.17,-96.59C575.27,-106.57 571.82,-119.01 577.5,-129 582.47,-137.75 591.39,-144.06 600.12,-148.44"/>
<polygon fill="#9a32cd" stroke="#9a32cd" points="583.36,-98.05 585.26,-87.63 577.28,-94.59 583.36,-98.05"/>
<text text-anchor="middle" x="621" y="-121" font-family="Helvetica,sans-Serif" font-size="10.00"> active_threads_link</text>
<text text-anchor="middle" x="621" y="-110" font-family="Helvetica,sans-Serif" font-size="10.00">link</text>
</g>
<!-- Node12 -->
<g id="node12" class="node">
<title>Node12</title>
<g id="a_node12"><a xlink:href="structOSMutexQueue.html" target="_top" xlink:title=" ">
<polygon fill="white" stroke="black" points="582.5,-227.5 582.5,-246.5 668.5,-246.5 668.5,-227.5 582.5,-227.5"/>
<text text-anchor="middle" x="625.5" y="-234.5" font-family="Helvetica,sans-Serif" font-size="10.00">OSMutexQueue</text>
</a>
</g>
</g>
<!-- Node12&#45;&gt;Node10 -->
<g id="edge16" class="edge">
<title>Node12&#45;&gt;Node10</title>
<path fill="none" stroke="#9a32cd" stroke-dasharray="5,2" d="M625.26,-217.31C625.05,-201.59 624.77,-179.81 624.61,-167.81"/>
<polygon fill="#9a32cd" stroke="#9a32cd" points="621.76,-217.51 625.39,-227.47 628.76,-217.42 621.76,-217.51"/>
<text text-anchor="middle" x="661" y="-195.5" font-family="Helvetica,sans-Serif" font-size="10.00"> owned_mutexes</text>
</g>
<!-- Node13 -->
<g id="node13" class="node">
<title>Node13</title>
<g id="a_node13"><a xlink:href="structOSMutex.html" target="_top" xlink:title=" ">
<polygon fill="white" stroke="black" points="709,-306.5 709,-325.5 766,-325.5 766,-306.5 709,-306.5"/>
<text text-anchor="middle" x="737.5" y="-313.5" font-family="Helvetica,sans-Serif" font-size="10.00">OSMutex</text>
</a>
</g>
</g>
<!-- Node13&#45;&gt;Node10 -->
<g id="edge18" class="edge">
<title>Node13&#45;&gt;Node10</title>
<path fill="none" stroke="#9a32cd" stroke-dasharray="5,2" d="M746.79,-297.21C759.95,-269.27 779.29,-215.39 749.5,-187 736.14,-174.26 687.55,-166.27 655.03,-162.23"/>
<polygon fill="#9a32cd" stroke="#9a32cd" points="743.62,-295.72 742.33,-306.23 749.9,-298.82 743.62,-295.72"/>
<text text-anchor="middle" x="779" y="-234.5" font-family="Helvetica,sans-Serif" font-size="10.00"> mutex</text>
</g>
<!-- Node13&#45;&gt;Node12 -->
<g id="edge17" class="edge">
<title>Node13&#45;&gt;Node12</title>
<path fill="none" stroke="#9a32cd" stroke-dasharray="5,2" d="M716.66,-300.67C693.55,-284.78 657.01,-259.66 637.97,-246.57"/>
<polygon fill="#9a32cd" stroke="#9a32cd" points="714.86,-303.68 725.09,-306.47 718.83,-297.92 714.86,-303.68"/>
<text text-anchor="middle" x="705" y="-279" font-family="Helvetica,sans-Serif" font-size="10.00"> next</text>
<text text-anchor="middle" x="705" y="-268" font-family="Helvetica,sans-Serif" font-size="10.00">prev</text>
</g>
<!-- Node14 -->
<g id="node14" class="node">
<title>Node14</title>
<g id="a_node14"><a xlink:href="structOSContext.html" target="_top" xlink:title=" ">
<polygon fill="white" stroke="black" points="687.5,-227.5 687.5,-246.5 751.5,-246.5 751.5,-227.5 687.5,-227.5"/>
<text text-anchor="middle" x="719.5" y="-234.5" font-family="Helvetica,sans-Serif" font-size="10.00">OSContext</text>
</a>
</g>
</g>
<!-- Node14&#45;&gt;Node10 -->
<g id="edge19" class="edge">
<title>Node14&#45;&gt;Node10</title>
<path fill="none" stroke="#9a32cd" stroke-dasharray="5,2" d="M715.29,-217.24C712.17,-207.12 706.94,-195.09 698.5,-187 686.69,-175.69 669.87,-168.85 655.25,-164.76"/>
<polygon fill="#9a32cd" stroke="#9a32cd" points="711.98,-218.41 717.91,-227.19 718.75,-216.63 711.98,-218.41"/>
<text text-anchor="middle" x="728.5" y="-195.5" font-family="Helvetica,sans-Serif" font-size="10.00"> context</text>
</g>
<!-- Node15&#45;&gt;Node2 -->
<g id="edge20" class="edge">
<title>Node15&#45;&gt;Node2</title>
<path fill="none" stroke="#9a32cd" stroke-dasharray="5,2" d="M256.38,-20.22C236.2,-24.42 217.8,-30.22 211.5,-38 204.68,-46.42 205.99,-59.55 207.94,-68.21"/>
<polygon fill="#9a32cd" stroke="#9a32cd" points="257.22,-23.63 266.38,-18.29 255.89,-16.75 257.22,-23.63"/>
<text text-anchor="middle" x="257" y="-41" font-family="Helvetica,sans-Serif" font-size="10.00"> mDecompCommand</text>
</g>
<!-- Node15&#45;&gt;Node15 -->
<g id="edge23" class="edge">
<title>Node15&#45;&gt;Node15</title>
<path fill="none" stroke="#9a32cd" stroke-dasharray="5,2" d="M392.98,-14.34C397.66,-13.34 400.5,-11.89 400.5,-10 400.5,-6.97 393.23,-5.09 382.81,-4.35"/>
<polygon fill="#9a32cd" stroke="#9a32cd" points="392.28,-10.9 382.81,-15.65 393.18,-17.84 392.28,-10.9"/>
<text text-anchor="middle" x="415.5" y="-7.5" font-family="Helvetica,sans-Serif" font-size="10.00"> mThis</text>
</g>
<!-- Node16 -->
<g id="node16" class="node">
<title>Node16</title>
<g id="a_node16"><a xlink:href="structARQRequest.html" target="_top" xlink:title=" ">
<polygon fill="white" stroke="black" points="127.5,-148.5 127.5,-167.5 201.5,-167.5 201.5,-148.5 127.5,-148.5"/>
<text text-anchor="middle" x="164.5" y="-155.5" font-family="Helvetica,sans-Serif" font-size="10.00">ARQRequest</text>
</a>
</g>
</g>
<!-- Node16&#45;&gt;Node2 -->
<g id="edge24" class="edge">
<title>Node16&#45;&gt;Node2</title>
<path fill="none" stroke="#9a32cd" stroke-dasharray="5,2" d="M161.25,-138.16C160.5,-128.27 161.15,-116.3 166.5,-107 171.47,-98.37 180.29,-91.98 188.74,-87.51"/>
<polygon fill="#9a32cd" stroke="#9a32cd" points="157.8,-138.72 162.53,-148.2 164.74,-137.84 157.8,-138.72"/>
<text text-anchor="middle" x="190" y="-115.5" font-family="Helvetica,sans-Serif" font-size="10.00"> mRequest</text>
</g>
<!-- Node16&#45;&gt;Node16 -->
<g id="edge25" class="edge">
<title>Node16&#45;&gt;Node16</title>
<path fill="none" stroke="#9a32cd" stroke-dasharray="5,2" d="M211.69,-164.15C216.46,-162.93 219.5,-160.88 219.5,-158 219.5,-153.39 211.71,-150.91 201.52,-150.55"/>
<polygon fill="#9a32cd" stroke="#9a32cd" points="210.99,-160.71 201.52,-165.45 211.88,-167.66 210.99,-160.71"/>
<text text-anchor="middle" x="230" y="-155.5" font-family="Helvetica,sans-Serif" font-size="10.00"> next</text>
</g>
</g>
</svg>
