<?xml version="1.0" encoding="UTF-8" standalone="no"?>
<!DOCTYPE svg PUBLIC "-//W3C//DTD SVG 1.1//EN"
 "http://www.w3.org/Graphics/SVG/1.1/DTD/svg11.dtd">
<!-- Generated by graphviz version 2.46.0 (20210122.1329)
 -->
<!-- Title: DVDFileInfo Pages: 1 -->
<svg width="171pt" height="175pt"
 viewBox="0.00 0.00 171.00 175.00" xmlns="http://www.w3.org/2000/svg" xmlns:xlink="http://www.w3.org/1999/xlink">
<g id="graph0" class="graph" transform="scale(1 1) rotate(0) translate(4 171)">
<title>DVDFileInfo</title>
<polygon fill="white" stroke="transparent" points="-4,4 -4,-171 167,-171 167,4 -4,4"/>
<!-- Node1 -->
<g id="node1" class="node">
<title>Node1</title>
<g id="a_node1"><a xlink:title=" ">
<polygon fill="#bfbfbf" stroke="black" points="18.5,-0.5 18.5,-19.5 87.5,-19.5 87.5,-0.5 18.5,-0.5"/>
<text text-anchor="middle" x="53" y="-7.5" font-family="Helvetica,sans-Serif" font-size="10.00">DVDFileInfo</text>
</a>
</g>
</g>
<!-- Node1&#45;&gt;Node1 -->
<g id="edge1" class="edge">
<title>Node1&#45;&gt;Node1</title>
<path fill="none" stroke="#9a32cd" stroke-dasharray="5,2" d="M97.69,-15C102.45,-14.03 105.5,-12.36 105.5,-10 105.5,-6.22 97.68,-4.22 87.59,-4.02"/>
<polygon fill="#9a32cd" stroke="#9a32cd" points="97.2,-11.53 87.59,-15.98 97.88,-18.49 97.2,-11.53"/>
<text text-anchor="middle" x="125" y="-7.5" font-family="Helvetica,sans-Serif" font-size="10.00"> callback</text>
</g>
<!-- Node2 -->
<g id="node2" class="node">
<title>Node2</title>
<g id="a_node2"><a xlink:href="structDVDCommandBlock.html" target="_top" xlink:title=" ">
<polygon fill="white" stroke="black" points="0,-74 0,-93 106,-93 106,-74 0,-74"/>
<text text-anchor="middle" x="53" y="-81" font-family="Helvetica,sans-Serif" font-size="10.00">DVDCommandBlock</text>
</a>
</g>
</g>
<!-- Node2&#45;&gt;Node1 -->
<g id="edge2" class="edge">
<title>Node2&#45;&gt;Node1</title>
<path fill="none" stroke="#9a32cd" stroke-dasharray="5,2" d="M53,-63.59C53,-49.43 53,-30.7 53,-19.84"/>
<polygon fill="#9a32cd" stroke="#9a32cd" points="49.5,-63.73 53,-73.73 56.5,-63.73 49.5,-63.73"/>
<text text-anchor="middle" x="66" y="-41" font-family="Helvetica,sans-Serif" font-size="10.00"> block</text>
</g>
<!-- Node2&#45;&gt;Node2 -->
<g id="edge4" class="edge">
<title>Node2&#45;&gt;Node2</title>
<path fill="none" stroke="#9a32cd" stroke-dasharray="5,2" d="M116.43,-89.07C121.12,-87.82 124,-85.97 124,-83.5 124,-79.55 116.63,-77.17 106.26,-76.33"/>
<polygon fill="#9a32cd" stroke="#9a32cd" points="115.6,-85.66 106.26,-90.67 116.68,-92.58 115.6,-85.66"/>
<text text-anchor="middle" x="143.5" y="-92" font-family="Helvetica,sans-Serif" font-size="10.00"> callback</text>
<text text-anchor="middle" x="143.5" y="-81" font-family="Helvetica,sans-Serif" font-size="10.00">next</text>
<text text-anchor="middle" x="143.5" y="-70" font-family="Helvetica,sans-Serif" font-size="10.00">prev</text>
</g>
<!-- Node3 -->
<g id="node3" class="node">
<title>Node3</title>
<g id="a_node3"><a xlink:href="structDVDDiskID.html" target="_top" xlink:title=" ">
<polygon fill="white" stroke="black" points="20,-147.5 20,-166.5 86,-166.5 86,-147.5 20,-147.5"/>
<text text-anchor="middle" x="53" y="-154.5" font-family="Helvetica,sans-Serif" font-size="10.00">DVDDiskID</text>
</a>
</g>
</g>
<!-- Node3&#45;&gt;Node2 -->
<g id="edge3" class="edge">
<title>Node3&#45;&gt;Node2</title>
<path fill="none" stroke="#9a32cd" stroke-dasharray="5,2" d="M53,-137.09C53,-122.93 53,-104.2 53,-93.34"/>
<polygon fill="#9a32cd" stroke="#9a32cd" points="49.5,-137.23 53,-147.23 56.5,-137.23 49.5,-137.23"/>
<text text-anchor="middle" x="70" y="-121" font-family="Helvetica,sans-Serif" font-size="10.00"> disk_id</text>
</g>
</g>
</svg>
