<?xml version="1.0" encoding="UTF-8" standalone="no"?>
<!DOCTYPE svg PUBLIC "-//W3C//DTD SVG 1.1//EN"
 "http://www.w3.org/Graphics/SVG/1.1/DTD/svg11.dtd">
<!-- Generated by graphviz version 2.46.0 (20210122.1329)
 -->
<!-- Title: JGadget::TNodeLinkList::iterator Pages: 1 -->
<svg width="182pt" height="108pt"
 viewBox="0.00 0.00 182.00 108.00" xmlns="http://www.w3.org/2000/svg" xmlns:xlink="http://www.w3.org/1999/xlink">
<g id="graph0" class="graph" transform="scale(1 1) rotate(0) translate(4 104)">
<title>JGadget::TNodeLinkList::iterator</title>
<polygon fill="white" stroke="transparent" points="-4,4 -4,-104 178,-104 178,4 -4,4"/>
<!-- Node1 -->
<g id="node1" class="node">
<title>Node1</title>
<g id="a_node1"><a xlink:title=" ">
<polygon fill="#bfbfbf" stroke="black" points="0,-0.5 0,-30.5 122,-30.5 122,-0.5 0,-0.5"/>
<text text-anchor="start" x="8" y="-18.5" font-family="Helvetica,sans-Serif" font-size="10.00">JGadget::TNodeLinkList</text>
<text text-anchor="middle" x="61" y="-7.5" font-family="Helvetica,sans-Serif" font-size="10.00">::iterator</text>
</a>
</g>
</g>
<!-- Node2 -->
<g id="node2" class="node">
<title>Node2</title>
<g id="a_node2"><a xlink:href="structJGadget_1_1TLinkListNode.html" target="_top" xlink:title=" ">
<polygon fill="white" stroke="black" points="0,-79.5 0,-98.5 122,-98.5 122,-79.5 0,-79.5"/>
<text text-anchor="middle" x="61" y="-86.5" font-family="Helvetica,sans-Serif" font-size="10.00">JGadget::TLinkListNode</text>
</a>
</g>
</g>
<!-- Node2&#45;&gt;Node1 -->
<g id="edge1" class="edge">
<title>Node2&#45;&gt;Node1</title>
<path fill="none" stroke="#9a32cd" stroke-dasharray="5,2" d="M61,-68.9C61,-56.82 61,-41.47 61,-30.51"/>
<polygon fill="#9a32cd" stroke="#9a32cd" points="57.5,-69.23 61,-79.23 64.5,-69.23 57.5,-69.23"/>
<text text-anchor="middle" x="73" y="-52" font-family="Helvetica,sans-Serif" font-size="10.00"> node</text>
</g>
<!-- Node2&#45;&gt;Node2 -->
<g id="edge2" class="edge">
<title>Node2&#45;&gt;Node2</title>
<path fill="none" stroke="#9a32cd" stroke-dasharray="5,2" d="M132.49,-93.54C137.17,-92.49 140,-90.97 140,-89 140,-85.85 132.75,-83.86 122.28,-83.05"/>
<polygon fill="#9a32cd" stroke="#9a32cd" points="131.71,-90.12 122.28,-94.95 132.66,-97.05 131.71,-90.12"/>
<text text-anchor="middle" x="157" y="-92" font-family="Helvetica,sans-Serif" font-size="10.00"> pNext_</text>
<text text-anchor="middle" x="157" y="-81" font-family="Helvetica,sans-Serif" font-size="10.00">pPrev_</text>
</g>
</g>
</svg>
