<?xml version="1.0" encoding="UTF-8" standalone="no"?>
<!DOCTYPE svg PUBLIC "-//W3C//DTD SVG 1.1//EN"
 "http://www.w3.org/Graphics/SVG/1.1/DTD/svg11.dtd">
<!-- Generated by graphviz version 2.46.0 (20210122.1329)
 -->
<!-- Title: JStudio::fvb::TObject_list_parameter Pages: 1 -->
<svg width="696pt" height="299pt"
 viewBox="0.00 0.00 696.00 298.50" xmlns="http://www.w3.org/2000/svg" xmlns:xlink="http://www.w3.org/1999/xlink">
<g id="graph0" class="graph" transform="scale(1 1) rotate(0) translate(4 294.5)">
<title>JStudio::fvb::TObject_list_parameter</title>
<polygon fill="white" stroke="transparent" points="-4,4 -4,-294.5 692,-294.5 692,4 -4,4"/>
<!-- Node1 -->
<g id="node1" class="node">
<title>Node1</title>
<g id="a_node1"><a xlink:title=" ">
<polygon fill="#bfbfbf" stroke="black" points="581,-132.5 581,-162.5 688,-162.5 688,-132.5 581,-132.5"/>
<text text-anchor="start" x="589" y="-150.5" font-family="Helvetica,sans-Serif" font-size="10.00">JStudio::fvb::TObject</text>
<text text-anchor="middle" x="634.5" y="-139.5" font-family="Helvetica,sans-Serif" font-size="10.00">_list_parameter</text>
</a>
</g>
</g>
<!-- Node2 -->
<g id="node2" class="node">
<title>Node2</title>
<g id="a_node2"><a xlink:href="structJStudio_1_1fvb_1_1TObject.html" target="_top" xlink:title=" ">
<polygon fill="white" stroke="black" points="394.5,-184 394.5,-203 501.5,-203 501.5,-184 394.5,-184"/>
<text text-anchor="middle" x="448" y="-191" font-family="Helvetica,sans-Serif" font-size="10.00">JStudio::fvb::TObject</text>
</a>
</g>
</g>
<!-- Node2&#45;&gt;Node1 -->
<g id="edge1" class="edge">
<title>Node2&#45;&gt;Node1</title>
<path fill="none" stroke="midnightblue" d="M497.13,-181.5C522.87,-175.08 554.6,-167.17 580.98,-160.59"/>
<polygon fill="midnightblue" stroke="midnightblue" points="496.08,-178.15 487.23,-183.97 497.78,-184.95 496.08,-178.15"/>
</g>
<!-- Node3 -->
<g id="node3" class="node">
<title>Node3</title>
<g id="a_node3"><a xlink:href="structJStudio_1_1object_1_1TObject__ID.html" target="_top" xlink:title=" ">
<polygon fill="white" stroke="black" points="170.5,-271 170.5,-290 304.5,-290 304.5,-271 170.5,-271"/>
<text text-anchor="middle" x="237.5" y="-278" font-family="Helvetica,sans-Serif" font-size="10.00">JStudio::object::TObject_ID</text>
</a>
</g>
</g>
<!-- Node3&#45;&gt;Node2 -->
<g id="edge2" class="edge">
<title>Node3&#45;&gt;Node2</title>
<path fill="none" stroke="midnightblue" d="M295.78,-268.37C303.01,-266.34 310.23,-264.04 317,-261.5 360.39,-245.18 407.79,-217.7 431.57,-203.17"/>
<polygon fill="midnightblue" stroke="midnightblue" points="294.73,-265.03 285.97,-270.99 296.54,-271.79 294.73,-265.03"/>
</g>
<!-- Node4 -->
<g id="node4" class="node">
<title>Node4</title>
<g id="a_node4"><a xlink:href="classJStudio_1_1object_1_1TIDData.html" target="_top" xlink:title=" ">
<polygon fill="white" stroke="black" points="0,-271 0,-290 121,-290 121,-271 0,-271"/>
<text text-anchor="middle" x="60.5" y="-278" font-family="Helvetica,sans-Serif" font-size="10.00">JStudio::object::TIDData</text>
</a>
</g>
</g>
<!-- Node4&#45;&gt;Node3 -->
<g id="edge3" class="edge">
<title>Node4&#45;&gt;Node3</title>
<path fill="none" stroke="midnightblue" d="M131.42,-280.5C144.29,-280.5 157.68,-280.5 170.43,-280.5"/>
<polygon fill="midnightblue" stroke="midnightblue" points="131.24,-277 121.24,-280.5 131.24,-284 131.24,-277"/>
</g>
<!-- Node5 -->
<g id="node5" class="node">
<title>Node5</title>
<g id="a_node5"><a xlink:href="structJGadget_1_1TLinkListNode.html" target="_top" xlink:title=" ">
<polygon fill="white" stroke="black" points="176.5,-193 176.5,-212 298.5,-212 298.5,-193 176.5,-193"/>
<text text-anchor="middle" x="237.5" y="-200" font-family="Helvetica,sans-Serif" font-size="10.00">JGadget::TLinkListNode</text>
</a>
</g>
</g>
<!-- Node5&#45;&gt;Node2 -->
<g id="edge4" class="edge">
<title>Node5&#45;&gt;Node2</title>
<path fill="none" stroke="#9a32cd" stroke-dasharray="5,2" d="M308.68,-199.47C336.73,-198.26 368.48,-196.89 394.48,-195.77"/>
<polygon fill="#9a32cd" stroke="#9a32cd" points="308.37,-195.98 298.53,-199.91 308.67,-202.97 308.37,-195.98"/>
<text text-anchor="middle" x="352" y="-200.5" font-family="Helvetica,sans-Serif" font-size="10.00"> mNode</text>
</g>
<!-- Node5&#45;&gt;Node5 -->
<g id="edge5" class="edge">
<title>Node5&#45;&gt;Node5</title>
<path fill="none" stroke="#9a32cd" stroke-dasharray="5,2" d="M219.35,-221.9C220.56,-226.81 226.61,-230.5 237.5,-230.5 254.92,-230.5 259.95,-221.07 252.6,-212.26"/>
<polygon fill="#9a32cd" stroke="#9a32cd" points="222.72,-222.85 222.4,-212.26 216.05,-220.74 222.72,-222.85"/>
<text text-anchor="middle" x="237.5" y="-244.5" font-family="Helvetica,sans-Serif" font-size="10.00"> pNext_</text>
<text text-anchor="middle" x="237.5" y="-233.5" font-family="Helvetica,sans-Serif" font-size="10.00">pPrev_</text>
</g>
<!-- Node6 -->
<g id="node6" class="node">
<title>Node6</title>
<g id="a_node6"><a xlink:href="structJStudio_1_1TFunctionValue.html" target="_top" xlink:title=" ">
<polygon fill="white" stroke="black" points="176.5,-153 176.5,-172 298.5,-172 298.5,-153 176.5,-153"/>
<text text-anchor="middle" x="237.5" y="-160" font-family="Helvetica,sans-Serif" font-size="10.00">JStudio::TFunctionValue</text>
</a>
</g>
</g>
<!-- Node6&#45;&gt;Node2 -->
<g id="edge6" class="edge">
<title>Node6&#45;&gt;Node2</title>
<path fill="none" stroke="#9a32cd" stroke-dasharray="5,2" d="M308.66,-172.61C328.2,-175.45 349.43,-178.57 369,-181.5 377.13,-182.72 385.73,-184.02 394.14,-185.31"/>
<polygon fill="#9a32cd" stroke="#9a32cd" points="309.01,-169.12 298.61,-171.15 308,-176.05 309.01,-169.12"/>
<text text-anchor="middle" x="352" y="-184.5" font-family="Helvetica,sans-Serif" font-size="10.00"> pfv_</text>
</g>
<!-- Node7 -->
<g id="node7" class="node">
<title>Node7</title>
<g id="a_node7"><a xlink:href="structJStudio_1_1TFunctionValue__list__parameter.html" target="_top" xlink:title=" ">
<polygon fill="white" stroke="black" points="387,-96.5 387,-126.5 509,-126.5 509,-96.5 387,-96.5"/>
<text text-anchor="start" x="395" y="-114.5" font-family="Helvetica,sans-Serif" font-size="10.00">JStudio::TFunctionValue</text>
<text text-anchor="middle" x="448" y="-103.5" font-family="Helvetica,sans-Serif" font-size="10.00">_list_parameter</text>
</a>
</g>
</g>
<!-- Node6&#45;&gt;Node7 -->
<g id="edge8" class="edge">
<title>Node6&#45;&gt;Node7</title>
<path fill="none" stroke="midnightblue" d="M287.81,-150.44C317.4,-143.2 355.26,-133.94 386.63,-126.27"/>
<polygon fill="midnightblue" stroke="midnightblue" points="286.6,-147.13 277.72,-152.91 288.26,-153.93 286.6,-147.13"/>
</g>
<!-- Node7&#45;&gt;Node1 -->
<g id="edge7" class="edge">
<title>Node7&#45;&gt;Node1</title>
<path fill="none" stroke="#9a32cd" stroke-dasharray="5,2" d="M519.08,-125.17C539.59,-129.18 561.65,-133.48 580.87,-137.23"/>
<polygon fill="#9a32cd" stroke="#9a32cd" points="519.64,-121.72 509.16,-123.24 518.3,-128.59 519.64,-121.72"/>
<text text-anchor="middle" x="545" y="-135.5" font-family="Helvetica,sans-Serif" font-size="10.00"> fnValue</text>
</g>
<!-- Node7&#45;&gt;Node7 -->
<g id="edge11" class="edge">
<title>Node7&#45;&gt;Node7</title>
<path fill="none" stroke="#9a32cd" stroke-dasharray="5,2" d="M430.94,-136.96C433.06,-141.68 438.75,-145 448,-145 463.19,-145 468.76,-136.06 464.73,-126.66"/>
<polygon fill="#9a32cd" stroke="#9a32cd" points="434.45,-136.77 431.27,-126.66 427.45,-136.54 434.45,-136.77"/>
<text text-anchor="middle" x="448" y="-148" font-family="Helvetica,sans-Serif" font-size="10.00"> _58</text>
</g>
<!-- Node8 -->
<g id="node8" class="node">
<title>Node8</title>
<g id="a_node8"><a xlink:href="structJStudio_1_1TFunctionValueAttribute__range.html" target="_top" xlink:title=" ">
<polygon fill="white" stroke="black" points="158,-98.5 158,-128.5 317,-128.5 317,-98.5 158,-98.5"/>
<text text-anchor="start" x="166" y="-116.5" font-family="Helvetica,sans-Serif" font-size="10.00">JStudio::TFunctionValueAttribute</text>
<text text-anchor="middle" x="237.5" y="-105.5" font-family="Helvetica,sans-Serif" font-size="10.00">_range</text>
</a>
</g>
</g>
<!-- Node8&#45;&gt;Node7 -->
<g id="edge9" class="edge">
<title>Node8&#45;&gt;Node7</title>
<path fill="none" stroke="midnightblue" d="M327.14,-112.65C347.24,-112.46 368.14,-112.26 386.75,-112.08"/>
<polygon fill="midnightblue" stroke="midnightblue" points="326.99,-109.15 317.03,-112.75 327.06,-116.15 326.99,-109.15"/>
</g>
<!-- Node9 -->
<g id="node9" class="node">
<title>Node9</title>
<g id="a_node9"><a xlink:href="structJStudio_1_1TFunctionValueAttribute__interpolate.html" target="_top" xlink:title=" ">
<polygon fill="white" stroke="black" points="158,-49.5 158,-79.5 317,-79.5 317,-49.5 158,-49.5"/>
<text text-anchor="start" x="166" y="-67.5" font-family="Helvetica,sans-Serif" font-size="10.00">JStudio::TFunctionValueAttribute</text>
<text text-anchor="middle" x="237.5" y="-56.5" font-family="Helvetica,sans-Serif" font-size="10.00">_interpolate</text>
</a>
</g>
</g>
<!-- Node9&#45;&gt;Node7 -->
<g id="edge10" class="edge">
<title>Node9&#45;&gt;Node7</title>
<path fill="none" stroke="midnightblue" d="M315.03,-81.75C338.67,-87.08 364.36,-92.87 386.73,-97.91"/>
<polygon fill="midnightblue" stroke="midnightblue" points="315.57,-78.29 305.04,-79.5 314.03,-85.11 315.57,-78.29"/>
</g>
<!-- Node10 -->
<g id="node10" class="node">
<title>Node10</title>
<g id="a_node10"><a xlink:href="structJStudio_1_1TFunctionValue__list__parameter_1_1TIterator__data__.html" target="_top" xlink:title=" ">
<polygon fill="white" stroke="black" points="160.5,-0.5 160.5,-30.5 314.5,-30.5 314.5,-0.5 160.5,-0.5"/>
<text text-anchor="start" x="168.5" y="-18.5" font-family="Helvetica,sans-Serif" font-size="10.00">JStudio::TFunctionValue</text>
<text text-anchor="middle" x="237.5" y="-7.5" font-family="Helvetica,sans-Serif" font-size="10.00">_list_parameter::TIterator_data_</text>
</a>
</g>
</g>
<!-- Node10&#45;&gt;Node7 -->
<g id="edge12" class="edge">
<title>Node10&#45;&gt;Node7</title>
<path fill="none" stroke="#9a32cd" stroke-dasharray="5,2" d="M324.58,-32.47C339.79,-36.98 355.17,-42.59 369,-49.5 393.3,-61.64 417.13,-82.21 431.93,-96.3"/>
<polygon fill="#9a32cd" stroke="#9a32cd" points="325.21,-29.01 314.63,-29.65 323.3,-35.74 325.21,-29.01"/>
<text text-anchor="middle" x="352" y="-74.5" font-family="Helvetica,sans-Serif" font-size="10.00"> dat1</text>
<text text-anchor="middle" x="352" y="-63.5" font-family="Helvetica,sans-Serif" font-size="10.00">dat2</text>
<text text-anchor="middle" x="352" y="-52.5" font-family="Helvetica,sans-Serif" font-size="10.00">dat3</text>
</g>
</g>
</svg>
