<?xml version="1.0" encoding="UTF-8" standalone="no"?>
<!DOCTYPE svg PUBLIC "-//W3C//DTD SVG 1.1//EN"
 "http://www.w3.org/Graphics/SVG/1.1/DTD/svg11.dtd">
<!-- Generated by graphviz version 2.46.1 (20210215.1649)
 -->
<!-- Title: layer_class Pages: 1 -->
<svg width="1380pt" height="610pt"
 viewBox="0.00 0.00 1380.00 610.00" xmlns="http://www.w3.org/2000/svg" xmlns:xlink="http://www.w3.org/1999/xlink">
<g id="graph0" class="graph" transform="scale(1 1) rotate(0) translate(4 606)">
<title>layer_class</title>
<polygon fill="white" stroke="transparent" points="-4,4 -4,-606 1376,-606 1376,4 -4,4"/>
<!-- Node1 -->
<g id="node1" class="node">
<title>Node1</title>
<g id="a_node1"><a xlink:title=" ">
<polygon fill="#bfbfbf" stroke="black" points="553,-201.5 553,-220.5 618,-220.5 618,-201.5 553,-201.5"/>
<text text-anchor="middle" x="585.5" y="-208.5" font-family="Helvetica,sans-Serif" font-size="10.00">layer_class</text>
</a>
</g>
</g>
<!-- Node2 -->
<g id="node2" class="node">
<title>Node2</title>
<g id="a_node2"><a xlink:href="structprocess__node__class.html" target="_top" xlink:title=" ">
<polygon fill="white" stroke="black" points="1266,-75.5 1266,-94.5 1372,-94.5 1372,-75.5 1266,-75.5"/>
<text text-anchor="middle" x="1319" y="-82.5" font-family="Helvetica,sans-Serif" font-size="10.00">process_node_class</text>
</a>
</g>
</g>
<!-- Node1&#45;&gt;Node2 -->
<g id="edge28" class="edge">
<title>Node1&#45;&gt;Node2</title>
<path fill="none" stroke="#9a32cd" stroke-dasharray="5,2" d="M603.9,-193.96C617.84,-180.06 637.7,-159.75 654,-141 662.52,-131.2 660.8,-124.55 672,-118 771.96,-59.52 1130.17,-73.85 1265.62,-81.63"/>
<polygon fill="#9a32cd" stroke="#9a32cd" points="601.09,-191.81 596.44,-201.33 606.01,-196.79 601.09,-191.81"/>
<text text-anchor="middle" x="975.5" y="-79" font-family="Helvetica,sans-Serif" font-size="10.00"> mLayer</text>
</g>
<!-- Node12 -->
<g id="node12" class="node">
<title>Node12</title>
<g id="a_node12"><a xlink:href="structlayer__management__tag__class.html" target="_top" xlink:title=" ">
<polygon fill="white" stroke="black" points="774,-359 774,-389 891,-389 891,-359 774,-359"/>
<text text-anchor="start" x="782" y="-377" font-family="Helvetica,sans-Serif" font-size="10.00">layer_management_tag</text>
<text text-anchor="middle" x="832.5" y="-366" font-family="Helvetica,sans-Serif" font-size="10.00">_class</text>
</a>
</g>
</g>
<!-- Node1&#45;&gt;Node12 -->
<g id="edge16" class="edge">
<title>Node1&#45;&gt;Node12</title>
<path fill="none" stroke="#9a32cd" stroke-dasharray="5,2" d="M598.13,-229.13C612.95,-250.96 640.44,-287.47 672,-310 703.33,-332.36 743.58,-348.44 775.81,-358.89"/>
<polygon fill="#9a32cd" stroke="#9a32cd" points="600.86,-226.91 592.42,-220.5 595.02,-230.77 600.86,-226.91"/>
<text text-anchor="middle" x="712" y="-353" font-family="Helvetica,sans-Serif" font-size="10.00"> mpLayer</text>
</g>
<!-- Node13 -->
<g id="node13" class="node">
<title>Node13</title>
<g id="a_node13"><a xlink:href="structcreate__request.html" target="_top" xlink:title=" ">
<polygon fill="white" stroke="black" points="1278.5,-448.5 1278.5,-467.5 1359.5,-467.5 1359.5,-448.5 1278.5,-448.5"/>
<text text-anchor="middle" x="1319" y="-455.5" font-family="Helvetica,sans-Serif" font-size="10.00">create_request</text>
</a>
</g>
</g>
<!-- Node1&#45;&gt;Node13 -->
<g id="edge22" class="edge">
<title>Node1&#45;&gt;Node13</title>
<path fill="none" stroke="#9a32cd" stroke-dasharray="5,2" d="M628.19,-212.18C726.76,-216.21 980.49,-233.89 1175,-311 1210,-324.88 1220.59,-328.19 1248,-354 1279.06,-383.24 1303.59,-428.67 1313.38,-448.36"/>
<polygon fill="#9a32cd" stroke="#9a32cd" points="628.17,-208.68 618.04,-211.79 627.9,-215.67 628.17,-208.68"/>
<text text-anchor="middle" x="975.5" y="-270" font-family="Helvetica,sans-Serif" font-size="10.00"> mpLayer</text>
</g>
<!-- Node16 -->
<g id="node16" class="node">
<title>Node16</title>
<g id="a_node16"><a xlink:href="structdelete__tag__class.html" target="_top" xlink:title=" ">
<polygon fill="white" stroke="black" points="787.5,-320.5 787.5,-339.5 877.5,-339.5 877.5,-320.5 787.5,-320.5"/>
<text text-anchor="middle" x="832.5" y="-327.5" font-family="Helvetica,sans-Serif" font-size="10.00">delete_tag_class</text>
</a>
</g>
</g>
<!-- Node1&#45;&gt;Node16 -->
<g id="edge27" class="edge">
<title>Node1&#45;&gt;Node16</title>
<path fill="none" stroke="#9a32cd" stroke-dasharray="5,2" d="M605.15,-227.17C621.72,-240.81 647.11,-259.98 672,-272 705.32,-288.09 718.13,-280.11 752,-295 760.58,-298.77 761.6,-301.84 770,-306 780.88,-311.4 793.3,-316.44 804.11,-320.5"/>
<polygon fill="#9a32cd" stroke="#9a32cd" points="607.24,-224.36 597.34,-220.61 602.74,-229.72 607.24,-224.36"/>
<text text-anchor="middle" x="712" y="-298" font-family="Helvetica,sans-Serif" font-size="10.00"> mpLayer</text>
</g>
<!-- Node2&#45;&gt;Node1 -->
<g id="edge1" class="edge">
<title>Node2&#45;&gt;Node1</title>
<path fill="none" stroke="#9a32cd" stroke-dasharray="5,2" d="M1277.35,-97.49C1223.22,-113.69 1124.27,-141.77 1038,-158 881.9,-187.36 692.2,-203.31 618.2,-208.79"/>
<polygon fill="#9a32cd" stroke="#9a32cd" points="1278.67,-100.75 1287.24,-94.51 1276.66,-94.04 1278.67,-100.75"/>
<text text-anchor="middle" x="975.5" y="-180" font-family="Helvetica,sans-Serif" font-size="10.00"> mpPcNode</text>
</g>
<!-- Node3 -->
<g id="node3" class="node">
<title>Node3</title>
<g id="a_node3"><a xlink:href="structbase__process__class.html" target="_top" xlink:title=" ">
<polygon fill="white" stroke="black" points="1062.5,-320.5 1062.5,-339.5 1168.5,-339.5 1168.5,-320.5 1062.5,-320.5"/>
<text text-anchor="middle" x="1115.5" y="-327.5" font-family="Helvetica,sans-Serif" font-size="10.00">base_process_class</text>
</a>
</g>
</g>
<!-- Node3&#45;&gt;Node2 -->
<g id="edge2" class="edge">
<title>Node3&#45;&gt;Node2</title>
<path fill="none" stroke="#9a32cd" stroke-dasharray="5,2" d="M1138,-314.16C1165.82,-292.92 1214.65,-252.99 1248,-211 1279.13,-171.81 1304.34,-116.95 1313.88,-94.82"/>
<polygon fill="#9a32cd" stroke="#9a32cd" points="1135.63,-311.57 1129.76,-320.38 1139.85,-317.15 1135.63,-311.57"/>
<text text-anchor="middle" x="1220.5" y="-270" font-family="Helvetica,sans-Serif" font-size="10.00"> mBase</text>
</g>
<!-- Node3&#45;&gt;Node13 -->
<g id="edge20" class="edge">
<title>Node3&#45;&gt;Node13</title>
<path fill="none" stroke="#9a32cd" stroke-dasharray="5,2" d="M1133.09,-346.87C1147.91,-361.34 1170.67,-382.16 1193,-397 1225.78,-418.79 1267.49,-437.56 1293.47,-448.32"/>
<polygon fill="#9a32cd" stroke="#9a32cd" points="1135.29,-344.12 1125.73,-339.56 1130.36,-349.09 1135.29,-344.12"/>
<text text-anchor="middle" x="1220.5" y="-429" font-family="Helvetica,sans-Serif" font-size="10.00"> mpRes</text>
</g>
<!-- Node4 -->
<g id="node4" class="node">
<title>Node4</title>
<g id="a_node4"><a xlink:href="structprocess__priority__class.html" target="_top" xlink:title=" ">
<polygon fill="white" stroke="black" points="776,-428.5 776,-447.5 889,-447.5 889,-428.5 776,-428.5"/>
<text text-anchor="middle" x="832.5" y="-435.5" font-family="Helvetica,sans-Serif" font-size="10.00">process_priority_class</text>
</a>
</g>
</g>
<!-- Node4&#45;&gt;Node3 -->
<g id="edge3" class="edge">
<title>Node4&#45;&gt;Node3</title>
<path fill="none" stroke="#9a32cd" stroke-dasharray="5,2" d="M888.81,-426.14C930.81,-416.11 989.43,-399.86 1038,-378 1061.73,-367.32 1086.85,-350.31 1101.58,-339.67"/>
<polygon fill="#9a32cd" stroke="#9a32cd" points="887.98,-422.74 879.05,-428.44 889.58,-429.56 887.98,-422.74"/>
<text text-anchor="middle" x="975.5" y="-423" font-family="Helvetica,sans-Serif" font-size="10.00"> mPi</text>
</g>
<!-- Node5 -->
<g id="node5" class="node">
<title>Node5</title>
<g id="a_node5"><a xlink:href="structprocess__priority__queue__info.html" target="_top" xlink:title=" ">
<polygon fill="white" stroke="black" points="517,-399.5 517,-418.5 654,-418.5 654,-399.5 517,-399.5"/>
<text text-anchor="middle" x="585.5" y="-406.5" font-family="Helvetica,sans-Serif" font-size="10.00">process_priority_queue_info</text>
</a>
</g>
</g>
<!-- Node5&#45;&gt;Node4 -->
<g id="edge4" class="edge">
<title>Node5&#45;&gt;Node4</title>
<path fill="none" stroke="#9a32cd" stroke-dasharray="5,2" d="M664.22,-406.4C692.07,-406.65 723.59,-408.29 752,-413 770.98,-416.15 791.7,-422.77 807.22,-428.41"/>
<polygon fill="#9a32cd" stroke="#9a32cd" points="664.15,-402.9 654.14,-406.37 664.13,-409.9 664.15,-402.9"/>
<text text-anchor="middle" x="712" y="-427" font-family="Helvetica,sans-Serif" font-size="10.00"> mInfoCurr</text>
<text text-anchor="middle" x="712" y="-416" font-family="Helvetica,sans-Serif" font-size="10.00">mInfoQ</text>
</g>
<!-- Node6 -->
<g id="node6" class="node">
<title>Node6</title>
<g id="a_node6"><a xlink:href="structcreate__tag__class.html" target="_top" xlink:title=" ">
<polygon fill="white" stroke="black" points="310,-360.5 310,-379.5 401,-379.5 401,-360.5 310,-360.5"/>
<text text-anchor="middle" x="355.5" y="-367.5" font-family="Helvetica,sans-Serif" font-size="10.00">create_tag_class</text>
</a>
</g>
</g>
<!-- Node6&#45;&gt;Node4 -->
<g id="edge5" class="edge">
<title>Node6&#45;&gt;Node4</title>
<path fill="none" stroke="#9a32cd" stroke-dasharray="5,2" d="M386.24,-383.83C417.88,-397.8 469.8,-418.63 517,-428 606.22,-445.71 712.42,-444.61 775.77,-441.68"/>
<polygon fill="#9a32cd" stroke="#9a32cd" points="387.26,-380.45 376.71,-379.55 384.4,-386.84 387.26,-380.45"/>
<text text-anchor="middle" x="585.5" y="-445" font-family="Helvetica,sans-Serif" font-size="10.00"> mBase</text>
</g>
<!-- Node8 -->
<g id="node8" class="node">
<title>Node8</title>
<g id="a_node8"><a xlink:href="structprocess__method__tag__class.html" target="_top" xlink:title=" ">
<polygon fill="white" stroke="black" points="532,-485 532,-515 639,-515 639,-485 532,-485"/>
<text text-anchor="start" x="540" y="-503" font-family="Helvetica,sans-Serif" font-size="10.00">process_method_tag</text>
<text text-anchor="middle" x="585.5" y="-492" font-family="Helvetica,sans-Serif" font-size="10.00">_class</text>
</a>
</g>
</g>
<!-- Node6&#45;&gt;Node8 -->
<g id="edge9" class="edge">
<title>Node6&#45;&gt;Node8</title>
<path fill="none" stroke="#9a32cd" stroke-dasharray="5,2" d="M365.04,-389.08C376.3,-411.89 398.32,-449.43 429,-469 459.64,-488.54 500.02,-496.17 531.96,-498.98"/>
<polygon fill="#9a32cd" stroke="#9a32cd" points="368.08,-387.3 360.64,-379.76 361.75,-390.29 368.08,-387.3"/>
<text text-anchor="middle" x="464" y="-497" font-family="Helvetica,sans-Serif" font-size="10.00"> mCreateTag</text>
</g>
<!-- Node9 -->
<g id="node9" class="node">
<title>Node9</title>
<g id="a_node9"><a xlink:href="structline__tag.html" target="_top" xlink:title=" ">
<polygon fill="white" stroke="black" points="687,-251.5 687,-270.5 737,-270.5 737,-251.5 687,-251.5"/>
<text text-anchor="middle" x="712" y="-258.5" font-family="Helvetica,sans-Serif" font-size="10.00">line_tag</text>
</a>
</g>
</g>
<!-- Node6&#45;&gt;Node9 -->
<g id="edge11" class="edge">
<title>Node6&#45;&gt;Node9</title>
<path fill="none" stroke="#9a32cd" stroke-dasharray="5,2" d="M368.27,-352.02C380.96,-334.28 402.9,-307.97 429,-295 516,-251.77 636.09,-254.94 686.83,-258.7"/>
<polygon fill="#9a32cd" stroke="#9a32cd" points="365.28,-350.18 362.5,-360.41 371.05,-354.15 365.28,-350.18"/>
<text text-anchor="middle" x="464" y="-298" font-family="Helvetica,sans-Serif" font-size="10.00"> mBase</text>
</g>
<!-- Node6&#45;&gt;Node12 -->
<g id="edge15" class="edge">
<title>Node6&#45;&gt;Node12</title>
<path fill="none" stroke="#9a32cd" stroke-dasharray="5,2" d="M411.23,-370.46C501.66,-371.22 681.42,-372.74 773.78,-373.51"/>
<polygon fill="#9a32cd" stroke="#9a32cd" points="411.22,-366.96 401.19,-370.38 411.16,-373.96 411.22,-366.96"/>
<text text-anchor="middle" x="585.5" y="-375" font-family="Helvetica,sans-Serif" font-size="10.00"> mCreateTag</text>
</g>
<!-- Node15 -->
<g id="node15" class="node">
<title>Node15</title>
<g id="a_node15"><a xlink:href="structcreate__tag.html" target="_top" xlink:title=" ">
<polygon fill="white" stroke="black" points="944.5,-570.5 944.5,-589.5 1006.5,-589.5 1006.5,-570.5 944.5,-570.5"/>
<text text-anchor="middle" x="975.5" y="-577.5" font-family="Helvetica,sans-Serif" font-size="10.00">create_tag</text>
</a>
</g>
</g>
<!-- Node6&#45;&gt;Node15 -->
<g id="edge24" class="edge">
<title>Node6&#45;&gt;Node15</title>
<path fill="none" stroke="#9a32cd" stroke-dasharray="5,2" d="M360.86,-389.57C368.79,-420.25 388.6,-479.24 429,-509 590.85,-628.24 855.36,-599.39 944.27,-585.37"/>
<polygon fill="#9a32cd" stroke="#9a32cd" points="364.22,-388.55 358.47,-379.66 357.41,-390.2 364.22,-388.55"/>
<text text-anchor="middle" x="585.5" y="-594" font-family="Helvetica,sans-Serif" font-size="10.00"> mBase</text>
</g>
<!-- Node6&#45;&gt;Node16 -->
<g id="edge26" class="edge">
<title>Node6&#45;&gt;Node16</title>
<path fill="none" stroke="#9a32cd" stroke-dasharray="5,2" d="M411.13,-362.28C473.93,-353.75 580.18,-340.38 672,-334 710.96,-331.29 755.39,-330.36 787.45,-330.06"/>
<polygon fill="#9a32cd" stroke="#9a32cd" points="410.49,-358.83 401.06,-363.66 411.44,-365.77 410.49,-358.83"/>
<text text-anchor="middle" x="585.5" y="-351" font-family="Helvetica,sans-Serif" font-size="10.00"> mBase</text>
</g>
<!-- Node7 -->
<g id="node7" class="node">
<title>Node7</title>
<g id="a_node7"><a xlink:href="structnode__class.html" target="_top" xlink:title=" ">
<polygon fill="white" stroke="black" points="0,-231.5 0,-250.5 66,-250.5 66,-231.5 0,-231.5"/>
<text text-anchor="middle" x="33" y="-238.5" font-family="Helvetica,sans-Serif" font-size="10.00">node_class</text>
</a>
</g>
</g>
<!-- Node7&#45;&gt;Node1 -->
<g id="edge36" class="edge">
<title>Node7&#45;&gt;Node1</title>
<path fill="none" stroke="#9a32cd" stroke-dasharray="5,2" d="M76.34,-240.5C158.15,-239.27 343.59,-235.15 499,-222 516.9,-220.49 536.8,-217.97 552.9,-215.73"/>
<polygon fill="#9a32cd" stroke="#9a32cd" points="76.14,-237.01 66.19,-240.65 76.24,-244 76.14,-237.01"/>
<text text-anchor="middle" x="263" y="-239" font-family="Helvetica,sans-Serif" font-size="10.00"> mNode</text>
</g>
<!-- Node7&#45;&gt;Node6 -->
<g id="edge6" class="edge">
<title>Node7&#45;&gt;Node6</title>
<path fill="none" stroke="#9a32cd" stroke-dasharray="5,2" d="M67.17,-254.35C131.96,-280.43 273.92,-337.57 330.52,-360.35"/>
<polygon fill="#9a32cd" stroke="#9a32cd" points="68.41,-251.08 57.83,-250.59 65.8,-257.57 68.41,-251.08"/>
<text text-anchor="middle" x="184" y="-319" font-family="Helvetica,sans-Serif" font-size="10.00"> mpNode</text>
</g>
<!-- Node7&#45;&gt;Node7 -->
<g id="edge7" class="edge">
<title>Node7&#45;&gt;Node7</title>
<path fill="none" stroke="#9a32cd" stroke-dasharray="5,2" d="M20.11,-260.77C21.12,-265.5 25.42,-269 33,-269 45.44,-269 49.04,-259.57 43.79,-250.76"/>
<polygon fill="#9a32cd" stroke="#9a32cd" points="23.58,-261.26 22.21,-250.76 16.73,-259.82 23.58,-261.26"/>
<text text-anchor="middle" x="33" y="-283" font-family="Helvetica,sans-Serif" font-size="10.00"> mpNextNode</text>
<text text-anchor="middle" x="33" y="-272" font-family="Helvetica,sans-Serif" font-size="10.00">mpPrevNode</text>
</g>
<!-- Node17 -->
<g id="node17" class="node">
<title>Node17</title>
<g id="a_node17"><a xlink:href="structnode__list__class.html" target="_top" xlink:title=" ">
<polygon fill="white" stroke="black" points="142,-172.5 142,-191.5 226,-191.5 226,-172.5 142,-172.5"/>
<text text-anchor="middle" x="184" y="-179.5" font-family="Helvetica,sans-Serif" font-size="10.00">node_list_class</text>
</a>
</g>
</g>
<!-- Node7&#45;&gt;Node17 -->
<g id="edge30" class="edge">
<title>Node7&#45;&gt;Node17</title>
<path fill="none" stroke="#9a32cd" stroke-dasharray="5,2" d="M52.56,-224.93C61.54,-217.89 72.78,-210.09 84,-205 102.16,-196.76 123.57,-191.31 141.83,-187.8"/>
<polygon fill="#9a32cd" stroke="#9a32cd" points="50.25,-222.29 44.72,-231.33 54.68,-227.72 50.25,-222.29"/>
<text text-anchor="middle" x="104" y="-219" font-family="Helvetica,sans-Serif" font-size="10.00"> mpHead</text>
<text text-anchor="middle" x="104" y="-208" font-family="Helvetica,sans-Serif" font-size="10.00">mpTail</text>
</g>
<!-- Node8&#45;&gt;Node4 -->
<g id="edge8" class="edge">
<title>Node8&#45;&gt;Node4</title>
<path fill="none" stroke="#9a32cd" stroke-dasharray="5,2" d="M648.97,-485.41C680.01,-478.03 718.05,-468.8 752,-460 767.11,-456.08 783.77,-451.51 797.91,-447.56"/>
<polygon fill="#9a32cd" stroke="#9a32cd" points="648.08,-482.03 639.16,-487.74 649.7,-488.84 648.08,-482.03"/>
<text text-anchor="middle" x="712" y="-482" font-family="Helvetica,sans-Serif" font-size="10.00"> mMtdTag</text>
</g>
<!-- Node8&#45;&gt;Node13 -->
<g id="edge21" class="edge">
<title>Node8&#45;&gt;Node13</title>
<path fill="none" stroke="#9a32cd" stroke-dasharray="5,2" d="M649.27,-498.13C680.21,-497.1 718.07,-495.69 752,-494 949.66,-484.13 1185.86,-467.57 1278.22,-460.9"/>
<polygon fill="#9a32cd" stroke="#9a32cd" points="648.94,-494.64 639.06,-498.46 649.17,-501.63 648.94,-494.64"/>
<text text-anchor="middle" x="975.5" y="-488" font-family="Helvetica,sans-Serif" font-size="10.00"> mMtdTg</text>
</g>
<!-- Node9&#45;&gt;Node3 -->
<g id="edge10" class="edge">
<title>Node9&#45;&gt;Node3</title>
<path fill="none" stroke="#9a32cd" stroke-dasharray="5,2" d="M747.31,-266.9C817.71,-278.99 978.83,-306.69 1062.27,-321.02"/>
<polygon fill="#9a32cd" stroke="#9a32cd" points="747.66,-263.41 737.21,-265.16 746.47,-270.3 747.66,-263.41"/>
<text text-anchor="middle" x="832.5" y="-294" font-family="Helvetica,sans-Serif" font-size="10.00"> mLnTg</text>
</g>
<!-- Node10 -->
<g id="node10" class="node">
<title>Node10</title>
<g id="a_node10"><a xlink:href="structprocess__profile__definition.html" target="_top" xlink:title=" ">
<polygon fill="white" stroke="black" points="770,-112.5 770,-131.5 895,-131.5 895,-112.5 770,-112.5"/>
<text text-anchor="middle" x="832.5" y="-119.5" font-family="Helvetica,sans-Serif" font-size="10.00">process_profile_definition</text>
</a>
</g>
</g>
<!-- Node10&#45;&gt;Node3 -->
<g id="edge12" class="edge">
<title>Node10&#45;&gt;Node3</title>
<path fill="none" stroke="#9a32cd" stroke-dasharray="5,2" d="M905.38,-112.1C947.9,-110.15 1000.57,-114.99 1038,-143 1098.1,-187.97 1111.18,-288.43 1113.85,-320.18"/>
<polygon fill="#9a32cd" stroke="#9a32cd" points="905.14,-108.6 895.37,-112.69 905.56,-115.59 905.14,-108.6"/>
<text text-anchor="middle" x="975.5" y="-146" font-family="Helvetica,sans-Serif" font-size="10.00"> mpProf</text>
</g>
<!-- Node11 -->
<g id="node11" class="node">
<title>Node11</title>
<g id="a_node11"><a xlink:href="structprocess__method__class.html" target="_top" xlink:title=" ">
<polygon fill="white" stroke="black" points="527,-112.5 527,-131.5 644,-131.5 644,-112.5 527,-112.5"/>
<text text-anchor="middle" x="585.5" y="-119.5" font-family="Helvetica,sans-Serif" font-size="10.00">process_method_class</text>
</a>
</g>
</g>
<!-- Node11&#45;&gt;Node3 -->
<g id="edge17" class="edge">
<title>Node11&#45;&gt;Node3</title>
<path fill="none" stroke="#9a32cd" stroke-dasharray="5,2" d="M648.99,-133.29C656.73,-134.59 664.54,-135.86 672,-137 712.54,-143.21 1004.33,-161.58 1038,-185 1086.6,-218.81 1106.73,-293.4 1112.57,-320.18"/>
<polygon fill="#9a32cd" stroke="#9a32cd" points="649.34,-129.79 638.89,-131.56 648.16,-136.69 649.34,-129.79"/>
<text text-anchor="middle" x="832.5" y="-160" font-family="Helvetica,sans-Serif" font-size="10.00"> mpPcMtd</text>
</g>
<!-- Node11&#45;&gt;Node10 -->
<g id="edge13" class="edge">
<title>Node11&#45;&gt;Node10</title>
<path fill="none" stroke="#9a32cd" stroke-dasharray="5,2" d="M654.7,-122C690.8,-122 734.78,-122 769.85,-122"/>
<polygon fill="#9a32cd" stroke="#9a32cd" points="654.25,-118.5 644.25,-122 654.25,-125.5 654.25,-118.5"/>
<text text-anchor="middle" x="712" y="-125" font-family="Helvetica,sans-Serif" font-size="10.00"> mpPcMtd</text>
</g>
<!-- Node18 -->
<g id="node18" class="node">
<title>Node18</title>
<g id="a_node18"><a xlink:href="structnodedraw__method__class.html" target="_top" xlink:title=" ">
<polygon fill="white" stroke="black" points="913,-36.5 913,-55.5 1038,-55.5 1038,-36.5 913,-36.5"/>
<text text-anchor="middle" x="975.5" y="-43.5" font-family="Helvetica,sans-Serif" font-size="10.00">nodedraw_method_class</text>
</a>
</g>
</g>
<!-- Node11&#45;&gt;Node18 -->
<g id="edge32" class="edge">
<title>Node11&#45;&gt;Node18</title>
<path fill="none" stroke="#9a32cd" stroke-dasharray="5,2" d="M603.34,-104.75C619.39,-89.59 645.05,-68.5 672,-59 751.57,-30.94 850.27,-32.96 912.84,-38.36"/>
<polygon fill="#9a32cd" stroke="#9a32cd" points="600.58,-102.56 595.87,-112.05 605.47,-107.57 600.58,-102.56"/>
<text text-anchor="middle" x="712" y="-62" font-family="Helvetica,sans-Serif" font-size="10.00"> mBase</text>
</g>
<!-- Node12&#45;&gt;Node3 -->
<g id="edge14" class="edge">
<title>Node12&#45;&gt;Node3</title>
<path fill="none" stroke="#9a32cd" stroke-dasharray="5,2" d="M901.5,-365.27C941.35,-359.93 992.62,-352.66 1038,-345 1047.74,-343.36 1058.15,-341.43 1068.05,-339.52"/>
<polygon fill="#9a32cd" stroke="#9a32cd" points="900.81,-361.83 891.36,-366.62 901.74,-368.77 900.81,-361.83"/>
<text text-anchor="middle" x="975.5" y="-366" font-family="Helvetica,sans-Serif" font-size="10.00"> mLyTg</text>
</g>
<!-- Node13&#45;&gt;Node3 -->
<g id="edge18" class="edge">
<title>Node13&#45;&gt;Node3</title>
<path fill="none" stroke="#9a32cd" stroke-dasharray="5,2" d="M1304.38,-440.43C1291.31,-424.53 1270.32,-401.31 1248,-386 1216.79,-364.6 1176.1,-348.82 1148.3,-339.57"/>
<polygon fill="#9a32cd" stroke="#9a32cd" points="1301.8,-442.81 1310.78,-448.42 1307.26,-438.43 1301.8,-442.81"/>
<text text-anchor="middle" x="1220.5" y="-389" font-family="Helvetica,sans-Serif" font-size="10.00"> mpCtRq</text>
</g>
<!-- Node14 -->
<g id="node14" class="node">
<title>Node14</title>
<g id="a_node14"><a xlink:href="structcreate__request__method__class.html" target="_top" xlink:title=" ">
<polygon fill="white" stroke="black" points="1056,-526 1056,-556 1175,-556 1175,-526 1056,-526"/>
<text text-anchor="start" x="1064" y="-544" font-family="Helvetica,sans-Serif" font-size="10.00">create_request_method</text>
<text text-anchor="middle" x="1115.5" y="-533" font-family="Helvetica,sans-Serif" font-size="10.00">_class</text>
</a>
</g>
</g>
<!-- Node14&#45;&gt;Node13 -->
<g id="edge19" class="edge">
<title>Node14&#45;&gt;Node13</title>
<path fill="none" stroke="#9a32cd" stroke-dasharray="5,2" d="M1185.25,-531.04C1206.02,-526.53 1228.48,-520.1 1248,-511 1271.76,-499.92 1295.19,-479.81 1308.01,-467.8"/>
<polygon fill="#9a32cd" stroke="#9a32cd" points="1184.3,-527.66 1175.21,-533.1 1185.71,-534.52 1184.3,-527.66"/>
<text text-anchor="middle" x="1220.5" y="-531" font-family="Helvetica,sans-Serif" font-size="10.00"> mpCtRqMtd</text>
</g>
<!-- Node15&#45;&gt;Node13 -->
<g id="edge23" class="edge">
<title>Node15&#45;&gt;Node13</title>
<path fill="none" stroke="#9a32cd" stroke-dasharray="5,2" d="M1016.83,-584.95C1073.5,-589.75 1177.65,-590.47 1248,-543 1278.27,-522.58 1302.34,-485.31 1312.61,-467.71"/>
<polygon fill="#9a32cd" stroke="#9a32cd" points="1017.1,-581.46 1006.82,-584.01 1016.45,-588.43 1017.1,-581.46"/>
<text text-anchor="middle" x="1115.5" y="-590" font-family="Helvetica,sans-Serif" font-size="10.00"> mBase</text>
</g>
<!-- Node16&#45;&gt;Node3 -->
<g id="edge25" class="edge">
<title>Node16&#45;&gt;Node3</title>
<path fill="none" stroke="#9a32cd" stroke-dasharray="5,2" d="M887.77,-330C938.18,-330 1012.73,-330 1062.43,-330"/>
<polygon fill="#9a32cd" stroke="#9a32cd" points="887.72,-326.5 877.72,-330 887.72,-333.5 887.72,-326.5"/>
<text text-anchor="middle" x="975.5" y="-333" font-family="Helvetica,sans-Serif" font-size="10.00"> mDtTg</text>
</g>
<!-- Node17&#45;&gt;Node1 -->
<g id="edge35" class="edge">
<title>Node17&#45;&gt;Node1</title>
<path fill="none" stroke="#9a32cd" stroke-dasharray="5,2" d="M236.29,-177.12C256.17,-175.46 279.13,-173.82 300,-173 349.3,-171.07 361.95,-167.69 411,-173 461.28,-178.44 518.34,-192.51 552.86,-201.91"/>
<polygon fill="#9a32cd" stroke="#9a32cd" points="235.87,-173.65 226.2,-177.99 236.47,-180.62 235.87,-173.65"/>
<text text-anchor="middle" x="355.5" y="-176" font-family="Helvetica,sans-Serif" font-size="10.00"> mCancelList</text>
</g>
<!-- Node17&#45;&gt;Node2 -->
<g id="edge29" class="edge">
<title>Node17&#45;&gt;Node2</title>
<path fill="none" stroke="#9a32cd" stroke-dasharray="5,2" d="M192.09,-162.89C210.79,-116.17 266.19,0 354.5,0 354.5,0 354.5,0 1116.5,0 1193.19,0 1274.31,-52.92 1305.12,-75.25"/>
<polygon fill="#9a32cd" stroke="#9a32cd" points="188.83,-161.63 188.48,-172.21 195.35,-164.15 188.83,-161.63"/>
<text text-anchor="middle" x="712" y="-3" font-family="Helvetica,sans-Serif" font-size="10.00"> mLayerNodeLists</text>
</g>
<!-- Node19 -->
<g id="node19" class="node">
<title>Node19</title>
<g id="a_node19"><a xlink:href="structnode__lists__tree__class.html" target="_top" xlink:title=" ">
<polygon fill="white" stroke="black" points="300,-193.5 300,-212.5 411,-212.5 411,-193.5 300,-193.5"/>
<text text-anchor="middle" x="355.5" y="-200.5" font-family="Helvetica,sans-Serif" font-size="10.00">node_lists_tree_class</text>
</a>
</g>
</g>
<!-- Node17&#45;&gt;Node19 -->
<g id="edge34" class="edge">
<title>Node17&#45;&gt;Node19</title>
<path fill="none" stroke="#9a32cd" stroke-dasharray="5,2" d="M236.22,-188.35C256.29,-190.83 279.36,-193.69 299.75,-196.22"/>
<polygon fill="#9a32cd" stroke="#9a32cd" points="236.39,-184.84 226.03,-187.08 235.52,-191.79 236.39,-184.84"/>
<text text-anchor="middle" x="263" y="-196" font-family="Helvetica,sans-Serif" font-size="10.00"> mpLists</text>
</g>
<!-- Node18&#45;&gt;Node2 -->
<g id="edge31" class="edge">
<title>Node18&#45;&gt;Node2</title>
<path fill="none" stroke="#9a32cd" stroke-dasharray="5,2" d="M1048.69,-49.71C1086.39,-52 1133.25,-55.39 1175,-60 1207.61,-63.6 1215.68,-65.34 1248,-71 1255.81,-72.37 1264.09,-73.93 1272.12,-75.5"/>
<polygon fill="#9a32cd" stroke="#9a32cd" points="1048.5,-46.2 1038.31,-49.1 1048.08,-53.18 1048.5,-46.2"/>
<text text-anchor="middle" x="1115.5" y="-63" font-family="Helvetica,sans-Serif" font-size="10.00"> mpNodeMtd</text>
</g>
<!-- Node19&#45;&gt;Node1 -->
<g id="edge33" class="edge">
<title>Node19&#45;&gt;Node1</title>
<path fill="none" stroke="#9a32cd" stroke-dasharray="5,2" d="M421.22,-205.27C464.27,-206.78 518.93,-208.7 552.81,-209.89"/>
<polygon fill="#9a32cd" stroke="#9a32cd" points="421.23,-201.77 411.11,-204.92 420.98,-208.76 421.23,-201.77"/>
<text text-anchor="middle" x="464" y="-210" font-family="Helvetica,sans-Serif" font-size="10.00"> mNodeListTree</text>
</g>
</g>
</svg>
