<?xml version="1.0" encoding="UTF-8" standalone="no"?>
<!DOCTYPE svg PUBLIC "-//W3C//DTD SVG 1.1//EN"
 "http://www.w3.org/Graphics/SVG/1.1/DTD/svg11.dtd">
<!-- Generated by graphviz version 2.46.1 (20210215.1649)
 -->
<!-- Title: node_process_profile_definition Pages: 1 -->
<svg width="276pt" height="173pt"
 viewBox="0.00 0.00 276.00 173.00" xmlns="http://www.w3.org/2000/svg" xmlns:xlink="http://www.w3.org/1999/xlink">
<g id="graph0" class="graph" transform="scale(1 1) rotate(0) translate(4 169)">
<title>node_process_profile_definition</title>
<polygon fill="white" stroke="transparent" points="-4,4 -4,-169 272,-169 272,4 -4,4"/>
<!-- Node1 -->
<g id="node1" class="node">
<title>Node1</title>
<g id="a_node1"><a xlink:title=" ">
<polygon fill="#bfbfbf" stroke="black" points="79.5,-0.5 79.5,-30.5 187.5,-30.5 187.5,-0.5 79.5,-0.5"/>
<text text-anchor="start" x="87.5" y="-18.5" font-family="Helvetica,sans-Serif" font-size="10.00">node_process_profile</text>
<text text-anchor="middle" x="133.5" y="-7.5" font-family="Helvetica,sans-Serif" font-size="10.00">_definition</text>
</a>
</g>
</g>
<!-- Node2 -->
<g id="node2" class="node">
<title>Node2</title>
<g id="a_node2"><a xlink:href="structprocess__profile__definition.html" target="_top" xlink:title=" ">
<polygon fill="white" stroke="black" points="0,-78.5 0,-97.5 125,-97.5 125,-78.5 0,-78.5"/>
<text text-anchor="middle" x="62.5" y="-85.5" font-family="Helvetica,sans-Serif" font-size="10.00">process_profile_definition</text>
</a>
</g>
</g>
<!-- Node2&#45;&gt;Node1 -->
<g id="edge1" class="edge">
<title>Node2&#45;&gt;Node1</title>
<path fill="none" stroke="#9a32cd" stroke-dasharray="5,2" d="M78.52,-71.09C90.78,-58.91 107.54,-42.27 119.32,-30.58"/>
<polygon fill="#9a32cd" stroke="#9a32cd" points="75.84,-68.83 71.21,-78.36 80.77,-73.79 75.84,-68.83"/>
<text text-anchor="middle" x="117.5" y="-52" font-family="Helvetica,sans-Serif" font-size="10.00"> mBase</text>
</g>
<!-- Node3 -->
<g id="node3" class="node">
<title>Node3</title>
<g id="a_node3"><a xlink:href="structprocess__method__class.html" target="_top" xlink:title=" ">
<polygon fill="white" stroke="black" points="75,-145.5 75,-164.5 192,-164.5 192,-145.5 75,-145.5"/>
<text text-anchor="middle" x="133.5" y="-152.5" font-family="Helvetica,sans-Serif" font-size="10.00">process_method_class</text>
</a>
</g>
</g>
<!-- Node3&#45;&gt;Node2 -->
<g id="edge2" class="edge">
<title>Node3&#45;&gt;Node2</title>
<path fill="none" stroke="#9a32cd" stroke-dasharray="5,2" d="M116.41,-138.36C102.45,-125.58 83.24,-107.99 71.92,-97.63"/>
<polygon fill="#9a32cd" stroke="#9a32cd" points="114.19,-141.06 123.92,-145.23 118.91,-135.9 114.19,-141.06"/>
<text text-anchor="middle" x="125" y="-119" font-family="Helvetica,sans-Serif" font-size="10.00"> mpPcMtd</text>
</g>
<!-- Node4 -->
<g id="node4" class="node">
<title>Node4</title>
<g id="a_node4"><a xlink:href="structnodedraw__method__class.html" target="_top" xlink:title=" ">
<polygon fill="white" stroke="black" points="143,-78.5 143,-97.5 268,-97.5 268,-78.5 143,-78.5"/>
<text text-anchor="middle" x="205.5" y="-85.5" font-family="Helvetica,sans-Serif" font-size="10.00">nodedraw_method_class</text>
</a>
</g>
</g>
<!-- Node3&#45;&gt;Node4 -->
<g id="edge4" class="edge">
<title>Node3&#45;&gt;Node4</title>
<path fill="none" stroke="#9a32cd" stroke-dasharray="5,2" d="M150.83,-138.36C164.98,-125.58 184.46,-107.99 195.94,-97.63"/>
<polygon fill="#9a32cd" stroke="#9a32cd" points="148.29,-135.93 143.21,-145.23 152.98,-141.13 148.29,-135.93"/>
<text text-anchor="middle" x="190.5" y="-119" font-family="Helvetica,sans-Serif" font-size="10.00"> mBase</text>
</g>
<!-- Node4&#45;&gt;Node1 -->
<g id="edge3" class="edge">
<title>Node4&#45;&gt;Node1</title>
<path fill="none" stroke="#9a32cd" stroke-dasharray="5,2" d="M189.26,-71.09C176.82,-58.91 159.82,-42.27 147.88,-30.58"/>
<polygon fill="#9a32cd" stroke="#9a32cd" points="187.08,-73.86 196.67,-78.36 191.97,-68.86 187.08,-73.86"/>
<text text-anchor="middle" x="209" y="-52" font-family="Helvetica,sans-Serif" font-size="10.00"> mNDrwMthCls</text>
</g>
</g>
</svg>
