<?xml version="1.0" encoding="UTF-8" standalone="no"?>
<!DOCTYPE svg PUBLIC "-//W3C//DTD SVG 1.1//EN"
 "http://www.w3.org/Graphics/SVG/1.1/DTD/svg11.dtd">
<!-- Generated by graphviz version 2.46.1 (20210215.1649)
 -->
<!-- Title: JStudio::fvb::TControl Pages: 1 -->
<svg width="230pt" height="321pt"
 viewBox="0.00 0.00 230.00 321.00" xmlns="http://www.w3.org/2000/svg" xmlns:xlink="http://www.w3.org/1999/xlink">
<g id="graph0" class="graph" transform="scale(1 1) rotate(0) translate(4 317)">
<title>JStudio::fvb::TControl</title>
<polygon fill="white" stroke="transparent" points="-4,4 -4,-317 226,-317 226,4 -4,4"/>
<!-- Node1 -->
<g id="node1" class="node">
<title>Node1</title>
<g id="a_node1"><a xlink:title=" ">
<polygon fill="#bfbfbf" stroke="black" points="27.5,-0.5 27.5,-19.5 136.5,-19.5 136.5,-0.5 27.5,-0.5"/>
<text text-anchor="middle" x="82" y="-7.5" font-family="Helvetica,sans-Serif" font-size="10.00">JStudio::fvb::TControl</text>
</a>
</g>
</g>
<!-- Node2 -->
<g id="node2" class="node">
<title>Node2</title>
<g id="a_node2"><a xlink:href="structJGadget_1_1TLinkList.html" target="_top" xlink:title=" ">
<polygon fill="white" stroke="black" points="23,-67.5 23,-108.5 141,-108.5 141,-67.5 23,-67.5"/>
<text text-anchor="start" x="31" y="-96.5" font-family="Helvetica,sans-Serif" font-size="10.00">JGadget::TLinkList</text>
<text text-anchor="start" x="31" y="-85.5" font-family="Helvetica,sans-Serif" font-size="10.00">&lt; JStudio::fvb::TObject,</text>
<text text-anchor="middle" x="82" y="-74.5" font-family="Helvetica,sans-Serif" font-size="10.00"> &#45;12 &gt;</text>
</a>
</g>
</g>
<!-- Node2&#45;&gt;Node1 -->
<g id="edge1" class="edge">
<title>Node2&#45;&gt;Node1</title>
<path fill="none" stroke="#9a32cd" stroke-dasharray="5,2" d="M82,-57.05C82,-43.56 82,-28.65 82,-19.55"/>
<polygon fill="#9a32cd" stroke="#9a32cd" points="78.5,-57.43 82,-67.43 85.5,-57.43 78.5,-57.43"/>
<text text-anchor="middle" x="105.5" y="-41" font-family="Helvetica,sans-Serif" font-size="10.00"> ocObject_</text>
</g>
<!-- Node3 -->
<g id="node3" class="node">
<title>Node3</title>
<g id="a_node3"><a xlink:href="structJGadget_1_1TNodeLinkList.html" target="_top" xlink:title=" ">
<polygon fill="white" stroke="black" points="21,-146.5 21,-165.5 143,-165.5 143,-146.5 21,-146.5"/>
<text text-anchor="middle" x="82" y="-153.5" font-family="Helvetica,sans-Serif" font-size="10.00">JGadget::TNodeLinkList</text>
</a>
</g>
</g>
<!-- Node3&#45;&gt;Node2 -->
<g id="edge2" class="edge">
<title>Node3&#45;&gt;Node2</title>
<path fill="none" stroke="midnightblue" d="M82,-136.25C82,-127.65 82,-117.45 82,-108.74"/>
<polygon fill="midnightblue" stroke="midnightblue" points="78.5,-136.37 82,-146.37 85.5,-136.37 78.5,-136.37"/>
</g>
<!-- Node4 -->
<g id="node4" class="node">
<title>Node4</title>
<g id="a_node4"><a xlink:href="structJGadget_1_1TNodeLinkList_1_1iterator.html" target="_top" xlink:title=" ">
<polygon fill="white" stroke="black" points="100,-213.5 100,-243.5 222,-243.5 222,-213.5 100,-213.5"/>
<text text-anchor="start" x="108" y="-231.5" font-family="Helvetica,sans-Serif" font-size="10.00">JGadget::TNodeLinkList</text>
<text text-anchor="middle" x="161" y="-220.5" font-family="Helvetica,sans-Serif" font-size="10.00">::iterator</text>
</a>
</g>
</g>
<!-- Node4&#45;&gt;Node3 -->
<g id="edge3" class="edge">
<title>Node4&#45;&gt;Node3</title>
<path fill="none" stroke="#9a32cd" stroke-dasharray="5,2" d="M137.48,-206.51C122.3,-192.96 103.33,-176.03 91.97,-165.89"/>
<polygon fill="#9a32cd" stroke="#9a32cd" points="135.22,-209.19 145.01,-213.23 139.88,-203.96 135.22,-209.19"/>
<text text-anchor="middle" x="131" y="-187" font-family="Helvetica,sans-Serif" font-size="10.00"> iter</text>
</g>
<!-- Node5 -->
<g id="node5" class="node">
<title>Node5</title>
<g id="a_node5"><a xlink:href="structJGadget_1_1TLinkListNode.html" target="_top" xlink:title=" ">
<polygon fill="white" stroke="black" points="0,-292.5 0,-311.5 122,-311.5 122,-292.5 0,-292.5"/>
<text text-anchor="middle" x="61" y="-299.5" font-family="Helvetica,sans-Serif" font-size="10.00">JGadget::TLinkListNode</text>
</a>
</g>
</g>
<!-- Node5&#45;&gt;Node3 -->
<g id="edge6" class="edge">
<title>Node5&#45;&gt;Node3</title>
<path fill="none" stroke="#9a32cd" stroke-dasharray="5,2" d="M56.27,-282.61C52.42,-264.63 48.43,-236.59 54,-213 58.25,-195.02 69.2,-176.22 76.08,-165.62"/>
<polygon fill="#9a32cd" stroke="#9a32cd" points="52.88,-283.44 58.57,-292.37 59.69,-281.84 52.88,-283.44"/>
<text text-anchor="middle" x="72.5" y="-226" font-family="Helvetica,sans-Serif" font-size="10.00"> oNode_</text>
</g>
<!-- Node5&#45;&gt;Node4 -->
<g id="edge4" class="edge">
<title>Node5&#45;&gt;Node4</title>
<path fill="none" stroke="#9a32cd" stroke-dasharray="5,2" d="M81.67,-286.22C99.21,-273.68 124.19,-255.82 141.41,-243.51"/>
<polygon fill="#9a32cd" stroke="#9a32cd" points="79.36,-283.57 73.26,-292.23 83.43,-289.26 79.36,-283.57"/>
<text text-anchor="middle" x="125" y="-265" font-family="Helvetica,sans-Serif" font-size="10.00"> node</text>
</g>
<!-- Node5&#45;&gt;Node5 -->
<g id="edge5" class="edge">
<title>Node5&#45;&gt;Node5</title>
<path fill="none" stroke="#9a32cd" stroke-dasharray="5,2" d="M132.49,-306.54C137.17,-305.49 140,-303.97 140,-302 140,-298.85 132.75,-296.86 122.28,-296.05"/>
<polygon fill="#9a32cd" stroke="#9a32cd" points="131.71,-303.12 122.28,-307.95 132.66,-310.05 131.71,-303.12"/>
<text text-anchor="middle" x="157" y="-305" font-family="Helvetica,sans-Serif" font-size="10.00"> pNext_</text>
<text text-anchor="middle" x="157" y="-294" font-family="Helvetica,sans-Serif" font-size="10.00">pPrev_</text>
</g>
</g>
</svg>
