<?xml version="1.0" encoding="UTF-8" standalone="no"?>
<!DOCTYPE svg PUBLIC "-//W3C//DTD SVG 1.1//EN"
 "http://www.w3.org/Graphics/SVG/1.1/DTD/svg11.dtd">
<!-- Generated by graphviz version 2.46.1 (20210215.1649)
 -->
<!-- Title: leafdraw_class Pages: 1 -->
<!--zoomable 615 -->
<svg id="main" version="1.1" xmlns="http://www.w3.org/2000/svg" xmlns:xlink="http://www.w3.org/1999/xlink" xml:space="preserve" onload="init(evt)">
<style type="text/css"><![CDATA[
.edge:hover path { stroke: red; }
.edge:hover polygon { stroke: red; fill: red; }
]]></style>
<script type="text/javascript"><![CDATA[
var edges = document.getElementsByTagName('g');
if (edges && edges.length) {
  for (var i=0;i<edges.length;i++) {
    if (edges[i].id.substr(0,4)=='edge') {
      edges[i].setAttribute('class','edge');
    }
  }
}
]]></script>
        <defs>
                <circle id="rim" cx="0" cy="0" r="7"/>
                <circle id="rim2" cx="0" cy="0" r="3.5"/>
                <g id="zoomPlus">
                        <use xlink:href="#rim" fill="#404040">
                                <set attributeName="fill" to="#808080" begin="zoomplus.mouseover" end="zoomplus.mouseout"/>
                        </use>
                        <path d="M-4,0h8M0,-4v8" fill="none" stroke="white" stroke-width="1.5" pointer-events="none"/>
                </g>
                <g id="zoomMin">
                        <use xlink:href="#rim" fill="#404040">
                                <set attributeName="fill" to="#808080" begin="zoomminus.mouseover" end="zoomminus.mouseout"/>
                        </use>
                        <path d="M-4,0h8" fill="none" stroke="white" stroke-width="1.5" pointer-events="none"/>
                </g>
                <g id="dirArrow">
                        <path fill="none" stroke="white" stroke-width="1.5" d="M0,-3.0v7 M-2.5,-0.5L0,-3.0L2.5,-0.5"/>
                </g>
               <g id="resetDef">
                       <use xlink:href="#rim2" fill="#404040">
                               <set attributeName="fill" to="#808080" begin="reset.mouseover" end="reset.mouseout"/>
                       </use>
               </g>
        </defs>

<script type="text/javascript">
var viewWidth = 1620;
var viewHeight = 615;
var sectionId = 'dynsection-0';
</script>
<script xlink:href="svgpan.js"/>
<svg id="graph" class="graph">
<g id="viewport">
<title>leafdraw_class</title>
<polygon fill="white" stroke="transparent" points="-4,4 -4,-610.58 1616,-610.58 1616,4 -4,4"/>
<!-- Node1 -->
<g id="node1" class="node">
<title>Node1</title>
<g id="a_node1"><a xlink:title=" ">
<polygon fill="#bfbfbf" stroke="black" points="1082.5,-299.08 1082.5,-318.08 1164.5,-318.08 1164.5,-299.08 1082.5,-299.08"/>
<text text-anchor="middle" x="1123.5" y="-306.08" font-family="Helvetica,sans-Serif" font-size="10.00">leafdraw_class</text>
</a>
</g>
</g>
<!-- Node2 -->
<g id="node2" class="node">
<title>Node2</title>
<g id="a_node2"><a xlink:href="structleafdraw__method__class.html" target="_top" xlink:title=" ">
<polygon fill="white" stroke="black" points="706,-226.08 706,-245.08 825,-245.08 825,-226.08 706,-226.08"/>
<text text-anchor="middle" x="765.5" y="-233.08" font-family="Helvetica,sans-Serif" font-size="10.00">leafdraw_method_class</text>
</a>
</g>
</g>
<!-- Node2&#45;&gt;Node1 -->
<g id="edge1" class="edge">
<title>Node2&#45;&gt;Node1</title>
<path fill="none" stroke="#9a32cd" stroke-dasharray="5,2" d="M835.49,-229.97C894.31,-227.62 980.17,-230.02 1050,-255.58 1075.77,-265.01 1100.37,-286.52 1113.23,-299.05"/>
<polygon fill="#9a32cd" stroke="#9a32cd" points="835.03,-226.49 825.2,-230.44 835.35,-233.48 835.03,-226.49"/>
<text text-anchor="middle" x="899" y="-236.58" font-family="Helvetica,sans-Serif" font-size="10.00"> mpDrawMtd</text>
</g>
<!-- Node3 -->
<g id="node3" class="node">
<title>Node3</title>
<g id="a_node3"><a xlink:href="structprocess__method__class.html" target="_top" xlink:title=" ">
<polygon fill="white" stroke="black" points="335,-238.08 335,-257.08 452,-257.08 452,-238.08 335,-238.08"/>
<text text-anchor="middle" x="393.5" y="-245.08" font-family="Helvetica,sans-Serif" font-size="10.00">process_method_class</text>
</a>
</g>
</g>
<!-- Node3&#45;&gt;Node2 -->
<g id="edge2" class="edge">
<title>Node3&#45;&gt;Node2</title>
<path fill="none" stroke="#9a32cd" stroke-dasharray="5,2" d="M462.41,-241.62C468.35,-241.22 474.28,-240.86 480,-240.58 558.08,-236.7 648.34,-235.71 705.89,-235.51"/>
<polygon fill="#9a32cd" stroke="#9a32cd" points="462.14,-238.13 452.42,-242.33 462.64,-245.11 462.14,-238.13"/>
<text text-anchor="middle" x="511" y="-243.58" font-family="Helvetica,sans-Serif" font-size="10.00"> mBase</text>
</g>
<!-- Node4 -->
<g id="node4" class="node">
<title>Node4</title>
<g id="a_node4"><a xlink:href="structbase__process__class.html" target="_top" xlink:title=" ">
<polygon fill="white" stroke="black" points="846,-344.08 846,-363.08 952,-363.08 952,-344.08 846,-344.08"/>
<text text-anchor="middle" x="899" y="-351.08" font-family="Helvetica,sans-Serif" font-size="10.00">base_process_class</text>
</a>
</g>
</g>
<!-- Node3&#45;&gt;Node4 -->
<g id="edge29" class="edge">
<title>Node3&#45;&gt;Node4</title>
<path fill="none" stroke="#9a32cd" stroke-dasharray="5,2" d="M430.34,-260.48C445.52,-265.64 463.49,-271.35 480,-275.58 515.04,-284.54 741.45,-325.5 845.65,-344.21"/>
<polygon fill="#9a32cd" stroke="#9a32cd" points="431.4,-257.15 420.81,-257.19 429.12,-263.76 431.4,-257.15"/>
<text text-anchor="middle" x="622.5" y="-317.58" font-family="Helvetica,sans-Serif" font-size="10.00"> mpPcMtd</text>
</g>
<!-- Node11 -->
<g id="node11" class="node">
<title>Node11</title>
<g id="a_node11"><a xlink:href="structprocess__profile__definition.html" target="_top" xlink:title=" ">
<polygon fill="white" stroke="black" points="560,-258.08 560,-277.08 685,-277.08 685,-258.08 560,-258.08"/>
<text text-anchor="middle" x="622.5" y="-265.08" font-family="Helvetica,sans-Serif" font-size="10.00">process_profile_definition</text>
</a>
</g>
</g>
<!-- Node3&#45;&gt;Node11 -->
<g id="edge14" class="edge">
<title>Node3&#45;&gt;Node11</title>
<path fill="none" stroke="#9a32cd" stroke-dasharray="5,2" d="M462.32,-253.55C493.2,-256.27 529.48,-259.47 559.61,-262.12"/>
<polygon fill="#9a32cd" stroke="#9a32cd" points="462.34,-250.04 452.08,-252.65 461.73,-257.01 462.34,-250.04"/>
<text text-anchor="middle" x="511" y="-263.58" font-family="Helvetica,sans-Serif" font-size="10.00"> mpPcMtd</text>
</g>
<!-- Node16 -->
<g id="node16" class="node">
<title>Node16</title>
<g id="a_node16"><a xlink:href="structnodedraw__method__class.html" target="_top" xlink:title=" ">
<polygon fill="white" stroke="black" points="703,-182.08 703,-201.08 828,-201.08 828,-182.08 703,-182.08"/>
<text text-anchor="middle" x="765.5" y="-189.08" font-family="Helvetica,sans-Serif" font-size="10.00">nodedraw_method_class</text>
</a>
</g>
</g>
<!-- Node3&#45;&gt;Node16 -->
<g id="edge24" class="edge">
<title>Node3&#45;&gt;Node16</title>
<path fill="none" stroke="#9a32cd" stroke-dasharray="5,2" d="M433.53,-235.19C448,-230.98 464.63,-226.58 480,-223.58 555.98,-208.74 644.81,-200.11 702.74,-195.63"/>
<polygon fill="#9a32cd" stroke="#9a32cd" points="432.48,-231.85 423.89,-238.06 434.48,-238.56 432.48,-231.85"/>
<text text-anchor="middle" x="511" y="-226.58" font-family="Helvetica,sans-Serif" font-size="10.00"> mBase</text>
</g>
<!-- Node4&#45;&gt;Node1 -->
<g id="edge3" class="edge">
<title>Node4&#45;&gt;Node1</title>
<path fill="none" stroke="#9a32cd" stroke-dasharray="5,2" d="M957.15,-342.02C996.39,-334.08 1047.51,-323.74 1082.46,-316.68"/>
<polygon fill="#9a32cd" stroke="#9a32cd" points="956.29,-338.62 947.19,-344.03 957.68,-345.48 956.29,-338.62"/>
<text text-anchor="middle" x="1010" y="-341.58" font-family="Helvetica,sans-Serif" font-size="10.00"> mBase</text>
</g>
<!-- Node14 -->
<g id="node14" class="node">
<title>Node14</title>
<g id="a_node14"><a xlink:href="structprocess__node__class.html" target="_top" xlink:title=" ">
<polygon fill="white" stroke="black" points="1070.5,-175.08 1070.5,-194.08 1176.5,-194.08 1176.5,-175.08 1070.5,-175.08"/>
<text text-anchor="middle" x="1123.5" y="-182.08" font-family="Helvetica,sans-Serif" font-size="10.00">process_node_class</text>
</a>
</g>
</g>
<!-- Node4&#45;&gt;Node14 -->
<g id="edge19" class="edge">
<title>Node4&#45;&gt;Node14</title>
<path fill="none" stroke="#9a32cd" stroke-dasharray="5,2" d="M935.99,-339.31C941.76,-336.01 947.36,-332.11 952,-327.58 964.23,-315.63 958.74,-306.45 970,-293.58 1010.06,-247.77 1072.97,-210.72 1103.97,-194.08"/>
<polygon fill="#9a32cd" stroke="#9a32cd" points="934.18,-336.3 926.89,-343.99 937.38,-342.53 934.18,-336.3"/>
<text text-anchor="middle" x="1010" y="-296.58" font-family="Helvetica,sans-Serif" font-size="10.00"> mBase</text>
</g>
<!-- Node18 -->
<g id="node18" class="node">
<title>Node18</title>
<g id="a_node18"><a xlink:href="structcreate__request.html" target="_top" xlink:title=" ">
<polygon fill="white" stroke="black" points="1513,-482.08 1513,-501.08 1594,-501.08 1594,-482.08 1513,-482.08"/>
<text text-anchor="middle" x="1553.5" y="-489.08" font-family="Helvetica,sans-Serif" font-size="10.00">create_request</text>
</a>
</g>
</g>
<!-- Node4&#45;&gt;Node18 -->
<g id="edge32" class="edge">
<title>Node4&#45;&gt;Node18</title>
<path fill="none" stroke="#9a32cd" stroke-dasharray="5,2" d="M925.26,-367.94C938.27,-374.79 954.6,-382.57 970,-387.58 1167.83,-451.91 1417.16,-479.54 1512.73,-488.28"/>
<polygon fill="#9a32cd" stroke="#9a32cd" points="926.89,-364.85 916.43,-363.17 923.56,-371 926.89,-364.85"/>
<text text-anchor="middle" x="1232" y="-458.58" font-family="Helvetica,sans-Serif" font-size="10.00"> mpRes</text>
</g>
<!-- Node5 -->
<g id="node5" class="node">
<title>Node5</title>
<g id="a_node5"><a xlink:href="structprocess__priority__class.html" target="_top" xlink:title=" ">
<polygon fill="white" stroke="black" points="566,-400.08 566,-419.08 679,-419.08 679,-400.08 566,-400.08"/>
<text text-anchor="middle" x="622.5" y="-407.08" font-family="Helvetica,sans-Serif" font-size="10.00">process_priority_class</text>
</a>
</g>
</g>
<!-- Node5&#45;&gt;Node4 -->
<g id="edge4" class="edge">
<title>Node5&#45;&gt;Node4</title>
<path fill="none" stroke="#9a32cd" stroke-dasharray="5,2" d="M689.38,-400.39C729.66,-394.26 782.09,-385.35 828,-374.58 841.59,-371.39 856.42,-367.06 868.92,-363.17"/>
<polygon fill="#9a32cd" stroke="#9a32cd" points="688.79,-396.94 679.42,-401.89 689.83,-403.86 688.79,-396.94"/>
<text text-anchor="middle" x="765.5" y="-400.58" font-family="Helvetica,sans-Serif" font-size="10.00"> mPi</text>
</g>
<!-- Node6 -->
<g id="node6" class="node">
<title>Node6</title>
<g id="a_node6"><a xlink:href="structprocess__priority__queue__info.html" target="_top" xlink:title=" ">
<polygon fill="white" stroke="black" points="325,-358.08 325,-377.08 462,-377.08 462,-358.08 325,-358.08"/>
<text text-anchor="middle" x="393.5" y="-365.08" font-family="Helvetica,sans-Serif" font-size="10.00">process_priority_queue_info</text>
</a>
</g>
</g>
<!-- Node6&#45;&gt;Node5 -->
<g id="edge5" class="edge">
<title>Node6&#45;&gt;Node5</title>
<path fill="none" stroke="#9a32cd" stroke-dasharray="5,2" d="M472.57,-368.29C495.18,-369.72 519.76,-372.48 542,-377.58 563.61,-382.53 587,-392.56 602.77,-400.07"/>
<polygon fill="#9a32cd" stroke="#9a32cd" points="472.52,-364.78 462.34,-367.72 472.13,-371.77 472.52,-364.78"/>
<text text-anchor="middle" x="511" y="-391.58" font-family="Helvetica,sans-Serif" font-size="10.00"> mInfoCurr</text>
<text text-anchor="middle" x="511" y="-380.58" font-family="Helvetica,sans-Serif" font-size="10.00">mInfoQ</text>
</g>
<!-- Node7 -->
<g id="node7" class="node">
<title>Node7</title>
<g id="a_node7"><a xlink:href="structcreate__tag__class.html" target="_top" xlink:title=" ">
<polygon fill="white" stroke="black" points="142,-404.08 142,-423.08 233,-423.08 233,-404.08 142,-404.08"/>
<text text-anchor="middle" x="187.5" y="-411.08" font-family="Helvetica,sans-Serif" font-size="10.00">create_tag_class</text>
</a>
</g>
</g>
<!-- Node7&#45;&gt;Node5 -->
<g id="edge6" class="edge">
<title>Node7&#45;&gt;Node5</title>
<path fill="none" stroke="#9a32cd" stroke-dasharray="5,2" d="M243.43,-413.07C326.33,-412.3 482.54,-410.86 565.86,-410.09"/>
<polygon fill="#9a32cd" stroke="#9a32cd" points="243.17,-409.57 233.21,-413.16 243.24,-416.57 243.17,-409.57"/>
<text text-anchor="middle" x="393.5" y="-414.58" font-family="Helvetica,sans-Serif" font-size="10.00"> mBase</text>
</g>
<!-- Node9 -->
<g id="node9" class="node">
<title>Node9</title>
<g id="a_node9"><a xlink:href="structprocess__method__tag__class.html" target="_top" xlink:title=" ">
<polygon fill="white" stroke="black" points="340,-443.58 340,-473.58 447,-473.58 447,-443.58 340,-443.58"/>
<text text-anchor="start" x="348" y="-461.58" font-family="Helvetica,sans-Serif" font-size="10.00">process_method_tag</text>
<text text-anchor="middle" x="393.5" y="-450.58" font-family="Helvetica,sans-Serif" font-size="10.00">_class</text>
</a>
</g>
</g>
<!-- Node7&#45;&gt;Node9 -->
<g id="edge10" class="edge">
<title>Node7&#45;&gt;Node9</title>
<path fill="none" stroke="#9a32cd" stroke-dasharray="5,2" d="M240.69,-425.29C244.18,-426.06 247.64,-426.83 251,-427.58 280.34,-434.08 313.12,-441.26 339.74,-447.08"/>
<polygon fill="#9a32cd" stroke="#9a32cd" points="241.38,-421.85 230.85,-423.09 239.85,-428.69 241.38,-421.85"/>
<text text-anchor="middle" x="279" y="-441.58" font-family="Helvetica,sans-Serif" font-size="10.00"> mCreateTag</text>
</g>
<!-- Node10 -->
<g id="node10" class="node">
<title>Node10</title>
<g id="a_node10"><a xlink:href="structline__tag.html" target="_top" xlink:title=" ">
<polygon fill="white" stroke="black" points="486,-329.08 486,-348.08 536,-348.08 536,-329.08 486,-329.08"/>
<text text-anchor="middle" x="511" y="-336.08" font-family="Helvetica,sans-Serif" font-size="10.00">line_tag</text>
</a>
</g>
</g>
<!-- Node7&#45;&gt;Node10 -->
<g id="edge12" class="edge">
<title>Node7&#45;&gt;Node10</title>
<path fill="none" stroke="#9a32cd" stroke-dasharray="5,2" d="M212.61,-398.5C239.06,-382.85 283.32,-359.19 325,-348.58 381.26,-334.26 450.16,-335.16 485.9,-336.94"/>
<polygon fill="#9a32cd" stroke="#9a32cd" points="210.47,-395.71 203.71,-403.87 214.08,-401.71 210.47,-395.71"/>
<text text-anchor="middle" x="279" y="-379.58" font-family="Helvetica,sans-Serif" font-size="10.00"> mBase</text>
</g>
<!-- Node12 -->
<g id="node12" class="node">
<title>Node12</title>
<g id="a_node12"><a xlink:href="structlayer__management__tag__class.html" target="_top" xlink:title=" ">
<polygon fill="white" stroke="black" points="1495,-139.58 1495,-169.58 1612,-169.58 1612,-139.58 1495,-139.58"/>
<text text-anchor="start" x="1503" y="-157.58" font-family="Helvetica,sans-Serif" font-size="10.00">layer_management_tag</text>
<text text-anchor="middle" x="1553.5" y="-146.58" font-family="Helvetica,sans-Serif" font-size="10.00">_class</text>
</a>
</g>
</g>
<!-- Node7&#45;&gt;Node12 -->
<g id="edge16" class="edge">
<title>Node7&#45;&gt;Node12</title>
<path fill="none" stroke="#9a32cd" stroke-dasharray="5,2" d="M191.84,-393.99C201.91,-340.73 236.93,-191.87 325,-110.58 472.8,25.85 563.36,-2.58 764.5,-2.58 764.5,-2.58 764.5,-2.58 1345.5,-2.58 1437.35,-2.58 1515.41,-101 1542.41,-139.45"/>
<polygon fill="#9a32cd" stroke="#9a32cd" points="188.39,-393.38 190.05,-403.84 195.28,-394.63 188.39,-393.38"/>
<text text-anchor="middle" x="899" y="-5.58" font-family="Helvetica,sans-Serif" font-size="10.00"> mCreateTag</text>
</g>
<!-- Node20 -->
<g id="node20" class="node">
<title>Node20</title>
<g id="a_node20"><a xlink:href="structcreate__tag.html" target="_top" xlink:title=" ">
<polygon fill="white" stroke="black" points="480,-574.08 480,-593.08 542,-593.08 542,-574.08 480,-574.08"/>
<text text-anchor="middle" x="511" y="-581.08" font-family="Helvetica,sans-Serif" font-size="10.00">create_tag</text>
</a>
</g>
</g>
<!-- Node7&#45;&gt;Node20 -->
<g id="edge36" class="edge">
<title>Node7&#45;&gt;Node20</title>
<path fill="none" stroke="#9a32cd" stroke-dasharray="5,2" d="M194.1,-433.27C202.32,-458.45 220.12,-501.54 251,-524.58 320.49,-576.42 427.6,-583.94 479.59,-584.27"/>
<polygon fill="#9a32cd" stroke="#9a32cd" points="197.35,-431.93 191.07,-423.39 190.66,-433.98 197.35,-431.93"/>
<text text-anchor="middle" x="279" y="-556.58" font-family="Helvetica,sans-Serif" font-size="10.00"> mBase</text>
</g>
<!-- Node21 -->
<g id="node21" class="node">
<title>Node21</title>
<g id="a_node21"><a xlink:href="structdelete__tag__class.html" target="_top" xlink:title=" ">
<polygon fill="white" stroke="black" points="1508.5,-325.08 1508.5,-344.08 1598.5,-344.08 1598.5,-325.08 1508.5,-325.08"/>
<text text-anchor="middle" x="1553.5" y="-332.08" font-family="Helvetica,sans-Serif" font-size="10.00">delete_tag_class</text>
</a>
</g>
</g>
<!-- Node7&#45;&gt;Node21 -->
<g id="edge38" class="edge">
<title>Node7&#45;&gt;Node21</title>
<path fill="none" stroke="#9a32cd" stroke-dasharray="5,2" d="M210.26,-428.91C222.02,-436.82 236.96,-446.32 251,-453.58 282.52,-469.88 290.31,-476.11 325,-483.58 392.4,-498.08 411.07,-488.24 480,-489.58 800.58,-495.78 878.44,-446.09 1197,-409.58 1321.34,-395.32 1358.28,-419.2 1477,-379.58 1501.17,-371.51 1525.94,-354.82 1540.23,-344.19"/>
<polygon fill="#9a32cd" stroke="#9a32cd" points="212.19,-425.99 201.97,-423.23 208.24,-431.77 212.19,-425.99"/>
<text text-anchor="middle" x="899" y="-466.58" font-family="Helvetica,sans-Serif" font-size="10.00"> mBase</text>
</g>
<!-- Node8 -->
<g id="node8" class="node">
<title>Node8</title>
<g id="a_node8"><a xlink:href="structnode__class.html" target="_top" xlink:title=" ">
<polygon fill="white" stroke="black" points="0,-123.08 0,-142.08 66,-142.08 66,-123.08 0,-123.08"/>
<text text-anchor="middle" x="33" y="-130.08" font-family="Helvetica,sans-Serif" font-size="10.00">node_class</text>
</a>
</g>
</g>
<!-- Node8&#45;&gt;Node7 -->
<g id="edge7" class="edge">
<title>Node8&#45;&gt;Node7</title>
<path fill="none" stroke="#9a32cd" stroke-dasharray="5,2" d="M44.08,-151.16C73.62,-205.58 159.23,-363.32 181.27,-403.95"/>
<polygon fill="#9a32cd" stroke="#9a32cd" points="47.1,-149.37 39.25,-142.25 40.94,-152.71 47.1,-149.37"/>
<text text-anchor="middle" x="104" y="-301.58" font-family="Helvetica,sans-Serif" font-size="10.00"> mpNode</text>
</g>
<!-- Node8&#45;&gt;Node8 -->
<g id="edge8" class="edge">
<title>Node8&#45;&gt;Node8</title>
<path fill="none" stroke="#9a32cd" stroke-dasharray="5,2" d="M20.11,-152.34C21.12,-157.07 25.42,-160.58 33,-160.58 45.44,-160.58 49.04,-151.14 43.79,-142.33"/>
<polygon fill="#9a32cd" stroke="#9a32cd" points="23.58,-152.84 22.21,-142.33 16.73,-151.4 23.58,-152.84"/>
<text text-anchor="middle" x="33" y="-174.58" font-family="Helvetica,sans-Serif" font-size="10.00"> mpNextNode</text>
<text text-anchor="middle" x="33" y="-163.58" font-family="Helvetica,sans-Serif" font-size="10.00">mpPrevNode</text>
</g>
<!-- Node13 -->
<g id="node13" class="node">
<title>Node13</title>
<g id="a_node13"><a xlink:href="structlayer__class.html" target="_top" xlink:title=" ">
<polygon fill="white" stroke="black" points="1312,-145.08 1312,-164.08 1377,-164.08 1377,-145.08 1312,-145.08"/>
<text text-anchor="middle" x="1344.5" y="-152.08" font-family="Helvetica,sans-Serif" font-size="10.00">layer_class</text>
</a>
</g>
</g>
<!-- Node8&#45;&gt;Node13 -->
<g id="edge28" class="edge">
<title>Node8&#45;&gt;Node13</title>
<path fill="none" stroke="#9a32cd" stroke-dasharray="5,2" d="M50.61,-116.01C76.99,-91.53 131.17,-48.58 186.5,-48.58 186.5,-48.58 186.5,-48.58 1124.5,-48.58 1189.41,-48.58 1209.88,-49.75 1267,-80.58 1297.41,-96.99 1324.21,-128.91 1336.45,-144.92"/>
<polygon fill="#9a32cd" stroke="#9a32cd" points="48.16,-113.51 43.34,-122.94 52.99,-118.57 48.16,-113.51"/>
<text text-anchor="middle" x="622.5" y="-51.58" font-family="Helvetica,sans-Serif" font-size="10.00"> mNode</text>
</g>
<!-- Node15 -->
<g id="node15" class="node">
<title>Node15</title>
<g id="a_node15"><a xlink:href="structnode__list__class.html" target="_top" xlink:title=" ">
<polygon fill="white" stroke="black" points="857,-123.08 857,-142.08 941,-142.08 941,-123.08 857,-123.08"/>
<text text-anchor="middle" x="899" y="-130.08" font-family="Helvetica,sans-Serif" font-size="10.00">node_list_class</text>
</a>
</g>
</g>
<!-- Node8&#45;&gt;Node15 -->
<g id="edge22" class="edge">
<title>Node8&#45;&gt;Node15</title>
<path fill="none" stroke="#9a32cd" stroke-dasharray="5,2" d="M76.44,-132.58C107.03,-132.58 149.32,-132.58 186.5,-132.58 186.5,-132.58 186.5,-132.58 623.5,-132.58 706.18,-132.58 802.88,-132.58 856.61,-132.58"/>
<polygon fill="#9a32cd" stroke="#9a32cd" points="76.13,-129.08 66.13,-132.58 76.13,-136.08 76.13,-129.08"/>
<text text-anchor="middle" x="393.5" y="-146.58" font-family="Helvetica,sans-Serif" font-size="10.00"> mpHead</text>
<text text-anchor="middle" x="393.5" y="-135.58" font-family="Helvetica,sans-Serif" font-size="10.00">mpTail</text>
</g>
<!-- Node9&#45;&gt;Node5 -->
<g id="edge9" class="edge">
<title>Node9&#45;&gt;Node5</title>
<path fill="none" stroke="#9a32cd" stroke-dasharray="5,2" d="M457.11,-445.06C495.21,-436.84 542.96,-426.53 577.16,-419.15"/>
<polygon fill="#9a32cd" stroke="#9a32cd" points="456.19,-441.68 447.15,-447.21 457.66,-448.52 456.19,-441.68"/>
<text text-anchor="middle" x="511" y="-442.58" font-family="Helvetica,sans-Serif" font-size="10.00"> mMtdTag</text>
</g>
<!-- Node9&#45;&gt;Node18 -->
<g id="edge33" class="edge">
<title>Node9&#45;&gt;Node18</title>
<path fill="none" stroke="#9a32cd" stroke-dasharray="5,2" d="M457.16,-468.19C544.19,-481.19 706.68,-504.16 846,-516.58 1040.58,-533.92 1089.71,-533.69 1285,-538.58 1337.87,-539.9 1351.54,-545.29 1404,-538.58 1437.25,-534.32 1445.02,-529.64 1477,-519.58 1494.47,-514.08 1513.83,-506.88 1528.57,-501.15"/>
<polygon fill="#9a32cd" stroke="#9a32cd" points="457.59,-464.72 447.18,-466.7 456.55,-471.64 457.59,-464.72"/>
<text text-anchor="middle" x="1010" y="-533.58" font-family="Helvetica,sans-Serif" font-size="10.00"> mMtdTg</text>
</g>
<!-- Node10&#45;&gt;Node4 -->
<g id="edge11" class="edge">
<title>Node10&#45;&gt;Node4</title>
<path fill="none" stroke="#9a32cd" stroke-dasharray="5,2" d="M546.28,-339.91C614.03,-342.54 765.48,-348.43 845.74,-351.55"/>
<polygon fill="#9a32cd" stroke="#9a32cd" points="546.27,-336.41 536.15,-339.52 546,-343.4 546.27,-336.41"/>
<text text-anchor="middle" x="622.5" y="-347.58" font-family="Helvetica,sans-Serif" font-size="10.00"> mLnTg</text>
</g>
<!-- Node11&#45;&gt;Node4 -->
<g id="edge13" class="edge">
<title>Node11&#45;&gt;Node4</title>
<path fill="none" stroke="#9a32cd" stroke-dasharray="5,2" d="M695.66,-258.24C737.89,-256.59 790.17,-261.55 828,-288.58 843.53,-299.68 832.71,-313.87 846,-327.58 852.74,-334.54 861.74,-339.93 870.36,-343.96"/>
<polygon fill="#9a32cd" stroke="#9a32cd" points="695.24,-254.76 685.44,-258.77 695.61,-261.75 695.24,-254.76"/>
<text text-anchor="middle" x="765.5" y="-291.58" font-family="Helvetica,sans-Serif" font-size="10.00"> mpProf</text>
</g>
<!-- Node12&#45;&gt;Node4 -->
<g id="edge15" class="edge">
<title>Node12&#45;&gt;Node4</title>
<path fill="none" stroke="#9a32cd" stroke-dasharray="5,2" d="M1485.01,-168.25C1482.31,-168.71 1479.63,-169.16 1477,-169.58 1470,-170.69 975.17,-225.72 970,-230.58 938.02,-260.58 978.37,-292.55 952,-327.58 946.6,-334.75 938.67,-340.08 930.62,-343.98"/>
<polygon fill="#9a32cd" stroke="#9a32cd" points="1485.64,-171.69 1494.87,-166.5 1484.41,-164.8 1485.64,-171.69"/>
<text text-anchor="middle" x="1232" y="-204.58" font-family="Helvetica,sans-Serif" font-size="10.00"> mLyTg</text>
</g>
<!-- Node13&#45;&gt;Node12 -->
<g id="edge17" class="edge">
<title>Node13&#45;&gt;Node12</title>
<path fill="none" stroke="#9a32cd" stroke-dasharray="5,2" d="M1387.39,-154.58C1418.26,-154.58 1460.63,-154.58 1494.72,-154.58"/>
<polygon fill="#9a32cd" stroke="#9a32cd" points="1387.39,-151.08 1377.39,-154.58 1387.39,-158.08 1387.39,-151.08"/>
<text text-anchor="middle" x="1449.5" y="-157.58" font-family="Helvetica,sans-Serif" font-size="10.00"> mpLayer</text>
</g>
<!-- Node13&#45;&gt;Node14 -->
<g id="edge20" class="edge">
<title>Node13&#45;&gt;Node14</title>
<path fill="none" stroke="#9a32cd" stroke-dasharray="5,2" d="M1301.84,-161.34C1290.54,-163.12 1278.31,-164.98 1267,-166.58 1237.13,-170.81 1203.66,-175.06 1176.67,-178.37"/>
<polygon fill="#9a32cd" stroke="#9a32cd" points="1302.57,-164.77 1311.9,-159.75 1301.47,-157.86 1302.57,-164.77"/>
<text text-anchor="middle" x="1232" y="-178.58" font-family="Helvetica,sans-Serif" font-size="10.00"> mLayer</text>
</g>
<!-- Node13&#45;&gt;Node18 -->
<g id="edge34" class="edge">
<title>Node13&#45;&gt;Node18</title>
<path fill="none" stroke="#9a32cd" stroke-dasharray="5,2" d="M1356.4,-172.85C1371.16,-197.56 1398.4,-243.01 1422,-281.58 1469.49,-359.2 1527.82,-452.28 1546.47,-481.98"/>
<polygon fill="#9a32cd" stroke="#9a32cd" points="1359.34,-170.96 1351.21,-164.16 1353.33,-174.54 1359.34,-170.96"/>
<text text-anchor="middle" x="1449.5" y="-370.58" font-family="Helvetica,sans-Serif" font-size="10.00"> mpLayer</text>
</g>
<!-- Node13&#45;&gt;Node21 -->
<g id="edge39" class="edge">
<title>Node13&#45;&gt;Node21</title>
<path fill="none" stroke="#9a32cd" stroke-dasharray="5,2" d="M1364.23,-170.87C1406.36,-207.5 1507.55,-295.49 1541.32,-324.85"/>
<polygon fill="#9a32cd" stroke="#9a32cd" points="1366.47,-168.18 1356.63,-164.26 1361.88,-173.46 1366.47,-168.18"/>
<text text-anchor="middle" x="1449.5" y="-269.58" font-family="Helvetica,sans-Serif" font-size="10.00"> mpLayer</text>
</g>
<!-- Node14&#45;&gt;Node13 -->
<g id="edge18" class="edge">
<title>Node14&#45;&gt;Node13</title>
<path fill="none" stroke="#9a32cd" stroke-dasharray="5,2" d="M1152.42,-170.57C1165.59,-164.71 1181.73,-158.57 1197,-155.58 1235.94,-147.94 1281.82,-149.24 1311.73,-151.42"/>
<polygon fill="#9a32cd" stroke="#9a32cd" points="1150.59,-167.56 1142.99,-174.94 1153.53,-173.91 1150.59,-167.56"/>
<text text-anchor="middle" x="1232" y="-158.58" font-family="Helvetica,sans-Serif" font-size="10.00"> mpPcNode</text>
</g>
<!-- Node15&#45;&gt;Node13 -->
<g id="edge27" class="edge">
<title>Node15&#45;&gt;Node13</title>
<path fill="none" stroke="#9a32cd" stroke-dasharray="5,2" d="M951.07,-133.46C1022.02,-134.93 1154.4,-138.55 1267,-146.58 1281.79,-147.63 1298.13,-149.28 1311.9,-150.8"/>
<polygon fill="#9a32cd" stroke="#9a32cd" points="951.12,-129.96 941.05,-133.26 950.98,-136.96 951.12,-129.96"/>
<text text-anchor="middle" x="1123.5" y="-144.58" font-family="Helvetica,sans-Serif" font-size="10.00"> mCancelList</text>
</g>
<!-- Node15&#45;&gt;Node14 -->
<g id="edge21" class="edge">
<title>Node15&#45;&gt;Node14</title>
<path fill="none" stroke="#9a32cd" stroke-dasharray="5,2" d="M951.04,-143.87C980.08,-150.37 1017.12,-158.77 1050,-166.58 1061.23,-169.24 1073.41,-172.23 1084.53,-175"/>
<polygon fill="#9a32cd" stroke="#9a32cd" points="951.64,-140.42 941.12,-141.66 950.11,-147.25 951.64,-140.42"/>
<text text-anchor="middle" x="1010" y="-169.58" font-family="Helvetica,sans-Serif" font-size="10.00"> mLayerNodeLists</text>
</g>
<!-- Node17 -->
<g id="node17" class="node">
<title>Node17</title>
<g id="a_node17"><a xlink:href="structnode__lists__tree__class.html" target="_top" xlink:title=" ">
<polygon fill="white" stroke="black" points="1068,-77.08 1068,-96.08 1179,-96.08 1179,-77.08 1068,-77.08"/>
<text text-anchor="middle" x="1123.5" y="-84.08" font-family="Helvetica,sans-Serif" font-size="10.00">node_lists_tree_class</text>
</a>
</g>
</g>
<!-- Node15&#45;&gt;Node17 -->
<g id="edge26" class="edge">
<title>Node15&#45;&gt;Node17</title>
<path fill="none" stroke="#9a32cd" stroke-dasharray="5,2" d="M932.34,-119.46C944.04,-115.13 957.47,-110.64 970,-107.58 1002.06,-99.73 1038.68,-94.57 1068,-91.33"/>
<polygon fill="#9a32cd" stroke="#9a32cd" points="931.07,-116.2 922.97,-123.02 933.56,-122.74 931.07,-116.2"/>
<text text-anchor="middle" x="1010" y="-110.58" font-family="Helvetica,sans-Serif" font-size="10.00"> mpLists</text>
</g>
<!-- Node16&#45;&gt;Node14 -->
<g id="edge23" class="edge">
<title>Node16&#45;&gt;Node14</title>
<path fill="none" stroke="#9a32cd" stroke-dasharray="5,2" d="M838.41,-190.16C907.14,-188.81 1009.07,-186.81 1070.32,-185.6"/>
<polygon fill="#9a32cd" stroke="#9a32cd" points="838.03,-186.67 828.1,-190.37 838.17,-193.67 838.03,-186.67"/>
<text text-anchor="middle" x="899" y="-193.58" font-family="Helvetica,sans-Serif" font-size="10.00"> mpNodeMtd</text>
</g>
<!-- Node17&#45;&gt;Node13 -->
<g id="edge25" class="edge">
<title>Node17&#45;&gt;Node13</title>
<path fill="none" stroke="#9a32cd" stroke-dasharray="5,2" d="M1189.28,-83.35C1214.25,-84.09 1242.62,-87.42 1267,-96.58 1295.08,-107.13 1321.5,-131.52 1334.7,-145.07"/>
<polygon fill="#9a32cd" stroke="#9a32cd" points="1189.23,-79.85 1179.17,-83.18 1189.12,-86.85 1189.23,-79.85"/>
<text text-anchor="middle" x="1232" y="-99.58" font-family="Helvetica,sans-Serif" font-size="10.00"> mNodeListTree</text>
</g>
<!-- Node18&#45;&gt;Node4 -->
<g id="edge30" class="edge">
<title>Node18&#45;&gt;Node4</title>
<path fill="none" stroke="#9a32cd" stroke-dasharray="5,2" d="M1526.77,-477.15C1512.5,-469.7 1494.2,-461.06 1477,-455.58 1259.09,-386.16 1194.82,-409.56 970,-367.58 962.45,-366.17 954.45,-364.62 946.66,-363.08"/>
<polygon fill="#9a32cd" stroke="#9a32cd" points="1525.48,-480.43 1535.95,-482.06 1528.78,-474.26 1525.48,-480.43"/>
<text text-anchor="middle" x="1232" y="-408.58" font-family="Helvetica,sans-Serif" font-size="10.00"> mpCtRq</text>
</g>
<!-- Node19 -->
<g id="node19" class="node">
<title>Node19</title>
<g id="a_node19"><a xlink:href="structcreate__request__method__class.html" target="_top" xlink:title=" ">
<polygon fill="white" stroke="black" points="1285,-498.58 1285,-528.58 1404,-528.58 1404,-498.58 1285,-498.58"/>
<text text-anchor="start" x="1293" y="-516.58" font-family="Helvetica,sans-Serif" font-size="10.00">create_request_method</text>
<text text-anchor="middle" x="1344.5" y="-505.58" font-family="Helvetica,sans-Serif" font-size="10.00">_class</text>
</a>
</g>
</g>
<!-- Node19&#45;&gt;Node18 -->
<g id="edge31" class="edge">
<title>Node19&#45;&gt;Node18</title>
<path fill="none" stroke="#9a32cd" stroke-dasharray="5,2" d="M1414.25,-506.27C1447.02,-502.79 1485.06,-498.75 1512.93,-495.78"/>
<polygon fill="#9a32cd" stroke="#9a32cd" points="1413.84,-502.79 1404.26,-507.33 1414.58,-509.76 1413.84,-502.79"/>
<text text-anchor="middle" x="1449.5" y="-507.58" font-family="Helvetica,sans-Serif" font-size="10.00"> mpCtRqMtd</text>
</g>
<!-- Node20&#45;&gt;Node18 -->
<g id="edge35" class="edge">
<title>Node20&#45;&gt;Node18</title>
<path fill="none" stroke="#9a32cd" stroke-dasharray="5,2" d="M552.34,-586.68C602.16,-590.23 689.52,-595.58 764.5,-595.58 764.5,-595.58 764.5,-595.58 1345.5,-595.58 1404.91,-595.58 1424.79,-599.93 1477,-571.58 1508.89,-554.26 1535.03,-518.58 1546.39,-501.34"/>
<polygon fill="#9a32cd" stroke="#9a32cd" points="552.52,-583.18 542.29,-585.95 552.01,-590.16 552.52,-583.18"/>
<text text-anchor="middle" x="1010" y="-598.58" font-family="Helvetica,sans-Serif" font-size="10.00"> mBase</text>
</g>
<!-- Node21&#45;&gt;Node4 -->
<g id="edge37" class="edge">
<title>Node21&#45;&gt;Node4</title>
<path fill="none" stroke="#9a32cd" stroke-dasharray="5,2" d="M1498.3,-337.3C1406.2,-341.77 1213.26,-350.49 1050,-353.58 1017.45,-354.19 980.93,-354.21 952.07,-354.06"/>
<polygon fill="#9a32cd" stroke="#9a32cd" points="1498.67,-340.79 1508.49,-336.8 1498.33,-333.79 1498.67,-340.79"/>
<text text-anchor="middle" x="1232" y="-352.58" font-family="Helvetica,sans-Serif" font-size="10.00"> mDtTg</text>
</g>
<!-- Node22 -->
<g id="node22" class="node">
<title>Node22</title>
<g id="a_node22"><a xlink:href="structdraw__priority__class.html" target="_top" xlink:title=" ">
<polygon fill="white" stroke="black" points="849,-299.08 849,-318.08 949,-318.08 949,-299.08 849,-299.08"/>
<text text-anchor="middle" x="899" y="-306.08" font-family="Helvetica,sans-Serif" font-size="10.00">draw_priority_class</text>
</a>
</g>
</g>
<!-- Node22&#45;&gt;Node1 -->
<g id="edge40" class="edge">
<title>Node22&#45;&gt;Node1</title>
<path fill="none" stroke="#9a32cd" stroke-dasharray="5,2" d="M959.26,-308.58C998.2,-308.58 1048.11,-308.58 1082.43,-308.58"/>
<polygon fill="#9a32cd" stroke="#9a32cd" points="959.1,-305.08 949.1,-308.58 959.1,-312.08 959.1,-305.08"/>
<text text-anchor="middle" x="1010" y="-311.58" font-family="Helvetica,sans-Serif" font-size="10.00"> mDwPi</text>
</g>
</g>
</svg>
        <g id="navigator" transform="translate(0 0)" fill="#404254">
                <rect fill="#f2f5e9" fill-opacity="0.5" stroke="#606060" stroke-width=".5" x="0" y="0" width="60" height="60"/>
                <use id="zoomplus" xlink:href="#zoomPlus" x="17" y="9" onmousedown="handleZoom(evt,'in')"/>
                <use id="zoomminus" xlink:href="#zoomMin" x="42" y="9" onmousedown="handleZoom(evt,'out')"/>
                <use id="reset" xlink:href="#resetDef" x="30" y="36" onmousedown="handleReset()"/>
                <g id="arrowUp" xlink:href="#dirArrow" transform="translate(30 24)" onmousedown="handlePan(0,-1)">
                  <use xlink:href="#rim" fill="#404040">
                        <set attributeName="fill" to="#808080" begin="arrowUp.mouseover" end="arrowUp.mouseout"/>
                  </use>
                  <path fill="none" stroke="white" stroke-width="1.5" d="M0,-3.0v7 M-2.5,-0.5L0,-3.0L2.5,-0.5"/>
                </g>
                <g id="arrowRight" xlink:href="#dirArrow" transform="rotate(90) translate(36 -43)" onmousedown="handlePan(1,0)">
                  <use xlink:href="#rim" fill="#404040">
                        <set attributeName="fill" to="#808080" begin="arrowRight.mouseover" end="arrowRight.mouseout"/>
                  </use>
                  <path fill="none" stroke="white" stroke-width="1.5" d="M0,-3.0v7 M-2.5,-0.5L0,-3.0L2.5,-0.5"/>
                </g>
                <g id="arrowDown" xlink:href="#dirArrow" transform="rotate(180) translate(-30 -48)" onmousedown="handlePan(0,1)">
                  <use xlink:href="#rim" fill="#404040">
                        <set attributeName="fill" to="#808080" begin="arrowDown.mouseover" end="arrowDown.mouseout"/>
                  </use>
                  <path fill="none" stroke="white" stroke-width="1.5" d="M0,-3.0v7 M-2.5,-0.5L0,-3.0L2.5,-0.5"/>
                </g>
                <g id="arrowLeft" xlink:href="#dirArrow" transform="rotate(270) translate(-36 17)" onmousedown="handlePan(-1,0)">
                  <use xlink:href="#rim" fill="#404040">
                        <set attributeName="fill" to="#808080" begin="arrowLeft.mouseover" end="arrowLeft.mouseout"/>
                  </use>
                  <path fill="none" stroke="white" stroke-width="1.5" d="M0,-3.0v7 M-2.5,-0.5L0,-3.0L2.5,-0.5"/>
                </g>
        </g>
        <svg viewBox="0 0 15 15" width="100%" height="30px" preserveAspectRatio="xMaxYMin meet">
         <g id="arrow_out" transform="scale(0.3 0.3)">
          <a xlink:href="structleafdraw__class__coll__graph_org.svg" target="_base">
           <rect id="button" ry="5" rx="5" y="6" x="6" height="38" width="38"
                fill="#f2f5e9" fill-opacity="0.5" stroke="#606060" stroke-width="1.0"/>
           <path id="arrow"
             d="M 11.500037,31.436501 C 11.940474,20.09759 22.043105,11.32322 32.158766,21.979434 L 37.068811,17.246167 C 37.068811,17.246167 37.088388,32 37.088388,32 L 22.160133,31.978069 C 22.160133,31.978069 26.997745,27.140456 26.997745,27.140456 C 18.528582,18.264221 13.291696,25.230495 11.500037,31.436501 z"
             style="fill:#404040;"/>
          </a>
         </g>
        </svg>
</svg>
