<?xml version="1.0" encoding="UTF-8" standalone="no"?>
<!DOCTYPE svg PUBLIC "-//W3C//DTD SVG 1.1//EN"
 "http://www.w3.org/Graphics/SVG/1.1/DTD/svg11.dtd">
<!-- Generated by graphviz version 2.46.0 (20210122.1329)
 -->
<!-- Title: mDoCPd_c Pages: 1 -->
<svg width="830pt" height="409pt"
 viewBox="0.00 0.00 829.50 409.00" xmlns="http://www.w3.org/2000/svg" xmlns:xlink="http://www.w3.org/1999/xlink">
<g id="graph0" class="graph" transform="scale(1 1) rotate(0) translate(4 405)">
<title>mDoCPd_c</title>
<polygon fill="white" stroke="transparent" points="-4,4 -4,-405 825.5,-405 825.5,4 -4,4"/>
<!-- Node1 -->
<g id="node1" class="node">
<title>Node1</title>
<g id="a_node1"><a xlink:title=" ">
<polygon fill="#bfbfbf" stroke="black" points="457,-0.5 457,-19.5 523,-19.5 523,-0.5 457,-0.5"/>
<text text-anchor="middle" x="490" y="-7.5" font-family="Helvetica,sans-Serif" font-size="10.00">mDoCPd_c</text>
</a>
</g>
</g>
<!-- Node2 -->
<g id="node2" class="node">
<title>Node2</title>
<g id="a_node2"><a xlink:href="structJUTGamePad.html" target="_top" xlink:title=" ">
<polygon fill="white" stroke="black" points="450.5,-74 450.5,-93 529.5,-93 529.5,-74 450.5,-74"/>
<text text-anchor="middle" x="490" y="-81" font-family="Helvetica,sans-Serif" font-size="10.00">JUTGamePad</text>
</a>
</g>
</g>
<!-- Node2&#45;&gt;Node1 -->
<g id="edge1" class="edge">
<title>Node2&#45;&gt;Node1</title>
<path fill="none" stroke="#9a32cd" stroke-dasharray="5,2" d="M490,-63.59C490,-49.43 490,-30.7 490,-19.84"/>
<polygon fill="#9a32cd" stroke="#9a32cd" points="486.5,-63.73 490,-73.73 493.5,-63.73 486.5,-63.73"/>
<text text-anchor="middle" x="512" y="-41" font-family="Helvetica,sans-Serif" font-size="10.00"> gamePad</text>
</g>
<!-- Node3 -->
<g id="node3" class="node">
<title>Node3</title>
<g id="a_node3"><a xlink:href="classJKRDisposer.html" target="_top" xlink:title=" ">
<polygon fill="white" stroke="black" points="259,-158.5 259,-177.5 333,-177.5 333,-158.5 259,-158.5"/>
<text text-anchor="middle" x="296" y="-165.5" font-family="Helvetica,sans-Serif" font-size="10.00">JKRDisposer</text>
</a>
</g>
</g>
<!-- Node3&#45;&gt;Node2 -->
<g id="edge2" class="edge">
<title>Node3&#45;&gt;Node2</title>
<path fill="none" stroke="midnightblue" d="M319.05,-153.3C337.33,-142.77 363.76,-128.34 388,-118 411.31,-108.05 438.64,-99.22 459.14,-93.12"/>
<polygon fill="midnightblue" stroke="midnightblue" points="317.16,-150.34 310.28,-158.4 320.68,-156.39 317.16,-150.34"/>
</g>
<!-- Node4 -->
<g id="node4" class="node">
<title>Node4</title>
<g id="a_node4"><a xlink:href="classJKRHeap.html" target="_top" xlink:title=" ">
<polygon fill="white" stroke="black" points="188.5,-74 188.5,-93 247.5,-93 247.5,-74 188.5,-74"/>
<text text-anchor="middle" x="218" y="-81" font-family="Helvetica,sans-Serif" font-size="10.00">JKRHeap</text>
</a>
</g>
</g>
<!-- Node3&#45;&gt;Node4 -->
<g id="edge4" class="edge">
<title>Node3&#45;&gt;Node4</title>
<path fill="none" stroke="midnightblue" d="M275.71,-152.13C271.03,-148.37 266.2,-144.2 262,-140 246.88,-124.87 231.99,-104.66 224,-93.28"/>
<polygon fill="midnightblue" stroke="midnightblue" points="273.74,-155.04 283.79,-158.38 278.02,-149.5 273.74,-155.04"/>
</g>
<!-- Node4&#45;&gt;Node3 -->
<g id="edge3" class="edge">
<title>Node4&#45;&gt;Node3</title>
<path fill="none" stroke="#9a32cd" stroke-dasharray="5,2" d="M239.89,-99.06C247.33,-104.54 255.42,-111.12 262,-118 274.17,-130.72 285.17,-148.15 291.19,-158.43"/>
<polygon fill="#9a32cd" stroke="#9a32cd" points="241.77,-96.11 231.59,-93.19 237.73,-101.82 241.77,-96.11"/>
<text text-anchor="middle" x="297" y="-126.5" font-family="Helvetica,sans-Serif" font-size="10.00"> mHeap</text>
</g>
<!-- Node4&#45;&gt;Node4 -->
<g id="edge5" class="edge">
<title>Node4&#45;&gt;Node4</title>
<path fill="none" stroke="#9a32cd" stroke-dasharray="5,2" d="M257.67,-89.95C262.41,-88.77 265.5,-86.62 265.5,-83.5 265.5,-78.5 257.58,-76 247.69,-76"/>
<polygon fill="#9a32cd" stroke="#9a32cd" points="257.26,-86.47 247.69,-91 258,-93.43 257.26,-86.47"/>
<text text-anchor="middle" x="297" y="-92" font-family="Helvetica,sans-Serif" font-size="10.00"> sCurrentHeap</text>
<text text-anchor="middle" x="297" y="-81" font-family="Helvetica,sans-Serif" font-size="10.00">sRootHeap</text>
<text text-anchor="middle" x="297" y="-70" font-family="Helvetica,sans-Serif" font-size="10.00">sSystemHeap</text>
</g>
<!-- Node5 -->
<g id="node5" class="node">
<title>Node5</title>
<g id="a_node5"><a xlink:href="classJSUTree.html" target="_top" xlink:title=" ">
<polygon fill="white" stroke="black" points="0,-158.5 0,-177.5 114,-177.5 114,-158.5 0,-158.5"/>
<text text-anchor="middle" x="57" y="-165.5" font-family="Helvetica,sans-Serif" font-size="10.00">JSUTree&lt; JKRHeap &gt;</text>
</a>
</g>
</g>
<!-- Node5&#45;&gt;Node4 -->
<g id="edge6" class="edge">
<title>Node5&#45;&gt;Node4</title>
<path fill="none" stroke="#9a32cd" stroke-dasharray="5,2" d="M69.62,-150.29C78.46,-139.65 91.13,-126.35 105,-118 130.94,-102.38 164.66,-93.62 188.49,-89.02"/>
<polygon fill="#9a32cd" stroke="#9a32cd" points="66.63,-148.42 63.16,-158.43 72.11,-152.77 66.63,-148.42"/>
<text text-anchor="middle" x="131" y="-126.5" font-family="Helvetica,sans-Serif" font-size="10.00"> mChildTree</text>
</g>
<!-- Node6 -->
<g id="node6" class="node">
<title>Node6</title>
<g id="a_node6"><a xlink:href="structOSMutex.html" target="_top" xlink:title=" ">
<polygon fill="white" stroke="black" points="132.5,-158.5 132.5,-177.5 189.5,-177.5 189.5,-158.5 132.5,-158.5"/>
<text text-anchor="middle" x="161" y="-165.5" font-family="Helvetica,sans-Serif" font-size="10.00">OSMutex</text>
</a>
</g>
</g>
<!-- Node6&#45;&gt;Node4 -->
<g id="edge7" class="edge">
<title>Node6&#45;&gt;Node4</title>
<path fill="none" stroke="#9a32cd" stroke-dasharray="5,2" d="M159.68,-148.12C159.86,-138.46 161.48,-126.9 167,-118 173.99,-106.75 186.31,-98.5 197.09,-93"/>
<polygon fill="#9a32cd" stroke="#9a32cd" points="156.18,-148.42 159.97,-158.32 163.18,-148.22 156.18,-148.42"/>
<text text-anchor="middle" x="185.5" y="-126.5" font-family="Helvetica,sans-Serif" font-size="10.00"> mMutex</text>
</g>
<!-- Node7 -->
<g id="node7" class="node">
<title>Node7</title>
<g id="a_node7"><a xlink:href="classJSUList.html" target="_top" xlink:title=" ">
<polygon fill="white" stroke="black" points="157,-263.5 157,-282.5 283,-282.5 283,-263.5 157,-263.5"/>
<text text-anchor="middle" x="220" y="-270.5" font-family="Helvetica,sans-Serif" font-size="10.00">JSUList&lt; JKRDisposer &gt;</text>
</a>
</g>
</g>
<!-- Node7&#45;&gt;Node4 -->
<g id="edge8" class="edge">
<title>Node7&#45;&gt;Node4</title>
<path fill="none" stroke="#9a32cd" stroke-dasharray="5,2" d="M219.8,-253.29C219.38,-213.47 218.4,-121.6 218.09,-93.09"/>
<polygon fill="#9a32cd" stroke="#9a32cd" points="216.3,-253.49 219.91,-263.46 223.3,-253.42 216.3,-253.49"/>
<text text-anchor="middle" x="253" y="-199" font-family="Helvetica,sans-Serif" font-size="10.00"> mDisposerList</text>
</g>
<!-- Node8 -->
<g id="node8" class="node">
<title>Node8</title>
<g id="a_node8"><a xlink:href="classJSUPtrList.html" target="_top" xlink:title=" ">
<polygon fill="white" stroke="black" points="226.5,-381.5 226.5,-400.5 291.5,-400.5 291.5,-381.5 226.5,-381.5"/>
<text text-anchor="middle" x="259" y="-388.5" font-family="Helvetica,sans-Serif" font-size="10.00">JSUPtrList</text>
</a>
</g>
</g>
<!-- Node8&#45;&gt;Node7 -->
<g id="edge9" class="edge">
<title>Node8&#45;&gt;Node7</title>
<path fill="none" stroke="midnightblue" d="M251.34,-371.78C250.18,-368.86 249.03,-365.86 248,-363 237.51,-333.89 227.09,-298.68 222.47,-282.67"/>
<polygon fill="midnightblue" stroke="midnightblue" points="248.12,-373.14 255.15,-381.07 254.59,-370.49 248.12,-373.14"/>
</g>
<!-- Node9 -->
<g id="node9" class="node">
<title>Node9</title>
<g id="a_node9"><a xlink:href="classJSUPtrLink.html" target="_top" xlink:title=" ">
<polygon fill="white" stroke="black" points="276,-302.5 276,-321.5 344,-321.5 344,-302.5 276,-302.5"/>
<text text-anchor="middle" x="310" y="-309.5" font-family="Helvetica,sans-Serif" font-size="10.00">JSUPtrLink</text>
</a>
</g>
</g>
<!-- Node8&#45;&gt;Node9 -->
<g id="edge12" class="edge">
<title>Node8&#45;&gt;Node9</title>
<path fill="none" stroke="#9a32cd" stroke-dasharray="5,2" d="M253.03,-371.44C251.04,-361.72 250.53,-350 256,-341 261.43,-332.07 270.74,-325.86 280.11,-321.6"/>
<polygon fill="#9a32cd" stroke="#9a32cd" points="249.7,-372.56 255.66,-381.32 256.47,-370.75 249.7,-372.56"/>
<text text-anchor="middle" x="270" y="-349.5" font-family="Helvetica,sans-Serif" font-size="10.00"> mList</text>
</g>
<!-- Node9&#45;&gt;Node2 -->
<g id="edge17" class="edge">
<title>Node9&#45;&gt;Node2</title>
<path fill="none" stroke="#9a32cd" stroke-dasharray="5,2" d="M330.52,-296.33C346.49,-284.07 368.35,-265.36 383,-245 407.65,-210.75 397.78,-193.23 421,-158 438.34,-131.7 465.41,-106.05 479.95,-93.13"/>
<polygon fill="#9a32cd" stroke="#9a32cd" points="328.24,-293.66 322.33,-302.45 332.43,-299.27 328.24,-293.66"/>
<text text-anchor="middle" x="422" y="-199" font-family="Helvetica,sans-Serif" font-size="10.00"> ptr_link</text>
</g>
<!-- Node9&#45;&gt;Node8 -->
<g id="edge10" class="edge">
<title>Node9&#45;&gt;Node8</title>
<path fill="none" stroke="#9a32cd" stroke-dasharray="5,2" d="M303.99,-331.32C300.26,-341.22 294.86,-353.35 288,-363 283.06,-369.95 276.1,-376.51 270.24,-381.41"/>
<polygon fill="#9a32cd" stroke="#9a32cd" points="307.37,-332.28 307.38,-321.69 300.76,-329.96 307.37,-332.28"/>
<text text-anchor="middle" x="317" y="-355" font-family="Helvetica,sans-Serif" font-size="10.00"> mHead</text>
<text text-anchor="middle" x="317" y="-344" font-family="Helvetica,sans-Serif" font-size="10.00">mTail</text>
</g>
<!-- Node9&#45;&gt;Node9 -->
<g id="edge11" class="edge">
<title>Node9&#45;&gt;Node9</title>
<path fill="none" stroke="#9a32cd" stroke-dasharray="5,2" d="M354.15,-317.96C358.92,-316.82 362,-314.83 362,-312 362,-307.47 354.13,-305.1 344.01,-304.89"/>
<polygon fill="#9a32cd" stroke="#9a32cd" points="353.55,-314.51 344.01,-319.11 354.34,-321.46 353.55,-314.51"/>
<text text-anchor="middle" x="377.5" y="-315" font-family="Helvetica,sans-Serif" font-size="10.00"> mNext</text>
<text text-anchor="middle" x="377.5" y="-304" font-family="Helvetica,sans-Serif" font-size="10.00">mPrev</text>
</g>
<!-- Node10 -->
<g id="node10" class="node">
<title>Node10</title>
<g id="a_node10"><a xlink:href="classJSULink.html" target="_top" xlink:title=" ">
<polygon fill="white" stroke="black" points="246,-225.5 246,-244.5 374,-244.5 374,-225.5 246,-225.5"/>
<text text-anchor="middle" x="310" y="-232.5" font-family="Helvetica,sans-Serif" font-size="10.00">JSULink&lt; JKRDisposer &gt;</text>
</a>
</g>
</g>
<!-- Node9&#45;&gt;Node10 -->
<g id="edge14" class="edge">
<title>Node9&#45;&gt;Node10</title>
<path fill="none" stroke="midnightblue" d="M310,-292.02C310,-276.74 310,-255.98 310,-244.5"/>
<polygon fill="midnightblue" stroke="midnightblue" points="306.5,-292.4 310,-302.4 313.5,-292.4 306.5,-292.4"/>
</g>
<!-- Node10&#45;&gt;Node3 -->
<g id="edge13" class="edge">
<title>Node10&#45;&gt;Node3</title>
<path fill="none" stroke="#9a32cd" stroke-dasharray="5,2" d="M306,-215.41C303.32,-202.99 299.92,-187.22 297.86,-177.63"/>
<polygon fill="#9a32cd" stroke="#9a32cd" points="302.58,-216.19 308.11,-225.23 309.43,-214.72 302.58,-216.19"/>
<text text-anchor="middle" x="319" y="-199" font-family="Helvetica,sans-Serif" font-size="10.00"> mLink</text>
</g>
<!-- Node11 -->
<g id="node11" class="node">
<title>Node11</title>
<g id="a_node11"><a xlink:href="structJUTGamePad_1_1CButton.html" target="_top" xlink:title=" ">
<polygon fill="white" stroke="black" points="430.5,-158.5 430.5,-177.5 549.5,-177.5 549.5,-158.5 430.5,-158.5"/>
<text text-anchor="middle" x="490" y="-165.5" font-family="Helvetica,sans-Serif" font-size="10.00">JUTGamePad::CButton</text>
</a>
</g>
</g>
<!-- Node11&#45;&gt;Node2 -->
<g id="edge15" class="edge">
<title>Node11&#45;&gt;Node2</title>
<path fill="none" stroke="#9a32cd" stroke-dasharray="5,2" d="M490,-148.43C490,-131.13 490,-106.11 490,-93.1"/>
<polygon fill="#9a32cd" stroke="#9a32cd" points="486.5,-148.48 490,-158.48 493.5,-148.48 486.5,-148.48"/>
<text text-anchor="middle" x="507.5" y="-126.5" font-family="Helvetica,sans-Serif" font-size="10.00"> buttons</text>
</g>
<!-- Node12 -->
<g id="node12" class="node">
<title>Node12</title>
<g id="a_node12"><a xlink:href="structJUTGamePad_1_1CStick.html" target="_top" xlink:title=" ">
<polygon fill="white" stroke="black" points="567.5,-158.5 567.5,-177.5 680.5,-177.5 680.5,-158.5 567.5,-158.5"/>
<text text-anchor="middle" x="624" y="-165.5" font-family="Helvetica,sans-Serif" font-size="10.00">JUTGamePad::CStick</text>
</a>
</g>
</g>
<!-- Node12&#45;&gt;Node2 -->
<g id="edge16" class="edge">
<title>Node12&#45;&gt;Node2</title>
<path fill="none" stroke="#9a32cd" stroke-dasharray="5,2" d="M601.5,-153.15C573.66,-136.01 527.12,-107.35 503.96,-93.1"/>
<polygon fill="#9a32cd" stroke="#9a32cd" points="599.81,-156.22 610.16,-158.48 603.48,-150.26 599.81,-156.22"/>
<text text-anchor="middle" x="604" y="-132" font-family="Helvetica,sans-Serif" font-size="10.00"> c_stick</text>
<text text-anchor="middle" x="604" y="-121" font-family="Helvetica,sans-Serif" font-size="10.00">control_stick</text>
</g>
<!-- Node13 -->
<g id="node13" class="node">
<title>Node13</title>
<g id="a_node13"><a xlink:href="structJUTGamePad_1_1CRumble.html" target="_top" xlink:title=" ">
<polygon fill="white" stroke="black" points="698.5,-158.5 698.5,-177.5 821.5,-177.5 821.5,-158.5 698.5,-158.5"/>
<text text-anchor="middle" x="760" y="-165.5" font-family="Helvetica,sans-Serif" font-size="10.00">JUTGamePad::CRumble</text>
</a>
</g>
</g>
<!-- Node13&#45;&gt;Node2 -->
<g id="edge18" class="edge">
<title>Node13&#45;&gt;Node2</title>
<path fill="none" stroke="#9a32cd" stroke-dasharray="5,2" d="M731.79,-154.44C706.94,-143.72 669.57,-128.42 636,-118 600.61,-107.02 559.38,-97.88 529.78,-91.94"/>
<polygon fill="#9a32cd" stroke="#9a32cd" points="730.43,-157.66 740.99,-158.45 733.22,-151.24 730.43,-157.66"/>
<text text-anchor="middle" x="710" y="-126.5" font-family="Helvetica,sans-Serif" font-size="10.00"> rumble</text>
</g>
</g>
</svg>
