<?xml version="1.0" encoding="UTF-8" standalone="no"?>
<!DOCTYPE svg PUBLIC "-//W3C//DTD SVG 1.1//EN"
 "http://www.w3.org/Graphics/SVG/1.1/DTD/svg11.dtd">
<!-- Generated by graphviz version 2.46.0 (20210122.1329)
 -->
<!-- Title: line_tag Pages: 1 -->
<svg width="165pt" height="164pt"
 viewBox="0.00 0.00 164.50 164.00" xmlns="http://www.w3.org/2000/svg" xmlns:xlink="http://www.w3.org/1999/xlink">
<g id="graph0" class="graph" transform="scale(1 1) rotate(0) translate(4 160)">
<title>line_tag</title>
<polygon fill="white" stroke="transparent" points="-4,4 -4,-160 160.5,-160 160.5,4 -4,4"/>
<!-- Node1 -->
<g id="node1" class="node">
<title>Node1</title>
<g id="a_node1"><a xlink:title=" ">
<polygon fill="#bfbfbf" stroke="black" points="20.5,-0.5 20.5,-19.5 70.5,-19.5 70.5,-0.5 20.5,-0.5"/>
<text text-anchor="middle" x="45.5" y="-7.5" font-family="Helvetica,sans-Serif" font-size="10.00">line_tag</text>
</a>
</g>
</g>
<!-- Node2 -->
<g id="node2" class="node">
<title>Node2</title>
<g id="a_node2"><a xlink:href="structcreate__tag__class.html" target="_top" xlink:title=" ">
<polygon fill="white" stroke="black" points="0,-67.5 0,-86.5 91,-86.5 91,-67.5 0,-67.5"/>
<text text-anchor="middle" x="45.5" y="-74.5" font-family="Helvetica,sans-Serif" font-size="10.00">create_tag_class</text>
</a>
</g>
</g>
<!-- Node2&#45;&gt;Node1 -->
<g id="edge1" class="edge">
<title>Node2&#45;&gt;Node1</title>
<path fill="none" stroke="#9a32cd" stroke-dasharray="5,2" d="M45.5,-57.04C45.5,-44.67 45.5,-29.12 45.5,-19.63"/>
<polygon fill="#9a32cd" stroke="#9a32cd" points="42,-57.23 45.5,-67.23 49,-57.23 42,-57.23"/>
<text text-anchor="middle" x="62.5" y="-41" font-family="Helvetica,sans-Serif" font-size="10.00"> mBase</text>
</g>
<!-- Node3 -->
<g id="node3" class="node">
<title>Node3</title>
<g id="a_node3"><a xlink:href="structnode__class.html" target="_top" xlink:title=" ">
<polygon fill="white" stroke="black" points="12.5,-135.5 12.5,-154.5 78.5,-154.5 78.5,-135.5 12.5,-135.5"/>
<text text-anchor="middle" x="45.5" y="-142.5" font-family="Helvetica,sans-Serif" font-size="10.00">node_class</text>
</a>
</g>
</g>
<!-- Node3&#45;&gt;Node2 -->
<g id="edge2" class="edge">
<title>Node3&#45;&gt;Node2</title>
<path fill="none" stroke="#9a32cd" stroke-dasharray="5,2" d="M45.5,-125.04C45.5,-112.47 45.5,-96.56 45.5,-86.84"/>
<polygon fill="#9a32cd" stroke="#9a32cd" points="42,-125.37 45.5,-135.37 49,-125.37 42,-125.37"/>
<text text-anchor="middle" x="65.5" y="-108" font-family="Helvetica,sans-Serif" font-size="10.00"> mpNode</text>
</g>
<!-- Node3&#45;&gt;Node3 -->
<g id="edge3" class="edge">
<title>Node3&#45;&gt;Node3</title>
<path fill="none" stroke="#9a32cd" stroke-dasharray="5,2" d="M89.15,-150.25C93.63,-149.22 96.5,-147.47 96.5,-145 96.5,-140.95 88.78,-138.83 78.85,-138.64"/>
<polygon fill="#9a32cd" stroke="#9a32cd" points="88.42,-146.81 78.85,-151.36 89.17,-153.77 88.42,-146.81"/>
<text text-anchor="middle" x="126.5" y="-148" font-family="Helvetica,sans-Serif" font-size="10.00"> mpNextNode</text>
<text text-anchor="middle" x="126.5" y="-137" font-family="Helvetica,sans-Serif" font-size="10.00">mpPrevNode</text>
</g>
</g>
</svg>
