<?xml version="1.0" encoding="UTF-8" standalone="no"?>
<!DOCTYPE svg PUBLIC "-//W3C//DTD SVG 1.1//EN"
 "http://www.w3.org/Graphics/SVG/1.1/DTD/svg11.dtd">
<!-- Generated by graphviz version 2.46.1 (20210215.1649)
 -->
<!-- Title: node_method_data Pages: 1 -->
<svg width="169pt" height="97pt"
 viewBox="0.00 0.00 168.50 97.00" xmlns="http://www.w3.org/2000/svg" xmlns:xlink="http://www.w3.org/1999/xlink">
<g id="graph0" class="graph" transform="scale(1 1) rotate(0) translate(4 93)">
<title>node_method_data</title>
<polygon fill="white" stroke="transparent" points="-4,4 -4,-93 164.5,-93 164.5,4 -4,4"/>
<!-- Node1 -->
<g id="node1" class="node">
<title>Node1</title>
<g id="a_node1"><a xlink:title=" ">
<polygon fill="#bfbfbf" stroke="black" points="0,-0.5 0,-19.5 99,-19.5 99,-0.5 0,-0.5"/>
<text text-anchor="middle" x="49.5" y="-7.5" font-family="Helvetica,sans-Serif" font-size="10.00">node_method_data</text>
</a>
</g>
</g>
<!-- Node2 -->
<g id="node2" class="node">
<title>Node2</title>
<g id="a_node2"><a xlink:href="structnode__class.html" target="_top" xlink:title=" ">
<polygon fill="white" stroke="black" points="16.5,-68.5 16.5,-87.5 82.5,-87.5 82.5,-68.5 16.5,-68.5"/>
<text text-anchor="middle" x="49.5" y="-75.5" font-family="Helvetica,sans-Serif" font-size="10.00">node_class</text>
</a>
</g>
</g>
<!-- Node2&#45;&gt;Node1 -->
<g id="edge1" class="edge">
<title>Node2&#45;&gt;Node1</title>
<path fill="none" stroke="#9a32cd" stroke-dasharray="5,2" d="M49.5,-58.04C49.5,-45.47 49.5,-29.56 49.5,-19.84"/>
<polygon fill="#9a32cd" stroke="#9a32cd" points="46,-58.37 49.5,-68.37 53,-58.37 46,-58.37"/>
<text text-anchor="middle" x="66" y="-41" font-family="Helvetica,sans-Serif" font-size="10.00"> mFunc</text>
</g>
<!-- Node2&#45;&gt;Node2 -->
<g id="edge2" class="edge">
<title>Node2&#45;&gt;Node2</title>
<path fill="none" stroke="#9a32cd" stroke-dasharray="5,2" d="M93.15,-83.25C97.63,-82.22 100.5,-80.47 100.5,-78 100.5,-73.95 92.78,-71.83 82.85,-71.64"/>
<polygon fill="#9a32cd" stroke="#9a32cd" points="92.42,-79.81 82.85,-84.36 93.17,-86.77 92.42,-79.81"/>
<text text-anchor="middle" x="130.5" y="-81" font-family="Helvetica,sans-Serif" font-size="10.00"> mpNextNode</text>
<text text-anchor="middle" x="130.5" y="-70" font-family="Helvetica,sans-Serif" font-size="10.00">mpPrevNode</text>
</g>
</g>
</svg>
