<?xml version="1.0" encoding="UTF-8" standalone="no"?>
<!DOCTYPE svg PUBLIC "-//W3C//DTD SVG 1.1//EN"
 "http://www.w3.org/Graphics/SVG/1.1/DTD/svg11.dtd">
<!-- Generated by graphviz version 2.46.1 (20210215.1649)
 -->
<!-- Title: JStudio::TFunctionValue_hermite Pages: 1 -->
<svg width="347pt" height="127pt"
 viewBox="0.00 0.00 347.00 126.50" xmlns="http://www.w3.org/2000/svg" xmlns:xlink="http://www.w3.org/1999/xlink">
<g id="graph0" class="graph" transform="scale(1 1) rotate(0) translate(4 122.5)">
<title>JStudio::TFunctionValue_hermite</title>
<polygon fill="white" stroke="transparent" points="-4,4 -4,-122.5 343,-122.5 343,4 -4,4"/>
<!-- Node1 -->
<g id="node1" class="node">
<title>Node1</title>
<g id="a_node1"><a xlink:title=" ">
<polygon fill="#bfbfbf" stroke="black" points="217,-49.5 217,-79.5 339,-79.5 339,-49.5 217,-49.5"/>
<text text-anchor="start" x="225" y="-67.5" font-family="Helvetica,sans-Serif" font-size="10.00">JStudio::TFunctionValue</text>
<text text-anchor="middle" x="278" y="-56.5" font-family="Helvetica,sans-Serif" font-size="10.00">_hermite</text>
</a>
</g>
</g>
<!-- Node2 -->
<g id="node2" class="node">
<title>Node2</title>
<g id="a_node2"><a xlink:href="structJStudio_1_1TFunctionValue.html" target="_top" xlink:title=" ">
<polygon fill="white" stroke="black" points="18.5,-99 18.5,-118 140.5,-118 140.5,-99 18.5,-99"/>
<text text-anchor="middle" x="79.5" y="-106" font-family="Helvetica,sans-Serif" font-size="10.00">JStudio::TFunctionValue</text>
</a>
</g>
</g>
<!-- Node2&#45;&gt;Node1 -->
<g id="edge1" class="edge">
<title>Node2&#45;&gt;Node1</title>
<path fill="none" stroke="midnightblue" d="M133.11,-96.72C158.94,-90.94 190.17,-83.94 216.93,-77.95"/>
<polygon fill="midnightblue" stroke="midnightblue" points="132.13,-93.35 123.14,-98.95 133.66,-100.18 132.13,-93.35"/>
</g>
<!-- Node3 -->
<g id="node3" class="node">
<title>Node3</title>
<g id="a_node3"><a xlink:href="structJStudio_1_1TFunctionValueAttribute__range.html" target="_top" xlink:title=" ">
<polygon fill="white" stroke="black" points="0,-49.5 0,-79.5 159,-79.5 159,-49.5 0,-49.5"/>
<text text-anchor="start" x="8" y="-67.5" font-family="Helvetica,sans-Serif" font-size="10.00">JStudio::TFunctionValueAttribute</text>
<text text-anchor="middle" x="79.5" y="-56.5" font-family="Helvetica,sans-Serif" font-size="10.00">_range</text>
</a>
</g>
</g>
<!-- Node3&#45;&gt;Node1 -->
<g id="edge2" class="edge">
<title>Node3&#45;&gt;Node1</title>
<path fill="none" stroke="midnightblue" d="M169.47,-64.5C185.48,-64.5 201.82,-64.5 216.78,-64.5"/>
<polygon fill="midnightblue" stroke="midnightblue" points="169.01,-61 159.01,-64.5 169.01,-68 169.01,-61"/>
</g>
<!-- Node4 -->
<g id="node4" class="node">
<title>Node4</title>
<g id="a_node4"><a xlink:href="structJStudio_1_1TFunctionValue__hermite_1_1TIterator__data__.html" target="_top" xlink:title=" ">
<polygon fill="white" stroke="black" points="17,-0.5 17,-30.5 142,-30.5 142,-0.5 17,-0.5"/>
<text text-anchor="start" x="25" y="-18.5" font-family="Helvetica,sans-Serif" font-size="10.00">JStudio::TFunctionValue</text>
<text text-anchor="middle" x="79.5" y="-7.5" font-family="Helvetica,sans-Serif" font-size="10.00">_hermite::TIterator_data_</text>
</a>
</g>
</g>
<!-- Node4&#45;&gt;Node1 -->
<g id="edge3" class="edge">
<title>Node4&#45;&gt;Node1</title>
<path fill="none" stroke="#9a32cd" stroke-dasharray="5,2" d="M152.26,-18.79C167.86,-20.61 184.13,-23.35 199,-27.5 217.19,-32.57 236.37,-41.61 251.16,-49.49"/>
<polygon fill="#9a32cd" stroke="#9a32cd" points="152.45,-15.29 142.14,-17.73 151.72,-22.25 152.45,-15.29"/>
<text text-anchor="middle" x="188" y="-52.5" font-family="Helvetica,sans-Serif" font-size="10.00"> dat1</text>
<text text-anchor="middle" x="188" y="-41.5" font-family="Helvetica,sans-Serif" font-size="10.00">dat2</text>
<text text-anchor="middle" x="188" y="-30.5" font-family="Helvetica,sans-Serif" font-size="10.00">dat3</text>
</g>
</g>
</svg>
