<?xml version="1.0" encoding="UTF-8" standalone="no"?>
<!DOCTYPE svg PUBLIC "-//W3C//DTD SVG 1.1//EN"
 "http://www.w3.org/Graphics/SVG/1.1/DTD/svg11.dtd">
<!-- Generated by graphviz version 2.46.0 (20210122.1329)
 -->
<!-- Title: process_node_class Pages: 1 -->
<!--zoomable 589 -->
<svg id="main" version="1.1" xmlns="http://www.w3.org/2000/svg" xmlns:xlink="http://www.w3.org/1999/xlink" xml:space="preserve" onload="init(evt)">
<style type="text/css"><![CDATA[
.edge:hover path { stroke: red; }
.edge:hover polygon { stroke: red; fill: red; }
]]></style>
<script type="text/javascript"><![CDATA[
var edges = document.getElementsByTagName('g');
if (edges && edges.length) {
  for (var i=0;i<edges.length;i++) {
    if (edges[i].id.substr(0,4)=='edge') {
      edges[i].setAttribute('class','edge');
    }
  }
}
]]></script>
        <defs>
                <circle id="rim" cx="0" cy="0" r="7"/>
                <circle id="rim2" cx="0" cy="0" r="3.5"/>
                <g id="zoomPlus">
                        <use xlink:href="#rim" fill="#404040">
                                <set attributeName="fill" to="#808080" begin="zoomplus.mouseover" end="zoomplus.mouseout"/>
                        </use>
                        <path d="M-4,0h8M0,-4v8" fill="none" stroke="white" stroke-width="1.5" pointer-events="none"/>
                </g>
                <g id="zoomMin">
                        <use xlink:href="#rim" fill="#404040">
                                <set attributeName="fill" to="#808080" begin="zoomminus.mouseover" end="zoomminus.mouseout"/>
                        </use>
                        <path d="M-4,0h8" fill="none" stroke="white" stroke-width="1.5" pointer-events="none"/>
                </g>
                <g id="dirArrow">
                        <path fill="none" stroke="white" stroke-width="1.5" d="M0,-3.0v7 M-2.5,-0.5L0,-3.0L2.5,-0.5"/>
                </g>
               <g id="resetDef">
                       <use xlink:href="#rim2" fill="#404040">
                               <set attributeName="fill" to="#808080" begin="reset.mouseover" end="reset.mouseout"/>
                       </use>
               </g>
        </defs>

<script type="text/javascript">
var viewWidth = 1428;
var viewHeight = 589;
var sectionId = 'dynsection-0';
</script>
<script xlink:href="svgpan.js"/>
<svg id="graph" class="graph">
<g id="viewport">
<title>process_node_class</title>
<polygon fill="white" stroke="transparent" points="-4,4 -4,-585 1424,-585 1424,4 -4,4"/>
<!-- Node1 -->
<g id="node1" class="node">
<title>Node1</title>
<g id="a_node1"><a xlink:title=" ">
<polygon fill="#bfbfbf" stroke="black" points="486.5,-145.5 486.5,-164.5 592.5,-164.5 592.5,-145.5 486.5,-145.5"/>
<text text-anchor="middle" x="539.5" y="-152.5" font-family="Helvetica,sans-Serif" font-size="10.00">process_node_class</text>
</a>
</g>
</g>
<!-- Node12 -->
<g id="node12" class="node">
<title>Node12</title>
<g id="a_node12"><a xlink:href="structlayer__class.html" target="_top" xlink:title=" ">
<polygon fill="white" stroke="black" points="737,-111.5 737,-130.5 802,-130.5 802,-111.5 737,-111.5"/>
<text text-anchor="middle" x="769.5" y="-118.5" font-family="Helvetica,sans-Serif" font-size="10.00">layer_class</text>
</a>
</g>
</g>
<!-- Node1&#45;&gt;Node12 -->
<g id="edge16" class="edge">
<title>Node1&#45;&gt;Node12</title>
<path fill="none" stroke="#9a32cd" stroke-dasharray="5,2" d="M565.38,-140.52C578.97,-133.43 596.37,-125.66 613,-122 655.05,-112.74 705.07,-114.63 736.8,-117.37"/>
<polygon fill="#9a32cd" stroke="#9a32cd" points="563.35,-137.64 556.23,-145.48 566.69,-143.79 563.35,-137.64"/>
<text text-anchor="middle" x="648" y="-125" font-family="Helvetica,sans-Serif" font-size="10.00"> mpPcNode</text>
</g>
<!-- Node2 -->
<g id="node2" class="node">
<title>Node2</title>
<g id="a_node2"><a xlink:href="structbase__process__class.html" target="_top" xlink:title=" ">
<polygon fill="white" stroke="black" points="1135.5,-321.5 1135.5,-340.5 1241.5,-340.5 1241.5,-321.5 1135.5,-321.5"/>
<text text-anchor="middle" x="1188.5" y="-328.5" font-family="Helvetica,sans-Serif" font-size="10.00">base_process_class</text>
</a>
</g>
</g>
<!-- Node2&#45;&gt;Node1 -->
<g id="edge1" class="edge">
<title>Node2&#45;&gt;Node1</title>
<path fill="none" stroke="#9a32cd" stroke-dasharray="5,2" d="M1162.15,-316.28C1135.72,-301.53 1092.68,-279.17 1053,-266 968.12,-237.83 943.43,-243.8 856,-225 757.95,-203.92 643.01,-178.15 582.56,-164.52"/>
<polygon fill="#9a32cd" stroke="#9a32cd" points="1160.68,-319.46 1171.1,-321.34 1164.12,-313.37 1160.68,-319.46"/>
<text text-anchor="middle" x="887" y="-240" font-family="Helvetica,sans-Serif" font-size="10.00"> mBase</text>
</g>
<!-- Node15 -->
<g id="node15" class="node">
<title>Node15</title>
<g id="a_node15"><a xlink:href="structcreate__request.html" target="_top" xlink:title=" ">
<polygon fill="white" stroke="black" points="1339,-321.5 1339,-340.5 1420,-340.5 1420,-321.5 1339,-321.5"/>
<text text-anchor="middle" x="1379.5" y="-328.5" font-family="Helvetica,sans-Serif" font-size="10.00">create_request</text>
</a>
</g>
</g>
<!-- Node2&#45;&gt;Node15 -->
<g id="edge25" class="edge">
<title>Node2&#45;&gt;Node15</title>
<path fill="none" stroke="#9a32cd" stroke-dasharray="5,2" d="M1240.68,-319.55C1249.1,-318.07 1257.76,-316.8 1266,-316 1290.33,-313.64 1296.75,-312.89 1321,-316 1329.8,-317.13 1339.18,-319.19 1347.75,-321.43"/>
<polygon fill="#9a32cd" stroke="#9a32cd" points="1239.76,-316.16 1230.57,-321.43 1241.05,-323.04 1239.76,-316.16"/>
<text text-anchor="middle" x="1293.5" y="-319" font-family="Helvetica,sans-Serif" font-size="10.00"> mpRes</text>
</g>
<!-- Node3 -->
<g id="node3" class="node">
<title>Node3</title>
<g id="a_node3"><a xlink:href="structprocess__priority__class.html" target="_top" xlink:title=" ">
<polygon fill="white" stroke="black" points="938,-372.5 938,-391.5 1051,-391.5 1051,-372.5 938,-372.5"/>
<text text-anchor="middle" x="994.5" y="-379.5" font-family="Helvetica,sans-Serif" font-size="10.00">process_priority_class</text>
</a>
</g>
</g>
<!-- Node3&#45;&gt;Node2 -->
<g id="edge2" class="edge">
<title>Node3&#45;&gt;Node2</title>
<path fill="none" stroke="#9a32cd" stroke-dasharray="5,2" d="M1041.69,-369.73C1075.42,-360.77 1120.49,-348.8 1151.55,-340.55"/>
<polygon fill="#9a32cd" stroke="#9a32cd" points="1040.38,-366.46 1031.61,-372.41 1042.18,-373.22 1040.38,-366.46"/>
<text text-anchor="middle" x="1091" y="-364" font-family="Helvetica,sans-Serif" font-size="10.00"> mPi</text>
</g>
<!-- Node4 -->
<g id="node4" class="node">
<title>Node4</title>
<g id="a_node4"><a xlink:href="structprocess__priority__queue__info.html" target="_top" xlink:title=" ">
<polygon fill="white" stroke="black" points="701,-340.5 701,-359.5 838,-359.5 838,-340.5 701,-340.5"/>
<text text-anchor="middle" x="769.5" y="-347.5" font-family="Helvetica,sans-Serif" font-size="10.00">process_priority_queue_info</text>
</a>
</g>
</g>
<!-- Node4&#45;&gt;Node3 -->
<g id="edge3" class="edge">
<title>Node4&#45;&gt;Node3</title>
<path fill="none" stroke="#9a32cd" stroke-dasharray="5,2" d="M848.46,-345.78C871.07,-345.97 895.67,-347.57 918,-352 938.2,-356.01 959.92,-365.2 974.85,-372.36"/>
<polygon fill="#9a32cd" stroke="#9a32cd" points="848.22,-342.28 838.23,-345.78 848.23,-349.28 848.22,-342.28"/>
<text text-anchor="middle" x="887" y="-366" font-family="Helvetica,sans-Serif" font-size="10.00"> mInfoCurr</text>
<text text-anchor="middle" x="887" y="-355" font-family="Helvetica,sans-Serif" font-size="10.00">mInfoQ</text>
</g>
<!-- Node5 -->
<g id="node5" class="node">
<title>Node5</title>
<g id="a_node5"><a xlink:href="structcreate__tag__class.html" target="_top" xlink:title=" ">
<polygon fill="white" stroke="black" points="494,-302.5 494,-321.5 585,-321.5 585,-302.5 494,-302.5"/>
<text text-anchor="middle" x="539.5" y="-309.5" font-family="Helvetica,sans-Serif" font-size="10.00">create_tag_class</text>
</a>
</g>
</g>
<!-- Node5&#45;&gt;Node3 -->
<g id="edge4" class="edge">
<title>Node5&#45;&gt;Node3</title>
<path fill="none" stroke="#9a32cd" stroke-dasharray="5,2" d="M570.53,-325.71C602.22,-339.44 653.99,-359.82 701,-369 782.32,-384.88 878.67,-385.81 937.94,-384.39"/>
<polygon fill="#9a32cd" stroke="#9a32cd" points="571.54,-322.33 560.98,-321.5 568.72,-328.73 571.54,-322.33"/>
<text text-anchor="middle" x="769.5" y="-386" font-family="Helvetica,sans-Serif" font-size="10.00"> mBase</text>
</g>
<!-- Node7 -->
<g id="node7" class="node">
<title>Node7</title>
<g id="a_node7"><a xlink:href="structprocess__method__tag__class.html" target="_top" xlink:title=" ">
<polygon fill="white" stroke="black" points="716,-426 716,-456 823,-456 823,-426 716,-426"/>
<text text-anchor="start" x="724" y="-444" font-family="Helvetica,sans-Serif" font-size="10.00">process_method_tag</text>
<text text-anchor="middle" x="769.5" y="-433" font-family="Helvetica,sans-Serif" font-size="10.00">_class</text>
</a>
</g>
</g>
<!-- Node5&#45;&gt;Node7 -->
<g id="edge8" class="edge">
<title>Node5&#45;&gt;Node7</title>
<path fill="none" stroke="#9a32cd" stroke-dasharray="5,2" d="M549.1,-330.89C560.4,-353.47 582.47,-390.63 613,-410 643.68,-429.46 684.07,-437.1 715.99,-439.93"/>
<polygon fill="#9a32cd" stroke="#9a32cd" points="552.15,-329.16 544.67,-321.66 545.84,-332.19 552.15,-329.16"/>
<text text-anchor="middle" x="648" y="-438" font-family="Helvetica,sans-Serif" font-size="10.00"> mCreateTag</text>
</g>
<!-- Node8 -->
<g id="node8" class="node">
<title>Node8</title>
<g id="a_node8"><a xlink:href="structline__tag.html" target="_top" xlink:title=" ">
<polygon fill="white" stroke="black" points="862,-305.5 862,-324.5 912,-324.5 912,-305.5 862,-305.5"/>
<text text-anchor="middle" x="887" y="-312.5" font-family="Helvetica,sans-Serif" font-size="10.00">line_tag</text>
</a>
</g>
</g>
<!-- Node5&#45;&gt;Node8 -->
<g id="edge10" class="edge">
<title>Node5&#45;&gt;Node8</title>
<path fill="none" stroke="#9a32cd" stroke-dasharray="5,2" d="M595.7,-312.48C672.12,-313.14 806.94,-314.31 861.78,-314.79"/>
<polygon fill="#9a32cd" stroke="#9a32cd" points="595.34,-308.98 585.31,-312.39 595.28,-315.98 595.34,-308.98"/>
<text text-anchor="middle" x="648" y="-316" font-family="Helvetica,sans-Serif" font-size="10.00"> mBase</text>
</g>
<!-- Node11 -->
<g id="node11" class="node">
<title>Node11</title>
<g id="a_node11"><a xlink:href="structlayer__management__tag__class.html" target="_top" xlink:title=" ">
<polygon fill="white" stroke="black" points="936,-188 936,-218 1053,-218 1053,-188 936,-188"/>
<text text-anchor="start" x="944" y="-206" font-family="Helvetica,sans-Serif" font-size="10.00">layer_management_tag</text>
<text text-anchor="middle" x="994.5" y="-195" font-family="Helvetica,sans-Serif" font-size="10.00">_class</text>
</a>
</g>
</g>
<!-- Node5&#45;&gt;Node11 -->
<g id="edge14" class="edge">
<title>Node5&#45;&gt;Node11</title>
<path fill="none" stroke="#9a32cd" stroke-dasharray="5,2" d="M582.9,-299.55C643.22,-282.1 757.43,-250.04 856,-228 882.05,-222.17 911.1,-216.74 935.76,-212.44"/>
<polygon fill="#9a32cd" stroke="#9a32cd" points="581.62,-296.28 572.99,-302.42 583.57,-303 581.62,-296.28"/>
<text text-anchor="middle" x="769.5" y="-269" font-family="Helvetica,sans-Serif" font-size="10.00"> mCreateTag</text>
</g>
<!-- Node17 -->
<g id="node17" class="node">
<title>Node17</title>
<g id="a_node17"><a xlink:href="structcreate__tag.html" target="_top" xlink:title=" ">
<polygon fill="white" stroke="black" points="856,-475.5 856,-494.5 918,-494.5 918,-475.5 856,-475.5"/>
<text text-anchor="middle" x="887" y="-482.5" font-family="Helvetica,sans-Serif" font-size="10.00">create_tag</text>
</a>
</g>
</g>
<!-- Node5&#45;&gt;Node17 -->
<g id="edge29" class="edge">
<title>Node5&#45;&gt;Node17</title>
<path fill="none" stroke="#9a32cd" stroke-dasharray="5,2" d="M544.91,-331.43C552.89,-361.9 572.79,-420.47 613,-450 686.37,-503.88 801.72,-496.95 855.94,-489.88"/>
<polygon fill="#9a32cd" stroke="#9a32cd" points="548.27,-330.46 542.49,-321.59 541.48,-332.13 548.27,-330.46"/>
<text text-anchor="middle" x="648" y="-484" font-family="Helvetica,sans-Serif" font-size="10.00"> mBase</text>
</g>
<!-- Node18 -->
<g id="node18" class="node">
<title>Node18</title>
<g id="a_node18"><a xlink:href="structdelete__tag__class.html" target="_top" xlink:title=" ">
<polygon fill="white" stroke="black" points="949.5,-275.5 949.5,-294.5 1039.5,-294.5 1039.5,-275.5 949.5,-275.5"/>
<text text-anchor="middle" x="994.5" y="-282.5" font-family="Helvetica,sans-Serif" font-size="10.00">delete_tag_class</text>
</a>
</g>
</g>
<!-- Node5&#45;&gt;Node18 -->
<g id="edge31" class="edge">
<title>Node5&#45;&gt;Node18</title>
<path fill="none" stroke="#9a32cd" stroke-dasharray="5,2" d="M595.26,-306.64C626.26,-303.75 665.77,-300.32 701,-298 789,-292.21 892.07,-288.3 949.36,-286.38"/>
<polygon fill="#9a32cd" stroke="#9a32cd" points="594.71,-303.18 585.09,-307.6 595.37,-310.15 594.71,-303.18"/>
<text text-anchor="middle" x="769.5" y="-301" font-family="Helvetica,sans-Serif" font-size="10.00"> mBase</text>
</g>
<!-- Node6 -->
<g id="node6" class="node">
<title>Node6</title>
<g id="a_node6"><a xlink:href="structnode__class.html" target="_top" xlink:title=" ">
<polygon fill="white" stroke="black" points="25.5,-85.5 25.5,-104.5 91.5,-104.5 91.5,-85.5 25.5,-85.5"/>
<text text-anchor="middle" x="58.5" y="-92.5" font-family="Helvetica,sans-Serif" font-size="10.00">node_class</text>
</a>
</g>
</g>
<!-- Node6&#45;&gt;Node5 -->
<g id="edge5" class="edge">
<title>Node6&#45;&gt;Node5</title>
<path fill="none" stroke="#9a32cd" stroke-dasharray="5,2" d="M80.35,-110.59C125.51,-143.63 236.69,-221.18 341,-264 391.43,-284.7 452.93,-297.9 493.76,-305.11"/>
<polygon fill="#9a32cd" stroke="#9a32cd" points="82.35,-107.71 72.22,-104.6 78.2,-113.35 82.35,-107.71"/>
<text text-anchor="middle" x="260.5" y="-259" font-family="Helvetica,sans-Serif" font-size="10.00"> mpNode</text>
</g>
<!-- Node6&#45;&gt;Node6 -->
<g id="edge6" class="edge">
<title>Node6&#45;&gt;Node6</title>
<path fill="none" stroke="#9a32cd" stroke-dasharray="5,2" d="M40.35,-114.4C41.56,-119.31 47.61,-123 58.5,-123 75.92,-123 80.95,-113.57 73.6,-104.76"/>
<polygon fill="#9a32cd" stroke="#9a32cd" points="43.72,-115.35 43.4,-104.76 37.05,-113.24 43.72,-115.35"/>
<text text-anchor="middle" x="58.5" y="-137" font-family="Helvetica,sans-Serif" font-size="10.00"> mpNextNode</text>
<text text-anchor="middle" x="58.5" y="-126" font-family="Helvetica,sans-Serif" font-size="10.00">mpPrevNode</text>
</g>
<!-- Node6&#45;&gt;Node12 -->
<g id="edge21" class="edge">
<title>Node6&#45;&gt;Node12</title>
<path fill="none" stroke="#9a32cd" stroke-dasharray="5,2" d="M101.96,-93.91C175.94,-92.25 333.25,-89.81 466,-95 562.67,-98.78 586.66,-103.16 683,-112 700.84,-113.64 720.74,-115.72 736.85,-117.46"/>
<polygon fill="#9a32cd" stroke="#9a32cd" points="101.58,-90.42 91.66,-94.15 101.74,-97.41 101.58,-90.42"/>
<text text-anchor="middle" x="403.5" y="-98" font-family="Helvetica,sans-Serif" font-size="10.00"> mNode</text>
</g>
<!-- Node14 -->
<g id="node14" class="node">
<title>Node14</title>
<g id="a_node14"><a xlink:href="structnode__list__class.html" target="_top" xlink:title=" ">
<polygon fill="white" stroke="black" points="218.5,-47.5 218.5,-66.5 302.5,-66.5 302.5,-47.5 218.5,-47.5"/>
<text text-anchor="middle" x="260.5" y="-54.5" font-family="Helvetica,sans-Serif" font-size="10.00">node_list_class</text>
</a>
</g>
</g>
<!-- Node6&#45;&gt;Node14 -->
<g id="edge19" class="edge">
<title>Node6&#45;&gt;Node14</title>
<path fill="none" stroke="#9a32cd" stroke-dasharray="5,2" d="M83.41,-80.33C97.8,-72.36 116.79,-63.27 135,-59 162.25,-52.6 193.79,-52.17 218.31,-53.3"/>
<polygon fill="#9a32cd" stroke="#9a32cd" points="81.61,-77.33 74.68,-85.35 85.1,-83.4 81.61,-77.33"/>
<text text-anchor="middle" x="157.5" y="-73" font-family="Helvetica,sans-Serif" font-size="10.00"> mpHead</text>
<text text-anchor="middle" x="157.5" y="-62" font-family="Helvetica,sans-Serif" font-size="10.00">mpTail</text>
</g>
<!-- Node7&#45;&gt;Node3 -->
<g id="edge7" class="edge">
<title>Node7&#45;&gt;Node3</title>
<path fill="none" stroke="#9a32cd" stroke-dasharray="5,2" d="M832.76,-424.53C872.89,-413.91 923.67,-400.48 957.3,-391.58"/>
<polygon fill="#9a32cd" stroke="#9a32cd" points="831.84,-421.15 823.07,-427.09 833.63,-427.92 831.84,-421.15"/>
<text text-anchor="middle" x="887" y="-419" font-family="Helvetica,sans-Serif" font-size="10.00"> mMtdTag</text>
</g>
<!-- Node7&#45;&gt;Node15 -->
<g id="edge26" class="edge">
<title>Node7&#45;&gt;Node15</title>
<path fill="none" stroke="#9a32cd" stroke-dasharray="5,2" d="M833.44,-438.68C859.67,-437.21 890.39,-434.83 918,-431 1078.65,-408.72 1266.65,-360.98 1343.3,-340.57"/>
<polygon fill="#9a32cd" stroke="#9a32cd" points="833.05,-435.19 823.25,-439.22 833.42,-442.18 833.05,-435.19"/>
<text text-anchor="middle" x="1091" y="-406" font-family="Helvetica,sans-Serif" font-size="10.00"> mMtdTg</text>
</g>
<!-- Node8&#45;&gt;Node2 -->
<g id="edge9" class="edge">
<title>Node8&#45;&gt;Node2</title>
<path fill="none" stroke="#9a32cd" stroke-dasharray="5,2" d="M922.07,-316.82C974.19,-319.6 1074.13,-324.94 1135.4,-328.22"/>
<polygon fill="#9a32cd" stroke="#9a32cd" points="922.18,-313.32 912,-316.28 921.8,-320.31 922.18,-313.32"/>
<text text-anchor="middle" x="994.5" y="-326" font-family="Helvetica,sans-Serif" font-size="10.00"> mLnTg</text>
</g>
<!-- Node9 -->
<g id="node9" class="node">
<title>Node9</title>
<g id="a_node9"><a xlink:href="structprocess__profile__definition.html" target="_top" xlink:title=" ">
<polygon fill="white" stroke="black" points="341,-521.5 341,-540.5 466,-540.5 466,-521.5 341,-521.5"/>
<text text-anchor="middle" x="403.5" y="-528.5" font-family="Helvetica,sans-Serif" font-size="10.00">process_profile_definition</text>
</a>
</g>
</g>
<!-- Node9&#45;&gt;Node2 -->
<g id="edge11" class="edge">
<title>Node9&#45;&gt;Node2</title>
<path fill="none" stroke="#9a32cd" stroke-dasharray="5,2" d="M476.08,-531C524.37,-531 589.52,-531 647,-531 647,-531 647,-531 995.5,-531 1047.21,-531 1069.85,-548.32 1111,-517 1170.46,-471.74 1183.97,-372.18 1186.8,-340.72"/>
<polygon fill="#9a32cd" stroke="#9a32cd" points="476.04,-527.5 466.04,-531 476.04,-534.5 476.04,-527.5"/>
<text text-anchor="middle" x="769.5" y="-534" font-family="Helvetica,sans-Serif" font-size="10.00"> mpProf</text>
</g>
<!-- Node10 -->
<g id="node10" class="node">
<title>Node10</title>
<g id="a_node10"><a xlink:href="structprocess__method__class.html" target="_top" xlink:title=" ">
<polygon fill="white" stroke="black" points="0,-521.5 0,-540.5 117,-540.5 117,-521.5 0,-521.5"/>
<text text-anchor="middle" x="58.5" y="-528.5" font-family="Helvetica,sans-Serif" font-size="10.00">process_method_class</text>
</a>
</g>
</g>
<!-- Node10&#45;&gt;Node2 -->
<g id="edge22" class="edge">
<title>Node10&#45;&gt;Node2</title>
<path fill="none" stroke="#9a32cd" stroke-dasharray="5,2" d="M98.94,-543.35C138.97,-554.78 202.92,-570 259.5,-570 259.5,-570 259.5,-570 995.5,-570 1048.65,-570 1071.76,-574.85 1111,-539 1172.36,-482.94 1184.64,-373.4 1186.97,-340.54"/>
<polygon fill="#9a32cd" stroke="#9a32cd" points="99.88,-539.98 89.3,-540.54 97.92,-546.7 99.88,-539.98"/>
<text text-anchor="middle" x="648" y="-573" font-family="Helvetica,sans-Serif" font-size="10.00"> mpPcMtd</text>
</g>
<!-- Node10&#45;&gt;Node9 -->
<g id="edge12" class="edge">
<title>Node10&#45;&gt;Node9</title>
<path fill="none" stroke="#9a32cd" stroke-dasharray="5,2" d="M127.41,-531C189.61,-531 280.88,-531 340.99,-531"/>
<polygon fill="#9a32cd" stroke="#9a32cd" points="127.3,-527.5 117.3,-531 127.3,-534.5 127.3,-527.5"/>
<text text-anchor="middle" x="157.5" y="-534" font-family="Helvetica,sans-Serif" font-size="10.00"> mpPcMtd</text>
</g>
<!-- Node19 -->
<g id="node19" class="node">
<title>Node19</title>
<g id="a_node19"><a xlink:href="structnodedraw__method__class.html" target="_top" xlink:title=" ">
<polygon fill="white" stroke="black" points="198,-436.5 198,-455.5 323,-455.5 323,-436.5 198,-436.5"/>
<text text-anchor="middle" x="260.5" y="-443.5" font-family="Helvetica,sans-Serif" font-size="10.00">nodedraw_method_class</text>
</a>
</g>
</g>
<!-- Node10&#45;&gt;Node19 -->
<g id="edge36" class="edge">
<title>Node10&#45;&gt;Node19</title>
<path fill="none" stroke="#9a32cd" stroke-dasharray="5,2" d="M90.66,-517.25C104.25,-511.28 120.39,-504.24 135,-498 170.11,-483 210.98,-466.02 236.05,-455.66"/>
<polygon fill="#9a32cd" stroke="#9a32cd" points="89.01,-514.15 81.26,-521.37 91.83,-520.55 89.01,-514.15"/>
<text text-anchor="middle" x="157.5" y="-501" font-family="Helvetica,sans-Serif" font-size="10.00"> mBase</text>
</g>
<!-- Node11&#45;&gt;Node2 -->
<g id="edge13" class="edge">
<title>Node11&#45;&gt;Node2</title>
<path fill="none" stroke="#9a32cd" stroke-dasharray="5,2" d="M1063.24,-205.07C1079.8,-207.95 1096.82,-213.09 1111,-222 1150.35,-246.72 1175.07,-299.82 1183.87,-321.49"/>
<polygon fill="#9a32cd" stroke="#9a32cd" points="1063.43,-201.56 1053.02,-203.56 1062.4,-208.49 1063.43,-201.56"/>
<text text-anchor="middle" x="1091" y="-225" font-family="Helvetica,sans-Serif" font-size="10.00"> mLyTg</text>
</g>
<!-- Node12&#45;&gt;Node1 -->
<g id="edge33" class="edge">
<title>Node12&#45;&gt;Node1</title>
<path fill="none" stroke="#9a32cd" stroke-dasharray="5,2" d="M726.58,-127.25C688.81,-132.88 633.13,-141.19 592.52,-147.24"/>
<polygon fill="#9a32cd" stroke="#9a32cd" points="727.36,-130.67 736.73,-125.74 726.33,-123.75 727.36,-130.67"/>
<text text-anchor="middle" x="648" y="-148" font-family="Helvetica,sans-Serif" font-size="10.00"> mLayer</text>
</g>
<!-- Node12&#45;&gt;Node11 -->
<g id="edge15" class="edge">
<title>Node12&#45;&gt;Node11</title>
<path fill="none" stroke="#9a32cd" stroke-dasharray="5,2" d="M812.43,-126.77C842.61,-131.85 883.85,-140.7 918,-155 938.35,-163.52 959.35,-177.35 974.02,-187.99"/>
<polygon fill="#9a32cd" stroke="#9a32cd" points="812.68,-123.26 802.25,-125.13 811.56,-130.18 812.68,-123.26"/>
<text text-anchor="middle" x="887" y="-158" font-family="Helvetica,sans-Serif" font-size="10.00"> mpLayer</text>
</g>
<!-- Node12&#45;&gt;Node15 -->
<g id="edge27" class="edge">
<title>Node12&#45;&gt;Node15</title>
<path fill="none" stroke="#9a32cd" stroke-dasharray="5,2" d="M812.13,-122.81C841.85,-124.62 882.64,-128.17 918,-135 1005.82,-151.97 1028.05,-158.56 1111,-192 1210.51,-232.11 1322.18,-297.12 1362.73,-321.42"/>
<polygon fill="#9a32cd" stroke="#9a32cd" points="812.3,-119.31 802.11,-122.24 811.9,-126.3 812.3,-119.31"/>
<text text-anchor="middle" x="1091" y="-195" font-family="Helvetica,sans-Serif" font-size="10.00"> mpLayer</text>
</g>
<!-- Node12&#45;&gt;Node18 -->
<g id="edge32" class="edge">
<title>Node12&#45;&gt;Node18</title>
<path fill="none" stroke="#9a32cd" stroke-dasharray="5,2" d="M797.13,-135.71C827.47,-152.93 878.03,-183.07 918,-214 943.61,-233.82 970.53,-260.87 984.26,-275.18"/>
<polygon fill="#9a32cd" stroke="#9a32cd" points="798.45,-132.44 788.02,-130.58 795.02,-138.54 798.45,-132.44"/>
<text text-anchor="middle" x="887" y="-217" font-family="Helvetica,sans-Serif" font-size="10.00"> mpLayer</text>
</g>
<!-- Node13 -->
<g id="node13" class="node">
<title>Node13</title>
<g id="a_node13"><a xlink:href="structnode__lists__tree__class.html" target="_top" xlink:title=" ">
<polygon fill="white" stroke="black" points="484,-0.5 484,-19.5 595,-19.5 595,-0.5 484,-0.5"/>
<text text-anchor="middle" x="539.5" y="-7.5" font-family="Helvetica,sans-Serif" font-size="10.00">node_lists_tree_class</text>
</a>
</g>
</g>
<!-- Node13&#45;&gt;Node12 -->
<g id="edge17" class="edge">
<title>Node13&#45;&gt;Node12</title>
<path fill="none" stroke="#9a32cd" stroke-dasharray="5,2" d="M605.46,-10.58C630.81,-13.05 659.39,-18.75 683,-31 720.3,-50.36 750.39,-92.44 762.6,-111.4"/>
<polygon fill="#9a32cd" stroke="#9a32cd" points="605.44,-7.07 595.18,-9.73 604.86,-14.04 605.44,-7.07"/>
<text text-anchor="middle" x="648" y="-34" font-family="Helvetica,sans-Serif" font-size="10.00"> mNodeListTree</text>
</g>
<!-- Node14&#45;&gt;Node1 -->
<g id="edge34" class="edge">
<title>Node14&#45;&gt;Node1</title>
<path fill="none" stroke="#9a32cd" stroke-dasharray="5,2" d="M281.04,-72.99C296.45,-84.84 318.96,-100.53 341,-110 388.01,-130.21 445.38,-141.98 486.15,-148.38"/>
<polygon fill="#9a32cd" stroke="#9a32cd" points="282.86,-69.97 272.84,-66.53 278.53,-75.47 282.86,-69.97"/>
<text text-anchor="middle" x="403.5" y="-148" font-family="Helvetica,sans-Serif" font-size="10.00"> mLayerNodeLists</text>
</g>
<!-- Node14&#45;&gt;Node12 -->
<g id="edge20" class="edge">
<title>Node14&#45;&gt;Node12</title>
<path fill="none" stroke="#9a32cd" stroke-dasharray="5,2" d="M312.94,-51.54C393.55,-44.65 553.79,-37.68 683,-74 710.88,-81.84 739.67,-100.18 755.7,-111.49"/>
<polygon fill="#9a32cd" stroke="#9a32cd" points="312.23,-48.09 302.58,-52.47 312.85,-55.06 312.23,-48.09"/>
<text text-anchor="middle" x="539.5" y="-59" font-family="Helvetica,sans-Serif" font-size="10.00"> mCancelList</text>
</g>
<!-- Node14&#45;&gt;Node13 -->
<g id="edge18" class="edge">
<title>Node14&#45;&gt;Node13</title>
<path fill="none" stroke="#9a32cd" stroke-dasharray="5,2" d="M295.81,-44.03C309.66,-39.26 325.92,-34.23 341,-31 388.71,-20.78 444.02,-15.44 483.95,-12.71"/>
<polygon fill="#9a32cd" stroke="#9a32cd" points="294.45,-40.8 286.19,-47.43 296.79,-47.4 294.45,-40.8"/>
<text text-anchor="middle" x="403.5" y="-34" font-family="Helvetica,sans-Serif" font-size="10.00"> mpLists</text>
</g>
<!-- Node15&#45;&gt;Node2 -->
<g id="edge23" class="edge">
<title>Node15&#45;&gt;Node2</title>
<path fill="none" stroke="#9a32cd" stroke-dasharray="5,2" d="M1328.5,-331C1301.72,-331 1268.75,-331 1241.65,-331"/>
<polygon fill="#9a32cd" stroke="#9a32cd" points="1328.81,-334.5 1338.81,-331 1328.81,-327.5 1328.81,-334.5"/>
<text text-anchor="middle" x="1293.5" y="-334" font-family="Helvetica,sans-Serif" font-size="10.00"> mpCtRq</text>
</g>
<!-- Node16 -->
<g id="node16" class="node">
<title>Node16</title>
<g id="a_node16"><a xlink:href="structcreate__request__method__class.html" target="_top" xlink:title=" ">
<polygon fill="white" stroke="black" points="1129,-62 1129,-92 1248,-92 1248,-62 1129,-62"/>
<text text-anchor="start" x="1137" y="-80" font-family="Helvetica,sans-Serif" font-size="10.00">create_request_method</text>
<text text-anchor="middle" x="1188.5" y="-69" font-family="Helvetica,sans-Serif" font-size="10.00">_class</text>
</a>
</g>
</g>
<!-- Node16&#45;&gt;Node15 -->
<g id="edge24" class="edge">
<title>Node16&#45;&gt;Node15</title>
<path fill="none" stroke="#9a32cd" stroke-dasharray="5,2" d="M1258.23,-72.36C1280.66,-74.35 1304.12,-80.67 1321,-96 1355.52,-127.34 1373.41,-281.05 1377.55,-321.32"/>
<polygon fill="#9a32cd" stroke="#9a32cd" points="1258.22,-68.85 1248.02,-71.74 1257.79,-75.84 1258.22,-68.85"/>
<text text-anchor="middle" x="1293.5" y="-99" font-family="Helvetica,sans-Serif" font-size="10.00"> mpCtRqMtd</text>
</g>
<!-- Node17&#45;&gt;Node15 -->
<g id="edge28" class="edge">
<title>Node17&#45;&gt;Node15</title>
<path fill="none" stroke="#9a32cd" stroke-dasharray="5,2" d="M928.06,-495.46C1010.07,-514.37 1199.55,-544.96 1321,-461 1362.82,-432.09 1374.57,-365.53 1377.56,-340.63"/>
<polygon fill="#9a32cd" stroke="#9a32cd" points="928.68,-492.01 918.14,-493.11 927.07,-498.82 928.68,-492.01"/>
<text text-anchor="middle" x="1091" y="-519" font-family="Helvetica,sans-Serif" font-size="10.00"> mBase</text>
</g>
<!-- Node18&#45;&gt;Node2 -->
<g id="edge30" class="edge">
<title>Node18&#45;&gt;Node2</title>
<path fill="none" stroke="#9a32cd" stroke-dasharray="5,2" d="M1049.6,-293.27C1069.08,-296.66 1091.15,-300.98 1111,-306 1127.93,-310.28 1146.57,-316.35 1161.21,-321.43"/>
<polygon fill="#9a32cd" stroke="#9a32cd" points="1050.12,-289.81 1039.68,-291.58 1048.95,-296.71 1050.12,-289.81"/>
<text text-anchor="middle" x="1091" y="-309" font-family="Helvetica,sans-Serif" font-size="10.00"> mDtTg</text>
</g>
<!-- Node19&#45;&gt;Node1 -->
<g id="edge35" class="edge">
<title>Node19&#45;&gt;Node1</title>
<path fill="none" stroke="#9a32cd" stroke-dasharray="5,2" d="M277.8,-428.87C329.56,-374.5 489.09,-206.91 529.25,-164.72"/>
<polygon fill="#9a32cd" stroke="#9a32cd" points="275.08,-426.66 270.72,-436.32 280.15,-431.49 275.08,-426.66"/>
<text text-anchor="middle" x="403.5" y="-363" font-family="Helvetica,sans-Serif" font-size="10.00"> mpNodeMtd</text>
</g>
</g>
</svg>
        <g id="navigator" transform="translate(0 0)" fill="#404254">
                <rect fill="#f2f5e9" fill-opacity="0.5" stroke="#606060" stroke-width=".5" x="0" y="0" width="60" height="60"/>
                <use id="zoomplus" xlink:href="#zoomPlus" x="17" y="9" onmousedown="handleZoom(evt,'in')"/>
                <use id="zoomminus" xlink:href="#zoomMin" x="42" y="9" onmousedown="handleZoom(evt,'out')"/>
                <use id="reset" xlink:href="#resetDef" x="30" y="36" onmousedown="handleReset()"/>
                <g id="arrowUp" xlink:href="#dirArrow" transform="translate(30 24)" onmousedown="handlePan(0,-1)">
                  <use xlink:href="#rim" fill="#404040">
                        <set attributeName="fill" to="#808080" begin="arrowUp.mouseover" end="arrowUp.mouseout"/>
                  </use>
                  <path fill="none" stroke="white" stroke-width="1.5" d="M0,-3.0v7 M-2.5,-0.5L0,-3.0L2.5,-0.5"/>
                </g>
                <g id="arrowRight" xlink:href="#dirArrow" transform="rotate(90) translate(36 -43)" onmousedown="handlePan(1,0)">
                  <use xlink:href="#rim" fill="#404040">
                        <set attributeName="fill" to="#808080" begin="arrowRight.mouseover" end="arrowRight.mouseout"/>
                  </use>
                  <path fill="none" stroke="white" stroke-width="1.5" d="M0,-3.0v7 M-2.5,-0.5L0,-3.0L2.5,-0.5"/>
                </g>
                <g id="arrowDown" xlink:href="#dirArrow" transform="rotate(180) translate(-30 -48)" onmousedown="handlePan(0,1)">
                  <use xlink:href="#rim" fill="#404040">
                        <set attributeName="fill" to="#808080" begin="arrowDown.mouseover" end="arrowDown.mouseout"/>
                  </use>
                  <path fill="none" stroke="white" stroke-width="1.5" d="M0,-3.0v7 M-2.5,-0.5L0,-3.0L2.5,-0.5"/>
                </g>
                <g id="arrowLeft" xlink:href="#dirArrow" transform="rotate(270) translate(-36 17)" onmousedown="handlePan(-1,0)">
                  <use xlink:href="#rim" fill="#404040">
                        <set attributeName="fill" to="#808080" begin="arrowLeft.mouseover" end="arrowLeft.mouseout"/>
                  </use>
                  <path fill="none" stroke="white" stroke-width="1.5" d="M0,-3.0v7 M-2.5,-0.5L0,-3.0L2.5,-0.5"/>
                </g>
        </g>
        <svg viewBox="0 0 15 15" width="100%" height="30px" preserveAspectRatio="xMaxYMin meet">
         <g id="arrow_out" transform="scale(0.3 0.3)">
          <a xlink:href="structprocess__node__class__coll__graph_org.svg" target="_base">
           <rect id="button" ry="5" rx="5" y="6" x="6" height="38" width="38"
                fill="#f2f5e9" fill-opacity="0.5" stroke="#606060" stroke-width="1.0"/>
           <path id="arrow"
             d="M 11.500037,31.436501 C 11.940474,20.09759 22.043105,11.32322 32.158766,21.979434 L 37.068811,17.246167 C 37.068811,17.246167 37.088388,32 37.088388,32 L 22.160133,31.978069 C 22.160133,31.978069 26.997745,27.140456 26.997745,27.140456 C 18.528582,18.264221 13.291696,25.230495 11.500037,31.436501 z"
             style="fill:#404040;"/>
          </a>
         </g>
        </svg>
</svg>
