<?xml version="1.0" encoding="UTF-8" standalone="no"?>
<!DOCTYPE svg PUBLIC "-//W3C//DTD SVG 1.1//EN"
 "http://www.w3.org/Graphics/SVG/1.1/DTD/svg11.dtd">
<!-- Generated by graphviz version 2.46.0 (20210122.1329)
 -->
<!-- Title: JStudio::TFunctionValueAttribute_interpolate Pages: 1 -->
<svg width="343pt" height="127pt"
 viewBox="0.00 0.00 343.00 126.50" xmlns="http://www.w3.org/2000/svg" xmlns:xlink="http://www.w3.org/1999/xlink">
<g id="graph0" class="graph" transform="scale(1 1) rotate(0) translate(4 122.5)">
<title>JStudio::TFunctionValueAttribute_interpolate</title>
<polygon fill="white" stroke="transparent" points="-4,4 -4,-122.5 339,-122.5 339,4 -4,4"/>
<!-- Node1 -->
<g id="node1" class="node">
<title>Node1</title>
<g id="a_node1"><a xlink:title=" ">
<polygon fill="#bfbfbf" stroke="black" points="0,-49.5 0,-79.5 159,-79.5 159,-49.5 0,-49.5"/>
<text text-anchor="start" x="8" y="-67.5" font-family="Helvetica,sans-Serif" font-size="10.00">JStudio::TFunctionValueAttribute</text>
<text text-anchor="middle" x="79.5" y="-56.5" font-family="Helvetica,sans-Serif" font-size="10.00">_interpolate</text>
</a>
</g>
</g>
<!-- Node2 -->
<g id="node2" class="node">
<title>Node2</title>
<g id="a_node2"><a xlink:href="structJStudio_1_1TFunctionValue__list.html" target="_top" xlink:title=" ">
<polygon fill="white" stroke="black" points="195,-99 195,-118 335,-118 335,-99 195,-99"/>
<text text-anchor="middle" x="265" y="-106" font-family="Helvetica,sans-Serif" font-size="10.00">JStudio::TFunctionValue_list</text>
</a>
</g>
</g>
<!-- Node1&#45;&gt;Node2 -->
<g id="edge1" class="edge">
<title>Node1&#45;&gt;Node2</title>
<path fill="none" stroke="midnightblue" d="M153.05,-81.9C177.34,-87.72 203.51,-94 224.33,-98.99"/>
<polygon fill="midnightblue" stroke="midnightblue" points="153.68,-78.45 143.14,-79.52 152.05,-85.25 153.68,-78.45"/>
</g>
<!-- Node3 -->
<g id="node3" class="node">
<title>Node3</title>
<g id="a_node3"><a xlink:href="structJStudio_1_1TFunctionValue__list__parameter.html" target="_top" xlink:title=" ">
<polygon fill="white" stroke="black" points="204,-49.5 204,-79.5 326,-79.5 326,-49.5 204,-49.5"/>
<text text-anchor="start" x="212" y="-67.5" font-family="Helvetica,sans-Serif" font-size="10.00">JStudio::TFunctionValue</text>
<text text-anchor="middle" x="265" y="-56.5" font-family="Helvetica,sans-Serif" font-size="10.00">_list_parameter</text>
</a>
</g>
</g>
<!-- Node1&#45;&gt;Node3 -->
<g id="edge2" class="edge">
<title>Node1&#45;&gt;Node3</title>
<path fill="none" stroke="midnightblue" d="M169.36,-64.5C181.04,-64.5 192.79,-64.5 203.85,-64.5"/>
<polygon fill="midnightblue" stroke="midnightblue" points="169.12,-61 159.12,-64.5 169.12,-68 169.12,-61"/>
</g>
<!-- Node4 -->
<g id="node4" class="node">
<title>Node4</title>
<g id="a_node4"><a xlink:href="structJStudio_1_1TFunctionValue__transition.html" target="_top" xlink:title=" ">
<polygon fill="white" stroke="black" points="204,-0.5 204,-30.5 326,-30.5 326,-0.5 204,-0.5"/>
<text text-anchor="start" x="212" y="-18.5" font-family="Helvetica,sans-Serif" font-size="10.00">JStudio::TFunctionValue</text>
<text text-anchor="middle" x="265" y="-7.5" font-family="Helvetica,sans-Serif" font-size="10.00">_transition</text>
</a>
</g>
</g>
<!-- Node1&#45;&gt;Node4 -->
<g id="edge3" class="edge">
<title>Node1&#45;&gt;Node4</title>
<path fill="none" stroke="midnightblue" d="M146.5,-46.88C166.57,-41.52 188.44,-35.68 207.8,-30.51"/>
<polygon fill="midnightblue" stroke="midnightblue" points="145.56,-43.5 136.8,-49.47 147.37,-50.27 145.56,-43.5"/>
</g>
</g>
</svg>
