<?xml version="1.0" encoding="UTF-8" standalone="no"?>
<!DOCTYPE svg PUBLIC "-//W3C//DTD SVG 1.1//EN"
 "http://www.w3.org/Graphics/SVG/1.1/DTD/svg11.dtd">
<!-- Generated by graphviz version 2.46.0 (20210122.1329)
 -->
<!-- Title: JUTGamePad Pages: 1 -->
<!--zoomable 342 -->
<svg id="main" version="1.1" xmlns="http://www.w3.org/2000/svg" xmlns:xlink="http://www.w3.org/1999/xlink" xml:space="preserve" onload="init(evt)">
<style type="text/css"><![CDATA[
.edge:hover path { stroke: red; }
.edge:hover polygon { stroke: red; fill: red; }
]]></style>
<script type="text/javascript"><![CDATA[
var edges = document.getElementsByTagName('g');
if (edges && edges.length) {
  for (var i=0;i<edges.length;i++) {
    if (edges[i].id.substr(0,4)=='edge') {
      edges[i].setAttribute('class','edge');
    }
  }
}
]]></script>
        <defs>
                <circle id="rim" cx="0" cy="0" r="7"/>
                <circle id="rim2" cx="0" cy="0" r="3.5"/>
                <g id="zoomPlus">
                        <use xlink:href="#rim" fill="#404040">
                                <set attributeName="fill" to="#808080" begin="zoomplus.mouseover" end="zoomplus.mouseout"/>
                        </use>
                        <path d="M-4,0h8M0,-4v8" fill="none" stroke="white" stroke-width="1.5" pointer-events="none"/>
                </g>
                <g id="zoomMin">
                        <use xlink:href="#rim" fill="#404040">
                                <set attributeName="fill" to="#808080" begin="zoomminus.mouseover" end="zoomminus.mouseout"/>
                        </use>
                        <path d="M-4,0h8" fill="none" stroke="white" stroke-width="1.5" pointer-events="none"/>
                </g>
                <g id="dirArrow">
                        <path fill="none" stroke="white" stroke-width="1.5" d="M0,-3.0v7 M-2.5,-0.5L0,-3.0L2.5,-0.5"/>
                </g>
               <g id="resetDef">
                       <use xlink:href="#rim2" fill="#404040">
                               <set attributeName="fill" to="#808080" begin="reset.mouseover" end="reset.mouseout"/>
                       </use>
               </g>
        </defs>

<script type="text/javascript">
var viewWidth = 830;
var viewHeight = 342;
var sectionId = 'dynsection-1';
</script>
<script xlink:href="svgpan.js"/>
<svg id="graph" class="graph">
<g id="viewport">
<title>JUTGamePad</title>
<polygon fill="white" stroke="transparent" points="-4,4 -4,-338 825.5,-338 825.5,4 -4,4"/>
<!-- Node1 -->
<g id="node1" class="node">
<title>Node1</title>
<g id="a_node1"><a xlink:title=" ">
<polygon fill="#bfbfbf" stroke="black" points="450.5,-7 450.5,-26 529.5,-26 529.5,-7 450.5,-7"/>
<text text-anchor="middle" x="490" y="-14" font-family="Helvetica,sans-Serif" font-size="10.00">JUTGamePad</text>
</a>
</g>
</g>
<!-- Node2 -->
<g id="node2" class="node">
<title>Node2</title>
<g id="a_node2"><a xlink:href="classJKRDisposer.html" target="_top" xlink:title=" ">
<polygon fill="white" stroke="black" points="259,-91.5 259,-110.5 333,-110.5 333,-91.5 259,-91.5"/>
<text text-anchor="middle" x="296" y="-98.5" font-family="Helvetica,sans-Serif" font-size="10.00">JKRDisposer</text>
</a>
</g>
</g>
<!-- Node2&#45;&gt;Node1 -->
<g id="edge1" class="edge">
<title>Node2&#45;&gt;Node1</title>
<path fill="none" stroke="midnightblue" d="M319.05,-86.3C337.33,-75.77 363.76,-61.34 388,-51 411.31,-41.05 438.64,-32.22 459.14,-26.12"/>
<polygon fill="midnightblue" stroke="midnightblue" points="317.16,-83.34 310.28,-91.4 320.68,-89.39 317.16,-83.34"/>
</g>
<!-- Node3 -->
<g id="node3" class="node">
<title>Node3</title>
<g id="a_node3"><a xlink:href="classJKRHeap.html" target="_top" xlink:title=" ">
<polygon fill="white" stroke="black" points="188.5,-7 188.5,-26 247.5,-26 247.5,-7 188.5,-7"/>
<text text-anchor="middle" x="218" y="-14" font-family="Helvetica,sans-Serif" font-size="10.00">JKRHeap</text>
</a>
</g>
</g>
<!-- Node2&#45;&gt;Node3 -->
<g id="edge3" class="edge">
<title>Node2&#45;&gt;Node3</title>
<path fill="none" stroke="midnightblue" d="M275.71,-85.13C271.03,-81.37 266.2,-77.2 262,-73 246.88,-57.87 231.99,-37.66 224,-26.28"/>
<polygon fill="midnightblue" stroke="midnightblue" points="273.74,-88.04 283.79,-91.38 278.02,-82.5 273.74,-88.04"/>
</g>
<!-- Node3&#45;&gt;Node2 -->
<g id="edge2" class="edge">
<title>Node3&#45;&gt;Node2</title>
<path fill="none" stroke="#9a32cd" stroke-dasharray="5,2" d="M239.89,-32.06C247.33,-37.54 255.42,-44.12 262,-51 274.17,-63.72 285.17,-81.15 291.19,-91.43"/>
<polygon fill="#9a32cd" stroke="#9a32cd" points="241.77,-29.11 231.59,-26.19 237.73,-34.82 241.77,-29.11"/>
<text text-anchor="middle" x="297" y="-59.5" font-family="Helvetica,sans-Serif" font-size="10.00"> mHeap</text>
</g>
<!-- Node3&#45;&gt;Node3 -->
<g id="edge4" class="edge">
<title>Node3&#45;&gt;Node3</title>
<path fill="none" stroke="#9a32cd" stroke-dasharray="5,2" d="M257.67,-23.59C262.41,-22.3 265.5,-19.94 265.5,-16.5 265.5,-11 257.58,-8.25 247.69,-8.25"/>
<polygon fill="#9a32cd" stroke="#9a32cd" points="257.22,-20.12 247.69,-24.75 258.02,-27.07 257.22,-20.12"/>
<text text-anchor="middle" x="297" y="-25" font-family="Helvetica,sans-Serif" font-size="10.00"> sCurrentHeap</text>
<text text-anchor="middle" x="297" y="-14" font-family="Helvetica,sans-Serif" font-size="10.00">sRootHeap</text>
<text text-anchor="middle" x="297" y="-3" font-family="Helvetica,sans-Serif" font-size="10.00">sSystemHeap</text>
</g>
<!-- Node4 -->
<g id="node4" class="node">
<title>Node4</title>
<g id="a_node4"><a xlink:href="classJSUTree.html" target="_top" xlink:title=" ">
<polygon fill="white" stroke="black" points="0,-91.5 0,-110.5 114,-110.5 114,-91.5 0,-91.5"/>
<text text-anchor="middle" x="57" y="-98.5" font-family="Helvetica,sans-Serif" font-size="10.00">JSUTree&lt; JKRHeap &gt;</text>
</a>
</g>
</g>
<!-- Node4&#45;&gt;Node3 -->
<g id="edge5" class="edge">
<title>Node4&#45;&gt;Node3</title>
<path fill="none" stroke="#9a32cd" stroke-dasharray="5,2" d="M69.62,-83.29C78.46,-72.65 91.13,-59.35 105,-51 130.94,-35.38 164.66,-26.62 188.49,-22.02"/>
<polygon fill="#9a32cd" stroke="#9a32cd" points="66.63,-81.42 63.16,-91.43 72.11,-85.77 66.63,-81.42"/>
<text text-anchor="middle" x="131" y="-59.5" font-family="Helvetica,sans-Serif" font-size="10.00"> mChildTree</text>
</g>
<!-- Node5 -->
<g id="node5" class="node">
<title>Node5</title>
<g id="a_node5"><a xlink:href="structOSMutex.html" target="_top" xlink:title=" ">
<polygon fill="white" stroke="black" points="132.5,-91.5 132.5,-110.5 189.5,-110.5 189.5,-91.5 132.5,-91.5"/>
<text text-anchor="middle" x="161" y="-98.5" font-family="Helvetica,sans-Serif" font-size="10.00">OSMutex</text>
</a>
</g>
</g>
<!-- Node5&#45;&gt;Node3 -->
<g id="edge6" class="edge">
<title>Node5&#45;&gt;Node3</title>
<path fill="none" stroke="#9a32cd" stroke-dasharray="5,2" d="M159.68,-81.12C159.86,-71.46 161.48,-59.9 167,-51 173.99,-39.75 186.31,-31.5 197.09,-26"/>
<polygon fill="#9a32cd" stroke="#9a32cd" points="156.18,-81.42 159.97,-91.32 163.18,-81.22 156.18,-81.42"/>
<text text-anchor="middle" x="185.5" y="-59.5" font-family="Helvetica,sans-Serif" font-size="10.00"> mMutex</text>
</g>
<!-- Node6 -->
<g id="node6" class="node">
<title>Node6</title>
<g id="a_node6"><a xlink:href="classJSUList.html" target="_top" xlink:title=" ">
<polygon fill="white" stroke="black" points="157,-196.5 157,-215.5 283,-215.5 283,-196.5 157,-196.5"/>
<text text-anchor="middle" x="220" y="-203.5" font-family="Helvetica,sans-Serif" font-size="10.00">JSUList&lt; JKRDisposer &gt;</text>
</a>
</g>
</g>
<!-- Node6&#45;&gt;Node3 -->
<g id="edge7" class="edge">
<title>Node6&#45;&gt;Node3</title>
<path fill="none" stroke="#9a32cd" stroke-dasharray="5,2" d="M219.8,-186.29C219.38,-146.47 218.4,-54.6 218.09,-26.09"/>
<polygon fill="#9a32cd" stroke="#9a32cd" points="216.3,-186.49 219.91,-196.46 223.3,-186.42 216.3,-186.49"/>
<text text-anchor="middle" x="253" y="-132" font-family="Helvetica,sans-Serif" font-size="10.00"> mDisposerList</text>
</g>
<!-- Node7 -->
<g id="node7" class="node">
<title>Node7</title>
<g id="a_node7"><a xlink:href="classJSUPtrList.html" target="_top" xlink:title=" ">
<polygon fill="white" stroke="black" points="226.5,-314.5 226.5,-333.5 291.5,-333.5 291.5,-314.5 226.5,-314.5"/>
<text text-anchor="middle" x="259" y="-321.5" font-family="Helvetica,sans-Serif" font-size="10.00">JSUPtrList</text>
</a>
</g>
</g>
<!-- Node7&#45;&gt;Node6 -->
<g id="edge8" class="edge">
<title>Node7&#45;&gt;Node6</title>
<path fill="none" stroke="midnightblue" d="M251.34,-304.78C250.18,-301.86 249.03,-298.86 248,-296 237.51,-266.89 227.09,-231.68 222.47,-215.67"/>
<polygon fill="midnightblue" stroke="midnightblue" points="248.12,-306.14 255.15,-314.07 254.59,-303.49 248.12,-306.14"/>
</g>
<!-- Node8 -->
<g id="node8" class="node">
<title>Node8</title>
<g id="a_node8"><a xlink:href="classJSUPtrLink.html" target="_top" xlink:title=" ">
<polygon fill="white" stroke="black" points="276,-235.5 276,-254.5 344,-254.5 344,-235.5 276,-235.5"/>
<text text-anchor="middle" x="310" y="-242.5" font-family="Helvetica,sans-Serif" font-size="10.00">JSUPtrLink</text>
</a>
</g>
</g>
<!-- Node7&#45;&gt;Node8 -->
<g id="edge11" class="edge">
<title>Node7&#45;&gt;Node8</title>
<path fill="none" stroke="#9a32cd" stroke-dasharray="5,2" d="M253.03,-304.44C251.04,-294.72 250.53,-283 256,-274 261.43,-265.07 270.74,-258.86 280.11,-254.6"/>
<polygon fill="#9a32cd" stroke="#9a32cd" points="249.7,-305.56 255.66,-314.32 256.47,-303.75 249.7,-305.56"/>
<text text-anchor="middle" x="270" y="-282.5" font-family="Helvetica,sans-Serif" font-size="10.00"> mList</text>
</g>
<!-- Node8&#45;&gt;Node1 -->
<g id="edge16" class="edge">
<title>Node8&#45;&gt;Node1</title>
<path fill="none" stroke="#9a32cd" stroke-dasharray="5,2" d="M330.52,-229.33C346.49,-217.07 368.35,-198.36 383,-178 407.65,-143.75 397.78,-126.23 421,-91 438.34,-64.7 465.41,-39.05 479.95,-26.13"/>
<polygon fill="#9a32cd" stroke="#9a32cd" points="328.24,-226.66 322.33,-235.45 332.43,-232.27 328.24,-226.66"/>
<text text-anchor="middle" x="422" y="-132" font-family="Helvetica,sans-Serif" font-size="10.00"> ptr_link</text>
</g>
<!-- Node8&#45;&gt;Node7 -->
<g id="edge9" class="edge">
<title>Node8&#45;&gt;Node7</title>
<path fill="none" stroke="#9a32cd" stroke-dasharray="5,2" d="M303.99,-264.32C300.26,-274.22 294.86,-286.35 288,-296 283.06,-302.95 276.1,-309.51 270.24,-314.41"/>
<polygon fill="#9a32cd" stroke="#9a32cd" points="307.37,-265.28 307.38,-254.69 300.76,-262.96 307.37,-265.28"/>
<text text-anchor="middle" x="317" y="-288" font-family="Helvetica,sans-Serif" font-size="10.00"> mHead</text>
<text text-anchor="middle" x="317" y="-277" font-family="Helvetica,sans-Serif" font-size="10.00">mTail</text>
</g>
<!-- Node8&#45;&gt;Node8 -->
<g id="edge10" class="edge">
<title>Node8&#45;&gt;Node8</title>
<path fill="none" stroke="#9a32cd" stroke-dasharray="5,2" d="M354.15,-250.96C358.92,-249.82 362,-247.83 362,-245 362,-240.47 354.13,-238.1 344.01,-237.89"/>
<polygon fill="#9a32cd" stroke="#9a32cd" points="353.55,-247.51 344.01,-252.11 354.34,-254.46 353.55,-247.51"/>
<text text-anchor="middle" x="377.5" y="-248" font-family="Helvetica,sans-Serif" font-size="10.00"> mNext</text>
<text text-anchor="middle" x="377.5" y="-237" font-family="Helvetica,sans-Serif" font-size="10.00">mPrev</text>
</g>
<!-- Node9 -->
<g id="node9" class="node">
<title>Node9</title>
<g id="a_node9"><a xlink:href="classJSULink.html" target="_top" xlink:title=" ">
<polygon fill="white" stroke="black" points="246,-158.5 246,-177.5 374,-177.5 374,-158.5 246,-158.5"/>
<text text-anchor="middle" x="310" y="-165.5" font-family="Helvetica,sans-Serif" font-size="10.00">JSULink&lt; JKRDisposer &gt;</text>
</a>
</g>
</g>
<!-- Node8&#45;&gt;Node9 -->
<g id="edge13" class="edge">
<title>Node8&#45;&gt;Node9</title>
<path fill="none" stroke="midnightblue" d="M310,-225.02C310,-209.74 310,-188.98 310,-177.5"/>
<polygon fill="midnightblue" stroke="midnightblue" points="306.5,-225.4 310,-235.4 313.5,-225.4 306.5,-225.4"/>
</g>
<!-- Node9&#45;&gt;Node2 -->
<g id="edge12" class="edge">
<title>Node9&#45;&gt;Node2</title>
<path fill="none" stroke="#9a32cd" stroke-dasharray="5,2" d="M306,-148.41C303.32,-135.99 299.92,-120.22 297.86,-110.63"/>
<polygon fill="#9a32cd" stroke="#9a32cd" points="302.58,-149.19 308.11,-158.23 309.43,-147.72 302.58,-149.19"/>
<text text-anchor="middle" x="319" y="-132" font-family="Helvetica,sans-Serif" font-size="10.00"> mLink</text>
</g>
<!-- Node10 -->
<g id="node10" class="node">
<title>Node10</title>
<g id="a_node10"><a xlink:href="structJUTGamePad_1_1CButton.html" target="_top" xlink:title=" ">
<polygon fill="white" stroke="black" points="430.5,-91.5 430.5,-110.5 549.5,-110.5 549.5,-91.5 430.5,-91.5"/>
<text text-anchor="middle" x="490" y="-98.5" font-family="Helvetica,sans-Serif" font-size="10.00">JUTGamePad::CButton</text>
</a>
</g>
</g>
<!-- Node10&#45;&gt;Node1 -->
<g id="edge14" class="edge">
<title>Node10&#45;&gt;Node1</title>
<path fill="none" stroke="#9a32cd" stroke-dasharray="5,2" d="M490,-81.43C490,-64.13 490,-39.11 490,-26.1"/>
<polygon fill="#9a32cd" stroke="#9a32cd" points="486.5,-81.48 490,-91.48 493.5,-81.48 486.5,-81.48"/>
<text text-anchor="middle" x="507.5" y="-59.5" font-family="Helvetica,sans-Serif" font-size="10.00"> buttons</text>
</g>
<!-- Node11 -->
<g id="node11" class="node">
<title>Node11</title>
<g id="a_node11"><a xlink:href="structJUTGamePad_1_1CStick.html" target="_top" xlink:title=" ">
<polygon fill="white" stroke="black" points="567.5,-91.5 567.5,-110.5 680.5,-110.5 680.5,-91.5 567.5,-91.5"/>
<text text-anchor="middle" x="624" y="-98.5" font-family="Helvetica,sans-Serif" font-size="10.00">JUTGamePad::CStick</text>
</a>
</g>
</g>
<!-- Node11&#45;&gt;Node1 -->
<g id="edge15" class="edge">
<title>Node11&#45;&gt;Node1</title>
<path fill="none" stroke="#9a32cd" stroke-dasharray="5,2" d="M601.5,-86.15C573.66,-69.01 527.12,-40.35 503.96,-26.1"/>
<polygon fill="#9a32cd" stroke="#9a32cd" points="599.81,-89.22 610.16,-91.48 603.48,-83.26 599.81,-89.22"/>
<text text-anchor="middle" x="604" y="-65" font-family="Helvetica,sans-Serif" font-size="10.00"> c_stick</text>
<text text-anchor="middle" x="604" y="-54" font-family="Helvetica,sans-Serif" font-size="10.00">control_stick</text>
</g>
<!-- Node12 -->
<g id="node12" class="node">
<title>Node12</title>
<g id="a_node12"><a xlink:href="structJUTGamePad_1_1CRumble.html" target="_top" xlink:title=" ">
<polygon fill="white" stroke="black" points="698.5,-91.5 698.5,-110.5 821.5,-110.5 821.5,-91.5 698.5,-91.5"/>
<text text-anchor="middle" x="760" y="-98.5" font-family="Helvetica,sans-Serif" font-size="10.00">JUTGamePad::CRumble</text>
</a>
</g>
</g>
<!-- Node12&#45;&gt;Node1 -->
<g id="edge17" class="edge">
<title>Node12&#45;&gt;Node1</title>
<path fill="none" stroke="#9a32cd" stroke-dasharray="5,2" d="M731.79,-87.44C706.94,-76.72 669.57,-61.42 636,-51 600.61,-40.02 559.38,-30.88 529.78,-24.94"/>
<polygon fill="#9a32cd" stroke="#9a32cd" points="730.43,-90.66 740.99,-91.45 733.22,-84.24 730.43,-90.66"/>
<text text-anchor="middle" x="710" y="-59.5" font-family="Helvetica,sans-Serif" font-size="10.00"> rumble</text>
</g>
</g>
</svg>
        <g id="navigator" transform="translate(0 0)" fill="#404254">
                <rect fill="#f2f5e9" fill-opacity="0.5" stroke="#606060" stroke-width=".5" x="0" y="0" width="60" height="60"/>
                <use id="zoomplus" xlink:href="#zoomPlus" x="17" y="9" onmousedown="handleZoom(evt,'in')"/>
                <use id="zoomminus" xlink:href="#zoomMin" x="42" y="9" onmousedown="handleZoom(evt,'out')"/>
                <use id="reset" xlink:href="#resetDef" x="30" y="36" onmousedown="handleReset()"/>
                <g id="arrowUp" xlink:href="#dirArrow" transform="translate(30 24)" onmousedown="handlePan(0,-1)">
                  <use xlink:href="#rim" fill="#404040">
                        <set attributeName="fill" to="#808080" begin="arrowUp.mouseover" end="arrowUp.mouseout"/>
                  </use>
                  <path fill="none" stroke="white" stroke-width="1.5" d="M0,-3.0v7 M-2.5,-0.5L0,-3.0L2.5,-0.5"/>
                </g>
                <g id="arrowRight" xlink:href="#dirArrow" transform="rotate(90) translate(36 -43)" onmousedown="handlePan(1,0)">
                  <use xlink:href="#rim" fill="#404040">
                        <set attributeName="fill" to="#808080" begin="arrowRight.mouseover" end="arrowRight.mouseout"/>
                  </use>
                  <path fill="none" stroke="white" stroke-width="1.5" d="M0,-3.0v7 M-2.5,-0.5L0,-3.0L2.5,-0.5"/>
                </g>
                <g id="arrowDown" xlink:href="#dirArrow" transform="rotate(180) translate(-30 -48)" onmousedown="handlePan(0,1)">
                  <use xlink:href="#rim" fill="#404040">
                        <set attributeName="fill" to="#808080" begin="arrowDown.mouseover" end="arrowDown.mouseout"/>
                  </use>
                  <path fill="none" stroke="white" stroke-width="1.5" d="M0,-3.0v7 M-2.5,-0.5L0,-3.0L2.5,-0.5"/>
                </g>
                <g id="arrowLeft" xlink:href="#dirArrow" transform="rotate(270) translate(-36 17)" onmousedown="handlePan(-1,0)">
                  <use xlink:href="#rim" fill="#404040">
                        <set attributeName="fill" to="#808080" begin="arrowLeft.mouseover" end="arrowLeft.mouseout"/>
                  </use>
                  <path fill="none" stroke="white" stroke-width="1.5" d="M0,-3.0v7 M-2.5,-0.5L0,-3.0L2.5,-0.5"/>
                </g>
        </g>
        <svg viewBox="0 0 15 15" width="100%" height="30px" preserveAspectRatio="xMaxYMin meet">
         <g id="arrow_out" transform="scale(0.3 0.3)">
          <a xlink:href="structJUTGamePad__coll__graph_org.svg" target="_base">
           <rect id="button" ry="5" rx="5" y="6" x="6" height="38" width="38"
                fill="#f2f5e9" fill-opacity="0.5" stroke="#606060" stroke-width="1.0"/>
           <path id="arrow"
             d="M 11.500037,31.436501 C 11.940474,20.09759 22.043105,11.32322 32.158766,21.979434 L 37.068811,17.246167 C 37.068811,17.246167 37.088388,32 37.088388,32 L 22.160133,31.978069 C 22.160133,31.978069 26.997745,27.140456 26.997745,27.140456 C 18.528582,18.264221 13.291696,25.230495 11.500037,31.436501 z"
             style="fill:#404040;"/>
          </a>
         </g>
        </svg>
</svg>
