<?xml version="1.0" encoding="UTF-8" standalone="no"?>
<!DOCTYPE svg PUBLIC "-//W3C//DTD SVG 1.1//EN"
 "http://www.w3.org/Graphics/SVG/1.1/DTD/svg11.dtd">
<!-- Generated by graphviz version 2.46.0 (20210122.1329)
 -->
<!-- Title: include/variables.h Pages: 1 -->
<svg width="644pt" height="464pt"
 viewBox="0.00 0.00 644.00 464.00" xmlns="http://www.w3.org/2000/svg" xmlns:xlink="http://www.w3.org/1999/xlink">
<g id="graph0" class="graph" transform="scale(1 1) rotate(0) translate(4 460)">
<title>include/variables.h</title>
<polygon fill="white" stroke="transparent" points="-4,4 -4,-460 640,-460 640,4 -4,4"/>
<!-- Node1 -->
<g id="node1" class="node">
<title>Node1</title>
<g id="a_node1"><a xlink:title=" ">
<polygon fill="#bfbfbf" stroke="black" points="198.5,-436.5 198.5,-455.5 295.5,-455.5 295.5,-436.5 198.5,-436.5"/>
<text text-anchor="middle" x="247" y="-443.5" font-family="Helvetica,sans-Serif" font-size="10.00">include/variables.h</text>
</a>
</g>
</g>
<!-- Node2 -->
<g id="node2" class="node">
<title>Node2</title>
<g id="a_node2"><a xlink:href="JSUList_8h.html" target="_top" xlink:title=" ">
<polygon fill="white" stroke="black" points="28,-168.5 28,-198.5 164,-198.5 164,-168.5 28,-168.5"/>
<text text-anchor="start" x="36" y="-186.5" font-family="Helvetica,sans-Serif" font-size="10.00">JSystem/JSupport/JSUList</text>
<text text-anchor="middle" x="96" y="-175.5" font-family="Helvetica,sans-Serif" font-size="10.00">/JSUList.h</text>
</a>
</g>
</g>
<!-- Node1&#45;&gt;Node2 -->
<g id="edge1" class="edge">
<title>Node1&#45;&gt;Node2</title>
<path fill="none" stroke="midnightblue" d="M198.05,-440.63C146.11,-434.86 69.05,-422.67 51,-400 35.46,-380.49 -1.6,-394.96 57,-235 60.77,-224.7 67.46,-214.82 74.24,-206.57"/>
<polygon fill="midnightblue" stroke="midnightblue" points="77,-208.73 80.95,-198.9 71.73,-204.12 77,-208.73"/>
</g>
<!-- Node4 -->
<g id="node4" class="node">
<title>Node4</title>
<g id="a_node4"><a xlink:href="JUTXfb_8h.html" target="_top" xlink:title=" ">
<polygon fill="white" stroke="black" points="60.5,-369.5 60.5,-399.5 185.5,-399.5 185.5,-369.5 60.5,-369.5"/>
<text text-anchor="start" x="68.5" y="-387.5" font-family="Helvetica,sans-Serif" font-size="10.00">JSystem/JUtility/JUTXfb</text>
<text text-anchor="middle" x="123" y="-376.5" font-family="Helvetica,sans-Serif" font-size="10.00">/JUTXfb.h</text>
</a>
</g>
</g>
<!-- Node1&#45;&gt;Node4 -->
<g id="edge3" class="edge">
<title>Node1&#45;&gt;Node4</title>
<path fill="none" stroke="midnightblue" d="M229.23,-436.48C211.58,-428 183.93,-414.74 161.27,-403.86"/>
<polygon fill="midnightblue" stroke="midnightblue" points="162.75,-400.69 152.22,-399.52 159.73,-407 162.75,-400.69"/>
</g>
<!-- Node16 -->
<g id="node16" class="node">
<title>Node16</title>
<g id="a_node16"><a xlink:href="c__xyz_8h.html" target="_top" xlink:title=" ">
<polygon fill="white" stroke="black" points="265.5,-375 265.5,-394 372.5,-394 372.5,-375 265.5,-375"/>
<text text-anchor="middle" x="319" y="-382" font-family="Helvetica,sans-Serif" font-size="10.00">SComponent/c_xyz.h</text>
</a>
</g>
</g>
<!-- Node1&#45;&gt;Node16 -->
<g id="edge29" class="edge">
<title>Node1&#45;&gt;Node16</title>
<path fill="none" stroke="midnightblue" d="M257.32,-436.48C268.65,-427.11 287.07,-411.88 300.84,-400.51"/>
<polygon fill="midnightblue" stroke="midnightblue" points="303.22,-403.08 308.7,-394.01 298.77,-397.68 303.22,-403.08"/>
</g>
<!-- Node3 -->
<g id="node3" class="node">
<title>Node3</title>
<g id="a_node3"><a xlink:href="types_8h.html" target="_top" xlink:title=" ">
<polygon fill="white" stroke="black" points="273.5,-0.5 273.5,-19.5 354.5,-19.5 354.5,-0.5 273.5,-0.5"/>
<text text-anchor="middle" x="314" y="-7.5" font-family="Helvetica,sans-Serif" font-size="10.00">dolphin/types.h</text>
</a>
</g>
</g>
<!-- Node2&#45;&gt;Node3 -->
<g id="edge2" class="edge">
<title>Node2&#45;&gt;Node3</title>
<path fill="none" stroke="midnightblue" d="M97.84,-168.39C102,-142.23 114.63,-86.15 149,-56 180.49,-28.38 227.38,-17.53 263.13,-13.36"/>
<polygon fill="midnightblue" stroke="midnightblue" points="263.78,-16.81 273.37,-12.31 263.07,-9.85 263.78,-16.81"/>
</g>
<!-- Node4&#45;&gt;Node3 -->
<g id="edge26" class="edge">
<title>Node4&#45;&gt;Node3</title>
<path fill="none" stroke="midnightblue" d="M95.09,-369.39C58.8,-348.82 0,-306.94 0,-251.5 0,-251.5 0,-251.5 0,-121 0,-65.92 174.24,-31.86 263.13,-18.07"/>
<polygon fill="midnightblue" stroke="midnightblue" points="263.91,-21.49 273.27,-16.53 262.86,-14.57 263.91,-21.49"/>
</g>
<!-- Node5 -->
<g id="node5" class="node">
<title>Node5</title>
<g id="a_node5"><a xlink:href="JKRHeap_8h.html" target="_top" xlink:title=" ">
<polygon fill="white" stroke="black" points="107,-302.5 107,-332.5 243,-332.5 243,-302.5 107,-302.5"/>
<text text-anchor="start" x="115" y="-320.5" font-family="Helvetica,sans-Serif" font-size="10.00">JSystem/JKernel/JKRHeap</text>
<text text-anchor="middle" x="175" y="-309.5" font-family="Helvetica,sans-Serif" font-size="10.00">/JKRHeap.h</text>
</a>
</g>
</g>
<!-- Node4&#45;&gt;Node5 -->
<g id="edge4" class="edge">
<title>Node4&#45;&gt;Node5</title>
<path fill="none" stroke="midnightblue" d="M134.28,-369.4C141.03,-360.96 149.75,-350.07 157.38,-340.52"/>
<polygon fill="midnightblue" stroke="midnightblue" points="160.22,-342.57 163.74,-332.58 154.76,-338.2 160.22,-342.57"/>
</g>
<!-- Node15 -->
<g id="node15" class="node">
<title>Node15</title>
<g id="a_node15"><a xlink:href="GX_8h.html" target="_top" xlink:title=" ">
<polygon fill="white" stroke="black" points="158.5,-56.5 158.5,-75.5 209.5,-75.5 209.5,-56.5 158.5,-56.5"/>
<text text-anchor="middle" x="184" y="-63.5" font-family="Helvetica,sans-Serif" font-size="10.00">gx/GX.h</text>
</a>
</g>
</g>
<!-- Node4&#45;&gt;Node15 -->
<g id="edge27" class="edge">
<title>Node4&#45;&gt;Node15</title>
<path fill="none" stroke="midnightblue" d="M113.18,-369.13C95.33,-341.03 61.89,-277.83 90,-235 112.06,-201.38 149.56,-231.67 173,-199 197.27,-165.17 192.71,-113.17 187.96,-85.62"/>
<polygon fill="midnightblue" stroke="midnightblue" points="191.39,-84.89 186.07,-75.73 184.52,-86.22 191.39,-84.89"/>
</g>
<!-- Node5&#45;&gt;Node3 -->
<g id="edge8" class="edge">
<title>Node5&#45;&gt;Node3</title>
<path fill="none" stroke="midnightblue" d="M212.62,-302.44C229.54,-294.28 248.3,-282.33 260,-266 287.5,-227.61 306.05,-82.32 311.97,-29.96"/>
<polygon fill="midnightblue" stroke="midnightblue" points="315.48,-30.08 313.09,-19.76 308.52,-29.31 315.48,-30.08"/>
</g>
<!-- Node6 -->
<g id="node6" class="node">
<title>Node6</title>
<g id="a_node6"><a xlink:href="JKRDisposer_8h.html" target="_top" xlink:title=" ">
<polygon fill="white" stroke="black" points="99.5,-235.5 99.5,-265.5 250.5,-265.5 250.5,-235.5 99.5,-235.5"/>
<text text-anchor="start" x="107.5" y="-253.5" font-family="Helvetica,sans-Serif" font-size="10.00">JSystem/JKernel/JKRDisposer</text>
<text text-anchor="middle" x="175" y="-242.5" font-family="Helvetica,sans-Serif" font-size="10.00">/JKRDisposer.h</text>
</a>
</g>
</g>
<!-- Node5&#45;&gt;Node6 -->
<g id="edge5" class="edge">
<title>Node5&#45;&gt;Node6</title>
<path fill="none" stroke="midnightblue" d="M175,-302.4C175,-294.64 175,-284.81 175,-275.86"/>
<polygon fill="midnightblue" stroke="midnightblue" points="178.5,-275.58 175,-265.58 171.5,-275.58 178.5,-275.58"/>
</g>
<!-- Node7 -->
<g id="node7" class="node">
<title>Node7</title>
<g id="a_node7"><a xlink:href="global_8h.html" target="_top" xlink:title=" ">
<polygon fill="white" stroke="black" points="381,-241 381,-260 431,-260 431,-241 381,-241"/>
<text text-anchor="middle" x="406" y="-248" font-family="Helvetica,sans-Serif" font-size="10.00">global.h</text>
</a>
</g>
</g>
<!-- Node5&#45;&gt;Node7 -->
<g id="edge9" class="edge">
<title>Node5&#45;&gt;Node7</title>
<path fill="none" stroke="midnightblue" d="M224.84,-302.48C268.91,-290.07 332.09,-272.3 371.01,-261.35"/>
<polygon fill="midnightblue" stroke="midnightblue" points="372.15,-264.66 380.83,-258.58 370.25,-257.92 372.15,-264.66"/>
</g>
<!-- Node6&#45;&gt;Node2 -->
<g id="edge6" class="edge">
<title>Node6&#45;&gt;Node2</title>
<path fill="none" stroke="midnightblue" d="M157.86,-235.4C147.09,-226.54 133.02,-214.96 121.02,-205.09"/>
<polygon fill="midnightblue" stroke="midnightblue" points="123.05,-202.23 113.11,-198.58 118.61,-207.63 123.05,-202.23"/>
</g>
<!-- Node6&#45;&gt;Node3 -->
<g id="edge7" class="edge">
<title>Node6&#45;&gt;Node3</title>
<path fill="none" stroke="midnightblue" d="M184.65,-235.3C191.16,-225.39 199.67,-211.71 206,-199 236.42,-137.9 222.6,-111.74 262,-56 270.29,-44.27 282.27,-33.63 292.65,-25.64"/>
<polygon fill="midnightblue" stroke="midnightblue" points="294.89,-28.34 300.87,-19.59 290.74,-22.7 294.89,-28.34"/>
</g>
<!-- Node7&#45;&gt;Node1 -->
<g id="edge25" class="edge">
<title>Node7&#45;&gt;Node1</title>
<path fill="none" stroke="midnightblue" d="M407.69,-260.08C412.15,-285.57 421.4,-361.47 382,-400 361.48,-420.07 331.79,-431.19 305.47,-437.35"/>
<polygon fill="midnightblue" stroke="midnightblue" points="304.62,-433.95 295.58,-439.48 306.09,-440.8 304.62,-433.95"/>
</g>
<!-- Node7&#45;&gt;Node3 -->
<g id="edge10" class="edge">
<title>Node7&#45;&gt;Node3</title>
<path fill="none" stroke="midnightblue" d="M395.6,-240.93C385.05,-231.68 369.03,-215.96 360,-199 329.77,-142.24 319.03,-65.29 315.54,-30.05"/>
<polygon fill="midnightblue" stroke="midnightblue" points="318.99,-29.43 314.61,-19.78 312.02,-30.06 318.99,-29.43"/>
</g>
<!-- Node8 -->
<g id="node8" class="node">
<title>Node8</title>
<g id="a_node8"><a xlink:href="AR_8h.html" target="_top" xlink:title=" ">
<polygon fill="white" stroke="black" points="342.5,-56.5 342.5,-75.5 391.5,-75.5 391.5,-56.5 342.5,-56.5"/>
<text text-anchor="middle" x="367" y="-63.5" font-family="Helvetica,sans-Serif" font-size="10.00">ar/AR.h</text>
</a>
</g>
</g>
<!-- Node7&#45;&gt;Node8 -->
<g id="edge11" class="edge">
<title>Node7&#45;&gt;Node8</title>
<path fill="none" stroke="midnightblue" d="M397.5,-240.71C388.99,-231.28 376.41,-215.41 371,-199 358.25,-160.3 361.28,-111.73 364.32,-85.63"/>
<polygon fill="midnightblue" stroke="midnightblue" points="367.8,-86 365.62,-75.63 360.86,-85.09 367.8,-86"/>
</g>
<!-- Node9 -->
<g id="node9" class="node">
<title>Node9</title>
<g id="a_node9"><a xlink:href="ARQ_8h.html" target="_top" xlink:title=" ">
<polygon fill="white" stroke="black" points="380,-174 380,-193 436,-193 436,-174 380,-174"/>
<text text-anchor="middle" x="408" y="-181" font-family="Helvetica,sans-Serif" font-size="10.00">ar/ARQ.h</text>
</a>
</g>
</g>
<!-- Node7&#45;&gt;Node9 -->
<g id="edge13" class="edge">
<title>Node7&#45;&gt;Node9</title>
<path fill="none" stroke="midnightblue" d="M406.27,-240.73C406.56,-231.18 407.04,-215.62 407.42,-203.28"/>
<polygon fill="midnightblue" stroke="midnightblue" points="410.93,-203.23 407.73,-193.13 403.93,-203.01 410.93,-203.23"/>
</g>
<!-- Node10 -->
<g id="node10" class="node">
<title>Node10</title>
<g id="a_node10"><a xlink:href="functions_8h.html" target="_top" xlink:title=" ">
<polygon fill="white" stroke="black" points="498,-174 498,-193 562,-193 562,-174 498,-174"/>
<text text-anchor="middle" x="530" y="-181" font-family="Helvetica,sans-Serif" font-size="10.00">functions.h</text>
</a>
</g>
</g>
<!-- Node7&#45;&gt;Node10 -->
<g id="edge15" class="edge">
<title>Node7&#45;&gt;Node10</title>
<path fill="none" stroke="midnightblue" d="M422.47,-240.87C443.4,-229.89 479.78,-210.82 504.36,-197.94"/>
<polygon fill="midnightblue" stroke="midnightblue" points="506.23,-200.91 513.47,-193.17 502.98,-194.71 506.23,-200.91"/>
</g>
<!-- Node12 -->
<g id="node12" class="node">
<title>Node12</title>
<g id="a_node12"><a xlink:href="mwcc_8h.html" target="_top" xlink:title=" ">
<polygon fill="white" stroke="black" points="436,-112.5 436,-131.5 486,-131.5 486,-112.5 436,-112.5"/>
<text text-anchor="middle" x="461" y="-119.5" font-family="Helvetica,sans-Serif" font-size="10.00">mwcc.h</text>
</a>
</g>
</g>
<!-- Node7&#45;&gt;Node12 -->
<g id="edge23" class="edge">
<title>Node7&#45;&gt;Node12</title>
<path fill="none" stroke="midnightblue" d="M414.87,-240.66C423.86,-231.19 437.48,-215.29 445,-199 453.46,-180.68 457.5,-157.8 459.39,-141.96"/>
<polygon fill="midnightblue" stroke="midnightblue" points="462.89,-142.14 460.42,-131.83 455.93,-141.43 462.89,-142.14"/>
</g>
<!-- Node13 -->
<g id="node13" class="node">
<title>Node13</title>
<g id="a_node13"><a xlink:href="OS_8h.html" target="_top" xlink:title=" ">
<polygon fill="white" stroke="black" points="584,-112.5 584,-131.5 636,-131.5 636,-112.5 584,-112.5"/>
<text text-anchor="middle" x="610" y="-119.5" font-family="Helvetica,sans-Serif" font-size="10.00">os/OS.h</text>
</a>
</g>
</g>
<!-- Node7&#45;&gt;Node13 -->
<g id="edge24" class="edge">
<title>Node7&#45;&gt;Node13</title>
<path fill="none" stroke="midnightblue" d="M431.23,-247.82C466.31,-244.27 530.11,-233.22 571,-199 588.82,-184.09 599.44,-158.96 604.99,-141.71"/>
<polygon fill="midnightblue" stroke="midnightblue" points="608.47,-142.28 607.94,-131.69 601.76,-140.3 608.47,-142.28"/>
</g>
<!-- Node8&#45;&gt;Node3 -->
<g id="edge12" class="edge">
<title>Node8&#45;&gt;Node3</title>
<path fill="none" stroke="midnightblue" d="M358.25,-56.08C350.53,-48.22 339.1,-36.57 329.78,-27.08"/>
<polygon fill="midnightblue" stroke="midnightblue" points="332.09,-24.44 322.59,-19.75 327.1,-29.34 332.09,-24.44"/>
</g>
<!-- Node9&#45;&gt;Node3 -->
<g id="edge14" class="edge">
<title>Node9&#45;&gt;Node3</title>
<path fill="none" stroke="midnightblue" d="M410.19,-173.95C415.25,-152.2 425.5,-93.86 401,-56 391.04,-40.6 374.03,-30.2 357.68,-23.3"/>
<polygon fill="midnightblue" stroke="midnightblue" points="358.78,-19.97 348.19,-19.64 356.26,-26.5 358.78,-19.97"/>
</g>
<!-- Node11 -->
<g id="node11" class="node">
<title>Node11</title>
<g id="a_node11"><a xlink:href="mtx__vec_8h.html" target="_top" xlink:title=" ">
<polygon fill="white" stroke="black" points="504.5,-112.5 504.5,-131.5 565.5,-131.5 565.5,-112.5 504.5,-112.5"/>
<text text-anchor="middle" x="535" y="-119.5" font-family="Helvetica,sans-Serif" font-size="10.00">mtx_vec.h</text>
</a>
</g>
</g>
<!-- Node10&#45;&gt;Node11 -->
<g id="edge16" class="edge">
<title>Node10&#45;&gt;Node11</title>
<path fill="none" stroke="midnightblue" d="M530.72,-173.98C531.42,-165.58 532.52,-152.48 533.43,-141.66"/>
<polygon fill="midnightblue" stroke="midnightblue" points="536.94,-141.77 534.28,-131.51 529.96,-141.18 536.94,-141.77"/>
</g>
<!-- Node10&#45;&gt;Node12 -->
<g id="edge18" class="edge">
<title>Node10&#45;&gt;Node12</title>
<path fill="none" stroke="midnightblue" d="M520.11,-173.98C509.35,-164.7 491.93,-149.67 478.78,-138.33"/>
<polygon fill="midnightblue" stroke="midnightblue" points="480.73,-135.39 470.87,-131.51 476.16,-140.69 480.73,-135.39"/>
</g>
<!-- Node10&#45;&gt;Node13 -->
<g id="edge19" class="edge">
<title>Node10&#45;&gt;Node13</title>
<path fill="none" stroke="midnightblue" d="M541.46,-173.98C554.17,-164.52 574.91,-149.1 590.25,-137.69"/>
<polygon fill="midnightblue" stroke="midnightblue" points="592.62,-140.29 598.56,-131.51 588.45,-134.67 592.62,-140.29"/>
</g>
<!-- Node11&#45;&gt;Node3 -->
<g id="edge17" class="edge">
<title>Node11&#45;&gt;Node3</title>
<path fill="none" stroke="midnightblue" d="M523.36,-112.33C505.06,-98.98 468.1,-73.12 434,-56 407.26,-42.57 375.5,-30.84 351.38,-22.72"/>
<polygon fill="midnightblue" stroke="midnightblue" points="352.46,-19.39 341.87,-19.57 350.27,-26.04 352.46,-19.39"/>
</g>
<!-- Node13&#45;&gt;Node3 -->
<g id="edge20" class="edge">
<title>Node13&#45;&gt;Node3</title>
<path fill="none" stroke="midnightblue" d="M608.34,-112.22C605.15,-97.96 596.75,-69.99 578,-56 545.11,-31.45 432.01,-19.36 364.99,-14.22"/>
<polygon fill="midnightblue" stroke="midnightblue" points="364.88,-10.7 354.65,-13.45 364.36,-17.68 364.88,-10.7"/>
</g>
<!-- Node14 -->
<g id="node14" class="node">
<title>Node14</title>
<g id="a_node14"><a xlink:href="dvd_8h.html" target="_top" xlink:title=" ">
<polygon fill="white" stroke="black" points="509.5,-56.5 509.5,-75.5 568.5,-75.5 568.5,-56.5 509.5,-56.5"/>
<text text-anchor="middle" x="539" y="-63.5" font-family="Helvetica,sans-Serif" font-size="10.00">dvd/dvd.h</text>
</a>
</g>
</g>
<!-- Node13&#45;&gt;Node14 -->
<g id="edge21" class="edge">
<title>Node13&#45;&gt;Node14</title>
<path fill="none" stroke="midnightblue" d="M598.59,-112.32C587.89,-104.18 571.66,-91.84 558.84,-82.09"/>
<polygon fill="midnightblue" stroke="midnightblue" points="560.69,-79.1 550.61,-75.83 556.46,-84.67 560.69,-79.1"/>
</g>
<!-- Node14&#45;&gt;Node3 -->
<g id="edge22" class="edge">
<title>Node14&#45;&gt;Node3</title>
<path fill="none" stroke="midnightblue" d="M509.12,-57.83C470.86,-48.65 404.18,-32.64 359.57,-21.94"/>
<polygon fill="midnightblue" stroke="midnightblue" points="360.11,-18.47 349.57,-19.54 358.48,-25.27 360.11,-18.47"/>
</g>
<!-- Node15&#45;&gt;Node3 -->
<g id="edge28" class="edge">
<title>Node15&#45;&gt;Node3</title>
<path fill="none" stroke="midnightblue" d="M204.6,-56.44C225.99,-47.56 259.68,-33.56 284.02,-23.45"/>
<polygon fill="midnightblue" stroke="midnightblue" points="285.61,-26.58 293.5,-19.52 282.92,-20.12 285.61,-26.58"/>
</g>
<!-- Node16&#45;&gt;Node7 -->
<g id="edge32" class="edge">
<title>Node16&#45;&gt;Node7</title>
<path fill="none" stroke="midnightblue" d="M336.26,-374.92C351.63,-366.39 373.57,-351.85 386,-333 398.56,-313.94 403.24,-287.68 404.98,-270.18"/>
<polygon fill="midnightblue" stroke="midnightblue" points="408.48,-270.34 405.75,-260.1 401.5,-269.8 408.48,-270.34"/>
</g>
<!-- Node17 -->
<g id="node17" class="node">
<title>Node17</title>
<g id="a_node17"><a xlink:href="c__math_8h.html" target="_top" xlink:title=" ">
<polygon fill="white" stroke="black" points="261,-308 261,-327 377,-327 377,-308 261,-308"/>
<text text-anchor="middle" x="319" y="-315" font-family="Helvetica,sans-Serif" font-size="10.00">SComponent/c_math.h</text>
</a>
</g>
</g>
<!-- Node16&#45;&gt;Node17 -->
<g id="edge30" class="edge">
<title>Node16&#45;&gt;Node17</title>
<path fill="none" stroke="midnightblue" d="M319,-374.73C319,-365.18 319,-349.62 319,-337.28"/>
<polygon fill="midnightblue" stroke="midnightblue" points="322.5,-337.13 319,-327.13 315.5,-337.13 322.5,-337.13"/>
</g>
<!-- Node17&#45;&gt;Node7 -->
<g id="edge31" class="edge">
<title>Node17&#45;&gt;Node7</title>
<path fill="none" stroke="midnightblue" d="M330.73,-307.73C344.95,-297.11 369.13,-279.05 386.24,-266.26"/>
<polygon fill="midnightblue" stroke="midnightblue" points="388.54,-268.92 394.45,-260.13 384.35,-263.31 388.54,-268.92"/>
</g>
</g>
</svg>
