<?xml version="1.0" encoding="UTF-8" standalone="no"?>
<!DOCTYPE svg PUBLIC "-//W3C//DTD SVG 1.1//EN"
 "http://www.w3.org/Graphics/SVG/1.1/DTD/svg11.dtd">
<!-- Generated by graphviz version 2.46.0 (20210122.1329)
 -->
<!-- Title: include/Z2AudioLib/Z2AudioMgr/Z2AudioMgr.h Pages: 1 -->
<svg width="1403pt" height="743pt"
 viewBox="0.00 0.00 1403.00 743.00" xmlns="http://www.w3.org/2000/svg" xmlns:xlink="http://www.w3.org/1999/xlink">
<g id="graph0" class="graph" transform="scale(1 1) rotate(0) translate(4 739)">
<title>include/Z2AudioLib/Z2AudioMgr/Z2AudioMgr.h</title>
<polygon fill="white" stroke="transparent" points="-4,4 -4,-739 1399,-739 1399,4 -4,4"/>
<!-- Node1 -->
<g id="node1" class="node">
<title>Node1</title>
<g id="a_node1"><a xlink:title=" ">
<polygon fill="#bfbfbf" stroke="black" points="892.5,-704.5 892.5,-734.5 1027.5,-734.5 1027.5,-704.5 892.5,-704.5"/>
<text text-anchor="start" x="900.5" y="-722.5" font-family="Helvetica,sans-Serif" font-size="10.00">include/Z2AudioLib</text>
<text text-anchor="middle" x="960" y="-711.5" font-family="Helvetica,sans-Serif" font-size="10.00">/Z2AudioMgr/Z2AudioMgr.h</text>
</a>
</g>
</g>
<!-- Node2 -->
<g id="node2" class="node">
<title>Node2</title>
<g id="a_node2"><a xlink:href="JKRAramArchive_8h.html" target="_top" xlink:title=" ">
<polygon fill="white" stroke="black" points="285.5,-637.5 285.5,-667.5 454.5,-667.5 454.5,-637.5 285.5,-637.5"/>
<text text-anchor="start" x="293.5" y="-655.5" font-family="Helvetica,sans-Serif" font-size="10.00">JSystem/JKernel/JKRAramArchive</text>
<text text-anchor="middle" x="370" y="-644.5" font-family="Helvetica,sans-Serif" font-size="10.00">/JKRAramArchive.h</text>
</a>
</g>
</g>
<!-- Node1&#45;&gt;Node2 -->
<g id="edge1" class="edge">
<title>Node1&#45;&gt;Node2</title>
<path fill="none" stroke="midnightblue" d="M892.32,-711.04C787.32,-699.48 584.84,-677.17 465.16,-663.98"/>
<polygon fill="midnightblue" stroke="midnightblue" points="465.24,-660.47 454.92,-662.86 464.47,-667.43 465.24,-660.47"/>
</g>
<!-- Node26 -->
<g id="node26" class="node">
<title>Node26</title>
<g id="a_node26"><a xlink:href="JKRSolidHeap_8h.html" target="_top" xlink:title=" ">
<polygon fill="white" stroke="black" points="1261,-257.5 1261,-287.5 1395,-287.5 1395,-257.5 1261,-257.5"/>
<text text-anchor="start" x="1269" y="-275.5" font-family="Helvetica,sans-Serif" font-size="10.00">JSystem/JKernel/JKRSolid</text>
<text text-anchor="middle" x="1328" y="-264.5" font-family="Helvetica,sans-Serif" font-size="10.00">Heap/JKRSolidHeap.h</text>
</a>
</g>
</g>
<!-- Node1&#45;&gt;Node26 -->
<g id="edge51" class="edge">
<title>Node1&#45;&gt;Node26</title>
<path fill="none" stroke="midnightblue" d="M1027.78,-705.73C1124.62,-685.53 1291,-642.64 1291,-586.5 1291,-586.5 1291,-586.5 1291,-389 1291,-355.8 1305.03,-319.68 1315.82,-296.84"/>
<polygon fill="midnightblue" stroke="midnightblue" points="1319.08,-298.14 1320.33,-287.62 1312.79,-295.06 1319.08,-298.14"/>
</g>
<!-- Node27 -->
<g id="node27" class="node">
<title>Node27</title>
<g id="a_node27"><a xlink:href="Z2SceneMgr_8h.html" target="_top" xlink:title=" ">
<polygon fill="white" stroke="black" points="897.5,-570.5 897.5,-600.5 1022.5,-600.5 1022.5,-570.5 897.5,-570.5"/>
<text text-anchor="start" x="905.5" y="-588.5" font-family="Helvetica,sans-Serif" font-size="10.00">Z2AudioLib/Z2SceneMgr</text>
<text text-anchor="middle" x="960" y="-577.5" font-family="Helvetica,sans-Serif" font-size="10.00">/Z2SceneMgr.h</text>
</a>
</g>
</g>
<!-- Node1&#45;&gt;Node27 -->
<g id="edge54" class="edge">
<title>Node1&#45;&gt;Node27</title>
<path fill="none" stroke="midnightblue" d="M960,-704.37C960,-682.04 960,-638.31 960,-610.85"/>
<polygon fill="midnightblue" stroke="midnightblue" points="963.5,-610.52 960,-600.52 956.5,-610.52 963.5,-610.52"/>
</g>
<!-- Node3 -->
<g id="node3" class="node">
<title>Node3</title>
<g id="a_node3"><a xlink:href="JKRArchive_8h.html" target="_top" xlink:title=" ">
<polygon fill="white" stroke="black" points="297,-570.5 297,-600.5 443,-600.5 443,-570.5 297,-570.5"/>
<text text-anchor="start" x="305" y="-588.5" font-family="Helvetica,sans-Serif" font-size="10.00">JSystem/JKernel/JKRArchive</text>
<text text-anchor="middle" x="370" y="-577.5" font-family="Helvetica,sans-Serif" font-size="10.00">/JKRArchive.h</text>
</a>
</g>
</g>
<!-- Node2&#45;&gt;Node3 -->
<g id="edge2" class="edge">
<title>Node2&#45;&gt;Node3</title>
<path fill="none" stroke="midnightblue" d="M370,-637.4C370,-629.64 370,-619.81 370,-610.86"/>
<polygon fill="midnightblue" stroke="midnightblue" points="373.5,-610.58 370,-600.58 366.5,-610.58 373.5,-610.58"/>
</g>
<!-- Node7 -->
<g id="node7" class="node">
<title>Node7</title>
<g id="a_node7"><a xlink:href="types_8h.html" target="_top" xlink:title=" ">
<polygon fill="white" stroke="black" points="694.5,-0.5 694.5,-19.5 775.5,-19.5 775.5,-0.5 694.5,-0.5"/>
<text text-anchor="middle" x="735" y="-7.5" font-family="Helvetica,sans-Serif" font-size="10.00">dolphin/types.h</text>
</a>
</g>
</g>
<!-- Node2&#45;&gt;Node7 -->
<g id="edge50" class="edge">
<title>Node2&#45;&gt;Node7</title>
<path fill="none" stroke="midnightblue" d="M285.11,-638.63C175.88,-619.63 0,-579.69 0,-519.5 0,-519.5 0,-519.5 0,-137.5 0,-92.78 19.87,-77.65 59,-56 113.21,-26.01 536.09,-14.9 684.07,-11.91"/>
<polygon fill="midnightblue" stroke="midnightblue" points="684.31,-15.41 694.24,-11.71 684.17,-8.41 684.31,-15.41"/>
</g>
<!-- Node4 -->
<g id="node4" class="node">
<title>Node4</title>
<g id="a_node4"><a xlink:href="JKRDecomp_8h.html" target="_top" xlink:title=" ">
<polygon fill="white" stroke="black" points="86.5,-503.5 86.5,-533.5 235.5,-533.5 235.5,-503.5 86.5,-503.5"/>
<text text-anchor="start" x="94.5" y="-521.5" font-family="Helvetica,sans-Serif" font-size="10.00">JSystem/JKernel/JKRDecomp</text>
<text text-anchor="middle" x="161" y="-510.5" font-family="Helvetica,sans-Serif" font-size="10.00">/JKRDecomp.h</text>
</a>
</g>
</g>
<!-- Node3&#45;&gt;Node4 -->
<g id="edge3" class="edge">
<title>Node3&#45;&gt;Node4</title>
<path fill="none" stroke="midnightblue" d="M324.91,-570.48C293.02,-560.56 250.07,-547.2 216.14,-536.65"/>
<polygon fill="midnightblue" stroke="midnightblue" points="216.96,-533.24 206.37,-533.61 214.88,-539.92 216.96,-533.24"/>
</g>
<!-- Node6 -->
<g id="node6" class="node">
<title>Node6</title>
<g id="a_node6"><a xlink:href="SArc_8h.html" target="_top" xlink:title=" ">
<polygon fill="white" stroke="black" points="124.5,-380.5 124.5,-399.5 247.5,-399.5 247.5,-380.5 124.5,-380.5"/>
<text text-anchor="middle" x="186" y="-387.5" font-family="Helvetica,sans-Serif" font-size="10.00">JSystem/JKernel/SArc.h</text>
</a>
</g>
</g>
<!-- Node3&#45;&gt;Node6 -->
<g id="edge48" class="edge">
<title>Node3&#45;&gt;Node6</title>
<path fill="none" stroke="midnightblue" d="M360.69,-570.28C342.05,-542.45 297.88,-479.71 251,-436 238.4,-424.25 222.53,-413.2 209.62,-405"/>
<polygon fill="midnightblue" stroke="midnightblue" points="211.18,-401.85 200.84,-399.55 207.49,-407.79 211.18,-401.85"/>
</g>
<!-- Node3&#45;&gt;Node7 -->
<g id="edge49" class="edge">
<title>Node3&#45;&gt;Node7</title>
<path fill="none" stroke="midnightblue" d="M403.05,-570.47C443.88,-550.67 508,-510.35 508,-452.5 508,-452.5 508,-452.5 508,-271.5 508,-149.93 650.26,-57.59 709.54,-24.38"/>
<polygon fill="midnightblue" stroke="midnightblue" points="711.23,-27.45 718.31,-19.57 707.86,-21.31 711.23,-27.45"/>
</g>
<!-- Node25 -->
<g id="node25" class="node">
<title>Node25</title>
<g id="a_node25"><a xlink:href="JKRFileLoader_8h.html" target="_top" xlink:title=" ">
<polygon fill="white" stroke="black" points="284,-190.5 284,-220.5 442,-220.5 442,-190.5 284,-190.5"/>
<text text-anchor="start" x="292" y="-208.5" font-family="Helvetica,sans-Serif" font-size="10.00">JSystem/JKernel/JKRFileLoader</text>
<text text-anchor="middle" x="363" y="-197.5" font-family="Helvetica,sans-Serif" font-size="10.00">/JKRFileLoader.h</text>
</a>
</g>
</g>
<!-- Node3&#45;&gt;Node25 -->
<g id="edge45" class="edge">
<title>Node3&#45;&gt;Node25</title>
<path fill="none" stroke="midnightblue" d="M384,-570.5C403.47,-549.92 437.82,-509.35 451,-467 478.67,-378.12 413.13,-273.5 380.32,-228.68"/>
<polygon fill="midnightblue" stroke="midnightblue" points="383.02,-226.46 374.23,-220.54 377.42,-230.65 383.02,-226.46"/>
</g>
<!-- Node5 -->
<g id="node5" class="node">
<title>Node5</title>
<g id="a_node5"><a xlink:href="JKRCompression_8h.html" target="_top" xlink:title=" ">
<polygon fill="white" stroke="black" points="65.5,-442 65.5,-461 242.5,-461 242.5,-442 65.5,-442"/>
<text text-anchor="middle" x="154" y="-449" font-family="Helvetica,sans-Serif" font-size="10.00">JSystem/JKernel/JKRCompression.h</text>
</a>
</g>
</g>
<!-- Node4&#45;&gt;Node5 -->
<g id="edge4" class="edge">
<title>Node4&#45;&gt;Node5</title>
<path fill="none" stroke="midnightblue" d="M159.48,-503.4C158.47,-493.96 157.12,-481.45 156.01,-471.19"/>
<polygon fill="midnightblue" stroke="midnightblue" points="159.49,-470.76 154.94,-461.19 152.53,-471.51 159.49,-470.76"/>
</g>
<!-- Node4&#45;&gt;Node7 -->
<g id="edge44" class="edge">
<title>Node4&#45;&gt;Node7</title>
<path fill="none" stroke="midnightblue" d="M110.03,-503.45C90.52,-495.67 69.69,-484.02 56,-467 34.24,-439.95 38,-425.71 38,-391 38,-391 38,-391 38,-137.5 38,-83.87 77.76,-77.26 127,-56 226.59,-12.99 556.52,-10.01 684.06,-10.52"/>
<polygon fill="midnightblue" stroke="midnightblue" points="684.31,-14.03 694.32,-10.58 684.34,-7.03 684.31,-14.03"/>
</g>
<!-- Node8 -->
<g id="node8" class="node">
<title>Node8</title>
<g id="a_node8"><a xlink:href="JKRThread_8h.html" target="_top" xlink:title=" ">
<polygon fill="white" stroke="black" points="298.5,-436.5 298.5,-466.5 441.5,-466.5 441.5,-436.5 298.5,-436.5"/>
<text text-anchor="start" x="306.5" y="-454.5" font-family="Helvetica,sans-Serif" font-size="10.00">JSystem/JKernel/JKRThread</text>
<text text-anchor="middle" x="370" y="-443.5" font-family="Helvetica,sans-Serif" font-size="10.00">/JKRThread.h</text>
</a>
</g>
</g>
<!-- Node4&#45;&gt;Node8 -->
<g id="edge8" class="edge">
<title>Node4&#45;&gt;Node8</title>
<path fill="none" stroke="midnightblue" d="M206.09,-503.48C237.98,-493.56 280.93,-480.2 314.86,-469.65"/>
<polygon fill="midnightblue" stroke="midnightblue" points="316.12,-472.92 324.63,-466.61 314.04,-466.24 316.12,-472.92"/>
</g>
<!-- Node5&#45;&gt;Node6 -->
<g id="edge5" class="edge">
<title>Node5&#45;&gt;Node6</title>
<path fill="none" stroke="midnightblue" d="M158.58,-441.98C163.24,-433.32 170.59,-419.65 176.51,-408.65"/>
<polygon fill="midnightblue" stroke="midnightblue" points="179.77,-409.97 181.42,-399.51 173.6,-406.66 179.77,-409.97"/>
</g>
<!-- Node5&#45;&gt;Node7 -->
<g id="edge7" class="edge">
<title>Node5&#45;&gt;Node7</title>
<path fill="none" stroke="midnightblue" d="M145.7,-441.89C136.93,-432.36 123.24,-416.19 115,-400 101.34,-373.18 96,-365.1 96,-335 96,-335 96,-335 96,-137.5 96,-17.95 531.85,-9.58 683.63,-10.3"/>
<polygon fill="midnightblue" stroke="midnightblue" points="684.03,-13.8 694.06,-10.36 684.08,-6.8 684.03,-13.8"/>
</g>
<!-- Node6&#45;&gt;Node7 -->
<g id="edge6" class="edge">
<title>Node6&#45;&gt;Node7</title>
<path fill="none" stroke="midnightblue" d="M186.76,-380.31C188.37,-361.09 192,-313.46 192,-273.5 192,-273.5 192,-273.5 192,-137.5 192,-95 205.9,-78.42 242,-56 278.94,-33.06 565.61,-18.26 684.06,-13.08"/>
<polygon fill="midnightblue" stroke="midnightblue" points="684.47,-16.56 694.31,-12.63 684.17,-9.57 684.47,-16.56"/>
</g>
<!-- Node8&#45;&gt;Node7 -->
<g id="edge13" class="edge">
<title>Node8&#45;&gt;Node7</title>
<path fill="none" stroke="midnightblue" d="M361.81,-436.36C342.05,-401.32 292.11,-307.07 275,-221 258.1,-135.98 303.7,-98.94 379,-56 429.96,-26.94 598.63,-16.28 684.23,-12.68"/>
<polygon fill="midnightblue" stroke="midnightblue" points="684.39,-16.17 694.24,-12.27 684.11,-9.18 684.39,-16.17"/>
</g>
<!-- Node9 -->
<g id="node9" class="node">
<title>Node9</title>
<g id="a_node9"><a xlink:href="JKRDisposer_8h.html" target="_top" xlink:title=" ">
<polygon fill="white" stroke="black" points="372.5,-123.5 372.5,-153.5 523.5,-153.5 523.5,-123.5 372.5,-123.5"/>
<text text-anchor="start" x="380.5" y="-141.5" font-family="Helvetica,sans-Serif" font-size="10.00">JSystem/JKernel/JKRDisposer</text>
<text text-anchor="middle" x="448" y="-130.5" font-family="Helvetica,sans-Serif" font-size="10.00">/JKRDisposer.h</text>
</a>
</g>
</g>
<!-- Node8&#45;&gt;Node9 -->
<g id="edge9" class="edge">
<title>Node8&#45;&gt;Node9</title>
<path fill="none" stroke="midnightblue" d="M376.87,-436.46C393.65,-401.25 436.45,-305.96 451,-221 454.24,-202.06 453.21,-180.31 451.51,-164.04"/>
<polygon fill="midnightblue" stroke="midnightblue" points="454.95,-163.26 450.28,-153.75 448,-164.1 454.95,-163.26"/>
</g>
<!-- Node11 -->
<g id="node11" class="node">
<title>Node11</title>
<g id="a_node11"><a xlink:href="global_8h.html" target="_top" xlink:title=" ">
<polygon fill="white" stroke="black" points="935,-380.5 935,-399.5 985,-399.5 985,-380.5 935,-380.5"/>
<text text-anchor="middle" x="960" y="-387.5" font-family="Helvetica,sans-Serif" font-size="10.00">global.h</text>
</a>
</g>
</g>
<!-- Node8&#45;&gt;Node11 -->
<g id="edge14" class="edge">
<title>Node8&#45;&gt;Node11</title>
<path fill="none" stroke="midnightblue" d="M441.76,-443.26C569.06,-430.43 829.93,-404.12 924.64,-394.57"/>
<polygon fill="midnightblue" stroke="midnightblue" points="925.24,-398.02 934.84,-393.54 924.54,-391.06 925.24,-398.02"/>
</g>
<!-- Node9&#45;&gt;Node7 -->
<g id="edge12" class="edge">
<title>Node9&#45;&gt;Node7</title>
<path fill="none" stroke="midnightblue" d="M440.71,-123.24C432.7,-105.33 422.95,-74.68 439,-56 469.98,-19.95 607.78,-12.44 683.95,-11.09"/>
<polygon fill="midnightblue" stroke="midnightblue" points="684.33,-14.59 694.28,-10.94 684.23,-7.59 684.33,-14.59"/>
</g>
<!-- Node10 -->
<g id="node10" class="node">
<title>Node10</title>
<g id="a_node10"><a xlink:href="JSUList_8h.html" target="_top" xlink:title=" ">
<polygon fill="white" stroke="black" points="448,-56.5 448,-86.5 584,-86.5 584,-56.5 448,-56.5"/>
<text text-anchor="start" x="456" y="-74.5" font-family="Helvetica,sans-Serif" font-size="10.00">JSystem/JSupport/JSUList</text>
<text text-anchor="middle" x="516" y="-63.5" font-family="Helvetica,sans-Serif" font-size="10.00">/JSUList.h</text>
</a>
</g>
</g>
<!-- Node9&#45;&gt;Node10 -->
<g id="edge10" class="edge">
<title>Node9&#45;&gt;Node10</title>
<path fill="none" stroke="midnightblue" d="M462.75,-123.4C471.84,-114.71 483.67,-103.4 493.87,-93.66"/>
<polygon fill="midnightblue" stroke="midnightblue" points="496.46,-96.02 501.27,-86.58 491.63,-90.96 496.46,-96.02"/>
</g>
<!-- Node10&#45;&gt;Node7 -->
<g id="edge11" class="edge">
<title>Node10&#45;&gt;Node7</title>
<path fill="none" stroke="midnightblue" d="M567.62,-56.47C606.06,-46.03 657.86,-31.96 693.6,-22.25"/>
<polygon fill="midnightblue" stroke="midnightblue" points="694.96,-25.51 703.69,-19.51 693.12,-18.75 694.96,-25.51"/>
</g>
<!-- Node11&#45;&gt;Node7 -->
<g id="edge15" class="edge">
<title>Node11&#45;&gt;Node7</title>
<path fill="none" stroke="midnightblue" d="M962.37,-380.36C969.7,-352.12 990.14,-260.27 967,-190 943.84,-119.67 927.82,-99.65 868,-56 843.73,-38.29 812,-27.2 785.62,-20.47"/>
<polygon fill="midnightblue" stroke="midnightblue" points="786.34,-17.04 775.8,-18.09 784.7,-23.84 786.34,-17.04"/>
</g>
<!-- Node12 -->
<g id="node12" class="node">
<title>Node12</title>
<g id="a_node12"><a xlink:href="AR_8h.html" target="_top" xlink:title=" ">
<polygon fill="white" stroke="black" points="984.5,-129 984.5,-148 1033.5,-148 1033.5,-129 984.5,-129"/>
<text text-anchor="middle" x="1009" y="-136" font-family="Helvetica,sans-Serif" font-size="10.00">ar/AR.h</text>
</a>
</g>
</g>
<!-- Node11&#45;&gt;Node12 -->
<g id="edge16" class="edge">
<title>Node11&#45;&gt;Node12</title>
<path fill="none" stroke="midnightblue" d="M969.33,-380.37C977.7,-371.98 989.49,-358.42 995,-344 1019.62,-279.5 1014.97,-195.32 1011.27,-158.32"/>
<polygon fill="midnightblue" stroke="midnightblue" points="1014.71,-157.61 1010.14,-148.06 1007.75,-158.38 1014.71,-157.61"/>
</g>
<!-- Node13 -->
<g id="node13" class="node">
<title>Node13</title>
<g id="a_node13"><a xlink:href="ARQ_8h.html" target="_top" xlink:title=" ">
<polygon fill="white" stroke="black" points="1031,-62 1031,-81 1087,-81 1087,-62 1031,-62"/>
<text text-anchor="middle" x="1059" y="-69" font-family="Helvetica,sans-Serif" font-size="10.00">ar/ARQ.h</text>
</a>
</g>
</g>
<!-- Node11&#45;&gt;Node13 -->
<g id="edge18" class="edge">
<title>Node11&#45;&gt;Node13</title>
<path fill="none" stroke="midnightblue" d="M973.79,-380.35C985.44,-372.32 1001.67,-359.34 1011,-344 1061.67,-260.68 1062.09,-138.02 1060.15,-91.41"/>
<polygon fill="midnightblue" stroke="midnightblue" points="1063.64,-91.08 1059.64,-81.27 1056.65,-91.43 1063.64,-91.08"/>
</g>
<!-- Node14 -->
<g id="node14" class="node">
<title>Node14</title>
<g id="a_node14"><a xlink:href="functions_8h.html" target="_top" xlink:title=" ">
<polygon fill="white" stroke="black" points="1124,-324.5 1124,-343.5 1188,-343.5 1188,-324.5 1124,-324.5"/>
<text text-anchor="middle" x="1156" y="-331.5" font-family="Helvetica,sans-Serif" font-size="10.00">functions.h</text>
</a>
</g>
</g>
<!-- Node11&#45;&gt;Node14 -->
<g id="edge20" class="edge">
<title>Node11&#45;&gt;Node14</title>
<path fill="none" stroke="midnightblue" d="M985.22,-382.05C1018.13,-372.98 1076.12,-357.01 1115.29,-346.21"/>
<polygon fill="midnightblue" stroke="midnightblue" points="1116.36,-349.55 1125.07,-343.52 1114.5,-342.8 1116.36,-349.55"/>
</g>
<!-- Node16 -->
<g id="node16" class="node">
<title>Node16</title>
<g id="a_node16"><a xlink:href="mwcc_8h.html" target="_top" xlink:title=" ">
<polygon fill="white" stroke="black" points="1085,-263 1085,-282 1135,-282 1135,-263 1085,-263"/>
<text text-anchor="middle" x="1110" y="-270" font-family="Helvetica,sans-Serif" font-size="10.00">mwcc.h</text>
</a>
</g>
</g>
<!-- Node11&#45;&gt;Node16 -->
<g id="edge28" class="edge">
<title>Node11&#45;&gt;Node16</title>
<path fill="none" stroke="midnightblue" d="M985.08,-383.96C1009.43,-377.98 1046.26,-365.93 1071,-344 1086.99,-329.83 1097.78,-307.47 1103.89,-291.74"/>
<polygon fill="midnightblue" stroke="midnightblue" points="1107.27,-292.68 1107.37,-282.09 1100.68,-290.3 1107.27,-292.68"/>
</g>
<!-- Node17 -->
<g id="node17" class="node">
<title>Node17</title>
<g id="a_node17"><a xlink:href="OS_8h.html" target="_top" xlink:title=" ">
<polygon fill="white" stroke="black" points="1191,-263 1191,-282 1243,-282 1243,-263 1191,-263"/>
<text text-anchor="middle" x="1217" y="-270" font-family="Helvetica,sans-Serif" font-size="10.00">os/OS.h</text>
</a>
</g>
</g>
<!-- Node11&#45;&gt;Node17 -->
<g id="edge29" class="edge">
<title>Node11&#45;&gt;Node17</title>
<path fill="none" stroke="midnightblue" d="M985.03,-387.51C1039.46,-383.78 1166.18,-372.2 1197,-344 1211.2,-331.01 1215.6,-308.75 1216.83,-292.72"/>
<polygon fill="midnightblue" stroke="midnightblue" points="1220.34,-292.5 1217.25,-282.36 1213.34,-292.21 1220.34,-292.5"/>
</g>
<!-- Node19 -->
<g id="node19" class="node">
<title>Node19</title>
<g id="a_node19"><a xlink:href="variables_8h.html" target="_top" xlink:title=" ">
<polygon fill="white" stroke="black" points="779.5,-324.5 779.5,-343.5 842.5,-343.5 842.5,-324.5 779.5,-324.5"/>
<text text-anchor="middle" x="811" y="-331.5" font-family="Helvetica,sans-Serif" font-size="10.00">variables.h</text>
</a>
</g>
</g>
<!-- Node11&#45;&gt;Node19 -->
<g id="edge30" class="edge">
<title>Node11&#45;&gt;Node19</title>
<path fill="none" stroke="midnightblue" d="M936.39,-380.44C911.54,-371.44 872.23,-357.19 844.25,-347.05"/>
<polygon fill="midnightblue" stroke="midnightblue" points="845.09,-343.63 834.5,-343.52 842.71,-350.21 845.09,-343.63"/>
</g>
<!-- Node12&#45;&gt;Node7 -->
<g id="edge17" class="edge">
<title>Node12&#45;&gt;Node7</title>
<path fill="none" stroke="midnightblue" d="M1007.49,-128.74C1004.07,-111.8 994.1,-74.58 970,-56 941.78,-34.24 845.83,-21.43 785.61,-15.35"/>
<polygon fill="midnightblue" stroke="midnightblue" points="785.83,-11.86 775.54,-14.37 785.15,-18.83 785.83,-11.86"/>
</g>
<!-- Node13&#45;&gt;Node7 -->
<g id="edge19" class="edge">
<title>Node13&#45;&gt;Node7</title>
<path fill="none" stroke="midnightblue" d="M1034.9,-61.99C1028.19,-59.83 1020.86,-57.65 1014,-56 935.18,-37.06 841.89,-23.82 785.64,-16.82"/>
<polygon fill="midnightblue" stroke="midnightblue" points="785.93,-13.33 775.58,-15.58 785.08,-20.28 785.93,-13.33"/>
</g>
<!-- Node15 -->
<g id="node15" class="node">
<title>Node15</title>
<g id="a_node15"><a xlink:href="mtx__vec_8h.html" target="_top" xlink:title=" ">
<polygon fill="white" stroke="black" points="1108.5,-62 1108.5,-81 1169.5,-81 1169.5,-62 1108.5,-62"/>
<text text-anchor="middle" x="1139" y="-69" font-family="Helvetica,sans-Serif" font-size="10.00">mtx_vec.h</text>
</a>
</g>
</g>
<!-- Node14&#45;&gt;Node15 -->
<g id="edge21" class="edge">
<title>Node14&#45;&gt;Node15</title>
<path fill="none" stroke="midnightblue" d="M1155.43,-324.33C1153.03,-287.48 1143.62,-143.33 1140.23,-91.33"/>
<polygon fill="midnightblue" stroke="midnightblue" points="1143.71,-90.95 1139.57,-81.2 1136.73,-91.41 1143.71,-90.95"/>
</g>
<!-- Node14&#45;&gt;Node16 -->
<g id="edge23" class="edge">
<title>Node14&#45;&gt;Node16</title>
<path fill="none" stroke="midnightblue" d="M1149.41,-324.48C1142.51,-315.55 1131.5,-301.31 1122.87,-290.14"/>
<polygon fill="midnightblue" stroke="midnightblue" points="1125.46,-287.78 1116.58,-282.01 1119.93,-292.06 1125.46,-287.78"/>
</g>
<!-- Node14&#45;&gt;Node17 -->
<g id="edge24" class="edge">
<title>Node14&#45;&gt;Node17</title>
<path fill="none" stroke="midnightblue" d="M1164.74,-324.48C1174.16,-315.28 1189.36,-300.46 1200.95,-289.16"/>
<polygon fill="midnightblue" stroke="midnightblue" points="1203.56,-291.5 1208.28,-282.01 1198.67,-286.49 1203.56,-291.5"/>
</g>
<!-- Node15&#45;&gt;Node7 -->
<g id="edge22" class="edge">
<title>Node15&#45;&gt;Node7</title>
<path fill="none" stroke="midnightblue" d="M1116.48,-61.96C1109.95,-59.74 1102.76,-57.54 1096,-56 987.07,-31.11 856.29,-19.13 785.88,-14.1"/>
<polygon fill="midnightblue" stroke="midnightblue" points="785.74,-10.59 775.52,-13.38 785.26,-17.57 785.74,-10.59"/>
</g>
<!-- Node17&#45;&gt;Node7 -->
<g id="edge25" class="edge">
<title>Node17&#45;&gt;Node7</title>
<path fill="none" stroke="midnightblue" d="M1216.8,-262.62C1215.78,-225.68 1209.89,-84.7 1179,-56 1150.68,-29.69 896.7,-17.05 786.09,-12.76"/>
<polygon fill="midnightblue" stroke="midnightblue" points="785.98,-9.25 775.85,-12.37 785.71,-16.25 785.98,-9.25"/>
</g>
<!-- Node18 -->
<g id="node18" class="node">
<title>Node18</title>
<g id="a_node18"><a xlink:href="dvd_8h.html" target="_top" xlink:title=" ">
<polygon fill="white" stroke="black" points="1229.5,-129 1229.5,-148 1288.5,-148 1288.5,-129 1229.5,-129"/>
<text text-anchor="middle" x="1259" y="-136" font-family="Helvetica,sans-Serif" font-size="10.00">dvd/dvd.h</text>
</a>
</g>
</g>
<!-- Node17&#45;&gt;Node18 -->
<g id="edge26" class="edge">
<title>Node17&#45;&gt;Node18</title>
<path fill="none" stroke="midnightblue" d="M1219.76,-262.84C1226.52,-241.58 1244.06,-186.46 1253.22,-157.65"/>
<polygon fill="midnightblue" stroke="midnightblue" points="1256.59,-158.61 1256.29,-148.02 1249.92,-156.49 1256.59,-158.61"/>
</g>
<!-- Node18&#45;&gt;Node7 -->
<g id="edge27" class="edge">
<title>Node18&#45;&gt;Node7</title>
<path fill="none" stroke="midnightblue" d="M1257.15,-128.77C1252.99,-111.53 1241.15,-73.3 1215,-56 1179.81,-32.71 902.2,-18.19 785.94,-13.07"/>
<polygon fill="midnightblue" stroke="midnightblue" points="786.01,-9.57 775.86,-12.64 785.7,-16.57 786.01,-9.57"/>
</g>
<!-- Node19&#45;&gt;Node10 -->
<g id="edge31" class="edge">
<title>Node19&#45;&gt;Node10</title>
<path fill="none" stroke="midnightblue" d="M802.03,-324.4C793.03,-315.59 778.98,-301.36 768,-288 734.17,-246.85 740.72,-223.11 699,-190 665.58,-163.47 646.39,-176.28 610,-154 582.28,-137.03 554.66,-111.84 536.61,-93.97"/>
<polygon fill="midnightblue" stroke="midnightblue" points="539.02,-91.43 529.49,-86.8 534.05,-96.36 539.02,-91.43"/>
</g>
<!-- Node20 -->
<g id="node20" class="node">
<title>Node20</title>
<g id="a_node20"><a xlink:href="JUTXfb_8h.html" target="_top" xlink:title=" ">
<polygon fill="white" stroke="black" points="776.5,-257.5 776.5,-287.5 901.5,-287.5 901.5,-257.5 776.5,-257.5"/>
<text text-anchor="start" x="784.5" y="-275.5" font-family="Helvetica,sans-Serif" font-size="10.00">JSystem/JUtility/JUTXfb</text>
<text text-anchor="middle" x="839" y="-264.5" font-family="Helvetica,sans-Serif" font-size="10.00">/JUTXfb.h</text>
</a>
</g>
</g>
<!-- Node19&#45;&gt;Node20 -->
<g id="edge32" class="edge">
<title>Node19&#45;&gt;Node20</title>
<path fill="none" stroke="midnightblue" d="M815.01,-324.48C818.41,-317.25 823.46,-306.53 828.05,-296.78"/>
<polygon fill="midnightblue" stroke="midnightblue" points="831.31,-298.06 832.4,-287.52 824.98,-295.08 831.31,-298.06"/>
</g>
<!-- Node23 -->
<g id="node23" class="node">
<title>Node23</title>
<g id="a_node23"><a xlink:href="c__xyz_8h.html" target="_top" xlink:title=" ">
<polygon fill="white" stroke="black" points="612.5,-263 612.5,-282 719.5,-282 719.5,-263 612.5,-263"/>
<text text-anchor="middle" x="666" y="-270" font-family="Helvetica,sans-Serif" font-size="10.00">SComponent/c_xyz.h</text>
</a>
</g>
</g>
<!-- Node19&#45;&gt;Node23 -->
<g id="edge40" class="edge">
<title>Node19&#45;&gt;Node23</title>
<path fill="none" stroke="midnightblue" d="M790.23,-324.48C765.57,-314.36 724.25,-297.4 696.1,-285.85"/>
<polygon fill="midnightblue" stroke="midnightblue" points="697.32,-282.57 686.74,-282.01 694.66,-289.04 697.32,-282.57"/>
</g>
<!-- Node20&#45;&gt;Node7 -->
<g id="edge37" class="edge">
<title>Node20&#45;&gt;Node7</title>
<path fill="none" stroke="midnightblue" d="M827.02,-257.24C819.33,-247.52 809.58,-234.08 803,-221 769.43,-154.3 747.57,-67.48 739.04,-29.81"/>
<polygon fill="midnightblue" stroke="midnightblue" points="742.4,-28.78 736.82,-19.77 735.56,-30.29 742.4,-28.78"/>
</g>
<!-- Node21 -->
<g id="node21" class="node">
<title>Node21</title>
<g id="a_node21"><a xlink:href="JKRHeap_8h.html" target="_top" xlink:title=" ">
<polygon fill="white" stroke="black" points="822,-190.5 822,-220.5 958,-220.5 958,-190.5 822,-190.5"/>
<text text-anchor="start" x="830" y="-208.5" font-family="Helvetica,sans-Serif" font-size="10.00">JSystem/JKernel/JKRHeap</text>
<text text-anchor="middle" x="890" y="-197.5" font-family="Helvetica,sans-Serif" font-size="10.00">/JKRHeap.h</text>
</a>
</g>
</g>
<!-- Node20&#45;&gt;Node21 -->
<g id="edge33" class="edge">
<title>Node20&#45;&gt;Node21</title>
<path fill="none" stroke="midnightblue" d="M850.07,-257.4C856.68,-248.96 865.23,-238.07 872.72,-228.52"/>
<polygon fill="midnightblue" stroke="midnightblue" points="875.54,-230.6 878.96,-220.58 870.03,-226.28 875.54,-230.6"/>
</g>
<!-- Node22 -->
<g id="node22" class="node">
<title>Node22</title>
<g id="a_node22"><a xlink:href="GX_8h.html" target="_top" xlink:title=" ">
<polygon fill="white" stroke="black" points="784.5,-62 784.5,-81 835.5,-81 835.5,-62 784.5,-62"/>
<text text-anchor="middle" x="810" y="-69" font-family="Helvetica,sans-Serif" font-size="10.00">gx/GX.h</text>
</a>
</g>
</g>
<!-- Node20&#45;&gt;Node22 -->
<g id="edge38" class="edge">
<title>Node20&#45;&gt;Node22</title>
<path fill="none" stroke="midnightblue" d="M829.39,-257.18C823.42,-247.44 816.29,-234 813,-221 801.49,-175.52 804.83,-119.68 807.72,-91.18"/>
<polygon fill="midnightblue" stroke="midnightblue" points="811.22,-91.38 808.85,-81.05 804.26,-90.6 811.22,-91.38"/>
</g>
<!-- Node21&#45;&gt;Node7 -->
<g id="edge35" class="edge">
<title>Node21&#45;&gt;Node7</title>
<path fill="none" stroke="midnightblue" d="M889.6,-190.29C888.04,-161.35 880.54,-95.05 845,-56 829.41,-38.87 806.35,-28.12 785.37,-21.43"/>
<polygon fill="midnightblue" stroke="midnightblue" points="786.17,-18.02 775.59,-18.56 784.2,-24.74 786.17,-18.02"/>
</g>
<!-- Node21&#45;&gt;Node9 -->
<g id="edge34" class="edge">
<title>Node21&#45;&gt;Node9</title>
<path fill="none" stroke="midnightblue" d="M821.91,-194.49C744.42,-183.09 617.74,-164.46 533.62,-152.09"/>
<polygon fill="midnightblue" stroke="midnightblue" points="533.98,-148.61 523.58,-150.61 532.96,-155.53 533.98,-148.61"/>
</g>
<!-- Node21&#45;&gt;Node11 -->
<g id="edge36" class="edge">
<title>Node21&#45;&gt;Node11</title>
<path fill="none" stroke="midnightblue" d="M896.03,-220.59C900.31,-230.69 906.13,-244.63 911,-257 926.89,-297.41 944.32,-345.29 953.5,-370.82"/>
<polygon fill="midnightblue" stroke="midnightblue" points="950.23,-372.08 956.9,-380.31 956.82,-369.71 950.23,-372.08"/>
</g>
<!-- Node22&#45;&gt;Node7 -->
<g id="edge39" class="edge">
<title>Node22&#45;&gt;Node7</title>
<path fill="none" stroke="midnightblue" d="M799.25,-61.98C787.45,-52.61 768.26,-37.38 753.92,-26.01"/>
<polygon fill="midnightblue" stroke="midnightblue" points="755.74,-22.98 745.73,-19.51 751.38,-28.47 755.74,-22.98"/>
</g>
<!-- Node23&#45;&gt;Node11 -->
<g id="edge43" class="edge">
<title>Node23&#45;&gt;Node11</title>
<path fill="none" stroke="midnightblue" d="M676,-282.04C693.87,-296.86 732.98,-327.36 771,-344 821.98,-366.31 885.75,-378.56 924.65,-384.44"/>
<polygon fill="midnightblue" stroke="midnightblue" points="924.53,-387.96 934.93,-385.94 925.54,-381.03 924.53,-387.96"/>
</g>
<!-- Node24 -->
<g id="node24" class="node">
<title>Node24</title>
<g id="a_node24"><a xlink:href="c__math_8h.html" target="_top" xlink:title=" ">
<polygon fill="white" stroke="black" points="574,-196 574,-215 690,-215 690,-196 574,-196"/>
<text text-anchor="middle" x="632" y="-203" font-family="Helvetica,sans-Serif" font-size="10.00">SComponent/c_math.h</text>
</a>
</g>
</g>
<!-- Node23&#45;&gt;Node24 -->
<g id="edge41" class="edge">
<title>Node23&#45;&gt;Node24</title>
<path fill="none" stroke="midnightblue" d="M661.41,-262.73C656.27,-252.89 647.78,-236.66 641.24,-224.16"/>
<polygon fill="midnightblue" stroke="midnightblue" points="644.25,-222.37 636.51,-215.13 638.05,-225.61 644.25,-222.37"/>
</g>
<!-- Node24&#45;&gt;Node11 -->
<g id="edge42" class="edge">
<title>Node24&#45;&gt;Node11</title>
<path fill="none" stroke="midnightblue" d="M624.29,-215.21C611.44,-230.82 588.51,-264.17 604,-288 639.5,-342.63 842.22,-374.09 924.9,-384.81"/>
<polygon fill="midnightblue" stroke="midnightblue" points="924.46,-388.28 934.82,-386.07 925.35,-381.34 924.46,-388.28"/>
</g>
<!-- Node25&#45;&gt;Node7 -->
<g id="edge47" class="edge">
<title>Node25&#45;&gt;Node7</title>
<path fill="none" stroke="midnightblue" d="M360.2,-190.36C357.54,-173.62 355.14,-145.21 364,-123 379.03,-85.31 390.1,-74.89 426,-56 469.76,-32.97 608.05,-19.91 683.94,-14.31"/>
<polygon fill="midnightblue" stroke="midnightblue" points="684.49,-17.78 694.21,-13.57 683.99,-10.8 684.49,-17.78"/>
</g>
<!-- Node25&#45;&gt;Node9 -->
<g id="edge46" class="edge">
<title>Node25&#45;&gt;Node9</title>
<path fill="none" stroke="midnightblue" d="M381.44,-190.4C393.14,-181.45 408.46,-169.74 421.45,-159.8"/>
<polygon fill="midnightblue" stroke="midnightblue" points="423.77,-162.43 429.59,-153.58 419.52,-156.87 423.77,-162.43"/>
</g>
<!-- Node26&#45;&gt;Node7 -->
<g id="edge53" class="edge">
<title>Node26&#45;&gt;Node7</title>
<path fill="none" stroke="midnightblue" d="M1327.89,-257.49C1326.69,-216.15 1316.62,-95.11 1241,-56 1162.66,-15.49 897.87,-10.81 785.79,-10.7"/>
<polygon fill="midnightblue" stroke="midnightblue" points="785.75,-7.2 775.75,-10.7 785.75,-14.2 785.75,-7.2"/>
</g>
<!-- Node26&#45;&gt;Node21 -->
<g id="edge52" class="edge">
<title>Node26&#45;&gt;Node21</title>
<path fill="none" stroke="midnightblue" d="M1260.9,-258.51C1257.89,-257.99 1254.92,-257.48 1252,-257 1154.53,-240.91 1041.74,-225.72 968.3,-216.28"/>
<polygon fill="midnightblue" stroke="midnightblue" points="968.57,-212.78 958.21,-214.98 967.68,-219.73 968.57,-212.78"/>
</g>
<!-- Node27&#45;&gt;Node11 -->
<g id="edge64" class="edge">
<title>Node27&#45;&gt;Node11</title>
<path fill="none" stroke="midnightblue" d="M972.3,-570.16C989.4,-549.17 1019.55,-508.1 1031,-467 1034.7,-453.73 1037.64,-448.07 1031,-436 1023.11,-421.66 1008.51,-411.25 994.6,-404.08"/>
<polygon fill="midnightblue" stroke="midnightblue" points="995.7,-400.73 985.16,-399.62 992.71,-407.06 995.7,-400.73"/>
</g>
<!-- Node28 -->
<g id="node28" class="node">
<title>Node28</title>
<g id="a_node28"><a xlink:href="JAISe_8h.html" target="_top" xlink:title=" ">
<polygon fill="white" stroke="black" points="898.5,-436.5 898.5,-466.5 1021.5,-466.5 1021.5,-436.5 898.5,-436.5"/>
<text text-anchor="start" x="906.5" y="-454.5" font-family="Helvetica,sans-Serif" font-size="10.00">JSystem/JAudio2/JAISe</text>
<text text-anchor="middle" x="960" y="-443.5" font-family="Helvetica,sans-Serif" font-size="10.00">/JAISe.h</text>
</a>
</g>
</g>
<!-- Node27&#45;&gt;Node28 -->
<g id="edge55" class="edge">
<title>Node27&#45;&gt;Node28</title>
<path fill="none" stroke="midnightblue" d="M960,-570.37C960,-548.04 960,-504.31 960,-476.85"/>
<polygon fill="midnightblue" stroke="midnightblue" points="963.5,-476.52 960,-466.52 956.5,-476.52 963.5,-476.52"/>
</g>
<!-- Node29 -->
<g id="node29" class="node">
<title>Node29</title>
<g id="a_node29"><a xlink:href="Z2SeqMgr_8h.html" target="_top" xlink:title=" ">
<polygon fill="white" stroke="black" points="813,-503.5 813,-533.5 927,-533.5 927,-503.5 813,-503.5"/>
<text text-anchor="start" x="821" y="-521.5" font-family="Helvetica,sans-Serif" font-size="10.00">Z2AudioLib/Z2SeqMgr</text>
<text text-anchor="middle" x="870" y="-510.5" font-family="Helvetica,sans-Serif" font-size="10.00">/Z2SeqMgr.h</text>
</a>
</g>
</g>
<!-- Node27&#45;&gt;Node29 -->
<g id="edge57" class="edge">
<title>Node27&#45;&gt;Node29</title>
<path fill="none" stroke="midnightblue" d="M940.47,-570.4C927.97,-561.37 911.56,-549.51 897.72,-539.52"/>
<polygon fill="midnightblue" stroke="midnightblue" points="899.65,-536.59 889.49,-533.58 895.55,-542.27 899.65,-536.59"/>
</g>
<!-- Node28&#45;&gt;Node11 -->
<g id="edge56" class="edge">
<title>Node28&#45;&gt;Node11</title>
<path fill="none" stroke="midnightblue" d="M960,-436.4C960,-428.47 960,-418.46 960,-409.86"/>
<polygon fill="midnightblue" stroke="midnightblue" points="963.5,-409.66 960,-399.66 956.5,-409.66 963.5,-409.66"/>
</g>
<!-- Node29&#45;&gt;Node11 -->
<g id="edge63" class="edge">
<title>Node29&#45;&gt;Node11</title>
<path fill="none" stroke="midnightblue" d="M870.36,-503.22C871.46,-485.83 875.52,-456.28 890,-436 899.82,-422.24 915.29,-411.66 929.19,-404.23"/>
<polygon fill="midnightblue" stroke="midnightblue" points="931.09,-407.19 938.47,-399.58 927.96,-400.93 931.09,-407.19"/>
</g>
<!-- Node29&#45;&gt;Node28 -->
<g id="edge58" class="edge">
<title>Node29&#45;&gt;Node28</title>
<path fill="none" stroke="midnightblue" d="M889.53,-503.4C902.03,-494.37 918.44,-482.51 932.28,-472.52"/>
<polygon fill="midnightblue" stroke="midnightblue" points="934.45,-475.27 940.51,-466.58 930.35,-469.59 934.45,-475.27"/>
</g>
<!-- Node30 -->
<g id="node30" class="node">
<title>Node30</title>
<g id="a_node30"><a xlink:href="JAISound_8h.html" target="_top" xlink:title=" ">
<polygon fill="white" stroke="black" points="702.5,-436.5 702.5,-466.5 841.5,-466.5 841.5,-436.5 702.5,-436.5"/>
<text text-anchor="start" x="710.5" y="-454.5" font-family="Helvetica,sans-Serif" font-size="10.00">JSystem/JAudio2/JAISound</text>
<text text-anchor="middle" x="772" y="-443.5" font-family="Helvetica,sans-Serif" font-size="10.00">/JAISound.h</text>
</a>
</g>
</g>
<!-- Node29&#45;&gt;Node30 -->
<g id="edge59" class="edge">
<title>Node29&#45;&gt;Node30</title>
<path fill="none" stroke="midnightblue" d="M848.74,-503.4C834.99,-494.28 816.91,-482.29 801.76,-472.24"/>
<polygon fill="midnightblue" stroke="midnightblue" points="803.49,-469.19 793.22,-466.58 799.62,-475.02 803.49,-469.19"/>
</g>
<!-- Node31 -->
<g id="node31" class="node">
<title>Node31</title>
<g id="a_node31"><a xlink:href="Z2Param_8h.html" target="_top" xlink:title=" ">
<polygon fill="white" stroke="black" points="618.5,-123.5 618.5,-153.5 727.5,-153.5 727.5,-123.5 618.5,-123.5"/>
<text text-anchor="start" x="626.5" y="-141.5" font-family="Helvetica,sans-Serif" font-size="10.00">Z2AudioLib/Z2Param</text>
<text text-anchor="middle" x="673" y="-130.5" font-family="Helvetica,sans-Serif" font-size="10.00">/Z2Param.h</text>
</a>
</g>
</g>
<!-- Node29&#45;&gt;Node31 -->
<g id="edge61" class="edge">
<title>Node29&#45;&gt;Node31</title>
<path fill="none" stroke="midnightblue" d="M812.82,-507.34C719.81,-489.16 546,-447.61 546,-391 546,-391 546,-391 546,-271.5 546,-234.31 541.58,-218.89 565,-190 576.71,-175.55 593.51,-165.02 610.38,-157.45"/>
<polygon fill="midnightblue" stroke="midnightblue" points="611.85,-160.62 619.73,-153.53 609.15,-154.17 611.85,-160.62"/>
</g>
<!-- Node30&#45;&gt;Node11 -->
<g id="edge60" class="edge">
<title>Node30&#45;&gt;Node11</title>
<path fill="none" stroke="midnightblue" d="M816.55,-436.4C849.72,-425.9 894.37,-411.77 925,-402.08"/>
<polygon fill="midnightblue" stroke="midnightblue" points="926.33,-405.33 934.81,-398.97 924.22,-398.65 926.33,-405.33"/>
</g>
<!-- Node31&#45;&gt;Node7 -->
<g id="edge62" class="edge">
<title>Node31&#45;&gt;Node7</title>
<path fill="none" stroke="midnightblue" d="M679.87,-123.48C691.18,-100.41 713.69,-54.48 726.16,-29.03"/>
<polygon fill="midnightblue" stroke="midnightblue" points="729.43,-30.31 730.69,-19.79 723.15,-27.23 729.43,-30.31"/>
</g>
</g>
</svg>
