<?xml version="1.0" encoding="UTF-8" standalone="no"?>
<!DOCTYPE svg PUBLIC "-//W3C//DTD SVG 1.1//EN"
 "http://www.w3.org/Graphics/SVG/1.1/DTD/svg11.dtd">
<!-- Generated by graphviz version 2.46.0 (20210122.1329)
 -->
<!-- Title: include/Z2AudioLib/Z2Calc/Z2Calc.h Pages: 1 -->
<svg width="773pt" height="475pt"
 viewBox="0.00 0.00 773.11 475.00" xmlns="http://www.w3.org/2000/svg" xmlns:xlink="http://www.w3.org/1999/xlink">
<g id="graph0" class="graph" transform="scale(1 1) rotate(0) translate(4 471)">
<title>include/Z2AudioLib/Z2Calc/Z2Calc.h</title>
<polygon fill="white" stroke="transparent" points="-4,4 -4,-471 769.11,-471 769.11,4 -4,4"/>
<!-- Node1 -->
<g id="node1" class="node">
<title>Node1</title>
<g id="a_node1"><a xlink:title=" ">
<polygon fill="#bfbfbf" stroke="black" points="222.11,-436.5 222.11,-466.5 322.11,-466.5 322.11,-436.5 222.11,-436.5"/>
<text text-anchor="start" x="230.11" y="-454.5" font-family="Helvetica,sans-Serif" font-size="10.00">include/Z2AudioLib</text>
<text text-anchor="middle" x="272.11" y="-443.5" font-family="Helvetica,sans-Serif" font-size="10.00">/Z2Calc/Z2Calc.h</text>
</a>
</g>
</g>
<!-- Node2 -->
<g id="node2" class="node">
<title>Node2</title>
<g id="a_node2"><a xlink:href="random_8h.html" target="_top" xlink:title=" ">
<polygon fill="white" stroke="black" points="155.11,-380.5 155.11,-399.5 283.11,-399.5 283.11,-380.5 155.11,-380.5"/>
<text text-anchor="middle" x="219.11" y="-387.5" font-family="Helvetica,sans-Serif" font-size="10.00">JSystem/JMath/random.h</text>
</a>
</g>
</g>
<!-- Node1&#45;&gt;Node2 -->
<g id="edge1" class="edge">
<title>Node1&#45;&gt;Node2</title>
<path fill="none" stroke="midnightblue" d="M259.55,-436.4C251.77,-427.66 241.74,-416.41 233.62,-407.3"/>
<polygon fill="midnightblue" stroke="midnightblue" points="236.08,-404.8 226.82,-399.66 230.86,-409.45 236.08,-404.8"/>
</g>
<!-- Node4 -->
<g id="node4" class="node">
<title>Node4</title>
<g id="a_node4"><a xlink:href="global_8h.html" target="_top" xlink:title=" ">
<polygon fill="white" stroke="black" points="491.11,-380.5 491.11,-399.5 541.11,-399.5 541.11,-380.5 491.11,-380.5"/>
<text text-anchor="middle" x="516.11" y="-387.5" font-family="Helvetica,sans-Serif" font-size="10.00">global.h</text>
</a>
</g>
</g>
<!-- Node1&#45;&gt;Node4 -->
<g id="edge3" class="edge">
<title>Node1&#45;&gt;Node4</title>
<path fill="none" stroke="midnightblue" d="M322.37,-438.24C369.7,-426.7 439.36,-409.71 480.99,-399.56"/>
<polygon fill="midnightblue" stroke="midnightblue" points="482.05,-402.91 490.94,-397.14 480.39,-396.11 482.05,-402.91"/>
</g>
<!-- Node3 -->
<g id="node3" class="node">
<title>Node3</title>
<g id="a_node3"><a xlink:href="types_8h.html" target="_top" xlink:title=" ">
<polygon fill="white" stroke="black" points="297.61,-0.5 297.61,-19.5 378.61,-19.5 378.61,-0.5 297.61,-0.5"/>
<text text-anchor="middle" x="338.11" y="-7.5" font-family="Helvetica,sans-Serif" font-size="10.00">dolphin/types.h</text>
</a>
</g>
</g>
<!-- Node2&#45;&gt;Node3 -->
<g id="edge2" class="edge">
<title>Node2&#45;&gt;Node3</title>
<path fill="none" stroke="midnightblue" d="M154.88,-382.04C90.89,-371.12 2.11,-343.38 2.11,-273.5 2.11,-273.5 2.11,-273.5 2.11,-137.5 2.11,-100.31 -6.32,-81.12 21.11,-56 59.02,-21.29 207.6,-13.24 287.16,-11.45"/>
<polygon fill="midnightblue" stroke="midnightblue" points="287.52,-14.95 297.45,-11.25 287.38,-7.95 287.52,-14.95"/>
</g>
<!-- Node4&#45;&gt;Node3 -->
<g id="edge4" class="edge">
<title>Node4&#45;&gt;Node3</title>
<path fill="none" stroke="midnightblue" d="M536.39,-380.42C570.13,-364.62 634.11,-327.54 634.11,-273.5 634.11,-273.5 634.11,-273.5 634.11,-137.5 634.11,-32.08 473.4,-13.34 388.81,-10.77"/>
<polygon fill="midnightblue" stroke="midnightblue" points="388.73,-7.27 378.64,-10.53 388.56,-14.26 388.73,-7.27"/>
</g>
<!-- Node5 -->
<g id="node5" class="node">
<title>Node5</title>
<g id="a_node5"><a xlink:href="AR_8h.html" target="_top" xlink:title=" ">
<polygon fill="white" stroke="black" points="662.61,-263 662.61,-282 711.61,-282 711.61,-263 662.61,-263"/>
<text text-anchor="middle" x="687.11" y="-270" font-family="Helvetica,sans-Serif" font-size="10.00">ar/AR.h</text>
</a>
</g>
</g>
<!-- Node4&#45;&gt;Node5 -->
<g id="edge5" class="edge">
<title>Node4&#45;&gt;Node5</title>
<path fill="none" stroke="midnightblue" d="M541.12,-385.96C569.82,-381.33 616.92,-370.11 648.11,-344 664.49,-330.28 675.21,-307.84 681.19,-291.96"/>
<polygon fill="midnightblue" stroke="midnightblue" points="684.6,-292.8 684.58,-282.21 677.99,-290.5 684.6,-292.8"/>
</g>
<!-- Node6 -->
<g id="node6" class="node">
<title>Node6</title>
<g id="a_node6"><a xlink:href="ARQ_8h.html" target="_top" xlink:title=" ">
<polygon fill="white" stroke="black" points="709.11,-129 709.11,-148 765.11,-148 765.11,-129 709.11,-129"/>
<text text-anchor="middle" x="737.11" y="-136" font-family="Helvetica,sans-Serif" font-size="10.00">ar/ARQ.h</text>
</a>
</g>
</g>
<!-- Node4&#45;&gt;Node6 -->
<g id="edge7" class="edge">
<title>Node4&#45;&gt;Node6</title>
<path fill="none" stroke="midnightblue" d="M541.29,-385.93C573.28,-381.1 629.23,-369.52 670.11,-344 698.66,-326.17 707.29,-318.7 721.11,-288 740.57,-244.77 740.39,-187.56 738.7,-158.37"/>
<polygon fill="midnightblue" stroke="midnightblue" points="742.17,-157.74 737.97,-148.02 735.19,-158.24 742.17,-157.74"/>
</g>
<!-- Node7 -->
<g id="node7" class="node">
<title>Node7</title>
<g id="a_node7"><a xlink:href="mwcc_8h.html" target="_top" xlink:title=" ">
<polygon fill="white" stroke="black" points="518.11,-324.5 518.11,-343.5 568.11,-343.5 568.11,-324.5 518.11,-324.5"/>
<text text-anchor="middle" x="543.11" y="-331.5" font-family="Helvetica,sans-Serif" font-size="10.00">mwcc.h</text>
</a>
</g>
</g>
<!-- Node4&#45;&gt;Node7 -->
<g id="edge9" class="edge">
<title>Node4&#45;&gt;Node7</title>
<path fill="none" stroke="midnightblue" d="M520.57,-380.08C524.26,-372.69 529.63,-361.95 534.2,-352.81"/>
<polygon fill="midnightblue" stroke="midnightblue" points="537.39,-354.26 538.73,-343.75 531.13,-351.13 537.39,-354.26"/>
</g>
<!-- Node8 -->
<g id="node8" class="node">
<title>Node8</title>
<g id="a_node8"><a xlink:href="OS_8h.html" target="_top" xlink:title=" ">
<polygon fill="white" stroke="black" points="48.11,-129 48.11,-148 100.11,-148 100.11,-129 48.11,-129"/>
<text text-anchor="middle" x="74.11" y="-136" font-family="Helvetica,sans-Serif" font-size="10.00">os/OS.h</text>
</a>
</g>
</g>
<!-- Node4&#45;&gt;Node8 -->
<g id="edge10" class="edge">
<title>Node4&#45;&gt;Node8</title>
<path fill="none" stroke="midnightblue" d="M490.87,-386.38C452.42,-381.7 377.48,-369.88 319.11,-344 231.86,-305.33 213.64,-285.29 143.11,-221 120.94,-200.79 99.23,-173.57 86.26,-156.28"/>
<polygon fill="midnightblue" stroke="midnightblue" points="89.07,-154.19 80.31,-148.23 83.44,-158.35 89.07,-154.19"/>
</g>
<!-- Node10 -->
<g id="node10" class="node">
<title>Node10</title>
<g id="a_node10"><a xlink:href="variables_8h.html" target="_top" xlink:title=" ">
<polygon fill="white" stroke="black" points="373.61,-324.5 373.61,-343.5 436.61,-343.5 436.61,-324.5 373.61,-324.5"/>
<text text-anchor="middle" x="405.11" y="-331.5" font-family="Helvetica,sans-Serif" font-size="10.00">variables.h</text>
</a>
</g>
</g>
<!-- Node4&#45;&gt;Node10 -->
<g id="edge14" class="edge">
<title>Node4&#45;&gt;Node10</title>
<path fill="none" stroke="midnightblue" d="M498.27,-380.32C480.39,-371.62 452.63,-358.12 432.06,-348.11"/>
<polygon fill="midnightblue" stroke="midnightblue" points="433.42,-344.88 422.9,-343.65 430.36,-351.18 433.42,-344.88"/>
</g>
<!-- Node5&#45;&gt;Node3 -->
<g id="edge6" class="edge">
<title>Node5&#45;&gt;Node3</title>
<path fill="none" stroke="midnightblue" d="M688.65,-262.92C693.96,-230.43 708,-113.84 648.11,-56 612.03,-21.16 466.98,-13.16 388.74,-11.42"/>
<polygon fill="midnightblue" stroke="midnightblue" points="388.69,-7.91 378.62,-11.22 388.55,-14.91 388.69,-7.91"/>
</g>
<!-- Node6&#45;&gt;Node3 -->
<g id="edge8" class="edge">
<title>Node6&#45;&gt;Node3</title>
<path fill="none" stroke="midnightblue" d="M734.78,-128.83C729.7,-111.69 715.84,-73.63 689.11,-56 640.86,-24.18 473.93,-14.83 388.84,-12.1"/>
<polygon fill="midnightblue" stroke="midnightblue" points="388.73,-8.6 378.63,-11.79 388.52,-15.59 388.73,-8.6"/>
</g>
<!-- Node8&#45;&gt;Node3 -->
<g id="edge11" class="edge">
<title>Node8&#45;&gt;Node3</title>
<path fill="none" stroke="midnightblue" d="M78.78,-128.77C88.3,-111.86 111.64,-74.7 142.11,-56 186.41,-28.81 245.47,-18.02 287.15,-13.76"/>
<polygon fill="midnightblue" stroke="midnightblue" points="287.71,-17.22 297.35,-12.81 287.06,-10.25 287.71,-17.22"/>
</g>
<!-- Node9 -->
<g id="node9" class="node">
<title>Node9</title>
<g id="a_node9"><a xlink:href="dvd_8h.html" target="_top" xlink:title=" ">
<polygon fill="white" stroke="black" points="30.61,-62 30.61,-81 89.61,-81 89.61,-62 30.61,-62"/>
<text text-anchor="middle" x="60.11" y="-69" font-family="Helvetica,sans-Serif" font-size="10.00">dvd/dvd.h</text>
</a>
</g>
</g>
<!-- Node8&#45;&gt;Node9 -->
<g id="edge12" class="edge">
<title>Node8&#45;&gt;Node9</title>
<path fill="none" stroke="midnightblue" d="M72.22,-128.73C70.14,-119.09 66.74,-103.3 64.07,-90.91"/>
<polygon fill="midnightblue" stroke="midnightblue" points="67.49,-90.17 61.97,-81.13 60.65,-91.64 67.49,-90.17"/>
</g>
<!-- Node9&#45;&gt;Node3 -->
<g id="edge13" class="edge">
<title>Node9&#45;&gt;Node3</title>
<path fill="none" stroke="midnightblue" d="M84.15,-61.96C90.58,-59.84 97.57,-57.7 104.11,-56 166.59,-39.77 239.85,-26.6 287.53,-18.8"/>
<polygon fill="midnightblue" stroke="midnightblue" points="288.28,-22.22 297.59,-17.17 287.16,-15.31 288.28,-22.22"/>
</g>
<!-- Node11 -->
<g id="node11" class="node">
<title>Node11</title>
<g id="a_node11"><a xlink:href="JSUList_8h.html" target="_top" xlink:title=" ">
<polygon fill="white" stroke="black" points="222.11,-56.5 222.11,-86.5 358.11,-86.5 358.11,-56.5 222.11,-56.5"/>
<text text-anchor="start" x="230.11" y="-74.5" font-family="Helvetica,sans-Serif" font-size="10.00">JSystem/JSupport/JSUList</text>
<text text-anchor="middle" x="290.11" y="-63.5" font-family="Helvetica,sans-Serif" font-size="10.00">/JSUList.h</text>
</a>
</g>
</g>
<!-- Node10&#45;&gt;Node11 -->
<g id="edge15" class="edge">
<title>Node10&#45;&gt;Node11</title>
<path fill="none" stroke="midnightblue" d="M373.29,-327.3C351.13,-321.49 323.13,-310.06 309.11,-288 269.72,-226.04 334.95,-194.22 317.11,-123 314.72,-113.47 310.15,-103.77 305.45,-95.46"/>
<polygon fill="midnightblue" stroke="midnightblue" points="308.34,-93.49 300.18,-86.74 302.35,-97.11 308.34,-93.49"/>
</g>
<!-- Node12 -->
<g id="node12" class="node">
<title>Node12</title>
<g id="a_node12"><a xlink:href="JUTXfb_8h.html" target="_top" xlink:title=" ">
<polygon fill="white" stroke="black" points="317.61,-257.5 317.61,-287.5 442.61,-287.5 442.61,-257.5 317.61,-257.5"/>
<text text-anchor="start" x="325.61" y="-275.5" font-family="Helvetica,sans-Serif" font-size="10.00">JSystem/JUtility/JUTXfb</text>
<text text-anchor="middle" x="380.11" y="-264.5" font-family="Helvetica,sans-Serif" font-size="10.00">/JUTXfb.h</text>
</a>
</g>
</g>
<!-- Node10&#45;&gt;Node12 -->
<g id="edge17" class="edge">
<title>Node10&#45;&gt;Node12</title>
<path fill="none" stroke="midnightblue" d="M401.53,-324.48C398.49,-317.25 393.98,-306.53 389.89,-296.78"/>
<polygon fill="midnightblue" stroke="midnightblue" points="393.1,-295.39 386,-287.52 386.65,-298.1 393.1,-295.39"/>
</g>
<!-- Node16 -->
<g id="node16" class="node">
<title>Node16</title>
<g id="a_node16"><a xlink:href="c__xyz_8h.html" target="_top" xlink:title=" ">
<polygon fill="white" stroke="black" points="460.61,-263 460.61,-282 567.61,-282 567.61,-263 460.61,-263"/>
<text text-anchor="middle" x="514.11" y="-270" font-family="Helvetica,sans-Serif" font-size="10.00">SComponent/c_xyz.h</text>
</a>
</g>
</g>
<!-- Node10&#45;&gt;Node16 -->
<g id="edge27" class="edge">
<title>Node10&#45;&gt;Node16</title>
<path fill="none" stroke="midnightblue" d="M420.72,-324.48C438.69,-314.67 468.43,-298.43 489.51,-286.92"/>
<polygon fill="midnightblue" stroke="midnightblue" points="491.42,-289.87 498.52,-282.01 488.07,-283.73 491.42,-289.87"/>
</g>
<!-- Node11&#45;&gt;Node3 -->
<g id="edge16" class="edge">
<title>Node11&#45;&gt;Node3</title>
<path fill="none" stroke="midnightblue" d="M301.48,-56.4C308.46,-47.75 317.42,-36.64 324.74,-27.58"/>
<polygon fill="midnightblue" stroke="midnightblue" points="327.57,-29.64 331.12,-19.66 322.12,-25.24 327.57,-29.64"/>
</g>
<!-- Node12&#45;&gt;Node3 -->
<g id="edge24" class="edge">
<title>Node12&#45;&gt;Node3</title>
<path fill="none" stroke="midnightblue" d="M389.44,-257.15C395.21,-247.4 402.08,-233.95 405.11,-221 416.54,-172.15 403.99,-94.57 384.11,-56 378.15,-44.44 368.1,-34.09 358.92,-26.24"/>
<polygon fill="midnightblue" stroke="midnightblue" points="360.85,-23.31 350.86,-19.77 356.47,-28.76 360.85,-23.31"/>
</g>
<!-- Node13 -->
<g id="node13" class="node">
<title>Node13</title>
<g id="a_node13"><a xlink:href="JKRHeap_8h.html" target="_top" xlink:title=" ">
<polygon fill="white" stroke="black" points="152.11,-190.5 152.11,-220.5 288.11,-220.5 288.11,-190.5 152.11,-190.5"/>
<text text-anchor="start" x="160.11" y="-208.5" font-family="Helvetica,sans-Serif" font-size="10.00">JSystem/JKernel/JKRHeap</text>
<text text-anchor="middle" x="220.11" y="-197.5" font-family="Helvetica,sans-Serif" font-size="10.00">/JKRHeap.h</text>
</a>
</g>
</g>
<!-- Node12&#45;&gt;Node13 -->
<g id="edge18" class="edge">
<title>Node12&#45;&gt;Node13</title>
<path fill="none" stroke="midnightblue" d="M345.39,-257.4C321.59,-247.73 289.83,-234.82 264.23,-224.43"/>
<polygon fill="midnightblue" stroke="midnightblue" points="265.34,-221.1 254.76,-220.58 262.71,-227.58 265.34,-221.1"/>
</g>
<!-- Node15 -->
<g id="node15" class="node">
<title>Node15</title>
<g id="a_node15"><a xlink:href="GX_8h.html" target="_top" xlink:title=" ">
<polygon fill="white" stroke="black" points="344.61,-196 344.61,-215 395.61,-215 395.61,-196 344.61,-196"/>
<text text-anchor="middle" x="370.11" y="-203" font-family="Helvetica,sans-Serif" font-size="10.00">gx/GX.h</text>
</a>
</g>
</g>
<!-- Node12&#45;&gt;Node15 -->
<g id="edge25" class="edge">
<title>Node12&#45;&gt;Node15</title>
<path fill="none" stroke="midnightblue" d="M377.94,-257.4C376.49,-247.96 374.56,-235.45 372.98,-225.19"/>
<polygon fill="midnightblue" stroke="midnightblue" points="376.43,-224.55 371.45,-215.19 369.51,-225.61 376.43,-224.55"/>
</g>
<!-- Node13&#45;&gt;Node3 -->
<g id="edge22" class="edge">
<title>Node13&#45;&gt;Node3</title>
<path fill="none" stroke="midnightblue" d="M186.7,-190.34C171.72,-182.09 155.55,-170.11 147.11,-154 140.71,-141.8 142.41,-135.95 147.11,-123 160.35,-86.52 171.04,-77.85 203.11,-56 228.36,-38.79 260.73,-27.71 287.44,-20.84"/>
<polygon fill="midnightblue" stroke="midnightblue" points="288.49,-24.19 297.37,-18.42 286.83,-17.39 288.49,-24.19"/>
</g>
<!-- Node13&#45;&gt;Node4 -->
<g id="edge23" class="edge">
<title>Node13&#45;&gt;Node4</title>
<path fill="none" stroke="midnightblue" d="M227.32,-220.79C236.61,-238.19 254.09,-267.75 275.11,-288 334.09,-344.84 429.76,-371.74 481.02,-382.66"/>
<polygon fill="midnightblue" stroke="midnightblue" points="480.46,-386.12 490.96,-384.7 481.87,-379.26 480.46,-386.12"/>
</g>
<!-- Node14 -->
<g id="node14" class="node">
<title>Node14</title>
<g id="a_node14"><a xlink:href="JKRDisposer_8h.html" target="_top" xlink:title=" ">
<polygon fill="white" stroke="black" points="156.61,-123.5 156.61,-153.5 307.61,-153.5 307.61,-123.5 156.61,-123.5"/>
<text text-anchor="start" x="164.61" y="-141.5" font-family="Helvetica,sans-Serif" font-size="10.00">JSystem/JKernel/JKRDisposer</text>
<text text-anchor="middle" x="232.11" y="-130.5" font-family="Helvetica,sans-Serif" font-size="10.00">/JKRDisposer.h</text>
</a>
</g>
</g>
<!-- Node13&#45;&gt;Node14 -->
<g id="edge19" class="edge">
<title>Node13&#45;&gt;Node14</title>
<path fill="none" stroke="midnightblue" d="M222.71,-190.4C224.16,-182.56 226,-172.6 227.67,-163.57"/>
<polygon fill="midnightblue" stroke="midnightblue" points="231.14,-164.05 229.51,-153.58 224.25,-162.77 231.14,-164.05"/>
</g>
<!-- Node14&#45;&gt;Node3 -->
<g id="edge21" class="edge">
<title>Node14&#45;&gt;Node3</title>
<path fill="none" stroke="midnightblue" d="M222.49,-123.23C212.1,-105.86 198.82,-76.33 213.11,-56 229.87,-32.16 260.53,-20.89 287.3,-15.59"/>
<polygon fill="midnightblue" stroke="midnightblue" points="288.08,-19 297.33,-13.84 286.87,-12.11 288.08,-19"/>
</g>
<!-- Node14&#45;&gt;Node11 -->
<g id="edge20" class="edge">
<title>Node14&#45;&gt;Node11</title>
<path fill="none" stroke="midnightblue" d="M244.69,-123.4C252.29,-114.88 262.14,-103.85 270.72,-94.23"/>
<polygon fill="midnightblue" stroke="midnightblue" points="273.5,-96.37 277.55,-86.58 268.28,-91.71 273.5,-96.37"/>
</g>
<!-- Node15&#45;&gt;Node3 -->
<g id="edge26" class="edge">
<title>Node15&#45;&gt;Node3</title>
<path fill="none" stroke="midnightblue" d="M371.53,-195.87C375.04,-172.64 382.69,-107.05 367.11,-56 363.99,-45.8 357.84,-35.69 352,-27.66"/>
<polygon fill="midnightblue" stroke="midnightblue" points="354.61,-25.31 345.72,-19.56 349.08,-29.61 354.61,-25.31"/>
</g>
<!-- Node16&#45;&gt;Node4 -->
<g id="edge30" class="edge">
<title>Node16&#45;&gt;Node4</title>
<path fill="none" stroke="midnightblue" d="M512.66,-282.19C510.64,-295.49 507.39,-321.73 509.11,-344 509.79,-352.78 511.2,-362.44 512.58,-370.55"/>
<polygon fill="midnightblue" stroke="midnightblue" points="509.14,-371.2 514.37,-380.42 516.03,-369.96 509.14,-371.2"/>
</g>
<!-- Node17 -->
<g id="node17" class="node">
<title>Node17</title>
<g id="a_node17"><a xlink:href="c__math_8h.html" target="_top" xlink:title=" ">
<polygon fill="white" stroke="black" points="490.11,-196 490.11,-215 606.11,-215 606.11,-196 490.11,-196"/>
<text text-anchor="middle" x="548.11" y="-203" font-family="Helvetica,sans-Serif" font-size="10.00">SComponent/c_math.h</text>
</a>
</g>
</g>
<!-- Node16&#45;&gt;Node17 -->
<g id="edge28" class="edge">
<title>Node16&#45;&gt;Node17</title>
<path fill="none" stroke="midnightblue" d="M518.69,-262.73C523.84,-252.89 532.33,-236.66 538.87,-224.16"/>
<polygon fill="midnightblue" stroke="midnightblue" points="542.06,-225.61 543.6,-215.13 535.86,-222.37 542.06,-225.61"/>
</g>
<!-- Node18 -->
<g id="node18" class="node">
<title>Node18</title>
<g id="a_node18"><a xlink:href="mtx__vec_8h.html" target="_top" xlink:title=" ">
<polygon fill="white" stroke="black" points="452.61,-62 452.61,-81 513.61,-81 513.61,-62 452.61,-62"/>
<text text-anchor="middle" x="483.11" y="-69" font-family="Helvetica,sans-Serif" font-size="10.00">mtx_vec.h</text>
</a>
</g>
</g>
<!-- Node16&#45;&gt;Node18 -->
<g id="edge31" class="edge">
<title>Node16&#45;&gt;Node18</title>
<path fill="none" stroke="midnightblue" d="M506.28,-263C498.17,-253.56 486.01,-237.46 481.11,-221 467.72,-176.04 474.37,-119.98 479.34,-91.31"/>
<polygon fill="midnightblue" stroke="midnightblue" points="482.85,-91.59 481.24,-81.12 475.97,-90.31 482.85,-91.59"/>
</g>
<!-- Node17&#45;&gt;Node4 -->
<g id="edge29" class="edge">
<title>Node17&#45;&gt;Node4</title>
<path fill="none" stroke="midnightblue" d="M555,-215.17C562.14,-224.76 572.84,-240.98 577.11,-257 587.07,-294.36 594.54,-309.48 577.11,-344 570.3,-357.48 557.34,-367.92 545.11,-375.33"/>
<polygon fill="midnightblue" stroke="midnightblue" points="543.04,-372.48 536.01,-380.41 546.45,-378.59 543.04,-372.48"/>
</g>
<!-- Node18&#45;&gt;Node3 -->
<g id="edge32" class="edge">
<title>Node18&#45;&gt;Node3</title>
<path fill="none" stroke="midnightblue" d="M462.33,-61.98C437.68,-51.86 396.36,-34.9 368.21,-23.35"/>
<polygon fill="midnightblue" stroke="midnightblue" points="369.42,-20.07 358.84,-19.51 366.77,-26.54 369.42,-20.07"/>
</g>
</g>
</svg>
