<?xml version="1.0" encoding="UTF-8" standalone="no"?>
<!DOCTYPE svg PUBLIC "-//W3C//DTD SVG 1.1//EN"
 "http://www.w3.org/Graphics/SVG/1.1/DTD/svg11.dtd">
<!-- Generated by graphviz version 2.46.0 (20210122.1329)
 -->
<!-- Title: libs/Z2AudioLib/Z2Calc.cpp Pages: 1 -->
<!--zoomable 520 -->
<svg id="main" version="1.1" xmlns="http://www.w3.org/2000/svg" xmlns:xlink="http://www.w3.org/1999/xlink" xml:space="preserve" onload="init(evt)">
<style type="text/css"><![CDATA[
.edge:hover path { stroke: red; }
.edge:hover polygon { stroke: red; fill: red; }
]]></style>
<script type="text/javascript"><![CDATA[
var edges = document.getElementsByTagName('g');
if (edges && edges.length) {
  for (var i=0;i<edges.length;i++) {
    if (edges[i].id.substr(0,4)=='edge') {
      edges[i].setAttribute('class','edge');
    }
  }
}
]]></script>
        <defs>
                <circle id="rim" cx="0" cy="0" r="7"/>
                <circle id="rim2" cx="0" cy="0" r="3.5"/>
                <g id="zoomPlus">
                        <use xlink:href="#rim" fill="#404040">
                                <set attributeName="fill" to="#808080" begin="zoomplus.mouseover" end="zoomplus.mouseout"/>
                        </use>
                        <path d="M-4,0h8M0,-4v8" fill="none" stroke="white" stroke-width="1.5" pointer-events="none"/>
                </g>
                <g id="zoomMin">
                        <use xlink:href="#rim" fill="#404040">
                                <set attributeName="fill" to="#808080" begin="zoomminus.mouseover" end="zoomminus.mouseout"/>
                        </use>
                        <path d="M-4,0h8" fill="none" stroke="white" stroke-width="1.5" pointer-events="none"/>
                </g>
                <g id="dirArrow">
                        <path fill="none" stroke="white" stroke-width="1.5" d="M0,-3.0v7 M-2.5,-0.5L0,-3.0L2.5,-0.5"/>
                </g>
               <g id="resetDef">
                       <use xlink:href="#rim2" fill="#404040">
                               <set attributeName="fill" to="#808080" begin="reset.mouseover" end="reset.mouseout"/>
                       </use>
               </g>
        </defs>

<script type="text/javascript">
var viewWidth = 831;
var viewHeight = 520;
var sectionId = 'dynsection-0';
</script>
<script xlink:href="svgpan.js"/>
<svg id="graph" class="graph">
<g id="viewport">
<title>libs/Z2AudioLib/Z2Calc.cpp</title>
<polygon fill="white" stroke="transparent" points="-4,4 -4,-516 827.12,-516 827.12,4 -4,4"/>
<!-- Node1 -->
<g id="node1" class="node">
<title>Node1</title>
<g id="a_node1"><a xlink:title=" ">
<polygon fill="#bfbfbf" stroke="black" points="233.12,-492.5 233.12,-511.5 369.12,-511.5 369.12,-492.5 233.12,-492.5"/>
<text text-anchor="middle" x="301.12" y="-499.5" font-family="Helvetica,sans-Serif" font-size="10.00">libs/Z2AudioLib/Z2Calc.cpp</text>
</a>
</g>
</g>
<!-- Node2 -->
<g id="node2" class="node">
<title>Node2</title>
<g id="a_node2"><a xlink:href="Z2Calc_8h.html" target="_top" xlink:title=" ">
<polygon fill="white" stroke="black" points="230.62,-436.5 230.62,-455.5 371.62,-455.5 371.62,-436.5 230.62,-436.5"/>
<text text-anchor="middle" x="301.12" y="-443.5" font-family="Helvetica,sans-Serif" font-size="10.00">Z2AudioLib/Z2Calc/Z2Calc.h</text>
</a>
</g>
</g>
<!-- Node1&#45;&gt;Node2 -->
<g id="edge1" class="edge">
<title>Node1&#45;&gt;Node2</title>
<path fill="none" stroke="midnightblue" d="M301.12,-492.08C301.12,-485.01 301.12,-474.86 301.12,-465.99"/>
<polygon fill="midnightblue" stroke="midnightblue" points="304.62,-465.75 301.12,-455.75 297.62,-465.75 304.62,-465.75"/>
</g>
<!-- Node3 -->
<g id="node3" class="node">
<title>Node3</title>
<g id="a_node3"><a xlink:href="random_8h.html" target="_top" xlink:title=" ">
<polygon fill="white" stroke="black" points="184.12,-380.5 184.12,-399.5 312.12,-399.5 312.12,-380.5 184.12,-380.5"/>
<text text-anchor="middle" x="248.12" y="-387.5" font-family="Helvetica,sans-Serif" font-size="10.00">JSystem/JMath/random.h</text>
</a>
</g>
</g>
<!-- Node2&#45;&gt;Node3 -->
<g id="edge2" class="edge">
<title>Node2&#45;&gt;Node3</title>
<path fill="none" stroke="midnightblue" d="M292.37,-436.08C284.65,-428.22 273.21,-416.57 263.9,-407.08"/>
<polygon fill="midnightblue" stroke="midnightblue" points="266.21,-404.44 256.71,-399.75 261.21,-409.34 266.21,-404.44"/>
</g>
<!-- Node5 -->
<g id="node5" class="node">
<title>Node5</title>
<g id="a_node5"><a xlink:href="global_8h.html" target="_top" xlink:title=" ">
<polygon fill="white" stroke="black" points="549.12,-380.5 549.12,-399.5 599.12,-399.5 599.12,-380.5 549.12,-380.5"/>
<text text-anchor="middle" x="574.12" y="-387.5" font-family="Helvetica,sans-Serif" font-size="10.00">global.h</text>
</a>
</g>
</g>
<!-- Node2&#45;&gt;Node5 -->
<g id="edge4" class="edge">
<title>Node2&#45;&gt;Node5</title>
<path fill="none" stroke="midnightblue" d="M344.38,-436.44C398.28,-425.78 489.33,-407.77 539.08,-397.93"/>
<polygon fill="midnightblue" stroke="midnightblue" points="539.92,-401.33 549.05,-395.96 538.56,-394.47 539.92,-401.33"/>
</g>
<!-- Node4 -->
<g id="node4" class="node">
<title>Node4</title>
<g id="a_node4"><a xlink:href="types_8h.html" target="_top" xlink:title=" ">
<polygon fill="white" stroke="black" points="305.62,-0.5 305.62,-19.5 386.62,-19.5 386.62,-0.5 305.62,-0.5"/>
<text text-anchor="middle" x="346.12" y="-7.5" font-family="Helvetica,sans-Serif" font-size="10.00">dolphin/types.h</text>
</a>
</g>
</g>
<!-- Node3&#45;&gt;Node4 -->
<g id="edge3" class="edge">
<title>Node3&#45;&gt;Node4</title>
<path fill="none" stroke="midnightblue" d="M183.81,-385.84C110.92,-378.4 2.12,-353.83 2.12,-273.5 2.12,-273.5 2.12,-273.5 2.12,-137.5 2.12,-100.31 -6.36,-81.07 21.12,-56 60.26,-20.28 214.16,-12.71 295.34,-11.24"/>
<polygon fill="midnightblue" stroke="midnightblue" points="295.4,-14.74 305.35,-11.09 295.29,-7.74 295.4,-14.74"/>
</g>
<!-- Node5&#45;&gt;Node4 -->
<g id="edge5" class="edge">
<title>Node5&#45;&gt;Node4</title>
<path fill="none" stroke="midnightblue" d="M594.4,-380.42C628.14,-364.62 692.12,-327.54 692.12,-273.5 692.12,-273.5 692.12,-273.5 692.12,-137.5 692.12,-75.4 493.06,-34.73 396.91,-18.71"/>
<polygon fill="midnightblue" stroke="midnightblue" points="397.26,-15.22 386.83,-17.05 396.13,-22.12 397.26,-15.22"/>
</g>
<!-- Node6 -->
<g id="node6" class="node">
<title>Node6</title>
<g id="a_node6"><a xlink:href="AR_8h.html" target="_top" xlink:title=" ">
<polygon fill="white" stroke="black" points="720.62,-263 720.62,-282 769.62,-282 769.62,-263 720.62,-263"/>
<text text-anchor="middle" x="745.12" y="-270" font-family="Helvetica,sans-Serif" font-size="10.00">ar/AR.h</text>
</a>
</g>
</g>
<!-- Node5&#45;&gt;Node6 -->
<g id="edge6" class="edge">
<title>Node5&#45;&gt;Node6</title>
<path fill="none" stroke="midnightblue" d="M599.13,-385.96C627.83,-381.33 674.93,-370.11 706.12,-344 722.5,-330.28 733.22,-307.84 739.2,-291.96"/>
<polygon fill="midnightblue" stroke="midnightblue" points="742.61,-292.8 742.59,-282.21 736,-290.5 742.61,-292.8"/>
</g>
<!-- Node7 -->
<g id="node7" class="node">
<title>Node7</title>
<g id="a_node7"><a xlink:href="ARQ_8h.html" target="_top" xlink:title=" ">
<polygon fill="white" stroke="black" points="767.12,-129 767.12,-148 823.12,-148 823.12,-129 767.12,-129"/>
<text text-anchor="middle" x="795.12" y="-136" font-family="Helvetica,sans-Serif" font-size="10.00">ar/ARQ.h</text>
</a>
</g>
</g>
<!-- Node5&#45;&gt;Node7 -->
<g id="edge8" class="edge">
<title>Node5&#45;&gt;Node7</title>
<path fill="none" stroke="midnightblue" d="M599.3,-385.93C631.29,-381.1 687.25,-369.52 728.12,-344 756.67,-326.17 765.3,-318.7 779.12,-288 798.58,-244.77 798.4,-187.56 796.71,-158.37"/>
<polygon fill="midnightblue" stroke="midnightblue" points="800.18,-157.74 795.98,-148.02 793.2,-158.24 800.18,-157.74"/>
</g>
<!-- Node8 -->
<g id="node8" class="node">
<title>Node8</title>
<g id="a_node8"><a xlink:href="mwcc_8h.html" target="_top" xlink:title=" ">
<polygon fill="white" stroke="black" points="576.12,-324.5 576.12,-343.5 626.12,-343.5 626.12,-324.5 576.12,-324.5"/>
<text text-anchor="middle" x="601.12" y="-331.5" font-family="Helvetica,sans-Serif" font-size="10.00">mwcc.h</text>
</a>
</g>
</g>
<!-- Node5&#45;&gt;Node8 -->
<g id="edge10" class="edge">
<title>Node5&#45;&gt;Node8</title>
<path fill="none" stroke="midnightblue" d="M578.58,-380.08C582.27,-372.69 587.64,-361.95 592.21,-352.81"/>
<polygon fill="midnightblue" stroke="midnightblue" points="595.4,-354.26 596.74,-343.75 589.14,-351.13 595.4,-354.26"/>
</g>
<!-- Node9 -->
<g id="node9" class="node">
<title>Node9</title>
<g id="a_node9"><a xlink:href="OS_8h.html" target="_top" xlink:title=" ">
<polygon fill="white" stroke="black" points="76.12,-129 76.12,-148 128.12,-148 128.12,-129 76.12,-129"/>
<text text-anchor="middle" x="102.12" y="-136" font-family="Helvetica,sans-Serif" font-size="10.00">os/OS.h</text>
</a>
</g>
</g>
<!-- Node5&#45;&gt;Node9 -->
<g id="edge11" class="edge">
<title>Node5&#45;&gt;Node9</title>
<path fill="none" stroke="midnightblue" d="M549.01,-386.08C510.73,-381.02 436,-368.7 377.12,-344 283.66,-304.8 264.36,-284.17 185.12,-221 159.33,-200.45 132.68,-172.96 116.75,-155.74"/>
<polygon fill="midnightblue" stroke="midnightblue" points="119.17,-153.21 109.84,-148.19 114.01,-157.93 119.17,-153.21"/>
</g>
<!-- Node11 -->
<g id="node11" class="node">
<title>Node11</title>
<g id="a_node11"><a xlink:href="variables_8h.html" target="_top" xlink:title=" ">
<polygon fill="white" stroke="black" points="431.62,-324.5 431.62,-343.5 494.62,-343.5 494.62,-324.5 431.62,-324.5"/>
<text text-anchor="middle" x="463.12" y="-331.5" font-family="Helvetica,sans-Serif" font-size="10.00">variables.h</text>
</a>
</g>
</g>
<!-- Node5&#45;&gt;Node11 -->
<g id="edge15" class="edge">
<title>Node5&#45;&gt;Node11</title>
<path fill="none" stroke="midnightblue" d="M556.28,-380.32C538.4,-371.62 510.64,-358.12 490.07,-348.11"/>
<polygon fill="midnightblue" stroke="midnightblue" points="491.43,-344.88 480.91,-343.65 488.37,-351.18 491.43,-344.88"/>
</g>
<!-- Node6&#45;&gt;Node4 -->
<g id="edge7" class="edge">
<title>Node6&#45;&gt;Node4</title>
<path fill="none" stroke="midnightblue" d="M746.7,-262.88C752.14,-230.26 766.58,-113.25 706.12,-56 662.67,-14.87 485.45,-10 396.93,-10.23"/>
<polygon fill="midnightblue" stroke="midnightblue" points="396.83,-6.73 386.85,-10.28 396.86,-13.73 396.83,-6.73"/>
</g>
<!-- Node7&#45;&gt;Node4 -->
<g id="edge9" class="edge">
<title>Node7&#45;&gt;Node4</title>
<path fill="none" stroke="midnightblue" d="M792.82,-128.79C787.77,-111.59 773.99,-73.42 747.12,-56 690.46,-19.27 491.75,-12.34 397.05,-11.16"/>
<polygon fill="midnightblue" stroke="midnightblue" points="396.89,-7.66 386.85,-11.05 396.81,-14.66 396.89,-7.66"/>
</g>
<!-- Node9&#45;&gt;Node4 -->
<g id="edge12" class="edge">
<title>Node9&#45;&gt;Node4</title>
<path fill="none" stroke="midnightblue" d="M103.79,-128.8C107.5,-111.95 118.07,-74.89 142.12,-56 165.52,-37.62 242.71,-24.32 295.14,-17.13"/>
<polygon fill="midnightblue" stroke="midnightblue" points="295.82,-20.57 305.27,-15.78 294.89,-13.63 295.82,-20.57"/>
</g>
<!-- Node10 -->
<g id="node10" class="node">
<title>Node10</title>
<g id="a_node10"><a xlink:href="dvd_8h.html" target="_top" xlink:title=" ">
<polygon fill="white" stroke="black" points="30.62,-62 30.62,-81 89.62,-81 89.62,-62 30.62,-62"/>
<text text-anchor="middle" x="60.12" y="-69" font-family="Helvetica,sans-Serif" font-size="10.00">dvd/dvd.h</text>
</a>
</g>
</g>
<!-- Node9&#45;&gt;Node10 -->
<g id="edge13" class="edge">
<title>Node9&#45;&gt;Node10</title>
<path fill="none" stroke="midnightblue" d="M96.45,-128.73C90.03,-118.79 79.4,-102.34 71.29,-89.79"/>
<polygon fill="midnightblue" stroke="midnightblue" points="74.06,-87.63 65.69,-81.13 68.18,-91.43 74.06,-87.63"/>
</g>
<!-- Node10&#45;&gt;Node4 -->
<g id="edge14" class="edge">
<title>Node10&#45;&gt;Node4</title>
<path fill="none" stroke="midnightblue" d="M84.15,-61.93C90.59,-59.82 97.57,-57.68 104.12,-56 169.43,-39.25 246.16,-26.05 295.42,-18.39"/>
<polygon fill="midnightblue" stroke="midnightblue" points="296.15,-21.82 305.51,-16.84 295.09,-14.9 296.15,-21.82"/>
</g>
<!-- Node12 -->
<g id="node12" class="node">
<title>Node12</title>
<g id="a_node12"><a xlink:href="JSUList_8h.html" target="_top" xlink:title=" ">
<polygon fill="white" stroke="black" points="222.12,-56.5 222.12,-86.5 358.12,-86.5 358.12,-56.5 222.12,-56.5"/>
<text text-anchor="start" x="230.12" y="-74.5" font-family="Helvetica,sans-Serif" font-size="10.00">JSystem/JSupport/JSUList</text>
<text text-anchor="middle" x="290.12" y="-63.5" font-family="Helvetica,sans-Serif" font-size="10.00">/JSUList.h</text>
</a>
</g>
</g>
<!-- Node11&#45;&gt;Node12 -->
<g id="edge16" class="edge">
<title>Node11&#45;&gt;Node12</title>
<path fill="none" stroke="midnightblue" d="M431.27,-326.43C409.69,-320.25 382.41,-308.74 367.12,-288 323.17,-228.41 378.22,-188.72 344.12,-123 338.16,-111.52 328.52,-101.25 319.03,-93.02"/>
<polygon fill="midnightblue" stroke="midnightblue" points="321.13,-90.22 311.17,-86.6 316.7,-95.64 321.13,-90.22"/>
</g>
<!-- Node13 -->
<g id="node13" class="node">
<title>Node13</title>
<g id="a_node13"><a xlink:href="JUTXfb_8h.html" target="_top" xlink:title=" ">
<polygon fill="white" stroke="black" points="375.62,-257.5 375.62,-287.5 500.62,-287.5 500.62,-257.5 375.62,-257.5"/>
<text text-anchor="start" x="383.62" y="-275.5" font-family="Helvetica,sans-Serif" font-size="10.00">JSystem/JUtility/JUTXfb</text>
<text text-anchor="middle" x="438.12" y="-264.5" font-family="Helvetica,sans-Serif" font-size="10.00">/JUTXfb.h</text>
</a>
</g>
</g>
<!-- Node11&#45;&gt;Node13 -->
<g id="edge18" class="edge">
<title>Node11&#45;&gt;Node13</title>
<path fill="none" stroke="midnightblue" d="M459.54,-324.48C456.5,-317.25 451.99,-306.53 447.9,-296.78"/>
<polygon fill="midnightblue" stroke="midnightblue" points="451.11,-295.39 444.01,-287.52 444.66,-298.1 451.11,-295.39"/>
</g>
<!-- Node17 -->
<g id="node17" class="node">
<title>Node17</title>
<g id="a_node17"><a xlink:href="c__xyz_8h.html" target="_top" xlink:title=" ">
<polygon fill="white" stroke="black" points="518.62,-263 518.62,-282 625.62,-282 625.62,-263 518.62,-263"/>
<text text-anchor="middle" x="572.12" y="-270" font-family="Helvetica,sans-Serif" font-size="10.00">SComponent/c_xyz.h</text>
</a>
</g>
</g>
<!-- Node11&#45;&gt;Node17 -->
<g id="edge28" class="edge">
<title>Node11&#45;&gt;Node17</title>
<path fill="none" stroke="midnightblue" d="M478.74,-324.48C496.7,-314.67 526.44,-298.43 547.52,-286.92"/>
<polygon fill="midnightblue" stroke="midnightblue" points="549.43,-289.87 556.53,-282.01 546.08,-283.73 549.43,-289.87"/>
</g>
<!-- Node12&#45;&gt;Node4 -->
<g id="edge17" class="edge">
<title>Node12&#45;&gt;Node4</title>
<path fill="none" stroke="midnightblue" d="M303.39,-56.4C311.7,-47.58 322.42,-36.18 331.04,-27.02"/>
<polygon fill="midnightblue" stroke="midnightblue" points="333.67,-29.34 337.97,-19.66 328.57,-24.54 333.67,-29.34"/>
</g>
<!-- Node13&#45;&gt;Node4 -->
<g id="edge25" class="edge">
<title>Node13&#45;&gt;Node4</title>
<path fill="none" stroke="midnightblue" d="M442.77,-257.26C453.83,-220.6 477.83,-121.22 437.12,-56 427.37,-40.38 410.41,-30.01 393.76,-23.21"/>
<polygon fill="midnightblue" stroke="midnightblue" points="394.65,-19.81 384.05,-19.61 392.21,-26.37 394.65,-19.81"/>
</g>
<!-- Node14 -->
<g id="node14" class="node">
<title>Node14</title>
<g id="a_node14"><a xlink:href="JKRHeap_8h.html" target="_top" xlink:title=" ">
<polygon fill="white" stroke="black" points="194.12,-190.5 194.12,-220.5 330.12,-220.5 330.12,-190.5 194.12,-190.5"/>
<text text-anchor="start" x="202.12" y="-208.5" font-family="Helvetica,sans-Serif" font-size="10.00">JSystem/JKernel/JKRHeap</text>
<text text-anchor="middle" x="262.12" y="-197.5" font-family="Helvetica,sans-Serif" font-size="10.00">/JKRHeap.h</text>
</a>
</g>
</g>
<!-- Node13&#45;&gt;Node14 -->
<g id="edge19" class="edge">
<title>Node13&#45;&gt;Node14</title>
<path fill="none" stroke="midnightblue" d="M399.93,-257.4C373.52,-247.64 338.19,-234.59 309.91,-224.15"/>
<polygon fill="midnightblue" stroke="midnightblue" points="310.83,-220.76 300.23,-220.58 308.4,-227.32 310.83,-220.76"/>
</g>
<!-- Node16 -->
<g id="node16" class="node">
<title>Node16</title>
<g id="a_node16"><a xlink:href="GX_8h.html" target="_top" xlink:title=" ">
<polygon fill="white" stroke="black" points="376.62,-62 376.62,-81 427.62,-81 427.62,-62 376.62,-62"/>
<text text-anchor="middle" x="402.12" y="-69" font-family="Helvetica,sans-Serif" font-size="10.00">gx/GX.h</text>
</a>
</g>
</g>
<!-- Node13&#45;&gt;Node16 -->
<g id="edge26" class="edge">
<title>Node13&#45;&gt;Node16</title>
<path fill="none" stroke="midnightblue" d="M434.48,-257.41C431.94,-247.32 428.59,-233.37 426.12,-221 416.87,-174.63 408.7,-119.57 404.71,-91.31"/>
<polygon fill="midnightblue" stroke="midnightblue" points="408.15,-90.66 403.3,-81.24 401.22,-91.63 408.15,-90.66"/>
</g>
<!-- Node14&#45;&gt;Node4 -->
<g id="edge23" class="edge">
<title>Node14&#45;&gt;Node4</title>
<path fill="none" stroke="midnightblue" d="M219.31,-190.42C202.43,-182.52 184.79,-170.8 175.12,-154 168.24,-142.06 172.32,-136.49 175.12,-123 181.7,-91.23 180.04,-77.75 204.12,-56 229.18,-33.36 265.63,-22.11 295.32,-16.52"/>
<polygon fill="midnightblue" stroke="midnightblue" points="296.25,-19.91 305.52,-14.77 295.07,-13.01 296.25,-19.91"/>
</g>
<!-- Node14&#45;&gt;Node5 -->
<g id="edge24" class="edge">
<title>Node14&#45;&gt;Node5</title>
<path fill="none" stroke="midnightblue" d="M272.32,-220.61C285.22,-237.82 308.69,-267.2 333.12,-288 368.99,-318.54 380.16,-324.66 423.12,-344 461.33,-361.21 507.87,-373.93 539.1,-381.38"/>
<polygon fill="midnightblue" stroke="midnightblue" points="538.54,-384.84 549.07,-383.7 540.13,-378.03 538.54,-384.84"/>
</g>
<!-- Node15 -->
<g id="node15" class="node">
<title>Node15</title>
<g id="a_node15"><a xlink:href="JKRDisposer_8h.html" target="_top" xlink:title=" ">
<polygon fill="white" stroke="black" points="184.62,-123.5 184.62,-153.5 335.62,-153.5 335.62,-123.5 184.62,-123.5"/>
<text text-anchor="start" x="192.62" y="-141.5" font-family="Helvetica,sans-Serif" font-size="10.00">JSystem/JKernel/JKRDisposer</text>
<text text-anchor="middle" x="260.12" y="-130.5" font-family="Helvetica,sans-Serif" font-size="10.00">/JKRDisposer.h</text>
</a>
</g>
</g>
<!-- Node14&#45;&gt;Node15 -->
<g id="edge20" class="edge">
<title>Node14&#45;&gt;Node15</title>
<path fill="none" stroke="midnightblue" d="M261.68,-190.4C261.45,-182.64 261.14,-172.81 260.87,-163.86"/>
<polygon fill="midnightblue" stroke="midnightblue" points="264.36,-163.46 260.55,-153.58 257.36,-163.68 264.36,-163.46"/>
</g>
<!-- Node15&#45;&gt;Node4 -->
<g id="edge22" class="edge">
<title>Node15&#45;&gt;Node4</title>
<path fill="none" stroke="midnightblue" d="M241.95,-123.43C222.67,-106.76 197.03,-78.43 213.12,-56 231.74,-30.04 266.15,-18.87 295.3,-14.14"/>
<polygon fill="midnightblue" stroke="midnightblue" points="295.95,-17.59 305.36,-12.73 294.97,-10.66 295.95,-17.59"/>
</g>
<!-- Node15&#45;&gt;Node12 -->
<g id="edge21" class="edge">
<title>Node15&#45;&gt;Node12</title>
<path fill="none" stroke="midnightblue" d="M266.63,-123.4C270.36,-115.3 275.14,-104.94 279.42,-95.69"/>
<polygon fill="midnightblue" stroke="midnightblue" points="282.61,-97.12 283.62,-86.58 276.25,-94.19 282.61,-97.12"/>
</g>
<!-- Node16&#45;&gt;Node4 -->
<g id="edge27" class="edge">
<title>Node16&#45;&gt;Node4</title>
<path fill="none" stroke="midnightblue" d="M394.1,-61.98C385.53,-52.87 371.76,-38.24 361.16,-26.98"/>
<polygon fill="midnightblue" stroke="midnightblue" points="363.53,-24.39 354.13,-19.51 358.43,-29.19 363.53,-24.39"/>
</g>
<!-- Node17&#45;&gt;Node5 -->
<g id="edge31" class="edge">
<title>Node17&#45;&gt;Node5</title>
<path fill="none" stroke="midnightblue" d="M570.68,-282.19C568.65,-295.49 565.4,-321.73 567.12,-344 567.8,-352.78 569.21,-362.44 570.59,-370.55"/>
<polygon fill="midnightblue" stroke="midnightblue" points="567.15,-371.2 572.38,-380.42 574.04,-369.96 567.15,-371.2"/>
</g>
<!-- Node18 -->
<g id="node18" class="node">
<title>Node18</title>
<g id="a_node18"><a xlink:href="c__math_8h.html" target="_top" xlink:title=" ">
<polygon fill="white" stroke="black" points="548.12,-196 548.12,-215 664.12,-215 664.12,-196 548.12,-196"/>
<text text-anchor="middle" x="606.12" y="-203" font-family="Helvetica,sans-Serif" font-size="10.00">SComponent/c_math.h</text>
</a>
</g>
</g>
<!-- Node17&#45;&gt;Node18 -->
<g id="edge29" class="edge">
<title>Node17&#45;&gt;Node18</title>
<path fill="none" stroke="midnightblue" d="M576.7,-262.73C581.85,-252.89 590.34,-236.66 596.88,-224.16"/>
<polygon fill="midnightblue" stroke="midnightblue" points="600.07,-225.61 601.61,-215.13 593.87,-222.37 600.07,-225.61"/>
</g>
<!-- Node19 -->
<g id="node19" class="node">
<title>Node19</title>
<g id="a_node19"><a xlink:href="mtx__vec_8h.html" target="_top" xlink:title=" ">
<polygon fill="white" stroke="black" points="468.62,-196 468.62,-215 529.62,-215 529.62,-196 468.62,-196"/>
<text text-anchor="middle" x="499.12" y="-203" font-family="Helvetica,sans-Serif" font-size="10.00">mtx_vec.h</text>
</a>
</g>
</g>
<!-- Node17&#45;&gt;Node19 -->
<g id="edge32" class="edge">
<title>Node17&#45;&gt;Node19</title>
<path fill="none" stroke="midnightblue" d="M562.27,-262.73C550.56,-252.31 530.8,-234.71 516.5,-221.97"/>
<polygon fill="midnightblue" stroke="midnightblue" points="518.6,-219.16 508.81,-215.13 513.95,-224.39 518.6,-219.16"/>
</g>
<!-- Node18&#45;&gt;Node5 -->
<g id="edge30" class="edge">
<title>Node18&#45;&gt;Node5</title>
<path fill="none" stroke="midnightblue" d="M613.01,-215.17C620.15,-224.76 630.85,-240.98 635.12,-257 645.08,-294.36 652.55,-309.48 635.12,-344 628.31,-357.48 615.35,-367.92 603.12,-375.33"/>
<polygon fill="midnightblue" stroke="midnightblue" points="601.05,-372.48 594.02,-380.41 604.46,-378.59 601.05,-372.48"/>
</g>
<!-- Node19&#45;&gt;Node4 -->
<g id="edge33" class="edge">
<title>Node19&#45;&gt;Node4</title>
<path fill="none" stroke="midnightblue" d="M500.12,-195.9C502.52,-170.99 505.98,-97.91 470.12,-56 451.78,-34.57 422.39,-23.34 396.83,-17.46"/>
<polygon fill="midnightblue" stroke="midnightblue" points="397.38,-14.01 386.88,-15.39 395.96,-20.86 397.38,-14.01"/>
</g>
</g>
</svg>
        <g id="navigator" transform="translate(0 0)" fill="#404254">
                <rect fill="#f2f5e9" fill-opacity="0.5" stroke="#606060" stroke-width=".5" x="0" y="0" width="60" height="60"/>
                <use id="zoomplus" xlink:href="#zoomPlus" x="17" y="9" onmousedown="handleZoom(evt,'in')"/>
                <use id="zoomminus" xlink:href="#zoomMin" x="42" y="9" onmousedown="handleZoom(evt,'out')"/>
                <use id="reset" xlink:href="#resetDef" x="30" y="36" onmousedown="handleReset()"/>
                <g id="arrowUp" xlink:href="#dirArrow" transform="translate(30 24)" onmousedown="handlePan(0,-1)">
                  <use xlink:href="#rim" fill="#404040">
                        <set attributeName="fill" to="#808080" begin="arrowUp.mouseover" end="arrowUp.mouseout"/>
                  </use>
                  <path fill="none" stroke="white" stroke-width="1.5" d="M0,-3.0v7 M-2.5,-0.5L0,-3.0L2.5,-0.5"/>
                </g>
                <g id="arrowRight" xlink:href="#dirArrow" transform="rotate(90) translate(36 -43)" onmousedown="handlePan(1,0)">
                  <use xlink:href="#rim" fill="#404040">
                        <set attributeName="fill" to="#808080" begin="arrowRight.mouseover" end="arrowRight.mouseout"/>
                  </use>
                  <path fill="none" stroke="white" stroke-width="1.5" d="M0,-3.0v7 M-2.5,-0.5L0,-3.0L2.5,-0.5"/>
                </g>
                <g id="arrowDown" xlink:href="#dirArrow" transform="rotate(180) translate(-30 -48)" onmousedown="handlePan(0,1)">
                  <use xlink:href="#rim" fill="#404040">
                        <set attributeName="fill" to="#808080" begin="arrowDown.mouseover" end="arrowDown.mouseout"/>
                  </use>
                  <path fill="none" stroke="white" stroke-width="1.5" d="M0,-3.0v7 M-2.5,-0.5L0,-3.0L2.5,-0.5"/>
                </g>
                <g id="arrowLeft" xlink:href="#dirArrow" transform="rotate(270) translate(-36 17)" onmousedown="handlePan(-1,0)">
                  <use xlink:href="#rim" fill="#404040">
                        <set attributeName="fill" to="#808080" begin="arrowLeft.mouseover" end="arrowLeft.mouseout"/>
                  </use>
                  <path fill="none" stroke="white" stroke-width="1.5" d="M0,-3.0v7 M-2.5,-0.5L0,-3.0L2.5,-0.5"/>
                </g>
        </g>
        <svg viewBox="0 0 15 15" width="100%" height="30px" preserveAspectRatio="xMaxYMin meet">
         <g id="arrow_out" transform="scale(0.3 0.3)">
          <a xlink:href="Z2Calc_8cpp__incl_org.svg" target="_base">
           <rect id="button" ry="5" rx="5" y="6" x="6" height="38" width="38"
                fill="#f2f5e9" fill-opacity="0.5" stroke="#606060" stroke-width="1.0"/>
           <path id="arrow"
             d="M 11.500037,31.436501 C 11.940474,20.09759 22.043105,11.32322 32.158766,21.979434 L 37.068811,17.246167 C 37.068811,17.246167 37.088388,32 37.088388,32 L 22.160133,31.978069 C 22.160133,31.978069 26.997745,27.140456 26.997745,27.140456 C 18.528582,18.264221 13.291696,25.230495 11.500037,31.436501 z"
             style="fill:#404040;"/>
          </a>
         </g>
        </svg>
</svg>
