<?xml version="1.0" encoding="UTF-8" standalone="no"?>
<!DOCTYPE svg PUBLIC "-//W3C//DTD SVG 1.1//EN"
 "http://www.w3.org/Graphics/SVG/1.1/DTD/svg11.dtd">
<!-- Generated by graphviz version 2.46.1 (20210215.1649)
 -->
<!-- Title: libs/Z2AudioLib/Z2FxLineMgr.cpp Pages: 1 -->
<!--zoomable 486 -->
<svg id="main" version="1.1" xmlns="http://www.w3.org/2000/svg" xmlns:xlink="http://www.w3.org/1999/xlink" xml:space="preserve" onload="init(evt)">
<style type="text/css"><![CDATA[
.edge:hover path { stroke: red; }
.edge:hover polygon { stroke: red; fill: red; }
]]></style>
<script type="text/javascript"><![CDATA[
var edges = document.getElementsByTagName('g');
if (edges && edges.length) {
  for (var i=0;i<edges.length;i++) {
    if (edges[i].id.substr(0,4)=='edge') {
      edges[i].setAttribute('class','edge');
    }
  }
}
]]></script>
        <defs>
                <circle id="rim" cx="0" cy="0" r="7"/>
                <circle id="rim2" cx="0" cy="0" r="3.5"/>
                <g id="zoomPlus">
                        <use xlink:href="#rim" fill="#404040">
                                <set attributeName="fill" to="#808080" begin="zoomplus.mouseover" end="zoomplus.mouseout"/>
                        </use>
                        <path d="M-4,0h8M0,-4v8" fill="none" stroke="white" stroke-width="1.5" pointer-events="none"/>
                </g>
                <g id="zoomMin">
                        <use xlink:href="#rim" fill="#404040">
                                <set attributeName="fill" to="#808080" begin="zoomminus.mouseover" end="zoomminus.mouseout"/>
                        </use>
                        <path d="M-4,0h8" fill="none" stroke="white" stroke-width="1.5" pointer-events="none"/>
                </g>
                <g id="dirArrow">
                        <path fill="none" stroke="white" stroke-width="1.5" d="M0,-3.0v7 M-2.5,-0.5L0,-3.0L2.5,-0.5"/>
                </g>
               <g id="resetDef">
                       <use xlink:href="#rim2" fill="#404040">
                               <set attributeName="fill" to="#808080" begin="reset.mouseover" end="reset.mouseout"/>
                       </use>
               </g>
        </defs>

<script type="text/javascript">
var viewWidth = 1540;
var viewHeight = 486;
var sectionId = 'dynsection-0';
</script>
<script xlink:href="svgpan.js"/>
<svg id="graph" class="graph">
<g id="viewport">
<title>libs/Z2AudioLib/Z2FxLineMgr.cpp</title>
<polygon fill="white" stroke="transparent" points="-4,4 -4,-482 1536,-482 1536,4 -4,4"/>
<!-- Node1 -->
<g id="node1" class="node">
<title>Node1</title>
<g id="a_node1"><a xlink:title=" ">
<polygon fill="#bfbfbf" stroke="black" points="685,-447.5 685,-477.5 813,-477.5 813,-447.5 685,-447.5"/>
<text text-anchor="start" x="693" y="-465.5" font-family="Helvetica,sans-Serif" font-size="10.00">libs/Z2AudioLib/Z2FxLine</text>
<text text-anchor="middle" x="749" y="-454.5" font-family="Helvetica,sans-Serif" font-size="10.00">Mgr.cpp</text>
</a>
</g>
</g>
<!-- Node2 -->
<g id="node2" class="node">
<title>Node2</title>
<g id="a_node2"><a xlink:href="Z2FxLineMgr_8h.html" target="_top" xlink:title=" ">
<polygon fill="white" stroke="black" points="0,-380.5 0,-410.5 126,-410.5 126,-380.5 0,-380.5"/>
<text text-anchor="start" x="8" y="-398.5" font-family="Helvetica,sans-Serif" font-size="10.00">Z2AudioLib/Z2FxLineMgr</text>
<text text-anchor="middle" x="63" y="-387.5" font-family="Helvetica,sans-Serif" font-size="10.00">/Z2FxLineMgr.h</text>
</a>
</g>
</g>
<!-- Node1&#45;&gt;Node2 -->
<g id="edge1" class="edge">
<title>Node1&#45;&gt;Node2</title>
<path fill="none" stroke="midnightblue" d="M684.64,-458.68C574.35,-453.31 342.01,-439.63 136.23,-411.07"/>
<polygon fill="midnightblue" stroke="midnightblue" points="136.53,-407.57 126.14,-409.65 135.56,-414.51 136.53,-407.57"/>
</g>
<!-- Node3 -->
<g id="node3" class="node">
<title>Node3</title>
<g id="a_node3"><a xlink:href="JASDsp_8h.html" target="_top" xlink:title=" ">
<polygon fill="white" stroke="black" points="144,-386 144,-405 284,-405 284,-386 144,-386"/>
<text text-anchor="middle" x="214" y="-393" font-family="Helvetica,sans-Serif" font-size="10.00">JSystem/JAudio2/JASDsp.h</text>
</a>
</g>
</g>
<!-- Node1&#45;&gt;Node3 -->
<g id="edge2" class="edge">
<title>Node1&#45;&gt;Node3</title>
<path fill="none" stroke="midnightblue" d="M684.63,-455.83C596.15,-447.7 432.09,-431.44 293,-411 284.67,-409.78 275.88,-408.32 267.3,-406.82"/>
<polygon fill="midnightblue" stroke="midnightblue" points="267.83,-403.36 257.37,-405.03 266.6,-410.25 267.83,-403.36"/>
</g>
<!-- Node4 -->
<g id="node4" class="node">
<title>Node4</title>
<g id="a_node4"><a xlink:href="JSUMemoryInputStream_8h.html" target="_top" xlink:title=" ">
<polygon fill="white" stroke="black" points="302,-380.5 302,-410.5 456,-410.5 456,-380.5 302,-380.5"/>
<text text-anchor="start" x="310" y="-398.5" font-family="Helvetica,sans-Serif" font-size="10.00">JSystem/JSupport/JSUMemory</text>
<text text-anchor="middle" x="379" y="-387.5" font-family="Helvetica,sans-Serif" font-size="10.00">InputStream.h</text>
</a>
</g>
</g>
<!-- Node1&#45;&gt;Node4 -->
<g id="edge3" class="edge">
<title>Node1&#45;&gt;Node4</title>
<path fill="none" stroke="midnightblue" d="M684.97,-450.25C624.48,-439.62 533.25,-423.6 466.14,-411.81"/>
<polygon fill="midnightblue" stroke="midnightblue" points="466.46,-408.31 456.01,-410.03 465.25,-415.21 466.46,-408.31"/>
</g>
<!-- Node5 -->
<g id="node5" class="node">
<title>Node5</title>
<g id="a_node5"><a xlink:href="global_8h.html" target="_top" xlink:title=" ">
<polygon fill="white" stroke="black" points="474,-386 474,-405 524,-405 524,-386 474,-386"/>
<text text-anchor="middle" x="499" y="-393" font-family="Helvetica,sans-Serif" font-size="10.00">global.h</text>
</a>
</g>
</g>
<!-- Node1&#45;&gt;Node5 -->
<g id="edge4" class="edge">
<title>Node1&#45;&gt;Node5</title>
<path fill="none" stroke="midnightblue" d="M684.88,-449.55C641.48,-440.72 583.14,-427.42 533,-411 531.08,-410.37 529.12,-409.68 527.15,-408.94"/>
<polygon fill="midnightblue" stroke="midnightblue" points="528.07,-405.54 517.48,-405.07 525.46,-412.04 528.07,-405.54"/>
</g>
<!-- Node19 -->
<g id="node19" class="node">
<title>Node19</title>
<g id="a_node19"><a xlink:title=" ">
<polygon fill="white" stroke="#bfbfbf" points="542,-380.5 542,-410.5 668,-410.5 668,-380.5 542,-380.5"/>
<text text-anchor="start" x="550" y="-398.5" font-family="Helvetica,sans-Serif" font-size="10.00">Z2AudioLib/Z2FxLineMgr</text>
<text text-anchor="middle" x="605" y="-387.5" font-family="Helvetica,sans-Serif" font-size="10.00">/asm/func_802BA7DC.s</text>
</a>
</g>
</g>
<!-- Node1&#45;&gt;Node19 -->
<g id="edge30" class="edge">
<title>Node1&#45;&gt;Node19</title>
<path fill="none" stroke="midnightblue" d="M717.75,-447.4C696.53,-437.81 668.25,-425.05 645.32,-414.7"/>
<polygon fill="midnightblue" stroke="midnightblue" points="646.74,-411.5 636.18,-410.58 643.86,-417.88 646.74,-411.5"/>
</g>
<!-- Node20 -->
<g id="node20" class="node">
<title>Node20</title>
<g id="a_node20"><a xlink:title=" ">
<polygon fill="white" stroke="#bfbfbf" points="686,-380.5 686,-410.5 812,-410.5 812,-380.5 686,-380.5"/>
<text text-anchor="start" x="694" y="-398.5" font-family="Helvetica,sans-Serif" font-size="10.00">Z2AudioLib/Z2FxLineMgr</text>
<text text-anchor="middle" x="749" y="-387.5" font-family="Helvetica,sans-Serif" font-size="10.00">/asm/func_802BA7FC.s</text>
</a>
</g>
</g>
<!-- Node1&#45;&gt;Node20 -->
<g id="edge31" class="edge">
<title>Node1&#45;&gt;Node20</title>
<path fill="none" stroke="midnightblue" d="M749,-447.4C749,-439.64 749,-429.81 749,-420.86"/>
<polygon fill="midnightblue" stroke="midnightblue" points="752.5,-420.58 749,-410.58 745.5,-420.58 752.5,-420.58"/>
</g>
<!-- Node21 -->
<g id="node21" class="node">
<title>Node21</title>
<g id="a_node21"><a xlink:title=" ">
<polygon fill="white" stroke="#bfbfbf" points="830,-380.5 830,-410.5 956,-410.5 956,-380.5 830,-380.5"/>
<text text-anchor="start" x="838" y="-398.5" font-family="Helvetica,sans-Serif" font-size="10.00">Z2AudioLib/Z2FxLineMgr</text>
<text text-anchor="middle" x="893" y="-387.5" font-family="Helvetica,sans-Serif" font-size="10.00">/asm/func_802BAC28.s</text>
</a>
</g>
</g>
<!-- Node1&#45;&gt;Node21 -->
<g id="edge32" class="edge">
<title>Node1&#45;&gt;Node21</title>
<path fill="none" stroke="midnightblue" d="M780.25,-447.4C801.47,-437.81 829.75,-425.05 852.68,-414.7"/>
<polygon fill="midnightblue" stroke="midnightblue" points="854.14,-417.88 861.82,-410.58 851.26,-411.5 854.14,-417.88"/>
</g>
<!-- Node22 -->
<g id="node22" class="node">
<title>Node22</title>
<g id="a_node22"><a xlink:title=" ">
<polygon fill="white" stroke="#bfbfbf" points="974,-380.5 974,-410.5 1100,-410.5 1100,-380.5 974,-380.5"/>
<text text-anchor="start" x="982" y="-398.5" font-family="Helvetica,sans-Serif" font-size="10.00">Z2AudioLib/Z2FxLineMgr</text>
<text text-anchor="middle" x="1037" y="-387.5" font-family="Helvetica,sans-Serif" font-size="10.00">/asm/func_802BAC74.s</text>
</a>
</g>
</g>
<!-- Node1&#45;&gt;Node22 -->
<g id="edge33" class="edge">
<title>Node1&#45;&gt;Node22</title>
<path fill="none" stroke="midnightblue" d="M811.14,-447.48C856.22,-437.3 917.32,-423.51 964.61,-412.84"/>
<polygon fill="midnightblue" stroke="midnightblue" points="965.49,-416.23 974.48,-410.61 963.95,-409.4 965.49,-416.23"/>
</g>
<!-- Node23 -->
<g id="node23" class="node">
<title>Node23</title>
<g id="a_node23"><a xlink:title=" ">
<polygon fill="white" stroke="#bfbfbf" points="1118,-380.5 1118,-410.5 1244,-410.5 1244,-380.5 1118,-380.5"/>
<text text-anchor="start" x="1126" y="-398.5" font-family="Helvetica,sans-Serif" font-size="10.00">Z2AudioLib/Z2FxLineMgr</text>
<text text-anchor="middle" x="1181" y="-387.5" font-family="Helvetica,sans-Serif" font-size="10.00">/asm/func_802BAE1C.s</text>
</a>
</g>
</g>
<!-- Node1&#45;&gt;Node23 -->
<g id="edge34" class="edge">
<title>Node1&#45;&gt;Node23</title>
<path fill="none" stroke="midnightblue" d="M813.23,-453.66C883.27,-444.85 998.86,-429.53 1107.96,-411.12"/>
<polygon fill="midnightblue" stroke="midnightblue" points="1108.55,-414.57 1117.82,-409.44 1107.38,-407.67 1108.55,-414.57"/>
</g>
<!-- Node24 -->
<g id="node24" class="node">
<title>Node24</title>
<g id="a_node24"><a xlink:title=" ">
<polygon fill="white" stroke="#bfbfbf" points="1262,-380.5 1262,-410.5 1388,-410.5 1388,-380.5 1262,-380.5"/>
<text text-anchor="start" x="1270" y="-398.5" font-family="Helvetica,sans-Serif" font-size="10.00">Z2AudioLib/Z2FxLineMgr</text>
<text text-anchor="middle" x="1325" y="-387.5" font-family="Helvetica,sans-Serif" font-size="10.00">/asm/func_802BAE48.s</text>
</a>
</g>
</g>
<!-- Node1&#45;&gt;Node24 -->
<g id="edge35" class="edge">
<title>Node1&#45;&gt;Node24</title>
<path fill="none" stroke="midnightblue" d="M813.3,-457.1C907.37,-450.22 1088.21,-435.27 1251.61,-411.12"/>
<polygon fill="midnightblue" stroke="midnightblue" points="1252.47,-414.52 1261.85,-409.59 1251.44,-407.6 1252.47,-414.52"/>
</g>
<!-- Node25 -->
<g id="node25" class="node">
<title>Node25</title>
<g id="a_node25"><a xlink:title=" ">
<polygon fill="white" stroke="#bfbfbf" points="1406,-380.5 1406,-410.5 1532,-410.5 1532,-380.5 1406,-380.5"/>
<text text-anchor="start" x="1414" y="-398.5" font-family="Helvetica,sans-Serif" font-size="10.00">Z2AudioLib/Z2FxLineMgr</text>
<text text-anchor="middle" x="1469" y="-387.5" font-family="Helvetica,sans-Serif" font-size="10.00">/asm/func_802BAEB8.s</text>
</a>
</g>
</g>
<!-- Node1&#45;&gt;Node25 -->
<g id="edge36" class="edge">
<title>Node1&#45;&gt;Node25</title>
<path fill="none" stroke="midnightblue" d="M813.2,-459.07C928.12,-454.16 1176.7,-440.99 1395.78,-411.06"/>
<polygon fill="midnightblue" stroke="midnightblue" points="1396.43,-414.5 1405.86,-409.67 1395.47,-407.57 1396.43,-414.5"/>
</g>
<!-- Node6 -->
<g id="node6" class="node">
<title>Node6</title>
<g id="a_node6"><a xlink:href="types_8h.html" target="_top" xlink:title=" ">
<polygon fill="white" stroke="black" points="538.5,-0.5 538.5,-19.5 619.5,-19.5 619.5,-0.5 538.5,-0.5"/>
<text text-anchor="middle" x="579" y="-7.5" font-family="Helvetica,sans-Serif" font-size="10.00">dolphin/types.h</text>
</a>
</g>
</g>
<!-- Node5&#45;&gt;Node6 -->
<g id="edge5" class="edge">
<title>Node5&#45;&gt;Node6</title>
<path fill="none" stroke="midnightblue" d="M483.23,-385.93C444.72,-364.48 349,-307.71 349,-273.5 349,-273.5 349,-273.5 349,-137.5 349,-56.23 460.63,-26.8 528.35,-16.42"/>
<polygon fill="midnightblue" stroke="midnightblue" points="529.01,-19.86 538.41,-14.97 528.01,-12.93 529.01,-19.86"/>
</g>
<!-- Node7 -->
<g id="node7" class="node">
<title>Node7</title>
<g id="a_node7"><a xlink:href="AR_8h.html" target="_top" xlink:title=" ">
<polygon fill="white" stroke="black" points="379.5,-263 379.5,-282 428.5,-282 428.5,-263 379.5,-263"/>
<text text-anchor="middle" x="404" y="-270" font-family="Helvetica,sans-Serif" font-size="10.00">ar/AR.h</text>
</a>
</g>
</g>
<!-- Node5&#45;&gt;Node7 -->
<g id="edge6" class="edge">
<title>Node5&#45;&gt;Node7</title>
<path fill="none" stroke="midnightblue" d="M487.49,-385.72C475.63,-376.29 457.07,-360.43 444,-344 430.9,-327.54 419.46,-306.26 412.21,-291.4"/>
<polygon fill="midnightblue" stroke="midnightblue" points="415.33,-289.82 407.89,-282.28 409.01,-292.82 415.33,-289.82"/>
</g>
<!-- Node8 -->
<g id="node8" class="node">
<title>Node8</title>
<g id="a_node8"><a xlink:href="ARQ_8h.html" target="_top" xlink:title=" ">
<polygon fill="white" stroke="black" points="415,-196 415,-215 471,-215 471,-196 415,-196"/>
<text text-anchor="middle" x="443" y="-203" font-family="Helvetica,sans-Serif" font-size="10.00">ar/ARQ.h</text>
</a>
</g>
</g>
<!-- Node5&#45;&gt;Node8 -->
<g id="edge8" class="edge">
<title>Node5&#45;&gt;Node8</title>
<path fill="none" stroke="midnightblue" d="M496.45,-385.93C487.92,-357.31 460.29,-264.53 448.46,-224.81"/>
<polygon fill="midnightblue" stroke="midnightblue" points="451.78,-223.7 445.57,-215.12 445.07,-225.7 451.78,-223.7"/>
</g>
<!-- Node9 -->
<g id="node9" class="node">
<title>Node9</title>
<g id="a_node9"><a xlink:href="mwcc_8h.html" target="_top" xlink:title=" ">
<polygon fill="white" stroke="black" points="791,-324.5 791,-343.5 841,-343.5 841,-324.5 791,-324.5"/>
<text text-anchor="middle" x="816" y="-331.5" font-family="Helvetica,sans-Serif" font-size="10.00">mwcc.h</text>
</a>
</g>
</g>
<!-- Node5&#45;&gt;Node9 -->
<g id="edge10" class="edge">
<title>Node5&#45;&gt;Node9</title>
<path fill="none" stroke="midnightblue" d="M516.69,-385.94C521.85,-383.72 527.56,-381.53 533,-380 638.51,-350.25 669.29,-364.34 777,-344 778.27,-343.76 779.56,-343.51 780.86,-343.25"/>
<polygon fill="midnightblue" stroke="midnightblue" points="781.84,-346.62 790.89,-341.11 780.38,-339.77 781.84,-346.62"/>
</g>
<!-- Node10 -->
<g id="node10" class="node">
<title>Node10</title>
<g id="a_node10"><a xlink:href="OS_8h.html" target="_top" xlink:title=" ">
<polygon fill="white" stroke="black" points="473,-129 473,-148 525,-148 525,-129 473,-129"/>
<text text-anchor="middle" x="499" y="-136" font-family="Helvetica,sans-Serif" font-size="10.00">os/OS.h</text>
</a>
</g>
</g>
<!-- Node5&#45;&gt;Node10 -->
<g id="edge11" class="edge">
<title>Node5&#45;&gt;Node10</title>
<path fill="none" stroke="midnightblue" d="M499,-385.72C499,-349.32 499,-209.77 499,-158.52"/>
<polygon fill="midnightblue" stroke="midnightblue" points="502.5,-158.24 499,-148.24 495.5,-158.24 502.5,-158.24"/>
</g>
<!-- Node12 -->
<g id="node12" class="node">
<title>Node12</title>
<g id="a_node12"><a xlink:href="variables_8h.html" target="_top" xlink:title=" ">
<polygon fill="white" stroke="black" points="565.5,-324.5 565.5,-343.5 628.5,-343.5 628.5,-324.5 565.5,-324.5"/>
<text text-anchor="middle" x="597" y="-331.5" font-family="Helvetica,sans-Serif" font-size="10.00">variables.h</text>
</a>
</g>
</g>
<!-- Node5&#45;&gt;Node12 -->
<g id="edge15" class="edge">
<title>Node5&#45;&gt;Node12</title>
<path fill="none" stroke="midnightblue" d="M513.04,-385.98C529.05,-376.25 555.45,-360.23 574.37,-348.74"/>
<polygon fill="midnightblue" stroke="midnightblue" points="576.25,-351.69 582.99,-343.51 572.62,-345.71 576.25,-351.69"/>
</g>
<!-- Node7&#45;&gt;Node6 -->
<g id="edge7" class="edge">
<title>Node7&#45;&gt;Node6</title>
<path fill="none" stroke="midnightblue" d="M401.8,-262.74C394.28,-230.59 372.96,-117.71 427,-56 452.14,-27.29 494.64,-16.48 528.31,-12.6"/>
<polygon fill="midnightblue" stroke="midnightblue" points="528.84,-16.07 538.45,-11.61 528.16,-9.1 528.84,-16.07"/>
</g>
<!-- Node8&#45;&gt;Node6 -->
<g id="edge9" class="edge">
<title>Node8&#45;&gt;Node6</title>
<path fill="none" stroke="midnightblue" d="M439.89,-195.73C431.71,-170.99 412.35,-99.61 444,-56 463.15,-29.62 498.42,-18.48 528.11,-13.88"/>
<polygon fill="midnightblue" stroke="midnightblue" points="528.89,-17.3 538.34,-12.51 527.97,-10.36 528.89,-17.3"/>
</g>
<!-- Node10&#45;&gt;Node6 -->
<g id="edge12" class="edge">
<title>Node10&#45;&gt;Node6</title>
<path fill="none" stroke="midnightblue" d="M504.5,-128.81C517.57,-108.13 550.71,-55.73 568.05,-28.32"/>
<polygon fill="midnightblue" stroke="midnightblue" points="571.08,-30.08 573.46,-19.76 565.16,-26.34 571.08,-30.08"/>
</g>
<!-- Node11 -->
<g id="node11" class="node">
<title>Node11</title>
<g id="a_node11"><a xlink:href="dvd_8h.html" target="_top" xlink:title=" ">
<polygon fill="white" stroke="black" points="453.5,-62 453.5,-81 512.5,-81 512.5,-62 453.5,-62"/>
<text text-anchor="middle" x="483" y="-69" font-family="Helvetica,sans-Serif" font-size="10.00">dvd/dvd.h</text>
</a>
</g>
</g>
<!-- Node10&#45;&gt;Node11 -->
<g id="edge13" class="edge">
<title>Node10&#45;&gt;Node11</title>
<path fill="none" stroke="midnightblue" d="M496.84,-128.73C494.47,-119.09 490.58,-103.3 487.53,-90.91"/>
<polygon fill="midnightblue" stroke="midnightblue" points="490.91,-90 485.12,-81.13 484.12,-91.67 490.91,-90"/>
</g>
<!-- Node11&#45;&gt;Node6 -->
<g id="edge14" class="edge">
<title>Node11&#45;&gt;Node6</title>
<path fill="none" stroke="midnightblue" d="M496.75,-61.98C512.37,-52.3 538.06,-36.37 556.58,-24.89"/>
<polygon fill="midnightblue" stroke="midnightblue" points="558.62,-27.75 565.27,-19.51 554.93,-21.8 558.62,-27.75"/>
</g>
<!-- Node13 -->
<g id="node13" class="node">
<title>Node13</title>
<g id="a_node13"><a xlink:href="JSUList_8h.html" target="_top" xlink:title=" ">
<polygon fill="white" stroke="black" points="715,-56.5 715,-86.5 851,-86.5 851,-56.5 715,-56.5"/>
<text text-anchor="start" x="723" y="-74.5" font-family="Helvetica,sans-Serif" font-size="10.00">JSystem/JSupport/JSUList</text>
<text text-anchor="middle" x="783" y="-63.5" font-family="Helvetica,sans-Serif" font-size="10.00">/JSUList.h</text>
</a>
</g>
</g>
<!-- Node12&#45;&gt;Node13 -->
<g id="edge16" class="edge">
<title>Node12&#45;&gt;Node13</title>
<path fill="none" stroke="midnightblue" d="M625.16,-324.49C653.43,-315.41 694.28,-300.62 705,-288 753.78,-230.56 711.57,-191.02 744,-123 748.79,-112.95 755.83,-103.01 762.62,-94.64"/>
<polygon fill="midnightblue" stroke="midnightblue" points="765.42,-96.74 769.22,-86.85 760.09,-92.21 765.42,-96.74"/>
</g>
<!-- Node14 -->
<g id="node14" class="node">
<title>Node14</title>
<g id="a_node14"><a xlink:href="JUTXfb_8h.html" target="_top" xlink:title=" ">
<polygon fill="white" stroke="black" points="571.5,-257.5 571.5,-287.5 696.5,-287.5 696.5,-257.5 571.5,-257.5"/>
<text text-anchor="start" x="579.5" y="-275.5" font-family="Helvetica,sans-Serif" font-size="10.00">JSystem/JUtility/JUTXfb</text>
<text text-anchor="middle" x="634" y="-264.5" font-family="Helvetica,sans-Serif" font-size="10.00">/JUTXfb.h</text>
</a>
</g>
</g>
<!-- Node12&#45;&gt;Node14 -->
<g id="edge18" class="edge">
<title>Node12&#45;&gt;Node14</title>
<path fill="none" stroke="midnightblue" d="M602.3,-324.48C606.89,-317.09 613.74,-306.08 619.9,-296.17"/>
<polygon fill="midnightblue" stroke="midnightblue" points="622.97,-297.86 625.28,-287.52 617.03,-294.17 622.97,-297.86"/>
</g>
<!-- Node18 -->
<g id="node18" class="node">
<title>Node18</title>
<g id="a_node18"><a xlink:href="mtx__vec_8h.html" target="_top" xlink:title=" ">
<polygon fill="white" stroke="black" points="543.5,-129 543.5,-148 604.5,-148 604.5,-129 543.5,-129"/>
<text text-anchor="middle" x="574" y="-136" font-family="Helvetica,sans-Serif" font-size="10.00">mtx_vec.h</text>
</a>
</g>
</g>
<!-- Node12&#45;&gt;Node18 -->
<g id="edge28" class="edge">
<title>Node12&#45;&gt;Node18</title>
<path fill="none" stroke="midnightblue" d="M587.44,-324.45C578.91,-316.12 567.01,-302.6 562,-288 546.66,-243.29 559.34,-186.74 567.85,-158.04"/>
<polygon fill="midnightblue" stroke="midnightblue" points="571.29,-158.76 570.94,-148.17 564.61,-156.67 571.29,-158.76"/>
</g>
<!-- Node13&#45;&gt;Node6 -->
<g id="edge17" class="edge">
<title>Node13&#45;&gt;Node6</title>
<path fill="none" stroke="midnightblue" d="M734.91,-56.47C699.26,-46.08 651.27,-32.08 617.99,-22.37"/>
<polygon fill="midnightblue" stroke="midnightblue" points="618.74,-18.95 608.16,-19.51 616.78,-25.67 618.74,-18.95"/>
</g>
<!-- Node14&#45;&gt;Node6 -->
<g id="edge25" class="edge">
<title>Node14&#45;&gt;Node6</title>
<path fill="none" stroke="midnightblue" d="M642.08,-257.4C661.75,-221.04 707.59,-122.35 667,-56 657.49,-40.46 640.74,-30.07 624.38,-23.23"/>
<polygon fill="midnightblue" stroke="midnightblue" points="625.44,-19.89 614.85,-19.6 622.95,-26.43 625.44,-19.89"/>
</g>
<!-- Node15 -->
<g id="node15" class="node">
<title>Node15</title>
<g id="a_node15"><a xlink:href="JKRHeap_8h.html" target="_top" xlink:title=" ">
<polygon fill="white" stroke="black" points="757,-190.5 757,-220.5 893,-220.5 893,-190.5 757,-190.5"/>
<text text-anchor="start" x="765" y="-208.5" font-family="Helvetica,sans-Serif" font-size="10.00">JSystem/JKernel/JKRHeap</text>
<text text-anchor="middle" x="825" y="-197.5" font-family="Helvetica,sans-Serif" font-size="10.00">/JKRHeap.h</text>
</a>
</g>
</g>
<!-- Node14&#45;&gt;Node15 -->
<g id="edge19" class="edge">
<title>Node14&#45;&gt;Node15</title>
<path fill="none" stroke="midnightblue" d="M675.44,-257.4C704.35,-247.56 743.11,-234.37 773.93,-223.88"/>
<polygon fill="midnightblue" stroke="midnightblue" points="775.3,-227.11 783.64,-220.58 773.04,-220.48 775.3,-227.11"/>
</g>
<!-- Node17 -->
<g id="node17" class="node">
<title>Node17</title>
<g id="a_node17"><a xlink:href="GX_8h.html" target="_top" xlink:title=" ">
<polygon fill="white" stroke="black" points="607.5,-62 607.5,-81 658.5,-81 658.5,-62 607.5,-62"/>
<text text-anchor="middle" x="633" y="-69" font-family="Helvetica,sans-Serif" font-size="10.00">gx/GX.h</text>
</a>
</g>
</g>
<!-- Node14&#45;&gt;Node17 -->
<g id="edge26" class="edge">
<title>Node14&#45;&gt;Node17</title>
<path fill="none" stroke="midnightblue" d="M633.93,-257.19C633.75,-221.99 633.29,-131.17 633.1,-91.51"/>
<polygon fill="midnightblue" stroke="midnightblue" points="636.59,-91.34 633.04,-81.36 629.59,-91.38 636.59,-91.34"/>
</g>
<!-- Node15&#45;&gt;Node5 -->
<g id="edge24" class="edge">
<title>Node15&#45;&gt;Node5</title>
<path fill="none" stroke="midnightblue" d="M812.25,-220.63C796.24,-237.87 767.42,-267.27 739,-288 658,-347.1 626.55,-343.91 533,-380 531.35,-380.64 529.67,-381.3 527.97,-381.98"/>
<polygon fill="midnightblue" stroke="midnightblue" points="526.22,-378.92 518.32,-385.98 528.9,-385.39 526.22,-378.92"/>
</g>
<!-- Node15&#45;&gt;Node6 -->
<g id="edge23" class="edge">
<title>Node15&#45;&gt;Node6</title>
<path fill="none" stroke="midnightblue" d="M869.23,-190.44C886.35,-182.59 904.17,-170.89 914,-154 937.43,-113.77 915.21,-82.6 877,-56 837.93,-28.81 703.87,-17.54 629.58,-13.29"/>
<polygon fill="midnightblue" stroke="midnightblue" points="629.69,-9.79 619.51,-12.74 629.3,-16.78 629.69,-9.79"/>
</g>
<!-- Node16 -->
<g id="node16" class="node">
<title>Node16</title>
<g id="a_node16"><a xlink:href="JKRDisposer_8h.html" target="_top" xlink:title=" ">
<polygon fill="white" stroke="black" points="753.5,-123.5 753.5,-153.5 904.5,-153.5 904.5,-123.5 753.5,-123.5"/>
<text text-anchor="start" x="761.5" y="-141.5" font-family="Helvetica,sans-Serif" font-size="10.00">JSystem/JKernel/JKRDisposer</text>
<text text-anchor="middle" x="829" y="-130.5" font-family="Helvetica,sans-Serif" font-size="10.00">/JKRDisposer.h</text>
</a>
</g>
</g>
<!-- Node15&#45;&gt;Node16 -->
<g id="edge20" class="edge">
<title>Node15&#45;&gt;Node16</title>
<path fill="none" stroke="midnightblue" d="M825.87,-190.4C826.35,-182.56 826.96,-172.6 827.52,-163.57"/>
<polygon fill="midnightblue" stroke="midnightblue" points="831.01,-163.77 828.13,-153.58 824.03,-163.34 831.01,-163.77"/>
</g>
<!-- Node16&#45;&gt;Node6 -->
<g id="edge22" class="edge">
<title>Node16&#45;&gt;Node6</title>
<path fill="none" stroke="midnightblue" d="M842.28,-123.33C857.09,-105.79 876.89,-75.81 860,-56 831.01,-22 702.74,-13.58 629.93,-11.57"/>
<polygon fill="midnightblue" stroke="midnightblue" points="629.69,-8.06 619.61,-11.31 629.52,-15.06 629.69,-8.06"/>
</g>
<!-- Node16&#45;&gt;Node13 -->
<g id="edge21" class="edge">
<title>Node16&#45;&gt;Node13</title>
<path fill="none" stroke="midnightblue" d="M819.02,-123.4C813.11,-115.05 805.5,-104.29 798.79,-94.81"/>
<polygon fill="midnightblue" stroke="midnightblue" points="801.6,-92.72 792.96,-86.58 795.88,-96.76 801.6,-92.72"/>
</g>
<!-- Node17&#45;&gt;Node6 -->
<g id="edge27" class="edge">
<title>Node17&#45;&gt;Node6</title>
<path fill="none" stroke="midnightblue" d="M625.26,-61.98C617,-52.87 603.72,-38.24 593.51,-26.98"/>
<polygon fill="midnightblue" stroke="midnightblue" points="596.03,-24.56 586.72,-19.51 590.85,-29.27 596.03,-24.56"/>
</g>
<!-- Node18&#45;&gt;Node6 -->
<g id="edge29" class="edge">
<title>Node18&#45;&gt;Node6</title>
<path fill="none" stroke="midnightblue" d="M574.34,-128.81C575.15,-108.49 577.16,-57.55 578.26,-29.78"/>
<polygon fill="midnightblue" stroke="midnightblue" points="581.76,-29.89 578.65,-19.76 574.76,-29.61 581.76,-29.89"/>
</g>
</g>
</svg>
        <g id="navigator" transform="translate(0 0)" fill="#404254">
                <rect fill="#f2f5e9" fill-opacity="0.5" stroke="#606060" stroke-width=".5" x="0" y="0" width="60" height="60"/>
                <use id="zoomplus" xlink:href="#zoomPlus" x="17" y="9" onmousedown="handleZoom(evt,'in')"/>
                <use id="zoomminus" xlink:href="#zoomMin" x="42" y="9" onmousedown="handleZoom(evt,'out')"/>
                <use id="reset" xlink:href="#resetDef" x="30" y="36" onmousedown="handleReset()"/>
                <g id="arrowUp" xlink:href="#dirArrow" transform="translate(30 24)" onmousedown="handlePan(0,-1)">
                  <use xlink:href="#rim" fill="#404040">
                        <set attributeName="fill" to="#808080" begin="arrowUp.mouseover" end="arrowUp.mouseout"/>
                  </use>
                  <path fill="none" stroke="white" stroke-width="1.5" d="M0,-3.0v7 M-2.5,-0.5L0,-3.0L2.5,-0.5"/>
                </g>
                <g id="arrowRight" xlink:href="#dirArrow" transform="rotate(90) translate(36 -43)" onmousedown="handlePan(1,0)">
                  <use xlink:href="#rim" fill="#404040">
                        <set attributeName="fill" to="#808080" begin="arrowRight.mouseover" end="arrowRight.mouseout"/>
                  </use>
                  <path fill="none" stroke="white" stroke-width="1.5" d="M0,-3.0v7 M-2.5,-0.5L0,-3.0L2.5,-0.5"/>
                </g>
                <g id="arrowDown" xlink:href="#dirArrow" transform="rotate(180) translate(-30 -48)" onmousedown="handlePan(0,1)">
                  <use xlink:href="#rim" fill="#404040">
                        <set attributeName="fill" to="#808080" begin="arrowDown.mouseover" end="arrowDown.mouseout"/>
                  </use>
                  <path fill="none" stroke="white" stroke-width="1.5" d="M0,-3.0v7 M-2.5,-0.5L0,-3.0L2.5,-0.5"/>
                </g>
                <g id="arrowLeft" xlink:href="#dirArrow" transform="rotate(270) translate(-36 17)" onmousedown="handlePan(-1,0)">
                  <use xlink:href="#rim" fill="#404040">
                        <set attributeName="fill" to="#808080" begin="arrowLeft.mouseover" end="arrowLeft.mouseout"/>
                  </use>
                  <path fill="none" stroke="white" stroke-width="1.5" d="M0,-3.0v7 M-2.5,-0.5L0,-3.0L2.5,-0.5"/>
                </g>
        </g>
        <svg viewBox="0 0 15 15" width="100%" height="30px" preserveAspectRatio="xMaxYMin meet">
         <g id="arrow_out" transform="scale(0.3 0.3)">
          <a xlink:href="Z2FxLineMgr_8cpp__incl_org.svg" target="_base">
           <rect id="button" ry="5" rx="5" y="6" x="6" height="38" width="38"
                fill="#f2f5e9" fill-opacity="0.5" stroke="#606060" stroke-width="1.0"/>
           <path id="arrow"
             d="M 11.500037,31.436501 C 11.940474,20.09759 22.043105,11.32322 32.158766,21.979434 L 37.068811,17.246167 C 37.068811,17.246167 37.088388,32 37.088388,32 L 22.160133,31.978069 C 22.160133,31.978069 26.997745,27.140456 26.997745,27.140456 C 18.528582,18.264221 13.291696,25.230495 11.500037,31.436501 z"
             style="fill:#404040;"/>
          </a>
         </g>
        </svg>
</svg>
