<?xml version="1.0" encoding="UTF-8" standalone="no"?>
<!DOCTYPE svg PUBLIC "-//W3C//DTD SVG 1.1//EN"
 "http://www.w3.org/Graphics/SVG/1.1/DTD/svg11.dtd">
<!-- Generated by graphviz version 2.46.1 (20210215.1649)
 -->
<!-- Title: include/Z2AudioLib/Z2Param/Z2Param.h Pages: 1 -->
<svg width="3791pt" height="430pt"
 viewBox="0.00 0.00 3791.00 430.00" xmlns="http://www.w3.org/2000/svg" xmlns:xlink="http://www.w3.org/1999/xlink">
<g id="graph0" class="graph" transform="scale(1 1) rotate(0) translate(4 426)">
<title>include/Z2AudioLib/Z2Param/Z2Param.h</title>
<polygon fill="white" stroke="transparent" points="-4,4 -4,-426 3787,-426 3787,4 -4,4"/>
<!-- Node1 -->
<g id="node1" class="node">
<title>Node1</title>
<g id="a_node1"><a xlink:title=" ">
<polygon fill="#bfbfbf" stroke="black" points="1476.5,-391.5 1476.5,-421.5 1586.5,-421.5 1586.5,-391.5 1476.5,-391.5"/>
<text text-anchor="start" x="1484.5" y="-409.5" font-family="Helvetica,sans-Serif" font-size="10.00">include/Z2AudioLib</text>
<text text-anchor="middle" x="1531.5" y="-398.5" font-family="Helvetica,sans-Serif" font-size="10.00">/Z2Param/Z2Param.h</text>
</a>
</g>
</g>
<!-- Node2 -->
<g id="node2" class="node">
<title>Node2</title>
<g id="a_node2"><a xlink:href="Z2AudioMgr_8cpp.html" target="_top" xlink:title=" ">
<polygon fill="white" stroke="black" points="324.5,-62 324.5,-81 482.5,-81 482.5,-62 324.5,-62"/>
<text text-anchor="middle" x="403.5" y="-69" font-family="Helvetica,sans-Serif" font-size="10.00">libs/Z2AudioLib/Z2AudioMgr.cpp</text>
</a>
</g>
</g>
<!-- Node1&#45;&gt;Node2 -->
<g id="edge1" class="edge">
<title>Node1&#45;&gt;Node2</title>
<path fill="none" stroke="midnightblue" d="M1465.84,-404.98C1308.8,-401.95 924.5,-383.34 924.5,-273.5 924.5,-273.5 924.5,-273.5 924.5,-204.5 924.5,-179.89 570.57,-106.18 446.14,-81.02"/>
<polygon fill="midnightblue" stroke="midnightblue" points="1466.23,-408.48 1476.29,-405.16 1466.36,-401.48 1466.23,-408.48"/>
</g>
<!-- Node3 -->
<g id="node3" class="node">
<title>Node3</title>
<g id="a_node3"><a xlink:href="Z2SeqMgr_8h.html" target="_top" xlink:title=" ">
<polygon fill="white" stroke="black" points="1602.5,-324.5 1602.5,-354.5 1722.5,-354.5 1722.5,-324.5 1602.5,-324.5"/>
<text text-anchor="start" x="1610.5" y="-342.5" font-family="Helvetica,sans-Serif" font-size="10.00">include/Z2AudioLib</text>
<text text-anchor="middle" x="1662.5" y="-331.5" font-family="Helvetica,sans-Serif" font-size="10.00">/Z2SeqMgr/Z2SeqMgr.h</text>
</a>
</g>
</g>
<!-- Node1&#45;&gt;Node3 -->
<g id="edge2" class="edge">
<title>Node1&#45;&gt;Node3</title>
<path fill="none" stroke="midnightblue" d="M1569.08,-386.85C1589.79,-376.58 1615.09,-364.03 1634.13,-354.58"/>
<polygon fill="midnightblue" stroke="midnightblue" points="1567.33,-383.82 1559.93,-391.4 1570.44,-390.09 1567.33,-383.82"/>
</g>
<!-- Node33 -->
<g id="node33" class="node">
<title>Node33</title>
<g id="a_node33"><a xlink:href="Z2SeMgr_8h.html" target="_top" xlink:title=" ">
<polygon fill="white" stroke="black" points="1597.5,-123.5 1597.5,-153.5 1707.5,-153.5 1707.5,-123.5 1597.5,-123.5"/>
<text text-anchor="start" x="1605.5" y="-141.5" font-family="Helvetica,sans-Serif" font-size="10.00">include/Z2AudioLib</text>
<text text-anchor="middle" x="1652.5" y="-130.5" font-family="Helvetica,sans-Serif" font-size="10.00">/Z2SeMgr/Z2SeMgr.h</text>
</a>
</g>
</g>
<!-- Node1&#45;&gt;Node33 -->
<g id="edge64" class="edge">
<title>Node1&#45;&gt;Node33</title>
<path fill="none" stroke="midnightblue" d="M1540.01,-381.81C1554.79,-341.55 1586.92,-257.57 1621.5,-190 1627.97,-177.36 1636.47,-163.68 1642.94,-153.74"/>
<polygon fill="midnightblue" stroke="midnightblue" points="1536.69,-380.7 1536.56,-391.29 1543.27,-383.1 1536.69,-380.7"/>
</g>
<!-- Node4 -->
<g id="node4" class="node">
<title>Node4</title>
<g id="a_node4"><a xlink:href="d__com__inf__game_8cpp.html" target="_top" xlink:title=" ">
<polygon fill="white" stroke="black" points="3664,-56.5 3664,-86.5 3783,-86.5 3783,-56.5 3664,-56.5"/>
<text text-anchor="start" x="3672" y="-74.5" font-family="Helvetica,sans-Serif" font-size="10.00">src/d/d_com/d_com_inf</text>
<text text-anchor="middle" x="3723.5" y="-63.5" font-family="Helvetica,sans-Serif" font-size="10.00">_game.cpp</text>
</a>
</g>
</g>
<!-- Node3&#45;&gt;Node4 -->
<g id="edge3" class="edge">
<title>Node3&#45;&gt;Node4</title>
<path fill="none" stroke="midnightblue" d="M1732.99,-334.29C1852.14,-326.89 2100.88,-310.2 2310.5,-288 2911.56,-224.36 3061.25,-197.4 3655.5,-87 3658.23,-86.49 3661.02,-85.96 3663.83,-85.41"/>
<polygon fill="midnightblue" stroke="midnightblue" points="1732.67,-330.8 1722.9,-334.91 1733.1,-337.79 1732.67,-330.8"/>
</g>
<!-- Node5 -->
<g id="node5" class="node">
<title>Node5</title>
<g id="a_node5"><a xlink:href="d__a__alink_8cpp.html" target="_top" xlink:title=" ">
<polygon fill="white" stroke="black" points="501,-62 501,-81 620,-81 620,-62 501,-62"/>
<text text-anchor="middle" x="560.5" y="-69" font-family="Helvetica,sans-Serif" font-size="10.00">src/d/d_a/d_a_alink.cpp</text>
</a>
</g>
</g>
<!-- Node3&#45;&gt;Node5 -->
<g id="edge4" class="edge">
<title>Node3&#45;&gt;Node5</title>
<path fill="none" stroke="midnightblue" d="M1614.27,-320.96C1499.08,-279.78 1198.13,-176.34 938.5,-123 803.07,-95.17 765.96,-109.24 629.5,-87 619.23,-85.33 608.17,-83.17 597.98,-81.03"/>
<polygon fill="midnightblue" stroke="midnightblue" points="1613.27,-324.32 1623.87,-324.4 1615.63,-317.73 1613.27,-324.32"/>
</g>
<!-- Node6 -->
<g id="node6" class="node">
<title>Node6</title>
<g id="a_node6"><a xlink:href="Z2Creature_8cpp.html" target="_top" xlink:title=" ">
<polygon fill="white" stroke="black" points="809,-62 809,-81 962,-81 962,-62 809,-62"/>
<text text-anchor="middle" x="885.5" y="-69" font-family="Helvetica,sans-Serif" font-size="10.00">libs/Z2AudioLib/Z2Creature.cpp</text>
</a>
</g>
</g>
<!-- Node3&#45;&gt;Node6 -->
<g id="edge5" class="edge">
<title>Node3&#45;&gt;Node6</title>
<path fill="none" stroke="midnightblue" d="M1632.34,-318.46C1620.28,-309.78 1606.64,-299.07 1595.5,-288 1562.78,-255.48 1510.09,-144.93 1469.5,-123 1371.68,-70.16 1080.87,-100.36 970.5,-87 957.57,-85.43 943.61,-83.26 930.82,-81.07"/>
<polygon fill="midnightblue" stroke="midnightblue" points="1630.59,-321.51 1640.79,-324.4 1634.62,-315.78 1630.59,-321.51"/>
</g>
<!-- Node7 -->
<g id="node7" class="node">
<title>Node7</title>
<g id="a_node7"><a xlink:href="Z2SeqMgr_8cpp.html" target="_top" xlink:title=" ">
<polygon fill="white" stroke="black" points="2362.5,-196 2362.5,-215 2512.5,-215 2512.5,-196 2362.5,-196"/>
<text text-anchor="middle" x="2437.5" y="-203" font-family="Helvetica,sans-Serif" font-size="10.00">libs/Z2AudioLib/Z2SeqMgr.cpp</text>
</a>
</g>
</g>
<!-- Node3&#45;&gt;Node7 -->
<g id="edge6" class="edge">
<title>Node3&#45;&gt;Node7</title>
<path fill="none" stroke="midnightblue" d="M1714.3,-320.96C1736.87,-312.38 1763.2,-301.08 1785.5,-288 1804.6,-276.8 1803.86,-265.01 1824.5,-257 1933.32,-214.78 2232.55,-234.4 2348.5,-221 2362.03,-219.44 2376.64,-217.26 2390.04,-215.07"/>
<polygon fill="midnightblue" stroke="midnightblue" points="1713.04,-317.7 1704.89,-324.46 1715.48,-324.26 1713.04,-317.7"/>
</g>
<!-- Node8 -->
<g id="node8" class="node">
<title>Node8</title>
<g id="a_node8"><a xlink:href="Z2SoundMgr_8cpp.html" target="_top" xlink:title=" ">
<polygon fill="white" stroke="black" points="980,-62 980,-81 1141,-81 1141,-62 980,-62"/>
<text text-anchor="middle" x="1060.5" y="-69" font-family="Helvetica,sans-Serif" font-size="10.00">libs/Z2AudioLib/Z2SoundMgr.cpp</text>
</a>
</g>
</g>
<!-- Node3&#45;&gt;Node8 -->
<g id="edge7" class="edge">
<title>Node3&#45;&gt;Node8</title>
<path fill="none" stroke="midnightblue" d="M1642.54,-316.79C1634.78,-308.05 1625.98,-297.75 1618.5,-288 1564.7,-217.88 1583.33,-168.4 1507.5,-123 1438.9,-81.93 1228.77,-97.43 1149.5,-87 1136.46,-85.28 1122.4,-83.13 1109.39,-81.02"/>
<polygon fill="midnightblue" stroke="midnightblue" points="1640.01,-319.22 1649.3,-324.32 1645.22,-314.54 1640.01,-319.22"/>
</g>
<!-- Node9 -->
<g id="node9" class="node">
<title>Node9</title>
<g id="a_node9"><a xlink:href="Z2SoundObjMgr_8cpp.html" target="_top" xlink:title=" ">
<polygon fill="white" stroke="black" points="1834,-257.5 1834,-287.5 1975,-287.5 1975,-257.5 1834,-257.5"/>
<text text-anchor="start" x="1842" y="-275.5" font-family="Helvetica,sans-Serif" font-size="10.00">libs/Z2AudioLib/Z2SoundObj</text>
<text text-anchor="middle" x="1904.5" y="-264.5" font-family="Helvetica,sans-Serif" font-size="10.00">Mgr.cpp</text>
</a>
</g>
</g>
<!-- Node3&#45;&gt;Node9 -->
<g id="edge8" class="edge">
<title>Node3&#45;&gt;Node9</title>
<path fill="none" stroke="midnightblue" d="M1724.49,-321.85C1763.95,-311.25 1814.49,-297.68 1851.96,-287.61"/>
<polygon fill="midnightblue" stroke="midnightblue" points="1723.46,-318.5 1714.71,-324.48 1725.28,-325.26 1723.46,-318.5"/>
</g>
<!-- Node10 -->
<g id="node10" class="node">
<title>Node10</title>
<g id="a_node10"><a xlink:href="Z2StatusMgr_8cpp.html" target="_top" xlink:title=" ">
<polygon fill="white" stroke="black" points="0,-56.5 0,-86.5 127,-86.5 127,-56.5 0,-56.5"/>
<text text-anchor="start" x="8" y="-74.5" font-family="Helvetica,sans-Serif" font-size="10.00">libs/Z2AudioLib/Z2Status</text>
<text text-anchor="middle" x="63.5" y="-63.5" font-family="Helvetica,sans-Serif" font-size="10.00">Mgr.cpp</text>
</a>
</g>
</g>
<!-- Node3&#45;&gt;Node10 -->
<g id="edge9" class="edge">
<title>Node3&#45;&gt;Node10</title>
<path fill="none" stroke="midnightblue" d="M1592.36,-327.86C1375.37,-294.73 695.82,-189.53 135.5,-87 132.74,-86.5 129.92,-85.97 127.08,-85.43"/>
<polygon fill="midnightblue" stroke="midnightblue" points="1591.93,-331.33 1602.34,-329.38 1592.99,-324.41 1591.93,-331.33"/>
</g>
<!-- Node11 -->
<g id="node11" class="node">
<title>Node11</title>
<g id="a_node11"><a xlink:href="Z2SpeechMgr2_8cpp.html" target="_top" xlink:title=" ">
<polygon fill="white" stroke="black" points="3515,-56.5 3515,-86.5 3646,-86.5 3646,-56.5 3515,-56.5"/>
<text text-anchor="start" x="3523" y="-74.5" font-family="Helvetica,sans-Serif" font-size="10.00">libs/Z2AudioLib/Z2Speech</text>
<text text-anchor="middle" x="3580.5" y="-63.5" font-family="Helvetica,sans-Serif" font-size="10.00">Mgr2.cpp</text>
</a>
</g>
</g>
<!-- Node3&#45;&gt;Node11 -->
<g id="edge10" class="edge">
<title>Node3&#45;&gt;Node11</title>
<path fill="none" stroke="midnightblue" d="M1732.64,-332.53C1830.9,-323.94 2015.06,-307.02 2171.5,-288 2766.7,-215.63 2914.76,-189.61 3505.5,-87 3508.51,-86.48 3511.58,-85.93 3514.68,-85.37"/>
<polygon fill="midnightblue" stroke="midnightblue" points="1732.2,-329.05 1722.54,-333.41 1732.8,-336.03 1732.2,-329.05"/>
</g>
<!-- Node12 -->
<g id="node12" class="node">
<title>Node12</title>
<g id="a_node12"><a xlink:href="Z2WolfHowlMgr_8cpp.html" target="_top" xlink:title=" ">
<polygon fill="white" stroke="black" points="3356.5,-56.5 3356.5,-86.5 3496.5,-86.5 3496.5,-56.5 3356.5,-56.5"/>
<text text-anchor="start" x="3364.5" y="-74.5" font-family="Helvetica,sans-Serif" font-size="10.00">libs/Z2AudioLib/Z2WolfHowl</text>
<text text-anchor="middle" x="3426.5" y="-63.5" font-family="Helvetica,sans-Serif" font-size="10.00">Mgr.cpp</text>
</a>
</g>
</g>
<!-- Node3&#45;&gt;Node12 -->
<g id="edge11" class="edge">
<title>Node3&#45;&gt;Node12</title>
<path fill="none" stroke="midnightblue" d="M1732.93,-329.47C1879.74,-310.51 2229.11,-264.71 2521.5,-221 2889.32,-166.02 2981.02,-150.35 3347.5,-87 3350.39,-86.5 3353.33,-85.99 3356.3,-85.46"/>
<polygon fill="midnightblue" stroke="midnightblue" points="1732.19,-326.04 1722.72,-330.79 1733.08,-332.98 1732.19,-326.04"/>
</g>
<!-- Node13 -->
<g id="node13" class="node">
<title>Node13</title>
<g id="a_node13"><a xlink:href="Z2SceneMgr_8h.html" target="_top" xlink:title=" ">
<polygon fill="white" stroke="black" points="1636,-257.5 1636,-287.5 1777,-287.5 1777,-257.5 1636,-257.5"/>
<text text-anchor="start" x="1644" y="-275.5" font-family="Helvetica,sans-Serif" font-size="10.00">include/Z2AudioLib</text>
<text text-anchor="middle" x="1706.5" y="-264.5" font-family="Helvetica,sans-Serif" font-size="10.00">/Z2SceneMgr/Z2SceneMgr.h</text>
</a>
</g>
</g>
<!-- Node3&#45;&gt;Node13 -->
<g id="edge12" class="edge">
<title>Node3&#45;&gt;Node13</title>
<path fill="none" stroke="midnightblue" d="M1677.82,-315.87C1684.19,-306.46 1691.38,-295.83 1696.97,-287.58"/>
<polygon fill="midnightblue" stroke="midnightblue" points="1674.75,-314.15 1672.05,-324.4 1680.55,-318.08 1674.75,-314.15"/>
</g>
<!-- Node3&#45;&gt;Node33 -->
<g id="edge43" class="edge">
<title>Node3&#45;&gt;Node33</title>
<path fill="none" stroke="midnightblue" d="M1642.24,-316.38C1635.92,-308.1 1629.76,-298.2 1626.5,-288 1611.19,-240.14 1633.47,-180.54 1645.57,-153.73"/>
<polygon fill="midnightblue" stroke="midnightblue" points="1639.73,-318.85 1648.76,-324.39 1645.16,-314.42 1639.73,-318.85"/>
</g>
<!-- Node13&#45;&gt;Node7 -->
<g id="edge14" class="edge">
<title>Node13&#45;&gt;Node7</title>
<path fill="none" stroke="midnightblue" d="M1787.58,-257.47C1788.9,-257.31 1790.2,-257.15 1791.5,-257 2037.88,-228.1 2102.01,-248.98 2348.5,-221 2362.19,-219.45 2376.98,-217.25 2390.51,-215.03"/>
<polygon fill="midnightblue" stroke="midnightblue" points="1786.83,-254.04 1777.38,-258.84 1787.76,-260.98 1786.83,-254.04"/>
</g>
<!-- Node13&#45;&gt;Node10 -->
<g id="edge15" class="edge">
<title>Node13&#45;&gt;Node10</title>
<path fill="none" stroke="midnightblue" d="M1625.79,-261.52C1548.03,-251.76 1427.1,-236.18 1322.5,-221 1134.56,-193.73 1073.83,-231.59 900.5,-154 880.61,-145.1 882.85,-130.82 862.5,-123 711.51,-64.98 296.01,-107.02 135.5,-87 132.72,-86.65 129.88,-86.26 127.02,-85.83"/>
<polygon fill="midnightblue" stroke="midnightblue" points="1625.64,-265.03 1636,-262.8 1626.51,-258.08 1625.64,-265.03"/>
</g>
<!-- Node14 -->
<g id="node14" class="node">
<title>Node14</title>
<g id="a_node14"><a xlink:href="Z2SceneMgr_8cpp.html" target="_top" xlink:title=" ">
<polygon fill="white" stroke="black" points="145,-62 145,-81 306,-81 306,-62 145,-62"/>
<text text-anchor="middle" x="225.5" y="-69" font-family="Helvetica,sans-Serif" font-size="10.00">libs/Z2AudioLib/Z2SceneMgr.cpp</text>
</a>
</g>
</g>
<!-- Node13&#45;&gt;Node14 -->
<g id="edge13" class="edge">
<title>Node13&#45;&gt;Node14</title>
<path fill="none" stroke="midnightblue" d="M1634.93,-255.3C1494.77,-224.25 1173.93,-156.48 900.5,-123 641.94,-91.34 574.4,-115.75 315.5,-87 301.66,-85.46 286.7,-83.27 273.02,-81.05"/>
<polygon fill="midnightblue" stroke="midnightblue" points="1634.18,-258.72 1644.7,-257.47 1635.7,-251.89 1634.18,-258.72"/>
</g>
<!-- Node15 -->
<g id="node15" class="node">
<title>Node15</title>
<g id="a_node15"><a xlink:href="Z2AudioLib_8h.html" target="_top" xlink:title=" ">
<polygon fill="white" stroke="black" points="3238.5,-56.5 3238.5,-86.5 3338.5,-86.5 3338.5,-56.5 3238.5,-56.5"/>
<text text-anchor="start" x="3246.5" y="-74.5" font-family="Helvetica,sans-Serif" font-size="10.00">include/Z2AudioLib</text>
<text text-anchor="middle" x="3288.5" y="-63.5" font-family="Helvetica,sans-Serif" font-size="10.00">/Z2AudioLib.h</text>
</a>
</g>
</g>
<!-- Node13&#45;&gt;Node15 -->
<g id="edge16" class="edge">
<title>Node13&#45;&gt;Node15</title>
<path fill="none" stroke="midnightblue" d="M1787.22,-256.14C2116.33,-206.11 2906.93,-139.48 3221.5,-87 3227.02,-86.08 3232.77,-85.01 3238.48,-83.87"/>
<polygon fill="midnightblue" stroke="midnightblue" points="1786.49,-252.71 1777.14,-257.69 1787.55,-259.63 1786.49,-252.71"/>
</g>
<!-- Node17 -->
<g id="node17" class="node">
<title>Node17</title>
<g id="a_node17"><a xlink:href="Z2AudioMgr_8h.html" target="_top" xlink:title=" ">
<polygon fill="white" stroke="black" points="1914,-190.5 1914,-220.5 2049,-220.5 2049,-190.5 1914,-190.5"/>
<text text-anchor="start" x="1922" y="-208.5" font-family="Helvetica,sans-Serif" font-size="10.00">include/Z2AudioLib</text>
<text text-anchor="middle" x="1981.5" y="-197.5" font-family="Helvetica,sans-Serif" font-size="10.00">/Z2AudioMgr/Z2AudioMgr.h</text>
</a>
</g>
</g>
<!-- Node13&#45;&gt;Node17 -->
<g id="edge18" class="edge">
<title>Node13&#45;&gt;Node17</title>
<path fill="none" stroke="midnightblue" d="M1775.81,-255.12C1820.8,-244.48 1878.85,-230.76 1921.8,-220.61"/>
<polygon fill="midnightblue" stroke="midnightblue" points="1774.76,-251.77 1765.83,-257.48 1776.37,-258.58 1774.76,-251.77"/>
</g>
<!-- Node16 -->
<g id="node16" class="node">
<title>Node16</title>
<g id="a_node16"><a xlink:href="m__Do__audio_8cpp.html" target="_top" xlink:title=" ">
<polygon fill="white" stroke="black" points="3182.5,-0.5 3182.5,-19.5 3316.5,-19.5 3316.5,-0.5 3182.5,-0.5"/>
<text text-anchor="middle" x="3249.5" y="-7.5" font-family="Helvetica,sans-Serif" font-size="10.00">src/m_Do/m_Do_audio.cpp</text>
</a>
</g>
</g>
<!-- Node15&#45;&gt;Node16 -->
<g id="edge17" class="edge">
<title>Node15&#45;&gt;Node16</title>
<path fill="none" stroke="midnightblue" d="M3273.62,-47.8C3267.17,-37.96 3260.01,-27.03 3255.17,-19.66"/>
<polygon fill="midnightblue" stroke="midnightblue" points="3270.85,-49.95 3279.26,-56.4 3276.7,-46.12 3270.85,-49.95"/>
</g>
<!-- Node17&#45;&gt;Node2 -->
<g id="edge21" class="edge">
<title>Node17&#45;&gt;Node2</title>
<path fill="none" stroke="midnightblue" d="M1903.43,-196.03C1823.97,-187.05 1697.34,-171.72 1588.5,-154 1518.3,-142.57 1502.14,-131.28 1431.5,-123 1016.26,-74.36 907.46,-129.07 491.5,-87 477.48,-85.58 462.31,-83.34 448.58,-81.04"/>
<polygon fill="midnightblue" stroke="midnightblue" points="1903.52,-199.56 1913.85,-197.2 1904.3,-192.61 1903.52,-199.56"/>
</g>
<!-- Node17&#45;&gt;Node15 -->
<g id="edge42" class="edge">
<title>Node17&#45;&gt;Node15</title>
<path fill="none" stroke="midnightblue" d="M2059.49,-200.56C2120.51,-195.28 2206.47,-182.92 2276.5,-154 2298.61,-144.87 2297.84,-130.68 2320.5,-123 2510.27,-58.66 3022.72,-112.29 3221.5,-87 3226.93,-86.31 3232.57,-85.4 3238.18,-84.37"/>
<polygon fill="midnightblue" stroke="midnightblue" points="2058.83,-197.1 2049.15,-201.41 2059.41,-204.08 2058.83,-197.1"/>
</g>
<!-- Node18 -->
<g id="node18" class="node">
<title>Node18</title>
<g id="a_node18"><a xlink:href="d__save_8cpp.html" target="_top" xlink:title=" ">
<polygon fill="white" stroke="black" points="2143,-129 2143,-148 2268,-148 2268,-129 2143,-129"/>
<text text-anchor="middle" x="2205.5" y="-136" font-family="Helvetica,sans-Serif" font-size="10.00">src/d/d_save/d_save.cpp</text>
</a>
</g>
</g>
<!-- Node17&#45;&gt;Node18 -->
<g id="edge19" class="edge">
<title>Node17&#45;&gt;Node18</title>
<path fill="none" stroke="midnightblue" d="M2039.5,-187.67C2083.28,-174.97 2141.53,-158.06 2176.11,-148.03"/>
<polygon fill="midnightblue" stroke="midnightblue" points="2038.46,-184.33 2029.83,-190.48 2040.41,-191.05 2038.46,-184.33"/>
</g>
<!-- Node19 -->
<g id="node19" class="node">
<title>Node19</title>
<g id="a_node19"><a xlink:href="m__Do__Reset_8cpp.html" target="_top" xlink:title=" ">
<polygon fill="white" stroke="black" points="1837.5,-129 1837.5,-148 1973.5,-148 1973.5,-129 1837.5,-129"/>
<text text-anchor="middle" x="1905.5" y="-136" font-family="Helvetica,sans-Serif" font-size="10.00">src/m_Do/m_Do_Reset.cpp</text>
</a>
</g>
</g>
<!-- Node17&#45;&gt;Node19 -->
<g id="edge20" class="edge">
<title>Node17&#45;&gt;Node19</title>
<path fill="none" stroke="midnightblue" d="M1957.15,-183.67C1943.11,-171.67 1926.22,-157.22 1915.67,-148.19"/>
<polygon fill="midnightblue" stroke="midnightblue" points="1955.13,-186.56 1965.01,-190.4 1959.68,-181.24 1955.13,-186.56"/>
</g>
<!-- Node20 -->
<g id="node20" class="node">
<title>Node20</title>
<g id="a_node20"><a xlink:href="m__Do__audio_8h.html" target="_top" xlink:title=" ">
<polygon fill="white" stroke="black" points="1992,-123.5 1992,-153.5 2125,-153.5 2125,-123.5 1992,-123.5"/>
<text text-anchor="start" x="2000" y="-141.5" font-family="Helvetica,sans-Serif" font-size="10.00">include/m_Do/m_Do_audio</text>
<text text-anchor="middle" x="2058.5" y="-130.5" font-family="Helvetica,sans-Serif" font-size="10.00">/m_Do_audio.h</text>
</a>
</g>
</g>
<!-- Node17&#45;&gt;Node20 -->
<g id="edge22" class="edge">
<title>Node17&#45;&gt;Node20</title>
<path fill="none" stroke="midnightblue" d="M2005.92,-183.88C2017.62,-174.01 2031.34,-162.43 2041.82,-153.58"/>
<polygon fill="midnightblue" stroke="midnightblue" points="2003.59,-181.27 1998.21,-190.4 2008.11,-186.62 2003.59,-181.27"/>
</g>
<!-- Node20&#45;&gt;Node2 -->
<g id="edge36" class="edge">
<title>Node20&#45;&gt;Node2</title>
<path fill="none" stroke="midnightblue" d="M1981.62,-123.06C1321.61,-53.63 1148.07,-148.72 491.5,-87 477.16,-85.65 461.63,-83.37 447.66,-81.01"/>
<polygon fill="midnightblue" stroke="midnightblue" points="1981.55,-126.57 1991.86,-124.14 1982.29,-119.61 1981.55,-126.57"/>
</g>
<!-- Node20&#45;&gt;Node4 -->
<g id="edge25" class="edge">
<title>Node20&#45;&gt;Node4</title>
<path fill="none" stroke="midnightblue" d="M2135.51,-122.92C2808.07,-51.71 2986.93,-165.49 3655.5,-87 3658.26,-86.68 3661.07,-86.29 3663.9,-85.87"/>
<polygon fill="midnightblue" stroke="midnightblue" points="2134.64,-119.49 2125.07,-124.03 2135.38,-126.45 2134.64,-119.49"/>
</g>
<!-- Node20&#45;&gt;Node5 -->
<g id="edge33" class="edge">
<title>Node20&#45;&gt;Node5</title>
<path fill="none" stroke="midnightblue" d="M1981.67,-123.06C1382.65,-59.52 1223.59,-156.75 629.5,-87 618.19,-85.67 606,-83.4 595.05,-81.04"/>
<polygon fill="midnightblue" stroke="midnightblue" points="1981.55,-126.57 1991.86,-124.15 1982.29,-119.61 1981.55,-126.57"/>
</g>
<!-- Node20&#45;&gt;Node6 -->
<g id="edge37" class="edge">
<title>Node20&#45;&gt;Node6</title>
<path fill="none" stroke="midnightblue" d="M1981.88,-123.07C1533.53,-73.56 1414.93,-132.61 970.5,-87 956.95,-85.61 942.29,-83.38 929.03,-81.07"/>
<polygon fill="midnightblue" stroke="midnightblue" points="1981.53,-126.56 1991.86,-124.19 1982.31,-119.6 1981.53,-126.56"/>
</g>
<!-- Node20&#45;&gt;Node8 -->
<g id="edge39" class="edge">
<title>Node20&#45;&gt;Node8</title>
<path fill="none" stroke="midnightblue" d="M1981.7,-123.05C1612.65,-80.96 1514.8,-124.52 1149.5,-87 1135.48,-85.56 1120.32,-83.34 1106.55,-81.07"/>
<polygon fill="midnightblue" stroke="midnightblue" points="1981.52,-126.55 1991.86,-124.22 1982.32,-119.59 1981.52,-126.55"/>
</g>
<!-- Node20&#45;&gt;Node11 -->
<g id="edge41" class="edge">
<title>Node20&#45;&gt;Node11</title>
<path fill="none" stroke="midnightblue" d="M2135.38,-122.92C2741.7,-57.96 2902.51,-152.75 3505.5,-87 3508.53,-86.67 3511.63,-86.28 3514.74,-85.85"/>
<polygon fill="midnightblue" stroke="midnightblue" points="2134.64,-119.48 2125.07,-124.04 2135.39,-126.44 2134.64,-119.48"/>
</g>
<!-- Node20&#45;&gt;Node16 -->
<g id="edge34" class="edge">
<title>Node20&#45;&gt;Node16</title>
<path fill="none" stroke="midnightblue" d="M2135.04,-123.14C2289.19,-111.21 3089.43,-139.68 3191.5,-87 3220.11,-72.23 3238.67,-36.2 3245.98,-19.62"/>
<polygon fill="midnightblue" stroke="midnightblue" points="2134.7,-119.65 2125.07,-124.07 2135.35,-126.62 2134.7,-119.65"/>
</g>
<!-- Node21 -->
<g id="node21" class="node">
<title>Node21</title>
<g id="a_node21"><a xlink:href="d__attention_8cpp.html" target="_top" xlink:title=" ">
<polygon fill="white" stroke="black" points="2220,-62 2220,-81 2327,-81 2327,-62 2220,-62"/>
<text text-anchor="middle" x="2273.5" y="-69" font-family="Helvetica,sans-Serif" font-size="10.00">src/d/d_attention.cpp</text>
</a>
</g>
</g>
<!-- Node20&#45;&gt;Node21 -->
<g id="edge23" class="edge">
<title>Node20&#45;&gt;Node21</title>
<path fill="none" stroke="midnightblue" d="M2114.7,-120.51C2156.66,-107.83 2212.24,-91.02 2245.29,-81.03"/>
<polygon fill="midnightblue" stroke="midnightblue" points="2113.45,-117.23 2104.89,-123.48 2115.47,-123.93 2113.45,-117.23"/>
</g>
<!-- Node22 -->
<g id="node22" class="node">
<title>Node22</title>
<g id="a_node22"><a xlink:href="d__camera_8cpp.html" target="_top" xlink:title=" ">
<polygon fill="white" stroke="black" points="2344.5,-62 2344.5,-81 2446.5,-81 2446.5,-62 2344.5,-62"/>
<text text-anchor="middle" x="2395.5" y="-69" font-family="Helvetica,sans-Serif" font-size="10.00">src/d/d_camera.cpp</text>
</a>
</g>
</g>
<!-- Node20&#45;&gt;Node22 -->
<g id="edge24" class="edge">
<title>Node20&#45;&gt;Node22</title>
<path fill="none" stroke="midnightblue" d="M2135.21,-122.7C2224.86,-106.28 2249.39,-105.06 2335.5,-87 2344,-85.22 2353.12,-83.11 2361.63,-81.07"/>
<polygon fill="midnightblue" stroke="midnightblue" points="2134.35,-119.31 2125.15,-124.56 2135.62,-126.19 2134.35,-119.31"/>
</g>
<!-- Node23 -->
<g id="node23" class="node">
<title>Node23</title>
<g id="a_node23"><a xlink:href="d__kankyo__wether_8cpp.html" target="_top" xlink:title=" ">
<polygon fill="white" stroke="black" points="2465,-56.5 2465,-86.5 2592,-86.5 2592,-56.5 2465,-56.5"/>
<text text-anchor="start" x="2473" y="-74.5" font-family="Helvetica,sans-Serif" font-size="10.00">src/d/d_kankyo/d_kankyo</text>
<text text-anchor="middle" x="2528.5" y="-63.5" font-family="Helvetica,sans-Serif" font-size="10.00">_wether.cpp</text>
</a>
</g>
</g>
<!-- Node20&#45;&gt;Node23 -->
<g id="edge26" class="edge">
<title>Node20&#45;&gt;Node23</title>
<path fill="none" stroke="midnightblue" d="M2135.1,-122.83C2277.59,-101.65 2316.39,-108.55 2455.5,-87 2458.56,-86.53 2461.7,-86.01 2464.86,-85.47"/>
<polygon fill="midnightblue" stroke="midnightblue" points="2134.48,-119.39 2125.11,-124.34 2135.52,-126.31 2134.48,-119.39"/>
</g>
<!-- Node24 -->
<g id="node24" class="node">
<title>Node24</title>
<g id="a_node24"><a xlink:href="d__kankyo_8cpp.html" target="_top" xlink:title=" ">
<polygon fill="white" stroke="black" points="2610,-62 2610,-81 2711,-81 2711,-62 2610,-62"/>
<text text-anchor="middle" x="2660.5" y="-69" font-family="Helvetica,sans-Serif" font-size="10.00">src/d/d_kankyo.cpp</text>
</a>
</g>
</g>
<!-- Node20&#45;&gt;Node24 -->
<g id="edge27" class="edge">
<title>Node20&#45;&gt;Node24</title>
<path fill="none" stroke="midnightblue" d="M2135.04,-122.9C2341.56,-95.94 2398.1,-119.05 2600.5,-87 2609.92,-85.51 2620.04,-83.3 2629.24,-81.06"/>
<polygon fill="midnightblue" stroke="midnightblue" points="2134.54,-119.43 2125.09,-124.22 2135.47,-126.37 2134.54,-119.43"/>
</g>
<!-- Node25 -->
<g id="node25" class="node">
<title>Node25</title>
<g id="a_node25"><a xlink:href="d__kyeff_8cpp.html" target="_top" xlink:title=" ">
<polygon fill="white" stroke="black" points="2729,-62 2729,-81 2842,-81 2842,-62 2729,-62"/>
<text text-anchor="middle" x="2785.5" y="-69" font-family="Helvetica,sans-Serif" font-size="10.00">src/d/d_ky/d_kyeff.cpp</text>
</a>
</g>
</g>
<!-- Node20&#45;&gt;Node25 -->
<g id="edge28" class="edge">
<title>Node20&#45;&gt;Node25</title>
<path fill="none" stroke="midnightblue" d="M2135.17,-122.9C2394.14,-90.99 2464.36,-122.65 2719.5,-87 2729.96,-85.54 2741.22,-83.31 2751.43,-81.04"/>
<polygon fill="midnightblue" stroke="midnightblue" points="2134.57,-119.45 2125.08,-124.16 2135.44,-126.39 2134.57,-119.45"/>
</g>
<!-- Node26 -->
<g id="node26" class="node">
<title>Node26</title>
<g id="a_node26"><a xlink:href="d__meter__button_8cpp.html" target="_top" xlink:title=" ">
<polygon fill="white" stroke="black" points="1529,-56.5 1529,-86.5 1644,-86.5 1644,-56.5 1529,-56.5"/>
<text text-anchor="start" x="1537" y="-74.5" font-family="Helvetica,sans-Serif" font-size="10.00">src/d/d_meter/d_meter</text>
<text text-anchor="middle" x="1586.5" y="-63.5" font-family="Helvetica,sans-Serif" font-size="10.00">_button.cpp</text>
</a>
</g>
</g>
<!-- Node20&#45;&gt;Node26 -->
<g id="edge29" class="edge">
<title>Node20&#45;&gt;Node26</title>
<path fill="none" stroke="midnightblue" d="M1981.54,-122.95C1834.81,-101.58 1794.82,-110.33 1652.5,-87 1649.72,-86.54 1646.88,-86.05 1644.02,-85.52"/>
<polygon fill="midnightblue" stroke="midnightblue" points="1981.42,-126.47 1991.82,-124.47 1982.44,-119.54 1981.42,-126.47"/>
</g>
<!-- Node27 -->
<g id="node27" class="node">
<title>Node27</title>
<g id="a_node27"><a xlink:href="d__meter__map_8cpp.html" target="_top" xlink:title=" ">
<polygon fill="white" stroke="black" points="1662,-56.5 1662,-86.5 1777,-86.5 1777,-56.5 1662,-56.5"/>
<text text-anchor="start" x="1670" y="-74.5" font-family="Helvetica,sans-Serif" font-size="10.00">src/d/d_meter/d_meter</text>
<text text-anchor="middle" x="1719.5" y="-63.5" font-family="Helvetica,sans-Serif" font-size="10.00">_map.cpp</text>
</a>
</g>
</g>
<!-- Node20&#45;&gt;Node27 -->
<g id="edge30" class="edge">
<title>Node20&#45;&gt;Node27</title>
<path fill="none" stroke="midnightblue" d="M1981.84,-122.89C1893.36,-106.49 1869.69,-103.94 1785.5,-87 1782.74,-86.44 1779.92,-85.87 1777.07,-85.27"/>
<polygon fill="midnightblue" stroke="midnightblue" points="1981.31,-126.35 1991.78,-124.74 1982.59,-119.47 1981.31,-126.35"/>
</g>
<!-- Node28 -->
<g id="node28" class="node">
<title>Node28</title>
<g id="a_node28"><a xlink:href="d__meter2__draw_8cpp.html" target="_top" xlink:title=" ">
<polygon fill="white" stroke="black" points="1795,-56.5 1795,-86.5 1920,-86.5 1920,-56.5 1795,-56.5"/>
<text text-anchor="start" x="1803" y="-74.5" font-family="Helvetica,sans-Serif" font-size="10.00">src/d/d_meter2/d_meter2</text>
<text text-anchor="middle" x="1857.5" y="-63.5" font-family="Helvetica,sans-Serif" font-size="10.00">_draw.cpp</text>
</a>
</g>
</g>
<!-- Node20&#45;&gt;Node28 -->
<g id="edge31" class="edge">
<title>Node20&#45;&gt;Node28</title>
<path fill="none" stroke="midnightblue" d="M2005.09,-120.23C1972.57,-109.71 1931.56,-96.45 1901.03,-86.58"/>
<polygon fill="midnightblue" stroke="midnightblue" points="2004.29,-123.65 2014.89,-123.4 2006.45,-116.99 2004.29,-123.65"/>
</g>
<!-- Node29 -->
<g id="node29" class="node">
<title>Node29</title>
<g id="a_node29"><a xlink:href="d__meter2_8cpp.html" target="_top" xlink:title=" ">
<polygon fill="white" stroke="black" points="1938.5,-62 1938.5,-81 2038.5,-81 2038.5,-62 1938.5,-62"/>
<text text-anchor="middle" x="1988.5" y="-69" font-family="Helvetica,sans-Serif" font-size="10.00">src/d/d_meter2.cpp</text>
</a>
</g>
</g>
<!-- Node20&#45;&gt;Node29 -->
<g id="edge32" class="edge">
<title>Node20&#45;&gt;Node29</title>
<path fill="none" stroke="midnightblue" d="M2035.71,-116.34C2022.85,-104.4 2007.49,-90.14 1997.86,-81.19"/>
<polygon fill="midnightblue" stroke="midnightblue" points="2033.6,-119.16 2043.31,-123.4 2038.36,-114.03 2033.6,-119.16"/>
</g>
<!-- Node30 -->
<g id="node30" class="node">
<title>Node30</title>
<g id="a_node30"><a xlink:href="m__Do__main_8cpp.html" target="_top" xlink:title=" ">
<polygon fill="white" stroke="black" points="2860,-62 2860,-81 2991,-81 2991,-62 2860,-62"/>
<text text-anchor="middle" x="2925.5" y="-69" font-family="Helvetica,sans-Serif" font-size="10.00">src/m_Do/m_Do_main.cpp</text>
</a>
</g>
</g>
<!-- Node20&#45;&gt;Node30 -->
<g id="edge35" class="edge">
<title>Node20&#45;&gt;Node30</title>
<path fill="none" stroke="midnightblue" d="M2135.48,-122.88C2452.07,-85.49 2537.15,-124.97 2850.5,-87 2862.35,-85.56 2875.14,-83.35 2886.74,-81.07"/>
<polygon fill="midnightblue" stroke="midnightblue" points="2134.59,-119.46 2125.08,-124.12 2135.42,-126.41 2134.59,-119.46"/>
</g>
<!-- Node31 -->
<g id="node31" class="node">
<title>Node31</title>
<g id="a_node31"><a xlink:href="Z2SeMgr_8cpp.html" target="_top" xlink:title=" ">
<polygon fill="white" stroke="black" points="2057,-62 2057,-81 2202,-81 2202,-62 2057,-62"/>
<text text-anchor="middle" x="2129.5" y="-69" font-family="Helvetica,sans-Serif" font-size="10.00">libs/Z2AudioLib/Z2SeMgr.cpp</text>
</a>
</g>
</g>
<!-- Node20&#45;&gt;Node31 -->
<g id="edge38" class="edge">
<title>Node20&#45;&gt;Node31</title>
<path fill="none" stroke="midnightblue" d="M2081.62,-116.34C2094.65,-104.4 2110.24,-90.14 2120,-81.19"/>
<polygon fill="midnightblue" stroke="midnightblue" points="2078.92,-114.06 2073.91,-123.4 2083.65,-119.22 2078.92,-114.06"/>
</g>
<!-- Node32 -->
<g id="node32" class="node">
<title>Node32</title>
<g id="a_node32"><a xlink:href="Z2SoundStarter_8cpp.html" target="_top" xlink:title=" ">
<polygon fill="white" stroke="black" points="3009,-62 3009,-81 3182,-81 3182,-62 3009,-62"/>
<text text-anchor="middle" x="3095.5" y="-69" font-family="Helvetica,sans-Serif" font-size="10.00">libs/Z2AudioLib/Z2SoundStarter.cpp</text>
</a>
</g>
</g>
<!-- Node20&#45;&gt;Node32 -->
<g id="edge40" class="edge">
<title>Node20&#45;&gt;Node32</title>
<path fill="none" stroke="midnightblue" d="M2135.04,-122.94C2517.85,-79.09 2619.32,-123.51 2999.5,-87 3014.6,-85.55 3030.95,-83.33 3045.8,-81.05"/>
<polygon fill="midnightblue" stroke="midnightblue" points="2134.61,-119.47 2125.08,-124.09 2135.41,-126.42 2134.61,-119.47"/>
</g>
<!-- Node33&#45;&gt;Node2 -->
<g id="edge53" class="edge">
<title>Node33&#45;&gt;Node2</title>
<path fill="none" stroke="midnightblue" d="M1587.32,-123.49C1586.04,-123.32 1584.76,-123.15 1583.5,-123 1101.4,-64.85 974.76,-134.58 491.5,-87 477.32,-85.6 461.97,-83.34 448.12,-81.01"/>
<polygon fill="midnightblue" stroke="midnightblue" points="1586.87,-126.96 1597.28,-125.01 1587.92,-120.04 1586.87,-126.96"/>
</g>
<!-- Node33&#45;&gt;Node5 -->
<g id="edge52" class="edge">
<title>Node33&#45;&gt;Node5</title>
<path fill="none" stroke="midnightblue" d="M1587.32,-123.5C1586.04,-123.32 1584.76,-123.16 1583.5,-123 1162.37,-71.18 1050.63,-138.82 629.5,-87 618.32,-85.62 606.27,-83.37 595.41,-81.03"/>
<polygon fill="midnightblue" stroke="midnightblue" points="1586.86,-126.97 1597.28,-125.04 1587.93,-120.05 1586.86,-126.97"/>
</g>
<!-- Node33&#45;&gt;Node6 -->
<g id="edge54" class="edge">
<title>Node33&#45;&gt;Node6</title>
<path fill="none" stroke="midnightblue" d="M1587.32,-123.54C1586.04,-123.35 1584.76,-123.17 1583.5,-123 1312.99,-86.84 1241.65,-117.99 970.5,-87 957.26,-85.49 942.96,-83.27 929.92,-81.03"/>
<polygon fill="midnightblue" stroke="midnightblue" points="1586.83,-127 1597.26,-125.14 1587.95,-120.09 1586.83,-127"/>
</g>
<!-- Node33&#45;&gt;Node8 -->
<g id="edge59" class="edge">
<title>Node33&#45;&gt;Node8</title>
<path fill="none" stroke="midnightblue" d="M1587.31,-123.58C1586.03,-123.38 1584.76,-123.18 1583.5,-123 1391.98,-95.04 1341.61,-110.58 1149.5,-87 1136.14,-85.36 1121.71,-83.19 1108.44,-81.02"/>
<polygon fill="midnightblue" stroke="midnightblue" points="1586.8,-127.04 1597.25,-125.26 1587.97,-120.14 1586.8,-127.04"/>
</g>
<!-- Node33&#45;&gt;Node10 -->
<g id="edge61" class="edge">
<title>Node33&#45;&gt;Node10</title>
<path fill="none" stroke="midnightblue" d="M1587.09,-135.96C1315.08,-129.48 280.78,-103.93 135.5,-87 132.71,-86.68 129.87,-86.3 127.01,-85.88"/>
<polygon fill="midnightblue" stroke="midnightblue" points="1587.12,-139.46 1597.2,-136.2 1587.29,-132.47 1587.12,-139.46"/>
</g>
<!-- Node33&#45;&gt;Node12 -->
<g id="edge62" class="edge">
<title>Node33&#45;&gt;Node12</title>
<path fill="none" stroke="midnightblue" d="M1717.57,-131.23C1750.74,-128.26 1791.74,-124.95 1828.5,-123 2502.85,-87.26 2675.75,-156.17 3347.5,-87 3350.41,-86.7 3353.38,-86.35 3356.37,-85.97"/>
<polygon fill="midnightblue" stroke="midnightblue" points="1717.18,-127.75 1707.54,-132.13 1717.81,-134.72 1717.18,-127.75"/>
</g>
<!-- Node33&#45;&gt;Node14 -->
<g id="edge57" class="edge">
<title>Node33&#45;&gt;Node14</title>
<path fill="none" stroke="midnightblue" d="M1587.14,-132.64C1543.17,-129.51 1483.88,-125.56 1431.5,-123 935.83,-98.75 809.47,-134.56 315.5,-87 301.01,-85.6 285.31,-83.34 271.14,-81.01"/>
<polygon fill="midnightblue" stroke="midnightblue" points="1586.9,-136.13 1597.13,-133.35 1587.4,-129.15 1586.9,-136.13"/>
</g>
<!-- Node33&#45;&gt;Node15 -->
<g id="edge63" class="edge">
<title>Node33&#45;&gt;Node15</title>
<path fill="none" stroke="midnightblue" d="M1717.57,-131.27C1750.74,-128.31 1791.74,-125 1828.5,-123 2433.6,-90.11 2587.82,-139.89 3191.5,-87 3206.77,-85.66 3223.29,-83.47 3238.29,-81.2"/>
<polygon fill="midnightblue" stroke="midnightblue" points="1717.19,-127.79 1707.54,-132.17 1717.81,-134.76 1717.19,-127.79"/>
</g>
<!-- Node33&#45;&gt;Node21 -->
<g id="edge44" class="edge">
<title>Node33&#45;&gt;Node21</title>
<path fill="none" stroke="midnightblue" d="M1717.94,-132.08C1854.88,-120.67 2162.93,-94.59 2210.5,-87 2220.25,-85.44 2230.75,-83.24 2240.32,-81.03"/>
<polygon fill="midnightblue" stroke="midnightblue" points="1717.27,-128.63 1707.59,-132.94 1717.85,-135.6 1717.27,-128.63"/>
</g>
<!-- Node33&#45;&gt;Node22 -->
<g id="edge45" class="edge">
<title>Node33&#45;&gt;Node22</title>
<path fill="none" stroke="midnightblue" d="M1717.62,-131.96C1750.8,-129.18 1791.79,-125.82 1828.5,-123 2053.74,-105.73 2112.27,-121.65 2335.5,-87 2345.03,-85.52 2355.28,-83.29 2364.56,-81.02"/>
<polygon fill="midnightblue" stroke="midnightblue" points="1717.25,-128.48 1707.58,-132.8 1717.84,-135.45 1717.25,-128.48"/>
</g>
<!-- Node33&#45;&gt;Node23 -->
<g id="edge46" class="edge">
<title>Node33&#45;&gt;Node23</title>
<path fill="none" stroke="midnightblue" d="M1717.6,-131.75C1750.78,-128.92 1791.77,-125.57 1828.5,-123 2106.95,-103.54 2178.61,-122.28 2455.5,-87 2458.58,-86.61 2461.72,-86.16 2464.88,-85.68"/>
<polygon fill="midnightblue" stroke="midnightblue" points="1717.23,-128.27 1707.57,-132.61 1717.83,-135.24 1717.23,-128.27"/>
</g>
<!-- Node33&#45;&gt;Node24 -->
<g id="edge47" class="edge">
<title>Node33&#45;&gt;Node24</title>
<path fill="none" stroke="midnightblue" d="M1717.59,-131.58C1750.77,-128.71 1791.76,-125.37 1828.5,-123 2171.27,-100.9 2260.47,-135.56 2600.5,-87 2610.26,-85.61 2620.75,-83.34 2630.19,-81.01"/>
<polygon fill="midnightblue" stroke="midnightblue" points="1717.21,-128.1 1707.56,-132.46 1717.82,-135.07 1717.21,-128.1"/>
</g>
<!-- Node33&#45;&gt;Node26 -->
<g id="edge48" class="edge">
<title>Node33&#45;&gt;Node26</title>
<path fill="none" stroke="midnightblue" d="M1630.99,-116.31C1621.09,-106.56 1609.61,-95.26 1600.79,-86.58"/>
<polygon fill="midnightblue" stroke="midnightblue" points="1628.6,-118.87 1638.18,-123.4 1633.51,-113.89 1628.6,-118.87"/>
</g>
<!-- Node33&#45;&gt;Node27 -->
<g id="edge49" class="edge">
<title>Node33&#45;&gt;Node27</title>
<path fill="none" stroke="midnightblue" d="M1674.34,-116.31C1684.39,-106.56 1696.04,-95.26 1704.99,-86.58"/>
<polygon fill="midnightblue" stroke="midnightblue" points="1671.78,-113.92 1667.04,-123.4 1676.65,-118.94 1671.78,-113.92"/>
</g>
<!-- Node33&#45;&gt;Node28 -->
<g id="edge50" class="edge">
<title>Node33&#45;&gt;Node28</title>
<path fill="none" stroke="midnightblue" d="M1706.29,-120.44C1739.52,-109.91 1781.65,-96.55 1813,-86.61"/>
<polygon fill="midnightblue" stroke="midnightblue" points="1705.2,-117.12 1696.73,-123.48 1707.32,-123.79 1705.2,-117.12"/>
</g>
<!-- Node33&#45;&gt;Node29 -->
<g id="edge51" class="edge">
<title>Node33&#45;&gt;Node29</title>
<path fill="none" stroke="midnightblue" d="M1717.81,-126.61C1773.86,-117.02 1856.72,-102.23 1928.5,-87 1936.99,-85.2 1946.12,-83.09 1954.62,-81.04"/>
<polygon fill="midnightblue" stroke="midnightblue" points="1716.93,-123.21 1707.66,-128.35 1718.11,-130.11 1716.93,-123.21"/>
</g>
<!-- Node33&#45;&gt;Node31 -->
<g id="edge58" class="edge">
<title>Node33&#45;&gt;Node31</title>
<path fill="none" stroke="midnightblue" d="M1717.78,-130.12C1796.22,-121.04 1931.72,-104.63 2047.5,-87 2059.22,-85.22 2071.84,-83.09 2083.59,-81.02"/>
<polygon fill="midnightblue" stroke="midnightblue" points="1717.1,-126.68 1707.57,-131.3 1717.91,-133.63 1717.1,-126.68"/>
</g>
<!-- Node34 -->
<g id="node34" class="node">
<title>Node34</title>
<g id="a_node34"><a xlink:href="Z2EnvSeMgr_8cpp.html" target="_top" xlink:title=" ">
<polygon fill="white" stroke="black" points="1350,-62 1350,-81 1511,-81 1511,-62 1350,-62"/>
<text text-anchor="middle" x="1430.5" y="-69" font-family="Helvetica,sans-Serif" font-size="10.00">libs/Z2AudioLib/Z2EnvSeMgr.cpp</text>
</a>
</g>
</g>
<!-- Node33&#45;&gt;Node34 -->
<g id="edge55" class="edge">
<title>Node33&#45;&gt;Node34</title>
<path fill="none" stroke="midnightblue" d="M1594.75,-120.59C1551.39,-107.9 1493.83,-91.04 1459.63,-81.03"/>
<polygon fill="midnightblue" stroke="midnightblue" points="1594.02,-124.02 1604.6,-123.48 1595.99,-117.31 1594.02,-124.02"/>
</g>
<!-- Node35 -->
<g id="node35" class="node">
<title>Node35</title>
<g id="a_node35"><a xlink:href="Z2LinkMgr_8cpp.html" target="_top" xlink:title=" ">
<polygon fill="white" stroke="black" points="638.5,-62 638.5,-81 790.5,-81 790.5,-62 638.5,-62"/>
<text text-anchor="middle" x="714.5" y="-69" font-family="Helvetica,sans-Serif" font-size="10.00">libs/Z2AudioLib/Z2LinkMgr.cpp</text>
</a>
</g>
</g>
<!-- Node33&#45;&gt;Node35 -->
<g id="edge56" class="edge">
<title>Node33&#45;&gt;Node35</title>
<path fill="none" stroke="midnightblue" d="M1587.32,-123.51C1586.04,-123.33 1584.76,-123.16 1583.5,-123 1237.48,-78.99 1146.3,-124.4 799.5,-87 786.1,-85.56 771.62,-83.33 758.47,-81.06"/>
<polygon fill="midnightblue" stroke="midnightblue" points="1586.85,-126.98 1597.27,-125.08 1587.94,-120.07 1586.85,-126.98"/>
</g>
<!-- Node36 -->
<g id="node36" class="node">
<title>Node36</title>
<g id="a_node36"><a xlink:href="Z2SoundObject_8cpp.html" target="_top" xlink:title=" ">
<polygon fill="white" stroke="black" points="1159,-62 1159,-81 1332,-81 1332,-62 1159,-62"/>
<text text-anchor="middle" x="1245.5" y="-69" font-family="Helvetica,sans-Serif" font-size="10.00">libs/Z2AudioLib/Z2SoundObject.cpp</text>
</a>
</g>
</g>
<!-- Node33&#45;&gt;Node36 -->
<g id="edge60" class="edge">
<title>Node33&#45;&gt;Node36</title>
<path fill="none" stroke="midnightblue" d="M1587.29,-123.69C1586.02,-123.45 1584.75,-123.22 1583.5,-123 1476.03,-103.76 1448.46,-103.24 1340.5,-87 1327.71,-85.08 1313.96,-82.99 1301,-81.01"/>
<polygon fill="midnightblue" stroke="midnightblue" points="1586.72,-127.14 1597.2,-125.57 1588.03,-120.27 1586.72,-127.14"/>
</g>
</g>
</svg>
