<?xml version="1.0" encoding="UTF-8" standalone="no"?>
<!DOCTYPE svg PUBLIC "-//W3C//DTD SVG 1.1//EN"
 "http://www.w3.org/Graphics/SVG/1.1/DTD/svg11.dtd">
<!-- Generated by graphviz version 2.46.0 (20210122.1329)
 -->
<!-- Title: include/Z2AudioLib/Z2SceneMgr/Z2SceneMgr.h Pages: 1 -->
<!--zoomable 620 -->
<svg id="main" version="1.1" xmlns="http://www.w3.org/2000/svg" xmlns:xlink="http://www.w3.org/1999/xlink" xml:space="preserve" onload="init(evt)">
<style type="text/css"><![CDATA[
.edge:hover path { stroke: red; }
.edge:hover polygon { stroke: red; fill: red; }
]]></style>
<script type="text/javascript"><![CDATA[
var edges = document.getElementsByTagName('g');
if (edges && edges.length) {
  for (var i=0;i<edges.length;i++) {
    if (edges[i].id.substr(0,4)=='edge') {
      edges[i].setAttribute('class','edge');
    }
  }
}
]]></script>
        <defs>
                <circle id="rim" cx="0" cy="0" r="7"/>
                <circle id="rim2" cx="0" cy="0" r="3.5"/>
                <g id="zoomPlus">
                        <use xlink:href="#rim" fill="#404040">
                                <set attributeName="fill" to="#808080" begin="zoomplus.mouseover" end="zoomplus.mouseout"/>
                        </use>
                        <path d="M-4,0h8M0,-4v8" fill="none" stroke="white" stroke-width="1.5" pointer-events="none"/>
                </g>
                <g id="zoomMin">
                        <use xlink:href="#rim" fill="#404040">
                                <set attributeName="fill" to="#808080" begin="zoomminus.mouseover" end="zoomminus.mouseout"/>
                        </use>
                        <path d="M-4,0h8" fill="none" stroke="white" stroke-width="1.5" pointer-events="none"/>
                </g>
                <g id="dirArrow">
                        <path fill="none" stroke="white" stroke-width="1.5" d="M0,-3.0v7 M-2.5,-0.5L0,-3.0L2.5,-0.5"/>
                </g>
               <g id="resetDef">
                       <use xlink:href="#rim2" fill="#404040">
                               <set attributeName="fill" to="#808080" begin="reset.mouseover" end="reset.mouseout"/>
                       </use>
               </g>
        </defs>

<script type="text/javascript">
var viewWidth = 845;
var viewHeight = 620;
var sectionId = 'dynsection-0';
</script>
<script xlink:href="svgpan.js"/>
<svg id="graph" class="graph">
<g id="viewport">
<title>include/Z2AudioLib/Z2SceneMgr/Z2SceneMgr.h</title>
<polygon fill="white" stroke="transparent" points="-4,4 -4,-616 840.5,-616 840.5,4 -4,4"/>
<!-- Node1 -->
<g id="node1" class="node">
<title>Node1</title>
<g id="a_node1"><a xlink:title=" ">
<polygon fill="#bfbfbf" stroke="black" points="390,-581.5 390,-611.5 531,-611.5 531,-581.5 390,-581.5"/>
<text text-anchor="start" x="398" y="-599.5" font-family="Helvetica,sans-Serif" font-size="10.00">include/Z2AudioLib</text>
<text text-anchor="middle" x="460.5" y="-588.5" font-family="Helvetica,sans-Serif" font-size="10.00">/Z2SceneMgr/Z2SceneMgr.h</text>
</a>
</g>
</g>
<!-- Node2 -->
<g id="node2" class="node">
<title>Node2</title>
<g id="a_node2"><a xlink:href="JAISe_8h.html" target="_top" xlink:title=" ">
<polygon fill="white" stroke="black" points="399,-447.5 399,-477.5 522,-477.5 522,-447.5 399,-447.5"/>
<text text-anchor="start" x="407" y="-465.5" font-family="Helvetica,sans-Serif" font-size="10.00">JSystem/JAudio2/JAISe</text>
<text text-anchor="middle" x="460.5" y="-454.5" font-family="Helvetica,sans-Serif" font-size="10.00">/JAISe.h</text>
</a>
</g>
</g>
<!-- Node1&#45;&gt;Node2 -->
<g id="edge1" class="edge">
<title>Node1&#45;&gt;Node2</title>
<path fill="none" stroke="midnightblue" d="M460.5,-581.37C460.5,-559.04 460.5,-515.31 460.5,-487.85"/>
<polygon fill="midnightblue" stroke="midnightblue" points="464,-487.52 460.5,-477.52 457,-487.52 464,-487.52"/>
</g>
<!-- Node3 -->
<g id="node3" class="node">
<title>Node3</title>
<g id="a_node3"><a xlink:href="global_8h.html" target="_top" xlink:title=" ">
<polygon fill="white" stroke="black" points="435.5,-386 435.5,-405 485.5,-405 485.5,-386 435.5,-386"/>
<text text-anchor="middle" x="460.5" y="-393" font-family="Helvetica,sans-Serif" font-size="10.00">global.h</text>
</a>
</g>
</g>
<!-- Node1&#45;&gt;Node3 -->
<g id="edge42" class="edge">
<title>Node1&#45;&gt;Node3</title>
<path fill="none" stroke="midnightblue" d="M472.8,-581.16C489.9,-560.17 520.05,-519.1 531.5,-478 535.2,-464.73 537.82,-459.24 531.5,-447 522.94,-430.41 506.14,-418.08 491.03,-409.76"/>
<polygon fill="midnightblue" stroke="midnightblue" points="492.42,-406.54 481.93,-405.09 489.23,-412.77 492.42,-406.54"/>
</g>
<!-- Node20 -->
<g id="node20" class="node">
<title>Node20</title>
<g id="a_node20"><a xlink:href="Z2SeqMgr_8h.html" target="_top" xlink:title=" ">
<polygon fill="white" stroke="black" points="254.5,-514.5 254.5,-544.5 368.5,-544.5 368.5,-514.5 254.5,-514.5"/>
<text text-anchor="start" x="262.5" y="-532.5" font-family="Helvetica,sans-Serif" font-size="10.00">Z2AudioLib/Z2SeqMgr</text>
<text text-anchor="middle" x="311.5" y="-521.5" font-family="Helvetica,sans-Serif" font-size="10.00">/Z2SeqMgr.h</text>
</a>
</g>
</g>
<!-- Node1&#45;&gt;Node20 -->
<g id="edge35" class="edge">
<title>Node1&#45;&gt;Node20</title>
<path fill="none" stroke="midnightblue" d="M428.17,-581.4C406.2,-571.81 376.94,-559.05 353.22,-548.7"/>
<polygon fill="midnightblue" stroke="midnightblue" points="354.33,-545.37 343.77,-544.58 351.53,-551.78 354.33,-545.37"/>
</g>
<!-- Node2&#45;&gt;Node3 -->
<g id="edge2" class="edge">
<title>Node2&#45;&gt;Node3</title>
<path fill="none" stroke="midnightblue" d="M460.5,-447.4C460.5,-438.06 460.5,-425.71 460.5,-415.52"/>
<polygon fill="midnightblue" stroke="midnightblue" points="464,-415.19 460.5,-405.19 457,-415.19 464,-415.19"/>
</g>
<!-- Node4 -->
<g id="node4" class="node">
<title>Node4</title>
<g id="a_node4"><a xlink:href="types_8h.html" target="_top" xlink:title=" ">
<polygon fill="white" stroke="black" points="294,-0.5 294,-19.5 375,-19.5 375,-0.5 294,-0.5"/>
<text text-anchor="middle" x="334.5" y="-7.5" font-family="Helvetica,sans-Serif" font-size="10.00">dolphin/types.h</text>
</a>
</g>
</g>
<!-- Node3&#45;&gt;Node4 -->
<g id="edge3" class="edge">
<title>Node3&#45;&gt;Node4</title>
<path fill="none" stroke="midnightblue" d="M485.65,-391.54C520.14,-386.51 582.9,-373.76 627.5,-344 689.74,-302.47 728.99,-256.91 695.5,-190 636.67,-72.48 469.78,-31.05 385.11,-17.32"/>
<polygon fill="midnightblue" stroke="midnightblue" points="385.62,-13.85 375.2,-15.78 384.54,-20.77 385.62,-13.85"/>
</g>
<!-- Node5 -->
<g id="node5" class="node">
<title>Node5</title>
<g id="a_node5"><a xlink:href="AR_8h.html" target="_top" xlink:title=" ">
<polygon fill="white" stroke="black" points="731,-62 731,-81 780,-81 780,-62 731,-62"/>
<text text-anchor="middle" x="755.5" y="-69" font-family="Helvetica,sans-Serif" font-size="10.00">ar/AR.h</text>
</a>
</g>
</g>
<!-- Node3&#45;&gt;Node5 -->
<g id="edge4" class="edge">
<title>Node3&#45;&gt;Node5</title>
<path fill="none" stroke="midnightblue" d="M485.54,-392.95C544.95,-388.79 692.2,-375.49 728.5,-344 753.5,-322.31 752.5,-306.6 752.5,-273.5 752.5,-273.5 752.5,-273.5 752.5,-204.5 752.5,-164.15 753.92,-116.87 754.8,-91.28"/>
<polygon fill="midnightblue" stroke="midnightblue" points="758.31,-91.27 755.17,-81.15 751.31,-91.02 758.31,-91.27"/>
</g>
<!-- Node6 -->
<g id="node6" class="node">
<title>Node6</title>
<g id="a_node6"><a xlink:href="ARQ_8h.html" target="_top" xlink:title=" ">
<polygon fill="white" stroke="black" points="780.5,-129 780.5,-148 836.5,-148 836.5,-129 780.5,-129"/>
<text text-anchor="middle" x="808.5" y="-136" font-family="Helvetica,sans-Serif" font-size="10.00">ar/ARQ.h</text>
</a>
</g>
</g>
<!-- Node3&#45;&gt;Node6 -->
<g id="edge6" class="edge">
<title>Node3&#45;&gt;Node6</title>
<path fill="none" stroke="midnightblue" d="M485.9,-393.89C551.9,-391.76 726.43,-382.54 766.5,-344 818.44,-294.04 815.03,-198.32 810.92,-158.06"/>
<polygon fill="midnightblue" stroke="midnightblue" points="814.39,-157.59 809.76,-148.06 807.44,-158.4 814.39,-157.59"/>
</g>
<!-- Node7 -->
<g id="node7" class="node">
<title>Node7</title>
<g id="a_node7"><a xlink:href="functions_8h.html" target="_top" xlink:title=" ">
<polygon fill="white" stroke="black" points="166.5,-324.5 166.5,-343.5 230.5,-343.5 230.5,-324.5 166.5,-324.5"/>
<text text-anchor="middle" x="198.5" y="-331.5" font-family="Helvetica,sans-Serif" font-size="10.00">functions.h</text>
</a>
</g>
</g>
<!-- Node3&#45;&gt;Node7 -->
<g id="edge8" class="edge">
<title>Node3&#45;&gt;Node7</title>
<path fill="none" stroke="midnightblue" d="M435.38,-388.79C390.4,-378.58 295.7,-357.07 240.63,-344.57"/>
<polygon fill="midnightblue" stroke="midnightblue" points="241.36,-341.14 230.83,-342.34 239.81,-347.97 241.36,-341.14"/>
</g>
<!-- Node9 -->
<g id="node9" class="node">
<title>Node9</title>
<g id="a_node9"><a xlink:href="mwcc_8h.html" target="_top" xlink:title=" ">
<polygon fill="white" stroke="black" points="231.5,-263 231.5,-282 281.5,-282 281.5,-263 231.5,-263"/>
<text text-anchor="middle" x="256.5" y="-270" font-family="Helvetica,sans-Serif" font-size="10.00">mwcc.h</text>
</a>
</g>
</g>
<!-- Node3&#45;&gt;Node9 -->
<g id="edge16" class="edge">
<title>Node3&#45;&gt;Node9</title>
<path fill="none" stroke="midnightblue" d="M435.45,-389.77C405.41,-383.21 354.48,-369.22 317.5,-344 296.49,-329.67 278.28,-306.36 267.36,-290.51"/>
<polygon fill="midnightblue" stroke="midnightblue" points="270.26,-288.54 261.8,-282.15 264.43,-292.42 270.26,-288.54"/>
</g>
<!-- Node10 -->
<g id="node10" class="node">
<title>Node10</title>
<g id="a_node10"><a xlink:href="OS_8h.html" target="_top" xlink:title=" ">
<polygon fill="white" stroke="black" points="100.5,-263 100.5,-282 152.5,-282 152.5,-263 100.5,-263"/>
<text text-anchor="middle" x="126.5" y="-270" font-family="Helvetica,sans-Serif" font-size="10.00">os/OS.h</text>
</a>
</g>
</g>
<!-- Node3&#45;&gt;Node10 -->
<g id="edge17" class="edge">
<title>Node3&#45;&gt;Node10</title>
<path fill="none" stroke="midnightblue" d="M435.3,-393.33C370.64,-389.87 200.87,-377.71 157.5,-344 141.2,-331.33 133.29,-308.3 129.57,-292.02"/>
<polygon fill="midnightblue" stroke="midnightblue" points="132.97,-291.17 127.62,-282.03 126.1,-292.52 132.97,-291.17"/>
</g>
<!-- Node12 -->
<g id="node12" class="node">
<title>Node12</title>
<g id="a_node12"><a xlink:href="variables_8h.html" target="_top" xlink:title=" ">
<polygon fill="white" stroke="black" points="429,-324.5 429,-343.5 492,-343.5 492,-324.5 429,-324.5"/>
<text text-anchor="middle" x="460.5" y="-331.5" font-family="Helvetica,sans-Serif" font-size="10.00">variables.h</text>
</a>
</g>
</g>
<!-- Node3&#45;&gt;Node12 -->
<g id="edge18" class="edge">
<title>Node3&#45;&gt;Node12</title>
<path fill="none" stroke="midnightblue" d="M460.5,-385.98C460.5,-377.58 460.5,-364.48 460.5,-353.66"/>
<polygon fill="midnightblue" stroke="midnightblue" points="464,-353.51 460.5,-343.51 457,-353.51 464,-353.51"/>
</g>
<!-- Node5&#45;&gt;Node4 -->
<g id="edge5" class="edge">
<title>Node5&#45;&gt;Node4</title>
<path fill="none" stroke="midnightblue" d="M735.14,-61.89C729.22,-59.67 722.68,-57.49 716.5,-56 600.18,-27.95 459.54,-17.12 385.62,-13.15"/>
<polygon fill="midnightblue" stroke="midnightblue" points="385.37,-9.63 375.21,-12.61 385.01,-16.62 385.37,-9.63"/>
</g>
<!-- Node6&#45;&gt;Node4 -->
<g id="edge7" class="edge">
<title>Node6&#45;&gt;Node4</title>
<path fill="none" stroke="midnightblue" d="M809.42,-128.75C810.67,-111.81 810.69,-74.59 789.5,-56 759.59,-29.76 497.46,-17.02 385.18,-12.73"/>
<polygon fill="midnightblue" stroke="midnightblue" points="385.24,-9.23 375.12,-12.35 384.98,-16.22 385.24,-9.23"/>
</g>
<!-- Node8 -->
<g id="node8" class="node">
<title>Node8</title>
<g id="a_node8"><a xlink:href="mtx__vec_8h.html" target="_top" xlink:title=" ">
<polygon fill="white" stroke="black" points="143,-129 143,-148 204,-148 204,-129 143,-129"/>
<text text-anchor="middle" x="173.5" y="-136" font-family="Helvetica,sans-Serif" font-size="10.00">mtx_vec.h</text>
</a>
</g>
</g>
<!-- Node7&#45;&gt;Node8 -->
<g id="edge9" class="edge">
<title>Node7&#45;&gt;Node8</title>
<path fill="none" stroke="midnightblue" d="M197.39,-324.44C193.63,-295.29 181.25,-199.47 175.95,-158.43"/>
<polygon fill="midnightblue" stroke="midnightblue" points="179.4,-157.88 174.65,-148.41 172.46,-158.77 179.4,-157.88"/>
</g>
<!-- Node7&#45;&gt;Node9 -->
<g id="edge11" class="edge">
<title>Node7&#45;&gt;Node9</title>
<path fill="none" stroke="midnightblue" d="M206.81,-324.48C215.68,-315.37 229.95,-300.74 240.92,-289.48"/>
<polygon fill="midnightblue" stroke="midnightblue" points="243.73,-291.61 248.21,-282.01 238.72,-286.73 243.73,-291.61"/>
</g>
<!-- Node7&#45;&gt;Node10 -->
<g id="edge12" class="edge">
<title>Node7&#45;&gt;Node10</title>
<path fill="none" stroke="midnightblue" d="M188.18,-324.48C176.85,-315.11 158.43,-299.88 144.66,-288.51"/>
<polygon fill="midnightblue" stroke="midnightblue" points="146.73,-285.68 136.8,-282.01 142.28,-291.08 146.73,-285.68"/>
</g>
<!-- Node8&#45;&gt;Node4 -->
<g id="edge10" class="edge">
<title>Node8&#45;&gt;Node4</title>
<path fill="none" stroke="midnightblue" d="M176.15,-128.59C181.5,-112.05 195.13,-76.42 218.5,-56 236.98,-39.85 261.9,-29.18 283.91,-22.29"/>
<polygon fill="midnightblue" stroke="midnightblue" points="285.17,-25.57 293.78,-19.39 283.2,-18.85 285.17,-25.57"/>
</g>
<!-- Node10&#45;&gt;Node4 -->
<g id="edge13" class="edge">
<title>Node10&#45;&gt;Node4</title>
<path fill="none" stroke="midnightblue" d="M124.99,-262.71C121.33,-239.08 113.67,-172.61 133.5,-123 148.12,-86.43 158.58,-77.62 191.5,-56 219.33,-37.72 255.05,-26.48 283.83,-19.8"/>
<polygon fill="midnightblue" stroke="midnightblue" points="284.68,-23.19 293.69,-17.62 283.18,-16.36 284.68,-23.19"/>
</g>
<!-- Node11 -->
<g id="node11" class="node">
<title>Node11</title>
<g id="a_node11"><a xlink:href="dvd_8h.html" target="_top" xlink:title=" ">
<polygon fill="white" stroke="black" points="47,-62 47,-81 106,-81 106,-62 47,-62"/>
<text text-anchor="middle" x="76.5" y="-69" font-family="Helvetica,sans-Serif" font-size="10.00">dvd/dvd.h</text>
</a>
</g>
</g>
<!-- Node10&#45;&gt;Node11 -->
<g id="edge14" class="edge">
<title>Node10&#45;&gt;Node11</title>
<path fill="none" stroke="midnightblue" d="M121.02,-262.93C115.03,-253.17 105.62,-236.55 100.5,-221 85.65,-175.87 79.79,-119.88 77.64,-91.26"/>
<polygon fill="midnightblue" stroke="midnightblue" points="81.11,-90.83 76.94,-81.09 74.13,-91.31 81.11,-90.83"/>
</g>
<!-- Node11&#45;&gt;Node4 -->
<g id="edge15" class="edge">
<title>Node11&#45;&gt;Node4</title>
<path fill="none" stroke="midnightblue" d="M101.02,-61.88C107.33,-59.82 114.13,-57.71 120.5,-56 175.82,-41.12 240.28,-28.14 283.88,-20"/>
<polygon fill="midnightblue" stroke="midnightblue" points="284.76,-23.4 293.95,-18.14 283.48,-16.52 284.76,-23.4"/>
</g>
<!-- Node13 -->
<g id="node13" class="node">
<title>Node13</title>
<g id="a_node13"><a xlink:href="JSUList_8h.html" target="_top" xlink:title=" ">
<polygon fill="white" stroke="black" points="314.5,-56.5 314.5,-86.5 450.5,-86.5 450.5,-56.5 314.5,-56.5"/>
<text text-anchor="start" x="322.5" y="-74.5" font-family="Helvetica,sans-Serif" font-size="10.00">JSystem/JSupport/JSUList</text>
<text text-anchor="middle" x="382.5" y="-63.5" font-family="Helvetica,sans-Serif" font-size="10.00">/JSUList.h</text>
</a>
</g>
</g>
<!-- Node12&#45;&gt;Node13 -->
<g id="edge19" class="edge">
<title>Node12&#45;&gt;Node13</title>
<path fill="none" stroke="midnightblue" d="M435,-324.47C418.51,-317.48 398.36,-305.79 388.5,-288 381.82,-275.95 384.77,-270.26 388.5,-257 393.58,-238.95 404.1,-238.62 410.5,-221 425.44,-179.85 434.38,-164.52 420.5,-123 417.06,-112.7 410.59,-102.81 403.96,-94.56"/>
<polygon fill="midnightblue" stroke="midnightblue" points="406.55,-92.2 397.38,-86.9 401.24,-96.76 406.55,-92.2"/>
</g>
<!-- Node14 -->
<g id="node14" class="node">
<title>Node14</title>
<g id="a_node14"><a xlink:href="JUTXfb_8h.html" target="_top" xlink:title=" ">
<polygon fill="white" stroke="black" points="398,-257.5 398,-287.5 523,-287.5 523,-257.5 398,-257.5"/>
<text text-anchor="start" x="406" y="-275.5" font-family="Helvetica,sans-Serif" font-size="10.00">JSystem/JUtility/JUTXfb</text>
<text text-anchor="middle" x="460.5" y="-264.5" font-family="Helvetica,sans-Serif" font-size="10.00">/JUTXfb.h</text>
</a>
</g>
</g>
<!-- Node12&#45;&gt;Node14 -->
<g id="edge21" class="edge">
<title>Node12&#45;&gt;Node14</title>
<path fill="none" stroke="midnightblue" d="M460.5,-324.48C460.5,-317.47 460.5,-307.19 460.5,-297.7"/>
<polygon fill="midnightblue" stroke="midnightblue" points="464,-297.52 460.5,-287.52 457,-297.52 464,-297.52"/>
</g>
<!-- Node18 -->
<g id="node18" class="node">
<title>Node18</title>
<g id="a_node18"><a xlink:href="c__xyz_8h.html" target="_top" xlink:title=" ">
<polygon fill="white" stroke="black" points="541,-263 541,-282 648,-282 648,-263 541,-263"/>
<text text-anchor="middle" x="594.5" y="-270" font-family="Helvetica,sans-Serif" font-size="10.00">SComponent/c_xyz.h</text>
</a>
</g>
</g>
<!-- Node12&#45;&gt;Node18 -->
<g id="edge31" class="edge">
<title>Node12&#45;&gt;Node18</title>
<path fill="none" stroke="midnightblue" d="M479.7,-324.48C502.29,-314.45 540,-297.7 566,-286.15"/>
<polygon fill="midnightblue" stroke="midnightblue" points="567.62,-289.27 575.34,-282.01 564.78,-282.87 567.62,-289.27"/>
</g>
<!-- Node13&#45;&gt;Node4 -->
<g id="edge20" class="edge">
<title>Node13&#45;&gt;Node4</title>
<path fill="none" stroke="midnightblue" d="M371.12,-56.4C364.15,-47.75 355.19,-36.64 347.87,-27.58"/>
<polygon fill="midnightblue" stroke="midnightblue" points="350.49,-25.24 341.48,-19.66 345.04,-29.64 350.49,-25.24"/>
</g>
<!-- Node14&#45;&gt;Node4 -->
<g id="edge28" class="edge">
<title>Node14&#45;&gt;Node4</title>
<path fill="none" stroke="midnightblue" d="M465.49,-257.25C477.52,-220.13 503.96,-118.95 459.5,-56 442.69,-32.19 412.02,-20.93 385.27,-15.62"/>
<polygon fill="midnightblue" stroke="midnightblue" points="385.7,-12.14 375.24,-13.86 384.49,-19.04 385.7,-12.14"/>
</g>
<!-- Node15 -->
<g id="node15" class="node">
<title>Node15</title>
<g id="a_node15"><a xlink:href="JKRHeap_8h.html" target="_top" xlink:title=" ">
<polygon fill="white" stroke="black" points="265.5,-190.5 265.5,-220.5 401.5,-220.5 401.5,-190.5 265.5,-190.5"/>
<text text-anchor="start" x="273.5" y="-208.5" font-family="Helvetica,sans-Serif" font-size="10.00">JSystem/JKernel/JKRHeap</text>
<text text-anchor="middle" x="333.5" y="-197.5" font-family="Helvetica,sans-Serif" font-size="10.00">/JKRHeap.h</text>
</a>
</g>
</g>
<!-- Node14&#45;&gt;Node15 -->
<g id="edge22" class="edge">
<title>Node14&#45;&gt;Node15</title>
<path fill="none" stroke="midnightblue" d="M432.94,-257.4C414.55,-247.98 390.17,-235.5 370.15,-225.26"/>
<polygon fill="midnightblue" stroke="midnightblue" points="371.5,-222.02 361,-220.58 368.31,-228.25 371.5,-222.02"/>
</g>
<!-- Node17 -->
<g id="node17" class="node">
<title>Node17</title>
<g id="a_node17"><a xlink:href="GX_8h.html" target="_top" xlink:title=" ">
<polygon fill="white" stroke="black" points="502,-196 502,-215 553,-215 553,-196 502,-196"/>
<text text-anchor="middle" x="527.5" y="-203" font-family="Helvetica,sans-Serif" font-size="10.00">gx/GX.h</text>
</a>
</g>
</g>
<!-- Node14&#45;&gt;Node17 -->
<g id="edge29" class="edge">
<title>Node14&#45;&gt;Node17</title>
<path fill="none" stroke="midnightblue" d="M475.04,-257.4C485.69,-247.06 500.16,-233.02 511.2,-222.31"/>
<polygon fill="midnightblue" stroke="midnightblue" points="513.8,-224.67 518.54,-215.19 508.92,-219.65 513.8,-224.67"/>
</g>
<!-- Node15&#45;&gt;Node3 -->
<g id="edge27" class="edge">
<title>Node15&#45;&gt;Node3</title>
<path fill="none" stroke="midnightblue" d="M335.08,-220.6C337.47,-237.54 343.1,-266.39 355.5,-288 377.6,-326.51 417.02,-361.09 440.77,-379.81"/>
<polygon fill="midnightblue" stroke="midnightblue" points="438.69,-382.63 448.75,-385.97 442.97,-377.09 438.69,-382.63"/>
</g>
<!-- Node15&#45;&gt;Node4 -->
<g id="edge26" class="edge">
<title>Node15&#45;&gt;Node4</title>
<path fill="none" stroke="midnightblue" d="M294.38,-190.48C278.07,-182.47 260.79,-170.64 251.5,-154 244.78,-141.97 247.29,-136.12 251.5,-123 264.18,-83.54 297.04,-46.75 317.41,-26.72"/>
<polygon fill="midnightblue" stroke="midnightblue" points="319.98,-29.1 324.78,-19.66 315.14,-24.05 319.98,-29.1"/>
</g>
<!-- Node16 -->
<g id="node16" class="node">
<title>Node16</title>
<g id="a_node16"><a xlink:href="JKRDisposer_8h.html" target="_top" xlink:title=" ">
<polygon fill="white" stroke="black" points="261,-123.5 261,-153.5 412,-153.5 412,-123.5 261,-123.5"/>
<text text-anchor="start" x="269" y="-141.5" font-family="Helvetica,sans-Serif" font-size="10.00">JSystem/JKernel/JKRDisposer</text>
<text text-anchor="middle" x="336.5" y="-130.5" font-family="Helvetica,sans-Serif" font-size="10.00">/JKRDisposer.h</text>
</a>
</g>
</g>
<!-- Node15&#45;&gt;Node16 -->
<g id="edge23" class="edge">
<title>Node15&#45;&gt;Node16</title>
<path fill="none" stroke="midnightblue" d="M334.15,-190.4C334.51,-182.64 334.96,-172.81 335.38,-163.86"/>
<polygon fill="midnightblue" stroke="midnightblue" points="338.89,-163.73 335.85,-153.58 331.89,-163.4 338.89,-163.73"/>
</g>
<!-- Node16&#45;&gt;Node4 -->
<g id="edge25" class="edge">
<title>Node16&#45;&gt;Node4</title>
<path fill="none" stroke="midnightblue" d="M324.96,-123.49C317.81,-113.88 309.3,-100.46 305.5,-87 301.76,-73.74 301.61,-69.22 305.5,-56 308.51,-45.76 314.65,-35.66 320.51,-27.63"/>
<polygon fill="midnightblue" stroke="midnightblue" points="323.43,-29.58 326.83,-19.54 317.91,-25.27 323.43,-29.58"/>
</g>
<!-- Node16&#45;&gt;Node13 -->
<g id="edge24" class="edge">
<title>Node16&#45;&gt;Node13</title>
<path fill="none" stroke="midnightblue" d="M346.48,-123.4C352.39,-115.05 360,-104.29 366.71,-94.81"/>
<polygon fill="midnightblue" stroke="midnightblue" points="369.62,-96.76 372.54,-86.58 363.9,-92.72 369.62,-96.76"/>
</g>
<!-- Node17&#45;&gt;Node4 -->
<g id="edge30" class="edge">
<title>Node17&#45;&gt;Node4</title>
<path fill="none" stroke="midnightblue" d="M528.24,-195.74C529.86,-170.38 530.92,-96.23 492.5,-56 464.89,-27.09 420.15,-16.35 385.31,-12.54"/>
<polygon fill="midnightblue" stroke="midnightblue" points="385.6,-9.06 375.31,-11.61 384.94,-16.03 385.6,-9.06"/>
</g>
<!-- Node18&#45;&gt;Node3 -->
<g id="edge34" class="edge">
<title>Node18&#45;&gt;Node3</title>
<path fill="none" stroke="midnightblue" d="M584.95,-282.12C562.54,-302.36 506.29,-353.15 477.73,-378.94"/>
<polygon fill="midnightblue" stroke="midnightblue" points="475.21,-376.5 470.14,-385.8 479.9,-381.69 475.21,-376.5"/>
</g>
<!-- Node19 -->
<g id="node19" class="node">
<title>Node19</title>
<g id="a_node19"><a xlink:href="c__math_8h.html" target="_top" xlink:title=" ">
<polygon fill="white" stroke="black" points="570.5,-196 570.5,-215 686.5,-215 686.5,-196 570.5,-196"/>
<text text-anchor="middle" x="628.5" y="-203" font-family="Helvetica,sans-Serif" font-size="10.00">SComponent/c_math.h</text>
</a>
</g>
</g>
<!-- Node18&#45;&gt;Node19 -->
<g id="edge32" class="edge">
<title>Node18&#45;&gt;Node19</title>
<path fill="none" stroke="midnightblue" d="M599.09,-262.73C604.23,-252.89 612.72,-236.66 619.26,-224.16"/>
<polygon fill="midnightblue" stroke="midnightblue" points="622.45,-225.61 623.99,-215.13 616.25,-222.37 622.45,-225.61"/>
</g>
<!-- Node19&#45;&gt;Node3 -->
<g id="edge33" class="edge">
<title>Node19&#45;&gt;Node3</title>
<path fill="none" stroke="midnightblue" d="M636.2,-215.07C649.06,-230.47 672.11,-263.49 657.5,-288 622.43,-346.83 542.33,-375.13 495.79,-387.05"/>
<polygon fill="midnightblue" stroke="midnightblue" points="494.72,-383.71 485.84,-389.49 496.38,-390.51 494.72,-383.71"/>
</g>
<!-- Node20&#45;&gt;Node2 -->
<g id="edge36" class="edge">
<title>Node20&#45;&gt;Node2</title>
<path fill="none" stroke="midnightblue" d="M343.83,-514.4C365.8,-504.81 395.06,-492.05 418.78,-481.7"/>
<polygon fill="midnightblue" stroke="midnightblue" points="420.47,-484.78 428.23,-477.58 417.67,-478.37 420.47,-484.78"/>
</g>
<!-- Node20&#45;&gt;Node3 -->
<g id="edge41" class="edge">
<title>Node20&#45;&gt;Node3</title>
<path fill="none" stroke="midnightblue" d="M274.19,-514.36C258.35,-506.28 241.49,-494.42 232.5,-478 225.88,-465.92 223.88,-457.74 232.5,-447 256.27,-417.39 367.35,-404.07 425.23,-399.06"/>
<polygon fill="midnightblue" stroke="midnightblue" points="425.7,-402.53 435.38,-398.22 425.12,-395.55 425.7,-402.53"/>
</g>
<!-- Node21 -->
<g id="node21" class="node">
<title>Node21</title>
<g id="a_node21"><a xlink:href="JAISound_8h.html" target="_top" xlink:title=" ">
<polygon fill="white" stroke="black" points="242,-447.5 242,-477.5 381,-477.5 381,-447.5 242,-447.5"/>
<text text-anchor="start" x="250" y="-465.5" font-family="Helvetica,sans-Serif" font-size="10.00">JSystem/JAudio2/JAISound</text>
<text text-anchor="middle" x="311.5" y="-454.5" font-family="Helvetica,sans-Serif" font-size="10.00">/JAISound.h</text>
</a>
</g>
</g>
<!-- Node20&#45;&gt;Node21 -->
<g id="edge37" class="edge">
<title>Node20&#45;&gt;Node21</title>
<path fill="none" stroke="midnightblue" d="M311.5,-514.4C311.5,-506.64 311.5,-496.81 311.5,-487.86"/>
<polygon fill="midnightblue" stroke="midnightblue" points="315,-487.58 311.5,-477.58 308,-487.58 315,-487.58"/>
</g>
<!-- Node22 -->
<g id="node22" class="node">
<title>Node22</title>
<g id="a_node22"><a xlink:href="Z2Param_8h.html" target="_top" xlink:title=" ">
<polygon fill="white" stroke="black" points="0,-380.5 0,-410.5 109,-410.5 109,-380.5 0,-380.5"/>
<text text-anchor="start" x="8" y="-398.5" font-family="Helvetica,sans-Serif" font-size="10.00">Z2AudioLib/Z2Param</text>
<text text-anchor="middle" x="54.5" y="-387.5" font-family="Helvetica,sans-Serif" font-size="10.00">/Z2Param.h</text>
</a>
</g>
</g>
<!-- Node20&#45;&gt;Node22 -->
<g id="edge39" class="edge">
<title>Node20&#45;&gt;Node22</title>
<path fill="none" stroke="midnightblue" d="M284,-514.37C237.43,-490.46 143.06,-441.99 91.01,-415.25"/>
<polygon fill="midnightblue" stroke="midnightblue" points="92.3,-411.98 81.81,-410.52 89.1,-418.21 92.3,-411.98"/>
</g>
<!-- Node21&#45;&gt;Node3 -->
<g id="edge38" class="edge">
<title>Node21&#45;&gt;Node3</title>
<path fill="none" stroke="midnightblue" d="M343.83,-447.4C369.97,-435.99 406.45,-420.08 431.62,-409.1"/>
<polygon fill="midnightblue" stroke="midnightblue" points="433.23,-412.21 441,-405.01 430.43,-405.8 433.23,-412.21"/>
</g>
<!-- Node22&#45;&gt;Node4 -->
<g id="edge40" class="edge">
<title>Node22&#45;&gt;Node4</title>
<path fill="none" stroke="midnightblue" d="M47.39,-380.38C36.9,-358.21 18.5,-313.61 18.5,-273.5 18.5,-273.5 18.5,-273.5 18.5,-137.5 18.5,-100.31 10.19,-81.25 37.5,-56 72.43,-23.71 208.39,-14.59 283.65,-12.01"/>
<polygon fill="midnightblue" stroke="midnightblue" points="283.97,-15.51 293.86,-11.69 283.75,-8.51 283.97,-15.51"/>
</g>
</g>
</svg>
        <g id="navigator" transform="translate(0 0)" fill="#404254">
                <rect fill="#f2f5e9" fill-opacity="0.5" stroke="#606060" stroke-width=".5" x="0" y="0" width="60" height="60"/>
                <use id="zoomplus" xlink:href="#zoomPlus" x="17" y="9" onmousedown="handleZoom(evt,'in')"/>
                <use id="zoomminus" xlink:href="#zoomMin" x="42" y="9" onmousedown="handleZoom(evt,'out')"/>
                <use id="reset" xlink:href="#resetDef" x="30" y="36" onmousedown="handleReset()"/>
                <g id="arrowUp" xlink:href="#dirArrow" transform="translate(30 24)" onmousedown="handlePan(0,-1)">
                  <use xlink:href="#rim" fill="#404040">
                        <set attributeName="fill" to="#808080" begin="arrowUp.mouseover" end="arrowUp.mouseout"/>
                  </use>
                  <path fill="none" stroke="white" stroke-width="1.5" d="M0,-3.0v7 M-2.5,-0.5L0,-3.0L2.5,-0.5"/>
                </g>
                <g id="arrowRight" xlink:href="#dirArrow" transform="rotate(90) translate(36 -43)" onmousedown="handlePan(1,0)">
                  <use xlink:href="#rim" fill="#404040">
                        <set attributeName="fill" to="#808080" begin="arrowRight.mouseover" end="arrowRight.mouseout"/>
                  </use>
                  <path fill="none" stroke="white" stroke-width="1.5" d="M0,-3.0v7 M-2.5,-0.5L0,-3.0L2.5,-0.5"/>
                </g>
                <g id="arrowDown" xlink:href="#dirArrow" transform="rotate(180) translate(-30 -48)" onmousedown="handlePan(0,1)">
                  <use xlink:href="#rim" fill="#404040">
                        <set attributeName="fill" to="#808080" begin="arrowDown.mouseover" end="arrowDown.mouseout"/>
                  </use>
                  <path fill="none" stroke="white" stroke-width="1.5" d="M0,-3.0v7 M-2.5,-0.5L0,-3.0L2.5,-0.5"/>
                </g>
                <g id="arrowLeft" xlink:href="#dirArrow" transform="rotate(270) translate(-36 17)" onmousedown="handlePan(-1,0)">
                  <use xlink:href="#rim" fill="#404040">
                        <set attributeName="fill" to="#808080" begin="arrowLeft.mouseover" end="arrowLeft.mouseout"/>
                  </use>
                  <path fill="none" stroke="white" stroke-width="1.5" d="M0,-3.0v7 M-2.5,-0.5L0,-3.0L2.5,-0.5"/>
                </g>
        </g>
        <svg viewBox="0 0 15 15" width="100%" height="30px" preserveAspectRatio="xMaxYMin meet">
         <g id="arrow_out" transform="scale(0.3 0.3)">
          <a xlink:href="Z2SceneMgr_8h__incl_org.svg" target="_base">
           <rect id="button" ry="5" rx="5" y="6" x="6" height="38" width="38"
                fill="#f2f5e9" fill-opacity="0.5" stroke="#606060" stroke-width="1.0"/>
           <path id="arrow"
             d="M 11.500037,31.436501 C 11.940474,20.09759 22.043105,11.32322 32.158766,21.979434 L 37.068811,17.246167 C 37.068811,17.246167 37.088388,32 37.088388,32 L 22.160133,31.978069 C 22.160133,31.978069 26.997745,27.140456 26.997745,27.140456 C 18.528582,18.264221 13.291696,25.230495 11.500037,31.436501 z"
             style="fill:#404040;"/>
          </a>
         </g>
        </svg>
</svg>
