<?xml version="1.0" encoding="UTF-8" standalone="no"?>
<!DOCTYPE svg PUBLIC "-//W3C//DTD SVG 1.1//EN"
 "http://www.w3.org/Graphics/SVG/1.1/DTD/svg11.dtd">
<!-- Generated by graphviz version 2.46.0 (20210122.1329)
 -->
<!-- Title: include/Z2AudioLib/Z2SceneMgr/Z2SceneMgr.h Pages: 1 -->
<!--zoomable 240 -->
<svg id="main" version="1.1" xmlns="http://www.w3.org/2000/svg" xmlns:xlink="http://www.w3.org/1999/xlink" xml:space="preserve" onload="init(evt)">
<style type="text/css"><![CDATA[
.edge:hover path { stroke: red; }
.edge:hover polygon { stroke: red; fill: red; }
]]></style>
<script type="text/javascript"><![CDATA[
var edges = document.getElementsByTagName('g');
if (edges && edges.length) {
  for (var i=0;i<edges.length;i++) {
    if (edges[i].id.substr(0,4)=='edge') {
      edges[i].setAttribute('class','edge');
    }
  }
}
]]></script>
        <defs>
                <circle id="rim" cx="0" cy="0" r="7"/>
                <circle id="rim2" cx="0" cy="0" r="3.5"/>
                <g id="zoomPlus">
                        <use xlink:href="#rim" fill="#404040">
                                <set attributeName="fill" to="#808080" begin="zoomplus.mouseover" end="zoomplus.mouseout"/>
                        </use>
                        <path d="M-4,0h8M0,-4v8" fill="none" stroke="white" stroke-width="1.5" pointer-events="none"/>
                </g>
                <g id="zoomMin">
                        <use xlink:href="#rim" fill="#404040">
                                <set attributeName="fill" to="#808080" begin="zoomminus.mouseover" end="zoomminus.mouseout"/>
                        </use>
                        <path d="M-4,0h8" fill="none" stroke="white" stroke-width="1.5" pointer-events="none"/>
                </g>
                <g id="dirArrow">
                        <path fill="none" stroke="white" stroke-width="1.5" d="M0,-3.0v7 M-2.5,-0.5L0,-3.0L2.5,-0.5"/>
                </g>
               <g id="resetDef">
                       <use xlink:href="#rim2" fill="#404040">
                               <set attributeName="fill" to="#808080" begin="reset.mouseover" end="reset.mouseout"/>
                       </use>
               </g>
        </defs>

<script type="text/javascript">
var viewWidth = 2631;
var viewHeight = 240;
var sectionId = 'dynsection-1';
</script>
<script xlink:href="svgpan.js"/>
<svg id="graph" class="graph">
<g id="viewport">
<title>include/Z2AudioLib/Z2SceneMgr/Z2SceneMgr.h</title>
<polygon fill="white" stroke="transparent" points="-4,4 -4,-236 2627,-236 2627,4 -4,4"/>
<!-- Node1 -->
<g id="node1" class="node">
<title>Node1</title>
<g id="a_node1"><a xlink:title=" ">
<polygon fill="#bfbfbf" stroke="black" points="992.5,-201.5 992.5,-231.5 1133.5,-231.5 1133.5,-201.5 992.5,-201.5"/>
<text text-anchor="start" x="1000.5" y="-219.5" font-family="Helvetica,sans-Serif" font-size="10.00">include/Z2AudioLib</text>
<text text-anchor="middle" x="1063" y="-208.5" font-family="Helvetica,sans-Serif" font-size="10.00">/Z2SceneMgr/Z2SceneMgr.h</text>
</a>
</g>
</g>
<!-- Node2 -->
<g id="node2" class="node">
<title>Node2</title>
<g id="a_node2"><a xlink:href="Z2SceneMgr_8cpp.html" target="_top" xlink:title=" ">
<polygon fill="white" stroke="black" points="651.5,-140 651.5,-159 812.5,-159 812.5,-140 651.5,-140"/>
<text text-anchor="middle" x="732" y="-147" font-family="Helvetica,sans-Serif" font-size="10.00">libs/Z2AudioLib/Z2SceneMgr.cpp</text>
</a>
</g>
</g>
<!-- Node1&#45;&gt;Node2 -->
<g id="edge1" class="edge">
<title>Node1&#45;&gt;Node2</title>
<path fill="none" stroke="midnightblue" d="M982.57,-199.71C917.44,-186.92 828.18,-169.39 775.65,-159.07"/>
<polygon fill="midnightblue" stroke="midnightblue" points="981.91,-203.14 992.4,-201.64 983.26,-196.27 981.91,-203.14"/>
</g>
<!-- Node3 -->
<g id="node3" class="node">
<title>Node3</title>
<g id="a_node3"><a xlink:href="Z2SeqMgr_8cpp.html" target="_top" xlink:title=" ">
<polygon fill="white" stroke="black" points="831,-140 831,-159 981,-159 981,-140 831,-140"/>
<text text-anchor="middle" x="906" y="-147" font-family="Helvetica,sans-Serif" font-size="10.00">libs/Z2AudioLib/Z2SeqMgr.cpp</text>
</a>
</g>
</g>
<!-- Node1&#45;&gt;Node3 -->
<g id="edge2" class="edge">
<title>Node1&#45;&gt;Node3</title>
<path fill="none" stroke="midnightblue" d="M1019.42,-197.46C989.09,-184.9 950.02,-168.72 926.55,-159.01"/>
<polygon fill="midnightblue" stroke="midnightblue" points="1018.36,-200.8 1028.93,-201.4 1021.03,-194.34 1018.36,-200.8"/>
</g>
<!-- Node4 -->
<g id="node4" class="node">
<title>Node4</title>
<g id="a_node4"><a xlink:href="Z2StatusMgr_8cpp.html" target="_top" xlink:title=" ">
<polygon fill="white" stroke="black" points="999.5,-134.5 999.5,-164.5 1126.5,-164.5 1126.5,-134.5 999.5,-134.5"/>
<text text-anchor="start" x="1007.5" y="-152.5" font-family="Helvetica,sans-Serif" font-size="10.00">libs/Z2AudioLib/Z2Status</text>
<text text-anchor="middle" x="1063" y="-141.5" font-family="Helvetica,sans-Serif" font-size="10.00">Mgr.cpp</text>
</a>
</g>
</g>
<!-- Node1&#45;&gt;Node4 -->
<g id="edge3" class="edge">
<title>Node1&#45;&gt;Node4</title>
<path fill="none" stroke="midnightblue" d="M1063,-191.11C1063,-182.15 1063,-172.32 1063,-164.58"/>
<polygon fill="midnightblue" stroke="midnightblue" points="1059.5,-191.4 1063,-201.4 1066.5,-191.4 1059.5,-191.4"/>
</g>
<!-- Node5 -->
<g id="node5" class="node">
<title>Node5</title>
<g id="a_node5"><a xlink:href="Z2AudioLib_8h.html" target="_top" xlink:title=" ">
<polygon fill="white" stroke="black" points="1012,-67.5 1012,-97.5 1112,-97.5 1112,-67.5 1012,-67.5"/>
<text text-anchor="start" x="1020" y="-85.5" font-family="Helvetica,sans-Serif" font-size="10.00">include/Z2AudioLib</text>
<text text-anchor="middle" x="1062" y="-74.5" font-family="Helvetica,sans-Serif" font-size="10.00">/Z2AudioLib.h</text>
</a>
</g>
</g>
<!-- Node1&#45;&gt;Node5 -->
<g id="edge4" class="edge">
<title>Node1&#45;&gt;Node5</title>
<path fill="none" stroke="midnightblue" d="M1104.39,-196.16C1116.48,-188.3 1128.25,-177.97 1135,-165 1141.36,-152.78 1141.4,-146.2 1135,-134 1126.56,-117.89 1110.39,-105.91 1095.41,-97.66"/>
<polygon fill="midnightblue" stroke="midnightblue" points="1102.36,-193.29 1095.59,-201.44 1105.96,-199.29 1102.36,-193.29"/>
</g>
<!-- Node7 -->
<g id="node7" class="node">
<title>Node7</title>
<g id="a_node7"><a xlink:href="Z2AudioMgr_8h.html" target="_top" xlink:title=" ">
<polygon fill="white" stroke="black" points="1202.5,-134.5 1202.5,-164.5 1337.5,-164.5 1337.5,-134.5 1202.5,-134.5"/>
<text text-anchor="start" x="1210.5" y="-152.5" font-family="Helvetica,sans-Serif" font-size="10.00">include/Z2AudioLib</text>
<text text-anchor="middle" x="1270" y="-141.5" font-family="Helvetica,sans-Serif" font-size="10.00">/Z2AudioMgr/Z2AudioMgr.h</text>
</a>
</g>
</g>
<!-- Node1&#45;&gt;Node7 -->
<g id="edge6" class="edge">
<title>Node1&#45;&gt;Node7</title>
<path fill="none" stroke="midnightblue" d="M1117.32,-198.44C1150.87,-187.91 1193.41,-174.55 1225.06,-164.61"/>
<polygon fill="midnightblue" stroke="midnightblue" points="1116.15,-195.14 1107.66,-201.48 1118.25,-201.82 1116.15,-195.14"/>
</g>
<!-- Node6 -->
<g id="node6" class="node">
<title>Node6</title>
<g id="a_node6"><a xlink:href="m__Do__audio_8cpp.html" target="_top" xlink:title=" ">
<polygon fill="white" stroke="black" points="0,-6 0,-25 134,-25 134,-6 0,-6"/>
<text text-anchor="middle" x="67" y="-13" font-family="Helvetica,sans-Serif" font-size="10.00">src/m_Do/m_Do_audio.cpp</text>
</a>
</g>
</g>
<!-- Node5&#45;&gt;Node6 -->
<g id="edge5" class="edge">
<title>Node5&#45;&gt;Node6</title>
<path fill="none" stroke="midnightblue" d="M1001.81,-80.97C854.66,-79.07 465.17,-70.41 143,-31 131,-29.53 118.04,-27.3 106.29,-25.03"/>
<polygon fill="midnightblue" stroke="midnightblue" points="1001.94,-84.47 1011.98,-81.1 1002.03,-77.47 1001.94,-84.47"/>
</g>
<!-- Node7&#45;&gt;Node5 -->
<g id="edge29" class="edge">
<title>Node7&#45;&gt;Node5</title>
<path fill="none" stroke="midnightblue" d="M1215.42,-131.44C1181.7,-120.91 1138.96,-107.55 1107.15,-97.61"/>
<polygon fill="midnightblue" stroke="midnightblue" points="1214.53,-134.83 1225.12,-134.48 1216.62,-128.15 1214.53,-134.83"/>
</g>
<!-- Node8 -->
<g id="node8" class="node">
<title>Node8</title>
<g id="a_node8"><a xlink:href="d__save_8cpp.html" target="_top" xlink:title=" ">
<polygon fill="white" stroke="black" points="1281.5,-73 1281.5,-92 1406.5,-92 1406.5,-73 1281.5,-73"/>
<text text-anchor="middle" x="1344" y="-80" font-family="Helvetica,sans-Serif" font-size="10.00">src/d/d_save/d_save.cpp</text>
</a>
</g>
</g>
<!-- Node7&#45;&gt;Node8 -->
<g id="edge7" class="edge">
<title>Node7&#45;&gt;Node8</title>
<path fill="none" stroke="midnightblue" d="M1293.71,-127.67C1307.37,-115.67 1323.83,-101.22 1334.1,-92.19"/>
<polygon fill="midnightblue" stroke="midnightblue" points="1291.26,-125.17 1286.06,-134.4 1295.88,-130.43 1291.26,-125.17"/>
</g>
<!-- Node9 -->
<g id="node9" class="node">
<title>Node9</title>
<g id="a_node9"><a xlink:href="m__Do__Reset_8cpp.html" target="_top" xlink:title=" ">
<polygon fill="white" stroke="black" points="1425,-73 1425,-92 1561,-92 1561,-73 1425,-73"/>
<text text-anchor="middle" x="1493" y="-80" font-family="Helvetica,sans-Serif" font-size="10.00">src/m_Do/m_Do_Reset.cpp</text>
</a>
</g>
</g>
<!-- Node7&#45;&gt;Node9 -->
<g id="edge8" class="edge">
<title>Node7&#45;&gt;Node9</title>
<path fill="none" stroke="midnightblue" d="M1327.74,-131.67C1371.32,-118.97 1429.31,-102.06 1463.74,-92.03"/>
<polygon fill="midnightblue" stroke="midnightblue" points="1326.73,-128.32 1318.11,-134.48 1328.69,-135.04 1326.73,-128.32"/>
</g>
<!-- Node10 -->
<g id="node10" class="node">
<title>Node10</title>
<g id="a_node10"><a xlink:href="Z2AudioMgr_8cpp.html" target="_top" xlink:title=" ">
<polygon fill="white" stroke="black" points="2465,-6 2465,-25 2623,-25 2623,-6 2465,-6"/>
<text text-anchor="middle" x="2544" y="-13" font-family="Helvetica,sans-Serif" font-size="10.00">libs/Z2AudioLib/Z2AudioMgr.cpp</text>
</a>
</g>
</g>
<!-- Node7&#45;&gt;Node10 -->
<g id="edge9" class="edge">
<title>Node7&#45;&gt;Node10</title>
<path fill="none" stroke="midnightblue" d="M1347.94,-142.59C1537.99,-127.78 2040.24,-86.29 2457,-31 2469.75,-29.31 2483.5,-27.17 2496.22,-25.05"/>
<polygon fill="midnightblue" stroke="midnightblue" points="1347.47,-139.12 1337.77,-143.38 1348.01,-146.09 1347.47,-139.12"/>
</g>
<!-- Node11 -->
<g id="node11" class="node">
<title>Node11</title>
<g id="a_node11"><a xlink:href="m__Do__audio_8h.html" target="_top" xlink:title=" ">
<polygon fill="white" stroke="black" points="1130.5,-67.5 1130.5,-97.5 1263.5,-97.5 1263.5,-67.5 1130.5,-67.5"/>
<text text-anchor="start" x="1138.5" y="-85.5" font-family="Helvetica,sans-Serif" font-size="10.00">include/m_Do/m_Do_audio</text>
<text text-anchor="middle" x="1197" y="-74.5" font-family="Helvetica,sans-Serif" font-size="10.00">/m_Do_audio.h</text>
</a>
</g>
</g>
<!-- Node7&#45;&gt;Node11 -->
<g id="edge10" class="edge">
<title>Node7&#45;&gt;Node11</title>
<path fill="none" stroke="midnightblue" d="M1246.53,-127.6C1235.5,-117.78 1222.66,-106.34 1212.81,-97.58"/>
<polygon fill="midnightblue" stroke="midnightblue" points="1244.36,-130.36 1254.16,-134.4 1249.02,-125.13 1244.36,-130.36"/>
</g>
<!-- Node11&#45;&gt;Node6 -->
<g id="edge21" class="edge">
<title>Node11&#45;&gt;Node6</title>
<path fill="none" stroke="midnightblue" d="M1120.39,-67.08C687.06,-19.03 571.93,-79.53 143,-31 130.72,-29.61 117.45,-27.35 105.49,-25.02"/>
<polygon fill="midnightblue" stroke="midnightblue" points="1120.03,-70.56 1130.36,-68.19 1120.81,-63.6 1120.03,-70.56"/>
</g>
<!-- Node11&#45;&gt;Node10 -->
<g id="edge23" class="edge">
<title>Node11&#45;&gt;Node10</title>
<path fill="none" stroke="midnightblue" d="M1273.73,-67.07C1798.07,-10.41 1936.37,-82.07 2457,-31 2471.02,-29.62 2486.2,-27.37 2499.89,-25.03"/>
<polygon fill="midnightblue" stroke="midnightblue" points="1273.2,-63.6 1263.64,-68.17 1273.96,-70.56 1273.2,-63.6"/>
</g>
<!-- Node12 -->
<g id="node12" class="node">
<title>Node12</title>
<g id="a_node12"><a xlink:href="d__attention_8cpp.html" target="_top" xlink:title=" ">
<polygon fill="white" stroke="black" points="2340.5,-6 2340.5,-25 2447.5,-25 2447.5,-6 2340.5,-6"/>
<text text-anchor="middle" x="2394" y="-13" font-family="Helvetica,sans-Serif" font-size="10.00">src/d/d_attention.cpp</text>
</a>
</g>
</g>
<!-- Node11&#45;&gt;Node12 -->
<g id="edge11" class="edge">
<title>Node11&#45;&gt;Node12</title>
<path fill="none" stroke="midnightblue" d="M1273.73,-67.07C1742.8,-15.82 1868.46,-92.48 2332,-31 2342.19,-29.65 2353.16,-27.37 2363,-25.01"/>
<polygon fill="midnightblue" stroke="midnightblue" points="1273.19,-63.6 1263.64,-68.18 1273.96,-70.56 1273.19,-63.6"/>
</g>
<!-- Node13 -->
<g id="node13" class="node">
<title>Node13</title>
<g id="a_node13"><a xlink:href="d__camera_8cpp.html" target="_top" xlink:title=" ">
<polygon fill="white" stroke="black" points="152,-6 152,-25 254,-25 254,-6 152,-6"/>
<text text-anchor="middle" x="203" y="-13" font-family="Helvetica,sans-Serif" font-size="10.00">src/d/d_camera.cpp</text>
</a>
</g>
</g>
<!-- Node11&#45;&gt;Node13 -->
<g id="edge12" class="edge">
<title>Node11&#45;&gt;Node13</title>
<path fill="none" stroke="midnightblue" d="M1120.18,-67.05C740.07,-24.18 637.64,-83.61 263,-31 253.24,-29.63 242.74,-27.37 233.3,-25.04"/>
<polygon fill="midnightblue" stroke="midnightblue" points="1120.02,-70.55 1130.36,-68.21 1120.82,-63.6 1120.02,-70.55"/>
</g>
<!-- Node14 -->
<g id="node14" class="node">
<title>Node14</title>
<g id="a_node14"><a xlink:href="d__com__inf__game_8cpp.html" target="_top" xlink:title=" ">
<polygon fill="white" stroke="black" points="272.5,-0.5 272.5,-30.5 391.5,-30.5 391.5,-0.5 272.5,-0.5"/>
<text text-anchor="start" x="280.5" y="-18.5" font-family="Helvetica,sans-Serif" font-size="10.00">src/d/d_com/d_com_inf</text>
<text text-anchor="middle" x="332" y="-7.5" font-family="Helvetica,sans-Serif" font-size="10.00">_game.cpp</text>
</a>
</g>
</g>
<!-- Node11&#45;&gt;Node14 -->
<g id="edge13" class="edge">
<title>Node11&#45;&gt;Node14</title>
<path fill="none" stroke="midnightblue" d="M1120.34,-67.06C800.68,-29.73 714.87,-72.16 400,-31 397.25,-30.64 394.44,-30.23 391.61,-29.78"/>
<polygon fill="midnightblue" stroke="midnightblue" points="1120.01,-70.54 1130.35,-68.24 1120.83,-63.59 1120.01,-70.54"/>
</g>
<!-- Node15 -->
<g id="node15" class="node">
<title>Node15</title>
<g id="a_node15"><a xlink:href="d__kankyo__wether_8cpp.html" target="_top" xlink:title=" ">
<polygon fill="white" stroke="black" points="409.5,-0.5 409.5,-30.5 536.5,-30.5 536.5,-0.5 409.5,-0.5"/>
<text text-anchor="start" x="417.5" y="-18.5" font-family="Helvetica,sans-Serif" font-size="10.00">src/d/d_kankyo/d_kankyo</text>
<text text-anchor="middle" x="473" y="-7.5" font-family="Helvetica,sans-Serif" font-size="10.00">_wether.cpp</text>
</a>
</g>
</g>
<!-- Node11&#45;&gt;Node15 -->
<g id="edge14" class="edge">
<title>Node11&#45;&gt;Node15</title>
<path fill="none" stroke="midnightblue" d="M1120.39,-67.05C864.78,-35.64 796.09,-63.97 545,-31 542.22,-30.63 539.38,-30.23 536.52,-29.78"/>
<polygon fill="midnightblue" stroke="midnightblue" points="1119.99,-70.53 1130.35,-68.29 1120.86,-63.58 1119.99,-70.53"/>
</g>
<!-- Node16 -->
<g id="node16" class="node">
<title>Node16</title>
<g id="a_node16"><a xlink:href="d__kankyo_8cpp.html" target="_top" xlink:title=" ">
<polygon fill="white" stroke="black" points="554.5,-6 554.5,-25 655.5,-25 655.5,-6 554.5,-6"/>
<text text-anchor="middle" x="605" y="-13" font-family="Helvetica,sans-Serif" font-size="10.00">src/d/d_kankyo.cpp</text>
</a>
</g>
</g>
<!-- Node11&#45;&gt;Node16 -->
<g id="edge15" class="edge">
<title>Node11&#45;&gt;Node16</title>
<path fill="none" stroke="midnightblue" d="M1120.25,-67.02C917.3,-40.61 861.9,-62.9 664,-31 654.73,-29.51 644.78,-27.3 635.73,-25.05"/>
<polygon fill="midnightblue" stroke="midnightblue" points="1119.97,-70.51 1130.34,-68.35 1120.89,-63.57 1119.97,-70.51"/>
</g>
<!-- Node17 -->
<g id="node17" class="node">
<title>Node17</title>
<g id="a_node17"><a xlink:href="d__meter__button_8cpp.html" target="_top" xlink:title=" ">
<polygon fill="white" stroke="black" points="673.5,-0.5 673.5,-30.5 788.5,-30.5 788.5,-0.5 673.5,-0.5"/>
<text text-anchor="start" x="681.5" y="-18.5" font-family="Helvetica,sans-Serif" font-size="10.00">src/d/d_meter/d_meter</text>
<text text-anchor="middle" x="731" y="-7.5" font-family="Helvetica,sans-Serif" font-size="10.00">_button.cpp</text>
</a>
</g>
</g>
<!-- Node11&#45;&gt;Node17 -->
<g id="edge16" class="edge">
<title>Node11&#45;&gt;Node17</title>
<path fill="none" stroke="midnightblue" d="M1120.21,-66.97C975.98,-45.8 936.74,-54.05 797,-31 794.22,-30.54 791.38,-30.04 788.52,-29.51"/>
<polygon fill="midnightblue" stroke="midnightblue" points="1119.92,-70.46 1130.32,-68.47 1120.95,-63.54 1119.92,-70.46"/>
</g>
<!-- Node18 -->
<g id="node18" class="node">
<title>Node18</title>
<g id="a_node18"><a xlink:href="d__meter__map_8cpp.html" target="_top" xlink:title=" ">
<polygon fill="white" stroke="black" points="806.5,-0.5 806.5,-30.5 921.5,-30.5 921.5,-0.5 806.5,-0.5"/>
<text text-anchor="start" x="814.5" y="-18.5" font-family="Helvetica,sans-Serif" font-size="10.00">src/d/d_meter/d_meter</text>
<text text-anchor="middle" x="864" y="-7.5" font-family="Helvetica,sans-Serif" font-size="10.00">_map.cpp</text>
</a>
</g>
</g>
<!-- Node11&#45;&gt;Node18 -->
<g id="edge17" class="edge">
<title>Node11&#45;&gt;Node18</title>
<path fill="none" stroke="midnightblue" d="M1120.35,-66.88C1034.49,-50.7 1011.58,-47.65 930,-31 927.24,-30.44 924.42,-29.85 921.57,-29.25"/>
<polygon fill="midnightblue" stroke="midnightblue" points="1119.8,-70.34 1130.27,-68.76 1121.1,-63.46 1119.8,-70.34"/>
</g>
<!-- Node19 -->
<g id="node19" class="node">
<title>Node19</title>
<g id="a_node19"><a xlink:href="d__meter2__draw_8cpp.html" target="_top" xlink:title=" ">
<polygon fill="white" stroke="black" points="939.5,-0.5 939.5,-30.5 1064.5,-30.5 1064.5,-0.5 939.5,-0.5"/>
<text text-anchor="start" x="947.5" y="-18.5" font-family="Helvetica,sans-Serif" font-size="10.00">src/d/d_meter2/d_meter2</text>
<text text-anchor="middle" x="1002" y="-7.5" font-family="Helvetica,sans-Serif" font-size="10.00">_draw.cpp</text>
</a>
</g>
</g>
<!-- Node11&#45;&gt;Node19 -->
<g id="edge18" class="edge">
<title>Node11&#45;&gt;Node19</title>
<path fill="none" stroke="midnightblue" d="M1145.18,-64.23C1113.64,-53.71 1073.85,-40.45 1044.23,-30.58"/>
<polygon fill="midnightblue" stroke="midnightblue" points="1144.09,-67.55 1154.69,-67.4 1146.31,-60.91 1144.09,-67.55"/>
</g>
<!-- Node20 -->
<g id="node20" class="node">
<title>Node20</title>
<g id="a_node20"><a xlink:href="d__meter2_8cpp.html" target="_top" xlink:title=" ">
<polygon fill="white" stroke="black" points="1083,-6 1083,-25 1183,-25 1183,-6 1083,-6"/>
<text text-anchor="middle" x="1133" y="-13" font-family="Helvetica,sans-Serif" font-size="10.00">src/d/d_meter2.cpp</text>
</a>
</g>
</g>
<!-- Node11&#45;&gt;Node20 -->
<g id="edge19" class="edge">
<title>Node11&#45;&gt;Node20</title>
<path fill="none" stroke="midnightblue" d="M1175.83,-60C1164.15,-48.13 1150.28,-34.05 1141.56,-25.19"/>
<polygon fill="midnightblue" stroke="midnightblue" points="1173.6,-62.73 1183.11,-67.4 1178.59,-57.81 1173.6,-62.73"/>
</g>
<!-- Node21 -->
<g id="node21" class="node">
<title>Node21</title>
<g id="a_node21"><a xlink:href="d__a__alink_8cpp.html" target="_top" xlink:title=" ">
<polygon fill="white" stroke="black" points="1201.5,-6 1201.5,-25 1320.5,-25 1320.5,-6 1201.5,-6"/>
<text text-anchor="middle" x="1261" y="-13" font-family="Helvetica,sans-Serif" font-size="10.00">src/d/d_a/d_a_alink.cpp</text>
</a>
</g>
</g>
<!-- Node11&#45;&gt;Node21 -->
<g id="edge20" class="edge">
<title>Node11&#45;&gt;Node21</title>
<path fill="none" stroke="midnightblue" d="M1218.17,-60C1229.85,-48.13 1243.72,-34.05 1252.44,-25.19"/>
<polygon fill="midnightblue" stroke="midnightblue" points="1215.41,-57.81 1210.89,-67.4 1220.4,-62.73 1215.41,-57.81"/>
</g>
<!-- Node22 -->
<g id="node22" class="node">
<title>Node22</title>
<g id="a_node22"><a xlink:href="m__Do__main_8cpp.html" target="_top" xlink:title=" ">
<polygon fill="white" stroke="black" points="1338.5,-6 1338.5,-25 1469.5,-25 1469.5,-6 1338.5,-6"/>
<text text-anchor="middle" x="1404" y="-13" font-family="Helvetica,sans-Serif" font-size="10.00">src/m_Do/m_Do_main.cpp</text>
</a>
</g>
</g>
<!-- Node11&#45;&gt;Node22 -->
<g id="edge22" class="edge">
<title>Node11&#45;&gt;Node22</title>
<path fill="none" stroke="midnightblue" d="M1251.36,-64.43C1291.73,-51.75 1345.08,-35 1376.84,-25.03"/>
<polygon fill="midnightblue" stroke="midnightblue" points="1250.15,-61.14 1241.66,-67.48 1252.25,-67.82 1250.15,-61.14"/>
</g>
<!-- Node23 -->
<g id="node23" class="node">
<title>Node23</title>
<g id="a_node23"><a xlink:href="Z2Creature_8cpp.html" target="_top" xlink:title=" ">
<polygon fill="white" stroke="black" points="1487.5,-6 1487.5,-25 1640.5,-25 1640.5,-6 1487.5,-6"/>
<text text-anchor="middle" x="1564" y="-13" font-family="Helvetica,sans-Serif" font-size="10.00">libs/Z2AudioLib/Z2Creature.cpp</text>
</a>
</g>
</g>
<!-- Node11&#45;&gt;Node23 -->
<g id="edge24" class="edge">
<title>Node11&#45;&gt;Node23</title>
<path fill="none" stroke="midnightblue" d="M1273.67,-66.9C1332.43,-56.31 1447.81,-36.44 1514.29,-25.02"/>
<polygon fill="midnightblue" stroke="midnightblue" points="1272.93,-63.48 1263.72,-68.71 1274.18,-70.37 1272.93,-63.48"/>
</g>
<!-- Node24 -->
<g id="node24" class="node">
<title>Node24</title>
<g id="a_node24"><a xlink:href="Z2SeMgr_8cpp.html" target="_top" xlink:title=" ">
<polygon fill="white" stroke="black" points="1658.5,-6 1658.5,-25 1803.5,-25 1803.5,-6 1658.5,-6"/>
<text text-anchor="middle" x="1731" y="-13" font-family="Helvetica,sans-Serif" font-size="10.00">libs/Z2AudioLib/Z2SeMgr.cpp</text>
</a>
</g>
</g>
<!-- Node11&#45;&gt;Node24 -->
<g id="edge25" class="edge">
<title>Node11&#45;&gt;Node24</title>
<path fill="none" stroke="midnightblue" d="M1273.58,-67.01C1441.33,-43.6 1486.42,-53.41 1650,-31 1662.03,-29.35 1675,-27.2 1686.96,-25.06"/>
<polygon fill="midnightblue" stroke="midnightblue" points="1273.08,-63.55 1263.67,-68.42 1274.06,-70.48 1273.08,-63.55"/>
</g>
<!-- Node25 -->
<g id="node25" class="node">
<title>Node25</title>
<g id="a_node25"><a xlink:href="Z2SoundMgr_8cpp.html" target="_top" xlink:title=" ">
<polygon fill="white" stroke="black" points="1821.5,-6 1821.5,-25 1982.5,-25 1982.5,-6 1821.5,-6"/>
<text text-anchor="middle" x="1902" y="-13" font-family="Helvetica,sans-Serif" font-size="10.00">libs/Z2AudioLib/Z2SoundMgr.cpp</text>
</a>
</g>
</g>
<!-- Node11&#45;&gt;Node25 -->
<g id="edge26" class="edge">
<title>Node11&#45;&gt;Node25</title>
<path fill="none" stroke="midnightblue" d="M1273.72,-67.03C1513.32,-37 1577.3,-58 1813,-31 1826.69,-29.43 1841.48,-27.23 1855,-25.01"/>
<polygon fill="midnightblue" stroke="midnightblue" points="1273.13,-63.57 1263.65,-68.31 1274.02,-70.52 1273.13,-63.57"/>
</g>
<!-- Node26 -->
<g id="node26" class="node">
<title>Node26</title>
<g id="a_node26"><a xlink:href="Z2SoundStarter_8cpp.html" target="_top" xlink:title=" ">
<polygon fill="white" stroke="black" points="2000.5,-6 2000.5,-25 2173.5,-25 2173.5,-6 2000.5,-6"/>
<text text-anchor="middle" x="2087" y="-13" font-family="Helvetica,sans-Serif" font-size="10.00">libs/Z2AudioLib/Z2SoundStarter.cpp</text>
</a>
</g>
</g>
<!-- Node11&#45;&gt;Node26 -->
<g id="edge27" class="edge">
<title>Node11&#45;&gt;Node26</title>
<path fill="none" stroke="midnightblue" d="M1273.63,-67.06C1592.41,-29.62 1676.93,-62.85 1992,-31 2006.77,-29.51 2022.76,-27.3 2037.32,-25.05"/>
<polygon fill="midnightblue" stroke="midnightblue" points="1273.16,-63.59 1263.65,-68.24 1273.99,-70.54 1273.16,-63.59"/>
</g>
<!-- Node27 -->
<g id="node27" class="node">
<title>Node27</title>
<g id="a_node27"><a xlink:href="Z2SpeechMgr2_8cpp.html" target="_top" xlink:title=" ">
<polygon fill="white" stroke="black" points="2191.5,-0.5 2191.5,-30.5 2322.5,-30.5 2322.5,-0.5 2191.5,-0.5"/>
<text text-anchor="start" x="2199.5" y="-18.5" font-family="Helvetica,sans-Serif" font-size="10.00">libs/Z2AudioLib/Z2Speech</text>
<text text-anchor="middle" x="2257" y="-7.5" font-family="Helvetica,sans-Serif" font-size="10.00">Mgr2.cpp</text>
</a>
</g>
</g>
<!-- Node11&#45;&gt;Node27 -->
<g id="edge28" class="edge">
<title>Node11&#45;&gt;Node27</title>
<path fill="none" stroke="midnightblue" d="M1273.83,-67.05C1676.91,-21.89 1784.32,-77.66 2183,-31 2185.73,-30.68 2188.51,-30.32 2191.32,-29.92"/>
<polygon fill="midnightblue" stroke="midnightblue" points="1273.18,-63.6 1263.64,-68.2 1273.97,-70.55 1273.18,-63.6"/>
</g>
</g>
</svg>
        <g id="navigator" transform="translate(0 0)" fill="#404254">
                <rect fill="#f2f5e9" fill-opacity="0.5" stroke="#606060" stroke-width=".5" x="0" y="0" width="60" height="60"/>
                <use id="zoomplus" xlink:href="#zoomPlus" x="17" y="9" onmousedown="handleZoom(evt,'in')"/>
                <use id="zoomminus" xlink:href="#zoomMin" x="42" y="9" onmousedown="handleZoom(evt,'out')"/>
                <use id="reset" xlink:href="#resetDef" x="30" y="36" onmousedown="handleReset()"/>
                <g id="arrowUp" xlink:href="#dirArrow" transform="translate(30 24)" onmousedown="handlePan(0,-1)">
                  <use xlink:href="#rim" fill="#404040">
                        <set attributeName="fill" to="#808080" begin="arrowUp.mouseover" end="arrowUp.mouseout"/>
                  </use>
                  <path fill="none" stroke="white" stroke-width="1.5" d="M0,-3.0v7 M-2.5,-0.5L0,-3.0L2.5,-0.5"/>
                </g>
                <g id="arrowRight" xlink:href="#dirArrow" transform="rotate(90) translate(36 -43)" onmousedown="handlePan(1,0)">
                  <use xlink:href="#rim" fill="#404040">
                        <set attributeName="fill" to="#808080" begin="arrowRight.mouseover" end="arrowRight.mouseout"/>
                  </use>
                  <path fill="none" stroke="white" stroke-width="1.5" d="M0,-3.0v7 M-2.5,-0.5L0,-3.0L2.5,-0.5"/>
                </g>
                <g id="arrowDown" xlink:href="#dirArrow" transform="rotate(180) translate(-30 -48)" onmousedown="handlePan(0,1)">
                  <use xlink:href="#rim" fill="#404040">
                        <set attributeName="fill" to="#808080" begin="arrowDown.mouseover" end="arrowDown.mouseout"/>
                  </use>
                  <path fill="none" stroke="white" stroke-width="1.5" d="M0,-3.0v7 M-2.5,-0.5L0,-3.0L2.5,-0.5"/>
                </g>
                <g id="arrowLeft" xlink:href="#dirArrow" transform="rotate(270) translate(-36 17)" onmousedown="handlePan(-1,0)">
                  <use xlink:href="#rim" fill="#404040">
                        <set attributeName="fill" to="#808080" begin="arrowLeft.mouseover" end="arrowLeft.mouseout"/>
                  </use>
                  <path fill="none" stroke="white" stroke-width="1.5" d="M0,-3.0v7 M-2.5,-0.5L0,-3.0L2.5,-0.5"/>
                </g>
        </g>
        <svg viewBox="0 0 15 15" width="100%" height="30px" preserveAspectRatio="xMaxYMin meet">
         <g id="arrow_out" transform="scale(0.3 0.3)">
          <a xlink:href="Z2SceneMgr_8h__dep__incl_org.svg" target="_base">
           <rect id="button" ry="5" rx="5" y="6" x="6" height="38" width="38"
                fill="#f2f5e9" fill-opacity="0.5" stroke="#606060" stroke-width="1.0"/>
           <path id="arrow"
             d="M 11.500037,31.436501 C 11.940474,20.09759 22.043105,11.32322 32.158766,21.979434 L 37.068811,17.246167 C 37.068811,17.246167 37.088388,32 37.088388,32 L 22.160133,31.978069 C 22.160133,31.978069 26.997745,27.140456 26.997745,27.140456 C 18.528582,18.264221 13.291696,25.230495 11.500037,31.436501 z"
             style="fill:#404040;"/>
          </a>
         </g>
        </svg>
</svg>
