<?xml version="1.0" encoding="UTF-8" standalone="no"?>
<!DOCTYPE svg PUBLIC "-//W3C//DTD SVG 1.1//EN"
 "http://www.w3.org/Graphics/SVG/1.1/DTD/svg11.dtd">
<!-- Generated by graphviz version 2.46.0 (20210122.1329)
 -->
<!-- Title: include/Z2AudioLib/Z2SeqMgr/Z2SeqMgr.h Pages: 1 -->
<!--zoomable 363 -->
<svg id="main" version="1.1" xmlns="http://www.w3.org/2000/svg" xmlns:xlink="http://www.w3.org/1999/xlink" xml:space="preserve" onload="init(evt)">
<style type="text/css"><![CDATA[
.edge:hover path { stroke: red; }
.edge:hover polygon { stroke: red; fill: red; }
]]></style>
<script type="text/javascript"><![CDATA[
var edges = document.getElementsByTagName('g');
if (edges && edges.length) {
  for (var i=0;i<edges.length;i++) {
    if (edges[i].id.substr(0,4)=='edge') {
      edges[i].setAttribute('class','edge');
    }
  }
}
]]></script>
        <defs>
                <circle id="rim" cx="0" cy="0" r="7"/>
                <circle id="rim2" cx="0" cy="0" r="3.5"/>
                <g id="zoomPlus">
                        <use xlink:href="#rim" fill="#404040">
                                <set attributeName="fill" to="#808080" begin="zoomplus.mouseover" end="zoomplus.mouseout"/>
                        </use>
                        <path d="M-4,0h8M0,-4v8" fill="none" stroke="white" stroke-width="1.5" pointer-events="none"/>
                </g>
                <g id="zoomMin">
                        <use xlink:href="#rim" fill="#404040">
                                <set attributeName="fill" to="#808080" begin="zoomminus.mouseover" end="zoomminus.mouseout"/>
                        </use>
                        <path d="M-4,0h8" fill="none" stroke="white" stroke-width="1.5" pointer-events="none"/>
                </g>
                <g id="dirArrow">
                        <path fill="none" stroke="white" stroke-width="1.5" d="M0,-3.0v7 M-2.5,-0.5L0,-3.0L2.5,-0.5"/>
                </g>
               <g id="resetDef">
                       <use xlink:href="#rim2" fill="#404040">
                               <set attributeName="fill" to="#808080" begin="reset.mouseover" end="reset.mouseout"/>
                       </use>
               </g>
        </defs>

<script type="text/javascript">
var viewWidth = 3792;
var viewHeight = 363;
var sectionId = 'dynsection-1';
</script>
<script xlink:href="svgpan.js"/>
<svg id="graph" class="graph">
<g id="viewport">
<title>include/Z2AudioLib/Z2SeqMgr/Z2SeqMgr.h</title>
<polygon fill="white" stroke="transparent" points="-4,4 -4,-359 3788,-359 3788,4 -4,4"/>
<!-- Node1 -->
<g id="node1" class="node">
<title>Node1</title>
<g id="a_node1"><a xlink:title=" ">
<polygon fill="#bfbfbf" stroke="black" points="2468.5,-324.5 2468.5,-354.5 2588.5,-354.5 2588.5,-324.5 2468.5,-324.5"/>
<text text-anchor="start" x="2476.5" y="-342.5" font-family="Helvetica,sans-Serif" font-size="10.00">include/Z2AudioLib</text>
<text text-anchor="middle" x="2528.5" y="-331.5" font-family="Helvetica,sans-Serif" font-size="10.00">/Z2SeqMgr/Z2SeqMgr.h</text>
</a>
</g>
</g>
<!-- Node2 -->
<g id="node2" class="node">
<title>Node2</title>
<g id="a_node2"><a xlink:href="d__com__inf__game_8cpp.html" target="_top" xlink:title=" ">
<polygon fill="white" stroke="black" points="0,-56.5 0,-86.5 119,-86.5 119,-56.5 0,-56.5"/>
<text text-anchor="start" x="8" y="-74.5" font-family="Helvetica,sans-Serif" font-size="10.00">src/d/d_com/d_com_inf</text>
<text text-anchor="middle" x="59.5" y="-63.5" font-family="Helvetica,sans-Serif" font-size="10.00">_game.cpp</text>
</a>
</g>
</g>
<!-- Node1&#45;&gt;Node2 -->
<g id="edge1" class="edge">
<title>Node1&#45;&gt;Node2</title>
<path fill="none" stroke="midnightblue" d="M2458.36,-334.49C2325.17,-326.73 2026.54,-308.58 1775.5,-288 1225.24,-242.88 1087.08,-231.96 540.5,-154 356.41,-127.74 310.27,-121.29 127.5,-87 124.77,-86.49 121.98,-85.95 119.17,-85.4"/>
<polygon fill="midnightblue" stroke="midnightblue" points="2458.24,-337.99 2468.43,-335.08 2458.65,-331 2458.24,-337.99"/>
</g>
<!-- Node3 -->
<g id="node3" class="node">
<title>Node3</title>
<g id="a_node3"><a xlink:href="d__a__alink_8cpp.html" target="_top" xlink:title=" ">
<polygon fill="white" stroke="black" points="2510,-62 2510,-81 2629,-81 2629,-62 2510,-62"/>
<text text-anchor="middle" x="2569.5" y="-69" font-family="Helvetica,sans-Serif" font-size="10.00">src/d/d_a/d_a_alink.cpp</text>
</a>
</g>
</g>
<!-- Node1&#45;&gt;Node3 -->
<g id="edge2" class="edge">
<title>Node1&#45;&gt;Node3</title>
<path fill="none" stroke="midnightblue" d="M2574.06,-320.14C2591.05,-311.92 2609.77,-301.09 2624.5,-288 2651.5,-264 2659.8,-255.5 2670.5,-221 2689.25,-160.55 2614.76,-102.59 2583.11,-81.19"/>
<polygon fill="midnightblue" stroke="midnightblue" points="2572.41,-317.05 2564.83,-324.44 2575.37,-323.39 2572.41,-317.05"/>
</g>
<!-- Node4 -->
<g id="node4" class="node">
<title>Node4</title>
<g id="a_node4"><a xlink:href="Z2Creature_8cpp.html" target="_top" xlink:title=" ">
<polygon fill="white" stroke="black" points="2826,-62 2826,-81 2979,-81 2979,-62 2826,-62"/>
<text text-anchor="middle" x="2902.5" y="-69" font-family="Helvetica,sans-Serif" font-size="10.00">libs/Z2AudioLib/Z2Creature.cpp</text>
</a>
</g>
</g>
<!-- Node1&#45;&gt;Node4 -->
<g id="edge3" class="edge">
<title>Node1&#45;&gt;Node4</title>
<path fill="none" stroke="midnightblue" d="M2598.7,-321.85C2624.88,-313.88 2654.13,-302.79 2678.5,-288 2779.07,-226.97 2870.79,-113.61 2895.81,-81.3"/>
<polygon fill="midnightblue" stroke="midnightblue" points="2597.44,-318.57 2588.84,-324.75 2599.42,-325.29 2597.44,-318.57"/>
</g>
<!-- Node5 -->
<g id="node5" class="node">
<title>Node5</title>
<g id="a_node5"><a xlink:href="Z2SoundMgr_8cpp.html" target="_top" xlink:title=" ">
<polygon fill="white" stroke="black" points="2647,-62 2647,-81 2808,-81 2808,-62 2647,-62"/>
<text text-anchor="middle" x="2727.5" y="-69" font-family="Helvetica,sans-Serif" font-size="10.00">libs/Z2AudioLib/Z2SoundMgr.cpp</text>
</a>
</g>
</g>
<!-- Node1&#45;&gt;Node5 -->
<g id="edge4" class="edge">
<title>Node1&#45;&gt;Node5</title>
<path fill="none" stroke="midnightblue" d="M2597.67,-320.92C2617.47,-313.31 2637.89,-302.67 2653.5,-288 2716.33,-228.93 2725.81,-114.19 2727.25,-81.43"/>
<polygon fill="midnightblue" stroke="midnightblue" points="2596.23,-317.72 2588.02,-324.42 2598.61,-324.3 2596.23,-317.72"/>
</g>
<!-- Node6 -->
<g id="node6" class="node">
<title>Node6</title>
<g id="a_node6"><a xlink:href="Z2SeqMgr_8cpp.html" target="_top" xlink:title=" ">
<polygon fill="white" stroke="black" points="2511.5,-196 2511.5,-215 2661.5,-215 2661.5,-196 2511.5,-196"/>
<text text-anchor="middle" x="2586.5" y="-203" font-family="Helvetica,sans-Serif" font-size="10.00">libs/Z2AudioLib/Z2SeqMgr.cpp</text>
</a>
</g>
</g>
<!-- Node1&#45;&gt;Node6 -->
<g id="edge5" class="edge">
<title>Node1&#45;&gt;Node6</title>
<path fill="none" stroke="midnightblue" d="M2575.34,-319.53C2588.43,-311.8 2601.09,-301.44 2608.5,-288 2621.94,-263.61 2603.31,-230.53 2592.81,-215.1"/>
<polygon fill="midnightblue" stroke="midnightblue" points="2573.38,-316.61 2566.27,-324.47 2576.73,-322.76 2573.38,-316.61"/>
</g>
<!-- Node7 -->
<g id="node7" class="node">
<title>Node7</title>
<g id="a_node7"><a xlink:href="Z2SoundObjMgr_8cpp.html" target="_top" xlink:title=" ">
<polygon fill="white" stroke="black" points="2458,-257.5 2458,-287.5 2599,-287.5 2599,-257.5 2458,-257.5"/>
<text text-anchor="start" x="2466" y="-275.5" font-family="Helvetica,sans-Serif" font-size="10.00">libs/Z2AudioLib/Z2SoundObj</text>
<text text-anchor="middle" x="2528.5" y="-264.5" font-family="Helvetica,sans-Serif" font-size="10.00">Mgr.cpp</text>
</a>
</g>
</g>
<!-- Node1&#45;&gt;Node7 -->
<g id="edge6" class="edge">
<title>Node1&#45;&gt;Node7</title>
<path fill="none" stroke="midnightblue" d="M2528.5,-314.11C2528.5,-305.15 2528.5,-295.32 2528.5,-287.58"/>
<polygon fill="midnightblue" stroke="midnightblue" points="2525,-314.4 2528.5,-324.4 2532,-314.4 2525,-314.4"/>
</g>
<!-- Node8 -->
<g id="node8" class="node">
<title>Node8</title>
<g id="a_node8"><a xlink:href="Z2StatusMgr_8cpp.html" target="_top" xlink:title=" ">
<polygon fill="white" stroke="black" points="3657,-56.5 3657,-86.5 3784,-86.5 3784,-56.5 3657,-56.5"/>
<text text-anchor="start" x="3665" y="-74.5" font-family="Helvetica,sans-Serif" font-size="10.00">libs/Z2AudioLib/Z2Status</text>
<text text-anchor="middle" x="3720.5" y="-63.5" font-family="Helvetica,sans-Serif" font-size="10.00">Mgr.cpp</text>
</a>
</g>
</g>
<!-- Node1&#45;&gt;Node8 -->
<g id="edge7" class="edge">
<title>Node1&#45;&gt;Node8</title>
<path fill="none" stroke="midnightblue" d="M2598.7,-322.84C2812.58,-275.11 3453.93,-131.99 3657.66,-86.52"/>
<polygon fill="midnightblue" stroke="midnightblue" points="2597.84,-319.44 2588.84,-325.04 2599.36,-326.27 2597.84,-319.44"/>
</g>
<!-- Node9 -->
<g id="node9" class="node">
<title>Node9</title>
<g id="a_node9"><a xlink:href="Z2SpeechMgr2_8cpp.html" target="_top" xlink:title=" ">
<polygon fill="white" stroke="black" points="137,-56.5 137,-86.5 268,-86.5 268,-56.5 137,-56.5"/>
<text text-anchor="start" x="145" y="-74.5" font-family="Helvetica,sans-Serif" font-size="10.00">libs/Z2AudioLib/Z2Speech</text>
<text text-anchor="middle" x="202.5" y="-63.5" font-family="Helvetica,sans-Serif" font-size="10.00">Mgr2.cpp</text>
</a>
</g>
</g>
<!-- Node1&#45;&gt;Node9 -->
<g id="edge8" class="edge">
<title>Node1&#45;&gt;Node9</title>
<path fill="none" stroke="midnightblue" d="M2458.26,-330.82C2368.2,-320.96 2207.21,-303.3 2069.5,-288 1272.96,-199.51 1069.78,-207.83 277.5,-87 274.48,-86.54 271.41,-86.05 268.3,-85.53"/>
<polygon fill="midnightblue" stroke="midnightblue" points="2458.03,-334.31 2468.35,-331.92 2458.79,-327.36 2458.03,-334.31"/>
</g>
<!-- Node10 -->
<g id="node10" class="node">
<title>Node10</title>
<g id="a_node10"><a xlink:href="Z2WolfHowlMgr_8cpp.html" target="_top" xlink:title=" ">
<polygon fill="white" stroke="black" points="972.5,-56.5 972.5,-86.5 1112.5,-86.5 1112.5,-56.5 972.5,-56.5"/>
<text text-anchor="start" x="980.5" y="-74.5" font-family="Helvetica,sans-Serif" font-size="10.00">libs/Z2AudioLib/Z2WolfHowl</text>
<text text-anchor="middle" x="1042.5" y="-63.5" font-family="Helvetica,sans-Serif" font-size="10.00">Mgr.cpp</text>
</a>
</g>
</g>
<!-- Node1&#45;&gt;Node10 -->
<g id="edge9" class="edge">
<title>Node1&#45;&gt;Node10</title>
<path fill="none" stroke="midnightblue" d="M2458.12,-326.19C2400.02,-316.01 2315.39,-301.14 2241.5,-288 1744.01,-199.55 1619.76,-176.72 1122.5,-87 1119.31,-86.42 1116.04,-85.83 1112.74,-85.24"/>
<polygon fill="midnightblue" stroke="midnightblue" points="2457.84,-329.69 2468.3,-327.97 2459.05,-322.8 2457.84,-329.69"/>
</g>
<!-- Node11 -->
<g id="node11" class="node">
<title>Node11</title>
<g id="a_node11"><a xlink:href="Z2SceneMgr_8h.html" target="_top" xlink:title=" ">
<polygon fill="white" stroke="black" points="2299,-257.5 2299,-287.5 2440,-287.5 2440,-257.5 2299,-257.5"/>
<text text-anchor="start" x="2307" y="-275.5" font-family="Helvetica,sans-Serif" font-size="10.00">include/Z2AudioLib</text>
<text text-anchor="middle" x="2369.5" y="-264.5" font-family="Helvetica,sans-Serif" font-size="10.00">/Z2SceneMgr/Z2SceneMgr.h</text>
</a>
</g>
</g>
<!-- Node1&#45;&gt;Node11 -->
<g id="edge10" class="edge">
<title>Node1&#45;&gt;Node11</title>
<path fill="none" stroke="midnightblue" d="M2484.58,-320.54C2459.13,-310.14 2427.57,-297.24 2403.93,-287.58"/>
<polygon fill="midnightblue" stroke="midnightblue" points="2483.42,-323.85 2494,-324.4 2486.07,-317.37 2483.42,-323.85"/>
</g>
<!-- Node32 -->
<g id="node32" class="node">
<title>Node32</title>
<g id="a_node32"><a xlink:href="Z2SeMgr_8h.html" target="_top" xlink:title=" ">
<polygon fill="white" stroke="black" points="2081.5,-123.5 2081.5,-153.5 2191.5,-153.5 2191.5,-123.5 2081.5,-123.5"/>
<text text-anchor="start" x="2089.5" y="-141.5" font-family="Helvetica,sans-Serif" font-size="10.00">include/Z2AudioLib</text>
<text text-anchor="middle" x="2136.5" y="-130.5" font-family="Helvetica,sans-Serif" font-size="10.00">/Z2SeMgr/Z2SeMgr.h</text>
</a>
</g>
</g>
<!-- Node1&#45;&gt;Node32 -->
<g id="edge41" class="edge">
<title>Node1&#45;&gt;Node32</title>
<path fill="none" stroke="midnightblue" d="M2458.46,-333.89C2409.1,-328.25 2342.76,-315.75 2290.5,-288 2225.55,-253.51 2168.95,-183.54 2146.63,-153.6"/>
<polygon fill="midnightblue" stroke="midnightblue" points="2458.09,-337.37 2468.41,-334.95 2458.84,-330.41 2458.09,-337.37"/>
</g>
<!-- Node11&#45;&gt;Node6 -->
<g id="edge12" class="edge">
<title>Node11&#45;&gt;Node6</title>
<path fill="none" stroke="midnightblue" d="M2425.95,-254.59C2468.33,-241.9 2524.6,-225.04 2558.03,-215.03"/>
<polygon fill="midnightblue" stroke="midnightblue" points="2424.89,-251.25 2416.32,-257.48 2426.9,-257.96 2424.89,-251.25"/>
</g>
<!-- Node11&#45;&gt;Node8 -->
<g id="edge13" class="edge">
<title>Node11&#45;&gt;Node8</title>
<path fill="none" stroke="midnightblue" d="M2450.38,-256.89C2982.15,-171.32 3120.7,-176.63 3647.5,-87 3650.56,-86.48 3653.68,-85.93 3656.84,-85.36"/>
<polygon fill="midnightblue" stroke="midnightblue" points="2449.46,-253.5 2440.15,-258.54 2450.57,-260.41 2449.46,-253.5"/>
</g>
<!-- Node12 -->
<g id="node12" class="node">
<title>Node12</title>
<g id="a_node12"><a xlink:href="Z2SceneMgr_8cpp.html" target="_top" xlink:title=" ">
<polygon fill="white" stroke="black" points="1131,-62 1131,-81 1292,-81 1292,-62 1131,-62"/>
<text text-anchor="middle" x="1211.5" y="-69" font-family="Helvetica,sans-Serif" font-size="10.00">libs/Z2AudioLib/Z2SceneMgr.cpp</text>
</a>
</g>
</g>
<!-- Node11&#45;&gt;Node12 -->
<g id="edge11" class="edge">
<title>Node11&#45;&gt;Node12</title>
<path fill="none" stroke="midnightblue" d="M2288.51,-257.74C2159.88,-235.86 1900.96,-191.77 1681.5,-154 1527.86,-127.56 1346.03,-95.93 1260.55,-81.05"/>
<polygon fill="midnightblue" stroke="midnightblue" points="2288.23,-261.24 2298.67,-259.47 2289.4,-254.34 2288.23,-261.24"/>
</g>
<!-- Node13 -->
<g id="node13" class="node">
<title>Node13</title>
<g id="a_node13"><a xlink:href="Z2AudioLib_8h.html" target="_top" xlink:title=" ">
<polygon fill="white" stroke="black" points="3538.5,-56.5 3538.5,-86.5 3638.5,-86.5 3638.5,-56.5 3538.5,-56.5"/>
<text text-anchor="start" x="3546.5" y="-74.5" font-family="Helvetica,sans-Serif" font-size="10.00">include/Z2AudioLib</text>
<text text-anchor="middle" x="3588.5" y="-63.5" font-family="Helvetica,sans-Serif" font-size="10.00">/Z2AudioLib.h</text>
</a>
</g>
</g>
<!-- Node11&#45;&gt;Node13 -->
<g id="edge14" class="edge">
<title>Node11&#45;&gt;Node13</title>
<path fill="none" stroke="midnightblue" d="M2399.83,-251.92C2435.57,-229.01 2491.5,-193.71 2502.5,-190 2937.24,-43.58 3077.42,-164.82 3529.5,-87 3532.41,-86.5 3535.39,-85.93 3538.39,-85.33"/>
<polygon fill="midnightblue" stroke="midnightblue" points="2397.74,-249.1 2391.22,-257.45 2401.52,-254.99 2397.74,-249.1"/>
</g>
<!-- Node15 -->
<g id="node15" class="node">
<title>Node15</title>
<g id="a_node15"><a xlink:href="Z2AudioMgr_8h.html" target="_top" xlink:title=" ">
<polygon fill="white" stroke="black" points="2301,-190.5 2301,-220.5 2436,-220.5 2436,-190.5 2301,-190.5"/>
<text text-anchor="start" x="2309" y="-208.5" font-family="Helvetica,sans-Serif" font-size="10.00">include/Z2AudioLib</text>
<text text-anchor="middle" x="2368.5" y="-197.5" font-family="Helvetica,sans-Serif" font-size="10.00">/Z2AudioMgr/Z2AudioMgr.h</text>
</a>
</g>
</g>
<!-- Node11&#45;&gt;Node15 -->
<g id="edge16" class="edge">
<title>Node11&#45;&gt;Node15</title>
<path fill="none" stroke="midnightblue" d="M2369.12,-247.11C2368.99,-238.15 2368.84,-228.32 2368.72,-220.58"/>
<polygon fill="midnightblue" stroke="midnightblue" points="2365.63,-247.45 2369.28,-257.4 2372.63,-247.34 2365.63,-247.45"/>
</g>
<!-- Node14 -->
<g id="node14" class="node">
<title>Node14</title>
<g id="a_node14"><a xlink:href="m__Do__audio_8cpp.html" target="_top" xlink:title=" ">
<polygon fill="white" stroke="black" points="2199.5,-0.5 2199.5,-19.5 2333.5,-19.5 2333.5,-0.5 2199.5,-0.5"/>
<text text-anchor="middle" x="2266.5" y="-7.5" font-family="Helvetica,sans-Serif" font-size="10.00">src/m_Do/m_Do_audio.cpp</text>
</a>
</g>
</g>
<!-- Node13&#45;&gt;Node14 -->
<g id="edge15" class="edge">
<title>Node13&#45;&gt;Node14</title>
<path fill="none" stroke="midnightblue" d="M3528.18,-56.07C3275.34,-23.15 2557.32,-13.77 2333.75,-11.58"/>
<polygon fill="midnightblue" stroke="midnightblue" points="3528.05,-59.58 3538.42,-57.45 3528.98,-52.65 3528.05,-59.58"/>
</g>
<!-- Node15&#45;&gt;Node13 -->
<g id="edge40" class="edge">
<title>Node15&#45;&gt;Node13</title>
<path fill="none" stroke="midnightblue" d="M2422.41,-187.04C2446.34,-178.42 2474.47,-167.05 2498.5,-154 2519.2,-142.75 2519.22,-130.65 2541.5,-123 2749.31,-51.7 3311.91,-117.38 3529.5,-87 3532.43,-86.59 3535.42,-86.1 3538.42,-85.55"/>
<polygon fill="midnightblue" stroke="midnightblue" points="2421.03,-183.81 2412.77,-190.45 2423.37,-190.41 2421.03,-183.81"/>
</g>
<!-- Node16 -->
<g id="node16" class="node">
<title>Node16</title>
<g id="a_node16"><a xlink:href="d__save_8cpp.html" target="_top" xlink:title=" ">
<polygon fill="white" stroke="black" points="2210,-129 2210,-148 2335,-148 2335,-129 2210,-129"/>
<text text-anchor="middle" x="2272.5" y="-136" font-family="Helvetica,sans-Serif" font-size="10.00">src/d/d_save/d_save.cpp</text>
</a>
</g>
</g>
<!-- Node15&#45;&gt;Node16 -->
<g id="edge17" class="edge">
<title>Node15&#45;&gt;Node16</title>
<path fill="none" stroke="midnightblue" d="M2339.17,-184.64C2321.05,-172.37 2298.73,-157.26 2285.06,-148.01"/>
<polygon fill="midnightblue" stroke="midnightblue" points="2337.43,-187.69 2347.67,-190.4 2341.35,-181.89 2337.43,-187.69"/>
</g>
<!-- Node17 -->
<g id="node17" class="node">
<title>Node17</title>
<g id="a_node17"><a xlink:href="m__Do__Reset_8cpp.html" target="_top" xlink:title=" ">
<polygon fill="white" stroke="black" points="2353.5,-129 2353.5,-148 2489.5,-148 2489.5,-129 2353.5,-129"/>
<text text-anchor="middle" x="2421.5" y="-136" font-family="Helvetica,sans-Serif" font-size="10.00">src/m_Do/m_Do_Reset.cpp</text>
</a>
</g>
</g>
<!-- Node15&#45;&gt;Node17 -->
<g id="edge18" class="edge">
<title>Node15&#45;&gt;Node17</title>
<path fill="none" stroke="midnightblue" d="M2386.59,-182.32C2396.14,-170.6 2407.33,-156.88 2414.41,-148.19"/>
<polygon fill="midnightblue" stroke="midnightblue" points="2383.61,-180.43 2380,-190.4 2389.03,-184.86 2383.61,-180.43"/>
</g>
<!-- Node18 -->
<g id="node18" class="node">
<title>Node18</title>
<g id="a_node18"><a xlink:href="Z2AudioMgr_8cpp.html" target="_top" xlink:title=" ">
<polygon fill="white" stroke="black" points="286.5,-62 286.5,-81 444.5,-81 444.5,-62 286.5,-62"/>
<text text-anchor="middle" x="365.5" y="-69" font-family="Helvetica,sans-Serif" font-size="10.00">libs/Z2AudioLib/Z2AudioMgr.cpp</text>
</a>
</g>
</g>
<!-- Node15&#45;&gt;Node18 -->
<g id="edge19" class="edge">
<title>Node15&#45;&gt;Node18</title>
<path fill="none" stroke="midnightblue" d="M2290.32,-200.77C1977.97,-185.71 818.82,-128.2 453.5,-87 439.96,-85.47 425.33,-83.28 411.96,-81.07"/>
<polygon fill="midnightblue" stroke="midnightblue" points="2290.48,-204.28 2300.64,-201.27 2290.82,-197.29 2290.48,-204.28"/>
</g>
<!-- Node19 -->
<g id="node19" class="node">
<title>Node19</title>
<g id="a_node19"><a xlink:href="m__Do__audio_8h.html" target="_top" xlink:title=" ">
<polygon fill="white" stroke="black" points="1690,-123.5 1690,-153.5 1823,-153.5 1823,-123.5 1690,-123.5"/>
<text text-anchor="start" x="1698" y="-141.5" font-family="Helvetica,sans-Serif" font-size="10.00">include/m_Do/m_Do_audio</text>
<text text-anchor="middle" x="1756.5" y="-130.5" font-family="Helvetica,sans-Serif" font-size="10.00">/m_Do_audio.h</text>
</a>
</g>
</g>
<!-- Node15&#45;&gt;Node19 -->
<g id="edge20" class="edge">
<title>Node15&#45;&gt;Node19</title>
<path fill="none" stroke="midnightblue" d="M2291.01,-196.27C2169.84,-183.4 1937.57,-158.73 1823.32,-146.6"/>
<polygon fill="midnightblue" stroke="midnightblue" points="2290.65,-199.75 2300.96,-197.33 2291.39,-192.79 2290.65,-199.75"/>
</g>
<!-- Node19&#45;&gt;Node2 -->
<g id="edge23" class="edge">
<title>Node19&#45;&gt;Node2</title>
<path fill="none" stroke="midnightblue" d="M1679.93,-136.95C1400.17,-134.64 433.75,-124.1 127.5,-87 124.74,-86.67 121.93,-86.28 119.1,-85.84"/>
<polygon fill="midnightblue" stroke="midnightblue" points="1679.95,-140.45 1689.98,-137.03 1680.01,-133.45 1679.95,-140.45"/>
</g>
<!-- Node19&#45;&gt;Node3 -->
<g id="edge31" class="edge">
<title>Node19&#45;&gt;Node3</title>
<path fill="none" stroke="midnightblue" d="M1833.54,-133.64C1996.87,-125.22 2373.37,-104.59 2500.5,-87 2511.29,-85.51 2522.92,-83.3 2533.5,-81.06"/>
<polygon fill="midnightblue" stroke="midnightblue" points="1832.9,-130.17 1823.1,-134.17 1833.26,-137.16 1832.9,-130.17"/>
</g>
<!-- Node19&#45;&gt;Node4 -->
<g id="edge35" class="edge">
<title>Node19&#45;&gt;Node4</title>
<path fill="none" stroke="midnightblue" d="M1833.13,-133.98C2072.7,-122.95 2793.06,-89.66 2817.5,-87 2830.89,-85.54 2845.38,-83.32 2858.53,-81.05"/>
<polygon fill="midnightblue" stroke="midnightblue" points="1832.94,-130.48 1823.11,-134.44 1833.26,-137.47 1832.94,-130.48"/>
</g>
<!-- Node19&#45;&gt;Node5 -->
<g id="edge37" class="edge">
<title>Node19&#45;&gt;Node5</title>
<path fill="none" stroke="midnightblue" d="M1833.26,-134.14C2017.97,-125.88 2483.44,-104.02 2638.5,-87 2652.35,-85.48 2667.33,-83.26 2680.97,-81.02"/>
<polygon fill="midnightblue" stroke="midnightblue" points="1832.92,-130.65 1823.08,-134.59 1833.23,-137.64 1832.92,-130.65"/>
</g>
<!-- Node19&#45;&gt;Node9 -->
<g id="edge39" class="edge">
<title>Node19&#45;&gt;Node9</title>
<path fill="none" stroke="midnightblue" d="M1679.61,-136.47C1416.5,-132.69 553.2,-118.16 277.5,-87 274.47,-86.66 271.38,-86.26 268.26,-85.82"/>
<polygon fill="midnightblue" stroke="midnightblue" points="1679.79,-139.97 1689.84,-136.61 1679.89,-132.97 1679.79,-139.97"/>
</g>
<!-- Node19&#45;&gt;Node14 -->
<g id="edge32" class="edge">
<title>Node19&#45;&gt;Node14</title>
<path fill="none" stroke="midnightblue" d="M1679.83,-135.42C1485.6,-129.79 987.79,-112.88 963.5,-87 954.07,-76.95 953.93,-65.91 963.5,-56 1006.77,-11.21 1939.02,-10.17 2199.46,-10.76"/>
<polygon fill="midnightblue" stroke="midnightblue" points="1679.86,-138.93 1689.96,-135.71 1680.07,-131.93 1679.86,-138.93"/>
</g>
<!-- Node19&#45;&gt;Node18 -->
<g id="edge34" class="edge">
<title>Node19&#45;&gt;Node18</title>
<path fill="none" stroke="midnightblue" d="M1679.43,-135.07C1418.09,-126.77 575.05,-99.32 453.5,-87 439.48,-85.58 424.31,-83.34 410.58,-81.04"/>
<polygon fill="midnightblue" stroke="midnightblue" points="1679.48,-138.58 1689.59,-135.4 1679.7,-131.58 1679.48,-138.58"/>
</g>
<!-- Node20 -->
<g id="node20" class="node">
<title>Node20</title>
<g id="a_node20"><a xlink:href="d__attention_8cpp.html" target="_top" xlink:title=" ">
<polygon fill="white" stroke="black" points="2265,-62 2265,-81 2372,-81 2372,-62 2265,-62"/>
<text text-anchor="middle" x="2318.5" y="-69" font-family="Helvetica,sans-Serif" font-size="10.00">src/d/d_attention.cpp</text>
</a>
</g>
</g>
<!-- Node19&#45;&gt;Node20 -->
<g id="edge21" class="edge">
<title>Node19&#45;&gt;Node20</title>
<path fill="none" stroke="midnightblue" d="M1833.35,-132.83C1931.86,-126.14 2107.72,-111.8 2256.5,-87 2265.99,-85.42 2276.19,-83.24 2285.52,-81.05"/>
<polygon fill="midnightblue" stroke="midnightblue" points="1832.93,-129.35 1823.18,-133.51 1833.4,-136.34 1832.93,-129.35"/>
</g>
<!-- Node21 -->
<g id="node21" class="node">
<title>Node21</title>
<g id="a_node21"><a xlink:href="d__camera_8cpp.html" target="_top" xlink:title=" ">
<polygon fill="white" stroke="black" points="2389.5,-62 2389.5,-81 2491.5,-81 2491.5,-62 2389.5,-62"/>
<text text-anchor="middle" x="2440.5" y="-69" font-family="Helvetica,sans-Serif" font-size="10.00">src/d/d_camera.cpp</text>
</a>
</g>
</g>
<!-- Node19&#45;&gt;Node21 -->
<g id="edge22" class="edge">
<title>Node19&#45;&gt;Node21</title>
<path fill="none" stroke="midnightblue" d="M1833.11,-135.26C1951.43,-130.92 2185.46,-118.8 2381.5,-87 2390.77,-85.5 2400.72,-83.29 2409.76,-81.04"/>
<polygon fill="midnightblue" stroke="midnightblue" points="1832.93,-131.77 1823.06,-135.62 1833.18,-138.76 1832.93,-131.77"/>
</g>
<!-- Node22 -->
<g id="node22" class="node">
<title>Node22</title>
<g id="a_node22"><a xlink:href="d__kankyo__wether_8cpp.html" target="_top" xlink:title=" ">
<polygon fill="white" stroke="black" points="1310,-56.5 1310,-86.5 1437,-86.5 1437,-56.5 1310,-56.5"/>
<text text-anchor="start" x="1318" y="-74.5" font-family="Helvetica,sans-Serif" font-size="10.00">src/d/d_kankyo/d_kankyo</text>
<text text-anchor="middle" x="1373.5" y="-63.5" font-family="Helvetica,sans-Serif" font-size="10.00">_wether.cpp</text>
</a>
</g>
</g>
<!-- Node19&#45;&gt;Node22 -->
<g id="edge24" class="edge">
<title>Node19&#45;&gt;Node22</title>
<path fill="none" stroke="midnightblue" d="M1679.65,-125.74C1616.84,-115.94 1525.79,-101.33 1446.5,-87 1443.45,-86.45 1440.33,-85.87 1437.18,-85.28"/>
<polygon fill="midnightblue" stroke="midnightblue" points="1679.45,-129.25 1689.87,-127.33 1680.52,-122.33 1679.45,-129.25"/>
</g>
<!-- Node23 -->
<g id="node23" class="node">
<title>Node23</title>
<g id="a_node23"><a xlink:href="d__kankyo_8cpp.html" target="_top" xlink:title=" ">
<polygon fill="white" stroke="black" points="1455,-62 1455,-81 1556,-81 1556,-62 1455,-62"/>
<text text-anchor="middle" x="1505.5" y="-69" font-family="Helvetica,sans-Serif" font-size="10.00">src/d/d_kankyo.cpp</text>
</a>
</g>
</g>
<!-- Node19&#45;&gt;Node23 -->
<g id="edge25" class="edge">
<title>Node19&#45;&gt;Node23</title>
<path fill="none" stroke="midnightblue" d="M1692.44,-120.91C1643.28,-108.18 1577.43,-91.13 1538.43,-81.03"/>
<polygon fill="midnightblue" stroke="midnightblue" points="1691.79,-124.36 1702.35,-123.48 1693.54,-117.58 1691.79,-124.36"/>
</g>
<!-- Node24 -->
<g id="node24" class="node">
<title>Node24</title>
<g id="a_node24"><a xlink:href="d__kyeff_8cpp.html" target="_top" xlink:title=" ">
<polygon fill="white" stroke="black" points="654,-62 654,-81 767,-81 767,-62 654,-62"/>
<text text-anchor="middle" x="710.5" y="-69" font-family="Helvetica,sans-Serif" font-size="10.00">src/d/d_ky/d_kyeff.cpp</text>
</a>
</g>
</g>
<!-- Node19&#45;&gt;Node24 -->
<g id="edge26" class="edge">
<title>Node19&#45;&gt;Node24</title>
<path fill="none" stroke="midnightblue" d="M1679.61,-135.21C1480.19,-129.02 949.79,-110.75 775.5,-87 765.07,-85.58 753.85,-83.34 743.71,-81.04"/>
<polygon fill="midnightblue" stroke="midnightblue" points="1679.6,-138.72 1689.71,-135.53 1679.82,-131.72 1679.6,-138.72"/>
</g>
<!-- Node25 -->
<g id="node25" class="node">
<title>Node25</title>
<g id="a_node25"><a xlink:href="d__meter__button_8cpp.html" target="_top" xlink:title=" ">
<polygon fill="white" stroke="black" points="1574,-56.5 1574,-86.5 1689,-86.5 1689,-56.5 1574,-56.5"/>
<text text-anchor="start" x="1582" y="-74.5" font-family="Helvetica,sans-Serif" font-size="10.00">src/d/d_meter/d_meter</text>
<text text-anchor="middle" x="1631.5" y="-63.5" font-family="Helvetica,sans-Serif" font-size="10.00">_button.cpp</text>
</a>
</g>
</g>
<!-- Node19&#45;&gt;Node25 -->
<g id="edge27" class="edge">
<title>Node19&#45;&gt;Node25</title>
<path fill="none" stroke="midnightblue" d="M1720.37,-118.71C1700.66,-108.46 1676.66,-95.98 1658.57,-86.58"/>
<polygon fill="midnightblue" stroke="midnightblue" points="1718.89,-121.89 1729.38,-123.4 1722.12,-115.68 1718.89,-121.89"/>
</g>
<!-- Node26 -->
<g id="node26" class="node">
<title>Node26</title>
<g id="a_node26"><a xlink:href="d__meter__map_8cpp.html" target="_top" xlink:title=" ">
<polygon fill="white" stroke="black" points="2132,-56.5 2132,-86.5 2247,-86.5 2247,-56.5 2132,-56.5"/>
<text text-anchor="start" x="2140" y="-74.5" font-family="Helvetica,sans-Serif" font-size="10.00">src/d/d_meter/d_meter</text>
<text text-anchor="middle" x="2189.5" y="-63.5" font-family="Helvetica,sans-Serif" font-size="10.00">_map.cpp</text>
</a>
</g>
</g>
<!-- Node19&#45;&gt;Node26 -->
<g id="edge28" class="edge">
<title>Node19&#45;&gt;Node26</title>
<path fill="none" stroke="midnightblue" d="M1833.27,-128.74C1907.72,-119.82 2023.72,-104.8 2123.5,-87 2126.27,-86.51 2129.1,-85.98 2131.96,-85.42"/>
<polygon fill="midnightblue" stroke="midnightblue" points="1832.56,-125.3 1823.05,-129.96 1833.39,-132.25 1832.56,-125.3"/>
</g>
<!-- Node27 -->
<g id="node27" class="node">
<title>Node27</title>
<g id="a_node27"><a xlink:href="d__meter2__draw_8cpp.html" target="_top" xlink:title=" ">
<polygon fill="white" stroke="black" points="1989,-56.5 1989,-86.5 2114,-86.5 2114,-56.5 1989,-56.5"/>
<text text-anchor="start" x="1997" y="-74.5" font-family="Helvetica,sans-Serif" font-size="10.00">src/d/d_meter2/d_meter2</text>
<text text-anchor="middle" x="2051.5" y="-63.5" font-family="Helvetica,sans-Serif" font-size="10.00">_draw.cpp</text>
</a>
</g>
</g>
<!-- Node19&#45;&gt;Node27 -->
<g id="edge29" class="edge">
<title>Node19&#45;&gt;Node27</title>
<path fill="none" stroke="midnightblue" d="M1830.04,-121.3C1878.95,-110.52 1942.51,-96.52 1988.98,-86.28"/>
<polygon fill="midnightblue" stroke="midnightblue" points="1829.16,-117.91 1820.15,-123.48 1830.67,-124.74 1829.16,-117.91"/>
</g>
<!-- Node28 -->
<g id="node28" class="node">
<title>Node28</title>
<g id="a_node28"><a xlink:href="d__meter2_8cpp.html" target="_top" xlink:title=" ">
<polygon fill="white" stroke="black" points="1870.5,-62 1870.5,-81 1970.5,-81 1970.5,-62 1870.5,-62"/>
<text text-anchor="middle" x="1920.5" y="-69" font-family="Helvetica,sans-Serif" font-size="10.00">src/d/d_meter2.cpp</text>
</a>
</g>
</g>
<!-- Node19&#45;&gt;Node28 -->
<g id="edge30" class="edge">
<title>Node19&#45;&gt;Node28</title>
<path fill="none" stroke="midnightblue" d="M1801.61,-119.62C1833.35,-107.04 1874.41,-90.77 1899.04,-81.01"/>
<polygon fill="midnightblue" stroke="midnightblue" points="1800.09,-116.46 1792.09,-123.4 1802.67,-122.97 1800.09,-116.46"/>
</g>
<!-- Node29 -->
<g id="node29" class="node">
<title>Node29</title>
<g id="a_node29"><a xlink:href="m__Do__main_8cpp.html" target="_top" xlink:title=" ">
<polygon fill="white" stroke="black" points="785,-62 785,-81 916,-81 916,-62 785,-62"/>
<text text-anchor="middle" x="850.5" y="-69" font-family="Helvetica,sans-Serif" font-size="10.00">src/m_Do/m_Do_main.cpp</text>
</a>
</g>
</g>
<!-- Node19&#45;&gt;Node29 -->
<g id="edge33" class="edge">
<title>Node19&#45;&gt;Node29</title>
<path fill="none" stroke="midnightblue" d="M1679.66,-135.83C1533.36,-131.99 1204.9,-120.14 930.5,-87 918.03,-85.49 904.56,-83.28 892.29,-81.04"/>
<polygon fill="midnightblue" stroke="midnightblue" points="1679.79,-139.34 1689.88,-136.1 1679.97,-132.34 1679.79,-139.34"/>
</g>
<!-- Node30 -->
<g id="node30" class="node">
<title>Node30</title>
<g id="a_node30"><a xlink:href="Z2SeMgr_8cpp.html" target="_top" xlink:title=" ">
<polygon fill="white" stroke="black" points="1707,-62 1707,-81 1852,-81 1852,-62 1707,-62"/>
<text text-anchor="middle" x="1779.5" y="-69" font-family="Helvetica,sans-Serif" font-size="10.00">libs/Z2AudioLib/Z2SeMgr.cpp</text>
</a>
</g>
</g>
<!-- Node19&#45;&gt;Node30 -->
<g id="edge36" class="edge">
<title>Node19&#45;&gt;Node30</title>
<path fill="none" stroke="midnightblue" d="M1764.84,-113.94C1768.87,-102.54 1773.47,-89.55 1776.42,-81.19"/>
<polygon fill="midnightblue" stroke="midnightblue" points="1761.53,-112.8 1761.49,-123.4 1768.13,-115.14 1761.53,-112.8"/>
</g>
<!-- Node31 -->
<g id="node31" class="node">
<title>Node31</title>
<g id="a_node31"><a xlink:href="Z2SoundStarter_8cpp.html" target="_top" xlink:title=" ">
<polygon fill="white" stroke="black" points="463,-62 463,-81 636,-81 636,-62 463,-62"/>
<text text-anchor="middle" x="549.5" y="-69" font-family="Helvetica,sans-Serif" font-size="10.00">libs/Z2AudioLib/Z2SoundStarter.cpp</text>
</a>
</g>
</g>
<!-- Node19&#45;&gt;Node31 -->
<g id="edge38" class="edge">
<title>Node19&#45;&gt;Node31</title>
<path fill="none" stroke="midnightblue" d="M1679.85,-135.08C1462.69,-128.06 846,-106.9 644.5,-87 629.56,-85.52 613.38,-83.29 598.68,-81.02"/>
<polygon fill="midnightblue" stroke="midnightblue" points="1679.78,-138.58 1689.89,-135.4 1680.01,-131.58 1679.78,-138.58"/>
</g>
<!-- Node32&#45;&gt;Node3 -->
<g id="edge50" class="edge">
<title>Node32&#45;&gt;Node3</title>
<path fill="none" stroke="midnightblue" d="M2201.93,-123.06C2335.19,-100.79 2371.66,-108.25 2500.5,-87 2510.65,-85.33 2521.56,-83.19 2531.65,-81.07"/>
<polygon fill="midnightblue" stroke="midnightblue" points="2201.02,-119.66 2191.74,-124.78 2202.19,-126.56 2201.02,-119.66"/>
</g>
<!-- Node32&#45;&gt;Node4 -->
<g id="edge52" class="edge">
<title>Node32&#45;&gt;Node4</title>
<path fill="none" stroke="midnightblue" d="M2201.92,-123.13C2474.89,-85.82 2548.35,-117.73 2817.5,-87 2830.74,-85.49 2845.04,-83.28 2858.08,-81.03"/>
<polygon fill="midnightblue" stroke="midnightblue" points="2201.13,-119.71 2191.71,-124.55 2202.09,-126.64 2201.13,-119.71"/>
</g>
<!-- Node32&#45;&gt;Node5 -->
<g id="edge57" class="edge">
<title>Node32&#45;&gt;Node5</title>
<path fill="none" stroke="midnightblue" d="M2201.68,-123.14C2395.9,-94.27 2448.28,-110.29 2638.5,-87 2651.86,-85.36 2666.29,-83.19 2679.56,-81.03"/>
<polygon fill="midnightblue" stroke="midnightblue" points="2201.09,-119.69 2191.72,-124.64 2202.13,-126.61 2201.09,-119.69"/>
</g>
<!-- Node32&#45;&gt;Node8 -->
<g id="edge59" class="edge">
<title>Node32&#45;&gt;Node8</title>
<path fill="none" stroke="midnightblue" d="M2201.62,-123.21C2841.32,-45.8 3011.83,-157.52 3647.5,-87 3650.58,-86.66 3653.73,-86.25 3656.9,-85.8"/>
<polygon fill="midnightblue" stroke="midnightblue" points="2201.19,-119.74 2191.69,-124.42 2202.04,-126.68 2201.19,-119.74"/>
</g>
<!-- Node32&#45;&gt;Node10 -->
<g id="edge60" class="edge">
<title>Node32&#45;&gt;Node10</title>
<path fill="none" stroke="midnightblue" d="M2071.16,-134.36C1850.62,-123.75 1146.12,-89.72 1122.5,-87 1119.27,-86.63 1115.98,-86.21 1112.66,-85.75"/>
<polygon fill="midnightblue" stroke="midnightblue" points="2071.14,-137.86 2081.29,-134.85 2071.47,-130.87 2071.14,-137.86"/>
</g>
<!-- Node32&#45;&gt;Node12 -->
<g id="edge55" class="edge">
<title>Node32&#45;&gt;Node12</title>
<path fill="none" stroke="midnightblue" d="M2071.41,-134.4C1902.05,-126.21 1450.48,-103.46 1301.5,-87 1287.66,-85.47 1272.7,-83.28 1259.02,-81.06"/>
<polygon fill="midnightblue" stroke="midnightblue" points="2071.27,-137.9 2081.43,-134.89 2071.61,-130.91 2071.27,-137.9"/>
</g>
<!-- Node32&#45;&gt;Node13 -->
<g id="edge61" class="edge">
<title>Node32&#45;&gt;Node13</title>
<path fill="none" stroke="midnightblue" d="M2201.69,-123.2C2789.23,-51.68 2947.64,-165.47 3529.5,-87 3532.43,-86.61 3535.42,-86.12 3538.43,-85.58"/>
<polygon fill="midnightblue" stroke="midnightblue" points="2201.19,-119.74 2191.69,-124.43 2202.04,-126.68 2201.19,-119.74"/>
</g>
<!-- Node32&#45;&gt;Node18 -->
<g id="edge51" class="edge">
<title>Node32&#45;&gt;Node18</title>
<path fill="none" stroke="midnightblue" d="M2070.98,-133.97C2009.42,-130.74 1914.73,-126.03 1832.5,-123 1219.82,-100.39 1063.85,-144.98 453.5,-87 439.32,-85.65 423.97,-83.4 410.11,-81.07"/>
<polygon fill="midnightblue" stroke="midnightblue" points="2071.15,-137.48 2081.32,-134.51 2071.52,-130.49 2071.15,-137.48"/>
</g>
<!-- Node32&#45;&gt;Node20 -->
<g id="edge42" class="edge">
<title>Node32&#45;&gt;Node20</title>
<path fill="none" stroke="midnightblue" d="M2185.65,-119.95C2221,-107.32 2267.12,-90.85 2294.68,-81.01"/>
<polygon fill="midnightblue" stroke="midnightblue" points="2184.23,-116.74 2175.99,-123.4 2186.59,-123.33 2184.23,-116.74"/>
</g>
<!-- Node32&#45;&gt;Node21 -->
<g id="edge43" class="edge">
<title>Node32&#45;&gt;Node21</title>
<path fill="none" stroke="midnightblue" d="M2201.98,-122.93C2283.01,-105.98 2304.98,-104.05 2381.5,-87 2389.74,-85.17 2398.59,-83.06 2406.86,-81.04"/>
<polygon fill="midnightblue" stroke="midnightblue" points="2200.86,-119.59 2191.8,-125.08 2202.31,-126.44 2200.86,-119.59"/>
</g>
<!-- Node32&#45;&gt;Node22 -->
<g id="edge44" class="edge">
<title>Node32&#45;&gt;Node22</title>
<path fill="none" stroke="midnightblue" d="M2071.04,-133.74C1923.01,-125.07 1566.08,-103.19 1446.5,-87 1443.43,-86.58 1440.29,-86.12 1437.12,-85.62"/>
<polygon fill="midnightblue" stroke="midnightblue" points="2071.15,-137.25 2081.33,-134.34 2071.56,-130.27 2071.15,-137.25"/>
</g>
<!-- Node32&#45;&gt;Node23 -->
<g id="edge45" class="edge">
<title>Node32&#45;&gt;Node23</title>
<path fill="none" stroke="midnightblue" d="M2071.17,-134.89C1964.67,-129.92 1747.26,-116.83 1565.5,-87 1556.19,-85.47 1546.2,-83.28 1537.08,-81.06"/>
<polygon fill="midnightblue" stroke="midnightblue" points="2071.29,-138.4 2081.44,-135.36 2071.61,-131.4 2071.29,-138.4"/>
</g>
<!-- Node32&#45;&gt;Node25 -->
<g id="edge46" class="edge">
<title>Node32&#45;&gt;Node25</title>
<path fill="none" stroke="midnightblue" d="M2071.17,-131.99C1985.33,-124.29 1830.03,-108.76 1698.5,-87 1695.45,-86.49 1692.32,-85.94 1689.17,-85.36"/>
<polygon fill="midnightblue" stroke="midnightblue" points="2071.02,-135.49 2081.29,-132.89 2071.64,-128.52 2071.02,-135.49"/>
</g>
<!-- Node32&#45;&gt;Node26 -->
<g id="edge47" class="edge">
<title>Node32&#45;&gt;Node26</title>
<path fill="none" stroke="midnightblue" d="M2154.48,-115.45C2162.27,-105.9 2171.15,-95 2178.02,-86.58"/>
<polygon fill="midnightblue" stroke="midnightblue" points="2151.61,-113.43 2148,-123.4 2157.03,-117.86 2151.61,-113.43"/>
</g>
<!-- Node32&#45;&gt;Node27 -->
<g id="edge48" class="edge">
<title>Node32&#45;&gt;Node27</title>
<path fill="none" stroke="midnightblue" d="M2109.91,-117.17C2096.91,-107.23 2081.6,-95.51 2069.91,-86.58"/>
<polygon fill="midnightblue" stroke="midnightblue" points="2107.99,-120.1 2118.06,-123.4 2112.24,-114.54 2107.99,-120.1"/>
</g>
<!-- Node32&#45;&gt;Node28 -->
<g id="edge49" class="edge">
<title>Node32&#45;&gt;Node28</title>
<path fill="none" stroke="midnightblue" d="M2080.31,-120.59C2038.12,-107.9 1982.12,-91.04 1948.84,-81.03"/>
<polygon fill="midnightblue" stroke="midnightblue" points="2079.31,-123.95 2089.9,-123.48 2081.33,-117.24 2079.31,-123.95"/>
</g>
<!-- Node32&#45;&gt;Node30 -->
<g id="edge56" class="edge">
<title>Node32&#45;&gt;Node30</title>
<path fill="none" stroke="midnightblue" d="M2070.95,-125.57C2000.03,-112.65 1888.73,-92.39 1826.19,-81"/>
<polygon fill="midnightblue" stroke="midnightblue" points="2070.65,-129.07 2081.11,-127.42 2071.9,-122.18 2070.65,-129.07"/>
</g>
<!-- Node33 -->
<g id="node33" class="node">
<title>Node33</title>
<g id="a_node33"><a xlink:href="Z2LinkMgr_8cpp.html" target="_top" xlink:title=" ">
<polygon fill="white" stroke="black" points="3188.5,-62 3188.5,-81 3340.5,-81 3340.5,-62 3188.5,-62"/>
<text text-anchor="middle" x="3264.5" y="-69" font-family="Helvetica,sans-Serif" font-size="10.00">libs/Z2AudioLib/Z2LinkMgr.cpp</text>
</a>
</g>
</g>
<!-- Node32&#45;&gt;Node33 -->
<g id="edge53" class="edge">
<title>Node32&#45;&gt;Node33</title>
<path fill="none" stroke="midnightblue" d="M2201.66,-123.19C2634.64,-68.38 2750.11,-131.33 3179.5,-87 3193.05,-85.6 3207.71,-83.36 3220.97,-81.06"/>
<polygon fill="midnightblue" stroke="midnightblue" points="2201.17,-119.73 2191.7,-124.47 2202.06,-126.67 2201.17,-119.73"/>
</g>
<!-- Node34 -->
<g id="node34" class="node">
<title>Node34</title>
<g id="a_node34"><a xlink:href="Z2EnvSeMgr_8cpp.html" target="_top" xlink:title=" ">
<polygon fill="white" stroke="black" points="3359,-62 3359,-81 3520,-81 3520,-62 3359,-62"/>
<text text-anchor="middle" x="3439.5" y="-69" font-family="Helvetica,sans-Serif" font-size="10.00">libs/Z2AudioLib/Z2EnvSeMgr.cpp</text>
</a>
</g>
</g>
<!-- Node32&#45;&gt;Node34 -->
<g id="edge54" class="edge">
<title>Node32&#45;&gt;Node34</title>
<path fill="none" stroke="midnightblue" d="M2201.85,-123.17C2709.74,-60.15 2844.7,-135.38 3349.5,-87 3363.99,-85.61 3379.69,-83.35 3393.86,-81.02"/>
<polygon fill="midnightblue" stroke="midnightblue" points="2201.18,-119.73 2191.69,-124.45 2202.05,-126.68 2201.18,-119.73"/>
</g>
<!-- Node35 -->
<g id="node35" class="node">
<title>Node35</title>
<g id="a_node35"><a xlink:href="Z2SoundObject_8cpp.html" target="_top" xlink:title=" ">
<polygon fill="white" stroke="black" points="2997,-62 2997,-81 3170,-81 3170,-62 2997,-62"/>
<text text-anchor="middle" x="3083.5" y="-69" font-family="Helvetica,sans-Serif" font-size="10.00">libs/Z2AudioLib/Z2SoundObject.cpp</text>
</a>
</g>
</g>
<!-- Node32&#45;&gt;Node35 -->
<g id="edge58" class="edge">
<title>Node32&#45;&gt;Node35</title>
<path fill="none" stroke="midnightblue" d="M2201.82,-123.16C2550.34,-77.55 2643.37,-121.14 2988.5,-87 3003.44,-85.52 3019.62,-83.29 3034.32,-81.02"/>
<polygon fill="midnightblue" stroke="midnightblue" points="2201.16,-119.72 2191.7,-124.5 2202.07,-126.66 2201.16,-119.72"/>
</g>
</g>
</svg>
        <g id="navigator" transform="translate(0 0)" fill="#404254">
                <rect fill="#f2f5e9" fill-opacity="0.5" stroke="#606060" stroke-width=".5" x="0" y="0" width="60" height="60"/>
                <use id="zoomplus" xlink:href="#zoomPlus" x="17" y="9" onmousedown="handleZoom(evt,'in')"/>
                <use id="zoomminus" xlink:href="#zoomMin" x="42" y="9" onmousedown="handleZoom(evt,'out')"/>
                <use id="reset" xlink:href="#resetDef" x="30" y="36" onmousedown="handleReset()"/>
                <g id="arrowUp" xlink:href="#dirArrow" transform="translate(30 24)" onmousedown="handlePan(0,-1)">
                  <use xlink:href="#rim" fill="#404040">
                        <set attributeName="fill" to="#808080" begin="arrowUp.mouseover" end="arrowUp.mouseout"/>
                  </use>
                  <path fill="none" stroke="white" stroke-width="1.5" d="M0,-3.0v7 M-2.5,-0.5L0,-3.0L2.5,-0.5"/>
                </g>
                <g id="arrowRight" xlink:href="#dirArrow" transform="rotate(90) translate(36 -43)" onmousedown="handlePan(1,0)">
                  <use xlink:href="#rim" fill="#404040">
                        <set attributeName="fill" to="#808080" begin="arrowRight.mouseover" end="arrowRight.mouseout"/>
                  </use>
                  <path fill="none" stroke="white" stroke-width="1.5" d="M0,-3.0v7 M-2.5,-0.5L0,-3.0L2.5,-0.5"/>
                </g>
                <g id="arrowDown" xlink:href="#dirArrow" transform="rotate(180) translate(-30 -48)" onmousedown="handlePan(0,1)">
                  <use xlink:href="#rim" fill="#404040">
                        <set attributeName="fill" to="#808080" begin="arrowDown.mouseover" end="arrowDown.mouseout"/>
                  </use>
                  <path fill="none" stroke="white" stroke-width="1.5" d="M0,-3.0v7 M-2.5,-0.5L0,-3.0L2.5,-0.5"/>
                </g>
                <g id="arrowLeft" xlink:href="#dirArrow" transform="rotate(270) translate(-36 17)" onmousedown="handlePan(-1,0)">
                  <use xlink:href="#rim" fill="#404040">
                        <set attributeName="fill" to="#808080" begin="arrowLeft.mouseover" end="arrowLeft.mouseout"/>
                  </use>
                  <path fill="none" stroke="white" stroke-width="1.5" d="M0,-3.0v7 M-2.5,-0.5L0,-3.0L2.5,-0.5"/>
                </g>
        </g>
        <svg viewBox="0 0 15 15" width="100%" height="30px" preserveAspectRatio="xMaxYMin meet">
         <g id="arrow_out" transform="scale(0.3 0.3)">
          <a xlink:href="Z2SeqMgr_8h__dep__incl_org.svg" target="_base">
           <rect id="button" ry="5" rx="5" y="6" x="6" height="38" width="38"
                fill="#f2f5e9" fill-opacity="0.5" stroke="#606060" stroke-width="1.0"/>
           <path id="arrow"
             d="M 11.500037,31.436501 C 11.940474,20.09759 22.043105,11.32322 32.158766,21.979434 L 37.068811,17.246167 C 37.068811,17.246167 37.088388,32 37.088388,32 L 22.160133,31.978069 C 22.160133,31.978069 26.997745,27.140456 26.997745,27.140456 C 18.528582,18.264221 13.291696,25.230495 11.500037,31.436501 z"
             style="fill:#404040;"/>
          </a>
         </g>
        </svg>
</svg>
