<?xml version="1.0" encoding="UTF-8" standalone="no"?>
<!DOCTYPE svg PUBLIC "-//W3C//DTD SVG 1.1//EN"
 "http://www.w3.org/Graphics/SVG/1.1/DTD/svg11.dtd">
<!-- Generated by graphviz version 2.46.0 (20210122.1329)
 -->
<!-- Title: include/Z2AudioLib/Z2SeqMgr/Z2SeqMgr.h Pages: 1 -->
<svg width="3661pt" height="363pt"
 viewBox="0.00 0.00 3661.00 363.00" xmlns="http://www.w3.org/2000/svg" xmlns:xlink="http://www.w3.org/1999/xlink">
<g id="graph0" class="graph" transform="scale(1 1) rotate(0) translate(4 359)">
<title>include/Z2AudioLib/Z2SeqMgr/Z2SeqMgr.h</title>
<polygon fill="white" stroke="transparent" points="-4,4 -4,-359 3657,-359 3657,4 -4,4"/>
<!-- Node1 -->
<g id="node1" class="node">
<title>Node1</title>
<g id="a_node1"><a xlink:title=" ">
<polygon fill="#bfbfbf" stroke="black" points="1400.5,-324.5 1400.5,-354.5 1520.5,-354.5 1520.5,-324.5 1400.5,-324.5"/>
<text text-anchor="start" x="1408.5" y="-342.5" font-family="Helvetica,sans-Serif" font-size="10.00">include/Z2AudioLib</text>
<text text-anchor="middle" x="1460.5" y="-331.5" font-family="Helvetica,sans-Serif" font-size="10.00">/Z2SeqMgr/Z2SeqMgr.h</text>
</a>
</g>
</g>
<!-- Node2 -->
<g id="node2" class="node">
<title>Node2</title>
<g id="a_node2"><a xlink:href="d__com__inf__game_8cpp.html" target="_top" xlink:title=" ">
<polygon fill="white" stroke="black" points="0,-56.5 0,-86.5 119,-86.5 119,-56.5 0,-56.5"/>
<text text-anchor="start" x="8" y="-74.5" font-family="Helvetica,sans-Serif" font-size="10.00">src/d/d_com/d_com_inf</text>
<text text-anchor="middle" x="59.5" y="-63.5" font-family="Helvetica,sans-Serif" font-size="10.00">_game.cpp</text>
</a>
</g>
</g>
<!-- Node1&#45;&gt;Node2 -->
<g id="edge1" class="edge">
<title>Node1&#45;&gt;Node2</title>
<path fill="none" stroke="midnightblue" d="M1390.13,-330.96C1312.39,-322.25 1183.62,-306.69 1073.5,-288 706.87,-225.79 271.5,-123.61 117.19,-86.51"/>
<polygon fill="midnightblue" stroke="midnightblue" points="1389.96,-334.46 1400.29,-332.09 1390.74,-327.5 1389.96,-334.46"/>
</g>
<!-- Node3 -->
<g id="node3" class="node">
<title>Node3</title>
<g id="a_node3"><a xlink:href="d__a__alink_8cpp.html" target="_top" xlink:title=" ">
<polygon fill="white" stroke="black" points="137,-62 137,-81 256,-81 256,-62 137,-62"/>
<text text-anchor="middle" x="196.5" y="-69" font-family="Helvetica,sans-Serif" font-size="10.00">src/d/d_a/d_a_alink.cpp</text>
</a>
</g>
</g>
<!-- Node1&#45;&gt;Node3 -->
<g id="edge2" class="edge">
<title>Node1&#45;&gt;Node3</title>
<path fill="none" stroke="midnightblue" d="M1390.61,-323.88C1206.39,-285.31 692.28,-177.59 264.5,-87 255.41,-85.07 245.63,-83 236.41,-81.03"/>
<polygon fill="midnightblue" stroke="midnightblue" points="1389.94,-327.31 1400.44,-325.93 1391.37,-320.46 1389.94,-327.31"/>
</g>
<!-- Node4 -->
<g id="node4" class="node">
<title>Node4</title>
<g id="a_node4"><a xlink:href="Z2Creature_8cpp.html" target="_top" xlink:title=" ">
<polygon fill="white" stroke="black" points="274,-62 274,-81 427,-81 427,-62 274,-62"/>
<text text-anchor="middle" x="350.5" y="-69" font-family="Helvetica,sans-Serif" font-size="10.00">libs/Z2AudioLib/Z2Creature.cpp</text>
</a>
</g>
</g>
<!-- Node1&#45;&gt;Node4 -->
<g id="edge3" class="edge">
<title>Node1&#45;&gt;Node4</title>
<path fill="none" stroke="midnightblue" d="M1414.58,-320.77C1304.77,-279.14 1017.55,-174.73 768.5,-123 622.75,-92.73 582.94,-107.53 435.5,-87 423.19,-85.29 409.93,-83.16 397.63,-81.07"/>
<polygon fill="midnightblue" stroke="midnightblue" points="1413.44,-324.08 1424.03,-324.37 1415.93,-317.54 1413.44,-324.08"/>
</g>
<!-- Node5 -->
<g id="node5" class="node">
<title>Node5</title>
<g id="a_node5"><a xlink:href="Z2SeqMgr_8cpp.html" target="_top" xlink:title=" ">
<polygon fill="white" stroke="black" points="2148.5,-196 2148.5,-215 2298.5,-215 2298.5,-196 2148.5,-196"/>
<text text-anchor="middle" x="2223.5" y="-203" font-family="Helvetica,sans-Serif" font-size="10.00">libs/Z2AudioLib/Z2SeqMgr.cpp</text>
</a>
</g>
</g>
<!-- Node1&#45;&gt;Node5 -->
<g id="edge4" class="edge">
<title>Node1&#45;&gt;Node5</title>
<path fill="none" stroke="midnightblue" d="M1530.65,-332.23C1613.09,-324.34 1753.84,-309.19 1873.5,-288 1992.07,-267.01 2130.79,-231.35 2191.88,-215.06"/>
<polygon fill="midnightblue" stroke="midnightblue" points="1530.27,-328.75 1520.64,-333.18 1530.93,-335.72 1530.27,-328.75"/>
</g>
<!-- Node6 -->
<g id="node6" class="node">
<title>Node6</title>
<g id="a_node6"><a xlink:href="Z2SoundMgr_8cpp.html" target="_top" xlink:title=" ">
<polygon fill="white" stroke="black" points="590,-62 590,-81 751,-81 751,-62 590,-62"/>
<text text-anchor="middle" x="670.5" y="-69" font-family="Helvetica,sans-Serif" font-size="10.00">libs/Z2AudioLib/Z2SoundMgr.cpp</text>
</a>
</g>
</g>
<!-- Node1&#45;&gt;Node6 -->
<g id="edge5" class="edge">
<title>Node1&#45;&gt;Node6</title>
<path fill="none" stroke="midnightblue" d="M1453.86,-314.75C1438.26,-259.04 1400.43,-124.54 1398.5,-123 1342.91,-78.65 830.19,-94.73 759.5,-87 745.65,-85.49 730.67,-83.27 717.03,-81.03"/>
<polygon fill="midnightblue" stroke="midnightblue" points="1450.52,-315.79 1456.58,-324.48 1457.26,-313.91 1450.52,-315.79"/>
</g>
<!-- Node7 -->
<g id="node7" class="node">
<title>Node7</title>
<g id="a_node7"><a xlink:href="Z2SoundObjMgr_8cpp.html" target="_top" xlink:title=" ">
<polygon fill="white" stroke="black" points="2393,-257.5 2393,-287.5 2534,-287.5 2534,-257.5 2393,-257.5"/>
<text text-anchor="start" x="2401" y="-275.5" font-family="Helvetica,sans-Serif" font-size="10.00">libs/Z2AudioLib/Z2SoundObj</text>
<text text-anchor="middle" x="2463.5" y="-264.5" font-family="Helvetica,sans-Serif" font-size="10.00">Mgr.cpp</text>
</a>
</g>
</g>
<!-- Node1&#45;&gt;Node7 -->
<g id="edge6" class="edge">
<title>Node1&#45;&gt;Node7</title>
<path fill="none" stroke="midnightblue" d="M1530.83,-337.36C1684.89,-334.27 2063.55,-323.41 2378.5,-288 2383.11,-287.48 2387.85,-286.88 2392.62,-286.21"/>
<polygon fill="midnightblue" stroke="midnightblue" points="1530.5,-333.87 1520.57,-337.56 1530.64,-340.87 1530.5,-333.87"/>
</g>
<!-- Node8 -->
<g id="node8" class="node">
<title>Node8</title>
<g id="a_node8"><a xlink:href="Z2StatusMgr_8cpp.html" target="_top" xlink:title=" ">
<polygon fill="white" stroke="black" points="445,-56.5 445,-86.5 572,-86.5 572,-56.5 445,-56.5"/>
<text text-anchor="start" x="453" y="-74.5" font-family="Helvetica,sans-Serif" font-size="10.00">libs/Z2AudioLib/Z2Status</text>
<text text-anchor="middle" x="508.5" y="-63.5" font-family="Helvetica,sans-Serif" font-size="10.00">Mgr.cpp</text>
</a>
</g>
</g>
<!-- Node1&#45;&gt;Node8 -->
<g id="edge7" class="edge">
<title>Node1&#45;&gt;Node8</title>
<path fill="none" stroke="midnightblue" d="M1462.06,-314.22C1463.53,-267.94 1459.13,-167.71 1398.5,-123 1325.28,-69 670.81,-98.01 580.5,-87 577.72,-86.66 574.88,-86.27 572.02,-85.85"/>
<polygon fill="midnightblue" stroke="midnightblue" points="1458.56,-314.12 1461.62,-324.26 1465.55,-314.42 1458.56,-314.12"/>
</g>
<!-- Node9 -->
<g id="node9" class="node">
<title>Node9</title>
<g id="a_node9"><a xlink:href="Z2SpeechMgr2_8cpp.html" target="_top" xlink:title=" ">
<polygon fill="white" stroke="black" points="3522,-56.5 3522,-86.5 3653,-86.5 3653,-56.5 3522,-56.5"/>
<text text-anchor="start" x="3530" y="-74.5" font-family="Helvetica,sans-Serif" font-size="10.00">libs/Z2AudioLib/Z2Speech</text>
<text text-anchor="middle" x="3587.5" y="-63.5" font-family="Helvetica,sans-Serif" font-size="10.00">Mgr2.cpp</text>
</a>
</g>
</g>
<!-- Node1&#45;&gt;Node9 -->
<g id="edge8" class="edge">
<title>Node1&#45;&gt;Node9</title>
<path fill="none" stroke="midnightblue" d="M1530.8,-334.66C1651.45,-327.72 1905.61,-311.6 2119.5,-288 2430.37,-253.7 3204.1,-139.03 3512.5,-87 3515.51,-86.49 3518.58,-85.96 3521.68,-85.41"/>
<polygon fill="midnightblue" stroke="midnightblue" points="1530.38,-331.18 1520.59,-335.24 1530.78,-338.17 1530.38,-331.18"/>
</g>
<!-- Node10 -->
<g id="node10" class="node">
<title>Node10</title>
<g id="a_node10"><a xlink:href="Z2WolfHowlMgr_8cpp.html" target="_top" xlink:title=" ">
<polygon fill="white" stroke="black" points="3363.5,-56.5 3363.5,-86.5 3503.5,-86.5 3503.5,-56.5 3363.5,-56.5"/>
<text text-anchor="start" x="3371.5" y="-74.5" font-family="Helvetica,sans-Serif" font-size="10.00">libs/Z2AudioLib/Z2WolfHowl</text>
<text text-anchor="middle" x="3433.5" y="-63.5" font-family="Helvetica,sans-Serif" font-size="10.00">Mgr.cpp</text>
</a>
</g>
</g>
<!-- Node1&#45;&gt;Node10 -->
<g id="edge9" class="edge">
<title>Node1&#45;&gt;Node10</title>
<path fill="none" stroke="midnightblue" d="M1530.73,-333.41C1627.7,-325.93 1807.93,-310.39 1960.5,-288 2115.91,-265.2 2184.78,-319.03 2307.5,-221 2344.66,-191.31 2311.15,-149.72 2350.5,-123 2396.67,-91.64 3299.02,-93.05 3354.5,-87 3357.41,-86.68 3360.38,-86.32 3363.37,-85.92"/>
<polygon fill="midnightblue" stroke="midnightblue" points="1530.45,-329.92 1520.75,-334.18 1530.99,-336.9 1530.45,-329.92"/>
</g>
<!-- Node11 -->
<g id="node11" class="node">
<title>Node11</title>
<g id="a_node11"><a xlink:href="Z2SceneMgr_8h.html" target="_top" xlink:title=" ">
<polygon fill="white" stroke="black" points="1724,-257.5 1724,-287.5 1865,-287.5 1865,-257.5 1724,-257.5"/>
<text text-anchor="start" x="1732" y="-275.5" font-family="Helvetica,sans-Serif" font-size="10.00">include/Z2AudioLib</text>
<text text-anchor="middle" x="1794.5" y="-264.5" font-family="Helvetica,sans-Serif" font-size="10.00">/Z2SceneMgr/Z2SceneMgr.h</text>
</a>
</g>
</g>
<!-- Node1&#45;&gt;Node11 -->
<g id="edge10" class="edge">
<title>Node1&#45;&gt;Node11</title>
<path fill="none" stroke="midnightblue" d="M1530.57,-324.86C1587.34,-313.82 1666.97,-298.32 1723.88,-287.24"/>
<polygon fill="midnightblue" stroke="midnightblue" points="1529.75,-321.46 1520.6,-326.8 1531.08,-328.33 1529.75,-321.46"/>
</g>
<!-- Node31 -->
<g id="node31" class="node">
<title>Node31</title>
<g id="a_node31"><a xlink:href="Z2SeMgr_8h.html" target="_top" xlink:title=" ">
<polygon fill="white" stroke="black" points="1716.5,-123.5 1716.5,-153.5 1826.5,-153.5 1826.5,-123.5 1716.5,-123.5"/>
<text text-anchor="start" x="1724.5" y="-141.5" font-family="Helvetica,sans-Serif" font-size="10.00">include/Z2AudioLib</text>
<text text-anchor="middle" x="1771.5" y="-130.5" font-family="Helvetica,sans-Serif" font-size="10.00">/Z2SeMgr/Z2SeMgr.h</text>
</a>
</g>
</g>
<!-- Node1&#45;&gt;Node31 -->
<g id="edge40" class="edge">
<title>Node1&#45;&gt;Node31</title>
<path fill="none" stroke="midnightblue" d="M1491.54,-318.64C1554.28,-278.49 1694.86,-188.54 1749.34,-153.68"/>
<polygon fill="midnightblue" stroke="midnightblue" points="1489.4,-315.85 1482.87,-324.19 1493.18,-321.75 1489.4,-315.85"/>
</g>
<!-- Node11&#45;&gt;Node5 -->
<g id="edge12" class="edge">
<title>Node11&#45;&gt;Node5</title>
<path fill="none" stroke="midnightblue" d="M1875.12,-259.85C1944.04,-249.81 2045.84,-234.81 2134.5,-221 2146.57,-219.12 2159.54,-217.04 2171.75,-215.06"/>
<polygon fill="midnightblue" stroke="midnightblue" points="1874.59,-256.39 1865.2,-261.29 1875.6,-263.32 1874.59,-256.39"/>
</g>
<!-- Node11&#45;&gt;Node8 -->
<g id="edge13" class="edge">
<title>Node11&#45;&gt;Node8</title>
<path fill="none" stroke="midnightblue" d="M1720.57,-254.81C1689.04,-246.49 1652.26,-235.14 1620.5,-221 1568.9,-198.03 1558.48,-186.81 1512.5,-154 1494.76,-141.34 1494.88,-130.72 1474.5,-123 1381.54,-87.77 679.2,-98.85 580.5,-87 577.71,-86.67 574.88,-86.28 572.01,-85.86"/>
<polygon fill="midnightblue" stroke="midnightblue" points="1720.06,-258.29 1730.61,-257.41 1721.81,-251.52 1720.06,-258.29"/>
</g>
<!-- Node12 -->
<g id="node12" class="node">
<title>Node12</title>
<g id="a_node12"><a xlink:href="Z2SceneMgr_8cpp.html" target="_top" xlink:title=" ">
<polygon fill="white" stroke="black" points="769,-62 769,-81 930,-81 930,-62 769,-62"/>
<text text-anchor="middle" x="849.5" y="-69" font-family="Helvetica,sans-Serif" font-size="10.00">libs/Z2AudioLib/Z2SceneMgr.cpp</text>
</a>
</g>
</g>
<!-- Node11&#45;&gt;Node12 -->
<g id="edge11" class="edge">
<title>Node11&#45;&gt;Node12</title>
<path fill="none" stroke="midnightblue" d="M1752.23,-253.32C1703.57,-231.8 1621.83,-193.83 1555.5,-154 1535.3,-141.87 1534.67,-130.97 1512.5,-123 1397.66,-81.71 1085.98,-98.64 964.5,-87 947.27,-85.35 928.64,-83.17 911.49,-81.01"/>
<polygon fill="midnightblue" stroke="midnightblue" points="1750.94,-256.57 1761.5,-257.4 1753.76,-250.17 1750.94,-256.57"/>
</g>
<!-- Node13 -->
<g id="node13" class="node">
<title>Node13</title>
<g id="a_node13"><a xlink:href="Z2AudioMgr_8h.html" target="_top" xlink:title=" ">
<polygon fill="white" stroke="black" points="1929,-190.5 1929,-220.5 2064,-220.5 2064,-190.5 1929,-190.5"/>
<text text-anchor="start" x="1937" y="-208.5" font-family="Helvetica,sans-Serif" font-size="10.00">include/Z2AudioLib</text>
<text text-anchor="middle" x="1996.5" y="-197.5" font-family="Helvetica,sans-Serif" font-size="10.00">/Z2AudioMgr/Z2AudioMgr.h</text>
</a>
</g>
</g>
<!-- Node11&#45;&gt;Node13 -->
<g id="edge14" class="edge">
<title>Node11&#45;&gt;Node13</title>
<path fill="none" stroke="midnightblue" d="M1848.18,-254.23C1880.85,-243.71 1922.07,-230.45 1952.75,-220.58"/>
<polygon fill="midnightblue" stroke="midnightblue" points="1846.78,-251 1838.33,-257.4 1848.92,-257.66 1846.78,-251"/>
</g>
<!-- Node30 -->
<g id="node30" class="node">
<title>Node30</title>
<g id="a_node30"><a xlink:href="Z2AudioLib_8h.html" target="_top" xlink:title=" ">
<polygon fill="white" stroke="black" points="3245.5,-56.5 3245.5,-86.5 3345.5,-86.5 3345.5,-56.5 3245.5,-56.5"/>
<text text-anchor="start" x="3253.5" y="-74.5" font-family="Helvetica,sans-Serif" font-size="10.00">include/Z2AudioLib</text>
<text text-anchor="middle" x="3295.5" y="-63.5" font-family="Helvetica,sans-Serif" font-size="10.00">/Z2AudioLib.h</text>
</a>
</g>
</g>
<!-- Node11&#45;&gt;Node30 -->
<g id="edge39" class="edge">
<title>Node11&#45;&gt;Node30</title>
<path fill="none" stroke="midnightblue" d="M1875.13,-256.01C1961.52,-240.85 1988.24,-247.47 2072.5,-221 2103.8,-211.16 2109.3,-202.82 2139.5,-190 2215.4,-157.78 2231.76,-139.72 2312.5,-123 2714.94,-39.65 2829.54,-144.33 3236.5,-87 3239.42,-86.59 3242.42,-86.09 3245.42,-85.54"/>
<polygon fill="midnightblue" stroke="midnightblue" points="1874.37,-252.59 1865.16,-257.81 1875.62,-259.48 1874.37,-252.59"/>
</g>
<!-- Node14 -->
<g id="node14" class="node">
<title>Node14</title>
<g id="a_node14"><a xlink:href="d__save_8cpp.html" target="_top" xlink:title=" ">
<polygon fill="white" stroke="black" points="1845,-129 1845,-148 1970,-148 1970,-129 1845,-129"/>
<text text-anchor="middle" x="1907.5" y="-136" font-family="Helvetica,sans-Serif" font-size="10.00">src/d/d_save/d_save.cpp</text>
</a>
</g>
</g>
<!-- Node13&#45;&gt;Node14 -->
<g id="edge15" class="edge">
<title>Node13&#45;&gt;Node14</title>
<path fill="none" stroke="midnightblue" d="M1968.85,-184.31C1952.14,-172.1 1931.7,-157.18 1919.15,-148.01"/>
<polygon fill="midnightblue" stroke="midnightblue" points="1967.05,-187.32 1977.19,-190.4 1971.18,-181.67 1967.05,-187.32"/>
</g>
<!-- Node15 -->
<g id="node15" class="node">
<title>Node15</title>
<g id="a_node15"><a xlink:href="m__Do__Reset_8cpp.html" target="_top" xlink:title=" ">
<polygon fill="white" stroke="black" points="1988.5,-129 1988.5,-148 2124.5,-148 2124.5,-129 1988.5,-129"/>
<text text-anchor="middle" x="2056.5" y="-136" font-family="Helvetica,sans-Serif" font-size="10.00">src/m_Do/m_Do_Reset.cpp</text>
</a>
</g>
</g>
<!-- Node13&#45;&gt;Node15 -->
<g id="edge16" class="edge">
<title>Node13&#45;&gt;Node15</title>
<path fill="none" stroke="midnightblue" d="M2016.35,-183C2027.3,-171.13 2040.3,-157.05 2048.47,-148.19"/>
<polygon fill="midnightblue" stroke="midnightblue" points="2013.73,-180.67 2009.52,-190.4 2018.87,-185.42 2013.73,-180.67"/>
</g>
<!-- Node16 -->
<g id="node16" class="node">
<title>Node16</title>
<g id="a_node16"><a xlink:href="Z2AudioMgr_8cpp.html" target="_top" xlink:title=" ">
<polygon fill="white" stroke="black" points="2527.5,-62 2527.5,-81 2685.5,-81 2685.5,-62 2527.5,-62"/>
<text text-anchor="middle" x="2606.5" y="-69" font-family="Helvetica,sans-Serif" font-size="10.00">libs/Z2AudioLib/Z2AudioMgr.cpp</text>
</a>
</g>
</g>
<!-- Node13&#45;&gt;Node16 -->
<g id="edge17" class="edge">
<title>Node13&#45;&gt;Node16</title>
<path fill="none" stroke="midnightblue" d="M2053.91,-187.22C2079.02,-178.69 2108.41,-167.35 2133.5,-154 2154.3,-142.94 2154.49,-131.41 2176.5,-123 2318.86,-68.61 2366.46,-107.26 2517.5,-87 2530.38,-85.27 2544.26,-83.14 2557.14,-81.05"/>
<polygon fill="midnightblue" stroke="midnightblue" points="2052.53,-183.99 2044.15,-190.47 2054.75,-190.63 2052.53,-183.99"/>
</g>
<!-- Node17 -->
<g id="node17" class="node">
<title>Node17</title>
<g id="a_node17"><a xlink:href="m__Do__audio_8h.html" target="_top" xlink:title=" ">
<polygon fill="white" stroke="black" points="1565,-123.5 1565,-153.5 1698,-153.5 1698,-123.5 1565,-123.5"/>
<text text-anchor="start" x="1573" y="-141.5" font-family="Helvetica,sans-Serif" font-size="10.00">include/m_Do/m_Do_audio</text>
<text text-anchor="middle" x="1631.5" y="-130.5" font-family="Helvetica,sans-Serif" font-size="10.00">/m_Do_audio.h</text>
</a>
</g>
</g>
<!-- Node13&#45;&gt;Node17 -->
<g id="edge18" class="edge">
<title>Node13&#45;&gt;Node17</title>
<path fill="none" stroke="midnightblue" d="M1918.85,-191.27C1860.63,-181.27 1779.02,-167.07 1707.5,-154 1704.46,-153.44 1701.35,-152.87 1698.22,-152.29"/>
<polygon fill="midnightblue" stroke="midnightblue" points="1918.26,-194.72 1928.71,-192.96 1919.45,-187.82 1918.26,-194.72"/>
</g>
<!-- Node13&#45;&gt;Node30 -->
<g id="edge37" class="edge">
<title>Node13&#45;&gt;Node30</title>
<path fill="none" stroke="midnightblue" d="M2072.65,-187.88C2103.53,-179.72 2139.03,-168.48 2169.5,-154 2191.44,-143.58 2191.44,-130.62 2214.5,-123 2430.27,-51.68 3011.41,-118.28 3236.5,-87 3239.43,-86.59 3242.42,-86.1 3245.42,-85.55"/>
<polygon fill="midnightblue" stroke="midnightblue" points="2071.61,-184.54 2062.8,-190.43 2073.36,-191.32 2071.61,-184.54"/>
</g>
<!-- Node17&#45;&gt;Node2 -->
<g id="edge21" class="edge">
<title>Node17&#45;&gt;Node2</title>
<path fill="none" stroke="midnightblue" d="M1554.66,-136.71C1288.66,-133.71 408.03,-121.35 127.5,-87 124.74,-86.66 121.93,-86.27 119.1,-85.83"/>
<polygon fill="midnightblue" stroke="midnightblue" points="1554.95,-140.22 1564.99,-136.83 1555.03,-133.22 1554.95,-140.22"/>
</g>
<!-- Node17&#45;&gt;Node3 -->
<g id="edge28" class="edge">
<title>Node17&#45;&gt;Node3</title>
<path fill="none" stroke="midnightblue" d="M1554.53,-136.41C1304.55,-132.6 517.01,-118.35 264.5,-87 253.48,-85.63 241.6,-83.37 230.9,-81.04"/>
<polygon fill="midnightblue" stroke="midnightblue" points="1554.56,-139.91 1564.62,-136.56 1554.67,-132.91 1554.56,-139.91"/>
</g>
<!-- Node17&#45;&gt;Node4 -->
<g id="edge32" class="edge">
<title>Node17&#45;&gt;Node4</title>
<path fill="none" stroke="midnightblue" d="M1554.91,-132.25C1509.47,-129.26 1450.72,-125.6 1398.5,-123 970.73,-101.7 861.52,-131.11 435.5,-87 421.95,-85.6 407.29,-83.36 394.03,-81.06"/>
<polygon fill="midnightblue" stroke="midnightblue" points="1554.78,-135.75 1564.99,-132.92 1555.24,-128.77 1554.78,-135.75"/>
</g>
<!-- Node17&#45;&gt;Node6 -->
<g id="edge34" class="edge">
<title>Node17&#45;&gt;Node6</title>
<path fill="none" stroke="midnightblue" d="M1554.76,-127.31C1540.72,-125.68 1526.18,-124.16 1512.5,-123 1178.65,-94.72 1092.72,-121.99 759.5,-87 745.49,-85.53 730.33,-83.3 716.56,-81.03"/>
<polygon fill="midnightblue" stroke="midnightblue" points="1554.53,-130.81 1564.87,-128.51 1555.36,-123.86 1554.53,-130.81"/>
</g>
<!-- Node17&#45;&gt;Node9 -->
<g id="edge36" class="edge">
<title>Node17&#45;&gt;Node9</title>
<path fill="none" stroke="midnightblue" d="M1708.16,-123.09C2507.27,-40.61 2717.89,-171.11 3512.5,-87 3515.53,-86.68 3518.63,-86.3 3521.75,-85.87"/>
<polygon fill="midnightblue" stroke="midnightblue" points="1707.72,-119.61 1698.13,-124.13 1708.44,-126.58 1707.72,-119.61"/>
</g>
<!-- Node17&#45;&gt;Node16 -->
<g id="edge31" class="edge">
<title>Node17&#45;&gt;Node16</title>
<path fill="none" stroke="midnightblue" d="M1708.3,-123.04C2067.17,-81.91 2162.38,-123.69 2517.5,-87 2531.51,-85.55 2546.68,-83.33 2560.44,-81.06"/>
<polygon fill="midnightblue" stroke="midnightblue" points="1707.67,-119.59 1698.14,-124.22 1708.48,-126.55 1707.67,-119.59"/>
</g>
<!-- Node18 -->
<g id="node18" class="node">
<title>Node18</title>
<g id="a_node18"><a xlink:href="d__attention_8cpp.html" target="_top" xlink:title=" ">
<polygon fill="white" stroke="black" points="1327,-62 1327,-81 1434,-81 1434,-62 1327,-62"/>
<text text-anchor="middle" x="1380.5" y="-69" font-family="Helvetica,sans-Serif" font-size="10.00">src/d/d_attention.cpp</text>
</a>
</g>
</g>
<!-- Node17&#45;&gt;Node18 -->
<g id="edge19" class="edge">
<title>Node17&#45;&gt;Node18</title>
<path fill="none" stroke="midnightblue" d="M1567.44,-120.91C1518.28,-108.18 1452.43,-91.13 1413.43,-81.03"/>
<polygon fill="midnightblue" stroke="midnightblue" points="1566.79,-124.36 1577.35,-123.48 1568.54,-117.58 1566.79,-124.36"/>
</g>
<!-- Node19 -->
<g id="node19" class="node">
<title>Node19</title>
<g id="a_node19"><a xlink:href="d__camera_8cpp.html" target="_top" xlink:title=" ">
<polygon fill="white" stroke="black" points="1451.5,-62 1451.5,-81 1553.5,-81 1553.5,-62 1451.5,-62"/>
<text text-anchor="middle" x="1502.5" y="-69" font-family="Helvetica,sans-Serif" font-size="10.00">src/d/d_camera.cpp</text>
</a>
</g>
</g>
<!-- Node17&#45;&gt;Node19 -->
<g id="edge20" class="edge">
<title>Node17&#45;&gt;Node19</title>
<path fill="none" stroke="midnightblue" d="M1594.39,-118.8C1569.66,-106.34 1538.33,-90.56 1519.38,-81.01"/>
<polygon fill="midnightblue" stroke="midnightblue" points="1593,-122.02 1603.51,-123.4 1596.15,-115.77 1593,-122.02"/>
</g>
<!-- Node20 -->
<g id="node20" class="node">
<title>Node20</title>
<g id="a_node20"><a xlink:href="d__kankyo__wether_8cpp.html" target="_top" xlink:title=" ">
<polygon fill="white" stroke="black" points="1572,-56.5 1572,-86.5 1699,-86.5 1699,-56.5 1572,-56.5"/>
<text text-anchor="start" x="1580" y="-74.5" font-family="Helvetica,sans-Serif" font-size="10.00">src/d/d_kankyo/d_kankyo</text>
<text text-anchor="middle" x="1635.5" y="-63.5" font-family="Helvetica,sans-Serif" font-size="10.00">_wether.cpp</text>
</a>
</g>
</g>
<!-- Node17&#45;&gt;Node20 -->
<g id="edge22" class="edge">
<title>Node17&#45;&gt;Node20</title>
<path fill="none" stroke="midnightblue" d="M1632.98,-113.4C1633.54,-104.37 1634.15,-94.41 1634.63,-86.58"/>
<polygon fill="midnightblue" stroke="midnightblue" points="1629.49,-113.2 1632.37,-123.4 1636.48,-113.63 1629.49,-113.2"/>
</g>
<!-- Node21 -->
<g id="node21" class="node">
<title>Node21</title>
<g id="a_node21"><a xlink:href="d__kankyo_8cpp.html" target="_top" xlink:title=" ">
<polygon fill="white" stroke="black" points="1717,-62 1717,-81 1818,-81 1818,-62 1717,-62"/>
<text text-anchor="middle" x="1767.5" y="-69" font-family="Helvetica,sans-Serif" font-size="10.00">src/d/d_kankyo.cpp</text>
</a>
</g>
</g>
<!-- Node17&#45;&gt;Node21 -->
<g id="edge23" class="edge">
<title>Node17&#45;&gt;Node21</title>
<path fill="none" stroke="midnightblue" d="M1670.28,-118.97C1696.4,-106.48 1729.63,-90.6 1749.7,-81.01"/>
<polygon fill="midnightblue" stroke="midnightblue" points="1668.52,-115.93 1661.01,-123.4 1671.54,-122.24 1668.52,-115.93"/>
</g>
<!-- Node22 -->
<g id="node22" class="node">
<title>Node22</title>
<g id="a_node22"><a xlink:href="d__meter__button_8cpp.html" target="_top" xlink:title=" ">
<polygon fill="white" stroke="black" points="1836,-56.5 1836,-86.5 1951,-86.5 1951,-56.5 1836,-56.5"/>
<text text-anchor="start" x="1844" y="-74.5" font-family="Helvetica,sans-Serif" font-size="10.00">src/d/d_meter/d_meter</text>
<text text-anchor="middle" x="1893.5" y="-63.5" font-family="Helvetica,sans-Serif" font-size="10.00">_button.cpp</text>
</a>
</g>
</g>
<!-- Node17&#45;&gt;Node22 -->
<g id="edge24" class="edge">
<title>Node17&#45;&gt;Node22</title>
<path fill="none" stroke="midnightblue" d="M1697.8,-121.05C1740.63,-110.43 1795.79,-96.74 1836.62,-86.61"/>
<polygon fill="midnightblue" stroke="midnightblue" points="1696.89,-117.67 1688.03,-123.48 1698.58,-124.47 1696.89,-117.67"/>
</g>
<!-- Node23 -->
<g id="node23" class="node">
<title>Node23</title>
<g id="a_node23"><a xlink:href="d__meter__map_8cpp.html" target="_top" xlink:title=" ">
<polygon fill="white" stroke="black" points="1969,-56.5 1969,-86.5 2084,-86.5 2084,-56.5 1969,-56.5"/>
<text text-anchor="start" x="1977" y="-74.5" font-family="Helvetica,sans-Serif" font-size="10.00">src/d/d_meter/d_meter</text>
<text text-anchor="middle" x="2026.5" y="-63.5" font-family="Helvetica,sans-Serif" font-size="10.00">_map.cpp</text>
</a>
</g>
</g>
<!-- Node17&#45;&gt;Node23 -->
<g id="edge25" class="edge">
<title>Node17&#45;&gt;Node23</title>
<path fill="none" stroke="midnightblue" d="M1708.25,-122.93C1820.81,-104.52 1851.29,-106.41 1959.5,-87 1962.55,-86.45 1965.66,-85.87 1968.81,-85.26"/>
<polygon fill="midnightblue" stroke="midnightblue" points="1707.49,-119.51 1698.2,-124.59 1708.63,-126.41 1707.49,-119.51"/>
</g>
<!-- Node24 -->
<g id="node24" class="node">
<title>Node24</title>
<g id="a_node24"><a xlink:href="d__meter2__draw_8cpp.html" target="_top" xlink:title=" ">
<polygon fill="white" stroke="black" points="2102,-56.5 2102,-86.5 2227,-86.5 2227,-56.5 2102,-56.5"/>
<text text-anchor="start" x="2110" y="-74.5" font-family="Helvetica,sans-Serif" font-size="10.00">src/d/d_meter2/d_meter2</text>
<text text-anchor="middle" x="2164.5" y="-63.5" font-family="Helvetica,sans-Serif" font-size="10.00">_draw.cpp</text>
</a>
</g>
</g>
<!-- Node17&#45;&gt;Node24 -->
<g id="edge26" class="edge">
<title>Node17&#45;&gt;Node24</title>
<path fill="none" stroke="midnightblue" d="M1708.28,-122.99C1879.41,-99.36 1925.71,-111.52 2092.5,-87 2095.53,-86.55 2098.62,-86.07 2101.74,-85.54"/>
<polygon fill="midnightblue" stroke="midnightblue" points="1707.59,-119.55 1698.17,-124.41 1708.56,-126.49 1707.59,-119.55"/>
</g>
<!-- Node25 -->
<g id="node25" class="node">
<title>Node25</title>
<g id="a_node25"><a xlink:href="d__meter2_8cpp.html" target="_top" xlink:title=" ">
<polygon fill="white" stroke="black" points="2245.5,-62 2245.5,-81 2345.5,-81 2345.5,-62 2245.5,-62"/>
<text text-anchor="middle" x="2295.5" y="-69" font-family="Helvetica,sans-Serif" font-size="10.00">src/d/d_meter2.cpp</text>
</a>
</g>
</g>
<!-- Node17&#45;&gt;Node25 -->
<g id="edge27" class="edge">
<title>Node17&#45;&gt;Node25</title>
<path fill="none" stroke="midnightblue" d="M1708.35,-123.01C1942.58,-93.74 2006.31,-122.25 2235.5,-87 2245.03,-85.53 2255.28,-83.31 2264.56,-81.03"/>
<polygon fill="midnightblue" stroke="midnightblue" points="1707.63,-119.58 1698.16,-124.31 1708.52,-126.52 1707.63,-119.58"/>
</g>
<!-- Node26 -->
<g id="node26" class="node">
<title>Node26</title>
<g id="a_node26"><a xlink:href="m__Do__audio_8cpp.html" target="_top" xlink:title=" ">
<polygon fill="white" stroke="black" points="2059.5,-0.5 2059.5,-19.5 2193.5,-19.5 2193.5,-0.5 2059.5,-0.5"/>
<text text-anchor="middle" x="2126.5" y="-7.5" font-family="Helvetica,sans-Serif" font-size="10.00">src/m_Do/m_Do_audio.cpp</text>
</a>
</g>
</g>
<!-- Node17&#45;&gt;Node26 -->
<g id="edge29" class="edge">
<title>Node17&#45;&gt;Node26</title>
<path fill="none" stroke="midnightblue" d="M1554.93,-123.56C1553.44,-123.36 1551.96,-123.18 1550.5,-123 1423.22,-107.66 888.64,-148.41 977.5,-56 1015.14,-16.86 1819.13,-11.74 2059.32,-11.09"/>
<polygon fill="midnightblue" stroke="midnightblue" points="1554.46,-127.02 1564.85,-124.94 1555.43,-120.09 1554.46,-127.02"/>
</g>
<!-- Node27 -->
<g id="node27" class="node">
<title>Node27</title>
<g id="a_node27"><a xlink:href="m__Do__main_8cpp.html" target="_top" xlink:title=" ">
<polygon fill="white" stroke="black" points="987,-62 987,-81 1118,-81 1118,-62 987,-62"/>
<text text-anchor="middle" x="1052.5" y="-69" font-family="Helvetica,sans-Serif" font-size="10.00">src/m_Do/m_Do_main.cpp</text>
</a>
</g>
</g>
<!-- Node17&#45;&gt;Node27 -->
<g id="edge30" class="edge">
<title>Node17&#45;&gt;Node27</title>
<path fill="none" stroke="midnightblue" d="M1554.92,-123.6C1553.44,-123.39 1551.96,-123.19 1550.5,-123 1363,-98.31 1313.8,-113.22 1126.5,-87 1115.22,-85.42 1103.06,-83.24 1091.92,-81.05"/>
<polygon fill="midnightblue" stroke="midnightblue" points="1554.43,-127.07 1564.83,-125.06 1555.45,-120.14 1554.43,-127.07"/>
</g>
<!-- Node28 -->
<g id="node28" class="node">
<title>Node28</title>
<g id="a_node28"><a xlink:href="Z2SeMgr_8cpp.html" target="_top" xlink:title=" ">
<polygon fill="white" stroke="black" points="2364,-62 2364,-81 2509,-81 2509,-62 2364,-62"/>
<text text-anchor="middle" x="2436.5" y="-69" font-family="Helvetica,sans-Serif" font-size="10.00">libs/Z2AudioLib/Z2SeMgr.cpp</text>
</a>
</g>
</g>
<!-- Node17&#45;&gt;Node28 -->
<g id="edge33" class="edge">
<title>Node17&#45;&gt;Node28</title>
<path fill="none" stroke="midnightblue" d="M1708.44,-123.02C1995.15,-88.68 2071.76,-119.75 2354.5,-87 2367.28,-85.52 2381.09,-83.32 2393.66,-81.07"/>
<polygon fill="midnightblue" stroke="midnightblue" points="1707.65,-119.58 1698.15,-124.26 1708.5,-126.53 1707.65,-119.58"/>
</g>
<!-- Node29 -->
<g id="node29" class="node">
<title>Node29</title>
<g id="a_node29"><a xlink:href="Z2SoundStarter_8cpp.html" target="_top" xlink:title=" ">
<polygon fill="white" stroke="black" points="1136,-62 1136,-81 1309,-81 1309,-62 1136,-62"/>
<text text-anchor="middle" x="1222.5" y="-69" font-family="Helvetica,sans-Serif" font-size="10.00">libs/Z2AudioLib/Z2SoundStarter.cpp</text>
</a>
</g>
</g>
<!-- Node17&#45;&gt;Node29 -->
<g id="edge35" class="edge">
<title>Node17&#45;&gt;Node29</title>
<path fill="none" stroke="midnightblue" d="M1554.9,-123.74C1553.42,-123.49 1551.95,-123.24 1550.5,-123 1524.25,-118.63 1365.06,-94.27 1278.48,-81.04"/>
<polygon fill="midnightblue" stroke="midnightblue" points="1554.33,-127.19 1564.78,-125.42 1555.51,-120.29 1554.33,-127.19"/>
</g>
<!-- Node30&#45;&gt;Node26 -->
<g id="edge38" class="edge">
<title>Node30&#45;&gt;Node26</title>
<path fill="none" stroke="midnightblue" d="M3235.51,-56.11C3014.47,-26.87 2398.83,-15.16 2193.81,-11.96"/>
<polygon fill="midnightblue" stroke="midnightblue" points="3235.04,-59.58 3245.42,-57.47 3235.99,-52.64 3235.04,-59.58"/>
</g>
<!-- Node31&#45;&gt;Node3 -->
<g id="edge49" class="edge">
<title>Node31&#45;&gt;Node3</title>
<path fill="none" stroke="midnightblue" d="M1705.94,-123.16C1068.36,-46.09 897.75,-161.77 264.5,-87 253.35,-85.68 241.33,-83.41 230.54,-81.05"/>
<polygon fill="midnightblue" stroke="midnightblue" points="1705.96,-126.68 1716.31,-124.42 1706.81,-119.74 1705.96,-126.68"/>
</g>
<!-- Node31&#45;&gt;Node4 -->
<g id="edge51" class="edge">
<title>Node31&#45;&gt;Node4</title>
<path fill="none" stroke="midnightblue" d="M1706.32,-123.2C1143.97,-54.2 994.57,-142.33 435.5,-87 421.79,-85.64 406.96,-83.39 393.58,-81.06"/>
<polygon fill="midnightblue" stroke="midnightblue" points="1705.95,-126.68 1716.31,-124.43 1706.81,-119.73 1705.95,-126.68"/>
</g>
<!-- Node31&#45;&gt;Node6 -->
<g id="edge56" class="edge">
<title>Node31&#45;&gt;Node6</title>
<path fill="none" stroke="midnightblue" d="M1706.34,-123.19C1287.05,-69.86 1175.32,-128.62 759.5,-87 745.32,-85.58 729.98,-83.34 716.09,-81.04"/>
<polygon fill="midnightblue" stroke="midnightblue" points="1705.94,-126.67 1716.3,-124.47 1706.83,-119.72 1705.94,-126.67"/>
</g>
<!-- Node31&#45;&gt;Node8 -->
<g id="edge58" class="edge">
<title>Node31&#45;&gt;Node8</title>
<path fill="none" stroke="midnightblue" d="M1706.34,-123.2C1208,-61.32 1074.59,-144.25 580.5,-87 577.71,-86.68 574.87,-86.3 572.01,-85.89"/>
<polygon fill="midnightblue" stroke="midnightblue" points="1705.95,-126.68 1716.31,-124.45 1706.82,-119.73 1705.95,-126.68"/>
</g>
<!-- Node31&#45;&gt;Node10 -->
<g id="edge59" class="edge">
<title>Node31&#45;&gt;Node10</title>
<path fill="none" stroke="midnightblue" d="M1836.94,-123.02C2507.51,-41.17 2686.2,-155.82 3354.5,-87 3357.41,-86.7 3360.38,-86.35 3363.37,-85.97"/>
<polygon fill="midnightblue" stroke="midnightblue" points="1836.03,-119.6 1826.54,-124.3 1836.89,-126.55 1836.03,-119.6"/>
</g>
<!-- Node31&#45;&gt;Node12 -->
<g id="edge54" class="edge">
<title>Node31&#45;&gt;Node12</title>
<path fill="none" stroke="midnightblue" d="M1706.18,-123.16C1383.28,-80.21 1297.51,-113 977.5,-87 958,-85.42 936.87,-83.22 917.51,-81.02"/>
<polygon fill="midnightblue" stroke="midnightblue" points="1705.92,-126.65 1716.3,-124.51 1706.85,-119.71 1705.92,-126.65"/>
</g>
<!-- Node31&#45;&gt;Node16 -->
<g id="edge50" class="edge">
<title>Node31&#45;&gt;Node16</title>
<path fill="none" stroke="midnightblue" d="M1836.89,-122.98C2137.97,-82.16 2219.1,-119.09 2517.5,-87 2531.35,-85.51 2546.33,-83.3 2559.98,-81.06"/>
<polygon fill="midnightblue" stroke="midnightblue" points="1835.98,-119.57 1826.55,-124.4 1836.93,-126.51 1835.98,-119.57"/>
</g>
<!-- Node31&#45;&gt;Node18 -->
<g id="edge41" class="edge">
<title>Node31&#45;&gt;Node18</title>
<path fill="none" stroke="midnightblue" d="M1706.09,-123.04C1588.18,-102.42 1555.77,-107.92 1442.5,-87 1433.37,-85.31 1423.55,-83.17 1414.49,-81.06"/>
<polygon fill="midnightblue" stroke="midnightblue" points="1705.79,-126.54 1716.25,-124.84 1707.01,-119.65 1705.79,-126.54"/>
</g>
<!-- Node31&#45;&gt;Node19 -->
<g id="edge42" class="edge">
<title>Node31&#45;&gt;Node19</title>
<path fill="none" stroke="midnightblue" d="M1706.42,-121.78C1653.41,-108.97 1580.57,-91.36 1537.82,-81.03"/>
<polygon fill="midnightblue" stroke="midnightblue" points="1705.87,-125.24 1716.41,-124.19 1707.52,-118.44 1705.87,-125.24"/>
</g>
<!-- Node31&#45;&gt;Node20 -->
<g id="edge43" class="edge">
<title>Node31&#45;&gt;Node20</title>
<path fill="none" stroke="midnightblue" d="M1732.78,-118.99C1711.22,-108.69 1684.81,-96.07 1664.95,-86.58"/>
<polygon fill="midnightblue" stroke="midnightblue" points="1731.46,-122.24 1741.99,-123.4 1734.48,-115.93 1731.46,-122.24"/>
</g>
<!-- Node31&#45;&gt;Node21 -->
<g id="edge44" class="edge">
<title>Node31&#45;&gt;Node21</title>
<path fill="none" stroke="midnightblue" d="M1770.01,-113.25C1769.32,-102.02 1768.54,-89.38 1768.04,-81.19"/>
<polygon fill="midnightblue" stroke="midnightblue" points="1766.52,-113.63 1770.63,-123.4 1773.51,-113.2 1766.52,-113.63"/>
</g>
<!-- Node31&#45;&gt;Node22 -->
<g id="edge45" class="edge">
<title>Node31&#45;&gt;Node22</title>
<path fill="none" stroke="midnightblue" d="M1807.02,-118.57C1826.21,-108.35 1849.5,-95.94 1867.08,-86.58"/>
<polygon fill="midnightblue" stroke="midnightblue" points="1805.15,-115.6 1797.97,-123.4 1808.44,-121.78 1805.15,-115.6"/>
</g>
<!-- Node31&#45;&gt;Node23 -->
<g id="edge46" class="edge">
<title>Node31&#45;&gt;Node23</title>
<path fill="none" stroke="midnightblue" d="M1836.29,-120.98C1877.94,-110.37 1931.48,-96.72 1971.14,-86.61"/>
<polygon fill="midnightblue" stroke="midnightblue" points="1835.34,-117.61 1826.52,-123.48 1837.07,-124.4 1835.34,-117.61"/>
</g>
<!-- Node31&#45;&gt;Node24 -->
<g id="edge47" class="edge">
<title>Node31&#45;&gt;Node24</title>
<path fill="none" stroke="midnightblue" d="M1836.77,-122.86C1950.71,-102.46 1982.02,-105.84 2092.5,-87 2095.52,-86.49 2098.6,-85.94 2101.71,-85.37"/>
<polygon fill="midnightblue" stroke="midnightblue" points="1835.81,-119.48 1826.6,-124.71 1837.06,-126.37 1835.81,-119.48"/>
</g>
<!-- Node31&#45;&gt;Node25 -->
<g id="edge48" class="edge">
<title>Node31&#45;&gt;Node25</title>
<path fill="none" stroke="midnightblue" d="M1836.48,-122.99C2013.58,-95.95 2062.56,-115.52 2235.5,-87 2244.8,-85.47 2254.8,-83.27 2263.92,-81.06"/>
<polygon fill="midnightblue" stroke="midnightblue" points="1835.91,-119.54 1826.57,-124.53 1836.99,-126.46 1835.91,-119.54"/>
</g>
<!-- Node31&#45;&gt;Node28 -->
<g id="edge55" class="edge">
<title>Node31&#45;&gt;Node28</title>
<path fill="none" stroke="midnightblue" d="M1836.55,-123.01C2066.01,-90.08 2128.25,-114.77 2354.5,-87 2367.13,-85.45 2380.76,-83.25 2393.22,-81.04"/>
<polygon fill="midnightblue" stroke="midnightblue" points="1835.95,-119.56 1826.56,-124.46 1836.96,-126.48 1835.95,-119.56"/>
</g>
<!-- Node31&#45;&gt;Node30 -->
<g id="edge60" class="edge">
<title>Node31&#45;&gt;Node30</title>
<path fill="none" stroke="midnightblue" d="M1836.6,-123.06C2455.36,-47.14 2622.47,-169.36 3236.5,-87 3239.43,-86.61 3242.42,-86.13 3245.43,-85.58"/>
<polygon fill="midnightblue" stroke="midnightblue" points="1836.03,-119.6 1826.54,-124.31 1836.89,-126.55 1836.03,-119.6"/>
</g>
<!-- Node32 -->
<g id="node32" class="node">
<title>Node32</title>
<g id="a_node32"><a xlink:href="Z2EnvSeMgr_8cpp.html" target="_top" xlink:title=" ">
<polygon fill="white" stroke="black" points="2704,-62 2704,-81 2865,-81 2865,-62 2704,-62"/>
<text text-anchor="middle" x="2784.5" y="-69" font-family="Helvetica,sans-Serif" font-size="10.00">libs/Z2AudioLib/Z2EnvSeMgr.cpp</text>
</a>
</g>
</g>
<!-- Node31&#45;&gt;Node32 -->
<g id="edge52" class="edge">
<title>Node31&#45;&gt;Node32</title>
<path fill="none" stroke="midnightblue" d="M1836.7,-123.02C2216.05,-73.5 2317.67,-125.12 2694.5,-87 2708.67,-85.57 2724,-83.35 2737.93,-81.08"/>
<polygon fill="midnightblue" stroke="midnightblue" points="1836,-119.59 1826.54,-124.36 1836.92,-126.53 1836,-119.59"/>
</g>
<!-- Node33 -->
<g id="node33" class="node">
<title>Node33</title>
<g id="a_node33"><a xlink:href="Z2LinkMgr_8cpp.html" target="_top" xlink:title=" ">
<polygon fill="white" stroke="black" points="2883.5,-62 2883.5,-81 3035.5,-81 3035.5,-62 2883.5,-62"/>
<text text-anchor="middle" x="2959.5" y="-69" font-family="Helvetica,sans-Serif" font-size="10.00">libs/Z2AudioLib/Z2LinkMgr.cpp</text>
</a>
</g>
</g>
<!-- Node31&#45;&gt;Node33 -->
<g id="edge53" class="edge">
<title>Node31&#45;&gt;Node33</title>
<path fill="none" stroke="midnightblue" d="M1836.75,-123.03C2295.52,-64.71 2418.2,-133.61 2874.5,-87 2888.2,-85.6 2903.03,-83.33 2916.41,-81"/>
<polygon fill="midnightblue" stroke="midnightblue" points="1836.01,-119.59 1826.54,-124.34 1836.9,-126.54 1836.01,-119.59"/>
</g>
<!-- Node34 -->
<g id="node34" class="node">
<title>Node34</title>
<g id="a_node34"><a xlink:href="Z2SoundObject_8cpp.html" target="_top" xlink:title=" ">
<polygon fill="white" stroke="black" points="3054,-62 3054,-81 3227,-81 3227,-62 3054,-62"/>
<text text-anchor="middle" x="3140.5" y="-69" font-family="Helvetica,sans-Serif" font-size="10.00">libs/Z2AudioLib/Z2SoundObject.cpp</text>
</a>
</g>
</g>
<!-- Node31&#45;&gt;Node34 -->
<g id="edge57" class="edge">
<title>Node31&#45;&gt;Node34</title>
<path fill="none" stroke="midnightblue" d="M1836.82,-123.03C2370.59,-56.3 2512.49,-134.92 3044.5,-87 3059.94,-85.61 3076.69,-83.34 3091.8,-81.02"/>
<polygon fill="midnightblue" stroke="midnightblue" points="1836.02,-119.6 1826.54,-124.32 1836.9,-126.54 1836.02,-119.6"/>
</g>
</g>
</svg>
