<?xml version="1.0" encoding="UTF-8" standalone="no"?>
<!DOCTYPE svg PUBLIC "-//W3C//DTD SVG 1.1//EN"
 "http://www.w3.org/Graphics/SVG/1.1/DTD/svg11.dtd">
<!-- Generated by graphviz version 2.46.0 (20210122.1329)
 -->
<!-- Title: include/Z2AudioLib/Z2SoundInfo/Z2SoundInfo.h Pages: 1 -->
<!--zoomable 542 -->
<svg id="main" version="1.1" xmlns="http://www.w3.org/2000/svg" xmlns:xlink="http://www.w3.org/1999/xlink" xml:space="preserve" onload="init(evt)">
<style type="text/css"><![CDATA[
.edge:hover path { stroke: red; }
.edge:hover polygon { stroke: red; fill: red; }
]]></style>
<script type="text/javascript"><![CDATA[
var edges = document.getElementsByTagName('g');
if (edges && edges.length) {
  for (var i=0;i<edges.length;i++) {
    if (edges[i].id.substr(0,4)=='edge') {
      edges[i].setAttribute('class','edge');
    }
  }
}
]]></script>
        <defs>
                <circle id="rim" cx="0" cy="0" r="7"/>
                <circle id="rim2" cx="0" cy="0" r="3.5"/>
                <g id="zoomPlus">
                        <use xlink:href="#rim" fill="#404040">
                                <set attributeName="fill" to="#808080" begin="zoomplus.mouseover" end="zoomplus.mouseout"/>
                        </use>
                        <path d="M-4,0h8M0,-4v8" fill="none" stroke="white" stroke-width="1.5" pointer-events="none"/>
                </g>
                <g id="zoomMin">
                        <use xlink:href="#rim" fill="#404040">
                                <set attributeName="fill" to="#808080" begin="zoomminus.mouseover" end="zoomminus.mouseout"/>
                        </use>
                        <path d="M-4,0h8" fill="none" stroke="white" stroke-width="1.5" pointer-events="none"/>
                </g>
                <g id="dirArrow">
                        <path fill="none" stroke="white" stroke-width="1.5" d="M0,-3.0v7 M-2.5,-0.5L0,-3.0L2.5,-0.5"/>
                </g>
               <g id="resetDef">
                       <use xlink:href="#rim2" fill="#404040">
                               <set attributeName="fill" to="#808080" begin="reset.mouseover" end="reset.mouseout"/>
                       </use>
               </g>
        </defs>

<script type="text/javascript">
var viewWidth = 841;
var viewHeight = 542;
var sectionId = 'dynsection-0';
</script>
<script xlink:href="svgpan.js"/>
<svg id="graph" class="graph">
<g id="viewport">
<title>include/Z2AudioLib/Z2SoundInfo/Z2SoundInfo.h</title>
<polygon fill="white" stroke="transparent" points="-4,4 -4,-538 836.5,-538 836.5,4 -4,4"/>
<!-- Node1 -->
<g id="node1" class="node">
<title>Node1</title>
<g id="a_node1"><a xlink:title=" ">
<polygon fill="#bfbfbf" stroke="black" points="0,-503.5 0,-533.5 141,-533.5 141,-503.5 0,-503.5"/>
<text text-anchor="start" x="8" y="-521.5" font-family="Helvetica,sans-Serif" font-size="10.00">include/Z2AudioLib</text>
<text text-anchor="middle" x="70.5" y="-510.5" font-family="Helvetica,sans-Serif" font-size="10.00">/Z2SoundInfo/Z2SoundInfo.h</text>
</a>
</g>
</g>
<!-- Node2 -->
<g id="node2" class="node">
<title>Node2</title>
<g id="a_node2"><a xlink:href="JAISound_8h.html" target="_top" xlink:title=" ">
<polygon fill="white" stroke="black" points="216,-436.5 216,-466.5 355,-466.5 355,-436.5 216,-436.5"/>
<text text-anchor="start" x="224" y="-454.5" font-family="Helvetica,sans-Serif" font-size="10.00">JSystem/JAudio2/JAISound</text>
<text text-anchor="middle" x="285.5" y="-443.5" font-family="Helvetica,sans-Serif" font-size="10.00">/JAISound.h</text>
</a>
</g>
</g>
<!-- Node1&#45;&gt;Node2 -->
<g id="edge1" class="edge">
<title>Node1&#45;&gt;Node2</title>
<path fill="none" stroke="midnightblue" d="M116.89,-503.48C149.84,-493.51 194.25,-480.09 229.23,-469.51"/>
<polygon fill="midnightblue" stroke="midnightblue" points="230.27,-472.86 238.83,-466.61 228.24,-466.15 230.27,-472.86"/>
</g>
<!-- Node4 -->
<g id="node4" class="node">
<title>Node4</title>
<g id="a_node4"><a xlink:href="types_8h.html" target="_top" xlink:title=" ">
<polygon fill="white" stroke="black" points="297,-0.5 297,-19.5 378,-19.5 378,-0.5 297,-0.5"/>
<text text-anchor="middle" x="337.5" y="-7.5" font-family="Helvetica,sans-Serif" font-size="10.00">dolphin/types.h</text>
</a>
</g>
</g>
<!-- Node1&#45;&gt;Node4 -->
<g id="edge35" class="edge">
<title>Node1&#45;&gt;Node4</title>
<path fill="none" stroke="midnightblue" d="M61.05,-503.39C46.81,-480.73 21.5,-434.34 21.5,-391 21.5,-391 21.5,-391 21.5,-137.5 21.5,-100.31 13.19,-81.25 40.5,-56 75.43,-23.71 211.39,-14.59 286.65,-12.01"/>
<polygon fill="midnightblue" stroke="midnightblue" points="286.97,-15.51 296.86,-11.69 286.75,-8.51 286.97,-15.51"/>
</g>
<!-- Node3 -->
<g id="node3" class="node">
<title>Node3</title>
<g id="a_node3"><a xlink:href="global_8h.html" target="_top" xlink:title=" ">
<polygon fill="white" stroke="black" points="437.5,-380.5 437.5,-399.5 487.5,-399.5 487.5,-380.5 437.5,-380.5"/>
<text text-anchor="middle" x="462.5" y="-387.5" font-family="Helvetica,sans-Serif" font-size="10.00">global.h</text>
</a>
</g>
</g>
<!-- Node2&#45;&gt;Node3 -->
<g id="edge2" class="edge">
<title>Node2&#45;&gt;Node3</title>
<path fill="none" stroke="midnightblue" d="M327.45,-436.4C357.99,-426.13 398.88,-412.39 427.63,-402.72"/>
<polygon fill="midnightblue" stroke="midnightblue" points="428.9,-405.99 437.26,-399.48 426.67,-399.35 428.9,-405.99"/>
</g>
<!-- Node3&#45;&gt;Node4 -->
<g id="edge3" class="edge">
<title>Node3&#45;&gt;Node4</title>
<path fill="none" stroke="midnightblue" d="M487.68,-386.71C521.55,-382.66 582.61,-371.82 626.5,-344 690.16,-303.65 731.15,-257.44 697.5,-190 638.96,-72.66 472.47,-31.14 387.99,-17.35"/>
<polygon fill="midnightblue" stroke="midnightblue" points="388.53,-13.9 378.11,-15.81 387.45,-20.81 388.53,-13.9"/>
</g>
<!-- Node5 -->
<g id="node5" class="node">
<title>Node5</title>
<g id="a_node5"><a xlink:href="AR_8h.html" target="_top" xlink:title=" ">
<polygon fill="white" stroke="black" points="730,-129 730,-148 779,-148 779,-129 730,-129"/>
<text text-anchor="middle" x="754.5" y="-136" font-family="Helvetica,sans-Serif" font-size="10.00">ar/AR.h</text>
</a>
</g>
</g>
<!-- Node3&#45;&gt;Node5 -->
<g id="edge4" class="edge">
<title>Node3&#45;&gt;Node5</title>
<path fill="none" stroke="midnightblue" d="M487.52,-388.49C547.58,-386.7 697.41,-378.77 730.5,-344 779.28,-292.75 766.98,-198.5 758.89,-158.38"/>
<polygon fill="midnightblue" stroke="midnightblue" points="762.26,-157.41 756.72,-148.38 755.41,-158.89 762.26,-157.41"/>
</g>
<!-- Node6 -->
<g id="node6" class="node">
<title>Node6</title>
<g id="a_node6"><a xlink:href="ARQ_8h.html" target="_top" xlink:title=" ">
<polygon fill="white" stroke="black" points="776.5,-62 776.5,-81 832.5,-81 832.5,-62 776.5,-62"/>
<text text-anchor="middle" x="804.5" y="-69" font-family="Helvetica,sans-Serif" font-size="10.00">ar/ARQ.h</text>
</a>
</g>
</g>
<!-- Node3&#45;&gt;Node6 -->
<g id="edge6" class="edge">
<title>Node3&#45;&gt;Node6</title>
<path fill="none" stroke="midnightblue" d="M487.89,-387.41C549.8,-383.16 706.73,-370.05 751.5,-344 786.09,-323.87 807.5,-313.52 807.5,-273.5 807.5,-273.5 807.5,-273.5 807.5,-204.5 807.5,-164.15 806.08,-116.87 805.2,-91.28"/>
<polygon fill="midnightblue" stroke="midnightblue" points="808.69,-91.02 804.83,-81.15 801.69,-91.27 808.69,-91.02"/>
</g>
<!-- Node7 -->
<g id="node7" class="node">
<title>Node7</title>
<g id="a_node7"><a xlink:href="functions_8h.html" target="_top" xlink:title=" ">
<polygon fill="white" stroke="black" points="203.5,-324.5 203.5,-343.5 267.5,-343.5 267.5,-324.5 203.5,-324.5"/>
<text text-anchor="middle" x="235.5" y="-331.5" font-family="Helvetica,sans-Serif" font-size="10.00">functions.h</text>
</a>
</g>
</g>
<!-- Node3&#45;&gt;Node7 -->
<g id="edge8" class="edge">
<title>Node3&#45;&gt;Node7</title>
<path fill="none" stroke="midnightblue" d="M437.34,-383.01C398.73,-373.83 324.43,-356.16 277.55,-345"/>
<polygon fill="midnightblue" stroke="midnightblue" points="278.24,-341.57 267.7,-342.66 276.62,-348.38 278.24,-341.57"/>
</g>
<!-- Node9 -->
<g id="node9" class="node">
<title>Node9</title>
<g id="a_node9"><a xlink:href="mwcc_8h.html" target="_top" xlink:title=" ">
<polygon fill="white" stroke="black" points="249.5,-263 249.5,-282 299.5,-282 299.5,-263 249.5,-263"/>
<text text-anchor="middle" x="274.5" y="-270" font-family="Helvetica,sans-Serif" font-size="10.00">mwcc.h</text>
</a>
</g>
</g>
<!-- Node3&#45;&gt;Node9 -->
<g id="edge16" class="edge">
<title>Node3&#45;&gt;Node9</title>
<path fill="none" stroke="midnightblue" d="M437.36,-386.36C406.76,-382.05 354.83,-371.07 319.5,-344 301.72,-330.38 289.03,-307.59 281.75,-291.61"/>
<polygon fill="midnightblue" stroke="midnightblue" points="284.91,-290.08 277.75,-282.27 278.47,-292.84 284.91,-290.08"/>
</g>
<!-- Node10 -->
<g id="node10" class="node">
<title>Node10</title>
<g id="a_node10"><a xlink:href="OS_8h.html" target="_top" xlink:title=" ">
<polygon fill="white" stroke="black" points="107.5,-263 107.5,-282 159.5,-282 159.5,-263 107.5,-263"/>
<text text-anchor="middle" x="133.5" y="-270" font-family="Helvetica,sans-Serif" font-size="10.00">os/OS.h</text>
</a>
</g>
</g>
<!-- Node3&#45;&gt;Node10 -->
<g id="edge17" class="edge">
<title>Node3&#45;&gt;Node10</title>
<path fill="none" stroke="midnightblue" d="M437.3,-386.95C378.89,-381.87 236.04,-367.34 194.5,-344 172.09,-331.41 154.01,-307.3 143.51,-290.82"/>
<polygon fill="midnightblue" stroke="midnightblue" points="146.41,-288.86 138.23,-282.14 140.43,-292.5 146.41,-288.86"/>
</g>
<!-- Node12 -->
<g id="node12" class="node">
<title>Node12</title>
<g id="a_node12"><a xlink:href="variables_8h.html" target="_top" xlink:title=" ">
<polygon fill="white" stroke="black" points="431,-324.5 431,-343.5 494,-343.5 494,-324.5 431,-324.5"/>
<text text-anchor="middle" x="462.5" y="-331.5" font-family="Helvetica,sans-Serif" font-size="10.00">variables.h</text>
</a>
</g>
</g>
<!-- Node3&#45;&gt;Node12 -->
<g id="edge18" class="edge">
<title>Node3&#45;&gt;Node12</title>
<path fill="none" stroke="midnightblue" d="M462.5,-380.08C462.5,-373.01 462.5,-362.86 462.5,-353.99"/>
<polygon fill="midnightblue" stroke="midnightblue" points="466,-353.75 462.5,-343.75 459,-353.75 466,-353.75"/>
</g>
<!-- Node5&#45;&gt;Node4 -->
<g id="edge5" class="edge">
<title>Node5&#45;&gt;Node4</title>
<path fill="none" stroke="midnightblue" d="M753.15,-128.86C749.98,-111.77 740.37,-73.81 715.5,-56 664.15,-19.23 478.77,-12.28 388.12,-11.12"/>
<polygon fill="midnightblue" stroke="midnightblue" points="388.11,-7.62 378.07,-11.01 388.03,-14.62 388.11,-7.62"/>
</g>
<!-- Node6&#45;&gt;Node4 -->
<g id="edge7" class="edge">
<title>Node6&#45;&gt;Node4</title>
<path fill="none" stroke="midnightblue" d="M780.93,-61.9C774.09,-59.68 766.57,-57.5 759.5,-56 627.4,-27.99 468.16,-17.02 388.34,-13.05"/>
<polygon fill="midnightblue" stroke="midnightblue" points="388.24,-9.54 378.08,-12.56 387.9,-16.53 388.24,-9.54"/>
</g>
<!-- Node8 -->
<g id="node8" class="node">
<title>Node8</title>
<g id="a_node8"><a xlink:href="mtx__vec_8h.html" target="_top" xlink:title=" ">
<polygon fill="white" stroke="black" points="146,-129 146,-148 207,-148 207,-129 146,-129"/>
<text text-anchor="middle" x="176.5" y="-136" font-family="Helvetica,sans-Serif" font-size="10.00">mtx_vec.h</text>
</a>
</g>
</g>
<!-- Node7&#45;&gt;Node8 -->
<g id="edge9" class="edge">
<title>Node7&#45;&gt;Node8</title>
<path fill="none" stroke="midnightblue" d="M232.89,-324.44C223.98,-295.22 194.66,-199.06 182.19,-158.17"/>
<polygon fill="midnightblue" stroke="midnightblue" points="185.48,-156.95 179.22,-148.41 178.78,-158.99 185.48,-156.95"/>
</g>
<!-- Node7&#45;&gt;Node9 -->
<g id="edge11" class="edge">
<title>Node7&#45;&gt;Node9</title>
<path fill="none" stroke="midnightblue" d="M241.09,-324.48C246.88,-315.64 256.09,-301.59 263.37,-290.48"/>
<polygon fill="midnightblue" stroke="midnightblue" points="266.37,-292.29 268.92,-282.01 260.51,-288.45 266.37,-292.29"/>
</g>
<!-- Node7&#45;&gt;Node10 -->
<g id="edge12" class="edge">
<title>Node7&#45;&gt;Node10</title>
<path fill="none" stroke="midnightblue" d="M220.89,-324.48C204.15,-314.71 176.5,-298.58 156.78,-287.08"/>
<polygon fill="midnightblue" stroke="midnightblue" points="158.49,-284.02 148.09,-282.01 154.96,-290.07 158.49,-284.02"/>
</g>
<!-- Node8&#45;&gt;Node4 -->
<g id="edge10" class="edge">
<title>Node8&#45;&gt;Node4</title>
<path fill="none" stroke="midnightblue" d="M179.15,-128.59C184.5,-112.05 198.13,-76.42 221.5,-56 239.98,-39.85 264.9,-29.18 286.91,-22.29"/>
<polygon fill="midnightblue" stroke="midnightblue" points="288.17,-25.57 296.78,-19.39 286.2,-18.85 288.17,-25.57"/>
</g>
<!-- Node10&#45;&gt;Node4 -->
<g id="edge13" class="edge">
<title>Node10&#45;&gt;Node4</title>
<path fill="none" stroke="midnightblue" d="M131.68,-262.74C127.21,-239.17 117.35,-172.83 136.5,-123 150.63,-86.24 161.58,-77.62 194.5,-56 222.33,-37.72 258.05,-26.48 286.83,-19.8"/>
<polygon fill="midnightblue" stroke="midnightblue" points="287.68,-23.19 296.69,-17.62 286.18,-16.36 287.68,-23.19"/>
</g>
<!-- Node11 -->
<g id="node11" class="node">
<title>Node11</title>
<g id="a_node11"><a xlink:href="dvd_8h.html" target="_top" xlink:title=" ">
<polygon fill="white" stroke="black" points="50,-62 50,-81 109,-81 109,-62 50,-62"/>
<text text-anchor="middle" x="79.5" y="-69" font-family="Helvetica,sans-Serif" font-size="10.00">dvd/dvd.h</text>
</a>
</g>
</g>
<!-- Node10&#45;&gt;Node11 -->
<g id="edge14" class="edge">
<title>Node10&#45;&gt;Node11</title>
<path fill="none" stroke="midnightblue" d="M126.87,-262.71C119.91,-253.02 109.21,-236.72 103.5,-221 87.29,-176.34 82,-120.15 80.29,-91.38"/>
<polygon fill="midnightblue" stroke="midnightblue" points="83.78,-90.96 79.77,-81.15 76.79,-91.32 83.78,-90.96"/>
</g>
<!-- Node11&#45;&gt;Node4 -->
<g id="edge15" class="edge">
<title>Node11&#45;&gt;Node4</title>
<path fill="none" stroke="midnightblue" d="M104.02,-61.88C110.33,-59.82 117.13,-57.71 123.5,-56 178.82,-41.12 243.28,-28.14 286.88,-20"/>
<polygon fill="midnightblue" stroke="midnightblue" points="287.76,-23.4 296.95,-18.14 286.48,-16.52 287.76,-23.4"/>
</g>
<!-- Node13 -->
<g id="node13" class="node">
<title>Node13</title>
<g id="a_node13"><a xlink:href="JSUList_8h.html" target="_top" xlink:title=" ">
<polygon fill="white" stroke="black" points="317.5,-56.5 317.5,-86.5 453.5,-86.5 453.5,-56.5 317.5,-56.5"/>
<text text-anchor="start" x="325.5" y="-74.5" font-family="Helvetica,sans-Serif" font-size="10.00">JSystem/JSupport/JSUList</text>
<text text-anchor="middle" x="385.5" y="-63.5" font-family="Helvetica,sans-Serif" font-size="10.00">/JSUList.h</text>
</a>
</g>
</g>
<!-- Node12&#45;&gt;Node13 -->
<g id="edge19" class="edge">
<title>Node12&#45;&gt;Node13</title>
<path fill="none" stroke="midnightblue" d="M437,-324.47C420.51,-317.48 400.36,-305.79 390.5,-288 383.82,-275.95 386.77,-270.26 390.5,-257 395.58,-238.95 405.97,-238.58 412.5,-221 427.76,-179.91 437.39,-164.57 423.5,-123 420.06,-112.7 413.59,-102.81 406.96,-94.56"/>
<polygon fill="midnightblue" stroke="midnightblue" points="409.55,-92.2 400.38,-86.9 404.24,-96.76 409.55,-92.2"/>
</g>
<!-- Node14 -->
<g id="node14" class="node">
<title>Node14</title>
<g id="a_node14"><a xlink:href="JUTXfb_8h.html" target="_top" xlink:title=" ">
<polygon fill="white" stroke="black" points="400,-257.5 400,-287.5 525,-287.5 525,-257.5 400,-257.5"/>
<text text-anchor="start" x="408" y="-275.5" font-family="Helvetica,sans-Serif" font-size="10.00">JSystem/JUtility/JUTXfb</text>
<text text-anchor="middle" x="462.5" y="-264.5" font-family="Helvetica,sans-Serif" font-size="10.00">/JUTXfb.h</text>
</a>
</g>
</g>
<!-- Node12&#45;&gt;Node14 -->
<g id="edge21" class="edge">
<title>Node12&#45;&gt;Node14</title>
<path fill="none" stroke="midnightblue" d="M462.5,-324.48C462.5,-317.47 462.5,-307.19 462.5,-297.7"/>
<polygon fill="midnightblue" stroke="midnightblue" points="466,-297.52 462.5,-287.52 459,-297.52 466,-297.52"/>
</g>
<!-- Node18 -->
<g id="node18" class="node">
<title>Node18</title>
<g id="a_node18"><a xlink:href="c__xyz_8h.html" target="_top" xlink:title=" ">
<polygon fill="white" stroke="black" points="543,-263 543,-282 650,-282 650,-263 543,-263"/>
<text text-anchor="middle" x="596.5" y="-270" font-family="Helvetica,sans-Serif" font-size="10.00">SComponent/c_xyz.h</text>
</a>
</g>
</g>
<!-- Node12&#45;&gt;Node18 -->
<g id="edge31" class="edge">
<title>Node12&#45;&gt;Node18</title>
<path fill="none" stroke="midnightblue" d="M481.7,-324.48C504.29,-314.45 542,-297.7 568,-286.15"/>
<polygon fill="midnightblue" stroke="midnightblue" points="569.62,-289.27 577.34,-282.01 566.78,-282.87 569.62,-289.27"/>
</g>
<!-- Node13&#45;&gt;Node4 -->
<g id="edge20" class="edge">
<title>Node13&#45;&gt;Node4</title>
<path fill="none" stroke="midnightblue" d="M374.12,-56.4C367.15,-47.75 358.19,-36.64 350.87,-27.58"/>
<polygon fill="midnightblue" stroke="midnightblue" points="353.49,-25.24 344.48,-19.66 348.04,-29.64 353.49,-25.24"/>
</g>
<!-- Node14&#45;&gt;Node4 -->
<g id="edge28" class="edge">
<title>Node14&#45;&gt;Node4</title>
<path fill="none" stroke="midnightblue" d="M467.57,-257.27C479.81,-220.17 506.82,-119.06 462.5,-56 445.74,-32.16 415.07,-20.89 388.31,-15.59"/>
<polygon fill="midnightblue" stroke="midnightblue" points="388.73,-12.11 378.28,-13.84 387.53,-19 388.73,-12.11"/>
</g>
<!-- Node15 -->
<g id="node15" class="node">
<title>Node15</title>
<g id="a_node15"><a xlink:href="JKRHeap_8h.html" target="_top" xlink:title=" ">
<polygon fill="white" stroke="black" points="267.5,-190.5 267.5,-220.5 403.5,-220.5 403.5,-190.5 267.5,-190.5"/>
<text text-anchor="start" x="275.5" y="-208.5" font-family="Helvetica,sans-Serif" font-size="10.00">JSystem/JKernel/JKRHeap</text>
<text text-anchor="middle" x="335.5" y="-197.5" font-family="Helvetica,sans-Serif" font-size="10.00">/JKRHeap.h</text>
</a>
</g>
</g>
<!-- Node14&#45;&gt;Node15 -->
<g id="edge22" class="edge">
<title>Node14&#45;&gt;Node15</title>
<path fill="none" stroke="midnightblue" d="M434.94,-257.4C416.55,-247.98 392.17,-235.5 372.15,-225.26"/>
<polygon fill="midnightblue" stroke="midnightblue" points="373.5,-222.02 363,-220.58 370.31,-228.25 373.5,-222.02"/>
</g>
<!-- Node17 -->
<g id="node17" class="node">
<title>Node17</title>
<g id="a_node17"><a xlink:href="GX_8h.html" target="_top" xlink:title=" ">
<polygon fill="white" stroke="black" points="504,-196 504,-215 555,-215 555,-196 504,-196"/>
<text text-anchor="middle" x="529.5" y="-203" font-family="Helvetica,sans-Serif" font-size="10.00">gx/GX.h</text>
</a>
</g>
</g>
<!-- Node14&#45;&gt;Node17 -->
<g id="edge29" class="edge">
<title>Node14&#45;&gt;Node17</title>
<path fill="none" stroke="midnightblue" d="M477.04,-257.4C487.69,-247.06 502.16,-233.02 513.2,-222.31"/>
<polygon fill="midnightblue" stroke="midnightblue" points="515.8,-224.67 520.54,-215.19 510.92,-219.65 515.8,-224.67"/>
</g>
<!-- Node15&#45;&gt;Node3 -->
<g id="edge27" class="edge">
<title>Node15&#45;&gt;Node3</title>
<path fill="none" stroke="midnightblue" d="M336.99,-220.65C339.27,-237.65 344.81,-266.56 357.5,-288 379.08,-324.48 417.41,-356.48 441.3,-374.24"/>
<polygon fill="midnightblue" stroke="midnightblue" points="439.54,-377.28 449.69,-380.32 443.65,-371.62 439.54,-377.28"/>
</g>
<!-- Node15&#45;&gt;Node4 -->
<g id="edge26" class="edge">
<title>Node15&#45;&gt;Node4</title>
<path fill="none" stroke="midnightblue" d="M296.84,-190.37C280.73,-182.34 263.67,-170.52 254.5,-154 247.81,-141.95 250.29,-136.12 254.5,-123 267.18,-83.54 300.04,-46.75 320.41,-26.72"/>
<polygon fill="midnightblue" stroke="midnightblue" points="322.98,-29.1 327.78,-19.66 318.14,-24.05 322.98,-29.1"/>
</g>
<!-- Node16 -->
<g id="node16" class="node">
<title>Node16</title>
<g id="a_node16"><a xlink:href="JKRDisposer_8h.html" target="_top" xlink:title=" ">
<polygon fill="white" stroke="black" points="264,-123.5 264,-153.5 415,-153.5 415,-123.5 264,-123.5"/>
<text text-anchor="start" x="272" y="-141.5" font-family="Helvetica,sans-Serif" font-size="10.00">JSystem/JKernel/JKRDisposer</text>
<text text-anchor="middle" x="339.5" y="-130.5" font-family="Helvetica,sans-Serif" font-size="10.00">/JKRDisposer.h</text>
</a>
</g>
</g>
<!-- Node15&#45;&gt;Node16 -->
<g id="edge23" class="edge">
<title>Node15&#45;&gt;Node16</title>
<path fill="none" stroke="midnightblue" d="M336.37,-190.4C336.85,-182.56 337.46,-172.6 338.02,-163.57"/>
<polygon fill="midnightblue" stroke="midnightblue" points="341.51,-163.77 338.63,-153.58 334.53,-163.34 341.51,-163.77"/>
</g>
<!-- Node16&#45;&gt;Node4 -->
<g id="edge25" class="edge">
<title>Node16&#45;&gt;Node4</title>
<path fill="none" stroke="midnightblue" d="M327.96,-123.49C320.81,-113.88 312.3,-100.46 308.5,-87 304.76,-73.74 304.61,-69.22 308.5,-56 311.51,-45.76 317.65,-35.66 323.51,-27.63"/>
<polygon fill="midnightblue" stroke="midnightblue" points="326.43,-29.58 329.83,-19.54 320.91,-25.27 326.43,-29.58"/>
</g>
<!-- Node16&#45;&gt;Node13 -->
<g id="edge24" class="edge">
<title>Node16&#45;&gt;Node13</title>
<path fill="none" stroke="midnightblue" d="M349.48,-123.4C355.39,-115.05 363,-104.29 369.71,-94.81"/>
<polygon fill="midnightblue" stroke="midnightblue" points="372.62,-96.76 375.54,-86.58 366.9,-92.72 372.62,-96.76"/>
</g>
<!-- Node17&#45;&gt;Node4 -->
<g id="edge30" class="edge">
<title>Node17&#45;&gt;Node4</title>
<path fill="none" stroke="midnightblue" d="M530.3,-195.74C532.12,-170.41 533.73,-96.29 495.5,-56 467.89,-26.91 422.94,-16.2 388.03,-12.45"/>
<polygon fill="midnightblue" stroke="midnightblue" points="388.29,-8.96 378.01,-11.54 387.65,-15.93 388.29,-8.96"/>
</g>
<!-- Node18&#45;&gt;Node3 -->
<g id="edge34" class="edge">
<title>Node18&#45;&gt;Node3</title>
<path fill="none" stroke="midnightblue" d="M586.31,-282.28C563.6,-301.86 508.58,-349.28 480.16,-373.78"/>
<polygon fill="midnightblue" stroke="midnightblue" points="477.86,-371.14 472.57,-380.32 482.43,-376.44 477.86,-371.14"/>
</g>
<!-- Node19 -->
<g id="node19" class="node">
<title>Node19</title>
<g id="a_node19"><a xlink:href="c__math_8h.html" target="_top" xlink:title=" ">
<polygon fill="white" stroke="black" points="572.5,-196 572.5,-215 688.5,-215 688.5,-196 572.5,-196"/>
<text text-anchor="middle" x="630.5" y="-203" font-family="Helvetica,sans-Serif" font-size="10.00">SComponent/c_math.h</text>
</a>
</g>
</g>
<!-- Node18&#45;&gt;Node19 -->
<g id="edge32" class="edge">
<title>Node18&#45;&gt;Node19</title>
<path fill="none" stroke="midnightblue" d="M601.09,-262.73C606.23,-252.89 614.72,-236.66 621.26,-224.16"/>
<polygon fill="midnightblue" stroke="midnightblue" points="624.45,-225.61 625.99,-215.13 618.25,-222.37 624.45,-225.61"/>
</g>
<!-- Node19&#45;&gt;Node3 -->
<g id="edge33" class="edge">
<title>Node19&#45;&gt;Node3</title>
<path fill="none" stroke="midnightblue" d="M638.07,-215.12C650.71,-230.59 673.3,-263.73 658.5,-288 623.39,-345.58 543.78,-371.74 497.55,-382.46"/>
<polygon fill="midnightblue" stroke="midnightblue" points="496.68,-379.07 487.66,-384.63 498.18,-385.9 496.68,-379.07"/>
</g>
</g>
</svg>
        <g id="navigator" transform="translate(0 0)" fill="#404254">
                <rect fill="#f2f5e9" fill-opacity="0.5" stroke="#606060" stroke-width=".5" x="0" y="0" width="60" height="60"/>
                <use id="zoomplus" xlink:href="#zoomPlus" x="17" y="9" onmousedown="handleZoom(evt,'in')"/>
                <use id="zoomminus" xlink:href="#zoomMin" x="42" y="9" onmousedown="handleZoom(evt,'out')"/>
                <use id="reset" xlink:href="#resetDef" x="30" y="36" onmousedown="handleReset()"/>
                <g id="arrowUp" xlink:href="#dirArrow" transform="translate(30 24)" onmousedown="handlePan(0,-1)">
                  <use xlink:href="#rim" fill="#404040">
                        <set attributeName="fill" to="#808080" begin="arrowUp.mouseover" end="arrowUp.mouseout"/>
                  </use>
                  <path fill="none" stroke="white" stroke-width="1.5" d="M0,-3.0v7 M-2.5,-0.5L0,-3.0L2.5,-0.5"/>
                </g>
                <g id="arrowRight" xlink:href="#dirArrow" transform="rotate(90) translate(36 -43)" onmousedown="handlePan(1,0)">
                  <use xlink:href="#rim" fill="#404040">
                        <set attributeName="fill" to="#808080" begin="arrowRight.mouseover" end="arrowRight.mouseout"/>
                  </use>
                  <path fill="none" stroke="white" stroke-width="1.5" d="M0,-3.0v7 M-2.5,-0.5L0,-3.0L2.5,-0.5"/>
                </g>
                <g id="arrowDown" xlink:href="#dirArrow" transform="rotate(180) translate(-30 -48)" onmousedown="handlePan(0,1)">
                  <use xlink:href="#rim" fill="#404040">
                        <set attributeName="fill" to="#808080" begin="arrowDown.mouseover" end="arrowDown.mouseout"/>
                  </use>
                  <path fill="none" stroke="white" stroke-width="1.5" d="M0,-3.0v7 M-2.5,-0.5L0,-3.0L2.5,-0.5"/>
                </g>
                <g id="arrowLeft" xlink:href="#dirArrow" transform="rotate(270) translate(-36 17)" onmousedown="handlePan(-1,0)">
                  <use xlink:href="#rim" fill="#404040">
                        <set attributeName="fill" to="#808080" begin="arrowLeft.mouseover" end="arrowLeft.mouseout"/>
                  </use>
                  <path fill="none" stroke="white" stroke-width="1.5" d="M0,-3.0v7 M-2.5,-0.5L0,-3.0L2.5,-0.5"/>
                </g>
        </g>
        <svg viewBox="0 0 15 15" width="100%" height="30px" preserveAspectRatio="xMaxYMin meet">
         <g id="arrow_out" transform="scale(0.3 0.3)">
          <a xlink:href="Z2SoundInfo_8h__incl_org.svg" target="_base">
           <rect id="button" ry="5" rx="5" y="6" x="6" height="38" width="38"
                fill="#f2f5e9" fill-opacity="0.5" stroke="#606060" stroke-width="1.0"/>
           <path id="arrow"
             d="M 11.500037,31.436501 C 11.940474,20.09759 22.043105,11.32322 32.158766,21.979434 L 37.068811,17.246167 C 37.068811,17.246167 37.088388,32 37.088388,32 L 22.160133,31.978069 C 22.160133,31.978069 26.997745,27.140456 26.997745,27.140456 C 18.528582,18.264221 13.291696,25.230495 11.500037,31.436501 z"
             style="fill:#404040;"/>
          </a>
         </g>
        </svg>
</svg>
