<?xml version="1.0" encoding="UTF-8" standalone="no"?>
<!DOCTYPE svg PUBLIC "-//W3C//DTD SVG 1.1//EN"
 "http://www.w3.org/Graphics/SVG/1.1/DTD/svg11.dtd">
<!-- Generated by graphviz version 2.46.0 (20210122.1329)
 -->
<!-- Title: include/Z2AudioLib/Z2SoundStarter/Z2SoundStarter.h Pages: 1 -->
<svg width="1863pt" height="162pt"
 viewBox="0.00 0.00 1862.50 162.00" xmlns="http://www.w3.org/2000/svg" xmlns:xlink="http://www.w3.org/1999/xlink">
<g id="graph0" class="graph" transform="scale(1 1) rotate(0) translate(4 158)">
<title>include/Z2AudioLib/Z2SoundStarter/Z2SoundStarter.h</title>
<polygon fill="white" stroke="transparent" points="-4,4 -4,-158 1858.5,-158 1858.5,4 -4,4"/>
<!-- Node1 -->
<g id="node1" class="node">
<title>Node1</title>
<g id="a_node1"><a xlink:title=" ">
<polygon fill="#bfbfbf" stroke="black" points="718.5,-123.5 718.5,-153.5 885.5,-153.5 885.5,-123.5 718.5,-123.5"/>
<text text-anchor="start" x="726.5" y="-141.5" font-family="Helvetica,sans-Serif" font-size="10.00">include/Z2AudioLib</text>
<text text-anchor="middle" x="802" y="-130.5" font-family="Helvetica,sans-Serif" font-size="10.00">/Z2SoundStarter/Z2SoundStarter.h</text>
</a>
</g>
</g>
<!-- Node2 -->
<g id="node2" class="node">
<title>Node2</title>
<g id="a_node2"><a xlink:href="Z2AudioMgr_8cpp.html" target="_top" xlink:title=" ">
<polygon fill="white" stroke="black" points="0,-62 0,-81 158,-81 158,-62 0,-62"/>
<text text-anchor="middle" x="79" y="-69" font-family="Helvetica,sans-Serif" font-size="10.00">libs/Z2AudioLib/Z2AudioMgr.cpp</text>
</a>
</g>
</g>
<!-- Node1&#45;&gt;Node2 -->
<g id="edge1" class="edge">
<title>Node1&#45;&gt;Node2</title>
<path fill="none" stroke="midnightblue" d="M708.08,-132.5C583.94,-125.33 358.53,-110.35 167,-87 153.78,-85.39 139.51,-83.22 126.39,-81.06"/>
<polygon fill="midnightblue" stroke="midnightblue" points="708.13,-136.01 718.31,-133.09 708.53,-129.02 708.13,-136.01"/>
</g>
<!-- Node3 -->
<g id="node3" class="node">
<title>Node3</title>
<g id="a_node3"><a xlink:href="Z2LinkMgr_8cpp.html" target="_top" xlink:title=" ">
<polygon fill="white" stroke="black" points="1203,-0.5 1203,-19.5 1355,-19.5 1355,-0.5 1203,-0.5"/>
<text text-anchor="middle" x="1279" y="-7.5" font-family="Helvetica,sans-Serif" font-size="10.00">libs/Z2AudioLib/Z2LinkMgr.cpp</text>
</a>
</g>
</g>
<!-- Node1&#45;&gt;Node3 -->
<g id="edge2" class="edge">
<title>Node1&#45;&gt;Node3</title>
<path fill="none" stroke="midnightblue" d="M895.99,-134.53C1031.59,-129.27 1268.82,-116 1295,-87 1312.17,-67.98 1295.04,-35.33 1285.07,-19.76"/>
<polygon fill="midnightblue" stroke="midnightblue" points="895.46,-131.05 885.6,-134.93 895.73,-138.05 895.46,-131.05"/>
</g>
<!-- Node4 -->
<g id="node4" class="node">
<title>Node4</title>
<g id="a_node4"><a xlink:href="Z2EnvSeMgr_8cpp.html" target="_top" xlink:title=" ">
<polygon fill="white" stroke="black" points="294.5,-62 294.5,-81 455.5,-81 455.5,-62 294.5,-62"/>
<text text-anchor="middle" x="375" y="-69" font-family="Helvetica,sans-Serif" font-size="10.00">libs/Z2AudioLib/Z2EnvSeMgr.cpp</text>
</a>
</g>
</g>
<!-- Node1&#45;&gt;Node4 -->
<g id="edge3" class="edge">
<title>Node1&#45;&gt;Node4</title>
<path fill="none" stroke="midnightblue" d="M708.03,-123.8C640.18,-113.82 546.38,-99.86 464,-87 451.94,-85.12 438.96,-83.03 426.75,-81.05"/>
<polygon fill="midnightblue" stroke="midnightblue" points="707.86,-127.31 718.26,-125.3 708.88,-120.39 707.86,-127.31"/>
</g>
<!-- Node5 -->
<g id="node5" class="node">
<title>Node5</title>
<g id="a_node5"><a xlink:href="Z2SeMgr_8cpp.html" target="_top" xlink:title=" ">
<polygon fill="white" stroke="black" points="473.5,-62 473.5,-81 618.5,-81 618.5,-62 473.5,-62"/>
<text text-anchor="middle" x="546" y="-69" font-family="Helvetica,sans-Serif" font-size="10.00">libs/Z2AudioLib/Z2SeMgr.cpp</text>
</a>
</g>
</g>
<!-- Node1&#45;&gt;Node5 -->
<g id="edge4" class="edge">
<title>Node1&#45;&gt;Node5</title>
<path fill="none" stroke="midnightblue" d="M736.98,-120.99C686.81,-108.25 619.45,-91.15 579.59,-81.03"/>
<polygon fill="midnightblue" stroke="midnightblue" points="736.21,-124.41 746.77,-123.48 737.94,-117.62 736.21,-124.41"/>
</g>
<!-- Node6 -->
<g id="node6" class="node">
<title>Node6</title>
<g id="a_node6"><a xlink:href="Z2SeqMgr_8cpp.html" target="_top" xlink:title=" ">
<polygon fill="white" stroke="black" points="637,-62 637,-81 787,-81 787,-62 637,-62"/>
<text text-anchor="middle" x="712" y="-69" font-family="Helvetica,sans-Serif" font-size="10.00">libs/Z2AudioLib/Z2SeqMgr.cpp</text>
</a>
</g>
</g>
<!-- Node1&#45;&gt;Node6 -->
<g id="edge5" class="edge">
<title>Node1&#45;&gt;Node6</title>
<path fill="none" stroke="midnightblue" d="M774.04,-117.31C757.14,-105.1 736.48,-90.18 723.78,-81.01"/>
<polygon fill="midnightblue" stroke="midnightblue" points="772.32,-120.38 782.47,-123.4 776.41,-114.7 772.32,-120.38"/>
</g>
<!-- Node7 -->
<g id="node7" class="node">
<title>Node7</title>
<g id="a_node7"><a xlink:href="Z2SoundStarter_8cpp.html" target="_top" xlink:title=" ">
<polygon fill="white" stroke="black" points="805.5,-62 805.5,-81 978.5,-81 978.5,-62 805.5,-62"/>
<text text-anchor="middle" x="892" y="-69" font-family="Helvetica,sans-Serif" font-size="10.00">libs/Z2AudioLib/Z2SoundStarter.cpp</text>
</a>
</g>
</g>
<!-- Node1&#45;&gt;Node7 -->
<g id="edge6" class="edge">
<title>Node1&#45;&gt;Node7</title>
<path fill="none" stroke="midnightblue" d="M829.96,-117.31C846.86,-105.1 867.52,-90.18 880.22,-81.01"/>
<polygon fill="midnightblue" stroke="midnightblue" points="827.59,-114.7 821.53,-123.4 831.68,-120.38 827.59,-114.7"/>
</g>
<!-- Node8 -->
<g id="node8" class="node">
<title>Node8</title>
<g id="a_node8"><a xlink:href="Z2SpeechMgr2_8cpp.html" target="_top" xlink:title=" ">
<polygon fill="white" stroke="black" points="996.5,-56.5 996.5,-86.5 1127.5,-86.5 1127.5,-56.5 996.5,-56.5"/>
<text text-anchor="start" x="1004.5" y="-74.5" font-family="Helvetica,sans-Serif" font-size="10.00">libs/Z2AudioLib/Z2Speech</text>
<text text-anchor="middle" x="1062" y="-63.5" font-family="Helvetica,sans-Serif" font-size="10.00">Mgr2.cpp</text>
</a>
</g>
</g>
<!-- Node1&#45;&gt;Node8 -->
<g id="edge7" class="edge">
<title>Node1&#45;&gt;Node8</title>
<path fill="none" stroke="midnightblue" d="M868.06,-120.98C910.53,-110.37 965.12,-96.72 1005.56,-86.61"/>
<polygon fill="midnightblue" stroke="midnightblue" points="866.95,-117.66 858.1,-123.48 868.65,-124.45 866.95,-117.66"/>
</g>
<!-- Node9 -->
<g id="node9" class="node">
<title>Node9</title>
<g id="a_node9"><a xlink:href="Z2WolfHowlMgr_8cpp.html" target="_top" xlink:title=" ">
<polygon fill="white" stroke="black" points="1146,-56.5 1146,-86.5 1286,-86.5 1286,-56.5 1146,-56.5"/>
<text text-anchor="start" x="1154" y="-74.5" font-family="Helvetica,sans-Serif" font-size="10.00">libs/Z2AudioLib/Z2WolfHowl</text>
<text text-anchor="middle" x="1216" y="-63.5" font-family="Helvetica,sans-Serif" font-size="10.00">Mgr.cpp</text>
</a>
</g>
</g>
<!-- Node1&#45;&gt;Node9 -->
<g id="edge8" class="edge">
<title>Node1&#45;&gt;Node9</title>
<path fill="none" stroke="midnightblue" d="M895.9,-124.16C963.13,-114.41 1055.75,-100.58 1137,-87 1139.89,-86.52 1142.83,-86.02 1145.81,-85.5"/>
<polygon fill="midnightblue" stroke="midnightblue" points="895.15,-120.73 885.75,-125.63 896.15,-127.66 895.15,-120.73"/>
</g>
<!-- Node10 -->
<g id="node10" class="node">
<title>Node10</title>
<g id="a_node10"><a xlink:href="Z2AudioLib_8h.html" target="_top" xlink:title=" ">
<polygon fill="white" stroke="black" points="176,-56.5 176,-86.5 276,-86.5 276,-56.5 176,-56.5"/>
<text text-anchor="start" x="184" y="-74.5" font-family="Helvetica,sans-Serif" font-size="10.00">include/Z2AudioLib</text>
<text text-anchor="middle" x="226" y="-63.5" font-family="Helvetica,sans-Serif" font-size="10.00">/Z2AudioLib.h</text>
</a>
</g>
</g>
<!-- Node1&#45;&gt;Node10 -->
<g id="edge9" class="edge">
<title>Node1&#45;&gt;Node10</title>
<path fill="none" stroke="midnightblue" d="M708.07,-132.39C604.06,-125.79 431.68,-112.06 285,-87 282.09,-86.5 279.11,-85.94 276.11,-85.33"/>
<polygon fill="midnightblue" stroke="midnightblue" points="708.04,-135.9 718.23,-133.03 708.47,-128.91 708.04,-135.9"/>
</g>
<!-- Node12 -->
<g id="node12" class="node">
<title>Node12</title>
<g id="a_node12"><a xlink:href="Z2SoundObject_8h.html" target="_top" xlink:title=" ">
<polygon fill="white" stroke="black" points="1377.5,-56.5 1377.5,-86.5 1542.5,-86.5 1542.5,-56.5 1377.5,-56.5"/>
<text text-anchor="start" x="1385.5" y="-74.5" font-family="Helvetica,sans-Serif" font-size="10.00">include/Z2AudioLib</text>
<text text-anchor="middle" x="1460" y="-63.5" font-family="Helvetica,sans-Serif" font-size="10.00">/Z2SoundObject/Z2SoundObject.h</text>
</a>
</g>
</g>
<!-- Node1&#45;&gt;Node12 -->
<g id="edge11" class="edge">
<title>Node1&#45;&gt;Node12</title>
<path fill="none" stroke="midnightblue" d="M895.81,-128.88C1001.05,-119.13 1176.83,-102.56 1328,-87 1343.94,-85.36 1360.95,-83.54 1377.28,-81.76"/>
<polygon fill="midnightblue" stroke="midnightblue" points="895.48,-125.4 885.85,-129.81 896.13,-132.37 895.48,-125.4"/>
</g>
<!-- Node11 -->
<g id="node11" class="node">
<title>Node11</title>
<g id="a_node11"><a xlink:href="m__Do__audio_8cpp.html" target="_top" xlink:title=" ">
<polygon fill="white" stroke="black" points="159,-0.5 159,-19.5 293,-19.5 293,-0.5 159,-0.5"/>
<text text-anchor="middle" x="226" y="-7.5" font-family="Helvetica,sans-Serif" font-size="10.00">src/m_Do/m_Do_audio.cpp</text>
</a>
</g>
</g>
<!-- Node10&#45;&gt;Node11 -->
<g id="edge10" class="edge">
<title>Node10&#45;&gt;Node11</title>
<path fill="none" stroke="midnightblue" d="M226,-46.29C226,-36.86 226,-26.65 226,-19.66"/>
<polygon fill="midnightblue" stroke="midnightblue" points="222.5,-46.4 226,-56.4 229.5,-46.4 222.5,-46.4"/>
</g>
<!-- Node12&#45;&gt;Node3 -->
<g id="edge14" class="edge">
<title>Node12&#45;&gt;Node3</title>
<path fill="none" stroke="midnightblue" d="M1407.43,-53.22C1373.83,-42.17 1331.71,-28.33 1305.07,-19.57"/>
<polygon fill="midnightblue" stroke="midnightblue" points="1406.51,-56.6 1417.11,-56.4 1408.7,-49.95 1406.51,-56.6"/>
</g>
<!-- Node13 -->
<g id="node13" class="node">
<title>Node13</title>
<g id="a_node13"><a xlink:href="d__a__alink_8cpp.html" target="_top" xlink:title=" ">
<polygon fill="white" stroke="black" points="1564.5,-0.5 1564.5,-19.5 1683.5,-19.5 1683.5,-0.5 1564.5,-0.5"/>
<text text-anchor="middle" x="1624" y="-7.5" font-family="Helvetica,sans-Serif" font-size="10.00">src/d/d_a/d_a_alink.cpp</text>
</a>
</g>
</g>
<!-- Node12&#45;&gt;Node13 -->
<g id="edge12" class="edge">
<title>Node12&#45;&gt;Node13</title>
<path fill="none" stroke="midnightblue" d="M1508.39,-52.94C1538.61,-41.98 1576.18,-28.35 1600.14,-19.66"/>
<polygon fill="midnightblue" stroke="midnightblue" points="1507.07,-49.7 1498.87,-56.4 1509.46,-56.28 1507.07,-49.7"/>
</g>
<!-- Node14 -->
<g id="node14" class="node">
<title>Node14</title>
<g id="a_node14"><a xlink:href="Z2Creature_8cpp.html" target="_top" xlink:title=" ">
<polygon fill="white" stroke="black" points="1701.5,-0.5 1701.5,-19.5 1854.5,-19.5 1854.5,-0.5 1701.5,-0.5"/>
<text text-anchor="middle" x="1778" y="-7.5" font-family="Helvetica,sans-Serif" font-size="10.00">libs/Z2AudioLib/Z2Creature.cpp</text>
</a>
</g>
</g>
<!-- Node12&#45;&gt;Node14 -->
<g id="edge13" class="edge">
<title>Node12&#45;&gt;Node14</title>
<path fill="none" stroke="midnightblue" d="M1544.85,-54.62C1605.13,-43.34 1683.75,-28.64 1732.54,-19.51"/>
<polygon fill="midnightblue" stroke="midnightblue" points="1544.14,-51.2 1534.96,-56.47 1545.43,-58.08 1544.14,-51.2"/>
</g>
<!-- Node15 -->
<g id="node15" class="node">
<title>Node15</title>
<g id="a_node15"><a xlink:href="Z2SoundObject_8cpp.html" target="_top" xlink:title=" ">
<polygon fill="white" stroke="black" points="1373.5,-0.5 1373.5,-19.5 1546.5,-19.5 1546.5,-0.5 1373.5,-0.5"/>
<text text-anchor="middle" x="1460" y="-7.5" font-family="Helvetica,sans-Serif" font-size="10.00">libs/Z2AudioLib/Z2SoundObject.cpp</text>
</a>
</g>
</g>
<!-- Node12&#45;&gt;Node15 -->
<g id="edge15" class="edge">
<title>Node12&#45;&gt;Node15</title>
<path fill="none" stroke="midnightblue" d="M1460,-46.29C1460,-36.86 1460,-26.65 1460,-19.66"/>
<polygon fill="midnightblue" stroke="midnightblue" points="1456.5,-46.4 1460,-56.4 1463.5,-46.4 1456.5,-46.4"/>
</g>
</g>
</svg>
