<?xml version="1.0" encoding="UTF-8" standalone="no"?>
<!DOCTYPE svg PUBLIC "-//W3C//DTD SVG 1.1//EN"
 "http://www.w3.org/Graphics/SVG/1.1/DTD/svg11.dtd">
<!-- Generated by graphviz version 2.46.1 (20210215.1649)
 -->
<!-- Title: include/Z2AudioLib/Z2SoundStarter/Z2SoundStarter.h Pages: 1 -->
<svg width="732pt" height="542pt"
 viewBox="0.00 0.00 731.50 542.00" xmlns="http://www.w3.org/2000/svg" xmlns:xlink="http://www.w3.org/1999/xlink">
<g id="graph0" class="graph" transform="scale(1 1) rotate(0) translate(4 538)">
<title>include/Z2AudioLib/Z2SoundStarter/Z2SoundStarter.h</title>
<polygon fill="white" stroke="transparent" points="-4,4 -4,-538 727.5,-538 727.5,4 -4,4"/>
<!-- Node1 -->
<g id="node1" class="node">
<title>Node1</title>
<g id="a_node1"><a xlink:title=" ">
<polygon fill="#bfbfbf" stroke="black" points="456.5,-503.5 456.5,-533.5 623.5,-533.5 623.5,-503.5 456.5,-503.5"/>
<text text-anchor="start" x="464.5" y="-521.5" font-family="Helvetica,sans-Serif" font-size="10.00">include/Z2AudioLib</text>
<text text-anchor="middle" x="540" y="-510.5" font-family="Helvetica,sans-Serif" font-size="10.00">/Z2SoundStarter/Z2SoundStarter.h</text>
</a>
</g>
</g>
<!-- Node2 -->
<g id="node2" class="node">
<title>Node2</title>
<g id="a_node2"><a xlink:href="JAISound_8h.html" target="_top" xlink:title=" ">
<polygon fill="white" stroke="black" points="421.5,-436.5 421.5,-466.5 560.5,-466.5 560.5,-436.5 421.5,-436.5"/>
<text text-anchor="start" x="429.5" y="-454.5" font-family="Helvetica,sans-Serif" font-size="10.00">JSystem/JAudio2/JAISound</text>
<text text-anchor="middle" x="491" y="-443.5" font-family="Helvetica,sans-Serif" font-size="10.00">/JAISound.h</text>
</a>
</g>
</g>
<!-- Node1&#45;&gt;Node2 -->
<g id="edge1" class="edge">
<title>Node1&#45;&gt;Node2</title>
<path fill="none" stroke="midnightblue" d="M529.37,-503.4C523.08,-495.05 514.96,-484.29 507.82,-474.81"/>
<polygon fill="midnightblue" stroke="midnightblue" points="510.43,-472.45 501.61,-466.58 504.84,-476.67 510.43,-472.45"/>
</g>
<!-- Node17 -->
<g id="node17" class="node">
<title>Node17</title>
<g id="a_node17"><a xlink:href="JGeometry_8h.html" target="_top" xlink:title=" ">
<polygon fill="white" stroke="black" points="560.5,-380.5 560.5,-399.5 723.5,-399.5 723.5,-380.5 560.5,-380.5"/>
<text text-anchor="middle" x="642" y="-387.5" font-family="Helvetica,sans-Serif" font-size="10.00">JSystem/JGeometry/JGeometry.h</text>
</a>
</g>
</g>
<!-- Node1&#45;&gt;Node17 -->
<g id="edge28" class="edge">
<title>Node1&#45;&gt;Node17</title>
<path fill="none" stroke="midnightblue" d="M551.31,-503.48C570.24,-480 608.26,-432.84 628.54,-407.69"/>
<polygon fill="midnightblue" stroke="midnightblue" points="631.36,-409.77 634.91,-399.79 625.91,-405.38 631.36,-409.77"/>
</g>
<!-- Node3 -->
<g id="node3" class="node">
<title>Node3</title>
<g id="a_node3"><a xlink:href="global_8h.html" target="_top" xlink:title=" ">
<polygon fill="white" stroke="black" points="453,-380.5 453,-399.5 503,-399.5 503,-380.5 453,-380.5"/>
<text text-anchor="middle" x="478" y="-387.5" font-family="Helvetica,sans-Serif" font-size="10.00">global.h</text>
</a>
</g>
</g>
<!-- Node2&#45;&gt;Node3 -->
<g id="edge2" class="edge">
<title>Node2&#45;&gt;Node3</title>
<path fill="none" stroke="midnightblue" d="M487.92,-436.4C486.17,-428.38 483.95,-418.23 482.06,-409.57"/>
<polygon fill="midnightblue" stroke="midnightblue" points="485.45,-408.68 479.89,-399.66 478.61,-410.17 485.45,-408.68"/>
</g>
<!-- Node4 -->
<g id="node4" class="node">
<title>Node4</title>
<g id="a_node4"><a xlink:href="types_8h.html" target="_top" xlink:title=" ">
<polygon fill="white" stroke="black" points="359.5,-0.5 359.5,-19.5 440.5,-19.5 440.5,-0.5 359.5,-0.5"/>
<text text-anchor="middle" x="400" y="-7.5" font-family="Helvetica,sans-Serif" font-size="10.00">dolphin/types.h</text>
</a>
</g>
</g>
<!-- Node3&#45;&gt;Node4 -->
<g id="edge3" class="edge">
<title>Node3&#45;&gt;Node4</title>
<path fill="none" stroke="midnightblue" d="M478.97,-380.23C482.49,-346.7 493.83,-223.45 482,-123 478.42,-92.59 483.37,-81.21 466,-56 456.66,-42.45 441.81,-31.8 428.55,-24.27"/>
<polygon fill="midnightblue" stroke="midnightblue" points="430.19,-21.17 419.72,-19.55 426.9,-27.35 430.19,-21.17"/>
</g>
<!-- Node5 -->
<g id="node5" class="node">
<title>Node5</title>
<g id="a_node5"><a xlink:href="AR_8h.html" target="_top" xlink:title=" ">
<polygon fill="white" stroke="black" points="540.5,-263 540.5,-282 589.5,-282 589.5,-263 540.5,-263"/>
<text text-anchor="middle" x="565" y="-270" font-family="Helvetica,sans-Serif" font-size="10.00">ar/AR.h</text>
</a>
</g>
</g>
<!-- Node3&#45;&gt;Node5 -->
<g id="edge4" class="edge">
<title>Node3&#45;&gt;Node5</title>
<path fill="none" stroke="midnightblue" d="M489.24,-380.2C499.62,-371.7 515.05,-358.06 526,-344 538.85,-327.5 549.99,-306.23 557.04,-291.38"/>
<polygon fill="midnightblue" stroke="midnightblue" points="560.23,-292.82 561.23,-282.27 553.87,-289.89 560.23,-292.82"/>
</g>
<!-- Node6 -->
<g id="node6" class="node">
<title>Node6</title>
<g id="a_node6"><a xlink:href="ARQ_8h.html" target="_top" xlink:title=" ">
<polygon fill="white" stroke="black" points="590,-196 590,-215 646,-215 646,-196 590,-196"/>
<text text-anchor="middle" x="618" y="-203" font-family="Helvetica,sans-Serif" font-size="10.00">ar/ARQ.h</text>
</a>
</g>
</g>
<!-- Node3&#45;&gt;Node6 -->
<g id="edge6" class="edge">
<title>Node3&#45;&gt;Node6</title>
<path fill="none" stroke="midnightblue" d="M495.1,-380.26C522.19,-365.4 574.31,-332.46 598,-288 608.58,-268.15 613.67,-242.6 616.05,-225.45"/>
<polygon fill="midnightblue" stroke="midnightblue" points="619.58,-225.43 617.29,-215.09 612.63,-224.6 619.58,-225.43"/>
</g>
<!-- Node7 -->
<g id="node7" class="node">
<title>Node7</title>
<g id="a_node7"><a xlink:href="mwcc_8h.html" target="_top" xlink:title=" ">
<polygon fill="white" stroke="black" points="0,-324.5 0,-343.5 50,-343.5 50,-324.5 0,-324.5"/>
<text text-anchor="middle" x="25" y="-331.5" font-family="Helvetica,sans-Serif" font-size="10.00">mwcc.h</text>
</a>
</g>
</g>
<!-- Node3&#45;&gt;Node7 -->
<g id="edge8" class="edge">
<title>Node3&#45;&gt;Node7</title>
<path fill="none" stroke="midnightblue" d="M452.65,-387.3C387.7,-382.7 210.14,-368.71 64,-344 62.73,-343.78 61.44,-343.55 60.13,-343.31"/>
<polygon fill="midnightblue" stroke="midnightblue" points="60.59,-339.83 50.09,-341.25 59.18,-346.69 60.59,-339.83"/>
</g>
<!-- Node8 -->
<g id="node8" class="node">
<title>Node8</title>
<g id="a_node8"><a xlink:href="OS_8h.html" target="_top" xlink:title=" ">
<polygon fill="white" stroke="black" points="26,-129 26,-148 78,-148 78,-129 26,-129"/>
<text text-anchor="middle" x="52" y="-136" font-family="Helvetica,sans-Serif" font-size="10.00">os/OS.h</text>
</a>
</g>
</g>
<!-- Node3&#45;&gt;Node8 -->
<g id="edge9" class="edge">
<title>Node3&#45;&gt;Node8</title>
<path fill="none" stroke="midnightblue" d="M452.92,-387.85C404.67,-384.98 296.16,-375.29 211,-344 165.35,-327.23 149.18,-324.46 117,-288 82.49,-248.89 63.88,-188.58 56.24,-158.26"/>
<polygon fill="midnightblue" stroke="midnightblue" points="59.56,-157.13 53.83,-148.22 52.76,-158.76 59.56,-157.13"/>
</g>
<!-- Node10 -->
<g id="node10" class="node">
<title>Node10</title>
<g id="a_node10"><a xlink:href="variables_8h.html" target="_top" xlink:title=" ">
<polygon fill="white" stroke="black" points="220.5,-324.5 220.5,-343.5 283.5,-343.5 283.5,-324.5 220.5,-324.5"/>
<text text-anchor="middle" x="252" y="-331.5" font-family="Helvetica,sans-Serif" font-size="10.00">variables.h</text>
</a>
</g>
</g>
<!-- Node3&#45;&gt;Node10 -->
<g id="edge13" class="edge">
<title>Node3&#45;&gt;Node10</title>
<path fill="none" stroke="midnightblue" d="M452.95,-383.01C414.41,-373.8 340.13,-356.06 293.48,-344.91"/>
<polygon fill="midnightblue" stroke="midnightblue" points="294.22,-341.49 283.68,-342.57 292.59,-348.3 294.22,-341.49"/>
</g>
<!-- Node5&#45;&gt;Node4 -->
<g id="edge5" class="edge">
<title>Node5&#45;&gt;Node4</title>
<path fill="none" stroke="midnightblue" d="M566.85,-262.85C573.11,-231.09 590.33,-119.39 538,-56 516.74,-30.25 480.51,-19.1 450.51,-14.33"/>
<polygon fill="midnightblue" stroke="midnightblue" points="450.99,-10.87 440.6,-12.95 450.02,-17.8 450.99,-10.87"/>
</g>
<!-- Node6&#45;&gt;Node4 -->
<g id="edge7" class="edge">
<title>Node6&#45;&gt;Node4</title>
<path fill="none" stroke="midnightblue" d="M618.32,-195.64C618.74,-170.04 616.29,-95.28 576,-56 542.94,-23.76 490.12,-13.68 450.96,-10.96"/>
<polygon fill="midnightblue" stroke="midnightblue" points="451,-7.45 440.82,-10.39 450.61,-14.44 451,-7.45"/>
</g>
<!-- Node8&#45;&gt;Node4 -->
<g id="edge10" class="edge">
<title>Node8&#45;&gt;Node4</title>
<path fill="none" stroke="midnightblue" d="M58.7,-128.9C72.47,-111.89 105.79,-74.06 143,-56 209.28,-23.83 295.09,-14.37 348.85,-11.75"/>
<polygon fill="midnightblue" stroke="midnightblue" points="349.32,-15.24 359.16,-11.32 349.02,-8.24 349.32,-15.24"/>
</g>
<!-- Node9 -->
<g id="node9" class="node">
<title>Node9</title>
<g id="a_node9"><a xlink:href="dvd_8h.html" target="_top" xlink:title=" ">
<polygon fill="white" stroke="black" points="22.5,-62 22.5,-81 81.5,-81 81.5,-62 22.5,-62"/>
<text text-anchor="middle" x="52" y="-69" font-family="Helvetica,sans-Serif" font-size="10.00">dvd/dvd.h</text>
</a>
</g>
</g>
<!-- Node8&#45;&gt;Node9 -->
<g id="edge11" class="edge">
<title>Node8&#45;&gt;Node9</title>
<path fill="none" stroke="midnightblue" d="M52,-128.73C52,-119.18 52,-103.62 52,-91.28"/>
<polygon fill="midnightblue" stroke="midnightblue" points="55.5,-91.13 52,-81.13 48.5,-91.13 55.5,-91.13"/>
</g>
<!-- Node9&#45;&gt;Node4 -->
<g id="edge12" class="edge">
<title>Node9&#45;&gt;Node4</title>
<path fill="none" stroke="midnightblue" d="M75.54,-61.92C82.1,-59.75 89.27,-57.59 96,-56 183.85,-35.19 288.38,-22.23 349.16,-15.83"/>
<polygon fill="midnightblue" stroke="midnightblue" points="349.67,-19.3 359.26,-14.79 348.95,-12.34 349.67,-19.3"/>
</g>
<!-- Node11 -->
<g id="node11" class="node">
<title>Node11</title>
<g id="a_node11"><a xlink:href="JSUList_8h.html" target="_top" xlink:title=" ">
<polygon fill="white" stroke="black" points="284,-56.5 284,-86.5 420,-86.5 420,-56.5 284,-56.5"/>
<text text-anchor="start" x="292" y="-74.5" font-family="Helvetica,sans-Serif" font-size="10.00">JSystem/JSupport/JSUList</text>
<text text-anchor="middle" x="352" y="-63.5" font-family="Helvetica,sans-Serif" font-size="10.00">/JSUList.h</text>
</a>
</g>
</g>
<!-- Node10&#45;&gt;Node11 -->
<g id="edge14" class="edge">
<title>Node10&#45;&gt;Node11</title>
<path fill="none" stroke="midnightblue" d="M258.55,-324.22C264.67,-315.5 273.53,-301.54 278,-288 301.17,-217.91 263.48,-188.77 297,-123 302.89,-111.45 312.57,-101.22 322.18,-93.04"/>
<polygon fill="midnightblue" stroke="midnightblue" points="324.53,-95.64 330.15,-86.66 320.15,-90.17 324.53,-95.64"/>
</g>
<!-- Node12 -->
<g id="node12" class="node">
<title>Node12</title>
<g id="a_node12"><a xlink:href="JUTXfb_8h.html" target="_top" xlink:title=" ">
<polygon fill="white" stroke="black" points="144.5,-257.5 144.5,-287.5 269.5,-287.5 269.5,-257.5 144.5,-257.5"/>
<text text-anchor="start" x="152.5" y="-275.5" font-family="Helvetica,sans-Serif" font-size="10.00">JSystem/JUtility/JUTXfb</text>
<text text-anchor="middle" x="207" y="-264.5" font-family="Helvetica,sans-Serif" font-size="10.00">/JUTXfb.h</text>
</a>
</g>
</g>
<!-- Node10&#45;&gt;Node12 -->
<g id="edge16" class="edge">
<title>Node10&#45;&gt;Node12</title>
<path fill="none" stroke="midnightblue" d="M245.55,-324.48C239.86,-316.94 231.3,-305.63 223.69,-295.57"/>
<polygon fill="midnightblue" stroke="midnightblue" points="226.43,-293.39 217.61,-287.52 220.85,-297.61 226.43,-293.39"/>
</g>
<!-- Node16 -->
<g id="node16" class="node">
<title>Node16</title>
<g id="a_node16"><a xlink:href="mtx__vec_8h.html" target="_top" xlink:title=" ">
<polygon fill="white" stroke="black" points="96.5,-129 96.5,-148 157.5,-148 157.5,-129 96.5,-129"/>
<text text-anchor="middle" x="127" y="-136" font-family="Helvetica,sans-Serif" font-size="10.00">mtx_vec.h</text>
</a>
</g>
</g>
<!-- Node10&#45;&gt;Node16 -->
<g id="edge26" class="edge">
<title>Node10&#45;&gt;Node16</title>
<path fill="none" stroke="midnightblue" d="M220.47,-330.17C193.05,-325.88 154.71,-315.11 135,-288 106.86,-249.3 115.27,-188.81 122.06,-158.36"/>
<polygon fill="midnightblue" stroke="midnightblue" points="125.55,-158.81 124.5,-148.27 118.75,-157.16 125.55,-158.81"/>
</g>
<!-- Node11&#45;&gt;Node4 -->
<g id="edge15" class="edge">
<title>Node11&#45;&gt;Node4</title>
<path fill="none" stroke="midnightblue" d="M363.38,-56.4C370.35,-47.75 379.31,-36.64 386.63,-27.58"/>
<polygon fill="midnightblue" stroke="midnightblue" points="389.46,-29.64 393.02,-19.66 384.01,-25.24 389.46,-29.64"/>
</g>
<!-- Node12&#45;&gt;Node4 -->
<g id="edge23" class="edge">
<title>Node12&#45;&gt;Node4</title>
<path fill="none" stroke="midnightblue" d="M201.51,-257.5C187.85,-220.1 156.78,-116.61 205,-56 222.74,-33.7 297.83,-21.5 349.48,-15.61"/>
<polygon fill="midnightblue" stroke="midnightblue" points="349.91,-19.09 359.47,-14.52 349.15,-12.13 349.91,-19.09"/>
</g>
<!-- Node13 -->
<g id="node13" class="node">
<title>Node13</title>
<g id="a_node13"><a xlink:href="JKRHeap_8h.html" target="_top" xlink:title=" ">
<polygon fill="white" stroke="black" points="322,-190.5 322,-220.5 458,-220.5 458,-190.5 322,-190.5"/>
<text text-anchor="start" x="330" y="-208.5" font-family="Helvetica,sans-Serif" font-size="10.00">JSystem/JKernel/JKRHeap</text>
<text text-anchor="middle" x="390" y="-197.5" font-family="Helvetica,sans-Serif" font-size="10.00">/JKRHeap.h</text>
</a>
</g>
</g>
<!-- Node12&#45;&gt;Node13 -->
<g id="edge17" class="edge">
<title>Node12&#45;&gt;Node13</title>
<path fill="none" stroke="midnightblue" d="M246.71,-257.4C274.29,-247.6 311.22,-234.48 340.69,-224.02"/>
<polygon fill="midnightblue" stroke="midnightblue" points="342.12,-227.22 350.37,-220.58 339.77,-220.63 342.12,-227.22"/>
</g>
<!-- Node15 -->
<g id="node15" class="node">
<title>Node15</title>
<g id="a_node15"><a xlink:href="GX_8h.html" target="_top" xlink:title=" ">
<polygon fill="white" stroke="black" points="214.5,-62 214.5,-81 265.5,-81 265.5,-62 214.5,-62"/>
<text text-anchor="middle" x="240" y="-69" font-family="Helvetica,sans-Serif" font-size="10.00">gx/GX.h</text>
</a>
</g>
</g>
<!-- Node12&#45;&gt;Node15 -->
<g id="edge24" class="edge">
<title>Node12&#45;&gt;Node15</title>
<path fill="none" stroke="midnightblue" d="M209.37,-257.19C215.22,-221.91 230.34,-130.78 236.89,-91.25"/>
<polygon fill="midnightblue" stroke="midnightblue" points="240.35,-91.8 238.53,-81.36 233.44,-90.65 240.35,-91.8"/>
</g>
<!-- Node13&#45;&gt;Node3 -->
<g id="edge22" class="edge">
<title>Node13&#45;&gt;Node3</title>
<path fill="none" stroke="midnightblue" d="M396.84,-220.69C412.66,-253.49 451.71,-334.48 469.24,-370.83"/>
<polygon fill="midnightblue" stroke="midnightblue" points="466.26,-372.71 473.76,-380.2 472.56,-369.67 466.26,-372.71"/>
</g>
<!-- Node13&#45;&gt;Node4 -->
<g id="edge21" class="edge">
<title>Node13&#45;&gt;Node4</title>
<path fill="none" stroke="midnightblue" d="M425.14,-190.45C440.61,-182.29 457.24,-170.34 466,-154 480.42,-127.1 445.54,-56.9 445,-56 438.25,-44.86 428.17,-34.43 419.26,-26.43"/>
<polygon fill="midnightblue" stroke="midnightblue" points="421.41,-23.66 411.54,-19.81 416.86,-28.97 421.41,-23.66"/>
</g>
<!-- Node14 -->
<g id="node14" class="node">
<title>Node14</title>
<g id="a_node14"><a xlink:href="JKRDisposer_8h.html" target="_top" xlink:title=" ">
<polygon fill="white" stroke="black" points="306.5,-123.5 306.5,-153.5 457.5,-153.5 457.5,-123.5 306.5,-123.5"/>
<text text-anchor="start" x="314.5" y="-141.5" font-family="Helvetica,sans-Serif" font-size="10.00">JSystem/JKernel/JKRDisposer</text>
<text text-anchor="middle" x="382" y="-130.5" font-family="Helvetica,sans-Serif" font-size="10.00">/JKRDisposer.h</text>
</a>
</g>
</g>
<!-- Node13&#45;&gt;Node14 -->
<g id="edge18" class="edge">
<title>Node13&#45;&gt;Node14</title>
<path fill="none" stroke="midnightblue" d="M388.26,-190.4C387.3,-182.56 386.07,-172.6 384.96,-163.57"/>
<polygon fill="midnightblue" stroke="midnightblue" points="388.43,-163.07 383.73,-153.58 381.48,-163.93 388.43,-163.07"/>
</g>
<!-- Node14&#45;&gt;Node4 -->
<g id="edge20" class="edge">
<title>Node14&#45;&gt;Node4</title>
<path fill="none" stroke="midnightblue" d="M400.81,-123.37C411.27,-114.29 423.3,-101.49 429,-87 434.04,-74.18 432.89,-69.22 429,-56 425.99,-45.76 419.85,-35.66 413.99,-27.63"/>
<polygon fill="midnightblue" stroke="midnightblue" points="416.59,-25.27 407.67,-19.54 411.07,-29.58 416.59,-25.27"/>
</g>
<!-- Node14&#45;&gt;Node11 -->
<g id="edge19" class="edge">
<title>Node14&#45;&gt;Node11</title>
<path fill="none" stroke="midnightblue" d="M375.49,-123.4C371.76,-115.3 366.97,-104.94 362.7,-95.69"/>
<polygon fill="midnightblue" stroke="midnightblue" points="365.87,-94.19 358.5,-86.58 359.51,-97.12 365.87,-94.19"/>
</g>
<!-- Node15&#45;&gt;Node4 -->
<g id="edge25" class="edge">
<title>Node15&#45;&gt;Node4</title>
<path fill="none" stroke="midnightblue" d="M260.29,-61.9C265.1,-59.92 270.22,-57.85 275,-56 305.38,-44.24 340.29,-31.76 365.48,-22.93"/>
<polygon fill="midnightblue" stroke="midnightblue" points="366.68,-26.22 374.97,-19.62 364.37,-19.61 366.68,-26.22"/>
</g>
<!-- Node16&#45;&gt;Node4 -->
<g id="edge27" class="edge">
<title>Node16&#45;&gt;Node4</title>
<path fill="none" stroke="midnightblue" d="M129.11,-128.99C133.76,-112.14 146.54,-74.58 172,-56 199.67,-35.8 290.94,-22.6 349.27,-16"/>
<polygon fill="midnightblue" stroke="midnightblue" points="349.85,-19.46 359.4,-14.88 349.08,-12.5 349.85,-19.46"/>
</g>
<!-- Node17&#45;&gt;Node4 -->
<g id="edge29" class="edge">
<title>Node17&#45;&gt;Node4</title>
<path fill="none" stroke="midnightblue" d="M646.18,-380.24C654.86,-361.26 674,-314.7 674,-273.5 674,-273.5 674,-273.5 674,-137.5 674,-40.35 530.25,-17.57 450.99,-12.39"/>
<polygon fill="midnightblue" stroke="midnightblue" points="450.91,-8.88 440.72,-11.79 450.51,-15.87 450.91,-8.88"/>
</g>
</g>
</svg>
